{
  "header": {
    "keySignatures": [],
    "meta": [],
    "name": "",
    "ppq": 96,
    "tempos": [
      {
        "bpm": 160,
        "ticks": 0
      }
    ],
    "timeSignatures": [
      {
        "ticks": 0,
        "timeSignature": [
          4,
          4
        ],
        "measures": 0
      }
    ]
  },
  "tracks": [
    {
      "channel": 0,
      "controlChanges": {},
      "pitchBends": [],
      "instrument": {
        "family": "piano",
        "number": 0,
        "name": "acoustic grand piano"
      },
      "name": "",
      "notes": [],
      "endOfTrackTicks": 0
    },
    {
      "channel": 0,
      "controlChanges": {
        "6": [
          {
            "number": 6,
            "ticks": 0,
            "time": 0,
            "value": 0.09448818897637795
          },
          {
            "number": 6,
            "ticks": 0,
            "time": 0,
            "value": 0.09448818897637795
          },
          {
            "number": 6,
            "ticks": 0,
            "time": 0,
            "value": 0.09448818897637795
          },
          {
            "number": 6,
            "ticks": 37728,
            "time": 147.375,
            "value": 0.09448818897637795
          },
          {
            "number": 6,
            "ticks": 37730,
            "time": 147.3828125,
            "value": 0.09448818897637795
          }
        ],
        "7": [
          {
            "number": 7,
            "ticks": 0,
            "time": 0,
            "value": 0.7874015748031497
          },
          {
            "number": 7,
            "ticks": 0,
            "time": 0,
            "value": 0.7874015748031497
          },
          {
            "number": 7,
            "ticks": 0,
            "time": 0,
            "value": 0.7874015748031497
          },
          {
            "number": 7,
            "ticks": 0,
            "time": 0,
            "value": 0.7874015748031497
          },
          {
            "number": 7,
            "ticks": 37728,
            "time": 147.375,
            "value": 0.7874015748031497
          },
          {
            "number": 7,
            "ticks": 37730,
            "time": 147.3828125,
            "value": 0.7874015748031497
          }
        ],
        "10": [
          {
            "number": 10,
            "ticks": 0,
            "time": 0,
            "value": 0.5039370078740157
          },
          {
            "number": 10,
            "ticks": 0,
            "time": 0,
            "value": 0.5039370078740157
          },
          {
            "number": 10,
            "ticks": 0,
            "time": 0,
            "value": 0.5039370078740157
          },
          {
            "number": 10,
            "ticks": 0,
            "time": 0,
            "value": 0.5039370078740157
          },
          {
            "number": 10,
            "ticks": 37728,
            "time": 147.375,
            "value": 0.5039370078740157
          },
          {
            "number": 10,
            "ticks": 37730,
            "time": 147.3828125,
            "value": 0.5039370078740157
          }
        ],
        "100": [
          {
            "number": 100,
            "ticks": 0,
            "time": 0,
            "value": 0
          },
          {
            "number": 100,
            "ticks": 0,
            "time": 0,
            "value": 0
          },
          {
            "number": 100,
            "ticks": 0,
            "time": 0,
            "value": 0
          },
          {
            "number": 100,
            "ticks": 37728,
            "time": 147.375,
            "value": 0
          },
          {
            "number": 100,
            "ticks": 37730,
            "time": 147.3828125,
            "value": 0
          }
        ],
        "101": [
          {
            "number": 101,
            "ticks": 0,
            "time": 0,
            "value": 0
          },
          {
            "number": 101,
            "ticks": 0,
            "time": 0,
            "value": 0
          },
          {
            "number": 101,
            "ticks": 0,
            "time": 0,
            "value": 0
          },
          {
            "number": 101,
            "ticks": 37728,
            "time": 147.375,
            "value": 0
          },
          {
            "number": 101,
            "ticks": 37730,
            "time": 147.3828125,
            "value": 0
          }
        ]
      },
      "pitchBends": [
        {
          "ticks": 0,
          "time": 0,
          "value": 0
        },
        {
          "ticks": 0,
          "time": 0,
          "value": 0
        },
        {
          "ticks": 0,
          "time": 0,
          "value": 0
        },
        {
          "ticks": 0,
          "time": 0,
          "value": 0
        },
        {
          "ticks": 37728,
          "time": 147.375,
          "value": 0
        },
        {
          "ticks": 37730,
          "time": 147.3828125,
          "value": 0
        }
      ],
      "instrument": {
        "family": "piano",
        "number": 0,
        "name": "acoustic grand piano"
      },
      "name": "Sampler",
      "notes": [],
      "endOfTrackTicks": 37730
    },
    {
      "channel": 1,
      "controlChanges": {
        "6": [
          {
            "number": 6,
            "ticks": 0,
            "time": 0,
            "value": 0.09448818897637795
          },
          {
            "number": 6,
            "ticks": 0,
            "time": 0,
            "value": 0.09448818897637795
          },
          {
            "number": 6,
            "ticks": 0,
            "time": 0,
            "value": 0.09448818897637795
          },
          {
            "number": 6,
            "ticks": 37728,
            "time": 147.375,
            "value": 0.09448818897637795
          },
          {
            "number": 6,
            "ticks": 37730,
            "time": 147.3828125,
            "value": 0.09448818897637795
          }
        ],
        "7": [
          {
            "number": 7,
            "ticks": 0,
            "time": 0,
            "value": 0.7874015748031497
          },
          {
            "number": 7,
            "ticks": 0,
            "time": 0,
            "value": 0.7874015748031497
          },
          {
            "number": 7,
            "ticks": 0,
            "time": 0,
            "value": 0.7874015748031497
          },
          {
            "number": 7,
            "ticks": 0,
            "time": 0,
            "value": 0.7874015748031497
          },
          {
            "number": 7,
            "ticks": 37728,
            "time": 147.375,
            "value": 0.7874015748031497
          },
          {
            "number": 7,
            "ticks": 37730,
            "time": 147.3828125,
            "value": 0.7874015748031497
          }
        ],
        "10": [
          {
            "number": 10,
            "ticks": 0,
            "time": 0,
            "value": 0.5039370078740157
          },
          {
            "number": 10,
            "ticks": 0,
            "time": 0,
            "value": 0.5039370078740157
          },
          {
            "number": 10,
            "ticks": 0,
            "time": 0,
            "value": 0.5039370078740157
          },
          {
            "number": 10,
            "ticks": 0,
            "time": 0,
            "value": 0.5039370078740157
          },
          {
            "number": 10,
            "ticks": 37728,
            "time": 147.375,
            "value": 0.5039370078740157
          },
          {
            "number": 10,
            "ticks": 37730,
            "time": 147.3828125,
            "value": 0.5039370078740157
          }
        ],
        "100": [
          {
            "number": 100,
            "ticks": 0,
            "time": 0,
            "value": 0
          },
          {
            "number": 100,
            "ticks": 0,
            "time": 0,
            "value": 0
          },
          {
            "number": 100,
            "ticks": 0,
            "time": 0,
            "value": 0
          },
          {
            "number": 100,
            "ticks": 37728,
            "time": 147.375,
            "value": 0
          },
          {
            "number": 100,
            "ticks": 37730,
            "time": 147.3828125,
            "value": 0
          }
        ],
        "101": [
          {
            "number": 101,
            "ticks": 0,
            "time": 0,
            "value": 0
          },
          {
            "number": 101,
            "ticks": 0,
            "time": 0,
            "value": 0
          },
          {
            "number": 101,
            "ticks": 0,
            "time": 0,
            "value": 0
          },
          {
            "number": 101,
            "ticks": 37728,
            "time": 147.375,
            "value": 0
          },
          {
            "number": 101,
            "ticks": 37730,
            "time": 147.3828125,
            "value": 0
          }
        ]
      },
      "pitchBends": [
        {
          "ticks": 0,
          "time": 0,
          "value": 0
        },
        {
          "ticks": 0,
          "time": 0,
          "value": 0
        },
        {
          "ticks": 0,
          "time": 0,
          "value": 0
        },
        {
          "ticks": 0,
          "time": 0,
          "value": 0
        },
        {
          "ticks": 37728,
          "time": 147.375,
          "value": 0
        },
        {
          "ticks": 37730,
          "time": 147.3828125,
          "value": 0
        }
      ],
      "instrument": {
        "family": "piano",
        "number": 0,
        "name": "acoustic grand piano"
      },
      "name": "Piano",
      "notes": [
        {
          "duration": 0.140625,
          "durationTicks": 36,
          "midi": 84,
          "name": "C6",
          "ticks": 2680,
          "time": 10.46875,
          "velocity": 0.30708661417322836
        },
        {
          "duration": 0.140625,
          "durationTicks": 36,
          "midi": 96,
          "name": "C7",
          "ticks": 2681,
          "time": 10.47265625,
          "velocity": 0.30708661417322836
        },
        {
          "duration": 0.140625,
          "durationTicks": 36,
          "midi": 84,
          "name": "C6",
          "ticks": 2768,
          "time": 10.8125,
          "velocity": 0.7952755905511811
        },
        {
          "duration": 0.140625,
          "durationTicks": 36,
          "midi": 96,
          "name": "C7",
          "ticks": 2769,
          "time": 10.81640625,
          "velocity": 0.7952755905511811
        },
        {
          "duration": 0.140625,
          "durationTicks": 36,
          "midi": 84,
          "name": "C6",
          "ticks": 2856,
          "time": 11.15625,
          "velocity": 0.7952755905511811
        },
        {
          "duration": 0.140625,
          "durationTicks": 36,
          "midi": 96,
          "name": "C7",
          "ticks": 2857,
          "time": 11.16015625,
          "velocity": 0.7952755905511811
        },
        {
          "duration": 0.140625,
          "durationTicks": 36,
          "midi": 84,
          "name": "C6",
          "ticks": 2920,
          "time": 11.40625,
          "velocity": 0.7952755905511811
        },
        {
          "duration": 0.140625,
          "durationTicks": 36,
          "midi": 96,
          "name": "C7",
          "ticks": 2921,
          "time": 11.41015625,
          "velocity": 0.7952755905511811
        },
        {
          "duration": 0.140625,
          "durationTicks": 36,
          "midi": 84,
          "name": "C6",
          "ticks": 2968,
          "time": 11.59375,
          "velocity": 0.7952755905511811
        },
        {
          "duration": 0.140625,
          "durationTicks": 36,
          "midi": 96,
          "name": "C7",
          "ticks": 2969,
          "time": 11.59765625,
          "velocity": 0.7952755905511811
        },
        {
          "duration": 0.140625,
          "durationTicks": 36,
          "midi": 84,
          "name": "C6",
          "ticks": 3024,
          "time": 11.8125,
          "velocity": 0.7952755905511811
        },
        {
          "duration": 0.140625,
          "durationTicks": 36,
          "midi": 96,
          "name": "C7",
          "ticks": 3025,
          "time": 11.81640625,
          "velocity": 0.7952755905511811
        },
        {
          "duration": 0.140625,
          "durationTicks": 36,
          "midi": 84,
          "name": "C6",
          "ticks": 3072,
          "time": 12,
          "velocity": 0.7952755905511811
        },
        {
          "duration": 0.140625,
          "durationTicks": 36,
          "midi": 96,
          "name": "C7",
          "ticks": 3073,
          "time": 12.00390625,
          "velocity": 0.7952755905511811
        },
        {
          "duration": 0.05078125,
          "durationTicks": 13,
          "midi": 95,
          "name": "B6",
          "ticks": 3105,
          "time": 12.12890625,
          "velocity": 0.7637795275590551
        },
        {
          "duration": 0.05078125,
          "durationTicks": 13,
          "midi": 93,
          "name": "A6",
          "ticks": 3112,
          "time": 12.15625,
          "velocity": 0.7637795275590551
        },
        {
          "duration": 0.05078125,
          "durationTicks": 13,
          "midi": 91,
          "name": "G6",
          "ticks": 3120,
          "time": 12.1875,
          "velocity": 0.7559055118110236
        },
        {
          "duration": 0.05078125,
          "durationTicks": 13,
          "midi": 89,
          "name": "F6",
          "ticks": 3132,
          "time": 12.234375,
          "velocity": 0.7480314960629921
        },
        {
          "duration": 0.05078125,
          "durationTicks": 13,
          "midi": 88,
          "name": "E6",
          "ticks": 3144,
          "time": 12.28125,
          "velocity": 0.7401574803149606
        },
        {
          "duration": 0.05078125,
          "durationTicks": 13,
          "midi": 86,
          "name": "D6",
          "ticks": 3156,
          "time": 12.328125,
          "velocity": 0.7244094488188977
        },
        {
          "duration": 0.0546875,
          "durationTicks": 14,
          "midi": 84,
          "name": "C6",
          "ticks": 3168,
          "time": 12.375,
          "velocity": 0.7165354330708661
        },
        {
          "duration": 0.05078125,
          "durationTicks": 13,
          "midi": 83,
          "name": "B5",
          "ticks": 3181,
          "time": 12.42578125,
          "velocity": 0.7086614173228346
        },
        {
          "duration": 0.05078125,
          "durationTicks": 13,
          "midi": 81,
          "name": "A5",
          "ticks": 3193,
          "time": 12.47265625,
          "velocity": 0.7007874015748031
        },
        {
          "duration": 0.05078125,
          "durationTicks": 13,
          "midi": 79,
          "name": "G5",
          "ticks": 3205,
          "time": 12.51953125,
          "velocity": 0.6850393700787402
        },
        {
          "duration": 0.05078125,
          "durationTicks": 13,
          "midi": 77,
          "name": "F5",
          "ticks": 3217,
          "time": 12.56640625,
          "velocity": 0.6771653543307087
        },
        {
          "duration": 0.05078125,
          "durationTicks": 13,
          "midi": 76,
          "name": "E5",
          "ticks": 3229,
          "time": 12.61328125,
          "velocity": 0.6692913385826772
        },
        {
          "duration": 0.05078125,
          "durationTicks": 13,
          "midi": 74,
          "name": "D5",
          "ticks": 3241,
          "time": 12.66015625,
          "velocity": 0.6614173228346457
        },
        {
          "duration": 0.05078125,
          "durationTicks": 13,
          "midi": 72,
          "name": "C5",
          "ticks": 3253,
          "time": 12.70703125,
          "velocity": 0.6535433070866141
        },
        {
          "duration": 0.05078125,
          "durationTicks": 13,
          "midi": 71,
          "name": "B4",
          "ticks": 3265,
          "time": 12.75390625,
          "velocity": 0.6377952755905512
        },
        {
          "duration": 0.0546875,
          "durationTicks": 14,
          "midi": 69,
          "name": "A4",
          "ticks": 3277,
          "time": 12.80078125,
          "velocity": 0.6299212598425197
        },
        {
          "duration": 0.05078125,
          "durationTicks": 13,
          "midi": 67,
          "name": "G4",
          "ticks": 3290,
          "time": 12.8515625,
          "velocity": 0.6220472440944882
        },
        {
          "duration": 0.05078125,
          "durationTicks": 13,
          "midi": 65,
          "name": "F4",
          "ticks": 3302,
          "time": 12.8984375,
          "velocity": 0.6141732283464567
        },
        {
          "duration": 0.05078125,
          "durationTicks": 13,
          "midi": 64,
          "name": "E4",
          "ticks": 3314,
          "time": 12.9453125,
          "velocity": 0.5984251968503937
        },
        {
          "duration": 0.05078125,
          "durationTicks": 13,
          "midi": 62,
          "name": "D4",
          "ticks": 3326,
          "time": 12.9921875,
          "velocity": 0.5905511811023622
        },
        {
          "duration": 0.05078125,
          "durationTicks": 13,
          "midi": 60,
          "name": "C4",
          "ticks": 3338,
          "time": 13.0390625,
          "velocity": 0.5826771653543307
        },
        {
          "duration": 0.05078125,
          "durationTicks": 13,
          "midi": 59,
          "name": "B3",
          "ticks": 3350,
          "time": 13.0859375,
          "velocity": 0.5748031496062992
        },
        {
          "duration": 0.05078125,
          "durationTicks": 13,
          "midi": 57,
          "name": "A3",
          "ticks": 3362,
          "time": 13.1328125,
          "velocity": 0.5669291338582677
        },
        {
          "duration": 0.05078125,
          "durationTicks": 13,
          "midi": 55,
          "name": "G3",
          "ticks": 3374,
          "time": 13.1796875,
          "velocity": 0.5511811023622047
        },
        {
          "duration": 0.0546875,
          "durationTicks": 14,
          "midi": 53,
          "name": "F3",
          "ticks": 3386,
          "time": 13.2265625,
          "velocity": 0.5433070866141733
        },
        {
          "duration": 0.05078125,
          "durationTicks": 13,
          "midi": 52,
          "name": "E3",
          "ticks": 3399,
          "time": 13.27734375,
          "velocity": 0.5354330708661418
        },
        {
          "duration": 0.05078125,
          "durationTicks": 13,
          "midi": 50,
          "name": "D3",
          "ticks": 3411,
          "time": 13.32421875,
          "velocity": 0.5275590551181102
        },
        {
          "duration": 0.05078125,
          "durationTicks": 13,
          "midi": 48,
          "name": "C3",
          "ticks": 3423,
          "time": 13.37109375,
          "velocity": 0.5118110236220472
        },
        {
          "duration": 0.05078125,
          "durationTicks": 13,
          "midi": 47,
          "name": "B2",
          "ticks": 3435,
          "time": 13.41796875,
          "velocity": 0.5039370078740157
        },
        {
          "duration": 0.328125,
          "durationTicks": 84,
          "midi": 56,
          "name": "G#3",
          "ticks": 3456,
          "time": 13.5,
          "velocity": 0.7401574803149606
        },
        {
          "duration": 0.328125,
          "durationTicks": 84,
          "midi": 60,
          "name": "C4",
          "ticks": 3456,
          "time": 13.5,
          "velocity": 0.7559055118110236
        },
        {
          "duration": 0.328125,
          "durationTicks": 84,
          "midi": 63,
          "name": "D#4",
          "ticks": 3456,
          "time": 13.5,
          "velocity": 0.7322834645669292
        },
        {
          "duration": 0.328125,
          "durationTicks": 84,
          "midi": 44,
          "name": "G#2",
          "ticks": 3456,
          "time": 13.5,
          "velocity": 0.6220472440944882
        },
        {
          "duration": 0.140625,
          "durationTicks": 36,
          "midi": 51,
          "name": "D#3",
          "ticks": 3504,
          "time": 13.6875,
          "velocity": 0.7401574803149606
        },
        {
          "duration": 0.234375,
          "durationTicks": 60,
          "midi": 62,
          "name": "D4",
          "ticks": 3552,
          "time": 13.875,
          "velocity": 0.7401574803149606
        },
        {
          "duration": 0.234375,
          "durationTicks": 60,
          "midi": 56,
          "name": "G#3",
          "ticks": 3552,
          "time": 13.875,
          "velocity": 0.7401574803149606
        },
        {
          "duration": 0.234375,
          "durationTicks": 60,
          "midi": 60,
          "name": "C4",
          "ticks": 3552,
          "time": 13.875,
          "velocity": 0.7480314960629921
        },
        {
          "duration": 0.140625,
          "durationTicks": 36,
          "midi": 51,
          "name": "D#3",
          "ticks": 3600,
          "time": 14.0625,
          "velocity": 0.7401574803149606
        },
        {
          "duration": 0.09375,
          "durationTicks": 24,
          "midi": 63,
          "name": "D#4",
          "ticks": 3624,
          "time": 14.15625,
          "velocity": 0.7322834645669292
        },
        {
          "duration": 0.328125,
          "durationTicks": 84,
          "midi": 59,
          "name": "B3",
          "ticks": 3648,
          "time": 14.25,
          "velocity": 0.7559055118110236
        },
        {
          "duration": 0.328125,
          "durationTicks": 84,
          "midi": 62,
          "name": "D4",
          "ticks": 3648,
          "time": 14.25,
          "velocity": 0.7480314960629921
        },
        {
          "duration": 0.328125,
          "durationTicks": 84,
          "midi": 65,
          "name": "F4",
          "ticks": 3648,
          "time": 14.25,
          "velocity": 0.7322834645669292
        },
        {
          "duration": 0.375,
          "durationTicks": 96,
          "midi": 43,
          "name": "G2",
          "ticks": 3648,
          "time": 14.25,
          "velocity": 0.6220472440944882
        },
        {
          "duration": 0.140625,
          "durationTicks": 36,
          "midi": 50,
          "name": "D3",
          "ticks": 3696,
          "time": 14.4375,
          "velocity": 0.7401574803149606
        },
        {
          "duration": 0.234375,
          "durationTicks": 60,
          "midi": 55,
          "name": "G3",
          "ticks": 3744,
          "time": 14.625,
          "velocity": 0.7559055118110236
        },
        {
          "duration": 0.234375,
          "durationTicks": 60,
          "midi": 59,
          "name": "B3",
          "ticks": 3744,
          "time": 14.625,
          "velocity": 0.7244094488188977
        },
        {
          "duration": 0.234375,
          "durationTicks": 60,
          "midi": 62,
          "name": "D4",
          "ticks": 3744,
          "time": 14.625,
          "velocity": 0.7322834645669292
        },
        {
          "duration": 0.140625,
          "durationTicks": 36,
          "midi": 50,
          "name": "D3",
          "ticks": 3792,
          "time": 14.8125,
          "velocity": 0.7401574803149606
        },
        {
          "duration": 0.09375,
          "durationTicks": 24,
          "midi": 65,
          "name": "F4",
          "ticks": 3816,
          "time": 14.90625,
          "velocity": 0.7559055118110236
        },
        {
          "duration": 0.328125,
          "durationTicks": 84,
          "midi": 60,
          "name": "C4",
          "ticks": 3840,
          "time": 15,
          "velocity": 0.7559055118110236
        },
        {
          "duration": 0.328125,
          "durationTicks": 84,
          "midi": 63,
          "name": "D#4",
          "ticks": 3840,
          "time": 15,
          "velocity": 0.7244094488188977
        },
        {
          "duration": 0.328125,
          "durationTicks": 84,
          "midi": 67,
          "name": "G4",
          "ticks": 3840,
          "time": 15,
          "velocity": 0.7244094488188977
        },
        {
          "duration": 0.375,
          "durationTicks": 96,
          "midi": 48,
          "name": "C3",
          "ticks": 3840,
          "time": 15,
          "velocity": 0.6220472440944882
        },
        {
          "duration": 0.140625,
          "durationTicks": 36,
          "midi": 55,
          "name": "G3",
          "ticks": 3888,
          "time": 15.1875,
          "velocity": 0.7401574803149606
        },
        {
          "duration": 0.28125,
          "durationTicks": 72,
          "midi": 60,
          "name": "C4",
          "ticks": 3936,
          "time": 15.375,
          "velocity": 0.7559055118110236
        },
        {
          "duration": 0.140625,
          "durationTicks": 36,
          "midi": 55,
          "name": "G3",
          "ticks": 3984,
          "time": 15.5625,
          "velocity": 0.7401574803149606
        },
        {
          "duration": 0.09375,
          "durationTicks": 24,
          "midi": 67,
          "name": "G4",
          "ticks": 4008,
          "time": 15.65625,
          "velocity": 0.7401574803149606
        },
        {
          "duration": 0.328125,
          "durationTicks": 84,
          "midi": 65,
          "name": "F4",
          "ticks": 4032,
          "time": 15.75,
          "velocity": 0.7480314960629921
        },
        {
          "duration": 0.328125,
          "durationTicks": 84,
          "midi": 62,
          "name": "D4",
          "ticks": 4032,
          "time": 15.75,
          "velocity": 0.7322834645669292
        },
        {
          "duration": 0.328125,
          "durationTicks": 84,
          "midi": 58,
          "name": "A#3",
          "ticks": 4032,
          "time": 15.75,
          "velocity": 0.7244094488188977
        },
        {
          "duration": 0.375,
          "durationTicks": 96,
          "midi": 46,
          "name": "A#2",
          "ticks": 4032,
          "time": 15.75,
          "velocity": 0.6220472440944882
        },
        {
          "duration": 0.140625,
          "durationTicks": 36,
          "midi": 53,
          "name": "F3",
          "ticks": 4080,
          "time": 15.9375,
          "velocity": 0.7401574803149606
        },
        {
          "duration": 0.328125,
          "durationTicks": 84,
          "midi": 62,
          "name": "D4",
          "ticks": 4128,
          "time": 16.125,
          "velocity": 0.7322834645669292
        },
        {
          "duration": 0.328125,
          "durationTicks": 84,
          "midi": 65,
          "name": "F4",
          "ticks": 4128,
          "time": 16.125,
          "velocity": 0.7322834645669292
        },
        {
          "duration": 0.328125,
          "durationTicks": 84,
          "midi": 68,
          "name": "G#4",
          "ticks": 4128,
          "time": 16.125,
          "velocity": 0.7322834645669292
        },
        {
          "duration": 0.140625,
          "durationTicks": 36,
          "midi": 53,
          "name": "F3",
          "ticks": 4176,
          "time": 16.3125,
          "velocity": 0.7401574803149606
        },
        {
          "duration": 0.328125,
          "durationTicks": 84,
          "midi": 68,
          "name": "G#4",
          "ticks": 4224,
          "time": 16.5,
          "velocity": 0.7322834645669292
        },
        {
          "duration": 0.328125,
          "durationTicks": 84,
          "midi": 63,
          "name": "D#4",
          "ticks": 4224,
          "time": 16.5,
          "velocity": 0.7559055118110236
        },
        {
          "duration": 0.328125,
          "durationTicks": 84,
          "midi": 60,
          "name": "C4",
          "ticks": 4224,
          "time": 16.5,
          "velocity": 0.7480314960629921
        },
        {
          "duration": 0.375,
          "durationTicks": 96,
          "midi": 44,
          "name": "G#2",
          "ticks": 4224,
          "time": 16.5,
          "velocity": 0.6220472440944882
        },
        {
          "duration": 0.1875,
          "durationTicks": 48,
          "midi": 51,
          "name": "D#3",
          "ticks": 4272,
          "time": 16.6875,
          "velocity": 0.7401574803149606
        },
        {
          "duration": 0.328125,
          "durationTicks": 84,
          "midi": 63,
          "name": "D#4",
          "ticks": 4320,
          "time": 16.875,
          "velocity": 0.7559055118110236
        },
        {
          "duration": 0.328125,
          "durationTicks": 84,
          "midi": 68,
          "name": "G#4",
          "ticks": 4320,
          "time": 16.875,
          "velocity": 0.7401574803149606
        },
        {
          "duration": 0.328125,
          "durationTicks": 84,
          "midi": 72,
          "name": "C5",
          "ticks": 4320,
          "time": 16.875,
          "velocity": 0.7559055118110236
        },
        {
          "duration": 0.1875,
          "durationTicks": 48,
          "midi": 56,
          "name": "G#3",
          "ticks": 4320,
          "time": 16.875,
          "velocity": 0.7401574803149606
        },
        {
          "duration": 0.1875,
          "durationTicks": 48,
          "midi": 51,
          "name": "D#3",
          "ticks": 4368,
          "time": 17.0625,
          "velocity": 0.7401574803149606
        },
        {
          "duration": 0.328125,
          "durationTicks": 84,
          "midi": 70,
          "name": "A#4",
          "ticks": 4416,
          "time": 17.25,
          "velocity": 0.7322834645669292
        },
        {
          "duration": 0.328125,
          "durationTicks": 84,
          "midi": 67,
          "name": "G4",
          "ticks": 4416,
          "time": 17.25,
          "velocity": 0.7244094488188977
        },
        {
          "duration": 0.328125,
          "durationTicks": 84,
          "midi": 62,
          "name": "D4",
          "ticks": 4416,
          "time": 17.25,
          "velocity": 0.7401574803149606
        },
        {
          "duration": 0.375,
          "durationTicks": 96,
          "midi": 46,
          "name": "A#2",
          "ticks": 4416,
          "time": 17.25,
          "velocity": 0.6220472440944882
        },
        {
          "duration": 0.1875,
          "durationTicks": 48,
          "midi": 50,
          "name": "D3",
          "ticks": 4464,
          "time": 17.4375,
          "velocity": 0.7401574803149606
        },
        {
          "duration": 0.328125,
          "durationTicks": 84,
          "midi": 65,
          "name": "F4",
          "ticks": 4512,
          "time": 17.625,
          "velocity": 0.7244094488188977
        },
        {
          "duration": 0.328125,
          "durationTicks": 84,
          "midi": 62,
          "name": "D4",
          "ticks": 4512,
          "time": 17.625,
          "velocity": 0.7559055118110236
        },
        {
          "duration": 0.328125,
          "durationTicks": 84,
          "midi": 58,
          "name": "A#3",
          "ticks": 4512,
          "time": 17.625,
          "velocity": 0.7244094488188977
        },
        {
          "duration": 0.1875,
          "durationTicks": 48,
          "midi": 53,
          "name": "F3",
          "ticks": 4512,
          "time": 17.625,
          "velocity": 0.7401574803149606
        },
        {
          "duration": 0.1875,
          "durationTicks": 48,
          "midi": 50,
          "name": "D3",
          "ticks": 4560,
          "time": 17.8125,
          "velocity": 0.7401574803149606
        },
        {
          "duration": 0.1875,
          "durationTicks": 48,
          "midi": 63,
          "name": "D#4",
          "ticks": 4608,
          "time": 18,
          "velocity": 0.7559055118110236
        },
        {
          "duration": 0.1875,
          "durationTicks": 48,
          "midi": 58,
          "name": "A#3",
          "ticks": 4608,
          "time": 18,
          "velocity": 0.7401574803149606
        },
        {
          "duration": 0.1875,
          "durationTicks": 48,
          "midi": 68,
          "name": "G#4",
          "ticks": 4608,
          "time": 18,
          "velocity": 0.7322834645669292
        },
        {
          "duration": 0.328125,
          "durationTicks": 84,
          "midi": 51,
          "name": "D#3",
          "ticks": 4608,
          "time": 18,
          "velocity": 0.6220472440944882
        },
        {
          "duration": 0.046875,
          "durationTicks": 12,
          "midi": 63,
          "name": "D#4",
          "ticks": 4680,
          "time": 18.28125,
          "velocity": 0.7322834645669292
        },
        {
          "duration": 0.046875,
          "durationTicks": 12,
          "midi": 67,
          "name": "G4",
          "ticks": 4680,
          "time": 18.28125,
          "velocity": 0.7401574803149606
        },
        {
          "duration": 0.046875,
          "durationTicks": 12,
          "midi": 58,
          "name": "A#3",
          "ticks": 4680,
          "time": 18.28125,
          "velocity": 0.7322834645669292
        },
        {
          "duration": 0.375,
          "durationTicks": 96,
          "midi": 63,
          "name": "D#4",
          "ticks": 4704,
          "time": 18.375,
          "velocity": 0.7559055118110236
        },
        {
          "duration": 0.375,
          "durationTicks": 96,
          "midi": 67,
          "name": "G4",
          "ticks": 4704,
          "time": 18.375,
          "velocity": 0.7322834645669292
        },
        {
          "duration": 0.375,
          "durationTicks": 96,
          "midi": 58,
          "name": "A#3",
          "ticks": 4704,
          "time": 18.375,
          "velocity": 0.7559055118110236
        },
        {
          "duration": 0.1875,
          "durationTicks": 48,
          "midi": 55,
          "name": "G3",
          "ticks": 4704,
          "time": 18.375,
          "velocity": 0.7401574803149606
        },
        {
          "duration": 0.328125,
          "durationTicks": 84,
          "midi": 50,
          "name": "D3",
          "ticks": 4800,
          "time": 18.75,
          "velocity": 0.6220472440944882
        },
        {
          "duration": 0.046875,
          "durationTicks": 12,
          "midi": 67,
          "name": "G4",
          "ticks": 4872,
          "time": 19.03125,
          "velocity": 0.7401574803149606
        },
        {
          "duration": 0.046875,
          "durationTicks": 12,
          "midi": 63,
          "name": "D#4",
          "ticks": 4872,
          "time": 19.03125,
          "velocity": 0.7322834645669292
        },
        {
          "duration": 0.046875,
          "durationTicks": 12,
          "midi": 70,
          "name": "A#4",
          "ticks": 4872,
          "time": 19.03125,
          "velocity": 0.7322834645669292
        },
        {
          "duration": 0.1875,
          "durationTicks": 48,
          "midi": 63,
          "name": "D#4",
          "ticks": 4896,
          "time": 19.125,
          "velocity": 0.7559055118110236
        },
        {
          "duration": 0.1875,
          "durationTicks": 48,
          "midi": 70,
          "name": "A#4",
          "ticks": 4896,
          "time": 19.125,
          "velocity": 0.7480314960629921
        },
        {
          "duration": 0.1875,
          "durationTicks": 48,
          "midi": 67,
          "name": "G4",
          "ticks": 4896,
          "time": 19.125,
          "velocity": 0.7480314960629921
        },
        {
          "duration": 0.046875,
          "durationTicks": 12,
          "midi": 67,
          "name": "G4",
          "ticks": 4968,
          "time": 19.40625,
          "velocity": 0.7322834645669292
        },
        {
          "duration": 0.046875,
          "durationTicks": 12,
          "midi": 63,
          "name": "D#4",
          "ticks": 4968,
          "time": 19.40625,
          "velocity": 0.7559055118110236
        },
        {
          "duration": 0.046875,
          "durationTicks": 12,
          "midi": 70,
          "name": "A#4",
          "ticks": 4968,
          "time": 19.40625,
          "velocity": 0.7401574803149606
        },
        {
          "duration": 0.328125,
          "durationTicks": 84,
          "midi": 65,
          "name": "F4",
          "ticks": 4992,
          "time": 19.5,
          "velocity": 0.7322834645669292
        },
        {
          "duration": 0.328125,
          "durationTicks": 84,
          "midi": 72,
          "name": "C5",
          "ticks": 4992,
          "time": 19.5,
          "velocity": 0.7480314960629921
        },
        {
          "duration": 0.328125,
          "durationTicks": 84,
          "midi": 68,
          "name": "G#4",
          "ticks": 4992,
          "time": 19.5,
          "velocity": 0.7480314960629921
        },
        {
          "duration": 0.375,
          "durationTicks": 96,
          "midi": 41,
          "name": "F2",
          "ticks": 4992,
          "time": 19.5,
          "velocity": 0.6220472440944882
        },
        {
          "duration": 0.1875,
          "durationTicks": 48,
          "midi": 48,
          "name": "C3",
          "ticks": 5040,
          "time": 19.6875,
          "velocity": 0.7401574803149606
        },
        {
          "duration": 0.140625,
          "durationTicks": 36,
          "midi": 77,
          "name": "F5",
          "ticks": 5088,
          "time": 19.875,
          "velocity": 0.7244094488188977
        },
        {
          "duration": 0.140625,
          "durationTicks": 36,
          "midi": 72,
          "name": "C5",
          "ticks": 5088,
          "time": 19.875,
          "velocity": 0.7244094488188977
        },
        {
          "duration": 0.140625,
          "durationTicks": 36,
          "midi": 80,
          "name": "G#5",
          "ticks": 5088,
          "time": 19.875,
          "velocity": 0.7559055118110236
        },
        {
          "duration": 0.1875,
          "durationTicks": 48,
          "midi": 53,
          "name": "F3",
          "ticks": 5088,
          "time": 19.875,
          "velocity": 0.7401574803149606
        },
        {
          "duration": 0.1875,
          "durationTicks": 48,
          "midi": 48,
          "name": "C3",
          "ticks": 5136,
          "time": 20.0625,
          "velocity": 0.7401574803149606
        },
        {
          "duration": 0.046875,
          "durationTicks": 12,
          "midi": 80,
          "name": "G#5",
          "ticks": 5160,
          "time": 20.15625,
          "velocity": 0.7244094488188977
        },
        {
          "duration": 0.046875,
          "durationTicks": 12,
          "midi": 72,
          "name": "C5",
          "ticks": 5160,
          "time": 20.15625,
          "velocity": 0.7244094488188977
        },
        {
          "duration": 0.046875,
          "durationTicks": 12,
          "midi": 77,
          "name": "F5",
          "ticks": 5160,
          "time": 20.15625,
          "velocity": 0.7322834645669292
        },
        {
          "duration": 0.1875,
          "durationTicks": 48,
          "midi": 70,
          "name": "A#4",
          "ticks": 5184,
          "time": 20.25,
          "velocity": 0.7559055118110236
        },
        {
          "duration": 0.1875,
          "durationTicks": 48,
          "midi": 74,
          "name": "D5",
          "ticks": 5184,
          "time": 20.25,
          "velocity": 0.7244094488188977
        },
        {
          "duration": 0.1875,
          "durationTicks": 48,
          "midi": 77,
          "name": "F5",
          "ticks": 5184,
          "time": 20.25,
          "velocity": 0.7322834645669292
        },
        {
          "duration": 0.328125,
          "durationTicks": 84,
          "midi": 46,
          "name": "A#2",
          "ticks": 5184,
          "time": 20.25,
          "velocity": 0.6220472440944882
        },
        {
          "duration": 0.1875,
          "durationTicks": 48,
          "midi": 53,
          "name": "F3",
          "ticks": 5232,
          "time": 20.4375,
          "velocity": 0.7401574803149606
        },
        {
          "duration": 0.046875,
          "durationTicks": 12,
          "midi": 68,
          "name": "G#4",
          "ticks": 5256,
          "time": 20.53125,
          "velocity": 0.7480314960629921
        },
        {
          "duration": 0.046875,
          "durationTicks": 12,
          "midi": 62,
          "name": "D4",
          "ticks": 5256,
          "time": 20.53125,
          "velocity": 0.7480314960629921
        },
        {
          "duration": 0.046875,
          "durationTicks": 12,
          "midi": 65,
          "name": "F4",
          "ticks": 5256,
          "time": 20.53125,
          "velocity": 0.7480314960629921
        },
        {
          "duration": 0.1875,
          "durationTicks": 48,
          "midi": 65,
          "name": "F4",
          "ticks": 5280,
          "time": 20.625,
          "velocity": 0.7322834645669292
        },
        {
          "duration": 0.1875,
          "durationTicks": 48,
          "midi": 62,
          "name": "D4",
          "ticks": 5280,
          "time": 20.625,
          "velocity": 0.7244094488188977
        },
        {
          "duration": 0.1875,
          "durationTicks": 48,
          "midi": 68,
          "name": "G#4",
          "ticks": 5280,
          "time": 20.625,
          "velocity": 0.7401574803149606
        },
        {
          "duration": 0.1875,
          "durationTicks": 48,
          "midi": 58,
          "name": "A#3",
          "ticks": 5280,
          "time": 20.625,
          "velocity": 0.7401574803149606
        },
        {
          "duration": 0.1875,
          "durationTicks": 48,
          "midi": 53,
          "name": "F3",
          "ticks": 5328,
          "time": 20.8125,
          "velocity": 0.7401574803149606
        },
        {
          "duration": 0.046875,
          "durationTicks": 12,
          "midi": 68,
          "name": "G#4",
          "ticks": 5352,
          "time": 20.90625,
          "velocity": 0.7559055118110236
        },
        {
          "duration": 0.046875,
          "durationTicks": 12,
          "midi": 65,
          "name": "F4",
          "ticks": 5352,
          "time": 20.90625,
          "velocity": 0.7559055118110236
        },
        {
          "duration": 0.046875,
          "durationTicks": 12,
          "midi": 62,
          "name": "D4",
          "ticks": 5352,
          "time": 20.90625,
          "velocity": 0.7559055118110236
        },
        {
          "duration": 0.1875,
          "durationTicks": 48,
          "midi": 70,
          "name": "A#4",
          "ticks": 5376,
          "time": 21,
          "velocity": 0.7322834645669292
        },
        {
          "duration": 0.1875,
          "durationTicks": 48,
          "midi": 67,
          "name": "G4",
          "ticks": 5376,
          "time": 21,
          "velocity": 0.7480314960629921
        },
        {
          "duration": 0.1875,
          "durationTicks": 48,
          "midi": 63,
          "name": "D#4",
          "ticks": 5376,
          "time": 21,
          "velocity": 0.7401574803149606
        },
        {
          "duration": 0.328125,
          "durationTicks": 84,
          "midi": 39,
          "name": "D#2",
          "ticks": 5376,
          "time": 21,
          "velocity": 0.6220472440944882
        },
        {
          "duration": 0.1875,
          "durationTicks": 48,
          "midi": 46,
          "name": "A#2",
          "ticks": 5424,
          "time": 21.1875,
          "velocity": 0.7401574803149606
        },
        {
          "duration": 0.046875,
          "durationTicks": 12,
          "midi": 79,
          "name": "G5",
          "ticks": 5448,
          "time": 21.28125,
          "velocity": 0.7559055118110236
        },
        {
          "duration": 0.046875,
          "durationTicks": 12,
          "midi": 75,
          "name": "D#5",
          "ticks": 5448,
          "time": 21.28125,
          "velocity": 0.7480314960629921
        },
        {
          "duration": 0.046875,
          "durationTicks": 12,
          "midi": 70,
          "name": "A#4",
          "ticks": 5448,
          "time": 21.28125,
          "velocity": 0.7559055118110236
        },
        {
          "duration": 0.1875,
          "durationTicks": 48,
          "midi": 79,
          "name": "G5",
          "ticks": 5472,
          "time": 21.375,
          "velocity": 0.7559055118110236
        },
        {
          "duration": 0.1875,
          "durationTicks": 48,
          "midi": 75,
          "name": "D#5",
          "ticks": 5472,
          "time": 21.375,
          "velocity": 0.7480314960629921
        },
        {
          "duration": 0.1875,
          "durationTicks": 48,
          "midi": 70,
          "name": "A#4",
          "ticks": 5472,
          "time": 21.375,
          "velocity": 0.7322834645669292
        },
        {
          "duration": 0.1875,
          "durationTicks": 48,
          "midi": 51,
          "name": "D#3",
          "ticks": 5472,
          "time": 21.375,
          "velocity": 0.7401574803149606
        },
        {
          "duration": 0.1875,
          "durationTicks": 48,
          "midi": 46,
          "name": "A#2",
          "ticks": 5520,
          "time": 21.5625,
          "velocity": 0.7401574803149606
        },
        {
          "duration": 0.046875,
          "durationTicks": 12,
          "midi": 70,
          "name": "A#4",
          "ticks": 5544,
          "time": 21.65625,
          "velocity": 0.7559055118110236
        },
        {
          "duration": 0.046875,
          "durationTicks": 12,
          "midi": 75,
          "name": "D#5",
          "ticks": 5544,
          "time": 21.65625,
          "velocity": 0.7244094488188977
        },
        {
          "duration": 0.046875,
          "durationTicks": 12,
          "midi": 79,
          "name": "G5",
          "ticks": 5544,
          "time": 21.65625,
          "velocity": 0.7559055118110236
        },
        {
          "duration": 0.1875,
          "durationTicks": 48,
          "midi": 72,
          "name": "C5",
          "ticks": 5568,
          "time": 21.75,
          "velocity": 0.7401574803149606
        },
        {
          "duration": 0.1875,
          "durationTicks": 48,
          "midi": 68,
          "name": "G#4",
          "ticks": 5568,
          "time": 21.75,
          "velocity": 0.7244094488188977
        },
        {
          "duration": 0.328125,
          "durationTicks": 84,
          "midi": 44,
          "name": "G#2",
          "ticks": 5568,
          "time": 21.75,
          "velocity": 0.6220472440944882
        },
        {
          "duration": 0.1875,
          "durationTicks": 48,
          "midi": 51,
          "name": "D#3",
          "ticks": 5616,
          "time": 21.9375,
          "velocity": 0.7401574803149606
        },
        {
          "duration": 0.1875,
          "durationTicks": 48,
          "midi": 60,
          "name": "C4",
          "ticks": 5664,
          "time": 22.125,
          "velocity": 0.7401574803149606
        },
        {
          "duration": 0.1875,
          "durationTicks": 48,
          "midi": 72,
          "name": "C5",
          "ticks": 5664,
          "time": 22.125,
          "velocity": 0.7480314960629921
        },
        {
          "duration": 0.1875,
          "durationTicks": 48,
          "midi": 56,
          "name": "G#3",
          "ticks": 5664,
          "time": 22.125,
          "velocity": 0.7401574803149606
        },
        {
          "duration": 0.1875,
          "durationTicks": 48,
          "midi": 51,
          "name": "D#3",
          "ticks": 5712,
          "time": 22.3125,
          "velocity": 0.7401574803149606
        },
        {
          "duration": 0.09375,
          "durationTicks": 24,
          "midi": 73,
          "name": "C#5",
          "ticks": 5736,
          "time": 22.40625,
          "velocity": 0.7322834645669292
        },
        {
          "duration": 0.09375,
          "durationTicks": 24,
          "midi": 61,
          "name": "C#4",
          "ticks": 5736,
          "time": 22.40625,
          "velocity": 0.7480314960629921
        },
        {
          "duration": 0.375,
          "durationTicks": 96,
          "midi": 62,
          "name": "D4",
          "ticks": 5760,
          "time": 22.5,
          "velocity": 0.7244094488188977
        },
        {
          "duration": 0.375,
          "durationTicks": 96,
          "midi": 74,
          "name": "D5",
          "ticks": 5760,
          "time": 22.5,
          "velocity": 0.7322834645669292
        },
        {
          "duration": 0.328125,
          "durationTicks": 84,
          "midi": 38,
          "name": "D2",
          "ticks": 5760,
          "time": 22.5,
          "velocity": 0.6220472440944882
        },
        {
          "duration": 0.1875,
          "durationTicks": 48,
          "midi": 45,
          "name": "A2",
          "ticks": 5808,
          "time": 22.6875,
          "velocity": 0.7401574803149606
        },
        {
          "duration": 0.1875,
          "durationTicks": 48,
          "midi": 50,
          "name": "D3",
          "ticks": 5856,
          "time": 22.875,
          "velocity": 0.7401574803149606
        },
        {
          "duration": 0.375,
          "durationTicks": 96,
          "midi": 75,
          "name": "D#5",
          "ticks": 5856,
          "time": 22.875,
          "velocity": 0.7480314960629921
        },
        {
          "duration": 0.375,
          "durationTicks": 96,
          "midi": 87,
          "name": "D#6",
          "ticks": 5857,
          "time": 22.87890625,
          "velocity": 0.7165354330708661
        },
        {
          "duration": 0.1875,
          "durationTicks": 48,
          "midi": 54,
          "name": "F#3",
          "ticks": 5904,
          "time": 23.0625,
          "velocity": 0.7401574803149606
        },
        {
          "duration": 0.1875,
          "durationTicks": 48,
          "midi": 54,
          "name": "F#3",
          "ticks": 5952,
          "time": 23.25,
          "velocity": 0.7401574803149606
        },
        {
          "duration": 0.375,
          "durationTicks": 96,
          "midi": 74,
          "name": "D5",
          "ticks": 5952,
          "time": 23.25,
          "velocity": 0.7322834645669292
        },
        {
          "duration": 0.375,
          "durationTicks": 96,
          "midi": 86,
          "name": "D6",
          "ticks": 5953,
          "time": 23.25390625,
          "velocity": 0.7244094488188977
        },
        {
          "duration": 0.1875,
          "durationTicks": 48,
          "midi": 50,
          "name": "D3",
          "ticks": 6000,
          "time": 23.4375,
          "velocity": 0.7401574803149606
        },
        {
          "duration": 0.1875,
          "durationTicks": 48,
          "midi": 45,
          "name": "A2",
          "ticks": 6048,
          "time": 23.625,
          "velocity": 0.7401574803149606
        },
        {
          "duration": 0.375,
          "durationTicks": 96,
          "midi": 69,
          "name": "A4",
          "ticks": 6048,
          "time": 23.625,
          "velocity": 0.7322834645669292
        },
        {
          "duration": 0.375,
          "durationTicks": 96,
          "midi": 81,
          "name": "A5",
          "ticks": 6049,
          "time": 23.62890625,
          "velocity": 0.7244094488188977
        },
        {
          "duration": 0.1875,
          "durationTicks": 48,
          "midi": 59,
          "name": "B3",
          "ticks": 6144,
          "time": 24,
          "velocity": 0.7480314960629921
        },
        {
          "duration": 0.1875,
          "durationTicks": 48,
          "midi": 62,
          "name": "D4",
          "ticks": 6144,
          "time": 24,
          "velocity": 0.7559055118110236
        },
        {
          "duration": 0.1875,
          "durationTicks": 48,
          "midi": 67,
          "name": "G4",
          "ticks": 6144,
          "time": 24,
          "velocity": 0.7559055118110236
        },
        {
          "duration": 0.375,
          "durationTicks": 96,
          "midi": 43,
          "name": "G2",
          "ticks": 6144,
          "time": 24,
          "velocity": 0.6220472440944882
        },
        {
          "duration": 0.046875,
          "durationTicks": 12,
          "midi": 87,
          "name": "D#6",
          "ticks": 6216,
          "time": 24.28125,
          "velocity": 0.7480314960629921
        },
        {
          "duration": 0.046875,
          "durationTicks": 12,
          "midi": 79,
          "name": "G5",
          "ticks": 6216,
          "time": 24.28125,
          "velocity": 0.7322834645669292
        },
        {
          "duration": 0.046875,
          "durationTicks": 12,
          "midi": 75,
          "name": "D#5",
          "ticks": 6216,
          "time": 24.28125,
          "velocity": 0.7559055118110236
        },
        {
          "duration": 0.1875,
          "durationTicks": 48,
          "midi": 79,
          "name": "G5",
          "ticks": 6240,
          "time": 24.375,
          "velocity": 0.7244094488188977
        },
        {
          "duration": 0.1875,
          "durationTicks": 48,
          "midi": 75,
          "name": "D#5",
          "ticks": 6240,
          "time": 24.375,
          "velocity": 0.7244094488188977
        },
        {
          "duration": 0.1875,
          "durationTicks": 48,
          "midi": 87,
          "name": "D#6",
          "ticks": 6240,
          "time": 24.375,
          "velocity": 0.7165354330708661
        },
        {
          "duration": 0.046875,
          "durationTicks": 12,
          "midi": 74,
          "name": "D5",
          "ticks": 6312,
          "time": 24.65625,
          "velocity": 0.7559055118110236
        },
        {
          "duration": 0.046875,
          "durationTicks": 12,
          "midi": 86,
          "name": "D6",
          "ticks": 6312,
          "time": 24.65625,
          "velocity": 0.7165354330708661
        },
        {
          "duration": 0.046875,
          "durationTicks": 12,
          "midi": 79,
          "name": "G5",
          "ticks": 6312,
          "time": 24.65625,
          "velocity": 0.7559055118110236
        },
        {
          "duration": 0.1875,
          "durationTicks": 48,
          "midi": 74,
          "name": "D5",
          "ticks": 6336,
          "time": 24.75,
          "velocity": 0.7244094488188977
        },
        {
          "duration": 0.1875,
          "durationTicks": 48,
          "midi": 86,
          "name": "D6",
          "ticks": 6336,
          "time": 24.75,
          "velocity": 0.7480314960629921
        },
        {
          "duration": 0.1875,
          "durationTicks": 48,
          "midi": 79,
          "name": "G5",
          "ticks": 6336,
          "time": 24.75,
          "velocity": 0.7480314960629921
        },
        {
          "duration": 0.046875,
          "durationTicks": 12,
          "midi": 74,
          "name": "D5",
          "ticks": 6408,
          "time": 25.03125,
          "velocity": 0.7322834645669292
        },
        {
          "duration": 0.046875,
          "durationTicks": 12,
          "midi": 83,
          "name": "B5",
          "ticks": 6408,
          "time": 25.03125,
          "velocity": 0.7322834645669292
        },
        {
          "duration": 0.046875,
          "durationTicks": 12,
          "midi": 71,
          "name": "B4",
          "ticks": 6408,
          "time": 25.03125,
          "velocity": 0.7322834645669292
        },
        {
          "duration": 0.1875,
          "durationTicks": 48,
          "midi": 83,
          "name": "B5",
          "ticks": 6432,
          "time": 25.125,
          "velocity": 0.7322834645669292
        },
        {
          "duration": 0.1875,
          "durationTicks": 48,
          "midi": 71,
          "name": "B4",
          "ticks": 6432,
          "time": 25.125,
          "velocity": 0.7244094488188977
        },
        {
          "duration": 0.1875,
          "durationTicks": 48,
          "midi": 74,
          "name": "D5",
          "ticks": 6432,
          "time": 25.125,
          "velocity": 0.7559055118110236
        },
        {
          "duration": 0.328125,
          "durationTicks": 84,
          "midi": 56,
          "name": "G#3",
          "ticks": 6528,
          "time": 25.5,
          "velocity": 0.7401574803149606
        },
        {
          "duration": 0.328125,
          "durationTicks": 84,
          "midi": 60,
          "name": "C4",
          "ticks": 6528,
          "time": 25.5,
          "velocity": 0.7559055118110236
        },
        {
          "duration": 0.328125,
          "durationTicks": 84,
          "midi": 63,
          "name": "D#4",
          "ticks": 6528,
          "time": 25.5,
          "velocity": 0.7244094488188977
        },
        {
          "duration": 0.328125,
          "durationTicks": 84,
          "midi": 44,
          "name": "G#2",
          "ticks": 6528,
          "time": 25.5,
          "velocity": 0.6220472440944882
        },
        {
          "duration": 0.140625,
          "durationTicks": 36,
          "midi": 51,
          "name": "D#3",
          "ticks": 6576,
          "time": 25.6875,
          "velocity": 0.7401574803149606
        },
        {
          "duration": 0.234375,
          "durationTicks": 60,
          "midi": 60,
          "name": "C4",
          "ticks": 6624,
          "time": 25.875,
          "velocity": 0.7401574803149606
        },
        {
          "duration": 0.234375,
          "durationTicks": 60,
          "midi": 56,
          "name": "G#3",
          "ticks": 6624,
          "time": 25.875,
          "velocity": 0.7401574803149606
        },
        {
          "duration": 0.234375,
          "durationTicks": 60,
          "midi": 62,
          "name": "D4",
          "ticks": 6624,
          "time": 25.875,
          "velocity": 0.7480314960629921
        },
        {
          "duration": 0.140625,
          "durationTicks": 36,
          "midi": 51,
          "name": "D#3",
          "ticks": 6672,
          "time": 26.0625,
          "velocity": 0.7401574803149606
        },
        {
          "duration": 0.09375,
          "durationTicks": 24,
          "midi": 63,
          "name": "D#4",
          "ticks": 6696,
          "time": 26.15625,
          "velocity": 0.7559055118110236
        },
        {
          "duration": 0.328125,
          "durationTicks": 84,
          "midi": 65,
          "name": "F4",
          "ticks": 6720,
          "time": 26.25,
          "velocity": 0.7559055118110236
        },
        {
          "duration": 0.328125,
          "durationTicks": 84,
          "midi": 62,
          "name": "D4",
          "ticks": 6720,
          "time": 26.25,
          "velocity": 0.7480314960629921
        },
        {
          "duration": 0.328125,
          "durationTicks": 84,
          "midi": 59,
          "name": "B3",
          "ticks": 6720,
          "time": 26.25,
          "velocity": 0.7322834645669292
        },
        {
          "duration": 0.375,
          "durationTicks": 96,
          "midi": 43,
          "name": "G2",
          "ticks": 6720,
          "time": 26.25,
          "velocity": 0.6220472440944882
        },
        {
          "duration": 0.140625,
          "durationTicks": 36,
          "midi": 50,
          "name": "D3",
          "ticks": 6768,
          "time": 26.4375,
          "velocity": 0.7401574803149606
        },
        {
          "duration": 0.234375,
          "durationTicks": 60,
          "midi": 62,
          "name": "D4",
          "ticks": 6816,
          "time": 26.625,
          "velocity": 0.7322834645669292
        },
        {
          "duration": 0.234375,
          "durationTicks": 60,
          "midi": 59,
          "name": "B3",
          "ticks": 6816,
          "time": 26.625,
          "velocity": 0.7244094488188977
        },
        {
          "duration": 0.140625,
          "durationTicks": 36,
          "midi": 55,
          "name": "G3",
          "ticks": 6816,
          "time": 26.625,
          "velocity": 0.7401574803149606
        },
        {
          "duration": 0.140625,
          "durationTicks": 36,
          "midi": 50,
          "name": "D3",
          "ticks": 6864,
          "time": 26.8125,
          "velocity": 0.7401574803149606
        },
        {
          "duration": 0.09375,
          "durationTicks": 24,
          "midi": 65,
          "name": "F4",
          "ticks": 6888,
          "time": 26.90625,
          "velocity": 0.7480314960629921
        },
        {
          "duration": 0.328125,
          "durationTicks": 84,
          "midi": 60,
          "name": "C4",
          "ticks": 6912,
          "time": 27,
          "velocity": 0.7559055118110236
        },
        {
          "duration": 0.328125,
          "durationTicks": 84,
          "midi": 63,
          "name": "D#4",
          "ticks": 6912,
          "time": 27,
          "velocity": 0.7244094488188977
        },
        {
          "duration": 0.328125,
          "durationTicks": 84,
          "midi": 67,
          "name": "G4",
          "ticks": 6912,
          "time": 27,
          "velocity": 0.7244094488188977
        },
        {
          "duration": 0.375,
          "durationTicks": 96,
          "midi": 48,
          "name": "C3",
          "ticks": 6912,
          "time": 27,
          "velocity": 0.6220472440944882
        },
        {
          "duration": 0.140625,
          "durationTicks": 36,
          "midi": 55,
          "name": "G3",
          "ticks": 6960,
          "time": 27.1875,
          "velocity": 0.7401574803149606
        },
        {
          "duration": 0.28125,
          "durationTicks": 72,
          "midi": 60,
          "name": "C4",
          "ticks": 7008,
          "time": 27.375,
          "velocity": 0.7322834645669292
        },
        {
          "duration": 0.140625,
          "durationTicks": 36,
          "midi": 55,
          "name": "G3",
          "ticks": 7056,
          "time": 27.5625,
          "velocity": 0.7401574803149606
        },
        {
          "duration": 0.09375,
          "durationTicks": 24,
          "midi": 67,
          "name": "G4",
          "ticks": 7080,
          "time": 27.65625,
          "velocity": 0.7244094488188977
        },
        {
          "duration": 0.328125,
          "durationTicks": 84,
          "midi": 58,
          "name": "A#3",
          "ticks": 7104,
          "time": 27.75,
          "velocity": 0.7401574803149606
        },
        {
          "duration": 0.328125,
          "durationTicks": 84,
          "midi": 62,
          "name": "D4",
          "ticks": 7104,
          "time": 27.75,
          "velocity": 0.7480314960629921
        },
        {
          "duration": 0.328125,
          "durationTicks": 84,
          "midi": 65,
          "name": "F4",
          "ticks": 7104,
          "time": 27.75,
          "velocity": 0.7401574803149606
        },
        {
          "duration": 0.375,
          "durationTicks": 96,
          "midi": 46,
          "name": "A#2",
          "ticks": 7104,
          "time": 27.75,
          "velocity": 0.6220472440944882
        },
        {
          "duration": 0.140625,
          "durationTicks": 36,
          "midi": 53,
          "name": "F3",
          "ticks": 7152,
          "time": 27.9375,
          "velocity": 0.7401574803149606
        },
        {
          "duration": 0.328125,
          "durationTicks": 84,
          "midi": 68,
          "name": "G#4",
          "ticks": 7200,
          "time": 28.125,
          "velocity": 0.7401574803149606
        },
        {
          "duration": 0.328125,
          "durationTicks": 84,
          "midi": 65,
          "name": "F4",
          "ticks": 7200,
          "time": 28.125,
          "velocity": 0.7559055118110236
        },
        {
          "duration": 0.328125,
          "durationTicks": 84,
          "midi": 62,
          "name": "D4",
          "ticks": 7200,
          "time": 28.125,
          "velocity": 0.7401574803149606
        },
        {
          "duration": 0.140625,
          "durationTicks": 36,
          "midi": 53,
          "name": "F3",
          "ticks": 7248,
          "time": 28.3125,
          "velocity": 0.7401574803149606
        },
        {
          "duration": 0.328125,
          "durationTicks": 84,
          "midi": 67,
          "name": "G4",
          "ticks": 7296,
          "time": 28.5,
          "velocity": 0.7480314960629921
        },
        {
          "duration": 0.328125,
          "durationTicks": 84,
          "midi": 60,
          "name": "C4",
          "ticks": 7296,
          "time": 28.5,
          "velocity": 0.7322834645669292
        },
        {
          "duration": 0.328125,
          "durationTicks": 84,
          "midi": 63,
          "name": "D#4",
          "ticks": 7296,
          "time": 28.5,
          "velocity": 0.7401574803149606
        },
        {
          "duration": 0.375,
          "durationTicks": 96,
          "midi": 44,
          "name": "G#2",
          "ticks": 7296,
          "time": 28.5,
          "velocity": 0.6220472440944882
        },
        {
          "duration": 0.1875,
          "durationTicks": 48,
          "midi": 51,
          "name": "D#3",
          "ticks": 7344,
          "time": 28.6875,
          "velocity": 0.7401574803149606
        },
        {
          "duration": 0.328125,
          "durationTicks": 84,
          "midi": 72,
          "name": "C5",
          "ticks": 7392,
          "time": 28.875,
          "velocity": 0.7480314960629921
        },
        {
          "duration": 0.328125,
          "durationTicks": 84,
          "midi": 68,
          "name": "G#4",
          "ticks": 7392,
          "time": 28.875,
          "velocity": 0.7401574803149606
        },
        {
          "duration": 0.328125,
          "durationTicks": 84,
          "midi": 63,
          "name": "D#4",
          "ticks": 7392,
          "time": 28.875,
          "velocity": 0.7480314960629921
        },
        {
          "duration": 0.140625,
          "durationTicks": 36,
          "midi": 56,
          "name": "G#3",
          "ticks": 7392,
          "time": 28.875,
          "velocity": 0.7401574803149606
        },
        {
          "duration": 0.1875,
          "durationTicks": 48,
          "midi": 51,
          "name": "D#3",
          "ticks": 7440,
          "time": 29.0625,
          "velocity": 0.7401574803149606
        },
        {
          "duration": 0.328125,
          "durationTicks": 84,
          "midi": 67,
          "name": "G4",
          "ticks": 7488,
          "time": 29.25,
          "velocity": 0.7322834645669292
        },
        {
          "duration": 0.328125,
          "durationTicks": 84,
          "midi": 70,
          "name": "A#4",
          "ticks": 7488,
          "time": 29.25,
          "velocity": 0.7559055118110236
        },
        {
          "duration": 0.328125,
          "durationTicks": 84,
          "midi": 74,
          "name": "D5",
          "ticks": 7488,
          "time": 29.25,
          "velocity": 0.7480314960629921
        },
        {
          "duration": 0.375,
          "durationTicks": 96,
          "midi": 46,
          "name": "A#2",
          "ticks": 7488,
          "time": 29.25,
          "velocity": 0.6220472440944882
        },
        {
          "duration": 0.1875,
          "durationTicks": 48,
          "midi": 50,
          "name": "D3",
          "ticks": 7536,
          "time": 29.4375,
          "velocity": 0.7401574803149606
        },
        {
          "duration": 0.328125,
          "durationTicks": 84,
          "midi": 77,
          "name": "F5",
          "ticks": 7584,
          "time": 29.625,
          "velocity": 0.7322834645669292
        },
        {
          "duration": 0.328125,
          "durationTicks": 84,
          "midi": 74,
          "name": "D5",
          "ticks": 7584,
          "time": 29.625,
          "velocity": 0.7401574803149606
        },
        {
          "duration": 0.328125,
          "durationTicks": 84,
          "midi": 70,
          "name": "A#4",
          "ticks": 7584,
          "time": 29.625,
          "velocity": 0.7322834645669292
        },
        {
          "duration": 0.1875,
          "durationTicks": 48,
          "midi": 53,
          "name": "F3",
          "ticks": 7584,
          "time": 29.625,
          "velocity": 0.7401574803149606
        },
        {
          "duration": 0.1875,
          "durationTicks": 48,
          "midi": 50,
          "name": "D3",
          "ticks": 7632,
          "time": 29.8125,
          "velocity": 0.7401574803149606
        },
        {
          "duration": 0.1875,
          "durationTicks": 48,
          "midi": 70,
          "name": "A#4",
          "ticks": 7680,
          "time": 30,
          "velocity": 0.7322834645669292
        },
        {
          "duration": 0.1875,
          "durationTicks": 48,
          "midi": 77,
          "name": "F5",
          "ticks": 7680,
          "time": 30,
          "velocity": 0.7480314960629921
        },
        {
          "duration": 0.1875,
          "durationTicks": 48,
          "midi": 67,
          "name": "G4",
          "ticks": 7680,
          "time": 30,
          "velocity": 0.7322834645669292
        },
        {
          "duration": 0.375,
          "durationTicks": 96,
          "midi": 51,
          "name": "D#3",
          "ticks": 7680,
          "time": 30,
          "velocity": 0.6220472440944882
        },
        {
          "duration": 0.046875,
          "durationTicks": 12,
          "midi": 75,
          "name": "D#5",
          "ticks": 7752,
          "time": 30.28125,
          "velocity": 0.7480314960629921
        },
        {
          "duration": 0.046875,
          "durationTicks": 12,
          "midi": 67,
          "name": "G4",
          "ticks": 7752,
          "time": 30.28125,
          "velocity": 0.7559055118110236
        },
        {
          "duration": 0.046875,
          "durationTicks": 12,
          "midi": 70,
          "name": "A#4",
          "ticks": 7752,
          "time": 30.28125,
          "velocity": 0.7559055118110236
        },
        {
          "duration": 0.375,
          "durationTicks": 96,
          "midi": 75,
          "name": "D#5",
          "ticks": 7776,
          "time": 30.375,
          "velocity": 0.7401574803149606
        },
        {
          "duration": 0.375,
          "durationTicks": 96,
          "midi": 67,
          "name": "G4",
          "ticks": 7776,
          "time": 30.375,
          "velocity": 0.7244094488188977
        },
        {
          "duration": 0.375,
          "durationTicks": 96,
          "midi": 70,
          "name": "A#4",
          "ticks": 7776,
          "time": 30.375,
          "velocity": 0.7480314960629921
        },
        {
          "duration": 0.1875,
          "durationTicks": 48,
          "midi": 55,
          "name": "G3",
          "ticks": 7776,
          "time": 30.375,
          "velocity": 0.7401574803149606
        },
        {
          "duration": 0.375,
          "durationTicks": 96,
          "midi": 52,
          "name": "E3",
          "ticks": 7872,
          "time": 30.75,
          "velocity": 0.6220472440944882
        },
        {
          "duration": 0.046875,
          "durationTicks": 12,
          "midi": 70,
          "name": "A#4",
          "ticks": 7944,
          "time": 31.03125,
          "velocity": 0.7244094488188977
        },
        {
          "duration": 0.046875,
          "durationTicks": 12,
          "midi": 63,
          "name": "D#4",
          "ticks": 7944,
          "time": 31.03125,
          "velocity": 0.7401574803149606
        },
        {
          "duration": 0.046875,
          "durationTicks": 12,
          "midi": 67,
          "name": "G4",
          "ticks": 7944,
          "time": 31.03125,
          "velocity": 0.7401574803149606
        },
        {
          "duration": 0.1875,
          "durationTicks": 48,
          "midi": 67,
          "name": "G4",
          "ticks": 7968,
          "time": 31.125,
          "velocity": 0.7244094488188977
        },
        {
          "duration": 0.1875,
          "durationTicks": 48,
          "midi": 70,
          "name": "A#4",
          "ticks": 7968,
          "time": 31.125,
          "velocity": 0.7244094488188977
        },
        {
          "duration": 0.1875,
          "durationTicks": 48,
          "midi": 63,
          "name": "D#4",
          "ticks": 7968,
          "time": 31.125,
          "velocity": 0.7559055118110236
        },
        {
          "duration": 0.1875,
          "durationTicks": 48,
          "midi": 55,
          "name": "G3",
          "ticks": 7968,
          "time": 31.125,
          "velocity": 0.7401574803149606
        },
        {
          "duration": 0.046875,
          "durationTicks": 12,
          "midi": 67,
          "name": "G4",
          "ticks": 8040,
          "time": 31.40625,
          "velocity": 0.7559055118110236
        },
        {
          "duration": 0.046875,
          "durationTicks": 12,
          "midi": 63,
          "name": "D#4",
          "ticks": 8040,
          "time": 31.40625,
          "velocity": 0.7401574803149606
        },
        {
          "duration": 0.046875,
          "durationTicks": 12,
          "midi": 70,
          "name": "A#4",
          "ticks": 8040,
          "time": 31.40625,
          "velocity": 0.7480314960629921
        },
        {
          "duration": 0.1875,
          "durationTicks": 48,
          "midi": 68,
          "name": "G#4",
          "ticks": 8064,
          "time": 31.5,
          "velocity": 0.7559055118110236
        },
        {
          "duration": 0.1875,
          "durationTicks": 48,
          "midi": 72,
          "name": "C5",
          "ticks": 8064,
          "time": 31.5,
          "velocity": 0.7559055118110236
        },
        {
          "duration": 0.1875,
          "durationTicks": 48,
          "midi": 65,
          "name": "F4",
          "ticks": 8064,
          "time": 31.5,
          "velocity": 0.7559055118110236
        },
        {
          "duration": 0.375,
          "durationTicks": 96,
          "midi": 41,
          "name": "F2",
          "ticks": 8064,
          "time": 31.5,
          "velocity": 0.6299212598425197
        },
        {
          "duration": 0.1875,
          "durationTicks": 48,
          "midi": 48,
          "name": "C3",
          "ticks": 8112,
          "time": 31.6875,
          "velocity": 0.7401574803149606
        },
        {
          "duration": 0.046875,
          "durationTicks": 12,
          "midi": 80,
          "name": "G#5",
          "ticks": 8136,
          "time": 31.78125,
          "velocity": 0.7244094488188977
        },
        {
          "duration": 0.046875,
          "durationTicks": 12,
          "midi": 75,
          "name": "D#5",
          "ticks": 8136,
          "time": 31.78125,
          "velocity": 0.7559055118110236
        },
        {
          "duration": 0.046875,
          "durationTicks": 12,
          "midi": 87,
          "name": "D#6",
          "ticks": 8136,
          "time": 31.78125,
          "velocity": 0.7559055118110236
        },
        {
          "duration": 0.1875,
          "durationTicks": 48,
          "midi": 80,
          "name": "G#5",
          "ticks": 8160,
          "time": 31.875,
          "velocity": 0.7559055118110236
        },
        {
          "duration": 0.1875,
          "durationTicks": 48,
          "midi": 75,
          "name": "D#5",
          "ticks": 8160,
          "time": 31.875,
          "velocity": 0.7244094488188977
        },
        {
          "duration": 0.1875,
          "durationTicks": 48,
          "midi": 87,
          "name": "D#6",
          "ticks": 8160,
          "time": 31.875,
          "velocity": 0.7480314960629921
        },
        {
          "duration": 0.1875,
          "durationTicks": 48,
          "midi": 53,
          "name": "F3",
          "ticks": 8160,
          "time": 31.875,
          "velocity": 0.7401574803149606
        },
        {
          "duration": 0.1875,
          "durationTicks": 48,
          "midi": 48,
          "name": "C3",
          "ticks": 8208,
          "time": 32.0625,
          "velocity": 0.7401574803149606
        },
        {
          "duration": 0.046875,
          "durationTicks": 12,
          "midi": 77,
          "name": "F5",
          "ticks": 8232,
          "time": 32.15625,
          "velocity": 0.7401574803149606
        },
        {
          "duration": 0.046875,
          "durationTicks": 12,
          "midi": 89,
          "name": "F6",
          "ticks": 8232,
          "time": 32.15625,
          "velocity": 0.7559055118110236
        },
        {
          "duration": 0.046875,
          "durationTicks": 12,
          "midi": 82,
          "name": "A#5",
          "ticks": 8232,
          "time": 32.15625,
          "velocity": 0.7401574803149606
        },
        {
          "duration": 0.1875,
          "durationTicks": 48,
          "midi": 77,
          "name": "F5",
          "ticks": 8256,
          "time": 32.25,
          "velocity": 0.7244094488188977
        },
        {
          "duration": 0.1875,
          "durationTicks": 48,
          "midi": 82,
          "name": "A#5",
          "ticks": 8256,
          "time": 32.25,
          "velocity": 0.7401574803149606
        },
        {
          "duration": 0.1875,
          "durationTicks": 48,
          "midi": 89,
          "name": "F6",
          "ticks": 8256,
          "time": 32.25,
          "velocity": 0.7480314960629921
        },
        {
          "duration": 0.375,
          "durationTicks": 96,
          "midi": 46,
          "name": "A#2",
          "ticks": 8256,
          "time": 32.25,
          "velocity": 0.6299212598425197
        },
        {
          "duration": 0.1875,
          "durationTicks": 48,
          "midi": 53,
          "name": "F3",
          "ticks": 8304,
          "time": 32.4375,
          "velocity": 0.7401574803149606
        },
        {
          "duration": 0.046875,
          "durationTicks": 12,
          "midi": 65,
          "name": "F4",
          "ticks": 8328,
          "time": 32.53125,
          "velocity": 0.7559055118110236
        },
        {
          "duration": 0.046875,
          "durationTicks": 12,
          "midi": 62,
          "name": "D4",
          "ticks": 8328,
          "time": 32.53125,
          "velocity": 0.7401574803149606
        },
        {
          "duration": 0.046875,
          "durationTicks": 12,
          "midi": 68,
          "name": "G#4",
          "ticks": 8328,
          "time": 32.53125,
          "velocity": 0.7480314960629921
        },
        {
          "duration": 0.1875,
          "durationTicks": 48,
          "midi": 65,
          "name": "F4",
          "ticks": 8352,
          "time": 32.625,
          "velocity": 0.7244094488188977
        },
        {
          "duration": 0.1875,
          "durationTicks": 48,
          "midi": 62,
          "name": "D4",
          "ticks": 8352,
          "time": 32.625,
          "velocity": 0.7401574803149606
        },
        {
          "duration": 0.1875,
          "durationTicks": 48,
          "midi": 68,
          "name": "G#4",
          "ticks": 8352,
          "time": 32.625,
          "velocity": 0.7559055118110236
        },
        {
          "duration": 0.1875,
          "durationTicks": 48,
          "midi": 58,
          "name": "A#3",
          "ticks": 8352,
          "time": 32.625,
          "velocity": 0.7401574803149606
        },
        {
          "duration": 0.1875,
          "durationTicks": 48,
          "midi": 53,
          "name": "F3",
          "ticks": 8400,
          "time": 32.8125,
          "velocity": 0.7401574803149606
        },
        {
          "duration": 0.046875,
          "durationTicks": 12,
          "midi": 62,
          "name": "D4",
          "ticks": 8424,
          "time": 32.90625,
          "velocity": 0.7322834645669292
        },
        {
          "duration": 0.046875,
          "durationTicks": 12,
          "midi": 68,
          "name": "G#4",
          "ticks": 8424,
          "time": 32.90625,
          "velocity": 0.7244094488188977
        },
        {
          "duration": 0.046875,
          "durationTicks": 12,
          "midi": 65,
          "name": "F4",
          "ticks": 8424,
          "time": 32.90625,
          "velocity": 0.7401574803149606
        },
        {
          "duration": 0.1875,
          "durationTicks": 48,
          "midi": 67,
          "name": "G4",
          "ticks": 8448,
          "time": 33,
          "velocity": 0.7244094488188977
        },
        {
          "duration": 0.1875,
          "durationTicks": 48,
          "midi": 62,
          "name": "D4",
          "ticks": 8448,
          "time": 33,
          "velocity": 0.7480314960629921
        },
        {
          "duration": 0.1875,
          "durationTicks": 48,
          "midi": 71,
          "name": "B4",
          "ticks": 8448,
          "time": 33,
          "velocity": 0.7559055118110236
        },
        {
          "duration": 0.375,
          "durationTicks": 96,
          "midi": 47,
          "name": "B2",
          "ticks": 8448,
          "time": 33,
          "velocity": 0.6299212598425197
        },
        {
          "duration": 0.1875,
          "durationTicks": 48,
          "midi": 55,
          "name": "G3",
          "ticks": 8496,
          "time": 33.1875,
          "velocity": 0.7401574803149606
        },
        {
          "duration": 0.046875,
          "durationTicks": 12,
          "midi": 86,
          "name": "D6",
          "ticks": 8520,
          "time": 33.28125,
          "velocity": 0.7322834645669292
        },
        {
          "duration": 0.046875,
          "durationTicks": 12,
          "midi": 74,
          "name": "D5",
          "ticks": 8520,
          "time": 33.28125,
          "velocity": 0.7401574803149606
        },
        {
          "duration": 0.1875,
          "durationTicks": 48,
          "midi": 86,
          "name": "D6",
          "ticks": 8544,
          "time": 33.375,
          "velocity": 0.7401574803149606
        },
        {
          "duration": 0.1875,
          "durationTicks": 48,
          "midi": 74,
          "name": "D5",
          "ticks": 8544,
          "time": 33.375,
          "velocity": 0.7322834645669292
        },
        {
          "duration": 0.1875,
          "durationTicks": 48,
          "midi": 59,
          "name": "B3",
          "ticks": 8544,
          "time": 33.375,
          "velocity": 0.7401574803149606
        },
        {
          "duration": 0.1875,
          "durationTicks": 48,
          "midi": 55,
          "name": "G3",
          "ticks": 8592,
          "time": 33.5625,
          "velocity": 0.7401574803149606
        },
        {
          "duration": 0.046875,
          "durationTicks": 12,
          "midi": 87,
          "name": "D#6",
          "ticks": 8616,
          "time": 33.65625,
          "velocity": 0.7322834645669292
        },
        {
          "duration": 0.046875,
          "durationTicks": 12,
          "midi": 75,
          "name": "D#5",
          "ticks": 8616,
          "time": 33.65625,
          "velocity": 0.7480314960629921
        },
        {
          "duration": 0.1875,
          "durationTicks": 48,
          "midi": 87,
          "name": "D#6",
          "ticks": 8640,
          "time": 33.75,
          "velocity": 0.7559055118110236
        },
        {
          "duration": 0.1875,
          "durationTicks": 48,
          "midi": 75,
          "name": "D#5",
          "ticks": 8640,
          "time": 33.75,
          "velocity": 0.7480314960629921
        },
        {
          "duration": 0.375,
          "durationTicks": 96,
          "midi": 48,
          "name": "C3",
          "ticks": 8640,
          "time": 33.75,
          "velocity": 0.6299212598425197
        },
        {
          "duration": 0.1875,
          "durationTicks": 48,
          "midi": 60,
          "name": "C4",
          "ticks": 8688,
          "time": 33.9375,
          "velocity": 0.7401574803149606
        },
        {
          "duration": 0.1875,
          "durationTicks": 48,
          "midi": 63,
          "name": "D#4",
          "ticks": 8736,
          "time": 34.125,
          "velocity": 0.7559055118110236
        },
        {
          "duration": 0.1875,
          "durationTicks": 48,
          "midi": 67,
          "name": "G4",
          "ticks": 8736,
          "time": 34.125,
          "velocity": 0.7401574803149606
        },
        {
          "duration": 0.1875,
          "durationTicks": 48,
          "midi": 70,
          "name": "A#4",
          "ticks": 8736,
          "time": 34.125,
          "velocity": 0.7559055118110236
        },
        {
          "duration": 0.375,
          "durationTicks": 96,
          "midi": 46,
          "name": "A#2",
          "ticks": 8736,
          "time": 34.125,
          "velocity": 0.6299212598425197
        },
        {
          "duration": 0.1875,
          "durationTicks": 48,
          "midi": 58,
          "name": "A#3",
          "ticks": 8784,
          "time": 34.3125,
          "velocity": 0.7401574803149606
        },
        {
          "duration": 0.09375,
          "durationTicks": 24,
          "midi": 65,
          "name": "F4",
          "ticks": 8808,
          "time": 34.40625,
          "velocity": 0.7480314960629921
        },
        {
          "duration": 0.09375,
          "durationTicks": 24,
          "midi": 68,
          "name": "G#4",
          "ticks": 8808,
          "time": 34.40625,
          "velocity": 0.7401574803149606
        },
        {
          "duration": 0.375,
          "durationTicks": 96,
          "midi": 44,
          "name": "G#2",
          "ticks": 8832,
          "time": 34.5,
          "velocity": 0.6299212598425197
        },
        {
          "duration": 0.28125,
          "durationTicks": 72,
          "midi": 67,
          "name": "G4",
          "ticks": 8832,
          "time": 34.5,
          "velocity": 0.7322834645669292
        },
        {
          "duration": 0.28125,
          "durationTicks": 72,
          "midi": 63,
          "name": "D#4",
          "ticks": 8832,
          "time": 34.5,
          "velocity": 0.7322834645669292
        },
        {
          "duration": 0.28125,
          "durationTicks": 72,
          "midi": 60,
          "name": "C4",
          "ticks": 8832,
          "time": 34.5,
          "velocity": 0.7322834645669292
        },
        {
          "duration": 0.1875,
          "durationTicks": 48,
          "midi": 51,
          "name": "D#3",
          "ticks": 8880,
          "time": 34.6875,
          "velocity": 0.7401574803149606
        },
        {
          "duration": 0.1875,
          "durationTicks": 48,
          "midi": 56,
          "name": "G#3",
          "ticks": 8928,
          "time": 34.875,
          "velocity": 0.7401574803149606
        },
        {
          "duration": 0.234375,
          "durationTicks": 60,
          "midi": 65,
          "name": "F4",
          "ticks": 8928,
          "time": 34.875,
          "velocity": 0.7244094488188977
        },
        {
          "duration": 0.234375,
          "durationTicks": 60,
          "midi": 60,
          "name": "C4",
          "ticks": 8928,
          "time": 34.875,
          "velocity": 0.7322834645669292
        },
        {
          "duration": 0.1875,
          "durationTicks": 48,
          "midi": 51,
          "name": "D#3",
          "ticks": 8976,
          "time": 35.0625,
          "velocity": 0.7401574803149606
        },
        {
          "duration": 0.09375,
          "durationTicks": 24,
          "midi": 63,
          "name": "D#4",
          "ticks": 9000,
          "time": 35.15625,
          "velocity": 0.7401574803149606
        },
        {
          "duration": 0.375,
          "durationTicks": 96,
          "midi": 46,
          "name": "A#2",
          "ticks": 9024,
          "time": 35.25,
          "velocity": 0.6299212598425197
        },
        {
          "duration": 0.28125,
          "durationTicks": 72,
          "midi": 58,
          "name": "A#3",
          "ticks": 9024,
          "time": 35.25,
          "velocity": 0.7401574803149606
        },
        {
          "duration": 0.328125,
          "durationTicks": 84,
          "midi": 62,
          "name": "D4",
          "ticks": 9024,
          "time": 35.25,
          "velocity": 0.7401574803149606
        },
        {
          "duration": 0.328125,
          "durationTicks": 84,
          "midi": 65,
          "name": "F4",
          "ticks": 9024,
          "time": 35.25,
          "velocity": 0.7559055118110236
        },
        {
          "duration": 0.1875,
          "durationTicks": 48,
          "midi": 53,
          "name": "F3",
          "ticks": 9072,
          "time": 35.4375,
          "velocity": 0.7401574803149606
        },
        {
          "duration": 0.1875,
          "durationTicks": 48,
          "midi": 63,
          "name": "D#4",
          "ticks": 9120,
          "time": 35.625,
          "velocity": 0.7401574803149606
        },
        {
          "duration": 0.1875,
          "durationTicks": 48,
          "midi": 58,
          "name": "A#3",
          "ticks": 9120,
          "time": 35.625,
          "velocity": 0.7322834645669292
        },
        {
          "duration": 0.1875,
          "durationTicks": 48,
          "midi": 53,
          "name": "F3",
          "ticks": 9168,
          "time": 35.8125,
          "velocity": 0.7401574803149606
        },
        {
          "duration": 0.09375,
          "durationTicks": 24,
          "midi": 62,
          "name": "D4",
          "ticks": 9192,
          "time": 35.90625,
          "velocity": 0.7480314960629921
        },
        {
          "duration": 0.375,
          "durationTicks": 96,
          "midi": 48,
          "name": "C3",
          "ticks": 9216,
          "time": 36,
          "velocity": 0.6299212598425197
        },
        {
          "duration": 0.09375,
          "durationTicks": 24,
          "midi": 60,
          "name": "C4",
          "ticks": 9216,
          "time": 36,
          "velocity": 0.7401574803149606
        },
        {
          "duration": 0.09375,
          "durationTicks": 24,
          "midi": 65,
          "name": "F4",
          "ticks": 9240,
          "time": 36.09375,
          "velocity": 0.7401574803149606
        },
        {
          "duration": 0.09375,
          "durationTicks": 24,
          "midi": 67,
          "name": "G4",
          "ticks": 9264,
          "time": 36.1875,
          "velocity": 0.7322834645669292
        },
        {
          "duration": 0.09375,
          "durationTicks": 24,
          "midi": 72,
          "name": "C5",
          "ticks": 9288,
          "time": 36.28125,
          "velocity": 0.7401574803149606
        },
        {
          "duration": 0.09375,
          "durationTicks": 24,
          "midi": 65,
          "name": "F4",
          "ticks": 9312,
          "time": 36.375,
          "velocity": 0.7322834645669292
        },
        {
          "duration": 0.09375,
          "durationTicks": 24,
          "midi": 67,
          "name": "G4",
          "ticks": 9336,
          "time": 36.46875,
          "velocity": 0.7322834645669292
        },
        {
          "duration": 0.09375,
          "durationTicks": 24,
          "midi": 72,
          "name": "C5",
          "ticks": 9360,
          "time": 36.5625,
          "velocity": 0.7559055118110236
        },
        {
          "duration": 0.09375,
          "durationTicks": 24,
          "midi": 77,
          "name": "F5",
          "ticks": 9384,
          "time": 36.65625,
          "velocity": 0.7480314960629921
        },
        {
          "duration": 0.09375,
          "durationTicks": 24,
          "midi": 79,
          "name": "G5",
          "ticks": 9408,
          "time": 36.75,
          "velocity": 0.7322834645669292
        },
        {
          "duration": 0.09375,
          "durationTicks": 24,
          "midi": 84,
          "name": "C6",
          "ticks": 9432,
          "time": 36.84375,
          "velocity": 0.7244094488188977
        },
        {
          "duration": 0.09375,
          "durationTicks": 24,
          "midi": 89,
          "name": "F6",
          "ticks": 9456,
          "time": 36.9375,
          "velocity": 0.7480314960629921
        },
        {
          "duration": 0.09375,
          "durationTicks": 24,
          "midi": 91,
          "name": "G6",
          "ticks": 9480,
          "time": 37.03125,
          "velocity": 0.7244094488188977
        },
        {
          "duration": 0.28125,
          "durationTicks": 72,
          "midi": 96,
          "name": "C7",
          "ticks": 9504,
          "time": 37.125,
          "velocity": 0.7559055118110236
        },
        {
          "duration": 0.375,
          "durationTicks": 96,
          "midi": 44,
          "name": "G#2",
          "ticks": 15744,
          "time": 61.5,
          "velocity": 0.6062992125984252
        },
        {
          "duration": 0.15625,
          "durationTicks": 40,
          "midi": 63,
          "name": "D#4",
          "ticks": 15744,
          "time": 61.5,
          "velocity": 0.5905511811023622
        },
        {
          "duration": 0.15625,
          "durationTicks": 40,
          "midi": 67,
          "name": "G4",
          "ticks": 15746,
          "time": 61.5078125,
          "velocity": 0.6456692913385826
        },
        {
          "duration": 0.15625,
          "durationTicks": 40,
          "midi": 72,
          "name": "C5",
          "ticks": 15749,
          "time": 61.51953125,
          "velocity": 0.6062992125984252
        },
        {
          "duration": 0.1875,
          "durationTicks": 48,
          "midi": 51,
          "name": "D#3",
          "ticks": 15792,
          "time": 61.6875,
          "velocity": 0.5354330708661418
        },
        {
          "duration": 0.15625,
          "durationTicks": 40,
          "midi": 63,
          "name": "D#4",
          "ticks": 15792,
          "time": 61.6875,
          "velocity": 0.6062992125984252
        },
        {
          "duration": 0.1875,
          "durationTicks": 48,
          "midi": 56,
          "name": "G#3",
          "ticks": 15840,
          "time": 61.875,
          "velocity": 0.6220472440944882
        },
        {
          "duration": 0.15625,
          "durationTicks": 40,
          "midi": 67,
          "name": "G4",
          "ticks": 15840,
          "time": 61.875,
          "velocity": 0.5984251968503937
        },
        {
          "duration": 0.1875,
          "durationTicks": 48,
          "midi": 60,
          "name": "C4",
          "ticks": 15888,
          "time": 62.0625,
          "velocity": 0.7086614173228346
        },
        {
          "duration": 0.15625,
          "durationTicks": 40,
          "midi": 72,
          "name": "C5",
          "ticks": 15888,
          "time": 62.0625,
          "velocity": 0.6220472440944882
        },
        {
          "duration": 0.375,
          "durationTicks": 96,
          "midi": 43,
          "name": "G2",
          "ticks": 15936,
          "time": 62.25,
          "velocity": 0.6062992125984252
        },
        {
          "duration": 0.15625,
          "durationTicks": 40,
          "midi": 65,
          "name": "F4",
          "ticks": 15936,
          "time": 62.25,
          "velocity": 0.5826771653543307
        },
        {
          "duration": 0.15625,
          "durationTicks": 40,
          "midi": 67,
          "name": "G4",
          "ticks": 15936,
          "time": 62.25,
          "velocity": 0.5826771653543307
        },
        {
          "duration": 0.15625,
          "durationTicks": 40,
          "midi": 71,
          "name": "B4",
          "ticks": 15938,
          "time": 62.2578125,
          "velocity": 0.6141732283464567
        },
        {
          "duration": 0.15625,
          "durationTicks": 40,
          "midi": 74,
          "name": "D5",
          "ticks": 15940,
          "time": 62.265625,
          "velocity": 0.6377952755905512
        },
        {
          "duration": 0.1875,
          "durationTicks": 48,
          "midi": 50,
          "name": "D3",
          "ticks": 15984,
          "time": 62.4375,
          "velocity": 0.5826771653543307
        },
        {
          "duration": 0.15625,
          "durationTicks": 40,
          "midi": 67,
          "name": "G4",
          "ticks": 15984,
          "time": 62.4375,
          "velocity": 0.6299212598425197
        },
        {
          "duration": 0.1875,
          "durationTicks": 48,
          "midi": 55,
          "name": "G3",
          "ticks": 16032,
          "time": 62.625,
          "velocity": 0.6299212598425197
        },
        {
          "duration": 0.15625,
          "durationTicks": 40,
          "midi": 71,
          "name": "B4",
          "ticks": 16032,
          "time": 62.625,
          "velocity": 0.5669291338582677
        },
        {
          "duration": 0.1875,
          "durationTicks": 48,
          "midi": 59,
          "name": "B3",
          "ticks": 16080,
          "time": 62.8125,
          "velocity": 0.6692913385826772
        },
        {
          "duration": 0.15625,
          "durationTicks": 40,
          "midi": 74,
          "name": "D5",
          "ticks": 16080,
          "time": 62.8125,
          "velocity": 0.5984251968503937
        },
        {
          "duration": 0.375,
          "durationTicks": 96,
          "midi": 48,
          "name": "C3",
          "ticks": 16128,
          "time": 63,
          "velocity": 0.6062992125984252
        },
        {
          "duration": 0.15625,
          "durationTicks": 40,
          "midi": 67,
          "name": "G4",
          "ticks": 16128,
          "time": 63,
          "velocity": 0.6456692913385826
        },
        {
          "duration": 0.15625,
          "durationTicks": 40,
          "midi": 72,
          "name": "C5",
          "ticks": 16130,
          "time": 63.0078125,
          "velocity": 0.5748031496062992
        },
        {
          "duration": 0.15625,
          "durationTicks": 40,
          "midi": 75,
          "name": "D#5",
          "ticks": 16136,
          "time": 63.03125,
          "velocity": 0.5669291338582677
        },
        {
          "duration": 0.1875,
          "durationTicks": 48,
          "midi": 55,
          "name": "G3",
          "ticks": 16176,
          "time": 63.1875,
          "velocity": 0.5275590551181102
        },
        {
          "duration": 0.15625,
          "durationTicks": 40,
          "midi": 67,
          "name": "G4",
          "ticks": 16176,
          "time": 63.1875,
          "velocity": 0.6456692913385826
        },
        {
          "duration": 0.1875,
          "durationTicks": 48,
          "midi": 60,
          "name": "C4",
          "ticks": 16224,
          "time": 63.375,
          "velocity": 0.6062992125984252
        },
        {
          "duration": 0.15625,
          "durationTicks": 40,
          "midi": 72,
          "name": "C5",
          "ticks": 16224,
          "time": 63.375,
          "velocity": 0.6456692913385826
        },
        {
          "duration": 0.1875,
          "durationTicks": 48,
          "midi": 63,
          "name": "D#4",
          "ticks": 16272,
          "time": 63.5625,
          "velocity": 0.6850393700787402
        },
        {
          "duration": 0.15625,
          "durationTicks": 40,
          "midi": 75,
          "name": "D#5",
          "ticks": 16272,
          "time": 63.5625,
          "velocity": 0.6062992125984252
        },
        {
          "duration": 0.375,
          "durationTicks": 96,
          "midi": 46,
          "name": "A#2",
          "ticks": 16320,
          "time": 63.75,
          "velocity": 0.6062992125984252
        },
        {
          "duration": 0.15625,
          "durationTicks": 40,
          "midi": 77,
          "name": "F5",
          "ticks": 16320,
          "time": 63.75,
          "velocity": 0.6220472440944882
        },
        {
          "duration": 0.15625,
          "durationTicks": 40,
          "midi": 74,
          "name": "D5",
          "ticks": 16320,
          "time": 63.75,
          "velocity": 0.5905511811023622
        },
        {
          "duration": 0.15625,
          "durationTicks": 40,
          "midi": 70,
          "name": "A#4",
          "ticks": 16320,
          "time": 63.75,
          "velocity": 0.5669291338582677
        },
        {
          "duration": 0.1875,
          "durationTicks": 48,
          "midi": 53,
          "name": "F3",
          "ticks": 16368,
          "time": 63.9375,
          "velocity": 0.48031496062992124
        },
        {
          "duration": 0.15625,
          "durationTicks": 40,
          "midi": 70,
          "name": "A#4",
          "ticks": 16368,
          "time": 63.9375,
          "velocity": 0.5826771653543307
        },
        {
          "duration": 0.1875,
          "durationTicks": 48,
          "midi": 58,
          "name": "A#3",
          "ticks": 16416,
          "time": 64.125,
          "velocity": 0.5590551181102362
        },
        {
          "duration": 0.15625,
          "durationTicks": 40,
          "midi": 74,
          "name": "D5",
          "ticks": 16416,
          "time": 64.125,
          "velocity": 0.5905511811023622
        },
        {
          "duration": 0.15625,
          "durationTicks": 40,
          "midi": 77,
          "name": "F5",
          "ticks": 16416,
          "time": 64.125,
          "velocity": 0.5905511811023622
        },
        {
          "duration": 0.15625,
          "durationTicks": 40,
          "midi": 80,
          "name": "G#5",
          "ticks": 16416,
          "time": 64.125,
          "velocity": 0.5826771653543307
        },
        {
          "duration": 0.1875,
          "durationTicks": 48,
          "midi": 62,
          "name": "D4",
          "ticks": 16464,
          "time": 64.3125,
          "velocity": 0.6377952755905512
        },
        {
          "duration": 0.15625,
          "durationTicks": 40,
          "midi": 70,
          "name": "A#4",
          "ticks": 16464,
          "time": 64.3125,
          "velocity": 0.6377952755905512
        },
        {
          "duration": 0.375,
          "durationTicks": 96,
          "midi": 44,
          "name": "G#2",
          "ticks": 16512,
          "time": 64.5,
          "velocity": 0.6062992125984252
        },
        {
          "duration": 0.15625,
          "durationTicks": 40,
          "midi": 79,
          "name": "G5",
          "ticks": 16512,
          "time": 64.5,
          "velocity": 0.6299212598425197
        },
        {
          "duration": 0.15625,
          "durationTicks": 40,
          "midi": 75,
          "name": "D#5",
          "ticks": 16512,
          "time": 64.5,
          "velocity": 0.6377952755905512
        },
        {
          "duration": 0.1875,
          "durationTicks": 48,
          "midi": 51,
          "name": "D#3",
          "ticks": 16560,
          "time": 64.6875,
          "velocity": 0.49606299212598426
        },
        {
          "duration": 0.15625,
          "durationTicks": 40,
          "midi": 72,
          "name": "C5",
          "ticks": 16560,
          "time": 64.6875,
          "velocity": 0.6062992125984252
        },
        {
          "duration": 0.1875,
          "durationTicks": 48,
          "midi": 56,
          "name": "G#3",
          "ticks": 16608,
          "time": 64.875,
          "velocity": 0.5748031496062992
        },
        {
          "duration": 0.15625,
          "durationTicks": 40,
          "midi": 75,
          "name": "D#5",
          "ticks": 16608,
          "time": 64.875,
          "velocity": 0.6456692913385826
        },
        {
          "duration": 0.1875,
          "durationTicks": 48,
          "midi": 60,
          "name": "C4",
          "ticks": 16656,
          "time": 65.0625,
          "velocity": 0.6614173228346457
        },
        {
          "duration": 0.15625,
          "durationTicks": 40,
          "midi": 75,
          "name": "D#5",
          "ticks": 16656,
          "time": 65.0625,
          "velocity": 0.5905511811023622
        },
        {
          "duration": 0.15625,
          "durationTicks": 40,
          "midi": 79,
          "name": "G5",
          "ticks": 16656,
          "time": 65.0625,
          "velocity": 0.5669291338582677
        },
        {
          "duration": 0.375,
          "durationTicks": 96,
          "midi": 46,
          "name": "A#2",
          "ticks": 16704,
          "time": 65.25,
          "velocity": 0.6062992125984252
        },
        {
          "duration": 0.15625,
          "durationTicks": 40,
          "midi": 74,
          "name": "D5",
          "ticks": 16704,
          "time": 65.25,
          "velocity": 0.6141732283464567
        },
        {
          "duration": 0.15625,
          "durationTicks": 40,
          "midi": 79,
          "name": "G5",
          "ticks": 16704,
          "time": 65.25,
          "velocity": 0.5826771653543307
        },
        {
          "duration": 0.1875,
          "durationTicks": 48,
          "midi": 53,
          "name": "F3",
          "ticks": 16752,
          "time": 65.4375,
          "velocity": 0.5196850393700787
        },
        {
          "duration": 0.15625,
          "durationTicks": 40,
          "midi": 70,
          "name": "A#4",
          "ticks": 16752,
          "time": 65.4375,
          "velocity": 0.6456692913385826
        },
        {
          "duration": 0.1875,
          "durationTicks": 48,
          "midi": 58,
          "name": "A#3",
          "ticks": 16800,
          "time": 65.625,
          "velocity": 0.6062992125984252
        },
        {
          "duration": 0.15625,
          "durationTicks": 40,
          "midi": 75,
          "name": "D#5",
          "ticks": 16800,
          "time": 65.625,
          "velocity": 0.5826771653543307
        },
        {
          "duration": 0.1875,
          "durationTicks": 48,
          "midi": 62,
          "name": "D4",
          "ticks": 16848,
          "time": 65.8125,
          "velocity": 0.6850393700787402
        },
        {
          "duration": 0.15625,
          "durationTicks": 40,
          "midi": 79,
          "name": "G5",
          "ticks": 16848,
          "time": 65.8125,
          "velocity": 0.6299212598425197
        },
        {
          "duration": 0.375,
          "durationTicks": 96,
          "midi": 51,
          "name": "D#3",
          "ticks": 16896,
          "time": 66,
          "velocity": 0.6062992125984252
        },
        {
          "duration": 0.40625,
          "durationTicks": 104,
          "midi": 80,
          "name": "G#5",
          "ticks": 16896,
          "time": 66,
          "velocity": 0.6141732283464567
        },
        {
          "duration": 0.40625,
          "durationTicks": 104,
          "midi": 75,
          "name": "D#5",
          "ticks": 16896,
          "time": 66,
          "velocity": 0.5826771653543307
        },
        {
          "duration": 0.40625,
          "durationTicks": 104,
          "midi": 70,
          "name": "A#4",
          "ticks": 16896,
          "time": 66,
          "velocity": 0.5826771653543307
        },
        {
          "duration": 0.1875,
          "durationTicks": 48,
          "midi": 55,
          "name": "G3",
          "ticks": 16944,
          "time": 66.1875,
          "velocity": 0.5511811023622047
        },
        {
          "duration": 0.1875,
          "durationTicks": 48,
          "midi": 58,
          "name": "A#3",
          "ticks": 16992,
          "time": 66.375,
          "velocity": 0.6141732283464567
        },
        {
          "duration": 0.1875,
          "durationTicks": 48,
          "midi": 63,
          "name": "D#4",
          "ticks": 17040,
          "time": 66.5625,
          "velocity": 0.6771653543307087
        },
        {
          "duration": 0.09375,
          "durationTicks": 24,
          "midi": 79,
          "name": "G5",
          "ticks": 17048,
          "time": 66.59375,
          "velocity": 0.6141732283464567
        },
        {
          "duration": 0.09375,
          "durationTicks": 24,
          "midi": 80,
          "name": "G#5",
          "ticks": 17064,
          "time": 66.65625,
          "velocity": 0.5826771653543307
        },
        {
          "duration": 0.375,
          "durationTicks": 96,
          "midi": 75,
          "name": "D#5",
          "ticks": 17088,
          "time": 66.75,
          "velocity": 0.6377952755905512
        },
        {
          "duration": 0.1875,
          "durationTicks": 48,
          "midi": 62,
          "name": "D4",
          "ticks": 17088,
          "time": 66.75,
          "velocity": 0.7165354330708661
        },
        {
          "duration": 0.375,
          "durationTicks": 96,
          "midi": 79,
          "name": "G5",
          "ticks": 17088,
          "time": 66.75,
          "velocity": 0.5826771653543307
        },
        {
          "duration": 0.1875,
          "durationTicks": 48,
          "midi": 58,
          "name": "A#3",
          "ticks": 17136,
          "time": 66.9375,
          "velocity": 0.6535433070866141
        },
        {
          "duration": 0.1875,
          "durationTicks": 48,
          "midi": 53,
          "name": "F3",
          "ticks": 17184,
          "time": 67.125,
          "velocity": 0.5905511811023622
        },
        {
          "duration": 0.1875,
          "durationTicks": 48,
          "midi": 50,
          "name": "D3",
          "ticks": 17232,
          "time": 67.3125,
          "velocity": 0.5275590551181102
        },
        {
          "duration": 0.375,
          "durationTicks": 96,
          "midi": 53,
          "name": "F3",
          "ticks": 17280,
          "time": 67.5,
          "velocity": 0.6062992125984252
        },
        {
          "duration": 0.40625,
          "durationTicks": 104,
          "midi": 72,
          "name": "C5",
          "ticks": 17280,
          "time": 67.5,
          "velocity": 0.5905511811023622
        },
        {
          "duration": 0.40625,
          "durationTicks": 104,
          "midi": 77,
          "name": "F5",
          "ticks": 17280,
          "time": 67.5,
          "velocity": 0.6377952755905512
        },
        {
          "duration": 0.40625,
          "durationTicks": 104,
          "midi": 80,
          "name": "G#5",
          "ticks": 17285,
          "time": 67.51953125,
          "velocity": 0.6062992125984252
        },
        {
          "duration": 0.1875,
          "durationTicks": 48,
          "midi": 60,
          "name": "C4",
          "ticks": 17328,
          "time": 67.6875,
          "velocity": 0.31496062992125984
        },
        {
          "duration": 0.1875,
          "durationTicks": 48,
          "midi": 65,
          "name": "F4",
          "ticks": 17376,
          "time": 67.875,
          "velocity": 0.44881889763779526
        },
        {
          "duration": 0.1875,
          "durationTicks": 48,
          "midi": 68,
          "name": "G#4",
          "ticks": 17424,
          "time": 68.0625,
          "velocity": 0.5826771653543307
        },
        {
          "duration": 0.15625,
          "durationTicks": 40,
          "midi": 80,
          "name": "G#5",
          "ticks": 17424,
          "time": 68.0625,
          "velocity": 0.6220472440944882
        },
        {
          "duration": 0.375,
          "durationTicks": 96,
          "midi": 46,
          "name": "A#2",
          "ticks": 17472,
          "time": 68.25,
          "velocity": 0.6062992125984252
        },
        {
          "duration": 0.15625,
          "durationTicks": 40,
          "midi": 70,
          "name": "A#4",
          "ticks": 17472,
          "time": 68.25,
          "velocity": 0.5905511811023622
        },
        {
          "duration": 0.15625,
          "durationTicks": 40,
          "midi": 74,
          "name": "D5",
          "ticks": 17472,
          "time": 68.25,
          "velocity": 0.5905511811023622
        },
        {
          "duration": 0.15625,
          "durationTicks": 40,
          "midi": 77,
          "name": "F5",
          "ticks": 17472,
          "time": 68.25,
          "velocity": 0.6141732283464567
        },
        {
          "duration": 0.1875,
          "durationTicks": 48,
          "midi": 53,
          "name": "F3",
          "ticks": 17520,
          "time": 68.4375,
          "velocity": 0.3937007874015748
        },
        {
          "duration": 0.15625,
          "durationTicks": 40,
          "midi": 70,
          "name": "A#4",
          "ticks": 17520,
          "time": 68.4375,
          "velocity": 0.6377952755905512
        },
        {
          "duration": 0.1875,
          "durationTicks": 48,
          "midi": 58,
          "name": "A#3",
          "ticks": 17568,
          "time": 68.625,
          "velocity": 0.5354330708661418
        },
        {
          "duration": 0.15625,
          "durationTicks": 40,
          "midi": 74,
          "name": "D5",
          "ticks": 17568,
          "time": 68.625,
          "velocity": 0.6299212598425197
        },
        {
          "duration": 0.1875,
          "durationTicks": 48,
          "midi": 62,
          "name": "D4",
          "ticks": 17616,
          "time": 68.8125,
          "velocity": 0.6377952755905512
        },
        {
          "duration": 0.15625,
          "durationTicks": 40,
          "midi": 77,
          "name": "F5",
          "ticks": 17616,
          "time": 68.8125,
          "velocity": 0.5984251968503937
        },
        {
          "duration": 0.375,
          "durationTicks": 96,
          "midi": 51,
          "name": "D#3",
          "ticks": 17664,
          "time": 69,
          "velocity": 0.6062992125984252
        },
        {
          "duration": 0.3125,
          "durationTicks": 80,
          "midi": 70,
          "name": "A#4",
          "ticks": 17664,
          "time": 69,
          "velocity": 0.6456692913385826
        },
        {
          "duration": 0.3125,
          "durationTicks": 80,
          "midi": 75,
          "name": "D#5",
          "ticks": 17664,
          "time": 69,
          "velocity": 0.5748031496062992
        },
        {
          "duration": 0.3125,
          "durationTicks": 80,
          "midi": 79,
          "name": "G5",
          "ticks": 17665,
          "time": 69.00390625,
          "velocity": 0.5669291338582677
        },
        {
          "duration": 0.1875,
          "durationTicks": 48,
          "midi": 58,
          "name": "A#3",
          "ticks": 17712,
          "time": 69.1875,
          "velocity": 0.4330708661417323
        },
        {
          "duration": 0.1875,
          "durationTicks": 48,
          "midi": 63,
          "name": "D#4",
          "ticks": 17760,
          "time": 69.375,
          "velocity": 0.5826771653543307
        },
        {
          "duration": 0.1875,
          "durationTicks": 48,
          "midi": 67,
          "name": "G4",
          "ticks": 17808,
          "time": 69.5625,
          "velocity": 0.6850393700787402
        },
        {
          "duration": 0.15625,
          "durationTicks": 40,
          "midi": 79,
          "name": "G5",
          "ticks": 17808,
          "time": 69.5625,
          "velocity": 0.6062992125984252
        },
        {
          "duration": 0.375,
          "durationTicks": 96,
          "midi": 44,
          "name": "G#2",
          "ticks": 17856,
          "time": 69.75,
          "velocity": 0.6062992125984252
        },
        {
          "duration": 0.15625,
          "durationTicks": 40,
          "midi": 68,
          "name": "G#4",
          "ticks": 17856,
          "time": 69.75,
          "velocity": 0.6220472440944882
        },
        {
          "duration": 0.15625,
          "durationTicks": 40,
          "midi": 72,
          "name": "C5",
          "ticks": 17856,
          "time": 69.75,
          "velocity": 0.5905511811023622
        },
        {
          "duration": 0.15625,
          "durationTicks": 40,
          "midi": 75,
          "name": "D#5",
          "ticks": 17856,
          "time": 69.75,
          "velocity": 0.5669291338582677
        },
        {
          "duration": 0.1875,
          "durationTicks": 48,
          "midi": 51,
          "name": "D#3",
          "ticks": 17904,
          "time": 69.9375,
          "velocity": 0.4251968503937008
        },
        {
          "duration": 0.15625,
          "durationTicks": 40,
          "midi": 68,
          "name": "G#4",
          "ticks": 17904,
          "time": 69.9375,
          "velocity": 0.5826771653543307
        },
        {
          "duration": 0.1875,
          "durationTicks": 48,
          "midi": 56,
          "name": "G#3",
          "ticks": 17952,
          "time": 70.125,
          "velocity": 0.5354330708661418
        },
        {
          "duration": 0.15625,
          "durationTicks": 40,
          "midi": 72,
          "name": "C5",
          "ticks": 17952,
          "time": 70.125,
          "velocity": 0.5905511811023622
        },
        {
          "duration": 0.1875,
          "durationTicks": 48,
          "midi": 60,
          "name": "C4",
          "ticks": 18000,
          "time": 70.3125,
          "velocity": 0.6377952755905512
        },
        {
          "duration": 0.15625,
          "durationTicks": 40,
          "midi": 75,
          "name": "D#5",
          "ticks": 18000,
          "time": 70.3125,
          "velocity": 0.5905511811023622
        },
        {
          "duration": 0.33203125,
          "durationTicks": 85,
          "midi": 69,
          "name": "A4",
          "ticks": 18048,
          "time": 70.5,
          "velocity": 0.5905511811023622
        },
        {
          "duration": 0.33203125,
          "durationTicks": 85,
          "midi": 74,
          "name": "D5",
          "ticks": 18048,
          "time": 70.5,
          "velocity": 0.6377952755905512
        },
        {
          "duration": 0.375,
          "durationTicks": 96,
          "midi": 50,
          "name": "D3",
          "ticks": 18048,
          "time": 70.5,
          "velocity": 0.6062992125984252
        },
        {
          "duration": 0.33203125,
          "durationTicks": 85,
          "midi": 78,
          "name": "F#5",
          "ticks": 18048,
          "time": 70.5,
          "velocity": 0.6299212598425197
        },
        {
          "duration": 0.1875,
          "durationTicks": 48,
          "midi": 57,
          "name": "A3",
          "ticks": 18096,
          "time": 70.6875,
          "velocity": 0.48031496062992124
        },
        {
          "duration": 0.1875,
          "durationTicks": 48,
          "midi": 62,
          "name": "D4",
          "ticks": 18144,
          "time": 70.875,
          "velocity": 0.6062992125984252
        },
        {
          "duration": 0.1875,
          "durationTicks": 48,
          "midi": 66,
          "name": "F#4",
          "ticks": 18192,
          "time": 71.0625,
          "velocity": 0.6850393700787402
        },
        {
          "duration": 0.15625,
          "durationTicks": 40,
          "midi": 75,
          "name": "D#5",
          "ticks": 18192,
          "time": 71.0625,
          "velocity": 0.6377952755905512
        },
        {
          "duration": 0.375,
          "durationTicks": 96,
          "midi": 54,
          "name": "F#3",
          "ticks": 18240,
          "time": 71.25,
          "velocity": 0.6062992125984252
        },
        {
          "duration": 0.25,
          "durationTicks": 64,
          "midi": 75,
          "name": "D#5",
          "ticks": 18240,
          "time": 71.25,
          "velocity": 0.5984251968503937
        },
        {
          "duration": 0.1875,
          "durationTicks": 48,
          "midi": 62,
          "name": "D4",
          "ticks": 18288,
          "time": 71.4375,
          "velocity": 0.33858267716535434
        },
        {
          "duration": 0.1875,
          "durationTicks": 48,
          "midi": 66,
          "name": "F#4",
          "ticks": 18336,
          "time": 71.625,
          "velocity": 0.5118110236220472
        },
        {
          "duration": 0.15625,
          "durationTicks": 40,
          "midi": 74,
          "name": "D5",
          "ticks": 18336,
          "time": 71.625,
          "velocity": 0.5826771653543307
        },
        {
          "duration": 0.1875,
          "durationTicks": 48,
          "midi": 69,
          "name": "A4",
          "ticks": 18384,
          "time": 71.8125,
          "velocity": 0.5511811023622047
        },
        {
          "duration": 0.15625,
          "durationTicks": 40,
          "midi": 75,
          "name": "D#5",
          "ticks": 18384,
          "time": 71.8125,
          "velocity": 0.5826771653543307
        },
        {
          "duration": 0.375,
          "durationTicks": 96,
          "midi": 55,
          "name": "G3",
          "ticks": 18432,
          "time": 72,
          "velocity": 0.6062992125984252
        },
        {
          "duration": 0.15625,
          "durationTicks": 40,
          "midi": 71,
          "name": "B4",
          "ticks": 18432,
          "time": 72,
          "velocity": 0.6299212598425197
        },
        {
          "duration": 0.15625,
          "durationTicks": 40,
          "midi": 74,
          "name": "D5",
          "ticks": 18432,
          "time": 72,
          "velocity": 0.6141732283464567
        },
        {
          "duration": 0.09375,
          "durationTicks": 24,
          "midi": 75,
          "name": "D#5",
          "ticks": 18480,
          "time": 72.1875,
          "velocity": 0.6377952755905512
        },
        {
          "duration": 0.09375,
          "durationTicks": 24,
          "midi": 74,
          "name": "D5",
          "ticks": 18504,
          "time": 72.28125,
          "velocity": 0.6299212598425197
        },
        {
          "duration": 0.15625,
          "durationTicks": 40,
          "midi": 62,
          "name": "D4",
          "ticks": 18528,
          "time": 72.375,
          "velocity": 0.6141732283464567
        },
        {
          "duration": 0.09375,
          "durationTicks": 24,
          "midi": 75,
          "name": "D#5",
          "ticks": 18528,
          "time": 72.375,
          "velocity": 0.6299212598425197
        },
        {
          "duration": 0.09375,
          "durationTicks": 24,
          "midi": 74,
          "name": "D5",
          "ticks": 18552,
          "time": 72.46875,
          "velocity": 0.6692913385826772
        },
        {
          "duration": 0.09375,
          "durationTicks": 24,
          "midi": 75,
          "name": "D#5",
          "ticks": 18576,
          "time": 72.5625,
          "velocity": 0.6456692913385826
        },
        {
          "duration": 0.09375,
          "durationTicks": 24,
          "midi": 72,
          "name": "C5",
          "ticks": 18600,
          "time": 72.65625,
          "velocity": 0.6062992125984252
        },
        {
          "duration": 0.09375,
          "durationTicks": 24,
          "midi": 62,
          "name": "D4",
          "ticks": 18624,
          "time": 72.75,
          "velocity": 0.6062992125984252
        },
        {
          "duration": 0.125,
          "durationTicks": 32,
          "midi": 71,
          "name": "B4",
          "ticks": 18624,
          "time": 72.75,
          "velocity": 0.6062992125984252
        },
        {
          "duration": 0.09375,
          "durationTicks": 24,
          "midi": 59,
          "name": "B3",
          "ticks": 18672,
          "time": 72.9375,
          "velocity": 0.6141732283464567
        },
        {
          "duration": 0.0625,
          "durationTicks": 16,
          "midi": 67,
          "name": "G4",
          "ticks": 18672,
          "time": 72.9375,
          "velocity": 0.5905511811023622
        },
        {
          "duration": 0.09375,
          "durationTicks": 24,
          "midi": 53,
          "name": "F3",
          "ticks": 18720,
          "time": 73.125,
          "velocity": 0.6535433070866141
        },
        {
          "duration": 0.0625,
          "durationTicks": 16,
          "midi": 69,
          "name": "A4",
          "ticks": 18720,
          "time": 73.125,
          "velocity": 0.6771653543307087
        },
        {
          "duration": 0.09375,
          "durationTicks": 24,
          "midi": 50,
          "name": "D3",
          "ticks": 18768,
          "time": 73.3125,
          "velocity": 0.7007874015748031
        },
        {
          "duration": 0.0625,
          "durationTicks": 16,
          "midi": 71,
          "name": "B4",
          "ticks": 18768,
          "time": 73.3125,
          "velocity": 0.7637795275590551
        },
        {
          "duration": 0.15625,
          "durationTicks": 40,
          "midi": 63,
          "name": "D#4",
          "ticks": 18800,
          "time": 73.4375,
          "velocity": 0.7244094488188977
        },
        {
          "duration": 0.15625,
          "durationTicks": 40,
          "midi": 67,
          "name": "G4",
          "ticks": 18808,
          "time": 73.46875,
          "velocity": 0.7637795275590551
        },
        {
          "duration": 0.375,
          "durationTicks": 96,
          "midi": 44,
          "name": "G#2",
          "ticks": 18816,
          "time": 73.5,
          "velocity": 0.6614173228346457
        },
        {
          "duration": 0.15625,
          "durationTicks": 40,
          "midi": 72,
          "name": "C5",
          "ticks": 18816,
          "time": 73.5,
          "velocity": 0.7322834645669292
        },
        {
          "duration": 0.1875,
          "durationTicks": 48,
          "midi": 51,
          "name": "D#3",
          "ticks": 18864,
          "time": 73.6875,
          "velocity": 0.6062992125984252
        },
        {
          "duration": 0.15625,
          "durationTicks": 40,
          "midi": 63,
          "name": "D#4",
          "ticks": 18864,
          "time": 73.6875,
          "velocity": 0.5275590551181102
        },
        {
          "duration": 0.15625,
          "durationTicks": 40,
          "midi": 63,
          "name": "D#4",
          "ticks": 18864,
          "time": 73.6875,
          "velocity": 0.6535433070866141
        },
        {
          "duration": 0.1875,
          "durationTicks": 48,
          "midi": 56,
          "name": "G#3",
          "ticks": 18912,
          "time": 73.875,
          "velocity": 0.6692913385826772
        },
        {
          "duration": 0.15625,
          "durationTicks": 40,
          "midi": 67,
          "name": "G4",
          "ticks": 18912,
          "time": 73.875,
          "velocity": 0.6692913385826772
        },
        {
          "duration": 0.1875,
          "durationTicks": 48,
          "midi": 60,
          "name": "C4",
          "ticks": 18960,
          "time": 74.0625,
          "velocity": 0.7322834645669292
        },
        {
          "duration": 0.15625,
          "durationTicks": 40,
          "midi": 72,
          "name": "C5",
          "ticks": 18960,
          "time": 74.0625,
          "velocity": 0.6456692913385826
        },
        {
          "duration": 0.375,
          "durationTicks": 96,
          "midi": 43,
          "name": "G2",
          "ticks": 19008,
          "time": 74.25,
          "velocity": 0.6614173228346457
        },
        {
          "duration": 0.15625,
          "durationTicks": 40,
          "midi": 65,
          "name": "F4",
          "ticks": 19008,
          "time": 74.25,
          "velocity": 0.6456692913385826
        },
        {
          "duration": 0.15625,
          "durationTicks": 40,
          "midi": 67,
          "name": "G4",
          "ticks": 19008,
          "time": 74.25,
          "velocity": 0.6456692913385826
        },
        {
          "duration": 0.15625,
          "durationTicks": 40,
          "midi": 71,
          "name": "B4",
          "ticks": 19008,
          "time": 74.25,
          "velocity": 0.6456692913385826
        },
        {
          "duration": 0.15625,
          "durationTicks": 40,
          "midi": 74,
          "name": "D5",
          "ticks": 19008,
          "time": 74.25,
          "velocity": 0.7322834645669292
        },
        {
          "duration": 0.1875,
          "durationTicks": 48,
          "midi": 50,
          "name": "D3",
          "ticks": 19056,
          "time": 74.4375,
          "velocity": 0.6456692913385826
        },
        {
          "duration": 0.15625,
          "durationTicks": 40,
          "midi": 67,
          "name": "G4",
          "ticks": 19056,
          "time": 74.4375,
          "velocity": 0.6377952755905512
        },
        {
          "duration": 0.1875,
          "durationTicks": 48,
          "midi": 55,
          "name": "G3",
          "ticks": 19104,
          "time": 74.625,
          "velocity": 0.6771653543307087
        },
        {
          "duration": 0.15625,
          "durationTicks": 40,
          "midi": 71,
          "name": "B4",
          "ticks": 19104,
          "time": 74.625,
          "velocity": 0.6535433070866141
        },
        {
          "duration": 0.1875,
          "durationTicks": 48,
          "midi": 59,
          "name": "B3",
          "ticks": 19152,
          "time": 74.8125,
          "velocity": 0.7086614173228346
        },
        {
          "duration": 0.15625,
          "durationTicks": 40,
          "midi": 74,
          "name": "D5",
          "ticks": 19152,
          "time": 74.8125,
          "velocity": 0.6850393700787402
        },
        {
          "duration": 0.375,
          "durationTicks": 96,
          "midi": 48,
          "name": "C3",
          "ticks": 19200,
          "time": 75,
          "velocity": 0.6614173228346457
        },
        {
          "duration": 0.15625,
          "durationTicks": 40,
          "midi": 67,
          "name": "G4",
          "ticks": 19200,
          "time": 75,
          "velocity": 0.6377952755905512
        },
        {
          "duration": 0.15625,
          "durationTicks": 40,
          "midi": 72,
          "name": "C5",
          "ticks": 19202,
          "time": 75.0078125,
          "velocity": 0.6299212598425197
        },
        {
          "duration": 0.15625,
          "durationTicks": 40,
          "midi": 75,
          "name": "D#5",
          "ticks": 19208,
          "time": 75.03125,
          "velocity": 0.6850393700787402
        },
        {
          "duration": 0.1875,
          "durationTicks": 48,
          "midi": 55,
          "name": "G3",
          "ticks": 19248,
          "time": 75.1875,
          "velocity": 0.6062992125984252
        },
        {
          "duration": 0.15625,
          "durationTicks": 40,
          "midi": 67,
          "name": "G4",
          "ticks": 19248,
          "time": 75.1875,
          "velocity": 0.6850393700787402
        },
        {
          "duration": 0.1875,
          "durationTicks": 48,
          "midi": 60,
          "name": "C4",
          "ticks": 19296,
          "time": 75.375,
          "velocity": 0.6614173228346457
        },
        {
          "duration": 0.15625,
          "durationTicks": 40,
          "midi": 72,
          "name": "C5",
          "ticks": 19296,
          "time": 75.375,
          "velocity": 0.6614173228346457
        },
        {
          "duration": 0.1875,
          "durationTicks": 48,
          "midi": 63,
          "name": "D#4",
          "ticks": 19344,
          "time": 75.5625,
          "velocity": 0.7244094488188977
        },
        {
          "duration": 0.15625,
          "durationTicks": 40,
          "midi": 75,
          "name": "D#5",
          "ticks": 19344,
          "time": 75.5625,
          "velocity": 0.6692913385826772
        },
        {
          "duration": 0.375,
          "durationTicks": 96,
          "midi": 47,
          "name": "B2",
          "ticks": 19392,
          "time": 75.75,
          "velocity": 0.6614173228346457
        },
        {
          "duration": 0.15625,
          "durationTicks": 40,
          "midi": 77,
          "name": "F5",
          "ticks": 19392,
          "time": 75.75,
          "velocity": 0.6456692913385826
        },
        {
          "duration": 0.15625,
          "durationTicks": 40,
          "midi": 74,
          "name": "D5",
          "ticks": 19392,
          "time": 75.75,
          "velocity": 0.6299212598425197
        },
        {
          "duration": 0.15625,
          "durationTicks": 40,
          "midi": 71,
          "name": "B4",
          "ticks": 19392,
          "time": 75.75,
          "velocity": 0.6456692913385826
        },
        {
          "duration": 0.1875,
          "durationTicks": 48,
          "midi": 53,
          "name": "F3",
          "ticks": 19440,
          "time": 75.9375,
          "velocity": 0.5669291338582677
        },
        {
          "duration": 0.15625,
          "durationTicks": 40,
          "midi": 71,
          "name": "B4",
          "ticks": 19440,
          "time": 75.9375,
          "velocity": 0.6456692913385826
        },
        {
          "duration": 0.1875,
          "durationTicks": 48,
          "midi": 59,
          "name": "B3",
          "ticks": 19488,
          "time": 76.125,
          "velocity": 0.6220472440944882
        },
        {
          "duration": 0.15625,
          "durationTicks": 40,
          "midi": 80,
          "name": "G#5",
          "ticks": 19488,
          "time": 76.125,
          "velocity": 0.6456692913385826
        },
        {
          "duration": 0.15625,
          "durationTicks": 40,
          "midi": 77,
          "name": "F5",
          "ticks": 19488,
          "time": 76.125,
          "velocity": 0.6456692913385826
        },
        {
          "duration": 0.15625,
          "durationTicks": 40,
          "midi": 74,
          "name": "D5",
          "ticks": 19488,
          "time": 76.125,
          "velocity": 0.6850393700787402
        },
        {
          "duration": 0.1875,
          "durationTicks": 48,
          "midi": 62,
          "name": "D4",
          "ticks": 19536,
          "time": 76.3125,
          "velocity": 0.6850393700787402
        },
        {
          "duration": 0.15625,
          "durationTicks": 40,
          "midi": 71,
          "name": "B4",
          "ticks": 19536,
          "time": 76.3125,
          "velocity": 0.6771653543307087
        },
        {
          "duration": 0.375,
          "durationTicks": 96,
          "midi": 48,
          "name": "C3",
          "ticks": 19584,
          "time": 76.5,
          "velocity": 0.6614173228346457
        },
        {
          "duration": 0.15625,
          "durationTicks": 40,
          "midi": 72,
          "name": "C5",
          "ticks": 19584,
          "time": 76.5,
          "velocity": 0.6771653543307087
        },
        {
          "duration": 0.15625,
          "durationTicks": 40,
          "midi": 75,
          "name": "D#5",
          "ticks": 19584,
          "time": 76.5,
          "velocity": 0.6614173228346457
        },
        {
          "duration": 0.15625,
          "durationTicks": 40,
          "midi": 79,
          "name": "G5",
          "ticks": 19586,
          "time": 76.5078125,
          "velocity": 0.6850393700787402
        },
        {
          "duration": 0.1875,
          "durationTicks": 48,
          "midi": 55,
          "name": "G3",
          "ticks": 19632,
          "time": 76.6875,
          "velocity": 0.5748031496062992
        },
        {
          "duration": 0.15625,
          "durationTicks": 40,
          "midi": 72,
          "name": "C5",
          "ticks": 19632,
          "time": 76.6875,
          "velocity": 0.6535433070866141
        },
        {
          "duration": 0.1875,
          "durationTicks": 48,
          "midi": 60,
          "name": "C4",
          "ticks": 19680,
          "time": 76.875,
          "velocity": 0.6377952755905512
        },
        {
          "duration": 0.15625,
          "durationTicks": 40,
          "midi": 86,
          "name": "D6",
          "ticks": 19680,
          "time": 76.875,
          "velocity": 0.6377952755905512
        },
        {
          "duration": 0.15625,
          "durationTicks": 40,
          "midi": 79,
          "name": "G5",
          "ticks": 19680,
          "time": 76.875,
          "velocity": 0.6614173228346457
        },
        {
          "duration": 0.1875,
          "durationTicks": 48,
          "midi": 63,
          "name": "D#4",
          "ticks": 19728,
          "time": 77.0625,
          "velocity": 0.6377952755905512
        },
        {
          "duration": 0.15625,
          "durationTicks": 40,
          "midi": 75,
          "name": "D#5",
          "ticks": 19728,
          "time": 77.0625,
          "velocity": 0.6456692913385826
        },
        {
          "duration": 0.15625,
          "durationTicks": 40,
          "midi": 73,
          "name": "C#5",
          "ticks": 19768,
          "time": 77.21875,
          "velocity": 0.6850393700787402
        },
        {
          "duration": 0.375,
          "durationTicks": 96,
          "midi": 49,
          "name": "C#3",
          "ticks": 19776,
          "time": 77.25,
          "velocity": 0.6614173228346457
        },
        {
          "duration": 0.15625,
          "durationTicks": 40,
          "midi": 76,
          "name": "E5",
          "ticks": 19776,
          "time": 77.25,
          "velocity": 0.6456692913385826
        },
        {
          "duration": 0.15625,
          "durationTicks": 40,
          "midi": 85,
          "name": "C#6",
          "ticks": 19780,
          "time": 77.265625,
          "velocity": 0.7165354330708661
        },
        {
          "duration": 0.1875,
          "durationTicks": 48,
          "midi": 55,
          "name": "G3",
          "ticks": 19824,
          "time": 77.4375,
          "velocity": 0.5984251968503937
        },
        {
          "duration": 0.15625,
          "durationTicks": 40,
          "midi": 84,
          "name": "C6",
          "ticks": 19824,
          "time": 77.4375,
          "velocity": 0.7086614173228346
        },
        {
          "duration": 0.1875,
          "durationTicks": 48,
          "midi": 61,
          "name": "C#4",
          "ticks": 19872,
          "time": 77.625,
          "velocity": 0.6614173228346457
        },
        {
          "duration": 0.15625,
          "durationTicks": 40,
          "midi": 76,
          "name": "E5",
          "ticks": 19872,
          "time": 77.625,
          "velocity": 0.6456692913385826
        },
        {
          "duration": 0.15625,
          "durationTicks": 40,
          "midi": 82,
          "name": "A#5",
          "ticks": 19873,
          "time": 77.62890625,
          "velocity": 0.6929133858267716
        },
        {
          "duration": 0.1875,
          "durationTicks": 48,
          "midi": 64,
          "name": "E4",
          "ticks": 19920,
          "time": 77.8125,
          "velocity": 0.5984251968503937
        },
        {
          "duration": 0.15625,
          "durationTicks": 40,
          "midi": 79,
          "name": "G5",
          "ticks": 19920,
          "time": 77.8125,
          "velocity": 0.6850393700787402
        },
        {
          "duration": 0.15625,
          "durationTicks": 40,
          "midi": 78,
          "name": "F#5",
          "ticks": 19968,
          "time": 78,
          "velocity": 0.6614173228346457
        },
        {
          "duration": 0.15625,
          "durationTicks": 40,
          "midi": 74,
          "name": "D5",
          "ticks": 19968,
          "time": 78,
          "velocity": 0.6614173228346457
        },
        {
          "duration": 0.375,
          "durationTicks": 96,
          "midi": 42,
          "name": "F#2",
          "ticks": 19968,
          "time": 78,
          "velocity": 0.6614173228346457
        },
        {
          "duration": 0.15625,
          "durationTicks": 40,
          "midi": 81,
          "name": "A5",
          "ticks": 19969,
          "time": 78.00390625,
          "velocity": 0.6850393700787402
        },
        {
          "duration": 0.1875,
          "durationTicks": 48,
          "midi": 50,
          "name": "D3",
          "ticks": 20016,
          "time": 78.1875,
          "velocity": 0.5984251968503937
        },
        {
          "duration": 0.15625,
          "durationTicks": 40,
          "midi": 74,
          "name": "D5",
          "ticks": 20016,
          "time": 78.1875,
          "velocity": 0.6614173228346457
        },
        {
          "duration": 0.15625,
          "durationTicks": 40,
          "midi": 84,
          "name": "C6",
          "ticks": 20064,
          "time": 78.375,
          "velocity": 0.7244094488188977
        },
        {
          "duration": 0.15625,
          "durationTicks": 40,
          "midi": 81,
          "name": "A5",
          "ticks": 20064,
          "time": 78.375,
          "velocity": 0.7244094488188977
        },
        {
          "duration": 0.15625,
          "durationTicks": 40,
          "midi": 87,
          "name": "D#6",
          "ticks": 20064,
          "time": 78.375,
          "velocity": 0.7244094488188977
        },
        {
          "duration": 0.1875,
          "durationTicks": 48,
          "midi": 54,
          "name": "F#3",
          "ticks": 20064,
          "time": 78.375,
          "velocity": 0.6614173228346457
        },
        {
          "duration": 0.1875,
          "durationTicks": 48,
          "midi": 57,
          "name": "A3",
          "ticks": 20112,
          "time": 78.5625,
          "velocity": 0.5984251968503937
        },
        {
          "duration": 0.15625,
          "durationTicks": 40,
          "midi": 78,
          "name": "F#5",
          "ticks": 20112,
          "time": 78.5625,
          "velocity": 0.6614173228346457
        },
        {
          "duration": 0.15625,
          "durationTicks": 40,
          "midi": 84,
          "name": "C6",
          "ticks": 20152,
          "time": 78.71875,
          "velocity": 0.6614173228346457
        },
        {
          "duration": 0.375,
          "durationTicks": 96,
          "midi": 43,
          "name": "G2",
          "ticks": 20160,
          "time": 78.75,
          "velocity": 0.6614173228346457
        },
        {
          "duration": 0.15625,
          "durationTicks": 40,
          "midi": 79,
          "name": "G5",
          "ticks": 20160,
          "time": 78.75,
          "velocity": 0.6614173228346457
        },
        {
          "duration": 0.15625,
          "durationTicks": 40,
          "midi": 86,
          "name": "D6",
          "ticks": 20160,
          "time": 78.75,
          "velocity": 0.6614173228346457
        },
        {
          "duration": 0.15625,
          "durationTicks": 40,
          "midi": 87,
          "name": "D#6",
          "ticks": 20168,
          "time": 78.78125,
          "velocity": 0.7401574803149606
        },
        {
          "duration": 0.1875,
          "durationTicks": 48,
          "midi": 50,
          "name": "D3",
          "ticks": 20208,
          "time": 78.9375,
          "velocity": 0.5984251968503937
        },
        {
          "duration": 0.15625,
          "durationTicks": 40,
          "midi": 86,
          "name": "D6",
          "ticks": 20208,
          "time": 78.9375,
          "velocity": 0.7244094488188977
        },
        {
          "duration": 0.15625,
          "durationTicks": 40,
          "midi": 84,
          "name": "C6",
          "ticks": 20256,
          "time": 79.125,
          "velocity": 0.6929133858267716
        },
        {
          "duration": 0.15625,
          "durationTicks": 40,
          "midi": 74,
          "name": "D5",
          "ticks": 20256,
          "time": 79.125,
          "velocity": 0.6614173228346457
        },
        {
          "duration": 0.1875,
          "durationTicks": 48,
          "midi": 55,
          "name": "G3",
          "ticks": 20256,
          "time": 79.125,
          "velocity": 0.6614173228346457
        },
        {
          "duration": 0.1875,
          "durationTicks": 48,
          "midi": 59,
          "name": "B3",
          "ticks": 20304,
          "time": 79.3125,
          "velocity": 0.5984251968503937
        },
        {
          "duration": 0.15625,
          "durationTicks": 40,
          "midi": 83,
          "name": "B5",
          "ticks": 20304,
          "time": 79.3125,
          "velocity": 0.6692913385826772
        },
        {
          "duration": 0.15625,
          "durationTicks": 40,
          "midi": 74,
          "name": "D5",
          "ticks": 20352,
          "time": 79.5,
          "velocity": 0.6456692913385826
        },
        {
          "duration": 0.15625,
          "durationTicks": 40,
          "midi": 79,
          "name": "G5",
          "ticks": 20352,
          "time": 79.5,
          "velocity": 0.6850393700787402
        },
        {
          "duration": 0.15625,
          "durationTicks": 40,
          "midi": 86,
          "name": "D6",
          "ticks": 20352,
          "time": 79.5,
          "velocity": 0.6614173228346457
        },
        {
          "duration": 0.375,
          "durationTicks": 96,
          "midi": 48,
          "name": "C3",
          "ticks": 20352,
          "time": 79.5,
          "velocity": 0.6614173228346457
        },
        {
          "duration": 0.1875,
          "durationTicks": 48,
          "midi": 55,
          "name": "G3",
          "ticks": 20400,
          "time": 79.6875,
          "velocity": 0.5826771653543307
        },
        {
          "duration": 0.15625,
          "durationTicks": 40,
          "midi": 75,
          "name": "D#5",
          "ticks": 20400,
          "time": 79.6875,
          "velocity": 0.6692913385826772
        },
        {
          "duration": 0.1875,
          "durationTicks": 48,
          "midi": 60,
          "name": "C4",
          "ticks": 20448,
          "time": 79.875,
          "velocity": 0.6299212598425197
        },
        {
          "duration": 0.15625,
          "durationTicks": 40,
          "midi": 84,
          "name": "C6",
          "ticks": 20448,
          "time": 79.875,
          "velocity": 0.6456692913385826
        },
        {
          "duration": 0.15625,
          "durationTicks": 40,
          "midi": 72,
          "name": "C5",
          "ticks": 20448,
          "time": 79.875,
          "velocity": 0.6692913385826772
        },
        {
          "duration": 0.1875,
          "durationTicks": 48,
          "midi": 63,
          "name": "D#4",
          "ticks": 20496,
          "time": 80.0625,
          "velocity": 0.7244094488188977
        },
        {
          "duration": 0.15625,
          "durationTicks": 40,
          "midi": 75,
          "name": "D#5",
          "ticks": 20496,
          "time": 80.0625,
          "velocity": 0.6771653543307087
        },
        {
          "duration": 0.15625,
          "durationTicks": 40,
          "midi": 79,
          "name": "G5",
          "ticks": 20544,
          "time": 80.25,
          "velocity": 0.6377952755905512
        },
        {
          "duration": 0.15625,
          "durationTicks": 40,
          "midi": 76,
          "name": "E5",
          "ticks": 20544,
          "time": 80.25,
          "velocity": 0.6535433070866141
        },
        {
          "duration": 0.375,
          "durationTicks": 96,
          "midi": 52,
          "name": "E3",
          "ticks": 20544,
          "time": 80.25,
          "velocity": 0.6850393700787402
        },
        {
          "duration": 0.1875,
          "durationTicks": 48,
          "midi": 58,
          "name": "A#3",
          "ticks": 20592,
          "time": 80.4375,
          "velocity": 0.5826771653543307
        },
        {
          "duration": 0.15625,
          "durationTicks": 40,
          "midi": 72,
          "name": "C5",
          "ticks": 20592,
          "time": 80.4375,
          "velocity": 0.6299212598425197
        },
        {
          "duration": 0.15625,
          "durationTicks": 40,
          "midi": 82,
          "name": "A#5",
          "ticks": 20640,
          "time": 80.625,
          "velocity": 0.6850393700787402
        },
        {
          "duration": 0.1875,
          "durationTicks": 48,
          "midi": 64,
          "name": "E4",
          "ticks": 20640,
          "time": 80.625,
          "velocity": 0.6850393700787402
        },
        {
          "duration": 0.15625,
          "durationTicks": 40,
          "midi": 70,
          "name": "A#4",
          "ticks": 20640,
          "time": 80.625,
          "velocity": 0.6614173228346457
        },
        {
          "duration": 0.15625,
          "durationTicks": 40,
          "midi": 79,
          "name": "G5",
          "ticks": 20640,
          "time": 80.625,
          "velocity": 0.6692913385826772
        },
        {
          "duration": 0.15625,
          "durationTicks": 40,
          "midi": 76,
          "name": "E5",
          "ticks": 20640,
          "time": 80.625,
          "velocity": 0.6456692913385826
        },
        {
          "duration": 0.1875,
          "durationTicks": 48,
          "midi": 67,
          "name": "G4",
          "ticks": 20688,
          "time": 80.8125,
          "velocity": 0.6850393700787402
        },
        {
          "duration": 0.0625,
          "durationTicks": 16,
          "midi": 82,
          "name": "A#5",
          "ticks": 20712,
          "time": 80.90625,
          "velocity": 0.6456692913385826
        },
        {
          "duration": 0.0625,
          "durationTicks": 16,
          "midi": 76,
          "name": "E5",
          "ticks": 20712,
          "time": 80.90625,
          "velocity": 0.6456692913385826
        },
        {
          "duration": 0.0625,
          "durationTicks": 16,
          "midi": 70,
          "name": "A#4",
          "ticks": 20712,
          "time": 80.90625,
          "velocity": 0.6456692913385826
        },
        {
          "duration": 0.0625,
          "durationTicks": 16,
          "midi": 79,
          "name": "G5",
          "ticks": 20712,
          "time": 80.90625,
          "velocity": 0.6456692913385826
        },
        {
          "duration": 0.15625,
          "durationTicks": 40,
          "midi": 82,
          "name": "A#5",
          "ticks": 20736,
          "time": 81,
          "velocity": 0.6692913385826772
        },
        {
          "duration": 0.15625,
          "durationTicks": 40,
          "midi": 77,
          "name": "F5",
          "ticks": 20736,
          "time": 81,
          "velocity": 0.7007874015748031
        },
        {
          "duration": 0.15625,
          "durationTicks": 40,
          "midi": 70,
          "name": "A#4",
          "ticks": 20736,
          "time": 81,
          "velocity": 0.6771653543307087
        },
        {
          "duration": 0.375,
          "durationTicks": 96,
          "midi": 53,
          "name": "F3",
          "ticks": 20736,
          "time": 81,
          "velocity": 0.6614173228346457
        },
        {
          "duration": 0.1875,
          "durationTicks": 48,
          "midi": 60,
          "name": "C4",
          "ticks": 20784,
          "time": 81.1875,
          "velocity": 0.6062992125984252
        },
        {
          "duration": 0.0625,
          "durationTicks": 16,
          "midi": 80,
          "name": "G#5",
          "ticks": 20808,
          "time": 81.28125,
          "velocity": 0.6535433070866141
        },
        {
          "duration": 0.0625,
          "durationTicks": 16,
          "midi": 77,
          "name": "F5",
          "ticks": 20808,
          "time": 81.28125,
          "velocity": 0.6299212598425197
        },
        {
          "duration": 0.0625,
          "durationTicks": 16,
          "midi": 68,
          "name": "G#4",
          "ticks": 20808,
          "time": 81.28125,
          "velocity": 0.6692913385826772
        },
        {
          "duration": 0.25,
          "durationTicks": 64,
          "midi": 80,
          "name": "G#5",
          "ticks": 20832,
          "time": 81.375,
          "velocity": 0.6299212598425197
        },
        {
          "duration": 0.1875,
          "durationTicks": 48,
          "midi": 65,
          "name": "F4",
          "ticks": 20832,
          "time": 81.375,
          "velocity": 0.6692913385826772
        },
        {
          "duration": 0.1640625,
          "durationTicks": 42,
          "midi": 68,
          "name": "G#4",
          "ticks": 20832,
          "time": 81.375,
          "velocity": 0.6299212598425197
        },
        {
          "duration": 0.25,
          "durationTicks": 64,
          "midi": 77,
          "name": "F5",
          "ticks": 20832,
          "time": 81.375,
          "velocity": 0.6850393700787402
        },
        {
          "duration": 0.1875,
          "durationTicks": 48,
          "midi": 68,
          "name": "G#4",
          "ticks": 20880,
          "time": 81.5625,
          "velocity": 0.6850393700787402
        },
        {
          "duration": 0.15625,
          "durationTicks": 40,
          "midi": 77,
          "name": "F5",
          "ticks": 20928,
          "time": 81.75,
          "velocity": 0.6614173228346457
        },
        {
          "duration": 0.15625,
          "durationTicks": 40,
          "midi": 74,
          "name": "D5",
          "ticks": 20928,
          "time": 81.75,
          "velocity": 0.6220472440944882
        },
        {
          "duration": 0.375,
          "durationTicks": 96,
          "midi": 46,
          "name": "A#2",
          "ticks": 20928,
          "time": 81.75,
          "velocity": 0.6692913385826772
        },
        {
          "duration": 0.1875,
          "durationTicks": 48,
          "midi": 53,
          "name": "F3",
          "ticks": 20976,
          "time": 81.9375,
          "velocity": 0.6456692913385826
        },
        {
          "duration": 0.15625,
          "durationTicks": 40,
          "midi": 80,
          "name": "G#5",
          "ticks": 21024,
          "time": 82.125,
          "velocity": 0.6692913385826772
        },
        {
          "duration": 0.1875,
          "durationTicks": 48,
          "midi": 58,
          "name": "A#3",
          "ticks": 21024,
          "time": 82.125,
          "velocity": 0.6456692913385826
        },
        {
          "duration": 0.15625,
          "durationTicks": 40,
          "midi": 68,
          "name": "G#4",
          "ticks": 21024,
          "time": 82.125,
          "velocity": 0.7086614173228346
        },
        {
          "duration": 0.1875,
          "durationTicks": 48,
          "midi": 62,
          "name": "D4",
          "ticks": 21072,
          "time": 82.3125,
          "velocity": 0.6614173228346457
        },
        {
          "duration": 0.0625,
          "durationTicks": 16,
          "midi": 68,
          "name": "G#4",
          "ticks": 21096,
          "time": 82.40625,
          "velocity": 0.6220472440944882
        },
        {
          "duration": 0.0625,
          "durationTicks": 16,
          "midi": 80,
          "name": "G#5",
          "ticks": 21096,
          "time": 82.40625,
          "velocity": 0.6141732283464567
        },
        {
          "duration": 0.0625,
          "durationTicks": 16,
          "midi": 75,
          "name": "D#5",
          "ticks": 21096,
          "time": 82.40625,
          "velocity": 0.7165354330708661
        },
        {
          "duration": 0.15625,
          "durationTicks": 40,
          "midi": 68,
          "name": "G#4",
          "ticks": 21120,
          "time": 82.5,
          "velocity": 0.7007874015748031
        },
        {
          "duration": 0.15625,
          "durationTicks": 40,
          "midi": 80,
          "name": "G#5",
          "ticks": 21120,
          "time": 82.5,
          "velocity": 0.6692913385826772
        },
        {
          "duration": 0.15625,
          "durationTicks": 40,
          "midi": 75,
          "name": "D#5",
          "ticks": 21120,
          "time": 82.5,
          "velocity": 0.6692913385826772
        },
        {
          "duration": 0.375,
          "durationTicks": 96,
          "midi": 51,
          "name": "D#3",
          "ticks": 21120,
          "time": 82.5,
          "velocity": 0.6850393700787402
        },
        {
          "duration": 0.1875,
          "durationTicks": 48,
          "midi": 58,
          "name": "A#3",
          "ticks": 21168,
          "time": 82.6875,
          "velocity": 0.6692913385826772
        },
        {
          "duration": 0.0625,
          "durationTicks": 16,
          "midi": 67,
          "name": "G4",
          "ticks": 21192,
          "time": 82.78125,
          "velocity": 0.6377952755905512
        },
        {
          "duration": 0.0625,
          "durationTicks": 16,
          "midi": 79,
          "name": "G5",
          "ticks": 21192,
          "time": 82.78125,
          "velocity": 0.6456692913385826
        },
        {
          "duration": 0.0625,
          "durationTicks": 16,
          "midi": 75,
          "name": "D#5",
          "ticks": 21192,
          "time": 82.78125,
          "velocity": 0.6456692913385826
        },
        {
          "duration": 0.1875,
          "durationTicks": 48,
          "midi": 63,
          "name": "D#4",
          "ticks": 21216,
          "time": 82.875,
          "velocity": 0.6377952755905512
        },
        {
          "duration": 0.34375,
          "durationTicks": 88,
          "midi": 79,
          "name": "G5",
          "ticks": 21216,
          "time": 82.875,
          "velocity": 0.6220472440944882
        },
        {
          "duration": 0.34375,
          "durationTicks": 88,
          "midi": 75,
          "name": "D#5",
          "ticks": 21216,
          "time": 82.875,
          "velocity": 0.6771653543307087
        },
        {
          "duration": 0.34375,
          "durationTicks": 88,
          "midi": 67,
          "name": "G4",
          "ticks": 21216,
          "time": 82.875,
          "velocity": 0.6220472440944882
        },
        {
          "duration": 0.34375,
          "durationTicks": 88,
          "midi": 67,
          "name": "G4",
          "ticks": 21312,
          "time": 83.25,
          "velocity": 0.6692913385826772
        },
        {
          "duration": 0.34375,
          "durationTicks": 88,
          "midi": 75,
          "name": "D#5",
          "ticks": 21312,
          "time": 83.25,
          "velocity": 0.6692913385826772
        },
        {
          "duration": 0.375,
          "durationTicks": 96,
          "midi": 44,
          "name": "G#2",
          "ticks": 21312,
          "time": 83.25,
          "velocity": 0.6850393700787402
        },
        {
          "duration": 0.1875,
          "durationTicks": 48,
          "midi": 51,
          "name": "D#3",
          "ticks": 21360,
          "time": 83.4375,
          "velocity": 0.5354330708661418
        },
        {
          "duration": 0.1875,
          "durationTicks": 48,
          "midi": 56,
          "name": "G#3",
          "ticks": 21408,
          "time": 83.625,
          "velocity": 0.6141732283464567
        },
        {
          "duration": 0.34375,
          "durationTicks": 88,
          "midi": 79,
          "name": "G5",
          "ticks": 21408,
          "time": 83.625,
          "velocity": 0.6692913385826772
        },
        {
          "duration": 0.1875,
          "durationTicks": 48,
          "midi": 60,
          "name": "C4",
          "ticks": 21456,
          "time": 83.8125,
          "velocity": 0.6929133858267716
        },
        {
          "duration": 0.375,
          "durationTicks": 96,
          "midi": 50,
          "name": "D3",
          "ticks": 21504,
          "time": 84,
          "velocity": 0.6614173228346457
        },
        {
          "duration": 0.21875,
          "durationTicks": 56,
          "midi": 74,
          "name": "D5",
          "ticks": 21504,
          "time": 84,
          "velocity": 0.6377952755905512
        },
        {
          "duration": 0.21875,
          "durationTicks": 56,
          "midi": 79,
          "name": "G5",
          "ticks": 21504,
          "time": 84,
          "velocity": 0.6456692913385826
        },
        {
          "duration": 0.21875,
          "durationTicks": 56,
          "midi": 67,
          "name": "G4",
          "ticks": 21504,
          "time": 84,
          "velocity": 0.6771653543307087
        },
        {
          "duration": 0.1875,
          "durationTicks": 48,
          "midi": 57,
          "name": "A3",
          "ticks": 21552,
          "time": 84.1875,
          "velocity": 0.5905511811023622
        },
        {
          "duration": 0.09375,
          "durationTicks": 24,
          "midi": 78,
          "name": "F#5",
          "ticks": 21576,
          "time": 84.28125,
          "velocity": 0.6850393700787402
        },
        {
          "duration": 0.09375,
          "durationTicks": 24,
          "midi": 66,
          "name": "F#4",
          "ticks": 21576,
          "time": 84.28125,
          "velocity": 0.6850393700787402
        },
        {
          "duration": 0.25,
          "durationTicks": 64,
          "midi": 65,
          "name": "F4",
          "ticks": 21600,
          "time": 84.375,
          "velocity": 0.6614173228346457
        },
        {
          "duration": 0.25,
          "durationTicks": 64,
          "midi": 77,
          "name": "F5",
          "ticks": 21600,
          "time": 84.375,
          "velocity": 0.6771653543307087
        },
        {
          "duration": 0.1875,
          "durationTicks": 48,
          "midi": 62,
          "name": "D4",
          "ticks": 21600,
          "time": 84.375,
          "velocity": 0.6220472440944882
        },
        {
          "duration": 0.375,
          "durationTicks": 96,
          "midi": 43,
          "name": "G2",
          "ticks": 21696,
          "time": 84.75,
          "velocity": 0.6850393700787402
        },
        {
          "duration": 0.25,
          "durationTicks": 64,
          "midi": 74,
          "name": "D5",
          "ticks": 21696,
          "time": 84.75,
          "velocity": 0.6692913385826772
        },
        {
          "duration": 0.25,
          "durationTicks": 64,
          "midi": 62,
          "name": "D4",
          "ticks": 21696,
          "time": 84.75,
          "velocity": 0.6850393700787402
        },
        {
          "duration": 0.1875,
          "durationTicks": 48,
          "midi": 50,
          "name": "D3",
          "ticks": 21744,
          "time": 84.9375,
          "velocity": 0.5748031496062992
        },
        {
          "duration": 0.25,
          "durationTicks": 64,
          "midi": 65,
          "name": "F4",
          "ticks": 21792,
          "time": 85.125,
          "velocity": 0.6850393700787402
        },
        {
          "duration": 0.25,
          "durationTicks": 64,
          "midi": 74,
          "name": "D5",
          "ticks": 21792,
          "time": 85.125,
          "velocity": 0.6535433070866141
        },
        {
          "duration": 0.1875,
          "durationTicks": 48,
          "midi": 55,
          "name": "G3",
          "ticks": 21792,
          "time": 85.125,
          "velocity": 0.6062992125984252
        },
        {
          "duration": 0.1875,
          "durationTicks": 48,
          "midi": 59,
          "name": "B3",
          "ticks": 21840,
          "time": 85.3125,
          "velocity": 0.6377952755905512
        },
        {
          "duration": 0.0625,
          "durationTicks": 16,
          "midi": 75,
          "name": "D#5",
          "ticks": 21864,
          "time": 85.40625,
          "velocity": 0.6850393700787402
        },
        {
          "duration": 0.1875,
          "durationTicks": 48,
          "midi": 74,
          "name": "D5",
          "ticks": 21888,
          "time": 85.5,
          "velocity": 0.6456692913385826
        },
        {
          "duration": 0.1875,
          "durationTicks": 48,
          "midi": 62,
          "name": "D4",
          "ticks": 21888,
          "time": 85.5,
          "velocity": 0.6692913385826772
        },
        {
          "duration": 0.0625,
          "durationTicks": 16,
          "midi": 72,
          "name": "C5",
          "ticks": 21960,
          "time": 85.78125,
          "velocity": 0.6692913385826772
        },
        {
          "duration": 0.0625,
          "durationTicks": 16,
          "midi": 60,
          "name": "C4",
          "ticks": 21960,
          "time": 85.78125,
          "velocity": 0.6692913385826772
        },
        {
          "duration": 0.1875,
          "durationTicks": 48,
          "midi": 60,
          "name": "C4",
          "ticks": 21984,
          "time": 85.875,
          "velocity": 0.6692913385826772
        },
        {
          "duration": 0.1875,
          "durationTicks": 48,
          "midi": 72,
          "name": "C5",
          "ticks": 21984,
          "time": 85.875,
          "velocity": 0.6456692913385826
        },
        {
          "duration": 0.328125,
          "durationTicks": 84,
          "midi": 63,
          "name": "D#4",
          "ticks": 30048,
          "time": 117.375,
          "velocity": 0.7322834645669292
        },
        {
          "duration": 0.328125,
          "durationTicks": 84,
          "midi": 60,
          "name": "C4",
          "ticks": 30048,
          "time": 117.375,
          "velocity": 0.7559055118110236
        },
        {
          "duration": 0.328125,
          "durationTicks": 84,
          "midi": 56,
          "name": "G#3",
          "ticks": 30048,
          "time": 117.375,
          "velocity": 0.7401574803149606
        },
        {
          "duration": 0.515625,
          "durationTicks": 132,
          "midi": 44,
          "name": "G#2",
          "ticks": 30048,
          "time": 117.375,
          "velocity": 0.6220472440944882
        },
        {
          "duration": 0.140625,
          "durationTicks": 36,
          "midi": 51,
          "name": "D#3",
          "ticks": 30096,
          "time": 117.5625,
          "velocity": 0.7401574803149606
        },
        {
          "duration": 0.140625,
          "durationTicks": 36,
          "midi": 56,
          "name": "G#3",
          "ticks": 30144,
          "time": 117.75,
          "velocity": 0.7401574803149606
        },
        {
          "duration": 0.234375,
          "durationTicks": 60,
          "midi": 62,
          "name": "D4",
          "ticks": 30144,
          "time": 117.75,
          "velocity": 0.7401574803149606
        },
        {
          "duration": 0.234375,
          "durationTicks": 60,
          "midi": 60,
          "name": "C4",
          "ticks": 30144,
          "time": 117.75,
          "velocity": 0.7480314960629921
        },
        {
          "duration": 0.140625,
          "durationTicks": 36,
          "midi": 51,
          "name": "D#3",
          "ticks": 30192,
          "time": 117.9375,
          "velocity": 0.7401574803149606
        },
        {
          "duration": 0.09375,
          "durationTicks": 24,
          "midi": 63,
          "name": "D#4",
          "ticks": 30216,
          "time": 118.03125,
          "velocity": 0.7322834645669292
        },
        {
          "duration": 0.5625,
          "durationTicks": 144,
          "midi": 43,
          "name": "G2",
          "ticks": 30240,
          "time": 118.125,
          "velocity": 0.6220472440944882
        },
        {
          "duration": 0.328125,
          "durationTicks": 84,
          "midi": 59,
          "name": "B3",
          "ticks": 30240,
          "time": 118.125,
          "velocity": 0.7559055118110236
        },
        {
          "duration": 0.328125,
          "durationTicks": 84,
          "midi": 62,
          "name": "D4",
          "ticks": 30240,
          "time": 118.125,
          "velocity": 0.7480314960629921
        },
        {
          "duration": 0.328125,
          "durationTicks": 84,
          "midi": 65,
          "name": "F4",
          "ticks": 30240,
          "time": 118.125,
          "velocity": 0.7322834645669292
        },
        {
          "duration": 0.140625,
          "durationTicks": 36,
          "midi": 50,
          "name": "D3",
          "ticks": 30288,
          "time": 118.3125,
          "velocity": 0.7401574803149606
        },
        {
          "duration": 0.140625,
          "durationTicks": 36,
          "midi": 55,
          "name": "G3",
          "ticks": 30336,
          "time": 118.5,
          "velocity": 0.7401574803149606
        },
        {
          "duration": 0.234375,
          "durationTicks": 60,
          "midi": 59,
          "name": "B3",
          "ticks": 30336,
          "time": 118.5,
          "velocity": 0.7244094488188977
        },
        {
          "duration": 0.234375,
          "durationTicks": 60,
          "midi": 62,
          "name": "D4",
          "ticks": 30336,
          "time": 118.5,
          "velocity": 0.7322834645669292
        },
        {
          "duration": 0.140625,
          "durationTicks": 36,
          "midi": 50,
          "name": "D3",
          "ticks": 30384,
          "time": 118.6875,
          "velocity": 0.7401574803149606
        },
        {
          "duration": 0.09375,
          "durationTicks": 24,
          "midi": 65,
          "name": "F4",
          "ticks": 30408,
          "time": 118.78125,
          "velocity": 0.7559055118110236
        },
        {
          "duration": 0.328125,
          "durationTicks": 84,
          "midi": 67,
          "name": "G4",
          "ticks": 30432,
          "time": 118.875,
          "velocity": 0.7244094488188977
        },
        {
          "duration": 0.328125,
          "durationTicks": 84,
          "midi": 63,
          "name": "D#4",
          "ticks": 30432,
          "time": 118.875,
          "velocity": 0.7244094488188977
        },
        {
          "duration": 0.328125,
          "durationTicks": 84,
          "midi": 60,
          "name": "C4",
          "ticks": 30432,
          "time": 118.875,
          "velocity": 0.7559055118110236
        },
        {
          "duration": 0.5625,
          "durationTicks": 144,
          "midi": 48,
          "name": "C3",
          "ticks": 30432,
          "time": 118.875,
          "velocity": 0.6220472440944882
        },
        {
          "duration": 0.140625,
          "durationTicks": 36,
          "midi": 55,
          "name": "G3",
          "ticks": 30480,
          "time": 119.0625,
          "velocity": 0.7401574803149606
        },
        {
          "duration": 0.1875,
          "durationTicks": 48,
          "midi": 60,
          "name": "C4",
          "ticks": 30528,
          "time": 119.25,
          "velocity": 0.7401574803149606
        },
        {
          "duration": 0.140625,
          "durationTicks": 36,
          "midi": 55,
          "name": "G3",
          "ticks": 30576,
          "time": 119.4375,
          "velocity": 0.7401574803149606
        },
        {
          "duration": 0.09375,
          "durationTicks": 24,
          "midi": 67,
          "name": "G4",
          "ticks": 30600,
          "time": 119.53125,
          "velocity": 0.7401574803149606
        },
        {
          "duration": 0.328125,
          "durationTicks": 84,
          "midi": 58,
          "name": "A#3",
          "ticks": 30624,
          "time": 119.625,
          "velocity": 0.7244094488188977
        },
        {
          "duration": 0.328125,
          "durationTicks": 84,
          "midi": 62,
          "name": "D4",
          "ticks": 30624,
          "time": 119.625,
          "velocity": 0.7322834645669292
        },
        {
          "duration": 0.328125,
          "durationTicks": 84,
          "midi": 65,
          "name": "F4",
          "ticks": 30624,
          "time": 119.625,
          "velocity": 0.7480314960629921
        },
        {
          "duration": 0.5625,
          "durationTicks": 144,
          "midi": 46,
          "name": "A#2",
          "ticks": 30624,
          "time": 119.625,
          "velocity": 0.6220472440944882
        },
        {
          "duration": 0.140625,
          "durationTicks": 36,
          "midi": 53,
          "name": "F3",
          "ticks": 30672,
          "time": 119.8125,
          "velocity": 0.7401574803149606
        },
        {
          "duration": 0.328125,
          "durationTicks": 84,
          "midi": 62,
          "name": "D4",
          "ticks": 30720,
          "time": 120,
          "velocity": 0.7322834645669292
        },
        {
          "duration": 0.328125,
          "durationTicks": 84,
          "midi": 65,
          "name": "F4",
          "ticks": 30720,
          "time": 120,
          "velocity": 0.7322834645669292
        },
        {
          "duration": 0.328125,
          "durationTicks": 84,
          "midi": 68,
          "name": "G#4",
          "ticks": 30720,
          "time": 120,
          "velocity": 0.7322834645669292
        },
        {
          "duration": 0.140625,
          "durationTicks": 36,
          "midi": 58,
          "name": "A#3",
          "ticks": 30720,
          "time": 120,
          "velocity": 0.7401574803149606
        },
        {
          "duration": 0.140625,
          "durationTicks": 36,
          "midi": 53,
          "name": "F3",
          "ticks": 30768,
          "time": 120.1875,
          "velocity": 0.7401574803149606
        },
        {
          "duration": 0.5625,
          "durationTicks": 144,
          "midi": 44,
          "name": "G#2",
          "ticks": 30816,
          "time": 120.375,
          "velocity": 0.6220472440944882
        },
        {
          "duration": 0.328125,
          "durationTicks": 84,
          "midi": 68,
          "name": "G#4",
          "ticks": 30816,
          "time": 120.375,
          "velocity": 0.7322834645669292
        },
        {
          "duration": 0.328125,
          "durationTicks": 84,
          "midi": 63,
          "name": "D#4",
          "ticks": 30816,
          "time": 120.375,
          "velocity": 0.7559055118110236
        },
        {
          "duration": 0.328125,
          "durationTicks": 84,
          "midi": 60,
          "name": "C4",
          "ticks": 30816,
          "time": 120.375,
          "velocity": 0.7480314960629921
        },
        {
          "duration": 0.1875,
          "durationTicks": 48,
          "midi": 51,
          "name": "D#3",
          "ticks": 30864,
          "time": 120.5625,
          "velocity": 0.7401574803149606
        },
        {
          "duration": 0.328125,
          "durationTicks": 84,
          "midi": 63,
          "name": "D#4",
          "ticks": 30912,
          "time": 120.75,
          "velocity": 0.7559055118110236
        },
        {
          "duration": 0.328125,
          "durationTicks": 84,
          "midi": 68,
          "name": "G#4",
          "ticks": 30912,
          "time": 120.75,
          "velocity": 0.7401574803149606
        },
        {
          "duration": 0.328125,
          "durationTicks": 84,
          "midi": 72,
          "name": "C5",
          "ticks": 30912,
          "time": 120.75,
          "velocity": 0.7559055118110236
        },
        {
          "duration": 0.1875,
          "durationTicks": 48,
          "midi": 56,
          "name": "G#3",
          "ticks": 30912,
          "time": 120.75,
          "velocity": 0.7401574803149606
        },
        {
          "duration": 0.1875,
          "durationTicks": 48,
          "midi": 51,
          "name": "D#3",
          "ticks": 30960,
          "time": 120.9375,
          "velocity": 0.7401574803149606
        },
        {
          "duration": 0.5625,
          "durationTicks": 144,
          "midi": 46,
          "name": "A#2",
          "ticks": 31008,
          "time": 121.125,
          "velocity": 0.6220472440944882
        },
        {
          "duration": 0.328125,
          "durationTicks": 84,
          "midi": 70,
          "name": "A#4",
          "ticks": 31008,
          "time": 121.125,
          "velocity": 0.7322834645669292
        },
        {
          "duration": 0.328125,
          "durationTicks": 84,
          "midi": 67,
          "name": "G4",
          "ticks": 31008,
          "time": 121.125,
          "velocity": 0.7244094488188977
        },
        {
          "duration": 0.328125,
          "durationTicks": 84,
          "midi": 62,
          "name": "D4",
          "ticks": 31008,
          "time": 121.125,
          "velocity": 0.7401574803149606
        },
        {
          "duration": 0.1875,
          "durationTicks": 48,
          "midi": 50,
          "name": "D3",
          "ticks": 31056,
          "time": 121.3125,
          "velocity": 0.7401574803149606
        },
        {
          "duration": 0.328125,
          "durationTicks": 84,
          "midi": 58,
          "name": "A#3",
          "ticks": 31104,
          "time": 121.5,
          "velocity": 0.7244094488188977
        },
        {
          "duration": 0.328125,
          "durationTicks": 84,
          "midi": 62,
          "name": "D4",
          "ticks": 31104,
          "time": 121.5,
          "velocity": 0.7559055118110236
        },
        {
          "duration": 0.328125,
          "durationTicks": 84,
          "midi": 65,
          "name": "F4",
          "ticks": 31104,
          "time": 121.5,
          "velocity": 0.7244094488188977
        },
        {
          "duration": 0.1875,
          "durationTicks": 48,
          "midi": 53,
          "name": "F3",
          "ticks": 31104,
          "time": 121.5,
          "velocity": 0.7401574803149606
        },
        {
          "duration": 0.1875,
          "durationTicks": 48,
          "midi": 50,
          "name": "D3",
          "ticks": 31152,
          "time": 121.6875,
          "velocity": 0.7401574803149606
        },
        {
          "duration": 0.515625,
          "durationTicks": 132,
          "midi": 51,
          "name": "D#3",
          "ticks": 31200,
          "time": 121.875,
          "velocity": 0.6220472440944882
        },
        {
          "duration": 0.1875,
          "durationTicks": 48,
          "midi": 68,
          "name": "G#4",
          "ticks": 31200,
          "time": 121.875,
          "velocity": 0.7322834645669292
        },
        {
          "duration": 0.1875,
          "durationTicks": 48,
          "midi": 58,
          "name": "A#3",
          "ticks": 31200,
          "time": 121.875,
          "velocity": 0.7401574803149606
        },
        {
          "duration": 0.1875,
          "durationTicks": 48,
          "midi": 63,
          "name": "D#4",
          "ticks": 31200,
          "time": 121.875,
          "velocity": 0.7559055118110236
        },
        {
          "duration": 0.046875,
          "durationTicks": 12,
          "midi": 63,
          "name": "D#4",
          "ticks": 31272,
          "time": 122.15625,
          "velocity": 0.7322834645669292
        },
        {
          "duration": 0.046875,
          "durationTicks": 12,
          "midi": 67,
          "name": "G4",
          "ticks": 31272,
          "time": 122.15625,
          "velocity": 0.7401574803149606
        },
        {
          "duration": 0.046875,
          "durationTicks": 12,
          "midi": 58,
          "name": "A#3",
          "ticks": 31272,
          "time": 122.15625,
          "velocity": 0.7322834645669292
        },
        {
          "duration": 0.1875,
          "durationTicks": 48,
          "midi": 55,
          "name": "G3",
          "ticks": 31296,
          "time": 122.25,
          "velocity": 0.7401574803149606
        },
        {
          "duration": 0.375,
          "durationTicks": 96,
          "midi": 58,
          "name": "A#3",
          "ticks": 31296,
          "time": 122.25,
          "velocity": 0.7559055118110236
        },
        {
          "duration": 0.375,
          "durationTicks": 96,
          "midi": 67,
          "name": "G4",
          "ticks": 31296,
          "time": 122.25,
          "velocity": 0.7322834645669292
        },
        {
          "duration": 0.375,
          "durationTicks": 96,
          "midi": 63,
          "name": "D#4",
          "ticks": 31296,
          "time": 122.25,
          "velocity": 0.7559055118110236
        },
        {
          "duration": 0.515625,
          "durationTicks": 132,
          "midi": 50,
          "name": "D3",
          "ticks": 31392,
          "time": 122.625,
          "velocity": 0.6220472440944882
        },
        {
          "duration": 0.046875,
          "durationTicks": 12,
          "midi": 70,
          "name": "A#4",
          "ticks": 31464,
          "time": 122.90625,
          "velocity": 0.7322834645669292
        },
        {
          "duration": 0.046875,
          "durationTicks": 12,
          "midi": 63,
          "name": "D#4",
          "ticks": 31464,
          "time": 122.90625,
          "velocity": 0.7322834645669292
        },
        {
          "duration": 0.046875,
          "durationTicks": 12,
          "midi": 67,
          "name": "G4",
          "ticks": 31464,
          "time": 122.90625,
          "velocity": 0.7401574803149606
        },
        {
          "duration": 0.1875,
          "durationTicks": 48,
          "midi": 67,
          "name": "G4",
          "ticks": 31488,
          "time": 123,
          "velocity": 0.7480314960629921
        },
        {
          "duration": 0.1875,
          "durationTicks": 48,
          "midi": 70,
          "name": "A#4",
          "ticks": 31488,
          "time": 123,
          "velocity": 0.7480314960629921
        },
        {
          "duration": 0.1875,
          "durationTicks": 48,
          "midi": 63,
          "name": "D#4",
          "ticks": 31488,
          "time": 123,
          "velocity": 0.7559055118110236
        },
        {
          "duration": 0.046875,
          "durationTicks": 12,
          "midi": 67,
          "name": "G4",
          "ticks": 31560,
          "time": 123.28125,
          "velocity": 0.7322834645669292
        },
        {
          "duration": 0.046875,
          "durationTicks": 12,
          "midi": 63,
          "name": "D#4",
          "ticks": 31560,
          "time": 123.28125,
          "velocity": 0.7559055118110236
        },
        {
          "duration": 0.046875,
          "durationTicks": 12,
          "midi": 70,
          "name": "A#4",
          "ticks": 31560,
          "time": 123.28125,
          "velocity": 0.7401574803149606
        },
        {
          "duration": 0.5625,
          "durationTicks": 144,
          "midi": 41,
          "name": "F2",
          "ticks": 31584,
          "time": 123.375,
          "velocity": 0.6220472440944882
        },
        {
          "duration": 0.328125,
          "durationTicks": 84,
          "midi": 68,
          "name": "G#4",
          "ticks": 31584,
          "time": 123.375,
          "velocity": 0.7480314960629921
        },
        {
          "duration": 0.328125,
          "durationTicks": 84,
          "midi": 72,
          "name": "C5",
          "ticks": 31584,
          "time": 123.375,
          "velocity": 0.7480314960629921
        },
        {
          "duration": 0.328125,
          "durationTicks": 84,
          "midi": 65,
          "name": "F4",
          "ticks": 31584,
          "time": 123.375,
          "velocity": 0.7322834645669292
        },
        {
          "duration": 0.1875,
          "durationTicks": 48,
          "midi": 48,
          "name": "C3",
          "ticks": 31632,
          "time": 123.5625,
          "velocity": 0.7401574803149606
        },
        {
          "duration": 0.140625,
          "durationTicks": 36,
          "midi": 77,
          "name": "F5",
          "ticks": 31680,
          "time": 123.75,
          "velocity": 0.7244094488188977
        },
        {
          "duration": 0.140625,
          "durationTicks": 36,
          "midi": 72,
          "name": "C5",
          "ticks": 31680,
          "time": 123.75,
          "velocity": 0.7244094488188977
        },
        {
          "duration": 0.140625,
          "durationTicks": 36,
          "midi": 80,
          "name": "G#5",
          "ticks": 31680,
          "time": 123.75,
          "velocity": 0.7559055118110236
        },
        {
          "duration": 0.1875,
          "durationTicks": 48,
          "midi": 53,
          "name": "F3",
          "ticks": 31680,
          "time": 123.75,
          "velocity": 0.7401574803149606
        },
        {
          "duration": 0.1875,
          "durationTicks": 48,
          "midi": 48,
          "name": "C3",
          "ticks": 31728,
          "time": 123.9375,
          "velocity": 0.7401574803149606
        },
        {
          "duration": 0.046875,
          "durationTicks": 12,
          "midi": 77,
          "name": "F5",
          "ticks": 31752,
          "time": 124.03125,
          "velocity": 0.7322834645669292
        },
        {
          "duration": 0.046875,
          "durationTicks": 12,
          "midi": 72,
          "name": "C5",
          "ticks": 31752,
          "time": 124.03125,
          "velocity": 0.7244094488188977
        },
        {
          "duration": 0.046875,
          "durationTicks": 12,
          "midi": 80,
          "name": "G#5",
          "ticks": 31752,
          "time": 124.03125,
          "velocity": 0.7244094488188977
        },
        {
          "duration": 0.1875,
          "durationTicks": 48,
          "midi": 70,
          "name": "A#4",
          "ticks": 31776,
          "time": 124.125,
          "velocity": 0.7559055118110236
        },
        {
          "duration": 0.1875,
          "durationTicks": 48,
          "midi": 74,
          "name": "D5",
          "ticks": 31776,
          "time": 124.125,
          "velocity": 0.7244094488188977
        },
        {
          "duration": 0.1875,
          "durationTicks": 48,
          "midi": 77,
          "name": "F5",
          "ticks": 31776,
          "time": 124.125,
          "velocity": 0.7322834645669292
        },
        {
          "duration": 0.515625,
          "durationTicks": 132,
          "midi": 46,
          "name": "A#2",
          "ticks": 31776,
          "time": 124.125,
          "velocity": 0.6220472440944882
        },
        {
          "duration": 0.1875,
          "durationTicks": 48,
          "midi": 53,
          "name": "F3",
          "ticks": 31824,
          "time": 124.3125,
          "velocity": 0.7401574803149606
        },
        {
          "duration": 0.046875,
          "durationTicks": 12,
          "midi": 65,
          "name": "F4",
          "ticks": 31848,
          "time": 124.40625,
          "velocity": 0.7480314960629921
        },
        {
          "duration": 0.046875,
          "durationTicks": 12,
          "midi": 62,
          "name": "D4",
          "ticks": 31848,
          "time": 124.40625,
          "velocity": 0.7480314960629921
        },
        {
          "duration": 0.046875,
          "durationTicks": 12,
          "midi": 68,
          "name": "G#4",
          "ticks": 31848,
          "time": 124.40625,
          "velocity": 0.7480314960629921
        },
        {
          "duration": 0.1875,
          "durationTicks": 48,
          "midi": 58,
          "name": "A#3",
          "ticks": 31872,
          "time": 124.5,
          "velocity": 0.7401574803149606
        },
        {
          "duration": 0.1875,
          "durationTicks": 48,
          "midi": 68,
          "name": "G#4",
          "ticks": 31872,
          "time": 124.5,
          "velocity": 0.7401574803149606
        },
        {
          "duration": 0.1875,
          "durationTicks": 48,
          "midi": 62,
          "name": "D4",
          "ticks": 31872,
          "time": 124.5,
          "velocity": 0.7244094488188977
        },
        {
          "duration": 0.1875,
          "durationTicks": 48,
          "midi": 65,
          "name": "F4",
          "ticks": 31872,
          "time": 124.5,
          "velocity": 0.7322834645669292
        },
        {
          "duration": 0.1875,
          "durationTicks": 48,
          "midi": 53,
          "name": "F3",
          "ticks": 31920,
          "time": 124.6875,
          "velocity": 0.7401574803149606
        },
        {
          "duration": 0.046875,
          "durationTicks": 12,
          "midi": 62,
          "name": "D4",
          "ticks": 31944,
          "time": 124.78125,
          "velocity": 0.7559055118110236
        },
        {
          "duration": 0.046875,
          "durationTicks": 12,
          "midi": 65,
          "name": "F4",
          "ticks": 31944,
          "time": 124.78125,
          "velocity": 0.7559055118110236
        },
        {
          "duration": 0.046875,
          "durationTicks": 12,
          "midi": 68,
          "name": "G#4",
          "ticks": 31944,
          "time": 124.78125,
          "velocity": 0.7559055118110236
        },
        {
          "duration": 0.515625,
          "durationTicks": 132,
          "midi": 39,
          "name": "D#2",
          "ticks": 31968,
          "time": 124.875,
          "velocity": 0.6220472440944882
        },
        {
          "duration": 0.1875,
          "durationTicks": 48,
          "midi": 63,
          "name": "D#4",
          "ticks": 31968,
          "time": 124.875,
          "velocity": 0.7401574803149606
        },
        {
          "duration": 0.1875,
          "durationTicks": 48,
          "midi": 67,
          "name": "G4",
          "ticks": 31968,
          "time": 124.875,
          "velocity": 0.7480314960629921
        },
        {
          "duration": 0.1875,
          "durationTicks": 48,
          "midi": 70,
          "name": "A#4",
          "ticks": 31968,
          "time": 124.875,
          "velocity": 0.7322834645669292
        },
        {
          "duration": 0.1875,
          "durationTicks": 48,
          "midi": 46,
          "name": "A#2",
          "ticks": 32016,
          "time": 125.0625,
          "velocity": 0.7401574803149606
        },
        {
          "duration": 0.046875,
          "durationTicks": 12,
          "midi": 70,
          "name": "A#4",
          "ticks": 32040,
          "time": 125.15625,
          "velocity": 0.7559055118110236
        },
        {
          "duration": 0.046875,
          "durationTicks": 12,
          "midi": 75,
          "name": "D#5",
          "ticks": 32040,
          "time": 125.15625,
          "velocity": 0.7480314960629921
        },
        {
          "duration": 0.046875,
          "durationTicks": 12,
          "midi": 79,
          "name": "G5",
          "ticks": 32040,
          "time": 125.15625,
          "velocity": 0.7559055118110236
        },
        {
          "duration": 0.1875,
          "durationTicks": 48,
          "midi": 79,
          "name": "G5",
          "ticks": 32064,
          "time": 125.25,
          "velocity": 0.7559055118110236
        },
        {
          "duration": 0.1875,
          "durationTicks": 48,
          "midi": 75,
          "name": "D#5",
          "ticks": 32064,
          "time": 125.25,
          "velocity": 0.7480314960629921
        },
        {
          "duration": 0.1875,
          "durationTicks": 48,
          "midi": 70,
          "name": "A#4",
          "ticks": 32064,
          "time": 125.25,
          "velocity": 0.7322834645669292
        },
        {
          "duration": 0.1875,
          "durationTicks": 48,
          "midi": 51,
          "name": "D#3",
          "ticks": 32064,
          "time": 125.25,
          "velocity": 0.7401574803149606
        },
        {
          "duration": 0.1875,
          "durationTicks": 48,
          "midi": 46,
          "name": "A#2",
          "ticks": 32112,
          "time": 125.4375,
          "velocity": 0.7401574803149606
        },
        {
          "duration": 0.046875,
          "durationTicks": 12,
          "midi": 70,
          "name": "A#4",
          "ticks": 32136,
          "time": 125.53125,
          "velocity": 0.7559055118110236
        },
        {
          "duration": 0.046875,
          "durationTicks": 12,
          "midi": 75,
          "name": "D#5",
          "ticks": 32136,
          "time": 125.53125,
          "velocity": 0.7244094488188977
        },
        {
          "duration": 0.046875,
          "durationTicks": 12,
          "midi": 79,
          "name": "G5",
          "ticks": 32136,
          "time": 125.53125,
          "velocity": 0.7559055118110236
        },
        {
          "duration": 0.1875,
          "durationTicks": 48,
          "midi": 72,
          "name": "C5",
          "ticks": 32160,
          "time": 125.625,
          "velocity": 0.7401574803149606
        },
        {
          "duration": 0.1875,
          "durationTicks": 48,
          "midi": 68,
          "name": "G#4",
          "ticks": 32160,
          "time": 125.625,
          "velocity": 0.7244094488188977
        },
        {
          "duration": 0.515625,
          "durationTicks": 132,
          "midi": 44,
          "name": "G#2",
          "ticks": 32160,
          "time": 125.625,
          "velocity": 0.6220472440944882
        },
        {
          "duration": 0.1875,
          "durationTicks": 48,
          "midi": 51,
          "name": "D#3",
          "ticks": 32208,
          "time": 125.8125,
          "velocity": 0.7401574803149606
        },
        {
          "duration": 0.1875,
          "durationTicks": 48,
          "midi": 56,
          "name": "G#3",
          "ticks": 32256,
          "time": 126,
          "velocity": 0.7401574803149606
        },
        {
          "duration": 0.1875,
          "durationTicks": 48,
          "midi": 72,
          "name": "C5",
          "ticks": 32256,
          "time": 126,
          "velocity": 0.7480314960629921
        },
        {
          "duration": 0.1875,
          "durationTicks": 48,
          "midi": 60,
          "name": "C4",
          "ticks": 32256,
          "time": 126,
          "velocity": 0.7401574803149606
        },
        {
          "duration": 0.1875,
          "durationTicks": 48,
          "midi": 51,
          "name": "D#3",
          "ticks": 32304,
          "time": 126.1875,
          "velocity": 0.7401574803149606
        },
        {
          "duration": 0.09375,
          "durationTicks": 24,
          "midi": 61,
          "name": "C#4",
          "ticks": 32328,
          "time": 126.28125,
          "velocity": 0.7480314960629921
        },
        {
          "duration": 0.09375,
          "durationTicks": 24,
          "midi": 73,
          "name": "C#5",
          "ticks": 32328,
          "time": 126.28125,
          "velocity": 0.7322834645669292
        },
        {
          "duration": 0.515625,
          "durationTicks": 132,
          "midi": 38,
          "name": "D2",
          "ticks": 32352,
          "time": 126.375,
          "velocity": 0.6220472440944882
        },
        {
          "duration": 0.375,
          "durationTicks": 96,
          "midi": 74,
          "name": "D5",
          "ticks": 32352,
          "time": 126.375,
          "velocity": 0.7322834645669292
        },
        {
          "duration": 0.375,
          "durationTicks": 96,
          "midi": 62,
          "name": "D4",
          "ticks": 32352,
          "time": 126.375,
          "velocity": 0.7244094488188977
        },
        {
          "duration": 0.1875,
          "durationTicks": 48,
          "midi": 45,
          "name": "A2",
          "ticks": 32400,
          "time": 126.5625,
          "velocity": 0.7401574803149606
        },
        {
          "duration": 0.1875,
          "durationTicks": 48,
          "midi": 50,
          "name": "D3",
          "ticks": 32448,
          "time": 126.75,
          "velocity": 0.7401574803149606
        },
        {
          "duration": 0.375,
          "durationTicks": 96,
          "midi": 75,
          "name": "D#5",
          "ticks": 32448,
          "time": 126.75,
          "velocity": 0.7480314960629921
        },
        {
          "duration": 0.375,
          "durationTicks": 96,
          "midi": 87,
          "name": "D#6",
          "ticks": 32449,
          "time": 126.75390625,
          "velocity": 0.7165354330708661
        },
        {
          "duration": 0.1875,
          "durationTicks": 48,
          "midi": 54,
          "name": "F#3",
          "ticks": 32496,
          "time": 126.9375,
          "velocity": 0.7401574803149606
        },
        {
          "duration": 0.1875,
          "durationTicks": 48,
          "midi": 54,
          "name": "F#3",
          "ticks": 32544,
          "time": 127.125,
          "velocity": 0.7401574803149606
        },
        {
          "duration": 0.375,
          "durationTicks": 96,
          "midi": 74,
          "name": "D5",
          "ticks": 32544,
          "time": 127.125,
          "velocity": 0.7322834645669292
        },
        {
          "duration": 0.375,
          "durationTicks": 96,
          "midi": 86,
          "name": "D6",
          "ticks": 32545,
          "time": 127.12890625,
          "velocity": 0.7244094488188977
        },
        {
          "duration": 0.1875,
          "durationTicks": 48,
          "midi": 50,
          "name": "D3",
          "ticks": 32592,
          "time": 127.3125,
          "velocity": 0.7401574803149606
        },
        {
          "duration": 0.1875,
          "durationTicks": 48,
          "midi": 45,
          "name": "A2",
          "ticks": 32640,
          "time": 127.5,
          "velocity": 0.7401574803149606
        },
        {
          "duration": 0.375,
          "durationTicks": 96,
          "midi": 69,
          "name": "A4",
          "ticks": 32640,
          "time": 127.5,
          "velocity": 0.7322834645669292
        },
        {
          "duration": 0.375,
          "durationTicks": 96,
          "midi": 81,
          "name": "A5",
          "ticks": 32641,
          "time": 127.50390625,
          "velocity": 0.7244094488188977
        },
        {
          "duration": 0.5625,
          "durationTicks": 144,
          "midi": 43,
          "name": "G2",
          "ticks": 32736,
          "time": 127.875,
          "velocity": 0.6220472440944882
        },
        {
          "duration": 0.1875,
          "durationTicks": 48,
          "midi": 59,
          "name": "B3",
          "ticks": 32736,
          "time": 127.875,
          "velocity": 0.7480314960629921
        },
        {
          "duration": 0.1875,
          "durationTicks": 48,
          "midi": 62,
          "name": "D4",
          "ticks": 32736,
          "time": 127.875,
          "velocity": 0.7559055118110236
        },
        {
          "duration": 0.1875,
          "durationTicks": 48,
          "midi": 67,
          "name": "G4",
          "ticks": 32736,
          "time": 127.875,
          "velocity": 0.7559055118110236
        },
        {
          "duration": 0.046875,
          "durationTicks": 12,
          "midi": 87,
          "name": "D#6",
          "ticks": 32808,
          "time": 128.15625,
          "velocity": 0.7480314960629921
        },
        {
          "duration": 0.046875,
          "durationTicks": 12,
          "midi": 79,
          "name": "G5",
          "ticks": 32808,
          "time": 128.15625,
          "velocity": 0.7322834645669292
        },
        {
          "duration": 0.046875,
          "durationTicks": 12,
          "midi": 75,
          "name": "D#5",
          "ticks": 32808,
          "time": 128.15625,
          "velocity": 0.7559055118110236
        },
        {
          "duration": 0.1875,
          "durationTicks": 48,
          "midi": 79,
          "name": "G5",
          "ticks": 32832,
          "time": 128.25,
          "velocity": 0.7244094488188977
        },
        {
          "duration": 0.1875,
          "durationTicks": 48,
          "midi": 75,
          "name": "D#5",
          "ticks": 32832,
          "time": 128.25,
          "velocity": 0.7244094488188977
        },
        {
          "duration": 0.1875,
          "durationTicks": 48,
          "midi": 87,
          "name": "D#6",
          "ticks": 32832,
          "time": 128.25,
          "velocity": 0.7165354330708661
        },
        {
          "duration": 0.046875,
          "durationTicks": 12,
          "midi": 74,
          "name": "D5",
          "ticks": 32904,
          "time": 128.53125,
          "velocity": 0.7559055118110236
        },
        {
          "duration": 0.046875,
          "durationTicks": 12,
          "midi": 86,
          "name": "D6",
          "ticks": 32904,
          "time": 128.53125,
          "velocity": 0.7165354330708661
        },
        {
          "duration": 0.046875,
          "durationTicks": 12,
          "midi": 79,
          "name": "G5",
          "ticks": 32904,
          "time": 128.53125,
          "velocity": 0.7559055118110236
        },
        {
          "duration": 0.1875,
          "durationTicks": 48,
          "midi": 79,
          "name": "G5",
          "ticks": 32928,
          "time": 128.625,
          "velocity": 0.7480314960629921
        },
        {
          "duration": 0.1875,
          "durationTicks": 48,
          "midi": 86,
          "name": "D6",
          "ticks": 32928,
          "time": 128.625,
          "velocity": 0.7480314960629921
        },
        {
          "duration": 0.1875,
          "durationTicks": 48,
          "midi": 74,
          "name": "D5",
          "ticks": 32928,
          "time": 128.625,
          "velocity": 0.7244094488188977
        },
        {
          "duration": 0.046875,
          "durationTicks": 12,
          "midi": 74,
          "name": "D5",
          "ticks": 33000,
          "time": 128.90625,
          "velocity": 0.7322834645669292
        },
        {
          "duration": 0.046875,
          "durationTicks": 12,
          "midi": 83,
          "name": "B5",
          "ticks": 33000,
          "time": 128.90625,
          "velocity": 0.7322834645669292
        },
        {
          "duration": 0.046875,
          "durationTicks": 12,
          "midi": 71,
          "name": "B4",
          "ticks": 33000,
          "time": 128.90625,
          "velocity": 0.7322834645669292
        },
        {
          "duration": 0.1875,
          "durationTicks": 48,
          "midi": 83,
          "name": "B5",
          "ticks": 33024,
          "time": 129,
          "velocity": 0.7322834645669292
        },
        {
          "duration": 0.1875,
          "durationTicks": 48,
          "midi": 71,
          "name": "B4",
          "ticks": 33024,
          "time": 129,
          "velocity": 0.7244094488188977
        },
        {
          "duration": 0.1875,
          "durationTicks": 48,
          "midi": 74,
          "name": "D5",
          "ticks": 33024,
          "time": 129,
          "velocity": 0.7559055118110236
        },
        {
          "duration": 0.328125,
          "durationTicks": 84,
          "midi": 56,
          "name": "G#3",
          "ticks": 33120,
          "time": 129.375,
          "velocity": 0.7401574803149606
        },
        {
          "duration": 0.328125,
          "durationTicks": 84,
          "midi": 60,
          "name": "C4",
          "ticks": 33120,
          "time": 129.375,
          "velocity": 0.7559055118110236
        },
        {
          "duration": 0.328125,
          "durationTicks": 84,
          "midi": 63,
          "name": "D#4",
          "ticks": 33120,
          "time": 129.375,
          "velocity": 0.7244094488188977
        },
        {
          "duration": 0.515625,
          "durationTicks": 132,
          "midi": 44,
          "name": "G#2",
          "ticks": 33120,
          "time": 129.375,
          "velocity": 0.6220472440944882
        },
        {
          "duration": 0.140625,
          "durationTicks": 36,
          "midi": 51,
          "name": "D#3",
          "ticks": 33168,
          "time": 129.5625,
          "velocity": 0.7401574803149606
        },
        {
          "duration": 0.234375,
          "durationTicks": 60,
          "midi": 60,
          "name": "C4",
          "ticks": 33216,
          "time": 129.75,
          "velocity": 0.7401574803149606
        },
        {
          "duration": 0.234375,
          "durationTicks": 60,
          "midi": 62,
          "name": "D4",
          "ticks": 33216,
          "time": 129.75,
          "velocity": 0.7480314960629921
        },
        {
          "duration": 0.140625,
          "durationTicks": 36,
          "midi": 56,
          "name": "G#3",
          "ticks": 33216,
          "time": 129.75,
          "velocity": 0.7401574803149606
        },
        {
          "duration": 0.140625,
          "durationTicks": 36,
          "midi": 51,
          "name": "D#3",
          "ticks": 33264,
          "time": 129.9375,
          "velocity": 0.7401574803149606
        },
        {
          "duration": 0.09375,
          "durationTicks": 24,
          "midi": 63,
          "name": "D#4",
          "ticks": 33288,
          "time": 130.03125,
          "velocity": 0.7559055118110236
        },
        {
          "duration": 0.328125,
          "durationTicks": 84,
          "midi": 65,
          "name": "F4",
          "ticks": 33312,
          "time": 130.125,
          "velocity": 0.7559055118110236
        },
        {
          "duration": 0.328125,
          "durationTicks": 84,
          "midi": 62,
          "name": "D4",
          "ticks": 33312,
          "time": 130.125,
          "velocity": 0.7480314960629921
        },
        {
          "duration": 0.328125,
          "durationTicks": 84,
          "midi": 59,
          "name": "B3",
          "ticks": 33312,
          "time": 130.125,
          "velocity": 0.7322834645669292
        },
        {
          "duration": 0.5625,
          "durationTicks": 144,
          "midi": 43,
          "name": "G2",
          "ticks": 33312,
          "time": 130.125,
          "velocity": 0.6220472440944882
        },
        {
          "duration": 0.140625,
          "durationTicks": 36,
          "midi": 50,
          "name": "D3",
          "ticks": 33360,
          "time": 130.3125,
          "velocity": 0.7401574803149606
        },
        {
          "duration": 0.140625,
          "durationTicks": 36,
          "midi": 55,
          "name": "G3",
          "ticks": 33408,
          "time": 130.5,
          "velocity": 0.7401574803149606
        },
        {
          "duration": 0.234375,
          "durationTicks": 60,
          "midi": 59,
          "name": "B3",
          "ticks": 33408,
          "time": 130.5,
          "velocity": 0.7244094488188977
        },
        {
          "duration": 0.234375,
          "durationTicks": 60,
          "midi": 62,
          "name": "D4",
          "ticks": 33408,
          "time": 130.5,
          "velocity": 0.7322834645669292
        },
        {
          "duration": 0.140625,
          "durationTicks": 36,
          "midi": 50,
          "name": "D3",
          "ticks": 33456,
          "time": 130.6875,
          "velocity": 0.7401574803149606
        },
        {
          "duration": 0.09375,
          "durationTicks": 24,
          "midi": 65,
          "name": "F4",
          "ticks": 33480,
          "time": 130.78125,
          "velocity": 0.7480314960629921
        },
        {
          "duration": 0.328125,
          "durationTicks": 84,
          "midi": 67,
          "name": "G4",
          "ticks": 33504,
          "time": 130.875,
          "velocity": 0.7244094488188977
        },
        {
          "duration": 0.328125,
          "durationTicks": 84,
          "midi": 63,
          "name": "D#4",
          "ticks": 33504,
          "time": 130.875,
          "velocity": 0.7244094488188977
        },
        {
          "duration": 0.328125,
          "durationTicks": 84,
          "midi": 60,
          "name": "C4",
          "ticks": 33504,
          "time": 130.875,
          "velocity": 0.7559055118110236
        },
        {
          "duration": 0.5625,
          "durationTicks": 144,
          "midi": 48,
          "name": "C3",
          "ticks": 33504,
          "time": 130.875,
          "velocity": 0.6220472440944882
        },
        {
          "duration": 0.140625,
          "durationTicks": 36,
          "midi": 55,
          "name": "G3",
          "ticks": 33552,
          "time": 131.0625,
          "velocity": 0.7401574803149606
        },
        {
          "duration": 0.1875,
          "durationTicks": 48,
          "midi": 60,
          "name": "C4",
          "ticks": 33600,
          "time": 131.25,
          "velocity": 0.7322834645669292
        },
        {
          "duration": 0.046875,
          "durationTicks": 12,
          "midi": 87,
          "name": "D#6",
          "ticks": 33648,
          "time": 131.4375,
          "velocity": 0.7322834645669292
        },
        {
          "duration": 0.046875,
          "durationTicks": 12,
          "midi": 75,
          "name": "D#5",
          "ticks": 33648,
          "time": 131.4375,
          "velocity": 0.7322834645669292
        },
        {
          "duration": 0.140625,
          "durationTicks": 36,
          "midi": 55,
          "name": "G3",
          "ticks": 33648,
          "time": 131.4375,
          "velocity": 0.7401574803149606
        },
        {
          "duration": 0.046875,
          "durationTicks": 12,
          "midi": 87,
          "name": "D#6",
          "ticks": 33672,
          "time": 131.53125,
          "velocity": 0.7322834645669292
        },
        {
          "duration": 0.046875,
          "durationTicks": 12,
          "midi": 75,
          "name": "D#5",
          "ticks": 33672,
          "time": 131.53125,
          "velocity": 0.7322834645669292
        },
        {
          "duration": 0.5625,
          "durationTicks": 144,
          "midi": 46,
          "name": "A#2",
          "ticks": 33696,
          "time": 131.625,
          "velocity": 0.6220472440944882
        },
        {
          "duration": 0.1875,
          "durationTicks": 48,
          "midi": 75,
          "name": "D#5",
          "ticks": 33696,
          "time": 131.625,
          "velocity": 0.7322834645669292
        },
        {
          "duration": 0.1875,
          "durationTicks": 48,
          "midi": 87,
          "name": "D#6",
          "ticks": 33696,
          "time": 131.625,
          "velocity": 0.7322834645669292
        },
        {
          "duration": 0.140625,
          "durationTicks": 36,
          "midi": 53,
          "name": "F3",
          "ticks": 33744,
          "time": 131.8125,
          "velocity": 0.7401574803149606
        },
        {
          "duration": 0.1875,
          "durationTicks": 48,
          "midi": 77,
          "name": "F5",
          "ticks": 33768,
          "time": 131.90625,
          "velocity": 0.7322834645669292
        },
        {
          "duration": 0.1875,
          "durationTicks": 48,
          "midi": 89,
          "name": "F6",
          "ticks": 33768,
          "time": 131.90625,
          "velocity": 0.7322834645669292
        },
        {
          "duration": 0.140625,
          "durationTicks": 36,
          "midi": 62,
          "name": "D4",
          "ticks": 33792,
          "time": 132,
          "velocity": 0.7401574803149606
        },
        {
          "duration": 0.140625,
          "durationTicks": 36,
          "midi": 53,
          "name": "F3",
          "ticks": 33840,
          "time": 132.1875,
          "velocity": 0.7401574803149606
        },
        {
          "duration": 0.1875,
          "durationTicks": 48,
          "midi": 91,
          "name": "G6",
          "ticks": 33840,
          "time": 132.1875,
          "velocity": 0.7322834645669292
        },
        {
          "duration": 0.1875,
          "durationTicks": 48,
          "midi": 79,
          "name": "G5",
          "ticks": 33840,
          "time": 132.1875,
          "velocity": 0.7322834645669292
        },
        {
          "duration": 0.1875,
          "durationTicks": 48,
          "midi": 80,
          "name": "G#5",
          "ticks": 33888,
          "time": 132.375,
          "velocity": 0.7322834645669292
        },
        {
          "duration": 0.1875,
          "durationTicks": 48,
          "midi": 92,
          "name": "G#6",
          "ticks": 33888,
          "time": 132.375,
          "velocity": 0.7322834645669292
        },
        {
          "duration": 0.5625,
          "durationTicks": 144,
          "midi": 44,
          "name": "G#2",
          "ticks": 33888,
          "time": 132.375,
          "velocity": 0.6220472440944882
        },
        {
          "duration": 0.1875,
          "durationTicks": 48,
          "midi": 51,
          "name": "D#3",
          "ticks": 33936,
          "time": 132.5625,
          "velocity": 0.7401574803149606
        },
        {
          "duration": 0.140625,
          "durationTicks": 36,
          "midi": 56,
          "name": "G#3",
          "ticks": 33984,
          "time": 132.75,
          "velocity": 0.7401574803149606
        },
        {
          "duration": 0.328125,
          "durationTicks": 84,
          "midi": 63,
          "name": "D#4",
          "ticks": 33984,
          "time": 132.75,
          "velocity": 0.7480314960629921
        },
        {
          "duration": 0.328125,
          "durationTicks": 84,
          "midi": 68,
          "name": "G#4",
          "ticks": 33984,
          "time": 132.75,
          "velocity": 0.7401574803149606
        },
        {
          "duration": 0.328125,
          "durationTicks": 84,
          "midi": 72,
          "name": "C5",
          "ticks": 33984,
          "time": 132.75,
          "velocity": 0.7480314960629921
        },
        {
          "duration": 0.1875,
          "durationTicks": 48,
          "midi": 51,
          "name": "D#3",
          "ticks": 34032,
          "time": 132.9375,
          "velocity": 0.7401574803149606
        },
        {
          "duration": 0.5625,
          "durationTicks": 144,
          "midi": 46,
          "name": "A#2",
          "ticks": 34080,
          "time": 133.125,
          "velocity": 0.6220472440944882
        },
        {
          "duration": 0.328125,
          "durationTicks": 84,
          "midi": 67,
          "name": "G4",
          "ticks": 34080,
          "time": 133.125,
          "velocity": 0.7322834645669292
        },
        {
          "duration": 0.328125,
          "durationTicks": 84,
          "midi": 70,
          "name": "A#4",
          "ticks": 34080,
          "time": 133.125,
          "velocity": 0.7559055118110236
        },
        {
          "duration": 0.328125,
          "durationTicks": 84,
          "midi": 74,
          "name": "D5",
          "ticks": 34080,
          "time": 133.125,
          "velocity": 0.7480314960629921
        },
        {
          "duration": 0.1875,
          "durationTicks": 48,
          "midi": 50,
          "name": "D3",
          "ticks": 34128,
          "time": 133.3125,
          "velocity": 0.7401574803149606
        },
        {
          "duration": 0.1875,
          "durationTicks": 48,
          "midi": 53,
          "name": "F3",
          "ticks": 34176,
          "time": 133.5,
          "velocity": 0.7401574803149606
        },
        {
          "duration": 0.328125,
          "durationTicks": 84,
          "midi": 77,
          "name": "F5",
          "ticks": 34176,
          "time": 133.5,
          "velocity": 0.7322834645669292
        },
        {
          "duration": 0.328125,
          "durationTicks": 84,
          "midi": 74,
          "name": "D5",
          "ticks": 34176,
          "time": 133.5,
          "velocity": 0.7401574803149606
        },
        {
          "duration": 0.328125,
          "durationTicks": 84,
          "midi": 70,
          "name": "A#4",
          "ticks": 34176,
          "time": 133.5,
          "velocity": 0.7322834645669292
        },
        {
          "duration": 0.1875,
          "durationTicks": 48,
          "midi": 50,
          "name": "D3",
          "ticks": 34224,
          "time": 133.6875,
          "velocity": 0.7401574803149606
        },
        {
          "duration": 0.5625,
          "durationTicks": 144,
          "midi": 51,
          "name": "D#3",
          "ticks": 34272,
          "time": 133.875,
          "velocity": 0.6220472440944882
        },
        {
          "duration": 0.1875,
          "durationTicks": 48,
          "midi": 70,
          "name": "A#4",
          "ticks": 34272,
          "time": 133.875,
          "velocity": 0.7322834645669292
        },
        {
          "duration": 0.1875,
          "durationTicks": 48,
          "midi": 77,
          "name": "F5",
          "ticks": 34272,
          "time": 133.875,
          "velocity": 0.7480314960629921
        },
        {
          "duration": 0.1875,
          "durationTicks": 48,
          "midi": 67,
          "name": "G4",
          "ticks": 34272,
          "time": 133.875,
          "velocity": 0.7322834645669292
        },
        {
          "duration": 0.046875,
          "durationTicks": 12,
          "midi": 70,
          "name": "A#4",
          "ticks": 34344,
          "time": 134.15625,
          "velocity": 0.7559055118110236
        },
        {
          "duration": 0.046875,
          "durationTicks": 12,
          "midi": 67,
          "name": "G4",
          "ticks": 34344,
          "time": 134.15625,
          "velocity": 0.7559055118110236
        },
        {
          "duration": 0.046875,
          "durationTicks": 12,
          "midi": 75,
          "name": "D#5",
          "ticks": 34344,
          "time": 134.15625,
          "velocity": 0.7480314960629921
        },
        {
          "duration": 0.234375,
          "durationTicks": 60,
          "midi": 75,
          "name": "D#5",
          "ticks": 34368,
          "time": 134.25,
          "velocity": 0.7401574803149606
        },
        {
          "duration": 0.234375,
          "durationTicks": 60,
          "midi": 67,
          "name": "G4",
          "ticks": 34368,
          "time": 134.25,
          "velocity": 0.7244094488188977
        },
        {
          "duration": 0.234375,
          "durationTicks": 60,
          "midi": 70,
          "name": "A#4",
          "ticks": 34368,
          "time": 134.25,
          "velocity": 0.7480314960629921
        },
        {
          "duration": 0.1875,
          "durationTicks": 48,
          "midi": 55,
          "name": "G3",
          "ticks": 34368,
          "time": 134.25,
          "velocity": 0.7401574803149606
        },
        {
          "duration": 0.046875,
          "durationTicks": 12,
          "midi": 92,
          "name": "G#6",
          "ticks": 34440,
          "time": 134.53125,
          "velocity": 0.7322834645669292
        },
        {
          "duration": 0.046875,
          "durationTicks": 12,
          "midi": 85,
          "name": "C#6",
          "ticks": 34440,
          "time": 134.53125,
          "velocity": 0.7322834645669292
        },
        {
          "duration": 0.046875,
          "durationTicks": 12,
          "midi": 80,
          "name": "G#5",
          "ticks": 34440,
          "time": 134.53125,
          "velocity": 0.7322834645669292
        },
        {
          "duration": 0.5625,
          "durationTicks": 144,
          "midi": 52,
          "name": "E3",
          "ticks": 34464,
          "time": 134.625,
          "velocity": 0.6220472440944882
        },
        {
          "duration": 0.234375,
          "durationTicks": 60,
          "midi": 80,
          "name": "G#5",
          "ticks": 34464,
          "time": 134.625,
          "velocity": 0.7322834645669292
        },
        {
          "duration": 0.234375,
          "durationTicks": 60,
          "midi": 85,
          "name": "C#6",
          "ticks": 34464,
          "time": 134.625,
          "velocity": 0.7322834645669292
        },
        {
          "duration": 0.234375,
          "durationTicks": 60,
          "midi": 92,
          "name": "G#6",
          "ticks": 34464,
          "time": 134.625,
          "velocity": 0.7322834645669292
        },
        {
          "duration": 0.046875,
          "durationTicks": 12,
          "midi": 79,
          "name": "G5",
          "ticks": 34536,
          "time": 134.90625,
          "velocity": 0.7322834645669292
        },
        {
          "duration": 0.046875,
          "durationTicks": 12,
          "midi": 82,
          "name": "A#5",
          "ticks": 34536,
          "time": 134.90625,
          "velocity": 0.7322834645669292
        },
        {
          "duration": 0.046875,
          "durationTicks": 12,
          "midi": 91,
          "name": "G6",
          "ticks": 34536,
          "time": 134.90625,
          "velocity": 0.7322834645669292
        },
        {
          "duration": 0.1875,
          "durationTicks": 48,
          "midi": 55,
          "name": "G3",
          "ticks": 34560,
          "time": 135,
          "velocity": 0.7401574803149606
        },
        {
          "duration": 0.1875,
          "durationTicks": 48,
          "midi": 79,
          "name": "G5",
          "ticks": 34560,
          "time": 135,
          "velocity": 0.7322834645669292
        },
        {
          "duration": 0.1875,
          "durationTicks": 48,
          "midi": 82,
          "name": "A#5",
          "ticks": 34560,
          "time": 135,
          "velocity": 0.7322834645669292
        },
        {
          "duration": 0.1875,
          "durationTicks": 48,
          "midi": 91,
          "name": "G6",
          "ticks": 34560,
          "time": 135,
          "velocity": 0.7322834645669292
        },
        {
          "duration": 0.375,
          "durationTicks": 96,
          "midi": 41,
          "name": "F2",
          "ticks": 34656,
          "time": 135.375,
          "velocity": 0.6220472440944882
        },
        {
          "duration": 0.234375,
          "durationTicks": 60,
          "midi": 68,
          "name": "G#4",
          "ticks": 34656,
          "time": 135.375,
          "velocity": 0.7559055118110236
        },
        {
          "duration": 0.234375,
          "durationTicks": 60,
          "midi": 72,
          "name": "C5",
          "ticks": 34656,
          "time": 135.375,
          "velocity": 0.7559055118110236
        },
        {
          "duration": 0.1875,
          "durationTicks": 48,
          "midi": 48,
          "name": "C3",
          "ticks": 34704,
          "time": 135.5625,
          "velocity": 0.7401574803149606
        },
        {
          "duration": 0.1875,
          "durationTicks": 48,
          "midi": 53,
          "name": "F3",
          "ticks": 34752,
          "time": 135.75,
          "velocity": 0.7401574803149606
        },
        {
          "duration": 0.1875,
          "durationTicks": 48,
          "midi": 68,
          "name": "G#4",
          "ticks": 34752,
          "time": 135.75,
          "velocity": 0.7559055118110236
        },
        {
          "duration": 0.1875,
          "durationTicks": 48,
          "midi": 70,
          "name": "A#4",
          "ticks": 34752,
          "time": 135.75,
          "velocity": 0.7559055118110236
        },
        {
          "duration": 0.1875,
          "durationTicks": 48,
          "midi": 48,
          "name": "C3",
          "ticks": 34800,
          "time": 135.9375,
          "velocity": 0.7401574803149606
        },
        {
          "duration": 0.09375,
          "durationTicks": 24,
          "midi": 72,
          "name": "C5",
          "ticks": 34824,
          "time": 136.03125,
          "velocity": 0.7559055118110236
        },
        {
          "duration": 0.375,
          "durationTicks": 96,
          "midi": 46,
          "name": "A#2",
          "ticks": 34848,
          "time": 136.125,
          "velocity": 0.6220472440944882
        },
        {
          "duration": 0.28125,
          "durationTicks": 72,
          "midi": 65,
          "name": "F4",
          "ticks": 34848,
          "time": 136.125,
          "velocity": 0.7559055118110236
        },
        {
          "duration": 0.28125,
          "durationTicks": 72,
          "midi": 70,
          "name": "A#4",
          "ticks": 34848,
          "time": 136.125,
          "velocity": 0.7559055118110236
        },
        {
          "duration": 0.1875,
          "durationTicks": 48,
          "midi": 53,
          "name": "F3",
          "ticks": 34896,
          "time": 136.3125,
          "velocity": 0.7401574803149606
        },
        {
          "duration": 0.1875,
          "durationTicks": 48,
          "midi": 58,
          "name": "A#3",
          "ticks": 34944,
          "time": 136.5,
          "velocity": 0.7401574803149606
        },
        {
          "duration": 0.234375,
          "durationTicks": 60,
          "midi": 62,
          "name": "D4",
          "ticks": 34944,
          "time": 136.5,
          "velocity": 0.7559055118110236
        },
        {
          "duration": 0.234375,
          "durationTicks": 60,
          "midi": 65,
          "name": "F4",
          "ticks": 34944,
          "time": 136.5,
          "velocity": 0.7559055118110236
        },
        {
          "duration": 0.1875,
          "durationTicks": 48,
          "midi": 53,
          "name": "F3",
          "ticks": 34992,
          "time": 136.6875,
          "velocity": 0.7401574803149606
        },
        {
          "duration": 0.09375,
          "durationTicks": 24,
          "midi": 65,
          "name": "F4",
          "ticks": 35016,
          "time": 136.78125,
          "velocity": 0.7559055118110236
        },
        {
          "duration": 0.375,
          "durationTicks": 96,
          "midi": 47,
          "name": "B2",
          "ticks": 35040,
          "time": 136.875,
          "velocity": 0.6220472440944882
        },
        {
          "duration": 0.234375,
          "durationTicks": 60,
          "midi": 62,
          "name": "D4",
          "ticks": 35040,
          "time": 136.875,
          "velocity": 0.7559055118110236
        },
        {
          "duration": 0.234375,
          "durationTicks": 60,
          "midi": 67,
          "name": "G4",
          "ticks": 35040,
          "time": 136.875,
          "velocity": 0.7559055118110236
        },
        {
          "duration": 0.1875,
          "durationTicks": 48,
          "midi": 55,
          "name": "G3",
          "ticks": 35088,
          "time": 137.0625,
          "velocity": 0.7401574803149606
        },
        {
          "duration": 0.1875,
          "durationTicks": 48,
          "midi": 59,
          "name": "B3",
          "ticks": 35136,
          "time": 137.25,
          "velocity": 0.7401574803149606
        },
        {
          "duration": 0.234375,
          "durationTicks": 60,
          "midi": 62,
          "name": "D4",
          "ticks": 35136,
          "time": 137.25,
          "velocity": 0.7559055118110236
        },
        {
          "duration": 0.234375,
          "durationTicks": 60,
          "midi": 65,
          "name": "F4",
          "ticks": 35136,
          "time": 137.25,
          "velocity": 0.7559055118110236
        },
        {
          "duration": 0.1875,
          "durationTicks": 48,
          "midi": 55,
          "name": "G3",
          "ticks": 35184,
          "time": 137.4375,
          "velocity": 0.7401574803149606
        },
        {
          "duration": 0.046875,
          "durationTicks": 12,
          "midi": 67,
          "name": "G4",
          "ticks": 35208,
          "time": 137.53125,
          "velocity": 0.7559055118110236
        },
        {
          "duration": 0.375,
          "durationTicks": 96,
          "midi": 48,
          "name": "C3",
          "ticks": 35232,
          "time": 137.625,
          "velocity": 0.6220472440944882
        },
        {
          "duration": 0.234375,
          "durationTicks": 60,
          "midi": 67,
          "name": "G4",
          "ticks": 35232,
          "time": 137.625,
          "velocity": 0.7559055118110236
        },
        {
          "duration": 0.234375,
          "durationTicks": 60,
          "midi": 63,
          "name": "D#4",
          "ticks": 35232,
          "time": 137.625,
          "velocity": 0.7559055118110236
        },
        {
          "duration": 0.1875,
          "durationTicks": 48,
          "midi": 60,
          "name": "C4",
          "ticks": 35280,
          "time": 137.8125,
          "velocity": 0.7401574803149606
        },
        {
          "duration": 0.375,
          "durationTicks": 96,
          "midi": 46,
          "name": "A#2",
          "ticks": 35328,
          "time": 138,
          "velocity": 0.6220472440944882
        },
        {
          "duration": 0.1875,
          "durationTicks": 48,
          "midi": 67,
          "name": "G4",
          "ticks": 35328,
          "time": 138,
          "velocity": 0.7401574803149606
        },
        {
          "duration": 0.1875,
          "durationTicks": 48,
          "midi": 70,
          "name": "A#4",
          "ticks": 35328,
          "time": 138,
          "velocity": 0.7559055118110236
        },
        {
          "duration": 0.1875,
          "durationTicks": 48,
          "midi": 58,
          "name": "A#3",
          "ticks": 35376,
          "time": 138.1875,
          "velocity": 0.7401574803149606
        },
        {
          "duration": 0.234375,
          "durationTicks": 60,
          "midi": 68,
          "name": "G#4",
          "ticks": 35424,
          "time": 138.375,
          "velocity": 0.7559055118110236
        },
        {
          "duration": 0.375,
          "durationTicks": 96,
          "midi": 41,
          "name": "F2",
          "ticks": 35424,
          "time": 138.375,
          "velocity": 0.6220472440944882
        },
        {
          "duration": 0.234375,
          "durationTicks": 60,
          "midi": 72,
          "name": "C5",
          "ticks": 35424,
          "time": 138.375,
          "velocity": 0.7559055118110236
        },
        {
          "duration": 0.1875,
          "durationTicks": 48,
          "midi": 48,
          "name": "C3",
          "ticks": 35472,
          "time": 138.5625,
          "velocity": 0.7401574803149606
        },
        {
          "duration": 0.1875,
          "durationTicks": 48,
          "midi": 53,
          "name": "F3",
          "ticks": 35520,
          "time": 138.75,
          "velocity": 0.7401574803149606
        },
        {
          "duration": 0.234375,
          "durationTicks": 60,
          "midi": 80,
          "name": "G#5",
          "ticks": 35520,
          "time": 138.75,
          "velocity": 0.7559055118110236
        },
        {
          "duration": 0.234375,
          "durationTicks": 60,
          "midi": 72,
          "name": "C5",
          "ticks": 35520,
          "time": 138.75,
          "velocity": 0.7559055118110236
        },
        {
          "duration": 0.1875,
          "durationTicks": 48,
          "midi": 48,
          "name": "C3",
          "ticks": 35568,
          "time": 138.9375,
          "velocity": 0.7401574803149606
        },
        {
          "duration": 0.09375,
          "durationTicks": 24,
          "midi": 72,
          "name": "C5",
          "ticks": 35592,
          "time": 139.03125,
          "velocity": 0.7559055118110236
        },
        {
          "duration": 0.09375,
          "durationTicks": 24,
          "midi": 80,
          "name": "G#5",
          "ticks": 35592,
          "time": 139.03125,
          "velocity": 0.7559055118110236
        },
        {
          "duration": 0.375,
          "durationTicks": 96,
          "midi": 43,
          "name": "G2",
          "ticks": 35616,
          "time": 139.125,
          "velocity": 0.6220472440944882
        },
        {
          "duration": 0.234375,
          "durationTicks": 60,
          "midi": 75,
          "name": "D#5",
          "ticks": 35616,
          "time": 139.125,
          "velocity": 0.7559055118110236
        },
        {
          "duration": 0.234375,
          "durationTicks": 60,
          "midi": 82,
          "name": "A#5",
          "ticks": 35616,
          "time": 139.125,
          "velocity": 0.7559055118110236
        },
        {
          "duration": 0.1875,
          "durationTicks": 48,
          "midi": 50,
          "name": "D3",
          "ticks": 35664,
          "time": 139.3125,
          "velocity": 0.7401574803149606
        },
        {
          "duration": 0.1875,
          "durationTicks": 48,
          "midi": 55,
          "name": "G3",
          "ticks": 35712,
          "time": 139.5,
          "velocity": 0.7401574803149606
        },
        {
          "duration": 0.234375,
          "durationTicks": 60,
          "midi": 63,
          "name": "D#4",
          "ticks": 35712,
          "time": 139.5,
          "velocity": 0.7559055118110236
        },
        {
          "duration": 0.1875,
          "durationTicks": 48,
          "midi": 50,
          "name": "D3",
          "ticks": 35760,
          "time": 139.6875,
          "velocity": 0.7401574803149606
        },
        {
          "duration": 0.09375,
          "durationTicks": 24,
          "midi": 70,
          "name": "A#4",
          "ticks": 35784,
          "time": 139.78125,
          "velocity": 0.7559055118110236
        },
        {
          "duration": 0.375,
          "durationTicks": 96,
          "midi": 44,
          "name": "G#2",
          "ticks": 35808,
          "time": 139.875,
          "velocity": 0.6220472440944882
        },
        {
          "duration": 0.28125,
          "durationTicks": 72,
          "midi": 68,
          "name": "G#4",
          "ticks": 35808,
          "time": 139.875,
          "velocity": 0.7559055118110236
        },
        {
          "duration": 0.28125,
          "durationTicks": 72,
          "midi": 72,
          "name": "C5",
          "ticks": 35808,
          "time": 139.875,
          "velocity": 0.7559055118110236
        },
        {
          "duration": 0.1875,
          "durationTicks": 48,
          "midi": 51,
          "name": "D#3",
          "ticks": 35856,
          "time": 140.0625,
          "velocity": 0.7401574803149606
        },
        {
          "duration": 0.1875,
          "durationTicks": 48,
          "midi": 56,
          "name": "G#3",
          "ticks": 35904,
          "time": 140.25,
          "velocity": 0.7401574803149606
        },
        {
          "duration": 0.234375,
          "durationTicks": 60,
          "midi": 75,
          "name": "D#5",
          "ticks": 35904,
          "time": 140.25,
          "velocity": 0.7559055118110236
        },
        {
          "duration": 0.234375,
          "durationTicks": 60,
          "midi": 72,
          "name": "C5",
          "ticks": 35904,
          "time": 140.25,
          "velocity": 0.7559055118110236
        },
        {
          "duration": 0.234375,
          "durationTicks": 60,
          "midi": 84,
          "name": "C6",
          "ticks": 35904,
          "time": 140.25,
          "velocity": 0.7559055118110236
        },
        {
          "duration": 0.1875,
          "durationTicks": 48,
          "midi": 51,
          "name": "D#3",
          "ticks": 35952,
          "time": 140.4375,
          "velocity": 0.7401574803149606
        },
        {
          "duration": 0.09375,
          "durationTicks": 24,
          "midi": 75,
          "name": "D#5",
          "ticks": 35976,
          "time": 140.53125,
          "velocity": 0.7559055118110236
        },
        {
          "duration": 0.09375,
          "durationTicks": 24,
          "midi": 72,
          "name": "C5",
          "ticks": 35976,
          "time": 140.53125,
          "velocity": 0.7559055118110236
        },
        {
          "duration": 0.09375,
          "durationTicks": 24,
          "midi": 84,
          "name": "C6",
          "ticks": 35976,
          "time": 140.53125,
          "velocity": 0.7559055118110236
        },
        {
          "duration": 0.375,
          "durationTicks": 96,
          "midi": 46,
          "name": "A#2",
          "ticks": 36000,
          "time": 140.625,
          "velocity": 0.6220472440944882
        },
        {
          "duration": 0.28125,
          "durationTicks": 72,
          "midi": 77,
          "name": "F5",
          "ticks": 36000,
          "time": 140.625,
          "velocity": 0.7559055118110236
        },
        {
          "duration": 0.28125,
          "durationTicks": 72,
          "midi": 74,
          "name": "D5",
          "ticks": 36000,
          "time": 140.625,
          "velocity": 0.7559055118110236
        },
        {
          "duration": 0.28125,
          "durationTicks": 72,
          "midi": 86,
          "name": "D6",
          "ticks": 36000,
          "time": 140.625,
          "velocity": 0.7559055118110236
        },
        {
          "duration": 0.1875,
          "durationTicks": 48,
          "midi": 53,
          "name": "F3",
          "ticks": 36048,
          "time": 140.8125,
          "velocity": 0.7401574803149606
        },
        {
          "duration": 0.1875,
          "durationTicks": 48,
          "midi": 58,
          "name": "A#3",
          "ticks": 36096,
          "time": 141,
          "velocity": 0.7401574803149606
        },
        {
          "duration": 0.28125,
          "durationTicks": 72,
          "midi": 63,
          "name": "D#4",
          "ticks": 36096,
          "time": 141,
          "velocity": 0.7559055118110236
        },
        {
          "duration": 0.1875,
          "durationTicks": 48,
          "midi": 53,
          "name": "F3",
          "ticks": 36144,
          "time": 141.1875,
          "velocity": 0.7401574803149606
        },
        {
          "duration": 0.09375,
          "durationTicks": 24,
          "midi": 62,
          "name": "D4",
          "ticks": 36168,
          "time": 141.28125,
          "velocity": 0.7559055118110236
        },
        {
          "duration": 1.453125,
          "durationTicks": 372,
          "midi": 48,
          "name": "C3",
          "ticks": 36192,
          "time": 141.375,
          "velocity": 0.7401574803149606
        },
        {
          "duration": 1.453125,
          "durationTicks": 372,
          "midi": 55,
          "name": "G3",
          "ticks": 36192,
          "time": 141.375,
          "velocity": 0.7559055118110236
        },
        {
          "duration": 1.453125,
          "durationTicks": 372,
          "midi": 60,
          "name": "C4",
          "ticks": 36192,
          "time": 141.375,
          "velocity": 0.7559055118110236
        },
        {
          "duration": 0.09375,
          "durationTicks": 24,
          "midi": 48,
          "name": "C3",
          "ticks": 36576,
          "time": 142.875,
          "velocity": 0.4645669291338583
        },
        {
          "duration": 0.09375,
          "durationTicks": 24,
          "midi": 53,
          "name": "F3",
          "ticks": 36600,
          "time": 142.96875,
          "velocity": 0.49606299212598426
        },
        {
          "duration": 0.09375,
          "durationTicks": 24,
          "midi": 55,
          "name": "G3",
          "ticks": 36624,
          "time": 143.0625,
          "velocity": 0.5275590551181102
        },
        {
          "duration": 0.09375,
          "durationTicks": 24,
          "midi": 60,
          "name": "C4",
          "ticks": 36648,
          "time": 143.15625,
          "velocity": 0.5590551181102362
        },
        {
          "duration": 0.09375,
          "durationTicks": 24,
          "midi": 60,
          "name": "C4",
          "ticks": 36672,
          "time": 143.25,
          "velocity": 0.5984251968503937
        },
        {
          "duration": 0.09375,
          "durationTicks": 24,
          "midi": 65,
          "name": "F4",
          "ticks": 36696,
          "time": 143.34375,
          "velocity": 0.6299212598425197
        },
        {
          "duration": 0.09375,
          "durationTicks": 24,
          "midi": 67,
          "name": "G4",
          "ticks": 36720,
          "time": 143.4375,
          "velocity": 0.6614173228346457
        },
        {
          "duration": 0.09375,
          "durationTicks": 24,
          "midi": 72,
          "name": "C5",
          "ticks": 36744,
          "time": 143.53125,
          "velocity": 0.7007874015748031
        },
        {
          "duration": 0.09375,
          "durationTicks": 24,
          "midi": 65,
          "name": "F4",
          "ticks": 36768,
          "time": 143.625,
          "velocity": 0.6456692913385826
        },
        {
          "duration": 0.09375,
          "durationTicks": 24,
          "midi": 67,
          "name": "G4",
          "ticks": 36792,
          "time": 143.71875,
          "velocity": 0.6692913385826772
        },
        {
          "duration": 0.09375,
          "durationTicks": 24,
          "midi": 72,
          "name": "C5",
          "ticks": 36816,
          "time": 143.8125,
          "velocity": 0.6929133858267716
        },
        {
          "duration": 0.09375,
          "durationTicks": 24,
          "midi": 77,
          "name": "F5",
          "ticks": 36840,
          "time": 143.90625,
          "velocity": 0.7244094488188977
        },
        {
          "duration": 0.09375,
          "durationTicks": 24,
          "midi": 79,
          "name": "G5",
          "ticks": 36864,
          "time": 144,
          "velocity": 0.7480314960629921
        },
        {
          "duration": 0.09375,
          "durationTicks": 24,
          "midi": 84,
          "name": "C6",
          "ticks": 36888,
          "time": 144.09375,
          "velocity": 0.7716535433070866
        },
        {
          "duration": 0.09375,
          "durationTicks": 24,
          "midi": 89,
          "name": "F6",
          "ticks": 36912,
          "time": 144.1875,
          "velocity": 0.8031496062992126
        },
        {
          "duration": 0.09375,
          "durationTicks": 24,
          "midi": 91,
          "name": "G6",
          "ticks": 36936,
          "time": 144.28125,
          "velocity": 0.8267716535433071
        },
        {
          "duration": 0.09375,
          "durationTicks": 24,
          "midi": 96,
          "name": "C7",
          "ticks": 36960,
          "time": 144.375,
          "velocity": 0.8661417322834646
        },
        {
          "duration": 0.09375,
          "durationTicks": 24,
          "midi": 91,
          "name": "G6",
          "ticks": 36984,
          "time": 144.46875,
          "velocity": 0.8582677165354331
        },
        {
          "duration": 0.09375,
          "durationTicks": 24,
          "midi": 89,
          "name": "F6",
          "ticks": 37008,
          "time": 144.5625,
          "velocity": 0.84251968503937
        },
        {
          "duration": 0.09375,
          "durationTicks": 24,
          "midi": 84,
          "name": "C6",
          "ticks": 37032,
          "time": 144.65625,
          "velocity": 0.8346456692913385
        },
        {
          "duration": 0.09375,
          "durationTicks": 24,
          "midi": 84,
          "name": "C6",
          "ticks": 37056,
          "time": 144.75,
          "velocity": 0.8188976377952756
        },
        {
          "duration": 0.09375,
          "durationTicks": 24,
          "midi": 79,
          "name": "G5",
          "ticks": 37080,
          "time": 144.84375,
          "velocity": 0.8110236220472441
        },
        {
          "duration": 0.09375,
          "durationTicks": 24,
          "midi": 77,
          "name": "F5",
          "ticks": 37104,
          "time": 144.9375,
          "velocity": 0.7952755905511811
        },
        {
          "duration": 0.09375,
          "durationTicks": 24,
          "midi": 72,
          "name": "C5",
          "ticks": 37128,
          "time": 145.03125,
          "velocity": 0.7795275590551181
        },
        {
          "duration": 0.09375,
          "durationTicks": 24,
          "midi": 72,
          "name": "C5",
          "ticks": 37152,
          "time": 145.125,
          "velocity": 0.8031496062992126
        },
        {
          "duration": 0.09375,
          "durationTicks": 24,
          "midi": 67,
          "name": "G4",
          "ticks": 37176,
          "time": 145.21875,
          "velocity": 0.7874015748031497
        },
        {
          "duration": 0.09375,
          "durationTicks": 24,
          "midi": 65,
          "name": "F4",
          "ticks": 37200,
          "time": 145.3125,
          "velocity": 0.7637795275590551
        },
        {
          "duration": 0.09375,
          "durationTicks": 24,
          "midi": 60,
          "name": "C4",
          "ticks": 37224,
          "time": 145.40625,
          "velocity": 0.7480314960629921
        },
        {
          "duration": 0.09375,
          "durationTicks": 24,
          "midi": 60,
          "name": "C4",
          "ticks": 37248,
          "time": 145.5,
          "velocity": 0.7322834645669292
        },
        {
          "duration": 0.09375,
          "durationTicks": 24,
          "midi": 55,
          "name": "G3",
          "ticks": 37272,
          "time": 145.59375,
          "velocity": 0.7165354330708661
        },
        {
          "duration": 0.09375,
          "durationTicks": 24,
          "midi": 53,
          "name": "F3",
          "ticks": 37296,
          "time": 145.6875,
          "velocity": 0.7007874015748031
        },
        {
          "duration": 0.09375,
          "durationTicks": 24,
          "midi": 48,
          "name": "C3",
          "ticks": 37320,
          "time": 145.78125,
          "velocity": 0.6850393700787402
        },
        {
          "duration": 1.453125,
          "durationTicks": 372,
          "midi": 48,
          "name": "C3",
          "ticks": 37344,
          "time": 145.875,
          "velocity": 0.7559055118110236
        }
      ],
      "endOfTrackTicks": 37730
    },
    {
      "channel": 2,
      "controlChanges": {
        "6": [
          {
            "number": 6,
            "ticks": 0,
            "time": 0,
            "value": 0.09448818897637795
          },
          {
            "number": 6,
            "ticks": 0,
            "time": 0,
            "value": 0.09448818897637795
          },
          {
            "number": 6,
            "ticks": 0,
            "time": 0,
            "value": 0.09448818897637795
          },
          {
            "number": 6,
            "ticks": 37728,
            "time": 147.375,
            "value": 0.09448818897637795
          },
          {
            "number": 6,
            "ticks": 37730,
            "time": 147.3828125,
            "value": 0.09448818897637795
          }
        ],
        "7": [
          {
            "number": 7,
            "ticks": 0,
            "time": 0,
            "value": 0.7874015748031497
          },
          {
            "number": 7,
            "ticks": 0,
            "time": 0,
            "value": 0.7874015748031497
          },
          {
            "number": 7,
            "ticks": 0,
            "time": 0,
            "value": 0.7874015748031497
          },
          {
            "number": 7,
            "ticks": 0,
            "time": 0,
            "value": 0.7874015748031497
          },
          {
            "number": 7,
            "ticks": 37728,
            "time": 147.375,
            "value": 0.7874015748031497
          },
          {
            "number": 7,
            "ticks": 37730,
            "time": 147.3828125,
            "value": 0.7874015748031497
          }
        ],
        "10": [
          {
            "number": 10,
            "ticks": 0,
            "time": 0,
            "value": 0.5039370078740157
          },
          {
            "number": 10,
            "ticks": 0,
            "time": 0,
            "value": 0.5039370078740157
          },
          {
            "number": 10,
            "ticks": 0,
            "time": 0,
            "value": 0.5039370078740157
          },
          {
            "number": 10,
            "ticks": 0,
            "time": 0,
            "value": 0.5039370078740157
          },
          {
            "number": 10,
            "ticks": 37728,
            "time": 147.375,
            "value": 0.5039370078740157
          },
          {
            "number": 10,
            "ticks": 37730,
            "time": 147.3828125,
            "value": 0.5039370078740157
          }
        ],
        "100": [
          {
            "number": 100,
            "ticks": 0,
            "time": 0,
            "value": 0
          },
          {
            "number": 100,
            "ticks": 0,
            "time": 0,
            "value": 0
          },
          {
            "number": 100,
            "ticks": 0,
            "time": 0,
            "value": 0
          },
          {
            "number": 100,
            "ticks": 37728,
            "time": 147.375,
            "value": 0
          },
          {
            "number": 100,
            "ticks": 37730,
            "time": 147.3828125,
            "value": 0
          }
        ],
        "101": [
          {
            "number": 101,
            "ticks": 0,
            "time": 0,
            "value": 0
          },
          {
            "number": 101,
            "ticks": 0,
            "time": 0,
            "value": 0
          },
          {
            "number": 101,
            "ticks": 0,
            "time": 0,
            "value": 0
          },
          {
            "number": 101,
            "ticks": 37728,
            "time": 147.375,
            "value": 0
          },
          {
            "number": 101,
            "ticks": 37730,
            "time": 147.3828125,
            "value": 0
          }
        ]
      },
      "pitchBends": [
        {
          "ticks": 0,
          "time": 0,
          "value": 0
        },
        {
          "ticks": 0,
          "time": 0,
          "value": 0
        },
        {
          "ticks": 0,
          "time": 0,
          "value": 0
        },
        {
          "ticks": 0,
          "time": 0,
          "value": 0
        },
        {
          "ticks": 37728,
          "time": 147.375,
          "value": 0
        },
        {
          "ticks": 37730,
          "time": 147.3828125,
          "value": 0
        }
      ],
      "instrument": {
        "family": "piano",
        "number": 0,
        "name": "acoustic grand piano"
      },
      "name": "Lead",
      "notes": [
        {
          "duration": 0.15625,
          "durationTicks": 40,
          "midi": 60,
          "name": "C4",
          "ticks": 9600,
          "time": 37.5,
          "velocity": 0.8188976377952756
        },
        {
          "duration": 0.0625,
          "durationTicks": 16,
          "midi": 60,
          "name": "C4",
          "ticks": 9672,
          "time": 37.78125,
          "velocity": 0.8188976377952756
        },
        {
          "duration": 0.09375,
          "durationTicks": 24,
          "midi": 60,
          "name": "C4",
          "ticks": 9696,
          "time": 37.875,
          "velocity": 0.8188976377952756
        },
        {
          "duration": 0.296875,
          "durationTicks": 76,
          "midi": 60,
          "name": "C4",
          "ticks": 9744,
          "time": 38.0625,
          "velocity": 0.8188976377952756
        },
        {
          "duration": 0.09375,
          "durationTicks": 24,
          "midi": 62,
          "name": "D4",
          "ticks": 9816,
          "time": 38.34375,
          "velocity": 0.8188976377952756
        },
        {
          "duration": 0.09375,
          "durationTicks": 24,
          "midi": 63,
          "name": "D#4",
          "ticks": 9840,
          "time": 38.4375,
          "velocity": 0.8188976377952756
        },
        {
          "duration": 0.296875,
          "durationTicks": 76,
          "midi": 60,
          "name": "C4",
          "ticks": 9888,
          "time": 38.625,
          "velocity": 0.8188976377952756
        },
        {
          "duration": 0.09375,
          "durationTicks": 24,
          "midi": 62,
          "name": "D4",
          "ticks": 9960,
          "time": 38.90625,
          "velocity": 0.8188976377952756
        },
        {
          "duration": 0.09375,
          "durationTicks": 24,
          "midi": 63,
          "name": "D#4",
          "ticks": 9984,
          "time": 39,
          "velocity": 0.8188976377952756
        },
        {
          "duration": 0.296875,
          "durationTicks": 76,
          "midi": 60,
          "name": "C4",
          "ticks": 10032,
          "time": 39.1875,
          "velocity": 0.8188976377952756
        },
        {
          "duration": 0.09375,
          "durationTicks": 24,
          "midi": 62,
          "name": "D4",
          "ticks": 10104,
          "time": 39.46875,
          "velocity": 0.8188976377952756
        },
        {
          "duration": 0.09375,
          "durationTicks": 24,
          "midi": 63,
          "name": "D#4",
          "ticks": 10128,
          "time": 39.5625,
          "velocity": 0.8188976377952756
        },
        {
          "duration": 0.0625,
          "durationTicks": 16,
          "midi": 56,
          "name": "G#3",
          "ticks": 10176,
          "time": 39.75,
          "velocity": 0.8188976377952756
        },
        {
          "duration": 0.0625,
          "durationTicks": 16,
          "midi": 56,
          "name": "G#3",
          "ticks": 10200,
          "time": 39.84375,
          "velocity": 0.8188976377952756
        },
        {
          "duration": 0.0625,
          "durationTicks": 16,
          "midi": 56,
          "name": "G#3",
          "ticks": 10224,
          "time": 39.9375,
          "velocity": 0.8188976377952756
        },
        {
          "duration": 0.15625,
          "durationTicks": 40,
          "midi": 59,
          "name": "B3",
          "ticks": 10272,
          "time": 40.125,
          "velocity": 0.8188976377952756
        },
        {
          "duration": 0.0625,
          "durationTicks": 16,
          "midi": 59,
          "name": "B3",
          "ticks": 10320,
          "time": 40.3125,
          "velocity": 0.8188976377952756
        },
        {
          "duration": 0.0625,
          "durationTicks": 16,
          "midi": 59,
          "name": "B3",
          "ticks": 10344,
          "time": 40.40625,
          "velocity": 0.8188976377952756
        },
        {
          "duration": 0.15625,
          "durationTicks": 40,
          "midi": 60,
          "name": "C4",
          "ticks": 10368,
          "time": 40.5,
          "velocity": 0.8188976377952756
        },
        {
          "duration": 0.0625,
          "durationTicks": 16,
          "midi": 60,
          "name": "C4",
          "ticks": 10440,
          "time": 40.78125,
          "velocity": 0.8188976377952756
        },
        {
          "duration": 0.09375,
          "durationTicks": 24,
          "midi": 60,
          "name": "C4",
          "ticks": 10464,
          "time": 40.875,
          "velocity": 0.8188976377952756
        },
        {
          "duration": 0.296875,
          "durationTicks": 76,
          "midi": 60,
          "name": "C4",
          "ticks": 10512,
          "time": 41.0625,
          "velocity": 0.8188976377952756
        },
        {
          "duration": 0.09375,
          "durationTicks": 24,
          "midi": 62,
          "name": "D4",
          "ticks": 10584,
          "time": 41.34375,
          "velocity": 0.8188976377952756
        },
        {
          "duration": 0.09375,
          "durationTicks": 24,
          "midi": 63,
          "name": "D#4",
          "ticks": 10608,
          "time": 41.4375,
          "velocity": 0.8188976377952756
        },
        {
          "duration": 0.28125,
          "durationTicks": 72,
          "midi": 60,
          "name": "C4",
          "ticks": 10656,
          "time": 41.625,
          "velocity": 0.8188976377952756
        },
        {
          "duration": 0.09375,
          "durationTicks": 24,
          "midi": 62,
          "name": "D4",
          "ticks": 10728,
          "time": 41.90625,
          "velocity": 0.8188976377952756
        },
        {
          "duration": 0.09375,
          "durationTicks": 24,
          "midi": 63,
          "name": "D#4",
          "ticks": 10752,
          "time": 42,
          "velocity": 0.8188976377952756
        },
        {
          "duration": 0.296875,
          "durationTicks": 76,
          "midi": 60,
          "name": "C4",
          "ticks": 10800,
          "time": 42.1875,
          "velocity": 0.8188976377952756
        },
        {
          "duration": 0.09375,
          "durationTicks": 24,
          "midi": 62,
          "name": "D4",
          "ticks": 10872,
          "time": 42.46875,
          "velocity": 0.8188976377952756
        },
        {
          "duration": 0.09375,
          "durationTicks": 24,
          "midi": 63,
          "name": "D#4",
          "ticks": 10896,
          "time": 42.5625,
          "velocity": 0.8188976377952756
        },
        {
          "duration": 0.0625,
          "durationTicks": 16,
          "midi": 68,
          "name": "G#4",
          "ticks": 10944,
          "time": 42.75,
          "velocity": 0.8188976377952756
        },
        {
          "duration": 0.0625,
          "durationTicks": 16,
          "midi": 68,
          "name": "G#4",
          "ticks": 10968,
          "time": 42.84375,
          "velocity": 0.8188976377952756
        },
        {
          "duration": 0.0625,
          "durationTicks": 16,
          "midi": 68,
          "name": "G#4",
          "ticks": 10992,
          "time": 42.9375,
          "velocity": 0.8188976377952756
        },
        {
          "duration": 0.15625,
          "durationTicks": 40,
          "midi": 67,
          "name": "G4",
          "ticks": 11040,
          "time": 43.125,
          "velocity": 0.8188976377952756
        },
        {
          "duration": 0.15625,
          "durationTicks": 40,
          "midi": 62,
          "name": "D4",
          "ticks": 11088,
          "time": 43.3125,
          "velocity": 0.8188976377952756
        },
        {
          "duration": 0.15625,
          "durationTicks": 40,
          "midi": 60,
          "name": "C4",
          "ticks": 11136,
          "time": 43.5,
          "velocity": 0.8188976377952756
        },
        {
          "duration": 0.0625,
          "durationTicks": 16,
          "midi": 60,
          "name": "C4",
          "ticks": 11208,
          "time": 43.78125,
          "velocity": 0.8188976377952756
        },
        {
          "duration": 0.09375,
          "durationTicks": 24,
          "midi": 60,
          "name": "C4",
          "ticks": 11232,
          "time": 43.875,
          "velocity": 0.8188976377952756
        },
        {
          "duration": 0.296875,
          "durationTicks": 76,
          "midi": 60,
          "name": "C4",
          "ticks": 11280,
          "time": 44.0625,
          "velocity": 0.8188976377952756
        },
        {
          "duration": 0.09375,
          "durationTicks": 24,
          "midi": 62,
          "name": "D4",
          "ticks": 11352,
          "time": 44.34375,
          "velocity": 0.8188976377952756
        },
        {
          "duration": 0.09375,
          "durationTicks": 24,
          "midi": 63,
          "name": "D#4",
          "ticks": 11376,
          "time": 44.4375,
          "velocity": 0.8188976377952756
        },
        {
          "duration": 0.296875,
          "durationTicks": 76,
          "midi": 60,
          "name": "C4",
          "ticks": 11424,
          "time": 44.625,
          "velocity": 0.8188976377952756
        },
        {
          "duration": 0.09375,
          "durationTicks": 24,
          "midi": 62,
          "name": "D4",
          "ticks": 11496,
          "time": 44.90625,
          "velocity": 0.8188976377952756
        },
        {
          "duration": 0.09375,
          "durationTicks": 24,
          "midi": 63,
          "name": "D#4",
          "ticks": 11520,
          "time": 45,
          "velocity": 0.8188976377952756
        },
        {
          "duration": 0.296875,
          "durationTicks": 76,
          "midi": 60,
          "name": "C4",
          "ticks": 11568,
          "time": 45.1875,
          "velocity": 0.8188976377952756
        },
        {
          "duration": 0.09375,
          "durationTicks": 24,
          "midi": 62,
          "name": "D4",
          "ticks": 11640,
          "time": 45.46875,
          "velocity": 0.8188976377952756
        },
        {
          "duration": 0.09375,
          "durationTicks": 24,
          "midi": 63,
          "name": "D#4",
          "ticks": 11664,
          "time": 45.5625,
          "velocity": 0.8188976377952756
        },
        {
          "duration": 0.0625,
          "durationTicks": 16,
          "midi": 56,
          "name": "G#3",
          "ticks": 11712,
          "time": 45.75,
          "velocity": 0.8188976377952756
        },
        {
          "duration": 0.0625,
          "durationTicks": 16,
          "midi": 56,
          "name": "G#3",
          "ticks": 11736,
          "time": 45.84375,
          "velocity": 0.8188976377952756
        },
        {
          "duration": 0.0625,
          "durationTicks": 16,
          "midi": 56,
          "name": "G#3",
          "ticks": 11760,
          "time": 45.9375,
          "velocity": 0.8188976377952756
        },
        {
          "duration": 0.15625,
          "durationTicks": 40,
          "midi": 59,
          "name": "B3",
          "ticks": 11808,
          "time": 46.125,
          "velocity": 0.8188976377952756
        },
        {
          "duration": 0.0625,
          "durationTicks": 16,
          "midi": 59,
          "name": "B3",
          "ticks": 11856,
          "time": 46.3125,
          "velocity": 0.8188976377952756
        },
        {
          "duration": 0.0625,
          "durationTicks": 16,
          "midi": 59,
          "name": "B3",
          "ticks": 11880,
          "time": 46.40625,
          "velocity": 0.8188976377952756
        },
        {
          "duration": 0.15625,
          "durationTicks": 40,
          "midi": 60,
          "name": "C4",
          "ticks": 11904,
          "time": 46.5,
          "velocity": 0.8188976377952756
        },
        {
          "duration": 0.0625,
          "durationTicks": 16,
          "midi": 60,
          "name": "C4",
          "ticks": 11976,
          "time": 46.78125,
          "velocity": 0.8188976377952756
        },
        {
          "duration": 0.09375,
          "durationTicks": 24,
          "midi": 60,
          "name": "C4",
          "ticks": 12000,
          "time": 46.875,
          "velocity": 0.8188976377952756
        },
        {
          "duration": 0.296875,
          "durationTicks": 76,
          "midi": 60,
          "name": "C4",
          "ticks": 12048,
          "time": 47.0625,
          "velocity": 0.8188976377952756
        },
        {
          "duration": 0.09375,
          "durationTicks": 24,
          "midi": 62,
          "name": "D4",
          "ticks": 12120,
          "time": 47.34375,
          "velocity": 0.8188976377952756
        },
        {
          "duration": 0.09375,
          "durationTicks": 24,
          "midi": 63,
          "name": "D#4",
          "ticks": 12144,
          "time": 47.4375,
          "velocity": 0.8188976377952756
        },
        {
          "duration": 0.296875,
          "durationTicks": 76,
          "midi": 60,
          "name": "C4",
          "ticks": 12192,
          "time": 47.625,
          "velocity": 0.8188976377952756
        },
        {
          "duration": 0.09375,
          "durationTicks": 24,
          "midi": 62,
          "name": "D4",
          "ticks": 12264,
          "time": 47.90625,
          "velocity": 0.8188976377952756
        },
        {
          "duration": 0.01953125,
          "durationTicks": 5,
          "midi": 60,
          "name": "C4",
          "ticks": 12288,
          "time": 48,
          "velocity": 0.7795275590551181
        },
        {
          "duration": 0.01953125,
          "durationTicks": 5,
          "midi": 59,
          "name": "B3",
          "ticks": 12292,
          "time": 48.015625,
          "velocity": 0.7559055118110236
        },
        {
          "duration": 0.01953125,
          "durationTicks": 5,
          "midi": 58,
          "name": "A#3",
          "ticks": 12295,
          "time": 48.02734375,
          "velocity": 0.7480314960629921
        },
        {
          "duration": 0.01953125,
          "durationTicks": 5,
          "midi": 57,
          "name": "A3",
          "ticks": 12299,
          "time": 48.04296875,
          "velocity": 0.7244094488188977
        },
        {
          "duration": 0.01953125,
          "durationTicks": 5,
          "midi": 56,
          "name": "G#3",
          "ticks": 12302,
          "time": 48.0546875,
          "velocity": 0.7086614173228346
        },
        {
          "duration": 0.01953125,
          "durationTicks": 5,
          "midi": 55,
          "name": "G3",
          "ticks": 12306,
          "time": 48.0703125,
          "velocity": 0.6929133858267716
        },
        {
          "duration": 0.01953125,
          "durationTicks": 5,
          "midi": 54,
          "name": "F#3",
          "ticks": 12309,
          "time": 48.08203125,
          "velocity": 0.6771653543307087
        },
        {
          "duration": 0.01953125,
          "durationTicks": 5,
          "midi": 53,
          "name": "F3",
          "ticks": 12313,
          "time": 48.09765625,
          "velocity": 0.6614173228346457
        },
        {
          "duration": 0.01953125,
          "durationTicks": 5,
          "midi": 52,
          "name": "E3",
          "ticks": 12316,
          "time": 48.109375,
          "velocity": 0.6456692913385826
        },
        {
          "duration": 0.01953125,
          "durationTicks": 5,
          "midi": 51,
          "name": "D#3",
          "ticks": 12320,
          "time": 48.125,
          "velocity": 0.6299212598425197
        },
        {
          "duration": 0.01953125,
          "durationTicks": 5,
          "midi": 50,
          "name": "D3",
          "ticks": 12323,
          "time": 48.13671875,
          "velocity": 0.6141732283464567
        },
        {
          "duration": 0.01953125,
          "durationTicks": 5,
          "midi": 49,
          "name": "C#3",
          "ticks": 12327,
          "time": 48.15234375,
          "velocity": 0.5984251968503937
        },
        {
          "duration": 0.09375,
          "durationTicks": 24,
          "midi": 60,
          "name": "C4",
          "ticks": 12336,
          "time": 48.1875,
          "velocity": 0.8188976377952756
        },
        {
          "duration": 0.15625,
          "durationTicks": 40,
          "midi": 63,
          "name": "D#4",
          "ticks": 12384,
          "time": 48.375,
          "velocity": 0.8188976377952756
        },
        {
          "duration": 0.0625,
          "durationTicks": 16,
          "midi": 63,
          "name": "D#4",
          "ticks": 12432,
          "time": 48.5625,
          "velocity": 0.8188976377952756
        },
        {
          "duration": 0.0625,
          "durationTicks": 16,
          "midi": 63,
          "name": "D#4",
          "ticks": 12456,
          "time": 48.65625,
          "velocity": 0.8188976377952756
        },
        {
          "duration": 0.0625,
          "durationTicks": 16,
          "midi": 68,
          "name": "G#4",
          "ticks": 12480,
          "time": 48.75,
          "velocity": 0.6456692913385826
        },
        {
          "duration": 0.0625,
          "durationTicks": 16,
          "midi": 68,
          "name": "G#4",
          "ticks": 12504,
          "time": 48.84375,
          "velocity": 0.6456692913385826
        },
        {
          "duration": 0.0625,
          "durationTicks": 16,
          "midi": 68,
          "name": "G#4",
          "ticks": 12528,
          "time": 48.9375,
          "velocity": 0.6456692913385826
        },
        {
          "duration": 0.0625,
          "durationTicks": 16,
          "midi": 68,
          "name": "G#4",
          "ticks": 12552,
          "time": 49.03125,
          "velocity": 0.6456692913385826
        },
        {
          "duration": 0.0625,
          "durationTicks": 16,
          "midi": 61,
          "name": "C#4",
          "ticks": 12624,
          "time": 49.3125,
          "velocity": 0.6456692913385826
        },
        {
          "duration": 0.0625,
          "durationTicks": 16,
          "midi": 61,
          "name": "C#4",
          "ticks": 12648,
          "time": 49.40625,
          "velocity": 0.6456692913385826
        },
        {
          "duration": 0.15625,
          "durationTicks": 40,
          "midi": 60,
          "name": "C4",
          "ticks": 12672,
          "time": 49.5,
          "velocity": 0.8188976377952756
        },
        {
          "duration": 0.0625,
          "durationTicks": 16,
          "midi": 60,
          "name": "C4",
          "ticks": 12744,
          "time": 49.78125,
          "velocity": 0.8188976377952756
        },
        {
          "duration": 0.09375,
          "durationTicks": 24,
          "midi": 60,
          "name": "C4",
          "ticks": 12768,
          "time": 49.875,
          "velocity": 0.8188976377952756
        },
        {
          "duration": 0.296875,
          "durationTicks": 76,
          "midi": 60,
          "name": "C4",
          "ticks": 12816,
          "time": 50.0625,
          "velocity": 0.8188976377952756
        },
        {
          "duration": 0.09375,
          "durationTicks": 24,
          "midi": 62,
          "name": "D4",
          "ticks": 12888,
          "time": 50.34375,
          "velocity": 0.8188976377952756
        },
        {
          "duration": 0.09375,
          "durationTicks": 24,
          "midi": 63,
          "name": "D#4",
          "ticks": 12912,
          "time": 50.4375,
          "velocity": 0.8188976377952756
        },
        {
          "duration": 0.296875,
          "durationTicks": 76,
          "midi": 60,
          "name": "C4",
          "ticks": 12960,
          "time": 50.625,
          "velocity": 0.8188976377952756
        },
        {
          "duration": 0.09375,
          "durationTicks": 24,
          "midi": 62,
          "name": "D4",
          "ticks": 13032,
          "time": 50.90625,
          "velocity": 0.8188976377952756
        },
        {
          "duration": 0.09375,
          "durationTicks": 24,
          "midi": 63,
          "name": "D#4",
          "ticks": 13056,
          "time": 51,
          "velocity": 0.8188976377952756
        },
        {
          "duration": 0.296875,
          "durationTicks": 76,
          "midi": 60,
          "name": "C4",
          "ticks": 13104,
          "time": 51.1875,
          "velocity": 0.8188976377952756
        },
        {
          "duration": 0.09375,
          "durationTicks": 24,
          "midi": 62,
          "name": "D4",
          "ticks": 13176,
          "time": 51.46875,
          "velocity": 0.8188976377952756
        },
        {
          "duration": 0.09375,
          "durationTicks": 24,
          "midi": 63,
          "name": "D#4",
          "ticks": 13200,
          "time": 51.5625,
          "velocity": 0.8188976377952756
        },
        {
          "duration": 0.0625,
          "durationTicks": 16,
          "midi": 56,
          "name": "G#3",
          "ticks": 13248,
          "time": 51.75,
          "velocity": 0.8188976377952756
        },
        {
          "duration": 0.0625,
          "durationTicks": 16,
          "midi": 56,
          "name": "G#3",
          "ticks": 13272,
          "time": 51.84375,
          "velocity": 0.8188976377952756
        },
        {
          "duration": 0.0625,
          "durationTicks": 16,
          "midi": 56,
          "name": "G#3",
          "ticks": 13296,
          "time": 51.9375,
          "velocity": 0.8188976377952756
        },
        {
          "duration": 0.15625,
          "durationTicks": 40,
          "midi": 59,
          "name": "B3",
          "ticks": 13344,
          "time": 52.125,
          "velocity": 0.8188976377952756
        },
        {
          "duration": 0.0625,
          "durationTicks": 16,
          "midi": 59,
          "name": "B3",
          "ticks": 13392,
          "time": 52.3125,
          "velocity": 0.8188976377952756
        },
        {
          "duration": 0.0625,
          "durationTicks": 16,
          "midi": 59,
          "name": "B3",
          "ticks": 13416,
          "time": 52.40625,
          "velocity": 0.8188976377952756
        },
        {
          "duration": 0.15625,
          "durationTicks": 40,
          "midi": 60,
          "name": "C4",
          "ticks": 13440,
          "time": 52.5,
          "velocity": 0.8188976377952756
        },
        {
          "duration": 0.0625,
          "durationTicks": 16,
          "midi": 60,
          "name": "C4",
          "ticks": 13512,
          "time": 52.78125,
          "velocity": 0.8188976377952756
        },
        {
          "duration": 0.09375,
          "durationTicks": 24,
          "midi": 60,
          "name": "C4",
          "ticks": 13536,
          "time": 52.875,
          "velocity": 0.8188976377952756
        },
        {
          "duration": 0.296875,
          "durationTicks": 76,
          "midi": 60,
          "name": "C4",
          "ticks": 13584,
          "time": 53.0625,
          "velocity": 0.8188976377952756
        },
        {
          "duration": 0.09375,
          "durationTicks": 24,
          "midi": 62,
          "name": "D4",
          "ticks": 13656,
          "time": 53.34375,
          "velocity": 0.8188976377952756
        },
        {
          "duration": 0.09375,
          "durationTicks": 24,
          "midi": 63,
          "name": "D#4",
          "ticks": 13680,
          "time": 53.4375,
          "velocity": 0.8188976377952756
        },
        {
          "duration": 0.296875,
          "durationTicks": 76,
          "midi": 60,
          "name": "C4",
          "ticks": 13728,
          "time": 53.625,
          "velocity": 0.8188976377952756
        },
        {
          "duration": 0.09375,
          "durationTicks": 24,
          "midi": 62,
          "name": "D4",
          "ticks": 13800,
          "time": 53.90625,
          "velocity": 0.8188976377952756
        },
        {
          "duration": 0.09375,
          "durationTicks": 24,
          "midi": 63,
          "name": "D#4",
          "ticks": 13824,
          "time": 54,
          "velocity": 0.8188976377952756
        },
        {
          "duration": 0.296875,
          "durationTicks": 76,
          "midi": 60,
          "name": "C4",
          "ticks": 13872,
          "time": 54.1875,
          "velocity": 0.8188976377952756
        },
        {
          "duration": 0.09375,
          "durationTicks": 24,
          "midi": 62,
          "name": "D4",
          "ticks": 13944,
          "time": 54.46875,
          "velocity": 0.8188976377952756
        },
        {
          "duration": 0.09375,
          "durationTicks": 24,
          "midi": 63,
          "name": "D#4",
          "ticks": 13968,
          "time": 54.5625,
          "velocity": 0.8188976377952756
        },
        {
          "duration": 0.0625,
          "durationTicks": 16,
          "midi": 68,
          "name": "G#4",
          "ticks": 14016,
          "time": 54.75,
          "velocity": 0.8188976377952756
        },
        {
          "duration": 0.0625,
          "durationTicks": 16,
          "midi": 68,
          "name": "G#4",
          "ticks": 14040,
          "time": 54.84375,
          "velocity": 0.8188976377952756
        },
        {
          "duration": 0.0625,
          "durationTicks": 16,
          "midi": 68,
          "name": "G#4",
          "ticks": 14064,
          "time": 54.9375,
          "velocity": 0.8188976377952756
        },
        {
          "duration": 0.15625,
          "durationTicks": 40,
          "midi": 67,
          "name": "G4",
          "ticks": 14112,
          "time": 55.125,
          "velocity": 0.8188976377952756
        },
        {
          "duration": 0.15625,
          "durationTicks": 40,
          "midi": 62,
          "name": "D4",
          "ticks": 14160,
          "time": 55.3125,
          "velocity": 0.8188976377952756
        },
        {
          "duration": 0.15625,
          "durationTicks": 40,
          "midi": 60,
          "name": "C4",
          "ticks": 14208,
          "time": 55.5,
          "velocity": 0.8188976377952756
        },
        {
          "duration": 0.0625,
          "durationTicks": 16,
          "midi": 60,
          "name": "C4",
          "ticks": 14280,
          "time": 55.78125,
          "velocity": 0.8188976377952756
        },
        {
          "duration": 0.09375,
          "durationTicks": 24,
          "midi": 60,
          "name": "C4",
          "ticks": 14304,
          "time": 55.875,
          "velocity": 0.8188976377952756
        },
        {
          "duration": 0.296875,
          "durationTicks": 76,
          "midi": 60,
          "name": "C4",
          "ticks": 14352,
          "time": 56.0625,
          "velocity": 0.8188976377952756
        },
        {
          "duration": 0.09375,
          "durationTicks": 24,
          "midi": 62,
          "name": "D4",
          "ticks": 14424,
          "time": 56.34375,
          "velocity": 0.8188976377952756
        },
        {
          "duration": 0.09375,
          "durationTicks": 24,
          "midi": 63,
          "name": "D#4",
          "ticks": 14448,
          "time": 56.4375,
          "velocity": 0.8188976377952756
        },
        {
          "duration": 0.296875,
          "durationTicks": 76,
          "midi": 60,
          "name": "C4",
          "ticks": 14496,
          "time": 56.625,
          "velocity": 0.8188976377952756
        },
        {
          "duration": 0.09375,
          "durationTicks": 24,
          "midi": 62,
          "name": "D4",
          "ticks": 14568,
          "time": 56.90625,
          "velocity": 0.8188976377952756
        },
        {
          "duration": 0.09375,
          "durationTicks": 24,
          "midi": 63,
          "name": "D#4",
          "ticks": 14592,
          "time": 57,
          "velocity": 0.8188976377952756
        },
        {
          "duration": 0.296875,
          "durationTicks": 76,
          "midi": 60,
          "name": "C4",
          "ticks": 14640,
          "time": 57.1875,
          "velocity": 0.8188976377952756
        },
        {
          "duration": 0.09375,
          "durationTicks": 24,
          "midi": 62,
          "name": "D4",
          "ticks": 14712,
          "time": 57.46875,
          "velocity": 0.8188976377952756
        },
        {
          "duration": 0.09375,
          "durationTicks": 24,
          "midi": 63,
          "name": "D#4",
          "ticks": 14736,
          "time": 57.5625,
          "velocity": 0.8188976377952756
        },
        {
          "duration": 0.0625,
          "durationTicks": 16,
          "midi": 56,
          "name": "G#3",
          "ticks": 14784,
          "time": 57.75,
          "velocity": 0.8188976377952756
        },
        {
          "duration": 0.0625,
          "durationTicks": 16,
          "midi": 56,
          "name": "G#3",
          "ticks": 14808,
          "time": 57.84375,
          "velocity": 0.8188976377952756
        },
        {
          "duration": 0.0625,
          "durationTicks": 16,
          "midi": 56,
          "name": "G#3",
          "ticks": 14832,
          "time": 57.9375,
          "velocity": 0.8188976377952756
        },
        {
          "duration": 0.15625,
          "durationTicks": 40,
          "midi": 59,
          "name": "B3",
          "ticks": 14880,
          "time": 58.125,
          "velocity": 0.8188976377952756
        },
        {
          "duration": 0.0625,
          "durationTicks": 16,
          "midi": 59,
          "name": "B3",
          "ticks": 14928,
          "time": 58.3125,
          "velocity": 0.8188976377952756
        },
        {
          "duration": 0.0625,
          "durationTicks": 16,
          "midi": 59,
          "name": "B3",
          "ticks": 14952,
          "time": 58.40625,
          "velocity": 0.8188976377952756
        },
        {
          "duration": 0.15625,
          "durationTicks": 40,
          "midi": 60,
          "name": "C4",
          "ticks": 14976,
          "time": 58.5,
          "velocity": 0.8188976377952756
        },
        {
          "duration": 0.0625,
          "durationTicks": 16,
          "midi": 60,
          "name": "C4",
          "ticks": 15048,
          "time": 58.78125,
          "velocity": 0.8188976377952756
        },
        {
          "duration": 0.09375,
          "durationTicks": 24,
          "midi": 60,
          "name": "C4",
          "ticks": 15072,
          "time": 58.875,
          "velocity": 0.8188976377952756
        },
        {
          "duration": 0.296875,
          "durationTicks": 76,
          "midi": 60,
          "name": "C4",
          "ticks": 15120,
          "time": 59.0625,
          "velocity": 0.8188976377952756
        },
        {
          "duration": 0.09375,
          "durationTicks": 24,
          "midi": 62,
          "name": "D4",
          "ticks": 15192,
          "time": 59.34375,
          "velocity": 0.8188976377952756
        },
        {
          "duration": 0.09375,
          "durationTicks": 24,
          "midi": 63,
          "name": "D#4",
          "ticks": 15216,
          "time": 59.4375,
          "velocity": 0.8188976377952756
        },
        {
          "duration": 0.15625,
          "durationTicks": 40,
          "midi": 60,
          "name": "C4",
          "ticks": 15264,
          "time": 59.625,
          "velocity": 0.8188976377952756
        },
        {
          "duration": 0.15625,
          "durationTicks": 40,
          "midi": 62,
          "name": "D4",
          "ticks": 15312,
          "time": 59.8125,
          "velocity": 0.8188976377952756
        },
        {
          "duration": 0.15625,
          "durationTicks": 40,
          "midi": 63,
          "name": "D#4",
          "ticks": 15360,
          "time": 60,
          "velocity": 0.8188976377952756
        },
        {
          "duration": 0.15625,
          "durationTicks": 40,
          "midi": 62,
          "name": "D4",
          "ticks": 15432,
          "time": 60.28125,
          "velocity": 0.8188976377952756
        },
        {
          "duration": 0.15625,
          "durationTicks": 40,
          "midi": 61,
          "name": "C#4",
          "ticks": 15504,
          "time": 60.5625,
          "velocity": 0.8188976377952756
        },
        {
          "duration": 0.15625,
          "durationTicks": 40,
          "midi": 60,
          "name": "C4",
          "ticks": 15576,
          "time": 60.84375,
          "velocity": 0.8188976377952756
        },
        {
          "duration": 0.15625,
          "durationTicks": 40,
          "midi": 59,
          "name": "B3",
          "ticks": 15648,
          "time": 61.125,
          "velocity": 0.8188976377952756
        },
        {
          "duration": 0.15625,
          "durationTicks": 40,
          "midi": 55,
          "name": "G3",
          "ticks": 15696,
          "time": 61.3125,
          "velocity": 0.8188976377952756
        },
        {
          "duration": 0.15625,
          "durationTicks": 40,
          "midi": 60,
          "name": "C4",
          "ticks": 21888,
          "time": 85.5,
          "velocity": 0.8188976377952756
        },
        {
          "duration": 0.0625,
          "durationTicks": 16,
          "midi": 60,
          "name": "C4",
          "ticks": 21960,
          "time": 85.78125,
          "velocity": 0.8188976377952756
        },
        {
          "duration": 0.09375,
          "durationTicks": 24,
          "midi": 60,
          "name": "C4",
          "ticks": 21984,
          "time": 85.875,
          "velocity": 0.8188976377952756
        },
        {
          "duration": 0.28125,
          "durationTicks": 72,
          "midi": 60,
          "name": "C4",
          "ticks": 22032,
          "time": 86.0625,
          "velocity": 0.8188976377952756
        },
        {
          "duration": 0.09375,
          "durationTicks": 24,
          "midi": 62,
          "name": "D4",
          "ticks": 22104,
          "time": 86.34375,
          "velocity": 0.8188976377952756
        },
        {
          "duration": 0.09375,
          "durationTicks": 24,
          "midi": 63,
          "name": "D#4",
          "ticks": 22128,
          "time": 86.4375,
          "velocity": 0.8188976377952756
        },
        {
          "duration": 0.296875,
          "durationTicks": 76,
          "midi": 60,
          "name": "C4",
          "ticks": 22176,
          "time": 86.625,
          "velocity": 0.8188976377952756
        },
        {
          "duration": 0.09375,
          "durationTicks": 24,
          "midi": 62,
          "name": "D4",
          "ticks": 22248,
          "time": 86.90625,
          "velocity": 0.8188976377952756
        },
        {
          "duration": 0.09375,
          "durationTicks": 24,
          "midi": 63,
          "name": "D#4",
          "ticks": 22272,
          "time": 87,
          "velocity": 0.8188976377952756
        },
        {
          "duration": 0.296875,
          "durationTicks": 76,
          "midi": 60,
          "name": "C4",
          "ticks": 22320,
          "time": 87.1875,
          "velocity": 0.8188976377952756
        },
        {
          "duration": 0.09375,
          "durationTicks": 24,
          "midi": 62,
          "name": "D4",
          "ticks": 22392,
          "time": 87.46875,
          "velocity": 0.8188976377952756
        },
        {
          "duration": 0.09375,
          "durationTicks": 24,
          "midi": 63,
          "name": "D#4",
          "ticks": 22416,
          "time": 87.5625,
          "velocity": 0.8188976377952756
        },
        {
          "duration": 0.1875,
          "durationTicks": 48,
          "midi": 56,
          "name": "G#3",
          "ticks": 22464,
          "time": 87.75,
          "velocity": 0.8188976377952756
        },
        {
          "duration": 0.1875,
          "durationTicks": 48,
          "midi": 59,
          "name": "B3",
          "ticks": 22512,
          "time": 87.9375,
          "velocity": 0.8188976377952756
        },
        {
          "duration": 0.15625,
          "durationTicks": 40,
          "midi": 60,
          "name": "C4",
          "ticks": 22560,
          "time": 88.125,
          "velocity": 0.8188976377952756
        },
        {
          "duration": 0.0625,
          "durationTicks": 16,
          "midi": 60,
          "name": "C4",
          "ticks": 22632,
          "time": 88.40625,
          "velocity": 0.8188976377952756
        },
        {
          "duration": 0.09375,
          "durationTicks": 24,
          "midi": 60,
          "name": "C4",
          "ticks": 22656,
          "time": 88.5,
          "velocity": 0.8188976377952756
        },
        {
          "duration": 0.296875,
          "durationTicks": 76,
          "midi": 60,
          "name": "C4",
          "ticks": 22704,
          "time": 88.6875,
          "velocity": 0.8188976377952756
        },
        {
          "duration": 0.09375,
          "durationTicks": 24,
          "midi": 62,
          "name": "D4",
          "ticks": 22776,
          "time": 88.96875,
          "velocity": 0.8188976377952756
        },
        {
          "duration": 0.09375,
          "durationTicks": 24,
          "midi": 63,
          "name": "D#4",
          "ticks": 22800,
          "time": 89.0625,
          "velocity": 0.8188976377952756
        },
        {
          "duration": 0.296875,
          "durationTicks": 76,
          "midi": 60,
          "name": "C4",
          "ticks": 22848,
          "time": 89.25,
          "velocity": 0.8188976377952756
        },
        {
          "duration": 0.09375,
          "durationTicks": 24,
          "midi": 62,
          "name": "D4",
          "ticks": 22920,
          "time": 89.53125,
          "velocity": 0.8188976377952756
        },
        {
          "duration": 0.09375,
          "durationTicks": 24,
          "midi": 63,
          "name": "D#4",
          "ticks": 22944,
          "time": 89.625,
          "velocity": 0.8188976377952756
        },
        {
          "duration": 0.296875,
          "durationTicks": 76,
          "midi": 60,
          "name": "C4",
          "ticks": 22992,
          "time": 89.8125,
          "velocity": 0.8188976377952756
        },
        {
          "duration": 0.09375,
          "durationTicks": 24,
          "midi": 62,
          "name": "D4",
          "ticks": 23064,
          "time": 90.09375,
          "velocity": 0.8188976377952756
        },
        {
          "duration": 0.09375,
          "durationTicks": 24,
          "midi": 63,
          "name": "D#4",
          "ticks": 23088,
          "time": 90.1875,
          "velocity": 0.8188976377952756
        },
        {
          "duration": 0.1875,
          "durationTicks": 48,
          "midi": 68,
          "name": "G#4",
          "ticks": 23136,
          "time": 90.375,
          "velocity": 0.8188976377952756
        },
        {
          "duration": 0.1875,
          "durationTicks": 48,
          "midi": 67,
          "name": "G4",
          "ticks": 23184,
          "time": 90.5625,
          "velocity": 0.8188976377952756
        },
        {
          "duration": 0.15625,
          "durationTicks": 40,
          "midi": 60,
          "name": "C4",
          "ticks": 23232,
          "time": 90.75,
          "velocity": 0.8188976377952756
        },
        {
          "duration": 0.0625,
          "durationTicks": 16,
          "midi": 60,
          "name": "C4",
          "ticks": 23304,
          "time": 91.03125,
          "velocity": 0.8188976377952756
        },
        {
          "duration": 0.09375,
          "durationTicks": 24,
          "midi": 60,
          "name": "C4",
          "ticks": 23328,
          "time": 91.125,
          "velocity": 0.8188976377952756
        },
        {
          "duration": 0.296875,
          "durationTicks": 76,
          "midi": 60,
          "name": "C4",
          "ticks": 23376,
          "time": 91.3125,
          "velocity": 0.8188976377952756
        },
        {
          "duration": 0.09375,
          "durationTicks": 24,
          "midi": 62,
          "name": "D4",
          "ticks": 23448,
          "time": 91.59375,
          "velocity": 0.8188976377952756
        },
        {
          "duration": 0.09375,
          "durationTicks": 24,
          "midi": 63,
          "name": "D#4",
          "ticks": 23472,
          "time": 91.6875,
          "velocity": 0.8188976377952756
        },
        {
          "duration": 0.296875,
          "durationTicks": 76,
          "midi": 60,
          "name": "C4",
          "ticks": 23520,
          "time": 91.875,
          "velocity": 0.8188976377952756
        },
        {
          "duration": 0.09375,
          "durationTicks": 24,
          "midi": 62,
          "name": "D4",
          "ticks": 23592,
          "time": 92.15625,
          "velocity": 0.8188976377952756
        },
        {
          "duration": 0.09375,
          "durationTicks": 24,
          "midi": 63,
          "name": "D#4",
          "ticks": 23616,
          "time": 92.25,
          "velocity": 0.8188976377952756
        },
        {
          "duration": 0.296875,
          "durationTicks": 76,
          "midi": 60,
          "name": "C4",
          "ticks": 23664,
          "time": 92.4375,
          "velocity": 0.8188976377952756
        },
        {
          "duration": 0.09375,
          "durationTicks": 24,
          "midi": 62,
          "name": "D4",
          "ticks": 23736,
          "time": 92.71875,
          "velocity": 0.8188976377952756
        },
        {
          "duration": 0.09375,
          "durationTicks": 24,
          "midi": 63,
          "name": "D#4",
          "ticks": 23760,
          "time": 92.8125,
          "velocity": 0.8188976377952756
        },
        {
          "duration": 0.1875,
          "durationTicks": 48,
          "midi": 56,
          "name": "G#3",
          "ticks": 23808,
          "time": 93,
          "velocity": 0.8188976377952756
        },
        {
          "duration": 0.0625,
          "durationTicks": 16,
          "midi": 59,
          "name": "B3",
          "ticks": 23856,
          "time": 93.1875,
          "velocity": 0.8188976377952756
        },
        {
          "duration": 0.03125,
          "durationTicks": 8,
          "midi": 59,
          "name": "B3",
          "ticks": 23888,
          "time": 93.3125,
          "velocity": 0.8188976377952756
        },
        {
          "duration": 0.15625,
          "durationTicks": 40,
          "midi": 60,
          "name": "C4",
          "ticks": 23904,
          "time": 93.375,
          "velocity": 0.8188976377952756
        },
        {
          "duration": 0.0625,
          "durationTicks": 16,
          "midi": 60,
          "name": "C4",
          "ticks": 23976,
          "time": 93.65625,
          "velocity": 0.8188976377952756
        },
        {
          "duration": 0.01953125,
          "durationTicks": 5,
          "midi": 60,
          "name": "C4",
          "ticks": 24000,
          "time": 93.75,
          "velocity": 0.7795275590551181
        },
        {
          "duration": 0.01953125,
          "durationTicks": 5,
          "midi": 59,
          "name": "B3",
          "ticks": 24004,
          "time": 93.765625,
          "velocity": 0.7559055118110236
        },
        {
          "duration": 0.01953125,
          "durationTicks": 5,
          "midi": 58,
          "name": "A#3",
          "ticks": 24007,
          "time": 93.77734375,
          "velocity": 0.7480314960629921
        },
        {
          "duration": 0.01953125,
          "durationTicks": 5,
          "midi": 57,
          "name": "A3",
          "ticks": 24011,
          "time": 93.79296875,
          "velocity": 0.7244094488188977
        },
        {
          "duration": 0.01953125,
          "durationTicks": 5,
          "midi": 56,
          "name": "G#3",
          "ticks": 24014,
          "time": 93.8046875,
          "velocity": 0.7086614173228346
        },
        {
          "duration": 0.01953125,
          "durationTicks": 5,
          "midi": 55,
          "name": "G3",
          "ticks": 24018,
          "time": 93.8203125,
          "velocity": 0.6929133858267716
        },
        {
          "duration": 0.01953125,
          "durationTicks": 5,
          "midi": 54,
          "name": "F#3",
          "ticks": 24021,
          "time": 93.83203125,
          "velocity": 0.6771653543307087
        },
        {
          "duration": 0.01953125,
          "durationTicks": 5,
          "midi": 53,
          "name": "F3",
          "ticks": 24025,
          "time": 93.84765625,
          "velocity": 0.6614173228346457
        },
        {
          "duration": 0.01953125,
          "durationTicks": 5,
          "midi": 52,
          "name": "E3",
          "ticks": 24028,
          "time": 93.859375,
          "velocity": 0.6456692913385826
        },
        {
          "duration": 0.01953125,
          "durationTicks": 5,
          "midi": 51,
          "name": "D#3",
          "ticks": 24032,
          "time": 93.875,
          "velocity": 0.6299212598425197
        },
        {
          "duration": 0.01953125,
          "durationTicks": 5,
          "midi": 50,
          "name": "D3",
          "ticks": 24035,
          "time": 93.88671875,
          "velocity": 0.6141732283464567
        },
        {
          "duration": 0.01953125,
          "durationTicks": 5,
          "midi": 49,
          "name": "C#3",
          "ticks": 24039,
          "time": 93.90234375,
          "velocity": 0.5984251968503937
        },
        {
          "duration": 0.0625,
          "durationTicks": 16,
          "midi": 60,
          "name": "C4",
          "ticks": 24048,
          "time": 93.9375,
          "velocity": 0.8188976377952756
        },
        {
          "duration": 0.0625,
          "durationTicks": 16,
          "midi": 60,
          "name": "C4",
          "ticks": 24072,
          "time": 94.03125,
          "velocity": 0.8188976377952756
        },
        {
          "duration": 0.15625,
          "durationTicks": 40,
          "midi": 60,
          "name": "C4",
          "ticks": 24096,
          "time": 94.125,
          "velocity": 0.8188976377952756
        },
        {
          "duration": 0.09375,
          "durationTicks": 24,
          "midi": 63,
          "name": "D#4",
          "ticks": 24144,
          "time": 94.3125,
          "velocity": 0.8188976377952756
        },
        {
          "duration": 0.0625,
          "durationTicks": 16,
          "midi": 60,
          "name": "C4",
          "ticks": 24192,
          "time": 94.5,
          "velocity": 0.8188976377952756
        },
        {
          "duration": 0.0625,
          "durationTicks": 16,
          "midi": 60,
          "name": "C4",
          "ticks": 24216,
          "time": 94.59375,
          "velocity": 0.8188976377952756
        },
        {
          "duration": 0.09375,
          "durationTicks": 24,
          "midi": 60,
          "name": "C4",
          "ticks": 24240,
          "time": 94.6875,
          "velocity": 0.8188976377952756
        },
        {
          "duration": 0.09375,
          "durationTicks": 24,
          "midi": 62,
          "name": "D4",
          "ticks": 24264,
          "time": 94.78125,
          "velocity": 0.8188976377952756
        },
        {
          "duration": 0.09375,
          "durationTicks": 24,
          "midi": 63,
          "name": "D#4",
          "ticks": 24288,
          "time": 94.875,
          "velocity": 0.8188976377952756
        },
        {
          "duration": 0.01953125,
          "durationTicks": 5,
          "midi": 60,
          "name": "C4",
          "ticks": 24336,
          "time": 95.0625,
          "velocity": 0.7795275590551181
        },
        {
          "duration": 0.01953125,
          "durationTicks": 5,
          "midi": 59,
          "name": "B3",
          "ticks": 24340,
          "time": 95.078125,
          "velocity": 0.7559055118110236
        },
        {
          "duration": 0.01953125,
          "durationTicks": 5,
          "midi": 58,
          "name": "A#3",
          "ticks": 24343,
          "time": 95.08984375,
          "velocity": 0.7480314960629921
        },
        {
          "duration": 0.01953125,
          "durationTicks": 5,
          "midi": 57,
          "name": "A3",
          "ticks": 24347,
          "time": 95.10546875,
          "velocity": 0.7244094488188977
        },
        {
          "duration": 0.01953125,
          "durationTicks": 5,
          "midi": 56,
          "name": "G#3",
          "ticks": 24350,
          "time": 95.1171875,
          "velocity": 0.7086614173228346
        },
        {
          "duration": 0.01953125,
          "durationTicks": 5,
          "midi": 55,
          "name": "G3",
          "ticks": 24354,
          "time": 95.1328125,
          "velocity": 0.6929133858267716
        },
        {
          "duration": 0.01953125,
          "durationTicks": 5,
          "midi": 54,
          "name": "F#3",
          "ticks": 24357,
          "time": 95.14453125,
          "velocity": 0.6771653543307087
        },
        {
          "duration": 0.01953125,
          "durationTicks": 5,
          "midi": 53,
          "name": "F3",
          "ticks": 24361,
          "time": 95.16015625,
          "velocity": 0.6614173228346457
        },
        {
          "duration": 0.01953125,
          "durationTicks": 5,
          "midi": 52,
          "name": "E3",
          "ticks": 24364,
          "time": 95.171875,
          "velocity": 0.6456692913385826
        },
        {
          "duration": 0.01953125,
          "durationTicks": 5,
          "midi": 51,
          "name": "D#3",
          "ticks": 24368,
          "time": 95.1875,
          "velocity": 0.6299212598425197
        },
        {
          "duration": 0.01953125,
          "durationTicks": 5,
          "midi": 50,
          "name": "D3",
          "ticks": 24371,
          "time": 95.19921875,
          "velocity": 0.6141732283464567
        },
        {
          "duration": 0.01953125,
          "durationTicks": 5,
          "midi": 49,
          "name": "C#3",
          "ticks": 24375,
          "time": 95.21484375,
          "velocity": 0.5984251968503937
        },
        {
          "duration": 0.1875,
          "durationTicks": 48,
          "midi": 60,
          "name": "C4",
          "ticks": 24384,
          "time": 95.25,
          "velocity": 0.8188976377952756
        },
        {
          "duration": 0.15625,
          "durationTicks": 40,
          "midi": 63,
          "name": "D#4",
          "ticks": 24432,
          "time": 95.4375,
          "velocity": 0.8188976377952756
        },
        {
          "duration": 0.0625,
          "durationTicks": 16,
          "midi": 67,
          "name": "G4",
          "ticks": 24528,
          "time": 95.8125,
          "velocity": 0.8188976377952756
        },
        {
          "duration": 0.0625,
          "durationTicks": 16,
          "midi": 67,
          "name": "G4",
          "ticks": 24552,
          "time": 95.90625,
          "velocity": 0.8188976377952756
        },
        {
          "duration": 0.15625,
          "durationTicks": 40,
          "midi": 60,
          "name": "C4",
          "ticks": 24576,
          "time": 96,
          "velocity": 0.8188976377952756
        },
        {
          "duration": 0.0625,
          "durationTicks": 16,
          "midi": 60,
          "name": "C4",
          "ticks": 24648,
          "time": 96.28125,
          "velocity": 0.8188976377952756
        },
        {
          "duration": 0.09375,
          "durationTicks": 24,
          "midi": 60,
          "name": "C4",
          "ticks": 24672,
          "time": 96.375,
          "velocity": 0.8188976377952756
        },
        {
          "duration": 0.296875,
          "durationTicks": 76,
          "midi": 60,
          "name": "C4",
          "ticks": 24720,
          "time": 96.5625,
          "velocity": 0.8188976377952756
        },
        {
          "duration": 0.09375,
          "durationTicks": 24,
          "midi": 62,
          "name": "D4",
          "ticks": 24792,
          "time": 96.84375,
          "velocity": 0.8188976377952756
        },
        {
          "duration": 0.09375,
          "durationTicks": 24,
          "midi": 63,
          "name": "D#4",
          "ticks": 24816,
          "time": 96.9375,
          "velocity": 0.8188976377952756
        },
        {
          "duration": 0.296875,
          "durationTicks": 76,
          "midi": 60,
          "name": "C4",
          "ticks": 24864,
          "time": 97.125,
          "velocity": 0.8188976377952756
        },
        {
          "duration": 0.09375,
          "durationTicks": 24,
          "midi": 62,
          "name": "D4",
          "ticks": 24936,
          "time": 97.40625,
          "velocity": 0.8188976377952756
        },
        {
          "duration": 0.09375,
          "durationTicks": 24,
          "midi": 63,
          "name": "D#4",
          "ticks": 24960,
          "time": 97.5,
          "velocity": 0.8188976377952756
        },
        {
          "duration": 0.296875,
          "durationTicks": 76,
          "midi": 60,
          "name": "C4",
          "ticks": 25008,
          "time": 97.6875,
          "velocity": 0.8188976377952756
        },
        {
          "duration": 0.09375,
          "durationTicks": 24,
          "midi": 62,
          "name": "D4",
          "ticks": 25080,
          "time": 97.96875,
          "velocity": 0.8188976377952756
        },
        {
          "duration": 0.09375,
          "durationTicks": 24,
          "midi": 63,
          "name": "D#4",
          "ticks": 25104,
          "time": 98.0625,
          "velocity": 0.8188976377952756
        },
        {
          "duration": 0.1875,
          "durationTicks": 48,
          "midi": 56,
          "name": "G#3",
          "ticks": 25152,
          "time": 98.25,
          "velocity": 0.8188976377952756
        },
        {
          "duration": 0.1875,
          "durationTicks": 48,
          "midi": 59,
          "name": "B3",
          "ticks": 25200,
          "time": 98.4375,
          "velocity": 0.8188976377952756
        },
        {
          "duration": 0.15625,
          "durationTicks": 40,
          "midi": 60,
          "name": "C4",
          "ticks": 25248,
          "time": 98.625,
          "velocity": 0.8188976377952756
        },
        {
          "duration": 0.0625,
          "durationTicks": 16,
          "midi": 60,
          "name": "C4",
          "ticks": 25320,
          "time": 98.90625,
          "velocity": 0.8188976377952756
        },
        {
          "duration": 0.09375,
          "durationTicks": 24,
          "midi": 60,
          "name": "C4",
          "ticks": 25344,
          "time": 99,
          "velocity": 0.8188976377952756
        },
        {
          "duration": 0.296875,
          "durationTicks": 76,
          "midi": 60,
          "name": "C4",
          "ticks": 25392,
          "time": 99.1875,
          "velocity": 0.8188976377952756
        },
        {
          "duration": 0.09375,
          "durationTicks": 24,
          "midi": 62,
          "name": "D4",
          "ticks": 25464,
          "time": 99.46875,
          "velocity": 0.8188976377952756
        },
        {
          "duration": 0.09375,
          "durationTicks": 24,
          "midi": 63,
          "name": "D#4",
          "ticks": 25488,
          "time": 99.5625,
          "velocity": 0.8188976377952756
        },
        {
          "duration": 0.296875,
          "durationTicks": 76,
          "midi": 60,
          "name": "C4",
          "ticks": 25536,
          "time": 99.75,
          "velocity": 0.8188976377952756
        },
        {
          "duration": 0.09375,
          "durationTicks": 24,
          "midi": 62,
          "name": "D4",
          "ticks": 25608,
          "time": 100.03125,
          "velocity": 0.8188976377952756
        },
        {
          "duration": 0.09375,
          "durationTicks": 24,
          "midi": 63,
          "name": "D#4",
          "ticks": 25632,
          "time": 100.125,
          "velocity": 0.8188976377952756
        },
        {
          "duration": 0.296875,
          "durationTicks": 76,
          "midi": 60,
          "name": "C4",
          "ticks": 25680,
          "time": 100.3125,
          "velocity": 0.8188976377952756
        },
        {
          "duration": 0.09375,
          "durationTicks": 24,
          "midi": 62,
          "name": "D4",
          "ticks": 25752,
          "time": 100.59375,
          "velocity": 0.8188976377952756
        },
        {
          "duration": 0.09375,
          "durationTicks": 24,
          "midi": 63,
          "name": "D#4",
          "ticks": 25776,
          "time": 100.6875,
          "velocity": 0.8188976377952756
        },
        {
          "duration": 0.1875,
          "durationTicks": 48,
          "midi": 68,
          "name": "G#4",
          "ticks": 25824,
          "time": 100.875,
          "velocity": 0.8188976377952756
        },
        {
          "duration": 0.1875,
          "durationTicks": 48,
          "midi": 67,
          "name": "G4",
          "ticks": 25872,
          "time": 101.0625,
          "velocity": 0.8188976377952756
        },
        {
          "duration": 0.15625,
          "durationTicks": 40,
          "midi": 60,
          "name": "C4",
          "ticks": 25920,
          "time": 101.25,
          "velocity": 0.8188976377952756
        },
        {
          "duration": 0.0625,
          "durationTicks": 16,
          "midi": 60,
          "name": "C4",
          "ticks": 25992,
          "time": 101.53125,
          "velocity": 0.8188976377952756
        },
        {
          "duration": 0.09375,
          "durationTicks": 24,
          "midi": 60,
          "name": "C4",
          "ticks": 26016,
          "time": 101.625,
          "velocity": 0.8188976377952756
        },
        {
          "duration": 0.296875,
          "durationTicks": 76,
          "midi": 60,
          "name": "C4",
          "ticks": 26064,
          "time": 101.8125,
          "velocity": 0.8188976377952756
        },
        {
          "duration": 0.09375,
          "durationTicks": 24,
          "midi": 62,
          "name": "D4",
          "ticks": 26136,
          "time": 102.09375,
          "velocity": 0.8188976377952756
        },
        {
          "duration": 0.09375,
          "durationTicks": 24,
          "midi": 63,
          "name": "D#4",
          "ticks": 26160,
          "time": 102.1875,
          "velocity": 0.8188976377952756
        },
        {
          "duration": 0.296875,
          "durationTicks": 76,
          "midi": 60,
          "name": "C4",
          "ticks": 26208,
          "time": 102.375,
          "velocity": 0.8188976377952756
        },
        {
          "duration": 0.09375,
          "durationTicks": 24,
          "midi": 62,
          "name": "D4",
          "ticks": 26280,
          "time": 102.65625,
          "velocity": 0.8188976377952756
        },
        {
          "duration": 0.09375,
          "durationTicks": 24,
          "midi": 63,
          "name": "D#4",
          "ticks": 26304,
          "time": 102.75,
          "velocity": 0.8188976377952756
        },
        {
          "duration": 0.296875,
          "durationTicks": 76,
          "midi": 60,
          "name": "C4",
          "ticks": 26352,
          "time": 102.9375,
          "velocity": 0.8188976377952756
        },
        {
          "duration": 0.09375,
          "durationTicks": 24,
          "midi": 62,
          "name": "D4",
          "ticks": 26424,
          "time": 103.21875,
          "velocity": 0.8188976377952756
        },
        {
          "duration": 0.09375,
          "durationTicks": 24,
          "midi": 63,
          "name": "D#4",
          "ticks": 26448,
          "time": 103.3125,
          "velocity": 0.8188976377952756
        },
        {
          "duration": 0.1875,
          "durationTicks": 48,
          "midi": 56,
          "name": "G#3",
          "ticks": 26496,
          "time": 103.5,
          "velocity": 0.8188976377952756
        },
        {
          "duration": 0.1875,
          "durationTicks": 48,
          "midi": 59,
          "name": "B3",
          "ticks": 26544,
          "time": 103.6875,
          "velocity": 0.8188976377952756
        },
        {
          "duration": 0.15625,
          "durationTicks": 40,
          "midi": 60,
          "name": "C4",
          "ticks": 26592,
          "time": 103.875,
          "velocity": 0.8188976377952756
        },
        {
          "duration": 0.0625,
          "durationTicks": 16,
          "midi": 60,
          "name": "C4",
          "ticks": 26664,
          "time": 104.15625,
          "velocity": 0.8188976377952756
        },
        {
          "duration": 0.09375,
          "durationTicks": 24,
          "midi": 60,
          "name": "C4",
          "ticks": 26688,
          "time": 104.25,
          "velocity": 0.8188976377952756
        },
        {
          "duration": 0.296875,
          "durationTicks": 76,
          "midi": 60,
          "name": "C4",
          "ticks": 26736,
          "time": 104.4375,
          "velocity": 0.8188976377952756
        },
        {
          "duration": 0.09375,
          "durationTicks": 24,
          "midi": 62,
          "name": "D4",
          "ticks": 26808,
          "time": 104.71875,
          "velocity": 0.8188976377952756
        },
        {
          "duration": 0.09375,
          "durationTicks": 24,
          "midi": 63,
          "name": "D#4",
          "ticks": 26832,
          "time": 104.8125,
          "velocity": 0.8188976377952756
        },
        {
          "duration": 0.296875,
          "durationTicks": 76,
          "midi": 60,
          "name": "C4",
          "ticks": 26880,
          "time": 105,
          "velocity": 0.8188976377952756
        },
        {
          "duration": 0.09375,
          "durationTicks": 24,
          "midi": 62,
          "name": "D4",
          "ticks": 26952,
          "time": 105.28125,
          "velocity": 0.8188976377952756
        },
        {
          "duration": 0.09375,
          "durationTicks": 24,
          "midi": 63,
          "name": "D#4",
          "ticks": 26976,
          "time": 105.375,
          "velocity": 0.8188976377952756
        },
        {
          "duration": 0.296875,
          "durationTicks": 76,
          "midi": 60,
          "name": "C4",
          "ticks": 27024,
          "time": 105.5625,
          "velocity": 0.8188976377952756
        },
        {
          "duration": 0.09375,
          "durationTicks": 24,
          "midi": 62,
          "name": "D4",
          "ticks": 27096,
          "time": 105.84375,
          "velocity": 0.5984251968503937
        },
        {
          "duration": 0.09375,
          "durationTicks": 24,
          "midi": 63,
          "name": "D#4",
          "ticks": 27120,
          "time": 105.9375,
          "velocity": 0.5511811023622047
        },
        {
          "duration": 0.1875,
          "durationTicks": 48,
          "midi": 68,
          "name": "G#4",
          "ticks": 27168,
          "time": 106.125,
          "velocity": 0.44881889763779526
        },
        {
          "duration": 0.1875,
          "durationTicks": 48,
          "midi": 67,
          "name": "G4",
          "ticks": 27216,
          "time": 106.3125,
          "velocity": 0.3464566929133858
        },
        {
          "duration": 0.15625,
          "durationTicks": 40,
          "midi": 60,
          "name": "C4",
          "ticks": 27264,
          "time": 106.5,
          "velocity": 0.8188976377952756
        },
        {
          "duration": 0.0625,
          "durationTicks": 16,
          "midi": 60,
          "name": "C4",
          "ticks": 27336,
          "time": 106.78125,
          "velocity": 0.8188976377952756
        },
        {
          "duration": 0.09375,
          "durationTicks": 24,
          "midi": 60,
          "name": "C4",
          "ticks": 27360,
          "time": 106.875,
          "velocity": 0.8188976377952756
        },
        {
          "duration": 0.296875,
          "durationTicks": 76,
          "midi": 60,
          "name": "C4",
          "ticks": 27408,
          "time": 107.0625,
          "velocity": 0.8188976377952756
        },
        {
          "duration": 0.09375,
          "durationTicks": 24,
          "midi": 62,
          "name": "D4",
          "ticks": 27480,
          "time": 107.34375,
          "velocity": 0.8188976377952756
        },
        {
          "duration": 0.09375,
          "durationTicks": 24,
          "midi": 63,
          "name": "D#4",
          "ticks": 27504,
          "time": 107.4375,
          "velocity": 0.8188976377952756
        },
        {
          "duration": 0.296875,
          "durationTicks": 76,
          "midi": 60,
          "name": "C4",
          "ticks": 27552,
          "time": 107.625,
          "velocity": 0.8188976377952756
        },
        {
          "duration": 0.09375,
          "durationTicks": 24,
          "midi": 62,
          "name": "D4",
          "ticks": 27624,
          "time": 107.90625,
          "velocity": 0.8188976377952756
        },
        {
          "duration": 0.09375,
          "durationTicks": 24,
          "midi": 63,
          "name": "D#4",
          "ticks": 27648,
          "time": 108,
          "velocity": 0.8188976377952756
        },
        {
          "duration": 0.296875,
          "durationTicks": 76,
          "midi": 60,
          "name": "C4",
          "ticks": 27696,
          "time": 108.1875,
          "velocity": 0.8188976377952756
        },
        {
          "duration": 0.09375,
          "durationTicks": 24,
          "midi": 62,
          "name": "D4",
          "ticks": 27768,
          "time": 108.46875,
          "velocity": 0.8188976377952756
        },
        {
          "duration": 0.09375,
          "durationTicks": 24,
          "midi": 63,
          "name": "D#4",
          "ticks": 27792,
          "time": 108.5625,
          "velocity": 0.8188976377952756
        },
        {
          "duration": 0.296875,
          "durationTicks": 76,
          "midi": 60,
          "name": "C4",
          "ticks": 27840,
          "time": 108.75,
          "velocity": 0.8188976377952756
        },
        {
          "duration": 0.09375,
          "durationTicks": 24,
          "midi": 62,
          "name": "D4",
          "ticks": 27912,
          "time": 109.03125,
          "velocity": 0.8188976377952756
        },
        {
          "duration": 0.09375,
          "durationTicks": 24,
          "midi": 63,
          "name": "D#4",
          "ticks": 27936,
          "time": 109.125,
          "velocity": 0.8188976377952756
        },
        {
          "duration": 0.296875,
          "durationTicks": 76,
          "midi": 60,
          "name": "C4",
          "ticks": 27984,
          "time": 109.3125,
          "velocity": 0.8188976377952756
        },
        {
          "duration": 0.09375,
          "durationTicks": 24,
          "midi": 62,
          "name": "D4",
          "ticks": 28056,
          "time": 109.59375,
          "velocity": 0.8188976377952756
        },
        {
          "duration": 0.09375,
          "durationTicks": 24,
          "midi": 63,
          "name": "D#4",
          "ticks": 28080,
          "time": 109.6875,
          "velocity": 0.8188976377952756
        },
        {
          "duration": 0.296875,
          "durationTicks": 76,
          "midi": 60,
          "name": "C4",
          "ticks": 28128,
          "time": 109.875,
          "velocity": 0.8188976377952756
        },
        {
          "duration": 0.09375,
          "durationTicks": 24,
          "midi": 62,
          "name": "D4",
          "ticks": 28200,
          "time": 110.15625,
          "velocity": 0.8188976377952756
        },
        {
          "duration": 0.09375,
          "durationTicks": 24,
          "midi": 63,
          "name": "D#4",
          "ticks": 28224,
          "time": 110.25,
          "velocity": 0.8188976377952756
        },
        {
          "duration": 0.296875,
          "durationTicks": 76,
          "midi": 60,
          "name": "C4",
          "ticks": 28272,
          "time": 110.4375,
          "velocity": 0.8188976377952756
        },
        {
          "duration": 0.09375,
          "durationTicks": 24,
          "midi": 62,
          "name": "D4",
          "ticks": 28344,
          "time": 110.71875,
          "velocity": 0.8188976377952756
        },
        {
          "duration": 0.09375,
          "durationTicks": 24,
          "midi": 63,
          "name": "D#4",
          "ticks": 28368,
          "time": 110.8125,
          "velocity": 0.8188976377952756
        },
        {
          "duration": 0.296875,
          "durationTicks": 76,
          "midi": 60,
          "name": "C4",
          "ticks": 28416,
          "time": 111,
          "velocity": 0.8188976377952756
        },
        {
          "duration": 0.09375,
          "durationTicks": 24,
          "midi": 62,
          "name": "D4",
          "ticks": 28488,
          "time": 111.28125,
          "velocity": 0.8188976377952756
        },
        {
          "duration": 0.09375,
          "durationTicks": 24,
          "midi": 63,
          "name": "D#4",
          "ticks": 28512,
          "time": 111.375,
          "velocity": 0.8188976377952756
        },
        {
          "duration": 0.296875,
          "durationTicks": 76,
          "midi": 60,
          "name": "C4",
          "ticks": 28536,
          "time": 111.46875,
          "velocity": 0.8188976377952756
        },
        {
          "duration": 0.09375,
          "durationTicks": 24,
          "midi": 62,
          "name": "D4",
          "ticks": 28608,
          "time": 111.75,
          "velocity": 0.8188976377952756
        },
        {
          "duration": 0.09375,
          "durationTicks": 24,
          "midi": 63,
          "name": "D#4",
          "ticks": 28632,
          "time": 111.84375,
          "velocity": 0.8188976377952756
        },
        {
          "duration": 0.296875,
          "durationTicks": 76,
          "midi": 60,
          "name": "C4",
          "ticks": 28656,
          "time": 111.9375,
          "velocity": 0.8188976377952756
        },
        {
          "duration": 0.09375,
          "durationTicks": 24,
          "midi": 62,
          "name": "D4",
          "ticks": 28728,
          "time": 112.21875,
          "velocity": 0.8188976377952756
        },
        {
          "duration": 0.09375,
          "durationTicks": 24,
          "midi": 63,
          "name": "D#4",
          "ticks": 28752,
          "time": 112.3125,
          "velocity": 0.8188976377952756
        },
        {
          "duration": 0.1875,
          "durationTicks": 48,
          "midi": 60,
          "name": "C4",
          "ticks": 28776,
          "time": 112.40625,
          "velocity": 0.8188976377952756
        },
        {
          "duration": 0.09375,
          "durationTicks": 24,
          "midi": 62,
          "name": "D4",
          "ticks": 28824,
          "time": 112.59375,
          "velocity": 0.8188976377952756
        },
        {
          "duration": 0.09375,
          "durationTicks": 24,
          "midi": 63,
          "name": "D#4",
          "ticks": 28848,
          "time": 112.6875,
          "velocity": 0.8188976377952756
        },
        {
          "duration": 0.1875,
          "durationTicks": 48,
          "midi": 60,
          "name": "C4",
          "ticks": 28872,
          "time": 112.78125,
          "velocity": 0.8188976377952756
        },
        {
          "duration": 0.09375,
          "durationTicks": 24,
          "midi": 62,
          "name": "D4",
          "ticks": 28920,
          "time": 112.96875,
          "velocity": 0.8188976377952756
        },
        {
          "duration": 0.09375,
          "durationTicks": 24,
          "midi": 63,
          "name": "D#4",
          "ticks": 28944,
          "time": 113.0625,
          "velocity": 0.8188976377952756
        },
        {
          "duration": 0.1875,
          "durationTicks": 48,
          "midi": 60,
          "name": "C4",
          "ticks": 28968,
          "time": 113.15625,
          "velocity": 0.8188976377952756
        },
        {
          "duration": 0.09375,
          "durationTicks": 24,
          "midi": 62,
          "name": "D4",
          "ticks": 29016,
          "time": 113.34375,
          "velocity": 0.8188976377952756
        },
        {
          "duration": 0.09375,
          "durationTicks": 24,
          "midi": 63,
          "name": "D#4",
          "ticks": 29040,
          "time": 113.4375,
          "velocity": 0.8188976377952756
        },
        {
          "duration": 0.09375,
          "durationTicks": 24,
          "midi": 60,
          "name": "C4",
          "ticks": 29064,
          "time": 113.53125,
          "velocity": 0.8188976377952756
        },
        {
          "duration": 0.09375,
          "durationTicks": 24,
          "midi": 62,
          "name": "D4",
          "ticks": 29088,
          "time": 113.625,
          "velocity": 0.8188976377952756
        },
        {
          "duration": 0.09375,
          "durationTicks": 24,
          "midi": 63,
          "name": "D#4",
          "ticks": 29112,
          "time": 113.71875,
          "velocity": 0.8188976377952756
        },
        {
          "duration": 0.09375,
          "durationTicks": 24,
          "midi": 60,
          "name": "C4",
          "ticks": 29136,
          "time": 113.8125,
          "velocity": 0.8188976377952756
        },
        {
          "duration": 0.09375,
          "durationTicks": 24,
          "midi": 62,
          "name": "D4",
          "ticks": 29160,
          "time": 113.90625,
          "velocity": 0.8188976377952756
        },
        {
          "duration": 0.09375,
          "durationTicks": 24,
          "midi": 63,
          "name": "D#4",
          "ticks": 29184,
          "time": 114,
          "velocity": 0.8188976377952756
        },
        {
          "duration": 0.046875,
          "durationTicks": 12,
          "midi": 60,
          "name": "C4",
          "ticks": 29208,
          "time": 114.09375,
          "velocity": 0.8188976377952756
        },
        {
          "duration": 0.046875,
          "durationTicks": 12,
          "midi": 62,
          "name": "D4",
          "ticks": 29220,
          "time": 114.140625,
          "velocity": 0.8188976377952756
        },
        {
          "duration": 0.046875,
          "durationTicks": 12,
          "midi": 63,
          "name": "D#4",
          "ticks": 29232,
          "time": 114.1875,
          "velocity": 0.8188976377952756
        },
        {
          "duration": 0.046875,
          "durationTicks": 12,
          "midi": 60,
          "name": "C4",
          "ticks": 29244,
          "time": 114.234375,
          "velocity": 0.8188976377952756
        },
        {
          "duration": 0.046875,
          "durationTicks": 12,
          "midi": 62,
          "name": "D4",
          "ticks": 29256,
          "time": 114.28125,
          "velocity": 0.8188976377952756
        },
        {
          "duration": 0.046875,
          "durationTicks": 12,
          "midi": 63,
          "name": "D#4",
          "ticks": 29268,
          "time": 114.328125,
          "velocity": 0.8188976377952756
        },
        {
          "duration": 0.1875,
          "durationTicks": 48,
          "midi": 62,
          "name": "D4",
          "ticks": 29616,
          "time": 115.6875,
          "velocity": 0.8188976377952756
        },
        {
          "duration": 0.1875,
          "durationTicks": 48,
          "midi": 63,
          "name": "D#4",
          "ticks": 29664,
          "time": 115.875,
          "velocity": 0.8188976377952756
        },
        {
          "duration": 0.1875,
          "durationTicks": 48,
          "midi": 62,
          "name": "D4",
          "ticks": 29736,
          "time": 116.15625,
          "velocity": 0.8188976377952756
        },
        {
          "duration": 0.1875,
          "durationTicks": 48,
          "midi": 61,
          "name": "C#4",
          "ticks": 29808,
          "time": 116.4375,
          "velocity": 0.8188976377952756
        },
        {
          "duration": 0.1875,
          "durationTicks": 48,
          "midi": 60,
          "name": "C4",
          "ticks": 29880,
          "time": 116.71875,
          "velocity": 0.8188976377952756
        },
        {
          "duration": 0.1875,
          "durationTicks": 48,
          "midi": 59,
          "name": "B3",
          "ticks": 29952,
          "time": 117,
          "velocity": 0.8188976377952756
        },
        {
          "duration": 0.1875,
          "durationTicks": 48,
          "midi": 55,
          "name": "G3",
          "ticks": 30000,
          "time": 117.1875,
          "velocity": 0.8188976377952756
        }
      ],
      "endOfTrackTicks": 37730
    },
    {
      "channel": 3,
      "controlChanges": {
        "6": [
          {
            "number": 6,
            "ticks": 0,
            "time": 0,
            "value": 0.09448818897637795
          },
          {
            "number": 6,
            "ticks": 0,
            "time": 0,
            "value": 0.09448818897637795
          },
          {
            "number": 6,
            "ticks": 0,
            "time": 0,
            "value": 0.09448818897637795
          },
          {
            "number": 6,
            "ticks": 37728,
            "time": 147.375,
            "value": 0.09448818897637795
          },
          {
            "number": 6,
            "ticks": 37730,
            "time": 147.3828125,
            "value": 0.09448818897637795
          }
        ],
        "7": [
          {
            "number": 7,
            "ticks": 0,
            "time": 0,
            "value": 0.7874015748031497
          },
          {
            "number": 7,
            "ticks": 0,
            "time": 0,
            "value": 0.7874015748031497
          },
          {
            "number": 7,
            "ticks": 0,
            "time": 0,
            "value": 0.7874015748031497
          },
          {
            "number": 7,
            "ticks": 0,
            "time": 0,
            "value": 0.7874015748031497
          },
          {
            "number": 7,
            "ticks": 37728,
            "time": 147.375,
            "value": 0.7874015748031497
          },
          {
            "number": 7,
            "ticks": 37730,
            "time": 147.3828125,
            "value": 0.7874015748031497
          }
        ],
        "10": [
          {
            "number": 10,
            "ticks": 0,
            "time": 0,
            "value": 0.5039370078740157
          },
          {
            "number": 10,
            "ticks": 0,
            "time": 0,
            "value": 0.5039370078740157
          },
          {
            "number": 10,
            "ticks": 0,
            "time": 0,
            "value": 0.5039370078740157
          },
          {
            "number": 10,
            "ticks": 0,
            "time": 0,
            "value": 0.5039370078740157
          },
          {
            "number": 10,
            "ticks": 37728,
            "time": 147.375,
            "value": 0.5039370078740157
          },
          {
            "number": 10,
            "ticks": 37730,
            "time": 147.3828125,
            "value": 0.5039370078740157
          }
        ],
        "100": [
          {
            "number": 100,
            "ticks": 0,
            "time": 0,
            "value": 0
          },
          {
            "number": 100,
            "ticks": 0,
            "time": 0,
            "value": 0
          },
          {
            "number": 100,
            "ticks": 0,
            "time": 0,
            "value": 0
          },
          {
            "number": 100,
            "ticks": 37728,
            "time": 147.375,
            "value": 0
          },
          {
            "number": 100,
            "ticks": 37730,
            "time": 147.3828125,
            "value": 0
          }
        ],
        "101": [
          {
            "number": 101,
            "ticks": 0,
            "time": 0,
            "value": 0
          },
          {
            "number": 101,
            "ticks": 0,
            "time": 0,
            "value": 0
          },
          {
            "number": 101,
            "ticks": 0,
            "time": 0,
            "value": 0
          },
          {
            "number": 101,
            "ticks": 37728,
            "time": 147.375,
            "value": 0
          },
          {
            "number": 101,
            "ticks": 37730,
            "time": 147.3828125,
            "value": 0
          }
        ]
      },
      "pitchBends": [
        {
          "ticks": 0,
          "time": 0,
          "value": 0
        },
        {
          "ticks": 0,
          "time": 0,
          "value": 0
        },
        {
          "ticks": 0,
          "time": 0,
          "value": 0
        },
        {
          "ticks": 0,
          "time": 0,
          "value": 0
        },
        {
          "ticks": 37728,
          "time": 147.375,
          "value": 0
        },
        {
          "ticks": 37730,
          "time": 147.3828125,
          "value": 0
        }
      ],
      "instrument": {
        "family": "piano",
        "number": 0,
        "name": "acoustic grand piano"
      },
      "name": "Lead Layer",
      "notes": [
        {
          "duration": 0.15625,
          "durationTicks": 40,
          "midi": 60,
          "name": "C4",
          "ticks": 9600,
          "time": 37.5,
          "velocity": 0.7244094488188977
        },
        {
          "duration": 0.0625,
          "durationTicks": 16,
          "midi": 60,
          "name": "C4",
          "ticks": 9672,
          "time": 37.78125,
          "velocity": 0.7244094488188977
        },
        {
          "duration": 0.09375,
          "durationTicks": 24,
          "midi": 60,
          "name": "C4",
          "ticks": 9696,
          "time": 37.875,
          "velocity": 0.7244094488188977
        },
        {
          "duration": 0.296875,
          "durationTicks": 76,
          "midi": 60,
          "name": "C4",
          "ticks": 9744,
          "time": 38.0625,
          "velocity": 0.7244094488188977
        },
        {
          "duration": 0.09375,
          "durationTicks": 24,
          "midi": 62,
          "name": "D4",
          "ticks": 9816,
          "time": 38.34375,
          "velocity": 0.7244094488188977
        },
        {
          "duration": 0.09375,
          "durationTicks": 24,
          "midi": 63,
          "name": "D#4",
          "ticks": 9840,
          "time": 38.4375,
          "velocity": 0.7244094488188977
        },
        {
          "duration": 0.28125,
          "durationTicks": 72,
          "midi": 60,
          "name": "C4",
          "ticks": 9888,
          "time": 38.625,
          "velocity": 0.7244094488188977
        },
        {
          "duration": 0.09375,
          "durationTicks": 24,
          "midi": 62,
          "name": "D4",
          "ticks": 9960,
          "time": 38.90625,
          "velocity": 0.7244094488188977
        },
        {
          "duration": 0.09375,
          "durationTicks": 24,
          "midi": 63,
          "name": "D#4",
          "ticks": 9984,
          "time": 39,
          "velocity": 0.7244094488188977
        },
        {
          "duration": 0.296875,
          "durationTicks": 76,
          "midi": 60,
          "name": "C4",
          "ticks": 10032,
          "time": 39.1875,
          "velocity": 0.7244094488188977
        },
        {
          "duration": 0.09375,
          "durationTicks": 24,
          "midi": 62,
          "name": "D4",
          "ticks": 10104,
          "time": 39.46875,
          "velocity": 0.7244094488188977
        },
        {
          "duration": 0.09375,
          "durationTicks": 24,
          "midi": 63,
          "name": "D#4",
          "ticks": 10128,
          "time": 39.5625,
          "velocity": 0.7244094488188977
        },
        {
          "duration": 0.0625,
          "durationTicks": 16,
          "midi": 56,
          "name": "G#3",
          "ticks": 10176,
          "time": 39.75,
          "velocity": 0.7244094488188977
        },
        {
          "duration": 0.0625,
          "durationTicks": 16,
          "midi": 56,
          "name": "G#3",
          "ticks": 10200,
          "time": 39.84375,
          "velocity": 0.7244094488188977
        },
        {
          "duration": 0.0625,
          "durationTicks": 16,
          "midi": 56,
          "name": "G#3",
          "ticks": 10224,
          "time": 39.9375,
          "velocity": 0.7244094488188977
        },
        {
          "duration": 0.15625,
          "durationTicks": 40,
          "midi": 59,
          "name": "B3",
          "ticks": 10272,
          "time": 40.125,
          "velocity": 0.7244094488188977
        },
        {
          "duration": 0.15625,
          "durationTicks": 40,
          "midi": 59,
          "name": "B3",
          "ticks": 10320,
          "time": 40.3125,
          "velocity": 0.7244094488188977
        },
        {
          "duration": 0.15625,
          "durationTicks": 40,
          "midi": 60,
          "name": "C4",
          "ticks": 10368,
          "time": 40.5,
          "velocity": 0.7244094488188977
        },
        {
          "duration": 0.0625,
          "durationTicks": 16,
          "midi": 60,
          "name": "C4",
          "ticks": 10440,
          "time": 40.78125,
          "velocity": 0.7244094488188977
        },
        {
          "duration": 0.09375,
          "durationTicks": 24,
          "midi": 60,
          "name": "C4",
          "ticks": 10464,
          "time": 40.875,
          "velocity": 0.7244094488188977
        },
        {
          "duration": 0.296875,
          "durationTicks": 76,
          "midi": 60,
          "name": "C4",
          "ticks": 10512,
          "time": 41.0625,
          "velocity": 0.7244094488188977
        },
        {
          "duration": 0.09375,
          "durationTicks": 24,
          "midi": 62,
          "name": "D4",
          "ticks": 10584,
          "time": 41.34375,
          "velocity": 0.7244094488188977
        },
        {
          "duration": 0.09375,
          "durationTicks": 24,
          "midi": 63,
          "name": "D#4",
          "ticks": 10608,
          "time": 41.4375,
          "velocity": 0.7244094488188977
        },
        {
          "duration": 0.296875,
          "durationTicks": 76,
          "midi": 60,
          "name": "C4",
          "ticks": 10656,
          "time": 41.625,
          "velocity": 0.7244094488188977
        },
        {
          "duration": 0.09375,
          "durationTicks": 24,
          "midi": 62,
          "name": "D4",
          "ticks": 10728,
          "time": 41.90625,
          "velocity": 0.7244094488188977
        },
        {
          "duration": 0.09375,
          "durationTicks": 24,
          "midi": 63,
          "name": "D#4",
          "ticks": 10752,
          "time": 42,
          "velocity": 0.7244094488188977
        },
        {
          "duration": 0.296875,
          "durationTicks": 76,
          "midi": 60,
          "name": "C4",
          "ticks": 10800,
          "time": 42.1875,
          "velocity": 0.7244094488188977
        },
        {
          "duration": 0.09375,
          "durationTicks": 24,
          "midi": 62,
          "name": "D4",
          "ticks": 10872,
          "time": 42.46875,
          "velocity": 0.7244094488188977
        },
        {
          "duration": 0.09375,
          "durationTicks": 24,
          "midi": 63,
          "name": "D#4",
          "ticks": 10896,
          "time": 42.5625,
          "velocity": 0.7244094488188977
        },
        {
          "duration": 0.0625,
          "durationTicks": 16,
          "midi": 68,
          "name": "G#4",
          "ticks": 10944,
          "time": 42.75,
          "velocity": 0.7244094488188977
        },
        {
          "duration": 0.0625,
          "durationTicks": 16,
          "midi": 68,
          "name": "G#4",
          "ticks": 10968,
          "time": 42.84375,
          "velocity": 0.7244094488188977
        },
        {
          "duration": 0.0625,
          "durationTicks": 16,
          "midi": 68,
          "name": "G#4",
          "ticks": 10992,
          "time": 42.9375,
          "velocity": 0.7244094488188977
        },
        {
          "duration": 0.15625,
          "durationTicks": 40,
          "midi": 67,
          "name": "G4",
          "ticks": 11040,
          "time": 43.125,
          "velocity": 0.7244094488188977
        },
        {
          "duration": 0.15625,
          "durationTicks": 40,
          "midi": 62,
          "name": "D4",
          "ticks": 11088,
          "time": 43.3125,
          "velocity": 0.7244094488188977
        },
        {
          "duration": 0.15625,
          "durationTicks": 40,
          "midi": 60,
          "name": "C4",
          "ticks": 11136,
          "time": 43.5,
          "velocity": 0.7244094488188977
        },
        {
          "duration": 0.0625,
          "durationTicks": 16,
          "midi": 60,
          "name": "C4",
          "ticks": 11208,
          "time": 43.78125,
          "velocity": 0.7244094488188977
        },
        {
          "duration": 0.09375,
          "durationTicks": 24,
          "midi": 60,
          "name": "C4",
          "ticks": 11232,
          "time": 43.875,
          "velocity": 0.7244094488188977
        },
        {
          "duration": 0.296875,
          "durationTicks": 76,
          "midi": 60,
          "name": "C4",
          "ticks": 11280,
          "time": 44.0625,
          "velocity": 0.7244094488188977
        },
        {
          "duration": 0.09375,
          "durationTicks": 24,
          "midi": 62,
          "name": "D4",
          "ticks": 11352,
          "time": 44.34375,
          "velocity": 0.7244094488188977
        },
        {
          "duration": 0.09375,
          "durationTicks": 24,
          "midi": 63,
          "name": "D#4",
          "ticks": 11376,
          "time": 44.4375,
          "velocity": 0.7244094488188977
        },
        {
          "duration": 0.296875,
          "durationTicks": 76,
          "midi": 60,
          "name": "C4",
          "ticks": 11424,
          "time": 44.625,
          "velocity": 0.7244094488188977
        },
        {
          "duration": 0.09375,
          "durationTicks": 24,
          "midi": 62,
          "name": "D4",
          "ticks": 11496,
          "time": 44.90625,
          "velocity": 0.7244094488188977
        },
        {
          "duration": 0.09375,
          "durationTicks": 24,
          "midi": 63,
          "name": "D#4",
          "ticks": 11520,
          "time": 45,
          "velocity": 0.7244094488188977
        },
        {
          "duration": 0.296875,
          "durationTicks": 76,
          "midi": 60,
          "name": "C4",
          "ticks": 11568,
          "time": 45.1875,
          "velocity": 0.7244094488188977
        },
        {
          "duration": 0.09375,
          "durationTicks": 24,
          "midi": 62,
          "name": "D4",
          "ticks": 11640,
          "time": 45.46875,
          "velocity": 0.7244094488188977
        },
        {
          "duration": 0.09375,
          "durationTicks": 24,
          "midi": 63,
          "name": "D#4",
          "ticks": 11664,
          "time": 45.5625,
          "velocity": 0.7244094488188977
        },
        {
          "duration": 0.0625,
          "durationTicks": 16,
          "midi": 56,
          "name": "G#3",
          "ticks": 11712,
          "time": 45.75,
          "velocity": 0.7244094488188977
        },
        {
          "duration": 0.0625,
          "durationTicks": 16,
          "midi": 56,
          "name": "G#3",
          "ticks": 11736,
          "time": 45.84375,
          "velocity": 0.7244094488188977
        },
        {
          "duration": 0.0625,
          "durationTicks": 16,
          "midi": 56,
          "name": "G#3",
          "ticks": 11760,
          "time": 45.9375,
          "velocity": 0.7244094488188977
        },
        {
          "duration": 0.15625,
          "durationTicks": 40,
          "midi": 59,
          "name": "B3",
          "ticks": 11808,
          "time": 46.125,
          "velocity": 0.7244094488188977
        },
        {
          "duration": 0.15625,
          "durationTicks": 40,
          "midi": 59,
          "name": "B3",
          "ticks": 11856,
          "time": 46.3125,
          "velocity": 0.7244094488188977
        },
        {
          "duration": 0.15625,
          "durationTicks": 40,
          "midi": 60,
          "name": "C4",
          "ticks": 11904,
          "time": 46.5,
          "velocity": 0.7244094488188977
        },
        {
          "duration": 0.0625,
          "durationTicks": 16,
          "midi": 60,
          "name": "C4",
          "ticks": 11976,
          "time": 46.78125,
          "velocity": 0.7244094488188977
        },
        {
          "duration": 0.09375,
          "durationTicks": 24,
          "midi": 60,
          "name": "C4",
          "ticks": 12000,
          "time": 46.875,
          "velocity": 0.7244094488188977
        },
        {
          "duration": 0.296875,
          "durationTicks": 76,
          "midi": 60,
          "name": "C4",
          "ticks": 12048,
          "time": 47.0625,
          "velocity": 0.7244094488188977
        },
        {
          "duration": 0.09375,
          "durationTicks": 24,
          "midi": 62,
          "name": "D4",
          "ticks": 12120,
          "time": 47.34375,
          "velocity": 0.7244094488188977
        },
        {
          "duration": 0.09375,
          "durationTicks": 24,
          "midi": 63,
          "name": "D#4",
          "ticks": 12144,
          "time": 47.4375,
          "velocity": 0.7244094488188977
        },
        {
          "duration": 0.296875,
          "durationTicks": 76,
          "midi": 60,
          "name": "C4",
          "ticks": 12192,
          "time": 47.625,
          "velocity": 0.7244094488188977
        },
        {
          "duration": 0.09375,
          "durationTicks": 24,
          "midi": 62,
          "name": "D4",
          "ticks": 12264,
          "time": 47.90625,
          "velocity": 0.7244094488188977
        },
        {
          "duration": 0.09375,
          "durationTicks": 24,
          "midi": 60,
          "name": "C4",
          "ticks": 12336,
          "time": 48.1875,
          "velocity": 0.7244094488188977
        },
        {
          "duration": 0.15625,
          "durationTicks": 40,
          "midi": 63,
          "name": "D#4",
          "ticks": 12384,
          "time": 48.375,
          "velocity": 0.7244094488188977
        },
        {
          "duration": 0.0625,
          "durationTicks": 16,
          "midi": 63,
          "name": "D#4",
          "ticks": 12432,
          "time": 48.5625,
          "velocity": 0.7244094488188977
        },
        {
          "duration": 0.0625,
          "durationTicks": 16,
          "midi": 63,
          "name": "D#4",
          "ticks": 12456,
          "time": 48.65625,
          "velocity": 0.7244094488188977
        },
        {
          "duration": 0.0625,
          "durationTicks": 16,
          "midi": 68,
          "name": "G#4",
          "ticks": 12480,
          "time": 48.75,
          "velocity": 0.5511811023622047
        },
        {
          "duration": 0.0625,
          "durationTicks": 16,
          "midi": 68,
          "name": "G#4",
          "ticks": 12504,
          "time": 48.84375,
          "velocity": 0.5511811023622047
        },
        {
          "duration": 0.0625,
          "durationTicks": 16,
          "midi": 68,
          "name": "G#4",
          "ticks": 12528,
          "time": 48.9375,
          "velocity": 0.5511811023622047
        },
        {
          "duration": 0.0625,
          "durationTicks": 16,
          "midi": 68,
          "name": "G#4",
          "ticks": 12552,
          "time": 49.03125,
          "velocity": 0.5511811023622047
        },
        {
          "duration": 0.0625,
          "durationTicks": 16,
          "midi": 61,
          "name": "C#4",
          "ticks": 12624,
          "time": 49.3125,
          "velocity": 0.5511811023622047
        },
        {
          "duration": 0.0625,
          "durationTicks": 16,
          "midi": 61,
          "name": "C#4",
          "ticks": 12648,
          "time": 49.40625,
          "velocity": 0.5511811023622047
        },
        {
          "duration": 0.15625,
          "durationTicks": 40,
          "midi": 60,
          "name": "C4",
          "ticks": 12672,
          "time": 49.5,
          "velocity": 0.7244094488188977
        },
        {
          "duration": 0.0625,
          "durationTicks": 16,
          "midi": 60,
          "name": "C4",
          "ticks": 12744,
          "time": 49.78125,
          "velocity": 0.7244094488188977
        },
        {
          "duration": 0.09375,
          "durationTicks": 24,
          "midi": 60,
          "name": "C4",
          "ticks": 12768,
          "time": 49.875,
          "velocity": 0.7244094488188977
        },
        {
          "duration": 0.296875,
          "durationTicks": 76,
          "midi": 60,
          "name": "C4",
          "ticks": 12816,
          "time": 50.0625,
          "velocity": 0.7244094488188977
        },
        {
          "duration": 0.09375,
          "durationTicks": 24,
          "midi": 62,
          "name": "D4",
          "ticks": 12888,
          "time": 50.34375,
          "velocity": 0.7244094488188977
        },
        {
          "duration": 0.09375,
          "durationTicks": 24,
          "midi": 63,
          "name": "D#4",
          "ticks": 12912,
          "time": 50.4375,
          "velocity": 0.7244094488188977
        },
        {
          "duration": 0.296875,
          "durationTicks": 76,
          "midi": 60,
          "name": "C4",
          "ticks": 12960,
          "time": 50.625,
          "velocity": 0.7244094488188977
        },
        {
          "duration": 0.09375,
          "durationTicks": 24,
          "midi": 62,
          "name": "D4",
          "ticks": 13032,
          "time": 50.90625,
          "velocity": 0.7244094488188977
        },
        {
          "duration": 0.09375,
          "durationTicks": 24,
          "midi": 63,
          "name": "D#4",
          "ticks": 13056,
          "time": 51,
          "velocity": 0.7244094488188977
        },
        {
          "duration": 0.296875,
          "durationTicks": 76,
          "midi": 60,
          "name": "C4",
          "ticks": 13104,
          "time": 51.1875,
          "velocity": 0.7244094488188977
        },
        {
          "duration": 0.09375,
          "durationTicks": 24,
          "midi": 62,
          "name": "D4",
          "ticks": 13176,
          "time": 51.46875,
          "velocity": 0.7244094488188977
        },
        {
          "duration": 0.09375,
          "durationTicks": 24,
          "midi": 63,
          "name": "D#4",
          "ticks": 13200,
          "time": 51.5625,
          "velocity": 0.7244094488188977
        },
        {
          "duration": 0.0625,
          "durationTicks": 16,
          "midi": 56,
          "name": "G#3",
          "ticks": 13248,
          "time": 51.75,
          "velocity": 0.7244094488188977
        },
        {
          "duration": 0.0625,
          "durationTicks": 16,
          "midi": 56,
          "name": "G#3",
          "ticks": 13272,
          "time": 51.84375,
          "velocity": 0.7244094488188977
        },
        {
          "duration": 0.0625,
          "durationTicks": 16,
          "midi": 56,
          "name": "G#3",
          "ticks": 13296,
          "time": 51.9375,
          "velocity": 0.7244094488188977
        },
        {
          "duration": 0.15625,
          "durationTicks": 40,
          "midi": 59,
          "name": "B3",
          "ticks": 13344,
          "time": 52.125,
          "velocity": 0.7244094488188977
        },
        {
          "duration": 0.15625,
          "durationTicks": 40,
          "midi": 59,
          "name": "B3",
          "ticks": 13392,
          "time": 52.3125,
          "velocity": 0.7244094488188977
        },
        {
          "duration": 0.15625,
          "durationTicks": 40,
          "midi": 60,
          "name": "C4",
          "ticks": 13440,
          "time": 52.5,
          "velocity": 0.7244094488188977
        },
        {
          "duration": 0.0625,
          "durationTicks": 16,
          "midi": 60,
          "name": "C4",
          "ticks": 13512,
          "time": 52.78125,
          "velocity": 0.7244094488188977
        },
        {
          "duration": 0.09375,
          "durationTicks": 24,
          "midi": 60,
          "name": "C4",
          "ticks": 13536,
          "time": 52.875,
          "velocity": 0.7244094488188977
        },
        {
          "duration": 0.296875,
          "durationTicks": 76,
          "midi": 60,
          "name": "C4",
          "ticks": 13584,
          "time": 53.0625,
          "velocity": 0.7244094488188977
        },
        {
          "duration": 0.09375,
          "durationTicks": 24,
          "midi": 62,
          "name": "D4",
          "ticks": 13656,
          "time": 53.34375,
          "velocity": 0.7244094488188977
        },
        {
          "duration": 0.09375,
          "durationTicks": 24,
          "midi": 63,
          "name": "D#4",
          "ticks": 13680,
          "time": 53.4375,
          "velocity": 0.7244094488188977
        },
        {
          "duration": 0.296875,
          "durationTicks": 76,
          "midi": 60,
          "name": "C4",
          "ticks": 13728,
          "time": 53.625,
          "velocity": 0.7244094488188977
        },
        {
          "duration": 0.09375,
          "durationTicks": 24,
          "midi": 62,
          "name": "D4",
          "ticks": 13800,
          "time": 53.90625,
          "velocity": 0.7244094488188977
        },
        {
          "duration": 0.09375,
          "durationTicks": 24,
          "midi": 63,
          "name": "D#4",
          "ticks": 13824,
          "time": 54,
          "velocity": 0.7244094488188977
        },
        {
          "duration": 0.296875,
          "durationTicks": 76,
          "midi": 60,
          "name": "C4",
          "ticks": 13872,
          "time": 54.1875,
          "velocity": 0.7244094488188977
        },
        {
          "duration": 0.09375,
          "durationTicks": 24,
          "midi": 62,
          "name": "D4",
          "ticks": 13944,
          "time": 54.46875,
          "velocity": 0.7244094488188977
        },
        {
          "duration": 0.09375,
          "durationTicks": 24,
          "midi": 63,
          "name": "D#4",
          "ticks": 13968,
          "time": 54.5625,
          "velocity": 0.7244094488188977
        },
        {
          "duration": 0.0625,
          "durationTicks": 16,
          "midi": 68,
          "name": "G#4",
          "ticks": 14016,
          "time": 54.75,
          "velocity": 0.7244094488188977
        },
        {
          "duration": 0.0625,
          "durationTicks": 16,
          "midi": 68,
          "name": "G#4",
          "ticks": 14040,
          "time": 54.84375,
          "velocity": 0.7244094488188977
        },
        {
          "duration": 0.0625,
          "durationTicks": 16,
          "midi": 68,
          "name": "G#4",
          "ticks": 14064,
          "time": 54.9375,
          "velocity": 0.7244094488188977
        },
        {
          "duration": 0.15625,
          "durationTicks": 40,
          "midi": 67,
          "name": "G4",
          "ticks": 14112,
          "time": 55.125,
          "velocity": 0.7244094488188977
        },
        {
          "duration": 0.15625,
          "durationTicks": 40,
          "midi": 62,
          "name": "D4",
          "ticks": 14160,
          "time": 55.3125,
          "velocity": 0.7244094488188977
        },
        {
          "duration": 0.15625,
          "durationTicks": 40,
          "midi": 60,
          "name": "C4",
          "ticks": 14208,
          "time": 55.5,
          "velocity": 0.7244094488188977
        },
        {
          "duration": 0.0625,
          "durationTicks": 16,
          "midi": 60,
          "name": "C4",
          "ticks": 14280,
          "time": 55.78125,
          "velocity": 0.7244094488188977
        },
        {
          "duration": 0.09375,
          "durationTicks": 24,
          "midi": 60,
          "name": "C4",
          "ticks": 14304,
          "time": 55.875,
          "velocity": 0.7244094488188977
        },
        {
          "duration": 0.296875,
          "durationTicks": 76,
          "midi": 60,
          "name": "C4",
          "ticks": 14352,
          "time": 56.0625,
          "velocity": 0.7244094488188977
        },
        {
          "duration": 0.09375,
          "durationTicks": 24,
          "midi": 62,
          "name": "D4",
          "ticks": 14424,
          "time": 56.34375,
          "velocity": 0.7244094488188977
        },
        {
          "duration": 0.09375,
          "durationTicks": 24,
          "midi": 63,
          "name": "D#4",
          "ticks": 14448,
          "time": 56.4375,
          "velocity": 0.7244094488188977
        },
        {
          "duration": 0.296875,
          "durationTicks": 76,
          "midi": 60,
          "name": "C4",
          "ticks": 14496,
          "time": 56.625,
          "velocity": 0.7244094488188977
        },
        {
          "duration": 0.09375,
          "durationTicks": 24,
          "midi": 62,
          "name": "D4",
          "ticks": 14568,
          "time": 56.90625,
          "velocity": 0.7244094488188977
        },
        {
          "duration": 0.09375,
          "durationTicks": 24,
          "midi": 63,
          "name": "D#4",
          "ticks": 14592,
          "time": 57,
          "velocity": 0.7244094488188977
        },
        {
          "duration": 0.296875,
          "durationTicks": 76,
          "midi": 60,
          "name": "C4",
          "ticks": 14640,
          "time": 57.1875,
          "velocity": 0.7244094488188977
        },
        {
          "duration": 0.09375,
          "durationTicks": 24,
          "midi": 62,
          "name": "D4",
          "ticks": 14712,
          "time": 57.46875,
          "velocity": 0.7244094488188977
        },
        {
          "duration": 0.09375,
          "durationTicks": 24,
          "midi": 63,
          "name": "D#4",
          "ticks": 14736,
          "time": 57.5625,
          "velocity": 0.7244094488188977
        },
        {
          "duration": 0.0625,
          "durationTicks": 16,
          "midi": 56,
          "name": "G#3",
          "ticks": 14784,
          "time": 57.75,
          "velocity": 0.7244094488188977
        },
        {
          "duration": 0.0625,
          "durationTicks": 16,
          "midi": 56,
          "name": "G#3",
          "ticks": 14808,
          "time": 57.84375,
          "velocity": 0.7244094488188977
        },
        {
          "duration": 0.0625,
          "durationTicks": 16,
          "midi": 56,
          "name": "G#3",
          "ticks": 14832,
          "time": 57.9375,
          "velocity": 0.7244094488188977
        },
        {
          "duration": 0.15625,
          "durationTicks": 40,
          "midi": 59,
          "name": "B3",
          "ticks": 14880,
          "time": 58.125,
          "velocity": 0.7244094488188977
        },
        {
          "duration": 0.15625,
          "durationTicks": 40,
          "midi": 59,
          "name": "B3",
          "ticks": 14928,
          "time": 58.3125,
          "velocity": 0.7244094488188977
        },
        {
          "duration": 0.15625,
          "durationTicks": 40,
          "midi": 60,
          "name": "C4",
          "ticks": 14976,
          "time": 58.5,
          "velocity": 0.7244094488188977
        },
        {
          "duration": 0.0625,
          "durationTicks": 16,
          "midi": 60,
          "name": "C4",
          "ticks": 15048,
          "time": 58.78125,
          "velocity": 0.7244094488188977
        },
        {
          "duration": 0.09375,
          "durationTicks": 24,
          "midi": 60,
          "name": "C4",
          "ticks": 15072,
          "time": 58.875,
          "velocity": 0.7244094488188977
        },
        {
          "duration": 0.296875,
          "durationTicks": 76,
          "midi": 60,
          "name": "C4",
          "ticks": 15120,
          "time": 59.0625,
          "velocity": 0.7244094488188977
        },
        {
          "duration": 0.09375,
          "durationTicks": 24,
          "midi": 62,
          "name": "D4",
          "ticks": 15192,
          "time": 59.34375,
          "velocity": 0.7244094488188977
        },
        {
          "duration": 0.09375,
          "durationTicks": 24,
          "midi": 63,
          "name": "D#4",
          "ticks": 15216,
          "time": 59.4375,
          "velocity": 0.7244094488188977
        },
        {
          "duration": 0.15625,
          "durationTicks": 40,
          "midi": 60,
          "name": "C4",
          "ticks": 15264,
          "time": 59.625,
          "velocity": 0.7244094488188977
        },
        {
          "duration": 0.15625,
          "durationTicks": 40,
          "midi": 62,
          "name": "D4",
          "ticks": 15312,
          "time": 59.8125,
          "velocity": 0.7244094488188977
        },
        {
          "duration": 0.15625,
          "durationTicks": 40,
          "midi": 63,
          "name": "D#4",
          "ticks": 15360,
          "time": 60,
          "velocity": 0.7244094488188977
        },
        {
          "duration": 0.15625,
          "durationTicks": 40,
          "midi": 62,
          "name": "D4",
          "ticks": 15432,
          "time": 60.28125,
          "velocity": 0.7244094488188977
        },
        {
          "duration": 0.15625,
          "durationTicks": 40,
          "midi": 61,
          "name": "C#4",
          "ticks": 15504,
          "time": 60.5625,
          "velocity": 0.7244094488188977
        },
        {
          "duration": 0.15625,
          "durationTicks": 40,
          "midi": 60,
          "name": "C4",
          "ticks": 15576,
          "time": 60.84375,
          "velocity": 0.7244094488188977
        },
        {
          "duration": 0.15625,
          "durationTicks": 40,
          "midi": 59,
          "name": "B3",
          "ticks": 15648,
          "time": 61.125,
          "velocity": 0.7244094488188977
        },
        {
          "duration": 0.15625,
          "durationTicks": 40,
          "midi": 60,
          "name": "C4",
          "ticks": 21888,
          "time": 85.5,
          "velocity": 0.7244094488188977
        },
        {
          "duration": 0.0625,
          "durationTicks": 16,
          "midi": 60,
          "name": "C4",
          "ticks": 21960,
          "time": 85.78125,
          "velocity": 0.7244094488188977
        },
        {
          "duration": 0.09375,
          "durationTicks": 24,
          "midi": 60,
          "name": "C4",
          "ticks": 21984,
          "time": 85.875,
          "velocity": 0.7244094488188977
        },
        {
          "duration": 0.296875,
          "durationTicks": 76,
          "midi": 60,
          "name": "C4",
          "ticks": 22032,
          "time": 86.0625,
          "velocity": 0.7244094488188977
        },
        {
          "duration": 0.09375,
          "durationTicks": 24,
          "midi": 62,
          "name": "D4",
          "ticks": 22104,
          "time": 86.34375,
          "velocity": 0.7244094488188977
        },
        {
          "duration": 0.09375,
          "durationTicks": 24,
          "midi": 63,
          "name": "D#4",
          "ticks": 22128,
          "time": 86.4375,
          "velocity": 0.7244094488188977
        },
        {
          "duration": 0.296875,
          "durationTicks": 76,
          "midi": 60,
          "name": "C4",
          "ticks": 22176,
          "time": 86.625,
          "velocity": 0.7244094488188977
        },
        {
          "duration": 0.09375,
          "durationTicks": 24,
          "midi": 62,
          "name": "D4",
          "ticks": 22248,
          "time": 86.90625,
          "velocity": 0.7244094488188977
        },
        {
          "duration": 0.09375,
          "durationTicks": 24,
          "midi": 63,
          "name": "D#4",
          "ticks": 22272,
          "time": 87,
          "velocity": 0.7244094488188977
        },
        {
          "duration": 0.296875,
          "durationTicks": 76,
          "midi": 60,
          "name": "C4",
          "ticks": 22320,
          "time": 87.1875,
          "velocity": 0.7244094488188977
        },
        {
          "duration": 0.09375,
          "durationTicks": 24,
          "midi": 62,
          "name": "D4",
          "ticks": 22392,
          "time": 87.46875,
          "velocity": 0.7244094488188977
        },
        {
          "duration": 0.09375,
          "durationTicks": 24,
          "midi": 63,
          "name": "D#4",
          "ticks": 22416,
          "time": 87.5625,
          "velocity": 0.7244094488188977
        },
        {
          "duration": 0.1875,
          "durationTicks": 48,
          "midi": 56,
          "name": "G#3",
          "ticks": 22464,
          "time": 87.75,
          "velocity": 0.7244094488188977
        },
        {
          "duration": 0.1875,
          "durationTicks": 48,
          "midi": 59,
          "name": "B3",
          "ticks": 22512,
          "time": 87.9375,
          "velocity": 0.7244094488188977
        },
        {
          "duration": 0.15625,
          "durationTicks": 40,
          "midi": 60,
          "name": "C4",
          "ticks": 22560,
          "time": 88.125,
          "velocity": 0.7244094488188977
        },
        {
          "duration": 0.0625,
          "durationTicks": 16,
          "midi": 60,
          "name": "C4",
          "ticks": 22632,
          "time": 88.40625,
          "velocity": 0.7244094488188977
        },
        {
          "duration": 0.09375,
          "durationTicks": 24,
          "midi": 60,
          "name": "C4",
          "ticks": 22656,
          "time": 88.5,
          "velocity": 0.7244094488188977
        },
        {
          "duration": 0.296875,
          "durationTicks": 76,
          "midi": 60,
          "name": "C4",
          "ticks": 22704,
          "time": 88.6875,
          "velocity": 0.7244094488188977
        },
        {
          "duration": 0.09375,
          "durationTicks": 24,
          "midi": 62,
          "name": "D4",
          "ticks": 22776,
          "time": 88.96875,
          "velocity": 0.7244094488188977
        },
        {
          "duration": 0.09375,
          "durationTicks": 24,
          "midi": 63,
          "name": "D#4",
          "ticks": 22800,
          "time": 89.0625,
          "velocity": 0.7244094488188977
        },
        {
          "duration": 0.296875,
          "durationTicks": 76,
          "midi": 60,
          "name": "C4",
          "ticks": 22848,
          "time": 89.25,
          "velocity": 0.7244094488188977
        },
        {
          "duration": 0.09375,
          "durationTicks": 24,
          "midi": 62,
          "name": "D4",
          "ticks": 22920,
          "time": 89.53125,
          "velocity": 0.7244094488188977
        },
        {
          "duration": 0.09375,
          "durationTicks": 24,
          "midi": 63,
          "name": "D#4",
          "ticks": 22944,
          "time": 89.625,
          "velocity": 0.7244094488188977
        },
        {
          "duration": 0.296875,
          "durationTicks": 76,
          "midi": 60,
          "name": "C4",
          "ticks": 22992,
          "time": 89.8125,
          "velocity": 0.7244094488188977
        },
        {
          "duration": 0.09375,
          "durationTicks": 24,
          "midi": 62,
          "name": "D4",
          "ticks": 23064,
          "time": 90.09375,
          "velocity": 0.7244094488188977
        },
        {
          "duration": 0.09375,
          "durationTicks": 24,
          "midi": 63,
          "name": "D#4",
          "ticks": 23088,
          "time": 90.1875,
          "velocity": 0.7244094488188977
        },
        {
          "duration": 0.1875,
          "durationTicks": 48,
          "midi": 68,
          "name": "G#4",
          "ticks": 23136,
          "time": 90.375,
          "velocity": 0.7244094488188977
        },
        {
          "duration": 0.1875,
          "durationTicks": 48,
          "midi": 67,
          "name": "G4",
          "ticks": 23184,
          "time": 90.5625,
          "velocity": 0.7244094488188977
        },
        {
          "duration": 0.15625,
          "durationTicks": 40,
          "midi": 60,
          "name": "C4",
          "ticks": 23232,
          "time": 90.75,
          "velocity": 0.7244094488188977
        },
        {
          "duration": 0.0625,
          "durationTicks": 16,
          "midi": 60,
          "name": "C4",
          "ticks": 23304,
          "time": 91.03125,
          "velocity": 0.7244094488188977
        },
        {
          "duration": 0.09375,
          "durationTicks": 24,
          "midi": 60,
          "name": "C4",
          "ticks": 23328,
          "time": 91.125,
          "velocity": 0.7244094488188977
        },
        {
          "duration": 0.296875,
          "durationTicks": 76,
          "midi": 60,
          "name": "C4",
          "ticks": 23376,
          "time": 91.3125,
          "velocity": 0.7244094488188977
        },
        {
          "duration": 0.09375,
          "durationTicks": 24,
          "midi": 62,
          "name": "D4",
          "ticks": 23448,
          "time": 91.59375,
          "velocity": 0.7244094488188977
        },
        {
          "duration": 0.09375,
          "durationTicks": 24,
          "midi": 63,
          "name": "D#4",
          "ticks": 23472,
          "time": 91.6875,
          "velocity": 0.7244094488188977
        },
        {
          "duration": 0.296875,
          "durationTicks": 76,
          "midi": 60,
          "name": "C4",
          "ticks": 23520,
          "time": 91.875,
          "velocity": 0.7244094488188977
        },
        {
          "duration": 0.09375,
          "durationTicks": 24,
          "midi": 62,
          "name": "D4",
          "ticks": 23592,
          "time": 92.15625,
          "velocity": 0.7244094488188977
        },
        {
          "duration": 0.09375,
          "durationTicks": 24,
          "midi": 63,
          "name": "D#4",
          "ticks": 23616,
          "time": 92.25,
          "velocity": 0.7244094488188977
        },
        {
          "duration": 0.296875,
          "durationTicks": 76,
          "midi": 60,
          "name": "C4",
          "ticks": 23664,
          "time": 92.4375,
          "velocity": 0.7244094488188977
        },
        {
          "duration": 0.09375,
          "durationTicks": 24,
          "midi": 62,
          "name": "D4",
          "ticks": 23736,
          "time": 92.71875,
          "velocity": 0.7244094488188977
        },
        {
          "duration": 0.09375,
          "durationTicks": 24,
          "midi": 63,
          "name": "D#4",
          "ticks": 23760,
          "time": 92.8125,
          "velocity": 0.7244094488188977
        },
        {
          "duration": 0.1875,
          "durationTicks": 48,
          "midi": 56,
          "name": "G#3",
          "ticks": 23808,
          "time": 93,
          "velocity": 0.7244094488188977
        },
        {
          "duration": 0.0625,
          "durationTicks": 16,
          "midi": 59,
          "name": "B3",
          "ticks": 23856,
          "time": 93.1875,
          "velocity": 0.7244094488188977
        },
        {
          "duration": 0.03125,
          "durationTicks": 8,
          "midi": 59,
          "name": "B3",
          "ticks": 23888,
          "time": 93.3125,
          "velocity": 0.7244094488188977
        },
        {
          "duration": 0.15625,
          "durationTicks": 40,
          "midi": 60,
          "name": "C4",
          "ticks": 23904,
          "time": 93.375,
          "velocity": 0.7244094488188977
        },
        {
          "duration": 0.0625,
          "durationTicks": 16,
          "midi": 60,
          "name": "C4",
          "ticks": 23976,
          "time": 93.65625,
          "velocity": 0.7244094488188977
        },
        {
          "duration": 0.0625,
          "durationTicks": 16,
          "midi": 60,
          "name": "C4",
          "ticks": 24048,
          "time": 93.9375,
          "velocity": 0.7244094488188977
        },
        {
          "duration": 0.0625,
          "durationTicks": 16,
          "midi": 60,
          "name": "C4",
          "ticks": 24072,
          "time": 94.03125,
          "velocity": 0.7244094488188977
        },
        {
          "duration": 0.15625,
          "durationTicks": 40,
          "midi": 60,
          "name": "C4",
          "ticks": 24096,
          "time": 94.125,
          "velocity": 0.7244094488188977
        },
        {
          "duration": 0.09375,
          "durationTicks": 24,
          "midi": 63,
          "name": "D#4",
          "ticks": 24144,
          "time": 94.3125,
          "velocity": 0.7244094488188977
        },
        {
          "duration": 0.0625,
          "durationTicks": 16,
          "midi": 60,
          "name": "C4",
          "ticks": 24192,
          "time": 94.5,
          "velocity": 0.7244094488188977
        },
        {
          "duration": 0.0625,
          "durationTicks": 16,
          "midi": 60,
          "name": "C4",
          "ticks": 24216,
          "time": 94.59375,
          "velocity": 0.7244094488188977
        },
        {
          "duration": 0.09375,
          "durationTicks": 24,
          "midi": 60,
          "name": "C4",
          "ticks": 24240,
          "time": 94.6875,
          "velocity": 0.7244094488188977
        },
        {
          "duration": 0.09375,
          "durationTicks": 24,
          "midi": 62,
          "name": "D4",
          "ticks": 24264,
          "time": 94.78125,
          "velocity": 0.7244094488188977
        },
        {
          "duration": 0.09375,
          "durationTicks": 24,
          "midi": 63,
          "name": "D#4",
          "ticks": 24288,
          "time": 94.875,
          "velocity": 0.7244094488188977
        },
        {
          "duration": 0.1875,
          "durationTicks": 48,
          "midi": 60,
          "name": "C4",
          "ticks": 24384,
          "time": 95.25,
          "velocity": 0.7244094488188977
        },
        {
          "duration": 0.15625,
          "durationTicks": 40,
          "midi": 63,
          "name": "D#4",
          "ticks": 24432,
          "time": 95.4375,
          "velocity": 0.7244094488188977
        },
        {
          "duration": 0.0625,
          "durationTicks": 16,
          "midi": 67,
          "name": "G4",
          "ticks": 24528,
          "time": 95.8125,
          "velocity": 0.7244094488188977
        },
        {
          "duration": 0.0625,
          "durationTicks": 16,
          "midi": 67,
          "name": "G4",
          "ticks": 24552,
          "time": 95.90625,
          "velocity": 0.7244094488188977
        },
        {
          "duration": 0.15625,
          "durationTicks": 40,
          "midi": 60,
          "name": "C4",
          "ticks": 24576,
          "time": 96,
          "velocity": 0.7244094488188977
        },
        {
          "duration": 0.0625,
          "durationTicks": 16,
          "midi": 60,
          "name": "C4",
          "ticks": 24648,
          "time": 96.28125,
          "velocity": 0.7244094488188977
        },
        {
          "duration": 0.09375,
          "durationTicks": 24,
          "midi": 60,
          "name": "C4",
          "ticks": 24672,
          "time": 96.375,
          "velocity": 0.7244094488188977
        },
        {
          "duration": 0.296875,
          "durationTicks": 76,
          "midi": 60,
          "name": "C4",
          "ticks": 24720,
          "time": 96.5625,
          "velocity": 0.7244094488188977
        },
        {
          "duration": 0.09375,
          "durationTicks": 24,
          "midi": 62,
          "name": "D4",
          "ticks": 24792,
          "time": 96.84375,
          "velocity": 0.7244094488188977
        },
        {
          "duration": 0.09375,
          "durationTicks": 24,
          "midi": 63,
          "name": "D#4",
          "ticks": 24816,
          "time": 96.9375,
          "velocity": 0.7244094488188977
        },
        {
          "duration": 0.296875,
          "durationTicks": 76,
          "midi": 60,
          "name": "C4",
          "ticks": 24864,
          "time": 97.125,
          "velocity": 0.7244094488188977
        },
        {
          "duration": 0.09375,
          "durationTicks": 24,
          "midi": 62,
          "name": "D4",
          "ticks": 24936,
          "time": 97.40625,
          "velocity": 0.7244094488188977
        },
        {
          "duration": 0.09375,
          "durationTicks": 24,
          "midi": 63,
          "name": "D#4",
          "ticks": 24960,
          "time": 97.5,
          "velocity": 0.7244094488188977
        },
        {
          "duration": 0.296875,
          "durationTicks": 76,
          "midi": 60,
          "name": "C4",
          "ticks": 25008,
          "time": 97.6875,
          "velocity": 0.7244094488188977
        },
        {
          "duration": 0.09375,
          "durationTicks": 24,
          "midi": 62,
          "name": "D4",
          "ticks": 25080,
          "time": 97.96875,
          "velocity": 0.7244094488188977
        },
        {
          "duration": 0.09375,
          "durationTicks": 24,
          "midi": 63,
          "name": "D#4",
          "ticks": 25104,
          "time": 98.0625,
          "velocity": 0.7244094488188977
        },
        {
          "duration": 0.1875,
          "durationTicks": 48,
          "midi": 56,
          "name": "G#3",
          "ticks": 25152,
          "time": 98.25,
          "velocity": 0.7244094488188977
        },
        {
          "duration": 0.1875,
          "durationTicks": 48,
          "midi": 59,
          "name": "B3",
          "ticks": 25200,
          "time": 98.4375,
          "velocity": 0.7244094488188977
        },
        {
          "duration": 0.15625,
          "durationTicks": 40,
          "midi": 60,
          "name": "C4",
          "ticks": 25248,
          "time": 98.625,
          "velocity": 0.7244094488188977
        },
        {
          "duration": 0.0625,
          "durationTicks": 16,
          "midi": 60,
          "name": "C4",
          "ticks": 25320,
          "time": 98.90625,
          "velocity": 0.7244094488188977
        },
        {
          "duration": 0.09375,
          "durationTicks": 24,
          "midi": 60,
          "name": "C4",
          "ticks": 25344,
          "time": 99,
          "velocity": 0.7244094488188977
        },
        {
          "duration": 0.296875,
          "durationTicks": 76,
          "midi": 60,
          "name": "C4",
          "ticks": 25392,
          "time": 99.1875,
          "velocity": 0.7244094488188977
        },
        {
          "duration": 0.09375,
          "durationTicks": 24,
          "midi": 62,
          "name": "D4",
          "ticks": 25464,
          "time": 99.46875,
          "velocity": 0.7244094488188977
        },
        {
          "duration": 0.09375,
          "durationTicks": 24,
          "midi": 63,
          "name": "D#4",
          "ticks": 25488,
          "time": 99.5625,
          "velocity": 0.7244094488188977
        },
        {
          "duration": 0.296875,
          "durationTicks": 76,
          "midi": 60,
          "name": "C4",
          "ticks": 25536,
          "time": 99.75,
          "velocity": 0.7244094488188977
        },
        {
          "duration": 0.09375,
          "durationTicks": 24,
          "midi": 62,
          "name": "D4",
          "ticks": 25608,
          "time": 100.03125,
          "velocity": 0.7244094488188977
        },
        {
          "duration": 0.09375,
          "durationTicks": 24,
          "midi": 63,
          "name": "D#4",
          "ticks": 25632,
          "time": 100.125,
          "velocity": 0.7244094488188977
        },
        {
          "duration": 0.296875,
          "durationTicks": 76,
          "midi": 60,
          "name": "C4",
          "ticks": 25680,
          "time": 100.3125,
          "velocity": 0.7244094488188977
        },
        {
          "duration": 0.09375,
          "durationTicks": 24,
          "midi": 62,
          "name": "D4",
          "ticks": 25752,
          "time": 100.59375,
          "velocity": 0.7244094488188977
        },
        {
          "duration": 0.09375,
          "durationTicks": 24,
          "midi": 63,
          "name": "D#4",
          "ticks": 25776,
          "time": 100.6875,
          "velocity": 0.7244094488188977
        },
        {
          "duration": 0.1875,
          "durationTicks": 48,
          "midi": 68,
          "name": "G#4",
          "ticks": 25824,
          "time": 100.875,
          "velocity": 0.7244094488188977
        },
        {
          "duration": 0.1875,
          "durationTicks": 48,
          "midi": 67,
          "name": "G4",
          "ticks": 25872,
          "time": 101.0625,
          "velocity": 0.7244094488188977
        },
        {
          "duration": 0.15625,
          "durationTicks": 40,
          "midi": 60,
          "name": "C4",
          "ticks": 25920,
          "time": 101.25,
          "velocity": 0.7244094488188977
        },
        {
          "duration": 0.0625,
          "durationTicks": 16,
          "midi": 60,
          "name": "C4",
          "ticks": 25992,
          "time": 101.53125,
          "velocity": 0.7244094488188977
        },
        {
          "duration": 0.09375,
          "durationTicks": 24,
          "midi": 60,
          "name": "C4",
          "ticks": 26016,
          "time": 101.625,
          "velocity": 0.7244094488188977
        },
        {
          "duration": 0.296875,
          "durationTicks": 76,
          "midi": 60,
          "name": "C4",
          "ticks": 26064,
          "time": 101.8125,
          "velocity": 0.7244094488188977
        },
        {
          "duration": 0.09375,
          "durationTicks": 24,
          "midi": 62,
          "name": "D4",
          "ticks": 26136,
          "time": 102.09375,
          "velocity": 0.7244094488188977
        },
        {
          "duration": 0.09375,
          "durationTicks": 24,
          "midi": 63,
          "name": "D#4",
          "ticks": 26160,
          "time": 102.1875,
          "velocity": 0.7244094488188977
        },
        {
          "duration": 0.296875,
          "durationTicks": 76,
          "midi": 60,
          "name": "C4",
          "ticks": 26208,
          "time": 102.375,
          "velocity": 0.7244094488188977
        },
        {
          "duration": 0.09375,
          "durationTicks": 24,
          "midi": 62,
          "name": "D4",
          "ticks": 26280,
          "time": 102.65625,
          "velocity": 0.7244094488188977
        },
        {
          "duration": 0.09375,
          "durationTicks": 24,
          "midi": 63,
          "name": "D#4",
          "ticks": 26304,
          "time": 102.75,
          "velocity": 0.7244094488188977
        },
        {
          "duration": 0.296875,
          "durationTicks": 76,
          "midi": 60,
          "name": "C4",
          "ticks": 26352,
          "time": 102.9375,
          "velocity": 0.7244094488188977
        },
        {
          "duration": 0.09375,
          "durationTicks": 24,
          "midi": 62,
          "name": "D4",
          "ticks": 26424,
          "time": 103.21875,
          "velocity": 0.7244094488188977
        },
        {
          "duration": 0.09375,
          "durationTicks": 24,
          "midi": 63,
          "name": "D#4",
          "ticks": 26448,
          "time": 103.3125,
          "velocity": 0.7244094488188977
        },
        {
          "duration": 0.1875,
          "durationTicks": 48,
          "midi": 56,
          "name": "G#3",
          "ticks": 26496,
          "time": 103.5,
          "velocity": 0.7244094488188977
        },
        {
          "duration": 0.1875,
          "durationTicks": 48,
          "midi": 59,
          "name": "B3",
          "ticks": 26544,
          "time": 103.6875,
          "velocity": 0.7244094488188977
        },
        {
          "duration": 0.15625,
          "durationTicks": 40,
          "midi": 60,
          "name": "C4",
          "ticks": 26592,
          "time": 103.875,
          "velocity": 0.7244094488188977
        },
        {
          "duration": 0.0625,
          "durationTicks": 16,
          "midi": 60,
          "name": "C4",
          "ticks": 26664,
          "time": 104.15625,
          "velocity": 0.7244094488188977
        },
        {
          "duration": 0.09375,
          "durationTicks": 24,
          "midi": 60,
          "name": "C4",
          "ticks": 26688,
          "time": 104.25,
          "velocity": 0.7244094488188977
        },
        {
          "duration": 0.296875,
          "durationTicks": 76,
          "midi": 60,
          "name": "C4",
          "ticks": 26736,
          "time": 104.4375,
          "velocity": 0.7244094488188977
        },
        {
          "duration": 0.09375,
          "durationTicks": 24,
          "midi": 62,
          "name": "D4",
          "ticks": 26808,
          "time": 104.71875,
          "velocity": 0.7244094488188977
        },
        {
          "duration": 0.09375,
          "durationTicks": 24,
          "midi": 63,
          "name": "D#4",
          "ticks": 26832,
          "time": 104.8125,
          "velocity": 0.7244094488188977
        },
        {
          "duration": 0.296875,
          "durationTicks": 76,
          "midi": 60,
          "name": "C4",
          "ticks": 26880,
          "time": 105,
          "velocity": 0.7244094488188977
        },
        {
          "duration": 0.09375,
          "durationTicks": 24,
          "midi": 62,
          "name": "D4",
          "ticks": 26952,
          "time": 105.28125,
          "velocity": 0.7244094488188977
        },
        {
          "duration": 0.09375,
          "durationTicks": 24,
          "midi": 63,
          "name": "D#4",
          "ticks": 26976,
          "time": 105.375,
          "velocity": 0.7244094488188977
        },
        {
          "duration": 0.296875,
          "durationTicks": 76,
          "midi": 60,
          "name": "C4",
          "ticks": 27024,
          "time": 105.5625,
          "velocity": 0.7244094488188977
        },
        {
          "duration": 0.09375,
          "durationTicks": 24,
          "midi": 62,
          "name": "D4",
          "ticks": 27096,
          "time": 105.84375,
          "velocity": 0.48031496062992124
        },
        {
          "duration": 0.09375,
          "durationTicks": 24,
          "midi": 63,
          "name": "D#4",
          "ticks": 27120,
          "time": 105.9375,
          "velocity": 0.41732283464566927
        },
        {
          "duration": 0.1875,
          "durationTicks": 48,
          "midi": 68,
          "name": "G#4",
          "ticks": 27168,
          "time": 106.125,
          "velocity": 0.28346456692913385
        },
        {
          "duration": 0.1875,
          "durationTicks": 48,
          "midi": 67,
          "name": "G4",
          "ticks": 27216,
          "time": 106.3125,
          "velocity": 0.14960629921259844
        },
        {
          "duration": 0.15625,
          "durationTicks": 40,
          "midi": 60,
          "name": "C4",
          "ticks": 27264,
          "time": 106.5,
          "velocity": 0.7165354330708661
        },
        {
          "duration": 0.0625,
          "durationTicks": 16,
          "midi": 60,
          "name": "C4",
          "ticks": 27336,
          "time": 106.78125,
          "velocity": 0.7165354330708661
        },
        {
          "duration": 0.09375,
          "durationTicks": 24,
          "midi": 60,
          "name": "C4",
          "ticks": 27360,
          "time": 106.875,
          "velocity": 0.7165354330708661
        },
        {
          "duration": 0.296875,
          "durationTicks": 76,
          "midi": 60,
          "name": "C4",
          "ticks": 27408,
          "time": 107.0625,
          "velocity": 0.7165354330708661
        },
        {
          "duration": 0.09375,
          "durationTicks": 24,
          "midi": 62,
          "name": "D4",
          "ticks": 27480,
          "time": 107.34375,
          "velocity": 0.7165354330708661
        },
        {
          "duration": 0.09375,
          "durationTicks": 24,
          "midi": 63,
          "name": "D#4",
          "ticks": 27504,
          "time": 107.4375,
          "velocity": 0.7165354330708661
        },
        {
          "duration": 0.296875,
          "durationTicks": 76,
          "midi": 60,
          "name": "C4",
          "ticks": 27552,
          "time": 107.625,
          "velocity": 0.7165354330708661
        },
        {
          "duration": 0.09375,
          "durationTicks": 24,
          "midi": 62,
          "name": "D4",
          "ticks": 27624,
          "time": 107.90625,
          "velocity": 0.7165354330708661
        },
        {
          "duration": 0.09375,
          "durationTicks": 24,
          "midi": 63,
          "name": "D#4",
          "ticks": 27648,
          "time": 108,
          "velocity": 0.7165354330708661
        },
        {
          "duration": 0.296875,
          "durationTicks": 76,
          "midi": 60,
          "name": "C4",
          "ticks": 27696,
          "time": 108.1875,
          "velocity": 0.7165354330708661
        },
        {
          "duration": 0.09375,
          "durationTicks": 24,
          "midi": 62,
          "name": "D4",
          "ticks": 27768,
          "time": 108.46875,
          "velocity": 0.7165354330708661
        },
        {
          "duration": 0.09375,
          "durationTicks": 24,
          "midi": 63,
          "name": "D#4",
          "ticks": 27792,
          "time": 108.5625,
          "velocity": 0.7165354330708661
        },
        {
          "duration": 0.296875,
          "durationTicks": 76,
          "midi": 60,
          "name": "C4",
          "ticks": 27840,
          "time": 108.75,
          "velocity": 0.7165354330708661
        },
        {
          "duration": 0.09375,
          "durationTicks": 24,
          "midi": 62,
          "name": "D4",
          "ticks": 27912,
          "time": 109.03125,
          "velocity": 0.7165354330708661
        },
        {
          "duration": 0.09375,
          "durationTicks": 24,
          "midi": 63,
          "name": "D#4",
          "ticks": 27936,
          "time": 109.125,
          "velocity": 0.7165354330708661
        },
        {
          "duration": 0.296875,
          "durationTicks": 76,
          "midi": 60,
          "name": "C4",
          "ticks": 27984,
          "time": 109.3125,
          "velocity": 0.7165354330708661
        },
        {
          "duration": 0.09375,
          "durationTicks": 24,
          "midi": 62,
          "name": "D4",
          "ticks": 28056,
          "time": 109.59375,
          "velocity": 0.7165354330708661
        },
        {
          "duration": 0.09375,
          "durationTicks": 24,
          "midi": 63,
          "name": "D#4",
          "ticks": 28080,
          "time": 109.6875,
          "velocity": 0.7165354330708661
        },
        {
          "duration": 0.296875,
          "durationTicks": 76,
          "midi": 60,
          "name": "C4",
          "ticks": 28128,
          "time": 109.875,
          "velocity": 0.7165354330708661
        },
        {
          "duration": 0.09375,
          "durationTicks": 24,
          "midi": 62,
          "name": "D4",
          "ticks": 28200,
          "time": 110.15625,
          "velocity": 0.7165354330708661
        },
        {
          "duration": 0.09375,
          "durationTicks": 24,
          "midi": 63,
          "name": "D#4",
          "ticks": 28224,
          "time": 110.25,
          "velocity": 0.7165354330708661
        },
        {
          "duration": 0.296875,
          "durationTicks": 76,
          "midi": 60,
          "name": "C4",
          "ticks": 28272,
          "time": 110.4375,
          "velocity": 0.7165354330708661
        },
        {
          "duration": 0.09375,
          "durationTicks": 24,
          "midi": 62,
          "name": "D4",
          "ticks": 28344,
          "time": 110.71875,
          "velocity": 0.7165354330708661
        },
        {
          "duration": 0.09375,
          "durationTicks": 24,
          "midi": 63,
          "name": "D#4",
          "ticks": 28368,
          "time": 110.8125,
          "velocity": 0.7165354330708661
        },
        {
          "duration": 0.296875,
          "durationTicks": 76,
          "midi": 60,
          "name": "C4",
          "ticks": 28416,
          "time": 111,
          "velocity": 0.7165354330708661
        },
        {
          "duration": 0.09375,
          "durationTicks": 24,
          "midi": 62,
          "name": "D4",
          "ticks": 28488,
          "time": 111.28125,
          "velocity": 0.7165354330708661
        },
        {
          "duration": 0.09375,
          "durationTicks": 24,
          "midi": 63,
          "name": "D#4",
          "ticks": 28512,
          "time": 111.375,
          "velocity": 0.7165354330708661
        },
        {
          "duration": 0.296875,
          "durationTicks": 76,
          "midi": 60,
          "name": "C4",
          "ticks": 28536,
          "time": 111.46875,
          "velocity": 0.7165354330708661
        },
        {
          "duration": 0.09375,
          "durationTicks": 24,
          "midi": 62,
          "name": "D4",
          "ticks": 28608,
          "time": 111.75,
          "velocity": 0.7165354330708661
        },
        {
          "duration": 0.09375,
          "durationTicks": 24,
          "midi": 63,
          "name": "D#4",
          "ticks": 28632,
          "time": 111.84375,
          "velocity": 0.7165354330708661
        },
        {
          "duration": 0.296875,
          "durationTicks": 76,
          "midi": 60,
          "name": "C4",
          "ticks": 28656,
          "time": 111.9375,
          "velocity": 0.7165354330708661
        },
        {
          "duration": 0.09375,
          "durationTicks": 24,
          "midi": 62,
          "name": "D4",
          "ticks": 28728,
          "time": 112.21875,
          "velocity": 0.7165354330708661
        },
        {
          "duration": 0.09375,
          "durationTicks": 24,
          "midi": 63,
          "name": "D#4",
          "ticks": 28752,
          "time": 112.3125,
          "velocity": 0.7165354330708661
        },
        {
          "duration": 0.1875,
          "durationTicks": 48,
          "midi": 60,
          "name": "C4",
          "ticks": 28776,
          "time": 112.40625,
          "velocity": 0.7165354330708661
        },
        {
          "duration": 0.09375,
          "durationTicks": 24,
          "midi": 62,
          "name": "D4",
          "ticks": 28824,
          "time": 112.59375,
          "velocity": 0.7165354330708661
        },
        {
          "duration": 0.09375,
          "durationTicks": 24,
          "midi": 63,
          "name": "D#4",
          "ticks": 28848,
          "time": 112.6875,
          "velocity": 0.7165354330708661
        },
        {
          "duration": 0.1875,
          "durationTicks": 48,
          "midi": 60,
          "name": "C4",
          "ticks": 28872,
          "time": 112.78125,
          "velocity": 0.7165354330708661
        },
        {
          "duration": 0.09375,
          "durationTicks": 24,
          "midi": 62,
          "name": "D4",
          "ticks": 28920,
          "time": 112.96875,
          "velocity": 0.7165354330708661
        },
        {
          "duration": 0.09375,
          "durationTicks": 24,
          "midi": 63,
          "name": "D#4",
          "ticks": 28944,
          "time": 113.0625,
          "velocity": 0.7165354330708661
        },
        {
          "duration": 0.1875,
          "durationTicks": 48,
          "midi": 60,
          "name": "C4",
          "ticks": 28968,
          "time": 113.15625,
          "velocity": 0.7165354330708661
        },
        {
          "duration": 0.09375,
          "durationTicks": 24,
          "midi": 62,
          "name": "D4",
          "ticks": 29016,
          "time": 113.34375,
          "velocity": 0.7165354330708661
        },
        {
          "duration": 0.09375,
          "durationTicks": 24,
          "midi": 63,
          "name": "D#4",
          "ticks": 29040,
          "time": 113.4375,
          "velocity": 0.7165354330708661
        },
        {
          "duration": 0.09375,
          "durationTicks": 24,
          "midi": 60,
          "name": "C4",
          "ticks": 29064,
          "time": 113.53125,
          "velocity": 0.7165354330708661
        },
        {
          "duration": 0.09375,
          "durationTicks": 24,
          "midi": 62,
          "name": "D4",
          "ticks": 29088,
          "time": 113.625,
          "velocity": 0.7165354330708661
        },
        {
          "duration": 0.09375,
          "durationTicks": 24,
          "midi": 63,
          "name": "D#4",
          "ticks": 29112,
          "time": 113.71875,
          "velocity": 0.7165354330708661
        },
        {
          "duration": 0.09375,
          "durationTicks": 24,
          "midi": 60,
          "name": "C4",
          "ticks": 29136,
          "time": 113.8125,
          "velocity": 0.7165354330708661
        },
        {
          "duration": 0.09375,
          "durationTicks": 24,
          "midi": 62,
          "name": "D4",
          "ticks": 29160,
          "time": 113.90625,
          "velocity": 0.7165354330708661
        },
        {
          "duration": 0.09375,
          "durationTicks": 24,
          "midi": 63,
          "name": "D#4",
          "ticks": 29184,
          "time": 114,
          "velocity": 0.7165354330708661
        },
        {
          "duration": 0.046875,
          "durationTicks": 12,
          "midi": 60,
          "name": "C4",
          "ticks": 29208,
          "time": 114.09375,
          "velocity": 0.7165354330708661
        },
        {
          "duration": 0.046875,
          "durationTicks": 12,
          "midi": 62,
          "name": "D4",
          "ticks": 29220,
          "time": 114.140625,
          "velocity": 0.7165354330708661
        },
        {
          "duration": 0.046875,
          "durationTicks": 12,
          "midi": 63,
          "name": "D#4",
          "ticks": 29232,
          "time": 114.1875,
          "velocity": 0.7165354330708661
        },
        {
          "duration": 0.046875,
          "durationTicks": 12,
          "midi": 60,
          "name": "C4",
          "ticks": 29244,
          "time": 114.234375,
          "velocity": 0.7165354330708661
        },
        {
          "duration": 0.046875,
          "durationTicks": 12,
          "midi": 62,
          "name": "D4",
          "ticks": 29256,
          "time": 114.28125,
          "velocity": 0.7165354330708661
        },
        {
          "duration": 0.046875,
          "durationTicks": 12,
          "midi": 63,
          "name": "D#4",
          "ticks": 29268,
          "time": 114.328125,
          "velocity": 0.7165354330708661
        },
        {
          "duration": 0.1875,
          "durationTicks": 48,
          "midi": 62,
          "name": "D4",
          "ticks": 29616,
          "time": 115.6875,
          "velocity": 0.7086614173228346
        },
        {
          "duration": 0.1875,
          "durationTicks": 48,
          "midi": 63,
          "name": "D#4",
          "ticks": 29664,
          "time": 115.875,
          "velocity": 0.7086614173228346
        },
        {
          "duration": 0.1875,
          "durationTicks": 48,
          "midi": 62,
          "name": "D4",
          "ticks": 29736,
          "time": 116.15625,
          "velocity": 0.7086614173228346
        },
        {
          "duration": 0.1875,
          "durationTicks": 48,
          "midi": 61,
          "name": "C#4",
          "ticks": 29808,
          "time": 116.4375,
          "velocity": 0.7086614173228346
        },
        {
          "duration": 0.1875,
          "durationTicks": 48,
          "midi": 60,
          "name": "C4",
          "ticks": 29880,
          "time": 116.71875,
          "velocity": 0.7086614173228346
        },
        {
          "duration": 0.1875,
          "durationTicks": 48,
          "midi": 59,
          "name": "B3",
          "ticks": 29952,
          "time": 117,
          "velocity": 0.7086614173228346
        },
        {
          "duration": 0.1875,
          "durationTicks": 48,
          "midi": 55,
          "name": "G3",
          "ticks": 30000,
          "time": 117.1875,
          "velocity": 0.7086614173228346
        }
      ],
      "endOfTrackTicks": 37730
    },
    {
      "channel": 4,
      "controlChanges": {
        "6": [
          {
            "number": 6,
            "ticks": 0,
            "time": 0,
            "value": 0.09448818897637795
          },
          {
            "number": 6,
            "ticks": 0,
            "time": 0,
            "value": 0.09448818897637795
          },
          {
            "number": 6,
            "ticks": 0,
            "time": 0,
            "value": 0.09448818897637795
          },
          {
            "number": 6,
            "ticks": 37728,
            "time": 147.375,
            "value": 0.09448818897637795
          },
          {
            "number": 6,
            "ticks": 37730,
            "time": 147.3828125,
            "value": 0.09448818897637795
          }
        ],
        "7": [
          {
            "number": 7,
            "ticks": 0,
            "time": 0,
            "value": 0.7874015748031497
          },
          {
            "number": 7,
            "ticks": 0,
            "time": 0,
            "value": 0.7874015748031497
          },
          {
            "number": 7,
            "ticks": 0,
            "time": 0,
            "value": 0.7874015748031497
          },
          {
            "number": 7,
            "ticks": 0,
            "time": 0,
            "value": 0.7874015748031497
          },
          {
            "number": 7,
            "ticks": 37728,
            "time": 147.375,
            "value": 0.7874015748031497
          },
          {
            "number": 7,
            "ticks": 37730,
            "time": 147.3828125,
            "value": 0.7874015748031497
          }
        ],
        "10": [
          {
            "number": 10,
            "ticks": 0,
            "time": 0,
            "value": 0.5039370078740157
          },
          {
            "number": 10,
            "ticks": 0,
            "time": 0,
            "value": 0.5039370078740157
          },
          {
            "number": 10,
            "ticks": 0,
            "time": 0,
            "value": 0.5039370078740157
          },
          {
            "number": 10,
            "ticks": 0,
            "time": 0,
            "value": 0.5039370078740157
          },
          {
            "number": 10,
            "ticks": 37728,
            "time": 147.375,
            "value": 0.5039370078740157
          },
          {
            "number": 10,
            "ticks": 37730,
            "time": 147.3828125,
            "value": 0.5039370078740157
          }
        ],
        "100": [
          {
            "number": 100,
            "ticks": 0,
            "time": 0,
            "value": 0
          },
          {
            "number": 100,
            "ticks": 0,
            "time": 0,
            "value": 0
          },
          {
            "number": 100,
            "ticks": 0,
            "time": 0,
            "value": 0
          },
          {
            "number": 100,
            "ticks": 37728,
            "time": 147.375,
            "value": 0
          },
          {
            "number": 100,
            "ticks": 37730,
            "time": 147.3828125,
            "value": 0
          }
        ],
        "101": [
          {
            "number": 101,
            "ticks": 0,
            "time": 0,
            "value": 0
          },
          {
            "number": 101,
            "ticks": 0,
            "time": 0,
            "value": 0
          },
          {
            "number": 101,
            "ticks": 0,
            "time": 0,
            "value": 0
          },
          {
            "number": 101,
            "ticks": 37728,
            "time": 147.375,
            "value": 0
          },
          {
            "number": 101,
            "ticks": 37730,
            "time": 147.3828125,
            "value": 0
          }
        ]
      },
      "pitchBends": [
        {
          "ticks": 0,
          "time": 0,
          "value": 0
        },
        {
          "ticks": 0,
          "time": 0,
          "value": 0
        },
        {
          "ticks": 0,
          "time": 0,
          "value": 0
        },
        {
          "ticks": 0,
          "time": 0,
          "value": 0
        },
        {
          "ticks": 37728,
          "time": 147.375,
          "value": 0
        },
        {
          "ticks": 37730,
          "time": 147.3828125,
          "value": 0
        }
      ],
      "instrument": {
        "family": "piano",
        "number": 0,
        "name": "acoustic grand piano"
      },
      "name": "Lead #2",
      "notes": [
        {
          "duration": 0.15625,
          "durationTicks": 40,
          "midi": 48,
          "name": "C3",
          "ticks": 9600,
          "time": 37.5,
          "velocity": 0.6141732283464567
        },
        {
          "duration": 0.0625,
          "durationTicks": 16,
          "midi": 48,
          "name": "C3",
          "ticks": 9672,
          "time": 37.78125,
          "velocity": 0.6141732283464567
        },
        {
          "duration": 0.09375,
          "durationTicks": 24,
          "midi": 48,
          "name": "C3",
          "ticks": 9696,
          "time": 37.875,
          "velocity": 0.6141732283464567
        },
        {
          "duration": 0.296875,
          "durationTicks": 76,
          "midi": 48,
          "name": "C3",
          "ticks": 9744,
          "time": 38.0625,
          "velocity": 0.6062992125984252
        },
        {
          "duration": 0.09375,
          "durationTicks": 24,
          "midi": 50,
          "name": "D3",
          "ticks": 9816,
          "time": 38.34375,
          "velocity": 0.6141732283464567
        },
        {
          "duration": 0.09375,
          "durationTicks": 24,
          "midi": 51,
          "name": "D#3",
          "ticks": 9840,
          "time": 38.4375,
          "velocity": 0.6141732283464567
        },
        {
          "duration": 0.296875,
          "durationTicks": 76,
          "midi": 48,
          "name": "C3",
          "ticks": 9888,
          "time": 38.625,
          "velocity": 0.6062992125984252
        },
        {
          "duration": 0.09375,
          "durationTicks": 24,
          "midi": 50,
          "name": "D3",
          "ticks": 9960,
          "time": 38.90625,
          "velocity": 0.6141732283464567
        },
        {
          "duration": 0.09375,
          "durationTicks": 24,
          "midi": 51,
          "name": "D#3",
          "ticks": 9984,
          "time": 39,
          "velocity": 0.6141732283464567
        },
        {
          "duration": 0.296875,
          "durationTicks": 76,
          "midi": 48,
          "name": "C3",
          "ticks": 10032,
          "time": 39.1875,
          "velocity": 0.6062992125984252
        },
        {
          "duration": 0.09375,
          "durationTicks": 24,
          "midi": 50,
          "name": "D3",
          "ticks": 10104,
          "time": 39.46875,
          "velocity": 0.6141732283464567
        },
        {
          "duration": 0.09375,
          "durationTicks": 24,
          "midi": 51,
          "name": "D#3",
          "ticks": 10128,
          "time": 39.5625,
          "velocity": 0.6141732283464567
        },
        {
          "duration": 0.0625,
          "durationTicks": 16,
          "midi": 44,
          "name": "G#2",
          "ticks": 10176,
          "time": 39.75,
          "velocity": 0.6141732283464567
        },
        {
          "duration": 0.0625,
          "durationTicks": 16,
          "midi": 44,
          "name": "G#2",
          "ticks": 10200,
          "time": 39.84375,
          "velocity": 0.6141732283464567
        },
        {
          "duration": 0.0625,
          "durationTicks": 16,
          "midi": 44,
          "name": "G#2",
          "ticks": 10224,
          "time": 39.9375,
          "velocity": 0.6141732283464567
        },
        {
          "duration": 0.15625,
          "durationTicks": 40,
          "midi": 47,
          "name": "B2",
          "ticks": 10272,
          "time": 40.125,
          "velocity": 0.6141732283464567
        },
        {
          "duration": 0.15625,
          "durationTicks": 40,
          "midi": 47,
          "name": "B2",
          "ticks": 10320,
          "time": 40.3125,
          "velocity": 0.6141732283464567
        },
        {
          "duration": 0.15625,
          "durationTicks": 40,
          "midi": 48,
          "name": "C3",
          "ticks": 10368,
          "time": 40.5,
          "velocity": 0.6141732283464567
        },
        {
          "duration": 0.0625,
          "durationTicks": 16,
          "midi": 48,
          "name": "C3",
          "ticks": 10440,
          "time": 40.78125,
          "velocity": 0.6141732283464567
        },
        {
          "duration": 0.09375,
          "durationTicks": 24,
          "midi": 48,
          "name": "C3",
          "ticks": 10464,
          "time": 40.875,
          "velocity": 0.6141732283464567
        },
        {
          "duration": 0.296875,
          "durationTicks": 76,
          "midi": 48,
          "name": "C3",
          "ticks": 10512,
          "time": 41.0625,
          "velocity": 0.6062992125984252
        },
        {
          "duration": 0.09375,
          "durationTicks": 24,
          "midi": 50,
          "name": "D3",
          "ticks": 10584,
          "time": 41.34375,
          "velocity": 0.6141732283464567
        },
        {
          "duration": 0.09375,
          "durationTicks": 24,
          "midi": 51,
          "name": "D#3",
          "ticks": 10608,
          "time": 41.4375,
          "velocity": 0.6141732283464567
        },
        {
          "duration": 0.296875,
          "durationTicks": 76,
          "midi": 48,
          "name": "C3",
          "ticks": 10656,
          "time": 41.625,
          "velocity": 0.6062992125984252
        },
        {
          "duration": 0.09375,
          "durationTicks": 24,
          "midi": 50,
          "name": "D3",
          "ticks": 10728,
          "time": 41.90625,
          "velocity": 0.6141732283464567
        },
        {
          "duration": 0.09375,
          "durationTicks": 24,
          "midi": 51,
          "name": "D#3",
          "ticks": 10752,
          "time": 42,
          "velocity": 0.6141732283464567
        },
        {
          "duration": 0.296875,
          "durationTicks": 76,
          "midi": 48,
          "name": "C3",
          "ticks": 10800,
          "time": 42.1875,
          "velocity": 0.6062992125984252
        },
        {
          "duration": 0.09375,
          "durationTicks": 24,
          "midi": 50,
          "name": "D3",
          "ticks": 10872,
          "time": 42.46875,
          "velocity": 0.6141732283464567
        },
        {
          "duration": 0.09375,
          "durationTicks": 24,
          "midi": 51,
          "name": "D#3",
          "ticks": 10896,
          "time": 42.5625,
          "velocity": 0.6141732283464567
        },
        {
          "duration": 0.0625,
          "durationTicks": 16,
          "midi": 56,
          "name": "G#3",
          "ticks": 10944,
          "time": 42.75,
          "velocity": 0.6141732283464567
        },
        {
          "duration": 0.0625,
          "durationTicks": 16,
          "midi": 56,
          "name": "G#3",
          "ticks": 10968,
          "time": 42.84375,
          "velocity": 0.6141732283464567
        },
        {
          "duration": 0.0625,
          "durationTicks": 16,
          "midi": 56,
          "name": "G#3",
          "ticks": 10992,
          "time": 42.9375,
          "velocity": 0.6141732283464567
        },
        {
          "duration": 0.15625,
          "durationTicks": 40,
          "midi": 55,
          "name": "G3",
          "ticks": 11040,
          "time": 43.125,
          "velocity": 0.6141732283464567
        },
        {
          "duration": 0.15625,
          "durationTicks": 40,
          "midi": 50,
          "name": "D3",
          "ticks": 11088,
          "time": 43.3125,
          "velocity": 0.6141732283464567
        },
        {
          "duration": 0.15625,
          "durationTicks": 40,
          "midi": 48,
          "name": "C3",
          "ticks": 11136,
          "time": 43.5,
          "velocity": 0.6141732283464567
        },
        {
          "duration": 0.0625,
          "durationTicks": 16,
          "midi": 48,
          "name": "C3",
          "ticks": 11208,
          "time": 43.78125,
          "velocity": 0.6141732283464567
        },
        {
          "duration": 0.09375,
          "durationTicks": 24,
          "midi": 48,
          "name": "C3",
          "ticks": 11232,
          "time": 43.875,
          "velocity": 0.6141732283464567
        },
        {
          "duration": 0.296875,
          "durationTicks": 76,
          "midi": 48,
          "name": "C3",
          "ticks": 11280,
          "time": 44.0625,
          "velocity": 0.6062992125984252
        },
        {
          "duration": 0.09375,
          "durationTicks": 24,
          "midi": 50,
          "name": "D3",
          "ticks": 11352,
          "time": 44.34375,
          "velocity": 0.6141732283464567
        },
        {
          "duration": 0.09375,
          "durationTicks": 24,
          "midi": 51,
          "name": "D#3",
          "ticks": 11376,
          "time": 44.4375,
          "velocity": 0.6141732283464567
        },
        {
          "duration": 0.296875,
          "durationTicks": 76,
          "midi": 48,
          "name": "C3",
          "ticks": 11424,
          "time": 44.625,
          "velocity": 0.6062992125984252
        },
        {
          "duration": 0.09375,
          "durationTicks": 24,
          "midi": 50,
          "name": "D3",
          "ticks": 11496,
          "time": 44.90625,
          "velocity": 0.6141732283464567
        },
        {
          "duration": 0.09375,
          "durationTicks": 24,
          "midi": 51,
          "name": "D#3",
          "ticks": 11520,
          "time": 45,
          "velocity": 0.6141732283464567
        },
        {
          "duration": 0.296875,
          "durationTicks": 76,
          "midi": 48,
          "name": "C3",
          "ticks": 11568,
          "time": 45.1875,
          "velocity": 0.6062992125984252
        },
        {
          "duration": 0.09375,
          "durationTicks": 24,
          "midi": 50,
          "name": "D3",
          "ticks": 11640,
          "time": 45.46875,
          "velocity": 0.6141732283464567
        },
        {
          "duration": 0.09375,
          "durationTicks": 24,
          "midi": 51,
          "name": "D#3",
          "ticks": 11664,
          "time": 45.5625,
          "velocity": 0.6141732283464567
        },
        {
          "duration": 0.0625,
          "durationTicks": 16,
          "midi": 44,
          "name": "G#2",
          "ticks": 11712,
          "time": 45.75,
          "velocity": 0.6141732283464567
        },
        {
          "duration": 0.0625,
          "durationTicks": 16,
          "midi": 44,
          "name": "G#2",
          "ticks": 11736,
          "time": 45.84375,
          "velocity": 0.6141732283464567
        },
        {
          "duration": 0.0625,
          "durationTicks": 16,
          "midi": 44,
          "name": "G#2",
          "ticks": 11760,
          "time": 45.9375,
          "velocity": 0.6141732283464567
        },
        {
          "duration": 0.15625,
          "durationTicks": 40,
          "midi": 47,
          "name": "B2",
          "ticks": 11808,
          "time": 46.125,
          "velocity": 0.6141732283464567
        },
        {
          "duration": 0.15625,
          "durationTicks": 40,
          "midi": 47,
          "name": "B2",
          "ticks": 11856,
          "time": 46.3125,
          "velocity": 0.6141732283464567
        },
        {
          "duration": 0.15625,
          "durationTicks": 40,
          "midi": 48,
          "name": "C3",
          "ticks": 11904,
          "time": 46.5,
          "velocity": 0.6141732283464567
        },
        {
          "duration": 0.0625,
          "durationTicks": 16,
          "midi": 48,
          "name": "C3",
          "ticks": 11976,
          "time": 46.78125,
          "velocity": 0.6141732283464567
        },
        {
          "duration": 0.09375,
          "durationTicks": 24,
          "midi": 48,
          "name": "C3",
          "ticks": 12000,
          "time": 46.875,
          "velocity": 0.6141732283464567
        },
        {
          "duration": 0.296875,
          "durationTicks": 76,
          "midi": 48,
          "name": "C3",
          "ticks": 12048,
          "time": 47.0625,
          "velocity": 0.6062992125984252
        },
        {
          "duration": 0.09375,
          "durationTicks": 24,
          "midi": 50,
          "name": "D3",
          "ticks": 12120,
          "time": 47.34375,
          "velocity": 0.6141732283464567
        },
        {
          "duration": 0.09375,
          "durationTicks": 24,
          "midi": 51,
          "name": "D#3",
          "ticks": 12144,
          "time": 47.4375,
          "velocity": 0.6141732283464567
        },
        {
          "duration": 0.15625,
          "durationTicks": 40,
          "midi": 48,
          "name": "C3",
          "ticks": 12192,
          "time": 47.625,
          "velocity": 0.6141732283464567
        },
        {
          "duration": 0.09375,
          "durationTicks": 24,
          "midi": 48,
          "name": "C3",
          "ticks": 12240,
          "time": 47.8125,
          "velocity": 0.6141732283464567
        },
        {
          "duration": 0.09375,
          "durationTicks": 24,
          "midi": 50,
          "name": "D3",
          "ticks": 12264,
          "time": 47.90625,
          "velocity": 0.6141732283464567
        },
        {
          "duration": 0.09375,
          "durationTicks": 24,
          "midi": 48,
          "name": "C3",
          "ticks": 12336,
          "time": 48.1875,
          "velocity": 0.5984251968503937
        },
        {
          "duration": 0.15625,
          "durationTicks": 40,
          "midi": 51,
          "name": "D#3",
          "ticks": 12384,
          "time": 48.375,
          "velocity": 0.5984251968503937
        },
        {
          "duration": 0.0625,
          "durationTicks": 16,
          "midi": 51,
          "name": "D#3",
          "ticks": 12432,
          "time": 48.5625,
          "velocity": 0.5984251968503937
        },
        {
          "duration": 0.0625,
          "durationTicks": 16,
          "midi": 51,
          "name": "D#3",
          "ticks": 12456,
          "time": 48.65625,
          "velocity": 0.5984251968503937
        },
        {
          "duration": 0.0625,
          "durationTicks": 16,
          "midi": 56,
          "name": "G#3",
          "ticks": 12480,
          "time": 48.75,
          "velocity": 0.4251968503937008
        },
        {
          "duration": 0.0625,
          "durationTicks": 16,
          "midi": 56,
          "name": "G#3",
          "ticks": 12504,
          "time": 48.84375,
          "velocity": 0.4251968503937008
        },
        {
          "duration": 0.0625,
          "durationTicks": 16,
          "midi": 56,
          "name": "G#3",
          "ticks": 12528,
          "time": 48.9375,
          "velocity": 0.4251968503937008
        },
        {
          "duration": 0.0625,
          "durationTicks": 16,
          "midi": 56,
          "name": "G#3",
          "ticks": 12552,
          "time": 49.03125,
          "velocity": 0.4251968503937008
        },
        {
          "duration": 0.0625,
          "durationTicks": 16,
          "midi": 49,
          "name": "C#3",
          "ticks": 12624,
          "time": 49.3125,
          "velocity": 0.4251968503937008
        },
        {
          "duration": 0.0625,
          "durationTicks": 16,
          "midi": 49,
          "name": "C#3",
          "ticks": 12648,
          "time": 49.40625,
          "velocity": 0.4251968503937008
        },
        {
          "duration": 0.15625,
          "durationTicks": 40,
          "midi": 48,
          "name": "C3",
          "ticks": 12672,
          "time": 49.5,
          "velocity": 0.6141732283464567
        },
        {
          "duration": 0.0625,
          "durationTicks": 16,
          "midi": 48,
          "name": "C3",
          "ticks": 12744,
          "time": 49.78125,
          "velocity": 0.6141732283464567
        },
        {
          "duration": 0.09375,
          "durationTicks": 24,
          "midi": 48,
          "name": "C3",
          "ticks": 12768,
          "time": 49.875,
          "velocity": 0.6141732283464567
        },
        {
          "duration": 0.296875,
          "durationTicks": 76,
          "midi": 48,
          "name": "C3",
          "ticks": 12816,
          "time": 50.0625,
          "velocity": 0.6062992125984252
        },
        {
          "duration": 0.09375,
          "durationTicks": 24,
          "midi": 50,
          "name": "D3",
          "ticks": 12888,
          "time": 50.34375,
          "velocity": 0.6141732283464567
        },
        {
          "duration": 0.09375,
          "durationTicks": 24,
          "midi": 51,
          "name": "D#3",
          "ticks": 12912,
          "time": 50.4375,
          "velocity": 0.6141732283464567
        },
        {
          "duration": 0.296875,
          "durationTicks": 76,
          "midi": 48,
          "name": "C3",
          "ticks": 12960,
          "time": 50.625,
          "velocity": 0.6062992125984252
        },
        {
          "duration": 0.09375,
          "durationTicks": 24,
          "midi": 50,
          "name": "D3",
          "ticks": 13032,
          "time": 50.90625,
          "velocity": 0.6141732283464567
        },
        {
          "duration": 0.09375,
          "durationTicks": 24,
          "midi": 51,
          "name": "D#3",
          "ticks": 13056,
          "time": 51,
          "velocity": 0.6141732283464567
        },
        {
          "duration": 0.296875,
          "durationTicks": 76,
          "midi": 48,
          "name": "C3",
          "ticks": 13104,
          "time": 51.1875,
          "velocity": 0.6062992125984252
        },
        {
          "duration": 0.09375,
          "durationTicks": 24,
          "midi": 50,
          "name": "D3",
          "ticks": 13176,
          "time": 51.46875,
          "velocity": 0.6141732283464567
        },
        {
          "duration": 0.09375,
          "durationTicks": 24,
          "midi": 51,
          "name": "D#3",
          "ticks": 13200,
          "time": 51.5625,
          "velocity": 0.6141732283464567
        },
        {
          "duration": 0.0625,
          "durationTicks": 16,
          "midi": 44,
          "name": "G#2",
          "ticks": 13248,
          "time": 51.75,
          "velocity": 0.6141732283464567
        },
        {
          "duration": 0.0625,
          "durationTicks": 16,
          "midi": 44,
          "name": "G#2",
          "ticks": 13272,
          "time": 51.84375,
          "velocity": 0.6141732283464567
        },
        {
          "duration": 0.0625,
          "durationTicks": 16,
          "midi": 44,
          "name": "G#2",
          "ticks": 13296,
          "time": 51.9375,
          "velocity": 0.6141732283464567
        },
        {
          "duration": 0.15625,
          "durationTicks": 40,
          "midi": 47,
          "name": "B2",
          "ticks": 13344,
          "time": 52.125,
          "velocity": 0.6141732283464567
        },
        {
          "duration": 0.15625,
          "durationTicks": 40,
          "midi": 47,
          "name": "B2",
          "ticks": 13392,
          "time": 52.3125,
          "velocity": 0.6141732283464567
        },
        {
          "duration": 0.15625,
          "durationTicks": 40,
          "midi": 48,
          "name": "C3",
          "ticks": 13440,
          "time": 52.5,
          "velocity": 0.6141732283464567
        },
        {
          "duration": 0.0625,
          "durationTicks": 16,
          "midi": 48,
          "name": "C3",
          "ticks": 13512,
          "time": 52.78125,
          "velocity": 0.6141732283464567
        },
        {
          "duration": 0.09375,
          "durationTicks": 24,
          "midi": 48,
          "name": "C3",
          "ticks": 13536,
          "time": 52.875,
          "velocity": 0.6141732283464567
        },
        {
          "duration": 0.296875,
          "durationTicks": 76,
          "midi": 48,
          "name": "C3",
          "ticks": 13584,
          "time": 53.0625,
          "velocity": 0.6062992125984252
        },
        {
          "duration": 0.09375,
          "durationTicks": 24,
          "midi": 50,
          "name": "D3",
          "ticks": 13656,
          "time": 53.34375,
          "velocity": 0.6141732283464567
        },
        {
          "duration": 0.09375,
          "durationTicks": 24,
          "midi": 51,
          "name": "D#3",
          "ticks": 13680,
          "time": 53.4375,
          "velocity": 0.6141732283464567
        },
        {
          "duration": 0.296875,
          "durationTicks": 76,
          "midi": 48,
          "name": "C3",
          "ticks": 13728,
          "time": 53.625,
          "velocity": 0.6062992125984252
        },
        {
          "duration": 0.09375,
          "durationTicks": 24,
          "midi": 50,
          "name": "D3",
          "ticks": 13800,
          "time": 53.90625,
          "velocity": 0.6141732283464567
        },
        {
          "duration": 0.09375,
          "durationTicks": 24,
          "midi": 51,
          "name": "D#3",
          "ticks": 13824,
          "time": 54,
          "velocity": 0.6141732283464567
        },
        {
          "duration": 0.296875,
          "durationTicks": 76,
          "midi": 48,
          "name": "C3",
          "ticks": 13872,
          "time": 54.1875,
          "velocity": 0.6062992125984252
        },
        {
          "duration": 0.09375,
          "durationTicks": 24,
          "midi": 50,
          "name": "D3",
          "ticks": 13944,
          "time": 54.46875,
          "velocity": 0.6141732283464567
        },
        {
          "duration": 0.09375,
          "durationTicks": 24,
          "midi": 51,
          "name": "D#3",
          "ticks": 13968,
          "time": 54.5625,
          "velocity": 0.6141732283464567
        },
        {
          "duration": 0.0625,
          "durationTicks": 16,
          "midi": 56,
          "name": "G#3",
          "ticks": 14016,
          "time": 54.75,
          "velocity": 0.6141732283464567
        },
        {
          "duration": 0.0625,
          "durationTicks": 16,
          "midi": 56,
          "name": "G#3",
          "ticks": 14040,
          "time": 54.84375,
          "velocity": 0.6141732283464567
        },
        {
          "duration": 0.0625,
          "durationTicks": 16,
          "midi": 56,
          "name": "G#3",
          "ticks": 14064,
          "time": 54.9375,
          "velocity": 0.6141732283464567
        },
        {
          "duration": 0.15625,
          "durationTicks": 40,
          "midi": 55,
          "name": "G3",
          "ticks": 14112,
          "time": 55.125,
          "velocity": 0.6141732283464567
        },
        {
          "duration": 0.15625,
          "durationTicks": 40,
          "midi": 50,
          "name": "D3",
          "ticks": 14160,
          "time": 55.3125,
          "velocity": 0.6141732283464567
        },
        {
          "duration": 0.15625,
          "durationTicks": 40,
          "midi": 48,
          "name": "C3",
          "ticks": 14208,
          "time": 55.5,
          "velocity": 0.6141732283464567
        },
        {
          "duration": 0.0625,
          "durationTicks": 16,
          "midi": 48,
          "name": "C3",
          "ticks": 14280,
          "time": 55.78125,
          "velocity": 0.6141732283464567
        },
        {
          "duration": 0.09375,
          "durationTicks": 24,
          "midi": 48,
          "name": "C3",
          "ticks": 14304,
          "time": 55.875,
          "velocity": 0.6141732283464567
        },
        {
          "duration": 0.296875,
          "durationTicks": 76,
          "midi": 48,
          "name": "C3",
          "ticks": 14352,
          "time": 56.0625,
          "velocity": 0.6062992125984252
        },
        {
          "duration": 0.09375,
          "durationTicks": 24,
          "midi": 50,
          "name": "D3",
          "ticks": 14424,
          "time": 56.34375,
          "velocity": 0.6141732283464567
        },
        {
          "duration": 0.09375,
          "durationTicks": 24,
          "midi": 51,
          "name": "D#3",
          "ticks": 14448,
          "time": 56.4375,
          "velocity": 0.6141732283464567
        },
        {
          "duration": 0.296875,
          "durationTicks": 76,
          "midi": 48,
          "name": "C3",
          "ticks": 14496,
          "time": 56.625,
          "velocity": 0.6062992125984252
        },
        {
          "duration": 0.09375,
          "durationTicks": 24,
          "midi": 50,
          "name": "D3",
          "ticks": 14568,
          "time": 56.90625,
          "velocity": 0.6141732283464567
        },
        {
          "duration": 0.09375,
          "durationTicks": 24,
          "midi": 51,
          "name": "D#3",
          "ticks": 14592,
          "time": 57,
          "velocity": 0.6141732283464567
        },
        {
          "duration": 0.296875,
          "durationTicks": 76,
          "midi": 48,
          "name": "C3",
          "ticks": 14640,
          "time": 57.1875,
          "velocity": 0.6062992125984252
        },
        {
          "duration": 0.09375,
          "durationTicks": 24,
          "midi": 50,
          "name": "D3",
          "ticks": 14712,
          "time": 57.46875,
          "velocity": 0.6141732283464567
        },
        {
          "duration": 0.09375,
          "durationTicks": 24,
          "midi": 51,
          "name": "D#3",
          "ticks": 14736,
          "time": 57.5625,
          "velocity": 0.6141732283464567
        },
        {
          "duration": 0.0625,
          "durationTicks": 16,
          "midi": 44,
          "name": "G#2",
          "ticks": 14784,
          "time": 57.75,
          "velocity": 0.6141732283464567
        },
        {
          "duration": 0.0625,
          "durationTicks": 16,
          "midi": 44,
          "name": "G#2",
          "ticks": 14808,
          "time": 57.84375,
          "velocity": 0.6141732283464567
        },
        {
          "duration": 0.0625,
          "durationTicks": 16,
          "midi": 44,
          "name": "G#2",
          "ticks": 14832,
          "time": 57.9375,
          "velocity": 0.6141732283464567
        },
        {
          "duration": 0.15625,
          "durationTicks": 40,
          "midi": 47,
          "name": "B2",
          "ticks": 14880,
          "time": 58.125,
          "velocity": 0.6141732283464567
        },
        {
          "duration": 0.15625,
          "durationTicks": 40,
          "midi": 47,
          "name": "B2",
          "ticks": 14928,
          "time": 58.3125,
          "velocity": 0.6141732283464567
        },
        {
          "duration": 0.15625,
          "durationTicks": 40,
          "midi": 48,
          "name": "C3",
          "ticks": 14976,
          "time": 58.5,
          "velocity": 0.6141732283464567
        },
        {
          "duration": 0.0625,
          "durationTicks": 16,
          "midi": 48,
          "name": "C3",
          "ticks": 15048,
          "time": 58.78125,
          "velocity": 0.6141732283464567
        },
        {
          "duration": 0.09375,
          "durationTicks": 24,
          "midi": 48,
          "name": "C3",
          "ticks": 15072,
          "time": 58.875,
          "velocity": 0.6141732283464567
        },
        {
          "duration": 0.296875,
          "durationTicks": 76,
          "midi": 48,
          "name": "C3",
          "ticks": 15120,
          "time": 59.0625,
          "velocity": 0.6062992125984252
        },
        {
          "duration": 0.09375,
          "durationTicks": 24,
          "midi": 50,
          "name": "D3",
          "ticks": 15192,
          "time": 59.34375,
          "velocity": 0.6141732283464567
        },
        {
          "duration": 0.09375,
          "durationTicks": 24,
          "midi": 51,
          "name": "D#3",
          "ticks": 15216,
          "time": 59.4375,
          "velocity": 0.6141732283464567
        },
        {
          "duration": 0.15625,
          "durationTicks": 40,
          "midi": 48,
          "name": "C3",
          "ticks": 15264,
          "time": 59.625,
          "velocity": 0.6141732283464567
        },
        {
          "duration": 0.15625,
          "durationTicks": 40,
          "midi": 50,
          "name": "D3",
          "ticks": 15312,
          "time": 59.8125,
          "velocity": 0.6141732283464567
        },
        {
          "duration": 0.15625,
          "durationTicks": 40,
          "midi": 51,
          "name": "D#3",
          "ticks": 15360,
          "time": 60,
          "velocity": 0.6141732283464567
        },
        {
          "duration": 0.15625,
          "durationTicks": 40,
          "midi": 50,
          "name": "D3",
          "ticks": 15432,
          "time": 60.28125,
          "velocity": 0.6141732283464567
        },
        {
          "duration": 0.15625,
          "durationTicks": 40,
          "midi": 49,
          "name": "C#3",
          "ticks": 15504,
          "time": 60.5625,
          "velocity": 0.6141732283464567
        },
        {
          "duration": 0.15625,
          "durationTicks": 40,
          "midi": 48,
          "name": "C3",
          "ticks": 15576,
          "time": 60.84375,
          "velocity": 0.6141732283464567
        },
        {
          "duration": 0.15625,
          "durationTicks": 40,
          "midi": 47,
          "name": "B2",
          "ticks": 15648,
          "time": 61.125,
          "velocity": 0.6141732283464567
        },
        {
          "duration": 0.15625,
          "durationTicks": 40,
          "midi": 48,
          "name": "C3",
          "ticks": 21888,
          "time": 85.5,
          "velocity": 0.6062992125984252
        },
        {
          "duration": 0.0625,
          "durationTicks": 16,
          "midi": 48,
          "name": "C3",
          "ticks": 21960,
          "time": 85.78125,
          "velocity": 0.6062992125984252
        },
        {
          "duration": 0.09375,
          "durationTicks": 24,
          "midi": 48,
          "name": "C3",
          "ticks": 21984,
          "time": 85.875,
          "velocity": 0.6062992125984252
        },
        {
          "duration": 0.296875,
          "durationTicks": 76,
          "midi": 48,
          "name": "C3",
          "ticks": 22032,
          "time": 86.0625,
          "velocity": 0.6062992125984252
        },
        {
          "duration": 0.09375,
          "durationTicks": 24,
          "midi": 50,
          "name": "D3",
          "ticks": 22104,
          "time": 86.34375,
          "velocity": 0.6062992125984252
        },
        {
          "duration": 0.09375,
          "durationTicks": 24,
          "midi": 51,
          "name": "D#3",
          "ticks": 22128,
          "time": 86.4375,
          "velocity": 0.6062992125984252
        },
        {
          "duration": 0.296875,
          "durationTicks": 76,
          "midi": 48,
          "name": "C3",
          "ticks": 22176,
          "time": 86.625,
          "velocity": 0.6062992125984252
        },
        {
          "duration": 0.09375,
          "durationTicks": 24,
          "midi": 50,
          "name": "D3",
          "ticks": 22248,
          "time": 86.90625,
          "velocity": 0.6062992125984252
        },
        {
          "duration": 0.09375,
          "durationTicks": 24,
          "midi": 51,
          "name": "D#3",
          "ticks": 22272,
          "time": 87,
          "velocity": 0.6062992125984252
        },
        {
          "duration": 0.296875,
          "durationTicks": 76,
          "midi": 48,
          "name": "C3",
          "ticks": 22320,
          "time": 87.1875,
          "velocity": 0.6062992125984252
        },
        {
          "duration": 0.09375,
          "durationTicks": 24,
          "midi": 50,
          "name": "D3",
          "ticks": 22392,
          "time": 87.46875,
          "velocity": 0.6062992125984252
        },
        {
          "duration": 0.09375,
          "durationTicks": 24,
          "midi": 51,
          "name": "D#3",
          "ticks": 22416,
          "time": 87.5625,
          "velocity": 0.6062992125984252
        },
        {
          "duration": 0.1875,
          "durationTicks": 48,
          "midi": 44,
          "name": "G#2",
          "ticks": 22464,
          "time": 87.75,
          "velocity": 0.6062992125984252
        },
        {
          "duration": 0.1875,
          "durationTicks": 48,
          "midi": 47,
          "name": "B2",
          "ticks": 22512,
          "time": 87.9375,
          "velocity": 0.6062992125984252
        },
        {
          "duration": 0.15625,
          "durationTicks": 40,
          "midi": 48,
          "name": "C3",
          "ticks": 22560,
          "time": 88.125,
          "velocity": 0.6062992125984252
        },
        {
          "duration": 0.0625,
          "durationTicks": 16,
          "midi": 48,
          "name": "C3",
          "ticks": 22632,
          "time": 88.40625,
          "velocity": 0.6062992125984252
        },
        {
          "duration": 0.09375,
          "durationTicks": 24,
          "midi": 48,
          "name": "C3",
          "ticks": 22656,
          "time": 88.5,
          "velocity": 0.6062992125984252
        },
        {
          "duration": 0.296875,
          "durationTicks": 76,
          "midi": 48,
          "name": "C3",
          "ticks": 22704,
          "time": 88.6875,
          "velocity": 0.6062992125984252
        },
        {
          "duration": 0.09375,
          "durationTicks": 24,
          "midi": 50,
          "name": "D3",
          "ticks": 22776,
          "time": 88.96875,
          "velocity": 0.6062992125984252
        },
        {
          "duration": 0.09375,
          "durationTicks": 24,
          "midi": 51,
          "name": "D#3",
          "ticks": 22800,
          "time": 89.0625,
          "velocity": 0.6062992125984252
        },
        {
          "duration": 0.296875,
          "durationTicks": 76,
          "midi": 48,
          "name": "C3",
          "ticks": 22848,
          "time": 89.25,
          "velocity": 0.6062992125984252
        },
        {
          "duration": 0.09375,
          "durationTicks": 24,
          "midi": 50,
          "name": "D3",
          "ticks": 22920,
          "time": 89.53125,
          "velocity": 0.6062992125984252
        },
        {
          "duration": 0.09375,
          "durationTicks": 24,
          "midi": 51,
          "name": "D#3",
          "ticks": 22944,
          "time": 89.625,
          "velocity": 0.6062992125984252
        },
        {
          "duration": 0.296875,
          "durationTicks": 76,
          "midi": 48,
          "name": "C3",
          "ticks": 22992,
          "time": 89.8125,
          "velocity": 0.6062992125984252
        },
        {
          "duration": 0.09375,
          "durationTicks": 24,
          "midi": 50,
          "name": "D3",
          "ticks": 23064,
          "time": 90.09375,
          "velocity": 0.6062992125984252
        },
        {
          "duration": 0.09375,
          "durationTicks": 24,
          "midi": 51,
          "name": "D#3",
          "ticks": 23088,
          "time": 90.1875,
          "velocity": 0.6062992125984252
        },
        {
          "duration": 0.1875,
          "durationTicks": 48,
          "midi": 56,
          "name": "G#3",
          "ticks": 23136,
          "time": 90.375,
          "velocity": 0.6062992125984252
        },
        {
          "duration": 0.1875,
          "durationTicks": 48,
          "midi": 55,
          "name": "G3",
          "ticks": 23184,
          "time": 90.5625,
          "velocity": 0.6062992125984252
        },
        {
          "duration": 0.15625,
          "durationTicks": 40,
          "midi": 48,
          "name": "C3",
          "ticks": 23232,
          "time": 90.75,
          "velocity": 0.6062992125984252
        },
        {
          "duration": 0.0625,
          "durationTicks": 16,
          "midi": 48,
          "name": "C3",
          "ticks": 23304,
          "time": 91.03125,
          "velocity": 0.6062992125984252
        },
        {
          "duration": 0.09375,
          "durationTicks": 24,
          "midi": 48,
          "name": "C3",
          "ticks": 23328,
          "time": 91.125,
          "velocity": 0.6062992125984252
        },
        {
          "duration": 0.296875,
          "durationTicks": 76,
          "midi": 48,
          "name": "C3",
          "ticks": 23376,
          "time": 91.3125,
          "velocity": 0.6062992125984252
        },
        {
          "duration": 0.09375,
          "durationTicks": 24,
          "midi": 50,
          "name": "D3",
          "ticks": 23448,
          "time": 91.59375,
          "velocity": 0.6062992125984252
        },
        {
          "duration": 0.09375,
          "durationTicks": 24,
          "midi": 51,
          "name": "D#3",
          "ticks": 23472,
          "time": 91.6875,
          "velocity": 0.6062992125984252
        },
        {
          "duration": 0.296875,
          "durationTicks": 76,
          "midi": 48,
          "name": "C3",
          "ticks": 23520,
          "time": 91.875,
          "velocity": 0.6062992125984252
        },
        {
          "duration": 0.09375,
          "durationTicks": 24,
          "midi": 50,
          "name": "D3",
          "ticks": 23592,
          "time": 92.15625,
          "velocity": 0.6062992125984252
        },
        {
          "duration": 0.09375,
          "durationTicks": 24,
          "midi": 51,
          "name": "D#3",
          "ticks": 23616,
          "time": 92.25,
          "velocity": 0.6062992125984252
        },
        {
          "duration": 0.296875,
          "durationTicks": 76,
          "midi": 48,
          "name": "C3",
          "ticks": 23664,
          "time": 92.4375,
          "velocity": 0.6062992125984252
        },
        {
          "duration": 0.09375,
          "durationTicks": 24,
          "midi": 50,
          "name": "D3",
          "ticks": 23736,
          "time": 92.71875,
          "velocity": 0.6062992125984252
        },
        {
          "duration": 0.09375,
          "durationTicks": 24,
          "midi": 51,
          "name": "D#3",
          "ticks": 23760,
          "time": 92.8125,
          "velocity": 0.6062992125984252
        },
        {
          "duration": 0.1875,
          "durationTicks": 48,
          "midi": 44,
          "name": "G#2",
          "ticks": 23808,
          "time": 93,
          "velocity": 0.6062992125984252
        },
        {
          "duration": 0.0625,
          "durationTicks": 16,
          "midi": 47,
          "name": "B2",
          "ticks": 23856,
          "time": 93.1875,
          "velocity": 0.6062992125984252
        },
        {
          "duration": 0.03125,
          "durationTicks": 8,
          "midi": 47,
          "name": "B2",
          "ticks": 23888,
          "time": 93.3125,
          "velocity": 0.6062992125984252
        },
        {
          "duration": 0.15625,
          "durationTicks": 40,
          "midi": 48,
          "name": "C3",
          "ticks": 23904,
          "time": 93.375,
          "velocity": 0.5905511811023622
        },
        {
          "duration": 0.0625,
          "durationTicks": 16,
          "midi": 48,
          "name": "C3",
          "ticks": 23976,
          "time": 93.65625,
          "velocity": 0.6377952755905512
        },
        {
          "duration": 0.0625,
          "durationTicks": 16,
          "midi": 48,
          "name": "C3",
          "ticks": 24048,
          "time": 93.9375,
          "velocity": 0.6062992125984252
        },
        {
          "duration": 0.0625,
          "durationTicks": 16,
          "midi": 48,
          "name": "C3",
          "ticks": 24072,
          "time": 94.03125,
          "velocity": 0.6062992125984252
        },
        {
          "duration": 0.15625,
          "durationTicks": 40,
          "midi": 48,
          "name": "C3",
          "ticks": 24096,
          "time": 94.125,
          "velocity": 0.5984251968503937
        },
        {
          "duration": 0.09375,
          "durationTicks": 24,
          "midi": 51,
          "name": "D#3",
          "ticks": 24144,
          "time": 94.3125,
          "velocity": 0.6220472440944882
        },
        {
          "duration": 0.0625,
          "durationTicks": 16,
          "midi": 48,
          "name": "C3",
          "ticks": 24192,
          "time": 94.5,
          "velocity": 0.5905511811023622
        },
        {
          "duration": 0.0625,
          "durationTicks": 16,
          "midi": 48,
          "name": "C3",
          "ticks": 24216,
          "time": 94.59375,
          "velocity": 0.5905511811023622
        },
        {
          "duration": 0.09375,
          "durationTicks": 24,
          "midi": 48,
          "name": "C3",
          "ticks": 24240,
          "time": 94.6875,
          "velocity": 0.6141732283464567
        },
        {
          "duration": 0.09375,
          "durationTicks": 24,
          "midi": 50,
          "name": "D3",
          "ticks": 24264,
          "time": 94.78125,
          "velocity": 0.6377952755905512
        },
        {
          "duration": 0.09375,
          "durationTicks": 24,
          "midi": 51,
          "name": "D#3",
          "ticks": 24288,
          "time": 94.875,
          "velocity": 0.6299212598425197
        },
        {
          "duration": 0.1875,
          "durationTicks": 48,
          "midi": 48,
          "name": "C3",
          "ticks": 24384,
          "time": 95.25,
          "velocity": 0.5748031496062992
        },
        {
          "duration": 0.15625,
          "durationTicks": 40,
          "midi": 51,
          "name": "D#3",
          "ticks": 24432,
          "time": 95.4375,
          "velocity": 0.5984251968503937
        },
        {
          "duration": 0.0625,
          "durationTicks": 16,
          "midi": 55,
          "name": "G3",
          "ticks": 24528,
          "time": 95.8125,
          "velocity": 0.6456692913385826
        },
        {
          "duration": 0.0625,
          "durationTicks": 16,
          "midi": 55,
          "name": "G3",
          "ticks": 24552,
          "time": 95.90625,
          "velocity": 0.5748031496062992
        },
        {
          "duration": 0.15625,
          "durationTicks": 40,
          "midi": 48,
          "name": "C3",
          "ticks": 24576,
          "time": 96,
          "velocity": 0.6062992125984252
        },
        {
          "duration": 0.0625,
          "durationTicks": 16,
          "midi": 48,
          "name": "C3",
          "ticks": 24648,
          "time": 96.28125,
          "velocity": 0.6062992125984252
        },
        {
          "duration": 0.09375,
          "durationTicks": 24,
          "midi": 48,
          "name": "C3",
          "ticks": 24672,
          "time": 96.375,
          "velocity": 0.6062992125984252
        },
        {
          "duration": 0.296875,
          "durationTicks": 76,
          "midi": 48,
          "name": "C3",
          "ticks": 24720,
          "time": 96.5625,
          "velocity": 0.6062992125984252
        },
        {
          "duration": 0.09375,
          "durationTicks": 24,
          "midi": 50,
          "name": "D3",
          "ticks": 24792,
          "time": 96.84375,
          "velocity": 0.6062992125984252
        },
        {
          "duration": 0.09375,
          "durationTicks": 24,
          "midi": 51,
          "name": "D#3",
          "ticks": 24816,
          "time": 96.9375,
          "velocity": 0.6062992125984252
        },
        {
          "duration": 0.296875,
          "durationTicks": 76,
          "midi": 48,
          "name": "C3",
          "ticks": 24864,
          "time": 97.125,
          "velocity": 0.6062992125984252
        },
        {
          "duration": 0.09375,
          "durationTicks": 24,
          "midi": 50,
          "name": "D3",
          "ticks": 24936,
          "time": 97.40625,
          "velocity": 0.6062992125984252
        },
        {
          "duration": 0.09375,
          "durationTicks": 24,
          "midi": 51,
          "name": "D#3",
          "ticks": 24960,
          "time": 97.5,
          "velocity": 0.6062992125984252
        },
        {
          "duration": 0.296875,
          "durationTicks": 76,
          "midi": 48,
          "name": "C3",
          "ticks": 25008,
          "time": 97.6875,
          "velocity": 0.6062992125984252
        },
        {
          "duration": 0.09375,
          "durationTicks": 24,
          "midi": 50,
          "name": "D3",
          "ticks": 25080,
          "time": 97.96875,
          "velocity": 0.6062992125984252
        },
        {
          "duration": 0.09375,
          "durationTicks": 24,
          "midi": 51,
          "name": "D#3",
          "ticks": 25104,
          "time": 98.0625,
          "velocity": 0.6062992125984252
        },
        {
          "duration": 0.1875,
          "durationTicks": 48,
          "midi": 44,
          "name": "G#2",
          "ticks": 25152,
          "time": 98.25,
          "velocity": 0.6062992125984252
        },
        {
          "duration": 0.1875,
          "durationTicks": 48,
          "midi": 47,
          "name": "B2",
          "ticks": 25200,
          "time": 98.4375,
          "velocity": 0.6062992125984252
        },
        {
          "duration": 0.15625,
          "durationTicks": 40,
          "midi": 48,
          "name": "C3",
          "ticks": 25248,
          "time": 98.625,
          "velocity": 0.6062992125984252
        },
        {
          "duration": 0.0625,
          "durationTicks": 16,
          "midi": 48,
          "name": "C3",
          "ticks": 25320,
          "time": 98.90625,
          "velocity": 0.6062992125984252
        },
        {
          "duration": 0.09375,
          "durationTicks": 24,
          "midi": 48,
          "name": "C3",
          "ticks": 25344,
          "time": 99,
          "velocity": 0.6062992125984252
        },
        {
          "duration": 0.296875,
          "durationTicks": 76,
          "midi": 48,
          "name": "C3",
          "ticks": 25392,
          "time": 99.1875,
          "velocity": 0.6062992125984252
        },
        {
          "duration": 0.09375,
          "durationTicks": 24,
          "midi": 50,
          "name": "D3",
          "ticks": 25464,
          "time": 99.46875,
          "velocity": 0.6062992125984252
        },
        {
          "duration": 0.09375,
          "durationTicks": 24,
          "midi": 51,
          "name": "D#3",
          "ticks": 25488,
          "time": 99.5625,
          "velocity": 0.6062992125984252
        },
        {
          "duration": 0.296875,
          "durationTicks": 76,
          "midi": 48,
          "name": "C3",
          "ticks": 25536,
          "time": 99.75,
          "velocity": 0.6062992125984252
        },
        {
          "duration": 0.09375,
          "durationTicks": 24,
          "midi": 50,
          "name": "D3",
          "ticks": 25608,
          "time": 100.03125,
          "velocity": 0.6062992125984252
        },
        {
          "duration": 0.09375,
          "durationTicks": 24,
          "midi": 51,
          "name": "D#3",
          "ticks": 25632,
          "time": 100.125,
          "velocity": 0.6062992125984252
        },
        {
          "duration": 0.296875,
          "durationTicks": 76,
          "midi": 48,
          "name": "C3",
          "ticks": 25680,
          "time": 100.3125,
          "velocity": 0.6062992125984252
        },
        {
          "duration": 0.09375,
          "durationTicks": 24,
          "midi": 50,
          "name": "D3",
          "ticks": 25752,
          "time": 100.59375,
          "velocity": 0.6062992125984252
        },
        {
          "duration": 0.09375,
          "durationTicks": 24,
          "midi": 51,
          "name": "D#3",
          "ticks": 25776,
          "time": 100.6875,
          "velocity": 0.6062992125984252
        },
        {
          "duration": 0.1875,
          "durationTicks": 48,
          "midi": 56,
          "name": "G#3",
          "ticks": 25824,
          "time": 100.875,
          "velocity": 0.6062992125984252
        },
        {
          "duration": 0.1875,
          "durationTicks": 48,
          "midi": 55,
          "name": "G3",
          "ticks": 25872,
          "time": 101.0625,
          "velocity": 0.6062992125984252
        },
        {
          "duration": 0.15625,
          "durationTicks": 40,
          "midi": 48,
          "name": "C3",
          "ticks": 25920,
          "time": 101.25,
          "velocity": 0.6062992125984252
        },
        {
          "duration": 0.0625,
          "durationTicks": 16,
          "midi": 48,
          "name": "C3",
          "ticks": 25992,
          "time": 101.53125,
          "velocity": 0.6062992125984252
        },
        {
          "duration": 0.09375,
          "durationTicks": 24,
          "midi": 48,
          "name": "C3",
          "ticks": 26016,
          "time": 101.625,
          "velocity": 0.6062992125984252
        },
        {
          "duration": 0.296875,
          "durationTicks": 76,
          "midi": 48,
          "name": "C3",
          "ticks": 26064,
          "time": 101.8125,
          "velocity": 0.6062992125984252
        },
        {
          "duration": 0.09375,
          "durationTicks": 24,
          "midi": 50,
          "name": "D3",
          "ticks": 26136,
          "time": 102.09375,
          "velocity": 0.6062992125984252
        },
        {
          "duration": 0.09375,
          "durationTicks": 24,
          "midi": 51,
          "name": "D#3",
          "ticks": 26160,
          "time": 102.1875,
          "velocity": 0.6062992125984252
        },
        {
          "duration": 0.296875,
          "durationTicks": 76,
          "midi": 48,
          "name": "C3",
          "ticks": 26208,
          "time": 102.375,
          "velocity": 0.6062992125984252
        },
        {
          "duration": 0.09375,
          "durationTicks": 24,
          "midi": 50,
          "name": "D3",
          "ticks": 26280,
          "time": 102.65625,
          "velocity": 0.6062992125984252
        },
        {
          "duration": 0.09375,
          "durationTicks": 24,
          "midi": 51,
          "name": "D#3",
          "ticks": 26304,
          "time": 102.75,
          "velocity": 0.6062992125984252
        },
        {
          "duration": 0.296875,
          "durationTicks": 76,
          "midi": 48,
          "name": "C3",
          "ticks": 26352,
          "time": 102.9375,
          "velocity": 0.6062992125984252
        },
        {
          "duration": 0.09375,
          "durationTicks": 24,
          "midi": 50,
          "name": "D3",
          "ticks": 26424,
          "time": 103.21875,
          "velocity": 0.6062992125984252
        },
        {
          "duration": 0.09375,
          "durationTicks": 24,
          "midi": 51,
          "name": "D#3",
          "ticks": 26448,
          "time": 103.3125,
          "velocity": 0.6062992125984252
        },
        {
          "duration": 0.1875,
          "durationTicks": 48,
          "midi": 44,
          "name": "G#2",
          "ticks": 26496,
          "time": 103.5,
          "velocity": 0.6062992125984252
        },
        {
          "duration": 0.1875,
          "durationTicks": 48,
          "midi": 47,
          "name": "B2",
          "ticks": 26544,
          "time": 103.6875,
          "velocity": 0.6062992125984252
        },
        {
          "duration": 0.15625,
          "durationTicks": 40,
          "midi": 48,
          "name": "C3",
          "ticks": 26592,
          "time": 103.875,
          "velocity": 0.6062992125984252
        },
        {
          "duration": 0.0625,
          "durationTicks": 16,
          "midi": 48,
          "name": "C3",
          "ticks": 26664,
          "time": 104.15625,
          "velocity": 0.6062992125984252
        },
        {
          "duration": 0.09375,
          "durationTicks": 24,
          "midi": 48,
          "name": "C3",
          "ticks": 26688,
          "time": 104.25,
          "velocity": 0.6062992125984252
        },
        {
          "duration": 0.296875,
          "durationTicks": 76,
          "midi": 48,
          "name": "C3",
          "ticks": 26736,
          "time": 104.4375,
          "velocity": 0.6062992125984252
        },
        {
          "duration": 0.09375,
          "durationTicks": 24,
          "midi": 50,
          "name": "D3",
          "ticks": 26808,
          "time": 104.71875,
          "velocity": 0.6062992125984252
        },
        {
          "duration": 0.09375,
          "durationTicks": 24,
          "midi": 51,
          "name": "D#3",
          "ticks": 26832,
          "time": 104.8125,
          "velocity": 0.6062992125984252
        },
        {
          "duration": 0.296875,
          "durationTicks": 76,
          "midi": 48,
          "name": "C3",
          "ticks": 26880,
          "time": 105,
          "velocity": 0.6062992125984252
        },
        {
          "duration": 0.09375,
          "durationTicks": 24,
          "midi": 50,
          "name": "D3",
          "ticks": 26952,
          "time": 105.28125,
          "velocity": 0.6062992125984252
        },
        {
          "duration": 0.09375,
          "durationTicks": 24,
          "midi": 51,
          "name": "D#3",
          "ticks": 26976,
          "time": 105.375,
          "velocity": 0.5511811023622047
        },
        {
          "duration": 0.296875,
          "durationTicks": 76,
          "midi": 48,
          "name": "C3",
          "ticks": 27024,
          "time": 105.5625,
          "velocity": 0.6062992125984252
        },
        {
          "duration": 0.09375,
          "durationTicks": 24,
          "midi": 50,
          "name": "D3",
          "ticks": 27096,
          "time": 105.84375,
          "velocity": 0.25196850393700787
        },
        {
          "duration": 0.09375,
          "durationTicks": 24,
          "midi": 51,
          "name": "D#3",
          "ticks": 27120,
          "time": 105.9375,
          "velocity": 0.1889763779527559
        },
        {
          "duration": 0.1875,
          "durationTicks": 48,
          "midi": 56,
          "name": "G#3",
          "ticks": 27168,
          "time": 106.125,
          "velocity": 0.06299212598425197
        },
        {
          "duration": 0.15625,
          "durationTicks": 40,
          "midi": 48,
          "name": "C3",
          "ticks": 27264,
          "time": 106.5,
          "velocity": 0.5984251968503937
        },
        {
          "duration": 0.0625,
          "durationTicks": 16,
          "midi": 48,
          "name": "C3",
          "ticks": 27336,
          "time": 106.78125,
          "velocity": 0.5984251968503937
        },
        {
          "duration": 0.09375,
          "durationTicks": 24,
          "midi": 48,
          "name": "C3",
          "ticks": 27360,
          "time": 106.875,
          "velocity": 0.5984251968503937
        },
        {
          "duration": 0.296875,
          "durationTicks": 76,
          "midi": 48,
          "name": "C3",
          "ticks": 27408,
          "time": 107.0625,
          "velocity": 0.5984251968503937
        },
        {
          "duration": 0.09375,
          "durationTicks": 24,
          "midi": 50,
          "name": "D3",
          "ticks": 27480,
          "time": 107.34375,
          "velocity": 0.5984251968503937
        },
        {
          "duration": 0.09375,
          "durationTicks": 24,
          "midi": 51,
          "name": "D#3",
          "ticks": 27504,
          "time": 107.4375,
          "velocity": 0.5984251968503937
        },
        {
          "duration": 0.296875,
          "durationTicks": 76,
          "midi": 48,
          "name": "C3",
          "ticks": 27552,
          "time": 107.625,
          "velocity": 0.5984251968503937
        },
        {
          "duration": 0.09375,
          "durationTicks": 24,
          "midi": 50,
          "name": "D3",
          "ticks": 27624,
          "time": 107.90625,
          "velocity": 0.5984251968503937
        },
        {
          "duration": 0.09375,
          "durationTicks": 24,
          "midi": 51,
          "name": "D#3",
          "ticks": 27648,
          "time": 108,
          "velocity": 0.5984251968503937
        },
        {
          "duration": 0.296875,
          "durationTicks": 76,
          "midi": 48,
          "name": "C3",
          "ticks": 27696,
          "time": 108.1875,
          "velocity": 0.5984251968503937
        },
        {
          "duration": 0.09375,
          "durationTicks": 24,
          "midi": 50,
          "name": "D3",
          "ticks": 27768,
          "time": 108.46875,
          "velocity": 0.5984251968503937
        },
        {
          "duration": 0.09375,
          "durationTicks": 24,
          "midi": 51,
          "name": "D#3",
          "ticks": 27792,
          "time": 108.5625,
          "velocity": 0.5984251968503937
        },
        {
          "duration": 0.296875,
          "durationTicks": 76,
          "midi": 48,
          "name": "C3",
          "ticks": 27840,
          "time": 108.75,
          "velocity": 0.5984251968503937
        },
        {
          "duration": 0.09375,
          "durationTicks": 24,
          "midi": 50,
          "name": "D3",
          "ticks": 27912,
          "time": 109.03125,
          "velocity": 0.5984251968503937
        },
        {
          "duration": 0.09375,
          "durationTicks": 24,
          "midi": 51,
          "name": "D#3",
          "ticks": 27936,
          "time": 109.125,
          "velocity": 0.5984251968503937
        },
        {
          "duration": 0.296875,
          "durationTicks": 76,
          "midi": 48,
          "name": "C3",
          "ticks": 27984,
          "time": 109.3125,
          "velocity": 0.5984251968503937
        },
        {
          "duration": 0.09375,
          "durationTicks": 24,
          "midi": 50,
          "name": "D3",
          "ticks": 28056,
          "time": 109.59375,
          "velocity": 0.5984251968503937
        },
        {
          "duration": 0.09375,
          "durationTicks": 24,
          "midi": 51,
          "name": "D#3",
          "ticks": 28080,
          "time": 109.6875,
          "velocity": 0.5984251968503937
        },
        {
          "duration": 0.296875,
          "durationTicks": 76,
          "midi": 48,
          "name": "C3",
          "ticks": 28128,
          "time": 109.875,
          "velocity": 0.5984251968503937
        },
        {
          "duration": 0.09375,
          "durationTicks": 24,
          "midi": 50,
          "name": "D3",
          "ticks": 28200,
          "time": 110.15625,
          "velocity": 0.5984251968503937
        },
        {
          "duration": 0.09375,
          "durationTicks": 24,
          "midi": 51,
          "name": "D#3",
          "ticks": 28224,
          "time": 110.25,
          "velocity": 0.5984251968503937
        },
        {
          "duration": 0.296875,
          "durationTicks": 76,
          "midi": 48,
          "name": "C3",
          "ticks": 28272,
          "time": 110.4375,
          "velocity": 0.5984251968503937
        },
        {
          "duration": 0.09375,
          "durationTicks": 24,
          "midi": 50,
          "name": "D3",
          "ticks": 28344,
          "time": 110.71875,
          "velocity": 0.5984251968503937
        },
        {
          "duration": 0.09375,
          "durationTicks": 24,
          "midi": 51,
          "name": "D#3",
          "ticks": 28368,
          "time": 110.8125,
          "velocity": 0.5984251968503937
        },
        {
          "duration": 0.296875,
          "durationTicks": 76,
          "midi": 48,
          "name": "C3",
          "ticks": 28416,
          "time": 111,
          "velocity": 0.5984251968503937
        },
        {
          "duration": 0.09375,
          "durationTicks": 24,
          "midi": 50,
          "name": "D3",
          "ticks": 28488,
          "time": 111.28125,
          "velocity": 0.5984251968503937
        },
        {
          "duration": 0.09375,
          "durationTicks": 24,
          "midi": 51,
          "name": "D#3",
          "ticks": 28512,
          "time": 111.375,
          "velocity": 0.5984251968503937
        },
        {
          "duration": 0.296875,
          "durationTicks": 76,
          "midi": 48,
          "name": "C3",
          "ticks": 28536,
          "time": 111.46875,
          "velocity": 0.5984251968503937
        },
        {
          "duration": 0.09375,
          "durationTicks": 24,
          "midi": 50,
          "name": "D3",
          "ticks": 28608,
          "time": 111.75,
          "velocity": 0.5984251968503937
        },
        {
          "duration": 0.09375,
          "durationTicks": 24,
          "midi": 51,
          "name": "D#3",
          "ticks": 28632,
          "time": 111.84375,
          "velocity": 0.5984251968503937
        },
        {
          "duration": 0.296875,
          "durationTicks": 76,
          "midi": 48,
          "name": "C3",
          "ticks": 28656,
          "time": 111.9375,
          "velocity": 0.5984251968503937
        },
        {
          "duration": 0.09375,
          "durationTicks": 24,
          "midi": 50,
          "name": "D3",
          "ticks": 28728,
          "time": 112.21875,
          "velocity": 0.5984251968503937
        },
        {
          "duration": 0.09375,
          "durationTicks": 24,
          "midi": 51,
          "name": "D#3",
          "ticks": 28752,
          "time": 112.3125,
          "velocity": 0.5984251968503937
        },
        {
          "duration": 0.1875,
          "durationTicks": 48,
          "midi": 48,
          "name": "C3",
          "ticks": 28776,
          "time": 112.40625,
          "velocity": 0.5984251968503937
        },
        {
          "duration": 0.09375,
          "durationTicks": 24,
          "midi": 50,
          "name": "D3",
          "ticks": 28824,
          "time": 112.59375,
          "velocity": 0.5984251968503937
        },
        {
          "duration": 0.09375,
          "durationTicks": 24,
          "midi": 51,
          "name": "D#3",
          "ticks": 28848,
          "time": 112.6875,
          "velocity": 0.5984251968503937
        },
        {
          "duration": 0.1875,
          "durationTicks": 48,
          "midi": 48,
          "name": "C3",
          "ticks": 28872,
          "time": 112.78125,
          "velocity": 0.5984251968503937
        },
        {
          "duration": 0.09375,
          "durationTicks": 24,
          "midi": 50,
          "name": "D3",
          "ticks": 28920,
          "time": 112.96875,
          "velocity": 0.5984251968503937
        },
        {
          "duration": 0.09375,
          "durationTicks": 24,
          "midi": 51,
          "name": "D#3",
          "ticks": 28944,
          "time": 113.0625,
          "velocity": 0.5984251968503937
        },
        {
          "duration": 0.1875,
          "durationTicks": 48,
          "midi": 48,
          "name": "C3",
          "ticks": 28968,
          "time": 113.15625,
          "velocity": 0.5984251968503937
        },
        {
          "duration": 0.09375,
          "durationTicks": 24,
          "midi": 50,
          "name": "D3",
          "ticks": 29016,
          "time": 113.34375,
          "velocity": 0.5984251968503937
        },
        {
          "duration": 0.09375,
          "durationTicks": 24,
          "midi": 51,
          "name": "D#3",
          "ticks": 29040,
          "time": 113.4375,
          "velocity": 0.5984251968503937
        },
        {
          "duration": 0.09375,
          "durationTicks": 24,
          "midi": 48,
          "name": "C3",
          "ticks": 29064,
          "time": 113.53125,
          "velocity": 0.5984251968503937
        },
        {
          "duration": 0.09375,
          "durationTicks": 24,
          "midi": 50,
          "name": "D3",
          "ticks": 29088,
          "time": 113.625,
          "velocity": 0.5984251968503937
        },
        {
          "duration": 0.09375,
          "durationTicks": 24,
          "midi": 51,
          "name": "D#3",
          "ticks": 29112,
          "time": 113.71875,
          "velocity": 0.5984251968503937
        },
        {
          "duration": 0.09375,
          "durationTicks": 24,
          "midi": 48,
          "name": "C3",
          "ticks": 29136,
          "time": 113.8125,
          "velocity": 0.5984251968503937
        },
        {
          "duration": 0.09375,
          "durationTicks": 24,
          "midi": 50,
          "name": "D3",
          "ticks": 29160,
          "time": 113.90625,
          "velocity": 0.5984251968503937
        },
        {
          "duration": 0.09375,
          "durationTicks": 24,
          "midi": 51,
          "name": "D#3",
          "ticks": 29184,
          "time": 114,
          "velocity": 0.5984251968503937
        },
        {
          "duration": 0.046875,
          "durationTicks": 12,
          "midi": 48,
          "name": "C3",
          "ticks": 29208,
          "time": 114.09375,
          "velocity": 0.5984251968503937
        },
        {
          "duration": 0.046875,
          "durationTicks": 12,
          "midi": 50,
          "name": "D3",
          "ticks": 29220,
          "time": 114.140625,
          "velocity": 0.5984251968503937
        },
        {
          "duration": 0.046875,
          "durationTicks": 12,
          "midi": 51,
          "name": "D#3",
          "ticks": 29232,
          "time": 114.1875,
          "velocity": 0.5984251968503937
        },
        {
          "duration": 0.046875,
          "durationTicks": 12,
          "midi": 48,
          "name": "C3",
          "ticks": 29244,
          "time": 114.234375,
          "velocity": 0.5984251968503937
        },
        {
          "duration": 0.046875,
          "durationTicks": 12,
          "midi": 50,
          "name": "D3",
          "ticks": 29256,
          "time": 114.28125,
          "velocity": 0.5984251968503937
        },
        {
          "duration": 0.046875,
          "durationTicks": 12,
          "midi": 51,
          "name": "D#3",
          "ticks": 29268,
          "time": 114.328125,
          "velocity": 0.5984251968503937
        },
        {
          "duration": 0.1875,
          "durationTicks": 48,
          "midi": 50,
          "name": "D3",
          "ticks": 29616,
          "time": 115.6875,
          "velocity": 0.5826771653543307
        },
        {
          "duration": 0.1875,
          "durationTicks": 48,
          "midi": 51,
          "name": "D#3",
          "ticks": 29664,
          "time": 115.875,
          "velocity": 0.5826771653543307
        },
        {
          "duration": 0.1875,
          "durationTicks": 48,
          "midi": 50,
          "name": "D3",
          "ticks": 29736,
          "time": 116.15625,
          "velocity": 0.5826771653543307
        },
        {
          "duration": 0.1875,
          "durationTicks": 48,
          "midi": 49,
          "name": "C#3",
          "ticks": 29808,
          "time": 116.4375,
          "velocity": 0.5826771653543307
        },
        {
          "duration": 0.1875,
          "durationTicks": 48,
          "midi": 48,
          "name": "C3",
          "ticks": 29880,
          "time": 116.71875,
          "velocity": 0.5826771653543307
        },
        {
          "duration": 0.1875,
          "durationTicks": 48,
          "midi": 47,
          "name": "B2",
          "ticks": 29952,
          "time": 117,
          "velocity": 0.5826771653543307
        },
        {
          "duration": 0.1875,
          "durationTicks": 48,
          "midi": 43,
          "name": "G2",
          "ticks": 30000,
          "time": 117.1875,
          "velocity": 0.5826771653543307
        }
      ],
      "endOfTrackTicks": 37730
    },
    {
      "channel": 5,
      "controlChanges": {
        "6": [
          {
            "number": 6,
            "ticks": 0,
            "time": 0,
            "value": 0.09448818897637795
          },
          {
            "number": 6,
            "ticks": 0,
            "time": 0,
            "value": 0.09448818897637795
          },
          {
            "number": 6,
            "ticks": 0,
            "time": 0,
            "value": 0.09448818897637795
          },
          {
            "number": 6,
            "ticks": 37728,
            "time": 147.375,
            "value": 0.09448818897637795
          },
          {
            "number": 6,
            "ticks": 37730,
            "time": 147.3828125,
            "value": 0.09448818897637795
          }
        ],
        "7": [
          {
            "number": 7,
            "ticks": 0,
            "time": 0,
            "value": 0.7874015748031497
          },
          {
            "number": 7,
            "ticks": 0,
            "time": 0,
            "value": 0.7874015748031497
          },
          {
            "number": 7,
            "ticks": 0,
            "time": 0,
            "value": 0.7874015748031497
          },
          {
            "number": 7,
            "ticks": 0,
            "time": 0,
            "value": 0.7874015748031497
          },
          {
            "number": 7,
            "ticks": 37728,
            "time": 147.375,
            "value": 0.7874015748031497
          },
          {
            "number": 7,
            "ticks": 37730,
            "time": 147.3828125,
            "value": 0.7874015748031497
          }
        ],
        "10": [
          {
            "number": 10,
            "ticks": 0,
            "time": 0,
            "value": 0.5039370078740157
          },
          {
            "number": 10,
            "ticks": 0,
            "time": 0,
            "value": 0.5039370078740157
          },
          {
            "number": 10,
            "ticks": 0,
            "time": 0,
            "value": 0.5039370078740157
          },
          {
            "number": 10,
            "ticks": 0,
            "time": 0,
            "value": 0.5039370078740157
          },
          {
            "number": 10,
            "ticks": 37728,
            "time": 147.375,
            "value": 0.5039370078740157
          },
          {
            "number": 10,
            "ticks": 37730,
            "time": 147.3828125,
            "value": 0.5039370078740157
          }
        ],
        "100": [
          {
            "number": 100,
            "ticks": 0,
            "time": 0,
            "value": 0
          },
          {
            "number": 100,
            "ticks": 0,
            "time": 0,
            "value": 0
          },
          {
            "number": 100,
            "ticks": 0,
            "time": 0,
            "value": 0
          },
          {
            "number": 100,
            "ticks": 37728,
            "time": 147.375,
            "value": 0
          },
          {
            "number": 100,
            "ticks": 37730,
            "time": 147.3828125,
            "value": 0
          }
        ],
        "101": [
          {
            "number": 101,
            "ticks": 0,
            "time": 0,
            "value": 0
          },
          {
            "number": 101,
            "ticks": 0,
            "time": 0,
            "value": 0
          },
          {
            "number": 101,
            "ticks": 0,
            "time": 0,
            "value": 0
          },
          {
            "number": 101,
            "ticks": 37728,
            "time": 147.375,
            "value": 0
          },
          {
            "number": 101,
            "ticks": 37730,
            "time": 147.3828125,
            "value": 0
          }
        ]
      },
      "pitchBends": [
        {
          "ticks": 0,
          "time": 0,
          "value": 0
        },
        {
          "ticks": 0,
          "time": 0,
          "value": 0
        },
        {
          "ticks": 0,
          "time": 0,
          "value": 0
        },
        {
          "ticks": 0,
          "time": 0,
          "value": 0
        },
        {
          "ticks": 37728,
          "time": 147.375,
          "value": 0
        },
        {
          "ticks": 37730,
          "time": 147.3828125,
          "value": 0
        }
      ],
      "instrument": {
        "family": "piano",
        "number": 0,
        "name": "acoustic grand piano"
      },
      "name": "Vocal",
      "notes": [
        {
          "duration": 0.375,
          "durationTicks": 96,
          "midi": 55,
          "name": "G3",
          "ticks": 3264,
          "time": 12.75,
          "velocity": 0.8188976377952756
        },
        {
          "duration": 0.375,
          "durationTicks": 96,
          "midi": 59,
          "name": "B3",
          "ticks": 3360,
          "time": 13.125,
          "velocity": 0.8188976377952756
        },
        {
          "duration": 0.375,
          "durationTicks": 96,
          "midi": 60,
          "name": "C4",
          "ticks": 3456,
          "time": 13.5,
          "velocity": 0.8188976377952756
        },
        {
          "duration": 0.375,
          "durationTicks": 96,
          "midi": 60,
          "name": "C4",
          "ticks": 3552,
          "time": 13.875,
          "velocity": 0.8188976377952756
        },
        {
          "duration": 0.375,
          "durationTicks": 96,
          "midi": 62,
          "name": "D4",
          "ticks": 3648,
          "time": 14.25,
          "velocity": 0.8188976377952756
        },
        {
          "duration": 0.28125,
          "durationTicks": 72,
          "midi": 59,
          "name": "B3",
          "ticks": 3744,
          "time": 14.625,
          "velocity": 0.8188976377952756
        },
        {
          "duration": 0.09375,
          "durationTicks": 24,
          "midi": 62,
          "name": "D4",
          "ticks": 3816,
          "time": 14.90625,
          "velocity": 0.8188976377952756
        },
        {
          "duration": 0.328125,
          "durationTicks": 84,
          "midi": 63,
          "name": "D#4",
          "ticks": 3840,
          "time": 15,
          "velocity": 0.8188976377952756
        },
        {
          "duration": 0.28125,
          "durationTicks": 72,
          "midi": 60,
          "name": "C4",
          "ticks": 3936,
          "time": 15.375,
          "velocity": 0.8188976377952756
        },
        {
          "duration": 0.140625,
          "durationTicks": 36,
          "midi": 60,
          "name": "C4",
          "ticks": 4080,
          "time": 15.9375,
          "velocity": 0.8188976377952756
        },
        {
          "duration": 0.140625,
          "durationTicks": 36,
          "midi": 65,
          "name": "F4",
          "ticks": 4128,
          "time": 16.125,
          "velocity": 0.8188976377952756
        },
        {
          "duration": 0.140625,
          "durationTicks": 36,
          "midi": 67,
          "name": "G4",
          "ticks": 4176,
          "time": 16.3125,
          "velocity": 0.8188976377952756
        },
        {
          "duration": 0.28125,
          "durationTicks": 72,
          "midi": 68,
          "name": "G#4",
          "ticks": 4224,
          "time": 16.5,
          "velocity": 0.8188976377952756
        },
        {
          "duration": 0.28125,
          "durationTicks": 72,
          "midi": 68,
          "name": "G#4",
          "ticks": 4320,
          "time": 16.875,
          "velocity": 0.8188976377952756
        },
        {
          "duration": 0.1875,
          "durationTicks": 48,
          "midi": 68,
          "name": "G#4",
          "ticks": 4416,
          "time": 17.25,
          "velocity": 0.8188976377952756
        },
        {
          "duration": 0.1875,
          "durationTicks": 48,
          "midi": 70,
          "name": "A#4",
          "ticks": 4464,
          "time": 17.4375,
          "velocity": 0.8188976377952756
        },
        {
          "duration": 0.234375,
          "durationTicks": 60,
          "midi": 65,
          "name": "F4",
          "ticks": 4512,
          "time": 17.625,
          "velocity": 0.8188976377952756
        },
        {
          "duration": 0.046875,
          "durationTicks": 12,
          "midi": 68,
          "name": "G#4",
          "ticks": 4584,
          "time": 17.90625,
          "velocity": 0.8188976377952756
        },
        {
          "duration": 0.1875,
          "durationTicks": 48,
          "midi": 68,
          "name": "G#4",
          "ticks": 4608,
          "time": 18,
          "velocity": 0.8188976377952756
        },
        {
          "duration": 0.046875,
          "durationTicks": 12,
          "midi": 67,
          "name": "G4",
          "ticks": 4680,
          "time": 18.28125,
          "velocity": 0.8188976377952756
        },
        {
          "duration": 0.328125,
          "durationTicks": 84,
          "midi": 67,
          "name": "G4",
          "ticks": 4704,
          "time": 18.375,
          "velocity": 0.8188976377952756
        },
        {
          "duration": 0.375,
          "durationTicks": 96,
          "midi": 67,
          "name": "G4",
          "ticks": 4896,
          "time": 19.125,
          "velocity": 0.8188976377952756
        },
        {
          "duration": 0.375,
          "durationTicks": 96,
          "midi": 68,
          "name": "G#4",
          "ticks": 4992,
          "time": 19.5,
          "velocity": 0.8188976377952756
        },
        {
          "duration": 0.375,
          "durationTicks": 96,
          "midi": 68,
          "name": "G#4",
          "ticks": 5088,
          "time": 19.875,
          "velocity": 0.8188976377952756
        },
        {
          "duration": 0.1875,
          "durationTicks": 48,
          "midi": 68,
          "name": "G#4",
          "ticks": 5184,
          "time": 20.25,
          "velocity": 0.8188976377952756
        },
        {
          "duration": 0.1875,
          "durationTicks": 48,
          "midi": 67,
          "name": "G4",
          "ticks": 5232,
          "time": 20.4375,
          "velocity": 0.8188976377952756
        },
        {
          "duration": 0.1875,
          "durationTicks": 48,
          "midi": 65,
          "name": "F4",
          "ticks": 5280,
          "time": 20.625,
          "velocity": 0.8188976377952756
        },
        {
          "duration": 0.046875,
          "durationTicks": 12,
          "midi": 68,
          "name": "G#4",
          "ticks": 5352,
          "time": 20.90625,
          "velocity": 0.8188976377952756
        },
        {
          "duration": 0.1875,
          "durationTicks": 48,
          "midi": 68,
          "name": "G#4",
          "ticks": 5376,
          "time": 21,
          "velocity": 0.8188976377952756
        },
        {
          "duration": 0.046875,
          "durationTicks": 12,
          "midi": 67,
          "name": "G4",
          "ticks": 5448,
          "time": 21.28125,
          "velocity": 0.8188976377952756
        },
        {
          "duration": 0.375,
          "durationTicks": 96,
          "midi": 67,
          "name": "G4",
          "ticks": 5472,
          "time": 21.375,
          "velocity": 0.8188976377952756
        },
        {
          "duration": 0.375,
          "durationTicks": 96,
          "midi": 67,
          "name": "G4",
          "ticks": 5664,
          "time": 22.125,
          "velocity": 0.8188976377952756
        },
        {
          "duration": 0.375,
          "durationTicks": 96,
          "midi": 66,
          "name": "F#4",
          "ticks": 5760,
          "time": 22.5,
          "velocity": 0.8188976377952756
        },
        {
          "duration": 0.375,
          "durationTicks": 96,
          "midi": 63,
          "name": "D#4",
          "ticks": 5856,
          "time": 22.875,
          "velocity": 0.8188976377952756
        },
        {
          "duration": 0.375,
          "durationTicks": 96,
          "midi": 63,
          "name": "D#4",
          "ticks": 5952,
          "time": 23.25,
          "velocity": 0.8188976377952756
        },
        {
          "duration": 0.375,
          "durationTicks": 96,
          "midi": 62,
          "name": "D4",
          "ticks": 6048,
          "time": 23.625,
          "velocity": 0.8188976377952756
        },
        {
          "duration": 0.28125,
          "durationTicks": 72,
          "midi": 60,
          "name": "C4",
          "ticks": 6144,
          "time": 24,
          "velocity": 0.8188976377952756
        },
        {
          "duration": 0.046875,
          "durationTicks": 12,
          "midi": 59,
          "name": "B3",
          "ticks": 6216,
          "time": 24.28125,
          "velocity": 0.8188976377952756
        },
        {
          "duration": 0.375,
          "durationTicks": 96,
          "midi": 59,
          "name": "B3",
          "ticks": 6240,
          "time": 24.375,
          "velocity": 0.8188976377952756
        },
        {
          "duration": 0.1875,
          "durationTicks": 48,
          "midi": 55,
          "name": "G3",
          "ticks": 6384,
          "time": 24.9375,
          "velocity": 0.8188976377952756
        },
        {
          "duration": 0.1875,
          "durationTicks": 48,
          "midi": 57,
          "name": "A3",
          "ticks": 6432,
          "time": 25.125,
          "velocity": 0.8188976377952756
        },
        {
          "duration": 0.1875,
          "durationTicks": 48,
          "midi": 59,
          "name": "B3",
          "ticks": 6480,
          "time": 25.3125,
          "velocity": 0.8188976377952756
        },
        {
          "duration": 0.375,
          "durationTicks": 96,
          "midi": 60,
          "name": "C4",
          "ticks": 6528,
          "time": 25.5,
          "velocity": 0.8188976377952756
        },
        {
          "duration": 0.375,
          "durationTicks": 96,
          "midi": 60,
          "name": "C4",
          "ticks": 6624,
          "time": 25.875,
          "velocity": 0.8188976377952756
        },
        {
          "duration": 0.375,
          "durationTicks": 96,
          "midi": 62,
          "name": "D4",
          "ticks": 6720,
          "time": 26.25,
          "velocity": 0.8188976377952756
        },
        {
          "duration": 0.125,
          "durationTicks": 32,
          "midi": 55,
          "name": "G3",
          "ticks": 6816,
          "time": 26.625,
          "velocity": 0.8188976377952756
        },
        {
          "duration": 0.125,
          "durationTicks": 32,
          "midi": 59,
          "name": "B3",
          "ticks": 6848,
          "time": 26.75,
          "velocity": 0.8188976377952756
        },
        {
          "duration": 0.125,
          "durationTicks": 32,
          "midi": 62,
          "name": "D4",
          "ticks": 6880,
          "time": 26.875,
          "velocity": 0.8188976377952756
        },
        {
          "duration": 0.328125,
          "durationTicks": 84,
          "midi": 63,
          "name": "D#4",
          "ticks": 6912,
          "time": 27,
          "velocity": 0.8188976377952756
        },
        {
          "duration": 0.28125,
          "durationTicks": 72,
          "midi": 60,
          "name": "C4",
          "ticks": 7008,
          "time": 27.375,
          "velocity": 0.8188976377952756
        },
        {
          "duration": 0.1875,
          "durationTicks": 48,
          "midi": 60,
          "name": "C4",
          "ticks": 7152,
          "time": 27.9375,
          "velocity": 0.8188976377952756
        },
        {
          "duration": 0.1875,
          "durationTicks": 48,
          "midi": 65,
          "name": "F4",
          "ticks": 7200,
          "time": 28.125,
          "velocity": 0.8188976377952756
        },
        {
          "duration": 0.1875,
          "durationTicks": 48,
          "midi": 67,
          "name": "G4",
          "ticks": 7248,
          "time": 28.3125,
          "velocity": 0.8188976377952756
        },
        {
          "duration": 0.28125,
          "durationTicks": 72,
          "midi": 72,
          "name": "C5",
          "ticks": 7296,
          "time": 28.5,
          "velocity": 0.8188976377952756
        },
        {
          "duration": 0.28125,
          "durationTicks": 72,
          "midi": 72,
          "name": "C5",
          "ticks": 7392,
          "time": 28.875,
          "velocity": 0.8188976377952756
        },
        {
          "duration": 0.1875,
          "durationTicks": 48,
          "midi": 72,
          "name": "C5",
          "ticks": 7488,
          "time": 29.25,
          "velocity": 0.8188976377952756
        },
        {
          "duration": 0.1875,
          "durationTicks": 48,
          "midi": 74,
          "name": "D5",
          "ticks": 7536,
          "time": 29.4375,
          "velocity": 0.8188976377952756
        },
        {
          "duration": 0.234375,
          "durationTicks": 60,
          "midi": 70,
          "name": "A#4",
          "ticks": 7584,
          "time": 29.625,
          "velocity": 0.8188976377952756
        },
        {
          "duration": 0.06640625,
          "durationTicks": 17,
          "midi": 68,
          "name": "G#4",
          "ticks": 7656,
          "time": 29.90625,
          "velocity": 0.8188976377952756
        },
        {
          "duration": 0.19140625,
          "durationTicks": 49,
          "midi": 68,
          "name": "G#4",
          "ticks": 7680,
          "time": 30,
          "velocity": 0.8188976377952756
        },
        {
          "duration": 0.06640625,
          "durationTicks": 17,
          "midi": 70,
          "name": "A#4",
          "ticks": 7752,
          "time": 30.28125,
          "velocity": 0.8188976377952756
        },
        {
          "duration": 0.28515625,
          "durationTicks": 73,
          "midi": 67,
          "name": "G4",
          "ticks": 7776,
          "time": 30.375,
          "velocity": 0.8188976377952756
        },
        {
          "duration": 0.28125,
          "durationTicks": 72,
          "midi": 67,
          "name": "G4",
          "ticks": 7968,
          "time": 31.125,
          "velocity": 0.8188976377952756
        },
        {
          "duration": 0.28125,
          "durationTicks": 72,
          "midi": 68,
          "name": "G#4",
          "ticks": 8064,
          "time": 31.5,
          "velocity": 0.8188976377952756
        },
        {
          "duration": 0.1875,
          "durationTicks": 48,
          "midi": 67,
          "name": "G4",
          "ticks": 8160,
          "time": 31.875,
          "velocity": 0.8188976377952756
        },
        {
          "duration": 0.09375,
          "durationTicks": 24,
          "midi": 68,
          "name": "G#4",
          "ticks": 8232,
          "time": 32.15625,
          "velocity": 0.8188976377952756
        },
        {
          "duration": 0.1875,
          "durationTicks": 48,
          "midi": 72,
          "name": "C5",
          "ticks": 8256,
          "time": 32.25,
          "velocity": 0.8188976377952756
        },
        {
          "duration": 0.1875,
          "durationTicks": 48,
          "midi": 70,
          "name": "A#4",
          "ticks": 8352,
          "time": 32.625,
          "velocity": 0.8188976377952756
        },
        {
          "duration": 0.09375,
          "durationTicks": 24,
          "midi": 68,
          "name": "G#4",
          "ticks": 8424,
          "time": 32.90625,
          "velocity": 0.8188976377952756
        },
        {
          "duration": 0.1875,
          "durationTicks": 48,
          "midi": 67,
          "name": "G4",
          "ticks": 8448,
          "time": 33,
          "velocity": 0.8188976377952756
        },
        {
          "duration": 0.1875,
          "durationTicks": 48,
          "midi": 65,
          "name": "F4",
          "ticks": 8544,
          "time": 33.375,
          "velocity": 0.8188976377952756
        },
        {
          "duration": 0.09375,
          "durationTicks": 24,
          "midi": 67,
          "name": "G4",
          "ticks": 8616,
          "time": 33.65625,
          "velocity": 0.8188976377952756
        },
        {
          "duration": 0.1875,
          "durationTicks": 48,
          "midi": 72,
          "name": "C5",
          "ticks": 8640,
          "time": 33.75,
          "velocity": 0.8188976377952756
        },
        {
          "duration": 0.1875,
          "durationTicks": 48,
          "midi": 70,
          "name": "A#4",
          "ticks": 8736,
          "time": 34.125,
          "velocity": 0.8188976377952756
        },
        {
          "duration": 0.09375,
          "durationTicks": 24,
          "midi": 68,
          "name": "G#4",
          "ticks": 8808,
          "time": 34.40625,
          "velocity": 0.8188976377952756
        },
        {
          "duration": 0.1875,
          "durationTicks": 48,
          "midi": 67,
          "name": "G4",
          "ticks": 8832,
          "time": 34.5,
          "velocity": 0.8188976377952756
        },
        {
          "duration": 0.1875,
          "durationTicks": 48,
          "midi": 67,
          "name": "G4",
          "ticks": 8928,
          "time": 34.875,
          "velocity": 0.8188976377952756
        },
        {
          "duration": 0.09375,
          "durationTicks": 24,
          "midi": 67,
          "name": "G4",
          "ticks": 9000,
          "time": 35.15625,
          "velocity": 0.8188976377952756
        },
        {
          "duration": 0.234375,
          "durationTicks": 60,
          "midi": 70,
          "name": "A#4",
          "ticks": 9024,
          "time": 35.25,
          "velocity": 0.8188976377952756
        },
        {
          "duration": 0.234375,
          "durationTicks": 60,
          "midi": 67,
          "name": "G4",
          "ticks": 9120,
          "time": 35.625,
          "velocity": 0.8188976377952756
        },
        {
          "duration": 0.046875,
          "durationTicks": 12,
          "midi": 70,
          "name": "A#4",
          "ticks": 9192,
          "time": 35.90625,
          "velocity": 0.8188976377952756
        },
        {
          "duration": 0.28125,
          "durationTicks": 72,
          "midi": 70,
          "name": "A#4",
          "ticks": 9216,
          "time": 36,
          "velocity": 0.8188976377952756
        },
        {
          "duration": 0.046875,
          "durationTicks": 12,
          "midi": 72,
          "name": "C5",
          "ticks": 9288,
          "time": 36.28125,
          "velocity": 0.8188976377952756
        },
        {
          "duration": 0.375,
          "durationTicks": 96,
          "midi": 72,
          "name": "C5",
          "ticks": 9312,
          "time": 36.375,
          "velocity": 0.8188976377952756
        },
        {
          "duration": 0.734375,
          "durationTicks": 188,
          "midi": 72,
          "name": "C5",
          "ticks": 15744,
          "time": 61.5,
          "velocity": 0.8188976377952756
        },
        {
          "duration": 0.734375,
          "durationTicks": 188,
          "midi": 60,
          "name": "C4",
          "ticks": 15744,
          "time": 61.5,
          "velocity": 0.5905511811023622
        },
        {
          "duration": 0.734375,
          "durationTicks": 188,
          "midi": 67,
          "name": "G4",
          "ticks": 15744,
          "time": 61.5,
          "velocity": 0.5748031496062992
        },
        {
          "duration": 0.734375,
          "durationTicks": 188,
          "midi": 74,
          "name": "D5",
          "ticks": 15936,
          "time": 62.25,
          "velocity": 0.8188976377952756
        },
        {
          "duration": 0.734375,
          "durationTicks": 188,
          "midi": 67,
          "name": "G4",
          "ticks": 15936,
          "time": 62.25,
          "velocity": 0.5748031496062992
        },
        {
          "duration": 0.734375,
          "durationTicks": 188,
          "midi": 62,
          "name": "D4",
          "ticks": 15936,
          "time": 62.25,
          "velocity": 0.5905511811023622
        },
        {
          "duration": 0.734375,
          "durationTicks": 188,
          "midi": 75,
          "name": "D#5",
          "ticks": 16128,
          "time": 63,
          "velocity": 0.8188976377952756
        },
        {
          "duration": 0.734375,
          "durationTicks": 188,
          "midi": 67,
          "name": "G4",
          "ticks": 16128,
          "time": 63,
          "velocity": 0.5748031496062992
        },
        {
          "duration": 0.734375,
          "durationTicks": 188,
          "midi": 63,
          "name": "D#4",
          "ticks": 16128,
          "time": 63,
          "velocity": 0.5905511811023622
        },
        {
          "duration": 0.734375,
          "durationTicks": 188,
          "midi": 74,
          "name": "D5",
          "ticks": 16320,
          "time": 63.75,
          "velocity": 0.8188976377952756
        },
        {
          "duration": 0.734375,
          "durationTicks": 188,
          "midi": 65,
          "name": "F4",
          "ticks": 16320,
          "time": 63.75,
          "velocity": 0.5748031496062992
        },
        {
          "duration": 0.734375,
          "durationTicks": 188,
          "midi": 62,
          "name": "D4",
          "ticks": 16320,
          "time": 63.75,
          "velocity": 0.5905511811023622
        },
        {
          "duration": 0.734375,
          "durationTicks": 188,
          "midi": 72,
          "name": "C5",
          "ticks": 16512,
          "time": 64.5,
          "velocity": 0.8188976377952756
        },
        {
          "duration": 0.734375,
          "durationTicks": 188,
          "midi": 67,
          "name": "G4",
          "ticks": 16512,
          "time": 64.5,
          "velocity": 0.5748031496062992
        },
        {
          "duration": 0.734375,
          "durationTicks": 188,
          "midi": 60,
          "name": "C4",
          "ticks": 16512,
          "time": 64.5,
          "velocity": 0.5905511811023622
        },
        {
          "duration": 0.734375,
          "durationTicks": 188,
          "midi": 70,
          "name": "A#4",
          "ticks": 16704,
          "time": 65.25,
          "velocity": 0.8188976377952756
        },
        {
          "duration": 0.734375,
          "durationTicks": 188,
          "midi": 65,
          "name": "F4",
          "ticks": 16704,
          "time": 65.25,
          "velocity": 0.5748031496062992
        },
        {
          "duration": 0.734375,
          "durationTicks": 188,
          "midi": 58,
          "name": "A#3",
          "ticks": 16704,
          "time": 65.25,
          "velocity": 0.5905511811023622
        },
        {
          "duration": 0.734375,
          "durationTicks": 188,
          "midi": 67,
          "name": "G4",
          "ticks": 16896,
          "time": 66,
          "velocity": 0.8188976377952756
        },
        {
          "duration": 0.734375,
          "durationTicks": 188,
          "midi": 63,
          "name": "D#4",
          "ticks": 16896,
          "time": 66,
          "velocity": 0.5748031496062992
        },
        {
          "duration": 0.734375,
          "durationTicks": 188,
          "midi": 55,
          "name": "G3",
          "ticks": 16896,
          "time": 66,
          "velocity": 0.5905511811023622
        },
        {
          "duration": 0.734375,
          "durationTicks": 188,
          "midi": 68,
          "name": "G#4",
          "ticks": 17280,
          "time": 67.5,
          "velocity": 0.8188976377952756
        },
        {
          "duration": 0.734375,
          "durationTicks": 188,
          "midi": 65,
          "name": "F4",
          "ticks": 17280,
          "time": 67.5,
          "velocity": 0.5748031496062992
        },
        {
          "duration": 0.734375,
          "durationTicks": 188,
          "midi": 56,
          "name": "G#3",
          "ticks": 17280,
          "time": 67.5,
          "velocity": 0.5905511811023622
        },
        {
          "duration": 0.734375,
          "durationTicks": 188,
          "midi": 72,
          "name": "C5",
          "ticks": 17472,
          "time": 68.25,
          "velocity": 0.8188976377952756
        },
        {
          "duration": 0.734375,
          "durationTicks": 188,
          "midi": 68,
          "name": "G#4",
          "ticks": 17472,
          "time": 68.25,
          "velocity": 0.5748031496062992
        },
        {
          "duration": 0.734375,
          "durationTicks": 188,
          "midi": 60,
          "name": "C4",
          "ticks": 17472,
          "time": 68.25,
          "velocity": 0.5905511811023622
        },
        {
          "duration": 0.734375,
          "durationTicks": 188,
          "midi": 70,
          "name": "A#4",
          "ticks": 17664,
          "time": 69,
          "velocity": 0.8188976377952756
        },
        {
          "duration": 0.734375,
          "durationTicks": 188,
          "midi": 67,
          "name": "G4",
          "ticks": 17664,
          "time": 69,
          "velocity": 0.5748031496062992
        },
        {
          "duration": 0.734375,
          "durationTicks": 188,
          "midi": 58,
          "name": "A#3",
          "ticks": 17664,
          "time": 69,
          "velocity": 0.5905511811023622
        },
        {
          "duration": 0.734375,
          "durationTicks": 188,
          "midi": 67,
          "name": "G4",
          "ticks": 17856,
          "time": 69.75,
          "velocity": 0.8188976377952756
        },
        {
          "duration": 0.734375,
          "durationTicks": 188,
          "midi": 63,
          "name": "D#4",
          "ticks": 17856,
          "time": 69.75,
          "velocity": 0.5748031496062992
        },
        {
          "duration": 0.734375,
          "durationTicks": 188,
          "midi": 55,
          "name": "G3",
          "ticks": 17856,
          "time": 69.75,
          "velocity": 0.5905511811023622
        },
        {
          "duration": 0.734375,
          "durationTicks": 188,
          "midi": 66,
          "name": "F#4",
          "ticks": 18048,
          "time": 70.5,
          "velocity": 0.8188976377952756
        },
        {
          "duration": 0.734375,
          "durationTicks": 188,
          "midi": 62,
          "name": "D4",
          "ticks": 18048,
          "time": 70.5,
          "velocity": 0.5748031496062992
        },
        {
          "duration": 0.734375,
          "durationTicks": 188,
          "midi": 54,
          "name": "F#3",
          "ticks": 18048,
          "time": 70.5,
          "velocity": 0.5905511811023622
        },
        {
          "duration": 0.734375,
          "durationTicks": 188,
          "midi": 54,
          "name": "F#3",
          "ticks": 18240,
          "time": 71.25,
          "velocity": 0.5905511811023622
        },
        {
          "duration": 0.734375,
          "durationTicks": 188,
          "midi": 66,
          "name": "F#4",
          "ticks": 18240,
          "time": 71.25,
          "velocity": 0.8188976377952756
        },
        {
          "duration": 0.734375,
          "durationTicks": 188,
          "midi": 62,
          "name": "D4",
          "ticks": 18240,
          "time": 71.25,
          "velocity": 0.5748031496062992
        },
        {
          "duration": 1.015625,
          "durationTicks": 260,
          "midi": 67,
          "name": "G4",
          "ticks": 18432,
          "time": 72,
          "velocity": 0.8188976377952756
        },
        {
          "duration": 1.015625,
          "durationTicks": 260,
          "midi": 62,
          "name": "D4",
          "ticks": 18432,
          "time": 72,
          "velocity": 0.5748031496062992
        },
        {
          "duration": 1.015625,
          "durationTicks": 260,
          "midi": 55,
          "name": "G3",
          "ticks": 18432,
          "time": 72,
          "velocity": 0.5905511811023622
        },
        {
          "duration": 0.734375,
          "durationTicks": 188,
          "midi": 60,
          "name": "C4",
          "ticks": 18816,
          "time": 73.5,
          "velocity": 0.6456692913385826
        },
        {
          "duration": 0.734375,
          "durationTicks": 188,
          "midi": 67,
          "name": "G4",
          "ticks": 18816,
          "time": 73.5,
          "velocity": 0.6456692913385826
        },
        {
          "duration": 0.734375,
          "durationTicks": 188,
          "midi": 72,
          "name": "C5",
          "ticks": 18816,
          "time": 73.5,
          "velocity": 0.8188976377952756
        },
        {
          "duration": 0.734375,
          "durationTicks": 188,
          "midi": 62,
          "name": "D4",
          "ticks": 19008,
          "time": 74.25,
          "velocity": 0.6456692913385826
        },
        {
          "duration": 0.734375,
          "durationTicks": 188,
          "midi": 67,
          "name": "G4",
          "ticks": 19008,
          "time": 74.25,
          "velocity": 0.6456692913385826
        },
        {
          "duration": 0.734375,
          "durationTicks": 188,
          "midi": 74,
          "name": "D5",
          "ticks": 19008,
          "time": 74.25,
          "velocity": 0.8188976377952756
        },
        {
          "duration": 0.734375,
          "durationTicks": 188,
          "midi": 63,
          "name": "D#4",
          "ticks": 19200,
          "time": 75,
          "velocity": 0.6456692913385826
        },
        {
          "duration": 0.734375,
          "durationTicks": 188,
          "midi": 67,
          "name": "G4",
          "ticks": 19200,
          "time": 75,
          "velocity": 0.6456692913385826
        },
        {
          "duration": 0.734375,
          "durationTicks": 188,
          "midi": 75,
          "name": "D#5",
          "ticks": 19200,
          "time": 75,
          "velocity": 0.8188976377952756
        },
        {
          "duration": 0.734375,
          "durationTicks": 188,
          "midi": 59,
          "name": "B3",
          "ticks": 19392,
          "time": 75.75,
          "velocity": 0.6456692913385826
        },
        {
          "duration": 0.734375,
          "durationTicks": 188,
          "midi": 68,
          "name": "G#4",
          "ticks": 19392,
          "time": 75.75,
          "velocity": 0.6456692913385826
        },
        {
          "duration": 0.734375,
          "durationTicks": 188,
          "midi": 65,
          "name": "F4",
          "ticks": 19392,
          "time": 75.75,
          "velocity": 0.6456692913385826
        },
        {
          "duration": 0.734375,
          "durationTicks": 188,
          "midi": 77,
          "name": "F5",
          "ticks": 19392,
          "time": 75.75,
          "velocity": 0.8188976377952756
        },
        {
          "duration": 0.734375,
          "durationTicks": 188,
          "midi": 72,
          "name": "C5",
          "ticks": 19584,
          "time": 76.5,
          "velocity": 0.6456692913385826
        },
        {
          "duration": 0.734375,
          "durationTicks": 188,
          "midi": 60,
          "name": "C4",
          "ticks": 19584,
          "time": 76.5,
          "velocity": 0.6456692913385826
        },
        {
          "duration": 0.734375,
          "durationTicks": 188,
          "midi": 67,
          "name": "G4",
          "ticks": 19584,
          "time": 76.5,
          "velocity": 0.6456692913385826
        },
        {
          "duration": 0.734375,
          "durationTicks": 188,
          "midi": 79,
          "name": "G5",
          "ticks": 19584,
          "time": 76.5,
          "velocity": 0.8188976377952756
        },
        {
          "duration": 0.734375,
          "durationTicks": 188,
          "midi": 73,
          "name": "C#5",
          "ticks": 19776,
          "time": 77.25,
          "velocity": 0.6456692913385826
        },
        {
          "duration": 0.734375,
          "durationTicks": 188,
          "midi": 79,
          "name": "G5",
          "ticks": 19776,
          "time": 77.25,
          "velocity": 0.8188976377952756
        },
        {
          "duration": 0.734375,
          "durationTicks": 188,
          "midi": 67,
          "name": "G4",
          "ticks": 19776,
          "time": 77.25,
          "velocity": 0.6456692913385826
        },
        {
          "duration": 0.734375,
          "durationTicks": 188,
          "midi": 61,
          "name": "C#4",
          "ticks": 19776,
          "time": 77.25,
          "velocity": 0.6456692913385826
        },
        {
          "duration": 0.734375,
          "durationTicks": 188,
          "midi": 74,
          "name": "D5",
          "ticks": 19968,
          "time": 78,
          "velocity": 0.6456692913385826
        },
        {
          "duration": 0.734375,
          "durationTicks": 188,
          "midi": 62,
          "name": "D4",
          "ticks": 19968,
          "time": 78,
          "velocity": 0.6456692913385826
        },
        {
          "duration": 0.734375,
          "durationTicks": 188,
          "midi": 81,
          "name": "A5",
          "ticks": 19968,
          "time": 78,
          "velocity": 0.8188976377952756
        },
        {
          "duration": 0.734375,
          "durationTicks": 188,
          "midi": 69,
          "name": "A4",
          "ticks": 19968,
          "time": 78,
          "velocity": 0.6456692913385826
        },
        {
          "duration": 0.734375,
          "durationTicks": 188,
          "midi": 74,
          "name": "D5",
          "ticks": 20160,
          "time": 78.75,
          "velocity": 0.6456692913385826
        },
        {
          "duration": 0.734375,
          "durationTicks": 188,
          "midi": 62,
          "name": "D4",
          "ticks": 20160,
          "time": 78.75,
          "velocity": 0.6456692913385826
        },
        {
          "duration": 0.734375,
          "durationTicks": 188,
          "midi": 79,
          "name": "G5",
          "ticks": 20160,
          "time": 78.75,
          "velocity": 0.8188976377952756
        },
        {
          "duration": 0.734375,
          "durationTicks": 188,
          "midi": 67,
          "name": "G4",
          "ticks": 20160,
          "time": 78.75,
          "velocity": 0.6456692913385826
        },
        {
          "duration": 0.734375,
          "durationTicks": 188,
          "midi": 72,
          "name": "C5",
          "ticks": 20352,
          "time": 79.5,
          "velocity": 0.6456692913385826
        },
        {
          "duration": 0.734375,
          "durationTicks": 188,
          "midi": 60,
          "name": "C4",
          "ticks": 20352,
          "time": 79.5,
          "velocity": 0.6456692913385826
        },
        {
          "duration": 0.734375,
          "durationTicks": 188,
          "midi": 67,
          "name": "G4",
          "ticks": 20352,
          "time": 79.5,
          "velocity": 0.6456692913385826
        },
        {
          "duration": 0.734375,
          "durationTicks": 188,
          "midi": 79,
          "name": "G5",
          "ticks": 20352,
          "time": 79.5,
          "velocity": 0.8188976377952756
        },
        {
          "duration": 0.734375,
          "durationTicks": 188,
          "midi": 70,
          "name": "A#4",
          "ticks": 20544,
          "time": 80.25,
          "velocity": 0.6456692913385826
        },
        {
          "duration": 0.734375,
          "durationTicks": 188,
          "midi": 58,
          "name": "A#3",
          "ticks": 20544,
          "time": 80.25,
          "velocity": 0.6456692913385826
        },
        {
          "duration": 0.734375,
          "durationTicks": 188,
          "midi": 67,
          "name": "G4",
          "ticks": 20544,
          "time": 80.25,
          "velocity": 0.6456692913385826
        },
        {
          "duration": 0.734375,
          "durationTicks": 188,
          "midi": 79,
          "name": "G5",
          "ticks": 20544,
          "time": 80.25,
          "velocity": 0.8188976377952756
        },
        {
          "duration": 0.734375,
          "durationTicks": 188,
          "midi": 77,
          "name": "F5",
          "ticks": 20736,
          "time": 81,
          "velocity": 0.6456692913385826
        },
        {
          "duration": 0.734375,
          "durationTicks": 188,
          "midi": 65,
          "name": "F4",
          "ticks": 20736,
          "time": 81,
          "velocity": 0.6456692913385826
        },
        {
          "duration": 0.734375,
          "durationTicks": 188,
          "midi": 68,
          "name": "G#4",
          "ticks": 20736,
          "time": 81,
          "velocity": 0.6456692913385826
        },
        {
          "duration": 0.734375,
          "durationTicks": 188,
          "midi": 80,
          "name": "G#5",
          "ticks": 20736,
          "time": 81,
          "velocity": 0.8188976377952756
        },
        {
          "duration": 0.734375,
          "durationTicks": 188,
          "midi": 74,
          "name": "D5",
          "ticks": 20928,
          "time": 81.75,
          "velocity": 0.6456692913385826
        },
        {
          "duration": 0.734375,
          "durationTicks": 188,
          "midi": 62,
          "name": "D4",
          "ticks": 20928,
          "time": 81.75,
          "velocity": 0.6456692913385826
        },
        {
          "duration": 0.734375,
          "durationTicks": 188,
          "midi": 68,
          "name": "G#4",
          "ticks": 20928,
          "time": 81.75,
          "velocity": 0.6456692913385826
        },
        {
          "duration": 0.734375,
          "durationTicks": 188,
          "midi": 80,
          "name": "G#5",
          "ticks": 20928,
          "time": 81.75,
          "velocity": 0.8188976377952756
        },
        {
          "duration": 0.734375,
          "durationTicks": 188,
          "midi": 75,
          "name": "D#5",
          "ticks": 21120,
          "time": 82.5,
          "velocity": 0.6456692913385826
        },
        {
          "duration": 0.734375,
          "durationTicks": 188,
          "midi": 63,
          "name": "D#4",
          "ticks": 21120,
          "time": 82.5,
          "velocity": 0.6456692913385826
        },
        {
          "duration": 0.734375,
          "durationTicks": 188,
          "midi": 67,
          "name": "G4",
          "ticks": 21120,
          "time": 82.5,
          "velocity": 0.6456692913385826
        },
        {
          "duration": 0.734375,
          "durationTicks": 188,
          "midi": 79,
          "name": "G5",
          "ticks": 21120,
          "time": 82.5,
          "velocity": 0.8188976377952756
        },
        {
          "duration": 0.734375,
          "durationTicks": 188,
          "midi": 72,
          "name": "C5",
          "ticks": 21312,
          "time": 83.25,
          "velocity": 0.6456692913385826
        },
        {
          "duration": 0.734375,
          "durationTicks": 188,
          "midi": 60,
          "name": "C4",
          "ticks": 21312,
          "time": 83.25,
          "velocity": 0.6456692913385826
        },
        {
          "duration": 0.734375,
          "durationTicks": 188,
          "midi": 79,
          "name": "G5",
          "ticks": 21312,
          "time": 83.25,
          "velocity": 0.8188976377952756
        },
        {
          "duration": 0.734375,
          "durationTicks": 188,
          "midi": 67,
          "name": "G4",
          "ticks": 21312,
          "time": 83.25,
          "velocity": 0.6456692913385826
        },
        {
          "duration": 0.734375,
          "durationTicks": 188,
          "midi": 77,
          "name": "F5",
          "ticks": 21504,
          "time": 84,
          "velocity": 0.8188976377952756
        },
        {
          "duration": 0.734375,
          "durationTicks": 188,
          "midi": 65,
          "name": "F4",
          "ticks": 21504,
          "time": 84,
          "velocity": 0.6456692913385826
        },
        {
          "duration": 0.734375,
          "durationTicks": 188,
          "midi": 62,
          "name": "D4",
          "ticks": 21504,
          "time": 84,
          "velocity": 0.6456692913385826
        },
        {
          "duration": 0.734375,
          "durationTicks": 188,
          "midi": 74,
          "name": "D5",
          "ticks": 21504,
          "time": 84,
          "velocity": 0.6456692913385826
        },
        {
          "duration": 0.359375,
          "durationTicks": 92,
          "midi": 63,
          "name": "D#4",
          "ticks": 21696,
          "time": 84.75,
          "velocity": 0.6456692913385826
        },
        {
          "duration": 0.359375,
          "durationTicks": 92,
          "midi": 75,
          "name": "D#5",
          "ticks": 21696,
          "time": 84.75,
          "velocity": 0.8188976377952756
        },
        {
          "duration": 0.734375,
          "durationTicks": 188,
          "midi": 59,
          "name": "B3",
          "ticks": 21696,
          "time": 84.75,
          "velocity": 0.6456692913385826
        },
        {
          "duration": 0.734375,
          "durationTicks": 188,
          "midi": 71,
          "name": "B4",
          "ticks": 21696,
          "time": 84.75,
          "velocity": 0.6456692913385826
        },
        {
          "duration": 0.359375,
          "durationTicks": 92,
          "midi": 74,
          "name": "D5",
          "ticks": 21792,
          "time": 85.125,
          "velocity": 0.8188976377952756
        },
        {
          "duration": 0.359375,
          "durationTicks": 92,
          "midi": 62,
          "name": "D4",
          "ticks": 21792,
          "time": 85.125,
          "velocity": 0.6456692913385826
        },
        {
          "duration": 1.484375,
          "durationTicks": 380,
          "midi": 72,
          "name": "C5",
          "ticks": 21888,
          "time": 85.5,
          "velocity": 0.8188976377952756
        },
        {
          "duration": 1.484375,
          "durationTicks": 380,
          "midi": 60,
          "name": "C4",
          "ticks": 21888,
          "time": 85.5,
          "velocity": 0.6377952755905512
        },
        {
          "duration": 1.453125,
          "durationTicks": 372,
          "midi": 67,
          "name": "G4",
          "ticks": 21888,
          "time": 85.5,
          "velocity": 0.6377952755905512
        },
        {
          "duration": 0.375,
          "durationTicks": 96,
          "midi": 55,
          "name": "G3",
          "ticks": 29856,
          "time": 116.625,
          "velocity": 0.8188976377952756
        },
        {
          "duration": 0.375,
          "durationTicks": 96,
          "midi": 59,
          "name": "B3",
          "ticks": 29952,
          "time": 117,
          "velocity": 0.8188976377952756
        },
        {
          "duration": 0.375,
          "durationTicks": 96,
          "midi": 60,
          "name": "C4",
          "ticks": 30048,
          "time": 117.375,
          "velocity": 0.8188976377952756
        },
        {
          "duration": 0.375,
          "durationTicks": 96,
          "midi": 60,
          "name": "C4",
          "ticks": 30144,
          "time": 117.75,
          "velocity": 0.8188976377952756
        },
        {
          "duration": 0.375,
          "durationTicks": 96,
          "midi": 62,
          "name": "D4",
          "ticks": 30240,
          "time": 118.125,
          "velocity": 0.8188976377952756
        },
        {
          "duration": 0.28125,
          "durationTicks": 72,
          "midi": 59,
          "name": "B3",
          "ticks": 30336,
          "time": 118.5,
          "velocity": 0.8188976377952756
        },
        {
          "duration": 0.09375,
          "durationTicks": 24,
          "midi": 62,
          "name": "D4",
          "ticks": 30408,
          "time": 118.78125,
          "velocity": 0.8188976377952756
        },
        {
          "duration": 0.328125,
          "durationTicks": 84,
          "midi": 63,
          "name": "D#4",
          "ticks": 30432,
          "time": 118.875,
          "velocity": 0.8188976377952756
        },
        {
          "duration": 0.28125,
          "durationTicks": 72,
          "midi": 60,
          "name": "C4",
          "ticks": 30528,
          "time": 119.25,
          "velocity": 0.8188976377952756
        },
        {
          "duration": 0.140625,
          "durationTicks": 36,
          "midi": 60,
          "name": "C4",
          "ticks": 30672,
          "time": 119.8125,
          "velocity": 0.8188976377952756
        },
        {
          "duration": 0.140625,
          "durationTicks": 36,
          "midi": 65,
          "name": "F4",
          "ticks": 30720,
          "time": 120,
          "velocity": 0.8188976377952756
        },
        {
          "duration": 0.140625,
          "durationTicks": 36,
          "midi": 67,
          "name": "G4",
          "ticks": 30768,
          "time": 120.1875,
          "velocity": 0.8188976377952756
        },
        {
          "duration": 0.28125,
          "durationTicks": 72,
          "midi": 68,
          "name": "G#4",
          "ticks": 30816,
          "time": 120.375,
          "velocity": 0.8188976377952756
        },
        {
          "duration": 0.28125,
          "durationTicks": 72,
          "midi": 68,
          "name": "G#4",
          "ticks": 30912,
          "time": 120.75,
          "velocity": 0.8188976377952756
        },
        {
          "duration": 0.1875,
          "durationTicks": 48,
          "midi": 68,
          "name": "G#4",
          "ticks": 31008,
          "time": 121.125,
          "velocity": 0.8188976377952756
        },
        {
          "duration": 0.1875,
          "durationTicks": 48,
          "midi": 70,
          "name": "A#4",
          "ticks": 31056,
          "time": 121.3125,
          "velocity": 0.8188976377952756
        },
        {
          "duration": 0.234375,
          "durationTicks": 60,
          "midi": 65,
          "name": "F4",
          "ticks": 31104,
          "time": 121.5,
          "velocity": 0.8188976377952756
        },
        {
          "duration": 0.046875,
          "durationTicks": 12,
          "midi": 68,
          "name": "G#4",
          "ticks": 31176,
          "time": 121.78125,
          "velocity": 0.8188976377952756
        },
        {
          "duration": 0.1875,
          "durationTicks": 48,
          "midi": 68,
          "name": "G#4",
          "ticks": 31200,
          "time": 121.875,
          "velocity": 0.8188976377952756
        },
        {
          "duration": 0.046875,
          "durationTicks": 12,
          "midi": 67,
          "name": "G4",
          "ticks": 31272,
          "time": 122.15625,
          "velocity": 0.8188976377952756
        },
        {
          "duration": 0.328125,
          "durationTicks": 84,
          "midi": 67,
          "name": "G4",
          "ticks": 31296,
          "time": 122.25,
          "velocity": 0.8188976377952756
        },
        {
          "duration": 0.375,
          "durationTicks": 96,
          "midi": 67,
          "name": "G4",
          "ticks": 31488,
          "time": 123,
          "velocity": 0.8188976377952756
        },
        {
          "duration": 0.375,
          "durationTicks": 96,
          "midi": 68,
          "name": "G#4",
          "ticks": 31584,
          "time": 123.375,
          "velocity": 0.8188976377952756
        },
        {
          "duration": 0.375,
          "durationTicks": 96,
          "midi": 68,
          "name": "G#4",
          "ticks": 31680,
          "time": 123.75,
          "velocity": 0.8188976377952756
        },
        {
          "duration": 0.1875,
          "durationTicks": 48,
          "midi": 68,
          "name": "G#4",
          "ticks": 31776,
          "time": 124.125,
          "velocity": 0.8188976377952756
        },
        {
          "duration": 0.1875,
          "durationTicks": 48,
          "midi": 67,
          "name": "G4",
          "ticks": 31824,
          "time": 124.3125,
          "velocity": 0.8188976377952756
        },
        {
          "duration": 0.1875,
          "durationTicks": 48,
          "midi": 65,
          "name": "F4",
          "ticks": 31872,
          "time": 124.5,
          "velocity": 0.8188976377952756
        },
        {
          "duration": 0.046875,
          "durationTicks": 12,
          "midi": 68,
          "name": "G#4",
          "ticks": 31944,
          "time": 124.78125,
          "velocity": 0.8188976377952756
        },
        {
          "duration": 0.1875,
          "durationTicks": 48,
          "midi": 68,
          "name": "G#4",
          "ticks": 31968,
          "time": 124.875,
          "velocity": 0.8188976377952756
        },
        {
          "duration": 0.046875,
          "durationTicks": 12,
          "midi": 67,
          "name": "G4",
          "ticks": 32040,
          "time": 125.15625,
          "velocity": 0.8188976377952756
        },
        {
          "duration": 0.375,
          "durationTicks": 96,
          "midi": 67,
          "name": "G4",
          "ticks": 32064,
          "time": 125.25,
          "velocity": 0.8188976377952756
        },
        {
          "duration": 0.375,
          "durationTicks": 96,
          "midi": 67,
          "name": "G4",
          "ticks": 32256,
          "time": 126,
          "velocity": 0.8188976377952756
        },
        {
          "duration": 0.375,
          "durationTicks": 96,
          "midi": 66,
          "name": "F#4",
          "ticks": 32352,
          "time": 126.375,
          "velocity": 0.8188976377952756
        },
        {
          "duration": 0.375,
          "durationTicks": 96,
          "midi": 63,
          "name": "D#4",
          "ticks": 32448,
          "time": 126.75,
          "velocity": 0.8188976377952756
        },
        {
          "duration": 0.375,
          "durationTicks": 96,
          "midi": 63,
          "name": "D#4",
          "ticks": 32544,
          "time": 127.125,
          "velocity": 0.8188976377952756
        },
        {
          "duration": 0.375,
          "durationTicks": 96,
          "midi": 62,
          "name": "D4",
          "ticks": 32640,
          "time": 127.5,
          "velocity": 0.8188976377952756
        },
        {
          "duration": 0.28125,
          "durationTicks": 72,
          "midi": 60,
          "name": "C4",
          "ticks": 32736,
          "time": 127.875,
          "velocity": 0.8188976377952756
        },
        {
          "duration": 0.046875,
          "durationTicks": 12,
          "midi": 59,
          "name": "B3",
          "ticks": 32808,
          "time": 128.15625,
          "velocity": 0.8188976377952756
        },
        {
          "duration": 0.375,
          "durationTicks": 96,
          "midi": 59,
          "name": "B3",
          "ticks": 32832,
          "time": 128.25,
          "velocity": 0.8188976377952756
        },
        {
          "duration": 0.1875,
          "durationTicks": 48,
          "midi": 55,
          "name": "G3",
          "ticks": 32976,
          "time": 128.8125,
          "velocity": 0.8188976377952756
        },
        {
          "duration": 0.1875,
          "durationTicks": 48,
          "midi": 57,
          "name": "A3",
          "ticks": 33024,
          "time": 129,
          "velocity": 0.8188976377952756
        },
        {
          "duration": 0.1875,
          "durationTicks": 48,
          "midi": 59,
          "name": "B3",
          "ticks": 33072,
          "time": 129.1875,
          "velocity": 0.8188976377952756
        },
        {
          "duration": 0.375,
          "durationTicks": 96,
          "midi": 60,
          "name": "C4",
          "ticks": 33120,
          "time": 129.375,
          "velocity": 0.8188976377952756
        },
        {
          "duration": 0.375,
          "durationTicks": 96,
          "midi": 60,
          "name": "C4",
          "ticks": 33216,
          "time": 129.75,
          "velocity": 0.8188976377952756
        },
        {
          "duration": 0.375,
          "durationTicks": 96,
          "midi": 62,
          "name": "D4",
          "ticks": 33312,
          "time": 130.125,
          "velocity": 0.8188976377952756
        },
        {
          "duration": 0.125,
          "durationTicks": 32,
          "midi": 55,
          "name": "G3",
          "ticks": 33408,
          "time": 130.5,
          "velocity": 0.8188976377952756
        },
        {
          "duration": 0.125,
          "durationTicks": 32,
          "midi": 59,
          "name": "B3",
          "ticks": 33440,
          "time": 130.625,
          "velocity": 0.8188976377952756
        },
        {
          "duration": 0.125,
          "durationTicks": 32,
          "midi": 62,
          "name": "D4",
          "ticks": 33472,
          "time": 130.75,
          "velocity": 0.8188976377952756
        },
        {
          "duration": 0.328125,
          "durationTicks": 84,
          "midi": 63,
          "name": "D#4",
          "ticks": 33504,
          "time": 130.875,
          "velocity": 0.8188976377952756
        },
        {
          "duration": 0.28125,
          "durationTicks": 72,
          "midi": 60,
          "name": "C4",
          "ticks": 33600,
          "time": 131.25,
          "velocity": 0.8188976377952756
        },
        {
          "duration": 0.1875,
          "durationTicks": 48,
          "midi": 60,
          "name": "C4",
          "ticks": 33744,
          "time": 131.8125,
          "velocity": 0.8188976377952756
        },
        {
          "duration": 0.1875,
          "durationTicks": 48,
          "midi": 65,
          "name": "F4",
          "ticks": 33792,
          "time": 132,
          "velocity": 0.8188976377952756
        },
        {
          "duration": 0.1875,
          "durationTicks": 48,
          "midi": 67,
          "name": "G4",
          "ticks": 33840,
          "time": 132.1875,
          "velocity": 0.8188976377952756
        },
        {
          "duration": 0.28125,
          "durationTicks": 72,
          "midi": 72,
          "name": "C5",
          "ticks": 33888,
          "time": 132.375,
          "velocity": 0.8188976377952756
        },
        {
          "duration": 0.28125,
          "durationTicks": 72,
          "midi": 72,
          "name": "C5",
          "ticks": 33984,
          "time": 132.75,
          "velocity": 0.8188976377952756
        },
        {
          "duration": 0.1875,
          "durationTicks": 48,
          "midi": 72,
          "name": "C5",
          "ticks": 34080,
          "time": 133.125,
          "velocity": 0.8188976377952756
        },
        {
          "duration": 0.1875,
          "durationTicks": 48,
          "midi": 74,
          "name": "D5",
          "ticks": 34128,
          "time": 133.3125,
          "velocity": 0.8188976377952756
        },
        {
          "duration": 0.234375,
          "durationTicks": 60,
          "midi": 70,
          "name": "A#4",
          "ticks": 34176,
          "time": 133.5,
          "velocity": 0.8188976377952756
        },
        {
          "duration": 0.06640625,
          "durationTicks": 17,
          "midi": 68,
          "name": "G#4",
          "ticks": 34248,
          "time": 133.78125,
          "velocity": 0.8188976377952756
        },
        {
          "duration": 0.19140625,
          "durationTicks": 49,
          "midi": 68,
          "name": "G#4",
          "ticks": 34272,
          "time": 133.875,
          "velocity": 0.8188976377952756
        },
        {
          "duration": 0.06640625,
          "durationTicks": 17,
          "midi": 70,
          "name": "A#4",
          "ticks": 34344,
          "time": 134.15625,
          "velocity": 0.8188976377952756
        },
        {
          "duration": 0.28515625,
          "durationTicks": 73,
          "midi": 67,
          "name": "G4",
          "ticks": 34368,
          "time": 134.25,
          "velocity": 0.8188976377952756
        },
        {
          "duration": 0.28125,
          "durationTicks": 72,
          "midi": 67,
          "name": "G4",
          "ticks": 34560,
          "time": 135,
          "velocity": 0.8188976377952756
        },
        {
          "duration": 0.28125,
          "durationTicks": 72,
          "midi": 68,
          "name": "G#4",
          "ticks": 34656,
          "time": 135.375,
          "velocity": 0.8188976377952756
        },
        {
          "duration": 0.1875,
          "durationTicks": 48,
          "midi": 67,
          "name": "G4",
          "ticks": 34752,
          "time": 135.75,
          "velocity": 0.8188976377952756
        },
        {
          "duration": 0.09375,
          "durationTicks": 24,
          "midi": 68,
          "name": "G#4",
          "ticks": 34824,
          "time": 136.03125,
          "velocity": 0.8188976377952756
        },
        {
          "duration": 0.1875,
          "durationTicks": 48,
          "midi": 72,
          "name": "C5",
          "ticks": 34848,
          "time": 136.125,
          "velocity": 0.8188976377952756
        },
        {
          "duration": 0.1875,
          "durationTicks": 48,
          "midi": 70,
          "name": "A#4",
          "ticks": 34944,
          "time": 136.5,
          "velocity": 0.8188976377952756
        },
        {
          "duration": 0.09375,
          "durationTicks": 24,
          "midi": 68,
          "name": "G#4",
          "ticks": 35016,
          "time": 136.78125,
          "velocity": 0.8188976377952756
        },
        {
          "duration": 0.1875,
          "durationTicks": 48,
          "midi": 67,
          "name": "G4",
          "ticks": 35040,
          "time": 136.875,
          "velocity": 0.8188976377952756
        },
        {
          "duration": 0.1875,
          "durationTicks": 48,
          "midi": 65,
          "name": "F4",
          "ticks": 35136,
          "time": 137.25,
          "velocity": 0.8188976377952756
        },
        {
          "duration": 0.09375,
          "durationTicks": 24,
          "midi": 67,
          "name": "G4",
          "ticks": 35208,
          "time": 137.53125,
          "velocity": 0.8188976377952756
        },
        {
          "duration": 0.1875,
          "durationTicks": 48,
          "midi": 72,
          "name": "C5",
          "ticks": 35232,
          "time": 137.625,
          "velocity": 0.8188976377952756
        },
        {
          "duration": 0.1875,
          "durationTicks": 48,
          "midi": 70,
          "name": "A#4",
          "ticks": 35328,
          "time": 138,
          "velocity": 0.8188976377952756
        },
        {
          "duration": 0.09375,
          "durationTicks": 24,
          "midi": 68,
          "name": "G#4",
          "ticks": 35400,
          "time": 138.28125,
          "velocity": 0.8188976377952756
        },
        {
          "duration": 0.1875,
          "durationTicks": 48,
          "midi": 67,
          "name": "G4",
          "ticks": 35424,
          "time": 138.375,
          "velocity": 0.8188976377952756
        },
        {
          "duration": 0.046875,
          "durationTicks": 12,
          "midi": 67,
          "name": "G4",
          "ticks": 35496,
          "time": 138.65625,
          "velocity": 0.8188976377952756
        },
        {
          "duration": 0.1875,
          "durationTicks": 48,
          "midi": 67,
          "name": "G4",
          "ticks": 35520,
          "time": 138.75,
          "velocity": 0.8188976377952756
        },
        {
          "duration": 0.09375,
          "durationTicks": 24,
          "midi": 67,
          "name": "G4",
          "ticks": 35592,
          "time": 139.03125,
          "velocity": 0.8188976377952756
        },
        {
          "duration": 0.234375,
          "durationTicks": 60,
          "midi": 70,
          "name": "A#4",
          "ticks": 35616,
          "time": 139.125,
          "velocity": 0.8188976377952756
        },
        {
          "duration": 0.234375,
          "durationTicks": 60,
          "midi": 67,
          "name": "G4",
          "ticks": 35712,
          "time": 139.5,
          "velocity": 0.8188976377952756
        },
        {
          "duration": 0.046875,
          "durationTicks": 12,
          "midi": 70,
          "name": "A#4",
          "ticks": 35784,
          "time": 139.78125,
          "velocity": 0.8188976377952756
        },
        {
          "duration": 0.28125,
          "durationTicks": 72,
          "midi": 70,
          "name": "A#4",
          "ticks": 35808,
          "time": 139.875,
          "velocity": 0.8188976377952756
        },
        {
          "duration": 0.28125,
          "durationTicks": 72,
          "midi": 72,
          "name": "C5",
          "ticks": 35904,
          "time": 140.25,
          "velocity": 0.8188976377952756
        },
        {
          "duration": 0.28125,
          "durationTicks": 72,
          "midi": 74,
          "name": "D5",
          "ticks": 36000,
          "time": 140.625,
          "velocity": 0.8188976377952756
        },
        {
          "duration": 0.28125,
          "durationTicks": 72,
          "midi": 70,
          "name": "A#4",
          "ticks": 36096,
          "time": 141,
          "velocity": 0.8188976377952756
        },
        {
          "duration": 0.046875,
          "durationTicks": 12,
          "midi": 74,
          "name": "D5",
          "ticks": 36168,
          "time": 141.28125,
          "velocity": 0.8188976377952756
        },
        {
          "duration": 0.234375,
          "durationTicks": 60,
          "midi": 74,
          "name": "D5",
          "ticks": 36192,
          "time": 141.375,
          "velocity": 0.8188976377952756
        },
        {
          "duration": 0.046875,
          "durationTicks": 12,
          "midi": 74,
          "name": "D5",
          "ticks": 36264,
          "time": 141.65625,
          "velocity": 0.8188976377952756
        },
        {
          "duration": 3.9375,
          "durationTicks": 1008,
          "midi": 72,
          "name": "C5",
          "ticks": 36288,
          "time": 141.75,
          "velocity": 0.8188976377952756
        }
      ],
      "endOfTrackTicks": 37730
    },
    {
      "channel": 6,
      "controlChanges": {
        "6": [
          {
            "number": 6,
            "ticks": 0,
            "time": 0,
            "value": 0.09448818897637795
          },
          {
            "number": 6,
            "ticks": 0,
            "time": 0,
            "value": 0.09448818897637795
          },
          {
            "number": 6,
            "ticks": 0,
            "time": 0,
            "value": 0.09448818897637795
          },
          {
            "number": 6,
            "ticks": 37728,
            "time": 147.375,
            "value": 0.09448818897637795
          },
          {
            "number": 6,
            "ticks": 37730,
            "time": 147.3828125,
            "value": 0.09448818897637795
          }
        ],
        "7": [
          {
            "number": 7,
            "ticks": 0,
            "time": 0,
            "value": 0.7874015748031497
          },
          {
            "number": 7,
            "ticks": 0,
            "time": 0,
            "value": 0.7874015748031497
          },
          {
            "number": 7,
            "ticks": 0,
            "time": 0,
            "value": 0.7874015748031497
          },
          {
            "number": 7,
            "ticks": 0,
            "time": 0,
            "value": 0.7874015748031497
          },
          {
            "number": 7,
            "ticks": 37728,
            "time": 147.375,
            "value": 0.7874015748031497
          },
          {
            "number": 7,
            "ticks": 37730,
            "time": 147.3828125,
            "value": 0.7874015748031497
          }
        ],
        "10": [
          {
            "number": 10,
            "ticks": 0,
            "time": 0,
            "value": 0.5039370078740157
          },
          {
            "number": 10,
            "ticks": 0,
            "time": 0,
            "value": 0.5039370078740157
          },
          {
            "number": 10,
            "ticks": 0,
            "time": 0,
            "value": 0.5039370078740157
          },
          {
            "number": 10,
            "ticks": 0,
            "time": 0,
            "value": 0.5039370078740157
          },
          {
            "number": 10,
            "ticks": 37728,
            "time": 147.375,
            "value": 0.5039370078740157
          },
          {
            "number": 10,
            "ticks": 37730,
            "time": 147.3828125,
            "value": 0.5039370078740157
          }
        ],
        "100": [
          {
            "number": 100,
            "ticks": 0,
            "time": 0,
            "value": 0
          },
          {
            "number": 100,
            "ticks": 0,
            "time": 0,
            "value": 0
          },
          {
            "number": 100,
            "ticks": 0,
            "time": 0,
            "value": 0
          },
          {
            "number": 100,
            "ticks": 37728,
            "time": 147.375,
            "value": 0
          },
          {
            "number": 100,
            "ticks": 37730,
            "time": 147.3828125,
            "value": 0
          }
        ],
        "101": [
          {
            "number": 101,
            "ticks": 0,
            "time": 0,
            "value": 0
          },
          {
            "number": 101,
            "ticks": 0,
            "time": 0,
            "value": 0
          },
          {
            "number": 101,
            "ticks": 0,
            "time": 0,
            "value": 0
          },
          {
            "number": 101,
            "ticks": 37728,
            "time": 147.375,
            "value": 0
          },
          {
            "number": 101,
            "ticks": 37730,
            "time": 147.3828125,
            "value": 0
          }
        ]
      },
      "pitchBends": [
        {
          "ticks": 0,
          "time": 0,
          "value": 0
        },
        {
          "ticks": 0,
          "time": 0,
          "value": 0
        },
        {
          "ticks": 0,
          "time": 0,
          "value": 0
        },
        {
          "ticks": 0,
          "time": 0,
          "value": 0
        },
        {
          "ticks": 37728,
          "time": 147.375,
          "value": 0
        },
        {
          "ticks": 37730,
          "time": 147.3828125,
          "value": 0
        }
      ],
      "instrument": {
        "family": "piano",
        "number": 0,
        "name": "acoustic grand piano"
      },
      "name": "Vocal #2",
      "notes": [
        {
          "duration": 0.28125,
          "durationTicks": 72,
          "midi": 63,
          "name": "D#4",
          "ticks": 3456,
          "time": 13.5,
          "velocity": 0.6614173228346457
        },
        {
          "duration": 0.28125,
          "durationTicks": 72,
          "midi": 63,
          "name": "D#4",
          "ticks": 3552,
          "time": 13.875,
          "velocity": 0.6614173228346457
        },
        {
          "duration": 0.28125,
          "durationTicks": 72,
          "midi": 65,
          "name": "F4",
          "ticks": 3648,
          "time": 14.25,
          "velocity": 0.6614173228346457
        },
        {
          "duration": 0.21875,
          "durationTicks": 56,
          "midi": 62,
          "name": "D4",
          "ticks": 3744,
          "time": 14.625,
          "velocity": 0.6614173228346457
        },
        {
          "duration": 0.09375,
          "durationTicks": 24,
          "midi": 65,
          "name": "F4",
          "ticks": 3816,
          "time": 14.90625,
          "velocity": 0.6614173228346457
        },
        {
          "duration": 0.234375,
          "durationTicks": 60,
          "midi": 67,
          "name": "G4",
          "ticks": 3840,
          "time": 15,
          "velocity": 0.6614173228346457
        },
        {
          "duration": 0.234375,
          "durationTicks": 60,
          "midi": 67,
          "name": "G4",
          "ticks": 3936,
          "time": 15.375,
          "velocity": 0.6614173228346457
        },
        {
          "duration": 0.1875,
          "durationTicks": 48,
          "midi": 65,
          "name": "F4",
          "ticks": 4080,
          "time": 15.9375,
          "velocity": 0.6614173228346457
        },
        {
          "duration": 0.1875,
          "durationTicks": 48,
          "midi": 68,
          "name": "G#4",
          "ticks": 4128,
          "time": 16.125,
          "velocity": 0.6614173228346457
        },
        {
          "duration": 0.1875,
          "durationTicks": 48,
          "midi": 70,
          "name": "A#4",
          "ticks": 4176,
          "time": 16.3125,
          "velocity": 0.6614173228346457
        },
        {
          "duration": 0.234375,
          "durationTicks": 60,
          "midi": 72,
          "name": "C5",
          "ticks": 4224,
          "time": 16.5,
          "velocity": 0.6614173228346457
        },
        {
          "duration": 0.234375,
          "durationTicks": 60,
          "midi": 72,
          "name": "C5",
          "ticks": 4320,
          "time": 16.875,
          "velocity": 0.6614173228346457
        },
        {
          "duration": 0.171875,
          "durationTicks": 44,
          "midi": 74,
          "name": "D5",
          "ticks": 4416,
          "time": 17.25,
          "velocity": 0.6614173228346457
        },
        {
          "duration": 0.171875,
          "durationTicks": 44,
          "midi": 74,
          "name": "D5",
          "ticks": 4464,
          "time": 17.4375,
          "velocity": 0.6614173228346457
        },
        {
          "duration": 0.171875,
          "durationTicks": 44,
          "midi": 74,
          "name": "D5",
          "ticks": 4512,
          "time": 17.625,
          "velocity": 0.6614173228346457
        },
        {
          "duration": 0.203125,
          "durationTicks": 52,
          "midi": 74,
          "name": "D5",
          "ticks": 4608,
          "time": 18,
          "velocity": 0.6614173228346457
        },
        {
          "duration": 0.046875,
          "durationTicks": 12,
          "midi": 75,
          "name": "D#5",
          "ticks": 4680,
          "time": 18.28125,
          "velocity": 0.6614173228346457
        },
        {
          "duration": 0.265625,
          "durationTicks": 68,
          "midi": 75,
          "name": "D#5",
          "ticks": 4704,
          "time": 18.375,
          "velocity": 0.6614173228346457
        },
        {
          "duration": 0.234375,
          "durationTicks": 60,
          "midi": 75,
          "name": "D#5",
          "ticks": 4896,
          "time": 19.125,
          "velocity": 0.6614173228346457
        },
        {
          "duration": 0.234375,
          "durationTicks": 60,
          "midi": 72,
          "name": "C5",
          "ticks": 4992,
          "time": 19.5,
          "velocity": 0.6614173228346457
        },
        {
          "duration": 0.234375,
          "durationTicks": 60,
          "midi": 72,
          "name": "C5",
          "ticks": 5088,
          "time": 19.875,
          "velocity": 0.6614173228346457
        },
        {
          "duration": 0.171875,
          "durationTicks": 44,
          "midi": 72,
          "name": "C5",
          "ticks": 5184,
          "time": 20.25,
          "velocity": 0.6614173228346457
        },
        {
          "duration": 0.171875,
          "durationTicks": 44,
          "midi": 74,
          "name": "D5",
          "ticks": 5232,
          "time": 20.4375,
          "velocity": 0.6614173228346457
        },
        {
          "duration": 0.171875,
          "durationTicks": 44,
          "midi": 70,
          "name": "A#4",
          "ticks": 5280,
          "time": 20.625,
          "velocity": 0.6614173228346457
        },
        {
          "duration": 0.078125,
          "durationTicks": 20,
          "midi": 70,
          "name": "A#4",
          "ticks": 5352,
          "time": 20.90625,
          "velocity": 0.6614173228346457
        },
        {
          "duration": 0.203125,
          "durationTicks": 52,
          "midi": 72,
          "name": "C5",
          "ticks": 5376,
          "time": 21,
          "velocity": 0.6614173228346457
        },
        {
          "duration": 0.046875,
          "durationTicks": 12,
          "midi": 70,
          "name": "A#4",
          "ticks": 5448,
          "time": 21.28125,
          "velocity": 0.6614173228346457
        },
        {
          "duration": 0.328125,
          "durationTicks": 84,
          "midi": 70,
          "name": "A#4",
          "ticks": 5472,
          "time": 21.375,
          "velocity": 0.6614173228346457
        },
        {
          "duration": 0.328125,
          "durationTicks": 84,
          "midi": 70,
          "name": "A#4",
          "ticks": 5664,
          "time": 22.125,
          "velocity": 0.6614173228346457
        },
        {
          "duration": 0.328125,
          "durationTicks": 84,
          "midi": 69,
          "name": "A4",
          "ticks": 5760,
          "time": 22.5,
          "velocity": 0.6614173228346457
        },
        {
          "duration": 0.328125,
          "durationTicks": 84,
          "midi": 69,
          "name": "A4",
          "ticks": 5856,
          "time": 22.875,
          "velocity": 0.6614173228346457
        },
        {
          "duration": 0.328125,
          "durationTicks": 84,
          "midi": 72,
          "name": "C5",
          "ticks": 5952,
          "time": 23.25,
          "velocity": 0.6614173228346457
        },
        {
          "duration": 0.328125,
          "durationTicks": 84,
          "midi": 72,
          "name": "C5",
          "ticks": 6048,
          "time": 23.625,
          "velocity": 0.6614173228346457
        },
        {
          "duration": 0.28125,
          "durationTicks": 72,
          "midi": 63,
          "name": "D#4",
          "ticks": 6528,
          "time": 25.5,
          "velocity": 0.6614173228346457
        },
        {
          "duration": 0.28125,
          "durationTicks": 72,
          "midi": 63,
          "name": "D#4",
          "ticks": 6624,
          "time": 25.875,
          "velocity": 0.6614173228346457
        },
        {
          "duration": 0.28125,
          "durationTicks": 72,
          "midi": 65,
          "name": "F4",
          "ticks": 6720,
          "time": 26.25,
          "velocity": 0.6614173228346457
        },
        {
          "duration": 0.09375,
          "durationTicks": 24,
          "midi": 59,
          "name": "B3",
          "ticks": 6816,
          "time": 26.625,
          "velocity": 0.6614173228346457
        },
        {
          "duration": 0.09375,
          "durationTicks": 24,
          "midi": 62,
          "name": "D4",
          "ticks": 6848,
          "time": 26.75,
          "velocity": 0.6614173228346457
        },
        {
          "duration": 0.09375,
          "durationTicks": 24,
          "midi": 65,
          "name": "F4",
          "ticks": 6880,
          "time": 26.875,
          "velocity": 0.6614173228346457
        },
        {
          "duration": 0.234375,
          "durationTicks": 60,
          "midi": 67,
          "name": "G4",
          "ticks": 6912,
          "time": 27,
          "velocity": 0.6614173228346457
        },
        {
          "duration": 0.234375,
          "durationTicks": 60,
          "midi": 67,
          "name": "G4",
          "ticks": 7008,
          "time": 27.375,
          "velocity": 0.6614173228346457
        },
        {
          "duration": 0.171875,
          "durationTicks": 44,
          "midi": 65,
          "name": "F4",
          "ticks": 7152,
          "time": 27.9375,
          "velocity": 0.6614173228346457
        },
        {
          "duration": 0.171875,
          "durationTicks": 44,
          "midi": 68,
          "name": "G#4",
          "ticks": 7200,
          "time": 28.125,
          "velocity": 0.6614173228346457
        },
        {
          "duration": 0.171875,
          "durationTicks": 44,
          "midi": 70,
          "name": "A#4",
          "ticks": 7248,
          "time": 28.3125,
          "velocity": 0.6614173228346457
        },
        {
          "duration": 0.171875,
          "durationTicks": 44,
          "midi": 68,
          "name": "G#4",
          "ticks": 7296,
          "time": 28.5,
          "velocity": 0.6614173228346457
        },
        {
          "duration": 0.171875,
          "durationTicks": 44,
          "midi": 68,
          "name": "G#4",
          "ticks": 7392,
          "time": 28.875,
          "velocity": 0.6614173228346457
        },
        {
          "duration": 0.171875,
          "durationTicks": 44,
          "midi": 68,
          "name": "G#4",
          "ticks": 7488,
          "time": 29.25,
          "velocity": 0.6614173228346457
        },
        {
          "duration": 0.171875,
          "durationTicks": 44,
          "midi": 70,
          "name": "A#4",
          "ticks": 7536,
          "time": 29.4375,
          "velocity": 0.6614173228346457
        },
        {
          "duration": 0.171875,
          "durationTicks": 44,
          "midi": 74,
          "name": "D5",
          "ticks": 7584,
          "time": 29.625,
          "velocity": 0.6614173228346457
        },
        {
          "duration": 0.0625,
          "durationTicks": 16,
          "midi": 77,
          "name": "F5",
          "ticks": 7656,
          "time": 29.90625,
          "velocity": 0.6614173228346457
        },
        {
          "duration": 0.1875,
          "durationTicks": 48,
          "midi": 77,
          "name": "F5",
          "ticks": 7680,
          "time": 30,
          "velocity": 0.6614173228346457
        },
        {
          "duration": 0.0625,
          "durationTicks": 16,
          "midi": 75,
          "name": "D#5",
          "ticks": 7752,
          "time": 30.28125,
          "velocity": 0.6614173228346457
        },
        {
          "duration": 0.28125,
          "durationTicks": 72,
          "midi": 75,
          "name": "D#5",
          "ticks": 7776,
          "time": 30.375,
          "velocity": 0.6614173228346457
        },
        {
          "duration": 0.328125,
          "durationTicks": 84,
          "midi": 75,
          "name": "D#5",
          "ticks": 7968,
          "time": 31.125,
          "velocity": 0.6614173228346457
        },
        {
          "duration": 0.328125,
          "durationTicks": 84,
          "midi": 75,
          "name": "D#5",
          "ticks": 8064,
          "time": 31.5,
          "velocity": 0.6614173228346457
        },
        {
          "duration": 0.203125,
          "durationTicks": 52,
          "midi": 75,
          "name": "D#5",
          "ticks": 8160,
          "time": 31.875,
          "velocity": 0.6614173228346457
        },
        {
          "duration": 0.046875,
          "durationTicks": 12,
          "midi": 75,
          "name": "D#5",
          "ticks": 8232,
          "time": 32.15625,
          "velocity": 0.6614173228346457
        },
        {
          "duration": 0.171875,
          "durationTicks": 44,
          "midi": 75,
          "name": "D#5",
          "ticks": 8256,
          "time": 32.25,
          "velocity": 0.6614173228346457
        },
        {
          "duration": 0.171875,
          "durationTicks": 44,
          "midi": 74,
          "name": "D5",
          "ticks": 8352,
          "time": 32.625,
          "velocity": 0.6614173228346457
        },
        {
          "duration": 0.078125,
          "durationTicks": 20,
          "midi": 74,
          "name": "D5",
          "ticks": 8424,
          "time": 32.90625,
          "velocity": 0.6614173228346457
        },
        {
          "duration": 0.171875,
          "durationTicks": 44,
          "midi": 74,
          "name": "D5",
          "ticks": 8448,
          "time": 33,
          "velocity": 0.6614173228346457
        },
        {
          "duration": 0.203125,
          "durationTicks": 52,
          "midi": 74,
          "name": "D5",
          "ticks": 8544,
          "time": 33.375,
          "velocity": 0.6614173228346457
        },
        {
          "duration": 0.078125,
          "durationTicks": 20,
          "midi": 74,
          "name": "D5",
          "ticks": 8616,
          "time": 33.65625,
          "velocity": 0.6614173228346457
        },
        {
          "duration": 0.171875,
          "durationTicks": 44,
          "midi": 75,
          "name": "D#5",
          "ticks": 8640,
          "time": 33.75,
          "velocity": 0.6614173228346457
        },
        {
          "duration": 0.171875,
          "durationTicks": 44,
          "midi": 74,
          "name": "D5",
          "ticks": 8736,
          "time": 34.125,
          "velocity": 0.6614173228346457
        },
        {
          "duration": 0.078125,
          "durationTicks": 20,
          "midi": 72,
          "name": "C5",
          "ticks": 8808,
          "time": 34.40625,
          "velocity": 0.6614173228346457
        },
        {
          "duration": 0.2734375,
          "durationTicks": 70,
          "midi": 70,
          "name": "A#4",
          "ticks": 8832,
          "time": 34.5,
          "velocity": 0.6614173228346457
        },
        {
          "duration": 0.2421875,
          "durationTicks": 62,
          "midi": 70,
          "name": "A#4",
          "ticks": 8928,
          "time": 34.875,
          "velocity": 0.6614173228346457
        },
        {
          "duration": 0.265625,
          "durationTicks": 68,
          "midi": 74,
          "name": "D5",
          "ticks": 9024,
          "time": 35.25,
          "velocity": 0.6614173228346457
        },
        {
          "duration": 0.265625,
          "durationTicks": 68,
          "midi": 74,
          "name": "D5",
          "ticks": 9120,
          "time": 35.625,
          "velocity": 0.6614173228346457
        },
        {
          "duration": 0.265625,
          "durationTicks": 68,
          "midi": 68,
          "name": "G#4",
          "ticks": 9216,
          "time": 36,
          "velocity": 0.6614173228346457
        },
        {
          "duration": 0.078125,
          "durationTicks": 20,
          "midi": 67,
          "name": "G4",
          "ticks": 9288,
          "time": 36.28125,
          "velocity": 0.6614173228346457
        },
        {
          "duration": 0.359375,
          "durationTicks": 92,
          "midi": 67,
          "name": "G4",
          "ticks": 9312,
          "time": 36.375,
          "velocity": 0.6614173228346457
        },
        {
          "duration": 0.28125,
          "durationTicks": 72,
          "midi": 63,
          "name": "D#4",
          "ticks": 30048,
          "time": 117.375,
          "velocity": 0.6614173228346457
        },
        {
          "duration": 0.28125,
          "durationTicks": 72,
          "midi": 63,
          "name": "D#4",
          "ticks": 30144,
          "time": 117.75,
          "velocity": 0.6614173228346457
        },
        {
          "duration": 0.28125,
          "durationTicks": 72,
          "midi": 65,
          "name": "F4",
          "ticks": 30240,
          "time": 118.125,
          "velocity": 0.6614173228346457
        },
        {
          "duration": 0.21875,
          "durationTicks": 56,
          "midi": 62,
          "name": "D4",
          "ticks": 30336,
          "time": 118.5,
          "velocity": 0.6614173228346457
        },
        {
          "duration": 0.09375,
          "durationTicks": 24,
          "midi": 65,
          "name": "F4",
          "ticks": 30408,
          "time": 118.78125,
          "velocity": 0.6614173228346457
        },
        {
          "duration": 0.234375,
          "durationTicks": 60,
          "midi": 67,
          "name": "G4",
          "ticks": 30432,
          "time": 118.875,
          "velocity": 0.6614173228346457
        },
        {
          "duration": 0.234375,
          "durationTicks": 60,
          "midi": 67,
          "name": "G4",
          "ticks": 30528,
          "time": 119.25,
          "velocity": 0.6614173228346457
        },
        {
          "duration": 0.1875,
          "durationTicks": 48,
          "midi": 65,
          "name": "F4",
          "ticks": 30672,
          "time": 119.8125,
          "velocity": 0.6614173228346457
        },
        {
          "duration": 0.1875,
          "durationTicks": 48,
          "midi": 68,
          "name": "G#4",
          "ticks": 30720,
          "time": 120,
          "velocity": 0.6614173228346457
        },
        {
          "duration": 0.1875,
          "durationTicks": 48,
          "midi": 70,
          "name": "A#4",
          "ticks": 30768,
          "time": 120.1875,
          "velocity": 0.6614173228346457
        },
        {
          "duration": 0.234375,
          "durationTicks": 60,
          "midi": 72,
          "name": "C5",
          "ticks": 30816,
          "time": 120.375,
          "velocity": 0.6614173228346457
        },
        {
          "duration": 0.234375,
          "durationTicks": 60,
          "midi": 72,
          "name": "C5",
          "ticks": 30912,
          "time": 120.75,
          "velocity": 0.6614173228346457
        },
        {
          "duration": 0.171875,
          "durationTicks": 44,
          "midi": 74,
          "name": "D5",
          "ticks": 31008,
          "time": 121.125,
          "velocity": 0.6614173228346457
        },
        {
          "duration": 0.171875,
          "durationTicks": 44,
          "midi": 74,
          "name": "D5",
          "ticks": 31056,
          "time": 121.3125,
          "velocity": 0.6614173228346457
        },
        {
          "duration": 0.171875,
          "durationTicks": 44,
          "midi": 74,
          "name": "D5",
          "ticks": 31104,
          "time": 121.5,
          "velocity": 0.6614173228346457
        },
        {
          "duration": 0.203125,
          "durationTicks": 52,
          "midi": 74,
          "name": "D5",
          "ticks": 31200,
          "time": 121.875,
          "velocity": 0.6614173228346457
        },
        {
          "duration": 0.046875,
          "durationTicks": 12,
          "midi": 75,
          "name": "D#5",
          "ticks": 31272,
          "time": 122.15625,
          "velocity": 0.6614173228346457
        },
        {
          "duration": 0.265625,
          "durationTicks": 68,
          "midi": 75,
          "name": "D#5",
          "ticks": 31296,
          "time": 122.25,
          "velocity": 0.6614173228346457
        },
        {
          "duration": 0.234375,
          "durationTicks": 60,
          "midi": 75,
          "name": "D#5",
          "ticks": 31488,
          "time": 123,
          "velocity": 0.6614173228346457
        },
        {
          "duration": 0.234375,
          "durationTicks": 60,
          "midi": 72,
          "name": "C5",
          "ticks": 31584,
          "time": 123.375,
          "velocity": 0.6614173228346457
        },
        {
          "duration": 0.234375,
          "durationTicks": 60,
          "midi": 72,
          "name": "C5",
          "ticks": 31680,
          "time": 123.75,
          "velocity": 0.6614173228346457
        },
        {
          "duration": 0.171875,
          "durationTicks": 44,
          "midi": 72,
          "name": "C5",
          "ticks": 31776,
          "time": 124.125,
          "velocity": 0.6614173228346457
        },
        {
          "duration": 0.171875,
          "durationTicks": 44,
          "midi": 74,
          "name": "D5",
          "ticks": 31824,
          "time": 124.3125,
          "velocity": 0.6614173228346457
        },
        {
          "duration": 0.171875,
          "durationTicks": 44,
          "midi": 70,
          "name": "A#4",
          "ticks": 31872,
          "time": 124.5,
          "velocity": 0.6614173228346457
        },
        {
          "duration": 0.078125,
          "durationTicks": 20,
          "midi": 70,
          "name": "A#4",
          "ticks": 31944,
          "time": 124.78125,
          "velocity": 0.6614173228346457
        },
        {
          "duration": 0.203125,
          "durationTicks": 52,
          "midi": 72,
          "name": "C5",
          "ticks": 31968,
          "time": 124.875,
          "velocity": 0.6614173228346457
        },
        {
          "duration": 0.046875,
          "durationTicks": 12,
          "midi": 70,
          "name": "A#4",
          "ticks": 32040,
          "time": 125.15625,
          "velocity": 0.6614173228346457
        },
        {
          "duration": 0.328125,
          "durationTicks": 84,
          "midi": 70,
          "name": "A#4",
          "ticks": 32064,
          "time": 125.25,
          "velocity": 0.6614173228346457
        },
        {
          "duration": 0.328125,
          "durationTicks": 84,
          "midi": 70,
          "name": "A#4",
          "ticks": 32256,
          "time": 126,
          "velocity": 0.6614173228346457
        },
        {
          "duration": 0.328125,
          "durationTicks": 84,
          "midi": 69,
          "name": "A4",
          "ticks": 32352,
          "time": 126.375,
          "velocity": 0.6614173228346457
        },
        {
          "duration": 0.328125,
          "durationTicks": 84,
          "midi": 69,
          "name": "A4",
          "ticks": 32448,
          "time": 126.75,
          "velocity": 0.6614173228346457
        },
        {
          "duration": 0.328125,
          "durationTicks": 84,
          "midi": 72,
          "name": "C5",
          "ticks": 32544,
          "time": 127.125,
          "velocity": 0.6614173228346457
        },
        {
          "duration": 0.328125,
          "durationTicks": 84,
          "midi": 72,
          "name": "C5",
          "ticks": 32640,
          "time": 127.5,
          "velocity": 0.6614173228346457
        },
        {
          "duration": 0.28125,
          "durationTicks": 72,
          "midi": 63,
          "name": "D#4",
          "ticks": 33120,
          "time": 129.375,
          "velocity": 0.6614173228346457
        },
        {
          "duration": 0.28125,
          "durationTicks": 72,
          "midi": 63,
          "name": "D#4",
          "ticks": 33216,
          "time": 129.75,
          "velocity": 0.6614173228346457
        },
        {
          "duration": 0.28125,
          "durationTicks": 72,
          "midi": 65,
          "name": "F4",
          "ticks": 33312,
          "time": 130.125,
          "velocity": 0.6614173228346457
        },
        {
          "duration": 0.09375,
          "durationTicks": 24,
          "midi": 59,
          "name": "B3",
          "ticks": 33408,
          "time": 130.5,
          "velocity": 0.6614173228346457
        },
        {
          "duration": 0.09375,
          "durationTicks": 24,
          "midi": 62,
          "name": "D4",
          "ticks": 33440,
          "time": 130.625,
          "velocity": 0.6614173228346457
        },
        {
          "duration": 0.09375,
          "durationTicks": 24,
          "midi": 65,
          "name": "F4",
          "ticks": 33472,
          "time": 130.75,
          "velocity": 0.6614173228346457
        },
        {
          "duration": 0.234375,
          "durationTicks": 60,
          "midi": 67,
          "name": "G4",
          "ticks": 33504,
          "time": 130.875,
          "velocity": 0.6614173228346457
        },
        {
          "duration": 0.234375,
          "durationTicks": 60,
          "midi": 67,
          "name": "G4",
          "ticks": 33600,
          "time": 131.25,
          "velocity": 0.6614173228346457
        },
        {
          "duration": 0.171875,
          "durationTicks": 44,
          "midi": 65,
          "name": "F4",
          "ticks": 33744,
          "time": 131.8125,
          "velocity": 0.6614173228346457
        },
        {
          "duration": 0.171875,
          "durationTicks": 44,
          "midi": 68,
          "name": "G#4",
          "ticks": 33792,
          "time": 132,
          "velocity": 0.6614173228346457
        },
        {
          "duration": 0.171875,
          "durationTicks": 44,
          "midi": 70,
          "name": "A#4",
          "ticks": 33840,
          "time": 132.1875,
          "velocity": 0.6614173228346457
        },
        {
          "duration": 0.171875,
          "durationTicks": 44,
          "midi": 68,
          "name": "G#4",
          "ticks": 33888,
          "time": 132.375,
          "velocity": 0.6614173228346457
        },
        {
          "duration": 0.171875,
          "durationTicks": 44,
          "midi": 68,
          "name": "G#4",
          "ticks": 33984,
          "time": 132.75,
          "velocity": 0.6614173228346457
        },
        {
          "duration": 0.171875,
          "durationTicks": 44,
          "midi": 68,
          "name": "G#4",
          "ticks": 34080,
          "time": 133.125,
          "velocity": 0.6614173228346457
        },
        {
          "duration": 0.171875,
          "durationTicks": 44,
          "midi": 70,
          "name": "A#4",
          "ticks": 34128,
          "time": 133.3125,
          "velocity": 0.6614173228346457
        },
        {
          "duration": 0.171875,
          "durationTicks": 44,
          "midi": 74,
          "name": "D5",
          "ticks": 34176,
          "time": 133.5,
          "velocity": 0.6614173228346457
        },
        {
          "duration": 0.0625,
          "durationTicks": 16,
          "midi": 77,
          "name": "F5",
          "ticks": 34248,
          "time": 133.78125,
          "velocity": 0.6614173228346457
        },
        {
          "duration": 0.1875,
          "durationTicks": 48,
          "midi": 77,
          "name": "F5",
          "ticks": 34272,
          "time": 133.875,
          "velocity": 0.6614173228346457
        },
        {
          "duration": 0.0625,
          "durationTicks": 16,
          "midi": 75,
          "name": "D#5",
          "ticks": 34344,
          "time": 134.15625,
          "velocity": 0.6614173228346457
        },
        {
          "duration": 0.28125,
          "durationTicks": 72,
          "midi": 75,
          "name": "D#5",
          "ticks": 34368,
          "time": 134.25,
          "velocity": 0.6614173228346457
        },
        {
          "duration": 0.328125,
          "durationTicks": 84,
          "midi": 75,
          "name": "D#5",
          "ticks": 34560,
          "time": 135,
          "velocity": 0.6614173228346457
        },
        {
          "duration": 0.328125,
          "durationTicks": 84,
          "midi": 75,
          "name": "D#5",
          "ticks": 34656,
          "time": 135.375,
          "velocity": 0.6614173228346457
        },
        {
          "duration": 0.203125,
          "durationTicks": 52,
          "midi": 75,
          "name": "D#5",
          "ticks": 34752,
          "time": 135.75,
          "velocity": 0.6614173228346457
        },
        {
          "duration": 0.046875,
          "durationTicks": 12,
          "midi": 75,
          "name": "D#5",
          "ticks": 34824,
          "time": 136.03125,
          "velocity": 0.6614173228346457
        },
        {
          "duration": 0.171875,
          "durationTicks": 44,
          "midi": 75,
          "name": "D#5",
          "ticks": 34848,
          "time": 136.125,
          "velocity": 0.6614173228346457
        },
        {
          "duration": 0.171875,
          "durationTicks": 44,
          "midi": 74,
          "name": "D5",
          "ticks": 34944,
          "time": 136.5,
          "velocity": 0.6614173228346457
        },
        {
          "duration": 0.078125,
          "durationTicks": 20,
          "midi": 74,
          "name": "D5",
          "ticks": 35016,
          "time": 136.78125,
          "velocity": 0.6614173228346457
        },
        {
          "duration": 0.171875,
          "durationTicks": 44,
          "midi": 74,
          "name": "D5",
          "ticks": 35040,
          "time": 136.875,
          "velocity": 0.6614173228346457
        },
        {
          "duration": 0.203125,
          "durationTicks": 52,
          "midi": 74,
          "name": "D5",
          "ticks": 35136,
          "time": 137.25,
          "velocity": 0.6614173228346457
        },
        {
          "duration": 0.078125,
          "durationTicks": 20,
          "midi": 74,
          "name": "D5",
          "ticks": 35208,
          "time": 137.53125,
          "velocity": 0.6614173228346457
        },
        {
          "duration": 0.171875,
          "durationTicks": 44,
          "midi": 75,
          "name": "D#5",
          "ticks": 35232,
          "time": 137.625,
          "velocity": 0.6614173228346457
        },
        {
          "duration": 0.171875,
          "durationTicks": 44,
          "midi": 74,
          "name": "D5",
          "ticks": 35328,
          "time": 138,
          "velocity": 0.6614173228346457
        },
        {
          "duration": 0.078125,
          "durationTicks": 20,
          "midi": 72,
          "name": "C5",
          "ticks": 35400,
          "time": 138.28125,
          "velocity": 0.6614173228346457
        },
        {
          "duration": 0.2734375,
          "durationTicks": 70,
          "midi": 72,
          "name": "C5",
          "ticks": 35424,
          "time": 138.375,
          "velocity": 0.5196850393700787
        },
        {
          "duration": 0.078125,
          "durationTicks": 20,
          "midi": 72,
          "name": "C5",
          "ticks": 35496,
          "time": 138.65625,
          "velocity": 0.5196850393700787
        },
        {
          "duration": 0.2421875,
          "durationTicks": 62,
          "midi": 72,
          "name": "C5",
          "ticks": 35520,
          "time": 138.75,
          "velocity": 0.5196850393700787
        },
        {
          "duration": 0.078125,
          "durationTicks": 20,
          "midi": 72,
          "name": "C5",
          "ticks": 35592,
          "time": 139.03125,
          "velocity": 0.5196850393700787
        },
        {
          "duration": 0.265625,
          "durationTicks": 68,
          "midi": 74,
          "name": "D5",
          "ticks": 35616,
          "time": 139.125,
          "velocity": 0.6614173228346457
        },
        {
          "duration": 0.265625,
          "durationTicks": 68,
          "midi": 70,
          "name": "A#4",
          "ticks": 35712,
          "time": 139.5,
          "velocity": 0.6614173228346457
        },
        {
          "duration": 0.078125,
          "durationTicks": 20,
          "midi": 74,
          "name": "D5",
          "ticks": 35784,
          "time": 139.78125,
          "velocity": 0.6614173228346457
        },
        {
          "duration": 0.265625,
          "durationTicks": 68,
          "midi": 74,
          "name": "D5",
          "ticks": 35808,
          "time": 139.875,
          "velocity": 0.6614173228346457
        },
        {
          "duration": 0.265625,
          "durationTicks": 68,
          "midi": 75,
          "name": "D#5",
          "ticks": 35904,
          "time": 140.25,
          "velocity": 0.6614173228346457
        },
        {
          "duration": 0.265625,
          "durationTicks": 68,
          "midi": 77,
          "name": "F5",
          "ticks": 36000,
          "time": 140.625,
          "velocity": 0.6614173228346457
        },
        {
          "duration": 0.078125,
          "durationTicks": 20,
          "midi": 77,
          "name": "F5",
          "ticks": 36072,
          "time": 140.90625,
          "velocity": 0.6614173228346457
        },
        {
          "duration": 0.265625,
          "durationTicks": 68,
          "midi": 77,
          "name": "F5",
          "ticks": 36096,
          "time": 141,
          "velocity": 0.6614173228346457
        },
        {
          "duration": 0.078125,
          "durationTicks": 20,
          "midi": 77,
          "name": "F5",
          "ticks": 36168,
          "time": 141.28125,
          "velocity": 0.6614173228346457
        },
        {
          "duration": 0.21875,
          "durationTicks": 56,
          "midi": 77,
          "name": "F5",
          "ticks": 36192,
          "time": 141.375,
          "velocity": 0.6614173228346457
        },
        {
          "duration": 0.03125,
          "durationTicks": 8,
          "midi": 79,
          "name": "G5",
          "ticks": 36264,
          "time": 141.65625,
          "velocity": 0.6614173228346457
        },
        {
          "duration": 3.921875,
          "durationTicks": 1004,
          "midi": 79,
          "name": "G5",
          "ticks": 36288,
          "time": 141.75,
          "velocity": 0.6614173228346457
        }
      ],
      "endOfTrackTicks": 37730
    },
    {
      "channel": 7,
      "controlChanges": {
        "6": [
          {
            "number": 6,
            "ticks": 0,
            "time": 0,
            "value": 0.09448818897637795
          },
          {
            "number": 6,
            "ticks": 0,
            "time": 0,
            "value": 0.09448818897637795
          },
          {
            "number": 6,
            "ticks": 0,
            "time": 0,
            "value": 0.09448818897637795
          },
          {
            "number": 6,
            "ticks": 37728,
            "time": 147.375,
            "value": 0.09448818897637795
          },
          {
            "number": 6,
            "ticks": 37730,
            "time": 147.3828125,
            "value": 0.09448818897637795
          }
        ],
        "7": [
          {
            "number": 7,
            "ticks": 0,
            "time": 0,
            "value": 0.7874015748031497
          },
          {
            "number": 7,
            "ticks": 0,
            "time": 0,
            "value": 0.7874015748031497
          },
          {
            "number": 7,
            "ticks": 0,
            "time": 0,
            "value": 0.7874015748031497
          },
          {
            "number": 7,
            "ticks": 0,
            "time": 0,
            "value": 0.7874015748031497
          },
          {
            "number": 7,
            "ticks": 37728,
            "time": 147.375,
            "value": 0.7874015748031497
          },
          {
            "number": 7,
            "ticks": 37730,
            "time": 147.3828125,
            "value": 0.7874015748031497
          }
        ],
        "10": [
          {
            "number": 10,
            "ticks": 0,
            "time": 0,
            "value": 0.5039370078740157
          },
          {
            "number": 10,
            "ticks": 0,
            "time": 0,
            "value": 0.5039370078740157
          },
          {
            "number": 10,
            "ticks": 0,
            "time": 0,
            "value": 0.5039370078740157
          },
          {
            "number": 10,
            "ticks": 0,
            "time": 0,
            "value": 0.5039370078740157
          },
          {
            "number": 10,
            "ticks": 37728,
            "time": 147.375,
            "value": 0.5039370078740157
          },
          {
            "number": 10,
            "ticks": 37730,
            "time": 147.3828125,
            "value": 0.5039370078740157
          }
        ],
        "100": [
          {
            "number": 100,
            "ticks": 0,
            "time": 0,
            "value": 0
          },
          {
            "number": 100,
            "ticks": 0,
            "time": 0,
            "value": 0
          },
          {
            "number": 100,
            "ticks": 0,
            "time": 0,
            "value": 0
          },
          {
            "number": 100,
            "ticks": 37728,
            "time": 147.375,
            "value": 0
          },
          {
            "number": 100,
            "ticks": 37730,
            "time": 147.3828125,
            "value": 0
          }
        ],
        "101": [
          {
            "number": 101,
            "ticks": 0,
            "time": 0,
            "value": 0
          },
          {
            "number": 101,
            "ticks": 0,
            "time": 0,
            "value": 0
          },
          {
            "number": 101,
            "ticks": 0,
            "time": 0,
            "value": 0
          },
          {
            "number": 101,
            "ticks": 37728,
            "time": 147.375,
            "value": 0
          },
          {
            "number": 101,
            "ticks": 37730,
            "time": 147.3828125,
            "value": 0
          }
        ]
      },
      "pitchBends": [
        {
          "ticks": 0,
          "time": 0,
          "value": 0
        },
        {
          "ticks": 0,
          "time": 0,
          "value": 0
        },
        {
          "ticks": 0,
          "time": 0,
          "value": 0
        },
        {
          "ticks": 0,
          "time": 0,
          "value": 0
        },
        {
          "ticks": 37728,
          "time": 147.375,
          "value": 0
        },
        {
          "ticks": 37730,
          "time": 147.3828125,
          "value": 0
        }
      ],
      "instrument": {
        "family": "piano",
        "number": 0,
        "name": "acoustic grand piano"
      },
      "name": "Vocal (Octave)",
      "notes": [
        {
          "duration": 0.375,
          "durationTicks": 96,
          "midi": 67,
          "name": "G4",
          "ticks": 3264,
          "time": 12.75,
          "velocity": 0.7007874015748031
        },
        {
          "duration": 0.375,
          "durationTicks": 96,
          "midi": 71,
          "name": "B4",
          "ticks": 3360,
          "time": 13.125,
          "velocity": 0.7007874015748031
        },
        {
          "duration": 0.375,
          "durationTicks": 96,
          "midi": 72,
          "name": "C5",
          "ticks": 3456,
          "time": 13.5,
          "velocity": 0.7007874015748031
        },
        {
          "duration": 0.375,
          "durationTicks": 96,
          "midi": 72,
          "name": "C5",
          "ticks": 3552,
          "time": 13.875,
          "velocity": 0.7007874015748031
        },
        {
          "duration": 0.375,
          "durationTicks": 96,
          "midi": 74,
          "name": "D5",
          "ticks": 3648,
          "time": 14.25,
          "velocity": 0.7007874015748031
        },
        {
          "duration": 0.28125,
          "durationTicks": 72,
          "midi": 71,
          "name": "B4",
          "ticks": 3744,
          "time": 14.625,
          "velocity": 0.7007874015748031
        },
        {
          "duration": 0.09375,
          "durationTicks": 24,
          "midi": 74,
          "name": "D5",
          "ticks": 3816,
          "time": 14.90625,
          "velocity": 0.7007874015748031
        },
        {
          "duration": 0.328125,
          "durationTicks": 84,
          "midi": 75,
          "name": "D#5",
          "ticks": 3840,
          "time": 15,
          "velocity": 0.7007874015748031
        },
        {
          "duration": 0.28125,
          "durationTicks": 72,
          "midi": 72,
          "name": "C5",
          "ticks": 3936,
          "time": 15.375,
          "velocity": 0.7007874015748031
        },
        {
          "duration": 0.140625,
          "durationTicks": 36,
          "midi": 72,
          "name": "C5",
          "ticks": 4080,
          "time": 15.9375,
          "velocity": 0.7007874015748031
        },
        {
          "duration": 0.140625,
          "durationTicks": 36,
          "midi": 77,
          "name": "F5",
          "ticks": 4128,
          "time": 16.125,
          "velocity": 0.7007874015748031
        },
        {
          "duration": 0.140625,
          "durationTicks": 36,
          "midi": 79,
          "name": "G5",
          "ticks": 4176,
          "time": 16.3125,
          "velocity": 0.7007874015748031
        },
        {
          "duration": 0.28125,
          "durationTicks": 72,
          "midi": 80,
          "name": "G#5",
          "ticks": 4224,
          "time": 16.5,
          "velocity": 0.7007874015748031
        },
        {
          "duration": 0.28125,
          "durationTicks": 72,
          "midi": 80,
          "name": "G#5",
          "ticks": 4320,
          "time": 16.875,
          "velocity": 0.7007874015748031
        },
        {
          "duration": 0.1875,
          "durationTicks": 48,
          "midi": 80,
          "name": "G#5",
          "ticks": 4416,
          "time": 17.25,
          "velocity": 0.7007874015748031
        },
        {
          "duration": 0.1875,
          "durationTicks": 48,
          "midi": 82,
          "name": "A#5",
          "ticks": 4464,
          "time": 17.4375,
          "velocity": 0.7007874015748031
        },
        {
          "duration": 0.234375,
          "durationTicks": 60,
          "midi": 77,
          "name": "F5",
          "ticks": 4512,
          "time": 17.625,
          "velocity": 0.7007874015748031
        },
        {
          "duration": 0.046875,
          "durationTicks": 12,
          "midi": 80,
          "name": "G#5",
          "ticks": 4584,
          "time": 17.90625,
          "velocity": 0.7007874015748031
        },
        {
          "duration": 0.1875,
          "durationTicks": 48,
          "midi": 80,
          "name": "G#5",
          "ticks": 4608,
          "time": 18,
          "velocity": 0.7007874015748031
        },
        {
          "duration": 0.046875,
          "durationTicks": 12,
          "midi": 79,
          "name": "G5",
          "ticks": 4680,
          "time": 18.28125,
          "velocity": 0.7007874015748031
        },
        {
          "duration": 0.328125,
          "durationTicks": 84,
          "midi": 79,
          "name": "G5",
          "ticks": 4704,
          "time": 18.375,
          "velocity": 0.7007874015748031
        },
        {
          "duration": 0.375,
          "durationTicks": 96,
          "midi": 79,
          "name": "G5",
          "ticks": 4896,
          "time": 19.125,
          "velocity": 0.7007874015748031
        },
        {
          "duration": 0.375,
          "durationTicks": 96,
          "midi": 80,
          "name": "G#5",
          "ticks": 4992,
          "time": 19.5,
          "velocity": 0.7007874015748031
        },
        {
          "duration": 0.375,
          "durationTicks": 96,
          "midi": 80,
          "name": "G#5",
          "ticks": 5088,
          "time": 19.875,
          "velocity": 0.7007874015748031
        },
        {
          "duration": 0.1875,
          "durationTicks": 48,
          "midi": 80,
          "name": "G#5",
          "ticks": 5184,
          "time": 20.25,
          "velocity": 0.7007874015748031
        },
        {
          "duration": 0.1875,
          "durationTicks": 48,
          "midi": 79,
          "name": "G5",
          "ticks": 5232,
          "time": 20.4375,
          "velocity": 0.7007874015748031
        },
        {
          "duration": 0.1875,
          "durationTicks": 48,
          "midi": 77,
          "name": "F5",
          "ticks": 5280,
          "time": 20.625,
          "velocity": 0.7007874015748031
        },
        {
          "duration": 0.046875,
          "durationTicks": 12,
          "midi": 80,
          "name": "G#5",
          "ticks": 5352,
          "time": 20.90625,
          "velocity": 0.7007874015748031
        },
        {
          "duration": 0.1875,
          "durationTicks": 48,
          "midi": 80,
          "name": "G#5",
          "ticks": 5376,
          "time": 21,
          "velocity": 0.7007874015748031
        },
        {
          "duration": 0.046875,
          "durationTicks": 12,
          "midi": 79,
          "name": "G5",
          "ticks": 5448,
          "time": 21.28125,
          "velocity": 0.7007874015748031
        },
        {
          "duration": 0.375,
          "durationTicks": 96,
          "midi": 79,
          "name": "G5",
          "ticks": 5472,
          "time": 21.375,
          "velocity": 0.7007874015748031
        },
        {
          "duration": 0.375,
          "durationTicks": 96,
          "midi": 79,
          "name": "G5",
          "ticks": 5664,
          "time": 22.125,
          "velocity": 0.7007874015748031
        },
        {
          "duration": 0.375,
          "durationTicks": 96,
          "midi": 78,
          "name": "F#5",
          "ticks": 5760,
          "time": 22.5,
          "velocity": 0.7007874015748031
        },
        {
          "duration": 0.375,
          "durationTicks": 96,
          "midi": 75,
          "name": "D#5",
          "ticks": 5856,
          "time": 22.875,
          "velocity": 0.7007874015748031
        },
        {
          "duration": 0.375,
          "durationTicks": 96,
          "midi": 75,
          "name": "D#5",
          "ticks": 5952,
          "time": 23.25,
          "velocity": 0.7007874015748031
        },
        {
          "duration": 0.375,
          "durationTicks": 96,
          "midi": 74,
          "name": "D5",
          "ticks": 6048,
          "time": 23.625,
          "velocity": 0.7007874015748031
        },
        {
          "duration": 0.28125,
          "durationTicks": 72,
          "midi": 72,
          "name": "C5",
          "ticks": 6144,
          "time": 24,
          "velocity": 0.7007874015748031
        },
        {
          "duration": 0.046875,
          "durationTicks": 12,
          "midi": 71,
          "name": "B4",
          "ticks": 6216,
          "time": 24.28125,
          "velocity": 0.7007874015748031
        },
        {
          "duration": 0.375,
          "durationTicks": 96,
          "midi": 71,
          "name": "B4",
          "ticks": 6240,
          "time": 24.375,
          "velocity": 0.7007874015748031
        },
        {
          "duration": 0.1875,
          "durationTicks": 48,
          "midi": 67,
          "name": "G4",
          "ticks": 6384,
          "time": 24.9375,
          "velocity": 0.7007874015748031
        },
        {
          "duration": 0.1875,
          "durationTicks": 48,
          "midi": 69,
          "name": "A4",
          "ticks": 6432,
          "time": 25.125,
          "velocity": 0.7007874015748031
        },
        {
          "duration": 0.1875,
          "durationTicks": 48,
          "midi": 71,
          "name": "B4",
          "ticks": 6480,
          "time": 25.3125,
          "velocity": 0.7007874015748031
        },
        {
          "duration": 0.375,
          "durationTicks": 96,
          "midi": 72,
          "name": "C5",
          "ticks": 6528,
          "time": 25.5,
          "velocity": 0.7007874015748031
        },
        {
          "duration": 0.375,
          "durationTicks": 96,
          "midi": 72,
          "name": "C5",
          "ticks": 6624,
          "time": 25.875,
          "velocity": 0.7007874015748031
        },
        {
          "duration": 0.375,
          "durationTicks": 96,
          "midi": 74,
          "name": "D5",
          "ticks": 6720,
          "time": 26.25,
          "velocity": 0.7007874015748031
        },
        {
          "duration": 0.125,
          "durationTicks": 32,
          "midi": 67,
          "name": "G4",
          "ticks": 6816,
          "time": 26.625,
          "velocity": 0.7007874015748031
        },
        {
          "duration": 0.125,
          "durationTicks": 32,
          "midi": 71,
          "name": "B4",
          "ticks": 6848,
          "time": 26.75,
          "velocity": 0.7007874015748031
        },
        {
          "duration": 0.125,
          "durationTicks": 32,
          "midi": 74,
          "name": "D5",
          "ticks": 6880,
          "time": 26.875,
          "velocity": 0.7007874015748031
        },
        {
          "duration": 0.328125,
          "durationTicks": 84,
          "midi": 75,
          "name": "D#5",
          "ticks": 6912,
          "time": 27,
          "velocity": 0.7007874015748031
        },
        {
          "duration": 0.28125,
          "durationTicks": 72,
          "midi": 72,
          "name": "C5",
          "ticks": 7008,
          "time": 27.375,
          "velocity": 0.7007874015748031
        },
        {
          "duration": 0.1875,
          "durationTicks": 48,
          "midi": 72,
          "name": "C5",
          "ticks": 7152,
          "time": 27.9375,
          "velocity": 0.7007874015748031
        },
        {
          "duration": 0.1875,
          "durationTicks": 48,
          "midi": 77,
          "name": "F5",
          "ticks": 7200,
          "time": 28.125,
          "velocity": 0.7007874015748031
        },
        {
          "duration": 0.1875,
          "durationTicks": 48,
          "midi": 79,
          "name": "G5",
          "ticks": 7248,
          "time": 28.3125,
          "velocity": 0.7007874015748031
        },
        {
          "duration": 0.28125,
          "durationTicks": 72,
          "midi": 84,
          "name": "C6",
          "ticks": 7296,
          "time": 28.5,
          "velocity": 0.7007874015748031
        },
        {
          "duration": 0.28125,
          "durationTicks": 72,
          "midi": 80,
          "name": "G#5",
          "ticks": 7296,
          "time": 28.5,
          "velocity": 0.7007874015748031
        },
        {
          "duration": 0.28125,
          "durationTicks": 72,
          "midi": 80,
          "name": "G#5",
          "ticks": 7392,
          "time": 28.875,
          "velocity": 0.7007874015748031
        },
        {
          "duration": 0.28125,
          "durationTicks": 72,
          "midi": 84,
          "name": "C6",
          "ticks": 7392,
          "time": 28.875,
          "velocity": 0.7007874015748031
        },
        {
          "duration": 0.1875,
          "durationTicks": 48,
          "midi": 80,
          "name": "G#5",
          "ticks": 7488,
          "time": 29.25,
          "velocity": 0.7007874015748031
        },
        {
          "duration": 0.1875,
          "durationTicks": 48,
          "midi": 84,
          "name": "C6",
          "ticks": 7488,
          "time": 29.25,
          "velocity": 0.7007874015748031
        },
        {
          "duration": 0.1875,
          "durationTicks": 48,
          "midi": 82,
          "name": "A#5",
          "ticks": 7536,
          "time": 29.4375,
          "velocity": 0.7007874015748031
        },
        {
          "duration": 0.1875,
          "durationTicks": 48,
          "midi": 86,
          "name": "D6",
          "ticks": 7536,
          "time": 29.4375,
          "velocity": 0.7007874015748031
        },
        {
          "duration": 0.234375,
          "durationTicks": 60,
          "midi": 82,
          "name": "A#5",
          "ticks": 7584,
          "time": 29.625,
          "velocity": 0.7007874015748031
        },
        {
          "duration": 0.06640625,
          "durationTicks": 17,
          "midi": 80,
          "name": "G#5",
          "ticks": 7656,
          "time": 29.90625,
          "velocity": 0.7007874015748031
        },
        {
          "duration": 0.19140625,
          "durationTicks": 49,
          "midi": 80,
          "name": "G#5",
          "ticks": 7680,
          "time": 30,
          "velocity": 0.7007874015748031
        },
        {
          "duration": 0.06640625,
          "durationTicks": 17,
          "midi": 82,
          "name": "A#5",
          "ticks": 7752,
          "time": 30.28125,
          "velocity": 0.7007874015748031
        },
        {
          "duration": 0.28515625,
          "durationTicks": 73,
          "midi": 79,
          "name": "G5",
          "ticks": 7776,
          "time": 30.375,
          "velocity": 0.7007874015748031
        },
        {
          "duration": 0.28125,
          "durationTicks": 72,
          "midi": 79,
          "name": "G5",
          "ticks": 7968,
          "time": 31.125,
          "velocity": 0.7007874015748031
        },
        {
          "duration": 0.28125,
          "durationTicks": 72,
          "midi": 80,
          "name": "G#5",
          "ticks": 8064,
          "time": 31.5,
          "velocity": 0.7007874015748031
        },
        {
          "duration": 0.1875,
          "durationTicks": 48,
          "midi": 79,
          "name": "G5",
          "ticks": 8160,
          "time": 31.875,
          "velocity": 0.7007874015748031
        },
        {
          "duration": 0.09375,
          "durationTicks": 24,
          "midi": 80,
          "name": "G#5",
          "ticks": 8232,
          "time": 32.15625,
          "velocity": 0.7007874015748031
        },
        {
          "duration": 0.1875,
          "durationTicks": 48,
          "midi": 84,
          "name": "C6",
          "ticks": 8256,
          "time": 32.25,
          "velocity": 0.7007874015748031
        },
        {
          "duration": 0.1875,
          "durationTicks": 48,
          "midi": 82,
          "name": "A#5",
          "ticks": 8352,
          "time": 32.625,
          "velocity": 0.7007874015748031
        },
        {
          "duration": 0.09375,
          "durationTicks": 24,
          "midi": 80,
          "name": "G#5",
          "ticks": 8424,
          "time": 32.90625,
          "velocity": 0.7007874015748031
        },
        {
          "duration": 0.1875,
          "durationTicks": 48,
          "midi": 79,
          "name": "G5",
          "ticks": 8448,
          "time": 33,
          "velocity": 0.7007874015748031
        },
        {
          "duration": 0.1875,
          "durationTicks": 48,
          "midi": 77,
          "name": "F5",
          "ticks": 8544,
          "time": 33.375,
          "velocity": 0.7007874015748031
        },
        {
          "duration": 0.09375,
          "durationTicks": 24,
          "midi": 79,
          "name": "G5",
          "ticks": 8616,
          "time": 33.65625,
          "velocity": 0.7007874015748031
        },
        {
          "duration": 0.1875,
          "durationTicks": 48,
          "midi": 84,
          "name": "C6",
          "ticks": 8640,
          "time": 33.75,
          "velocity": 0.7007874015748031
        },
        {
          "duration": 0.1875,
          "durationTicks": 48,
          "midi": 82,
          "name": "A#5",
          "ticks": 8736,
          "time": 34.125,
          "velocity": 0.7007874015748031
        },
        {
          "duration": 0.09375,
          "durationTicks": 24,
          "midi": 80,
          "name": "G#5",
          "ticks": 8808,
          "time": 34.40625,
          "velocity": 0.7007874015748031
        },
        {
          "duration": 0.1875,
          "durationTicks": 48,
          "midi": 79,
          "name": "G5",
          "ticks": 8832,
          "time": 34.5,
          "velocity": 0.7007874015748031
        },
        {
          "duration": 0.1875,
          "durationTicks": 48,
          "midi": 79,
          "name": "G5",
          "ticks": 8928,
          "time": 34.875,
          "velocity": 0.7007874015748031
        },
        {
          "duration": 0.09375,
          "durationTicks": 24,
          "midi": 79,
          "name": "G5",
          "ticks": 9000,
          "time": 35.15625,
          "velocity": 0.7007874015748031
        },
        {
          "duration": 0.234375,
          "durationTicks": 60,
          "midi": 82,
          "name": "A#5",
          "ticks": 9024,
          "time": 35.25,
          "velocity": 0.7007874015748031
        },
        {
          "duration": 0.234375,
          "durationTicks": 60,
          "midi": 79,
          "name": "G5",
          "ticks": 9120,
          "time": 35.625,
          "velocity": 0.7007874015748031
        },
        {
          "duration": 0.046875,
          "durationTicks": 12,
          "midi": 82,
          "name": "A#5",
          "ticks": 9192,
          "time": 35.90625,
          "velocity": 0.7007874015748031
        },
        {
          "duration": 0.28125,
          "durationTicks": 72,
          "midi": 82,
          "name": "A#5",
          "ticks": 9216,
          "time": 36,
          "velocity": 0.7007874015748031
        },
        {
          "duration": 0.046875,
          "durationTicks": 12,
          "midi": 84,
          "name": "C6",
          "ticks": 9288,
          "time": 36.28125,
          "velocity": 0.7007874015748031
        },
        {
          "duration": 0.375,
          "durationTicks": 96,
          "midi": 84,
          "name": "C6",
          "ticks": 9312,
          "time": 36.375,
          "velocity": 0.7007874015748031
        },
        {
          "duration": 0.375,
          "durationTicks": 96,
          "midi": 67,
          "name": "G4",
          "ticks": 29856,
          "time": 116.625,
          "velocity": 0.7007874015748031
        },
        {
          "duration": 0.375,
          "durationTicks": 96,
          "midi": 71,
          "name": "B4",
          "ticks": 29952,
          "time": 117,
          "velocity": 0.7007874015748031
        },
        {
          "duration": 0.375,
          "durationTicks": 96,
          "midi": 72,
          "name": "C5",
          "ticks": 30048,
          "time": 117.375,
          "velocity": 0.7007874015748031
        },
        {
          "duration": 0.375,
          "durationTicks": 96,
          "midi": 72,
          "name": "C5",
          "ticks": 30144,
          "time": 117.75,
          "velocity": 0.7007874015748031
        },
        {
          "duration": 0.375,
          "durationTicks": 96,
          "midi": 74,
          "name": "D5",
          "ticks": 30240,
          "time": 118.125,
          "velocity": 0.7007874015748031
        },
        {
          "duration": 0.28125,
          "durationTicks": 72,
          "midi": 71,
          "name": "B4",
          "ticks": 30336,
          "time": 118.5,
          "velocity": 0.7007874015748031
        },
        {
          "duration": 0.09375,
          "durationTicks": 24,
          "midi": 74,
          "name": "D5",
          "ticks": 30408,
          "time": 118.78125,
          "velocity": 0.7007874015748031
        },
        {
          "duration": 0.328125,
          "durationTicks": 84,
          "midi": 75,
          "name": "D#5",
          "ticks": 30432,
          "time": 118.875,
          "velocity": 0.7007874015748031
        },
        {
          "duration": 0.28125,
          "durationTicks": 72,
          "midi": 72,
          "name": "C5",
          "ticks": 30528,
          "time": 119.25,
          "velocity": 0.7007874015748031
        },
        {
          "duration": 0.140625,
          "durationTicks": 36,
          "midi": 72,
          "name": "C5",
          "ticks": 30672,
          "time": 119.8125,
          "velocity": 0.7007874015748031
        },
        {
          "duration": 0.140625,
          "durationTicks": 36,
          "midi": 77,
          "name": "F5",
          "ticks": 30720,
          "time": 120,
          "velocity": 0.7007874015748031
        },
        {
          "duration": 0.140625,
          "durationTicks": 36,
          "midi": 79,
          "name": "G5",
          "ticks": 30768,
          "time": 120.1875,
          "velocity": 0.7007874015748031
        },
        {
          "duration": 0.28125,
          "durationTicks": 72,
          "midi": 80,
          "name": "G#5",
          "ticks": 30816,
          "time": 120.375,
          "velocity": 0.7007874015748031
        },
        {
          "duration": 0.28125,
          "durationTicks": 72,
          "midi": 80,
          "name": "G#5",
          "ticks": 30912,
          "time": 120.75,
          "velocity": 0.7007874015748031
        },
        {
          "duration": 0.1875,
          "durationTicks": 48,
          "midi": 80,
          "name": "G#5",
          "ticks": 31008,
          "time": 121.125,
          "velocity": 0.7007874015748031
        },
        {
          "duration": 0.1875,
          "durationTicks": 48,
          "midi": 82,
          "name": "A#5",
          "ticks": 31056,
          "time": 121.3125,
          "velocity": 0.7007874015748031
        },
        {
          "duration": 0.234375,
          "durationTicks": 60,
          "midi": 77,
          "name": "F5",
          "ticks": 31104,
          "time": 121.5,
          "velocity": 0.7007874015748031
        },
        {
          "duration": 0.046875,
          "durationTicks": 12,
          "midi": 80,
          "name": "G#5",
          "ticks": 31176,
          "time": 121.78125,
          "velocity": 0.7007874015748031
        },
        {
          "duration": 0.1875,
          "durationTicks": 48,
          "midi": 80,
          "name": "G#5",
          "ticks": 31200,
          "time": 121.875,
          "velocity": 0.7007874015748031
        },
        {
          "duration": 0.046875,
          "durationTicks": 12,
          "midi": 79,
          "name": "G5",
          "ticks": 31272,
          "time": 122.15625,
          "velocity": 0.7007874015748031
        },
        {
          "duration": 0.328125,
          "durationTicks": 84,
          "midi": 79,
          "name": "G5",
          "ticks": 31296,
          "time": 122.25,
          "velocity": 0.7007874015748031
        },
        {
          "duration": 0.375,
          "durationTicks": 96,
          "midi": 79,
          "name": "G5",
          "ticks": 31488,
          "time": 123,
          "velocity": 0.7007874015748031
        },
        {
          "duration": 0.375,
          "durationTicks": 96,
          "midi": 80,
          "name": "G#5",
          "ticks": 31584,
          "time": 123.375,
          "velocity": 0.7007874015748031
        },
        {
          "duration": 0.375,
          "durationTicks": 96,
          "midi": 80,
          "name": "G#5",
          "ticks": 31680,
          "time": 123.75,
          "velocity": 0.7007874015748031
        },
        {
          "duration": 0.1875,
          "durationTicks": 48,
          "midi": 80,
          "name": "G#5",
          "ticks": 31776,
          "time": 124.125,
          "velocity": 0.7007874015748031
        },
        {
          "duration": 0.1875,
          "durationTicks": 48,
          "midi": 79,
          "name": "G5",
          "ticks": 31824,
          "time": 124.3125,
          "velocity": 0.7007874015748031
        },
        {
          "duration": 0.1875,
          "durationTicks": 48,
          "midi": 77,
          "name": "F5",
          "ticks": 31872,
          "time": 124.5,
          "velocity": 0.7007874015748031
        },
        {
          "duration": 0.046875,
          "durationTicks": 12,
          "midi": 80,
          "name": "G#5",
          "ticks": 31944,
          "time": 124.78125,
          "velocity": 0.7007874015748031
        },
        {
          "duration": 0.1875,
          "durationTicks": 48,
          "midi": 80,
          "name": "G#5",
          "ticks": 31968,
          "time": 124.875,
          "velocity": 0.7007874015748031
        },
        {
          "duration": 0.046875,
          "durationTicks": 12,
          "midi": 79,
          "name": "G5",
          "ticks": 32040,
          "time": 125.15625,
          "velocity": 0.7007874015748031
        },
        {
          "duration": 0.375,
          "durationTicks": 96,
          "midi": 79,
          "name": "G5",
          "ticks": 32064,
          "time": 125.25,
          "velocity": 0.7007874015748031
        },
        {
          "duration": 0.375,
          "durationTicks": 96,
          "midi": 79,
          "name": "G5",
          "ticks": 32256,
          "time": 126,
          "velocity": 0.7007874015748031
        },
        {
          "duration": 0.375,
          "durationTicks": 96,
          "midi": 78,
          "name": "F#5",
          "ticks": 32352,
          "time": 126.375,
          "velocity": 0.7007874015748031
        },
        {
          "duration": 0.375,
          "durationTicks": 96,
          "midi": 75,
          "name": "D#5",
          "ticks": 32448,
          "time": 126.75,
          "velocity": 0.7007874015748031
        },
        {
          "duration": 0.375,
          "durationTicks": 96,
          "midi": 75,
          "name": "D#5",
          "ticks": 32544,
          "time": 127.125,
          "velocity": 0.7007874015748031
        },
        {
          "duration": 0.375,
          "durationTicks": 96,
          "midi": 74,
          "name": "D5",
          "ticks": 32640,
          "time": 127.5,
          "velocity": 0.7007874015748031
        },
        {
          "duration": 0.28125,
          "durationTicks": 72,
          "midi": 72,
          "name": "C5",
          "ticks": 32736,
          "time": 127.875,
          "velocity": 0.7007874015748031
        },
        {
          "duration": 0.046875,
          "durationTicks": 12,
          "midi": 71,
          "name": "B4",
          "ticks": 32808,
          "time": 128.15625,
          "velocity": 0.7007874015748031
        },
        {
          "duration": 0.375,
          "durationTicks": 96,
          "midi": 71,
          "name": "B4",
          "ticks": 32832,
          "time": 128.25,
          "velocity": 0.7007874015748031
        },
        {
          "duration": 0.1875,
          "durationTicks": 48,
          "midi": 67,
          "name": "G4",
          "ticks": 32976,
          "time": 128.8125,
          "velocity": 0.7007874015748031
        },
        {
          "duration": 0.1875,
          "durationTicks": 48,
          "midi": 69,
          "name": "A4",
          "ticks": 33024,
          "time": 129,
          "velocity": 0.7007874015748031
        },
        {
          "duration": 0.1875,
          "durationTicks": 48,
          "midi": 71,
          "name": "B4",
          "ticks": 33072,
          "time": 129.1875,
          "velocity": 0.7007874015748031
        },
        {
          "duration": 0.375,
          "durationTicks": 96,
          "midi": 72,
          "name": "C5",
          "ticks": 33120,
          "time": 129.375,
          "velocity": 0.7007874015748031
        },
        {
          "duration": 0.375,
          "durationTicks": 96,
          "midi": 72,
          "name": "C5",
          "ticks": 33216,
          "time": 129.75,
          "velocity": 0.7007874015748031
        },
        {
          "duration": 0.375,
          "durationTicks": 96,
          "midi": 74,
          "name": "D5",
          "ticks": 33312,
          "time": 130.125,
          "velocity": 0.7007874015748031
        },
        {
          "duration": 0.125,
          "durationTicks": 32,
          "midi": 67,
          "name": "G4",
          "ticks": 33408,
          "time": 130.5,
          "velocity": 0.7007874015748031
        },
        {
          "duration": 0.125,
          "durationTicks": 32,
          "midi": 71,
          "name": "B4",
          "ticks": 33440,
          "time": 130.625,
          "velocity": 0.7007874015748031
        },
        {
          "duration": 0.125,
          "durationTicks": 32,
          "midi": 74,
          "name": "D5",
          "ticks": 33472,
          "time": 130.75,
          "velocity": 0.7007874015748031
        },
        {
          "duration": 0.328125,
          "durationTicks": 84,
          "midi": 75,
          "name": "D#5",
          "ticks": 33504,
          "time": 130.875,
          "velocity": 0.7007874015748031
        },
        {
          "duration": 0.28125,
          "durationTicks": 72,
          "midi": 72,
          "name": "C5",
          "ticks": 33600,
          "time": 131.25,
          "velocity": 0.7007874015748031
        },
        {
          "duration": 0.1875,
          "durationTicks": 48,
          "midi": 72,
          "name": "C5",
          "ticks": 33744,
          "time": 131.8125,
          "velocity": 0.7007874015748031
        },
        {
          "duration": 0.1875,
          "durationTicks": 48,
          "midi": 77,
          "name": "F5",
          "ticks": 33792,
          "time": 132,
          "velocity": 0.7007874015748031
        },
        {
          "duration": 0.1875,
          "durationTicks": 48,
          "midi": 79,
          "name": "G5",
          "ticks": 33840,
          "time": 132.1875,
          "velocity": 0.7007874015748031
        },
        {
          "duration": 0.28125,
          "durationTicks": 72,
          "midi": 84,
          "name": "C6",
          "ticks": 33888,
          "time": 132.375,
          "velocity": 0.7007874015748031
        },
        {
          "duration": 0.28125,
          "durationTicks": 72,
          "midi": 84,
          "name": "C6",
          "ticks": 33984,
          "time": 132.75,
          "velocity": 0.7007874015748031
        },
        {
          "duration": 0.1875,
          "durationTicks": 48,
          "midi": 84,
          "name": "C6",
          "ticks": 34080,
          "time": 133.125,
          "velocity": 0.7007874015748031
        },
        {
          "duration": 0.1875,
          "durationTicks": 48,
          "midi": 86,
          "name": "D6",
          "ticks": 34128,
          "time": 133.3125,
          "velocity": 0.7007874015748031
        },
        {
          "duration": 0.234375,
          "durationTicks": 60,
          "midi": 82,
          "name": "A#5",
          "ticks": 34176,
          "time": 133.5,
          "velocity": 0.7007874015748031
        },
        {
          "duration": 0.06640625,
          "durationTicks": 17,
          "midi": 80,
          "name": "G#5",
          "ticks": 34248,
          "time": 133.78125,
          "velocity": 0.7007874015748031
        },
        {
          "duration": 0.19140625,
          "durationTicks": 49,
          "midi": 80,
          "name": "G#5",
          "ticks": 34272,
          "time": 133.875,
          "velocity": 0.7007874015748031
        },
        {
          "duration": 0.06640625,
          "durationTicks": 17,
          "midi": 82,
          "name": "A#5",
          "ticks": 34344,
          "time": 134.15625,
          "velocity": 0.7007874015748031
        },
        {
          "duration": 0.28515625,
          "durationTicks": 73,
          "midi": 79,
          "name": "G5",
          "ticks": 34368,
          "time": 134.25,
          "velocity": 0.7007874015748031
        },
        {
          "duration": 0.28125,
          "durationTicks": 72,
          "midi": 79,
          "name": "G5",
          "ticks": 34560,
          "time": 135,
          "velocity": 0.7007874015748031
        },
        {
          "duration": 0.28125,
          "durationTicks": 72,
          "midi": 80,
          "name": "G#5",
          "ticks": 34656,
          "time": 135.375,
          "velocity": 0.7007874015748031
        },
        {
          "duration": 0.1875,
          "durationTicks": 48,
          "midi": 79,
          "name": "G5",
          "ticks": 34752,
          "time": 135.75,
          "velocity": 0.7007874015748031
        },
        {
          "duration": 0.09375,
          "durationTicks": 24,
          "midi": 80,
          "name": "G#5",
          "ticks": 34824,
          "time": 136.03125,
          "velocity": 0.7007874015748031
        },
        {
          "duration": 0.1875,
          "durationTicks": 48,
          "midi": 84,
          "name": "C6",
          "ticks": 34848,
          "time": 136.125,
          "velocity": 0.7007874015748031
        },
        {
          "duration": 0.1875,
          "durationTicks": 48,
          "midi": 82,
          "name": "A#5",
          "ticks": 34944,
          "time": 136.5,
          "velocity": 0.7007874015748031
        },
        {
          "duration": 0.09375,
          "durationTicks": 24,
          "midi": 80,
          "name": "G#5",
          "ticks": 35016,
          "time": 136.78125,
          "velocity": 0.7007874015748031
        },
        {
          "duration": 0.1875,
          "durationTicks": 48,
          "midi": 79,
          "name": "G5",
          "ticks": 35040,
          "time": 136.875,
          "velocity": 0.7007874015748031
        },
        {
          "duration": 0.1875,
          "durationTicks": 48,
          "midi": 77,
          "name": "F5",
          "ticks": 35136,
          "time": 137.25,
          "velocity": 0.7007874015748031
        },
        {
          "duration": 0.09375,
          "durationTicks": 24,
          "midi": 79,
          "name": "G5",
          "ticks": 35208,
          "time": 137.53125,
          "velocity": 0.7007874015748031
        },
        {
          "duration": 0.1875,
          "durationTicks": 48,
          "midi": 84,
          "name": "C6",
          "ticks": 35232,
          "time": 137.625,
          "velocity": 0.7007874015748031
        },
        {
          "duration": 0.1875,
          "durationTicks": 48,
          "midi": 82,
          "name": "A#5",
          "ticks": 35328,
          "time": 138,
          "velocity": 0.7007874015748031
        },
        {
          "duration": 0.09375,
          "durationTicks": 24,
          "midi": 80,
          "name": "G#5",
          "ticks": 35400,
          "time": 138.28125,
          "velocity": 0.7007874015748031
        },
        {
          "duration": 0.1875,
          "durationTicks": 48,
          "midi": 79,
          "name": "G5",
          "ticks": 35424,
          "time": 138.375,
          "velocity": 0.7007874015748031
        },
        {
          "duration": 0.046875,
          "durationTicks": 12,
          "midi": 79,
          "name": "G5",
          "ticks": 35496,
          "time": 138.65625,
          "velocity": 0.7007874015748031
        },
        {
          "duration": 0.1875,
          "durationTicks": 48,
          "midi": 79,
          "name": "G5",
          "ticks": 35520,
          "time": 138.75,
          "velocity": 0.7007874015748031
        },
        {
          "duration": 0.09375,
          "durationTicks": 24,
          "midi": 79,
          "name": "G5",
          "ticks": 35592,
          "time": 139.03125,
          "velocity": 0.7007874015748031
        },
        {
          "duration": 0.234375,
          "durationTicks": 60,
          "midi": 82,
          "name": "A#5",
          "ticks": 35616,
          "time": 139.125,
          "velocity": 0.7007874015748031
        },
        {
          "duration": 0.234375,
          "durationTicks": 60,
          "midi": 79,
          "name": "G5",
          "ticks": 35712,
          "time": 139.5,
          "velocity": 0.7007874015748031
        },
        {
          "duration": 0.046875,
          "durationTicks": 12,
          "midi": 82,
          "name": "A#5",
          "ticks": 35784,
          "time": 139.78125,
          "velocity": 0.7007874015748031
        },
        {
          "duration": 0.28125,
          "durationTicks": 72,
          "midi": 82,
          "name": "A#5",
          "ticks": 35808,
          "time": 139.875,
          "velocity": 0.7007874015748031
        },
        {
          "duration": 0.28125,
          "durationTicks": 72,
          "midi": 84,
          "name": "C6",
          "ticks": 35904,
          "time": 140.25,
          "velocity": 0.7007874015748031
        },
        {
          "duration": 0.28125,
          "durationTicks": 72,
          "midi": 86,
          "name": "D6",
          "ticks": 36000,
          "time": 140.625,
          "velocity": 0.7007874015748031
        },
        {
          "duration": 0.28125,
          "durationTicks": 72,
          "midi": 82,
          "name": "A#5",
          "ticks": 36096,
          "time": 141,
          "velocity": 0.7007874015748031
        },
        {
          "duration": 0.046875,
          "durationTicks": 12,
          "midi": 86,
          "name": "D6",
          "ticks": 36168,
          "time": 141.28125,
          "velocity": 0.7007874015748031
        },
        {
          "duration": 0.234375,
          "durationTicks": 60,
          "midi": 86,
          "name": "D6",
          "ticks": 36192,
          "time": 141.375,
          "velocity": 0.7007874015748031
        },
        {
          "duration": 0.046875,
          "durationTicks": 12,
          "midi": 86,
          "name": "D6",
          "ticks": 36264,
          "time": 141.65625,
          "velocity": 0.7007874015748031
        },
        {
          "duration": 3.9375,
          "durationTicks": 1008,
          "midi": 84,
          "name": "C6",
          "ticks": 36288,
          "time": 141.75,
          "velocity": 0.7007874015748031
        }
      ],
      "endOfTrackTicks": 37730
    },
    {
      "channel": 8,
      "controlChanges": {
        "6": [
          {
            "number": 6,
            "ticks": 0,
            "time": 0,
            "value": 0.09448818897637795
          },
          {
            "number": 6,
            "ticks": 0,
            "time": 0,
            "value": 0.09448818897637795
          },
          {
            "number": 6,
            "ticks": 0,
            "time": 0,
            "value": 0.09448818897637795
          },
          {
            "number": 6,
            "ticks": 37728,
            "time": 147.375,
            "value": 0.09448818897637795
          },
          {
            "number": 6,
            "ticks": 37730,
            "time": 147.3828125,
            "value": 0.09448818897637795
          }
        ],
        "7": [
          {
            "number": 7,
            "ticks": 0,
            "time": 0,
            "value": 0.7874015748031497
          },
          {
            "number": 7,
            "ticks": 0,
            "time": 0,
            "value": 0.7874015748031497
          },
          {
            "number": 7,
            "ticks": 0,
            "time": 0,
            "value": 0.7874015748031497
          },
          {
            "number": 7,
            "ticks": 0,
            "time": 0,
            "value": 0.7874015748031497
          },
          {
            "number": 7,
            "ticks": 37728,
            "time": 147.375,
            "value": 0.7874015748031497
          },
          {
            "number": 7,
            "ticks": 37730,
            "time": 147.3828125,
            "value": 0.7874015748031497
          }
        ],
        "10": [
          {
            "number": 10,
            "ticks": 0,
            "time": 0,
            "value": 0.5039370078740157
          },
          {
            "number": 10,
            "ticks": 0,
            "time": 0,
            "value": 0.5039370078740157
          },
          {
            "number": 10,
            "ticks": 0,
            "time": 0,
            "value": 0.5039370078740157
          },
          {
            "number": 10,
            "ticks": 0,
            "time": 0,
            "value": 0.5039370078740157
          },
          {
            "number": 10,
            "ticks": 37728,
            "time": 147.375,
            "value": 0.5039370078740157
          },
          {
            "number": 10,
            "ticks": 37730,
            "time": 147.3828125,
            "value": 0.5039370078740157
          }
        ],
        "100": [
          {
            "number": 100,
            "ticks": 0,
            "time": 0,
            "value": 0
          },
          {
            "number": 100,
            "ticks": 0,
            "time": 0,
            "value": 0
          },
          {
            "number": 100,
            "ticks": 0,
            "time": 0,
            "value": 0
          },
          {
            "number": 100,
            "ticks": 37728,
            "time": 147.375,
            "value": 0
          },
          {
            "number": 100,
            "ticks": 37730,
            "time": 147.3828125,
            "value": 0
          }
        ],
        "101": [
          {
            "number": 101,
            "ticks": 0,
            "time": 0,
            "value": 0
          },
          {
            "number": 101,
            "ticks": 0,
            "time": 0,
            "value": 0
          },
          {
            "number": 101,
            "ticks": 0,
            "time": 0,
            "value": 0
          },
          {
            "number": 101,
            "ticks": 37728,
            "time": 147.375,
            "value": 0
          },
          {
            "number": 101,
            "ticks": 37730,
            "time": 147.3828125,
            "value": 0
          }
        ]
      },
      "pitchBends": [
        {
          "ticks": 0,
          "time": 0,
          "value": 0
        },
        {
          "ticks": 0,
          "time": 0,
          "value": 0
        },
        {
          "ticks": 0,
          "time": 0,
          "value": 0
        },
        {
          "ticks": 0,
          "time": 0,
          "value": 0
        },
        {
          "ticks": 37728,
          "time": 147.375,
          "value": 0
        },
        {
          "ticks": 37730,
          "time": 147.3828125,
          "value": 0
        }
      ],
      "instrument": {
        "family": "piano",
        "number": 0,
        "name": "acoustic grand piano"
      },
      "name": "Bass",
      "notes": [
        {
          "duration": 0.046875,
          "durationTicks": 12,
          "midi": 36,
          "name": "C2",
          "ticks": 432,
          "time": 1.6875,
          "velocity": 0.7874015748031497
        },
        {
          "duration": 0.046875,
          "durationTicks": 12,
          "midi": 36,
          "name": "C2",
          "ticks": 456,
          "time": 1.78125,
          "velocity": 0.7874015748031497
        },
        {
          "duration": 0.046875,
          "durationTicks": 12,
          "midi": 36,
          "name": "C2",
          "ticks": 528,
          "time": 2.0625,
          "velocity": 0.7874015748031497
        },
        {
          "duration": 0.046875,
          "durationTicks": 12,
          "midi": 36,
          "name": "C2",
          "ticks": 552,
          "time": 2.15625,
          "velocity": 0.7874015748031497
        },
        {
          "duration": 0.046875,
          "durationTicks": 12,
          "midi": 36,
          "name": "C2",
          "ticks": 624,
          "time": 2.4375,
          "velocity": 0.7874015748031497
        },
        {
          "duration": 0.046875,
          "durationTicks": 12,
          "midi": 36,
          "name": "C2",
          "ticks": 648,
          "time": 2.53125,
          "velocity": 0.7874015748031497
        },
        {
          "duration": 0.046875,
          "durationTicks": 12,
          "midi": 36,
          "name": "C2",
          "ticks": 720,
          "time": 2.8125,
          "velocity": 0.7874015748031497
        },
        {
          "duration": 0.046875,
          "durationTicks": 12,
          "midi": 36,
          "name": "C2",
          "ticks": 744,
          "time": 2.90625,
          "velocity": 0.7874015748031497
        },
        {
          "duration": 0.046875,
          "durationTicks": 12,
          "midi": 36,
          "name": "C2",
          "ticks": 816,
          "time": 3.1875,
          "velocity": 0.7874015748031497
        },
        {
          "duration": 0.046875,
          "durationTicks": 12,
          "midi": 36,
          "name": "C2",
          "ticks": 840,
          "time": 3.28125,
          "velocity": 0.7874015748031497
        },
        {
          "duration": 0.046875,
          "durationTicks": 12,
          "midi": 36,
          "name": "C2",
          "ticks": 912,
          "time": 3.5625,
          "velocity": 0.7874015748031497
        },
        {
          "duration": 0.046875,
          "durationTicks": 12,
          "midi": 36,
          "name": "C2",
          "ticks": 936,
          "time": 3.65625,
          "velocity": 0.7874015748031497
        },
        {
          "duration": 0.046875,
          "durationTicks": 12,
          "midi": 36,
          "name": "C2",
          "ticks": 1008,
          "time": 3.9375,
          "velocity": 0.7874015748031497
        },
        {
          "duration": 0.046875,
          "durationTicks": 12,
          "midi": 36,
          "name": "C2",
          "ticks": 1032,
          "time": 4.03125,
          "velocity": 0.7874015748031497
        },
        {
          "duration": 0.046875,
          "durationTicks": 12,
          "midi": 36,
          "name": "C2",
          "ticks": 1104,
          "time": 4.3125,
          "velocity": 0.7874015748031497
        },
        {
          "duration": 0.046875,
          "durationTicks": 12,
          "midi": 36,
          "name": "C2",
          "ticks": 1128,
          "time": 4.40625,
          "velocity": 0.7874015748031497
        },
        {
          "duration": 0.046875,
          "durationTicks": 12,
          "midi": 36,
          "name": "C2",
          "ticks": 1200,
          "time": 4.6875,
          "velocity": 0.7874015748031497
        },
        {
          "duration": 0.046875,
          "durationTicks": 12,
          "midi": 36,
          "name": "C2",
          "ticks": 1224,
          "time": 4.78125,
          "velocity": 0.7874015748031497
        },
        {
          "duration": 0.046875,
          "durationTicks": 12,
          "midi": 36,
          "name": "C2",
          "ticks": 1296,
          "time": 5.0625,
          "velocity": 0.7874015748031497
        },
        {
          "duration": 0.046875,
          "durationTicks": 12,
          "midi": 36,
          "name": "C2",
          "ticks": 1320,
          "time": 5.15625,
          "velocity": 0.7874015748031497
        },
        {
          "duration": 0.046875,
          "durationTicks": 12,
          "midi": 36,
          "name": "C2",
          "ticks": 1392,
          "time": 5.4375,
          "velocity": 0.7874015748031497
        },
        {
          "duration": 0.046875,
          "durationTicks": 12,
          "midi": 36,
          "name": "C2",
          "ticks": 1416,
          "time": 5.53125,
          "velocity": 0.7874015748031497
        },
        {
          "duration": 0.046875,
          "durationTicks": 12,
          "midi": 36,
          "name": "C2",
          "ticks": 1488,
          "time": 5.8125,
          "velocity": 0.7874015748031497
        },
        {
          "duration": 0.046875,
          "durationTicks": 12,
          "midi": 36,
          "name": "C2",
          "ticks": 1512,
          "time": 5.90625,
          "velocity": 0.7874015748031497
        },
        {
          "duration": 0.046875,
          "durationTicks": 12,
          "midi": 36,
          "name": "C2",
          "ticks": 1584,
          "time": 6.1875,
          "velocity": 0.7874015748031497
        },
        {
          "duration": 0.046875,
          "durationTicks": 12,
          "midi": 36,
          "name": "C2",
          "ticks": 1608,
          "time": 6.28125,
          "velocity": 0.7874015748031497
        },
        {
          "duration": 0.046875,
          "durationTicks": 12,
          "midi": 36,
          "name": "C2",
          "ticks": 1680,
          "time": 6.5625,
          "velocity": 0.7874015748031497
        },
        {
          "duration": 0.046875,
          "durationTicks": 12,
          "midi": 36,
          "name": "C2",
          "ticks": 1704,
          "time": 6.65625,
          "velocity": 0.7874015748031497
        },
        {
          "duration": 0.046875,
          "durationTicks": 12,
          "midi": 36,
          "name": "C2",
          "ticks": 1776,
          "time": 6.9375,
          "velocity": 0.7874015748031497
        },
        {
          "duration": 0.046875,
          "durationTicks": 12,
          "midi": 36,
          "name": "C2",
          "ticks": 1800,
          "time": 7.03125,
          "velocity": 0.7874015748031497
        },
        {
          "duration": 0.046875,
          "durationTicks": 12,
          "midi": 36,
          "name": "C2",
          "ticks": 1872,
          "time": 7.3125,
          "velocity": 0.7874015748031497
        },
        {
          "duration": 0.046875,
          "durationTicks": 12,
          "midi": 36,
          "name": "C2",
          "ticks": 1896,
          "time": 7.40625,
          "velocity": 0.7874015748031497
        },
        {
          "duration": 0.046875,
          "durationTicks": 12,
          "midi": 36,
          "name": "C2",
          "ticks": 1968,
          "time": 7.6875,
          "velocity": 0.7874015748031497
        },
        {
          "duration": 0.046875,
          "durationTicks": 12,
          "midi": 36,
          "name": "C2",
          "ticks": 1992,
          "time": 7.78125,
          "velocity": 0.7874015748031497
        },
        {
          "duration": 0.046875,
          "durationTicks": 12,
          "midi": 36,
          "name": "C2",
          "ticks": 2064,
          "time": 8.0625,
          "velocity": 0.7874015748031497
        },
        {
          "duration": 0.046875,
          "durationTicks": 12,
          "midi": 36,
          "name": "C2",
          "ticks": 2088,
          "time": 8.15625,
          "velocity": 0.7874015748031497
        },
        {
          "duration": 0.046875,
          "durationTicks": 12,
          "midi": 36,
          "name": "C2",
          "ticks": 2160,
          "time": 8.4375,
          "velocity": 0.7874015748031497
        },
        {
          "duration": 0.046875,
          "durationTicks": 12,
          "midi": 36,
          "name": "C2",
          "ticks": 2184,
          "time": 8.53125,
          "velocity": 0.7874015748031497
        },
        {
          "duration": 0.046875,
          "durationTicks": 12,
          "midi": 36,
          "name": "C2",
          "ticks": 2256,
          "time": 8.8125,
          "velocity": 0.7874015748031497
        },
        {
          "duration": 0.046875,
          "durationTicks": 12,
          "midi": 36,
          "name": "C2",
          "ticks": 2280,
          "time": 8.90625,
          "velocity": 0.7874015748031497
        },
        {
          "duration": 0.046875,
          "durationTicks": 12,
          "midi": 36,
          "name": "C2",
          "ticks": 2352,
          "time": 9.1875,
          "velocity": 0.7874015748031497
        },
        {
          "duration": 0.046875,
          "durationTicks": 12,
          "midi": 36,
          "name": "C2",
          "ticks": 2376,
          "time": 9.28125,
          "velocity": 0.7874015748031497
        },
        {
          "duration": 0.046875,
          "durationTicks": 12,
          "midi": 36,
          "name": "C2",
          "ticks": 2448,
          "time": 9.5625,
          "velocity": 0.7874015748031497
        },
        {
          "duration": 0.046875,
          "durationTicks": 12,
          "midi": 36,
          "name": "C2",
          "ticks": 2472,
          "time": 9.65625,
          "velocity": 0.7874015748031497
        },
        {
          "duration": 0.046875,
          "durationTicks": 12,
          "midi": 36,
          "name": "C2",
          "ticks": 2544,
          "time": 9.9375,
          "velocity": 0.7874015748031497
        },
        {
          "duration": 0.046875,
          "durationTicks": 12,
          "midi": 36,
          "name": "C2",
          "ticks": 2568,
          "time": 10.03125,
          "velocity": 0.7874015748031497
        },
        {
          "duration": 0.046875,
          "durationTicks": 12,
          "midi": 36,
          "name": "C2",
          "ticks": 2640,
          "time": 10.3125,
          "velocity": 0.7874015748031497
        },
        {
          "duration": 0.046875,
          "durationTicks": 12,
          "midi": 36,
          "name": "C2",
          "ticks": 2664,
          "time": 10.40625,
          "velocity": 0.7874015748031497
        },
        {
          "duration": 0.046875,
          "durationTicks": 12,
          "midi": 36,
          "name": "C2",
          "ticks": 2736,
          "time": 10.6875,
          "velocity": 0.7874015748031497
        },
        {
          "duration": 0.046875,
          "durationTicks": 12,
          "midi": 36,
          "name": "C2",
          "ticks": 2760,
          "time": 10.78125,
          "velocity": 0.7874015748031497
        },
        {
          "duration": 0.046875,
          "durationTicks": 12,
          "midi": 36,
          "name": "C2",
          "ticks": 2832,
          "time": 11.0625,
          "velocity": 0.7874015748031497
        },
        {
          "duration": 0.046875,
          "durationTicks": 12,
          "midi": 36,
          "name": "C2",
          "ticks": 2856,
          "time": 11.15625,
          "velocity": 0.7874015748031497
        },
        {
          "duration": 0.046875,
          "durationTicks": 12,
          "midi": 36,
          "name": "C2",
          "ticks": 2928,
          "time": 11.4375,
          "velocity": 0.7874015748031497
        },
        {
          "duration": 0.046875,
          "durationTicks": 12,
          "midi": 36,
          "name": "C2",
          "ticks": 2952,
          "time": 11.53125,
          "velocity": 0.7874015748031497
        },
        {
          "duration": 0.046875,
          "durationTicks": 12,
          "midi": 36,
          "name": "C2",
          "ticks": 3024,
          "time": 11.8125,
          "velocity": 0.7874015748031497
        },
        {
          "duration": 0.046875,
          "durationTicks": 12,
          "midi": 36,
          "name": "C2",
          "ticks": 3048,
          "time": 11.90625,
          "velocity": 0.7874015748031497
        },
        {
          "duration": 0.046875,
          "durationTicks": 12,
          "midi": 36,
          "name": "C2",
          "ticks": 3120,
          "time": 12.1875,
          "velocity": 0.7874015748031497
        },
        {
          "duration": 0.046875,
          "durationTicks": 12,
          "midi": 36,
          "name": "C2",
          "ticks": 3144,
          "time": 12.28125,
          "velocity": 0.7874015748031497
        },
        {
          "duration": 0.046875,
          "durationTicks": 12,
          "midi": 36,
          "name": "C2",
          "ticks": 3216,
          "time": 12.5625,
          "velocity": 0.7874015748031497
        },
        {
          "duration": 0.046875,
          "durationTicks": 12,
          "midi": 36,
          "name": "C2",
          "ticks": 3240,
          "time": 12.65625,
          "velocity": 0.7874015748031497
        },
        {
          "duration": 0.046875,
          "durationTicks": 12,
          "midi": 43,
          "name": "G2",
          "ticks": 3312,
          "time": 12.9375,
          "velocity": 0.7874015748031497
        },
        {
          "duration": 0.046875,
          "durationTicks": 12,
          "midi": 43,
          "name": "G2",
          "ticks": 3336,
          "time": 13.03125,
          "velocity": 0.7874015748031497
        },
        {
          "duration": 0.046875,
          "durationTicks": 12,
          "midi": 43,
          "name": "G2",
          "ticks": 3408,
          "time": 13.3125,
          "velocity": 0.7874015748031497
        },
        {
          "duration": 0.046875,
          "durationTicks": 12,
          "midi": 43,
          "name": "G2",
          "ticks": 3432,
          "time": 13.40625,
          "velocity": 0.7874015748031497
        },
        {
          "duration": 0.046875,
          "durationTicks": 12,
          "midi": 44,
          "name": "G#2",
          "ticks": 3504,
          "time": 13.6875,
          "velocity": 0.7874015748031497
        },
        {
          "duration": 0.046875,
          "durationTicks": 12,
          "midi": 44,
          "name": "G#2",
          "ticks": 3528,
          "time": 13.78125,
          "velocity": 0.7874015748031497
        },
        {
          "duration": 0.046875,
          "durationTicks": 12,
          "midi": 44,
          "name": "G#2",
          "ticks": 3600,
          "time": 14.0625,
          "velocity": 0.7874015748031497
        },
        {
          "duration": 0.046875,
          "durationTicks": 12,
          "midi": 44,
          "name": "G#2",
          "ticks": 3624,
          "time": 14.15625,
          "velocity": 0.7874015748031497
        },
        {
          "duration": 0.046875,
          "durationTicks": 12,
          "midi": 43,
          "name": "G2",
          "ticks": 3696,
          "time": 14.4375,
          "velocity": 0.7874015748031497
        },
        {
          "duration": 0.046875,
          "durationTicks": 12,
          "midi": 43,
          "name": "G2",
          "ticks": 3720,
          "time": 14.53125,
          "velocity": 0.7874015748031497
        },
        {
          "duration": 0.046875,
          "durationTicks": 12,
          "midi": 43,
          "name": "G2",
          "ticks": 3792,
          "time": 14.8125,
          "velocity": 0.7874015748031497
        },
        {
          "duration": 0.046875,
          "durationTicks": 12,
          "midi": 43,
          "name": "G2",
          "ticks": 3816,
          "time": 14.90625,
          "velocity": 0.7874015748031497
        },
        {
          "duration": 0.046875,
          "durationTicks": 12,
          "midi": 48,
          "name": "C3",
          "ticks": 3888,
          "time": 15.1875,
          "velocity": 0.7874015748031497
        },
        {
          "duration": 0.046875,
          "durationTicks": 12,
          "midi": 48,
          "name": "C3",
          "ticks": 3912,
          "time": 15.28125,
          "velocity": 0.7874015748031497
        },
        {
          "duration": 0.046875,
          "durationTicks": 12,
          "midi": 48,
          "name": "C3",
          "ticks": 3984,
          "time": 15.5625,
          "velocity": 0.7874015748031497
        },
        {
          "duration": 0.046875,
          "durationTicks": 12,
          "midi": 48,
          "name": "C3",
          "ticks": 4008,
          "time": 15.65625,
          "velocity": 0.7874015748031497
        },
        {
          "duration": 0.046875,
          "durationTicks": 12,
          "midi": 46,
          "name": "A#2",
          "ticks": 4080,
          "time": 15.9375,
          "velocity": 0.7874015748031497
        },
        {
          "duration": 0.046875,
          "durationTicks": 12,
          "midi": 46,
          "name": "A#2",
          "ticks": 4104,
          "time": 16.03125,
          "velocity": 0.7874015748031497
        },
        {
          "duration": 0.046875,
          "durationTicks": 12,
          "midi": 46,
          "name": "A#2",
          "ticks": 4176,
          "time": 16.3125,
          "velocity": 0.7874015748031497
        },
        {
          "duration": 0.046875,
          "durationTicks": 12,
          "midi": 46,
          "name": "A#2",
          "ticks": 4200,
          "time": 16.40625,
          "velocity": 0.7874015748031497
        },
        {
          "duration": 0.046875,
          "durationTicks": 12,
          "midi": 44,
          "name": "G#2",
          "ticks": 4272,
          "time": 16.6875,
          "velocity": 0.7874015748031497
        },
        {
          "duration": 0.046875,
          "durationTicks": 12,
          "midi": 44,
          "name": "G#2",
          "ticks": 4296,
          "time": 16.78125,
          "velocity": 0.7874015748031497
        },
        {
          "duration": 0.046875,
          "durationTicks": 12,
          "midi": 44,
          "name": "G#2",
          "ticks": 4368,
          "time": 17.0625,
          "velocity": 0.7874015748031497
        },
        {
          "duration": 0.046875,
          "durationTicks": 12,
          "midi": 44,
          "name": "G#2",
          "ticks": 4392,
          "time": 17.15625,
          "velocity": 0.7874015748031497
        },
        {
          "duration": 0.046875,
          "durationTicks": 12,
          "midi": 46,
          "name": "A#2",
          "ticks": 4464,
          "time": 17.4375,
          "velocity": 0.7874015748031497
        },
        {
          "duration": 0.046875,
          "durationTicks": 12,
          "midi": 46,
          "name": "A#2",
          "ticks": 4488,
          "time": 17.53125,
          "velocity": 0.7874015748031497
        },
        {
          "duration": 0.046875,
          "durationTicks": 12,
          "midi": 46,
          "name": "A#2",
          "ticks": 4560,
          "time": 17.8125,
          "velocity": 0.7874015748031497
        },
        {
          "duration": 0.046875,
          "durationTicks": 12,
          "midi": 46,
          "name": "A#2",
          "ticks": 4584,
          "time": 17.90625,
          "velocity": 0.7874015748031497
        },
        {
          "duration": 0.046875,
          "durationTicks": 12,
          "midi": 51,
          "name": "D#3",
          "ticks": 4656,
          "time": 18.1875,
          "velocity": 0.7874015748031497
        },
        {
          "duration": 0.046875,
          "durationTicks": 12,
          "midi": 51,
          "name": "D#3",
          "ticks": 4680,
          "time": 18.28125,
          "velocity": 0.7874015748031497
        },
        {
          "duration": 0.046875,
          "durationTicks": 12,
          "midi": 51,
          "name": "D#3",
          "ticks": 4752,
          "time": 18.5625,
          "velocity": 0.7874015748031497
        },
        {
          "duration": 0.046875,
          "durationTicks": 12,
          "midi": 51,
          "name": "D#3",
          "ticks": 4776,
          "time": 18.65625,
          "velocity": 0.7874015748031497
        },
        {
          "duration": 0.046875,
          "durationTicks": 12,
          "midi": 50,
          "name": "D3",
          "ticks": 4848,
          "time": 18.9375,
          "velocity": 0.7874015748031497
        },
        {
          "duration": 0.046875,
          "durationTicks": 12,
          "midi": 50,
          "name": "D3",
          "ticks": 4872,
          "time": 19.03125,
          "velocity": 0.7874015748031497
        },
        {
          "duration": 0.046875,
          "durationTicks": 12,
          "midi": 50,
          "name": "D3",
          "ticks": 4944,
          "time": 19.3125,
          "velocity": 0.7874015748031497
        },
        {
          "duration": 0.046875,
          "durationTicks": 12,
          "midi": 50,
          "name": "D3",
          "ticks": 4968,
          "time": 19.40625,
          "velocity": 0.7874015748031497
        },
        {
          "duration": 0.046875,
          "durationTicks": 12,
          "midi": 41,
          "name": "F2",
          "ticks": 5040,
          "time": 19.6875,
          "velocity": 0.7874015748031497
        },
        {
          "duration": 0.046875,
          "durationTicks": 12,
          "midi": 41,
          "name": "F2",
          "ticks": 5064,
          "time": 19.78125,
          "velocity": 0.7874015748031497
        },
        {
          "duration": 0.046875,
          "durationTicks": 12,
          "midi": 41,
          "name": "F2",
          "ticks": 5136,
          "time": 20.0625,
          "velocity": 0.7874015748031497
        },
        {
          "duration": 0.046875,
          "durationTicks": 12,
          "midi": 41,
          "name": "F2",
          "ticks": 5160,
          "time": 20.15625,
          "velocity": 0.7874015748031497
        },
        {
          "duration": 0.046875,
          "durationTicks": 12,
          "midi": 46,
          "name": "A#2",
          "ticks": 5232,
          "time": 20.4375,
          "velocity": 0.7874015748031497
        },
        {
          "duration": 0.046875,
          "durationTicks": 12,
          "midi": 46,
          "name": "A#2",
          "ticks": 5256,
          "time": 20.53125,
          "velocity": 0.7874015748031497
        },
        {
          "duration": 0.046875,
          "durationTicks": 12,
          "midi": 46,
          "name": "A#2",
          "ticks": 5328,
          "time": 20.8125,
          "velocity": 0.7874015748031497
        },
        {
          "duration": 0.046875,
          "durationTicks": 12,
          "midi": 46,
          "name": "A#2",
          "ticks": 5352,
          "time": 20.90625,
          "velocity": 0.7874015748031497
        },
        {
          "duration": 0.046875,
          "durationTicks": 12,
          "midi": 39,
          "name": "D#2",
          "ticks": 5424,
          "time": 21.1875,
          "velocity": 0.7874015748031497
        },
        {
          "duration": 0.046875,
          "durationTicks": 12,
          "midi": 39,
          "name": "D#2",
          "ticks": 5448,
          "time": 21.28125,
          "velocity": 0.7874015748031497
        },
        {
          "duration": 0.046875,
          "durationTicks": 12,
          "midi": 39,
          "name": "D#2",
          "ticks": 5520,
          "time": 21.5625,
          "velocity": 0.7874015748031497
        },
        {
          "duration": 0.046875,
          "durationTicks": 12,
          "midi": 39,
          "name": "D#2",
          "ticks": 5544,
          "time": 21.65625,
          "velocity": 0.7874015748031497
        },
        {
          "duration": 0.046875,
          "durationTicks": 12,
          "midi": 44,
          "name": "G#2",
          "ticks": 5616,
          "time": 21.9375,
          "velocity": 0.7874015748031497
        },
        {
          "duration": 0.046875,
          "durationTicks": 12,
          "midi": 44,
          "name": "G#2",
          "ticks": 5640,
          "time": 22.03125,
          "velocity": 0.7874015748031497
        },
        {
          "duration": 0.046875,
          "durationTicks": 12,
          "midi": 44,
          "name": "G#2",
          "ticks": 5712,
          "time": 22.3125,
          "velocity": 0.7874015748031497
        },
        {
          "duration": 0.046875,
          "durationTicks": 12,
          "midi": 44,
          "name": "G#2",
          "ticks": 5736,
          "time": 22.40625,
          "velocity": 0.7874015748031497
        },
        {
          "duration": 0.046875,
          "durationTicks": 12,
          "midi": 38,
          "name": "D2",
          "ticks": 5808,
          "time": 22.6875,
          "velocity": 0.7874015748031497
        },
        {
          "duration": 0.046875,
          "durationTicks": 12,
          "midi": 38,
          "name": "D2",
          "ticks": 5832,
          "time": 22.78125,
          "velocity": 0.7874015748031497
        },
        {
          "duration": 0.046875,
          "durationTicks": 12,
          "midi": 38,
          "name": "D2",
          "ticks": 5904,
          "time": 23.0625,
          "velocity": 0.7874015748031497
        },
        {
          "duration": 0.046875,
          "durationTicks": 12,
          "midi": 38,
          "name": "D2",
          "ticks": 5928,
          "time": 23.15625,
          "velocity": 0.7874015748031497
        },
        {
          "duration": 0.046875,
          "durationTicks": 12,
          "midi": 39,
          "name": "D#2",
          "ticks": 6000,
          "time": 23.4375,
          "velocity": 0.7874015748031497
        },
        {
          "duration": 0.046875,
          "durationTicks": 12,
          "midi": 39,
          "name": "D#2",
          "ticks": 6024,
          "time": 23.53125,
          "velocity": 0.7874015748031497
        },
        {
          "duration": 0.046875,
          "durationTicks": 12,
          "midi": 42,
          "name": "F#2",
          "ticks": 6096,
          "time": 23.8125,
          "velocity": 0.7874015748031497
        },
        {
          "duration": 0.046875,
          "durationTicks": 12,
          "midi": 42,
          "name": "F#2",
          "ticks": 6120,
          "time": 23.90625,
          "velocity": 0.7874015748031497
        },
        {
          "duration": 0.046875,
          "durationTicks": 12,
          "midi": 43,
          "name": "G2",
          "ticks": 6192,
          "time": 24.1875,
          "velocity": 0.7874015748031497
        },
        {
          "duration": 0.046875,
          "durationTicks": 12,
          "midi": 43,
          "name": "G2",
          "ticks": 6216,
          "time": 24.28125,
          "velocity": 0.7874015748031497
        },
        {
          "duration": 0.046875,
          "durationTicks": 12,
          "midi": 43,
          "name": "G2",
          "ticks": 6288,
          "time": 24.5625,
          "velocity": 0.7874015748031497
        },
        {
          "duration": 0.046875,
          "durationTicks": 12,
          "midi": 43,
          "name": "G2",
          "ticks": 6312,
          "time": 24.65625,
          "velocity": 0.7874015748031497
        },
        {
          "duration": 0.046875,
          "durationTicks": 12,
          "midi": 43,
          "name": "G2",
          "ticks": 6384,
          "time": 24.9375,
          "velocity": 0.7874015748031497
        },
        {
          "duration": 0.046875,
          "durationTicks": 12,
          "midi": 43,
          "name": "G2",
          "ticks": 6408,
          "time": 25.03125,
          "velocity": 0.7874015748031497
        },
        {
          "duration": 0.046875,
          "durationTicks": 12,
          "midi": 43,
          "name": "G2",
          "ticks": 6480,
          "time": 25.3125,
          "velocity": 0.7874015748031497
        },
        {
          "duration": 0.046875,
          "durationTicks": 12,
          "midi": 43,
          "name": "G2",
          "ticks": 6504,
          "time": 25.40625,
          "velocity": 0.7874015748031497
        },
        {
          "duration": 0.046875,
          "durationTicks": 12,
          "midi": 44,
          "name": "G#2",
          "ticks": 6576,
          "time": 25.6875,
          "velocity": 0.7874015748031497
        },
        {
          "duration": 0.046875,
          "durationTicks": 12,
          "midi": 44,
          "name": "G#2",
          "ticks": 6600,
          "time": 25.78125,
          "velocity": 0.7874015748031497
        },
        {
          "duration": 0.046875,
          "durationTicks": 12,
          "midi": 44,
          "name": "G#2",
          "ticks": 6672,
          "time": 26.0625,
          "velocity": 0.7874015748031497
        },
        {
          "duration": 0.046875,
          "durationTicks": 12,
          "midi": 44,
          "name": "G#2",
          "ticks": 6696,
          "time": 26.15625,
          "velocity": 0.7874015748031497
        },
        {
          "duration": 0.046875,
          "durationTicks": 12,
          "midi": 43,
          "name": "G2",
          "ticks": 6768,
          "time": 26.4375,
          "velocity": 0.7874015748031497
        },
        {
          "duration": 0.046875,
          "durationTicks": 12,
          "midi": 43,
          "name": "G2",
          "ticks": 6792,
          "time": 26.53125,
          "velocity": 0.7874015748031497
        },
        {
          "duration": 0.046875,
          "durationTicks": 12,
          "midi": 43,
          "name": "G2",
          "ticks": 6864,
          "time": 26.8125,
          "velocity": 0.7874015748031497
        },
        {
          "duration": 0.046875,
          "durationTicks": 12,
          "midi": 43,
          "name": "G2",
          "ticks": 6888,
          "time": 26.90625,
          "velocity": 0.7874015748031497
        },
        {
          "duration": 0.046875,
          "durationTicks": 12,
          "midi": 48,
          "name": "C3",
          "ticks": 6960,
          "time": 27.1875,
          "velocity": 0.7874015748031497
        },
        {
          "duration": 0.046875,
          "durationTicks": 12,
          "midi": 48,
          "name": "C3",
          "ticks": 6984,
          "time": 27.28125,
          "velocity": 0.7874015748031497
        },
        {
          "duration": 0.046875,
          "durationTicks": 12,
          "midi": 48,
          "name": "C3",
          "ticks": 7056,
          "time": 27.5625,
          "velocity": 0.7874015748031497
        },
        {
          "duration": 0.046875,
          "durationTicks": 12,
          "midi": 48,
          "name": "C3",
          "ticks": 7080,
          "time": 27.65625,
          "velocity": 0.7874015748031497
        },
        {
          "duration": 0.046875,
          "durationTicks": 12,
          "midi": 46,
          "name": "A#2",
          "ticks": 7152,
          "time": 27.9375,
          "velocity": 0.7874015748031497
        },
        {
          "duration": 0.046875,
          "durationTicks": 12,
          "midi": 46,
          "name": "A#2",
          "ticks": 7176,
          "time": 28.03125,
          "velocity": 0.7874015748031497
        },
        {
          "duration": 0.046875,
          "durationTicks": 12,
          "midi": 46,
          "name": "A#2",
          "ticks": 7248,
          "time": 28.3125,
          "velocity": 0.7874015748031497
        },
        {
          "duration": 0.046875,
          "durationTicks": 12,
          "midi": 46,
          "name": "A#2",
          "ticks": 7272,
          "time": 28.40625,
          "velocity": 0.7874015748031497
        },
        {
          "duration": 0.046875,
          "durationTicks": 12,
          "midi": 44,
          "name": "G#2",
          "ticks": 7344,
          "time": 28.6875,
          "velocity": 0.7874015748031497
        },
        {
          "duration": 0.046875,
          "durationTicks": 12,
          "midi": 44,
          "name": "G#2",
          "ticks": 7368,
          "time": 28.78125,
          "velocity": 0.7874015748031497
        },
        {
          "duration": 0.046875,
          "durationTicks": 12,
          "midi": 44,
          "name": "G#2",
          "ticks": 7440,
          "time": 29.0625,
          "velocity": 0.7874015748031497
        },
        {
          "duration": 0.046875,
          "durationTicks": 12,
          "midi": 44,
          "name": "G#2",
          "ticks": 7464,
          "time": 29.15625,
          "velocity": 0.7874015748031497
        },
        {
          "duration": 0.046875,
          "durationTicks": 12,
          "midi": 46,
          "name": "A#2",
          "ticks": 7536,
          "time": 29.4375,
          "velocity": 0.7874015748031497
        },
        {
          "duration": 0.046875,
          "durationTicks": 12,
          "midi": 46,
          "name": "A#2",
          "ticks": 7560,
          "time": 29.53125,
          "velocity": 0.7874015748031497
        },
        {
          "duration": 0.046875,
          "durationTicks": 12,
          "midi": 46,
          "name": "A#2",
          "ticks": 7632,
          "time": 29.8125,
          "velocity": 0.7874015748031497
        },
        {
          "duration": 0.046875,
          "durationTicks": 12,
          "midi": 46,
          "name": "A#2",
          "ticks": 7656,
          "time": 29.90625,
          "velocity": 0.7874015748031497
        },
        {
          "duration": 0.046875,
          "durationTicks": 12,
          "midi": 51,
          "name": "D#3",
          "ticks": 7728,
          "time": 30.1875,
          "velocity": 0.7874015748031497
        },
        {
          "duration": 0.046875,
          "durationTicks": 12,
          "midi": 51,
          "name": "D#3",
          "ticks": 7752,
          "time": 30.28125,
          "velocity": 0.7874015748031497
        },
        {
          "duration": 0.046875,
          "durationTicks": 12,
          "midi": 51,
          "name": "D#3",
          "ticks": 7824,
          "time": 30.5625,
          "velocity": 0.7874015748031497
        },
        {
          "duration": 0.046875,
          "durationTicks": 12,
          "midi": 51,
          "name": "D#3",
          "ticks": 7848,
          "time": 30.65625,
          "velocity": 0.7874015748031497
        },
        {
          "duration": 0.046875,
          "durationTicks": 12,
          "midi": 52,
          "name": "E3",
          "ticks": 7920,
          "time": 30.9375,
          "velocity": 0.7874015748031497
        },
        {
          "duration": 0.046875,
          "durationTicks": 12,
          "midi": 52,
          "name": "E3",
          "ticks": 7944,
          "time": 31.03125,
          "velocity": 0.7874015748031497
        },
        {
          "duration": 0.046875,
          "durationTicks": 12,
          "midi": 52,
          "name": "E3",
          "ticks": 8016,
          "time": 31.3125,
          "velocity": 0.7874015748031497
        },
        {
          "duration": 0.046875,
          "durationTicks": 12,
          "midi": 52,
          "name": "E3",
          "ticks": 8040,
          "time": 31.40625,
          "velocity": 0.7874015748031497
        },
        {
          "duration": 0.046875,
          "durationTicks": 12,
          "midi": 41,
          "name": "F2",
          "ticks": 8112,
          "time": 31.6875,
          "velocity": 0.7874015748031497
        },
        {
          "duration": 0.046875,
          "durationTicks": 12,
          "midi": 41,
          "name": "F2",
          "ticks": 8136,
          "time": 31.78125,
          "velocity": 0.7874015748031497
        },
        {
          "duration": 0.046875,
          "durationTicks": 12,
          "midi": 41,
          "name": "F2",
          "ticks": 8208,
          "time": 32.0625,
          "velocity": 0.7874015748031497
        },
        {
          "duration": 0.046875,
          "durationTicks": 12,
          "midi": 41,
          "name": "F2",
          "ticks": 8232,
          "time": 32.15625,
          "velocity": 0.7874015748031497
        },
        {
          "duration": 0.046875,
          "durationTicks": 12,
          "midi": 46,
          "name": "A#2",
          "ticks": 8304,
          "time": 32.4375,
          "velocity": 0.7874015748031497
        },
        {
          "duration": 0.046875,
          "durationTicks": 12,
          "midi": 46,
          "name": "A#2",
          "ticks": 8328,
          "time": 32.53125,
          "velocity": 0.7874015748031497
        },
        {
          "duration": 0.046875,
          "durationTicks": 12,
          "midi": 46,
          "name": "A#2",
          "ticks": 8400,
          "time": 32.8125,
          "velocity": 0.7874015748031497
        },
        {
          "duration": 0.046875,
          "durationTicks": 12,
          "midi": 46,
          "name": "A#2",
          "ticks": 8424,
          "time": 32.90625,
          "velocity": 0.7874015748031497
        },
        {
          "duration": 0.046875,
          "durationTicks": 12,
          "midi": 47,
          "name": "B2",
          "ticks": 8496,
          "time": 33.1875,
          "velocity": 0.7874015748031497
        },
        {
          "duration": 0.046875,
          "durationTicks": 12,
          "midi": 47,
          "name": "B2",
          "ticks": 8520,
          "time": 33.28125,
          "velocity": 0.7874015748031497
        },
        {
          "duration": 0.046875,
          "durationTicks": 12,
          "midi": 47,
          "name": "B2",
          "ticks": 8592,
          "time": 33.5625,
          "velocity": 0.7874015748031497
        },
        {
          "duration": 0.046875,
          "durationTicks": 12,
          "midi": 47,
          "name": "B2",
          "ticks": 8616,
          "time": 33.65625,
          "velocity": 0.7874015748031497
        },
        {
          "duration": 0.046875,
          "durationTicks": 12,
          "midi": 48,
          "name": "C3",
          "ticks": 8688,
          "time": 33.9375,
          "velocity": 0.7874015748031497
        },
        {
          "duration": 0.046875,
          "durationTicks": 12,
          "midi": 48,
          "name": "C3",
          "ticks": 8712,
          "time": 34.03125,
          "velocity": 0.7874015748031497
        },
        {
          "duration": 0.046875,
          "durationTicks": 12,
          "midi": 46,
          "name": "A#2",
          "ticks": 8784,
          "time": 34.3125,
          "velocity": 0.7874015748031497
        },
        {
          "duration": 0.046875,
          "durationTicks": 12,
          "midi": 46,
          "name": "A#2",
          "ticks": 8808,
          "time": 34.40625,
          "velocity": 0.7874015748031497
        },
        {
          "duration": 0.046875,
          "durationTicks": 12,
          "midi": 44,
          "name": "G#2",
          "ticks": 8880,
          "time": 34.6875,
          "velocity": 0.7874015748031497
        },
        {
          "duration": 0.046875,
          "durationTicks": 12,
          "midi": 44,
          "name": "G#2",
          "ticks": 8904,
          "time": 34.78125,
          "velocity": 0.7874015748031497
        },
        {
          "duration": 0.046875,
          "durationTicks": 12,
          "midi": 44,
          "name": "G#2",
          "ticks": 8976,
          "time": 35.0625,
          "velocity": 0.7874015748031497
        },
        {
          "duration": 0.046875,
          "durationTicks": 12,
          "midi": 44,
          "name": "G#2",
          "ticks": 9000,
          "time": 35.15625,
          "velocity": 0.7874015748031497
        },
        {
          "duration": 0.046875,
          "durationTicks": 12,
          "midi": 46,
          "name": "A#2",
          "ticks": 9072,
          "time": 35.4375,
          "velocity": 0.7874015748031497
        },
        {
          "duration": 0.046875,
          "durationTicks": 12,
          "midi": 46,
          "name": "A#2",
          "ticks": 9096,
          "time": 35.53125,
          "velocity": 0.7874015748031497
        },
        {
          "duration": 0.046875,
          "durationTicks": 12,
          "midi": 46,
          "name": "A#2",
          "ticks": 9168,
          "time": 35.8125,
          "velocity": 0.7874015748031497
        },
        {
          "duration": 0.046875,
          "durationTicks": 12,
          "midi": 46,
          "name": "A#2",
          "ticks": 9192,
          "time": 35.90625,
          "velocity": 0.7874015748031497
        },
        {
          "duration": 0.046875,
          "durationTicks": 12,
          "midi": 48,
          "name": "C3",
          "ticks": 9264,
          "time": 36.1875,
          "velocity": 0.7874015748031497
        },
        {
          "duration": 0.046875,
          "durationTicks": 12,
          "midi": 48,
          "name": "C3",
          "ticks": 9288,
          "time": 36.28125,
          "velocity": 0.7874015748031497
        },
        {
          "duration": 0.046875,
          "durationTicks": 12,
          "midi": 48,
          "name": "C3",
          "ticks": 9360,
          "time": 36.5625,
          "velocity": 0.7874015748031497
        },
        {
          "duration": 0.046875,
          "durationTicks": 12,
          "midi": 48,
          "name": "C3",
          "ticks": 9384,
          "time": 36.65625,
          "velocity": 0.7874015748031497
        },
        {
          "duration": 0.046875,
          "durationTicks": 12,
          "midi": 48,
          "name": "C3",
          "ticks": 9456,
          "time": 36.9375,
          "velocity": 0.7874015748031497
        },
        {
          "duration": 0.046875,
          "durationTicks": 12,
          "midi": 48,
          "name": "C3",
          "ticks": 9480,
          "time": 37.03125,
          "velocity": 0.7874015748031497
        },
        {
          "duration": 0.046875,
          "durationTicks": 12,
          "midi": 48,
          "name": "C3",
          "ticks": 9552,
          "time": 37.3125,
          "velocity": 0.7874015748031497
        },
        {
          "duration": 0.046875,
          "durationTicks": 12,
          "midi": 48,
          "name": "C3",
          "ticks": 9576,
          "time": 37.40625,
          "velocity": 0.7874015748031497
        },
        {
          "duration": 0.046875,
          "durationTicks": 12,
          "midi": 36,
          "name": "C2",
          "ticks": 9648,
          "time": 37.6875,
          "velocity": 0.7874015748031497
        },
        {
          "duration": 0.046875,
          "durationTicks": 12,
          "midi": 36,
          "name": "C2",
          "ticks": 9672,
          "time": 37.78125,
          "velocity": 0.7874015748031497
        },
        {
          "duration": 0.046875,
          "durationTicks": 12,
          "midi": 36,
          "name": "C2",
          "ticks": 9744,
          "time": 38.0625,
          "velocity": 0.7874015748031497
        },
        {
          "duration": 0.046875,
          "durationTicks": 12,
          "midi": 36,
          "name": "C2",
          "ticks": 9768,
          "time": 38.15625,
          "velocity": 0.7874015748031497
        },
        {
          "duration": 0.046875,
          "durationTicks": 12,
          "midi": 36,
          "name": "C2",
          "ticks": 9840,
          "time": 38.4375,
          "velocity": 0.7874015748031497
        },
        {
          "duration": 0.046875,
          "durationTicks": 12,
          "midi": 36,
          "name": "C2",
          "ticks": 9864,
          "time": 38.53125,
          "velocity": 0.7874015748031497
        },
        {
          "duration": 0.046875,
          "durationTicks": 12,
          "midi": 36,
          "name": "C2",
          "ticks": 9936,
          "time": 38.8125,
          "velocity": 0.7874015748031497
        },
        {
          "duration": 0.046875,
          "durationTicks": 12,
          "midi": 36,
          "name": "C2",
          "ticks": 9960,
          "time": 38.90625,
          "velocity": 0.7874015748031497
        },
        {
          "duration": 0.046875,
          "durationTicks": 12,
          "midi": 36,
          "name": "C2",
          "ticks": 10032,
          "time": 39.1875,
          "velocity": 0.7874015748031497
        },
        {
          "duration": 0.046875,
          "durationTicks": 12,
          "midi": 36,
          "name": "C2",
          "ticks": 10056,
          "time": 39.28125,
          "velocity": 0.7874015748031497
        },
        {
          "duration": 0.046875,
          "durationTicks": 12,
          "midi": 36,
          "name": "C2",
          "ticks": 10128,
          "time": 39.5625,
          "velocity": 0.7874015748031497
        },
        {
          "duration": 0.046875,
          "durationTicks": 12,
          "midi": 36,
          "name": "C2",
          "ticks": 10152,
          "time": 39.65625,
          "velocity": 0.7874015748031497
        },
        {
          "duration": 0.046875,
          "durationTicks": 12,
          "midi": 44,
          "name": "G#2",
          "ticks": 10224,
          "time": 39.9375,
          "velocity": 0.7874015748031497
        },
        {
          "duration": 0.046875,
          "durationTicks": 12,
          "midi": 44,
          "name": "G#2",
          "ticks": 10248,
          "time": 40.03125,
          "velocity": 0.7874015748031497
        },
        {
          "duration": 0.046875,
          "durationTicks": 12,
          "midi": 47,
          "name": "B2",
          "ticks": 10320,
          "time": 40.3125,
          "velocity": 0.7874015748031497
        },
        {
          "duration": 0.046875,
          "durationTicks": 12,
          "midi": 47,
          "name": "B2",
          "ticks": 10344,
          "time": 40.40625,
          "velocity": 0.7874015748031497
        },
        {
          "duration": 0.046875,
          "durationTicks": 12,
          "midi": 36,
          "name": "C2",
          "ticks": 10416,
          "time": 40.6875,
          "velocity": 0.7874015748031497
        },
        {
          "duration": 0.046875,
          "durationTicks": 12,
          "midi": 36,
          "name": "C2",
          "ticks": 10440,
          "time": 40.78125,
          "velocity": 0.7874015748031497
        },
        {
          "duration": 0.046875,
          "durationTicks": 12,
          "midi": 36,
          "name": "C2",
          "ticks": 10512,
          "time": 41.0625,
          "velocity": 0.7874015748031497
        },
        {
          "duration": 0.046875,
          "durationTicks": 12,
          "midi": 36,
          "name": "C2",
          "ticks": 10536,
          "time": 41.15625,
          "velocity": 0.7874015748031497
        },
        {
          "duration": 0.046875,
          "durationTicks": 12,
          "midi": 36,
          "name": "C2",
          "ticks": 10608,
          "time": 41.4375,
          "velocity": 0.7874015748031497
        },
        {
          "duration": 0.046875,
          "durationTicks": 12,
          "midi": 36,
          "name": "C2",
          "ticks": 10632,
          "time": 41.53125,
          "velocity": 0.7874015748031497
        },
        {
          "duration": 0.046875,
          "durationTicks": 12,
          "midi": 36,
          "name": "C2",
          "ticks": 10704,
          "time": 41.8125,
          "velocity": 0.7874015748031497
        },
        {
          "duration": 0.046875,
          "durationTicks": 12,
          "midi": 36,
          "name": "C2",
          "ticks": 10728,
          "time": 41.90625,
          "velocity": 0.7874015748031497
        },
        {
          "duration": 0.046875,
          "durationTicks": 12,
          "midi": 36,
          "name": "C2",
          "ticks": 10800,
          "time": 42.1875,
          "velocity": 0.7874015748031497
        },
        {
          "duration": 0.046875,
          "durationTicks": 12,
          "midi": 36,
          "name": "C2",
          "ticks": 10824,
          "time": 42.28125,
          "velocity": 0.7874015748031497
        },
        {
          "duration": 0.046875,
          "durationTicks": 12,
          "midi": 36,
          "name": "C2",
          "ticks": 10896,
          "time": 42.5625,
          "velocity": 0.7874015748031497
        },
        {
          "duration": 0.046875,
          "durationTicks": 12,
          "midi": 36,
          "name": "C2",
          "ticks": 10920,
          "time": 42.65625,
          "velocity": 0.7874015748031497
        },
        {
          "duration": 0.046875,
          "durationTicks": 12,
          "midi": 44,
          "name": "G#2",
          "ticks": 10992,
          "time": 42.9375,
          "velocity": 0.7874015748031497
        },
        {
          "duration": 0.046875,
          "durationTicks": 12,
          "midi": 44,
          "name": "G#2",
          "ticks": 11016,
          "time": 43.03125,
          "velocity": 0.7874015748031497
        },
        {
          "duration": 0.046875,
          "durationTicks": 12,
          "midi": 38,
          "name": "D2",
          "ticks": 11088,
          "time": 43.3125,
          "velocity": 0.7874015748031497
        },
        {
          "duration": 0.046875,
          "durationTicks": 12,
          "midi": 38,
          "name": "D2",
          "ticks": 11112,
          "time": 43.40625,
          "velocity": 0.7874015748031497
        },
        {
          "duration": 0.046875,
          "durationTicks": 12,
          "midi": 36,
          "name": "C2",
          "ticks": 11184,
          "time": 43.6875,
          "velocity": 0.7874015748031497
        },
        {
          "duration": 0.046875,
          "durationTicks": 12,
          "midi": 36,
          "name": "C2",
          "ticks": 11208,
          "time": 43.78125,
          "velocity": 0.7874015748031497
        },
        {
          "duration": 0.046875,
          "durationTicks": 12,
          "midi": 36,
          "name": "C2",
          "ticks": 11280,
          "time": 44.0625,
          "velocity": 0.7874015748031497
        },
        {
          "duration": 0.046875,
          "durationTicks": 12,
          "midi": 36,
          "name": "C2",
          "ticks": 11304,
          "time": 44.15625,
          "velocity": 0.7874015748031497
        },
        {
          "duration": 0.046875,
          "durationTicks": 12,
          "midi": 36,
          "name": "C2",
          "ticks": 11376,
          "time": 44.4375,
          "velocity": 0.7874015748031497
        },
        {
          "duration": 0.046875,
          "durationTicks": 12,
          "midi": 36,
          "name": "C2",
          "ticks": 11400,
          "time": 44.53125,
          "velocity": 0.7874015748031497
        },
        {
          "duration": 0.046875,
          "durationTicks": 12,
          "midi": 36,
          "name": "C2",
          "ticks": 11472,
          "time": 44.8125,
          "velocity": 0.7874015748031497
        },
        {
          "duration": 0.046875,
          "durationTicks": 12,
          "midi": 36,
          "name": "C2",
          "ticks": 11496,
          "time": 44.90625,
          "velocity": 0.7874015748031497
        },
        {
          "duration": 0.046875,
          "durationTicks": 12,
          "midi": 36,
          "name": "C2",
          "ticks": 11568,
          "time": 45.1875,
          "velocity": 0.7874015748031497
        },
        {
          "duration": 0.046875,
          "durationTicks": 12,
          "midi": 36,
          "name": "C2",
          "ticks": 11592,
          "time": 45.28125,
          "velocity": 0.7874015748031497
        },
        {
          "duration": 0.046875,
          "durationTicks": 12,
          "midi": 36,
          "name": "C2",
          "ticks": 11664,
          "time": 45.5625,
          "velocity": 0.7874015748031497
        },
        {
          "duration": 0.046875,
          "durationTicks": 12,
          "midi": 36,
          "name": "C2",
          "ticks": 11688,
          "time": 45.65625,
          "velocity": 0.7874015748031497
        },
        {
          "duration": 0.046875,
          "durationTicks": 12,
          "midi": 44,
          "name": "G#2",
          "ticks": 11760,
          "time": 45.9375,
          "velocity": 0.7874015748031497
        },
        {
          "duration": 0.046875,
          "durationTicks": 12,
          "midi": 44,
          "name": "G#2",
          "ticks": 11784,
          "time": 46.03125,
          "velocity": 0.7874015748031497
        },
        {
          "duration": 0.046875,
          "durationTicks": 12,
          "midi": 47,
          "name": "B2",
          "ticks": 11856,
          "time": 46.3125,
          "velocity": 0.7874015748031497
        },
        {
          "duration": 0.046875,
          "durationTicks": 12,
          "midi": 47,
          "name": "B2",
          "ticks": 11880,
          "time": 46.40625,
          "velocity": 0.7874015748031497
        },
        {
          "duration": 0.046875,
          "durationTicks": 12,
          "midi": 36,
          "name": "C2",
          "ticks": 11952,
          "time": 46.6875,
          "velocity": 0.7874015748031497
        },
        {
          "duration": 0.046875,
          "durationTicks": 12,
          "midi": 36,
          "name": "C2",
          "ticks": 11976,
          "time": 46.78125,
          "velocity": 0.7874015748031497
        },
        {
          "duration": 0.046875,
          "durationTicks": 12,
          "midi": 36,
          "name": "C2",
          "ticks": 12048,
          "time": 47.0625,
          "velocity": 0.7874015748031497
        },
        {
          "duration": 0.046875,
          "durationTicks": 12,
          "midi": 36,
          "name": "C2",
          "ticks": 12072,
          "time": 47.15625,
          "velocity": 0.7874015748031497
        },
        {
          "duration": 0.046875,
          "durationTicks": 12,
          "midi": 36,
          "name": "C2",
          "ticks": 12144,
          "time": 47.4375,
          "velocity": 0.7874015748031497
        },
        {
          "duration": 0.046875,
          "durationTicks": 12,
          "midi": 36,
          "name": "C2",
          "ticks": 12168,
          "time": 47.53125,
          "velocity": 0.7874015748031497
        },
        {
          "duration": 0.046875,
          "durationTicks": 12,
          "midi": 36,
          "name": "C2",
          "ticks": 12240,
          "time": 47.8125,
          "velocity": 0.7874015748031497
        },
        {
          "duration": 0.046875,
          "durationTicks": 12,
          "midi": 36,
          "name": "C2",
          "ticks": 12264,
          "time": 47.90625,
          "velocity": 0.7874015748031497
        },
        {
          "duration": 0.046875,
          "durationTicks": 12,
          "midi": 36,
          "name": "C2",
          "ticks": 12432,
          "time": 48.5625,
          "velocity": 0.7874015748031497
        },
        {
          "duration": 0.046875,
          "durationTicks": 12,
          "midi": 36,
          "name": "C2",
          "ticks": 12456,
          "time": 48.65625,
          "velocity": 0.7874015748031497
        },
        {
          "duration": 0.046875,
          "durationTicks": 12,
          "midi": 36,
          "name": "C2",
          "ticks": 12528,
          "time": 48.9375,
          "velocity": 0.7874015748031497
        },
        {
          "duration": 0.046875,
          "durationTicks": 12,
          "midi": 36,
          "name": "C2",
          "ticks": 12552,
          "time": 49.03125,
          "velocity": 0.7874015748031497
        },
        {
          "duration": 0.046875,
          "durationTicks": 12,
          "midi": 36,
          "name": "C2",
          "ticks": 12720,
          "time": 49.6875,
          "velocity": 0.7874015748031497
        },
        {
          "duration": 0.046875,
          "durationTicks": 12,
          "midi": 36,
          "name": "C2",
          "ticks": 12744,
          "time": 49.78125,
          "velocity": 0.7874015748031497
        },
        {
          "duration": 0.046875,
          "durationTicks": 12,
          "midi": 36,
          "name": "C2",
          "ticks": 12816,
          "time": 50.0625,
          "velocity": 0.7874015748031497
        },
        {
          "duration": 0.046875,
          "durationTicks": 12,
          "midi": 36,
          "name": "C2",
          "ticks": 12840,
          "time": 50.15625,
          "velocity": 0.7874015748031497
        },
        {
          "duration": 0.046875,
          "durationTicks": 12,
          "midi": 36,
          "name": "C2",
          "ticks": 12912,
          "time": 50.4375,
          "velocity": 0.7874015748031497
        },
        {
          "duration": 0.046875,
          "durationTicks": 12,
          "midi": 36,
          "name": "C2",
          "ticks": 12936,
          "time": 50.53125,
          "velocity": 0.7874015748031497
        },
        {
          "duration": 0.046875,
          "durationTicks": 12,
          "midi": 36,
          "name": "C2",
          "ticks": 13008,
          "time": 50.8125,
          "velocity": 0.7874015748031497
        },
        {
          "duration": 0.046875,
          "durationTicks": 12,
          "midi": 36,
          "name": "C2",
          "ticks": 13032,
          "time": 50.90625,
          "velocity": 0.7874015748031497
        },
        {
          "duration": 0.046875,
          "durationTicks": 12,
          "midi": 36,
          "name": "C2",
          "ticks": 13104,
          "time": 51.1875,
          "velocity": 0.7874015748031497
        },
        {
          "duration": 0.046875,
          "durationTicks": 12,
          "midi": 36,
          "name": "C2",
          "ticks": 13128,
          "time": 51.28125,
          "velocity": 0.7874015748031497
        },
        {
          "duration": 0.046875,
          "durationTicks": 12,
          "midi": 36,
          "name": "C2",
          "ticks": 13200,
          "time": 51.5625,
          "velocity": 0.7874015748031497
        },
        {
          "duration": 0.046875,
          "durationTicks": 12,
          "midi": 36,
          "name": "C2",
          "ticks": 13224,
          "time": 51.65625,
          "velocity": 0.7874015748031497
        },
        {
          "duration": 0.046875,
          "durationTicks": 12,
          "midi": 44,
          "name": "G#2",
          "ticks": 13296,
          "time": 51.9375,
          "velocity": 0.7874015748031497
        },
        {
          "duration": 0.046875,
          "durationTicks": 12,
          "midi": 44,
          "name": "G#2",
          "ticks": 13320,
          "time": 52.03125,
          "velocity": 0.7874015748031497
        },
        {
          "duration": 0.046875,
          "durationTicks": 12,
          "midi": 47,
          "name": "B2",
          "ticks": 13392,
          "time": 52.3125,
          "velocity": 0.7874015748031497
        },
        {
          "duration": 0.046875,
          "durationTicks": 12,
          "midi": 47,
          "name": "B2",
          "ticks": 13416,
          "time": 52.40625,
          "velocity": 0.7874015748031497
        },
        {
          "duration": 0.046875,
          "durationTicks": 12,
          "midi": 36,
          "name": "C2",
          "ticks": 13488,
          "time": 52.6875,
          "velocity": 0.7874015748031497
        },
        {
          "duration": 0.046875,
          "durationTicks": 12,
          "midi": 36,
          "name": "C2",
          "ticks": 13512,
          "time": 52.78125,
          "velocity": 0.7874015748031497
        },
        {
          "duration": 0.046875,
          "durationTicks": 12,
          "midi": 36,
          "name": "C2",
          "ticks": 13584,
          "time": 53.0625,
          "velocity": 0.7874015748031497
        },
        {
          "duration": 0.046875,
          "durationTicks": 12,
          "midi": 36,
          "name": "C2",
          "ticks": 13608,
          "time": 53.15625,
          "velocity": 0.7874015748031497
        },
        {
          "duration": 0.046875,
          "durationTicks": 12,
          "midi": 36,
          "name": "C2",
          "ticks": 13680,
          "time": 53.4375,
          "velocity": 0.7874015748031497
        },
        {
          "duration": 0.046875,
          "durationTicks": 12,
          "midi": 36,
          "name": "C2",
          "ticks": 13704,
          "time": 53.53125,
          "velocity": 0.7874015748031497
        },
        {
          "duration": 0.046875,
          "durationTicks": 12,
          "midi": 36,
          "name": "C2",
          "ticks": 13776,
          "time": 53.8125,
          "velocity": 0.7874015748031497
        },
        {
          "duration": 0.046875,
          "durationTicks": 12,
          "midi": 36,
          "name": "C2",
          "ticks": 13800,
          "time": 53.90625,
          "velocity": 0.7874015748031497
        },
        {
          "duration": 0.046875,
          "durationTicks": 12,
          "midi": 36,
          "name": "C2",
          "ticks": 13872,
          "time": 54.1875,
          "velocity": 0.7874015748031497
        },
        {
          "duration": 0.046875,
          "durationTicks": 12,
          "midi": 36,
          "name": "C2",
          "ticks": 13896,
          "time": 54.28125,
          "velocity": 0.7874015748031497
        },
        {
          "duration": 0.046875,
          "durationTicks": 12,
          "midi": 36,
          "name": "C2",
          "ticks": 13968,
          "time": 54.5625,
          "velocity": 0.7874015748031497
        },
        {
          "duration": 0.046875,
          "durationTicks": 12,
          "midi": 36,
          "name": "C2",
          "ticks": 13992,
          "time": 54.65625,
          "velocity": 0.7874015748031497
        },
        {
          "duration": 0.046875,
          "durationTicks": 12,
          "midi": 44,
          "name": "G#2",
          "ticks": 14064,
          "time": 54.9375,
          "velocity": 0.7874015748031497
        },
        {
          "duration": 0.046875,
          "durationTicks": 12,
          "midi": 44,
          "name": "G#2",
          "ticks": 14088,
          "time": 55.03125,
          "velocity": 0.7874015748031497
        },
        {
          "duration": 0.046875,
          "durationTicks": 12,
          "midi": 38,
          "name": "D2",
          "ticks": 14160,
          "time": 55.3125,
          "velocity": 0.7874015748031497
        },
        {
          "duration": 0.046875,
          "durationTicks": 12,
          "midi": 38,
          "name": "D2",
          "ticks": 14184,
          "time": 55.40625,
          "velocity": 0.7874015748031497
        },
        {
          "duration": 0.046875,
          "durationTicks": 12,
          "midi": 36,
          "name": "C2",
          "ticks": 14256,
          "time": 55.6875,
          "velocity": 0.7874015748031497
        },
        {
          "duration": 0.046875,
          "durationTicks": 12,
          "midi": 36,
          "name": "C2",
          "ticks": 14280,
          "time": 55.78125,
          "velocity": 0.7874015748031497
        },
        {
          "duration": 0.046875,
          "durationTicks": 12,
          "midi": 36,
          "name": "C2",
          "ticks": 14352,
          "time": 56.0625,
          "velocity": 0.7874015748031497
        },
        {
          "duration": 0.046875,
          "durationTicks": 12,
          "midi": 36,
          "name": "C2",
          "ticks": 14376,
          "time": 56.15625,
          "velocity": 0.7874015748031497
        },
        {
          "duration": 0.046875,
          "durationTicks": 12,
          "midi": 36,
          "name": "C2",
          "ticks": 14448,
          "time": 56.4375,
          "velocity": 0.7874015748031497
        },
        {
          "duration": 0.046875,
          "durationTicks": 12,
          "midi": 36,
          "name": "C2",
          "ticks": 14472,
          "time": 56.53125,
          "velocity": 0.7874015748031497
        },
        {
          "duration": 0.046875,
          "durationTicks": 12,
          "midi": 36,
          "name": "C2",
          "ticks": 14544,
          "time": 56.8125,
          "velocity": 0.7874015748031497
        },
        {
          "duration": 0.046875,
          "durationTicks": 12,
          "midi": 36,
          "name": "C2",
          "ticks": 14568,
          "time": 56.90625,
          "velocity": 0.7874015748031497
        },
        {
          "duration": 0.046875,
          "durationTicks": 12,
          "midi": 36,
          "name": "C2",
          "ticks": 14640,
          "time": 57.1875,
          "velocity": 0.7874015748031497
        },
        {
          "duration": 0.046875,
          "durationTicks": 12,
          "midi": 36,
          "name": "C2",
          "ticks": 14664,
          "time": 57.28125,
          "velocity": 0.7874015748031497
        },
        {
          "duration": 0.046875,
          "durationTicks": 12,
          "midi": 36,
          "name": "C2",
          "ticks": 14736,
          "time": 57.5625,
          "velocity": 0.7874015748031497
        },
        {
          "duration": 0.046875,
          "durationTicks": 12,
          "midi": 36,
          "name": "C2",
          "ticks": 14760,
          "time": 57.65625,
          "velocity": 0.7874015748031497
        },
        {
          "duration": 0.046875,
          "durationTicks": 12,
          "midi": 44,
          "name": "G#2",
          "ticks": 14832,
          "time": 57.9375,
          "velocity": 0.7874015748031497
        },
        {
          "duration": 0.046875,
          "durationTicks": 12,
          "midi": 44,
          "name": "G#2",
          "ticks": 14856,
          "time": 58.03125,
          "velocity": 0.7874015748031497
        },
        {
          "duration": 0.046875,
          "durationTicks": 12,
          "midi": 47,
          "name": "B2",
          "ticks": 14928,
          "time": 58.3125,
          "velocity": 0.7874015748031497
        },
        {
          "duration": 0.046875,
          "durationTicks": 12,
          "midi": 47,
          "name": "B2",
          "ticks": 14952,
          "time": 58.40625,
          "velocity": 0.7874015748031497
        },
        {
          "duration": 0.046875,
          "durationTicks": 12,
          "midi": 36,
          "name": "C2",
          "ticks": 15024,
          "time": 58.6875,
          "velocity": 0.7874015748031497
        },
        {
          "duration": 0.046875,
          "durationTicks": 12,
          "midi": 36,
          "name": "C2",
          "ticks": 15048,
          "time": 58.78125,
          "velocity": 0.7874015748031497
        },
        {
          "duration": 0.046875,
          "durationTicks": 12,
          "midi": 36,
          "name": "C2",
          "ticks": 15120,
          "time": 59.0625,
          "velocity": 0.7874015748031497
        },
        {
          "duration": 0.046875,
          "durationTicks": 12,
          "midi": 36,
          "name": "C2",
          "ticks": 15144,
          "time": 59.15625,
          "velocity": 0.7874015748031497
        },
        {
          "duration": 0.046875,
          "durationTicks": 12,
          "midi": 36,
          "name": "C2",
          "ticks": 15216,
          "time": 59.4375,
          "velocity": 0.7874015748031497
        },
        {
          "duration": 0.046875,
          "durationTicks": 12,
          "midi": 36,
          "name": "C2",
          "ticks": 15240,
          "time": 59.53125,
          "velocity": 0.7874015748031497
        },
        {
          "duration": 0.046875,
          "durationTicks": 12,
          "midi": 36,
          "name": "C2",
          "ticks": 15312,
          "time": 59.8125,
          "velocity": 0.7874015748031497
        },
        {
          "duration": 0.046875,
          "durationTicks": 12,
          "midi": 36,
          "name": "C2",
          "ticks": 15336,
          "time": 59.90625,
          "velocity": 0.7874015748031497
        },
        {
          "duration": 0.046875,
          "durationTicks": 12,
          "midi": 43,
          "name": "G2",
          "ticks": 15408,
          "time": 60.1875,
          "velocity": 0.7874015748031497
        },
        {
          "duration": 0.046875,
          "durationTicks": 12,
          "midi": 43,
          "name": "G2",
          "ticks": 15432,
          "time": 60.28125,
          "velocity": 0.7874015748031497
        },
        {
          "duration": 0.046875,
          "durationTicks": 12,
          "midi": 43,
          "name": "G2",
          "ticks": 15504,
          "time": 60.5625,
          "velocity": 0.7874015748031497
        },
        {
          "duration": 0.046875,
          "durationTicks": 12,
          "midi": 43,
          "name": "G2",
          "ticks": 15528,
          "time": 60.65625,
          "velocity": 0.7874015748031497
        },
        {
          "duration": 0.046875,
          "durationTicks": 12,
          "midi": 43,
          "name": "G2",
          "ticks": 15600,
          "time": 60.9375,
          "velocity": 0.7874015748031497
        },
        {
          "duration": 0.046875,
          "durationTicks": 12,
          "midi": 43,
          "name": "G2",
          "ticks": 15624,
          "time": 61.03125,
          "velocity": 0.7874015748031497
        },
        {
          "duration": 0.046875,
          "durationTicks": 12,
          "midi": 43,
          "name": "G2",
          "ticks": 15688,
          "time": 61.28125,
          "velocity": 0.7874015748031497
        },
        {
          "duration": 0.046875,
          "durationTicks": 12,
          "midi": 43,
          "name": "G2",
          "ticks": 15712,
          "time": 61.375,
          "velocity": 0.7874015748031497
        },
        {
          "duration": 0.171875,
          "durationTicks": 44,
          "midi": 44,
          "name": "G#2",
          "ticks": 18864,
          "time": 73.6875,
          "velocity": 0.7874015748031497
        },
        {
          "duration": 0.171875,
          "durationTicks": 44,
          "midi": 44,
          "name": "G#2",
          "ticks": 18960,
          "time": 74.0625,
          "velocity": 0.7874015748031497
        },
        {
          "duration": 0.171875,
          "durationTicks": 44,
          "midi": 43,
          "name": "G2",
          "ticks": 19056,
          "time": 74.4375,
          "velocity": 0.7874015748031497
        },
        {
          "duration": 0.171875,
          "durationTicks": 44,
          "midi": 43,
          "name": "G2",
          "ticks": 19152,
          "time": 74.8125,
          "velocity": 0.7874015748031497
        },
        {
          "duration": 0.171875,
          "durationTicks": 44,
          "midi": 48,
          "name": "C3",
          "ticks": 19248,
          "time": 75.1875,
          "velocity": 0.7874015748031497
        },
        {
          "duration": 0.171875,
          "durationTicks": 44,
          "midi": 48,
          "name": "C3",
          "ticks": 19344,
          "time": 75.5625,
          "velocity": 0.7874015748031497
        },
        {
          "duration": 0.171875,
          "durationTicks": 44,
          "midi": 47,
          "name": "B2",
          "ticks": 19440,
          "time": 75.9375,
          "velocity": 0.7874015748031497
        },
        {
          "duration": 0.171875,
          "durationTicks": 44,
          "midi": 47,
          "name": "B2",
          "ticks": 19536,
          "time": 76.3125,
          "velocity": 0.7874015748031497
        },
        {
          "duration": 0.171875,
          "durationTicks": 44,
          "midi": 48,
          "name": "C3",
          "ticks": 19632,
          "time": 76.6875,
          "velocity": 0.7874015748031497
        },
        {
          "duration": 0.171875,
          "durationTicks": 44,
          "midi": 48,
          "name": "C3",
          "ticks": 19728,
          "time": 77.0625,
          "velocity": 0.7874015748031497
        },
        {
          "duration": 0.171875,
          "durationTicks": 44,
          "midi": 49,
          "name": "C#3",
          "ticks": 19824,
          "time": 77.4375,
          "velocity": 0.7874015748031497
        },
        {
          "duration": 0.171875,
          "durationTicks": 44,
          "midi": 49,
          "name": "C#3",
          "ticks": 19920,
          "time": 77.8125,
          "velocity": 0.7874015748031497
        },
        {
          "duration": 0.171875,
          "durationTicks": 44,
          "midi": 42,
          "name": "F#2",
          "ticks": 20016,
          "time": 78.1875,
          "velocity": 0.7874015748031497
        },
        {
          "duration": 0.171875,
          "durationTicks": 44,
          "midi": 42,
          "name": "F#2",
          "ticks": 20112,
          "time": 78.5625,
          "velocity": 0.7874015748031497
        },
        {
          "duration": 0.171875,
          "durationTicks": 44,
          "midi": 43,
          "name": "G2",
          "ticks": 20208,
          "time": 78.9375,
          "velocity": 0.7874015748031497
        },
        {
          "duration": 0.171875,
          "durationTicks": 44,
          "midi": 43,
          "name": "G2",
          "ticks": 20304,
          "time": 79.3125,
          "velocity": 0.7874015748031497
        },
        {
          "duration": 0.046875,
          "durationTicks": 12,
          "midi": 48,
          "name": "C3",
          "ticks": 20400,
          "time": 79.6875,
          "velocity": 0.7874015748031497
        },
        {
          "duration": 0.046875,
          "durationTicks": 12,
          "midi": 48,
          "name": "C3",
          "ticks": 20424,
          "time": 79.78125,
          "velocity": 0.7874015748031497
        },
        {
          "duration": 0.046875,
          "durationTicks": 12,
          "midi": 48,
          "name": "C3",
          "ticks": 20496,
          "time": 80.0625,
          "velocity": 0.7874015748031497
        },
        {
          "duration": 0.046875,
          "durationTicks": 12,
          "midi": 48,
          "name": "C3",
          "ticks": 20520,
          "time": 80.15625,
          "velocity": 0.7874015748031497
        },
        {
          "duration": 0.046875,
          "durationTicks": 12,
          "midi": 52,
          "name": "E3",
          "ticks": 20592,
          "time": 80.4375,
          "velocity": 0.7874015748031497
        },
        {
          "duration": 0.046875,
          "durationTicks": 12,
          "midi": 52,
          "name": "E3",
          "ticks": 20616,
          "time": 80.53125,
          "velocity": 0.7874015748031497
        },
        {
          "duration": 0.046875,
          "durationTicks": 12,
          "midi": 52,
          "name": "E3",
          "ticks": 20688,
          "time": 80.8125,
          "velocity": 0.7874015748031497
        },
        {
          "duration": 0.046875,
          "durationTicks": 12,
          "midi": 52,
          "name": "E3",
          "ticks": 20712,
          "time": 80.90625,
          "velocity": 0.7874015748031497
        },
        {
          "duration": 0.046875,
          "durationTicks": 12,
          "midi": 53,
          "name": "F3",
          "ticks": 20784,
          "time": 81.1875,
          "velocity": 0.7874015748031497
        },
        {
          "duration": 0.046875,
          "durationTicks": 12,
          "midi": 53,
          "name": "F3",
          "ticks": 20808,
          "time": 81.28125,
          "velocity": 0.7874015748031497
        },
        {
          "duration": 0.046875,
          "durationTicks": 12,
          "midi": 53,
          "name": "F3",
          "ticks": 20880,
          "time": 81.5625,
          "velocity": 0.7874015748031497
        },
        {
          "duration": 0.046875,
          "durationTicks": 12,
          "midi": 53,
          "name": "F3",
          "ticks": 20904,
          "time": 81.65625,
          "velocity": 0.7874015748031497
        },
        {
          "duration": 0.046875,
          "durationTicks": 12,
          "midi": 46,
          "name": "A#2",
          "ticks": 20976,
          "time": 81.9375,
          "velocity": 0.7874015748031497
        },
        {
          "duration": 0.046875,
          "durationTicks": 12,
          "midi": 46,
          "name": "A#2",
          "ticks": 21000,
          "time": 82.03125,
          "velocity": 0.7874015748031497
        },
        {
          "duration": 0.046875,
          "durationTicks": 12,
          "midi": 46,
          "name": "A#2",
          "ticks": 21072,
          "time": 82.3125,
          "velocity": 0.7874015748031497
        },
        {
          "duration": 0.046875,
          "durationTicks": 12,
          "midi": 46,
          "name": "A#2",
          "ticks": 21096,
          "time": 82.40625,
          "velocity": 0.7874015748031497
        },
        {
          "duration": 0.046875,
          "durationTicks": 12,
          "midi": 51,
          "name": "D#3",
          "ticks": 21168,
          "time": 82.6875,
          "velocity": 0.7874015748031497
        },
        {
          "duration": 0.046875,
          "durationTicks": 12,
          "midi": 51,
          "name": "D#3",
          "ticks": 21192,
          "time": 82.78125,
          "velocity": 0.7874015748031497
        },
        {
          "duration": 0.046875,
          "durationTicks": 12,
          "midi": 51,
          "name": "D#3",
          "ticks": 21264,
          "time": 83.0625,
          "velocity": 0.7874015748031497
        },
        {
          "duration": 0.046875,
          "durationTicks": 12,
          "midi": 51,
          "name": "D#3",
          "ticks": 21288,
          "time": 83.15625,
          "velocity": 0.7874015748031497
        },
        {
          "duration": 0.046875,
          "durationTicks": 12,
          "midi": 44,
          "name": "G#2",
          "ticks": 21360,
          "time": 83.4375,
          "velocity": 0.7874015748031497
        },
        {
          "duration": 0.046875,
          "durationTicks": 12,
          "midi": 44,
          "name": "G#2",
          "ticks": 21384,
          "time": 83.53125,
          "velocity": 0.7874015748031497
        },
        {
          "duration": 0.046875,
          "durationTicks": 12,
          "midi": 44,
          "name": "G#2",
          "ticks": 21456,
          "time": 83.8125,
          "velocity": 0.7874015748031497
        },
        {
          "duration": 0.046875,
          "durationTicks": 12,
          "midi": 44,
          "name": "G#2",
          "ticks": 21480,
          "time": 83.90625,
          "velocity": 0.7874015748031497
        },
        {
          "duration": 0.046875,
          "durationTicks": 12,
          "midi": 50,
          "name": "D3",
          "ticks": 21552,
          "time": 84.1875,
          "velocity": 0.7874015748031497
        },
        {
          "duration": 0.046875,
          "durationTicks": 12,
          "midi": 50,
          "name": "D3",
          "ticks": 21576,
          "time": 84.28125,
          "velocity": 0.7874015748031497
        },
        {
          "duration": 0.046875,
          "durationTicks": 12,
          "midi": 50,
          "name": "D3",
          "ticks": 21648,
          "time": 84.5625,
          "velocity": 0.7874015748031497
        },
        {
          "duration": 0.046875,
          "durationTicks": 12,
          "midi": 50,
          "name": "D3",
          "ticks": 21672,
          "time": 84.65625,
          "velocity": 0.7874015748031497
        },
        {
          "duration": 0.046875,
          "durationTicks": 12,
          "midi": 43,
          "name": "G2",
          "ticks": 21744,
          "time": 84.9375,
          "velocity": 0.7874015748031497
        },
        {
          "duration": 0.046875,
          "durationTicks": 12,
          "midi": 43,
          "name": "G2",
          "ticks": 21768,
          "time": 85.03125,
          "velocity": 0.7874015748031497
        },
        {
          "duration": 0.046875,
          "durationTicks": 12,
          "midi": 43,
          "name": "G2",
          "ticks": 21840,
          "time": 85.3125,
          "velocity": 0.7874015748031497
        },
        {
          "duration": 0.046875,
          "durationTicks": 12,
          "midi": 43,
          "name": "G2",
          "ticks": 21864,
          "time": 85.40625,
          "velocity": 0.7874015748031497
        },
        {
          "duration": 0.140625,
          "durationTicks": 36,
          "midi": 36,
          "name": "C2",
          "ticks": 24624,
          "time": 96.1875,
          "velocity": 0.7874015748031497
        },
        {
          "duration": 0.140625,
          "durationTicks": 36,
          "midi": 36,
          "name": "C2",
          "ticks": 24720,
          "time": 96.5625,
          "velocity": 0.7874015748031497
        },
        {
          "duration": 0.140625,
          "durationTicks": 36,
          "midi": 36,
          "name": "C2",
          "ticks": 24816,
          "time": 96.9375,
          "velocity": 0.7874015748031497
        },
        {
          "duration": 0.140625,
          "durationTicks": 36,
          "midi": 36,
          "name": "C2",
          "ticks": 24912,
          "time": 97.3125,
          "velocity": 0.7874015748031497
        },
        {
          "duration": 0.140625,
          "durationTicks": 36,
          "midi": 36,
          "name": "C2",
          "ticks": 25008,
          "time": 97.6875,
          "velocity": 0.7874015748031497
        },
        {
          "duration": 0.140625,
          "durationTicks": 36,
          "midi": 36,
          "name": "C2",
          "ticks": 25104,
          "time": 98.0625,
          "velocity": 0.7874015748031497
        },
        {
          "duration": 0.140625,
          "durationTicks": 36,
          "midi": 36,
          "name": "C2",
          "ticks": 25200,
          "time": 98.4375,
          "velocity": 0.7874015748031497
        },
        {
          "duration": 0.140625,
          "durationTicks": 36,
          "midi": 36,
          "name": "C2",
          "ticks": 25296,
          "time": 98.8125,
          "velocity": 0.7874015748031497
        },
        {
          "duration": 0.140625,
          "durationTicks": 36,
          "midi": 36,
          "name": "C2",
          "ticks": 25392,
          "time": 99.1875,
          "velocity": 0.7874015748031497
        },
        {
          "duration": 0.140625,
          "durationTicks": 36,
          "midi": 36,
          "name": "C2",
          "ticks": 25488,
          "time": 99.5625,
          "velocity": 0.7874015748031497
        },
        {
          "duration": 0.140625,
          "durationTicks": 36,
          "midi": 36,
          "name": "C2",
          "ticks": 25584,
          "time": 99.9375,
          "velocity": 0.7874015748031497
        },
        {
          "duration": 0.140625,
          "durationTicks": 36,
          "midi": 36,
          "name": "C2",
          "ticks": 25680,
          "time": 100.3125,
          "velocity": 0.7874015748031497
        },
        {
          "duration": 0.140625,
          "durationTicks": 36,
          "midi": 36,
          "name": "C2",
          "ticks": 25776,
          "time": 100.6875,
          "velocity": 0.7874015748031497
        },
        {
          "duration": 0.140625,
          "durationTicks": 36,
          "midi": 36,
          "name": "C2",
          "ticks": 25872,
          "time": 101.0625,
          "velocity": 0.7874015748031497
        },
        {
          "duration": 0.140625,
          "durationTicks": 36,
          "midi": 36,
          "name": "C2",
          "ticks": 25968,
          "time": 101.4375,
          "velocity": 0.7874015748031497
        },
        {
          "duration": 0.140625,
          "durationTicks": 36,
          "midi": 36,
          "name": "C2",
          "ticks": 26064,
          "time": 101.8125,
          "velocity": 0.7874015748031497
        },
        {
          "duration": 0.140625,
          "durationTicks": 36,
          "midi": 36,
          "name": "C2",
          "ticks": 26160,
          "time": 102.1875,
          "velocity": 0.7874015748031497
        },
        {
          "duration": 0.140625,
          "durationTicks": 36,
          "midi": 36,
          "name": "C2",
          "ticks": 26256,
          "time": 102.5625,
          "velocity": 0.7874015748031497
        },
        {
          "duration": 0.140625,
          "durationTicks": 36,
          "midi": 36,
          "name": "C2",
          "ticks": 26352,
          "time": 102.9375,
          "velocity": 0.7874015748031497
        },
        {
          "duration": 0.140625,
          "durationTicks": 36,
          "midi": 36,
          "name": "C2",
          "ticks": 26448,
          "time": 103.3125,
          "velocity": 0.7874015748031497
        },
        {
          "duration": 0.140625,
          "durationTicks": 36,
          "midi": 36,
          "name": "C2",
          "ticks": 26544,
          "time": 103.6875,
          "velocity": 0.7874015748031497
        },
        {
          "duration": 0.140625,
          "durationTicks": 36,
          "midi": 36,
          "name": "C2",
          "ticks": 26640,
          "time": 104.0625,
          "velocity": 0.7874015748031497
        },
        {
          "duration": 0.140625,
          "durationTicks": 36,
          "midi": 36,
          "name": "C2",
          "ticks": 26736,
          "time": 104.4375,
          "velocity": 0.7874015748031497
        },
        {
          "duration": 0.140625,
          "durationTicks": 36,
          "midi": 36,
          "name": "C2",
          "ticks": 26832,
          "time": 104.8125,
          "velocity": 0.7874015748031497
        },
        {
          "duration": 0.140625,
          "durationTicks": 36,
          "midi": 36,
          "name": "C2",
          "ticks": 26928,
          "time": 105.1875,
          "velocity": 0.7874015748031497
        },
        {
          "duration": 0.140625,
          "durationTicks": 36,
          "midi": 36,
          "name": "C2",
          "ticks": 27024,
          "time": 105.5625,
          "velocity": 0.7874015748031497
        },
        {
          "duration": 0.234375,
          "durationTicks": 60,
          "midi": 36,
          "name": "C2",
          "ticks": 27336,
          "time": 106.78125,
          "velocity": 0.7874015748031497
        },
        {
          "duration": 0.234375,
          "durationTicks": 60,
          "midi": 36,
          "name": "C2",
          "ticks": 27408,
          "time": 107.0625,
          "velocity": 0.7874015748031497
        },
        {
          "duration": 0.234375,
          "durationTicks": 60,
          "midi": 36,
          "name": "C2",
          "ticks": 27480,
          "time": 107.34375,
          "velocity": 0.7874015748031497
        },
        {
          "duration": 0.234375,
          "durationTicks": 60,
          "midi": 36,
          "name": "C2",
          "ticks": 27552,
          "time": 107.625,
          "velocity": 0.7874015748031497
        },
        {
          "duration": 0.234375,
          "durationTicks": 60,
          "midi": 36,
          "name": "C2",
          "ticks": 27624,
          "time": 107.90625,
          "velocity": 0.7874015748031497
        },
        {
          "duration": 0.234375,
          "durationTicks": 60,
          "midi": 36,
          "name": "C2",
          "ticks": 27696,
          "time": 108.1875,
          "velocity": 0.7874015748031497
        },
        {
          "duration": 0.234375,
          "durationTicks": 60,
          "midi": 36,
          "name": "C2",
          "ticks": 27768,
          "time": 108.46875,
          "velocity": 0.7874015748031497
        },
        {
          "duration": 0.046875,
          "durationTicks": 12,
          "midi": 36,
          "name": "C2",
          "ticks": 27840,
          "time": 108.75,
          "velocity": 0.7874015748031497
        },
        {
          "duration": 0.046875,
          "durationTicks": 12,
          "midi": 36,
          "name": "C2",
          "ticks": 27864,
          "time": 108.84375,
          "velocity": 0.7874015748031497
        },
        {
          "duration": 0.046875,
          "durationTicks": 12,
          "midi": 36,
          "name": "C2",
          "ticks": 27888,
          "time": 108.9375,
          "velocity": 0.7874015748031497
        },
        {
          "duration": 0.046875,
          "durationTicks": 12,
          "midi": 36,
          "name": "C2",
          "ticks": 27912,
          "time": 109.03125,
          "velocity": 0.7874015748031497
        },
        {
          "duration": 0.234375,
          "durationTicks": 60,
          "midi": 36,
          "name": "C2",
          "ticks": 27936,
          "time": 109.125,
          "velocity": 0.7874015748031497
        },
        {
          "duration": 0.234375,
          "durationTicks": 60,
          "midi": 36,
          "name": "C2",
          "ticks": 28008,
          "time": 109.40625,
          "velocity": 0.7874015748031497
        },
        {
          "duration": 0.234375,
          "durationTicks": 60,
          "midi": 36,
          "name": "C2",
          "ticks": 28080,
          "time": 109.6875,
          "velocity": 0.7874015748031497
        },
        {
          "duration": 0.234375,
          "durationTicks": 60,
          "midi": 36,
          "name": "C2",
          "ticks": 28152,
          "time": 109.96875,
          "velocity": 0.7874015748031497
        },
        {
          "duration": 0.234375,
          "durationTicks": 60,
          "midi": 36,
          "name": "C2",
          "ticks": 28224,
          "time": 110.25,
          "velocity": 0.7874015748031497
        },
        {
          "duration": 0.234375,
          "durationTicks": 60,
          "midi": 36,
          "name": "C2",
          "ticks": 28296,
          "time": 110.53125,
          "velocity": 0.7874015748031497
        },
        {
          "duration": 0.234375,
          "durationTicks": 60,
          "midi": 36,
          "name": "C2",
          "ticks": 28368,
          "time": 110.8125,
          "velocity": 0.7874015748031497
        },
        {
          "duration": 0.234375,
          "durationTicks": 60,
          "midi": 36,
          "name": "C2",
          "ticks": 28440,
          "time": 111.09375,
          "velocity": 0.7874015748031497
        },
        {
          "duration": 0.046875,
          "durationTicks": 12,
          "midi": 36,
          "name": "C2",
          "ticks": 28512,
          "time": 111.375,
          "velocity": 0.7874015748031497
        },
        {
          "duration": 0.046875,
          "durationTicks": 12,
          "midi": 36,
          "name": "C2",
          "ticks": 28536,
          "time": 111.46875,
          "velocity": 0.7874015748031497
        },
        {
          "duration": 0.046875,
          "durationTicks": 12,
          "midi": 36,
          "name": "C2",
          "ticks": 28560,
          "time": 111.5625,
          "velocity": 0.7874015748031497
        },
        {
          "duration": 0.046875,
          "durationTicks": 12,
          "midi": 36,
          "name": "C2",
          "ticks": 28584,
          "time": 111.65625,
          "velocity": 0.7874015748031497
        },
        {
          "duration": 0.234375,
          "durationTicks": 60,
          "midi": 36,
          "name": "C2",
          "ticks": 28608,
          "time": 111.75,
          "velocity": 0.7874015748031497
        },
        {
          "duration": 0.234375,
          "durationTicks": 60,
          "midi": 36,
          "name": "C2",
          "ticks": 28680,
          "time": 112.03125,
          "velocity": 0.7874015748031497
        },
        {
          "duration": 0.234375,
          "durationTicks": 60,
          "midi": 36,
          "name": "C2",
          "ticks": 28752,
          "time": 112.3125,
          "velocity": 0.7874015748031497
        },
        {
          "duration": 0.234375,
          "durationTicks": 60,
          "midi": 36,
          "name": "C2",
          "ticks": 28824,
          "time": 112.59375,
          "velocity": 0.7874015748031497
        },
        {
          "duration": 0.234375,
          "durationTicks": 60,
          "midi": 36,
          "name": "C2",
          "ticks": 28896,
          "time": 112.875,
          "velocity": 0.7874015748031497
        },
        {
          "duration": 0.234375,
          "durationTicks": 60,
          "midi": 36,
          "name": "C2",
          "ticks": 28968,
          "time": 113.15625,
          "velocity": 0.7874015748031497
        },
        {
          "duration": 0.234375,
          "durationTicks": 60,
          "midi": 36,
          "name": "C2",
          "ticks": 29040,
          "time": 113.4375,
          "velocity": 0.7874015748031497
        },
        {
          "duration": 0.234375,
          "durationTicks": 60,
          "midi": 36,
          "name": "C2",
          "ticks": 29112,
          "time": 113.71875,
          "velocity": 0.7874015748031497
        },
        {
          "duration": 0.046875,
          "durationTicks": 12,
          "midi": 36,
          "name": "C2",
          "ticks": 29184,
          "time": 114,
          "velocity": 0.7874015748031497
        },
        {
          "duration": 0.046875,
          "durationTicks": 12,
          "midi": 36,
          "name": "C2",
          "ticks": 29208,
          "time": 114.09375,
          "velocity": 0.7874015748031497
        },
        {
          "duration": 0.046875,
          "durationTicks": 12,
          "midi": 36,
          "name": "C2",
          "ticks": 29232,
          "time": 114.1875,
          "velocity": 0.7874015748031497
        },
        {
          "duration": 0.046875,
          "durationTicks": 12,
          "midi": 36,
          "name": "C2",
          "ticks": 29256,
          "time": 114.28125,
          "velocity": 0.7874015748031497
        },
        {
          "duration": 0.046875,
          "durationTicks": 12,
          "midi": 44,
          "name": "G#2",
          "ticks": 30096,
          "time": 117.5625,
          "velocity": 0.7874015748031497
        },
        {
          "duration": 0.046875,
          "durationTicks": 12,
          "midi": 44,
          "name": "G#2",
          "ticks": 30120,
          "time": 117.65625,
          "velocity": 0.7874015748031497
        },
        {
          "duration": 0.046875,
          "durationTicks": 12,
          "midi": 44,
          "name": "G#2",
          "ticks": 30192,
          "time": 117.9375,
          "velocity": 0.7874015748031497
        },
        {
          "duration": 0.046875,
          "durationTicks": 12,
          "midi": 44,
          "name": "G#2",
          "ticks": 30216,
          "time": 118.03125,
          "velocity": 0.7874015748031497
        },
        {
          "duration": 0.046875,
          "durationTicks": 12,
          "midi": 43,
          "name": "G2",
          "ticks": 30288,
          "time": 118.3125,
          "velocity": 0.7874015748031497
        },
        {
          "duration": 0.046875,
          "durationTicks": 12,
          "midi": 43,
          "name": "G2",
          "ticks": 30312,
          "time": 118.40625,
          "velocity": 0.7874015748031497
        },
        {
          "duration": 0.046875,
          "durationTicks": 12,
          "midi": 43,
          "name": "G2",
          "ticks": 30384,
          "time": 118.6875,
          "velocity": 0.7874015748031497
        },
        {
          "duration": 0.046875,
          "durationTicks": 12,
          "midi": 43,
          "name": "G2",
          "ticks": 30408,
          "time": 118.78125,
          "velocity": 0.7874015748031497
        },
        {
          "duration": 0.046875,
          "durationTicks": 12,
          "midi": 48,
          "name": "C3",
          "ticks": 30480,
          "time": 119.0625,
          "velocity": 0.7874015748031497
        },
        {
          "duration": 0.046875,
          "durationTicks": 12,
          "midi": 48,
          "name": "C3",
          "ticks": 30504,
          "time": 119.15625,
          "velocity": 0.7874015748031497
        },
        {
          "duration": 0.046875,
          "durationTicks": 12,
          "midi": 48,
          "name": "C3",
          "ticks": 30576,
          "time": 119.4375,
          "velocity": 0.7874015748031497
        },
        {
          "duration": 0.046875,
          "durationTicks": 12,
          "midi": 48,
          "name": "C3",
          "ticks": 30600,
          "time": 119.53125,
          "velocity": 0.7874015748031497
        },
        {
          "duration": 0.046875,
          "durationTicks": 12,
          "midi": 46,
          "name": "A#2",
          "ticks": 30672,
          "time": 119.8125,
          "velocity": 0.7874015748031497
        },
        {
          "duration": 0.046875,
          "durationTicks": 12,
          "midi": 46,
          "name": "A#2",
          "ticks": 30696,
          "time": 119.90625,
          "velocity": 0.7874015748031497
        },
        {
          "duration": 0.046875,
          "durationTicks": 12,
          "midi": 46,
          "name": "A#2",
          "ticks": 30768,
          "time": 120.1875,
          "velocity": 0.7874015748031497
        },
        {
          "duration": 0.046875,
          "durationTicks": 12,
          "midi": 46,
          "name": "A#2",
          "ticks": 30792,
          "time": 120.28125,
          "velocity": 0.7874015748031497
        },
        {
          "duration": 0.046875,
          "durationTicks": 12,
          "midi": 44,
          "name": "G#2",
          "ticks": 30864,
          "time": 120.5625,
          "velocity": 0.7874015748031497
        },
        {
          "duration": 0.046875,
          "durationTicks": 12,
          "midi": 44,
          "name": "G#2",
          "ticks": 30888,
          "time": 120.65625,
          "velocity": 0.7874015748031497
        },
        {
          "duration": 0.046875,
          "durationTicks": 12,
          "midi": 44,
          "name": "G#2",
          "ticks": 30960,
          "time": 120.9375,
          "velocity": 0.7874015748031497
        },
        {
          "duration": 0.046875,
          "durationTicks": 12,
          "midi": 44,
          "name": "G#2",
          "ticks": 30984,
          "time": 121.03125,
          "velocity": 0.7874015748031497
        },
        {
          "duration": 0.046875,
          "durationTicks": 12,
          "midi": 46,
          "name": "A#2",
          "ticks": 31056,
          "time": 121.3125,
          "velocity": 0.7874015748031497
        },
        {
          "duration": 0.046875,
          "durationTicks": 12,
          "midi": 46,
          "name": "A#2",
          "ticks": 31080,
          "time": 121.40625,
          "velocity": 0.7874015748031497
        },
        {
          "duration": 0.046875,
          "durationTicks": 12,
          "midi": 46,
          "name": "A#2",
          "ticks": 31152,
          "time": 121.6875,
          "velocity": 0.7874015748031497
        },
        {
          "duration": 0.046875,
          "durationTicks": 12,
          "midi": 46,
          "name": "A#2",
          "ticks": 31176,
          "time": 121.78125,
          "velocity": 0.7874015748031497
        },
        {
          "duration": 0.046875,
          "durationTicks": 12,
          "midi": 51,
          "name": "D#3",
          "ticks": 31248,
          "time": 122.0625,
          "velocity": 0.7874015748031497
        },
        {
          "duration": 0.046875,
          "durationTicks": 12,
          "midi": 51,
          "name": "D#3",
          "ticks": 31272,
          "time": 122.15625,
          "velocity": 0.7874015748031497
        },
        {
          "duration": 0.046875,
          "durationTicks": 12,
          "midi": 51,
          "name": "D#3",
          "ticks": 31344,
          "time": 122.4375,
          "velocity": 0.7874015748031497
        },
        {
          "duration": 0.046875,
          "durationTicks": 12,
          "midi": 51,
          "name": "D#3",
          "ticks": 31368,
          "time": 122.53125,
          "velocity": 0.7874015748031497
        },
        {
          "duration": 0.046875,
          "durationTicks": 12,
          "midi": 50,
          "name": "D3",
          "ticks": 31440,
          "time": 122.8125,
          "velocity": 0.7874015748031497
        },
        {
          "duration": 0.046875,
          "durationTicks": 12,
          "midi": 50,
          "name": "D3",
          "ticks": 31464,
          "time": 122.90625,
          "velocity": 0.7874015748031497
        },
        {
          "duration": 0.046875,
          "durationTicks": 12,
          "midi": 50,
          "name": "D3",
          "ticks": 31536,
          "time": 123.1875,
          "velocity": 0.7874015748031497
        },
        {
          "duration": 0.046875,
          "durationTicks": 12,
          "midi": 50,
          "name": "D3",
          "ticks": 31560,
          "time": 123.28125,
          "velocity": 0.7874015748031497
        },
        {
          "duration": 0.046875,
          "durationTicks": 12,
          "midi": 41,
          "name": "F2",
          "ticks": 31632,
          "time": 123.5625,
          "velocity": 0.7874015748031497
        },
        {
          "duration": 0.046875,
          "durationTicks": 12,
          "midi": 41,
          "name": "F2",
          "ticks": 31656,
          "time": 123.65625,
          "velocity": 0.7874015748031497
        },
        {
          "duration": 0.046875,
          "durationTicks": 12,
          "midi": 41,
          "name": "F2",
          "ticks": 31728,
          "time": 123.9375,
          "velocity": 0.7874015748031497
        },
        {
          "duration": 0.046875,
          "durationTicks": 12,
          "midi": 41,
          "name": "F2",
          "ticks": 31752,
          "time": 124.03125,
          "velocity": 0.7874015748031497
        },
        {
          "duration": 0.046875,
          "durationTicks": 12,
          "midi": 46,
          "name": "A#2",
          "ticks": 31824,
          "time": 124.3125,
          "velocity": 0.7874015748031497
        },
        {
          "duration": 0.046875,
          "durationTicks": 12,
          "midi": 46,
          "name": "A#2",
          "ticks": 31848,
          "time": 124.40625,
          "velocity": 0.7874015748031497
        },
        {
          "duration": 0.046875,
          "durationTicks": 12,
          "midi": 46,
          "name": "A#2",
          "ticks": 31920,
          "time": 124.6875,
          "velocity": 0.7874015748031497
        },
        {
          "duration": 0.046875,
          "durationTicks": 12,
          "midi": 46,
          "name": "A#2",
          "ticks": 31944,
          "time": 124.78125,
          "velocity": 0.7874015748031497
        },
        {
          "duration": 0.046875,
          "durationTicks": 12,
          "midi": 39,
          "name": "D#2",
          "ticks": 32016,
          "time": 125.0625,
          "velocity": 0.7874015748031497
        },
        {
          "duration": 0.046875,
          "durationTicks": 12,
          "midi": 39,
          "name": "D#2",
          "ticks": 32040,
          "time": 125.15625,
          "velocity": 0.7874015748031497
        },
        {
          "duration": 0.046875,
          "durationTicks": 12,
          "midi": 39,
          "name": "D#2",
          "ticks": 32112,
          "time": 125.4375,
          "velocity": 0.7874015748031497
        },
        {
          "duration": 0.046875,
          "durationTicks": 12,
          "midi": 39,
          "name": "D#2",
          "ticks": 32136,
          "time": 125.53125,
          "velocity": 0.7874015748031497
        },
        {
          "duration": 0.046875,
          "durationTicks": 12,
          "midi": 44,
          "name": "G#2",
          "ticks": 32208,
          "time": 125.8125,
          "velocity": 0.7874015748031497
        },
        {
          "duration": 0.046875,
          "durationTicks": 12,
          "midi": 44,
          "name": "G#2",
          "ticks": 32232,
          "time": 125.90625,
          "velocity": 0.7874015748031497
        },
        {
          "duration": 0.046875,
          "durationTicks": 12,
          "midi": 44,
          "name": "G#2",
          "ticks": 32304,
          "time": 126.1875,
          "velocity": 0.7874015748031497
        },
        {
          "duration": 0.046875,
          "durationTicks": 12,
          "midi": 44,
          "name": "G#2",
          "ticks": 32328,
          "time": 126.28125,
          "velocity": 0.7874015748031497
        },
        {
          "duration": 0.046875,
          "durationTicks": 12,
          "midi": 38,
          "name": "D2",
          "ticks": 32400,
          "time": 126.5625,
          "velocity": 0.7874015748031497
        },
        {
          "duration": 0.046875,
          "durationTicks": 12,
          "midi": 38,
          "name": "D2",
          "ticks": 32424,
          "time": 126.65625,
          "velocity": 0.7874015748031497
        },
        {
          "duration": 0.046875,
          "durationTicks": 12,
          "midi": 38,
          "name": "D2",
          "ticks": 32496,
          "time": 126.9375,
          "velocity": 0.7874015748031497
        },
        {
          "duration": 0.046875,
          "durationTicks": 12,
          "midi": 38,
          "name": "D2",
          "ticks": 32520,
          "time": 127.03125,
          "velocity": 0.7874015748031497
        },
        {
          "duration": 0.046875,
          "durationTicks": 12,
          "midi": 39,
          "name": "D#2",
          "ticks": 32592,
          "time": 127.3125,
          "velocity": 0.7874015748031497
        },
        {
          "duration": 0.046875,
          "durationTicks": 12,
          "midi": 39,
          "name": "D#2",
          "ticks": 32616,
          "time": 127.40625,
          "velocity": 0.7874015748031497
        },
        {
          "duration": 0.046875,
          "durationTicks": 12,
          "midi": 42,
          "name": "F#2",
          "ticks": 32688,
          "time": 127.6875,
          "velocity": 0.7874015748031497
        },
        {
          "duration": 0.046875,
          "durationTicks": 12,
          "midi": 42,
          "name": "F#2",
          "ticks": 32712,
          "time": 127.78125,
          "velocity": 0.7874015748031497
        },
        {
          "duration": 0.046875,
          "durationTicks": 12,
          "midi": 43,
          "name": "G2",
          "ticks": 32784,
          "time": 128.0625,
          "velocity": 0.7874015748031497
        },
        {
          "duration": 0.046875,
          "durationTicks": 12,
          "midi": 43,
          "name": "G2",
          "ticks": 32808,
          "time": 128.15625,
          "velocity": 0.7874015748031497
        },
        {
          "duration": 0.046875,
          "durationTicks": 12,
          "midi": 43,
          "name": "G2",
          "ticks": 32880,
          "time": 128.4375,
          "velocity": 0.7874015748031497
        },
        {
          "duration": 0.046875,
          "durationTicks": 12,
          "midi": 43,
          "name": "G2",
          "ticks": 32904,
          "time": 128.53125,
          "velocity": 0.7874015748031497
        },
        {
          "duration": 0.046875,
          "durationTicks": 12,
          "midi": 43,
          "name": "G2",
          "ticks": 32976,
          "time": 128.8125,
          "velocity": 0.7874015748031497
        },
        {
          "duration": 0.046875,
          "durationTicks": 12,
          "midi": 43,
          "name": "G2",
          "ticks": 33000,
          "time": 128.90625,
          "velocity": 0.7874015748031497
        },
        {
          "duration": 0.046875,
          "durationTicks": 12,
          "midi": 43,
          "name": "G2",
          "ticks": 33072,
          "time": 129.1875,
          "velocity": 0.7874015748031497
        },
        {
          "duration": 0.046875,
          "durationTicks": 12,
          "midi": 43,
          "name": "G2",
          "ticks": 33096,
          "time": 129.28125,
          "velocity": 0.7874015748031497
        },
        {
          "duration": 0.046875,
          "durationTicks": 12,
          "midi": 44,
          "name": "G#2",
          "ticks": 33168,
          "time": 129.5625,
          "velocity": 0.7874015748031497
        },
        {
          "duration": 0.046875,
          "durationTicks": 12,
          "midi": 44,
          "name": "G#2",
          "ticks": 33192,
          "time": 129.65625,
          "velocity": 0.7874015748031497
        },
        {
          "duration": 0.046875,
          "durationTicks": 12,
          "midi": 44,
          "name": "G#2",
          "ticks": 33264,
          "time": 129.9375,
          "velocity": 0.7874015748031497
        },
        {
          "duration": 0.046875,
          "durationTicks": 12,
          "midi": 44,
          "name": "G#2",
          "ticks": 33288,
          "time": 130.03125,
          "velocity": 0.7874015748031497
        },
        {
          "duration": 0.046875,
          "durationTicks": 12,
          "midi": 43,
          "name": "G2",
          "ticks": 33360,
          "time": 130.3125,
          "velocity": 0.7874015748031497
        },
        {
          "duration": 0.046875,
          "durationTicks": 12,
          "midi": 43,
          "name": "G2",
          "ticks": 33384,
          "time": 130.40625,
          "velocity": 0.7874015748031497
        },
        {
          "duration": 0.046875,
          "durationTicks": 12,
          "midi": 43,
          "name": "G2",
          "ticks": 33456,
          "time": 130.6875,
          "velocity": 0.7874015748031497
        },
        {
          "duration": 0.046875,
          "durationTicks": 12,
          "midi": 43,
          "name": "G2",
          "ticks": 33480,
          "time": 130.78125,
          "velocity": 0.7874015748031497
        },
        {
          "duration": 0.046875,
          "durationTicks": 12,
          "midi": 48,
          "name": "C3",
          "ticks": 33552,
          "time": 131.0625,
          "velocity": 0.7874015748031497
        },
        {
          "duration": 0.046875,
          "durationTicks": 12,
          "midi": 48,
          "name": "C3",
          "ticks": 33576,
          "time": 131.15625,
          "velocity": 0.7874015748031497
        },
        {
          "duration": 0.046875,
          "durationTicks": 12,
          "midi": 48,
          "name": "C3",
          "ticks": 33648,
          "time": 131.4375,
          "velocity": 0.7874015748031497
        },
        {
          "duration": 0.046875,
          "durationTicks": 12,
          "midi": 48,
          "name": "C3",
          "ticks": 33672,
          "time": 131.53125,
          "velocity": 0.7874015748031497
        },
        {
          "duration": 0.046875,
          "durationTicks": 12,
          "midi": 46,
          "name": "A#2",
          "ticks": 33744,
          "time": 131.8125,
          "velocity": 0.7874015748031497
        },
        {
          "duration": 0.046875,
          "durationTicks": 12,
          "midi": 46,
          "name": "A#2",
          "ticks": 33768,
          "time": 131.90625,
          "velocity": 0.7874015748031497
        },
        {
          "duration": 0.046875,
          "durationTicks": 12,
          "midi": 46,
          "name": "A#2",
          "ticks": 33840,
          "time": 132.1875,
          "velocity": 0.7874015748031497
        },
        {
          "duration": 0.046875,
          "durationTicks": 12,
          "midi": 46,
          "name": "A#2",
          "ticks": 33864,
          "time": 132.28125,
          "velocity": 0.7874015748031497
        },
        {
          "duration": 0.046875,
          "durationTicks": 12,
          "midi": 44,
          "name": "G#2",
          "ticks": 33936,
          "time": 132.5625,
          "velocity": 0.7874015748031497
        },
        {
          "duration": 0.046875,
          "durationTicks": 12,
          "midi": 44,
          "name": "G#2",
          "ticks": 33960,
          "time": 132.65625,
          "velocity": 0.7874015748031497
        },
        {
          "duration": 0.046875,
          "durationTicks": 12,
          "midi": 44,
          "name": "G#2",
          "ticks": 34032,
          "time": 132.9375,
          "velocity": 0.7874015748031497
        },
        {
          "duration": 0.046875,
          "durationTicks": 12,
          "midi": 44,
          "name": "G#2",
          "ticks": 34056,
          "time": 133.03125,
          "velocity": 0.7874015748031497
        },
        {
          "duration": 0.046875,
          "durationTicks": 12,
          "midi": 46,
          "name": "A#2",
          "ticks": 34128,
          "time": 133.3125,
          "velocity": 0.7874015748031497
        },
        {
          "duration": 0.046875,
          "durationTicks": 12,
          "midi": 46,
          "name": "A#2",
          "ticks": 34152,
          "time": 133.40625,
          "velocity": 0.7874015748031497
        },
        {
          "duration": 0.046875,
          "durationTicks": 12,
          "midi": 46,
          "name": "A#2",
          "ticks": 34224,
          "time": 133.6875,
          "velocity": 0.7874015748031497
        },
        {
          "duration": 0.046875,
          "durationTicks": 12,
          "midi": 46,
          "name": "A#2",
          "ticks": 34248,
          "time": 133.78125,
          "velocity": 0.7874015748031497
        },
        {
          "duration": 0.046875,
          "durationTicks": 12,
          "midi": 51,
          "name": "D#3",
          "ticks": 34320,
          "time": 134.0625,
          "velocity": 0.7874015748031497
        },
        {
          "duration": 0.046875,
          "durationTicks": 12,
          "midi": 51,
          "name": "D#3",
          "ticks": 34344,
          "time": 134.15625,
          "velocity": 0.7874015748031497
        },
        {
          "duration": 0.046875,
          "durationTicks": 12,
          "midi": 51,
          "name": "D#3",
          "ticks": 34416,
          "time": 134.4375,
          "velocity": 0.7874015748031497
        },
        {
          "duration": 0.046875,
          "durationTicks": 12,
          "midi": 51,
          "name": "D#3",
          "ticks": 34440,
          "time": 134.53125,
          "velocity": 0.7874015748031497
        },
        {
          "duration": 0.046875,
          "durationTicks": 12,
          "midi": 52,
          "name": "E3",
          "ticks": 34512,
          "time": 134.8125,
          "velocity": 0.7874015748031497
        },
        {
          "duration": 0.046875,
          "durationTicks": 12,
          "midi": 52,
          "name": "E3",
          "ticks": 34536,
          "time": 134.90625,
          "velocity": 0.7874015748031497
        },
        {
          "duration": 0.046875,
          "durationTicks": 12,
          "midi": 52,
          "name": "E3",
          "ticks": 34608,
          "time": 135.1875,
          "velocity": 0.7874015748031497
        },
        {
          "duration": 0.046875,
          "durationTicks": 12,
          "midi": 52,
          "name": "E3",
          "ticks": 34632,
          "time": 135.28125,
          "velocity": 0.7874015748031497
        },
        {
          "duration": 0.046875,
          "durationTicks": 12,
          "midi": 41,
          "name": "F2",
          "ticks": 34704,
          "time": 135.5625,
          "velocity": 0.7874015748031497
        },
        {
          "duration": 0.046875,
          "durationTicks": 12,
          "midi": 41,
          "name": "F2",
          "ticks": 34728,
          "time": 135.65625,
          "velocity": 0.7874015748031497
        },
        {
          "duration": 0.046875,
          "durationTicks": 12,
          "midi": 41,
          "name": "F2",
          "ticks": 34800,
          "time": 135.9375,
          "velocity": 0.7874015748031497
        },
        {
          "duration": 0.046875,
          "durationTicks": 12,
          "midi": 41,
          "name": "F2",
          "ticks": 34824,
          "time": 136.03125,
          "velocity": 0.7874015748031497
        },
        {
          "duration": 0.046875,
          "durationTicks": 12,
          "midi": 46,
          "name": "A#2",
          "ticks": 34896,
          "time": 136.3125,
          "velocity": 0.7874015748031497
        },
        {
          "duration": 0.046875,
          "durationTicks": 12,
          "midi": 46,
          "name": "A#2",
          "ticks": 34920,
          "time": 136.40625,
          "velocity": 0.7874015748031497
        },
        {
          "duration": 0.046875,
          "durationTicks": 12,
          "midi": 46,
          "name": "A#2",
          "ticks": 34992,
          "time": 136.6875,
          "velocity": 0.7874015748031497
        },
        {
          "duration": 0.046875,
          "durationTicks": 12,
          "midi": 46,
          "name": "A#2",
          "ticks": 35016,
          "time": 136.78125,
          "velocity": 0.7874015748031497
        },
        {
          "duration": 0.046875,
          "durationTicks": 12,
          "midi": 47,
          "name": "B2",
          "ticks": 35088,
          "time": 137.0625,
          "velocity": 0.7874015748031497
        },
        {
          "duration": 0.046875,
          "durationTicks": 12,
          "midi": 47,
          "name": "B2",
          "ticks": 35112,
          "time": 137.15625,
          "velocity": 0.7874015748031497
        },
        {
          "duration": 0.046875,
          "durationTicks": 12,
          "midi": 47,
          "name": "B2",
          "ticks": 35184,
          "time": 137.4375,
          "velocity": 0.7874015748031497
        },
        {
          "duration": 0.046875,
          "durationTicks": 12,
          "midi": 47,
          "name": "B2",
          "ticks": 35208,
          "time": 137.53125,
          "velocity": 0.7874015748031497
        },
        {
          "duration": 0.046875,
          "durationTicks": 12,
          "midi": 48,
          "name": "C3",
          "ticks": 35280,
          "time": 137.8125,
          "velocity": 0.7874015748031497
        },
        {
          "duration": 0.046875,
          "durationTicks": 12,
          "midi": 48,
          "name": "C3",
          "ticks": 35304,
          "time": 137.90625,
          "velocity": 0.7874015748031497
        },
        {
          "duration": 0.046875,
          "durationTicks": 12,
          "midi": 46,
          "name": "A#2",
          "ticks": 35376,
          "time": 138.1875,
          "velocity": 0.7874015748031497
        },
        {
          "duration": 0.046875,
          "durationTicks": 12,
          "midi": 46,
          "name": "A#2",
          "ticks": 35400,
          "time": 138.28125,
          "velocity": 0.7874015748031497
        },
        {
          "duration": 0.046875,
          "durationTicks": 12,
          "midi": 41,
          "name": "F2",
          "ticks": 35472,
          "time": 138.5625,
          "velocity": 0.7874015748031497
        },
        {
          "duration": 0.046875,
          "durationTicks": 12,
          "midi": 41,
          "name": "F2",
          "ticks": 35496,
          "time": 138.65625,
          "velocity": 0.7874015748031497
        },
        {
          "duration": 0.046875,
          "durationTicks": 12,
          "midi": 41,
          "name": "F2",
          "ticks": 35568,
          "time": 138.9375,
          "velocity": 0.7874015748031497
        },
        {
          "duration": 0.046875,
          "durationTicks": 12,
          "midi": 41,
          "name": "F2",
          "ticks": 35592,
          "time": 139.03125,
          "velocity": 0.7874015748031497
        },
        {
          "duration": 0.046875,
          "durationTicks": 12,
          "midi": 43,
          "name": "G2",
          "ticks": 35664,
          "time": 139.3125,
          "velocity": 0.7874015748031497
        },
        {
          "duration": 0.046875,
          "durationTicks": 12,
          "midi": 43,
          "name": "G2",
          "ticks": 35688,
          "time": 139.40625,
          "velocity": 0.7874015748031497
        },
        {
          "duration": 0.046875,
          "durationTicks": 12,
          "midi": 43,
          "name": "G2",
          "ticks": 35760,
          "time": 139.6875,
          "velocity": 0.7874015748031497
        },
        {
          "duration": 0.046875,
          "durationTicks": 12,
          "midi": 43,
          "name": "G2",
          "ticks": 35784,
          "time": 139.78125,
          "velocity": 0.7874015748031497
        },
        {
          "duration": 0.046875,
          "durationTicks": 12,
          "midi": 44,
          "name": "G#2",
          "ticks": 35856,
          "time": 140.0625,
          "velocity": 0.7874015748031497
        },
        {
          "duration": 0.046875,
          "durationTicks": 12,
          "midi": 44,
          "name": "G#2",
          "ticks": 35880,
          "time": 140.15625,
          "velocity": 0.7874015748031497
        },
        {
          "duration": 0.046875,
          "durationTicks": 12,
          "midi": 44,
          "name": "G#2",
          "ticks": 35952,
          "time": 140.4375,
          "velocity": 0.7874015748031497
        },
        {
          "duration": 0.046875,
          "durationTicks": 12,
          "midi": 44,
          "name": "G#2",
          "ticks": 35976,
          "time": 140.53125,
          "velocity": 0.7874015748031497
        },
        {
          "duration": 0.046875,
          "durationTicks": 12,
          "midi": 46,
          "name": "A#2",
          "ticks": 36048,
          "time": 140.8125,
          "velocity": 0.7874015748031497
        },
        {
          "duration": 0.046875,
          "durationTicks": 12,
          "midi": 46,
          "name": "A#2",
          "ticks": 36072,
          "time": 140.90625,
          "velocity": 0.7874015748031497
        },
        {
          "duration": 0.046875,
          "durationTicks": 12,
          "midi": 46,
          "name": "A#2",
          "ticks": 36144,
          "time": 141.1875,
          "velocity": 0.7874015748031497
        },
        {
          "duration": 0.046875,
          "durationTicks": 12,
          "midi": 46,
          "name": "A#2",
          "ticks": 36168,
          "time": 141.28125,
          "velocity": 0.7874015748031497
        },
        {
          "duration": 0.046875,
          "durationTicks": 12,
          "midi": 48,
          "name": "C3",
          "ticks": 36240,
          "time": 141.5625,
          "velocity": 0.7874015748031497
        },
        {
          "duration": 0.046875,
          "durationTicks": 12,
          "midi": 48,
          "name": "C3",
          "ticks": 36264,
          "time": 141.65625,
          "velocity": 0.7874015748031497
        },
        {
          "duration": 0.046875,
          "durationTicks": 12,
          "midi": 48,
          "name": "C3",
          "ticks": 36336,
          "time": 141.9375,
          "velocity": 0.7874015748031497
        },
        {
          "duration": 0.046875,
          "durationTicks": 12,
          "midi": 48,
          "name": "C3",
          "ticks": 36360,
          "time": 142.03125,
          "velocity": 0.7874015748031497
        },
        {
          "duration": 0.046875,
          "durationTicks": 12,
          "midi": 48,
          "name": "C3",
          "ticks": 36432,
          "time": 142.3125,
          "velocity": 0.7874015748031497
        },
        {
          "duration": 0.046875,
          "durationTicks": 12,
          "midi": 48,
          "name": "C3",
          "ticks": 36456,
          "time": 142.40625,
          "velocity": 0.7874015748031497
        },
        {
          "duration": 0.046875,
          "durationTicks": 12,
          "midi": 48,
          "name": "C3",
          "ticks": 36528,
          "time": 142.6875,
          "velocity": 0.7874015748031497
        },
        {
          "duration": 0.046875,
          "durationTicks": 12,
          "midi": 48,
          "name": "C3",
          "ticks": 36552,
          "time": 142.78125,
          "velocity": 0.7874015748031497
        },
        {
          "duration": 0.046875,
          "durationTicks": 12,
          "midi": 48,
          "name": "C3",
          "ticks": 36624,
          "time": 143.0625,
          "velocity": 0.7874015748031497
        },
        {
          "duration": 0.046875,
          "durationTicks": 12,
          "midi": 48,
          "name": "C3",
          "ticks": 36648,
          "time": 143.15625,
          "velocity": 0.7874015748031497
        },
        {
          "duration": 0.046875,
          "durationTicks": 12,
          "midi": 48,
          "name": "C3",
          "ticks": 36720,
          "time": 143.4375,
          "velocity": 0.7874015748031497
        },
        {
          "duration": 0.046875,
          "durationTicks": 12,
          "midi": 48,
          "name": "C3",
          "ticks": 36744,
          "time": 143.53125,
          "velocity": 0.7874015748031497
        },
        {
          "duration": 0.046875,
          "durationTicks": 12,
          "midi": 48,
          "name": "C3",
          "ticks": 36816,
          "time": 143.8125,
          "velocity": 0.7874015748031497
        },
        {
          "duration": 0.046875,
          "durationTicks": 12,
          "midi": 48,
          "name": "C3",
          "ticks": 36840,
          "time": 143.90625,
          "velocity": 0.7874015748031497
        },
        {
          "duration": 0.046875,
          "durationTicks": 12,
          "midi": 48,
          "name": "C3",
          "ticks": 36912,
          "time": 144.1875,
          "velocity": 0.7874015748031497
        },
        {
          "duration": 0.046875,
          "durationTicks": 12,
          "midi": 48,
          "name": "C3",
          "ticks": 36936,
          "time": 144.28125,
          "velocity": 0.7874015748031497
        },
        {
          "duration": 0.046875,
          "durationTicks": 12,
          "midi": 48,
          "name": "C3",
          "ticks": 37008,
          "time": 144.5625,
          "velocity": 0.7874015748031497
        },
        {
          "duration": 0.046875,
          "durationTicks": 12,
          "midi": 48,
          "name": "C3",
          "ticks": 37032,
          "time": 144.65625,
          "velocity": 0.7874015748031497
        },
        {
          "duration": 0.046875,
          "durationTicks": 12,
          "midi": 48,
          "name": "C3",
          "ticks": 37104,
          "time": 144.9375,
          "velocity": 0.7874015748031497
        },
        {
          "duration": 0.046875,
          "durationTicks": 12,
          "midi": 48,
          "name": "C3",
          "ticks": 37128,
          "time": 145.03125,
          "velocity": 0.7874015748031497
        },
        {
          "duration": 0.046875,
          "durationTicks": 12,
          "midi": 48,
          "name": "C3",
          "ticks": 37200,
          "time": 145.3125,
          "velocity": 0.7874015748031497
        },
        {
          "duration": 0.046875,
          "durationTicks": 12,
          "midi": 48,
          "name": "C3",
          "ticks": 37224,
          "time": 145.40625,
          "velocity": 0.7874015748031497
        },
        {
          "duration": 0.046875,
          "durationTicks": 12,
          "midi": 48,
          "name": "C3",
          "ticks": 37296,
          "time": 145.6875,
          "velocity": 0.7874015748031497
        },
        {
          "duration": 0.046875,
          "durationTicks": 12,
          "midi": 48,
          "name": "C3",
          "ticks": 37320,
          "time": 145.78125,
          "velocity": 0.7874015748031497
        }
      ],
      "endOfTrackTicks": 37730
    },
    {
      "channel": 10,
      "controlChanges": {
        "6": [
          {
            "number": 6,
            "ticks": 0,
            "time": 0,
            "value": 0.09448818897637795
          },
          {
            "number": 6,
            "ticks": 0,
            "time": 0,
            "value": 0.09448818897637795
          },
          {
            "number": 6,
            "ticks": 0,
            "time": 0,
            "value": 0.09448818897637795
          },
          {
            "number": 6,
            "ticks": 37728,
            "time": 147.375,
            "value": 0.09448818897637795
          },
          {
            "number": 6,
            "ticks": 37730,
            "time": 147.3828125,
            "value": 0.09448818897637795
          }
        ],
        "7": [
          {
            "number": 7,
            "ticks": 0,
            "time": 0,
            "value": 0.7874015748031497
          },
          {
            "number": 7,
            "ticks": 0,
            "time": 0,
            "value": 0.7874015748031497
          },
          {
            "number": 7,
            "ticks": 0,
            "time": 0,
            "value": 0.7874015748031497
          },
          {
            "number": 7,
            "ticks": 0,
            "time": 0,
            "value": 0.7874015748031497
          },
          {
            "number": 7,
            "ticks": 37728,
            "time": 147.375,
            "value": 0.7874015748031497
          },
          {
            "number": 7,
            "ticks": 37730,
            "time": 147.3828125,
            "value": 0.7874015748031497
          }
        ],
        "10": [
          {
            "number": 10,
            "ticks": 0,
            "time": 0,
            "value": 0.5039370078740157
          },
          {
            "number": 10,
            "ticks": 0,
            "time": 0,
            "value": 0.5039370078740157
          },
          {
            "number": 10,
            "ticks": 0,
            "time": 0,
            "value": 0.5039370078740157
          },
          {
            "number": 10,
            "ticks": 0,
            "time": 0,
            "value": 0.5039370078740157
          },
          {
            "number": 10,
            "ticks": 37728,
            "time": 147.375,
            "value": 0.5039370078740157
          },
          {
            "number": 10,
            "ticks": 37730,
            "time": 147.3828125,
            "value": 0.5039370078740157
          }
        ],
        "100": [
          {
            "number": 100,
            "ticks": 0,
            "time": 0,
            "value": 0
          },
          {
            "number": 100,
            "ticks": 0,
            "time": 0,
            "value": 0
          },
          {
            "number": 100,
            "ticks": 0,
            "time": 0,
            "value": 0
          },
          {
            "number": 100,
            "ticks": 37728,
            "time": 147.375,
            "value": 0
          },
          {
            "number": 100,
            "ticks": 37730,
            "time": 147.3828125,
            "value": 0
          }
        ],
        "101": [
          {
            "number": 101,
            "ticks": 0,
            "time": 0,
            "value": 0
          },
          {
            "number": 101,
            "ticks": 0,
            "time": 0,
            "value": 0
          },
          {
            "number": 101,
            "ticks": 0,
            "time": 0,
            "value": 0
          },
          {
            "number": 101,
            "ticks": 37728,
            "time": 147.375,
            "value": 0
          },
          {
            "number": 101,
            "ticks": 37730,
            "time": 147.3828125,
            "value": 0
          }
        ]
      },
      "pitchBends": [
        {
          "ticks": 0,
          "time": 0,
          "value": 0
        },
        {
          "ticks": 0,
          "time": 0,
          "value": 0
        },
        {
          "ticks": 0,
          "time": 0,
          "value": 0
        },
        {
          "ticks": 0,
          "time": 0,
          "value": 0
        },
        {
          "ticks": 37728,
          "time": 147.375,
          "value": 0
        },
        {
          "ticks": 37730,
          "time": 147.3828125,
          "value": 0
        }
      ],
      "instrument": {
        "family": "piano",
        "number": 0,
        "name": "acoustic grand piano"
      },
      "name": "Fx",
      "notes": [
        {
          "duration": 0.09375,
          "durationTicks": 24,
          "midi": 36,
          "name": "C2",
          "ticks": 192,
          "time": 0.75,
          "velocity": 0.023622047244094488
        },
        {
          "duration": 0.09375,
          "durationTicks": 24,
          "midi": 36,
          "name": "C2",
          "ticks": 216,
          "time": 0.84375,
          "velocity": 0.07086614173228346
        },
        {
          "duration": 0.09375,
          "durationTicks": 24,
          "midi": 36,
          "name": "C2",
          "ticks": 240,
          "time": 0.9375,
          "velocity": 0.11811023622047244
        },
        {
          "duration": 0.09375,
          "durationTicks": 24,
          "midi": 36,
          "name": "C2",
          "ticks": 264,
          "time": 1.03125,
          "velocity": 0.15748031496062992
        },
        {
          "duration": 0.09375,
          "durationTicks": 24,
          "midi": 36,
          "name": "C2",
          "ticks": 288,
          "time": 1.125,
          "velocity": 0.2047244094488189
        },
        {
          "duration": 0.09375,
          "durationTicks": 24,
          "midi": 36,
          "name": "C2",
          "ticks": 312,
          "time": 1.21875,
          "velocity": 0.25196850393700787
        },
        {
          "duration": 0.09375,
          "durationTicks": 24,
          "midi": 36,
          "name": "C2",
          "ticks": 336,
          "time": 1.3125,
          "velocity": 0.2992125984251969
        },
        {
          "duration": 0.09375,
          "durationTicks": 24,
          "midi": 36,
          "name": "C2",
          "ticks": 360,
          "time": 1.40625,
          "velocity": 0.3464566929133858
        },
        {
          "duration": 0.09375,
          "durationTicks": 24,
          "midi": 60,
          "name": "C4",
          "ticks": 384,
          "time": 1.5,
          "velocity": 0.33858267716535434
        },
        {
          "duration": 0.09375,
          "durationTicks": 24,
          "midi": 59,
          "name": "B3",
          "ticks": 408,
          "time": 1.59375,
          "velocity": 0.33070866141732286
        },
        {
          "duration": 0.09375,
          "durationTicks": 24,
          "midi": 58,
          "name": "A#3",
          "ticks": 432,
          "time": 1.6875,
          "velocity": 0.3228346456692913
        },
        {
          "duration": 0.09375,
          "durationTicks": 24,
          "midi": 57,
          "name": "A3",
          "ticks": 456,
          "time": 1.78125,
          "velocity": 0.31496062992125984
        },
        {
          "duration": 0.09375,
          "durationTicks": 24,
          "midi": 56,
          "name": "G#3",
          "ticks": 480,
          "time": 1.875,
          "velocity": 0.30708661417322836
        },
        {
          "duration": 0.09375,
          "durationTicks": 24,
          "midi": 55,
          "name": "G3",
          "ticks": 504,
          "time": 1.96875,
          "velocity": 0.29133858267716534
        },
        {
          "duration": 0.09375,
          "durationTicks": 24,
          "midi": 54,
          "name": "F#3",
          "ticks": 528,
          "time": 2.0625,
          "velocity": 0.28346456692913385
        },
        {
          "duration": 0.09375,
          "durationTicks": 24,
          "midi": 53,
          "name": "F3",
          "ticks": 552,
          "time": 2.15625,
          "velocity": 0.2755905511811024
        },
        {
          "duration": 0.09375,
          "durationTicks": 24,
          "midi": 52,
          "name": "E3",
          "ticks": 576,
          "time": 2.25,
          "velocity": 0.2677165354330709
        },
        {
          "duration": 0.09375,
          "durationTicks": 24,
          "midi": 51,
          "name": "D#3",
          "ticks": 600,
          "time": 2.34375,
          "velocity": 0.25196850393700787
        },
        {
          "duration": 0.09375,
          "durationTicks": 24,
          "midi": 50,
          "name": "D3",
          "ticks": 624,
          "time": 2.4375,
          "velocity": 0.2440944881889764
        },
        {
          "duration": 0.09375,
          "durationTicks": 24,
          "midi": 49,
          "name": "C#3",
          "ticks": 648,
          "time": 2.53125,
          "velocity": 0.23622047244094488
        },
        {
          "duration": 0.09375,
          "durationTicks": 24,
          "midi": 48,
          "name": "C3",
          "ticks": 672,
          "time": 2.625,
          "velocity": 0.2283464566929134
        },
        {
          "duration": 0.09375,
          "durationTicks": 24,
          "midi": 47,
          "name": "B2",
          "ticks": 696,
          "time": 2.71875,
          "velocity": 0.2204724409448819
        },
        {
          "duration": 0.09375,
          "durationTicks": 24,
          "midi": 46,
          "name": "A#2",
          "ticks": 720,
          "time": 2.8125,
          "velocity": 0.2047244094488189
        },
        {
          "duration": 0.09375,
          "durationTicks": 24,
          "midi": 45,
          "name": "A2",
          "ticks": 744,
          "time": 2.90625,
          "velocity": 0.1968503937007874
        },
        {
          "duration": 0.09375,
          "durationTicks": 24,
          "midi": 44,
          "name": "G#2",
          "ticks": 768,
          "time": 3,
          "velocity": 0.1889763779527559
        },
        {
          "duration": 0.09375,
          "durationTicks": 24,
          "midi": 43,
          "name": "G2",
          "ticks": 792,
          "time": 3.09375,
          "velocity": 0.18110236220472442
        },
        {
          "duration": 0.09375,
          "durationTicks": 24,
          "midi": 42,
          "name": "F#2",
          "ticks": 816,
          "time": 3.1875,
          "velocity": 0.1732283464566929
        },
        {
          "duration": 0.09375,
          "durationTicks": 24,
          "midi": 41,
          "name": "F2",
          "ticks": 840,
          "time": 3.28125,
          "velocity": 0.15748031496062992
        },
        {
          "duration": 0.09375,
          "durationTicks": 24,
          "midi": 40,
          "name": "E2",
          "ticks": 864,
          "time": 3.375,
          "velocity": 0.14960629921259844
        },
        {
          "duration": 0.09375,
          "durationTicks": 24,
          "midi": 39,
          "name": "D#2",
          "ticks": 888,
          "time": 3.46875,
          "velocity": 0.14173228346456693
        },
        {
          "duration": 0.09375,
          "durationTicks": 24,
          "midi": 38,
          "name": "D2",
          "ticks": 912,
          "time": 3.5625,
          "velocity": 0.13385826771653545
        },
        {
          "duration": 0.09375,
          "durationTicks": 24,
          "midi": 37,
          "name": "C#2",
          "ticks": 936,
          "time": 3.65625,
          "velocity": 0.11811023622047244
        },
        {
          "duration": 0.09375,
          "durationTicks": 24,
          "midi": 36,
          "name": "C2",
          "ticks": 960,
          "time": 3.75,
          "velocity": 0.11023622047244094
        },
        {
          "duration": 0.09375,
          "durationTicks": 24,
          "midi": 35,
          "name": "B1",
          "ticks": 984,
          "time": 3.84375,
          "velocity": 0.10236220472440945
        },
        {
          "duration": 0.09375,
          "durationTicks": 24,
          "midi": 34,
          "name": "A#1",
          "ticks": 1008,
          "time": 3.9375,
          "velocity": 0.09448818897637795
        },
        {
          "duration": 0.09375,
          "durationTicks": 24,
          "midi": 33,
          "name": "A1",
          "ticks": 1032,
          "time": 4.03125,
          "velocity": 0.08661417322834646
        },
        {
          "duration": 0.09375,
          "durationTicks": 24,
          "midi": 32,
          "name": "G#1",
          "ticks": 1056,
          "time": 4.125,
          "velocity": 0.07086614173228346
        },
        {
          "duration": 0.09375,
          "durationTicks": 24,
          "midi": 31,
          "name": "G1",
          "ticks": 1080,
          "time": 4.21875,
          "velocity": 0.06299212598425197
        },
        {
          "duration": 0.09375,
          "durationTicks": 24,
          "midi": 30,
          "name": "F#1",
          "ticks": 1104,
          "time": 4.3125,
          "velocity": 0.05511811023622047
        },
        {
          "duration": 0.09375,
          "durationTicks": 24,
          "midi": 29,
          "name": "F1",
          "ticks": 1128,
          "time": 4.40625,
          "velocity": 0.047244094488188976
        },
        {
          "duration": 0.09375,
          "durationTicks": 24,
          "midi": 28,
          "name": "E1",
          "ticks": 1152,
          "time": 4.5,
          "velocity": 0.03937007874015748
        },
        {
          "duration": 0.09375,
          "durationTicks": 24,
          "midi": 27,
          "name": "D#1",
          "ticks": 1176,
          "time": 4.59375,
          "velocity": 0.023622047244094488
        },
        {
          "duration": 0.09375,
          "durationTicks": 24,
          "midi": 26,
          "name": "D1",
          "ticks": 1200,
          "time": 4.6875,
          "velocity": 0.015748031496062992
        },
        {
          "duration": 0.09375,
          "durationTicks": 24,
          "midi": 25,
          "name": "C#1",
          "ticks": 1224,
          "time": 4.78125,
          "velocity": 0.007874015748031496
        },
        {
          "duration": 0.05859375,
          "durationTicks": 15,
          "midi": 60,
          "name": "C4",
          "ticks": 12720,
          "time": 49.6875,
          "velocity": 0.6141732283464567
        },
        {
          "duration": 0.05859375,
          "durationTicks": 15,
          "midi": 60,
          "name": "C4",
          "ticks": 12768,
          "time": 49.875,
          "velocity": 0.6141732283464567
        },
        {
          "duration": 0.05859375,
          "durationTicks": 15,
          "midi": 60,
          "name": "C4",
          "ticks": 12816,
          "time": 50.0625,
          "velocity": 0.6141732283464567
        },
        {
          "duration": 0.05859375,
          "durationTicks": 15,
          "midi": 60,
          "name": "C4",
          "ticks": 12864,
          "time": 50.25,
          "velocity": 0.6141732283464567
        },
        {
          "duration": 0.05859375,
          "durationTicks": 15,
          "midi": 60,
          "name": "C4",
          "ticks": 12912,
          "time": 50.4375,
          "velocity": 0.6141732283464567
        },
        {
          "duration": 0.05859375,
          "durationTicks": 15,
          "midi": 60,
          "name": "C4",
          "ticks": 12936,
          "time": 50.53125,
          "velocity": 0.6141732283464567
        },
        {
          "duration": 0.05859375,
          "durationTicks": 15,
          "midi": 60,
          "name": "C4",
          "ticks": 13008,
          "time": 50.8125,
          "velocity": 0.6141732283464567
        },
        {
          "duration": 0.05859375,
          "durationTicks": 15,
          "midi": 60,
          "name": "C4",
          "ticks": 13056,
          "time": 51,
          "velocity": 0.6141732283464567
        },
        {
          "duration": 0.05859375,
          "durationTicks": 15,
          "midi": 60,
          "name": "C4",
          "ticks": 13080,
          "time": 51.09375,
          "velocity": 0.6141732283464567
        },
        {
          "duration": 0.37109375,
          "durationTicks": 95,
          "midi": 72,
          "name": "C5",
          "ticks": 13152,
          "time": 51.375,
          "velocity": 0.6141732283464567
        },
        {
          "duration": 0.05859375,
          "durationTicks": 15,
          "midi": 60,
          "name": "C4",
          "ticks": 13488,
          "time": 52.6875,
          "velocity": 0.6141732283464567
        },
        {
          "duration": 0.05859375,
          "durationTicks": 15,
          "midi": 60,
          "name": "C4",
          "ticks": 13536,
          "time": 52.875,
          "velocity": 0.6141732283464567
        },
        {
          "duration": 0.05859375,
          "durationTicks": 15,
          "midi": 60,
          "name": "C4",
          "ticks": 13584,
          "time": 53.0625,
          "velocity": 0.6141732283464567
        },
        {
          "duration": 0.05859375,
          "durationTicks": 15,
          "midi": 60,
          "name": "C4",
          "ticks": 13632,
          "time": 53.25,
          "velocity": 0.6141732283464567
        },
        {
          "duration": 0.05859375,
          "durationTicks": 15,
          "midi": 60,
          "name": "C4",
          "ticks": 13680,
          "time": 53.4375,
          "velocity": 0.6141732283464567
        },
        {
          "duration": 0.05859375,
          "durationTicks": 15,
          "midi": 60,
          "name": "C4",
          "ticks": 13704,
          "time": 53.53125,
          "velocity": 0.6141732283464567
        },
        {
          "duration": 0.05859375,
          "durationTicks": 15,
          "midi": 60,
          "name": "C4",
          "ticks": 13776,
          "time": 53.8125,
          "velocity": 0.6141732283464567
        },
        {
          "duration": 0.05859375,
          "durationTicks": 15,
          "midi": 60,
          "name": "C4",
          "ticks": 13824,
          "time": 54,
          "velocity": 0.6141732283464567
        },
        {
          "duration": 0.05859375,
          "durationTicks": 15,
          "midi": 60,
          "name": "C4",
          "ticks": 13848,
          "time": 54.09375,
          "velocity": 0.6141732283464567
        },
        {
          "duration": 0.05859375,
          "durationTicks": 15,
          "midi": 60,
          "name": "C4",
          "ticks": 14256,
          "time": 55.6875,
          "velocity": 0.6141732283464567
        },
        {
          "duration": 0.05859375,
          "durationTicks": 15,
          "midi": 60,
          "name": "C4",
          "ticks": 14304,
          "time": 55.875,
          "velocity": 0.6141732283464567
        },
        {
          "duration": 0.05859375,
          "durationTicks": 15,
          "midi": 60,
          "name": "C4",
          "ticks": 14352,
          "time": 56.0625,
          "velocity": 0.6141732283464567
        },
        {
          "duration": 0.05859375,
          "durationTicks": 15,
          "midi": 60,
          "name": "C4",
          "ticks": 14400,
          "time": 56.25,
          "velocity": 0.6141732283464567
        },
        {
          "duration": 0.05859375,
          "durationTicks": 15,
          "midi": 60,
          "name": "C4",
          "ticks": 14448,
          "time": 56.4375,
          "velocity": 0.6141732283464567
        },
        {
          "duration": 0.05859375,
          "durationTicks": 15,
          "midi": 60,
          "name": "C4",
          "ticks": 14472,
          "time": 56.53125,
          "velocity": 0.6141732283464567
        },
        {
          "duration": 0.05859375,
          "durationTicks": 15,
          "midi": 60,
          "name": "C4",
          "ticks": 14544,
          "time": 56.8125,
          "velocity": 0.6141732283464567
        },
        {
          "duration": 0.05859375,
          "durationTicks": 15,
          "midi": 60,
          "name": "C4",
          "ticks": 14592,
          "time": 57,
          "velocity": 0.6141732283464567
        },
        {
          "duration": 0.05859375,
          "durationTicks": 15,
          "midi": 60,
          "name": "C4",
          "ticks": 14616,
          "time": 57.09375,
          "velocity": 0.6141732283464567
        },
        {
          "duration": 0.37109375,
          "durationTicks": 95,
          "midi": 72,
          "name": "C5",
          "ticks": 14688,
          "time": 57.375,
          "velocity": 0.6141732283464567
        },
        {
          "duration": 0.05859375,
          "durationTicks": 15,
          "midi": 60,
          "name": "C4",
          "ticks": 15024,
          "time": 58.6875,
          "velocity": 0.6141732283464567
        },
        {
          "duration": 0.05859375,
          "durationTicks": 15,
          "midi": 60,
          "name": "C4",
          "ticks": 15072,
          "time": 58.875,
          "velocity": 0.6141732283464567
        },
        {
          "duration": 0.05859375,
          "durationTicks": 15,
          "midi": 60,
          "name": "C4",
          "ticks": 15120,
          "time": 59.0625,
          "velocity": 0.6141732283464567
        },
        {
          "duration": 0.05859375,
          "durationTicks": 15,
          "midi": 60,
          "name": "C4",
          "ticks": 15168,
          "time": 59.25,
          "velocity": 0.6141732283464567
        },
        {
          "duration": 0.05859375,
          "durationTicks": 15,
          "midi": 60,
          "name": "C4",
          "ticks": 15216,
          "time": 59.4375,
          "velocity": 0.6141732283464567
        },
        {
          "duration": 0.05859375,
          "durationTicks": 15,
          "midi": 60,
          "name": "C4",
          "ticks": 15240,
          "time": 59.53125,
          "velocity": 0.6141732283464567
        },
        {
          "duration": 0.05859375,
          "durationTicks": 15,
          "midi": 60,
          "name": "C4",
          "ticks": 15312,
          "time": 59.8125,
          "velocity": 0.6141732283464567
        },
        {
          "duration": 0.1875,
          "durationTicks": 48,
          "midi": 60,
          "name": "C4",
          "ticks": 24624,
          "time": 96.1875,
          "velocity": 0.3543307086614173
        },
        {
          "duration": 0.1875,
          "durationTicks": 48,
          "midi": 60,
          "name": "C4",
          "ticks": 24720,
          "time": 96.5625,
          "velocity": 0.4330708661417323
        },
        {
          "duration": 0.1875,
          "durationTicks": 48,
          "midi": 60,
          "name": "C4",
          "ticks": 24816,
          "time": 96.9375,
          "velocity": 0.3543307086614173
        },
        {
          "duration": 0.1875,
          "durationTicks": 48,
          "midi": 60,
          "name": "C4",
          "ticks": 24912,
          "time": 97.3125,
          "velocity": 0.3543307086614173
        },
        {
          "duration": 0.1875,
          "durationTicks": 48,
          "midi": 60,
          "name": "C4",
          "ticks": 25008,
          "time": 97.6875,
          "velocity": 0.3543307086614173
        },
        {
          "duration": 0.1875,
          "durationTicks": 48,
          "midi": 60,
          "name": "C4",
          "ticks": 25104,
          "time": 98.0625,
          "velocity": 0.3543307086614173
        },
        {
          "duration": 0.1875,
          "durationTicks": 48,
          "midi": 60,
          "name": "C4",
          "ticks": 25200,
          "time": 98.4375,
          "velocity": 0.3543307086614173
        },
        {
          "duration": 0.1875,
          "durationTicks": 48,
          "midi": 60,
          "name": "C4",
          "ticks": 25296,
          "time": 98.8125,
          "velocity": 0.3543307086614173
        },
        {
          "duration": 0.1875,
          "durationTicks": 48,
          "midi": 60,
          "name": "C4",
          "ticks": 25392,
          "time": 99.1875,
          "velocity": 0.3543307086614173
        },
        {
          "duration": 0.1875,
          "durationTicks": 48,
          "midi": 60,
          "name": "C4",
          "ticks": 25488,
          "time": 99.5625,
          "velocity": 0.3543307086614173
        },
        {
          "duration": 0.1875,
          "durationTicks": 48,
          "midi": 60,
          "name": "C4",
          "ticks": 25584,
          "time": 99.9375,
          "velocity": 0.3543307086614173
        },
        {
          "duration": 0.1875,
          "durationTicks": 48,
          "midi": 60,
          "name": "C4",
          "ticks": 25680,
          "time": 100.3125,
          "velocity": 0.3543307086614173
        },
        {
          "duration": 0.1875,
          "durationTicks": 48,
          "midi": 60,
          "name": "C4",
          "ticks": 25776,
          "time": 100.6875,
          "velocity": 0.3543307086614173
        },
        {
          "duration": 0.1875,
          "durationTicks": 48,
          "midi": 60,
          "name": "C4",
          "ticks": 25872,
          "time": 101.0625,
          "velocity": 0.3543307086614173
        },
        {
          "duration": 0.1875,
          "durationTicks": 48,
          "midi": 60,
          "name": "C4",
          "ticks": 25968,
          "time": 101.4375,
          "velocity": 0.3543307086614173
        },
        {
          "duration": 0.1875,
          "durationTicks": 48,
          "midi": 60,
          "name": "C4",
          "ticks": 26064,
          "time": 101.8125,
          "velocity": 0.3543307086614173
        },
        {
          "duration": 0.1875,
          "durationTicks": 48,
          "midi": 60,
          "name": "C4",
          "ticks": 26160,
          "time": 102.1875,
          "velocity": 0.3543307086614173
        },
        {
          "duration": 0.1875,
          "durationTicks": 48,
          "midi": 60,
          "name": "C4",
          "ticks": 26256,
          "time": 102.5625,
          "velocity": 0.3543307086614173
        },
        {
          "duration": 0.1875,
          "durationTicks": 48,
          "midi": 60,
          "name": "C4",
          "ticks": 26352,
          "time": 102.9375,
          "velocity": 0.3543307086614173
        },
        {
          "duration": 0.1875,
          "durationTicks": 48,
          "midi": 60,
          "name": "C4",
          "ticks": 26448,
          "time": 103.3125,
          "velocity": 0.3543307086614173
        },
        {
          "duration": 0.1875,
          "durationTicks": 48,
          "midi": 60,
          "name": "C4",
          "ticks": 26544,
          "time": 103.6875,
          "velocity": 0.3543307086614173
        },
        {
          "duration": 0.1875,
          "durationTicks": 48,
          "midi": 60,
          "name": "C4",
          "ticks": 26640,
          "time": 104.0625,
          "velocity": 0.3543307086614173
        },
        {
          "duration": 0.1875,
          "durationTicks": 48,
          "midi": 60,
          "name": "C4",
          "ticks": 26736,
          "time": 104.4375,
          "velocity": 0.3543307086614173
        },
        {
          "duration": 0.1875,
          "durationTicks": 48,
          "midi": 60,
          "name": "C4",
          "ticks": 26832,
          "time": 104.8125,
          "velocity": 0.3543307086614173
        },
        {
          "duration": 0.1875,
          "durationTicks": 48,
          "midi": 60,
          "name": "C4",
          "ticks": 26928,
          "time": 105.1875,
          "velocity": 0.3543307086614173
        },
        {
          "duration": 0.01953125,
          "durationTicks": 5,
          "midi": 48,
          "name": "C3",
          "ticks": 27072,
          "time": 105.75,
          "velocity": 0.8503937007874016
        },
        {
          "duration": 0.01953125,
          "durationTicks": 5,
          "midi": 47,
          "name": "B2",
          "ticks": 27077,
          "time": 105.76953125,
          "velocity": 0.7952755905511811
        },
        {
          "duration": 0.01953125,
          "durationTicks": 5,
          "midi": 46,
          "name": "A#2",
          "ticks": 27082,
          "time": 105.7890625,
          "velocity": 0.7401574803149606
        },
        {
          "duration": 0.01953125,
          "durationTicks": 5,
          "midi": 45,
          "name": "A2",
          "ticks": 27087,
          "time": 105.80859375,
          "velocity": 0.6771653543307087
        },
        {
          "duration": 0.01953125,
          "durationTicks": 5,
          "midi": 44,
          "name": "G#2",
          "ticks": 27092,
          "time": 105.828125,
          "velocity": 0.6220472440944882
        },
        {
          "duration": 0.01953125,
          "durationTicks": 5,
          "midi": 43,
          "name": "G2",
          "ticks": 27097,
          "time": 105.84765625,
          "velocity": 0.5669291338582677
        },
        {
          "duration": 0.01953125,
          "durationTicks": 5,
          "midi": 42,
          "name": "F#2",
          "ticks": 27102,
          "time": 105.8671875,
          "velocity": 0.5039370078740157
        },
        {
          "duration": 0.01953125,
          "durationTicks": 5,
          "midi": 41,
          "name": "F2",
          "ticks": 27107,
          "time": 105.88671875,
          "velocity": 0.44881889763779526
        },
        {
          "duration": 0.01953125,
          "durationTicks": 5,
          "midi": 48,
          "name": "C3",
          "ticks": 27168,
          "time": 106.125,
          "velocity": 0.6771653543307087
        },
        {
          "duration": 0.01953125,
          "durationTicks": 5,
          "midi": 47,
          "name": "B2",
          "ticks": 27174,
          "time": 106.1484375,
          "velocity": 0.44881889763779526
        },
        {
          "duration": 0.01953125,
          "durationTicks": 5,
          "midi": 48,
          "name": "C3",
          "ticks": 27192,
          "time": 106.21875,
          "velocity": 0.6771653543307087
        },
        {
          "duration": 0.01953125,
          "durationTicks": 5,
          "midi": 47,
          "name": "B2",
          "ticks": 27198,
          "time": 106.2421875,
          "velocity": 0.44881889763779526
        },
        {
          "duration": 0.01953125,
          "durationTicks": 5,
          "midi": 48,
          "name": "C3",
          "ticks": 27216,
          "time": 106.3125,
          "velocity": 0.6771653543307087
        },
        {
          "duration": 0.01953125,
          "durationTicks": 5,
          "midi": 47,
          "name": "B2",
          "ticks": 27222,
          "time": 106.3359375,
          "velocity": 0.44881889763779526
        },
        {
          "duration": 0.046875,
          "durationTicks": 12,
          "midi": 84,
          "name": "C6",
          "ticks": 27264,
          "time": 106.5,
          "velocity": 0.7874015748031497
        },
        {
          "duration": 0.046875,
          "durationTicks": 12,
          "midi": 84,
          "name": "C6",
          "ticks": 27288,
          "time": 106.59375,
          "velocity": 0.7874015748031497
        },
        {
          "duration": 0.046875,
          "durationTicks": 12,
          "midi": 84,
          "name": "C6",
          "ticks": 27312,
          "time": 106.6875,
          "velocity": 0.7874015748031497
        },
        {
          "duration": 0.1875,
          "durationTicks": 48,
          "midi": 60,
          "name": "C4",
          "ticks": 27408,
          "time": 107.0625,
          "velocity": 0.3543307086614173
        },
        {
          "duration": 0.1875,
          "durationTicks": 48,
          "midi": 60,
          "name": "C4",
          "ticks": 27504,
          "time": 107.4375,
          "velocity": 0.3543307086614173
        },
        {
          "duration": 0.1875,
          "durationTicks": 48,
          "midi": 60,
          "name": "C4",
          "ticks": 27600,
          "time": 107.8125,
          "velocity": 0.3543307086614173
        },
        {
          "duration": 0.1875,
          "durationTicks": 48,
          "midi": 60,
          "name": "C4",
          "ticks": 27696,
          "time": 108.1875,
          "velocity": 0.3543307086614173
        },
        {
          "duration": 0.1875,
          "durationTicks": 48,
          "midi": 60,
          "name": "C4",
          "ticks": 27792,
          "time": 108.5625,
          "velocity": 0.3543307086614173
        },
        {
          "duration": 0.1875,
          "durationTicks": 48,
          "midi": 60,
          "name": "C4",
          "ticks": 27888,
          "time": 108.9375,
          "velocity": 0.3543307086614173
        },
        {
          "duration": 0.234375,
          "durationTicks": 60,
          "midi": 26,
          "name": "D1",
          "ticks": 27936,
          "time": 109.125,
          "velocity": 0.3700787401574803
        },
        {
          "duration": 0.1875,
          "durationTicks": 48,
          "midi": 60,
          "name": "C4",
          "ticks": 27984,
          "time": 109.3125,
          "velocity": 0.3543307086614173
        },
        {
          "duration": 0.234375,
          "durationTicks": 60,
          "midi": 27,
          "name": "D#1",
          "ticks": 28008,
          "time": 109.40625,
          "velocity": 0.3700787401574803
        },
        {
          "duration": 0.1875,
          "durationTicks": 48,
          "midi": 60,
          "name": "C4",
          "ticks": 28080,
          "time": 109.6875,
          "velocity": 0.3543307086614173
        },
        {
          "duration": 0.234375,
          "durationTicks": 60,
          "midi": 28,
          "name": "E1",
          "ticks": 28080,
          "time": 109.6875,
          "velocity": 0.3937007874015748
        },
        {
          "duration": 0.234375,
          "durationTicks": 60,
          "midi": 29,
          "name": "F1",
          "ticks": 28152,
          "time": 109.96875,
          "velocity": 0.41732283464566927
        },
        {
          "duration": 0.1875,
          "durationTicks": 48,
          "midi": 60,
          "name": "C4",
          "ticks": 28176,
          "time": 110.0625,
          "velocity": 0.3543307086614173
        },
        {
          "duration": 0.234375,
          "durationTicks": 60,
          "midi": 30,
          "name": "F#1",
          "ticks": 28224,
          "time": 110.25,
          "velocity": 0.4409448818897638
        },
        {
          "duration": 0.1875,
          "durationTicks": 48,
          "midi": 60,
          "name": "C4",
          "ticks": 28272,
          "time": 110.4375,
          "velocity": 0.3543307086614173
        },
        {
          "duration": 0.234375,
          "durationTicks": 60,
          "midi": 31,
          "name": "G1",
          "ticks": 28296,
          "time": 110.53125,
          "velocity": 0.4645669291338583
        },
        {
          "duration": 0.1875,
          "durationTicks": 48,
          "midi": 60,
          "name": "C4",
          "ticks": 28368,
          "time": 110.8125,
          "velocity": 0.3543307086614173
        },
        {
          "duration": 0.234375,
          "durationTicks": 60,
          "midi": 32,
          "name": "G#1",
          "ticks": 28368,
          "time": 110.8125,
          "velocity": 0.48031496062992124
        },
        {
          "duration": 0.234375,
          "durationTicks": 60,
          "midi": 33,
          "name": "A1",
          "ticks": 28440,
          "time": 111.09375,
          "velocity": 0.5039370078740157
        },
        {
          "duration": 0.1875,
          "durationTicks": 48,
          "midi": 60,
          "name": "C4",
          "ticks": 28464,
          "time": 111.1875,
          "velocity": 0.3543307086614173
        },
        {
          "duration": 0.234375,
          "durationTicks": 60,
          "midi": 34,
          "name": "A#1",
          "ticks": 28512,
          "time": 111.375,
          "velocity": 0.5275590551181102
        },
        {
          "duration": 0.1875,
          "durationTicks": 48,
          "midi": 60,
          "name": "C4",
          "ticks": 28560,
          "time": 111.5625,
          "velocity": 0.3543307086614173
        },
        {
          "duration": 0.234375,
          "durationTicks": 60,
          "midi": 35,
          "name": "B1",
          "ticks": 28560,
          "time": 111.5625,
          "velocity": 0.5433070866141733
        },
        {
          "duration": 0.1875,
          "durationTicks": 48,
          "midi": 36,
          "name": "C2",
          "ticks": 28608,
          "time": 111.75,
          "velocity": 0.5590551181102362
        },
        {
          "duration": 0.1875,
          "durationTicks": 48,
          "midi": 37,
          "name": "C#2",
          "ticks": 28656,
          "time": 111.9375,
          "velocity": 0.5748031496062992
        },
        {
          "duration": 0.1875,
          "durationTicks": 48,
          "midi": 60,
          "name": "C4",
          "ticks": 28656,
          "time": 111.9375,
          "velocity": 0.3543307086614173
        },
        {
          "duration": 0.1875,
          "durationTicks": 48,
          "midi": 38,
          "name": "D2",
          "ticks": 28704,
          "time": 112.125,
          "velocity": 0.5826771653543307
        },
        {
          "duration": 0.1875,
          "durationTicks": 48,
          "midi": 39,
          "name": "D#2",
          "ticks": 28752,
          "time": 112.3125,
          "velocity": 0.5984251968503937
        },
        {
          "duration": 0.1875,
          "durationTicks": 48,
          "midi": 60,
          "name": "C4",
          "ticks": 28752,
          "time": 112.3125,
          "velocity": 0.3543307086614173
        },
        {
          "duration": 0.1875,
          "durationTicks": 48,
          "midi": 40,
          "name": "E2",
          "ticks": 28800,
          "time": 112.5,
          "velocity": 0.6141732283464567
        },
        {
          "duration": 0.1875,
          "durationTicks": 48,
          "midi": 41,
          "name": "F2",
          "ticks": 28848,
          "time": 112.6875,
          "velocity": 0.6299212598425197
        },
        {
          "duration": 0.1875,
          "durationTicks": 48,
          "midi": 60,
          "name": "C4",
          "ticks": 28848,
          "time": 112.6875,
          "velocity": 0.3543307086614173
        },
        {
          "duration": 0.1875,
          "durationTicks": 48,
          "midi": 42,
          "name": "F#2",
          "ticks": 28896,
          "time": 112.875,
          "velocity": 0.6456692913385826
        },
        {
          "duration": 0.1875,
          "durationTicks": 48,
          "midi": 43,
          "name": "G2",
          "ticks": 28944,
          "time": 113.0625,
          "velocity": 0.6614173228346457
        },
        {
          "duration": 0.1875,
          "durationTicks": 48,
          "midi": 60,
          "name": "C4",
          "ticks": 28944,
          "time": 113.0625,
          "velocity": 0.3543307086614173
        },
        {
          "duration": 0.09375,
          "durationTicks": 24,
          "midi": 44,
          "name": "G#2",
          "ticks": 28992,
          "time": 113.25,
          "velocity": 0.6771653543307087
        },
        {
          "duration": 0.09375,
          "durationTicks": 24,
          "midi": 44,
          "name": "G#2",
          "ticks": 29016,
          "time": 113.34375,
          "velocity": 0.6850393700787402
        },
        {
          "duration": 0.09375,
          "durationTicks": 24,
          "midi": 45,
          "name": "A2",
          "ticks": 29040,
          "time": 113.4375,
          "velocity": 0.6929133858267716
        },
        {
          "duration": 0.1875,
          "durationTicks": 48,
          "midi": 60,
          "name": "C4",
          "ticks": 29040,
          "time": 113.4375,
          "velocity": 0.3543307086614173
        },
        {
          "duration": 0.09375,
          "durationTicks": 24,
          "midi": 45,
          "name": "A2",
          "ticks": 29064,
          "time": 113.53125,
          "velocity": 0.6929133858267716
        },
        {
          "duration": 0.09375,
          "durationTicks": 24,
          "midi": 46,
          "name": "A#2",
          "ticks": 29088,
          "time": 113.625,
          "velocity": 0.7007874015748031
        },
        {
          "duration": 0.09375,
          "durationTicks": 24,
          "midi": 46,
          "name": "A#2",
          "ticks": 29112,
          "time": 113.71875,
          "velocity": 0.7086614173228346
        },
        {
          "duration": 0.09375,
          "durationTicks": 24,
          "midi": 47,
          "name": "B2",
          "ticks": 29136,
          "time": 113.8125,
          "velocity": 0.7165354330708661
        },
        {
          "duration": 0.1875,
          "durationTicks": 48,
          "midi": 60,
          "name": "C4",
          "ticks": 29136,
          "time": 113.8125,
          "velocity": 0.3543307086614173
        },
        {
          "duration": 0.09375,
          "durationTicks": 24,
          "midi": 47,
          "name": "B2",
          "ticks": 29160,
          "time": 113.90625,
          "velocity": 0.7244094488188977
        },
        {
          "duration": 0.09375,
          "durationTicks": 24,
          "midi": 48,
          "name": "C3",
          "ticks": 29184,
          "time": 114,
          "velocity": 0.7322834645669292
        },
        {
          "duration": 0.09375,
          "durationTicks": 24,
          "midi": 48,
          "name": "C3",
          "ticks": 29208,
          "time": 114.09375,
          "velocity": 0.7401574803149606
        },
        {
          "duration": 0.09375,
          "durationTicks": 24,
          "midi": 49,
          "name": "C#3",
          "ticks": 29232,
          "time": 114.1875,
          "velocity": 0.7480314960629921
        },
        {
          "duration": 0.1875,
          "durationTicks": 48,
          "midi": 60,
          "name": "C4",
          "ticks": 29232,
          "time": 114.1875,
          "velocity": 0.3543307086614173
        },
        {
          "duration": 0.09375,
          "durationTicks": 24,
          "midi": 49,
          "name": "C#3",
          "ticks": 29256,
          "time": 114.28125,
          "velocity": 0.7559055118110236
        },
        {
          "duration": 0.046875,
          "durationTicks": 12,
          "midi": 48,
          "name": "C3",
          "ticks": 29280,
          "time": 114.375,
          "velocity": 0.8188976377952756
        },
        {
          "duration": 0.046875,
          "durationTicks": 12,
          "midi": 48,
          "name": "C3",
          "ticks": 29292,
          "time": 114.421875,
          "velocity": 0.8188976377952756
        },
        {
          "duration": 0.046875,
          "durationTicks": 12,
          "midi": 48,
          "name": "C3",
          "ticks": 29304,
          "time": 114.46875,
          "velocity": 0.8188976377952756
        },
        {
          "duration": 0.046875,
          "durationTicks": 12,
          "midi": 48,
          "name": "C3",
          "ticks": 29316,
          "time": 114.515625,
          "velocity": 0.8188976377952756
        },
        {
          "duration": 0.046875,
          "durationTicks": 12,
          "midi": 48,
          "name": "C3",
          "ticks": 29328,
          "time": 114.5625,
          "velocity": 0.8188976377952756
        },
        {
          "duration": 0.046875,
          "durationTicks": 12,
          "midi": 48,
          "name": "C3",
          "ticks": 29340,
          "time": 114.609375,
          "velocity": 0.8188976377952756
        },
        {
          "duration": 0.046875,
          "durationTicks": 12,
          "midi": 48,
          "name": "C3",
          "ticks": 29352,
          "time": 114.65625,
          "velocity": 0.8188976377952756
        },
        {
          "duration": 0.046875,
          "durationTicks": 12,
          "midi": 48,
          "name": "C3",
          "ticks": 29364,
          "time": 114.703125,
          "velocity": 0.8188976377952756
        },
        {
          "duration": 0.046875,
          "durationTicks": 12,
          "midi": 68,
          "name": "G#4",
          "ticks": 29376,
          "time": 114.75,
          "velocity": 0.7952755905511811
        },
        {
          "duration": 0.046875,
          "durationTicks": 12,
          "midi": 68,
          "name": "G#4",
          "ticks": 29400,
          "time": 114.84375,
          "velocity": 0.7952755905511811
        },
        {
          "duration": 0.046875,
          "durationTicks": 12,
          "midi": 68,
          "name": "G#4",
          "ticks": 29424,
          "time": 114.9375,
          "velocity": 0.7952755905511811
        },
        {
          "duration": 0.046875,
          "durationTicks": 12,
          "midi": 68,
          "name": "G#4",
          "ticks": 29448,
          "time": 115.03125,
          "velocity": 0.7952755905511811
        },
        {
          "duration": 0.046875,
          "durationTicks": 12,
          "midi": 56,
          "name": "G#3",
          "ticks": 29472,
          "time": 115.125,
          "velocity": 0.7952755905511811
        },
        {
          "duration": 0.046875,
          "durationTicks": 12,
          "midi": 68,
          "name": "G#4",
          "ticks": 29472,
          "time": 115.125,
          "velocity": 0.7952755905511811
        },
        {
          "duration": 0.046875,
          "durationTicks": 12,
          "midi": 80,
          "name": "G#5",
          "ticks": 29472,
          "time": 115.125,
          "velocity": 0.7952755905511811
        },
        {
          "duration": 0.046875,
          "durationTicks": 12,
          "midi": 56,
          "name": "G#3",
          "ticks": 29496,
          "time": 115.21875,
          "velocity": 0.7952755905511811
        },
        {
          "duration": 0.046875,
          "durationTicks": 12,
          "midi": 68,
          "name": "G#4",
          "ticks": 29496,
          "time": 115.21875,
          "velocity": 0.7952755905511811
        },
        {
          "duration": 0.046875,
          "durationTicks": 12,
          "midi": 80,
          "name": "G#5",
          "ticks": 29496,
          "time": 115.21875,
          "velocity": 0.7952755905511811
        },
        {
          "duration": 0.046875,
          "durationTicks": 12,
          "midi": 56,
          "name": "G#3",
          "ticks": 29520,
          "time": 115.3125,
          "velocity": 0.7952755905511811
        },
        {
          "duration": 0.046875,
          "durationTicks": 12,
          "midi": 68,
          "name": "G#4",
          "ticks": 29520,
          "time": 115.3125,
          "velocity": 0.7952755905511811
        },
        {
          "duration": 0.046875,
          "durationTicks": 12,
          "midi": 80,
          "name": "G#5",
          "ticks": 29520,
          "time": 115.3125,
          "velocity": 0.7952755905511811
        },
        {
          "duration": 0.046875,
          "durationTicks": 12,
          "midi": 56,
          "name": "G#3",
          "ticks": 29544,
          "time": 115.40625,
          "velocity": 0.7952755905511811
        },
        {
          "duration": 0.046875,
          "durationTicks": 12,
          "midi": 68,
          "name": "G#4",
          "ticks": 29544,
          "time": 115.40625,
          "velocity": 0.7952755905511811
        },
        {
          "duration": 0.046875,
          "durationTicks": 12,
          "midi": 80,
          "name": "G#5",
          "ticks": 29544,
          "time": 115.40625,
          "velocity": 0.7952755905511811
        },
        {
          "duration": 0.015625,
          "durationTicks": 4,
          "midi": 68,
          "name": "G#4",
          "ticks": 29568,
          "time": 115.5,
          "velocity": 0.7952755905511811
        },
        {
          "duration": 0.015625,
          "durationTicks": 4,
          "midi": 67,
          "name": "G4",
          "ticks": 29572,
          "time": 115.515625,
          "velocity": 0.7952755905511811
        },
        {
          "duration": 0.01953125,
          "durationTicks": 5,
          "midi": 66,
          "name": "F#4",
          "ticks": 29576,
          "time": 115.53125,
          "velocity": 0.7952755905511811
        },
        {
          "duration": 0.015625,
          "durationTicks": 4,
          "midi": 65,
          "name": "F4",
          "ticks": 29581,
          "time": 115.55078125,
          "velocity": 0.7952755905511811
        },
        {
          "duration": 0.015625,
          "durationTicks": 4,
          "midi": 64,
          "name": "E4",
          "ticks": 29585,
          "time": 115.56640625,
          "velocity": 0.7952755905511811
        },
        {
          "duration": 0.01953125,
          "durationTicks": 5,
          "midi": 63,
          "name": "D#4",
          "ticks": 29589,
          "time": 115.58203125,
          "velocity": 0.7952755905511811
        },
        {
          "duration": 0.01953125,
          "durationTicks": 5,
          "midi": 62,
          "name": "D4",
          "ticks": 29594,
          "time": 115.6015625,
          "velocity": 0.7952755905511811
        },
        {
          "duration": 0.015625,
          "durationTicks": 4,
          "midi": 61,
          "name": "C#4",
          "ticks": 29599,
          "time": 115.62109375,
          "velocity": 0.7952755905511811
        },
        {
          "duration": 0.015625,
          "durationTicks": 4,
          "midi": 60,
          "name": "C4",
          "ticks": 29603,
          "time": 115.63671875,
          "velocity": 0.7952755905511811
        },
        {
          "duration": 0.015625,
          "durationTicks": 4,
          "midi": 59,
          "name": "B3",
          "ticks": 29607,
          "time": 115.65234375,
          "velocity": 0.7952755905511811
        },
        {
          "duration": 0.01953125,
          "durationTicks": 5,
          "midi": 58,
          "name": "A#3",
          "ticks": 29611,
          "time": 115.66796875,
          "velocity": 0.7952755905511811
        },
        {
          "duration": 0.015625,
          "durationTicks": 4,
          "midi": 57,
          "name": "A3",
          "ticks": 29616,
          "time": 115.6875,
          "velocity": 0.7952755905511811
        }
      ],
      "endOfTrackTicks": 37730
    },
    {
      "channel": 11,
      "controlChanges": {
        "6": [
          {
            "number": 6,
            "ticks": 0,
            "time": 0,
            "value": 0.09448818897637795
          },
          {
            "number": 6,
            "ticks": 0,
            "time": 0,
            "value": 0.09448818897637795
          },
          {
            "number": 6,
            "ticks": 0,
            "time": 0,
            "value": 0.09448818897637795
          },
          {
            "number": 6,
            "ticks": 37728,
            "time": 147.375,
            "value": 0.09448818897637795
          },
          {
            "number": 6,
            "ticks": 37730,
            "time": 147.3828125,
            "value": 0.09448818897637795
          }
        ],
        "7": [
          {
            "number": 7,
            "ticks": 0,
            "time": 0,
            "value": 0.7874015748031497
          },
          {
            "number": 7,
            "ticks": 0,
            "time": 0,
            "value": 0.7874015748031497
          },
          {
            "number": 7,
            "ticks": 0,
            "time": 0,
            "value": 0.7874015748031497
          },
          {
            "number": 7,
            "ticks": 0,
            "time": 0,
            "value": 0.7874015748031497
          },
          {
            "number": 7,
            "ticks": 37728,
            "time": 147.375,
            "value": 0.7874015748031497
          },
          {
            "number": 7,
            "ticks": 37730,
            "time": 147.3828125,
            "value": 0.7874015748031497
          }
        ],
        "10": [
          {
            "number": 10,
            "ticks": 0,
            "time": 0,
            "value": 0.5039370078740157
          },
          {
            "number": 10,
            "ticks": 0,
            "time": 0,
            "value": 0.5039370078740157
          },
          {
            "number": 10,
            "ticks": 0,
            "time": 0,
            "value": 0.5039370078740157
          },
          {
            "number": 10,
            "ticks": 0,
            "time": 0,
            "value": 0.5039370078740157
          },
          {
            "number": 10,
            "ticks": 37728,
            "time": 147.375,
            "value": 0.5039370078740157
          },
          {
            "number": 10,
            "ticks": 37730,
            "time": 147.3828125,
            "value": 0.5039370078740157
          }
        ],
        "100": [
          {
            "number": 100,
            "ticks": 0,
            "time": 0,
            "value": 0
          },
          {
            "number": 100,
            "ticks": 0,
            "time": 0,
            "value": 0
          },
          {
            "number": 100,
            "ticks": 0,
            "time": 0,
            "value": 0
          },
          {
            "number": 100,
            "ticks": 37728,
            "time": 147.375,
            "value": 0
          },
          {
            "number": 100,
            "ticks": 37730,
            "time": 147.3828125,
            "value": 0
          }
        ],
        "101": [
          {
            "number": 101,
            "ticks": 0,
            "time": 0,
            "value": 0
          },
          {
            "number": 101,
            "ticks": 0,
            "time": 0,
            "value": 0
          },
          {
            "number": 101,
            "ticks": 0,
            "time": 0,
            "value": 0
          },
          {
            "number": 101,
            "ticks": 37728,
            "time": 147.375,
            "value": 0
          },
          {
            "number": 101,
            "ticks": 37730,
            "time": 147.3828125,
            "value": 0
          }
        ]
      },
      "pitchBends": [
        {
          "ticks": 0,
          "time": 0,
          "value": 0
        },
        {
          "ticks": 0,
          "time": 0,
          "value": 0
        },
        {
          "ticks": 0,
          "time": 0,
          "value": 0
        },
        {
          "ticks": 0,
          "time": 0,
          "value": 0
        },
        {
          "ticks": 37728,
          "time": 147.375,
          "value": 0
        },
        {
          "ticks": 37730,
          "time": 147.3828125,
          "value": 0
        }
      ],
      "instrument": {
        "family": "piano",
        "number": 0,
        "name": "acoustic grand piano"
      },
      "name": "Drum",
      "notes": [
        {
          "duration": 0.234375,
          "durationTicks": 60,
          "midi": 24,
          "name": "C1",
          "ticks": 384,
          "time": 1.5,
          "velocity": 0.8188976377952756
        },
        {
          "duration": 0.234375,
          "durationTicks": 60,
          "midi": 24,
          "name": "C1",
          "ticks": 480,
          "time": 1.875,
          "velocity": 0.8188976377952756
        },
        {
          "duration": 0.234375,
          "durationTicks": 60,
          "midi": 24,
          "name": "C1",
          "ticks": 576,
          "time": 2.25,
          "velocity": 0.8188976377952756
        },
        {
          "duration": 0.234375,
          "durationTicks": 60,
          "midi": 24,
          "name": "C1",
          "ticks": 672,
          "time": 2.625,
          "velocity": 0.8188976377952756
        },
        {
          "duration": 0.234375,
          "durationTicks": 60,
          "midi": 24,
          "name": "C1",
          "ticks": 768,
          "time": 3,
          "velocity": 0.8188976377952756
        },
        {
          "duration": 0.234375,
          "durationTicks": 60,
          "midi": 24,
          "name": "C1",
          "ticks": 864,
          "time": 3.375,
          "velocity": 0.8188976377952756
        },
        {
          "duration": 0.234375,
          "durationTicks": 60,
          "midi": 24,
          "name": "C1",
          "ticks": 960,
          "time": 3.75,
          "velocity": 0.8188976377952756
        },
        {
          "duration": 0.234375,
          "durationTicks": 60,
          "midi": 24,
          "name": "C1",
          "ticks": 1056,
          "time": 4.125,
          "velocity": 0.8188976377952756
        },
        {
          "duration": 0.234375,
          "durationTicks": 60,
          "midi": 24,
          "name": "C1",
          "ticks": 1152,
          "time": 4.5,
          "velocity": 0.8188976377952756
        },
        {
          "duration": 0.234375,
          "durationTicks": 60,
          "midi": 24,
          "name": "C1",
          "ticks": 1248,
          "time": 4.875,
          "velocity": 0.8188976377952756
        },
        {
          "duration": 0.234375,
          "durationTicks": 60,
          "midi": 24,
          "name": "C1",
          "ticks": 1344,
          "time": 5.25,
          "velocity": 0.8188976377952756
        },
        {
          "duration": 0.234375,
          "durationTicks": 60,
          "midi": 24,
          "name": "C1",
          "ticks": 1440,
          "time": 5.625,
          "velocity": 0.8188976377952756
        },
        {
          "duration": 0.234375,
          "durationTicks": 60,
          "midi": 24,
          "name": "C1",
          "ticks": 1536,
          "time": 6,
          "velocity": 0.8188976377952756
        },
        {
          "duration": 0.234375,
          "durationTicks": 60,
          "midi": 24,
          "name": "C1",
          "ticks": 1632,
          "time": 6.375,
          "velocity": 0.8188976377952756
        },
        {
          "duration": 0.234375,
          "durationTicks": 60,
          "midi": 24,
          "name": "C1",
          "ticks": 1728,
          "time": 6.75,
          "velocity": 0.8188976377952756
        },
        {
          "duration": 0.078125,
          "durationTicks": 20,
          "midi": 24,
          "name": "C1",
          "ticks": 1824,
          "time": 7.125,
          "velocity": 0.8188976377952756
        },
        {
          "duration": 0.078125,
          "durationTicks": 20,
          "midi": 24,
          "name": "C1",
          "ticks": 1848,
          "time": 7.21875,
          "velocity": 0.8188976377952756
        },
        {
          "duration": 0.078125,
          "durationTicks": 20,
          "midi": 24,
          "name": "C1",
          "ticks": 1872,
          "time": 7.3125,
          "velocity": 0.8188976377952756
        },
        {
          "duration": 0.078125,
          "durationTicks": 20,
          "midi": 24,
          "name": "C1",
          "ticks": 1896,
          "time": 7.40625,
          "velocity": 0.8188976377952756
        },
        {
          "duration": 0.234375,
          "durationTicks": 60,
          "midi": 24,
          "name": "C1",
          "ticks": 1920,
          "time": 7.5,
          "velocity": 0.8188976377952756
        },
        {
          "duration": 0.234375,
          "durationTicks": 60,
          "midi": 24,
          "name": "C1",
          "ticks": 2016,
          "time": 7.875,
          "velocity": 0.8188976377952756
        },
        {
          "duration": 0.234375,
          "durationTicks": 60,
          "midi": 24,
          "name": "C1",
          "ticks": 2112,
          "time": 8.25,
          "velocity": 0.8188976377952756
        },
        {
          "duration": 0.234375,
          "durationTicks": 60,
          "midi": 24,
          "name": "C1",
          "ticks": 2208,
          "time": 8.625,
          "velocity": 0.8188976377952756
        },
        {
          "duration": 0.234375,
          "durationTicks": 60,
          "midi": 24,
          "name": "C1",
          "ticks": 2304,
          "time": 9,
          "velocity": 0.8188976377952756
        },
        {
          "duration": 0.234375,
          "durationTicks": 60,
          "midi": 24,
          "name": "C1",
          "ticks": 2400,
          "time": 9.375,
          "velocity": 0.8188976377952756
        },
        {
          "duration": 0.234375,
          "durationTicks": 60,
          "midi": 24,
          "name": "C1",
          "ticks": 2496,
          "time": 9.75,
          "velocity": 0.8188976377952756
        },
        {
          "duration": 0.234375,
          "durationTicks": 60,
          "midi": 24,
          "name": "C1",
          "ticks": 2592,
          "time": 10.125,
          "velocity": 0.8188976377952756
        },
        {
          "duration": 0.234375,
          "durationTicks": 60,
          "midi": 24,
          "name": "C1",
          "ticks": 2688,
          "time": 10.5,
          "velocity": 0.8188976377952756
        },
        {
          "duration": 0.234375,
          "durationTicks": 60,
          "midi": 24,
          "name": "C1",
          "ticks": 2784,
          "time": 10.875,
          "velocity": 0.8188976377952756
        },
        {
          "duration": 0.234375,
          "durationTicks": 60,
          "midi": 24,
          "name": "C1",
          "ticks": 2880,
          "time": 11.25,
          "velocity": 0.8188976377952756
        },
        {
          "duration": 0.234375,
          "durationTicks": 60,
          "midi": 24,
          "name": "C1",
          "ticks": 2976,
          "time": 11.625,
          "velocity": 0.8188976377952756
        },
        {
          "duration": 0.078125,
          "durationTicks": 20,
          "midi": 24,
          "name": "C1",
          "ticks": 3072,
          "time": 12,
          "velocity": 0.8188976377952756
        },
        {
          "duration": 0.078125,
          "durationTicks": 20,
          "midi": 24,
          "name": "C1",
          "ticks": 3096,
          "time": 12.09375,
          "velocity": 0.8188976377952756
        },
        {
          "duration": 0.078125,
          "durationTicks": 20,
          "midi": 24,
          "name": "C1",
          "ticks": 3120,
          "time": 12.1875,
          "velocity": 0.8188976377952756
        },
        {
          "duration": 0.078125,
          "durationTicks": 20,
          "midi": 24,
          "name": "C1",
          "ticks": 3168,
          "time": 12.375,
          "velocity": 0.8188976377952756
        },
        {
          "duration": 0.078125,
          "durationTicks": 20,
          "midi": 24,
          "name": "C1",
          "ticks": 3192,
          "time": 12.46875,
          "velocity": 0.8188976377952756
        },
        {
          "duration": 0.078125,
          "durationTicks": 20,
          "midi": 24,
          "name": "C1",
          "ticks": 3216,
          "time": 12.5625,
          "velocity": 0.8188976377952756
        },
        {
          "duration": 0.078125,
          "durationTicks": 20,
          "midi": 31,
          "name": "G1",
          "ticks": 3264,
          "time": 12.75,
          "velocity": 0.8188976377952756
        },
        {
          "duration": 0.078125,
          "durationTicks": 20,
          "midi": 31,
          "name": "G1",
          "ticks": 3288,
          "time": 12.84375,
          "velocity": 0.8188976377952756
        },
        {
          "duration": 0.078125,
          "durationTicks": 20,
          "midi": 31,
          "name": "G1",
          "ticks": 3312,
          "time": 12.9375,
          "velocity": 0.8188976377952756
        },
        {
          "duration": 0.078125,
          "durationTicks": 20,
          "midi": 31,
          "name": "G1",
          "ticks": 3360,
          "time": 13.125,
          "velocity": 0.8188976377952756
        },
        {
          "duration": 0.078125,
          "durationTicks": 20,
          "midi": 31,
          "name": "G1",
          "ticks": 3384,
          "time": 13.21875,
          "velocity": 0.8188976377952756
        },
        {
          "duration": 0.078125,
          "durationTicks": 20,
          "midi": 31,
          "name": "G1",
          "ticks": 3408,
          "time": 13.3125,
          "velocity": 0.8188976377952756
        },
        {
          "duration": 0.078125,
          "durationTicks": 20,
          "midi": 31,
          "name": "G1",
          "ticks": 3432,
          "time": 13.40625,
          "velocity": 0.8188976377952756
        },
        {
          "duration": 0.234375,
          "durationTicks": 60,
          "midi": 32,
          "name": "G#1",
          "ticks": 3456,
          "time": 13.5,
          "velocity": 0.8188976377952756
        },
        {
          "duration": 0.234375,
          "durationTicks": 60,
          "midi": 32,
          "name": "G#1",
          "ticks": 3552,
          "time": 13.875,
          "velocity": 0.8188976377952756
        },
        {
          "duration": 0.234375,
          "durationTicks": 60,
          "midi": 31,
          "name": "G1",
          "ticks": 3648,
          "time": 14.25,
          "velocity": 0.8188976377952756
        },
        {
          "duration": 0.234375,
          "durationTicks": 60,
          "midi": 31,
          "name": "G1",
          "ticks": 3744,
          "time": 14.625,
          "velocity": 0.8188976377952756
        },
        {
          "duration": 0.234375,
          "durationTicks": 60,
          "midi": 36,
          "name": "C2",
          "ticks": 3840,
          "time": 15,
          "velocity": 0.8188976377952756
        },
        {
          "duration": 0.234375,
          "durationTicks": 60,
          "midi": 36,
          "name": "C2",
          "ticks": 3936,
          "time": 15.375,
          "velocity": 0.8188976377952756
        },
        {
          "duration": 0.234375,
          "durationTicks": 60,
          "midi": 34,
          "name": "A#1",
          "ticks": 4032,
          "time": 15.75,
          "velocity": 0.8188976377952756
        },
        {
          "duration": 0.234375,
          "durationTicks": 60,
          "midi": 34,
          "name": "A#1",
          "ticks": 4128,
          "time": 16.125,
          "velocity": 0.8188976377952756
        },
        {
          "duration": 0.234375,
          "durationTicks": 60,
          "midi": 32,
          "name": "G#1",
          "ticks": 4224,
          "time": 16.5,
          "velocity": 0.8188976377952756
        },
        {
          "duration": 0.234375,
          "durationTicks": 60,
          "midi": 32,
          "name": "G#1",
          "ticks": 4320,
          "time": 16.875,
          "velocity": 0.8188976377952756
        },
        {
          "duration": 0.234375,
          "durationTicks": 60,
          "midi": 34,
          "name": "A#1",
          "ticks": 4416,
          "time": 17.25,
          "velocity": 0.8188976377952756
        },
        {
          "duration": 0.234375,
          "durationTicks": 60,
          "midi": 34,
          "name": "A#1",
          "ticks": 4512,
          "time": 17.625,
          "velocity": 0.8188976377952756
        },
        {
          "duration": 0.234375,
          "durationTicks": 60,
          "midi": 39,
          "name": "D#2",
          "ticks": 4608,
          "time": 18,
          "velocity": 0.8188976377952756
        },
        {
          "duration": 0.234375,
          "durationTicks": 60,
          "midi": 39,
          "name": "D#2",
          "ticks": 4704,
          "time": 18.375,
          "velocity": 0.8188976377952756
        },
        {
          "duration": 0.234375,
          "durationTicks": 60,
          "midi": 38,
          "name": "D2",
          "ticks": 4800,
          "time": 18.75,
          "velocity": 0.8188976377952756
        },
        {
          "duration": 0.234375,
          "durationTicks": 60,
          "midi": 38,
          "name": "D2",
          "ticks": 4896,
          "time": 19.125,
          "velocity": 0.8188976377952756
        },
        {
          "duration": 0.234375,
          "durationTicks": 60,
          "midi": 29,
          "name": "F1",
          "ticks": 4992,
          "time": 19.5,
          "velocity": 0.8188976377952756
        },
        {
          "duration": 0.234375,
          "durationTicks": 60,
          "midi": 29,
          "name": "F1",
          "ticks": 5088,
          "time": 19.875,
          "velocity": 0.8188976377952756
        },
        {
          "duration": 0.234375,
          "durationTicks": 60,
          "midi": 34,
          "name": "A#1",
          "ticks": 5184,
          "time": 20.25,
          "velocity": 0.8188976377952756
        },
        {
          "duration": 0.234375,
          "durationTicks": 60,
          "midi": 34,
          "name": "A#1",
          "ticks": 5280,
          "time": 20.625,
          "velocity": 0.8188976377952756
        },
        {
          "duration": 0.234375,
          "durationTicks": 60,
          "midi": 27,
          "name": "D#1",
          "ticks": 5376,
          "time": 21,
          "velocity": 0.8188976377952756
        },
        {
          "duration": 0.234375,
          "durationTicks": 60,
          "midi": 27,
          "name": "D#1",
          "ticks": 5472,
          "time": 21.375,
          "velocity": 0.8188976377952756
        },
        {
          "duration": 0.234375,
          "durationTicks": 60,
          "midi": 32,
          "name": "G#1",
          "ticks": 5568,
          "time": 21.75,
          "velocity": 0.8188976377952756
        },
        {
          "duration": 0.234375,
          "durationTicks": 60,
          "midi": 32,
          "name": "G#1",
          "ticks": 5664,
          "time": 22.125,
          "velocity": 0.8188976377952756
        },
        {
          "duration": 0.234375,
          "durationTicks": 60,
          "midi": 26,
          "name": "D1",
          "ticks": 5760,
          "time": 22.5,
          "velocity": 0.8188976377952756
        },
        {
          "duration": 0.234375,
          "durationTicks": 60,
          "midi": 26,
          "name": "D1",
          "ticks": 5856,
          "time": 22.875,
          "velocity": 0.8188976377952756
        },
        {
          "duration": 0.234375,
          "durationTicks": 60,
          "midi": 27,
          "name": "D#1",
          "ticks": 5952,
          "time": 23.25,
          "velocity": 0.8188976377952756
        },
        {
          "duration": 0.234375,
          "durationTicks": 60,
          "midi": 30,
          "name": "F#1",
          "ticks": 6048,
          "time": 23.625,
          "velocity": 0.8188976377952756
        },
        {
          "duration": 0.234375,
          "durationTicks": 60,
          "midi": 31,
          "name": "G1",
          "ticks": 6144,
          "time": 24,
          "velocity": 0.8188976377952756
        },
        {
          "duration": 0.234375,
          "durationTicks": 60,
          "midi": 31,
          "name": "G1",
          "ticks": 6240,
          "time": 24.375,
          "velocity": 0.8188976377952756
        },
        {
          "duration": 0.234375,
          "durationTicks": 60,
          "midi": 31,
          "name": "G1",
          "ticks": 6336,
          "time": 24.75,
          "velocity": 0.8188976377952756
        },
        {
          "duration": 0.234375,
          "durationTicks": 60,
          "midi": 31,
          "name": "G1",
          "ticks": 6432,
          "time": 25.125,
          "velocity": 0.8188976377952756
        },
        {
          "duration": 0.234375,
          "durationTicks": 60,
          "midi": 32,
          "name": "G#1",
          "ticks": 6528,
          "time": 25.5,
          "velocity": 0.8188976377952756
        },
        {
          "duration": 0.234375,
          "durationTicks": 60,
          "midi": 32,
          "name": "G#1",
          "ticks": 6624,
          "time": 25.875,
          "velocity": 0.8188976377952756
        },
        {
          "duration": 0.234375,
          "durationTicks": 60,
          "midi": 31,
          "name": "G1",
          "ticks": 6720,
          "time": 26.25,
          "velocity": 0.8188976377952756
        },
        {
          "duration": 0.234375,
          "durationTicks": 60,
          "midi": 31,
          "name": "G1",
          "ticks": 6816,
          "time": 26.625,
          "velocity": 0.8188976377952756
        },
        {
          "duration": 0.234375,
          "durationTicks": 60,
          "midi": 36,
          "name": "C2",
          "ticks": 6912,
          "time": 27,
          "velocity": 0.8188976377952756
        },
        {
          "duration": 0.234375,
          "durationTicks": 60,
          "midi": 36,
          "name": "C2",
          "ticks": 7008,
          "time": 27.375,
          "velocity": 0.8188976377952756
        },
        {
          "duration": 0.234375,
          "durationTicks": 60,
          "midi": 34,
          "name": "A#1",
          "ticks": 7104,
          "time": 27.75,
          "velocity": 0.8188976377952756
        },
        {
          "duration": 0.234375,
          "durationTicks": 60,
          "midi": 34,
          "name": "A#1",
          "ticks": 7200,
          "time": 28.125,
          "velocity": 0.8188976377952756
        },
        {
          "duration": 0.234375,
          "durationTicks": 60,
          "midi": 32,
          "name": "G#1",
          "ticks": 7296,
          "time": 28.5,
          "velocity": 0.8188976377952756
        },
        {
          "duration": 0.234375,
          "durationTicks": 60,
          "midi": 32,
          "name": "G#1",
          "ticks": 7392,
          "time": 28.875,
          "velocity": 0.8188976377952756
        },
        {
          "duration": 0.234375,
          "durationTicks": 60,
          "midi": 34,
          "name": "A#1",
          "ticks": 7488,
          "time": 29.25,
          "velocity": 0.8188976377952756
        },
        {
          "duration": 0.234375,
          "durationTicks": 60,
          "midi": 34,
          "name": "A#1",
          "ticks": 7584,
          "time": 29.625,
          "velocity": 0.8188976377952756
        },
        {
          "duration": 0.234375,
          "durationTicks": 60,
          "midi": 39,
          "name": "D#2",
          "ticks": 7680,
          "time": 30,
          "velocity": 0.8188976377952756
        },
        {
          "duration": 0.234375,
          "durationTicks": 60,
          "midi": 39,
          "name": "D#2",
          "ticks": 7776,
          "time": 30.375,
          "velocity": 0.8188976377952756
        },
        {
          "duration": 0.234375,
          "durationTicks": 60,
          "midi": 40,
          "name": "E2",
          "ticks": 7872,
          "time": 30.75,
          "velocity": 0.8188976377952756
        },
        {
          "duration": 0.234375,
          "durationTicks": 60,
          "midi": 40,
          "name": "E2",
          "ticks": 7968,
          "time": 31.125,
          "velocity": 0.8188976377952756
        },
        {
          "duration": 0.234375,
          "durationTicks": 60,
          "midi": 29,
          "name": "F1",
          "ticks": 8064,
          "time": 31.5,
          "velocity": 0.8188976377952756
        },
        {
          "duration": 0.234375,
          "durationTicks": 60,
          "midi": 29,
          "name": "F1",
          "ticks": 8160,
          "time": 31.875,
          "velocity": 0.8188976377952756
        },
        {
          "duration": 0.234375,
          "durationTicks": 60,
          "midi": 34,
          "name": "A#1",
          "ticks": 8256,
          "time": 32.25,
          "velocity": 0.8188976377952756
        },
        {
          "duration": 0.234375,
          "durationTicks": 60,
          "midi": 34,
          "name": "A#1",
          "ticks": 8352,
          "time": 32.625,
          "velocity": 0.8188976377952756
        },
        {
          "duration": 0.234375,
          "durationTicks": 60,
          "midi": 35,
          "name": "B1",
          "ticks": 8448,
          "time": 33,
          "velocity": 0.8188976377952756
        },
        {
          "duration": 0.234375,
          "durationTicks": 60,
          "midi": 35,
          "name": "B1",
          "ticks": 8544,
          "time": 33.375,
          "velocity": 0.8188976377952756
        },
        {
          "duration": 0.234375,
          "durationTicks": 60,
          "midi": 36,
          "name": "C2",
          "ticks": 8640,
          "time": 33.75,
          "velocity": 0.8188976377952756
        },
        {
          "duration": 0.234375,
          "durationTicks": 60,
          "midi": 34,
          "name": "A#1",
          "ticks": 8736,
          "time": 34.125,
          "velocity": 0.8188976377952756
        },
        {
          "duration": 0.234375,
          "durationTicks": 60,
          "midi": 32,
          "name": "G#1",
          "ticks": 8832,
          "time": 34.5,
          "velocity": 0.8188976377952756
        },
        {
          "duration": 0.234375,
          "durationTicks": 60,
          "midi": 32,
          "name": "G#1",
          "ticks": 8928,
          "time": 34.875,
          "velocity": 0.8188976377952756
        },
        {
          "duration": 0.234375,
          "durationTicks": 60,
          "midi": 34,
          "name": "A#1",
          "ticks": 9024,
          "time": 35.25,
          "velocity": 0.8188976377952756
        },
        {
          "duration": 0.234375,
          "durationTicks": 60,
          "midi": 34,
          "name": "A#1",
          "ticks": 9120,
          "time": 35.625,
          "velocity": 0.8188976377952756
        },
        {
          "duration": 0.234375,
          "durationTicks": 60,
          "midi": 36,
          "name": "C2",
          "ticks": 9216,
          "time": 36,
          "velocity": 0.8110236220472441
        },
        {
          "duration": 0.234375,
          "durationTicks": 60,
          "midi": 36,
          "name": "C2",
          "ticks": 9312,
          "time": 36.375,
          "velocity": 0.8110236220472441
        },
        {
          "duration": 0.234375,
          "durationTicks": 60,
          "midi": 36,
          "name": "C2",
          "ticks": 9408,
          "time": 36.75,
          "velocity": 0.8110236220472441
        },
        {
          "duration": 0.234375,
          "durationTicks": 60,
          "midi": 36,
          "name": "C2",
          "ticks": 9504,
          "time": 37.125,
          "velocity": 0.8110236220472441
        },
        {
          "duration": 0.234375,
          "durationTicks": 60,
          "midi": 24,
          "name": "C1",
          "ticks": 9600,
          "time": 37.5,
          "velocity": 0.8188976377952756
        },
        {
          "duration": 0.234375,
          "durationTicks": 60,
          "midi": 24,
          "name": "C1",
          "ticks": 9696,
          "time": 37.875,
          "velocity": 0.8188976377952756
        },
        {
          "duration": 0.234375,
          "durationTicks": 60,
          "midi": 24,
          "name": "C1",
          "ticks": 9792,
          "time": 38.25,
          "velocity": 0.8188976377952756
        },
        {
          "duration": 0.234375,
          "durationTicks": 60,
          "midi": 24,
          "name": "C1",
          "ticks": 9888,
          "time": 38.625,
          "velocity": 0.8188976377952756
        },
        {
          "duration": 0.234375,
          "durationTicks": 60,
          "midi": 24,
          "name": "C1",
          "ticks": 9984,
          "time": 39,
          "velocity": 0.8188976377952756
        },
        {
          "duration": 0.234375,
          "durationTicks": 60,
          "midi": 24,
          "name": "C1",
          "ticks": 10080,
          "time": 39.375,
          "velocity": 0.8188976377952756
        },
        {
          "duration": 0.234375,
          "durationTicks": 60,
          "midi": 32,
          "name": "G#1",
          "ticks": 10176,
          "time": 39.75,
          "velocity": 0.8188976377952756
        },
        {
          "duration": 0.234375,
          "durationTicks": 60,
          "midi": 35,
          "name": "B1",
          "ticks": 10272,
          "time": 40.125,
          "velocity": 0.8188976377952756
        },
        {
          "duration": 0.234375,
          "durationTicks": 60,
          "midi": 24,
          "name": "C1",
          "ticks": 10368,
          "time": 40.5,
          "velocity": 0.8188976377952756
        },
        {
          "duration": 0.234375,
          "durationTicks": 60,
          "midi": 24,
          "name": "C1",
          "ticks": 10464,
          "time": 40.875,
          "velocity": 0.8188976377952756
        },
        {
          "duration": 0.234375,
          "durationTicks": 60,
          "midi": 24,
          "name": "C1",
          "ticks": 10560,
          "time": 41.25,
          "velocity": 0.8188976377952756
        },
        {
          "duration": 0.234375,
          "durationTicks": 60,
          "midi": 24,
          "name": "C1",
          "ticks": 10656,
          "time": 41.625,
          "velocity": 0.8188976377952756
        },
        {
          "duration": 0.234375,
          "durationTicks": 60,
          "midi": 24,
          "name": "C1",
          "ticks": 10752,
          "time": 42,
          "velocity": 0.8188976377952756
        },
        {
          "duration": 0.234375,
          "durationTicks": 60,
          "midi": 24,
          "name": "C1",
          "ticks": 10848,
          "time": 42.375,
          "velocity": 0.8188976377952756
        },
        {
          "duration": 0.078125,
          "durationTicks": 20,
          "midi": 32,
          "name": "G#1",
          "ticks": 10944,
          "time": 42.75,
          "velocity": 0.8188976377952756
        },
        {
          "duration": 0.078125,
          "durationTicks": 20,
          "midi": 32,
          "name": "G#1",
          "ticks": 10968,
          "time": 42.84375,
          "velocity": 0.8188976377952756
        },
        {
          "duration": 0.078125,
          "durationTicks": 20,
          "midi": 32,
          "name": "G#1",
          "ticks": 10992,
          "time": 42.9375,
          "velocity": 0.8188976377952756
        },
        {
          "duration": 0.078125,
          "durationTicks": 20,
          "midi": 26,
          "name": "D1",
          "ticks": 11040,
          "time": 43.125,
          "velocity": 0.8188976377952756
        },
        {
          "duration": 0.078125,
          "durationTicks": 20,
          "midi": 26,
          "name": "D1",
          "ticks": 11064,
          "time": 43.21875,
          "velocity": 0.8188976377952756
        },
        {
          "duration": 0.078125,
          "durationTicks": 20,
          "midi": 26,
          "name": "D1",
          "ticks": 11088,
          "time": 43.3125,
          "velocity": 0.8188976377952756
        },
        {
          "duration": 0.234375,
          "durationTicks": 60,
          "midi": 24,
          "name": "C1",
          "ticks": 11136,
          "time": 43.5,
          "velocity": 0.8188976377952756
        },
        {
          "duration": 0.234375,
          "durationTicks": 60,
          "midi": 24,
          "name": "C1",
          "ticks": 11232,
          "time": 43.875,
          "velocity": 0.8188976377952756
        },
        {
          "duration": 0.234375,
          "durationTicks": 60,
          "midi": 24,
          "name": "C1",
          "ticks": 11328,
          "time": 44.25,
          "velocity": 0.8188976377952756
        },
        {
          "duration": 0.234375,
          "durationTicks": 60,
          "midi": 24,
          "name": "C1",
          "ticks": 11424,
          "time": 44.625,
          "velocity": 0.8188976377952756
        },
        {
          "duration": 0.234375,
          "durationTicks": 60,
          "midi": 24,
          "name": "C1",
          "ticks": 11520,
          "time": 45,
          "velocity": 0.8188976377952756
        },
        {
          "duration": 0.234375,
          "durationTicks": 60,
          "midi": 24,
          "name": "C1",
          "ticks": 11616,
          "time": 45.375,
          "velocity": 0.8188976377952756
        },
        {
          "duration": 0.234375,
          "durationTicks": 60,
          "midi": 32,
          "name": "G#1",
          "ticks": 11712,
          "time": 45.75,
          "velocity": 0.8188976377952756
        },
        {
          "duration": 0.234375,
          "durationTicks": 60,
          "midi": 35,
          "name": "B1",
          "ticks": 11808,
          "time": 46.125,
          "velocity": 0.8188976377952756
        },
        {
          "duration": 0.234375,
          "durationTicks": 60,
          "midi": 24,
          "name": "C1",
          "ticks": 11904,
          "time": 46.5,
          "velocity": 0.8188976377952756
        },
        {
          "duration": 0.234375,
          "durationTicks": 60,
          "midi": 24,
          "name": "C1",
          "ticks": 12000,
          "time": 46.875,
          "velocity": 0.8188976377952756
        },
        {
          "duration": 0.234375,
          "durationTicks": 60,
          "midi": 24,
          "name": "C1",
          "ticks": 12096,
          "time": 47.25,
          "velocity": 0.8188976377952756
        },
        {
          "duration": 0.234375,
          "durationTicks": 60,
          "midi": 24,
          "name": "C1",
          "ticks": 12192,
          "time": 47.625,
          "velocity": 0.8188976377952756
        },
        {
          "duration": 0.234375,
          "durationTicks": 60,
          "midi": 24,
          "name": "C1",
          "ticks": 12288,
          "time": 48,
          "velocity": 0.8188976377952756
        },
        {
          "duration": 0.0625,
          "durationTicks": 16,
          "midi": 36,
          "name": "C2",
          "ticks": 12336,
          "time": 48.1875,
          "velocity": 0.8188976377952756
        },
        {
          "duration": 0.0625,
          "durationTicks": 16,
          "midi": 24,
          "name": "C1",
          "ticks": 12384,
          "time": 48.375,
          "velocity": 0.8188976377952756
        },
        {
          "duration": 0.0625,
          "durationTicks": 16,
          "midi": 24,
          "name": "C1",
          "ticks": 12408,
          "time": 48.46875,
          "velocity": 0.8188976377952756
        },
        {
          "duration": 0.0625,
          "durationTicks": 16,
          "midi": 24,
          "name": "C1",
          "ticks": 12432,
          "time": 48.5625,
          "velocity": 0.8188976377952756
        },
        {
          "duration": 0.0625,
          "durationTicks": 16,
          "midi": 24,
          "name": "C1",
          "ticks": 12456,
          "time": 48.65625,
          "velocity": 0.8188976377952756
        },
        {
          "duration": 0.1875,
          "durationTicks": 48,
          "midi": 24,
          "name": "C1",
          "ticks": 12480,
          "time": 48.75,
          "velocity": 0.8188976377952756
        },
        {
          "duration": 0.046875,
          "durationTicks": 12,
          "midi": 36,
          "name": "C2",
          "ticks": 12576,
          "time": 49.125,
          "velocity": 0.8188976377952756
        },
        {
          "duration": 0.046875,
          "durationTicks": 12,
          "midi": 24,
          "name": "C1",
          "ticks": 12576,
          "time": 49.125,
          "velocity": 0.8188976377952756
        },
        {
          "duration": 0.046875,
          "durationTicks": 12,
          "midi": 36,
          "name": "C2",
          "ticks": 12600,
          "time": 49.21875,
          "velocity": 0.8188976377952756
        },
        {
          "duration": 0.046875,
          "durationTicks": 12,
          "midi": 24,
          "name": "C1",
          "ticks": 12600,
          "time": 49.21875,
          "velocity": 0.8188976377952756
        },
        {
          "duration": 0.046875,
          "durationTicks": 12,
          "midi": 36,
          "name": "C2",
          "ticks": 12624,
          "time": 49.3125,
          "velocity": 0.8188976377952756
        },
        {
          "duration": 0.046875,
          "durationTicks": 12,
          "midi": 24,
          "name": "C1",
          "ticks": 12624,
          "time": 49.3125,
          "velocity": 0.8188976377952756
        },
        {
          "duration": 0.046875,
          "durationTicks": 12,
          "midi": 36,
          "name": "C2",
          "ticks": 12648,
          "time": 49.40625,
          "velocity": 0.8188976377952756
        },
        {
          "duration": 0.046875,
          "durationTicks": 12,
          "midi": 24,
          "name": "C1",
          "ticks": 12648,
          "time": 49.40625,
          "velocity": 0.8188976377952756
        },
        {
          "duration": 0.234375,
          "durationTicks": 60,
          "midi": 24,
          "name": "C1",
          "ticks": 12672,
          "time": 49.5,
          "velocity": 0.8188976377952756
        },
        {
          "duration": 0.234375,
          "durationTicks": 60,
          "midi": 24,
          "name": "C1",
          "ticks": 12768,
          "time": 49.875,
          "velocity": 0.8188976377952756
        },
        {
          "duration": 0.234375,
          "durationTicks": 60,
          "midi": 24,
          "name": "C1",
          "ticks": 12864,
          "time": 50.25,
          "velocity": 0.8188976377952756
        },
        {
          "duration": 0.234375,
          "durationTicks": 60,
          "midi": 24,
          "name": "C1",
          "ticks": 12960,
          "time": 50.625,
          "velocity": 0.8188976377952756
        },
        {
          "duration": 0.234375,
          "durationTicks": 60,
          "midi": 24,
          "name": "C1",
          "ticks": 13056,
          "time": 51,
          "velocity": 0.8188976377952756
        },
        {
          "duration": 0.234375,
          "durationTicks": 60,
          "midi": 24,
          "name": "C1",
          "ticks": 13152,
          "time": 51.375,
          "velocity": 0.8188976377952756
        },
        {
          "duration": 0.234375,
          "durationTicks": 60,
          "midi": 32,
          "name": "G#1",
          "ticks": 13248,
          "time": 51.75,
          "velocity": 0.8188976377952756
        },
        {
          "duration": 0.234375,
          "durationTicks": 60,
          "midi": 35,
          "name": "B1",
          "ticks": 13344,
          "time": 52.125,
          "velocity": 0.8188976377952756
        },
        {
          "duration": 0.234375,
          "durationTicks": 60,
          "midi": 24,
          "name": "C1",
          "ticks": 13440,
          "time": 52.5,
          "velocity": 0.8188976377952756
        },
        {
          "duration": 0.234375,
          "durationTicks": 60,
          "midi": 24,
          "name": "C1",
          "ticks": 13536,
          "time": 52.875,
          "velocity": 0.8188976377952756
        },
        {
          "duration": 0.234375,
          "durationTicks": 60,
          "midi": 24,
          "name": "C1",
          "ticks": 13632,
          "time": 53.25,
          "velocity": 0.8188976377952756
        },
        {
          "duration": 0.234375,
          "durationTicks": 60,
          "midi": 24,
          "name": "C1",
          "ticks": 13728,
          "time": 53.625,
          "velocity": 0.8188976377952756
        },
        {
          "duration": 0.234375,
          "durationTicks": 60,
          "midi": 24,
          "name": "C1",
          "ticks": 13824,
          "time": 54,
          "velocity": 0.8188976377952756
        },
        {
          "duration": 0.234375,
          "durationTicks": 60,
          "midi": 24,
          "name": "C1",
          "ticks": 13920,
          "time": 54.375,
          "velocity": 0.8188976377952756
        },
        {
          "duration": 0.234375,
          "durationTicks": 60,
          "midi": 32,
          "name": "G#1",
          "ticks": 14016,
          "time": 54.75,
          "velocity": 0.8188976377952756
        },
        {
          "duration": 0.234375,
          "durationTicks": 60,
          "midi": 26,
          "name": "D1",
          "ticks": 14112,
          "time": 55.125,
          "velocity": 0.8188976377952756
        },
        {
          "duration": 0.234375,
          "durationTicks": 60,
          "midi": 24,
          "name": "C1",
          "ticks": 14208,
          "time": 55.5,
          "velocity": 0.8188976377952756
        },
        {
          "duration": 0.234375,
          "durationTicks": 60,
          "midi": 24,
          "name": "C1",
          "ticks": 14304,
          "time": 55.875,
          "velocity": 0.8188976377952756
        },
        {
          "duration": 0.234375,
          "durationTicks": 60,
          "midi": 24,
          "name": "C1",
          "ticks": 14400,
          "time": 56.25,
          "velocity": 0.8188976377952756
        },
        {
          "duration": 0.234375,
          "durationTicks": 60,
          "midi": 24,
          "name": "C1",
          "ticks": 14496,
          "time": 56.625,
          "velocity": 0.8188976377952756
        },
        {
          "duration": 0.234375,
          "durationTicks": 60,
          "midi": 24,
          "name": "C1",
          "ticks": 14592,
          "time": 57,
          "velocity": 0.8188976377952756
        },
        {
          "duration": 0.234375,
          "durationTicks": 60,
          "midi": 24,
          "name": "C1",
          "ticks": 14688,
          "time": 57.375,
          "velocity": 0.8188976377952756
        },
        {
          "duration": 0.234375,
          "durationTicks": 60,
          "midi": 32,
          "name": "G#1",
          "ticks": 14784,
          "time": 57.75,
          "velocity": 0.8188976377952756
        },
        {
          "duration": 0.234375,
          "durationTicks": 60,
          "midi": 35,
          "name": "B1",
          "ticks": 14880,
          "time": 58.125,
          "velocity": 0.8188976377952756
        },
        {
          "duration": 0.078125,
          "durationTicks": 20,
          "midi": 24,
          "name": "C1",
          "ticks": 14976,
          "time": 58.5,
          "velocity": 0.8188976377952756
        },
        {
          "duration": 0.078125,
          "durationTicks": 20,
          "midi": 24,
          "name": "C1",
          "ticks": 15000,
          "time": 58.59375,
          "velocity": 0.8188976377952756
        },
        {
          "duration": 0.078125,
          "durationTicks": 20,
          "midi": 24,
          "name": "C1",
          "ticks": 15024,
          "time": 58.6875,
          "velocity": 0.8188976377952756
        },
        {
          "duration": 0.078125,
          "durationTicks": 20,
          "midi": 24,
          "name": "C1",
          "ticks": 15072,
          "time": 58.875,
          "velocity": 0.8188976377952756
        },
        {
          "duration": 0.078125,
          "durationTicks": 20,
          "midi": 24,
          "name": "C1",
          "ticks": 15096,
          "time": 58.96875,
          "velocity": 0.8188976377952756
        },
        {
          "duration": 0.078125,
          "durationTicks": 20,
          "midi": 24,
          "name": "C1",
          "ticks": 15120,
          "time": 59.0625,
          "velocity": 0.8188976377952756
        },
        {
          "duration": 0.078125,
          "durationTicks": 20,
          "midi": 24,
          "name": "C1",
          "ticks": 15168,
          "time": 59.25,
          "velocity": 0.8188976377952756
        },
        {
          "duration": 0.078125,
          "durationTicks": 20,
          "midi": 24,
          "name": "C1",
          "ticks": 15192,
          "time": 59.34375,
          "velocity": 0.8188976377952756
        },
        {
          "duration": 0.078125,
          "durationTicks": 20,
          "midi": 24,
          "name": "C1",
          "ticks": 15216,
          "time": 59.4375,
          "velocity": 0.8188976377952756
        },
        {
          "duration": 0.078125,
          "durationTicks": 20,
          "midi": 24,
          "name": "C1",
          "ticks": 15240,
          "time": 59.53125,
          "velocity": 0.8188976377952756
        },
        {
          "duration": 0.078125,
          "durationTicks": 20,
          "midi": 24,
          "name": "C1",
          "ticks": 15264,
          "time": 59.625,
          "velocity": 0.8188976377952756
        },
        {
          "duration": 0.078125,
          "durationTicks": 20,
          "midi": 24,
          "name": "C1",
          "ticks": 15288,
          "time": 59.71875,
          "velocity": 0.8188976377952756
        },
        {
          "duration": 0.078125,
          "durationTicks": 20,
          "midi": 24,
          "name": "C1",
          "ticks": 15312,
          "time": 59.8125,
          "velocity": 0.8188976377952756
        },
        {
          "duration": 0.078125,
          "durationTicks": 20,
          "midi": 24,
          "name": "C1",
          "ticks": 15336,
          "time": 59.90625,
          "velocity": 0.8188976377952756
        },
        {
          "duration": 0.171875,
          "durationTicks": 44,
          "midi": 31,
          "name": "G1",
          "ticks": 15360,
          "time": 60,
          "velocity": 0.8188976377952756
        },
        {
          "duration": 0.171875,
          "durationTicks": 44,
          "midi": 31,
          "name": "G1",
          "ticks": 15432,
          "time": 60.28125,
          "velocity": 0.8188976377952756
        },
        {
          "duration": 0.171875,
          "durationTicks": 44,
          "midi": 31,
          "name": "G1",
          "ticks": 15504,
          "time": 60.5625,
          "velocity": 0.8188976377952756
        },
        {
          "duration": 0.171875,
          "durationTicks": 44,
          "midi": 31,
          "name": "G1",
          "ticks": 15576,
          "time": 60.84375,
          "velocity": 0.8188976377952756
        },
        {
          "duration": 0.046875,
          "durationTicks": 12,
          "midi": 31,
          "name": "G1",
          "ticks": 15648,
          "time": 61.125,
          "velocity": 0.8188976377952756
        },
        {
          "duration": 0.046875,
          "durationTicks": 12,
          "midi": 31,
          "name": "G1",
          "ticks": 15664,
          "time": 61.1875,
          "velocity": 0.8188976377952756
        },
        {
          "duration": 0.046875,
          "durationTicks": 12,
          "midi": 31,
          "name": "G1",
          "ticks": 15680,
          "time": 61.25,
          "velocity": 0.8188976377952756
        },
        {
          "duration": 0.046875,
          "durationTicks": 12,
          "midi": 31,
          "name": "G1",
          "ticks": 15696,
          "time": 61.3125,
          "velocity": 0.8188976377952756
        },
        {
          "duration": 0.046875,
          "durationTicks": 12,
          "midi": 31,
          "name": "G1",
          "ticks": 15712,
          "time": 61.375,
          "velocity": 0.8188976377952756
        },
        {
          "duration": 0.046875,
          "durationTicks": 12,
          "midi": 31,
          "name": "G1",
          "ticks": 15728,
          "time": 61.4375,
          "velocity": 0.8188976377952756
        },
        {
          "duration": 0.265625,
          "durationTicks": 68,
          "midi": 32,
          "name": "G#1",
          "ticks": 18816,
          "time": 73.5,
          "velocity": 0.8188976377952756
        },
        {
          "duration": 0.265625,
          "durationTicks": 68,
          "midi": 32,
          "name": "G#1",
          "ticks": 18912,
          "time": 73.875,
          "velocity": 0.8188976377952756
        },
        {
          "duration": 0.265625,
          "durationTicks": 68,
          "midi": 31,
          "name": "G1",
          "ticks": 19008,
          "time": 74.25,
          "velocity": 0.8188976377952756
        },
        {
          "duration": 0.265625,
          "durationTicks": 68,
          "midi": 31,
          "name": "G1",
          "ticks": 19104,
          "time": 74.625,
          "velocity": 0.8188976377952756
        },
        {
          "duration": 0.265625,
          "durationTicks": 68,
          "midi": 36,
          "name": "C2",
          "ticks": 19200,
          "time": 75,
          "velocity": 0.8188976377952756
        },
        {
          "duration": 0.265625,
          "durationTicks": 68,
          "midi": 36,
          "name": "C2",
          "ticks": 19296,
          "time": 75.375,
          "velocity": 0.8188976377952756
        },
        {
          "duration": 0.265625,
          "durationTicks": 68,
          "midi": 35,
          "name": "B1",
          "ticks": 19392,
          "time": 75.75,
          "velocity": 0.8188976377952756
        },
        {
          "duration": 0.265625,
          "durationTicks": 68,
          "midi": 35,
          "name": "B1",
          "ticks": 19488,
          "time": 76.125,
          "velocity": 0.8188976377952756
        },
        {
          "duration": 0.265625,
          "durationTicks": 68,
          "midi": 36,
          "name": "C2",
          "ticks": 19584,
          "time": 76.5,
          "velocity": 0.8188976377952756
        },
        {
          "duration": 0.265625,
          "durationTicks": 68,
          "midi": 36,
          "name": "C2",
          "ticks": 19680,
          "time": 76.875,
          "velocity": 0.8188976377952756
        },
        {
          "duration": 0.265625,
          "durationTicks": 68,
          "midi": 37,
          "name": "C#2",
          "ticks": 19776,
          "time": 77.25,
          "velocity": 0.8188976377952756
        },
        {
          "duration": 0.265625,
          "durationTicks": 68,
          "midi": 37,
          "name": "C#2",
          "ticks": 19872,
          "time": 77.625,
          "velocity": 0.8188976377952756
        },
        {
          "duration": 0.265625,
          "durationTicks": 68,
          "midi": 30,
          "name": "F#1",
          "ticks": 19968,
          "time": 78,
          "velocity": 0.8188976377952756
        },
        {
          "duration": 0.265625,
          "durationTicks": 68,
          "midi": 30,
          "name": "F#1",
          "ticks": 20064,
          "time": 78.375,
          "velocity": 0.8188976377952756
        },
        {
          "duration": 0.265625,
          "durationTicks": 68,
          "midi": 31,
          "name": "G1",
          "ticks": 20160,
          "time": 78.75,
          "velocity": 0.8188976377952756
        },
        {
          "duration": 0.265625,
          "durationTicks": 68,
          "midi": 31,
          "name": "G1",
          "ticks": 20256,
          "time": 79.125,
          "velocity": 0.8188976377952756
        },
        {
          "duration": 0.265625,
          "durationTicks": 68,
          "midi": 36,
          "name": "C2",
          "ticks": 20352,
          "time": 79.5,
          "velocity": 0.8188976377952756
        },
        {
          "duration": 0.265625,
          "durationTicks": 68,
          "midi": 36,
          "name": "C2",
          "ticks": 20448,
          "time": 79.875,
          "velocity": 0.8188976377952756
        },
        {
          "duration": 0.265625,
          "durationTicks": 68,
          "midi": 40,
          "name": "E2",
          "ticks": 20544,
          "time": 80.25,
          "velocity": 0.8188976377952756
        },
        {
          "duration": 0.265625,
          "durationTicks": 68,
          "midi": 40,
          "name": "E2",
          "ticks": 20640,
          "time": 80.625,
          "velocity": 0.8188976377952756
        },
        {
          "duration": 0.265625,
          "durationTicks": 68,
          "midi": 41,
          "name": "F2",
          "ticks": 20736,
          "time": 81,
          "velocity": 0.8188976377952756
        },
        {
          "duration": 0.265625,
          "durationTicks": 68,
          "midi": 41,
          "name": "F2",
          "ticks": 20832,
          "time": 81.375,
          "velocity": 0.8188976377952756
        },
        {
          "duration": 0.265625,
          "durationTicks": 68,
          "midi": 34,
          "name": "A#1",
          "ticks": 20928,
          "time": 81.75,
          "velocity": 0.8188976377952756
        },
        {
          "duration": 0.265625,
          "durationTicks": 68,
          "midi": 34,
          "name": "A#1",
          "ticks": 21024,
          "time": 82.125,
          "velocity": 0.8188976377952756
        },
        {
          "duration": 0.265625,
          "durationTicks": 68,
          "midi": 39,
          "name": "D#2",
          "ticks": 21120,
          "time": 82.5,
          "velocity": 0.8188976377952756
        },
        {
          "duration": 0.265625,
          "durationTicks": 68,
          "midi": 39,
          "name": "D#2",
          "ticks": 21216,
          "time": 82.875,
          "velocity": 0.8188976377952756
        },
        {
          "duration": 0.265625,
          "durationTicks": 68,
          "midi": 32,
          "name": "G#1",
          "ticks": 21312,
          "time": 83.25,
          "velocity": 0.8188976377952756
        },
        {
          "duration": 0.265625,
          "durationTicks": 68,
          "midi": 32,
          "name": "G#1",
          "ticks": 21408,
          "time": 83.625,
          "velocity": 0.8188976377952756
        },
        {
          "duration": 0.265625,
          "durationTicks": 68,
          "midi": 38,
          "name": "D2",
          "ticks": 21504,
          "time": 84,
          "velocity": 0.8188976377952756
        },
        {
          "duration": 0.265625,
          "durationTicks": 68,
          "midi": 38,
          "name": "D2",
          "ticks": 21600,
          "time": 84.375,
          "velocity": 0.8188976377952756
        },
        {
          "duration": 0.265625,
          "durationTicks": 68,
          "midi": 31,
          "name": "G1",
          "ticks": 21696,
          "time": 84.75,
          "velocity": 0.8188976377952756
        },
        {
          "duration": 0.265625,
          "durationTicks": 68,
          "midi": 31,
          "name": "G1",
          "ticks": 21792,
          "time": 85.125,
          "velocity": 0.8188976377952756
        },
        {
          "duration": 0.140625,
          "durationTicks": 36,
          "midi": 36,
          "name": "C2",
          "ticks": 23232,
          "time": 90.75,
          "velocity": 0.6377952755905512
        },
        {
          "duration": 0.046875,
          "durationTicks": 12,
          "midi": 36,
          "name": "C2",
          "ticks": 23304,
          "time": 91.03125,
          "velocity": 0.6377952755905512
        },
        {
          "duration": 0.140625,
          "durationTicks": 36,
          "midi": 36,
          "name": "C2",
          "ticks": 23328,
          "time": 91.125,
          "velocity": 0.6377952755905512
        },
        {
          "duration": 0.046875,
          "durationTicks": 12,
          "midi": 36,
          "name": "C2",
          "ticks": 23376,
          "time": 91.3125,
          "velocity": 0.6377952755905512
        },
        {
          "duration": 0.046875,
          "durationTicks": 12,
          "midi": 36,
          "name": "C2",
          "ticks": 23400,
          "time": 91.40625,
          "velocity": 0.6377952755905512
        },
        {
          "duration": 0.140625,
          "durationTicks": 36,
          "midi": 36,
          "name": "C2",
          "ticks": 23424,
          "time": 91.5,
          "velocity": 0.6377952755905512
        },
        {
          "duration": 0.140625,
          "durationTicks": 36,
          "midi": 36,
          "name": "C2",
          "ticks": 23496,
          "time": 91.78125,
          "velocity": 0.6377952755905512
        },
        {
          "duration": 0.046875,
          "durationTicks": 12,
          "midi": 36,
          "name": "C2",
          "ticks": 23544,
          "time": 91.96875,
          "velocity": 0.6377952755905512
        },
        {
          "duration": 0.046875,
          "durationTicks": 12,
          "midi": 36,
          "name": "C2",
          "ticks": 23568,
          "time": 92.0625,
          "velocity": 0.6377952755905512
        },
        {
          "duration": 0.046875,
          "durationTicks": 12,
          "midi": 36,
          "name": "C2",
          "ticks": 23592,
          "time": 92.15625,
          "velocity": 0.6377952755905512
        },
        {
          "duration": 0.140625,
          "durationTicks": 36,
          "midi": 36,
          "name": "C2",
          "ticks": 23616,
          "time": 92.25,
          "velocity": 0.6377952755905512
        },
        {
          "duration": 0.046875,
          "durationTicks": 12,
          "midi": 36,
          "name": "C2",
          "ticks": 23688,
          "time": 92.53125,
          "velocity": 0.6377952755905512
        },
        {
          "duration": 0.140625,
          "durationTicks": 36,
          "midi": 36,
          "name": "C2",
          "ticks": 23712,
          "time": 92.625,
          "velocity": 0.6377952755905512
        },
        {
          "duration": 0.046875,
          "durationTicks": 12,
          "midi": 36,
          "name": "C2",
          "ticks": 23784,
          "time": 92.90625,
          "velocity": 0.6377952755905512
        },
        {
          "duration": 0.140625,
          "durationTicks": 36,
          "midi": 36,
          "name": "C2",
          "ticks": 23808,
          "time": 93,
          "velocity": 0.6377952755905512
        },
        {
          "duration": 0.046875,
          "durationTicks": 12,
          "midi": 36,
          "name": "C2",
          "ticks": 23856,
          "time": 93.1875,
          "velocity": 0.6377952755905512
        },
        {
          "duration": 0.046875,
          "durationTicks": 12,
          "midi": 36,
          "name": "C2",
          "ticks": 23880,
          "time": 93.28125,
          "velocity": 0.6377952755905512
        },
        {
          "duration": 0.140625,
          "durationTicks": 36,
          "midi": 36,
          "name": "C2",
          "ticks": 23904,
          "time": 93.375,
          "velocity": 0.6377952755905512
        },
        {
          "duration": 0.046875,
          "durationTicks": 12,
          "midi": 36,
          "name": "C2",
          "ticks": 23976,
          "time": 93.65625,
          "velocity": 0.6377952755905512
        },
        {
          "duration": 0.140625,
          "durationTicks": 36,
          "midi": 36,
          "name": "C2",
          "ticks": 24000,
          "time": 93.75,
          "velocity": 0.6377952755905512
        },
        {
          "duration": 0.046875,
          "durationTicks": 12,
          "midi": 24,
          "name": "C1",
          "ticks": 24048,
          "time": 93.9375,
          "velocity": 0.7952755905511811
        },
        {
          "duration": 0.046875,
          "durationTicks": 12,
          "midi": 24,
          "name": "C1",
          "ticks": 24072,
          "time": 94.03125,
          "velocity": 0.7952755905511811
        },
        {
          "duration": 0.09375,
          "durationTicks": 24,
          "midi": 24,
          "name": "C1",
          "ticks": 24096,
          "time": 94.125,
          "velocity": 0.7952755905511811
        },
        {
          "duration": 0.09375,
          "durationTicks": 24,
          "midi": 36,
          "name": "C2",
          "ticks": 24120,
          "time": 94.21875,
          "velocity": 0.7952755905511811
        },
        {
          "duration": 0.09375,
          "durationTicks": 24,
          "midi": 24,
          "name": "C1",
          "ticks": 24144,
          "time": 94.3125,
          "velocity": 0.7952755905511811
        },
        {
          "duration": 0.09375,
          "durationTicks": 24,
          "midi": 36,
          "name": "C2",
          "ticks": 24168,
          "time": 94.40625,
          "velocity": 0.7952755905511811
        },
        {
          "duration": 0.09375,
          "durationTicks": 24,
          "midi": 24,
          "name": "C1",
          "ticks": 24192,
          "time": 94.5,
          "velocity": 0.7952755905511811
        },
        {
          "duration": 0.046875,
          "durationTicks": 12,
          "midi": 24,
          "name": "C1",
          "ticks": 24216,
          "time": 94.59375,
          "velocity": 0.7952755905511811
        },
        {
          "duration": 0.046875,
          "durationTicks": 12,
          "midi": 24,
          "name": "C1",
          "ticks": 24240,
          "time": 94.6875,
          "velocity": 0.7952755905511811
        },
        {
          "duration": 0.046875,
          "durationTicks": 12,
          "midi": 24,
          "name": "C1",
          "ticks": 24264,
          "time": 94.78125,
          "velocity": 0.7952755905511811
        },
        {
          "duration": 0.046875,
          "durationTicks": 12,
          "midi": 36,
          "name": "C2",
          "ticks": 24288,
          "time": 94.875,
          "velocity": 0.7952755905511811
        },
        {
          "duration": 0.046875,
          "durationTicks": 12,
          "midi": 36,
          "name": "C2",
          "ticks": 24312,
          "time": 94.96875,
          "velocity": 0.7952755905511811
        },
        {
          "duration": 0.140625,
          "durationTicks": 36,
          "midi": 24,
          "name": "C1",
          "ticks": 24336,
          "time": 95.0625,
          "velocity": 0.7952755905511811
        },
        {
          "duration": 0.140625,
          "durationTicks": 36,
          "midi": 36,
          "name": "C2",
          "ticks": 24384,
          "time": 95.25,
          "velocity": 0.7952755905511811
        },
        {
          "duration": 0.140625,
          "durationTicks": 36,
          "midi": 24,
          "name": "C1",
          "ticks": 24480,
          "time": 95.625,
          "velocity": 0.7952755905511811
        },
        {
          "duration": 0.046875,
          "durationTicks": 12,
          "midi": 24,
          "name": "C1",
          "ticks": 24528,
          "time": 95.8125,
          "velocity": 0.7952755905511811
        },
        {
          "duration": 0.046875,
          "durationTicks": 12,
          "midi": 24,
          "name": "C1",
          "ticks": 24552,
          "time": 95.90625,
          "velocity": 0.7952755905511811
        },
        {
          "duration": 0.328125,
          "durationTicks": 84,
          "midi": 24,
          "name": "C1",
          "ticks": 24576,
          "time": 96,
          "velocity": 0.5590551181102362
        },
        {
          "duration": 0.328125,
          "durationTicks": 84,
          "midi": 24,
          "name": "C1",
          "ticks": 24672,
          "time": 96.375,
          "velocity": 0.5590551181102362
        },
        {
          "duration": 0.328125,
          "durationTicks": 84,
          "midi": 24,
          "name": "C1",
          "ticks": 24768,
          "time": 96.75,
          "velocity": 0.5590551181102362
        },
        {
          "duration": 0.328125,
          "durationTicks": 84,
          "midi": 24,
          "name": "C1",
          "ticks": 24864,
          "time": 97.125,
          "velocity": 0.5590551181102362
        },
        {
          "duration": 0.328125,
          "durationTicks": 84,
          "midi": 24,
          "name": "C1",
          "ticks": 24960,
          "time": 97.5,
          "velocity": 0.5590551181102362
        },
        {
          "duration": 0.328125,
          "durationTicks": 84,
          "midi": 24,
          "name": "C1",
          "ticks": 25056,
          "time": 97.875,
          "velocity": 0.5590551181102362
        },
        {
          "duration": 0.328125,
          "durationTicks": 84,
          "midi": 24,
          "name": "C1",
          "ticks": 25152,
          "time": 98.25,
          "velocity": 0.5590551181102362
        },
        {
          "duration": 0.328125,
          "durationTicks": 84,
          "midi": 24,
          "name": "C1",
          "ticks": 25248,
          "time": 98.625,
          "velocity": 0.5590551181102362
        },
        {
          "duration": 0.328125,
          "durationTicks": 84,
          "midi": 24,
          "name": "C1",
          "ticks": 25344,
          "time": 99,
          "velocity": 0.5590551181102362
        },
        {
          "duration": 0.328125,
          "durationTicks": 84,
          "midi": 24,
          "name": "C1",
          "ticks": 25440,
          "time": 99.375,
          "velocity": 0.5590551181102362
        },
        {
          "duration": 0.328125,
          "durationTicks": 84,
          "midi": 24,
          "name": "C1",
          "ticks": 25536,
          "time": 99.75,
          "velocity": 0.5590551181102362
        },
        {
          "duration": 0.328125,
          "durationTicks": 84,
          "midi": 24,
          "name": "C1",
          "ticks": 25632,
          "time": 100.125,
          "velocity": 0.5590551181102362
        },
        {
          "duration": 0.328125,
          "durationTicks": 84,
          "midi": 24,
          "name": "C1",
          "ticks": 25728,
          "time": 100.5,
          "velocity": 0.5590551181102362
        },
        {
          "duration": 0.328125,
          "durationTicks": 84,
          "midi": 24,
          "name": "C1",
          "ticks": 25824,
          "time": 100.875,
          "velocity": 0.5590551181102362
        },
        {
          "duration": 0.328125,
          "durationTicks": 84,
          "midi": 24,
          "name": "C1",
          "ticks": 25920,
          "time": 101.25,
          "velocity": 0.5590551181102362
        },
        {
          "duration": 0.328125,
          "durationTicks": 84,
          "midi": 24,
          "name": "C1",
          "ticks": 26016,
          "time": 101.625,
          "velocity": 0.5590551181102362
        },
        {
          "duration": 0.328125,
          "durationTicks": 84,
          "midi": 24,
          "name": "C1",
          "ticks": 26112,
          "time": 102,
          "velocity": 0.5590551181102362
        },
        {
          "duration": 0.328125,
          "durationTicks": 84,
          "midi": 24,
          "name": "C1",
          "ticks": 26208,
          "time": 102.375,
          "velocity": 0.5590551181102362
        },
        {
          "duration": 0.328125,
          "durationTicks": 84,
          "midi": 24,
          "name": "C1",
          "ticks": 26304,
          "time": 102.75,
          "velocity": 0.5590551181102362
        },
        {
          "duration": 0.328125,
          "durationTicks": 84,
          "midi": 24,
          "name": "C1",
          "ticks": 26400,
          "time": 103.125,
          "velocity": 0.5590551181102362
        },
        {
          "duration": 0.328125,
          "durationTicks": 84,
          "midi": 24,
          "name": "C1",
          "ticks": 26496,
          "time": 103.5,
          "velocity": 0.5590551181102362
        },
        {
          "duration": 0.328125,
          "durationTicks": 84,
          "midi": 24,
          "name": "C1",
          "ticks": 26592,
          "time": 103.875,
          "velocity": 0.5590551181102362
        },
        {
          "duration": 0.328125,
          "durationTicks": 84,
          "midi": 24,
          "name": "C1",
          "ticks": 26688,
          "time": 104.25,
          "velocity": 0.5590551181102362
        },
        {
          "duration": 0.328125,
          "durationTicks": 84,
          "midi": 24,
          "name": "C1",
          "ticks": 26784,
          "time": 104.625,
          "velocity": 0.5590551181102362
        },
        {
          "duration": 0.328125,
          "durationTicks": 84,
          "midi": 24,
          "name": "C1",
          "ticks": 26880,
          "time": 105,
          "velocity": 0.5590551181102362
        },
        {
          "duration": 0.328125,
          "durationTicks": 84,
          "midi": 24,
          "name": "C1",
          "ticks": 26976,
          "time": 105.375,
          "velocity": 0.5590551181102362
        },
        {
          "duration": 0.234375,
          "durationTicks": 60,
          "midi": 24,
          "name": "C1",
          "ticks": 27336,
          "time": 106.78125,
          "velocity": 0.8188976377952756
        },
        {
          "duration": 0.234375,
          "durationTicks": 60,
          "midi": 24,
          "name": "C1",
          "ticks": 27408,
          "time": 107.0625,
          "velocity": 0.8188976377952756
        },
        {
          "duration": 0.234375,
          "durationTicks": 60,
          "midi": 24,
          "name": "C1",
          "ticks": 27480,
          "time": 107.34375,
          "velocity": 0.8188976377952756
        },
        {
          "duration": 0.234375,
          "durationTicks": 60,
          "midi": 24,
          "name": "C1",
          "ticks": 27552,
          "time": 107.625,
          "velocity": 0.8188976377952756
        },
        {
          "duration": 0.234375,
          "durationTicks": 60,
          "midi": 24,
          "name": "C1",
          "ticks": 27624,
          "time": 107.90625,
          "velocity": 0.8188976377952756
        },
        {
          "duration": 0.234375,
          "durationTicks": 60,
          "midi": 24,
          "name": "C1",
          "ticks": 27696,
          "time": 108.1875,
          "velocity": 0.8188976377952756
        },
        {
          "duration": 0.234375,
          "durationTicks": 60,
          "midi": 24,
          "name": "C1",
          "ticks": 27768,
          "time": 108.46875,
          "velocity": 0.8188976377952756
        },
        {
          "duration": 0.046875,
          "durationTicks": 12,
          "midi": 24,
          "name": "C1",
          "ticks": 27840,
          "time": 108.75,
          "velocity": 0.8188976377952756
        },
        {
          "duration": 0.046875,
          "durationTicks": 12,
          "midi": 24,
          "name": "C1",
          "ticks": 27864,
          "time": 108.84375,
          "velocity": 0.8188976377952756
        },
        {
          "duration": 0.046875,
          "durationTicks": 12,
          "midi": 24,
          "name": "C1",
          "ticks": 27888,
          "time": 108.9375,
          "velocity": 0.8188976377952756
        },
        {
          "duration": 0.046875,
          "durationTicks": 12,
          "midi": 24,
          "name": "C1",
          "ticks": 27912,
          "time": 109.03125,
          "velocity": 0.8188976377952756
        },
        {
          "duration": 0.234375,
          "durationTicks": 60,
          "midi": 24,
          "name": "C1",
          "ticks": 27936,
          "time": 109.125,
          "velocity": 0.8188976377952756
        },
        {
          "duration": 0.234375,
          "durationTicks": 60,
          "midi": 24,
          "name": "C1",
          "ticks": 28008,
          "time": 109.40625,
          "velocity": 0.8188976377952756
        },
        {
          "duration": 0.234375,
          "durationTicks": 60,
          "midi": 24,
          "name": "C1",
          "ticks": 28080,
          "time": 109.6875,
          "velocity": 0.8188976377952756
        },
        {
          "duration": 0.234375,
          "durationTicks": 60,
          "midi": 24,
          "name": "C1",
          "ticks": 28152,
          "time": 109.96875,
          "velocity": 0.8188976377952756
        },
        {
          "duration": 0.234375,
          "durationTicks": 60,
          "midi": 24,
          "name": "C1",
          "ticks": 28224,
          "time": 110.25,
          "velocity": 0.8188976377952756
        },
        {
          "duration": 0.234375,
          "durationTicks": 60,
          "midi": 24,
          "name": "C1",
          "ticks": 28296,
          "time": 110.53125,
          "velocity": 0.8188976377952756
        },
        {
          "duration": 0.234375,
          "durationTicks": 60,
          "midi": 24,
          "name": "C1",
          "ticks": 28368,
          "time": 110.8125,
          "velocity": 0.8188976377952756
        },
        {
          "duration": 0.234375,
          "durationTicks": 60,
          "midi": 24,
          "name": "C1",
          "ticks": 28440,
          "time": 111.09375,
          "velocity": 0.8188976377952756
        },
        {
          "duration": 0.046875,
          "durationTicks": 12,
          "midi": 24,
          "name": "C1",
          "ticks": 28512,
          "time": 111.375,
          "velocity": 0.8188976377952756
        },
        {
          "duration": 0.046875,
          "durationTicks": 12,
          "midi": 24,
          "name": "C1",
          "ticks": 28536,
          "time": 111.46875,
          "velocity": 0.8188976377952756
        },
        {
          "duration": 0.046875,
          "durationTicks": 12,
          "midi": 24,
          "name": "C1",
          "ticks": 28560,
          "time": 111.5625,
          "velocity": 0.8188976377952756
        },
        {
          "duration": 0.046875,
          "durationTicks": 12,
          "midi": 24,
          "name": "C1",
          "ticks": 28584,
          "time": 111.65625,
          "velocity": 0.8188976377952756
        },
        {
          "duration": 0.234375,
          "durationTicks": 60,
          "midi": 24,
          "name": "C1",
          "ticks": 28608,
          "time": 111.75,
          "velocity": 0.8188976377952756
        },
        {
          "duration": 0.234375,
          "durationTicks": 60,
          "midi": 24,
          "name": "C1",
          "ticks": 28680,
          "time": 112.03125,
          "velocity": 0.8188976377952756
        },
        {
          "duration": 0.234375,
          "durationTicks": 60,
          "midi": 24,
          "name": "C1",
          "ticks": 28752,
          "time": 112.3125,
          "velocity": 0.8188976377952756
        },
        {
          "duration": 0.234375,
          "durationTicks": 60,
          "midi": 24,
          "name": "C1",
          "ticks": 28824,
          "time": 112.59375,
          "velocity": 0.8188976377952756
        },
        {
          "duration": 0.234375,
          "durationTicks": 60,
          "midi": 24,
          "name": "C1",
          "ticks": 28896,
          "time": 112.875,
          "velocity": 0.8188976377952756
        },
        {
          "duration": 0.234375,
          "durationTicks": 60,
          "midi": 24,
          "name": "C1",
          "ticks": 28968,
          "time": 113.15625,
          "velocity": 0.8188976377952756
        },
        {
          "duration": 0.234375,
          "durationTicks": 60,
          "midi": 24,
          "name": "C1",
          "ticks": 29040,
          "time": 113.4375,
          "velocity": 0.8188976377952756
        },
        {
          "duration": 0.234375,
          "durationTicks": 60,
          "midi": 24,
          "name": "C1",
          "ticks": 29112,
          "time": 113.71875,
          "velocity": 0.8188976377952756
        },
        {
          "duration": 0.046875,
          "durationTicks": 12,
          "midi": 24,
          "name": "C1",
          "ticks": 29184,
          "time": 114,
          "velocity": 0.8188976377952756
        },
        {
          "duration": 0.046875,
          "durationTicks": 12,
          "midi": 24,
          "name": "C1",
          "ticks": 29208,
          "time": 114.09375,
          "velocity": 0.8188976377952756
        },
        {
          "duration": 0.046875,
          "durationTicks": 12,
          "midi": 24,
          "name": "C1",
          "ticks": 29232,
          "time": 114.1875,
          "velocity": 0.8188976377952756
        },
        {
          "duration": 0.046875,
          "durationTicks": 12,
          "midi": 24,
          "name": "C1",
          "ticks": 29256,
          "time": 114.28125,
          "velocity": 0.8188976377952756
        },
        {
          "duration": 0.046875,
          "durationTicks": 12,
          "midi": 24,
          "name": "C1",
          "ticks": 29280,
          "time": 114.375,
          "velocity": 0.8188976377952756
        },
        {
          "duration": 0.046875,
          "durationTicks": 12,
          "midi": 24,
          "name": "C1",
          "ticks": 29292,
          "time": 114.421875,
          "velocity": 0.8188976377952756
        },
        {
          "duration": 0.046875,
          "durationTicks": 12,
          "midi": 24,
          "name": "C1",
          "ticks": 29304,
          "time": 114.46875,
          "velocity": 0.8188976377952756
        },
        {
          "duration": 0.046875,
          "durationTicks": 12,
          "midi": 24,
          "name": "C1",
          "ticks": 29316,
          "time": 114.515625,
          "velocity": 0.8188976377952756
        },
        {
          "duration": 0.046875,
          "durationTicks": 12,
          "midi": 24,
          "name": "C1",
          "ticks": 29328,
          "time": 114.5625,
          "velocity": 0.8188976377952756
        },
        {
          "duration": 0.046875,
          "durationTicks": 12,
          "midi": 24,
          "name": "C1",
          "ticks": 29340,
          "time": 114.609375,
          "velocity": 0.8188976377952756
        },
        {
          "duration": 0.046875,
          "durationTicks": 12,
          "midi": 24,
          "name": "C1",
          "ticks": 29352,
          "time": 114.65625,
          "velocity": 0.8188976377952756
        },
        {
          "duration": 0.046875,
          "durationTicks": 12,
          "midi": 24,
          "name": "C1",
          "ticks": 29364,
          "time": 114.703125,
          "velocity": 0.8188976377952756
        },
        {
          "duration": 0.234375,
          "durationTicks": 60,
          "midi": 31,
          "name": "G1",
          "ticks": 29664,
          "time": 115.875,
          "velocity": 0.8188976377952756
        },
        {
          "duration": 0.234375,
          "durationTicks": 60,
          "midi": 31,
          "name": "G1",
          "ticks": 29736,
          "time": 116.15625,
          "velocity": 0.8188976377952756
        },
        {
          "duration": 0.234375,
          "durationTicks": 60,
          "midi": 31,
          "name": "G1",
          "ticks": 29808,
          "time": 116.4375,
          "velocity": 0.8188976377952756
        },
        {
          "duration": 0.234375,
          "durationTicks": 60,
          "midi": 31,
          "name": "G1",
          "ticks": 29880,
          "time": 116.71875,
          "velocity": 0.8188976377952756
        },
        {
          "duration": 0.234375,
          "durationTicks": 60,
          "midi": 32,
          "name": "G#1",
          "ticks": 30048,
          "time": 117.375,
          "velocity": 0.8188976377952756
        },
        {
          "duration": 0.234375,
          "durationTicks": 60,
          "midi": 32,
          "name": "G#1",
          "ticks": 30144,
          "time": 117.75,
          "velocity": 0.8188976377952756
        },
        {
          "duration": 0.234375,
          "durationTicks": 60,
          "midi": 31,
          "name": "G1",
          "ticks": 30240,
          "time": 118.125,
          "velocity": 0.8188976377952756
        },
        {
          "duration": 0.234375,
          "durationTicks": 60,
          "midi": 31,
          "name": "G1",
          "ticks": 30336,
          "time": 118.5,
          "velocity": 0.8188976377952756
        },
        {
          "duration": 0.234375,
          "durationTicks": 60,
          "midi": 36,
          "name": "C2",
          "ticks": 30432,
          "time": 118.875,
          "velocity": 0.8188976377952756
        },
        {
          "duration": 0.234375,
          "durationTicks": 60,
          "midi": 36,
          "name": "C2",
          "ticks": 30528,
          "time": 119.25,
          "velocity": 0.8188976377952756
        },
        {
          "duration": 0.234375,
          "durationTicks": 60,
          "midi": 34,
          "name": "A#1",
          "ticks": 30624,
          "time": 119.625,
          "velocity": 0.8188976377952756
        },
        {
          "duration": 0.234375,
          "durationTicks": 60,
          "midi": 34,
          "name": "A#1",
          "ticks": 30720,
          "time": 120,
          "velocity": 0.8188976377952756
        },
        {
          "duration": 0.234375,
          "durationTicks": 60,
          "midi": 32,
          "name": "G#1",
          "ticks": 30816,
          "time": 120.375,
          "velocity": 0.8188976377952756
        },
        {
          "duration": 0.234375,
          "durationTicks": 60,
          "midi": 32,
          "name": "G#1",
          "ticks": 30912,
          "time": 120.75,
          "velocity": 0.8188976377952756
        },
        {
          "duration": 0.234375,
          "durationTicks": 60,
          "midi": 34,
          "name": "A#1",
          "ticks": 31008,
          "time": 121.125,
          "velocity": 0.8188976377952756
        },
        {
          "duration": 0.234375,
          "durationTicks": 60,
          "midi": 34,
          "name": "A#1",
          "ticks": 31104,
          "time": 121.5,
          "velocity": 0.8188976377952756
        },
        {
          "duration": 0.234375,
          "durationTicks": 60,
          "midi": 39,
          "name": "D#2",
          "ticks": 31200,
          "time": 121.875,
          "velocity": 0.8188976377952756
        },
        {
          "duration": 0.234375,
          "durationTicks": 60,
          "midi": 39,
          "name": "D#2",
          "ticks": 31296,
          "time": 122.25,
          "velocity": 0.8188976377952756
        },
        {
          "duration": 0.234375,
          "durationTicks": 60,
          "midi": 38,
          "name": "D2",
          "ticks": 31392,
          "time": 122.625,
          "velocity": 0.8188976377952756
        },
        {
          "duration": 0.234375,
          "durationTicks": 60,
          "midi": 38,
          "name": "D2",
          "ticks": 31488,
          "time": 123,
          "velocity": 0.8188976377952756
        },
        {
          "duration": 0.234375,
          "durationTicks": 60,
          "midi": 29,
          "name": "F1",
          "ticks": 31584,
          "time": 123.375,
          "velocity": 0.8188976377952756
        },
        {
          "duration": 0.234375,
          "durationTicks": 60,
          "midi": 29,
          "name": "F1",
          "ticks": 31680,
          "time": 123.75,
          "velocity": 0.8188976377952756
        },
        {
          "duration": 0.234375,
          "durationTicks": 60,
          "midi": 34,
          "name": "A#1",
          "ticks": 31776,
          "time": 124.125,
          "velocity": 0.8188976377952756
        },
        {
          "duration": 0.234375,
          "durationTicks": 60,
          "midi": 34,
          "name": "A#1",
          "ticks": 31872,
          "time": 124.5,
          "velocity": 0.8188976377952756
        },
        {
          "duration": 0.234375,
          "durationTicks": 60,
          "midi": 27,
          "name": "D#1",
          "ticks": 31968,
          "time": 124.875,
          "velocity": 0.8188976377952756
        },
        {
          "duration": 0.234375,
          "durationTicks": 60,
          "midi": 27,
          "name": "D#1",
          "ticks": 32064,
          "time": 125.25,
          "velocity": 0.8188976377952756
        },
        {
          "duration": 0.234375,
          "durationTicks": 60,
          "midi": 32,
          "name": "G#1",
          "ticks": 32160,
          "time": 125.625,
          "velocity": 0.8188976377952756
        },
        {
          "duration": 0.234375,
          "durationTicks": 60,
          "midi": 32,
          "name": "G#1",
          "ticks": 32256,
          "time": 126,
          "velocity": 0.8188976377952756
        },
        {
          "duration": 0.234375,
          "durationTicks": 60,
          "midi": 26,
          "name": "D1",
          "ticks": 32352,
          "time": 126.375,
          "velocity": 0.8188976377952756
        },
        {
          "duration": 0.234375,
          "durationTicks": 60,
          "midi": 26,
          "name": "D1",
          "ticks": 32448,
          "time": 126.75,
          "velocity": 0.8188976377952756
        },
        {
          "duration": 0.234375,
          "durationTicks": 60,
          "midi": 27,
          "name": "D#1",
          "ticks": 32544,
          "time": 127.125,
          "velocity": 0.8188976377952756
        },
        {
          "duration": 0.234375,
          "durationTicks": 60,
          "midi": 30,
          "name": "F#1",
          "ticks": 32640,
          "time": 127.5,
          "velocity": 0.8188976377952756
        },
        {
          "duration": 0.234375,
          "durationTicks": 60,
          "midi": 31,
          "name": "G1",
          "ticks": 32736,
          "time": 127.875,
          "velocity": 0.8188976377952756
        },
        {
          "duration": 0.234375,
          "durationTicks": 60,
          "midi": 31,
          "name": "G1",
          "ticks": 32832,
          "time": 128.25,
          "velocity": 0.8188976377952756
        },
        {
          "duration": 0.234375,
          "durationTicks": 60,
          "midi": 31,
          "name": "G1",
          "ticks": 32928,
          "time": 128.625,
          "velocity": 0.8188976377952756
        },
        {
          "duration": 0.234375,
          "durationTicks": 60,
          "midi": 31,
          "name": "G1",
          "ticks": 33024,
          "time": 129,
          "velocity": 0.8188976377952756
        },
        {
          "duration": 0.234375,
          "durationTicks": 60,
          "midi": 32,
          "name": "G#1",
          "ticks": 33120,
          "time": 129.375,
          "velocity": 0.8188976377952756
        },
        {
          "duration": 0.234375,
          "durationTicks": 60,
          "midi": 32,
          "name": "G#1",
          "ticks": 33216,
          "time": 129.75,
          "velocity": 0.8188976377952756
        },
        {
          "duration": 0.234375,
          "durationTicks": 60,
          "midi": 31,
          "name": "G1",
          "ticks": 33312,
          "time": 130.125,
          "velocity": 0.8188976377952756
        },
        {
          "duration": 0.234375,
          "durationTicks": 60,
          "midi": 31,
          "name": "G1",
          "ticks": 33408,
          "time": 130.5,
          "velocity": 0.8188976377952756
        },
        {
          "duration": 0.234375,
          "durationTicks": 60,
          "midi": 36,
          "name": "C2",
          "ticks": 33504,
          "time": 130.875,
          "velocity": 0.8188976377952756
        },
        {
          "duration": 0.234375,
          "durationTicks": 60,
          "midi": 36,
          "name": "C2",
          "ticks": 33600,
          "time": 131.25,
          "velocity": 0.8188976377952756
        },
        {
          "duration": 0.234375,
          "durationTicks": 60,
          "midi": 34,
          "name": "A#1",
          "ticks": 33696,
          "time": 131.625,
          "velocity": 0.8188976377952756
        },
        {
          "duration": 0.234375,
          "durationTicks": 60,
          "midi": 34,
          "name": "A#1",
          "ticks": 33792,
          "time": 132,
          "velocity": 0.8188976377952756
        },
        {
          "duration": 0.234375,
          "durationTicks": 60,
          "midi": 32,
          "name": "G#1",
          "ticks": 33888,
          "time": 132.375,
          "velocity": 0.8188976377952756
        },
        {
          "duration": 0.234375,
          "durationTicks": 60,
          "midi": 32,
          "name": "G#1",
          "ticks": 33984,
          "time": 132.75,
          "velocity": 0.8188976377952756
        },
        {
          "duration": 0.234375,
          "durationTicks": 60,
          "midi": 34,
          "name": "A#1",
          "ticks": 34080,
          "time": 133.125,
          "velocity": 0.8188976377952756
        },
        {
          "duration": 0.234375,
          "durationTicks": 60,
          "midi": 34,
          "name": "A#1",
          "ticks": 34176,
          "time": 133.5,
          "velocity": 0.8188976377952756
        },
        {
          "duration": 0.234375,
          "durationTicks": 60,
          "midi": 39,
          "name": "D#2",
          "ticks": 34272,
          "time": 133.875,
          "velocity": 0.8188976377952756
        },
        {
          "duration": 0.234375,
          "durationTicks": 60,
          "midi": 39,
          "name": "D#2",
          "ticks": 34368,
          "time": 134.25,
          "velocity": 0.8188976377952756
        },
        {
          "duration": 0.234375,
          "durationTicks": 60,
          "midi": 40,
          "name": "E2",
          "ticks": 34464,
          "time": 134.625,
          "velocity": 0.8188976377952756
        },
        {
          "duration": 0.234375,
          "durationTicks": 60,
          "midi": 40,
          "name": "E2",
          "ticks": 34560,
          "time": 135,
          "velocity": 0.8188976377952756
        },
        {
          "duration": 0.234375,
          "durationTicks": 60,
          "midi": 29,
          "name": "F1",
          "ticks": 34656,
          "time": 135.375,
          "velocity": 0.8188976377952756
        },
        {
          "duration": 0.234375,
          "durationTicks": 60,
          "midi": 29,
          "name": "F1",
          "ticks": 34752,
          "time": 135.75,
          "velocity": 0.8188976377952756
        },
        {
          "duration": 0.234375,
          "durationTicks": 60,
          "midi": 34,
          "name": "A#1",
          "ticks": 34848,
          "time": 136.125,
          "velocity": 0.8188976377952756
        },
        {
          "duration": 0.234375,
          "durationTicks": 60,
          "midi": 34,
          "name": "A#1",
          "ticks": 34944,
          "time": 136.5,
          "velocity": 0.8188976377952756
        },
        {
          "duration": 0.234375,
          "durationTicks": 60,
          "midi": 35,
          "name": "B1",
          "ticks": 35040,
          "time": 136.875,
          "velocity": 0.8188976377952756
        },
        {
          "duration": 0.234375,
          "durationTicks": 60,
          "midi": 35,
          "name": "B1",
          "ticks": 35136,
          "time": 137.25,
          "velocity": 0.8188976377952756
        },
        {
          "duration": 0.234375,
          "durationTicks": 60,
          "midi": 36,
          "name": "C2",
          "ticks": 35232,
          "time": 137.625,
          "velocity": 0.8188976377952756
        },
        {
          "duration": 0.234375,
          "durationTicks": 60,
          "midi": 34,
          "name": "A#1",
          "ticks": 35328,
          "time": 138,
          "velocity": 0.8188976377952756
        },
        {
          "duration": 0.234375,
          "durationTicks": 60,
          "midi": 29,
          "name": "F1",
          "ticks": 35424,
          "time": 138.375,
          "velocity": 0.8188976377952756
        },
        {
          "duration": 0.234375,
          "durationTicks": 60,
          "midi": 29,
          "name": "F1",
          "ticks": 35520,
          "time": 138.75,
          "velocity": 0.8188976377952756
        },
        {
          "duration": 0.234375,
          "durationTicks": 60,
          "midi": 31,
          "name": "G1",
          "ticks": 35616,
          "time": 139.125,
          "velocity": 0.8188976377952756
        },
        {
          "duration": 0.234375,
          "durationTicks": 60,
          "midi": 31,
          "name": "G1",
          "ticks": 35712,
          "time": 139.5,
          "velocity": 0.8188976377952756
        },
        {
          "duration": 0.234375,
          "durationTicks": 60,
          "midi": 32,
          "name": "G#1",
          "ticks": 35808,
          "time": 139.875,
          "velocity": 0.8188976377952756
        },
        {
          "duration": 0.234375,
          "durationTicks": 60,
          "midi": 32,
          "name": "G#1",
          "ticks": 35904,
          "time": 140.25,
          "velocity": 0.8188976377952756
        },
        {
          "duration": 0.234375,
          "durationTicks": 60,
          "midi": 34,
          "name": "A#1",
          "ticks": 36000,
          "time": 140.625,
          "velocity": 0.8188976377952756
        },
        {
          "duration": 0.234375,
          "durationTicks": 60,
          "midi": 34,
          "name": "A#1",
          "ticks": 36096,
          "time": 141,
          "velocity": 0.8188976377952756
        },
        {
          "duration": 0.234375,
          "durationTicks": 60,
          "midi": 36,
          "name": "C2",
          "ticks": 36192,
          "time": 141.375,
          "velocity": 0.8188976377952756
        },
        {
          "duration": 0.234375,
          "durationTicks": 60,
          "midi": 36,
          "name": "C2",
          "ticks": 36288,
          "time": 141.75,
          "velocity": 0.8188976377952756
        },
        {
          "duration": 0.234375,
          "durationTicks": 60,
          "midi": 36,
          "name": "C2",
          "ticks": 36384,
          "time": 142.125,
          "velocity": 0.8188976377952756
        },
        {
          "duration": 0.234375,
          "durationTicks": 60,
          "midi": 36,
          "name": "C2",
          "ticks": 36480,
          "time": 142.5,
          "velocity": 0.8188976377952756
        },
        {
          "duration": 0.234375,
          "durationTicks": 60,
          "midi": 36,
          "name": "C2",
          "ticks": 36576,
          "time": 142.875,
          "velocity": 0.8188976377952756
        },
        {
          "duration": 0.234375,
          "durationTicks": 60,
          "midi": 36,
          "name": "C2",
          "ticks": 36672,
          "time": 143.25,
          "velocity": 0.8188976377952756
        },
        {
          "duration": 0.234375,
          "durationTicks": 60,
          "midi": 36,
          "name": "C2",
          "ticks": 36768,
          "time": 143.625,
          "velocity": 0.8188976377952756
        },
        {
          "duration": 0.234375,
          "durationTicks": 60,
          "midi": 36,
          "name": "C2",
          "ticks": 36864,
          "time": 144,
          "velocity": 0.8188976377952756
        },
        {
          "duration": 0.046875,
          "durationTicks": 12,
          "midi": 36,
          "name": "C2",
          "ticks": 36960,
          "time": 144.375,
          "velocity": 0.8188976377952756
        },
        {
          "duration": 0.046875,
          "durationTicks": 12,
          "midi": 36,
          "name": "C2",
          "ticks": 36984,
          "time": 144.46875,
          "velocity": 0.8188976377952756
        },
        {
          "duration": 0.046875,
          "durationTicks": 12,
          "midi": 36,
          "name": "C2",
          "ticks": 37008,
          "time": 144.5625,
          "velocity": 0.8188976377952756
        },
        {
          "duration": 0.046875,
          "durationTicks": 12,
          "midi": 36,
          "name": "C2",
          "ticks": 37056,
          "time": 144.75,
          "velocity": 0.8188976377952756
        },
        {
          "duration": 0.046875,
          "durationTicks": 12,
          "midi": 36,
          "name": "C2",
          "ticks": 37080,
          "time": 144.84375,
          "velocity": 0.8188976377952756
        },
        {
          "duration": 0.046875,
          "durationTicks": 12,
          "midi": 36,
          "name": "C2",
          "ticks": 37104,
          "time": 144.9375,
          "velocity": 0.8188976377952756
        },
        {
          "duration": 0.046875,
          "durationTicks": 12,
          "midi": 36,
          "name": "C2",
          "ticks": 37152,
          "time": 145.125,
          "velocity": 0.8188976377952756
        },
        {
          "duration": 0.046875,
          "durationTicks": 12,
          "midi": 36,
          "name": "C2",
          "ticks": 37176,
          "time": 145.21875,
          "velocity": 0.8188976377952756
        },
        {
          "duration": 0.046875,
          "durationTicks": 12,
          "midi": 36,
          "name": "C2",
          "ticks": 37200,
          "time": 145.3125,
          "velocity": 0.8188976377952756
        },
        {
          "duration": 0.046875,
          "durationTicks": 12,
          "midi": 36,
          "name": "C2",
          "ticks": 37224,
          "time": 145.40625,
          "velocity": 0.8188976377952756
        },
        {
          "duration": 0.046875,
          "durationTicks": 12,
          "midi": 36,
          "name": "C2",
          "ticks": 37248,
          "time": 145.5,
          "velocity": 0.8188976377952756
        },
        {
          "duration": 0.046875,
          "durationTicks": 12,
          "midi": 36,
          "name": "C2",
          "ticks": 37272,
          "time": 145.59375,
          "velocity": 0.8188976377952756
        },
        {
          "duration": 0.046875,
          "durationTicks": 12,
          "midi": 36,
          "name": "C2",
          "ticks": 37296,
          "time": 145.6875,
          "velocity": 0.8188976377952756
        },
        {
          "duration": 0.046875,
          "durationTicks": 12,
          "midi": 36,
          "name": "C2",
          "ticks": 37320,
          "time": 145.78125,
          "velocity": 0.8188976377952756
        },
        {
          "duration": 1.49609375,
          "durationTicks": 383,
          "midi": 36,
          "name": "C2",
          "ticks": 37344,
          "time": 145.875,
          "velocity": 0.8188976377952756
        }
      ],
      "endOfTrackTicks": 37730
    },
    {
      "channel": 0,
      "controlChanges": {
        "6": [
          {
            "number": 6,
            "ticks": 0,
            "time": 0,
            "value": 0.09448818897637795
          },
          {
            "number": 6,
            "ticks": 0,
            "time": 0,
            "value": 0.09448818897637795
          },
          {
            "number": 6,
            "ticks": 0,
            "time": 0,
            "value": 0.09448818897637795
          },
          {
            "number": 6,
            "ticks": 37728,
            "time": 147.375,
            "value": 0.09448818897637795
          },
          {
            "number": 6,
            "ticks": 37730,
            "time": 147.3828125,
            "value": 0.09448818897637795
          }
        ],
        "7": [
          {
            "number": 7,
            "ticks": 0,
            "time": 0,
            "value": 0.7874015748031497
          },
          {
            "number": 7,
            "ticks": 0,
            "time": 0,
            "value": 0.7874015748031497
          },
          {
            "number": 7,
            "ticks": 0,
            "time": 0,
            "value": 0.7874015748031497
          },
          {
            "number": 7,
            "ticks": 0,
            "time": 0,
            "value": 0.7874015748031497
          },
          {
            "number": 7,
            "ticks": 37728,
            "time": 147.375,
            "value": 0.7874015748031497
          },
          {
            "number": 7,
            "ticks": 37730,
            "time": 147.3828125,
            "value": 0.7874015748031497
          }
        ],
        "10": [
          {
            "number": 10,
            "ticks": 0,
            "time": 0,
            "value": 0.5039370078740157
          },
          {
            "number": 10,
            "ticks": 0,
            "time": 0,
            "value": 0.5039370078740157
          },
          {
            "number": 10,
            "ticks": 0,
            "time": 0,
            "value": 0.5039370078740157
          },
          {
            "number": 10,
            "ticks": 0,
            "time": 0,
            "value": 0.5039370078740157
          },
          {
            "number": 10,
            "ticks": 37728,
            "time": 147.375,
            "value": 0.5039370078740157
          },
          {
            "number": 10,
            "ticks": 37730,
            "time": 147.3828125,
            "value": 0.5039370078740157
          }
        ],
        "100": [
          {
            "number": 100,
            "ticks": 0,
            "time": 0,
            "value": 0
          },
          {
            "number": 100,
            "ticks": 0,
            "time": 0,
            "value": 0
          },
          {
            "number": 100,
            "ticks": 0,
            "time": 0,
            "value": 0
          },
          {
            "number": 100,
            "ticks": 37728,
            "time": 147.375,
            "value": 0
          },
          {
            "number": 100,
            "ticks": 37730,
            "time": 147.3828125,
            "value": 0
          }
        ],
        "101": [
          {
            "number": 101,
            "ticks": 0,
            "time": 0,
            "value": 0
          },
          {
            "number": 101,
            "ticks": 0,
            "time": 0,
            "value": 0
          },
          {
            "number": 101,
            "ticks": 0,
            "time": 0,
            "value": 0
          },
          {
            "number": 101,
            "ticks": 37728,
            "time": 147.375,
            "value": 0
          },
          {
            "number": 101,
            "ticks": 37730,
            "time": 147.3828125,
            "value": 0
          }
        ]
      },
      "pitchBends": [
        {
          "ticks": 0,
          "time": 0,
          "value": 0
        },
        {
          "ticks": 0,
          "time": 0,
          "value": 0
        },
        {
          "ticks": 0,
          "time": 0,
          "value": 0
        },
        {
          "ticks": 0,
          "time": 0,
          "value": 0
        },
        {
          "ticks": 37728,
          "time": 147.375,
          "value": 0
        },
        {
          "ticks": 37730,
          "time": 147.3828125,
          "value": 0
        }
      ],
      "instrument": {
        "family": "piano",
        "number": 0,
        "name": "acoustic grand piano"
      },
      "name": "Drum #2",
      "notes": [],
      "endOfTrackTicks": 37730
    },
    {
      "channel": 13,
      "controlChanges": {
        "6": [
          {
            "number": 6,
            "ticks": 0,
            "time": 0,
            "value": 0.09448818897637795
          },
          {
            "number": 6,
            "ticks": 0,
            "time": 0,
            "value": 0.09448818897637795
          },
          {
            "number": 6,
            "ticks": 0,
            "time": 0,
            "value": 0.09448818897637795
          },
          {
            "number": 6,
            "ticks": 37728,
            "time": 147.375,
            "value": 0.09448818897637795
          },
          {
            "number": 6,
            "ticks": 37730,
            "time": 147.3828125,
            "value": 0.09448818897637795
          }
        ],
        "7": [
          {
            "number": 7,
            "ticks": 0,
            "time": 0,
            "value": 0.7874015748031497
          },
          {
            "number": 7,
            "ticks": 0,
            "time": 0,
            "value": 0.7874015748031497
          },
          {
            "number": 7,
            "ticks": 0,
            "time": 0,
            "value": 0.7874015748031497
          },
          {
            "number": 7,
            "ticks": 0,
            "time": 0,
            "value": 0.7874015748031497
          },
          {
            "number": 7,
            "ticks": 37728,
            "time": 147.375,
            "value": 0.7874015748031497
          },
          {
            "number": 7,
            "ticks": 37730,
            "time": 147.3828125,
            "value": 0.7874015748031497
          }
        ],
        "10": [
          {
            "number": 10,
            "ticks": 0,
            "time": 0,
            "value": 0.5039370078740157
          },
          {
            "number": 10,
            "ticks": 0,
            "time": 0,
            "value": 0.5039370078740157
          },
          {
            "number": 10,
            "ticks": 0,
            "time": 0,
            "value": 0.5039370078740157
          },
          {
            "number": 10,
            "ticks": 0,
            "time": 0,
            "value": 0.5039370078740157
          },
          {
            "number": 10,
            "ticks": 37728,
            "time": 147.375,
            "value": 0.5039370078740157
          },
          {
            "number": 10,
            "ticks": 37730,
            "time": 147.3828125,
            "value": 0.5039370078740157
          }
        ],
        "100": [
          {
            "number": 100,
            "ticks": 0,
            "time": 0,
            "value": 0
          },
          {
            "number": 100,
            "ticks": 0,
            "time": 0,
            "value": 0
          },
          {
            "number": 100,
            "ticks": 0,
            "time": 0,
            "value": 0
          },
          {
            "number": 100,
            "ticks": 37728,
            "time": 147.375,
            "value": 0
          },
          {
            "number": 100,
            "ticks": 37730,
            "time": 147.3828125,
            "value": 0
          }
        ],
        "101": [
          {
            "number": 101,
            "ticks": 0,
            "time": 0,
            "value": 0
          },
          {
            "number": 101,
            "ticks": 0,
            "time": 0,
            "value": 0
          },
          {
            "number": 101,
            "ticks": 0,
            "time": 0,
            "value": 0
          },
          {
            "number": 101,
            "ticks": 37728,
            "time": 147.375,
            "value": 0
          },
          {
            "number": 101,
            "ticks": 37730,
            "time": 147.3828125,
            "value": 0
          }
        ]
      },
      "pitchBends": [
        {
          "ticks": 0,
          "time": 0,
          "value": 0
        },
        {
          "ticks": 0,
          "time": 0,
          "value": 0
        },
        {
          "ticks": 0,
          "time": 0,
          "value": 0
        },
        {
          "ticks": 0,
          "time": 0,
          "value": 0
        },
        {
          "ticks": 37728,
          "time": 147.375,
          "value": 0
        },
        {
          "ticks": 37730,
          "time": 147.3828125,
          "value": 0
        }
      ],
      "instrument": {
        "family": "piano",
        "number": 0,
        "name": "acoustic grand piano"
      },
      "name": "Pad",
      "notes": [
        {
          "duration": 0.1875,
          "durationTicks": 48,
          "midi": 43,
          "name": "G2",
          "ticks": 432,
          "time": 1.6875,
          "velocity": 0.15748031496062992
        },
        {
          "duration": 0.1875,
          "durationTicks": 48,
          "midi": 48,
          "name": "C3",
          "ticks": 432,
          "time": 1.6875,
          "velocity": 0.15748031496062992
        },
        {
          "duration": 0.1875,
          "durationTicks": 48,
          "midi": 43,
          "name": "G2",
          "ticks": 528,
          "time": 2.0625,
          "velocity": 0.18110236220472442
        },
        {
          "duration": 0.1875,
          "durationTicks": 48,
          "midi": 48,
          "name": "C3",
          "ticks": 528,
          "time": 2.0625,
          "velocity": 0.18110236220472442
        },
        {
          "duration": 0.1875,
          "durationTicks": 48,
          "midi": 43,
          "name": "G2",
          "ticks": 624,
          "time": 2.4375,
          "velocity": 0.1968503937007874
        },
        {
          "duration": 0.1875,
          "durationTicks": 48,
          "midi": 48,
          "name": "C3",
          "ticks": 624,
          "time": 2.4375,
          "velocity": 0.1968503937007874
        },
        {
          "duration": 0.1875,
          "durationTicks": 48,
          "midi": 48,
          "name": "C3",
          "ticks": 720,
          "time": 2.8125,
          "velocity": 0.2204724409448819
        },
        {
          "duration": 0.1875,
          "durationTicks": 48,
          "midi": 43,
          "name": "G2",
          "ticks": 720,
          "time": 2.8125,
          "velocity": 0.2204724409448819
        },
        {
          "duration": 0.1875,
          "durationTicks": 48,
          "midi": 48,
          "name": "C3",
          "ticks": 816,
          "time": 3.1875,
          "velocity": 0.23622047244094488
        },
        {
          "duration": 0.1875,
          "durationTicks": 48,
          "midi": 43,
          "name": "G2",
          "ticks": 816,
          "time": 3.1875,
          "velocity": 0.23622047244094488
        },
        {
          "duration": 0.1875,
          "durationTicks": 48,
          "midi": 48,
          "name": "C3",
          "ticks": 912,
          "time": 3.5625,
          "velocity": 0.25984251968503935
        },
        {
          "duration": 0.1875,
          "durationTicks": 48,
          "midi": 43,
          "name": "G2",
          "ticks": 912,
          "time": 3.5625,
          "velocity": 0.25984251968503935
        },
        {
          "duration": 0.1875,
          "durationTicks": 48,
          "midi": 43,
          "name": "G2",
          "ticks": 1008,
          "time": 3.9375,
          "velocity": 0.2755905511811024
        },
        {
          "duration": 0.1875,
          "durationTicks": 48,
          "midi": 48,
          "name": "C3",
          "ticks": 1008,
          "time": 3.9375,
          "velocity": 0.2755905511811024
        },
        {
          "duration": 0.1875,
          "durationTicks": 48,
          "midi": 43,
          "name": "G2",
          "ticks": 1104,
          "time": 4.3125,
          "velocity": 0.2992125984251969
        },
        {
          "duration": 0.1875,
          "durationTicks": 48,
          "midi": 48,
          "name": "C3",
          "ticks": 1104,
          "time": 4.3125,
          "velocity": 0.2992125984251969
        },
        {
          "duration": 0.1875,
          "durationTicks": 48,
          "midi": 43,
          "name": "G2",
          "ticks": 1200,
          "time": 4.6875,
          "velocity": 0.31496062992125984
        },
        {
          "duration": 0.1875,
          "durationTicks": 48,
          "midi": 48,
          "name": "C3",
          "ticks": 1200,
          "time": 4.6875,
          "velocity": 0.31496062992125984
        },
        {
          "duration": 0.1875,
          "durationTicks": 48,
          "midi": 48,
          "name": "C3",
          "ticks": 1296,
          "time": 5.0625,
          "velocity": 0.33858267716535434
        },
        {
          "duration": 0.1875,
          "durationTicks": 48,
          "midi": 43,
          "name": "G2",
          "ticks": 1296,
          "time": 5.0625,
          "velocity": 0.33858267716535434
        },
        {
          "duration": 0.1875,
          "durationTicks": 48,
          "midi": 43,
          "name": "G2",
          "ticks": 1392,
          "time": 5.4375,
          "velocity": 0.3543307086614173
        },
        {
          "duration": 0.1875,
          "durationTicks": 48,
          "midi": 48,
          "name": "C3",
          "ticks": 1392,
          "time": 5.4375,
          "velocity": 0.3543307086614173
        },
        {
          "duration": 0.1875,
          "durationTicks": 48,
          "midi": 48,
          "name": "C3",
          "ticks": 1488,
          "time": 5.8125,
          "velocity": 0.3779527559055118
        },
        {
          "duration": 0.1875,
          "durationTicks": 48,
          "midi": 43,
          "name": "G2",
          "ticks": 1488,
          "time": 5.8125,
          "velocity": 0.3779527559055118
        },
        {
          "duration": 0.1875,
          "durationTicks": 48,
          "midi": 48,
          "name": "C3",
          "ticks": 1584,
          "time": 6.1875,
          "velocity": 0.3937007874015748
        },
        {
          "duration": 0.1875,
          "durationTicks": 48,
          "midi": 43,
          "name": "G2",
          "ticks": 1584,
          "time": 6.1875,
          "velocity": 0.3937007874015748
        },
        {
          "duration": 0.1875,
          "durationTicks": 48,
          "midi": 48,
          "name": "C3",
          "ticks": 1680,
          "time": 6.5625,
          "velocity": 0.41732283464566927
        },
        {
          "duration": 0.1875,
          "durationTicks": 48,
          "midi": 43,
          "name": "G2",
          "ticks": 1680,
          "time": 6.5625,
          "velocity": 0.41732283464566927
        },
        {
          "duration": 0.1875,
          "durationTicks": 48,
          "midi": 43,
          "name": "G2",
          "ticks": 1776,
          "time": 6.9375,
          "velocity": 0.4330708661417323
        },
        {
          "duration": 0.1875,
          "durationTicks": 48,
          "midi": 48,
          "name": "C3",
          "ticks": 1776,
          "time": 6.9375,
          "velocity": 0.4330708661417323
        },
        {
          "duration": 0.1875,
          "durationTicks": 48,
          "midi": 43,
          "name": "G2",
          "ticks": 1872,
          "time": 7.3125,
          "velocity": 0.4566929133858268
        },
        {
          "duration": 0.1875,
          "durationTicks": 48,
          "midi": 48,
          "name": "C3",
          "ticks": 1872,
          "time": 7.3125,
          "velocity": 0.4566929133858268
        },
        {
          "duration": 0.1875,
          "durationTicks": 48,
          "midi": 48,
          "name": "C3",
          "ticks": 1968,
          "time": 7.6875,
          "velocity": 0.47244094488188976
        },
        {
          "duration": 0.1875,
          "durationTicks": 48,
          "midi": 43,
          "name": "G2",
          "ticks": 1968,
          "time": 7.6875,
          "velocity": 0.47244094488188976
        },
        {
          "duration": 0.1875,
          "durationTicks": 48,
          "midi": 43,
          "name": "G2",
          "ticks": 2064,
          "time": 8.0625,
          "velocity": 0.49606299212598426
        },
        {
          "duration": 0.1875,
          "durationTicks": 48,
          "midi": 48,
          "name": "C3",
          "ticks": 2064,
          "time": 8.0625,
          "velocity": 0.49606299212598426
        },
        {
          "duration": 0.1875,
          "durationTicks": 48,
          "midi": 48,
          "name": "C3",
          "ticks": 2160,
          "time": 8.4375,
          "velocity": 0.5118110236220472
        },
        {
          "duration": 0.1875,
          "durationTicks": 48,
          "midi": 43,
          "name": "G2",
          "ticks": 2160,
          "time": 8.4375,
          "velocity": 0.5118110236220472
        },
        {
          "duration": 0.1875,
          "durationTicks": 48,
          "midi": 43,
          "name": "G2",
          "ticks": 2256,
          "time": 8.8125,
          "velocity": 0.5354330708661418
        },
        {
          "duration": 0.1875,
          "durationTicks": 48,
          "midi": 48,
          "name": "C3",
          "ticks": 2256,
          "time": 8.8125,
          "velocity": 0.5354330708661418
        },
        {
          "duration": 0.1875,
          "durationTicks": 48,
          "midi": 48,
          "name": "C3",
          "ticks": 2352,
          "time": 9.1875,
          "velocity": 0.5511811023622047
        },
        {
          "duration": 0.1875,
          "durationTicks": 48,
          "midi": 43,
          "name": "G2",
          "ticks": 2352,
          "time": 9.1875,
          "velocity": 0.5511811023622047
        },
        {
          "duration": 0.1875,
          "durationTicks": 48,
          "midi": 48,
          "name": "C3",
          "ticks": 2448,
          "time": 9.5625,
          "velocity": 0.5748031496062992
        },
        {
          "duration": 0.1875,
          "durationTicks": 48,
          "midi": 43,
          "name": "G2",
          "ticks": 2448,
          "time": 9.5625,
          "velocity": 0.5748031496062992
        },
        {
          "duration": 0.1875,
          "durationTicks": 48,
          "midi": 43,
          "name": "G2",
          "ticks": 2544,
          "time": 9.9375,
          "velocity": 0.5905511811023622
        },
        {
          "duration": 0.1875,
          "durationTicks": 48,
          "midi": 48,
          "name": "C3",
          "ticks": 2544,
          "time": 9.9375,
          "velocity": 0.5905511811023622
        },
        {
          "duration": 0.1875,
          "durationTicks": 48,
          "midi": 48,
          "name": "C3",
          "ticks": 2640,
          "time": 10.3125,
          "velocity": 0.6141732283464567
        },
        {
          "duration": 0.1875,
          "durationTicks": 48,
          "midi": 43,
          "name": "G2",
          "ticks": 2640,
          "time": 10.3125,
          "velocity": 0.6141732283464567
        },
        {
          "duration": 0.1875,
          "durationTicks": 48,
          "midi": 48,
          "name": "C3",
          "ticks": 2736,
          "time": 10.6875,
          "velocity": 0.6377952755905512
        },
        {
          "duration": 0.1875,
          "durationTicks": 48,
          "midi": 43,
          "name": "G2",
          "ticks": 2736,
          "time": 10.6875,
          "velocity": 0.6377952755905512
        },
        {
          "duration": 0.1875,
          "durationTicks": 48,
          "midi": 43,
          "name": "G2",
          "ticks": 2832,
          "time": 11.0625,
          "velocity": 0.6535433070866141
        },
        {
          "duration": 0.1875,
          "durationTicks": 48,
          "midi": 48,
          "name": "C3",
          "ticks": 2832,
          "time": 11.0625,
          "velocity": 0.6535433070866141
        },
        {
          "duration": 0.1875,
          "durationTicks": 48,
          "midi": 48,
          "name": "C3",
          "ticks": 2928,
          "time": 11.4375,
          "velocity": 0.6771653543307087
        },
        {
          "duration": 0.1875,
          "durationTicks": 48,
          "midi": 43,
          "name": "G2",
          "ticks": 2928,
          "time": 11.4375,
          "velocity": 0.6771653543307087
        },
        {
          "duration": 0.1875,
          "durationTicks": 48,
          "midi": 43,
          "name": "G2",
          "ticks": 3024,
          "time": 11.8125,
          "velocity": 0.6929133858267716
        },
        {
          "duration": 0.1875,
          "durationTicks": 48,
          "midi": 48,
          "name": "C3",
          "ticks": 3024,
          "time": 11.8125,
          "velocity": 0.6929133858267716
        },
        {
          "duration": 0.1875,
          "durationTicks": 48,
          "midi": 43,
          "name": "G2",
          "ticks": 3120,
          "time": 12.1875,
          "velocity": 0.7165354330708661
        },
        {
          "duration": 0.1875,
          "durationTicks": 48,
          "midi": 48,
          "name": "C3",
          "ticks": 3120,
          "time": 12.1875,
          "velocity": 0.7165354330708661
        },
        {
          "duration": 0.1875,
          "durationTicks": 48,
          "midi": 48,
          "name": "C3",
          "ticks": 3216,
          "time": 12.5625,
          "velocity": 0.7322834645669292
        },
        {
          "duration": 0.1875,
          "durationTicks": 48,
          "midi": 43,
          "name": "G2",
          "ticks": 3216,
          "time": 12.5625,
          "velocity": 0.7322834645669292
        },
        {
          "duration": 2.609375,
          "durationTicks": 668,
          "midi": 55,
          "name": "G3",
          "ticks": 9600,
          "time": 37.5,
          "velocity": 0.48031496062992124
        },
        {
          "duration": 2.609375,
          "durationTicks": 668,
          "midi": 43,
          "name": "G2",
          "ticks": 9600,
          "time": 37.5,
          "velocity": 0.48031496062992124
        },
        {
          "duration": 2.609375,
          "durationTicks": 668,
          "midi": 51,
          "name": "D#3",
          "ticks": 9600,
          "time": 37.5,
          "velocity": 0.48031496062992124
        },
        {
          "duration": 2.609375,
          "durationTicks": 668,
          "midi": 48,
          "name": "C3",
          "ticks": 9600,
          "time": 37.5,
          "velocity": 0.48031496062992124
        },
        {
          "duration": 2.609375,
          "durationTicks": 668,
          "midi": 48,
          "name": "C3",
          "ticks": 10368,
          "time": 40.5,
          "velocity": 0.48031496062992124
        },
        {
          "duration": 2.609375,
          "durationTicks": 668,
          "midi": 51,
          "name": "D#3",
          "ticks": 10368,
          "time": 40.5,
          "velocity": 0.48031496062992124
        },
        {
          "duration": 2.609375,
          "durationTicks": 668,
          "midi": 43,
          "name": "G2",
          "ticks": 10368,
          "time": 40.5,
          "velocity": 0.48031496062992124
        },
        {
          "duration": 2.609375,
          "durationTicks": 668,
          "midi": 55,
          "name": "G3",
          "ticks": 10368,
          "time": 40.5,
          "velocity": 0.48031496062992124
        },
        {
          "duration": 2.609375,
          "durationTicks": 668,
          "midi": 55,
          "name": "G3",
          "ticks": 11136,
          "time": 43.5,
          "velocity": 0.48031496062992124
        },
        {
          "duration": 2.609375,
          "durationTicks": 668,
          "midi": 43,
          "name": "G2",
          "ticks": 11136,
          "time": 43.5,
          "velocity": 0.48031496062992124
        },
        {
          "duration": 2.609375,
          "durationTicks": 668,
          "midi": 48,
          "name": "C3",
          "ticks": 11136,
          "time": 43.5,
          "velocity": 0.48031496062992124
        },
        {
          "duration": 2.609375,
          "durationTicks": 668,
          "midi": 51,
          "name": "D#3",
          "ticks": 11136,
          "time": 43.5,
          "velocity": 0.48031496062992124
        },
        {
          "duration": 1.484375,
          "durationTicks": 380,
          "midi": 48,
          "name": "C3",
          "ticks": 11904,
          "time": 46.5,
          "velocity": 0.48031496062992124
        },
        {
          "duration": 1.484375,
          "durationTicks": 380,
          "midi": 51,
          "name": "D#3",
          "ticks": 11904,
          "time": 46.5,
          "velocity": 0.48031496062992124
        },
        {
          "duration": 1.484375,
          "durationTicks": 380,
          "midi": 43,
          "name": "G2",
          "ticks": 11904,
          "time": 46.5,
          "velocity": 0.48031496062992124
        },
        {
          "duration": 1.484375,
          "durationTicks": 380,
          "midi": 55,
          "name": "G3",
          "ticks": 11904,
          "time": 46.5,
          "velocity": 0.48031496062992124
        },
        {
          "duration": 2.609375,
          "durationTicks": 668,
          "midi": 55,
          "name": "G3",
          "ticks": 12672,
          "time": 49.5,
          "velocity": 0.48031496062992124
        },
        {
          "duration": 2.609375,
          "durationTicks": 668,
          "midi": 43,
          "name": "G2",
          "ticks": 12672,
          "time": 49.5,
          "velocity": 0.48031496062992124
        },
        {
          "duration": 2.609375,
          "durationTicks": 668,
          "midi": 51,
          "name": "D#3",
          "ticks": 12672,
          "time": 49.5,
          "velocity": 0.48031496062992124
        },
        {
          "duration": 2.609375,
          "durationTicks": 668,
          "midi": 48,
          "name": "C3",
          "ticks": 12672,
          "time": 49.5,
          "velocity": 0.48031496062992124
        },
        {
          "duration": 2.609375,
          "durationTicks": 668,
          "midi": 48,
          "name": "C3",
          "ticks": 13440,
          "time": 52.5,
          "velocity": 0.48031496062992124
        },
        {
          "duration": 2.609375,
          "durationTicks": 668,
          "midi": 51,
          "name": "D#3",
          "ticks": 13440,
          "time": 52.5,
          "velocity": 0.48031496062992124
        },
        {
          "duration": 2.609375,
          "durationTicks": 668,
          "midi": 43,
          "name": "G2",
          "ticks": 13440,
          "time": 52.5,
          "velocity": 0.48031496062992124
        },
        {
          "duration": 2.609375,
          "durationTicks": 668,
          "midi": 55,
          "name": "G3",
          "ticks": 13440,
          "time": 52.5,
          "velocity": 0.48031496062992124
        },
        {
          "duration": 2.609375,
          "durationTicks": 668,
          "midi": 55,
          "name": "G3",
          "ticks": 14208,
          "time": 55.5,
          "velocity": 0.48031496062992124
        },
        {
          "duration": 2.609375,
          "durationTicks": 668,
          "midi": 43,
          "name": "G2",
          "ticks": 14208,
          "time": 55.5,
          "velocity": 0.48031496062992124
        },
        {
          "duration": 2.609375,
          "durationTicks": 668,
          "midi": 48,
          "name": "C3",
          "ticks": 14208,
          "time": 55.5,
          "velocity": 0.48031496062992124
        },
        {
          "duration": 2.609375,
          "durationTicks": 668,
          "midi": 51,
          "name": "D#3",
          "ticks": 14208,
          "time": 55.5,
          "velocity": 0.48031496062992124
        },
        {
          "duration": 1.453125,
          "durationTicks": 372,
          "midi": 48,
          "name": "C3",
          "ticks": 14976,
          "time": 58.5,
          "velocity": 0.48031496062992124
        },
        {
          "duration": 1.453125,
          "durationTicks": 372,
          "midi": 51,
          "name": "D#3",
          "ticks": 14976,
          "time": 58.5,
          "velocity": 0.48031496062992124
        },
        {
          "duration": 1.453125,
          "durationTicks": 372,
          "midi": 43,
          "name": "G2",
          "ticks": 14976,
          "time": 58.5,
          "velocity": 0.48031496062992124
        },
        {
          "duration": 1.453125,
          "durationTicks": 372,
          "midi": 55,
          "name": "G3",
          "ticks": 14976,
          "time": 58.5,
          "velocity": 0.48031496062992124
        },
        {
          "duration": 2.609375,
          "durationTicks": 668,
          "midi": 51,
          "name": "D#3",
          "ticks": 24576,
          "time": 96,
          "velocity": 0.48031496062992124
        },
        {
          "duration": 2.609375,
          "durationTicks": 668,
          "midi": 48,
          "name": "C3",
          "ticks": 24576,
          "time": 96,
          "velocity": 0.48031496062992124
        },
        {
          "duration": 2.609375,
          "durationTicks": 668,
          "midi": 43,
          "name": "G2",
          "ticks": 24576,
          "time": 96,
          "velocity": 0.48031496062992124
        },
        {
          "duration": 2.609375,
          "durationTicks": 668,
          "midi": 55,
          "name": "G3",
          "ticks": 24576,
          "time": 96,
          "velocity": 0.48031496062992124
        },
        {
          "duration": 2.609375,
          "durationTicks": 668,
          "midi": 51,
          "name": "D#3",
          "ticks": 25248,
          "time": 98.625,
          "velocity": 0.48031496062992124
        },
        {
          "duration": 2.609375,
          "durationTicks": 668,
          "midi": 48,
          "name": "C3",
          "ticks": 25248,
          "time": 98.625,
          "velocity": 0.48031496062992124
        },
        {
          "duration": 2.609375,
          "durationTicks": 668,
          "midi": 43,
          "name": "G2",
          "ticks": 25248,
          "time": 98.625,
          "velocity": 0.48031496062992124
        },
        {
          "duration": 2.609375,
          "durationTicks": 668,
          "midi": 55,
          "name": "G3",
          "ticks": 25248,
          "time": 98.625,
          "velocity": 0.48031496062992124
        },
        {
          "duration": 2.609375,
          "durationTicks": 668,
          "midi": 51,
          "name": "D#3",
          "ticks": 25920,
          "time": 101.25,
          "velocity": 0.48031496062992124
        },
        {
          "duration": 2.609375,
          "durationTicks": 668,
          "midi": 48,
          "name": "C3",
          "ticks": 25920,
          "time": 101.25,
          "velocity": 0.48031496062992124
        },
        {
          "duration": 2.609375,
          "durationTicks": 668,
          "midi": 43,
          "name": "G2",
          "ticks": 25920,
          "time": 101.25,
          "velocity": 0.48031496062992124
        },
        {
          "duration": 2.609375,
          "durationTicks": 668,
          "midi": 55,
          "name": "G3",
          "ticks": 25920,
          "time": 101.25,
          "velocity": 0.48031496062992124
        },
        {
          "duration": 2.609375,
          "durationTicks": 668,
          "midi": 55,
          "name": "G3",
          "ticks": 26592,
          "time": 103.875,
          "velocity": 0.48031496062992124
        },
        {
          "duration": 2.609375,
          "durationTicks": 668,
          "midi": 43,
          "name": "G2",
          "ticks": 26592,
          "time": 103.875,
          "velocity": 0.48031496062992124
        },
        {
          "duration": 2.609375,
          "durationTicks": 668,
          "midi": 48,
          "name": "C3",
          "ticks": 26592,
          "time": 103.875,
          "velocity": 0.48031496062992124
        },
        {
          "duration": 2.609375,
          "durationTicks": 668,
          "midi": 51,
          "name": "D#3",
          "ticks": 26592,
          "time": 103.875,
          "velocity": 0.48031496062992124
        },
        {
          "duration": 2.328125,
          "durationTicks": 596,
          "midi": 55,
          "name": "G3",
          "ticks": 27336,
          "time": 106.78125,
          "velocity": 0.48031496062992124
        },
        {
          "duration": 2.328125,
          "durationTicks": 596,
          "midi": 43,
          "name": "G2",
          "ticks": 27336,
          "time": 106.78125,
          "velocity": 0.48031496062992124
        },
        {
          "duration": 2.328125,
          "durationTicks": 596,
          "midi": 48,
          "name": "C3",
          "ticks": 27336,
          "time": 106.78125,
          "velocity": 0.48031496062992124
        },
        {
          "duration": 2.328125,
          "durationTicks": 596,
          "midi": 51,
          "name": "D#3",
          "ticks": 27336,
          "time": 106.78125,
          "velocity": 0.48031496062992124
        },
        {
          "duration": 2.5625,
          "durationTicks": 656,
          "midi": 55,
          "name": "G3",
          "ticks": 27936,
          "time": 109.125,
          "velocity": 0.48031496062992124
        },
        {
          "duration": 2.5625,
          "durationTicks": 656,
          "midi": 43,
          "name": "G2",
          "ticks": 27936,
          "time": 109.125,
          "velocity": 0.48031496062992124
        },
        {
          "duration": 2.5625,
          "durationTicks": 656,
          "midi": 48,
          "name": "C3",
          "ticks": 27936,
          "time": 109.125,
          "velocity": 0.48031496062992124
        },
        {
          "duration": 2.5625,
          "durationTicks": 656,
          "midi": 51,
          "name": "D#3",
          "ticks": 27936,
          "time": 109.125,
          "velocity": 0.48031496062992124
        },
        {
          "duration": 2.5625,
          "durationTicks": 656,
          "midi": 51,
          "name": "D#3",
          "ticks": 28608,
          "time": 111.75,
          "velocity": 0.48031496062992124
        },
        {
          "duration": 2.5625,
          "durationTicks": 656,
          "midi": 48,
          "name": "C3",
          "ticks": 28608,
          "time": 111.75,
          "velocity": 0.48031496062992124
        },
        {
          "duration": 2.5625,
          "durationTicks": 656,
          "midi": 43,
          "name": "G2",
          "ticks": 28608,
          "time": 111.75,
          "velocity": 0.48031496062992124
        },
        {
          "duration": 2.5625,
          "durationTicks": 656,
          "midi": 55,
          "name": "G3",
          "ticks": 28608,
          "time": 111.75,
          "velocity": 0.48031496062992124
        }
      ],
      "endOfTrackTicks": 37730
    }
  ]
}
