{
  "header": {
    "keySignatures": [
      {
        "key": "F",
        "scale": "major",
        "ticks": 0
      },
      {
        "key": "C",
        "scale": "major",
        "ticks": 0
      },
      {
        "key": "C",
        "scale": "major",
        "ticks": 0
      },
      {
        "key": "D",
        "scale": "major",
        "ticks": 113280
      },
      {
        "key": "F",
        "scale": "major",
        "ticks": 144000
      },
      {
        "key": "D",
        "scale": "major",
        "ticks": 157440
      },
      {
        "key": "F",
        "scale": "major",
        "ticks": 0
      },
      {
        "key": "C",
        "scale": "major",
        "ticks": 0
      },
      {
        "key": "C",
        "scale": "major",
        "ticks": 0
      },
      {
        "key": "D",
        "scale": "major",
        "ticks": 113280
      },
      {
        "key": "F",
        "scale": "major",
        "ticks": 144000
      },
      {
        "key": "D",
        "scale": "major",
        "ticks": 157440
      }
    ],
    "meta": [],
    "name": "",
    "ppq": 480,
    "tempos": [
      {
        "bpm": 55.00000458333371,
        "ticks": 0
      },
      {
        "bpm": 139.9998133335822,
        "ticks": 51840
      },
      {
        "bpm": 139.9998133335822,
        "ticks": 67200
      },
      {
        "bpm": 89.9999550000225,
        "ticks": 113280
      },
      {
        "bpm": 60,
        "ticks": 128640
      },
      {
        "bpm": 139.9998133335822,
        "ticks": 144000
      },
      {
        "bpm": 109.99970666744889,
        "ticks": 157440
      },
      {
        "bpm": 139.9998133335822,
        "ticks": 163200
      },
      {
        "bpm": 142.0000710000355,
        "ticks": 182400
      },
      {
        "bpm": 143.99988480009216,
        "ticks": 182880
      },
      {
        "bpm": 145.9999659333413,
        "ticks": 183360
      },
      {
        "bpm": 148.000148000148,
        "ticks": 183840
      },
      {
        "bpm": 150,
        "ticks": 184320
      },
      {
        "bpm": 151.99993920002433,
        "ticks": 184800
      },
      {
        "bpm": 154.000154000154,
        "ticks": 185280
      },
      {
        "bpm": 156.000156000156,
        "ticks": 185760
      },
      {
        "bpm": 157.999931533363,
        "ticks": 186240
      },
      {
        "bpm": 160,
        "ticks": 186720
      },
      {
        "bpm": 162.000162000162,
        "ticks": 187200
      },
      {
        "bpm": 163.9998469334762,
        "ticks": 187680
      }
    ],
    "timeSignatures": [
      {
        "ticks": 0,
        "timeSignature": [
          2,
          4
        ],
        "measures": 0
      },
      {
        "ticks": 3840,
        "timeSignature": [
          4,
          4
        ],
        "measures": 4
      },
      {
        "ticks": 51840,
        "timeSignature": [
          2,
          4
        ],
        "measures": 29
      },
      {
        "ticks": 67200,
        "timeSignature": [
          2,
          4
        ],
        "measures": 45
      }
    ]
  },
  "tracks": [
    {
      "channel": 0,
      "controlChanges": {
        "7": [
          {
            "number": 7,
            "ticks": 0,
            "time": 0,
            "value": 0.7874015748031497
          }
        ],
        "10": [
          {
            "number": 10,
            "ticks": 0,
            "time": 0,
            "value": 0.5039370078740157
          }
        ],
        "91": [
          {
            "number": 91,
            "ticks": 0,
            "time": 0,
            "value": 0
          }
        ],
        "93": [
          {
            "number": 93,
            "ticks": 0,
            "time": 0,
            "value": 0
          }
        ],
        "121": [
          {
            "number": 121,
            "ticks": 0,
            "time": 0,
            "value": 0
          }
        ]
      },
      "pitchBends": [],
      "instrument": {
        "family": "piano",
        "number": 0,
        "name": "acoustic grand piano"
      },
      "name": "",
      "notes": [
        {
          "duration": 1.0886362729166668,
          "durationTicks": 479,
          "midi": 62,
          "name": "D4",
          "ticks": 0,
          "time": 0,
          "velocity": 0.6692913385826772
        },
        {
          "duration": 0.9431817395833334,
          "durationTicks": 415,
          "midi": 65,
          "name": "F4",
          "ticks": 63,
          "time": 0.14318180625000002,
          "velocity": 0.6692913385826772
        },
        {
          "duration": 0.79772720625,
          "durationTicks": 351,
          "midi": 69,
          "name": "A4",
          "ticks": 127,
          "time": 0.28863633958333335,
          "velocity": 0.6692913385826772
        },
        {
          "duration": 0.6522726729166667,
          "durationTicks": 287,
          "midi": 74,
          "name": "D5",
          "ticks": 192,
          "time": 0.4363636000000001,
          "velocity": 0.6692913385826772
        },
        {
          "duration": 1.0886362729166665,
          "durationTicks": 479,
          "midi": 62,
          "name": "D4",
          "ticks": 480,
          "time": 1.0909090000000001,
          "velocity": 0.6692913385826772
        },
        {
          "duration": 0.9431817395833333,
          "durationTicks": 415,
          "midi": 65,
          "name": "F4",
          "ticks": 543,
          "time": 1.2340908062500002,
          "velocity": 0.6692913385826772
        },
        {
          "duration": 0.79772720625,
          "durationTicks": 351,
          "midi": 70,
          "name": "A#4",
          "ticks": 607,
          "time": 1.3795453395833335,
          "velocity": 0.6692913385826772
        },
        {
          "duration": 0.6522726729166666,
          "durationTicks": 287,
          "midi": 74,
          "name": "D5",
          "ticks": 672,
          "time": 1.5272726,
          "velocity": 0.6692913385826772
        },
        {
          "duration": 2.1795452729166667,
          "durationTicks": 959,
          "midi": 70,
          "name": "A#4",
          "ticks": 960,
          "time": 2.1818180000000003,
          "velocity": 0.6692913385826772
        },
        {
          "duration": 2.0340907395833328,
          "durationTicks": 895,
          "midi": 74,
          "name": "D5",
          "ticks": 1023,
          "time": 2.3249998062500006,
          "velocity": 0.6692913385826772
        },
        {
          "duration": 1.8886362062499997,
          "durationTicks": 831,
          "midi": 76,
          "name": "E5",
          "ticks": 1087,
          "time": 2.4704543395833336,
          "velocity": 0.6692913385826772
        },
        {
          "duration": 1.7431816729166667,
          "durationTicks": 767,
          "midi": 82,
          "name": "A#5",
          "ticks": 1152,
          "time": 2.6181816,
          "velocity": 0.6692913385826772
        },
        {
          "duration": 0.5431817729166672,
          "durationTicks": 239,
          "midi": 69,
          "name": "A4",
          "ticks": 1920,
          "time": 4.3636360000000005,
          "velocity": 0.8031496062992126
        },
        {
          "duration": 0.5431817729166672,
          "durationTicks": 239,
          "midi": 73,
          "name": "C#5",
          "ticks": 1920,
          "time": 4.3636360000000005,
          "velocity": 0.8031496062992126
        },
        {
          "duration": 0.5431817729166672,
          "durationTicks": 239,
          "midi": 76,
          "name": "E5",
          "ticks": 1920,
          "time": 4.3636360000000005,
          "velocity": 0.8031496062992126
        },
        {
          "duration": 0.5431817729166672,
          "durationTicks": 239,
          "midi": 81,
          "name": "A5",
          "ticks": 1920,
          "time": 4.3636360000000005,
          "velocity": 0.8031496062992126
        },
        {
          "duration": 0.6795453979166668,
          "durationTicks": 299,
          "midi": 57,
          "name": "A3",
          "ticks": 2160,
          "time": 4.9090905000000005,
          "velocity": 0.6692913385826772
        },
        {
          "duration": 0.13409089791666684,
          "durationTicks": 59,
          "midi": 58,
          "name": "A#3",
          "ticks": 2460,
          "time": 5.590908625000001,
          "velocity": 0.6692913385826772
        },
        {
          "duration": 0.13409089791666684,
          "durationTicks": 59,
          "midi": 57,
          "name": "A3",
          "ticks": 2520,
          "time": 5.72727225,
          "velocity": 0.6692913385826772
        },
        {
          "duration": 0.13409089791666684,
          "durationTicks": 59,
          "midi": 56,
          "name": "G#3",
          "ticks": 2580,
          "time": 5.863635875000001,
          "velocity": 0.6692913385826772
        },
        {
          "duration": 0.17954543958333424,
          "durationTicks": 79,
          "midi": 57,
          "name": "A3",
          "ticks": 2640,
          "time": 5.9999995,
          "velocity": 0.6692913385826772
        },
        {
          "duration": 0.17954543958333335,
          "durationTicks": 79,
          "midi": 61,
          "name": "C#4",
          "ticks": 2720,
          "time": 6.181817666666667,
          "velocity": 0.6692913385826772
        },
        {
          "duration": 0.17045453125000076,
          "durationTicks": 75,
          "midi": 64,
          "name": "E4",
          "ticks": 2800,
          "time": 6.363635833333333,
          "velocity": 0.6692913385826772
        },
        {
          "duration": 2.179545272916666,
          "durationTicks": 959,
          "midi": 70,
          "name": "A#4",
          "ticks": 2880,
          "time": 6.545454000000001,
          "velocity": 0.8031496062992126
        },
        {
          "duration": 1.0340908229166672,
          "durationTicks": 455,
          "midi": 55,
          "name": "G3",
          "ticks": 3360,
          "time": 7.636363000000001,
          "velocity": 0.4881889763779528
        },
        {
          "duration": 1.0340908229166672,
          "durationTicks": 455,
          "midi": 57,
          "name": "A3",
          "ticks": 3360,
          "time": 7.636363000000001,
          "velocity": 0.4881889763779528
        },
        {
          "duration": 1.0340908229166672,
          "durationTicks": 455,
          "midi": 61,
          "name": "C#4",
          "ticks": 3360,
          "time": 7.636363000000001,
          "velocity": 0.4881889763779528
        },
        {
          "duration": 0.5159090479166668,
          "durationTicks": 227,
          "midi": 57,
          "name": "A3",
          "ticks": 5040,
          "time": 11.4545445,
          "velocity": 0.6692913385826772
        },
        {
          "duration": 0.06136363125000166,
          "durationTicks": 27,
          "midi": 60,
          "name": "C4",
          "ticks": 5280,
          "time": 11.999999,
          "velocity": 0.6692913385826772
        },
        {
          "duration": 0.45227268958333333,
          "durationTicks": 199,
          "midi": 58,
          "name": "A#3",
          "ticks": 5308,
          "time": 12.063635358333334,
          "velocity": 0.6692913385826772
        },
        {
          "duration": 0.5159090479166668,
          "durationTicks": 227,
          "midi": 57,
          "name": "A3",
          "ticks": 5520,
          "time": 12.5454535,
          "velocity": 0.6692913385826772
        },
        {
          "duration": 2.5886361479166666,
          "durationTicks": 1139,
          "midi": 69,
          "name": "A4",
          "ticks": 5760,
          "time": 13.090908000000002,
          "velocity": 0.6692913385826772
        },
        {
          "duration": 0.5159090479166668,
          "durationTicks": 227,
          "midi": 65,
          "name": "F4",
          "ticks": 6960,
          "time": 15.818180500000002,
          "velocity": 0.6692913385826772
        },
        {
          "duration": 0.5431817729166681,
          "durationTicks": 239,
          "midi": 65,
          "name": "F4",
          "ticks": 7200,
          "time": 16.363635000000002,
          "velocity": 0.6692913385826772
        },
        {
          "duration": 0.5159090479166686,
          "durationTicks": 227,
          "midi": 67,
          "name": "G4",
          "ticks": 7440,
          "time": 16.9090895,
          "velocity": 0.6692913385826772
        },
        {
          "duration": 0.13409089791666418,
          "durationTicks": 59,
          "midi": 65,
          "name": "F4",
          "ticks": 7680,
          "time": 17.454544000000002,
          "velocity": 0.6692913385826772
        },
        {
          "duration": 0.13409089791666418,
          "durationTicks": 59,
          "midi": 67,
          "name": "G4",
          "ticks": 7740,
          "time": 17.590907625000003,
          "velocity": 0.6692913385826772
        },
        {
          "duration": 0.2704545229166655,
          "durationTicks": 119,
          "midi": 65,
          "name": "F4",
          "ticks": 7800,
          "time": 17.72727125,
          "velocity": 0.6692913385826772
        },
        {
          "duration": 0.515909047916665,
          "durationTicks": 227,
          "midi": 64,
          "name": "E4",
          "ticks": 7920,
          "time": 17.999998500000004,
          "velocity": 0.6692913385826772
        },
        {
          "duration": 2.7249997729166644,
          "durationTicks": 1199,
          "midi": 74,
          "name": "D5",
          "ticks": 8160,
          "time": 18.545453000000002,
          "velocity": 0.6692913385826772
        },
        {
          "duration": 0.515909047916665,
          "durationTicks": 227,
          "midi": 58,
          "name": "A#3",
          "ticks": 9360,
          "time": 21.272725500000004,
          "velocity": 0.6692913385826772
        },
        {
          "duration": 0.5431817729166646,
          "durationTicks": 239,
          "midi": 58,
          "name": "A#3",
          "ticks": 9600,
          "time": 21.81818,
          "velocity": 0.6692913385826772
        },
        {
          "duration": 0.5431817729166646,
          "durationTicks": 239,
          "midi": 57,
          "name": "A3",
          "ticks": 9840,
          "time": 22.363634500000003,
          "velocity": 0.6692913385826772
        },
        {
          "duration": 0.5431817729166646,
          "durationTicks": 239,
          "midi": 61,
          "name": "C#4",
          "ticks": 10080,
          "time": 22.909089,
          "velocity": 0.6692913385826772
        },
        {
          "duration": 0.5431817729166646,
          "durationTicks": 239,
          "midi": 64,
          "name": "E4",
          "ticks": 10320,
          "time": 23.454543500000003,
          "velocity": 0.6692913385826772
        },
        {
          "duration": 0.5159090479166686,
          "durationTicks": 227,
          "midi": 67,
          "name": "G4",
          "ticks": 10560,
          "time": 23.999998,
          "velocity": 0.6692913385826772
        },
        {
          "duration": 0.515909047916665,
          "durationTicks": 227,
          "midi": 67,
          "name": "G4",
          "ticks": 10800,
          "time": 24.545452500000003,
          "velocity": 0.6692913385826772
        },
        {
          "duration": 0.5159090479166686,
          "durationTicks": 227,
          "midi": 65,
          "name": "F4",
          "ticks": 11040,
          "time": 25.090907,
          "velocity": 0.6692913385826772
        },
        {
          "duration": 0.515909047916665,
          "durationTicks": 227,
          "midi": 61,
          "name": "C#4",
          "ticks": 11280,
          "time": 25.636361500000003,
          "velocity": 0.6692913385826772
        },
        {
          "duration": 0.515909047916665,
          "durationTicks": 227,
          "midi": 64,
          "name": "E4",
          "ticks": 11520,
          "time": 26.181816000000005,
          "velocity": 0.6692913385826772
        },
        {
          "duration": 0.515909047916665,
          "durationTicks": 227,
          "midi": 62,
          "name": "D4",
          "ticks": 11760,
          "time": 26.727270500000003,
          "velocity": 0.6692913385826772
        },
        {
          "duration": 0.06590908541666352,
          "durationTicks": 29,
          "midi": 62,
          "name": "D4",
          "ticks": 12000,
          "time": 27.272725000000005,
          "velocity": 0.6692913385826772
        },
        {
          "duration": 0.06590908541666707,
          "durationTicks": 29,
          "midi": 64,
          "name": "E4",
          "ticks": 12030,
          "time": 27.340906812500002,
          "velocity": 0.6692913385826772
        },
        {
          "duration": 0.06590908541666707,
          "durationTicks": 29,
          "midi": 62,
          "name": "D4",
          "ticks": 12060,
          "time": 27.409088625000003,
          "velocity": 0.6692913385826772
        },
        {
          "duration": 0.13409089791666418,
          "durationTicks": 59,
          "midi": 61,
          "name": "C#4",
          "ticks": 12120,
          "time": 27.545452250000004,
          "velocity": 0.6692913385826772
        },
        {
          "duration": 0.13409089791666418,
          "durationTicks": 59,
          "midi": 62,
          "name": "D4",
          "ticks": 12240,
          "time": 27.818179500000003,
          "velocity": 0.6692913385826772
        },
        {
          "duration": 0.13409089791666773,
          "durationTicks": 59,
          "midi": 67,
          "name": "G4",
          "ticks": 12360,
          "time": 28.090906750000002,
          "velocity": 0.6692913385826772
        },
        {
          "duration": 0.515909047916665,
          "durationTicks": 227,
          "midi": 65,
          "name": "F4",
          "ticks": 12480,
          "time": 28.363634000000005,
          "velocity": 0.6692913385826772
        },
        {
          "duration": 0.5431817729166646,
          "durationTicks": 239,
          "midi": 57,
          "name": "A3",
          "ticks": 12720,
          "time": 28.909088500000003,
          "velocity": 0.6692913385826772
        },
        {
          "duration": 0.06136363124999633,
          "durationTicks": 27,
          "midi": 60,
          "name": "C4",
          "ticks": 12960,
          "time": 29.454543000000005,
          "velocity": 0.6692913385826772
        },
        {
          "duration": 0.4772726874999975,
          "durationTicks": 210,
          "midi": 58,
          "name": "A#3",
          "ticks": 12988,
          "time": 29.518179358333338,
          "velocity": 0.6692913385826772
        },
        {
          "duration": 0.5159090479166686,
          "durationTicks": 227,
          "midi": 57,
          "name": "A3",
          "ticks": 13200,
          "time": 29.999997500000003,
          "velocity": 0.6692913385826772
        },
        {
          "duration": 2.5886361479166666,
          "durationTicks": 1139,
          "midi": 69,
          "name": "A4",
          "ticks": 13440,
          "time": 30.545452000000004,
          "velocity": 0.6692913385826772
        },
        {
          "duration": 0.515909047916665,
          "durationTicks": 227,
          "midi": 65,
          "name": "F4",
          "ticks": 14640,
          "time": 33.2727245,
          "velocity": 0.6692913385826772
        },
        {
          "duration": 0.5431817729166681,
          "durationTicks": 239,
          "midi": 65,
          "name": "F4",
          "ticks": 14880,
          "time": 33.818179,
          "velocity": 0.6692913385826772
        },
        {
          "duration": 0.515909047916665,
          "durationTicks": 227,
          "midi": 67,
          "name": "G4",
          "ticks": 15120,
          "time": 34.363633500000006,
          "velocity": 0.6692913385826772
        },
        {
          "duration": 0.13409089791667128,
          "durationTicks": 59,
          "midi": 65,
          "name": "F4",
          "ticks": 15360,
          "time": 34.909088000000004,
          "velocity": 0.6692913385826772
        },
        {
          "duration": 0.13409089791666418,
          "durationTicks": 59,
          "midi": 67,
          "name": "G4",
          "ticks": 15420,
          "time": 35.045451625000005,
          "velocity": 0.6692913385826772
        },
        {
          "duration": 0.2704545229166655,
          "durationTicks": 119,
          "midi": 65,
          "name": "F4",
          "ticks": 15480,
          "time": 35.18181525000001,
          "velocity": 0.6692913385826772
        },
        {
          "duration": 0.5159090479166721,
          "durationTicks": 227,
          "midi": 64,
          "name": "E4",
          "ticks": 15600,
          "time": 35.4545425,
          "velocity": 0.6692913385826772
        },
        {
          "duration": 2.724999772916668,
          "durationTicks": 1199,
          "midi": 70,
          "name": "A#4",
          "ticks": 15840,
          "time": 35.99999700000001,
          "velocity": 0.6692913385826772
        },
        {
          "duration": 0.5159090479166721,
          "durationTicks": 227,
          "midi": 58,
          "name": "A#3",
          "ticks": 17040,
          "time": 38.727269500000006,
          "velocity": 0.6692913385826772
        },
        {
          "duration": 0.5431817729166681,
          "durationTicks": 239,
          "midi": 58,
          "name": "A#3",
          "ticks": 17280,
          "time": 39.272724000000004,
          "velocity": 0.6692913385826772
        },
        {
          "duration": 0.5159090479166721,
          "durationTicks": 227,
          "midi": 57,
          "name": "A3",
          "ticks": 17520,
          "time": 39.8181785,
          "velocity": 0.6692913385826772
        },
        {
          "duration": 0.5431817729166681,
          "durationTicks": 239,
          "midi": 62,
          "name": "D4",
          "ticks": 17760,
          "time": 40.36363300000001,
          "velocity": 0.6692913385826772
        },
        {
          "duration": 0.5159090479166721,
          "durationTicks": 227,
          "midi": 61,
          "name": "C#4",
          "ticks": 18000,
          "time": 40.909087500000005,
          "velocity": 0.6692913385826772
        },
        {
          "duration": 1.6340907729166716,
          "durationTicks": 719,
          "midi": 67,
          "name": "G4",
          "ticks": 18240,
          "time": 41.454542000000004,
          "velocity": 0.6692913385826772
        },
        {
          "duration": 0.5159090479166721,
          "durationTicks": 227,
          "midi": 64,
          "name": "E4",
          "ticks": 18960,
          "time": 43.090905500000005,
          "velocity": 0.6692913385826772
        },
        {
          "duration": 0.5431817729166681,
          "durationTicks": 239,
          "midi": 64,
          "name": "E4",
          "ticks": 19200,
          "time": 43.63636,
          "velocity": 0.6692913385826772
        },
        {
          "duration": 0.515909047916665,
          "durationTicks": 227,
          "midi": 62,
          "name": "D4",
          "ticks": 19440,
          "time": 44.18181450000001,
          "velocity": 0.6692913385826772
        },
        {
          "duration": 0.5431817729166681,
          "durationTicks": 239,
          "midi": 62,
          "name": "D4",
          "ticks": 19680,
          "time": 44.72726900000001,
          "velocity": 0.6692913385826772
        },
        {
          "duration": 0.5431817729166681,
          "durationTicks": 239,
          "midi": 61,
          "name": "C#4",
          "ticks": 19920,
          "time": 45.272723500000005,
          "velocity": 0.6692913385826772
        },
        {
          "duration": 1.0340908229166672,
          "durationTicks": 455,
          "midi": 62,
          "name": "D4",
          "ticks": 20160,
          "time": 45.818178,
          "velocity": 0.6692913385826772
        },
        {
          "duration": 1.2704544395833324,
          "durationTicks": 559,
          "midi": 60,
          "name": "C4",
          "ticks": 21120,
          "time": 47.999996,
          "velocity": 0.6299212598425197
        },
        {
          "duration": 0.17954543958332891,
          "durationTicks": 79,
          "midi": 64,
          "name": "E4",
          "ticks": 21680,
          "time": 49.27272316666667,
          "velocity": 0.6299212598425197
        },
        {
          "duration": 0.17954543958333602,
          "durationTicks": 79,
          "midi": 67,
          "name": "G4",
          "ticks": 21760,
          "time": 49.45454133333334,
          "velocity": 0.6299212598425197
        },
        {
          "duration": 0.17954543958333602,
          "durationTicks": 79,
          "midi": 70,
          "name": "A#4",
          "ticks": 21840,
          "time": 49.636359500000005,
          "velocity": 0.6299212598425197
        },
        {
          "duration": 0.17954543958332891,
          "durationTicks": 79,
          "midi": 72,
          "name": "C5",
          "ticks": 21920,
          "time": 49.81817766666667,
          "velocity": 0.6299212598425197
        },
        {
          "duration": 0.17954543958332891,
          "durationTicks": 79,
          "midi": 76,
          "name": "E5",
          "ticks": 22000,
          "time": 49.999995833333344,
          "velocity": 0.6299212598425197
        },
        {
          "duration": 0.38636360416666804,
          "durationTicks": 170,
          "midi": 79,
          "name": "G5",
          "ticks": 22080,
          "time": 50.181814,
          "velocity": 0.6299212598425197
        },
        {
          "duration": 0.13409089791667128,
          "durationTicks": 59,
          "midi": 77,
          "name": "F5",
          "ticks": 22260,
          "time": 50.59090487500001,
          "velocity": 0.6299212598425197
        },
        {
          "duration": 0.38636360416666093,
          "durationTicks": 170,
          "midi": 76,
          "name": "E5",
          "ticks": 22320,
          "time": 50.72726850000001,
          "velocity": 0.6299212598425197
        },
        {
          "duration": 0.13409089791667128,
          "durationTicks": 59,
          "midi": 74,
          "name": "D5",
          "ticks": 22500,
          "time": 51.136359375000005,
          "velocity": 0.6299212598425197
        },
        {
          "duration": 0.5431817729166681,
          "durationTicks": 239,
          "midi": 72,
          "name": "C5",
          "ticks": 22560,
          "time": 51.272723000000006,
          "velocity": 0.6299212598425197
        },
        {
          "duration": 0.5159090479166721,
          "durationTicks": 227,
          "midi": 70,
          "name": "A#4",
          "ticks": 22800,
          "time": 51.818177500000004,
          "velocity": 0.6299212598425197
        },
        {
          "duration": 0.5431817729166681,
          "durationTicks": 239,
          "midi": 70,
          "name": "A#4",
          "ticks": 23040,
          "time": 52.36363200000001,
          "velocity": 0.6299212598425197
        },
        {
          "duration": 0.5159090479166721,
          "durationTicks": 227,
          "midi": 69,
          "name": "A4",
          "ticks": 23280,
          "time": 52.90908650000001,
          "velocity": 0.6299212598425197
        },
        {
          "duration": 0.26818179583332835,
          "durationTicks": 118,
          "midi": 69,
          "name": "A4",
          "ticks": 23520,
          "time": 53.454541000000006,
          "velocity": 0.6299212598425197
        },
        {
          "duration": 0.26818179583333546,
          "durationTicks": 118,
          "midi": 70,
          "name": "A#4",
          "ticks": 23639,
          "time": 53.72499552291667,
          "velocity": 0.6299212598425197
        },
        {
          "duration": 0.26818179583332835,
          "durationTicks": 118,
          "midi": 69,
          "name": "A4",
          "ticks": 23760,
          "time": 53.999995500000004,
          "velocity": 0.6299212598425197
        },
        {
          "duration": 0.2704545229166655,
          "durationTicks": 119,
          "midi": 68,
          "name": "G#4",
          "ticks": 23880,
          "time": 54.27272275000001,
          "velocity": 0.6299212598425197
        },
        {
          "duration": 2.0704543729166645,
          "durationTicks": 911,
          "midi": 69,
          "name": "A4",
          "ticks": 24000,
          "time": 54.54545000000001,
          "velocity": 0.6299212598425197
        },
        {
          "duration": 1.2704544395833324,
          "durationTicks": 559,
          "midi": 57,
          "name": "A3",
          "ticks": 24960,
          "time": 56.72726800000001,
          "velocity": 0.6299212598425197
        },
        {
          "duration": 0.17954543958332891,
          "durationTicks": 79,
          "midi": 61,
          "name": "C#4",
          "ticks": 25520,
          "time": 57.99999516666667,
          "velocity": 0.6299212598425197
        },
        {
          "duration": 0.17954543958332891,
          "durationTicks": 79,
          "midi": 64,
          "name": "E4",
          "ticks": 25600,
          "time": 58.181813333333345,
          "velocity": 0.6299212598425197
        },
        {
          "duration": 0.17954543958333602,
          "durationTicks": 79,
          "midi": 67,
          "name": "G4",
          "ticks": 25680,
          "time": 58.363631500000004,
          "velocity": 0.6299212598425197
        },
        {
          "duration": 0.17954543958333602,
          "durationTicks": 79,
          "midi": 69,
          "name": "A4",
          "ticks": 25760,
          "time": 58.54544966666667,
          "velocity": 0.6299212598425197
        },
        {
          "duration": 0.17954543958333602,
          "durationTicks": 79,
          "midi": 73,
          "name": "C#5",
          "ticks": 25840,
          "time": 58.72726783333334,
          "velocity": 0.6299212598425197
        },
        {
          "duration": 0.515909047916665,
          "durationTicks": 227,
          "midi": 76,
          "name": "E5",
          "ticks": 25920,
          "time": 58.90908600000001,
          "velocity": 0.6299212598425197
        },
        {
          "duration": 0.5431817729166681,
          "durationTicks": 239,
          "midi": 73,
          "name": "C#5",
          "ticks": 26160,
          "time": 59.45454050000001,
          "velocity": 0.6299212598425197
        },
        {
          "duration": 0.5431817729166681,
          "durationTicks": 239,
          "midi": 81,
          "name": "A5",
          "ticks": 26400,
          "time": 59.999995000000006,
          "velocity": 0.6299212598425197
        },
        {
          "duration": 0.5159090479166721,
          "durationTicks": 227,
          "midi": 69,
          "name": "A4",
          "ticks": 26640,
          "time": 60.545449500000004,
          "velocity": 0.6299212598425197
        },
        {
          "duration": 0.5431817729166681,
          "durationTicks": 239,
          "midi": 76,
          "name": "E5",
          "ticks": 26880,
          "time": 61.09090400000001,
          "velocity": 0.6299212598425197
        },
        {
          "duration": 0.5159090479166721,
          "durationTicks": 227,
          "midi": 74,
          "name": "D5",
          "ticks": 27120,
          "time": 61.63635850000001,
          "velocity": 0.6299212598425197
        },
        {
          "duration": 0.06590908541667062,
          "durationTicks": 29,
          "midi": 74,
          "name": "D5",
          "ticks": 27360,
          "time": 62.181813000000005,
          "velocity": 0.6299212598425197
        },
        {
          "duration": 0.06590908541667062,
          "durationTicks": 29,
          "midi": 76,
          "name": "E5",
          "ticks": 27390,
          "time": 62.249994812500006,
          "velocity": 0.6299212598425197
        },
        {
          "duration": 0.13409089791667128,
          "durationTicks": 59,
          "midi": 74,
          "name": "D5",
          "ticks": 27420,
          "time": 62.31817662500001,
          "velocity": 0.6299212598425197
        },
        {
          "duration": 0.2704545229166655,
          "durationTicks": 119,
          "midi": 73,
          "name": "C#5",
          "ticks": 27480,
          "time": 62.45454025000001,
          "velocity": 0.6299212598425197
        },
        {
          "duration": 0.2704545229166655,
          "durationTicks": 119,
          "midi": 74,
          "name": "D5",
          "ticks": 27600,
          "time": 62.72726750000001,
          "velocity": 0.6299212598425197
        },
        {
          "duration": 0.2704545229166726,
          "durationTicks": 119,
          "midi": 76,
          "name": "E5",
          "ticks": 27720,
          "time": 62.999994750000006,
          "velocity": 0.6299212598425197
        },
        {
          "duration": 1.03409082291666,
          "durationTicks": 455,
          "midi": 77,
          "name": "F5",
          "ticks": 27840,
          "time": 63.27272200000001,
          "velocity": 0.6299212598425197
        },
        {
          "duration": 1.034090822916653,
          "durationTicks": 455,
          "midi": 77,
          "name": "F5",
          "ticks": 28320,
          "time": 64.36363100000001,
          "velocity": 0.6299212598425197
        },
        {
          "duration": 1.0340908229166672,
          "durationTicks": 455,
          "midi": 77,
          "name": "F5",
          "ticks": 28800,
          "time": 65.45454000000001,
          "velocity": 0.6299212598425197
        },
        {
          "duration": 1.2931817104166754,
          "durationTicks": 569,
          "midi": 70,
          "name": "A#4",
          "ticks": 29280,
          "time": 66.545449,
          "velocity": 0.6299212598425197
        },
        {
          "duration": 0.10681817291667528,
          "durationTicks": 47,
          "midi": 76,
          "name": "E5",
          "ticks": 29880,
          "time": 67.90908525,
          "velocity": 0.6299212598425197
        },
        {
          "duration": 0.10681817291666107,
          "durationTicks": 47,
          "midi": 77,
          "name": "F5",
          "ticks": 29931,
          "time": 68.02499433125001,
          "velocity": 0.6299212598425197
        },
        {
          "duration": 0.10681817291666107,
          "durationTicks": 47,
          "midi": 76,
          "name": "E5",
          "ticks": 29982,
          "time": 68.14090341250001,
          "velocity": 0.6299212598425197
        },
        {
          "duration": 0.10681817291666107,
          "durationTicks": 47,
          "midi": 75,
          "name": "D#5",
          "ticks": 30033,
          "time": 68.25681249375,
          "velocity": 0.6299212598425197
        },
        {
          "duration": 0.10681817291667528,
          "durationTicks": 47,
          "midi": 76,
          "name": "E5",
          "ticks": 30084,
          "time": 68.372721575,
          "velocity": 0.6299212598425197
        },
        {
          "duration": 0.10681817291667528,
          "durationTicks": 47,
          "midi": 77,
          "name": "F5",
          "ticks": 30135,
          "time": 68.48863065625001,
          "velocity": 0.6299212598425197
        },
        {
          "duration": 0.10681817291667528,
          "durationTicks": 47,
          "midi": 76,
          "name": "E5",
          "ticks": 30186,
          "time": 68.6045397375,
          "velocity": 0.6299212598425197
        },
        {
          "duration": 0.34318178958332624,
          "durationTicks": 151,
          "midi": 79,
          "name": "G5",
          "ticks": 30240,
          "time": 68.72726700000001,
          "velocity": 0.6299212598425197
        },
        {
          "duration": 0.34318178958332624,
          "durationTicks": 151,
          "midi": 77,
          "name": "F5",
          "ticks": 30400,
          "time": 69.09090333333334,
          "velocity": 0.6299212598425197
        },
        {
          "duration": 0.34318178958334045,
          "durationTicks": 151,
          "midi": 76,
          "name": "E5",
          "ticks": 30560,
          "time": 69.45453966666668,
          "velocity": 0.6299212598425197
        },
        {
          "duration": 0.5431817729166681,
          "durationTicks": 239,
          "midi": 76,
          "name": "E5",
          "ticks": 30720,
          "time": 69.81817600000001,
          "velocity": 0.6299212598425197
        },
        {
          "duration": 0.5159090479166508,
          "durationTicks": 227,
          "midi": 69,
          "name": "A4",
          "ticks": 30960,
          "time": 70.36363050000001,
          "velocity": 0.6299212598425197
        },
        {
          "duration": 1.5522725979166694,
          "durationTicks": 683,
          "midi": 69,
          "name": "A4",
          "ticks": 31200,
          "time": 70.909085,
          "velocity": 0.6299212598425197
        },
        {
          "duration": 0.2704545229166655,
          "durationTicks": 119,
          "midi": 68,
          "name": "G#4",
          "ticks": 31920,
          "time": 72.5454485,
          "velocity": 0.6299212598425197
        },
        {
          "duration": 0.25681816041667105,
          "durationTicks": 113,
          "midi": 69,
          "name": "A4",
          "ticks": 32040,
          "time": 72.81817575000001,
          "velocity": 0.6299212598425197
        },
        {
          "duration": 0.25681816041665684,
          "durationTicks": 113,
          "midi": 70,
          "name": "A#4",
          "ticks": 32160,
          "time": 73.09090300000001,
          "velocity": 0.6299212598425197
        },
        {
          "duration": 0.25681816041665684,
          "durationTicks": 113,
          "midi": 69,
          "name": "A4",
          "ticks": 32280,
          "time": 73.36363025000001,
          "velocity": 0.6299212598425197
        },
        {
          "duration": 0.38636360416667515,
          "durationTicks": 170,
          "midi": 72,
          "name": "C5",
          "ticks": 32400,
          "time": 73.6363575,
          "velocity": 0.6299212598425197
        },
        {
          "duration": 0.12727271666666695,
          "durationTicks": 56,
          "midi": 70,
          "name": "A#4",
          "ticks": 32580,
          "time": 74.045448375,
          "velocity": 0.6299212598425197
        },
        {
          "duration": 0.2704545229166655,
          "durationTicks": 119,
          "midi": 69,
          "name": "A4",
          "ticks": 32640,
          "time": 74.18181200000001,
          "velocity": 0.6299212598425197
        },
        {
          "duration": 0.2704545229166655,
          "durationTicks": 119,
          "midi": 69,
          "name": "A4",
          "ticks": 32760,
          "time": 74.45453925000001,
          "velocity": 0.6299212598425197
        },
        {
          "duration": 0.06590908541666352,
          "durationTicks": 29,
          "midi": 69,
          "name": "A4",
          "ticks": 32880,
          "time": 74.72726650000001,
          "velocity": 0.6299212598425197
        },
        {
          "duration": 0.06590908541666352,
          "durationTicks": 29,
          "midi": 70,
          "name": "A#4",
          "ticks": 32910,
          "time": 74.79544831250001,
          "velocity": 0.6299212598425197
        },
        {
          "duration": 0.13409089791666418,
          "durationTicks": 59,
          "midi": 69,
          "name": "A4",
          "ticks": 32940,
          "time": 74.86363012500001,
          "velocity": 0.6299212598425197
        },
        {
          "duration": 0.2704545229166655,
          "durationTicks": 119,
          "midi": 67,
          "name": "G4",
          "ticks": 33000,
          "time": 74.99999375000002,
          "velocity": 0.6299212598425197
        },
        {
          "duration": 0.06590908541667773,
          "durationTicks": 29,
          "midi": 67,
          "name": "G4",
          "ticks": 33120,
          "time": 75.272721,
          "velocity": 0.6299212598425197
        },
        {
          "duration": 0.06590908541667773,
          "durationTicks": 29,
          "midi": 69,
          "name": "A4",
          "ticks": 33150,
          "time": 75.3409028125,
          "velocity": 0.6299212598425197
        },
        {
          "duration": 0.1340908979166784,
          "durationTicks": 59,
          "midi": 67,
          "name": "G4",
          "ticks": 33180,
          "time": 75.409084625,
          "velocity": 0.6299212598425197
        },
        {
          "duration": 0.2704545229166655,
          "durationTicks": 119,
          "midi": 65,
          "name": "F4",
          "ticks": 33240,
          "time": 75.54544825,
          "velocity": 0.6299212598425197
        },
        {
          "duration": 0.06590908541666352,
          "durationTicks": 29,
          "midi": 65,
          "name": "F4",
          "ticks": 33360,
          "time": 75.81817550000001,
          "velocity": 0.6299212598425197
        },
        {
          "duration": 0.06590908541666352,
          "durationTicks": 29,
          "midi": 67,
          "name": "G4",
          "ticks": 33390,
          "time": 75.88635731250001,
          "velocity": 0.6299212598425197
        },
        {
          "duration": 0.13409089791666418,
          "durationTicks": 59,
          "midi": 65,
          "name": "F4",
          "ticks": 33420,
          "time": 75.95453912500001,
          "velocity": 0.6299212598425197
        },
        {
          "duration": 0.25681816041665684,
          "durationTicks": 113,
          "midi": 64,
          "name": "E4",
          "ticks": 33480,
          "time": 76.09090275000001,
          "velocity": 0.6299212598425197
        },
        {
          "duration": 1.5522725979166552,
          "durationTicks": 683,
          "midi": 69,
          "name": "A4",
          "ticks": 33600,
          "time": 76.36363000000001,
          "velocity": 0.6299212598425197
        },
        {
          "duration": 0.515909047916665,
          "durationTicks": 227,
          "midi": 64,
          "name": "E4",
          "ticks": 34320,
          "time": 77.9999935,
          "velocity": 0.6299212598425197
        },
        {
          "duration": 0.515909047916665,
          "durationTicks": 227,
          "midi": 64,
          "name": "E4",
          "ticks": 34560,
          "time": 78.54544800000001,
          "velocity": 0.6299212598425197
        },
        {
          "duration": 0.515909047916665,
          "durationTicks": 227,
          "midi": 62,
          "name": "D4",
          "ticks": 34800,
          "time": 79.09090250000001,
          "velocity": 0.6299212598425197
        },
        {
          "duration": 0.1340908979166784,
          "durationTicks": 59,
          "midi": 62,
          "name": "D4",
          "ticks": 35040,
          "time": 79.636357,
          "velocity": 0.6692913385826772
        },
        {
          "duration": 0.1340908979166784,
          "durationTicks": 59,
          "midi": 64,
          "name": "E4",
          "ticks": 35100,
          "time": 79.772720625,
          "velocity": 0.6692913385826772
        },
        {
          "duration": 0.2704545229166655,
          "durationTicks": 119,
          "midi": 62,
          "name": "D4",
          "ticks": 35160,
          "time": 79.90908425,
          "velocity": 0.6692913385826772
        },
        {
          "duration": 0.5431817729166681,
          "durationTicks": 239,
          "midi": 61,
          "name": "C#4",
          "ticks": 35280,
          "time": 80.18181150000001,
          "velocity": 0.6692913385826772
        },
        {
          "duration": 1.0340908229166672,
          "durationTicks": 455,
          "midi": 62,
          "name": "D4",
          "ticks": 35520,
          "time": 80.72726600000001,
          "velocity": 0.6692913385826772
        },
        {
          "duration": 1.2704544395833466,
          "durationTicks": 559,
          "midi": 60,
          "name": "C4",
          "ticks": 36480,
          "time": 82.90908400000001,
          "velocity": 0.6299212598425197
        },
        {
          "duration": 0.17954543958333602,
          "durationTicks": 79,
          "midi": 64,
          "name": "E4",
          "ticks": 37040,
          "time": 84.18181116666668,
          "velocity": 0.6299212598425197
        },
        {
          "duration": 0.17954543958333602,
          "durationTicks": 79,
          "midi": 67,
          "name": "G4",
          "ticks": 37120,
          "time": 84.36362933333334,
          "velocity": 0.6299212598425197
        },
        {
          "duration": 0.17954543958333602,
          "durationTicks": 79,
          "midi": 70,
          "name": "A#4",
          "ticks": 37200,
          "time": 84.54544750000001,
          "velocity": 0.6299212598425197
        },
        {
          "duration": 0.1795454395833218,
          "durationTicks": 79,
          "midi": 72,
          "name": "C5",
          "ticks": 37280,
          "time": 84.72726566666668,
          "velocity": 0.6299212598425197
        },
        {
          "duration": 0.17954543958333602,
          "durationTicks": 79,
          "midi": 76,
          "name": "E5",
          "ticks": 37360,
          "time": 84.90908383333334,
          "velocity": 0.6299212598425197
        },
        {
          "duration": 0.38636360416666093,
          "durationTicks": 170,
          "midi": 79,
          "name": "G5",
          "ticks": 37440,
          "time": 85.09090200000001,
          "velocity": 0.6299212598425197
        },
        {
          "duration": 0.1340908979166784,
          "durationTicks": 59,
          "midi": 77,
          "name": "F5",
          "ticks": 37620,
          "time": 85.499992875,
          "velocity": 0.6299212598425197
        },
        {
          "duration": 0.38636360416667515,
          "durationTicks": 170,
          "midi": 76,
          "name": "E5",
          "ticks": 37680,
          "time": 85.6363565,
          "velocity": 0.6299212598425197
        },
        {
          "duration": 0.13409089791666418,
          "durationTicks": 59,
          "midi": 74,
          "name": "D5",
          "ticks": 37860,
          "time": 86.04544737500001,
          "velocity": 0.6299212598425197
        },
        {
          "duration": 0.5431817729166681,
          "durationTicks": 239,
          "midi": 72,
          "name": "C5",
          "ticks": 37920,
          "time": 86.18181100000001,
          "velocity": 0.6299212598425197
        },
        {
          "duration": 0.5159090479166508,
          "durationTicks": 227,
          "midi": 70,
          "name": "A#4",
          "ticks": 38160,
          "time": 86.72726550000002,
          "velocity": 0.6299212598425197
        },
        {
          "duration": 0.5431817729166681,
          "durationTicks": 239,
          "midi": 70,
          "name": "A#4",
          "ticks": 38400,
          "time": 87.27272,
          "velocity": 0.6299212598425197
        },
        {
          "duration": 0.515909047916665,
          "durationTicks": 227,
          "midi": 69,
          "name": "A4",
          "ticks": 38640,
          "time": 87.81817450000001,
          "velocity": 0.6299212598425197
        },
        {
          "duration": 0.26818179583332835,
          "durationTicks": 118,
          "midi": 69,
          "name": "A4",
          "ticks": 38880,
          "time": 88.36362900000002,
          "velocity": 0.6299212598425197
        },
        {
          "duration": 0.26818179583332835,
          "durationTicks": 118,
          "midi": 70,
          "name": "A#4",
          "ticks": 38999,
          "time": 88.63408352291668,
          "velocity": 0.6299212598425197
        },
        {
          "duration": 0.26818179583334256,
          "durationTicks": 118,
          "midi": 69,
          "name": "A4",
          "ticks": 39120,
          "time": 88.90908350000001,
          "velocity": 0.6299212598425197
        },
        {
          "duration": 0.2704545229166655,
          "durationTicks": 119,
          "midi": 68,
          "name": "G#4",
          "ticks": 39240,
          "time": 89.18181075000001,
          "velocity": 0.6299212598425197
        },
        {
          "duration": 2.0704543729166573,
          "durationTicks": 911,
          "midi": 69,
          "name": "A4",
          "ticks": 39360,
          "time": 89.45453800000001,
          "velocity": 0.6299212598425197
        },
        {
          "duration": 1.2704544395833466,
          "durationTicks": 559,
          "midi": 57,
          "name": "A3",
          "ticks": 40320,
          "time": 91.636356,
          "velocity": 0.6299212598425197
        },
        {
          "duration": 0.17954543958333602,
          "durationTicks": 79,
          "midi": 61,
          "name": "C#4",
          "ticks": 40880,
          "time": 92.90908316666668,
          "velocity": 0.6299212598425197
        },
        {
          "duration": 0.17954543958335023,
          "durationTicks": 79,
          "midi": 64,
          "name": "E4",
          "ticks": 40960,
          "time": 93.09090133333333,
          "velocity": 0.6299212598425197
        },
        {
          "duration": 0.17954543958335023,
          "durationTicks": 79,
          "midi": 67,
          "name": "G4",
          "ticks": 41040,
          "time": 93.27271950000001,
          "velocity": 0.6299212598425197
        },
        {
          "duration": 0.1795454395833218,
          "durationTicks": 79,
          "midi": 69,
          "name": "A4",
          "ticks": 41120,
          "time": 93.45453766666668,
          "velocity": 0.6299212598425197
        },
        {
          "duration": 0.17954543958333602,
          "durationTicks": 79,
          "midi": 73,
          "name": "C#5",
          "ticks": 41200,
          "time": 93.63635583333334,
          "velocity": 0.6299212598425197
        },
        {
          "duration": 0.515909047916665,
          "durationTicks": 227,
          "midi": 76,
          "name": "E5",
          "ticks": 41280,
          "time": 93.81817400000001,
          "velocity": 0.6299212598425197
        },
        {
          "duration": 0.5431817729166823,
          "durationTicks": 239,
          "midi": 73,
          "name": "C#5",
          "ticks": 41520,
          "time": 94.3636285,
          "velocity": 0.6299212598425197
        },
        {
          "duration": 0.5431817729166681,
          "durationTicks": 239,
          "midi": 81,
          "name": "A5",
          "ticks": 41760,
          "time": 94.90908300000001,
          "velocity": 0.6299212598425197
        },
        {
          "duration": 0.515909047916665,
          "durationTicks": 227,
          "midi": 69,
          "name": "A4",
          "ticks": 42000,
          "time": 95.45453750000001,
          "velocity": 0.6299212598425197
        },
        {
          "duration": 0.5431817729166681,
          "durationTicks": 239,
          "midi": 76,
          "name": "E5",
          "ticks": 42240,
          "time": 95.999992,
          "velocity": 0.6299212598425197
        },
        {
          "duration": 0.515909047916665,
          "durationTicks": 227,
          "midi": 74,
          "name": "D5",
          "ticks": 42480,
          "time": 96.54544650000001,
          "velocity": 0.6299212598425197
        },
        {
          "duration": 0.06590908541666352,
          "durationTicks": 29,
          "midi": 74,
          "name": "D5",
          "ticks": 42720,
          "time": 97.09090100000002,
          "velocity": 0.6299212598425197
        },
        {
          "duration": 0.06590908541666352,
          "durationTicks": 29,
          "midi": 76,
          "name": "E5",
          "ticks": 42750,
          "time": 97.15908281250002,
          "velocity": 0.6299212598425197
        },
        {
          "duration": 0.13409089791666418,
          "durationTicks": 59,
          "midi": 74,
          "name": "D5",
          "ticks": 42780,
          "time": 97.22726462500002,
          "velocity": 0.6299212598425197
        },
        {
          "duration": 0.2704545229166797,
          "durationTicks": 119,
          "midi": 73,
          "name": "C#5",
          "ticks": 42840,
          "time": 97.36362825,
          "velocity": 0.6299212598425197
        },
        {
          "duration": 0.2704545229166797,
          "durationTicks": 119,
          "midi": 74,
          "name": "D5",
          "ticks": 42960,
          "time": 97.63635550000001,
          "velocity": 0.6299212598425197
        },
        {
          "duration": 0.2704545229166655,
          "durationTicks": 119,
          "midi": 76,
          "name": "E5",
          "ticks": 43080,
          "time": 97.90908275000001,
          "velocity": 0.6299212598425197
        },
        {
          "duration": 1.0340908229166672,
          "durationTicks": 455,
          "midi": 77,
          "name": "F5",
          "ticks": 43200,
          "time": 98.18181000000001,
          "velocity": 0.6299212598425197
        },
        {
          "duration": 1.0340908229166814,
          "durationTicks": 455,
          "midi": 77,
          "name": "F5",
          "ticks": 43680,
          "time": 99.27271900000001,
          "velocity": 0.6299212598425197
        },
        {
          "duration": 1.0340908229166814,
          "durationTicks": 455,
          "midi": 77,
          "name": "F5",
          "ticks": 44160,
          "time": 100.363628,
          "velocity": 0.6299212598425197
        },
        {
          "duration": 1.2931817104166612,
          "durationTicks": 569,
          "midi": 70,
          "name": "A#4",
          "ticks": 44640,
          "time": 101.45453700000002,
          "velocity": 0.6299212598425197
        },
        {
          "duration": 0.10681817291666107,
          "durationTicks": 47,
          "midi": 76,
          "name": "E5",
          "ticks": 45240,
          "time": 102.81817325000002,
          "velocity": 0.6299212598425197
        },
        {
          "duration": 0.10681817291666107,
          "durationTicks": 47,
          "midi": 77,
          "name": "F5",
          "ticks": 45291,
          "time": 102.93408233125001,
          "velocity": 0.6299212598425197
        },
        {
          "duration": 0.10681817291666107,
          "durationTicks": 47,
          "midi": 76,
          "name": "E5",
          "ticks": 45342,
          "time": 103.04999141250002,
          "velocity": 0.6299212598425197
        },
        {
          "duration": 0.10681817291668949,
          "durationTicks": 47,
          "midi": 75,
          "name": "D#5",
          "ticks": 45393,
          "time": 103.16590049375,
          "velocity": 0.6299212598425197
        },
        {
          "duration": 0.10681817291666107,
          "durationTicks": 47,
          "midi": 76,
          "name": "E5",
          "ticks": 45444,
          "time": 103.28180957500001,
          "velocity": 0.6299212598425197
        },
        {
          "duration": 0.10681817291666107,
          "durationTicks": 47,
          "midi": 77,
          "name": "F5",
          "ticks": 45495,
          "time": 103.39771865625,
          "velocity": 0.6299212598425197
        },
        {
          "duration": 0.10681817291666107,
          "durationTicks": 47,
          "midi": 76,
          "name": "E5",
          "ticks": 45546,
          "time": 103.51362773750002,
          "velocity": 0.6299212598425197
        },
        {
          "duration": 0.34318178958334045,
          "durationTicks": 151,
          "midi": 79,
          "name": "G5",
          "ticks": 45600,
          "time": 103.63635500000001,
          "velocity": 0.6299212598425197
        },
        {
          "duration": 0.34318178958332624,
          "durationTicks": 151,
          "midi": 77,
          "name": "F5",
          "ticks": 45760,
          "time": 103.99999133333334,
          "velocity": 0.6299212598425197
        },
        {
          "duration": 0.34318178958332624,
          "durationTicks": 151,
          "midi": 76,
          "name": "E5",
          "ticks": 45920,
          "time": 104.36362766666669,
          "velocity": 0.6299212598425197
        },
        {
          "duration": 0.5431817729166681,
          "durationTicks": 239,
          "midi": 76,
          "name": "E5",
          "ticks": 46080,
          "time": 104.72726400000002,
          "velocity": 0.6299212598425197
        },
        {
          "duration": 0.515909047916665,
          "durationTicks": 227,
          "midi": 69,
          "name": "A4",
          "ticks": 46320,
          "time": 105.27271850000001,
          "velocity": 0.6299212598425197
        },
        {
          "duration": 1.5522725979166694,
          "durationTicks": 683,
          "midi": 69,
          "name": "A4",
          "ticks": 46560,
          "time": 105.81817300000002,
          "velocity": 0.6299212598425197
        },
        {
          "duration": 0.2704545229166655,
          "durationTicks": 119,
          "midi": 68,
          "name": "G#4",
          "ticks": 47280,
          "time": 107.45453650000002,
          "velocity": 0.6299212598425197
        },
        {
          "duration": 0.25681816041667105,
          "durationTicks": 113,
          "midi": 69,
          "name": "A4",
          "ticks": 47400,
          "time": 107.72726375,
          "velocity": 0.6299212598425197
        },
        {
          "duration": 0.25681816041667105,
          "durationTicks": 113,
          "midi": 70,
          "name": "A#4",
          "ticks": 47520,
          "time": 107.99999100000001,
          "velocity": 0.6299212598425197
        },
        {
          "duration": 0.25681816041667105,
          "durationTicks": 113,
          "midi": 69,
          "name": "A4",
          "ticks": 47640,
          "time": 108.27271825000001,
          "velocity": 0.6299212598425197
        },
        {
          "duration": 0.38636360416667515,
          "durationTicks": 170,
          "midi": 72,
          "name": "C5",
          "ticks": 47760,
          "time": 108.54544550000001,
          "velocity": 0.6299212598425197
        },
        {
          "duration": 0.12727271666665274,
          "durationTicks": 56,
          "midi": 70,
          "name": "A#4",
          "ticks": 47940,
          "time": 108.95453637500002,
          "velocity": 0.6299212598425197
        },
        {
          "duration": 0.2704545229166655,
          "durationTicks": 119,
          "midi": 69,
          "name": "A4",
          "ticks": 48000,
          "time": 109.09090000000002,
          "velocity": 0.6299212598425197
        },
        {
          "duration": 0.2704545229166797,
          "durationTicks": 119,
          "midi": 69,
          "name": "A4",
          "ticks": 48120,
          "time": 109.36362725000001,
          "velocity": 0.6299212598425197
        },
        {
          "duration": 0.06590908541667773,
          "durationTicks": 29,
          "midi": 69,
          "name": "A4",
          "ticks": 48240,
          "time": 109.63635450000001,
          "velocity": 0.6299212598425197
        },
        {
          "duration": 0.06590908541667773,
          "durationTicks": 29,
          "midi": 70,
          "name": "A#4",
          "ticks": 48270,
          "time": 109.70453631250001,
          "velocity": 0.6299212598425197
        },
        {
          "duration": 0.13409089791666418,
          "durationTicks": 59,
          "midi": 69,
          "name": "A4",
          "ticks": 48300,
          "time": 109.77271812500001,
          "velocity": 0.6299212598425197
        },
        {
          "duration": 0.2704545229166655,
          "durationTicks": 119,
          "midi": 67,
          "name": "G4",
          "ticks": 48360,
          "time": 109.90908175000001,
          "velocity": 0.6299212598425197
        },
        {
          "duration": 0.06590908541666352,
          "durationTicks": 29,
          "midi": 67,
          "name": "G4",
          "ticks": 48480,
          "time": 110.18180900000002,
          "velocity": 0.6299212598425197
        },
        {
          "duration": 0.06590908541666352,
          "durationTicks": 29,
          "midi": 69,
          "name": "A4",
          "ticks": 48510,
          "time": 110.24999081250002,
          "velocity": 0.6299212598425197
        },
        {
          "duration": 0.13409089791666418,
          "durationTicks": 59,
          "midi": 67,
          "name": "G4",
          "ticks": 48540,
          "time": 110.31817262500002,
          "velocity": 0.6299212598425197
        },
        {
          "duration": 0.2704545229166655,
          "durationTicks": 119,
          "midi": 65,
          "name": "F4",
          "ticks": 48600,
          "time": 110.45453625000002,
          "velocity": 0.6299212598425197
        },
        {
          "duration": 0.06590908541667773,
          "durationTicks": 29,
          "midi": 65,
          "name": "F4",
          "ticks": 48720,
          "time": 110.7272635,
          "velocity": 0.6299212598425197
        },
        {
          "duration": 0.06590908541667773,
          "durationTicks": 29,
          "midi": 67,
          "name": "G4",
          "ticks": 48750,
          "time": 110.79544531250001,
          "velocity": 0.6299212598425197
        },
        {
          "duration": 0.1340908979166784,
          "durationTicks": 59,
          "midi": 65,
          "name": "F4",
          "ticks": 48780,
          "time": 110.86362712500001,
          "velocity": 0.6299212598425197
        },
        {
          "duration": 0.25681816041667105,
          "durationTicks": 113,
          "midi": 64,
          "name": "E4",
          "ticks": 48840,
          "time": 110.99999075000001,
          "velocity": 0.6299212598425197
        },
        {
          "duration": 1.5522725979166694,
          "durationTicks": 683,
          "midi": 69,
          "name": "A4",
          "ticks": 48960,
          "time": 111.27271800000001,
          "velocity": 0.6299212598425197
        },
        {
          "duration": 0.515909047916665,
          "durationTicks": 227,
          "midi": 64,
          "name": "E4",
          "ticks": 49680,
          "time": 112.90908150000001,
          "velocity": 0.6299212598425197
        },
        {
          "duration": 0.5159090479166508,
          "durationTicks": 227,
          "midi": 64,
          "name": "E4",
          "ticks": 49920,
          "time": 113.45453600000002,
          "velocity": 0.6299212598425197
        },
        {
          "duration": 0.515909047916665,
          "durationTicks": 227,
          "midi": 62,
          "name": "D4",
          "ticks": 50160,
          "time": 113.99999050000001,
          "velocity": 0.6299212598425197
        },
        {
          "duration": 0.13409089791666418,
          "durationTicks": 59,
          "midi": 62,
          "name": "D4",
          "ticks": 50400,
          "time": 114.54544500000002,
          "velocity": 0.6692913385826772
        },
        {
          "duration": 0.13409089791666418,
          "durationTicks": 59,
          "midi": 64,
          "name": "E4",
          "ticks": 50460,
          "time": 114.68180862500002,
          "velocity": 0.6692913385826772
        },
        {
          "duration": 0.2704545229166655,
          "durationTicks": 119,
          "midi": 62,
          "name": "D4",
          "ticks": 50520,
          "time": 114.81817225000002,
          "velocity": 0.6692913385826772
        },
        {
          "duration": 0.5431817729166681,
          "durationTicks": 239,
          "midi": 61,
          "name": "C#4",
          "ticks": 50640,
          "time": 115.09089950000002,
          "velocity": 0.6692913385826772
        },
        {
          "duration": 1.0340908229166672,
          "durationTicks": 455,
          "midi": 62,
          "name": "D4",
          "ticks": 50880,
          "time": 115.63635400000001,
          "velocity": 0.6692913385826772
        },
        {
          "duration": 0.10625014166666347,
          "durationTicks": 119,
          "midi": 74,
          "name": "D5",
          "ticks": 51840,
          "time": 117.81817200000002,
          "velocity": 0.4881889763779528
        },
        {
          "duration": 0.10625014166666347,
          "durationTicks": 119,
          "midi": 86,
          "name": "D6",
          "ticks": 52080,
          "time": 118.03245800000002,
          "velocity": 0.4881889763779528
        },
        {
          "duration": 0.10625014166666347,
          "durationTicks": 119,
          "midi": 82,
          "name": "A#5",
          "ticks": 52560,
          "time": 118.46103000000002,
          "velocity": 0.4881889763779528
        },
        {
          "duration": 0.10625014166666347,
          "durationTicks": 119,
          "midi": 81,
          "name": "A5",
          "ticks": 53040,
          "time": 118.88960200000002,
          "velocity": 0.4881889763779528
        },
        {
          "duration": 0.10625014166667768,
          "durationTicks": 119,
          "midi": 77,
          "name": "F5",
          "ticks": 53520,
          "time": 119.31817400000001,
          "velocity": 0.4881889763779528
        },
        {
          "duration": 0.2026788416666676,
          "durationTicks": 227,
          "midi": 76,
          "name": "E5",
          "ticks": 53760,
          "time": 119.53246000000001,
          "velocity": 0.4881889763779528
        },
        {
          "duration": 0.42767914166667254,
          "durationTicks": 479,
          "midi": 74,
          "name": "D5",
          "ticks": 54000,
          "time": 119.74674600000002,
          "velocity": 0.5826771653543307
        },
        {
          "duration": 0.2026788416666676,
          "durationTicks": 227,
          "midi": 73,
          "name": "C#5",
          "ticks": 54480,
          "time": 120.17531800000002,
          "velocity": 0.4881889763779528
        },
        {
          "duration": 0.609822241666663,
          "durationTicks": 683,
          "midi": 74,
          "name": "D5",
          "ticks": 54720,
          "time": 120.38960400000002,
          "velocity": 0.4881889763779528
        },
        {
          "duration": 0.05267864166665959,
          "durationTicks": 59,
          "midi": 74,
          "name": "D5",
          "ticks": 55680,
          "time": 121.24674800000003,
          "velocity": 0.4881889763779528
        },
        {
          "duration": 0.0526786416666738,
          "durationTicks": 59,
          "midi": 76,
          "name": "E5",
          "ticks": 55800,
          "time": 121.35389100000002,
          "velocity": 0.49606299212598426
        },
        {
          "duration": 0.0526786416666738,
          "durationTicks": 59,
          "midi": 77,
          "name": "F5",
          "ticks": 55920,
          "time": 121.46103400000001,
          "velocity": 0.5118110236220472
        },
        {
          "duration": 0.05267864166665959,
          "durationTicks": 59,
          "midi": 76,
          "name": "E5",
          "ticks": 56040,
          "time": 121.56817700000002,
          "velocity": 0.5196850393700787
        },
        {
          "duration": 0.0526786416666738,
          "durationTicks": 59,
          "midi": 74,
          "name": "D5",
          "ticks": 56160,
          "time": 121.67532000000001,
          "velocity": 0.5354330708661418
        },
        {
          "duration": 0.05267864166665959,
          "durationTicks": 59,
          "midi": 76,
          "name": "E5",
          "ticks": 56280,
          "time": 121.78246300000002,
          "velocity": 0.5433070866141733
        },
        {
          "duration": 0.0526786416666738,
          "durationTicks": 59,
          "midi": 77,
          "name": "F5",
          "ticks": 56400,
          "time": 121.88960600000001,
          "velocity": 0.5590551181102362
        },
        {
          "duration": 0.05267864166665959,
          "durationTicks": 59,
          "midi": 76,
          "name": "E5",
          "ticks": 56520,
          "time": 121.99674900000002,
          "velocity": 0.5669291338582677
        },
        {
          "duration": 0.0526786416666738,
          "durationTicks": 59,
          "midi": 74,
          "name": "D5",
          "ticks": 56640,
          "time": 122.10389200000002,
          "velocity": 0.5826771653543307
        },
        {
          "duration": 0.05267864166665959,
          "durationTicks": 59,
          "midi": 76,
          "name": "E5",
          "ticks": 56760,
          "time": 122.21103500000002,
          "velocity": 0.5905511811023622
        },
        {
          "duration": 0.0526786416666738,
          "durationTicks": 59,
          "midi": 77,
          "name": "F5",
          "ticks": 56880,
          "time": 122.31817800000002,
          "velocity": 0.6062992125984252
        },
        {
          "duration": 0.05267864166665959,
          "durationTicks": 59,
          "midi": 76,
          "name": "E5",
          "ticks": 57000,
          "time": 122.42532100000003,
          "velocity": 0.6141732283464567
        },
        {
          "duration": 0.0526786416666738,
          "durationTicks": 59,
          "midi": 74,
          "name": "D5",
          "ticks": 57120,
          "time": 122.53246400000002,
          "velocity": 0.6299212598425197
        },
        {
          "duration": 0.0526786416666738,
          "durationTicks": 59,
          "midi": 76,
          "name": "E5",
          "ticks": 57240,
          "time": 122.63960700000001,
          "velocity": 0.6377952755905512
        },
        {
          "duration": 0.05267864166665959,
          "durationTicks": 59,
          "midi": 77,
          "name": "F5",
          "ticks": 57360,
          "time": 122.74675000000002,
          "velocity": 0.6535433070866141
        },
        {
          "duration": 0.0526786416666738,
          "durationTicks": 59,
          "midi": 76,
          "name": "E5",
          "ticks": 57480,
          "time": 122.85389300000001,
          "velocity": 0.6692913385826772
        },
        {
          "duration": 0.2026788416666676,
          "durationTicks": 227,
          "midi": 77,
          "name": "F5",
          "ticks": 57600,
          "time": 122.96103600000002,
          "velocity": 0.6692913385826772
        },
        {
          "duration": 0.4062505416666653,
          "durationTicks": 455,
          "midi": 76,
          "name": "E5",
          "ticks": 57840,
          "time": 123.17532200000002,
          "velocity": 0.6692913385826772
        },
        {
          "duration": 0.2026788416666534,
          "durationTicks": 227,
          "midi": 75,
          "name": "D#5",
          "ticks": 58320,
          "time": 123.60389400000003,
          "velocity": 0.6692913385826772
        },
        {
          "duration": 0.6098222416666772,
          "durationTicks": 683,
          "midi": 76,
          "name": "E5",
          "ticks": 58560,
          "time": 123.81818000000001,
          "velocity": 0.6692913385826772
        },
        {
          "duration": 0.05267864166665959,
          "durationTicks": 59,
          "midi": 79,
          "name": "G5",
          "ticks": 59520,
          "time": 124.67532400000002,
          "velocity": 0.49606299212598426
        },
        {
          "duration": 0.05267864166665959,
          "durationTicks": 59,
          "midi": 81,
          "name": "A5",
          "ticks": 59640,
          "time": 124.78246700000003,
          "velocity": 0.49606299212598426
        },
        {
          "duration": 0.05267864166665959,
          "durationTicks": 59,
          "midi": 82,
          "name": "A#5",
          "ticks": 59760,
          "time": 124.88961000000002,
          "velocity": 0.49606299212598426
        },
        {
          "duration": 0.0526786416666738,
          "durationTicks": 59,
          "midi": 81,
          "name": "A5",
          "ticks": 59880,
          "time": 124.99675300000001,
          "velocity": 0.49606299212598426
        },
        {
          "duration": 0.05267864166665959,
          "durationTicks": 59,
          "midi": 79,
          "name": "G5",
          "ticks": 60000,
          "time": 125.10389600000002,
          "velocity": 0.49606299212598426
        },
        {
          "duration": 0.0526786416666738,
          "durationTicks": 59,
          "midi": 81,
          "name": "A5",
          "ticks": 60120,
          "time": 125.21103900000001,
          "velocity": 0.49606299212598426
        },
        {
          "duration": 0.05267864166665959,
          "durationTicks": 59,
          "midi": 82,
          "name": "A#5",
          "ticks": 60240,
          "time": 125.31818200000002,
          "velocity": 0.49606299212598426
        },
        {
          "duration": 0.0526786416666738,
          "durationTicks": 59,
          "midi": 81,
          "name": "A5",
          "ticks": 60360,
          "time": 125.42532500000002,
          "velocity": 0.49606299212598426
        },
        {
          "duration": 0.05267864166665959,
          "durationTicks": 59,
          "midi": 79,
          "name": "G5",
          "ticks": 60480,
          "time": 125.53246800000002,
          "velocity": 0.49606299212598426
        },
        {
          "duration": 0.0526786416666738,
          "durationTicks": 59,
          "midi": 81,
          "name": "A5",
          "ticks": 60600,
          "time": 125.63961100000002,
          "velocity": 0.49606299212598426
        },
        {
          "duration": 0.05267864166665959,
          "durationTicks": 59,
          "midi": 82,
          "name": "A#5",
          "ticks": 60720,
          "time": 125.74675400000002,
          "velocity": 0.49606299212598426
        },
        {
          "duration": 0.05267864166665959,
          "durationTicks": 59,
          "midi": 81,
          "name": "A5",
          "ticks": 60840,
          "time": 125.85389700000002,
          "velocity": 0.49606299212598426
        },
        {
          "duration": 0.05267864166665959,
          "durationTicks": 59,
          "midi": 79,
          "name": "G5",
          "ticks": 60960,
          "time": 125.96104000000003,
          "velocity": 0.49606299212598426
        },
        {
          "duration": 0.05267864166665959,
          "durationTicks": 59,
          "midi": 82,
          "name": "A#5",
          "ticks": 61080,
          "time": 126.06818300000002,
          "velocity": 0.49606299212598426
        },
        {
          "duration": 0.0526786416666738,
          "durationTicks": 59,
          "midi": 81,
          "name": "A5",
          "ticks": 61200,
          "time": 126.17532600000001,
          "velocity": 0.49606299212598426
        },
        {
          "duration": 0.05267864166665959,
          "durationTicks": 59,
          "midi": 79,
          "name": "G5",
          "ticks": 61320,
          "time": 126.28246900000002,
          "velocity": 0.49606299212598426
        },
        {
          "duration": 0.0526786416666738,
          "durationTicks": 59,
          "midi": 77,
          "name": "F5",
          "ticks": 61440,
          "time": 126.38961200000001,
          "velocity": 0.49606299212598426
        },
        {
          "duration": 0.05267864166665959,
          "durationTicks": 59,
          "midi": 79,
          "name": "G5",
          "ticks": 61560,
          "time": 126.49675500000002,
          "velocity": 0.5039370078740157
        },
        {
          "duration": 0.0526786416666738,
          "durationTicks": 59,
          "midi": 81,
          "name": "A5",
          "ticks": 61680,
          "time": 126.60389800000002,
          "velocity": 0.5118110236220472
        },
        {
          "duration": 0.05267864166665959,
          "durationTicks": 59,
          "midi": 79,
          "name": "G5",
          "ticks": 61800,
          "time": 126.71104100000002,
          "velocity": 0.5196850393700787
        },
        {
          "duration": 0.0526786416666738,
          "durationTicks": 59,
          "midi": 77,
          "name": "F5",
          "ticks": 61920,
          "time": 126.81818400000002,
          "velocity": 0.5275590551181102
        },
        {
          "duration": 0.05267864166665959,
          "durationTicks": 59,
          "midi": 79,
          "name": "G5",
          "ticks": 62040,
          "time": 126.92532700000002,
          "velocity": 0.5354330708661418
        },
        {
          "duration": 0.05267864166665959,
          "durationTicks": 59,
          "midi": 81,
          "name": "A5",
          "ticks": 62160,
          "time": 127.03247000000002,
          "velocity": 0.5433070866141733
        },
        {
          "duration": 0.05267864166665959,
          "durationTicks": 59,
          "midi": 79,
          "name": "G5",
          "ticks": 62280,
          "time": 127.13961300000003,
          "velocity": 0.5511811023622047
        },
        {
          "duration": 0.05267864166665959,
          "durationTicks": 59,
          "midi": 77,
          "name": "F5",
          "ticks": 62400,
          "time": 127.24675600000002,
          "velocity": 0.5669291338582677
        },
        {
          "duration": 0.0526786416666738,
          "durationTicks": 59,
          "midi": 79,
          "name": "G5",
          "ticks": 62520,
          "time": 127.35389900000001,
          "velocity": 0.5748031496062992
        },
        {
          "duration": 0.05267864166665959,
          "durationTicks": 59,
          "midi": 81,
          "name": "A5",
          "ticks": 62640,
          "time": 127.46104200000002,
          "velocity": 0.5826771653543307
        },
        {
          "duration": 0.0526786416666738,
          "durationTicks": 59,
          "midi": 79,
          "name": "G5",
          "ticks": 62760,
          "time": 127.56818500000001,
          "velocity": 0.5905511811023622
        },
        {
          "duration": 0.05267864166665959,
          "durationTicks": 59,
          "midi": 77,
          "name": "F5",
          "ticks": 62880,
          "time": 127.67532800000002,
          "velocity": 0.5984251968503937
        },
        {
          "duration": 0.0526786416666738,
          "durationTicks": 59,
          "midi": 81,
          "name": "A5",
          "ticks": 63000,
          "time": 127.78247100000002,
          "velocity": 0.6062992125984252
        },
        {
          "duration": 0.05267864166665959,
          "durationTicks": 59,
          "midi": 79,
          "name": "G5",
          "ticks": 63120,
          "time": 127.88961400000002,
          "velocity": 0.6141732283464567
        },
        {
          "duration": 0.0526786416666738,
          "durationTicks": 59,
          "midi": 77,
          "name": "F5",
          "ticks": 63240,
          "time": 127.99675700000002,
          "velocity": 0.6299212598425197
        },
        {
          "duration": 0.05267864166665959,
          "durationTicks": 59,
          "midi": 69,
          "name": "A4",
          "ticks": 63360,
          "time": 128.1039,
          "velocity": 0.6299212598425197
        },
        {
          "duration": 0.05267864166665959,
          "durationTicks": 59,
          "midi": 71,
          "name": "B4",
          "ticks": 63480,
          "time": 128.21104300000002,
          "velocity": 0.6299212598425197
        },
        {
          "duration": 0.05267864166665959,
          "durationTicks": 59,
          "midi": 73,
          "name": "C#5",
          "ticks": 63600,
          "time": 128.31818600000003,
          "velocity": 0.6299212598425197
        },
        {
          "duration": 0.05267864166665959,
          "durationTicks": 59,
          "midi": 74,
          "name": "D5",
          "ticks": 63720,
          "time": 128.42532900000003,
          "velocity": 0.6299212598425197
        },
        {
          "duration": 0.05267864166665959,
          "durationTicks": 59,
          "midi": 76,
          "name": "E5",
          "ticks": 63840,
          "time": 128.532472,
          "velocity": 0.6299212598425197
        },
        {
          "duration": 0.05267864166665959,
          "durationTicks": 59,
          "midi": 77,
          "name": "F5",
          "ticks": 63960,
          "time": 128.63961500000002,
          "velocity": 0.6299212598425197
        },
        {
          "duration": 0.05267864166665959,
          "durationTicks": 59,
          "midi": 79,
          "name": "G5",
          "ticks": 64080,
          "time": 128.74675800000003,
          "velocity": 0.6299212598425197
        },
        {
          "duration": 0.05267864166668801,
          "durationTicks": 59,
          "midi": 81,
          "name": "A5",
          "ticks": 64200,
          "time": 128.853901,
          "velocity": 0.6299212598425197
        },
        {
          "duration": 0.05267864166665959,
          "durationTicks": 59,
          "midi": 82,
          "name": "A#5",
          "ticks": 64320,
          "time": 128.96104400000002,
          "velocity": 0.6299212598425197
        },
        {
          "duration": 0.05267864166665959,
          "durationTicks": 59,
          "midi": 81,
          "name": "A5",
          "ticks": 64440,
          "time": 129.06818700000002,
          "velocity": 0.6299212598425197
        },
        {
          "duration": 0.05267864166665959,
          "durationTicks": 59,
          "midi": 79,
          "name": "G5",
          "ticks": 64560,
          "time": 129.17533000000003,
          "velocity": 0.6299212598425197
        },
        {
          "duration": 0.05267864166668801,
          "durationTicks": 59,
          "midi": 77,
          "name": "F5",
          "ticks": 64680,
          "time": 129.282473,
          "velocity": 0.6299212598425197
        },
        {
          "duration": 0.05267864166665959,
          "durationTicks": 59,
          "midi": 76,
          "name": "E5",
          "ticks": 64800,
          "time": 129.38961600000002,
          "velocity": 0.6299212598425197
        },
        {
          "duration": 0.05267864166665959,
          "durationTicks": 59,
          "midi": 74,
          "name": "D5",
          "ticks": 64920,
          "time": 129.49675900000003,
          "velocity": 0.6299212598425197
        },
        {
          "duration": 0.05267864166668801,
          "durationTicks": 59,
          "midi": 73,
          "name": "C#5",
          "ticks": 65040,
          "time": 129.603902,
          "velocity": 0.6299212598425197
        },
        {
          "duration": 0.05267864166665959,
          "durationTicks": 59,
          "midi": 76,
          "name": "E5",
          "ticks": 65160,
          "time": 129.711045,
          "velocity": 0.6299212598425197
        },
        {
          "duration": 0.10625014166666347,
          "durationTicks": 119,
          "midi": 76,
          "name": "E5",
          "ticks": 65280,
          "time": 129.81818800000002,
          "velocity": 0.6299212598425197
        },
        {
          "duration": 0.42767914166668675,
          "durationTicks": 479,
          "midi": 74,
          "name": "D5",
          "ticks": 65520,
          "time": 130.032474,
          "velocity": 0.7559055118110236
        },
        {
          "duration": 0.10625014166666347,
          "durationTicks": 119,
          "midi": 73,
          "name": "C#5",
          "ticks": 66000,
          "time": 130.461046,
          "velocity": 0.6299212598425197
        },
        {
          "duration": 0.4062505416666511,
          "durationTicks": 455,
          "midi": 74,
          "name": "D5",
          "ticks": 66240,
          "time": 130.67533200000003,
          "velocity": 0.6299212598425197
        },
        {
          "duration": 0.10625014166666347,
          "durationTicks": 119,
          "midi": 74,
          "name": "D5",
          "ticks": 67200,
          "time": 131.53247600000003,
          "velocity": 0.4881889763779528
        },
        {
          "duration": 0.10625014166669189,
          "durationTicks": 119,
          "midi": 86,
          "name": "D6",
          "ticks": 67440,
          "time": 131.74676200000002,
          "velocity": 0.4881889763779528
        },
        {
          "duration": 0.10625014166666347,
          "durationTicks": 119,
          "midi": 82,
          "name": "A#5",
          "ticks": 67920,
          "time": 132.17533400000002,
          "velocity": 0.4881889763779528
        },
        {
          "duration": 0.10625014166666347,
          "durationTicks": 119,
          "midi": 81,
          "name": "A5",
          "ticks": 68400,
          "time": 132.60390600000002,
          "velocity": 0.4881889763779528
        },
        {
          "duration": 0.10625014166666347,
          "durationTicks": 119,
          "midi": 77,
          "name": "F5",
          "ticks": 68880,
          "time": 133.03247800000003,
          "velocity": 0.4881889763779528
        },
        {
          "duration": 0.2026788416666534,
          "durationTicks": 227,
          "midi": 76,
          "name": "E5",
          "ticks": 69120,
          "time": 133.24676400000004,
          "velocity": 0.4881889763779528
        },
        {
          "duration": 0.4276791416666583,
          "durationTicks": 479,
          "midi": 74,
          "name": "D5",
          "ticks": 69360,
          "time": 133.46105000000003,
          "velocity": 0.5826771653543307
        },
        {
          "duration": 0.2026788416666534,
          "durationTicks": 227,
          "midi": 73,
          "name": "C#5",
          "ticks": 69840,
          "time": 133.88962200000003,
          "velocity": 0.4881889763779528
        },
        {
          "duration": 0.6098222416666772,
          "durationTicks": 683,
          "midi": 74,
          "name": "D5",
          "ticks": 70080,
          "time": 134.10390800000002,
          "velocity": 0.4881889763779528
        },
        {
          "duration": 0.05267864166668801,
          "durationTicks": 59,
          "midi": 74,
          "name": "D5",
          "ticks": 71040,
          "time": 134.96105200000002,
          "velocity": 0.4881889763779528
        },
        {
          "duration": 0.05267864166665959,
          "durationTicks": 59,
          "midi": 76,
          "name": "E5",
          "ticks": 71160,
          "time": 135.06819500000003,
          "velocity": 0.49606299212598426
        },
        {
          "duration": 0.05267864166665959,
          "durationTicks": 59,
          "midi": 77,
          "name": "F5",
          "ticks": 71280,
          "time": 135.17533800000004,
          "velocity": 0.5118110236220472
        },
        {
          "duration": 0.05267864166668801,
          "durationTicks": 59,
          "midi": 76,
          "name": "E5",
          "ticks": 71400,
          "time": 135.28248100000002,
          "velocity": 0.5196850393700787
        },
        {
          "duration": 0.05267864166665959,
          "durationTicks": 59,
          "midi": 74,
          "name": "D5",
          "ticks": 71520,
          "time": 135.38962400000003,
          "velocity": 0.5354330708661418
        },
        {
          "duration": 0.05267864166665959,
          "durationTicks": 59,
          "midi": 76,
          "name": "E5",
          "ticks": 71640,
          "time": 135.49676700000003,
          "velocity": 0.5433070866141733
        },
        {
          "duration": 0.05267864166665959,
          "durationTicks": 59,
          "midi": 77,
          "name": "F5",
          "ticks": 71760,
          "time": 135.60391000000004,
          "velocity": 0.5590551181102362
        },
        {
          "duration": 0.05267864166668801,
          "durationTicks": 59,
          "midi": 76,
          "name": "E5",
          "ticks": 71880,
          "time": 135.71105300000002,
          "velocity": 0.5669291338582677
        },
        {
          "duration": 0.05267864166665959,
          "durationTicks": 59,
          "midi": 74,
          "name": "D5",
          "ticks": 72000,
          "time": 135.81819600000003,
          "velocity": 0.5826771653543307
        },
        {
          "duration": 0.05267864166665959,
          "durationTicks": 59,
          "midi": 76,
          "name": "E5",
          "ticks": 72120,
          "time": 135.92533900000004,
          "velocity": 0.5905511811023622
        },
        {
          "duration": 0.05267864166665959,
          "durationTicks": 59,
          "midi": 77,
          "name": "F5",
          "ticks": 72240,
          "time": 136.03248200000004,
          "velocity": 0.6062992125984252
        },
        {
          "duration": 0.05267864166665959,
          "durationTicks": 59,
          "midi": 76,
          "name": "E5",
          "ticks": 72360,
          "time": 136.13962500000002,
          "velocity": 0.6141732283464567
        },
        {
          "duration": 0.05267864166665959,
          "durationTicks": 59,
          "midi": 74,
          "name": "D5",
          "ticks": 72480,
          "time": 136.24676800000003,
          "velocity": 0.6299212598425197
        },
        {
          "duration": 0.05267864166665959,
          "durationTicks": 59,
          "midi": 76,
          "name": "E5",
          "ticks": 72600,
          "time": 136.35391100000004,
          "velocity": 0.6377952755905512
        },
        {
          "duration": 0.05267864166668801,
          "durationTicks": 59,
          "midi": 77,
          "name": "F5",
          "ticks": 72720,
          "time": 136.46105400000002,
          "velocity": 0.6535433070866141
        },
        {
          "duration": 0.05267864166665959,
          "durationTicks": 59,
          "midi": 76,
          "name": "E5",
          "ticks": 72840,
          "time": 136.56819700000003,
          "velocity": 0.6692913385826772
        },
        {
          "duration": 0.2026788416666534,
          "durationTicks": 227,
          "midi": 77,
          "name": "F5",
          "ticks": 72960,
          "time": 136.67534000000003,
          "velocity": 0.6692913385826772
        },
        {
          "duration": 0.4062505416666795,
          "durationTicks": 455,
          "midi": 76,
          "name": "E5",
          "ticks": 73200,
          "time": 136.88962600000002,
          "velocity": 0.6692913385826772
        },
        {
          "duration": 0.20267884166668182,
          "durationTicks": 227,
          "midi": 75,
          "name": "D#5",
          "ticks": 73680,
          "time": 137.31819800000002,
          "velocity": 0.6692913385826772
        },
        {
          "duration": 0.6098222416666488,
          "durationTicks": 683,
          "midi": 76,
          "name": "E5",
          "ticks": 73920,
          "time": 137.53248400000004,
          "velocity": 0.6692913385826772
        },
        {
          "duration": 0.05267864166665959,
          "durationTicks": 59,
          "midi": 79,
          "name": "G5",
          "ticks": 74880,
          "time": 138.38962800000004,
          "velocity": 0.49606299212598426
        },
        {
          "duration": 0.05267864166665959,
          "durationTicks": 59,
          "midi": 81,
          "name": "A5",
          "ticks": 75000,
          "time": 138.49677100000002,
          "velocity": 0.49606299212598426
        },
        {
          "duration": 0.05267864166665959,
          "durationTicks": 59,
          "midi": 82,
          "name": "A#5",
          "ticks": 75120,
          "time": 138.60391400000003,
          "velocity": 0.49606299212598426
        },
        {
          "duration": 0.05267864166665959,
          "durationTicks": 59,
          "midi": 81,
          "name": "A5",
          "ticks": 75240,
          "time": 138.71105700000004,
          "velocity": 0.49606299212598426
        },
        {
          "duration": 0.05267864166668801,
          "durationTicks": 59,
          "midi": 79,
          "name": "G5",
          "ticks": 75360,
          "time": 138.81820000000002,
          "velocity": 0.49606299212598426
        },
        {
          "duration": 0.05267864166665959,
          "durationTicks": 59,
          "midi": 81,
          "name": "A5",
          "ticks": 75480,
          "time": 138.92534300000003,
          "velocity": 0.49606299212598426
        },
        {
          "duration": 0.05267864166665959,
          "durationTicks": 59,
          "midi": 82,
          "name": "A#5",
          "ticks": 75600,
          "time": 139.03248600000003,
          "velocity": 0.49606299212598426
        },
        {
          "duration": 0.05267864166665959,
          "durationTicks": 59,
          "midi": 81,
          "name": "A5",
          "ticks": 75720,
          "time": 139.13962900000004,
          "velocity": 0.49606299212598426
        },
        {
          "duration": 0.05267864166668801,
          "durationTicks": 59,
          "midi": 79,
          "name": "G5",
          "ticks": 75840,
          "time": 139.24677200000002,
          "velocity": 0.49606299212598426
        },
        {
          "duration": 0.05267864166665959,
          "durationTicks": 59,
          "midi": 81,
          "name": "A5",
          "ticks": 75960,
          "time": 139.35391500000003,
          "velocity": 0.49606299212598426
        },
        {
          "duration": 0.05267864166665959,
          "durationTicks": 59,
          "midi": 82,
          "name": "A#5",
          "ticks": 76080,
          "time": 139.46105800000004,
          "velocity": 0.49606299212598426
        },
        {
          "duration": 0.05267864166665959,
          "durationTicks": 59,
          "midi": 81,
          "name": "A5",
          "ticks": 76200,
          "time": 139.56820100000004,
          "velocity": 0.49606299212598426
        },
        {
          "duration": 0.05267864166668801,
          "durationTicks": 59,
          "midi": 79,
          "name": "G5",
          "ticks": 76320,
          "time": 139.67534400000002,
          "velocity": 0.49606299212598426
        },
        {
          "duration": 0.05267864166665959,
          "durationTicks": 59,
          "midi": 82,
          "name": "A#5",
          "ticks": 76440,
          "time": 139.78248700000003,
          "velocity": 0.49606299212598426
        },
        {
          "duration": 0.05267864166665959,
          "durationTicks": 59,
          "midi": 81,
          "name": "A5",
          "ticks": 76560,
          "time": 139.88963000000004,
          "velocity": 0.49606299212598426
        },
        {
          "duration": 0.05267864166668801,
          "durationTicks": 59,
          "midi": 79,
          "name": "G5",
          "ticks": 76680,
          "time": 139.99677300000002,
          "velocity": 0.49606299212598426
        },
        {
          "duration": 0.05267864166665959,
          "durationTicks": 59,
          "midi": 77,
          "name": "F5",
          "ticks": 76800,
          "time": 140.10391600000003,
          "velocity": 0.49606299212598426
        },
        {
          "duration": 0.05267864166665959,
          "durationTicks": 59,
          "midi": 79,
          "name": "G5",
          "ticks": 76920,
          "time": 140.21105900000003,
          "velocity": 0.5039370078740157
        },
        {
          "duration": 0.05267864166665959,
          "durationTicks": 59,
          "midi": 81,
          "name": "A5",
          "ticks": 77040,
          "time": 140.31820200000004,
          "velocity": 0.5118110236220472
        },
        {
          "duration": 0.05267864166668801,
          "durationTicks": 59,
          "midi": 79,
          "name": "G5",
          "ticks": 77160,
          "time": 140.42534500000002,
          "velocity": 0.5196850393700787
        },
        {
          "duration": 0.05267864166665959,
          "durationTicks": 59,
          "midi": 77,
          "name": "F5",
          "ticks": 77280,
          "time": 140.53248800000003,
          "velocity": 0.5275590551181102
        },
        {
          "duration": 0.05267864166665959,
          "durationTicks": 59,
          "midi": 79,
          "name": "G5",
          "ticks": 77400,
          "time": 140.63963100000004,
          "velocity": 0.5354330708661418
        },
        {
          "duration": 0.05267864166668801,
          "durationTicks": 59,
          "midi": 81,
          "name": "A5",
          "ticks": 77520,
          "time": 140.74677400000002,
          "velocity": 0.5433070866141733
        },
        {
          "duration": 0.05267864166665959,
          "durationTicks": 59,
          "midi": 79,
          "name": "G5",
          "ticks": 77640,
          "time": 140.85391700000002,
          "velocity": 0.5511811023622047
        },
        {
          "duration": 0.05267864166665959,
          "durationTicks": 59,
          "midi": 77,
          "name": "F5",
          "ticks": 77760,
          "time": 140.96106000000003,
          "velocity": 0.5669291338582677
        },
        {
          "duration": 0.05267864166665959,
          "durationTicks": 59,
          "midi": 79,
          "name": "G5",
          "ticks": 77880,
          "time": 141.06820300000004,
          "velocity": 0.5748031496062992
        },
        {
          "duration": 0.05267864166668801,
          "durationTicks": 59,
          "midi": 81,
          "name": "A5",
          "ticks": 78000,
          "time": 141.17534600000002,
          "velocity": 0.5826771653543307
        },
        {
          "duration": 0.05267864166665959,
          "durationTicks": 59,
          "midi": 79,
          "name": "G5",
          "ticks": 78120,
          "time": 141.28248900000003,
          "velocity": 0.5905511811023622
        },
        {
          "duration": 0.05267864166665959,
          "durationTicks": 59,
          "midi": 77,
          "name": "F5",
          "ticks": 78240,
          "time": 141.38963200000003,
          "velocity": 0.5984251968503937
        },
        {
          "duration": 0.05267864166665959,
          "durationTicks": 59,
          "midi": 81,
          "name": "A5",
          "ticks": 78360,
          "time": 141.49677500000004,
          "velocity": 0.6062992125984252
        },
        {
          "duration": 0.05267864166668801,
          "durationTicks": 59,
          "midi": 79,
          "name": "G5",
          "ticks": 78480,
          "time": 141.60391800000002,
          "velocity": 0.6141732283464567
        },
        {
          "duration": 0.05267864166665959,
          "durationTicks": 59,
          "midi": 77,
          "name": "F5",
          "ticks": 78600,
          "time": 141.71106100000003,
          "velocity": 0.6299212598425197
        },
        {
          "duration": 0.05267864166665959,
          "durationTicks": 59,
          "midi": 69,
          "name": "A4",
          "ticks": 78720,
          "time": 141.81820400000004,
          "velocity": 0.6299212598425197
        },
        {
          "duration": 0.05267864166665959,
          "durationTicks": 59,
          "midi": 71,
          "name": "B4",
          "ticks": 78840,
          "time": 141.92534700000004,
          "velocity": 0.6299212598425197
        },
        {
          "duration": 0.05267864166668801,
          "durationTicks": 59,
          "midi": 73,
          "name": "C#5",
          "ticks": 78960,
          "time": 142.03249000000002,
          "velocity": 0.6299212598425197
        },
        {
          "duration": 0.05267864166665959,
          "durationTicks": 59,
          "midi": 74,
          "name": "D5",
          "ticks": 79080,
          "time": 142.13963300000003,
          "velocity": 0.6299212598425197
        },
        {
          "duration": 0.05267864166665959,
          "durationTicks": 59,
          "midi": 76,
          "name": "E5",
          "ticks": 79200,
          "time": 142.24677600000004,
          "velocity": 0.6299212598425197
        },
        {
          "duration": 0.05267864166668801,
          "durationTicks": 59,
          "midi": 77,
          "name": "F5",
          "ticks": 79320,
          "time": 142.35391900000002,
          "velocity": 0.6299212598425197
        },
        {
          "duration": 0.05267864166665959,
          "durationTicks": 59,
          "midi": 79,
          "name": "G5",
          "ticks": 79440,
          "time": 142.46106200000003,
          "velocity": 0.6299212598425197
        },
        {
          "duration": 0.05267864166665959,
          "durationTicks": 59,
          "midi": 81,
          "name": "A5",
          "ticks": 79560,
          "time": 142.56820500000003,
          "velocity": 0.6299212598425197
        },
        {
          "duration": 0.05267864166665959,
          "durationTicks": 59,
          "midi": 82,
          "name": "A#5",
          "ticks": 79680,
          "time": 142.67534800000004,
          "velocity": 0.6299212598425197
        },
        {
          "duration": 0.05267864166668801,
          "durationTicks": 59,
          "midi": 81,
          "name": "A5",
          "ticks": 79800,
          "time": 142.78249100000002,
          "velocity": 0.6299212598425197
        },
        {
          "duration": 0.05267864166665959,
          "durationTicks": 59,
          "midi": 79,
          "name": "G5",
          "ticks": 79920,
          "time": 142.88963400000003,
          "velocity": 0.6299212598425197
        },
        {
          "duration": 0.05267864166665959,
          "durationTicks": 59,
          "midi": 77,
          "name": "F5",
          "ticks": 80040,
          "time": 142.99677700000004,
          "velocity": 0.6299212598425197
        },
        {
          "duration": 0.05267864166668801,
          "durationTicks": 59,
          "midi": 76,
          "name": "E5",
          "ticks": 80160,
          "time": 143.10392000000002,
          "velocity": 0.6299212598425197
        },
        {
          "duration": 0.05267864166665959,
          "durationTicks": 59,
          "midi": 74,
          "name": "D5",
          "ticks": 80280,
          "time": 143.21106300000002,
          "velocity": 0.6299212598425197
        },
        {
          "duration": 0.05267864166665959,
          "durationTicks": 59,
          "midi": 73,
          "name": "C#5",
          "ticks": 80400,
          "time": 143.31820600000003,
          "velocity": 0.6299212598425197
        },
        {
          "duration": 0.05267864166665959,
          "durationTicks": 59,
          "midi": 76,
          "name": "E5",
          "ticks": 80520,
          "time": 143.42534900000004,
          "velocity": 0.6299212598425197
        },
        {
          "duration": 0.10625014166666347,
          "durationTicks": 119,
          "midi": 76,
          "name": "E5",
          "ticks": 80640,
          "time": 143.53249200000002,
          "velocity": 0.6299212598425197
        },
        {
          "duration": 0.4276791416666583,
          "durationTicks": 479,
          "midi": 74,
          "name": "D5",
          "ticks": 80880,
          "time": 143.74677800000003,
          "velocity": 0.7559055118110236
        },
        {
          "duration": 0.10625014166666347,
          "durationTicks": 119,
          "midi": 73,
          "name": "C#5",
          "ticks": 81360,
          "time": 144.17535000000004,
          "velocity": 0.6299212598425197
        },
        {
          "duration": 0.4062505416666795,
          "durationTicks": 455,
          "midi": 74,
          "name": "D5",
          "ticks": 81600,
          "time": 144.38963600000002,
          "velocity": 0.6299212598425197
        },
        {
          "duration": 0.025892891666671858,
          "durationTicks": 29,
          "midi": 72,
          "name": "C5",
          "ticks": 82560,
          "time": 145.24678000000003,
          "velocity": 0.6299212598425197
        },
        {
          "duration": 0.025892891666643436,
          "durationTicks": 29,
          "midi": 74,
          "name": "D5",
          "ticks": 82590,
          "time": 145.27356575000005,
          "velocity": 0.6299212598425197
        },
        {
          "duration": 0.025892891666671858,
          "durationTicks": 29,
          "midi": 72,
          "name": "C5",
          "ticks": 82620,
          "time": 145.30035150000003,
          "velocity": 0.6299212598425197
        },
        {
          "duration": 0.05267864166665959,
          "durationTicks": 59,
          "midi": 71,
          "name": "B4",
          "ticks": 82680,
          "time": 145.35392300000004,
          "velocity": 0.6299212598425197
        },
        {
          "duration": 0.05267864166668801,
          "durationTicks": 59,
          "midi": 72,
          "name": "C5",
          "ticks": 82800,
          "time": 145.46106600000002,
          "velocity": 0.6299212598425197
        },
        {
          "duration": 0.05267864166665959,
          "durationTicks": 59,
          "midi": 76,
          "name": "E5",
          "ticks": 82920,
          "time": 145.56820900000002,
          "velocity": 0.6299212598425197
        },
        {
          "duration": 0.05267864166665959,
          "durationTicks": 59,
          "midi": 79,
          "name": "G5",
          "ticks": 83040,
          "time": 145.67535200000003,
          "velocity": 0.6299212598425197
        },
        {
          "duration": 0.05267864166665959,
          "durationTicks": 59,
          "midi": 82,
          "name": "A#5",
          "ticks": 83160,
          "time": 145.78249500000004,
          "velocity": 0.6299212598425197
        },
        {
          "duration": 0.05267864166668801,
          "durationTicks": 59,
          "midi": 79,
          "name": "G5",
          "ticks": 83280,
          "time": 145.88963800000002,
          "velocity": 0.6299212598425197
        },
        {
          "duration": 0.05267864166665959,
          "durationTicks": 59,
          "midi": 76,
          "name": "E5",
          "ticks": 83400,
          "time": 145.99678100000003,
          "velocity": 0.6299212598425197
        },
        {
          "duration": 0.025892891666671858,
          "durationTicks": 29,
          "midi": 72,
          "name": "C5",
          "ticks": 83520,
          "time": 146.10392400000003,
          "velocity": 0.6299212598425197
        },
        {
          "duration": 0.025892891666671858,
          "durationTicks": 29,
          "midi": 74,
          "name": "D5",
          "ticks": 83550,
          "time": 146.13070975000002,
          "velocity": 0.6299212598425197
        },
        {
          "duration": 0.025892891666671858,
          "durationTicks": 29,
          "midi": 72,
          "name": "C5",
          "ticks": 83580,
          "time": 146.15749550000004,
          "velocity": 0.6299212598425197
        },
        {
          "duration": 0.05267864166665959,
          "durationTicks": 59,
          "midi": 71,
          "name": "B4",
          "ticks": 83640,
          "time": 146.21106700000004,
          "velocity": 0.6299212598425197
        },
        {
          "duration": 0.05267864166668801,
          "durationTicks": 59,
          "midi": 72,
          "name": "C5",
          "ticks": 83760,
          "time": 146.31821000000002,
          "velocity": 0.6299212598425197
        },
        {
          "duration": 0.05267864166665959,
          "durationTicks": 59,
          "midi": 76,
          "name": "E5",
          "ticks": 83880,
          "time": 146.42535300000003,
          "velocity": 0.6299212598425197
        },
        {
          "duration": 0.05267864166665959,
          "durationTicks": 59,
          "midi": 79,
          "name": "G5",
          "ticks": 84000,
          "time": 146.53249600000004,
          "velocity": 0.6299212598425197
        },
        {
          "duration": 0.05267864166665959,
          "durationTicks": 59,
          "midi": 82,
          "name": "A#5",
          "ticks": 84120,
          "time": 146.63963900000005,
          "velocity": 0.6299212598425197
        },
        {
          "duration": 0.05267864166668801,
          "durationTicks": 59,
          "midi": 79,
          "name": "G5",
          "ticks": 84240,
          "time": 146.74678200000002,
          "velocity": 0.6299212598425197
        },
        {
          "duration": 0.05267864166665959,
          "durationTicks": 59,
          "midi": 76,
          "name": "E5",
          "ticks": 84360,
          "time": 146.85392500000003,
          "velocity": 0.6299212598425197
        },
        {
          "duration": 0.05267864166665959,
          "durationTicks": 59,
          "midi": 70,
          "name": "A#4",
          "ticks": 84480,
          "time": 146.96106800000004,
          "velocity": 0.6299212598425197
        },
        {
          "duration": 0.05267864166668801,
          "durationTicks": 59,
          "midi": 69,
          "name": "A4",
          "ticks": 84600,
          "time": 147.06821100000002,
          "velocity": 0.6299212598425197
        },
        {
          "duration": 0.05267864166665959,
          "durationTicks": 59,
          "midi": 70,
          "name": "A#4",
          "ticks": 84720,
          "time": 147.17535400000003,
          "velocity": 0.6299212598425197
        },
        {
          "duration": 0.05267864166665959,
          "durationTicks": 59,
          "midi": 72,
          "name": "C5",
          "ticks": 84840,
          "time": 147.28249700000003,
          "velocity": 0.6299212598425197
        },
        {
          "duration": 0.05267864166665959,
          "durationTicks": 59,
          "midi": 74,
          "name": "D5",
          "ticks": 84960,
          "time": 147.38964000000004,
          "velocity": 0.6299212598425197
        },
        {
          "duration": 0.05267864166668801,
          "durationTicks": 59,
          "midi": 76,
          "name": "E5",
          "ticks": 85080,
          "time": 147.49678300000002,
          "velocity": 0.6299212598425197
        },
        {
          "duration": 0.05267864166665959,
          "durationTicks": 59,
          "midi": 77,
          "name": "F5",
          "ticks": 85200,
          "time": 147.60392600000003,
          "velocity": 0.6299212598425197
        },
        {
          "duration": 0.05267864166665959,
          "durationTicks": 59,
          "midi": 79,
          "name": "G5",
          "ticks": 85320,
          "time": 147.71106900000004,
          "velocity": 0.6299212598425197
        },
        {
          "duration": 0.6098222416666772,
          "durationTicks": 683,
          "midi": 81,
          "name": "A5",
          "ticks": 85440,
          "time": 147.81821200000002,
          "velocity": 0.6299212598425197
        },
        {
          "duration": 0.05267864166668801,
          "durationTicks": 59,
          "midi": 70,
          "name": "A#4",
          "ticks": 86400,
          "time": 148.67535600000002,
          "velocity": 0.4881889763779528
        },
        {
          "duration": 0.025892891666671858,
          "durationTicks": 29,
          "midi": 69,
          "name": "A4",
          "ticks": 86460,
          "time": 148.72892750000003,
          "velocity": 0.4881889763779528
        },
        {
          "duration": 0.05267864166665959,
          "durationTicks": 59,
          "midi": 68,
          "name": "G#4",
          "ticks": 86520,
          "time": 148.78249900000003,
          "velocity": 0.4881889763779528
        },
        {
          "duration": 0.05267864166665959,
          "durationTicks": 59,
          "midi": 69,
          "name": "A4",
          "ticks": 86640,
          "time": 148.88964200000004,
          "velocity": 0.4881889763779528
        },
        {
          "duration": 0.05267864166665959,
          "durationTicks": 59,
          "midi": 73,
          "name": "C#5",
          "ticks": 86760,
          "time": 148.99678500000005,
          "velocity": 0.4881889763779528
        },
        {
          "duration": 0.05267864166668801,
          "durationTicks": 59,
          "midi": 76,
          "name": "E5",
          "ticks": 86880,
          "time": 149.10392800000002,
          "velocity": 0.4881889763779528
        },
        {
          "duration": 0.05267864166665959,
          "durationTicks": 59,
          "midi": 79,
          "name": "G5",
          "ticks": 87000,
          "time": 149.21107100000003,
          "velocity": 0.4881889763779528
        },
        {
          "duration": 0.05267864166665959,
          "durationTicks": 59,
          "midi": 76,
          "name": "E5",
          "ticks": 87120,
          "time": 149.31821400000004,
          "velocity": 0.4881889763779528
        },
        {
          "duration": 0.05267864166668801,
          "durationTicks": 59,
          "midi": 73,
          "name": "C#5",
          "ticks": 87240,
          "time": 149.42535700000002,
          "velocity": 0.4881889763779528
        },
        {
          "duration": 0.05267864166665959,
          "durationTicks": 59,
          "midi": 70,
          "name": "A#4",
          "ticks": 87360,
          "time": 149.53250000000003,
          "velocity": 0.4881889763779528
        },
        {
          "duration": 0.025892891666671858,
          "durationTicks": 29,
          "midi": 69,
          "name": "A4",
          "ticks": 87420,
          "time": 149.58607150000003,
          "velocity": 0.4881889763779528
        },
        {
          "duration": 0.05267864166665959,
          "durationTicks": 59,
          "midi": 68,
          "name": "G#4",
          "ticks": 87480,
          "time": 149.63964300000004,
          "velocity": 0.4881889763779528
        },
        {
          "duration": 0.05267864166665959,
          "durationTicks": 59,
          "midi": 69,
          "name": "A4",
          "ticks": 87600,
          "time": 149.74678600000004,
          "velocity": 0.4881889763779528
        },
        {
          "duration": 0.05267864166668801,
          "durationTicks": 59,
          "midi": 73,
          "name": "C#5",
          "ticks": 87720,
          "time": 149.85392900000002,
          "velocity": 0.4881889763779528
        },
        {
          "duration": 0.05267864166665959,
          "durationTicks": 59,
          "midi": 76,
          "name": "E5",
          "ticks": 87840,
          "time": 149.96107200000003,
          "velocity": 0.4881889763779528
        },
        {
          "duration": 0.05267864166665959,
          "durationTicks": 59,
          "midi": 79,
          "name": "G5",
          "ticks": 87960,
          "time": 150.06821500000004,
          "velocity": 0.4881889763779528
        },
        {
          "duration": 0.05267864166668801,
          "durationTicks": 59,
          "midi": 76,
          "name": "E5",
          "ticks": 88080,
          "time": 150.17535800000002,
          "velocity": 0.4881889763779528
        },
        {
          "duration": 0.05267864166665959,
          "durationTicks": 59,
          "midi": 73,
          "name": "C#5",
          "ticks": 88200,
          "time": 150.28250100000002,
          "velocity": 0.4881889763779528
        },
        {
          "duration": 0.05267864166665959,
          "durationTicks": 59,
          "midi": 70,
          "name": "A#4",
          "ticks": 88320,
          "time": 150.38964400000003,
          "velocity": 0.4881889763779528
        },
        {
          "duration": 0.025892891666671858,
          "durationTicks": 29,
          "midi": 69,
          "name": "A4",
          "ticks": 88380,
          "time": 150.44321550000004,
          "velocity": 0.4881889763779528
        },
        {
          "duration": 0.05267864166665959,
          "durationTicks": 59,
          "midi": 68,
          "name": "G#4",
          "ticks": 88440,
          "time": 150.49678700000004,
          "velocity": 0.4881889763779528
        },
        {
          "duration": 0.05267864166668801,
          "durationTicks": 59,
          "midi": 69,
          "name": "A4",
          "ticks": 88560,
          "time": 150.60393000000002,
          "velocity": 0.4881889763779528
        },
        {
          "duration": 0.05267864166665959,
          "durationTicks": 59,
          "midi": 71,
          "name": "B4",
          "ticks": 88680,
          "time": 150.71107300000003,
          "velocity": 0.4881889763779528
        },
        {
          "duration": 0.05267864166665959,
          "durationTicks": 59,
          "midi": 73,
          "name": "C#5",
          "ticks": 88800,
          "time": 150.81821600000004,
          "velocity": 0.4881889763779528
        },
        {
          "duration": 0.05267864166665959,
          "durationTicks": 59,
          "midi": 74,
          "name": "D5",
          "ticks": 88920,
          "time": 150.92535900000004,
          "velocity": 0.4881889763779528
        },
        {
          "duration": 0.05267864166668801,
          "durationTicks": 59,
          "midi": 76,
          "name": "E5",
          "ticks": 89040,
          "time": 151.03250200000002,
          "velocity": 0.4881889763779528
        },
        {
          "duration": 0.05267864166665959,
          "durationTicks": 59,
          "midi": 74,
          "name": "D5",
          "ticks": 89160,
          "time": 151.13964500000003,
          "velocity": 0.4881889763779528
        },
        {
          "duration": 0.6098222416666488,
          "durationTicks": 683,
          "midi": 77,
          "name": "F5",
          "ticks": 89280,
          "time": 151.24678800000004,
          "velocity": 0.4881889763779528
        },
        {
          "duration": 0.05267864166665959,
          "durationTicks": 59,
          "midi": 82,
          "name": "A#5",
          "ticks": 90240,
          "time": 152.10393200000004,
          "velocity": 0.4881889763779528
        },
        {
          "duration": 0.05267864166668801,
          "durationTicks": 59,
          "midi": 81,
          "name": "A5",
          "ticks": 90360,
          "time": 152.21107500000002,
          "velocity": 0.4094488188976378
        },
        {
          "duration": 0.05267864166665959,
          "durationTicks": 59,
          "midi": 79,
          "name": "G5",
          "ticks": 90480,
          "time": 152.31821800000003,
          "velocity": 0.4094488188976378
        },
        {
          "duration": 0.05267864166665959,
          "durationTicks": 59,
          "midi": 81,
          "name": "A5",
          "ticks": 90600,
          "time": 152.42536100000004,
          "velocity": 0.4094488188976378
        },
        {
          "duration": 0.05267864166668801,
          "durationTicks": 59,
          "midi": 82,
          "name": "A#5",
          "ticks": 90720,
          "time": 152.53250400000002,
          "velocity": 0.4094488188976378
        },
        {
          "duration": 0.05267864166665959,
          "durationTicks": 59,
          "midi": 81,
          "name": "A5",
          "ticks": 90840,
          "time": 152.63964700000002,
          "velocity": 0.4094488188976378
        },
        {
          "duration": 0.05267864166665959,
          "durationTicks": 59,
          "midi": 79,
          "name": "G5",
          "ticks": 90960,
          "time": 152.74679000000003,
          "velocity": 0.4094488188976378
        },
        {
          "duration": 0.05267864166665959,
          "durationTicks": 59,
          "midi": 81,
          "name": "A5",
          "ticks": 91080,
          "time": 152.85393300000004,
          "velocity": 0.4094488188976378
        },
        {
          "duration": 0.05267864166668801,
          "durationTicks": 59,
          "midi": 82,
          "name": "A#5",
          "ticks": 91200,
          "time": 152.96107600000002,
          "velocity": 0.4094488188976378
        },
        {
          "duration": 0.05267864166665959,
          "durationTicks": 59,
          "midi": 81,
          "name": "A5",
          "ticks": 91320,
          "time": 153.06821900000003,
          "velocity": 0.4094488188976378
        },
        {
          "duration": 0.05267864166665959,
          "durationTicks": 59,
          "midi": 79,
          "name": "G5",
          "ticks": 91440,
          "time": 153.17536200000004,
          "velocity": 0.4409448818897638
        },
        {
          "duration": 0.05267864166665959,
          "durationTicks": 59,
          "midi": 81,
          "name": "A5",
          "ticks": 91560,
          "time": 153.28250500000004,
          "velocity": 0.48031496062992124
        },
        {
          "duration": 0.05267864166668801,
          "durationTicks": 59,
          "midi": 82,
          "name": "A#5",
          "ticks": 91680,
          "time": 153.38964800000002,
          "velocity": 0.5196850393700787
        },
        {
          "duration": 0.05267864166665959,
          "durationTicks": 59,
          "midi": 81,
          "name": "A5",
          "ticks": 91800,
          "time": 153.49679100000003,
          "velocity": 0.5511811023622047
        },
        {
          "duration": 0.05267864166665959,
          "durationTicks": 59,
          "midi": 79,
          "name": "G5",
          "ticks": 91920,
          "time": 153.60393400000004,
          "velocity": 0.5905511811023622
        },
        {
          "duration": 0.05267864166665959,
          "durationTicks": 59,
          "midi": 82,
          "name": "A#5",
          "ticks": 92040,
          "time": 153.71107700000005,
          "velocity": 0.6299212598425197
        },
        {
          "duration": 0.05267864166668801,
          "durationTicks": 59,
          "midi": 81,
          "name": "A5",
          "ticks": 92160,
          "time": 153.81822000000003,
          "velocity": 0.6692913385826772
        },
        {
          "duration": 0.05267864166665959,
          "durationTicks": 59,
          "midi": 79,
          "name": "G5",
          "ticks": 92280,
          "time": 153.92536300000003,
          "velocity": 0.6692913385826772
        },
        {
          "duration": 0.05267864166665959,
          "durationTicks": 59,
          "midi": 77,
          "name": "F5",
          "ticks": 92400,
          "time": 154.03250600000004,
          "velocity": 0.6692913385826772
        },
        {
          "duration": 0.05267864166668801,
          "durationTicks": 59,
          "midi": 79,
          "name": "G5",
          "ticks": 92520,
          "time": 154.13964900000002,
          "velocity": 0.6692913385826772
        },
        {
          "duration": 0.05267864166665959,
          "durationTicks": 59,
          "midi": 81,
          "name": "A5",
          "ticks": 92640,
          "time": 154.24679200000003,
          "velocity": 0.6692913385826772
        },
        {
          "duration": 0.05267864166665959,
          "durationTicks": 59,
          "midi": 79,
          "name": "G5",
          "ticks": 92760,
          "time": 154.35393500000004,
          "velocity": 0.6692913385826772
        },
        {
          "duration": 0.05267864166665959,
          "durationTicks": 59,
          "midi": 77,
          "name": "F5",
          "ticks": 92880,
          "time": 154.46107800000004,
          "velocity": 0.6692913385826772
        },
        {
          "duration": 0.05267864166668801,
          "durationTicks": 59,
          "midi": 79,
          "name": "G5",
          "ticks": 93000,
          "time": 154.56822100000002,
          "velocity": 0.6692913385826772
        },
        {
          "duration": 0.05267864166665959,
          "durationTicks": 59,
          "midi": 81,
          "name": "A5",
          "ticks": 93120,
          "time": 154.67536400000003,
          "velocity": 0.6692913385826772
        },
        {
          "duration": 0.05267864166665959,
          "durationTicks": 59,
          "midi": 79,
          "name": "G5",
          "ticks": 93240,
          "time": 154.78250700000004,
          "velocity": 0.6692913385826772
        },
        {
          "duration": 0.05267864166668801,
          "durationTicks": 59,
          "midi": 77,
          "name": "F5",
          "ticks": 93360,
          "time": 154.88965000000002,
          "velocity": 0.6692913385826772
        },
        {
          "duration": 0.05267864166665959,
          "durationTicks": 59,
          "midi": 79,
          "name": "G5",
          "ticks": 93480,
          "time": 154.99679300000003,
          "velocity": 0.6692913385826772
        },
        {
          "duration": 0.05267864166665959,
          "durationTicks": 59,
          "midi": 81,
          "name": "A5",
          "ticks": 93600,
          "time": 155.10393600000003,
          "velocity": 0.6692913385826772
        },
        {
          "duration": 0.05267864166665959,
          "durationTicks": 59,
          "midi": 79,
          "name": "G5",
          "ticks": 93720,
          "time": 155.21107900000004,
          "velocity": 0.6692913385826772
        },
        {
          "duration": 0.05267864166668801,
          "durationTicks": 59,
          "midi": 77,
          "name": "F5",
          "ticks": 93840,
          "time": 155.31822200000002,
          "velocity": 0.6692913385826772
        },
        {
          "duration": 0.05267864166665959,
          "durationTicks": 59,
          "midi": 81,
          "name": "A5",
          "ticks": 93960,
          "time": 155.42536500000003,
          "velocity": 0.6692913385826772
        },
        {
          "duration": 0.05267864166665959,
          "durationTicks": 59,
          "midi": 69,
          "name": "A4",
          "ticks": 94080,
          "time": 155.53250800000004,
          "velocity": 0.6692913385826772
        },
        {
          "duration": 0.05267864166665959,
          "durationTicks": 59,
          "midi": 71,
          "name": "B4",
          "ticks": 94200,
          "time": 155.63965100000004,
          "velocity": 0.6692913385826772
        },
        {
          "duration": 0.05267864166668801,
          "durationTicks": 59,
          "midi": 73,
          "name": "C#5",
          "ticks": 94320,
          "time": 155.74679400000002,
          "velocity": 0.6692913385826772
        },
        {
          "duration": 0.05267864166665959,
          "durationTicks": 59,
          "midi": 74,
          "name": "D5",
          "ticks": 94440,
          "time": 155.85393700000003,
          "velocity": 0.6692913385826772
        },
        {
          "duration": 0.05267864166665959,
          "durationTicks": 59,
          "midi": 76,
          "name": "E5",
          "ticks": 94560,
          "time": 155.96108000000004,
          "velocity": 0.6692913385826772
        },
        {
          "duration": 0.05267864166665959,
          "durationTicks": 59,
          "midi": 77,
          "name": "F5",
          "ticks": 94680,
          "time": 156.06822300000005,
          "velocity": 0.6692913385826772
        },
        {
          "duration": 0.05267864166668801,
          "durationTicks": 59,
          "midi": 79,
          "name": "G5",
          "ticks": 94800,
          "time": 156.17536600000003,
          "velocity": 0.6692913385826772
        },
        {
          "duration": 0.05267864166665959,
          "durationTicks": 59,
          "midi": 81,
          "name": "A5",
          "ticks": 94920,
          "time": 156.28250900000003,
          "velocity": 0.6692913385826772
        },
        {
          "duration": 0.05267864166665959,
          "durationTicks": 59,
          "midi": 82,
          "name": "A#5",
          "ticks": 95040,
          "time": 156.38965200000004,
          "velocity": 0.6692913385826772
        },
        {
          "duration": 0.05267864166668801,
          "durationTicks": 59,
          "midi": 81,
          "name": "A5",
          "ticks": 95160,
          "time": 156.49679500000002,
          "velocity": 0.6692913385826772
        },
        {
          "duration": 0.05267864166665959,
          "durationTicks": 59,
          "midi": 79,
          "name": "G5",
          "ticks": 95280,
          "time": 156.60393800000003,
          "velocity": 0.6692913385826772
        },
        {
          "duration": 0.05267864166665959,
          "durationTicks": 59,
          "midi": 77,
          "name": "F5",
          "ticks": 95400,
          "time": 156.71108100000004,
          "velocity": 0.6692913385826772
        },
        {
          "duration": 0.05267864166665959,
          "durationTicks": 59,
          "midi": 76,
          "name": "E5",
          "ticks": 95520,
          "time": 156.81822400000004,
          "velocity": 0.6692913385826772
        },
        {
          "duration": 0.05267864166668801,
          "durationTicks": 59,
          "midi": 74,
          "name": "D5",
          "ticks": 95640,
          "time": 156.92536700000002,
          "velocity": 0.6692913385826772
        },
        {
          "duration": 0.05267864166665959,
          "durationTicks": 59,
          "midi": 73,
          "name": "C#5",
          "ticks": 95760,
          "time": 157.03251000000003,
          "velocity": 0.6692913385826772
        },
        {
          "duration": 0.05267864166665959,
          "durationTicks": 59,
          "midi": 76,
          "name": "E5",
          "ticks": 95880,
          "time": 157.13965300000004,
          "velocity": 0.6692913385826772
        },
        {
          "duration": 0.10625014166669189,
          "durationTicks": 119,
          "midi": 76,
          "name": "E5",
          "ticks": 96000,
          "time": 157.24679600000002,
          "velocity": 0.6692913385826772
        },
        {
          "duration": 0.4276791416666583,
          "durationTicks": 479,
          "midi": 74,
          "name": "D5",
          "ticks": 96240,
          "time": 157.46108200000003,
          "velocity": 0.8031496062992126
        },
        {
          "duration": 0.10625014166666347,
          "durationTicks": 119,
          "midi": 73,
          "name": "C#5",
          "ticks": 96720,
          "time": 157.88965400000004,
          "velocity": 0.6692913385826772
        },
        {
          "duration": 0.42767914166668675,
          "durationTicks": 479,
          "midi": 74,
          "name": "D5",
          "ticks": 96960,
          "time": 158.10394000000002,
          "velocity": 0.8031496062992126
        },
        {
          "duration": 0.025892891666671858,
          "durationTicks": 29,
          "midi": 72,
          "name": "C5",
          "ticks": 97920,
          "time": 158.96108400000003,
          "velocity": 0.6299212598425197
        },
        {
          "duration": 0.025892891666671858,
          "durationTicks": 29,
          "midi": 74,
          "name": "D5",
          "ticks": 97950,
          "time": 158.98786975000002,
          "velocity": 0.6299212598425197
        },
        {
          "duration": 0.025892891666671858,
          "durationTicks": 29,
          "midi": 72,
          "name": "C5",
          "ticks": 97980,
          "time": 159.01465550000003,
          "velocity": 0.6299212598425197
        },
        {
          "duration": 0.05267864166665959,
          "durationTicks": 59,
          "midi": 71,
          "name": "B4",
          "ticks": 98040,
          "time": 159.06822700000004,
          "velocity": 0.6299212598425197
        },
        {
          "duration": 0.05267864166665959,
          "durationTicks": 59,
          "midi": 72,
          "name": "C5",
          "ticks": 98160,
          "time": 159.17537000000004,
          "velocity": 0.6299212598425197
        },
        {
          "duration": 0.05267864166668801,
          "durationTicks": 59,
          "midi": 76,
          "name": "E5",
          "ticks": 98280,
          "time": 159.28251300000002,
          "velocity": 0.6299212598425197
        },
        {
          "duration": 0.05267864166665959,
          "durationTicks": 59,
          "midi": 79,
          "name": "G5",
          "ticks": 98400,
          "time": 159.38965600000003,
          "velocity": 0.6299212598425197
        },
        {
          "duration": 0.05267864166665959,
          "durationTicks": 59,
          "midi": 82,
          "name": "A#5",
          "ticks": 98520,
          "time": 159.49679900000004,
          "velocity": 0.6299212598425197
        },
        {
          "duration": 0.05267864166668801,
          "durationTicks": 59,
          "midi": 79,
          "name": "G5",
          "ticks": 98640,
          "time": 159.60394200000002,
          "velocity": 0.6299212598425197
        },
        {
          "duration": 0.05267864166665959,
          "durationTicks": 59,
          "midi": 76,
          "name": "E5",
          "ticks": 98760,
          "time": 159.71108500000003,
          "velocity": 0.6299212598425197
        },
        {
          "duration": 0.025892891666671858,
          "durationTicks": 29,
          "midi": 72,
          "name": "C5",
          "ticks": 98880,
          "time": 159.81822800000003,
          "velocity": 0.6299212598425197
        },
        {
          "duration": 0.025892891666671858,
          "durationTicks": 29,
          "midi": 74,
          "name": "D5",
          "ticks": 98910,
          "time": 159.84501375000002,
          "velocity": 0.6299212598425197
        },
        {
          "duration": 0.025892891666671858,
          "durationTicks": 29,
          "midi": 72,
          "name": "C5",
          "ticks": 98940,
          "time": 159.87179950000004,
          "velocity": 0.6299212598425197
        },
        {
          "duration": 0.05267864166665959,
          "durationTicks": 59,
          "midi": 71,
          "name": "B4",
          "ticks": 99000,
          "time": 159.92537100000004,
          "velocity": 0.6299212598425197
        },
        {
          "duration": 0.05267864166668801,
          "durationTicks": 59,
          "midi": 72,
          "name": "C5",
          "ticks": 99120,
          "time": 160.03251400000002,
          "velocity": 0.6299212598425197
        },
        {
          "duration": 0.05267864166665959,
          "durationTicks": 59,
          "midi": 76,
          "name": "E5",
          "ticks": 99240,
          "time": 160.13965700000003,
          "velocity": 0.6299212598425197
        },
        {
          "duration": 0.05267864166665959,
          "durationTicks": 59,
          "midi": 79,
          "name": "G5",
          "ticks": 99360,
          "time": 160.24680000000004,
          "velocity": 0.6299212598425197
        },
        {
          "duration": 0.05267864166665959,
          "durationTicks": 59,
          "midi": 82,
          "name": "A#5",
          "ticks": 99480,
          "time": 160.35394300000004,
          "velocity": 0.6299212598425197
        },
        {
          "duration": 0.05267864166668801,
          "durationTicks": 59,
          "midi": 79,
          "name": "G5",
          "ticks": 99600,
          "time": 160.46108600000002,
          "velocity": 0.6299212598425197
        },
        {
          "duration": 0.05267864166665959,
          "durationTicks": 59,
          "midi": 76,
          "name": "E5",
          "ticks": 99720,
          "time": 160.56822900000003,
          "velocity": 0.6299212598425197
        },
        {
          "duration": 0.05267864166665959,
          "durationTicks": 59,
          "midi": 70,
          "name": "A#4",
          "ticks": 99840,
          "time": 160.67537200000004,
          "velocity": 0.6299212598425197
        },
        {
          "duration": 0.05267864166665959,
          "durationTicks": 59,
          "midi": 69,
          "name": "A4",
          "ticks": 99960,
          "time": 160.78251500000005,
          "velocity": 0.6299212598425197
        },
        {
          "duration": 0.05267864166668801,
          "durationTicks": 59,
          "midi": 70,
          "name": "A#4",
          "ticks": 100080,
          "time": 160.88965800000003,
          "velocity": 0.6299212598425197
        },
        {
          "duration": 0.05267864166665959,
          "durationTicks": 59,
          "midi": 72,
          "name": "C5",
          "ticks": 100200,
          "time": 160.99680100000003,
          "velocity": 0.6299212598425197
        },
        {
          "duration": 0.05267864166665959,
          "durationTicks": 59,
          "midi": 74,
          "name": "D5",
          "ticks": 100320,
          "time": 161.10394400000004,
          "velocity": 0.6299212598425197
        },
        {
          "duration": 0.05267864166668801,
          "durationTicks": 59,
          "midi": 76,
          "name": "E5",
          "ticks": 100440,
          "time": 161.21108700000002,
          "velocity": 0.6299212598425197
        },
        {
          "duration": 0.05267864166665959,
          "durationTicks": 59,
          "midi": 77,
          "name": "F5",
          "ticks": 100560,
          "time": 161.31823000000003,
          "velocity": 0.6299212598425197
        },
        {
          "duration": 0.05267864166665959,
          "durationTicks": 59,
          "midi": 79,
          "name": "G5",
          "ticks": 100680,
          "time": 161.42537300000004,
          "velocity": 0.6299212598425197
        },
        {
          "duration": 0.6098222416666488,
          "durationTicks": 683,
          "midi": 81,
          "name": "A5",
          "ticks": 100800,
          "time": 161.53251600000004,
          "velocity": 0.6299212598425197
        },
        {
          "duration": 0.05267864166668801,
          "durationTicks": 59,
          "midi": 70,
          "name": "A#4",
          "ticks": 101760,
          "time": 162.38966000000002,
          "velocity": 0.4881889763779528
        },
        {
          "duration": 0.025892891666671858,
          "durationTicks": 29,
          "midi": 69,
          "name": "A4",
          "ticks": 101820,
          "time": 162.44323150000002,
          "velocity": 0.4881889763779528
        },
        {
          "duration": 0.05267864166665959,
          "durationTicks": 59,
          "midi": 68,
          "name": "G#4",
          "ticks": 101880,
          "time": 162.49680300000003,
          "velocity": 0.4881889763779528
        },
        {
          "duration": 0.05267864166665959,
          "durationTicks": 59,
          "midi": 69,
          "name": "A4",
          "ticks": 102000,
          "time": 162.60394600000004,
          "velocity": 0.4881889763779528
        },
        {
          "duration": 0.05267864166665959,
          "durationTicks": 59,
          "midi": 73,
          "name": "C#5",
          "ticks": 102120,
          "time": 162.71108900000004,
          "velocity": 0.4881889763779528
        },
        {
          "duration": 0.05267864166668801,
          "durationTicks": 59,
          "midi": 76,
          "name": "E5",
          "ticks": 102240,
          "time": 162.81823200000002,
          "velocity": 0.4881889763779528
        },
        {
          "duration": 0.05267864166665959,
          "durationTicks": 59,
          "midi": 79,
          "name": "G5",
          "ticks": 102360,
          "time": 162.92537500000003,
          "velocity": 0.4881889763779528
        },
        {
          "duration": 0.05267864166665959,
          "durationTicks": 59,
          "midi": 76,
          "name": "E5",
          "ticks": 102480,
          "time": 163.03251800000004,
          "velocity": 0.4881889763779528
        },
        {
          "duration": 0.05267864166665959,
          "durationTicks": 59,
          "midi": 73,
          "name": "C#5",
          "ticks": 102600,
          "time": 163.13966100000005,
          "velocity": 0.4881889763779528
        },
        {
          "duration": 0.05267864166668801,
          "durationTicks": 59,
          "midi": 70,
          "name": "A#4",
          "ticks": 102720,
          "time": 163.24680400000003,
          "velocity": 0.4881889763779528
        },
        {
          "duration": 0.025892891666671858,
          "durationTicks": 29,
          "midi": 69,
          "name": "A4",
          "ticks": 102780,
          "time": 163.30037550000003,
          "velocity": 0.4881889763779528
        },
        {
          "duration": 0.05267864166665959,
          "durationTicks": 59,
          "midi": 68,
          "name": "G#4",
          "ticks": 102840,
          "time": 163.35394700000003,
          "velocity": 0.4881889763779528
        },
        {
          "duration": 0.05267864166665959,
          "durationTicks": 59,
          "midi": 69,
          "name": "A4",
          "ticks": 102960,
          "time": 163.46109000000004,
          "velocity": 0.4881889763779528
        },
        {
          "duration": 0.05267864166668801,
          "durationTicks": 59,
          "midi": 73,
          "name": "C#5",
          "ticks": 103080,
          "time": 163.56823300000002,
          "velocity": 0.4881889763779528
        },
        {
          "duration": 0.05267864166665959,
          "durationTicks": 59,
          "midi": 76,
          "name": "E5",
          "ticks": 103200,
          "time": 163.67537600000003,
          "velocity": 0.4881889763779528
        },
        {
          "duration": 0.05267864166665959,
          "durationTicks": 59,
          "midi": 79,
          "name": "G5",
          "ticks": 103320,
          "time": 163.78251900000004,
          "velocity": 0.4881889763779528
        },
        {
          "duration": 0.05267864166665959,
          "durationTicks": 59,
          "midi": 76,
          "name": "E5",
          "ticks": 103440,
          "time": 163.88966200000004,
          "velocity": 0.4881889763779528
        },
        {
          "duration": 0.05267864166668801,
          "durationTicks": 59,
          "midi": 73,
          "name": "C#5",
          "ticks": 103560,
          "time": 163.99680500000002,
          "velocity": 0.4881889763779528
        },
        {
          "duration": 0.05267864166665959,
          "durationTicks": 59,
          "midi": 70,
          "name": "A#4",
          "ticks": 103680,
          "time": 164.10394800000003,
          "velocity": 0.4881889763779528
        },
        {
          "duration": 0.025892891666671858,
          "durationTicks": 29,
          "midi": 69,
          "name": "A4",
          "ticks": 103740,
          "time": 164.15751950000003,
          "velocity": 0.4881889763779528
        },
        {
          "duration": 0.05267864166665959,
          "durationTicks": 59,
          "midi": 68,
          "name": "G#4",
          "ticks": 103800,
          "time": 164.21109100000004,
          "velocity": 0.4881889763779528
        },
        {
          "duration": 0.05267864166668801,
          "durationTicks": 59,
          "midi": 69,
          "name": "A4",
          "ticks": 103920,
          "time": 164.31823400000002,
          "velocity": 0.4881889763779528
        },
        {
          "duration": 0.05267864166665959,
          "durationTicks": 59,
          "midi": 71,
          "name": "B4",
          "ticks": 104040,
          "time": 164.42537700000003,
          "velocity": 0.4881889763779528
        },
        {
          "duration": 0.05267864166665959,
          "durationTicks": 59,
          "midi": 73,
          "name": "C#5",
          "ticks": 104160,
          "time": 164.53252000000003,
          "velocity": 0.4881889763779528
        },
        {
          "duration": 0.05267864166665959,
          "durationTicks": 59,
          "midi": 74,
          "name": "D5",
          "ticks": 104280,
          "time": 164.63966300000004,
          "velocity": 0.4881889763779528
        },
        {
          "duration": 0.05267864166665959,
          "durationTicks": 59,
          "midi": 76,
          "name": "E5",
          "ticks": 104400,
          "time": 164.74680600000005,
          "velocity": 0.4881889763779528
        },
        {
          "duration": 0.05267864166668801,
          "durationTicks": 59,
          "midi": 74,
          "name": "D5",
          "ticks": 104520,
          "time": 164.85394900000003,
          "velocity": 0.4881889763779528
        },
        {
          "duration": 0.6098222416666488,
          "durationTicks": 683,
          "midi": 77,
          "name": "F5",
          "ticks": 104640,
          "time": 164.96109200000004,
          "velocity": 0.4881889763779528
        },
        {
          "duration": 0.05267864166665959,
          "durationTicks": 59,
          "midi": 82,
          "name": "A#5",
          "ticks": 105600,
          "time": 165.81823600000004,
          "velocity": 0.4881889763779528
        },
        {
          "duration": 0.05267864166668801,
          "durationTicks": 59,
          "midi": 81,
          "name": "A5",
          "ticks": 105720,
          "time": 165.92537900000002,
          "velocity": 0.4094488188976378
        },
        {
          "duration": 0.05267864166665959,
          "durationTicks": 59,
          "midi": 79,
          "name": "G5",
          "ticks": 105840,
          "time": 166.03252200000003,
          "velocity": 0.4094488188976378
        },
        {
          "duration": 0.05267864166665959,
          "durationTicks": 59,
          "midi": 81,
          "name": "A5",
          "ticks": 105960,
          "time": 166.13966500000004,
          "velocity": 0.4094488188976378
        },
        {
          "duration": 0.05267864166665959,
          "durationTicks": 59,
          "midi": 82,
          "name": "A#5",
          "ticks": 106080,
          "time": 166.24680800000004,
          "velocity": 0.4094488188976378
        },
        {
          "duration": 0.05267864166668801,
          "durationTicks": 59,
          "midi": 81,
          "name": "A5",
          "ticks": 106200,
          "time": 166.35395100000002,
          "velocity": 0.4094488188976378
        },
        {
          "duration": 0.05267864166665959,
          "durationTicks": 59,
          "midi": 79,
          "name": "G5",
          "ticks": 106320,
          "time": 166.46109400000003,
          "velocity": 0.4094488188976378
        },
        {
          "duration": 0.05267864166665959,
          "durationTicks": 59,
          "midi": 81,
          "name": "A5",
          "ticks": 106440,
          "time": 166.56823700000004,
          "velocity": 0.4094488188976378
        },
        {
          "duration": 0.05267864166668801,
          "durationTicks": 59,
          "midi": 82,
          "name": "A#5",
          "ticks": 106560,
          "time": 166.67538000000002,
          "velocity": 0.4094488188976378
        },
        {
          "duration": 0.05267864166665959,
          "durationTicks": 59,
          "midi": 81,
          "name": "A5",
          "ticks": 106680,
          "time": 166.78252300000003,
          "velocity": 0.4094488188976378
        },
        {
          "duration": 0.05267864166665959,
          "durationTicks": 59,
          "midi": 79,
          "name": "G5",
          "ticks": 106800,
          "time": 166.88966600000003,
          "velocity": 0.4409448818897638
        },
        {
          "duration": 0.05267864166665959,
          "durationTicks": 59,
          "midi": 81,
          "name": "A5",
          "ticks": 106920,
          "time": 166.99680900000004,
          "velocity": 0.48031496062992124
        },
        {
          "duration": 0.05267864166665959,
          "durationTicks": 59,
          "midi": 82,
          "name": "A#5",
          "ticks": 107040,
          "time": 167.10395200000005,
          "velocity": 0.5196850393700787
        },
        {
          "duration": 0.05267864166668801,
          "durationTicks": 59,
          "midi": 81,
          "name": "A5",
          "ticks": 107160,
          "time": 167.21109500000003,
          "velocity": 0.5511811023622047
        },
        {
          "duration": 0.05267864166665959,
          "durationTicks": 59,
          "midi": 79,
          "name": "G5",
          "ticks": 107280,
          "time": 167.31823800000004,
          "velocity": 0.5905511811023622
        },
        {
          "duration": 0.05267864166668801,
          "durationTicks": 59,
          "midi": 82,
          "name": "A#5",
          "ticks": 107400,
          "time": 167.42538100000002,
          "velocity": 0.6299212598425197
        },
        {
          "duration": 0.05267864166665959,
          "durationTicks": 59,
          "midi": 81,
          "name": "A5",
          "ticks": 107520,
          "time": 167.53252400000002,
          "velocity": 0.6692913385826772
        },
        {
          "duration": 0.05267864166665959,
          "durationTicks": 59,
          "midi": 79,
          "name": "G5",
          "ticks": 107640,
          "time": 167.63966700000003,
          "velocity": 0.6692913385826772
        },
        {
          "duration": 0.05267864166665959,
          "durationTicks": 59,
          "midi": 77,
          "name": "F5",
          "ticks": 107760,
          "time": 167.74681000000004,
          "velocity": 0.6692913385826772
        },
        {
          "duration": 0.05267864166665959,
          "durationTicks": 59,
          "midi": 79,
          "name": "G5",
          "ticks": 107880,
          "time": 167.85395300000005,
          "velocity": 0.6692913385826772
        },
        {
          "duration": 0.05267864166668801,
          "durationTicks": 59,
          "midi": 81,
          "name": "A5",
          "ticks": 108000,
          "time": 167.96109600000003,
          "velocity": 0.6692913385826772
        },
        {
          "duration": 0.05267864166665959,
          "durationTicks": 59,
          "midi": 79,
          "name": "G5",
          "ticks": 108120,
          "time": 168.06823900000003,
          "velocity": 0.6692913385826772
        },
        {
          "duration": 0.05267864166665959,
          "durationTicks": 59,
          "midi": 77,
          "name": "F5",
          "ticks": 108240,
          "time": 168.17538200000004,
          "velocity": 0.6692913385826772
        },
        {
          "duration": 0.05267864166668801,
          "durationTicks": 59,
          "midi": 79,
          "name": "G5",
          "ticks": 108360,
          "time": 168.28252500000002,
          "velocity": 0.6692913385826772
        },
        {
          "duration": 0.05267864166665959,
          "durationTicks": 59,
          "midi": 81,
          "name": "A5",
          "ticks": 108480,
          "time": 168.38966800000003,
          "velocity": 0.6692913385826772
        },
        {
          "duration": 0.05267864166665959,
          "durationTicks": 59,
          "midi": 79,
          "name": "G5",
          "ticks": 108600,
          "time": 168.49681100000004,
          "velocity": 0.6692913385826772
        },
        {
          "duration": 0.05267864166665959,
          "durationTicks": 59,
          "midi": 77,
          "name": "F5",
          "ticks": 108720,
          "time": 168.60395400000004,
          "velocity": 0.6692913385826772
        },
        {
          "duration": 0.05267864166668801,
          "durationTicks": 59,
          "midi": 79,
          "name": "G5",
          "ticks": 108840,
          "time": 168.71109700000002,
          "velocity": 0.6692913385826772
        },
        {
          "duration": 0.05267864166665959,
          "durationTicks": 59,
          "midi": 81,
          "name": "A5",
          "ticks": 108960,
          "time": 168.81824000000003,
          "velocity": 0.6692913385826772
        },
        {
          "duration": 0.05267864166665959,
          "durationTicks": 59,
          "midi": 79,
          "name": "G5",
          "ticks": 109080,
          "time": 168.92538300000004,
          "velocity": 0.6692913385826772
        },
        {
          "duration": 0.05267864166668801,
          "durationTicks": 59,
          "midi": 77,
          "name": "F5",
          "ticks": 109200,
          "time": 169.03252600000002,
          "velocity": 0.6692913385826772
        },
        {
          "duration": 0.05267864166665959,
          "durationTicks": 59,
          "midi": 81,
          "name": "A5",
          "ticks": 109320,
          "time": 169.13966900000003,
          "velocity": 0.6692913385826772
        },
        {
          "duration": 0.05267864166665959,
          "durationTicks": 59,
          "midi": 69,
          "name": "A4",
          "ticks": 109440,
          "time": 169.24681200000003,
          "velocity": 0.6692913385826772
        },
        {
          "duration": 0.05267864166665959,
          "durationTicks": 59,
          "midi": 71,
          "name": "B4",
          "ticks": 109560,
          "time": 169.35395500000004,
          "velocity": 0.6692913385826772
        },
        {
          "duration": 0.05267864166665959,
          "durationTicks": 59,
          "midi": 73,
          "name": "C#5",
          "ticks": 109680,
          "time": 169.46109800000005,
          "velocity": 0.6692913385826772
        },
        {
          "duration": 0.05267864166668801,
          "durationTicks": 59,
          "midi": 74,
          "name": "D5",
          "ticks": 109800,
          "time": 169.56824100000003,
          "velocity": 0.6692913385826772
        },
        {
          "duration": 0.05267864166665959,
          "durationTicks": 59,
          "midi": 76,
          "name": "E5",
          "ticks": 109920,
          "time": 169.67538400000004,
          "velocity": 0.6692913385826772
        },
        {
          "duration": 0.05267864166668801,
          "durationTicks": 59,
          "midi": 77,
          "name": "F5",
          "ticks": 110040,
          "time": 169.78252700000002,
          "velocity": 0.6692913385826772
        },
        {
          "duration": 0.05267864166665959,
          "durationTicks": 59,
          "midi": 79,
          "name": "G5",
          "ticks": 110160,
          "time": 169.88967000000002,
          "velocity": 0.6692913385826772
        },
        {
          "duration": 0.05267864166665959,
          "durationTicks": 59,
          "midi": 81,
          "name": "A5",
          "ticks": 110280,
          "time": 169.99681300000003,
          "velocity": 0.6692913385826772
        },
        {
          "duration": 0.05267864166665959,
          "durationTicks": 59,
          "midi": 82,
          "name": "A#5",
          "ticks": 110400,
          "time": 170.10395600000004,
          "velocity": 0.6692913385826772
        },
        {
          "duration": 0.05267864166665959,
          "durationTicks": 59,
          "midi": 81,
          "name": "A5",
          "ticks": 110520,
          "time": 170.21109900000005,
          "velocity": 0.6692913385826772
        },
        {
          "duration": 0.05267864166668801,
          "durationTicks": 59,
          "midi": 79,
          "name": "G5",
          "ticks": 110640,
          "time": 170.31824200000003,
          "velocity": 0.6692913385826772
        },
        {
          "duration": 0.05267864166665959,
          "durationTicks": 59,
          "midi": 77,
          "name": "F5",
          "ticks": 110760,
          "time": 170.42538500000003,
          "velocity": 0.6692913385826772
        },
        {
          "duration": 0.05267864166665959,
          "durationTicks": 59,
          "midi": 76,
          "name": "E5",
          "ticks": 110880,
          "time": 170.53252800000004,
          "velocity": 0.6692913385826772
        },
        {
          "duration": 0.05267864166668801,
          "durationTicks": 59,
          "midi": 74,
          "name": "D5",
          "ticks": 111000,
          "time": 170.63967100000002,
          "velocity": 0.6692913385826772
        },
        {
          "duration": 0.05267864166665959,
          "durationTicks": 59,
          "midi": 73,
          "name": "C#5",
          "ticks": 111120,
          "time": 170.74681400000003,
          "velocity": 0.6692913385826772
        },
        {
          "duration": 0.05267864166665959,
          "durationTicks": 59,
          "midi": 76,
          "name": "E5",
          "ticks": 111240,
          "time": 170.85395700000004,
          "velocity": 0.6692913385826772
        },
        {
          "duration": 0.10625014166666347,
          "durationTicks": 119,
          "midi": 76,
          "name": "E5",
          "ticks": 111360,
          "time": 170.96110000000004,
          "velocity": 0.6692913385826772
        },
        {
          "duration": 0.4276791416666583,
          "durationTicks": 479,
          "midi": 74,
          "name": "D5",
          "ticks": 111600,
          "time": 171.17538600000003,
          "velocity": 0.8031496062992126
        },
        {
          "duration": 0.10625014166666347,
          "durationTicks": 119,
          "midi": 73,
          "name": "C#5",
          "ticks": 112080,
          "time": 171.60395800000003,
          "velocity": 0.6692913385826772
        },
        {
          "duration": 0.42767914166668675,
          "durationTicks": 479,
          "midi": 74,
          "name": "D5",
          "ticks": 112320,
          "time": 171.81824400000002,
          "velocity": 0.8031496062992126
        },
        {
          "duration": 0.6319447604166726,
          "durationTicks": 455,
          "midi": 74,
          "name": "D5",
          "ticks": 113280,
          "time": 172.67538800000003,
          "velocity": 0.6692913385826772
        },
        {
          "duration": 0.6319447604166726,
          "durationTicks": 455,
          "midi": 78,
          "name": "F#5",
          "ticks": 113280,
          "time": 172.67538800000003,
          "velocity": 0.6692913385826772
        },
        {
          "duration": 0.6319447604166726,
          "durationTicks": 455,
          "midi": 81,
          "name": "A5",
          "ticks": 113280,
          "time": 172.67538800000003,
          "velocity": 0.6692913385826772
        },
        {
          "duration": 0.6319447604166726,
          "durationTicks": 455,
          "midi": 86,
          "name": "D6",
          "ticks": 113280,
          "time": 172.67538800000003,
          "velocity": 0.6692913385826772
        },
        {
          "duration": 0.47361134791668746,
          "durationTicks": 341,
          "midi": 78,
          "name": "F#5",
          "ticks": 113760,
          "time": 173.34205500000002,
          "velocity": 0.6692913385826772
        },
        {
          "duration": 0.47361134791668746,
          "durationTicks": 341,
          "midi": 81,
          "name": "A5",
          "ticks": 113760,
          "time": 173.34205500000002,
          "velocity": 0.6692913385826772
        },
        {
          "duration": 0.1569445229166888,
          "durationTicks": 113,
          "midi": 78,
          "name": "F#5",
          "ticks": 114120,
          "time": 173.84205525000002,
          "velocity": 0.6692913385826772
        },
        {
          "duration": 0.1569445229166888,
          "durationTicks": 113,
          "midi": 81,
          "name": "A5",
          "ticks": 114120,
          "time": 173.84205525000002,
          "velocity": 0.6692913385826772
        },
        {
          "duration": 0.3319446104166559,
          "durationTicks": 239,
          "midi": 83,
          "name": "B5",
          "ticks": 114240,
          "time": 174.00872200000003,
          "velocity": 0.6692913385826772
        },
        {
          "duration": 0.665278110416665,
          "durationTicks": 479,
          "midi": 74,
          "name": "D5",
          "ticks": 114240,
          "time": 174.00872200000003,
          "velocity": 0.6692913385826772
        },
        {
          "duration": 0.665278110416665,
          "durationTicks": 479,
          "midi": 78,
          "name": "F#5",
          "ticks": 114240,
          "time": 174.00872200000003,
          "velocity": 0.6692913385826772
        },
        {
          "duration": 0.3152779354166739,
          "durationTicks": 227,
          "midi": 81,
          "name": "A5",
          "ticks": 114480,
          "time": 174.34205550000001,
          "velocity": 0.6692913385826772
        },
        {
          "duration": 0.3319446104166559,
          "durationTicks": 239,
          "midi": 79,
          "name": "G5",
          "ticks": 114720,
          "time": 174.67538900000002,
          "velocity": 0.6692913385826772
        },
        {
          "duration": 0.665278110416665,
          "durationTicks": 479,
          "midi": 74,
          "name": "D5",
          "ticks": 114720,
          "time": 174.67538900000002,
          "velocity": 0.6692913385826772
        },
        {
          "duration": 0.3152779354166739,
          "durationTicks": 227,
          "midi": 78,
          "name": "F#5",
          "ticks": 114960,
          "time": 175.00872250000003,
          "velocity": 0.6692913385826772
        },
        {
          "duration": 0.3319446104166843,
          "durationTicks": 239,
          "midi": 67,
          "name": "G4",
          "ticks": 115200,
          "time": 175.342056,
          "velocity": 0.6692913385826772
        },
        {
          "duration": 0.3319446104166843,
          "durationTicks": 239,
          "midi": 71,
          "name": "B4",
          "ticks": 115200,
          "time": 175.342056,
          "velocity": 0.6692913385826772
        },
        {
          "duration": 0.3319446104166843,
          "durationTicks": 239,
          "midi": 78,
          "name": "F#5",
          "ticks": 115200,
          "time": 175.342056,
          "velocity": 0.6692913385826772
        },
        {
          "duration": 0.3152779354166739,
          "durationTicks": 227,
          "midi": 76,
          "name": "E5",
          "ticks": 115440,
          "time": 175.67538950000002,
          "velocity": 0.6692913385826772
        },
        {
          "duration": 0.04027779791667285,
          "durationTicks": 29,
          "midi": 76,
          "name": "E5",
          "ticks": 115680,
          "time": 176.00872300000003,
          "velocity": 0.6692913385826772
        },
        {
          "duration": 0.04027779791667285,
          "durationTicks": 29,
          "midi": 78,
          "name": "F#5",
          "ticks": 115710,
          "time": 176.05038968750003,
          "velocity": 0.6692913385826772
        },
        {
          "duration": 0.08194448541667043,
          "durationTicks": 59,
          "midi": 76,
          "name": "E5",
          "ticks": 115740,
          "time": 176.09205637500003,
          "velocity": 0.6692913385826772
        },
        {
          "duration": 0.1652778604166656,
          "durationTicks": 119,
          "midi": 75,
          "name": "D#5",
          "ticks": 115800,
          "time": 176.17538975000002,
          "velocity": 0.6692913385826772
        },
        {
          "duration": 0.165277860416694,
          "durationTicks": 119,
          "midi": 76,
          "name": "E5",
          "ticks": 115920,
          "time": 176.3420565,
          "velocity": 0.6692913385826772
        },
        {
          "duration": 0.1569445229166604,
          "durationTicks": 113,
          "midi": 79,
          "name": "G5",
          "ticks": 116040,
          "time": 176.50872325000003,
          "velocity": 0.6692913385826772
        },
        {
          "duration": 1.2652784104166699,
          "durationTicks": 911,
          "midi": 83,
          "name": "B5",
          "ticks": 116160,
          "time": 176.67539000000002,
          "velocity": 0.6692913385826772
        },
        {
          "duration": 0.49861136041667464,
          "durationTicks": 359,
          "midi": 71,
          "name": "B4",
          "ticks": 117120,
          "time": 178.00872400000003,
          "velocity": 0.41732283464566927
        },
        {
          "duration": 0.49861136041667464,
          "durationTicks": 359,
          "midi": 79,
          "name": "G5",
          "ticks": 117120,
          "time": 178.00872400000003,
          "velocity": 0.41732283464566927
        },
        {
          "duration": 0.49861136041667464,
          "durationTicks": 359,
          "midi": 83,
          "name": "B5",
          "ticks": 117120,
          "time": 178.00872400000003,
          "velocity": 0.41732283464566927
        },
        {
          "duration": 0.1569445229166604,
          "durationTicks": 113,
          "midi": 69,
          "name": "A4",
          "ticks": 117480,
          "time": 178.50872425000003,
          "velocity": 0.41732283464566927
        },
        {
          "duration": 0.1569445229166604,
          "durationTicks": 113,
          "midi": 73,
          "name": "C#5",
          "ticks": 117480,
          "time": 178.50872425000003,
          "velocity": 0.41732283464566927
        },
        {
          "duration": 0.3319446104166843,
          "durationTicks": 239,
          "midi": 69,
          "name": "A4",
          "ticks": 117600,
          "time": 178.67539100000002,
          "velocity": 0.41732283464566927
        },
        {
          "duration": 0.3319446104166843,
          "durationTicks": 239,
          "midi": 73,
          "name": "C#5",
          "ticks": 117600,
          "time": 178.67539100000002,
          "velocity": 0.41732283464566927
        },
        {
          "duration": 0.3152779354166739,
          "durationTicks": 227,
          "midi": 79,
          "name": "G5",
          "ticks": 117840,
          "time": 179.00872450000003,
          "velocity": 0.41732283464566927
        },
        {
          "duration": 0.3152779354166739,
          "durationTicks": 227,
          "midi": 88,
          "name": "E6",
          "ticks": 117840,
          "time": 179.00872450000003,
          "velocity": 0.41732283464566927
        },
        {
          "duration": 0.4986113604166462,
          "durationTicks": 359,
          "midi": 79,
          "name": "G5",
          "ticks": 118080,
          "time": 179.34205800000004,
          "velocity": 0.41732283464566927
        },
        {
          "duration": 0.4986113604166462,
          "durationTicks": 359,
          "midi": 88,
          "name": "E6",
          "ticks": 118080,
          "time": 179.34205800000004,
          "velocity": 0.41732283464566927
        },
        {
          "duration": 0.1569445229166604,
          "durationTicks": 113,
          "midi": 73,
          "name": "C#5",
          "ticks": 118440,
          "time": 179.84205825000004,
          "velocity": 0.41732283464566927
        },
        {
          "duration": 0.1569445229166604,
          "durationTicks": 113,
          "midi": 79,
          "name": "G5",
          "ticks": 118440,
          "time": 179.84205825000004,
          "velocity": 0.41732283464566927
        },
        {
          "duration": 0.3152779354166739,
          "durationTicks": 227,
          "midi": 73,
          "name": "C#5",
          "ticks": 118560,
          "time": 180.00872500000003,
          "velocity": 0.41732283464566927
        },
        {
          "duration": 0.3152779354166739,
          "durationTicks": 227,
          "midi": 79,
          "name": "G5",
          "ticks": 118560,
          "time": 180.00872500000003,
          "velocity": 0.41732283464566927
        },
        {
          "duration": 0.3152779354166455,
          "durationTicks": 227,
          "midi": 73,
          "name": "C#5",
          "ticks": 118800,
          "time": 180.34205850000004,
          "velocity": 0.41732283464566927
        },
        {
          "duration": 0.3152779354166455,
          "durationTicks": 227,
          "midi": 79,
          "name": "G5",
          "ticks": 118800,
          "time": 180.34205850000004,
          "velocity": 0.41732283464566927
        },
        {
          "duration": 0.3319446104166843,
          "durationTicks": 239,
          "midi": 69,
          "name": "A4",
          "ticks": 119040,
          "time": 180.67539200000002,
          "velocity": 0.41732283464566927
        },
        {
          "duration": 0.3319446104166843,
          "durationTicks": 239,
          "midi": 74,
          "name": "D5",
          "ticks": 119040,
          "time": 180.67539200000002,
          "velocity": 0.41732283464566927
        },
        {
          "duration": 0.3319446104166843,
          "durationTicks": 239,
          "midi": 79,
          "name": "G5",
          "ticks": 119040,
          "time": 180.67539200000002,
          "velocity": 0.41732283464566927
        },
        {
          "duration": 0.3152779354166739,
          "durationTicks": 227,
          "midi": 78,
          "name": "F#5",
          "ticks": 119280,
          "time": 181.00872550000003,
          "velocity": 0.41732283464566927
        },
        {
          "duration": 0.04027779791667285,
          "durationTicks": 29,
          "midi": 78,
          "name": "F#5",
          "ticks": 119520,
          "time": 181.34205900000003,
          "velocity": 0.41732283464566927
        },
        {
          "duration": 0.04027779791667285,
          "durationTicks": 29,
          "midi": 79,
          "name": "G5",
          "ticks": 119550,
          "time": 181.38372568750003,
          "velocity": 0.41732283464566927
        },
        {
          "duration": 0.08194448541667043,
          "durationTicks": 59,
          "midi": 78,
          "name": "F#5",
          "ticks": 119580,
          "time": 181.42539237500003,
          "velocity": 0.41732283464566927
        },
        {
          "duration": 0.1652778604166656,
          "durationTicks": 119,
          "midi": 76,
          "name": "E5",
          "ticks": 119640,
          "time": 181.50872575000002,
          "velocity": 0.41732283464566927
        },
        {
          "duration": 0.1652778604166656,
          "durationTicks": 119,
          "midi": 74,
          "name": "D5",
          "ticks": 119760,
          "time": 181.67539250000002,
          "velocity": 0.41732283464566927
        },
        {
          "duration": 0.1569445229166604,
          "durationTicks": 113,
          "midi": 76,
          "name": "E5",
          "ticks": 119880,
          "time": 181.84205925000003,
          "velocity": 0.41732283464566927
        },
        {
          "duration": 1.2652784104166699,
          "durationTicks": 911,
          "midi": 74,
          "name": "D5",
          "ticks": 120000,
          "time": 182.00872600000002,
          "velocity": 0.41732283464566927
        },
        {
          "duration": 1.2652784104166699,
          "durationTicks": 911,
          "midi": 78,
          "name": "F#5",
          "ticks": 120000,
          "time": 182.00872600000002,
          "velocity": 0.41732283464566927
        },
        {
          "duration": 0.6319447604166726,
          "durationTicks": 455,
          "midi": 74,
          "name": "D5",
          "ticks": 120960,
          "time": 183.34206000000003,
          "velocity": 0.7559055118110236
        },
        {
          "duration": 0.6319447604166726,
          "durationTicks": 455,
          "midi": 78,
          "name": "F#5",
          "ticks": 120960,
          "time": 183.34206000000003,
          "velocity": 0.7559055118110236
        },
        {
          "duration": 0.6319447604166726,
          "durationTicks": 455,
          "midi": 81,
          "name": "A5",
          "ticks": 120960,
          "time": 183.34206000000003,
          "velocity": 0.7559055118110236
        },
        {
          "duration": 0.6319447604166726,
          "durationTicks": 455,
          "midi": 86,
          "name": "D6",
          "ticks": 120960,
          "time": 183.34206000000003,
          "velocity": 0.7559055118110236
        },
        {
          "duration": 0.47361134791665904,
          "durationTicks": 341,
          "midi": 78,
          "name": "F#5",
          "ticks": 121440,
          "time": 184.00872700000002,
          "velocity": 0.7559055118110236
        },
        {
          "duration": 0.47361134791665904,
          "durationTicks": 341,
          "midi": 81,
          "name": "A5",
          "ticks": 121440,
          "time": 184.00872700000002,
          "velocity": 0.7559055118110236
        },
        {
          "duration": 0.1569445229166604,
          "durationTicks": 113,
          "midi": 78,
          "name": "F#5",
          "ticks": 121800,
          "time": 184.50872725000002,
          "velocity": 0.7559055118110236
        },
        {
          "duration": 0.1569445229166604,
          "durationTicks": 113,
          "midi": 81,
          "name": "A5",
          "ticks": 121800,
          "time": 184.50872725000002,
          "velocity": 0.7559055118110236
        },
        {
          "duration": 0.3319446104166559,
          "durationTicks": 239,
          "midi": 83,
          "name": "B5",
          "ticks": 121920,
          "time": 184.67539400000004,
          "velocity": 0.7559055118110236
        },
        {
          "duration": 0.665278110416665,
          "durationTicks": 479,
          "midi": 74,
          "name": "D5",
          "ticks": 121920,
          "time": 184.67539400000004,
          "velocity": 0.7559055118110236
        },
        {
          "duration": 0.665278110416665,
          "durationTicks": 479,
          "midi": 78,
          "name": "F#5",
          "ticks": 121920,
          "time": 184.67539400000004,
          "velocity": 0.7559055118110236
        },
        {
          "duration": 0.3152779354166739,
          "durationTicks": 227,
          "midi": 81,
          "name": "A5",
          "ticks": 122160,
          "time": 185.00872750000002,
          "velocity": 0.7559055118110236
        },
        {
          "duration": 0.3319446104166559,
          "durationTicks": 239,
          "midi": 79,
          "name": "G5",
          "ticks": 122400,
          "time": 185.34206100000003,
          "velocity": 0.7559055118110236
        },
        {
          "duration": 0.665278110416665,
          "durationTicks": 479,
          "midi": 74,
          "name": "D5",
          "ticks": 122400,
          "time": 185.34206100000003,
          "velocity": 0.7559055118110236
        },
        {
          "duration": 0.3152779354166455,
          "durationTicks": 227,
          "midi": 78,
          "name": "F#5",
          "ticks": 122640,
          "time": 185.67539450000004,
          "velocity": 0.7559055118110236
        },
        {
          "duration": 0.3319446104166843,
          "durationTicks": 239,
          "midi": 67,
          "name": "G4",
          "ticks": 122880,
          "time": 186.00872800000002,
          "velocity": 0.7559055118110236
        },
        {
          "duration": 0.3319446104166843,
          "durationTicks": 239,
          "midi": 71,
          "name": "B4",
          "ticks": 122880,
          "time": 186.00872800000002,
          "velocity": 0.7559055118110236
        },
        {
          "duration": 0.3319446104166843,
          "durationTicks": 239,
          "midi": 78,
          "name": "F#5",
          "ticks": 122880,
          "time": 186.00872800000002,
          "velocity": 0.7559055118110236
        },
        {
          "duration": 0.3152779354166739,
          "durationTicks": 227,
          "midi": 76,
          "name": "E5",
          "ticks": 123120,
          "time": 186.34206150000003,
          "velocity": 0.7559055118110236
        },
        {
          "duration": 0.04027779791664443,
          "durationTicks": 29,
          "midi": 76,
          "name": "E5",
          "ticks": 123360,
          "time": 186.67539500000004,
          "velocity": 0.7559055118110236
        },
        {
          "duration": 0.04027779791664443,
          "durationTicks": 29,
          "midi": 78,
          "name": "F#5",
          "ticks": 123390,
          "time": 186.71706168750003,
          "velocity": 0.7559055118110236
        },
        {
          "duration": 0.08194448541667043,
          "durationTicks": 59,
          "midi": 76,
          "name": "E5",
          "ticks": 123420,
          "time": 186.75872837500003,
          "velocity": 0.7559055118110236
        },
        {
          "duration": 0.1652778604166656,
          "durationTicks": 119,
          "midi": 75,
          "name": "D#5",
          "ticks": 123480,
          "time": 186.84206175000003,
          "velocity": 0.7559055118110236
        },
        {
          "duration": 0.1652778604166656,
          "durationTicks": 119,
          "midi": 76,
          "name": "E5",
          "ticks": 123600,
          "time": 187.00872850000002,
          "velocity": 0.7559055118110236
        },
        {
          "duration": 0.1569445229166604,
          "durationTicks": 113,
          "midi": 79,
          "name": "G5",
          "ticks": 123720,
          "time": 187.17539525000004,
          "velocity": 0.7559055118110236
        },
        {
          "duration": 1.2652784104166699,
          "durationTicks": 911,
          "midi": 83,
          "name": "B5",
          "ticks": 123840,
          "time": 187.34206200000003,
          "velocity": 0.7559055118110236
        },
        {
          "duration": 0.47361134791665904,
          "durationTicks": 341,
          "midi": 74,
          "name": "D5",
          "ticks": 124800,
          "time": 188.67539600000003,
          "velocity": 0.6692913385826772
        },
        {
          "duration": 0.47361134791665904,
          "durationTicks": 341,
          "midi": 78,
          "name": "F#5",
          "ticks": 124800,
          "time": 188.67539600000003,
          "velocity": 0.6692913385826772
        },
        {
          "duration": 0.47361134791665904,
          "durationTicks": 341,
          "midi": 86,
          "name": "D6",
          "ticks": 124800,
          "time": 188.67539600000003,
          "velocity": 0.6692913385826772
        },
        {
          "duration": 0.1569445229166604,
          "durationTicks": 113,
          "midi": 81,
          "name": "A5",
          "ticks": 125160,
          "time": 189.17539625000003,
          "velocity": 0.6692913385826772
        },
        {
          "duration": 0.3152779354166739,
          "durationTicks": 227,
          "midi": 69,
          "name": "A4",
          "ticks": 125280,
          "time": 189.34206300000002,
          "velocity": 0.6692913385826772
        },
        {
          "duration": 0.3152779354166739,
          "durationTicks": 227,
          "midi": 74,
          "name": "D5",
          "ticks": 125280,
          "time": 189.34206300000002,
          "velocity": 0.6692913385826772
        },
        {
          "duration": 0.3152779354166739,
          "durationTicks": 227,
          "midi": 78,
          "name": "F#5",
          "ticks": 125280,
          "time": 189.34206300000002,
          "velocity": 0.6692913385826772
        },
        {
          "duration": 0.3152779354166739,
          "durationTicks": 227,
          "midi": 81,
          "name": "A5",
          "ticks": 125280,
          "time": 189.34206300000002,
          "velocity": 0.6692913385826772
        },
        {
          "duration": 0.3152779354166455,
          "durationTicks": 227,
          "midi": 79,
          "name": "G5",
          "ticks": 125520,
          "time": 189.67539650000003,
          "velocity": 0.6692913385826772
        },
        {
          "duration": 0.3152779354166739,
          "durationTicks": 227,
          "midi": 73,
          "name": "C#5",
          "ticks": 125760,
          "time": 190.00873,
          "velocity": 0.6692913385826772
        },
        {
          "duration": 0.3152779354166739,
          "durationTicks": 227,
          "midi": 79,
          "name": "G5",
          "ticks": 125760,
          "time": 190.00873,
          "velocity": 0.6692913385826772
        },
        {
          "duration": 0.3152779354166739,
          "durationTicks": 227,
          "midi": 83,
          "name": "B5",
          "ticks": 125760,
          "time": 190.00873,
          "velocity": 0.6692913385826772
        },
        {
          "duration": 0.3152779354166739,
          "durationTicks": 227,
          "midi": 81,
          "name": "A5",
          "ticks": 126000,
          "time": 190.34206350000002,
          "velocity": 0.6692913385826772
        },
        {
          "duration": 0.3152779354166455,
          "durationTicks": 227,
          "midi": 67,
          "name": "G4",
          "ticks": 126240,
          "time": 190.67539700000003,
          "velocity": 0.6692913385826772
        },
        {
          "duration": 0.3152779354166455,
          "durationTicks": 227,
          "midi": 73,
          "name": "C#5",
          "ticks": 126240,
          "time": 190.67539700000003,
          "velocity": 0.6692913385826772
        },
        {
          "duration": 0.3152779354166455,
          "durationTicks": 227,
          "midi": 81,
          "name": "A5",
          "ticks": 126240,
          "time": 190.67539700000003,
          "velocity": 0.6692913385826772
        },
        {
          "duration": 0.3152779354166739,
          "durationTicks": 227,
          "midi": 73,
          "name": "C#5",
          "ticks": 126480,
          "time": 191.0087305,
          "velocity": 0.6692913385826772
        },
        {
          "duration": 0.3152779354166739,
          "durationTicks": 227,
          "midi": 67,
          "name": "G4",
          "ticks": 126720,
          "time": 191.34206400000002,
          "velocity": 0.6692913385826772
        },
        {
          "duration": 0.3152779354166739,
          "durationTicks": 227,
          "midi": 76,
          "name": "E5",
          "ticks": 126720,
          "time": 191.34206400000002,
          "velocity": 0.6692913385826772
        },
        {
          "duration": 0.3152779354166739,
          "durationTicks": 227,
          "midi": 66,
          "name": "F#4",
          "ticks": 126960,
          "time": 191.67539750000003,
          "velocity": 0.6692913385826772
        },
        {
          "duration": 0.3152779354166739,
          "durationTicks": 227,
          "midi": 74,
          "name": "D5",
          "ticks": 126960,
          "time": 191.67539750000003,
          "velocity": 0.6692913385826772
        },
        {
          "duration": 0.08194448541667043,
          "durationTicks": 59,
          "midi": 74,
          "name": "D5",
          "ticks": 127200,
          "time": 192.008731,
          "velocity": 0.6692913385826772
        },
        {
          "duration": 0.08194448541664201,
          "durationTicks": 59,
          "midi": 76,
          "name": "E5",
          "ticks": 127260,
          "time": 192.09206437500004,
          "velocity": 0.6692913385826772
        },
        {
          "duration": 0.1569445229166604,
          "durationTicks": 113,
          "midi": 66,
          "name": "F#4",
          "ticks": 127320,
          "time": 192.17539775000003,
          "velocity": 0.6692913385826772
        },
        {
          "duration": 0.1569445229166604,
          "durationTicks": 113,
          "midi": 74,
          "name": "D5",
          "ticks": 127320,
          "time": 192.17539775000003,
          "velocity": 0.6692913385826772
        },
        {
          "duration": 0.3152779354166739,
          "durationTicks": 227,
          "midi": 64,
          "name": "E4",
          "ticks": 127440,
          "time": 192.34206450000002,
          "velocity": 0.6692913385826772
        },
        {
          "duration": 0.3152779354166739,
          "durationTicks": 227,
          "midi": 67,
          "name": "G4",
          "ticks": 127440,
          "time": 192.34206450000002,
          "velocity": 0.6692913385826772
        },
        {
          "duration": 0.3152779354166739,
          "durationTicks": 227,
          "midi": 73,
          "name": "C#5",
          "ticks": 127440,
          "time": 192.34206450000002,
          "velocity": 0.6692913385826772
        },
        {
          "duration": 0.6319447604166726,
          "durationTicks": 455,
          "midi": 62,
          "name": "D4",
          "ticks": 127680,
          "time": 192.67539800000003,
          "velocity": 0.6692913385826772
        },
        {
          "duration": 0.6319447604166726,
          "durationTicks": 455,
          "midi": 66,
          "name": "F#4",
          "ticks": 127680,
          "time": 192.67539800000003,
          "velocity": 0.6692913385826772
        },
        {
          "duration": 0.6319447604166726,
          "durationTicks": 455,
          "midi": 74,
          "name": "D5",
          "ticks": 127680,
          "time": 192.67539800000003,
          "velocity": 0.6692913385826772
        },
        {
          "duration": 0.9979166666666686,
          "durationTicks": 479,
          "midi": 74,
          "name": "D5",
          "ticks": 128640,
          "time": 194.00873200000004,
          "velocity": 0.41732283464566927
        },
        {
          "duration": 0.8645833333333428,
          "durationTicks": 415,
          "midi": 78,
          "name": "F#5",
          "ticks": 128703,
          "time": 194.13998200000003,
          "velocity": 0.41732283464566927
        },
        {
          "duration": 0.731250000000017,
          "durationTicks": 351,
          "midi": 86,
          "name": "D6",
          "ticks": 128767,
          "time": 194.27331533333336,
          "velocity": 0.41732283464566927
        },
        {
          "duration": 0.7479166666666686,
          "durationTicks": 359,
          "midi": 74,
          "name": "D5",
          "ticks": 129120,
          "time": 195.00873200000004,
          "velocity": 0.41732283464566927
        },
        {
          "duration": 0.6145833333333428,
          "durationTicks": 295,
          "midi": 78,
          "name": "F#5",
          "ticks": 129183,
          "time": 195.13998200000003,
          "velocity": 0.41732283464566927
        },
        {
          "duration": 0.48125000000001705,
          "durationTicks": 231,
          "midi": 81,
          "name": "A5",
          "ticks": 129247,
          "time": 195.27331533333336,
          "velocity": 0.41732283464566927
        },
        {
          "duration": 0.23541666666667993,
          "durationTicks": 113,
          "midi": 81,
          "name": "A5",
          "ticks": 129480,
          "time": 195.75873200000004,
          "velocity": 0.41732283464566927
        },
        {
          "duration": 0.49791666666666856,
          "durationTicks": 239,
          "midi": 74,
          "name": "D5",
          "ticks": 129600,
          "time": 196.00873200000004,
          "velocity": 0.41732283464566927
        },
        {
          "duration": 0.3645833333333428,
          "durationTicks": 175,
          "midi": 78,
          "name": "F#5",
          "ticks": 129663,
          "time": 196.13998200000003,
          "velocity": 0.41732283464566927
        },
        {
          "duration": 0.23125000000001705,
          "durationTicks": 111,
          "midi": 83,
          "name": "B5",
          "ticks": 129727,
          "time": 196.27331533333336,
          "velocity": 0.41732283464566927
        },
        {
          "duration": 0.4729166666666629,
          "durationTicks": 227,
          "midi": 81,
          "name": "A5",
          "ticks": 129840,
          "time": 196.50873200000004,
          "velocity": 0.41732283464566927
        },
        {
          "duration": 0.4729166666666629,
          "durationTicks": 227,
          "midi": 74,
          "name": "D5",
          "ticks": 130080,
          "time": 197.00873200000004,
          "velocity": 0.41732283464566927
        },
        {
          "duration": 0.4729166666666629,
          "durationTicks": 227,
          "midi": 79,
          "name": "G5",
          "ticks": 130080,
          "time": 197.00873200000004,
          "velocity": 0.41732283464566927
        },
        {
          "duration": 0.4729166666666629,
          "durationTicks": 227,
          "midi": 78,
          "name": "F#5",
          "ticks": 130320,
          "time": 197.50873200000004,
          "velocity": 0.41732283464566927
        },
        {
          "duration": 0.49791666666666856,
          "durationTicks": 239,
          "midi": 74,
          "name": "D5",
          "ticks": 130560,
          "time": 198.00873200000004,
          "velocity": 0.41732283464566927
        },
        {
          "duration": 0.49791666666666856,
          "durationTicks": 239,
          "midi": 78,
          "name": "F#5",
          "ticks": 130560,
          "time": 198.00873200000004,
          "velocity": 0.41732283464566927
        },
        {
          "duration": 0.4729166666666629,
          "durationTicks": 227,
          "midi": 76,
          "name": "E5",
          "ticks": 130800,
          "time": 198.50873200000004,
          "velocity": 0.41732283464566927
        },
        {
          "duration": 0.4729166666666629,
          "durationTicks": 227,
          "midi": 76,
          "name": "E5",
          "ticks": 131040,
          "time": 199.00873200000004,
          "velocity": 0.41732283464566927
        },
        {
          "duration": 0.4729166666666629,
          "durationTicks": 227,
          "midi": 79,
          "name": "G5",
          "ticks": 131280,
          "time": 199.50873200000004,
          "velocity": 0.41732283464566927
        },
        {
          "duration": 1.9979166666666686,
          "durationTicks": 959,
          "midi": 74,
          "name": "D5",
          "ticks": 131520,
          "time": 200.00873200000004,
          "velocity": 0.41732283464566927
        },
        {
          "duration": 1.8645833333333428,
          "durationTicks": 895,
          "midi": 76,
          "name": "E5",
          "ticks": 131583,
          "time": 200.13998200000003,
          "velocity": 0.41732283464566927
        },
        {
          "duration": 1.731250000000017,
          "durationTicks": 831,
          "midi": 79,
          "name": "G5",
          "ticks": 131647,
          "time": 200.27331533333336,
          "velocity": 0.41732283464566927
        },
        {
          "duration": 1.5979166666666629,
          "durationTicks": 767,
          "midi": 83,
          "name": "B5",
          "ticks": 131712,
          "time": 200.40873200000004,
          "velocity": 0.41732283464566927
        },
        {
          "duration": 0.7104166666666742,
          "durationTicks": 341,
          "midi": 73,
          "name": "C#5",
          "ticks": 132480,
          "time": 202.00873200000004,
          "velocity": 0.41732283464566927
        },
        {
          "duration": 0.7104166666666742,
          "durationTicks": 341,
          "midi": 83,
          "name": "B5",
          "ticks": 132480,
          "time": 202.00873200000004,
          "velocity": 0.41732283464566927
        },
        {
          "duration": 0.23541666666667993,
          "durationTicks": 113,
          "midi": 81,
          "name": "A5",
          "ticks": 132840,
          "time": 202.75873200000004,
          "velocity": 0.41732283464566927
        },
        {
          "duration": 0.4729166666666629,
          "durationTicks": 227,
          "midi": 73,
          "name": "C#5",
          "ticks": 132960,
          "time": 203.00873200000004,
          "velocity": 0.41732283464566927
        },
        {
          "duration": 0.4729166666666629,
          "durationTicks": 227,
          "midi": 81,
          "name": "A5",
          "ticks": 132960,
          "time": 203.00873200000004,
          "velocity": 0.41732283464566927
        },
        {
          "duration": 0.4729166666666629,
          "durationTicks": 227,
          "midi": 83,
          "name": "B5",
          "ticks": 133200,
          "time": 203.50873200000004,
          "velocity": 0.41732283464566927
        },
        {
          "duration": 0.49791666666666856,
          "durationTicks": 239,
          "midi": 73,
          "name": "C#5",
          "ticks": 133440,
          "time": 204.00873200000004,
          "velocity": 0.41732283464566927
        },
        {
          "duration": 0.49791666666666856,
          "durationTicks": 239,
          "midi": 83,
          "name": "B5",
          "ticks": 133440,
          "time": 204.00873200000004,
          "velocity": 0.41732283464566927
        },
        {
          "duration": 0.4729166666666629,
          "durationTicks": 227,
          "midi": 81,
          "name": "A5",
          "ticks": 133680,
          "time": 204.50873200000004,
          "velocity": 0.41732283464566927
        },
        {
          "duration": 0.49791666666666856,
          "durationTicks": 239,
          "midi": 73,
          "name": "C#5",
          "ticks": 133920,
          "time": 205.00873200000004,
          "velocity": 0.41732283464566927
        },
        {
          "duration": 0.49791666666666856,
          "durationTicks": 239,
          "midi": 81,
          "name": "A5",
          "ticks": 133920,
          "time": 205.00873200000004,
          "velocity": 0.41732283464566927
        },
        {
          "duration": 0.4729166666666629,
          "durationTicks": 227,
          "midi": 79,
          "name": "G5",
          "ticks": 134160,
          "time": 205.50873200000004,
          "velocity": 0.41732283464566927
        },
        {
          "duration": 0.49791666666666856,
          "durationTicks": 239,
          "midi": 74,
          "name": "D5",
          "ticks": 134400,
          "time": 206.00873200000004,
          "velocity": 0.41732283464566927
        },
        {
          "duration": 0.49791666666666856,
          "durationTicks": 239,
          "midi": 79,
          "name": "G5",
          "ticks": 134400,
          "time": 206.00873200000004,
          "velocity": 0.41732283464566927
        },
        {
          "duration": 0.4729166666666629,
          "durationTicks": 227,
          "midi": 78,
          "name": "F#5",
          "ticks": 134640,
          "time": 206.50873200000004,
          "velocity": 0.41732283464566927
        },
        {
          "duration": 0.49791666666666856,
          "durationTicks": 239,
          "midi": 74,
          "name": "D5",
          "ticks": 134880,
          "time": 207.00873200000004,
          "velocity": 0.41732283464566927
        },
        {
          "duration": 0.49791666666666856,
          "durationTicks": 239,
          "midi": 78,
          "name": "F#5",
          "ticks": 134880,
          "time": 207.00873200000004,
          "velocity": 0.41732283464566927
        },
        {
          "duration": 0.4729166666666629,
          "durationTicks": 227,
          "midi": 77,
          "name": "F5",
          "ticks": 135120,
          "time": 207.50873200000004,
          "velocity": 0.41732283464566927
        },
        {
          "duration": 1.8979166666666742,
          "durationTicks": 911,
          "midi": 74,
          "name": "D5",
          "ticks": 135360,
          "time": 208.00873200000004,
          "velocity": 0.41732283464566927
        },
        {
          "duration": 1.8979166666666742,
          "durationTicks": 911,
          "midi": 78,
          "name": "F#5",
          "ticks": 135360,
          "time": 208.00873200000004,
          "velocity": 0.41732283464566927
        },
        {
          "duration": 0.9979166666666686,
          "durationTicks": 479,
          "midi": 74,
          "name": "D5",
          "ticks": 136320,
          "time": 210.00873200000004,
          "velocity": 0.4094488188976378
        },
        {
          "duration": 0.8645833333333428,
          "durationTicks": 415,
          "midi": 78,
          "name": "F#5",
          "ticks": 136383,
          "time": 210.13998200000003,
          "velocity": 0.4094488188976378
        },
        {
          "duration": 0.731250000000017,
          "durationTicks": 351,
          "midi": 86,
          "name": "D6",
          "ticks": 136447,
          "time": 210.27331533333336,
          "velocity": 0.4094488188976378
        },
        {
          "duration": 0.7479166666666686,
          "durationTicks": 359,
          "midi": 74,
          "name": "D5",
          "ticks": 136800,
          "time": 211.00873200000004,
          "velocity": 0.4094488188976378
        },
        {
          "duration": 0.6145833333333428,
          "durationTicks": 295,
          "midi": 78,
          "name": "F#5",
          "ticks": 136863,
          "time": 211.13998200000003,
          "velocity": 0.4094488188976378
        },
        {
          "duration": 0.48125000000001705,
          "durationTicks": 231,
          "midi": 81,
          "name": "A5",
          "ticks": 136927,
          "time": 211.27331533333336,
          "velocity": 0.4094488188976378
        },
        {
          "duration": 0.23541666666667993,
          "durationTicks": 113,
          "midi": 81,
          "name": "A5",
          "ticks": 137160,
          "time": 211.75873200000004,
          "velocity": 0.4094488188976378
        },
        {
          "duration": 0.49791666666666856,
          "durationTicks": 239,
          "midi": 74,
          "name": "D5",
          "ticks": 137280,
          "time": 212.00873200000004,
          "velocity": 0.4094488188976378
        },
        {
          "duration": 0.3645833333333428,
          "durationTicks": 175,
          "midi": 78,
          "name": "F#5",
          "ticks": 137343,
          "time": 212.13998200000003,
          "velocity": 0.4094488188976378
        },
        {
          "duration": 0.23125000000001705,
          "durationTicks": 111,
          "midi": 83,
          "name": "B5",
          "ticks": 137407,
          "time": 212.27331533333336,
          "velocity": 0.4094488188976378
        },
        {
          "duration": 0.4729166666666629,
          "durationTicks": 227,
          "midi": 81,
          "name": "A5",
          "ticks": 137520,
          "time": 212.50873200000004,
          "velocity": 0.4094488188976378
        },
        {
          "duration": 0.49791666666666856,
          "durationTicks": 239,
          "midi": 74,
          "name": "D5",
          "ticks": 137760,
          "time": 213.00873200000004,
          "velocity": 0.4094488188976378
        },
        {
          "duration": 0.3645833333333428,
          "durationTicks": 175,
          "midi": 79,
          "name": "G5",
          "ticks": 137823,
          "time": 213.13998200000003,
          "velocity": 0.4094488188976378
        },
        {
          "duration": 0.4729166666666629,
          "durationTicks": 227,
          "midi": 78,
          "name": "F#5",
          "ticks": 138000,
          "time": 213.50873200000004,
          "velocity": 0.41732283464566927
        },
        {
          "duration": 0.49791666666666856,
          "durationTicks": 239,
          "midi": 74,
          "name": "D5",
          "ticks": 138240,
          "time": 214.00873200000004,
          "velocity": 0.4251968503937008
        },
        {
          "duration": 0.49791666666666856,
          "durationTicks": 239,
          "midi": 78,
          "name": "F#5",
          "ticks": 138240,
          "time": 214.00873200000004,
          "velocity": 0.4251968503937008
        },
        {
          "duration": 0.4729166666666629,
          "durationTicks": 227,
          "midi": 76,
          "name": "E5",
          "ticks": 138480,
          "time": 214.50873200000004,
          "velocity": 0.4330708661417323
        },
        {
          "duration": 0.49791666666666856,
          "durationTicks": 239,
          "midi": 74,
          "name": "D5",
          "ticks": 138720,
          "time": 215.00873200000004,
          "velocity": 0.4409448818897638
        },
        {
          "duration": 0.49791666666666856,
          "durationTicks": 239,
          "midi": 76,
          "name": "E5",
          "ticks": 138720,
          "time": 215.00873200000004,
          "velocity": 0.4409448818897638
        },
        {
          "duration": 0.4729166666666629,
          "durationTicks": 227,
          "midi": 79,
          "name": "G5",
          "ticks": 138960,
          "time": 215.50873200000004,
          "velocity": 0.44881889763779526
        },
        {
          "duration": 1.8979166666666742,
          "durationTicks": 911,
          "midi": 74,
          "name": "D5",
          "ticks": 139200,
          "time": 216.00873200000004,
          "velocity": 0.4566929133858268
        },
        {
          "duration": 1.8979166666666742,
          "durationTicks": 911,
          "midi": 76,
          "name": "E5",
          "ticks": 139200,
          "time": 216.00873200000004,
          "velocity": 0.4566929133858268
        },
        {
          "duration": 1.8979166666666742,
          "durationTicks": 911,
          "midi": 79,
          "name": "G5",
          "ticks": 139200,
          "time": 216.00873200000004,
          "velocity": 0.4566929133858268
        },
        {
          "duration": 1.8979166666666742,
          "durationTicks": 911,
          "midi": 83,
          "name": "B5",
          "ticks": 139200,
          "time": 216.00873200000004,
          "velocity": 0.4566929133858268
        },
        {
          "duration": 0.9979166666666686,
          "durationTicks": 479,
          "midi": 74,
          "name": "D5",
          "ticks": 140160,
          "time": 218.00873200000004,
          "velocity": 0.49606299212598426
        },
        {
          "duration": 0.8645833333333428,
          "durationTicks": 415,
          "midi": 78,
          "name": "F#5",
          "ticks": 140223,
          "time": 218.13998200000003,
          "velocity": 0.49606299212598426
        },
        {
          "duration": 0.731250000000017,
          "durationTicks": 351,
          "midi": 86,
          "name": "D6",
          "ticks": 140287,
          "time": 218.27331533333336,
          "velocity": 0.49606299212598426
        },
        {
          "duration": 0.7104166666666742,
          "durationTicks": 341,
          "midi": 81,
          "name": "A5",
          "ticks": 140640,
          "time": 219.00873200000004,
          "velocity": 0.49606299212598426
        },
        {
          "duration": 0.9479166666666572,
          "durationTicks": 455,
          "midi": 74,
          "name": "D5",
          "ticks": 140640,
          "time": 219.00873200000004,
          "velocity": 0.49606299212598426
        },
        {
          "duration": 0.23541666666667993,
          "durationTicks": 113,
          "midi": 81,
          "name": "A5",
          "ticks": 141000,
          "time": 219.75873200000004,
          "velocity": 0.49606299212598426
        },
        {
          "duration": 0.49791666666666856,
          "durationTicks": 239,
          "midi": 83,
          "name": "B5",
          "ticks": 141120,
          "time": 220.00873200000004,
          "velocity": 0.49606299212598426
        },
        {
          "duration": 0.9979166666666686,
          "durationTicks": 479,
          "midi": 73,
          "name": "C#5",
          "ticks": 141120,
          "time": 220.00873200000004,
          "velocity": 0.49606299212598426
        },
        {
          "duration": 0.4729166666666629,
          "durationTicks": 227,
          "midi": 81,
          "name": "A5",
          "ticks": 141360,
          "time": 220.50873200000004,
          "velocity": 0.49606299212598426
        },
        {
          "duration": 0.49791666666666856,
          "durationTicks": 239,
          "midi": 81,
          "name": "A5",
          "ticks": 141600,
          "time": 221.00873200000004,
          "velocity": 0.49606299212598426
        },
        {
          "duration": 0.9979166666666686,
          "durationTicks": 479,
          "midi": 67,
          "name": "G4",
          "ticks": 141600,
          "time": 221.00873200000004,
          "velocity": 0.49606299212598426
        },
        {
          "duration": 0.4729166666666629,
          "durationTicks": 227,
          "midi": 73,
          "name": "C#5",
          "ticks": 141840,
          "time": 221.50873200000004,
          "velocity": 0.49606299212598426
        },
        {
          "duration": 0.49791666666666856,
          "durationTicks": 239,
          "midi": 76,
          "name": "E5",
          "ticks": 142080,
          "time": 222.00873200000004,
          "velocity": 0.49606299212598426
        },
        {
          "duration": 0.9979166666666686,
          "durationTicks": 479,
          "midi": 66,
          "name": "F#4",
          "ticks": 142080,
          "time": 222.00873200000004,
          "velocity": 0.49606299212598426
        },
        {
          "duration": 0.4729166666666629,
          "durationTicks": 227,
          "midi": 74,
          "name": "D5",
          "ticks": 142320,
          "time": 222.50873200000004,
          "velocity": 0.49606299212598426
        },
        {
          "duration": 0.49791666666666856,
          "durationTicks": 239,
          "midi": 74,
          "name": "D5",
          "ticks": 142560,
          "time": 223.00873200000004,
          "velocity": 0.49606299212598426
        },
        {
          "duration": 0.4729166666666629,
          "durationTicks": 227,
          "midi": 64,
          "name": "E4",
          "ticks": 142800,
          "time": 223.50873200000004,
          "velocity": 0.49606299212598426
        },
        {
          "duration": 0.4729166666666629,
          "durationTicks": 227,
          "midi": 67,
          "name": "G4",
          "ticks": 142800,
          "time": 223.50873200000004,
          "velocity": 0.49606299212598426
        },
        {
          "duration": 0.4729166666666629,
          "durationTicks": 227,
          "midi": 69,
          "name": "A4",
          "ticks": 142800,
          "time": 223.50873200000004,
          "velocity": 0.49606299212598426
        },
        {
          "duration": 0.4729166666666629,
          "durationTicks": 227,
          "midi": 73,
          "name": "C#5",
          "ticks": 142800,
          "time": 223.50873200000004,
          "velocity": 0.49606299212598426
        },
        {
          "duration": 1.8979166666666742,
          "durationTicks": 911,
          "midi": 62,
          "name": "D4",
          "ticks": 143040,
          "time": 224.00873200000004,
          "velocity": 0.49606299212598426
        },
        {
          "duration": 1.8979166666666742,
          "durationTicks": 911,
          "midi": 66,
          "name": "F#4",
          "ticks": 143040,
          "time": 224.00873200000004,
          "velocity": 0.49606299212598426
        },
        {
          "duration": 1.8979166666666742,
          "durationTicks": 911,
          "midi": 69,
          "name": "A4",
          "ticks": 143040,
          "time": 224.00873200000004,
          "velocity": 0.49606299212598426
        },
        {
          "duration": 1.8979166666666742,
          "durationTicks": 911,
          "midi": 74,
          "name": "D5",
          "ticks": 143040,
          "time": 224.00873200000004,
          "velocity": 0.49606299212598426
        },
        {
          "duration": 0.025892891666671858,
          "durationTicks": 29,
          "midi": 72,
          "name": "C5",
          "ticks": 144000,
          "time": 226.00873200000004,
          "velocity": 0.49606299212598426
        },
        {
          "duration": 0.025892891666671858,
          "durationTicks": 29,
          "midi": 74,
          "name": "D5",
          "ticks": 144030,
          "time": 226.03551775000003,
          "velocity": 0.49606299212598426
        },
        {
          "duration": 0.025892891666671858,
          "durationTicks": 29,
          "midi": 72,
          "name": "C5",
          "ticks": 144060,
          "time": 226.06230350000004,
          "velocity": 0.49606299212598426
        },
        {
          "duration": 0.05267864166665959,
          "durationTicks": 59,
          "midi": 71,
          "name": "B4",
          "ticks": 144120,
          "time": 226.11587500000005,
          "velocity": 0.49606299212598426
        },
        {
          "duration": 0.05267864166668801,
          "durationTicks": 59,
          "midi": 72,
          "name": "C5",
          "ticks": 144240,
          "time": 226.22301800000002,
          "velocity": 0.49606299212598426
        },
        {
          "duration": 0.05267864166665959,
          "durationTicks": 59,
          "midi": 76,
          "name": "E5",
          "ticks": 144360,
          "time": 226.33016100000003,
          "velocity": 0.49606299212598426
        },
        {
          "duration": 0.05267864166665959,
          "durationTicks": 59,
          "midi": 79,
          "name": "G5",
          "ticks": 144480,
          "time": 226.43730400000004,
          "velocity": 0.49606299212598426
        },
        {
          "duration": 0.05267864166665959,
          "durationTicks": 59,
          "midi": 82,
          "name": "A#5",
          "ticks": 144600,
          "time": 226.54444700000005,
          "velocity": 0.49606299212598426
        },
        {
          "duration": 0.05267864166668801,
          "durationTicks": 59,
          "midi": 79,
          "name": "G5",
          "ticks": 144720,
          "time": 226.65159000000003,
          "velocity": 0.49606299212598426
        },
        {
          "duration": 0.05267864166665959,
          "durationTicks": 59,
          "midi": 76,
          "name": "E5",
          "ticks": 144840,
          "time": 226.75873300000003,
          "velocity": 0.49606299212598426
        },
        {
          "duration": 0.025892891666671858,
          "durationTicks": 29,
          "midi": 72,
          "name": "C5",
          "ticks": 144960,
          "time": 226.86587600000004,
          "velocity": 0.49606299212598426
        },
        {
          "duration": 0.025892891666671858,
          "durationTicks": 29,
          "midi": 74,
          "name": "D5",
          "ticks": 144990,
          "time": 226.89266175000003,
          "velocity": 0.49606299212598426
        },
        {
          "duration": 0.025892891666671858,
          "durationTicks": 29,
          "midi": 72,
          "name": "C5",
          "ticks": 145020,
          "time": 226.91944750000005,
          "velocity": 0.49606299212598426
        },
        {
          "duration": 0.05267864166665959,
          "durationTicks": 59,
          "midi": 71,
          "name": "B4",
          "ticks": 145080,
          "time": 226.97301900000005,
          "velocity": 0.49606299212598426
        },
        {
          "duration": 0.05267864166668801,
          "durationTicks": 59,
          "midi": 72,
          "name": "C5",
          "ticks": 145200,
          "time": 227.08016200000003,
          "velocity": 0.49606299212598426
        },
        {
          "duration": 0.05267864166665959,
          "durationTicks": 59,
          "midi": 76,
          "name": "E5",
          "ticks": 145320,
          "time": 227.18730500000004,
          "velocity": 0.49606299212598426
        },
        {
          "duration": 0.05267864166665959,
          "durationTicks": 59,
          "midi": 79,
          "name": "G5",
          "ticks": 145440,
          "time": 227.29444800000005,
          "velocity": 0.49606299212598426
        },
        {
          "duration": 0.05267864166668801,
          "durationTicks": 59,
          "midi": 82,
          "name": "A#5",
          "ticks": 145560,
          "time": 227.40159100000002,
          "velocity": 0.49606299212598426
        },
        {
          "duration": 0.05267864166665959,
          "durationTicks": 59,
          "midi": 79,
          "name": "G5",
          "ticks": 145680,
          "time": 227.50873400000003,
          "velocity": 0.49606299212598426
        },
        {
          "duration": 0.05267864166665959,
          "durationTicks": 59,
          "midi": 76,
          "name": "E5",
          "ticks": 145800,
          "time": 227.61587700000004,
          "velocity": 0.49606299212598426
        },
        {
          "duration": 0.05267864166665959,
          "durationTicks": 59,
          "midi": 70,
          "name": "A#4",
          "ticks": 145920,
          "time": 227.72302000000005,
          "velocity": 0.49606299212598426
        },
        {
          "duration": 0.05267864166668801,
          "durationTicks": 59,
          "midi": 69,
          "name": "A4",
          "ticks": 146040,
          "time": 227.83016300000003,
          "velocity": 0.49606299212598426
        },
        {
          "duration": 0.05267864166665959,
          "durationTicks": 59,
          "midi": 70,
          "name": "A#4",
          "ticks": 146160,
          "time": 227.93730600000004,
          "velocity": 0.49606299212598426
        },
        {
          "duration": 0.05267864166665959,
          "durationTicks": 59,
          "midi": 72,
          "name": "C5",
          "ticks": 146280,
          "time": 228.04444900000004,
          "velocity": 0.49606299212598426
        },
        {
          "duration": 0.05267864166665959,
          "durationTicks": 59,
          "midi": 74,
          "name": "D5",
          "ticks": 146400,
          "time": 228.15159200000005,
          "velocity": 0.49606299212598426
        },
        {
          "duration": 0.05267864166668801,
          "durationTicks": 59,
          "midi": 76,
          "name": "E5",
          "ticks": 146520,
          "time": 228.25873500000003,
          "velocity": 0.49606299212598426
        },
        {
          "duration": 0.05267864166665959,
          "durationTicks": 59,
          "midi": 77,
          "name": "F5",
          "ticks": 146640,
          "time": 228.36587800000004,
          "velocity": 0.49606299212598426
        },
        {
          "duration": 0.05267864166665959,
          "durationTicks": 59,
          "midi": 79,
          "name": "G5",
          "ticks": 146760,
          "time": 228.47302100000005,
          "velocity": 0.49606299212598426
        },
        {
          "duration": 0.6098222416666772,
          "durationTicks": 683,
          "midi": 81,
          "name": "A5",
          "ticks": 146880,
          "time": 228.58016400000002,
          "velocity": 0.49606299212598426
        },
        {
          "duration": 0.05267864166668801,
          "durationTicks": 59,
          "midi": 70,
          "name": "A#4",
          "ticks": 147840,
          "time": 229.43730800000003,
          "velocity": 0.49606299212598426
        },
        {
          "duration": 0.025892891666671858,
          "durationTicks": 29,
          "midi": 69,
          "name": "A4",
          "ticks": 147900,
          "time": 229.49087950000003,
          "velocity": 0.49606299212598426
        },
        {
          "duration": 0.05267864166665959,
          "durationTicks": 59,
          "midi": 68,
          "name": "G#4",
          "ticks": 147960,
          "time": 229.54445100000004,
          "velocity": 0.49606299212598426
        },
        {
          "duration": 0.05267864166665959,
          "durationTicks": 59,
          "midi": 69,
          "name": "A4",
          "ticks": 148080,
          "time": 229.65159400000005,
          "velocity": 0.49606299212598426
        },
        {
          "duration": 0.05267864166668801,
          "durationTicks": 59,
          "midi": 73,
          "name": "C#5",
          "ticks": 148200,
          "time": 229.75873700000002,
          "velocity": 0.49606299212598426
        },
        {
          "duration": 0.05267864166665959,
          "durationTicks": 59,
          "midi": 76,
          "name": "E5",
          "ticks": 148320,
          "time": 229.86588000000003,
          "velocity": 0.49606299212598426
        },
        {
          "duration": 0.05267864166665959,
          "durationTicks": 59,
          "midi": 79,
          "name": "G5",
          "ticks": 148440,
          "time": 229.97302300000004,
          "velocity": 0.49606299212598426
        },
        {
          "duration": 0.05267864166665959,
          "durationTicks": 59,
          "midi": 76,
          "name": "E5",
          "ticks": 148560,
          "time": 230.08016600000005,
          "velocity": 0.49606299212598426
        },
        {
          "duration": 0.05267864166668801,
          "durationTicks": 59,
          "midi": 73,
          "name": "C#5",
          "ticks": 148680,
          "time": 230.18730900000003,
          "velocity": 0.49606299212598426
        },
        {
          "duration": 0.05267864166665959,
          "durationTicks": 59,
          "midi": 70,
          "name": "A#4",
          "ticks": 148800,
          "time": 230.29445200000004,
          "velocity": 0.49606299212598426
        },
        {
          "duration": 0.025892891666671858,
          "durationTicks": 29,
          "midi": 69,
          "name": "A4",
          "ticks": 148860,
          "time": 230.34802350000004,
          "velocity": 0.49606299212598426
        },
        {
          "duration": 0.05267864166665959,
          "durationTicks": 59,
          "midi": 68,
          "name": "G#4",
          "ticks": 148920,
          "time": 230.40159500000004,
          "velocity": 0.5039370078740157
        },
        {
          "duration": 0.05267864166665959,
          "durationTicks": 59,
          "midi": 69,
          "name": "A4",
          "ticks": 149040,
          "time": 230.50873800000005,
          "velocity": 0.5118110236220472
        },
        {
          "duration": 0.05267864166668801,
          "durationTicks": 59,
          "midi": 73,
          "name": "C#5",
          "ticks": 149160,
          "time": 230.61588100000003,
          "velocity": 0.5196850393700787
        },
        {
          "duration": 0.05267864166665959,
          "durationTicks": 59,
          "midi": 76,
          "name": "E5",
          "ticks": 149280,
          "time": 230.72302400000004,
          "velocity": 0.5275590551181102
        },
        {
          "duration": 0.05267864166665959,
          "durationTicks": 59,
          "midi": 79,
          "name": "G5",
          "ticks": 149400,
          "time": 230.83016700000005,
          "velocity": 0.5354330708661418
        },
        {
          "duration": 0.05267864166668801,
          "durationTicks": 59,
          "midi": 76,
          "name": "E5",
          "ticks": 149520,
          "time": 230.93731000000002,
          "velocity": 0.5433070866141733
        },
        {
          "duration": 0.05267864166665959,
          "durationTicks": 59,
          "midi": 73,
          "name": "C#5",
          "ticks": 149640,
          "time": 231.04445300000003,
          "velocity": 0.5511811023622047
        },
        {
          "duration": 0.05267864166665959,
          "durationTicks": 59,
          "midi": 69,
          "name": "A4",
          "ticks": 149760,
          "time": 231.15159600000004,
          "velocity": 0.5590551181102362
        },
        {
          "duration": 0.025892891666671858,
          "durationTicks": 29,
          "midi": 69,
          "name": "A4",
          "ticks": 149820,
          "time": 231.20516750000004,
          "velocity": 0.5590551181102362
        },
        {
          "duration": 0.05267864166665959,
          "durationTicks": 59,
          "midi": 68,
          "name": "G#4",
          "ticks": 149880,
          "time": 231.25873900000005,
          "velocity": 0.5669291338582677
        },
        {
          "duration": 0.05267864166668801,
          "durationTicks": 59,
          "midi": 69,
          "name": "A4",
          "ticks": 150000,
          "time": 231.36588200000003,
          "velocity": 0.5826771653543307
        },
        {
          "duration": 0.05267864166665959,
          "durationTicks": 59,
          "midi": 71,
          "name": "B4",
          "ticks": 150120,
          "time": 231.47302500000004,
          "velocity": 0.5905511811023622
        },
        {
          "duration": 0.05267864166665959,
          "durationTicks": 59,
          "midi": 73,
          "name": "C#5",
          "ticks": 150240,
          "time": 231.58016800000004,
          "velocity": 0.5984251968503937
        },
        {
          "duration": 0.05267864166665959,
          "durationTicks": 59,
          "midi": 74,
          "name": "D5",
          "ticks": 150360,
          "time": 231.68731100000005,
          "velocity": 0.6062992125984252
        },
        {
          "duration": 0.05267864166665959,
          "durationTicks": 59,
          "midi": 76,
          "name": "E5",
          "ticks": 150480,
          "time": 231.79445400000003,
          "velocity": 0.6141732283464567
        },
        {
          "duration": 0.05267864166665959,
          "durationTicks": 59,
          "midi": 74,
          "name": "D5",
          "ticks": 150600,
          "time": 231.90159700000004,
          "velocity": 0.6220472440944882
        },
        {
          "duration": 0.6098222416666488,
          "durationTicks": 683,
          "midi": 77,
          "name": "F5",
          "ticks": 150720,
          "time": 232.00874000000005,
          "velocity": 0.6299212598425197
        },
        {
          "duration": 0.05267864166665959,
          "durationTicks": 59,
          "midi": 82,
          "name": "A#5",
          "ticks": 151680,
          "time": 232.86588400000005,
          "velocity": 0.6692913385826772
        },
        {
          "duration": 0.05267864166665959,
          "durationTicks": 59,
          "midi": 81,
          "name": "A5",
          "ticks": 151800,
          "time": 232.97302700000003,
          "velocity": 0.6692913385826772
        },
        {
          "duration": 0.05267864166665959,
          "durationTicks": 59,
          "midi": 79,
          "name": "G5",
          "ticks": 151920,
          "time": 233.08017000000004,
          "velocity": 0.6692913385826772
        },
        {
          "duration": 0.05267864166665959,
          "durationTicks": 59,
          "midi": 81,
          "name": "A5",
          "ticks": 152040,
          "time": 233.18731300000005,
          "velocity": 0.6692913385826772
        },
        {
          "duration": 0.05267864166668801,
          "durationTicks": 59,
          "midi": 82,
          "name": "A#5",
          "ticks": 152160,
          "time": 233.29445600000003,
          "velocity": 0.6692913385826772
        },
        {
          "duration": 0.05267864166665959,
          "durationTicks": 59,
          "midi": 81,
          "name": "A5",
          "ticks": 152280,
          "time": 233.40159900000003,
          "velocity": 0.6692913385826772
        },
        {
          "duration": 0.05267864166665959,
          "durationTicks": 59,
          "midi": 79,
          "name": "G5",
          "ticks": 152400,
          "time": 233.50874200000004,
          "velocity": 0.6692913385826772
        },
        {
          "duration": 0.05267864166665959,
          "durationTicks": 59,
          "midi": 81,
          "name": "A5",
          "ticks": 152520,
          "time": 233.61588500000005,
          "velocity": 0.6692913385826772
        },
        {
          "duration": 0.05267864166668801,
          "durationTicks": 59,
          "midi": 82,
          "name": "A#5",
          "ticks": 152640,
          "time": 233.72302800000003,
          "velocity": 0.6692913385826772
        },
        {
          "duration": 0.05267864166665959,
          "durationTicks": 59,
          "midi": 81,
          "name": "A5",
          "ticks": 152760,
          "time": 233.83017100000004,
          "velocity": 0.6692913385826772
        },
        {
          "duration": 0.05267864166665959,
          "durationTicks": 59,
          "midi": 79,
          "name": "G5",
          "ticks": 152880,
          "time": 233.93731400000004,
          "velocity": 0.6692913385826772
        },
        {
          "duration": 0.05267864166668801,
          "durationTicks": 59,
          "midi": 81,
          "name": "A5",
          "ticks": 153000,
          "time": 234.04445700000002,
          "velocity": 0.6692913385826772
        },
        {
          "duration": 0.05267864166665959,
          "durationTicks": 59,
          "midi": 82,
          "name": "A#5",
          "ticks": 153120,
          "time": 234.15160000000003,
          "velocity": 0.6692913385826772
        },
        {
          "duration": 0.05267864166665959,
          "durationTicks": 59,
          "midi": 81,
          "name": "A5",
          "ticks": 153240,
          "time": 234.25874300000004,
          "velocity": 0.6692913385826772
        },
        {
          "duration": 0.05267864166665959,
          "durationTicks": 59,
          "midi": 79,
          "name": "G5",
          "ticks": 153360,
          "time": 234.36588600000005,
          "velocity": 0.6692913385826772
        },
        {
          "duration": 0.05267864166668801,
          "durationTicks": 59,
          "midi": 82,
          "name": "A#5",
          "ticks": 153480,
          "time": 234.47302900000003,
          "velocity": 0.6692913385826772
        },
        {
          "duration": 0.05267864166665959,
          "durationTicks": 59,
          "midi": 81,
          "name": "A5",
          "ticks": 153600,
          "time": 234.58017200000003,
          "velocity": 0.6692913385826772
        },
        {
          "duration": 0.05267864166665959,
          "durationTicks": 59,
          "midi": 79,
          "name": "G5",
          "ticks": 153720,
          "time": 234.68731500000004,
          "velocity": 0.6692913385826772
        },
        {
          "duration": 0.05267864166665959,
          "durationTicks": 59,
          "midi": 77,
          "name": "F5",
          "ticks": 153840,
          "time": 234.79445800000005,
          "velocity": 0.6692913385826772
        },
        {
          "duration": 0.05267864166668801,
          "durationTicks": 59,
          "midi": 79,
          "name": "G5",
          "ticks": 153960,
          "time": 234.90160100000003,
          "velocity": 0.6692913385826772
        },
        {
          "duration": 0.05267864166665959,
          "durationTicks": 59,
          "midi": 81,
          "name": "A5",
          "ticks": 154080,
          "time": 235.00874400000004,
          "velocity": 0.6692913385826772
        },
        {
          "duration": 0.05267864166665959,
          "durationTicks": 59,
          "midi": 79,
          "name": "G5",
          "ticks": 154200,
          "time": 235.11588700000004,
          "velocity": 0.6692913385826772
        },
        {
          "duration": 0.05267864166665959,
          "durationTicks": 59,
          "midi": 77,
          "name": "F5",
          "ticks": 154320,
          "time": 235.22303000000005,
          "velocity": 0.6692913385826772
        },
        {
          "duration": 0.05267864166668801,
          "durationTicks": 59,
          "midi": 79,
          "name": "G5",
          "ticks": 154440,
          "time": 235.33017300000003,
          "velocity": 0.6692913385826772
        },
        {
          "duration": 0.05267864166665959,
          "durationTicks": 59,
          "midi": 81,
          "name": "A5",
          "ticks": 154560,
          "time": 235.43731600000004,
          "velocity": 0.6692913385826772
        },
        {
          "duration": 0.05267864166665959,
          "durationTicks": 59,
          "midi": 79,
          "name": "G5",
          "ticks": 154680,
          "time": 235.54445900000005,
          "velocity": 0.6692913385826772
        },
        {
          "duration": 0.05267864166668801,
          "durationTicks": 59,
          "midi": 77,
          "name": "F5",
          "ticks": 154800,
          "time": 235.65160200000003,
          "velocity": 0.6692913385826772
        },
        {
          "duration": 0.05267864166665959,
          "durationTicks": 59,
          "midi": 79,
          "name": "G5",
          "ticks": 154920,
          "time": 235.75874500000003,
          "velocity": 0.6692913385826772
        },
        {
          "duration": 0.05267864166665959,
          "durationTicks": 59,
          "midi": 81,
          "name": "A5",
          "ticks": 155040,
          "time": 235.86588800000004,
          "velocity": 0.6692913385826772
        },
        {
          "duration": 0.05267864166665959,
          "durationTicks": 59,
          "midi": 79,
          "name": "G5",
          "ticks": 155160,
          "time": 235.97303100000005,
          "velocity": 0.6692913385826772
        },
        {
          "duration": 0.05267864166668801,
          "durationTicks": 59,
          "midi": 77,
          "name": "F5",
          "ticks": 155280,
          "time": 236.08017400000003,
          "velocity": 0.6692913385826772
        },
        {
          "duration": 0.05267864166665959,
          "durationTicks": 59,
          "midi": 81,
          "name": "A5",
          "ticks": 155400,
          "time": 236.18731700000004,
          "velocity": 0.6692913385826772
        },
        {
          "duration": 0.05267864166665959,
          "durationTicks": 59,
          "midi": 69,
          "name": "A4",
          "ticks": 155520,
          "time": 236.29446000000004,
          "velocity": 0.6692913385826772
        },
        {
          "duration": 0.05267864166668801,
          "durationTicks": 59,
          "midi": 71,
          "name": "B4",
          "ticks": 155640,
          "time": 236.40160300000002,
          "velocity": 0.6692913385826772
        },
        {
          "duration": 0.05267864166665959,
          "durationTicks": 59,
          "midi": 73,
          "name": "C#5",
          "ticks": 155760,
          "time": 236.50874600000003,
          "velocity": 0.6692913385826772
        },
        {
          "duration": 0.05267864166665959,
          "durationTicks": 59,
          "midi": 74,
          "name": "D5",
          "ticks": 155880,
          "time": 236.61588900000004,
          "velocity": 0.6692913385826772
        },
        {
          "duration": 0.05267864166665959,
          "durationTicks": 59,
          "midi": 76,
          "name": "E5",
          "ticks": 156000,
          "time": 236.72303200000005,
          "velocity": 0.6692913385826772
        },
        {
          "duration": 0.05267864166668801,
          "durationTicks": 59,
          "midi": 77,
          "name": "F5",
          "ticks": 156120,
          "time": 236.83017500000003,
          "velocity": 0.6692913385826772
        },
        {
          "duration": 0.05267864166665959,
          "durationTicks": 59,
          "midi": 79,
          "name": "G5",
          "ticks": 156240,
          "time": 236.93731800000003,
          "velocity": 0.6692913385826772
        },
        {
          "duration": 0.05267864166665959,
          "durationTicks": 59,
          "midi": 81,
          "name": "A5",
          "ticks": 156360,
          "time": 237.04446100000004,
          "velocity": 0.6692913385826772
        },
        {
          "duration": 0.05267864166665959,
          "durationTicks": 59,
          "midi": 82,
          "name": "A#5",
          "ticks": 156480,
          "time": 237.15160400000005,
          "velocity": 0.6692913385826772
        },
        {
          "duration": 0.05267864166668801,
          "durationTicks": 59,
          "midi": 81,
          "name": "A5",
          "ticks": 156600,
          "time": 237.25874700000003,
          "velocity": 0.6692913385826772
        },
        {
          "duration": 0.05267864166665959,
          "durationTicks": 59,
          "midi": 80,
          "name": "G#5",
          "ticks": 156720,
          "time": 237.36589000000004,
          "velocity": 0.6692913385826772
        },
        {
          "duration": 0.05267864166665959,
          "durationTicks": 59,
          "midi": 81,
          "name": "A5",
          "ticks": 156840,
          "time": 237.47303300000004,
          "velocity": 0.6692913385826772
        },
        {
          "duration": 0.05267864166665959,
          "durationTicks": 59,
          "midi": 80,
          "name": "G#5",
          "ticks": 156960,
          "time": 237.58017600000005,
          "velocity": 0.6692913385826772
        },
        {
          "duration": 0.05267864166668801,
          "durationTicks": 59,
          "midi": 81,
          "name": "A5",
          "ticks": 157080,
          "time": 237.68731900000003,
          "velocity": 0.6692913385826772
        },
        {
          "duration": 0.05267864166665959,
          "durationTicks": 59,
          "midi": 83,
          "name": "B5",
          "ticks": 157200,
          "time": 237.79446200000004,
          "velocity": 0.6692913385826772
        },
        {
          "duration": 0.05267864166665959,
          "durationTicks": 59,
          "midi": 85,
          "name": "C#6",
          "ticks": 157320,
          "time": 237.90160500000005,
          "velocity": 0.6692913385826772
        },
        {
          "duration": 0.2579552333333197,
          "durationTicks": 227,
          "midi": 86,
          "name": "D6",
          "ticks": 157440,
          "time": 238.00874800000003,
          "velocity": 0.6692913385826772
        },
        {
          "duration": 0.2579552333333197,
          "durationTicks": 227,
          "midi": 74,
          "name": "D5",
          "ticks": 159360,
          "time": 240.19057200000003,
          "velocity": 0.6692913385826772
        },
        {
          "duration": 0.5443196333333162,
          "durationTicks": 479,
          "midi": 86,
          "name": "D6",
          "ticks": 159600,
          "time": 240.46330000000003,
          "velocity": 0.8031496062992126
        },
        {
          "duration": 0.5306832333333205,
          "durationTicks": 467,
          "midi": 83,
          "name": "B5",
          "ticks": 160080,
          "time": 241.00875600000003,
          "velocity": 0.8031496062992126
        },
        {
          "duration": 0.5443196333333162,
          "durationTicks": 479,
          "midi": 81,
          "name": "A5",
          "ticks": 160560,
          "time": 241.55421200000004,
          "velocity": 0.6692913385826772
        },
        {
          "duration": 0.2579552333333197,
          "durationTicks": 227,
          "midi": 78,
          "name": "F#5",
          "ticks": 161040,
          "time": 242.09966800000004,
          "velocity": 0.6692913385826772
        },
        {
          "duration": 0.2579552333333197,
          "durationTicks": 227,
          "midi": 76,
          "name": "E5",
          "ticks": 161280,
          "time": 242.37239600000004,
          "velocity": 0.6692913385826772
        },
        {
          "duration": 0.5443196333333162,
          "durationTicks": 479,
          "midi": 74,
          "name": "D5",
          "ticks": 161520,
          "time": 242.64512400000004,
          "velocity": 0.8031496062992126
        },
        {
          "duration": 0.25795523333334813,
          "durationTicks": 227,
          "midi": 73,
          "name": "C#5",
          "ticks": 162000,
          "time": 243.19058,
          "velocity": 0.6692913385826772
        },
        {
          "duration": 0.7761384333333581,
          "durationTicks": 683,
          "midi": 74,
          "name": "D5",
          "ticks": 162240,
          "time": 243.463308,
          "velocity": 0.6692913385826772
        },
        {
          "duration": 0.05267864166665959,
          "durationTicks": 59,
          "midi": 74,
          "name": "D5",
          "ticks": 163200,
          "time": 244.55422000000002,
          "velocity": 0.6692913385826772
        },
        {
          "duration": 0.05267864166665959,
          "durationTicks": 59,
          "midi": 76,
          "name": "E5",
          "ticks": 163320,
          "time": 244.66136300000002,
          "velocity": 0.6692913385826772
        },
        {
          "duration": 0.05267864166668801,
          "durationTicks": 59,
          "midi": 78,
          "name": "F#5",
          "ticks": 163440,
          "time": 244.768506,
          "velocity": 0.6692913385826772
        },
        {
          "duration": 0.05267864166665959,
          "durationTicks": 59,
          "midi": 76,
          "name": "E5",
          "ticks": 163560,
          "time": 244.875649,
          "velocity": 0.6692913385826772
        },
        {
          "duration": 0.05267864166665959,
          "durationTicks": 59,
          "midi": 74,
          "name": "D5",
          "ticks": 163680,
          "time": 244.98279200000002,
          "velocity": 0.6692913385826772
        },
        {
          "duration": 0.05267864166665959,
          "durationTicks": 59,
          "midi": 76,
          "name": "E5",
          "ticks": 163800,
          "time": 245.08993500000003,
          "velocity": 0.6692913385826772
        },
        {
          "duration": 0.05267864166668801,
          "durationTicks": 59,
          "midi": 78,
          "name": "F#5",
          "ticks": 163920,
          "time": 245.197078,
          "velocity": 0.6692913385826772
        },
        {
          "duration": 0.05267864166665959,
          "durationTicks": 59,
          "midi": 76,
          "name": "E5",
          "ticks": 164040,
          "time": 245.304221,
          "velocity": 0.6692913385826772
        },
        {
          "duration": 0.05267864166665959,
          "durationTicks": 59,
          "midi": 74,
          "name": "D5",
          "ticks": 164160,
          "time": 245.41136400000002,
          "velocity": 0.6692913385826772
        },
        {
          "duration": 0.05267864166665959,
          "durationTicks": 59,
          "midi": 76,
          "name": "E5",
          "ticks": 164280,
          "time": 245.51850700000003,
          "velocity": 0.6692913385826772
        },
        {
          "duration": 0.05267864166668801,
          "durationTicks": 59,
          "midi": 78,
          "name": "F#5",
          "ticks": 164400,
          "time": 245.62565,
          "velocity": 0.6692913385826772
        },
        {
          "duration": 0.05267864166665959,
          "durationTicks": 59,
          "midi": 76,
          "name": "E5",
          "ticks": 164520,
          "time": 245.73279300000002,
          "velocity": 0.6692913385826772
        },
        {
          "duration": 0.05267864166665959,
          "durationTicks": 59,
          "midi": 74,
          "name": "D5",
          "ticks": 164640,
          "time": 245.83993600000002,
          "velocity": 0.6692913385826772
        },
        {
          "duration": 0.05267864166668801,
          "durationTicks": 59,
          "midi": 76,
          "name": "E5",
          "ticks": 164760,
          "time": 245.947079,
          "velocity": 0.6692913385826772
        },
        {
          "duration": 0.05267864166665959,
          "durationTicks": 59,
          "midi": 78,
          "name": "F#5",
          "ticks": 164880,
          "time": 246.054222,
          "velocity": 0.6692913385826772
        },
        {
          "duration": 0.05267864166665959,
          "durationTicks": 59,
          "midi": 76,
          "name": "E5",
          "ticks": 165000,
          "time": 246.16136500000002,
          "velocity": 0.6692913385826772
        },
        {
          "duration": 0.2026788416666534,
          "durationTicks": 227,
          "midi": 78,
          "name": "F#5",
          "ticks": 165120,
          "time": 246.26850800000003,
          "velocity": 0.6692913385826772
        },
        {
          "duration": 0.4276791416666583,
          "durationTicks": 479,
          "midi": 76,
          "name": "E5",
          "ticks": 165360,
          "time": 246.482794,
          "velocity": 0.8031496062992126
        },
        {
          "duration": 0.2026788416666534,
          "durationTicks": 227,
          "midi": 75,
          "name": "D#5",
          "ticks": 165840,
          "time": 246.91136600000002,
          "velocity": 0.6692913385826772
        },
        {
          "duration": 0.6098222416666772,
          "durationTicks": 683,
          "midi": 76,
          "name": "E5",
          "ticks": 166080,
          "time": 247.125652,
          "velocity": 0.6692913385826772
        },
        {
          "duration": 0.05267864166668801,
          "durationTicks": 59,
          "midi": 79,
          "name": "G5",
          "ticks": 167040,
          "time": 247.982796,
          "velocity": 0.3858267716535433
        },
        {
          "duration": 0.05267864166665959,
          "durationTicks": 59,
          "midi": 81,
          "name": "A5",
          "ticks": 167160,
          "time": 248.08993900000002,
          "velocity": 0.3858267716535433
        },
        {
          "duration": 0.05267864166665959,
          "durationTicks": 59,
          "midi": 83,
          "name": "B5",
          "ticks": 167280,
          "time": 248.19708200000002,
          "velocity": 0.3858267716535433
        },
        {
          "duration": 0.05267864166668801,
          "durationTicks": 59,
          "midi": 81,
          "name": "A5",
          "ticks": 167400,
          "time": 248.304225,
          "velocity": 0.3858267716535433
        },
        {
          "duration": 0.05267864166665959,
          "durationTicks": 59,
          "midi": 79,
          "name": "G5",
          "ticks": 167520,
          "time": 248.411368,
          "velocity": 0.3858267716535433
        },
        {
          "duration": 0.05267864166665959,
          "durationTicks": 59,
          "midi": 81,
          "name": "A5",
          "ticks": 167640,
          "time": 248.51851100000002,
          "velocity": 0.3858267716535433
        },
        {
          "duration": 0.05267864166665959,
          "durationTicks": 59,
          "midi": 83,
          "name": "B5",
          "ticks": 167760,
          "time": 248.62565400000003,
          "velocity": 0.3858267716535433
        },
        {
          "duration": 0.05267864166668801,
          "durationTicks": 59,
          "midi": 81,
          "name": "A5",
          "ticks": 167880,
          "time": 248.732797,
          "velocity": 0.3858267716535433
        },
        {
          "duration": 0.05267864166665959,
          "durationTicks": 59,
          "midi": 79,
          "name": "G5",
          "ticks": 168000,
          "time": 248.83994,
          "velocity": 0.3858267716535433
        },
        {
          "duration": 0.05267864166665959,
          "durationTicks": 59,
          "midi": 81,
          "name": "A5",
          "ticks": 168120,
          "time": 248.94708300000002,
          "velocity": 0.4251968503937008
        },
        {
          "duration": 0.05267864166665959,
          "durationTicks": 59,
          "midi": 83,
          "name": "B5",
          "ticks": 168240,
          "time": 249.05422600000003,
          "velocity": 0.47244094488188976
        },
        {
          "duration": 0.05267864166668801,
          "durationTicks": 59,
          "midi": 81,
          "name": "A5",
          "ticks": 168360,
          "time": 249.161369,
          "velocity": 0.5196850393700787
        },
        {
          "duration": 0.05267864166665959,
          "durationTicks": 59,
          "midi": 79,
          "name": "G5",
          "ticks": 168480,
          "time": 249.26851200000002,
          "velocity": 0.5669291338582677
        },
        {
          "duration": 0.05267864166665959,
          "durationTicks": 59,
          "midi": 83,
          "name": "B5",
          "ticks": 168600,
          "time": 249.37565500000002,
          "velocity": 0.6141732283464567
        },
        {
          "duration": 0.05267864166668801,
          "durationTicks": 59,
          "midi": 81,
          "name": "A5",
          "ticks": 168720,
          "time": 249.482798,
          "velocity": 0.6614173228346457
        },
        {
          "duration": 0.05267864166665959,
          "durationTicks": 59,
          "midi": 79,
          "name": "G5",
          "ticks": 168840,
          "time": 249.589941,
          "velocity": 0.7086614173228346
        },
        {
          "duration": 0.05267864166665959,
          "durationTicks": 59,
          "midi": 78,
          "name": "F#5",
          "ticks": 168960,
          "time": 249.69708400000002,
          "velocity": 0.7559055118110236
        },
        {
          "duration": 0.05267864166665959,
          "durationTicks": 59,
          "midi": 79,
          "name": "G5",
          "ticks": 169080,
          "time": 249.80422700000003,
          "velocity": 0.7559055118110236
        },
        {
          "duration": 0.05267864166668801,
          "durationTicks": 59,
          "midi": 81,
          "name": "A5",
          "ticks": 169200,
          "time": 249.91137,
          "velocity": 0.7559055118110236
        },
        {
          "duration": 0.05267864166665959,
          "durationTicks": 59,
          "midi": 79,
          "name": "G5",
          "ticks": 169320,
          "time": 250.018513,
          "velocity": 0.7559055118110236
        },
        {
          "duration": 0.05267864166665959,
          "durationTicks": 59,
          "midi": 78,
          "name": "F#5",
          "ticks": 169440,
          "time": 250.12565600000002,
          "velocity": 0.7559055118110236
        },
        {
          "duration": 0.05267864166665959,
          "durationTicks": 59,
          "midi": 79,
          "name": "G5",
          "ticks": 169560,
          "time": 250.23279900000003,
          "velocity": 0.7559055118110236
        },
        {
          "duration": 0.05267864166665959,
          "durationTicks": 59,
          "midi": 81,
          "name": "A5",
          "ticks": 169680,
          "time": 250.339942,
          "velocity": 0.7559055118110236
        },
        {
          "duration": 0.05267864166665959,
          "durationTicks": 59,
          "midi": 79,
          "name": "G5",
          "ticks": 169800,
          "time": 250.44708500000002,
          "velocity": 0.7559055118110236
        },
        {
          "duration": 0.05267864166665959,
          "durationTicks": 59,
          "midi": 78,
          "name": "F#5",
          "ticks": 169920,
          "time": 250.55422800000002,
          "velocity": 0.7559055118110236
        },
        {
          "duration": 0.05267864166668801,
          "durationTicks": 59,
          "midi": 79,
          "name": "G5",
          "ticks": 170040,
          "time": 250.661371,
          "velocity": 0.7559055118110236
        },
        {
          "duration": 0.05267864166665959,
          "durationTicks": 59,
          "midi": 81,
          "name": "A5",
          "ticks": 170160,
          "time": 250.768514,
          "velocity": 0.7559055118110236
        },
        {
          "duration": 0.05267864166665959,
          "durationTicks": 59,
          "midi": 79,
          "name": "G5",
          "ticks": 170280,
          "time": 250.87565700000002,
          "velocity": 0.7559055118110236
        },
        {
          "duration": 0.05267864166665959,
          "durationTicks": 59,
          "midi": 78,
          "name": "F#5",
          "ticks": 170400,
          "time": 250.98280000000003,
          "velocity": 0.7559055118110236
        },
        {
          "duration": 0.05267864166668801,
          "durationTicks": 59,
          "midi": 79,
          "name": "G5",
          "ticks": 170520,
          "time": 251.089943,
          "velocity": 0.7559055118110236
        },
        {
          "duration": 0.05267864166665959,
          "durationTicks": 59,
          "midi": 81,
          "name": "A5",
          "ticks": 170640,
          "time": 251.197086,
          "velocity": 0.7559055118110236
        },
        {
          "duration": 0.05267864166665959,
          "durationTicks": 59,
          "midi": 78,
          "name": "F#5",
          "ticks": 170760,
          "time": 251.30422900000002,
          "velocity": 0.7559055118110236
        },
        {
          "duration": 0.05267864166665959,
          "durationTicks": 59,
          "midi": 76,
          "name": "E5",
          "ticks": 170880,
          "time": 251.41137200000003,
          "velocity": 0.7559055118110236
        },
        {
          "duration": 0.05267864166665959,
          "durationTicks": 59,
          "midi": 78,
          "name": "F#5",
          "ticks": 171000,
          "time": 251.518515,
          "velocity": 0.7559055118110236
        },
        {
          "duration": 0.05267864166665959,
          "durationTicks": 59,
          "midi": 80,
          "name": "G#5",
          "ticks": 171120,
          "time": 251.62565800000002,
          "velocity": 0.7559055118110236
        },
        {
          "duration": 0.05267864166665959,
          "durationTicks": 59,
          "midi": 78,
          "name": "F#5",
          "ticks": 171240,
          "time": 251.73280100000002,
          "velocity": 0.7559055118110236
        },
        {
          "duration": 0.05267864166668801,
          "durationTicks": 59,
          "midi": 76,
          "name": "E5",
          "ticks": 171360,
          "time": 251.839944,
          "velocity": 0.7559055118110236
        },
        {
          "duration": 0.05267864166665959,
          "durationTicks": 59,
          "midi": 78,
          "name": "F#5",
          "ticks": 171480,
          "time": 251.947087,
          "velocity": 0.7559055118110236
        },
        {
          "duration": 0.05267864166665959,
          "durationTicks": 59,
          "midi": 80,
          "name": "G#5",
          "ticks": 171600,
          "time": 252.05423000000002,
          "velocity": 0.7559055118110236
        },
        {
          "duration": 0.05267864166665959,
          "durationTicks": 59,
          "midi": 78,
          "name": "F#5",
          "ticks": 171720,
          "time": 252.16137300000003,
          "velocity": 0.7559055118110236
        },
        {
          "duration": 0.05267864166668801,
          "durationTicks": 59,
          "midi": 76,
          "name": "E5",
          "ticks": 171840,
          "time": 252.268516,
          "velocity": 0.7559055118110236
        },
        {
          "duration": 0.05267864166665959,
          "durationTicks": 59,
          "midi": 78,
          "name": "F#5",
          "ticks": 171960,
          "time": 252.375659,
          "velocity": 0.7559055118110236
        },
        {
          "duration": 0.05267864166665959,
          "durationTicks": 59,
          "midi": 80,
          "name": "G#5",
          "ticks": 172080,
          "time": 252.48280200000002,
          "velocity": 0.7559055118110236
        },
        {
          "duration": 0.05267864166668801,
          "durationTicks": 59,
          "midi": 78,
          "name": "F#5",
          "ticks": 172200,
          "time": 252.589945,
          "velocity": 0.7559055118110236
        },
        {
          "duration": 0.05267864166665959,
          "durationTicks": 59,
          "midi": 76,
          "name": "E5",
          "ticks": 172320,
          "time": 252.697088,
          "velocity": 0.7559055118110236
        },
        {
          "duration": 0.05267864166665959,
          "durationTicks": 59,
          "midi": 78,
          "name": "F#5",
          "ticks": 172440,
          "time": 252.80423100000002,
          "velocity": 0.7559055118110236
        },
        {
          "duration": 0.05267864166665959,
          "durationTicks": 59,
          "midi": 80,
          "name": "G#5",
          "ticks": 172560,
          "time": 252.91137400000002,
          "velocity": 0.7559055118110236
        },
        {
          "duration": 0.05267864166668801,
          "durationTicks": 59,
          "midi": 76,
          "name": "E5",
          "ticks": 172680,
          "time": 253.018517,
          "velocity": 0.7559055118110236
        },
        {
          "duration": 0.20267884166668182,
          "durationTicks": 227,
          "midi": 81,
          "name": "A5",
          "ticks": 172800,
          "time": 253.12566,
          "velocity": 0.7559055118110236
        },
        {
          "duration": 0.4062505416666511,
          "durationTicks": 455,
          "midi": 69,
          "name": "A4",
          "ticks": 173040,
          "time": 253.33994600000003,
          "velocity": 0.7559055118110236
        },
        {
          "duration": 0.4062505416666511,
          "durationTicks": 455,
          "midi": 73,
          "name": "C#5",
          "ticks": 173040,
          "time": 253.33994600000003,
          "velocity": 0.7559055118110236
        },
        {
          "duration": 0.4062505416666511,
          "durationTicks": 455,
          "midi": 76,
          "name": "E5",
          "ticks": 173040,
          "time": 253.33994600000003,
          "velocity": 0.7559055118110236
        },
        {
          "duration": 0.4062505416666511,
          "durationTicks": 455,
          "midi": 81,
          "name": "A5",
          "ticks": 173040,
          "time": 253.33994600000003,
          "velocity": 0.7559055118110236
        },
        {
          "duration": 0.2026788416666534,
          "durationTicks": 227,
          "midi": 69,
          "name": "A4",
          "ticks": 173520,
          "time": 253.76851800000003,
          "velocity": 0.7559055118110236
        },
        {
          "duration": 0.2026788416666534,
          "durationTicks": 227,
          "midi": 73,
          "name": "C#5",
          "ticks": 173520,
          "time": 253.76851800000003,
          "velocity": 0.7559055118110236
        },
        {
          "duration": 0.2026788416666534,
          "durationTicks": 227,
          "midi": 76,
          "name": "E5",
          "ticks": 173520,
          "time": 253.76851800000003,
          "velocity": 0.7559055118110236
        },
        {
          "duration": 0.2026788416666534,
          "durationTicks": 227,
          "midi": 81,
          "name": "A5",
          "ticks": 173520,
          "time": 253.76851800000003,
          "velocity": 0.7559055118110236
        },
        {
          "duration": 0.2026788416666534,
          "durationTicks": 227,
          "midi": 69,
          "name": "A4",
          "ticks": 173760,
          "time": 253.98280400000002,
          "velocity": 0.7559055118110236
        },
        {
          "duration": 0.2026788416666534,
          "durationTicks": 227,
          "midi": 73,
          "name": "C#5",
          "ticks": 173760,
          "time": 253.98280400000002,
          "velocity": 0.7559055118110236
        },
        {
          "duration": 0.2026788416666534,
          "durationTicks": 227,
          "midi": 76,
          "name": "E5",
          "ticks": 173760,
          "time": 253.98280400000002,
          "velocity": 0.7559055118110236
        },
        {
          "duration": 0.2026788416666534,
          "durationTicks": 227,
          "midi": 81,
          "name": "A5",
          "ticks": 173760,
          "time": 253.98280400000002,
          "velocity": 0.7559055118110236
        },
        {
          "duration": 0.4062505416666795,
          "durationTicks": 455,
          "midi": 69,
          "name": "A4",
          "ticks": 174000,
          "time": 254.19709,
          "velocity": 0.7559055118110236
        },
        {
          "duration": 0.4062505416666795,
          "durationTicks": 455,
          "midi": 73,
          "name": "C#5",
          "ticks": 174000,
          "time": 254.19709,
          "velocity": 0.7559055118110236
        },
        {
          "duration": 0.4062505416666795,
          "durationTicks": 455,
          "midi": 79,
          "name": "G5",
          "ticks": 174000,
          "time": 254.19709,
          "velocity": 0.7559055118110236
        },
        {
          "duration": 0.4062505416666795,
          "durationTicks": 455,
          "midi": 81,
          "name": "A5",
          "ticks": 174000,
          "time": 254.19709,
          "velocity": 0.7559055118110236
        },
        {
          "duration": 0.20267884166668182,
          "durationTicks": 227,
          "midi": 61,
          "name": "C#4",
          "ticks": 174480,
          "time": 254.625662,
          "velocity": 0.7559055118110236
        },
        {
          "duration": 0.20267884166668182,
          "durationTicks": 227,
          "midi": 67,
          "name": "G4",
          "ticks": 174480,
          "time": 254.625662,
          "velocity": 0.7559055118110236
        },
        {
          "duration": 0.20267884166668182,
          "durationTicks": 227,
          "midi": 69,
          "name": "A4",
          "ticks": 174480,
          "time": 254.625662,
          "velocity": 0.7559055118110236
        },
        {
          "duration": 0.2026788416666534,
          "durationTicks": 227,
          "midi": 74,
          "name": "D5",
          "ticks": 174720,
          "time": 254.83994800000002,
          "velocity": 0.7559055118110236
        },
        {
          "duration": 0.4276791416666583,
          "durationTicks": 479,
          "midi": 74,
          "name": "D5",
          "ticks": 174960,
          "time": 255.054234,
          "velocity": 0.905511811023622
        },
        {
          "duration": 0.4276791416666583,
          "durationTicks": 479,
          "midi": 78,
          "name": "F#5",
          "ticks": 174960,
          "time": 255.054234,
          "velocity": 0.905511811023622
        },
        {
          "duration": 0.4276791416666583,
          "durationTicks": 479,
          "midi": 86,
          "name": "D6",
          "ticks": 174960,
          "time": 255.054234,
          "velocity": 0.905511811023622
        },
        {
          "duration": 0.4169648416666689,
          "durationTicks": 467,
          "midi": 74,
          "name": "D5",
          "ticks": 175440,
          "time": 255.482806,
          "velocity": 0.905511811023622
        },
        {
          "duration": 0.4169648416666689,
          "durationTicks": 467,
          "midi": 78,
          "name": "F#5",
          "ticks": 175440,
          "time": 255.482806,
          "velocity": 0.905511811023622
        },
        {
          "duration": 0.4169648416666689,
          "durationTicks": 467,
          "midi": 83,
          "name": "B5",
          "ticks": 175440,
          "time": 255.482806,
          "velocity": 0.905511811023622
        },
        {
          "duration": 0.4276791416666583,
          "durationTicks": 479,
          "midi": 74,
          "name": "D5",
          "ticks": 175920,
          "time": 255.911378,
          "velocity": 0.905511811023622
        },
        {
          "duration": 0.4276791416666583,
          "durationTicks": 479,
          "midi": 78,
          "name": "F#5",
          "ticks": 175920,
          "time": 255.911378,
          "velocity": 0.905511811023622
        },
        {
          "duration": 0.4276791416666583,
          "durationTicks": 479,
          "midi": 81,
          "name": "A5",
          "ticks": 175920,
          "time": 255.911378,
          "velocity": 0.905511811023622
        },
        {
          "duration": 0.20267884166662498,
          "durationTicks": 227,
          "midi": 69,
          "name": "A4",
          "ticks": 176400,
          "time": 256.33995000000004,
          "velocity": 0.7559055118110236
        },
        {
          "duration": 0.20267884166662498,
          "durationTicks": 227,
          "midi": 74,
          "name": "D5",
          "ticks": 176400,
          "time": 256.33995000000004,
          "velocity": 0.7559055118110236
        },
        {
          "duration": 0.20267884166662498,
          "durationTicks": 227,
          "midi": 78,
          "name": "F#5",
          "ticks": 176400,
          "time": 256.33995000000004,
          "velocity": 0.7559055118110236
        },
        {
          "duration": 0.20267884166668182,
          "durationTicks": 227,
          "midi": 66,
          "name": "F#4",
          "ticks": 176640,
          "time": 256.554236,
          "velocity": 0.7559055118110236
        },
        {
          "duration": 0.20267884166668182,
          "durationTicks": 227,
          "midi": 69,
          "name": "A4",
          "ticks": 176640,
          "time": 256.554236,
          "velocity": 0.7559055118110236
        },
        {
          "duration": 0.20267884166668182,
          "durationTicks": 227,
          "midi": 76,
          "name": "E5",
          "ticks": 176640,
          "time": 256.554236,
          "velocity": 0.7559055118110236
        },
        {
          "duration": 0.4276791416666583,
          "durationTicks": 479,
          "midi": 66,
          "name": "F#4",
          "ticks": 176880,
          "time": 256.768522,
          "velocity": 0.905511811023622
        },
        {
          "duration": 0.4276791416666583,
          "durationTicks": 479,
          "midi": 69,
          "name": "A4",
          "ticks": 176880,
          "time": 256.768522,
          "velocity": 0.905511811023622
        },
        {
          "duration": 0.4276791416666583,
          "durationTicks": 479,
          "midi": 74,
          "name": "D5",
          "ticks": 176880,
          "time": 256.768522,
          "velocity": 0.905511811023622
        },
        {
          "duration": 0.20267884166668182,
          "durationTicks": 227,
          "midi": 66,
          "name": "F#4",
          "ticks": 177360,
          "time": 257.197094,
          "velocity": 0.7559055118110236
        },
        {
          "duration": 0.20267884166668182,
          "durationTicks": 227,
          "midi": 69,
          "name": "A4",
          "ticks": 177360,
          "time": 257.197094,
          "velocity": 0.7559055118110236
        },
        {
          "duration": 0.20267884166668182,
          "durationTicks": 227,
          "midi": 73,
          "name": "C#5",
          "ticks": 177360,
          "time": 257.197094,
          "velocity": 0.7559055118110236
        },
        {
          "duration": 0.631250841666656,
          "durationTicks": 707,
          "midi": 66,
          "name": "F#4",
          "ticks": 177600,
          "time": 257.41138,
          "velocity": 0.905511811023622
        },
        {
          "duration": 0.631250841666656,
          "durationTicks": 707,
          "midi": 69,
          "name": "A4",
          "ticks": 177600,
          "time": 257.41138,
          "velocity": 0.905511811023622
        },
        {
          "duration": 0.631250841666656,
          "durationTicks": 707,
          "midi": 74,
          "name": "D5",
          "ticks": 177600,
          "time": 257.41138,
          "velocity": 0.905511811023622
        },
        {
          "duration": 0.05267864166665959,
          "durationTicks": 59,
          "midi": 74,
          "name": "D5",
          "ticks": 178560,
          "time": 258.268524,
          "velocity": 0.7559055118110236
        },
        {
          "duration": 0.05267864166665959,
          "durationTicks": 59,
          "midi": 76,
          "name": "E5",
          "ticks": 178680,
          "time": 258.375667,
          "velocity": 0.7559055118110236
        },
        {
          "duration": 0.05267864166665959,
          "durationTicks": 59,
          "midi": 78,
          "name": "F#5",
          "ticks": 178800,
          "time": 258.48281000000003,
          "velocity": 0.7559055118110236
        },
        {
          "duration": 0.05267864166665959,
          "durationTicks": 59,
          "midi": 76,
          "name": "E5",
          "ticks": 178920,
          "time": 258.58995300000004,
          "velocity": 0.7559055118110236
        },
        {
          "duration": 0.05267864166671643,
          "durationTicks": 59,
          "midi": 74,
          "name": "D5",
          "ticks": 179040,
          "time": 258.697096,
          "velocity": 0.7559055118110236
        },
        {
          "duration": 0.05267864166665959,
          "durationTicks": 59,
          "midi": 76,
          "name": "E5",
          "ticks": 179160,
          "time": 258.804239,
          "velocity": 0.7559055118110236
        },
        {
          "duration": 0.05267864166665959,
          "durationTicks": 59,
          "midi": 78,
          "name": "F#5",
          "ticks": 179280,
          "time": 258.911382,
          "velocity": 0.7559055118110236
        },
        {
          "duration": 0.05267864166665959,
          "durationTicks": 59,
          "midi": 76,
          "name": "E5",
          "ticks": 179400,
          "time": 259.018525,
          "velocity": 0.7559055118110236
        },
        {
          "duration": 0.05267864166665959,
          "durationTicks": 59,
          "midi": 74,
          "name": "D5",
          "ticks": 179520,
          "time": 259.125668,
          "velocity": 0.7559055118110236
        },
        {
          "duration": 0.05267864166665959,
          "durationTicks": 59,
          "midi": 76,
          "name": "E5",
          "ticks": 179640,
          "time": 259.232811,
          "velocity": 0.7559055118110236
        },
        {
          "duration": 0.05267864166665959,
          "durationTicks": 59,
          "midi": 78,
          "name": "F#5",
          "ticks": 179760,
          "time": 259.33995400000003,
          "velocity": 0.7559055118110236
        },
        {
          "duration": 0.05267864166665959,
          "durationTicks": 59,
          "midi": 76,
          "name": "E5",
          "ticks": 179880,
          "time": 259.44709700000004,
          "velocity": 0.7559055118110236
        },
        {
          "duration": 0.05267864166671643,
          "durationTicks": 59,
          "midi": 74,
          "name": "D5",
          "ticks": 180000,
          "time": 259.55424,
          "velocity": 0.7559055118110236
        },
        {
          "duration": 0.05267864166665959,
          "durationTicks": 59,
          "midi": 76,
          "name": "E5",
          "ticks": 180120,
          "time": 259.661383,
          "velocity": 0.7559055118110236
        },
        {
          "duration": 0.05267864166665959,
          "durationTicks": 59,
          "midi": 78,
          "name": "F#5",
          "ticks": 180240,
          "time": 259.768526,
          "velocity": 0.7559055118110236
        },
        {
          "duration": 0.05267864166665959,
          "durationTicks": 59,
          "midi": 74,
          "name": "D5",
          "ticks": 180360,
          "time": 259.875669,
          "velocity": 0.7559055118110236
        },
        {
          "duration": 0.20267884166668182,
          "durationTicks": 227,
          "midi": 78,
          "name": "F#5",
          "ticks": 180480,
          "time": 259.982812,
          "velocity": 0.7559055118110236
        },
        {
          "duration": 0.4276791416666583,
          "durationTicks": 479,
          "midi": 67,
          "name": "G4",
          "ticks": 180720,
          "time": 260.19709800000004,
          "velocity": 0.905511811023622
        },
        {
          "duration": 0.4276791416666583,
          "durationTicks": 479,
          "midi": 71,
          "name": "B4",
          "ticks": 180720,
          "time": 260.19709800000004,
          "velocity": 0.905511811023622
        },
        {
          "duration": 0.4276791416666583,
          "durationTicks": 479,
          "midi": 76,
          "name": "E5",
          "ticks": 180720,
          "time": 260.19709800000004,
          "velocity": 0.905511811023622
        },
        {
          "duration": 0.20267884166668182,
          "durationTicks": 227,
          "midi": 67,
          "name": "G4",
          "ticks": 181200,
          "time": 260.62567,
          "velocity": 0.7559055118110236
        },
        {
          "duration": 0.20267884166668182,
          "durationTicks": 227,
          "midi": 71,
          "name": "B4",
          "ticks": 181200,
          "time": 260.62567,
          "velocity": 0.7559055118110236
        },
        {
          "duration": 0.20267884166668182,
          "durationTicks": 227,
          "midi": 75,
          "name": "D#5",
          "ticks": 181200,
          "time": 260.62567,
          "velocity": 0.7559055118110236
        },
        {
          "duration": 0.6098222416666772,
          "durationTicks": 683,
          "midi": 67,
          "name": "G4",
          "ticks": 181440,
          "time": 260.83995600000003,
          "velocity": 0.7559055118110236
        },
        {
          "duration": 0.6098222416666772,
          "durationTicks": 683,
          "midi": 71,
          "name": "B4",
          "ticks": 181440,
          "time": 260.83995600000003,
          "velocity": 0.7559055118110236
        },
        {
          "duration": 0.6098222416666772,
          "durationTicks": 683,
          "midi": 76,
          "name": "E5",
          "ticks": 181440,
          "time": 260.83995600000003,
          "velocity": 0.7559055118110236
        },
        {
          "duration": 0.051936593749985605,
          "durationTicks": 59,
          "midi": 79,
          "name": "G5",
          "ticks": 182400,
          "time": 261.69710000000003,
          "velocity": 0.7559055118110236
        },
        {
          "duration": 0.05193659375004245,
          "durationTicks": 59,
          "midi": 81,
          "name": "A5",
          "ticks": 182520,
          "time": 261.80273375,
          "velocity": 0.7559055118110236
        },
        {
          "duration": 0.051936593749985605,
          "durationTicks": 59,
          "midi": 83,
          "name": "B5",
          "ticks": 182640,
          "time": 261.90836750000005,
          "velocity": 0.7559055118110236
        },
        {
          "duration": 0.051936593749985605,
          "durationTicks": 59,
          "midi": 81,
          "name": "A5",
          "ticks": 182760,
          "time": 262.01400125000004,
          "velocity": 0.7559055118110236
        },
        {
          "duration": 0.051215318749996186,
          "durationTicks": 59,
          "midi": 79,
          "name": "G5",
          "ticks": 182880,
          "time": 262.119635,
          "velocity": 0.6692913385826772
        },
        {
          "duration": 0.051215318749996186,
          "durationTicks": 59,
          "midi": 81,
          "name": "A5",
          "ticks": 183000,
          "time": 262.22380175,
          "velocity": 0.6692913385826772
        },
        {
          "duration": 0.051215318749996186,
          "durationTicks": 59,
          "midi": 83,
          "name": "B5",
          "ticks": 183120,
          "time": 262.3279685,
          "velocity": 0.6692913385826772
        },
        {
          "duration": 0.051215318749996186,
          "durationTicks": 59,
          "midi": 81,
          "name": "A5",
          "ticks": 183240,
          "time": 262.43213525000004,
          "velocity": 0.6692913385826772
        },
        {
          "duration": 0.050513710416680624,
          "durationTicks": 59,
          "midi": 79,
          "name": "G5",
          "ticks": 183360,
          "time": 262.53630200000003,
          "velocity": 0.6692913385826772
        },
        {
          "duration": 0.050513710416680624,
          "durationTicks": 59,
          "midi": 81,
          "name": "A5",
          "ticks": 183480,
          "time": 262.63904175000005,
          "velocity": 0.6692913385826772
        },
        {
          "duration": 0.05051371041662378,
          "durationTicks": 59,
          "midi": 83,
          "name": "B5",
          "ticks": 183600,
          "time": 262.74178150000006,
          "velocity": 0.6692913385826772
        },
        {
          "duration": 0.050513710416680624,
          "durationTicks": 59,
          "midi": 81,
          "name": "A5",
          "ticks": 183720,
          "time": 262.84452125,
          "velocity": 0.6692913385826772
        },
        {
          "duration": 0.049831031249993885,
          "durationTicks": 59,
          "midi": 79,
          "name": "G5",
          "ticks": 183840,
          "time": 262.947261,
          "velocity": 0.6692913385826772
        },
        {
          "duration": 0.049831031249993885,
          "durationTicks": 59,
          "midi": 83,
          "name": "B5",
          "ticks": 183960,
          "time": 263.04861225,
          "velocity": 0.6692913385826772
        },
        {
          "duration": 0.049831031249993885,
          "durationTicks": 59,
          "midi": 81,
          "name": "A5",
          "ticks": 184080,
          "time": 263.1499635,
          "velocity": 0.6692913385826772
        },
        {
          "duration": 0.049831031249993885,
          "durationTicks": 59,
          "midi": 79,
          "name": "G5",
          "ticks": 184200,
          "time": 263.25131475,
          "velocity": 0.6692913385826772
        },
        {
          "duration": 0.04916666666667879,
          "durationTicks": 59,
          "midi": 78,
          "name": "F#5",
          "ticks": 184320,
          "time": 263.352666,
          "velocity": 0.6692913385826772
        },
        {
          "duration": 0.04916666666662195,
          "durationTicks": 59,
          "midi": 79,
          "name": "G5",
          "ticks": 184440,
          "time": 263.452666,
          "velocity": 0.6692913385826772
        },
        {
          "duration": 0.04916666666667879,
          "durationTicks": 59,
          "midi": 81,
          "name": "A5",
          "ticks": 184560,
          "time": 263.552666,
          "velocity": 0.6692913385826772
        },
        {
          "duration": 0.04916666666667879,
          "durationTicks": 59,
          "midi": 79,
          "name": "G5",
          "ticks": 184680,
          "time": 263.652666,
          "velocity": 0.6692913385826772
        },
        {
          "duration": 0.048519756250016144,
          "durationTicks": 59,
          "midi": 78,
          "name": "F#5",
          "ticks": 184800,
          "time": 263.752666,
          "velocity": 0.6692913385826772
        },
        {
          "duration": 0.0485197562499593,
          "durationTicks": 59,
          "midi": 79,
          "name": "G5",
          "ticks": 184920,
          "time": 263.85135025,
          "velocity": 0.6692913385826772
        },
        {
          "duration": 0.048519756250016144,
          "durationTicks": 59,
          "midi": 81,
          "name": "A5",
          "ticks": 185040,
          "time": 263.95003449999996,
          "velocity": 0.6692913385826772
        },
        {
          "duration": 0.048519756250016144,
          "durationTicks": 59,
          "midi": 79,
          "name": "G5",
          "ticks": 185160,
          "time": 264.04871875,
          "velocity": 0.6692913385826772
        },
        {
          "duration": 0.047889562500017746,
          "durationTicks": 59,
          "midi": 78,
          "name": "F#5",
          "ticks": 185280,
          "time": 264.147403,
          "velocity": 0.6692913385826772
        },
        {
          "duration": 0.047889562500017746,
          "durationTicks": 59,
          "midi": 79,
          "name": "G5",
          "ticks": 185400,
          "time": 264.2448055,
          "velocity": 0.6692913385826772
        },
        {
          "duration": 0.047889562500017746,
          "durationTicks": 59,
          "midi": 81,
          "name": "A5",
          "ticks": 185520,
          "time": 264.34220799999997,
          "velocity": 0.6692913385826772
        },
        {
          "duration": 0.0478895624999609,
          "durationTicks": 59,
          "midi": 79,
          "name": "G5",
          "ticks": 185640,
          "time": 264.4396105,
          "velocity": 0.6692913385826772
        },
        {
          "duration": 0.04727559374998691,
          "durationTicks": 59,
          "midi": 78,
          "name": "F#5",
          "ticks": 185760,
          "time": 264.537013,
          "velocity": 0.6692913385826772
        },
        {
          "duration": 0.04727559374998691,
          "durationTicks": 59,
          "midi": 79,
          "name": "G5",
          "ticks": 185880,
          "time": 264.63316675,
          "velocity": 0.6692913385826772
        },
        {
          "duration": 0.04727559374998691,
          "durationTicks": 59,
          "midi": 81,
          "name": "A5",
          "ticks": 186000,
          "time": 264.72932050000003,
          "velocity": 0.6692913385826772
        },
        {
          "duration": 0.04727559374998691,
          "durationTicks": 59,
          "midi": 78,
          "name": "F#5",
          "ticks": 186120,
          "time": 264.82547425,
          "velocity": 0.6692913385826772
        },
        {
          "duration": 0.04667723541666646,
          "durationTicks": 59,
          "midi": 76,
          "name": "E5",
          "ticks": 186240,
          "time": 264.921628,
          "velocity": 0.6692913385826772
        },
        {
          "duration": 0.04667723541666646,
          "durationTicks": 59,
          "midi": 75,
          "name": "D#5",
          "ticks": 186360,
          "time": 265.01656475,
          "velocity": 0.6692913385826772
        },
        {
          "duration": 0.04667723541666646,
          "durationTicks": 59,
          "midi": 76,
          "name": "E5",
          "ticks": 186480,
          "time": 265.1115015,
          "velocity": 0.6692913385826772
        },
        {
          "duration": 0.04667723541666646,
          "durationTicks": 59,
          "midi": 78,
          "name": "F#5",
          "ticks": 186600,
          "time": 265.20643825,
          "velocity": 0.6692913385826772
        },
        {
          "duration": 0.04609375000001137,
          "durationTicks": 59,
          "midi": 79,
          "name": "G5",
          "ticks": 186720,
          "time": 265.301375,
          "velocity": 0.6692913385826772
        },
        {
          "duration": 0.04609375000001137,
          "durationTicks": 59,
          "midi": 78,
          "name": "F#5",
          "ticks": 186840,
          "time": 265.395125,
          "velocity": 0.6692913385826772
        },
        {
          "duration": 0.04609375000001137,
          "durationTicks": 59,
          "midi": 79,
          "name": "G5",
          "ticks": 186960,
          "time": 265.488875,
          "velocity": 0.6692913385826772
        },
        {
          "duration": 0.04609375000001137,
          "durationTicks": 59,
          "midi": 81,
          "name": "A5",
          "ticks": 187080,
          "time": 265.582625,
          "velocity": 0.6692913385826772
        },
        {
          "duration": 0.04552464583332494,
          "durationTicks": 59,
          "midi": 83,
          "name": "B5",
          "ticks": 187200,
          "time": 265.676375,
          "velocity": 0.6692913385826772
        },
        {
          "duration": 0.04552464583332494,
          "durationTicks": 59,
          "midi": 81,
          "name": "A5",
          "ticks": 187320,
          "time": 265.76896750000003,
          "velocity": 0.6692913385826772
        },
        {
          "duration": 0.04552464583332494,
          "durationTicks": 59,
          "midi": 80,
          "name": "G#5",
          "ticks": 187440,
          "time": 265.86156,
          "velocity": 0.6692913385826772
        },
        {
          "duration": 0.04552464583332494,
          "durationTicks": 59,
          "midi": 81,
          "name": "A5",
          "ticks": 187560,
          "time": 265.9541525,
          "velocity": 0.6692913385826772
        },
        {
          "duration": 0.0449695541666415,
          "durationTicks": 59,
          "midi": 80,
          "name": "G#5",
          "ticks": 187680,
          "time": 266.046745,
          "velocity": 0.6692913385826772
        },
        {
          "duration": 0.044969554166698344,
          "durationTicks": 59,
          "midi": 81,
          "name": "A5",
          "ticks": 187800,
          "time": 266.13820849999996,
          "velocity": 0.6692913385826772
        },
        {
          "duration": 0.0449695541666415,
          "durationTicks": 59,
          "midi": 83,
          "name": "B5",
          "ticks": 187920,
          "time": 266.229672,
          "velocity": 0.6692913385826772
        },
        {
          "duration": 0.044969554166698344,
          "durationTicks": 59,
          "midi": 85,
          "name": "C#6",
          "ticks": 188040,
          "time": 266.32113549999997,
          "velocity": 0.6692913385826772
        },
        {
          "duration": 0.3467991041666778,
          "durationTicks": 455,
          "midi": 86,
          "name": "D6",
          "ticks": 188160,
          "time": 266.412599,
          "velocity": 0.6692913385826772
        },
        {
          "duration": 0.3467991041666778,
          "durationTicks": 455,
          "midi": 69,
          "name": "A4",
          "ticks": 189120,
          "time": 267.14430699999997,
          "velocity": 0.6692913385826772
        },
        {
          "duration": 0.3467991041666778,
          "durationTicks": 455,
          "midi": 73,
          "name": "C#5",
          "ticks": 189120,
          "time": 267.14430699999997,
          "velocity": 0.6692913385826772
        },
        {
          "duration": 0.3467991041666778,
          "durationTicks": 455,
          "midi": 76,
          "name": "E5",
          "ticks": 189120,
          "time": 267.14430699999997,
          "velocity": 0.6692913385826772
        },
        {
          "duration": 0.3467991041666778,
          "durationTicks": 455,
          "midi": 81,
          "name": "A5",
          "ticks": 189120,
          "time": 267.14430699999997,
          "velocity": 0.6692913385826772
        },
        {
          "duration": 0.6943604041666731,
          "durationTicks": 911,
          "midi": 62,
          "name": "D4",
          "ticks": 190080,
          "time": 267.876015,
          "velocity": 0.6692913385826772
        },
        {
          "duration": 0.6943604041666731,
          "durationTicks": 911,
          "midi": 66,
          "name": "F#4",
          "ticks": 190080,
          "time": 267.876015,
          "velocity": 0.6692913385826772
        },
        {
          "duration": 0.6943604041666731,
          "durationTicks": 911,
          "midi": 69,
          "name": "A4",
          "ticks": 190080,
          "time": 267.876015,
          "velocity": 0.6692913385826772
        },
        {
          "duration": 0.6943604041666731,
          "durationTicks": 911,
          "midi": 74,
          "name": "D5",
          "ticks": 190080,
          "time": 267.876015,
          "velocity": 0.6692913385826772
        }
      ],
      "endOfTrackTicks": 190992
    },
    {
      "channel": 0,
      "controlChanges": {},
      "pitchBends": [],
      "instrument": {
        "family": "piano",
        "number": 0,
        "name": "acoustic grand piano"
      },
      "name": "",
      "notes": [
        {
          "duration": 1.0886362729166668,
          "durationTicks": 479,
          "midi": 38,
          "name": "D2",
          "ticks": 0,
          "time": 0,
          "velocity": 0.8031496062992126
        },
        {
          "duration": 1.0886362729166668,
          "durationTicks": 479,
          "midi": 50,
          "name": "D3",
          "ticks": 0,
          "time": 0,
          "velocity": 0.8031496062992126
        },
        {
          "duration": 1.0886362729166665,
          "durationTicks": 479,
          "midi": 34,
          "name": "A#1",
          "ticks": 480,
          "time": 1.0909090000000001,
          "velocity": 0.8031496062992126
        },
        {
          "duration": 1.0886362729166665,
          "durationTicks": 479,
          "midi": 46,
          "name": "A#2",
          "ticks": 480,
          "time": 1.0909090000000001,
          "velocity": 0.8031496062992126
        },
        {
          "duration": 2.1795452729166667,
          "durationTicks": 959,
          "midi": 31,
          "name": "G1",
          "ticks": 960,
          "time": 2.1818180000000003,
          "velocity": 0.8031496062992126
        },
        {
          "duration": 2.1795452729166667,
          "durationTicks": 959,
          "midi": 43,
          "name": "G2",
          "ticks": 960,
          "time": 2.1818180000000003,
          "velocity": 0.8031496062992126
        },
        {
          "duration": 1.0886362729166672,
          "durationTicks": 479,
          "midi": 33,
          "name": "A1",
          "ticks": 1920,
          "time": 4.3636360000000005,
          "velocity": 0.8031496062992126
        },
        {
          "duration": 1.0886362729166672,
          "durationTicks": 479,
          "midi": 45,
          "name": "A2",
          "ticks": 1920,
          "time": 4.3636360000000005,
          "velocity": 0.8031496062992126
        },
        {
          "duration": 1.0340908229166672,
          "durationTicks": 455,
          "midi": 33,
          "name": "A1",
          "ticks": 3360,
          "time": 7.636363000000001,
          "velocity": 0.4881889763779528
        },
        {
          "duration": 1.0340908229166672,
          "durationTicks": 455,
          "midi": 45,
          "name": "A2",
          "ticks": 3360,
          "time": 7.636363000000001,
          "velocity": 0.4881889763779528
        },
        {
          "duration": 1.0340908229166654,
          "durationTicks": 455,
          "midi": 38,
          "name": "D2",
          "ticks": 3840,
          "time": 8.727272000000001,
          "velocity": 0.4881889763779528
        },
        {
          "duration": 1.0886362729166663,
          "durationTicks": 479,
          "midi": 50,
          "name": "D3",
          "ticks": 4320,
          "time": 9.818181000000001,
          "velocity": 0.4881889763779528
        },
        {
          "duration": 0.9431817395833342,
          "durationTicks": 415,
          "midi": 53,
          "name": "F3",
          "ticks": 4383,
          "time": 9.961362806250001,
          "velocity": 0.4881889763779528
        },
        {
          "duration": 0.797727206250002,
          "durationTicks": 351,
          "midi": 57,
          "name": "A3",
          "ticks": 4447,
          "time": 10.106817339583333,
          "velocity": 0.4881889763779528
        },
        {
          "duration": 1.088636272916668,
          "durationTicks": 479,
          "midi": 53,
          "name": "F3",
          "ticks": 4800,
          "time": 10.90909,
          "velocity": 0.4881889763779528
        },
        {
          "duration": 0.9431817395833342,
          "durationTicks": 415,
          "midi": 57,
          "name": "A3",
          "ticks": 4863,
          "time": 11.052271806250001,
          "velocity": 0.4881889763779528
        },
        {
          "duration": 0.797727206250002,
          "durationTicks": 351,
          "midi": 62,
          "name": "D4",
          "ticks": 4927,
          "time": 11.197726339583333,
          "velocity": 0.4881889763779528
        },
        {
          "duration": 1.0340908229166654,
          "durationTicks": 455,
          "midi": 38,
          "name": "D2",
          "ticks": 5760,
          "time": 13.090908000000002,
          "velocity": 0.6692913385826772
        },
        {
          "duration": 1.0886362729166663,
          "durationTicks": 479,
          "midi": 50,
          "name": "D3",
          "ticks": 6240,
          "time": 14.181817000000002,
          "velocity": 0.6692913385826772
        },
        {
          "duration": 0.9431817395833342,
          "durationTicks": 415,
          "midi": 53,
          "name": "F3",
          "ticks": 6303,
          "time": 14.32499880625,
          "velocity": 0.6692913385826772
        },
        {
          "duration": 0.7977272062500003,
          "durationTicks": 351,
          "midi": 57,
          "name": "A3",
          "ticks": 6367,
          "time": 14.470453339583335,
          "velocity": 0.6692913385826772
        },
        {
          "duration": 1.0886362729166663,
          "durationTicks": 479,
          "midi": 53,
          "name": "F3",
          "ticks": 6720,
          "time": 15.272726000000002,
          "velocity": 0.6692913385826772
        },
        {
          "duration": 0.9431817395833342,
          "durationTicks": 415,
          "midi": 57,
          "name": "A3",
          "ticks": 6783,
          "time": 15.41590780625,
          "velocity": 0.6692913385826772
        },
        {
          "duration": 0.7977272062500003,
          "durationTicks": 351,
          "midi": 62,
          "name": "D4",
          "ticks": 6847,
          "time": 15.561362339583335,
          "velocity": 0.6692913385826772
        },
        {
          "duration": 1.0340908229166672,
          "durationTicks": 455,
          "midi": 31,
          "name": "G1",
          "ticks": 7680,
          "time": 17.454544000000002,
          "velocity": 0.6692913385826772
        },
        {
          "duration": 1.0340908229166672,
          "durationTicks": 455,
          "midi": 43,
          "name": "G2",
          "ticks": 7680,
          "time": 17.454544000000002,
          "velocity": 0.6692913385826772
        },
        {
          "duration": 1.0886362729166663,
          "durationTicks": 479,
          "midi": 52,
          "name": "E3",
          "ticks": 8160,
          "time": 18.545453000000002,
          "velocity": 0.6692913385826772
        },
        {
          "duration": 0.9431817395833306,
          "durationTicks": 415,
          "midi": 55,
          "name": "G3",
          "ticks": 8223,
          "time": 18.688634806250004,
          "velocity": 0.6692913385826772
        },
        {
          "duration": 0.7977272062499985,
          "durationTicks": 351,
          "midi": 58,
          "name": "A#3",
          "ticks": 8287,
          "time": 18.834089339583336,
          "velocity": 0.6692913385826772
        },
        {
          "duration": 0.6522726729166664,
          "durationTicks": 287,
          "midi": 62,
          "name": "D4",
          "ticks": 8352,
          "time": 18.981816600000002,
          "velocity": 0.6692913385826772
        },
        {
          "duration": 1.0886362729166663,
          "durationTicks": 479,
          "midi": 55,
          "name": "G3",
          "ticks": 8640,
          "time": 19.636362000000002,
          "velocity": 0.6692913385826772
        },
        {
          "duration": 0.9431817395833306,
          "durationTicks": 415,
          "midi": 58,
          "name": "A#3",
          "ticks": 8703,
          "time": 19.779543806250004,
          "velocity": 0.6692913385826772
        },
        {
          "duration": 0.7977272062499985,
          "durationTicks": 351,
          "midi": 62,
          "name": "D4",
          "ticks": 8767,
          "time": 19.924998339583336,
          "velocity": 0.6692913385826772
        },
        {
          "duration": 0.6522726729166664,
          "durationTicks": 287,
          "midi": 64,
          "name": "E4",
          "ticks": 8832,
          "time": 20.072725600000002,
          "velocity": 0.6692913385826772
        },
        {
          "duration": 1.0340908229166672,
          "durationTicks": 455,
          "midi": 37,
          "name": "C#2",
          "ticks": 9600,
          "time": 21.81818,
          "velocity": 0.6692913385826772
        },
        {
          "duration": 1.0886362729166663,
          "durationTicks": 479,
          "midi": 45,
          "name": "A2",
          "ticks": 10080,
          "time": 22.909089,
          "velocity": 0.6692913385826772
        },
        {
          "duration": 0.9431817395833342,
          "durationTicks": 415,
          "midi": 52,
          "name": "E3",
          "ticks": 10143,
          "time": 23.052270806250004,
          "velocity": 0.6692913385826772
        },
        {
          "duration": 0.797727206250002,
          "durationTicks": 351,
          "midi": 55,
          "name": "G3",
          "ticks": 10207,
          "time": 23.197725339583336,
          "velocity": 0.6692913385826772
        },
        {
          "duration": 1.0340908229166708,
          "durationTicks": 455,
          "midi": 33,
          "name": "A1",
          "ticks": 10560,
          "time": 23.999998,
          "velocity": 0.6692913385826772
        },
        {
          "duration": 1.0886362729166663,
          "durationTicks": 479,
          "midi": 45,
          "name": "A2",
          "ticks": 11040,
          "time": 25.090907,
          "velocity": 0.6692913385826772
        },
        {
          "duration": 0.9431817395833342,
          "durationTicks": 415,
          "midi": 49,
          "name": "C#3",
          "ticks": 11103,
          "time": 25.234088806250004,
          "velocity": 0.6692913385826772
        },
        {
          "duration": 0.797727206250002,
          "durationTicks": 351,
          "midi": 55,
          "name": "G3",
          "ticks": 11167,
          "time": 25.379543339583336,
          "velocity": 0.6692913385826772
        },
        {
          "duration": 1.0340908229166672,
          "durationTicks": 455,
          "midi": 38,
          "name": "D2",
          "ticks": 11520,
          "time": 26.181816000000005,
          "velocity": 0.6692913385826772
        },
        {
          "duration": 1.0886362729166628,
          "durationTicks": 479,
          "midi": 50,
          "name": "D3",
          "ticks": 12000,
          "time": 27.272725000000005,
          "velocity": 0.6692913385826772
        },
        {
          "duration": 0.9431817395833342,
          "durationTicks": 415,
          "midi": 53,
          "name": "F3",
          "ticks": 12063,
          "time": 27.415906806250003,
          "velocity": 0.6692913385826772
        },
        {
          "duration": 0.7977272062499985,
          "durationTicks": 351,
          "midi": 57,
          "name": "A3",
          "ticks": 12127,
          "time": 27.56136133958334,
          "velocity": 0.6692913385826772
        },
        {
          "duration": 1.0886362729166628,
          "durationTicks": 479,
          "midi": 53,
          "name": "F3",
          "ticks": 12480,
          "time": 28.363634000000005,
          "velocity": 0.6692913385826772
        },
        {
          "duration": 0.9431817395833342,
          "durationTicks": 415,
          "midi": 57,
          "name": "A3",
          "ticks": 12543,
          "time": 28.506815806250003,
          "velocity": 0.6692913385826772
        },
        {
          "duration": 0.7977272062499985,
          "durationTicks": 351,
          "midi": 62,
          "name": "D4",
          "ticks": 12607,
          "time": 28.65227033958334,
          "velocity": 0.6692913385826772
        },
        {
          "duration": 1.0340908229166672,
          "durationTicks": 455,
          "midi": 38,
          "name": "D2",
          "ticks": 13440,
          "time": 30.545452000000004,
          "velocity": 0.6692913385826772
        },
        {
          "duration": 1.0886362729166628,
          "durationTicks": 479,
          "midi": 50,
          "name": "D3",
          "ticks": 13920,
          "time": 31.636361000000004,
          "velocity": 0.6692913385826772
        },
        {
          "duration": 0.9431817395833306,
          "durationTicks": 415,
          "midi": 53,
          "name": "F3",
          "ticks": 13983,
          "time": 31.779542806250006,
          "velocity": 0.6692913385826772
        },
        {
          "duration": 0.7977272062499985,
          "durationTicks": 351,
          "midi": 57,
          "name": "A3",
          "ticks": 14047,
          "time": 31.92499733958334,
          "velocity": 0.6692913385826772
        },
        {
          "duration": 1.0886362729166663,
          "durationTicks": 479,
          "midi": 53,
          "name": "F3",
          "ticks": 14400,
          "time": 32.727270000000004,
          "velocity": 0.6692913385826772
        },
        {
          "duration": 0.9431817395833377,
          "durationTicks": 415,
          "midi": 57,
          "name": "A3",
          "ticks": 14463,
          "time": 32.87045180625,
          "velocity": 0.6692913385826772
        },
        {
          "duration": 0.797727206250002,
          "durationTicks": 351,
          "midi": 62,
          "name": "D4",
          "ticks": 14527,
          "time": 33.01590633958334,
          "velocity": 0.6692913385826772
        },
        {
          "duration": 1.0340908229166672,
          "durationTicks": 455,
          "midi": 31,
          "name": "G1",
          "ticks": 15360,
          "time": 34.909088000000004,
          "velocity": 0.6692913385826772
        },
        {
          "duration": 1.0340908229166672,
          "durationTicks": 455,
          "midi": 43,
          "name": "G2",
          "ticks": 15360,
          "time": 34.909088000000004,
          "velocity": 0.6692913385826772
        },
        {
          "duration": 1.0886362729166663,
          "durationTicks": 479,
          "midi": 52,
          "name": "E3",
          "ticks": 15840,
          "time": 35.99999700000001,
          "velocity": 0.6692913385826772
        },
        {
          "duration": 0.9431817395833306,
          "durationTicks": 415,
          "midi": 55,
          "name": "G3",
          "ticks": 15903,
          "time": 36.143178806250006,
          "velocity": 0.6692913385826772
        },
        {
          "duration": 0.7977272062499949,
          "durationTicks": 351,
          "midi": 58,
          "name": "A#3",
          "ticks": 15967,
          "time": 36.28863333958334,
          "velocity": 0.6692913385826772
        },
        {
          "duration": 0.6522726729166735,
          "durationTicks": 287,
          "midi": 62,
          "name": "D4",
          "ticks": 16032,
          "time": 36.4363606,
          "velocity": 0.6692913385826772
        },
        {
          "duration": 1.0886362729166663,
          "durationTicks": 479,
          "midi": 55,
          "name": "G3",
          "ticks": 16320,
          "time": 37.090906000000004,
          "velocity": 0.6692913385826772
        },
        {
          "duration": 0.9431817395833306,
          "durationTicks": 415,
          "midi": 58,
          "name": "A#3",
          "ticks": 16383,
          "time": 37.23408780625,
          "velocity": 0.6692913385826772
        },
        {
          "duration": 0.7977272062499949,
          "durationTicks": 351,
          "midi": 62,
          "name": "D4",
          "ticks": 16447,
          "time": 37.37954233958334,
          "velocity": 0.6692913385826772
        },
        {
          "duration": 0.6522726729166664,
          "durationTicks": 287,
          "midi": 64,
          "name": "E4",
          "ticks": 16512,
          "time": 37.527269600000004,
          "velocity": 0.6692913385826772
        },
        {
          "duration": 1.0340908229166672,
          "durationTicks": 455,
          "midi": 37,
          "name": "C#2",
          "ticks": 17280,
          "time": 39.272724000000004,
          "velocity": 0.6692913385826772
        },
        {
          "duration": 1.0340908229166672,
          "durationTicks": 455,
          "midi": 49,
          "name": "C#3",
          "ticks": 17280,
          "time": 39.272724000000004,
          "velocity": 0.6692913385826772
        },
        {
          "duration": 1.0886362729166663,
          "durationTicks": 479,
          "midi": 52,
          "name": "E3",
          "ticks": 17760,
          "time": 40.36363300000001,
          "velocity": 0.6692913385826772
        },
        {
          "duration": 0.9431817395833306,
          "durationTicks": 415,
          "midi": 55,
          "name": "G3",
          "ticks": 17823,
          "time": 40.506814806250006,
          "velocity": 0.6692913385826772
        },
        {
          "duration": 0.7977272062499949,
          "durationTicks": 351,
          "midi": 57,
          "name": "A3",
          "ticks": 17887,
          "time": 40.65226933958334,
          "velocity": 0.6692913385826772
        },
        {
          "duration": 1.0340908229166672,
          "durationTicks": 455,
          "midi": 33,
          "name": "A1",
          "ticks": 18240,
          "time": 41.454542000000004,
          "velocity": 0.6692913385826772
        },
        {
          "duration": 1.0340908229166672,
          "durationTicks": 455,
          "midi": 45,
          "name": "A2",
          "ticks": 18240,
          "time": 41.454542000000004,
          "velocity": 0.6692913385826772
        },
        {
          "duration": 1.0886362729166663,
          "durationTicks": 479,
          "midi": 49,
          "name": "C#3",
          "ticks": 18720,
          "time": 42.54545100000001,
          "velocity": 0.6692913385826772
        },
        {
          "duration": 0.9431817395833306,
          "durationTicks": 415,
          "midi": 55,
          "name": "G3",
          "ticks": 18783,
          "time": 42.688632806250006,
          "velocity": 0.6692913385826772
        },
        {
          "duration": 0.7977272062499949,
          "durationTicks": 351,
          "midi": 57,
          "name": "A3",
          "ticks": 18847,
          "time": 42.83408733958334,
          "velocity": 0.6692913385826772
        },
        {
          "duration": 1.0340908229166672,
          "durationTicks": 455,
          "midi": 53,
          "name": "F3",
          "ticks": 19200,
          "time": 43.63636,
          "velocity": 0.6692913385826772
        },
        {
          "duration": 1.0340908229166672,
          "durationTicks": 455,
          "midi": 57,
          "name": "A3",
          "ticks": 19200,
          "time": 43.63636,
          "velocity": 0.6692913385826772
        },
        {
          "duration": 1.0340908229166672,
          "durationTicks": 455,
          "midi": 38,
          "name": "D2",
          "ticks": 19200,
          "time": 43.63636,
          "velocity": 0.6692913385826772
        },
        {
          "duration": 1.0340908229166672,
          "durationTicks": 455,
          "midi": 50,
          "name": "D3",
          "ticks": 19200,
          "time": 43.63636,
          "velocity": 0.6692913385826772
        },
        {
          "duration": 1.03409082291666,
          "durationTicks": 455,
          "midi": 55,
          "name": "G3",
          "ticks": 19680,
          "time": 44.72726900000001,
          "velocity": 0.6692913385826772
        },
        {
          "duration": 1.03409082291666,
          "durationTicks": 455,
          "midi": 57,
          "name": "A3",
          "ticks": 19680,
          "time": 44.72726900000001,
          "velocity": 0.6692913385826772
        },
        {
          "duration": 1.03409082291666,
          "durationTicks": 455,
          "midi": 33,
          "name": "A1",
          "ticks": 19680,
          "time": 44.72726900000001,
          "velocity": 0.6692913385826772
        },
        {
          "duration": 1.03409082291666,
          "durationTicks": 455,
          "midi": 45,
          "name": "A2",
          "ticks": 19680,
          "time": 44.72726900000001,
          "velocity": 0.6692913385826772
        },
        {
          "duration": 1.0340908229166672,
          "durationTicks": 455,
          "midi": 53,
          "name": "F3",
          "ticks": 20160,
          "time": 45.818178,
          "velocity": 0.6692913385826772
        },
        {
          "duration": 1.0340908229166672,
          "durationTicks": 455,
          "midi": 57,
          "name": "A3",
          "ticks": 20160,
          "time": 45.818178,
          "velocity": 0.6692913385826772
        },
        {
          "duration": 1.0340908229166672,
          "durationTicks": 455,
          "midi": 38,
          "name": "D2",
          "ticks": 20160,
          "time": 45.818178,
          "velocity": 0.6692913385826772
        },
        {
          "duration": 1.0340908229166672,
          "durationTicks": 455,
          "midi": 50,
          "name": "D3",
          "ticks": 20160,
          "time": 45.818178,
          "velocity": 0.6692913385826772
        },
        {
          "duration": 1.0340908229166672,
          "durationTicks": 455,
          "midi": 40,
          "name": "E2",
          "ticks": 21120,
          "time": 47.999996,
          "velocity": 0.6299212598425197
        },
        {
          "duration": 1.0886362729166663,
          "durationTicks": 479,
          "midi": 52,
          "name": "E3",
          "ticks": 21600,
          "time": 49.09090500000001,
          "velocity": 0.6299212598425197
        },
        {
          "duration": 0.9431817395833306,
          "durationTicks": 415,
          "midi": 55,
          "name": "G3",
          "ticks": 21663,
          "time": 49.234086806250005,
          "velocity": 0.6299212598425197
        },
        {
          "duration": 0.7977272062499949,
          "durationTicks": 351,
          "midi": 58,
          "name": "A#3",
          "ticks": 21727,
          "time": 49.37954133958334,
          "velocity": 0.6299212598425197
        },
        {
          "duration": 1.0340908229166672,
          "durationTicks": 455,
          "midi": 36,
          "name": "C2",
          "ticks": 22080,
          "time": 50.181814,
          "velocity": 0.6299212598425197
        },
        {
          "duration": 1.0340908229166672,
          "durationTicks": 455,
          "midi": 48,
          "name": "C3",
          "ticks": 22080,
          "time": 50.181814,
          "velocity": 0.6299212598425197
        },
        {
          "duration": 1.0886362729166663,
          "durationTicks": 479,
          "midi": 55,
          "name": "G3",
          "ticks": 22560,
          "time": 51.272723000000006,
          "velocity": 0.6299212598425197
        },
        {
          "duration": 0.9431817395833306,
          "durationTicks": 415,
          "midi": 58,
          "name": "A#3",
          "ticks": 22623,
          "time": 51.415904806250005,
          "velocity": 0.6299212598425197
        },
        {
          "duration": 0.7977272062499949,
          "durationTicks": 351,
          "midi": 60,
          "name": "C4",
          "ticks": 22687,
          "time": 51.56135933958334,
          "velocity": 0.6299212598425197
        },
        {
          "duration": 0.6522726729166664,
          "durationTicks": 287,
          "midi": 64,
          "name": "E4",
          "ticks": 22752,
          "time": 51.709086600000006,
          "velocity": 0.6299212598425197
        },
        {
          "duration": 1.03409082291666,
          "durationTicks": 455,
          "midi": 41,
          "name": "F2",
          "ticks": 23040,
          "time": 52.36363200000001,
          "velocity": 0.6299212598425197
        },
        {
          "duration": 1.03409082291666,
          "durationTicks": 455,
          "midi": 53,
          "name": "F3",
          "ticks": 23040,
          "time": 52.36363200000001,
          "velocity": 0.6299212598425197
        },
        {
          "duration": 1.0886362729166663,
          "durationTicks": 479,
          "midi": 57,
          "name": "A3",
          "ticks": 23520,
          "time": 53.454541000000006,
          "velocity": 0.6299212598425197
        },
        {
          "duration": 0.9431817395833306,
          "durationTicks": 415,
          "midi": 60,
          "name": "C4",
          "ticks": 23583,
          "time": 53.597722806250005,
          "velocity": 0.6299212598425197
        },
        {
          "duration": 0.7977272062499949,
          "durationTicks": 351,
          "midi": 65,
          "name": "F4",
          "ticks": 23647,
          "time": 53.74317733958334,
          "velocity": 0.6299212598425197
        },
        {
          "duration": 1.03409082291666,
          "durationTicks": 455,
          "midi": 36,
          "name": "C2",
          "ticks": 24000,
          "time": 54.54545000000001,
          "velocity": 0.6299212598425197
        },
        {
          "duration": 1.03409082291666,
          "durationTicks": 455,
          "midi": 48,
          "name": "C3",
          "ticks": 24000,
          "time": 54.54545000000001,
          "velocity": 0.6299212598425197
        },
        {
          "duration": 1.0886362729166663,
          "durationTicks": 479,
          "midi": 57,
          "name": "A3",
          "ticks": 24480,
          "time": 55.636359000000006,
          "velocity": 0.6299212598425197
        },
        {
          "duration": 0.9431817395833235,
          "durationTicks": 415,
          "midi": 60,
          "name": "C4",
          "ticks": 24543,
          "time": 55.77954080625001,
          "velocity": 0.6299212598425197
        },
        {
          "duration": 0.7977272062499949,
          "durationTicks": 351,
          "midi": 65,
          "name": "F4",
          "ticks": 24607,
          "time": 55.92499533958334,
          "velocity": 0.6299212598425197
        },
        {
          "duration": 1.03409082291666,
          "durationTicks": 455,
          "midi": 37,
          "name": "C#2",
          "ticks": 24960,
          "time": 56.72726800000001,
          "velocity": 0.6299212598425197
        },
        {
          "duration": 1.0886362729166734,
          "durationTicks": 479,
          "midi": 49,
          "name": "C#3",
          "ticks": 25440,
          "time": 57.818177000000006,
          "velocity": 0.6299212598425197
        },
        {
          "duration": 0.9431817395833235,
          "durationTicks": 415,
          "midi": 52,
          "name": "E3",
          "ticks": 25503,
          "time": 57.96135880625001,
          "velocity": 0.6299212598425197
        },
        {
          "duration": 0.7977272062499949,
          "durationTicks": 351,
          "midi": 55,
          "name": "G3",
          "ticks": 25567,
          "time": 58.10681333958334,
          "velocity": 0.6299212598425197
        },
        {
          "duration": 1.03409082291666,
          "durationTicks": 455,
          "midi": 33,
          "name": "A1",
          "ticks": 25920,
          "time": 58.90908600000001,
          "velocity": 0.6299212598425197
        },
        {
          "duration": 1.03409082291666,
          "durationTicks": 455,
          "midi": 45,
          "name": "A2",
          "ticks": 25920,
          "time": 58.90908600000001,
          "velocity": 0.6299212598425197
        },
        {
          "duration": 1.0886362729166734,
          "durationTicks": 479,
          "midi": 52,
          "name": "E3",
          "ticks": 26400,
          "time": 59.999995000000006,
          "velocity": 0.6299212598425197
        },
        {
          "duration": 0.9431817395833235,
          "durationTicks": 415,
          "midi": 55,
          "name": "G3",
          "ticks": 26463,
          "time": 60.14317680625001,
          "velocity": 0.6299212598425197
        },
        {
          "duration": 0.7977272062499949,
          "durationTicks": 351,
          "midi": 57,
          "name": "A3",
          "ticks": 26527,
          "time": 60.28863133958334,
          "velocity": 0.6299212598425197
        },
        {
          "duration": 0.6522726729166735,
          "durationTicks": 287,
          "midi": 61,
          "name": "C#4",
          "ticks": 26592,
          "time": 60.436358600000005,
          "velocity": 0.6299212598425197
        },
        {
          "duration": 1.03409082291666,
          "durationTicks": 455,
          "midi": 38,
          "name": "D2",
          "ticks": 26880,
          "time": 61.09090400000001,
          "velocity": 0.6299212598425197
        },
        {
          "duration": 1.03409082291666,
          "durationTicks": 455,
          "midi": 50,
          "name": "D3",
          "ticks": 26880,
          "time": 61.09090400000001,
          "velocity": 0.6299212598425197
        },
        {
          "duration": 1.0886362729166734,
          "durationTicks": 479,
          "midi": 53,
          "name": "F3",
          "ticks": 27360,
          "time": 62.181813000000005,
          "velocity": 0.6299212598425197
        },
        {
          "duration": 0.9431817395833235,
          "durationTicks": 415,
          "midi": 57,
          "name": "A3",
          "ticks": 27423,
          "time": 62.32499480625001,
          "velocity": 0.6299212598425197
        },
        {
          "duration": 0.7977272062499949,
          "durationTicks": 351,
          "midi": 62,
          "name": "D4",
          "ticks": 27487,
          "time": 62.47044933958334,
          "velocity": 0.6299212598425197
        },
        {
          "duration": 1.0886362729166663,
          "durationTicks": 479,
          "midi": 57,
          "name": "A3",
          "ticks": 27840,
          "time": 63.27272200000001,
          "velocity": 0.6299212598425197
        },
        {
          "duration": 0.9431817395833306,
          "durationTicks": 415,
          "midi": 62,
          "name": "D4",
          "ticks": 27903,
          "time": 63.41590380625001,
          "velocity": 0.6299212598425197
        },
        {
          "duration": 0.7977272062499949,
          "durationTicks": 351,
          "midi": 65,
          "name": "F4",
          "ticks": 27967,
          "time": 63.56135833958334,
          "velocity": 0.6299212598425197
        },
        {
          "duration": 1.0340908229166672,
          "durationTicks": 455,
          "midi": 31,
          "name": "G1",
          "ticks": 28800,
          "time": 65.45454000000001,
          "velocity": 0.6299212598425197
        },
        {
          "duration": 1.0340908229166672,
          "durationTicks": 455,
          "midi": 43,
          "name": "G2",
          "ticks": 28800,
          "time": 65.45454000000001,
          "velocity": 0.6299212598425197
        },
        {
          "duration": 1.0886362729166734,
          "durationTicks": 479,
          "midi": 52,
          "name": "E3",
          "ticks": 29280,
          "time": 66.545449,
          "velocity": 0.6299212598425197
        },
        {
          "duration": 0.9431817395833377,
          "durationTicks": 415,
          "midi": 55,
          "name": "G3",
          "ticks": 29343,
          "time": 66.68863080625,
          "velocity": 0.6299212598425197
        },
        {
          "duration": 0.797727206250002,
          "durationTicks": 351,
          "midi": 58,
          "name": "A#3",
          "ticks": 29407,
          "time": 66.83408533958334,
          "velocity": 0.6299212598425197
        },
        {
          "duration": 0.6522726729166664,
          "durationTicks": 287,
          "midi": 62,
          "name": "D4",
          "ticks": 29472,
          "time": 66.98181260000001,
          "velocity": 0.6299212598425197
        },
        {
          "duration": 1.0886362729166734,
          "durationTicks": 479,
          "midi": 55,
          "name": "G3",
          "ticks": 29760,
          "time": 67.636358,
          "velocity": 0.6299212598425197
        },
        {
          "duration": 0.9431817395833235,
          "durationTicks": 415,
          "midi": 62,
          "name": "D4",
          "ticks": 29823,
          "time": 67.77953980625001,
          "velocity": 0.6299212598425197
        },
        {
          "duration": 0.797727206250002,
          "durationTicks": 351,
          "midi": 64,
          "name": "E4",
          "ticks": 29887,
          "time": 67.92499433958334,
          "velocity": 0.6299212598425197
        },
        {
          "duration": 1.0340908229166672,
          "durationTicks": 455,
          "midi": 33,
          "name": "A1",
          "ticks": 30720,
          "time": 69.81817600000001,
          "velocity": 0.6299212598425197
        },
        {
          "duration": 1.0340908229166672,
          "durationTicks": 455,
          "midi": 45,
          "name": "A2",
          "ticks": 30720,
          "time": 69.81817600000001,
          "velocity": 0.6299212598425197
        },
        {
          "duration": 1.0886362729166734,
          "durationTicks": 479,
          "midi": 50,
          "name": "D3",
          "ticks": 31200,
          "time": 70.909085,
          "velocity": 0.6299212598425197
        },
        {
          "duration": 0.9431817395833377,
          "durationTicks": 415,
          "midi": 53,
          "name": "F3",
          "ticks": 31263,
          "time": 71.05226680625,
          "velocity": 0.6299212598425197
        },
        {
          "duration": 0.797727206250002,
          "durationTicks": 351,
          "midi": 57,
          "name": "A3",
          "ticks": 31327,
          "time": 71.19772133958334,
          "velocity": 0.6299212598425197
        },
        {
          "duration": 1.0886362729166592,
          "durationTicks": 479,
          "midi": 53,
          "name": "F3",
          "ticks": 31680,
          "time": 71.99999400000002,
          "velocity": 0.6299212598425197
        },
        {
          "duration": 0.9431817395833519,
          "durationTicks": 415,
          "midi": 57,
          "name": "A3",
          "ticks": 31743,
          "time": 72.14317580625,
          "velocity": 0.6299212598425197
        },
        {
          "duration": 0.797727206250002,
          "durationTicks": 351,
          "midi": 62,
          "name": "D4",
          "ticks": 31807,
          "time": 72.28863033958335,
          "velocity": 0.6299212598425197
        },
        {
          "duration": 1.0340908229166672,
          "durationTicks": 455,
          "midi": 37,
          "name": "C#2",
          "ticks": 32640,
          "time": 74.18181200000001,
          "velocity": 0.6299212598425197
        },
        {
          "duration": 1.0340908229166672,
          "durationTicks": 455,
          "midi": 49,
          "name": "C#3",
          "ticks": 32640,
          "time": 74.18181200000001,
          "velocity": 0.6299212598425197
        },
        {
          "duration": 1.0886362729166734,
          "durationTicks": 479,
          "midi": 52,
          "name": "E3",
          "ticks": 33120,
          "time": 75.272721,
          "velocity": 0.6299212598425197
        },
        {
          "duration": 0.9431817395833377,
          "durationTicks": 415,
          "midi": 55,
          "name": "G3",
          "ticks": 33183,
          "time": 75.41590280625,
          "velocity": 0.6299212598425197
        },
        {
          "duration": 0.797727206250002,
          "durationTicks": 351,
          "midi": 57,
          "name": "A3",
          "ticks": 33247,
          "time": 75.56135733958334,
          "velocity": 0.6299212598425197
        },
        {
          "duration": 1.0340908229166672,
          "durationTicks": 455,
          "midi": 33,
          "name": "A1",
          "ticks": 33600,
          "time": 76.36363000000001,
          "velocity": 0.6299212598425197
        },
        {
          "duration": 1.0340908229166672,
          "durationTicks": 455,
          "midi": 45,
          "name": "A2",
          "ticks": 33600,
          "time": 76.36363000000001,
          "velocity": 0.6299212598425197
        },
        {
          "duration": 1.0886362729166734,
          "durationTicks": 479,
          "midi": 55,
          "name": "G3",
          "ticks": 34080,
          "time": 77.45453900000001,
          "velocity": 0.6299212598425197
        },
        {
          "duration": 0.9431817395833377,
          "durationTicks": 415,
          "midi": 57,
          "name": "A3",
          "ticks": 34143,
          "time": 77.59772080625001,
          "velocity": 0.6299212598425197
        },
        {
          "duration": 0.797727206250002,
          "durationTicks": 351,
          "midi": 61,
          "name": "C#4",
          "ticks": 34207,
          "time": 77.74317533958335,
          "velocity": 0.6299212598425197
        },
        {
          "duration": 1.0340908229166672,
          "durationTicks": 455,
          "midi": 57,
          "name": "A3",
          "ticks": 34560,
          "time": 78.54544800000001,
          "velocity": 0.6299212598425197
        },
        {
          "duration": 1.0340908229166672,
          "durationTicks": 455,
          "midi": 38,
          "name": "D2",
          "ticks": 34560,
          "time": 78.54544800000001,
          "velocity": 0.6299212598425197
        },
        {
          "duration": 1.0340908229166814,
          "durationTicks": 455,
          "midi": 55,
          "name": "G3",
          "ticks": 35040,
          "time": 79.636357,
          "velocity": 0.6692913385826772
        },
        {
          "duration": 1.0340908229166814,
          "durationTicks": 455,
          "midi": 57,
          "name": "A3",
          "ticks": 35040,
          "time": 79.636357,
          "velocity": 0.6692913385826772
        },
        {
          "duration": 1.0340908229166814,
          "durationTicks": 455,
          "midi": 33,
          "name": "A1",
          "ticks": 35040,
          "time": 79.636357,
          "velocity": 0.6692913385826772
        },
        {
          "duration": 1.0340908229166814,
          "durationTicks": 455,
          "midi": 45,
          "name": "A2",
          "ticks": 35040,
          "time": 79.636357,
          "velocity": 0.6692913385826772
        },
        {
          "duration": 1.0340908229166672,
          "durationTicks": 455,
          "midi": 53,
          "name": "F3",
          "ticks": 35520,
          "time": 80.72726600000001,
          "velocity": 0.6692913385826772
        },
        {
          "duration": 1.0340908229166672,
          "durationTicks": 455,
          "midi": 57,
          "name": "A3",
          "ticks": 35520,
          "time": 80.72726600000001,
          "velocity": 0.6692913385826772
        },
        {
          "duration": 1.0340908229166672,
          "durationTicks": 455,
          "midi": 38,
          "name": "D2",
          "ticks": 35520,
          "time": 80.72726600000001,
          "velocity": 0.6692913385826772
        },
        {
          "duration": 1.0340908229166672,
          "durationTicks": 455,
          "midi": 50,
          "name": "D3",
          "ticks": 35520,
          "time": 80.72726600000001,
          "velocity": 0.6692913385826772
        },
        {
          "duration": 1.0340908229166814,
          "durationTicks": 455,
          "midi": 40,
          "name": "E2",
          "ticks": 36480,
          "time": 82.90908400000001,
          "velocity": 0.6299212598425197
        },
        {
          "duration": 1.0886362729166734,
          "durationTicks": 479,
          "midi": 52,
          "name": "E3",
          "ticks": 36960,
          "time": 83.999993,
          "velocity": 0.6299212598425197
        },
        {
          "duration": 0.9431817395833519,
          "durationTicks": 415,
          "midi": 55,
          "name": "G3",
          "ticks": 37023,
          "time": 84.14317480625,
          "velocity": 0.6299212598425197
        },
        {
          "duration": 0.7977272062500163,
          "durationTicks": 351,
          "midi": 58,
          "name": "A#3",
          "ticks": 37087,
          "time": 84.28862933958334,
          "velocity": 0.6299212598425197
        },
        {
          "duration": 1.0340908229166672,
          "durationTicks": 455,
          "midi": 36,
          "name": "C2",
          "ticks": 37440,
          "time": 85.09090200000001,
          "velocity": 0.6299212598425197
        },
        {
          "duration": 1.0340908229166672,
          "durationTicks": 455,
          "midi": 48,
          "name": "C3",
          "ticks": 37440,
          "time": 85.09090200000001,
          "velocity": 0.6299212598425197
        },
        {
          "duration": 1.0886362729166734,
          "durationTicks": 479,
          "midi": 55,
          "name": "G3",
          "ticks": 37920,
          "time": 86.18181100000001,
          "velocity": 0.6299212598425197
        },
        {
          "duration": 0.9431817395833377,
          "durationTicks": 415,
          "midi": 58,
          "name": "A#3",
          "ticks": 37983,
          "time": 86.32499280625001,
          "velocity": 0.6299212598425197
        },
        {
          "duration": 0.797727206250002,
          "durationTicks": 351,
          "midi": 60,
          "name": "C4",
          "ticks": 38047,
          "time": 86.47044733958334,
          "velocity": 0.6299212598425197
        },
        {
          "duration": 0.6522726729166664,
          "durationTicks": 287,
          "midi": 64,
          "name": "E4",
          "ticks": 38112,
          "time": 86.61817460000002,
          "velocity": 0.6299212598425197
        },
        {
          "duration": 1.0340908229166814,
          "durationTicks": 455,
          "midi": 41,
          "name": "F2",
          "ticks": 38400,
          "time": 87.27272,
          "velocity": 0.6299212598425197
        },
        {
          "duration": 1.0340908229166814,
          "durationTicks": 455,
          "midi": 53,
          "name": "F3",
          "ticks": 38400,
          "time": 87.27272,
          "velocity": 0.6299212598425197
        },
        {
          "duration": 1.0886362729166592,
          "durationTicks": 479,
          "midi": 57,
          "name": "A3",
          "ticks": 38880,
          "time": 88.36362900000002,
          "velocity": 0.6299212598425197
        },
        {
          "duration": 0.9431817395833519,
          "durationTicks": 415,
          "midi": 60,
          "name": "C4",
          "ticks": 38943,
          "time": 88.50681080625,
          "velocity": 0.6299212598425197
        },
        {
          "duration": 0.797727206250002,
          "durationTicks": 351,
          "midi": 65,
          "name": "F4",
          "ticks": 39007,
          "time": 88.65226533958335,
          "velocity": 0.6299212598425197
        },
        {
          "duration": 1.0340908229166672,
          "durationTicks": 455,
          "midi": 36,
          "name": "C2",
          "ticks": 39360,
          "time": 89.45453800000001,
          "velocity": 0.6299212598425197
        },
        {
          "duration": 1.0340908229166672,
          "durationTicks": 455,
          "midi": 48,
          "name": "C3",
          "ticks": 39360,
          "time": 89.45453800000001,
          "velocity": 0.6299212598425197
        },
        {
          "duration": 1.0886362729166734,
          "durationTicks": 479,
          "midi": 57,
          "name": "A3",
          "ticks": 39840,
          "time": 90.54544700000001,
          "velocity": 0.6299212598425197
        },
        {
          "duration": 0.9431817395833377,
          "durationTicks": 415,
          "midi": 60,
          "name": "C4",
          "ticks": 39903,
          "time": 90.68862880625001,
          "velocity": 0.6299212598425197
        },
        {
          "duration": 0.797727206250002,
          "durationTicks": 351,
          "midi": 65,
          "name": "F4",
          "ticks": 39967,
          "time": 90.83408333958334,
          "velocity": 0.6299212598425197
        },
        {
          "duration": 1.0340908229166814,
          "durationTicks": 455,
          "midi": 37,
          "name": "C#2",
          "ticks": 40320,
          "time": 91.636356,
          "velocity": 0.6299212598425197
        },
        {
          "duration": 1.0886362729166592,
          "durationTicks": 479,
          "midi": 49,
          "name": "C#3",
          "ticks": 40800,
          "time": 92.72726500000002,
          "velocity": 0.6299212598425197
        },
        {
          "duration": 0.9431817395833519,
          "durationTicks": 415,
          "midi": 52,
          "name": "E3",
          "ticks": 40863,
          "time": 92.87044680625,
          "velocity": 0.6299212598425197
        },
        {
          "duration": 0.797727206250002,
          "durationTicks": 351,
          "midi": 55,
          "name": "G3",
          "ticks": 40927,
          "time": 93.01590133958335,
          "velocity": 0.6299212598425197
        },
        {
          "duration": 1.0340908229166672,
          "durationTicks": 455,
          "midi": 33,
          "name": "A1",
          "ticks": 41280,
          "time": 93.81817400000001,
          "velocity": 0.6299212598425197
        },
        {
          "duration": 1.0340908229166672,
          "durationTicks": 455,
          "midi": 45,
          "name": "A2",
          "ticks": 41280,
          "time": 93.81817400000001,
          "velocity": 0.6299212598425197
        },
        {
          "duration": 1.0886362729166734,
          "durationTicks": 479,
          "midi": 52,
          "name": "E3",
          "ticks": 41760,
          "time": 94.90908300000001,
          "velocity": 0.6299212598425197
        },
        {
          "duration": 0.9431817395833377,
          "durationTicks": 415,
          "midi": 55,
          "name": "G3",
          "ticks": 41823,
          "time": 95.05226480625001,
          "velocity": 0.6299212598425197
        },
        {
          "duration": 0.797727206250002,
          "durationTicks": 351,
          "midi": 57,
          "name": "A3",
          "ticks": 41887,
          "time": 95.19771933958334,
          "velocity": 0.6299212598425197
        },
        {
          "duration": 0.6522726729166664,
          "durationTicks": 287,
          "midi": 61,
          "name": "C#4",
          "ticks": 41952,
          "time": 95.34544660000002,
          "velocity": 0.6299212598425197
        },
        {
          "duration": 1.0340908229166814,
          "durationTicks": 455,
          "midi": 38,
          "name": "D2",
          "ticks": 42240,
          "time": 95.999992,
          "velocity": 0.6299212598425197
        },
        {
          "duration": 1.0340908229166814,
          "durationTicks": 455,
          "midi": 50,
          "name": "D3",
          "ticks": 42240,
          "time": 95.999992,
          "velocity": 0.6299212598425197
        },
        {
          "duration": 1.0886362729166592,
          "durationTicks": 479,
          "midi": 53,
          "name": "F3",
          "ticks": 42720,
          "time": 97.09090100000002,
          "velocity": 0.6299212598425197
        },
        {
          "duration": 0.9431817395833519,
          "durationTicks": 415,
          "midi": 57,
          "name": "A3",
          "ticks": 42783,
          "time": 97.23408280625,
          "velocity": 0.6299212598425197
        },
        {
          "duration": 0.797727206250002,
          "durationTicks": 351,
          "midi": 62,
          "name": "D4",
          "ticks": 42847,
          "time": 97.37953733958335,
          "velocity": 0.6299212598425197
        },
        {
          "duration": 1.0886362729166734,
          "durationTicks": 479,
          "midi": 57,
          "name": "A3",
          "ticks": 43200,
          "time": 98.18181000000001,
          "velocity": 0.6299212598425197
        },
        {
          "duration": 0.9431817395833377,
          "durationTicks": 415,
          "midi": 62,
          "name": "D4",
          "ticks": 43263,
          "time": 98.32499180625001,
          "velocity": 0.6299212598425197
        },
        {
          "duration": 0.797727206250002,
          "durationTicks": 351,
          "midi": 65,
          "name": "F4",
          "ticks": 43327,
          "time": 98.47044633958335,
          "velocity": 0.6299212598425197
        },
        {
          "duration": 1.0340908229166814,
          "durationTicks": 455,
          "midi": 31,
          "name": "G1",
          "ticks": 44160,
          "time": 100.363628,
          "velocity": 0.6299212598425197
        },
        {
          "duration": 1.0340908229166814,
          "durationTicks": 455,
          "midi": 43,
          "name": "G2",
          "ticks": 44160,
          "time": 100.363628,
          "velocity": 0.6299212598425197
        },
        {
          "duration": 1.0886362729166592,
          "durationTicks": 479,
          "midi": 52,
          "name": "E3",
          "ticks": 44640,
          "time": 101.45453700000002,
          "velocity": 0.6299212598425197
        },
        {
          "duration": 0.9431817395833519,
          "durationTicks": 415,
          "midi": 55,
          "name": "G3",
          "ticks": 44703,
          "time": 101.59771880625,
          "velocity": 0.6299212598425197
        },
        {
          "duration": 0.797727206250002,
          "durationTicks": 351,
          "midi": 58,
          "name": "A#3",
          "ticks": 44767,
          "time": 101.74317333958335,
          "velocity": 0.6299212598425197
        },
        {
          "duration": 0.6522726729166521,
          "durationTicks": 287,
          "midi": 62,
          "name": "D4",
          "ticks": 44832,
          "time": 101.89090060000002,
          "velocity": 0.6299212598425197
        },
        {
          "duration": 1.0886362729166734,
          "durationTicks": 479,
          "midi": 55,
          "name": "G3",
          "ticks": 45120,
          "time": 102.54544600000001,
          "velocity": 0.6299212598425197
        },
        {
          "duration": 0.9431817395833377,
          "durationTicks": 415,
          "midi": 62,
          "name": "D4",
          "ticks": 45183,
          "time": 102.68862780625001,
          "velocity": 0.6299212598425197
        },
        {
          "duration": 0.797727206250002,
          "durationTicks": 351,
          "midi": 64,
          "name": "E4",
          "ticks": 45247,
          "time": 102.83408233958335,
          "velocity": 0.6299212598425197
        },
        {
          "duration": 1.0340908229166672,
          "durationTicks": 455,
          "midi": 33,
          "name": "A1",
          "ticks": 46080,
          "time": 104.72726400000002,
          "velocity": 0.6299212598425197
        },
        {
          "duration": 1.0340908229166672,
          "durationTicks": 455,
          "midi": 45,
          "name": "A2",
          "ticks": 46080,
          "time": 104.72726400000002,
          "velocity": 0.6299212598425197
        },
        {
          "duration": 1.0886362729166592,
          "durationTicks": 479,
          "midi": 50,
          "name": "D3",
          "ticks": 46560,
          "time": 105.81817300000002,
          "velocity": 0.6299212598425197
        },
        {
          "duration": 0.9431817395833519,
          "durationTicks": 415,
          "midi": 53,
          "name": "F3",
          "ticks": 46623,
          "time": 105.96135480625,
          "velocity": 0.6299212598425197
        },
        {
          "duration": 0.797727206250002,
          "durationTicks": 351,
          "midi": 57,
          "name": "A3",
          "ticks": 46687,
          "time": 106.10680933958335,
          "velocity": 0.6299212598425197
        },
        {
          "duration": 1.0886362729166734,
          "durationTicks": 479,
          "midi": 53,
          "name": "F3",
          "ticks": 47040,
          "time": 106.90908200000001,
          "velocity": 0.6299212598425197
        },
        {
          "duration": 0.9431817395833377,
          "durationTicks": 415,
          "midi": 57,
          "name": "A3",
          "ticks": 47103,
          "time": 107.05226380625001,
          "velocity": 0.6299212598425197
        },
        {
          "duration": 0.797727206250002,
          "durationTicks": 351,
          "midi": 62,
          "name": "D4",
          "ticks": 47167,
          "time": 107.19771833958335,
          "velocity": 0.6299212598425197
        },
        {
          "duration": 1.0340908229166672,
          "durationTicks": 455,
          "midi": 37,
          "name": "C#2",
          "ticks": 48000,
          "time": 109.09090000000002,
          "velocity": 0.6299212598425197
        },
        {
          "duration": 1.0340908229166672,
          "durationTicks": 455,
          "midi": 49,
          "name": "C#3",
          "ticks": 48000,
          "time": 109.09090000000002,
          "velocity": 0.6299212598425197
        },
        {
          "duration": 1.0886362729166734,
          "durationTicks": 479,
          "midi": 52,
          "name": "E3",
          "ticks": 48480,
          "time": 110.18180900000002,
          "velocity": 0.6299212598425197
        },
        {
          "duration": 0.9431817395833519,
          "durationTicks": 415,
          "midi": 55,
          "name": "G3",
          "ticks": 48543,
          "time": 110.32499080625,
          "velocity": 0.6299212598425197
        },
        {
          "duration": 0.797727206250002,
          "durationTicks": 351,
          "midi": 57,
          "name": "A3",
          "ticks": 48607,
          "time": 110.47044533958335,
          "velocity": 0.6299212598425197
        },
        {
          "duration": 1.0340908229166672,
          "durationTicks": 455,
          "midi": 33,
          "name": "A1",
          "ticks": 48960,
          "time": 111.27271800000001,
          "velocity": 0.6299212598425197
        },
        {
          "duration": 1.0340908229166672,
          "durationTicks": 455,
          "midi": 45,
          "name": "A2",
          "ticks": 48960,
          "time": 111.27271800000001,
          "velocity": 0.6299212598425197
        },
        {
          "duration": 1.0886362729166734,
          "durationTicks": 479,
          "midi": 55,
          "name": "G3",
          "ticks": 49440,
          "time": 112.36362700000001,
          "velocity": 0.6299212598425197
        },
        {
          "duration": 0.9431817395833377,
          "durationTicks": 415,
          "midi": 57,
          "name": "A3",
          "ticks": 49503,
          "time": 112.50680880625,
          "velocity": 0.6299212598425197
        },
        {
          "duration": 0.797727206250002,
          "durationTicks": 351,
          "midi": 61,
          "name": "C#4",
          "ticks": 49567,
          "time": 112.65226333958334,
          "velocity": 0.6299212598425197
        },
        {
          "duration": 1.0340908229166672,
          "durationTicks": 455,
          "midi": 57,
          "name": "A3",
          "ticks": 49920,
          "time": 113.45453600000002,
          "velocity": 0.6299212598425197
        },
        {
          "duration": 1.0340908229166672,
          "durationTicks": 455,
          "midi": 38,
          "name": "D2",
          "ticks": 49920,
          "time": 113.45453600000002,
          "velocity": 0.6299212598425197
        },
        {
          "duration": 1.0340908229166672,
          "durationTicks": 455,
          "midi": 55,
          "name": "G3",
          "ticks": 50400,
          "time": 114.54544500000002,
          "velocity": 0.6692913385826772
        },
        {
          "duration": 1.0340908229166672,
          "durationTicks": 455,
          "midi": 57,
          "name": "A3",
          "ticks": 50400,
          "time": 114.54544500000002,
          "velocity": 0.6692913385826772
        },
        {
          "duration": 1.0340908229166672,
          "durationTicks": 455,
          "midi": 33,
          "name": "A1",
          "ticks": 50400,
          "time": 114.54544500000002,
          "velocity": 0.6692913385826772
        },
        {
          "duration": 1.0340908229166672,
          "durationTicks": 455,
          "midi": 45,
          "name": "A2",
          "ticks": 50400,
          "time": 114.54544500000002,
          "velocity": 0.6692913385826772
        },
        {
          "duration": 1.0340908229166672,
          "durationTicks": 455,
          "midi": 53,
          "name": "F3",
          "ticks": 50880,
          "time": 115.63635400000001,
          "velocity": 0.6692913385826772
        },
        {
          "duration": 1.0340908229166672,
          "durationTicks": 455,
          "midi": 57,
          "name": "A3",
          "ticks": 50880,
          "time": 115.63635400000001,
          "velocity": 0.6692913385826772
        },
        {
          "duration": 1.0340908229166672,
          "durationTicks": 455,
          "midi": 38,
          "name": "D2",
          "ticks": 50880,
          "time": 115.63635400000001,
          "velocity": 0.6692913385826772
        },
        {
          "duration": 1.0340908229166672,
          "durationTicks": 455,
          "midi": 50,
          "name": "D3",
          "ticks": 50880,
          "time": 115.63635400000001,
          "velocity": 0.6692913385826772
        },
        {
          "duration": 0.2026788416666676,
          "durationTicks": 227,
          "midi": 50,
          "name": "D3",
          "ticks": 51840,
          "time": 117.81817200000002,
          "velocity": 0.4881889763779528
        },
        {
          "duration": 0.2026788416666676,
          "durationTicks": 227,
          "midi": 53,
          "name": "F3",
          "ticks": 52080,
          "time": 118.03245800000002,
          "velocity": 0.4881889763779528
        },
        {
          "duration": 0.2026788416666676,
          "durationTicks": 227,
          "midi": 57,
          "name": "A3",
          "ticks": 52080,
          "time": 118.03245800000002,
          "velocity": 0.4881889763779528
        },
        {
          "duration": 0.2026788416666676,
          "durationTicks": 227,
          "midi": 62,
          "name": "D4",
          "ticks": 52080,
          "time": 118.03245800000002,
          "velocity": 0.4881889763779528
        },
        {
          "duration": 0.2026788416666676,
          "durationTicks": 227,
          "midi": 45,
          "name": "A2",
          "ticks": 52320,
          "time": 118.24674400000002,
          "velocity": 0.4881889763779528
        },
        {
          "duration": 0.2026788416666676,
          "durationTicks": 227,
          "midi": 53,
          "name": "F3",
          "ticks": 52560,
          "time": 118.46103000000002,
          "velocity": 0.4881889763779528
        },
        {
          "duration": 0.2026788416666676,
          "durationTicks": 227,
          "midi": 57,
          "name": "A3",
          "ticks": 52560,
          "time": 118.46103000000002,
          "velocity": 0.4881889763779528
        },
        {
          "duration": 0.2026788416666676,
          "durationTicks": 227,
          "midi": 62,
          "name": "D4",
          "ticks": 52560,
          "time": 118.46103000000002,
          "velocity": 0.4881889763779528
        },
        {
          "duration": 0.2026788416666676,
          "durationTicks": 227,
          "midi": 50,
          "name": "D3",
          "ticks": 52800,
          "time": 118.67531600000002,
          "velocity": 0.4881889763779528
        },
        {
          "duration": 0.2026788416666534,
          "durationTicks": 227,
          "midi": 53,
          "name": "F3",
          "ticks": 53040,
          "time": 118.88960200000002,
          "velocity": 0.4881889763779528
        },
        {
          "duration": 0.2026788416666534,
          "durationTicks": 227,
          "midi": 57,
          "name": "A3",
          "ticks": 53040,
          "time": 118.88960200000002,
          "velocity": 0.4881889763779528
        },
        {
          "duration": 0.2026788416666534,
          "durationTicks": 227,
          "midi": 62,
          "name": "D4",
          "ticks": 53040,
          "time": 118.88960200000002,
          "velocity": 0.4881889763779528
        },
        {
          "duration": 0.2026788416666676,
          "durationTicks": 227,
          "midi": 45,
          "name": "A2",
          "ticks": 53280,
          "time": 119.10388800000001,
          "velocity": 0.4881889763779528
        },
        {
          "duration": 0.2026788416666676,
          "durationTicks": 227,
          "midi": 53,
          "name": "F3",
          "ticks": 53520,
          "time": 119.31817400000001,
          "velocity": 0.4881889763779528
        },
        {
          "duration": 0.2026788416666676,
          "durationTicks": 227,
          "midi": 57,
          "name": "A3",
          "ticks": 53520,
          "time": 119.31817400000001,
          "velocity": 0.4881889763779528
        },
        {
          "duration": 0.2026788416666676,
          "durationTicks": 227,
          "midi": 62,
          "name": "D4",
          "ticks": 53520,
          "time": 119.31817400000001,
          "velocity": 0.4881889763779528
        },
        {
          "duration": 0.2026788416666676,
          "durationTicks": 227,
          "midi": 50,
          "name": "D3",
          "ticks": 53760,
          "time": 119.53246000000001,
          "velocity": 0.4881889763779528
        },
        {
          "duration": 0.2026788416666676,
          "durationTicks": 227,
          "midi": 53,
          "name": "F3",
          "ticks": 54000,
          "time": 119.74674600000002,
          "velocity": 0.4881889763779528
        },
        {
          "duration": 0.2026788416666676,
          "durationTicks": 227,
          "midi": 57,
          "name": "A3",
          "ticks": 54000,
          "time": 119.74674600000002,
          "velocity": 0.4881889763779528
        },
        {
          "duration": 0.2026788416666676,
          "durationTicks": 227,
          "midi": 62,
          "name": "D4",
          "ticks": 54000,
          "time": 119.74674600000002,
          "velocity": 0.4881889763779528
        },
        {
          "duration": 0.2026788416666676,
          "durationTicks": 227,
          "midi": 45,
          "name": "A2",
          "ticks": 54240,
          "time": 119.96103200000002,
          "velocity": 0.4881889763779528
        },
        {
          "duration": 0.2026788416666676,
          "durationTicks": 227,
          "midi": 53,
          "name": "F3",
          "ticks": 54480,
          "time": 120.17531800000002,
          "velocity": 0.4881889763779528
        },
        {
          "duration": 0.2026788416666676,
          "durationTicks": 227,
          "midi": 57,
          "name": "A3",
          "ticks": 54480,
          "time": 120.17531800000002,
          "velocity": 0.4881889763779528
        },
        {
          "duration": 0.2026788416666676,
          "durationTicks": 227,
          "midi": 62,
          "name": "D4",
          "ticks": 54480,
          "time": 120.17531800000002,
          "velocity": 0.4881889763779528
        },
        {
          "duration": 0.2026788416666676,
          "durationTicks": 227,
          "midi": 50,
          "name": "D3",
          "ticks": 54720,
          "time": 120.38960400000002,
          "velocity": 0.4881889763779528
        },
        {
          "duration": 0.2026788416666676,
          "durationTicks": 227,
          "midi": 53,
          "name": "F3",
          "ticks": 54960,
          "time": 120.60389000000002,
          "velocity": 0.4881889763779528
        },
        {
          "duration": 0.2026788416666676,
          "durationTicks": 227,
          "midi": 57,
          "name": "A3",
          "ticks": 54960,
          "time": 120.60389000000002,
          "velocity": 0.4881889763779528
        },
        {
          "duration": 0.2026788416666676,
          "durationTicks": 227,
          "midi": 62,
          "name": "D4",
          "ticks": 54960,
          "time": 120.60389000000002,
          "velocity": 0.4881889763779528
        },
        {
          "duration": 0.2026788416666676,
          "durationTicks": 227,
          "midi": 45,
          "name": "A2",
          "ticks": 55200,
          "time": 120.81817600000002,
          "velocity": 0.4881889763779528
        },
        {
          "duration": 0.2026788416666676,
          "durationTicks": 227,
          "midi": 53,
          "name": "F3",
          "ticks": 55440,
          "time": 121.03246200000002,
          "velocity": 0.4881889763779528
        },
        {
          "duration": 0.2026788416666676,
          "durationTicks": 227,
          "midi": 57,
          "name": "A3",
          "ticks": 55440,
          "time": 121.03246200000002,
          "velocity": 0.4881889763779528
        },
        {
          "duration": 0.2026788416666676,
          "durationTicks": 227,
          "midi": 62,
          "name": "D4",
          "ticks": 55440,
          "time": 121.03246200000002,
          "velocity": 0.4881889763779528
        },
        {
          "duration": 0.2026788416666534,
          "durationTicks": 227,
          "midi": 50,
          "name": "D3",
          "ticks": 55680,
          "time": 121.24674800000003,
          "velocity": 0.4881889763779528
        },
        {
          "duration": 0.2026788416666676,
          "durationTicks": 227,
          "midi": 53,
          "name": "F3",
          "ticks": 55920,
          "time": 121.46103400000001,
          "velocity": 0.5118110236220472
        },
        {
          "duration": 0.2026788416666676,
          "durationTicks": 227,
          "midi": 57,
          "name": "A3",
          "ticks": 55920,
          "time": 121.46103400000001,
          "velocity": 0.5118110236220472
        },
        {
          "duration": 0.2026788416666676,
          "durationTicks": 227,
          "midi": 62,
          "name": "D4",
          "ticks": 55920,
          "time": 121.46103400000001,
          "velocity": 0.5118110236220472
        },
        {
          "duration": 0.2026788416666676,
          "durationTicks": 227,
          "midi": 45,
          "name": "A2",
          "ticks": 56160,
          "time": 121.67532000000001,
          "velocity": 0.5354330708661418
        },
        {
          "duration": 0.2026788416666676,
          "durationTicks": 227,
          "midi": 53,
          "name": "F3",
          "ticks": 56400,
          "time": 121.88960600000001,
          "velocity": 0.5590551181102362
        },
        {
          "duration": 0.2026788416666676,
          "durationTicks": 227,
          "midi": 57,
          "name": "A3",
          "ticks": 56400,
          "time": 121.88960600000001,
          "velocity": 0.5590551181102362
        },
        {
          "duration": 0.2026788416666676,
          "durationTicks": 227,
          "midi": 62,
          "name": "D4",
          "ticks": 56400,
          "time": 121.88960600000001,
          "velocity": 0.5590551181102362
        },
        {
          "duration": 0.2026788416666676,
          "durationTicks": 227,
          "midi": 50,
          "name": "D3",
          "ticks": 56640,
          "time": 122.10389200000002,
          "velocity": 0.5826771653543307
        },
        {
          "duration": 0.2026788416666676,
          "durationTicks": 227,
          "midi": 53,
          "name": "F3",
          "ticks": 56880,
          "time": 122.31817800000002,
          "velocity": 0.6062992125984252
        },
        {
          "duration": 0.2026788416666676,
          "durationTicks": 227,
          "midi": 57,
          "name": "A3",
          "ticks": 56880,
          "time": 122.31817800000002,
          "velocity": 0.6062992125984252
        },
        {
          "duration": 0.2026788416666676,
          "durationTicks": 227,
          "midi": 62,
          "name": "D4",
          "ticks": 56880,
          "time": 122.31817800000002,
          "velocity": 0.6062992125984252
        },
        {
          "duration": 0.2026788416666676,
          "durationTicks": 227,
          "midi": 45,
          "name": "A2",
          "ticks": 57120,
          "time": 122.53246400000002,
          "velocity": 0.6299212598425197
        },
        {
          "duration": 0.2026788416666676,
          "durationTicks": 227,
          "midi": 53,
          "name": "F3",
          "ticks": 57360,
          "time": 122.74675000000002,
          "velocity": 0.6535433070866141
        },
        {
          "duration": 0.2026788416666676,
          "durationTicks": 227,
          "midi": 57,
          "name": "A3",
          "ticks": 57360,
          "time": 122.74675000000002,
          "velocity": 0.6535433070866141
        },
        {
          "duration": 0.2026788416666676,
          "durationTicks": 227,
          "midi": 62,
          "name": "D4",
          "ticks": 57360,
          "time": 122.74675000000002,
          "velocity": 0.6535433070866141
        },
        {
          "duration": 0.2026788416666676,
          "durationTicks": 227,
          "midi": 43,
          "name": "G2",
          "ticks": 57600,
          "time": 122.96103600000002,
          "velocity": 0.6692913385826772
        },
        {
          "duration": 0.2026788416666676,
          "durationTicks": 227,
          "midi": 55,
          "name": "G3",
          "ticks": 57840,
          "time": 123.17532200000002,
          "velocity": 0.6692913385826772
        },
        {
          "duration": 0.2026788416666676,
          "durationTicks": 227,
          "midi": 58,
          "name": "A#3",
          "ticks": 57840,
          "time": 123.17532200000002,
          "velocity": 0.6692913385826772
        },
        {
          "duration": 0.2026788416666676,
          "durationTicks": 227,
          "midi": 62,
          "name": "D4",
          "ticks": 57840,
          "time": 123.17532200000002,
          "velocity": 0.6692913385826772
        },
        {
          "duration": 0.2026788416666676,
          "durationTicks": 227,
          "midi": 46,
          "name": "A#2",
          "ticks": 58080,
          "time": 123.38960800000002,
          "velocity": 0.6692913385826772
        },
        {
          "duration": 0.2026788416666534,
          "durationTicks": 227,
          "midi": 55,
          "name": "G3",
          "ticks": 58320,
          "time": 123.60389400000003,
          "velocity": 0.6692913385826772
        },
        {
          "duration": 0.2026788416666534,
          "durationTicks": 227,
          "midi": 58,
          "name": "A#3",
          "ticks": 58320,
          "time": 123.60389400000003,
          "velocity": 0.6692913385826772
        },
        {
          "duration": 0.2026788416666534,
          "durationTicks": 227,
          "midi": 62,
          "name": "D4",
          "ticks": 58320,
          "time": 123.60389400000003,
          "velocity": 0.6692913385826772
        },
        {
          "duration": 0.2026788416666676,
          "durationTicks": 227,
          "midi": 55,
          "name": "G3",
          "ticks": 58560,
          "time": 123.81818000000001,
          "velocity": 0.6692913385826772
        },
        {
          "duration": 0.2026788416666676,
          "durationTicks": 227,
          "midi": 58,
          "name": "A#3",
          "ticks": 58800,
          "time": 124.03246600000001,
          "velocity": 0.6692913385826772
        },
        {
          "duration": 0.2026788416666676,
          "durationTicks": 227,
          "midi": 62,
          "name": "D4",
          "ticks": 58800,
          "time": 124.03246600000001,
          "velocity": 0.6692913385826772
        },
        {
          "duration": 0.2026788416666676,
          "durationTicks": 227,
          "midi": 43,
          "name": "G2",
          "ticks": 59040,
          "time": 124.24675200000001,
          "velocity": 0.6692913385826772
        },
        {
          "duration": 0.2026788416666676,
          "durationTicks": 227,
          "midi": 55,
          "name": "G3",
          "ticks": 59280,
          "time": 124.46103800000002,
          "velocity": 0.6692913385826772
        },
        {
          "duration": 0.2026788416666676,
          "durationTicks": 227,
          "midi": 58,
          "name": "A#3",
          "ticks": 59280,
          "time": 124.46103800000002,
          "velocity": 0.6692913385826772
        },
        {
          "duration": 0.2026788416666676,
          "durationTicks": 227,
          "midi": 62,
          "name": "D4",
          "ticks": 59280,
          "time": 124.46103800000002,
          "velocity": 0.6692913385826772
        },
        {
          "duration": 0.2026788416666676,
          "durationTicks": 227,
          "midi": 52,
          "name": "E3",
          "ticks": 59520,
          "time": 124.67532400000002,
          "velocity": 0.49606299212598426
        },
        {
          "duration": 0.2026788416666676,
          "durationTicks": 227,
          "midi": 55,
          "name": "G3",
          "ticks": 59760,
          "time": 124.88961000000002,
          "velocity": 0.49606299212598426
        },
        {
          "duration": 0.2026788416666676,
          "durationTicks": 227,
          "midi": 58,
          "name": "A#3",
          "ticks": 59760,
          "time": 124.88961000000002,
          "velocity": 0.49606299212598426
        },
        {
          "duration": 0.2026788416666676,
          "durationTicks": 227,
          "midi": 62,
          "name": "D4",
          "ticks": 59760,
          "time": 124.88961000000002,
          "velocity": 0.49606299212598426
        },
        {
          "duration": 0.2026788416666676,
          "durationTicks": 227,
          "midi": 46,
          "name": "A#2",
          "ticks": 60000,
          "time": 125.10389600000002,
          "velocity": 0.49606299212598426
        },
        {
          "duration": 0.2026788416666676,
          "durationTicks": 227,
          "midi": 55,
          "name": "G3",
          "ticks": 60240,
          "time": 125.31818200000002,
          "velocity": 0.49606299212598426
        },
        {
          "duration": 0.2026788416666676,
          "durationTicks": 227,
          "midi": 58,
          "name": "A#3",
          "ticks": 60240,
          "time": 125.31818200000002,
          "velocity": 0.49606299212598426
        },
        {
          "duration": 0.2026788416666676,
          "durationTicks": 227,
          "midi": 62,
          "name": "D4",
          "ticks": 60240,
          "time": 125.31818200000002,
          "velocity": 0.49606299212598426
        },
        {
          "duration": 0.2026788416666676,
          "durationTicks": 227,
          "midi": 43,
          "name": "G2",
          "ticks": 60480,
          "time": 125.53246800000002,
          "velocity": 0.49606299212598426
        },
        {
          "duration": 0.2026788416666676,
          "durationTicks": 227,
          "midi": 55,
          "name": "G3",
          "ticks": 60720,
          "time": 125.74675400000002,
          "velocity": 0.49606299212598426
        },
        {
          "duration": 0.2026788416666676,
          "durationTicks": 227,
          "midi": 58,
          "name": "A#3",
          "ticks": 60720,
          "time": 125.74675400000002,
          "velocity": 0.49606299212598426
        },
        {
          "duration": 0.2026788416666676,
          "durationTicks": 227,
          "midi": 62,
          "name": "D4",
          "ticks": 60720,
          "time": 125.74675400000002,
          "velocity": 0.49606299212598426
        },
        {
          "duration": 0.2026788416666534,
          "durationTicks": 227,
          "midi": 52,
          "name": "E3",
          "ticks": 60960,
          "time": 125.96104000000003,
          "velocity": 0.49606299212598426
        },
        {
          "duration": 0.2026788416666676,
          "durationTicks": 227,
          "midi": 55,
          "name": "G3",
          "ticks": 61200,
          "time": 126.17532600000001,
          "velocity": 0.49606299212598426
        },
        {
          "duration": 0.2026788416666676,
          "durationTicks": 227,
          "midi": 58,
          "name": "A#3",
          "ticks": 61200,
          "time": 126.17532600000001,
          "velocity": 0.49606299212598426
        },
        {
          "duration": 0.2026788416666676,
          "durationTicks": 227,
          "midi": 62,
          "name": "D4",
          "ticks": 61200,
          "time": 126.17532600000001,
          "velocity": 0.49606299212598426
        },
        {
          "duration": 0.2026788416666676,
          "durationTicks": 227,
          "midi": 45,
          "name": "A2",
          "ticks": 61440,
          "time": 126.38961200000001,
          "velocity": 0.49606299212598426
        },
        {
          "duration": 0.2026788416666676,
          "durationTicks": 227,
          "midi": 53,
          "name": "F3",
          "ticks": 61680,
          "time": 126.60389800000002,
          "velocity": 0.5118110236220472
        },
        {
          "duration": 0.2026788416666676,
          "durationTicks": 227,
          "midi": 57,
          "name": "A3",
          "ticks": 61680,
          "time": 126.60389800000002,
          "velocity": 0.5118110236220472
        },
        {
          "duration": 0.2026788416666676,
          "durationTicks": 227,
          "midi": 62,
          "name": "D4",
          "ticks": 61680,
          "time": 126.60389800000002,
          "velocity": 0.5118110236220472
        },
        {
          "duration": 0.2026788416666676,
          "durationTicks": 227,
          "midi": 50,
          "name": "D3",
          "ticks": 61920,
          "time": 126.81818400000002,
          "velocity": 0.5275590551181102
        },
        {
          "duration": 0.2026788416666676,
          "durationTicks": 227,
          "midi": 53,
          "name": "F3",
          "ticks": 62160,
          "time": 127.03247000000002,
          "velocity": 0.5433070866141733
        },
        {
          "duration": 0.2026788416666676,
          "durationTicks": 227,
          "midi": 57,
          "name": "A3",
          "ticks": 62160,
          "time": 127.03247000000002,
          "velocity": 0.5433070866141733
        },
        {
          "duration": 0.2026788416666676,
          "durationTicks": 227,
          "midi": 62,
          "name": "D4",
          "ticks": 62160,
          "time": 127.03247000000002,
          "velocity": 0.5433070866141733
        },
        {
          "duration": 0.2026788416666676,
          "durationTicks": 227,
          "midi": 53,
          "name": "F3",
          "ticks": 62400,
          "time": 127.24675600000002,
          "velocity": 0.5669291338582677
        },
        {
          "duration": 0.2026788416666676,
          "durationTicks": 227,
          "midi": 57,
          "name": "A3",
          "ticks": 62640,
          "time": 127.46104200000002,
          "velocity": 0.5826771653543307
        },
        {
          "duration": 0.2026788416666676,
          "durationTicks": 227,
          "midi": 62,
          "name": "D4",
          "ticks": 62640,
          "time": 127.46104200000002,
          "velocity": 0.5826771653543307
        },
        {
          "duration": 0.2026788416666676,
          "durationTicks": 227,
          "midi": 45,
          "name": "A2",
          "ticks": 62880,
          "time": 127.67532800000002,
          "velocity": 0.5984251968503937
        },
        {
          "duration": 0.2026788416666534,
          "durationTicks": 227,
          "midi": 53,
          "name": "F3",
          "ticks": 63120,
          "time": 127.88961400000002,
          "velocity": 0.6141732283464567
        },
        {
          "duration": 0.2026788416666534,
          "durationTicks": 227,
          "midi": 57,
          "name": "A3",
          "ticks": 63120,
          "time": 127.88961400000002,
          "velocity": 0.6141732283464567
        },
        {
          "duration": 0.2026788416666534,
          "durationTicks": 227,
          "midi": 62,
          "name": "D4",
          "ticks": 63120,
          "time": 127.88961400000002,
          "velocity": 0.6141732283464567
        },
        {
          "duration": 0.20267884166668182,
          "durationTicks": 227,
          "midi": 49,
          "name": "C#3",
          "ticks": 63360,
          "time": 128.1039,
          "velocity": 0.6299212598425197
        },
        {
          "duration": 0.2026788416666534,
          "durationTicks": 227,
          "midi": 55,
          "name": "G3",
          "ticks": 63600,
          "time": 128.31818600000003,
          "velocity": 0.6299212598425197
        },
        {
          "duration": 0.2026788416666534,
          "durationTicks": 227,
          "midi": 57,
          "name": "A3",
          "ticks": 63600,
          "time": 128.31818600000003,
          "velocity": 0.6299212598425197
        },
        {
          "duration": 0.20267884166668182,
          "durationTicks": 227,
          "midi": 45,
          "name": "A2",
          "ticks": 63840,
          "time": 128.532472,
          "velocity": 0.6299212598425197
        },
        {
          "duration": 0.2026788416666534,
          "durationTicks": 227,
          "midi": 55,
          "name": "G3",
          "ticks": 64080,
          "time": 128.74675800000003,
          "velocity": 0.6299212598425197
        },
        {
          "duration": 0.2026788416666534,
          "durationTicks": 227,
          "midi": 57,
          "name": "A3",
          "ticks": 64080,
          "time": 128.74675800000003,
          "velocity": 0.6299212598425197
        },
        {
          "duration": 0.20267884166668182,
          "durationTicks": 227,
          "midi": 52,
          "name": "E3",
          "ticks": 64320,
          "time": 128.96104400000002,
          "velocity": 0.6299212598425197
        },
        {
          "duration": 0.2026788416666534,
          "durationTicks": 227,
          "midi": 55,
          "name": "G3",
          "ticks": 64560,
          "time": 129.17533000000003,
          "velocity": 0.6299212598425197
        },
        {
          "duration": 0.2026788416666534,
          "durationTicks": 227,
          "midi": 57,
          "name": "A3",
          "ticks": 64560,
          "time": 129.17533000000003,
          "velocity": 0.6299212598425197
        },
        {
          "duration": 0.2026788416666534,
          "durationTicks": 227,
          "midi": 60,
          "name": "C4",
          "ticks": 64560,
          "time": 129.17533000000003,
          "velocity": 0.6299212598425197
        },
        {
          "duration": 0.2026788416666534,
          "durationTicks": 227,
          "midi": 45,
          "name": "A2",
          "ticks": 64800,
          "time": 129.38961600000002,
          "velocity": 0.6299212598425197
        },
        {
          "duration": 0.20267884166668182,
          "durationTicks": 227,
          "midi": 55,
          "name": "G3",
          "ticks": 65040,
          "time": 129.603902,
          "velocity": 0.6299212598425197
        },
        {
          "duration": 0.20267884166668182,
          "durationTicks": 227,
          "midi": 57,
          "name": "A3",
          "ticks": 65040,
          "time": 129.603902,
          "velocity": 0.6299212598425197
        },
        {
          "duration": 0.20267884166668182,
          "durationTicks": 227,
          "midi": 60,
          "name": "C4",
          "ticks": 65040,
          "time": 129.603902,
          "velocity": 0.6299212598425197
        },
        {
          "duration": 0.2026788416666534,
          "durationTicks": 227,
          "midi": 50,
          "name": "D3",
          "ticks": 65280,
          "time": 129.81818800000002,
          "velocity": 0.6299212598425197
        },
        {
          "duration": 0.20267884166668182,
          "durationTicks": 227,
          "midi": 53,
          "name": "F3",
          "ticks": 65520,
          "time": 130.032474,
          "velocity": 0.6299212598425197
        },
        {
          "duration": 0.20267884166668182,
          "durationTicks": 227,
          "midi": 57,
          "name": "A3",
          "ticks": 65520,
          "time": 130.032474,
          "velocity": 0.6299212598425197
        },
        {
          "duration": 0.20267884166668182,
          "durationTicks": 227,
          "midi": 62,
          "name": "D4",
          "ticks": 65520,
          "time": 130.032474,
          "velocity": 0.6299212598425197
        },
        {
          "duration": 0.2026788416666534,
          "durationTicks": 227,
          "midi": 45,
          "name": "A2",
          "ticks": 65760,
          "time": 130.24676000000002,
          "velocity": 0.6299212598425197
        },
        {
          "duration": 0.20267884166668182,
          "durationTicks": 227,
          "midi": 55,
          "name": "G3",
          "ticks": 66000,
          "time": 130.461046,
          "velocity": 0.6299212598425197
        },
        {
          "duration": 0.20267884166668182,
          "durationTicks": 227,
          "midi": 57,
          "name": "A3",
          "ticks": 66000,
          "time": 130.461046,
          "velocity": 0.6299212598425197
        },
        {
          "duration": 0.20267884166668182,
          "durationTicks": 227,
          "midi": 64,
          "name": "E4",
          "ticks": 66000,
          "time": 130.461046,
          "velocity": 0.6299212598425197
        },
        {
          "duration": 0.2026788416666534,
          "durationTicks": 227,
          "midi": 50,
          "name": "D3",
          "ticks": 66240,
          "time": 130.67533200000003,
          "velocity": 0.6299212598425197
        },
        {
          "duration": 0.20267884166668182,
          "durationTicks": 227,
          "midi": 53,
          "name": "F3",
          "ticks": 66480,
          "time": 130.889618,
          "velocity": 0.6299212598425197
        },
        {
          "duration": 0.20267884166668182,
          "durationTicks": 227,
          "midi": 57,
          "name": "A3",
          "ticks": 66480,
          "time": 130.889618,
          "velocity": 0.6299212598425197
        },
        {
          "duration": 0.20267884166668182,
          "durationTicks": 227,
          "midi": 62,
          "name": "D4",
          "ticks": 66480,
          "time": 130.889618,
          "velocity": 0.6299212598425197
        },
        {
          "duration": 0.2026788416666534,
          "durationTicks": 227,
          "midi": 45,
          "name": "A2",
          "ticks": 66720,
          "time": 131.10390400000003,
          "velocity": 0.6299212598425197
        },
        {
          "duration": 0.20267884166668182,
          "durationTicks": 227,
          "midi": 53,
          "name": "F3",
          "ticks": 66960,
          "time": 131.31819000000002,
          "velocity": 0.6299212598425197
        },
        {
          "duration": 0.20267884166668182,
          "durationTicks": 227,
          "midi": 57,
          "name": "A3",
          "ticks": 66960,
          "time": 131.31819000000002,
          "velocity": 0.6299212598425197
        },
        {
          "duration": 0.20267884166668182,
          "durationTicks": 227,
          "midi": 62,
          "name": "D4",
          "ticks": 66960,
          "time": 131.31819000000002,
          "velocity": 0.6299212598425197
        },
        {
          "duration": 0.2026788416666534,
          "durationTicks": 227,
          "midi": 50,
          "name": "D3",
          "ticks": 67200,
          "time": 131.53247600000003,
          "velocity": 0.4881889763779528
        },
        {
          "duration": 0.20267884166668182,
          "durationTicks": 227,
          "midi": 53,
          "name": "F3",
          "ticks": 67440,
          "time": 131.74676200000002,
          "velocity": 0.4881889763779528
        },
        {
          "duration": 0.20267884166668182,
          "durationTicks": 227,
          "midi": 57,
          "name": "A3",
          "ticks": 67440,
          "time": 131.74676200000002,
          "velocity": 0.4881889763779528
        },
        {
          "duration": 0.20267884166668182,
          "durationTicks": 227,
          "midi": 62,
          "name": "D4",
          "ticks": 67440,
          "time": 131.74676200000002,
          "velocity": 0.4881889763779528
        },
        {
          "duration": 0.2026788416666534,
          "durationTicks": 227,
          "midi": 45,
          "name": "A2",
          "ticks": 67680,
          "time": 131.96104800000003,
          "velocity": 0.4881889763779528
        },
        {
          "duration": 0.20267884166668182,
          "durationTicks": 227,
          "midi": 53,
          "name": "F3",
          "ticks": 67920,
          "time": 132.17533400000002,
          "velocity": 0.4881889763779528
        },
        {
          "duration": 0.20267884166668182,
          "durationTicks": 227,
          "midi": 57,
          "name": "A3",
          "ticks": 67920,
          "time": 132.17533400000002,
          "velocity": 0.4881889763779528
        },
        {
          "duration": 0.20267884166668182,
          "durationTicks": 227,
          "midi": 62,
          "name": "D4",
          "ticks": 67920,
          "time": 132.17533400000002,
          "velocity": 0.4881889763779528
        },
        {
          "duration": 0.2026788416666534,
          "durationTicks": 227,
          "midi": 50,
          "name": "D3",
          "ticks": 68160,
          "time": 132.38962000000004,
          "velocity": 0.4881889763779528
        },
        {
          "duration": 0.20267884166668182,
          "durationTicks": 227,
          "midi": 53,
          "name": "F3",
          "ticks": 68400,
          "time": 132.60390600000002,
          "velocity": 0.4881889763779528
        },
        {
          "duration": 0.20267884166668182,
          "durationTicks": 227,
          "midi": 57,
          "name": "A3",
          "ticks": 68400,
          "time": 132.60390600000002,
          "velocity": 0.4881889763779528
        },
        {
          "duration": 0.20267884166668182,
          "durationTicks": 227,
          "midi": 62,
          "name": "D4",
          "ticks": 68400,
          "time": 132.60390600000002,
          "velocity": 0.4881889763779528
        },
        {
          "duration": 0.2026788416666534,
          "durationTicks": 227,
          "midi": 45,
          "name": "A2",
          "ticks": 68640,
          "time": 132.81819200000004,
          "velocity": 0.4881889763779528
        },
        {
          "duration": 0.20267884166668182,
          "durationTicks": 227,
          "midi": 53,
          "name": "F3",
          "ticks": 68880,
          "time": 133.03247800000003,
          "velocity": 0.4881889763779528
        },
        {
          "duration": 0.20267884166668182,
          "durationTicks": 227,
          "midi": 57,
          "name": "A3",
          "ticks": 68880,
          "time": 133.03247800000003,
          "velocity": 0.4881889763779528
        },
        {
          "duration": 0.20267884166668182,
          "durationTicks": 227,
          "midi": 62,
          "name": "D4",
          "ticks": 68880,
          "time": 133.03247800000003,
          "velocity": 0.4881889763779528
        },
        {
          "duration": 0.2026788416666534,
          "durationTicks": 227,
          "midi": 50,
          "name": "D3",
          "ticks": 69120,
          "time": 133.24676400000004,
          "velocity": 0.4881889763779528
        },
        {
          "duration": 0.20267884166668182,
          "durationTicks": 227,
          "midi": 53,
          "name": "F3",
          "ticks": 69360,
          "time": 133.46105000000003,
          "velocity": 0.4881889763779528
        },
        {
          "duration": 0.20267884166668182,
          "durationTicks": 227,
          "midi": 57,
          "name": "A3",
          "ticks": 69360,
          "time": 133.46105000000003,
          "velocity": 0.4881889763779528
        },
        {
          "duration": 0.20267884166668182,
          "durationTicks": 227,
          "midi": 62,
          "name": "D4",
          "ticks": 69360,
          "time": 133.46105000000003,
          "velocity": 0.4881889763779528
        },
        {
          "duration": 0.2026788416666534,
          "durationTicks": 227,
          "midi": 45,
          "name": "A2",
          "ticks": 69600,
          "time": 133.67533600000004,
          "velocity": 0.4881889763779528
        },
        {
          "duration": 0.2026788416666534,
          "durationTicks": 227,
          "midi": 53,
          "name": "F3",
          "ticks": 69840,
          "time": 133.88962200000003,
          "velocity": 0.4881889763779528
        },
        {
          "duration": 0.2026788416666534,
          "durationTicks": 227,
          "midi": 57,
          "name": "A3",
          "ticks": 69840,
          "time": 133.88962200000003,
          "velocity": 0.4881889763779528
        },
        {
          "duration": 0.2026788416666534,
          "durationTicks": 227,
          "midi": 62,
          "name": "D4",
          "ticks": 69840,
          "time": 133.88962200000003,
          "velocity": 0.4881889763779528
        },
        {
          "duration": 0.20267884166668182,
          "durationTicks": 227,
          "midi": 50,
          "name": "D3",
          "ticks": 70080,
          "time": 134.10390800000002,
          "velocity": 0.4881889763779528
        },
        {
          "duration": 0.2026788416666534,
          "durationTicks": 227,
          "midi": 53,
          "name": "F3",
          "ticks": 70320,
          "time": 134.31819400000003,
          "velocity": 0.4881889763779528
        },
        {
          "duration": 0.2026788416666534,
          "durationTicks": 227,
          "midi": 57,
          "name": "A3",
          "ticks": 70320,
          "time": 134.31819400000003,
          "velocity": 0.4881889763779528
        },
        {
          "duration": 0.2026788416666534,
          "durationTicks": 227,
          "midi": 62,
          "name": "D4",
          "ticks": 70320,
          "time": 134.31819400000003,
          "velocity": 0.4881889763779528
        },
        {
          "duration": 0.20267884166668182,
          "durationTicks": 227,
          "midi": 45,
          "name": "A2",
          "ticks": 70560,
          "time": 134.53248000000002,
          "velocity": 0.4881889763779528
        },
        {
          "duration": 0.2026788416666534,
          "durationTicks": 227,
          "midi": 53,
          "name": "F3",
          "ticks": 70800,
          "time": 134.74676600000004,
          "velocity": 0.4881889763779528
        },
        {
          "duration": 0.2026788416666534,
          "durationTicks": 227,
          "midi": 57,
          "name": "A3",
          "ticks": 70800,
          "time": 134.74676600000004,
          "velocity": 0.4881889763779528
        },
        {
          "duration": 0.2026788416666534,
          "durationTicks": 227,
          "midi": 62,
          "name": "D4",
          "ticks": 70800,
          "time": 134.74676600000004,
          "velocity": 0.4881889763779528
        },
        {
          "duration": 0.20267884166668182,
          "durationTicks": 227,
          "midi": 50,
          "name": "D3",
          "ticks": 71040,
          "time": 134.96105200000002,
          "velocity": 0.4881889763779528
        },
        {
          "duration": 0.2026788416666534,
          "durationTicks": 227,
          "midi": 53,
          "name": "F3",
          "ticks": 71280,
          "time": 135.17533800000004,
          "velocity": 0.5118110236220472
        },
        {
          "duration": 0.2026788416666534,
          "durationTicks": 227,
          "midi": 57,
          "name": "A3",
          "ticks": 71280,
          "time": 135.17533800000004,
          "velocity": 0.5118110236220472
        },
        {
          "duration": 0.2026788416666534,
          "durationTicks": 227,
          "midi": 62,
          "name": "D4",
          "ticks": 71280,
          "time": 135.17533800000004,
          "velocity": 0.5118110236220472
        },
        {
          "duration": 0.20267884166668182,
          "durationTicks": 227,
          "midi": 45,
          "name": "A2",
          "ticks": 71520,
          "time": 135.38962400000003,
          "velocity": 0.5354330708661418
        },
        {
          "duration": 0.2026788416666534,
          "durationTicks": 227,
          "midi": 53,
          "name": "F3",
          "ticks": 71760,
          "time": 135.60391000000004,
          "velocity": 0.5590551181102362
        },
        {
          "duration": 0.2026788416666534,
          "durationTicks": 227,
          "midi": 57,
          "name": "A3",
          "ticks": 71760,
          "time": 135.60391000000004,
          "velocity": 0.5590551181102362
        },
        {
          "duration": 0.2026788416666534,
          "durationTicks": 227,
          "midi": 62,
          "name": "D4",
          "ticks": 71760,
          "time": 135.60391000000004,
          "velocity": 0.5590551181102362
        },
        {
          "duration": 0.20267884166668182,
          "durationTicks": 227,
          "midi": 50,
          "name": "D3",
          "ticks": 72000,
          "time": 135.81819600000003,
          "velocity": 0.5826771653543307
        },
        {
          "duration": 0.2026788416666534,
          "durationTicks": 227,
          "midi": 53,
          "name": "F3",
          "ticks": 72240,
          "time": 136.03248200000004,
          "velocity": 0.6062992125984252
        },
        {
          "duration": 0.2026788416666534,
          "durationTicks": 227,
          "midi": 57,
          "name": "A3",
          "ticks": 72240,
          "time": 136.03248200000004,
          "velocity": 0.6062992125984252
        },
        {
          "duration": 0.2026788416666534,
          "durationTicks": 227,
          "midi": 62,
          "name": "D4",
          "ticks": 72240,
          "time": 136.03248200000004,
          "velocity": 0.6062992125984252
        },
        {
          "duration": 0.2026788416666534,
          "durationTicks": 227,
          "midi": 45,
          "name": "A2",
          "ticks": 72480,
          "time": 136.24676800000003,
          "velocity": 0.6299212598425197
        },
        {
          "duration": 0.20267884166668182,
          "durationTicks": 227,
          "midi": 53,
          "name": "F3",
          "ticks": 72720,
          "time": 136.46105400000002,
          "velocity": 0.6535433070866141
        },
        {
          "duration": 0.20267884166668182,
          "durationTicks": 227,
          "midi": 57,
          "name": "A3",
          "ticks": 72720,
          "time": 136.46105400000002,
          "velocity": 0.6535433070866141
        },
        {
          "duration": 0.20267884166668182,
          "durationTicks": 227,
          "midi": 62,
          "name": "D4",
          "ticks": 72720,
          "time": 136.46105400000002,
          "velocity": 0.6535433070866141
        },
        {
          "duration": 0.2026788416666534,
          "durationTicks": 227,
          "midi": 43,
          "name": "G2",
          "ticks": 72960,
          "time": 136.67534000000003,
          "velocity": 0.6692913385826772
        },
        {
          "duration": 0.20267884166668182,
          "durationTicks": 227,
          "midi": 55,
          "name": "G3",
          "ticks": 73200,
          "time": 136.88962600000002,
          "velocity": 0.6692913385826772
        },
        {
          "duration": 0.20267884166668182,
          "durationTicks": 227,
          "midi": 58,
          "name": "A#3",
          "ticks": 73200,
          "time": 136.88962600000002,
          "velocity": 0.6692913385826772
        },
        {
          "duration": 0.20267884166668182,
          "durationTicks": 227,
          "midi": 62,
          "name": "D4",
          "ticks": 73200,
          "time": 136.88962600000002,
          "velocity": 0.6692913385826772
        },
        {
          "duration": 0.2026788416666534,
          "durationTicks": 227,
          "midi": 46,
          "name": "A#2",
          "ticks": 73440,
          "time": 137.10391200000004,
          "velocity": 0.6692913385826772
        },
        {
          "duration": 0.20267884166668182,
          "durationTicks": 227,
          "midi": 55,
          "name": "G3",
          "ticks": 73680,
          "time": 137.31819800000002,
          "velocity": 0.6692913385826772
        },
        {
          "duration": 0.20267884166668182,
          "durationTicks": 227,
          "midi": 58,
          "name": "A#3",
          "ticks": 73680,
          "time": 137.31819800000002,
          "velocity": 0.6692913385826772
        },
        {
          "duration": 0.20267884166668182,
          "durationTicks": 227,
          "midi": 62,
          "name": "D4",
          "ticks": 73680,
          "time": 137.31819800000002,
          "velocity": 0.6692913385826772
        },
        {
          "duration": 0.2026788416666534,
          "durationTicks": 227,
          "midi": 55,
          "name": "G3",
          "ticks": 73920,
          "time": 137.53248400000004,
          "velocity": 0.6692913385826772
        },
        {
          "duration": 0.20267884166668182,
          "durationTicks": 227,
          "midi": 58,
          "name": "A#3",
          "ticks": 74160,
          "time": 137.74677000000003,
          "velocity": 0.6692913385826772
        },
        {
          "duration": 0.20267884166668182,
          "durationTicks": 227,
          "midi": 62,
          "name": "D4",
          "ticks": 74160,
          "time": 137.74677000000003,
          "velocity": 0.6692913385826772
        },
        {
          "duration": 0.2026788416666534,
          "durationTicks": 227,
          "midi": 43,
          "name": "G2",
          "ticks": 74400,
          "time": 137.96105600000004,
          "velocity": 0.6692913385826772
        },
        {
          "duration": 0.20267884166668182,
          "durationTicks": 227,
          "midi": 55,
          "name": "G3",
          "ticks": 74640,
          "time": 138.17534200000003,
          "velocity": 0.6692913385826772
        },
        {
          "duration": 0.20267884166668182,
          "durationTicks": 227,
          "midi": 58,
          "name": "A#3",
          "ticks": 74640,
          "time": 138.17534200000003,
          "velocity": 0.6692913385826772
        },
        {
          "duration": 0.20267884166668182,
          "durationTicks": 227,
          "midi": 62,
          "name": "D4",
          "ticks": 74640,
          "time": 138.17534200000003,
          "velocity": 0.6692913385826772
        },
        {
          "duration": 0.2026788416666534,
          "durationTicks": 227,
          "midi": 52,
          "name": "E3",
          "ticks": 74880,
          "time": 138.38962800000004,
          "velocity": 0.49606299212598426
        },
        {
          "duration": 0.2026788416666534,
          "durationTicks": 227,
          "midi": 55,
          "name": "G3",
          "ticks": 75120,
          "time": 138.60391400000003,
          "velocity": 0.49606299212598426
        },
        {
          "duration": 0.2026788416666534,
          "durationTicks": 227,
          "midi": 58,
          "name": "A#3",
          "ticks": 75120,
          "time": 138.60391400000003,
          "velocity": 0.49606299212598426
        },
        {
          "duration": 0.2026788416666534,
          "durationTicks": 227,
          "midi": 62,
          "name": "D4",
          "ticks": 75120,
          "time": 138.60391400000003,
          "velocity": 0.49606299212598426
        },
        {
          "duration": 0.20267884166668182,
          "durationTicks": 227,
          "midi": 46,
          "name": "A#2",
          "ticks": 75360,
          "time": 138.81820000000002,
          "velocity": 0.49606299212598426
        },
        {
          "duration": 0.2026788416666534,
          "durationTicks": 227,
          "midi": 55,
          "name": "G3",
          "ticks": 75600,
          "time": 139.03248600000003,
          "velocity": 0.49606299212598426
        },
        {
          "duration": 0.2026788416666534,
          "durationTicks": 227,
          "midi": 58,
          "name": "A#3",
          "ticks": 75600,
          "time": 139.03248600000003,
          "velocity": 0.49606299212598426
        },
        {
          "duration": 0.2026788416666534,
          "durationTicks": 227,
          "midi": 62,
          "name": "D4",
          "ticks": 75600,
          "time": 139.03248600000003,
          "velocity": 0.49606299212598426
        },
        {
          "duration": 0.20267884166668182,
          "durationTicks": 227,
          "midi": 43,
          "name": "G2",
          "ticks": 75840,
          "time": 139.24677200000002,
          "velocity": 0.49606299212598426
        },
        {
          "duration": 0.2026788416666534,
          "durationTicks": 227,
          "midi": 55,
          "name": "G3",
          "ticks": 76080,
          "time": 139.46105800000004,
          "velocity": 0.49606299212598426
        },
        {
          "duration": 0.2026788416666534,
          "durationTicks": 227,
          "midi": 58,
          "name": "A#3",
          "ticks": 76080,
          "time": 139.46105800000004,
          "velocity": 0.49606299212598426
        },
        {
          "duration": 0.2026788416666534,
          "durationTicks": 227,
          "midi": 62,
          "name": "D4",
          "ticks": 76080,
          "time": 139.46105800000004,
          "velocity": 0.49606299212598426
        },
        {
          "duration": 0.20267884166668182,
          "durationTicks": 227,
          "midi": 52,
          "name": "E3",
          "ticks": 76320,
          "time": 139.67534400000002,
          "velocity": 0.49606299212598426
        },
        {
          "duration": 0.2026788416666534,
          "durationTicks": 227,
          "midi": 55,
          "name": "G3",
          "ticks": 76560,
          "time": 139.88963000000004,
          "velocity": 0.49606299212598426
        },
        {
          "duration": 0.2026788416666534,
          "durationTicks": 227,
          "midi": 58,
          "name": "A#3",
          "ticks": 76560,
          "time": 139.88963000000004,
          "velocity": 0.49606299212598426
        },
        {
          "duration": 0.2026788416666534,
          "durationTicks": 227,
          "midi": 62,
          "name": "D4",
          "ticks": 76560,
          "time": 139.88963000000004,
          "velocity": 0.49606299212598426
        },
        {
          "duration": 0.20267884166668182,
          "durationTicks": 227,
          "midi": 45,
          "name": "A2",
          "ticks": 76800,
          "time": 140.10391600000003,
          "velocity": 0.49606299212598426
        },
        {
          "duration": 0.2026788416666534,
          "durationTicks": 227,
          "midi": 53,
          "name": "F3",
          "ticks": 77040,
          "time": 140.31820200000004,
          "velocity": 0.5118110236220472
        },
        {
          "duration": 0.2026788416666534,
          "durationTicks": 227,
          "midi": 57,
          "name": "A3",
          "ticks": 77040,
          "time": 140.31820200000004,
          "velocity": 0.5118110236220472
        },
        {
          "duration": 0.2026788416666534,
          "durationTicks": 227,
          "midi": 62,
          "name": "D4",
          "ticks": 77040,
          "time": 140.31820200000004,
          "velocity": 0.5118110236220472
        },
        {
          "duration": 0.20267884166668182,
          "durationTicks": 227,
          "midi": 50,
          "name": "D3",
          "ticks": 77280,
          "time": 140.53248800000003,
          "velocity": 0.5275590551181102
        },
        {
          "duration": 0.20267884166668182,
          "durationTicks": 227,
          "midi": 53,
          "name": "F3",
          "ticks": 77520,
          "time": 140.74677400000002,
          "velocity": 0.5433070866141733
        },
        {
          "duration": 0.20267884166668182,
          "durationTicks": 227,
          "midi": 57,
          "name": "A3",
          "ticks": 77520,
          "time": 140.74677400000002,
          "velocity": 0.5433070866141733
        },
        {
          "duration": 0.20267884166668182,
          "durationTicks": 227,
          "midi": 62,
          "name": "D4",
          "ticks": 77520,
          "time": 140.74677400000002,
          "velocity": 0.5433070866141733
        },
        {
          "duration": 0.2026788416666534,
          "durationTicks": 227,
          "midi": 53,
          "name": "F3",
          "ticks": 77760,
          "time": 140.96106000000003,
          "velocity": 0.5669291338582677
        },
        {
          "duration": 0.20267884166668182,
          "durationTicks": 227,
          "midi": 57,
          "name": "A3",
          "ticks": 78000,
          "time": 141.17534600000002,
          "velocity": 0.5826771653543307
        },
        {
          "duration": 0.20267884166668182,
          "durationTicks": 227,
          "midi": 62,
          "name": "D4",
          "ticks": 78000,
          "time": 141.17534600000002,
          "velocity": 0.5826771653543307
        },
        {
          "duration": 0.2026788416666534,
          "durationTicks": 227,
          "midi": 45,
          "name": "A2",
          "ticks": 78240,
          "time": 141.38963200000003,
          "velocity": 0.5984251968503937
        },
        {
          "duration": 0.20267884166668182,
          "durationTicks": 227,
          "midi": 53,
          "name": "F3",
          "ticks": 78480,
          "time": 141.60391800000002,
          "velocity": 0.6141732283464567
        },
        {
          "duration": 0.20267884166668182,
          "durationTicks": 227,
          "midi": 57,
          "name": "A3",
          "ticks": 78480,
          "time": 141.60391800000002,
          "velocity": 0.6141732283464567
        },
        {
          "duration": 0.20267884166668182,
          "durationTicks": 227,
          "midi": 62,
          "name": "D4",
          "ticks": 78480,
          "time": 141.60391800000002,
          "velocity": 0.6141732283464567
        },
        {
          "duration": 0.2026788416666534,
          "durationTicks": 227,
          "midi": 49,
          "name": "C#3",
          "ticks": 78720,
          "time": 141.81820400000004,
          "velocity": 0.6299212598425197
        },
        {
          "duration": 0.20267884166668182,
          "durationTicks": 227,
          "midi": 55,
          "name": "G3",
          "ticks": 78960,
          "time": 142.03249000000002,
          "velocity": 0.6299212598425197
        },
        {
          "duration": 0.20267884166668182,
          "durationTicks": 227,
          "midi": 57,
          "name": "A3",
          "ticks": 78960,
          "time": 142.03249000000002,
          "velocity": 0.6299212598425197
        },
        {
          "duration": 0.2026788416666534,
          "durationTicks": 227,
          "midi": 45,
          "name": "A2",
          "ticks": 79200,
          "time": 142.24677600000004,
          "velocity": 0.6299212598425197
        },
        {
          "duration": 0.20267884166668182,
          "durationTicks": 227,
          "midi": 55,
          "name": "G3",
          "ticks": 79440,
          "time": 142.46106200000003,
          "velocity": 0.6299212598425197
        },
        {
          "duration": 0.20267884166668182,
          "durationTicks": 227,
          "midi": 57,
          "name": "A3",
          "ticks": 79440,
          "time": 142.46106200000003,
          "velocity": 0.6299212598425197
        },
        {
          "duration": 0.2026788416666534,
          "durationTicks": 227,
          "midi": 52,
          "name": "E3",
          "ticks": 79680,
          "time": 142.67534800000004,
          "velocity": 0.6299212598425197
        },
        {
          "duration": 0.2026788416666534,
          "durationTicks": 227,
          "midi": 55,
          "name": "G3",
          "ticks": 79920,
          "time": 142.88963400000003,
          "velocity": 0.6299212598425197
        },
        {
          "duration": 0.2026788416666534,
          "durationTicks": 227,
          "midi": 57,
          "name": "A3",
          "ticks": 79920,
          "time": 142.88963400000003,
          "velocity": 0.6299212598425197
        },
        {
          "duration": 0.2026788416666534,
          "durationTicks": 227,
          "midi": 60,
          "name": "C4",
          "ticks": 79920,
          "time": 142.88963400000003,
          "velocity": 0.6299212598425197
        },
        {
          "duration": 0.20267884166668182,
          "durationTicks": 227,
          "midi": 45,
          "name": "A2",
          "ticks": 80160,
          "time": 143.10392000000002,
          "velocity": 0.6299212598425197
        },
        {
          "duration": 0.2026788416666534,
          "durationTicks": 227,
          "midi": 55,
          "name": "G3",
          "ticks": 80400,
          "time": 143.31820600000003,
          "velocity": 0.6299212598425197
        },
        {
          "duration": 0.2026788416666534,
          "durationTicks": 227,
          "midi": 57,
          "name": "A3",
          "ticks": 80400,
          "time": 143.31820600000003,
          "velocity": 0.6299212598425197
        },
        {
          "duration": 0.2026788416666534,
          "durationTicks": 227,
          "midi": 60,
          "name": "C4",
          "ticks": 80400,
          "time": 143.31820600000003,
          "velocity": 0.6299212598425197
        },
        {
          "duration": 0.20267884166668182,
          "durationTicks": 227,
          "midi": 50,
          "name": "D3",
          "ticks": 80640,
          "time": 143.53249200000002,
          "velocity": 0.6299212598425197
        },
        {
          "duration": 0.2026788416666534,
          "durationTicks": 227,
          "midi": 53,
          "name": "F3",
          "ticks": 80880,
          "time": 143.74677800000003,
          "velocity": 0.6299212598425197
        },
        {
          "duration": 0.2026788416666534,
          "durationTicks": 227,
          "midi": 57,
          "name": "A3",
          "ticks": 80880,
          "time": 143.74677800000003,
          "velocity": 0.6299212598425197
        },
        {
          "duration": 0.2026788416666534,
          "durationTicks": 227,
          "midi": 62,
          "name": "D4",
          "ticks": 80880,
          "time": 143.74677800000003,
          "velocity": 0.6299212598425197
        },
        {
          "duration": 0.20267884166668182,
          "durationTicks": 227,
          "midi": 45,
          "name": "A2",
          "ticks": 81120,
          "time": 143.96106400000002,
          "velocity": 0.6299212598425197
        },
        {
          "duration": 0.2026788416666534,
          "durationTicks": 227,
          "midi": 55,
          "name": "G3",
          "ticks": 81360,
          "time": 144.17535000000004,
          "velocity": 0.6299212598425197
        },
        {
          "duration": 0.2026788416666534,
          "durationTicks": 227,
          "midi": 57,
          "name": "A3",
          "ticks": 81360,
          "time": 144.17535000000004,
          "velocity": 0.6299212598425197
        },
        {
          "duration": 0.2026788416666534,
          "durationTicks": 227,
          "midi": 64,
          "name": "E4",
          "ticks": 81360,
          "time": 144.17535000000004,
          "velocity": 0.6299212598425197
        },
        {
          "duration": 0.20267884166668182,
          "durationTicks": 227,
          "midi": 50,
          "name": "D3",
          "ticks": 81600,
          "time": 144.38963600000002,
          "velocity": 0.6299212598425197
        },
        {
          "duration": 0.2026788416666534,
          "durationTicks": 227,
          "midi": 53,
          "name": "F3",
          "ticks": 81840,
          "time": 144.60392200000004,
          "velocity": 0.6299212598425197
        },
        {
          "duration": 0.2026788416666534,
          "durationTicks": 227,
          "midi": 57,
          "name": "A3",
          "ticks": 81840,
          "time": 144.60392200000004,
          "velocity": 0.6299212598425197
        },
        {
          "duration": 0.2026788416666534,
          "durationTicks": 227,
          "midi": 62,
          "name": "D4",
          "ticks": 81840,
          "time": 144.60392200000004,
          "velocity": 0.6299212598425197
        },
        {
          "duration": 0.20267884166668182,
          "durationTicks": 227,
          "midi": 45,
          "name": "A2",
          "ticks": 82080,
          "time": 144.81820800000003,
          "velocity": 0.6299212598425197
        },
        {
          "duration": 0.2026788416666534,
          "durationTicks": 227,
          "midi": 53,
          "name": "F3",
          "ticks": 82320,
          "time": 145.03249400000004,
          "velocity": 0.6299212598425197
        },
        {
          "duration": 0.2026788416666534,
          "durationTicks": 227,
          "midi": 57,
          "name": "A3",
          "ticks": 82320,
          "time": 145.03249400000004,
          "velocity": 0.6299212598425197
        },
        {
          "duration": 0.2026788416666534,
          "durationTicks": 227,
          "midi": 62,
          "name": "D4",
          "ticks": 82320,
          "time": 145.03249400000004,
          "velocity": 0.6299212598425197
        },
        {
          "duration": 0.20267884166668182,
          "durationTicks": 227,
          "midi": 52,
          "name": "E3",
          "ticks": 82560,
          "time": 145.24678000000003,
          "velocity": 0.6299212598425197
        },
        {
          "duration": 0.20267884166668182,
          "durationTicks": 227,
          "midi": 55,
          "name": "G3",
          "ticks": 82800,
          "time": 145.46106600000002,
          "velocity": 0.6299212598425197
        },
        {
          "duration": 0.20267884166668182,
          "durationTicks": 227,
          "midi": 58,
          "name": "A#3",
          "ticks": 82800,
          "time": 145.46106600000002,
          "velocity": 0.6299212598425197
        },
        {
          "duration": 0.20267884166668182,
          "durationTicks": 227,
          "midi": 60,
          "name": "C4",
          "ticks": 82800,
          "time": 145.46106600000002,
          "velocity": 0.6299212598425197
        },
        {
          "duration": 0.20267884166668182,
          "durationTicks": 227,
          "midi": 48,
          "name": "C3",
          "ticks": 83040,
          "time": 145.67535200000003,
          "velocity": 0.6299212598425197
        },
        {
          "duration": 0.20267884166668182,
          "durationTicks": 227,
          "midi": 55,
          "name": "G3",
          "ticks": 83280,
          "time": 145.88963800000002,
          "velocity": 0.6299212598425197
        },
        {
          "duration": 0.20267884166668182,
          "durationTicks": 227,
          "midi": 58,
          "name": "A#3",
          "ticks": 83280,
          "time": 145.88963800000002,
          "velocity": 0.6299212598425197
        },
        {
          "duration": 0.20267884166668182,
          "durationTicks": 227,
          "midi": 60,
          "name": "C4",
          "ticks": 83280,
          "time": 145.88963800000002,
          "velocity": 0.6299212598425197
        },
        {
          "duration": 0.2026788416666534,
          "durationTicks": 227,
          "midi": 52,
          "name": "E3",
          "ticks": 83520,
          "time": 146.10392400000003,
          "velocity": 0.6299212598425197
        },
        {
          "duration": 0.20267884166668182,
          "durationTicks": 227,
          "midi": 55,
          "name": "G3",
          "ticks": 83760,
          "time": 146.31821000000002,
          "velocity": 0.6299212598425197
        },
        {
          "duration": 0.20267884166668182,
          "durationTicks": 227,
          "midi": 58,
          "name": "A#3",
          "ticks": 83760,
          "time": 146.31821000000002,
          "velocity": 0.6299212598425197
        },
        {
          "duration": 0.20267884166668182,
          "durationTicks": 227,
          "midi": 60,
          "name": "C4",
          "ticks": 83760,
          "time": 146.31821000000002,
          "velocity": 0.6299212598425197
        },
        {
          "duration": 0.2026788416666534,
          "durationTicks": 227,
          "midi": 48,
          "name": "C3",
          "ticks": 84000,
          "time": 146.53249600000004,
          "velocity": 0.6299212598425197
        },
        {
          "duration": 0.20267884166668182,
          "durationTicks": 227,
          "midi": 55,
          "name": "G3",
          "ticks": 84240,
          "time": 146.74678200000002,
          "velocity": 0.6299212598425197
        },
        {
          "duration": 0.20267884166668182,
          "durationTicks": 227,
          "midi": 58,
          "name": "A#3",
          "ticks": 84240,
          "time": 146.74678200000002,
          "velocity": 0.6299212598425197
        },
        {
          "duration": 0.20267884166668182,
          "durationTicks": 227,
          "midi": 60,
          "name": "C4",
          "ticks": 84240,
          "time": 146.74678200000002,
          "velocity": 0.6299212598425197
        },
        {
          "duration": 0.2026788416666534,
          "durationTicks": 227,
          "midi": 53,
          "name": "F3",
          "ticks": 84480,
          "time": 146.96106800000004,
          "velocity": 0.6299212598425197
        },
        {
          "duration": 0.20267884166668182,
          "durationTicks": 227,
          "midi": 57,
          "name": "A3",
          "ticks": 84720,
          "time": 147.17535400000003,
          "velocity": 0.6299212598425197
        },
        {
          "duration": 0.20267884166668182,
          "durationTicks": 227,
          "midi": 60,
          "name": "C4",
          "ticks": 84720,
          "time": 147.17535400000003,
          "velocity": 0.6299212598425197
        },
        {
          "duration": 0.2026788416666534,
          "durationTicks": 227,
          "midi": 48,
          "name": "C3",
          "ticks": 84960,
          "time": 147.38964000000004,
          "velocity": 0.6299212598425197
        },
        {
          "duration": 0.20267884166668182,
          "durationTicks": 227,
          "midi": 53,
          "name": "F3",
          "ticks": 85200,
          "time": 147.60392600000003,
          "velocity": 0.6299212598425197
        },
        {
          "duration": 0.20267884166668182,
          "durationTicks": 227,
          "midi": 57,
          "name": "A3",
          "ticks": 85200,
          "time": 147.60392600000003,
          "velocity": 0.6299212598425197
        },
        {
          "duration": 0.20267884166668182,
          "durationTicks": 227,
          "midi": 60,
          "name": "C4",
          "ticks": 85200,
          "time": 147.60392600000003,
          "velocity": 0.6299212598425197
        },
        {
          "duration": 0.20267884166668182,
          "durationTicks": 227,
          "midi": 45,
          "name": "A2",
          "ticks": 85440,
          "time": 147.81821200000002,
          "velocity": 0.6299212598425197
        },
        {
          "duration": 0.20267884166668182,
          "durationTicks": 227,
          "midi": 53,
          "name": "F3",
          "ticks": 85680,
          "time": 148.03249800000003,
          "velocity": 0.6299212598425197
        },
        {
          "duration": 0.20267884166668182,
          "durationTicks": 227,
          "midi": 57,
          "name": "A3",
          "ticks": 85680,
          "time": 148.03249800000003,
          "velocity": 0.6299212598425197
        },
        {
          "duration": 0.20267884166668182,
          "durationTicks": 227,
          "midi": 60,
          "name": "C4",
          "ticks": 85680,
          "time": 148.03249800000003,
          "velocity": 0.6299212598425197
        },
        {
          "duration": 0.20267884166668182,
          "durationTicks": 227,
          "midi": 41,
          "name": "F2",
          "ticks": 85920,
          "time": 148.24678400000002,
          "velocity": 0.6299212598425197
        },
        {
          "duration": 0.2026788416666534,
          "durationTicks": 227,
          "midi": 53,
          "name": "F3",
          "ticks": 86160,
          "time": 148.46107000000003,
          "velocity": 0.6299212598425197
        },
        {
          "duration": 0.2026788416666534,
          "durationTicks": 227,
          "midi": 57,
          "name": "A3",
          "ticks": 86160,
          "time": 148.46107000000003,
          "velocity": 0.6299212598425197
        },
        {
          "duration": 0.2026788416666534,
          "durationTicks": 227,
          "midi": 60,
          "name": "C4",
          "ticks": 86160,
          "time": 148.46107000000003,
          "velocity": 0.6299212598425197
        },
        {
          "duration": 0.20267884166668182,
          "durationTicks": 227,
          "midi": 49,
          "name": "C#3",
          "ticks": 86400,
          "time": 148.67535600000002,
          "velocity": 0.4881889763779528
        },
        {
          "duration": 0.2026788416666534,
          "durationTicks": 227,
          "midi": 52,
          "name": "E3",
          "ticks": 86640,
          "time": 148.88964200000004,
          "velocity": 0.4881889763779528
        },
        {
          "duration": 0.2026788416666534,
          "durationTicks": 227,
          "midi": 55,
          "name": "G3",
          "ticks": 86640,
          "time": 148.88964200000004,
          "velocity": 0.4881889763779528
        },
        {
          "duration": 0.2026788416666534,
          "durationTicks": 227,
          "midi": 57,
          "name": "A3",
          "ticks": 86640,
          "time": 148.88964200000004,
          "velocity": 0.4881889763779528
        },
        {
          "duration": 0.20267884166668182,
          "durationTicks": 227,
          "midi": 45,
          "name": "A2",
          "ticks": 86880,
          "time": 149.10392800000002,
          "velocity": 0.4881889763779528
        },
        {
          "duration": 0.2026788416666534,
          "durationTicks": 227,
          "midi": 52,
          "name": "E3",
          "ticks": 87120,
          "time": 149.31821400000004,
          "velocity": 0.4881889763779528
        },
        {
          "duration": 0.2026788416666534,
          "durationTicks": 227,
          "midi": 55,
          "name": "G3",
          "ticks": 87120,
          "time": 149.31821400000004,
          "velocity": 0.4881889763779528
        },
        {
          "duration": 0.2026788416666534,
          "durationTicks": 227,
          "midi": 57,
          "name": "A3",
          "ticks": 87120,
          "time": 149.31821400000004,
          "velocity": 0.4881889763779528
        },
        {
          "duration": 0.20267884166668182,
          "durationTicks": 227,
          "midi": 49,
          "name": "C#3",
          "ticks": 87360,
          "time": 149.53250000000003,
          "velocity": 0.4881889763779528
        },
        {
          "duration": 0.2026788416666534,
          "durationTicks": 227,
          "midi": 52,
          "name": "E3",
          "ticks": 87600,
          "time": 149.74678600000004,
          "velocity": 0.4881889763779528
        },
        {
          "duration": 0.2026788416666534,
          "durationTicks": 227,
          "midi": 55,
          "name": "G3",
          "ticks": 87600,
          "time": 149.74678600000004,
          "velocity": 0.4881889763779528
        },
        {
          "duration": 0.2026788416666534,
          "durationTicks": 227,
          "midi": 57,
          "name": "A3",
          "ticks": 87600,
          "time": 149.74678600000004,
          "velocity": 0.4881889763779528
        },
        {
          "duration": 0.20267884166668182,
          "durationTicks": 227,
          "midi": 45,
          "name": "A2",
          "ticks": 87840,
          "time": 149.96107200000003,
          "velocity": 0.4881889763779528
        },
        {
          "duration": 0.20267884166668182,
          "durationTicks": 227,
          "midi": 52,
          "name": "E3",
          "ticks": 88080,
          "time": 150.17535800000002,
          "velocity": 0.4881889763779528
        },
        {
          "duration": 0.20267884166668182,
          "durationTicks": 227,
          "midi": 55,
          "name": "G3",
          "ticks": 88080,
          "time": 150.17535800000002,
          "velocity": 0.4881889763779528
        },
        {
          "duration": 0.20267884166668182,
          "durationTicks": 227,
          "midi": 57,
          "name": "A3",
          "ticks": 88080,
          "time": 150.17535800000002,
          "velocity": 0.4881889763779528
        },
        {
          "duration": 0.20267884166668182,
          "durationTicks": 227,
          "midi": 50,
          "name": "D3",
          "ticks": 88320,
          "time": 150.38964400000003,
          "velocity": 0.4881889763779528
        },
        {
          "duration": 0.20267884166668182,
          "durationTicks": 227,
          "midi": 53,
          "name": "F3",
          "ticks": 88560,
          "time": 150.60393000000002,
          "velocity": 0.4881889763779528
        },
        {
          "duration": 0.20267884166668182,
          "durationTicks": 227,
          "midi": 57,
          "name": "A3",
          "ticks": 88560,
          "time": 150.60393000000002,
          "velocity": 0.4881889763779528
        },
        {
          "duration": 0.2026788416666534,
          "durationTicks": 227,
          "midi": 45,
          "name": "A2",
          "ticks": 88800,
          "time": 150.81821600000004,
          "velocity": 0.4881889763779528
        },
        {
          "duration": 0.20267884166668182,
          "durationTicks": 227,
          "midi": 53,
          "name": "F3",
          "ticks": 89040,
          "time": 151.03250200000002,
          "velocity": 0.4881889763779528
        },
        {
          "duration": 0.20267884166668182,
          "durationTicks": 227,
          "midi": 57,
          "name": "A3",
          "ticks": 89040,
          "time": 151.03250200000002,
          "velocity": 0.4881889763779528
        },
        {
          "duration": 0.2026788416666534,
          "durationTicks": 227,
          "midi": 50,
          "name": "D3",
          "ticks": 89280,
          "time": 151.24678800000004,
          "velocity": 0.4881889763779528
        },
        {
          "duration": 0.20267884166668182,
          "durationTicks": 227,
          "midi": 53,
          "name": "F3",
          "ticks": 89520,
          "time": 151.46107400000002,
          "velocity": 0.4881889763779528
        },
        {
          "duration": 0.20267884166668182,
          "durationTicks": 227,
          "midi": 57,
          "name": "A3",
          "ticks": 89520,
          "time": 151.46107400000002,
          "velocity": 0.4881889763779528
        },
        {
          "duration": 0.2026788416666534,
          "durationTicks": 227,
          "midi": 45,
          "name": "A2",
          "ticks": 89760,
          "time": 151.67536000000004,
          "velocity": 0.4881889763779528
        },
        {
          "duration": 0.20267884166668182,
          "durationTicks": 227,
          "midi": 53,
          "name": "F3",
          "ticks": 90000,
          "time": 151.88964600000003,
          "velocity": 0.4881889763779528
        },
        {
          "duration": 0.20267884166668182,
          "durationTicks": 227,
          "midi": 57,
          "name": "A3",
          "ticks": 90000,
          "time": 151.88964600000003,
          "velocity": 0.4881889763779528
        },
        {
          "duration": 0.20267884166668182,
          "durationTicks": 227,
          "midi": 62,
          "name": "D4",
          "ticks": 90000,
          "time": 151.88964600000003,
          "velocity": 0.4881889763779528
        },
        {
          "duration": 0.2026788416666534,
          "durationTicks": 227,
          "midi": 43,
          "name": "G2",
          "ticks": 90240,
          "time": 152.10393200000004,
          "velocity": 0.4881889763779528
        },
        {
          "duration": 0.20267884166668182,
          "durationTicks": 227,
          "midi": 55,
          "name": "G3",
          "ticks": 90480,
          "time": 152.31821800000003,
          "velocity": 0.4094488188976378
        },
        {
          "duration": 0.20267884166668182,
          "durationTicks": 227,
          "midi": 58,
          "name": "A#3",
          "ticks": 90480,
          "time": 152.31821800000003,
          "velocity": 0.4094488188976378
        },
        {
          "duration": 0.20267884166668182,
          "durationTicks": 227,
          "midi": 60,
          "name": "C4",
          "ticks": 90480,
          "time": 152.31821800000003,
          "velocity": 0.4094488188976378
        },
        {
          "duration": 0.20267884166668182,
          "durationTicks": 227,
          "midi": 52,
          "name": "E3",
          "ticks": 90720,
          "time": 152.53250400000002,
          "velocity": 0.4094488188976378
        },
        {
          "duration": 0.20267884166668182,
          "durationTicks": 227,
          "midi": 58,
          "name": "A#3",
          "ticks": 90960,
          "time": 152.74679000000003,
          "velocity": 0.4094488188976378
        },
        {
          "duration": 0.20267884166668182,
          "durationTicks": 227,
          "midi": 62,
          "name": "D4",
          "ticks": 90960,
          "time": 152.74679000000003,
          "velocity": 0.4094488188976378
        },
        {
          "duration": 0.20267884166668182,
          "durationTicks": 227,
          "midi": 64,
          "name": "E4",
          "ticks": 90960,
          "time": 152.74679000000003,
          "velocity": 0.4094488188976378
        },
        {
          "duration": 0.20267884166668182,
          "durationTicks": 227,
          "midi": 55,
          "name": "G3",
          "ticks": 91200,
          "time": 152.96107600000002,
          "velocity": 0.4094488188976378
        },
        {
          "duration": 0.2026788416666534,
          "durationTicks": 227,
          "midi": 58,
          "name": "A#3",
          "ticks": 91440,
          "time": 153.17536200000004,
          "velocity": 0.4409448818897638
        },
        {
          "duration": 0.2026788416666534,
          "durationTicks": 227,
          "midi": 62,
          "name": "D4",
          "ticks": 91440,
          "time": 153.17536200000004,
          "velocity": 0.4409448818897638
        },
        {
          "duration": 0.2026788416666534,
          "durationTicks": 227,
          "midi": 64,
          "name": "E4",
          "ticks": 91440,
          "time": 153.17536200000004,
          "velocity": 0.4409448818897638
        },
        {
          "duration": 0.20267884166668182,
          "durationTicks": 227,
          "midi": 43,
          "name": "G2",
          "ticks": 91680,
          "time": 153.38964800000002,
          "velocity": 0.5196850393700787
        },
        {
          "duration": 0.2026788416666534,
          "durationTicks": 227,
          "midi": 58,
          "name": "A#3",
          "ticks": 91920,
          "time": 153.60393400000004,
          "velocity": 0.5905511811023622
        },
        {
          "duration": 0.2026788416666534,
          "durationTicks": 227,
          "midi": 62,
          "name": "D4",
          "ticks": 91920,
          "time": 153.60393400000004,
          "velocity": 0.5905511811023622
        },
        {
          "duration": 0.2026788416666534,
          "durationTicks": 227,
          "midi": 64,
          "name": "E4",
          "ticks": 91920,
          "time": 153.60393400000004,
          "velocity": 0.5905511811023622
        },
        {
          "duration": 0.20267884166668182,
          "durationTicks": 227,
          "midi": 45,
          "name": "A2",
          "ticks": 92160,
          "time": 153.81822000000003,
          "velocity": 0.6692913385826772
        },
        {
          "duration": 0.2026788416666534,
          "durationTicks": 227,
          "midi": 53,
          "name": "F3",
          "ticks": 92400,
          "time": 154.03250600000004,
          "velocity": 0.6692913385826772
        },
        {
          "duration": 0.2026788416666534,
          "durationTicks": 227,
          "midi": 57,
          "name": "A3",
          "ticks": 92400,
          "time": 154.03250600000004,
          "velocity": 0.6692913385826772
        },
        {
          "duration": 0.2026788416666534,
          "durationTicks": 227,
          "midi": 62,
          "name": "D4",
          "ticks": 92400,
          "time": 154.03250600000004,
          "velocity": 0.6692913385826772
        },
        {
          "duration": 0.20267884166668182,
          "durationTicks": 227,
          "midi": 50,
          "name": "D3",
          "ticks": 92640,
          "time": 154.24679200000003,
          "velocity": 0.6692913385826772
        },
        {
          "duration": 0.2026788416666534,
          "durationTicks": 227,
          "midi": 53,
          "name": "F3",
          "ticks": 92880,
          "time": 154.46107800000004,
          "velocity": 0.6692913385826772
        },
        {
          "duration": 0.2026788416666534,
          "durationTicks": 227,
          "midi": 57,
          "name": "A3",
          "ticks": 92880,
          "time": 154.46107800000004,
          "velocity": 0.6692913385826772
        },
        {
          "duration": 0.2026788416666534,
          "durationTicks": 227,
          "midi": 62,
          "name": "D4",
          "ticks": 92880,
          "time": 154.46107800000004,
          "velocity": 0.6692913385826772
        },
        {
          "duration": 0.2026788416666534,
          "durationTicks": 227,
          "midi": 53,
          "name": "F3",
          "ticks": 93120,
          "time": 154.67536400000003,
          "velocity": 0.6692913385826772
        },
        {
          "duration": 0.20267884166668182,
          "durationTicks": 227,
          "midi": 57,
          "name": "A3",
          "ticks": 93360,
          "time": 154.88965000000002,
          "velocity": 0.6692913385826772
        },
        {
          "duration": 0.20267884166668182,
          "durationTicks": 227,
          "midi": 62,
          "name": "D4",
          "ticks": 93360,
          "time": 154.88965000000002,
          "velocity": 0.6692913385826772
        },
        {
          "duration": 0.20267884166668182,
          "durationTicks": 227,
          "midi": 45,
          "name": "A2",
          "ticks": 93600,
          "time": 155.10393600000003,
          "velocity": 0.6692913385826772
        },
        {
          "duration": 0.20267884166668182,
          "durationTicks": 227,
          "midi": 53,
          "name": "F3",
          "ticks": 93840,
          "time": 155.31822200000002,
          "velocity": 0.6692913385826772
        },
        {
          "duration": 0.20267884166668182,
          "durationTicks": 227,
          "midi": 57,
          "name": "A3",
          "ticks": 93840,
          "time": 155.31822200000002,
          "velocity": 0.6692913385826772
        },
        {
          "duration": 0.20267884166668182,
          "durationTicks": 227,
          "midi": 62,
          "name": "D4",
          "ticks": 93840,
          "time": 155.31822200000002,
          "velocity": 0.6692913385826772
        },
        {
          "duration": 0.2026788416666534,
          "durationTicks": 227,
          "midi": 49,
          "name": "C#3",
          "ticks": 94080,
          "time": 155.53250800000004,
          "velocity": 0.6692913385826772
        },
        {
          "duration": 0.20267884166668182,
          "durationTicks": 227,
          "midi": 55,
          "name": "G3",
          "ticks": 94320,
          "time": 155.74679400000002,
          "velocity": 0.6692913385826772
        },
        {
          "duration": 0.20267884166668182,
          "durationTicks": 227,
          "midi": 57,
          "name": "A3",
          "ticks": 94320,
          "time": 155.74679400000002,
          "velocity": 0.6692913385826772
        },
        {
          "duration": 0.2026788416666534,
          "durationTicks": 227,
          "midi": 45,
          "name": "A2",
          "ticks": 94560,
          "time": 155.96108000000004,
          "velocity": 0.6692913385826772
        },
        {
          "duration": 0.20267884166668182,
          "durationTicks": 227,
          "midi": 55,
          "name": "G3",
          "ticks": 94800,
          "time": 156.17536600000003,
          "velocity": 0.6692913385826772
        },
        {
          "duration": 0.20267884166668182,
          "durationTicks": 227,
          "midi": 57,
          "name": "A3",
          "ticks": 94800,
          "time": 156.17536600000003,
          "velocity": 0.6692913385826772
        },
        {
          "duration": 0.20267884166668182,
          "durationTicks": 227,
          "midi": 61,
          "name": "C#4",
          "ticks": 94800,
          "time": 156.17536600000003,
          "velocity": 0.6692913385826772
        },
        {
          "duration": 0.2026788416666534,
          "durationTicks": 227,
          "midi": 52,
          "name": "E3",
          "ticks": 95040,
          "time": 156.38965200000004,
          "velocity": 0.6692913385826772
        },
        {
          "duration": 0.20267884166668182,
          "durationTicks": 227,
          "midi": 55,
          "name": "G3",
          "ticks": 95280,
          "time": 156.60393800000003,
          "velocity": 0.6692913385826772
        },
        {
          "duration": 0.20267884166668182,
          "durationTicks": 227,
          "midi": 57,
          "name": "A3",
          "ticks": 95280,
          "time": 156.60393800000003,
          "velocity": 0.6692913385826772
        },
        {
          "duration": 0.20267884166668182,
          "durationTicks": 227,
          "midi": 61,
          "name": "C#4",
          "ticks": 95280,
          "time": 156.60393800000003,
          "velocity": 0.6692913385826772
        },
        {
          "duration": 0.2026788416666534,
          "durationTicks": 227,
          "midi": 45,
          "name": "A2",
          "ticks": 95520,
          "time": 156.81822400000004,
          "velocity": 0.6692913385826772
        },
        {
          "duration": 0.2026788416666534,
          "durationTicks": 227,
          "midi": 55,
          "name": "G3",
          "ticks": 95760,
          "time": 157.03251000000003,
          "velocity": 0.6692913385826772
        },
        {
          "duration": 0.2026788416666534,
          "durationTicks": 227,
          "midi": 57,
          "name": "A3",
          "ticks": 95760,
          "time": 157.03251000000003,
          "velocity": 0.6692913385826772
        },
        {
          "duration": 0.2026788416666534,
          "durationTicks": 227,
          "midi": 64,
          "name": "E4",
          "ticks": 95760,
          "time": 157.03251000000003,
          "velocity": 0.6692913385826772
        },
        {
          "duration": 0.20267884166668182,
          "durationTicks": 227,
          "midi": 50,
          "name": "D3",
          "ticks": 96000,
          "time": 157.24679600000002,
          "velocity": 0.6692913385826772
        },
        {
          "duration": 0.20267884166668182,
          "durationTicks": 227,
          "midi": 53,
          "name": "F3",
          "ticks": 96240,
          "time": 157.46108200000003,
          "velocity": 0.6692913385826772
        },
        {
          "duration": 0.20267884166668182,
          "durationTicks": 227,
          "midi": 57,
          "name": "A3",
          "ticks": 96240,
          "time": 157.46108200000003,
          "velocity": 0.6692913385826772
        },
        {
          "duration": 0.20267884166668182,
          "durationTicks": 227,
          "midi": 62,
          "name": "D4",
          "ticks": 96240,
          "time": 157.46108200000003,
          "velocity": 0.6692913385826772
        },
        {
          "duration": 0.20267884166668182,
          "durationTicks": 227,
          "midi": 45,
          "name": "A2",
          "ticks": 96480,
          "time": 157.67536800000002,
          "velocity": 0.6692913385826772
        },
        {
          "duration": 0.2026788416666534,
          "durationTicks": 227,
          "midi": 55,
          "name": "G3",
          "ticks": 96720,
          "time": 157.88965400000004,
          "velocity": 0.6692913385826772
        },
        {
          "duration": 0.2026788416666534,
          "durationTicks": 227,
          "midi": 57,
          "name": "A3",
          "ticks": 96720,
          "time": 157.88965400000004,
          "velocity": 0.6692913385826772
        },
        {
          "duration": 0.2026788416666534,
          "durationTicks": 227,
          "midi": 64,
          "name": "E4",
          "ticks": 96720,
          "time": 157.88965400000004,
          "velocity": 0.6692913385826772
        },
        {
          "duration": 0.20267884166668182,
          "durationTicks": 227,
          "midi": 50,
          "name": "D3",
          "ticks": 96960,
          "time": 158.10394000000002,
          "velocity": 0.6692913385826772
        },
        {
          "duration": 0.2026788416666534,
          "durationTicks": 227,
          "midi": 53,
          "name": "F3",
          "ticks": 97200,
          "time": 158.31822600000004,
          "velocity": 0.6692913385826772
        },
        {
          "duration": 0.2026788416666534,
          "durationTicks": 227,
          "midi": 57,
          "name": "A3",
          "ticks": 97200,
          "time": 158.31822600000004,
          "velocity": 0.6692913385826772
        },
        {
          "duration": 0.2026788416666534,
          "durationTicks": 227,
          "midi": 62,
          "name": "D4",
          "ticks": 97200,
          "time": 158.31822600000004,
          "velocity": 0.6692913385826772
        },
        {
          "duration": 0.20267884166668182,
          "durationTicks": 227,
          "midi": 45,
          "name": "A2",
          "ticks": 97440,
          "time": 158.53251200000003,
          "velocity": 0.6692913385826772
        },
        {
          "duration": 0.2026788416666534,
          "durationTicks": 227,
          "midi": 53,
          "name": "F3",
          "ticks": 97680,
          "time": 158.74679800000004,
          "velocity": 0.6692913385826772
        },
        {
          "duration": 0.2026788416666534,
          "durationTicks": 227,
          "midi": 57,
          "name": "A3",
          "ticks": 97680,
          "time": 158.74679800000004,
          "velocity": 0.6692913385826772
        },
        {
          "duration": 0.2026788416666534,
          "durationTicks": 227,
          "midi": 62,
          "name": "D4",
          "ticks": 97680,
          "time": 158.74679800000004,
          "velocity": 0.6692913385826772
        },
        {
          "duration": 0.20267884166668182,
          "durationTicks": 227,
          "midi": 52,
          "name": "E3",
          "ticks": 97920,
          "time": 158.96108400000003,
          "velocity": 0.6299212598425197
        },
        {
          "duration": 0.2026788416666534,
          "durationTicks": 227,
          "midi": 55,
          "name": "G3",
          "ticks": 98160,
          "time": 159.17537000000004,
          "velocity": 0.6299212598425197
        },
        {
          "duration": 0.2026788416666534,
          "durationTicks": 227,
          "midi": 58,
          "name": "A#3",
          "ticks": 98160,
          "time": 159.17537000000004,
          "velocity": 0.6299212598425197
        },
        {
          "duration": 0.2026788416666534,
          "durationTicks": 227,
          "midi": 60,
          "name": "C4",
          "ticks": 98160,
          "time": 159.17537000000004,
          "velocity": 0.6299212598425197
        },
        {
          "duration": 0.2026788416666534,
          "durationTicks": 227,
          "midi": 48,
          "name": "C3",
          "ticks": 98400,
          "time": 159.38965600000003,
          "velocity": 0.6299212598425197
        },
        {
          "duration": 0.20267884166668182,
          "durationTicks": 227,
          "midi": 55,
          "name": "G3",
          "ticks": 98640,
          "time": 159.60394200000002,
          "velocity": 0.6299212598425197
        },
        {
          "duration": 0.20267884166668182,
          "durationTicks": 227,
          "midi": 58,
          "name": "A#3",
          "ticks": 98640,
          "time": 159.60394200000002,
          "velocity": 0.6299212598425197
        },
        {
          "duration": 0.20267884166668182,
          "durationTicks": 227,
          "midi": 60,
          "name": "C4",
          "ticks": 98640,
          "time": 159.60394200000002,
          "velocity": 0.6299212598425197
        },
        {
          "duration": 0.2026788416666534,
          "durationTicks": 227,
          "midi": 52,
          "name": "E3",
          "ticks": 98880,
          "time": 159.81822800000003,
          "velocity": 0.6299212598425197
        },
        {
          "duration": 0.20267884166668182,
          "durationTicks": 227,
          "midi": 55,
          "name": "G3",
          "ticks": 99120,
          "time": 160.03251400000002,
          "velocity": 0.6299212598425197
        },
        {
          "duration": 0.20267884166668182,
          "durationTicks": 227,
          "midi": 58,
          "name": "A#3",
          "ticks": 99120,
          "time": 160.03251400000002,
          "velocity": 0.6299212598425197
        },
        {
          "duration": 0.20267884166668182,
          "durationTicks": 227,
          "midi": 60,
          "name": "C4",
          "ticks": 99120,
          "time": 160.03251400000002,
          "velocity": 0.6299212598425197
        },
        {
          "duration": 0.2026788416666534,
          "durationTicks": 227,
          "midi": 48,
          "name": "C3",
          "ticks": 99360,
          "time": 160.24680000000004,
          "velocity": 0.6299212598425197
        },
        {
          "duration": 0.20267884166668182,
          "durationTicks": 227,
          "midi": 55,
          "name": "G3",
          "ticks": 99600,
          "time": 160.46108600000002,
          "velocity": 0.6299212598425197
        },
        {
          "duration": 0.20267884166668182,
          "durationTicks": 227,
          "midi": 58,
          "name": "A#3",
          "ticks": 99600,
          "time": 160.46108600000002,
          "velocity": 0.6299212598425197
        },
        {
          "duration": 0.20267884166668182,
          "durationTicks": 227,
          "midi": 60,
          "name": "C4",
          "ticks": 99600,
          "time": 160.46108600000002,
          "velocity": 0.6299212598425197
        },
        {
          "duration": 0.2026788416666534,
          "durationTicks": 227,
          "midi": 53,
          "name": "F3",
          "ticks": 99840,
          "time": 160.67537200000004,
          "velocity": 0.6299212598425197
        },
        {
          "duration": 0.20267884166668182,
          "durationTicks": 227,
          "midi": 57,
          "name": "A3",
          "ticks": 100080,
          "time": 160.88965800000003,
          "velocity": 0.6299212598425197
        },
        {
          "duration": 0.20267884166668182,
          "durationTicks": 227,
          "midi": 60,
          "name": "C4",
          "ticks": 100080,
          "time": 160.88965800000003,
          "velocity": 0.6299212598425197
        },
        {
          "duration": 0.2026788416666534,
          "durationTicks": 227,
          "midi": 48,
          "name": "C3",
          "ticks": 100320,
          "time": 161.10394400000004,
          "velocity": 0.6299212598425197
        },
        {
          "duration": 0.20267884166668182,
          "durationTicks": 227,
          "midi": 53,
          "name": "F3",
          "ticks": 100560,
          "time": 161.31823000000003,
          "velocity": 0.6299212598425197
        },
        {
          "duration": 0.20267884166668182,
          "durationTicks": 227,
          "midi": 57,
          "name": "A3",
          "ticks": 100560,
          "time": 161.31823000000003,
          "velocity": 0.6299212598425197
        },
        {
          "duration": 0.20267884166668182,
          "durationTicks": 227,
          "midi": 60,
          "name": "C4",
          "ticks": 100560,
          "time": 161.31823000000003,
          "velocity": 0.6299212598425197
        },
        {
          "duration": 0.2026788416666534,
          "durationTicks": 227,
          "midi": 45,
          "name": "A2",
          "ticks": 100800,
          "time": 161.53251600000004,
          "velocity": 0.6299212598425197
        },
        {
          "duration": 0.2026788416666534,
          "durationTicks": 227,
          "midi": 53,
          "name": "F3",
          "ticks": 101040,
          "time": 161.74680200000003,
          "velocity": 0.6299212598425197
        },
        {
          "duration": 0.2026788416666534,
          "durationTicks": 227,
          "midi": 57,
          "name": "A3",
          "ticks": 101040,
          "time": 161.74680200000003,
          "velocity": 0.6299212598425197
        },
        {
          "duration": 0.2026788416666534,
          "durationTicks": 227,
          "midi": 60,
          "name": "C4",
          "ticks": 101040,
          "time": 161.74680200000003,
          "velocity": 0.6299212598425197
        },
        {
          "duration": 0.20267884166668182,
          "durationTicks": 227,
          "midi": 41,
          "name": "F2",
          "ticks": 101280,
          "time": 161.96108800000002,
          "velocity": 0.6299212598425197
        },
        {
          "duration": 0.2026788416666534,
          "durationTicks": 227,
          "midi": 53,
          "name": "F3",
          "ticks": 101520,
          "time": 162.17537400000003,
          "velocity": 0.6299212598425197
        },
        {
          "duration": 0.2026788416666534,
          "durationTicks": 227,
          "midi": 57,
          "name": "A3",
          "ticks": 101520,
          "time": 162.17537400000003,
          "velocity": 0.6299212598425197
        },
        {
          "duration": 0.2026788416666534,
          "durationTicks": 227,
          "midi": 60,
          "name": "C4",
          "ticks": 101520,
          "time": 162.17537400000003,
          "velocity": 0.6299212598425197
        },
        {
          "duration": 0.20267884166668182,
          "durationTicks": 227,
          "midi": 49,
          "name": "C#3",
          "ticks": 101760,
          "time": 162.38966000000002,
          "velocity": 0.4881889763779528
        },
        {
          "duration": 0.2026788416666534,
          "durationTicks": 227,
          "midi": 52,
          "name": "E3",
          "ticks": 102000,
          "time": 162.60394600000004,
          "velocity": 0.4881889763779528
        },
        {
          "duration": 0.2026788416666534,
          "durationTicks": 227,
          "midi": 55,
          "name": "G3",
          "ticks": 102000,
          "time": 162.60394600000004,
          "velocity": 0.4881889763779528
        },
        {
          "duration": 0.2026788416666534,
          "durationTicks": 227,
          "midi": 57,
          "name": "A3",
          "ticks": 102000,
          "time": 162.60394600000004,
          "velocity": 0.4881889763779528
        },
        {
          "duration": 0.20267884166668182,
          "durationTicks": 227,
          "midi": 45,
          "name": "A2",
          "ticks": 102240,
          "time": 162.81823200000002,
          "velocity": 0.4881889763779528
        },
        {
          "duration": 0.2026788416666534,
          "durationTicks": 227,
          "midi": 52,
          "name": "E3",
          "ticks": 102480,
          "time": 163.03251800000004,
          "velocity": 0.4881889763779528
        },
        {
          "duration": 0.2026788416666534,
          "durationTicks": 227,
          "midi": 55,
          "name": "G3",
          "ticks": 102480,
          "time": 163.03251800000004,
          "velocity": 0.4881889763779528
        },
        {
          "duration": 0.2026788416666534,
          "durationTicks": 227,
          "midi": 57,
          "name": "A3",
          "ticks": 102480,
          "time": 163.03251800000004,
          "velocity": 0.4881889763779528
        },
        {
          "duration": 0.20267884166668182,
          "durationTicks": 227,
          "midi": 49,
          "name": "C#3",
          "ticks": 102720,
          "time": 163.24680400000003,
          "velocity": 0.4881889763779528
        },
        {
          "duration": 0.2026788416666534,
          "durationTicks": 227,
          "midi": 52,
          "name": "E3",
          "ticks": 102960,
          "time": 163.46109000000004,
          "velocity": 0.4881889763779528
        },
        {
          "duration": 0.2026788416666534,
          "durationTicks": 227,
          "midi": 55,
          "name": "G3",
          "ticks": 102960,
          "time": 163.46109000000004,
          "velocity": 0.4881889763779528
        },
        {
          "duration": 0.2026788416666534,
          "durationTicks": 227,
          "midi": 57,
          "name": "A3",
          "ticks": 102960,
          "time": 163.46109000000004,
          "velocity": 0.4881889763779528
        },
        {
          "duration": 0.20267884166668182,
          "durationTicks": 227,
          "midi": 45,
          "name": "A2",
          "ticks": 103200,
          "time": 163.67537600000003,
          "velocity": 0.4881889763779528
        },
        {
          "duration": 0.2026788416666534,
          "durationTicks": 227,
          "midi": 52,
          "name": "E3",
          "ticks": 103440,
          "time": 163.88966200000004,
          "velocity": 0.4881889763779528
        },
        {
          "duration": 0.2026788416666534,
          "durationTicks": 227,
          "midi": 55,
          "name": "G3",
          "ticks": 103440,
          "time": 163.88966200000004,
          "velocity": 0.4881889763779528
        },
        {
          "duration": 0.2026788416666534,
          "durationTicks": 227,
          "midi": 57,
          "name": "A3",
          "ticks": 103440,
          "time": 163.88966200000004,
          "velocity": 0.4881889763779528
        },
        {
          "duration": 0.2026788416666534,
          "durationTicks": 227,
          "midi": 50,
          "name": "D3",
          "ticks": 103680,
          "time": 164.10394800000003,
          "velocity": 0.4881889763779528
        },
        {
          "duration": 0.20267884166668182,
          "durationTicks": 227,
          "midi": 53,
          "name": "F3",
          "ticks": 103920,
          "time": 164.31823400000002,
          "velocity": 0.4881889763779528
        },
        {
          "duration": 0.20267884166668182,
          "durationTicks": 227,
          "midi": 57,
          "name": "A3",
          "ticks": 103920,
          "time": 164.31823400000002,
          "velocity": 0.4881889763779528
        },
        {
          "duration": 0.2026788416666534,
          "durationTicks": 227,
          "midi": 45,
          "name": "A2",
          "ticks": 104160,
          "time": 164.53252000000003,
          "velocity": 0.4881889763779528
        },
        {
          "duration": 0.2026788416666534,
          "durationTicks": 227,
          "midi": 53,
          "name": "F3",
          "ticks": 104400,
          "time": 164.74680600000005,
          "velocity": 0.4881889763779528
        },
        {
          "duration": 0.2026788416666534,
          "durationTicks": 227,
          "midi": 57,
          "name": "A3",
          "ticks": 104400,
          "time": 164.74680600000005,
          "velocity": 0.4881889763779528
        },
        {
          "duration": 0.2026788416666534,
          "durationTicks": 227,
          "midi": 50,
          "name": "D3",
          "ticks": 104640,
          "time": 164.96109200000004,
          "velocity": 0.4881889763779528
        },
        {
          "duration": 0.20267884166668182,
          "durationTicks": 227,
          "midi": 53,
          "name": "F3",
          "ticks": 104880,
          "time": 165.17537800000002,
          "velocity": 0.4881889763779528
        },
        {
          "duration": 0.20267884166668182,
          "durationTicks": 227,
          "midi": 57,
          "name": "A3",
          "ticks": 104880,
          "time": 165.17537800000002,
          "velocity": 0.4881889763779528
        },
        {
          "duration": 0.2026788416666534,
          "durationTicks": 227,
          "midi": 45,
          "name": "A2",
          "ticks": 105120,
          "time": 165.38966400000004,
          "velocity": 0.4881889763779528
        },
        {
          "duration": 0.2026788416666534,
          "durationTicks": 227,
          "midi": 53,
          "name": "F3",
          "ticks": 105360,
          "time": 165.60395000000003,
          "velocity": 0.4881889763779528
        },
        {
          "duration": 0.2026788416666534,
          "durationTicks": 227,
          "midi": 57,
          "name": "A3",
          "ticks": 105360,
          "time": 165.60395000000003,
          "velocity": 0.4881889763779528
        },
        {
          "duration": 0.2026788416666534,
          "durationTicks": 227,
          "midi": 62,
          "name": "D4",
          "ticks": 105360,
          "time": 165.60395000000003,
          "velocity": 0.4881889763779528
        },
        {
          "duration": 0.2026788416666534,
          "durationTicks": 227,
          "midi": 43,
          "name": "G2",
          "ticks": 105600,
          "time": 165.81823600000004,
          "velocity": 0.4881889763779528
        },
        {
          "duration": 0.20267884166668182,
          "durationTicks": 227,
          "midi": 55,
          "name": "G3",
          "ticks": 105840,
          "time": 166.03252200000003,
          "velocity": 0.4094488188976378
        },
        {
          "duration": 0.20267884166668182,
          "durationTicks": 227,
          "midi": 58,
          "name": "A#3",
          "ticks": 105840,
          "time": 166.03252200000003,
          "velocity": 0.4094488188976378
        },
        {
          "duration": 0.20267884166668182,
          "durationTicks": 227,
          "midi": 60,
          "name": "C4",
          "ticks": 105840,
          "time": 166.03252200000003,
          "velocity": 0.4094488188976378
        },
        {
          "duration": 0.2026788416666534,
          "durationTicks": 227,
          "midi": 52,
          "name": "E3",
          "ticks": 106080,
          "time": 166.24680800000004,
          "velocity": 0.4094488188976378
        },
        {
          "duration": 0.2026788416666534,
          "durationTicks": 227,
          "midi": 58,
          "name": "A#3",
          "ticks": 106320,
          "time": 166.46109400000003,
          "velocity": 0.4094488188976378
        },
        {
          "duration": 0.2026788416666534,
          "durationTicks": 227,
          "midi": 62,
          "name": "D4",
          "ticks": 106320,
          "time": 166.46109400000003,
          "velocity": 0.4094488188976378
        },
        {
          "duration": 0.2026788416666534,
          "durationTicks": 227,
          "midi": 64,
          "name": "E4",
          "ticks": 106320,
          "time": 166.46109400000003,
          "velocity": 0.4094488188976378
        },
        {
          "duration": 0.20267884166668182,
          "durationTicks": 227,
          "midi": 55,
          "name": "G3",
          "ticks": 106560,
          "time": 166.67538000000002,
          "velocity": 0.4094488188976378
        },
        {
          "duration": 0.2026788416666534,
          "durationTicks": 227,
          "midi": 58,
          "name": "A#3",
          "ticks": 106800,
          "time": 166.88966600000003,
          "velocity": 0.4409448818897638
        },
        {
          "duration": 0.2026788416666534,
          "durationTicks": 227,
          "midi": 62,
          "name": "D4",
          "ticks": 106800,
          "time": 166.88966600000003,
          "velocity": 0.4409448818897638
        },
        {
          "duration": 0.2026788416666534,
          "durationTicks": 227,
          "midi": 64,
          "name": "E4",
          "ticks": 106800,
          "time": 166.88966600000003,
          "velocity": 0.4409448818897638
        },
        {
          "duration": 0.2026788416666534,
          "durationTicks": 227,
          "midi": 43,
          "name": "G2",
          "ticks": 107040,
          "time": 167.10395200000005,
          "velocity": 0.5196850393700787
        },
        {
          "duration": 0.2026788416666534,
          "durationTicks": 227,
          "midi": 58,
          "name": "A#3",
          "ticks": 107280,
          "time": 167.31823800000004,
          "velocity": 0.5905511811023622
        },
        {
          "duration": 0.2026788416666534,
          "durationTicks": 227,
          "midi": 62,
          "name": "D4",
          "ticks": 107280,
          "time": 167.31823800000004,
          "velocity": 0.5905511811023622
        },
        {
          "duration": 0.2026788416666534,
          "durationTicks": 227,
          "midi": 64,
          "name": "E4",
          "ticks": 107280,
          "time": 167.31823800000004,
          "velocity": 0.5905511811023622
        },
        {
          "duration": 0.20267884166668182,
          "durationTicks": 227,
          "midi": 45,
          "name": "A2",
          "ticks": 107520,
          "time": 167.53252400000002,
          "velocity": 0.6692913385826772
        },
        {
          "duration": 0.2026788416666534,
          "durationTicks": 227,
          "midi": 53,
          "name": "F3",
          "ticks": 107760,
          "time": 167.74681000000004,
          "velocity": 0.6692913385826772
        },
        {
          "duration": 0.2026788416666534,
          "durationTicks": 227,
          "midi": 57,
          "name": "A3",
          "ticks": 107760,
          "time": 167.74681000000004,
          "velocity": 0.6692913385826772
        },
        {
          "duration": 0.2026788416666534,
          "durationTicks": 227,
          "midi": 62,
          "name": "D4",
          "ticks": 107760,
          "time": 167.74681000000004,
          "velocity": 0.6692913385826772
        },
        {
          "duration": 0.2026788416666534,
          "durationTicks": 227,
          "midi": 50,
          "name": "D3",
          "ticks": 108000,
          "time": 167.96109600000003,
          "velocity": 0.6692913385826772
        },
        {
          "duration": 0.2026788416666534,
          "durationTicks": 227,
          "midi": 53,
          "name": "F3",
          "ticks": 108240,
          "time": 168.17538200000004,
          "velocity": 0.6692913385826772
        },
        {
          "duration": 0.2026788416666534,
          "durationTicks": 227,
          "midi": 57,
          "name": "A3",
          "ticks": 108240,
          "time": 168.17538200000004,
          "velocity": 0.6692913385826772
        },
        {
          "duration": 0.2026788416666534,
          "durationTicks": 227,
          "midi": 62,
          "name": "D4",
          "ticks": 108240,
          "time": 168.17538200000004,
          "velocity": 0.6692913385826772
        },
        {
          "duration": 0.20267884166668182,
          "durationTicks": 227,
          "midi": 53,
          "name": "F3",
          "ticks": 108480,
          "time": 168.38966800000003,
          "velocity": 0.6692913385826772
        },
        {
          "duration": 0.2026788416666534,
          "durationTicks": 227,
          "midi": 57,
          "name": "A3",
          "ticks": 108720,
          "time": 168.60395400000004,
          "velocity": 0.6692913385826772
        },
        {
          "duration": 0.2026788416666534,
          "durationTicks": 227,
          "midi": 62,
          "name": "D4",
          "ticks": 108720,
          "time": 168.60395400000004,
          "velocity": 0.6692913385826772
        },
        {
          "duration": 0.2026788416666534,
          "durationTicks": 227,
          "midi": 45,
          "name": "A2",
          "ticks": 108960,
          "time": 168.81824000000003,
          "velocity": 0.6692913385826772
        },
        {
          "duration": 0.20267884166668182,
          "durationTicks": 227,
          "midi": 53,
          "name": "F3",
          "ticks": 109200,
          "time": 169.03252600000002,
          "velocity": 0.6692913385826772
        },
        {
          "duration": 0.20267884166668182,
          "durationTicks": 227,
          "midi": 57,
          "name": "A3",
          "ticks": 109200,
          "time": 169.03252600000002,
          "velocity": 0.6692913385826772
        },
        {
          "duration": 0.20267884166668182,
          "durationTicks": 227,
          "midi": 62,
          "name": "D4",
          "ticks": 109200,
          "time": 169.03252600000002,
          "velocity": 0.6692913385826772
        },
        {
          "duration": 0.2026788416666534,
          "durationTicks": 227,
          "midi": 49,
          "name": "C#3",
          "ticks": 109440,
          "time": 169.24681200000003,
          "velocity": 0.6692913385826772
        },
        {
          "duration": 0.2026788416666534,
          "durationTicks": 227,
          "midi": 55,
          "name": "G3",
          "ticks": 109680,
          "time": 169.46109800000005,
          "velocity": 0.6692913385826772
        },
        {
          "duration": 0.2026788416666534,
          "durationTicks": 227,
          "midi": 57,
          "name": "A3",
          "ticks": 109680,
          "time": 169.46109800000005,
          "velocity": 0.6692913385826772
        },
        {
          "duration": 0.2026788416666534,
          "durationTicks": 227,
          "midi": 45,
          "name": "A2",
          "ticks": 109920,
          "time": 169.67538400000004,
          "velocity": 0.6692913385826772
        },
        {
          "duration": 0.20267884166668182,
          "durationTicks": 227,
          "midi": 55,
          "name": "G3",
          "ticks": 110160,
          "time": 169.88967000000002,
          "velocity": 0.6692913385826772
        },
        {
          "duration": 0.20267884166668182,
          "durationTicks": 227,
          "midi": 57,
          "name": "A3",
          "ticks": 110160,
          "time": 169.88967000000002,
          "velocity": 0.6692913385826772
        },
        {
          "duration": 0.20267884166668182,
          "durationTicks": 227,
          "midi": 61,
          "name": "C#4",
          "ticks": 110160,
          "time": 169.88967000000002,
          "velocity": 0.6692913385826772
        },
        {
          "duration": 0.2026788416666534,
          "durationTicks": 227,
          "midi": 52,
          "name": "E3",
          "ticks": 110400,
          "time": 170.10395600000004,
          "velocity": 0.6692913385826772
        },
        {
          "duration": 0.2026788416666534,
          "durationTicks": 227,
          "midi": 55,
          "name": "G3",
          "ticks": 110640,
          "time": 170.31824200000003,
          "velocity": 0.6692913385826772
        },
        {
          "duration": 0.2026788416666534,
          "durationTicks": 227,
          "midi": 57,
          "name": "A3",
          "ticks": 110640,
          "time": 170.31824200000003,
          "velocity": 0.6692913385826772
        },
        {
          "duration": 0.2026788416666534,
          "durationTicks": 227,
          "midi": 61,
          "name": "C#4",
          "ticks": 110640,
          "time": 170.31824200000003,
          "velocity": 0.6692913385826772
        },
        {
          "duration": 0.2026788416666534,
          "durationTicks": 227,
          "midi": 45,
          "name": "A2",
          "ticks": 110880,
          "time": 170.53252800000004,
          "velocity": 0.6692913385826772
        },
        {
          "duration": 0.20267884166668182,
          "durationTicks": 227,
          "midi": 55,
          "name": "G3",
          "ticks": 111120,
          "time": 170.74681400000003,
          "velocity": 0.6692913385826772
        },
        {
          "duration": 0.20267884166668182,
          "durationTicks": 227,
          "midi": 57,
          "name": "A3",
          "ticks": 111120,
          "time": 170.74681400000003,
          "velocity": 0.6692913385826772
        },
        {
          "duration": 0.20267884166668182,
          "durationTicks": 227,
          "midi": 64,
          "name": "E4",
          "ticks": 111120,
          "time": 170.74681400000003,
          "velocity": 0.6692913385826772
        },
        {
          "duration": 0.2026788416666534,
          "durationTicks": 227,
          "midi": 50,
          "name": "D3",
          "ticks": 111360,
          "time": 170.96110000000004,
          "velocity": 0.6692913385826772
        },
        {
          "duration": 0.2026788416666534,
          "durationTicks": 227,
          "midi": 53,
          "name": "F3",
          "ticks": 111600,
          "time": 171.17538600000003,
          "velocity": 0.6692913385826772
        },
        {
          "duration": 0.2026788416666534,
          "durationTicks": 227,
          "midi": 57,
          "name": "A3",
          "ticks": 111600,
          "time": 171.17538600000003,
          "velocity": 0.6692913385826772
        },
        {
          "duration": 0.2026788416666534,
          "durationTicks": 227,
          "midi": 62,
          "name": "D4",
          "ticks": 111600,
          "time": 171.17538600000003,
          "velocity": 0.6692913385826772
        },
        {
          "duration": 0.20267884166668182,
          "durationTicks": 227,
          "midi": 45,
          "name": "A2",
          "ticks": 111840,
          "time": 171.38967200000002,
          "velocity": 0.6692913385826772
        },
        {
          "duration": 0.2026788416666534,
          "durationTicks": 227,
          "midi": 55,
          "name": "G3",
          "ticks": 112080,
          "time": 171.60395800000003,
          "velocity": 0.6692913385826772
        },
        {
          "duration": 0.2026788416666534,
          "durationTicks": 227,
          "midi": 57,
          "name": "A3",
          "ticks": 112080,
          "time": 171.60395800000003,
          "velocity": 0.6692913385826772
        },
        {
          "duration": 0.2026788416666534,
          "durationTicks": 227,
          "midi": 64,
          "name": "E4",
          "ticks": 112080,
          "time": 171.60395800000003,
          "velocity": 0.6692913385826772
        },
        {
          "duration": 0.20267884166668182,
          "durationTicks": 227,
          "midi": 50,
          "name": "D3",
          "ticks": 112320,
          "time": 171.81824400000002,
          "velocity": 0.6692913385826772
        },
        {
          "duration": 0.2026788416666534,
          "durationTicks": 227,
          "midi": 53,
          "name": "F3",
          "ticks": 112560,
          "time": 172.03253000000004,
          "velocity": 0.6692913385826772
        },
        {
          "duration": 0.2026788416666534,
          "durationTicks": 227,
          "midi": 57,
          "name": "A3",
          "ticks": 112560,
          "time": 172.03253000000004,
          "velocity": 0.6692913385826772
        },
        {
          "duration": 0.2026788416666534,
          "durationTicks": 227,
          "midi": 62,
          "name": "D4",
          "ticks": 112560,
          "time": 172.03253000000004,
          "velocity": 0.6692913385826772
        },
        {
          "duration": 0.20267884166668182,
          "durationTicks": 227,
          "midi": 45,
          "name": "A2",
          "ticks": 112800,
          "time": 172.24681600000002,
          "velocity": 0.6692913385826772
        },
        {
          "duration": 0.2026788416666534,
          "durationTicks": 227,
          "midi": 53,
          "name": "F3",
          "ticks": 113040,
          "time": 172.46110200000004,
          "velocity": 0.6692913385826772
        },
        {
          "duration": 0.2026788416666534,
          "durationTicks": 227,
          "midi": 57,
          "name": "A3",
          "ticks": 113040,
          "time": 172.46110200000004,
          "velocity": 0.6692913385826772
        },
        {
          "duration": 0.2026788416666534,
          "durationTicks": 227,
          "midi": 62,
          "name": "D4",
          "ticks": 113040,
          "time": 172.46110200000004,
          "velocity": 0.6692913385826772
        },
        {
          "duration": 0.6319447604166726,
          "durationTicks": 455,
          "midi": 38,
          "name": "D2",
          "ticks": 113280,
          "time": 172.67538800000003,
          "velocity": 0.6692913385826772
        },
        {
          "duration": 0.6319447604166726,
          "durationTicks": 455,
          "midi": 50,
          "name": "D3",
          "ticks": 113280,
          "time": 172.67538800000003,
          "velocity": 0.6692913385826772
        },
        {
          "duration": 0.665278110416665,
          "durationTicks": 479,
          "midi": 54,
          "name": "F#3",
          "ticks": 113760,
          "time": 173.34205500000002,
          "velocity": 0.6692913385826772
        },
        {
          "duration": 0.5763891770833425,
          "durationTicks": 415,
          "midi": 57,
          "name": "A3",
          "ticks": 113823,
          "time": 173.42955504375,
          "velocity": 0.6692913385826772
        },
        {
          "duration": 0.48750024374999157,
          "durationTicks": 351,
          "midi": 62,
          "name": "D4",
          "ticks": 113887,
          "time": 173.51844397708336,
          "velocity": 0.6692913385826772
        },
        {
          "duration": 1.2652784104166699,
          "durationTicks": 911,
          "midi": 42,
          "name": "F#2",
          "ticks": 114240,
          "time": 174.00872200000003,
          "velocity": 0.6692913385826772
        },
        {
          "duration": 1.2652784104166699,
          "durationTicks": 911,
          "midi": 54,
          "name": "F#3",
          "ticks": 114240,
          "time": 174.00872200000003,
          "velocity": 0.6692913385826772
        },
        {
          "duration": 0.665278110416665,
          "durationTicks": 479,
          "midi": 54,
          "name": "F#3",
          "ticks": 114720,
          "time": 174.67538900000002,
          "velocity": 0.6692913385826772
        },
        {
          "duration": 0.5763891770833425,
          "durationTicks": 415,
          "midi": 58,
          "name": "A#3",
          "ticks": 114783,
          "time": 174.76288904375002,
          "velocity": 0.6692913385826772
        },
        {
          "duration": 0.48750024374999157,
          "durationTicks": 351,
          "midi": 62,
          "name": "D4",
          "ticks": 114847,
          "time": 174.85177797708337,
          "velocity": 0.6692913385826772
        },
        {
          "duration": 1.2652784104166699,
          "durationTicks": 911,
          "midi": 43,
          "name": "G2",
          "ticks": 115200,
          "time": 175.342056,
          "velocity": 0.6692913385826772
        },
        {
          "duration": 1.2652784104166699,
          "durationTicks": 911,
          "midi": 55,
          "name": "G3",
          "ticks": 115200,
          "time": 175.342056,
          "velocity": 0.6692913385826772
        },
        {
          "duration": 0.665278110416665,
          "durationTicks": 479,
          "midi": 55,
          "name": "G3",
          "ticks": 115680,
          "time": 176.00872300000003,
          "velocity": 0.6692913385826772
        },
        {
          "duration": 0.5763891770833425,
          "durationTicks": 415,
          "midi": 59,
          "name": "B3",
          "ticks": 115743,
          "time": 176.09622304375003,
          "velocity": 0.6692913385826772
        },
        {
          "duration": 0.48750024375002,
          "durationTicks": 351,
          "midi": 62,
          "name": "D4",
          "ticks": 115807,
          "time": 176.18511197708335,
          "velocity": 0.6692913385826772
        },
        {
          "duration": 0.3986113104166691,
          "durationTicks": 287,
          "midi": 64,
          "name": "E4",
          "ticks": 115872,
          "time": 176.27538980000003,
          "velocity": 0.6692913385826772
        },
        {
          "duration": 1.2652784104166699,
          "durationTicks": 911,
          "midi": 40,
          "name": "E2",
          "ticks": 116160,
          "time": 176.67539000000002,
          "velocity": 0.6692913385826772
        },
        {
          "duration": 1.2652784104166699,
          "durationTicks": 911,
          "midi": 52,
          "name": "E3",
          "ticks": 116160,
          "time": 176.67539000000002,
          "velocity": 0.6692913385826772
        },
        {
          "duration": 0.665278110416665,
          "durationTicks": 479,
          "midi": 55,
          "name": "G3",
          "ticks": 116640,
          "time": 177.34205700000004,
          "velocity": 0.6692913385826772
        },
        {
          "duration": 0.576389177083314,
          "durationTicks": 415,
          "midi": 59,
          "name": "B3",
          "ticks": 116703,
          "time": 177.42955704375004,
          "velocity": 0.6692913385826772
        },
        {
          "duration": 0.48750024374999157,
          "durationTicks": 351,
          "midi": 62,
          "name": "D4",
          "ticks": 116767,
          "time": 177.51844597708336,
          "velocity": 0.6692913385826772
        },
        {
          "duration": 0.3986113104166691,
          "durationTicks": 287,
          "midi": 64,
          "name": "E4",
          "ticks": 116832,
          "time": 177.60872380000004,
          "velocity": 0.6692913385826772
        },
        {
          "duration": 0.6319447604166726,
          "durationTicks": 455,
          "midi": 37,
          "name": "C#2",
          "ticks": 117120,
          "time": 178.00872400000003,
          "velocity": 0.41732283464566927
        },
        {
          "duration": 0.6319447604166726,
          "durationTicks": 455,
          "midi": 49,
          "name": "C#3",
          "ticks": 117120,
          "time": 178.00872400000003,
          "velocity": 0.41732283464566927
        },
        {
          "duration": 0.6319447604166726,
          "durationTicks": 455,
          "midi": 55,
          "name": "G3",
          "ticks": 117600,
          "time": 178.67539100000002,
          "velocity": 0.41732283464566927
        },
        {
          "duration": 0.6319447604166726,
          "durationTicks": 455,
          "midi": 57,
          "name": "A3",
          "ticks": 117600,
          "time": 178.67539100000002,
          "velocity": 0.41732283464566927
        },
        {
          "duration": 0.6319447604166726,
          "durationTicks": 455,
          "midi": 64,
          "name": "E4",
          "ticks": 117600,
          "time": 178.67539100000002,
          "velocity": 0.41732283464566927
        },
        {
          "duration": 0.6319447604166442,
          "durationTicks": 455,
          "midi": 33,
          "name": "A1",
          "ticks": 118080,
          "time": 179.34205800000004,
          "velocity": 0.41732283464566927
        },
        {
          "duration": 0.6319447604166442,
          "durationTicks": 455,
          "midi": 45,
          "name": "A2",
          "ticks": 118080,
          "time": 179.34205800000004,
          "velocity": 0.41732283464566927
        },
        {
          "duration": 0.6319447604166726,
          "durationTicks": 455,
          "midi": 54,
          "name": "F#3",
          "ticks": 118560,
          "time": 180.00872500000003,
          "velocity": 0.41732283464566927
        },
        {
          "duration": 0.6319447604166726,
          "durationTicks": 455,
          "midi": 57,
          "name": "A3",
          "ticks": 118560,
          "time": 180.00872500000003,
          "velocity": 0.41732283464566927
        },
        {
          "duration": 0.6319447604166726,
          "durationTicks": 455,
          "midi": 64,
          "name": "E4",
          "ticks": 118560,
          "time": 180.00872500000003,
          "velocity": 0.41732283464566927
        },
        {
          "duration": 0.6319447604166726,
          "durationTicks": 455,
          "midi": 38,
          "name": "D2",
          "ticks": 119040,
          "time": 180.67539200000002,
          "velocity": 0.41732283464566927
        },
        {
          "duration": 0.6319447604166726,
          "durationTicks": 455,
          "midi": 50,
          "name": "D3",
          "ticks": 119040,
          "time": 180.67539200000002,
          "velocity": 0.41732283464566927
        },
        {
          "duration": 0.6319447604166442,
          "durationTicks": 455,
          "midi": 57,
          "name": "A3",
          "ticks": 119520,
          "time": 181.34205900000003,
          "velocity": 0.41732283464566927
        },
        {
          "duration": 0.6319447604166442,
          "durationTicks": 455,
          "midi": 62,
          "name": "D4",
          "ticks": 119520,
          "time": 181.34205900000003,
          "velocity": 0.41732283464566927
        },
        {
          "duration": 0.6319447604166442,
          "durationTicks": 455,
          "midi": 66,
          "name": "F#4",
          "ticks": 119520,
          "time": 181.34205900000003,
          "velocity": 0.41732283464566927
        },
        {
          "duration": 0.6319447604166726,
          "durationTicks": 455,
          "midi": 38,
          "name": "D2",
          "ticks": 120000,
          "time": 182.00872600000002,
          "velocity": 0.41732283464566927
        },
        {
          "duration": 0.6319447604166726,
          "durationTicks": 455,
          "midi": 50,
          "name": "D3",
          "ticks": 120000,
          "time": 182.00872600000002,
          "velocity": 0.41732283464566927
        },
        {
          "duration": 0.3152779354166739,
          "durationTicks": 227,
          "midi": 57,
          "name": "A3",
          "ticks": 120480,
          "time": 182.675393,
          "velocity": 0.5826771653543307
        },
        {
          "duration": 0.3152779354166739,
          "durationTicks": 227,
          "midi": 62,
          "name": "D4",
          "ticks": 120480,
          "time": 182.675393,
          "velocity": 0.5826771653543307
        },
        {
          "duration": 0.3152779354166739,
          "durationTicks": 227,
          "midi": 66,
          "name": "F#4",
          "ticks": 120480,
          "time": 182.675393,
          "velocity": 0.5826771653543307
        },
        {
          "duration": 0.3152779354166739,
          "durationTicks": 227,
          "midi": 33,
          "name": "A1",
          "ticks": 120720,
          "time": 183.00872650000002,
          "velocity": 0.6692913385826772
        },
        {
          "duration": 0.3152779354166739,
          "durationTicks": 227,
          "midi": 45,
          "name": "A2",
          "ticks": 120720,
          "time": 183.00872650000002,
          "velocity": 0.6692913385826772
        },
        {
          "duration": 0.6319447604166726,
          "durationTicks": 455,
          "midi": 38,
          "name": "D2",
          "ticks": 120960,
          "time": 183.34206000000003,
          "velocity": 0.7559055118110236
        },
        {
          "duration": 0.6319447604166726,
          "durationTicks": 455,
          "midi": 50,
          "name": "D3",
          "ticks": 120960,
          "time": 183.34206000000003,
          "velocity": 0.7559055118110236
        },
        {
          "duration": 0.665278110416665,
          "durationTicks": 479,
          "midi": 54,
          "name": "F#3",
          "ticks": 121440,
          "time": 184.00872700000002,
          "velocity": 0.7559055118110236
        },
        {
          "duration": 0.5763891770833425,
          "durationTicks": 415,
          "midi": 57,
          "name": "A3",
          "ticks": 121503,
          "time": 184.09622704375002,
          "velocity": 0.7559055118110236
        },
        {
          "duration": 0.48750024374999157,
          "durationTicks": 351,
          "midi": 62,
          "name": "D4",
          "ticks": 121567,
          "time": 184.18511597708337,
          "velocity": 0.7559055118110236
        },
        {
          "duration": 1.2652784104166415,
          "durationTicks": 911,
          "midi": 42,
          "name": "F#2",
          "ticks": 121920,
          "time": 184.67539400000004,
          "velocity": 0.7559055118110236
        },
        {
          "duration": 1.2652784104166415,
          "durationTicks": 911,
          "midi": 54,
          "name": "F#3",
          "ticks": 121920,
          "time": 184.67539400000004,
          "velocity": 0.7559055118110236
        },
        {
          "duration": 0.6319447604166726,
          "durationTicks": 455,
          "midi": 54,
          "name": "F#3",
          "ticks": 122400,
          "time": 185.34206100000003,
          "velocity": 0.7559055118110236
        },
        {
          "duration": 0.6319447604166726,
          "durationTicks": 455,
          "midi": 58,
          "name": "A#3",
          "ticks": 122400,
          "time": 185.34206100000003,
          "velocity": 0.7559055118110236
        },
        {
          "duration": 0.6319447604166726,
          "durationTicks": 455,
          "midi": 62,
          "name": "D4",
          "ticks": 122400,
          "time": 185.34206100000003,
          "velocity": 0.7559055118110236
        },
        {
          "duration": 1.2652784104166699,
          "durationTicks": 911,
          "midi": 43,
          "name": "G2",
          "ticks": 122880,
          "time": 186.00872800000002,
          "velocity": 0.7559055118110236
        },
        {
          "duration": 1.2652784104166699,
          "durationTicks": 911,
          "midi": 55,
          "name": "G3",
          "ticks": 122880,
          "time": 186.00872800000002,
          "velocity": 0.7559055118110236
        },
        {
          "duration": 0.665278110416665,
          "durationTicks": 479,
          "midi": 55,
          "name": "G3",
          "ticks": 123360,
          "time": 186.67539500000004,
          "velocity": 0.7559055118110236
        },
        {
          "duration": 0.576389177083314,
          "durationTicks": 415,
          "midi": 59,
          "name": "B3",
          "ticks": 123423,
          "time": 186.76289504375004,
          "velocity": 0.7559055118110236
        },
        {
          "duration": 0.48750024374999157,
          "durationTicks": 351,
          "midi": 62,
          "name": "D4",
          "ticks": 123487,
          "time": 186.85178397708336,
          "velocity": 0.7559055118110236
        },
        {
          "duration": 0.3986113104166691,
          "durationTicks": 287,
          "midi": 64,
          "name": "E4",
          "ticks": 123552,
          "time": 186.94206180000003,
          "velocity": 0.7559055118110236
        },
        {
          "duration": 1.2652784104166699,
          "durationTicks": 911,
          "midi": 40,
          "name": "E2",
          "ticks": 123840,
          "time": 187.34206200000003,
          "velocity": 0.7559055118110236
        },
        {
          "duration": 1.2652784104166699,
          "durationTicks": 911,
          "midi": 52,
          "name": "E3",
          "ticks": 123840,
          "time": 187.34206200000003,
          "velocity": 0.7559055118110236
        },
        {
          "duration": 0.665278110416665,
          "durationTicks": 479,
          "midi": 55,
          "name": "G3",
          "ticks": 124320,
          "time": 188.00872900000002,
          "velocity": 0.7559055118110236
        },
        {
          "duration": 0.5763891770833425,
          "durationTicks": 415,
          "midi": 59,
          "name": "B3",
          "ticks": 124383,
          "time": 188.09622904375001,
          "velocity": 0.7559055118110236
        },
        {
          "duration": 0.48750024374999157,
          "durationTicks": 351,
          "midi": 62,
          "name": "D4",
          "ticks": 124447,
          "time": 188.18511797708337,
          "velocity": 0.7559055118110236
        },
        {
          "duration": 0.3986113104166691,
          "durationTicks": 287,
          "midi": 64,
          "name": "E4",
          "ticks": 124512,
          "time": 188.2753958,
          "velocity": 0.7559055118110236
        },
        {
          "duration": 0.6319447604166726,
          "durationTicks": 455,
          "midi": 33,
          "name": "A1",
          "ticks": 124800,
          "time": 188.67539600000003,
          "velocity": 0.6692913385826772
        },
        {
          "duration": 0.6319447604166726,
          "durationTicks": 455,
          "midi": 45,
          "name": "A2",
          "ticks": 124800,
          "time": 188.67539600000003,
          "velocity": 0.6692913385826772
        },
        {
          "duration": 0.6319447604166726,
          "durationTicks": 455,
          "midi": 54,
          "name": "F#3",
          "ticks": 125280,
          "time": 189.34206300000002,
          "velocity": 0.6692913385826772
        },
        {
          "duration": 0.6319447604166726,
          "durationTicks": 455,
          "midi": 57,
          "name": "A3",
          "ticks": 125280,
          "time": 189.34206300000002,
          "velocity": 0.6692913385826772
        },
        {
          "duration": 0.6319447604166726,
          "durationTicks": 455,
          "midi": 62,
          "name": "D4",
          "ticks": 125280,
          "time": 189.34206300000002,
          "velocity": 0.6692913385826772
        },
        {
          "duration": 0.6319447604166726,
          "durationTicks": 455,
          "midi": 33,
          "name": "A1",
          "ticks": 125760,
          "time": 190.00873,
          "velocity": 0.6692913385826772
        },
        {
          "duration": 0.6319447604166726,
          "durationTicks": 455,
          "midi": 45,
          "name": "A2",
          "ticks": 125760,
          "time": 190.00873,
          "velocity": 0.6692913385826772
        },
        {
          "duration": 0.6319447604166726,
          "durationTicks": 455,
          "midi": 57,
          "name": "A3",
          "ticks": 126240,
          "time": 190.67539700000003,
          "velocity": 0.6692913385826772
        },
        {
          "duration": 0.6319447604166726,
          "durationTicks": 455,
          "midi": 64,
          "name": "E4",
          "ticks": 126240,
          "time": 190.67539700000003,
          "velocity": 0.6692913385826772
        },
        {
          "duration": 0.6319447604166726,
          "durationTicks": 455,
          "midi": 50,
          "name": "D3",
          "ticks": 126720,
          "time": 191.34206400000002,
          "velocity": 0.6692913385826772
        },
        {
          "duration": 0.6319447604166726,
          "durationTicks": 455,
          "midi": 57,
          "name": "A3",
          "ticks": 126720,
          "time": 191.34206400000002,
          "velocity": 0.6692913385826772
        },
        {
          "duration": 0.6319447604166726,
          "durationTicks": 455,
          "midi": 62,
          "name": "D4",
          "ticks": 126720,
          "time": 191.34206400000002,
          "velocity": 0.6692913385826772
        },
        {
          "duration": 0.3152779354166739,
          "durationTicks": 227,
          "midi": 33,
          "name": "A1",
          "ticks": 127440,
          "time": 192.34206450000002,
          "velocity": 0.6692913385826772
        },
        {
          "duration": 0.3152779354166739,
          "durationTicks": 227,
          "midi": 45,
          "name": "A2",
          "ticks": 127440,
          "time": 192.34206450000002,
          "velocity": 0.6692913385826772
        },
        {
          "duration": 0.665278110416665,
          "durationTicks": 479,
          "midi": 38,
          "name": "D2",
          "ticks": 127680,
          "time": 192.67539800000003,
          "velocity": 0.8031496062992126
        },
        {
          "duration": 0.665278110416665,
          "durationTicks": 479,
          "midi": 50,
          "name": "D3",
          "ticks": 127680,
          "time": 192.67539800000003,
          "velocity": 0.8031496062992126
        },
        {
          "duration": 0.9979166666666686,
          "durationTicks": 479,
          "midi": 62,
          "name": "D4",
          "ticks": 128640,
          "time": 194.00873200000004,
          "velocity": 0.41732283464566927
        },
        {
          "duration": 0.8645833333333428,
          "durationTicks": 415,
          "midi": 66,
          "name": "F#4",
          "ticks": 128703,
          "time": 194.13998200000003,
          "velocity": 0.41732283464566927
        },
        {
          "duration": 0.731250000000017,
          "durationTicks": 351,
          "midi": 69,
          "name": "A4",
          "ticks": 128767,
          "time": 194.27331533333336,
          "velocity": 0.41732283464566927
        },
        {
          "duration": 0.9979166666666686,
          "durationTicks": 479,
          "midi": 62,
          "name": "D4",
          "ticks": 129120,
          "time": 195.00873200000004,
          "velocity": 0.41732283464566927
        },
        {
          "duration": 0.8645833333333428,
          "durationTicks": 415,
          "midi": 66,
          "name": "F#4",
          "ticks": 129183,
          "time": 195.13998200000003,
          "velocity": 0.41732283464566927
        },
        {
          "duration": 0.731250000000017,
          "durationTicks": 351,
          "midi": 69,
          "name": "A4",
          "ticks": 129247,
          "time": 195.27331533333336,
          "velocity": 0.41732283464566927
        },
        {
          "duration": 0.9979166666666686,
          "durationTicks": 479,
          "midi": 62,
          "name": "D4",
          "ticks": 129600,
          "time": 196.00873200000004,
          "velocity": 0.41732283464566927
        },
        {
          "duration": 0.8645833333333428,
          "durationTicks": 415,
          "midi": 66,
          "name": "F#4",
          "ticks": 129663,
          "time": 196.13998200000003,
          "velocity": 0.41732283464566927
        },
        {
          "duration": 0.731250000000017,
          "durationTicks": 351,
          "midi": 69,
          "name": "A4",
          "ticks": 129727,
          "time": 196.27331533333336,
          "velocity": 0.41732283464566927
        },
        {
          "duration": 0.9979166666666686,
          "durationTicks": 479,
          "midi": 62,
          "name": "D4",
          "ticks": 130080,
          "time": 197.00873200000004,
          "velocity": 0.41732283464566927
        },
        {
          "duration": 0.8645833333333428,
          "durationTicks": 415,
          "midi": 66,
          "name": "F#4",
          "ticks": 130143,
          "time": 197.13998200000003,
          "velocity": 0.41732283464566927
        },
        {
          "duration": 0.731250000000017,
          "durationTicks": 351,
          "midi": 70,
          "name": "A#4",
          "ticks": 130207,
          "time": 197.27331533333336,
          "velocity": 0.41732283464566927
        },
        {
          "duration": 0.9979166666666686,
          "durationTicks": 479,
          "midi": 62,
          "name": "D4",
          "ticks": 130560,
          "time": 198.00873200000004,
          "velocity": 0.41732283464566927
        },
        {
          "duration": 0.8645833333333428,
          "durationTicks": 415,
          "midi": 64,
          "name": "E4",
          "ticks": 130623,
          "time": 198.13998200000003,
          "velocity": 0.41732283464566927
        },
        {
          "duration": 0.731250000000017,
          "durationTicks": 351,
          "midi": 67,
          "name": "G4",
          "ticks": 130687,
          "time": 198.27331533333336,
          "velocity": 0.41732283464566927
        },
        {
          "duration": 0.5979166666666629,
          "durationTicks": 287,
          "midi": 71,
          "name": "B4",
          "ticks": 130752,
          "time": 198.40873200000004,
          "velocity": 0.41732283464566927
        },
        {
          "duration": 0.9979166666666686,
          "durationTicks": 479,
          "midi": 62,
          "name": "D4",
          "ticks": 131040,
          "time": 199.00873200000004,
          "velocity": 0.41732283464566927
        },
        {
          "duration": 0.8645833333333428,
          "durationTicks": 415,
          "midi": 64,
          "name": "E4",
          "ticks": 131103,
          "time": 199.13998200000003,
          "velocity": 0.41732283464566927
        },
        {
          "duration": 0.731250000000017,
          "durationTicks": 351,
          "midi": 67,
          "name": "G4",
          "ticks": 131167,
          "time": 199.27331533333336,
          "velocity": 0.41732283464566927
        },
        {
          "duration": 0.5979166666666629,
          "durationTicks": 287,
          "midi": 71,
          "name": "B4",
          "ticks": 131232,
          "time": 199.40873200000004,
          "velocity": 0.41732283464566927
        },
        {
          "duration": 0.9979166666666686,
          "durationTicks": 479,
          "midi": 62,
          "name": "D4",
          "ticks": 131520,
          "time": 200.00873200000004,
          "velocity": 0.41732283464566927
        },
        {
          "duration": 0.8645833333333428,
          "durationTicks": 415,
          "midi": 67,
          "name": "G4",
          "ticks": 131583,
          "time": 200.13998200000003,
          "velocity": 0.41732283464566927
        },
        {
          "duration": 0.731250000000017,
          "durationTicks": 351,
          "midi": 71,
          "name": "B4",
          "ticks": 131647,
          "time": 200.27331533333336,
          "velocity": 0.41732283464566927
        },
        {
          "duration": 0.9979166666666686,
          "durationTicks": 479,
          "midi": 62,
          "name": "D4",
          "ticks": 132000,
          "time": 201.00873200000004,
          "velocity": 0.41732283464566927
        },
        {
          "duration": 0.8645833333333428,
          "durationTicks": 415,
          "midi": 64,
          "name": "E4",
          "ticks": 132063,
          "time": 201.13998200000003,
          "velocity": 0.41732283464566927
        },
        {
          "duration": 0.731250000000017,
          "durationTicks": 351,
          "midi": 67,
          "name": "G4",
          "ticks": 132127,
          "time": 201.27331533333336,
          "velocity": 0.41732283464566927
        },
        {
          "duration": 0.5979166666666629,
          "durationTicks": 287,
          "midi": 71,
          "name": "B4",
          "ticks": 132192,
          "time": 201.40873200000004,
          "velocity": 0.41732283464566927
        },
        {
          "duration": 0.9979166666666686,
          "durationTicks": 479,
          "midi": 57,
          "name": "A3",
          "ticks": 132480,
          "time": 202.00873200000004,
          "velocity": 0.41732283464566927
        },
        {
          "duration": 0.8645833333333428,
          "durationTicks": 415,
          "midi": 64,
          "name": "E4",
          "ticks": 132543,
          "time": 202.13998200000003,
          "velocity": 0.41732283464566927
        },
        {
          "duration": 0.731250000000017,
          "durationTicks": 351,
          "midi": 67,
          "name": "G4",
          "ticks": 132607,
          "time": 202.27331533333336,
          "velocity": 0.41732283464566927
        },
        {
          "duration": 0.5979166666666629,
          "durationTicks": 287,
          "midi": 69,
          "name": "A4",
          "ticks": 132672,
          "time": 202.40873200000004,
          "velocity": 0.41732283464566927
        },
        {
          "duration": 0.9979166666666686,
          "durationTicks": 479,
          "midi": 57,
          "name": "A3",
          "ticks": 132960,
          "time": 203.00873200000004,
          "velocity": 0.41732283464566927
        },
        {
          "duration": 0.8645833333333428,
          "durationTicks": 415,
          "midi": 64,
          "name": "E4",
          "ticks": 133023,
          "time": 203.13998200000003,
          "velocity": 0.41732283464566927
        },
        {
          "duration": 0.731250000000017,
          "durationTicks": 351,
          "midi": 67,
          "name": "G4",
          "ticks": 133087,
          "time": 203.27331533333336,
          "velocity": 0.41732283464566927
        },
        {
          "duration": 0.5979166666666629,
          "durationTicks": 287,
          "midi": 69,
          "name": "A4",
          "ticks": 133152,
          "time": 203.40873200000004,
          "velocity": 0.41732283464566927
        },
        {
          "duration": 0.9979166666666686,
          "durationTicks": 479,
          "midi": 57,
          "name": "A3",
          "ticks": 133440,
          "time": 204.00873200000004,
          "velocity": 0.41732283464566927
        },
        {
          "duration": 0.8645833333333428,
          "durationTicks": 415,
          "midi": 64,
          "name": "E4",
          "ticks": 133503,
          "time": 204.13998200000003,
          "velocity": 0.41732283464566927
        },
        {
          "duration": 0.731250000000017,
          "durationTicks": 351,
          "midi": 67,
          "name": "G4",
          "ticks": 133567,
          "time": 204.27331533333336,
          "velocity": 0.41732283464566927
        },
        {
          "duration": 0.5979166666666629,
          "durationTicks": 287,
          "midi": 69,
          "name": "A4",
          "ticks": 133632,
          "time": 204.40873200000004,
          "velocity": 0.41732283464566927
        },
        {
          "duration": 0.9979166666666686,
          "durationTicks": 479,
          "midi": 57,
          "name": "A3",
          "ticks": 133920,
          "time": 205.00873200000004,
          "velocity": 0.41732283464566927
        },
        {
          "duration": 0.8645833333333428,
          "durationTicks": 415,
          "midi": 64,
          "name": "E4",
          "ticks": 133983,
          "time": 205.13998200000003,
          "velocity": 0.41732283464566927
        },
        {
          "duration": 0.731250000000017,
          "durationTicks": 351,
          "midi": 67,
          "name": "G4",
          "ticks": 134047,
          "time": 205.27331533333336,
          "velocity": 0.41732283464566927
        },
        {
          "duration": 0.5979166666666629,
          "durationTicks": 287,
          "midi": 69,
          "name": "A4",
          "ticks": 134112,
          "time": 205.40873200000004,
          "velocity": 0.41732283464566927
        },
        {
          "duration": 0.9979166666666686,
          "durationTicks": 479,
          "midi": 57,
          "name": "A3",
          "ticks": 134400,
          "time": 206.00873200000004,
          "velocity": 0.41732283464566927
        },
        {
          "duration": 0.8645833333333428,
          "durationTicks": 415,
          "midi": 62,
          "name": "D4",
          "ticks": 134463,
          "time": 206.13998200000003,
          "velocity": 0.41732283464566927
        },
        {
          "duration": 0.731250000000017,
          "durationTicks": 351,
          "midi": 69,
          "name": "A4",
          "ticks": 134527,
          "time": 206.27331533333336,
          "velocity": 0.41732283464566927
        },
        {
          "duration": 0.9979166666666686,
          "durationTicks": 479,
          "midi": 57,
          "name": "A3",
          "ticks": 134880,
          "time": 207.00873200000004,
          "velocity": 0.41732283464566927
        },
        {
          "duration": 0.8645833333333428,
          "durationTicks": 415,
          "midi": 62,
          "name": "D4",
          "ticks": 134943,
          "time": 207.13998200000003,
          "velocity": 0.41732283464566927
        },
        {
          "duration": 0.731250000000017,
          "durationTicks": 351,
          "midi": 69,
          "name": "A4",
          "ticks": 135007,
          "time": 207.27331533333336,
          "velocity": 0.41732283464566927
        },
        {
          "duration": 0.9979166666666686,
          "durationTicks": 479,
          "midi": 57,
          "name": "A3",
          "ticks": 135360,
          "time": 208.00873200000004,
          "velocity": 0.41732283464566927
        },
        {
          "duration": 0.8645833333333428,
          "durationTicks": 415,
          "midi": 62,
          "name": "D4",
          "ticks": 135423,
          "time": 208.13998200000003,
          "velocity": 0.41732283464566927
        },
        {
          "duration": 0.731250000000017,
          "durationTicks": 351,
          "midi": 69,
          "name": "A4",
          "ticks": 135487,
          "time": 208.27331533333336,
          "velocity": 0.41732283464566927
        },
        {
          "duration": 0.9479166666666572,
          "durationTicks": 455,
          "midi": 45,
          "name": "A2",
          "ticks": 135840,
          "time": 209.00873200000004,
          "velocity": 0.41732283464566927
        },
        {
          "duration": 0.9979166666666686,
          "durationTicks": 479,
          "midi": 38,
          "name": "D2",
          "ticks": 136320,
          "time": 210.00873200000004,
          "velocity": 0.4094488188976378
        },
        {
          "duration": 0.8645833333333428,
          "durationTicks": 415,
          "midi": 45,
          "name": "A2",
          "ticks": 136383,
          "time": 210.13998200000003,
          "velocity": 0.4094488188976378
        },
        {
          "duration": 0.731250000000017,
          "durationTicks": 351,
          "midi": 50,
          "name": "D3",
          "ticks": 136447,
          "time": 210.27331533333336,
          "velocity": 0.4094488188976378
        },
        {
          "duration": 0.9479166666666572,
          "durationTicks": 455,
          "midi": 62,
          "name": "D4",
          "ticks": 136800,
          "time": 211.00873200000004,
          "velocity": 0.4094488188976378
        },
        {
          "duration": 0.9479166666666572,
          "durationTicks": 455,
          "midi": 66,
          "name": "F#4",
          "ticks": 136800,
          "time": 211.00873200000004,
          "velocity": 0.4094488188976378
        },
        {
          "duration": 0.9479166666666572,
          "durationTicks": 455,
          "midi": 69,
          "name": "A4",
          "ticks": 136800,
          "time": 211.00873200000004,
          "velocity": 0.4094488188976378
        },
        {
          "duration": 0.9979166666666686,
          "durationTicks": 479,
          "midi": 62,
          "name": "D4",
          "ticks": 137280,
          "time": 212.00873200000004,
          "velocity": 0.4094488188976378
        },
        {
          "duration": 0.8645833333333428,
          "durationTicks": 415,
          "midi": 66,
          "name": "F#4",
          "ticks": 137343,
          "time": 212.13998200000003,
          "velocity": 0.4094488188976378
        },
        {
          "duration": 0.731250000000017,
          "durationTicks": 351,
          "midi": 69,
          "name": "A4",
          "ticks": 137407,
          "time": 212.27331533333336,
          "velocity": 0.4094488188976378
        },
        {
          "duration": 0.9979166666666686,
          "durationTicks": 479,
          "midi": 62,
          "name": "D4",
          "ticks": 137760,
          "time": 213.00873200000004,
          "velocity": 0.4094488188976378
        },
        {
          "duration": 0.8645833333333428,
          "durationTicks": 415,
          "midi": 66,
          "name": "F#4",
          "ticks": 137823,
          "time": 213.13998200000003,
          "velocity": 0.4094488188976378
        },
        {
          "duration": 0.731250000000017,
          "durationTicks": 351,
          "midi": 70,
          "name": "A#4",
          "ticks": 137887,
          "time": 213.27331533333336,
          "velocity": 0.4094488188976378
        },
        {
          "duration": 0.9979166666666686,
          "durationTicks": 479,
          "midi": 62,
          "name": "D4",
          "ticks": 138240,
          "time": 214.00873200000004,
          "velocity": 0.4251968503937008
        },
        {
          "duration": 0.8645833333333428,
          "durationTicks": 415,
          "midi": 64,
          "name": "E4",
          "ticks": 138303,
          "time": 214.13998200000003,
          "velocity": 0.4251968503937008
        },
        {
          "duration": 0.731250000000017,
          "durationTicks": 351,
          "midi": 67,
          "name": "G4",
          "ticks": 138367,
          "time": 214.27331533333336,
          "velocity": 0.4251968503937008
        },
        {
          "duration": 0.5979166666666629,
          "durationTicks": 287,
          "midi": 71,
          "name": "B4",
          "ticks": 138432,
          "time": 214.40873200000004,
          "velocity": 0.4251968503937008
        },
        {
          "duration": 0.9979166666666686,
          "durationTicks": 479,
          "midi": 62,
          "name": "D4",
          "ticks": 138720,
          "time": 215.00873200000004,
          "velocity": 0.4409448818897638
        },
        {
          "duration": 0.8645833333333428,
          "durationTicks": 415,
          "midi": 64,
          "name": "E4",
          "ticks": 138783,
          "time": 215.13998200000003,
          "velocity": 0.4409448818897638
        },
        {
          "duration": 0.731250000000017,
          "durationTicks": 351,
          "midi": 67,
          "name": "G4",
          "ticks": 138847,
          "time": 215.27331533333336,
          "velocity": 0.4409448818897638
        },
        {
          "duration": 0.5979166666666629,
          "durationTicks": 287,
          "midi": 71,
          "name": "B4",
          "ticks": 138912,
          "time": 215.40873200000004,
          "velocity": 0.4409448818897638
        },
        {
          "duration": 0.9979166666666686,
          "durationTicks": 479,
          "midi": 62,
          "name": "D4",
          "ticks": 139200,
          "time": 216.00873200000004,
          "velocity": 0.4566929133858268
        },
        {
          "duration": 0.8645833333333428,
          "durationTicks": 415,
          "midi": 64,
          "name": "E4",
          "ticks": 139263,
          "time": 216.13998200000003,
          "velocity": 0.4566929133858268
        },
        {
          "duration": 0.731250000000017,
          "durationTicks": 351,
          "midi": 67,
          "name": "G4",
          "ticks": 139327,
          "time": 216.27331533333336,
          "velocity": 0.4566929133858268
        },
        {
          "duration": 0.5979166666666629,
          "durationTicks": 287,
          "midi": 71,
          "name": "B4",
          "ticks": 139392,
          "time": 216.40873200000004,
          "velocity": 0.4566929133858268
        },
        {
          "duration": 0.9979166666666686,
          "durationTicks": 479,
          "midi": 62,
          "name": "D4",
          "ticks": 139680,
          "time": 217.00873200000004,
          "velocity": 0.47244094488188976
        },
        {
          "duration": 0.8645833333333428,
          "durationTicks": 415,
          "midi": 64,
          "name": "E4",
          "ticks": 139743,
          "time": 217.13998200000003,
          "velocity": 0.47244094488188976
        },
        {
          "duration": 0.731250000000017,
          "durationTicks": 351,
          "midi": 67,
          "name": "G4",
          "ticks": 139807,
          "time": 217.27331533333336,
          "velocity": 0.47244094488188976
        },
        {
          "duration": 0.5979166666666629,
          "durationTicks": 287,
          "midi": 71,
          "name": "B4",
          "ticks": 139872,
          "time": 217.40873200000004,
          "velocity": 0.47244094488188976
        },
        {
          "duration": 0.9979166666666686,
          "durationTicks": 479,
          "midi": 57,
          "name": "A3",
          "ticks": 140160,
          "time": 218.00873200000004,
          "velocity": 0.49606299212598426
        },
        {
          "duration": 0.8645833333333428,
          "durationTicks": 415,
          "midi": 62,
          "name": "D4",
          "ticks": 140223,
          "time": 218.13998200000003,
          "velocity": 0.49606299212598426
        },
        {
          "duration": 0.731250000000017,
          "durationTicks": 351,
          "midi": 69,
          "name": "A4",
          "ticks": 140287,
          "time": 218.27331533333336,
          "velocity": 0.49606299212598426
        },
        {
          "duration": 0.9979166666666686,
          "durationTicks": 479,
          "midi": 57,
          "name": "A3",
          "ticks": 140640,
          "time": 219.00873200000004,
          "velocity": 0.49606299212598426
        },
        {
          "duration": 0.8645833333333428,
          "durationTicks": 415,
          "midi": 66,
          "name": "F#4",
          "ticks": 140703,
          "time": 219.13998200000003,
          "velocity": 0.49606299212598426
        },
        {
          "duration": 0.731250000000017,
          "durationTicks": 351,
          "midi": 69,
          "name": "A4",
          "ticks": 140767,
          "time": 219.27331533333336,
          "velocity": 0.49606299212598426
        },
        {
          "duration": 0.9979166666666686,
          "durationTicks": 479,
          "midi": 57,
          "name": "A3",
          "ticks": 141120,
          "time": 220.00873200000004,
          "velocity": 0.49606299212598426
        },
        {
          "duration": 0.8645833333333428,
          "durationTicks": 415,
          "midi": 64,
          "name": "E4",
          "ticks": 141183,
          "time": 220.13998200000003,
          "velocity": 0.49606299212598426
        },
        {
          "duration": 0.731250000000017,
          "durationTicks": 351,
          "midi": 67,
          "name": "G4",
          "ticks": 141247,
          "time": 220.27331533333336,
          "velocity": 0.49606299212598426
        },
        {
          "duration": 0.9479166666666572,
          "durationTicks": 455,
          "midi": 57,
          "name": "A3",
          "ticks": 141600,
          "time": 221.00873200000004,
          "velocity": 0.49606299212598426
        },
        {
          "duration": 0.9479166666666572,
          "durationTicks": 455,
          "midi": 64,
          "name": "E4",
          "ticks": 141600,
          "time": 221.00873200000004,
          "velocity": 0.49606299212598426
        },
        {
          "duration": 0.9479166666666572,
          "durationTicks": 455,
          "midi": 50,
          "name": "D3",
          "ticks": 142080,
          "time": 222.00873200000004,
          "velocity": 0.49606299212598426
        },
        {
          "duration": 0.9479166666666572,
          "durationTicks": 455,
          "midi": 57,
          "name": "A3",
          "ticks": 142080,
          "time": 222.00873200000004,
          "velocity": 0.49606299212598426
        },
        {
          "duration": 0.9479166666666572,
          "durationTicks": 455,
          "midi": 64,
          "name": "E4",
          "ticks": 142080,
          "time": 222.00873200000004,
          "velocity": 0.49606299212598426
        },
        {
          "duration": 0.4729166666666629,
          "durationTicks": 227,
          "midi": 45,
          "name": "A2",
          "ticks": 142800,
          "time": 223.50873200000004,
          "velocity": 0.49606299212598426
        },
        {
          "duration": 0.4729166666666629,
          "durationTicks": 227,
          "midi": 57,
          "name": "A3",
          "ticks": 142800,
          "time": 223.50873200000004,
          "velocity": 0.49606299212598426
        },
        {
          "duration": 1.8979166666666742,
          "durationTicks": 911,
          "midi": 38,
          "name": "D2",
          "ticks": 143040,
          "time": 224.00873200000004,
          "velocity": 0.49606299212598426
        },
        {
          "duration": 1.8979166666666742,
          "durationTicks": 911,
          "midi": 50,
          "name": "D3",
          "ticks": 143040,
          "time": 224.00873200000004,
          "velocity": 0.49606299212598426
        },
        {
          "duration": 0.2026788416666534,
          "durationTicks": 227,
          "midi": 52,
          "name": "E3",
          "ticks": 144000,
          "time": 226.00873200000004,
          "velocity": 0.49606299212598426
        },
        {
          "duration": 0.20267884166668182,
          "durationTicks": 227,
          "midi": 55,
          "name": "G3",
          "ticks": 144240,
          "time": 226.22301800000002,
          "velocity": 0.49606299212598426
        },
        {
          "duration": 0.20267884166668182,
          "durationTicks": 227,
          "midi": 58,
          "name": "A#3",
          "ticks": 144240,
          "time": 226.22301800000002,
          "velocity": 0.49606299212598426
        },
        {
          "duration": 0.20267884166668182,
          "durationTicks": 227,
          "midi": 60,
          "name": "C4",
          "ticks": 144240,
          "time": 226.22301800000002,
          "velocity": 0.49606299212598426
        },
        {
          "duration": 0.2026788416666534,
          "durationTicks": 227,
          "midi": 48,
          "name": "C3",
          "ticks": 144480,
          "time": 226.43730400000004,
          "velocity": 0.49606299212598426
        },
        {
          "duration": 0.20267884166668182,
          "durationTicks": 227,
          "midi": 55,
          "name": "G3",
          "ticks": 144720,
          "time": 226.65159000000003,
          "velocity": 0.49606299212598426
        },
        {
          "duration": 0.20267884166668182,
          "durationTicks": 227,
          "midi": 58,
          "name": "A#3",
          "ticks": 144720,
          "time": 226.65159000000003,
          "velocity": 0.49606299212598426
        },
        {
          "duration": 0.20267884166668182,
          "durationTicks": 227,
          "midi": 60,
          "name": "C4",
          "ticks": 144720,
          "time": 226.65159000000003,
          "velocity": 0.49606299212598426
        },
        {
          "duration": 0.2026788416666534,
          "durationTicks": 227,
          "midi": 52,
          "name": "E3",
          "ticks": 144960,
          "time": 226.86587600000004,
          "velocity": 0.49606299212598426
        },
        {
          "duration": 0.20267884166668182,
          "durationTicks": 227,
          "midi": 55,
          "name": "G3",
          "ticks": 145200,
          "time": 227.08016200000003,
          "velocity": 0.49606299212598426
        },
        {
          "duration": 0.20267884166668182,
          "durationTicks": 227,
          "midi": 58,
          "name": "A#3",
          "ticks": 145200,
          "time": 227.08016200000003,
          "velocity": 0.49606299212598426
        },
        {
          "duration": 0.20267884166668182,
          "durationTicks": 227,
          "midi": 60,
          "name": "C4",
          "ticks": 145200,
          "time": 227.08016200000003,
          "velocity": 0.49606299212598426
        },
        {
          "duration": 0.2026788416666534,
          "durationTicks": 227,
          "midi": 48,
          "name": "C3",
          "ticks": 145440,
          "time": 227.29444800000005,
          "velocity": 0.49606299212598426
        },
        {
          "duration": 0.20267884166668182,
          "durationTicks": 227,
          "midi": 55,
          "name": "G3",
          "ticks": 145680,
          "time": 227.50873400000003,
          "velocity": 0.49606299212598426
        },
        {
          "duration": 0.20267884166668182,
          "durationTicks": 227,
          "midi": 58,
          "name": "A#3",
          "ticks": 145680,
          "time": 227.50873400000003,
          "velocity": 0.49606299212598426
        },
        {
          "duration": 0.20267884166668182,
          "durationTicks": 227,
          "midi": 60,
          "name": "C4",
          "ticks": 145680,
          "time": 227.50873400000003,
          "velocity": 0.49606299212598426
        },
        {
          "duration": 0.2026788416666534,
          "durationTicks": 227,
          "midi": 53,
          "name": "F3",
          "ticks": 145920,
          "time": 227.72302000000005,
          "velocity": 0.49606299212598426
        },
        {
          "duration": 0.20267884166668182,
          "durationTicks": 227,
          "midi": 57,
          "name": "A3",
          "ticks": 146160,
          "time": 227.93730600000004,
          "velocity": 0.49606299212598426
        },
        {
          "duration": 0.20267884166668182,
          "durationTicks": 227,
          "midi": 60,
          "name": "C4",
          "ticks": 146160,
          "time": 227.93730600000004,
          "velocity": 0.49606299212598426
        },
        {
          "duration": 0.2026788416666534,
          "durationTicks": 227,
          "midi": 48,
          "name": "C3",
          "ticks": 146400,
          "time": 228.15159200000005,
          "velocity": 0.49606299212598426
        },
        {
          "duration": 0.2026788416666534,
          "durationTicks": 227,
          "midi": 53,
          "name": "F3",
          "ticks": 146640,
          "time": 228.36587800000004,
          "velocity": 0.49606299212598426
        },
        {
          "duration": 0.2026788416666534,
          "durationTicks": 227,
          "midi": 57,
          "name": "A3",
          "ticks": 146640,
          "time": 228.36587800000004,
          "velocity": 0.49606299212598426
        },
        {
          "duration": 0.2026788416666534,
          "durationTicks": 227,
          "midi": 60,
          "name": "C4",
          "ticks": 146640,
          "time": 228.36587800000004,
          "velocity": 0.49606299212598426
        },
        {
          "duration": 0.20267884166668182,
          "durationTicks": 227,
          "midi": 45,
          "name": "A2",
          "ticks": 146880,
          "time": 228.58016400000002,
          "velocity": 0.49606299212598426
        },
        {
          "duration": 0.2026788416666534,
          "durationTicks": 227,
          "midi": 53,
          "name": "F3",
          "ticks": 147120,
          "time": 228.79445000000004,
          "velocity": 0.49606299212598426
        },
        {
          "duration": 0.2026788416666534,
          "durationTicks": 227,
          "midi": 57,
          "name": "A3",
          "ticks": 147120,
          "time": 228.79445000000004,
          "velocity": 0.49606299212598426
        },
        {
          "duration": 0.2026788416666534,
          "durationTicks": 227,
          "midi": 60,
          "name": "C4",
          "ticks": 147120,
          "time": 228.79445000000004,
          "velocity": 0.49606299212598426
        },
        {
          "duration": 0.20267884166668182,
          "durationTicks": 227,
          "midi": 41,
          "name": "F2",
          "ticks": 147360,
          "time": 229.00873600000003,
          "velocity": 0.49606299212598426
        },
        {
          "duration": 0.2026788416666534,
          "durationTicks": 227,
          "midi": 53,
          "name": "F3",
          "ticks": 147600,
          "time": 229.22302200000004,
          "velocity": 0.49606299212598426
        },
        {
          "duration": 0.2026788416666534,
          "durationTicks": 227,
          "midi": 57,
          "name": "A3",
          "ticks": 147600,
          "time": 229.22302200000004,
          "velocity": 0.49606299212598426
        },
        {
          "duration": 0.2026788416666534,
          "durationTicks": 227,
          "midi": 60,
          "name": "C4",
          "ticks": 147600,
          "time": 229.22302200000004,
          "velocity": 0.49606299212598426
        },
        {
          "duration": 0.20267884166668182,
          "durationTicks": 227,
          "midi": 49,
          "name": "C#3",
          "ticks": 147840,
          "time": 229.43730800000003,
          "velocity": 0.49606299212598426
        },
        {
          "duration": 0.2026788416666534,
          "durationTicks": 227,
          "midi": 52,
          "name": "E3",
          "ticks": 148080,
          "time": 229.65159400000005,
          "velocity": 0.49606299212598426
        },
        {
          "duration": 0.2026788416666534,
          "durationTicks": 227,
          "midi": 55,
          "name": "G3",
          "ticks": 148080,
          "time": 229.65159400000005,
          "velocity": 0.49606299212598426
        },
        {
          "duration": 0.2026788416666534,
          "durationTicks": 227,
          "midi": 57,
          "name": "A3",
          "ticks": 148080,
          "time": 229.65159400000005,
          "velocity": 0.49606299212598426
        },
        {
          "duration": 0.20267884166668182,
          "durationTicks": 227,
          "midi": 45,
          "name": "A2",
          "ticks": 148320,
          "time": 229.86588000000003,
          "velocity": 0.49606299212598426
        },
        {
          "duration": 0.2026788416666534,
          "durationTicks": 227,
          "midi": 52,
          "name": "E3",
          "ticks": 148560,
          "time": 230.08016600000005,
          "velocity": 0.49606299212598426
        },
        {
          "duration": 0.2026788416666534,
          "durationTicks": 227,
          "midi": 55,
          "name": "G3",
          "ticks": 148560,
          "time": 230.08016600000005,
          "velocity": 0.49606299212598426
        },
        {
          "duration": 0.2026788416666534,
          "durationTicks": 227,
          "midi": 57,
          "name": "A3",
          "ticks": 148560,
          "time": 230.08016600000005,
          "velocity": 0.49606299212598426
        },
        {
          "duration": 0.20267884166668182,
          "durationTicks": 227,
          "midi": 49,
          "name": "C#3",
          "ticks": 148800,
          "time": 230.29445200000004,
          "velocity": 0.49606299212598426
        },
        {
          "duration": 0.2026788416666534,
          "durationTicks": 227,
          "midi": 52,
          "name": "E3",
          "ticks": 149040,
          "time": 230.50873800000005,
          "velocity": 0.5118110236220472
        },
        {
          "duration": 0.2026788416666534,
          "durationTicks": 227,
          "midi": 55,
          "name": "G3",
          "ticks": 149040,
          "time": 230.50873800000005,
          "velocity": 0.5118110236220472
        },
        {
          "duration": 0.2026788416666534,
          "durationTicks": 227,
          "midi": 57,
          "name": "A3",
          "ticks": 149040,
          "time": 230.50873800000005,
          "velocity": 0.5118110236220472
        },
        {
          "duration": 0.2026788416666534,
          "durationTicks": 227,
          "midi": 45,
          "name": "A2",
          "ticks": 149280,
          "time": 230.72302400000004,
          "velocity": 0.5275590551181102
        },
        {
          "duration": 0.20267884166668182,
          "durationTicks": 227,
          "midi": 52,
          "name": "E3",
          "ticks": 149520,
          "time": 230.93731000000002,
          "velocity": 0.5433070866141733
        },
        {
          "duration": 0.20267884166668182,
          "durationTicks": 227,
          "midi": 55,
          "name": "G3",
          "ticks": 149520,
          "time": 230.93731000000002,
          "velocity": 0.5433070866141733
        },
        {
          "duration": 0.20267884166668182,
          "durationTicks": 227,
          "midi": 57,
          "name": "A3",
          "ticks": 149520,
          "time": 230.93731000000002,
          "velocity": 0.5433070866141733
        },
        {
          "duration": 0.2026788416666534,
          "durationTicks": 227,
          "midi": 50,
          "name": "D3",
          "ticks": 149760,
          "time": 231.15159600000004,
          "velocity": 0.5590551181102362
        },
        {
          "duration": 0.20267884166668182,
          "durationTicks": 227,
          "midi": 53,
          "name": "F3",
          "ticks": 150000,
          "time": 231.36588200000003,
          "velocity": 0.5826771653543307
        },
        {
          "duration": 0.20267884166668182,
          "durationTicks": 227,
          "midi": 57,
          "name": "A3",
          "ticks": 150000,
          "time": 231.36588200000003,
          "velocity": 0.5826771653543307
        },
        {
          "duration": 0.2026788416666534,
          "durationTicks": 227,
          "midi": 45,
          "name": "A2",
          "ticks": 150240,
          "time": 231.58016800000004,
          "velocity": 0.5984251968503937
        },
        {
          "duration": 0.20267884166668182,
          "durationTicks": 227,
          "midi": 53,
          "name": "F3",
          "ticks": 150480,
          "time": 231.79445400000003,
          "velocity": 0.6141732283464567
        },
        {
          "duration": 0.20267884166668182,
          "durationTicks": 227,
          "midi": 57,
          "name": "A3",
          "ticks": 150480,
          "time": 231.79445400000003,
          "velocity": 0.6141732283464567
        },
        {
          "duration": 0.2026788416666534,
          "durationTicks": 227,
          "midi": 50,
          "name": "D3",
          "ticks": 150720,
          "time": 232.00874000000005,
          "velocity": 0.6299212598425197
        },
        {
          "duration": 0.20267884166668182,
          "durationTicks": 227,
          "midi": 53,
          "name": "F3",
          "ticks": 150960,
          "time": 232.22302600000003,
          "velocity": 0.6456692913385826
        },
        {
          "duration": 0.20267884166668182,
          "durationTicks": 227,
          "midi": 57,
          "name": "A3",
          "ticks": 150960,
          "time": 232.22302600000003,
          "velocity": 0.6456692913385826
        },
        {
          "duration": 0.2026788416666534,
          "durationTicks": 227,
          "midi": 45,
          "name": "A2",
          "ticks": 151200,
          "time": 232.43731200000005,
          "velocity": 0.6692913385826772
        },
        {
          "duration": 0.20267884166668182,
          "durationTicks": 227,
          "midi": 53,
          "name": "F3",
          "ticks": 151440,
          "time": 232.65159800000004,
          "velocity": 0.6692913385826772
        },
        {
          "duration": 0.20267884166668182,
          "durationTicks": 227,
          "midi": 57,
          "name": "A3",
          "ticks": 151440,
          "time": 232.65159800000004,
          "velocity": 0.6692913385826772
        },
        {
          "duration": 0.20267884166668182,
          "durationTicks": 227,
          "midi": 62,
          "name": "D4",
          "ticks": 151440,
          "time": 232.65159800000004,
          "velocity": 0.6692913385826772
        },
        {
          "duration": 0.2026788416666534,
          "durationTicks": 227,
          "midi": 43,
          "name": "G2",
          "ticks": 151680,
          "time": 232.86588400000005,
          "velocity": 0.6692913385826772
        },
        {
          "duration": 0.2026788416666534,
          "durationTicks": 227,
          "midi": 58,
          "name": "A#3",
          "ticks": 151920,
          "time": 233.08017000000004,
          "velocity": 0.6692913385826772
        },
        {
          "duration": 0.2026788416666534,
          "durationTicks": 227,
          "midi": 62,
          "name": "D4",
          "ticks": 151920,
          "time": 233.08017000000004,
          "velocity": 0.6692913385826772
        },
        {
          "duration": 0.2026788416666534,
          "durationTicks": 227,
          "midi": 64,
          "name": "E4",
          "ticks": 151920,
          "time": 233.08017000000004,
          "velocity": 0.6692913385826772
        },
        {
          "duration": 0.20267884166668182,
          "durationTicks": 227,
          "midi": 52,
          "name": "E3",
          "ticks": 152160,
          "time": 233.29445600000003,
          "velocity": 0.6692913385826772
        },
        {
          "duration": 0.2026788416666534,
          "durationTicks": 227,
          "midi": 58,
          "name": "A#3",
          "ticks": 152400,
          "time": 233.50874200000004,
          "velocity": 0.6692913385826772
        },
        {
          "duration": 0.2026788416666534,
          "durationTicks": 227,
          "midi": 62,
          "name": "D4",
          "ticks": 152400,
          "time": 233.50874200000004,
          "velocity": 0.6692913385826772
        },
        {
          "duration": 0.2026788416666534,
          "durationTicks": 227,
          "midi": 64,
          "name": "E4",
          "ticks": 152400,
          "time": 233.50874200000004,
          "velocity": 0.6692913385826772
        },
        {
          "duration": 0.20267884166668182,
          "durationTicks": 227,
          "midi": 55,
          "name": "G3",
          "ticks": 152640,
          "time": 233.72302800000003,
          "velocity": 0.6692913385826772
        },
        {
          "duration": 0.2026788416666534,
          "durationTicks": 227,
          "midi": 58,
          "name": "A#3",
          "ticks": 152880,
          "time": 233.93731400000004,
          "velocity": 0.6692913385826772
        },
        {
          "duration": 0.2026788416666534,
          "durationTicks": 227,
          "midi": 62,
          "name": "D4",
          "ticks": 152880,
          "time": 233.93731400000004,
          "velocity": 0.6692913385826772
        },
        {
          "duration": 0.2026788416666534,
          "durationTicks": 227,
          "midi": 64,
          "name": "E4",
          "ticks": 152880,
          "time": 233.93731400000004,
          "velocity": 0.6692913385826772
        },
        {
          "duration": 0.20267884166668182,
          "durationTicks": 227,
          "midi": 43,
          "name": "G2",
          "ticks": 153120,
          "time": 234.15160000000003,
          "velocity": 0.6692913385826772
        },
        {
          "duration": 0.2026788416666534,
          "durationTicks": 227,
          "midi": 58,
          "name": "A#3",
          "ticks": 153360,
          "time": 234.36588600000005,
          "velocity": 0.6692913385826772
        },
        {
          "duration": 0.2026788416666534,
          "durationTicks": 227,
          "midi": 62,
          "name": "D4",
          "ticks": 153360,
          "time": 234.36588600000005,
          "velocity": 0.6692913385826772
        },
        {
          "duration": 0.2026788416666534,
          "durationTicks": 227,
          "midi": 64,
          "name": "E4",
          "ticks": 153360,
          "time": 234.36588600000005,
          "velocity": 0.6692913385826772
        },
        {
          "duration": 0.20267884166668182,
          "durationTicks": 227,
          "midi": 45,
          "name": "A2",
          "ticks": 153600,
          "time": 234.58017200000003,
          "velocity": 0.6692913385826772
        },
        {
          "duration": 0.2026788416666534,
          "durationTicks": 227,
          "midi": 53,
          "name": "F3",
          "ticks": 153840,
          "time": 234.79445800000005,
          "velocity": 0.6692913385826772
        },
        {
          "duration": 0.2026788416666534,
          "durationTicks": 227,
          "midi": 57,
          "name": "A3",
          "ticks": 153840,
          "time": 234.79445800000005,
          "velocity": 0.6692913385826772
        },
        {
          "duration": 0.2026788416666534,
          "durationTicks": 227,
          "midi": 62,
          "name": "D4",
          "ticks": 153840,
          "time": 234.79445800000005,
          "velocity": 0.6692913385826772
        },
        {
          "duration": 0.20267884166668182,
          "durationTicks": 227,
          "midi": 50,
          "name": "D3",
          "ticks": 154080,
          "time": 235.00874400000004,
          "velocity": 0.6692913385826772
        },
        {
          "duration": 0.2026788416666534,
          "durationTicks": 227,
          "midi": 53,
          "name": "F3",
          "ticks": 154320,
          "time": 235.22303000000005,
          "velocity": 0.6692913385826772
        },
        {
          "duration": 0.2026788416666534,
          "durationTicks": 227,
          "midi": 57,
          "name": "A3",
          "ticks": 154320,
          "time": 235.22303000000005,
          "velocity": 0.6692913385826772
        },
        {
          "duration": 0.2026788416666534,
          "durationTicks": 227,
          "midi": 62,
          "name": "D4",
          "ticks": 154320,
          "time": 235.22303000000005,
          "velocity": 0.6692913385826772
        },
        {
          "duration": 0.2026788416666534,
          "durationTicks": 227,
          "midi": 53,
          "name": "F3",
          "ticks": 154560,
          "time": 235.43731600000004,
          "velocity": 0.6692913385826772
        },
        {
          "duration": 0.20267884166668182,
          "durationTicks": 227,
          "midi": 57,
          "name": "A3",
          "ticks": 154800,
          "time": 235.65160200000003,
          "velocity": 0.6692913385826772
        },
        {
          "duration": 0.20267884166668182,
          "durationTicks": 227,
          "midi": 62,
          "name": "D4",
          "ticks": 154800,
          "time": 235.65160200000003,
          "velocity": 0.6692913385826772
        },
        {
          "duration": 0.2026788416666534,
          "durationTicks": 227,
          "midi": 45,
          "name": "A2",
          "ticks": 155040,
          "time": 235.86588800000004,
          "velocity": 0.6692913385826772
        },
        {
          "duration": 0.20267884166668182,
          "durationTicks": 227,
          "midi": 53,
          "name": "F3",
          "ticks": 155280,
          "time": 236.08017400000003,
          "velocity": 0.6692913385826772
        },
        {
          "duration": 0.20267884166668182,
          "durationTicks": 227,
          "midi": 57,
          "name": "A3",
          "ticks": 155280,
          "time": 236.08017400000003,
          "velocity": 0.6692913385826772
        },
        {
          "duration": 0.20267884166668182,
          "durationTicks": 227,
          "midi": 62,
          "name": "D4",
          "ticks": 155280,
          "time": 236.08017400000003,
          "velocity": 0.6692913385826772
        },
        {
          "duration": 0.2026788416666534,
          "durationTicks": 227,
          "midi": 49,
          "name": "C#3",
          "ticks": 155520,
          "time": 236.29446000000004,
          "velocity": 0.6692913385826772
        },
        {
          "duration": 0.20267884166668182,
          "durationTicks": 227,
          "midi": 55,
          "name": "G3",
          "ticks": 155760,
          "time": 236.50874600000003,
          "velocity": 0.6692913385826772
        },
        {
          "duration": 0.20267884166668182,
          "durationTicks": 227,
          "midi": 57,
          "name": "A3",
          "ticks": 155760,
          "time": 236.50874600000003,
          "velocity": 0.6692913385826772
        },
        {
          "duration": 0.2026788416666534,
          "durationTicks": 227,
          "midi": 45,
          "name": "A2",
          "ticks": 156000,
          "time": 236.72303200000005,
          "velocity": 0.6692913385826772
        },
        {
          "duration": 0.20267884166668182,
          "durationTicks": 227,
          "midi": 55,
          "name": "G3",
          "ticks": 156240,
          "time": 236.93731800000003,
          "velocity": 0.6692913385826772
        },
        {
          "duration": 0.20267884166668182,
          "durationTicks": 227,
          "midi": 57,
          "name": "A3",
          "ticks": 156240,
          "time": 236.93731800000003,
          "velocity": 0.6692913385826772
        },
        {
          "duration": 0.20267884166668182,
          "durationTicks": 227,
          "midi": 61,
          "name": "C#4",
          "ticks": 156240,
          "time": 236.93731800000003,
          "velocity": 0.6692913385826772
        },
        {
          "duration": 0.2026788416666534,
          "durationTicks": 227,
          "midi": 52,
          "name": "E3",
          "ticks": 156480,
          "time": 237.15160400000005,
          "velocity": 0.6692913385826772
        },
        {
          "duration": 0.20267884166668182,
          "durationTicks": 227,
          "midi": 55,
          "name": "G3",
          "ticks": 156720,
          "time": 237.36589000000004,
          "velocity": 0.6692913385826772
        },
        {
          "duration": 0.20267884166668182,
          "durationTicks": 227,
          "midi": 57,
          "name": "A3",
          "ticks": 156720,
          "time": 237.36589000000004,
          "velocity": 0.6692913385826772
        },
        {
          "duration": 0.20267884166668182,
          "durationTicks": 227,
          "midi": 61,
          "name": "C#4",
          "ticks": 156720,
          "time": 237.36589000000004,
          "velocity": 0.6692913385826772
        },
        {
          "duration": 0.2026788416666534,
          "durationTicks": 227,
          "midi": 45,
          "name": "A2",
          "ticks": 156960,
          "time": 237.58017600000005,
          "velocity": 0.6692913385826772
        },
        {
          "duration": 0.2026788416666534,
          "durationTicks": 227,
          "midi": 55,
          "name": "G3",
          "ticks": 157200,
          "time": 237.79446200000004,
          "velocity": 0.6692913385826772
        },
        {
          "duration": 0.2026788416666534,
          "durationTicks": 227,
          "midi": 57,
          "name": "A3",
          "ticks": 157200,
          "time": 237.79446200000004,
          "velocity": 0.6692913385826772
        },
        {
          "duration": 0.2026788416666534,
          "durationTicks": 227,
          "midi": 64,
          "name": "E4",
          "ticks": 157200,
          "time": 237.79446200000004,
          "velocity": 0.6692913385826772
        },
        {
          "duration": 0.2579552333333197,
          "durationTicks": 227,
          "midi": 50,
          "name": "D3",
          "ticks": 157440,
          "time": 238.00874800000003,
          "velocity": 0.6692913385826772
        },
        {
          "duration": 0.2579552333333197,
          "durationTicks": 227,
          "midi": 54,
          "name": "F#3",
          "ticks": 157680,
          "time": 238.28147600000003,
          "velocity": 0.6692913385826772
        },
        {
          "duration": 0.2579552333333197,
          "durationTicks": 227,
          "midi": 57,
          "name": "A3",
          "ticks": 157680,
          "time": 238.28147600000003,
          "velocity": 0.6692913385826772
        },
        {
          "duration": 0.2579552333333197,
          "durationTicks": 227,
          "midi": 62,
          "name": "D4",
          "ticks": 157680,
          "time": 238.28147600000003,
          "velocity": 0.6692913385826772
        },
        {
          "duration": 0.2579552333333197,
          "durationTicks": 227,
          "midi": 45,
          "name": "A2",
          "ticks": 157920,
          "time": 238.55420400000003,
          "velocity": 0.6692913385826772
        },
        {
          "duration": 0.2579552333333197,
          "durationTicks": 227,
          "midi": 54,
          "name": "F#3",
          "ticks": 158160,
          "time": 238.82693200000003,
          "velocity": 0.6692913385826772
        },
        {
          "duration": 0.2579552333333197,
          "durationTicks": 227,
          "midi": 57,
          "name": "A3",
          "ticks": 158160,
          "time": 238.82693200000003,
          "velocity": 0.6692913385826772
        },
        {
          "duration": 0.2579552333333197,
          "durationTicks": 227,
          "midi": 62,
          "name": "D4",
          "ticks": 158160,
          "time": 238.82693200000003,
          "velocity": 0.6692913385826772
        },
        {
          "duration": 0.2579552333333197,
          "durationTicks": 227,
          "midi": 50,
          "name": "D3",
          "ticks": 158400,
          "time": 239.09966000000003,
          "velocity": 0.6692913385826772
        },
        {
          "duration": 0.2579552333333197,
          "durationTicks": 227,
          "midi": 54,
          "name": "F#3",
          "ticks": 158640,
          "time": 239.37238800000003,
          "velocity": 0.6692913385826772
        },
        {
          "duration": 0.2579552333333197,
          "durationTicks": 227,
          "midi": 57,
          "name": "A3",
          "ticks": 158640,
          "time": 239.37238800000003,
          "velocity": 0.6692913385826772
        },
        {
          "duration": 0.2579552333333197,
          "durationTicks": 227,
          "midi": 62,
          "name": "D4",
          "ticks": 158640,
          "time": 239.37238800000003,
          "velocity": 0.6692913385826772
        },
        {
          "duration": 0.2579552333333197,
          "durationTicks": 227,
          "midi": 45,
          "name": "A2",
          "ticks": 158880,
          "time": 239.64511600000003,
          "velocity": 0.6692913385826772
        },
        {
          "duration": 0.2579552333333197,
          "durationTicks": 227,
          "midi": 54,
          "name": "F#3",
          "ticks": 159120,
          "time": 239.91784400000003,
          "velocity": 0.6692913385826772
        },
        {
          "duration": 0.2579552333333197,
          "durationTicks": 227,
          "midi": 57,
          "name": "A3",
          "ticks": 159120,
          "time": 239.91784400000003,
          "velocity": 0.6692913385826772
        },
        {
          "duration": 0.2579552333333197,
          "durationTicks": 227,
          "midi": 62,
          "name": "D4",
          "ticks": 159120,
          "time": 239.91784400000003,
          "velocity": 0.6692913385826772
        },
        {
          "duration": 0.2579552333333197,
          "durationTicks": 227,
          "midi": 50,
          "name": "D3",
          "ticks": 159360,
          "time": 240.19057200000003,
          "velocity": 0.6692913385826772
        },
        {
          "duration": 0.2579552333333197,
          "durationTicks": 227,
          "midi": 54,
          "name": "F#3",
          "ticks": 159600,
          "time": 240.46330000000003,
          "velocity": 0.6692913385826772
        },
        {
          "duration": 0.2579552333333197,
          "durationTicks": 227,
          "midi": 57,
          "name": "A3",
          "ticks": 159600,
          "time": 240.46330000000003,
          "velocity": 0.6692913385826772
        },
        {
          "duration": 0.2579552333333197,
          "durationTicks": 227,
          "midi": 62,
          "name": "D4",
          "ticks": 159600,
          "time": 240.46330000000003,
          "velocity": 0.6692913385826772
        },
        {
          "duration": 0.2579552333333197,
          "durationTicks": 227,
          "midi": 45,
          "name": "A2",
          "ticks": 159840,
          "time": 240.73602800000003,
          "velocity": 0.6692913385826772
        },
        {
          "duration": 0.2579552333333197,
          "durationTicks": 227,
          "midi": 54,
          "name": "F#3",
          "ticks": 160080,
          "time": 241.00875600000003,
          "velocity": 0.6692913385826772
        },
        {
          "duration": 0.2579552333333197,
          "durationTicks": 227,
          "midi": 57,
          "name": "A3",
          "ticks": 160080,
          "time": 241.00875600000003,
          "velocity": 0.6692913385826772
        },
        {
          "duration": 0.2579552333333197,
          "durationTicks": 227,
          "midi": 62,
          "name": "D4",
          "ticks": 160080,
          "time": 241.00875600000003,
          "velocity": 0.6692913385826772
        },
        {
          "duration": 0.2579552333333197,
          "durationTicks": 227,
          "midi": 50,
          "name": "D3",
          "ticks": 160320,
          "time": 241.28148400000003,
          "velocity": 0.6692913385826772
        },
        {
          "duration": 0.2579552333333197,
          "durationTicks": 227,
          "midi": 54,
          "name": "F#3",
          "ticks": 160560,
          "time": 241.55421200000004,
          "velocity": 0.6692913385826772
        },
        {
          "duration": 0.2579552333333197,
          "durationTicks": 227,
          "midi": 57,
          "name": "A3",
          "ticks": 160560,
          "time": 241.55421200000004,
          "velocity": 0.6692913385826772
        },
        {
          "duration": 0.2579552333333197,
          "durationTicks": 227,
          "midi": 62,
          "name": "D4",
          "ticks": 160560,
          "time": 241.55421200000004,
          "velocity": 0.6692913385826772
        },
        {
          "duration": 0.2579552333333197,
          "durationTicks": 227,
          "midi": 45,
          "name": "A2",
          "ticks": 160800,
          "time": 241.82694000000004,
          "velocity": 0.6692913385826772
        },
        {
          "duration": 0.2579552333333197,
          "durationTicks": 227,
          "midi": 54,
          "name": "F#3",
          "ticks": 161040,
          "time": 242.09966800000004,
          "velocity": 0.6692913385826772
        },
        {
          "duration": 0.2579552333333197,
          "durationTicks": 227,
          "midi": 57,
          "name": "A3",
          "ticks": 161040,
          "time": 242.09966800000004,
          "velocity": 0.6692913385826772
        },
        {
          "duration": 0.2579552333333197,
          "durationTicks": 227,
          "midi": 62,
          "name": "D4",
          "ticks": 161040,
          "time": 242.09966800000004,
          "velocity": 0.6692913385826772
        },
        {
          "duration": 0.2579552333333197,
          "durationTicks": 227,
          "midi": 50,
          "name": "D3",
          "ticks": 161280,
          "time": 242.37239600000004,
          "velocity": 0.6692913385826772
        },
        {
          "duration": 0.2579552333333197,
          "durationTicks": 227,
          "midi": 54,
          "name": "F#3",
          "ticks": 161520,
          "time": 242.64512400000004,
          "velocity": 0.6692913385826772
        },
        {
          "duration": 0.2579552333333197,
          "durationTicks": 227,
          "midi": 57,
          "name": "A3",
          "ticks": 161520,
          "time": 242.64512400000004,
          "velocity": 0.6692913385826772
        },
        {
          "duration": 0.2579552333333197,
          "durationTicks": 227,
          "midi": 62,
          "name": "D4",
          "ticks": 161520,
          "time": 242.64512400000004,
          "velocity": 0.6692913385826772
        },
        {
          "duration": 0.2579552333333197,
          "durationTicks": 227,
          "midi": 45,
          "name": "A2",
          "ticks": 161760,
          "time": 242.91785200000004,
          "velocity": 0.6692913385826772
        },
        {
          "duration": 0.25795523333334813,
          "durationTicks": 227,
          "midi": 54,
          "name": "F#3",
          "ticks": 162000,
          "time": 243.19058,
          "velocity": 0.6692913385826772
        },
        {
          "duration": 0.25795523333334813,
          "durationTicks": 227,
          "midi": 57,
          "name": "A3",
          "ticks": 162000,
          "time": 243.19058,
          "velocity": 0.6692913385826772
        },
        {
          "duration": 0.25795523333334813,
          "durationTicks": 227,
          "midi": 62,
          "name": "D4",
          "ticks": 162000,
          "time": 243.19058,
          "velocity": 0.6692913385826772
        },
        {
          "duration": 0.25795523333334813,
          "durationTicks": 227,
          "midi": 50,
          "name": "D3",
          "ticks": 162240,
          "time": 243.463308,
          "velocity": 0.6692913385826772
        },
        {
          "duration": 0.25795523333334813,
          "durationTicks": 227,
          "midi": 54,
          "name": "F#3",
          "ticks": 162480,
          "time": 243.736036,
          "velocity": 0.6692913385826772
        },
        {
          "duration": 0.25795523333334813,
          "durationTicks": 227,
          "midi": 57,
          "name": "A3",
          "ticks": 162480,
          "time": 243.736036,
          "velocity": 0.6692913385826772
        },
        {
          "duration": 0.25795523333334813,
          "durationTicks": 227,
          "midi": 62,
          "name": "D4",
          "ticks": 162480,
          "time": 243.736036,
          "velocity": 0.6692913385826772
        },
        {
          "duration": 0.25795523333334813,
          "durationTicks": 227,
          "midi": 45,
          "name": "A2",
          "ticks": 162720,
          "time": 244.008764,
          "velocity": 0.6692913385826772
        },
        {
          "duration": 0.25795523333334813,
          "durationTicks": 227,
          "midi": 54,
          "name": "F#3",
          "ticks": 162960,
          "time": 244.28149200000001,
          "velocity": 0.6692913385826772
        },
        {
          "duration": 0.25795523333334813,
          "durationTicks": 227,
          "midi": 57,
          "name": "A3",
          "ticks": 162960,
          "time": 244.28149200000001,
          "velocity": 0.6692913385826772
        },
        {
          "duration": 0.25795523333334813,
          "durationTicks": 227,
          "midi": 62,
          "name": "D4",
          "ticks": 162960,
          "time": 244.28149200000001,
          "velocity": 0.6692913385826772
        },
        {
          "duration": 0.2026788416666534,
          "durationTicks": 227,
          "midi": 50,
          "name": "D3",
          "ticks": 163200,
          "time": 244.55422000000002,
          "velocity": 0.6692913385826772
        },
        {
          "duration": 0.20267884166668182,
          "durationTicks": 227,
          "midi": 54,
          "name": "F#3",
          "ticks": 163440,
          "time": 244.768506,
          "velocity": 0.6692913385826772
        },
        {
          "duration": 0.20267884166668182,
          "durationTicks": 227,
          "midi": 57,
          "name": "A3",
          "ticks": 163440,
          "time": 244.768506,
          "velocity": 0.6692913385826772
        },
        {
          "duration": 0.20267884166668182,
          "durationTicks": 227,
          "midi": 62,
          "name": "D4",
          "ticks": 163440,
          "time": 244.768506,
          "velocity": 0.6692913385826772
        },
        {
          "duration": 0.2026788416666534,
          "durationTicks": 227,
          "midi": 45,
          "name": "A2",
          "ticks": 163680,
          "time": 244.98279200000002,
          "velocity": 0.6692913385826772
        },
        {
          "duration": 0.20267884166668182,
          "durationTicks": 227,
          "midi": 54,
          "name": "F#3",
          "ticks": 163920,
          "time": 245.197078,
          "velocity": 0.6692913385826772
        },
        {
          "duration": 0.20267884166668182,
          "durationTicks": 227,
          "midi": 57,
          "name": "A3",
          "ticks": 163920,
          "time": 245.197078,
          "velocity": 0.6692913385826772
        },
        {
          "duration": 0.20267884166668182,
          "durationTicks": 227,
          "midi": 62,
          "name": "D4",
          "ticks": 163920,
          "time": 245.197078,
          "velocity": 0.6692913385826772
        },
        {
          "duration": 0.2026788416666534,
          "durationTicks": 227,
          "midi": 50,
          "name": "D3",
          "ticks": 164160,
          "time": 245.41136400000002,
          "velocity": 0.6692913385826772
        },
        {
          "duration": 0.20267884166668182,
          "durationTicks": 227,
          "midi": 54,
          "name": "F#3",
          "ticks": 164400,
          "time": 245.62565,
          "velocity": 0.6692913385826772
        },
        {
          "duration": 0.20267884166668182,
          "durationTicks": 227,
          "midi": 57,
          "name": "A3",
          "ticks": 164400,
          "time": 245.62565,
          "velocity": 0.6692913385826772
        },
        {
          "duration": 0.20267884166668182,
          "durationTicks": 227,
          "midi": 62,
          "name": "D4",
          "ticks": 164400,
          "time": 245.62565,
          "velocity": 0.6692913385826772
        },
        {
          "duration": 0.2026788416666534,
          "durationTicks": 227,
          "midi": 45,
          "name": "A2",
          "ticks": 164640,
          "time": 245.83993600000002,
          "velocity": 0.6692913385826772
        },
        {
          "duration": 0.20267884166668182,
          "durationTicks": 227,
          "midi": 54,
          "name": "F#3",
          "ticks": 164880,
          "time": 246.054222,
          "velocity": 0.6692913385826772
        },
        {
          "duration": 0.20267884166668182,
          "durationTicks": 227,
          "midi": 57,
          "name": "A3",
          "ticks": 164880,
          "time": 246.054222,
          "velocity": 0.6692913385826772
        },
        {
          "duration": 0.20267884166668182,
          "durationTicks": 227,
          "midi": 62,
          "name": "D4",
          "ticks": 164880,
          "time": 246.054222,
          "velocity": 0.6692913385826772
        },
        {
          "duration": 0.2026788416666534,
          "durationTicks": 227,
          "midi": 43,
          "name": "G2",
          "ticks": 165120,
          "time": 246.26850800000003,
          "velocity": 0.6692913385826772
        },
        {
          "duration": 0.20267884166668182,
          "durationTicks": 227,
          "midi": 55,
          "name": "G3",
          "ticks": 165360,
          "time": 246.482794,
          "velocity": 0.6692913385826772
        },
        {
          "duration": 0.20267884166668182,
          "durationTicks": 227,
          "midi": 59,
          "name": "B3",
          "ticks": 165360,
          "time": 246.482794,
          "velocity": 0.6692913385826772
        },
        {
          "duration": 0.20267884166668182,
          "durationTicks": 227,
          "midi": 62,
          "name": "D4",
          "ticks": 165360,
          "time": 246.482794,
          "velocity": 0.6692913385826772
        },
        {
          "duration": 0.2026788416666534,
          "durationTicks": 227,
          "midi": 47,
          "name": "B2",
          "ticks": 165600,
          "time": 246.69708000000003,
          "velocity": 0.6692913385826772
        },
        {
          "duration": 0.2026788416666534,
          "durationTicks": 227,
          "midi": 55,
          "name": "G3",
          "ticks": 165840,
          "time": 246.91136600000002,
          "velocity": 0.6692913385826772
        },
        {
          "duration": 0.2026788416666534,
          "durationTicks": 227,
          "midi": 59,
          "name": "B3",
          "ticks": 165840,
          "time": 246.91136600000002,
          "velocity": 0.6692913385826772
        },
        {
          "duration": 0.2026788416666534,
          "durationTicks": 227,
          "midi": 62,
          "name": "D4",
          "ticks": 165840,
          "time": 246.91136600000002,
          "velocity": 0.6692913385826772
        },
        {
          "duration": 0.20267884166668182,
          "durationTicks": 227,
          "midi": 52,
          "name": "E3",
          "ticks": 166080,
          "time": 247.125652,
          "velocity": 0.6692913385826772
        },
        {
          "duration": 0.2026788416666534,
          "durationTicks": 227,
          "midi": 55,
          "name": "G3",
          "ticks": 166320,
          "time": 247.33993800000002,
          "velocity": 0.6692913385826772
        },
        {
          "duration": 0.2026788416666534,
          "durationTicks": 227,
          "midi": 59,
          "name": "B3",
          "ticks": 166320,
          "time": 247.33993800000002,
          "velocity": 0.6692913385826772
        },
        {
          "duration": 0.2026788416666534,
          "durationTicks": 227,
          "midi": 62,
          "name": "D4",
          "ticks": 166320,
          "time": 247.33993800000002,
          "velocity": 0.6692913385826772
        },
        {
          "duration": 0.20267884166668182,
          "durationTicks": 227,
          "midi": 55,
          "name": "G3",
          "ticks": 166560,
          "time": 247.554224,
          "velocity": 0.6692913385826772
        },
        {
          "duration": 0.2026788416666534,
          "durationTicks": 227,
          "midi": 59,
          "name": "B3",
          "ticks": 166800,
          "time": 247.76851000000002,
          "velocity": 0.6692913385826772
        },
        {
          "duration": 0.2026788416666534,
          "durationTicks": 227,
          "midi": 62,
          "name": "D4",
          "ticks": 166800,
          "time": 247.76851000000002,
          "velocity": 0.6692913385826772
        },
        {
          "duration": 0.20267884166668182,
          "durationTicks": 227,
          "midi": 52,
          "name": "E3",
          "ticks": 167040,
          "time": 247.982796,
          "velocity": 0.3858267716535433
        },
        {
          "duration": 0.2026788416666534,
          "durationTicks": 227,
          "midi": 59,
          "name": "B3",
          "ticks": 167280,
          "time": 248.19708200000002,
          "velocity": 0.3858267716535433
        },
        {
          "duration": 0.2026788416666534,
          "durationTicks": 227,
          "midi": 64,
          "name": "E4",
          "ticks": 167280,
          "time": 248.19708200000002,
          "velocity": 0.3858267716535433
        },
        {
          "duration": 0.20267884166668182,
          "durationTicks": 227,
          "midi": 55,
          "name": "G3",
          "ticks": 167520,
          "time": 248.411368,
          "velocity": 0.3858267716535433
        },
        {
          "duration": 0.2026788416666534,
          "durationTicks": 227,
          "midi": 59,
          "name": "B3",
          "ticks": 167760,
          "time": 248.62565400000003,
          "velocity": 0.3858267716535433
        },
        {
          "duration": 0.2026788416666534,
          "durationTicks": 227,
          "midi": 64,
          "name": "E4",
          "ticks": 167760,
          "time": 248.62565400000003,
          "velocity": 0.3858267716535433
        },
        {
          "duration": 0.20267884166668182,
          "durationTicks": 227,
          "midi": 59,
          "name": "B3",
          "ticks": 168000,
          "time": 248.83994,
          "velocity": 0.3858267716535433
        },
        {
          "duration": 0.2026788416666534,
          "durationTicks": 227,
          "midi": 62,
          "name": "D4",
          "ticks": 168240,
          "time": 249.05422600000003,
          "velocity": 0.47244094488188976
        },
        {
          "duration": 0.2026788416666534,
          "durationTicks": 227,
          "midi": 64,
          "name": "E4",
          "ticks": 168240,
          "time": 249.05422600000003,
          "velocity": 0.47244094488188976
        },
        {
          "duration": 0.2026788416666534,
          "durationTicks": 227,
          "midi": 52,
          "name": "E3",
          "ticks": 168480,
          "time": 249.26851200000002,
          "velocity": 0.5669291338582677
        },
        {
          "duration": 0.20267884166668182,
          "durationTicks": 227,
          "midi": 59,
          "name": "B3",
          "ticks": 168720,
          "time": 249.482798,
          "velocity": 0.6614173228346457
        },
        {
          "duration": 0.20267884166668182,
          "durationTicks": 227,
          "midi": 64,
          "name": "E4",
          "ticks": 168720,
          "time": 249.482798,
          "velocity": 0.6614173228346457
        },
        {
          "duration": 0.2026788416666534,
          "durationTicks": 227,
          "midi": 45,
          "name": "A2",
          "ticks": 168960,
          "time": 249.69708400000002,
          "velocity": 0.7559055118110236
        },
        {
          "duration": 0.20267884166668182,
          "durationTicks": 227,
          "midi": 57,
          "name": "A3",
          "ticks": 169200,
          "time": 249.91137,
          "velocity": 0.7559055118110236
        },
        {
          "duration": 0.20267884166668182,
          "durationTicks": 227,
          "midi": 62,
          "name": "D4",
          "ticks": 169200,
          "time": 249.91137,
          "velocity": 0.7559055118110236
        },
        {
          "duration": 0.2026788416666534,
          "durationTicks": 227,
          "midi": 50,
          "name": "D3",
          "ticks": 169440,
          "time": 250.12565600000002,
          "velocity": 0.7559055118110236
        },
        {
          "duration": 0.20267884166668182,
          "durationTicks": 227,
          "midi": 57,
          "name": "A3",
          "ticks": 169680,
          "time": 250.339942,
          "velocity": 0.7559055118110236
        },
        {
          "duration": 0.20267884166668182,
          "durationTicks": 227,
          "midi": 62,
          "name": "D4",
          "ticks": 169680,
          "time": 250.339942,
          "velocity": 0.7559055118110236
        },
        {
          "duration": 0.2026788416666534,
          "durationTicks": 227,
          "midi": 54,
          "name": "F#3",
          "ticks": 169920,
          "time": 250.55422800000002,
          "velocity": 0.7559055118110236
        },
        {
          "duration": 0.20267884166668182,
          "durationTicks": 227,
          "midi": 57,
          "name": "A3",
          "ticks": 170160,
          "time": 250.768514,
          "velocity": 0.7559055118110236
        },
        {
          "duration": 0.20267884166668182,
          "durationTicks": 227,
          "midi": 62,
          "name": "D4",
          "ticks": 170160,
          "time": 250.768514,
          "velocity": 0.7559055118110236
        },
        {
          "duration": 0.2026788416666534,
          "durationTicks": 227,
          "midi": 45,
          "name": "A2",
          "ticks": 170400,
          "time": 250.98280000000003,
          "velocity": 0.7559055118110236
        },
        {
          "duration": 0.20267884166668182,
          "durationTicks": 227,
          "midi": 57,
          "name": "A3",
          "ticks": 170640,
          "time": 251.197086,
          "velocity": 0.7559055118110236
        },
        {
          "duration": 0.20267884166668182,
          "durationTicks": 227,
          "midi": 62,
          "name": "D4",
          "ticks": 170640,
          "time": 251.197086,
          "velocity": 0.7559055118110236
        },
        {
          "duration": 0.2026788416666534,
          "durationTicks": 227,
          "midi": 59,
          "name": "B3",
          "ticks": 170880,
          "time": 251.41137200000003,
          "velocity": 0.7559055118110236
        },
        {
          "duration": 0.2026788416666534,
          "durationTicks": 227,
          "midi": 62,
          "name": "D4",
          "ticks": 171120,
          "time": 251.62565800000002,
          "velocity": 0.7559055118110236
        },
        {
          "duration": 0.2026788416666534,
          "durationTicks": 227,
          "midi": 64,
          "name": "E4",
          "ticks": 171120,
          "time": 251.62565800000002,
          "velocity": 0.7559055118110236
        },
        {
          "duration": 0.20267884166668182,
          "durationTicks": 227,
          "midi": 56,
          "name": "G#3",
          "ticks": 171360,
          "time": 251.839944,
          "velocity": 0.7559055118110236
        },
        {
          "duration": 0.2026788416666534,
          "durationTicks": 227,
          "midi": 62,
          "name": "D4",
          "ticks": 171600,
          "time": 252.05423000000002,
          "velocity": 0.7559055118110236
        },
        {
          "duration": 0.2026788416666534,
          "durationTicks": 227,
          "midi": 64,
          "name": "E4",
          "ticks": 171600,
          "time": 252.05423000000002,
          "velocity": 0.7559055118110236
        },
        {
          "duration": 0.20267884166668182,
          "durationTicks": 227,
          "midi": 52,
          "name": "E3",
          "ticks": 171840,
          "time": 252.268516,
          "velocity": 0.7559055118110236
        },
        {
          "duration": 0.2026788416666534,
          "durationTicks": 227,
          "midi": 59,
          "name": "B3",
          "ticks": 172080,
          "time": 252.48280200000002,
          "velocity": 0.7559055118110236
        },
        {
          "duration": 0.2026788416666534,
          "durationTicks": 227,
          "midi": 62,
          "name": "D4",
          "ticks": 172080,
          "time": 252.48280200000002,
          "velocity": 0.7559055118110236
        },
        {
          "duration": 0.2026788416666534,
          "durationTicks": 227,
          "midi": 64,
          "name": "E4",
          "ticks": 172080,
          "time": 252.48280200000002,
          "velocity": 0.7559055118110236
        },
        {
          "duration": 0.20267884166668182,
          "durationTicks": 227,
          "midi": 52,
          "name": "E3",
          "ticks": 172320,
          "time": 252.697088,
          "velocity": 0.7559055118110236
        },
        {
          "duration": 0.2026788416666534,
          "durationTicks": 227,
          "midi": 59,
          "name": "B3",
          "ticks": 172560,
          "time": 252.91137400000002,
          "velocity": 0.7559055118110236
        },
        {
          "duration": 0.2026788416666534,
          "durationTicks": 227,
          "midi": 62,
          "name": "D4",
          "ticks": 172560,
          "time": 252.91137400000002,
          "velocity": 0.7559055118110236
        },
        {
          "duration": 0.2026788416666534,
          "durationTicks": 227,
          "midi": 64,
          "name": "E4",
          "ticks": 172560,
          "time": 252.91137400000002,
          "velocity": 0.7559055118110236
        },
        {
          "duration": 0.20267884166668182,
          "durationTicks": 227,
          "midi": 57,
          "name": "A3",
          "ticks": 172800,
          "time": 253.12566,
          "velocity": 0.7559055118110236
        },
        {
          "duration": 0.20267884166668182,
          "durationTicks": 227,
          "midi": 61,
          "name": "C#4",
          "ticks": 172800,
          "time": 253.12566,
          "velocity": 0.7559055118110236
        },
        {
          "duration": 0.4062505416666795,
          "durationTicks": 455,
          "midi": 43,
          "name": "G2",
          "ticks": 173280,
          "time": 253.554232,
          "velocity": 0.7559055118110236
        },
        {
          "duration": 0.4062505416666795,
          "durationTicks": 455,
          "midi": 55,
          "name": "G3",
          "ticks": 173280,
          "time": 253.554232,
          "velocity": 0.7559055118110236
        },
        {
          "duration": 0.4062505416666795,
          "durationTicks": 455,
          "midi": 40,
          "name": "E2",
          "ticks": 173760,
          "time": 253.98280400000002,
          "velocity": 0.7559055118110236
        },
        {
          "duration": 0.4062505416666795,
          "durationTicks": 455,
          "midi": 52,
          "name": "E3",
          "ticks": 173760,
          "time": 253.98280400000002,
          "velocity": 0.7559055118110236
        },
        {
          "duration": 0.4062505416666511,
          "durationTicks": 455,
          "midi": 33,
          "name": "A1",
          "ticks": 174240,
          "time": 254.41137600000002,
          "velocity": 0.7559055118110236
        },
        {
          "duration": 0.4062505416666511,
          "durationTicks": 455,
          "midi": 45,
          "name": "A2",
          "ticks": 174240,
          "time": 254.41137600000002,
          "velocity": 0.7559055118110236
        },
        {
          "duration": 0.2026788416666534,
          "durationTicks": 227,
          "midi": 50,
          "name": "D3",
          "ticks": 174720,
          "time": 254.83994800000002,
          "velocity": 0.7559055118110236
        },
        {
          "duration": 0.20267884166668182,
          "durationTicks": 227,
          "midi": 54,
          "name": "F#3",
          "ticks": 174960,
          "time": 255.054234,
          "velocity": 0.7559055118110236
        },
        {
          "duration": 0.20267884166668182,
          "durationTicks": 227,
          "midi": 57,
          "name": "A3",
          "ticks": 174960,
          "time": 255.054234,
          "velocity": 0.7559055118110236
        },
        {
          "duration": 0.20267884166668182,
          "durationTicks": 227,
          "midi": 62,
          "name": "D4",
          "ticks": 174960,
          "time": 255.054234,
          "velocity": 0.7559055118110236
        },
        {
          "duration": 0.2026788416666534,
          "durationTicks": 227,
          "midi": 45,
          "name": "A2",
          "ticks": 175200,
          "time": 255.26852000000002,
          "velocity": 0.7559055118110236
        },
        {
          "duration": 0.20267884166668182,
          "durationTicks": 227,
          "midi": 54,
          "name": "F#3",
          "ticks": 175440,
          "time": 255.482806,
          "velocity": 0.7559055118110236
        },
        {
          "duration": 0.20267884166668182,
          "durationTicks": 227,
          "midi": 57,
          "name": "A3",
          "ticks": 175440,
          "time": 255.482806,
          "velocity": 0.7559055118110236
        },
        {
          "duration": 0.20267884166668182,
          "durationTicks": 227,
          "midi": 62,
          "name": "D4",
          "ticks": 175440,
          "time": 255.482806,
          "velocity": 0.7559055118110236
        },
        {
          "duration": 0.2026788416666534,
          "durationTicks": 227,
          "midi": 50,
          "name": "D3",
          "ticks": 175680,
          "time": 255.69709200000003,
          "velocity": 0.7559055118110236
        },
        {
          "duration": 0.20267884166668182,
          "durationTicks": 227,
          "midi": 54,
          "name": "F#3",
          "ticks": 175920,
          "time": 255.911378,
          "velocity": 0.7559055118110236
        },
        {
          "duration": 0.20267884166668182,
          "durationTicks": 227,
          "midi": 57,
          "name": "A3",
          "ticks": 175920,
          "time": 255.911378,
          "velocity": 0.7559055118110236
        },
        {
          "duration": 0.20267884166668182,
          "durationTicks": 227,
          "midi": 62,
          "name": "D4",
          "ticks": 175920,
          "time": 255.911378,
          "velocity": 0.7559055118110236
        },
        {
          "duration": 0.20267884166662498,
          "durationTicks": 227,
          "midi": 45,
          "name": "A2",
          "ticks": 176160,
          "time": 256.12566400000003,
          "velocity": 0.7559055118110236
        },
        {
          "duration": 0.20267884166662498,
          "durationTicks": 227,
          "midi": 54,
          "name": "F#3",
          "ticks": 176400,
          "time": 256.33995000000004,
          "velocity": 0.7559055118110236
        },
        {
          "duration": 0.20267884166662498,
          "durationTicks": 227,
          "midi": 57,
          "name": "A3",
          "ticks": 176400,
          "time": 256.33995000000004,
          "velocity": 0.7559055118110236
        },
        {
          "duration": 0.20267884166662498,
          "durationTicks": 227,
          "midi": 62,
          "name": "D4",
          "ticks": 176400,
          "time": 256.33995000000004,
          "velocity": 0.7559055118110236
        },
        {
          "duration": 0.20267884166668182,
          "durationTicks": 227,
          "midi": 50,
          "name": "D3",
          "ticks": 176640,
          "time": 256.554236,
          "velocity": 0.7559055118110236
        },
        {
          "duration": 0.20267884166668182,
          "durationTicks": 227,
          "midi": 54,
          "name": "F#3",
          "ticks": 176880,
          "time": 256.768522,
          "velocity": 0.7559055118110236
        },
        {
          "duration": 0.20267884166668182,
          "durationTicks": 227,
          "midi": 57,
          "name": "A3",
          "ticks": 176880,
          "time": 256.768522,
          "velocity": 0.7559055118110236
        },
        {
          "duration": 0.20267884166668182,
          "durationTicks": 227,
          "midi": 62,
          "name": "D4",
          "ticks": 176880,
          "time": 256.768522,
          "velocity": 0.7559055118110236
        },
        {
          "duration": 0.20267884166662498,
          "durationTicks": 227,
          "midi": 45,
          "name": "A2",
          "ticks": 177120,
          "time": 256.98280800000003,
          "velocity": 0.7559055118110236
        },
        {
          "duration": 0.20267884166668182,
          "durationTicks": 227,
          "midi": 54,
          "name": "F#3",
          "ticks": 177360,
          "time": 257.197094,
          "velocity": 0.7559055118110236
        },
        {
          "duration": 0.20267884166668182,
          "durationTicks": 227,
          "midi": 57,
          "name": "A3",
          "ticks": 177360,
          "time": 257.197094,
          "velocity": 0.7559055118110236
        },
        {
          "duration": 0.20267884166668182,
          "durationTicks": 227,
          "midi": 62,
          "name": "D4",
          "ticks": 177360,
          "time": 257.197094,
          "velocity": 0.7559055118110236
        },
        {
          "duration": 0.20267884166668182,
          "durationTicks": 227,
          "midi": 50,
          "name": "D3",
          "ticks": 177600,
          "time": 257.41138,
          "velocity": 0.7559055118110236
        },
        {
          "duration": 0.20267884166668182,
          "durationTicks": 227,
          "midi": 54,
          "name": "F#3",
          "ticks": 177840,
          "time": 257.625666,
          "velocity": 0.7559055118110236
        },
        {
          "duration": 0.20267884166668182,
          "durationTicks": 227,
          "midi": 57,
          "name": "A3",
          "ticks": 177840,
          "time": 257.625666,
          "velocity": 0.7559055118110236
        },
        {
          "duration": 0.20267884166668182,
          "durationTicks": 227,
          "midi": 62,
          "name": "D4",
          "ticks": 177840,
          "time": 257.625666,
          "velocity": 0.7559055118110236
        },
        {
          "duration": 0.20267884166662498,
          "durationTicks": 227,
          "midi": 45,
          "name": "A2",
          "ticks": 178080,
          "time": 257.83995200000004,
          "velocity": 0.7559055118110236
        },
        {
          "duration": 0.20267884166668182,
          "durationTicks": 227,
          "midi": 54,
          "name": "F#3",
          "ticks": 178320,
          "time": 258.054238,
          "velocity": 0.7559055118110236
        },
        {
          "duration": 0.20267884166668182,
          "durationTicks": 227,
          "midi": 57,
          "name": "A3",
          "ticks": 178320,
          "time": 258.054238,
          "velocity": 0.7559055118110236
        },
        {
          "duration": 0.20267884166668182,
          "durationTicks": 227,
          "midi": 62,
          "name": "D4",
          "ticks": 178320,
          "time": 258.054238,
          "velocity": 0.7559055118110236
        },
        {
          "duration": 0.20267884166668182,
          "durationTicks": 227,
          "midi": 50,
          "name": "D3",
          "ticks": 178560,
          "time": 258.268524,
          "velocity": 0.7559055118110236
        },
        {
          "duration": 0.20267884166668182,
          "durationTicks": 227,
          "midi": 54,
          "name": "F#3",
          "ticks": 178800,
          "time": 258.48281000000003,
          "velocity": 0.7559055118110236
        },
        {
          "duration": 0.20267884166668182,
          "durationTicks": 227,
          "midi": 57,
          "name": "A3",
          "ticks": 178800,
          "time": 258.48281000000003,
          "velocity": 0.7559055118110236
        },
        {
          "duration": 0.20267884166668182,
          "durationTicks": 227,
          "midi": 62,
          "name": "D4",
          "ticks": 178800,
          "time": 258.48281000000003,
          "velocity": 0.7559055118110236
        },
        {
          "duration": 0.20267884166668182,
          "durationTicks": 227,
          "midi": 45,
          "name": "A2",
          "ticks": 179040,
          "time": 258.697096,
          "velocity": 0.7559055118110236
        },
        {
          "duration": 0.20267884166668182,
          "durationTicks": 227,
          "midi": 54,
          "name": "F#3",
          "ticks": 179280,
          "time": 258.911382,
          "velocity": 0.7559055118110236
        },
        {
          "duration": 0.20267884166668182,
          "durationTicks": 227,
          "midi": 57,
          "name": "A3",
          "ticks": 179280,
          "time": 258.911382,
          "velocity": 0.7559055118110236
        },
        {
          "duration": 0.20267884166668182,
          "durationTicks": 227,
          "midi": 62,
          "name": "D4",
          "ticks": 179280,
          "time": 258.911382,
          "velocity": 0.7559055118110236
        },
        {
          "duration": 0.20267884166668182,
          "durationTicks": 227,
          "midi": 50,
          "name": "D3",
          "ticks": 179520,
          "time": 259.125668,
          "velocity": 0.7559055118110236
        },
        {
          "duration": 0.20267884166662498,
          "durationTicks": 227,
          "midi": 54,
          "name": "F#3",
          "ticks": 179760,
          "time": 259.33995400000003,
          "velocity": 0.7559055118110236
        },
        {
          "duration": 0.20267884166662498,
          "durationTicks": 227,
          "midi": 57,
          "name": "A3",
          "ticks": 179760,
          "time": 259.33995400000003,
          "velocity": 0.7559055118110236
        },
        {
          "duration": 0.20267884166662498,
          "durationTicks": 227,
          "midi": 62,
          "name": "D4",
          "ticks": 179760,
          "time": 259.33995400000003,
          "velocity": 0.7559055118110236
        },
        {
          "duration": 0.20267884166668182,
          "durationTicks": 227,
          "midi": 45,
          "name": "A2",
          "ticks": 180000,
          "time": 259.55424,
          "velocity": 0.7559055118110236
        },
        {
          "duration": 0.20267884166668182,
          "durationTicks": 227,
          "midi": 54,
          "name": "F#3",
          "ticks": 180240,
          "time": 259.768526,
          "velocity": 0.7559055118110236
        },
        {
          "duration": 0.20267884166668182,
          "durationTicks": 227,
          "midi": 57,
          "name": "A3",
          "ticks": 180240,
          "time": 259.768526,
          "velocity": 0.7559055118110236
        },
        {
          "duration": 0.20267884166668182,
          "durationTicks": 227,
          "midi": 62,
          "name": "D4",
          "ticks": 180240,
          "time": 259.768526,
          "velocity": 0.7559055118110236
        },
        {
          "duration": 0.20267884166668182,
          "durationTicks": 227,
          "midi": 43,
          "name": "G2",
          "ticks": 180480,
          "time": 259.982812,
          "velocity": 0.7559055118110236
        },
        {
          "duration": 0.20267884166662498,
          "durationTicks": 227,
          "midi": 55,
          "name": "G3",
          "ticks": 180720,
          "time": 260.19709800000004,
          "velocity": 0.7559055118110236
        },
        {
          "duration": 0.20267884166662498,
          "durationTicks": 227,
          "midi": 59,
          "name": "B3",
          "ticks": 180720,
          "time": 260.19709800000004,
          "velocity": 0.7559055118110236
        },
        {
          "duration": 0.20267884166662498,
          "durationTicks": 227,
          "midi": 62,
          "name": "D4",
          "ticks": 180720,
          "time": 260.19709800000004,
          "velocity": 0.7559055118110236
        },
        {
          "duration": 0.20267884166668182,
          "durationTicks": 227,
          "midi": 47,
          "name": "B2",
          "ticks": 180960,
          "time": 260.411384,
          "velocity": 0.7559055118110236
        },
        {
          "duration": 0.20267884166668182,
          "durationTicks": 227,
          "midi": 55,
          "name": "G3",
          "ticks": 181200,
          "time": 260.62567,
          "velocity": 0.7559055118110236
        },
        {
          "duration": 0.20267884166668182,
          "durationTicks": 227,
          "midi": 59,
          "name": "B3",
          "ticks": 181200,
          "time": 260.62567,
          "velocity": 0.7559055118110236
        },
        {
          "duration": 0.20267884166668182,
          "durationTicks": 227,
          "midi": 62,
          "name": "D4",
          "ticks": 181200,
          "time": 260.62567,
          "velocity": 0.7559055118110236
        },
        {
          "duration": 0.20267884166662498,
          "durationTicks": 227,
          "midi": 52,
          "name": "E3",
          "ticks": 181440,
          "time": 260.83995600000003,
          "velocity": 0.7559055118110236
        },
        {
          "duration": 0.20267884166662498,
          "durationTicks": 227,
          "midi": 55,
          "name": "G3",
          "ticks": 181680,
          "time": 261.05424200000004,
          "velocity": 0.7559055118110236
        },
        {
          "duration": 0.20267884166662498,
          "durationTicks": 227,
          "midi": 59,
          "name": "B3",
          "ticks": 181680,
          "time": 261.05424200000004,
          "velocity": 0.7559055118110236
        },
        {
          "duration": 0.20267884166662498,
          "durationTicks": 227,
          "midi": 62,
          "name": "D4",
          "ticks": 181680,
          "time": 261.05424200000004,
          "velocity": 0.7559055118110236
        },
        {
          "duration": 0.20267884166668182,
          "durationTicks": 227,
          "midi": 55,
          "name": "G3",
          "ticks": 181920,
          "time": 261.268528,
          "velocity": 0.7559055118110236
        },
        {
          "duration": 0.20267884166668182,
          "durationTicks": 227,
          "midi": 59,
          "name": "B3",
          "ticks": 182160,
          "time": 261.482814,
          "velocity": 0.7559055118110236
        },
        {
          "duration": 0.20267884166668182,
          "durationTicks": 227,
          "midi": 62,
          "name": "D4",
          "ticks": 182160,
          "time": 261.482814,
          "velocity": 0.7559055118110236
        },
        {
          "duration": 0.1998238437499822,
          "durationTicks": 227,
          "midi": 52,
          "name": "E3",
          "ticks": 182400,
          "time": 261.69710000000003,
          "velocity": 0.7559055118110236
        },
        {
          "duration": 0.1998238437499822,
          "durationTicks": 227,
          "midi": 55,
          "name": "G3",
          "ticks": 182640,
          "time": 261.90836750000005,
          "velocity": 0.7559055118110236
        },
        {
          "duration": 0.1998238437499822,
          "durationTicks": 227,
          "midi": 59,
          "name": "B3",
          "ticks": 182640,
          "time": 261.90836750000005,
          "velocity": 0.7559055118110236
        },
        {
          "duration": 0.1998238437499822,
          "durationTicks": 227,
          "midi": 62,
          "name": "D4",
          "ticks": 182640,
          "time": 261.90836750000005,
          "velocity": 0.7559055118110236
        },
        {
          "duration": 0.197048768749994,
          "durationTicks": 227,
          "midi": 47,
          "name": "B2",
          "ticks": 182880,
          "time": 262.119635,
          "velocity": 0.6692913385826772
        },
        {
          "duration": 0.197048768749994,
          "durationTicks": 227,
          "midi": 55,
          "name": "G3",
          "ticks": 183120,
          "time": 262.3279685,
          "velocity": 0.6692913385826772
        },
        {
          "duration": 0.197048768749994,
          "durationTicks": 227,
          "midi": 59,
          "name": "B3",
          "ticks": 183120,
          "time": 262.3279685,
          "velocity": 0.6692913385826772
        },
        {
          "duration": 0.197048768749994,
          "durationTicks": 227,
          "midi": 62,
          "name": "D4",
          "ticks": 183120,
          "time": 262.3279685,
          "velocity": 0.6692913385826772
        },
        {
          "duration": 0.19434936041665196,
          "durationTicks": 227,
          "midi": 52,
          "name": "E3",
          "ticks": 183360,
          "time": 262.53630200000003,
          "velocity": 0.6692913385826772
        },
        {
          "duration": 0.19434936041665196,
          "durationTicks": 227,
          "midi": 55,
          "name": "G3",
          "ticks": 183600,
          "time": 262.74178150000006,
          "velocity": 0.6692913385826772
        },
        {
          "duration": 0.19434936041665196,
          "durationTicks": 227,
          "midi": 59,
          "name": "B3",
          "ticks": 183600,
          "time": 262.74178150000006,
          "velocity": 0.6692913385826772
        },
        {
          "duration": 0.19434936041665196,
          "durationTicks": 227,
          "midi": 62,
          "name": "D4",
          "ticks": 183600,
          "time": 262.74178150000006,
          "velocity": 0.6692913385826772
        },
        {
          "duration": 0.1917227812500073,
          "durationTicks": 227,
          "midi": 52,
          "name": "E3",
          "ticks": 183840,
          "time": 262.947261,
          "velocity": 0.6692913385826772
        },
        {
          "duration": 0.1917227812500073,
          "durationTicks": 227,
          "midi": 55,
          "name": "G3",
          "ticks": 184080,
          "time": 263.1499635,
          "velocity": 0.6692913385826772
        },
        {
          "duration": 0.1917227812500073,
          "durationTicks": 227,
          "midi": 59,
          "name": "B3",
          "ticks": 184080,
          "time": 263.1499635,
          "velocity": 0.6692913385826772
        },
        {
          "duration": 0.1917227812500073,
          "durationTicks": 227,
          "midi": 62,
          "name": "D4",
          "ticks": 184080,
          "time": 263.1499635,
          "velocity": 0.6692913385826772
        },
        {
          "duration": 0.18916666666666515,
          "durationTicks": 227,
          "midi": 45,
          "name": "A2",
          "ticks": 184320,
          "time": 263.352666,
          "velocity": 0.6692913385826772
        },
        {
          "duration": 0.18916666666666515,
          "durationTicks": 227,
          "midi": 54,
          "name": "F#3",
          "ticks": 184560,
          "time": 263.552666,
          "velocity": 0.6692913385826772
        },
        {
          "duration": 0.18916666666666515,
          "durationTicks": 227,
          "midi": 57,
          "name": "A3",
          "ticks": 184560,
          "time": 263.552666,
          "velocity": 0.6692913385826772
        },
        {
          "duration": 0.18916666666666515,
          "durationTicks": 227,
          "midi": 62,
          "name": "D4",
          "ticks": 184560,
          "time": 263.552666,
          "velocity": 0.6692913385826772
        },
        {
          "duration": 0.18667770625000912,
          "durationTicks": 227,
          "midi": 50,
          "name": "D3",
          "ticks": 184800,
          "time": 263.752666,
          "velocity": 0.6692913385826772
        },
        {
          "duration": 0.18667770625000912,
          "durationTicks": 227,
          "midi": 54,
          "name": "F#3",
          "ticks": 185040,
          "time": 263.95003449999996,
          "velocity": 0.6692913385826772
        },
        {
          "duration": 0.18667770625000912,
          "durationTicks": 227,
          "midi": 57,
          "name": "A3",
          "ticks": 185040,
          "time": 263.95003449999996,
          "velocity": 0.6692913385826772
        },
        {
          "duration": 0.18667770625000912,
          "durationTicks": 227,
          "midi": 62,
          "name": "D4",
          "ticks": 185040,
          "time": 263.95003449999996,
          "velocity": 0.6692913385826772
        },
        {
          "duration": 0.18425306249997675,
          "durationTicks": 227,
          "midi": 54,
          "name": "F#3",
          "ticks": 185280,
          "time": 264.147403,
          "velocity": 0.6692913385826772
        },
        {
          "duration": 0.1842530625000336,
          "durationTicks": 227,
          "midi": 57,
          "name": "A3",
          "ticks": 185520,
          "time": 264.34220799999997,
          "velocity": 0.6692913385826772
        },
        {
          "duration": 0.1842530625000336,
          "durationTicks": 227,
          "midi": 62,
          "name": "D4",
          "ticks": 185520,
          "time": 264.34220799999997,
          "velocity": 0.6692913385826772
        },
        {
          "duration": 0.1818908437500113,
          "durationTicks": 227,
          "midi": 45,
          "name": "A2",
          "ticks": 185760,
          "time": 264.537013,
          "velocity": 0.6692913385826772
        },
        {
          "duration": 0.18189084374995446,
          "durationTicks": 227,
          "midi": 54,
          "name": "F#3",
          "ticks": 186000,
          "time": 264.72932050000003,
          "velocity": 0.6692913385826772
        },
        {
          "duration": 0.18189084374995446,
          "durationTicks": 227,
          "midi": 57,
          "name": "A3",
          "ticks": 186000,
          "time": 264.72932050000003,
          "velocity": 0.6692913385826772
        },
        {
          "duration": 0.18189084374995446,
          "durationTicks": 227,
          "midi": 62,
          "name": "D4",
          "ticks": 186000,
          "time": 264.72932050000003,
          "velocity": 0.6692913385826772
        },
        {
          "duration": 0.17958868541666106,
          "durationTicks": 227,
          "midi": 43,
          "name": "G2",
          "ticks": 186240,
          "time": 264.921628,
          "velocity": 0.6692913385826772
        },
        {
          "duration": 0.1795886854167179,
          "durationTicks": 227,
          "midi": 55,
          "name": "G3",
          "ticks": 186480,
          "time": 265.1115015,
          "velocity": 0.6692913385826772
        },
        {
          "duration": 0.1795886854167179,
          "durationTicks": 227,
          "midi": 59,
          "name": "B3",
          "ticks": 186480,
          "time": 265.1115015,
          "velocity": 0.6692913385826772
        },
        {
          "duration": 0.1795886854167179,
          "durationTicks": 227,
          "midi": 62,
          "name": "D4",
          "ticks": 186480,
          "time": 265.1115015,
          "velocity": 0.6692913385826772
        },
        {
          "duration": 0.17734374999997726,
          "durationTicks": 227,
          "midi": 52,
          "name": "E3",
          "ticks": 186720,
          "time": 265.301375,
          "velocity": 0.6692913385826772
        },
        {
          "duration": 0.17734374999997726,
          "durationTicks": 227,
          "midi": 55,
          "name": "G3",
          "ticks": 186960,
          "time": 265.488875,
          "velocity": 0.6692913385826772
        },
        {
          "duration": 0.17734374999997726,
          "durationTicks": 227,
          "midi": 59,
          "name": "B3",
          "ticks": 186960,
          "time": 265.488875,
          "velocity": 0.6692913385826772
        },
        {
          "duration": 0.17734374999997726,
          "durationTicks": 227,
          "midi": 64,
          "name": "E4",
          "ticks": 186960,
          "time": 265.488875,
          "velocity": 0.6692913385826772
        },
        {
          "duration": 0.17515414583334632,
          "durationTicks": 227,
          "midi": 49,
          "name": "C#3",
          "ticks": 187200,
          "time": 265.676375,
          "velocity": 0.6692913385826772
        },
        {
          "duration": 0.17515414583334632,
          "durationTicks": 227,
          "midi": 55,
          "name": "G3",
          "ticks": 187440,
          "time": 265.86156,
          "velocity": 0.6692913385826772
        },
        {
          "duration": 0.17515414583334632,
          "durationTicks": 227,
          "midi": 57,
          "name": "A3",
          "ticks": 187440,
          "time": 265.86156,
          "velocity": 0.6692913385826772
        },
        {
          "duration": 0.17515414583334632,
          "durationTicks": 227,
          "midi": 64,
          "name": "E4",
          "ticks": 187440,
          "time": 265.86156,
          "velocity": 0.6692913385826772
        },
        {
          "duration": 0.17301845416665174,
          "durationTicks": 227,
          "midi": 45,
          "name": "A2",
          "ticks": 187680,
          "time": 266.046745,
          "velocity": 0.6692913385826772
        },
        {
          "duration": 0.17301845416665174,
          "durationTicks": 227,
          "midi": 55,
          "name": "G3",
          "ticks": 187920,
          "time": 266.229672,
          "velocity": 0.6692913385826772
        },
        {
          "duration": 0.17301845416665174,
          "durationTicks": 227,
          "midi": 57,
          "name": "A3",
          "ticks": 187920,
          "time": 266.229672,
          "velocity": 0.6692913385826772
        },
        {
          "duration": 0.17301845416665174,
          "durationTicks": 227,
          "midi": 64,
          "name": "E4",
          "ticks": 187920,
          "time": 266.229672,
          "velocity": 0.6692913385826772
        },
        {
          "duration": 0.3467991041666778,
          "durationTicks": 455,
          "midi": 50,
          "name": "D3",
          "ticks": 188160,
          "time": 266.412599,
          "velocity": 0.6692913385826772
        },
        {
          "duration": 0.3467991041666778,
          "durationTicks": 455,
          "midi": 54,
          "name": "F#3",
          "ticks": 188160,
          "time": 266.412599,
          "velocity": 0.6692913385826772
        },
        {
          "duration": 0.3467991041666778,
          "durationTicks": 455,
          "midi": 57,
          "name": "A3",
          "ticks": 188160,
          "time": 266.412599,
          "velocity": 0.6692913385826772
        },
        {
          "duration": 0.3467991041666778,
          "durationTicks": 455,
          "midi": 62,
          "name": "D4",
          "ticks": 188160,
          "time": 266.412599,
          "velocity": 0.6692913385826772
        },
        {
          "duration": 0.3467991041666778,
          "durationTicks": 455,
          "midi": 33,
          "name": "A1",
          "ticks": 189120,
          "time": 267.14430699999997,
          "velocity": 0.6692913385826772
        },
        {
          "duration": 0.3467991041666778,
          "durationTicks": 455,
          "midi": 45,
          "name": "A2",
          "ticks": 189120,
          "time": 267.14430699999997,
          "velocity": 0.6692913385826772
        },
        {
          "duration": 0.6943604041666731,
          "durationTicks": 911,
          "midi": 38,
          "name": "D2",
          "ticks": 190080,
          "time": 267.876015,
          "velocity": 0.6692913385826772
        },
        {
          "duration": 0.6943604041666731,
          "durationTicks": 911,
          "midi": 50,
          "name": "D3",
          "ticks": 190080,
          "time": 267.876015,
          "velocity": 0.6692913385826772
        }
      ],
      "endOfTrackTicks": 190992
    }
  ]
}
