{
  "header": {
    "keySignatures": [],
    "meta": [],
    "name": "",
    "ppq": 96,
    "tempos": [
      {
        "bpm": 117.63391150400838,
        "ticks": 0
      },
      {
        "bpm": 117.63391150400838,
        "ticks": 0
      },
      {
        "bpm": 117.63391150400838,
        "ticks": 0
      }
    ],
    "timeSignatures": [
      {
        "ticks": 0,
        "timeSignature": [
          4,
          4
        ],
        "measures": 0
      }
    ]
  },
  "tracks": [
    {
      "channel": 0,
      "controlChanges": {},
      "pitchBends": [],
      "instrument": {
        "family": "piano",
        "number": 0,
        "name": "acoustic grand piano"
      },
      "name": "",
      "notes": [],
      "endOfTrackTicks": 0
    },
    {
      "channel": 9,
      "controlChanges": {
        "6": [
          {
            "number": 6,
            "ticks": 0,
            "time": 0,
            "value": 0.09448818897637795
          },
          {
            "number": 6,
            "ticks": 0,
            "time": 0,
            "value": 0.09448818897637795
          },
          {
            "number": 6,
            "ticks": 21120,
            "time": 112.21253999999999,
            "value": 0.09448818897637795
          },
          {
            "number": 6,
            "ticks": 21120,
            "time": 112.21253999999999,
            "value": 0.09448818897637795
          },
          {
            "number": 6,
            "ticks": 21120,
            "time": 112.21253999999999,
            "value": 0.09448818897637795
          }
        ],
        "7": [
          {
            "number": 7,
            "ticks": 0,
            "time": 0,
            "value": 0.5433070866141733
          },
          {
            "number": 7,
            "ticks": 0,
            "time": 0,
            "value": 0.5433070866141733
          },
          {
            "number": 7,
            "ticks": 0,
            "time": 0,
            "value": 0.5433070866141733
          },
          {
            "number": 7,
            "ticks": 0,
            "time": 0,
            "value": 0.5433070866141733
          },
          {
            "number": 7,
            "ticks": 0,
            "time": 0,
            "value": 0.5433070866141733
          },
          {
            "number": 7,
            "ticks": 21120,
            "time": 112.21253999999999,
            "value": 0.5433070866141733
          },
          {
            "number": 7,
            "ticks": 21120,
            "time": 112.21253999999999,
            "value": 0.5433070866141733
          },
          {
            "number": 7,
            "ticks": 21120,
            "time": 112.21253999999999,
            "value": 0.5433070866141733
          }
        ],
        "10": [
          {
            "number": 10,
            "ticks": 0,
            "time": 0,
            "value": 0.36220472440944884
          },
          {
            "number": 10,
            "ticks": 0,
            "time": 0,
            "value": 0.36220472440944884
          },
          {
            "number": 10,
            "ticks": 0,
            "time": 0,
            "value": 0.36220472440944884
          },
          {
            "number": 10,
            "ticks": 0,
            "time": 0,
            "value": 0.36220472440944884
          },
          {
            "number": 10,
            "ticks": 0,
            "time": 0,
            "value": 0.36220472440944884
          },
          {
            "number": 10,
            "ticks": 21120,
            "time": 112.21253999999999,
            "value": 0.36220472440944884
          },
          {
            "number": 10,
            "ticks": 21120,
            "time": 112.21253999999999,
            "value": 0.36220472440944884
          },
          {
            "number": 10,
            "ticks": 21120,
            "time": 112.21253999999999,
            "value": 0.36220472440944884
          }
        ],
        "100": [
          {
            "number": 100,
            "ticks": 0,
            "time": 0,
            "value": 0
          },
          {
            "number": 100,
            "ticks": 0,
            "time": 0,
            "value": 0
          },
          {
            "number": 100,
            "ticks": 21120,
            "time": 112.21253999999999,
            "value": 0
          },
          {
            "number": 100,
            "ticks": 21120,
            "time": 112.21253999999999,
            "value": 0
          },
          {
            "number": 100,
            "ticks": 21120,
            "time": 112.21253999999999,
            "value": 0
          }
        ],
        "101": [
          {
            "number": 101,
            "ticks": 0,
            "time": 0,
            "value": 0
          },
          {
            "number": 101,
            "ticks": 0,
            "time": 0,
            "value": 0
          },
          {
            "number": 101,
            "ticks": 21120,
            "time": 112.21253999999999,
            "value": 0
          },
          {
            "number": 101,
            "ticks": 21120,
            "time": 112.21253999999999,
            "value": 0
          },
          {
            "number": 101,
            "ticks": 21120,
            "time": 112.21253999999999,
            "value": 0
          }
        ]
      },
      "pitchBends": [
        {
          "ticks": 0,
          "time": 0,
          "value": 0
        },
        {
          "ticks": 0,
          "time": 0,
          "value": 0
        },
        {
          "ticks": 0,
          "time": 0,
          "value": 0
        },
        {
          "ticks": 0,
          "time": 0,
          "value": 0
        },
        {
          "ticks": 0,
          "time": 0,
          "value": 0
        },
        {
          "ticks": 21120,
          "time": 112.21253999999999,
          "value": 0
        },
        {
          "ticks": 21120,
          "time": 112.21253999999999,
          "value": 0
        },
        {
          "ticks": 21120,
          "time": 112.21253999999999,
          "value": 0
        }
      ],
      "instrument": {
        "family": "drums",
        "number": 0,
        "name": "standard kit"
      },
      "name": "drums",
      "notes": [
        {
          "duration": 0.16470590624999915,
          "durationTicks": 31,
          "midi": 37,
          "name": "C#2",
          "ticks": 3072,
          "time": 16.321824,
          "velocity": 0.952755905511811
        },
        {
          "duration": 0.16470590624999915,
          "durationTicks": 31,
          "midi": 44,
          "name": "G#2",
          "ticks": 3072,
          "time": 16.321824,
          "velocity": 0.952755905511811
        },
        {
          "duration": 0.1647059062499956,
          "durationTicks": 31,
          "midi": 44,
          "name": "G#2",
          "ticks": 3120,
          "time": 16.5768525,
          "velocity": 0.952755905511811
        },
        {
          "duration": 0.1647059062499956,
          "durationTicks": 31,
          "midi": 37,
          "name": "C#2",
          "ticks": 3120,
          "time": 16.5768525,
          "velocity": 0.952755905511811
        },
        {
          "duration": 0.16470590624999915,
          "durationTicks": 31,
          "midi": 44,
          "name": "G#2",
          "ticks": 3168,
          "time": 16.831881,
          "velocity": 0.952755905511811
        },
        {
          "duration": 0.16470590624999915,
          "durationTicks": 31,
          "midi": 37,
          "name": "C#2",
          "ticks": 3168,
          "time": 16.831881,
          "velocity": 0.952755905511811
        },
        {
          "duration": 0.1647059062499956,
          "durationTicks": 31,
          "midi": 44,
          "name": "G#2",
          "ticks": 3216,
          "time": 17.0869095,
          "velocity": 0.952755905511811
        },
        {
          "duration": 0.1647059062499956,
          "durationTicks": 31,
          "midi": 37,
          "name": "C#2",
          "ticks": 3216,
          "time": 17.0869095,
          "velocity": 0.952755905511811
        },
        {
          "duration": 0.16470590624999915,
          "durationTicks": 31,
          "midi": 37,
          "name": "C#2",
          "ticks": 4800,
          "time": 25.50285,
          "velocity": 0.952755905511811
        },
        {
          "duration": 0.16470590624999915,
          "durationTicks": 31,
          "midi": 37,
          "name": "C#2",
          "ticks": 4896,
          "time": 26.012907,
          "velocity": 0.952755905511811
        },
        {
          "duration": 0.16470590624999915,
          "durationTicks": 31,
          "midi": 37,
          "name": "C#2",
          "ticks": 4992,
          "time": 26.522963999999998,
          "velocity": 0.952755905511811
        },
        {
          "duration": 0.16470590624999915,
          "durationTicks": 31,
          "midi": 37,
          "name": "C#2",
          "ticks": 5016,
          "time": 26.65047825,
          "velocity": 0.952755905511811
        },
        {
          "duration": 0.16470590624999915,
          "durationTicks": 31,
          "midi": 37,
          "name": "C#2",
          "ticks": 5040,
          "time": 26.7779925,
          "velocity": 0.952755905511811
        },
        {
          "duration": 0.1647059062499956,
          "durationTicks": 31,
          "midi": 37,
          "name": "C#2",
          "ticks": 5064,
          "time": 26.90550675,
          "velocity": 0.952755905511811
        },
        {
          "duration": 0.16470590624999915,
          "durationTicks": 31,
          "midi": 37,
          "name": "C#2",
          "ticks": 5112,
          "time": 27.16053525,
          "velocity": 0.952755905511811
        },
        {
          "duration": 0.16470590624999915,
          "durationTicks": 31,
          "midi": 37,
          "name": "C#2",
          "ticks": 5184,
          "time": 27.543077999999998,
          "velocity": 0.952755905511811
        },
        {
          "duration": 0.16470590624999915,
          "durationTicks": 31,
          "midi": 37,
          "name": "C#2",
          "ticks": 5280,
          "time": 28.053134999999997,
          "velocity": 0.952755905511811
        },
        {
          "duration": 0.1647059062499956,
          "durationTicks": 31,
          "midi": 37,
          "name": "C#2",
          "ticks": 5376,
          "time": 28.563192,
          "velocity": 0.952755905511811
        },
        {
          "duration": 0.16470590624999915,
          "durationTicks": 31,
          "midi": 37,
          "name": "C#2",
          "ticks": 5400,
          "time": 28.690706249999998,
          "velocity": 0.952755905511811
        },
        {
          "duration": 0.16470590624999915,
          "durationTicks": 31,
          "midi": 37,
          "name": "C#2",
          "ticks": 5424,
          "time": 28.8182205,
          "velocity": 0.952755905511811
        },
        {
          "duration": 0.16470590624999915,
          "durationTicks": 31,
          "midi": 37,
          "name": "C#2",
          "ticks": 5448,
          "time": 28.94573475,
          "velocity": 0.952755905511811
        },
        {
          "duration": 0.16470590624999915,
          "durationTicks": 31,
          "midi": 37,
          "name": "C#2",
          "ticks": 5496,
          "time": 29.200763249999998,
          "velocity": 0.952755905511811
        },
        {
          "duration": 0.16470590624999915,
          "durationTicks": 31,
          "midi": 37,
          "name": "C#2",
          "ticks": 5568,
          "time": 29.583306,
          "velocity": 0.952755905511811
        },
        {
          "duration": 0.16470590624999915,
          "durationTicks": 31,
          "midi": 37,
          "name": "C#2",
          "ticks": 5664,
          "time": 30.093363,
          "velocity": 0.952755905511811
        },
        {
          "duration": 0.16470590624999915,
          "durationTicks": 31,
          "midi": 37,
          "name": "C#2",
          "ticks": 5760,
          "time": 30.60342,
          "velocity": 0.952755905511811
        },
        {
          "duration": 0.1647059062499956,
          "durationTicks": 31,
          "midi": 37,
          "name": "C#2",
          "ticks": 5784,
          "time": 30.73093425,
          "velocity": 0.952755905511811
        },
        {
          "duration": 0.16470590624999915,
          "durationTicks": 31,
          "midi": 37,
          "name": "C#2",
          "ticks": 5808,
          "time": 30.858448499999998,
          "velocity": 0.952755905511811
        },
        {
          "duration": 0.16470590624999915,
          "durationTicks": 31,
          "midi": 37,
          "name": "C#2",
          "ticks": 5832,
          "time": 30.98596275,
          "velocity": 0.952755905511811
        },
        {
          "duration": 0.1647059062499956,
          "durationTicks": 31,
          "midi": 37,
          "name": "C#2",
          "ticks": 5880,
          "time": 31.24099125,
          "velocity": 0.952755905511811
        },
        {
          "duration": 0.16470590624999915,
          "durationTicks": 31,
          "midi": 37,
          "name": "C#2",
          "ticks": 5952,
          "time": 31.623534,
          "velocity": 0.952755905511811
        },
        {
          "duration": 0.16470590624999915,
          "durationTicks": 31,
          "midi": 36,
          "name": "C2",
          "ticks": 5952,
          "time": 31.623534,
          "velocity": 0.7874015748031497
        },
        {
          "duration": 0.1647059062500027,
          "durationTicks": 31,
          "midi": 44,
          "name": "G#2",
          "ticks": 6000,
          "time": 31.878562499999997,
          "velocity": 0.952755905511811
        },
        {
          "duration": 0.16470590624999915,
          "durationTicks": 31,
          "midi": 37,
          "name": "C#2",
          "ticks": 6048,
          "time": 32.133590999999996,
          "velocity": 0.952755905511811
        },
        {
          "duration": 0.16470590624999915,
          "durationTicks": 31,
          "midi": 36,
          "name": "C2",
          "ticks": 6048,
          "time": 32.133590999999996,
          "velocity": 1
        },
        {
          "duration": 0.16470590624999915,
          "durationTicks": 31,
          "midi": 44,
          "name": "G#2",
          "ticks": 6096,
          "time": 32.3886195,
          "velocity": 0.952755905511811
        },
        {
          "duration": 0.16470590624999915,
          "durationTicks": 31,
          "midi": 37,
          "name": "C#2",
          "ticks": 6144,
          "time": 32.643648,
          "velocity": 0.952755905511811
        },
        {
          "duration": 0.16470590624999915,
          "durationTicks": 31,
          "midi": 36,
          "name": "C2",
          "ticks": 6144,
          "time": 32.643648,
          "velocity": 1
        },
        {
          "duration": 0.16470590625000625,
          "durationTicks": 31,
          "midi": 37,
          "name": "C#2",
          "ticks": 6168,
          "time": 32.771162249999996,
          "velocity": 0.952755905511811
        },
        {
          "duration": 0.16470590624999915,
          "durationTicks": 31,
          "midi": 37,
          "name": "C#2",
          "ticks": 6192,
          "time": 32.8986765,
          "velocity": 0.952755905511811
        },
        {
          "duration": 0.16470590624999915,
          "durationTicks": 31,
          "midi": 44,
          "name": "G#2",
          "ticks": 6192,
          "time": 32.8986765,
          "velocity": 0.952755905511811
        },
        {
          "duration": 0.16470590625000625,
          "durationTicks": 31,
          "midi": 37,
          "name": "C#2",
          "ticks": 6216,
          "time": 33.02619075,
          "velocity": 0.952755905511811
        },
        {
          "duration": 0.16470590625000625,
          "durationTicks": 31,
          "midi": 44,
          "name": "G#2",
          "ticks": 6216,
          "time": 33.02619075,
          "velocity": 0.952755905511811
        },
        {
          "duration": 0.16470590624999915,
          "durationTicks": 31,
          "midi": 36,
          "name": "C2",
          "ticks": 6240,
          "time": 33.153705,
          "velocity": 1
        },
        {
          "duration": 0.16470590624999915,
          "durationTicks": 31,
          "midi": 44,
          "name": "G#2",
          "ticks": 6240,
          "time": 33.153705,
          "velocity": 0.952755905511811
        },
        {
          "duration": 0.16470590624999915,
          "durationTicks": 31,
          "midi": 44,
          "name": "G#2",
          "ticks": 6264,
          "time": 33.28121925,
          "velocity": 0.952755905511811
        },
        {
          "duration": 0.16470590624999915,
          "durationTicks": 31,
          "midi": 37,
          "name": "C#2",
          "ticks": 6264,
          "time": 33.28121925,
          "velocity": 0.952755905511811
        },
        {
          "duration": 0.16470590624999915,
          "durationTicks": 31,
          "midi": 44,
          "name": "G#2",
          "ticks": 6312,
          "time": 33.53624775,
          "velocity": 0.952755905511811
        },
        {
          "duration": 0.16470590625000625,
          "durationTicks": 31,
          "midi": 37,
          "name": "C#2",
          "ticks": 6336,
          "time": 33.663762,
          "velocity": 0.952755905511811
        },
        {
          "duration": 0.16470590624999915,
          "durationTicks": 31,
          "midi": 44,
          "name": "G#2",
          "ticks": 6384,
          "time": 33.9187905,
          "velocity": 0.952755905511811
        },
        {
          "duration": 0.16470590624999915,
          "durationTicks": 31,
          "midi": 37,
          "name": "C#2",
          "ticks": 6432,
          "time": 34.173819,
          "velocity": 0.952755905511811
        },
        {
          "duration": 0.16470590625000625,
          "durationTicks": 31,
          "midi": 44,
          "name": "G#2",
          "ticks": 6480,
          "time": 34.428847499999996,
          "velocity": 0.952755905511811
        },
        {
          "duration": 0.16470590625000625,
          "durationTicks": 31,
          "midi": 37,
          "name": "C#2",
          "ticks": 6528,
          "time": 34.683876,
          "velocity": 0.952755905511811
        },
        {
          "duration": 0.16470590624999915,
          "durationTicks": 31,
          "midi": 37,
          "name": "C#2",
          "ticks": 6552,
          "time": 34.81139025,
          "velocity": 0.952755905511811
        },
        {
          "duration": 0.16470590624999915,
          "durationTicks": 31,
          "midi": 44,
          "name": "G#2",
          "ticks": 6576,
          "time": 34.9389045,
          "velocity": 0.952755905511811
        },
        {
          "duration": 0.16470590624999915,
          "durationTicks": 31,
          "midi": 37,
          "name": "C#2",
          "ticks": 6576,
          "time": 34.9389045,
          "velocity": 0.952755905511811
        },
        {
          "duration": 0.16470590625000625,
          "durationTicks": 31,
          "midi": 37,
          "name": "C#2",
          "ticks": 6600,
          "time": 35.06641875,
          "velocity": 0.952755905511811
        },
        {
          "duration": 0.16470590625000625,
          "durationTicks": 31,
          "midi": 44,
          "name": "G#2",
          "ticks": 6600,
          "time": 35.06641875,
          "velocity": 0.952755905511811
        },
        {
          "duration": 0.16470590624999915,
          "durationTicks": 31,
          "midi": 44,
          "name": "G#2",
          "ticks": 6624,
          "time": 35.193933,
          "velocity": 0.952755905511811
        },
        {
          "duration": 0.16470590624999915,
          "durationTicks": 31,
          "midi": 37,
          "name": "C#2",
          "ticks": 6648,
          "time": 35.32144725,
          "velocity": 0.952755905511811
        },
        {
          "duration": 0.16470590624999915,
          "durationTicks": 31,
          "midi": 44,
          "name": "G#2",
          "ticks": 6648,
          "time": 35.32144725,
          "velocity": 0.952755905511811
        },
        {
          "duration": 0.16470590624999915,
          "durationTicks": 31,
          "midi": 44,
          "name": "G#2",
          "ticks": 6696,
          "time": 35.57647575,
          "velocity": 0.952755905511811
        },
        {
          "duration": 0.16470590625000625,
          "durationTicks": 31,
          "midi": 37,
          "name": "C#2",
          "ticks": 6720,
          "time": 35.70399,
          "velocity": 0.952755905511811
        },
        {
          "duration": 0.16470590624999915,
          "durationTicks": 31,
          "midi": 44,
          "name": "G#2",
          "ticks": 6768,
          "time": 35.9590185,
          "velocity": 0.952755905511811
        },
        {
          "duration": 0.16470590624999915,
          "durationTicks": 31,
          "midi": 37,
          "name": "C#2",
          "ticks": 6816,
          "time": 36.214047,
          "velocity": 0.952755905511811
        },
        {
          "duration": 0.16470590625000625,
          "durationTicks": 31,
          "midi": 44,
          "name": "G#2",
          "ticks": 6864,
          "time": 36.469075499999995,
          "velocity": 0.952755905511811
        },
        {
          "duration": 0.16470590625000625,
          "durationTicks": 31,
          "midi": 37,
          "name": "C#2",
          "ticks": 6912,
          "time": 36.724104,
          "velocity": 0.952755905511811
        },
        {
          "duration": 0.16470590624999915,
          "durationTicks": 31,
          "midi": 37,
          "name": "C#2",
          "ticks": 6936,
          "time": 36.85161825,
          "velocity": 0.952755905511811
        },
        {
          "duration": 0.16470590624999915,
          "durationTicks": 31,
          "midi": 44,
          "name": "G#2",
          "ticks": 6960,
          "time": 36.9791325,
          "velocity": 0.952755905511811
        },
        {
          "duration": 0.16470590624999915,
          "durationTicks": 31,
          "midi": 37,
          "name": "C#2",
          "ticks": 6960,
          "time": 36.9791325,
          "velocity": 0.952755905511811
        },
        {
          "duration": 0.16470590625000625,
          "durationTicks": 31,
          "midi": 37,
          "name": "C#2",
          "ticks": 6984,
          "time": 37.106646749999996,
          "velocity": 0.952755905511811
        },
        {
          "duration": 0.16470590625000625,
          "durationTicks": 31,
          "midi": 44,
          "name": "G#2",
          "ticks": 6984,
          "time": 37.106646749999996,
          "velocity": 0.952755905511811
        },
        {
          "duration": 0.16470590624999915,
          "durationTicks": 31,
          "midi": 44,
          "name": "G#2",
          "ticks": 7008,
          "time": 37.234161,
          "velocity": 0.952755905511811
        },
        {
          "duration": 0.16470590625000625,
          "durationTicks": 31,
          "midi": 44,
          "name": "G#2",
          "ticks": 7032,
          "time": 37.36167525,
          "velocity": 0.952755905511811
        },
        {
          "duration": 0.16470590625000625,
          "durationTicks": 31,
          "midi": 37,
          "name": "C#2",
          "ticks": 7032,
          "time": 37.36167525,
          "velocity": 0.952755905511811
        },
        {
          "duration": 0.16470590624999915,
          "durationTicks": 31,
          "midi": 44,
          "name": "G#2",
          "ticks": 7080,
          "time": 37.61670375,
          "velocity": 0.952755905511811
        },
        {
          "duration": 0.16470590625000625,
          "durationTicks": 31,
          "midi": 37,
          "name": "C#2",
          "ticks": 7104,
          "time": 37.744218,
          "velocity": 0.952755905511811
        },
        {
          "duration": 0.16470590625000625,
          "durationTicks": 31,
          "midi": 44,
          "name": "G#2",
          "ticks": 7152,
          "time": 37.9992465,
          "velocity": 0.952755905511811
        },
        {
          "duration": 0.16470590624999915,
          "durationTicks": 31,
          "midi": 37,
          "name": "C#2",
          "ticks": 7200,
          "time": 38.254275,
          "velocity": 0.952755905511811
        },
        {
          "duration": 0.16470590624999915,
          "durationTicks": 31,
          "midi": 44,
          "name": "G#2",
          "ticks": 7248,
          "time": 38.5093035,
          "velocity": 0.952755905511811
        },
        {
          "duration": 0.16470590625000625,
          "durationTicks": 31,
          "midi": 37,
          "name": "C#2",
          "ticks": 7296,
          "time": 38.764331999999996,
          "velocity": 0.952755905511811
        },
        {
          "duration": 0.16470590624999915,
          "durationTicks": 31,
          "midi": 37,
          "name": "C#2",
          "ticks": 7320,
          "time": 38.89184625,
          "velocity": 0.952755905511811
        },
        {
          "duration": 0.16470590625000625,
          "durationTicks": 31,
          "midi": 37,
          "name": "C#2",
          "ticks": 7344,
          "time": 39.0193605,
          "velocity": 0.952755905511811
        },
        {
          "duration": 0.16470590625000625,
          "durationTicks": 31,
          "midi": 44,
          "name": "G#2",
          "ticks": 7344,
          "time": 39.0193605,
          "velocity": 0.952755905511811
        },
        {
          "duration": 0.16470590624999915,
          "durationTicks": 31,
          "midi": 44,
          "name": "G#2",
          "ticks": 7368,
          "time": 39.14687475,
          "velocity": 0.952755905511811
        },
        {
          "duration": 0.16470590624999915,
          "durationTicks": 31,
          "midi": 37,
          "name": "C#2",
          "ticks": 7368,
          "time": 39.14687475,
          "velocity": 0.952755905511811
        },
        {
          "duration": 0.16470590624999915,
          "durationTicks": 31,
          "midi": 44,
          "name": "G#2",
          "ticks": 7392,
          "time": 39.274389,
          "velocity": 0.952755905511811
        },
        {
          "duration": 0.16470590625000625,
          "durationTicks": 31,
          "midi": 37,
          "name": "C#2",
          "ticks": 7416,
          "time": 39.40190325,
          "velocity": 0.952755905511811
        },
        {
          "duration": 0.16470590625000625,
          "durationTicks": 31,
          "midi": 44,
          "name": "G#2",
          "ticks": 7416,
          "time": 39.40190325,
          "velocity": 0.952755905511811
        },
        {
          "duration": 0.16470590625000625,
          "durationTicks": 31,
          "midi": 44,
          "name": "G#2",
          "ticks": 7464,
          "time": 39.65693175,
          "velocity": 0.952755905511811
        },
        {
          "duration": 0.16470590625000625,
          "durationTicks": 31,
          "midi": 37,
          "name": "C#2",
          "ticks": 7488,
          "time": 39.784445999999996,
          "velocity": 0.952755905511811
        },
        {
          "duration": 0.16470590625000625,
          "durationTicks": 31,
          "midi": 44,
          "name": "G#2",
          "ticks": 7536,
          "time": 40.0394745,
          "velocity": 0.952755905511811
        },
        {
          "duration": 0.16470590624999915,
          "durationTicks": 31,
          "midi": 37,
          "name": "C#2",
          "ticks": 7584,
          "time": 40.294503,
          "velocity": 0.952755905511811
        },
        {
          "duration": 0.16470590624999915,
          "durationTicks": 31,
          "midi": 44,
          "name": "G#2",
          "ticks": 7632,
          "time": 40.5495315,
          "velocity": 0.952755905511811
        },
        {
          "duration": 0.16470590625000625,
          "durationTicks": 31,
          "midi": 37,
          "name": "C#2",
          "ticks": 7680,
          "time": 40.804559999999995,
          "velocity": 0.952755905511811
        },
        {
          "duration": 0.16470590624999915,
          "durationTicks": 31,
          "midi": 37,
          "name": "C#2",
          "ticks": 7704,
          "time": 40.93207425,
          "velocity": 0.952755905511811
        },
        {
          "duration": 0.16470590625000625,
          "durationTicks": 31,
          "midi": 44,
          "name": "G#2",
          "ticks": 7728,
          "time": 41.0595885,
          "velocity": 0.952755905511811
        },
        {
          "duration": 0.16470590625000625,
          "durationTicks": 31,
          "midi": 37,
          "name": "C#2",
          "ticks": 7728,
          "time": 41.0595885,
          "velocity": 0.952755905511811
        },
        {
          "duration": 0.16470590624999915,
          "durationTicks": 31,
          "midi": 44,
          "name": "G#2",
          "ticks": 7752,
          "time": 41.18710275,
          "velocity": 0.952755905511811
        },
        {
          "duration": 0.16470590624999915,
          "durationTicks": 31,
          "midi": 37,
          "name": "C#2",
          "ticks": 7752,
          "time": 41.18710275,
          "velocity": 0.952755905511811
        },
        {
          "duration": 0.16470590624999915,
          "durationTicks": 31,
          "midi": 44,
          "name": "G#2",
          "ticks": 7776,
          "time": 41.314617,
          "velocity": 0.952755905511811
        },
        {
          "duration": 0.16470590625000625,
          "durationTicks": 31,
          "midi": 44,
          "name": "G#2",
          "ticks": 7800,
          "time": 41.442131249999996,
          "velocity": 0.952755905511811
        },
        {
          "duration": 0.16470590625000625,
          "durationTicks": 31,
          "midi": 37,
          "name": "C#2",
          "ticks": 7800,
          "time": 41.442131249999996,
          "velocity": 0.952755905511811
        },
        {
          "duration": 0.16470590625000625,
          "durationTicks": 31,
          "midi": 44,
          "name": "G#2",
          "ticks": 7848,
          "time": 41.69715975,
          "velocity": 0.952755905511811
        },
        {
          "duration": 0.16470590624999915,
          "durationTicks": 31,
          "midi": 37,
          "name": "C#2",
          "ticks": 7872,
          "time": 41.824674,
          "velocity": 0.952755905511811
        },
        {
          "duration": 0.16470590625000625,
          "durationTicks": 31,
          "midi": 44,
          "name": "G#2",
          "ticks": 7920,
          "time": 42.079702499999996,
          "velocity": 0.952755905511811
        },
        {
          "duration": 0.16470590625000625,
          "durationTicks": 31,
          "midi": 37,
          "name": "C#2",
          "ticks": 7968,
          "time": 42.334731,
          "velocity": 0.952755905511811
        },
        {
          "duration": 0.16470590624999915,
          "durationTicks": 31,
          "midi": 44,
          "name": "G#2",
          "ticks": 8016,
          "time": 42.5897595,
          "velocity": 0.952755905511811
        },
        {
          "duration": 0.16470590624999915,
          "durationTicks": 31,
          "midi": 37,
          "name": "C#2",
          "ticks": 8064,
          "time": 42.844788,
          "velocity": 0.952755905511811
        },
        {
          "duration": 0.16470590624999915,
          "durationTicks": 31,
          "midi": 37,
          "name": "C#2",
          "ticks": 8088,
          "time": 42.97230225,
          "velocity": 0.952755905511811
        },
        {
          "duration": 0.16470590625000625,
          "durationTicks": 31,
          "midi": 44,
          "name": "G#2",
          "ticks": 8112,
          "time": 43.099816499999996,
          "velocity": 0.952755905511811
        },
        {
          "duration": 0.16470590625000625,
          "durationTicks": 31,
          "midi": 37,
          "name": "C#2",
          "ticks": 8112,
          "time": 43.099816499999996,
          "velocity": 0.952755905511811
        },
        {
          "duration": 0.16470590624999915,
          "durationTicks": 31,
          "midi": 37,
          "name": "C#2",
          "ticks": 8136,
          "time": 43.22733075,
          "velocity": 0.952755905511811
        },
        {
          "duration": 0.16470590624999915,
          "durationTicks": 31,
          "midi": 44,
          "name": "G#2",
          "ticks": 8136,
          "time": 43.22733075,
          "velocity": 0.952755905511811
        },
        {
          "duration": 0.16470590625000625,
          "durationTicks": 31,
          "midi": 44,
          "name": "G#2",
          "ticks": 8160,
          "time": 43.354845,
          "velocity": 0.952755905511811
        },
        {
          "duration": 0.16470590624999915,
          "durationTicks": 31,
          "midi": 37,
          "name": "C#2",
          "ticks": 8184,
          "time": 43.48235925,
          "velocity": 0.952755905511811
        },
        {
          "duration": 0.16470590624999915,
          "durationTicks": 31,
          "midi": 44,
          "name": "G#2",
          "ticks": 8184,
          "time": 43.48235925,
          "velocity": 0.952755905511811
        },
        {
          "duration": 0.16470590625000625,
          "durationTicks": 31,
          "midi": 44,
          "name": "G#2",
          "ticks": 8232,
          "time": 43.737387749999996,
          "velocity": 0.952755905511811
        },
        {
          "duration": 0.16470590624999915,
          "durationTicks": 31,
          "midi": 37,
          "name": "C#2",
          "ticks": 8256,
          "time": 43.864902,
          "velocity": 0.952755905511811
        },
        {
          "duration": 0.16470590625000625,
          "durationTicks": 31,
          "midi": 44,
          "name": "G#2",
          "ticks": 8304,
          "time": 44.119930499999995,
          "velocity": 0.952755905511811
        },
        {
          "duration": 0.16470590625000625,
          "durationTicks": 31,
          "midi": 37,
          "name": "C#2",
          "ticks": 8352,
          "time": 44.374959,
          "velocity": 0.952755905511811
        },
        {
          "duration": 0.16470590624999915,
          "durationTicks": 31,
          "midi": 44,
          "name": "G#2",
          "ticks": 8400,
          "time": 44.6299875,
          "velocity": 0.952755905511811
        },
        {
          "duration": 0.16470590624999915,
          "durationTicks": 31,
          "midi": 37,
          "name": "C#2",
          "ticks": 8448,
          "time": 44.885016,
          "velocity": 0.952755905511811
        },
        {
          "duration": 0.16470590625000625,
          "durationTicks": 31,
          "midi": 37,
          "name": "C#2",
          "ticks": 8472,
          "time": 45.01253025,
          "velocity": 0.952755905511811
        },
        {
          "duration": 0.16470590624999915,
          "durationTicks": 31,
          "midi": 44,
          "name": "G#2",
          "ticks": 8496,
          "time": 45.1400445,
          "velocity": 0.952755905511811
        },
        {
          "duration": 0.16470590624999915,
          "durationTicks": 31,
          "midi": 37,
          "name": "C#2",
          "ticks": 8496,
          "time": 45.1400445,
          "velocity": 0.952755905511811
        },
        {
          "duration": 0.16470590624999915,
          "durationTicks": 31,
          "midi": 44,
          "name": "G#2",
          "ticks": 8520,
          "time": 45.26755875,
          "velocity": 0.952755905511811
        },
        {
          "duration": 0.16470590624999915,
          "durationTicks": 31,
          "midi": 37,
          "name": "C#2",
          "ticks": 8520,
          "time": 45.26755875,
          "velocity": 0.952755905511811
        },
        {
          "duration": 0.16470590625000625,
          "durationTicks": 31,
          "midi": 44,
          "name": "G#2",
          "ticks": 8544,
          "time": 45.395073,
          "velocity": 0.952755905511811
        },
        {
          "duration": 0.16470590624999915,
          "durationTicks": 31,
          "midi": 44,
          "name": "G#2",
          "ticks": 8568,
          "time": 45.52258725,
          "velocity": 0.952755905511811
        },
        {
          "duration": 0.16470590624999915,
          "durationTicks": 31,
          "midi": 37,
          "name": "C#2",
          "ticks": 8568,
          "time": 45.52258725,
          "velocity": 0.952755905511811
        },
        {
          "duration": 0.16470590625000625,
          "durationTicks": 31,
          "midi": 44,
          "name": "G#2",
          "ticks": 8616,
          "time": 45.777615749999995,
          "velocity": 0.952755905511811
        },
        {
          "duration": 0.16470590624999915,
          "durationTicks": 31,
          "midi": 37,
          "name": "C#2",
          "ticks": 8640,
          "time": 45.90513,
          "velocity": 0.952755905511811
        },
        {
          "duration": 0.16470590624999915,
          "durationTicks": 31,
          "midi": 44,
          "name": "G#2",
          "ticks": 8688,
          "time": 46.1601585,
          "velocity": 0.952755905511811
        },
        {
          "duration": 0.16470590625000625,
          "durationTicks": 31,
          "midi": 37,
          "name": "C#2",
          "ticks": 8736,
          "time": 46.415186999999996,
          "velocity": 0.952755905511811
        },
        {
          "duration": 0.16470590625000625,
          "durationTicks": 31,
          "midi": 44,
          "name": "G#2",
          "ticks": 8784,
          "time": 46.6702155,
          "velocity": 0.952755905511811
        },
        {
          "duration": 0.16470590624999915,
          "durationTicks": 31,
          "midi": 37,
          "name": "C#2",
          "ticks": 8832,
          "time": 46.925244,
          "velocity": 0.952755905511811
        },
        {
          "duration": 0.16470590625000625,
          "durationTicks": 31,
          "midi": 37,
          "name": "C#2",
          "ticks": 8856,
          "time": 47.05275825,
          "velocity": 0.952755905511811
        },
        {
          "duration": 0.16470590624999915,
          "durationTicks": 31,
          "midi": 44,
          "name": "G#2",
          "ticks": 8880,
          "time": 47.1802725,
          "velocity": 0.952755905511811
        },
        {
          "duration": 0.16470590624999915,
          "durationTicks": 31,
          "midi": 37,
          "name": "C#2",
          "ticks": 8880,
          "time": 47.1802725,
          "velocity": 0.952755905511811
        },
        {
          "duration": 0.16470590624999915,
          "durationTicks": 31,
          "midi": 44,
          "name": "G#2",
          "ticks": 8904,
          "time": 47.30778675,
          "velocity": 0.952755905511811
        },
        {
          "duration": 0.16470590624999915,
          "durationTicks": 31,
          "midi": 37,
          "name": "C#2",
          "ticks": 8904,
          "time": 47.30778675,
          "velocity": 0.952755905511811
        },
        {
          "duration": 0.16470590625000625,
          "durationTicks": 31,
          "midi": 44,
          "name": "G#2",
          "ticks": 8928,
          "time": 47.435300999999995,
          "velocity": 0.952755905511811
        },
        {
          "duration": 0.16470590624999915,
          "durationTicks": 31,
          "midi": 37,
          "name": "C#2",
          "ticks": 8952,
          "time": 47.56281525,
          "velocity": 0.952755905511811
        },
        {
          "duration": 0.16470590624999915,
          "durationTicks": 31,
          "midi": 44,
          "name": "G#2",
          "ticks": 8952,
          "time": 47.56281525,
          "velocity": 0.952755905511811
        },
        {
          "duration": 0.16470590624999915,
          "durationTicks": 31,
          "midi": 44,
          "name": "G#2",
          "ticks": 9000,
          "time": 47.81784375,
          "velocity": 0.952755905511811
        },
        {
          "duration": 0.16470590624999915,
          "durationTicks": 31,
          "midi": 37,
          "name": "C#2",
          "ticks": 9024,
          "time": 47.945358,
          "velocity": 0.952755905511811
        },
        {
          "duration": 0.16470590624999915,
          "durationTicks": 31,
          "midi": 44,
          "name": "G#2",
          "ticks": 9072,
          "time": 48.2003865,
          "velocity": 0.952755905511811
        },
        {
          "duration": 0.16470590625000625,
          "durationTicks": 31,
          "midi": 37,
          "name": "C#2",
          "ticks": 9120,
          "time": 48.455414999999995,
          "velocity": 0.952755905511811
        },
        {
          "duration": 0.16470590625000625,
          "durationTicks": 31,
          "midi": 44,
          "name": "G#2",
          "ticks": 9168,
          "time": 48.7104435,
          "velocity": 0.952755905511811
        },
        {
          "duration": 0.16470590624999915,
          "durationTicks": 31,
          "midi": 37,
          "name": "C#2",
          "ticks": 9216,
          "time": 48.965472,
          "velocity": 0.952755905511811
        },
        {
          "duration": 0.16470590625000625,
          "durationTicks": 31,
          "midi": 37,
          "name": "C#2",
          "ticks": 9240,
          "time": 49.092986249999996,
          "velocity": 0.952755905511811
        },
        {
          "duration": 0.16470590624999915,
          "durationTicks": 31,
          "midi": 44,
          "name": "G#2",
          "ticks": 9264,
          "time": 49.2205005,
          "velocity": 0.952755905511811
        },
        {
          "duration": 0.16470590624999915,
          "durationTicks": 31,
          "midi": 37,
          "name": "C#2",
          "ticks": 9264,
          "time": 49.2205005,
          "velocity": 0.952755905511811
        },
        {
          "duration": 0.16470590625000625,
          "durationTicks": 31,
          "midi": 37,
          "name": "C#2",
          "ticks": 9288,
          "time": 49.34801475,
          "velocity": 0.952755905511811
        },
        {
          "duration": 0.16470590625000625,
          "durationTicks": 31,
          "midi": 44,
          "name": "G#2",
          "ticks": 9288,
          "time": 49.34801475,
          "velocity": 0.952755905511811
        },
        {
          "duration": 0.16470590624999915,
          "durationTicks": 31,
          "midi": 44,
          "name": "G#2",
          "ticks": 9312,
          "time": 49.475529,
          "velocity": 0.952755905511811
        },
        {
          "duration": 0.16470590624999915,
          "durationTicks": 31,
          "midi": 37,
          "name": "C#2",
          "ticks": 9336,
          "time": 49.60304325,
          "velocity": 0.952755905511811
        },
        {
          "duration": 0.16470590624999915,
          "durationTicks": 31,
          "midi": 44,
          "name": "G#2",
          "ticks": 9336,
          "time": 49.60304325,
          "velocity": 0.952755905511811
        },
        {
          "duration": 0.16470590624999915,
          "durationTicks": 31,
          "midi": 44,
          "name": "G#2",
          "ticks": 9384,
          "time": 49.85807175,
          "velocity": 0.952755905511811
        },
        {
          "duration": 0.16470590625000625,
          "durationTicks": 31,
          "midi": 37,
          "name": "C#2",
          "ticks": 9408,
          "time": 49.985586,
          "velocity": 0.952755905511811
        },
        {
          "duration": 0.16470590624999915,
          "durationTicks": 31,
          "midi": 44,
          "name": "G#2",
          "ticks": 9456,
          "time": 50.2406145,
          "velocity": 0.952755905511811
        },
        {
          "duration": 0.16470590624999915,
          "durationTicks": 31,
          "midi": 37,
          "name": "C#2",
          "ticks": 9504,
          "time": 50.495643,
          "velocity": 0.952755905511811
        },
        {
          "duration": 0.16470590625000625,
          "durationTicks": 31,
          "midi": 44,
          "name": "G#2",
          "ticks": 9552,
          "time": 50.750671499999996,
          "velocity": 0.952755905511811
        },
        {
          "duration": 0.16470590625000625,
          "durationTicks": 31,
          "midi": 37,
          "name": "C#2",
          "ticks": 9600,
          "time": 51.0057,
          "velocity": 0.952755905511811
        },
        {
          "duration": 0.16470590624999915,
          "durationTicks": 31,
          "midi": 37,
          "name": "C#2",
          "ticks": 9624,
          "time": 51.13321425,
          "velocity": 0.952755905511811
        },
        {
          "duration": 0.16470590624999915,
          "durationTicks": 31,
          "midi": 37,
          "name": "C#2",
          "ticks": 9648,
          "time": 51.2607285,
          "velocity": 0.952755905511811
        },
        {
          "duration": 0.16470590624999915,
          "durationTicks": 31,
          "midi": 44,
          "name": "G#2",
          "ticks": 9648,
          "time": 51.2607285,
          "velocity": 0.952755905511811
        },
        {
          "duration": 0.16470590625000625,
          "durationTicks": 31,
          "midi": 37,
          "name": "C#2",
          "ticks": 9672,
          "time": 51.388242749999996,
          "velocity": 0.952755905511811
        },
        {
          "duration": 0.16470590625000625,
          "durationTicks": 31,
          "midi": 44,
          "name": "G#2",
          "ticks": 9672,
          "time": 51.388242749999996,
          "velocity": 0.952755905511811
        },
        {
          "duration": 0.16470590624999915,
          "durationTicks": 31,
          "midi": 44,
          "name": "G#2",
          "ticks": 9696,
          "time": 51.515757,
          "velocity": 0.952755905511811
        },
        {
          "duration": 0.16470590624999915,
          "durationTicks": 31,
          "midi": 44,
          "name": "G#2",
          "ticks": 9720,
          "time": 51.64327125,
          "velocity": 0.952755905511811
        },
        {
          "duration": 0.16470590624999915,
          "durationTicks": 31,
          "midi": 37,
          "name": "C#2",
          "ticks": 9720,
          "time": 51.64327125,
          "velocity": 0.952755905511811
        },
        {
          "duration": 0.16470590624999915,
          "durationTicks": 31,
          "midi": 44,
          "name": "G#2",
          "ticks": 9768,
          "time": 51.89829975,
          "velocity": 0.952755905511811
        },
        {
          "duration": 0.16470590625000625,
          "durationTicks": 31,
          "midi": 37,
          "name": "C#2",
          "ticks": 9792,
          "time": 52.025814,
          "velocity": 0.952755905511811
        },
        {
          "duration": 0.16470590624999915,
          "durationTicks": 31,
          "midi": 44,
          "name": "G#2",
          "ticks": 9840,
          "time": 52.2808425,
          "velocity": 0.952755905511811
        },
        {
          "duration": 0.16470590624999915,
          "durationTicks": 31,
          "midi": 37,
          "name": "C#2",
          "ticks": 9888,
          "time": 52.535871,
          "velocity": 0.952755905511811
        },
        {
          "duration": 0.16470590625000625,
          "durationTicks": 31,
          "midi": 44,
          "name": "G#2",
          "ticks": 9936,
          "time": 52.790899499999995,
          "velocity": 0.952755905511811
        },
        {
          "duration": 0.16470590625000625,
          "durationTicks": 31,
          "midi": 37,
          "name": "C#2",
          "ticks": 9984,
          "time": 53.045927999999996,
          "velocity": 0.952755905511811
        },
        {
          "duration": 0.16470590624999915,
          "durationTicks": 31,
          "midi": 37,
          "name": "C#2",
          "ticks": 10008,
          "time": 53.17344225,
          "velocity": 0.952755905511811
        },
        {
          "duration": 0.16470590624999915,
          "durationTicks": 31,
          "midi": 44,
          "name": "G#2",
          "ticks": 10032,
          "time": 53.3009565,
          "velocity": 0.952755905511811
        },
        {
          "duration": 0.16470590624999915,
          "durationTicks": 31,
          "midi": 37,
          "name": "C#2",
          "ticks": 10032,
          "time": 53.3009565,
          "velocity": 0.952755905511811
        },
        {
          "duration": 0.16470590625000625,
          "durationTicks": 31,
          "midi": 44,
          "name": "G#2",
          "ticks": 10056,
          "time": 53.428470749999995,
          "velocity": 0.952755905511811
        },
        {
          "duration": 0.16470590625000625,
          "durationTicks": 31,
          "midi": 37,
          "name": "C#2",
          "ticks": 10056,
          "time": 53.428470749999995,
          "velocity": 0.952755905511811
        },
        {
          "duration": 0.16470590624999915,
          "durationTicks": 31,
          "midi": 44,
          "name": "G#2",
          "ticks": 10080,
          "time": 53.555985,
          "velocity": 0.952755905511811
        },
        {
          "duration": 0.16470590625000625,
          "durationTicks": 31,
          "midi": 44,
          "name": "G#2",
          "ticks": 10104,
          "time": 53.68349925,
          "velocity": 0.952755905511811
        },
        {
          "duration": 0.16470590625000625,
          "durationTicks": 31,
          "midi": 37,
          "name": "C#2",
          "ticks": 10104,
          "time": 53.68349925,
          "velocity": 0.952755905511811
        },
        {
          "duration": 0.16470590624999915,
          "durationTicks": 31,
          "midi": 44,
          "name": "G#2",
          "ticks": 10152,
          "time": 53.93852775,
          "velocity": 0.952755905511811
        },
        {
          "duration": 0.16470590625000625,
          "durationTicks": 31,
          "midi": 37,
          "name": "C#2",
          "ticks": 10176,
          "time": 54.066041999999996,
          "velocity": 0.952755905511811
        },
        {
          "duration": 0.16470590625000625,
          "durationTicks": 31,
          "midi": 44,
          "name": "G#2",
          "ticks": 10224,
          "time": 54.3210705,
          "velocity": 0.952755905511811
        },
        {
          "duration": 0.16470590624999915,
          "durationTicks": 31,
          "midi": 37,
          "name": "C#2",
          "ticks": 10272,
          "time": 54.576099,
          "velocity": 0.952755905511811
        },
        {
          "duration": 0.16470590624999915,
          "durationTicks": 31,
          "midi": 44,
          "name": "G#2",
          "ticks": 10320,
          "time": 54.8311275,
          "velocity": 0.952755905511811
        },
        {
          "duration": 0.16470590625000625,
          "durationTicks": 31,
          "midi": 37,
          "name": "C#2",
          "ticks": 10368,
          "time": 55.086155999999995,
          "velocity": 0.952755905511811
        },
        {
          "duration": 0.16470590624999915,
          "durationTicks": 31,
          "midi": 37,
          "name": "C#2",
          "ticks": 10392,
          "time": 55.21367025,
          "velocity": 0.952755905511811
        },
        {
          "duration": 0.16470590625000625,
          "durationTicks": 31,
          "midi": 44,
          "name": "G#2",
          "ticks": 10416,
          "time": 55.3411845,
          "velocity": 0.952755905511811
        },
        {
          "duration": 0.16470590625000625,
          "durationTicks": 31,
          "midi": 37,
          "name": "C#2",
          "ticks": 10416,
          "time": 55.3411845,
          "velocity": 0.952755905511811
        },
        {
          "duration": 0.16470590624999915,
          "durationTicks": 31,
          "midi": 37,
          "name": "C#2",
          "ticks": 10440,
          "time": 55.46869875,
          "velocity": 0.952755905511811
        },
        {
          "duration": 0.16470590624999915,
          "durationTicks": 31,
          "midi": 44,
          "name": "G#2",
          "ticks": 10440,
          "time": 55.46869875,
          "velocity": 0.952755905511811
        },
        {
          "duration": 0.16470590624999915,
          "durationTicks": 31,
          "midi": 44,
          "name": "G#2",
          "ticks": 10464,
          "time": 55.596213,
          "velocity": 0.952755905511811
        },
        {
          "duration": 0.16470590625000625,
          "durationTicks": 31,
          "midi": 44,
          "name": "G#2",
          "ticks": 10488,
          "time": 55.723727249999996,
          "velocity": 0.952755905511811
        },
        {
          "duration": 0.16470590625000625,
          "durationTicks": 31,
          "midi": 37,
          "name": "C#2",
          "ticks": 10488,
          "time": 55.723727249999996,
          "velocity": 0.952755905511811
        },
        {
          "duration": 0.16470590625000625,
          "durationTicks": 31,
          "midi": 44,
          "name": "G#2",
          "ticks": 10536,
          "time": 55.97875575,
          "velocity": 0.952755905511811
        },
        {
          "duration": 0.16470590625000625,
          "durationTicks": 31,
          "midi": 37,
          "name": "C#2",
          "ticks": 10560,
          "time": 56.106269999999995,
          "velocity": 0.952755905511811
        },
        {
          "duration": 0.16470590625000625,
          "durationTicks": 31,
          "midi": 44,
          "name": "G#2",
          "ticks": 10608,
          "time": 56.3612985,
          "velocity": 0.952755905511811
        },
        {
          "duration": 0.16470590624999915,
          "durationTicks": 31,
          "midi": 37,
          "name": "C#2",
          "ticks": 10656,
          "time": 56.616327,
          "velocity": 0.952755905511811
        },
        {
          "duration": 0.16470590624999915,
          "durationTicks": 31,
          "midi": 44,
          "name": "G#2",
          "ticks": 10704,
          "time": 56.8713555,
          "velocity": 0.952755905511811
        },
        {
          "duration": 0.16470590624999915,
          "durationTicks": 31,
          "midi": 37,
          "name": "C#2",
          "ticks": 10752,
          "time": 57.126384,
          "velocity": 0.952755905511811
        },
        {
          "duration": 0.16470590624999915,
          "durationTicks": 31,
          "midi": 37,
          "name": "C#2",
          "ticks": 10776,
          "time": 57.25389825,
          "velocity": 0.952755905511811
        },
        {
          "duration": 0.16470590625000625,
          "durationTicks": 31,
          "midi": 37,
          "name": "C#2",
          "ticks": 10800,
          "time": 57.381412499999996,
          "velocity": 0.952755905511811
        },
        {
          "duration": 0.16470590625000625,
          "durationTicks": 31,
          "midi": 44,
          "name": "G#2",
          "ticks": 10800,
          "time": 57.381412499999996,
          "velocity": 0.952755905511811
        },
        {
          "duration": 0.16470590624999915,
          "durationTicks": 31,
          "midi": 37,
          "name": "C#2",
          "ticks": 10824,
          "time": 57.50892675,
          "velocity": 0.952755905511811
        },
        {
          "duration": 0.16470590624999915,
          "durationTicks": 31,
          "midi": 44,
          "name": "G#2",
          "ticks": 10824,
          "time": 57.50892675,
          "velocity": 0.952755905511811
        },
        {
          "duration": 0.16470590624999915,
          "durationTicks": 31,
          "midi": 44,
          "name": "G#2",
          "ticks": 10848,
          "time": 57.636441,
          "velocity": 0.952755905511811
        },
        {
          "duration": 0.16470590625000625,
          "durationTicks": 31,
          "midi": 37,
          "name": "C#2",
          "ticks": 10872,
          "time": 57.763955249999995,
          "velocity": 0.952755905511811
        },
        {
          "duration": 0.16470590625000625,
          "durationTicks": 31,
          "midi": 44,
          "name": "G#2",
          "ticks": 10872,
          "time": 57.763955249999995,
          "velocity": 0.952755905511811
        },
        {
          "duration": 0.16470590625000625,
          "durationTicks": 31,
          "midi": 44,
          "name": "G#2",
          "ticks": 10920,
          "time": 58.01898375,
          "velocity": 0.952755905511811
        },
        {
          "duration": 0.16470590624999915,
          "durationTicks": 31,
          "midi": 37,
          "name": "C#2",
          "ticks": 10944,
          "time": 58.146498,
          "velocity": 0.952755905511811
        },
        {
          "duration": 0.16470590625000625,
          "durationTicks": 31,
          "midi": 44,
          "name": "G#2",
          "ticks": 10992,
          "time": 58.401526499999996,
          "velocity": 0.952755905511811
        },
        {
          "duration": 0.16470590625000625,
          "durationTicks": 31,
          "midi": 37,
          "name": "C#2",
          "ticks": 11040,
          "time": 58.656555,
          "velocity": 0.952755905511811
        },
        {
          "duration": 0.16470590624999915,
          "durationTicks": 31,
          "midi": 44,
          "name": "G#2",
          "ticks": 11088,
          "time": 58.9115835,
          "velocity": 0.952755905511811
        },
        {
          "duration": 0.16470590624999915,
          "durationTicks": 31,
          "midi": 37,
          "name": "C#2",
          "ticks": 11136,
          "time": 59.166612,
          "velocity": 0.952755905511811
        },
        {
          "duration": 0.16470590624999915,
          "durationTicks": 31,
          "midi": 37,
          "name": "C#2",
          "ticks": 11160,
          "time": 59.29412625,
          "velocity": 0.952755905511811
        },
        {
          "duration": 0.16470590625000625,
          "durationTicks": 31,
          "midi": 44,
          "name": "G#2",
          "ticks": 11184,
          "time": 59.421640499999995,
          "velocity": 0.952755905511811
        },
        {
          "duration": 0.16470590625000625,
          "durationTicks": 31,
          "midi": 37,
          "name": "C#2",
          "ticks": 11184,
          "time": 59.421640499999995,
          "velocity": 0.952755905511811
        },
        {
          "duration": 0.16470590624999915,
          "durationTicks": 31,
          "midi": 37,
          "name": "C#2",
          "ticks": 11208,
          "time": 59.54915475,
          "velocity": 0.952755905511811
        },
        {
          "duration": 0.16470590624999915,
          "durationTicks": 31,
          "midi": 44,
          "name": "G#2",
          "ticks": 11208,
          "time": 59.54915475,
          "velocity": 0.952755905511811
        },
        {
          "duration": 0.16470590625000625,
          "durationTicks": 31,
          "midi": 44,
          "name": "G#2",
          "ticks": 11232,
          "time": 59.676669,
          "velocity": 0.952755905511811
        },
        {
          "duration": 0.16470590624999915,
          "durationTicks": 31,
          "midi": 44,
          "name": "G#2",
          "ticks": 11256,
          "time": 59.80418325,
          "velocity": 0.952755905511811
        },
        {
          "duration": 0.16470590624999915,
          "durationTicks": 31,
          "midi": 37,
          "name": "C#2",
          "ticks": 11256,
          "time": 59.80418325,
          "velocity": 0.952755905511811
        },
        {
          "duration": 0.16470590625000625,
          "durationTicks": 31,
          "midi": 44,
          "name": "G#2",
          "ticks": 11304,
          "time": 60.059211749999996,
          "velocity": 0.952755905511811
        },
        {
          "duration": 0.16470590624999915,
          "durationTicks": 31,
          "midi": 37,
          "name": "C#2",
          "ticks": 11328,
          "time": 60.186726,
          "velocity": 0.952755905511811
        },
        {
          "duration": 0.16470590625000625,
          "durationTicks": 31,
          "midi": 44,
          "name": "G#2",
          "ticks": 11376,
          "time": 60.441754499999995,
          "velocity": 0.952755905511811
        },
        {
          "duration": 0.16470590625000625,
          "durationTicks": 31,
          "midi": 37,
          "name": "C#2",
          "ticks": 11424,
          "time": 60.696782999999996,
          "velocity": 0.952755905511811
        },
        {
          "duration": 0.16470590624999915,
          "durationTicks": 31,
          "midi": 44,
          "name": "G#2",
          "ticks": 11472,
          "time": 60.9518115,
          "velocity": 0.952755905511811
        },
        {
          "duration": 0.16470590624999915,
          "durationTicks": 31,
          "midi": 37,
          "name": "C#2",
          "ticks": 11520,
          "time": 61.20684,
          "velocity": 0.952755905511811
        },
        {
          "duration": 0.16470590625000625,
          "durationTicks": 31,
          "midi": 37,
          "name": "C#2",
          "ticks": 11544,
          "time": 61.33435425,
          "velocity": 0.952755905511811
        },
        {
          "duration": 0.16470590624999915,
          "durationTicks": 31,
          "midi": 44,
          "name": "G#2",
          "ticks": 11568,
          "time": 61.4618685,
          "velocity": 0.952755905511811
        },
        {
          "duration": 0.16470590624999915,
          "durationTicks": 31,
          "midi": 37,
          "name": "C#2",
          "ticks": 11568,
          "time": 61.4618685,
          "velocity": 0.952755905511811
        },
        {
          "duration": 0.16470590624999915,
          "durationTicks": 31,
          "midi": 37,
          "name": "C#2",
          "ticks": 11592,
          "time": 61.58938275,
          "velocity": 0.952755905511811
        },
        {
          "duration": 0.16470590624999915,
          "durationTicks": 31,
          "midi": 44,
          "name": "G#2",
          "ticks": 11592,
          "time": 61.58938275,
          "velocity": 0.952755905511811
        },
        {
          "duration": 0.16470590625000625,
          "durationTicks": 31,
          "midi": 44,
          "name": "G#2",
          "ticks": 11616,
          "time": 61.716896999999996,
          "velocity": 0.952755905511811
        },
        {
          "duration": 0.16470590624999915,
          "durationTicks": 31,
          "midi": 44,
          "name": "G#2",
          "ticks": 11640,
          "time": 61.84441125,
          "velocity": 0.952755905511811
        },
        {
          "duration": 0.16470590624999915,
          "durationTicks": 31,
          "midi": 37,
          "name": "C#2",
          "ticks": 11640,
          "time": 61.84441125,
          "velocity": 0.952755905511811
        },
        {
          "duration": 0.16470590625000625,
          "durationTicks": 31,
          "midi": 44,
          "name": "G#2",
          "ticks": 11688,
          "time": 62.099439749999995,
          "velocity": 0.952755905511811
        },
        {
          "duration": 0.16470590624999915,
          "durationTicks": 31,
          "midi": 37,
          "name": "C#2",
          "ticks": 11712,
          "time": 62.226954,
          "velocity": 0.952755905511811
        },
        {
          "duration": 0.16470590624999915,
          "durationTicks": 31,
          "midi": 44,
          "name": "G#2",
          "ticks": 11760,
          "time": 62.4819825,
          "velocity": 0.952755905511811
        },
        {
          "duration": 0.16470590625000625,
          "durationTicks": 31,
          "midi": 37,
          "name": "C#2",
          "ticks": 11808,
          "time": 62.737010999999995,
          "velocity": 0.952755905511811
        },
        {
          "duration": 0.16470590625000625,
          "durationTicks": 31,
          "midi": 44,
          "name": "G#2",
          "ticks": 11856,
          "time": 62.9920395,
          "velocity": 0.952755905511811
        },
        {
          "duration": 0.16470590624999915,
          "durationTicks": 31,
          "midi": 37,
          "name": "C#2",
          "ticks": 11904,
          "time": 63.247068,
          "velocity": 0.952755905511811
        },
        {
          "duration": 0.16470590625000625,
          "durationTicks": 31,
          "midi": 37,
          "name": "C#2",
          "ticks": 11928,
          "time": 63.374582249999996,
          "velocity": 0.952755905511811
        },
        {
          "duration": 0.16470590624999915,
          "durationTicks": 31,
          "midi": 44,
          "name": "G#2",
          "ticks": 11952,
          "time": 63.5020965,
          "velocity": 0.952755905511811
        },
        {
          "duration": 0.16470590624999915,
          "durationTicks": 31,
          "midi": 37,
          "name": "C#2",
          "ticks": 11952,
          "time": 63.5020965,
          "velocity": 0.952755905511811
        },
        {
          "duration": 0.16470590624999915,
          "durationTicks": 31,
          "midi": 37,
          "name": "C#2",
          "ticks": 11976,
          "time": 63.62961075,
          "velocity": 0.952755905511811
        },
        {
          "duration": 0.16470590624999915,
          "durationTicks": 31,
          "midi": 44,
          "name": "G#2",
          "ticks": 11976,
          "time": 63.62961075,
          "velocity": 0.952755905511811
        },
        {
          "duration": 0.16470590625000625,
          "durationTicks": 31,
          "midi": 44,
          "name": "G#2",
          "ticks": 12000,
          "time": 63.757124999999995,
          "velocity": 0.952755905511811
        },
        {
          "duration": 0.16470590624999915,
          "durationTicks": 31,
          "midi": 44,
          "name": "G#2",
          "ticks": 12024,
          "time": 63.88463925,
          "velocity": 0.952755905511811
        },
        {
          "duration": 0.16470590624999915,
          "durationTicks": 31,
          "midi": 37,
          "name": "C#2",
          "ticks": 12024,
          "time": 63.88463925,
          "velocity": 0.952755905511811
        },
        {
          "duration": 0.16470590625000625,
          "durationTicks": 31,
          "midi": 44,
          "name": "G#2",
          "ticks": 12072,
          "time": 64.13966775,
          "velocity": 0.952755905511811
        },
        {
          "duration": 0.16470590625000625,
          "durationTicks": 31,
          "midi": 37,
          "name": "C#2",
          "ticks": 12096,
          "time": 64.26718199999999,
          "velocity": 0.952755905511811
        },
        {
          "duration": 0.16470590625000625,
          "durationTicks": 31,
          "midi": 44,
          "name": "G#2",
          "ticks": 12144,
          "time": 64.5222105,
          "velocity": 0.952755905511811
        },
        {
          "duration": 0.16470590625000625,
          "durationTicks": 31,
          "midi": 37,
          "name": "C#2",
          "ticks": 12192,
          "time": 64.777239,
          "velocity": 0.952755905511811
        },
        {
          "duration": 0.16470590624999204,
          "durationTicks": 31,
          "midi": 44,
          "name": "G#2",
          "ticks": 12240,
          "time": 65.0322675,
          "velocity": 0.952755905511811
        },
        {
          "duration": 0.16470590624999204,
          "durationTicks": 31,
          "midi": 37,
          "name": "C#2",
          "ticks": 12288,
          "time": 65.287296,
          "velocity": 0.952755905511811
        },
        {
          "duration": 0.16470590624999204,
          "durationTicks": 31,
          "midi": 37,
          "name": "C#2",
          "ticks": 12312,
          "time": 65.41481025,
          "velocity": 0.952755905511811
        },
        {
          "duration": 0.16470590625000625,
          "durationTicks": 31,
          "midi": 44,
          "name": "G#2",
          "ticks": 12336,
          "time": 65.54232449999999,
          "velocity": 0.952755905511811
        },
        {
          "duration": 0.16470590625000625,
          "durationTicks": 31,
          "midi": 37,
          "name": "C#2",
          "ticks": 12336,
          "time": 65.54232449999999,
          "velocity": 0.952755905511811
        },
        {
          "duration": 0.16470590624999204,
          "durationTicks": 31,
          "midi": 44,
          "name": "G#2",
          "ticks": 12360,
          "time": 65.66983875,
          "velocity": 0.952755905511811
        },
        {
          "duration": 0.16470590624999204,
          "durationTicks": 31,
          "midi": 37,
          "name": "C#2",
          "ticks": 12360,
          "time": 65.66983875,
          "velocity": 0.952755905511811
        },
        {
          "duration": 0.16470590624999204,
          "durationTicks": 31,
          "midi": 44,
          "name": "G#2",
          "ticks": 12384,
          "time": 65.797353,
          "velocity": 0.952755905511811
        },
        {
          "duration": 0.16470590625000625,
          "durationTicks": 31,
          "midi": 44,
          "name": "G#2",
          "ticks": 12408,
          "time": 65.92486724999999,
          "velocity": 0.952755905511811
        },
        {
          "duration": 0.16470590625000625,
          "durationTicks": 31,
          "midi": 37,
          "name": "C#2",
          "ticks": 12408,
          "time": 65.92486724999999,
          "velocity": 0.952755905511811
        },
        {
          "duration": 0.16470590624999204,
          "durationTicks": 31,
          "midi": 44,
          "name": "G#2",
          "ticks": 12456,
          "time": 66.17989575,
          "velocity": 0.952755905511811
        },
        {
          "duration": 0.16470590624999204,
          "durationTicks": 31,
          "midi": 37,
          "name": "C#2",
          "ticks": 12480,
          "time": 66.30741,
          "velocity": 0.952755905511811
        },
        {
          "duration": 0.16470590624999204,
          "durationTicks": 31,
          "midi": 44,
          "name": "G#2",
          "ticks": 12528,
          "time": 66.5624385,
          "velocity": 0.952755905511811
        },
        {
          "duration": 0.16470590625000625,
          "durationTicks": 31,
          "midi": 37,
          "name": "C#2",
          "ticks": 12576,
          "time": 66.817467,
          "velocity": 0.952755905511811
        },
        {
          "duration": 0.16470590624999204,
          "durationTicks": 31,
          "midi": 44,
          "name": "G#2",
          "ticks": 12624,
          "time": 67.0724955,
          "velocity": 0.952755905511811
        },
        {
          "duration": 0.16470590624999204,
          "durationTicks": 31,
          "midi": 37,
          "name": "C#2",
          "ticks": 12672,
          "time": 67.327524,
          "velocity": 0.952755905511811
        },
        {
          "duration": 0.16470590624999204,
          "durationTicks": 31,
          "midi": 37,
          "name": "C#2",
          "ticks": 12696,
          "time": 67.45503825,
          "velocity": 0.952755905511811
        },
        {
          "duration": 0.16470590625000625,
          "durationTicks": 31,
          "midi": 37,
          "name": "C#2",
          "ticks": 12720,
          "time": 67.58255249999999,
          "velocity": 0.952755905511811
        },
        {
          "duration": 0.16470590625000625,
          "durationTicks": 31,
          "midi": 44,
          "name": "G#2",
          "ticks": 12720,
          "time": 67.58255249999999,
          "velocity": 0.952755905511811
        },
        {
          "duration": 0.16470590624999204,
          "durationTicks": 31,
          "midi": 44,
          "name": "G#2",
          "ticks": 12744,
          "time": 67.71006675,
          "velocity": 0.952755905511811
        },
        {
          "duration": 0.16470590624999204,
          "durationTicks": 31,
          "midi": 37,
          "name": "C#2",
          "ticks": 12744,
          "time": 67.71006675,
          "velocity": 0.952755905511811
        },
        {
          "duration": 0.16470590624999204,
          "durationTicks": 31,
          "midi": 44,
          "name": "G#2",
          "ticks": 12768,
          "time": 67.837581,
          "velocity": 0.952755905511811
        },
        {
          "duration": 0.16470590624999204,
          "durationTicks": 31,
          "midi": 44,
          "name": "G#2",
          "ticks": 12792,
          "time": 67.96509525,
          "velocity": 0.952755905511811
        },
        {
          "duration": 0.16470590624999204,
          "durationTicks": 31,
          "midi": 37,
          "name": "C#2",
          "ticks": 12792,
          "time": 67.96509525,
          "velocity": 0.952755905511811
        },
        {
          "duration": 0.16470590624999204,
          "durationTicks": 31,
          "midi": 44,
          "name": "G#2",
          "ticks": 12840,
          "time": 68.22012375,
          "velocity": 0.952755905511811
        },
        {
          "duration": 0.16470590624999204,
          "durationTicks": 31,
          "midi": 37,
          "name": "C#2",
          "ticks": 12864,
          "time": 68.347638,
          "velocity": 0.952755905511811
        },
        {
          "duration": 0.16470590624999204,
          "durationTicks": 31,
          "midi": 44,
          "name": "G#2",
          "ticks": 12912,
          "time": 68.6026665,
          "velocity": 0.952755905511811
        },
        {
          "duration": 0.16470590625000625,
          "durationTicks": 31,
          "midi": 37,
          "name": "C#2",
          "ticks": 12960,
          "time": 68.85769499999999,
          "velocity": 0.952755905511811
        },
        {
          "duration": 0.16470590624999204,
          "durationTicks": 31,
          "midi": 44,
          "name": "G#2",
          "ticks": 13008,
          "time": 69.1127235,
          "velocity": 0.952755905511811
        },
        {
          "duration": 0.16470590624999204,
          "durationTicks": 31,
          "midi": 37,
          "name": "C#2",
          "ticks": 13056,
          "time": 69.367752,
          "velocity": 0.952755905511811
        },
        {
          "duration": 0.16470590624999204,
          "durationTicks": 31,
          "midi": 37,
          "name": "C#2",
          "ticks": 13080,
          "time": 69.49526625,
          "velocity": 0.952755905511811
        },
        {
          "duration": 0.16470590624999204,
          "durationTicks": 31,
          "midi": 37,
          "name": "C#2",
          "ticks": 13104,
          "time": 69.6227805,
          "velocity": 0.952755905511811
        },
        {
          "duration": 0.16470590624999204,
          "durationTicks": 31,
          "midi": 44,
          "name": "G#2",
          "ticks": 13104,
          "time": 69.6227805,
          "velocity": 0.952755905511811
        },
        {
          "duration": 0.16470590624999204,
          "durationTicks": 31,
          "midi": 37,
          "name": "C#2",
          "ticks": 13128,
          "time": 69.75029475,
          "velocity": 0.952755905511811
        },
        {
          "duration": 0.16470590624999204,
          "durationTicks": 31,
          "midi": 44,
          "name": "G#2",
          "ticks": 13128,
          "time": 69.75029475,
          "velocity": 0.952755905511811
        },
        {
          "duration": 0.16470590624999204,
          "durationTicks": 31,
          "midi": 44,
          "name": "G#2",
          "ticks": 13152,
          "time": 69.877809,
          "velocity": 0.952755905511811
        },
        {
          "duration": 0.16470590624999204,
          "durationTicks": 31,
          "midi": 37,
          "name": "C#2",
          "ticks": 13176,
          "time": 70.00532325,
          "velocity": 0.952755905511811
        },
        {
          "duration": 0.16470590624999204,
          "durationTicks": 31,
          "midi": 44,
          "name": "G#2",
          "ticks": 13176,
          "time": 70.00532325,
          "velocity": 0.952755905511811
        },
        {
          "duration": 0.16470590624999204,
          "durationTicks": 31,
          "midi": 44,
          "name": "G#2",
          "ticks": 13224,
          "time": 70.26035175,
          "velocity": 0.952755905511811
        },
        {
          "duration": 0.16470590624999204,
          "durationTicks": 31,
          "midi": 37,
          "name": "C#2",
          "ticks": 13248,
          "time": 70.387866,
          "velocity": 0.952755905511811
        },
        {
          "duration": 0.16470590624999204,
          "durationTicks": 31,
          "midi": 44,
          "name": "G#2",
          "ticks": 13296,
          "time": 70.6428945,
          "velocity": 0.952755905511811
        },
        {
          "duration": 0.16470590625000625,
          "durationTicks": 31,
          "midi": 37,
          "name": "C#2",
          "ticks": 13344,
          "time": 70.89792299999999,
          "velocity": 0.952755905511811
        },
        {
          "duration": 0.16470590624999204,
          "durationTicks": 31,
          "midi": 44,
          "name": "G#2",
          "ticks": 13392,
          "time": 71.1529515,
          "velocity": 0.952755905511811
        },
        {
          "duration": 0.16470590624999204,
          "durationTicks": 31,
          "midi": 37,
          "name": "C#2",
          "ticks": 13440,
          "time": 71.40798,
          "velocity": 0.952755905511811
        },
        {
          "duration": 0.16470590624999204,
          "durationTicks": 31,
          "midi": 37,
          "name": "C#2",
          "ticks": 13464,
          "time": 71.53549425,
          "velocity": 0.952755905511811
        },
        {
          "duration": 0.16470590624999204,
          "durationTicks": 31,
          "midi": 37,
          "name": "C#2",
          "ticks": 13488,
          "time": 71.6630085,
          "velocity": 0.952755905511811
        },
        {
          "duration": 0.16470590624999204,
          "durationTicks": 31,
          "midi": 44,
          "name": "G#2",
          "ticks": 13488,
          "time": 71.6630085,
          "velocity": 0.952755905511811
        },
        {
          "duration": 0.16470590624999204,
          "durationTicks": 31,
          "midi": 37,
          "name": "C#2",
          "ticks": 13512,
          "time": 71.79052275,
          "velocity": 0.952755905511811
        },
        {
          "duration": 0.16470590624999204,
          "durationTicks": 31,
          "midi": 44,
          "name": "G#2",
          "ticks": 13512,
          "time": 71.79052275,
          "velocity": 0.952755905511811
        },
        {
          "duration": 0.16470590624999204,
          "durationTicks": 31,
          "midi": 44,
          "name": "G#2",
          "ticks": 13536,
          "time": 71.918037,
          "velocity": 0.952755905511811
        },
        {
          "duration": 0.16470590624999204,
          "durationTicks": 31,
          "midi": 37,
          "name": "C#2",
          "ticks": 13560,
          "time": 72.04555125,
          "velocity": 0.952755905511811
        },
        {
          "duration": 0.16470590624999204,
          "durationTicks": 31,
          "midi": 44,
          "name": "G#2",
          "ticks": 13560,
          "time": 72.04555125,
          "velocity": 0.952755905511811
        },
        {
          "duration": 0.16470590624999204,
          "durationTicks": 31,
          "midi": 44,
          "name": "G#2",
          "ticks": 13608,
          "time": 72.30057975,
          "velocity": 0.952755905511811
        },
        {
          "duration": 0.16470590624999204,
          "durationTicks": 31,
          "midi": 37,
          "name": "C#2",
          "ticks": 13632,
          "time": 72.428094,
          "velocity": 0.952755905511811
        },
        {
          "duration": 0.16470590624999204,
          "durationTicks": 31,
          "midi": 44,
          "name": "G#2",
          "ticks": 13680,
          "time": 72.6831225,
          "velocity": 0.952755905511811
        },
        {
          "duration": 0.16470590625000625,
          "durationTicks": 31,
          "midi": 37,
          "name": "C#2",
          "ticks": 13728,
          "time": 72.93815099999999,
          "velocity": 0.952755905511811
        },
        {
          "duration": 0.16470590624999204,
          "durationTicks": 31,
          "midi": 44,
          "name": "G#2",
          "ticks": 13776,
          "time": 73.1931795,
          "velocity": 0.952755905511811
        },
        {
          "duration": 0.16470590624999204,
          "durationTicks": 31,
          "midi": 37,
          "name": "C#2",
          "ticks": 13824,
          "time": 73.448208,
          "velocity": 0.952755905511811
        },
        {
          "duration": 0.16470590624999204,
          "durationTicks": 31,
          "midi": 37,
          "name": "C#2",
          "ticks": 13848,
          "time": 73.57572225,
          "velocity": 0.952755905511811
        },
        {
          "duration": 0.16470590624999204,
          "durationTicks": 31,
          "midi": 44,
          "name": "G#2",
          "ticks": 13872,
          "time": 73.7032365,
          "velocity": 0.952755905511811
        },
        {
          "duration": 0.16470590624999204,
          "durationTicks": 31,
          "midi": 37,
          "name": "C#2",
          "ticks": 13872,
          "time": 73.7032365,
          "velocity": 0.952755905511811
        },
        {
          "duration": 0.16470590625000625,
          "durationTicks": 31,
          "midi": 37,
          "name": "C#2",
          "ticks": 13896,
          "time": 73.83075074999999,
          "velocity": 0.952755905511811
        },
        {
          "duration": 0.16470590625000625,
          "durationTicks": 31,
          "midi": 44,
          "name": "G#2",
          "ticks": 13896,
          "time": 73.83075074999999,
          "velocity": 0.952755905511811
        },
        {
          "duration": 0.16470590624999204,
          "durationTicks": 31,
          "midi": 44,
          "name": "G#2",
          "ticks": 13920,
          "time": 73.958265,
          "velocity": 0.952755905511811
        },
        {
          "duration": 0.16470590624999204,
          "durationTicks": 31,
          "midi": 44,
          "name": "G#2",
          "ticks": 13944,
          "time": 74.08577925,
          "velocity": 0.952755905511811
        },
        {
          "duration": 0.16470590624999204,
          "durationTicks": 31,
          "midi": 37,
          "name": "C#2",
          "ticks": 13944,
          "time": 74.08577925,
          "velocity": 0.952755905511811
        },
        {
          "duration": 0.16470590624999204,
          "durationTicks": 31,
          "midi": 44,
          "name": "G#2",
          "ticks": 13992,
          "time": 74.34080775,
          "velocity": 0.952755905511811
        },
        {
          "duration": 0.16470590624999204,
          "durationTicks": 31,
          "midi": 37,
          "name": "C#2",
          "ticks": 14016,
          "time": 74.468322,
          "velocity": 0.952755905511811
        },
        {
          "duration": 0.16470590624999204,
          "durationTicks": 31,
          "midi": 44,
          "name": "G#2",
          "ticks": 14064,
          "time": 74.7233505,
          "velocity": 0.952755905511811
        },
        {
          "duration": 0.16470590624999204,
          "durationTicks": 31,
          "midi": 37,
          "name": "C#2",
          "ticks": 14112,
          "time": 74.978379,
          "velocity": 0.952755905511811
        },
        {
          "duration": 0.16470590624999204,
          "durationTicks": 31,
          "midi": 44,
          "name": "G#2",
          "ticks": 14160,
          "time": 75.2334075,
          "velocity": 0.952755905511811
        },
        {
          "duration": 0.16470590625000625,
          "durationTicks": 31,
          "midi": 37,
          "name": "C#2",
          "ticks": 14208,
          "time": 75.488436,
          "velocity": 0.952755905511811
        },
        {
          "duration": 0.16470590624999204,
          "durationTicks": 31,
          "midi": 37,
          "name": "C#2",
          "ticks": 14232,
          "time": 75.61595025,
          "velocity": 0.952755905511811
        },
        {
          "duration": 0.16470590624999204,
          "durationTicks": 31,
          "midi": 44,
          "name": "G#2",
          "ticks": 14256,
          "time": 75.7434645,
          "velocity": 0.952755905511811
        },
        {
          "duration": 0.16470590624999204,
          "durationTicks": 31,
          "midi": 37,
          "name": "C#2",
          "ticks": 14256,
          "time": 75.7434645,
          "velocity": 0.952755905511811
        },
        {
          "duration": 0.16470590625000625,
          "durationTicks": 31,
          "midi": 44,
          "name": "G#2",
          "ticks": 14280,
          "time": 75.87097874999999,
          "velocity": 0.952755905511811
        },
        {
          "duration": 0.16470590625000625,
          "durationTicks": 31,
          "midi": 37,
          "name": "C#2",
          "ticks": 14280,
          "time": 75.87097874999999,
          "velocity": 0.952755905511811
        },
        {
          "duration": 0.16470590624999204,
          "durationTicks": 31,
          "midi": 44,
          "name": "G#2",
          "ticks": 14304,
          "time": 75.998493,
          "velocity": 0.952755905511811
        },
        {
          "duration": 0.16470590624999204,
          "durationTicks": 31,
          "midi": 37,
          "name": "C#2",
          "ticks": 14328,
          "time": 76.12600725,
          "velocity": 0.952755905511811
        },
        {
          "duration": 0.16470590624999204,
          "durationTicks": 31,
          "midi": 44,
          "name": "G#2",
          "ticks": 14328,
          "time": 76.12600725,
          "velocity": 0.952755905511811
        },
        {
          "duration": 0.16470590624999204,
          "durationTicks": 31,
          "midi": 44,
          "name": "G#2",
          "ticks": 14376,
          "time": 76.38103575,
          "velocity": 0.952755905511811
        },
        {
          "duration": 0.16470590624999204,
          "durationTicks": 31,
          "midi": 37,
          "name": "C#2",
          "ticks": 14400,
          "time": 76.50855,
          "velocity": 0.952755905511811
        },
        {
          "duration": 0.16470590624999204,
          "durationTicks": 31,
          "midi": 44,
          "name": "G#2",
          "ticks": 14448,
          "time": 76.7635785,
          "velocity": 0.952755905511811
        },
        {
          "duration": 0.16470590624999204,
          "durationTicks": 31,
          "midi": 37,
          "name": "C#2",
          "ticks": 14496,
          "time": 77.018607,
          "velocity": 0.952755905511811
        },
        {
          "duration": 0.16470590624999204,
          "durationTicks": 31,
          "midi": 44,
          "name": "G#2",
          "ticks": 14544,
          "time": 77.2736355,
          "velocity": 0.952755905511811
        },
        {
          "duration": 0.16470590625000625,
          "durationTicks": 31,
          "midi": 37,
          "name": "C#2",
          "ticks": 14592,
          "time": 77.52866399999999,
          "velocity": 0.952755905511811
        },
        {
          "duration": 0.16470590624999204,
          "durationTicks": 31,
          "midi": 37,
          "name": "C#2",
          "ticks": 14616,
          "time": 77.65617825,
          "velocity": 0.952755905511811
        },
        {
          "duration": 0.16470590624999204,
          "durationTicks": 31,
          "midi": 44,
          "name": "G#2",
          "ticks": 14640,
          "time": 77.7836925,
          "velocity": 0.952755905511811
        },
        {
          "duration": 0.16470590624999204,
          "durationTicks": 31,
          "midi": 37,
          "name": "C#2",
          "ticks": 14640,
          "time": 77.7836925,
          "velocity": 0.952755905511811
        },
        {
          "duration": 0.16470590625000625,
          "durationTicks": 31,
          "midi": 44,
          "name": "G#2",
          "ticks": 14664,
          "time": 77.91120674999999,
          "velocity": 0.952755905511811
        },
        {
          "duration": 0.16470590625000625,
          "durationTicks": 31,
          "midi": 37,
          "name": "C#2",
          "ticks": 14664,
          "time": 77.91120674999999,
          "velocity": 0.952755905511811
        },
        {
          "duration": 0.16470590624999204,
          "durationTicks": 31,
          "midi": 44,
          "name": "G#2",
          "ticks": 14688,
          "time": 78.038721,
          "velocity": 0.952755905511811
        },
        {
          "duration": 0.16470590624999204,
          "durationTicks": 31,
          "midi": 44,
          "name": "G#2",
          "ticks": 14712,
          "time": 78.16623525,
          "velocity": 0.952755905511811
        },
        {
          "duration": 0.16470590624999204,
          "durationTicks": 31,
          "midi": 37,
          "name": "C#2",
          "ticks": 14712,
          "time": 78.16623525,
          "velocity": 0.952755905511811
        },
        {
          "duration": 0.16470590624999204,
          "durationTicks": 31,
          "midi": 44,
          "name": "G#2",
          "ticks": 14760,
          "time": 78.42126375,
          "velocity": 0.952755905511811
        },
        {
          "duration": 0.16470590624999204,
          "durationTicks": 31,
          "midi": 37,
          "name": "C#2",
          "ticks": 14784,
          "time": 78.548778,
          "velocity": 0.952755905511811
        },
        {
          "duration": 0.16470590625000625,
          "durationTicks": 31,
          "midi": 44,
          "name": "G#2",
          "ticks": 14832,
          "time": 78.8038065,
          "velocity": 0.952755905511811
        },
        {
          "duration": 0.16470590624999204,
          "durationTicks": 31,
          "midi": 37,
          "name": "C#2",
          "ticks": 14880,
          "time": 79.058835,
          "velocity": 0.952755905511811
        },
        {
          "duration": 0.16470590624999204,
          "durationTicks": 31,
          "midi": 44,
          "name": "G#2",
          "ticks": 14928,
          "time": 79.3138635,
          "velocity": 0.952755905511811
        },
        {
          "duration": 0.16470590625000625,
          "durationTicks": 31,
          "midi": 37,
          "name": "C#2",
          "ticks": 14976,
          "time": 79.56889199999999,
          "velocity": 0.952755905511811
        },
        {
          "duration": 0.16470590624999204,
          "durationTicks": 31,
          "midi": 37,
          "name": "C#2",
          "ticks": 15000,
          "time": 79.69640625,
          "velocity": 0.952755905511811
        },
        {
          "duration": 0.16470590624999204,
          "durationTicks": 31,
          "midi": 44,
          "name": "G#2",
          "ticks": 15024,
          "time": 79.8239205,
          "velocity": 0.952755905511811
        },
        {
          "duration": 0.16470590624999204,
          "durationTicks": 31,
          "midi": 37,
          "name": "C#2",
          "ticks": 15024,
          "time": 79.8239205,
          "velocity": 0.952755905511811
        },
        {
          "duration": 0.16470590624999204,
          "durationTicks": 31,
          "midi": 37,
          "name": "C#2",
          "ticks": 15048,
          "time": 79.95143475,
          "velocity": 0.952755905511811
        },
        {
          "duration": 0.16470590624999204,
          "durationTicks": 31,
          "midi": 44,
          "name": "G#2",
          "ticks": 15048,
          "time": 79.95143475,
          "velocity": 0.952755905511811
        },
        {
          "duration": 0.16470590624999204,
          "durationTicks": 31,
          "midi": 44,
          "name": "G#2",
          "ticks": 15072,
          "time": 80.078949,
          "velocity": 0.952755905511811
        },
        {
          "duration": 0.16470590624999204,
          "durationTicks": 31,
          "midi": 37,
          "name": "C#2",
          "ticks": 15096,
          "time": 80.20646325,
          "velocity": 0.952755905511811
        },
        {
          "duration": 0.16470590624999204,
          "durationTicks": 31,
          "midi": 44,
          "name": "G#2",
          "ticks": 15096,
          "time": 80.20646325,
          "velocity": 0.952755905511811
        },
        {
          "duration": 0.16470590624999204,
          "durationTicks": 31,
          "midi": 44,
          "name": "G#2",
          "ticks": 15144,
          "time": 80.46149175,
          "velocity": 0.952755905511811
        },
        {
          "duration": 0.16470590624999204,
          "durationTicks": 31,
          "midi": 37,
          "name": "C#2",
          "ticks": 15168,
          "time": 80.589006,
          "velocity": 0.952755905511811
        },
        {
          "duration": 0.16470590625000625,
          "durationTicks": 31,
          "midi": 44,
          "name": "G#2",
          "ticks": 15216,
          "time": 80.84403449999999,
          "velocity": 0.952755905511811
        },
        {
          "duration": 0.16470590624999204,
          "durationTicks": 31,
          "midi": 37,
          "name": "C#2",
          "ticks": 15264,
          "time": 81.099063,
          "velocity": 0.952755905511811
        },
        {
          "duration": 0.16470590624999204,
          "durationTicks": 31,
          "midi": 44,
          "name": "G#2",
          "ticks": 15312,
          "time": 81.3540915,
          "velocity": 0.952755905511811
        },
        {
          "duration": 0.16470590625000625,
          "durationTicks": 31,
          "midi": 37,
          "name": "C#2",
          "ticks": 15360,
          "time": 81.60911999999999,
          "velocity": 0.952755905511811
        },
        {
          "duration": 0.16470590624999204,
          "durationTicks": 31,
          "midi": 37,
          "name": "C#2",
          "ticks": 15384,
          "time": 81.73663425,
          "velocity": 0.952755905511811
        },
        {
          "duration": 0.16470590624999204,
          "durationTicks": 31,
          "midi": 44,
          "name": "G#2",
          "ticks": 15408,
          "time": 81.8641485,
          "velocity": 0.952755905511811
        },
        {
          "duration": 0.16470590624999204,
          "durationTicks": 31,
          "midi": 37,
          "name": "C#2",
          "ticks": 15408,
          "time": 81.8641485,
          "velocity": 0.952755905511811
        },
        {
          "duration": 0.16470590624999204,
          "durationTicks": 31,
          "midi": 44,
          "name": "G#2",
          "ticks": 15432,
          "time": 81.99166275,
          "velocity": 0.952755905511811
        },
        {
          "duration": 0.16470590624999204,
          "durationTicks": 31,
          "midi": 37,
          "name": "C#2",
          "ticks": 15432,
          "time": 81.99166275,
          "velocity": 0.952755905511811
        },
        {
          "duration": 0.16470590624999204,
          "durationTicks": 31,
          "midi": 44,
          "name": "G#2",
          "ticks": 15456,
          "time": 82.119177,
          "velocity": 0.952755905511811
        },
        {
          "duration": 0.16470590624999204,
          "durationTicks": 31,
          "midi": 44,
          "name": "G#2",
          "ticks": 15480,
          "time": 82.24669125,
          "velocity": 0.952755905511811
        },
        {
          "duration": 0.16470590624999204,
          "durationTicks": 31,
          "midi": 37,
          "name": "C#2",
          "ticks": 15480,
          "time": 82.24669125,
          "velocity": 0.952755905511811
        },
        {
          "duration": 0.16470590625000625,
          "durationTicks": 31,
          "midi": 44,
          "name": "G#2",
          "ticks": 15528,
          "time": 82.50171974999999,
          "velocity": 0.952755905511811
        },
        {
          "duration": 0.16470590624999204,
          "durationTicks": 31,
          "midi": 37,
          "name": "C#2",
          "ticks": 15552,
          "time": 82.629234,
          "velocity": 0.952755905511811
        },
        {
          "duration": 0.16470590625000625,
          "durationTicks": 31,
          "midi": 44,
          "name": "G#2",
          "ticks": 15600,
          "time": 82.88426249999999,
          "velocity": 0.952755905511811
        },
        {
          "duration": 0.16470590624999204,
          "durationTicks": 31,
          "midi": 37,
          "name": "C#2",
          "ticks": 15648,
          "time": 83.139291,
          "velocity": 0.952755905511811
        },
        {
          "duration": 0.16470590624999204,
          "durationTicks": 31,
          "midi": 44,
          "name": "G#2",
          "ticks": 15696,
          "time": 83.3943195,
          "velocity": 0.952755905511811
        },
        {
          "duration": 0.16470590624999204,
          "durationTicks": 31,
          "midi": 37,
          "name": "C#2",
          "ticks": 15744,
          "time": 83.649348,
          "velocity": 0.952755905511811
        },
        {
          "duration": 0.16470590624999204,
          "durationTicks": 31,
          "midi": 37,
          "name": "C#2",
          "ticks": 15768,
          "time": 83.77686225,
          "velocity": 0.952755905511811
        },
        {
          "duration": 0.16470590624999204,
          "durationTicks": 31,
          "midi": 44,
          "name": "G#2",
          "ticks": 15792,
          "time": 83.9043765,
          "velocity": 0.952755905511811
        },
        {
          "duration": 0.16470590624999204,
          "durationTicks": 31,
          "midi": 37,
          "name": "C#2",
          "ticks": 15792,
          "time": 83.9043765,
          "velocity": 0.952755905511811
        },
        {
          "duration": 0.16470590624999204,
          "durationTicks": 31,
          "midi": 37,
          "name": "C#2",
          "ticks": 15816,
          "time": 84.03189075,
          "velocity": 0.952755905511811
        },
        {
          "duration": 0.16470590624999204,
          "durationTicks": 31,
          "midi": 44,
          "name": "G#2",
          "ticks": 15816,
          "time": 84.03189075,
          "velocity": 0.952755905511811
        },
        {
          "duration": 0.16470590625000625,
          "durationTicks": 31,
          "midi": 44,
          "name": "G#2",
          "ticks": 15840,
          "time": 84.15940499999999,
          "velocity": 0.952755905511811
        },
        {
          "duration": 0.16470590624999204,
          "durationTicks": 31,
          "midi": 37,
          "name": "C#2",
          "ticks": 15864,
          "time": 84.28691925,
          "velocity": 0.952755905511811
        },
        {
          "duration": 0.16470590624999204,
          "durationTicks": 31,
          "midi": 44,
          "name": "G#2",
          "ticks": 15864,
          "time": 84.28691925,
          "velocity": 0.952755905511811
        },
        {
          "duration": 0.16470590625000625,
          "durationTicks": 31,
          "midi": 44,
          "name": "G#2",
          "ticks": 15912,
          "time": 84.54194774999999,
          "velocity": 0.952755905511811
        },
        {
          "duration": 0.16470590624999204,
          "durationTicks": 31,
          "midi": 37,
          "name": "C#2",
          "ticks": 15936,
          "time": 84.669462,
          "velocity": 0.952755905511811
        },
        {
          "duration": 0.16470590625000625,
          "durationTicks": 31,
          "midi": 44,
          "name": "G#2",
          "ticks": 15984,
          "time": 84.92449049999999,
          "velocity": 0.952755905511811
        },
        {
          "duration": 0.16470590624999204,
          "durationTicks": 31,
          "midi": 37,
          "name": "C#2",
          "ticks": 16032,
          "time": 85.179519,
          "velocity": 0.952755905511811
        },
        {
          "duration": 0.16470590624999204,
          "durationTicks": 31,
          "midi": 44,
          "name": "G#2",
          "ticks": 16080,
          "time": 85.4345475,
          "velocity": 0.952755905511811
        },
        {
          "duration": 0.16470590624999204,
          "durationTicks": 31,
          "midi": 37,
          "name": "C#2",
          "ticks": 16128,
          "time": 85.689576,
          "velocity": 0.952755905511811
        },
        {
          "duration": 0.16470590625000625,
          "durationTicks": 31,
          "midi": 37,
          "name": "C#2",
          "ticks": 16152,
          "time": 85.81709024999999,
          "velocity": 0.952755905511811
        },
        {
          "duration": 0.16470590624999204,
          "durationTicks": 31,
          "midi": 44,
          "name": "G#2",
          "ticks": 16176,
          "time": 85.9446045,
          "velocity": 0.952755905511811
        },
        {
          "duration": 0.16470590624999204,
          "durationTicks": 31,
          "midi": 37,
          "name": "C#2",
          "ticks": 16176,
          "time": 85.9446045,
          "velocity": 0.952755905511811
        },
        {
          "duration": 0.16470590624999204,
          "durationTicks": 31,
          "midi": 37,
          "name": "C#2",
          "ticks": 16200,
          "time": 86.07211875,
          "velocity": 0.952755905511811
        },
        {
          "duration": 0.16470590624999204,
          "durationTicks": 31,
          "midi": 44,
          "name": "G#2",
          "ticks": 16200,
          "time": 86.07211875,
          "velocity": 0.952755905511811
        },
        {
          "duration": 0.16470590625000625,
          "durationTicks": 31,
          "midi": 44,
          "name": "G#2",
          "ticks": 16224,
          "time": 86.19963299999999,
          "velocity": 0.952755905511811
        },
        {
          "duration": 0.16470590624999204,
          "durationTicks": 31,
          "midi": 44,
          "name": "G#2",
          "ticks": 16248,
          "time": 86.32714725,
          "velocity": 0.952755905511811
        },
        {
          "duration": 0.16470590624999204,
          "durationTicks": 31,
          "midi": 37,
          "name": "C#2",
          "ticks": 16248,
          "time": 86.32714725,
          "velocity": 0.952755905511811
        },
        {
          "duration": 0.16470590625000625,
          "durationTicks": 31,
          "midi": 44,
          "name": "G#2",
          "ticks": 16296,
          "time": 86.58217574999999,
          "velocity": 0.952755905511811
        },
        {
          "duration": 0.16470590624999204,
          "durationTicks": 31,
          "midi": 37,
          "name": "C#2",
          "ticks": 16320,
          "time": 86.70969,
          "velocity": 0.952755905511811
        },
        {
          "duration": 0.16470590624999204,
          "durationTicks": 31,
          "midi": 44,
          "name": "G#2",
          "ticks": 16368,
          "time": 86.9647185,
          "velocity": 0.952755905511811
        },
        {
          "duration": 0.16470590624999204,
          "durationTicks": 31,
          "midi": 37,
          "name": "C#2",
          "ticks": 16416,
          "time": 87.219747,
          "velocity": 0.952755905511811
        },
        {
          "duration": 0.16470590625000625,
          "durationTicks": 31,
          "midi": 44,
          "name": "G#2",
          "ticks": 16464,
          "time": 87.47477549999999,
          "velocity": 0.952755905511811
        },
        {
          "duration": 0.16470590624999204,
          "durationTicks": 31,
          "midi": 37,
          "name": "C#2",
          "ticks": 16512,
          "time": 87.729804,
          "velocity": 0.952755905511811
        },
        {
          "duration": 0.16470590625000625,
          "durationTicks": 31,
          "midi": 37,
          "name": "C#2",
          "ticks": 16536,
          "time": 87.85731824999999,
          "velocity": 0.952755905511811
        },
        {
          "duration": 0.16470590624999204,
          "durationTicks": 31,
          "midi": 44,
          "name": "G#2",
          "ticks": 16560,
          "time": 87.9848325,
          "velocity": 0.952755905511811
        },
        {
          "duration": 0.16470590624999204,
          "durationTicks": 31,
          "midi": 37,
          "name": "C#2",
          "ticks": 16560,
          "time": 87.9848325,
          "velocity": 0.952755905511811
        },
        {
          "duration": 0.16470590624999204,
          "durationTicks": 31,
          "midi": 37,
          "name": "C#2",
          "ticks": 16584,
          "time": 88.11234675,
          "velocity": 0.952755905511811
        },
        {
          "duration": 0.16470590624999204,
          "durationTicks": 31,
          "midi": 44,
          "name": "G#2",
          "ticks": 16584,
          "time": 88.11234675,
          "velocity": 0.952755905511811
        },
        {
          "duration": 0.16470590625000625,
          "durationTicks": 31,
          "midi": 44,
          "name": "G#2",
          "ticks": 16608,
          "time": 88.23986099999999,
          "velocity": 0.952755905511811
        },
        {
          "duration": 0.16470590624999204,
          "durationTicks": 31,
          "midi": 37,
          "name": "C#2",
          "ticks": 16632,
          "time": 88.36737525,
          "velocity": 0.952755905511811
        },
        {
          "duration": 0.16470590624999204,
          "durationTicks": 31,
          "midi": 44,
          "name": "G#2",
          "ticks": 16632,
          "time": 88.36737525,
          "velocity": 0.952755905511811
        },
        {
          "duration": 0.16470590624999204,
          "durationTicks": 31,
          "midi": 44,
          "name": "G#2",
          "ticks": 16680,
          "time": 88.62240375,
          "velocity": 0.952755905511811
        },
        {
          "duration": 0.16470590624999204,
          "durationTicks": 31,
          "midi": 37,
          "name": "C#2",
          "ticks": 16704,
          "time": 88.749918,
          "velocity": 0.952755905511811
        },
        {
          "duration": 0.16470590624999204,
          "durationTicks": 31,
          "midi": 44,
          "name": "G#2",
          "ticks": 16752,
          "time": 89.0049465,
          "velocity": 0.952755905511811
        },
        {
          "duration": 0.16470590624999204,
          "durationTicks": 31,
          "midi": 37,
          "name": "C#2",
          "ticks": 16800,
          "time": 89.259975,
          "velocity": 0.952755905511811
        },
        {
          "duration": 0.16470590625000625,
          "durationTicks": 31,
          "midi": 44,
          "name": "G#2",
          "ticks": 16848,
          "time": 89.51500349999999,
          "velocity": 0.952755905511811
        },
        {
          "duration": 0.16470590624999204,
          "durationTicks": 31,
          "midi": 37,
          "name": "C#2",
          "ticks": 16896,
          "time": 89.770032,
          "velocity": 0.952755905511811
        },
        {
          "duration": 0.16470590625000625,
          "durationTicks": 31,
          "midi": 37,
          "name": "C#2",
          "ticks": 16920,
          "time": 89.89754624999999,
          "velocity": 0.952755905511811
        },
        {
          "duration": 0.16470590624999204,
          "durationTicks": 31,
          "midi": 44,
          "name": "G#2",
          "ticks": 16944,
          "time": 90.0250605,
          "velocity": 0.952755905511811
        },
        {
          "duration": 0.16470590624999204,
          "durationTicks": 31,
          "midi": 37,
          "name": "C#2",
          "ticks": 16944,
          "time": 90.0250605,
          "velocity": 0.952755905511811
        },
        {
          "duration": 0.16470590624999204,
          "durationTicks": 31,
          "midi": 44,
          "name": "G#2",
          "ticks": 16968,
          "time": 90.15257475,
          "velocity": 0.952755905511811
        },
        {
          "duration": 0.16470590624999204,
          "durationTicks": 31,
          "midi": 37,
          "name": "C#2",
          "ticks": 16968,
          "time": 90.15257475,
          "velocity": 0.952755905511811
        },
        {
          "duration": 0.16470590624999204,
          "durationTicks": 31,
          "midi": 44,
          "name": "G#2",
          "ticks": 16992,
          "time": 90.280089,
          "velocity": 0.952755905511811
        },
        {
          "duration": 0.16470590624999204,
          "durationTicks": 31,
          "midi": 44,
          "name": "G#2",
          "ticks": 17016,
          "time": 90.40760325,
          "velocity": 0.952755905511811
        },
        {
          "duration": 0.16470590624999204,
          "durationTicks": 31,
          "midi": 37,
          "name": "C#2",
          "ticks": 17016,
          "time": 90.40760325,
          "velocity": 0.952755905511811
        },
        {
          "duration": 0.16470590624999204,
          "durationTicks": 31,
          "midi": 44,
          "name": "G#2",
          "ticks": 17064,
          "time": 90.66263175,
          "velocity": 0.952755905511811
        },
        {
          "duration": 0.16470590625000625,
          "durationTicks": 31,
          "midi": 37,
          "name": "C#2",
          "ticks": 17088,
          "time": 90.790146,
          "velocity": 0.952755905511811
        },
        {
          "duration": 0.16470590624999204,
          "durationTicks": 31,
          "midi": 44,
          "name": "G#2",
          "ticks": 17136,
          "time": 91.0451745,
          "velocity": 0.952755905511811
        },
        {
          "duration": 0.16470590624999204,
          "durationTicks": 31,
          "midi": 37,
          "name": "C#2",
          "ticks": 17184,
          "time": 91.300203,
          "velocity": 0.952755905511811
        },
        {
          "duration": 0.16470590625000625,
          "durationTicks": 31,
          "midi": 44,
          "name": "G#2",
          "ticks": 17232,
          "time": 91.55523149999999,
          "velocity": 0.952755905511811
        },
        {
          "duration": 0.16470590624999204,
          "durationTicks": 31,
          "midi": 37,
          "name": "C#2",
          "ticks": 17280,
          "time": 91.81026,
          "velocity": 0.952755905511811
        },
        {
          "duration": 0.16470590624999204,
          "durationTicks": 31,
          "midi": 37,
          "name": "C#2",
          "ticks": 17304,
          "time": 91.93777425,
          "velocity": 0.952755905511811
        },
        {
          "duration": 0.16470590624999204,
          "durationTicks": 31,
          "midi": 44,
          "name": "G#2",
          "ticks": 17328,
          "time": 92.0652885,
          "velocity": 0.952755905511811
        },
        {
          "duration": 0.16470590624999204,
          "durationTicks": 31,
          "midi": 37,
          "name": "C#2",
          "ticks": 17328,
          "time": 92.0652885,
          "velocity": 0.952755905511811
        },
        {
          "duration": 0.16470590624999204,
          "durationTicks": 31,
          "midi": 37,
          "name": "C#2",
          "ticks": 17352,
          "time": 92.19280275,
          "velocity": 0.952755905511811
        },
        {
          "duration": 0.16470590624999204,
          "durationTicks": 31,
          "midi": 44,
          "name": "G#2",
          "ticks": 17352,
          "time": 92.19280275,
          "velocity": 0.952755905511811
        },
        {
          "duration": 0.16470590624999204,
          "durationTicks": 31,
          "midi": 44,
          "name": "G#2",
          "ticks": 17376,
          "time": 92.320317,
          "velocity": 0.952755905511811
        },
        {
          "duration": 0.16470590624999204,
          "durationTicks": 31,
          "midi": 44,
          "name": "G#2",
          "ticks": 17400,
          "time": 92.44783125,
          "velocity": 0.952755905511811
        },
        {
          "duration": 0.16470590624999204,
          "durationTicks": 31,
          "midi": 37,
          "name": "C#2",
          "ticks": 17400,
          "time": 92.44783125,
          "velocity": 0.952755905511811
        },
        {
          "duration": 0.16470590624999204,
          "durationTicks": 31,
          "midi": 44,
          "name": "G#2",
          "ticks": 17448,
          "time": 92.70285975,
          "velocity": 0.952755905511811
        },
        {
          "duration": 0.16470590625000625,
          "durationTicks": 31,
          "midi": 37,
          "name": "C#2",
          "ticks": 17472,
          "time": 92.83037399999999,
          "velocity": 0.952755905511811
        },
        {
          "duration": 0.16470590624999204,
          "durationTicks": 31,
          "midi": 44,
          "name": "G#2",
          "ticks": 17520,
          "time": 93.0854025,
          "velocity": 0.952755905511811
        },
        {
          "duration": 0.16470590624999204,
          "durationTicks": 31,
          "midi": 37,
          "name": "C#2",
          "ticks": 17568,
          "time": 93.340431,
          "velocity": 0.952755905511811
        },
        {
          "duration": 0.16470590625000625,
          "durationTicks": 31,
          "midi": 44,
          "name": "G#2",
          "ticks": 17616,
          "time": 93.59545949999999,
          "velocity": 0.952755905511811
        },
        {
          "duration": 0.16470590624999204,
          "durationTicks": 31,
          "midi": 37,
          "name": "C#2",
          "ticks": 17664,
          "time": 93.850488,
          "velocity": 0.952755905511811
        },
        {
          "duration": 0.16470590624999204,
          "durationTicks": 31,
          "midi": 37,
          "name": "C#2",
          "ticks": 17688,
          "time": 93.97800225,
          "velocity": 0.952755905511811
        },
        {
          "duration": 0.16470590624999204,
          "durationTicks": 31,
          "midi": 44,
          "name": "G#2",
          "ticks": 17712,
          "time": 94.1055165,
          "velocity": 0.952755905511811
        },
        {
          "duration": 0.16470590624999204,
          "durationTicks": 31,
          "midi": 37,
          "name": "C#2",
          "ticks": 17712,
          "time": 94.1055165,
          "velocity": 0.952755905511811
        },
        {
          "duration": 0.16470590624999204,
          "durationTicks": 31,
          "midi": 44,
          "name": "G#2",
          "ticks": 17736,
          "time": 94.23303075,
          "velocity": 0.952755905511811
        },
        {
          "duration": 0.16470590624999204,
          "durationTicks": 31,
          "midi": 37,
          "name": "C#2",
          "ticks": 17736,
          "time": 94.23303075,
          "velocity": 0.952755905511811
        },
        {
          "duration": 0.16470590624999204,
          "durationTicks": 31,
          "midi": 44,
          "name": "G#2",
          "ticks": 17760,
          "time": 94.360545,
          "velocity": 0.952755905511811
        },
        {
          "duration": 0.16470590625000625,
          "durationTicks": 31,
          "midi": 44,
          "name": "G#2",
          "ticks": 17784,
          "time": 94.48805924999999,
          "velocity": 0.952755905511811
        },
        {
          "duration": 0.16470590625000625,
          "durationTicks": 31,
          "midi": 37,
          "name": "C#2",
          "ticks": 17784,
          "time": 94.48805924999999,
          "velocity": 0.952755905511811
        },
        {
          "duration": 0.16470590624999204,
          "durationTicks": 31,
          "midi": 44,
          "name": "G#2",
          "ticks": 17832,
          "time": 94.74308775,
          "velocity": 0.952755905511811
        },
        {
          "duration": 0.16470590625000625,
          "durationTicks": 31,
          "midi": 37,
          "name": "C#2",
          "ticks": 17856,
          "time": 94.87060199999999,
          "velocity": 0.952755905511811
        },
        {
          "duration": 0.16470590624999204,
          "durationTicks": 31,
          "midi": 44,
          "name": "G#2",
          "ticks": 17904,
          "time": 95.1256305,
          "velocity": 0.952755905511811
        },
        {
          "duration": 0.16470590624999204,
          "durationTicks": 31,
          "midi": 37,
          "name": "C#2",
          "ticks": 17952,
          "time": 95.380659,
          "velocity": 0.952755905511811
        },
        {
          "duration": 0.16470590624999204,
          "durationTicks": 31,
          "midi": 44,
          "name": "G#2",
          "ticks": 18000,
          "time": 95.6356875,
          "velocity": 0.952755905511811
        },
        {
          "duration": 0.16470590624999204,
          "durationTicks": 31,
          "midi": 37,
          "name": "C#2",
          "ticks": 18048,
          "time": 95.890716,
          "velocity": 0.952755905511811
        },
        {
          "duration": 0.16470590624999204,
          "durationTicks": 31,
          "midi": 37,
          "name": "C#2",
          "ticks": 18072,
          "time": 96.01823025,
          "velocity": 0.952755905511811
        },
        {
          "duration": 0.16470590625000625,
          "durationTicks": 31,
          "midi": 44,
          "name": "G#2",
          "ticks": 18096,
          "time": 96.14574449999999,
          "velocity": 0.952755905511811
        },
        {
          "duration": 0.16470590625000625,
          "durationTicks": 31,
          "midi": 37,
          "name": "C#2",
          "ticks": 18096,
          "time": 96.14574449999999,
          "velocity": 0.952755905511811
        },
        {
          "duration": 0.16470590624999204,
          "durationTicks": 31,
          "midi": 44,
          "name": "G#2",
          "ticks": 18120,
          "time": 96.27325875,
          "velocity": 0.952755905511811
        },
        {
          "duration": 0.16470590624999204,
          "durationTicks": 31,
          "midi": 37,
          "name": "C#2",
          "ticks": 18120,
          "time": 96.27325875,
          "velocity": 0.952755905511811
        },
        {
          "duration": 0.16470590624999204,
          "durationTicks": 31,
          "midi": 44,
          "name": "G#2",
          "ticks": 18144,
          "time": 96.400773,
          "velocity": 0.952755905511811
        },
        {
          "duration": 0.16470590625000625,
          "durationTicks": 31,
          "midi": 44,
          "name": "G#2",
          "ticks": 18168,
          "time": 96.52828724999999,
          "velocity": 0.952755905511811
        },
        {
          "duration": 0.16470590625000625,
          "durationTicks": 31,
          "midi": 37,
          "name": "C#2",
          "ticks": 18168,
          "time": 96.52828724999999,
          "velocity": 0.952755905511811
        },
        {
          "duration": 0.16470590624999204,
          "durationTicks": 31,
          "midi": 44,
          "name": "G#2",
          "ticks": 18216,
          "time": 96.78331575,
          "velocity": 0.952755905511811
        },
        {
          "duration": 0.16470590625000625,
          "durationTicks": 31,
          "midi": 37,
          "name": "C#2",
          "ticks": 18240,
          "time": 96.91082999999999,
          "velocity": 0.952755905511811
        },
        {
          "duration": 0.16470590624999204,
          "durationTicks": 31,
          "midi": 44,
          "name": "G#2",
          "ticks": 18288,
          "time": 97.1658585,
          "velocity": 0.952755905511811
        },
        {
          "duration": 0.16470590624999204,
          "durationTicks": 31,
          "midi": 37,
          "name": "C#2",
          "ticks": 18336,
          "time": 97.420887,
          "velocity": 0.952755905511811
        },
        {
          "duration": 0.16470590624999204,
          "durationTicks": 31,
          "midi": 44,
          "name": "G#2",
          "ticks": 18384,
          "time": 97.6759155,
          "velocity": 0.952755905511811
        },
        {
          "duration": 0.16470590624999204,
          "durationTicks": 31,
          "midi": 37,
          "name": "C#2",
          "ticks": 18432,
          "time": 97.930944,
          "velocity": 0.952755905511811
        },
        {
          "duration": 0.16470590624999204,
          "durationTicks": 31,
          "midi": 37,
          "name": "C#2",
          "ticks": 18456,
          "time": 98.05845825,
          "velocity": 0.952755905511811
        },
        {
          "duration": 0.16470590625000625,
          "durationTicks": 31,
          "midi": 37,
          "name": "C#2",
          "ticks": 18480,
          "time": 98.18597249999999,
          "velocity": 0.952755905511811
        },
        {
          "duration": 0.16470590625000625,
          "durationTicks": 31,
          "midi": 44,
          "name": "G#2",
          "ticks": 18480,
          "time": 98.18597249999999,
          "velocity": 0.952755905511811
        },
        {
          "duration": 0.16470590624999204,
          "durationTicks": 31,
          "midi": 44,
          "name": "G#2",
          "ticks": 18504,
          "time": 98.31348675,
          "velocity": 0.952755905511811
        },
        {
          "duration": 0.16470590624999204,
          "durationTicks": 31,
          "midi": 37,
          "name": "C#2",
          "ticks": 18504,
          "time": 98.31348675,
          "velocity": 0.952755905511811
        },
        {
          "duration": 0.16470590624999204,
          "durationTicks": 31,
          "midi": 44,
          "name": "G#2",
          "ticks": 18528,
          "time": 98.441001,
          "velocity": 0.952755905511811
        },
        {
          "duration": 0.16470590625000625,
          "durationTicks": 31,
          "midi": 37,
          "name": "C#2",
          "ticks": 18552,
          "time": 98.56851524999999,
          "velocity": 0.952755905511811
        },
        {
          "duration": 0.16470590625000625,
          "durationTicks": 31,
          "midi": 44,
          "name": "G#2",
          "ticks": 18552,
          "time": 98.56851524999999,
          "velocity": 0.952755905511811
        },
        {
          "duration": 0.16470590624999204,
          "durationTicks": 31,
          "midi": 44,
          "name": "G#2",
          "ticks": 18600,
          "time": 98.82354375,
          "velocity": 0.952755905511811
        },
        {
          "duration": 0.16470590624999204,
          "durationTicks": 31,
          "midi": 37,
          "name": "C#2",
          "ticks": 18624,
          "time": 98.951058,
          "velocity": 0.952755905511811
        },
        {
          "duration": 0.16470590624999204,
          "durationTicks": 31,
          "midi": 44,
          "name": "G#2",
          "ticks": 18672,
          "time": 99.2060865,
          "velocity": 0.952755905511811
        },
        {
          "duration": 0.16470590625000625,
          "durationTicks": 31,
          "midi": 37,
          "name": "C#2",
          "ticks": 18720,
          "time": 99.46111499999999,
          "velocity": 0.952755905511811
        },
        {
          "duration": 0.16470590624999204,
          "durationTicks": 31,
          "midi": 44,
          "name": "G#2",
          "ticks": 18768,
          "time": 99.7161435,
          "velocity": 0.952755905511811
        },
        {
          "duration": 0.16470590624999204,
          "durationTicks": 31,
          "midi": 37,
          "name": "C#2",
          "ticks": 18816,
          "time": 99.971172,
          "velocity": 0.952755905511811
        },
        {
          "duration": 0.16470590624999204,
          "durationTicks": 31,
          "midi": 37,
          "name": "C#2",
          "ticks": 18840,
          "time": 100.09868625,
          "velocity": 0.952755905511811
        },
        {
          "duration": 0.16470590625000625,
          "durationTicks": 31,
          "midi": 44,
          "name": "G#2",
          "ticks": 18864,
          "time": 100.22620049999999,
          "velocity": 0.952755905511811
        },
        {
          "duration": 0.16470590625000625,
          "durationTicks": 31,
          "midi": 37,
          "name": "C#2",
          "ticks": 18864,
          "time": 100.22620049999999,
          "velocity": 0.952755905511811
        },
        {
          "duration": 0.16470590624999204,
          "durationTicks": 31,
          "midi": 44,
          "name": "G#2",
          "ticks": 18888,
          "time": 100.35371475,
          "velocity": 0.952755905511811
        },
        {
          "duration": 0.16470590624999204,
          "durationTicks": 31,
          "midi": 37,
          "name": "C#2",
          "ticks": 18888,
          "time": 100.35371475,
          "velocity": 0.952755905511811
        },
        {
          "duration": 0.16470590624999204,
          "durationTicks": 31,
          "midi": 44,
          "name": "G#2",
          "ticks": 18912,
          "time": 100.481229,
          "velocity": 0.952755905511811
        },
        {
          "duration": 0.16470590624999204,
          "durationTicks": 31,
          "midi": 44,
          "name": "G#2",
          "ticks": 18936,
          "time": 100.60874325,
          "velocity": 0.952755905511811
        },
        {
          "duration": 0.16470590624999204,
          "durationTicks": 31,
          "midi": 37,
          "name": "C#2",
          "ticks": 18936,
          "time": 100.60874325,
          "velocity": 0.952755905511811
        },
        {
          "duration": 0.16470590624999204,
          "durationTicks": 31,
          "midi": 44,
          "name": "G#2",
          "ticks": 18984,
          "time": 100.86377175,
          "velocity": 0.952755905511811
        },
        {
          "duration": 0.16470590624999204,
          "durationTicks": 31,
          "midi": 37,
          "name": "C#2",
          "ticks": 19008,
          "time": 100.991286,
          "velocity": 0.952755905511811
        },
        {
          "duration": 0.16470590624999204,
          "durationTicks": 31,
          "midi": 44,
          "name": "G#2",
          "ticks": 19056,
          "time": 101.2463145,
          "velocity": 0.952755905511811
        },
        {
          "duration": 0.16470590625000625,
          "durationTicks": 31,
          "midi": 37,
          "name": "C#2",
          "ticks": 19104,
          "time": 101.50134299999999,
          "velocity": 0.952755905511811
        },
        {
          "duration": 0.16470590624999204,
          "durationTicks": 31,
          "midi": 44,
          "name": "G#2",
          "ticks": 19152,
          "time": 101.7563715,
          "velocity": 0.952755905511811
        },
        {
          "duration": 0.16470590624999204,
          "durationTicks": 31,
          "midi": 37,
          "name": "C#2",
          "ticks": 19200,
          "time": 102.0114,
          "velocity": 0.952755905511811
        },
        {
          "duration": 0.16470590624999204,
          "durationTicks": 31,
          "midi": 37,
          "name": "C#2",
          "ticks": 19224,
          "time": 102.13891425,
          "velocity": 0.952755905511811
        },
        {
          "duration": 0.16470590624999204,
          "durationTicks": 31,
          "midi": 44,
          "name": "G#2",
          "ticks": 19248,
          "time": 102.2664285,
          "velocity": 0.952755905511811
        },
        {
          "duration": 0.16470590624999204,
          "durationTicks": 31,
          "midi": 37,
          "name": "C#2",
          "ticks": 19248,
          "time": 102.2664285,
          "velocity": 0.952755905511811
        },
        {
          "duration": 0.16470590624999204,
          "durationTicks": 31,
          "midi": 44,
          "name": "G#2",
          "ticks": 19272,
          "time": 102.39394275,
          "velocity": 0.952755905511811
        },
        {
          "duration": 0.16470590624999204,
          "durationTicks": 31,
          "midi": 37,
          "name": "C#2",
          "ticks": 19272,
          "time": 102.39394275,
          "velocity": 0.952755905511811
        },
        {
          "duration": 0.16470590624999204,
          "durationTicks": 31,
          "midi": 44,
          "name": "G#2",
          "ticks": 19296,
          "time": 102.521457,
          "velocity": 0.952755905511811
        },
        {
          "duration": 0.16470590624999204,
          "durationTicks": 31,
          "midi": 44,
          "name": "G#2",
          "ticks": 19320,
          "time": 102.64897125,
          "velocity": 0.952755905511811
        },
        {
          "duration": 0.16470590624999204,
          "durationTicks": 31,
          "midi": 37,
          "name": "C#2",
          "ticks": 19320,
          "time": 102.64897125,
          "velocity": 0.952755905511811
        },
        {
          "duration": 0.16470590624999204,
          "durationTicks": 31,
          "midi": 44,
          "name": "G#2",
          "ticks": 19368,
          "time": 102.90399975,
          "velocity": 0.952755905511811
        },
        {
          "duration": 0.16470590624999204,
          "durationTicks": 31,
          "midi": 37,
          "name": "C#2",
          "ticks": 19392,
          "time": 103.031514,
          "velocity": 0.952755905511811
        },
        {
          "duration": 0.16470590624999204,
          "durationTicks": 31,
          "midi": 44,
          "name": "G#2",
          "ticks": 19440,
          "time": 103.2865425,
          "velocity": 0.952755905511811
        },
        {
          "duration": 0.16470590625000625,
          "durationTicks": 31,
          "midi": 37,
          "name": "C#2",
          "ticks": 19488,
          "time": 103.54157099999999,
          "velocity": 0.952755905511811
        },
        {
          "duration": 0.16470590624999204,
          "durationTicks": 31,
          "midi": 44,
          "name": "G#2",
          "ticks": 19536,
          "time": 103.7965995,
          "velocity": 0.952755905511811
        },
        {
          "duration": 0.16470590624999204,
          "durationTicks": 31,
          "midi": 37,
          "name": "C#2",
          "ticks": 19584,
          "time": 104.051628,
          "velocity": 0.952755905511811
        },
        {
          "duration": 0.16470590624999204,
          "durationTicks": 31,
          "midi": 37,
          "name": "C#2",
          "ticks": 19608,
          "time": 104.17914225,
          "velocity": 0.952755905511811
        },
        {
          "duration": 0.16470590624999204,
          "durationTicks": 31,
          "midi": 37,
          "name": "C#2",
          "ticks": 19632,
          "time": 104.3066565,
          "velocity": 0.952755905511811
        },
        {
          "duration": 0.16470590624999204,
          "durationTicks": 31,
          "midi": 44,
          "name": "G#2",
          "ticks": 19632,
          "time": 104.3066565,
          "velocity": 0.952755905511811
        },
        {
          "duration": 0.16470590624999204,
          "durationTicks": 31,
          "midi": 44,
          "name": "G#2",
          "ticks": 19656,
          "time": 104.43417074999999,
          "velocity": 0.952755905511811
        },
        {
          "duration": 0.16470590624999204,
          "durationTicks": 31,
          "midi": 37,
          "name": "C#2",
          "ticks": 19656,
          "time": 104.43417074999999,
          "velocity": 0.952755905511811
        },
        {
          "duration": 0.16470590624999204,
          "durationTicks": 31,
          "midi": 44,
          "name": "G#2",
          "ticks": 19680,
          "time": 104.561685,
          "velocity": 0.952755905511811
        },
        {
          "duration": 0.16470590624999204,
          "durationTicks": 31,
          "midi": 37,
          "name": "C#2",
          "ticks": 19704,
          "time": 104.68919925,
          "velocity": 0.952755905511811
        },
        {
          "duration": 0.16470590624999204,
          "durationTicks": 31,
          "midi": 44,
          "name": "G#2",
          "ticks": 19704,
          "time": 104.68919925,
          "velocity": 0.952755905511811
        },
        {
          "duration": 0.16470590624999204,
          "durationTicks": 31,
          "midi": 44,
          "name": "G#2",
          "ticks": 19752,
          "time": 104.94422775,
          "velocity": 0.952755905511811
        },
        {
          "duration": 0.16470590624999204,
          "durationTicks": 31,
          "midi": 37,
          "name": "C#2",
          "ticks": 19776,
          "time": 105.071742,
          "velocity": 0.952755905511811
        },
        {
          "duration": 0.16470590624999204,
          "durationTicks": 31,
          "midi": 44,
          "name": "G#2",
          "ticks": 19824,
          "time": 105.3267705,
          "velocity": 0.952755905511811
        },
        {
          "duration": 0.16470590625000625,
          "durationTicks": 31,
          "midi": 37,
          "name": "C#2",
          "ticks": 19872,
          "time": 105.58179899999999,
          "velocity": 0.952755905511811
        },
        {
          "duration": 0.16470590624999204,
          "durationTicks": 31,
          "midi": 44,
          "name": "G#2",
          "ticks": 19920,
          "time": 105.8368275,
          "velocity": 0.952755905511811
        },
        {
          "duration": 0.16470590624999204,
          "durationTicks": 31,
          "midi": 37,
          "name": "C#2",
          "ticks": 19968,
          "time": 106.09185599999999,
          "velocity": 0.952755905511811
        },
        {
          "duration": 0.16470590624999204,
          "durationTicks": 31,
          "midi": 37,
          "name": "C#2",
          "ticks": 19992,
          "time": 106.21937025,
          "velocity": 0.952755905511811
        },
        {
          "duration": 0.16470590624999204,
          "durationTicks": 31,
          "midi": 44,
          "name": "G#2",
          "ticks": 20016,
          "time": 106.3468845,
          "velocity": 0.952755905511811
        },
        {
          "duration": 0.16470590624999204,
          "durationTicks": 31,
          "midi": 37,
          "name": "C#2",
          "ticks": 20016,
          "time": 106.3468845,
          "velocity": 0.952755905511811
        },
        {
          "duration": 0.16470590625000625,
          "durationTicks": 31,
          "midi": 44,
          "name": "G#2",
          "ticks": 20040,
          "time": 106.47439874999999,
          "velocity": 0.952755905511811
        },
        {
          "duration": 0.16470590625000625,
          "durationTicks": 31,
          "midi": 37,
          "name": "C#2",
          "ticks": 20040,
          "time": 106.47439874999999,
          "velocity": 0.952755905511811
        },
        {
          "duration": 0.16470590624999204,
          "durationTicks": 31,
          "midi": 44,
          "name": "G#2",
          "ticks": 20064,
          "time": 106.601913,
          "velocity": 0.952755905511811
        },
        {
          "duration": 0.16470590624999204,
          "durationTicks": 31,
          "midi": 44,
          "name": "G#2",
          "ticks": 20088,
          "time": 106.72942725,
          "velocity": 0.952755905511811
        },
        {
          "duration": 0.16470590624999204,
          "durationTicks": 31,
          "midi": 37,
          "name": "C#2",
          "ticks": 20088,
          "time": 106.72942725,
          "velocity": 0.952755905511811
        },
        {
          "duration": 0.16470590624999204,
          "durationTicks": 31,
          "midi": 44,
          "name": "G#2",
          "ticks": 20136,
          "time": 106.98445575,
          "velocity": 0.952755905511811
        }
      ],
      "endOfTrackTicks": 21120
    },
    {
      "channel": 0,
      "controlChanges": {
        "6": [
          {
            "number": 6,
            "ticks": 0,
            "time": 0,
            "value": 0.09448818897637795
          }
        ],
        "7": [
          {
            "number": 7,
            "ticks": 0,
            "time": 0,
            "value": 0.7086614173228346
          },
          {
            "number": 7,
            "ticks": 0,
            "time": 0,
            "value": 0.7086614173228346
          }
        ],
        "10": [
          {
            "number": 10,
            "ticks": 0,
            "time": 0,
            "value": 0.5039370078740157
          },
          {
            "number": 10,
            "ticks": 0,
            "time": 0,
            "value": 0.5039370078740157
          }
        ],
        "100": [
          {
            "number": 100,
            "ticks": 0,
            "time": 0,
            "value": 0
          }
        ],
        "101": [
          {
            "number": 101,
            "ticks": 0,
            "time": 0,
            "value": 0
          }
        ]
      },
      "pitchBends": [
        {
          "ticks": 0,
          "time": 0,
          "value": 0.0174560546875
        },
        {
          "ticks": 0,
          "time": 0,
          "value": 0.0174560546875
        }
      ],
      "instrument": {
        "family": "piano",
        "number": 0,
        "name": "acoustic grand piano"
      },
      "name": "overdrive",
      "notes": [],
      "endOfTrackTicks": 21120
    },
    {
      "channel": 4,
      "controlChanges": {
        "6": [
          {
            "number": 6,
            "ticks": 0,
            "time": 0,
            "value": 0.09448818897637795
          },
          {
            "number": 6,
            "ticks": 21120,
            "time": 112.21253999999999,
            "value": 0.09448818897637795
          },
          {
            "number": 6,
            "ticks": 21120,
            "time": 112.21253999999999,
            "value": 0.09448818897637795
          },
          {
            "number": 6,
            "ticks": 21120,
            "time": 112.21253999999999,
            "value": 0.09448818897637795
          }
        ],
        "7": [
          {
            "number": 7,
            "ticks": 0,
            "time": 0,
            "value": 0.7086614173228346
          },
          {
            "number": 7,
            "ticks": 0,
            "time": 0,
            "value": 0.7086614173228346
          },
          {
            "number": 7,
            "ticks": 0,
            "time": 0,
            "value": 0.7086614173228346
          },
          {
            "number": 7,
            "ticks": 21120,
            "time": 112.21253999999999,
            "value": 0.7086614173228346
          },
          {
            "number": 7,
            "ticks": 21120,
            "time": 112.21253999999999,
            "value": 0.7086614173228346
          },
          {
            "number": 7,
            "ticks": 21120,
            "time": 112.21253999999999,
            "value": 0.7086614173228346
          }
        ],
        "10": [
          {
            "number": 10,
            "ticks": 0,
            "time": 0,
            "value": 0.5039370078740157
          },
          {
            "number": 10,
            "ticks": 0,
            "time": 0,
            "value": 0.5039370078740157
          },
          {
            "number": 10,
            "ticks": 0,
            "time": 0,
            "value": 0.5039370078740157
          },
          {
            "number": 10,
            "ticks": 21120,
            "time": 112.21253999999999,
            "value": 0.5039370078740157
          },
          {
            "number": 10,
            "ticks": 21120,
            "time": 112.21253999999999,
            "value": 0.5039370078740157
          },
          {
            "number": 10,
            "ticks": 21120,
            "time": 112.21253999999999,
            "value": 0.5039370078740157
          }
        ],
        "100": [
          {
            "number": 100,
            "ticks": 0,
            "time": 0,
            "value": 0
          },
          {
            "number": 100,
            "ticks": 21120,
            "time": 112.21253999999999,
            "value": 0
          },
          {
            "number": 100,
            "ticks": 21120,
            "time": 112.21253999999999,
            "value": 0
          },
          {
            "number": 100,
            "ticks": 21120,
            "time": 112.21253999999999,
            "value": 0
          }
        ],
        "101": [
          {
            "number": 101,
            "ticks": 0,
            "time": 0,
            "value": 0
          },
          {
            "number": 101,
            "ticks": 21120,
            "time": 112.21253999999999,
            "value": 0
          },
          {
            "number": 101,
            "ticks": 21120,
            "time": 112.21253999999999,
            "value": 0
          },
          {
            "number": 101,
            "ticks": 21120,
            "time": 112.21253999999999,
            "value": 0
          }
        ]
      },
      "pitchBends": [
        {
          "ticks": 0,
          "time": 0,
          "value": 0.0174560546875
        },
        {
          "ticks": 21120,
          "time": 112.21253999999999,
          "value": 0.0174560546875
        },
        {
          "ticks": 21120,
          "time": 112.21253999999999,
          "value": 0.0174560546875
        },
        {
          "ticks": 21120,
          "time": 112.21253999999999,
          "value": 0.0174560546875
        }
      ],
      "instrument": {
        "family": "guitar",
        "number": 29,
        "name": "overdriven guitar"
      },
      "name": "",
      "notes": [
        {
          "duration": 0.11688806249999928,
          "durationTicks": 22,
          "midi": 45,
          "name": "A2",
          "ticks": 3264,
          "time": 17.341938,
          "velocity": 0.7559055118110236
        },
        {
          "duration": 0.11688806249999928,
          "durationTicks": 22,
          "midi": 45,
          "name": "A2",
          "ticks": 3288,
          "time": 17.46945225,
          "velocity": 0.7559055118110236
        },
        {
          "duration": 0.11688806249999928,
          "durationTicks": 22,
          "midi": 57,
          "name": "A3",
          "ticks": 3312,
          "time": 17.5969665,
          "velocity": 0.7559055118110236
        },
        {
          "duration": 0.11688806249999928,
          "durationTicks": 22,
          "midi": 52,
          "name": "E3",
          "ticks": 3360,
          "time": 17.851995,
          "velocity": 0.7559055118110236
        },
        {
          "duration": 0.11688806249999928,
          "durationTicks": 22,
          "midi": 51,
          "name": "D#3",
          "ticks": 3432,
          "time": 18.234537749999998,
          "velocity": 0.7559055118110236
        },
        {
          "duration": 0.11688806249999928,
          "durationTicks": 22,
          "midi": 50,
          "name": "D3",
          "ticks": 3480,
          "time": 18.48956625,
          "velocity": 0.7559055118110236
        },
        {
          "duration": 0.24440231249999655,
          "durationTicks": 46,
          "midi": 48,
          "name": "C3",
          "ticks": 3528,
          "time": 18.74459475,
          "velocity": 0.7559055118110236
        },
        {
          "duration": 0.11688806249999928,
          "durationTicks": 22,
          "midi": 45,
          "name": "A2",
          "ticks": 3576,
          "time": 18.99962325,
          "velocity": 0.7559055118110236
        },
        {
          "duration": 0.11688806249999928,
          "durationTicks": 22,
          "midi": 48,
          "name": "C3",
          "ticks": 3600,
          "time": 19.1271375,
          "velocity": 0.7559055118110236
        },
        {
          "duration": 0.11688806249999573,
          "durationTicks": 22,
          "midi": 50,
          "name": "D3",
          "ticks": 3624,
          "time": 19.25465175,
          "velocity": 0.7559055118110236
        },
        {
          "duration": 0.11688806249999928,
          "durationTicks": 22,
          "midi": 45,
          "name": "A2",
          "ticks": 3648,
          "time": 19.382165999999998,
          "velocity": 0.7559055118110236
        },
        {
          "duration": 0.11688806249999928,
          "durationTicks": 22,
          "midi": 45,
          "name": "A2",
          "ticks": 3672,
          "time": 19.50968025,
          "velocity": 0.7559055118110236
        },
        {
          "duration": 0.11688806249999928,
          "durationTicks": 22,
          "midi": 57,
          "name": "A3",
          "ticks": 3696,
          "time": 19.6371945,
          "velocity": 0.7559055118110236
        },
        {
          "duration": 0.11688806249999928,
          "durationTicks": 22,
          "midi": 52,
          "name": "E3",
          "ticks": 3744,
          "time": 19.892222999999998,
          "velocity": 0.7559055118110236
        },
        {
          "duration": 0.11688806249999928,
          "durationTicks": 22,
          "midi": 51,
          "name": "D#3",
          "ticks": 3816,
          "time": 20.27476575,
          "velocity": 0.7559055118110236
        },
        {
          "duration": 0.11688806249999928,
          "durationTicks": 22,
          "midi": 50,
          "name": "D3",
          "ticks": 3864,
          "time": 20.52979425,
          "velocity": 0.7559055118110236
        },
        {
          "duration": 0.24440231249999655,
          "durationTicks": 46,
          "midi": 48,
          "name": "C3",
          "ticks": 3912,
          "time": 20.78482275,
          "velocity": 0.7559055118110236
        },
        {
          "duration": 0.11688806249999928,
          "durationTicks": 22,
          "midi": 45,
          "name": "A2",
          "ticks": 3960,
          "time": 21.039851249999998,
          "velocity": 0.7559055118110236
        },
        {
          "duration": 0.11688806249999928,
          "durationTicks": 22,
          "midi": 48,
          "name": "C3",
          "ticks": 3984,
          "time": 21.1673655,
          "velocity": 0.7559055118110236
        },
        {
          "duration": 0.11688806249999928,
          "durationTicks": 22,
          "midi": 50,
          "name": "D3",
          "ticks": 4008,
          "time": 21.29487975,
          "velocity": 0.7559055118110236
        },
        {
          "duration": 0.11688806249999573,
          "durationTicks": 22,
          "midi": 41,
          "name": "F2",
          "ticks": 4032,
          "time": 21.422394,
          "velocity": 0.7559055118110236
        },
        {
          "duration": 0.11688806249999928,
          "durationTicks": 22,
          "midi": 41,
          "name": "F2",
          "ticks": 4056,
          "time": 21.549908249999998,
          "velocity": 0.7559055118110236
        },
        {
          "duration": 0.11688806249999928,
          "durationTicks": 22,
          "midi": 57,
          "name": "A3",
          "ticks": 4080,
          "time": 21.6774225,
          "velocity": 0.7559055118110236
        },
        {
          "duration": 0.11688806249999928,
          "durationTicks": 22,
          "midi": 52,
          "name": "E3",
          "ticks": 4128,
          "time": 21.932451,
          "velocity": 0.7559055118110236
        },
        {
          "duration": 0.11688806249999928,
          "durationTicks": 22,
          "midi": 51,
          "name": "D#3",
          "ticks": 4200,
          "time": 22.31499375,
          "velocity": 0.7559055118110236
        },
        {
          "duration": 0.11688806249999573,
          "durationTicks": 22,
          "midi": 50,
          "name": "D3",
          "ticks": 4248,
          "time": 22.57002225,
          "velocity": 0.7559055118110236
        },
        {
          "duration": 0.2444023125000001,
          "durationTicks": 46,
          "midi": 48,
          "name": "C3",
          "ticks": 4296,
          "time": 22.82505075,
          "velocity": 0.7559055118110236
        },
        {
          "duration": 0.11688806249999573,
          "durationTicks": 22,
          "midi": 45,
          "name": "A2",
          "ticks": 4344,
          "time": 23.08007925,
          "velocity": 0.7559055118110236
        },
        {
          "duration": 0.11688806249999928,
          "durationTicks": 22,
          "midi": 48,
          "name": "C3",
          "ticks": 4368,
          "time": 23.207593499999998,
          "velocity": 0.7559055118110236
        },
        {
          "duration": 0.11688806249999928,
          "durationTicks": 22,
          "midi": 50,
          "name": "D3",
          "ticks": 4392,
          "time": 23.33510775,
          "velocity": 0.7559055118110236
        },
        {
          "duration": 0.11688806249999928,
          "durationTicks": 22,
          "midi": 43,
          "name": "G2",
          "ticks": 4416,
          "time": 23.462622,
          "velocity": 0.7559055118110236
        },
        {
          "duration": 0.11688806249999928,
          "durationTicks": 22,
          "midi": 43,
          "name": "G2",
          "ticks": 4440,
          "time": 23.59013625,
          "velocity": 0.7559055118110236
        },
        {
          "duration": 0.11688806249999928,
          "durationTicks": 22,
          "midi": 57,
          "name": "A3",
          "ticks": 4464,
          "time": 23.717650499999998,
          "velocity": 0.7559055118110236
        },
        {
          "duration": 0.11688806249999928,
          "durationTicks": 22,
          "midi": 52,
          "name": "E3",
          "ticks": 4512,
          "time": 23.972679,
          "velocity": 0.7559055118110236
        },
        {
          "duration": 0.11688806249999928,
          "durationTicks": 22,
          "midi": 51,
          "name": "D#3",
          "ticks": 4584,
          "time": 24.35522175,
          "velocity": 0.7559055118110236
        },
        {
          "duration": 0.11688806249999928,
          "durationTicks": 22,
          "midi": 50,
          "name": "D3",
          "ticks": 4632,
          "time": 24.61025025,
          "velocity": 0.7559055118110236
        },
        {
          "duration": 0.2444023125000001,
          "durationTicks": 46,
          "midi": 48,
          "name": "C3",
          "ticks": 4680,
          "time": 24.865278749999998,
          "velocity": 0.7559055118110236
        },
        {
          "duration": 0.11688806249999928,
          "durationTicks": 22,
          "midi": 45,
          "name": "A2",
          "ticks": 4728,
          "time": 25.12030725,
          "velocity": 0.7559055118110236
        },
        {
          "duration": 0.11688806249999573,
          "durationTicks": 22,
          "midi": 48,
          "name": "C3",
          "ticks": 4752,
          "time": 25.2478215,
          "velocity": 0.7559055118110236
        },
        {
          "duration": 0.11688806249999928,
          "durationTicks": 22,
          "midi": 50,
          "name": "D3",
          "ticks": 4776,
          "time": 25.375335749999998,
          "velocity": 0.7559055118110236
        },
        {
          "duration": 0.11688806249999928,
          "durationTicks": 22,
          "midi": 45,
          "name": "A2",
          "ticks": 4800,
          "time": 25.50285,
          "velocity": 0.7559055118110236
        },
        {
          "duration": 0.11688806249999928,
          "durationTicks": 22,
          "midi": 45,
          "name": "A2",
          "ticks": 4824,
          "time": 25.63036425,
          "velocity": 0.7559055118110236
        },
        {
          "duration": 0.11688806249999928,
          "durationTicks": 22,
          "midi": 57,
          "name": "A3",
          "ticks": 4848,
          "time": 25.7578785,
          "velocity": 0.7559055118110236
        },
        {
          "duration": 0.11688806249999928,
          "durationTicks": 22,
          "midi": 52,
          "name": "E3",
          "ticks": 4896,
          "time": 26.012907,
          "velocity": 0.7559055118110236
        },
        {
          "duration": 0.11688806249999928,
          "durationTicks": 22,
          "midi": 51,
          "name": "D#3",
          "ticks": 4968,
          "time": 26.395449749999997,
          "velocity": 0.7559055118110236
        },
        {
          "duration": 0.11688806249999928,
          "durationTicks": 22,
          "midi": 50,
          "name": "D3",
          "ticks": 5016,
          "time": 26.65047825,
          "velocity": 0.7559055118110236
        },
        {
          "duration": 0.24440231249999655,
          "durationTicks": 46,
          "midi": 48,
          "name": "C3",
          "ticks": 5064,
          "time": 26.90550675,
          "velocity": 0.7559055118110236
        },
        {
          "duration": 0.11688806249999928,
          "durationTicks": 22,
          "midi": 45,
          "name": "A2",
          "ticks": 5112,
          "time": 27.16053525,
          "velocity": 0.7559055118110236
        },
        {
          "duration": 0.11688806249999928,
          "durationTicks": 22,
          "midi": 48,
          "name": "C3",
          "ticks": 5136,
          "time": 27.2880495,
          "velocity": 0.7559055118110236
        },
        {
          "duration": 0.11688806249999573,
          "durationTicks": 22,
          "midi": 50,
          "name": "D3",
          "ticks": 5160,
          "time": 27.41556375,
          "velocity": 0.7559055118110236
        },
        {
          "duration": 0.11688806249999928,
          "durationTicks": 22,
          "midi": 45,
          "name": "A2",
          "ticks": 5184,
          "time": 27.543077999999998,
          "velocity": 0.7559055118110236
        },
        {
          "duration": 0.11688806249999928,
          "durationTicks": 22,
          "midi": 45,
          "name": "A2",
          "ticks": 5208,
          "time": 27.67059225,
          "velocity": 0.7559055118110236
        },
        {
          "duration": 0.11688806249999928,
          "durationTicks": 22,
          "midi": 57,
          "name": "A3",
          "ticks": 5232,
          "time": 27.7981065,
          "velocity": 0.7559055118110236
        },
        {
          "duration": 0.11688806249999928,
          "durationTicks": 22,
          "midi": 52,
          "name": "E3",
          "ticks": 5280,
          "time": 28.053134999999997,
          "velocity": 0.7559055118110236
        },
        {
          "duration": 0.11688806249999928,
          "durationTicks": 22,
          "midi": 51,
          "name": "D#3",
          "ticks": 5352,
          "time": 28.43567775,
          "velocity": 0.7559055118110236
        },
        {
          "duration": 0.11688806249999928,
          "durationTicks": 22,
          "midi": 50,
          "name": "D3",
          "ticks": 5400,
          "time": 28.690706249999998,
          "velocity": 0.7559055118110236
        },
        {
          "duration": 0.24440231249999655,
          "durationTicks": 46,
          "midi": 48,
          "name": "C3",
          "ticks": 5448,
          "time": 28.94573475,
          "velocity": 0.7559055118110236
        },
        {
          "duration": 0.11688806249999928,
          "durationTicks": 22,
          "midi": 45,
          "name": "A2",
          "ticks": 5496,
          "time": 29.200763249999998,
          "velocity": 0.7559055118110236
        },
        {
          "duration": 0.11688806249999928,
          "durationTicks": 22,
          "midi": 48,
          "name": "C3",
          "ticks": 5520,
          "time": 29.3282775,
          "velocity": 0.7559055118110236
        },
        {
          "duration": 0.11688806249999928,
          "durationTicks": 22,
          "midi": 50,
          "name": "D3",
          "ticks": 5544,
          "time": 29.45579175,
          "velocity": 0.7559055118110236
        },
        {
          "duration": 0.11688806249999573,
          "durationTicks": 22,
          "midi": 45,
          "name": "A2",
          "ticks": 5568,
          "time": 29.583306,
          "velocity": 0.7559055118110236
        },
        {
          "duration": 0.11688806249999928,
          "durationTicks": 22,
          "midi": 45,
          "name": "A2",
          "ticks": 5592,
          "time": 29.710820249999998,
          "velocity": 0.7559055118110236
        },
        {
          "duration": 0.11688806249999928,
          "durationTicks": 22,
          "midi": 57,
          "name": "A3",
          "ticks": 5616,
          "time": 29.8383345,
          "velocity": 0.7559055118110236
        },
        {
          "duration": 0.11688806249999928,
          "durationTicks": 22,
          "midi": 52,
          "name": "E3",
          "ticks": 5664,
          "time": 30.093363,
          "velocity": 0.7559055118110236
        },
        {
          "duration": 0.11688806249999928,
          "durationTicks": 22,
          "midi": 51,
          "name": "D#3",
          "ticks": 5736,
          "time": 30.47590575,
          "velocity": 0.7559055118110236
        },
        {
          "duration": 0.11688806249999573,
          "durationTicks": 22,
          "midi": 50,
          "name": "D3",
          "ticks": 5784,
          "time": 30.73093425,
          "velocity": 0.7559055118110236
        },
        {
          "duration": 0.2444023125000001,
          "durationTicks": 46,
          "midi": 48,
          "name": "C3",
          "ticks": 5832,
          "time": 30.98596275,
          "velocity": 0.7559055118110236
        },
        {
          "duration": 0.11688806249999573,
          "durationTicks": 22,
          "midi": 45,
          "name": "A2",
          "ticks": 5880,
          "time": 31.24099125,
          "velocity": 0.7559055118110236
        },
        {
          "duration": 0.11688806249999928,
          "durationTicks": 22,
          "midi": 48,
          "name": "C3",
          "ticks": 5904,
          "time": 31.368505499999998,
          "velocity": 0.7559055118110236
        },
        {
          "duration": 0.11688806249999928,
          "durationTicks": 22,
          "midi": 50,
          "name": "D3",
          "ticks": 5928,
          "time": 31.49601975,
          "velocity": 0.7559055118110236
        },
        {
          "duration": 0.11688806249999928,
          "durationTicks": 22,
          "midi": 45,
          "name": "A2",
          "ticks": 5952,
          "time": 31.623534,
          "velocity": 0.7559055118110236
        },
        {
          "duration": 0.11688806249999928,
          "durationTicks": 22,
          "midi": 45,
          "name": "A2",
          "ticks": 5976,
          "time": 31.75104825,
          "velocity": 0.7559055118110236
        },
        {
          "duration": 0.11688806249999928,
          "durationTicks": 22,
          "midi": 57,
          "name": "A3",
          "ticks": 6000,
          "time": 31.878562499999997,
          "velocity": 0.7559055118110236
        },
        {
          "duration": 0.11688806250000283,
          "durationTicks": 22,
          "midi": 52,
          "name": "E3",
          "ticks": 6048,
          "time": 32.133590999999996,
          "velocity": 0.7559055118110236
        },
        {
          "duration": 0.11688806249999573,
          "durationTicks": 22,
          "midi": 51,
          "name": "D#3",
          "ticks": 6120,
          "time": 32.51613375,
          "velocity": 0.7559055118110236
        },
        {
          "duration": 0.11688806250000283,
          "durationTicks": 22,
          "midi": 50,
          "name": "D3",
          "ticks": 6168,
          "time": 32.771162249999996,
          "velocity": 0.7559055118110236
        },
        {
          "duration": 0.2444023125000001,
          "durationTicks": 46,
          "midi": 48,
          "name": "C3",
          "ticks": 6216,
          "time": 33.02619075,
          "velocity": 0.7559055118110236
        },
        {
          "duration": 0.11688806250000283,
          "durationTicks": 22,
          "midi": 45,
          "name": "A2",
          "ticks": 6264,
          "time": 33.28121925,
          "velocity": 0.7559055118110236
        },
        {
          "duration": 0.11688806250000283,
          "durationTicks": 22,
          "midi": 48,
          "name": "C3",
          "ticks": 6288,
          "time": 33.4087335,
          "velocity": 0.7559055118110236
        },
        {
          "duration": 0.11688806250000283,
          "durationTicks": 22,
          "midi": 50,
          "name": "D3",
          "ticks": 6312,
          "time": 33.53624775,
          "velocity": 0.7559055118110236
        },
        {
          "duration": 0.11688806250000283,
          "durationTicks": 22,
          "midi": 45,
          "name": "A2",
          "ticks": 6336,
          "time": 33.663762,
          "velocity": 0.7559055118110236
        },
        {
          "duration": 0.11688806250000283,
          "durationTicks": 22,
          "midi": 45,
          "name": "A2",
          "ticks": 6360,
          "time": 33.791276249999996,
          "velocity": 0.7559055118110236
        },
        {
          "duration": 0.11688806250000283,
          "durationTicks": 22,
          "midi": 57,
          "name": "A3",
          "ticks": 6384,
          "time": 33.9187905,
          "velocity": 0.7559055118110236
        },
        {
          "duration": 0.11688806250000283,
          "durationTicks": 22,
          "midi": 52,
          "name": "E3",
          "ticks": 6432,
          "time": 34.173819,
          "velocity": 0.7559055118110236
        },
        {
          "duration": 0.11688806250000283,
          "durationTicks": 22,
          "midi": 51,
          "name": "D#3",
          "ticks": 6504,
          "time": 34.55636175,
          "velocity": 0.7559055118110236
        },
        {
          "duration": 0.11688806249999573,
          "durationTicks": 22,
          "midi": 50,
          "name": "D3",
          "ticks": 6552,
          "time": 34.81139025,
          "velocity": 0.7559055118110236
        },
        {
          "duration": 0.2444023125000072,
          "durationTicks": 46,
          "midi": 48,
          "name": "C3",
          "ticks": 6600,
          "time": 35.06641875,
          "velocity": 0.7559055118110236
        },
        {
          "duration": 0.11688806250000283,
          "durationTicks": 22,
          "midi": 45,
          "name": "A2",
          "ticks": 6648,
          "time": 35.32144725,
          "velocity": 0.7559055118110236
        },
        {
          "duration": 0.11688806250000283,
          "durationTicks": 22,
          "midi": 48,
          "name": "C3",
          "ticks": 6672,
          "time": 35.448961499999996,
          "velocity": 0.7559055118110236
        },
        {
          "duration": 0.11688806250000283,
          "durationTicks": 22,
          "midi": 50,
          "name": "D3",
          "ticks": 6696,
          "time": 35.57647575,
          "velocity": 0.7559055118110236
        },
        {
          "duration": 0.11688806250000283,
          "durationTicks": 22,
          "midi": 45,
          "name": "A2",
          "ticks": 6720,
          "time": 35.70399,
          "velocity": 0.7559055118110236
        },
        {
          "duration": 0.11688806250000283,
          "durationTicks": 22,
          "midi": 45,
          "name": "A2",
          "ticks": 6744,
          "time": 35.83150425,
          "velocity": 0.7559055118110236
        },
        {
          "duration": 0.11688806250000283,
          "durationTicks": 22,
          "midi": 57,
          "name": "A3",
          "ticks": 6768,
          "time": 35.9590185,
          "velocity": 0.7559055118110236
        },
        {
          "duration": 0.11688806250000283,
          "durationTicks": 22,
          "midi": 52,
          "name": "E3",
          "ticks": 6816,
          "time": 36.214047,
          "velocity": 0.7559055118110236
        },
        {
          "duration": 0.11688806250000283,
          "durationTicks": 22,
          "midi": 51,
          "name": "D#3",
          "ticks": 6888,
          "time": 36.59658975,
          "velocity": 0.7559055118110236
        },
        {
          "duration": 0.11688806250000283,
          "durationTicks": 22,
          "midi": 50,
          "name": "D3",
          "ticks": 6936,
          "time": 36.85161825,
          "velocity": 0.7559055118110236
        },
        {
          "duration": 0.2444023125000072,
          "durationTicks": 46,
          "midi": 48,
          "name": "C3",
          "ticks": 6984,
          "time": 37.106646749999996,
          "velocity": 0.7559055118110236
        },
        {
          "duration": 0.11688806250000283,
          "durationTicks": 22,
          "midi": 45,
          "name": "A2",
          "ticks": 7032,
          "time": 37.36167525,
          "velocity": 0.7559055118110236
        },
        {
          "duration": 0.11688806249999573,
          "durationTicks": 22,
          "midi": 48,
          "name": "C3",
          "ticks": 7056,
          "time": 37.4891895,
          "velocity": 0.7559055118110236
        },
        {
          "duration": 0.11688806250000283,
          "durationTicks": 22,
          "midi": 50,
          "name": "D3",
          "ticks": 7080,
          "time": 37.61670375,
          "velocity": 0.7559055118110236
        },
        {
          "duration": 0.11688806250000283,
          "durationTicks": 22,
          "midi": 45,
          "name": "A2",
          "ticks": 7104,
          "time": 37.744218,
          "velocity": 0.7559055118110236
        },
        {
          "duration": 0.11688806250000283,
          "durationTicks": 22,
          "midi": 45,
          "name": "A2",
          "ticks": 7128,
          "time": 37.87173225,
          "velocity": 0.7559055118110236
        },
        {
          "duration": 0.11688806250000283,
          "durationTicks": 22,
          "midi": 57,
          "name": "A3",
          "ticks": 7152,
          "time": 37.9992465,
          "velocity": 0.7559055118110236
        },
        {
          "duration": 0.11688806250000283,
          "durationTicks": 22,
          "midi": 52,
          "name": "E3",
          "ticks": 7200,
          "time": 38.254275,
          "velocity": 0.7559055118110236
        },
        {
          "duration": 0.11688806250000283,
          "durationTicks": 22,
          "midi": 51,
          "name": "D#3",
          "ticks": 7272,
          "time": 38.63681775,
          "velocity": 0.7559055118110236
        },
        {
          "duration": 0.11688806250000283,
          "durationTicks": 22,
          "midi": 50,
          "name": "D3",
          "ticks": 7320,
          "time": 38.89184625,
          "velocity": 0.7559055118110236
        },
        {
          "duration": 0.2444023125000001,
          "durationTicks": 46,
          "midi": 48,
          "name": "C3",
          "ticks": 7368,
          "time": 39.14687475,
          "velocity": 0.7559055118110236
        },
        {
          "duration": 0.11688806250000283,
          "durationTicks": 22,
          "midi": 45,
          "name": "A2",
          "ticks": 7416,
          "time": 39.40190325,
          "velocity": 0.7559055118110236
        },
        {
          "duration": 0.11688806250000283,
          "durationTicks": 22,
          "midi": 48,
          "name": "C3",
          "ticks": 7440,
          "time": 39.5294175,
          "velocity": 0.7559055118110236
        },
        {
          "duration": 0.11688806250000283,
          "durationTicks": 22,
          "midi": 50,
          "name": "D3",
          "ticks": 7464,
          "time": 39.65693175,
          "velocity": 0.7559055118110236
        },
        {
          "duration": 0.11688806250000283,
          "durationTicks": 22,
          "midi": 45,
          "name": "A2",
          "ticks": 7488,
          "time": 39.784445999999996,
          "velocity": 0.7559055118110236
        },
        {
          "duration": 0.11688806250000283,
          "durationTicks": 22,
          "midi": 45,
          "name": "A2",
          "ticks": 7512,
          "time": 39.91196025,
          "velocity": 0.7559055118110236
        },
        {
          "duration": 0.11688806250000283,
          "durationTicks": 22,
          "midi": 57,
          "name": "A3",
          "ticks": 7536,
          "time": 40.0394745,
          "velocity": 0.7559055118110236
        },
        {
          "duration": 0.11688806250000283,
          "durationTicks": 22,
          "midi": 52,
          "name": "E3",
          "ticks": 7584,
          "time": 40.294503,
          "velocity": 0.7559055118110236
        },
        {
          "duration": 0.11688806250000283,
          "durationTicks": 22,
          "midi": 51,
          "name": "D#3",
          "ticks": 7656,
          "time": 40.67704575,
          "velocity": 0.7559055118110236
        },
        {
          "duration": 0.11688806250000283,
          "durationTicks": 22,
          "midi": 50,
          "name": "D3",
          "ticks": 7704,
          "time": 40.93207425,
          "velocity": 0.7559055118110236
        },
        {
          "duration": 0.2444023125000001,
          "durationTicks": 46,
          "midi": 48,
          "name": "C3",
          "ticks": 7752,
          "time": 41.18710275,
          "velocity": 0.7559055118110236
        },
        {
          "duration": 0.11688806250000283,
          "durationTicks": 22,
          "midi": 45,
          "name": "A2",
          "ticks": 7800,
          "time": 41.442131249999996,
          "velocity": 0.7559055118110236
        },
        {
          "duration": 0.11688806250000283,
          "durationTicks": 22,
          "midi": 48,
          "name": "C3",
          "ticks": 7824,
          "time": 41.5696455,
          "velocity": 0.7559055118110236
        },
        {
          "duration": 0.11688806250000283,
          "durationTicks": 22,
          "midi": 50,
          "name": "D3",
          "ticks": 7848,
          "time": 41.69715975,
          "velocity": 0.7559055118110236
        },
        {
          "duration": 0.11688806250000283,
          "durationTicks": 22,
          "midi": 45,
          "name": "A2",
          "ticks": 7872,
          "time": 41.824674,
          "velocity": 0.7559055118110236
        },
        {
          "duration": 0.11688806250000283,
          "durationTicks": 22,
          "midi": 45,
          "name": "A2",
          "ticks": 7896,
          "time": 41.95218825,
          "velocity": 0.7559055118110236
        },
        {
          "duration": 0.11688806250000283,
          "durationTicks": 22,
          "midi": 57,
          "name": "A3",
          "ticks": 7920,
          "time": 42.079702499999996,
          "velocity": 0.7559055118110236
        },
        {
          "duration": 0.11688806250000283,
          "durationTicks": 22,
          "midi": 52,
          "name": "E3",
          "ticks": 7968,
          "time": 42.334731,
          "velocity": 0.7559055118110236
        },
        {
          "duration": 0.11688806250000283,
          "durationTicks": 22,
          "midi": 51,
          "name": "D#3",
          "ticks": 8040,
          "time": 42.71727375,
          "velocity": 0.7559055118110236
        },
        {
          "duration": 0.11688806250000283,
          "durationTicks": 22,
          "midi": 50,
          "name": "D3",
          "ticks": 8088,
          "time": 42.97230225,
          "velocity": 0.7559055118110236
        },
        {
          "duration": 0.2444023125000001,
          "durationTicks": 46,
          "midi": 48,
          "name": "C3",
          "ticks": 8136,
          "time": 43.22733075,
          "velocity": 0.7559055118110236
        },
        {
          "duration": 0.11688806249999573,
          "durationTicks": 22,
          "midi": 45,
          "name": "A2",
          "ticks": 8184,
          "time": 43.48235925,
          "velocity": 0.7559055118110236
        },
        {
          "duration": 0.11688806250000283,
          "durationTicks": 22,
          "midi": 48,
          "name": "C3",
          "ticks": 8208,
          "time": 43.6098735,
          "velocity": 0.7559055118110236
        },
        {
          "duration": 0.11688806250000283,
          "durationTicks": 22,
          "midi": 50,
          "name": "D3",
          "ticks": 8232,
          "time": 43.737387749999996,
          "velocity": 0.7559055118110236
        },
        {
          "duration": 0.11688806250000283,
          "durationTicks": 22,
          "midi": 45,
          "name": "A2",
          "ticks": 8256,
          "time": 43.864902,
          "velocity": 0.7559055118110236
        },
        {
          "duration": 0.11688806250000283,
          "durationTicks": 22,
          "midi": 45,
          "name": "A2",
          "ticks": 8280,
          "time": 43.99241625,
          "velocity": 0.7559055118110236
        },
        {
          "duration": 0.11688806250000283,
          "durationTicks": 22,
          "midi": 57,
          "name": "A3",
          "ticks": 8304,
          "time": 44.119930499999995,
          "velocity": 0.7559055118110236
        },
        {
          "duration": 0.11688806250000283,
          "durationTicks": 22,
          "midi": 52,
          "name": "E3",
          "ticks": 8352,
          "time": 44.374959,
          "velocity": 0.7559055118110236
        },
        {
          "duration": 0.11688806250000283,
          "durationTicks": 22,
          "midi": 51,
          "name": "D#3",
          "ticks": 8424,
          "time": 44.757501749999996,
          "velocity": 0.7559055118110236
        },
        {
          "duration": 0.11688806250000283,
          "durationTicks": 22,
          "midi": 50,
          "name": "D3",
          "ticks": 8472,
          "time": 45.01253025,
          "velocity": 0.7559055118110236
        },
        {
          "duration": 0.2444023125000001,
          "durationTicks": 46,
          "midi": 48,
          "name": "C3",
          "ticks": 8520,
          "time": 45.26755875,
          "velocity": 0.7559055118110236
        },
        {
          "duration": 0.11688806250000283,
          "durationTicks": 22,
          "midi": 45,
          "name": "A2",
          "ticks": 8568,
          "time": 45.52258725,
          "velocity": 0.7559055118110236
        },
        {
          "duration": 0.11688806250000283,
          "durationTicks": 22,
          "midi": 48,
          "name": "C3",
          "ticks": 8592,
          "time": 45.6501015,
          "velocity": 0.7559055118110236
        },
        {
          "duration": 0.11688806250000283,
          "durationTicks": 22,
          "midi": 50,
          "name": "D3",
          "ticks": 8616,
          "time": 45.777615749999995,
          "velocity": 0.7559055118110236
        },
        {
          "duration": 0.11688806250000283,
          "durationTicks": 22,
          "midi": 45,
          "name": "A2",
          "ticks": 8640,
          "time": 45.90513,
          "velocity": 0.7559055118110236
        },
        {
          "duration": 0.11688806250000283,
          "durationTicks": 22,
          "midi": 45,
          "name": "A2",
          "ticks": 8664,
          "time": 46.03264425,
          "velocity": 0.7559055118110236
        },
        {
          "duration": 0.11688806250000283,
          "durationTicks": 22,
          "midi": 57,
          "name": "A3",
          "ticks": 8688,
          "time": 46.1601585,
          "velocity": 0.7559055118110236
        },
        {
          "duration": 0.11688806250000283,
          "durationTicks": 22,
          "midi": 52,
          "name": "E3",
          "ticks": 8736,
          "time": 46.415186999999996,
          "velocity": 0.7559055118110236
        },
        {
          "duration": 0.11688806250000283,
          "durationTicks": 22,
          "midi": 51,
          "name": "D#3",
          "ticks": 8808,
          "time": 46.797729749999995,
          "velocity": 0.7559055118110236
        },
        {
          "duration": 0.11688806250000283,
          "durationTicks": 22,
          "midi": 50,
          "name": "D3",
          "ticks": 8856,
          "time": 47.05275825,
          "velocity": 0.7559055118110236
        },
        {
          "duration": 0.2444023125000001,
          "durationTicks": 46,
          "midi": 48,
          "name": "C3",
          "ticks": 8904,
          "time": 47.30778675,
          "velocity": 0.7559055118110236
        },
        {
          "duration": 0.11688806250000283,
          "durationTicks": 22,
          "midi": 45,
          "name": "A2",
          "ticks": 8952,
          "time": 47.56281525,
          "velocity": 0.7559055118110236
        },
        {
          "duration": 0.11688806250000283,
          "durationTicks": 22,
          "midi": 48,
          "name": "C3",
          "ticks": 8976,
          "time": 47.6903295,
          "velocity": 0.7559055118110236
        },
        {
          "duration": 0.11688806249999573,
          "durationTicks": 22,
          "midi": 50,
          "name": "D3",
          "ticks": 9000,
          "time": 47.81784375,
          "velocity": 0.7559055118110236
        },
        {
          "duration": 0.11688806250000283,
          "durationTicks": 22,
          "midi": 45,
          "name": "A2",
          "ticks": 9024,
          "time": 47.945358,
          "velocity": 0.7559055118110236
        },
        {
          "duration": 0.11688806250000283,
          "durationTicks": 22,
          "midi": 45,
          "name": "A2",
          "ticks": 9048,
          "time": 48.072872249999996,
          "velocity": 0.7559055118110236
        },
        {
          "duration": 0.11688806250000283,
          "durationTicks": 22,
          "midi": 57,
          "name": "A3",
          "ticks": 9072,
          "time": 48.2003865,
          "velocity": 0.7559055118110236
        },
        {
          "duration": 0.11688806250000283,
          "durationTicks": 22,
          "midi": 52,
          "name": "E3",
          "ticks": 9120,
          "time": 48.455414999999995,
          "velocity": 0.7559055118110236
        },
        {
          "duration": 0.11688806250000283,
          "durationTicks": 22,
          "midi": 51,
          "name": "D#3",
          "ticks": 9192,
          "time": 48.83795775,
          "velocity": 0.7559055118110236
        },
        {
          "duration": 0.11688806250000283,
          "durationTicks": 22,
          "midi": 50,
          "name": "D3",
          "ticks": 9240,
          "time": 49.092986249999996,
          "velocity": 0.7559055118110236
        },
        {
          "duration": 0.2444023125000001,
          "durationTicks": 46,
          "midi": 48,
          "name": "C3",
          "ticks": 9288,
          "time": 49.34801475,
          "velocity": 0.7559055118110236
        },
        {
          "duration": 0.11688806250000283,
          "durationTicks": 22,
          "midi": 45,
          "name": "A2",
          "ticks": 9336,
          "time": 49.60304325,
          "velocity": 0.7559055118110236
        },
        {
          "duration": 0.11688806250000283,
          "durationTicks": 22,
          "midi": 48,
          "name": "C3",
          "ticks": 9360,
          "time": 49.730557499999996,
          "velocity": 0.7559055118110236
        },
        {
          "duration": 0.11688806250000283,
          "durationTicks": 22,
          "midi": 50,
          "name": "D3",
          "ticks": 9384,
          "time": 49.85807175,
          "velocity": 0.7559055118110236
        },
        {
          "duration": 0.11688806250000283,
          "durationTicks": 22,
          "midi": 45,
          "name": "A2",
          "ticks": 9408,
          "time": 49.985586,
          "velocity": 0.7559055118110236
        },
        {
          "duration": 0.11688806250000283,
          "durationTicks": 22,
          "midi": 45,
          "name": "A2",
          "ticks": 9432,
          "time": 50.113100249999995,
          "velocity": 0.7559055118110236
        },
        {
          "duration": 0.11688806250000283,
          "durationTicks": 22,
          "midi": 57,
          "name": "A3",
          "ticks": 9456,
          "time": 50.2406145,
          "velocity": 0.7559055118110236
        },
        {
          "duration": 0.11688806250000283,
          "durationTicks": 22,
          "midi": 52,
          "name": "E3",
          "ticks": 9504,
          "time": 50.495643,
          "velocity": 0.7559055118110236
        },
        {
          "duration": 0.11688806250000283,
          "durationTicks": 22,
          "midi": 51,
          "name": "D#3",
          "ticks": 9576,
          "time": 50.87818575,
          "velocity": 0.7559055118110236
        },
        {
          "duration": 0.11688806249999573,
          "durationTicks": 22,
          "midi": 50,
          "name": "D3",
          "ticks": 9624,
          "time": 51.13321425,
          "velocity": 0.7559055118110236
        },
        {
          "duration": 0.2444023125000072,
          "durationTicks": 46,
          "midi": 48,
          "name": "C3",
          "ticks": 9672,
          "time": 51.388242749999996,
          "velocity": 0.7559055118110236
        },
        {
          "duration": 0.11688806250000283,
          "durationTicks": 22,
          "midi": 45,
          "name": "A2",
          "ticks": 9720,
          "time": 51.64327125,
          "velocity": 0.7559055118110236
        },
        {
          "duration": 0.11688806250000283,
          "durationTicks": 22,
          "midi": 48,
          "name": "C3",
          "ticks": 9744,
          "time": 51.770785499999995,
          "velocity": 0.7559055118110236
        },
        {
          "duration": 0.11688806250000283,
          "durationTicks": 22,
          "midi": 50,
          "name": "D3",
          "ticks": 9768,
          "time": 51.89829975,
          "velocity": 0.7559055118110236
        },
        {
          "duration": 0.11688806250000283,
          "durationTicks": 22,
          "midi": 45,
          "name": "A2",
          "ticks": 9792,
          "time": 52.025814,
          "velocity": 0.7559055118110236
        },
        {
          "duration": 0.11688806250000283,
          "durationTicks": 22,
          "midi": 45,
          "name": "A2",
          "ticks": 9816,
          "time": 52.15332825,
          "velocity": 0.7559055118110236
        },
        {
          "duration": 0.11688806250000283,
          "durationTicks": 22,
          "midi": 57,
          "name": "A3",
          "ticks": 9840,
          "time": 52.2808425,
          "velocity": 0.7559055118110236
        },
        {
          "duration": 0.11688806250000283,
          "durationTicks": 22,
          "midi": 52,
          "name": "E3",
          "ticks": 9888,
          "time": 52.535871,
          "velocity": 0.7559055118110236
        },
        {
          "duration": 0.11688806250000283,
          "durationTicks": 22,
          "midi": 51,
          "name": "D#3",
          "ticks": 9960,
          "time": 52.91841375,
          "velocity": 0.7559055118110236
        },
        {
          "duration": 0.11688806250000283,
          "durationTicks": 22,
          "midi": 50,
          "name": "D3",
          "ticks": 10008,
          "time": 53.17344225,
          "velocity": 0.7559055118110236
        },
        {
          "duration": 0.2444023125000072,
          "durationTicks": 46,
          "midi": 48,
          "name": "C3",
          "ticks": 10056,
          "time": 53.428470749999995,
          "velocity": 0.7559055118110236
        },
        {
          "duration": 0.11688806250000283,
          "durationTicks": 22,
          "midi": 45,
          "name": "A2",
          "ticks": 10104,
          "time": 53.68349925,
          "velocity": 0.7559055118110236
        },
        {
          "duration": 0.11688806249999573,
          "durationTicks": 22,
          "midi": 48,
          "name": "C3",
          "ticks": 10128,
          "time": 53.8110135,
          "velocity": 0.7559055118110236
        },
        {
          "duration": 0.11688806250000283,
          "durationTicks": 22,
          "midi": 50,
          "name": "D3",
          "ticks": 10152,
          "time": 53.93852775,
          "velocity": 0.7559055118110236
        },
        {
          "duration": 0.11688806250000283,
          "durationTicks": 22,
          "midi": 45,
          "name": "A2",
          "ticks": 10176,
          "time": 54.066041999999996,
          "velocity": 0.7559055118110236
        },
        {
          "duration": 0.11688806250000283,
          "durationTicks": 22,
          "midi": 45,
          "name": "A2",
          "ticks": 10200,
          "time": 54.19355625,
          "velocity": 0.7559055118110236
        },
        {
          "duration": 0.11688806250000283,
          "durationTicks": 22,
          "midi": 57,
          "name": "A3",
          "ticks": 10224,
          "time": 54.3210705,
          "velocity": 0.7559055118110236
        },
        {
          "duration": 0.11688806250000283,
          "durationTicks": 22,
          "midi": 52,
          "name": "E3",
          "ticks": 10272,
          "time": 54.576099,
          "velocity": 0.7559055118110236
        },
        {
          "duration": 0.11688806250000283,
          "durationTicks": 22,
          "midi": 51,
          "name": "D#3",
          "ticks": 10344,
          "time": 54.95864175,
          "velocity": 0.7559055118110236
        },
        {
          "duration": 0.11688806250000283,
          "durationTicks": 22,
          "midi": 50,
          "name": "D3",
          "ticks": 10392,
          "time": 55.21367025,
          "velocity": 0.7559055118110236
        },
        {
          "duration": 0.2444023125000001,
          "durationTicks": 46,
          "midi": 48,
          "name": "C3",
          "ticks": 10440,
          "time": 55.46869875,
          "velocity": 0.7559055118110236
        },
        {
          "duration": 0.11688806250000283,
          "durationTicks": 22,
          "midi": 45,
          "name": "A2",
          "ticks": 10488,
          "time": 55.723727249999996,
          "velocity": 0.7559055118110236
        },
        {
          "duration": 0.11688806250000283,
          "durationTicks": 22,
          "midi": 48,
          "name": "C3",
          "ticks": 10512,
          "time": 55.8512415,
          "velocity": 0.7559055118110236
        },
        {
          "duration": 0.11688806250000283,
          "durationTicks": 22,
          "midi": 50,
          "name": "D3",
          "ticks": 10536,
          "time": 55.97875575,
          "velocity": 0.7559055118110236
        },
        {
          "duration": 0.11688806250000283,
          "durationTicks": 22,
          "midi": 45,
          "name": "A2",
          "ticks": 10560,
          "time": 56.106269999999995,
          "velocity": 0.7559055118110236
        },
        {
          "duration": 0.11688806250000283,
          "durationTicks": 22,
          "midi": 45,
          "name": "A2",
          "ticks": 10584,
          "time": 56.23378425,
          "velocity": 0.7559055118110236
        },
        {
          "duration": 0.11688806250000283,
          "durationTicks": 22,
          "midi": 57,
          "name": "A3",
          "ticks": 10608,
          "time": 56.3612985,
          "velocity": 0.7559055118110236
        },
        {
          "duration": 0.11688806250000283,
          "durationTicks": 22,
          "midi": 52,
          "name": "E3",
          "ticks": 10656,
          "time": 56.616327,
          "velocity": 0.7559055118110236
        },
        {
          "duration": 0.11688806250000283,
          "durationTicks": 22,
          "midi": 51,
          "name": "D#3",
          "ticks": 10728,
          "time": 56.99886975,
          "velocity": 0.7559055118110236
        },
        {
          "duration": 0.11688806250000283,
          "durationTicks": 22,
          "midi": 50,
          "name": "D3",
          "ticks": 10776,
          "time": 57.25389825,
          "velocity": 0.7559055118110236
        },
        {
          "duration": 0.2444023125000001,
          "durationTicks": 46,
          "midi": 48,
          "name": "C3",
          "ticks": 10824,
          "time": 57.50892675,
          "velocity": 0.7559055118110236
        },
        {
          "duration": 0.11688806250000283,
          "durationTicks": 22,
          "midi": 45,
          "name": "A2",
          "ticks": 10872,
          "time": 57.763955249999995,
          "velocity": 0.7559055118110236
        },
        {
          "duration": 0.11688806250000283,
          "durationTicks": 22,
          "midi": 48,
          "name": "C3",
          "ticks": 10896,
          "time": 57.8914695,
          "velocity": 0.7559055118110236
        },
        {
          "duration": 0.11688806250000283,
          "durationTicks": 22,
          "midi": 50,
          "name": "D3",
          "ticks": 10920,
          "time": 58.01898375,
          "velocity": 0.7559055118110236
        },
        {
          "duration": 0.11688806250000283,
          "durationTicks": 22,
          "midi": 45,
          "name": "A2",
          "ticks": 10944,
          "time": 58.146498,
          "velocity": 0.7559055118110236
        },
        {
          "duration": 0.11688806250000283,
          "durationTicks": 22,
          "midi": 45,
          "name": "A2",
          "ticks": 10968,
          "time": 58.27401225,
          "velocity": 0.7559055118110236
        },
        {
          "duration": 0.11688806250000283,
          "durationTicks": 22,
          "midi": 57,
          "name": "A3",
          "ticks": 10992,
          "time": 58.401526499999996,
          "velocity": 0.7559055118110236
        },
        {
          "duration": 0.11688806250000283,
          "durationTicks": 22,
          "midi": 52,
          "name": "E3",
          "ticks": 11040,
          "time": 58.656555,
          "velocity": 0.7559055118110236
        },
        {
          "duration": 0.11688806250000283,
          "durationTicks": 22,
          "midi": 51,
          "name": "D#3",
          "ticks": 11112,
          "time": 59.039097749999996,
          "velocity": 0.7559055118110236
        },
        {
          "duration": 0.11688806250000283,
          "durationTicks": 22,
          "midi": 50,
          "name": "D3",
          "ticks": 11160,
          "time": 59.29412625,
          "velocity": 0.7559055118110236
        },
        {
          "duration": 0.2444023125000001,
          "durationTicks": 46,
          "midi": 48,
          "name": "C3",
          "ticks": 11208,
          "time": 59.54915475,
          "velocity": 0.7559055118110236
        },
        {
          "duration": 0.11688806249999573,
          "durationTicks": 22,
          "midi": 45,
          "name": "A2",
          "ticks": 11256,
          "time": 59.80418325,
          "velocity": 0.7559055118110236
        },
        {
          "duration": 0.11688806250000283,
          "durationTicks": 22,
          "midi": 48,
          "name": "C3",
          "ticks": 11280,
          "time": 59.9316975,
          "velocity": 0.7559055118110236
        },
        {
          "duration": 0.11688806250000283,
          "durationTicks": 22,
          "midi": 50,
          "name": "D3",
          "ticks": 11304,
          "time": 60.059211749999996,
          "velocity": 0.7559055118110236
        },
        {
          "duration": 0.11688806250000283,
          "durationTicks": 22,
          "midi": 45,
          "name": "A2",
          "ticks": 11328,
          "time": 60.186726,
          "velocity": 0.7559055118110236
        },
        {
          "duration": 0.11688806250000283,
          "durationTicks": 22,
          "midi": 45,
          "name": "A2",
          "ticks": 11352,
          "time": 60.31424025,
          "velocity": 0.7559055118110236
        },
        {
          "duration": 0.11688806250000283,
          "durationTicks": 22,
          "midi": 57,
          "name": "A3",
          "ticks": 11376,
          "time": 60.441754499999995,
          "velocity": 0.7559055118110236
        },
        {
          "duration": 0.11688806250000283,
          "durationTicks": 22,
          "midi": 52,
          "name": "E3",
          "ticks": 11424,
          "time": 60.696782999999996,
          "velocity": 0.7559055118110236
        },
        {
          "duration": 0.11688806250000283,
          "durationTicks": 22,
          "midi": 51,
          "name": "D#3",
          "ticks": 11496,
          "time": 61.079325749999995,
          "velocity": 0.7559055118110236
        },
        {
          "duration": 0.11688806250000283,
          "durationTicks": 22,
          "midi": 50,
          "name": "D3",
          "ticks": 11544,
          "time": 61.33435425,
          "velocity": 0.7559055118110236
        },
        {
          "duration": 0.2444023125000001,
          "durationTicks": 46,
          "midi": 48,
          "name": "C3",
          "ticks": 11592,
          "time": 61.58938275,
          "velocity": 0.7559055118110236
        },
        {
          "duration": 0.11688806250000283,
          "durationTicks": 22,
          "midi": 45,
          "name": "A2",
          "ticks": 11640,
          "time": 61.84441125,
          "velocity": 0.7559055118110236
        },
        {
          "duration": 0.11688806250000283,
          "durationTicks": 22,
          "midi": 48,
          "name": "C3",
          "ticks": 11664,
          "time": 61.9719255,
          "velocity": 0.7559055118110236
        },
        {
          "duration": 0.11688806250000283,
          "durationTicks": 22,
          "midi": 50,
          "name": "D3",
          "ticks": 11688,
          "time": 62.099439749999995,
          "velocity": 0.7559055118110236
        },
        {
          "duration": 0.11688806250000283,
          "durationTicks": 22,
          "midi": 45,
          "name": "A2",
          "ticks": 11712,
          "time": 62.226954,
          "velocity": 0.7559055118110236
        },
        {
          "duration": 0.11688806250000283,
          "durationTicks": 22,
          "midi": 45,
          "name": "A2",
          "ticks": 11736,
          "time": 62.35446825,
          "velocity": 0.7559055118110236
        },
        {
          "duration": 0.11688806250000283,
          "durationTicks": 22,
          "midi": 57,
          "name": "A3",
          "ticks": 11760,
          "time": 62.4819825,
          "velocity": 0.7559055118110236
        },
        {
          "duration": 0.11688806250000283,
          "durationTicks": 22,
          "midi": 52,
          "name": "E3",
          "ticks": 11808,
          "time": 62.737010999999995,
          "velocity": 0.7559055118110236
        },
        {
          "duration": 0.11688806250000283,
          "durationTicks": 22,
          "midi": 51,
          "name": "D#3",
          "ticks": 11880,
          "time": 63.119553749999994,
          "velocity": 0.7559055118110236
        },
        {
          "duration": 0.11688806250000283,
          "durationTicks": 22,
          "midi": 50,
          "name": "D3",
          "ticks": 11928,
          "time": 63.374582249999996,
          "velocity": 0.7559055118110236
        },
        {
          "duration": 0.2444023125000001,
          "durationTicks": 46,
          "midi": 48,
          "name": "C3",
          "ticks": 11976,
          "time": 63.62961075,
          "velocity": 0.7559055118110236
        },
        {
          "duration": 0.11688806250000283,
          "durationTicks": 22,
          "midi": 45,
          "name": "A2",
          "ticks": 12024,
          "time": 63.88463925,
          "velocity": 0.7559055118110236
        },
        {
          "duration": 0.11688806250000994,
          "durationTicks": 22,
          "midi": 48,
          "name": "C3",
          "ticks": 12048,
          "time": 64.0121535,
          "velocity": 0.7559055118110236
        },
        {
          "duration": 0.11688806249999573,
          "durationTicks": 22,
          "midi": 50,
          "name": "D3",
          "ticks": 12072,
          "time": 64.13966775,
          "velocity": 0.7559055118110236
        },
        {
          "duration": 0.11688806250000994,
          "durationTicks": 22,
          "midi": 45,
          "name": "A2",
          "ticks": 12096,
          "time": 64.26718199999999,
          "velocity": 0.7559055118110236
        },
        {
          "duration": 0.11688806250000994,
          "durationTicks": 22,
          "midi": 45,
          "name": "A2",
          "ticks": 12120,
          "time": 64.39469625,
          "velocity": 0.7559055118110236
        },
        {
          "duration": 0.11688806249999573,
          "durationTicks": 22,
          "midi": 57,
          "name": "A3",
          "ticks": 12144,
          "time": 64.5222105,
          "velocity": 0.7559055118110236
        },
        {
          "duration": 0.11688806250000994,
          "durationTicks": 22,
          "midi": 52,
          "name": "E3",
          "ticks": 12192,
          "time": 64.777239,
          "velocity": 0.7559055118110236
        },
        {
          "duration": 0.11688806250000994,
          "durationTicks": 22,
          "midi": 51,
          "name": "D#3",
          "ticks": 12264,
          "time": 65.15978175,
          "velocity": 0.7559055118110236
        },
        {
          "duration": 0.11688806249999573,
          "durationTicks": 22,
          "midi": 50,
          "name": "D3",
          "ticks": 12312,
          "time": 65.41481025,
          "velocity": 0.7559055118110236
        },
        {
          "duration": 0.2444023125000001,
          "durationTicks": 46,
          "midi": 48,
          "name": "C3",
          "ticks": 12360,
          "time": 65.66983875,
          "velocity": 0.7559055118110236
        },
        {
          "duration": 0.11688806249999573,
          "durationTicks": 22,
          "midi": 45,
          "name": "A2",
          "ticks": 12408,
          "time": 65.92486724999999,
          "velocity": 0.7559055118110236
        },
        {
          "duration": 0.11688806249999573,
          "durationTicks": 22,
          "midi": 48,
          "name": "C3",
          "ticks": 12432,
          "time": 66.0523815,
          "velocity": 0.7559055118110236
        },
        {
          "duration": 0.11688806249999573,
          "durationTicks": 22,
          "midi": 50,
          "name": "D3",
          "ticks": 12456,
          "time": 66.17989575,
          "velocity": 0.7559055118110236
        },
        {
          "duration": 0.11688806249998152,
          "durationTicks": 22,
          "midi": 45,
          "name": "A2",
          "ticks": 12480,
          "time": 66.30741,
          "velocity": 0.7559055118110236
        },
        {
          "duration": 0.11688806249999573,
          "durationTicks": 22,
          "midi": 45,
          "name": "A2",
          "ticks": 12504,
          "time": 66.43492425,
          "velocity": 0.7559055118110236
        },
        {
          "duration": 0.11688806249999573,
          "durationTicks": 22,
          "midi": 57,
          "name": "A3",
          "ticks": 12528,
          "time": 66.5624385,
          "velocity": 0.7559055118110236
        },
        {
          "duration": 0.11688806249999573,
          "durationTicks": 22,
          "midi": 52,
          "name": "E3",
          "ticks": 12576,
          "time": 66.817467,
          "velocity": 0.7559055118110236
        },
        {
          "duration": 0.11688806249999573,
          "durationTicks": 22,
          "midi": 51,
          "name": "D#3",
          "ticks": 12648,
          "time": 67.20000974999999,
          "velocity": 0.7559055118110236
        },
        {
          "duration": 0.11688806249999573,
          "durationTicks": 22,
          "midi": 50,
          "name": "D3",
          "ticks": 12696,
          "time": 67.45503825,
          "velocity": 0.7559055118110236
        },
        {
          "duration": 0.2444023125000001,
          "durationTicks": 46,
          "midi": 48,
          "name": "C3",
          "ticks": 12744,
          "time": 67.71006675,
          "velocity": 0.7559055118110236
        },
        {
          "duration": 0.11688806249998152,
          "durationTicks": 22,
          "midi": 45,
          "name": "A2",
          "ticks": 12792,
          "time": 67.96509525,
          "velocity": 0.7559055118110236
        },
        {
          "duration": 0.11688806249999573,
          "durationTicks": 22,
          "midi": 48,
          "name": "C3",
          "ticks": 12816,
          "time": 68.0926095,
          "velocity": 0.7559055118110236
        },
        {
          "duration": 0.11688806249999573,
          "durationTicks": 22,
          "midi": 50,
          "name": "D3",
          "ticks": 12840,
          "time": 68.22012375,
          "velocity": 0.7559055118110236
        },
        {
          "duration": 0.11688806249999573,
          "durationTicks": 22,
          "midi": 45,
          "name": "A2",
          "ticks": 12864,
          "time": 68.347638,
          "velocity": 0.7559055118110236
        },
        {
          "duration": 0.11688806249999573,
          "durationTicks": 22,
          "midi": 45,
          "name": "A2",
          "ticks": 12888,
          "time": 68.47515225,
          "velocity": 0.7559055118110236
        },
        {
          "duration": 0.11688806249999573,
          "durationTicks": 22,
          "midi": 57,
          "name": "A3",
          "ticks": 12912,
          "time": 68.6026665,
          "velocity": 0.7559055118110236
        },
        {
          "duration": 0.11688806249999573,
          "durationTicks": 22,
          "midi": 52,
          "name": "E3",
          "ticks": 12960,
          "time": 68.85769499999999,
          "velocity": 0.7559055118110236
        },
        {
          "duration": 0.11688806249999573,
          "durationTicks": 22,
          "midi": 51,
          "name": "D#3",
          "ticks": 13032,
          "time": 69.24023774999999,
          "velocity": 0.7559055118110236
        },
        {
          "duration": 0.11688806249999573,
          "durationTicks": 22,
          "midi": 50,
          "name": "D3",
          "ticks": 13080,
          "time": 69.49526625,
          "velocity": 0.7559055118110236
        },
        {
          "duration": 0.2444023125000001,
          "durationTicks": 46,
          "midi": 48,
          "name": "C3",
          "ticks": 13128,
          "time": 69.75029475,
          "velocity": 0.7559055118110236
        },
        {
          "duration": 0.11688806249999573,
          "durationTicks": 22,
          "midi": 45,
          "name": "A2",
          "ticks": 13176,
          "time": 70.00532325,
          "velocity": 0.7559055118110236
        },
        {
          "duration": 0.11688806249999573,
          "durationTicks": 22,
          "midi": 48,
          "name": "C3",
          "ticks": 13200,
          "time": 70.1328375,
          "velocity": 0.7559055118110236
        },
        {
          "duration": 0.11688806249999573,
          "durationTicks": 22,
          "midi": 50,
          "name": "D3",
          "ticks": 13224,
          "time": 70.26035175,
          "velocity": 0.7559055118110236
        },
        {
          "duration": 0.11688806249999573,
          "durationTicks": 22,
          "midi": 45,
          "name": "A2",
          "ticks": 13248,
          "time": 70.387866,
          "velocity": 0.7559055118110236
        },
        {
          "duration": 0.11688806249999573,
          "durationTicks": 22,
          "midi": 45,
          "name": "A2",
          "ticks": 13272,
          "time": 70.51538024999999,
          "velocity": 0.7559055118110236
        },
        {
          "duration": 0.11688806249999573,
          "durationTicks": 22,
          "midi": 57,
          "name": "A3",
          "ticks": 13296,
          "time": 70.6428945,
          "velocity": 0.7559055118110236
        },
        {
          "duration": 0.11688806249999573,
          "durationTicks": 22,
          "midi": 52,
          "name": "E3",
          "ticks": 13344,
          "time": 70.89792299999999,
          "velocity": 0.7559055118110236
        },
        {
          "duration": 0.11688806249999573,
          "durationTicks": 22,
          "midi": 51,
          "name": "D#3",
          "ticks": 13416,
          "time": 71.28046574999999,
          "velocity": 0.7559055118110236
        },
        {
          "duration": 0.11688806249999573,
          "durationTicks": 22,
          "midi": 50,
          "name": "D3",
          "ticks": 13464,
          "time": 71.53549425,
          "velocity": 0.7559055118110236
        },
        {
          "duration": 0.2444023125000001,
          "durationTicks": 46,
          "midi": 48,
          "name": "C3",
          "ticks": 13512,
          "time": 71.79052275,
          "velocity": 0.7559055118110236
        },
        {
          "duration": 0.11688806249999573,
          "durationTicks": 22,
          "midi": 45,
          "name": "A2",
          "ticks": 13560,
          "time": 72.04555125,
          "velocity": 0.7559055118110236
        },
        {
          "duration": 0.11688806249999573,
          "durationTicks": 22,
          "midi": 48,
          "name": "C3",
          "ticks": 13584,
          "time": 72.17306549999999,
          "velocity": 0.7559055118110236
        },
        {
          "duration": 0.11688806249999573,
          "durationTicks": 22,
          "midi": 50,
          "name": "D3",
          "ticks": 13608,
          "time": 72.30057975,
          "velocity": 0.7559055118110236
        },
        {
          "duration": 0.11688806249999573,
          "durationTicks": 22,
          "midi": 45,
          "name": "A2",
          "ticks": 13632,
          "time": 72.428094,
          "velocity": 0.7559055118110236
        },
        {
          "duration": 0.11688806249999573,
          "durationTicks": 22,
          "midi": 45,
          "name": "A2",
          "ticks": 13656,
          "time": 72.55560824999999,
          "velocity": 0.7559055118110236
        },
        {
          "duration": 0.11688806249999573,
          "durationTicks": 22,
          "midi": 57,
          "name": "A3",
          "ticks": 13680,
          "time": 72.6831225,
          "velocity": 0.7559055118110236
        },
        {
          "duration": 0.11688806249999573,
          "durationTicks": 22,
          "midi": 52,
          "name": "E3",
          "ticks": 13728,
          "time": 72.93815099999999,
          "velocity": 0.7559055118110236
        },
        {
          "duration": 0.11688806249999573,
          "durationTicks": 22,
          "midi": 51,
          "name": "D#3",
          "ticks": 13800,
          "time": 73.32069375,
          "velocity": 0.7559055118110236
        },
        {
          "duration": 0.11688806249999573,
          "durationTicks": 22,
          "midi": 50,
          "name": "D3",
          "ticks": 13848,
          "time": 73.57572225,
          "velocity": 0.7559055118110236
        },
        {
          "duration": 0.2444023125000001,
          "durationTicks": 46,
          "midi": 48,
          "name": "C3",
          "ticks": 13896,
          "time": 73.83075074999999,
          "velocity": 0.7559055118110236
        },
        {
          "duration": 0.11688806249999573,
          "durationTicks": 22,
          "midi": 45,
          "name": "A2",
          "ticks": 13944,
          "time": 74.08577925,
          "velocity": 0.7559055118110236
        },
        {
          "duration": 0.11688806249999573,
          "durationTicks": 22,
          "midi": 48,
          "name": "C3",
          "ticks": 13968,
          "time": 74.21329349999999,
          "velocity": 0.7559055118110236
        },
        {
          "duration": 0.11688806249999573,
          "durationTicks": 22,
          "midi": 50,
          "name": "D3",
          "ticks": 13992,
          "time": 74.34080775,
          "velocity": 0.7559055118110236
        },
        {
          "duration": 0.11688806249999573,
          "durationTicks": 22,
          "midi": 45,
          "name": "A2",
          "ticks": 14016,
          "time": 74.468322,
          "velocity": 0.7559055118110236
        },
        {
          "duration": 0.11688806249999573,
          "durationTicks": 22,
          "midi": 45,
          "name": "A2",
          "ticks": 14040,
          "time": 74.59583624999999,
          "velocity": 0.7559055118110236
        },
        {
          "duration": 0.11688806249999573,
          "durationTicks": 22,
          "midi": 57,
          "name": "A3",
          "ticks": 14064,
          "time": 74.7233505,
          "velocity": 0.7559055118110236
        },
        {
          "duration": 0.11688806249999573,
          "durationTicks": 22,
          "midi": 52,
          "name": "E3",
          "ticks": 14112,
          "time": 74.978379,
          "velocity": 0.7559055118110236
        },
        {
          "duration": 0.11688806249999573,
          "durationTicks": 22,
          "midi": 51,
          "name": "D#3",
          "ticks": 14184,
          "time": 75.36092175,
          "velocity": 0.7559055118110236
        },
        {
          "duration": 0.11688806249999573,
          "durationTicks": 22,
          "midi": 50,
          "name": "D3",
          "ticks": 14232,
          "time": 75.61595025,
          "velocity": 0.7559055118110236
        },
        {
          "duration": 0.2444023125000001,
          "durationTicks": 46,
          "midi": 48,
          "name": "C3",
          "ticks": 14280,
          "time": 75.87097874999999,
          "velocity": 0.7559055118110236
        },
        {
          "duration": 0.11688806249999573,
          "durationTicks": 22,
          "midi": 45,
          "name": "A2",
          "ticks": 14328,
          "time": 76.12600725,
          "velocity": 0.7559055118110236
        },
        {
          "duration": 0.11688806249999573,
          "durationTicks": 22,
          "midi": 48,
          "name": "C3",
          "ticks": 14352,
          "time": 76.25352149999999,
          "velocity": 0.7559055118110236
        },
        {
          "duration": 0.11688806249999573,
          "durationTicks": 22,
          "midi": 50,
          "name": "D3",
          "ticks": 14376,
          "time": 76.38103575,
          "velocity": 0.7559055118110236
        },
        {
          "duration": 0.11688806249999573,
          "durationTicks": 22,
          "midi": 45,
          "name": "A2",
          "ticks": 14400,
          "time": 76.50855,
          "velocity": 0.7559055118110236
        },
        {
          "duration": 0.11688806249998152,
          "durationTicks": 22,
          "midi": 45,
          "name": "A2",
          "ticks": 14424,
          "time": 76.63606425,
          "velocity": 0.7559055118110236
        },
        {
          "duration": 0.11688806249999573,
          "durationTicks": 22,
          "midi": 57,
          "name": "A3",
          "ticks": 14448,
          "time": 76.7635785,
          "velocity": 0.7559055118110236
        },
        {
          "duration": 0.11688806249999573,
          "durationTicks": 22,
          "midi": 52,
          "name": "E3",
          "ticks": 14496,
          "time": 77.018607,
          "velocity": 0.7559055118110236
        },
        {
          "duration": 0.11688806249999573,
          "durationTicks": 22,
          "midi": 51,
          "name": "D#3",
          "ticks": 14568,
          "time": 77.40114975,
          "velocity": 0.7559055118110236
        },
        {
          "duration": 0.11688806249999573,
          "durationTicks": 22,
          "midi": 50,
          "name": "D3",
          "ticks": 14616,
          "time": 77.65617825,
          "velocity": 0.7559055118110236
        },
        {
          "duration": 0.2444023125000001,
          "durationTicks": 46,
          "midi": 48,
          "name": "C3",
          "ticks": 14664,
          "time": 77.91120674999999,
          "velocity": 0.7559055118110236
        },
        {
          "duration": 0.11688806249999573,
          "durationTicks": 22,
          "midi": 45,
          "name": "A2",
          "ticks": 14712,
          "time": 78.16623525,
          "velocity": 0.7559055118110236
        },
        {
          "duration": 0.11688806249998152,
          "durationTicks": 22,
          "midi": 48,
          "name": "C3",
          "ticks": 14736,
          "time": 78.2937495,
          "velocity": 0.7559055118110236
        },
        {
          "duration": 0.11688806249999573,
          "durationTicks": 22,
          "midi": 50,
          "name": "D3",
          "ticks": 14760,
          "time": 78.42126375,
          "velocity": 0.7559055118110236
        },
        {
          "duration": 0.11688806249999573,
          "durationTicks": 22,
          "midi": 45,
          "name": "A2",
          "ticks": 14784,
          "time": 78.548778,
          "velocity": 0.7559055118110236
        },
        {
          "duration": 0.11688806249999573,
          "durationTicks": 22,
          "midi": 45,
          "name": "A2",
          "ticks": 14808,
          "time": 78.67629225,
          "velocity": 0.7559055118110236
        },
        {
          "duration": 0.11688806249999573,
          "durationTicks": 22,
          "midi": 57,
          "name": "A3",
          "ticks": 14832,
          "time": 78.8038065,
          "velocity": 0.7559055118110236
        },
        {
          "duration": 0.11688806249999573,
          "durationTicks": 22,
          "midi": 52,
          "name": "E3",
          "ticks": 14880,
          "time": 79.058835,
          "velocity": 0.7559055118110236
        },
        {
          "duration": 0.11688806249999573,
          "durationTicks": 22,
          "midi": 51,
          "name": "D#3",
          "ticks": 14952,
          "time": 79.44137775,
          "velocity": 0.7559055118110236
        },
        {
          "duration": 0.11688806249999573,
          "durationTicks": 22,
          "midi": 50,
          "name": "D3",
          "ticks": 15000,
          "time": 79.69640625,
          "velocity": 0.7559055118110236
        },
        {
          "duration": 0.2444023124999859,
          "durationTicks": 46,
          "midi": 48,
          "name": "C3",
          "ticks": 15048,
          "time": 79.95143475,
          "velocity": 0.7559055118110236
        },
        {
          "duration": 0.11688806249999573,
          "durationTicks": 22,
          "midi": 45,
          "name": "A2",
          "ticks": 15096,
          "time": 80.20646325,
          "velocity": 0.7559055118110236
        },
        {
          "duration": 0.11688806249999573,
          "durationTicks": 22,
          "midi": 48,
          "name": "C3",
          "ticks": 15120,
          "time": 80.3339775,
          "velocity": 0.7559055118110236
        },
        {
          "duration": 0.11688806249999573,
          "durationTicks": 22,
          "midi": 50,
          "name": "D3",
          "ticks": 15144,
          "time": 80.46149175,
          "velocity": 0.7559055118110236
        },
        {
          "duration": 0.11688806249999573,
          "durationTicks": 22,
          "midi": 45,
          "name": "A2",
          "ticks": 15168,
          "time": 80.589006,
          "velocity": 0.7559055118110236
        },
        {
          "duration": 0.11688806249999573,
          "durationTicks": 22,
          "midi": 45,
          "name": "A2",
          "ticks": 15192,
          "time": 80.71652025,
          "velocity": 0.7559055118110236
        },
        {
          "duration": 0.11688806249999573,
          "durationTicks": 22,
          "midi": 57,
          "name": "A3",
          "ticks": 15216,
          "time": 80.84403449999999,
          "velocity": 0.7559055118110236
        },
        {
          "duration": 0.11688806249999573,
          "durationTicks": 22,
          "midi": 52,
          "name": "E3",
          "ticks": 15264,
          "time": 81.099063,
          "velocity": 0.7559055118110236
        },
        {
          "duration": 0.11688806249999573,
          "durationTicks": 22,
          "midi": 51,
          "name": "D#3",
          "ticks": 15336,
          "time": 81.48160575,
          "velocity": 0.7559055118110236
        },
        {
          "duration": 0.11688806249999573,
          "durationTicks": 22,
          "midi": 50,
          "name": "D3",
          "ticks": 15384,
          "time": 81.73663425,
          "velocity": 0.7559055118110236
        },
        {
          "duration": 0.2444023124999859,
          "durationTicks": 46,
          "midi": 48,
          "name": "C3",
          "ticks": 15432,
          "time": 81.99166275,
          "velocity": 0.7559055118110236
        },
        {
          "duration": 0.11688806249999573,
          "durationTicks": 22,
          "midi": 45,
          "name": "A2",
          "ticks": 15480,
          "time": 82.24669125,
          "velocity": 0.7559055118110236
        },
        {
          "duration": 0.11688806249999573,
          "durationTicks": 22,
          "midi": 48,
          "name": "C3",
          "ticks": 15504,
          "time": 82.3742055,
          "velocity": 0.7559055118110236
        },
        {
          "duration": 0.11688806249999573,
          "durationTicks": 22,
          "midi": 50,
          "name": "D3",
          "ticks": 15528,
          "time": 82.50171974999999,
          "velocity": 0.7559055118110236
        },
        {
          "duration": 0.11688806249999573,
          "durationTicks": 22,
          "midi": 45,
          "name": "A2",
          "ticks": 15552,
          "time": 82.629234,
          "velocity": 0.7559055118110236
        },
        {
          "duration": 0.11688806249999573,
          "durationTicks": 22,
          "midi": 45,
          "name": "A2",
          "ticks": 15576,
          "time": 82.75674825,
          "velocity": 0.7559055118110236
        },
        {
          "duration": 0.11688806249999573,
          "durationTicks": 22,
          "midi": 57,
          "name": "A3",
          "ticks": 15600,
          "time": 82.88426249999999,
          "velocity": 0.7559055118110236
        },
        {
          "duration": 0.11688806249999573,
          "durationTicks": 22,
          "midi": 52,
          "name": "E3",
          "ticks": 15648,
          "time": 83.139291,
          "velocity": 0.7559055118110236
        },
        {
          "duration": 0.11688806249999573,
          "durationTicks": 22,
          "midi": 51,
          "name": "D#3",
          "ticks": 15720,
          "time": 83.52183375,
          "velocity": 0.7559055118110236
        },
        {
          "duration": 0.11688806249999573,
          "durationTicks": 22,
          "midi": 50,
          "name": "D3",
          "ticks": 15768,
          "time": 83.77686225,
          "velocity": 0.7559055118110236
        },
        {
          "duration": 0.2444023124999859,
          "durationTicks": 46,
          "midi": 48,
          "name": "C3",
          "ticks": 15816,
          "time": 84.03189075,
          "velocity": 0.7559055118110236
        },
        {
          "duration": 0.11688806249999573,
          "durationTicks": 22,
          "midi": 45,
          "name": "A2",
          "ticks": 15864,
          "time": 84.28691925,
          "velocity": 0.7559055118110236
        },
        {
          "duration": 0.11688806249999573,
          "durationTicks": 22,
          "midi": 48,
          "name": "C3",
          "ticks": 15888,
          "time": 84.4144335,
          "velocity": 0.7559055118110236
        },
        {
          "duration": 0.11688806249999573,
          "durationTicks": 22,
          "midi": 50,
          "name": "D3",
          "ticks": 15912,
          "time": 84.54194774999999,
          "velocity": 0.7559055118110236
        },
        {
          "duration": 0.11688806249999573,
          "durationTicks": 22,
          "midi": 45,
          "name": "A2",
          "ticks": 15936,
          "time": 84.669462,
          "velocity": 0.7559055118110236
        },
        {
          "duration": 0.11688806249999573,
          "durationTicks": 22,
          "midi": 45,
          "name": "A2",
          "ticks": 15960,
          "time": 84.79697625,
          "velocity": 0.7559055118110236
        },
        {
          "duration": 0.11688806249999573,
          "durationTicks": 22,
          "midi": 57,
          "name": "A3",
          "ticks": 15984,
          "time": 84.92449049999999,
          "velocity": 0.7559055118110236
        },
        {
          "duration": 0.11688806249999573,
          "durationTicks": 22,
          "midi": 52,
          "name": "E3",
          "ticks": 16032,
          "time": 85.179519,
          "velocity": 0.7559055118110236
        },
        {
          "duration": 0.11688806249999573,
          "durationTicks": 22,
          "midi": 51,
          "name": "D#3",
          "ticks": 16104,
          "time": 85.56206175,
          "velocity": 0.7559055118110236
        },
        {
          "duration": 0.11688806249999573,
          "durationTicks": 22,
          "midi": 50,
          "name": "D3",
          "ticks": 16152,
          "time": 85.81709024999999,
          "velocity": 0.7559055118110236
        },
        {
          "duration": 0.2444023124999859,
          "durationTicks": 46,
          "midi": 48,
          "name": "C3",
          "ticks": 16200,
          "time": 86.07211875,
          "velocity": 0.7559055118110236
        },
        {
          "duration": 0.11688806249999573,
          "durationTicks": 22,
          "midi": 45,
          "name": "A2",
          "ticks": 16248,
          "time": 86.32714725,
          "velocity": 0.7559055118110236
        },
        {
          "duration": 0.11688806249999573,
          "durationTicks": 22,
          "midi": 48,
          "name": "C3",
          "ticks": 16272,
          "time": 86.4546615,
          "velocity": 0.7559055118110236
        },
        {
          "duration": 0.11688806249999573,
          "durationTicks": 22,
          "midi": 50,
          "name": "D3",
          "ticks": 16296,
          "time": 86.58217574999999,
          "velocity": 0.7559055118110236
        },
        {
          "duration": 0.11688806249999573,
          "durationTicks": 22,
          "midi": 45,
          "name": "A2",
          "ticks": 16320,
          "time": 86.70969,
          "velocity": 0.7559055118110236
        },
        {
          "duration": 0.11688806249999573,
          "durationTicks": 22,
          "midi": 45,
          "name": "A2",
          "ticks": 16344,
          "time": 86.83720425,
          "velocity": 0.7559055118110236
        },
        {
          "duration": 0.11688806249998152,
          "durationTicks": 22,
          "midi": 57,
          "name": "A3",
          "ticks": 16368,
          "time": 86.9647185,
          "velocity": 0.7559055118110236
        },
        {
          "duration": 0.11688806249999573,
          "durationTicks": 22,
          "midi": 52,
          "name": "E3",
          "ticks": 16416,
          "time": 87.219747,
          "velocity": 0.7559055118110236
        },
        {
          "duration": 0.11688806249999573,
          "durationTicks": 22,
          "midi": 51,
          "name": "D#3",
          "ticks": 16488,
          "time": 87.60228975,
          "velocity": 0.7559055118110236
        },
        {
          "duration": 0.11688806249999573,
          "durationTicks": 22,
          "midi": 50,
          "name": "D3",
          "ticks": 16536,
          "time": 87.85731824999999,
          "velocity": 0.7559055118110236
        },
        {
          "duration": 0.2444023124999859,
          "durationTicks": 46,
          "midi": 48,
          "name": "C3",
          "ticks": 16584,
          "time": 88.11234675,
          "velocity": 0.7559055118110236
        },
        {
          "duration": 0.11688806249999573,
          "durationTicks": 22,
          "midi": 45,
          "name": "A2",
          "ticks": 16632,
          "time": 88.36737525,
          "velocity": 0.7559055118110236
        },
        {
          "duration": 0.11688806249999573,
          "durationTicks": 22,
          "midi": 48,
          "name": "C3",
          "ticks": 16656,
          "time": 88.4948895,
          "velocity": 0.7559055118110236
        },
        {
          "duration": 0.11688806249998152,
          "durationTicks": 22,
          "midi": 50,
          "name": "D3",
          "ticks": 16680,
          "time": 88.62240375,
          "velocity": 0.7559055118110236
        },
        {
          "duration": 0.11688806249999573,
          "durationTicks": 22,
          "midi": 45,
          "name": "A2",
          "ticks": 16704,
          "time": 88.749918,
          "velocity": 0.7559055118110236
        },
        {
          "duration": 0.11688806249999573,
          "durationTicks": 22,
          "midi": 45,
          "name": "A2",
          "ticks": 16728,
          "time": 88.87743225,
          "velocity": 0.7559055118110236
        },
        {
          "duration": 0.11688806249999573,
          "durationTicks": 22,
          "midi": 57,
          "name": "A3",
          "ticks": 16752,
          "time": 89.0049465,
          "velocity": 0.7559055118110236
        },
        {
          "duration": 0.11688806249999573,
          "durationTicks": 22,
          "midi": 52,
          "name": "E3",
          "ticks": 16800,
          "time": 89.259975,
          "velocity": 0.7559055118110236
        },
        {
          "duration": 0.11688806249999573,
          "durationTicks": 22,
          "midi": 51,
          "name": "D#3",
          "ticks": 16872,
          "time": 89.64251775,
          "velocity": 0.7559055118110236
        },
        {
          "duration": 0.11688806249999573,
          "durationTicks": 22,
          "midi": 50,
          "name": "D3",
          "ticks": 16920,
          "time": 89.89754624999999,
          "velocity": 0.7559055118110236
        },
        {
          "duration": 0.2444023124999859,
          "durationTicks": 46,
          "midi": 48,
          "name": "C3",
          "ticks": 16968,
          "time": 90.15257475,
          "velocity": 0.7559055118110236
        },
        {
          "duration": 0.11688806249999573,
          "durationTicks": 22,
          "midi": 45,
          "name": "A2",
          "ticks": 17016,
          "time": 90.40760325,
          "velocity": 0.7559055118110236
        },
        {
          "duration": 0.11688806249999573,
          "durationTicks": 22,
          "midi": 48,
          "name": "C3",
          "ticks": 17040,
          "time": 90.5351175,
          "velocity": 0.7559055118110236
        },
        {
          "duration": 0.11688806249999573,
          "durationTicks": 22,
          "midi": 50,
          "name": "D3",
          "ticks": 17064,
          "time": 90.66263175,
          "velocity": 0.7559055118110236
        },
        {
          "duration": 0.11688806249999573,
          "durationTicks": 22,
          "midi": 45,
          "name": "A2",
          "ticks": 17088,
          "time": 90.790146,
          "velocity": 0.7559055118110236
        },
        {
          "duration": 0.11688806249999573,
          "durationTicks": 22,
          "midi": 45,
          "name": "A2",
          "ticks": 17112,
          "time": 90.91766025,
          "velocity": 0.7559055118110236
        },
        {
          "duration": 0.11688806249999573,
          "durationTicks": 22,
          "midi": 57,
          "name": "A3",
          "ticks": 17136,
          "time": 91.0451745,
          "velocity": 0.7559055118110236
        },
        {
          "duration": 0.11688806249999573,
          "durationTicks": 22,
          "midi": 52,
          "name": "E3",
          "ticks": 17184,
          "time": 91.300203,
          "velocity": 0.7559055118110236
        },
        {
          "duration": 0.11688806249999573,
          "durationTicks": 22,
          "midi": 51,
          "name": "D#3",
          "ticks": 17256,
          "time": 91.68274575,
          "velocity": 0.7559055118110236
        },
        {
          "duration": 0.11688806249998152,
          "durationTicks": 22,
          "midi": 50,
          "name": "D3",
          "ticks": 17304,
          "time": 91.93777425,
          "velocity": 0.7559055118110236
        },
        {
          "duration": 0.2444023125000001,
          "durationTicks": 46,
          "midi": 48,
          "name": "C3",
          "ticks": 17352,
          "time": 92.19280275,
          "velocity": 0.7559055118110236
        },
        {
          "duration": 0.11688806249999573,
          "durationTicks": 22,
          "midi": 45,
          "name": "A2",
          "ticks": 17400,
          "time": 92.44783125,
          "velocity": 0.7559055118110236
        },
        {
          "duration": 0.11688806249999573,
          "durationTicks": 22,
          "midi": 48,
          "name": "C3",
          "ticks": 17424,
          "time": 92.5753455,
          "velocity": 0.7559055118110236
        },
        {
          "duration": 0.11688806249999573,
          "durationTicks": 22,
          "midi": 50,
          "name": "D3",
          "ticks": 17448,
          "time": 92.70285975,
          "velocity": 0.7559055118110236
        },
        {
          "duration": 0.11688806249999573,
          "durationTicks": 22,
          "midi": 45,
          "name": "A2",
          "ticks": 17472,
          "time": 92.83037399999999,
          "velocity": 0.7559055118110236
        },
        {
          "duration": 0.11688806249999573,
          "durationTicks": 22,
          "midi": 45,
          "name": "A2",
          "ticks": 17496,
          "time": 92.95788825,
          "velocity": 0.7559055118110236
        },
        {
          "duration": 0.11688806249999573,
          "durationTicks": 22,
          "midi": 57,
          "name": "A3",
          "ticks": 17520,
          "time": 93.0854025,
          "velocity": 0.7559055118110236
        },
        {
          "duration": 0.11688806249999573,
          "durationTicks": 22,
          "midi": 52,
          "name": "E3",
          "ticks": 17568,
          "time": 93.340431,
          "velocity": 0.7559055118110236
        },
        {
          "duration": 0.11688806249999573,
          "durationTicks": 22,
          "midi": 51,
          "name": "D#3",
          "ticks": 17640,
          "time": 93.72297375,
          "velocity": 0.7559055118110236
        },
        {
          "duration": 0.11688806249999573,
          "durationTicks": 22,
          "midi": 50,
          "name": "D3",
          "ticks": 17688,
          "time": 93.97800225,
          "velocity": 0.7559055118110236
        },
        {
          "duration": 0.2444023125000001,
          "durationTicks": 46,
          "midi": 48,
          "name": "C3",
          "ticks": 17736,
          "time": 94.23303075,
          "velocity": 0.7559055118110236
        },
        {
          "duration": 0.11688806249999573,
          "durationTicks": 22,
          "midi": 45,
          "name": "A2",
          "ticks": 17784,
          "time": 94.48805924999999,
          "velocity": 0.7559055118110236
        },
        {
          "duration": 0.11688806249999573,
          "durationTicks": 22,
          "midi": 48,
          "name": "C3",
          "ticks": 17808,
          "time": 94.6155735,
          "velocity": 0.7559055118110236
        },
        {
          "duration": 0.11688806249999573,
          "durationTicks": 22,
          "midi": 50,
          "name": "D3",
          "ticks": 17832,
          "time": 94.74308775,
          "velocity": 0.7559055118110236
        },
        {
          "duration": 0.11688806249999573,
          "durationTicks": 22,
          "midi": 45,
          "name": "A2",
          "ticks": 17856,
          "time": 94.87060199999999,
          "velocity": 0.7559055118110236
        },
        {
          "duration": 0.11688806249999573,
          "durationTicks": 22,
          "midi": 45,
          "name": "A2",
          "ticks": 17880,
          "time": 94.99811625,
          "velocity": 0.7559055118110236
        },
        {
          "duration": 0.11688806249999573,
          "durationTicks": 22,
          "midi": 57,
          "name": "A3",
          "ticks": 17904,
          "time": 95.1256305,
          "velocity": 0.7559055118110236
        },
        {
          "duration": 0.11688806249999573,
          "durationTicks": 22,
          "midi": 52,
          "name": "E3",
          "ticks": 17952,
          "time": 95.380659,
          "velocity": 0.7559055118110236
        },
        {
          "duration": 0.11688806249999573,
          "durationTicks": 22,
          "midi": 51,
          "name": "D#3",
          "ticks": 18024,
          "time": 95.76320175,
          "velocity": 0.7559055118110236
        },
        {
          "duration": 0.11688806249999573,
          "durationTicks": 22,
          "midi": 50,
          "name": "D3",
          "ticks": 18072,
          "time": 96.01823025,
          "velocity": 0.7559055118110236
        },
        {
          "duration": 0.2444023125000001,
          "durationTicks": 46,
          "midi": 48,
          "name": "C3",
          "ticks": 18120,
          "time": 96.27325875,
          "velocity": 0.7559055118110236
        },
        {
          "duration": 0.11688806249999573,
          "durationTicks": 22,
          "midi": 45,
          "name": "A2",
          "ticks": 18168,
          "time": 96.52828724999999,
          "velocity": 0.7559055118110236
        },
        {
          "duration": 0.11688806249999573,
          "durationTicks": 22,
          "midi": 48,
          "name": "C3",
          "ticks": 18192,
          "time": 96.6558015,
          "velocity": 0.7559055118110236
        },
        {
          "duration": 0.11688806249999573,
          "durationTicks": 22,
          "midi": 50,
          "name": "D3",
          "ticks": 18216,
          "time": 96.78331575,
          "velocity": 0.7559055118110236
        },
        {
          "duration": 0.11688806249999573,
          "durationTicks": 22,
          "midi": 45,
          "name": "A2",
          "ticks": 18240,
          "time": 96.91082999999999,
          "velocity": 0.7559055118110236
        },
        {
          "duration": 0.11688806249999573,
          "durationTicks": 22,
          "midi": 45,
          "name": "A2",
          "ticks": 18264,
          "time": 97.03834425,
          "velocity": 0.7559055118110236
        },
        {
          "duration": 0.11688806249999573,
          "durationTicks": 22,
          "midi": 57,
          "name": "A3",
          "ticks": 18288,
          "time": 97.1658585,
          "velocity": 0.7559055118110236
        },
        {
          "duration": 0.11688806249999573,
          "durationTicks": 22,
          "midi": 52,
          "name": "E3",
          "ticks": 18336,
          "time": 97.420887,
          "velocity": 0.7559055118110236
        },
        {
          "duration": 0.11688806249999573,
          "durationTicks": 22,
          "midi": 51,
          "name": "D#3",
          "ticks": 18408,
          "time": 97.80342974999999,
          "velocity": 0.7559055118110236
        },
        {
          "duration": 0.11688806249999573,
          "durationTicks": 22,
          "midi": 50,
          "name": "D3",
          "ticks": 18456,
          "time": 98.05845825,
          "velocity": 0.7559055118110236
        },
        {
          "duration": 0.2444023125000001,
          "durationTicks": 46,
          "midi": 48,
          "name": "C3",
          "ticks": 18504,
          "time": 98.31348675,
          "velocity": 0.7559055118110236
        },
        {
          "duration": 0.11688806249999573,
          "durationTicks": 22,
          "midi": 45,
          "name": "A2",
          "ticks": 18552,
          "time": 98.56851524999999,
          "velocity": 0.7559055118110236
        },
        {
          "duration": 0.11688806249999573,
          "durationTicks": 22,
          "midi": 48,
          "name": "C3",
          "ticks": 18576,
          "time": 98.6960295,
          "velocity": 0.7559055118110236
        },
        {
          "duration": 0.11688806249999573,
          "durationTicks": 22,
          "midi": 50,
          "name": "D3",
          "ticks": 18600,
          "time": 98.82354375,
          "velocity": 0.7559055118110236
        },
        {
          "duration": 0.11688806249998152,
          "durationTicks": 22,
          "midi": 45,
          "name": "A2",
          "ticks": 18624,
          "time": 98.951058,
          "velocity": 0.7559055118110236
        },
        {
          "duration": 0.11688806249999573,
          "durationTicks": 22,
          "midi": 45,
          "name": "A2",
          "ticks": 18648,
          "time": 99.07857225,
          "velocity": 0.7559055118110236
        },
        {
          "duration": 0.11688806249999573,
          "durationTicks": 22,
          "midi": 57,
          "name": "A3",
          "ticks": 18672,
          "time": 99.2060865,
          "velocity": 0.7559055118110236
        },
        {
          "duration": 0.11688806249999573,
          "durationTicks": 22,
          "midi": 52,
          "name": "E3",
          "ticks": 18720,
          "time": 99.46111499999999,
          "velocity": 0.7559055118110236
        },
        {
          "duration": 0.11688806249999573,
          "durationTicks": 22,
          "midi": 51,
          "name": "D#3",
          "ticks": 18792,
          "time": 99.84365774999999,
          "velocity": 0.7559055118110236
        },
        {
          "duration": 0.11688806249999573,
          "durationTicks": 22,
          "midi": 50,
          "name": "D3",
          "ticks": 18840,
          "time": 100.09868625,
          "velocity": 0.7559055118110236
        },
        {
          "duration": 0.2444023125000001,
          "durationTicks": 46,
          "midi": 48,
          "name": "C3",
          "ticks": 18888,
          "time": 100.35371475,
          "velocity": 0.7559055118110236
        },
        {
          "duration": 0.11688806249998152,
          "durationTicks": 22,
          "midi": 45,
          "name": "A2",
          "ticks": 18936,
          "time": 100.60874325,
          "velocity": 0.7559055118110236
        },
        {
          "duration": 0.11688806249999573,
          "durationTicks": 22,
          "midi": 48,
          "name": "C3",
          "ticks": 18960,
          "time": 100.7362575,
          "velocity": 0.7559055118110236
        },
        {
          "duration": 0.11688806249999573,
          "durationTicks": 22,
          "midi": 50,
          "name": "D3",
          "ticks": 18984,
          "time": 100.86377175,
          "velocity": 0.7559055118110236
        },
        {
          "duration": 0.11688806249999573,
          "durationTicks": 22,
          "midi": 45,
          "name": "A2",
          "ticks": 19008,
          "time": 100.991286,
          "velocity": 0.7559055118110236
        },
        {
          "duration": 0.11688806249999573,
          "durationTicks": 22,
          "midi": 45,
          "name": "A2",
          "ticks": 19032,
          "time": 101.11880024999999,
          "velocity": 0.7559055118110236
        },
        {
          "duration": 0.11688806249999573,
          "durationTicks": 22,
          "midi": 57,
          "name": "A3",
          "ticks": 19056,
          "time": 101.2463145,
          "velocity": 0.7559055118110236
        },
        {
          "duration": 0.11688806249999573,
          "durationTicks": 22,
          "midi": 52,
          "name": "E3",
          "ticks": 19104,
          "time": 101.50134299999999,
          "velocity": 0.7559055118110236
        },
        {
          "duration": 0.11688806249999573,
          "durationTicks": 22,
          "midi": 51,
          "name": "D#3",
          "ticks": 19176,
          "time": 101.88388574999999,
          "velocity": 0.7559055118110236
        },
        {
          "duration": 0.11688806249999573,
          "durationTicks": 22,
          "midi": 50,
          "name": "D3",
          "ticks": 19224,
          "time": 102.13891425,
          "velocity": 0.7559055118110236
        },
        {
          "duration": 0.2444023125000001,
          "durationTicks": 46,
          "midi": 48,
          "name": "C3",
          "ticks": 19272,
          "time": 102.39394275,
          "velocity": 0.7559055118110236
        },
        {
          "duration": 0.11688806249999573,
          "durationTicks": 22,
          "midi": 45,
          "name": "A2",
          "ticks": 19320,
          "time": 102.64897125,
          "velocity": 0.7559055118110236
        },
        {
          "duration": 0.11688806249999573,
          "durationTicks": 22,
          "midi": 48,
          "name": "C3",
          "ticks": 19344,
          "time": 102.77648549999999,
          "velocity": 0.7559055118110236
        },
        {
          "duration": 0.11688806249999573,
          "durationTicks": 22,
          "midi": 50,
          "name": "D3",
          "ticks": 19368,
          "time": 102.90399975,
          "velocity": 0.7559055118110236
        },
        {
          "duration": 0.11688806249999573,
          "durationTicks": 22,
          "midi": 45,
          "name": "A2",
          "ticks": 19392,
          "time": 103.031514,
          "velocity": 0.7559055118110236
        },
        {
          "duration": 0.11688806249999573,
          "durationTicks": 22,
          "midi": 45,
          "name": "A2",
          "ticks": 19416,
          "time": 103.15902824999999,
          "velocity": 0.7559055118110236
        },
        {
          "duration": 0.11688806249999573,
          "durationTicks": 22,
          "midi": 57,
          "name": "A3",
          "ticks": 19440,
          "time": 103.2865425,
          "velocity": 0.7559055118110236
        },
        {
          "duration": 0.11688806249999573,
          "durationTicks": 22,
          "midi": 52,
          "name": "E3",
          "ticks": 19488,
          "time": 103.54157099999999,
          "velocity": 0.7559055118110236
        },
        {
          "duration": 0.11688806249999573,
          "durationTicks": 22,
          "midi": 51,
          "name": "D#3",
          "ticks": 19560,
          "time": 103.92411374999999,
          "velocity": 0.7559055118110236
        },
        {
          "duration": 0.11688806249999573,
          "durationTicks": 22,
          "midi": 50,
          "name": "D3",
          "ticks": 19608,
          "time": 104.17914225,
          "velocity": 0.7559055118110236
        },
        {
          "duration": 0.2444023125000001,
          "durationTicks": 46,
          "midi": 48,
          "name": "C3",
          "ticks": 19656,
          "time": 104.43417074999999,
          "velocity": 0.7559055118110236
        },
        {
          "duration": 0.11688806249999573,
          "durationTicks": 22,
          "midi": 45,
          "name": "A2",
          "ticks": 19704,
          "time": 104.68919925,
          "velocity": 0.7559055118110236
        },
        {
          "duration": 0.11688806249999573,
          "durationTicks": 22,
          "midi": 48,
          "name": "C3",
          "ticks": 19728,
          "time": 104.81671349999999,
          "velocity": 0.7559055118110236
        },
        {
          "duration": 0.11688806249999573,
          "durationTicks": 22,
          "midi": 50,
          "name": "D3",
          "ticks": 19752,
          "time": 104.94422775,
          "velocity": 0.7559055118110236
        },
        {
          "duration": 0.11688806249999573,
          "durationTicks": 22,
          "midi": 45,
          "name": "A2",
          "ticks": 19776,
          "time": 105.071742,
          "velocity": 0.7244094488188977
        },
        {
          "duration": 0.11688806249999573,
          "durationTicks": 22,
          "midi": 45,
          "name": "A2",
          "ticks": 19800,
          "time": 105.19925624999999,
          "velocity": 0.6929133858267716
        },
        {
          "duration": 0.11688806249999573,
          "durationTicks": 22,
          "midi": 57,
          "name": "A3",
          "ticks": 19824,
          "time": 105.3267705,
          "velocity": 0.6614173228346457
        },
        {
          "duration": 0.11688806249999573,
          "durationTicks": 22,
          "midi": 52,
          "name": "E3",
          "ticks": 19872,
          "time": 105.58179899999999,
          "velocity": 0.6299212598425197
        },
        {
          "duration": 0.11688806249999573,
          "durationTicks": 22,
          "midi": 51,
          "name": "D#3",
          "ticks": 19944,
          "time": 105.96434175,
          "velocity": 0.5669291338582677
        },
        {
          "duration": 0.11688806249999573,
          "durationTicks": 22,
          "midi": 50,
          "name": "D3",
          "ticks": 19992,
          "time": 106.21937025,
          "velocity": 0.5354330708661418
        },
        {
          "duration": 0.2444023125000001,
          "durationTicks": 46,
          "midi": 48,
          "name": "C3",
          "ticks": 20040,
          "time": 106.47439874999999,
          "velocity": 0.5039370078740157
        },
        {
          "duration": 0.11688806249999573,
          "durationTicks": 22,
          "midi": 45,
          "name": "A2",
          "ticks": 20088,
          "time": 106.72942725,
          "velocity": 0.4409448818897638
        },
        {
          "duration": 0.11688806249999573,
          "durationTicks": 22,
          "midi": 48,
          "name": "C3",
          "ticks": 20112,
          "time": 106.85694149999999,
          "velocity": 0.4094488188976378
        },
        {
          "duration": 0.11688806249999573,
          "durationTicks": 22,
          "midi": 50,
          "name": "D3",
          "ticks": 20136,
          "time": 106.98445575,
          "velocity": 0.3779527559055118
        },
        {
          "duration": 0.11688806249999573,
          "durationTicks": 22,
          "midi": 41,
          "name": "F2",
          "ticks": 20160,
          "time": 107.11197,
          "velocity": 0.7559055118110236
        },
        {
          "duration": 0.11688806249999573,
          "durationTicks": 22,
          "midi": 41,
          "name": "F2",
          "ticks": 20184,
          "time": 107.23948424999999,
          "velocity": 0.7559055118110236
        },
        {
          "duration": 0.11688806249999573,
          "durationTicks": 22,
          "midi": 57,
          "name": "A3",
          "ticks": 20208,
          "time": 107.3669985,
          "velocity": 0.7559055118110236
        },
        {
          "duration": 0.11688806249999573,
          "durationTicks": 22,
          "midi": 52,
          "name": "E3",
          "ticks": 20256,
          "time": 107.622027,
          "velocity": 0.7559055118110236
        },
        {
          "duration": 0.11688806249999573,
          "durationTicks": 22,
          "midi": 51,
          "name": "D#3",
          "ticks": 20328,
          "time": 108.00456975,
          "velocity": 0.7559055118110236
        },
        {
          "duration": 0.11688806249999573,
          "durationTicks": 22,
          "midi": 50,
          "name": "D3",
          "ticks": 20376,
          "time": 108.25959825,
          "velocity": 0.7559055118110236
        },
        {
          "duration": 0.2444023125000001,
          "durationTicks": 46,
          "midi": 48,
          "name": "C3",
          "ticks": 20424,
          "time": 108.51462674999999,
          "velocity": 0.7559055118110236
        },
        {
          "duration": 0.11688806249999573,
          "durationTicks": 22,
          "midi": 45,
          "name": "A2",
          "ticks": 20472,
          "time": 108.76965525,
          "velocity": 0.7559055118110236
        },
        {
          "duration": 0.11688806249999573,
          "durationTicks": 22,
          "midi": 48,
          "name": "C3",
          "ticks": 20496,
          "time": 108.89716949999999,
          "velocity": 0.7559055118110236
        },
        {
          "duration": 0.11688806249999573,
          "durationTicks": 22,
          "midi": 50,
          "name": "D3",
          "ticks": 20520,
          "time": 109.02468375,
          "velocity": 0.7559055118110236
        },
        {
          "duration": 0.11688806249999573,
          "durationTicks": 22,
          "midi": 43,
          "name": "G2",
          "ticks": 20544,
          "time": 109.152198,
          "velocity": 0.7559055118110236
        },
        {
          "duration": 0.11688806249998152,
          "durationTicks": 22,
          "midi": 43,
          "name": "G2",
          "ticks": 20568,
          "time": 109.27971225,
          "velocity": 0.7559055118110236
        },
        {
          "duration": 0.11688806249999573,
          "durationTicks": 22,
          "midi": 57,
          "name": "A3",
          "ticks": 20592,
          "time": 109.4072265,
          "velocity": 0.7559055118110236
        },
        {
          "duration": 0.11688806249999573,
          "durationTicks": 22,
          "midi": 52,
          "name": "E3",
          "ticks": 20640,
          "time": 109.662255,
          "velocity": 0.7559055118110236
        },
        {
          "duration": 0.11688806249999573,
          "durationTicks": 22,
          "midi": 51,
          "name": "D#3",
          "ticks": 20712,
          "time": 110.04479775,
          "velocity": 0.7559055118110236
        },
        {
          "duration": 0.11688806249999573,
          "durationTicks": 22,
          "midi": 50,
          "name": "D3",
          "ticks": 20760,
          "time": 110.29982625,
          "velocity": 0.7559055118110236
        },
        {
          "duration": 0.2444023125000001,
          "durationTicks": 46,
          "midi": 48,
          "name": "C3",
          "ticks": 20808,
          "time": 110.55485474999999,
          "velocity": 0.7559055118110236
        },
        {
          "duration": 0.11688806249999573,
          "durationTicks": 22,
          "midi": 45,
          "name": "A2",
          "ticks": 20856,
          "time": 110.80988325,
          "velocity": 0.7559055118110236
        },
        {
          "duration": 0.11688806249998152,
          "durationTicks": 22,
          "midi": 48,
          "name": "C3",
          "ticks": 20880,
          "time": 110.9373975,
          "velocity": 0.7559055118110236
        },
        {
          "duration": 0.11688806249999573,
          "durationTicks": 22,
          "midi": 50,
          "name": "D3",
          "ticks": 20904,
          "time": 111.06491175,
          "velocity": 0.7559055118110236
        }
      ]
    },
    {
      "channel": 0,
      "controlChanges": {
        "6": [
          {
            "number": 6,
            "ticks": 0,
            "time": 0,
            "value": 0.09448818897637795
          }
        ],
        "7": [
          {
            "number": 7,
            "ticks": 0,
            "time": 0,
            "value": 0.7007874015748031
          },
          {
            "number": 7,
            "ticks": 0,
            "time": 0,
            "value": 0.7007874015748031
          }
        ],
        "10": [
          {
            "number": 10,
            "ticks": 0,
            "time": 0,
            "value": 0.8346456692913385
          },
          {
            "number": 10,
            "ticks": 0,
            "time": 0,
            "value": 0.8346456692913385
          }
        ],
        "100": [
          {
            "number": 100,
            "ticks": 0,
            "time": 0,
            "value": 0
          }
        ],
        "101": [
          {
            "number": 101,
            "ticks": 0,
            "time": 0,
            "value": 0
          }
        ]
      },
      "pitchBends": [
        {
          "ticks": 0,
          "time": 0,
          "value": 0.012451171875
        },
        {
          "ticks": 0,
          "time": 0,
          "value": 0.012451171875
        }
      ],
      "instrument": {
        "family": "piano",
        "number": 0,
        "name": "acoustic grand piano"
      },
      "name": "overdrive",
      "notes": [],
      "endOfTrackTicks": 21120
    },
    {
      "channel": 5,
      "controlChanges": {
        "1": [
          {
            "number": 1,
            "ticks": 0,
            "time": 0,
            "value": 0
          },
          {
            "number": 1,
            "ticks": 0,
            "time": 0,
            "value": 0
          },
          {
            "number": 1,
            "ticks": 21120,
            "time": 112.21253999999999,
            "value": 0
          },
          {
            "number": 1,
            "ticks": 21120,
            "time": 112.21253999999999,
            "value": 0
          },
          {
            "number": 1,
            "ticks": 21120,
            "time": 112.21253999999999,
            "value": 0
          }
        ],
        "2": [
          {
            "number": 2,
            "ticks": 0,
            "time": 0,
            "value": 0
          },
          {
            "number": 2,
            "ticks": 0,
            "time": 0,
            "value": 0
          },
          {
            "number": 2,
            "ticks": 21120,
            "time": 112.21253999999999,
            "value": 0
          },
          {
            "number": 2,
            "ticks": 21120,
            "time": 112.21253999999999,
            "value": 0
          },
          {
            "number": 2,
            "ticks": 21120,
            "time": 112.21253999999999,
            "value": 0
          }
        ],
        "4": [
          {
            "number": 4,
            "ticks": 0,
            "time": 0,
            "value": 0
          },
          {
            "number": 4,
            "ticks": 0,
            "time": 0,
            "value": 0
          },
          {
            "number": 4,
            "ticks": 21120,
            "time": 112.21253999999999,
            "value": 0
          },
          {
            "number": 4,
            "ticks": 21120,
            "time": 112.21253999999999,
            "value": 0
          },
          {
            "number": 4,
            "ticks": 21120,
            "time": 112.21253999999999,
            "value": 0
          }
        ],
        "5": [
          {
            "number": 5,
            "ticks": 0,
            "time": 0,
            "value": 0
          },
          {
            "number": 5,
            "ticks": 0,
            "time": 0,
            "value": 0
          },
          {
            "number": 5,
            "ticks": 21120,
            "time": 112.21253999999999,
            "value": 0
          },
          {
            "number": 5,
            "ticks": 21120,
            "time": 112.21253999999999,
            "value": 0
          },
          {
            "number": 5,
            "ticks": 21120,
            "time": 112.21253999999999,
            "value": 0
          }
        ],
        "6": [
          {
            "number": 6,
            "ticks": 0,
            "time": 0,
            "value": 0.09448818897637795
          },
          {
            "number": 6,
            "ticks": 21120,
            "time": 112.21253999999999,
            "value": 0.09448818897637795
          },
          {
            "number": 6,
            "ticks": 21120,
            "time": 112.21253999999999,
            "value": 0.09448818897637795
          },
          {
            "number": 6,
            "ticks": 21120,
            "time": 112.21253999999999,
            "value": 0.09448818897637795
          }
        ],
        "7": [
          {
            "number": 7,
            "ticks": 0,
            "time": 0,
            "value": 0.12598425196850394
          },
          {
            "number": 7,
            "ticks": 0,
            "time": 0,
            "value": 0.12598425196850394
          },
          {
            "number": 7,
            "ticks": 0,
            "time": 0,
            "value": 0.12598425196850394
          },
          {
            "number": 7,
            "ticks": 1,
            "time": 0.005313093749999999,
            "value": 0.12598425196850394
          },
          {
            "number": 7,
            "ticks": 2,
            "time": 0.010626187499999998,
            "value": 0.12598425196850394
          },
          {
            "number": 7,
            "ticks": 3,
            "time": 0.01593928125,
            "value": 0.13385826771653545
          },
          {
            "number": 7,
            "ticks": 4,
            "time": 0.021252374999999997,
            "value": 0.13385826771653545
          },
          {
            "number": 7,
            "ticks": 5,
            "time": 0.02656546875,
            "value": 0.13385826771653545
          },
          {
            "number": 7,
            "ticks": 6,
            "time": 0.0318785625,
            "value": 0.13385826771653545
          },
          {
            "number": 7,
            "ticks": 7,
            "time": 0.03719165625,
            "value": 0.14173228346456693
          },
          {
            "number": 7,
            "ticks": 8,
            "time": 0.042504749999999994,
            "value": 0.14173228346456693
          },
          {
            "number": 7,
            "ticks": 9,
            "time": 0.04781784375,
            "value": 0.14173228346456693
          },
          {
            "number": 7,
            "ticks": 10,
            "time": 0.0531309375,
            "value": 0.14173228346456693
          },
          {
            "number": 7,
            "ticks": 11,
            "time": 0.05844403124999999,
            "value": 0.14173228346456693
          },
          {
            "number": 7,
            "ticks": 12,
            "time": 0.063757125,
            "value": 0.14960629921259844
          },
          {
            "number": 7,
            "ticks": 13,
            "time": 0.06907021875,
            "value": 0.14960629921259844
          },
          {
            "number": 7,
            "ticks": 14,
            "time": 0.0743833125,
            "value": 0.14960629921259844
          },
          {
            "number": 7,
            "ticks": 15,
            "time": 0.07969640624999999,
            "value": 0.14960629921259844
          },
          {
            "number": 7,
            "ticks": 16,
            "time": 0.08500949999999999,
            "value": 0.14960629921259844
          },
          {
            "number": 7,
            "ticks": 17,
            "time": 0.09032259375,
            "value": 0.15748031496062992
          },
          {
            "number": 7,
            "ticks": 18,
            "time": 0.0956356875,
            "value": 0.15748031496062992
          },
          {
            "number": 7,
            "ticks": 19,
            "time": 0.10094878125,
            "value": 0.15748031496062992
          },
          {
            "number": 7,
            "ticks": 20,
            "time": 0.106261875,
            "value": 0.15748031496062992
          },
          {
            "number": 7,
            "ticks": 21,
            "time": 0.11157496875,
            "value": 0.16535433070866143
          },
          {
            "number": 7,
            "ticks": 22,
            "time": 0.11688806249999999,
            "value": 0.16535433070866143
          },
          {
            "number": 7,
            "ticks": 23,
            "time": 0.12220115625,
            "value": 0.16535433070866143
          },
          {
            "number": 7,
            "ticks": 24,
            "time": 0.12751425,
            "value": 0.16535433070866143
          },
          {
            "number": 7,
            "ticks": 25,
            "time": 0.13282734375,
            "value": 0.16535433070866143
          },
          {
            "number": 7,
            "ticks": 26,
            "time": 0.1381404375,
            "value": 0.1732283464566929
          },
          {
            "number": 7,
            "ticks": 27,
            "time": 0.14345353125,
            "value": 0.1732283464566929
          },
          {
            "number": 7,
            "ticks": 28,
            "time": 0.148766625,
            "value": 0.1732283464566929
          },
          {
            "number": 7,
            "ticks": 29,
            "time": 0.15407971874999998,
            "value": 0.1732283464566929
          },
          {
            "number": 7,
            "ticks": 30,
            "time": 0.15939281249999998,
            "value": 0.1732283464566929
          },
          {
            "number": 7,
            "ticks": 31,
            "time": 0.16470590625,
            "value": 0.18110236220472442
          },
          {
            "number": 7,
            "ticks": 32,
            "time": 0.17001899999999998,
            "value": 0.18110236220472442
          },
          {
            "number": 7,
            "ticks": 33,
            "time": 0.17533209375,
            "value": 0.18110236220472442
          },
          {
            "number": 7,
            "ticks": 34,
            "time": 0.1806451875,
            "value": 0.18110236220472442
          },
          {
            "number": 7,
            "ticks": 35,
            "time": 0.18595828125,
            "value": 0.1889763779527559
          },
          {
            "number": 7,
            "ticks": 36,
            "time": 0.191271375,
            "value": 0.1889763779527559
          },
          {
            "number": 7,
            "ticks": 37,
            "time": 0.19658446875,
            "value": 0.1889763779527559
          },
          {
            "number": 7,
            "ticks": 38,
            "time": 0.2018975625,
            "value": 0.1889763779527559
          },
          {
            "number": 7,
            "ticks": 39,
            "time": 0.20721065624999999,
            "value": 0.1889763779527559
          },
          {
            "number": 7,
            "ticks": 40,
            "time": 0.21252375,
            "value": 0.1968503937007874
          },
          {
            "number": 7,
            "ticks": 41,
            "time": 0.21783684374999998,
            "value": 0.1968503937007874
          },
          {
            "number": 7,
            "ticks": 42,
            "time": 0.2231499375,
            "value": 0.1968503937007874
          },
          {
            "number": 7,
            "ticks": 43,
            "time": 0.22846303125,
            "value": 0.1968503937007874
          },
          {
            "number": 7,
            "ticks": 44,
            "time": 0.23377612499999997,
            "value": 0.1968503937007874
          },
          {
            "number": 7,
            "ticks": 45,
            "time": 0.23908921875,
            "value": 0.2047244094488189
          },
          {
            "number": 7,
            "ticks": 46,
            "time": 0.2444023125,
            "value": 0.2047244094488189
          },
          {
            "number": 7,
            "ticks": 47,
            "time": 0.24971540625,
            "value": 0.2047244094488189
          },
          {
            "number": 7,
            "ticks": 48,
            "time": 0.2550285,
            "value": 0.2047244094488189
          },
          {
            "number": 7,
            "ticks": 49,
            "time": 0.26034159375,
            "value": 0.2125984251968504
          },
          {
            "number": 7,
            "ticks": 50,
            "time": 0.2656546875,
            "value": 0.2125984251968504
          },
          {
            "number": 7,
            "ticks": 51,
            "time": 0.27096778125,
            "value": 0.2125984251968504
          },
          {
            "number": 7,
            "ticks": 52,
            "time": 0.276280875,
            "value": 0.2125984251968504
          },
          {
            "number": 7,
            "ticks": 53,
            "time": 0.28159396875000003,
            "value": 0.2125984251968504
          },
          {
            "number": 7,
            "ticks": 54,
            "time": 0.2869070625,
            "value": 0.2204724409448819
          },
          {
            "number": 7,
            "ticks": 55,
            "time": 0.29222015625,
            "value": 0.2204724409448819
          },
          {
            "number": 7,
            "ticks": 56,
            "time": 0.29753325,
            "value": 0.2204724409448819
          },
          {
            "number": 7,
            "ticks": 57,
            "time": 0.30284634374999997,
            "value": 0.2204724409448819
          },
          {
            "number": 7,
            "ticks": 58,
            "time": 0.30815943749999997,
            "value": 0.2204724409448819
          },
          {
            "number": 7,
            "ticks": 59,
            "time": 0.31347253125,
            "value": 0.2283464566929134
          },
          {
            "number": 7,
            "ticks": 60,
            "time": 0.31878562499999996,
            "value": 0.2283464566929134
          },
          {
            "number": 7,
            "ticks": 61,
            "time": 0.32409871874999996,
            "value": 0.2283464566929134
          },
          {
            "number": 7,
            "ticks": 62,
            "time": 0.3294118125,
            "value": 0.2283464566929134
          },
          {
            "number": 7,
            "ticks": 63,
            "time": 0.33472490625,
            "value": 0.23622047244094488
          },
          {
            "number": 7,
            "ticks": 64,
            "time": 0.34003799999999995,
            "value": 0.23622047244094488
          },
          {
            "number": 7,
            "ticks": 65,
            "time": 0.34535109375,
            "value": 0.23622047244094488
          },
          {
            "number": 7,
            "ticks": 66,
            "time": 0.3506641875,
            "value": 0.23622047244094488
          },
          {
            "number": 7,
            "ticks": 67,
            "time": 0.35597728124999994,
            "value": 0.23622047244094488
          },
          {
            "number": 7,
            "ticks": 68,
            "time": 0.361290375,
            "value": 0.2440944881889764
          },
          {
            "number": 7,
            "ticks": 69,
            "time": 0.36660346875,
            "value": 0.2440944881889764
          },
          {
            "number": 7,
            "ticks": 70,
            "time": 0.3719165625,
            "value": 0.2440944881889764
          },
          {
            "number": 7,
            "ticks": 71,
            "time": 0.37722965625,
            "value": 0.2440944881889764
          },
          {
            "number": 7,
            "ticks": 72,
            "time": 0.38254275,
            "value": 0.2440944881889764
          },
          {
            "number": 7,
            "ticks": 73,
            "time": 0.38785584375,
            "value": 0.25196850393700787
          },
          {
            "number": 7,
            "ticks": 74,
            "time": 0.3931689375,
            "value": 0.25196850393700787
          },
          {
            "number": 7,
            "ticks": 75,
            "time": 0.39848203125,
            "value": 0.25196850393700787
          },
          {
            "number": 7,
            "ticks": 76,
            "time": 0.403795125,
            "value": 0.25196850393700787
          },
          {
            "number": 7,
            "ticks": 77,
            "time": 0.40910821875000003,
            "value": 0.25984251968503935
          },
          {
            "number": 7,
            "ticks": 78,
            "time": 0.41442131249999997,
            "value": 0.25984251968503935
          },
          {
            "number": 7,
            "ticks": 79,
            "time": 0.41973440624999997,
            "value": 0.25984251968503935
          },
          {
            "number": 7,
            "ticks": 80,
            "time": 0.4250475,
            "value": 0.25984251968503935
          },
          {
            "number": 7,
            "ticks": 81,
            "time": 0.43036059374999996,
            "value": 0.25984251968503935
          },
          {
            "number": 7,
            "ticks": 82,
            "time": 0.43567368749999996,
            "value": 0.2677165354330709
          },
          {
            "number": 7,
            "ticks": 83,
            "time": 0.44098678125,
            "value": 0.2677165354330709
          },
          {
            "number": 7,
            "ticks": 84,
            "time": 0.446299875,
            "value": 0.2677165354330709
          },
          {
            "number": 7,
            "ticks": 85,
            "time": 0.45161296874999995,
            "value": 0.2677165354330709
          },
          {
            "number": 7,
            "ticks": 86,
            "time": 0.4569260625,
            "value": 0.2677165354330709
          },
          {
            "number": 7,
            "ticks": 87,
            "time": 0.46223915625,
            "value": 0.2755905511811024
          },
          {
            "number": 7,
            "ticks": 88,
            "time": 0.46755224999999995,
            "value": 0.2755905511811024
          },
          {
            "number": 7,
            "ticks": 89,
            "time": 0.47286534375,
            "value": 0.2755905511811024
          },
          {
            "number": 7,
            "ticks": 90,
            "time": 0.4781784375,
            "value": 0.2755905511811024
          },
          {
            "number": 7,
            "ticks": 91,
            "time": 0.48349153124999994,
            "value": 0.28346456692913385
          },
          {
            "number": 7,
            "ticks": 92,
            "time": 0.488804625,
            "value": 0.28346456692913385
          },
          {
            "number": 7,
            "ticks": 93,
            "time": 0.49411771875,
            "value": 0.28346456692913385
          },
          {
            "number": 7,
            "ticks": 94,
            "time": 0.4994308125,
            "value": 0.28346456692913385
          },
          {
            "number": 7,
            "ticks": 95,
            "time": 0.50474390625,
            "value": 0.28346456692913385
          },
          {
            "number": 7,
            "ticks": 96,
            "time": 0.510057,
            "value": 0.29133858267716534
          },
          {
            "number": 7,
            "ticks": 97,
            "time": 0.51537009375,
            "value": 0.29133858267716534
          },
          {
            "number": 7,
            "ticks": 98,
            "time": 0.5206831875,
            "value": 0.29133858267716534
          },
          {
            "number": 7,
            "ticks": 99,
            "time": 0.52599628125,
            "value": 0.29133858267716534
          },
          {
            "number": 7,
            "ticks": 100,
            "time": 0.531309375,
            "value": 0.29133858267716534
          },
          {
            "number": 7,
            "ticks": 101,
            "time": 0.53662246875,
            "value": 0.2992125984251969
          },
          {
            "number": 7,
            "ticks": 102,
            "time": 0.5419355625,
            "value": 0.2992125984251969
          },
          {
            "number": 7,
            "ticks": 103,
            "time": 0.54724865625,
            "value": 0.2992125984251969
          },
          {
            "number": 7,
            "ticks": 104,
            "time": 0.55256175,
            "value": 0.2992125984251969
          },
          {
            "number": 7,
            "ticks": 105,
            "time": 0.55787484375,
            "value": 0.30708661417322836
          },
          {
            "number": 7,
            "ticks": 106,
            "time": 0.5631879375000001,
            "value": 0.30708661417322836
          },
          {
            "number": 7,
            "ticks": 107,
            "time": 0.56850103125,
            "value": 0.30708661417322836
          },
          {
            "number": 7,
            "ticks": 108,
            "time": 0.573814125,
            "value": 0.30708661417322836
          },
          {
            "number": 7,
            "ticks": 109,
            "time": 0.5791272187500001,
            "value": 0.30708661417322836
          },
          {
            "number": 7,
            "ticks": 110,
            "time": 0.5844403125,
            "value": 0.31496062992125984
          },
          {
            "number": 7,
            "ticks": 111,
            "time": 0.58975340625,
            "value": 0.31496062992125984
          },
          {
            "number": 7,
            "ticks": 112,
            "time": 0.5950665,
            "value": 0.31496062992125984
          },
          {
            "number": 7,
            "ticks": 113,
            "time": 0.6003795937499999,
            "value": 0.31496062992125984
          },
          {
            "number": 7,
            "ticks": 114,
            "time": 0.6056926874999999,
            "value": 0.31496062992125984
          },
          {
            "number": 7,
            "ticks": 115,
            "time": 0.61100578125,
            "value": 0.3228346456692913
          },
          {
            "number": 7,
            "ticks": 116,
            "time": 0.6163188749999999,
            "value": 0.3228346456692913
          },
          {
            "number": 7,
            "ticks": 117,
            "time": 0.6216319687499999,
            "value": 0.3228346456692913
          },
          {
            "number": 7,
            "ticks": 118,
            "time": 0.6269450625,
            "value": 0.3228346456692913
          },
          {
            "number": 7,
            "ticks": 119,
            "time": 0.6322581562499999,
            "value": 0.33070866141732286
          },
          {
            "number": 7,
            "ticks": 120,
            "time": 0.6375712499999999,
            "value": 0.33070866141732286
          },
          {
            "number": 7,
            "ticks": 121,
            "time": 0.64288434375,
            "value": 0.33070866141732286
          },
          {
            "number": 7,
            "ticks": 122,
            "time": 0.6481974374999999,
            "value": 0.33070866141732286
          },
          {
            "number": 7,
            "ticks": 123,
            "time": 0.65351053125,
            "value": 0.33070866141732286
          },
          {
            "number": 7,
            "ticks": 124,
            "time": 0.658823625,
            "value": 0.33858267716535434
          },
          {
            "number": 7,
            "ticks": 125,
            "time": 0.6641367187499999,
            "value": 0.33858267716535434
          },
          {
            "number": 7,
            "ticks": 126,
            "time": 0.6694498125,
            "value": 0.33858267716535434
          },
          {
            "number": 7,
            "ticks": 127,
            "time": 0.67476290625,
            "value": 0.33858267716535434
          },
          {
            "number": 7,
            "ticks": 128,
            "time": 0.6800759999999999,
            "value": 0.33858267716535434
          },
          {
            "number": 7,
            "ticks": 129,
            "time": 0.68538909375,
            "value": 0.3464566929133858
          },
          {
            "number": 7,
            "ticks": 130,
            "time": 0.6907021875,
            "value": 0.3464566929133858
          },
          {
            "number": 7,
            "ticks": 131,
            "time": 0.6960152812499999,
            "value": 0.3464566929133858
          },
          {
            "number": 7,
            "ticks": 132,
            "time": 0.701328375,
            "value": 0.3464566929133858
          },
          {
            "number": 7,
            "ticks": 133,
            "time": 0.70664146875,
            "value": 0.3543307086614173
          },
          {
            "number": 7,
            "ticks": 134,
            "time": 0.7119545624999999,
            "value": 0.3543307086614173
          },
          {
            "number": 7,
            "ticks": 135,
            "time": 0.71726765625,
            "value": 0.3543307086614173
          },
          {
            "number": 7,
            "ticks": 136,
            "time": 0.72258075,
            "value": 0.3543307086614173
          },
          {
            "number": 7,
            "ticks": 137,
            "time": 0.72789384375,
            "value": 0.3543307086614173
          },
          {
            "number": 7,
            "ticks": 138,
            "time": 0.7332069375,
            "value": 0.36220472440944884
          },
          {
            "number": 7,
            "ticks": 139,
            "time": 0.73852003125,
            "value": 0.36220472440944884
          },
          {
            "number": 7,
            "ticks": 140,
            "time": 0.743833125,
            "value": 0.36220472440944884
          },
          {
            "number": 7,
            "ticks": 141,
            "time": 0.74914621875,
            "value": 0.36220472440944884
          },
          {
            "number": 7,
            "ticks": 142,
            "time": 0.7544593125,
            "value": 0.36220472440944884
          },
          {
            "number": 7,
            "ticks": 143,
            "time": 0.75977240625,
            "value": 0.3700787401574803
          },
          {
            "number": 7,
            "ticks": 144,
            "time": 0.7650855,
            "value": 0.3700787401574803
          },
          {
            "number": 7,
            "ticks": 145,
            "time": 0.77039859375,
            "value": 0.3700787401574803
          },
          {
            "number": 7,
            "ticks": 146,
            "time": 0.7757116875,
            "value": 0.3700787401574803
          },
          {
            "number": 7,
            "ticks": 147,
            "time": 0.78102478125,
            "value": 0.3779527559055118
          },
          {
            "number": 7,
            "ticks": 148,
            "time": 0.786337875,
            "value": 0.3779527559055118
          },
          {
            "number": 7,
            "ticks": 149,
            "time": 0.79165096875,
            "value": 0.3779527559055118
          },
          {
            "number": 7,
            "ticks": 150,
            "time": 0.7969640625,
            "value": 0.3779527559055118
          },
          {
            "number": 7,
            "ticks": 151,
            "time": 0.80227715625,
            "value": 0.3779527559055118
          },
          {
            "number": 7,
            "ticks": 152,
            "time": 0.80759025,
            "value": 0.3858267716535433
          },
          {
            "number": 7,
            "ticks": 153,
            "time": 0.81290334375,
            "value": 0.3858267716535433
          },
          {
            "number": 7,
            "ticks": 154,
            "time": 0.8182164375000001,
            "value": 0.3858267716535433
          },
          {
            "number": 7,
            "ticks": 155,
            "time": 0.82352953125,
            "value": 0.3858267716535433
          },
          {
            "number": 7,
            "ticks": 156,
            "time": 0.8288426249999999,
            "value": 0.3858267716535433
          },
          {
            "number": 7,
            "ticks": 157,
            "time": 0.83415571875,
            "value": 0.3937007874015748
          },
          {
            "number": 7,
            "ticks": 158,
            "time": 0.8394688124999999,
            "value": 0.3937007874015748
          },
          {
            "number": 7,
            "ticks": 159,
            "time": 0.8447819062499999,
            "value": 0.3937007874015748
          },
          {
            "number": 7,
            "ticks": 160,
            "time": 0.850095,
            "value": 0.3937007874015748
          },
          {
            "number": 7,
            "ticks": 161,
            "time": 0.8554080937499999,
            "value": 0.4015748031496063
          },
          {
            "number": 7,
            "ticks": 162,
            "time": 0.8607211874999999,
            "value": 0.4015748031496063
          },
          {
            "number": 7,
            "ticks": 163,
            "time": 0.86603428125,
            "value": 0.4015748031496063
          },
          {
            "number": 7,
            "ticks": 164,
            "time": 0.8713473749999999,
            "value": 0.4015748031496063
          },
          {
            "number": 7,
            "ticks": 165,
            "time": 0.8766604687499999,
            "value": 0.4015748031496063
          },
          {
            "number": 7,
            "ticks": 166,
            "time": 0.8819735625,
            "value": 0.4094488188976378
          },
          {
            "number": 7,
            "ticks": 167,
            "time": 0.8872866562499999,
            "value": 0.4094488188976378
          },
          {
            "number": 7,
            "ticks": 168,
            "time": 0.89259975,
            "value": 0.4094488188976378
          },
          {
            "number": 7,
            "ticks": 169,
            "time": 0.89791284375,
            "value": 0.4094488188976378
          },
          {
            "number": 7,
            "ticks": 170,
            "time": 0.9032259374999999,
            "value": 0.4094488188976378
          },
          {
            "number": 7,
            "ticks": 171,
            "time": 0.90853903125,
            "value": 0.41732283464566927
          },
          {
            "number": 7,
            "ticks": 172,
            "time": 0.913852125,
            "value": 0.41732283464566927
          },
          {
            "number": 7,
            "ticks": 173,
            "time": 0.9191652187499999,
            "value": 0.41732283464566927
          },
          {
            "number": 7,
            "ticks": 174,
            "time": 0.9244783125,
            "value": 0.41732283464566927
          },
          {
            "number": 7,
            "ticks": 175,
            "time": 0.92979140625,
            "value": 0.4251968503937008
          },
          {
            "number": 7,
            "ticks": 176,
            "time": 0.9351044999999999,
            "value": 0.4251968503937008
          },
          {
            "number": 7,
            "ticks": 177,
            "time": 0.94041759375,
            "value": 0.4251968503937008
          },
          {
            "number": 7,
            "ticks": 178,
            "time": 0.9457306875,
            "value": 0.4251968503937008
          },
          {
            "number": 7,
            "ticks": 179,
            "time": 0.9510437812499999,
            "value": 0.4251968503937008
          },
          {
            "number": 7,
            "ticks": 180,
            "time": 0.956356875,
            "value": 0.4330708661417323
          },
          {
            "number": 7,
            "ticks": 181,
            "time": 0.96166996875,
            "value": 0.4330708661417323
          },
          {
            "number": 7,
            "ticks": 182,
            "time": 0.9669830624999999,
            "value": 0.4330708661417323
          },
          {
            "number": 7,
            "ticks": 183,
            "time": 0.97229615625,
            "value": 0.4330708661417323
          },
          {
            "number": 7,
            "ticks": 184,
            "time": 0.97760925,
            "value": 0.4330708661417323
          },
          {
            "number": 7,
            "ticks": 185,
            "time": 0.98292234375,
            "value": 0.4409448818897638
          },
          {
            "number": 7,
            "ticks": 186,
            "time": 0.9882354375,
            "value": 0.4409448818897638
          },
          {
            "number": 7,
            "ticks": 187,
            "time": 0.99354853125,
            "value": 0.4409448818897638
          },
          {
            "number": 7,
            "ticks": 188,
            "time": 0.998861625,
            "value": 0.4409448818897638
          },
          {
            "number": 7,
            "ticks": 189,
            "time": 1.0041747187499999,
            "value": 0.44881889763779526
          },
          {
            "number": 7,
            "ticks": 190,
            "time": 1.0094878125,
            "value": 0.44881889763779526
          },
          {
            "number": 7,
            "ticks": 191,
            "time": 1.0148009062499999,
            "value": 0.44881889763779526
          },
          {
            "number": 7,
            "ticks": 192,
            "time": 1.020114,
            "value": 0.44881889763779526
          },
          {
            "number": 7,
            "ticks": 193,
            "time": 1.0254270937499999,
            "value": 0.44881889763779526
          },
          {
            "number": 7,
            "ticks": 194,
            "time": 1.0307401875,
            "value": 0.4566929133858268
          },
          {
            "number": 7,
            "ticks": 195,
            "time": 1.03605328125,
            "value": 0.4566929133858268
          },
          {
            "number": 7,
            "ticks": 196,
            "time": 1.041366375,
            "value": 0.4566929133858268
          },
          {
            "number": 7,
            "ticks": 197,
            "time": 1.04667946875,
            "value": 0.4566929133858268
          },
          {
            "number": 7,
            "ticks": 198,
            "time": 1.0519925625,
            "value": 0.4566929133858268
          },
          {
            "number": 7,
            "ticks": 199,
            "time": 1.0573056562499998,
            "value": 0.4645669291338583
          },
          {
            "number": 7,
            "ticks": 200,
            "time": 1.06261875,
            "value": 0.4645669291338583
          },
          {
            "number": 7,
            "ticks": 201,
            "time": 1.06793184375,
            "value": 0.4645669291338583
          },
          {
            "number": 7,
            "ticks": 202,
            "time": 1.0732449375,
            "value": 0.4645669291338583
          },
          {
            "number": 7,
            "ticks": 203,
            "time": 1.07855803125,
            "value": 0.47244094488188976
          },
          {
            "number": 7,
            "ticks": 204,
            "time": 1.083871125,
            "value": 0.47244094488188976
          },
          {
            "number": 7,
            "ticks": 205,
            "time": 1.0891842187499998,
            "value": 0.47244094488188976
          },
          {
            "number": 7,
            "ticks": 206,
            "time": 1.0944973125,
            "value": 0.47244094488188976
          },
          {
            "number": 7,
            "ticks": 207,
            "time": 1.09981040625,
            "value": 0.47244094488188976
          },
          {
            "number": 7,
            "ticks": 208,
            "time": 1.1051235,
            "value": 0.48031496062992124
          },
          {
            "number": 7,
            "ticks": 209,
            "time": 1.11043659375,
            "value": 0.48031496062992124
          },
          {
            "number": 7,
            "ticks": 210,
            "time": 1.1157496875,
            "value": 0.48031496062992124
          },
          {
            "number": 7,
            "ticks": 211,
            "time": 1.1210627812499998,
            "value": 0.48031496062992124
          },
          {
            "number": 7,
            "ticks": 212,
            "time": 1.1263758750000001,
            "value": 0.48031496062992124
          },
          {
            "number": 7,
            "ticks": 213,
            "time": 1.13168896875,
            "value": 0.4881889763779528
          },
          {
            "number": 7,
            "ticks": 214,
            "time": 1.1370020625,
            "value": 0.4881889763779528
          },
          {
            "number": 7,
            "ticks": 215,
            "time": 1.14231515625,
            "value": 0.4881889763779528
          },
          {
            "number": 7,
            "ticks": 216,
            "time": 1.14762825,
            "value": 0.4881889763779528
          },
          {
            "number": 7,
            "ticks": 217,
            "time": 1.1529413437499998,
            "value": 0.49606299212598426
          },
          {
            "number": 7,
            "ticks": 218,
            "time": 1.1582544375000001,
            "value": 0.49606299212598426
          },
          {
            "number": 7,
            "ticks": 219,
            "time": 1.16356753125,
            "value": 0.49606299212598426
          },
          {
            "number": 7,
            "ticks": 220,
            "time": 1.168880625,
            "value": 0.49606299212598426
          },
          {
            "number": 7,
            "ticks": 221,
            "time": 1.17419371875,
            "value": 0.49606299212598426
          },
          {
            "number": 7,
            "ticks": 222,
            "time": 1.1795068125,
            "value": 0.5039370078740157
          },
          {
            "number": 7,
            "ticks": 223,
            "time": 1.1848199062499998,
            "value": 0.5039370078740157
          },
          {
            "number": 7,
            "ticks": 224,
            "time": 1.190133,
            "value": 0.5039370078740157
          },
          {
            "number": 7,
            "ticks": 225,
            "time": 1.19544609375,
            "value": 0.5039370078740157
          },
          {
            "number": 7,
            "ticks": 226,
            "time": 1.2007591874999999,
            "value": 0.5039370078740157
          },
          {
            "number": 7,
            "ticks": 227,
            "time": 1.20607228125,
            "value": 0.5118110236220472
          },
          {
            "number": 7,
            "ticks": 228,
            "time": 1.2113853749999999,
            "value": 0.5118110236220472
          },
          {
            "number": 7,
            "ticks": 229,
            "time": 1.21669846875,
            "value": 0.5118110236220472
          },
          {
            "number": 7,
            "ticks": 230,
            "time": 1.2220115625,
            "value": 0.5118110236220472
          },
          {
            "number": 7,
            "ticks": 231,
            "time": 1.22732465625,
            "value": 0.5196850393700787
          },
          {
            "number": 7,
            "ticks": 232,
            "time": 1.2326377499999999,
            "value": 0.5196850393700787
          },
          {
            "number": 7,
            "ticks": 233,
            "time": 1.23795084375,
            "value": 0.5196850393700787
          },
          {
            "number": 7,
            "ticks": 234,
            "time": 1.2432639374999999,
            "value": 0.5196850393700787
          },
          {
            "number": 7,
            "ticks": 235,
            "time": 1.24857703125,
            "value": 0.5196850393700787
          },
          {
            "number": 7,
            "ticks": 236,
            "time": 1.253890125,
            "value": 0.5275590551181102
          },
          {
            "number": 7,
            "ticks": 237,
            "time": 1.25920321875,
            "value": 0.5275590551181102
          },
          {
            "number": 7,
            "ticks": 238,
            "time": 1.2645163124999999,
            "value": 0.5275590551181102
          },
          {
            "number": 7,
            "ticks": 239,
            "time": 1.26982940625,
            "value": 0.5275590551181102
          },
          {
            "number": 7,
            "ticks": 240,
            "time": 1.2751424999999998,
            "value": 0.5275590551181102
          },
          {
            "number": 7,
            "ticks": 241,
            "time": 1.28045559375,
            "value": 0.5354330708661418
          },
          {
            "number": 7,
            "ticks": 242,
            "time": 1.2857686875,
            "value": 0.5354330708661418
          },
          {
            "number": 7,
            "ticks": 243,
            "time": 1.29108178125,
            "value": 0.5354330708661418
          },
          {
            "number": 7,
            "ticks": 244,
            "time": 1.2963948749999998,
            "value": 0.5354330708661418
          },
          {
            "number": 7,
            "ticks": 245,
            "time": 1.30170796875,
            "value": 0.5433070866141733
          },
          {
            "number": 7,
            "ticks": 246,
            "time": 1.3070210625,
            "value": 0.5433070866141733
          },
          {
            "number": 7,
            "ticks": 247,
            "time": 1.31233415625,
            "value": 0.5433070866141733
          },
          {
            "number": 7,
            "ticks": 248,
            "time": 1.31764725,
            "value": 0.5433070866141733
          },
          {
            "number": 7,
            "ticks": 249,
            "time": 1.32296034375,
            "value": 0.5433070866141733
          },
          {
            "number": 7,
            "ticks": 250,
            "time": 1.3282734374999998,
            "value": 0.5511811023622047
          },
          {
            "number": 7,
            "ticks": 251,
            "time": 1.33358653125,
            "value": 0.5511811023622047
          },
          {
            "number": 7,
            "ticks": 252,
            "time": 1.338899625,
            "value": 0.5511811023622047
          },
          {
            "number": 7,
            "ticks": 253,
            "time": 1.34421271875,
            "value": 0.5511811023622047
          },
          {
            "number": 7,
            "ticks": 254,
            "time": 1.3495258125,
            "value": 0.5511811023622047
          },
          {
            "number": 7,
            "ticks": 255,
            "time": 1.35483890625,
            "value": 0.5590551181102362
          },
          {
            "number": 7,
            "ticks": 256,
            "time": 1.3601519999999998,
            "value": 0.5590551181102362
          },
          {
            "number": 7,
            "ticks": 257,
            "time": 1.3654650937500001,
            "value": 0.5590551181102362
          },
          {
            "number": 7,
            "ticks": 258,
            "time": 1.3707781875,
            "value": 0.5590551181102362
          },
          {
            "number": 7,
            "ticks": 259,
            "time": 1.37609128125,
            "value": 0.5669291338582677
          },
          {
            "number": 7,
            "ticks": 260,
            "time": 1.381404375,
            "value": 0.5669291338582677
          },
          {
            "number": 7,
            "ticks": 261,
            "time": 1.38671746875,
            "value": 0.5669291338582677
          },
          {
            "number": 7,
            "ticks": 262,
            "time": 1.3920305624999998,
            "value": 0.5669291338582677
          },
          {
            "number": 7,
            "ticks": 263,
            "time": 1.3973436562500001,
            "value": 0.5669291338582677
          },
          {
            "number": 7,
            "ticks": 264,
            "time": 1.40265675,
            "value": 0.5748031496062992
          },
          {
            "number": 7,
            "ticks": 265,
            "time": 1.40796984375,
            "value": 0.5748031496062992
          },
          {
            "number": 7,
            "ticks": 266,
            "time": 1.4132829375,
            "value": 0.5748031496062992
          },
          {
            "number": 7,
            "ticks": 267,
            "time": 1.41859603125,
            "value": 0.5748031496062992
          },
          {
            "number": 7,
            "ticks": 268,
            "time": 1.4239091249999998,
            "value": 0.5748031496062992
          },
          {
            "number": 7,
            "ticks": 269,
            "time": 1.42922221875,
            "value": 0.5826771653543307
          },
          {
            "number": 7,
            "ticks": 270,
            "time": 1.4345353125,
            "value": 0.5826771653543307
          },
          {
            "number": 7,
            "ticks": 271,
            "time": 1.4398484062499999,
            "value": 0.5826771653543307
          },
          {
            "number": 7,
            "ticks": 272,
            "time": 1.4451615,
            "value": 0.5826771653543307
          },
          {
            "number": 7,
            "ticks": 273,
            "time": 1.4504745937499999,
            "value": 0.5905511811023622
          },
          {
            "number": 7,
            "ticks": 274,
            "time": 1.4557876875,
            "value": 0.5905511811023622
          },
          {
            "number": 7,
            "ticks": 275,
            "time": 1.46110078125,
            "value": 0.5905511811023622
          },
          {
            "number": 7,
            "ticks": 276,
            "time": 1.466413875,
            "value": 0.5905511811023622
          },
          {
            "number": 7,
            "ticks": 277,
            "time": 1.4717269687499999,
            "value": 0.5905511811023622
          },
          {
            "number": 7,
            "ticks": 278,
            "time": 1.4770400625,
            "value": 0.5984251968503937
          },
          {
            "number": 7,
            "ticks": 279,
            "time": 1.4823531562499999,
            "value": 0.5984251968503937
          },
          {
            "number": 7,
            "ticks": 280,
            "time": 1.48766625,
            "value": 0.5984251968503937
          },
          {
            "number": 7,
            "ticks": 281,
            "time": 1.49297934375,
            "value": 0.5984251968503937
          },
          {
            "number": 7,
            "ticks": 282,
            "time": 1.4982924375,
            "value": 0.5984251968503937
          },
          {
            "number": 7,
            "ticks": 283,
            "time": 1.5036055312499998,
            "value": 0.6062992125984252
          },
          {
            "number": 7,
            "ticks": 284,
            "time": 1.508918625,
            "value": 0.6062992125984252
          },
          {
            "number": 7,
            "ticks": 285,
            "time": 1.5142317187499998,
            "value": 0.6062992125984252
          },
          {
            "number": 7,
            "ticks": 286,
            "time": 1.5195448125,
            "value": 0.6062992125984252
          },
          {
            "number": 7,
            "ticks": 287,
            "time": 1.52485790625,
            "value": 0.6141732283464567
          },
          {
            "number": 7,
            "ticks": 288,
            "time": 1.530171,
            "value": 0.6141732283464567
          },
          {
            "number": 7,
            "ticks": 289,
            "time": 1.5354840937499998,
            "value": 0.6141732283464567
          },
          {
            "number": 7,
            "ticks": 290,
            "time": 1.5407971875,
            "value": 0.6141732283464567
          },
          {
            "number": 7,
            "ticks": 291,
            "time": 1.54611028125,
            "value": 0.6141732283464567
          },
          {
            "number": 7,
            "ticks": 292,
            "time": 1.551423375,
            "value": 0.6220472440944882
          },
          {
            "number": 7,
            "ticks": 293,
            "time": 1.55673646875,
            "value": 0.6220472440944882
          },
          {
            "number": 7,
            "ticks": 294,
            "time": 1.5620495625,
            "value": 0.6220472440944882
          },
          {
            "number": 7,
            "ticks": 295,
            "time": 1.5673626562499998,
            "value": 0.6220472440944882
          },
          {
            "number": 7,
            "ticks": 296,
            "time": 1.57267575,
            "value": 0.6220472440944882
          },
          {
            "number": 7,
            "ticks": 297,
            "time": 1.57798884375,
            "value": 0.6299212598425197
          },
          {
            "number": 7,
            "ticks": 298,
            "time": 1.5833019375,
            "value": 0.6299212598425197
          },
          {
            "number": 7,
            "ticks": 299,
            "time": 1.58861503125,
            "value": 0.6299212598425197
          },
          {
            "number": 7,
            "ticks": 300,
            "time": 1.593928125,
            "value": 0.6299212598425197
          },
          {
            "number": 7,
            "ticks": 301,
            "time": 1.5992412187499998,
            "value": 0.6377952755905512
          },
          {
            "number": 7,
            "ticks": 302,
            "time": 1.6045543125,
            "value": 0.6377952755905512
          },
          {
            "number": 7,
            "ticks": 303,
            "time": 1.60986740625,
            "value": 0.6377952755905512
          },
          {
            "number": 7,
            "ticks": 304,
            "time": 1.6151805,
            "value": 0.6377952755905512
          },
          {
            "number": 7,
            "ticks": 305,
            "time": 1.62049359375,
            "value": 0.6377952755905512
          },
          {
            "number": 7,
            "ticks": 306,
            "time": 1.6258066875,
            "value": 0.6456692913385826
          },
          {
            "number": 7,
            "ticks": 307,
            "time": 1.6311197812499998,
            "value": 0.6456692913385826
          },
          {
            "number": 7,
            "ticks": 308,
            "time": 1.6364328750000001,
            "value": 0.6456692913385826
          },
          {
            "number": 7,
            "ticks": 309,
            "time": 1.64174596875,
            "value": 0.6456692913385826
          },
          {
            "number": 7,
            "ticks": 310,
            "time": 1.6470590625,
            "value": 0.6456692913385826
          },
          {
            "number": 7,
            "ticks": 311,
            "time": 1.65237215625,
            "value": 0.6535433070866141
          },
          {
            "number": 7,
            "ticks": 312,
            "time": 1.6576852499999999,
            "value": 0.6535433070866141
          },
          {
            "number": 7,
            "ticks": 313,
            "time": 1.6629983437499998,
            "value": 0.6535433070866141
          },
          {
            "number": 7,
            "ticks": 314,
            "time": 1.6683114375,
            "value": 0.6535433070866141
          },
          {
            "number": 7,
            "ticks": 315,
            "time": 1.67362453125,
            "value": 0.6614173228346457
          },
          {
            "number": 7,
            "ticks": 316,
            "time": 1.6789376249999999,
            "value": 0.6614173228346457
          },
          {
            "number": 7,
            "ticks": 317,
            "time": 1.68425071875,
            "value": 0.6614173228346457
          },
          {
            "number": 7,
            "ticks": 318,
            "time": 1.6895638124999999,
            "value": 0.6614173228346457
          },
          {
            "number": 7,
            "ticks": 319,
            "time": 1.6948769062499998,
            "value": 0.6614173228346457
          },
          {
            "number": 7,
            "ticks": 320,
            "time": 1.70019,
            "value": 0.6692913385826772
          },
          {
            "number": 7,
            "ticks": 321,
            "time": 1.70550309375,
            "value": 0.6692913385826772
          },
          {
            "number": 7,
            "ticks": 322,
            "time": 1.7108161874999999,
            "value": 0.6692913385826772
          },
          {
            "number": 7,
            "ticks": 323,
            "time": 1.71612928125,
            "value": 0.6692913385826772
          },
          {
            "number": 7,
            "ticks": 324,
            "time": 1.7214423749999999,
            "value": 0.6692913385826772
          },
          {
            "number": 7,
            "ticks": 325,
            "time": 1.72675546875,
            "value": 0.6771653543307087
          },
          {
            "number": 7,
            "ticks": 326,
            "time": 1.7320685625,
            "value": 0.6771653543307087
          },
          {
            "number": 7,
            "ticks": 327,
            "time": 1.73738165625,
            "value": 0.6771653543307087
          },
          {
            "number": 7,
            "ticks": 328,
            "time": 1.7426947499999998,
            "value": 0.6771653543307087
          },
          {
            "number": 7,
            "ticks": 329,
            "time": 1.74800784375,
            "value": 0.6850393700787402
          },
          {
            "number": 7,
            "ticks": 330,
            "time": 1.7533209374999998,
            "value": 0.6850393700787402
          },
          {
            "number": 7,
            "ticks": 331,
            "time": 1.75863403125,
            "value": 0.6850393700787402
          },
          {
            "number": 7,
            "ticks": 332,
            "time": 1.763947125,
            "value": 0.6850393700787402
          },
          {
            "number": 7,
            "ticks": 333,
            "time": 1.76926021875,
            "value": 0.6850393700787402
          },
          {
            "number": 7,
            "ticks": 334,
            "time": 1.7745733124999998,
            "value": 0.6929133858267716
          },
          {
            "number": 7,
            "ticks": 335,
            "time": 1.77988640625,
            "value": 0.6929133858267716
          },
          {
            "number": 7,
            "ticks": 336,
            "time": 1.7851995,
            "value": 0.6929133858267716
          },
          {
            "number": 7,
            "ticks": 337,
            "time": 1.79051259375,
            "value": 0.6929133858267716
          },
          {
            "number": 7,
            "ticks": 338,
            "time": 1.7958256875,
            "value": 0.6929133858267716
          },
          {
            "number": 7,
            "ticks": 339,
            "time": 1.80113878125,
            "value": 0.7007874015748031
          },
          {
            "number": 7,
            "ticks": 3972,
            "time": 21.103608375,
            "value": 0
          },
          {
            "number": 7,
            "ticks": 3973,
            "time": 21.108921468749998,
            "value": 0
          },
          {
            "number": 7,
            "ticks": 3974,
            "time": 21.114234562500002,
            "value": 0
          },
          {
            "number": 7,
            "ticks": 3975,
            "time": 21.11954765625,
            "value": 0.007874015748031496
          },
          {
            "number": 7,
            "ticks": 3976,
            "time": 21.124860749999996,
            "value": 0.007874015748031496
          },
          {
            "number": 7,
            "ticks": 3977,
            "time": 21.13017384375,
            "value": 0.007874015748031496
          },
          {
            "number": 7,
            "ticks": 3978,
            "time": 21.135486937499998,
            "value": 0.015748031496062992
          },
          {
            "number": 7,
            "ticks": 3979,
            "time": 21.14080003125,
            "value": 0.015748031496062992
          },
          {
            "number": 7,
            "ticks": 3980,
            "time": 21.146113125,
            "value": 0.023622047244094488
          },
          {
            "number": 7,
            "ticks": 3981,
            "time": 21.15142621875,
            "value": 0.023622047244094488
          },
          {
            "number": 7,
            "ticks": 3982,
            "time": 21.156739312499997,
            "value": 0.023622047244094488
          },
          {
            "number": 7,
            "ticks": 3983,
            "time": 21.16205240625,
            "value": 0.031496062992125984
          },
          {
            "number": 7,
            "ticks": 3984,
            "time": 21.1673655,
            "value": 0.031496062992125984
          },
          {
            "number": 7,
            "ticks": 3985,
            "time": 21.17267859375,
            "value": 0.03937007874015748
          },
          {
            "number": 7,
            "ticks": 3986,
            "time": 21.1779916875,
            "value": 0.03937007874015748
          },
          {
            "number": 7,
            "ticks": 3987,
            "time": 21.183304781249998,
            "value": 0.03937007874015748
          },
          {
            "number": 7,
            "ticks": 3988,
            "time": 21.188617875,
            "value": 0.047244094488188976
          },
          {
            "number": 7,
            "ticks": 3989,
            "time": 21.19393096875,
            "value": 0.047244094488188976
          },
          {
            "number": 7,
            "ticks": 3990,
            "time": 21.1992440625,
            "value": 0.05511811023622047
          },
          {
            "number": 7,
            "ticks": 3991,
            "time": 21.204557156249997,
            "value": 0.05511811023622047
          },
          {
            "number": 7,
            "ticks": 3992,
            "time": 21.20987025,
            "value": 0.05511811023622047
          },
          {
            "number": 7,
            "ticks": 3993,
            "time": 21.21518334375,
            "value": 0.06299212598425197
          },
          {
            "number": 7,
            "ticks": 3994,
            "time": 21.2204964375,
            "value": 0.06299212598425197
          },
          {
            "number": 7,
            "ticks": 3995,
            "time": 21.22580953125,
            "value": 0.06299212598425197
          },
          {
            "number": 7,
            "ticks": 3996,
            "time": 21.231122624999998,
            "value": 0.07086614173228346
          },
          {
            "number": 7,
            "ticks": 3997,
            "time": 21.23643571875,
            "value": 0.07086614173228346
          },
          {
            "number": 7,
            "ticks": 3998,
            "time": 21.2417488125,
            "value": 0.07874015748031496
          },
          {
            "number": 7,
            "ticks": 3999,
            "time": 21.24706190625,
            "value": 0.07874015748031496
          },
          {
            "number": 7,
            "ticks": 4000,
            "time": 21.252374999999997,
            "value": 0.07874015748031496
          },
          {
            "number": 7,
            "ticks": 4001,
            "time": 21.25768809375,
            "value": 0.08661417322834646
          },
          {
            "number": 7,
            "ticks": 4002,
            "time": 21.2630011875,
            "value": 0.08661417322834646
          },
          {
            "number": 7,
            "ticks": 4003,
            "time": 21.26831428125,
            "value": 0.09448818897637795
          },
          {
            "number": 7,
            "ticks": 4004,
            "time": 21.273627375,
            "value": 0.09448818897637795
          },
          {
            "number": 7,
            "ticks": 4005,
            "time": 21.27894046875,
            "value": 0.09448818897637795
          },
          {
            "number": 7,
            "ticks": 4006,
            "time": 21.2842535625,
            "value": 0.10236220472440945
          },
          {
            "number": 7,
            "ticks": 4007,
            "time": 21.28956665625,
            "value": 0.10236220472440945
          },
          {
            "number": 7,
            "ticks": 4008,
            "time": 21.29487975,
            "value": 0.11023622047244094
          },
          {
            "number": 7,
            "ticks": 4009,
            "time": 21.300192843749997,
            "value": 0.11023622047244094
          },
          {
            "number": 7,
            "ticks": 4010,
            "time": 21.3055059375,
            "value": 0.11023622047244094
          },
          {
            "number": 7,
            "ticks": 4011,
            "time": 21.31081903125,
            "value": 0.11811023622047244
          },
          {
            "number": 7,
            "ticks": 4012,
            "time": 21.316132125,
            "value": 0.11811023622047244
          },
          {
            "number": 7,
            "ticks": 4013,
            "time": 21.32144521875,
            "value": 0.11811023622047244
          },
          {
            "number": 7,
            "ticks": 4014,
            "time": 21.3267583125,
            "value": 0.12598425196850394
          },
          {
            "number": 7,
            "ticks": 4015,
            "time": 21.332071406249998,
            "value": 0.12598425196850394
          },
          {
            "number": 7,
            "ticks": 4016,
            "time": 21.3373845,
            "value": 0.13385826771653545
          },
          {
            "number": 7,
            "ticks": 4017,
            "time": 21.34269759375,
            "value": 0.13385826771653545
          },
          {
            "number": 7,
            "ticks": 4018,
            "time": 21.348010687499997,
            "value": 0.13385826771653545
          },
          {
            "number": 7,
            "ticks": 4019,
            "time": 21.35332378125,
            "value": 0.14173228346456693
          },
          {
            "number": 7,
            "ticks": 4020,
            "time": 21.358636875,
            "value": 0.14173228346456693
          },
          {
            "number": 7,
            "ticks": 4021,
            "time": 21.36394996875,
            "value": 0.14960629921259844
          },
          {
            "number": 7,
            "ticks": 4022,
            "time": 21.3692630625,
            "value": 0.14960629921259844
          },
          {
            "number": 7,
            "ticks": 4023,
            "time": 21.37457615625,
            "value": 0.14960629921259844
          },
          {
            "number": 7,
            "ticks": 4024,
            "time": 21.379889249999998,
            "value": 0.15748031496062992
          },
          {
            "number": 7,
            "ticks": 4025,
            "time": 21.38520234375,
            "value": 0.15748031496062992
          },
          {
            "number": 7,
            "ticks": 4026,
            "time": 21.3905154375,
            "value": 0.16535433070866143
          },
          {
            "number": 7,
            "ticks": 4027,
            "time": 21.395828531249997,
            "value": 0.16535433070866143
          },
          {
            "number": 7,
            "ticks": 4028,
            "time": 21.401141625,
            "value": 0.16535433070866143
          },
          {
            "number": 7,
            "ticks": 4029,
            "time": 21.40645471875,
            "value": 0.1732283464566929
          },
          {
            "number": 7,
            "ticks": 4030,
            "time": 21.4117678125,
            "value": 0.1732283464566929
          },
          {
            "number": 7,
            "ticks": 4031,
            "time": 21.41708090625,
            "value": 0.1732283464566929
          },
          {
            "number": 7,
            "ticks": 4032,
            "time": 21.422394,
            "value": 0.18110236220472442
          },
          {
            "number": 7,
            "ticks": 4033,
            "time": 21.427707093749998,
            "value": 0.18110236220472442
          },
          {
            "number": 7,
            "ticks": 4034,
            "time": 21.433020187500002,
            "value": 0.1889763779527559
          },
          {
            "number": 7,
            "ticks": 4035,
            "time": 21.43833328125,
            "value": 0.1889763779527559
          },
          {
            "number": 7,
            "ticks": 4036,
            "time": 21.443646374999997,
            "value": 0.1889763779527559
          },
          {
            "number": 7,
            "ticks": 4037,
            "time": 21.44895946875,
            "value": 0.1968503937007874
          },
          {
            "number": 7,
            "ticks": 4038,
            "time": 21.454272562499998,
            "value": 0.1968503937007874
          },
          {
            "number": 7,
            "ticks": 4039,
            "time": 21.45958565625,
            "value": 0.2047244094488189
          },
          {
            "number": 7,
            "ticks": 4040,
            "time": 21.46489875,
            "value": 0.2047244094488189
          },
          {
            "number": 7,
            "ticks": 4041,
            "time": 21.47021184375,
            "value": 0.2047244094488189
          },
          {
            "number": 7,
            "ticks": 4042,
            "time": 21.475524937499998,
            "value": 0.2125984251968504
          },
          {
            "number": 7,
            "ticks": 4043,
            "time": 21.480838031250002,
            "value": 0.2125984251968504
          },
          {
            "number": 7,
            "ticks": 4044,
            "time": 21.486151125,
            "value": 0.2204724409448819
          },
          {
            "number": 7,
            "ticks": 4045,
            "time": 21.491464218749996,
            "value": 0.2204724409448819
          },
          {
            "number": 7,
            "ticks": 4046,
            "time": 21.4967773125,
            "value": 0.2204724409448819
          },
          {
            "number": 7,
            "ticks": 4047,
            "time": 21.502090406249998,
            "value": 0.2283464566929134
          },
          {
            "number": 7,
            "ticks": 4048,
            "time": 21.5074035,
            "value": 0.2283464566929134
          },
          {
            "number": 7,
            "ticks": 4049,
            "time": 21.51271659375,
            "value": 0.2283464566929134
          },
          {
            "number": 7,
            "ticks": 4050,
            "time": 21.5180296875,
            "value": 0.23622047244094488
          },
          {
            "number": 7,
            "ticks": 4051,
            "time": 21.523342781249998,
            "value": 0.23622047244094488
          },
          {
            "number": 7,
            "ticks": 4052,
            "time": 21.528655875000002,
            "value": 0.2440944881889764
          },
          {
            "number": 7,
            "ticks": 4053,
            "time": 21.53396896875,
            "value": 0.2440944881889764
          },
          {
            "number": 7,
            "ticks": 4054,
            "time": 21.539282062499996,
            "value": 0.2440944881889764
          },
          {
            "number": 7,
            "ticks": 4055,
            "time": 21.54459515625,
            "value": 0.25196850393700787
          },
          {
            "number": 7,
            "ticks": 4056,
            "time": 21.549908249999998,
            "value": 0.25196850393700787
          },
          {
            "number": 7,
            "ticks": 4057,
            "time": 21.55522134375,
            "value": 0.25984251968503935
          },
          {
            "number": 7,
            "ticks": 4058,
            "time": 21.5605344375,
            "value": 0.25984251968503935
          },
          {
            "number": 7,
            "ticks": 4059,
            "time": 21.56584753125,
            "value": 0.25984251968503935
          },
          {
            "number": 7,
            "ticks": 4060,
            "time": 21.571160624999997,
            "value": 0.2677165354330709
          },
          {
            "number": 7,
            "ticks": 4061,
            "time": 21.57647371875,
            "value": 0.2677165354330709
          },
          {
            "number": 7,
            "ticks": 4062,
            "time": 21.5817868125,
            "value": 0.2755905511811024
          },
          {
            "number": 7,
            "ticks": 4063,
            "time": 21.58709990625,
            "value": 0.2755905511811024
          },
          {
            "number": 7,
            "ticks": 4064,
            "time": 21.592413,
            "value": 0.2755905511811024
          },
          {
            "number": 7,
            "ticks": 4065,
            "time": 21.597726093749998,
            "value": 0.28346456692913385
          },
          {
            "number": 7,
            "ticks": 4066,
            "time": 21.6030391875,
            "value": 0.28346456692913385
          },
          {
            "number": 7,
            "ticks": 4067,
            "time": 21.60835228125,
            "value": 0.29133858267716534
          },
          {
            "number": 7,
            "ticks": 4068,
            "time": 21.613665375,
            "value": 0.29133858267716534
          },
          {
            "number": 7,
            "ticks": 4069,
            "time": 21.618978468749997,
            "value": 0.29133858267716534
          },
          {
            "number": 7,
            "ticks": 4070,
            "time": 21.6242915625,
            "value": 0.2992125984251969
          },
          {
            "number": 7,
            "ticks": 4071,
            "time": 21.62960465625,
            "value": 0.2992125984251969
          },
          {
            "number": 7,
            "ticks": 4072,
            "time": 21.63491775,
            "value": 0.2992125984251969
          },
          {
            "number": 7,
            "ticks": 4073,
            "time": 21.64023084375,
            "value": 0.30708661417322836
          },
          {
            "number": 7,
            "ticks": 4074,
            "time": 21.645543937499998,
            "value": 0.30708661417322836
          },
          {
            "number": 7,
            "ticks": 4075,
            "time": 21.65085703125,
            "value": 0.31496062992125984
          },
          {
            "number": 7,
            "ticks": 4076,
            "time": 21.656170125,
            "value": 0.31496062992125984
          },
          {
            "number": 7,
            "ticks": 4077,
            "time": 21.66148321875,
            "value": 0.31496062992125984
          },
          {
            "number": 7,
            "ticks": 4078,
            "time": 21.666796312499997,
            "value": 0.3228346456692913
          },
          {
            "number": 7,
            "ticks": 4079,
            "time": 21.67210940625,
            "value": 0.3228346456692913
          },
          {
            "number": 7,
            "ticks": 4080,
            "time": 21.6774225,
            "value": 0.33070866141732286
          },
          {
            "number": 7,
            "ticks": 4081,
            "time": 21.68273559375,
            "value": 0.33070866141732286
          },
          {
            "number": 7,
            "ticks": 4082,
            "time": 21.6880486875,
            "value": 0.33070866141732286
          },
          {
            "number": 7,
            "ticks": 4083,
            "time": 21.69336178125,
            "value": 0.33858267716535434
          },
          {
            "number": 7,
            "ticks": 4084,
            "time": 21.698674875,
            "value": 0.33858267716535434
          },
          {
            "number": 7,
            "ticks": 4085,
            "time": 21.70398796875,
            "value": 0.3464566929133858
          },
          {
            "number": 7,
            "ticks": 4086,
            "time": 21.7093010625,
            "value": 0.3464566929133858
          },
          {
            "number": 7,
            "ticks": 4087,
            "time": 21.714614156249997,
            "value": 0.3464566929133858
          },
          {
            "number": 7,
            "ticks": 4088,
            "time": 21.71992725,
            "value": 0.3543307086614173
          },
          {
            "number": 7,
            "ticks": 4089,
            "time": 21.72524034375,
            "value": 0.3543307086614173
          },
          {
            "number": 7,
            "ticks": 4090,
            "time": 21.7305534375,
            "value": 0.3543307086614173
          },
          {
            "number": 7,
            "ticks": 4091,
            "time": 21.73586653125,
            "value": 0.36220472440944884
          },
          {
            "number": 7,
            "ticks": 4092,
            "time": 21.741179625,
            "value": 0.36220472440944884
          },
          {
            "number": 7,
            "ticks": 4093,
            "time": 21.746492718749998,
            "value": 0.3700787401574803
          },
          {
            "number": 7,
            "ticks": 4094,
            "time": 21.7518058125,
            "value": 0.3700787401574803
          },
          {
            "number": 7,
            "ticks": 4095,
            "time": 21.75711890625,
            "value": 0.3700787401574803
          },
          {
            "number": 7,
            "ticks": 4096,
            "time": 21.762431999999997,
            "value": 0.3779527559055118
          },
          {
            "number": 7,
            "ticks": 4097,
            "time": 21.76774509375,
            "value": 0.3779527559055118
          },
          {
            "number": 7,
            "ticks": 4098,
            "time": 21.7730581875,
            "value": 0.3858267716535433
          },
          {
            "number": 7,
            "ticks": 4099,
            "time": 21.77837128125,
            "value": 0.3858267716535433
          },
          {
            "number": 7,
            "ticks": 4100,
            "time": 21.783684375,
            "value": 0.3858267716535433
          },
          {
            "number": 7,
            "ticks": 4101,
            "time": 21.78899746875,
            "value": 0.3937007874015748
          },
          {
            "number": 7,
            "ticks": 4102,
            "time": 21.794310562499998,
            "value": 0.3937007874015748
          },
          {
            "number": 7,
            "ticks": 4103,
            "time": 21.79962365625,
            "value": 0.4015748031496063
          },
          {
            "number": 7,
            "ticks": 4104,
            "time": 21.80493675,
            "value": 0.4015748031496063
          },
          {
            "number": 7,
            "ticks": 4105,
            "time": 21.810249843749997,
            "value": 0.4015748031496063
          },
          {
            "number": 7,
            "ticks": 4106,
            "time": 21.8155629375,
            "value": 0.4094488188976378
          },
          {
            "number": 7,
            "ticks": 4107,
            "time": 21.82087603125,
            "value": 0.4094488188976378
          },
          {
            "number": 7,
            "ticks": 4108,
            "time": 21.826189125,
            "value": 0.4094488188976378
          },
          {
            "number": 7,
            "ticks": 4109,
            "time": 21.83150221875,
            "value": 0.41732283464566927
          },
          {
            "number": 7,
            "ticks": 4110,
            "time": 21.8368153125,
            "value": 0.41732283464566927
          },
          {
            "number": 7,
            "ticks": 4111,
            "time": 21.842128406249998,
            "value": 0.4251968503937008
          },
          {
            "number": 7,
            "ticks": 4112,
            "time": 21.847441500000002,
            "value": 0.4251968503937008
          },
          {
            "number": 7,
            "ticks": 4113,
            "time": 21.85275459375,
            "value": 0.4251968503937008
          },
          {
            "number": 7,
            "ticks": 4114,
            "time": 21.858067687499997,
            "value": 0.4330708661417323
          },
          {
            "number": 7,
            "ticks": 4115,
            "time": 21.86338078125,
            "value": 0.4330708661417323
          },
          {
            "number": 7,
            "ticks": 4116,
            "time": 21.868693874999998,
            "value": 0.4409448818897638
          },
          {
            "number": 7,
            "ticks": 4117,
            "time": 21.87400696875,
            "value": 0.4409448818897638
          },
          {
            "number": 7,
            "ticks": 4118,
            "time": 21.8793200625,
            "value": 0.4409448818897638
          },
          {
            "number": 7,
            "ticks": 4119,
            "time": 21.88463315625,
            "value": 0.44881889763779526
          },
          {
            "number": 7,
            "ticks": 4120,
            "time": 21.889946249999998,
            "value": 0.44881889763779526
          },
          {
            "number": 7,
            "ticks": 4121,
            "time": 21.895259343750002,
            "value": 0.4566929133858268
          },
          {
            "number": 7,
            "ticks": 4122,
            "time": 21.9005724375,
            "value": 0.4566929133858268
          },
          {
            "number": 7,
            "ticks": 4123,
            "time": 21.905885531249996,
            "value": 0.4566929133858268
          },
          {
            "number": 7,
            "ticks": 4124,
            "time": 21.911198625,
            "value": 0.4645669291338583
          },
          {
            "number": 7,
            "ticks": 4125,
            "time": 21.916511718749998,
            "value": 0.4645669291338583
          },
          {
            "number": 7,
            "ticks": 4126,
            "time": 21.9218248125,
            "value": 0.4645669291338583
          },
          {
            "number": 7,
            "ticks": 4127,
            "time": 21.92713790625,
            "value": 0.47244094488188976
          },
          {
            "number": 7,
            "ticks": 4128,
            "time": 21.932451,
            "value": 0.47244094488188976
          },
          {
            "number": 7,
            "ticks": 4129,
            "time": 21.937764093749998,
            "value": 0.48031496062992124
          },
          {
            "number": 7,
            "ticks": 4130,
            "time": 21.943077187500002,
            "value": 0.48031496062992124
          },
          {
            "number": 7,
            "ticks": 4131,
            "time": 21.94839028125,
            "value": 0.48031496062992124
          },
          {
            "number": 7,
            "ticks": 4132,
            "time": 21.953703374999996,
            "value": 0.4881889763779528
          },
          {
            "number": 7,
            "ticks": 4133,
            "time": 21.95901646875,
            "value": 0.4881889763779528
          },
          {
            "number": 7,
            "ticks": 4134,
            "time": 21.964329562499998,
            "value": 0.49606299212598426
          },
          {
            "number": 7,
            "ticks": 4135,
            "time": 21.96964265625,
            "value": 0.49606299212598426
          },
          {
            "number": 7,
            "ticks": 4136,
            "time": 21.97495575,
            "value": 0.49606299212598426
          },
          {
            "number": 7,
            "ticks": 4137,
            "time": 21.98026884375,
            "value": 0.5039370078740157
          },
          {
            "number": 7,
            "ticks": 4138,
            "time": 21.985581937499997,
            "value": 0.5039370078740157
          },
          {
            "number": 7,
            "ticks": 4139,
            "time": 21.990895031250002,
            "value": 0.5118110236220472
          },
          {
            "number": 7,
            "ticks": 4140,
            "time": 21.996208125,
            "value": 0.5118110236220472
          },
          {
            "number": 7,
            "ticks": 4141,
            "time": 22.00152121875,
            "value": 0.5118110236220472
          },
          {
            "number": 7,
            "ticks": 4142,
            "time": 22.0068343125,
            "value": 0.5196850393700787
          },
          {
            "number": 7,
            "ticks": 4143,
            "time": 22.012147406249998,
            "value": 0.5196850393700787
          },
          {
            "number": 7,
            "ticks": 4144,
            "time": 22.0174605,
            "value": 0.5275590551181102
          },
          {
            "number": 7,
            "ticks": 4145,
            "time": 22.02277359375,
            "value": 0.5275590551181102
          },
          {
            "number": 7,
            "ticks": 4146,
            "time": 22.0280866875,
            "value": 0.5275590551181102
          },
          {
            "number": 7,
            "ticks": 4147,
            "time": 22.033399781249997,
            "value": 0.5354330708661418
          },
          {
            "number": 7,
            "ticks": 4148,
            "time": 22.038712875,
            "value": 0.5354330708661418
          },
          {
            "number": 7,
            "ticks": 4149,
            "time": 22.04402596875,
            "value": 0.5354330708661418
          },
          {
            "number": 7,
            "ticks": 4150,
            "time": 22.0493390625,
            "value": 0.5433070866141733
          },
          {
            "number": 7,
            "ticks": 4151,
            "time": 22.05465215625,
            "value": 0.5433070866141733
          },
          {
            "number": 7,
            "ticks": 4152,
            "time": 22.059965249999998,
            "value": 0.5511811023622047
          },
          {
            "number": 7,
            "ticks": 4153,
            "time": 22.06527834375,
            "value": 0.5511811023622047
          },
          {
            "number": 7,
            "ticks": 4154,
            "time": 22.0705914375,
            "value": 0.5511811023622047
          },
          {
            "number": 7,
            "ticks": 4155,
            "time": 22.07590453125,
            "value": 0.5590551181102362
          },
          {
            "number": 7,
            "ticks": 4156,
            "time": 22.081217624999997,
            "value": 0.5590551181102362
          },
          {
            "number": 7,
            "ticks": 4157,
            "time": 22.08653071875,
            "value": 0.5669291338582677
          },
          {
            "number": 7,
            "ticks": 4158,
            "time": 22.0918438125,
            "value": 0.5669291338582677
          },
          {
            "number": 7,
            "ticks": 4159,
            "time": 22.09715690625,
            "value": 0.5669291338582677
          },
          {
            "number": 7,
            "ticks": 4160,
            "time": 22.10247,
            "value": 0.5748031496062992
          },
          {
            "number": 7,
            "ticks": 4161,
            "time": 22.107783093749998,
            "value": 0.5748031496062992
          },
          {
            "number": 7,
            "ticks": 4162,
            "time": 22.1130961875,
            "value": 0.5826771653543307
          },
          {
            "number": 7,
            "ticks": 4163,
            "time": 22.11840928125,
            "value": 0.5826771653543307
          },
          {
            "number": 7,
            "ticks": 4164,
            "time": 22.123722375,
            "value": 0.5826771653543307
          },
          {
            "number": 7,
            "ticks": 4165,
            "time": 22.129035468749997,
            "value": 0.5905511811023622
          },
          {
            "number": 7,
            "ticks": 4166,
            "time": 22.1343485625,
            "value": 0.5905511811023622
          },
          {
            "number": 7,
            "ticks": 4167,
            "time": 22.13966165625,
            "value": 0.5905511811023622
          },
          {
            "number": 7,
            "ticks": 4168,
            "time": 22.14497475,
            "value": 0.5984251968503937
          },
          {
            "number": 7,
            "ticks": 4169,
            "time": 22.15028784375,
            "value": 0.5984251968503937
          },
          {
            "number": 7,
            "ticks": 4170,
            "time": 22.1556009375,
            "value": 0.6062992125984252
          },
          {
            "number": 7,
            "ticks": 4171,
            "time": 22.160914031249998,
            "value": 0.6062992125984252
          },
          {
            "number": 7,
            "ticks": 4172,
            "time": 22.166227125,
            "value": 0.6062992125984252
          },
          {
            "number": 7,
            "ticks": 4173,
            "time": 22.17154021875,
            "value": 0.6141732283464567
          },
          {
            "number": 7,
            "ticks": 4174,
            "time": 22.176853312499997,
            "value": 0.6141732283464567
          },
          {
            "number": 7,
            "ticks": 4175,
            "time": 22.18216640625,
            "value": 0.6220472440944882
          },
          {
            "number": 7,
            "ticks": 4176,
            "time": 22.1874795,
            "value": 0.6220472440944882
          },
          {
            "number": 7,
            "ticks": 4177,
            "time": 22.19279259375,
            "value": 0.6220472440944882
          },
          {
            "number": 7,
            "ticks": 4178,
            "time": 22.1981056875,
            "value": 0.6299212598425197
          },
          {
            "number": 7,
            "ticks": 4179,
            "time": 22.20341878125,
            "value": 0.6299212598425197
          },
          {
            "number": 7,
            "ticks": 4180,
            "time": 22.208731874999998,
            "value": 0.6377952755905512
          },
          {
            "number": 7,
            "ticks": 4181,
            "time": 22.21404496875,
            "value": 0.6377952755905512
          },
          {
            "number": 7,
            "ticks": 4182,
            "time": 22.2193580625,
            "value": 0.6377952755905512
          },
          {
            "number": 7,
            "ticks": 4183,
            "time": 22.224671156249997,
            "value": 0.6456692913385826
          },
          {
            "number": 7,
            "ticks": 4184,
            "time": 22.22998425,
            "value": 0.6456692913385826
          },
          {
            "number": 7,
            "ticks": 4185,
            "time": 22.23529734375,
            "value": 0.6456692913385826
          },
          {
            "number": 7,
            "ticks": 4186,
            "time": 22.2406104375,
            "value": 0.6535433070866141
          },
          {
            "number": 7,
            "ticks": 4187,
            "time": 22.24592353125,
            "value": 0.6535433070866141
          },
          {
            "number": 7,
            "ticks": 4188,
            "time": 22.251236625,
            "value": 0.6614173228346457
          },
          {
            "number": 7,
            "ticks": 4189,
            "time": 22.256549718749998,
            "value": 0.6614173228346457
          },
          {
            "number": 7,
            "ticks": 4190,
            "time": 22.261862812500002,
            "value": 0.6614173228346457
          },
          {
            "number": 7,
            "ticks": 4191,
            "time": 22.26717590625,
            "value": 0.6692913385826772
          },
          {
            "number": 7,
            "ticks": 4192,
            "time": 22.272488999999997,
            "value": 0.6692913385826772
          },
          {
            "number": 7,
            "ticks": 4193,
            "time": 22.27780209375,
            "value": 0.6771653543307087
          },
          {
            "number": 7,
            "ticks": 4194,
            "time": 22.283115187499998,
            "value": 0.6771653543307087
          },
          {
            "number": 7,
            "ticks": 4195,
            "time": 22.28842828125,
            "value": 0.6771653543307087
          },
          {
            "number": 7,
            "ticks": 4196,
            "time": 22.293741375,
            "value": 0.6850393700787402
          },
          {
            "number": 7,
            "ticks": 4197,
            "time": 22.29905446875,
            "value": 0.6850393700787402
          },
          {
            "number": 7,
            "ticks": 4198,
            "time": 22.304367562499998,
            "value": 0.6929133858267716
          },
          {
            "number": 7,
            "ticks": 4199,
            "time": 22.309680656250002,
            "value": 0.6929133858267716
          },
          {
            "number": 7,
            "ticks": 21120,
            "time": 112.21253999999999,
            "value": 0.6929133858267716
          },
          {
            "number": 7,
            "ticks": 21120,
            "time": 112.21253999999999,
            "value": 0.6929133858267716
          },
          {
            "number": 7,
            "ticks": 21120,
            "time": 112.21253999999999,
            "value": 0.6929133858267716
          }
        ],
        "10": [
          {
            "number": 10,
            "ticks": 0,
            "time": 0,
            "value": 0.8346456692913385
          },
          {
            "number": 10,
            "ticks": 0,
            "time": 0,
            "value": 0.8346456692913385
          },
          {
            "number": 10,
            "ticks": 0,
            "time": 0,
            "value": 0.8346456692913385
          },
          {
            "number": 10,
            "ticks": 21120,
            "time": 112.21253999999999,
            "value": 0.8346456692913385
          },
          {
            "number": 10,
            "ticks": 21120,
            "time": 112.21253999999999,
            "value": 0.8346456692913385
          },
          {
            "number": 10,
            "ticks": 21120,
            "time": 112.21253999999999,
            "value": 0.8346456692913385
          }
        ],
        "91": [
          {
            "number": 91,
            "ticks": 0,
            "time": 0,
            "value": 0
          },
          {
            "number": 91,
            "ticks": 0,
            "time": 0,
            "value": 0
          },
          {
            "number": 91,
            "ticks": 21120,
            "time": 112.21253999999999,
            "value": 0
          },
          {
            "number": 91,
            "ticks": 21120,
            "time": 112.21253999999999,
            "value": 0
          },
          {
            "number": 91,
            "ticks": 21120,
            "time": 112.21253999999999,
            "value": 0
          }
        ],
        "93": [
          {
            "number": 93,
            "ticks": 0,
            "time": 0,
            "value": 0
          },
          {
            "number": 93,
            "ticks": 0,
            "time": 0,
            "value": 0
          },
          {
            "number": 93,
            "ticks": 21120,
            "time": 112.21253999999999,
            "value": 0
          },
          {
            "number": 93,
            "ticks": 21120,
            "time": 112.21253999999999,
            "value": 0
          },
          {
            "number": 93,
            "ticks": 21120,
            "time": 112.21253999999999,
            "value": 0
          }
        ],
        "100": [
          {
            "number": 100,
            "ticks": 0,
            "time": 0,
            "value": 0
          },
          {
            "number": 100,
            "ticks": 21120,
            "time": 112.21253999999999,
            "value": 0
          },
          {
            "number": 100,
            "ticks": 21120,
            "time": 112.21253999999999,
            "value": 0
          },
          {
            "number": 100,
            "ticks": 21120,
            "time": 112.21253999999999,
            "value": 0
          }
        ],
        "101": [
          {
            "number": 101,
            "ticks": 0,
            "time": 0,
            "value": 0
          },
          {
            "number": 101,
            "ticks": 21120,
            "time": 112.21253999999999,
            "value": 0
          },
          {
            "number": 101,
            "ticks": 21120,
            "time": 112.21253999999999,
            "value": 0
          },
          {
            "number": 101,
            "ticks": 21120,
            "time": 112.21253999999999,
            "value": 0
          }
        ]
      },
      "pitchBends": [
        {
          "ticks": 0,
          "time": 0,
          "value": 0.012451171875
        },
        {
          "ticks": 21120,
          "time": 112.21253999999999,
          "value": 0.012451171875
        },
        {
          "ticks": 21120,
          "time": 112.21253999999999,
          "value": 0.012451171875
        },
        {
          "ticks": 21120,
          "time": 112.21253999999999,
          "value": 0.012451171875
        }
      ],
      "instrument": {
        "family": "guitar",
        "number": 29,
        "name": "overdriven guitar"
      },
      "name": "",
      "notes": [
        {
          "duration": 4.08576909375,
          "durationTicks": 769,
          "midi": 29,
          "name": "F1",
          "ticks": 0,
          "time": 0,
          "velocity": 0.937007874015748
        },
        {
          "duration": 4.085769093750001,
          "durationTicks": 769,
          "midi": 30,
          "name": "F#1",
          "ticks": 768,
          "time": 4.080456,
          "velocity": 0.937007874015748
        },
        {
          "duration": 0.7703985937500004,
          "durationTicks": 145,
          "midi": 35,
          "name": "B1",
          "ticks": 1536,
          "time": 8.160912,
          "velocity": 0.937007874015748
        },
        {
          "duration": 0.4144213125,
          "durationTicks": 78,
          "midi": 34,
          "name": "A#1",
          "ticks": 1680,
          "time": 8.9259975,
          "velocity": 0.8110236220472441
        },
        {
          "duration": 0.4144213125,
          "durationTicks": 78,
          "midi": 33,
          "name": "A1",
          "ticks": 1758,
          "time": 9.3404188125,
          "velocity": 0.7165354330708661
        },
        {
          "duration": 0.4144213125,
          "durationTicks": 78,
          "midi": 32,
          "name": "G#1",
          "ticks": 1835,
          "time": 9.749527031249999,
          "velocity": 0.6141732283464567
        },
        {
          "duration": 0.4144213125,
          "durationTicks": 78,
          "midi": 31,
          "name": "G1",
          "ticks": 1913,
          "time": 10.163948343749999,
          "velocity": 0.5590551181102362
        },
        {
          "duration": 0.419734406249999,
          "durationTicks": 79,
          "midi": 30,
          "name": "F#1",
          "ticks": 1990,
          "time": 10.5730565625,
          "velocity": 0.5118110236220472
        },
        {
          "duration": 0.4144213125,
          "durationTicks": 78,
          "midi": 29,
          "name": "F1",
          "ticks": 2068,
          "time": 10.987477875,
          "velocity": 0.4094488188976378
        },
        {
          "duration": 0.4144213125,
          "durationTicks": 78,
          "midi": 29,
          "name": "F1",
          "ticks": 2184,
          "time": 11.603796749999999,
          "velocity": 0.33858267716535434
        },
        {
          "duration": 0.4197344062500008,
          "durationTicks": 79,
          "midi": 29,
          "name": "F1",
          "ticks": 2300,
          "time": 12.220115624999998,
          "velocity": 0.2125984251968504
        },
        {
          "duration": 0.4144213125,
          "durationTicks": 78,
          "midi": 29,
          "name": "F1",
          "ticks": 2417,
          "time": 12.841747593749998,
          "velocity": 0.11023622047244094
        },
        {
          "duration": 1.9499054062499965,
          "durationTicks": 367,
          "midi": 41,
          "name": "F2",
          "ticks": 4032,
          "time": 21.422394,
          "velocity": 0.952755905511811
        },
        {
          "duration": 1.9499054062499965,
          "durationTicks": 367,
          "midi": 43,
          "name": "G2",
          "ticks": 4416,
          "time": 23.462622,
          "velocity": 0.952755905511811
        },
        {
          "duration": 1.94990540625,
          "durationTicks": 367,
          "midi": 45,
          "name": "A2",
          "ticks": 4800,
          "time": 25.50285,
          "velocity": 0.952755905511811
        },
        {
          "duration": 1.94990540625,
          "durationTicks": 367,
          "midi": 43,
          "name": "G2",
          "ticks": 5184,
          "time": 27.543077999999998,
          "velocity": 0.952755905511811
        },
        {
          "duration": 1.9499054062499965,
          "durationTicks": 367,
          "midi": 42,
          "name": "F#2",
          "ticks": 5568,
          "time": 29.583306,
          "velocity": 0.952755905511811
        },
        {
          "duration": 0.929791406249997,
          "durationTicks": 175,
          "midi": 41,
          "name": "F2",
          "ticks": 5952,
          "time": 31.623534,
          "velocity": 0.952755905511811
        },
        {
          "duration": 0.9297914062500041,
          "durationTicks": 175,
          "midi": 43,
          "name": "G2",
          "ticks": 6144,
          "time": 32.643648,
          "velocity": 0.952755905511811
        },
        {
          "duration": 1.9499054062500036,
          "durationTicks": 367,
          "midi": 45,
          "name": "A2",
          "ticks": 6336,
          "time": 33.663762,
          "velocity": 0.952755905511811
        },
        {
          "duration": 1.9499054062500036,
          "durationTicks": 367,
          "midi": 43,
          "name": "G2",
          "ticks": 6720,
          "time": 35.70399,
          "velocity": 0.952755905511811
        },
        {
          "duration": 1.9499054062500036,
          "durationTicks": 367,
          "midi": 42,
          "name": "F#2",
          "ticks": 7104,
          "time": 37.744218,
          "velocity": 0.952755905511811
        },
        {
          "duration": 0.9297914062500041,
          "durationTicks": 175,
          "midi": 41,
          "name": "F2",
          "ticks": 7488,
          "time": 39.784445999999996,
          "velocity": 0.952755905511811
        },
        {
          "duration": 0.9297914062500041,
          "durationTicks": 175,
          "midi": 43,
          "name": "G2",
          "ticks": 7680,
          "time": 40.804559999999995,
          "velocity": 0.952755905511811
        },
        {
          "duration": 1.9499054062499965,
          "durationTicks": 367,
          "midi": 45,
          "name": "A2",
          "ticks": 7872,
          "time": 41.824674,
          "velocity": 0.952755905511811
        },
        {
          "duration": 1.9499054062500036,
          "durationTicks": 367,
          "midi": 43,
          "name": "G2",
          "ticks": 8256,
          "time": 43.864902,
          "velocity": 0.952755905511811
        },
        {
          "duration": 1.9499054062500036,
          "durationTicks": 367,
          "midi": 42,
          "name": "F#2",
          "ticks": 8640,
          "time": 45.90513,
          "velocity": 0.952755905511811
        },
        {
          "duration": 0.9297914062500041,
          "durationTicks": 175,
          "midi": 41,
          "name": "F2",
          "ticks": 9024,
          "time": 47.945358,
          "velocity": 0.952755905511811
        },
        {
          "duration": 0.9297914062500041,
          "durationTicks": 175,
          "midi": 43,
          "name": "G2",
          "ticks": 9216,
          "time": 48.965472,
          "velocity": 0.952755905511811
        },
        {
          "duration": 1.9499054062500036,
          "durationTicks": 367,
          "midi": 45,
          "name": "A2",
          "ticks": 9408,
          "time": 49.985586,
          "velocity": 0.952755905511811
        },
        {
          "duration": 1.9499054062500036,
          "durationTicks": 367,
          "midi": 43,
          "name": "G2",
          "ticks": 9792,
          "time": 52.025814,
          "velocity": 0.952755905511811
        },
        {
          "duration": 1.9499054062500036,
          "durationTicks": 367,
          "midi": 42,
          "name": "F#2",
          "ticks": 10176,
          "time": 54.066041999999996,
          "velocity": 0.952755905511811
        },
        {
          "duration": 0.9297914062500041,
          "durationTicks": 175,
          "midi": 41,
          "name": "F2",
          "ticks": 10560,
          "time": 56.106269999999995,
          "velocity": 0.952755905511811
        },
        {
          "duration": 0.929791406249997,
          "durationTicks": 175,
          "midi": 43,
          "name": "G2",
          "ticks": 10752,
          "time": 57.126384,
          "velocity": 0.952755905511811
        },
        {
          "duration": 1.9499054062499965,
          "durationTicks": 367,
          "midi": 45,
          "name": "A2",
          "ticks": 10944,
          "time": 58.146498,
          "velocity": 0.952755905511811
        },
        {
          "duration": 1.9499054062500036,
          "durationTicks": 367,
          "midi": 43,
          "name": "G2",
          "ticks": 11328,
          "time": 60.186726,
          "velocity": 0.952755905511811
        },
        {
          "duration": 1.9499054062500036,
          "durationTicks": 367,
          "midi": 42,
          "name": "F#2",
          "ticks": 11712,
          "time": 62.226954,
          "velocity": 0.952755905511811
        },
        {
          "duration": 0.9297914062500041,
          "durationTicks": 175,
          "midi": 41,
          "name": "F2",
          "ticks": 12096,
          "time": 64.26718199999999,
          "velocity": 0.952755905511811
        },
        {
          "duration": 0.9297914062499899,
          "durationTicks": 175,
          "midi": 43,
          "name": "G2",
          "ticks": 12288,
          "time": 65.287296,
          "velocity": 0.952755905511811
        },
        {
          "duration": 1.9499054062499823,
          "durationTicks": 367,
          "midi": 45,
          "name": "A2",
          "ticks": 12480,
          "time": 66.30741,
          "velocity": 0.952755905511811
        },
        {
          "duration": 1.9499054062499823,
          "durationTicks": 367,
          "midi": 43,
          "name": "G2",
          "ticks": 12864,
          "time": 68.347638,
          "velocity": 0.952755905511811
        },
        {
          "duration": 1.9499054062499965,
          "durationTicks": 367,
          "midi": 42,
          "name": "F#2",
          "ticks": 13248,
          "time": 70.387866,
          "velocity": 0.952755905511811
        },
        {
          "duration": 0.9297914062499899,
          "durationTicks": 175,
          "midi": 41,
          "name": "F2",
          "ticks": 13632,
          "time": 72.428094,
          "velocity": 0.952755905511811
        },
        {
          "duration": 0.9297914062500041,
          "durationTicks": 175,
          "midi": 43,
          "name": "G2",
          "ticks": 13824,
          "time": 73.448208,
          "velocity": 0.952755905511811
        },
        {
          "duration": 2.0508541875000077,
          "durationTicks": 386,
          "midi": 41,
          "name": "F2",
          "ticks": 14016,
          "time": 74.468322,
          "velocity": 0.952755905511811
        },
        {
          "duration": 2.0508541875000077,
          "durationTicks": 386,
          "midi": 43,
          "name": "G2",
          "ticks": 14400,
          "time": 76.50855,
          "velocity": 0.952755905511811
        },
        {
          "duration": 1.9233399375000033,
          "durationTicks": 362,
          "midi": 42,
          "name": "F#2",
          "ticks": 14784,
          "time": 78.548778,
          "velocity": 0.952755905511811
        },
        {
          "duration": 2.0508541875000077,
          "durationTicks": 386,
          "midi": 42,
          "name": "F#2",
          "ticks": 15168,
          "time": 80.589006,
          "velocity": 0.952755905511811
        },
        {
          "duration": 2.0508541875000077,
          "durationTicks": 386,
          "midi": 41,
          "name": "F2",
          "ticks": 15552,
          "time": 82.629234,
          "velocity": 0.952755905511811
        },
        {
          "duration": 2.0508541875000077,
          "durationTicks": 386,
          "midi": 43,
          "name": "G2",
          "ticks": 15936,
          "time": 84.669462,
          "velocity": 0.952755905511811
        },
        {
          "duration": 1.9233399375000033,
          "durationTicks": 362,
          "midi": 45,
          "name": "A2",
          "ticks": 16320,
          "time": 86.70969,
          "velocity": 0.952755905511811
        },
        {
          "duration": 2.0508541875000077,
          "durationTicks": 386,
          "midi": 45,
          "name": "A2",
          "ticks": 16704,
          "time": 88.749918,
          "velocity": 0.952755905511811
        },
        {
          "duration": 1.9233399375000033,
          "durationTicks": 362,
          "midi": 41,
          "name": "F2",
          "ticks": 17088,
          "time": 90.790146,
          "velocity": 0.952755905511811
        },
        {
          "duration": 1.9233399375000033,
          "durationTicks": 362,
          "midi": 43,
          "name": "G2",
          "ticks": 17472,
          "time": 92.83037399999999,
          "velocity": 0.952755905511811
        },
        {
          "duration": 0.9032259375000109,
          "durationTicks": 170,
          "midi": 45,
          "name": "A2",
          "ticks": 17856,
          "time": 94.87060199999999,
          "velocity": 0.952755905511811
        },
        {
          "duration": 0.9032259375000109,
          "durationTicks": 170,
          "midi": 44,
          "name": "G#2",
          "ticks": 18048,
          "time": 95.890716,
          "velocity": 0.952755905511811
        },
        {
          "duration": 0.9032259375000109,
          "durationTicks": 170,
          "midi": 43,
          "name": "G2",
          "ticks": 18240,
          "time": 96.91082999999999,
          "velocity": 0.952755905511811
        },
        {
          "duration": 0.9032259375000109,
          "durationTicks": 170,
          "midi": 42,
          "name": "F#2",
          "ticks": 18432,
          "time": 97.930944,
          "velocity": 0.952755905511811
        },
        {
          "duration": 1.9233399375000033,
          "durationTicks": 362,
          "midi": 41,
          "name": "F2",
          "ticks": 18624,
          "time": 98.951058,
          "velocity": 0.952755905511811
        },
        {
          "duration": 1.9233399375000033,
          "durationTicks": 362,
          "midi": 43,
          "name": "G2",
          "ticks": 19008,
          "time": 100.991286,
          "velocity": 0.952755905511811
        },
        {
          "duration": 0.9032259374999967,
          "durationTicks": 170,
          "midi": 45,
          "name": "A2",
          "ticks": 19392,
          "time": 103.031514,
          "velocity": 0.952755905511811
        },
        {
          "duration": 0.9032259375000109,
          "durationTicks": 170,
          "midi": 44,
          "name": "G#2",
          "ticks": 19584,
          "time": 104.051628,
          "velocity": 0.952755905511811
        },
        {
          "duration": 0.9032259374999967,
          "durationTicks": 170,
          "midi": 43,
          "name": "G2",
          "ticks": 19776,
          "time": 105.071742,
          "velocity": 0.952755905511811
        },
        {
          "duration": 0.9032259375000109,
          "durationTicks": 170,
          "midi": 42,
          "name": "F#2",
          "ticks": 19968,
          "time": 106.09185599999999,
          "velocity": 0.952755905511811
        }
      ]
    },
    {
      "channel": 0,
      "controlChanges": {
        "6": [
          {
            "number": 6,
            "ticks": 0,
            "time": 0,
            "value": 0.09448818897637795
          }
        ],
        "7": [
          {
            "number": 7,
            "ticks": 0,
            "time": 0,
            "value": 0.3700787401574803
          },
          {
            "number": 7,
            "ticks": 0,
            "time": 0,
            "value": 0.3700787401574803
          }
        ],
        "10": [
          {
            "number": 10,
            "ticks": 0,
            "time": 0,
            "value": 0.5039370078740157
          },
          {
            "number": 10,
            "ticks": 0,
            "time": 0,
            "value": 0.5039370078740157
          }
        ],
        "100": [
          {
            "number": 100,
            "ticks": 0,
            "time": 0,
            "value": 0
          }
        ],
        "101": [
          {
            "number": 101,
            "ticks": 0,
            "time": 0,
            "value": 0
          }
        ]
      },
      "pitchBends": [
        {
          "ticks": 0,
          "time": 0,
          "value": 0.032470703125
        },
        {
          "ticks": 0,
          "time": 0,
          "value": 0.032470703125
        }
      ],
      "instrument": {
        "family": "piano",
        "number": 0,
        "name": "acoustic grand piano"
      },
      "name": "overdrive echo",
      "notes": [],
      "endOfTrackTicks": 21120
    },
    {
      "channel": 6,
      "controlChanges": {
        "6": [
          {
            "number": 6,
            "ticks": 0,
            "time": 0,
            "value": 0.09448818897637795
          },
          {
            "number": 6,
            "ticks": 21120,
            "time": 112.21253999999999,
            "value": 0.09448818897637795
          },
          {
            "number": 6,
            "ticks": 21120,
            "time": 112.21253999999999,
            "value": 0.09448818897637795
          },
          {
            "number": 6,
            "ticks": 21120,
            "time": 112.21253999999999,
            "value": 0.09448818897637795
          }
        ],
        "7": [
          {
            "number": 7,
            "ticks": 0,
            "time": 0,
            "value": 0.3700787401574803
          },
          {
            "number": 7,
            "ticks": 21120,
            "time": 112.21253999999999,
            "value": 0.3700787401574803
          },
          {
            "number": 7,
            "ticks": 21120,
            "time": 112.21253999999999,
            "value": 0.3700787401574803
          },
          {
            "number": 7,
            "ticks": 21120,
            "time": 112.21253999999999,
            "value": 0.3700787401574803
          }
        ],
        "10": [
          {
            "number": 10,
            "ticks": 0,
            "time": 0,
            "value": 0.5039370078740157
          },
          {
            "number": 10,
            "ticks": 0,
            "time": 0,
            "value": 0.5039370078740157
          },
          {
            "number": 10,
            "ticks": 0,
            "time": 0,
            "value": 0.5039370078740157
          },
          {
            "number": 10,
            "ticks": 21120,
            "time": 112.21253999999999,
            "value": 0.5039370078740157
          },
          {
            "number": 10,
            "ticks": 21120,
            "time": 112.21253999999999,
            "value": 0.5039370078740157
          },
          {
            "number": 10,
            "ticks": 21120,
            "time": 112.21253999999999,
            "value": 0.5039370078740157
          }
        ],
        "100": [
          {
            "number": 100,
            "ticks": 0,
            "time": 0,
            "value": 0
          },
          {
            "number": 100,
            "ticks": 21120,
            "time": 112.21253999999999,
            "value": 0
          },
          {
            "number": 100,
            "ticks": 21120,
            "time": 112.21253999999999,
            "value": 0
          },
          {
            "number": 100,
            "ticks": 21120,
            "time": 112.21253999999999,
            "value": 0
          }
        ],
        "101": [
          {
            "number": 101,
            "ticks": 0,
            "time": 0,
            "value": 0
          },
          {
            "number": 101,
            "ticks": 21120,
            "time": 112.21253999999999,
            "value": 0
          },
          {
            "number": 101,
            "ticks": 21120,
            "time": 112.21253999999999,
            "value": 0
          },
          {
            "number": 101,
            "ticks": 21120,
            "time": 112.21253999999999,
            "value": 0
          }
        ]
      },
      "pitchBends": [
        {
          "ticks": 0,
          "time": 0,
          "value": 0.032470703125
        },
        {
          "ticks": 21120,
          "time": 112.21253999999999,
          "value": 0.032470703125
        },
        {
          "ticks": 21120,
          "time": 112.21253999999999,
          "value": 0.032470703125
        },
        {
          "ticks": 21120,
          "time": 112.21253999999999,
          "value": 0.032470703125
        }
      ],
      "instrument": {
        "family": "guitar",
        "number": 29,
        "name": "overdriven guitar"
      },
      "name": "",
      "notes": [
        {
          "duration": 0.11688806250000283,
          "durationTicks": 22,
          "midi": 45,
          "name": "A2",
          "ticks": 3277,
          "time": 17.41100821875,
          "velocity": 0.7559055118110236
        },
        {
          "duration": 0.11688806250000283,
          "durationTicks": 22,
          "midi": 45,
          "name": "A2",
          "ticks": 3301,
          "time": 17.53852246875,
          "velocity": 0.7559055118110236
        },
        {
          "duration": 0.11688806250000283,
          "durationTicks": 22,
          "midi": 57,
          "name": "A3",
          "ticks": 3325,
          "time": 17.666036718749996,
          "velocity": 0.7559055118110236
        },
        {
          "duration": 0.11688806250000283,
          "durationTicks": 22,
          "midi": 52,
          "name": "E3",
          "ticks": 3373,
          "time": 17.921065218749998,
          "velocity": 0.7559055118110236
        },
        {
          "duration": 0.11688806250000283,
          "durationTicks": 22,
          "midi": 51,
          "name": "D#3",
          "ticks": 3445,
          "time": 18.303607968749997,
          "velocity": 0.7559055118110236
        },
        {
          "duration": 0.11688806250000283,
          "durationTicks": 22,
          "midi": 50,
          "name": "D3",
          "ticks": 3493,
          "time": 18.55863646875,
          "velocity": 0.7559055118110236
        },
        {
          "duration": 0.24440231250000366,
          "durationTicks": 46,
          "midi": 48,
          "name": "C3",
          "ticks": 3541,
          "time": 18.813664968749997,
          "velocity": 0.7559055118110236
        },
        {
          "duration": 0.11688806250000283,
          "durationTicks": 22,
          "midi": 45,
          "name": "A2",
          "ticks": 3589,
          "time": 19.06869346875,
          "velocity": 0.7559055118110236
        },
        {
          "duration": 0.11688806250000283,
          "durationTicks": 22,
          "midi": 48,
          "name": "C3",
          "ticks": 3613,
          "time": 19.19620771875,
          "velocity": 0.7559055118110236
        },
        {
          "duration": 0.11688806250000283,
          "durationTicks": 22,
          "midi": 50,
          "name": "D3",
          "ticks": 3637,
          "time": 19.323721968749997,
          "velocity": 0.7559055118110236
        },
        {
          "duration": 0.11688806250000283,
          "durationTicks": 22,
          "midi": 45,
          "name": "A2",
          "ticks": 3661,
          "time": 19.451236218749997,
          "velocity": 0.7559055118110236
        },
        {
          "duration": 0.11688806250000283,
          "durationTicks": 22,
          "midi": 45,
          "name": "A2",
          "ticks": 3685,
          "time": 19.57875046875,
          "velocity": 0.7559055118110236
        },
        {
          "duration": 0.11688806250000283,
          "durationTicks": 22,
          "midi": 57,
          "name": "A3",
          "ticks": 3709,
          "time": 19.70626471875,
          "velocity": 0.7559055118110236
        },
        {
          "duration": 0.11688806250000283,
          "durationTicks": 22,
          "midi": 52,
          "name": "E3",
          "ticks": 3757,
          "time": 19.961293218749997,
          "velocity": 0.7559055118110236
        },
        {
          "duration": 0.11688806249999928,
          "durationTicks": 22,
          "midi": 51,
          "name": "D#3",
          "ticks": 3829,
          "time": 20.34383596875,
          "velocity": 0.7559055118110236
        },
        {
          "duration": 0.11688806250000283,
          "durationTicks": 22,
          "midi": 50,
          "name": "D3",
          "ticks": 3877,
          "time": 20.598864468749998,
          "velocity": 0.7559055118110236
        },
        {
          "duration": 0.2444023125000001,
          "durationTicks": 46,
          "midi": 48,
          "name": "C3",
          "ticks": 3925,
          "time": 20.85389296875,
          "velocity": 0.7559055118110236
        },
        {
          "duration": 0.11688806250000283,
          "durationTicks": 22,
          "midi": 45,
          "name": "A2",
          "ticks": 3973,
          "time": 21.108921468749998,
          "velocity": 0.7559055118110236
        },
        {
          "duration": 0.11688806250000283,
          "durationTicks": 22,
          "midi": 48,
          "name": "C3",
          "ticks": 3997,
          "time": 21.23643571875,
          "velocity": 0.7559055118110236
        },
        {
          "duration": 0.11688806250000283,
          "durationTicks": 22,
          "midi": 50,
          "name": "D3",
          "ticks": 4021,
          "time": 21.36394996875,
          "velocity": 0.7559055118110236
        },
        {
          "duration": 0.11688806250000283,
          "durationTicks": 22,
          "midi": 41,
          "name": "F2",
          "ticks": 4045,
          "time": 21.491464218749996,
          "velocity": 0.7559055118110236
        },
        {
          "duration": 0.11688806250000283,
          "durationTicks": 22,
          "midi": 41,
          "name": "F2",
          "ticks": 4069,
          "time": 21.618978468749997,
          "velocity": 0.7559055118110236
        },
        {
          "duration": 0.11688806250000283,
          "durationTicks": 22,
          "midi": 57,
          "name": "A3",
          "ticks": 4093,
          "time": 21.746492718749998,
          "velocity": 0.7559055118110236
        },
        {
          "duration": 0.11688806249999928,
          "durationTicks": 22,
          "midi": 52,
          "name": "E3",
          "ticks": 4141,
          "time": 22.00152121875,
          "velocity": 0.7559055118110236
        },
        {
          "duration": 0.11688806250000283,
          "durationTicks": 22,
          "midi": 51,
          "name": "D#3",
          "ticks": 4213,
          "time": 22.38406396875,
          "velocity": 0.7559055118110236
        },
        {
          "duration": 0.11688806250000283,
          "durationTicks": 22,
          "midi": 50,
          "name": "D3",
          "ticks": 4261,
          "time": 22.639092468749997,
          "velocity": 0.7559055118110236
        },
        {
          "duration": 0.24440231250000366,
          "durationTicks": 46,
          "midi": 48,
          "name": "C3",
          "ticks": 4309,
          "time": 22.89412096875,
          "velocity": 0.7559055118110236
        },
        {
          "duration": 0.11688806250000283,
          "durationTicks": 22,
          "midi": 45,
          "name": "A2",
          "ticks": 4357,
          "time": 23.149149468749997,
          "velocity": 0.7559055118110236
        },
        {
          "duration": 0.11688806250000283,
          "durationTicks": 22,
          "midi": 48,
          "name": "C3",
          "ticks": 4381,
          "time": 23.276663718749997,
          "velocity": 0.7559055118110236
        },
        {
          "duration": 0.11688806250000283,
          "durationTicks": 22,
          "midi": 50,
          "name": "D3",
          "ticks": 4405,
          "time": 23.40417796875,
          "velocity": 0.7559055118110236
        },
        {
          "duration": 0.11688806250000283,
          "durationTicks": 22,
          "midi": 43,
          "name": "G2",
          "ticks": 4429,
          "time": 23.53169221875,
          "velocity": 0.7559055118110236
        },
        {
          "duration": 0.11688806250000283,
          "durationTicks": 22,
          "midi": 43,
          "name": "G2",
          "ticks": 4453,
          "time": 23.659206468749996,
          "velocity": 0.7559055118110236
        },
        {
          "duration": 0.11688806250000283,
          "durationTicks": 22,
          "midi": 57,
          "name": "A3",
          "ticks": 4477,
          "time": 23.786720718749997,
          "velocity": 0.7559055118110236
        },
        {
          "duration": 0.11688806250000283,
          "durationTicks": 22,
          "midi": 52,
          "name": "E3",
          "ticks": 4525,
          "time": 24.04174921875,
          "velocity": 0.7559055118110236
        },
        {
          "duration": 0.11688806250000283,
          "durationTicks": 22,
          "midi": 51,
          "name": "D#3",
          "ticks": 4597,
          "time": 24.424291968749998,
          "velocity": 0.7559055118110236
        },
        {
          "duration": 0.11688806249999928,
          "durationTicks": 22,
          "midi": 50,
          "name": "D3",
          "ticks": 4645,
          "time": 24.67932046875,
          "velocity": 0.7559055118110236
        },
        {
          "duration": 0.24440231250000366,
          "durationTicks": 46,
          "midi": 48,
          "name": "C3",
          "ticks": 4693,
          "time": 24.934348968749998,
          "velocity": 0.7559055118110236
        },
        {
          "duration": 0.11688806250000283,
          "durationTicks": 22,
          "midi": 45,
          "name": "A2",
          "ticks": 4741,
          "time": 25.18937746875,
          "velocity": 0.7559055118110236
        },
        {
          "duration": 0.11688806250000283,
          "durationTicks": 22,
          "midi": 48,
          "name": "C3",
          "ticks": 4765,
          "time": 25.316891718749996,
          "velocity": 0.7559055118110236
        },
        {
          "duration": 0.11688806250000283,
          "durationTicks": 22,
          "midi": 50,
          "name": "D3",
          "ticks": 4789,
          "time": 25.444405968749997,
          "velocity": 0.7559055118110236
        },
        {
          "duration": 0.11688806250000283,
          "durationTicks": 22,
          "midi": 45,
          "name": "A2",
          "ticks": 4813,
          "time": 25.571920218749998,
          "velocity": 0.7559055118110236
        },
        {
          "duration": 0.11688806250000283,
          "durationTicks": 22,
          "midi": 45,
          "name": "A2",
          "ticks": 4837,
          "time": 25.69943446875,
          "velocity": 0.7559055118110236
        },
        {
          "duration": 0.11688806250000283,
          "durationTicks": 22,
          "midi": 57,
          "name": "A3",
          "ticks": 4861,
          "time": 25.826948718749996,
          "velocity": 0.7559055118110236
        },
        {
          "duration": 0.11688806250000283,
          "durationTicks": 22,
          "midi": 52,
          "name": "E3",
          "ticks": 4909,
          "time": 26.081977218749998,
          "velocity": 0.7559055118110236
        },
        {
          "duration": 0.11688806250000283,
          "durationTicks": 22,
          "midi": 51,
          "name": "D#3",
          "ticks": 4981,
          "time": 26.464519968749997,
          "velocity": 0.7559055118110236
        },
        {
          "duration": 0.11688806250000283,
          "durationTicks": 22,
          "midi": 50,
          "name": "D3",
          "ticks": 5029,
          "time": 26.71954846875,
          "velocity": 0.7559055118110236
        },
        {
          "duration": 0.24440231250000366,
          "durationTicks": 46,
          "midi": 48,
          "name": "C3",
          "ticks": 5077,
          "time": 26.974576968749997,
          "velocity": 0.7559055118110236
        },
        {
          "duration": 0.11688806250000283,
          "durationTicks": 22,
          "midi": 45,
          "name": "A2",
          "ticks": 5125,
          "time": 27.229605468749998,
          "velocity": 0.7559055118110236
        },
        {
          "duration": 0.11688806250000283,
          "durationTicks": 22,
          "midi": 48,
          "name": "C3",
          "ticks": 5149,
          "time": 27.35711971875,
          "velocity": 0.7559055118110236
        },
        {
          "duration": 0.11688806250000283,
          "durationTicks": 22,
          "midi": 50,
          "name": "D3",
          "ticks": 5173,
          "time": 27.484633968749996,
          "velocity": 0.7559055118110236
        },
        {
          "duration": 0.11688806250000283,
          "durationTicks": 22,
          "midi": 45,
          "name": "A2",
          "ticks": 5197,
          "time": 27.612148218749997,
          "velocity": 0.7559055118110236
        },
        {
          "duration": 0.11688806250000283,
          "durationTicks": 22,
          "midi": 45,
          "name": "A2",
          "ticks": 5221,
          "time": 27.739662468749998,
          "velocity": 0.7559055118110236
        },
        {
          "duration": 0.11688806250000283,
          "durationTicks": 22,
          "midi": 57,
          "name": "A3",
          "ticks": 5245,
          "time": 27.86717671875,
          "velocity": 0.7559055118110236
        },
        {
          "duration": 0.11688806250000283,
          "durationTicks": 22,
          "midi": 52,
          "name": "E3",
          "ticks": 5293,
          "time": 28.122205218749997,
          "velocity": 0.7559055118110236
        },
        {
          "duration": 0.11688806249999928,
          "durationTicks": 22,
          "midi": 51,
          "name": "D#3",
          "ticks": 5365,
          "time": 28.50474796875,
          "velocity": 0.7559055118110236
        },
        {
          "duration": 0.11688806250000283,
          "durationTicks": 22,
          "midi": 50,
          "name": "D3",
          "ticks": 5413,
          "time": 28.759776468749997,
          "velocity": 0.7559055118110236
        },
        {
          "duration": 0.2444023125000001,
          "durationTicks": 46,
          "midi": 48,
          "name": "C3",
          "ticks": 5461,
          "time": 29.01480496875,
          "velocity": 0.7559055118110236
        },
        {
          "duration": 0.11688806250000283,
          "durationTicks": 22,
          "midi": 45,
          "name": "A2",
          "ticks": 5509,
          "time": 29.269833468749997,
          "velocity": 0.7559055118110236
        },
        {
          "duration": 0.11688806250000283,
          "durationTicks": 22,
          "midi": 48,
          "name": "C3",
          "ticks": 5533,
          "time": 29.397347718749998,
          "velocity": 0.7559055118110236
        },
        {
          "duration": 0.11688806250000283,
          "durationTicks": 22,
          "midi": 50,
          "name": "D3",
          "ticks": 5557,
          "time": 29.52486196875,
          "velocity": 0.7559055118110236
        },
        {
          "duration": 0.11688806250000283,
          "durationTicks": 22,
          "midi": 45,
          "name": "A2",
          "ticks": 5581,
          "time": 29.652376218749996,
          "velocity": 0.7559055118110236
        },
        {
          "duration": 0.11688806250000283,
          "durationTicks": 22,
          "midi": 45,
          "name": "A2",
          "ticks": 5605,
          "time": 29.779890468749997,
          "velocity": 0.7559055118110236
        },
        {
          "duration": 0.11688806250000283,
          "durationTicks": 22,
          "midi": 57,
          "name": "A3",
          "ticks": 5629,
          "time": 29.907404718749998,
          "velocity": 0.7559055118110236
        },
        {
          "duration": 0.11688806249999928,
          "durationTicks": 22,
          "midi": 52,
          "name": "E3",
          "ticks": 5677,
          "time": 30.16243321875,
          "velocity": 0.7559055118110236
        },
        {
          "duration": 0.11688806250000283,
          "durationTicks": 22,
          "midi": 51,
          "name": "D#3",
          "ticks": 5749,
          "time": 30.54497596875,
          "velocity": 0.7559055118110236
        },
        {
          "duration": 0.11688806250000283,
          "durationTicks": 22,
          "midi": 50,
          "name": "D3",
          "ticks": 5797,
          "time": 30.800004468749997,
          "velocity": 0.7559055118110236
        },
        {
          "duration": 0.24440231250000366,
          "durationTicks": 46,
          "midi": 48,
          "name": "C3",
          "ticks": 5845,
          "time": 31.055032968749998,
          "velocity": 0.7559055118110236
        },
        {
          "duration": 0.11688806250000283,
          "durationTicks": 22,
          "midi": 45,
          "name": "A2",
          "ticks": 5893,
          "time": 31.310061468749996,
          "velocity": 0.7559055118110236
        },
        {
          "duration": 0.11688806250000283,
          "durationTicks": 22,
          "midi": 48,
          "name": "C3",
          "ticks": 5917,
          "time": 31.437575718749997,
          "velocity": 0.7559055118110236
        },
        {
          "duration": 0.11688806250000283,
          "durationTicks": 22,
          "midi": 50,
          "name": "D3",
          "ticks": 5941,
          "time": 31.565089968749998,
          "velocity": 0.7559055118110236
        },
        {
          "duration": 0.11688806250000283,
          "durationTicks": 22,
          "midi": 45,
          "name": "A2",
          "ticks": 5965,
          "time": 31.69260421875,
          "velocity": 0.7559055118110236
        },
        {
          "duration": 0.11688806250000283,
          "durationTicks": 22,
          "midi": 45,
          "name": "A2",
          "ticks": 5989,
          "time": 31.820118468749996,
          "velocity": 0.7559055118110236
        },
        {
          "duration": 0.11688806250000638,
          "durationTicks": 22,
          "midi": 57,
          "name": "A3",
          "ticks": 6013,
          "time": 31.947632718749997,
          "velocity": 0.7559055118110236
        },
        {
          "duration": 0.11688806250000283,
          "durationTicks": 22,
          "midi": 52,
          "name": "E3",
          "ticks": 6061,
          "time": 32.202661218749995,
          "velocity": 0.7559055118110236
        },
        {
          "duration": 0.11688806249999573,
          "durationTicks": 22,
          "midi": 51,
          "name": "D#3",
          "ticks": 6133,
          "time": 32.58520396875,
          "velocity": 0.7559055118110236
        },
        {
          "duration": 0.11688806249999573,
          "durationTicks": 22,
          "midi": 50,
          "name": "D3",
          "ticks": 6181,
          "time": 32.84023246875,
          "velocity": 0.7559055118110236
        },
        {
          "duration": 0.244402312499993,
          "durationTicks": 46,
          "midi": 48,
          "name": "C3",
          "ticks": 6229,
          "time": 33.095260968750004,
          "velocity": 0.7559055118110236
        },
        {
          "duration": 0.11688806249999573,
          "durationTicks": 22,
          "midi": 45,
          "name": "A2",
          "ticks": 6277,
          "time": 33.35028946875,
          "velocity": 0.7559055118110236
        },
        {
          "duration": 0.11688806249999573,
          "durationTicks": 22,
          "midi": 48,
          "name": "C3",
          "ticks": 6301,
          "time": 33.47780371875,
          "velocity": 0.7559055118110236
        },
        {
          "duration": 0.11688806249999573,
          "durationTicks": 22,
          "midi": 50,
          "name": "D3",
          "ticks": 6325,
          "time": 33.60531796875,
          "velocity": 0.7559055118110236
        },
        {
          "duration": 0.11688806249999573,
          "durationTicks": 22,
          "midi": 45,
          "name": "A2",
          "ticks": 6349,
          "time": 33.73283221875,
          "velocity": 0.7559055118110236
        },
        {
          "duration": 0.11688806249999573,
          "durationTicks": 22,
          "midi": 45,
          "name": "A2",
          "ticks": 6373,
          "time": 33.86034646875,
          "velocity": 0.7559055118110236
        },
        {
          "duration": 0.11688806249999573,
          "durationTicks": 22,
          "midi": 57,
          "name": "A3",
          "ticks": 6397,
          "time": 33.98786071875,
          "velocity": 0.7559055118110236
        },
        {
          "duration": 0.11688806249999573,
          "durationTicks": 22,
          "midi": 52,
          "name": "E3",
          "ticks": 6445,
          "time": 34.24288921875,
          "velocity": 0.7559055118110236
        },
        {
          "duration": 0.11688806249999573,
          "durationTicks": 22,
          "midi": 51,
          "name": "D#3",
          "ticks": 6517,
          "time": 34.62543196875,
          "velocity": 0.7559055118110236
        },
        {
          "duration": 0.11688806249999573,
          "durationTicks": 22,
          "midi": 50,
          "name": "D3",
          "ticks": 6565,
          "time": 34.88046046875,
          "velocity": 0.7559055118110236
        },
        {
          "duration": 0.244402312499993,
          "durationTicks": 46,
          "midi": 48,
          "name": "C3",
          "ticks": 6613,
          "time": 35.13548896875,
          "velocity": 0.7559055118110236
        },
        {
          "duration": 0.11688806249999573,
          "durationTicks": 22,
          "midi": 45,
          "name": "A2",
          "ticks": 6661,
          "time": 35.39051746875,
          "velocity": 0.7559055118110236
        },
        {
          "duration": 0.11688806249999573,
          "durationTicks": 22,
          "midi": 48,
          "name": "C3",
          "ticks": 6685,
          "time": 35.51803171875,
          "velocity": 0.7559055118110236
        },
        {
          "duration": 0.11688806249999573,
          "durationTicks": 22,
          "midi": 50,
          "name": "D3",
          "ticks": 6709,
          "time": 35.64554596875,
          "velocity": 0.7559055118110236
        },
        {
          "duration": 0.11688806249999573,
          "durationTicks": 22,
          "midi": 45,
          "name": "A2",
          "ticks": 6733,
          "time": 35.773060218750004,
          "velocity": 0.7559055118110236
        },
        {
          "duration": 0.11688806249999573,
          "durationTicks": 22,
          "midi": 45,
          "name": "A2",
          "ticks": 6757,
          "time": 35.90057446875,
          "velocity": 0.7559055118110236
        },
        {
          "duration": 0.11688806249999573,
          "durationTicks": 22,
          "midi": 57,
          "name": "A3",
          "ticks": 6781,
          "time": 36.02808871875,
          "velocity": 0.7559055118110236
        },
        {
          "duration": 0.11688806249999573,
          "durationTicks": 22,
          "midi": 52,
          "name": "E3",
          "ticks": 6829,
          "time": 36.28311721875,
          "velocity": 0.7559055118110236
        },
        {
          "duration": 0.11688806249999573,
          "durationTicks": 22,
          "midi": 51,
          "name": "D#3",
          "ticks": 6901,
          "time": 36.66565996875,
          "velocity": 0.7559055118110236
        },
        {
          "duration": 0.11688806249999573,
          "durationTicks": 22,
          "midi": 50,
          "name": "D3",
          "ticks": 6949,
          "time": 36.92068846875,
          "velocity": 0.7559055118110236
        },
        {
          "duration": 0.244402312499993,
          "durationTicks": 46,
          "midi": 48,
          "name": "C3",
          "ticks": 6997,
          "time": 37.17571696875,
          "velocity": 0.7559055118110236
        },
        {
          "duration": 0.11688806249999573,
          "durationTicks": 22,
          "midi": 45,
          "name": "A2",
          "ticks": 7045,
          "time": 37.430745468750004,
          "velocity": 0.7559055118110236
        },
        {
          "duration": 0.11688806249999573,
          "durationTicks": 22,
          "midi": 48,
          "name": "C3",
          "ticks": 7069,
          "time": 37.55825971875,
          "velocity": 0.7559055118110236
        },
        {
          "duration": 0.11688806249999573,
          "durationTicks": 22,
          "midi": 50,
          "name": "D3",
          "ticks": 7093,
          "time": 37.68577396875,
          "velocity": 0.7559055118110236
        },
        {
          "duration": 0.11688806249999573,
          "durationTicks": 22,
          "midi": 45,
          "name": "A2",
          "ticks": 7117,
          "time": 37.81328821875,
          "velocity": 0.7559055118110236
        },
        {
          "duration": 0.11688806249999573,
          "durationTicks": 22,
          "midi": 45,
          "name": "A2",
          "ticks": 7141,
          "time": 37.94080246875,
          "velocity": 0.7559055118110236
        },
        {
          "duration": 0.11688806249998862,
          "durationTicks": 22,
          "midi": 57,
          "name": "A3",
          "ticks": 7165,
          "time": 38.068316718750005,
          "velocity": 0.7559055118110236
        },
        {
          "duration": 0.11688806249999573,
          "durationTicks": 22,
          "midi": 52,
          "name": "E3",
          "ticks": 7213,
          "time": 38.32334521875,
          "velocity": 0.7559055118110236
        },
        {
          "duration": 0.11688806249999573,
          "durationTicks": 22,
          "midi": 51,
          "name": "D#3",
          "ticks": 7285,
          "time": 38.70588796875,
          "velocity": 0.7559055118110236
        },
        {
          "duration": 0.11688806249999573,
          "durationTicks": 22,
          "midi": 50,
          "name": "D3",
          "ticks": 7333,
          "time": 38.96091646875,
          "velocity": 0.7559055118110236
        },
        {
          "duration": 0.244402312499993,
          "durationTicks": 46,
          "midi": 48,
          "name": "C3",
          "ticks": 7381,
          "time": 39.21594496875,
          "velocity": 0.7559055118110236
        },
        {
          "duration": 0.11688806249999573,
          "durationTicks": 22,
          "midi": 45,
          "name": "A2",
          "ticks": 7429,
          "time": 39.47097346875,
          "velocity": 0.7559055118110236
        },
        {
          "duration": 0.11688806249999573,
          "durationTicks": 22,
          "midi": 48,
          "name": "C3",
          "ticks": 7453,
          "time": 39.59848771875,
          "velocity": 0.7559055118110236
        },
        {
          "duration": 0.11688806249999573,
          "durationTicks": 22,
          "midi": 50,
          "name": "D3",
          "ticks": 7477,
          "time": 39.72600196875,
          "velocity": 0.7559055118110236
        },
        {
          "duration": 0.11688806249999573,
          "durationTicks": 22,
          "midi": 45,
          "name": "A2",
          "ticks": 7501,
          "time": 39.85351621875,
          "velocity": 0.7559055118110236
        },
        {
          "duration": 0.11688806249999573,
          "durationTicks": 22,
          "midi": 45,
          "name": "A2",
          "ticks": 7525,
          "time": 39.98103046875,
          "velocity": 0.7559055118110236
        },
        {
          "duration": 0.11688806249999573,
          "durationTicks": 22,
          "midi": 57,
          "name": "A3",
          "ticks": 7549,
          "time": 40.108544718750004,
          "velocity": 0.7559055118110236
        },
        {
          "duration": 0.11688806249999573,
          "durationTicks": 22,
          "midi": 52,
          "name": "E3",
          "ticks": 7597,
          "time": 40.36357321875,
          "velocity": 0.7559055118110236
        },
        {
          "duration": 0.11688806249998862,
          "durationTicks": 22,
          "midi": 51,
          "name": "D#3",
          "ticks": 7669,
          "time": 40.746115968750004,
          "velocity": 0.7559055118110236
        },
        {
          "duration": 0.11688806249999573,
          "durationTicks": 22,
          "midi": 50,
          "name": "D3",
          "ticks": 7717,
          "time": 41.00114446875,
          "velocity": 0.7559055118110236
        },
        {
          "duration": 0.244402312499993,
          "durationTicks": 46,
          "midi": 48,
          "name": "C3",
          "ticks": 7765,
          "time": 41.25617296875,
          "velocity": 0.7559055118110236
        },
        {
          "duration": 0.11688806249999573,
          "durationTicks": 22,
          "midi": 45,
          "name": "A2",
          "ticks": 7813,
          "time": 41.51120146875,
          "velocity": 0.7559055118110236
        },
        {
          "duration": 0.11688806249999573,
          "durationTicks": 22,
          "midi": 48,
          "name": "C3",
          "ticks": 7837,
          "time": 41.63871571875,
          "velocity": 0.7559055118110236
        },
        {
          "duration": 0.11688806249999573,
          "durationTicks": 22,
          "midi": 50,
          "name": "D3",
          "ticks": 7861,
          "time": 41.766229968750004,
          "velocity": 0.7559055118110236
        },
        {
          "duration": 0.11688806249999573,
          "durationTicks": 22,
          "midi": 45,
          "name": "A2",
          "ticks": 7885,
          "time": 41.89374421875,
          "velocity": 0.7559055118110236
        },
        {
          "duration": 0.11688806249999573,
          "durationTicks": 22,
          "midi": 45,
          "name": "A2",
          "ticks": 7909,
          "time": 42.02125846875,
          "velocity": 0.7559055118110236
        },
        {
          "duration": 0.11688806249999573,
          "durationTicks": 22,
          "midi": 57,
          "name": "A3",
          "ticks": 7933,
          "time": 42.14877271875,
          "velocity": 0.7559055118110236
        },
        {
          "duration": 0.11688806249998862,
          "durationTicks": 22,
          "midi": 52,
          "name": "E3",
          "ticks": 7981,
          "time": 42.403801218750004,
          "velocity": 0.7559055118110236
        },
        {
          "duration": 0.11688806249999573,
          "durationTicks": 22,
          "midi": 51,
          "name": "D#3",
          "ticks": 8053,
          "time": 42.78634396875,
          "velocity": 0.7559055118110236
        },
        {
          "duration": 0.11688806249999573,
          "durationTicks": 22,
          "midi": 50,
          "name": "D3",
          "ticks": 8101,
          "time": 43.04137246875,
          "velocity": 0.7559055118110236
        },
        {
          "duration": 0.244402312499993,
          "durationTicks": 46,
          "midi": 48,
          "name": "C3",
          "ticks": 8149,
          "time": 43.29640096875,
          "velocity": 0.7559055118110236
        },
        {
          "duration": 0.11688806249999573,
          "durationTicks": 22,
          "midi": 45,
          "name": "A2",
          "ticks": 8197,
          "time": 43.55142946875,
          "velocity": 0.7559055118110236
        },
        {
          "duration": 0.11688806249999573,
          "durationTicks": 22,
          "midi": 48,
          "name": "C3",
          "ticks": 8221,
          "time": 43.67894371875,
          "velocity": 0.7559055118110236
        },
        {
          "duration": 0.11688806249999573,
          "durationTicks": 22,
          "midi": 50,
          "name": "D3",
          "ticks": 8245,
          "time": 43.80645796875,
          "velocity": 0.7559055118110236
        },
        {
          "duration": 0.11688806249999573,
          "durationTicks": 22,
          "midi": 45,
          "name": "A2",
          "ticks": 8269,
          "time": 43.93397221875,
          "velocity": 0.7559055118110236
        },
        {
          "duration": 0.11688806249999573,
          "durationTicks": 22,
          "midi": 45,
          "name": "A2",
          "ticks": 8293,
          "time": 44.06148646875,
          "velocity": 0.7559055118110236
        },
        {
          "duration": 0.11688806249999573,
          "durationTicks": 22,
          "midi": 57,
          "name": "A3",
          "ticks": 8317,
          "time": 44.18900071875,
          "velocity": 0.7559055118110236
        },
        {
          "duration": 0.11688806249999573,
          "durationTicks": 22,
          "midi": 52,
          "name": "E3",
          "ticks": 8365,
          "time": 44.44402921875,
          "velocity": 0.7559055118110236
        },
        {
          "duration": 0.11688806249999573,
          "durationTicks": 22,
          "midi": 51,
          "name": "D#3",
          "ticks": 8437,
          "time": 44.82657196875,
          "velocity": 0.7559055118110236
        },
        {
          "duration": 0.11688806249998862,
          "durationTicks": 22,
          "midi": 50,
          "name": "D3",
          "ticks": 8485,
          "time": 45.081600468750004,
          "velocity": 0.7559055118110236
        },
        {
          "duration": 0.2444023125000001,
          "durationTicks": 46,
          "midi": 48,
          "name": "C3",
          "ticks": 8533,
          "time": 45.33662896875,
          "velocity": 0.7559055118110236
        },
        {
          "duration": 0.11688806249999573,
          "durationTicks": 22,
          "midi": 45,
          "name": "A2",
          "ticks": 8581,
          "time": 45.59165746875,
          "velocity": 0.7559055118110236
        },
        {
          "duration": 0.11688806249999573,
          "durationTicks": 22,
          "midi": 48,
          "name": "C3",
          "ticks": 8605,
          "time": 45.71917171875,
          "velocity": 0.7559055118110236
        },
        {
          "duration": 0.11688806249999573,
          "durationTicks": 22,
          "midi": 50,
          "name": "D3",
          "ticks": 8629,
          "time": 45.84668596875,
          "velocity": 0.7559055118110236
        },
        {
          "duration": 0.11688806249999573,
          "durationTicks": 22,
          "midi": 45,
          "name": "A2",
          "ticks": 8653,
          "time": 45.97420021875,
          "velocity": 0.7559055118110236
        },
        {
          "duration": 0.11688806249999573,
          "durationTicks": 22,
          "midi": 45,
          "name": "A2",
          "ticks": 8677,
          "time": 46.101714468750004,
          "velocity": 0.7559055118110236
        },
        {
          "duration": 0.11688806249999573,
          "durationTicks": 22,
          "midi": 57,
          "name": "A3",
          "ticks": 8701,
          "time": 46.22922871875,
          "velocity": 0.7559055118110236
        },
        {
          "duration": 0.11688806249999573,
          "durationTicks": 22,
          "midi": 52,
          "name": "E3",
          "ticks": 8749,
          "time": 46.48425721875,
          "velocity": 0.7559055118110236
        },
        {
          "duration": 0.11688806249999573,
          "durationTicks": 22,
          "midi": 51,
          "name": "D#3",
          "ticks": 8821,
          "time": 46.86679996875,
          "velocity": 0.7559055118110236
        },
        {
          "duration": 0.11688806249999573,
          "durationTicks": 22,
          "midi": 50,
          "name": "D3",
          "ticks": 8869,
          "time": 47.12182846875,
          "velocity": 0.7559055118110236
        },
        {
          "duration": 0.2444023125000001,
          "durationTicks": 46,
          "midi": 48,
          "name": "C3",
          "ticks": 8917,
          "time": 47.37685696875,
          "velocity": 0.7559055118110236
        },
        {
          "duration": 0.11688806249999573,
          "durationTicks": 22,
          "midi": 45,
          "name": "A2",
          "ticks": 8965,
          "time": 47.63188546875,
          "velocity": 0.7559055118110236
        },
        {
          "duration": 0.11688806249999573,
          "durationTicks": 22,
          "midi": 48,
          "name": "C3",
          "ticks": 8989,
          "time": 47.759399718750004,
          "velocity": 0.7559055118110236
        },
        {
          "duration": 0.11688806249999573,
          "durationTicks": 22,
          "midi": 50,
          "name": "D3",
          "ticks": 9013,
          "time": 47.88691396875,
          "velocity": 0.7559055118110236
        },
        {
          "duration": 0.11688806249999573,
          "durationTicks": 22,
          "midi": 45,
          "name": "A2",
          "ticks": 9037,
          "time": 48.01442821875,
          "velocity": 0.7559055118110236
        },
        {
          "duration": 0.11688806249999573,
          "durationTicks": 22,
          "midi": 45,
          "name": "A2",
          "ticks": 9061,
          "time": 48.14194246875,
          "velocity": 0.7559055118110236
        },
        {
          "duration": 0.11688806249999573,
          "durationTicks": 22,
          "midi": 57,
          "name": "A3",
          "ticks": 9085,
          "time": 48.26945671875,
          "velocity": 0.7559055118110236
        },
        {
          "duration": 0.11688806249999573,
          "durationTicks": 22,
          "midi": 52,
          "name": "E3",
          "ticks": 9133,
          "time": 48.52448521875,
          "velocity": 0.7559055118110236
        },
        {
          "duration": 0.11688806249999573,
          "durationTicks": 22,
          "midi": 51,
          "name": "D#3",
          "ticks": 9205,
          "time": 48.90702796875,
          "velocity": 0.7559055118110236
        },
        {
          "duration": 0.11688806249999573,
          "durationTicks": 22,
          "midi": 50,
          "name": "D3",
          "ticks": 9253,
          "time": 49.16205646875,
          "velocity": 0.7559055118110236
        },
        {
          "duration": 0.244402312499993,
          "durationTicks": 46,
          "midi": 48,
          "name": "C3",
          "ticks": 9301,
          "time": 49.417084968750004,
          "velocity": 0.7559055118110236
        },
        {
          "duration": 0.11688806249999573,
          "durationTicks": 22,
          "midi": 45,
          "name": "A2",
          "ticks": 9349,
          "time": 49.67211346875,
          "velocity": 0.7559055118110236
        },
        {
          "duration": 0.11688806249999573,
          "durationTicks": 22,
          "midi": 48,
          "name": "C3",
          "ticks": 9373,
          "time": 49.79962771875,
          "velocity": 0.7559055118110236
        },
        {
          "duration": 0.11688806249999573,
          "durationTicks": 22,
          "midi": 50,
          "name": "D3",
          "ticks": 9397,
          "time": 49.92714196875,
          "velocity": 0.7559055118110236
        },
        {
          "duration": 0.11688806249999573,
          "durationTicks": 22,
          "midi": 45,
          "name": "A2",
          "ticks": 9421,
          "time": 50.05465621875,
          "velocity": 0.7559055118110236
        },
        {
          "duration": 0.11688806249999573,
          "durationTicks": 22,
          "midi": 45,
          "name": "A2",
          "ticks": 9445,
          "time": 50.18217046875,
          "velocity": 0.7559055118110236
        },
        {
          "duration": 0.11688806249999573,
          "durationTicks": 22,
          "midi": 57,
          "name": "A3",
          "ticks": 9469,
          "time": 50.30968471875,
          "velocity": 0.7559055118110236
        },
        {
          "duration": 0.11688806249999573,
          "durationTicks": 22,
          "midi": 52,
          "name": "E3",
          "ticks": 9517,
          "time": 50.56471321875,
          "velocity": 0.7559055118110236
        },
        {
          "duration": 0.11688806249999573,
          "durationTicks": 22,
          "midi": 51,
          "name": "D#3",
          "ticks": 9589,
          "time": 50.94725596875,
          "velocity": 0.7559055118110236
        },
        {
          "duration": 0.11688806249999573,
          "durationTicks": 22,
          "midi": 50,
          "name": "D3",
          "ticks": 9637,
          "time": 51.20228446875,
          "velocity": 0.7559055118110236
        },
        {
          "duration": 0.244402312499993,
          "durationTicks": 46,
          "midi": 48,
          "name": "C3",
          "ticks": 9685,
          "time": 51.45731296875,
          "velocity": 0.7559055118110236
        },
        {
          "duration": 0.11688806249999573,
          "durationTicks": 22,
          "midi": 45,
          "name": "A2",
          "ticks": 9733,
          "time": 51.71234146875,
          "velocity": 0.7559055118110236
        },
        {
          "duration": 0.11688806249999573,
          "durationTicks": 22,
          "midi": 48,
          "name": "C3",
          "ticks": 9757,
          "time": 51.83985571875,
          "velocity": 0.7559055118110236
        },
        {
          "duration": 0.11688806249999573,
          "durationTicks": 22,
          "midi": 50,
          "name": "D3",
          "ticks": 9781,
          "time": 51.96736996875,
          "velocity": 0.7559055118110236
        },
        {
          "duration": 0.11688806249999573,
          "durationTicks": 22,
          "midi": 45,
          "name": "A2",
          "ticks": 9805,
          "time": 52.09488421875,
          "velocity": 0.7559055118110236
        },
        {
          "duration": 0.11688806249999573,
          "durationTicks": 22,
          "midi": 45,
          "name": "A2",
          "ticks": 9829,
          "time": 52.22239846875,
          "velocity": 0.7559055118110236
        },
        {
          "duration": 0.11688806249999573,
          "durationTicks": 22,
          "midi": 57,
          "name": "A3",
          "ticks": 9853,
          "time": 52.34991271875,
          "velocity": 0.7559055118110236
        },
        {
          "duration": 0.11688806249999573,
          "durationTicks": 22,
          "midi": 52,
          "name": "E3",
          "ticks": 9901,
          "time": 52.60494121875,
          "velocity": 0.7559055118110236
        },
        {
          "duration": 0.11688806249999573,
          "durationTicks": 22,
          "midi": 51,
          "name": "D#3",
          "ticks": 9973,
          "time": 52.98748396875,
          "velocity": 0.7559055118110236
        },
        {
          "duration": 0.11688806249999573,
          "durationTicks": 22,
          "midi": 50,
          "name": "D3",
          "ticks": 10021,
          "time": 53.24251246875,
          "velocity": 0.7559055118110236
        },
        {
          "duration": 0.244402312499993,
          "durationTicks": 46,
          "midi": 48,
          "name": "C3",
          "ticks": 10069,
          "time": 53.49754096875,
          "velocity": 0.7559055118110236
        },
        {
          "duration": 0.11688806249999573,
          "durationTicks": 22,
          "midi": 45,
          "name": "A2",
          "ticks": 10117,
          "time": 53.75256946875,
          "velocity": 0.7559055118110236
        },
        {
          "duration": 0.11688806249999573,
          "durationTicks": 22,
          "midi": 48,
          "name": "C3",
          "ticks": 10141,
          "time": 53.88008371875,
          "velocity": 0.7559055118110236
        },
        {
          "duration": 0.11688806249999573,
          "durationTicks": 22,
          "midi": 50,
          "name": "D3",
          "ticks": 10165,
          "time": 54.00759796875,
          "velocity": 0.7559055118110236
        },
        {
          "duration": 0.11688806249999573,
          "durationTicks": 22,
          "midi": 45,
          "name": "A2",
          "ticks": 10189,
          "time": 54.13511221875,
          "velocity": 0.7559055118110236
        },
        {
          "duration": 0.11688806249999573,
          "durationTicks": 22,
          "midi": 45,
          "name": "A2",
          "ticks": 10213,
          "time": 54.26262646875,
          "velocity": 0.7559055118110236
        },
        {
          "duration": 0.11688806249998862,
          "durationTicks": 22,
          "midi": 57,
          "name": "A3",
          "ticks": 10237,
          "time": 54.390140718750004,
          "velocity": 0.7559055118110236
        },
        {
          "duration": 0.11688806249999573,
          "durationTicks": 22,
          "midi": 52,
          "name": "E3",
          "ticks": 10285,
          "time": 54.64516921875,
          "velocity": 0.7559055118110236
        },
        {
          "duration": 0.11688806249999573,
          "durationTicks": 22,
          "midi": 51,
          "name": "D#3",
          "ticks": 10357,
          "time": 55.02771196875,
          "velocity": 0.7559055118110236
        },
        {
          "duration": 0.11688806249999573,
          "durationTicks": 22,
          "midi": 50,
          "name": "D3",
          "ticks": 10405,
          "time": 55.28274046875,
          "velocity": 0.7559055118110236
        },
        {
          "duration": 0.244402312499993,
          "durationTicks": 46,
          "midi": 48,
          "name": "C3",
          "ticks": 10453,
          "time": 55.53776896875,
          "velocity": 0.7559055118110236
        },
        {
          "duration": 0.11688806249999573,
          "durationTicks": 22,
          "midi": 45,
          "name": "A2",
          "ticks": 10501,
          "time": 55.79279746875,
          "velocity": 0.7559055118110236
        },
        {
          "duration": 0.11688806249999573,
          "durationTicks": 22,
          "midi": 48,
          "name": "C3",
          "ticks": 10525,
          "time": 55.92031171875,
          "velocity": 0.7559055118110236
        },
        {
          "duration": 0.11688806249999573,
          "durationTicks": 22,
          "midi": 50,
          "name": "D3",
          "ticks": 10549,
          "time": 56.04782596875,
          "velocity": 0.7559055118110236
        },
        {
          "duration": 0.11688806249999573,
          "durationTicks": 22,
          "midi": 45,
          "name": "A2",
          "ticks": 10573,
          "time": 56.17534021875,
          "velocity": 0.7559055118110236
        },
        {
          "duration": 0.11688806249999573,
          "durationTicks": 22,
          "midi": 45,
          "name": "A2",
          "ticks": 10597,
          "time": 56.30285446875,
          "velocity": 0.7559055118110236
        },
        {
          "duration": 0.11688806249999573,
          "durationTicks": 22,
          "midi": 57,
          "name": "A3",
          "ticks": 10621,
          "time": 56.43036871875,
          "velocity": 0.7559055118110236
        },
        {
          "duration": 0.11688806249999573,
          "durationTicks": 22,
          "midi": 52,
          "name": "E3",
          "ticks": 10669,
          "time": 56.68539721875,
          "velocity": 0.7559055118110236
        },
        {
          "duration": 0.11688806249998862,
          "durationTicks": 22,
          "midi": 51,
          "name": "D#3",
          "ticks": 10741,
          "time": 57.067939968750004,
          "velocity": 0.7559055118110236
        },
        {
          "duration": 0.11688806249999573,
          "durationTicks": 22,
          "midi": 50,
          "name": "D3",
          "ticks": 10789,
          "time": 57.32296846875,
          "velocity": 0.7559055118110236
        },
        {
          "duration": 0.244402312499993,
          "durationTicks": 46,
          "midi": 48,
          "name": "C3",
          "ticks": 10837,
          "time": 57.57799696875,
          "velocity": 0.7559055118110236
        },
        {
          "duration": 0.11688806249999573,
          "durationTicks": 22,
          "midi": 45,
          "name": "A2",
          "ticks": 10885,
          "time": 57.83302546875,
          "velocity": 0.7559055118110236
        },
        {
          "duration": 0.11688806249999573,
          "durationTicks": 22,
          "midi": 48,
          "name": "C3",
          "ticks": 10909,
          "time": 57.96053971875,
          "velocity": 0.7559055118110236
        },
        {
          "duration": 0.11688806249999573,
          "durationTicks": 22,
          "midi": 50,
          "name": "D3",
          "ticks": 10933,
          "time": 58.08805396875,
          "velocity": 0.7559055118110236
        },
        {
          "duration": 0.11688806249999573,
          "durationTicks": 22,
          "midi": 45,
          "name": "A2",
          "ticks": 10957,
          "time": 58.21556821875,
          "velocity": 0.7559055118110236
        },
        {
          "duration": 0.11688806249999573,
          "durationTicks": 22,
          "midi": 45,
          "name": "A2",
          "ticks": 10981,
          "time": 58.34308246875,
          "velocity": 0.7559055118110236
        },
        {
          "duration": 0.11688806249999573,
          "durationTicks": 22,
          "midi": 57,
          "name": "A3",
          "ticks": 11005,
          "time": 58.47059671875,
          "velocity": 0.7559055118110236
        },
        {
          "duration": 0.11688806249998862,
          "durationTicks": 22,
          "midi": 52,
          "name": "E3",
          "ticks": 11053,
          "time": 58.725625218750004,
          "velocity": 0.7559055118110236
        },
        {
          "duration": 0.11688806249999573,
          "durationTicks": 22,
          "midi": 51,
          "name": "D#3",
          "ticks": 11125,
          "time": 59.10816796875,
          "velocity": 0.7559055118110236
        },
        {
          "duration": 0.11688806249999573,
          "durationTicks": 22,
          "midi": 50,
          "name": "D3",
          "ticks": 11173,
          "time": 59.36319646875,
          "velocity": 0.7559055118110236
        },
        {
          "duration": 0.244402312499993,
          "durationTicks": 46,
          "midi": 48,
          "name": "C3",
          "ticks": 11221,
          "time": 59.61822496875,
          "velocity": 0.7559055118110236
        },
        {
          "duration": 0.11688806249999573,
          "durationTicks": 22,
          "midi": 45,
          "name": "A2",
          "ticks": 11269,
          "time": 59.87325346875,
          "velocity": 0.7559055118110236
        },
        {
          "duration": 0.11688806249999573,
          "durationTicks": 22,
          "midi": 48,
          "name": "C3",
          "ticks": 11293,
          "time": 60.00076771875,
          "velocity": 0.7559055118110236
        },
        {
          "duration": 0.11688806249999573,
          "durationTicks": 22,
          "midi": 50,
          "name": "D3",
          "ticks": 11317,
          "time": 60.12828196875,
          "velocity": 0.7559055118110236
        },
        {
          "duration": 0.11688806249999573,
          "durationTicks": 22,
          "midi": 45,
          "name": "A2",
          "ticks": 11341,
          "time": 60.25579621875,
          "velocity": 0.7559055118110236
        },
        {
          "duration": 0.11688806249999573,
          "durationTicks": 22,
          "midi": 45,
          "name": "A2",
          "ticks": 11365,
          "time": 60.38331046875,
          "velocity": 0.7559055118110236
        },
        {
          "duration": 0.11688806249999573,
          "durationTicks": 22,
          "midi": 57,
          "name": "A3",
          "ticks": 11389,
          "time": 60.51082471875,
          "velocity": 0.7559055118110236
        },
        {
          "duration": 0.11688806249999573,
          "durationTicks": 22,
          "midi": 52,
          "name": "E3",
          "ticks": 11437,
          "time": 60.76585321875,
          "velocity": 0.7559055118110236
        },
        {
          "duration": 0.11688806249999573,
          "durationTicks": 22,
          "midi": 51,
          "name": "D#3",
          "ticks": 11509,
          "time": 61.14839596875,
          "velocity": 0.7559055118110236
        },
        {
          "duration": 0.11688806249998862,
          "durationTicks": 22,
          "midi": 50,
          "name": "D3",
          "ticks": 11557,
          "time": 61.40342446875,
          "velocity": 0.7559055118110236
        },
        {
          "duration": 0.2444023125000001,
          "durationTicks": 46,
          "midi": 48,
          "name": "C3",
          "ticks": 11605,
          "time": 61.65845296875,
          "velocity": 0.7559055118110236
        },
        {
          "duration": 0.11688806249999573,
          "durationTicks": 22,
          "midi": 45,
          "name": "A2",
          "ticks": 11653,
          "time": 61.91348146875,
          "velocity": 0.7559055118110236
        },
        {
          "duration": 0.11688806249999573,
          "durationTicks": 22,
          "midi": 48,
          "name": "C3",
          "ticks": 11677,
          "time": 62.04099571875,
          "velocity": 0.7559055118110236
        },
        {
          "duration": 0.11688806249999573,
          "durationTicks": 22,
          "midi": 50,
          "name": "D3",
          "ticks": 11701,
          "time": 62.16850996875,
          "velocity": 0.7559055118110236
        },
        {
          "duration": 0.11688806249999573,
          "durationTicks": 22,
          "midi": 45,
          "name": "A2",
          "ticks": 11725,
          "time": 62.29602421875,
          "velocity": 0.7559055118110236
        },
        {
          "duration": 0.11688806249999573,
          "durationTicks": 22,
          "midi": 45,
          "name": "A2",
          "ticks": 11749,
          "time": 62.42353846875,
          "velocity": 0.7559055118110236
        },
        {
          "duration": 0.11688806249999573,
          "durationTicks": 22,
          "midi": 57,
          "name": "A3",
          "ticks": 11773,
          "time": 62.55105271875,
          "velocity": 0.7559055118110236
        },
        {
          "duration": 0.11688806249999573,
          "durationTicks": 22,
          "midi": 52,
          "name": "E3",
          "ticks": 11821,
          "time": 62.80608121875,
          "velocity": 0.7559055118110236
        },
        {
          "duration": 0.11688806249999573,
          "durationTicks": 22,
          "midi": 51,
          "name": "D#3",
          "ticks": 11893,
          "time": 63.18862396875,
          "velocity": 0.7559055118110236
        },
        {
          "duration": 0.11688806249999573,
          "durationTicks": 22,
          "midi": 50,
          "name": "D3",
          "ticks": 11941,
          "time": 63.44365246875,
          "velocity": 0.7559055118110236
        },
        {
          "duration": 0.2444023125000001,
          "durationTicks": 46,
          "midi": 48,
          "name": "C3",
          "ticks": 11989,
          "time": 63.69868096875,
          "velocity": 0.7559055118110236
        },
        {
          "duration": 0.11688806250000283,
          "durationTicks": 22,
          "midi": 45,
          "name": "A2",
          "ticks": 12037,
          "time": 63.95370946875,
          "velocity": 0.7559055118110236
        },
        {
          "duration": 0.11688806249999573,
          "durationTicks": 22,
          "midi": 48,
          "name": "C3",
          "ticks": 12061,
          "time": 64.08122371875,
          "velocity": 0.7559055118110236
        },
        {
          "duration": 0.11688806249999573,
          "durationTicks": 22,
          "midi": 50,
          "name": "D3",
          "ticks": 12085,
          "time": 64.20873796875,
          "velocity": 0.7559055118110236
        },
        {
          "duration": 0.11688806249999573,
          "durationTicks": 22,
          "midi": 45,
          "name": "A2",
          "ticks": 12109,
          "time": 64.33625221875,
          "velocity": 0.7559055118110236
        },
        {
          "duration": 0.11688806249999573,
          "durationTicks": 22,
          "midi": 45,
          "name": "A2",
          "ticks": 12133,
          "time": 64.46376646875,
          "velocity": 0.7559055118110236
        },
        {
          "duration": 0.11688806249999573,
          "durationTicks": 22,
          "midi": 57,
          "name": "A3",
          "ticks": 12157,
          "time": 64.59128071875,
          "velocity": 0.7559055118110236
        },
        {
          "duration": 0.11688806249999573,
          "durationTicks": 22,
          "midi": 52,
          "name": "E3",
          "ticks": 12205,
          "time": 64.84630921875,
          "velocity": 0.7559055118110236
        },
        {
          "duration": 0.11688806249999573,
          "durationTicks": 22,
          "midi": 51,
          "name": "D#3",
          "ticks": 12277,
          "time": 65.22885196875,
          "velocity": 0.7559055118110236
        },
        {
          "duration": 0.11688806250000994,
          "durationTicks": 22,
          "midi": 50,
          "name": "D3",
          "ticks": 12325,
          "time": 65.48388046874999,
          "velocity": 0.7559055118110236
        },
        {
          "duration": 0.2444023125000001,
          "durationTicks": 46,
          "midi": 48,
          "name": "C3",
          "ticks": 12373,
          "time": 65.73890896875,
          "velocity": 0.7559055118110236
        },
        {
          "duration": 0.11688806250000994,
          "durationTicks": 22,
          "midi": 45,
          "name": "A2",
          "ticks": 12421,
          "time": 65.99393746874999,
          "velocity": 0.7559055118110236
        },
        {
          "duration": 0.11688806250000994,
          "durationTicks": 22,
          "midi": 48,
          "name": "C3",
          "ticks": 12445,
          "time": 66.12145171875,
          "velocity": 0.7559055118110236
        },
        {
          "duration": 0.11688806250000994,
          "durationTicks": 22,
          "midi": 50,
          "name": "D3",
          "ticks": 12469,
          "time": 66.24896596875,
          "velocity": 0.7559055118110236
        },
        {
          "duration": 0.11688806250000994,
          "durationTicks": 22,
          "midi": 45,
          "name": "A2",
          "ticks": 12493,
          "time": 66.37648021874999,
          "velocity": 0.7559055118110236
        },
        {
          "duration": 0.11688806250000994,
          "durationTicks": 22,
          "midi": 45,
          "name": "A2",
          "ticks": 12517,
          "time": 66.50399446875,
          "velocity": 0.7559055118110236
        },
        {
          "duration": 0.11688806250000994,
          "durationTicks": 22,
          "midi": 57,
          "name": "A3",
          "ticks": 12541,
          "time": 66.63150871875,
          "velocity": 0.7559055118110236
        },
        {
          "duration": 0.11688806250000994,
          "durationTicks": 22,
          "midi": 52,
          "name": "E3",
          "ticks": 12589,
          "time": 66.88653721875,
          "velocity": 0.7559055118110236
        },
        {
          "duration": 0.11688806250000994,
          "durationTicks": 22,
          "midi": 51,
          "name": "D#3",
          "ticks": 12661,
          "time": 67.26907996874999,
          "velocity": 0.7559055118110236
        },
        {
          "duration": 0.11688806250000994,
          "durationTicks": 22,
          "midi": 50,
          "name": "D3",
          "ticks": 12709,
          "time": 67.52410846874999,
          "velocity": 0.7559055118110236
        },
        {
          "duration": 0.24440231250001432,
          "durationTicks": 46,
          "midi": 48,
          "name": "C3",
          "ticks": 12757,
          "time": 67.77913696875,
          "velocity": 0.7559055118110236
        },
        {
          "duration": 0.11688806250000994,
          "durationTicks": 22,
          "midi": 45,
          "name": "A2",
          "ticks": 12805,
          "time": 68.03416546874999,
          "velocity": 0.7559055118110236
        },
        {
          "duration": 0.11688806250000994,
          "durationTicks": 22,
          "midi": 48,
          "name": "C3",
          "ticks": 12829,
          "time": 68.16167971875,
          "velocity": 0.7559055118110236
        },
        {
          "duration": 0.11688806250000994,
          "durationTicks": 22,
          "midi": 50,
          "name": "D3",
          "ticks": 12853,
          "time": 68.28919396875,
          "velocity": 0.7559055118110236
        },
        {
          "duration": 0.11688806250000994,
          "durationTicks": 22,
          "midi": 45,
          "name": "A2",
          "ticks": 12877,
          "time": 68.41670821874999,
          "velocity": 0.7559055118110236
        },
        {
          "duration": 0.11688806250000994,
          "durationTicks": 22,
          "midi": 45,
          "name": "A2",
          "ticks": 12901,
          "time": 68.54422246875,
          "velocity": 0.7559055118110236
        },
        {
          "duration": 0.11688806250000994,
          "durationTicks": 22,
          "midi": 57,
          "name": "A3",
          "ticks": 12925,
          "time": 68.67173671875,
          "velocity": 0.7559055118110236
        },
        {
          "duration": 0.11688806250000994,
          "durationTicks": 22,
          "midi": 52,
          "name": "E3",
          "ticks": 12973,
          "time": 68.92676521874999,
          "velocity": 0.7559055118110236
        },
        {
          "duration": 0.11688806250000994,
          "durationTicks": 22,
          "midi": 51,
          "name": "D#3",
          "ticks": 13045,
          "time": 69.30930796874999,
          "velocity": 0.7559055118110236
        },
        {
          "duration": 0.11688806249999573,
          "durationTicks": 22,
          "midi": 50,
          "name": "D3",
          "ticks": 13093,
          "time": 69.56433646875,
          "velocity": 0.7559055118110236
        },
        {
          "duration": 0.24440231250001432,
          "durationTicks": 46,
          "midi": 48,
          "name": "C3",
          "ticks": 13141,
          "time": 69.81936496875,
          "velocity": 0.7559055118110236
        },
        {
          "duration": 0.11688806250000994,
          "durationTicks": 22,
          "midi": 45,
          "name": "A2",
          "ticks": 13189,
          "time": 70.07439346874999,
          "velocity": 0.7559055118110236
        },
        {
          "duration": 0.11688806250000994,
          "durationTicks": 22,
          "midi": 48,
          "name": "C3",
          "ticks": 13213,
          "time": 70.20190771875,
          "velocity": 0.7559055118110236
        },
        {
          "duration": 0.11688806250000994,
          "durationTicks": 22,
          "midi": 50,
          "name": "D3",
          "ticks": 13237,
          "time": 70.32942196875,
          "velocity": 0.7559055118110236
        },
        {
          "duration": 0.11688806250000994,
          "durationTicks": 22,
          "midi": 45,
          "name": "A2",
          "ticks": 13261,
          "time": 70.45693621874999,
          "velocity": 0.7559055118110236
        },
        {
          "duration": 0.11688806250000994,
          "durationTicks": 22,
          "midi": 45,
          "name": "A2",
          "ticks": 13285,
          "time": 70.58445046874999,
          "velocity": 0.7559055118110236
        },
        {
          "duration": 0.11688806250000994,
          "durationTicks": 22,
          "midi": 57,
          "name": "A3",
          "ticks": 13309,
          "time": 70.71196471875,
          "velocity": 0.7559055118110236
        },
        {
          "duration": 0.11688806250000994,
          "durationTicks": 22,
          "midi": 52,
          "name": "E3",
          "ticks": 13357,
          "time": 70.96699321874999,
          "velocity": 0.7559055118110236
        },
        {
          "duration": 0.11688806250000994,
          "durationTicks": 22,
          "midi": 51,
          "name": "D#3",
          "ticks": 13429,
          "time": 71.34953596874999,
          "velocity": 0.7559055118110236
        },
        {
          "duration": 0.11688806250000994,
          "durationTicks": 22,
          "midi": 50,
          "name": "D3",
          "ticks": 13477,
          "time": 71.60456446875,
          "velocity": 0.7559055118110236
        },
        {
          "duration": 0.24440231250001432,
          "durationTicks": 46,
          "midi": 48,
          "name": "C3",
          "ticks": 13525,
          "time": 71.85959296875,
          "velocity": 0.7559055118110236
        },
        {
          "duration": 0.11688806250000994,
          "durationTicks": 22,
          "midi": 45,
          "name": "A2",
          "ticks": 13573,
          "time": 72.11462146874999,
          "velocity": 0.7559055118110236
        },
        {
          "duration": 0.11688806250000994,
          "durationTicks": 22,
          "midi": 48,
          "name": "C3",
          "ticks": 13597,
          "time": 72.24213571874999,
          "velocity": 0.7559055118110236
        },
        {
          "duration": 0.11688806250000994,
          "durationTicks": 22,
          "midi": 50,
          "name": "D3",
          "ticks": 13621,
          "time": 72.36964996875,
          "velocity": 0.7559055118110236
        },
        {
          "duration": 0.11688806250000994,
          "durationTicks": 22,
          "midi": 45,
          "name": "A2",
          "ticks": 13645,
          "time": 72.49716421874999,
          "velocity": 0.7559055118110236
        },
        {
          "duration": 0.11688806250000994,
          "durationTicks": 22,
          "midi": 45,
          "name": "A2",
          "ticks": 13669,
          "time": 72.62467846874999,
          "velocity": 0.7559055118110236
        },
        {
          "duration": 0.11688806250000994,
          "durationTicks": 22,
          "midi": 57,
          "name": "A3",
          "ticks": 13693,
          "time": 72.75219271875,
          "velocity": 0.7559055118110236
        },
        {
          "duration": 0.11688806250000994,
          "durationTicks": 22,
          "midi": 52,
          "name": "E3",
          "ticks": 13741,
          "time": 73.00722121874999,
          "velocity": 0.7559055118110236
        },
        {
          "duration": 0.11688806250000994,
          "durationTicks": 22,
          "midi": 51,
          "name": "D#3",
          "ticks": 13813,
          "time": 73.38976396874999,
          "velocity": 0.7559055118110236
        },
        {
          "duration": 0.11688806250000994,
          "durationTicks": 22,
          "midi": 50,
          "name": "D3",
          "ticks": 13861,
          "time": 73.64479246875,
          "velocity": 0.7559055118110236
        },
        {
          "duration": 0.24440231250001432,
          "durationTicks": 46,
          "midi": 48,
          "name": "C3",
          "ticks": 13909,
          "time": 73.89982096874999,
          "velocity": 0.7559055118110236
        },
        {
          "duration": 0.11688806250000994,
          "durationTicks": 22,
          "midi": 45,
          "name": "A2",
          "ticks": 13957,
          "time": 74.15484946874999,
          "velocity": 0.7559055118110236
        },
        {
          "duration": 0.11688806250000994,
          "durationTicks": 22,
          "midi": 48,
          "name": "C3",
          "ticks": 13981,
          "time": 74.28236371874999,
          "velocity": 0.7559055118110236
        },
        {
          "duration": 0.11688806250000994,
          "durationTicks": 22,
          "midi": 50,
          "name": "D3",
          "ticks": 14005,
          "time": 74.40987796875,
          "velocity": 0.7559055118110236
        },
        {
          "duration": 0.11688806250000994,
          "durationTicks": 22,
          "midi": 45,
          "name": "A2",
          "ticks": 14029,
          "time": 74.53739221874999,
          "velocity": 0.7559055118110236
        },
        {
          "duration": 0.11688806250000994,
          "durationTicks": 22,
          "midi": 45,
          "name": "A2",
          "ticks": 14053,
          "time": 74.66490646874999,
          "velocity": 0.7559055118110236
        },
        {
          "duration": 0.11688806250000994,
          "durationTicks": 22,
          "midi": 57,
          "name": "A3",
          "ticks": 14077,
          "time": 74.79242071875,
          "velocity": 0.7559055118110236
        },
        {
          "duration": 0.11688806250000994,
          "durationTicks": 22,
          "midi": 52,
          "name": "E3",
          "ticks": 14125,
          "time": 75.04744921874999,
          "velocity": 0.7559055118110236
        },
        {
          "duration": 0.11688806250000994,
          "durationTicks": 22,
          "midi": 51,
          "name": "D#3",
          "ticks": 14197,
          "time": 75.42999196874999,
          "velocity": 0.7559055118110236
        },
        {
          "duration": 0.11688806250000994,
          "durationTicks": 22,
          "midi": 50,
          "name": "D3",
          "ticks": 14245,
          "time": 75.68502046875,
          "velocity": 0.7559055118110236
        },
        {
          "duration": 0.24440231250001432,
          "durationTicks": 46,
          "midi": 48,
          "name": "C3",
          "ticks": 14293,
          "time": 75.94004896874999,
          "velocity": 0.7559055118110236
        },
        {
          "duration": 0.11688806250000994,
          "durationTicks": 22,
          "midi": 45,
          "name": "A2",
          "ticks": 14341,
          "time": 76.19507746874999,
          "velocity": 0.7559055118110236
        },
        {
          "duration": 0.11688806250000994,
          "durationTicks": 22,
          "midi": 48,
          "name": "C3",
          "ticks": 14365,
          "time": 76.32259171874999,
          "velocity": 0.7559055118110236
        },
        {
          "duration": 0.11688806250000994,
          "durationTicks": 22,
          "midi": 50,
          "name": "D3",
          "ticks": 14389,
          "time": 76.45010596875,
          "velocity": 0.7559055118110236
        },
        {
          "duration": 0.11688806250000994,
          "durationTicks": 22,
          "midi": 45,
          "name": "A2",
          "ticks": 14413,
          "time": 76.57762021875,
          "velocity": 0.7559055118110236
        },
        {
          "duration": 0.11688806250000994,
          "durationTicks": 22,
          "midi": 45,
          "name": "A2",
          "ticks": 14437,
          "time": 76.70513446874999,
          "velocity": 0.7559055118110236
        },
        {
          "duration": 0.11688806250000994,
          "durationTicks": 22,
          "midi": 57,
          "name": "A3",
          "ticks": 14461,
          "time": 76.83264871875,
          "velocity": 0.7559055118110236
        },
        {
          "duration": 0.11688806250000994,
          "durationTicks": 22,
          "midi": 52,
          "name": "E3",
          "ticks": 14509,
          "time": 77.08767721874999,
          "velocity": 0.7559055118110236
        },
        {
          "duration": 0.11688806250000994,
          "durationTicks": 22,
          "midi": 51,
          "name": "D#3",
          "ticks": 14581,
          "time": 77.47021996874999,
          "velocity": 0.7559055118110236
        },
        {
          "duration": 0.11688806250000994,
          "durationTicks": 22,
          "midi": 50,
          "name": "D3",
          "ticks": 14629,
          "time": 77.72524846875,
          "velocity": 0.7559055118110236
        },
        {
          "duration": 0.24440231250001432,
          "durationTicks": 46,
          "midi": 48,
          "name": "C3",
          "ticks": 14677,
          "time": 77.98027696874999,
          "velocity": 0.7559055118110236
        },
        {
          "duration": 0.11688806250000994,
          "durationTicks": 22,
          "midi": 45,
          "name": "A2",
          "ticks": 14725,
          "time": 78.23530546875,
          "velocity": 0.7559055118110236
        },
        {
          "duration": 0.11688806250000994,
          "durationTicks": 22,
          "midi": 48,
          "name": "C3",
          "ticks": 14749,
          "time": 78.36281971874999,
          "velocity": 0.7559055118110236
        },
        {
          "duration": 0.11688806250000994,
          "durationTicks": 22,
          "midi": 50,
          "name": "D3",
          "ticks": 14773,
          "time": 78.49033396875,
          "velocity": 0.7559055118110236
        },
        {
          "duration": 0.11688806250000994,
          "durationTicks": 22,
          "midi": 45,
          "name": "A2",
          "ticks": 14797,
          "time": 78.61784821875,
          "velocity": 0.7559055118110236
        },
        {
          "duration": 0.11688806250000994,
          "durationTicks": 22,
          "midi": 45,
          "name": "A2",
          "ticks": 14821,
          "time": 78.74536246874999,
          "velocity": 0.7559055118110236
        },
        {
          "duration": 0.11688806250000994,
          "durationTicks": 22,
          "midi": 57,
          "name": "A3",
          "ticks": 14845,
          "time": 78.87287671874999,
          "velocity": 0.7559055118110236
        },
        {
          "duration": 0.11688806250000994,
          "durationTicks": 22,
          "midi": 52,
          "name": "E3",
          "ticks": 14893,
          "time": 79.12790521874999,
          "velocity": 0.7559055118110236
        },
        {
          "duration": 0.11688806250000994,
          "durationTicks": 22,
          "midi": 51,
          "name": "D#3",
          "ticks": 14965,
          "time": 79.51044796874999,
          "velocity": 0.7559055118110236
        },
        {
          "duration": 0.11688806250000994,
          "durationTicks": 22,
          "midi": 50,
          "name": "D3",
          "ticks": 15013,
          "time": 79.76547646875,
          "velocity": 0.7559055118110236
        },
        {
          "duration": 0.24440231250001432,
          "durationTicks": 46,
          "midi": 48,
          "name": "C3",
          "ticks": 15061,
          "time": 80.02050496874999,
          "velocity": 0.7559055118110236
        },
        {
          "duration": 0.11688806250000994,
          "durationTicks": 22,
          "midi": 45,
          "name": "A2",
          "ticks": 15109,
          "time": 80.27553346875,
          "velocity": 0.7559055118110236
        },
        {
          "duration": 0.11688806250000994,
          "durationTicks": 22,
          "midi": 48,
          "name": "C3",
          "ticks": 15133,
          "time": 80.40304771874999,
          "velocity": 0.7559055118110236
        },
        {
          "duration": 0.11688806250000994,
          "durationTicks": 22,
          "midi": 50,
          "name": "D3",
          "ticks": 15157,
          "time": 80.53056196874999,
          "velocity": 0.7559055118110236
        },
        {
          "duration": 0.11688806250000994,
          "durationTicks": 22,
          "midi": 45,
          "name": "A2",
          "ticks": 15181,
          "time": 80.65807621875,
          "velocity": 0.7559055118110236
        },
        {
          "duration": 0.11688806250000994,
          "durationTicks": 22,
          "midi": 45,
          "name": "A2",
          "ticks": 15205,
          "time": 80.78559046874999,
          "velocity": 0.7559055118110236
        },
        {
          "duration": 0.11688806250000994,
          "durationTicks": 22,
          "midi": 57,
          "name": "A3",
          "ticks": 15229,
          "time": 80.91310471874999,
          "velocity": 0.7559055118110236
        },
        {
          "duration": 0.11688806250000994,
          "durationTicks": 22,
          "midi": 52,
          "name": "E3",
          "ticks": 15277,
          "time": 81.16813321874999,
          "velocity": 0.7559055118110236
        },
        {
          "duration": 0.11688806249999573,
          "durationTicks": 22,
          "midi": 51,
          "name": "D#3",
          "ticks": 15349,
          "time": 81.55067596875,
          "velocity": 0.7559055118110236
        },
        {
          "duration": 0.11688806250000994,
          "durationTicks": 22,
          "midi": 50,
          "name": "D3",
          "ticks": 15397,
          "time": 81.80570446875,
          "velocity": 0.7559055118110236
        },
        {
          "duration": 0.24440231250001432,
          "durationTicks": 46,
          "midi": 48,
          "name": "C3",
          "ticks": 15445,
          "time": 82.06073296874999,
          "velocity": 0.7559055118110236
        },
        {
          "duration": 0.11688806250000994,
          "durationTicks": 22,
          "midi": 45,
          "name": "A2",
          "ticks": 15493,
          "time": 82.31576146875,
          "velocity": 0.7559055118110236
        },
        {
          "duration": 0.11688806250000994,
          "durationTicks": 22,
          "midi": 48,
          "name": "C3",
          "ticks": 15517,
          "time": 82.44327571874999,
          "velocity": 0.7559055118110236
        },
        {
          "duration": 0.11688806250000994,
          "durationTicks": 22,
          "midi": 50,
          "name": "D3",
          "ticks": 15541,
          "time": 82.57078996874999,
          "velocity": 0.7559055118110236
        },
        {
          "duration": 0.11688806250000994,
          "durationTicks": 22,
          "midi": 45,
          "name": "A2",
          "ticks": 15565,
          "time": 82.69830421875,
          "velocity": 0.7559055118110236
        },
        {
          "duration": 0.11688806250000994,
          "durationTicks": 22,
          "midi": 45,
          "name": "A2",
          "ticks": 15589,
          "time": 82.82581846874999,
          "velocity": 0.7559055118110236
        },
        {
          "duration": 0.11688806250000994,
          "durationTicks": 22,
          "midi": 57,
          "name": "A3",
          "ticks": 15613,
          "time": 82.95333271874999,
          "velocity": 0.7559055118110236
        },
        {
          "duration": 0.11688806250000994,
          "durationTicks": 22,
          "midi": 52,
          "name": "E3",
          "ticks": 15661,
          "time": 83.20836121874999,
          "velocity": 0.7559055118110236
        },
        {
          "duration": 0.11688806250000994,
          "durationTicks": 22,
          "midi": 51,
          "name": "D#3",
          "ticks": 15733,
          "time": 83.59090396875,
          "velocity": 0.7559055118110236
        },
        {
          "duration": 0.11688806250000994,
          "durationTicks": 22,
          "midi": 50,
          "name": "D3",
          "ticks": 15781,
          "time": 83.84593246875,
          "velocity": 0.7559055118110236
        },
        {
          "duration": 0.24440231250001432,
          "durationTicks": 46,
          "midi": 48,
          "name": "C3",
          "ticks": 15829,
          "time": 84.10096096874999,
          "velocity": 0.7559055118110236
        },
        {
          "duration": 0.11688806250000994,
          "durationTicks": 22,
          "midi": 45,
          "name": "A2",
          "ticks": 15877,
          "time": 84.35598946875,
          "velocity": 0.7559055118110236
        },
        {
          "duration": 0.11688806250000994,
          "durationTicks": 22,
          "midi": 48,
          "name": "C3",
          "ticks": 15901,
          "time": 84.48350371874999,
          "velocity": 0.7559055118110236
        },
        {
          "duration": 0.11688806250000994,
          "durationTicks": 22,
          "midi": 50,
          "name": "D3",
          "ticks": 15925,
          "time": 84.61101796874999,
          "velocity": 0.7559055118110236
        },
        {
          "duration": 0.11688806250000994,
          "durationTicks": 22,
          "midi": 45,
          "name": "A2",
          "ticks": 15949,
          "time": 84.73853221875,
          "velocity": 0.7559055118110236
        },
        {
          "duration": 0.11688806250000994,
          "durationTicks": 22,
          "midi": 45,
          "name": "A2",
          "ticks": 15973,
          "time": 84.86604646874999,
          "velocity": 0.7559055118110236
        },
        {
          "duration": 0.11688806250000994,
          "durationTicks": 22,
          "midi": 57,
          "name": "A3",
          "ticks": 15997,
          "time": 84.99356071874999,
          "velocity": 0.7559055118110236
        },
        {
          "duration": 0.11688806250000994,
          "durationTicks": 22,
          "midi": 52,
          "name": "E3",
          "ticks": 16045,
          "time": 85.24858921875,
          "velocity": 0.7559055118110236
        },
        {
          "duration": 0.11688806250000994,
          "durationTicks": 22,
          "midi": 51,
          "name": "D#3",
          "ticks": 16117,
          "time": 85.63113196875,
          "velocity": 0.7559055118110236
        },
        {
          "duration": 0.11688806250000994,
          "durationTicks": 22,
          "midi": 50,
          "name": "D3",
          "ticks": 16165,
          "time": 85.88616046874999,
          "velocity": 0.7559055118110236
        },
        {
          "duration": 0.24440231250001432,
          "durationTicks": 46,
          "midi": 48,
          "name": "C3",
          "ticks": 16213,
          "time": 86.14118896874999,
          "velocity": 0.7559055118110236
        },
        {
          "duration": 0.11688806250000994,
          "durationTicks": 22,
          "midi": 45,
          "name": "A2",
          "ticks": 16261,
          "time": 86.39621746875,
          "velocity": 0.7559055118110236
        },
        {
          "duration": 0.11688806250000994,
          "durationTicks": 22,
          "midi": 48,
          "name": "C3",
          "ticks": 16285,
          "time": 86.52373171874999,
          "velocity": 0.7559055118110236
        },
        {
          "duration": 0.11688806250000994,
          "durationTicks": 22,
          "midi": 50,
          "name": "D3",
          "ticks": 16309,
          "time": 86.65124596874999,
          "velocity": 0.7559055118110236
        },
        {
          "duration": 0.11688806250000994,
          "durationTicks": 22,
          "midi": 45,
          "name": "A2",
          "ticks": 16333,
          "time": 86.77876021875,
          "velocity": 0.7559055118110236
        },
        {
          "duration": 0.11688806250000994,
          "durationTicks": 22,
          "midi": 45,
          "name": "A2",
          "ticks": 16357,
          "time": 86.90627446875,
          "velocity": 0.7559055118110236
        },
        {
          "duration": 0.11688806250000994,
          "durationTicks": 22,
          "midi": 57,
          "name": "A3",
          "ticks": 16381,
          "time": 87.03378871874999,
          "velocity": 0.7559055118110236
        },
        {
          "duration": 0.11688806250000994,
          "durationTicks": 22,
          "midi": 52,
          "name": "E3",
          "ticks": 16429,
          "time": 87.28881721875,
          "velocity": 0.7559055118110236
        },
        {
          "duration": 0.11688806250000994,
          "durationTicks": 22,
          "midi": 51,
          "name": "D#3",
          "ticks": 16501,
          "time": 87.67135996875,
          "velocity": 0.7559055118110236
        },
        {
          "duration": 0.11688806250000994,
          "durationTicks": 22,
          "midi": 50,
          "name": "D3",
          "ticks": 16549,
          "time": 87.92638846874999,
          "velocity": 0.7559055118110236
        },
        {
          "duration": 0.24440231250001432,
          "durationTicks": 46,
          "midi": 48,
          "name": "C3",
          "ticks": 16597,
          "time": 88.18141696874999,
          "velocity": 0.7559055118110236
        },
        {
          "duration": 0.11688806250000994,
          "durationTicks": 22,
          "midi": 45,
          "name": "A2",
          "ticks": 16645,
          "time": 88.43644546875,
          "velocity": 0.7559055118110236
        },
        {
          "duration": 0.11688806250000994,
          "durationTicks": 22,
          "midi": 48,
          "name": "C3",
          "ticks": 16669,
          "time": 88.56395971875,
          "velocity": 0.7559055118110236
        },
        {
          "duration": 0.11688806250000994,
          "durationTicks": 22,
          "midi": 50,
          "name": "D3",
          "ticks": 16693,
          "time": 88.69147396874999,
          "velocity": 0.7559055118110236
        },
        {
          "duration": 0.11688806250000994,
          "durationTicks": 22,
          "midi": 45,
          "name": "A2",
          "ticks": 16717,
          "time": 88.81898821875,
          "velocity": 0.7559055118110236
        },
        {
          "duration": 0.11688806250000994,
          "durationTicks": 22,
          "midi": 45,
          "name": "A2",
          "ticks": 16741,
          "time": 88.94650246875,
          "velocity": 0.7559055118110236
        },
        {
          "duration": 0.11688806250000994,
          "durationTicks": 22,
          "midi": 57,
          "name": "A3",
          "ticks": 16765,
          "time": 89.07401671874999,
          "velocity": 0.7559055118110236
        },
        {
          "duration": 0.11688806250000994,
          "durationTicks": 22,
          "midi": 52,
          "name": "E3",
          "ticks": 16813,
          "time": 89.32904521875,
          "velocity": 0.7559055118110236
        },
        {
          "duration": 0.11688806250000994,
          "durationTicks": 22,
          "midi": 51,
          "name": "D#3",
          "ticks": 16885,
          "time": 89.71158796875,
          "velocity": 0.7559055118110236
        },
        {
          "duration": 0.11688806250000994,
          "durationTicks": 22,
          "midi": 50,
          "name": "D3",
          "ticks": 16933,
          "time": 89.96661646874999,
          "velocity": 0.7559055118110236
        },
        {
          "duration": 0.2444023125000001,
          "durationTicks": 46,
          "midi": 48,
          "name": "C3",
          "ticks": 16981,
          "time": 90.22164496875,
          "velocity": 0.7559055118110236
        },
        {
          "duration": 0.11688806250000994,
          "durationTicks": 22,
          "midi": 45,
          "name": "A2",
          "ticks": 17029,
          "time": 90.47667346875,
          "velocity": 0.7559055118110236
        },
        {
          "duration": 0.11688806250000994,
          "durationTicks": 22,
          "midi": 48,
          "name": "C3",
          "ticks": 17053,
          "time": 90.60418771875,
          "velocity": 0.7559055118110236
        },
        {
          "duration": 0.11688806250000994,
          "durationTicks": 22,
          "midi": 50,
          "name": "D3",
          "ticks": 17077,
          "time": 90.73170196874999,
          "velocity": 0.7559055118110236
        },
        {
          "duration": 0.11688806250000994,
          "durationTicks": 22,
          "midi": 45,
          "name": "A2",
          "ticks": 17101,
          "time": 90.85921621874999,
          "velocity": 0.7559055118110236
        },
        {
          "duration": 0.11688806250000994,
          "durationTicks": 22,
          "midi": 45,
          "name": "A2",
          "ticks": 17125,
          "time": 90.98673046875,
          "velocity": 0.7559055118110236
        },
        {
          "duration": 0.11688806250000994,
          "durationTicks": 22,
          "midi": 57,
          "name": "A3",
          "ticks": 17149,
          "time": 91.11424471874999,
          "velocity": 0.7559055118110236
        },
        {
          "duration": 0.11688806250000994,
          "durationTicks": 22,
          "midi": 52,
          "name": "E3",
          "ticks": 17197,
          "time": 91.36927321875,
          "velocity": 0.7559055118110236
        },
        {
          "duration": 0.11688806250000994,
          "durationTicks": 22,
          "midi": 51,
          "name": "D#3",
          "ticks": 17269,
          "time": 91.75181596875,
          "velocity": 0.7559055118110236
        },
        {
          "duration": 0.11688806250000994,
          "durationTicks": 22,
          "midi": 50,
          "name": "D3",
          "ticks": 17317,
          "time": 92.00684446874999,
          "velocity": 0.7559055118110236
        },
        {
          "duration": 0.2444023125000001,
          "durationTicks": 46,
          "midi": 48,
          "name": "C3",
          "ticks": 17365,
          "time": 92.26187296875,
          "velocity": 0.7559055118110236
        },
        {
          "duration": 0.11688806250000994,
          "durationTicks": 22,
          "midi": 45,
          "name": "A2",
          "ticks": 17413,
          "time": 92.51690146874999,
          "velocity": 0.7559055118110236
        },
        {
          "duration": 0.11688806250000994,
          "durationTicks": 22,
          "midi": 48,
          "name": "C3",
          "ticks": 17437,
          "time": 92.64441571875,
          "velocity": 0.7559055118110236
        },
        {
          "duration": 0.11688806250000994,
          "durationTicks": 22,
          "midi": 50,
          "name": "D3",
          "ticks": 17461,
          "time": 92.77192996874999,
          "velocity": 0.7559055118110236
        },
        {
          "duration": 0.11688806250000994,
          "durationTicks": 22,
          "midi": 45,
          "name": "A2",
          "ticks": 17485,
          "time": 92.89944421874999,
          "velocity": 0.7559055118110236
        },
        {
          "duration": 0.11688806250000994,
          "durationTicks": 22,
          "midi": 45,
          "name": "A2",
          "ticks": 17509,
          "time": 93.02695846875,
          "velocity": 0.7559055118110236
        },
        {
          "duration": 0.11688806250000994,
          "durationTicks": 22,
          "midi": 57,
          "name": "A3",
          "ticks": 17533,
          "time": 93.15447271874999,
          "velocity": 0.7559055118110236
        },
        {
          "duration": 0.11688806250000994,
          "durationTicks": 22,
          "midi": 52,
          "name": "E3",
          "ticks": 17581,
          "time": 93.40950121875,
          "velocity": 0.7559055118110236
        },
        {
          "duration": 0.11688806250000994,
          "durationTicks": 22,
          "midi": 51,
          "name": "D#3",
          "ticks": 17653,
          "time": 93.79204396875,
          "velocity": 0.7559055118110236
        },
        {
          "duration": 0.11688806250000994,
          "durationTicks": 22,
          "midi": 50,
          "name": "D3",
          "ticks": 17701,
          "time": 94.04707246874999,
          "velocity": 0.7559055118110236
        },
        {
          "duration": 0.2444023125000001,
          "durationTicks": 46,
          "midi": 48,
          "name": "C3",
          "ticks": 17749,
          "time": 94.30210096875,
          "velocity": 0.7559055118110236
        },
        {
          "duration": 0.11688806250000994,
          "durationTicks": 22,
          "midi": 45,
          "name": "A2",
          "ticks": 17797,
          "time": 94.55712946874999,
          "velocity": 0.7559055118110236
        },
        {
          "duration": 0.11688806250000994,
          "durationTicks": 22,
          "midi": 48,
          "name": "C3",
          "ticks": 17821,
          "time": 94.68464371875,
          "velocity": 0.7559055118110236
        },
        {
          "duration": 0.11688806250000994,
          "durationTicks": 22,
          "midi": 50,
          "name": "D3",
          "ticks": 17845,
          "time": 94.81215796874999,
          "velocity": 0.7559055118110236
        },
        {
          "duration": 0.11688806250000994,
          "durationTicks": 22,
          "midi": 45,
          "name": "A2",
          "ticks": 17869,
          "time": 94.93967221874999,
          "velocity": 0.7559055118110236
        },
        {
          "duration": 0.11688806250000994,
          "durationTicks": 22,
          "midi": 45,
          "name": "A2",
          "ticks": 17893,
          "time": 95.06718646875,
          "velocity": 0.7559055118110236
        },
        {
          "duration": 0.11688806250000994,
          "durationTicks": 22,
          "midi": 57,
          "name": "A3",
          "ticks": 17917,
          "time": 95.19470071874998,
          "velocity": 0.7559055118110236
        },
        {
          "duration": 0.11688806250000994,
          "durationTicks": 22,
          "midi": 52,
          "name": "E3",
          "ticks": 17965,
          "time": 95.44972921875,
          "velocity": 0.7559055118110236
        },
        {
          "duration": 0.11688806250000994,
          "durationTicks": 22,
          "midi": 51,
          "name": "D#3",
          "ticks": 18037,
          "time": 95.83227196874999,
          "velocity": 0.7559055118110236
        },
        {
          "duration": 0.11688806250000994,
          "durationTicks": 22,
          "midi": 50,
          "name": "D3",
          "ticks": 18085,
          "time": 96.08730046874999,
          "velocity": 0.7559055118110236
        },
        {
          "duration": 0.2444023125000001,
          "durationTicks": 46,
          "midi": 48,
          "name": "C3",
          "ticks": 18133,
          "time": 96.34232896875,
          "velocity": 0.7559055118110236
        },
        {
          "duration": 0.11688806250000994,
          "durationTicks": 22,
          "midi": 45,
          "name": "A2",
          "ticks": 18181,
          "time": 96.59735746874999,
          "velocity": 0.7559055118110236
        },
        {
          "duration": 0.11688806250000994,
          "durationTicks": 22,
          "midi": 48,
          "name": "C3",
          "ticks": 18205,
          "time": 96.72487171875,
          "velocity": 0.7559055118110236
        },
        {
          "duration": 0.11688806250000994,
          "durationTicks": 22,
          "midi": 50,
          "name": "D3",
          "ticks": 18229,
          "time": 96.85238596874999,
          "velocity": 0.7559055118110236
        },
        {
          "duration": 0.11688806250000994,
          "durationTicks": 22,
          "midi": 45,
          "name": "A2",
          "ticks": 18253,
          "time": 96.97990021874999,
          "velocity": 0.7559055118110236
        },
        {
          "duration": 0.11688806250000994,
          "durationTicks": 22,
          "midi": 45,
          "name": "A2",
          "ticks": 18277,
          "time": 97.10741446875,
          "velocity": 0.7559055118110236
        },
        {
          "duration": 0.11688806250000994,
          "durationTicks": 22,
          "midi": 57,
          "name": "A3",
          "ticks": 18301,
          "time": 97.23492871875,
          "velocity": 0.7559055118110236
        },
        {
          "duration": 0.11688806250000994,
          "durationTicks": 22,
          "midi": 52,
          "name": "E3",
          "ticks": 18349,
          "time": 97.48995721874999,
          "velocity": 0.7559055118110236
        },
        {
          "duration": 0.11688806250000994,
          "durationTicks": 22,
          "midi": 51,
          "name": "D#3",
          "ticks": 18421,
          "time": 97.87249996874999,
          "velocity": 0.7559055118110236
        },
        {
          "duration": 0.11688806250000994,
          "durationTicks": 22,
          "midi": 50,
          "name": "D3",
          "ticks": 18469,
          "time": 98.12752846874999,
          "velocity": 0.7559055118110236
        },
        {
          "duration": 0.2444023125000001,
          "durationTicks": 46,
          "midi": 48,
          "name": "C3",
          "ticks": 18517,
          "time": 98.38255696875,
          "velocity": 0.7559055118110236
        },
        {
          "duration": 0.11688806250000994,
          "durationTicks": 22,
          "midi": 45,
          "name": "A2",
          "ticks": 18565,
          "time": 98.63758546874999,
          "velocity": 0.7559055118110236
        },
        {
          "duration": 0.11688806250000994,
          "durationTicks": 22,
          "midi": 48,
          "name": "C3",
          "ticks": 18589,
          "time": 98.76509971875,
          "velocity": 0.7559055118110236
        },
        {
          "duration": 0.11688806250000994,
          "durationTicks": 22,
          "midi": 50,
          "name": "D3",
          "ticks": 18613,
          "time": 98.89261396875,
          "velocity": 0.7559055118110236
        },
        {
          "duration": 0.11688806250000994,
          "durationTicks": 22,
          "midi": 45,
          "name": "A2",
          "ticks": 18637,
          "time": 99.02012821874999,
          "velocity": 0.7559055118110236
        },
        {
          "duration": 0.11688806250000994,
          "durationTicks": 22,
          "midi": 45,
          "name": "A2",
          "ticks": 18661,
          "time": 99.14764246874999,
          "velocity": 0.7559055118110236
        },
        {
          "duration": 0.11688806250000994,
          "durationTicks": 22,
          "midi": 57,
          "name": "A3",
          "ticks": 18685,
          "time": 99.27515671875,
          "velocity": 0.7559055118110236
        },
        {
          "duration": 0.11688806250000994,
          "durationTicks": 22,
          "midi": 52,
          "name": "E3",
          "ticks": 18733,
          "time": 99.53018521874999,
          "velocity": 0.7559055118110236
        },
        {
          "duration": 0.11688806250000994,
          "durationTicks": 22,
          "midi": 51,
          "name": "D#3",
          "ticks": 18805,
          "time": 99.91272796874999,
          "velocity": 0.7559055118110236
        },
        {
          "duration": 0.11688806250000994,
          "durationTicks": 22,
          "midi": 50,
          "name": "D3",
          "ticks": 18853,
          "time": 100.16775646874999,
          "velocity": 0.7559055118110236
        },
        {
          "duration": 0.24440231250001432,
          "durationTicks": 46,
          "midi": 48,
          "name": "C3",
          "ticks": 18901,
          "time": 100.42278496875,
          "velocity": 0.7559055118110236
        },
        {
          "duration": 0.11688806250000994,
          "durationTicks": 22,
          "midi": 45,
          "name": "A2",
          "ticks": 18949,
          "time": 100.67781346874999,
          "velocity": 0.7559055118110236
        },
        {
          "duration": 0.11688806250000994,
          "durationTicks": 22,
          "midi": 48,
          "name": "C3",
          "ticks": 18973,
          "time": 100.80532771875,
          "velocity": 0.7559055118110236
        },
        {
          "duration": 0.11688806250000994,
          "durationTicks": 22,
          "midi": 50,
          "name": "D3",
          "ticks": 18997,
          "time": 100.93284196875,
          "velocity": 0.7559055118110236
        },
        {
          "duration": 0.11688806250000994,
          "durationTicks": 22,
          "midi": 45,
          "name": "A2",
          "ticks": 19021,
          "time": 101.06035621874999,
          "velocity": 0.7559055118110236
        },
        {
          "duration": 0.11688806250000994,
          "durationTicks": 22,
          "midi": 45,
          "name": "A2",
          "ticks": 19045,
          "time": 101.18787046874999,
          "velocity": 0.7559055118110236
        },
        {
          "duration": 0.11688806250000994,
          "durationTicks": 22,
          "midi": 57,
          "name": "A3",
          "ticks": 19069,
          "time": 101.31538471875,
          "velocity": 0.7559055118110236
        },
        {
          "duration": 0.11688806250000994,
          "durationTicks": 22,
          "midi": 52,
          "name": "E3",
          "ticks": 19117,
          "time": 101.57041321874999,
          "velocity": 0.7559055118110236
        },
        {
          "duration": 0.11688806250000994,
          "durationTicks": 22,
          "midi": 51,
          "name": "D#3",
          "ticks": 19189,
          "time": 101.95295596874999,
          "velocity": 0.7559055118110236
        },
        {
          "duration": 0.11688806249999573,
          "durationTicks": 22,
          "midi": 50,
          "name": "D3",
          "ticks": 19237,
          "time": 102.20798446875,
          "velocity": 0.7559055118110236
        },
        {
          "duration": 0.24440231250001432,
          "durationTicks": 46,
          "midi": 48,
          "name": "C3",
          "ticks": 19285,
          "time": 102.46301296875,
          "velocity": 0.7559055118110236
        },
        {
          "duration": 0.11688806250000994,
          "durationTicks": 22,
          "midi": 45,
          "name": "A2",
          "ticks": 19333,
          "time": 102.71804146874999,
          "velocity": 0.7559055118110236
        },
        {
          "duration": 0.11688806250000994,
          "durationTicks": 22,
          "midi": 48,
          "name": "C3",
          "ticks": 19357,
          "time": 102.84555571874999,
          "velocity": 0.7559055118110236
        },
        {
          "duration": 0.11688806250000994,
          "durationTicks": 22,
          "midi": 50,
          "name": "D3",
          "ticks": 19381,
          "time": 102.97306996875,
          "velocity": 0.7559055118110236
        },
        {
          "duration": 0.11688806250000994,
          "durationTicks": 22,
          "midi": 45,
          "name": "A2",
          "ticks": 19405,
          "time": 103.10058421874999,
          "velocity": 0.7559055118110236
        },
        {
          "duration": 0.11688806250000994,
          "durationTicks": 22,
          "midi": 45,
          "name": "A2",
          "ticks": 19429,
          "time": 103.22809846874999,
          "velocity": 0.7559055118110236
        },
        {
          "duration": 0.11688806250000994,
          "durationTicks": 22,
          "midi": 57,
          "name": "A3",
          "ticks": 19453,
          "time": 103.35561271875,
          "velocity": 0.7559055118110236
        },
        {
          "duration": 0.11688806250000994,
          "durationTicks": 22,
          "midi": 52,
          "name": "E3",
          "ticks": 19501,
          "time": 103.61064121874999,
          "velocity": 0.7559055118110236
        },
        {
          "duration": 0.11688806250000994,
          "durationTicks": 22,
          "midi": 51,
          "name": "D#3",
          "ticks": 19573,
          "time": 103.99318396874999,
          "velocity": 0.7559055118110236
        },
        {
          "duration": 0.11688806250000994,
          "durationTicks": 22,
          "midi": 50,
          "name": "D3",
          "ticks": 19621,
          "time": 104.24821246875,
          "velocity": 0.7559055118110236
        },
        {
          "duration": 0.24440231250001432,
          "durationTicks": 46,
          "midi": 48,
          "name": "C3",
          "ticks": 19669,
          "time": 104.50324096874999,
          "velocity": 0.7559055118110236
        },
        {
          "duration": 0.11688806250000994,
          "durationTicks": 22,
          "midi": 45,
          "name": "A2",
          "ticks": 19717,
          "time": 104.75826946874999,
          "velocity": 0.7559055118110236
        },
        {
          "duration": 0.11688806250000994,
          "durationTicks": 22,
          "midi": 48,
          "name": "C3",
          "ticks": 19741,
          "time": 104.88578371874999,
          "velocity": 0.7559055118110236
        },
        {
          "duration": 0.11688806250000994,
          "durationTicks": 22,
          "midi": 50,
          "name": "D3",
          "ticks": 19765,
          "time": 105.01329796875,
          "velocity": 0.7559055118110236
        },
        {
          "duration": 0.11688806250000994,
          "durationTicks": 22,
          "midi": 45,
          "name": "A2",
          "ticks": 19789,
          "time": 105.14081221874999,
          "velocity": 0.7244094488188977
        },
        {
          "duration": 0.11688806250000994,
          "durationTicks": 22,
          "midi": 45,
          "name": "A2",
          "ticks": 19813,
          "time": 105.26832646874999,
          "velocity": 0.6929133858267716
        },
        {
          "duration": 0.11688806250000994,
          "durationTicks": 22,
          "midi": 57,
          "name": "A3",
          "ticks": 19837,
          "time": 105.39584071875,
          "velocity": 0.6614173228346457
        },
        {
          "duration": 0.11688806250000994,
          "durationTicks": 22,
          "midi": 52,
          "name": "E3",
          "ticks": 19885,
          "time": 105.65086921874999,
          "velocity": 0.6299212598425197
        },
        {
          "duration": 0.11688806250000994,
          "durationTicks": 22,
          "midi": 51,
          "name": "D#3",
          "ticks": 19957,
          "time": 106.03341196874999,
          "velocity": 0.5669291338582677
        },
        {
          "duration": 0.11688806250000994,
          "durationTicks": 22,
          "midi": 50,
          "name": "D3",
          "ticks": 20005,
          "time": 106.28844046875,
          "velocity": 0.5354330708661418
        },
        {
          "duration": 0.24440231250001432,
          "durationTicks": 46,
          "midi": 48,
          "name": "C3",
          "ticks": 20053,
          "time": 106.54346896874999,
          "velocity": 0.5039370078740157
        },
        {
          "duration": 0.11688806250000994,
          "durationTicks": 22,
          "midi": 45,
          "name": "A2",
          "ticks": 20101,
          "time": 106.79849746874999,
          "velocity": 0.4409448818897638
        },
        {
          "duration": 0.11688806250000994,
          "durationTicks": 22,
          "midi": 48,
          "name": "C3",
          "ticks": 20125,
          "time": 106.92601171874999,
          "velocity": 0.4094488188976378
        },
        {
          "duration": 0.11688806250000994,
          "durationTicks": 22,
          "midi": 50,
          "name": "D3",
          "ticks": 20149,
          "time": 107.05352596875,
          "velocity": 0.3779527559055118
        },
        {
          "duration": 0.11688806250000994,
          "durationTicks": 22,
          "midi": 41,
          "name": "F2",
          "ticks": 20173,
          "time": 107.18104021874998,
          "velocity": 0.7559055118110236
        },
        {
          "duration": 0.11688806250000994,
          "durationTicks": 22,
          "midi": 41,
          "name": "F2",
          "ticks": 20197,
          "time": 107.30855446874999,
          "velocity": 0.7559055118110236
        },
        {
          "duration": 0.11688806250000994,
          "durationTicks": 22,
          "midi": 57,
          "name": "A3",
          "ticks": 20221,
          "time": 107.43606871875,
          "velocity": 0.7559055118110236
        },
        {
          "duration": 0.11688806250000994,
          "durationTicks": 22,
          "midi": 52,
          "name": "E3",
          "ticks": 20269,
          "time": 107.69109721874999,
          "velocity": 0.7559055118110236
        },
        {
          "duration": 0.11688806250000994,
          "durationTicks": 22,
          "midi": 51,
          "name": "D#3",
          "ticks": 20341,
          "time": 108.07363996874999,
          "velocity": 0.7559055118110236
        },
        {
          "duration": 0.11688806250000994,
          "durationTicks": 22,
          "midi": 50,
          "name": "D3",
          "ticks": 20389,
          "time": 108.32866846875,
          "velocity": 0.7559055118110236
        },
        {
          "duration": 0.24440231250001432,
          "durationTicks": 46,
          "midi": 48,
          "name": "C3",
          "ticks": 20437,
          "time": 108.58369696874999,
          "velocity": 0.7559055118110236
        },
        {
          "duration": 0.11688806250000994,
          "durationTicks": 22,
          "midi": 45,
          "name": "A2",
          "ticks": 20485,
          "time": 108.83872546874998,
          "velocity": 0.7559055118110236
        },
        {
          "duration": 0.11688806250000994,
          "durationTicks": 22,
          "midi": 48,
          "name": "C3",
          "ticks": 20509,
          "time": 108.96623971874999,
          "velocity": 0.7559055118110236
        },
        {
          "duration": 0.11688806250000994,
          "durationTicks": 22,
          "midi": 50,
          "name": "D3",
          "ticks": 20533,
          "time": 109.09375396875,
          "velocity": 0.7559055118110236
        },
        {
          "duration": 0.11688806250000994,
          "durationTicks": 22,
          "midi": 43,
          "name": "G2",
          "ticks": 20557,
          "time": 109.22126821875,
          "velocity": 0.7559055118110236
        },
        {
          "duration": 0.11688806250000994,
          "durationTicks": 22,
          "midi": 43,
          "name": "G2",
          "ticks": 20581,
          "time": 109.34878246874999,
          "velocity": 0.7559055118110236
        },
        {
          "duration": 0.11688806250000994,
          "durationTicks": 22,
          "midi": 57,
          "name": "A3",
          "ticks": 20605,
          "time": 109.47629671874999,
          "velocity": 0.7559055118110236
        },
        {
          "duration": 0.11688806250000994,
          "durationTicks": 22,
          "midi": 52,
          "name": "E3",
          "ticks": 20653,
          "time": 109.73132521874999,
          "velocity": 0.7559055118110236
        },
        {
          "duration": 0.11688806250000994,
          "durationTicks": 22,
          "midi": 51,
          "name": "D#3",
          "ticks": 20725,
          "time": 110.11386796874999,
          "velocity": 0.7559055118110236
        },
        {
          "duration": 0.11688806250000994,
          "durationTicks": 22,
          "midi": 50,
          "name": "D3",
          "ticks": 20773,
          "time": 110.36889646875,
          "velocity": 0.7559055118110236
        },
        {
          "duration": 0.24440231250001432,
          "durationTicks": 46,
          "midi": 48,
          "name": "C3",
          "ticks": 20821,
          "time": 110.62392496874999,
          "velocity": 0.7559055118110236
        },
        {
          "duration": 0.11688806250000994,
          "durationTicks": 22,
          "midi": 45,
          "name": "A2",
          "ticks": 20869,
          "time": 110.87895346875,
          "velocity": 0.7559055118110236
        },
        {
          "duration": 0.11688806250000994,
          "durationTicks": 22,
          "midi": 48,
          "name": "C3",
          "ticks": 20893,
          "time": 111.00646771874999,
          "velocity": 0.7559055118110236
        },
        {
          "duration": 0.11688806250000994,
          "durationTicks": 22,
          "midi": 50,
          "name": "D3",
          "ticks": 20917,
          "time": 111.13398196874999,
          "velocity": 0.7559055118110236
        }
      ]
    },
    {
      "channel": 0,
      "controlChanges": {
        "6": [
          {
            "number": 6,
            "ticks": 0,
            "time": 0,
            "value": 0.09448818897637795
          }
        ],
        "7": [
          {
            "number": 7,
            "ticks": 0,
            "time": 0,
            "value": 0.5039370078740157
          },
          {
            "number": 7,
            "ticks": 0,
            "time": 0,
            "value": 0.5039370078740157
          }
        ],
        "10": [
          {
            "number": 10,
            "ticks": 0,
            "time": 0,
            "value": 0.44881889763779526
          },
          {
            "number": 10,
            "ticks": 0,
            "time": 0,
            "value": 0.44881889763779526
          }
        ],
        "100": [
          {
            "number": 100,
            "ticks": 0,
            "time": 0,
            "value": 0
          }
        ],
        "101": [
          {
            "number": 101,
            "ticks": 0,
            "time": 0,
            "value": 0
          }
        ]
      },
      "pitchBends": [
        {
          "ticks": 0,
          "time": 0,
          "value": 0
        },
        {
          "ticks": 0,
          "time": 0,
          "value": 0
        }
      ],
      "instrument": {
        "family": "piano",
        "number": 0,
        "name": "acoustic grand piano"
      },
      "name": "bass",
      "notes": [],
      "endOfTrackTicks": 21120
    },
    {
      "channel": 7,
      "controlChanges": {
        "6": [
          {
            "number": 6,
            "ticks": 0,
            "time": 0,
            "value": 0.09448818897637795
          },
          {
            "number": 6,
            "ticks": 21120,
            "time": 112.21253999999999,
            "value": 0.09448818897637795
          },
          {
            "number": 6,
            "ticks": 21120,
            "time": 112.21253999999999,
            "value": 0.09448818897637795
          },
          {
            "number": 6,
            "ticks": 21120,
            "time": 112.21253999999999,
            "value": 0.09448818897637795
          }
        ],
        "7": [
          {
            "number": 7,
            "ticks": 0,
            "time": 0,
            "value": 0.5039370078740157
          },
          {
            "number": 7,
            "ticks": 0,
            "time": 0,
            "value": 0.5039370078740157
          },
          {
            "number": 7,
            "ticks": 0,
            "time": 0,
            "value": 0.5039370078740157
          },
          {
            "number": 7,
            "ticks": 21120,
            "time": 112.21253999999999,
            "value": 0.5039370078740157
          },
          {
            "number": 7,
            "ticks": 21120,
            "time": 112.21253999999999,
            "value": 0.5039370078740157
          },
          {
            "number": 7,
            "ticks": 21120,
            "time": 112.21253999999999,
            "value": 0.5039370078740157
          }
        ],
        "10": [
          {
            "number": 10,
            "ticks": 0,
            "time": 0,
            "value": 0.44881889763779526
          },
          {
            "number": 10,
            "ticks": 0,
            "time": 0,
            "value": 0.44881889763779526
          },
          {
            "number": 10,
            "ticks": 0,
            "time": 0,
            "value": 0.44881889763779526
          },
          {
            "number": 10,
            "ticks": 21120,
            "time": 112.21253999999999,
            "value": 0.44881889763779526
          },
          {
            "number": 10,
            "ticks": 21120,
            "time": 112.21253999999999,
            "value": 0.44881889763779526
          },
          {
            "number": 10,
            "ticks": 21120,
            "time": 112.21253999999999,
            "value": 0.44881889763779526
          }
        ],
        "100": [
          {
            "number": 100,
            "ticks": 0,
            "time": 0,
            "value": 0
          },
          {
            "number": 100,
            "ticks": 21120,
            "time": 112.21253999999999,
            "value": 0
          },
          {
            "number": 100,
            "ticks": 21120,
            "time": 112.21253999999999,
            "value": 0
          },
          {
            "number": 100,
            "ticks": 21120,
            "time": 112.21253999999999,
            "value": 0
          }
        ],
        "101": [
          {
            "number": 101,
            "ticks": 0,
            "time": 0,
            "value": 0
          },
          {
            "number": 101,
            "ticks": 21120,
            "time": 112.21253999999999,
            "value": 0
          },
          {
            "number": 101,
            "ticks": 21120,
            "time": 112.21253999999999,
            "value": 0
          },
          {
            "number": 101,
            "ticks": 21120,
            "time": 112.21253999999999,
            "value": 0
          }
        ]
      },
      "pitchBends": [
        {
          "ticks": 0,
          "time": 0,
          "value": 0
        },
        {
          "ticks": 0,
          "time": 0,
          "value": 0
        },
        {
          "ticks": 0,
          "time": 0,
          "value": 0
        },
        {
          "ticks": 21120,
          "time": 112.21253999999999,
          "value": 0
        },
        {
          "ticks": 21120,
          "time": 112.21253999999999,
          "value": 0
        },
        {
          "ticks": 21120,
          "time": 112.21253999999999,
          "value": 0
        }
      ],
      "instrument": {
        "family": "synth lead",
        "number": 80,
        "name": "lead 1 (square)"
      },
      "name": "",
      "notes": [
        {
          "duration": 0.10626187500000128,
          "durationTicks": 20,
          "midi": 45,
          "name": "A2",
          "ticks": 4800,
          "time": 25.50285,
          "velocity": 0.952755905511811
        },
        {
          "duration": 0.10626187500000128,
          "durationTicks": 20,
          "midi": 45,
          "name": "A2",
          "ticks": 4848,
          "time": 25.7578785,
          "velocity": 0.952755905511811
        },
        {
          "duration": 0.10626187500000128,
          "durationTicks": 20,
          "midi": 45,
          "name": "A2",
          "ticks": 4896,
          "time": 26.012907,
          "velocity": 0.952755905511811
        },
        {
          "duration": 0.10626187500000128,
          "durationTicks": 20,
          "midi": 45,
          "name": "A2",
          "ticks": 4920,
          "time": 26.14042125,
          "velocity": 0.952755905511811
        },
        {
          "duration": 0.10626187500000128,
          "durationTicks": 20,
          "midi": 45,
          "name": "A2",
          "ticks": 4968,
          "time": 26.395449749999997,
          "velocity": 0.952755905511811
        },
        {
          "duration": 0.10626187500000128,
          "durationTicks": 20,
          "midi": 45,
          "name": "A2",
          "ticks": 5016,
          "time": 26.65047825,
          "velocity": 0.952755905511811
        },
        {
          "duration": 0.10626187500000128,
          "durationTicks": 20,
          "midi": 45,
          "name": "A2",
          "ticks": 5064,
          "time": 26.90550675,
          "velocity": 0.952755905511811
        },
        {
          "duration": 0.10626187500000128,
          "durationTicks": 20,
          "midi": 45,
          "name": "A2",
          "ticks": 5112,
          "time": 27.16053525,
          "velocity": 0.952755905511811
        },
        {
          "duration": 0.10626187500000128,
          "durationTicks": 20,
          "midi": 45,
          "name": "A2",
          "ticks": 5136,
          "time": 27.2880495,
          "velocity": 0.952755905511811
        },
        {
          "duration": 0.10626187500000128,
          "durationTicks": 20,
          "midi": 43,
          "name": "G2",
          "ticks": 5184,
          "time": 27.543077999999998,
          "velocity": 0.952755905511811
        },
        {
          "duration": 0.10626187500000128,
          "durationTicks": 20,
          "midi": 43,
          "name": "G2",
          "ticks": 5232,
          "time": 27.7981065,
          "velocity": 0.952755905511811
        },
        {
          "duration": 0.10626187500000128,
          "durationTicks": 20,
          "midi": 43,
          "name": "G2",
          "ticks": 5280,
          "time": 28.053134999999997,
          "velocity": 0.952755905511811
        },
        {
          "duration": 0.10626187500000128,
          "durationTicks": 20,
          "midi": 43,
          "name": "G2",
          "ticks": 5304,
          "time": 28.18064925,
          "velocity": 0.952755905511811
        },
        {
          "duration": 0.10626187500000128,
          "durationTicks": 20,
          "midi": 43,
          "name": "G2",
          "ticks": 5352,
          "time": 28.43567775,
          "velocity": 0.952755905511811
        },
        {
          "duration": 0.10626187500000128,
          "durationTicks": 20,
          "midi": 43,
          "name": "G2",
          "ticks": 5400,
          "time": 28.690706249999998,
          "velocity": 0.952755905511811
        },
        {
          "duration": 0.10626187500000128,
          "durationTicks": 20,
          "midi": 43,
          "name": "G2",
          "ticks": 5448,
          "time": 28.94573475,
          "velocity": 0.952755905511811
        },
        {
          "duration": 0.10626187500000128,
          "durationTicks": 20,
          "midi": 43,
          "name": "G2",
          "ticks": 5496,
          "time": 29.200763249999998,
          "velocity": 0.952755905511811
        },
        {
          "duration": 0.10626187500000128,
          "durationTicks": 20,
          "midi": 43,
          "name": "G2",
          "ticks": 5520,
          "time": 29.3282775,
          "velocity": 0.952755905511811
        },
        {
          "duration": 0.10626187500000128,
          "durationTicks": 20,
          "midi": 42,
          "name": "F#2",
          "ticks": 5568,
          "time": 29.583306,
          "velocity": 0.952755905511811
        },
        {
          "duration": 0.10626187500000128,
          "durationTicks": 20,
          "midi": 42,
          "name": "F#2",
          "ticks": 5616,
          "time": 29.8383345,
          "velocity": 0.952755905511811
        },
        {
          "duration": 0.10626187500000128,
          "durationTicks": 20,
          "midi": 42,
          "name": "F#2",
          "ticks": 5664,
          "time": 30.093363,
          "velocity": 0.952755905511811
        },
        {
          "duration": 0.10626187500000128,
          "durationTicks": 20,
          "midi": 42,
          "name": "F#2",
          "ticks": 5688,
          "time": 30.220877249999997,
          "velocity": 0.952755905511811
        },
        {
          "duration": 0.10626187500000128,
          "durationTicks": 20,
          "midi": 42,
          "name": "F#2",
          "ticks": 5736,
          "time": 30.47590575,
          "velocity": 0.952755905511811
        },
        {
          "duration": 0.10626187499999773,
          "durationTicks": 20,
          "midi": 42,
          "name": "F#2",
          "ticks": 5784,
          "time": 30.73093425,
          "velocity": 0.952755905511811
        },
        {
          "duration": 0.10626187500000128,
          "durationTicks": 20,
          "midi": 42,
          "name": "F#2",
          "ticks": 5832,
          "time": 30.98596275,
          "velocity": 0.952755905511811
        },
        {
          "duration": 0.10626187500000128,
          "durationTicks": 20,
          "midi": 42,
          "name": "F#2",
          "ticks": 5880,
          "time": 31.24099125,
          "velocity": 0.952755905511811
        },
        {
          "duration": 0.10626187500000128,
          "durationTicks": 20,
          "midi": 42,
          "name": "F#2",
          "ticks": 5904,
          "time": 31.368505499999998,
          "velocity": 0.952755905511811
        },
        {
          "duration": 0.10626187500000128,
          "durationTicks": 20,
          "midi": 41,
          "name": "F2",
          "ticks": 5952,
          "time": 31.623534,
          "velocity": 0.952755905511811
        },
        {
          "duration": 0.10626187500000128,
          "durationTicks": 20,
          "midi": 41,
          "name": "F2",
          "ticks": 6000,
          "time": 31.878562499999997,
          "velocity": 0.952755905511811
        },
        {
          "duration": 0.10626187500000128,
          "durationTicks": 20,
          "midi": 41,
          "name": "F2",
          "ticks": 6048,
          "time": 32.133590999999996,
          "velocity": 0.952755905511811
        },
        {
          "duration": 0.10626187500000128,
          "durationTicks": 20,
          "midi": 41,
          "name": "F2",
          "ticks": 6072,
          "time": 32.26110525,
          "velocity": 0.952755905511811
        },
        {
          "duration": 0.10626187500000128,
          "durationTicks": 20,
          "midi": 41,
          "name": "F2",
          "ticks": 6120,
          "time": 32.51613375,
          "velocity": 0.952755905511811
        },
        {
          "duration": 0.10626187500000128,
          "durationTicks": 20,
          "midi": 43,
          "name": "G2",
          "ticks": 6168,
          "time": 32.771162249999996,
          "velocity": 0.952755905511811
        },
        {
          "duration": 0.10626187500000128,
          "durationTicks": 20,
          "midi": 43,
          "name": "G2",
          "ticks": 6216,
          "time": 33.02619075,
          "velocity": 0.952755905511811
        },
        {
          "duration": 0.10626187499999418,
          "durationTicks": 20,
          "midi": 43,
          "name": "G2",
          "ticks": 6264,
          "time": 33.28121925,
          "velocity": 0.952755905511811
        },
        {
          "duration": 0.10626187500000128,
          "durationTicks": 20,
          "midi": 43,
          "name": "G2",
          "ticks": 6288,
          "time": 33.4087335,
          "velocity": 0.952755905511811
        },
        {
          "duration": 0.10626187500000128,
          "durationTicks": 20,
          "midi": 45,
          "name": "A2",
          "ticks": 6336,
          "time": 33.663762,
          "velocity": 0.952755905511811
        },
        {
          "duration": 0.10626187499999418,
          "durationTicks": 20,
          "midi": 45,
          "name": "A2",
          "ticks": 6384,
          "time": 33.9187905,
          "velocity": 0.952755905511811
        },
        {
          "duration": 0.10626187499999418,
          "durationTicks": 20,
          "midi": 45,
          "name": "A2",
          "ticks": 6432,
          "time": 34.173819,
          "velocity": 0.952755905511811
        },
        {
          "duration": 0.10626187499999418,
          "durationTicks": 20,
          "midi": 45,
          "name": "A2",
          "ticks": 6456,
          "time": 34.30133325,
          "velocity": 0.952755905511811
        },
        {
          "duration": 0.10626187499999418,
          "durationTicks": 20,
          "midi": 45,
          "name": "A2",
          "ticks": 6504,
          "time": 34.55636175,
          "velocity": 0.952755905511811
        },
        {
          "duration": 0.10626187499999418,
          "durationTicks": 20,
          "midi": 45,
          "name": "A2",
          "ticks": 6552,
          "time": 34.81139025,
          "velocity": 0.952755905511811
        },
        {
          "duration": 0.10626187500000128,
          "durationTicks": 20,
          "midi": 45,
          "name": "A2",
          "ticks": 6600,
          "time": 35.06641875,
          "velocity": 0.952755905511811
        },
        {
          "duration": 0.10626187500000128,
          "durationTicks": 20,
          "midi": 45,
          "name": "A2",
          "ticks": 6648,
          "time": 35.32144725,
          "velocity": 0.952755905511811
        },
        {
          "duration": 0.10626187500000128,
          "durationTicks": 20,
          "midi": 45,
          "name": "A2",
          "ticks": 6672,
          "time": 35.448961499999996,
          "velocity": 0.952755905511811
        },
        {
          "duration": 0.10626187500000128,
          "durationTicks": 20,
          "midi": 43,
          "name": "G2",
          "ticks": 6720,
          "time": 35.70399,
          "velocity": 0.952755905511811
        },
        {
          "duration": 0.10626187499999418,
          "durationTicks": 20,
          "midi": 43,
          "name": "G2",
          "ticks": 6768,
          "time": 35.9590185,
          "velocity": 0.952755905511811
        },
        {
          "duration": 0.10626187499999418,
          "durationTicks": 20,
          "midi": 43,
          "name": "G2",
          "ticks": 6816,
          "time": 36.214047,
          "velocity": 0.952755905511811
        },
        {
          "duration": 0.10626187500000128,
          "durationTicks": 20,
          "midi": 43,
          "name": "G2",
          "ticks": 6840,
          "time": 36.34156125,
          "velocity": 0.952755905511811
        },
        {
          "duration": 0.10626187499999418,
          "durationTicks": 20,
          "midi": 43,
          "name": "G2",
          "ticks": 6888,
          "time": 36.59658975,
          "velocity": 0.952755905511811
        },
        {
          "duration": 0.10626187499999418,
          "durationTicks": 20,
          "midi": 43,
          "name": "G2",
          "ticks": 6936,
          "time": 36.85161825,
          "velocity": 0.952755905511811
        },
        {
          "duration": 0.10626187500000128,
          "durationTicks": 20,
          "midi": 43,
          "name": "G2",
          "ticks": 6984,
          "time": 37.106646749999996,
          "velocity": 0.952755905511811
        },
        {
          "duration": 0.10626187500000128,
          "durationTicks": 20,
          "midi": 43,
          "name": "G2",
          "ticks": 7032,
          "time": 37.36167525,
          "velocity": 0.952755905511811
        },
        {
          "duration": 0.10626187499999418,
          "durationTicks": 20,
          "midi": 43,
          "name": "G2",
          "ticks": 7056,
          "time": 37.4891895,
          "velocity": 0.952755905511811
        },
        {
          "duration": 0.10626187500000128,
          "durationTicks": 20,
          "midi": 42,
          "name": "F#2",
          "ticks": 7104,
          "time": 37.744218,
          "velocity": 0.952755905511811
        },
        {
          "duration": 0.10626187500000128,
          "durationTicks": 20,
          "midi": 42,
          "name": "F#2",
          "ticks": 7152,
          "time": 37.9992465,
          "velocity": 0.952755905511811
        },
        {
          "duration": 0.10626187499999418,
          "durationTicks": 20,
          "midi": 42,
          "name": "F#2",
          "ticks": 7200,
          "time": 38.254275,
          "velocity": 0.952755905511811
        },
        {
          "duration": 0.10626187500000128,
          "durationTicks": 20,
          "midi": 42,
          "name": "F#2",
          "ticks": 7224,
          "time": 38.38178925,
          "velocity": 0.952755905511811
        },
        {
          "duration": 0.10626187499999418,
          "durationTicks": 20,
          "midi": 42,
          "name": "F#2",
          "ticks": 7272,
          "time": 38.63681775,
          "velocity": 0.952755905511811
        },
        {
          "duration": 0.10626187499999418,
          "durationTicks": 20,
          "midi": 42,
          "name": "F#2",
          "ticks": 7320,
          "time": 38.89184625,
          "velocity": 0.952755905511811
        },
        {
          "duration": 0.10626187499999418,
          "durationTicks": 20,
          "midi": 42,
          "name": "F#2",
          "ticks": 7368,
          "time": 39.14687475,
          "velocity": 0.952755905511811
        },
        {
          "duration": 0.10626187500000128,
          "durationTicks": 20,
          "midi": 42,
          "name": "F#2",
          "ticks": 7416,
          "time": 39.40190325,
          "velocity": 0.952755905511811
        },
        {
          "duration": 0.10626187499999418,
          "durationTicks": 20,
          "midi": 42,
          "name": "F#2",
          "ticks": 7440,
          "time": 39.5294175,
          "velocity": 0.952755905511811
        },
        {
          "duration": 0.10626187500000128,
          "durationTicks": 20,
          "midi": 41,
          "name": "F2",
          "ticks": 7488,
          "time": 39.784445999999996,
          "velocity": 0.952755905511811
        },
        {
          "duration": 0.10626187500000128,
          "durationTicks": 20,
          "midi": 41,
          "name": "F2",
          "ticks": 7536,
          "time": 40.0394745,
          "velocity": 0.952755905511811
        },
        {
          "duration": 0.10626187499999418,
          "durationTicks": 20,
          "midi": 41,
          "name": "F2",
          "ticks": 7584,
          "time": 40.294503,
          "velocity": 0.952755905511811
        },
        {
          "duration": 0.10626187500000128,
          "durationTicks": 20,
          "midi": 41,
          "name": "F2",
          "ticks": 7608,
          "time": 40.422017249999996,
          "velocity": 0.952755905511811
        },
        {
          "duration": 0.10626187500000128,
          "durationTicks": 20,
          "midi": 41,
          "name": "F2",
          "ticks": 7656,
          "time": 40.67704575,
          "velocity": 0.952755905511811
        },
        {
          "duration": 0.10626187499999418,
          "durationTicks": 20,
          "midi": 43,
          "name": "G2",
          "ticks": 7704,
          "time": 40.93207425,
          "velocity": 0.952755905511811
        },
        {
          "duration": 0.10626187499999418,
          "durationTicks": 20,
          "midi": 43,
          "name": "G2",
          "ticks": 7752,
          "time": 41.18710275,
          "velocity": 0.952755905511811
        },
        {
          "duration": 0.10626187500000128,
          "durationTicks": 20,
          "midi": 43,
          "name": "G2",
          "ticks": 7800,
          "time": 41.442131249999996,
          "velocity": 0.952755905511811
        },
        {
          "duration": 0.10626187499999418,
          "durationTicks": 20,
          "midi": 43,
          "name": "G2",
          "ticks": 7824,
          "time": 41.5696455,
          "velocity": 0.952755905511811
        },
        {
          "duration": 0.10626187499999418,
          "durationTicks": 20,
          "midi": 45,
          "name": "A2",
          "ticks": 7872,
          "time": 41.824674,
          "velocity": 0.952755905511811
        },
        {
          "duration": 0.10626187500000128,
          "durationTicks": 20,
          "midi": 45,
          "name": "A2",
          "ticks": 7920,
          "time": 42.079702499999996,
          "velocity": 0.952755905511811
        },
        {
          "duration": 0.10626187500000128,
          "durationTicks": 20,
          "midi": 45,
          "name": "A2",
          "ticks": 7968,
          "time": 42.334731,
          "velocity": 0.952755905511811
        },
        {
          "duration": 0.10626187500000128,
          "durationTicks": 20,
          "midi": 45,
          "name": "A2",
          "ticks": 7992,
          "time": 42.462245249999995,
          "velocity": 0.952755905511811
        },
        {
          "duration": 0.10626187500000128,
          "durationTicks": 20,
          "midi": 45,
          "name": "A2",
          "ticks": 8040,
          "time": 42.71727375,
          "velocity": 0.952755905511811
        },
        {
          "duration": 0.10626187499999418,
          "durationTicks": 20,
          "midi": 45,
          "name": "A2",
          "ticks": 8088,
          "time": 42.97230225,
          "velocity": 0.952755905511811
        },
        {
          "duration": 0.10626187499999418,
          "durationTicks": 20,
          "midi": 45,
          "name": "A2",
          "ticks": 8136,
          "time": 43.22733075,
          "velocity": 0.952755905511811
        },
        {
          "duration": 0.10626187499999418,
          "durationTicks": 20,
          "midi": 45,
          "name": "A2",
          "ticks": 8184,
          "time": 43.48235925,
          "velocity": 0.952755905511811
        },
        {
          "duration": 0.10626187499999418,
          "durationTicks": 20,
          "midi": 45,
          "name": "A2",
          "ticks": 8208,
          "time": 43.6098735,
          "velocity": 0.952755905511811
        },
        {
          "duration": 0.10626187499999418,
          "durationTicks": 20,
          "midi": 43,
          "name": "G2",
          "ticks": 8256,
          "time": 43.864902,
          "velocity": 0.952755905511811
        },
        {
          "duration": 0.10626187500000128,
          "durationTicks": 20,
          "midi": 43,
          "name": "G2",
          "ticks": 8304,
          "time": 44.119930499999995,
          "velocity": 0.952755905511811
        },
        {
          "duration": 0.10626187500000128,
          "durationTicks": 20,
          "midi": 43,
          "name": "G2",
          "ticks": 8352,
          "time": 44.374959,
          "velocity": 0.952755905511811
        },
        {
          "duration": 0.10626187499999418,
          "durationTicks": 20,
          "midi": 43,
          "name": "G2",
          "ticks": 8376,
          "time": 44.50247325,
          "velocity": 0.952755905511811
        },
        {
          "duration": 0.10626187500000128,
          "durationTicks": 20,
          "midi": 43,
          "name": "G2",
          "ticks": 8424,
          "time": 44.757501749999996,
          "velocity": 0.952755905511811
        },
        {
          "duration": 0.10626187500000128,
          "durationTicks": 20,
          "midi": 43,
          "name": "G2",
          "ticks": 8472,
          "time": 45.01253025,
          "velocity": 0.952755905511811
        },
        {
          "duration": 0.10626187499999418,
          "durationTicks": 20,
          "midi": 43,
          "name": "G2",
          "ticks": 8520,
          "time": 45.26755875,
          "velocity": 0.952755905511811
        },
        {
          "duration": 0.10626187499999418,
          "durationTicks": 20,
          "midi": 43,
          "name": "G2",
          "ticks": 8568,
          "time": 45.52258725,
          "velocity": 0.952755905511811
        },
        {
          "duration": 0.10626187500000128,
          "durationTicks": 20,
          "midi": 43,
          "name": "G2",
          "ticks": 8592,
          "time": 45.6501015,
          "velocity": 0.952755905511811
        },
        {
          "duration": 0.10626187499999418,
          "durationTicks": 20,
          "midi": 42,
          "name": "F#2",
          "ticks": 8640,
          "time": 45.90513,
          "velocity": 0.952755905511811
        },
        {
          "duration": 0.10626187499999418,
          "durationTicks": 20,
          "midi": 42,
          "name": "F#2",
          "ticks": 8688,
          "time": 46.1601585,
          "velocity": 0.952755905511811
        },
        {
          "duration": 0.10626187500000128,
          "durationTicks": 20,
          "midi": 42,
          "name": "F#2",
          "ticks": 8736,
          "time": 46.415186999999996,
          "velocity": 0.952755905511811
        },
        {
          "duration": 0.10626187499999418,
          "durationTicks": 20,
          "midi": 42,
          "name": "F#2",
          "ticks": 8760,
          "time": 46.54270125,
          "velocity": 0.952755905511811
        },
        {
          "duration": 0.10626187500000128,
          "durationTicks": 20,
          "midi": 42,
          "name": "F#2",
          "ticks": 8808,
          "time": 46.797729749999995,
          "velocity": 0.952755905511811
        },
        {
          "duration": 0.10626187500000128,
          "durationTicks": 20,
          "midi": 42,
          "name": "F#2",
          "ticks": 8856,
          "time": 47.05275825,
          "velocity": 0.952755905511811
        },
        {
          "duration": 0.10626187500000128,
          "durationTicks": 20,
          "midi": 42,
          "name": "F#2",
          "ticks": 8904,
          "time": 47.30778675,
          "velocity": 0.952755905511811
        },
        {
          "duration": 0.10626187499999418,
          "durationTicks": 20,
          "midi": 42,
          "name": "F#2",
          "ticks": 8952,
          "time": 47.56281525,
          "velocity": 0.952755905511811
        },
        {
          "duration": 0.10626187500000128,
          "durationTicks": 20,
          "midi": 42,
          "name": "F#2",
          "ticks": 8976,
          "time": 47.6903295,
          "velocity": 0.952755905511811
        },
        {
          "duration": 0.10626187499999418,
          "durationTicks": 20,
          "midi": 41,
          "name": "F2",
          "ticks": 9024,
          "time": 47.945358,
          "velocity": 0.952755905511811
        },
        {
          "duration": 0.10626187499999418,
          "durationTicks": 20,
          "midi": 41,
          "name": "F2",
          "ticks": 9072,
          "time": 48.2003865,
          "velocity": 0.952755905511811
        },
        {
          "duration": 0.10626187500000128,
          "durationTicks": 20,
          "midi": 41,
          "name": "F2",
          "ticks": 9120,
          "time": 48.455414999999995,
          "velocity": 0.952755905511811
        },
        {
          "duration": 0.10626187499999418,
          "durationTicks": 20,
          "midi": 41,
          "name": "F2",
          "ticks": 9144,
          "time": 48.58292925,
          "velocity": 0.952755905511811
        },
        {
          "duration": 0.10626187499999418,
          "durationTicks": 20,
          "midi": 41,
          "name": "F2",
          "ticks": 9192,
          "time": 48.83795775,
          "velocity": 0.952755905511811
        },
        {
          "duration": 0.10626187500000128,
          "durationTicks": 20,
          "midi": 43,
          "name": "G2",
          "ticks": 9240,
          "time": 49.092986249999996,
          "velocity": 0.952755905511811
        },
        {
          "duration": 0.10626187500000128,
          "durationTicks": 20,
          "midi": 43,
          "name": "G2",
          "ticks": 9288,
          "time": 49.34801475,
          "velocity": 0.952755905511811
        },
        {
          "duration": 0.10626187499999418,
          "durationTicks": 20,
          "midi": 43,
          "name": "G2",
          "ticks": 9336,
          "time": 49.60304325,
          "velocity": 0.952755905511811
        },
        {
          "duration": 0.10626187500000128,
          "durationTicks": 20,
          "midi": 43,
          "name": "G2",
          "ticks": 9360,
          "time": 49.730557499999996,
          "velocity": 0.952755905511811
        },
        {
          "duration": 0.10626187500000128,
          "durationTicks": 20,
          "midi": 45,
          "name": "A2",
          "ticks": 9408,
          "time": 49.985586,
          "velocity": 0.952755905511811
        },
        {
          "duration": 0.10626187499999418,
          "durationTicks": 20,
          "midi": 45,
          "name": "A2",
          "ticks": 9456,
          "time": 50.2406145,
          "velocity": 0.952755905511811
        },
        {
          "duration": 0.10626187499999418,
          "durationTicks": 20,
          "midi": 45,
          "name": "A2",
          "ticks": 9504,
          "time": 50.495643,
          "velocity": 0.952755905511811
        },
        {
          "duration": 0.10626187499999418,
          "durationTicks": 20,
          "midi": 45,
          "name": "A2",
          "ticks": 9528,
          "time": 50.62315725,
          "velocity": 0.952755905511811
        },
        {
          "duration": 0.10626187499999418,
          "durationTicks": 20,
          "midi": 45,
          "name": "A2",
          "ticks": 9576,
          "time": 50.87818575,
          "velocity": 0.952755905511811
        },
        {
          "duration": 0.10626187499999418,
          "durationTicks": 20,
          "midi": 45,
          "name": "A2",
          "ticks": 9624,
          "time": 51.13321425,
          "velocity": 0.952755905511811
        },
        {
          "duration": 0.10626187500000128,
          "durationTicks": 20,
          "midi": 45,
          "name": "A2",
          "ticks": 9672,
          "time": 51.388242749999996,
          "velocity": 0.952755905511811
        },
        {
          "duration": 0.10626187500000128,
          "durationTicks": 20,
          "midi": 45,
          "name": "A2",
          "ticks": 9720,
          "time": 51.64327125,
          "velocity": 0.952755905511811
        },
        {
          "duration": 0.10626187500000128,
          "durationTicks": 20,
          "midi": 45,
          "name": "A2",
          "ticks": 9744,
          "time": 51.770785499999995,
          "velocity": 0.952755905511811
        },
        {
          "duration": 0.10626187500000128,
          "durationTicks": 20,
          "midi": 43,
          "name": "G2",
          "ticks": 9792,
          "time": 52.025814,
          "velocity": 0.952755905511811
        },
        {
          "duration": 0.10626187499999418,
          "durationTicks": 20,
          "midi": 43,
          "name": "G2",
          "ticks": 9840,
          "time": 52.2808425,
          "velocity": 0.952755905511811
        },
        {
          "duration": 0.10626187499999418,
          "durationTicks": 20,
          "midi": 43,
          "name": "G2",
          "ticks": 9888,
          "time": 52.535871,
          "velocity": 0.952755905511811
        },
        {
          "duration": 0.10626187500000128,
          "durationTicks": 20,
          "midi": 43,
          "name": "G2",
          "ticks": 9912,
          "time": 52.66338525,
          "velocity": 0.952755905511811
        },
        {
          "duration": 0.10626187499999418,
          "durationTicks": 20,
          "midi": 43,
          "name": "G2",
          "ticks": 9960,
          "time": 52.91841375,
          "velocity": 0.952755905511811
        },
        {
          "duration": 0.10626187499999418,
          "durationTicks": 20,
          "midi": 43,
          "name": "G2",
          "ticks": 10008,
          "time": 53.17344225,
          "velocity": 0.952755905511811
        },
        {
          "duration": 0.10626187500000128,
          "durationTicks": 20,
          "midi": 43,
          "name": "G2",
          "ticks": 10056,
          "time": 53.428470749999995,
          "velocity": 0.952755905511811
        },
        {
          "duration": 0.10626187500000128,
          "durationTicks": 20,
          "midi": 43,
          "name": "G2",
          "ticks": 10104,
          "time": 53.68349925,
          "velocity": 0.952755905511811
        },
        {
          "duration": 0.10626187499999418,
          "durationTicks": 20,
          "midi": 43,
          "name": "G2",
          "ticks": 10128,
          "time": 53.8110135,
          "velocity": 0.952755905511811
        },
        {
          "duration": 0.10626187500000128,
          "durationTicks": 20,
          "midi": 42,
          "name": "F#2",
          "ticks": 10176,
          "time": 54.066041999999996,
          "velocity": 0.952755905511811
        },
        {
          "duration": 0.10626187500000128,
          "durationTicks": 20,
          "midi": 42,
          "name": "F#2",
          "ticks": 10224,
          "time": 54.3210705,
          "velocity": 0.952755905511811
        },
        {
          "duration": 0.10626187499999418,
          "durationTicks": 20,
          "midi": 42,
          "name": "F#2",
          "ticks": 10272,
          "time": 54.576099,
          "velocity": 0.952755905511811
        },
        {
          "duration": 0.10626187500000128,
          "durationTicks": 20,
          "midi": 42,
          "name": "F#2",
          "ticks": 10296,
          "time": 54.70361325,
          "velocity": 0.952755905511811
        },
        {
          "duration": 0.10626187499999418,
          "durationTicks": 20,
          "midi": 42,
          "name": "F#2",
          "ticks": 10344,
          "time": 54.95864175,
          "velocity": 0.952755905511811
        },
        {
          "duration": 0.10626187499999418,
          "durationTicks": 20,
          "midi": 42,
          "name": "F#2",
          "ticks": 10392,
          "time": 55.21367025,
          "velocity": 0.952755905511811
        },
        {
          "duration": 0.10626187499999418,
          "durationTicks": 20,
          "midi": 42,
          "name": "F#2",
          "ticks": 10440,
          "time": 55.46869875,
          "velocity": 0.952755905511811
        },
        {
          "duration": 0.10626187500000128,
          "durationTicks": 20,
          "midi": 42,
          "name": "F#2",
          "ticks": 10488,
          "time": 55.723727249999996,
          "velocity": 0.952755905511811
        },
        {
          "duration": 0.10626187499999418,
          "durationTicks": 20,
          "midi": 42,
          "name": "F#2",
          "ticks": 10512,
          "time": 55.8512415,
          "velocity": 0.952755905511811
        },
        {
          "duration": 0.10626187500000128,
          "durationTicks": 20,
          "midi": 41,
          "name": "F2",
          "ticks": 10560,
          "time": 56.106269999999995,
          "velocity": 0.952755905511811
        },
        {
          "duration": 0.10626187500000128,
          "durationTicks": 20,
          "midi": 41,
          "name": "F2",
          "ticks": 10608,
          "time": 56.3612985,
          "velocity": 0.952755905511811
        },
        {
          "duration": 0.10626187499999418,
          "durationTicks": 20,
          "midi": 41,
          "name": "F2",
          "ticks": 10656,
          "time": 56.616327,
          "velocity": 0.952755905511811
        },
        {
          "duration": 0.10626187500000128,
          "durationTicks": 20,
          "midi": 41,
          "name": "F2",
          "ticks": 10680,
          "time": 56.743841249999996,
          "velocity": 0.952755905511811
        },
        {
          "duration": 0.10626187500000128,
          "durationTicks": 20,
          "midi": 41,
          "name": "F2",
          "ticks": 10728,
          "time": 56.99886975,
          "velocity": 0.952755905511811
        },
        {
          "duration": 0.10626187499999418,
          "durationTicks": 20,
          "midi": 43,
          "name": "G2",
          "ticks": 10776,
          "time": 57.25389825,
          "velocity": 0.952755905511811
        },
        {
          "duration": 0.10626187499999418,
          "durationTicks": 20,
          "midi": 43,
          "name": "G2",
          "ticks": 10824,
          "time": 57.50892675,
          "velocity": 0.952755905511811
        },
        {
          "duration": 0.10626187500000128,
          "durationTicks": 20,
          "midi": 43,
          "name": "G2",
          "ticks": 10872,
          "time": 57.763955249999995,
          "velocity": 0.952755905511811
        },
        {
          "duration": 0.10626187499999418,
          "durationTicks": 20,
          "midi": 43,
          "name": "G2",
          "ticks": 10896,
          "time": 57.8914695,
          "velocity": 0.952755905511811
        },
        {
          "duration": 0.10626187499999418,
          "durationTicks": 20,
          "midi": 45,
          "name": "A2",
          "ticks": 10944,
          "time": 58.146498,
          "velocity": 0.952755905511811
        },
        {
          "duration": 0.10626187500000128,
          "durationTicks": 20,
          "midi": 45,
          "name": "A2",
          "ticks": 10992,
          "time": 58.401526499999996,
          "velocity": 0.952755905511811
        },
        {
          "duration": 0.10626187500000128,
          "durationTicks": 20,
          "midi": 45,
          "name": "A2",
          "ticks": 11040,
          "time": 58.656555,
          "velocity": 0.952755905511811
        },
        {
          "duration": 0.10626187500000128,
          "durationTicks": 20,
          "midi": 45,
          "name": "A2",
          "ticks": 11064,
          "time": 58.784069249999995,
          "velocity": 0.952755905511811
        },
        {
          "duration": 0.10626187500000128,
          "durationTicks": 20,
          "midi": 45,
          "name": "A2",
          "ticks": 11112,
          "time": 59.039097749999996,
          "velocity": 0.952755905511811
        },
        {
          "duration": 0.10626187499999418,
          "durationTicks": 20,
          "midi": 45,
          "name": "A2",
          "ticks": 11160,
          "time": 59.29412625,
          "velocity": 0.952755905511811
        },
        {
          "duration": 0.10626187499999418,
          "durationTicks": 20,
          "midi": 45,
          "name": "A2",
          "ticks": 11208,
          "time": 59.54915475,
          "velocity": 0.952755905511811
        },
        {
          "duration": 0.10626187499999418,
          "durationTicks": 20,
          "midi": 45,
          "name": "A2",
          "ticks": 11256,
          "time": 59.80418325,
          "velocity": 0.952755905511811
        },
        {
          "duration": 0.10626187499999418,
          "durationTicks": 20,
          "midi": 45,
          "name": "A2",
          "ticks": 11280,
          "time": 59.9316975,
          "velocity": 0.952755905511811
        },
        {
          "duration": 0.10626187499999418,
          "durationTicks": 20,
          "midi": 43,
          "name": "G2",
          "ticks": 11328,
          "time": 60.186726,
          "velocity": 0.952755905511811
        },
        {
          "duration": 0.10626187500000128,
          "durationTicks": 20,
          "midi": 43,
          "name": "G2",
          "ticks": 11376,
          "time": 60.441754499999995,
          "velocity": 0.952755905511811
        },
        {
          "duration": 0.10626187500000128,
          "durationTicks": 20,
          "midi": 43,
          "name": "G2",
          "ticks": 11424,
          "time": 60.696782999999996,
          "velocity": 0.952755905511811
        },
        {
          "duration": 0.10626187499999418,
          "durationTicks": 20,
          "midi": 43,
          "name": "G2",
          "ticks": 11448,
          "time": 60.82429725,
          "velocity": 0.952755905511811
        },
        {
          "duration": 0.10626187500000128,
          "durationTicks": 20,
          "midi": 43,
          "name": "G2",
          "ticks": 11496,
          "time": 61.079325749999995,
          "velocity": 0.952755905511811
        },
        {
          "duration": 0.10626187500000128,
          "durationTicks": 20,
          "midi": 43,
          "name": "G2",
          "ticks": 11544,
          "time": 61.33435425,
          "velocity": 0.952755905511811
        },
        {
          "duration": 0.10626187499999418,
          "durationTicks": 20,
          "midi": 43,
          "name": "G2",
          "ticks": 11592,
          "time": 61.58938275,
          "velocity": 0.952755905511811
        },
        {
          "duration": 0.10626187499999418,
          "durationTicks": 20,
          "midi": 43,
          "name": "G2",
          "ticks": 11640,
          "time": 61.84441125,
          "velocity": 0.952755905511811
        },
        {
          "duration": 0.10626187500000128,
          "durationTicks": 20,
          "midi": 43,
          "name": "G2",
          "ticks": 11664,
          "time": 61.9719255,
          "velocity": 0.952755905511811
        },
        {
          "duration": 0.10626187499999418,
          "durationTicks": 20,
          "midi": 42,
          "name": "F#2",
          "ticks": 11712,
          "time": 62.226954,
          "velocity": 0.952755905511811
        },
        {
          "duration": 0.10626187499999418,
          "durationTicks": 20,
          "midi": 42,
          "name": "F#2",
          "ticks": 11760,
          "time": 62.4819825,
          "velocity": 0.952755905511811
        },
        {
          "duration": 0.10626187500000128,
          "durationTicks": 20,
          "midi": 42,
          "name": "F#2",
          "ticks": 11808,
          "time": 62.737010999999995,
          "velocity": 0.952755905511811
        },
        {
          "duration": 0.10626187499999418,
          "durationTicks": 20,
          "midi": 42,
          "name": "F#2",
          "ticks": 11832,
          "time": 62.86452525,
          "velocity": 0.952755905511811
        },
        {
          "duration": 0.10626187500000128,
          "durationTicks": 20,
          "midi": 42,
          "name": "F#2",
          "ticks": 11880,
          "time": 63.119553749999994,
          "velocity": 0.952755905511811
        },
        {
          "duration": 0.10626187500000128,
          "durationTicks": 20,
          "midi": 42,
          "name": "F#2",
          "ticks": 11928,
          "time": 63.374582249999996,
          "velocity": 0.952755905511811
        },
        {
          "duration": 0.10626187500000128,
          "durationTicks": 20,
          "midi": 42,
          "name": "F#2",
          "ticks": 11976,
          "time": 63.62961075,
          "velocity": 0.952755905511811
        },
        {
          "duration": 0.10626187499999418,
          "durationTicks": 20,
          "midi": 42,
          "name": "F#2",
          "ticks": 12024,
          "time": 63.88463925,
          "velocity": 0.952755905511811
        },
        {
          "duration": 0.10626187500000128,
          "durationTicks": 20,
          "midi": 42,
          "name": "F#2",
          "ticks": 12048,
          "time": 64.0121535,
          "velocity": 0.952755905511811
        },
        {
          "duration": 0.10626187500000128,
          "durationTicks": 20,
          "midi": 41,
          "name": "F2",
          "ticks": 12096,
          "time": 64.26718199999999,
          "velocity": 0.952755905511811
        },
        {
          "duration": 0.10626187500000128,
          "durationTicks": 20,
          "midi": 41,
          "name": "F2",
          "ticks": 12144,
          "time": 64.5222105,
          "velocity": 0.952755905511811
        },
        {
          "duration": 0.10626187500000128,
          "durationTicks": 20,
          "midi": 41,
          "name": "F2",
          "ticks": 12192,
          "time": 64.777239,
          "velocity": 0.952755905511811
        },
        {
          "duration": 0.10626187500000128,
          "durationTicks": 20,
          "midi": 41,
          "name": "F2",
          "ticks": 12216,
          "time": 64.90475325,
          "velocity": 0.952755905511811
        },
        {
          "duration": 0.10626187500000128,
          "durationTicks": 20,
          "midi": 41,
          "name": "F2",
          "ticks": 12264,
          "time": 65.15978175,
          "velocity": 0.952755905511811
        },
        {
          "duration": 0.10626187500000128,
          "durationTicks": 20,
          "midi": 43,
          "name": "G2",
          "ticks": 12312,
          "time": 65.41481025,
          "velocity": 0.952755905511811
        },
        {
          "duration": 0.10626187500000128,
          "durationTicks": 20,
          "midi": 43,
          "name": "G2",
          "ticks": 12360,
          "time": 65.66983875,
          "velocity": 0.952755905511811
        },
        {
          "duration": 0.1062618750000155,
          "durationTicks": 20,
          "midi": 43,
          "name": "G2",
          "ticks": 12408,
          "time": 65.92486724999999,
          "velocity": 0.952755905511811
        },
        {
          "duration": 0.10626187500000128,
          "durationTicks": 20,
          "midi": 43,
          "name": "G2",
          "ticks": 12432,
          "time": 66.0523815,
          "velocity": 0.952755905511811
        },
        {
          "duration": 0.10626187500000128,
          "durationTicks": 20,
          "midi": 45,
          "name": "A2",
          "ticks": 12480,
          "time": 66.30741,
          "velocity": 0.952755905511811
        },
        {
          "duration": 0.10626187500000128,
          "durationTicks": 20,
          "midi": 45,
          "name": "A2",
          "ticks": 12528,
          "time": 66.5624385,
          "velocity": 0.952755905511811
        },
        {
          "duration": 0.1062618750000155,
          "durationTicks": 20,
          "midi": 45,
          "name": "A2",
          "ticks": 12576,
          "time": 66.817467,
          "velocity": 0.952755905511811
        },
        {
          "duration": 0.10626187500000128,
          "durationTicks": 20,
          "midi": 45,
          "name": "A2",
          "ticks": 12600,
          "time": 66.94498125,
          "velocity": 0.952755905511811
        },
        {
          "duration": 0.1062618750000155,
          "durationTicks": 20,
          "midi": 45,
          "name": "A2",
          "ticks": 12648,
          "time": 67.20000974999999,
          "velocity": 0.952755905511811
        },
        {
          "duration": 0.10626187500000128,
          "durationTicks": 20,
          "midi": 45,
          "name": "A2",
          "ticks": 12696,
          "time": 67.45503825,
          "velocity": 0.952755905511811
        },
        {
          "duration": 0.10626187500000128,
          "durationTicks": 20,
          "midi": 45,
          "name": "A2",
          "ticks": 12744,
          "time": 67.71006675,
          "velocity": 0.952755905511811
        },
        {
          "duration": 0.10626187500000128,
          "durationTicks": 20,
          "midi": 45,
          "name": "A2",
          "ticks": 12792,
          "time": 67.96509525,
          "velocity": 0.952755905511811
        },
        {
          "duration": 0.10626187500000128,
          "durationTicks": 20,
          "midi": 45,
          "name": "A2",
          "ticks": 12816,
          "time": 68.0926095,
          "velocity": 0.952755905511811
        },
        {
          "duration": 0.10626187500000128,
          "durationTicks": 20,
          "midi": 43,
          "name": "G2",
          "ticks": 12864,
          "time": 68.347638,
          "velocity": 0.952755905511811
        },
        {
          "duration": 0.10626187500000128,
          "durationTicks": 20,
          "midi": 43,
          "name": "G2",
          "ticks": 12912,
          "time": 68.6026665,
          "velocity": 0.952755905511811
        },
        {
          "duration": 0.1062618750000155,
          "durationTicks": 20,
          "midi": 43,
          "name": "G2",
          "ticks": 12960,
          "time": 68.85769499999999,
          "velocity": 0.952755905511811
        },
        {
          "duration": 0.10626187500000128,
          "durationTicks": 20,
          "midi": 43,
          "name": "G2",
          "ticks": 12984,
          "time": 68.98520925,
          "velocity": 0.952755905511811
        },
        {
          "duration": 0.1062618750000155,
          "durationTicks": 20,
          "midi": 43,
          "name": "G2",
          "ticks": 13032,
          "time": 69.24023774999999,
          "velocity": 0.952755905511811
        },
        {
          "duration": 0.10626187500000128,
          "durationTicks": 20,
          "midi": 43,
          "name": "G2",
          "ticks": 13080,
          "time": 69.49526625,
          "velocity": 0.952755905511811
        },
        {
          "duration": 0.10626187500000128,
          "durationTicks": 20,
          "midi": 43,
          "name": "G2",
          "ticks": 13128,
          "time": 69.75029475,
          "velocity": 0.952755905511811
        },
        {
          "duration": 0.10626187500000128,
          "durationTicks": 20,
          "midi": 43,
          "name": "G2",
          "ticks": 13176,
          "time": 70.00532325,
          "velocity": 0.952755905511811
        },
        {
          "duration": 0.1062618750000155,
          "durationTicks": 20,
          "midi": 43,
          "name": "G2",
          "ticks": 13200,
          "time": 70.1328375,
          "velocity": 0.952755905511811
        },
        {
          "duration": 0.10626187500000128,
          "durationTicks": 20,
          "midi": 42,
          "name": "F#2",
          "ticks": 13248,
          "time": 70.387866,
          "velocity": 0.952755905511811
        },
        {
          "duration": 0.10626187500000128,
          "durationTicks": 20,
          "midi": 42,
          "name": "F#2",
          "ticks": 13296,
          "time": 70.6428945,
          "velocity": 0.952755905511811
        },
        {
          "duration": 0.1062618750000155,
          "durationTicks": 20,
          "midi": 42,
          "name": "F#2",
          "ticks": 13344,
          "time": 70.89792299999999,
          "velocity": 0.952755905511811
        },
        {
          "duration": 0.10626187500000128,
          "durationTicks": 20,
          "midi": 42,
          "name": "F#2",
          "ticks": 13368,
          "time": 71.02543725,
          "velocity": 0.952755905511811
        },
        {
          "duration": 0.1062618750000155,
          "durationTicks": 20,
          "midi": 42,
          "name": "F#2",
          "ticks": 13416,
          "time": 71.28046574999999,
          "velocity": 0.952755905511811
        },
        {
          "duration": 0.10626187500000128,
          "durationTicks": 20,
          "midi": 42,
          "name": "F#2",
          "ticks": 13464,
          "time": 71.53549425,
          "velocity": 0.952755905511811
        },
        {
          "duration": 0.1062618750000155,
          "durationTicks": 20,
          "midi": 42,
          "name": "F#2",
          "ticks": 13512,
          "time": 71.79052275,
          "velocity": 0.952755905511811
        },
        {
          "duration": 0.10626187500000128,
          "durationTicks": 20,
          "midi": 42,
          "name": "F#2",
          "ticks": 13560,
          "time": 72.04555125,
          "velocity": 0.952755905511811
        },
        {
          "duration": 0.1062618750000155,
          "durationTicks": 20,
          "midi": 42,
          "name": "F#2",
          "ticks": 13584,
          "time": 72.17306549999999,
          "velocity": 0.952755905511811
        },
        {
          "duration": 0.10626187500000128,
          "durationTicks": 20,
          "midi": 41,
          "name": "F2",
          "ticks": 13632,
          "time": 72.428094,
          "velocity": 0.952755905511811
        },
        {
          "duration": 0.10626187500000128,
          "durationTicks": 20,
          "midi": 41,
          "name": "F2",
          "ticks": 13680,
          "time": 72.6831225,
          "velocity": 0.952755905511811
        },
        {
          "duration": 0.1062618750000155,
          "durationTicks": 20,
          "midi": 41,
          "name": "F2",
          "ticks": 13728,
          "time": 72.93815099999999,
          "velocity": 0.952755905511811
        },
        {
          "duration": 0.10626187500000128,
          "durationTicks": 20,
          "midi": 41,
          "name": "F2",
          "ticks": 13752,
          "time": 73.06566525,
          "velocity": 0.952755905511811
        },
        {
          "duration": 0.10626187500000128,
          "durationTicks": 20,
          "midi": 41,
          "name": "F2",
          "ticks": 13800,
          "time": 73.32069375,
          "velocity": 0.952755905511811
        },
        {
          "duration": 0.10626187500000128,
          "durationTicks": 20,
          "midi": 43,
          "name": "G2",
          "ticks": 13848,
          "time": 73.57572225,
          "velocity": 0.952755905511811
        },
        {
          "duration": 0.1062618750000155,
          "durationTicks": 20,
          "midi": 43,
          "name": "G2",
          "ticks": 13896,
          "time": 73.83075074999999,
          "velocity": 0.952755905511811
        },
        {
          "duration": 0.10626187500000128,
          "durationTicks": 20,
          "midi": 43,
          "name": "G2",
          "ticks": 13944,
          "time": 74.08577925,
          "velocity": 0.952755905511811
        },
        {
          "duration": 0.1062618750000155,
          "durationTicks": 20,
          "midi": 43,
          "name": "G2",
          "ticks": 13968,
          "time": 74.21329349999999,
          "velocity": 0.952755905511811
        },
        {
          "duration": 0.10626187500000128,
          "durationTicks": 20,
          "midi": 41,
          "name": "F2",
          "ticks": 14016,
          "time": 74.468322,
          "velocity": 0.952755905511811
        },
        {
          "duration": 0.10626187500000128,
          "durationTicks": 20,
          "midi": 41,
          "name": "F2",
          "ticks": 14064,
          "time": 74.7233505,
          "velocity": 0.952755905511811
        },
        {
          "duration": 0.10626187500000128,
          "durationTicks": 20,
          "midi": 41,
          "name": "F2",
          "ticks": 14112,
          "time": 74.978379,
          "velocity": 0.952755905511811
        },
        {
          "duration": 0.10626187500000128,
          "durationTicks": 20,
          "midi": 41,
          "name": "F2",
          "ticks": 14136,
          "time": 75.10589325,
          "velocity": 0.952755905511811
        },
        {
          "duration": 0.10626187500000128,
          "durationTicks": 20,
          "midi": 41,
          "name": "F2",
          "ticks": 14184,
          "time": 75.36092175,
          "velocity": 0.952755905511811
        },
        {
          "duration": 0.10626187500000128,
          "durationTicks": 20,
          "midi": 41,
          "name": "F2",
          "ticks": 14232,
          "time": 75.61595025,
          "velocity": 0.952755905511811
        },
        {
          "duration": 0.1062618750000155,
          "durationTicks": 20,
          "midi": 41,
          "name": "F2",
          "ticks": 14280,
          "time": 75.87097874999999,
          "velocity": 0.952755905511811
        },
        {
          "duration": 0.10626187500000128,
          "durationTicks": 20,
          "midi": 41,
          "name": "F2",
          "ticks": 14328,
          "time": 76.12600725,
          "velocity": 0.952755905511811
        },
        {
          "duration": 0.1062618750000155,
          "durationTicks": 20,
          "midi": 41,
          "name": "F2",
          "ticks": 14352,
          "time": 76.25352149999999,
          "velocity": 0.952755905511811
        },
        {
          "duration": 0.10626187500000128,
          "durationTicks": 20,
          "midi": 43,
          "name": "G2",
          "ticks": 14400,
          "time": 76.50855,
          "velocity": 0.952755905511811
        },
        {
          "duration": 0.10626187500000128,
          "durationTicks": 20,
          "midi": 43,
          "name": "G2",
          "ticks": 14448,
          "time": 76.7635785,
          "velocity": 0.952755905511811
        },
        {
          "duration": 0.10626187500000128,
          "durationTicks": 20,
          "midi": 43,
          "name": "G2",
          "ticks": 14496,
          "time": 77.018607,
          "velocity": 0.952755905511811
        },
        {
          "duration": 0.1062618750000155,
          "durationTicks": 20,
          "midi": 43,
          "name": "G2",
          "ticks": 14520,
          "time": 77.14612125,
          "velocity": 0.952755905511811
        },
        {
          "duration": 0.10626187500000128,
          "durationTicks": 20,
          "midi": 43,
          "name": "G2",
          "ticks": 14568,
          "time": 77.40114975,
          "velocity": 0.952755905511811
        },
        {
          "duration": 0.10626187500000128,
          "durationTicks": 20,
          "midi": 43,
          "name": "G2",
          "ticks": 14616,
          "time": 77.65617825,
          "velocity": 0.952755905511811
        },
        {
          "duration": 0.1062618750000155,
          "durationTicks": 20,
          "midi": 43,
          "name": "G2",
          "ticks": 14664,
          "time": 77.91120674999999,
          "velocity": 0.952755905511811
        },
        {
          "duration": 0.10626187500000128,
          "durationTicks": 20,
          "midi": 43,
          "name": "G2",
          "ticks": 14712,
          "time": 78.16623525,
          "velocity": 0.952755905511811
        },
        {
          "duration": 0.10626187500000128,
          "durationTicks": 20,
          "midi": 43,
          "name": "G2",
          "ticks": 14736,
          "time": 78.2937495,
          "velocity": 0.952755905511811
        },
        {
          "duration": 0.10626187500000128,
          "durationTicks": 20,
          "midi": 42,
          "name": "F#2",
          "ticks": 14784,
          "time": 78.548778,
          "velocity": 0.952755905511811
        },
        {
          "duration": 0.1062618750000155,
          "durationTicks": 20,
          "midi": 42,
          "name": "F#2",
          "ticks": 14832,
          "time": 78.8038065,
          "velocity": 0.952755905511811
        },
        {
          "duration": 0.10626187500000128,
          "durationTicks": 20,
          "midi": 42,
          "name": "F#2",
          "ticks": 14880,
          "time": 79.058835,
          "velocity": 0.952755905511811
        },
        {
          "duration": 0.1062618750000155,
          "durationTicks": 20,
          "midi": 42,
          "name": "F#2",
          "ticks": 14904,
          "time": 79.18634924999999,
          "velocity": 0.952755905511811
        },
        {
          "duration": 0.10626187500000128,
          "durationTicks": 20,
          "midi": 42,
          "name": "F#2",
          "ticks": 14952,
          "time": 79.44137775,
          "velocity": 0.952755905511811
        },
        {
          "duration": 0.10626187500000128,
          "durationTicks": 20,
          "midi": 42,
          "name": "F#2",
          "ticks": 15000,
          "time": 79.69640625,
          "velocity": 0.952755905511811
        },
        {
          "duration": 0.10626187500000128,
          "durationTicks": 20,
          "midi": 42,
          "name": "F#2",
          "ticks": 15048,
          "time": 79.95143475,
          "velocity": 0.952755905511811
        },
        {
          "duration": 0.10626187500000128,
          "durationTicks": 20,
          "midi": 42,
          "name": "F#2",
          "ticks": 15096,
          "time": 80.20646325,
          "velocity": 0.952755905511811
        },
        {
          "duration": 0.10626187500000128,
          "durationTicks": 20,
          "midi": 42,
          "name": "F#2",
          "ticks": 15120,
          "time": 80.3339775,
          "velocity": 0.952755905511811
        },
        {
          "duration": 0.10626187500000128,
          "durationTicks": 20,
          "midi": 42,
          "name": "F#2",
          "ticks": 15168,
          "time": 80.589006,
          "velocity": 0.952755905511811
        },
        {
          "duration": 0.1062618750000155,
          "durationTicks": 20,
          "midi": 42,
          "name": "F#2",
          "ticks": 15216,
          "time": 80.84403449999999,
          "velocity": 0.952755905511811
        },
        {
          "duration": 0.10626187500000128,
          "durationTicks": 20,
          "midi": 42,
          "name": "F#2",
          "ticks": 15264,
          "time": 81.099063,
          "velocity": 0.952755905511811
        },
        {
          "duration": 0.1062618750000155,
          "durationTicks": 20,
          "midi": 42,
          "name": "F#2",
          "ticks": 15288,
          "time": 81.22657724999999,
          "velocity": 0.952755905511811
        },
        {
          "duration": 0.10626187500000128,
          "durationTicks": 20,
          "midi": 42,
          "name": "F#2",
          "ticks": 15336,
          "time": 81.48160575,
          "velocity": 0.952755905511811
        },
        {
          "duration": 0.10626187500000128,
          "durationTicks": 20,
          "midi": 42,
          "name": "F#2",
          "ticks": 15384,
          "time": 81.73663425,
          "velocity": 0.952755905511811
        },
        {
          "duration": 0.10626187500000128,
          "durationTicks": 20,
          "midi": 42,
          "name": "F#2",
          "ticks": 15432,
          "time": 81.99166275,
          "velocity": 0.952755905511811
        },
        {
          "duration": 0.10626187500000128,
          "durationTicks": 20,
          "midi": 42,
          "name": "F#2",
          "ticks": 15480,
          "time": 82.24669125,
          "velocity": 0.952755905511811
        },
        {
          "duration": 0.10626187500000128,
          "durationTicks": 20,
          "midi": 42,
          "name": "F#2",
          "ticks": 15504,
          "time": 82.3742055,
          "velocity": 0.952755905511811
        },
        {
          "duration": 0.10626187500000128,
          "durationTicks": 20,
          "midi": 41,
          "name": "F2",
          "ticks": 15552,
          "time": 82.629234,
          "velocity": 0.952755905511811
        },
        {
          "duration": 0.1062618750000155,
          "durationTicks": 20,
          "midi": 41,
          "name": "F2",
          "ticks": 15600,
          "time": 82.88426249999999,
          "velocity": 0.952755905511811
        },
        {
          "duration": 0.10626187500000128,
          "durationTicks": 20,
          "midi": 41,
          "name": "F2",
          "ticks": 15648,
          "time": 83.139291,
          "velocity": 0.952755905511811
        },
        {
          "duration": 0.1062618750000155,
          "durationTicks": 20,
          "midi": 41,
          "name": "F2",
          "ticks": 15672,
          "time": 83.26680524999999,
          "velocity": 0.952755905511811
        },
        {
          "duration": 0.10626187500000128,
          "durationTicks": 20,
          "midi": 41,
          "name": "F2",
          "ticks": 15720,
          "time": 83.52183375,
          "velocity": 0.952755905511811
        },
        {
          "duration": 0.1062618750000155,
          "durationTicks": 20,
          "midi": 41,
          "name": "F2",
          "ticks": 15768,
          "time": 83.77686225,
          "velocity": 0.952755905511811
        },
        {
          "duration": 0.10626187500000128,
          "durationTicks": 20,
          "midi": 41,
          "name": "F2",
          "ticks": 15816,
          "time": 84.03189075,
          "velocity": 0.952755905511811
        },
        {
          "duration": 0.10626187500000128,
          "durationTicks": 20,
          "midi": 41,
          "name": "F2",
          "ticks": 15864,
          "time": 84.28691925,
          "velocity": 0.952755905511811
        },
        {
          "duration": 0.10626187500000128,
          "durationTicks": 20,
          "midi": 41,
          "name": "F2",
          "ticks": 15888,
          "time": 84.4144335,
          "velocity": 0.952755905511811
        },
        {
          "duration": 0.10626187500000128,
          "durationTicks": 20,
          "midi": 43,
          "name": "G2",
          "ticks": 15936,
          "time": 84.669462,
          "velocity": 0.952755905511811
        },
        {
          "duration": 0.1062618750000155,
          "durationTicks": 20,
          "midi": 43,
          "name": "G2",
          "ticks": 15984,
          "time": 84.92449049999999,
          "velocity": 0.952755905511811
        },
        {
          "duration": 0.10626187500000128,
          "durationTicks": 20,
          "midi": 43,
          "name": "G2",
          "ticks": 16032,
          "time": 85.179519,
          "velocity": 0.952755905511811
        },
        {
          "duration": 0.10626187500000128,
          "durationTicks": 20,
          "midi": 43,
          "name": "G2",
          "ticks": 16056,
          "time": 85.30703325,
          "velocity": 0.952755905511811
        },
        {
          "duration": 0.10626187500000128,
          "durationTicks": 20,
          "midi": 43,
          "name": "G2",
          "ticks": 16104,
          "time": 85.56206175,
          "velocity": 0.952755905511811
        },
        {
          "duration": 0.1062618750000155,
          "durationTicks": 20,
          "midi": 43,
          "name": "G2",
          "ticks": 16152,
          "time": 85.81709024999999,
          "velocity": 0.952755905511811
        },
        {
          "duration": 0.10626187500000128,
          "durationTicks": 20,
          "midi": 43,
          "name": "G2",
          "ticks": 16200,
          "time": 86.07211875,
          "velocity": 0.952755905511811
        },
        {
          "duration": 0.10626187500000128,
          "durationTicks": 20,
          "midi": 43,
          "name": "G2",
          "ticks": 16248,
          "time": 86.32714725,
          "velocity": 0.952755905511811
        },
        {
          "duration": 0.10626187500000128,
          "durationTicks": 20,
          "midi": 43,
          "name": "G2",
          "ticks": 16272,
          "time": 86.4546615,
          "velocity": 0.952755905511811
        },
        {
          "duration": 0.10626187500000128,
          "durationTicks": 20,
          "midi": 45,
          "name": "A2",
          "ticks": 16320,
          "time": 86.70969,
          "velocity": 0.952755905511811
        },
        {
          "duration": 0.10626187500000128,
          "durationTicks": 20,
          "midi": 45,
          "name": "A2",
          "ticks": 16368,
          "time": 86.9647185,
          "velocity": 0.952755905511811
        },
        {
          "duration": 0.10626187500000128,
          "durationTicks": 20,
          "midi": 45,
          "name": "A2",
          "ticks": 16416,
          "time": 87.219747,
          "velocity": 0.952755905511811
        },
        {
          "duration": 0.10626187500000128,
          "durationTicks": 20,
          "midi": 45,
          "name": "A2",
          "ticks": 16440,
          "time": 87.34726125,
          "velocity": 0.952755905511811
        },
        {
          "duration": 0.10626187500000128,
          "durationTicks": 20,
          "midi": 45,
          "name": "A2",
          "ticks": 16488,
          "time": 87.60228975,
          "velocity": 0.952755905511811
        },
        {
          "duration": 0.1062618750000155,
          "durationTicks": 20,
          "midi": 45,
          "name": "A2",
          "ticks": 16536,
          "time": 87.85731824999999,
          "velocity": 0.952755905511811
        },
        {
          "duration": 0.10626187500000128,
          "durationTicks": 20,
          "midi": 45,
          "name": "A2",
          "ticks": 16584,
          "time": 88.11234675,
          "velocity": 0.952755905511811
        },
        {
          "duration": 0.10626187500000128,
          "durationTicks": 20,
          "midi": 45,
          "name": "A2",
          "ticks": 16632,
          "time": 88.36737525,
          "velocity": 0.952755905511811
        },
        {
          "duration": 0.10626187500000128,
          "durationTicks": 20,
          "midi": 45,
          "name": "A2",
          "ticks": 16656,
          "time": 88.4948895,
          "velocity": 0.952755905511811
        },
        {
          "duration": 0.10626187500000128,
          "durationTicks": 20,
          "midi": 45,
          "name": "A2",
          "ticks": 16704,
          "time": 88.749918,
          "velocity": 0.952755905511811
        },
        {
          "duration": 0.10626187500000128,
          "durationTicks": 20,
          "midi": 45,
          "name": "A2",
          "ticks": 16752,
          "time": 89.0049465,
          "velocity": 0.952755905511811
        },
        {
          "duration": 0.10626187500000128,
          "durationTicks": 20,
          "midi": 45,
          "name": "A2",
          "ticks": 16800,
          "time": 89.259975,
          "velocity": 0.952755905511811
        },
        {
          "duration": 0.10626187500000128,
          "durationTicks": 20,
          "midi": 45,
          "name": "A2",
          "ticks": 16824,
          "time": 89.38748925,
          "velocity": 0.952755905511811
        },
        {
          "duration": 0.10626187500000128,
          "durationTicks": 20,
          "midi": 45,
          "name": "A2",
          "ticks": 16872,
          "time": 89.64251775,
          "velocity": 0.952755905511811
        },
        {
          "duration": 0.1062618750000155,
          "durationTicks": 20,
          "midi": 45,
          "name": "A2",
          "ticks": 16920,
          "time": 89.89754624999999,
          "velocity": 0.952755905511811
        },
        {
          "duration": 0.10626187500000128,
          "durationTicks": 20,
          "midi": 45,
          "name": "A2",
          "ticks": 16968,
          "time": 90.15257475,
          "velocity": 0.952755905511811
        },
        {
          "duration": 0.10626187500000128,
          "durationTicks": 20,
          "midi": 45,
          "name": "A2",
          "ticks": 17016,
          "time": 90.40760325,
          "velocity": 0.952755905511811
        },
        {
          "duration": 0.10626187500000128,
          "durationTicks": 20,
          "midi": 45,
          "name": "A2",
          "ticks": 17040,
          "time": 90.5351175,
          "velocity": 0.952755905511811
        },
        {
          "duration": 0.1062618750000155,
          "durationTicks": 20,
          "midi": 41,
          "name": "F2",
          "ticks": 17088,
          "time": 90.790146,
          "velocity": 0.952755905511811
        },
        {
          "duration": 0.10626187500000128,
          "durationTicks": 20,
          "midi": 41,
          "name": "F2",
          "ticks": 17136,
          "time": 91.0451745,
          "velocity": 0.952755905511811
        },
        {
          "duration": 0.10626187500000128,
          "durationTicks": 20,
          "midi": 41,
          "name": "F2",
          "ticks": 17184,
          "time": 91.300203,
          "velocity": 0.952755905511811
        },
        {
          "duration": 0.10626187500000128,
          "durationTicks": 20,
          "midi": 41,
          "name": "F2",
          "ticks": 17208,
          "time": 91.42771725,
          "velocity": 0.952755905511811
        },
        {
          "duration": 0.10626187500000128,
          "durationTicks": 20,
          "midi": 41,
          "name": "F2",
          "ticks": 17256,
          "time": 91.68274575,
          "velocity": 0.952755905511811
        },
        {
          "duration": 0.10626187500000128,
          "durationTicks": 20,
          "midi": 41,
          "name": "F2",
          "ticks": 17304,
          "time": 91.93777425,
          "velocity": 0.952755905511811
        },
        {
          "duration": 0.10626187500000128,
          "durationTicks": 20,
          "midi": 41,
          "name": "F2",
          "ticks": 17352,
          "time": 92.19280275,
          "velocity": 0.952755905511811
        },
        {
          "duration": 0.1062618750000155,
          "durationTicks": 20,
          "midi": 41,
          "name": "F2",
          "ticks": 17400,
          "time": 92.44783125,
          "velocity": 0.952755905511811
        },
        {
          "duration": 0.10626187500000128,
          "durationTicks": 20,
          "midi": 41,
          "name": "F2",
          "ticks": 17424,
          "time": 92.5753455,
          "velocity": 0.952755905511811
        },
        {
          "duration": 0.1062618750000155,
          "durationTicks": 20,
          "midi": 43,
          "name": "G2",
          "ticks": 17472,
          "time": 92.83037399999999,
          "velocity": 0.952755905511811
        },
        {
          "duration": 0.10626187500000128,
          "durationTicks": 20,
          "midi": 43,
          "name": "G2",
          "ticks": 17520,
          "time": 93.0854025,
          "velocity": 0.952755905511811
        },
        {
          "duration": 0.10626187500000128,
          "durationTicks": 20,
          "midi": 43,
          "name": "G2",
          "ticks": 17568,
          "time": 93.340431,
          "velocity": 0.952755905511811
        },
        {
          "duration": 0.10626187500000128,
          "durationTicks": 20,
          "midi": 43,
          "name": "G2",
          "ticks": 17592,
          "time": 93.46794525,
          "velocity": 0.952755905511811
        },
        {
          "duration": 0.10626187500000128,
          "durationTicks": 20,
          "midi": 43,
          "name": "G2",
          "ticks": 17640,
          "time": 93.72297375,
          "velocity": 0.952755905511811
        },
        {
          "duration": 0.10626187500000128,
          "durationTicks": 20,
          "midi": 43,
          "name": "G2",
          "ticks": 17688,
          "time": 93.97800225,
          "velocity": 0.952755905511811
        },
        {
          "duration": 0.10626187500000128,
          "durationTicks": 20,
          "midi": 43,
          "name": "G2",
          "ticks": 17736,
          "time": 94.23303075,
          "velocity": 0.952755905511811
        },
        {
          "duration": 0.1062618750000155,
          "durationTicks": 20,
          "midi": 43,
          "name": "G2",
          "ticks": 17784,
          "time": 94.48805924999999,
          "velocity": 0.952755905511811
        },
        {
          "duration": 0.10626187500000128,
          "durationTicks": 20,
          "midi": 43,
          "name": "G2",
          "ticks": 17808,
          "time": 94.6155735,
          "velocity": 0.952755905511811
        },
        {
          "duration": 0.1062618750000155,
          "durationTicks": 20,
          "midi": 45,
          "name": "A2",
          "ticks": 17856,
          "time": 94.87060199999999,
          "velocity": 0.952755905511811
        },
        {
          "duration": 0.10626187500000128,
          "durationTicks": 20,
          "midi": 45,
          "name": "A2",
          "ticks": 17904,
          "time": 95.1256305,
          "velocity": 0.952755905511811
        },
        {
          "duration": 0.10626187500000128,
          "durationTicks": 20,
          "midi": 45,
          "name": "A2",
          "ticks": 17952,
          "time": 95.380659,
          "velocity": 0.952755905511811
        },
        {
          "duration": 0.10626187500000128,
          "durationTicks": 20,
          "midi": 45,
          "name": "A2",
          "ticks": 17976,
          "time": 95.50817325,
          "velocity": 0.952755905511811
        },
        {
          "duration": 0.10626187500000128,
          "durationTicks": 20,
          "midi": 45,
          "name": "A2",
          "ticks": 18024,
          "time": 95.76320175,
          "velocity": 0.952755905511811
        },
        {
          "duration": 0.10626187500000128,
          "durationTicks": 20,
          "midi": 44,
          "name": "G#2",
          "ticks": 18072,
          "time": 96.01823025,
          "velocity": 0.952755905511811
        },
        {
          "duration": 0.10626187500000128,
          "durationTicks": 20,
          "midi": 44,
          "name": "G#2",
          "ticks": 18120,
          "time": 96.27325875,
          "velocity": 0.952755905511811
        },
        {
          "duration": 0.1062618750000155,
          "durationTicks": 20,
          "midi": 44,
          "name": "G#2",
          "ticks": 18168,
          "time": 96.52828724999999,
          "velocity": 0.952755905511811
        },
        {
          "duration": 0.10626187500000128,
          "durationTicks": 20,
          "midi": 44,
          "name": "G#2",
          "ticks": 18192,
          "time": 96.6558015,
          "velocity": 0.952755905511811
        },
        {
          "duration": 0.1062618750000155,
          "durationTicks": 20,
          "midi": 43,
          "name": "G2",
          "ticks": 18240,
          "time": 96.91082999999999,
          "velocity": 0.952755905511811
        },
        {
          "duration": 0.10626187500000128,
          "durationTicks": 20,
          "midi": 43,
          "name": "G2",
          "ticks": 18288,
          "time": 97.1658585,
          "velocity": 0.952755905511811
        },
        {
          "duration": 0.10626187500000128,
          "durationTicks": 20,
          "midi": 43,
          "name": "G2",
          "ticks": 18336,
          "time": 97.420887,
          "velocity": 0.952755905511811
        },
        {
          "duration": 0.10626187500000128,
          "durationTicks": 20,
          "midi": 43,
          "name": "G2",
          "ticks": 18360,
          "time": 97.54840125,
          "velocity": 0.952755905511811
        },
        {
          "duration": 0.1062618750000155,
          "durationTicks": 20,
          "midi": 43,
          "name": "G2",
          "ticks": 18408,
          "time": 97.80342974999999,
          "velocity": 0.952755905511811
        },
        {
          "duration": 0.10626187500000128,
          "durationTicks": 20,
          "midi": 42,
          "name": "F#2",
          "ticks": 18456,
          "time": 98.05845825,
          "velocity": 0.952755905511811
        },
        {
          "duration": 0.10626187500000128,
          "durationTicks": 20,
          "midi": 42,
          "name": "F#2",
          "ticks": 18504,
          "time": 98.31348675,
          "velocity": 0.952755905511811
        },
        {
          "duration": 0.1062618750000155,
          "durationTicks": 20,
          "midi": 42,
          "name": "F#2",
          "ticks": 18552,
          "time": 98.56851524999999,
          "velocity": 0.952755905511811
        },
        {
          "duration": 0.10626187500000128,
          "durationTicks": 20,
          "midi": 42,
          "name": "F#2",
          "ticks": 18576,
          "time": 98.6960295,
          "velocity": 0.952755905511811
        },
        {
          "duration": 0.10626187500000128,
          "durationTicks": 20,
          "midi": 41,
          "name": "F2",
          "ticks": 18624,
          "time": 98.951058,
          "velocity": 0.952755905511811
        },
        {
          "duration": 0.10626187500000128,
          "durationTicks": 20,
          "midi": 41,
          "name": "F2",
          "ticks": 18672,
          "time": 99.2060865,
          "velocity": 0.952755905511811
        },
        {
          "duration": 0.1062618750000155,
          "durationTicks": 20,
          "midi": 41,
          "name": "F2",
          "ticks": 18720,
          "time": 99.46111499999999,
          "velocity": 0.952755905511811
        },
        {
          "duration": 0.10626187500000128,
          "durationTicks": 20,
          "midi": 41,
          "name": "F2",
          "ticks": 18744,
          "time": 99.58862925,
          "velocity": 0.952755905511811
        },
        {
          "duration": 0.1062618750000155,
          "durationTicks": 20,
          "midi": 41,
          "name": "F2",
          "ticks": 18792,
          "time": 99.84365774999999,
          "velocity": 0.952755905511811
        },
        {
          "duration": 0.10626187500000128,
          "durationTicks": 20,
          "midi": 41,
          "name": "F2",
          "ticks": 18840,
          "time": 100.09868625,
          "velocity": 0.952755905511811
        },
        {
          "duration": 0.10626187500000128,
          "durationTicks": 20,
          "midi": 41,
          "name": "F2",
          "ticks": 18888,
          "time": 100.35371475,
          "velocity": 0.952755905511811
        },
        {
          "duration": 0.10626187500000128,
          "durationTicks": 20,
          "midi": 41,
          "name": "F2",
          "ticks": 18936,
          "time": 100.60874325,
          "velocity": 0.952755905511811
        },
        {
          "duration": 0.10626187500000128,
          "durationTicks": 20,
          "midi": 41,
          "name": "F2",
          "ticks": 18960,
          "time": 100.7362575,
          "velocity": 0.952755905511811
        },
        {
          "duration": 0.10626187500000128,
          "durationTicks": 20,
          "midi": 43,
          "name": "G2",
          "ticks": 19008,
          "time": 100.991286,
          "velocity": 0.952755905511811
        },
        {
          "duration": 0.10626187500000128,
          "durationTicks": 20,
          "midi": 43,
          "name": "G2",
          "ticks": 19056,
          "time": 101.2463145,
          "velocity": 0.952755905511811
        },
        {
          "duration": 0.1062618750000155,
          "durationTicks": 20,
          "midi": 43,
          "name": "G2",
          "ticks": 19104,
          "time": 101.50134299999999,
          "velocity": 0.952755905511811
        },
        {
          "duration": 0.10626187500000128,
          "durationTicks": 20,
          "midi": 43,
          "name": "G2",
          "ticks": 19128,
          "time": 101.62885725,
          "velocity": 0.952755905511811
        },
        {
          "duration": 0.1062618750000155,
          "durationTicks": 20,
          "midi": 43,
          "name": "G2",
          "ticks": 19176,
          "time": 101.88388574999999,
          "velocity": 0.952755905511811
        },
        {
          "duration": 0.10626187500000128,
          "durationTicks": 20,
          "midi": 43,
          "name": "G2",
          "ticks": 19224,
          "time": 102.13891425,
          "velocity": 0.952755905511811
        },
        {
          "duration": 0.10626187500000128,
          "durationTicks": 20,
          "midi": 43,
          "name": "G2",
          "ticks": 19272,
          "time": 102.39394275,
          "velocity": 0.952755905511811
        },
        {
          "duration": 0.10626187500000128,
          "durationTicks": 20,
          "midi": 43,
          "name": "G2",
          "ticks": 19320,
          "time": 102.64897125,
          "velocity": 0.952755905511811
        },
        {
          "duration": 0.1062618750000155,
          "durationTicks": 20,
          "midi": 43,
          "name": "G2",
          "ticks": 19344,
          "time": 102.77648549999999,
          "velocity": 0.952755905511811
        },
        {
          "duration": 0.10626187500000128,
          "durationTicks": 20,
          "midi": 45,
          "name": "A2",
          "ticks": 19392,
          "time": 103.031514,
          "velocity": 0.952755905511811
        },
        {
          "duration": 0.10626187500000128,
          "durationTicks": 20,
          "midi": 45,
          "name": "A2",
          "ticks": 19440,
          "time": 103.2865425,
          "velocity": 0.952755905511811
        },
        {
          "duration": 0.1062618750000155,
          "durationTicks": 20,
          "midi": 45,
          "name": "A2",
          "ticks": 19488,
          "time": 103.54157099999999,
          "velocity": 0.952755905511811
        },
        {
          "duration": 0.10626187500000128,
          "durationTicks": 20,
          "midi": 45,
          "name": "A2",
          "ticks": 19512,
          "time": 103.66908525,
          "velocity": 0.952755905511811
        },
        {
          "duration": 0.1062618750000155,
          "durationTicks": 20,
          "midi": 45,
          "name": "A2",
          "ticks": 19560,
          "time": 103.92411374999999,
          "velocity": 0.952755905511811
        },
        {
          "duration": 0.10626187500000128,
          "durationTicks": 20,
          "midi": 44,
          "name": "G#2",
          "ticks": 19608,
          "time": 104.17914225,
          "velocity": 0.952755905511811
        },
        {
          "duration": 0.1062618750000155,
          "durationTicks": 20,
          "midi": 44,
          "name": "G#2",
          "ticks": 19656,
          "time": 104.43417074999999,
          "velocity": 0.952755905511811
        },
        {
          "duration": 0.10626187500000128,
          "durationTicks": 20,
          "midi": 44,
          "name": "G#2",
          "ticks": 19704,
          "time": 104.68919925,
          "velocity": 0.952755905511811
        },
        {
          "duration": 0.1062618750000155,
          "durationTicks": 20,
          "midi": 44,
          "name": "G#2",
          "ticks": 19728,
          "time": 104.81671349999999,
          "velocity": 0.952755905511811
        },
        {
          "duration": 0.10626187500000128,
          "durationTicks": 20,
          "midi": 43,
          "name": "G2",
          "ticks": 19776,
          "time": 105.071742,
          "velocity": 0.952755905511811
        },
        {
          "duration": 0.10626187500000128,
          "durationTicks": 20,
          "midi": 43,
          "name": "G2",
          "ticks": 19824,
          "time": 105.3267705,
          "velocity": 0.952755905511811
        },
        {
          "duration": 0.1062618750000155,
          "durationTicks": 20,
          "midi": 43,
          "name": "G2",
          "ticks": 19872,
          "time": 105.58179899999999,
          "velocity": 0.952755905511811
        },
        {
          "duration": 0.10626187500000128,
          "durationTicks": 20,
          "midi": 43,
          "name": "G2",
          "ticks": 19896,
          "time": 105.70931325,
          "velocity": 0.952755905511811
        },
        {
          "duration": 0.10626187500000128,
          "durationTicks": 20,
          "midi": 43,
          "name": "G2",
          "ticks": 19944,
          "time": 105.96434175,
          "velocity": 0.952755905511811
        },
        {
          "duration": 0.10626187500000128,
          "durationTicks": 20,
          "midi": 42,
          "name": "F#2",
          "ticks": 19992,
          "time": 106.21937025,
          "velocity": 0.952755905511811
        },
        {
          "duration": 0.1062618750000155,
          "durationTicks": 20,
          "midi": 42,
          "name": "F#2",
          "ticks": 20040,
          "time": 106.47439874999999,
          "velocity": 0.952755905511811
        },
        {
          "duration": 0.10626187500000128,
          "durationTicks": 20,
          "midi": 42,
          "name": "F#2",
          "ticks": 20088,
          "time": 106.72942725,
          "velocity": 0.952755905511811
        },
        {
          "duration": 0.1062618750000155,
          "durationTicks": 20,
          "midi": 42,
          "name": "F#2",
          "ticks": 20112,
          "time": 106.85694149999999,
          "velocity": 0.952755905511811
        }
      ]
    },
    {
      "channel": 0,
      "controlChanges": {
        "6": [
          {
            "number": 6,
            "ticks": 0,
            "time": 0,
            "value": 0.09448818897637795
          }
        ],
        "7": [
          {
            "number": 7,
            "ticks": 0,
            "time": 0,
            "value": 0.7401574803149606
          },
          {
            "number": 7,
            "ticks": 0,
            "time": 0,
            "value": 0.7401574803149606
          }
        ],
        "10": [
          {
            "number": 10,
            "ticks": 0,
            "time": 0,
            "value": 0.5039370078740157
          },
          {
            "number": 10,
            "ticks": 0,
            "time": 0,
            "value": 0.5039370078740157
          }
        ],
        "100": [
          {
            "number": 100,
            "ticks": 0,
            "time": 0,
            "value": 0
          }
        ],
        "101": [
          {
            "number": 101,
            "ticks": 0,
            "time": 0,
            "value": 0
          }
        ]
      },
      "pitchBends": [
        {
          "ticks": 0,
          "time": 0,
          "value": 0
        },
        {
          "ticks": 0,
          "time": 0,
          "value": 0
        }
      ],
      "instrument": {
        "family": "piano",
        "number": 0,
        "name": "acoustic grand piano"
      },
      "name": "square",
      "notes": [],
      "endOfTrackTicks": 21120
    },
    {
      "channel": 8,
      "controlChanges": {
        "6": [
          {
            "number": 6,
            "ticks": 0,
            "time": 0,
            "value": 0.09448818897637795
          },
          {
            "number": 6,
            "ticks": 21120,
            "time": 112.21253999999999,
            "value": 0.09448818897637795
          },
          {
            "number": 6,
            "ticks": 21120,
            "time": 112.21253999999999,
            "value": 0.09448818897637795
          },
          {
            "number": 6,
            "ticks": 21120,
            "time": 112.21253999999999,
            "value": 0.09448818897637795
          }
        ],
        "7": [
          {
            "number": 7,
            "ticks": 0,
            "time": 0,
            "value": 0.7401574803149606
          },
          {
            "number": 7,
            "ticks": 0,
            "time": 0,
            "value": 0.7401574803149606
          },
          {
            "number": 7,
            "ticks": 0,
            "time": 0,
            "value": 0.7401574803149606
          },
          {
            "number": 7,
            "ticks": 8853,
            "time": 47.03681896875,
            "value": 0
          },
          {
            "number": 7,
            "ticks": 8854,
            "time": 47.0421320625,
            "value": 0
          },
          {
            "number": 7,
            "ticks": 8855,
            "time": 47.04744515625,
            "value": 0
          },
          {
            "number": 7,
            "ticks": 8856,
            "time": 47.05275825,
            "value": 0
          },
          {
            "number": 7,
            "ticks": 8857,
            "time": 47.05807134375,
            "value": 0
          },
          {
            "number": 7,
            "ticks": 8858,
            "time": 47.0633844375,
            "value": 0
          },
          {
            "number": 7,
            "ticks": 8859,
            "time": 47.068697531249995,
            "value": 0.007874015748031496
          },
          {
            "number": 7,
            "ticks": 8860,
            "time": 47.074010625,
            "value": 0.007874015748031496
          },
          {
            "number": 7,
            "ticks": 8861,
            "time": 47.07932371875,
            "value": 0.007874015748031496
          },
          {
            "number": 7,
            "ticks": 8862,
            "time": 47.0846368125,
            "value": 0.007874015748031496
          },
          {
            "number": 7,
            "ticks": 8863,
            "time": 47.08994990625,
            "value": 0.007874015748031496
          },
          {
            "number": 7,
            "ticks": 8864,
            "time": 47.095262999999996,
            "value": 0.015748031496062992
          },
          {
            "number": 7,
            "ticks": 8865,
            "time": 47.10057609375,
            "value": 0.015748031496062992
          },
          {
            "number": 7,
            "ticks": 8866,
            "time": 47.105889187500004,
            "value": 0.015748031496062992
          },
          {
            "number": 7,
            "ticks": 8867,
            "time": 47.111202281249994,
            "value": 0.015748031496062992
          },
          {
            "number": 7,
            "ticks": 8868,
            "time": 47.116515375,
            "value": 0.015748031496062992
          },
          {
            "number": 7,
            "ticks": 8869,
            "time": 47.12182846875,
            "value": 0.015748031496062992
          },
          {
            "number": 7,
            "ticks": 8870,
            "time": 47.12714156249999,
            "value": 0.023622047244094488
          },
          {
            "number": 7,
            "ticks": 8871,
            "time": 47.13245465625,
            "value": 0.023622047244094488
          },
          {
            "number": 7,
            "ticks": 8872,
            "time": 47.13776775,
            "value": 0.023622047244094488
          },
          {
            "number": 7,
            "ticks": 8873,
            "time": 47.14308084375,
            "value": 0.023622047244094488
          },
          {
            "number": 7,
            "ticks": 8874,
            "time": 47.148393937499996,
            "value": 0.023622047244094488
          },
          {
            "number": 7,
            "ticks": 8875,
            "time": 47.15370703125,
            "value": 0.031496062992125984
          },
          {
            "number": 7,
            "ticks": 8876,
            "time": 47.159020125,
            "value": 0.031496062992125984
          },
          {
            "number": 7,
            "ticks": 8877,
            "time": 47.164333218749995,
            "value": 0.031496062992125984
          },
          {
            "number": 7,
            "ticks": 8878,
            "time": 47.1696463125,
            "value": 0.031496062992125984
          },
          {
            "number": 7,
            "ticks": 8879,
            "time": 47.17495940625,
            "value": 0.031496062992125984
          },
          {
            "number": 7,
            "ticks": 8880,
            "time": 47.1802725,
            "value": 0.03937007874015748
          },
          {
            "number": 7,
            "ticks": 8881,
            "time": 47.18558559375,
            "value": 0.03937007874015748
          },
          {
            "number": 7,
            "ticks": 8882,
            "time": 47.190898687499995,
            "value": 0.03937007874015748
          },
          {
            "number": 7,
            "ticks": 8883,
            "time": 47.19621178125,
            "value": 0.03937007874015748
          },
          {
            "number": 7,
            "ticks": 8884,
            "time": 47.201524875000004,
            "value": 0.03937007874015748
          },
          {
            "number": 7,
            "ticks": 8885,
            "time": 47.206837968749994,
            "value": 0.047244094488188976
          },
          {
            "number": 7,
            "ticks": 8886,
            "time": 47.2121510625,
            "value": 0.047244094488188976
          },
          {
            "number": 7,
            "ticks": 8887,
            "time": 47.21746415625,
            "value": 0.047244094488188976
          },
          {
            "number": 7,
            "ticks": 8888,
            "time": 47.22277724999999,
            "value": 0.047244094488188976
          },
          {
            "number": 7,
            "ticks": 8889,
            "time": 47.22809034375,
            "value": 0.047244094488188976
          },
          {
            "number": 7,
            "ticks": 8890,
            "time": 47.2334034375,
            "value": 0.047244094488188976
          },
          {
            "number": 7,
            "ticks": 8891,
            "time": 47.23871653125,
            "value": 0.05511811023622047
          },
          {
            "number": 7,
            "ticks": 8892,
            "time": 47.244029624999996,
            "value": 0.05511811023622047
          },
          {
            "number": 7,
            "ticks": 8893,
            "time": 47.24934271875,
            "value": 0.05511811023622047
          },
          {
            "number": 7,
            "ticks": 8894,
            "time": 47.2546558125,
            "value": 0.05511811023622047
          },
          {
            "number": 7,
            "ticks": 8895,
            "time": 47.25996890625,
            "value": 0.05511811023622047
          },
          {
            "number": 7,
            "ticks": 8896,
            "time": 47.265282,
            "value": 0.06299212598425197
          },
          {
            "number": 7,
            "ticks": 8897,
            "time": 47.270595093749996,
            "value": 0.06299212598425197
          },
          {
            "number": 7,
            "ticks": 8898,
            "time": 47.2759081875,
            "value": 0.06299212598425197
          },
          {
            "number": 7,
            "ticks": 8899,
            "time": 47.28122128125,
            "value": 0.06299212598425197
          },
          {
            "number": 7,
            "ticks": 8900,
            "time": 47.286534374999995,
            "value": 0.06299212598425197
          },
          {
            "number": 7,
            "ticks": 8901,
            "time": 47.29184746875,
            "value": 0.07086614173228346
          },
          {
            "number": 7,
            "ticks": 8902,
            "time": 47.297160562500004,
            "value": 0.07086614173228346
          },
          {
            "number": 7,
            "ticks": 8903,
            "time": 47.302473656249994,
            "value": 0.07086614173228346
          },
          {
            "number": 7,
            "ticks": 8904,
            "time": 47.30778675,
            "value": 0.07086614173228346
          },
          {
            "number": 7,
            "ticks": 8905,
            "time": 47.31309984375,
            "value": 0.07086614173228346
          },
          {
            "number": 7,
            "ticks": 8906,
            "time": 47.31841293749999,
            "value": 0.07086614173228346
          },
          {
            "number": 7,
            "ticks": 8907,
            "time": 47.32372603125,
            "value": 0.07874015748031496
          },
          {
            "number": 7,
            "ticks": 8908,
            "time": 47.329039125,
            "value": 0.07874015748031496
          },
          {
            "number": 7,
            "ticks": 8909,
            "time": 47.33435221875,
            "value": 0.07874015748031496
          },
          {
            "number": 7,
            "ticks": 8910,
            "time": 47.339665312499996,
            "value": 0.07874015748031496
          },
          {
            "number": 7,
            "ticks": 8911,
            "time": 47.34497840625,
            "value": 0.07874015748031496
          },
          {
            "number": 7,
            "ticks": 8912,
            "time": 47.3502915,
            "value": 0.08661417322834646
          },
          {
            "number": 7,
            "ticks": 8913,
            "time": 47.35560459375,
            "value": 0.08661417322834646
          },
          {
            "number": 7,
            "ticks": 8914,
            "time": 47.3609176875,
            "value": 0.08661417322834646
          },
          {
            "number": 7,
            "ticks": 8915,
            "time": 47.366230781249996,
            "value": 0.08661417322834646
          },
          {
            "number": 7,
            "ticks": 8916,
            "time": 47.371543875,
            "value": 0.08661417322834646
          },
          {
            "number": 7,
            "ticks": 8917,
            "time": 47.37685696875,
            "value": 0.09448818897637795
          },
          {
            "number": 7,
            "ticks": 8918,
            "time": 47.382170062499995,
            "value": 0.09448818897637795
          },
          {
            "number": 7,
            "ticks": 8919,
            "time": 47.38748315625,
            "value": 0.09448818897637795
          },
          {
            "number": 7,
            "ticks": 8920,
            "time": 47.39279625,
            "value": 0.09448818897637795
          },
          {
            "number": 7,
            "ticks": 8921,
            "time": 47.398109343749994,
            "value": 0.09448818897637795
          },
          {
            "number": 7,
            "ticks": 8922,
            "time": 47.4034224375,
            "value": 0.09448818897637795
          },
          {
            "number": 7,
            "ticks": 8923,
            "time": 47.40873553125,
            "value": 0.10236220472440945
          },
          {
            "number": 7,
            "ticks": 8924,
            "time": 47.414048625,
            "value": 0.10236220472440945
          },
          {
            "number": 7,
            "ticks": 8925,
            "time": 47.41936171875,
            "value": 0.10236220472440945
          },
          {
            "number": 7,
            "ticks": 8926,
            "time": 47.4246748125,
            "value": 0.10236220472440945
          },
          {
            "number": 7,
            "ticks": 8927,
            "time": 47.42998790625,
            "value": 0.10236220472440945
          },
          {
            "number": 7,
            "ticks": 8928,
            "time": 47.435300999999995,
            "value": 0.11023622047244094
          },
          {
            "number": 7,
            "ticks": 8929,
            "time": 47.44061409375,
            "value": 0.11023622047244094
          },
          {
            "number": 7,
            "ticks": 8930,
            "time": 47.4459271875,
            "value": 0.11023622047244094
          },
          {
            "number": 7,
            "ticks": 8931,
            "time": 47.45124028125,
            "value": 0.11023622047244094
          },
          {
            "number": 7,
            "ticks": 8932,
            "time": 47.456553375,
            "value": 0.11023622047244094
          },
          {
            "number": 7,
            "ticks": 8933,
            "time": 47.461866468749996,
            "value": 0.11811023622047244
          },
          {
            "number": 7,
            "ticks": 8934,
            "time": 47.4671795625,
            "value": 0.11811023622047244
          },
          {
            "number": 7,
            "ticks": 8935,
            "time": 47.47249265625,
            "value": 0.11811023622047244
          },
          {
            "number": 7,
            "ticks": 8936,
            "time": 47.477805749999995,
            "value": 0.11811023622047244
          },
          {
            "number": 7,
            "ticks": 8937,
            "time": 47.48311884375,
            "value": 0.11811023622047244
          },
          {
            "number": 7,
            "ticks": 8938,
            "time": 47.4884319375,
            "value": 0.11811023622047244
          },
          {
            "number": 7,
            "ticks": 8939,
            "time": 47.49374503124999,
            "value": 0.12598425196850394
          },
          {
            "number": 7,
            "ticks": 8940,
            "time": 47.499058125,
            "value": 0.12598425196850394
          },
          {
            "number": 7,
            "ticks": 8941,
            "time": 47.50437121875,
            "value": 0.12598425196850394
          },
          {
            "number": 7,
            "ticks": 8942,
            "time": 47.5096843125,
            "value": 0.12598425196850394
          },
          {
            "number": 7,
            "ticks": 8943,
            "time": 47.51499740625,
            "value": 0.12598425196850394
          },
          {
            "number": 7,
            "ticks": 8944,
            "time": 47.5203105,
            "value": 0.13385826771653545
          },
          {
            "number": 7,
            "ticks": 8945,
            "time": 47.52562359375,
            "value": 0.13385826771653545
          },
          {
            "number": 7,
            "ticks": 8946,
            "time": 47.530936687499995,
            "value": 0.13385826771653545
          },
          {
            "number": 7,
            "ticks": 8947,
            "time": 47.53624978125,
            "value": 0.13385826771653545
          },
          {
            "number": 7,
            "ticks": 8948,
            "time": 47.541562875,
            "value": 0.13385826771653545
          },
          {
            "number": 7,
            "ticks": 8949,
            "time": 47.54687596875,
            "value": 0.14173228346456693
          },
          {
            "number": 7,
            "ticks": 8950,
            "time": 47.5521890625,
            "value": 0.14173228346456693
          },
          {
            "number": 7,
            "ticks": 8951,
            "time": 47.557502156249996,
            "value": 0.14173228346456693
          },
          {
            "number": 7,
            "ticks": 8952,
            "time": 47.56281525,
            "value": 0.14173228346456693
          },
          {
            "number": 7,
            "ticks": 8953,
            "time": 47.568128343750004,
            "value": 0.14173228346456693
          },
          {
            "number": 7,
            "ticks": 8954,
            "time": 47.573441437499994,
            "value": 0.14173228346456693
          },
          {
            "number": 7,
            "ticks": 8955,
            "time": 47.57875453125,
            "value": 0.14960629921259844
          },
          {
            "number": 7,
            "ticks": 8956,
            "time": 47.584067625,
            "value": 0.14960629921259844
          },
          {
            "number": 7,
            "ticks": 8957,
            "time": 47.58938071874999,
            "value": 0.14960629921259844
          },
          {
            "number": 7,
            "ticks": 8958,
            "time": 47.5946938125,
            "value": 0.14960629921259844
          },
          {
            "number": 7,
            "ticks": 8959,
            "time": 47.60000690625,
            "value": 0.14960629921259844
          },
          {
            "number": 7,
            "ticks": 8960,
            "time": 47.60532,
            "value": 0.15748031496062992
          },
          {
            "number": 7,
            "ticks": 8961,
            "time": 47.610633093749996,
            "value": 0.15748031496062992
          },
          {
            "number": 7,
            "ticks": 8962,
            "time": 47.6159461875,
            "value": 0.15748031496062992
          },
          {
            "number": 7,
            "ticks": 8963,
            "time": 47.62125928125,
            "value": 0.15748031496062992
          },
          {
            "number": 7,
            "ticks": 8964,
            "time": 47.626572374999995,
            "value": 0.15748031496062992
          },
          {
            "number": 7,
            "ticks": 8965,
            "time": 47.63188546875,
            "value": 0.16535433070866143
          },
          {
            "number": 7,
            "ticks": 8966,
            "time": 47.6371985625,
            "value": 0.16535433070866143
          },
          {
            "number": 7,
            "ticks": 8967,
            "time": 47.64251165625,
            "value": 0.16535433070866143
          },
          {
            "number": 7,
            "ticks": 8968,
            "time": 47.64782475,
            "value": 0.16535433070866143
          },
          {
            "number": 7,
            "ticks": 8969,
            "time": 47.653137843749995,
            "value": 0.16535433070866143
          },
          {
            "number": 7,
            "ticks": 8970,
            "time": 47.6584509375,
            "value": 0.16535433070866143
          },
          {
            "number": 7,
            "ticks": 8971,
            "time": 47.663764031250004,
            "value": 0.1732283464566929
          },
          {
            "number": 7,
            "ticks": 8972,
            "time": 47.669077124999994,
            "value": 0.1732283464566929
          },
          {
            "number": 7,
            "ticks": 8973,
            "time": 47.67439021875,
            "value": 0.1732283464566929
          },
          {
            "number": 7,
            "ticks": 8974,
            "time": 47.6797033125,
            "value": 0.1732283464566929
          },
          {
            "number": 7,
            "ticks": 8975,
            "time": 47.68501640624999,
            "value": 0.1732283464566929
          },
          {
            "number": 7,
            "ticks": 8976,
            "time": 47.6903295,
            "value": 0.18110236220472442
          },
          {
            "number": 7,
            "ticks": 8977,
            "time": 47.69564259375,
            "value": 0.18110236220472442
          },
          {
            "number": 7,
            "ticks": 8978,
            "time": 47.7009556875,
            "value": 0.18110236220472442
          },
          {
            "number": 7,
            "ticks": 8979,
            "time": 47.706268781249996,
            "value": 0.18110236220472442
          },
          {
            "number": 7,
            "ticks": 8980,
            "time": 47.711581875,
            "value": 0.18110236220472442
          },
          {
            "number": 7,
            "ticks": 8981,
            "time": 47.71689496875,
            "value": 0.1889763779527559
          },
          {
            "number": 7,
            "ticks": 8982,
            "time": 47.7222080625,
            "value": 0.1889763779527559
          },
          {
            "number": 7,
            "ticks": 8983,
            "time": 47.72752115625,
            "value": 0.1889763779527559
          },
          {
            "number": 7,
            "ticks": 8984,
            "time": 47.732834249999996,
            "value": 0.1889763779527559
          },
          {
            "number": 7,
            "ticks": 8985,
            "time": 47.73814734375,
            "value": 0.1889763779527559
          },
          {
            "number": 7,
            "ticks": 8986,
            "time": 47.7434604375,
            "value": 0.1889763779527559
          },
          {
            "number": 7,
            "ticks": 8987,
            "time": 47.748773531249995,
            "value": 0.1968503937007874
          },
          {
            "number": 7,
            "ticks": 8988,
            "time": 47.754086625,
            "value": 0.1968503937007874
          },
          {
            "number": 7,
            "ticks": 8989,
            "time": 47.759399718750004,
            "value": 0.1968503937007874
          },
          {
            "number": 7,
            "ticks": 8990,
            "time": 47.764712812499994,
            "value": 0.1968503937007874
          },
          {
            "number": 7,
            "ticks": 8991,
            "time": 47.77002590625,
            "value": 0.1968503937007874
          },
          {
            "number": 7,
            "ticks": 8992,
            "time": 47.775339,
            "value": 0.2047244094488189
          },
          {
            "number": 7,
            "ticks": 8993,
            "time": 47.78065209374999,
            "value": 0.2047244094488189
          },
          {
            "number": 7,
            "ticks": 8994,
            "time": 47.7859651875,
            "value": 0.2047244094488189
          },
          {
            "number": 7,
            "ticks": 8995,
            "time": 47.79127828125,
            "value": 0.2047244094488189
          },
          {
            "number": 7,
            "ticks": 8996,
            "time": 47.796591375,
            "value": 0.2047244094488189
          },
          {
            "number": 7,
            "ticks": 8997,
            "time": 47.801904468749996,
            "value": 0.2125984251968504
          },
          {
            "number": 7,
            "ticks": 8998,
            "time": 47.8072175625,
            "value": 0.2125984251968504
          },
          {
            "number": 7,
            "ticks": 8999,
            "time": 47.81253065625,
            "value": 0.2125984251968504
          },
          {
            "number": 7,
            "ticks": 9000,
            "time": 47.81784375,
            "value": 0.2125984251968504
          },
          {
            "number": 7,
            "ticks": 9001,
            "time": 47.82315684375,
            "value": 0.2125984251968504
          },
          {
            "number": 7,
            "ticks": 9002,
            "time": 47.828469937499996,
            "value": 0.2125984251968504
          },
          {
            "number": 7,
            "ticks": 9003,
            "time": 47.83378303125,
            "value": 0.2204724409448819
          },
          {
            "number": 7,
            "ticks": 9004,
            "time": 47.839096125,
            "value": 0.2204724409448819
          },
          {
            "number": 7,
            "ticks": 9005,
            "time": 47.844409218749995,
            "value": 0.2204724409448819
          },
          {
            "number": 7,
            "ticks": 9006,
            "time": 47.8497223125,
            "value": 0.2204724409448819
          },
          {
            "number": 7,
            "ticks": 9007,
            "time": 47.85503540625,
            "value": 0.2204724409448819
          },
          {
            "number": 7,
            "ticks": 9008,
            "time": 47.86034849999999,
            "value": 0.2283464566929134
          },
          {
            "number": 7,
            "ticks": 9009,
            "time": 47.86566159375,
            "value": 0.2283464566929134
          },
          {
            "number": 7,
            "ticks": 9010,
            "time": 47.8709746875,
            "value": 0.2283464566929134
          },
          {
            "number": 7,
            "ticks": 9011,
            "time": 47.87628778125,
            "value": 0.2283464566929134
          },
          {
            "number": 7,
            "ticks": 9012,
            "time": 47.881600875,
            "value": 0.2283464566929134
          },
          {
            "number": 7,
            "ticks": 9013,
            "time": 47.88691396875,
            "value": 0.23622047244094488
          },
          {
            "number": 7,
            "ticks": 9014,
            "time": 47.8922270625,
            "value": 0.23622047244094488
          },
          {
            "number": 7,
            "ticks": 9015,
            "time": 47.897540156249995,
            "value": 0.23622047244094488
          },
          {
            "number": 7,
            "ticks": 9016,
            "time": 47.90285325,
            "value": 0.23622047244094488
          },
          {
            "number": 7,
            "ticks": 9017,
            "time": 47.90816634375,
            "value": 0.23622047244094488
          },
          {
            "number": 7,
            "ticks": 9018,
            "time": 47.9134794375,
            "value": 0.23622047244094488
          },
          {
            "number": 7,
            "ticks": 9019,
            "time": 47.91879253125,
            "value": 0.2440944881889764
          },
          {
            "number": 7,
            "ticks": 9020,
            "time": 47.924105624999996,
            "value": 0.2440944881889764
          },
          {
            "number": 7,
            "ticks": 9021,
            "time": 47.92941871875,
            "value": 0.2440944881889764
          },
          {
            "number": 7,
            "ticks": 9022,
            "time": 47.9347318125,
            "value": 0.2440944881889764
          },
          {
            "number": 7,
            "ticks": 9023,
            "time": 47.940044906249994,
            "value": 0.2440944881889764
          },
          {
            "number": 7,
            "ticks": 9024,
            "time": 47.945358,
            "value": 0.25196850393700787
          },
          {
            "number": 7,
            "ticks": 9025,
            "time": 47.95067109375,
            "value": 0.25196850393700787
          },
          {
            "number": 7,
            "ticks": 9026,
            "time": 47.95598418749999,
            "value": 0.25196850393700787
          },
          {
            "number": 7,
            "ticks": 9027,
            "time": 47.96129728125,
            "value": 0.25196850393700787
          },
          {
            "number": 7,
            "ticks": 9028,
            "time": 47.966610375,
            "value": 0.25196850393700787
          },
          {
            "number": 7,
            "ticks": 9029,
            "time": 47.97192346875,
            "value": 0.25984251968503935
          },
          {
            "number": 7,
            "ticks": 9030,
            "time": 47.977236562499996,
            "value": 0.25984251968503935
          },
          {
            "number": 7,
            "ticks": 9031,
            "time": 47.98254965625,
            "value": 0.25984251968503935
          },
          {
            "number": 7,
            "ticks": 9032,
            "time": 47.98786275,
            "value": 0.25984251968503935
          },
          {
            "number": 7,
            "ticks": 9033,
            "time": 47.993175843749995,
            "value": 0.25984251968503935
          },
          {
            "number": 7,
            "ticks": 9034,
            "time": 47.9984889375,
            "value": 0.2677165354330709
          },
          {
            "number": 7,
            "ticks": 9035,
            "time": 48.00380203125,
            "value": 0.2677165354330709
          },
          {
            "number": 7,
            "ticks": 9036,
            "time": 48.009115125,
            "value": 0.2677165354330709
          },
          {
            "number": 7,
            "ticks": 9037,
            "time": 48.01442821875,
            "value": 0.2677165354330709
          },
          {
            "number": 7,
            "ticks": 9038,
            "time": 48.019741312499995,
            "value": 0.2677165354330709
          },
          {
            "number": 7,
            "ticks": 9039,
            "time": 48.02505440625,
            "value": 0.2677165354330709
          },
          {
            "number": 7,
            "ticks": 9040,
            "time": 48.030367500000004,
            "value": 0.2755905511811024
          },
          {
            "number": 7,
            "ticks": 9041,
            "time": 48.035680593749994,
            "value": 0.2755905511811024
          },
          {
            "number": 7,
            "ticks": 9042,
            "time": 48.0409936875,
            "value": 0.2755905511811024
          },
          {
            "number": 7,
            "ticks": 9043,
            "time": 48.04630678125,
            "value": 0.2755905511811024
          },
          {
            "number": 7,
            "ticks": 9044,
            "time": 48.05161987499999,
            "value": 0.2755905511811024
          },
          {
            "number": 7,
            "ticks": 9045,
            "time": 48.05693296875,
            "value": 0.28346456692913385
          },
          {
            "number": 7,
            "ticks": 9046,
            "time": 48.0622460625,
            "value": 0.28346456692913385
          },
          {
            "number": 7,
            "ticks": 9047,
            "time": 48.06755915625,
            "value": 0.28346456692913385
          },
          {
            "number": 7,
            "ticks": 9048,
            "time": 48.072872249999996,
            "value": 0
          },
          {
            "number": 7,
            "ticks": 9066,
            "time": 48.168507937499996,
            "value": 0
          },
          {
            "number": 7,
            "ticks": 9067,
            "time": 48.17382103125,
            "value": 0
          },
          {
            "number": 7,
            "ticks": 9068,
            "time": 48.179134125,
            "value": 0
          },
          {
            "number": 7,
            "ticks": 9069,
            "time": 48.18444721875,
            "value": 0.007874015748031496
          },
          {
            "number": 7,
            "ticks": 9070,
            "time": 48.1897603125,
            "value": 0.007874015748031496
          },
          {
            "number": 7,
            "ticks": 9071,
            "time": 48.195073406249996,
            "value": 0.007874015748031496
          },
          {
            "number": 7,
            "ticks": 9072,
            "time": 48.2003865,
            "value": 0.015748031496062992
          },
          {
            "number": 7,
            "ticks": 9073,
            "time": 48.20569959375,
            "value": 0.015748031496062992
          },
          {
            "number": 7,
            "ticks": 9074,
            "time": 48.211012687499995,
            "value": 0.015748031496062992
          },
          {
            "number": 7,
            "ticks": 9075,
            "time": 48.21632578125,
            "value": 0.023622047244094488
          },
          {
            "number": 7,
            "ticks": 9076,
            "time": 48.221638875000004,
            "value": 0.023622047244094488
          },
          {
            "number": 7,
            "ticks": 9077,
            "time": 48.226951968749994,
            "value": 0.023622047244094488
          },
          {
            "number": 7,
            "ticks": 9078,
            "time": 48.2322650625,
            "value": 0.031496062992125984
          },
          {
            "number": 7,
            "ticks": 9079,
            "time": 48.23757815625,
            "value": 0.031496062992125984
          },
          {
            "number": 7,
            "ticks": 9080,
            "time": 48.24289124999999,
            "value": 0.031496062992125984
          },
          {
            "number": 7,
            "ticks": 9081,
            "time": 48.24820434375,
            "value": 0.3779527559055118
          },
          {
            "number": 7,
            "ticks": 9082,
            "time": 48.2535174375,
            "value": 0.3779527559055118
          },
          {
            "number": 7,
            "ticks": 9083,
            "time": 48.25883053125,
            "value": 0.3779527559055118
          },
          {
            "number": 7,
            "ticks": 9084,
            "time": 48.264143624999996,
            "value": 0.3779527559055118
          },
          {
            "number": 7,
            "ticks": 9085,
            "time": 48.26945671875,
            "value": 0.3779527559055118
          },
          {
            "number": 7,
            "ticks": 9086,
            "time": 48.2747698125,
            "value": 0.3779527559055118
          },
          {
            "number": 7,
            "ticks": 9087,
            "time": 48.28008290625,
            "value": 0.3779527559055118
          },
          {
            "number": 7,
            "ticks": 9088,
            "time": 48.285396,
            "value": 0.3779527559055118
          },
          {
            "number": 7,
            "ticks": 9089,
            "time": 48.290709093749996,
            "value": 0.3700787401574803
          },
          {
            "number": 7,
            "ticks": 9090,
            "time": 48.2960221875,
            "value": 0.3700787401574803
          },
          {
            "number": 7,
            "ticks": 9091,
            "time": 48.30133528125,
            "value": 0.3700787401574803
          },
          {
            "number": 7,
            "ticks": 9092,
            "time": 48.306648374999995,
            "value": 0.3700787401574803
          },
          {
            "number": 7,
            "ticks": 9093,
            "time": 48.31196146875,
            "value": 0.3700787401574803
          },
          {
            "number": 7,
            "ticks": 9094,
            "time": 48.3172745625,
            "value": 0.3700787401574803
          },
          {
            "number": 7,
            "ticks": 9095,
            "time": 48.32258765624999,
            "value": 0.3700787401574803
          },
          {
            "number": 7,
            "ticks": 9096,
            "time": 48.32790075,
            "value": 0.36220472440944884
          },
          {
            "number": 7,
            "ticks": 9097,
            "time": 48.33321384375,
            "value": 0.36220472440944884
          },
          {
            "number": 7,
            "ticks": 9098,
            "time": 48.3385269375,
            "value": 0.36220472440944884
          },
          {
            "number": 7,
            "ticks": 9099,
            "time": 48.34384003125,
            "value": 0.36220472440944884
          },
          {
            "number": 7,
            "ticks": 9100,
            "time": 48.349153125,
            "value": 0.36220472440944884
          },
          {
            "number": 7,
            "ticks": 9101,
            "time": 48.35446621875,
            "value": 0.36220472440944884
          },
          {
            "number": 7,
            "ticks": 9102,
            "time": 48.359779312499995,
            "value": 0.36220472440944884
          },
          {
            "number": 7,
            "ticks": 9103,
            "time": 48.36509240625,
            "value": 0.36220472440944884
          },
          {
            "number": 7,
            "ticks": 9104,
            "time": 48.3704055,
            "value": 0.3543307086614173
          },
          {
            "number": 7,
            "ticks": 9105,
            "time": 48.37571859375,
            "value": 0.3543307086614173
          },
          {
            "number": 7,
            "ticks": 9106,
            "time": 48.3810316875,
            "value": 0.3543307086614173
          },
          {
            "number": 7,
            "ticks": 9107,
            "time": 48.386344781249996,
            "value": 0.3543307086614173
          },
          {
            "number": 7,
            "ticks": 9108,
            "time": 48.391657875,
            "value": 0.3543307086614173
          },
          {
            "number": 7,
            "ticks": 9109,
            "time": 48.396970968750004,
            "value": 0.3543307086614173
          },
          {
            "number": 7,
            "ticks": 9110,
            "time": 48.402284062499994,
            "value": 0.3543307086614173
          },
          {
            "number": 7,
            "ticks": 9111,
            "time": 48.40759715625,
            "value": 0.3464566929133858
          },
          {
            "number": 7,
            "ticks": 9112,
            "time": 48.41291025,
            "value": 0.3464566929133858
          },
          {
            "number": 7,
            "ticks": 9113,
            "time": 48.41822334374999,
            "value": 0.3464566929133858
          },
          {
            "number": 7,
            "ticks": 9114,
            "time": 48.4235364375,
            "value": 0.3464566929133858
          },
          {
            "number": 7,
            "ticks": 9115,
            "time": 48.42884953125,
            "value": 0.3464566929133858
          },
          {
            "number": 7,
            "ticks": 9116,
            "time": 48.434162625,
            "value": 0.3464566929133858
          },
          {
            "number": 7,
            "ticks": 9117,
            "time": 48.439475718749996,
            "value": 0.3464566929133858
          },
          {
            "number": 7,
            "ticks": 9118,
            "time": 48.4447888125,
            "value": 0.33858267716535434
          },
          {
            "number": 7,
            "ticks": 9119,
            "time": 48.45010190625,
            "value": 0.33858267716535434
          },
          {
            "number": 7,
            "ticks": 9120,
            "time": 48.455414999999995,
            "value": 0.33858267716535434
          },
          {
            "number": 7,
            "ticks": 9121,
            "time": 48.46072809375,
            "value": 0.33858267716535434
          },
          {
            "number": 7,
            "ticks": 9122,
            "time": 48.4660411875,
            "value": 0.33858267716535434
          },
          {
            "number": 7,
            "ticks": 9123,
            "time": 48.47135428125,
            "value": 0.33858267716535434
          },
          {
            "number": 7,
            "ticks": 9124,
            "time": 48.476667375,
            "value": 0.33070866141732286
          },
          {
            "number": 7,
            "ticks": 9125,
            "time": 48.481980468749995,
            "value": 0.33070866141732286
          },
          {
            "number": 7,
            "ticks": 9126,
            "time": 48.4872935625,
            "value": 0.33070866141732286
          },
          {
            "number": 7,
            "ticks": 9127,
            "time": 48.492606656250004,
            "value": 0.33070866141732286
          },
          {
            "number": 7,
            "ticks": 9128,
            "time": 48.497919749999994,
            "value": 0.33070866141732286
          },
          {
            "number": 7,
            "ticks": 9129,
            "time": 48.50323284375,
            "value": 0.33070866141732286
          },
          {
            "number": 7,
            "ticks": 9130,
            "time": 48.5085459375,
            "value": 0.3228346456692913
          },
          {
            "number": 7,
            "ticks": 9131,
            "time": 48.51385903124999,
            "value": 0.3228346456692913
          },
          {
            "number": 7,
            "ticks": 9132,
            "time": 48.519172125,
            "value": 0.3228346456692913
          },
          {
            "number": 7,
            "ticks": 9133,
            "time": 48.52448521875,
            "value": 0.3228346456692913
          },
          {
            "number": 7,
            "ticks": 9134,
            "time": 48.5297983125,
            "value": 0.3228346456692913
          },
          {
            "number": 7,
            "ticks": 9135,
            "time": 48.535111406249996,
            "value": 0.3228346456692913
          },
          {
            "number": 7,
            "ticks": 9136,
            "time": 48.5404245,
            "value": 0.31496062992125984
          },
          {
            "number": 7,
            "ticks": 9137,
            "time": 48.54573759375,
            "value": 0.31496062992125984
          },
          {
            "number": 7,
            "ticks": 9138,
            "time": 48.5510506875,
            "value": 0.31496062992125984
          },
          {
            "number": 7,
            "ticks": 9139,
            "time": 48.55636378125,
            "value": 0.31496062992125984
          },
          {
            "number": 7,
            "ticks": 9140,
            "time": 48.561676874999996,
            "value": 0.31496062992125984
          },
          {
            "number": 7,
            "ticks": 9141,
            "time": 48.56698996875,
            "value": 0.31496062992125984
          },
          {
            "number": 7,
            "ticks": 9142,
            "time": 48.5723030625,
            "value": 0.30708661417322836
          },
          {
            "number": 7,
            "ticks": 9143,
            "time": 48.577616156249995,
            "value": 0.30708661417322836
          },
          {
            "number": 7,
            "ticks": 9144,
            "time": 48.58292925,
            "value": 0.30708661417322836
          },
          {
            "number": 7,
            "ticks": 9145,
            "time": 48.588242343750004,
            "value": 0.30708661417322836
          },
          {
            "number": 7,
            "ticks": 9146,
            "time": 48.593555437499994,
            "value": 0.30708661417322836
          },
          {
            "number": 7,
            "ticks": 9147,
            "time": 48.59886853125,
            "value": 0.30708661417322836
          },
          {
            "number": 7,
            "ticks": 9148,
            "time": 48.604181625,
            "value": 0.30708661417322836
          },
          {
            "number": 7,
            "ticks": 9149,
            "time": 48.60949471874999,
            "value": 0.2992125984251969
          },
          {
            "number": 7,
            "ticks": 9150,
            "time": 48.6148078125,
            "value": 0.2992125984251969
          },
          {
            "number": 7,
            "ticks": 9151,
            "time": 48.62012090625,
            "value": 0.2992125984251969
          },
          {
            "number": 7,
            "ticks": 9152,
            "time": 48.625434,
            "value": 0.2992125984251969
          },
          {
            "number": 7,
            "ticks": 9153,
            "time": 48.630747093749996,
            "value": 0.2992125984251969
          },
          {
            "number": 7,
            "ticks": 9154,
            "time": 48.6360601875,
            "value": 0.2992125984251969
          },
          {
            "number": 7,
            "ticks": 9155,
            "time": 48.64137328125,
            "value": 0.2992125984251969
          },
          {
            "number": 7,
            "ticks": 9156,
            "time": 48.646686375,
            "value": 0.2992125984251969
          },
          {
            "number": 7,
            "ticks": 9157,
            "time": 48.65199946875,
            "value": 0.29133858267716534
          },
          {
            "number": 7,
            "ticks": 9158,
            "time": 48.657312562499996,
            "value": 0.29133858267716534
          },
          {
            "number": 7,
            "ticks": 9159,
            "time": 48.66262565625,
            "value": 0.29133858267716534
          },
          {
            "number": 7,
            "ticks": 9160,
            "time": 48.66793875,
            "value": 0.29133858267716534
          },
          {
            "number": 7,
            "ticks": 9161,
            "time": 48.673251843749995,
            "value": 0.29133858267716534
          },
          {
            "number": 7,
            "ticks": 9162,
            "time": 48.6785649375,
            "value": 0
          },
          {
            "number": 7,
            "ticks": 9175,
            "time": 48.74763515625,
            "value": 0.7401574803149606
          },
          {
            "number": 7,
            "ticks": 9200,
            "time": 48.88046249999999,
            "value": 0
          },
          {
            "number": 7,
            "ticks": 9227,
            "time": 49.023916031249996,
            "value": 0
          },
          {
            "number": 7,
            "ticks": 9228,
            "time": 49.029229125,
            "value": 0.007874015748031496
          },
          {
            "number": 7,
            "ticks": 9229,
            "time": 49.03454221875,
            "value": 0.015748031496062992
          },
          {
            "number": 7,
            "ticks": 9230,
            "time": 49.039855312499995,
            "value": 0.023622047244094488
          },
          {
            "number": 7,
            "ticks": 9231,
            "time": 49.04516840625,
            "value": 0.031496062992125984
          },
          {
            "number": 7,
            "ticks": 9232,
            "time": 49.050481500000004,
            "value": 0.03937007874015748
          },
          {
            "number": 7,
            "ticks": 9233,
            "time": 49.055794593749994,
            "value": 0.047244094488188976
          },
          {
            "number": 7,
            "ticks": 9234,
            "time": 49.0611076875,
            "value": 0.05511811023622047
          },
          {
            "number": 7,
            "ticks": 9235,
            "time": 49.06642078125,
            "value": 0.06299212598425197
          },
          {
            "number": 7,
            "ticks": 9236,
            "time": 49.07173387499999,
            "value": 0.07086614173228346
          },
          {
            "number": 7,
            "ticks": 9237,
            "time": 49.07704696875,
            "value": 0.07874015748031496
          },
          {
            "number": 7,
            "ticks": 9238,
            "time": 49.0823600625,
            "value": 0.08661417322834646
          },
          {
            "number": 7,
            "ticks": 9239,
            "time": 49.08767315625,
            "value": 0.09448818897637795
          },
          {
            "number": 7,
            "ticks": 9240,
            "time": 49.092986249999996,
            "value": 0.10236220472440945
          },
          {
            "number": 7,
            "ticks": 9241,
            "time": 49.09829934375,
            "value": 0.11023622047244094
          },
          {
            "number": 7,
            "ticks": 9242,
            "time": 49.1036124375,
            "value": 0.11811023622047244
          },
          {
            "number": 7,
            "ticks": 9243,
            "time": 49.10892553125,
            "value": 0.12598425196850394
          },
          {
            "number": 7,
            "ticks": 9244,
            "time": 49.114238625,
            "value": 0.12598425196850394
          },
          {
            "number": 7,
            "ticks": 9245,
            "time": 49.119551718749996,
            "value": 0.13385826771653545
          },
          {
            "number": 7,
            "ticks": 9246,
            "time": 49.1248648125,
            "value": 0.14173228346456693
          },
          {
            "number": 7,
            "ticks": 9247,
            "time": 49.13017790625,
            "value": 0.14960629921259844
          },
          {
            "number": 7,
            "ticks": 9248,
            "time": 49.135490999999995,
            "value": 0.15748031496062992
          },
          {
            "number": 7,
            "ticks": 9249,
            "time": 49.14080409375,
            "value": 0.16535433070866143
          },
          {
            "number": 7,
            "ticks": 9250,
            "time": 49.1461171875,
            "value": 0.1732283464566929
          },
          {
            "number": 7,
            "ticks": 9251,
            "time": 49.15143028124999,
            "value": 0.18110236220472442
          },
          {
            "number": 7,
            "ticks": 9252,
            "time": 49.156743375,
            "value": 0.1889763779527559
          },
          {
            "number": 7,
            "ticks": 9253,
            "time": 49.16205646875,
            "value": 0.1968503937007874
          },
          {
            "number": 7,
            "ticks": 9254,
            "time": 49.1673695625,
            "value": 0.2047244094488189
          },
          {
            "number": 7,
            "ticks": 9255,
            "time": 49.17268265625,
            "value": 0.2125984251968504
          },
          {
            "number": 7,
            "ticks": 9256,
            "time": 49.17799575,
            "value": 0.2204724409448819
          },
          {
            "number": 7,
            "ticks": 9257,
            "time": 49.18330884375,
            "value": 0.2283464566929134
          },
          {
            "number": 7,
            "ticks": 9258,
            "time": 49.188621937499995,
            "value": 0.23622047244094488
          },
          {
            "number": 7,
            "ticks": 9259,
            "time": 49.19393503125,
            "value": 0.2440944881889764
          },
          {
            "number": 7,
            "ticks": 9260,
            "time": 49.199248125,
            "value": 0.25196850393700787
          },
          {
            "number": 7,
            "ticks": 9261,
            "time": 49.20456121875,
            "value": 0.25196850393700787
          },
          {
            "number": 7,
            "ticks": 9262,
            "time": 49.2098743125,
            "value": 0.25984251968503935
          },
          {
            "number": 7,
            "ticks": 9263,
            "time": 49.215187406249996,
            "value": 0.2677165354330709
          },
          {
            "number": 7,
            "ticks": 9264,
            "time": 49.2205005,
            "value": 0.2755905511811024
          },
          {
            "number": 7,
            "ticks": 9265,
            "time": 49.22581359375,
            "value": 0.28346456692913385
          },
          {
            "number": 7,
            "ticks": 9266,
            "time": 49.231126687499994,
            "value": 0.29133858267716534
          },
          {
            "number": 7,
            "ticks": 9267,
            "time": 49.23643978125,
            "value": 0.2992125984251969
          },
          {
            "number": 7,
            "ticks": 9268,
            "time": 49.241752875,
            "value": 0.30708661417322836
          },
          {
            "number": 7,
            "ticks": 9269,
            "time": 49.24706596874999,
            "value": 0.31496062992125984
          },
          {
            "number": 7,
            "ticks": 9270,
            "time": 49.2523790625,
            "value": 0.3228346456692913
          },
          {
            "number": 7,
            "ticks": 9271,
            "time": 49.25769215625,
            "value": 0.33070866141732286
          },
          {
            "number": 7,
            "ticks": 9272,
            "time": 49.26300525,
            "value": 0.33858267716535434
          },
          {
            "number": 7,
            "ticks": 9273,
            "time": 49.268318343749996,
            "value": 0.3464566929133858
          },
          {
            "number": 7,
            "ticks": 9274,
            "time": 49.2736314375,
            "value": 0.3543307086614173
          },
          {
            "number": 7,
            "ticks": 9275,
            "time": 49.27894453125,
            "value": 0.36220472440944884
          },
          {
            "number": 7,
            "ticks": 9276,
            "time": 49.284257624999995,
            "value": 0.3700787401574803
          },
          {
            "number": 7,
            "ticks": 9277,
            "time": 49.28957071875,
            "value": 0.3779527559055118
          },
          {
            "number": 7,
            "ticks": 9278,
            "time": 49.2948838125,
            "value": 0.3779527559055118
          },
          {
            "number": 7,
            "ticks": 9279,
            "time": 49.30019690625,
            "value": 0.3858267716535433
          },
          {
            "number": 7,
            "ticks": 9280,
            "time": 49.30551,
            "value": 0.3937007874015748
          },
          {
            "number": 7,
            "ticks": 9281,
            "time": 49.310823093749995,
            "value": 0.4015748031496063
          },
          {
            "number": 7,
            "ticks": 9282,
            "time": 49.3161361875,
            "value": 0.4094488188976378
          },
          {
            "number": 7,
            "ticks": 9283,
            "time": 49.321449281250004,
            "value": 0.41732283464566927
          },
          {
            "number": 7,
            "ticks": 9284,
            "time": 49.326762374999994,
            "value": 0.4251968503937008
          },
          {
            "number": 7,
            "ticks": 9285,
            "time": 49.33207546875,
            "value": 0.4330708661417323
          },
          {
            "number": 7,
            "ticks": 9286,
            "time": 49.3373885625,
            "value": 0.4409448818897638
          },
          {
            "number": 7,
            "ticks": 9287,
            "time": 49.34270165624999,
            "value": 0.44881889763779526
          },
          {
            "number": 7,
            "ticks": 9288,
            "time": 49.34801475,
            "value": 0.4566929133858268
          },
          {
            "number": 7,
            "ticks": 9289,
            "time": 49.35332784375,
            "value": 0.4645669291338583
          },
          {
            "number": 7,
            "ticks": 9290,
            "time": 49.3586409375,
            "value": 0.47244094488188976
          },
          {
            "number": 7,
            "ticks": 9291,
            "time": 49.363954031249996,
            "value": 0.48031496062992124
          },
          {
            "number": 7,
            "ticks": 9292,
            "time": 49.369267125,
            "value": 0.4881889763779528
          },
          {
            "number": 7,
            "ticks": 9293,
            "time": 49.37458021875,
            "value": 0.49606299212598426
          },
          {
            "number": 7,
            "ticks": 9294,
            "time": 49.379893312499995,
            "value": 0.5039370078740157
          },
          {
            "number": 7,
            "ticks": 9295,
            "time": 49.38520640625,
            "value": 0.5039370078740157
          },
          {
            "number": 7,
            "ticks": 9296,
            "time": 49.390519499999996,
            "value": 0.5118110236220472
          },
          {
            "number": 7,
            "ticks": 9297,
            "time": 49.39583259375,
            "value": 0.5196850393700787
          },
          {
            "number": 7,
            "ticks": 9298,
            "time": 49.4011456875,
            "value": 0.5275590551181102
          },
          {
            "number": 7,
            "ticks": 9299,
            "time": 49.406458781249995,
            "value": 0.5354330708661418
          },
          {
            "number": 7,
            "ticks": 9300,
            "time": 49.411771875,
            "value": 0.5433070866141733
          },
          {
            "number": 7,
            "ticks": 9301,
            "time": 49.417084968750004,
            "value": 0.5511811023622047
          },
          {
            "number": 7,
            "ticks": 9302,
            "time": 49.422398062499994,
            "value": 0.5590551181102362
          },
          {
            "number": 7,
            "ticks": 9303,
            "time": 49.42771115625,
            "value": 0.5669291338582677
          },
          {
            "number": 7,
            "ticks": 9304,
            "time": 49.43302425,
            "value": 0.5748031496062992
          },
          {
            "number": 7,
            "ticks": 9305,
            "time": 49.43833734374999,
            "value": 0.5826771653543307
          },
          {
            "number": 7,
            "ticks": 9306,
            "time": 49.4436504375,
            "value": 0.5905511811023622
          },
          {
            "number": 7,
            "ticks": 9307,
            "time": 49.44896353125,
            "value": 0.5984251968503937
          },
          {
            "number": 7,
            "ticks": 9308,
            "time": 49.454276625,
            "value": 0.6062992125984252
          },
          {
            "number": 7,
            "ticks": 9309,
            "time": 49.459589718749996,
            "value": 0.6141732283464567
          },
          {
            "number": 7,
            "ticks": 9310,
            "time": 49.4649028125,
            "value": 0.6220472440944882
          },
          {
            "number": 7,
            "ticks": 9311,
            "time": 49.47021590625,
            "value": 0.6299212598425197
          },
          {
            "number": 7,
            "ticks": 9312,
            "time": 49.475529,
            "value": 0.6299212598425197
          },
          {
            "number": 7,
            "ticks": 9313,
            "time": 49.48084209375,
            "value": 0.6377952755905512
          },
          {
            "number": 7,
            "ticks": 9314,
            "time": 49.486155187499996,
            "value": 0.6456692913385826
          },
          {
            "number": 7,
            "ticks": 9315,
            "time": 49.49146828125,
            "value": 0.6535433070866141
          },
          {
            "number": 7,
            "ticks": 9316,
            "time": 49.496781375,
            "value": 0.6614173228346457
          },
          {
            "number": 7,
            "ticks": 9317,
            "time": 49.502094468749995,
            "value": 0.6692913385826772
          },
          {
            "number": 7,
            "ticks": 9318,
            "time": 49.5074075625,
            "value": 0.6771653543307087
          },
          {
            "number": 7,
            "ticks": 9319,
            "time": 49.51272065625,
            "value": 0.6850393700787402
          },
          {
            "number": 7,
            "ticks": 9320,
            "time": 49.518033749999994,
            "value": 0.6929133858267716
          },
          {
            "number": 7,
            "ticks": 9321,
            "time": 49.52334684375,
            "value": 0.7007874015748031
          },
          {
            "number": 7,
            "ticks": 9322,
            "time": 49.5286599375,
            "value": 0.7086614173228346
          },
          {
            "number": 7,
            "ticks": 9323,
            "time": 49.53397303124999,
            "value": 0.7165354330708661
          },
          {
            "number": 7,
            "ticks": 9324,
            "time": 49.539286125,
            "value": 0.7244094488188977
          },
          {
            "number": 7,
            "ticks": 9325,
            "time": 49.54459921875,
            "value": 0.7322834645669292
          },
          {
            "number": 7,
            "ticks": 9326,
            "time": 49.5499123125,
            "value": 0.7401574803149606
          },
          {
            "number": 7,
            "ticks": 21120,
            "time": 112.21253999999999,
            "value": 0.7401574803149606
          },
          {
            "number": 7,
            "ticks": 21120,
            "time": 112.21253999999999,
            "value": 0.7401574803149606
          },
          {
            "number": 7,
            "ticks": 21120,
            "time": 112.21253999999999,
            "value": 0.7401574803149606
          }
        ],
        "10": [
          {
            "number": 10,
            "ticks": 0,
            "time": 0,
            "value": 0.5039370078740157
          },
          {
            "number": 10,
            "ticks": 0,
            "time": 0,
            "value": 0.5039370078740157
          },
          {
            "number": 10,
            "ticks": 0,
            "time": 0,
            "value": 0.5039370078740157
          },
          {
            "number": 10,
            "ticks": 21120,
            "time": 112.21253999999999,
            "value": 0.5039370078740157
          },
          {
            "number": 10,
            "ticks": 21120,
            "time": 112.21253999999999,
            "value": 0.5039370078740157
          },
          {
            "number": 10,
            "ticks": 21120,
            "time": 112.21253999999999,
            "value": 0.5039370078740157
          }
        ],
        "100": [
          {
            "number": 100,
            "ticks": 0,
            "time": 0,
            "value": 0
          },
          {
            "number": 100,
            "ticks": 21120,
            "time": 112.21253999999999,
            "value": 0
          },
          {
            "number": 100,
            "ticks": 21120,
            "time": 112.21253999999999,
            "value": 0
          },
          {
            "number": 100,
            "ticks": 21120,
            "time": 112.21253999999999,
            "value": 0
          }
        ],
        "101": [
          {
            "number": 101,
            "ticks": 0,
            "time": 0,
            "value": 0
          },
          {
            "number": 101,
            "ticks": 21120,
            "time": 112.21253999999999,
            "value": 0
          },
          {
            "number": 101,
            "ticks": 21120,
            "time": 112.21253999999999,
            "value": 0
          },
          {
            "number": 101,
            "ticks": 21120,
            "time": 112.21253999999999,
            "value": 0
          }
        ]
      },
      "pitchBends": [
        {
          "ticks": 0,
          "time": 0,
          "value": 0
        },
        {
          "ticks": 0,
          "time": 0,
          "value": 0
        },
        {
          "ticks": 0,
          "time": 0,
          "value": 0
        },
        {
          "ticks": 21120,
          "time": 112.21253999999999,
          "value": 0
        },
        {
          "ticks": 21120,
          "time": 112.21253999999999,
          "value": 0
        },
        {
          "ticks": 21120,
          "time": 112.21253999999999,
          "value": 0
        }
      ],
      "instrument": {
        "family": "synth lead",
        "number": 80,
        "name": "lead 1 (square)"
      },
      "name": "",
      "notes": [
        {
          "duration": 0.9032259374999967,
          "durationTicks": 170,
          "midi": 71,
          "name": "B4",
          "ticks": 9216,
          "time": 48.965472,
          "velocity": 0.952755905511811
        },
        {
          "duration": 0.23377612499999856,
          "durationTicks": 44,
          "midi": 76,
          "name": "E5",
          "ticks": 9408,
          "time": 49.985586,
          "velocity": 0.952755905511811
        },
        {
          "duration": 0.10626187499999418,
          "durationTicks": 20,
          "midi": 76,
          "name": "E5",
          "ticks": 9456,
          "time": 50.2406145,
          "velocity": 0.952755905511811
        },
        {
          "duration": 0.10626187500000128,
          "durationTicks": 20,
          "midi": 76,
          "name": "E5",
          "ticks": 9480,
          "time": 50.36812875,
          "velocity": 0.952755905511811
        },
        {
          "duration": 0.10626187499999418,
          "durationTicks": 20,
          "midi": 76,
          "name": "E5",
          "ticks": 9528,
          "time": 50.62315725,
          "velocity": 0.952755905511811
        },
        {
          "duration": 0.23377612499999856,
          "durationTicks": 44,
          "midi": 76,
          "name": "E5",
          "ticks": 9576,
          "time": 50.87818575,
          "velocity": 0.952755905511811
        },
        {
          "duration": 0.10626187499999418,
          "durationTicks": 20,
          "midi": 74,
          "name": "D5",
          "ticks": 9624,
          "time": 51.13321425,
          "velocity": 0.952755905511811
        },
        {
          "duration": 0.6163188749999975,
          "durationTicks": 116,
          "midi": 74,
          "name": "D5",
          "ticks": 9672,
          "time": 51.388242749999996,
          "velocity": 0.952755905511811
        },
        {
          "duration": 0.23377612499999856,
          "durationTicks": 44,
          "midi": 76,
          "name": "E5",
          "ticks": 9792,
          "time": 52.025814,
          "velocity": 0.952755905511811
        },
        {
          "duration": 0.10626187499999418,
          "durationTicks": 20,
          "midi": 76,
          "name": "E5",
          "ticks": 9840,
          "time": 52.2808425,
          "velocity": 0.952755905511811
        },
        {
          "duration": 0.10626187500000128,
          "durationTicks": 20,
          "midi": 76,
          "name": "E5",
          "ticks": 9864,
          "time": 52.408356749999996,
          "velocity": 0.952755905511811
        },
        {
          "duration": 0.23377612499999856,
          "durationTicks": 44,
          "midi": 76,
          "name": "E5",
          "ticks": 9912,
          "time": 52.66338525,
          "velocity": 0.952755905511811
        },
        {
          "duration": 0.23377612499999856,
          "durationTicks": 44,
          "midi": 72,
          "name": "C5",
          "ticks": 9960,
          "time": 52.91841375,
          "velocity": 0.952755905511811
        },
        {
          "duration": 0.23377612499999145,
          "durationTicks": 44,
          "midi": 76,
          "name": "E5",
          "ticks": 10008,
          "time": 53.17344225,
          "velocity": 0.952755905511811
        },
        {
          "duration": 0.23377612499999856,
          "durationTicks": 44,
          "midi": 81,
          "name": "A5",
          "ticks": 10056,
          "time": 53.428470749999995,
          "velocity": 0.952755905511811
        },
        {
          "duration": 0.10626187500000128,
          "durationTicks": 20,
          "midi": 76,
          "name": "E5",
          "ticks": 10104,
          "time": 53.68349925,
          "velocity": 0.952755905511811
        },
        {
          "duration": 0.10626187499999418,
          "durationTicks": 20,
          "midi": 74,
          "name": "D5",
          "ticks": 10128,
          "time": 53.8110135,
          "velocity": 0.952755905511811
        },
        {
          "duration": 0.23377612499999856,
          "durationTicks": 44,
          "midi": 81,
          "name": "A5",
          "ticks": 10176,
          "time": 54.066041999999996,
          "velocity": 0.952755905511811
        },
        {
          "duration": 0.23377612499999856,
          "durationTicks": 44,
          "midi": 76,
          "name": "E5",
          "ticks": 10224,
          "time": 54.3210705,
          "velocity": 0.952755905511811
        },
        {
          "duration": 0.23377612499999856,
          "durationTicks": 44,
          "midi": 74,
          "name": "D5",
          "ticks": 10272,
          "time": 54.576099,
          "velocity": 0.952755905511811
        },
        {
          "duration": 0.23377612499999145,
          "durationTicks": 44,
          "midi": 72,
          "name": "C5",
          "ticks": 10320,
          "time": 54.8311275,
          "velocity": 0.952755905511811
        },
        {
          "duration": 0.23377612499999856,
          "durationTicks": 44,
          "midi": 79,
          "name": "G5",
          "ticks": 10368,
          "time": 55.086155999999995,
          "velocity": 0.952755905511811
        },
        {
          "duration": 0.23377612499999856,
          "durationTicks": 44,
          "midi": 74,
          "name": "D5",
          "ticks": 10416,
          "time": 55.3411845,
          "velocity": 0.952755905511811
        },
        {
          "duration": 0.23377612499999856,
          "durationTicks": 44,
          "midi": 72,
          "name": "C5",
          "ticks": 10464,
          "time": 55.596213,
          "velocity": 0.952755905511811
        },
        {
          "duration": 0.23377612499999856,
          "durationTicks": 44,
          "midi": 71,
          "name": "B4",
          "ticks": 10512,
          "time": 55.8512415,
          "velocity": 0.952755905511811
        },
        {
          "duration": 0.23377612499999856,
          "durationTicks": 44,
          "midi": 65,
          "name": "F4",
          "ticks": 10560,
          "time": 56.106269999999995,
          "velocity": 0.952755905511811
        },
        {
          "duration": 0.10626187500000128,
          "durationTicks": 20,
          "midi": 67,
          "name": "G4",
          "ticks": 10608,
          "time": 56.3612985,
          "velocity": 0.952755905511811
        },
        {
          "duration": 0.10626187499999418,
          "durationTicks": 20,
          "midi": 69,
          "name": "A4",
          "ticks": 10632,
          "time": 56.48881275,
          "velocity": 0.952755905511811
        },
        {
          "duration": 0.10626187500000128,
          "durationTicks": 20,
          "midi": 72,
          "name": "C5",
          "ticks": 10680,
          "time": 56.743841249999996,
          "velocity": 0.952755905511811
        },
        {
          "duration": 1.1263758750000008,
          "durationTicks": 212,
          "midi": 79,
          "name": "G5",
          "ticks": 10728,
          "time": 56.99886975,
          "velocity": 0.952755905511811
        }
      ]
    },
    {
      "channel": 0,
      "controlChanges": {
        "6": [
          {
            "number": 6,
            "ticks": 0,
            "time": 0,
            "value": 0.09448818897637795
          }
        ],
        "7": [
          {
            "number": 7,
            "ticks": 0,
            "time": 0,
            "value": 0.44881889763779526
          },
          {
            "number": 7,
            "ticks": 0,
            "time": 0,
            "value": 0.44881889763779526
          }
        ],
        "10": [
          {
            "number": 10,
            "ticks": 0,
            "time": 0,
            "value": 0.5039370078740157
          },
          {
            "number": 10,
            "ticks": 0,
            "time": 0,
            "value": 0.5039370078740157
          }
        ],
        "100": [
          {
            "number": 100,
            "ticks": 0,
            "time": 0,
            "value": 0
          }
        ],
        "101": [
          {
            "number": 101,
            "ticks": 0,
            "time": 0,
            "value": 0
          }
        ]
      },
      "pitchBends": [
        {
          "ticks": 0,
          "time": 0,
          "value": 0
        },
        {
          "ticks": 0,
          "time": 0,
          "value": 0
        }
      ],
      "instrument": {
        "family": "piano",
        "number": 0,
        "name": "acoustic grand piano"
      },
      "name": "synth drum",
      "notes": [],
      "endOfTrackTicks": 21120
    },
    {
      "channel": 11,
      "controlChanges": {
        "6": [
          {
            "number": 6,
            "ticks": 0,
            "time": 0,
            "value": 0.09448818897637795
          },
          {
            "number": 6,
            "ticks": 21120,
            "time": 112.21253999999999,
            "value": 0.09448818897637795
          },
          {
            "number": 6,
            "ticks": 21120,
            "time": 112.21253999999999,
            "value": 0.09448818897637795
          },
          {
            "number": 6,
            "ticks": 21120,
            "time": 112.21253999999999,
            "value": 0.09448818897637795
          }
        ],
        "7": [
          {
            "number": 7,
            "ticks": 0,
            "time": 0,
            "value": 0.44881889763779526
          },
          {
            "number": 7,
            "ticks": 0,
            "time": 0,
            "value": 0.44881889763779526
          },
          {
            "number": 7,
            "ticks": 0,
            "time": 0,
            "value": 0.44881889763779526
          },
          {
            "number": 7,
            "ticks": 21120,
            "time": 112.21253999999999,
            "value": 0.44881889763779526
          },
          {
            "number": 7,
            "ticks": 21120,
            "time": 112.21253999999999,
            "value": 0.44881889763779526
          },
          {
            "number": 7,
            "ticks": 21120,
            "time": 112.21253999999999,
            "value": 0.44881889763779526
          }
        ],
        "10": [
          {
            "number": 10,
            "ticks": 0,
            "time": 0,
            "value": 0.5039370078740157
          },
          {
            "number": 10,
            "ticks": 0,
            "time": 0,
            "value": 0.5039370078740157
          },
          {
            "number": 10,
            "ticks": 0,
            "time": 0,
            "value": 0.5039370078740157
          },
          {
            "number": 10,
            "ticks": 21120,
            "time": 112.21253999999999,
            "value": 0.5039370078740157
          },
          {
            "number": 10,
            "ticks": 21120,
            "time": 112.21253999999999,
            "value": 0.5039370078740157
          },
          {
            "number": 10,
            "ticks": 21120,
            "time": 112.21253999999999,
            "value": 0.5039370078740157
          }
        ],
        "100": [
          {
            "number": 100,
            "ticks": 0,
            "time": 0,
            "value": 0
          },
          {
            "number": 100,
            "ticks": 21120,
            "time": 112.21253999999999,
            "value": 0
          },
          {
            "number": 100,
            "ticks": 21120,
            "time": 112.21253999999999,
            "value": 0
          },
          {
            "number": 100,
            "ticks": 21120,
            "time": 112.21253999999999,
            "value": 0
          }
        ],
        "101": [
          {
            "number": 101,
            "ticks": 0,
            "time": 0,
            "value": 0
          },
          {
            "number": 101,
            "ticks": 21120,
            "time": 112.21253999999999,
            "value": 0
          },
          {
            "number": 101,
            "ticks": 21120,
            "time": 112.21253999999999,
            "value": 0
          },
          {
            "number": 101,
            "ticks": 21120,
            "time": 112.21253999999999,
            "value": 0
          }
        ]
      },
      "pitchBends": [
        {
          "ticks": 0,
          "time": 0,
          "value": 0
        },
        {
          "ticks": 0,
          "time": 0,
          "value": 0
        },
        {
          "ticks": 0,
          "time": 0,
          "value": 0
        },
        {
          "ticks": 21120,
          "time": 112.21253999999999,
          "value": 0
        },
        {
          "ticks": 21120,
          "time": 112.21253999999999,
          "value": 0
        },
        {
          "ticks": 21120,
          "time": 112.21253999999999,
          "value": 0
        }
      ],
      "instrument": {
        "family": "percussive",
        "number": 118,
        "name": "synth drum"
      },
      "name": "",
      "notes": [
        {
          "duration": 0.3931689375000005,
          "durationTicks": 74,
          "midi": 48,
          "name": "C3",
          "ticks": 5952,
          "time": 31.623534,
          "velocity": 0.952755905511811
        },
        {
          "duration": 0.3931689375000076,
          "durationTicks": 74,
          "midi": 48,
          "name": "C3",
          "ticks": 6048,
          "time": 32.133590999999996,
          "velocity": 0.952755905511811
        },
        {
          "duration": 0.3931689375000005,
          "durationTicks": 74,
          "midi": 48,
          "name": "C3",
          "ticks": 6144,
          "time": 32.643648,
          "velocity": 0.952755905511811
        },
        {
          "duration": 0.3931689374999934,
          "durationTicks": 74,
          "midi": 48,
          "name": "C3",
          "ticks": 6240,
          "time": 33.153705,
          "velocity": 0.952755905511811
        },
        {
          "duration": 0.3931689375000005,
          "durationTicks": 74,
          "midi": 48,
          "name": "C3",
          "ticks": 6336,
          "time": 33.663762,
          "velocity": 0.952755905511811
        },
        {
          "duration": 0.3931689374999934,
          "durationTicks": 74,
          "midi": 48,
          "name": "C3",
          "ticks": 6432,
          "time": 34.173819,
          "velocity": 0.952755905511811
        },
        {
          "duration": 0.3931689375000005,
          "durationTicks": 74,
          "midi": 48,
          "name": "C3",
          "ticks": 6528,
          "time": 34.683876,
          "velocity": 0.952755905511811
        },
        {
          "duration": 0.3931689374999934,
          "durationTicks": 74,
          "midi": 48,
          "name": "C3",
          "ticks": 6624,
          "time": 35.193933,
          "velocity": 0.952755905511811
        },
        {
          "duration": 0.3931689375000005,
          "durationTicks": 74,
          "midi": 48,
          "name": "C3",
          "ticks": 6720,
          "time": 35.70399,
          "velocity": 0.952755905511811
        },
        {
          "duration": 0.3931689374999934,
          "durationTicks": 74,
          "midi": 48,
          "name": "C3",
          "ticks": 6816,
          "time": 36.214047,
          "velocity": 0.952755905511811
        },
        {
          "duration": 0.3931689375000005,
          "durationTicks": 74,
          "midi": 48,
          "name": "C3",
          "ticks": 6912,
          "time": 36.724104,
          "velocity": 0.952755905511811
        },
        {
          "duration": 0.3931689374999934,
          "durationTicks": 74,
          "midi": 48,
          "name": "C3",
          "ticks": 7008,
          "time": 37.234161,
          "velocity": 0.952755905511811
        },
        {
          "duration": 0.3931689375000005,
          "durationTicks": 74,
          "midi": 48,
          "name": "C3",
          "ticks": 7104,
          "time": 37.744218,
          "velocity": 0.952755905511811
        },
        {
          "duration": 0.3931689374999934,
          "durationTicks": 74,
          "midi": 48,
          "name": "C3",
          "ticks": 7200,
          "time": 38.254275,
          "velocity": 0.952755905511811
        },
        {
          "duration": 0.3931689375000005,
          "durationTicks": 74,
          "midi": 48,
          "name": "C3",
          "ticks": 7296,
          "time": 38.764331999999996,
          "velocity": 0.952755905511811
        },
        {
          "duration": 0.3931689374999934,
          "durationTicks": 74,
          "midi": 48,
          "name": "C3",
          "ticks": 7392,
          "time": 39.274389,
          "velocity": 0.952755905511811
        },
        {
          "duration": 0.3931689375000005,
          "durationTicks": 74,
          "midi": 48,
          "name": "C3",
          "ticks": 7488,
          "time": 39.784445999999996,
          "velocity": 0.952755905511811
        },
        {
          "duration": 0.3931689375000005,
          "durationTicks": 74,
          "midi": 48,
          "name": "C3",
          "ticks": 7584,
          "time": 40.294503,
          "velocity": 0.952755905511811
        },
        {
          "duration": 0.3931689375000005,
          "durationTicks": 74,
          "midi": 48,
          "name": "C3",
          "ticks": 7680,
          "time": 40.804559999999995,
          "velocity": 0.952755905511811
        },
        {
          "duration": 0.3931689375000005,
          "durationTicks": 74,
          "midi": 48,
          "name": "C3",
          "ticks": 7776,
          "time": 41.314617,
          "velocity": 0.952755905511811
        },
        {
          "duration": 0.3931689374999934,
          "durationTicks": 74,
          "midi": 48,
          "name": "C3",
          "ticks": 7872,
          "time": 41.824674,
          "velocity": 0.952755905511811
        },
        {
          "duration": 0.3931689375000005,
          "durationTicks": 74,
          "midi": 48,
          "name": "C3",
          "ticks": 7968,
          "time": 42.334731,
          "velocity": 0.952755905511811
        },
        {
          "duration": 0.3931689374999934,
          "durationTicks": 74,
          "midi": 48,
          "name": "C3",
          "ticks": 8064,
          "time": 42.844788,
          "velocity": 0.952755905511811
        },
        {
          "duration": 0.3931689375000005,
          "durationTicks": 74,
          "midi": 48,
          "name": "C3",
          "ticks": 8160,
          "time": 43.354845,
          "velocity": 0.952755905511811
        },
        {
          "duration": 0.3931689374999934,
          "durationTicks": 74,
          "midi": 48,
          "name": "C3",
          "ticks": 8256,
          "time": 43.864902,
          "velocity": 0.952755905511811
        },
        {
          "duration": 0.3931689375000005,
          "durationTicks": 74,
          "midi": 48,
          "name": "C3",
          "ticks": 8352,
          "time": 44.374959,
          "velocity": 0.952755905511811
        },
        {
          "duration": 0.3931689374999934,
          "durationTicks": 74,
          "midi": 48,
          "name": "C3",
          "ticks": 8448,
          "time": 44.885016,
          "velocity": 0.952755905511811
        },
        {
          "duration": 0.3931689375000005,
          "durationTicks": 74,
          "midi": 48,
          "name": "C3",
          "ticks": 8544,
          "time": 45.395073,
          "velocity": 0.952755905511811
        },
        {
          "duration": 0.3931689374999934,
          "durationTicks": 74,
          "midi": 48,
          "name": "C3",
          "ticks": 8640,
          "time": 45.90513,
          "velocity": 0.952755905511811
        },
        {
          "duration": 0.3931689375000005,
          "durationTicks": 74,
          "midi": 48,
          "name": "C3",
          "ticks": 8736,
          "time": 46.415186999999996,
          "velocity": 0.952755905511811
        },
        {
          "duration": 0.3931689374999934,
          "durationTicks": 74,
          "midi": 48,
          "name": "C3",
          "ticks": 8832,
          "time": 46.925244,
          "velocity": 0.952755905511811
        },
        {
          "duration": 0.3931689375000005,
          "durationTicks": 74,
          "midi": 48,
          "name": "C3",
          "ticks": 8928,
          "time": 47.435300999999995,
          "velocity": 0.952755905511811
        },
        {
          "duration": 0.3931689375000005,
          "durationTicks": 74,
          "midi": 48,
          "name": "C3",
          "ticks": 9024,
          "time": 47.945358,
          "velocity": 0.952755905511811
        },
        {
          "duration": 0.3931689375000005,
          "durationTicks": 74,
          "midi": 48,
          "name": "C3",
          "ticks": 9120,
          "time": 48.455414999999995,
          "velocity": 0.952755905511811
        },
        {
          "duration": 0.3931689375000005,
          "durationTicks": 74,
          "midi": 48,
          "name": "C3",
          "ticks": 9216,
          "time": 48.965472,
          "velocity": 0.952755905511811
        },
        {
          "duration": 0.3931689374999934,
          "durationTicks": 74,
          "midi": 48,
          "name": "C3",
          "ticks": 9312,
          "time": 49.475529,
          "velocity": 0.952755905511811
        },
        {
          "duration": 0.3931689375000005,
          "durationTicks": 74,
          "midi": 48,
          "name": "C3",
          "ticks": 9408,
          "time": 49.985586,
          "velocity": 0.952755905511811
        },
        {
          "duration": 0.3931689374999934,
          "durationTicks": 74,
          "midi": 48,
          "name": "C3",
          "ticks": 9504,
          "time": 50.495643,
          "velocity": 0.952755905511811
        },
        {
          "duration": 0.3931689375000005,
          "durationTicks": 74,
          "midi": 48,
          "name": "C3",
          "ticks": 9600,
          "time": 51.0057,
          "velocity": 0.952755905511811
        },
        {
          "duration": 0.3931689374999934,
          "durationTicks": 74,
          "midi": 48,
          "name": "C3",
          "ticks": 9696,
          "time": 51.515757,
          "velocity": 0.952755905511811
        },
        {
          "duration": 0.3931689375000005,
          "durationTicks": 74,
          "midi": 48,
          "name": "C3",
          "ticks": 9792,
          "time": 52.025814,
          "velocity": 0.952755905511811
        },
        {
          "duration": 0.3931689374999934,
          "durationTicks": 74,
          "midi": 48,
          "name": "C3",
          "ticks": 9888,
          "time": 52.535871,
          "velocity": 0.952755905511811
        },
        {
          "duration": 0.3931689375000005,
          "durationTicks": 74,
          "midi": 48,
          "name": "C3",
          "ticks": 9984,
          "time": 53.045927999999996,
          "velocity": 0.952755905511811
        },
        {
          "duration": 0.3931689374999934,
          "durationTicks": 74,
          "midi": 48,
          "name": "C3",
          "ticks": 10080,
          "time": 53.555985,
          "velocity": 0.952755905511811
        },
        {
          "duration": 0.3931689375000005,
          "durationTicks": 74,
          "midi": 48,
          "name": "C3",
          "ticks": 10176,
          "time": 54.066041999999996,
          "velocity": 0.952755905511811
        },
        {
          "duration": 0.3931689374999934,
          "durationTicks": 74,
          "midi": 48,
          "name": "C3",
          "ticks": 10272,
          "time": 54.576099,
          "velocity": 0.952755905511811
        },
        {
          "duration": 0.3931689375000005,
          "durationTicks": 74,
          "midi": 48,
          "name": "C3",
          "ticks": 10368,
          "time": 55.086155999999995,
          "velocity": 0.952755905511811
        },
        {
          "duration": 0.3931689374999934,
          "durationTicks": 74,
          "midi": 48,
          "name": "C3",
          "ticks": 10464,
          "time": 55.596213,
          "velocity": 0.952755905511811
        },
        {
          "duration": 0.3931689375000005,
          "durationTicks": 74,
          "midi": 48,
          "name": "C3",
          "ticks": 10560,
          "time": 56.106269999999995,
          "velocity": 0.952755905511811
        },
        {
          "duration": 0.3931689375000005,
          "durationTicks": 74,
          "midi": 48,
          "name": "C3",
          "ticks": 10656,
          "time": 56.616327,
          "velocity": 0.952755905511811
        },
        {
          "duration": 0.3931689374999934,
          "durationTicks": 74,
          "midi": 48,
          "name": "C3",
          "ticks": 10752,
          "time": 57.126384,
          "velocity": 0.952755905511811
        },
        {
          "duration": 0.3931689375000005,
          "durationTicks": 74,
          "midi": 48,
          "name": "C3",
          "ticks": 10848,
          "time": 57.636441,
          "velocity": 0.952755905511811
        },
        {
          "duration": 0.3931689374999934,
          "durationTicks": 74,
          "midi": 48,
          "name": "C3",
          "ticks": 10944,
          "time": 58.146498,
          "velocity": 0.952755905511811
        },
        {
          "duration": 0.3931689375000005,
          "durationTicks": 74,
          "midi": 48,
          "name": "C3",
          "ticks": 11040,
          "time": 58.656555,
          "velocity": 0.952755905511811
        },
        {
          "duration": 0.3931689374999934,
          "durationTicks": 74,
          "midi": 48,
          "name": "C3",
          "ticks": 11136,
          "time": 59.166612,
          "velocity": 0.952755905511811
        },
        {
          "duration": 0.3931689375000005,
          "durationTicks": 74,
          "midi": 48,
          "name": "C3",
          "ticks": 11232,
          "time": 59.676669,
          "velocity": 0.952755905511811
        },
        {
          "duration": 0.3931689374999934,
          "durationTicks": 74,
          "midi": 48,
          "name": "C3",
          "ticks": 11328,
          "time": 60.186726,
          "velocity": 0.952755905511811
        },
        {
          "duration": 0.3931689375000005,
          "durationTicks": 74,
          "midi": 48,
          "name": "C3",
          "ticks": 11424,
          "time": 60.696782999999996,
          "velocity": 0.952755905511811
        },
        {
          "duration": 0.3931689374999934,
          "durationTicks": 74,
          "midi": 48,
          "name": "C3",
          "ticks": 11520,
          "time": 61.20684,
          "velocity": 0.952755905511811
        },
        {
          "duration": 0.3931689375000005,
          "durationTicks": 74,
          "midi": 48,
          "name": "C3",
          "ticks": 11616,
          "time": 61.716896999999996,
          "velocity": 0.952755905511811
        },
        {
          "duration": 0.3931689374999934,
          "durationTicks": 74,
          "midi": 48,
          "name": "C3",
          "ticks": 11712,
          "time": 62.226954,
          "velocity": 0.952755905511811
        },
        {
          "duration": 0.3931689375000005,
          "durationTicks": 74,
          "midi": 48,
          "name": "C3",
          "ticks": 11808,
          "time": 62.737010999999995,
          "velocity": 0.952755905511811
        },
        {
          "duration": 0.3931689374999934,
          "durationTicks": 74,
          "midi": 48,
          "name": "C3",
          "ticks": 11904,
          "time": 63.247068,
          "velocity": 0.952755905511811
        },
        {
          "duration": 0.3931689375000005,
          "durationTicks": 74,
          "midi": 48,
          "name": "C3",
          "ticks": 12000,
          "time": 63.757124999999995,
          "velocity": 0.952755905511811
        },
        {
          "duration": 0.3931689375000076,
          "durationTicks": 74,
          "midi": 48,
          "name": "C3",
          "ticks": 12096,
          "time": 64.26718199999999,
          "velocity": 0.952755905511811
        },
        {
          "duration": 0.3931689375000076,
          "durationTicks": 74,
          "midi": 48,
          "name": "C3",
          "ticks": 12192,
          "time": 64.777239,
          "velocity": 0.952755905511811
        },
        {
          "duration": 0.3931689375000076,
          "durationTicks": 74,
          "midi": 48,
          "name": "C3",
          "ticks": 12288,
          "time": 65.287296,
          "velocity": 0.952755905511811
        },
        {
          "duration": 0.3931689375000076,
          "durationTicks": 74,
          "midi": 48,
          "name": "C3",
          "ticks": 12384,
          "time": 65.797353,
          "velocity": 0.952755905511811
        },
        {
          "duration": 0.3931689374999934,
          "durationTicks": 74,
          "midi": 48,
          "name": "C3",
          "ticks": 12480,
          "time": 66.30741,
          "velocity": 0.952755905511811
        },
        {
          "duration": 0.3931689375000076,
          "durationTicks": 74,
          "midi": 48,
          "name": "C3",
          "ticks": 12576,
          "time": 66.817467,
          "velocity": 0.952755905511811
        },
        {
          "duration": 0.3931689375000076,
          "durationTicks": 74,
          "midi": 48,
          "name": "C3",
          "ticks": 12672,
          "time": 67.327524,
          "velocity": 0.952755905511811
        },
        {
          "duration": 0.3931689375000076,
          "durationTicks": 74,
          "midi": 48,
          "name": "C3",
          "ticks": 12768,
          "time": 67.837581,
          "velocity": 0.952755905511811
        },
        {
          "duration": 0.3931689374999934,
          "durationTicks": 74,
          "midi": 48,
          "name": "C3",
          "ticks": 12864,
          "time": 68.347638,
          "velocity": 0.952755905511811
        },
        {
          "duration": 0.3931689375000076,
          "durationTicks": 74,
          "midi": 48,
          "name": "C3",
          "ticks": 12960,
          "time": 68.85769499999999,
          "velocity": 0.952755905511811
        },
        {
          "duration": 0.3931689375000076,
          "durationTicks": 74,
          "midi": 48,
          "name": "C3",
          "ticks": 13056,
          "time": 69.367752,
          "velocity": 0.952755905511811
        },
        {
          "duration": 0.3931689375000076,
          "durationTicks": 74,
          "midi": 48,
          "name": "C3",
          "ticks": 13152,
          "time": 69.877809,
          "velocity": 0.952755905511811
        },
        {
          "duration": 0.3931689374999934,
          "durationTicks": 74,
          "midi": 48,
          "name": "C3",
          "ticks": 13248,
          "time": 70.387866,
          "velocity": 0.952755905511811
        },
        {
          "duration": 0.3931689375000076,
          "durationTicks": 74,
          "midi": 48,
          "name": "C3",
          "ticks": 13344,
          "time": 70.89792299999999,
          "velocity": 0.952755905511811
        },
        {
          "duration": 0.3931689375000076,
          "durationTicks": 74,
          "midi": 48,
          "name": "C3",
          "ticks": 13440,
          "time": 71.40798,
          "velocity": 0.952755905511811
        },
        {
          "duration": 0.3931689375000076,
          "durationTicks": 74,
          "midi": 48,
          "name": "C3",
          "ticks": 13536,
          "time": 71.918037,
          "velocity": 0.952755905511811
        },
        {
          "duration": 0.3931689375000076,
          "durationTicks": 74,
          "midi": 48,
          "name": "C3",
          "ticks": 13632,
          "time": 72.428094,
          "velocity": 0.952755905511811
        },
        {
          "duration": 0.3931689375000076,
          "durationTicks": 74,
          "midi": 48,
          "name": "C3",
          "ticks": 13728,
          "time": 72.93815099999999,
          "velocity": 0.952755905511811
        },
        {
          "duration": 0.3931689375000076,
          "durationTicks": 74,
          "midi": 48,
          "name": "C3",
          "ticks": 13824,
          "time": 73.448208,
          "velocity": 0.952755905511811
        },
        {
          "duration": 0.3931689375000076,
          "durationTicks": 74,
          "midi": 48,
          "name": "C3",
          "ticks": 13920,
          "time": 73.958265,
          "velocity": 0.952755905511811
        },
        {
          "duration": 0.3931689375000076,
          "durationTicks": 74,
          "midi": 48,
          "name": "C3",
          "ticks": 14016,
          "time": 74.468322,
          "velocity": 0.952755905511811
        },
        {
          "duration": 0.3931689374999934,
          "durationTicks": 74,
          "midi": 48,
          "name": "C3",
          "ticks": 14112,
          "time": 74.978379,
          "velocity": 0.952755905511811
        },
        {
          "duration": 0.3931689375000076,
          "durationTicks": 74,
          "midi": 48,
          "name": "C3",
          "ticks": 14208,
          "time": 75.488436,
          "velocity": 0.952755905511811
        },
        {
          "duration": 0.3931689375000076,
          "durationTicks": 74,
          "midi": 48,
          "name": "C3",
          "ticks": 14304,
          "time": 75.998493,
          "velocity": 0.952755905511811
        },
        {
          "duration": 0.3931689375000076,
          "durationTicks": 74,
          "midi": 48,
          "name": "C3",
          "ticks": 14400,
          "time": 76.50855,
          "velocity": 0.952755905511811
        },
        {
          "duration": 0.3931689374999934,
          "durationTicks": 74,
          "midi": 48,
          "name": "C3",
          "ticks": 14496,
          "time": 77.018607,
          "velocity": 0.952755905511811
        },
        {
          "duration": 0.3931689375000076,
          "durationTicks": 74,
          "midi": 48,
          "name": "C3",
          "ticks": 14592,
          "time": 77.52866399999999,
          "velocity": 0.952755905511811
        },
        {
          "duration": 0.3931689375000076,
          "durationTicks": 74,
          "midi": 48,
          "name": "C3",
          "ticks": 14688,
          "time": 78.038721,
          "velocity": 0.952755905511811
        },
        {
          "duration": 0.3931689375000076,
          "durationTicks": 74,
          "midi": 48,
          "name": "C3",
          "ticks": 14784,
          "time": 78.548778,
          "velocity": 0.952755905511811
        },
        {
          "duration": 0.3931689374999934,
          "durationTicks": 74,
          "midi": 48,
          "name": "C3",
          "ticks": 14880,
          "time": 79.058835,
          "velocity": 0.952755905511811
        },
        {
          "duration": 0.3931689375000076,
          "durationTicks": 74,
          "midi": 48,
          "name": "C3",
          "ticks": 14976,
          "time": 79.56889199999999,
          "velocity": 0.952755905511811
        },
        {
          "duration": 0.3931689375000076,
          "durationTicks": 74,
          "midi": 48,
          "name": "C3",
          "ticks": 15072,
          "time": 80.078949,
          "velocity": 0.952755905511811
        },
        {
          "duration": 0.3931689375000076,
          "durationTicks": 74,
          "midi": 48,
          "name": "C3",
          "ticks": 15168,
          "time": 80.589006,
          "velocity": 0.952755905511811
        },
        {
          "duration": 0.3931689375000076,
          "durationTicks": 74,
          "midi": 48,
          "name": "C3",
          "ticks": 15264,
          "time": 81.099063,
          "velocity": 0.952755905511811
        },
        {
          "duration": 0.3931689375000076,
          "durationTicks": 74,
          "midi": 48,
          "name": "C3",
          "ticks": 15360,
          "time": 81.60911999999999,
          "velocity": 0.952755905511811
        },
        {
          "duration": 0.3931689375000076,
          "durationTicks": 74,
          "midi": 48,
          "name": "C3",
          "ticks": 15456,
          "time": 82.119177,
          "velocity": 0.952755905511811
        },
        {
          "duration": 0.3931689375000076,
          "durationTicks": 74,
          "midi": 48,
          "name": "C3",
          "ticks": 15552,
          "time": 82.629234,
          "velocity": 0.952755905511811
        },
        {
          "duration": 0.3931689375000076,
          "durationTicks": 74,
          "midi": 48,
          "name": "C3",
          "ticks": 15648,
          "time": 83.139291,
          "velocity": 0.952755905511811
        },
        {
          "duration": 0.3931689374999934,
          "durationTicks": 74,
          "midi": 48,
          "name": "C3",
          "ticks": 15744,
          "time": 83.649348,
          "velocity": 0.952755905511811
        },
        {
          "duration": 0.3931689375000076,
          "durationTicks": 74,
          "midi": 48,
          "name": "C3",
          "ticks": 15840,
          "time": 84.15940499999999,
          "velocity": 0.952755905511811
        },
        {
          "duration": 0.3931689375000076,
          "durationTicks": 74,
          "midi": 48,
          "name": "C3",
          "ticks": 15936,
          "time": 84.669462,
          "velocity": 0.952755905511811
        },
        {
          "duration": 0.3931689375000076,
          "durationTicks": 74,
          "midi": 48,
          "name": "C3",
          "ticks": 16032,
          "time": 85.179519,
          "velocity": 0.952755905511811
        },
        {
          "duration": 0.3931689374999934,
          "durationTicks": 74,
          "midi": 48,
          "name": "C3",
          "ticks": 16128,
          "time": 85.689576,
          "velocity": 0.952755905511811
        },
        {
          "duration": 0.3931689375000076,
          "durationTicks": 74,
          "midi": 48,
          "name": "C3",
          "ticks": 16224,
          "time": 86.19963299999999,
          "velocity": 0.952755905511811
        },
        {
          "duration": 0.3931689375000076,
          "durationTicks": 74,
          "midi": 48,
          "name": "C3",
          "ticks": 16320,
          "time": 86.70969,
          "velocity": 0.952755905511811
        },
        {
          "duration": 0.3931689375000076,
          "durationTicks": 74,
          "midi": 48,
          "name": "C3",
          "ticks": 16416,
          "time": 87.219747,
          "velocity": 0.952755905511811
        },
        {
          "duration": 0.3931689374999934,
          "durationTicks": 74,
          "midi": 48,
          "name": "C3",
          "ticks": 16512,
          "time": 87.729804,
          "velocity": 0.952755905511811
        },
        {
          "duration": 0.3931689375000076,
          "durationTicks": 74,
          "midi": 48,
          "name": "C3",
          "ticks": 16608,
          "time": 88.23986099999999,
          "velocity": 0.952755905511811
        },
        {
          "duration": 0.3931689375000076,
          "durationTicks": 74,
          "midi": 48,
          "name": "C3",
          "ticks": 16704,
          "time": 88.749918,
          "velocity": 0.952755905511811
        },
        {
          "duration": 0.3931689375000076,
          "durationTicks": 74,
          "midi": 48,
          "name": "C3",
          "ticks": 16800,
          "time": 89.259975,
          "velocity": 0.952755905511811
        },
        {
          "duration": 0.3931689375000076,
          "durationTicks": 74,
          "midi": 48,
          "name": "C3",
          "ticks": 16896,
          "time": 89.770032,
          "velocity": 0.952755905511811
        },
        {
          "duration": 0.3931689374999934,
          "durationTicks": 74,
          "midi": 48,
          "name": "C3",
          "ticks": 16992,
          "time": 90.280089,
          "velocity": 0.952755905511811
        },
        {
          "duration": 0.3931689375000076,
          "durationTicks": 74,
          "midi": 48,
          "name": "C3",
          "ticks": 17088,
          "time": 90.790146,
          "velocity": 0.952755905511811
        },
        {
          "duration": 0.3931689375000076,
          "durationTicks": 74,
          "midi": 48,
          "name": "C3",
          "ticks": 17184,
          "time": 91.300203,
          "velocity": 0.952755905511811
        },
        {
          "duration": 0.3931689375000076,
          "durationTicks": 74,
          "midi": 48,
          "name": "C3",
          "ticks": 17280,
          "time": 91.81026,
          "velocity": 0.952755905511811
        },
        {
          "duration": 0.3931689374999934,
          "durationTicks": 74,
          "midi": 48,
          "name": "C3",
          "ticks": 17376,
          "time": 92.320317,
          "velocity": 0.952755905511811
        },
        {
          "duration": 0.3931689375000076,
          "durationTicks": 74,
          "midi": 48,
          "name": "C3",
          "ticks": 17472,
          "time": 92.83037399999999,
          "velocity": 0.952755905511811
        },
        {
          "duration": 0.3931689375000076,
          "durationTicks": 74,
          "midi": 48,
          "name": "C3",
          "ticks": 17568,
          "time": 93.340431,
          "velocity": 0.952755905511811
        },
        {
          "duration": 0.3931689375000076,
          "durationTicks": 74,
          "midi": 48,
          "name": "C3",
          "ticks": 17664,
          "time": 93.850488,
          "velocity": 0.952755905511811
        },
        {
          "duration": 0.3931689374999934,
          "durationTicks": 74,
          "midi": 48,
          "name": "C3",
          "ticks": 17760,
          "time": 94.360545,
          "velocity": 0.952755905511811
        },
        {
          "duration": 0.3931689375000076,
          "durationTicks": 74,
          "midi": 48,
          "name": "C3",
          "ticks": 17856,
          "time": 94.87060199999999,
          "velocity": 0.952755905511811
        },
        {
          "duration": 0.3931689375000076,
          "durationTicks": 74,
          "midi": 48,
          "name": "C3",
          "ticks": 17952,
          "time": 95.380659,
          "velocity": 0.952755905511811
        },
        {
          "duration": 0.3931689375000076,
          "durationTicks": 74,
          "midi": 48,
          "name": "C3",
          "ticks": 18048,
          "time": 95.890716,
          "velocity": 0.952755905511811
        },
        {
          "duration": 0.3931689375000076,
          "durationTicks": 74,
          "midi": 48,
          "name": "C3",
          "ticks": 18144,
          "time": 96.400773,
          "velocity": 0.952755905511811
        },
        {
          "duration": 0.3931689375000076,
          "durationTicks": 74,
          "midi": 48,
          "name": "C3",
          "ticks": 18240,
          "time": 96.91082999999999,
          "velocity": 0.952755905511811
        },
        {
          "duration": 0.3931689375000076,
          "durationTicks": 74,
          "midi": 48,
          "name": "C3",
          "ticks": 18336,
          "time": 97.420887,
          "velocity": 0.952755905511811
        },
        {
          "duration": 0.3931689375000076,
          "durationTicks": 74,
          "midi": 48,
          "name": "C3",
          "ticks": 18432,
          "time": 97.930944,
          "velocity": 0.952755905511811
        },
        {
          "duration": 0.3931689375000076,
          "durationTicks": 74,
          "midi": 48,
          "name": "C3",
          "ticks": 18528,
          "time": 98.441001,
          "velocity": 0.952755905511811
        },
        {
          "duration": 0.3931689374999934,
          "durationTicks": 74,
          "midi": 48,
          "name": "C3",
          "ticks": 18624,
          "time": 98.951058,
          "velocity": 0.952755905511811
        },
        {
          "duration": 0.3931689375000076,
          "durationTicks": 74,
          "midi": 48,
          "name": "C3",
          "ticks": 18720,
          "time": 99.46111499999999,
          "velocity": 0.952755905511811
        },
        {
          "duration": 0.3931689375000076,
          "durationTicks": 74,
          "midi": 48,
          "name": "C3",
          "ticks": 18816,
          "time": 99.971172,
          "velocity": 0.952755905511811
        },
        {
          "duration": 0.3931689375000076,
          "durationTicks": 74,
          "midi": 48,
          "name": "C3",
          "ticks": 18912,
          "time": 100.481229,
          "velocity": 0.952755905511811
        },
        {
          "duration": 0.3931689374999934,
          "durationTicks": 74,
          "midi": 48,
          "name": "C3",
          "ticks": 19008,
          "time": 100.991286,
          "velocity": 0.952755905511811
        },
        {
          "duration": 0.3931689375000076,
          "durationTicks": 74,
          "midi": 48,
          "name": "C3",
          "ticks": 19104,
          "time": 101.50134299999999,
          "velocity": 0.952755905511811
        },
        {
          "duration": 0.3931689375000076,
          "durationTicks": 74,
          "midi": 48,
          "name": "C3",
          "ticks": 19200,
          "time": 102.0114,
          "velocity": 0.952755905511811
        },
        {
          "duration": 0.3931689375000076,
          "durationTicks": 74,
          "midi": 48,
          "name": "C3",
          "ticks": 19296,
          "time": 102.521457,
          "velocity": 0.952755905511811
        },
        {
          "duration": 0.3931689374999934,
          "durationTicks": 74,
          "midi": 48,
          "name": "C3",
          "ticks": 19392,
          "time": 103.031514,
          "velocity": 0.952755905511811
        },
        {
          "duration": 0.3931689375000076,
          "durationTicks": 74,
          "midi": 48,
          "name": "C3",
          "ticks": 19488,
          "time": 103.54157099999999,
          "velocity": 0.952755905511811
        },
        {
          "duration": 0.3931689375000076,
          "durationTicks": 74,
          "midi": 48,
          "name": "C3",
          "ticks": 19584,
          "time": 104.051628,
          "velocity": 0.952755905511811
        },
        {
          "duration": 0.3931689375000076,
          "durationTicks": 74,
          "midi": 48,
          "name": "C3",
          "ticks": 19680,
          "time": 104.561685,
          "velocity": 0.952755905511811
        },
        {
          "duration": 0.3931689375000076,
          "durationTicks": 74,
          "midi": 48,
          "name": "C3",
          "ticks": 19776,
          "time": 105.071742,
          "velocity": 0.952755905511811
        },
        {
          "duration": 0.3931689375000076,
          "durationTicks": 74,
          "midi": 48,
          "name": "C3",
          "ticks": 19872,
          "time": 105.58179899999999,
          "velocity": 0.952755905511811
        },
        {
          "duration": 0.3931689375000076,
          "durationTicks": 74,
          "midi": 48,
          "name": "C3",
          "ticks": 19968,
          "time": 106.09185599999999,
          "velocity": 0.952755905511811
        },
        {
          "duration": 0.3931689375000076,
          "durationTicks": 74,
          "midi": 48,
          "name": "C3",
          "ticks": 20064,
          "time": 106.601913,
          "velocity": 0.952755905511811
        }
      ]
    },
    {
      "channel": 0,
      "controlChanges": {
        "6": [
          {
            "number": 6,
            "ticks": 0,
            "time": 0,
            "value": 0.09448818897637795
          }
        ],
        "7": [
          {
            "number": 7,
            "ticks": 0,
            "time": 0,
            "value": 0.7874015748031497
          },
          {
            "number": 7,
            "ticks": 0,
            "time": 0,
            "value": 0.7874015748031497
          }
        ],
        "10": [
          {
            "number": 10,
            "ticks": 0,
            "time": 0,
            "value": 0.5039370078740157
          },
          {
            "number": 10,
            "ticks": 0,
            "time": 0,
            "value": 0.5039370078740157
          }
        ],
        "100": [
          {
            "number": 100,
            "ticks": 0,
            "time": 0,
            "value": 0
          }
        ],
        "101": [
          {
            "number": 101,
            "ticks": 0,
            "time": 0,
            "value": 0
          }
        ]
      },
      "pitchBends": [
        {
          "ticks": 0,
          "time": 0,
          "value": 0.0216064453125
        },
        {
          "ticks": 0,
          "time": 0,
          "value": 0.0216064453125
        }
      ],
      "instrument": {
        "family": "piano",
        "number": 0,
        "name": "acoustic grand piano"
      },
      "name": "organ",
      "notes": [],
      "endOfTrackTicks": 21120
    },
    {
      "channel": 12,
      "controlChanges": {
        "6": [
          {
            "number": 6,
            "ticks": 0,
            "time": 0,
            "value": 0.09448818897637795
          },
          {
            "number": 6,
            "ticks": 21120,
            "time": 112.21253999999999,
            "value": 0.09448818897637795
          },
          {
            "number": 6,
            "ticks": 21120,
            "time": 112.21253999999999,
            "value": 0.09448818897637795
          },
          {
            "number": 6,
            "ticks": 21120,
            "time": 112.21253999999999,
            "value": 0.09448818897637795
          }
        ],
        "7": [
          {
            "number": 7,
            "ticks": 0,
            "time": 0,
            "value": 0.7874015748031497
          },
          {
            "number": 7,
            "ticks": 0,
            "time": 0,
            "value": 0.7874015748031497
          },
          {
            "number": 7,
            "ticks": 0,
            "time": 0,
            "value": 0.7874015748031497
          },
          {
            "number": 7,
            "ticks": 21120,
            "time": 112.21253999999999,
            "value": 0.7874015748031497
          },
          {
            "number": 7,
            "ticks": 21120,
            "time": 112.21253999999999,
            "value": 0.7874015748031497
          },
          {
            "number": 7,
            "ticks": 21120,
            "time": 112.21253999999999,
            "value": 0.7874015748031497
          }
        ],
        "10": [
          {
            "number": 10,
            "ticks": 0,
            "time": 0,
            "value": 0.5039370078740157
          },
          {
            "number": 10,
            "ticks": 0,
            "time": 0,
            "value": 0.5039370078740157
          },
          {
            "number": 10,
            "ticks": 0,
            "time": 0,
            "value": 0.5039370078740157
          },
          {
            "number": 10,
            "ticks": 21120,
            "time": 112.21253999999999,
            "value": 0.5039370078740157
          },
          {
            "number": 10,
            "ticks": 21120,
            "time": 112.21253999999999,
            "value": 0.5039370078740157
          },
          {
            "number": 10,
            "ticks": 21120,
            "time": 112.21253999999999,
            "value": 0.5039370078740157
          }
        ],
        "100": [
          {
            "number": 100,
            "ticks": 0,
            "time": 0,
            "value": 0
          },
          {
            "number": 100,
            "ticks": 21120,
            "time": 112.21253999999999,
            "value": 0
          },
          {
            "number": 100,
            "ticks": 21120,
            "time": 112.21253999999999,
            "value": 0
          },
          {
            "number": 100,
            "ticks": 21120,
            "time": 112.21253999999999,
            "value": 0
          }
        ],
        "101": [
          {
            "number": 101,
            "ticks": 0,
            "time": 0,
            "value": 0
          },
          {
            "number": 101,
            "ticks": 21120,
            "time": 112.21253999999999,
            "value": 0
          },
          {
            "number": 101,
            "ticks": 21120,
            "time": 112.21253999999999,
            "value": 0
          },
          {
            "number": 101,
            "ticks": 21120,
            "time": 112.21253999999999,
            "value": 0
          }
        ]
      },
      "pitchBends": [
        {
          "ticks": 0,
          "time": 0,
          "value": 0.0240478515625
        },
        {
          "ticks": 0,
          "time": 0,
          "value": 0.0240478515625
        },
        {
          "ticks": 0,
          "time": 0,
          "value": 0.0240478515625
        },
        {
          "ticks": 1,
          "time": 0.005313093749999999,
          "value": 0.0257568359375
        },
        {
          "ticks": 2,
          "time": 0.010626187499999998,
          "value": 0.0216064453125
        },
        {
          "ticks": 21120,
          "time": 112.21253999999999,
          "value": 0.0216064453125
        },
        {
          "ticks": 21120,
          "time": 112.21253999999999,
          "value": 0.0216064453125
        },
        {
          "ticks": 21120,
          "time": 112.21253999999999,
          "value": 0.0216064453125
        }
      ],
      "instrument": {
        "family": "organ",
        "number": 16,
        "name": "drawbar organ"
      },
      "name": "",
      "notes": [
        {
          "duration": 0.23377612499999145,
          "durationTicks": 44,
          "midi": 84,
          "name": "C6",
          "ticks": 7872,
          "time": 41.824674,
          "velocity": 0.952755905511811
        },
        {
          "duration": 0.10626187500000128,
          "durationTicks": 20,
          "midi": 84,
          "name": "C6",
          "ticks": 7920,
          "time": 42.079702499999996,
          "velocity": 0.952755905511811
        },
        {
          "duration": 0.10626187499999418,
          "durationTicks": 20,
          "midi": 84,
          "name": "C6",
          "ticks": 7944,
          "time": 42.20721675,
          "velocity": 0.952755905511811
        },
        {
          "duration": 0.10626187500000128,
          "durationTicks": 20,
          "midi": 84,
          "name": "C6",
          "ticks": 7992,
          "time": 42.462245249999995,
          "velocity": 0.952755905511811
        },
        {
          "duration": 0.23377612499999856,
          "durationTicks": 44,
          "midi": 84,
          "name": "C6",
          "ticks": 8040,
          "time": 42.71727375,
          "velocity": 0.952755905511811
        },
        {
          "duration": 0.10626187499999418,
          "durationTicks": 20,
          "midi": 81,
          "name": "A5",
          "ticks": 8088,
          "time": 42.97230225,
          "velocity": 0.952755905511811
        },
        {
          "duration": 0.6163188749999975,
          "durationTicks": 116,
          "midi": 81,
          "name": "A5",
          "ticks": 8136,
          "time": 43.22733075,
          "velocity": 0.952755905511811
        },
        {
          "duration": 0.23377612499999856,
          "durationTicks": 44,
          "midi": 84,
          "name": "C6",
          "ticks": 8256,
          "time": 43.864902,
          "velocity": 0.952755905511811
        },
        {
          "duration": 0.10626187500000128,
          "durationTicks": 20,
          "midi": 84,
          "name": "C6",
          "ticks": 8304,
          "time": 44.119930499999995,
          "velocity": 0.952755905511811
        },
        {
          "duration": 0.10626187499999418,
          "durationTicks": 20,
          "midi": 84,
          "name": "C6",
          "ticks": 8328,
          "time": 44.24744475,
          "velocity": 0.952755905511811
        },
        {
          "duration": 0.10626187499999418,
          "durationTicks": 20,
          "midi": 86,
          "name": "D6",
          "ticks": 8376,
          "time": 44.50247325,
          "velocity": 0.952755905511811
        },
        {
          "duration": 0.23377612499999856,
          "durationTicks": 44,
          "midi": 87,
          "name": "D#6",
          "ticks": 8424,
          "time": 44.757501749999996,
          "velocity": 0.952755905511811
        },
        {
          "duration": 0.10626187500000128,
          "durationTicks": 20,
          "midi": 86,
          "name": "D6",
          "ticks": 8472,
          "time": 45.01253025,
          "velocity": 0.952755905511811
        },
        {
          "duration": 0.10626187499999418,
          "durationTicks": 20,
          "midi": 84,
          "name": "C6",
          "ticks": 8496,
          "time": 45.1400445,
          "velocity": 0.952755905511811
        },
        {
          "duration": 0.10626187499999418,
          "durationTicks": 20,
          "midi": 81,
          "name": "A5",
          "ticks": 8520,
          "time": 45.26755875,
          "velocity": 0.952755905511811
        },
        {
          "duration": 0.10626187500000128,
          "durationTicks": 20,
          "midi": 84,
          "name": "C6",
          "ticks": 8544,
          "time": 45.395073,
          "velocity": 0.952755905511811
        },
        {
          "duration": 0.10626187499999418,
          "durationTicks": 20,
          "midi": 86,
          "name": "D6",
          "ticks": 8568,
          "time": 45.52258725,
          "velocity": 0.952755905511811
        },
        {
          "duration": 0.23377612499999856,
          "durationTicks": 44,
          "midi": 84,
          "name": "C6",
          "ticks": 8640,
          "time": 45.90513,
          "velocity": 0.952755905511811
        },
        {
          "duration": 0.10626187499999418,
          "durationTicks": 20,
          "midi": 84,
          "name": "C6",
          "ticks": 8688,
          "time": 46.1601585,
          "velocity": 0.952755905511811
        },
        {
          "duration": 0.10626187499999418,
          "durationTicks": 20,
          "midi": 84,
          "name": "C6",
          "ticks": 8712,
          "time": 46.28767275,
          "velocity": 0.952755905511811
        },
        {
          "duration": 0.23377612499999856,
          "durationTicks": 44,
          "midi": 86,
          "name": "D6",
          "ticks": 8760,
          "time": 46.54270125,
          "velocity": 0.952755905511811
        },
        {
          "duration": 0.23377612499999856,
          "durationTicks": 44,
          "midi": 87,
          "name": "D#6",
          "ticks": 8808,
          "time": 46.797729749999995,
          "velocity": 0.952755905511811
        },
        {
          "duration": 0.23377612499999856,
          "durationTicks": 44,
          "midi": 88,
          "name": "E6",
          "ticks": 8856,
          "time": 47.05275825,
          "velocity": 0.952755905511811
        },
        {
          "duration": 0.10626187500000128,
          "durationTicks": 20,
          "midi": 91,
          "name": "G6",
          "ticks": 8904,
          "time": 47.30778675,
          "velocity": 0.952755905511811
        },
        {
          "duration": 0.23377612499999856,
          "durationTicks": 44,
          "midi": 88,
          "name": "E6",
          "ticks": 8952,
          "time": 47.56281525,
          "velocity": 0.952755905511811
        },
        {
          "duration": 0.23377612499999856,
          "durationTicks": 44,
          "midi": 81,
          "name": "A5",
          "ticks": 9024,
          "time": 47.945358,
          "velocity": 0.952755905511811
        },
        {
          "duration": 0.10626187499999418,
          "durationTicks": 20,
          "midi": 81,
          "name": "A5",
          "ticks": 9072,
          "time": 48.2003865,
          "velocity": 0.952755905511811
        },
        {
          "duration": 0.10626187500000128,
          "durationTicks": 20,
          "midi": 81,
          "name": "A5",
          "ticks": 9120,
          "time": 48.455414999999995,
          "velocity": 0.952755905511811
        },
        {
          "duration": 0.10626187499999418,
          "durationTicks": 20,
          "midi": 76,
          "name": "E5",
          "ticks": 9144,
          "time": 48.58292925,
          "velocity": 0.952755905511811
        },
        {
          "duration": 0.10626187500000128,
          "durationTicks": 20,
          "midi": 81,
          "name": "A5",
          "ticks": 9168,
          "time": 48.7104435,
          "velocity": 0.952755905511811
        },
        {
          "duration": 0.6163188749999975,
          "durationTicks": 116,
          "midi": 79,
          "name": "G5",
          "ticks": 9192,
          "time": 48.83795775,
          "velocity": 0.952755905511811
        },
        {
          "duration": 0.23377612499999856,
          "durationTicks": 44,
          "midi": 84,
          "name": "C6",
          "ticks": 9408,
          "time": 49.985586,
          "velocity": 0.952755905511811
        },
        {
          "duration": 0.10626187499999418,
          "durationTicks": 20,
          "midi": 84,
          "name": "C6",
          "ticks": 9456,
          "time": 50.2406145,
          "velocity": 0.952755905511811
        },
        {
          "duration": 0.10626187500000128,
          "durationTicks": 20,
          "midi": 84,
          "name": "C6",
          "ticks": 9480,
          "time": 50.36812875,
          "velocity": 0.952755905511811
        },
        {
          "duration": 0.10626187499999418,
          "durationTicks": 20,
          "midi": 84,
          "name": "C6",
          "ticks": 9528,
          "time": 50.62315725,
          "velocity": 0.952755905511811
        },
        {
          "duration": 0.23377612499999856,
          "durationTicks": 44,
          "midi": 84,
          "name": "C6",
          "ticks": 9576,
          "time": 50.87818575,
          "velocity": 0.952755905511811
        },
        {
          "duration": 0.10626187499999418,
          "durationTicks": 20,
          "midi": 81,
          "name": "A5",
          "ticks": 9624,
          "time": 51.13321425,
          "velocity": 0.952755905511811
        },
        {
          "duration": 0.6163188749999975,
          "durationTicks": 116,
          "midi": 81,
          "name": "A5",
          "ticks": 9672,
          "time": 51.388242749999996,
          "velocity": 0.952755905511811
        },
        {
          "duration": 0.23377612499999856,
          "durationTicks": 44,
          "midi": 84,
          "name": "C6",
          "ticks": 9792,
          "time": 52.025814,
          "velocity": 0.952755905511811
        },
        {
          "duration": 0.10626187499999418,
          "durationTicks": 20,
          "midi": 84,
          "name": "C6",
          "ticks": 9840,
          "time": 52.2808425,
          "velocity": 0.952755905511811
        },
        {
          "duration": 0.10626187500000128,
          "durationTicks": 20,
          "midi": 84,
          "name": "C6",
          "ticks": 9864,
          "time": 52.408356749999996,
          "velocity": 0.952755905511811
        },
        {
          "duration": 0.10626187500000128,
          "durationTicks": 20,
          "midi": 86,
          "name": "D6",
          "ticks": 9912,
          "time": 52.66338525,
          "velocity": 0.952755905511811
        },
        {
          "duration": 0.23377612499999856,
          "durationTicks": 44,
          "midi": 87,
          "name": "D#6",
          "ticks": 9960,
          "time": 52.91841375,
          "velocity": 0.952755905511811
        },
        {
          "duration": 0.10626187499999418,
          "durationTicks": 20,
          "midi": 86,
          "name": "D6",
          "ticks": 10008,
          "time": 53.17344225,
          "velocity": 0.952755905511811
        },
        {
          "duration": 0.10626187499999418,
          "durationTicks": 20,
          "midi": 84,
          "name": "C6",
          "ticks": 10032,
          "time": 53.3009565,
          "velocity": 0.952755905511811
        },
        {
          "duration": 0.10626187500000128,
          "durationTicks": 20,
          "midi": 81,
          "name": "A5",
          "ticks": 10056,
          "time": 53.428470749999995,
          "velocity": 0.952755905511811
        },
        {
          "duration": 0.10626187499999418,
          "durationTicks": 20,
          "midi": 84,
          "name": "C6",
          "ticks": 10080,
          "time": 53.555985,
          "velocity": 0.952755905511811
        },
        {
          "duration": 0.10626187500000128,
          "durationTicks": 20,
          "midi": 86,
          "name": "D6",
          "ticks": 10104,
          "time": 53.68349925,
          "velocity": 0.952755905511811
        },
        {
          "duration": 0.23377612499999856,
          "durationTicks": 44,
          "midi": 76,
          "name": "E5",
          "ticks": 10176,
          "time": 54.066041999999996,
          "velocity": 0.952755905511811
        },
        {
          "duration": 0.23377612499999856,
          "durationTicks": 44,
          "midi": 74,
          "name": "D5",
          "ticks": 10224,
          "time": 54.3210705,
          "velocity": 0.952755905511811
        },
        {
          "duration": 0.23377612499999856,
          "durationTicks": 44,
          "midi": 72,
          "name": "C5",
          "ticks": 10272,
          "time": 54.576099,
          "velocity": 0.952755905511811
        },
        {
          "duration": 0.23377612499999145,
          "durationTicks": 44,
          "midi": 71,
          "name": "B4",
          "ticks": 10320,
          "time": 54.8311275,
          "velocity": 0.952755905511811
        },
        {
          "duration": 0.23377612499999856,
          "durationTicks": 44,
          "midi": 74,
          "name": "D5",
          "ticks": 10368,
          "time": 55.086155999999995,
          "velocity": 0.952755905511811
        },
        {
          "duration": 0.23377612499999856,
          "durationTicks": 44,
          "midi": 72,
          "name": "C5",
          "ticks": 10416,
          "time": 55.3411845,
          "velocity": 0.952755905511811
        },
        {
          "duration": 0.23377612499999856,
          "durationTicks": 44,
          "midi": 71,
          "name": "B4",
          "ticks": 10464,
          "time": 55.596213,
          "velocity": 0.952755905511811
        },
        {
          "duration": 0.23377612499999856,
          "durationTicks": 44,
          "midi": 69,
          "name": "A4",
          "ticks": 10512,
          "time": 55.8512415,
          "velocity": 0.952755905511811
        },
        {
          "duration": 0.23377612499999856,
          "durationTicks": 44,
          "midi": 65,
          "name": "F4",
          "ticks": 10560,
          "time": 56.106269999999995,
          "velocity": 0.952755905511811
        },
        {
          "duration": 0.10626187500000128,
          "durationTicks": 20,
          "midi": 67,
          "name": "G4",
          "ticks": 10608,
          "time": 56.3612985,
          "velocity": 0.952755905511811
        },
        {
          "duration": 0.10626187499999418,
          "durationTicks": 20,
          "midi": 69,
          "name": "A4",
          "ticks": 10632,
          "time": 56.48881275,
          "velocity": 0.952755905511811
        },
        {
          "duration": 0.10626187500000128,
          "durationTicks": 20,
          "midi": 72,
          "name": "C5",
          "ticks": 10680,
          "time": 56.743841249999996,
          "velocity": 0.952755905511811
        },
        {
          "duration": 1.1263758750000008,
          "durationTicks": 212,
          "midi": 71,
          "name": "B4",
          "ticks": 10728,
          "time": 56.99886975,
          "velocity": 0.952755905511811
        },
        {
          "duration": 0.10626187499999418,
          "durationTicks": 20,
          "midi": 72,
          "name": "C5",
          "ticks": 11136,
          "time": 59.166612,
          "velocity": 0.952755905511811
        },
        {
          "duration": 0.10626187499999418,
          "durationTicks": 20,
          "midi": 69,
          "name": "A4",
          "ticks": 11160,
          "time": 59.29412625,
          "velocity": 0.952755905511811
        },
        {
          "duration": 0.10626187500000128,
          "durationTicks": 20,
          "midi": 72,
          "name": "C5",
          "ticks": 11184,
          "time": 59.421640499999995,
          "velocity": 0.952755905511811
        },
        {
          "duration": 0.10626187499999418,
          "durationTicks": 20,
          "midi": 74,
          "name": "D5",
          "ticks": 11208,
          "time": 59.54915475,
          "velocity": 0.952755905511811
        },
        {
          "duration": 0.10626187500000128,
          "durationTicks": 20,
          "midi": 75,
          "name": "D#5",
          "ticks": 11232,
          "time": 59.676669,
          "velocity": 0.952755905511811
        },
        {
          "duration": 0.10626187499999418,
          "durationTicks": 20,
          "midi": 74,
          "name": "D5",
          "ticks": 11256,
          "time": 59.80418325,
          "velocity": 0.952755905511811
        },
        {
          "duration": 0.10626187499999418,
          "durationTicks": 20,
          "midi": 72,
          "name": "C5",
          "ticks": 11280,
          "time": 59.9316975,
          "velocity": 0.952755905511811
        },
        {
          "duration": 0.10626187500000128,
          "durationTicks": 20,
          "midi": 69,
          "name": "A4",
          "ticks": 11304,
          "time": 60.059211749999996,
          "velocity": 0.952755905511811
        },
        {
          "duration": 0.05844403124999786,
          "durationTicks": 11,
          "midi": 75,
          "name": "D#5",
          "ticks": 11328,
          "time": 60.186726,
          "velocity": 0.952755905511811
        },
        {
          "duration": 0.05844403125000497,
          "durationTicks": 11,
          "midi": 74,
          "name": "D5",
          "ticks": 11342,
          "time": 60.2611093125,
          "velocity": 0.952755905511811
        },
        {
          "duration": 0.06907021875000652,
          "durationTicks": 13,
          "midi": 72,
          "name": "C5",
          "ticks": 11355,
          "time": 60.330179531249996,
          "velocity": 0.952755905511811
        },
        {
          "duration": 0.05844403125000497,
          "durationTicks": 11,
          "midi": 69,
          "name": "A4",
          "ticks": 11369,
          "time": 60.40456284374999,
          "velocity": 0.952755905511811
        },
        {
          "duration": 0.18064518750000502,
          "durationTicks": 34,
          "midi": 72,
          "name": "C5",
          "ticks": 11384,
          "time": 60.484259249999994,
          "velocity": 0.952755905511811
        },
        {
          "duration": 1.030740187499994,
          "durationTicks": 194,
          "midi": 74,
          "name": "D5",
          "ticks": 11425,
          "time": 60.70209609375,
          "velocity": 0.952755905511811
        },
        {
          "duration": 0.23377612499999856,
          "durationTicks": 44,
          "midi": 75,
          "name": "D#5",
          "ticks": 11640,
          "time": 61.84441125,
          "velocity": 0.952755905511811
        },
        {
          "duration": 0.10626187500000128,
          "durationTicks": 20,
          "midi": 76,
          "name": "E5",
          "ticks": 11688,
          "time": 62.099439749999995,
          "velocity": 0.952755905511811
        },
        {
          "duration": 0.23377612499999856,
          "durationTicks": 44,
          "midi": 79,
          "name": "G5",
          "ticks": 11712,
          "time": 62.226954,
          "velocity": 0.952755905511811
        },
        {
          "duration": 0.10626187499999418,
          "durationTicks": 20,
          "midi": 76,
          "name": "E5",
          "ticks": 11760,
          "time": 62.4819825,
          "velocity": 0.952755905511811
        },
        {
          "duration": 0.10626187499999418,
          "durationTicks": 20,
          "midi": 75,
          "name": "D#5",
          "ticks": 11784,
          "time": 62.60949675,
          "velocity": 0.952755905511811
        },
        {
          "duration": 0.10626187500000128,
          "durationTicks": 20,
          "midi": 74,
          "name": "D5",
          "ticks": 11808,
          "time": 62.737010999999995,
          "velocity": 0.952755905511811
        },
        {
          "duration": 0.10626187499999418,
          "durationTicks": 20,
          "midi": 72,
          "name": "C5",
          "ticks": 11832,
          "time": 62.86452525,
          "velocity": 0.952755905511811
        },
        {
          "duration": 0.10626187500000128,
          "durationTicks": 20,
          "midi": 69,
          "name": "A4",
          "ticks": 11856,
          "time": 62.9920395,
          "velocity": 0.952755905511811
        },
        {
          "duration": 0.10626187500000128,
          "durationTicks": 20,
          "midi": 71,
          "name": "B4",
          "ticks": 11880,
          "time": 63.119553749999994,
          "velocity": 0.952755905511811
        },
        {
          "duration": 0.23377612499999856,
          "durationTicks": 44,
          "midi": 72,
          "name": "C5",
          "ticks": 11904,
          "time": 63.247068,
          "velocity": 0.952755905511811
        },
        {
          "duration": 0.10626187499999418,
          "durationTicks": 20,
          "midi": 74,
          "name": "D5",
          "ticks": 11952,
          "time": 63.5020965,
          "velocity": 0.952755905511811
        },
        {
          "duration": 0.23377612499999856,
          "durationTicks": 44,
          "midi": 76,
          "name": "E5",
          "ticks": 12000,
          "time": 63.757124999999995,
          "velocity": 0.952755905511811
        },
        {
          "duration": 0.23377612500000566,
          "durationTicks": 44,
          "midi": 79,
          "name": "G5",
          "ticks": 12048,
          "time": 64.0121535,
          "velocity": 0.952755905511811
        },
        {
          "duration": 0.23377612500000566,
          "durationTicks": 44,
          "midi": 81,
          "name": "A5",
          "ticks": 12096,
          "time": 64.26718199999999,
          "velocity": 0.952755905511811
        },
        {
          "duration": 0.23377612499999145,
          "durationTicks": 44,
          "midi": 76,
          "name": "E5",
          "ticks": 12144,
          "time": 64.5222105,
          "velocity": 0.952755905511811
        },
        {
          "duration": 0.10626187500000128,
          "durationTicks": 20,
          "midi": 75,
          "name": "D#5",
          "ticks": 12192,
          "time": 64.777239,
          "velocity": 0.952755905511811
        },
        {
          "duration": 0.10626187500000128,
          "durationTicks": 20,
          "midi": 74,
          "name": "D5",
          "ticks": 12216,
          "time": 64.90475325,
          "velocity": 0.952755905511811
        },
        {
          "duration": 0.10626187499998707,
          "durationTicks": 20,
          "midi": 72,
          "name": "C5",
          "ticks": 12240,
          "time": 65.0322675,
          "velocity": 0.952755905511811
        },
        {
          "duration": 1.126375875000008,
          "durationTicks": 212,
          "midi": 74,
          "name": "D5",
          "ticks": 12264,
          "time": 65.15978175,
          "velocity": 0.952755905511811
        },
        {
          "duration": 0.23377612499999145,
          "durationTicks": 44,
          "midi": 72,
          "name": "C5",
          "ticks": 12480,
          "time": 66.30741,
          "velocity": 0.952755905511811
        },
        {
          "duration": 0.23377612500000566,
          "durationTicks": 44,
          "midi": 74,
          "name": "D5",
          "ticks": 12528,
          "time": 66.5624385,
          "velocity": 0.952755905511811
        },
        {
          "duration": 0.23377612500000566,
          "durationTicks": 44,
          "midi": 76,
          "name": "E5",
          "ticks": 12576,
          "time": 66.817467,
          "velocity": 0.952755905511811
        },
        {
          "duration": 0.23377612500000566,
          "durationTicks": 44,
          "midi": 84,
          "name": "C6",
          "ticks": 12624,
          "time": 67.0724955,
          "velocity": 0.952755905511811
        },
        {
          "duration": 0.4888046250000002,
          "durationTicks": 92,
          "midi": 83,
          "name": "B5",
          "ticks": 12672,
          "time": 67.327524,
          "velocity": 0.952755905511811
        },
        {
          "duration": 0.4888046250000002,
          "durationTicks": 92,
          "midi": 81,
          "name": "A5",
          "ticks": 12768,
          "time": 67.837581,
          "velocity": 0.952755905511811
        },
        {
          "duration": 0.4888046250000002,
          "durationTicks": 92,
          "midi": 83,
          "name": "B5",
          "ticks": 12864,
          "time": 68.347638,
          "velocity": 0.952755905511811
        },
        {
          "duration": 0.4888046250000144,
          "durationTicks": 92,
          "midi": 84,
          "name": "C6",
          "ticks": 12960,
          "time": 68.85769499999999,
          "velocity": 0.952755905511811
        },
        {
          "duration": 0.4888046250000002,
          "durationTicks": 92,
          "midi": 86,
          "name": "D6",
          "ticks": 13056,
          "time": 69.367752,
          "velocity": 0.952755905511811
        },
        {
          "duration": 0.4888046250000002,
          "durationTicks": 92,
          "midi": 83,
          "name": "B5",
          "ticks": 13152,
          "time": 69.877809,
          "velocity": 0.952755905511811
        },
        {
          "duration": 0.9988616250000035,
          "durationTicks": 188,
          "midi": 88,
          "name": "E6",
          "ticks": 13248,
          "time": 70.387866,
          "velocity": 0.952755905511811
        },
        {
          "duration": 0.047817843749996314,
          "durationTicks": 9,
          "midi": 88,
          "name": "E6",
          "ticks": 13440,
          "time": 71.40798,
          "velocity": 0.952755905511811
        },
        {
          "duration": 0.047817843749996314,
          "durationTicks": 9,
          "midi": 87,
          "name": "D#6",
          "ticks": 13451,
          "time": 71.46642403125,
          "velocity": 0.952755905511811
        },
        {
          "duration": 0.047817843749996314,
          "durationTicks": 9,
          "midi": 86,
          "name": "D6",
          "ticks": 13462,
          "time": 71.52486806249999,
          "velocity": 0.952755905511811
        },
        {
          "duration": 0.05313093750000064,
          "durationTicks": 10,
          "midi": 85,
          "name": "C#6",
          "ticks": 13473,
          "time": 71.58331209375,
          "velocity": 0.952755905511811
        },
        {
          "duration": 0.05313093750000064,
          "durationTicks": 10,
          "midi": 84,
          "name": "C6",
          "ticks": 13484,
          "time": 71.641756125,
          "velocity": 0.952755905511811
        },
        {
          "duration": 0.05313093750001485,
          "durationTicks": 10,
          "midi": 83,
          "name": "B5",
          "ticks": 13495,
          "time": 71.70020015624999,
          "velocity": 0.952755905511811
        },
        {
          "duration": 0.047817843750010525,
          "durationTicks": 9,
          "midi": 82,
          "name": "A#5",
          "ticks": 13507,
          "time": 71.76395728124999,
          "velocity": 0.952755905511811
        },
        {
          "duration": 0.047817843750010525,
          "durationTicks": 9,
          "midi": 81,
          "name": "A5",
          "ticks": 13518,
          "time": 71.82240131249999,
          "velocity": 0.952755905511811
        },
        {
          "duration": 0.5578748437499996,
          "durationTicks": 105,
          "midi": 80,
          "name": "G#5",
          "ticks": 13529,
          "time": 71.88084534375,
          "velocity": 0.952755905511811
        },
        {
          "duration": 0.047817843749996314,
          "durationTicks": 9,
          "midi": 79,
          "name": "G5",
          "ticks": 13632,
          "time": 72.428094,
          "velocity": 0.952755905511811
        },
        {
          "duration": 0.047817843749996314,
          "durationTicks": 9,
          "midi": 78,
          "name": "F#5",
          "ticks": 13643,
          "time": 72.48653803125,
          "velocity": 0.952755905511811
        },
        {
          "duration": 0.047817843749996314,
          "durationTicks": 9,
          "midi": 77,
          "name": "F5",
          "ticks": 13654,
          "time": 72.5449820625,
          "velocity": 0.952755905511811
        },
        {
          "duration": 0.05313093749998643,
          "durationTicks": 10,
          "midi": 76,
          "name": "E5",
          "ticks": 13665,
          "time": 72.60342609375,
          "velocity": 0.952755905511811
        },
        {
          "duration": 0.05313093749998643,
          "durationTicks": 10,
          "midi": 75,
          "name": "D#5",
          "ticks": 13676,
          "time": 72.66187012500001,
          "velocity": 0.952755905511811
        },
        {
          "duration": 0.05313093750000064,
          "durationTicks": 10,
          "midi": 74,
          "name": "D5",
          "ticks": 13687,
          "time": 72.72031415625,
          "velocity": 0.952755905511811
        },
        {
          "duration": 0.047817843749996314,
          "durationTicks": 9,
          "midi": 73,
          "name": "C#5",
          "ticks": 13699,
          "time": 72.78407128125,
          "velocity": 0.952755905511811
        },
        {
          "duration": 0.047817843749996314,
          "durationTicks": 9,
          "midi": 72,
          "name": "C5",
          "ticks": 13710,
          "time": 72.8425153125,
          "velocity": 0.952755905511811
        },
        {
          "duration": 0.047817843750010525,
          "durationTicks": 9,
          "midi": 71,
          "name": "B4",
          "ticks": 13728,
          "time": 72.93815099999999,
          "velocity": 0.952755905511811
        },
        {
          "duration": 0.047817843750010525,
          "durationTicks": 9,
          "midi": 70,
          "name": "A#4",
          "ticks": 13739,
          "time": 72.99659503125,
          "velocity": 0.952755905511811
        },
        {
          "duration": 0.047817843750010525,
          "durationTicks": 9,
          "midi": 69,
          "name": "A4",
          "ticks": 13750,
          "time": 73.05503906249999,
          "velocity": 0.952755905511811
        },
        {
          "duration": 0.05313093750000064,
          "durationTicks": 10,
          "midi": 68,
          "name": "G#4",
          "ticks": 13761,
          "time": 73.11348309374999,
          "velocity": 0.952755905511811
        },
        {
          "duration": 0.05313093750000064,
          "durationTicks": 10,
          "midi": 67,
          "name": "G4",
          "ticks": 13772,
          "time": 73.171927125,
          "velocity": 0.952755905511811
        },
        {
          "duration": 0.05313093750001485,
          "durationTicks": 10,
          "midi": 66,
          "name": "F#4",
          "ticks": 13783,
          "time": 73.23037115624999,
          "velocity": 0.952755905511811
        },
        {
          "duration": 0.047817843749996314,
          "durationTicks": 9,
          "midi": 65,
          "name": "F4",
          "ticks": 13795,
          "time": 73.29412828125,
          "velocity": 0.952755905511811
        },
        {
          "duration": 0.047817843749996314,
          "durationTicks": 9,
          "midi": 64,
          "name": "E4",
          "ticks": 13806,
          "time": 73.3525723125,
          "velocity": 0.952755905511811
        },
        {
          "duration": 0.047817843750010525,
          "durationTicks": 9,
          "midi": 63,
          "name": "D#4",
          "ticks": 13824,
          "time": 73.448208,
          "velocity": 0.952755905511811
        },
        {
          "duration": 0.047817843749996314,
          "durationTicks": 9,
          "midi": 62,
          "name": "D4",
          "ticks": 13835,
          "time": 73.50665203125,
          "velocity": 0.952755905511811
        },
        {
          "duration": 0.047817843749996314,
          "durationTicks": 9,
          "midi": 61,
          "name": "C#4",
          "ticks": 13846,
          "time": 73.56509606249999,
          "velocity": 0.952755905511811
        },
        {
          "duration": 0.05313093750000064,
          "durationTicks": 10,
          "midi": 60,
          "name": "C4",
          "ticks": 13857,
          "time": 73.62354009375,
          "velocity": 0.952755905511811
        },
        {
          "duration": 0.05313093750000064,
          "durationTicks": 10,
          "midi": 59,
          "name": "B3",
          "ticks": 13868,
          "time": 73.681984125,
          "velocity": 0.952755905511811
        },
        {
          "duration": 0.05313093750001485,
          "durationTicks": 10,
          "midi": 58,
          "name": "A#3",
          "ticks": 13879,
          "time": 73.74042815624999,
          "velocity": 0.952755905511811
        },
        {
          "duration": 0.047817843749996314,
          "durationTicks": 9,
          "midi": 57,
          "name": "A3",
          "ticks": 13891,
          "time": 73.80418528125,
          "velocity": 0.952755905511811
        },
        {
          "duration": 0.047817843750010525,
          "durationTicks": 9,
          "midi": 56,
          "name": "G#3",
          "ticks": 13902,
          "time": 73.86262931249999,
          "velocity": 0.952755905511811
        },
        {
          "duration": 0.047817843749996314,
          "durationTicks": 9,
          "midi": 55,
          "name": "G3",
          "ticks": 13920,
          "time": 73.958265,
          "velocity": 0.952755905511811
        },
        {
          "duration": 0.047817843749996314,
          "durationTicks": 9,
          "midi": 54,
          "name": "F#3",
          "ticks": 13931,
          "time": 74.01670903125,
          "velocity": 0.952755905511811
        },
        {
          "duration": 0.047817843749996314,
          "durationTicks": 9,
          "midi": 53,
          "name": "F3",
          "ticks": 13942,
          "time": 74.0751530625,
          "velocity": 0.952755905511811
        },
        {
          "duration": 0.05313093750000064,
          "durationTicks": 10,
          "midi": 52,
          "name": "E3",
          "ticks": 13953,
          "time": 74.13359709375,
          "velocity": 0.952755905511811
        },
        {
          "duration": 0.05313093750000064,
          "durationTicks": 10,
          "midi": 51,
          "name": "D#3",
          "ticks": 13964,
          "time": 74.192041125,
          "velocity": 0.952755905511811
        },
        {
          "duration": 0.05313093750001485,
          "durationTicks": 10,
          "midi": 50,
          "name": "D3",
          "ticks": 13975,
          "time": 74.25048515625,
          "velocity": 0.952755905511811
        },
        {
          "duration": 0.047817843750010525,
          "durationTicks": 9,
          "midi": 49,
          "name": "C#3",
          "ticks": 13987,
          "time": 74.31424228124999,
          "velocity": 0.952755905511811
        },
        {
          "duration": 0.047817843750010525,
          "durationTicks": 9,
          "midi": 48,
          "name": "C3",
          "ticks": 13998,
          "time": 74.3726863125,
          "velocity": 0.952755905511811
        }
      ]
    },
    {
      "channel": 0,
      "controlChanges": {
        "6": [
          {
            "number": 6,
            "ticks": 0,
            "time": 0,
            "value": 0.09448818897637795
          }
        ],
        "7": [
          {
            "number": 7,
            "ticks": 0,
            "time": 0,
            "value": 0
          }
        ],
        "10": [
          {
            "number": 10,
            "ticks": 0,
            "time": 0,
            "value": 0.5039370078740157
          },
          {
            "number": 10,
            "ticks": 0,
            "time": 0,
            "value": 0.5039370078740157
          }
        ],
        "100": [
          {
            "number": 100,
            "ticks": 0,
            "time": 0,
            "value": 0
          }
        ],
        "101": [
          {
            "number": 101,
            "ticks": 0,
            "time": 0,
            "value": 0
          }
        ]
      },
      "pitchBends": [
        {
          "ticks": 0,
          "time": 0,
          "value": 0
        },
        {
          "ticks": 0,
          "time": 0,
          "value": 0
        }
      ],
      "instrument": {
        "family": "piano",
        "number": 0,
        "name": "acoustic grand piano"
      },
      "name": "overdrive",
      "notes": [],
      "endOfTrackTicks": 21120
    },
    {
      "channel": 13,
      "controlChanges": {
        "6": [
          {
            "number": 6,
            "ticks": 0,
            "time": 0,
            "value": 0.09448818897637795
          },
          {
            "number": 6,
            "ticks": 21120,
            "time": 112.21253999999999,
            "value": 0.09448818897637795
          },
          {
            "number": 6,
            "ticks": 21120,
            "time": 112.21253999999999,
            "value": 0.09448818897637795
          },
          {
            "number": 6,
            "ticks": 21120,
            "time": 112.21253999999999,
            "value": 0.09448818897637795
          }
        ],
        "7": [
          {
            "number": 7,
            "ticks": 0,
            "time": 0,
            "value": 0.7874015748031497
          },
          {
            "number": 7,
            "ticks": 0,
            "time": 0,
            "value": 0.7874015748031497
          },
          {
            "number": 7,
            "ticks": 0,
            "time": 0,
            "value": 0.7874015748031497
          },
          {
            "number": 7,
            "ticks": 33,
            "time": 0.17533209375,
            "value": 0
          },
          {
            "number": 7,
            "ticks": 60,
            "time": 0.31878562499999996,
            "value": 0
          },
          {
            "number": 7,
            "ticks": 86,
            "time": 0.4569260625,
            "value": 0
          },
          {
            "number": 7,
            "ticks": 112,
            "time": 0.5950665,
            "value": 0
          },
          {
            "number": 7,
            "ticks": 138,
            "time": 0.7332069375,
            "value": 0
          },
          {
            "number": 7,
            "ticks": 164,
            "time": 0.8713473749999999,
            "value": 0
          },
          {
            "number": 7,
            "ticks": 190,
            "time": 1.0094878125,
            "value": 0
          },
          {
            "number": 7,
            "ticks": 216,
            "time": 1.14762825,
            "value": 0
          },
          {
            "number": 7,
            "ticks": 242,
            "time": 1.2857686875,
            "value": 0
          },
          {
            "number": 7,
            "ticks": 268,
            "time": 1.4239091249999998,
            "value": 0
          },
          {
            "number": 7,
            "ticks": 294,
            "time": 1.5620495625,
            "value": 0
          },
          {
            "number": 7,
            "ticks": 320,
            "time": 1.70019,
            "value": 0
          },
          {
            "number": 7,
            "ticks": 347,
            "time": 1.84364353125,
            "value": 0
          },
          {
            "number": 7,
            "ticks": 373,
            "time": 1.9817839687499998,
            "value": 0
          },
          {
            "number": 7,
            "ticks": 399,
            "time": 2.11992440625,
            "value": 0
          },
          {
            "number": 7,
            "ticks": 425,
            "time": 2.2580648437499997,
            "value": 0
          },
          {
            "number": 7,
            "ticks": 451,
            "time": 2.39620528125,
            "value": 0
          },
          {
            "number": 7,
            "ticks": 477,
            "time": 2.53434571875,
            "value": 0
          },
          {
            "number": 7,
            "ticks": 503,
            "time": 2.6724861562499997,
            "value": 0
          },
          {
            "number": 7,
            "ticks": 529,
            "time": 2.81062659375,
            "value": 0
          },
          {
            "number": 7,
            "ticks": 555,
            "time": 2.94876703125,
            "value": 0
          },
          {
            "number": 7,
            "ticks": 581,
            "time": 3.0869074687499998,
            "value": 0
          },
          {
            "number": 7,
            "ticks": 607,
            "time": 3.22504790625,
            "value": 0
          },
          {
            "number": 7,
            "ticks": 633,
            "time": 3.36318834375,
            "value": 0
          },
          {
            "number": 7,
            "ticks": 16501,
            "time": 87.67135996875,
            "value": 0.4015748031496063
          },
          {
            "number": 7,
            "ticks": 16502,
            "time": 87.6766730625,
            "value": 0.4015748031496063
          },
          {
            "number": 7,
            "ticks": 16503,
            "time": 87.68198615624999,
            "value": 0.4015748031496063
          },
          {
            "number": 7,
            "ticks": 16504,
            "time": 87.68729925,
            "value": 0.4015748031496063
          },
          {
            "number": 7,
            "ticks": 16505,
            "time": 87.69261234375,
            "value": 0.4015748031496063
          },
          {
            "number": 7,
            "ticks": 16506,
            "time": 87.6979254375,
            "value": 0.4015748031496063
          },
          {
            "number": 7,
            "ticks": 16507,
            "time": 87.70323853125,
            "value": 0.4015748031496063
          },
          {
            "number": 7,
            "ticks": 16508,
            "time": 87.708551625,
            "value": 0.4094488188976378
          },
          {
            "number": 7,
            "ticks": 16509,
            "time": 87.71386471875,
            "value": 0.4094488188976378
          },
          {
            "number": 7,
            "ticks": 16510,
            "time": 87.71917781249999,
            "value": 0.4094488188976378
          },
          {
            "number": 7,
            "ticks": 16511,
            "time": 87.72449090625,
            "value": 0.4094488188976378
          },
          {
            "number": 7,
            "ticks": 16512,
            "time": 87.729804,
            "value": 0.4094488188976378
          },
          {
            "number": 7,
            "ticks": 16513,
            "time": 87.73511709374999,
            "value": 0.4094488188976378
          },
          {
            "number": 7,
            "ticks": 16514,
            "time": 87.7404301875,
            "value": 0.4094488188976378
          },
          {
            "number": 7,
            "ticks": 16515,
            "time": 87.74574328125,
            "value": 0.4094488188976378
          },
          {
            "number": 7,
            "ticks": 16516,
            "time": 87.75105637499999,
            "value": 0.4094488188976378
          },
          {
            "number": 7,
            "ticks": 16517,
            "time": 87.75636946875001,
            "value": 0.4094488188976378
          },
          {
            "number": 7,
            "ticks": 16518,
            "time": 87.7616825625,
            "value": 0.4094488188976378
          },
          {
            "number": 7,
            "ticks": 16519,
            "time": 87.76699565624999,
            "value": 0.4094488188976378
          },
          {
            "number": 7,
            "ticks": 16520,
            "time": 87.77230875000001,
            "value": 0.4094488188976378
          },
          {
            "number": 7,
            "ticks": 16521,
            "time": 87.77762184375,
            "value": 0.4094488188976378
          },
          {
            "number": 7,
            "ticks": 16522,
            "time": 87.78293493749999,
            "value": 0.4094488188976378
          },
          {
            "number": 7,
            "ticks": 16523,
            "time": 87.78824803125,
            "value": 0.4094488188976378
          },
          {
            "number": 7,
            "ticks": 16524,
            "time": 87.793561125,
            "value": 0.4094488188976378
          },
          {
            "number": 7,
            "ticks": 16525,
            "time": 87.79887421874999,
            "value": 0.4094488188976378
          },
          {
            "number": 7,
            "ticks": 16526,
            "time": 87.8041873125,
            "value": 0.4094488188976378
          },
          {
            "number": 7,
            "ticks": 16527,
            "time": 87.80950040625,
            "value": 0.4094488188976378
          },
          {
            "number": 7,
            "ticks": 16528,
            "time": 87.81481349999999,
            "value": 0.4094488188976378
          },
          {
            "number": 7,
            "ticks": 16529,
            "time": 87.82012659375,
            "value": 0.4094488188976378
          },
          {
            "number": 7,
            "ticks": 16530,
            "time": 87.8254396875,
            "value": 0.4094488188976378
          },
          {
            "number": 7,
            "ticks": 16531,
            "time": 87.83075278125,
            "value": 0.4094488188976378
          },
          {
            "number": 7,
            "ticks": 16532,
            "time": 87.836065875,
            "value": 0.4094488188976378
          },
          {
            "number": 7,
            "ticks": 16533,
            "time": 87.84137896874999,
            "value": 0.4094488188976378
          },
          {
            "number": 7,
            "ticks": 16534,
            "time": 87.8466920625,
            "value": 0.4094488188976378
          },
          {
            "number": 7,
            "ticks": 16535,
            "time": 87.85200515625,
            "value": 0.4094488188976378
          },
          {
            "number": 7,
            "ticks": 16536,
            "time": 87.85731824999999,
            "value": 0.4094488188976378
          },
          {
            "number": 7,
            "ticks": 16537,
            "time": 87.86263134375,
            "value": 0.4094488188976378
          },
          {
            "number": 7,
            "ticks": 16538,
            "time": 87.8679444375,
            "value": 0.4094488188976378
          },
          {
            "number": 7,
            "ticks": 16539,
            "time": 87.87325753124999,
            "value": 0.4094488188976378
          },
          {
            "number": 7,
            "ticks": 16540,
            "time": 87.878570625,
            "value": 0.4094488188976378
          },
          {
            "number": 7,
            "ticks": 16541,
            "time": 87.88388371875,
            "value": 0.4094488188976378
          },
          {
            "number": 7,
            "ticks": 16542,
            "time": 87.8891968125,
            "value": 0.4094488188976378
          },
          {
            "number": 7,
            "ticks": 16543,
            "time": 87.89450990625,
            "value": 0.4094488188976378
          },
          {
            "number": 7,
            "ticks": 16544,
            "time": 87.899823,
            "value": 0.4094488188976378
          },
          {
            "number": 7,
            "ticks": 16545,
            "time": 87.90513609375,
            "value": 0.4094488188976378
          },
          {
            "number": 7,
            "ticks": 16546,
            "time": 87.91044918749999,
            "value": 0.4094488188976378
          },
          {
            "number": 7,
            "ticks": 16547,
            "time": 87.91576228125,
            "value": 0.4094488188976378
          },
          {
            "number": 7,
            "ticks": 16548,
            "time": 87.921075375,
            "value": 0.4094488188976378
          },
          {
            "number": 7,
            "ticks": 16549,
            "time": 87.92638846874999,
            "value": 0.4094488188976378
          },
          {
            "number": 7,
            "ticks": 16550,
            "time": 87.9317015625,
            "value": 0.4094488188976378
          },
          {
            "number": 7,
            "ticks": 16551,
            "time": 87.93701465625,
            "value": 0.4094488188976378
          },
          {
            "number": 7,
            "ticks": 16552,
            "time": 87.94232774999999,
            "value": 0.4094488188976378
          },
          {
            "number": 7,
            "ticks": 16553,
            "time": 87.94764084375001,
            "value": 0.4094488188976378
          },
          {
            "number": 7,
            "ticks": 16554,
            "time": 87.9529539375,
            "value": 0.4094488188976378
          },
          {
            "number": 7,
            "ticks": 16555,
            "time": 87.95826703124999,
            "value": 0.4094488188976378
          },
          {
            "number": 7,
            "ticks": 16556,
            "time": 87.96358012500001,
            "value": 0.4094488188976378
          },
          {
            "number": 7,
            "ticks": 16557,
            "time": 87.96889321875,
            "value": 0.4094488188976378
          },
          {
            "number": 7,
            "ticks": 16558,
            "time": 87.97420631249999,
            "value": 0.4094488188976378
          },
          {
            "number": 7,
            "ticks": 16559,
            "time": 87.97951940625,
            "value": 0.4094488188976378
          },
          {
            "number": 7,
            "ticks": 16560,
            "time": 87.9848325,
            "value": 0.4094488188976378
          },
          {
            "number": 7,
            "ticks": 16561,
            "time": 87.99014559374999,
            "value": 0.4094488188976378
          },
          {
            "number": 7,
            "ticks": 16562,
            "time": 87.9954586875,
            "value": 0.4094488188976378
          },
          {
            "number": 7,
            "ticks": 16563,
            "time": 88.00077178125,
            "value": 0.4094488188976378
          },
          {
            "number": 7,
            "ticks": 16564,
            "time": 88.006084875,
            "value": 0.4094488188976378
          },
          {
            "number": 7,
            "ticks": 16565,
            "time": 88.01139796875,
            "value": 0.4094488188976378
          },
          {
            "number": 7,
            "ticks": 16566,
            "time": 88.0167110625,
            "value": 0.4094488188976378
          },
          {
            "number": 7,
            "ticks": 16567,
            "time": 88.02202415625,
            "value": 0.4094488188976378
          },
          {
            "number": 7,
            "ticks": 16568,
            "time": 88.02733725,
            "value": 0.4094488188976378
          },
          {
            "number": 7,
            "ticks": 16569,
            "time": 88.03265034374999,
            "value": 0.41732283464566927
          },
          {
            "number": 7,
            "ticks": 16570,
            "time": 88.0379634375,
            "value": 0.41732283464566927
          },
          {
            "number": 7,
            "ticks": 16571,
            "time": 88.04327653125,
            "value": 0.41732283464566927
          },
          {
            "number": 7,
            "ticks": 16572,
            "time": 88.04858962499999,
            "value": 0.41732283464566927
          },
          {
            "number": 7,
            "ticks": 16573,
            "time": 88.05390271875,
            "value": 0.41732283464566927
          },
          {
            "number": 7,
            "ticks": 16574,
            "time": 88.0592158125,
            "value": 0.41732283464566927
          },
          {
            "number": 7,
            "ticks": 16575,
            "time": 88.06452890625,
            "value": 0.41732283464566927
          },
          {
            "number": 7,
            "ticks": 16576,
            "time": 88.069842,
            "value": 0.41732283464566927
          },
          {
            "number": 7,
            "ticks": 16577,
            "time": 88.07515509375,
            "value": 0.41732283464566927
          },
          {
            "number": 7,
            "ticks": 16578,
            "time": 88.0804681875,
            "value": 0.41732283464566927
          },
          {
            "number": 7,
            "ticks": 16579,
            "time": 88.08578128125,
            "value": 0.41732283464566927
          },
          {
            "number": 7,
            "ticks": 16580,
            "time": 88.091094375,
            "value": 0.41732283464566927
          },
          {
            "number": 7,
            "ticks": 16581,
            "time": 88.09640746875,
            "value": 0.41732283464566927
          },
          {
            "number": 7,
            "ticks": 16582,
            "time": 88.10172056249999,
            "value": 0.41732283464566927
          },
          {
            "number": 7,
            "ticks": 16583,
            "time": 88.10703365625,
            "value": 0.41732283464566927
          },
          {
            "number": 7,
            "ticks": 16584,
            "time": 88.11234675,
            "value": 0.41732283464566927
          },
          {
            "number": 7,
            "ticks": 16585,
            "time": 88.11765984374999,
            "value": 0.41732283464566927
          },
          {
            "number": 7,
            "ticks": 16586,
            "time": 88.1229729375,
            "value": 0.41732283464566927
          },
          {
            "number": 7,
            "ticks": 16587,
            "time": 88.12828603125,
            "value": 0.41732283464566927
          },
          {
            "number": 7,
            "ticks": 16588,
            "time": 88.13359912499999,
            "value": 0.41732283464566927
          },
          {
            "number": 7,
            "ticks": 16589,
            "time": 88.13891221875001,
            "value": 0.41732283464566927
          },
          {
            "number": 7,
            "ticks": 16590,
            "time": 88.1442253125,
            "value": 0.41732283464566927
          },
          {
            "number": 7,
            "ticks": 16591,
            "time": 88.14953840624999,
            "value": 0.41732283464566927
          },
          {
            "number": 7,
            "ticks": 16592,
            "time": 88.1548515,
            "value": 0.41732283464566927
          },
          {
            "number": 7,
            "ticks": 16593,
            "time": 88.16016459375,
            "value": 0.41732283464566927
          },
          {
            "number": 7,
            "ticks": 16594,
            "time": 88.16547768749999,
            "value": 0.41732283464566927
          },
          {
            "number": 7,
            "ticks": 16595,
            "time": 88.17079078125,
            "value": 0.41732283464566927
          },
          {
            "number": 7,
            "ticks": 16596,
            "time": 88.176103875,
            "value": 0.41732283464566927
          },
          {
            "number": 7,
            "ticks": 16597,
            "time": 88.18141696874999,
            "value": 0.41732283464566927
          },
          {
            "number": 7,
            "ticks": 16598,
            "time": 88.1867300625,
            "value": 0.41732283464566927
          },
          {
            "number": 7,
            "ticks": 16599,
            "time": 88.19204315625,
            "value": 0.41732283464566927
          },
          {
            "number": 7,
            "ticks": 16600,
            "time": 88.19735625,
            "value": 0.41732283464566927
          },
          {
            "number": 7,
            "ticks": 16601,
            "time": 88.20266934375,
            "value": 0.41732283464566927
          },
          {
            "number": 7,
            "ticks": 16602,
            "time": 88.2079824375,
            "value": 0.41732283464566927
          },
          {
            "number": 7,
            "ticks": 16603,
            "time": 88.21329553125,
            "value": 0.41732283464566927
          },
          {
            "number": 7,
            "ticks": 16604,
            "time": 88.218608625,
            "value": 0.41732283464566927
          },
          {
            "number": 7,
            "ticks": 16605,
            "time": 88.22392171874999,
            "value": 0.41732283464566927
          },
          {
            "number": 7,
            "ticks": 16606,
            "time": 88.2292348125,
            "value": 0.41732283464566927
          },
          {
            "number": 7,
            "ticks": 16607,
            "time": 88.23454790625,
            "value": 0.41732283464566927
          },
          {
            "number": 7,
            "ticks": 16608,
            "time": 88.23986099999999,
            "value": 0.41732283464566927
          },
          {
            "number": 7,
            "ticks": 16609,
            "time": 88.24517409375,
            "value": 0.41732283464566927
          },
          {
            "number": 7,
            "ticks": 16610,
            "time": 88.2504871875,
            "value": 0.41732283464566927
          },
          {
            "number": 7,
            "ticks": 16611,
            "time": 88.25580028125,
            "value": 0.41732283464566927
          },
          {
            "number": 7,
            "ticks": 16612,
            "time": 88.261113375,
            "value": 0.41732283464566927
          },
          {
            "number": 7,
            "ticks": 16613,
            "time": 88.26642646875,
            "value": 0.41732283464566927
          },
          {
            "number": 7,
            "ticks": 16614,
            "time": 88.2717395625,
            "value": 0.41732283464566927
          },
          {
            "number": 7,
            "ticks": 16615,
            "time": 88.27705265624999,
            "value": 0.41732283464566927
          },
          {
            "number": 7,
            "ticks": 16616,
            "time": 88.28236575,
            "value": 0.41732283464566927
          },
          {
            "number": 7,
            "ticks": 16617,
            "time": 88.28767884375,
            "value": 0.41732283464566927
          },
          {
            "number": 7,
            "ticks": 16618,
            "time": 88.29299193749999,
            "value": 0.41732283464566927
          },
          {
            "number": 7,
            "ticks": 16619,
            "time": 88.29830503125,
            "value": 0.41732283464566927
          },
          {
            "number": 7,
            "ticks": 16620,
            "time": 88.303618125,
            "value": 0.41732283464566927
          },
          {
            "number": 7,
            "ticks": 16621,
            "time": 88.30893121874999,
            "value": 0.41732283464566927
          },
          {
            "number": 7,
            "ticks": 16622,
            "time": 88.31424431250001,
            "value": 0.41732283464566927
          },
          {
            "number": 7,
            "ticks": 16623,
            "time": 88.31955740625,
            "value": 0.41732283464566927
          },
          {
            "number": 7,
            "ticks": 16624,
            "time": 88.32487049999999,
            "value": 0.41732283464566927
          },
          {
            "number": 7,
            "ticks": 16625,
            "time": 88.33018359375001,
            "value": 0.41732283464566927
          },
          {
            "number": 7,
            "ticks": 16626,
            "time": 88.3354966875,
            "value": 0.41732283464566927
          },
          {
            "number": 7,
            "ticks": 16627,
            "time": 88.34080978124999,
            "value": 0.41732283464566927
          },
          {
            "number": 7,
            "ticks": 16628,
            "time": 88.346122875,
            "value": 0.41732283464566927
          },
          {
            "number": 7,
            "ticks": 16629,
            "time": 88.35143596875,
            "value": 0.41732283464566927
          },
          {
            "number": 7,
            "ticks": 16630,
            "time": 88.35674906249999,
            "value": 0.41732283464566927
          },
          {
            "number": 7,
            "ticks": 16631,
            "time": 88.36206215625,
            "value": 0.41732283464566927
          },
          {
            "number": 7,
            "ticks": 16632,
            "time": 88.36737525,
            "value": 0.41732283464566927
          },
          {
            "number": 7,
            "ticks": 16633,
            "time": 88.37268834374999,
            "value": 0.41732283464566927
          },
          {
            "number": 7,
            "ticks": 16634,
            "time": 88.3780014375,
            "value": 0.41732283464566927
          },
          {
            "number": 7,
            "ticks": 16635,
            "time": 88.38331453125,
            "value": 0.41732283464566927
          },
          {
            "number": 7,
            "ticks": 16636,
            "time": 88.388627625,
            "value": 0.41732283464566927
          },
          {
            "number": 7,
            "ticks": 16637,
            "time": 88.39394071875,
            "value": 0.41732283464566927
          },
          {
            "number": 7,
            "ticks": 16638,
            "time": 88.39925381249999,
            "value": 0.41732283464566927
          },
          {
            "number": 7,
            "ticks": 16639,
            "time": 88.40456690625,
            "value": 0.41732283464566927
          },
          {
            "number": 7,
            "ticks": 16640,
            "time": 88.40988,
            "value": 0.4251968503937008
          },
          {
            "number": 7,
            "ticks": 16641,
            "time": 88.41519309374999,
            "value": 0.4251968503937008
          },
          {
            "number": 7,
            "ticks": 16642,
            "time": 88.4205061875,
            "value": 0.4251968503937008
          },
          {
            "number": 7,
            "ticks": 16643,
            "time": 88.42581928125,
            "value": 0.4251968503937008
          },
          {
            "number": 7,
            "ticks": 16644,
            "time": 88.43113237499999,
            "value": 0.4251968503937008
          },
          {
            "number": 7,
            "ticks": 16645,
            "time": 88.43644546875,
            "value": 0.4251968503937008
          },
          {
            "number": 7,
            "ticks": 16646,
            "time": 88.4417585625,
            "value": 0.4251968503937008
          },
          {
            "number": 7,
            "ticks": 16647,
            "time": 88.44707165625,
            "value": 0.4251968503937008
          },
          {
            "number": 7,
            "ticks": 16648,
            "time": 88.45238475,
            "value": 0.4251968503937008
          },
          {
            "number": 7,
            "ticks": 16649,
            "time": 88.45769784375,
            "value": 0.4251968503937008
          },
          {
            "number": 7,
            "ticks": 16650,
            "time": 88.4630109375,
            "value": 0.4251968503937008
          },
          {
            "number": 7,
            "ticks": 16651,
            "time": 88.46832403124999,
            "value": 0.4251968503937008
          },
          {
            "number": 7,
            "ticks": 16652,
            "time": 88.473637125,
            "value": 0.4251968503937008
          },
          {
            "number": 7,
            "ticks": 16653,
            "time": 88.47895021875,
            "value": 0.4251968503937008
          },
          {
            "number": 7,
            "ticks": 16654,
            "time": 88.48426331249999,
            "value": 0.4251968503937008
          },
          {
            "number": 7,
            "ticks": 16655,
            "time": 88.48957640625,
            "value": 0.4251968503937008
          },
          {
            "number": 7,
            "ticks": 16656,
            "time": 88.4948895,
            "value": 0.4251968503937008
          },
          {
            "number": 7,
            "ticks": 16657,
            "time": 88.50020259374999,
            "value": 0.4251968503937008
          },
          {
            "number": 7,
            "ticks": 16658,
            "time": 88.50551568750001,
            "value": 0.4251968503937008
          },
          {
            "number": 7,
            "ticks": 16659,
            "time": 88.51082878125,
            "value": 0.4251968503937008
          },
          {
            "number": 7,
            "ticks": 16660,
            "time": 88.51614187499999,
            "value": 0.4251968503937008
          },
          {
            "number": 7,
            "ticks": 16661,
            "time": 88.52145496875,
            "value": 0.4251968503937008
          },
          {
            "number": 7,
            "ticks": 16662,
            "time": 88.5267680625,
            "value": 0.4251968503937008
          },
          {
            "number": 7,
            "ticks": 16663,
            "time": 88.53208115624999,
            "value": 0.4251968503937008
          },
          {
            "number": 7,
            "ticks": 16664,
            "time": 88.53739425,
            "value": 0.4251968503937008
          },
          {
            "number": 7,
            "ticks": 16665,
            "time": 88.54270734375,
            "value": 0.4251968503937008
          },
          {
            "number": 7,
            "ticks": 16666,
            "time": 88.54802043749999,
            "value": 0.4251968503937008
          },
          {
            "number": 7,
            "ticks": 16667,
            "time": 88.55333353125,
            "value": 0.4251968503937008
          },
          {
            "number": 7,
            "ticks": 16668,
            "time": 88.558646625,
            "value": 0.4251968503937008
          },
          {
            "number": 7,
            "ticks": 16669,
            "time": 88.56395971875,
            "value": 0.4251968503937008
          },
          {
            "number": 7,
            "ticks": 16670,
            "time": 88.5692728125,
            "value": 0.4251968503937008
          },
          {
            "number": 7,
            "ticks": 16671,
            "time": 88.57458590625,
            "value": 0.4251968503937008
          },
          {
            "number": 7,
            "ticks": 16672,
            "time": 88.579899,
            "value": 0.4251968503937008
          },
          {
            "number": 7,
            "ticks": 16673,
            "time": 88.58521209375,
            "value": 0.4251968503937008
          },
          {
            "number": 7,
            "ticks": 16674,
            "time": 88.59052518749999,
            "value": 0.4251968503937008
          },
          {
            "number": 7,
            "ticks": 16675,
            "time": 88.59583828125,
            "value": 0.4251968503937008
          },
          {
            "number": 7,
            "ticks": 16676,
            "time": 88.601151375,
            "value": 0.4251968503937008
          },
          {
            "number": 7,
            "ticks": 16677,
            "time": 88.60646446874999,
            "value": 0.4251968503937008
          },
          {
            "number": 7,
            "ticks": 16678,
            "time": 88.6117775625,
            "value": 0.4251968503937008
          },
          {
            "number": 7,
            "ticks": 16679,
            "time": 88.61709065625,
            "value": 0.4251968503937008
          },
          {
            "number": 7,
            "ticks": 16680,
            "time": 88.62240375,
            "value": 0.4251968503937008
          },
          {
            "number": 7,
            "ticks": 16681,
            "time": 88.62771684375,
            "value": 0.4251968503937008
          },
          {
            "number": 7,
            "ticks": 16682,
            "time": 88.6330299375,
            "value": 0.4251968503937008
          },
          {
            "number": 7,
            "ticks": 16683,
            "time": 88.63834303125,
            "value": 0.4251968503937008
          },
          {
            "number": 7,
            "ticks": 16684,
            "time": 88.64365612499999,
            "value": 0.4251968503937008
          },
          {
            "number": 7,
            "ticks": 16685,
            "time": 88.64896921875,
            "value": 0.4251968503937008
          },
          {
            "number": 7,
            "ticks": 16686,
            "time": 88.6542823125,
            "value": 0.4251968503937008
          },
          {
            "number": 7,
            "ticks": 16687,
            "time": 88.65959540624999,
            "value": 0.4251968503937008
          },
          {
            "number": 7,
            "ticks": 16688,
            "time": 88.6649085,
            "value": 0.4251968503937008
          },
          {
            "number": 7,
            "ticks": 16689,
            "time": 88.67022159375,
            "value": 0.4251968503937008
          },
          {
            "number": 7,
            "ticks": 16690,
            "time": 88.67553468749999,
            "value": 0.1889763779527559
          },
          {
            "number": 7,
            "ticks": 16691,
            "time": 88.68084778125001,
            "value": 0.1889763779527559
          },
          {
            "number": 7,
            "ticks": 16692,
            "time": 88.686160875,
            "value": 0.18110236220472442
          },
          {
            "number": 7,
            "ticks": 16693,
            "time": 88.69147396874999,
            "value": 0.18110236220472442
          },
          {
            "number": 7,
            "ticks": 16694,
            "time": 88.69678706250001,
            "value": 0.18110236220472442
          },
          {
            "number": 7,
            "ticks": 16695,
            "time": 88.70210015625,
            "value": 0.18110236220472442
          },
          {
            "number": 7,
            "ticks": 16696,
            "time": 88.70741324999999,
            "value": 0.18110236220472442
          },
          {
            "number": 7,
            "ticks": 16697,
            "time": 88.71272634375,
            "value": 0.18110236220472442
          },
          {
            "number": 7,
            "ticks": 16698,
            "time": 88.7180394375,
            "value": 0.18110236220472442
          },
          {
            "number": 7,
            "ticks": 16699,
            "time": 88.72335253124999,
            "value": 0.18110236220472442
          },
          {
            "number": 7,
            "ticks": 16700,
            "time": 88.728665625,
            "value": 0.18110236220472442
          },
          {
            "number": 7,
            "ticks": 16701,
            "time": 88.73397871875,
            "value": 0.18110236220472442
          },
          {
            "number": 7,
            "ticks": 16702,
            "time": 88.73929181249999,
            "value": 0.1732283464566929
          },
          {
            "number": 7,
            "ticks": 16703,
            "time": 88.74460490625,
            "value": 0.1732283464566929
          },
          {
            "number": 7,
            "ticks": 16704,
            "time": 88.749918,
            "value": 0.1732283464566929
          },
          {
            "number": 7,
            "ticks": 16705,
            "time": 88.75523109375,
            "value": 0.1732283464566929
          },
          {
            "number": 7,
            "ticks": 16706,
            "time": 88.7605441875,
            "value": 0.15748031496062992
          },
          {
            "number": 7,
            "ticks": 16707,
            "time": 88.76585728124999,
            "value": 0.15748031496062992
          },
          {
            "number": 7,
            "ticks": 16708,
            "time": 88.771170375,
            "value": 0.15748031496062992
          },
          {
            "number": 7,
            "ticks": 16709,
            "time": 88.77648346875,
            "value": 0.15748031496062992
          },
          {
            "number": 7,
            "ticks": 16710,
            "time": 88.78179656249999,
            "value": 0.15748031496062992
          },
          {
            "number": 7,
            "ticks": 16711,
            "time": 88.78710965625,
            "value": 0.15748031496062992
          },
          {
            "number": 7,
            "ticks": 16712,
            "time": 88.79242275,
            "value": 0.15748031496062992
          },
          {
            "number": 7,
            "ticks": 16713,
            "time": 88.79773584374999,
            "value": 0.15748031496062992
          },
          {
            "number": 7,
            "ticks": 16714,
            "time": 88.8030489375,
            "value": 0.15748031496062992
          },
          {
            "number": 7,
            "ticks": 16715,
            "time": 88.80836203125,
            "value": 0.15748031496062992
          },
          {
            "number": 7,
            "ticks": 16716,
            "time": 88.813675125,
            "value": 0.15748031496062992
          },
          {
            "number": 7,
            "ticks": 16717,
            "time": 88.81898821875,
            "value": 0.15748031496062992
          },
          {
            "number": 7,
            "ticks": 16718,
            "time": 88.8243013125,
            "value": 0.14960629921259844
          },
          {
            "number": 7,
            "ticks": 16719,
            "time": 88.82961440625,
            "value": 0.14960629921259844
          },
          {
            "number": 7,
            "ticks": 16720,
            "time": 88.83492749999999,
            "value": 0.14960629921259844
          },
          {
            "number": 7,
            "ticks": 16721,
            "time": 88.84024059375,
            "value": 0.12598425196850394
          },
          {
            "number": 7,
            "ticks": 16722,
            "time": 88.8455536875,
            "value": 0.12598425196850394
          },
          {
            "number": 7,
            "ticks": 16723,
            "time": 88.85086678124999,
            "value": 0.12598425196850394
          },
          {
            "number": 7,
            "ticks": 16724,
            "time": 88.856179875,
            "value": 0.12598425196850394
          },
          {
            "number": 7,
            "ticks": 16725,
            "time": 88.86149296875,
            "value": 0.12598425196850394
          },
          {
            "number": 7,
            "ticks": 16726,
            "time": 88.86680606249999,
            "value": 0.12598425196850394
          },
          {
            "number": 7,
            "ticks": 16727,
            "time": 88.87211915625001,
            "value": 0.12598425196850394
          },
          {
            "number": 7,
            "ticks": 16728,
            "time": 88.87743225,
            "value": 0.12598425196850394
          },
          {
            "number": 7,
            "ticks": 16729,
            "time": 88.88274534374999,
            "value": 0.12598425196850394
          },
          {
            "number": 7,
            "ticks": 16730,
            "time": 88.8880584375,
            "value": 0.12598425196850394
          },
          {
            "number": 7,
            "ticks": 16731,
            "time": 88.89337153125,
            "value": 0.12598425196850394
          },
          {
            "number": 7,
            "ticks": 16732,
            "time": 88.89868462499999,
            "value": 0.12598425196850394
          },
          {
            "number": 7,
            "ticks": 16733,
            "time": 88.90399771875,
            "value": 0.11811023622047244
          },
          {
            "number": 7,
            "ticks": 16734,
            "time": 88.9093108125,
            "value": 0.11811023622047244
          },
          {
            "number": 7,
            "ticks": 16735,
            "time": 88.91462390624999,
            "value": 0.11811023622047244
          },
          {
            "number": 7,
            "ticks": 16736,
            "time": 88.919937,
            "value": 0.11811023622047244
          },
          {
            "number": 7,
            "ticks": 16737,
            "time": 88.92525009375,
            "value": 0.11811023622047244
          },
          {
            "number": 7,
            "ticks": 16738,
            "time": 88.9305631875,
            "value": 0.11811023622047244
          },
          {
            "number": 7,
            "ticks": 16739,
            "time": 88.93587628125,
            "value": 0.11811023622047244
          },
          {
            "number": 7,
            "ticks": 16740,
            "time": 88.941189375,
            "value": 0.11811023622047244
          },
          {
            "number": 7,
            "ticks": 16741,
            "time": 88.94650246875,
            "value": 0.11811023622047244
          },
          {
            "number": 7,
            "ticks": 16742,
            "time": 88.9518155625,
            "value": 0.11811023622047244
          },
          {
            "number": 7,
            "ticks": 16743,
            "time": 88.95712865624999,
            "value": 0.11811023622047244
          },
          {
            "number": 7,
            "ticks": 16744,
            "time": 88.96244175,
            "value": 0.11811023622047244
          },
          {
            "number": 7,
            "ticks": 16745,
            "time": 88.96775484375,
            "value": 0.11811023622047244
          },
          {
            "number": 7,
            "ticks": 16746,
            "time": 88.97306793749999,
            "value": 0.11811023622047244
          },
          {
            "number": 7,
            "ticks": 16747,
            "time": 88.97838103125,
            "value": 0.11023622047244094
          },
          {
            "number": 7,
            "ticks": 16748,
            "time": 88.983694125,
            "value": 0.11023622047244094
          },
          {
            "number": 7,
            "ticks": 16749,
            "time": 88.98900721875,
            "value": 0.11023622047244094
          },
          {
            "number": 7,
            "ticks": 16750,
            "time": 88.9943203125,
            "value": 0.11023622047244094
          },
          {
            "number": 7,
            "ticks": 16751,
            "time": 88.99963340625,
            "value": 0.11023622047244094
          },
          {
            "number": 7,
            "ticks": 16752,
            "time": 89.0049465,
            "value": 0.11023622047244094
          },
          {
            "number": 7,
            "ticks": 16753,
            "time": 89.01025959374999,
            "value": 0.11023622047244094
          },
          {
            "number": 7,
            "ticks": 16754,
            "time": 89.0155726875,
            "value": 0.11023622047244094
          },
          {
            "number": 7,
            "ticks": 16755,
            "time": 89.02088578125,
            "value": 0.11023622047244094
          },
          {
            "number": 7,
            "ticks": 16756,
            "time": 89.02619887499999,
            "value": 0.11023622047244094
          },
          {
            "number": 7,
            "ticks": 16757,
            "time": 89.03151196875,
            "value": 0.11023622047244094
          },
          {
            "number": 7,
            "ticks": 16758,
            "time": 89.0368250625,
            "value": 0.11023622047244094
          },
          {
            "number": 7,
            "ticks": 16759,
            "time": 89.04213815624999,
            "value": 0.11023622047244094
          },
          {
            "number": 7,
            "ticks": 16760,
            "time": 89.04745125000001,
            "value": 0.11023622047244094
          },
          {
            "number": 7,
            "ticks": 16761,
            "time": 89.05276434375,
            "value": 0.11023622047244094
          },
          {
            "number": 7,
            "ticks": 16762,
            "time": 89.05807743749999,
            "value": 0.11023622047244094
          },
          {
            "number": 7,
            "ticks": 16763,
            "time": 89.06339053125001,
            "value": 0.11023622047244094
          },
          {
            "number": 7,
            "ticks": 16764,
            "time": 89.068703625,
            "value": 0.11023622047244094
          },
          {
            "number": 7,
            "ticks": 16765,
            "time": 89.07401671874999,
            "value": 0.11023622047244094
          },
          {
            "number": 7,
            "ticks": 16766,
            "time": 89.0793298125,
            "value": 0.11023622047244094
          },
          {
            "number": 7,
            "ticks": 16767,
            "time": 89.08464290625,
            "value": 0.11023622047244094
          },
          {
            "number": 7,
            "ticks": 16768,
            "time": 89.08995599999999,
            "value": 0.08661417322834646
          },
          {
            "number": 7,
            "ticks": 16769,
            "time": 89.09526909375,
            "value": 0.08661417322834646
          },
          {
            "number": 7,
            "ticks": 16770,
            "time": 89.1005821875,
            "value": 0.08661417322834646
          },
          {
            "number": 7,
            "ticks": 16771,
            "time": 89.10589528124999,
            "value": 0.08661417322834646
          },
          {
            "number": 7,
            "ticks": 16772,
            "time": 89.111208375,
            "value": 0.08661417322834646
          },
          {
            "number": 7,
            "ticks": 16773,
            "time": 89.11652146875,
            "value": 0.08661417322834646
          },
          {
            "number": 7,
            "ticks": 16774,
            "time": 89.1218345625,
            "value": 0.08661417322834646
          },
          {
            "number": 7,
            "ticks": 16775,
            "time": 89.12714765625,
            "value": 0.08661417322834646
          },
          {
            "number": 7,
            "ticks": 16776,
            "time": 89.13246074999999,
            "value": 0.08661417322834646
          },
          {
            "number": 7,
            "ticks": 16777,
            "time": 89.13777384375,
            "value": 0.08661417322834646
          },
          {
            "number": 7,
            "ticks": 16778,
            "time": 89.1430869375,
            "value": 0.08661417322834646
          },
          {
            "number": 7,
            "ticks": 16779,
            "time": 89.14840003124999,
            "value": 0.08661417322834646
          },
          {
            "number": 7,
            "ticks": 16780,
            "time": 89.153713125,
            "value": 0.08661417322834646
          },
          {
            "number": 7,
            "ticks": 16781,
            "time": 89.15902621875,
            "value": 0.08661417322834646
          },
          {
            "number": 7,
            "ticks": 16782,
            "time": 89.16433931249999,
            "value": 0.08661417322834646
          },
          {
            "number": 7,
            "ticks": 16783,
            "time": 89.16965240625,
            "value": 0.08661417322834646
          },
          {
            "number": 7,
            "ticks": 16784,
            "time": 89.1749655,
            "value": 0.08661417322834646
          },
          {
            "number": 7,
            "ticks": 16785,
            "time": 89.18027859375,
            "value": 0.08661417322834646
          },
          {
            "number": 7,
            "ticks": 16786,
            "time": 89.1855916875,
            "value": 0.07874015748031496
          },
          {
            "number": 7,
            "ticks": 16787,
            "time": 89.19090478125,
            "value": 0.07874015748031496
          },
          {
            "number": 7,
            "ticks": 16788,
            "time": 89.196217875,
            "value": 0.07874015748031496
          },
          {
            "number": 7,
            "ticks": 16789,
            "time": 89.20153096874999,
            "value": 0.07874015748031496
          },
          {
            "number": 7,
            "ticks": 16790,
            "time": 89.2068440625,
            "value": 0.07874015748031496
          },
          {
            "number": 7,
            "ticks": 16791,
            "time": 89.21215715625,
            "value": 0.07874015748031496
          },
          {
            "number": 7,
            "ticks": 16792,
            "time": 89.21747024999999,
            "value": 0.07874015748031496
          },
          {
            "number": 7,
            "ticks": 16793,
            "time": 89.22278334375,
            "value": 0.07874015748031496
          },
          {
            "number": 7,
            "ticks": 16794,
            "time": 89.2280964375,
            "value": 0.07874015748031496
          },
          {
            "number": 7,
            "ticks": 16795,
            "time": 89.23340953124999,
            "value": 0.07874015748031496
          },
          {
            "number": 7,
            "ticks": 16796,
            "time": 89.23872262500001,
            "value": 0.07874015748031496
          },
          {
            "number": 7,
            "ticks": 16797,
            "time": 89.24403571875,
            "value": 0.07874015748031496
          },
          {
            "number": 7,
            "ticks": 16798,
            "time": 89.24934881249999,
            "value": 0.07874015748031496
          },
          {
            "number": 7,
            "ticks": 16799,
            "time": 89.25466190625,
            "value": 0.07874015748031496
          },
          {
            "number": 7,
            "ticks": 16800,
            "time": 89.259975,
            "value": 0.07086614173228346
          },
          {
            "number": 7,
            "ticks": 16801,
            "time": 89.26528809374999,
            "value": 0.07086614173228346
          },
          {
            "number": 7,
            "ticks": 16802,
            "time": 89.2706011875,
            "value": 0.07086614173228346
          },
          {
            "number": 7,
            "ticks": 16803,
            "time": 89.27591428125,
            "value": 0.07086614173228346
          },
          {
            "number": 7,
            "ticks": 16804,
            "time": 89.28122737499999,
            "value": 0.07086614173228346
          },
          {
            "number": 7,
            "ticks": 16805,
            "time": 89.28654046875,
            "value": 0.07086614173228346
          },
          {
            "number": 7,
            "ticks": 16806,
            "time": 89.2918535625,
            "value": 0.07086614173228346
          },
          {
            "number": 7,
            "ticks": 16807,
            "time": 89.29716665625,
            "value": 0.07086614173228346
          },
          {
            "number": 7,
            "ticks": 16808,
            "time": 89.30247975,
            "value": 0.07086614173228346
          },
          {
            "number": 7,
            "ticks": 16809,
            "time": 89.30779284375,
            "value": 0.07086614173228346
          },
          {
            "number": 7,
            "ticks": 16810,
            "time": 89.3131059375,
            "value": 0.07086614173228346
          },
          {
            "number": 7,
            "ticks": 16811,
            "time": 89.31841903125,
            "value": 0.07086614173228346
          },
          {
            "number": 7,
            "ticks": 16812,
            "time": 89.32373212499999,
            "value": 0.07086614173228346
          },
          {
            "number": 7,
            "ticks": 16813,
            "time": 89.32904521875,
            "value": 0.07086614173228346
          },
          {
            "number": 7,
            "ticks": 16814,
            "time": 89.3343583125,
            "value": 0.06299212598425197
          },
          {
            "number": 7,
            "ticks": 16815,
            "time": 89.33967140624999,
            "value": 0.047244094488188976
          },
          {
            "number": 7,
            "ticks": 16816,
            "time": 89.3449845,
            "value": 0.047244094488188976
          },
          {
            "number": 7,
            "ticks": 16817,
            "time": 89.35029759375,
            "value": 0.047244094488188976
          },
          {
            "number": 7,
            "ticks": 16818,
            "time": 89.3556106875,
            "value": 0.047244094488188976
          },
          {
            "number": 7,
            "ticks": 16819,
            "time": 89.36092378125,
            "value": 0.047244094488188976
          },
          {
            "number": 7,
            "ticks": 16820,
            "time": 89.366236875,
            "value": 0.047244094488188976
          },
          {
            "number": 7,
            "ticks": 16821,
            "time": 89.37154996875,
            "value": 0.047244094488188976
          },
          {
            "number": 7,
            "ticks": 16822,
            "time": 89.3768630625,
            "value": 0.047244094488188976
          },
          {
            "number": 7,
            "ticks": 16823,
            "time": 89.38217615625,
            "value": 0.047244094488188976
          },
          {
            "number": 7,
            "ticks": 16824,
            "time": 89.38748925,
            "value": 0.047244094488188976
          },
          {
            "number": 7,
            "ticks": 16825,
            "time": 89.39280234374999,
            "value": 0.047244094488188976
          },
          {
            "number": 7,
            "ticks": 16826,
            "time": 89.3981154375,
            "value": 0.047244094488188976
          },
          {
            "number": 7,
            "ticks": 16827,
            "time": 89.40342853125,
            "value": 0.047244094488188976
          },
          {
            "number": 7,
            "ticks": 16828,
            "time": 89.40874162499999,
            "value": 0.047244094488188976
          },
          {
            "number": 7,
            "ticks": 16829,
            "time": 89.41405471875,
            "value": 0.047244094488188976
          },
          {
            "number": 7,
            "ticks": 16830,
            "time": 89.4193678125,
            "value": 0.047244094488188976
          },
          {
            "number": 7,
            "ticks": 16831,
            "time": 89.42468090624999,
            "value": 0.047244094488188976
          },
          {
            "number": 7,
            "ticks": 16832,
            "time": 89.42999400000001,
            "value": 0.047244094488188976
          },
          {
            "number": 7,
            "ticks": 16833,
            "time": 89.43530709375,
            "value": 0.047244094488188976
          },
          {
            "number": 7,
            "ticks": 16834,
            "time": 89.44062018749999,
            "value": 0.047244094488188976
          },
          {
            "number": 7,
            "ticks": 16835,
            "time": 89.44593328125,
            "value": 0.047244094488188976
          },
          {
            "number": 7,
            "ticks": 16836,
            "time": 89.451246375,
            "value": 0.03937007874015748
          },
          {
            "number": 7,
            "ticks": 16837,
            "time": 89.45655946874999,
            "value": 0.03937007874015748
          },
          {
            "number": 7,
            "ticks": 16838,
            "time": 89.4618725625,
            "value": 0.03937007874015748
          },
          {
            "number": 7,
            "ticks": 16839,
            "time": 89.46718565625,
            "value": 0.03937007874015748
          },
          {
            "number": 7,
            "ticks": 16840,
            "time": 89.47249874999999,
            "value": 0.03937007874015748
          },
          {
            "number": 7,
            "ticks": 16841,
            "time": 89.47781184375,
            "value": 0.03937007874015748
          },
          {
            "number": 7,
            "ticks": 16842,
            "time": 89.4831249375,
            "value": 0.03937007874015748
          },
          {
            "number": 7,
            "ticks": 16843,
            "time": 89.48843803125,
            "value": 0.03937007874015748
          },
          {
            "number": 7,
            "ticks": 16844,
            "time": 89.493751125,
            "value": 0.03937007874015748
          },
          {
            "number": 7,
            "ticks": 16845,
            "time": 89.49906421875,
            "value": 0.03937007874015748
          },
          {
            "number": 7,
            "ticks": 16846,
            "time": 89.5043773125,
            "value": 0.03937007874015748
          },
          {
            "number": 7,
            "ticks": 16847,
            "time": 89.50969040625,
            "value": 0
          },
          {
            "number": 7,
            "ticks": 16848,
            "time": 89.51500349999999,
            "value": 0
          },
          {
            "number": 7,
            "ticks": 16849,
            "time": 89.52031659375,
            "value": 0
          },
          {
            "number": 7,
            "ticks": 16850,
            "time": 89.5256296875,
            "value": 0
          },
          {
            "number": 7,
            "ticks": 16851,
            "time": 89.53094278124999,
            "value": 0
          },
          {
            "number": 7,
            "ticks": 16852,
            "time": 89.536255875,
            "value": 0.007874015748031496
          },
          {
            "number": 7,
            "ticks": 16853,
            "time": 89.54156896875,
            "value": 0.007874015748031496
          },
          {
            "number": 7,
            "ticks": 16854,
            "time": 89.5468820625,
            "value": 0.007874015748031496
          },
          {
            "number": 7,
            "ticks": 16855,
            "time": 89.55219515625,
            "value": 0.007874015748031496
          },
          {
            "number": 7,
            "ticks": 16856,
            "time": 89.55750825,
            "value": 0.007874015748031496
          },
          {
            "number": 7,
            "ticks": 16857,
            "time": 89.56282134375,
            "value": 0.015748031496062992
          },
          {
            "number": 7,
            "ticks": 16858,
            "time": 89.56813443749999,
            "value": 0.015748031496062992
          },
          {
            "number": 7,
            "ticks": 16859,
            "time": 89.57344753125,
            "value": 0.015748031496062992
          },
          {
            "number": 7,
            "ticks": 16860,
            "time": 89.578760625,
            "value": 0.015748031496062992
          },
          {
            "number": 7,
            "ticks": 16861,
            "time": 89.58407371874999,
            "value": 0.015748031496062992
          },
          {
            "number": 7,
            "ticks": 16862,
            "time": 89.5893868125,
            "value": 0.023622047244094488
          },
          {
            "number": 7,
            "ticks": 16863,
            "time": 89.59469990625,
            "value": 0.023622047244094488
          },
          {
            "number": 7,
            "ticks": 16864,
            "time": 89.60001299999999,
            "value": 0.023622047244094488
          },
          {
            "number": 7,
            "ticks": 16865,
            "time": 89.60532609375001,
            "value": 0.023622047244094488
          },
          {
            "number": 7,
            "ticks": 16866,
            "time": 89.6106391875,
            "value": 0.023622047244094488
          },
          {
            "number": 7,
            "ticks": 16867,
            "time": 89.61595228124999,
            "value": 0.031496062992125984
          },
          {
            "number": 7,
            "ticks": 16868,
            "time": 89.62126537500001,
            "value": 0.031496062992125984
          },
          {
            "number": 7,
            "ticks": 16869,
            "time": 89.62657846875,
            "value": 0.031496062992125984
          },
          {
            "number": 7,
            "ticks": 16870,
            "time": 89.63189156249999,
            "value": 0.031496062992125984
          },
          {
            "number": 7,
            "ticks": 16871,
            "time": 89.63720465625,
            "value": 0.031496062992125984
          },
          {
            "number": 7,
            "ticks": 16872,
            "time": 89.64251775,
            "value": 0.03937007874015748
          },
          {
            "number": 7,
            "ticks": 16873,
            "time": 89.64783084374999,
            "value": 0.03937007874015748
          },
          {
            "number": 7,
            "ticks": 16874,
            "time": 89.6531439375,
            "value": 0.03937007874015748
          },
          {
            "number": 7,
            "ticks": 16875,
            "time": 89.65845703125,
            "value": 0.03937007874015748
          },
          {
            "number": 7,
            "ticks": 16876,
            "time": 89.663770125,
            "value": 0.03937007874015748
          },
          {
            "number": 7,
            "ticks": 16877,
            "time": 89.66908321875,
            "value": 0.047244094488188976
          },
          {
            "number": 7,
            "ticks": 16878,
            "time": 89.6743963125,
            "value": 0.047244094488188976
          },
          {
            "number": 7,
            "ticks": 16879,
            "time": 89.67970940625,
            "value": 0.047244094488188976
          },
          {
            "number": 7,
            "ticks": 16880,
            "time": 89.6850225,
            "value": 0.047244094488188976
          },
          {
            "number": 7,
            "ticks": 16881,
            "time": 89.69033559374999,
            "value": 0.047244094488188976
          },
          {
            "number": 7,
            "ticks": 16882,
            "time": 89.6956486875,
            "value": 0.05511811023622047
          },
          {
            "number": 7,
            "ticks": 16883,
            "time": 89.70096178125,
            "value": 0.05511811023622047
          },
          {
            "number": 7,
            "ticks": 16884,
            "time": 89.70627487499999,
            "value": 0.05511811023622047
          },
          {
            "number": 7,
            "ticks": 16885,
            "time": 89.71158796875,
            "value": 0.05511811023622047
          },
          {
            "number": 7,
            "ticks": 16886,
            "time": 89.7169010625,
            "value": 0.05511811023622047
          },
          {
            "number": 7,
            "ticks": 16887,
            "time": 89.72221415624999,
            "value": 0.06299212598425197
          },
          {
            "number": 7,
            "ticks": 16888,
            "time": 89.72752725,
            "value": 0.06299212598425197
          },
          {
            "number": 7,
            "ticks": 16889,
            "time": 89.73284034375,
            "value": 0.06299212598425197
          },
          {
            "number": 7,
            "ticks": 16890,
            "time": 89.7381534375,
            "value": 0.06299212598425197
          },
          {
            "number": 7,
            "ticks": 16891,
            "time": 89.74346653125,
            "value": 0.06299212598425197
          },
          {
            "number": 7,
            "ticks": 16892,
            "time": 89.748779625,
            "value": 0.07086614173228346
          },
          {
            "number": 7,
            "ticks": 16893,
            "time": 89.75409271875,
            "value": 0.07086614173228346
          },
          {
            "number": 7,
            "ticks": 16894,
            "time": 89.75940581249999,
            "value": 0
          },
          {
            "number": 7,
            "ticks": 16895,
            "time": 89.76471890625,
            "value": 0
          },
          {
            "number": 7,
            "ticks": 16896,
            "time": 89.770032,
            "value": 0
          },
          {
            "number": 7,
            "ticks": 16897,
            "time": 89.77534509374999,
            "value": 0
          },
          {
            "number": 7,
            "ticks": 16898,
            "time": 89.7806581875,
            "value": 0.007874015748031496
          },
          {
            "number": 7,
            "ticks": 16899,
            "time": 89.78597128125,
            "value": 0.007874015748031496
          },
          {
            "number": 7,
            "ticks": 16900,
            "time": 89.79128437499999,
            "value": 0.007874015748031496
          },
          {
            "number": 7,
            "ticks": 16901,
            "time": 89.79659746875001,
            "value": 0.007874015748031496
          },
          {
            "number": 7,
            "ticks": 16902,
            "time": 89.8019105625,
            "value": 0.015748031496062992
          },
          {
            "number": 7,
            "ticks": 16903,
            "time": 89.80722365624999,
            "value": 0.015748031496062992
          },
          {
            "number": 7,
            "ticks": 16904,
            "time": 89.81253675,
            "value": 0.015748031496062992
          },
          {
            "number": 7,
            "ticks": 16905,
            "time": 89.81784984375,
            "value": 0.023622047244094488
          },
          {
            "number": 7,
            "ticks": 16906,
            "time": 89.82316293749999,
            "value": 0.023622047244094488
          },
          {
            "number": 7,
            "ticks": 16907,
            "time": 89.82847603125,
            "value": 0.023622047244094488
          },
          {
            "number": 7,
            "ticks": 16908,
            "time": 89.833789125,
            "value": 0.023622047244094488
          },
          {
            "number": 7,
            "ticks": 16909,
            "time": 89.83910221874999,
            "value": 0.031496062992125984
          },
          {
            "number": 7,
            "ticks": 16910,
            "time": 89.8444153125,
            "value": 0.031496062992125984
          },
          {
            "number": 7,
            "ticks": 16911,
            "time": 89.84972840625,
            "value": 0.031496062992125984
          },
          {
            "number": 7,
            "ticks": 16912,
            "time": 89.8550415,
            "value": 0.03937007874015748
          },
          {
            "number": 7,
            "ticks": 16913,
            "time": 89.86035459375,
            "value": 0.03937007874015748
          },
          {
            "number": 7,
            "ticks": 16914,
            "time": 89.8656676875,
            "value": 0.03937007874015748
          },
          {
            "number": 7,
            "ticks": 16915,
            "time": 89.87098078125,
            "value": 0.03937007874015748
          },
          {
            "number": 7,
            "ticks": 16916,
            "time": 89.876293875,
            "value": 0.047244094488188976
          },
          {
            "number": 7,
            "ticks": 16917,
            "time": 89.88160696874999,
            "value": 0.047244094488188976
          },
          {
            "number": 7,
            "ticks": 16918,
            "time": 89.8869200625,
            "value": 0.047244094488188976
          },
          {
            "number": 7,
            "ticks": 16919,
            "time": 89.89223315625,
            "value": 0.047244094488188976
          },
          {
            "number": 7,
            "ticks": 16920,
            "time": 89.89754624999999,
            "value": 0.05511811023622047
          },
          {
            "number": 7,
            "ticks": 16921,
            "time": 89.90285934375,
            "value": 0.05511811023622047
          },
          {
            "number": 7,
            "ticks": 16922,
            "time": 89.9081724375,
            "value": 0.05511811023622047
          },
          {
            "number": 7,
            "ticks": 16923,
            "time": 89.91348553125,
            "value": 0.06299212598425197
          },
          {
            "number": 7,
            "ticks": 16924,
            "time": 89.918798625,
            "value": 0.06299212598425197
          },
          {
            "number": 7,
            "ticks": 16925,
            "time": 89.92411171875,
            "value": 0.06299212598425197
          },
          {
            "number": 7,
            "ticks": 16926,
            "time": 89.9294248125,
            "value": 0.06299212598425197
          },
          {
            "number": 7,
            "ticks": 16927,
            "time": 89.93473790624999,
            "value": 0.07086614173228346
          },
          {
            "number": 7,
            "ticks": 16928,
            "time": 89.940051,
            "value": 0.07086614173228346
          },
          {
            "number": 7,
            "ticks": 16929,
            "time": 89.94536409375,
            "value": 0.07086614173228346
          },
          {
            "number": 7,
            "ticks": 16930,
            "time": 89.95067718749999,
            "value": 0.07874015748031496
          },
          {
            "number": 7,
            "ticks": 16931,
            "time": 89.95599028125,
            "value": 0.07874015748031496
          },
          {
            "number": 7,
            "ticks": 16932,
            "time": 89.961303375,
            "value": 0.07874015748031496
          },
          {
            "number": 7,
            "ticks": 16933,
            "time": 89.96661646874999,
            "value": 0.07874015748031496
          },
          {
            "number": 7,
            "ticks": 16934,
            "time": 89.97192956250001,
            "value": 0.08661417322834646
          },
          {
            "number": 7,
            "ticks": 16935,
            "time": 89.97724265625,
            "value": 0.08661417322834646
          },
          {
            "number": 7,
            "ticks": 16936,
            "time": 89.98255574999999,
            "value": 0.08661417322834646
          },
          {
            "number": 7,
            "ticks": 16937,
            "time": 89.98786884375001,
            "value": 0.09448818897637795
          },
          {
            "number": 7,
            "ticks": 16938,
            "time": 89.9931819375,
            "value": 0.09448818897637795
          },
          {
            "number": 7,
            "ticks": 16939,
            "time": 89.99849503124999,
            "value": 0.09448818897637795
          },
          {
            "number": 7,
            "ticks": 16940,
            "time": 90.003808125,
            "value": 0.09448818897637795
          },
          {
            "number": 7,
            "ticks": 16941,
            "time": 90.00912121875,
            "value": 0.10236220472440945
          },
          {
            "number": 7,
            "ticks": 16942,
            "time": 90.01443431249999,
            "value": 0.10236220472440945
          },
          {
            "number": 7,
            "ticks": 16943,
            "time": 90.01974740625,
            "value": 0.10236220472440945
          },
          {
            "number": 7,
            "ticks": 16944,
            "time": 90.0250605,
            "value": 0.10236220472440945
          },
          {
            "number": 7,
            "ticks": 16945,
            "time": 90.03037359374999,
            "value": 0.11023622047244094
          },
          {
            "number": 7,
            "ticks": 16946,
            "time": 90.0356866875,
            "value": 0.11023622047244094
          },
          {
            "number": 7,
            "ticks": 16947,
            "time": 90.04099978125,
            "value": 0.11023622047244094
          },
          {
            "number": 7,
            "ticks": 16948,
            "time": 90.046312875,
            "value": 0.11811023622047244
          },
          {
            "number": 7,
            "ticks": 16949,
            "time": 90.05162596875,
            "value": 0.11811023622047244
          },
          {
            "number": 7,
            "ticks": 16950,
            "time": 90.05693906249999,
            "value": 0.11811023622047244
          },
          {
            "number": 7,
            "ticks": 16951,
            "time": 90.06225215625,
            "value": 0.11811023622047244
          },
          {
            "number": 7,
            "ticks": 16952,
            "time": 90.06756525,
            "value": 0.12598425196850394
          },
          {
            "number": 7,
            "ticks": 16953,
            "time": 90.07287834374999,
            "value": 0.12598425196850394
          },
          {
            "number": 7,
            "ticks": 16954,
            "time": 90.0781914375,
            "value": 0.12598425196850394
          },
          {
            "number": 7,
            "ticks": 16955,
            "time": 90.08350453125,
            "value": 0.13385826771653545
          },
          {
            "number": 7,
            "ticks": 16956,
            "time": 90.08881762499999,
            "value": 0.13385826771653545
          },
          {
            "number": 7,
            "ticks": 16957,
            "time": 90.09413071875,
            "value": 0.13385826771653545
          },
          {
            "number": 7,
            "ticks": 16958,
            "time": 90.0994438125,
            "value": 0.13385826771653545
          },
          {
            "number": 7,
            "ticks": 16959,
            "time": 90.10475690625,
            "value": 0.14173228346456693
          },
          {
            "number": 7,
            "ticks": 16960,
            "time": 90.11007,
            "value": 0.14173228346456693
          },
          {
            "number": 7,
            "ticks": 16961,
            "time": 90.11538309375,
            "value": 0.14173228346456693
          },
          {
            "number": 7,
            "ticks": 16962,
            "time": 90.1206961875,
            "value": 0.14960629921259844
          },
          {
            "number": 7,
            "ticks": 16963,
            "time": 90.12600928124999,
            "value": 0.14960629921259844
          },
          {
            "number": 7,
            "ticks": 16964,
            "time": 90.131322375,
            "value": 0.14960629921259844
          },
          {
            "number": 7,
            "ticks": 16965,
            "time": 90.13663546875,
            "value": 0.14960629921259844
          },
          {
            "number": 7,
            "ticks": 16966,
            "time": 90.14194856249999,
            "value": 0.15748031496062992
          },
          {
            "number": 7,
            "ticks": 16967,
            "time": 90.14726165625,
            "value": 0.15748031496062992
          },
          {
            "number": 7,
            "ticks": 16968,
            "time": 90.15257475,
            "value": 0.15748031496062992
          },
          {
            "number": 7,
            "ticks": 16969,
            "time": 90.15788784374999,
            "value": 0.15748031496062992
          },
          {
            "number": 7,
            "ticks": 16970,
            "time": 90.16320093750001,
            "value": 0.16535433070866143
          },
          {
            "number": 7,
            "ticks": 16971,
            "time": 90.16851403125,
            "value": 0.16535433070866143
          },
          {
            "number": 7,
            "ticks": 16972,
            "time": 90.17382712499999,
            "value": 0.16535433070866143
          },
          {
            "number": 7,
            "ticks": 16973,
            "time": 90.17914021875,
            "value": 0.1732283464566929
          },
          {
            "number": 7,
            "ticks": 16974,
            "time": 90.1844533125,
            "value": 0.1732283464566929
          },
          {
            "number": 7,
            "ticks": 16975,
            "time": 90.18976640624999,
            "value": 0.18110236220472442
          },
          {
            "number": 7,
            "ticks": 16976,
            "time": 90.1950795,
            "value": 0.18110236220472442
          },
          {
            "number": 7,
            "ticks": 16977,
            "time": 90.20039259375,
            "value": 0.18110236220472442
          },
          {
            "number": 7,
            "ticks": 16978,
            "time": 90.20570568749999,
            "value": 0.18110236220472442
          },
          {
            "number": 7,
            "ticks": 16979,
            "time": 90.21101878125,
            "value": 0.18110236220472442
          },
          {
            "number": 7,
            "ticks": 16980,
            "time": 90.216331875,
            "value": 0.1732283464566929
          },
          {
            "number": 7,
            "ticks": 16981,
            "time": 90.22164496875,
            "value": 0.1732283464566929
          },
          {
            "number": 7,
            "ticks": 16982,
            "time": 90.2269580625,
            "value": 0.1732283464566929
          },
          {
            "number": 7,
            "ticks": 16983,
            "time": 90.23227115625,
            "value": 0.1732283464566929
          },
          {
            "number": 7,
            "ticks": 16984,
            "time": 90.23758425,
            "value": 0.1732283464566929
          },
          {
            "number": 7,
            "ticks": 16985,
            "time": 90.24289734375,
            "value": 0.1732283464566929
          },
          {
            "number": 7,
            "ticks": 16986,
            "time": 90.24821043749999,
            "value": 0.16535433070866143
          },
          {
            "number": 7,
            "ticks": 16987,
            "time": 90.25352353125,
            "value": 0.16535433070866143
          },
          {
            "number": 7,
            "ticks": 16988,
            "time": 90.258836625,
            "value": 0.16535433070866143
          },
          {
            "number": 7,
            "ticks": 16989,
            "time": 90.26414971874999,
            "value": 0.16535433070866143
          },
          {
            "number": 7,
            "ticks": 16990,
            "time": 90.2694628125,
            "value": 0.16535433070866143
          },
          {
            "number": 7,
            "ticks": 16991,
            "time": 90.27477590625,
            "value": 0.16535433070866143
          },
          {
            "number": 7,
            "ticks": 16992,
            "time": 90.280089,
            "value": 0.16535433070866143
          },
          {
            "number": 7,
            "ticks": 16993,
            "time": 90.28540209375,
            "value": 0.15748031496062992
          },
          {
            "number": 7,
            "ticks": 16994,
            "time": 90.2907151875,
            "value": 0.15748031496062992
          },
          {
            "number": 7,
            "ticks": 16995,
            "time": 90.29602828125,
            "value": 0.15748031496062992
          },
          {
            "number": 7,
            "ticks": 16996,
            "time": 90.30134137499999,
            "value": 0.15748031496062992
          },
          {
            "number": 7,
            "ticks": 16997,
            "time": 90.30665446875,
            "value": 0.15748031496062992
          },
          {
            "number": 7,
            "ticks": 16998,
            "time": 90.3119675625,
            "value": 0.15748031496062992
          },
          {
            "number": 7,
            "ticks": 16999,
            "time": 90.31728065624999,
            "value": 0.15748031496062992
          },
          {
            "number": 7,
            "ticks": 17000,
            "time": 90.32259375,
            "value": 0.14960629921259844
          },
          {
            "number": 7,
            "ticks": 17001,
            "time": 90.32790684375,
            "value": 0.14173228346456693
          },
          {
            "number": 7,
            "ticks": 17002,
            "time": 90.33321993749999,
            "value": 0.14173228346456693
          },
          {
            "number": 7,
            "ticks": 17003,
            "time": 90.33853303125001,
            "value": 0.13385826771653545
          },
          {
            "number": 7,
            "ticks": 17004,
            "time": 90.343846125,
            "value": 0.13385826771653545
          },
          {
            "number": 7,
            "ticks": 17005,
            "time": 90.34915921874999,
            "value": 0.13385826771653545
          },
          {
            "number": 7,
            "ticks": 17006,
            "time": 90.35447231250001,
            "value": 0.13385826771653545
          },
          {
            "number": 7,
            "ticks": 17007,
            "time": 90.35978540625,
            "value": 0.13385826771653545
          },
          {
            "number": 7,
            "ticks": 17008,
            "time": 90.36509849999999,
            "value": 0.13385826771653545
          },
          {
            "number": 7,
            "ticks": 17009,
            "time": 90.37041159375,
            "value": 0.12598425196850394
          },
          {
            "number": 7,
            "ticks": 17010,
            "time": 90.3757246875,
            "value": 0.12598425196850394
          },
          {
            "number": 7,
            "ticks": 17011,
            "time": 90.38103778124999,
            "value": 0.12598425196850394
          },
          {
            "number": 7,
            "ticks": 17012,
            "time": 90.386350875,
            "value": 0.12598425196850394
          },
          {
            "number": 7,
            "ticks": 17013,
            "time": 90.39166396875,
            "value": 0.12598425196850394
          },
          {
            "number": 7,
            "ticks": 17014,
            "time": 90.39697706249999,
            "value": 0.12598425196850394
          },
          {
            "number": 7,
            "ticks": 17015,
            "time": 90.40229015625,
            "value": 0.12598425196850394
          },
          {
            "number": 7,
            "ticks": 17016,
            "time": 90.40760325,
            "value": 0.12598425196850394
          },
          {
            "number": 7,
            "ticks": 17017,
            "time": 90.41291634375,
            "value": 0.11811023622047244
          },
          {
            "number": 7,
            "ticks": 17018,
            "time": 90.4182294375,
            "value": 0.11811023622047244
          },
          {
            "number": 7,
            "ticks": 17019,
            "time": 90.42354253124999,
            "value": 0.11811023622047244
          },
          {
            "number": 7,
            "ticks": 17020,
            "time": 90.428855625,
            "value": 0.11811023622047244
          },
          {
            "number": 7,
            "ticks": 17021,
            "time": 90.43416871875,
            "value": 0.11811023622047244
          },
          {
            "number": 7,
            "ticks": 17022,
            "time": 90.43948181249999,
            "value": 0.11811023622047244
          },
          {
            "number": 7,
            "ticks": 17023,
            "time": 90.44479490625,
            "value": 0.11811023622047244
          },
          {
            "number": 7,
            "ticks": 17024,
            "time": 90.450108,
            "value": 0.11811023622047244
          },
          {
            "number": 7,
            "ticks": 17025,
            "time": 90.45542109374999,
            "value": 0.11811023622047244
          },
          {
            "number": 7,
            "ticks": 17026,
            "time": 90.4607341875,
            "value": 0.11811023622047244
          },
          {
            "number": 7,
            "ticks": 17027,
            "time": 90.46604728125,
            "value": 0.11811023622047244
          },
          {
            "number": 7,
            "ticks": 17028,
            "time": 90.471360375,
            "value": 0.11023622047244094
          },
          {
            "number": 7,
            "ticks": 17029,
            "time": 90.47667346875,
            "value": 0.11023622047244094
          },
          {
            "number": 7,
            "ticks": 17030,
            "time": 90.4819865625,
            "value": 0.11023622047244094
          },
          {
            "number": 7,
            "ticks": 17031,
            "time": 90.48729965625,
            "value": 0.11023622047244094
          },
          {
            "number": 7,
            "ticks": 17032,
            "time": 90.49261274999999,
            "value": 0.11023622047244094
          },
          {
            "number": 7,
            "ticks": 17033,
            "time": 90.49792584375,
            "value": 0.11023622047244094
          },
          {
            "number": 7,
            "ticks": 17034,
            "time": 90.5032389375,
            "value": 0.11023622047244094
          },
          {
            "number": 7,
            "ticks": 17035,
            "time": 90.50855203124999,
            "value": 0.11023622047244094
          },
          {
            "number": 7,
            "ticks": 17036,
            "time": 90.513865125,
            "value": 0.11023622047244094
          },
          {
            "number": 7,
            "ticks": 17037,
            "time": 90.51917821875,
            "value": 0.11023622047244094
          },
          {
            "number": 7,
            "ticks": 17038,
            "time": 90.52449131249999,
            "value": 0.11023622047244094
          },
          {
            "number": 7,
            "ticks": 17039,
            "time": 90.52980440625001,
            "value": 0.11023622047244094
          },
          {
            "number": 7,
            "ticks": 17040,
            "time": 90.5351175,
            "value": 0.11023622047244094
          },
          {
            "number": 7,
            "ticks": 17041,
            "time": 90.54043059374999,
            "value": 0.10236220472440945
          },
          {
            "number": 7,
            "ticks": 17042,
            "time": 90.5457436875,
            "value": 0.10236220472440945
          },
          {
            "number": 7,
            "ticks": 17043,
            "time": 90.55105678125,
            "value": 0.10236220472440945
          },
          {
            "number": 7,
            "ticks": 17044,
            "time": 90.55636987499999,
            "value": 0.10236220472440945
          },
          {
            "number": 7,
            "ticks": 17045,
            "time": 90.56168296875,
            "value": 0.09448818897637795
          },
          {
            "number": 7,
            "ticks": 17046,
            "time": 90.5669960625,
            "value": 0.09448818897637795
          },
          {
            "number": 7,
            "ticks": 17047,
            "time": 90.57230915624999,
            "value": 0.09448818897637795
          },
          {
            "number": 7,
            "ticks": 17048,
            "time": 90.57762225,
            "value": 0.09448818897637795
          },
          {
            "number": 7,
            "ticks": 17049,
            "time": 90.58293534375,
            "value": 0.09448818897637795
          },
          {
            "number": 7,
            "ticks": 17050,
            "time": 90.5882484375,
            "value": 0.09448818897637795
          },
          {
            "number": 7,
            "ticks": 17051,
            "time": 90.59356153125,
            "value": 0.08661417322834646
          },
          {
            "number": 7,
            "ticks": 17052,
            "time": 90.598874625,
            "value": 0.08661417322834646
          },
          {
            "number": 7,
            "ticks": 17053,
            "time": 90.60418771875,
            "value": 0.08661417322834646
          },
          {
            "number": 7,
            "ticks": 17054,
            "time": 90.6095008125,
            "value": 0.08661417322834646
          },
          {
            "number": 7,
            "ticks": 17055,
            "time": 90.61481390624999,
            "value": 0.08661417322834646
          },
          {
            "number": 7,
            "ticks": 17056,
            "time": 90.620127,
            "value": 0.08661417322834646
          },
          {
            "number": 7,
            "ticks": 17057,
            "time": 90.62544009375,
            "value": 0.08661417322834646
          },
          {
            "number": 7,
            "ticks": 17058,
            "time": 90.63075318749999,
            "value": 0.08661417322834646
          },
          {
            "number": 7,
            "ticks": 17059,
            "time": 90.63606628125,
            "value": 0.08661417322834646
          },
          {
            "number": 7,
            "ticks": 17060,
            "time": 90.641379375,
            "value": 0.08661417322834646
          },
          {
            "number": 7,
            "ticks": 17061,
            "time": 90.64669246875,
            "value": 0.07874015748031496
          },
          {
            "number": 7,
            "ticks": 17062,
            "time": 90.6520055625,
            "value": 0.07874015748031496
          },
          {
            "number": 7,
            "ticks": 17063,
            "time": 90.65731865625,
            "value": 0.07874015748031496
          },
          {
            "number": 7,
            "ticks": 17064,
            "time": 90.66263175,
            "value": 0.07086614173228346
          },
          {
            "number": 7,
            "ticks": 17065,
            "time": 90.66794484374999,
            "value": 0.07086614173228346
          },
          {
            "number": 7,
            "ticks": 17066,
            "time": 90.6732579375,
            "value": 0.07086614173228346
          },
          {
            "number": 7,
            "ticks": 17067,
            "time": 90.67857103125,
            "value": 0.07086614173228346
          },
          {
            "number": 7,
            "ticks": 17068,
            "time": 90.68388412499999,
            "value": 0.07086614173228346
          },
          {
            "number": 7,
            "ticks": 17069,
            "time": 90.68919721875,
            "value": 0.07086614173228346
          },
          {
            "number": 7,
            "ticks": 17070,
            "time": 90.6945103125,
            "value": 0.07086614173228346
          },
          {
            "number": 7,
            "ticks": 17071,
            "time": 90.69982340624999,
            "value": 0.06299212598425197
          },
          {
            "number": 7,
            "ticks": 17072,
            "time": 90.7051365,
            "value": 0.06299212598425197
          },
          {
            "number": 7,
            "ticks": 17073,
            "time": 90.71044959375,
            "value": 0.06299212598425197
          },
          {
            "number": 7,
            "ticks": 17074,
            "time": 90.71576268749999,
            "value": 0.06299212598425197
          },
          {
            "number": 7,
            "ticks": 17075,
            "time": 90.72107578125001,
            "value": 0.06299212598425197
          },
          {
            "number": 7,
            "ticks": 17076,
            "time": 90.726388875,
            "value": 0.06299212598425197
          },
          {
            "number": 7,
            "ticks": 17077,
            "time": 90.73170196874999,
            "value": 0.06299212598425197
          },
          {
            "number": 7,
            "ticks": 17078,
            "time": 90.7370150625,
            "value": 0.06299212598425197
          },
          {
            "number": 7,
            "ticks": 17079,
            "time": 90.74232815625,
            "value": 0.06299212598425197
          },
          {
            "number": 7,
            "ticks": 17080,
            "time": 90.74764124999999,
            "value": 0
          },
          {
            "number": 7,
            "ticks": 17081,
            "time": 90.75295434375,
            "value": 0
          },
          {
            "number": 7,
            "ticks": 17082,
            "time": 90.7582674375,
            "value": 0.007874015748031496
          },
          {
            "number": 7,
            "ticks": 17083,
            "time": 90.76358053124999,
            "value": 0.007874015748031496
          },
          {
            "number": 7,
            "ticks": 17084,
            "time": 90.768893625,
            "value": 0.015748031496062992
          },
          {
            "number": 7,
            "ticks": 17085,
            "time": 90.77420671875,
            "value": 0.015748031496062992
          },
          {
            "number": 7,
            "ticks": 17086,
            "time": 90.7795198125,
            "value": 0.023622047244094488
          },
          {
            "number": 7,
            "ticks": 17087,
            "time": 90.78483290625,
            "value": 0.023622047244094488
          },
          {
            "number": 7,
            "ticks": 17088,
            "time": 90.790146,
            "value": 0.031496062992125984
          },
          {
            "number": 7,
            "ticks": 17089,
            "time": 90.79545909375,
            "value": 0.031496062992125984
          },
          {
            "number": 7,
            "ticks": 17090,
            "time": 90.8007721875,
            "value": 0.03937007874015748
          },
          {
            "number": 7,
            "ticks": 17091,
            "time": 90.80608528124999,
            "value": 0.047244094488188976
          },
          {
            "number": 7,
            "ticks": 17092,
            "time": 90.811398375,
            "value": 0.047244094488188976
          },
          {
            "number": 7,
            "ticks": 17093,
            "time": 90.81671146875,
            "value": 0.05511811023622047
          },
          {
            "number": 7,
            "ticks": 17094,
            "time": 90.82202456249999,
            "value": 0.05511811023622047
          },
          {
            "number": 7,
            "ticks": 17095,
            "time": 90.82733765625,
            "value": 0.06299212598425197
          },
          {
            "number": 7,
            "ticks": 17096,
            "time": 90.83265075,
            "value": 0.06299212598425197
          },
          {
            "number": 7,
            "ticks": 17097,
            "time": 90.83796384375,
            "value": 0.07086614173228346
          },
          {
            "number": 7,
            "ticks": 17098,
            "time": 90.8432769375,
            "value": 0.07086614173228346
          },
          {
            "number": 7,
            "ticks": 17099,
            "time": 90.84859003125,
            "value": 0.07874015748031496
          },
          {
            "number": 7,
            "ticks": 17100,
            "time": 90.853903125,
            "value": 0.07874015748031496
          },
          {
            "number": 7,
            "ticks": 17101,
            "time": 90.85921621874999,
            "value": 0.08661417322834646
          },
          {
            "number": 7,
            "ticks": 17102,
            "time": 90.8645293125,
            "value": 0.09448818897637795
          },
          {
            "number": 7,
            "ticks": 17103,
            "time": 90.86984240625,
            "value": 0.09448818897637795
          },
          {
            "number": 7,
            "ticks": 17104,
            "time": 90.87515549999999,
            "value": 0.10236220472440945
          },
          {
            "number": 7,
            "ticks": 17105,
            "time": 90.88046859375,
            "value": 0.10236220472440945
          },
          {
            "number": 7,
            "ticks": 17106,
            "time": 90.8857816875,
            "value": 0.11023622047244094
          },
          {
            "number": 7,
            "ticks": 17107,
            "time": 90.89109478124999,
            "value": 0.11023622047244094
          },
          {
            "number": 7,
            "ticks": 17108,
            "time": 90.89640787500001,
            "value": 0.11811023622047244
          },
          {
            "number": 7,
            "ticks": 17109,
            "time": 90.90172096875,
            "value": 0.11811023622047244
          },
          {
            "number": 7,
            "ticks": 17110,
            "time": 90.90703406249999,
            "value": 0.12598425196850394
          },
          {
            "number": 7,
            "ticks": 17111,
            "time": 90.91234715625001,
            "value": 0.13385826771653545
          },
          {
            "number": 7,
            "ticks": 17112,
            "time": 90.91766025,
            "value": 0.13385826771653545
          },
          {
            "number": 7,
            "ticks": 17113,
            "time": 90.92297334374999,
            "value": 0.14173228346456693
          },
          {
            "number": 7,
            "ticks": 17114,
            "time": 90.9282864375,
            "value": 0.14173228346456693
          },
          {
            "number": 7,
            "ticks": 17115,
            "time": 90.93359953125,
            "value": 0.14960629921259844
          },
          {
            "number": 7,
            "ticks": 17116,
            "time": 90.93891262499999,
            "value": 0.14960629921259844
          },
          {
            "number": 7,
            "ticks": 17117,
            "time": 90.94422571875,
            "value": 0.15748031496062992
          },
          {
            "number": 7,
            "ticks": 17118,
            "time": 90.9495388125,
            "value": 0.15748031496062992
          },
          {
            "number": 7,
            "ticks": 17119,
            "time": 90.95485190625,
            "value": 0.16535433070866143
          },
          {
            "number": 7,
            "ticks": 17120,
            "time": 90.960165,
            "value": 0.16535433070866143
          },
          {
            "number": 7,
            "ticks": 17121,
            "time": 90.96547809375,
            "value": 0.1732283464566929
          },
          {
            "number": 7,
            "ticks": 17122,
            "time": 90.9707911875,
            "value": 0.18110236220472442
          },
          {
            "number": 7,
            "ticks": 17123,
            "time": 90.97610428125,
            "value": 0.18110236220472442
          },
          {
            "number": 7,
            "ticks": 17124,
            "time": 90.98141737499999,
            "value": 0.1889763779527559
          },
          {
            "number": 7,
            "ticks": 17125,
            "time": 90.98673046875,
            "value": 0.1889763779527559
          },
          {
            "number": 7,
            "ticks": 17126,
            "time": 90.9920435625,
            "value": 0.1968503937007874
          },
          {
            "number": 7,
            "ticks": 17127,
            "time": 90.99735665624999,
            "value": 0.1968503937007874
          },
          {
            "number": 7,
            "ticks": 17128,
            "time": 91.00266975,
            "value": 0.2047244094488189
          },
          {
            "number": 7,
            "ticks": 17129,
            "time": 91.00798284375,
            "value": 0.2047244094488189
          },
          {
            "number": 7,
            "ticks": 17130,
            "time": 91.01329593749999,
            "value": 0.2125984251968504
          },
          {
            "number": 7,
            "ticks": 17131,
            "time": 91.01860903125,
            "value": 0.2125984251968504
          },
          {
            "number": 7,
            "ticks": 17132,
            "time": 91.023922125,
            "value": 0.2204724409448819
          },
          {
            "number": 7,
            "ticks": 17133,
            "time": 91.02923521875,
            "value": 0.2283464566929134
          },
          {
            "number": 7,
            "ticks": 17134,
            "time": 91.0345483125,
            "value": 0.2283464566929134
          },
          {
            "number": 7,
            "ticks": 17135,
            "time": 91.03986140625,
            "value": 0.23622047244094488
          },
          {
            "number": 7,
            "ticks": 17136,
            "time": 91.0451745,
            "value": 0.23622047244094488
          },
          {
            "number": 7,
            "ticks": 17137,
            "time": 91.05048759374999,
            "value": 0.2440944881889764
          },
          {
            "number": 7,
            "ticks": 17138,
            "time": 91.0558006875,
            "value": 0.2440944881889764
          },
          {
            "number": 7,
            "ticks": 17139,
            "time": 91.06111378125,
            "value": 0.25196850393700787
          },
          {
            "number": 7,
            "ticks": 17140,
            "time": 91.06642687499999,
            "value": 0.25196850393700787
          },
          {
            "number": 7,
            "ticks": 17141,
            "time": 91.07173996875,
            "value": 0.25984251968503935
          },
          {
            "number": 7,
            "ticks": 17142,
            "time": 91.0770530625,
            "value": 0.2677165354330709
          },
          {
            "number": 7,
            "ticks": 17143,
            "time": 91.08236615624999,
            "value": 0.2677165354330709
          },
          {
            "number": 7,
            "ticks": 17144,
            "time": 91.08767925000001,
            "value": 0.2755905511811024
          },
          {
            "number": 7,
            "ticks": 17145,
            "time": 91.09299234375,
            "value": 0.2755905511811024
          },
          {
            "number": 7,
            "ticks": 17146,
            "time": 91.09830543749999,
            "value": 0.28346456692913385
          },
          {
            "number": 7,
            "ticks": 17147,
            "time": 91.10361853125,
            "value": 0.28346456692913385
          },
          {
            "number": 7,
            "ticks": 17148,
            "time": 91.108931625,
            "value": 0.29133858267716534
          },
          {
            "number": 7,
            "ticks": 17149,
            "time": 91.11424471874999,
            "value": 0.29133858267716534
          },
          {
            "number": 7,
            "ticks": 17150,
            "time": 91.1195578125,
            "value": 0.2992125984251969
          },
          {
            "number": 7,
            "ticks": 17151,
            "time": 91.12487090625,
            "value": 0.2992125984251969
          },
          {
            "number": 7,
            "ticks": 17152,
            "time": 91.13018399999999,
            "value": 0.30708661417322836
          },
          {
            "number": 7,
            "ticks": 17153,
            "time": 91.13549709375,
            "value": 0.31496062992125984
          },
          {
            "number": 7,
            "ticks": 17154,
            "time": 91.1408101875,
            "value": 0.31496062992125984
          },
          {
            "number": 7,
            "ticks": 17155,
            "time": 91.14612328125,
            "value": 0.3228346456692913
          },
          {
            "number": 7,
            "ticks": 17156,
            "time": 91.151436375,
            "value": 0.3228346456692913
          },
          {
            "number": 7,
            "ticks": 17157,
            "time": 91.15674946875,
            "value": 0.33070866141732286
          },
          {
            "number": 7,
            "ticks": 17158,
            "time": 91.1620625625,
            "value": 0.33070866141732286
          },
          {
            "number": 7,
            "ticks": 17159,
            "time": 91.16737565625,
            "value": 0.33858267716535434
          },
          {
            "number": 7,
            "ticks": 17160,
            "time": 91.17268874999999,
            "value": 0.33858267716535434
          },
          {
            "number": 7,
            "ticks": 17161,
            "time": 91.17800184375,
            "value": 0.3464566929133858
          },
          {
            "number": 7,
            "ticks": 17162,
            "time": 91.1833149375,
            "value": 0.3464566929133858
          },
          {
            "number": 7,
            "ticks": 17163,
            "time": 91.18862803124999,
            "value": 0.3543307086614173
          },
          {
            "number": 7,
            "ticks": 17164,
            "time": 91.193941125,
            "value": 0.36220472440944884
          },
          {
            "number": 7,
            "ticks": 17165,
            "time": 91.19925421875,
            "value": 0.36220472440944884
          },
          {
            "number": 7,
            "ticks": 17166,
            "time": 91.2045673125,
            "value": 0.3700787401574803
          },
          {
            "number": 7,
            "ticks": 17167,
            "time": 91.20988040625,
            "value": 0.3700787401574803
          },
          {
            "number": 7,
            "ticks": 17168,
            "time": 91.2151935,
            "value": 0.3779527559055118
          },
          {
            "number": 7,
            "ticks": 17169,
            "time": 91.22050659375,
            "value": 0.3779527559055118
          },
          {
            "number": 7,
            "ticks": 17170,
            "time": 91.22581968749999,
            "value": 0.3858267716535433
          },
          {
            "number": 7,
            "ticks": 17171,
            "time": 91.23113278125,
            "value": 0.3858267716535433
          },
          {
            "number": 7,
            "ticks": 17172,
            "time": 91.236445875,
            "value": 0.3937007874015748
          },
          {
            "number": 7,
            "ticks": 17173,
            "time": 91.24175896874999,
            "value": 0.4015748031496063
          },
          {
            "number": 7,
            "ticks": 17174,
            "time": 91.2470720625,
            "value": 0.4015748031496063
          },
          {
            "number": 7,
            "ticks": 17175,
            "time": 91.25238515625,
            "value": 0.4094488188976378
          },
          {
            "number": 7,
            "ticks": 17176,
            "time": 91.25769824999999,
            "value": 0.4094488188976378
          },
          {
            "number": 7,
            "ticks": 17177,
            "time": 91.26301134375001,
            "value": 0.41732283464566927
          },
          {
            "number": 7,
            "ticks": 17178,
            "time": 91.2683244375,
            "value": 0.41732283464566927
          },
          {
            "number": 7,
            "ticks": 17179,
            "time": 91.27363753124999,
            "value": 0.4251968503937008
          },
          {
            "number": 7,
            "ticks": 17180,
            "time": 91.27895062500001,
            "value": 0.4251968503937008
          },
          {
            "number": 7,
            "ticks": 17181,
            "time": 91.28426371875,
            "value": 0.4330708661417323
          },
          {
            "number": 7,
            "ticks": 17182,
            "time": 91.28957681249999,
            "value": 0.4330708661417323
          },
          {
            "number": 7,
            "ticks": 17183,
            "time": 91.29488990625,
            "value": 0.4409448818897638
          },
          {
            "number": 7,
            "ticks": 17184,
            "time": 91.300203,
            "value": 0.44881889763779526
          },
          {
            "number": 7,
            "ticks": 17185,
            "time": 91.30551609374999,
            "value": 0.44881889763779526
          },
          {
            "number": 7,
            "ticks": 17186,
            "time": 91.3108291875,
            "value": 0.4566929133858268
          },
          {
            "number": 7,
            "ticks": 17187,
            "time": 91.31614228125,
            "value": 0.4566929133858268
          },
          {
            "number": 7,
            "ticks": 17188,
            "time": 91.32145537499999,
            "value": 0.4645669291338583
          },
          {
            "number": 7,
            "ticks": 17189,
            "time": 91.32676846875,
            "value": 0.4645669291338583
          },
          {
            "number": 7,
            "ticks": 17190,
            "time": 91.3320815625,
            "value": 0.47244094488188976
          },
          {
            "number": 7,
            "ticks": 17191,
            "time": 91.33739465625,
            "value": 0.47244094488188976
          },
          {
            "number": 7,
            "ticks": 17192,
            "time": 91.34270775,
            "value": 0.48031496062992124
          },
          {
            "number": 7,
            "ticks": 17193,
            "time": 91.34802084374999,
            "value": 0.48031496062992124
          },
          {
            "number": 7,
            "ticks": 17194,
            "time": 91.3533339375,
            "value": 0.4881889763779528
          },
          {
            "number": 7,
            "ticks": 17195,
            "time": 91.35864703125,
            "value": 0.49606299212598426
          },
          {
            "number": 7,
            "ticks": 17196,
            "time": 91.36396012499999,
            "value": 0.49606299212598426
          },
          {
            "number": 7,
            "ticks": 17197,
            "time": 91.36927321875,
            "value": 0.5039370078740157
          },
          {
            "number": 7,
            "ticks": 17198,
            "time": 91.3745863125,
            "value": 0.5039370078740157
          },
          {
            "number": 7,
            "ticks": 17199,
            "time": 91.37989940624999,
            "value": 0.5118110236220472
          },
          {
            "number": 7,
            "ticks": 17200,
            "time": 91.3852125,
            "value": 0.5118110236220472
          },
          {
            "number": 7,
            "ticks": 17201,
            "time": 91.39052559375,
            "value": 0.5196850393700787
          },
          {
            "number": 7,
            "ticks": 17202,
            "time": 91.3958386875,
            "value": 0.5196850393700787
          },
          {
            "number": 7,
            "ticks": 17203,
            "time": 91.40115178125,
            "value": 0.5275590551181102
          },
          {
            "number": 7,
            "ticks": 17204,
            "time": 91.406464875,
            "value": 0.5354330708661418
          },
          {
            "number": 7,
            "ticks": 17205,
            "time": 91.41177796875,
            "value": 0.5354330708661418
          },
          {
            "number": 7,
            "ticks": 17206,
            "time": 91.41709106249999,
            "value": 0.5433070866141733
          },
          {
            "number": 7,
            "ticks": 17207,
            "time": 91.42240415625,
            "value": 0.5433070866141733
          },
          {
            "number": 7,
            "ticks": 17208,
            "time": 91.42771725,
            "value": 0.5511811023622047
          },
          {
            "number": 7,
            "ticks": 17209,
            "time": 91.43303034374999,
            "value": 0.5511811023622047
          },
          {
            "number": 7,
            "ticks": 17210,
            "time": 91.4383434375,
            "value": 0.5590551181102362
          },
          {
            "number": 7,
            "ticks": 17211,
            "time": 91.44365653125,
            "value": 0.5590551181102362
          },
          {
            "number": 7,
            "ticks": 17212,
            "time": 91.44896962499999,
            "value": 0.5669291338582677
          },
          {
            "number": 7,
            "ticks": 17213,
            "time": 91.45428271875001,
            "value": 0.5669291338582677
          },
          {
            "number": 7,
            "ticks": 17214,
            "time": 91.4595958125,
            "value": 0.5748031496062992
          },
          {
            "number": 7,
            "ticks": 17215,
            "time": 91.46490890624999,
            "value": 0.5826771653543307
          },
          {
            "number": 7,
            "ticks": 17216,
            "time": 91.470222,
            "value": 0.5826771653543307
          },
          {
            "number": 7,
            "ticks": 17217,
            "time": 91.47553509375,
            "value": 0.5905511811023622
          },
          {
            "number": 7,
            "ticks": 17218,
            "time": 91.48084818749999,
            "value": 0.5905511811023622
          },
          {
            "number": 7,
            "ticks": 17219,
            "time": 91.48616128125,
            "value": 0.5984251968503937
          },
          {
            "number": 7,
            "ticks": 17220,
            "time": 91.491474375,
            "value": 0.5984251968503937
          },
          {
            "number": 7,
            "ticks": 17221,
            "time": 91.49678746874999,
            "value": 0.6062992125984252
          },
          {
            "number": 7,
            "ticks": 17222,
            "time": 91.5021005625,
            "value": 0.6062992125984252
          },
          {
            "number": 7,
            "ticks": 17223,
            "time": 91.50741365625,
            "value": 0.6141732283464567
          },
          {
            "number": 7,
            "ticks": 17224,
            "time": 91.51272675,
            "value": 0.6141732283464567
          },
          {
            "number": 7,
            "ticks": 17225,
            "time": 91.51803984375,
            "value": 0.6220472440944882
          },
          {
            "number": 7,
            "ticks": 17226,
            "time": 91.5233529375,
            "value": 0.6299212598425197
          },
          {
            "number": 7,
            "ticks": 17227,
            "time": 91.52866603125,
            "value": 0.6299212598425197
          },
          {
            "number": 7,
            "ticks": 17228,
            "time": 91.533979125,
            "value": 0.6377952755905512
          },
          {
            "number": 7,
            "ticks": 17229,
            "time": 91.53929221874999,
            "value": 0.6377952755905512
          },
          {
            "number": 7,
            "ticks": 17230,
            "time": 91.5446053125,
            "value": 0.6456692913385826
          },
          {
            "number": 7,
            "ticks": 17231,
            "time": 91.54991840625,
            "value": 0.6456692913385826
          },
          {
            "number": 7,
            "ticks": 17232,
            "time": 91.55523149999999,
            "value": 0.6535433070866141
          },
          {
            "number": 7,
            "ticks": 17233,
            "time": 91.56054459375,
            "value": 0.6535433070866141
          },
          {
            "number": 7,
            "ticks": 17234,
            "time": 91.5658576875,
            "value": 0.6614173228346457
          },
          {
            "number": 7,
            "ticks": 17235,
            "time": 91.57117078125,
            "value": 0.6692913385826772
          },
          {
            "number": 7,
            "ticks": 17236,
            "time": 91.576483875,
            "value": 0.6692913385826772
          },
          {
            "number": 7,
            "ticks": 17237,
            "time": 91.58179696875,
            "value": 0.6771653543307087
          },
          {
            "number": 7,
            "ticks": 17238,
            "time": 91.5871100625,
            "value": 0.6771653543307087
          },
          {
            "number": 7,
            "ticks": 17239,
            "time": 91.59242315624999,
            "value": 0.6850393700787402
          },
          {
            "number": 7,
            "ticks": 17240,
            "time": 91.59773625,
            "value": 0.6850393700787402
          },
          {
            "number": 7,
            "ticks": 17241,
            "time": 91.60304934375,
            "value": 0.6929133858267716
          },
          {
            "number": 7,
            "ticks": 17242,
            "time": 91.60836243749999,
            "value": 0.6929133858267716
          },
          {
            "number": 7,
            "ticks": 17243,
            "time": 91.61367553125,
            "value": 0.7007874015748031
          },
          {
            "number": 7,
            "ticks": 17244,
            "time": 91.618988625,
            "value": 0.7007874015748031
          },
          {
            "number": 7,
            "ticks": 17245,
            "time": 91.62430171874999,
            "value": 0.7086614173228346
          },
          {
            "number": 7,
            "ticks": 17246,
            "time": 91.62961481250001,
            "value": 0.7165354330708661
          },
          {
            "number": 7,
            "ticks": 17247,
            "time": 91.63492790625,
            "value": 0.7165354330708661
          },
          {
            "number": 7,
            "ticks": 17248,
            "time": 91.64024099999999,
            "value": 0.7244094488188977
          },
          {
            "number": 7,
            "ticks": 17249,
            "time": 91.64555409375001,
            "value": 0.7244094488188977
          },
          {
            "number": 7,
            "ticks": 17250,
            "time": 91.6508671875,
            "value": 0.7322834645669292
          },
          {
            "number": 7,
            "ticks": 17251,
            "time": 91.65618028124999,
            "value": 0.7322834645669292
          },
          {
            "number": 7,
            "ticks": 17252,
            "time": 91.661493375,
            "value": 0.7401574803149606
          },
          {
            "number": 7,
            "ticks": 17253,
            "time": 91.66680646875,
            "value": 0.7401574803149606
          },
          {
            "number": 7,
            "ticks": 17254,
            "time": 91.67211956249999,
            "value": 0.7480314960629921
          },
          {
            "number": 7,
            "ticks": 17255,
            "time": 91.67743265625,
            "value": 0.7480314960629921
          },
          {
            "number": 7,
            "ticks": 17256,
            "time": 91.68274575,
            "value": 0.7559055118110236
          },
          {
            "number": 7,
            "ticks": 17270,
            "time": 91.7571290625,
            "value": 0.7559055118110236
          },
          {
            "number": 7,
            "ticks": 17294,
            "time": 91.8846433125,
            "value": 0.7559055118110236
          },
          {
            "number": 7,
            "ticks": 17317,
            "time": 92.00684446874999,
            "value": 0.7559055118110236
          },
          {
            "number": 7,
            "ticks": 17341,
            "time": 92.13435871875,
            "value": 0.7559055118110236
          },
          {
            "number": 7,
            "ticks": 17364,
            "time": 92.256559875,
            "value": 0.7559055118110236
          },
          {
            "number": 7,
            "ticks": 17388,
            "time": 92.384074125,
            "value": 0.7559055118110236
          },
          {
            "number": 7,
            "ticks": 17411,
            "time": 92.50627528125,
            "value": 0.7559055118110236
          },
          {
            "number": 7,
            "ticks": 17435,
            "time": 92.63378953125,
            "value": 0.7559055118110236
          },
          {
            "number": 7,
            "ticks": 17458,
            "time": 92.75599068749999,
            "value": 0.7559055118110236
          },
          {
            "number": 7,
            "ticks": 17482,
            "time": 92.88350493749999,
            "value": 0.7559055118110236
          },
          {
            "number": 7,
            "ticks": 17505,
            "time": 93.00570609374999,
            "value": 0.7559055118110236
          },
          {
            "number": 7,
            "ticks": 17529,
            "time": 93.13322034375,
            "value": 0.7559055118110236
          },
          {
            "number": 7,
            "ticks": 17552,
            "time": 93.2554215,
            "value": 0.7559055118110236
          },
          {
            "number": 7,
            "ticks": 17576,
            "time": 93.38293575,
            "value": 0.7559055118110236
          },
          {
            "number": 7,
            "ticks": 17599,
            "time": 93.50513690624999,
            "value": 0.7559055118110236
          },
          {
            "number": 7,
            "ticks": 17623,
            "time": 93.63265115624999,
            "value": 0.7559055118110236
          },
          {
            "number": 7,
            "ticks": 17646,
            "time": 93.75485231249999,
            "value": 0.7559055118110236
          },
          {
            "number": 7,
            "ticks": 17670,
            "time": 93.8823665625,
            "value": 0.7559055118110236
          },
          {
            "number": 7,
            "ticks": 17693,
            "time": 94.00456771875,
            "value": 0.7559055118110236
          },
          {
            "number": 7,
            "ticks": 17717,
            "time": 94.13208196875,
            "value": 0.7559055118110236
          },
          {
            "number": 7,
            "ticks": 17740,
            "time": 94.25428312499999,
            "value": 0.7559055118110236
          },
          {
            "number": 7,
            "ticks": 17764,
            "time": 94.38179737499999,
            "value": 0.7559055118110236
          },
          {
            "number": 7,
            "ticks": 17787,
            "time": 94.50399853124999,
            "value": 0.7559055118110236
          },
          {
            "number": 7,
            "ticks": 18380,
            "time": 97.654663125,
            "value": 0.4409448818897638
          },
          {
            "number": 7,
            "ticks": 18389,
            "time": 97.70248096875,
            "value": 0.4409448818897638
          },
          {
            "number": 7,
            "ticks": 18398,
            "time": 97.7502988125,
            "value": 0.4409448818897638
          },
          {
            "number": 7,
            "ticks": 18407,
            "time": 97.79811665625,
            "value": 0.4409448818897638
          },
          {
            "number": 7,
            "ticks": 18416,
            "time": 97.8459345,
            "value": 0.4409448818897638
          },
          {
            "number": 7,
            "ticks": 18424,
            "time": 97.88843924999999,
            "value": 0.4409448818897638
          },
          {
            "number": 7,
            "ticks": 18433,
            "time": 97.93625709374999,
            "value": 0.4409448818897638
          },
          {
            "number": 7,
            "ticks": 18442,
            "time": 97.9840749375,
            "value": 0.4409448818897638
          },
          {
            "number": 7,
            "ticks": 18451,
            "time": 98.03189278125,
            "value": 0.4409448818897638
          },
          {
            "number": 7,
            "ticks": 18460,
            "time": 98.07971062499999,
            "value": 0.4409448818897638
          },
          {
            "number": 7,
            "ticks": 18468,
            "time": 98.122215375,
            "value": 0.4409448818897638
          },
          {
            "number": 7,
            "ticks": 18477,
            "time": 98.17003321874999,
            "value": 0.4409448818897638
          },
          {
            "number": 7,
            "ticks": 18486,
            "time": 98.2178510625,
            "value": 0.4409448818897638
          },
          {
            "number": 7,
            "ticks": 18495,
            "time": 98.26566890625,
            "value": 0.4409448818897638
          },
          {
            "number": 7,
            "ticks": 18504,
            "time": 98.31348675,
            "value": 0.4409448818897638
          },
          {
            "number": 7,
            "ticks": 18512,
            "time": 98.3559915,
            "value": 0.4409448818897638
          },
          {
            "number": 7,
            "ticks": 18521,
            "time": 98.40380934375,
            "value": 0.4409448818897638
          },
          {
            "number": 7,
            "ticks": 18530,
            "time": 98.4516271875,
            "value": 0.4409448818897638
          },
          {
            "number": 7,
            "ticks": 18539,
            "time": 98.49944503125,
            "value": 0.4409448818897638
          },
          {
            "number": 7,
            "ticks": 18548,
            "time": 98.547262875,
            "value": 0.4409448818897638
          },
          {
            "number": 7,
            "ticks": 18556,
            "time": 98.589767625,
            "value": 0.4409448818897638
          },
          {
            "number": 7,
            "ticks": 18565,
            "time": 98.63758546874999,
            "value": 0.4409448818897638
          },
          {
            "number": 7,
            "ticks": 18574,
            "time": 98.68540331249999,
            "value": 0.4409448818897638
          },
          {
            "number": 7,
            "ticks": 18583,
            "time": 98.73322115625,
            "value": 0.4409448818897638
          },
          {
            "number": 7,
            "ticks": 18591,
            "time": 98.77572590625,
            "value": 0.4409448818897638
          },
          {
            "number": 7,
            "ticks": 18653,
            "time": 99.10513771875,
            "value": 0
          },
          {
            "number": 7,
            "ticks": 18654,
            "time": 99.11045081249999,
            "value": 0
          },
          {
            "number": 7,
            "ticks": 18655,
            "time": 99.11576390625,
            "value": 0.007874015748031496
          },
          {
            "number": 7,
            "ticks": 18656,
            "time": 99.121077,
            "value": 0.007874015748031496
          },
          {
            "number": 7,
            "ticks": 18657,
            "time": 99.12639009374999,
            "value": 0.015748031496062992
          },
          {
            "number": 7,
            "ticks": 18658,
            "time": 99.1317031875,
            "value": 0.023622047244094488
          },
          {
            "number": 7,
            "ticks": 18659,
            "time": 99.13701628125,
            "value": 0.023622047244094488
          },
          {
            "number": 7,
            "ticks": 18660,
            "time": 99.142329375,
            "value": 0.031496062992125984
          },
          {
            "number": 7,
            "ticks": 18661,
            "time": 99.14764246874999,
            "value": 0.031496062992125984
          },
          {
            "number": 7,
            "ticks": 18662,
            "time": 99.1529555625,
            "value": 0.03937007874015748
          },
          {
            "number": 7,
            "ticks": 18663,
            "time": 99.15826865625,
            "value": 0.047244094488188976
          },
          {
            "number": 7,
            "ticks": 18664,
            "time": 99.16358174999999,
            "value": 0.047244094488188976
          },
          {
            "number": 7,
            "ticks": 18665,
            "time": 99.16889484375,
            "value": 0.05511811023622047
          },
          {
            "number": 7,
            "ticks": 18666,
            "time": 99.1742079375,
            "value": 0.05511811023622047
          },
          {
            "number": 7,
            "ticks": 18667,
            "time": 99.17952103124999,
            "value": 0.06299212598425197
          },
          {
            "number": 7,
            "ticks": 18668,
            "time": 99.184834125,
            "value": 0.07086614173228346
          },
          {
            "number": 7,
            "ticks": 18669,
            "time": 99.19014721875,
            "value": 0.07086614173228346
          },
          {
            "number": 7,
            "ticks": 18670,
            "time": 99.19546031249999,
            "value": 0.07874015748031496
          },
          {
            "number": 7,
            "ticks": 18671,
            "time": 99.20077340625001,
            "value": 0.07874015748031496
          },
          {
            "number": 7,
            "ticks": 18672,
            "time": 99.2060865,
            "value": 0.08661417322834646
          },
          {
            "number": 7,
            "ticks": 18673,
            "time": 99.21139959374999,
            "value": 0.09448818897637795
          },
          {
            "number": 7,
            "ticks": 18674,
            "time": 99.2167126875,
            "value": 0.09448818897637795
          },
          {
            "number": 7,
            "ticks": 18675,
            "time": 99.22202578125,
            "value": 0.10236220472440945
          },
          {
            "number": 7,
            "ticks": 18676,
            "time": 99.22733887499999,
            "value": 0.11023622047244094
          },
          {
            "number": 7,
            "ticks": 18677,
            "time": 99.23265196875,
            "value": 0.11023622047244094
          },
          {
            "number": 7,
            "ticks": 18678,
            "time": 99.2379650625,
            "value": 0.11811023622047244
          },
          {
            "number": 7,
            "ticks": 18679,
            "time": 99.24327815624999,
            "value": 0.11811023622047244
          },
          {
            "number": 7,
            "ticks": 18680,
            "time": 99.24859125,
            "value": 0.12598425196850394
          },
          {
            "number": 7,
            "ticks": 18681,
            "time": 99.25390434375,
            "value": 0.13385826771653545
          },
          {
            "number": 7,
            "ticks": 18682,
            "time": 99.2592174375,
            "value": 0.13385826771653545
          },
          {
            "number": 7,
            "ticks": 18683,
            "time": 99.26453053125,
            "value": 0.14173228346456693
          },
          {
            "number": 7,
            "ticks": 18684,
            "time": 99.269843625,
            "value": 0.14173228346456693
          },
          {
            "number": 7,
            "ticks": 18685,
            "time": 99.27515671875,
            "value": 0.14960629921259844
          },
          {
            "number": 7,
            "ticks": 18686,
            "time": 99.2804698125,
            "value": 0.15748031496062992
          },
          {
            "number": 7,
            "ticks": 18687,
            "time": 99.28578290624999,
            "value": 0.15748031496062992
          },
          {
            "number": 7,
            "ticks": 18688,
            "time": 99.291096,
            "value": 0.16535433070866143
          },
          {
            "number": 7,
            "ticks": 18689,
            "time": 99.29640909375,
            "value": 0.16535433070866143
          },
          {
            "number": 7,
            "ticks": 18690,
            "time": 99.30172218749999,
            "value": 0.1732283464566929
          },
          {
            "number": 7,
            "ticks": 18691,
            "time": 99.30703528125,
            "value": 0.18110236220472442
          },
          {
            "number": 7,
            "ticks": 18692,
            "time": 99.312348375,
            "value": 0.18110236220472442
          },
          {
            "number": 7,
            "ticks": 18693,
            "time": 99.31766146875,
            "value": 0.1889763779527559
          },
          {
            "number": 7,
            "ticks": 18694,
            "time": 99.3229745625,
            "value": 0.1889763779527559
          },
          {
            "number": 7,
            "ticks": 18695,
            "time": 99.32828765625,
            "value": 0.1968503937007874
          },
          {
            "number": 7,
            "ticks": 18696,
            "time": 99.33360075,
            "value": 0.2047244094488189
          },
          {
            "number": 7,
            "ticks": 18697,
            "time": 99.33891384374999,
            "value": 0.2047244094488189
          },
          {
            "number": 7,
            "ticks": 18698,
            "time": 99.3442269375,
            "value": 0.2125984251968504
          },
          {
            "number": 7,
            "ticks": 18699,
            "time": 99.34954003125,
            "value": 0.2204724409448819
          },
          {
            "number": 7,
            "ticks": 18700,
            "time": 99.35485312499999,
            "value": 0.2204724409448819
          },
          {
            "number": 7,
            "ticks": 18701,
            "time": 99.36016621875,
            "value": 0.2283464566929134
          },
          {
            "number": 7,
            "ticks": 18702,
            "time": 99.3654793125,
            "value": 0.2283464566929134
          },
          {
            "number": 7,
            "ticks": 18703,
            "time": 99.37079240624999,
            "value": 0.23622047244094488
          },
          {
            "number": 7,
            "ticks": 18704,
            "time": 99.37610550000001,
            "value": 0.2440944881889764
          },
          {
            "number": 7,
            "ticks": 18705,
            "time": 99.38141859375,
            "value": 0.2440944881889764
          },
          {
            "number": 7,
            "ticks": 18706,
            "time": 99.38673168749999,
            "value": 0.25196850393700787
          },
          {
            "number": 7,
            "ticks": 18707,
            "time": 99.39204478125001,
            "value": 0.25196850393700787
          },
          {
            "number": 7,
            "ticks": 18708,
            "time": 99.397357875,
            "value": 0.25984251968503935
          },
          {
            "number": 7,
            "ticks": 18709,
            "time": 99.40267096874999,
            "value": 0.2677165354330709
          },
          {
            "number": 7,
            "ticks": 18710,
            "time": 99.4079840625,
            "value": 0.2677165354330709
          },
          {
            "number": 7,
            "ticks": 18711,
            "time": 99.41329715625,
            "value": 0.2755905511811024
          },
          {
            "number": 7,
            "ticks": 18712,
            "time": 99.41861024999999,
            "value": 0.2755905511811024
          },
          {
            "number": 7,
            "ticks": 18713,
            "time": 99.42392334375,
            "value": 0.28346456692913385
          },
          {
            "number": 7,
            "ticks": 18714,
            "time": 99.4292364375,
            "value": 0.29133858267716534
          },
          {
            "number": 7,
            "ticks": 18715,
            "time": 99.43454953124998,
            "value": 0.29133858267716534
          },
          {
            "number": 7,
            "ticks": 18716,
            "time": 99.439862625,
            "value": 0.2992125984251969
          },
          {
            "number": 7,
            "ticks": 18717,
            "time": 99.44517571875,
            "value": 0.30708661417322836
          },
          {
            "number": 7,
            "ticks": 18718,
            "time": 99.4504888125,
            "value": 0.30708661417322836
          },
          {
            "number": 7,
            "ticks": 18719,
            "time": 99.45580190625,
            "value": 0.31496062992125984
          },
          {
            "number": 7,
            "ticks": 18720,
            "time": 99.46111499999999,
            "value": 0.31496062992125984
          },
          {
            "number": 7,
            "ticks": 18721,
            "time": 99.46642809375,
            "value": 0.3228346456692913
          },
          {
            "number": 7,
            "ticks": 18722,
            "time": 99.4717411875,
            "value": 0.33070866141732286
          },
          {
            "number": 7,
            "ticks": 18723,
            "time": 99.47705428124999,
            "value": 0.33070866141732286
          },
          {
            "number": 7,
            "ticks": 18724,
            "time": 99.482367375,
            "value": 0.33858267716535434
          },
          {
            "number": 7,
            "ticks": 18725,
            "time": 99.48768046875,
            "value": 0.33858267716535434
          },
          {
            "number": 7,
            "ticks": 18726,
            "time": 99.49299356249999,
            "value": 0.3464566929133858
          },
          {
            "number": 7,
            "ticks": 18727,
            "time": 99.49830665625,
            "value": 0.3543307086614173
          },
          {
            "number": 7,
            "ticks": 18728,
            "time": 99.50361975,
            "value": 0.3543307086614173
          },
          {
            "number": 7,
            "ticks": 18729,
            "time": 99.50893284375,
            "value": 0.36220472440944884
          },
          {
            "number": 7,
            "ticks": 18730,
            "time": 99.5142459375,
            "value": 0.36220472440944884
          },
          {
            "number": 7,
            "ticks": 18731,
            "time": 99.51955903125,
            "value": 0.3700787401574803
          },
          {
            "number": 7,
            "ticks": 18732,
            "time": 99.524872125,
            "value": 0.3779527559055118
          },
          {
            "number": 7,
            "ticks": 18733,
            "time": 99.53018521874999,
            "value": 0.3779527559055118
          },
          {
            "number": 7,
            "ticks": 18734,
            "time": 99.5354983125,
            "value": 0.3858267716535433
          },
          {
            "number": 7,
            "ticks": 18735,
            "time": 99.54081140625,
            "value": 0.3858267716535433
          },
          {
            "number": 7,
            "ticks": 18736,
            "time": 99.54612449999999,
            "value": 0.3937007874015748
          },
          {
            "number": 7,
            "ticks": 18737,
            "time": 99.55143759375,
            "value": 0.4015748031496063
          },
          {
            "number": 7,
            "ticks": 18738,
            "time": 99.5567506875,
            "value": 0.4015748031496063
          },
          {
            "number": 7,
            "ticks": 18739,
            "time": 99.56206378124999,
            "value": 0.4094488188976378
          },
          {
            "number": 7,
            "ticks": 18740,
            "time": 99.56737687500001,
            "value": 0.41732283464566927
          },
          {
            "number": 7,
            "ticks": 18741,
            "time": 99.57268996875,
            "value": 0.41732283464566927
          },
          {
            "number": 7,
            "ticks": 18742,
            "time": 99.57800306249999,
            "value": 0.4251968503937008
          },
          {
            "number": 7,
            "ticks": 18743,
            "time": 99.58331615625,
            "value": 0.4251968503937008
          },
          {
            "number": 7,
            "ticks": 18744,
            "time": 99.58862925,
            "value": 0.4330708661417323
          },
          {
            "number": 7,
            "ticks": 18745,
            "time": 99.59394234374999,
            "value": 0.4409448818897638
          },
          {
            "number": 7,
            "ticks": 18746,
            "time": 99.5992554375,
            "value": 0.4409448818897638
          },
          {
            "number": 7,
            "ticks": 18747,
            "time": 99.60456853125,
            "value": 0.44881889763779526
          },
          {
            "number": 7,
            "ticks": 18748,
            "time": 99.60988162499999,
            "value": 0.44881889763779526
          },
          {
            "number": 7,
            "ticks": 18749,
            "time": 99.61519471875,
            "value": 0.4566929133858268
          },
          {
            "number": 7,
            "ticks": 18750,
            "time": 99.6205078125,
            "value": 0.4645669291338583
          },
          {
            "number": 7,
            "ticks": 18751,
            "time": 99.62582090625,
            "value": 0.4645669291338583
          },
          {
            "number": 7,
            "ticks": 18752,
            "time": 99.631134,
            "value": 0.47244094488188976
          },
          {
            "number": 7,
            "ticks": 18753,
            "time": 99.63644709375,
            "value": 0.47244094488188976
          },
          {
            "number": 7,
            "ticks": 18754,
            "time": 99.6417601875,
            "value": 0.48031496062992124
          },
          {
            "number": 7,
            "ticks": 18755,
            "time": 99.64707328125,
            "value": 0.4881889763779528
          },
          {
            "number": 7,
            "ticks": 18756,
            "time": 99.65238637499999,
            "value": 0.4881889763779528
          },
          {
            "number": 7,
            "ticks": 18757,
            "time": 99.65769946875,
            "value": 0.49606299212598426
          },
          {
            "number": 7,
            "ticks": 18758,
            "time": 99.6630125625,
            "value": 0.49606299212598426
          },
          {
            "number": 7,
            "ticks": 18759,
            "time": 99.66832565624999,
            "value": 0.5039370078740157
          },
          {
            "number": 7,
            "ticks": 18760,
            "time": 99.67363875,
            "value": 0.5118110236220472
          },
          {
            "number": 7,
            "ticks": 18761,
            "time": 99.67895184375,
            "value": 0.5118110236220472
          },
          {
            "number": 7,
            "ticks": 18762,
            "time": 99.6842649375,
            "value": 0.5196850393700787
          },
          {
            "number": 7,
            "ticks": 18763,
            "time": 99.68957803125,
            "value": 0.5275590551181102
          },
          {
            "number": 7,
            "ticks": 18764,
            "time": 99.694891125,
            "value": 0.5275590551181102
          },
          {
            "number": 7,
            "ticks": 18765,
            "time": 99.70020421875,
            "value": 0.5354330708661418
          },
          {
            "number": 7,
            "ticks": 18766,
            "time": 99.70551731249999,
            "value": 0.5354330708661418
          },
          {
            "number": 7,
            "ticks": 18767,
            "time": 99.71083040625,
            "value": 0.5433070866141733
          },
          {
            "number": 7,
            "ticks": 18768,
            "time": 99.7161435,
            "value": 0.5511811023622047
          },
          {
            "number": 7,
            "ticks": 18769,
            "time": 99.72145659374999,
            "value": 0.5511811023622047
          },
          {
            "number": 7,
            "ticks": 18770,
            "time": 99.7267696875,
            "value": 0.5590551181102362
          },
          {
            "number": 7,
            "ticks": 18771,
            "time": 99.73208278125,
            "value": 0.5590551181102362
          },
          {
            "number": 7,
            "ticks": 18772,
            "time": 99.73739587499999,
            "value": 0.5669291338582677
          },
          {
            "number": 7,
            "ticks": 18773,
            "time": 99.74270896875,
            "value": 0.5748031496062992
          },
          {
            "number": 7,
            "ticks": 18774,
            "time": 99.7480220625,
            "value": 0.5748031496062992
          },
          {
            "number": 7,
            "ticks": 18775,
            "time": 99.75333515624999,
            "value": 0.5826771653543307
          },
          {
            "number": 7,
            "ticks": 18776,
            "time": 99.75864825000001,
            "value": 0.5826771653543307
          },
          {
            "number": 7,
            "ticks": 18777,
            "time": 99.76396134375,
            "value": 0.5905511811023622
          },
          {
            "number": 7,
            "ticks": 18778,
            "time": 99.76927443749999,
            "value": 0.5984251968503937
          },
          {
            "number": 7,
            "ticks": 18779,
            "time": 99.77458753125,
            "value": 0.5984251968503937
          },
          {
            "number": 7,
            "ticks": 18780,
            "time": 99.779900625,
            "value": 0.6062992125984252
          },
          {
            "number": 7,
            "ticks": 18781,
            "time": 99.78521371874999,
            "value": 0.6141732283464567
          },
          {
            "number": 7,
            "ticks": 18782,
            "time": 99.7905268125,
            "value": 0.6141732283464567
          },
          {
            "number": 7,
            "ticks": 18783,
            "time": 99.79583990625,
            "value": 0.6220472440944882
          },
          {
            "number": 7,
            "ticks": 18784,
            "time": 99.80115299999999,
            "value": 0.6220472440944882
          },
          {
            "number": 7,
            "ticks": 18785,
            "time": 99.80646609375,
            "value": 0.6299212598425197
          },
          {
            "number": 7,
            "ticks": 18786,
            "time": 99.8117791875,
            "value": 0.6377952755905512
          },
          {
            "number": 7,
            "ticks": 18787,
            "time": 99.81709228125,
            "value": 0.6377952755905512
          },
          {
            "number": 7,
            "ticks": 18788,
            "time": 99.822405375,
            "value": 0.6456692913385826
          },
          {
            "number": 7,
            "ticks": 18789,
            "time": 99.82771846874999,
            "value": 0.6456692913385826
          },
          {
            "number": 7,
            "ticks": 18790,
            "time": 99.8330315625,
            "value": 0.6535433070866141
          },
          {
            "number": 7,
            "ticks": 18791,
            "time": 99.83834465625,
            "value": 0.6614173228346457
          },
          {
            "number": 7,
            "ticks": 18792,
            "time": 99.84365774999999,
            "value": 0.6614173228346457
          },
          {
            "number": 7,
            "ticks": 18793,
            "time": 99.84897084375,
            "value": 0.7559055118110236
          },
          {
            "number": 7,
            "ticks": 18811,
            "time": 99.94460653124999,
            "value": 0.7559055118110236
          },
          {
            "number": 7,
            "ticks": 18829,
            "time": 100.04024221875,
            "value": 0.7559055118110236
          },
          {
            "number": 7,
            "ticks": 18847,
            "time": 100.13587790624999,
            "value": 0.7559055118110236
          },
          {
            "number": 7,
            "ticks": 18865,
            "time": 100.23151359375,
            "value": 0.7559055118110236
          },
          {
            "number": 7,
            "ticks": 18883,
            "time": 100.32714928124999,
            "value": 0.7559055118110236
          },
          {
            "number": 7,
            "ticks": 18901,
            "time": 100.42278496875,
            "value": 0.7559055118110236
          },
          {
            "number": 7,
            "ticks": 18919,
            "time": 100.51842065624999,
            "value": 0.7559055118110236
          },
          {
            "number": 7,
            "ticks": 18937,
            "time": 100.61405634375,
            "value": 0.7559055118110236
          },
          {
            "number": 7,
            "ticks": 18955,
            "time": 100.70969203124999,
            "value": 0.7559055118110236
          },
          {
            "number": 7,
            "ticks": 18973,
            "time": 100.80532771875,
            "value": 0.7559055118110236
          },
          {
            "number": 7,
            "ticks": 18991,
            "time": 100.90096340624999,
            "value": 0.7559055118110236
          },
          {
            "number": 7,
            "ticks": 19009,
            "time": 100.99659909374999,
            "value": 0.7559055118110236
          },
          {
            "number": 7,
            "ticks": 19027,
            "time": 101.09223478124999,
            "value": 0.7559055118110236
          },
          {
            "number": 7,
            "ticks": 19045,
            "time": 101.18787046874999,
            "value": 0.7559055118110236
          },
          {
            "number": 7,
            "ticks": 19063,
            "time": 101.28350615625,
            "value": 0.7559055118110236
          },
          {
            "number": 7,
            "ticks": 19081,
            "time": 101.37914184374999,
            "value": 0.7559055118110236
          },
          {
            "number": 7,
            "ticks": 19099,
            "time": 101.47477753125,
            "value": 0.7559055118110236
          },
          {
            "number": 7,
            "ticks": 19117,
            "time": 101.57041321874999,
            "value": 0.7559055118110236
          },
          {
            "number": 7,
            "ticks": 19135,
            "time": 101.66604890625,
            "value": 0.7559055118110236
          },
          {
            "number": 7,
            "ticks": 19153,
            "time": 101.76168459374999,
            "value": 0.7559055118110236
          },
          {
            "number": 7,
            "ticks": 19171,
            "time": 101.85732028125,
            "value": 0.7559055118110236
          },
          {
            "number": 7,
            "ticks": 19189,
            "time": 101.95295596874999,
            "value": 0.7559055118110236
          },
          {
            "number": 7,
            "ticks": 19206,
            "time": 102.04327856249999,
            "value": 0.7559055118110236
          },
          {
            "number": 7,
            "ticks": 20033,
            "time": 106.43720709375,
            "value": 0.7480314960629921
          },
          {
            "number": 7,
            "ticks": 20034,
            "time": 106.4425201875,
            "value": 0.7480314960629921
          },
          {
            "number": 7,
            "ticks": 20035,
            "time": 106.44783328125,
            "value": 0.7401574803149606
          },
          {
            "number": 7,
            "ticks": 20036,
            "time": 106.453146375,
            "value": 0.7401574803149606
          },
          {
            "number": 7,
            "ticks": 20037,
            "time": 106.45845946875,
            "value": 0.7322834645669292
          },
          {
            "number": 7,
            "ticks": 20038,
            "time": 106.4637725625,
            "value": 0.7244094488188977
          },
          {
            "number": 7,
            "ticks": 20039,
            "time": 106.46908565625,
            "value": 0.7244094488188977
          },
          {
            "number": 7,
            "ticks": 20040,
            "time": 106.47439874999999,
            "value": 0.7165354330708661
          },
          {
            "number": 7,
            "ticks": 20041,
            "time": 106.47971184375,
            "value": 0.7165354330708661
          },
          {
            "number": 7,
            "ticks": 20042,
            "time": 106.4850249375,
            "value": 0.7086614173228346
          },
          {
            "number": 7,
            "ticks": 20043,
            "time": 106.49033803124999,
            "value": 0.7007874015748031
          },
          {
            "number": 7,
            "ticks": 20044,
            "time": 106.495651125,
            "value": 0.7007874015748031
          },
          {
            "number": 7,
            "ticks": 20045,
            "time": 106.50096421875,
            "value": 0.6929133858267716
          },
          {
            "number": 7,
            "ticks": 20046,
            "time": 106.50627731249999,
            "value": 0.6850393700787402
          },
          {
            "number": 7,
            "ticks": 20047,
            "time": 106.51159040625,
            "value": 0.6850393700787402
          },
          {
            "number": 7,
            "ticks": 20048,
            "time": 106.5169035,
            "value": 0.6771653543307087
          },
          {
            "number": 7,
            "ticks": 20049,
            "time": 106.52221659375,
            "value": 0.6771653543307087
          },
          {
            "number": 7,
            "ticks": 20050,
            "time": 106.52752968749999,
            "value": 0.6692913385826772
          },
          {
            "number": 7,
            "ticks": 20051,
            "time": 106.53284278125,
            "value": 0.6614173228346457
          },
          {
            "number": 7,
            "ticks": 20052,
            "time": 106.538155875,
            "value": 0.6614173228346457
          },
          {
            "number": 7,
            "ticks": 20053,
            "time": 106.54346896874999,
            "value": 0.6535433070866141
          },
          {
            "number": 7,
            "ticks": 20054,
            "time": 106.5487820625,
            "value": 0.6535433070866141
          },
          {
            "number": 7,
            "ticks": 20055,
            "time": 106.55409515625,
            "value": 0.6456692913385826
          },
          {
            "number": 7,
            "ticks": 20056,
            "time": 106.55940824999999,
            "value": 0.6377952755905512
          },
          {
            "number": 7,
            "ticks": 20057,
            "time": 106.56472134375,
            "value": 0.6377952755905512
          },
          {
            "number": 7,
            "ticks": 20058,
            "time": 106.5700344375,
            "value": 0.6299212598425197
          },
          {
            "number": 7,
            "ticks": 20059,
            "time": 106.57534753124999,
            "value": 0.6299212598425197
          },
          {
            "number": 7,
            "ticks": 20060,
            "time": 106.58066062500001,
            "value": 0.6220472440944882
          },
          {
            "number": 7,
            "ticks": 20061,
            "time": 106.58597371875,
            "value": 0.6141732283464567
          },
          {
            "number": 7,
            "ticks": 20062,
            "time": 106.59128681249999,
            "value": 0.6141732283464567
          },
          {
            "number": 7,
            "ticks": 20063,
            "time": 106.59659990625,
            "value": 0.6062992125984252
          },
          {
            "number": 7,
            "ticks": 20064,
            "time": 106.601913,
            "value": 0.5984251968503937
          },
          {
            "number": 7,
            "ticks": 20065,
            "time": 106.60722609374999,
            "value": 0.5984251968503937
          },
          {
            "number": 7,
            "ticks": 20066,
            "time": 106.6125391875,
            "value": 0.5905511811023622
          },
          {
            "number": 7,
            "ticks": 20067,
            "time": 106.61785228125,
            "value": 0.5905511811023622
          },
          {
            "number": 7,
            "ticks": 20068,
            "time": 106.62316537499999,
            "value": 0.5826771653543307
          },
          {
            "number": 7,
            "ticks": 20069,
            "time": 106.62847846875,
            "value": 0.5748031496062992
          },
          {
            "number": 7,
            "ticks": 20070,
            "time": 106.6337915625,
            "value": 0.5748031496062992
          },
          {
            "number": 7,
            "ticks": 20071,
            "time": 106.63910465625,
            "value": 0.5669291338582677
          },
          {
            "number": 7,
            "ticks": 20072,
            "time": 106.64441775,
            "value": 0.5669291338582677
          },
          {
            "number": 7,
            "ticks": 20073,
            "time": 106.64973084374999,
            "value": 0.5590551181102362
          },
          {
            "number": 7,
            "ticks": 20074,
            "time": 106.6550439375,
            "value": 0.5511811023622047
          },
          {
            "number": 7,
            "ticks": 20075,
            "time": 106.66035703125,
            "value": 0.5511811023622047
          },
          {
            "number": 7,
            "ticks": 20076,
            "time": 106.66567012499999,
            "value": 0.5433070866141733
          },
          {
            "number": 7,
            "ticks": 20077,
            "time": 106.67098321875,
            "value": 0.5433070866141733
          },
          {
            "number": 7,
            "ticks": 20078,
            "time": 106.6762963125,
            "value": 0.5354330708661418
          },
          {
            "number": 7,
            "ticks": 20079,
            "time": 106.68160940624999,
            "value": 0.5275590551181102
          },
          {
            "number": 7,
            "ticks": 20080,
            "time": 106.6869225,
            "value": 0.5275590551181102
          },
          {
            "number": 7,
            "ticks": 20081,
            "time": 106.69223559375,
            "value": 0.5196850393700787
          },
          {
            "number": 7,
            "ticks": 20082,
            "time": 106.6975486875,
            "value": 0.5118110236220472
          },
          {
            "number": 7,
            "ticks": 20083,
            "time": 106.70286178125,
            "value": 0.5118110236220472
          },
          {
            "number": 7,
            "ticks": 20084,
            "time": 106.708174875,
            "value": 0.5039370078740157
          },
          {
            "number": 7,
            "ticks": 20085,
            "time": 106.71348796875,
            "value": 0.5039370078740157
          },
          {
            "number": 7,
            "ticks": 20086,
            "time": 106.71880106249999,
            "value": 0.49606299212598426
          },
          {
            "number": 7,
            "ticks": 20087,
            "time": 106.72411415625,
            "value": 0.4881889763779528
          },
          {
            "number": 7,
            "ticks": 20088,
            "time": 106.72942725,
            "value": 0.4881889763779528
          },
          {
            "number": 7,
            "ticks": 20089,
            "time": 106.73474034374999,
            "value": 0.48031496062992124
          },
          {
            "number": 7,
            "ticks": 20090,
            "time": 106.7400534375,
            "value": 0.48031496062992124
          },
          {
            "number": 7,
            "ticks": 20091,
            "time": 106.74536653125,
            "value": 0.47244094488188976
          },
          {
            "number": 7,
            "ticks": 20092,
            "time": 106.75067962499999,
            "value": 0.4645669291338583
          },
          {
            "number": 7,
            "ticks": 20093,
            "time": 106.75599271875001,
            "value": 0.4645669291338583
          },
          {
            "number": 7,
            "ticks": 20094,
            "time": 106.7613058125,
            "value": 0.4566929133858268
          },
          {
            "number": 7,
            "ticks": 20095,
            "time": 106.76661890624999,
            "value": 0.4566929133858268
          },
          {
            "number": 7,
            "ticks": 20096,
            "time": 106.771932,
            "value": 0.44881889763779526
          },
          {
            "number": 7,
            "ticks": 20097,
            "time": 106.77724509375,
            "value": 0.4409448818897638
          },
          {
            "number": 7,
            "ticks": 20098,
            "time": 106.78255818749999,
            "value": 0.4409448818897638
          },
          {
            "number": 7,
            "ticks": 20099,
            "time": 106.78787128125,
            "value": 0.4330708661417323
          },
          {
            "number": 7,
            "ticks": 20100,
            "time": 106.793184375,
            "value": 0.4251968503937008
          },
          {
            "number": 7,
            "ticks": 20101,
            "time": 106.79849746874999,
            "value": 0.4251968503937008
          },
          {
            "number": 7,
            "ticks": 20102,
            "time": 106.8038105625,
            "value": 0.41732283464566927
          },
          {
            "number": 7,
            "ticks": 20103,
            "time": 106.80912365625,
            "value": 0.41732283464566927
          },
          {
            "number": 7,
            "ticks": 20104,
            "time": 106.81443674999998,
            "value": 0.4094488188976378
          },
          {
            "number": 7,
            "ticks": 20105,
            "time": 106.81974984375,
            "value": 0.4015748031496063
          },
          {
            "number": 7,
            "ticks": 20106,
            "time": 106.8250629375,
            "value": 0.4015748031496063
          },
          {
            "number": 7,
            "ticks": 20107,
            "time": 106.83037603125,
            "value": 0.3937007874015748
          },
          {
            "number": 7,
            "ticks": 20108,
            "time": 106.835689125,
            "value": 0.3937007874015748
          },
          {
            "number": 7,
            "ticks": 20109,
            "time": 106.84100221874999,
            "value": 0.3858267716535433
          },
          {
            "number": 7,
            "ticks": 20110,
            "time": 106.8463153125,
            "value": 0.3779527559055118
          },
          {
            "number": 7,
            "ticks": 20111,
            "time": 106.85162840625,
            "value": 0.3779527559055118
          },
          {
            "number": 7,
            "ticks": 20112,
            "time": 106.85694149999999,
            "value": 0.3700787401574803
          },
          {
            "number": 7,
            "ticks": 20113,
            "time": 106.86225459375,
            "value": 0.3700787401574803
          },
          {
            "number": 7,
            "ticks": 20114,
            "time": 106.8675676875,
            "value": 0.36220472440944884
          },
          {
            "number": 7,
            "ticks": 20115,
            "time": 106.87288078124999,
            "value": 0.3543307086614173
          },
          {
            "number": 7,
            "ticks": 20116,
            "time": 106.878193875,
            "value": 0.3543307086614173
          },
          {
            "number": 7,
            "ticks": 20117,
            "time": 106.88350696875,
            "value": 0.3464566929133858
          },
          {
            "number": 7,
            "ticks": 20118,
            "time": 106.8888200625,
            "value": 0.33858267716535434
          },
          {
            "number": 7,
            "ticks": 20119,
            "time": 106.89413315624999,
            "value": 0.33858267716535434
          },
          {
            "number": 7,
            "ticks": 20120,
            "time": 106.89944625,
            "value": 0.33070866141732286
          },
          {
            "number": 7,
            "ticks": 20121,
            "time": 106.90475934375,
            "value": 0.33070866141732286
          },
          {
            "number": 7,
            "ticks": 20122,
            "time": 106.91007243749999,
            "value": 0.3228346456692913
          },
          {
            "number": 7,
            "ticks": 20123,
            "time": 106.91538553125,
            "value": 0.31496062992125984
          },
          {
            "number": 7,
            "ticks": 20124,
            "time": 106.920698625,
            "value": 0.31496062992125984
          },
          {
            "number": 7,
            "ticks": 20125,
            "time": 106.92601171874999,
            "value": 0.30708661417322836
          },
          {
            "number": 7,
            "ticks": 20126,
            "time": 106.9313248125,
            "value": 0.30708661417322836
          },
          {
            "number": 7,
            "ticks": 20127,
            "time": 106.93663790625,
            "value": 0.2992125984251969
          },
          {
            "number": 7,
            "ticks": 20128,
            "time": 106.94195099999999,
            "value": 0.29133858267716534
          },
          {
            "number": 7,
            "ticks": 20129,
            "time": 106.94726409375001,
            "value": 0.29133858267716534
          },
          {
            "number": 7,
            "ticks": 20130,
            "time": 106.9525771875,
            "value": 0.28346456692913385
          },
          {
            "number": 7,
            "ticks": 20131,
            "time": 106.95789028124999,
            "value": 0.28346456692913385
          },
          {
            "number": 7,
            "ticks": 20132,
            "time": 106.963203375,
            "value": 0.2755905511811024
          },
          {
            "number": 7,
            "ticks": 20133,
            "time": 106.96851646875,
            "value": 0.2677165354330709
          },
          {
            "number": 7,
            "ticks": 20134,
            "time": 106.97382956249999,
            "value": 0.2677165354330709
          },
          {
            "number": 7,
            "ticks": 20135,
            "time": 106.97914265625,
            "value": 0.25984251968503935
          },
          {
            "number": 7,
            "ticks": 20136,
            "time": 106.98445575,
            "value": 0.25984251968503935
          },
          {
            "number": 7,
            "ticks": 20137,
            "time": 106.98976884374999,
            "value": 0.25196850393700787
          },
          {
            "number": 7,
            "ticks": 20138,
            "time": 106.9950819375,
            "value": 0.2440944881889764
          },
          {
            "number": 7,
            "ticks": 20139,
            "time": 107.00039503125,
            "value": 0.2440944881889764
          },
          {
            "number": 7,
            "ticks": 20140,
            "time": 107.005708125,
            "value": 0.23622047244094488
          },
          {
            "number": 7,
            "ticks": 20141,
            "time": 107.01102121875,
            "value": 0.2283464566929134
          },
          {
            "number": 7,
            "ticks": 20142,
            "time": 107.01633431249999,
            "value": 0.2283464566929134
          },
          {
            "number": 7,
            "ticks": 20143,
            "time": 107.02164740625,
            "value": 0.2204724409448819
          },
          {
            "number": 7,
            "ticks": 20144,
            "time": 107.0269605,
            "value": 0.2204724409448819
          },
          {
            "number": 7,
            "ticks": 20145,
            "time": 107.03227359374999,
            "value": 0.2125984251968504
          },
          {
            "number": 7,
            "ticks": 20146,
            "time": 107.0375866875,
            "value": 0.2047244094488189
          },
          {
            "number": 7,
            "ticks": 20147,
            "time": 107.04289978125,
            "value": 0.2047244094488189
          },
          {
            "number": 7,
            "ticks": 20148,
            "time": 107.04821287499999,
            "value": 0.1968503937007874
          },
          {
            "number": 7,
            "ticks": 20149,
            "time": 107.05352596875,
            "value": 0.1968503937007874
          },
          {
            "number": 7,
            "ticks": 20150,
            "time": 107.0588390625,
            "value": 0.1889763779527559
          },
          {
            "number": 7,
            "ticks": 20151,
            "time": 107.06415215625,
            "value": 0.18110236220472442
          },
          {
            "number": 7,
            "ticks": 20152,
            "time": 107.06946525,
            "value": 0.18110236220472442
          },
          {
            "number": 7,
            "ticks": 20153,
            "time": 107.07477834375,
            "value": 0.1732283464566929
          },
          {
            "number": 7,
            "ticks": 20154,
            "time": 107.0800914375,
            "value": 0.1732283464566929
          },
          {
            "number": 7,
            "ticks": 20155,
            "time": 107.08540453124999,
            "value": 0.16535433070866143
          },
          {
            "number": 7,
            "ticks": 20156,
            "time": 107.090717625,
            "value": 0.15748031496062992
          },
          {
            "number": 7,
            "ticks": 20157,
            "time": 107.09603071875,
            "value": 0.15748031496062992
          },
          {
            "number": 7,
            "ticks": 20158,
            "time": 107.10134381249999,
            "value": 0.14960629921259844
          },
          {
            "number": 7,
            "ticks": 20159,
            "time": 107.10665690625,
            "value": 0.14173228346456693
          },
          {
            "number": 7,
            "ticks": 20160,
            "time": 107.11197,
            "value": 0.14173228346456693
          },
          {
            "number": 7,
            "ticks": 20161,
            "time": 107.11728309374999,
            "value": 0.13385826771653545
          },
          {
            "number": 7,
            "ticks": 20162,
            "time": 107.12259618750001,
            "value": 0.13385826771653545
          },
          {
            "number": 7,
            "ticks": 20163,
            "time": 107.12790928125,
            "value": 0.12598425196850394
          },
          {
            "number": 7,
            "ticks": 20164,
            "time": 107.13322237499999,
            "value": 0.11811023622047244
          },
          {
            "number": 7,
            "ticks": 20165,
            "time": 107.13853546875,
            "value": 0.11811023622047244
          },
          {
            "number": 7,
            "ticks": 20166,
            "time": 107.1438485625,
            "value": 0.11023622047244094
          },
          {
            "number": 7,
            "ticks": 20167,
            "time": 107.14916165624999,
            "value": 0.11023622047244094
          },
          {
            "number": 7,
            "ticks": 20168,
            "time": 107.15447475,
            "value": 0.10236220472440945
          },
          {
            "number": 7,
            "ticks": 20169,
            "time": 107.15978784375,
            "value": 0.09448818897637795
          },
          {
            "number": 7,
            "ticks": 20170,
            "time": 107.16510093749999,
            "value": 0.09448818897637795
          },
          {
            "number": 7,
            "ticks": 20171,
            "time": 107.17041403125,
            "value": 0.08661417322834646
          },
          {
            "number": 7,
            "ticks": 20172,
            "time": 107.175727125,
            "value": 0.08661417322834646
          },
          {
            "number": 7,
            "ticks": 20173,
            "time": 107.18104021874998,
            "value": 0.07874015748031496
          },
          {
            "number": 7,
            "ticks": 20174,
            "time": 107.1863533125,
            "value": 0.07086614173228346
          },
          {
            "number": 7,
            "ticks": 20175,
            "time": 107.19166640625,
            "value": 0.07086614173228346
          },
          {
            "number": 7,
            "ticks": 20176,
            "time": 107.1969795,
            "value": 0.06299212598425197
          },
          {
            "number": 7,
            "ticks": 20177,
            "time": 107.20229259375,
            "value": 0.05511811023622047
          },
          {
            "number": 7,
            "ticks": 20178,
            "time": 107.20760568749999,
            "value": 0.05511811023622047
          },
          {
            "number": 7,
            "ticks": 20179,
            "time": 107.21291878125,
            "value": 0.047244094488188976
          },
          {
            "number": 7,
            "ticks": 20180,
            "time": 107.218231875,
            "value": 0.047244094488188976
          },
          {
            "number": 7,
            "ticks": 20181,
            "time": 107.22354496874999,
            "value": 0.03937007874015748
          },
          {
            "number": 7,
            "ticks": 20182,
            "time": 107.2288580625,
            "value": 0.031496062992125984
          },
          {
            "number": 7,
            "ticks": 20183,
            "time": 107.23417115625,
            "value": 0.031496062992125984
          },
          {
            "number": 7,
            "ticks": 20184,
            "time": 107.23948424999999,
            "value": 0.023622047244094488
          },
          {
            "number": 7,
            "ticks": 20185,
            "time": 107.24479734375,
            "value": 0.023622047244094488
          },
          {
            "number": 7,
            "ticks": 20186,
            "time": 107.2501104375,
            "value": 0.015748031496062992
          },
          {
            "number": 7,
            "ticks": 20187,
            "time": 107.25542353125,
            "value": 0.007874015748031496
          },
          {
            "number": 7,
            "ticks": 20188,
            "time": 107.26073662499999,
            "value": 0.007874015748031496
          },
          {
            "number": 7,
            "ticks": 20189,
            "time": 107.26604971875,
            "value": 0
          },
          {
            "number": 7,
            "ticks": 20190,
            "time": 107.2713628125,
            "value": 0
          },
          {
            "number": 7,
            "ticks": 20314,
            "time": 107.9301864375,
            "value": 0
          },
          {
            "number": 7,
            "ticks": 20315,
            "time": 107.93549953125,
            "value": 0
          },
          {
            "number": 7,
            "ticks": 20316,
            "time": 107.94081262499999,
            "value": 0
          },
          {
            "number": 7,
            "ticks": 20317,
            "time": 107.94612571875,
            "value": 0
          },
          {
            "number": 7,
            "ticks": 20318,
            "time": 107.9514388125,
            "value": 0
          },
          {
            "number": 7,
            "ticks": 20319,
            "time": 107.95675190624999,
            "value": 0
          },
          {
            "number": 7,
            "ticks": 20320,
            "time": 107.962065,
            "value": 0.007874015748031496
          },
          {
            "number": 7,
            "ticks": 20321,
            "time": 107.96737809375,
            "value": 0.007874015748031496
          },
          {
            "number": 7,
            "ticks": 20322,
            "time": 107.97269118749999,
            "value": 0.007874015748031496
          },
          {
            "number": 7,
            "ticks": 20323,
            "time": 107.97800428125,
            "value": 0.007874015748031496
          },
          {
            "number": 7,
            "ticks": 20324,
            "time": 107.983317375,
            "value": 0.007874015748031496
          },
          {
            "number": 7,
            "ticks": 20325,
            "time": 107.98863046875,
            "value": 0.007874015748031496
          },
          {
            "number": 7,
            "ticks": 20326,
            "time": 107.9939435625,
            "value": 0.015748031496062992
          },
          {
            "number": 7,
            "ticks": 20327,
            "time": 107.99925665625,
            "value": 0.015748031496062992
          },
          {
            "number": 7,
            "ticks": 20328,
            "time": 108.00456975,
            "value": 0.015748031496062992
          },
          {
            "number": 7,
            "ticks": 20329,
            "time": 108.00988284374999,
            "value": 0.015748031496062992
          },
          {
            "number": 7,
            "ticks": 20330,
            "time": 108.0151959375,
            "value": 0.015748031496062992
          },
          {
            "number": 7,
            "ticks": 20331,
            "time": 108.02050903125,
            "value": 0.015748031496062992
          },
          {
            "number": 7,
            "ticks": 20332,
            "time": 108.02582212499999,
            "value": 0.015748031496062992
          },
          {
            "number": 7,
            "ticks": 20333,
            "time": 108.03113521875,
            "value": 0.023622047244094488
          },
          {
            "number": 7,
            "ticks": 20334,
            "time": 108.0364483125,
            "value": 0.023622047244094488
          },
          {
            "number": 7,
            "ticks": 20335,
            "time": 108.04176140624999,
            "value": 0.023622047244094488
          },
          {
            "number": 7,
            "ticks": 20336,
            "time": 108.04707450000001,
            "value": 0.023622047244094488
          },
          {
            "number": 7,
            "ticks": 20337,
            "time": 108.05238759375,
            "value": 0.023622047244094488
          },
          {
            "number": 7,
            "ticks": 20338,
            "time": 108.05770068749999,
            "value": 0.031496062992125984
          },
          {
            "number": 7,
            "ticks": 20339,
            "time": 108.06301378125,
            "value": 0.031496062992125984
          },
          {
            "number": 7,
            "ticks": 20340,
            "time": 108.068326875,
            "value": 0.031496062992125984
          },
          {
            "number": 7,
            "ticks": 20341,
            "time": 108.07363996874999,
            "value": 0.031496062992125984
          },
          {
            "number": 7,
            "ticks": 20342,
            "time": 108.0789530625,
            "value": 0.031496062992125984
          },
          {
            "number": 7,
            "ticks": 20343,
            "time": 108.08426615625,
            "value": 0.031496062992125984
          },
          {
            "number": 7,
            "ticks": 20344,
            "time": 108.08957924999999,
            "value": 0.03937007874015748
          },
          {
            "number": 7,
            "ticks": 20345,
            "time": 108.09489234375,
            "value": 0.03937007874015748
          },
          {
            "number": 7,
            "ticks": 20346,
            "time": 108.1002054375,
            "value": 0.03937007874015748
          },
          {
            "number": 7,
            "ticks": 20347,
            "time": 108.10551853124998,
            "value": 0.03937007874015748
          },
          {
            "number": 7,
            "ticks": 20348,
            "time": 108.110831625,
            "value": 0.03937007874015748
          },
          {
            "number": 7,
            "ticks": 20349,
            "time": 108.11614471875,
            "value": 0.03937007874015748
          },
          {
            "number": 7,
            "ticks": 20350,
            "time": 108.1214578125,
            "value": 0.047244094488188976
          },
          {
            "number": 7,
            "ticks": 20351,
            "time": 108.12677090625,
            "value": 0.047244094488188976
          },
          {
            "number": 7,
            "ticks": 20352,
            "time": 108.13208399999999,
            "value": 0.047244094488188976
          },
          {
            "number": 7,
            "ticks": 20353,
            "time": 108.13739709375,
            "value": 0.047244094488188976
          },
          {
            "number": 7,
            "ticks": 20354,
            "time": 108.1427101875,
            "value": 0.047244094488188976
          },
          {
            "number": 7,
            "ticks": 20355,
            "time": 108.14802328124999,
            "value": 0.047244094488188976
          },
          {
            "number": 7,
            "ticks": 20356,
            "time": 108.153336375,
            "value": 0.047244094488188976
          },
          {
            "number": 7,
            "ticks": 20357,
            "time": 108.15864946875,
            "value": 0.047244094488188976
          },
          {
            "number": 7,
            "ticks": 20358,
            "time": 108.16396256249999,
            "value": 0.047244094488188976
          },
          {
            "number": 7,
            "ticks": 20359,
            "time": 108.16927565625,
            "value": 0.05511811023622047
          },
          {
            "number": 7,
            "ticks": 20360,
            "time": 108.17458875,
            "value": 0.05511811023622047
          },
          {
            "number": 7,
            "ticks": 20361,
            "time": 108.17990184375,
            "value": 0.05511811023622047
          },
          {
            "number": 7,
            "ticks": 20362,
            "time": 108.18521493749999,
            "value": 0.05511811023622047
          },
          {
            "number": 7,
            "ticks": 20363,
            "time": 108.19052803125,
            "value": 0.05511811023622047
          },
          {
            "number": 7,
            "ticks": 20364,
            "time": 108.195841125,
            "value": 0.05511811023622047
          },
          {
            "number": 7,
            "ticks": 20365,
            "time": 108.20115421874999,
            "value": 0.05511811023622047
          },
          {
            "number": 7,
            "ticks": 20366,
            "time": 108.2064673125,
            "value": 0.05511811023622047
          },
          {
            "number": 7,
            "ticks": 20367,
            "time": 108.21178040625,
            "value": 0.05511811023622047
          },
          {
            "number": 7,
            "ticks": 20368,
            "time": 108.21709349999999,
            "value": 0.05511811023622047
          },
          {
            "number": 7,
            "ticks": 20369,
            "time": 108.22240659375,
            "value": 0.06299212598425197
          },
          {
            "number": 7,
            "ticks": 20370,
            "time": 108.2277196875,
            "value": 0.06299212598425197
          },
          {
            "number": 7,
            "ticks": 20371,
            "time": 108.23303278124999,
            "value": 0.06299212598425197
          },
          {
            "number": 7,
            "ticks": 20372,
            "time": 108.23834587500001,
            "value": 0.06299212598425197
          },
          {
            "number": 7,
            "ticks": 20373,
            "time": 108.24365896875,
            "value": 0.06299212598425197
          },
          {
            "number": 7,
            "ticks": 20374,
            "time": 108.24897206249999,
            "value": 0.06299212598425197
          },
          {
            "number": 7,
            "ticks": 20375,
            "time": 108.25428515625,
            "value": 0.06299212598425197
          },
          {
            "number": 7,
            "ticks": 20376,
            "time": 108.25959825,
            "value": 0.06299212598425197
          },
          {
            "number": 7,
            "ticks": 20377,
            "time": 108.26491134374999,
            "value": 0.07086614173228346
          },
          {
            "number": 7,
            "ticks": 20378,
            "time": 108.2702244375,
            "value": 0.07086614173228346
          },
          {
            "number": 7,
            "ticks": 20379,
            "time": 108.27553753125,
            "value": 0.07086614173228346
          },
          {
            "number": 7,
            "ticks": 20380,
            "time": 108.28085062499999,
            "value": 0.07086614173228346
          },
          {
            "number": 7,
            "ticks": 20381,
            "time": 108.28616371875,
            "value": 0.07086614173228346
          },
          {
            "number": 7,
            "ticks": 20382,
            "time": 108.2914768125,
            "value": 0.07874015748031496
          },
          {
            "number": 7,
            "ticks": 20383,
            "time": 108.29678990625,
            "value": 0.07874015748031496
          },
          {
            "number": 7,
            "ticks": 20384,
            "time": 108.302103,
            "value": 0.07874015748031496
          },
          {
            "number": 7,
            "ticks": 20385,
            "time": 108.30741609374999,
            "value": 0.07874015748031496
          },
          {
            "number": 7,
            "ticks": 20386,
            "time": 108.3127291875,
            "value": 0.07874015748031496
          },
          {
            "number": 7,
            "ticks": 20387,
            "time": 108.31804228125,
            "value": 0.08661417322834646
          },
          {
            "number": 7,
            "ticks": 20388,
            "time": 108.32335537499999,
            "value": 0.08661417322834646
          },
          {
            "number": 7,
            "ticks": 20389,
            "time": 108.32866846875,
            "value": 0.08661417322834646
          },
          {
            "number": 7,
            "ticks": 20390,
            "time": 108.3339815625,
            "value": 0.08661417322834646
          },
          {
            "number": 7,
            "ticks": 20391,
            "time": 108.33929465624999,
            "value": 0.08661417322834646
          },
          {
            "number": 7,
            "ticks": 20392,
            "time": 108.34460775,
            "value": 0.08661417322834646
          },
          {
            "number": 7,
            "ticks": 20393,
            "time": 108.34992084375,
            "value": 0.09448818897637795
          },
          {
            "number": 7,
            "ticks": 20394,
            "time": 108.3552339375,
            "value": 0.09448818897637795
          },
          {
            "number": 7,
            "ticks": 20395,
            "time": 108.36054703125,
            "value": 0.09448818897637795
          },
          {
            "number": 7,
            "ticks": 20396,
            "time": 108.365860125,
            "value": 0.09448818897637795
          },
          {
            "number": 7,
            "ticks": 20397,
            "time": 108.37117321875,
            "value": 0.09448818897637795
          },
          {
            "number": 7,
            "ticks": 20398,
            "time": 108.37648631249999,
            "value": 0.10236220472440945
          },
          {
            "number": 7,
            "ticks": 20399,
            "time": 108.38179940625,
            "value": 0.10236220472440945
          },
          {
            "number": 7,
            "ticks": 20400,
            "time": 108.3871125,
            "value": 0.10236220472440945
          },
          {
            "number": 7,
            "ticks": 20401,
            "time": 108.39242559374999,
            "value": 0.10236220472440945
          },
          {
            "number": 7,
            "ticks": 20402,
            "time": 108.3977386875,
            "value": 0.10236220472440945
          },
          {
            "number": 7,
            "ticks": 20403,
            "time": 108.40305178125,
            "value": 0.10236220472440945
          },
          {
            "number": 7,
            "ticks": 20404,
            "time": 108.40836487499999,
            "value": 0.11023622047244094
          },
          {
            "number": 7,
            "ticks": 20405,
            "time": 108.41367796875001,
            "value": 0.11023622047244094
          },
          {
            "number": 7,
            "ticks": 20406,
            "time": 108.4189910625,
            "value": 0.11023622047244094
          },
          {
            "number": 7,
            "ticks": 20407,
            "time": 108.42430415624999,
            "value": 0.11023622047244094
          },
          {
            "number": 7,
            "ticks": 20408,
            "time": 108.42961725,
            "value": 0.11023622047244094
          },
          {
            "number": 7,
            "ticks": 20409,
            "time": 108.43493034375,
            "value": 0.11023622047244094
          },
          {
            "number": 7,
            "ticks": 20410,
            "time": 108.44024343749999,
            "value": 0.11811023622047244
          },
          {
            "number": 7,
            "ticks": 20411,
            "time": 108.44555653125,
            "value": 0.11811023622047244
          },
          {
            "number": 7,
            "ticks": 20412,
            "time": 108.450869625,
            "value": 0.11811023622047244
          },
          {
            "number": 7,
            "ticks": 20413,
            "time": 108.45618271874999,
            "value": 0.11811023622047244
          },
          {
            "number": 7,
            "ticks": 20414,
            "time": 108.4614958125,
            "value": 0.11811023622047244
          },
          {
            "number": 7,
            "ticks": 20415,
            "time": 108.46680890625,
            "value": 0.11811023622047244
          },
          {
            "number": 7,
            "ticks": 20416,
            "time": 108.47212199999998,
            "value": 0.12598425196850394
          },
          {
            "number": 7,
            "ticks": 20417,
            "time": 108.47743509375,
            "value": 0.12598425196850394
          },
          {
            "number": 7,
            "ticks": 20418,
            "time": 108.4827481875,
            "value": 0.12598425196850394
          },
          {
            "number": 7,
            "ticks": 20419,
            "time": 108.48806128125,
            "value": 0.12598425196850394
          },
          {
            "number": 7,
            "ticks": 20420,
            "time": 108.493374375,
            "value": 0.12598425196850394
          },
          {
            "number": 7,
            "ticks": 20421,
            "time": 108.49868746874999,
            "value": 0.13385826771653545
          },
          {
            "number": 7,
            "ticks": 20422,
            "time": 108.5040005625,
            "value": 0.13385826771653545
          },
          {
            "number": 7,
            "ticks": 20423,
            "time": 108.50931365625,
            "value": 0.13385826771653545
          },
          {
            "number": 7,
            "ticks": 20424,
            "time": 108.51462674999999,
            "value": 0.13385826771653545
          },
          {
            "number": 7,
            "ticks": 20425,
            "time": 108.51993984375,
            "value": 0.14173228346456693
          },
          {
            "number": 7,
            "ticks": 20426,
            "time": 108.5252529375,
            "value": 0.14173228346456693
          },
          {
            "number": 7,
            "ticks": 20427,
            "time": 108.53056603124999,
            "value": 0.14173228346456693
          },
          {
            "number": 7,
            "ticks": 20428,
            "time": 108.535879125,
            "value": 0.14960629921259844
          },
          {
            "number": 7,
            "ticks": 20429,
            "time": 108.54119221875,
            "value": 0.14960629921259844
          },
          {
            "number": 7,
            "ticks": 20430,
            "time": 108.5465053125,
            "value": 0.14960629921259844
          },
          {
            "number": 7,
            "ticks": 20431,
            "time": 108.55181840624999,
            "value": 0.14960629921259844
          },
          {
            "number": 7,
            "ticks": 20432,
            "time": 108.5571315,
            "value": 0.15748031496062992
          },
          {
            "number": 7,
            "ticks": 20433,
            "time": 108.56244459375,
            "value": 0.15748031496062992
          },
          {
            "number": 7,
            "ticks": 20434,
            "time": 108.56775768749999,
            "value": 0.15748031496062992
          },
          {
            "number": 7,
            "ticks": 20435,
            "time": 108.57307078125,
            "value": 0.15748031496062992
          },
          {
            "number": 7,
            "ticks": 20436,
            "time": 108.578383875,
            "value": 0.16535433070866143
          },
          {
            "number": 7,
            "ticks": 21120,
            "time": 112.21253999999999,
            "value": 0.16535433070866143
          },
          {
            "number": 7,
            "ticks": 21120,
            "time": 112.21253999999999,
            "value": 0.16535433070866143
          },
          {
            "number": 7,
            "ticks": 21120,
            "time": 112.21253999999999,
            "value": 0.16535433070866143
          }
        ],
        "10": [
          {
            "number": 10,
            "ticks": 0,
            "time": 0,
            "value": 0.5039370078740157
          },
          {
            "number": 10,
            "ticks": 0,
            "time": 0,
            "value": 0.5039370078740157
          },
          {
            "number": 10,
            "ticks": 0,
            "time": 0,
            "value": 0.5039370078740157
          },
          {
            "number": 10,
            "ticks": 21120,
            "time": 112.21253999999999,
            "value": 0.5039370078740157
          },
          {
            "number": 10,
            "ticks": 21120,
            "time": 112.21253999999999,
            "value": 0.5039370078740157
          },
          {
            "number": 10,
            "ticks": 21120,
            "time": 112.21253999999999,
            "value": 0.5039370078740157
          }
        ],
        "100": [
          {
            "number": 100,
            "ticks": 0,
            "time": 0,
            "value": 0
          },
          {
            "number": 100,
            "ticks": 21120,
            "time": 112.21253999999999,
            "value": 0
          },
          {
            "number": 100,
            "ticks": 21120,
            "time": 112.21253999999999,
            "value": 0
          },
          {
            "number": 100,
            "ticks": 21120,
            "time": 112.21253999999999,
            "value": 0
          }
        ],
        "101": [
          {
            "number": 101,
            "ticks": 0,
            "time": 0,
            "value": 0
          },
          {
            "number": 101,
            "ticks": 21120,
            "time": 112.21253999999999,
            "value": 0
          },
          {
            "number": 101,
            "ticks": 21120,
            "time": 112.21253999999999,
            "value": 0
          },
          {
            "number": 101,
            "ticks": 21120,
            "time": 112.21253999999999,
            "value": 0
          }
        ]
      },
      "pitchBends": [
        {
          "ticks": 0,
          "time": 0,
          "value": 0
        },
        {
          "ticks": 0,
          "time": 0,
          "value": 0
        },
        {
          "ticks": 0,
          "time": 0,
          "value": 0
        },
        {
          "ticks": 18345,
          "time": 97.46870484374999,
          "value": 0.0091552734375
        },
        {
          "ticks": 19227,
          "time": 102.15485353125,
          "value": 0.00830078125
        },
        {
          "ticks": 20109,
          "time": 106.84100221874999,
          "value": 0.0074462890625
        },
        {
          "ticks": 20110,
          "time": 106.8463153125,
          "value": -0.0625
        },
        {
          "ticks": 20111,
          "time": 106.85162840625,
          "value": -0.0699462890625
        },
        {
          "ticks": 20112,
          "time": 106.85694149999999,
          "value": -0.07666015625
        },
        {
          "ticks": 20113,
          "time": 106.86225459375,
          "value": -0.0841064453125
        },
        {
          "ticks": 20114,
          "time": 106.8675676875,
          "value": -0.091552734375
        },
        {
          "ticks": 20115,
          "time": 106.87288078124999,
          "value": -0.0982666015625
        },
        {
          "ticks": 20116,
          "time": 106.878193875,
          "value": -0.105712890625
        },
        {
          "ticks": 20117,
          "time": 106.88350696875,
          "value": -0.11328125
        },
        {
          "ticks": 20118,
          "time": 106.8888200625,
          "value": -0.1199951171875
        },
        {
          "ticks": 20119,
          "time": 106.89413315624999,
          "value": -0.12744140625
        },
        {
          "ticks": 20120,
          "time": 106.89944625,
          "value": -0.1348876953125
        },
        {
          "ticks": 20121,
          "time": 106.90475934375,
          "value": -0.1416015625
        },
        {
          "ticks": 20122,
          "time": 106.91007243749999,
          "value": -0.1490478515625
        },
        {
          "ticks": 20123,
          "time": 106.91538553125,
          "value": -0.15576171875
        },
        {
          "ticks": 20124,
          "time": 106.920698625,
          "value": -0.163330078125
        },
        {
          "ticks": 20125,
          "time": 106.92601171874999,
          "value": -0.1707763671875
        },
        {
          "ticks": 20126,
          "time": 106.9313248125,
          "value": -0.177490234375
        },
        {
          "ticks": 20127,
          "time": 106.93663790625,
          "value": -0.1849365234375
        },
        {
          "ticks": 20128,
          "time": 106.94195099999999,
          "value": -0.1923828125
        },
        {
          "ticks": 20129,
          "time": 106.94726409375001,
          "value": -0.1990966796875
        },
        {
          "ticks": 20130,
          "time": 106.9525771875,
          "value": -0.2066650390625
        },
        {
          "ticks": 20131,
          "time": 106.95789028124999,
          "value": -0.2132568359375
        },
        {
          "ticks": 20132,
          "time": 106.963203375,
          "value": -0.2208251953125
        },
        {
          "ticks": 20133,
          "time": 106.96851646875,
          "value": -0.228271484375
        },
        {
          "ticks": 20134,
          "time": 106.97382956249999,
          "value": -0.2349853515625
        },
        {
          "ticks": 20135,
          "time": 106.97914265625,
          "value": -0.242431640625
        },
        {
          "ticks": 20136,
          "time": 106.98445575,
          "value": -0.25
        },
        {
          "ticks": 20137,
          "time": 106.98976884374999,
          "value": -0.256591796875
        },
        {
          "ticks": 20138,
          "time": 106.9950819375,
          "value": -0.26416015625
        },
        {
          "ticks": 20139,
          "time": 107.00039503125,
          "value": -0.2716064453125
        },
        {
          "ticks": 20140,
          "time": 107.005708125,
          "value": -0.2783203125
        },
        {
          "ticks": 20141,
          "time": 107.01102121875,
          "value": -0.2857666015625
        },
        {
          "ticks": 20142,
          "time": 107.01633431249999,
          "value": -0.29248046875
        },
        {
          "ticks": 20143,
          "time": 107.02164740625,
          "value": -0.2999267578125
        },
        {
          "ticks": 20144,
          "time": 107.0269605,
          "value": -0.3074951171875
        },
        {
          "ticks": 20145,
          "time": 107.03227359374999,
          "value": -0.3140869140625
        },
        {
          "ticks": 20146,
          "time": 107.0375866875,
          "value": -0.3216552734375
        },
        {
          "ticks": 20147,
          "time": 107.04289978125,
          "value": -0.3291015625
        },
        {
          "ticks": 20148,
          "time": 107.04821287499999,
          "value": -0.3358154296875
        },
        {
          "ticks": 20149,
          "time": 107.05352596875,
          "value": -0.34326171875
        },
        {
          "ticks": 20150,
          "time": 107.0588390625,
          "value": -0.350830078125
        },
        {
          "ticks": 20151,
          "time": 107.06415215625,
          "value": -0.357421875
        },
        {
          "ticks": 20152,
          "time": 107.06946525,
          "value": -0.364990234375
        },
        {
          "ticks": 20153,
          "time": 107.07477834375,
          "value": -0.37158203125
        },
        {
          "ticks": 20154,
          "time": 107.0800914375,
          "value": -0.379150390625
        },
        {
          "ticks": 20155,
          "time": 107.08540453124999,
          "value": -0.3865966796875
        },
        {
          "ticks": 20156,
          "time": 107.090717625,
          "value": -0.393310546875
        },
        {
          "ticks": 20157,
          "time": 107.09603071875,
          "value": -0.4007568359375
        },
        {
          "ticks": 20158,
          "time": 107.10134381249999,
          "value": -0.4083251953125
        },
        {
          "ticks": 20159,
          "time": 107.10665690625,
          "value": -0.4149169921875
        },
        {
          "ticks": 20160,
          "time": 107.11197,
          "value": -0.4224853515625
        },
        {
          "ticks": 20161,
          "time": 107.11728309374999,
          "value": -0.4290771484375
        },
        {
          "ticks": 20162,
          "time": 107.12259618750001,
          "value": -0.4366455078125
        },
        {
          "ticks": 20163,
          "time": 107.12790928125,
          "value": -0.444091796875
        },
        {
          "ticks": 20164,
          "time": 107.13322237499999,
          "value": -0.4508056640625
        },
        {
          "ticks": 20165,
          "time": 107.13853546875,
          "value": -0.458251953125
        },
        {
          "ticks": 20166,
          "time": 107.1438485625,
          "value": -0.4658203125
        },
        {
          "ticks": 20167,
          "time": 107.14916165624999,
          "value": -0.472412109375
        },
        {
          "ticks": 20168,
          "time": 107.15447475,
          "value": -0.47998046875
        },
        {
          "ticks": 20169,
          "time": 107.15978784375,
          "value": -0.4874267578125
        },
        {
          "ticks": 20170,
          "time": 107.16510093749999,
          "value": -0.494140625
        },
        {
          "ticks": 20171,
          "time": 107.17041403125,
          "value": -0.5015869140625
        },
        {
          "ticks": 20172,
          "time": 107.175727125,
          "value": -0.50830078125
        },
        {
          "ticks": 20173,
          "time": 107.18104021874998,
          "value": -0.5157470703125
        },
        {
          "ticks": 20174,
          "time": 107.1863533125,
          "value": -0.5233154296875
        },
        {
          "ticks": 20175,
          "time": 107.19166640625,
          "value": -0.5299072265625
        },
        {
          "ticks": 20176,
          "time": 107.1969795,
          "value": -0.5374755859375
        },
        {
          "ticks": 20177,
          "time": 107.20229259375,
          "value": -0.544921875
        },
        {
          "ticks": 20178,
          "time": 107.20760568749999,
          "value": -0.5516357421875
        },
        {
          "ticks": 20179,
          "time": 107.21291878125,
          "value": -0.55908203125
        },
        {
          "ticks": 20180,
          "time": 107.218231875,
          "value": -0.5657958984375
        },
        {
          "ticks": 20181,
          "time": 107.22354496874999,
          "value": -0.5732421875
        },
        {
          "ticks": 20182,
          "time": 107.2288580625,
          "value": -0.580810546875
        },
        {
          "ticks": 20183,
          "time": 107.23417115625,
          "value": -0.58740234375
        },
        {
          "ticks": 20184,
          "time": 107.23948424999999,
          "value": -0.594970703125
        },
        {
          "ticks": 20185,
          "time": 107.24479734375,
          "value": -0.6024169921875
        },
        {
          "ticks": 20186,
          "time": 107.2501104375,
          "value": -0.609130859375
        },
        {
          "ticks": 20187,
          "time": 107.25542353125,
          "value": -0.6165771484375
        },
        {
          "ticks": 20188,
          "time": 107.26073662499999,
          "value": -0.6241455078125
        },
        {
          "ticks": 20189,
          "time": 107.26604971875,
          "value": -0.6307373046875
        },
        {
          "ticks": 20190,
          "time": 107.2713628125,
          "value": -0.6383056640625
        },
        {
          "ticks": 20191,
          "time": 107.27667590624999,
          "value": -0.6448974609375
        },
        {
          "ticks": 20192,
          "time": 107.281989,
          "value": -0.6524658203125
        },
        {
          "ticks": 20193,
          "time": 107.28730209375,
          "value": -0.659912109375
        },
        {
          "ticks": 20194,
          "time": 107.29261518749999,
          "value": -0.6666259765625
        },
        {
          "ticks": 20195,
          "time": 107.29792828125,
          "value": -0.674072265625
        },
        {
          "ticks": 20196,
          "time": 107.303241375,
          "value": -0.681640625
        },
        {
          "ticks": 20197,
          "time": 107.30855446874999,
          "value": -0.688232421875
        },
        {
          "ticks": 20198,
          "time": 107.31386756250001,
          "value": -0.69580078125
        },
        {
          "ticks": 20199,
          "time": 107.31918065625,
          "value": -0.7032470703125
        },
        {
          "ticks": 20200,
          "time": 107.32449374999999,
          "value": -0.7099609375
        },
        {
          "ticks": 20201,
          "time": 107.32980684375,
          "value": -0.7174072265625
        },
        {
          "ticks": 20202,
          "time": 107.3351199375,
          "value": -0.72412109375
        },
        {
          "ticks": 20203,
          "time": 107.34043303124999,
          "value": -0.7315673828125
        },
        {
          "ticks": 20204,
          "time": 107.345746125,
          "value": -0.7391357421875
        },
        {
          "ticks": 20205,
          "time": 107.35105921875,
          "value": -0.7457275390625
        },
        {
          "ticks": 20206,
          "time": 107.35637231249999,
          "value": -0.7532958984375
        },
        {
          "ticks": 20207,
          "time": 107.36168540625,
          "value": -0.7607421875
        },
        {
          "ticks": 20208,
          "time": 107.3669985,
          "value": -0.7674560546875
        },
        {
          "ticks": 20209,
          "time": 107.37231159375,
          "value": -0.77490234375
        },
        {
          "ticks": 20210,
          "time": 107.3776246875,
          "value": -0.7816162109375
        },
        {
          "ticks": 20211,
          "time": 107.38293778124999,
          "value": -0.7890625
        },
        {
          "ticks": 20212,
          "time": 107.388250875,
          "value": -0.796630859375
        },
        {
          "ticks": 20213,
          "time": 107.39356396875,
          "value": -0.80322265625
        },
        {
          "ticks": 20214,
          "time": 107.39887706249999,
          "value": -0.810791015625
        },
        {
          "ticks": 20215,
          "time": 107.40419015625,
          "value": -0.8182373046875
        },
        {
          "ticks": 20216,
          "time": 107.40950325,
          "value": -0.824951171875
        },
        {
          "ticks": 20217,
          "time": 107.41481634374999,
          "value": -0.8323974609375
        },
        {
          "ticks": 20218,
          "time": 107.4201294375,
          "value": -0.8399658203125
        },
        {
          "ticks": 20219,
          "time": 107.42544253125,
          "value": -0.8465576171875
        },
        {
          "ticks": 20220,
          "time": 107.430755625,
          "value": -0.8541259765625
        },
        {
          "ticks": 20221,
          "time": 107.43606871875,
          "value": -0.8607177734375
        },
        {
          "ticks": 20222,
          "time": 107.4413818125,
          "value": -0.8682861328125
        },
        {
          "ticks": 20223,
          "time": 107.44669490625,
          "value": -0.875732421875
        },
        {
          "ticks": 20224,
          "time": 107.45200799999999,
          "value": -0.8824462890625
        },
        {
          "ticks": 20225,
          "time": 107.45732109375,
          "value": -0.889892578125
        },
        {
          "ticks": 20226,
          "time": 107.4626341875,
          "value": -0.8974609375
        },
        {
          "ticks": 20227,
          "time": 107.46794728124999,
          "value": -0.904052734375
        },
        {
          "ticks": 20228,
          "time": 107.473260375,
          "value": -0.91162109375
        },
        {
          "ticks": 20229,
          "time": 107.47857346875,
          "value": -0.918212890625
        },
        {
          "ticks": 20230,
          "time": 107.48388656249999,
          "value": -0.92578125
        },
        {
          "ticks": 20231,
          "time": 107.48919965625001,
          "value": -0.9332275390625
        },
        {
          "ticks": 20232,
          "time": 107.49451275,
          "value": -0.93994140625
        },
        {
          "ticks": 20233,
          "time": 107.49982584374999,
          "value": -0.9473876953125
        },
        {
          "ticks": 20234,
          "time": 107.5051389375,
          "value": -0.9549560546875
        },
        {
          "ticks": 20235,
          "time": 107.51045203125,
          "value": -0.9615478515625
        },
        {
          "ticks": 20236,
          "time": 107.51576512499999,
          "value": -0.9691162109375
        },
        {
          "ticks": 20237,
          "time": 107.52107821875,
          "value": -0.9765625
        },
        {
          "ticks": 20238,
          "time": 107.5263913125,
          "value": -0.9832763671875
        },
        {
          "ticks": 20239,
          "time": 107.53170440624999,
          "value": -0.99072265625
        },
        {
          "ticks": 20240,
          "time": 107.5370175,
          "value": -0.9974365234375
        },
        {
          "ticks": 20241,
          "time": 107.54233059375,
          "value": -1
        },
        {
          "ticks": 20242,
          "time": 107.54764368749998,
          "value": -1
        },
        {
          "ticks": 20243,
          "time": 107.55295678125,
          "value": -1
        },
        {
          "ticks": 20244,
          "time": 107.558269875,
          "value": -1
        },
        {
          "ticks": 20245,
          "time": 107.56358296875,
          "value": -1
        },
        {
          "ticks": 20246,
          "time": 107.5688960625,
          "value": -1
        },
        {
          "ticks": 20247,
          "time": 107.57420915624999,
          "value": -1
        },
        {
          "ticks": 20248,
          "time": 107.57952225,
          "value": -1
        },
        {
          "ticks": 20249,
          "time": 107.58483534375,
          "value": -1
        },
        {
          "ticks": 20250,
          "time": 107.59014843749999,
          "value": -1
        },
        {
          "ticks": 20251,
          "time": 107.59546153125,
          "value": -1
        },
        {
          "ticks": 20252,
          "time": 107.600774625,
          "value": -1
        },
        {
          "ticks": 20253,
          "time": 107.60608771874999,
          "value": -1
        },
        {
          "ticks": 20254,
          "time": 107.6114008125,
          "value": -1
        },
        {
          "ticks": 20255,
          "time": 107.61671390625,
          "value": -1
        },
        {
          "ticks": 20256,
          "time": 107.622027,
          "value": -1
        },
        {
          "ticks": 20257,
          "time": 107.62734009374999,
          "value": -1
        },
        {
          "ticks": 20258,
          "time": 107.6326531875,
          "value": -1
        },
        {
          "ticks": 20259,
          "time": 107.63796628125,
          "value": -1
        },
        {
          "ticks": 20260,
          "time": 107.64327937499999,
          "value": -1
        },
        {
          "ticks": 20261,
          "time": 107.64859246875,
          "value": -1
        },
        {
          "ticks": 20262,
          "time": 107.6539055625,
          "value": -1
        },
        {
          "ticks": 20263,
          "time": 107.65921865624999,
          "value": -1
        },
        {
          "ticks": 20264,
          "time": 107.66453175,
          "value": -1
        },
        {
          "ticks": 20265,
          "time": 107.66984484375,
          "value": -1
        },
        {
          "ticks": 20266,
          "time": 107.67515793749999,
          "value": -1
        },
        {
          "ticks": 20267,
          "time": 107.68047103125001,
          "value": -1
        },
        {
          "ticks": 20268,
          "time": 107.685784125,
          "value": -1
        },
        {
          "ticks": 20269,
          "time": 107.69109721874999,
          "value": -1
        },
        {
          "ticks": 20270,
          "time": 107.6964103125,
          "value": -1
        },
        {
          "ticks": 20271,
          "time": 107.70172340625,
          "value": -1
        },
        {
          "ticks": 20272,
          "time": 107.70703649999999,
          "value": -1
        },
        {
          "ticks": 20273,
          "time": 107.71234959375,
          "value": -1
        },
        {
          "ticks": 20274,
          "time": 107.7176626875,
          "value": -1
        },
        {
          "ticks": 20275,
          "time": 107.72297578124999,
          "value": -1
        },
        {
          "ticks": 20276,
          "time": 107.728288875,
          "value": -1
        },
        {
          "ticks": 20277,
          "time": 107.73360196875,
          "value": -1
        },
        {
          "ticks": 20278,
          "time": 107.7389150625,
          "value": -1
        },
        {
          "ticks": 20279,
          "time": 107.74422815625,
          "value": -1
        },
        {
          "ticks": 20280,
          "time": 107.74954125,
          "value": -1
        },
        {
          "ticks": 20281,
          "time": 107.75485434375,
          "value": -1
        },
        {
          "ticks": 20282,
          "time": 107.7601674375,
          "value": -1
        },
        {
          "ticks": 20283,
          "time": 107.76548053124999,
          "value": -1
        },
        {
          "ticks": 20284,
          "time": 107.770793625,
          "value": -1
        },
        {
          "ticks": 20285,
          "time": 107.77610671875,
          "value": -1
        },
        {
          "ticks": 20286,
          "time": 107.78141981249999,
          "value": -1
        },
        {
          "ticks": 20287,
          "time": 107.78673290625,
          "value": -1
        },
        {
          "ticks": 20288,
          "time": 107.792046,
          "value": -1
        },
        {
          "ticks": 20289,
          "time": 107.79735909374999,
          "value": -1
        },
        {
          "ticks": 20290,
          "time": 107.8026721875,
          "value": -1
        },
        {
          "ticks": 20291,
          "time": 107.80798528125,
          "value": -1
        },
        {
          "ticks": 20292,
          "time": 107.813298375,
          "value": -1
        },
        {
          "ticks": 20293,
          "time": 107.81861146874999,
          "value": -1
        },
        {
          "ticks": 20294,
          "time": 107.8239245625,
          "value": -1
        },
        {
          "ticks": 20295,
          "time": 107.82923765625,
          "value": -1
        },
        {
          "ticks": 20296,
          "time": 107.83455074999999,
          "value": -1
        },
        {
          "ticks": 20297,
          "time": 107.83986384375,
          "value": -1
        },
        {
          "ticks": 20298,
          "time": 107.8451769375,
          "value": -1
        },
        {
          "ticks": 20299,
          "time": 107.85049003124999,
          "value": -1
        },
        {
          "ticks": 20300,
          "time": 107.855803125,
          "value": -1
        },
        {
          "ticks": 20301,
          "time": 107.86111621875,
          "value": -1
        },
        {
          "ticks": 20302,
          "time": 107.86642931249999,
          "value": -1
        },
        {
          "ticks": 20303,
          "time": 107.87174240625001,
          "value": -1
        },
        {
          "ticks": 20304,
          "time": 107.8770555,
          "value": -1
        },
        {
          "ticks": 20305,
          "time": 107.88236859374999,
          "value": -1
        },
        {
          "ticks": 20306,
          "time": 107.8876816875,
          "value": -1
        },
        {
          "ticks": 20307,
          "time": 107.89299478125,
          "value": -1
        },
        {
          "ticks": 20308,
          "time": 107.89830787499999,
          "value": -1
        },
        {
          "ticks": 20309,
          "time": 107.90362096875,
          "value": -1
        },
        {
          "ticks": 20310,
          "time": 107.9089340625,
          "value": -1
        },
        {
          "ticks": 20311,
          "time": 107.91424715624998,
          "value": -1
        },
        {
          "ticks": 20312,
          "time": 107.91956025,
          "value": -1
        },
        {
          "ticks": 20313,
          "time": 107.92487334375,
          "value": -1
        },
        {
          "ticks": 20314,
          "time": 107.9301864375,
          "value": -1
        },
        {
          "ticks": 20315,
          "time": 107.93549953125,
          "value": -1
        },
        {
          "ticks": 20316,
          "time": 107.94081262499999,
          "value": -1
        },
        {
          "ticks": 20317,
          "time": 107.94612571875,
          "value": -1
        },
        {
          "ticks": 20318,
          "time": 107.9514388125,
          "value": -1
        },
        {
          "ticks": 20319,
          "time": 107.95675190624999,
          "value": -1
        },
        {
          "ticks": 20320,
          "time": 107.962065,
          "value": -1
        },
        {
          "ticks": 20321,
          "time": 107.96737809375,
          "value": -1
        },
        {
          "ticks": 20322,
          "time": 107.97269118749999,
          "value": -1
        },
        {
          "ticks": 20323,
          "time": 107.97800428125,
          "value": -1
        },
        {
          "ticks": 20324,
          "time": 107.983317375,
          "value": -1
        },
        {
          "ticks": 20325,
          "time": 107.98863046875,
          "value": -1
        },
        {
          "ticks": 20326,
          "time": 107.9939435625,
          "value": 0
        },
        {
          "ticks": 20756,
          "time": 110.278573875,
          "value": -0.000732421875
        },
        {
          "ticks": 21120,
          "time": 112.21253999999999,
          "value": -0.000732421875
        },
        {
          "ticks": 21120,
          "time": 112.21253999999999,
          "value": -0.000732421875
        },
        {
          "ticks": 21120,
          "time": 112.21253999999999,
          "value": -0.000732421875
        }
      ],
      "instrument": {
        "family": "guitar",
        "number": 30,
        "name": "distortion guitar"
      },
      "name": "",
      "notes": [
        {
          "duration": 1.5407971875000044,
          "durationTicks": 290,
          "midi": 53,
          "name": "F3",
          "ticks": 17088,
          "time": 90.790146,
          "velocity": 0.7559055118110236
        },
        {
          "duration": 0.5206831874999978,
          "durationTicks": 98,
          "midi": 60,
          "name": "C4",
          "ticks": 17376,
          "time": 92.320317,
          "velocity": 0.7559055118110236
        },
        {
          "duration": 1.0307401875000153,
          "durationTicks": 194,
          "midi": 59,
          "name": "B3",
          "ticks": 17472,
          "time": 92.83037399999999,
          "velocity": 0.7559055118110236
        },
        {
          "duration": 1.030740187500001,
          "durationTicks": 194,
          "midi": 57,
          "name": "A3",
          "ticks": 17664,
          "time": 93.850488,
          "velocity": 0.7559055118110236
        },
        {
          "duration": 3.9635679375000166,
          "durationTicks": 746,
          "midi": 60,
          "name": "C4",
          "ticks": 17856,
          "time": 94.87060199999999,
          "velocity": 0.7559055118110236
        },
        {
          "duration": 1.5407971875000044,
          "durationTicks": 290,
          "midi": 53,
          "name": "F3",
          "ticks": 18624,
          "time": 98.951058,
          "velocity": 0.7559055118110236
        },
        {
          "duration": 0.5206831874999978,
          "durationTicks": 98,
          "midi": 60,
          "name": "C4",
          "ticks": 18912,
          "time": 100.481229,
          "velocity": 0.7559055118110236
        },
        {
          "duration": 1.030740187500001,
          "durationTicks": 194,
          "midi": 59,
          "name": "B3",
          "ticks": 19008,
          "time": 100.991286,
          "velocity": 0.7559055118110236
        },
        {
          "duration": 1.030740187500001,
          "durationTicks": 194,
          "midi": 57,
          "name": "A3",
          "ticks": 19200,
          "time": 102.0114,
          "velocity": 0.7559055118110236
        },
        {
          "duration": 3.9635679375000024,
          "durationTicks": 746,
          "midi": 60,
          "name": "C4",
          "ticks": 19392,
          "time": 103.031514,
          "velocity": 0.7559055118110236
        }
      ]
    },
    {
      "channel": 0,
      "controlChanges": {
        "6": [
          {
            "number": 6,
            "ticks": 0,
            "time": 0,
            "value": 0.09448818897637795
          }
        ],
        "7": [
          {
            "number": 7,
            "ticks": 0,
            "time": 0,
            "value": 0.44881889763779526
          },
          {
            "number": 7,
            "ticks": 0,
            "time": 0,
            "value": 0.44881889763779526
          }
        ],
        "10": [
          {
            "number": 10,
            "ticks": 0,
            "time": 0,
            "value": 0.5039370078740157
          },
          {
            "number": 10,
            "ticks": 0,
            "time": 0,
            "value": 0.5039370078740157
          }
        ],
        "100": [
          {
            "number": 100,
            "ticks": 0,
            "time": 0,
            "value": 0
          }
        ],
        "101": [
          {
            "number": 101,
            "ticks": 0,
            "time": 0,
            "value": 0
          }
        ]
      },
      "pitchBends": [
        {
          "ticks": 0,
          "time": 0,
          "value": 0.0399169921875
        },
        {
          "ticks": 0,
          "time": 0,
          "value": 0.0399169921875
        }
      ],
      "instrument": {
        "family": "piano",
        "number": 0,
        "name": "acoustic grand piano"
      },
      "name": "overdive",
      "notes": [],
      "endOfTrackTicks": 21120
    },
    {
      "channel": 14,
      "controlChanges": {
        "1": [
          {
            "number": 1,
            "ticks": 0,
            "time": 0,
            "value": 0
          },
          {
            "number": 1,
            "ticks": 0,
            "time": 0,
            "value": 0
          },
          {
            "number": 1,
            "ticks": 21120,
            "time": 112.21253999999999,
            "value": 0
          },
          {
            "number": 1,
            "ticks": 21120,
            "time": 112.21253999999999,
            "value": 0
          },
          {
            "number": 1,
            "ticks": 21120,
            "time": 112.21253999999999,
            "value": 0
          }
        ],
        "6": [
          {
            "number": 6,
            "ticks": 0,
            "time": 0,
            "value": 0.09448818897637795
          },
          {
            "number": 6,
            "ticks": 21120,
            "time": 112.21253999999999,
            "value": 0.09448818897637795
          },
          {
            "number": 6,
            "ticks": 21120,
            "time": 112.21253999999999,
            "value": 0.09448818897637795
          },
          {
            "number": 6,
            "ticks": 21120,
            "time": 112.21253999999999,
            "value": 0.09448818897637795
          }
        ],
        "7": [
          {
            "number": 7,
            "ticks": 0,
            "time": 0,
            "value": 0.07874015748031496
          },
          {
            "number": 7,
            "ticks": 0,
            "time": 0,
            "value": 0.07874015748031496
          },
          {
            "number": 7,
            "ticks": 0,
            "time": 0,
            "value": 0.07874015748031496
          },
          {
            "number": 7,
            "ticks": 1,
            "time": 0.005313093749999999,
            "value": 0.07874015748031496
          },
          {
            "number": 7,
            "ticks": 2,
            "time": 0.010626187499999998,
            "value": 0.07874015748031496
          },
          {
            "number": 7,
            "ticks": 3,
            "time": 0.01593928125,
            "value": 0.07874015748031496
          },
          {
            "number": 7,
            "ticks": 4,
            "time": 0.021252374999999997,
            "value": 0.08661417322834646
          },
          {
            "number": 7,
            "ticks": 5,
            "time": 0.02656546875,
            "value": 0.08661417322834646
          },
          {
            "number": 7,
            "ticks": 6,
            "time": 0.0318785625,
            "value": 0.08661417322834646
          },
          {
            "number": 7,
            "ticks": 7,
            "time": 0.03719165625,
            "value": 0.08661417322834646
          },
          {
            "number": 7,
            "ticks": 8,
            "time": 0.042504749999999994,
            "value": 0.08661417322834646
          },
          {
            "number": 7,
            "ticks": 9,
            "time": 0.04781784375,
            "value": 0.08661417322834646
          },
          {
            "number": 7,
            "ticks": 10,
            "time": 0.0531309375,
            "value": 0.08661417322834646
          },
          {
            "number": 7,
            "ticks": 11,
            "time": 0.05844403124999999,
            "value": 0.09448818897637795
          },
          {
            "number": 7,
            "ticks": 12,
            "time": 0.063757125,
            "value": 0.09448818897637795
          },
          {
            "number": 7,
            "ticks": 13,
            "time": 0.06907021875,
            "value": 0.09448818897637795
          },
          {
            "number": 7,
            "ticks": 14,
            "time": 0.0743833125,
            "value": 0.09448818897637795
          },
          {
            "number": 7,
            "ticks": 15,
            "time": 0.07969640624999999,
            "value": 0.09448818897637795
          },
          {
            "number": 7,
            "ticks": 16,
            "time": 0.08500949999999999,
            "value": 0.09448818897637795
          },
          {
            "number": 7,
            "ticks": 17,
            "time": 0.09032259375,
            "value": 0.09448818897637795
          },
          {
            "number": 7,
            "ticks": 18,
            "time": 0.0956356875,
            "value": 0.10236220472440945
          },
          {
            "number": 7,
            "ticks": 19,
            "time": 0.10094878125,
            "value": 0.10236220472440945
          },
          {
            "number": 7,
            "ticks": 20,
            "time": 0.106261875,
            "value": 0.10236220472440945
          },
          {
            "number": 7,
            "ticks": 21,
            "time": 0.11157496875,
            "value": 0.10236220472440945
          },
          {
            "number": 7,
            "ticks": 22,
            "time": 0.11688806249999999,
            "value": 0.10236220472440945
          },
          {
            "number": 7,
            "ticks": 23,
            "time": 0.12220115625,
            "value": 0.10236220472440945
          },
          {
            "number": 7,
            "ticks": 24,
            "time": 0.12751425,
            "value": 0.10236220472440945
          },
          {
            "number": 7,
            "ticks": 25,
            "time": 0.13282734375,
            "value": 0.10236220472440945
          },
          {
            "number": 7,
            "ticks": 26,
            "time": 0.1381404375,
            "value": 0.11023622047244094
          },
          {
            "number": 7,
            "ticks": 27,
            "time": 0.14345353125,
            "value": 0.11023622047244094
          },
          {
            "number": 7,
            "ticks": 28,
            "time": 0.148766625,
            "value": 0.11023622047244094
          },
          {
            "number": 7,
            "ticks": 29,
            "time": 0.15407971874999998,
            "value": 0.11023622047244094
          },
          {
            "number": 7,
            "ticks": 30,
            "time": 0.15939281249999998,
            "value": 0.11023622047244094
          },
          {
            "number": 7,
            "ticks": 31,
            "time": 0.16470590625,
            "value": 0.11023622047244094
          },
          {
            "number": 7,
            "ticks": 32,
            "time": 0.17001899999999998,
            "value": 0.11023622047244094
          },
          {
            "number": 7,
            "ticks": 33,
            "time": 0.17533209375,
            "value": 0.11811023622047244
          },
          {
            "number": 7,
            "ticks": 34,
            "time": 0.1806451875,
            "value": 0.11811023622047244
          },
          {
            "number": 7,
            "ticks": 35,
            "time": 0.18595828125,
            "value": 0.11811023622047244
          },
          {
            "number": 7,
            "ticks": 36,
            "time": 0.191271375,
            "value": 0.11811023622047244
          },
          {
            "number": 7,
            "ticks": 37,
            "time": 0.19658446875,
            "value": 0.11811023622047244
          },
          {
            "number": 7,
            "ticks": 38,
            "time": 0.2018975625,
            "value": 0.11811023622047244
          },
          {
            "number": 7,
            "ticks": 39,
            "time": 0.20721065624999999,
            "value": 0.11811023622047244
          },
          {
            "number": 7,
            "ticks": 40,
            "time": 0.21252375,
            "value": 0.12598425196850394
          },
          {
            "number": 7,
            "ticks": 41,
            "time": 0.21783684374999998,
            "value": 0.12598425196850394
          },
          {
            "number": 7,
            "ticks": 42,
            "time": 0.2231499375,
            "value": 0.12598425196850394
          },
          {
            "number": 7,
            "ticks": 43,
            "time": 0.22846303125,
            "value": 0.12598425196850394
          },
          {
            "number": 7,
            "ticks": 44,
            "time": 0.23377612499999997,
            "value": 0.12598425196850394
          },
          {
            "number": 7,
            "ticks": 45,
            "time": 0.23908921875,
            "value": 0.12598425196850394
          },
          {
            "number": 7,
            "ticks": 46,
            "time": 0.2444023125,
            "value": 0.12598425196850394
          },
          {
            "number": 7,
            "ticks": 47,
            "time": 0.24971540625,
            "value": 0.13385826771653545
          },
          {
            "number": 7,
            "ticks": 48,
            "time": 0.2550285,
            "value": 0.13385826771653545
          },
          {
            "number": 7,
            "ticks": 49,
            "time": 0.26034159375,
            "value": 0.13385826771653545
          },
          {
            "number": 7,
            "ticks": 50,
            "time": 0.2656546875,
            "value": 0.13385826771653545
          },
          {
            "number": 7,
            "ticks": 51,
            "time": 0.27096778125,
            "value": 0.13385826771653545
          },
          {
            "number": 7,
            "ticks": 52,
            "time": 0.276280875,
            "value": 0.13385826771653545
          },
          {
            "number": 7,
            "ticks": 53,
            "time": 0.28159396875000003,
            "value": 0.13385826771653545
          },
          {
            "number": 7,
            "ticks": 54,
            "time": 0.2869070625,
            "value": 0.13385826771653545
          },
          {
            "number": 7,
            "ticks": 55,
            "time": 0.29222015625,
            "value": 0.14173228346456693
          },
          {
            "number": 7,
            "ticks": 56,
            "time": 0.29753325,
            "value": 0.14173228346456693
          },
          {
            "number": 7,
            "ticks": 57,
            "time": 0.30284634374999997,
            "value": 0.14173228346456693
          },
          {
            "number": 7,
            "ticks": 58,
            "time": 0.30815943749999997,
            "value": 0.14173228346456693
          },
          {
            "number": 7,
            "ticks": 59,
            "time": 0.31347253125,
            "value": 0.14173228346456693
          },
          {
            "number": 7,
            "ticks": 60,
            "time": 0.31878562499999996,
            "value": 0.14173228346456693
          },
          {
            "number": 7,
            "ticks": 61,
            "time": 0.32409871874999996,
            "value": 0.14173228346456693
          },
          {
            "number": 7,
            "ticks": 62,
            "time": 0.3294118125,
            "value": 0.14960629921259844
          },
          {
            "number": 7,
            "ticks": 63,
            "time": 0.33472490625,
            "value": 0.14960629921259844
          },
          {
            "number": 7,
            "ticks": 64,
            "time": 0.34003799999999995,
            "value": 0.14960629921259844
          },
          {
            "number": 7,
            "ticks": 65,
            "time": 0.34535109375,
            "value": 0.14960629921259844
          },
          {
            "number": 7,
            "ticks": 66,
            "time": 0.3506641875,
            "value": 0.14960629921259844
          },
          {
            "number": 7,
            "ticks": 67,
            "time": 0.35597728124999994,
            "value": 0.14960629921259844
          },
          {
            "number": 7,
            "ticks": 68,
            "time": 0.361290375,
            "value": 0.14960629921259844
          },
          {
            "number": 7,
            "ticks": 69,
            "time": 0.36660346875,
            "value": 0.15748031496062992
          },
          {
            "number": 7,
            "ticks": 70,
            "time": 0.3719165625,
            "value": 0.15748031496062992
          },
          {
            "number": 7,
            "ticks": 71,
            "time": 0.37722965625,
            "value": 0.15748031496062992
          },
          {
            "number": 7,
            "ticks": 72,
            "time": 0.38254275,
            "value": 0.15748031496062992
          },
          {
            "number": 7,
            "ticks": 73,
            "time": 0.38785584375,
            "value": 0.15748031496062992
          },
          {
            "number": 7,
            "ticks": 74,
            "time": 0.3931689375,
            "value": 0.15748031496062992
          },
          {
            "number": 7,
            "ticks": 75,
            "time": 0.39848203125,
            "value": 0.15748031496062992
          },
          {
            "number": 7,
            "ticks": 76,
            "time": 0.403795125,
            "value": 0.15748031496062992
          },
          {
            "number": 7,
            "ticks": 77,
            "time": 0.40910821875000003,
            "value": 0.16535433070866143
          },
          {
            "number": 7,
            "ticks": 78,
            "time": 0.41442131249999997,
            "value": 0.16535433070866143
          },
          {
            "number": 7,
            "ticks": 79,
            "time": 0.41973440624999997,
            "value": 0.16535433070866143
          },
          {
            "number": 7,
            "ticks": 80,
            "time": 0.4250475,
            "value": 0.16535433070866143
          },
          {
            "number": 7,
            "ticks": 81,
            "time": 0.43036059374999996,
            "value": 0.16535433070866143
          },
          {
            "number": 7,
            "ticks": 82,
            "time": 0.43567368749999996,
            "value": 0.16535433070866143
          },
          {
            "number": 7,
            "ticks": 83,
            "time": 0.44098678125,
            "value": 0.16535433070866143
          },
          {
            "number": 7,
            "ticks": 84,
            "time": 0.446299875,
            "value": 0.1732283464566929
          },
          {
            "number": 7,
            "ticks": 85,
            "time": 0.45161296874999995,
            "value": 0.1732283464566929
          },
          {
            "number": 7,
            "ticks": 86,
            "time": 0.4569260625,
            "value": 0.1732283464566929
          },
          {
            "number": 7,
            "ticks": 87,
            "time": 0.46223915625,
            "value": 0.1732283464566929
          },
          {
            "number": 7,
            "ticks": 88,
            "time": 0.46755224999999995,
            "value": 0.1732283464566929
          },
          {
            "number": 7,
            "ticks": 89,
            "time": 0.47286534375,
            "value": 0.1732283464566929
          },
          {
            "number": 7,
            "ticks": 90,
            "time": 0.4781784375,
            "value": 0.1732283464566929
          },
          {
            "number": 7,
            "ticks": 91,
            "time": 0.48349153124999994,
            "value": 0.18110236220472442
          },
          {
            "number": 7,
            "ticks": 92,
            "time": 0.488804625,
            "value": 0.18110236220472442
          },
          {
            "number": 7,
            "ticks": 93,
            "time": 0.49411771875,
            "value": 0.18110236220472442
          },
          {
            "number": 7,
            "ticks": 94,
            "time": 0.4994308125,
            "value": 0.18110236220472442
          },
          {
            "number": 7,
            "ticks": 95,
            "time": 0.50474390625,
            "value": 0.18110236220472442
          },
          {
            "number": 7,
            "ticks": 96,
            "time": 0.510057,
            "value": 0.18110236220472442
          },
          {
            "number": 7,
            "ticks": 97,
            "time": 0.51537009375,
            "value": 0.18110236220472442
          },
          {
            "number": 7,
            "ticks": 98,
            "time": 0.5206831875,
            "value": 0.1889763779527559
          },
          {
            "number": 7,
            "ticks": 99,
            "time": 0.52599628125,
            "value": 0.1889763779527559
          },
          {
            "number": 7,
            "ticks": 100,
            "time": 0.531309375,
            "value": 0.1889763779527559
          },
          {
            "number": 7,
            "ticks": 101,
            "time": 0.53662246875,
            "value": 0.1889763779527559
          },
          {
            "number": 7,
            "ticks": 102,
            "time": 0.5419355625,
            "value": 0.1889763779527559
          },
          {
            "number": 7,
            "ticks": 103,
            "time": 0.54724865625,
            "value": 0.1889763779527559
          },
          {
            "number": 7,
            "ticks": 104,
            "time": 0.55256175,
            "value": 0.1889763779527559
          },
          {
            "number": 7,
            "ticks": 105,
            "time": 0.55787484375,
            "value": 0.1889763779527559
          },
          {
            "number": 7,
            "ticks": 106,
            "time": 0.5631879375000001,
            "value": 0.1968503937007874
          },
          {
            "number": 7,
            "ticks": 107,
            "time": 0.56850103125,
            "value": 0.1968503937007874
          },
          {
            "number": 7,
            "ticks": 108,
            "time": 0.573814125,
            "value": 0.1968503937007874
          },
          {
            "number": 7,
            "ticks": 109,
            "time": 0.5791272187500001,
            "value": 0.1968503937007874
          },
          {
            "number": 7,
            "ticks": 110,
            "time": 0.5844403125,
            "value": 0.1968503937007874
          },
          {
            "number": 7,
            "ticks": 111,
            "time": 0.58975340625,
            "value": 0.1968503937007874
          },
          {
            "number": 7,
            "ticks": 112,
            "time": 0.5950665,
            "value": 0.1968503937007874
          },
          {
            "number": 7,
            "ticks": 113,
            "time": 0.6003795937499999,
            "value": 0.2047244094488189
          },
          {
            "number": 7,
            "ticks": 114,
            "time": 0.6056926874999999,
            "value": 0.2047244094488189
          },
          {
            "number": 7,
            "ticks": 115,
            "time": 0.61100578125,
            "value": 0.2047244094488189
          },
          {
            "number": 7,
            "ticks": 116,
            "time": 0.6163188749999999,
            "value": 0.2047244094488189
          },
          {
            "number": 7,
            "ticks": 117,
            "time": 0.6216319687499999,
            "value": 0.2047244094488189
          },
          {
            "number": 7,
            "ticks": 118,
            "time": 0.6269450625,
            "value": 0.2047244094488189
          },
          {
            "number": 7,
            "ticks": 119,
            "time": 0.6322581562499999,
            "value": 0.2047244094488189
          },
          {
            "number": 7,
            "ticks": 120,
            "time": 0.6375712499999999,
            "value": 0.2125984251968504
          },
          {
            "number": 7,
            "ticks": 121,
            "time": 0.64288434375,
            "value": 0.2125984251968504
          },
          {
            "number": 7,
            "ticks": 122,
            "time": 0.6481974374999999,
            "value": 0.2125984251968504
          },
          {
            "number": 7,
            "ticks": 123,
            "time": 0.65351053125,
            "value": 0.2125984251968504
          },
          {
            "number": 7,
            "ticks": 124,
            "time": 0.658823625,
            "value": 0.2125984251968504
          },
          {
            "number": 7,
            "ticks": 125,
            "time": 0.6641367187499999,
            "value": 0.2125984251968504
          },
          {
            "number": 7,
            "ticks": 126,
            "time": 0.6694498125,
            "value": 0.2125984251968504
          },
          {
            "number": 7,
            "ticks": 127,
            "time": 0.67476290625,
            "value": 0.2125984251968504
          },
          {
            "number": 7,
            "ticks": 128,
            "time": 0.6800759999999999,
            "value": 0.2204724409448819
          },
          {
            "number": 7,
            "ticks": 129,
            "time": 0.68538909375,
            "value": 0.2204724409448819
          },
          {
            "number": 7,
            "ticks": 130,
            "time": 0.6907021875,
            "value": 0.2204724409448819
          },
          {
            "number": 7,
            "ticks": 131,
            "time": 0.6960152812499999,
            "value": 0.2204724409448819
          },
          {
            "number": 7,
            "ticks": 132,
            "time": 0.701328375,
            "value": 0.2204724409448819
          },
          {
            "number": 7,
            "ticks": 133,
            "time": 0.70664146875,
            "value": 0.2204724409448819
          },
          {
            "number": 7,
            "ticks": 134,
            "time": 0.7119545624999999,
            "value": 0.2204724409448819
          },
          {
            "number": 7,
            "ticks": 135,
            "time": 0.71726765625,
            "value": 0.2283464566929134
          },
          {
            "number": 7,
            "ticks": 136,
            "time": 0.72258075,
            "value": 0.2283464566929134
          },
          {
            "number": 7,
            "ticks": 137,
            "time": 0.72789384375,
            "value": 0.2283464566929134
          },
          {
            "number": 7,
            "ticks": 138,
            "time": 0.7332069375,
            "value": 0.2283464566929134
          },
          {
            "number": 7,
            "ticks": 139,
            "time": 0.73852003125,
            "value": 0.2283464566929134
          },
          {
            "number": 7,
            "ticks": 140,
            "time": 0.743833125,
            "value": 0.2283464566929134
          },
          {
            "number": 7,
            "ticks": 141,
            "time": 0.74914621875,
            "value": 0.2283464566929134
          },
          {
            "number": 7,
            "ticks": 142,
            "time": 0.7544593125,
            "value": 0.23622047244094488
          },
          {
            "number": 7,
            "ticks": 143,
            "time": 0.75977240625,
            "value": 0.23622047244094488
          },
          {
            "number": 7,
            "ticks": 144,
            "time": 0.7650855,
            "value": 0.23622047244094488
          },
          {
            "number": 7,
            "ticks": 145,
            "time": 0.77039859375,
            "value": 0.23622047244094488
          },
          {
            "number": 7,
            "ticks": 146,
            "time": 0.7757116875,
            "value": 0.23622047244094488
          },
          {
            "number": 7,
            "ticks": 147,
            "time": 0.78102478125,
            "value": 0.23622047244094488
          },
          {
            "number": 7,
            "ticks": 148,
            "time": 0.786337875,
            "value": 0.23622047244094488
          },
          {
            "number": 7,
            "ticks": 149,
            "time": 0.79165096875,
            "value": 0.2440944881889764
          },
          {
            "number": 7,
            "ticks": 150,
            "time": 0.7969640625,
            "value": 0.2440944881889764
          },
          {
            "number": 7,
            "ticks": 151,
            "time": 0.80227715625,
            "value": 0.2440944881889764
          },
          {
            "number": 7,
            "ticks": 152,
            "time": 0.80759025,
            "value": 0.2440944881889764
          },
          {
            "number": 7,
            "ticks": 153,
            "time": 0.81290334375,
            "value": 0.2440944881889764
          },
          {
            "number": 7,
            "ticks": 154,
            "time": 0.8182164375000001,
            "value": 0.2440944881889764
          },
          {
            "number": 7,
            "ticks": 155,
            "time": 0.82352953125,
            "value": 0.2440944881889764
          },
          {
            "number": 7,
            "ticks": 156,
            "time": 0.8288426249999999,
            "value": 0.2440944881889764
          },
          {
            "number": 7,
            "ticks": 157,
            "time": 0.83415571875,
            "value": 0.25196850393700787
          },
          {
            "number": 7,
            "ticks": 158,
            "time": 0.8394688124999999,
            "value": 0.25196850393700787
          },
          {
            "number": 7,
            "ticks": 159,
            "time": 0.8447819062499999,
            "value": 0.25196850393700787
          },
          {
            "number": 7,
            "ticks": 160,
            "time": 0.850095,
            "value": 0.25196850393700787
          },
          {
            "number": 7,
            "ticks": 161,
            "time": 0.8554080937499999,
            "value": 0.25196850393700787
          },
          {
            "number": 7,
            "ticks": 162,
            "time": 0.8607211874999999,
            "value": 0.25196850393700787
          },
          {
            "number": 7,
            "ticks": 163,
            "time": 0.86603428125,
            "value": 0.25196850393700787
          },
          {
            "number": 7,
            "ticks": 164,
            "time": 0.8713473749999999,
            "value": 0.25984251968503935
          },
          {
            "number": 7,
            "ticks": 165,
            "time": 0.8766604687499999,
            "value": 0.25984251968503935
          },
          {
            "number": 7,
            "ticks": 166,
            "time": 0.8819735625,
            "value": 0.25984251968503935
          },
          {
            "number": 7,
            "ticks": 167,
            "time": 0.8872866562499999,
            "value": 0.25984251968503935
          },
          {
            "number": 7,
            "ticks": 168,
            "time": 0.89259975,
            "value": 0.25984251968503935
          },
          {
            "number": 7,
            "ticks": 169,
            "time": 0.89791284375,
            "value": 0.25984251968503935
          },
          {
            "number": 7,
            "ticks": 170,
            "time": 0.9032259374999999,
            "value": 0.25984251968503935
          },
          {
            "number": 7,
            "ticks": 171,
            "time": 0.90853903125,
            "value": 0.2677165354330709
          },
          {
            "number": 7,
            "ticks": 172,
            "time": 0.913852125,
            "value": 0.2677165354330709
          },
          {
            "number": 7,
            "ticks": 173,
            "time": 0.9191652187499999,
            "value": 0.2677165354330709
          },
          {
            "number": 7,
            "ticks": 174,
            "time": 0.9244783125,
            "value": 0.2677165354330709
          },
          {
            "number": 7,
            "ticks": 175,
            "time": 0.92979140625,
            "value": 0.2677165354330709
          },
          {
            "number": 7,
            "ticks": 176,
            "time": 0.9351044999999999,
            "value": 0.2677165354330709
          },
          {
            "number": 7,
            "ticks": 177,
            "time": 0.94041759375,
            "value": 0.2677165354330709
          },
          {
            "number": 7,
            "ticks": 178,
            "time": 0.9457306875,
            "value": 0.2677165354330709
          },
          {
            "number": 7,
            "ticks": 179,
            "time": 0.9510437812499999,
            "value": 0.2755905511811024
          },
          {
            "number": 7,
            "ticks": 180,
            "time": 0.956356875,
            "value": 0.2755905511811024
          },
          {
            "number": 7,
            "ticks": 181,
            "time": 0.96166996875,
            "value": 0.2755905511811024
          },
          {
            "number": 7,
            "ticks": 182,
            "time": 0.9669830624999999,
            "value": 0.2755905511811024
          },
          {
            "number": 7,
            "ticks": 183,
            "time": 0.97229615625,
            "value": 0.2755905511811024
          },
          {
            "number": 7,
            "ticks": 184,
            "time": 0.97760925,
            "value": 0.2755905511811024
          },
          {
            "number": 7,
            "ticks": 185,
            "time": 0.98292234375,
            "value": 0.2755905511811024
          },
          {
            "number": 7,
            "ticks": 186,
            "time": 0.9882354375,
            "value": 0.28346456692913385
          },
          {
            "number": 7,
            "ticks": 187,
            "time": 0.99354853125,
            "value": 0.28346456692913385
          },
          {
            "number": 7,
            "ticks": 188,
            "time": 0.998861625,
            "value": 0.28346456692913385
          },
          {
            "number": 7,
            "ticks": 189,
            "time": 1.0041747187499999,
            "value": 0.28346456692913385
          },
          {
            "number": 7,
            "ticks": 190,
            "time": 1.0094878125,
            "value": 0.28346456692913385
          },
          {
            "number": 7,
            "ticks": 191,
            "time": 1.0148009062499999,
            "value": 0.28346456692913385
          },
          {
            "number": 7,
            "ticks": 192,
            "time": 1.020114,
            "value": 0.28346456692913385
          },
          {
            "number": 7,
            "ticks": 193,
            "time": 1.0254270937499999,
            "value": 0.29133858267716534
          },
          {
            "number": 7,
            "ticks": 194,
            "time": 1.0307401875,
            "value": 0.29133858267716534
          },
          {
            "number": 7,
            "ticks": 195,
            "time": 1.03605328125,
            "value": 0.29133858267716534
          },
          {
            "number": 7,
            "ticks": 196,
            "time": 1.041366375,
            "value": 0.29133858267716534
          },
          {
            "number": 7,
            "ticks": 197,
            "time": 1.04667946875,
            "value": 0.29133858267716534
          },
          {
            "number": 7,
            "ticks": 198,
            "time": 1.0519925625,
            "value": 0.29133858267716534
          },
          {
            "number": 7,
            "ticks": 199,
            "time": 1.0573056562499998,
            "value": 0.29133858267716534
          },
          {
            "number": 7,
            "ticks": 200,
            "time": 1.06261875,
            "value": 0.2992125984251969
          },
          {
            "number": 7,
            "ticks": 201,
            "time": 1.06793184375,
            "value": 0.2992125984251969
          },
          {
            "number": 7,
            "ticks": 202,
            "time": 1.0732449375,
            "value": 0.2992125984251969
          },
          {
            "number": 7,
            "ticks": 203,
            "time": 1.07855803125,
            "value": 0.2992125984251969
          },
          {
            "number": 7,
            "ticks": 204,
            "time": 1.083871125,
            "value": 0.2992125984251969
          },
          {
            "number": 7,
            "ticks": 205,
            "time": 1.0891842187499998,
            "value": 0.2992125984251969
          },
          {
            "number": 7,
            "ticks": 206,
            "time": 1.0944973125,
            "value": 0.2992125984251969
          },
          {
            "number": 7,
            "ticks": 207,
            "time": 1.09981040625,
            "value": 0.2992125984251969
          },
          {
            "number": 7,
            "ticks": 208,
            "time": 1.1051235,
            "value": 0.30708661417322836
          },
          {
            "number": 7,
            "ticks": 209,
            "time": 1.11043659375,
            "value": 0.30708661417322836
          },
          {
            "number": 7,
            "ticks": 210,
            "time": 1.1157496875,
            "value": 0.30708661417322836
          },
          {
            "number": 7,
            "ticks": 211,
            "time": 1.1210627812499998,
            "value": 0.30708661417322836
          },
          {
            "number": 7,
            "ticks": 212,
            "time": 1.1263758750000001,
            "value": 0.30708661417322836
          },
          {
            "number": 7,
            "ticks": 213,
            "time": 1.13168896875,
            "value": 0.30708661417322836
          },
          {
            "number": 7,
            "ticks": 214,
            "time": 1.1370020625,
            "value": 0.30708661417322836
          },
          {
            "number": 7,
            "ticks": 215,
            "time": 1.14231515625,
            "value": 0.31496062992125984
          },
          {
            "number": 7,
            "ticks": 216,
            "time": 1.14762825,
            "value": 0.31496062992125984
          },
          {
            "number": 7,
            "ticks": 217,
            "time": 1.1529413437499998,
            "value": 0.31496062992125984
          },
          {
            "number": 7,
            "ticks": 218,
            "time": 1.1582544375000001,
            "value": 0.31496062992125984
          },
          {
            "number": 7,
            "ticks": 219,
            "time": 1.16356753125,
            "value": 0.31496062992125984
          },
          {
            "number": 7,
            "ticks": 220,
            "time": 1.168880625,
            "value": 0.31496062992125984
          },
          {
            "number": 7,
            "ticks": 221,
            "time": 1.17419371875,
            "value": 0.31496062992125984
          },
          {
            "number": 7,
            "ticks": 222,
            "time": 1.1795068125,
            "value": 0.3228346456692913
          },
          {
            "number": 7,
            "ticks": 223,
            "time": 1.1848199062499998,
            "value": 0.3228346456692913
          },
          {
            "number": 7,
            "ticks": 224,
            "time": 1.190133,
            "value": 0.3228346456692913
          },
          {
            "number": 7,
            "ticks": 225,
            "time": 1.19544609375,
            "value": 0.3228346456692913
          },
          {
            "number": 7,
            "ticks": 226,
            "time": 1.2007591874999999,
            "value": 0.3228346456692913
          },
          {
            "number": 7,
            "ticks": 227,
            "time": 1.20607228125,
            "value": 0.3228346456692913
          },
          {
            "number": 7,
            "ticks": 228,
            "time": 1.2113853749999999,
            "value": 0.3228346456692913
          },
          {
            "number": 7,
            "ticks": 229,
            "time": 1.21669846875,
            "value": 0.3228346456692913
          },
          {
            "number": 7,
            "ticks": 230,
            "time": 1.2220115625,
            "value": 0.33070866141732286
          },
          {
            "number": 7,
            "ticks": 231,
            "time": 1.22732465625,
            "value": 0.33070866141732286
          },
          {
            "number": 7,
            "ticks": 232,
            "time": 1.2326377499999999,
            "value": 0.33070866141732286
          },
          {
            "number": 7,
            "ticks": 233,
            "time": 1.23795084375,
            "value": 0.33070866141732286
          },
          {
            "number": 7,
            "ticks": 234,
            "time": 1.2432639374999999,
            "value": 0.33070866141732286
          },
          {
            "number": 7,
            "ticks": 235,
            "time": 1.24857703125,
            "value": 0.33070866141732286
          },
          {
            "number": 7,
            "ticks": 236,
            "time": 1.253890125,
            "value": 0.33070866141732286
          },
          {
            "number": 7,
            "ticks": 237,
            "time": 1.25920321875,
            "value": 0.33858267716535434
          },
          {
            "number": 7,
            "ticks": 238,
            "time": 1.2645163124999999,
            "value": 0.33858267716535434
          },
          {
            "number": 7,
            "ticks": 239,
            "time": 1.26982940625,
            "value": 0.33858267716535434
          },
          {
            "number": 7,
            "ticks": 240,
            "time": 1.2751424999999998,
            "value": 0.33858267716535434
          },
          {
            "number": 7,
            "ticks": 241,
            "time": 1.28045559375,
            "value": 0.33858267716535434
          },
          {
            "number": 7,
            "ticks": 242,
            "time": 1.2857686875,
            "value": 0.33858267716535434
          },
          {
            "number": 7,
            "ticks": 243,
            "time": 1.29108178125,
            "value": 0.33858267716535434
          },
          {
            "number": 7,
            "ticks": 244,
            "time": 1.2963948749999998,
            "value": 0.3464566929133858
          },
          {
            "number": 7,
            "ticks": 245,
            "time": 1.30170796875,
            "value": 0.3464566929133858
          },
          {
            "number": 7,
            "ticks": 246,
            "time": 1.3070210625,
            "value": 0.3464566929133858
          },
          {
            "number": 7,
            "ticks": 247,
            "time": 1.31233415625,
            "value": 0.3464566929133858
          },
          {
            "number": 7,
            "ticks": 248,
            "time": 1.31764725,
            "value": 0.3464566929133858
          },
          {
            "number": 7,
            "ticks": 249,
            "time": 1.32296034375,
            "value": 0.3464566929133858
          },
          {
            "number": 7,
            "ticks": 250,
            "time": 1.3282734374999998,
            "value": 0.3464566929133858
          },
          {
            "number": 7,
            "ticks": 251,
            "time": 1.33358653125,
            "value": 0.3464566929133858
          },
          {
            "number": 7,
            "ticks": 252,
            "time": 1.338899625,
            "value": 0.3543307086614173
          },
          {
            "number": 7,
            "ticks": 253,
            "time": 1.34421271875,
            "value": 0.3543307086614173
          },
          {
            "number": 7,
            "ticks": 254,
            "time": 1.3495258125,
            "value": 0.3543307086614173
          },
          {
            "number": 7,
            "ticks": 255,
            "time": 1.35483890625,
            "value": 0.3543307086614173
          },
          {
            "number": 7,
            "ticks": 256,
            "time": 1.3601519999999998,
            "value": 0.3543307086614173
          },
          {
            "number": 7,
            "ticks": 257,
            "time": 1.3654650937500001,
            "value": 0.3543307086614173
          },
          {
            "number": 7,
            "ticks": 258,
            "time": 1.3707781875,
            "value": 0.3543307086614173
          },
          {
            "number": 7,
            "ticks": 259,
            "time": 1.37609128125,
            "value": 0.36220472440944884
          },
          {
            "number": 7,
            "ticks": 260,
            "time": 1.381404375,
            "value": 0.36220472440944884
          },
          {
            "number": 7,
            "ticks": 261,
            "time": 1.38671746875,
            "value": 0.36220472440944884
          },
          {
            "number": 7,
            "ticks": 262,
            "time": 1.3920305624999998,
            "value": 0.36220472440944884
          },
          {
            "number": 7,
            "ticks": 263,
            "time": 1.3973436562500001,
            "value": 0.36220472440944884
          },
          {
            "number": 7,
            "ticks": 264,
            "time": 1.40265675,
            "value": 0.36220472440944884
          },
          {
            "number": 7,
            "ticks": 265,
            "time": 1.40796984375,
            "value": 0.36220472440944884
          },
          {
            "number": 7,
            "ticks": 266,
            "time": 1.4132829375,
            "value": 0.3700787401574803
          },
          {
            "number": 7,
            "ticks": 267,
            "time": 1.41859603125,
            "value": 0.3700787401574803
          },
          {
            "number": 7,
            "ticks": 268,
            "time": 1.4239091249999998,
            "value": 0.3700787401574803
          },
          {
            "number": 7,
            "ticks": 269,
            "time": 1.42922221875,
            "value": 0.3700787401574803
          },
          {
            "number": 7,
            "ticks": 270,
            "time": 1.4345353125,
            "value": 0.3700787401574803
          },
          {
            "number": 7,
            "ticks": 271,
            "time": 1.4398484062499999,
            "value": 0.3700787401574803
          },
          {
            "number": 7,
            "ticks": 272,
            "time": 1.4451615,
            "value": 0.3700787401574803
          },
          {
            "number": 7,
            "ticks": 273,
            "time": 1.4504745937499999,
            "value": 0.3779527559055118
          },
          {
            "number": 7,
            "ticks": 274,
            "time": 1.4557876875,
            "value": 0.3779527559055118
          },
          {
            "number": 7,
            "ticks": 275,
            "time": 1.46110078125,
            "value": 0.3779527559055118
          },
          {
            "number": 7,
            "ticks": 276,
            "time": 1.466413875,
            "value": 0.3779527559055118
          },
          {
            "number": 7,
            "ticks": 277,
            "time": 1.4717269687499999,
            "value": 0.3779527559055118
          },
          {
            "number": 7,
            "ticks": 278,
            "time": 1.4770400625,
            "value": 0.3779527559055118
          },
          {
            "number": 7,
            "ticks": 279,
            "time": 1.4823531562499999,
            "value": 0.3779527559055118
          },
          {
            "number": 7,
            "ticks": 280,
            "time": 1.48766625,
            "value": 0.3779527559055118
          },
          {
            "number": 7,
            "ticks": 281,
            "time": 1.49297934375,
            "value": 0.3858267716535433
          },
          {
            "number": 7,
            "ticks": 282,
            "time": 1.4982924375,
            "value": 0.3858267716535433
          },
          {
            "number": 7,
            "ticks": 283,
            "time": 1.5036055312499998,
            "value": 0.3858267716535433
          },
          {
            "number": 7,
            "ticks": 284,
            "time": 1.508918625,
            "value": 0.3858267716535433
          },
          {
            "number": 7,
            "ticks": 285,
            "time": 1.5142317187499998,
            "value": 0.3858267716535433
          },
          {
            "number": 7,
            "ticks": 286,
            "time": 1.5195448125,
            "value": 0.3858267716535433
          },
          {
            "number": 7,
            "ticks": 287,
            "time": 1.52485790625,
            "value": 0.3858267716535433
          },
          {
            "number": 7,
            "ticks": 288,
            "time": 1.530171,
            "value": 0.3937007874015748
          },
          {
            "number": 7,
            "ticks": 289,
            "time": 1.5354840937499998,
            "value": 0.3937007874015748
          },
          {
            "number": 7,
            "ticks": 290,
            "time": 1.5407971875,
            "value": 0.3937007874015748
          },
          {
            "number": 7,
            "ticks": 291,
            "time": 1.54611028125,
            "value": 0.3937007874015748
          },
          {
            "number": 7,
            "ticks": 292,
            "time": 1.551423375,
            "value": 0.3937007874015748
          },
          {
            "number": 7,
            "ticks": 293,
            "time": 1.55673646875,
            "value": 0.3937007874015748
          },
          {
            "number": 7,
            "ticks": 294,
            "time": 1.5620495625,
            "value": 0.3937007874015748
          },
          {
            "number": 7,
            "ticks": 295,
            "time": 1.5673626562499998,
            "value": 0.4015748031496063
          },
          {
            "number": 7,
            "ticks": 296,
            "time": 1.57267575,
            "value": 0.4015748031496063
          },
          {
            "number": 7,
            "ticks": 297,
            "time": 1.57798884375,
            "value": 0.4015748031496063
          },
          {
            "number": 7,
            "ticks": 298,
            "time": 1.5833019375,
            "value": 0.4015748031496063
          },
          {
            "number": 7,
            "ticks": 299,
            "time": 1.58861503125,
            "value": 0.4015748031496063
          },
          {
            "number": 7,
            "ticks": 300,
            "time": 1.593928125,
            "value": 0.4015748031496063
          },
          {
            "number": 7,
            "ticks": 301,
            "time": 1.5992412187499998,
            "value": 0.4015748031496063
          },
          {
            "number": 7,
            "ticks": 302,
            "time": 1.6045543125,
            "value": 0.4015748031496063
          },
          {
            "number": 7,
            "ticks": 303,
            "time": 1.60986740625,
            "value": 0.4094488188976378
          },
          {
            "number": 7,
            "ticks": 304,
            "time": 1.6151805,
            "value": 0.4094488188976378
          },
          {
            "number": 7,
            "ticks": 305,
            "time": 1.62049359375,
            "value": 0.4094488188976378
          },
          {
            "number": 7,
            "ticks": 306,
            "time": 1.6258066875,
            "value": 0.4094488188976378
          },
          {
            "number": 7,
            "ticks": 307,
            "time": 1.6311197812499998,
            "value": 0.4094488188976378
          },
          {
            "number": 7,
            "ticks": 308,
            "time": 1.6364328750000001,
            "value": 0.4094488188976378
          },
          {
            "number": 7,
            "ticks": 309,
            "time": 1.64174596875,
            "value": 0.4094488188976378
          },
          {
            "number": 7,
            "ticks": 310,
            "time": 1.6470590625,
            "value": 0.41732283464566927
          },
          {
            "number": 7,
            "ticks": 311,
            "time": 1.65237215625,
            "value": 0.41732283464566927
          },
          {
            "number": 7,
            "ticks": 312,
            "time": 1.6576852499999999,
            "value": 0.41732283464566927
          },
          {
            "number": 7,
            "ticks": 313,
            "time": 1.6629983437499998,
            "value": 0.41732283464566927
          },
          {
            "number": 7,
            "ticks": 314,
            "time": 1.6683114375,
            "value": 0.41732283464566927
          },
          {
            "number": 7,
            "ticks": 315,
            "time": 1.67362453125,
            "value": 0.41732283464566927
          },
          {
            "number": 7,
            "ticks": 316,
            "time": 1.6789376249999999,
            "value": 0.41732283464566927
          },
          {
            "number": 7,
            "ticks": 317,
            "time": 1.68425071875,
            "value": 0.4251968503937008
          },
          {
            "number": 7,
            "ticks": 318,
            "time": 1.6895638124999999,
            "value": 0.4251968503937008
          },
          {
            "number": 7,
            "ticks": 319,
            "time": 1.6948769062499998,
            "value": 0.4251968503937008
          },
          {
            "number": 7,
            "ticks": 320,
            "time": 1.70019,
            "value": 0.4251968503937008
          },
          {
            "number": 7,
            "ticks": 321,
            "time": 1.70550309375,
            "value": 0.4251968503937008
          },
          {
            "number": 7,
            "ticks": 322,
            "time": 1.7108161874999999,
            "value": 0.4251968503937008
          },
          {
            "number": 7,
            "ticks": 323,
            "time": 1.71612928125,
            "value": 0.4251968503937008
          },
          {
            "number": 7,
            "ticks": 324,
            "time": 1.7214423749999999,
            "value": 0.4330708661417323
          },
          {
            "number": 7,
            "ticks": 325,
            "time": 1.72675546875,
            "value": 0.4330708661417323
          },
          {
            "number": 7,
            "ticks": 326,
            "time": 1.7320685625,
            "value": 0.4330708661417323
          },
          {
            "number": 7,
            "ticks": 327,
            "time": 1.73738165625,
            "value": 0.4330708661417323
          },
          {
            "number": 7,
            "ticks": 328,
            "time": 1.7426947499999998,
            "value": 0.4330708661417323
          },
          {
            "number": 7,
            "ticks": 329,
            "time": 1.74800784375,
            "value": 0.4330708661417323
          },
          {
            "number": 7,
            "ticks": 330,
            "time": 1.7533209374999998,
            "value": 0.4330708661417323
          },
          {
            "number": 7,
            "ticks": 331,
            "time": 1.75863403125,
            "value": 0.4330708661417323
          },
          {
            "number": 7,
            "ticks": 332,
            "time": 1.763947125,
            "value": 0.4409448818897638
          },
          {
            "number": 7,
            "ticks": 333,
            "time": 1.76926021875,
            "value": 0.4409448818897638
          },
          {
            "number": 7,
            "ticks": 334,
            "time": 1.7745733124999998,
            "value": 0.4409448818897638
          },
          {
            "number": 7,
            "ticks": 335,
            "time": 1.77988640625,
            "value": 0.4409448818897638
          },
          {
            "number": 7,
            "ticks": 336,
            "time": 1.7851995,
            "value": 0.4409448818897638
          },
          {
            "number": 7,
            "ticks": 337,
            "time": 1.79051259375,
            "value": 0.4409448818897638
          },
          {
            "number": 7,
            "ticks": 338,
            "time": 1.7958256875,
            "value": 0.4409448818897638
          },
          {
            "number": 7,
            "ticks": 339,
            "time": 1.80113878125,
            "value": 0.44881889763779526
          },
          {
            "number": 7,
            "ticks": 3972,
            "time": 21.103608375,
            "value": 0
          },
          {
            "number": 7,
            "ticks": 3973,
            "time": 21.108921468749998,
            "value": 0
          },
          {
            "number": 7,
            "ticks": 3974,
            "time": 21.114234562500002,
            "value": 0
          },
          {
            "number": 7,
            "ticks": 3975,
            "time": 21.11954765625,
            "value": 0
          },
          {
            "number": 7,
            "ticks": 3976,
            "time": 21.124860749999996,
            "value": 0
          },
          {
            "number": 7,
            "ticks": 3977,
            "time": 21.13017384375,
            "value": 0.007874015748031496
          },
          {
            "number": 7,
            "ticks": 3978,
            "time": 21.135486937499998,
            "value": 0.007874015748031496
          },
          {
            "number": 7,
            "ticks": 3979,
            "time": 21.14080003125,
            "value": 0.007874015748031496
          },
          {
            "number": 7,
            "ticks": 3980,
            "time": 21.146113125,
            "value": 0.007874015748031496
          },
          {
            "number": 7,
            "ticks": 3981,
            "time": 21.15142621875,
            "value": 0.015748031496062992
          },
          {
            "number": 7,
            "ticks": 3982,
            "time": 21.156739312499997,
            "value": 0.015748031496062992
          },
          {
            "number": 7,
            "ticks": 3983,
            "time": 21.16205240625,
            "value": 0.015748031496062992
          },
          {
            "number": 7,
            "ticks": 3984,
            "time": 21.1673655,
            "value": 0.015748031496062992
          },
          {
            "number": 7,
            "ticks": 3985,
            "time": 21.17267859375,
            "value": 0.023622047244094488
          },
          {
            "number": 7,
            "ticks": 3986,
            "time": 21.1779916875,
            "value": 0.023622047244094488
          },
          {
            "number": 7,
            "ticks": 3987,
            "time": 21.183304781249998,
            "value": 0.023622047244094488
          },
          {
            "number": 7,
            "ticks": 3988,
            "time": 21.188617875,
            "value": 0.023622047244094488
          },
          {
            "number": 7,
            "ticks": 3989,
            "time": 21.19393096875,
            "value": 0.031496062992125984
          },
          {
            "number": 7,
            "ticks": 3990,
            "time": 21.1992440625,
            "value": 0.031496062992125984
          },
          {
            "number": 7,
            "ticks": 3991,
            "time": 21.204557156249997,
            "value": 0.031496062992125984
          },
          {
            "number": 7,
            "ticks": 3992,
            "time": 21.20987025,
            "value": 0.031496062992125984
          },
          {
            "number": 7,
            "ticks": 3993,
            "time": 21.21518334375,
            "value": 0.03937007874015748
          },
          {
            "number": 7,
            "ticks": 3994,
            "time": 21.2204964375,
            "value": 0.03937007874015748
          },
          {
            "number": 7,
            "ticks": 3995,
            "time": 21.22580953125,
            "value": 0.03937007874015748
          },
          {
            "number": 7,
            "ticks": 3996,
            "time": 21.231122624999998,
            "value": 0.03937007874015748
          },
          {
            "number": 7,
            "ticks": 3997,
            "time": 21.23643571875,
            "value": 0.047244094488188976
          },
          {
            "number": 7,
            "ticks": 3998,
            "time": 21.2417488125,
            "value": 0.047244094488188976
          },
          {
            "number": 7,
            "ticks": 3999,
            "time": 21.24706190625,
            "value": 0.047244094488188976
          },
          {
            "number": 7,
            "ticks": 4000,
            "time": 21.252374999999997,
            "value": 0.047244094488188976
          },
          {
            "number": 7,
            "ticks": 4001,
            "time": 21.25768809375,
            "value": 0.05511811023622047
          },
          {
            "number": 7,
            "ticks": 4002,
            "time": 21.2630011875,
            "value": 0.05511811023622047
          },
          {
            "number": 7,
            "ticks": 4003,
            "time": 21.26831428125,
            "value": 0.05511811023622047
          },
          {
            "number": 7,
            "ticks": 4004,
            "time": 21.273627375,
            "value": 0.05511811023622047
          },
          {
            "number": 7,
            "ticks": 4005,
            "time": 21.27894046875,
            "value": 0.06299212598425197
          },
          {
            "number": 7,
            "ticks": 4006,
            "time": 21.2842535625,
            "value": 0.06299212598425197
          },
          {
            "number": 7,
            "ticks": 4007,
            "time": 21.28956665625,
            "value": 0.06299212598425197
          },
          {
            "number": 7,
            "ticks": 4008,
            "time": 21.29487975,
            "value": 0.06299212598425197
          },
          {
            "number": 7,
            "ticks": 4009,
            "time": 21.300192843749997,
            "value": 0.07086614173228346
          },
          {
            "number": 7,
            "ticks": 4010,
            "time": 21.3055059375,
            "value": 0.07086614173228346
          },
          {
            "number": 7,
            "ticks": 4011,
            "time": 21.31081903125,
            "value": 0.07086614173228346
          },
          {
            "number": 7,
            "ticks": 4012,
            "time": 21.316132125,
            "value": 0.07086614173228346
          },
          {
            "number": 7,
            "ticks": 4013,
            "time": 21.32144521875,
            "value": 0.07874015748031496
          },
          {
            "number": 7,
            "ticks": 4014,
            "time": 21.3267583125,
            "value": 0.07874015748031496
          },
          {
            "number": 7,
            "ticks": 4015,
            "time": 21.332071406249998,
            "value": 0.07874015748031496
          },
          {
            "number": 7,
            "ticks": 4016,
            "time": 21.3373845,
            "value": 0.07874015748031496
          },
          {
            "number": 7,
            "ticks": 4017,
            "time": 21.34269759375,
            "value": 0.08661417322834646
          },
          {
            "number": 7,
            "ticks": 4018,
            "time": 21.348010687499997,
            "value": 0.08661417322834646
          },
          {
            "number": 7,
            "ticks": 4019,
            "time": 21.35332378125,
            "value": 0.08661417322834646
          },
          {
            "number": 7,
            "ticks": 4020,
            "time": 21.358636875,
            "value": 0.08661417322834646
          },
          {
            "number": 7,
            "ticks": 4021,
            "time": 21.36394996875,
            "value": 0.09448818897637795
          },
          {
            "number": 7,
            "ticks": 4022,
            "time": 21.3692630625,
            "value": 0.09448818897637795
          },
          {
            "number": 7,
            "ticks": 4023,
            "time": 21.37457615625,
            "value": 0.09448818897637795
          },
          {
            "number": 7,
            "ticks": 4024,
            "time": 21.379889249999998,
            "value": 0.09448818897637795
          },
          {
            "number": 7,
            "ticks": 4025,
            "time": 21.38520234375,
            "value": 0.10236220472440945
          },
          {
            "number": 7,
            "ticks": 4026,
            "time": 21.3905154375,
            "value": 0.10236220472440945
          },
          {
            "number": 7,
            "ticks": 4027,
            "time": 21.395828531249997,
            "value": 0.10236220472440945
          },
          {
            "number": 7,
            "ticks": 4028,
            "time": 21.401141625,
            "value": 0.10236220472440945
          },
          {
            "number": 7,
            "ticks": 4029,
            "time": 21.40645471875,
            "value": 0.11023622047244094
          },
          {
            "number": 7,
            "ticks": 4030,
            "time": 21.4117678125,
            "value": 0.11023622047244094
          },
          {
            "number": 7,
            "ticks": 4031,
            "time": 21.41708090625,
            "value": 0.11023622047244094
          },
          {
            "number": 7,
            "ticks": 4032,
            "time": 21.422394,
            "value": 0.11023622047244094
          },
          {
            "number": 7,
            "ticks": 4033,
            "time": 21.427707093749998,
            "value": 0.11811023622047244
          },
          {
            "number": 7,
            "ticks": 4034,
            "time": 21.433020187500002,
            "value": 0.11811023622047244
          },
          {
            "number": 7,
            "ticks": 4035,
            "time": 21.43833328125,
            "value": 0.11811023622047244
          },
          {
            "number": 7,
            "ticks": 4036,
            "time": 21.443646374999997,
            "value": 0.11811023622047244
          },
          {
            "number": 7,
            "ticks": 4037,
            "time": 21.44895946875,
            "value": 0.12598425196850394
          },
          {
            "number": 7,
            "ticks": 4038,
            "time": 21.454272562499998,
            "value": 0.12598425196850394
          },
          {
            "number": 7,
            "ticks": 4039,
            "time": 21.45958565625,
            "value": 0.12598425196850394
          },
          {
            "number": 7,
            "ticks": 4040,
            "time": 21.46489875,
            "value": 0.12598425196850394
          },
          {
            "number": 7,
            "ticks": 4041,
            "time": 21.47021184375,
            "value": 0.13385826771653545
          },
          {
            "number": 7,
            "ticks": 4042,
            "time": 21.475524937499998,
            "value": 0.13385826771653545
          },
          {
            "number": 7,
            "ticks": 4043,
            "time": 21.480838031250002,
            "value": 0.13385826771653545
          },
          {
            "number": 7,
            "ticks": 4044,
            "time": 21.486151125,
            "value": 0.13385826771653545
          },
          {
            "number": 7,
            "ticks": 4045,
            "time": 21.491464218749996,
            "value": 0.14173228346456693
          },
          {
            "number": 7,
            "ticks": 4046,
            "time": 21.4967773125,
            "value": 0.14173228346456693
          },
          {
            "number": 7,
            "ticks": 4047,
            "time": 21.502090406249998,
            "value": 0.14173228346456693
          },
          {
            "number": 7,
            "ticks": 4048,
            "time": 21.5074035,
            "value": 0.14173228346456693
          },
          {
            "number": 7,
            "ticks": 4049,
            "time": 21.51271659375,
            "value": 0.14960629921259844
          },
          {
            "number": 7,
            "ticks": 4050,
            "time": 21.5180296875,
            "value": 0.14960629921259844
          },
          {
            "number": 7,
            "ticks": 4051,
            "time": 21.523342781249998,
            "value": 0.14960629921259844
          },
          {
            "number": 7,
            "ticks": 4052,
            "time": 21.528655875000002,
            "value": 0.14960629921259844
          },
          {
            "number": 7,
            "ticks": 4053,
            "time": 21.53396896875,
            "value": 0.15748031496062992
          },
          {
            "number": 7,
            "ticks": 4054,
            "time": 21.539282062499996,
            "value": 0.15748031496062992
          },
          {
            "number": 7,
            "ticks": 4055,
            "time": 21.54459515625,
            "value": 0.15748031496062992
          },
          {
            "number": 7,
            "ticks": 4056,
            "time": 21.549908249999998,
            "value": 0.15748031496062992
          },
          {
            "number": 7,
            "ticks": 4057,
            "time": 21.55522134375,
            "value": 0.16535433070866143
          },
          {
            "number": 7,
            "ticks": 4058,
            "time": 21.5605344375,
            "value": 0.16535433070866143
          },
          {
            "number": 7,
            "ticks": 4059,
            "time": 21.56584753125,
            "value": 0.16535433070866143
          },
          {
            "number": 7,
            "ticks": 4060,
            "time": 21.571160624999997,
            "value": 0.16535433070866143
          },
          {
            "number": 7,
            "ticks": 4061,
            "time": 21.57647371875,
            "value": 0.1732283464566929
          },
          {
            "number": 7,
            "ticks": 4062,
            "time": 21.5817868125,
            "value": 0.1732283464566929
          },
          {
            "number": 7,
            "ticks": 4063,
            "time": 21.58709990625,
            "value": 0.1732283464566929
          },
          {
            "number": 7,
            "ticks": 4064,
            "time": 21.592413,
            "value": 0.1732283464566929
          },
          {
            "number": 7,
            "ticks": 4065,
            "time": 21.597726093749998,
            "value": 0.18110236220472442
          },
          {
            "number": 7,
            "ticks": 4066,
            "time": 21.6030391875,
            "value": 0.18110236220472442
          },
          {
            "number": 7,
            "ticks": 4067,
            "time": 21.60835228125,
            "value": 0.18110236220472442
          },
          {
            "number": 7,
            "ticks": 4068,
            "time": 21.613665375,
            "value": 0.18110236220472442
          },
          {
            "number": 7,
            "ticks": 4069,
            "time": 21.618978468749997,
            "value": 0.1889763779527559
          },
          {
            "number": 7,
            "ticks": 4070,
            "time": 21.6242915625,
            "value": 0.1889763779527559
          },
          {
            "number": 7,
            "ticks": 4071,
            "time": 21.62960465625,
            "value": 0.1889763779527559
          },
          {
            "number": 7,
            "ticks": 4072,
            "time": 21.63491775,
            "value": 0.1889763779527559
          },
          {
            "number": 7,
            "ticks": 4073,
            "time": 21.64023084375,
            "value": 0.1968503937007874
          },
          {
            "number": 7,
            "ticks": 4074,
            "time": 21.645543937499998,
            "value": 0.1968503937007874
          },
          {
            "number": 7,
            "ticks": 4075,
            "time": 21.65085703125,
            "value": 0.1968503937007874
          },
          {
            "number": 7,
            "ticks": 4076,
            "time": 21.656170125,
            "value": 0.1968503937007874
          },
          {
            "number": 7,
            "ticks": 4077,
            "time": 21.66148321875,
            "value": 0.2047244094488189
          },
          {
            "number": 7,
            "ticks": 4078,
            "time": 21.666796312499997,
            "value": 0.2047244094488189
          },
          {
            "number": 7,
            "ticks": 4079,
            "time": 21.67210940625,
            "value": 0.2047244094488189
          },
          {
            "number": 7,
            "ticks": 4080,
            "time": 21.6774225,
            "value": 0.2047244094488189
          },
          {
            "number": 7,
            "ticks": 4081,
            "time": 21.68273559375,
            "value": 0.2125984251968504
          },
          {
            "number": 7,
            "ticks": 4082,
            "time": 21.6880486875,
            "value": 0.2125984251968504
          },
          {
            "number": 7,
            "ticks": 4083,
            "time": 21.69336178125,
            "value": 0.2125984251968504
          },
          {
            "number": 7,
            "ticks": 4084,
            "time": 21.698674875,
            "value": 0.2125984251968504
          },
          {
            "number": 7,
            "ticks": 4085,
            "time": 21.70398796875,
            "value": 0.2204724409448819
          },
          {
            "number": 7,
            "ticks": 4086,
            "time": 21.7093010625,
            "value": 0.2204724409448819
          },
          {
            "number": 7,
            "ticks": 4087,
            "time": 21.714614156249997,
            "value": 0.2204724409448819
          },
          {
            "number": 7,
            "ticks": 4088,
            "time": 21.71992725,
            "value": 0.2204724409448819
          },
          {
            "number": 7,
            "ticks": 4089,
            "time": 21.72524034375,
            "value": 0.2283464566929134
          },
          {
            "number": 7,
            "ticks": 4090,
            "time": 21.7305534375,
            "value": 0.2283464566929134
          },
          {
            "number": 7,
            "ticks": 4091,
            "time": 21.73586653125,
            "value": 0.2283464566929134
          },
          {
            "number": 7,
            "ticks": 4092,
            "time": 21.741179625,
            "value": 0.2283464566929134
          },
          {
            "number": 7,
            "ticks": 4093,
            "time": 21.746492718749998,
            "value": 0.23622047244094488
          },
          {
            "number": 7,
            "ticks": 4094,
            "time": 21.7518058125,
            "value": 0.23622047244094488
          },
          {
            "number": 7,
            "ticks": 4095,
            "time": 21.75711890625,
            "value": 0.23622047244094488
          },
          {
            "number": 7,
            "ticks": 4096,
            "time": 21.762431999999997,
            "value": 0.23622047244094488
          },
          {
            "number": 7,
            "ticks": 4097,
            "time": 21.76774509375,
            "value": 0.2440944881889764
          },
          {
            "number": 7,
            "ticks": 4098,
            "time": 21.7730581875,
            "value": 0.2440944881889764
          },
          {
            "number": 7,
            "ticks": 4099,
            "time": 21.77837128125,
            "value": 0.2440944881889764
          },
          {
            "number": 7,
            "ticks": 4100,
            "time": 21.783684375,
            "value": 0.2440944881889764
          },
          {
            "number": 7,
            "ticks": 4101,
            "time": 21.78899746875,
            "value": 0.25196850393700787
          },
          {
            "number": 7,
            "ticks": 4102,
            "time": 21.794310562499998,
            "value": 0.25196850393700787
          },
          {
            "number": 7,
            "ticks": 4103,
            "time": 21.79962365625,
            "value": 0.25196850393700787
          },
          {
            "number": 7,
            "ticks": 4104,
            "time": 21.80493675,
            "value": 0.25196850393700787
          },
          {
            "number": 7,
            "ticks": 4105,
            "time": 21.810249843749997,
            "value": 0.25984251968503935
          },
          {
            "number": 7,
            "ticks": 4106,
            "time": 21.8155629375,
            "value": 0.25984251968503935
          },
          {
            "number": 7,
            "ticks": 4107,
            "time": 21.82087603125,
            "value": 0.25984251968503935
          },
          {
            "number": 7,
            "ticks": 4108,
            "time": 21.826189125,
            "value": 0.25984251968503935
          },
          {
            "number": 7,
            "ticks": 4109,
            "time": 21.83150221875,
            "value": 0.2677165354330709
          },
          {
            "number": 7,
            "ticks": 4110,
            "time": 21.8368153125,
            "value": 0.2677165354330709
          },
          {
            "number": 7,
            "ticks": 4111,
            "time": 21.842128406249998,
            "value": 0.2677165354330709
          },
          {
            "number": 7,
            "ticks": 4112,
            "time": 21.847441500000002,
            "value": 0.2677165354330709
          },
          {
            "number": 7,
            "ticks": 4113,
            "time": 21.85275459375,
            "value": 0.2755905511811024
          },
          {
            "number": 7,
            "ticks": 4114,
            "time": 21.858067687499997,
            "value": 0.2755905511811024
          },
          {
            "number": 7,
            "ticks": 4115,
            "time": 21.86338078125,
            "value": 0.2755905511811024
          },
          {
            "number": 7,
            "ticks": 4116,
            "time": 21.868693874999998,
            "value": 0.2755905511811024
          },
          {
            "number": 7,
            "ticks": 4117,
            "time": 21.87400696875,
            "value": 0.28346456692913385
          },
          {
            "number": 7,
            "ticks": 4118,
            "time": 21.8793200625,
            "value": 0.28346456692913385
          },
          {
            "number": 7,
            "ticks": 4119,
            "time": 21.88463315625,
            "value": 0.28346456692913385
          },
          {
            "number": 7,
            "ticks": 4120,
            "time": 21.889946249999998,
            "value": 0.28346456692913385
          },
          {
            "number": 7,
            "ticks": 4121,
            "time": 21.895259343750002,
            "value": 0.29133858267716534
          },
          {
            "number": 7,
            "ticks": 4122,
            "time": 21.9005724375,
            "value": 0.29133858267716534
          },
          {
            "number": 7,
            "ticks": 4123,
            "time": 21.905885531249996,
            "value": 0.29133858267716534
          },
          {
            "number": 7,
            "ticks": 4124,
            "time": 21.911198625,
            "value": 0.29133858267716534
          },
          {
            "number": 7,
            "ticks": 4125,
            "time": 21.916511718749998,
            "value": 0.2992125984251969
          },
          {
            "number": 7,
            "ticks": 4126,
            "time": 21.9218248125,
            "value": 0.2992125984251969
          },
          {
            "number": 7,
            "ticks": 4127,
            "time": 21.92713790625,
            "value": 0.2992125984251969
          },
          {
            "number": 7,
            "ticks": 4128,
            "time": 21.932451,
            "value": 0.2992125984251969
          },
          {
            "number": 7,
            "ticks": 4129,
            "time": 21.937764093749998,
            "value": 0.30708661417322836
          },
          {
            "number": 7,
            "ticks": 4130,
            "time": 21.943077187500002,
            "value": 0.30708661417322836
          },
          {
            "number": 7,
            "ticks": 4131,
            "time": 21.94839028125,
            "value": 0.30708661417322836
          },
          {
            "number": 7,
            "ticks": 4132,
            "time": 21.953703374999996,
            "value": 0.30708661417322836
          },
          {
            "number": 7,
            "ticks": 4133,
            "time": 21.95901646875,
            "value": 0.31496062992125984
          },
          {
            "number": 7,
            "ticks": 4134,
            "time": 21.964329562499998,
            "value": 0.31496062992125984
          },
          {
            "number": 7,
            "ticks": 4135,
            "time": 21.96964265625,
            "value": 0.31496062992125984
          },
          {
            "number": 7,
            "ticks": 4136,
            "time": 21.97495575,
            "value": 0.31496062992125984
          },
          {
            "number": 7,
            "ticks": 4137,
            "time": 21.98026884375,
            "value": 0.3228346456692913
          },
          {
            "number": 7,
            "ticks": 4138,
            "time": 21.985581937499997,
            "value": 0.3228346456692913
          },
          {
            "number": 7,
            "ticks": 4139,
            "time": 21.990895031250002,
            "value": 0.3228346456692913
          },
          {
            "number": 7,
            "ticks": 4140,
            "time": 21.996208125,
            "value": 0.3228346456692913
          },
          {
            "number": 7,
            "ticks": 4141,
            "time": 22.00152121875,
            "value": 0.33070866141732286
          },
          {
            "number": 7,
            "ticks": 4142,
            "time": 22.0068343125,
            "value": 0.33070866141732286
          },
          {
            "number": 7,
            "ticks": 4143,
            "time": 22.012147406249998,
            "value": 0.33070866141732286
          },
          {
            "number": 7,
            "ticks": 4144,
            "time": 22.0174605,
            "value": 0.33070866141732286
          },
          {
            "number": 7,
            "ticks": 4145,
            "time": 22.02277359375,
            "value": 0.33858267716535434
          },
          {
            "number": 7,
            "ticks": 4146,
            "time": 22.0280866875,
            "value": 0.33858267716535434
          },
          {
            "number": 7,
            "ticks": 4147,
            "time": 22.033399781249997,
            "value": 0.33858267716535434
          },
          {
            "number": 7,
            "ticks": 4148,
            "time": 22.038712875,
            "value": 0.33858267716535434
          },
          {
            "number": 7,
            "ticks": 4149,
            "time": 22.04402596875,
            "value": 0.3464566929133858
          },
          {
            "number": 7,
            "ticks": 4150,
            "time": 22.0493390625,
            "value": 0.3464566929133858
          },
          {
            "number": 7,
            "ticks": 4151,
            "time": 22.05465215625,
            "value": 0.3464566929133858
          },
          {
            "number": 7,
            "ticks": 4152,
            "time": 22.059965249999998,
            "value": 0.3464566929133858
          },
          {
            "number": 7,
            "ticks": 4153,
            "time": 22.06527834375,
            "value": 0.3543307086614173
          },
          {
            "number": 7,
            "ticks": 4154,
            "time": 22.0705914375,
            "value": 0.3543307086614173
          },
          {
            "number": 7,
            "ticks": 4155,
            "time": 22.07590453125,
            "value": 0.3543307086614173
          },
          {
            "number": 7,
            "ticks": 4156,
            "time": 22.081217624999997,
            "value": 0.3543307086614173
          },
          {
            "number": 7,
            "ticks": 4157,
            "time": 22.08653071875,
            "value": 0.36220472440944884
          },
          {
            "number": 7,
            "ticks": 4158,
            "time": 22.0918438125,
            "value": 0.36220472440944884
          },
          {
            "number": 7,
            "ticks": 4159,
            "time": 22.09715690625,
            "value": 0.36220472440944884
          },
          {
            "number": 7,
            "ticks": 4160,
            "time": 22.10247,
            "value": 0.36220472440944884
          },
          {
            "number": 7,
            "ticks": 4161,
            "time": 22.107783093749998,
            "value": 0.3700787401574803
          },
          {
            "number": 7,
            "ticks": 4162,
            "time": 22.1130961875,
            "value": 0.3700787401574803
          },
          {
            "number": 7,
            "ticks": 4163,
            "time": 22.11840928125,
            "value": 0.3700787401574803
          },
          {
            "number": 7,
            "ticks": 4164,
            "time": 22.123722375,
            "value": 0.3700787401574803
          },
          {
            "number": 7,
            "ticks": 4165,
            "time": 22.129035468749997,
            "value": 0.3779527559055118
          },
          {
            "number": 7,
            "ticks": 4166,
            "time": 22.1343485625,
            "value": 0.3779527559055118
          },
          {
            "number": 7,
            "ticks": 4167,
            "time": 22.13966165625,
            "value": 0.3779527559055118
          },
          {
            "number": 7,
            "ticks": 4168,
            "time": 22.14497475,
            "value": 0.3779527559055118
          },
          {
            "number": 7,
            "ticks": 4169,
            "time": 22.15028784375,
            "value": 0.3858267716535433
          },
          {
            "number": 7,
            "ticks": 4170,
            "time": 22.1556009375,
            "value": 0.3858267716535433
          },
          {
            "number": 7,
            "ticks": 4171,
            "time": 22.160914031249998,
            "value": 0.3858267716535433
          },
          {
            "number": 7,
            "ticks": 4172,
            "time": 22.166227125,
            "value": 0.3858267716535433
          },
          {
            "number": 7,
            "ticks": 4173,
            "time": 22.17154021875,
            "value": 0.3937007874015748
          },
          {
            "number": 7,
            "ticks": 4174,
            "time": 22.176853312499997,
            "value": 0.3937007874015748
          },
          {
            "number": 7,
            "ticks": 4175,
            "time": 22.18216640625,
            "value": 0.3937007874015748
          },
          {
            "number": 7,
            "ticks": 4176,
            "time": 22.1874795,
            "value": 0.3937007874015748
          },
          {
            "number": 7,
            "ticks": 4177,
            "time": 22.19279259375,
            "value": 0.4015748031496063
          },
          {
            "number": 7,
            "ticks": 4178,
            "time": 22.1981056875,
            "value": 0.4015748031496063
          },
          {
            "number": 7,
            "ticks": 4179,
            "time": 22.20341878125,
            "value": 0.4015748031496063
          },
          {
            "number": 7,
            "ticks": 4180,
            "time": 22.208731874999998,
            "value": 0.4015748031496063
          },
          {
            "number": 7,
            "ticks": 4181,
            "time": 22.21404496875,
            "value": 0.4094488188976378
          },
          {
            "number": 7,
            "ticks": 4182,
            "time": 22.2193580625,
            "value": 0.4094488188976378
          },
          {
            "number": 7,
            "ticks": 4183,
            "time": 22.224671156249997,
            "value": 0.4094488188976378
          },
          {
            "number": 7,
            "ticks": 4184,
            "time": 22.22998425,
            "value": 0.4094488188976378
          },
          {
            "number": 7,
            "ticks": 4185,
            "time": 22.23529734375,
            "value": 0.41732283464566927
          },
          {
            "number": 7,
            "ticks": 4186,
            "time": 22.2406104375,
            "value": 0.41732283464566927
          },
          {
            "number": 7,
            "ticks": 4187,
            "time": 22.24592353125,
            "value": 0.41732283464566927
          },
          {
            "number": 7,
            "ticks": 4188,
            "time": 22.251236625,
            "value": 0.41732283464566927
          },
          {
            "number": 7,
            "ticks": 4189,
            "time": 22.256549718749998,
            "value": 0.4251968503937008
          },
          {
            "number": 7,
            "ticks": 4190,
            "time": 22.261862812500002,
            "value": 0.4251968503937008
          },
          {
            "number": 7,
            "ticks": 4191,
            "time": 22.26717590625,
            "value": 0.4251968503937008
          },
          {
            "number": 7,
            "ticks": 4192,
            "time": 22.272488999999997,
            "value": 0.4251968503937008
          },
          {
            "number": 7,
            "ticks": 4193,
            "time": 22.27780209375,
            "value": 0.4330708661417323
          },
          {
            "number": 7,
            "ticks": 4194,
            "time": 22.283115187499998,
            "value": 0.4330708661417323
          },
          {
            "number": 7,
            "ticks": 4195,
            "time": 22.28842828125,
            "value": 0.4330708661417323
          },
          {
            "number": 7,
            "ticks": 4196,
            "time": 22.293741375,
            "value": 0.4330708661417323
          },
          {
            "number": 7,
            "ticks": 4197,
            "time": 22.29905446875,
            "value": 0.4409448818897638
          },
          {
            "number": 7,
            "ticks": 4198,
            "time": 22.304367562499998,
            "value": 0.4409448818897638
          },
          {
            "number": 7,
            "ticks": 4199,
            "time": 22.309680656250002,
            "value": 0.4409448818897638
          },
          {
            "number": 7,
            "ticks": 21120,
            "time": 112.21253999999999,
            "value": 0.4409448818897638
          },
          {
            "number": 7,
            "ticks": 21120,
            "time": 112.21253999999999,
            "value": 0.4409448818897638
          },
          {
            "number": 7,
            "ticks": 21120,
            "time": 112.21253999999999,
            "value": 0.4409448818897638
          }
        ],
        "10": [
          {
            "number": 10,
            "ticks": 0,
            "time": 0,
            "value": 0.5039370078740157
          },
          {
            "number": 10,
            "ticks": 0,
            "time": 0,
            "value": 0.5039370078740157
          },
          {
            "number": 10,
            "ticks": 0,
            "time": 0,
            "value": 0.5039370078740157
          },
          {
            "number": 10,
            "ticks": 21120,
            "time": 112.21253999999999,
            "value": 0.5039370078740157
          },
          {
            "number": 10,
            "ticks": 21120,
            "time": 112.21253999999999,
            "value": 0.5039370078740157
          },
          {
            "number": 10,
            "ticks": 21120,
            "time": 112.21253999999999,
            "value": 0.5039370078740157
          }
        ],
        "100": [
          {
            "number": 100,
            "ticks": 0,
            "time": 0,
            "value": 0
          },
          {
            "number": 100,
            "ticks": 21120,
            "time": 112.21253999999999,
            "value": 0
          },
          {
            "number": 100,
            "ticks": 21120,
            "time": 112.21253999999999,
            "value": 0
          },
          {
            "number": 100,
            "ticks": 21120,
            "time": 112.21253999999999,
            "value": 0
          }
        ],
        "101": [
          {
            "number": 101,
            "ticks": 0,
            "time": 0,
            "value": 0
          },
          {
            "number": 101,
            "ticks": 21120,
            "time": 112.21253999999999,
            "value": 0
          },
          {
            "number": 101,
            "ticks": 21120,
            "time": 112.21253999999999,
            "value": 0
          },
          {
            "number": 101,
            "ticks": 21120,
            "time": 112.21253999999999,
            "value": 0
          }
        ]
      },
      "pitchBends": [
        {
          "ticks": 0,
          "time": 0,
          "value": 0.0399169921875
        },
        {
          "ticks": 21120,
          "time": 112.21253999999999,
          "value": 0.0399169921875
        },
        {
          "ticks": 21120,
          "time": 112.21253999999999,
          "value": 0.0399169921875
        },
        {
          "ticks": 21120,
          "time": 112.21253999999999,
          "value": 0.0399169921875
        }
      ],
      "instrument": {
        "family": "guitar",
        "number": 30,
        "name": "distortion guitar"
      },
      "name": "",
      "notes": [
        {
          "duration": 4.08576909375,
          "durationTicks": 769,
          "midi": 29,
          "name": "F1",
          "ticks": 0,
          "time": 0,
          "velocity": 0.937007874015748
        },
        {
          "duration": 4.085769093750001,
          "durationTicks": 769,
          "midi": 30,
          "name": "F#1",
          "ticks": 768,
          "time": 4.080456,
          "velocity": 0.937007874015748
        },
        {
          "duration": 0.7703985937500004,
          "durationTicks": 145,
          "midi": 35,
          "name": "B1",
          "ticks": 1536,
          "time": 8.160912,
          "velocity": 0.937007874015748
        },
        {
          "duration": 0.4144213125,
          "durationTicks": 78,
          "midi": 34,
          "name": "A#1",
          "ticks": 1680,
          "time": 8.9259975,
          "velocity": 0.8110236220472441
        },
        {
          "duration": 0.4144213125,
          "durationTicks": 78,
          "midi": 33,
          "name": "A1",
          "ticks": 1758,
          "time": 9.3404188125,
          "velocity": 0.7165354330708661
        },
        {
          "duration": 0.4144213125,
          "durationTicks": 78,
          "midi": 32,
          "name": "G#1",
          "ticks": 1835,
          "time": 9.749527031249999,
          "velocity": 0.6141732283464567
        },
        {
          "duration": 0.4144213125,
          "durationTicks": 78,
          "midi": 31,
          "name": "G1",
          "ticks": 1913,
          "time": 10.163948343749999,
          "velocity": 0.5590551181102362
        },
        {
          "duration": 0.419734406249999,
          "durationTicks": 79,
          "midi": 30,
          "name": "F#1",
          "ticks": 1990,
          "time": 10.5730565625,
          "velocity": 0.5118110236220472
        },
        {
          "duration": 0.4144213125,
          "durationTicks": 78,
          "midi": 29,
          "name": "F1",
          "ticks": 2068,
          "time": 10.987477875,
          "velocity": 0.4094488188976378
        },
        {
          "duration": 0.4144213125,
          "durationTicks": 78,
          "midi": 29,
          "name": "F1",
          "ticks": 2184,
          "time": 11.603796749999999,
          "velocity": 0.33858267716535434
        },
        {
          "duration": 0.4197344062500008,
          "durationTicks": 79,
          "midi": 29,
          "name": "F1",
          "ticks": 2300,
          "time": 12.220115624999998,
          "velocity": 0.2125984251968504
        },
        {
          "duration": 0.4144213125,
          "durationTicks": 78,
          "midi": 29,
          "name": "F1",
          "ticks": 2417,
          "time": 12.841747593749998,
          "velocity": 0.11023622047244094
        },
        {
          "duration": 1.9499054062499965,
          "durationTicks": 367,
          "midi": 41,
          "name": "F2",
          "ticks": 4032,
          "time": 21.422394,
          "velocity": 0.952755905511811
        },
        {
          "duration": 1.9499054062499965,
          "durationTicks": 367,
          "midi": 43,
          "name": "G2",
          "ticks": 4416,
          "time": 23.462622,
          "velocity": 0.952755905511811
        },
        {
          "duration": 1.94990540625,
          "durationTicks": 367,
          "midi": 45,
          "name": "A2",
          "ticks": 4800,
          "time": 25.50285,
          "velocity": 0.952755905511811
        },
        {
          "duration": 1.94990540625,
          "durationTicks": 367,
          "midi": 43,
          "name": "G2",
          "ticks": 5184,
          "time": 27.543077999999998,
          "velocity": 0.952755905511811
        },
        {
          "duration": 1.9499054062499965,
          "durationTicks": 367,
          "midi": 42,
          "name": "F#2",
          "ticks": 5568,
          "time": 29.583306,
          "velocity": 0.952755905511811
        },
        {
          "duration": 0.929791406249997,
          "durationTicks": 175,
          "midi": 41,
          "name": "F2",
          "ticks": 5952,
          "time": 31.623534,
          "velocity": 0.952755905511811
        },
        {
          "duration": 0.9297914062500041,
          "durationTicks": 175,
          "midi": 43,
          "name": "G2",
          "ticks": 6144,
          "time": 32.643648,
          "velocity": 0.952755905511811
        },
        {
          "duration": 1.9499054062500036,
          "durationTicks": 367,
          "midi": 45,
          "name": "A2",
          "ticks": 6336,
          "time": 33.663762,
          "velocity": 0.952755905511811
        },
        {
          "duration": 1.9499054062500036,
          "durationTicks": 367,
          "midi": 43,
          "name": "G2",
          "ticks": 6720,
          "time": 35.70399,
          "velocity": 0.952755905511811
        },
        {
          "duration": 1.9499054062500036,
          "durationTicks": 367,
          "midi": 42,
          "name": "F#2",
          "ticks": 7104,
          "time": 37.744218,
          "velocity": 0.952755905511811
        },
        {
          "duration": 0.9297914062500041,
          "durationTicks": 175,
          "midi": 41,
          "name": "F2",
          "ticks": 7488,
          "time": 39.784445999999996,
          "velocity": 0.952755905511811
        },
        {
          "duration": 0.9297914062500041,
          "durationTicks": 175,
          "midi": 43,
          "name": "G2",
          "ticks": 7680,
          "time": 40.804559999999995,
          "velocity": 0.952755905511811
        },
        {
          "duration": 1.9499054062499965,
          "durationTicks": 367,
          "midi": 45,
          "name": "A2",
          "ticks": 7872,
          "time": 41.824674,
          "velocity": 0.952755905511811
        },
        {
          "duration": 1.9499054062500036,
          "durationTicks": 367,
          "midi": 43,
          "name": "G2",
          "ticks": 8256,
          "time": 43.864902,
          "velocity": 0.952755905511811
        },
        {
          "duration": 1.9499054062500036,
          "durationTicks": 367,
          "midi": 42,
          "name": "F#2",
          "ticks": 8640,
          "time": 45.90513,
          "velocity": 0.952755905511811
        },
        {
          "duration": 0.9297914062500041,
          "durationTicks": 175,
          "midi": 41,
          "name": "F2",
          "ticks": 9024,
          "time": 47.945358,
          "velocity": 0.952755905511811
        },
        {
          "duration": 0.9297914062500041,
          "durationTicks": 175,
          "midi": 43,
          "name": "G2",
          "ticks": 9216,
          "time": 48.965472,
          "velocity": 0.952755905511811
        },
        {
          "duration": 1.9499054062500036,
          "durationTicks": 367,
          "midi": 45,
          "name": "A2",
          "ticks": 9408,
          "time": 49.985586,
          "velocity": 0.952755905511811
        },
        {
          "duration": 1.9499054062500036,
          "durationTicks": 367,
          "midi": 43,
          "name": "G2",
          "ticks": 9792,
          "time": 52.025814,
          "velocity": 0.952755905511811
        },
        {
          "duration": 1.9499054062500036,
          "durationTicks": 367,
          "midi": 42,
          "name": "F#2",
          "ticks": 10176,
          "time": 54.066041999999996,
          "velocity": 0.952755905511811
        },
        {
          "duration": 0.9297914062500041,
          "durationTicks": 175,
          "midi": 41,
          "name": "F2",
          "ticks": 10560,
          "time": 56.106269999999995,
          "velocity": 0.952755905511811
        },
        {
          "duration": 0.929791406249997,
          "durationTicks": 175,
          "midi": 43,
          "name": "G2",
          "ticks": 10752,
          "time": 57.126384,
          "velocity": 0.952755905511811
        },
        {
          "duration": 1.9499054062499965,
          "durationTicks": 367,
          "midi": 45,
          "name": "A2",
          "ticks": 10944,
          "time": 58.146498,
          "velocity": 0.952755905511811
        },
        {
          "duration": 1.9499054062500036,
          "durationTicks": 367,
          "midi": 43,
          "name": "G2",
          "ticks": 11328,
          "time": 60.186726,
          "velocity": 0.952755905511811
        },
        {
          "duration": 1.9499054062500036,
          "durationTicks": 367,
          "midi": 42,
          "name": "F#2",
          "ticks": 11712,
          "time": 62.226954,
          "velocity": 0.952755905511811
        },
        {
          "duration": 0.9297914062500041,
          "durationTicks": 175,
          "midi": 41,
          "name": "F2",
          "ticks": 12096,
          "time": 64.26718199999999,
          "velocity": 0.952755905511811
        },
        {
          "duration": 0.9297914062499899,
          "durationTicks": 175,
          "midi": 43,
          "name": "G2",
          "ticks": 12288,
          "time": 65.287296,
          "velocity": 0.952755905511811
        },
        {
          "duration": 1.9499054062499823,
          "durationTicks": 367,
          "midi": 45,
          "name": "A2",
          "ticks": 12480,
          "time": 66.30741,
          "velocity": 0.952755905511811
        },
        {
          "duration": 1.9499054062499823,
          "durationTicks": 367,
          "midi": 43,
          "name": "G2",
          "ticks": 12864,
          "time": 68.347638,
          "velocity": 0.952755905511811
        },
        {
          "duration": 1.9499054062499965,
          "durationTicks": 367,
          "midi": 42,
          "name": "F#2",
          "ticks": 13248,
          "time": 70.387866,
          "velocity": 0.952755905511811
        },
        {
          "duration": 0.9297914062499899,
          "durationTicks": 175,
          "midi": 41,
          "name": "F2",
          "ticks": 13632,
          "time": 72.428094,
          "velocity": 0.952755905511811
        },
        {
          "duration": 0.9297914062500041,
          "durationTicks": 175,
          "midi": 43,
          "name": "G2",
          "ticks": 13824,
          "time": 73.448208,
          "velocity": 0.952755905511811
        },
        {
          "duration": 2.0508541875000077,
          "durationTicks": 386,
          "midi": 41,
          "name": "F2",
          "ticks": 14016,
          "time": 74.468322,
          "velocity": 0.952755905511811
        },
        {
          "duration": 2.0508541875000077,
          "durationTicks": 386,
          "midi": 43,
          "name": "G2",
          "ticks": 14400,
          "time": 76.50855,
          "velocity": 0.952755905511811
        },
        {
          "duration": 1.9233399375000033,
          "durationTicks": 362,
          "midi": 42,
          "name": "F#2",
          "ticks": 14784,
          "time": 78.548778,
          "velocity": 0.952755905511811
        },
        {
          "duration": 2.0508541875000077,
          "durationTicks": 386,
          "midi": 42,
          "name": "F#2",
          "ticks": 15168,
          "time": 80.589006,
          "velocity": 0.952755905511811
        },
        {
          "duration": 2.0508541875000077,
          "durationTicks": 386,
          "midi": 41,
          "name": "F2",
          "ticks": 15552,
          "time": 82.629234,
          "velocity": 0.952755905511811
        },
        {
          "duration": 2.0508541875000077,
          "durationTicks": 386,
          "midi": 43,
          "name": "G2",
          "ticks": 15936,
          "time": 84.669462,
          "velocity": 0.952755905511811
        },
        {
          "duration": 1.9233399375000033,
          "durationTicks": 362,
          "midi": 45,
          "name": "A2",
          "ticks": 16320,
          "time": 86.70969,
          "velocity": 0.952755905511811
        },
        {
          "duration": 2.0508541875000077,
          "durationTicks": 386,
          "midi": 45,
          "name": "A2",
          "ticks": 16704,
          "time": 88.749918,
          "velocity": 0.952755905511811
        },
        {
          "duration": 1.9233399375000033,
          "durationTicks": 362,
          "midi": 41,
          "name": "F2",
          "ticks": 17088,
          "time": 90.790146,
          "velocity": 0.952755905511811
        },
        {
          "duration": 1.9233399375000033,
          "durationTicks": 362,
          "midi": 43,
          "name": "G2",
          "ticks": 17472,
          "time": 92.83037399999999,
          "velocity": 0.952755905511811
        },
        {
          "duration": 0.9032259375000109,
          "durationTicks": 170,
          "midi": 45,
          "name": "A2",
          "ticks": 17856,
          "time": 94.87060199999999,
          "velocity": 0.952755905511811
        },
        {
          "duration": 0.9032259375000109,
          "durationTicks": 170,
          "midi": 44,
          "name": "G#2",
          "ticks": 18048,
          "time": 95.890716,
          "velocity": 0.952755905511811
        },
        {
          "duration": 0.9032259375000109,
          "durationTicks": 170,
          "midi": 43,
          "name": "G2",
          "ticks": 18240,
          "time": 96.91082999999999,
          "velocity": 0.952755905511811
        },
        {
          "duration": 0.9032259375000109,
          "durationTicks": 170,
          "midi": 42,
          "name": "F#2",
          "ticks": 18432,
          "time": 97.930944,
          "velocity": 0.952755905511811
        },
        {
          "duration": 1.9233399375000033,
          "durationTicks": 362,
          "midi": 41,
          "name": "F2",
          "ticks": 18624,
          "time": 98.951058,
          "velocity": 0.952755905511811
        },
        {
          "duration": 1.9233399375000033,
          "durationTicks": 362,
          "midi": 43,
          "name": "G2",
          "ticks": 19008,
          "time": 100.991286,
          "velocity": 0.952755905511811
        },
        {
          "duration": 0.9032259374999967,
          "durationTicks": 170,
          "midi": 45,
          "name": "A2",
          "ticks": 19392,
          "time": 103.031514,
          "velocity": 0.952755905511811
        },
        {
          "duration": 0.9032259375000109,
          "durationTicks": 170,
          "midi": 44,
          "name": "G#2",
          "ticks": 19584,
          "time": 104.051628,
          "velocity": 0.952755905511811
        },
        {
          "duration": 0.9032259374999967,
          "durationTicks": 170,
          "midi": 43,
          "name": "G2",
          "ticks": 19776,
          "time": 105.071742,
          "velocity": 0.952755905511811
        },
        {
          "duration": 0.9032259375000109,
          "durationTicks": 170,
          "midi": 42,
          "name": "F#2",
          "ticks": 19968,
          "time": 106.09185599999999,
          "velocity": 0.952755905511811
        }
      ]
    }
  ]
}