{
  "header": {
    "keySignatures": [],
    "meta": [],
    "name": "",
    "ppq": 96,
    "tempos": [
      {
        "bpm": 210.00021000021,
        "ticks": 0
      }
    ],
    "timeSignatures": [
      {
        "ticks": 0,
        "timeSignature": [
          4,
          4
        ],
        "measures": 0
      }
    ]
  },
  "tracks": [
    {
      "channel": 0,
      "controlChanges": {},
      "pitchBends": [],
      "instrument": {
        "family": "piano",
        "number": 0,
        "name": "acoustic grand piano"
      },
      "name": "",
      "notes": [],
      "endOfTrackTicks": 0
    },
    {
      "channel": 0,
      "controlChanges": {
        "6": [
          {
            "number": 6,
            "ticks": 0,
            "time": 0,
            "value": 0.09448818897637795
          },
          {
            "number": 6,
            "ticks": 0,
            "time": 0,
            "value": 0.09448818897637795
          },
          {
            "number": 6,
            "ticks": 0,
            "time": 0,
            "value": 0.09448818897637795
          },
          {
            "number": 6,
            "ticks": 47690,
            "time": 141.934381875,
            "value": 0.09448818897637795
          },
          {
            "number": 6,
            "ticks": 47692,
            "time": 141.94033425,
            "value": 0.09448818897637795
          }
        ],
        "7": [
          {
            "number": 7,
            "ticks": 0,
            "time": 0,
            "value": 0.7874015748031497
          },
          {
            "number": 7,
            "ticks": 0,
            "time": 0,
            "value": 0.7874015748031497
          },
          {
            "number": 7,
            "ticks": 0,
            "time": 0,
            "value": 0.7874015748031497
          },
          {
            "number": 7,
            "ticks": 0,
            "time": 0,
            "value": 0.7874015748031497
          },
          {
            "number": 7,
            "ticks": 47690,
            "time": 141.934381875,
            "value": 0.7874015748031497
          },
          {
            "number": 7,
            "ticks": 47692,
            "time": 141.94033425,
            "value": 0.7874015748031497
          }
        ],
        "10": [
          {
            "number": 10,
            "ticks": 0,
            "time": 0,
            "value": 0.5039370078740157
          },
          {
            "number": 10,
            "ticks": 0,
            "time": 0,
            "value": 0.5039370078740157
          },
          {
            "number": 10,
            "ticks": 0,
            "time": 0,
            "value": 0.5039370078740157
          },
          {
            "number": 10,
            "ticks": 0,
            "time": 0,
            "value": 0.5039370078740157
          },
          {
            "number": 10,
            "ticks": 47690,
            "time": 141.934381875,
            "value": 0.5039370078740157
          },
          {
            "number": 10,
            "ticks": 47692,
            "time": 141.94033425,
            "value": 0.5039370078740157
          }
        ],
        "100": [
          {
            "number": 100,
            "ticks": 0,
            "time": 0,
            "value": 0
          },
          {
            "number": 100,
            "ticks": 0,
            "time": 0,
            "value": 0
          },
          {
            "number": 100,
            "ticks": 0,
            "time": 0,
            "value": 0
          },
          {
            "number": 100,
            "ticks": 47690,
            "time": 141.934381875,
            "value": 0
          },
          {
            "number": 100,
            "ticks": 47692,
            "time": 141.94033425,
            "value": 0
          }
        ],
        "101": [
          {
            "number": 101,
            "ticks": 0,
            "time": 0,
            "value": 0
          },
          {
            "number": 101,
            "ticks": 0,
            "time": 0,
            "value": 0
          },
          {
            "number": 101,
            "ticks": 0,
            "time": 0,
            "value": 0
          },
          {
            "number": 101,
            "ticks": 47690,
            "time": 141.934381875,
            "value": 0
          },
          {
            "number": 101,
            "ticks": 47692,
            "time": 141.94033425,
            "value": 0
          }
        ]
      },
      "pitchBends": [
        {
          "ticks": 0,
          "time": 0,
          "value": 0
        },
        {
          "ticks": 0,
          "time": 0,
          "value": 0
        },
        {
          "ticks": 0,
          "time": 0,
          "value": 0
        },
        {
          "ticks": 0,
          "time": 0,
          "value": 0
        },
        {
          "ticks": 47690,
          "time": 141.934381875,
          "value": 0
        },
        {
          "ticks": 47692,
          "time": 141.94033425,
          "value": 0
        }
      ],
      "instrument": {
        "family": "piano",
        "number": 0,
        "name": "acoustic grand piano"
      },
      "name": "Sampler",
      "notes": [],
      "endOfTrackTicks": 47692
    },
    {
      "channel": 1,
      "controlChanges": {
        "6": [
          {
            "number": 6,
            "ticks": 0,
            "time": 0,
            "value": 0.09448818897637795
          },
          {
            "number": 6,
            "ticks": 0,
            "time": 0,
            "value": 0.09448818897637795
          },
          {
            "number": 6,
            "ticks": 0,
            "time": 0,
            "value": 0.09448818897637795
          },
          {
            "number": 6,
            "ticks": 47690,
            "time": 141.934381875,
            "value": 0.09448818897637795
          },
          {
            "number": 6,
            "ticks": 47692,
            "time": 141.94033425,
            "value": 0.09448818897637795
          }
        ],
        "7": [
          {
            "number": 7,
            "ticks": 0,
            "time": 0,
            "value": 0.7874015748031497
          },
          {
            "number": 7,
            "ticks": 0,
            "time": 0,
            "value": 0.7874015748031497
          },
          {
            "number": 7,
            "ticks": 0,
            "time": 0,
            "value": 0.7874015748031497
          },
          {
            "number": 7,
            "ticks": 0,
            "time": 0,
            "value": 0.7874015748031497
          },
          {
            "number": 7,
            "ticks": 47690,
            "time": 141.934381875,
            "value": 0.7874015748031497
          },
          {
            "number": 7,
            "ticks": 47692,
            "time": 141.94033425,
            "value": 0.7874015748031497
          }
        ],
        "10": [
          {
            "number": 10,
            "ticks": 0,
            "time": 0,
            "value": 0.5039370078740157
          },
          {
            "number": 10,
            "ticks": 0,
            "time": 0,
            "value": 0.5039370078740157
          },
          {
            "number": 10,
            "ticks": 0,
            "time": 0,
            "value": 0.5039370078740157
          },
          {
            "number": 10,
            "ticks": 0,
            "time": 0,
            "value": 0.5039370078740157
          },
          {
            "number": 10,
            "ticks": 47690,
            "time": 141.934381875,
            "value": 0.5039370078740157
          },
          {
            "number": 10,
            "ticks": 47692,
            "time": 141.94033425,
            "value": 0.5039370078740157
          }
        ],
        "100": [
          {
            "number": 100,
            "ticks": 0,
            "time": 0,
            "value": 0
          },
          {
            "number": 100,
            "ticks": 0,
            "time": 0,
            "value": 0
          },
          {
            "number": 100,
            "ticks": 0,
            "time": 0,
            "value": 0
          },
          {
            "number": 100,
            "ticks": 47690,
            "time": 141.934381875,
            "value": 0
          },
          {
            "number": 100,
            "ticks": 47692,
            "time": 141.94033425,
            "value": 0
          }
        ],
        "101": [
          {
            "number": 101,
            "ticks": 0,
            "time": 0,
            "value": 0
          },
          {
            "number": 101,
            "ticks": 0,
            "time": 0,
            "value": 0
          },
          {
            "number": 101,
            "ticks": 0,
            "time": 0,
            "value": 0
          },
          {
            "number": 101,
            "ticks": 47690,
            "time": 141.934381875,
            "value": 0
          },
          {
            "number": 101,
            "ticks": 47692,
            "time": 141.94033425,
            "value": 0
          }
        ]
      },
      "pitchBends": [
        {
          "ticks": 0,
          "time": 0,
          "value": 0
        },
        {
          "ticks": 0,
          "time": 0,
          "value": 0
        },
        {
          "ticks": 0,
          "time": 0,
          "value": 0
        },
        {
          "ticks": 0,
          "time": 0,
          "value": 0
        },
        {
          "ticks": 47690,
          "time": 141.934381875,
          "value": 0
        },
        {
          "ticks": 47692,
          "time": 141.94033425,
          "value": 0
        }
      ],
      "instrument": {
        "family": "piano",
        "number": 0,
        "name": "acoustic grand piano"
      },
      "name": "Sample",
      "notes": [
        {
          "duration": 0.19940456249999983,
          "durationTicks": 67,
          "midi": 74,
          "name": "D5",
          "ticks": 5904,
          "time": 17.571411,
          "velocity": 0.6771653543307087
        },
        {
          "duration": 0.19940456249999983,
          "durationTicks": 67,
          "midi": 74,
          "name": "D5",
          "ticks": 5976,
          "time": 17.7856965,
          "velocity": 0.6771653543307087
        },
        {
          "duration": 0.19940456249999983,
          "durationTicks": 67,
          "midi": 86,
          "name": "D6",
          "ticks": 6120,
          "time": 18.214267500000002,
          "velocity": 0.6771653543307087
        },
        {
          "duration": 0.19940456249999983,
          "durationTicks": 67,
          "midi": 86,
          "name": "D6",
          "ticks": 6204,
          "time": 18.464267250000002,
          "velocity": 0.6771653543307087
        },
        {
          "duration": 0.2708330624999995,
          "durationTicks": 91,
          "midi": 86,
          "name": "D6",
          "ticks": 6288,
          "time": 18.714267000000003,
          "velocity": 0.6771653543307087
        },
        {
          "duration": 0.19940456250000693,
          "durationTicks": 67,
          "midi": 62,
          "name": "D4",
          "ticks": 31968,
          "time": 95.142762,
          "velocity": 0.6771653543307087
        },
        {
          "duration": 0.1279760625000108,
          "durationTicks": 43,
          "midi": 62,
          "name": "D4",
          "ticks": 32064,
          "time": 95.428476,
          "velocity": 0.6771653543307087
        },
        {
          "duration": 0.1279760624999966,
          "durationTicks": 43,
          "midi": 62,
          "name": "D4",
          "ticks": 32112,
          "time": 95.57133300000001,
          "velocity": 0.6771653543307087
        },
        {
          "duration": 0.1279760625000108,
          "durationTicks": 43,
          "midi": 62,
          "name": "D4",
          "ticks": 32160,
          "time": 95.71419,
          "velocity": 0.6771653543307087
        },
        {
          "duration": 0.1279760624999966,
          "durationTicks": 43,
          "midi": 62,
          "name": "D4",
          "ticks": 32256,
          "time": 95.99990400000002,
          "velocity": 0.6771653543307087
        },
        {
          "duration": 0.05654756250000048,
          "durationTicks": 19,
          "midi": 62,
          "name": "D4",
          "ticks": 32304,
          "time": 96.14276100000001,
          "velocity": 0.6771653543307087
        },
        {
          "duration": 0.05654756250001469,
          "durationTicks": 19,
          "midi": 62,
          "name": "D4",
          "ticks": 32328,
          "time": 96.2141895,
          "velocity": 0.6771653543307087
        },
        {
          "duration": 0.1279760624999966,
          "durationTicks": 43,
          "midi": 62,
          "name": "D4",
          "ticks": 32352,
          "time": 96.28561800000001,
          "velocity": 0.6771653543307087
        },
        {
          "duration": 0.1279760625000108,
          "durationTicks": 43,
          "midi": 62,
          "name": "D4",
          "ticks": 32400,
          "time": 96.428475,
          "velocity": 0.6771653543307087
        },
        {
          "duration": 0.1279760624999966,
          "durationTicks": 43,
          "midi": 62,
          "name": "D4",
          "ticks": 32448,
          "time": 96.57133200000001,
          "velocity": 0.6771653543307087
        },
        {
          "duration": 0.1279760625000108,
          "durationTicks": 43,
          "midi": 62,
          "name": "D4",
          "ticks": 32496,
          "time": 96.714189,
          "velocity": 0.6771653543307087
        },
        {
          "duration": 0.235118812500005,
          "durationTicks": 79,
          "midi": 62,
          "name": "D4",
          "ticks": 32544,
          "time": 96.85704600000001,
          "velocity": 0.6771653543307087
        }
      ],
      "endOfTrackTicks": 47692
    },
    {
      "channel": 2,
      "controlChanges": {
        "6": [
          {
            "number": 6,
            "ticks": 0,
            "time": 0,
            "value": 0.09448818897637795
          },
          {
            "number": 6,
            "ticks": 0,
            "time": 0,
            "value": 0.09448818897637795
          },
          {
            "number": 6,
            "ticks": 0,
            "time": 0,
            "value": 0.09448818897637795
          },
          {
            "number": 6,
            "ticks": 47690,
            "time": 141.934381875,
            "value": 0.09448818897637795
          },
          {
            "number": 6,
            "ticks": 47692,
            "time": 141.94033425,
            "value": 0.09448818897637795
          }
        ],
        "7": [
          {
            "number": 7,
            "ticks": 0,
            "time": 0,
            "value": 0.7874015748031497
          },
          {
            "number": 7,
            "ticks": 0,
            "time": 0,
            "value": 0.7874015748031497
          },
          {
            "number": 7,
            "ticks": 0,
            "time": 0,
            "value": 0.7874015748031497
          },
          {
            "number": 7,
            "ticks": 0,
            "time": 0,
            "value": 0.7874015748031497
          },
          {
            "number": 7,
            "ticks": 47690,
            "time": 141.934381875,
            "value": 0.7874015748031497
          },
          {
            "number": 7,
            "ticks": 47692,
            "time": 141.94033425,
            "value": 0.7874015748031497
          }
        ],
        "10": [
          {
            "number": 10,
            "ticks": 0,
            "time": 0,
            "value": 0.5039370078740157
          },
          {
            "number": 10,
            "ticks": 0,
            "time": 0,
            "value": 0.5039370078740157
          },
          {
            "number": 10,
            "ticks": 0,
            "time": 0,
            "value": 0.5039370078740157
          },
          {
            "number": 10,
            "ticks": 0,
            "time": 0,
            "value": 0.5039370078740157
          },
          {
            "number": 10,
            "ticks": 47690,
            "time": 141.934381875,
            "value": 0.5039370078740157
          },
          {
            "number": 10,
            "ticks": 47692,
            "time": 141.94033425,
            "value": 0.5039370078740157
          }
        ],
        "100": [
          {
            "number": 100,
            "ticks": 0,
            "time": 0,
            "value": 0
          },
          {
            "number": 100,
            "ticks": 0,
            "time": 0,
            "value": 0
          },
          {
            "number": 100,
            "ticks": 0,
            "time": 0,
            "value": 0
          },
          {
            "number": 100,
            "ticks": 47690,
            "time": 141.934381875,
            "value": 0
          },
          {
            "number": 100,
            "ticks": 47692,
            "time": 141.94033425,
            "value": 0
          }
        ],
        "101": [
          {
            "number": 101,
            "ticks": 0,
            "time": 0,
            "value": 0
          },
          {
            "number": 101,
            "ticks": 0,
            "time": 0,
            "value": 0
          },
          {
            "number": 101,
            "ticks": 0,
            "time": 0,
            "value": 0
          },
          {
            "number": 101,
            "ticks": 47690,
            "time": 141.934381875,
            "value": 0
          },
          {
            "number": 101,
            "ticks": 47692,
            "time": 141.94033425,
            "value": 0
          }
        ]
      },
      "pitchBends": [
        {
          "ticks": 0,
          "time": 0,
          "value": 0
        },
        {
          "ticks": 0,
          "time": 0,
          "value": 0
        },
        {
          "ticks": 0,
          "time": 0,
          "value": 0
        },
        {
          "ticks": 0,
          "time": 0,
          "value": 0
        },
        {
          "ticks": 47690,
          "time": 141.934381875,
          "value": 0
        },
        {
          "ticks": 47692,
          "time": 141.94033425,
          "value": 0
        }
      ],
      "instrument": {
        "family": "piano",
        "number": 0,
        "name": "acoustic grand piano"
      },
      "name": "Choir",
      "notes": [
        {
          "duration": 0.28571400000000047,
          "durationTicks": 96,
          "midi": 46,
          "name": "A#2",
          "ticks": 1920,
          "time": 5.7142800000000005,
          "velocity": 0.5984251968503937
        },
        {
          "duration": 0.28571400000000047,
          "durationTicks": 96,
          "midi": 55,
          "name": "G3",
          "ticks": 1920,
          "time": 5.7142800000000005,
          "velocity": 0.5984251968503937
        },
        {
          "duration": 0.28571400000000047,
          "durationTicks": 96,
          "midi": 58,
          "name": "A#3",
          "ticks": 1920,
          "time": 5.7142800000000005,
          "velocity": 0.5984251968503937
        },
        {
          "duration": 0.28571400000000047,
          "durationTicks": 96,
          "midi": 50,
          "name": "D3",
          "ticks": 1920,
          "time": 5.7142800000000005,
          "velocity": 0.5984251968503937
        },
        {
          "duration": 0.2857139999999996,
          "durationTicks": 96,
          "midi": 46,
          "name": "A#2",
          "ticks": 2112,
          "time": 6.2857080000000005,
          "velocity": 0.5984251968503937
        },
        {
          "duration": 0.2857139999999996,
          "durationTicks": 96,
          "midi": 55,
          "name": "G3",
          "ticks": 2112,
          "time": 6.2857080000000005,
          "velocity": 0.5984251968503937
        },
        {
          "duration": 0.2857139999999996,
          "durationTicks": 96,
          "midi": 50,
          "name": "D3",
          "ticks": 2112,
          "time": 6.2857080000000005,
          "velocity": 0.5984251968503937
        },
        {
          "duration": 0.28571400000000047,
          "durationTicks": 96,
          "midi": 50,
          "name": "D3",
          "ticks": 2304,
          "time": 6.857136000000001,
          "velocity": 0.5984251968503937
        },
        {
          "duration": 0.28571400000000047,
          "durationTicks": 96,
          "midi": 57,
          "name": "A3",
          "ticks": 2304,
          "time": 6.857136000000001,
          "velocity": 0.5984251968503937
        },
        {
          "duration": 0.28571400000000047,
          "durationTicks": 96,
          "midi": 54,
          "name": "F#3",
          "ticks": 2304,
          "time": 6.857136000000001,
          "velocity": 0.5984251968503937
        },
        {
          "duration": 0.2857139999999996,
          "durationTicks": 96,
          "midi": 50,
          "name": "D3",
          "ticks": 2496,
          "time": 7.428564000000001,
          "velocity": 0.5984251968503937
        },
        {
          "duration": 0.2857139999999996,
          "durationTicks": 96,
          "midi": 62,
          "name": "D4",
          "ticks": 2496,
          "time": 7.428564000000001,
          "velocity": 0.5984251968503937
        },
        {
          "duration": 0.2857139999999996,
          "durationTicks": 96,
          "midi": 57,
          "name": "A3",
          "ticks": 2496,
          "time": 7.428564000000001,
          "velocity": 0.5984251968503937
        },
        {
          "duration": 0.2857139999999996,
          "durationTicks": 96,
          "midi": 54,
          "name": "F#3",
          "ticks": 2496,
          "time": 7.428564000000001,
          "velocity": 0.5984251968503937
        },
        {
          "duration": 0.28571400000000047,
          "durationTicks": 96,
          "midi": 46,
          "name": "A#2",
          "ticks": 2688,
          "time": 7.999992000000001,
          "velocity": 0.5984251968503937
        },
        {
          "duration": 0.28571400000000047,
          "durationTicks": 96,
          "midi": 58,
          "name": "A#3",
          "ticks": 2688,
          "time": 7.999992000000001,
          "velocity": 0.5984251968503937
        },
        {
          "duration": 0.28571400000000047,
          "durationTicks": 96,
          "midi": 50,
          "name": "D3",
          "ticks": 2688,
          "time": 7.999992000000001,
          "velocity": 0.5984251968503937
        },
        {
          "duration": 0.28571400000000047,
          "durationTicks": 96,
          "midi": 53,
          "name": "F3",
          "ticks": 2688,
          "time": 7.999992000000001,
          "velocity": 0.5984251968503937
        },
        {
          "duration": 0.28571400000000047,
          "durationTicks": 96,
          "midi": 53,
          "name": "F3",
          "ticks": 2880,
          "time": 8.57142,
          "velocity": 0.5984251968503937
        },
        {
          "duration": 0.28571400000000047,
          "durationTicks": 96,
          "midi": 50,
          "name": "D3",
          "ticks": 2880,
          "time": 8.57142,
          "velocity": 0.5984251968503937
        },
        {
          "duration": 0.28571400000000047,
          "durationTicks": 96,
          "midi": 58,
          "name": "A#3",
          "ticks": 2880,
          "time": 8.57142,
          "velocity": 0.5984251968503937
        },
        {
          "duration": 0.28571400000000047,
          "durationTicks": 96,
          "midi": 46,
          "name": "A#2",
          "ticks": 2880,
          "time": 8.57142,
          "velocity": 0.5984251968503937
        },
        {
          "duration": 0.28571400000000047,
          "durationTicks": 96,
          "midi": 55,
          "name": "G3",
          "ticks": 3072,
          "time": 9.142848,
          "velocity": 0.5984251968503937
        },
        {
          "duration": 0.28571400000000047,
          "durationTicks": 96,
          "midi": 50,
          "name": "D3",
          "ticks": 3072,
          "time": 9.142848,
          "velocity": 0.5984251968503937
        },
        {
          "duration": 0.28571400000000047,
          "durationTicks": 96,
          "midi": 59,
          "name": "B3",
          "ticks": 3072,
          "time": 9.142848,
          "velocity": 0.5984251968503937
        },
        {
          "duration": 0.28571400000000047,
          "durationTicks": 96,
          "midi": 47,
          "name": "B2",
          "ticks": 3072,
          "time": 9.142848,
          "velocity": 0.5984251968503937
        },
        {
          "duration": 0.2857139999999987,
          "durationTicks": 96,
          "midi": 59,
          "name": "B3",
          "ticks": 3264,
          "time": 9.714276000000002,
          "velocity": 0.5984251968503937
        },
        {
          "duration": 0.2857139999999987,
          "durationTicks": 96,
          "midi": 55,
          "name": "G3",
          "ticks": 3264,
          "time": 9.714276000000002,
          "velocity": 0.5984251968503937
        },
        {
          "duration": 0.2857139999999987,
          "durationTicks": 96,
          "midi": 50,
          "name": "D3",
          "ticks": 3264,
          "time": 9.714276000000002,
          "velocity": 0.5984251968503937
        },
        {
          "duration": 0.2857139999999987,
          "durationTicks": 96,
          "midi": 47,
          "name": "B2",
          "ticks": 3264,
          "time": 9.714276000000002,
          "velocity": 0.5984251968503937
        },
        {
          "duration": 0.28571400000000047,
          "durationTicks": 96,
          "midi": 48,
          "name": "C3",
          "ticks": 3456,
          "time": 10.285704,
          "velocity": 0.5984251968503937
        },
        {
          "duration": 0.28571400000000047,
          "durationTicks": 96,
          "midi": 60,
          "name": "C4",
          "ticks": 3456,
          "time": 10.285704,
          "velocity": 0.5984251968503937
        },
        {
          "duration": 0.28571400000000047,
          "durationTicks": 96,
          "midi": 51,
          "name": "D#3",
          "ticks": 3456,
          "time": 10.285704,
          "velocity": 0.5905511811023622
        },
        {
          "duration": 0.28571400000000047,
          "durationTicks": 96,
          "midi": 55,
          "name": "G3",
          "ticks": 3456,
          "time": 10.285704,
          "velocity": 0.5984251968503937
        },
        {
          "duration": 0.28571400000000047,
          "durationTicks": 96,
          "midi": 51,
          "name": "D#3",
          "ticks": 3648,
          "time": 10.857132,
          "velocity": 0.5984251968503937
        },
        {
          "duration": 0.28571400000000047,
          "durationTicks": 96,
          "midi": 60,
          "name": "C4",
          "ticks": 3648,
          "time": 10.857132,
          "velocity": 0.5984251968503937
        },
        {
          "duration": 0.28571400000000047,
          "durationTicks": 96,
          "midi": 55,
          "name": "G3",
          "ticks": 3648,
          "time": 10.857132,
          "velocity": 0.5984251968503937
        },
        {
          "duration": 0.28571400000000047,
          "durationTicks": 96,
          "midi": 48,
          "name": "C3",
          "ticks": 3648,
          "time": 10.857132,
          "velocity": 0.5984251968503937
        },
        {
          "duration": 0.28571400000000047,
          "durationTicks": 96,
          "midi": 57,
          "name": "A3",
          "ticks": 3840,
          "time": 11.428560000000001,
          "velocity": 0.6062992125984252
        },
        {
          "duration": 0.28571400000000047,
          "durationTicks": 96,
          "midi": 49,
          "name": "C#3",
          "ticks": 3840,
          "time": 11.428560000000001,
          "velocity": 0.6062992125984252
        },
        {
          "duration": 0.28571400000000047,
          "durationTicks": 96,
          "midi": 52,
          "name": "E3",
          "ticks": 3840,
          "time": 11.428560000000001,
          "velocity": 0.6062992125984252
        },
        {
          "duration": 0.28571400000000047,
          "durationTicks": 96,
          "midi": 61,
          "name": "C#4",
          "ticks": 3840,
          "time": 11.428560000000001,
          "velocity": 0.6062992125984252
        },
        {
          "duration": 0.2857139999999987,
          "durationTicks": 96,
          "midi": 52,
          "name": "E3",
          "ticks": 4032,
          "time": 11.999988000000002,
          "velocity": 0.6062992125984252
        },
        {
          "duration": 0.2857139999999987,
          "durationTicks": 96,
          "midi": 57,
          "name": "A3",
          "ticks": 4032,
          "time": 11.999988000000002,
          "velocity": 0.5984251968503937
        },
        {
          "duration": 0.2857139999999987,
          "durationTicks": 96,
          "midi": 49,
          "name": "C#3",
          "ticks": 4032,
          "time": 11.999988000000002,
          "velocity": 0.5984251968503937
        },
        {
          "duration": 0.28571400000000047,
          "durationTicks": 96,
          "midi": 62,
          "name": "D4",
          "ticks": 4224,
          "time": 12.571416000000001,
          "velocity": 0.5905511811023622
        },
        {
          "duration": 0.28571400000000047,
          "durationTicks": 96,
          "midi": 57,
          "name": "A3",
          "ticks": 4224,
          "time": 12.571416000000001,
          "velocity": 0.5984251968503937
        },
        {
          "duration": 0.28571400000000047,
          "durationTicks": 96,
          "midi": 55,
          "name": "G3",
          "ticks": 4224,
          "time": 12.571416000000001,
          "velocity": 0.5984251968503937
        },
        {
          "duration": 0.28571400000000047,
          "durationTicks": 96,
          "midi": 50,
          "name": "D3",
          "ticks": 4224,
          "time": 12.571416000000001,
          "velocity": 0.5905511811023622
        },
        {
          "duration": 0.28571400000000047,
          "durationTicks": 96,
          "midi": 50,
          "name": "D3",
          "ticks": 4416,
          "time": 13.142844,
          "velocity": 0.6062992125984252
        },
        {
          "duration": 0.28571400000000047,
          "durationTicks": 96,
          "midi": 62,
          "name": "D4",
          "ticks": 4416,
          "time": 13.142844,
          "velocity": 0.6062992125984252
        },
        {
          "duration": 0.28571400000000047,
          "durationTicks": 96,
          "midi": 57,
          "name": "A3",
          "ticks": 4416,
          "time": 13.142844,
          "velocity": 0.5905511811023622
        },
        {
          "duration": 0.28571400000000047,
          "durationTicks": 96,
          "midi": 55,
          "name": "G3",
          "ticks": 4416,
          "time": 13.142844,
          "velocity": 0.5984251968503937
        },
        {
          "duration": 0.28571400000000047,
          "durationTicks": 96,
          "midi": 50,
          "name": "D3",
          "ticks": 4608,
          "time": 13.714272000000001,
          "velocity": 0.5905511811023622
        },
        {
          "duration": 0.28571400000000047,
          "durationTicks": 96,
          "midi": 62,
          "name": "D4",
          "ticks": 4608,
          "time": 13.714272000000001,
          "velocity": 0.5905511811023622
        },
        {
          "duration": 0.28571400000000047,
          "durationTicks": 96,
          "midi": 57,
          "name": "A3",
          "ticks": 4608,
          "time": 13.714272000000001,
          "velocity": 0.5984251968503937
        },
        {
          "duration": 0.28571400000000047,
          "durationTicks": 96,
          "midi": 55,
          "name": "G3",
          "ticks": 4608,
          "time": 13.714272000000001,
          "velocity": 0.6062992125984252
        },
        {
          "duration": 0.2857139999999987,
          "durationTicks": 96,
          "midi": 50,
          "name": "D3",
          "ticks": 4800,
          "time": 14.285700000000002,
          "velocity": 0.5905511811023622
        },
        {
          "duration": 0.2857139999999987,
          "durationTicks": 96,
          "midi": 62,
          "name": "D4",
          "ticks": 4800,
          "time": 14.285700000000002,
          "velocity": 0.5905511811023622
        },
        {
          "duration": 0.2857139999999987,
          "durationTicks": 96,
          "midi": 57,
          "name": "A3",
          "ticks": 4800,
          "time": 14.285700000000002,
          "velocity": 0.6062992125984252
        },
        {
          "duration": 0.2857139999999987,
          "durationTicks": 96,
          "midi": 55,
          "name": "G3",
          "ticks": 4800,
          "time": 14.285700000000002,
          "velocity": 0.5984251968503937
        },
        {
          "duration": 0.28571400000000047,
          "durationTicks": 96,
          "midi": 62,
          "name": "D4",
          "ticks": 4992,
          "time": 14.857128000000001,
          "velocity": 0.5984251968503937
        },
        {
          "duration": 0.28571400000000047,
          "durationTicks": 96,
          "midi": 50,
          "name": "D3",
          "ticks": 4992,
          "time": 14.857128000000001,
          "velocity": 0.5984251968503937
        },
        {
          "duration": 0.28571400000000047,
          "durationTicks": 96,
          "midi": 54,
          "name": "F#3",
          "ticks": 4992,
          "time": 14.857128000000001,
          "velocity": 0.5984251968503937
        },
        {
          "duration": 0.28571400000000047,
          "durationTicks": 96,
          "midi": 57,
          "name": "A3",
          "ticks": 4992,
          "time": 14.857128000000001,
          "velocity": 0.6062992125984252
        },
        {
          "duration": 0.28571400000000047,
          "durationTicks": 96,
          "midi": 54,
          "name": "F#3",
          "ticks": 5184,
          "time": 15.428556,
          "velocity": 0.5984251968503937
        },
        {
          "duration": 0.28571400000000047,
          "durationTicks": 96,
          "midi": 57,
          "name": "A3",
          "ticks": 5184,
          "time": 15.428556,
          "velocity": 0.5905511811023622
        },
        {
          "duration": 0.28571400000000047,
          "durationTicks": 96,
          "midi": 62,
          "name": "D4",
          "ticks": 5184,
          "time": 15.428556,
          "velocity": 0.5905511811023622
        },
        {
          "duration": 0.28571400000000047,
          "durationTicks": 96,
          "midi": 50,
          "name": "D3",
          "ticks": 5184,
          "time": 15.428556,
          "velocity": 0.5905511811023622
        },
        {
          "duration": 0.2857139999999987,
          "durationTicks": 96,
          "midi": 54,
          "name": "F#3",
          "ticks": 5376,
          "time": 15.999984000000001,
          "velocity": 0.6062992125984252
        },
        {
          "duration": 0.2857139999999987,
          "durationTicks": 96,
          "midi": 57,
          "name": "A3",
          "ticks": 5376,
          "time": 15.999984000000001,
          "velocity": 0.5984251968503937
        },
        {
          "duration": 0.2857139999999987,
          "durationTicks": 96,
          "midi": 62,
          "name": "D4",
          "ticks": 5376,
          "time": 15.999984000000001,
          "velocity": 0.5984251968503937
        },
        {
          "duration": 0.2857139999999987,
          "durationTicks": 96,
          "midi": 50,
          "name": "D3",
          "ticks": 5376,
          "time": 15.999984000000001,
          "velocity": 0.5984251968503937
        },
        {
          "duration": 0.2857139999999987,
          "durationTicks": 96,
          "midi": 50,
          "name": "D3",
          "ticks": 5568,
          "time": 16.571412000000002,
          "velocity": 0.6062992125984252
        },
        {
          "duration": 0.2857139999999987,
          "durationTicks": 96,
          "midi": 57,
          "name": "A3",
          "ticks": 5568,
          "time": 16.571412000000002,
          "velocity": 0.5905511811023622
        },
        {
          "duration": 0.2857139999999987,
          "durationTicks": 96,
          "midi": 54,
          "name": "F#3",
          "ticks": 5568,
          "time": 16.571412000000002,
          "velocity": 0.5905511811023622
        },
        {
          "duration": 0.2857139999999987,
          "durationTicks": 96,
          "midi": 62,
          "name": "D4",
          "ticks": 5568,
          "time": 16.571412000000002,
          "velocity": 0.6062992125984252
        },
        {
          "duration": 0.2619045,
          "durationTicks": 88,
          "midi": 50,
          "name": "D3",
          "ticks": 6528,
          "time": 19.428552000000003,
          "velocity": 0.6535433070866141
        },
        {
          "duration": 0.2619045,
          "durationTicks": 88,
          "midi": 55,
          "name": "G3",
          "ticks": 6528,
          "time": 19.428552000000003,
          "velocity": 0.6535433070866141
        },
        {
          "duration": 0.2619045,
          "durationTicks": 88,
          "midi": 46,
          "name": "A#2",
          "ticks": 6528,
          "time": 19.428552000000003,
          "velocity": 0.6535433070866141
        },
        {
          "duration": 0.2619045,
          "durationTicks": 88,
          "midi": 54,
          "name": "F#3",
          "ticks": 6672,
          "time": 19.857123,
          "velocity": 0.6535433070866141
        },
        {
          "duration": 0.2619045,
          "durationTicks": 88,
          "midi": 50,
          "name": "D3",
          "ticks": 6672,
          "time": 19.857123,
          "velocity": 0.6535433070866141
        },
        {
          "duration": 0.2619045,
          "durationTicks": 88,
          "midi": 45,
          "name": "A2",
          "ticks": 6672,
          "time": 19.857123,
          "velocity": 0.6535433070866141
        },
        {
          "duration": 0.2619045,
          "durationTicks": 88,
          "midi": 55,
          "name": "G3",
          "ticks": 6816,
          "time": 20.285694000000003,
          "velocity": 0.6535433070866141
        },
        {
          "duration": 0.2619045,
          "durationTicks": 88,
          "midi": 50,
          "name": "D3",
          "ticks": 6816,
          "time": 20.285694000000003,
          "velocity": 0.6535433070866141
        },
        {
          "duration": 0.2619045,
          "durationTicks": 88,
          "midi": 46,
          "name": "A#2",
          "ticks": 6816,
          "time": 20.285694000000003,
          "velocity": 0.6535433070866141
        },
        {
          "duration": 0.26190450000000354,
          "durationTicks": 88,
          "midi": 54,
          "name": "F#3",
          "ticks": 6960,
          "time": 20.714265,
          "velocity": 0.6535433070866141
        },
        {
          "duration": 0.26190450000000354,
          "durationTicks": 88,
          "midi": 50,
          "name": "D3",
          "ticks": 6960,
          "time": 20.714265,
          "velocity": 0.6535433070866141
        },
        {
          "duration": 0.26190450000000354,
          "durationTicks": 88,
          "midi": 45,
          "name": "A2",
          "ticks": 6960,
          "time": 20.714265,
          "velocity": 0.6535433070866141
        },
        {
          "duration": 0.2619045,
          "durationTicks": 88,
          "midi": 46,
          "name": "A#2",
          "ticks": 7104,
          "time": 21.142836000000003,
          "velocity": 0.6535433070866141
        },
        {
          "duration": 0.2619045,
          "durationTicks": 88,
          "midi": 55,
          "name": "G3",
          "ticks": 7104,
          "time": 21.142836000000003,
          "velocity": 0.6535433070866141
        },
        {
          "duration": 0.2619045,
          "durationTicks": 88,
          "midi": 50,
          "name": "D3",
          "ticks": 7104,
          "time": 21.142836000000003,
          "velocity": 0.6535433070866141
        },
        {
          "duration": 0.26190450000000354,
          "durationTicks": 88,
          "midi": 54,
          "name": "F#3",
          "ticks": 7200,
          "time": 21.42855,
          "velocity": 0.6535433070866141
        },
        {
          "duration": 0.26190450000000354,
          "durationTicks": 88,
          "midi": 50,
          "name": "D3",
          "ticks": 7200,
          "time": 21.42855,
          "velocity": 0.6535433070866141
        },
        {
          "duration": 0.26190450000000354,
          "durationTicks": 88,
          "midi": 45,
          "name": "A2",
          "ticks": 7200,
          "time": 21.42855,
          "velocity": 0.6535433070866141
        },
        {
          "duration": 0.26190450000000354,
          "durationTicks": 88,
          "midi": 55,
          "name": "G3",
          "ticks": 7296,
          "time": 21.714264,
          "velocity": 0.6535433070866141
        },
        {
          "duration": 0.26190450000000354,
          "durationTicks": 88,
          "midi": 50,
          "name": "D3",
          "ticks": 7296,
          "time": 21.714264,
          "velocity": 0.6535433070866141
        },
        {
          "duration": 0.26190450000000354,
          "durationTicks": 88,
          "midi": 46,
          "name": "A#2",
          "ticks": 7296,
          "time": 21.714264,
          "velocity": 0.6535433070866141
        },
        {
          "duration": 0.2619045,
          "durationTicks": 88,
          "midi": 54,
          "name": "F#3",
          "ticks": 7440,
          "time": 22.142835,
          "velocity": 0.6535433070866141
        },
        {
          "duration": 0.2619045,
          "durationTicks": 88,
          "midi": 50,
          "name": "D3",
          "ticks": 7440,
          "time": 22.142835,
          "velocity": 0.6535433070866141
        },
        {
          "duration": 0.2619045,
          "durationTicks": 88,
          "midi": 45,
          "name": "A2",
          "ticks": 7440,
          "time": 22.142835,
          "velocity": 0.6535433070866141
        },
        {
          "duration": 0.2619045,
          "durationTicks": 88,
          "midi": 55,
          "name": "G3",
          "ticks": 7584,
          "time": 22.571406000000003,
          "velocity": 0.6535433070866141
        },
        {
          "duration": 0.2619045,
          "durationTicks": 88,
          "midi": 50,
          "name": "D3",
          "ticks": 7584,
          "time": 22.571406000000003,
          "velocity": 0.6535433070866141
        },
        {
          "duration": 0.2619045,
          "durationTicks": 88,
          "midi": 46,
          "name": "A#2",
          "ticks": 7584,
          "time": 22.571406000000003,
          "velocity": 0.6535433070866141
        },
        {
          "duration": 0.26190450000000354,
          "durationTicks": 88,
          "midi": 45,
          "name": "A2",
          "ticks": 7728,
          "time": 22.999977,
          "velocity": 0.6535433070866141
        },
        {
          "duration": 0.26190450000000354,
          "durationTicks": 88,
          "midi": 50,
          "name": "D3",
          "ticks": 7728,
          "time": 22.999977,
          "velocity": 0.6535433070866141
        },
        {
          "duration": 0.26190450000000354,
          "durationTicks": 88,
          "midi": 54,
          "name": "F#3",
          "ticks": 7728,
          "time": 22.999977,
          "velocity": 0.6535433070866141
        },
        {
          "duration": 0.2619045,
          "durationTicks": 88,
          "midi": 50,
          "name": "D3",
          "ticks": 7872,
          "time": 23.428548000000003,
          "velocity": 0.6535433070866141
        },
        {
          "duration": 0.2619045,
          "durationTicks": 88,
          "midi": 55,
          "name": "G3",
          "ticks": 7872,
          "time": 23.428548000000003,
          "velocity": 0.6535433070866141
        },
        {
          "duration": 0.2619045,
          "durationTicks": 88,
          "midi": 46,
          "name": "A#2",
          "ticks": 7872,
          "time": 23.428548000000003,
          "velocity": 0.6535433070866141
        },
        {
          "duration": 0.26190450000000354,
          "durationTicks": 88,
          "midi": 50,
          "name": "D3",
          "ticks": 7968,
          "time": 23.714262,
          "velocity": 0.6535433070866141
        },
        {
          "duration": 0.26190450000000354,
          "durationTicks": 88,
          "midi": 45,
          "name": "A2",
          "ticks": 7968,
          "time": 23.714262,
          "velocity": 0.6535433070866141
        },
        {
          "duration": 0.2619045,
          "durationTicks": 88,
          "midi": 50,
          "name": "D3",
          "ticks": 8064,
          "time": 23.999976000000004,
          "velocity": 0.6535433070866141
        },
        {
          "duration": 0.2619045,
          "durationTicks": 88,
          "midi": 46,
          "name": "A#2",
          "ticks": 8064,
          "time": 23.999976000000004,
          "velocity": 0.6535433070866141
        },
        {
          "duration": 0.2619045,
          "durationTicks": 88,
          "midi": 58,
          "name": "A#3",
          "ticks": 8064,
          "time": 23.999976000000004,
          "velocity": 0.6535433070866141
        },
        {
          "duration": 0.2619045,
          "durationTicks": 88,
          "midi": 54,
          "name": "F#3",
          "ticks": 8208,
          "time": 24.428547000000002,
          "velocity": 0.6535433070866141
        },
        {
          "duration": 0.2619045,
          "durationTicks": 88,
          "midi": 50,
          "name": "D3",
          "ticks": 8208,
          "time": 24.428547000000002,
          "velocity": 0.6535433070866141
        },
        {
          "duration": 0.2619045,
          "durationTicks": 88,
          "midi": 45,
          "name": "A2",
          "ticks": 8208,
          "time": 24.428547000000002,
          "velocity": 0.6535433070866141
        },
        {
          "duration": 0.2619045,
          "durationTicks": 88,
          "midi": 55,
          "name": "G3",
          "ticks": 8352,
          "time": 24.857118000000003,
          "velocity": 0.6535433070866141
        },
        {
          "duration": 0.2619045,
          "durationTicks": 88,
          "midi": 50,
          "name": "D3",
          "ticks": 8352,
          "time": 24.857118000000003,
          "velocity": 0.6535433070866141
        },
        {
          "duration": 0.2619045,
          "durationTicks": 88,
          "midi": 46,
          "name": "A#2",
          "ticks": 8352,
          "time": 24.857118000000003,
          "velocity": 0.6535433070866141
        },
        {
          "duration": 0.26190450000000354,
          "durationTicks": 88,
          "midi": 54,
          "name": "F#3",
          "ticks": 8496,
          "time": 25.285689,
          "velocity": 0.6535433070866141
        },
        {
          "duration": 0.26190450000000354,
          "durationTicks": 88,
          "midi": 45,
          "name": "A2",
          "ticks": 8496,
          "time": 25.285689,
          "velocity": 0.6535433070866141
        },
        {
          "duration": 0.26190450000000354,
          "durationTicks": 88,
          "midi": 50,
          "name": "D3",
          "ticks": 8496,
          "time": 25.285689,
          "velocity": 0.6535433070866141
        },
        {
          "duration": 0.2619045,
          "durationTicks": 88,
          "midi": 46,
          "name": "A#2",
          "ticks": 8640,
          "time": 25.714260000000003,
          "velocity": 0.6535433070866141
        },
        {
          "duration": 0.2619045,
          "durationTicks": 88,
          "midi": 55,
          "name": "G3",
          "ticks": 8640,
          "time": 25.714260000000003,
          "velocity": 0.6535433070866141
        },
        {
          "duration": 0.2619045,
          "durationTicks": 88,
          "midi": 50,
          "name": "D3",
          "ticks": 8640,
          "time": 25.714260000000003,
          "velocity": 0.6535433070866141
        },
        {
          "duration": 0.26190450000000354,
          "durationTicks": 88,
          "midi": 45,
          "name": "A2",
          "ticks": 8736,
          "time": 25.999974,
          "velocity": 0.6535433070866141
        },
        {
          "duration": 0.26190450000000354,
          "durationTicks": 88,
          "midi": 50,
          "name": "D3",
          "ticks": 8736,
          "time": 25.999974,
          "velocity": 0.6535433070866141
        },
        {
          "duration": 0.26190450000000354,
          "durationTicks": 88,
          "midi": 54,
          "name": "F#3",
          "ticks": 8736,
          "time": 25.999974,
          "velocity": 0.6535433070866141
        },
        {
          "duration": 0.26190450000000354,
          "durationTicks": 88,
          "midi": 50,
          "name": "D3",
          "ticks": 8832,
          "time": 26.285688,
          "velocity": 0.6535433070866141
        },
        {
          "duration": 0.26190450000000354,
          "durationTicks": 88,
          "midi": 55,
          "name": "G3",
          "ticks": 8832,
          "time": 26.285688,
          "velocity": 0.6535433070866141
        },
        {
          "duration": 0.26190450000000354,
          "durationTicks": 88,
          "midi": 46,
          "name": "A#2",
          "ticks": 8832,
          "time": 26.285688,
          "velocity": 0.6535433070866141
        },
        {
          "duration": 0.26190450000000354,
          "durationTicks": 88,
          "midi": 58,
          "name": "A#3",
          "ticks": 8832,
          "time": 26.285688,
          "velocity": 0.6535433070866141
        },
        {
          "duration": 0.2619045,
          "durationTicks": 88,
          "midi": 54,
          "name": "F#3",
          "ticks": 8976,
          "time": 26.714259000000002,
          "velocity": 0.6535433070866141
        },
        {
          "duration": 0.2619045,
          "durationTicks": 88,
          "midi": 57,
          "name": "A3",
          "ticks": 8976,
          "time": 26.714259000000002,
          "velocity": 0.6535433070866141
        },
        {
          "duration": 0.2619045,
          "durationTicks": 88,
          "midi": 45,
          "name": "A2",
          "ticks": 8976,
          "time": 26.714259000000002,
          "velocity": 0.6535433070866141
        },
        {
          "duration": 0.2619045,
          "durationTicks": 88,
          "midi": 50,
          "name": "D3",
          "ticks": 8976,
          "time": 26.714259000000002,
          "velocity": 0.6535433070866141
        },
        {
          "duration": 0.2619045,
          "durationTicks": 88,
          "midi": 46,
          "name": "A#2",
          "ticks": 9120,
          "time": 27.142830000000004,
          "velocity": 0.6535433070866141
        },
        {
          "duration": 0.2619045,
          "durationTicks": 88,
          "midi": 50,
          "name": "D3",
          "ticks": 9120,
          "time": 27.142830000000004,
          "velocity": 0.6535433070866141
        },
        {
          "duration": 0.2619045,
          "durationTicks": 88,
          "midi": 55,
          "name": "G3",
          "ticks": 9120,
          "time": 27.142830000000004,
          "velocity": 0.6535433070866141
        },
        {
          "duration": 0.2619045,
          "durationTicks": 88,
          "midi": 58,
          "name": "A#3",
          "ticks": 9120,
          "time": 27.142830000000004,
          "velocity": 0.6535433070866141
        },
        {
          "duration": 0.26190450000000354,
          "durationTicks": 88,
          "midi": 45,
          "name": "A2",
          "ticks": 9264,
          "time": 27.571401,
          "velocity": 0.6535433070866141
        },
        {
          "duration": 0.26190450000000354,
          "durationTicks": 88,
          "midi": 57,
          "name": "A3",
          "ticks": 9264,
          "time": 27.571401,
          "velocity": 0.6535433070866141
        },
        {
          "duration": 0.26190450000000354,
          "durationTicks": 88,
          "midi": 50,
          "name": "D3",
          "ticks": 9264,
          "time": 27.571401,
          "velocity": 0.6535433070866141
        },
        {
          "duration": 0.26190450000000354,
          "durationTicks": 88,
          "midi": 54,
          "name": "F#3",
          "ticks": 9264,
          "time": 27.571401,
          "velocity": 0.6535433070866141
        },
        {
          "duration": 0.2619045,
          "durationTicks": 88,
          "midi": 50,
          "name": "D3",
          "ticks": 9408,
          "time": 27.999972000000003,
          "velocity": 0.6535433070866141
        },
        {
          "duration": 0.2619045,
          "durationTicks": 88,
          "midi": 55,
          "name": "G3",
          "ticks": 9408,
          "time": 27.999972000000003,
          "velocity": 0.6535433070866141
        },
        {
          "duration": 0.2619045,
          "durationTicks": 88,
          "midi": 58,
          "name": "A#3",
          "ticks": 9408,
          "time": 27.999972000000003,
          "velocity": 0.6535433070866141
        },
        {
          "duration": 0.2619045,
          "durationTicks": 88,
          "midi": 46,
          "name": "A#2",
          "ticks": 9408,
          "time": 27.999972000000003,
          "velocity": 0.6535433070866141
        },
        {
          "duration": 0.26190450000000354,
          "durationTicks": 88,
          "midi": 54,
          "name": "F#3",
          "ticks": 9504,
          "time": 28.285686000000002,
          "velocity": 0.6535433070866141
        },
        {
          "duration": 0.26190450000000354,
          "durationTicks": 88,
          "midi": 50,
          "name": "D3",
          "ticks": 9504,
          "time": 28.285686000000002,
          "velocity": 0.6535433070866141
        },
        {
          "duration": 0.26190450000000354,
          "durationTicks": 88,
          "midi": 45,
          "name": "A2",
          "ticks": 9504,
          "time": 28.285686000000002,
          "velocity": 0.6535433070866141
        },
        {
          "duration": 0.2619045,
          "durationTicks": 88,
          "midi": 79,
          "name": "G5",
          "ticks": 9600,
          "time": 28.571400000000004,
          "velocity": 0.7874015748031497
        },
        {
          "duration": 0.2619045,
          "durationTicks": 88,
          "midi": 58,
          "name": "A#3",
          "ticks": 9600,
          "time": 28.571400000000004,
          "velocity": 0.6535433070866141
        },
        {
          "duration": 0.2619045,
          "durationTicks": 88,
          "midi": 46,
          "name": "A#2",
          "ticks": 9600,
          "time": 28.571400000000004,
          "velocity": 0.6535433070866141
        },
        {
          "duration": 0.2619045,
          "durationTicks": 88,
          "midi": 50,
          "name": "D3",
          "ticks": 9600,
          "time": 28.571400000000004,
          "velocity": 0.6535433070866141
        },
        {
          "duration": 0.2619045,
          "durationTicks": 88,
          "midi": 81,
          "name": "A5",
          "ticks": 9744,
          "time": 28.999971000000002,
          "velocity": 0.7874015748031497
        },
        {
          "duration": 0.2619045,
          "durationTicks": 88,
          "midi": 45,
          "name": "A2",
          "ticks": 9744,
          "time": 28.999971000000002,
          "velocity": 0.6535433070866141
        },
        {
          "duration": 0.2619045,
          "durationTicks": 88,
          "midi": 54,
          "name": "F#3",
          "ticks": 9744,
          "time": 28.999971000000002,
          "velocity": 0.6535433070866141
        },
        {
          "duration": 0.2619045,
          "durationTicks": 88,
          "midi": 50,
          "name": "D3",
          "ticks": 9744,
          "time": 28.999971000000002,
          "velocity": 0.6535433070866141
        },
        {
          "duration": 0.2619045,
          "durationTicks": 88,
          "midi": 50,
          "name": "D3",
          "ticks": 9888,
          "time": 29.428542000000004,
          "velocity": 0.6535433070866141
        },
        {
          "duration": 0.2619045,
          "durationTicks": 88,
          "midi": 55,
          "name": "G3",
          "ticks": 9888,
          "time": 29.428542000000004,
          "velocity": 0.6535433070866141
        },
        {
          "duration": 0.2619045,
          "durationTicks": 88,
          "midi": 46,
          "name": "A#2",
          "ticks": 9888,
          "time": 29.428542000000004,
          "velocity": 0.6535433070866141
        },
        {
          "duration": 0.2619045,
          "durationTicks": 88,
          "midi": 82,
          "name": "A#5",
          "ticks": 9888,
          "time": 29.428542000000004,
          "velocity": 0.7874015748031497
        },
        {
          "duration": 0.26190450000000354,
          "durationTicks": 88,
          "midi": 81,
          "name": "A5",
          "ticks": 10032,
          "time": 29.857113000000002,
          "velocity": 0.7874015748031497
        },
        {
          "duration": 0.26190450000000354,
          "durationTicks": 88,
          "midi": 45,
          "name": "A2",
          "ticks": 10032,
          "time": 29.857113000000002,
          "velocity": 0.6535433070866141
        },
        {
          "duration": 0.26190450000000354,
          "durationTicks": 88,
          "midi": 54,
          "name": "F#3",
          "ticks": 10032,
          "time": 29.857113000000002,
          "velocity": 0.6535433070866141
        },
        {
          "duration": 0.26190450000000354,
          "durationTicks": 88,
          "midi": 50,
          "name": "D3",
          "ticks": 10032,
          "time": 29.857113000000002,
          "velocity": 0.6535433070866141
        },
        {
          "duration": 0.2619045,
          "durationTicks": 88,
          "midi": 82,
          "name": "A#5",
          "ticks": 10176,
          "time": 30.285684000000003,
          "velocity": 0.7874015748031497
        },
        {
          "duration": 0.2619045,
          "durationTicks": 88,
          "midi": 50,
          "name": "D3",
          "ticks": 10176,
          "time": 30.285684000000003,
          "velocity": 0.6535433070866141
        },
        {
          "duration": 0.2619045,
          "durationTicks": 88,
          "midi": 55,
          "name": "G3",
          "ticks": 10176,
          "time": 30.285684000000003,
          "velocity": 0.6535433070866141
        },
        {
          "duration": 0.2619045,
          "durationTicks": 88,
          "midi": 46,
          "name": "A#2",
          "ticks": 10176,
          "time": 30.285684000000003,
          "velocity": 0.6535433070866141
        },
        {
          "duration": 0.26190450000000354,
          "durationTicks": 88,
          "midi": 50,
          "name": "D3",
          "ticks": 10272,
          "time": 30.571398000000002,
          "velocity": 0.6535433070866141
        },
        {
          "duration": 0.26190450000000354,
          "durationTicks": 88,
          "midi": 45,
          "name": "A2",
          "ticks": 10272,
          "time": 30.571398000000002,
          "velocity": 0.6535433070866141
        },
        {
          "duration": 0.26190450000000354,
          "durationTicks": 88,
          "midi": 54,
          "name": "F#3",
          "ticks": 10272,
          "time": 30.571398000000002,
          "velocity": 0.6535433070866141
        },
        {
          "duration": 0.26190450000000354,
          "durationTicks": 88,
          "midi": 84,
          "name": "C6",
          "ticks": 10272,
          "time": 30.571398000000002,
          "velocity": 0.7874015748031497
        },
        {
          "duration": 0.26190450000000354,
          "durationTicks": 88,
          "midi": 46,
          "name": "A#2",
          "ticks": 10368,
          "time": 30.857112,
          "velocity": 0.6535433070866141
        },
        {
          "duration": 0.26190450000000354,
          "durationTicks": 88,
          "midi": 58,
          "name": "A#3",
          "ticks": 10368,
          "time": 30.857112,
          "velocity": 0.6535433070866141
        },
        {
          "duration": 0.26190450000000354,
          "durationTicks": 88,
          "midi": 50,
          "name": "D3",
          "ticks": 10368,
          "time": 30.857112,
          "velocity": 0.6535433070866141
        },
        {
          "duration": 0.26190450000000354,
          "durationTicks": 88,
          "midi": 79,
          "name": "G5",
          "ticks": 10368,
          "time": 30.857112,
          "velocity": 0.7874015748031497
        },
        {
          "duration": 0.2619045,
          "durationTicks": 88,
          "midi": 50,
          "name": "D3",
          "ticks": 10512,
          "time": 31.285683000000002,
          "velocity": 0.6535433070866141
        },
        {
          "duration": 0.2619045,
          "durationTicks": 88,
          "midi": 54,
          "name": "F#3",
          "ticks": 10512,
          "time": 31.285683000000002,
          "velocity": 0.6535433070866141
        },
        {
          "duration": 0.2619045,
          "durationTicks": 88,
          "midi": 45,
          "name": "A2",
          "ticks": 10512,
          "time": 31.285683000000002,
          "velocity": 0.6535433070866141
        },
        {
          "duration": 0.2619045,
          "durationTicks": 88,
          "midi": 81,
          "name": "A5",
          "ticks": 10512,
          "time": 31.285683000000002,
          "velocity": 0.7874015748031497
        },
        {
          "duration": 0.2619045,
          "durationTicks": 88,
          "midi": 50,
          "name": "D3",
          "ticks": 10656,
          "time": 31.714254000000004,
          "velocity": 0.6535433070866141
        },
        {
          "duration": 0.2619045,
          "durationTicks": 88,
          "midi": 55,
          "name": "G3",
          "ticks": 10656,
          "time": 31.714254000000004,
          "velocity": 0.6535433070866141
        },
        {
          "duration": 0.2619045,
          "durationTicks": 88,
          "midi": 46,
          "name": "A#2",
          "ticks": 10656,
          "time": 31.714254000000004,
          "velocity": 0.6535433070866141
        },
        {
          "duration": 0.2619045,
          "durationTicks": 88,
          "midi": 82,
          "name": "A#5",
          "ticks": 10656,
          "time": 31.714254000000004,
          "velocity": 0.7874015748031497
        },
        {
          "duration": 0.2619045,
          "durationTicks": 88,
          "midi": 81,
          "name": "A5",
          "ticks": 10800,
          "time": 32.142825,
          "velocity": 0.7874015748031497
        },
        {
          "duration": 0.2619045,
          "durationTicks": 88,
          "midi": 50,
          "name": "D3",
          "ticks": 10800,
          "time": 32.142825,
          "velocity": 0.6535433070866141
        },
        {
          "duration": 0.2619045,
          "durationTicks": 88,
          "midi": 54,
          "name": "F#3",
          "ticks": 10800,
          "time": 32.142825,
          "velocity": 0.6535433070866141
        },
        {
          "duration": 0.2619045,
          "durationTicks": 88,
          "midi": 45,
          "name": "A2",
          "ticks": 10800,
          "time": 32.142825,
          "velocity": 0.6535433070866141
        },
        {
          "duration": 0.2619045000000071,
          "durationTicks": 88,
          "midi": 82,
          "name": "A#5",
          "ticks": 10944,
          "time": 32.571396,
          "velocity": 0.7874015748031497
        },
        {
          "duration": 0.2619045000000071,
          "durationTicks": 88,
          "midi": 50,
          "name": "D3",
          "ticks": 10944,
          "time": 32.571396,
          "velocity": 0.6535433070866141
        },
        {
          "duration": 0.2619045000000071,
          "durationTicks": 88,
          "midi": 46,
          "name": "A#2",
          "ticks": 10944,
          "time": 32.571396,
          "velocity": 0.6535433070866141
        },
        {
          "duration": 0.2619045000000071,
          "durationTicks": 88,
          "midi": 55,
          "name": "G3",
          "ticks": 10944,
          "time": 32.571396,
          "velocity": 0.6535433070866141
        },
        {
          "duration": 0.2619045,
          "durationTicks": 88,
          "midi": 45,
          "name": "A2",
          "ticks": 11040,
          "time": 32.857110000000006,
          "velocity": 0.6535433070866141
        },
        {
          "duration": 0.2619045,
          "durationTicks": 88,
          "midi": 50,
          "name": "D3",
          "ticks": 11040,
          "time": 32.857110000000006,
          "velocity": 0.6535433070866141
        },
        {
          "duration": 0.2619045,
          "durationTicks": 88,
          "midi": 78,
          "name": "F#5",
          "ticks": 11040,
          "time": 32.857110000000006,
          "velocity": 0.7874015748031497
        },
        {
          "duration": 0.2619045,
          "durationTicks": 88,
          "midi": 58,
          "name": "A#3",
          "ticks": 11136,
          "time": 33.142824000000005,
          "velocity": 0.6535433070866141
        },
        {
          "duration": 0.2619045,
          "durationTicks": 88,
          "midi": 46,
          "name": "A#2",
          "ticks": 11136,
          "time": 33.142824000000005,
          "velocity": 0.6535433070866141
        },
        {
          "duration": 0.2619045,
          "durationTicks": 88,
          "midi": 50,
          "name": "D3",
          "ticks": 11136,
          "time": 33.142824000000005,
          "velocity": 0.6535433070866141
        },
        {
          "duration": 0.2619045,
          "durationTicks": 88,
          "midi": 79,
          "name": "G5",
          "ticks": 11136,
          "time": 33.142824000000005,
          "velocity": 0.7874015748031497
        },
        {
          "duration": 0.2619045,
          "durationTicks": 88,
          "midi": 81,
          "name": "A5",
          "ticks": 11280,
          "time": 33.571395,
          "velocity": 0.7874015748031497
        },
        {
          "duration": 0.2619045,
          "durationTicks": 88,
          "midi": 50,
          "name": "D3",
          "ticks": 11280,
          "time": 33.571395,
          "velocity": 0.6535433070866141
        },
        {
          "duration": 0.2619045,
          "durationTicks": 88,
          "midi": 45,
          "name": "A2",
          "ticks": 11280,
          "time": 33.571395,
          "velocity": 0.6535433070866141
        },
        {
          "duration": 0.2619045,
          "durationTicks": 88,
          "midi": 54,
          "name": "F#3",
          "ticks": 11280,
          "time": 33.571395,
          "velocity": 0.6535433070866141
        },
        {
          "duration": 0.2619045000000071,
          "durationTicks": 88,
          "midi": 82,
          "name": "A#5",
          "ticks": 11424,
          "time": 33.999966,
          "velocity": 0.7874015748031497
        },
        {
          "duration": 0.2619045000000071,
          "durationTicks": 88,
          "midi": 50,
          "name": "D3",
          "ticks": 11424,
          "time": 33.999966,
          "velocity": 0.6535433070866141
        },
        {
          "duration": 0.2619045000000071,
          "durationTicks": 88,
          "midi": 55,
          "name": "G3",
          "ticks": 11424,
          "time": 33.999966,
          "velocity": 0.6535433070866141
        },
        {
          "duration": 0.2619045000000071,
          "durationTicks": 88,
          "midi": 46,
          "name": "A#2",
          "ticks": 11424,
          "time": 33.999966,
          "velocity": 0.6535433070866141
        },
        {
          "duration": 0.2619045,
          "durationTicks": 88,
          "midi": 81,
          "name": "A5",
          "ticks": 11568,
          "time": 34.428537000000006,
          "velocity": 0.7874015748031497
        },
        {
          "duration": 0.2619045,
          "durationTicks": 88,
          "midi": 45,
          "name": "A2",
          "ticks": 11568,
          "time": 34.428537000000006,
          "velocity": 0.6535433070866141
        },
        {
          "duration": 0.2619045,
          "durationTicks": 88,
          "midi": 54,
          "name": "F#3",
          "ticks": 11568,
          "time": 34.428537000000006,
          "velocity": 0.6535433070866141
        },
        {
          "duration": 0.2619045,
          "durationTicks": 88,
          "midi": 50,
          "name": "D3",
          "ticks": 11568,
          "time": 34.428537000000006,
          "velocity": 0.6535433070866141
        },
        {
          "duration": 0.2619045,
          "durationTicks": 88,
          "midi": 50,
          "name": "D3",
          "ticks": 11712,
          "time": 34.857108000000004,
          "velocity": 0.6535433070866141
        },
        {
          "duration": 0.2619045,
          "durationTicks": 88,
          "midi": 46,
          "name": "A#2",
          "ticks": 11712,
          "time": 34.857108000000004,
          "velocity": 0.6535433070866141
        },
        {
          "duration": 0.2619045,
          "durationTicks": 88,
          "midi": 55,
          "name": "G3",
          "ticks": 11712,
          "time": 34.857108000000004,
          "velocity": 0.6535433070866141
        },
        {
          "duration": 0.2619045,
          "durationTicks": 88,
          "midi": 82,
          "name": "A#5",
          "ticks": 11712,
          "time": 34.857108000000004,
          "velocity": 0.7874015748031497
        },
        {
          "duration": 0.2619045,
          "durationTicks": 88,
          "midi": 50,
          "name": "D3",
          "ticks": 11808,
          "time": 35.142822,
          "velocity": 0.6535433070866141
        },
        {
          "duration": 0.2619045,
          "durationTicks": 88,
          "midi": 54,
          "name": "F#3",
          "ticks": 11808,
          "time": 35.142822,
          "velocity": 0.6535433070866141
        },
        {
          "duration": 0.2619045,
          "durationTicks": 88,
          "midi": 45,
          "name": "A2",
          "ticks": 11808,
          "time": 35.142822,
          "velocity": 0.6535433070866141
        },
        {
          "duration": 0.2619045,
          "durationTicks": 88,
          "midi": 84,
          "name": "C6",
          "ticks": 11808,
          "time": 35.142822,
          "velocity": 0.7874015748031497
        },
        {
          "duration": 0.2619045,
          "durationTicks": 88,
          "midi": 55,
          "name": "G3",
          "ticks": 11904,
          "time": 35.428536,
          "velocity": 0.6535433070866141
        },
        {
          "duration": 0.2619045,
          "durationTicks": 88,
          "midi": 46,
          "name": "A#2",
          "ticks": 11904,
          "time": 35.428536,
          "velocity": 0.6535433070866141
        },
        {
          "duration": 0.2619045,
          "durationTicks": 88,
          "midi": 58,
          "name": "A#3",
          "ticks": 11904,
          "time": 35.428536,
          "velocity": 0.6535433070866141
        },
        {
          "duration": 0.2619045,
          "durationTicks": 88,
          "midi": 50,
          "name": "D3",
          "ticks": 11904,
          "time": 35.428536,
          "velocity": 0.6535433070866141
        },
        {
          "duration": 0.2619045,
          "durationTicks": 88,
          "midi": 86,
          "name": "D6",
          "ticks": 11904,
          "time": 35.428536,
          "velocity": 0.7874015748031497
        },
        {
          "duration": 0.2619045,
          "durationTicks": 88,
          "midi": 50,
          "name": "D3",
          "ticks": 12048,
          "time": 35.857107000000006,
          "velocity": 0.6535433070866141
        },
        {
          "duration": 0.2619045,
          "durationTicks": 88,
          "midi": 57,
          "name": "A3",
          "ticks": 12048,
          "time": 35.857107000000006,
          "velocity": 0.6535433070866141
        },
        {
          "duration": 0.2619045,
          "durationTicks": 88,
          "midi": 45,
          "name": "A2",
          "ticks": 12048,
          "time": 35.857107000000006,
          "velocity": 0.6535433070866141
        },
        {
          "duration": 0.2619045,
          "durationTicks": 88,
          "midi": 55,
          "name": "G3",
          "ticks": 12048,
          "time": 35.857107000000006,
          "velocity": 0.6535433070866141
        },
        {
          "duration": 0.2619045,
          "durationTicks": 88,
          "midi": 84,
          "name": "C6",
          "ticks": 12048,
          "time": 35.857107000000006,
          "velocity": 0.7874015748031497
        },
        {
          "duration": 0.2619045,
          "durationTicks": 88,
          "midi": 50,
          "name": "D3",
          "ticks": 12192,
          "time": 36.285678000000004,
          "velocity": 0.6535433070866141
        },
        {
          "duration": 0.2619045,
          "durationTicks": 88,
          "midi": 58,
          "name": "A#3",
          "ticks": 12192,
          "time": 36.285678000000004,
          "velocity": 0.6535433070866141
        },
        {
          "duration": 0.2619045,
          "durationTicks": 88,
          "midi": 55,
          "name": "G3",
          "ticks": 12192,
          "time": 36.285678000000004,
          "velocity": 0.6535433070866141
        },
        {
          "duration": 0.2619045,
          "durationTicks": 88,
          "midi": 46,
          "name": "A#2",
          "ticks": 12192,
          "time": 36.285678000000004,
          "velocity": 0.6535433070866141
        },
        {
          "duration": 0.2619045,
          "durationTicks": 88,
          "midi": 86,
          "name": "D6",
          "ticks": 12192,
          "time": 36.285678000000004,
          "velocity": 0.7874015748031497
        },
        {
          "duration": 0.2619045,
          "durationTicks": 88,
          "midi": 90,
          "name": "F#6",
          "ticks": 12288,
          "time": 36.571392,
          "velocity": 0.7874015748031497
        },
        {
          "duration": 0.2619045,
          "durationTicks": 88,
          "midi": 91,
          "name": "G6",
          "ticks": 12480,
          "time": 37.14282,
          "velocity": 0.7874015748031497
        },
        {
          "duration": 0.2619044999999929,
          "durationTicks": 88,
          "midi": 90,
          "name": "F#6",
          "ticks": 12576,
          "time": 37.428534000000006,
          "velocity": 0.7874015748031497
        },
        {
          "duration": 0.2619044999999929,
          "durationTicks": 88,
          "midi": 91,
          "name": "G6",
          "ticks": 12672,
          "time": 37.714248000000005,
          "velocity": 0.7480314960629921
        },
        {
          "duration": 0.2619044999999929,
          "durationTicks": 88,
          "midi": 79,
          "name": "G5",
          "ticks": 12672,
          "time": 37.714248000000005,
          "velocity": 0.8188976377952756
        },
        {
          "duration": 0.2619044999999929,
          "durationTicks": 88,
          "midi": 58,
          "name": "A#3",
          "ticks": 12672,
          "time": 37.714248000000005,
          "velocity": 0.7716535433070866
        },
        {
          "duration": 0.2619044999999929,
          "durationTicks": 88,
          "midi": 55,
          "name": "G3",
          "ticks": 12672,
          "time": 37.714248000000005,
          "velocity": 0.7716535433070866
        },
        {
          "duration": 0.2619044999999929,
          "durationTicks": 88,
          "midi": 62,
          "name": "D4",
          "ticks": 12672,
          "time": 37.714248000000005,
          "velocity": 0.7716535433070866
        },
        {
          "duration": 0.2619045,
          "durationTicks": 88,
          "midi": 67,
          "name": "G4",
          "ticks": 13440,
          "time": 39.99996,
          "velocity": 0.8188976377952756
        },
        {
          "duration": 0.2619045,
          "durationTicks": 88,
          "midi": 62,
          "name": "D4",
          "ticks": 13440,
          "time": 39.99996,
          "velocity": 0.7716535433070866
        },
        {
          "duration": 0.2619045,
          "durationTicks": 88,
          "midi": 55,
          "name": "G3",
          "ticks": 13440,
          "time": 39.99996,
          "velocity": 0.7716535433070866
        },
        {
          "duration": 0.2619045,
          "durationTicks": 88,
          "midi": 58,
          "name": "A#3",
          "ticks": 13440,
          "time": 39.99996,
          "velocity": 0.7716535433070866
        },
        {
          "duration": 0.2619045,
          "durationTicks": 88,
          "midi": 79,
          "name": "G5",
          "ticks": 13440,
          "time": 39.99996,
          "velocity": 0.7874015748031497
        },
        {
          "duration": 0.2619045,
          "durationTicks": 88,
          "midi": 68,
          "name": "G#4",
          "ticks": 14016,
          "time": 41.714244,
          "velocity": 0.8188976377952756
        },
        {
          "duration": 0.2619045,
          "durationTicks": 88,
          "midi": 56,
          "name": "G#3",
          "ticks": 14016,
          "time": 41.714244,
          "velocity": 0.7716535433070866
        },
        {
          "duration": 0.2619045,
          "durationTicks": 88,
          "midi": 63,
          "name": "D#4",
          "ticks": 14016,
          "time": 41.714244,
          "velocity": 0.7716535433070866
        },
        {
          "duration": 0.2619045,
          "durationTicks": 88,
          "midi": 59,
          "name": "B3",
          "ticks": 14016,
          "time": 41.714244,
          "velocity": 0.7716535433070866
        },
        {
          "duration": 0.2619045,
          "durationTicks": 88,
          "midi": 80,
          "name": "G#5",
          "ticks": 14016,
          "time": 41.714244,
          "velocity": 0.7874015748031497
        },
        {
          "duration": 0.2619044999999929,
          "durationTicks": 88,
          "midi": 79,
          "name": "G5",
          "ticks": 14208,
          "time": 42.285672000000005,
          "velocity": 0.7874015748031497
        },
        {
          "duration": 0.2619044999999929,
          "durationTicks": 88,
          "midi": 67,
          "name": "G4",
          "ticks": 14208,
          "time": 42.285672000000005,
          "velocity": 0.8188976377952756
        },
        {
          "duration": 0.2619044999999929,
          "durationTicks": 88,
          "midi": 62,
          "name": "D4",
          "ticks": 14208,
          "time": 42.285672000000005,
          "velocity": 0.7716535433070866
        },
        {
          "duration": 0.2619044999999929,
          "durationTicks": 88,
          "midi": 55,
          "name": "G3",
          "ticks": 14208,
          "time": 42.285672000000005,
          "velocity": 0.7716535433070866
        },
        {
          "duration": 0.2619044999999929,
          "durationTicks": 88,
          "midi": 58,
          "name": "A#3",
          "ticks": 14208,
          "time": 42.285672000000005,
          "velocity": 0.7716535433070866
        },
        {
          "duration": 0.2619045,
          "durationTicks": 88,
          "midi": 79,
          "name": "G5",
          "ticks": 14976,
          "time": 44.571384,
          "velocity": 0.7874015748031497
        },
        {
          "duration": 0.2619045,
          "durationTicks": 88,
          "midi": 58,
          "name": "A#3",
          "ticks": 14976,
          "time": 44.571384,
          "velocity": 0.7716535433070866
        },
        {
          "duration": 0.2619045,
          "durationTicks": 88,
          "midi": 55,
          "name": "G3",
          "ticks": 14976,
          "time": 44.571384,
          "velocity": 0.7716535433070866
        },
        {
          "duration": 0.2619045,
          "durationTicks": 88,
          "midi": 62,
          "name": "D4",
          "ticks": 14976,
          "time": 44.571384,
          "velocity": 0.7716535433070866
        },
        {
          "duration": 0.2619045,
          "durationTicks": 88,
          "midi": 67,
          "name": "G4",
          "ticks": 14976,
          "time": 44.571384,
          "velocity": 0.8188976377952756
        },
        {
          "duration": 0.2619045,
          "durationTicks": 88,
          "midi": 54,
          "name": "F#3",
          "ticks": 15552,
          "time": 46.285668,
          "velocity": 0.7716535433070866
        },
        {
          "duration": 0.2619045,
          "durationTicks": 88,
          "midi": 57,
          "name": "A3",
          "ticks": 15552,
          "time": 46.285668,
          "velocity": 0.7716535433070866
        },
        {
          "duration": 0.2619045,
          "durationTicks": 88,
          "midi": 62,
          "name": "D4",
          "ticks": 15552,
          "time": 46.285668,
          "velocity": 0.7716535433070866
        },
        {
          "duration": 0.2619045,
          "durationTicks": 88,
          "midi": 66,
          "name": "F#4",
          "ticks": 15552,
          "time": 46.285668,
          "velocity": 0.8188976377952756
        },
        {
          "duration": 0.2619045,
          "durationTicks": 88,
          "midi": 78,
          "name": "F#5",
          "ticks": 15552,
          "time": 46.285668,
          "velocity": 0.7874015748031497
        },
        {
          "duration": 0.2619044999999929,
          "durationTicks": 88,
          "midi": 67,
          "name": "G4",
          "ticks": 15744,
          "time": 46.857096000000006,
          "velocity": 0.8188976377952756
        },
        {
          "duration": 0.2619044999999929,
          "durationTicks": 88,
          "midi": 62,
          "name": "D4",
          "ticks": 15744,
          "time": 46.857096000000006,
          "velocity": 0.7716535433070866
        },
        {
          "duration": 0.2619044999999929,
          "durationTicks": 88,
          "midi": 55,
          "name": "G3",
          "ticks": 15744,
          "time": 46.857096000000006,
          "velocity": 0.7716535433070866
        },
        {
          "duration": 0.2619044999999929,
          "durationTicks": 88,
          "midi": 58,
          "name": "A#3",
          "ticks": 15744,
          "time": 46.857096000000006,
          "velocity": 0.7716535433070866
        },
        {
          "duration": 0.2619044999999929,
          "durationTicks": 88,
          "midi": 79,
          "name": "G5",
          "ticks": 15744,
          "time": 46.857096000000006,
          "velocity": 0.7874015748031497
        },
        {
          "duration": 0.2619045,
          "durationTicks": 88,
          "midi": 67,
          "name": "G4",
          "ticks": 16512,
          "time": 49.142808,
          "velocity": 0.8188976377952756
        },
        {
          "duration": 0.2619045,
          "durationTicks": 88,
          "midi": 62,
          "name": "D4",
          "ticks": 16512,
          "time": 49.142808,
          "velocity": 0.7716535433070866
        },
        {
          "duration": 0.2619045,
          "durationTicks": 88,
          "midi": 55,
          "name": "G3",
          "ticks": 16512,
          "time": 49.142808,
          "velocity": 0.7716535433070866
        },
        {
          "duration": 0.2619045,
          "durationTicks": 88,
          "midi": 58,
          "name": "A#3",
          "ticks": 16512,
          "time": 49.142808,
          "velocity": 0.7716535433070866
        },
        {
          "duration": 0.2619045,
          "durationTicks": 88,
          "midi": 79,
          "name": "G5",
          "ticks": 16512,
          "time": 49.142808,
          "velocity": 0.7874015748031497
        },
        {
          "duration": 0.2619044999999929,
          "durationTicks": 88,
          "midi": 63,
          "name": "D#4",
          "ticks": 17184,
          "time": 51.14280600000001,
          "velocity": 0.7716535433070866
        },
        {
          "duration": 0.2619044999999929,
          "durationTicks": 88,
          "midi": 68,
          "name": "G#4",
          "ticks": 17184,
          "time": 51.14280600000001,
          "velocity": 0.8188976377952756
        },
        {
          "duration": 0.2619044999999929,
          "durationTicks": 88,
          "midi": 56,
          "name": "G#3",
          "ticks": 17184,
          "time": 51.14280600000001,
          "velocity": 0.7716535433070866
        },
        {
          "duration": 0.2619044999999929,
          "durationTicks": 88,
          "midi": 59,
          "name": "B3",
          "ticks": 17184,
          "time": 51.14280600000001,
          "velocity": 0.7716535433070866
        },
        {
          "duration": 0.2619044999999929,
          "durationTicks": 88,
          "midi": 80,
          "name": "G#5",
          "ticks": 17184,
          "time": 51.14280600000001,
          "velocity": 0.7874015748031497
        },
        {
          "duration": 0.2619044999999929,
          "durationTicks": 88,
          "midi": 58,
          "name": "A#3",
          "ticks": 17280,
          "time": 51.428520000000006,
          "velocity": 0.7716535433070866
        },
        {
          "duration": 0.2619044999999929,
          "durationTicks": 88,
          "midi": 55,
          "name": "G3",
          "ticks": 17280,
          "time": 51.428520000000006,
          "velocity": 0.7716535433070866
        },
        {
          "duration": 0.2619044999999929,
          "durationTicks": 88,
          "midi": 62,
          "name": "D4",
          "ticks": 17280,
          "time": 51.428520000000006,
          "velocity": 0.7716535433070866
        },
        {
          "duration": 0.2619044999999929,
          "durationTicks": 88,
          "midi": 67,
          "name": "G4",
          "ticks": 17280,
          "time": 51.428520000000006,
          "velocity": 0.8188976377952756
        },
        {
          "duration": 0.2619044999999929,
          "durationTicks": 88,
          "midi": 79,
          "name": "G5",
          "ticks": 17280,
          "time": 51.428520000000006,
          "velocity": 0.7874015748031497
        },
        {
          "duration": 0.2619045,
          "durationTicks": 88,
          "midi": 67,
          "name": "G4",
          "ticks": 18048,
          "time": 53.714232,
          "velocity": 0.8188976377952756
        },
        {
          "duration": 0.2619045,
          "durationTicks": 88,
          "midi": 62,
          "name": "D4",
          "ticks": 18048,
          "time": 53.714232,
          "velocity": 0.7716535433070866
        },
        {
          "duration": 0.2619045,
          "durationTicks": 88,
          "midi": 55,
          "name": "G3",
          "ticks": 18048,
          "time": 53.714232,
          "velocity": 0.7716535433070866
        },
        {
          "duration": 0.2619045,
          "durationTicks": 88,
          "midi": 58,
          "name": "A#3",
          "ticks": 18048,
          "time": 53.714232,
          "velocity": 0.7716535433070866
        },
        {
          "duration": 0.2619045,
          "durationTicks": 88,
          "midi": 79,
          "name": "G5",
          "ticks": 18048,
          "time": 53.714232,
          "velocity": 0.7874015748031497
        },
        {
          "duration": 0.2857139999999987,
          "durationTicks": 96,
          "midi": 46,
          "name": "A#2",
          "ticks": 25728,
          "time": 76.571352,
          "velocity": 0.5984251968503937
        },
        {
          "duration": 0.2857139999999987,
          "durationTicks": 96,
          "midi": 55,
          "name": "G3",
          "ticks": 25728,
          "time": 76.571352,
          "velocity": 0.5984251968503937
        },
        {
          "duration": 0.2857139999999987,
          "durationTicks": 96,
          "midi": 50,
          "name": "D3",
          "ticks": 25728,
          "time": 76.571352,
          "velocity": 0.5984251968503937
        },
        {
          "duration": 0.2857139999999987,
          "durationTicks": 96,
          "midi": 50,
          "name": "D3",
          "ticks": 25920,
          "time": 77.14278,
          "velocity": 0.5984251968503937
        },
        {
          "duration": 0.2857139999999987,
          "durationTicks": 96,
          "midi": 46,
          "name": "A#2",
          "ticks": 25920,
          "time": 77.14278,
          "velocity": 0.5984251968503937
        },
        {
          "duration": 0.2857139999999987,
          "durationTicks": 96,
          "midi": 48,
          "name": "C3",
          "ticks": 26112,
          "time": 77.71420800000001,
          "velocity": 0.5984251968503937
        },
        {
          "duration": 0.2857139999999987,
          "durationTicks": 96,
          "midi": 53,
          "name": "F3",
          "ticks": 26112,
          "time": 77.71420800000001,
          "velocity": 0.5984251968503937
        },
        {
          "duration": 0.2857139999999987,
          "durationTicks": 96,
          "midi": 57,
          "name": "A3",
          "ticks": 26112,
          "time": 77.71420800000001,
          "velocity": 0.5984251968503937
        },
        {
          "duration": 0.2857139999999987,
          "durationTicks": 96,
          "midi": 48,
          "name": "C3",
          "ticks": 26304,
          "time": 78.28563600000001,
          "velocity": 0.5984251968503937
        },
        {
          "duration": 0.2857139999999987,
          "durationTicks": 96,
          "midi": 57,
          "name": "A3",
          "ticks": 26304,
          "time": 78.28563600000001,
          "velocity": 0.5984251968503937
        },
        {
          "duration": 0.2857139999999987,
          "durationTicks": 96,
          "midi": 53,
          "name": "F3",
          "ticks": 26496,
          "time": 78.85706400000001,
          "velocity": 0.5984251968503937
        },
        {
          "duration": 0.2857139999999987,
          "durationTicks": 96,
          "midi": 58,
          "name": "A#3",
          "ticks": 26496,
          "time": 78.85706400000001,
          "velocity": 0.5984251968503937
        },
        {
          "duration": 0.2857139999999987,
          "durationTicks": 96,
          "midi": 50,
          "name": "D3",
          "ticks": 26496,
          "time": 78.85706400000001,
          "velocity": 0.5984251968503937
        },
        {
          "duration": 0.2857139999999987,
          "durationTicks": 96,
          "midi": 53,
          "name": "F3",
          "ticks": 26688,
          "time": 79.428492,
          "velocity": 0.5984251968503937
        },
        {
          "duration": 0.2857139999999987,
          "durationTicks": 96,
          "midi": 58,
          "name": "A#3",
          "ticks": 26688,
          "time": 79.428492,
          "velocity": 0.5984251968503937
        },
        {
          "duration": 0.2857139999999987,
          "durationTicks": 96,
          "midi": 55,
          "name": "G3",
          "ticks": 26880,
          "time": 79.99992,
          "velocity": 0.5984251968503937
        },
        {
          "duration": 0.2857139999999987,
          "durationTicks": 96,
          "midi": 50,
          "name": "D3",
          "ticks": 26880,
          "time": 79.99992,
          "velocity": 0.5984251968503937
        },
        {
          "duration": 0.2857139999999987,
          "durationTicks": 96,
          "midi": 53,
          "name": "F3",
          "ticks": 26880,
          "time": 79.99992,
          "velocity": 0.5984251968503937
        },
        {
          "duration": 0.2857139999999987,
          "durationTicks": 96,
          "midi": 59,
          "name": "B3",
          "ticks": 26880,
          "time": 79.99992,
          "velocity": 0.5984251968503937
        },
        {
          "duration": 0.2857140000000129,
          "durationTicks": 96,
          "midi": 59,
          "name": "B3",
          "ticks": 27072,
          "time": 80.571348,
          "velocity": 0.5984251968503937
        },
        {
          "duration": 0.2857140000000129,
          "durationTicks": 96,
          "midi": 53,
          "name": "F3",
          "ticks": 27072,
          "time": 80.571348,
          "velocity": 0.5984251968503937
        },
        {
          "duration": 0.2857140000000129,
          "durationTicks": 96,
          "midi": 50,
          "name": "D3",
          "ticks": 27072,
          "time": 80.571348,
          "velocity": 0.5984251968503937
        },
        {
          "duration": 0.2857140000000129,
          "durationTicks": 96,
          "midi": 55,
          "name": "G3",
          "ticks": 27072,
          "time": 80.571348,
          "velocity": 0.5984251968503937
        },
        {
          "duration": 0.2857139999999987,
          "durationTicks": 96,
          "midi": 60,
          "name": "C4",
          "ticks": 27264,
          "time": 81.14277600000001,
          "velocity": 0.5984251968503937
        },
        {
          "duration": 0.2857139999999987,
          "durationTicks": 96,
          "midi": 55,
          "name": "G3",
          "ticks": 27264,
          "time": 81.14277600000001,
          "velocity": 0.5984251968503937
        },
        {
          "duration": 0.2857139999999987,
          "durationTicks": 96,
          "midi": 51,
          "name": "D#3",
          "ticks": 27264,
          "time": 81.14277600000001,
          "velocity": 0.5984251968503937
        },
        {
          "duration": 0.2857139999999987,
          "durationTicks": 96,
          "midi": 51,
          "name": "D#3",
          "ticks": 27456,
          "time": 81.71420400000001,
          "velocity": 0.5984251968503937
        },
        {
          "duration": 0.2857139999999987,
          "durationTicks": 96,
          "midi": 55,
          "name": "G3",
          "ticks": 27456,
          "time": 81.71420400000001,
          "velocity": 0.5984251968503937
        },
        {
          "duration": 0.2857139999999987,
          "durationTicks": 96,
          "midi": 60,
          "name": "C4",
          "ticks": 27456,
          "time": 81.71420400000001,
          "velocity": 0.5984251968503937
        },
        {
          "duration": 0.2857139999999987,
          "durationTicks": 96,
          "midi": 52,
          "name": "E3",
          "ticks": 27648,
          "time": 82.285632,
          "velocity": 0.5984251968503937
        },
        {
          "duration": 0.2857139999999987,
          "durationTicks": 96,
          "midi": 55,
          "name": "G3",
          "ticks": 27648,
          "time": 82.285632,
          "velocity": 0.5984251968503937
        },
        {
          "duration": 0.2857139999999987,
          "durationTicks": 96,
          "midi": 57,
          "name": "A3",
          "ticks": 27648,
          "time": 82.285632,
          "velocity": 0.5984251968503937
        },
        {
          "duration": 0.2857139999999987,
          "durationTicks": 96,
          "midi": 61,
          "name": "C#4",
          "ticks": 27648,
          "time": 82.285632,
          "velocity": 0.5984251968503937
        },
        {
          "duration": 0.2857139999999987,
          "durationTicks": 96,
          "midi": 52,
          "name": "E3",
          "ticks": 27840,
          "time": 82.85706,
          "velocity": 0.5984251968503937
        },
        {
          "duration": 0.2857139999999987,
          "durationTicks": 96,
          "midi": 55,
          "name": "G3",
          "ticks": 27840,
          "time": 82.85706,
          "velocity": 0.5984251968503937
        },
        {
          "duration": 0.2857139999999987,
          "durationTicks": 96,
          "midi": 57,
          "name": "A3",
          "ticks": 27840,
          "time": 82.85706,
          "velocity": 0.5984251968503937
        },
        {
          "duration": 0.2857139999999987,
          "durationTicks": 96,
          "midi": 61,
          "name": "C#4",
          "ticks": 27840,
          "time": 82.85706,
          "velocity": 0.5984251968503937
        },
        {
          "duration": 0.2857139999999987,
          "durationTicks": 96,
          "midi": 62,
          "name": "D4",
          "ticks": 28032,
          "time": 83.428488,
          "velocity": 0.5984251968503937
        },
        {
          "duration": 0.2857139999999987,
          "durationTicks": 96,
          "midi": 55,
          "name": "G3",
          "ticks": 28032,
          "time": 83.428488,
          "velocity": 0.5984251968503937
        },
        {
          "duration": 0.2857139999999987,
          "durationTicks": 96,
          "midi": 57,
          "name": "A3",
          "ticks": 28032,
          "time": 83.428488,
          "velocity": 0.5984251968503937
        },
        {
          "duration": 0.2857139999999987,
          "durationTicks": 96,
          "midi": 62,
          "name": "D4",
          "ticks": 28224,
          "time": 83.99991600000001,
          "velocity": 0.5984251968503937
        },
        {
          "duration": 0.2857139999999987,
          "durationTicks": 96,
          "midi": 55,
          "name": "G3",
          "ticks": 28224,
          "time": 83.99991600000001,
          "velocity": 0.5984251968503937
        },
        {
          "duration": 0.2857139999999987,
          "durationTicks": 96,
          "midi": 54,
          "name": "F#3",
          "ticks": 28416,
          "time": 84.57134400000001,
          "velocity": 0.5984251968503937
        },
        {
          "duration": 0.2857139999999987,
          "durationTicks": 96,
          "midi": 57,
          "name": "A3",
          "ticks": 28416,
          "time": 84.57134400000001,
          "velocity": 0.5984251968503937
        },
        {
          "duration": 0.2857139999999987,
          "durationTicks": 96,
          "midi": 62,
          "name": "D4",
          "ticks": 28416,
          "time": 84.57134400000001,
          "velocity": 0.5984251968503937
        },
        {
          "duration": 0.2857139999999987,
          "durationTicks": 96,
          "midi": 54,
          "name": "F#3",
          "ticks": 28608,
          "time": 85.14277200000001,
          "velocity": 0.5984251968503937
        },
        {
          "duration": 0.2857139999999987,
          "durationTicks": 96,
          "midi": 62,
          "name": "D4",
          "ticks": 28608,
          "time": 85.14277200000001,
          "velocity": 0.5984251968503937
        },
        {
          "duration": 0.2857139999999987,
          "durationTicks": 96,
          "midi": 57,
          "name": "A3",
          "ticks": 28800,
          "time": 85.7142,
          "velocity": 0.5984251968503937
        },
        {
          "duration": 0.2857139999999987,
          "durationTicks": 96,
          "midi": 55,
          "name": "G3",
          "ticks": 28800,
          "time": 85.7142,
          "velocity": 0.5984251968503937
        },
        {
          "duration": 0.2857139999999987,
          "durationTicks": 96,
          "midi": 62,
          "name": "D4",
          "ticks": 28800,
          "time": 85.7142,
          "velocity": 0.5984251968503937
        },
        {
          "duration": 0.2857139999999987,
          "durationTicks": 96,
          "midi": 55,
          "name": "G3",
          "ticks": 28992,
          "time": 86.285628,
          "velocity": 0.5984251968503937
        },
        {
          "duration": 0.2857139999999987,
          "durationTicks": 96,
          "midi": 62,
          "name": "D4",
          "ticks": 28992,
          "time": 86.285628,
          "velocity": 0.5984251968503937
        },
        {
          "duration": 0.2857140000000129,
          "durationTicks": 96,
          "midi": 62,
          "name": "D4",
          "ticks": 29184,
          "time": 86.857056,
          "velocity": 0.5984251968503937
        },
        {
          "duration": 0.2857140000000129,
          "durationTicks": 96,
          "midi": 57,
          "name": "A3",
          "ticks": 29184,
          "time": 86.857056,
          "velocity": 0.5984251968503937
        },
        {
          "duration": 0.2857140000000129,
          "durationTicks": 96,
          "midi": 54,
          "name": "F#3",
          "ticks": 29184,
          "time": 86.857056,
          "velocity": 0.5984251968503937
        },
        {
          "duration": 0.2857139999999987,
          "durationTicks": 96,
          "midi": 54,
          "name": "F#3",
          "ticks": 29376,
          "time": 87.42848400000001,
          "velocity": 0.5984251968503937
        },
        {
          "duration": 0.2857139999999987,
          "durationTicks": 96,
          "midi": 57,
          "name": "A3",
          "ticks": 29376,
          "time": 87.42848400000001,
          "velocity": 0.5984251968503937
        },
        {
          "duration": 0.2619045,
          "durationTicks": 88,
          "midi": 46,
          "name": "A#2",
          "ticks": 29568,
          "time": 87.99991200000001,
          "velocity": 0.6535433070866141
        },
        {
          "duration": 0.2619045,
          "durationTicks": 88,
          "midi": 50,
          "name": "D3",
          "ticks": 29568,
          "time": 87.99991200000001,
          "velocity": 0.6535433070866141
        },
        {
          "duration": 0.2619045,
          "durationTicks": 88,
          "midi": 55,
          "name": "G3",
          "ticks": 29568,
          "time": 87.99991200000001,
          "velocity": 0.6535433070866141
        },
        {
          "duration": 0.2619045,
          "durationTicks": 88,
          "midi": 45,
          "name": "A2",
          "ticks": 29712,
          "time": 88.42848300000001,
          "velocity": 0.6535433070866141
        },
        {
          "duration": 0.2619045,
          "durationTicks": 88,
          "midi": 50,
          "name": "D3",
          "ticks": 29712,
          "time": 88.42848300000001,
          "velocity": 0.6535433070866141
        },
        {
          "duration": 0.2619045,
          "durationTicks": 88,
          "midi": 54,
          "name": "F#3",
          "ticks": 29712,
          "time": 88.42848300000001,
          "velocity": 0.6535433070866141
        },
        {
          "duration": 0.2619045000000142,
          "durationTicks": 88,
          "midi": 55,
          "name": "G3",
          "ticks": 29856,
          "time": 88.857054,
          "velocity": 0.6535433070866141
        },
        {
          "duration": 0.2619045000000142,
          "durationTicks": 88,
          "midi": 46,
          "name": "A#2",
          "ticks": 29856,
          "time": 88.857054,
          "velocity": 0.6535433070866141
        },
        {
          "duration": 0.2619045000000142,
          "durationTicks": 88,
          "midi": 50,
          "name": "D3",
          "ticks": 29856,
          "time": 88.857054,
          "velocity": 0.6535433070866141
        },
        {
          "duration": 0.2619045,
          "durationTicks": 88,
          "midi": 54,
          "name": "F#3",
          "ticks": 30000,
          "time": 89.28562500000001,
          "velocity": 0.6535433070866141
        },
        {
          "duration": 0.2619045,
          "durationTicks": 88,
          "midi": 50,
          "name": "D3",
          "ticks": 30000,
          "time": 89.28562500000001,
          "velocity": 0.6535433070866141
        },
        {
          "duration": 0.2619045,
          "durationTicks": 88,
          "midi": 45,
          "name": "A2",
          "ticks": 30000,
          "time": 89.28562500000001,
          "velocity": 0.6535433070866141
        },
        {
          "duration": 0.2619045000000142,
          "durationTicks": 88,
          "midi": 46,
          "name": "A#2",
          "ticks": 30144,
          "time": 89.714196,
          "velocity": 0.6535433070866141
        },
        {
          "duration": 0.2619045000000142,
          "durationTicks": 88,
          "midi": 55,
          "name": "G3",
          "ticks": 30144,
          "time": 89.714196,
          "velocity": 0.6535433070866141
        },
        {
          "duration": 0.2619045000000142,
          "durationTicks": 88,
          "midi": 50,
          "name": "D3",
          "ticks": 30144,
          "time": 89.714196,
          "velocity": 0.6535433070866141
        },
        {
          "duration": 0.2619045,
          "durationTicks": 88,
          "midi": 54,
          "name": "F#3",
          "ticks": 30240,
          "time": 89.99991000000001,
          "velocity": 0.6535433070866141
        },
        {
          "duration": 0.2619045,
          "durationTicks": 88,
          "midi": 50,
          "name": "D3",
          "ticks": 30240,
          "time": 89.99991000000001,
          "velocity": 0.6535433070866141
        },
        {
          "duration": 0.2619045,
          "durationTicks": 88,
          "midi": 45,
          "name": "A2",
          "ticks": 30240,
          "time": 89.99991000000001,
          "velocity": 0.6535433070866141
        },
        {
          "duration": 0.2619045,
          "durationTicks": 88,
          "midi": 46,
          "name": "A#2",
          "ticks": 30336,
          "time": 90.28562400000001,
          "velocity": 0.6535433070866141
        },
        {
          "duration": 0.2619045,
          "durationTicks": 88,
          "midi": 50,
          "name": "D3",
          "ticks": 30336,
          "time": 90.28562400000001,
          "velocity": 0.6535433070866141
        },
        {
          "duration": 0.2619045,
          "durationTicks": 88,
          "midi": 55,
          "name": "G3",
          "ticks": 30336,
          "time": 90.28562400000001,
          "velocity": 0.6535433070866141
        },
        {
          "duration": 0.2619045000000142,
          "durationTicks": 88,
          "midi": 45,
          "name": "A2",
          "ticks": 30480,
          "time": 90.714195,
          "velocity": 0.6535433070866141
        },
        {
          "duration": 0.2619045000000142,
          "durationTicks": 88,
          "midi": 50,
          "name": "D3",
          "ticks": 30480,
          "time": 90.714195,
          "velocity": 0.6535433070866141
        },
        {
          "duration": 0.2619045000000142,
          "durationTicks": 88,
          "midi": 54,
          "name": "F#3",
          "ticks": 30480,
          "time": 90.714195,
          "velocity": 0.6535433070866141
        },
        {
          "duration": 0.2619045,
          "durationTicks": 88,
          "midi": 55,
          "name": "G3",
          "ticks": 30624,
          "time": 91.14276600000001,
          "velocity": 0.6535433070866141
        },
        {
          "duration": 0.2619045,
          "durationTicks": 88,
          "midi": 50,
          "name": "D3",
          "ticks": 30624,
          "time": 91.14276600000001,
          "velocity": 0.6535433070866141
        },
        {
          "duration": 0.2619045,
          "durationTicks": 88,
          "midi": 46,
          "name": "A#2",
          "ticks": 30624,
          "time": 91.14276600000001,
          "velocity": 0.6535433070866141
        },
        {
          "duration": 0.2619045,
          "durationTicks": 88,
          "midi": 54,
          "name": "F#3",
          "ticks": 30768,
          "time": 91.57133700000001,
          "velocity": 0.6535433070866141
        },
        {
          "duration": 0.2619045,
          "durationTicks": 88,
          "midi": 50,
          "name": "D3",
          "ticks": 30768,
          "time": 91.57133700000001,
          "velocity": 0.6535433070866141
        },
        {
          "duration": 0.2619045,
          "durationTicks": 88,
          "midi": 45,
          "name": "A2",
          "ticks": 30768,
          "time": 91.57133700000001,
          "velocity": 0.6535433070866141
        },
        {
          "duration": 0.2619045000000142,
          "durationTicks": 88,
          "midi": 50,
          "name": "D3",
          "ticks": 30912,
          "time": 91.999908,
          "velocity": 0.6535433070866141
        },
        {
          "duration": 0.2619045000000142,
          "durationTicks": 88,
          "midi": 55,
          "name": "G3",
          "ticks": 30912,
          "time": 91.999908,
          "velocity": 0.6535433070866141
        },
        {
          "duration": 0.2619045000000142,
          "durationTicks": 88,
          "midi": 46,
          "name": "A#2",
          "ticks": 30912,
          "time": 91.999908,
          "velocity": 0.6535433070866141
        },
        {
          "duration": 0.2619045000000142,
          "durationTicks": 88,
          "midi": 54,
          "name": "F#3",
          "ticks": 31008,
          "time": 92.285622,
          "velocity": 0.6535433070866141
        },
        {
          "duration": 0.2619045000000142,
          "durationTicks": 88,
          "midi": 50,
          "name": "D3",
          "ticks": 31008,
          "time": 92.285622,
          "velocity": 0.6535433070866141
        },
        {
          "duration": 0.2619045000000142,
          "durationTicks": 88,
          "midi": 45,
          "name": "A2",
          "ticks": 31008,
          "time": 92.285622,
          "velocity": 0.6535433070866141
        },
        {
          "duration": 0.2619045000000142,
          "durationTicks": 88,
          "midi": 50,
          "name": "D3",
          "ticks": 31104,
          "time": 92.571336,
          "velocity": 0.6535433070866141
        },
        {
          "duration": 0.2619045000000142,
          "durationTicks": 88,
          "midi": 46,
          "name": "A#2",
          "ticks": 31104,
          "time": 92.571336,
          "velocity": 0.6535433070866141
        },
        {
          "duration": 0.2619045000000142,
          "durationTicks": 88,
          "midi": 51,
          "name": "D#3",
          "ticks": 31200,
          "time": 92.85705,
          "velocity": 0.6535433070866141
        },
        {
          "duration": 0.2619045000000142,
          "durationTicks": 88,
          "midi": 47,
          "name": "B2",
          "ticks": 31200,
          "time": 92.85705,
          "velocity": 0.6535433070866141
        },
        {
          "duration": 0.2619045,
          "durationTicks": 88,
          "midi": 52,
          "name": "E3",
          "ticks": 31296,
          "time": 93.14276400000001,
          "velocity": 0.6535433070866141
        },
        {
          "duration": 0.2619045,
          "durationTicks": 88,
          "midi": 48,
          "name": "C3",
          "ticks": 31296,
          "time": 93.14276400000001,
          "velocity": 0.6535433070866141
        },
        {
          "duration": 0.2619045,
          "durationTicks": 88,
          "midi": 53,
          "name": "F3",
          "ticks": 31392,
          "time": 93.42847800000001,
          "velocity": 0.6535433070866141
        },
        {
          "duration": 0.2619045,
          "durationTicks": 88,
          "midi": 49,
          "name": "C#3",
          "ticks": 31392,
          "time": 93.42847800000001,
          "velocity": 0.6535433070866141
        },
        {
          "duration": 0.11904750000000774,
          "durationTicks": 40,
          "midi": 54,
          "name": "F#3",
          "ticks": 31488,
          "time": 93.71419200000001,
          "velocity": 0.6535433070866141
        },
        {
          "duration": 0.11904750000000774,
          "durationTicks": 40,
          "midi": 50,
          "name": "D3",
          "ticks": 31488,
          "time": 93.71419200000001,
          "velocity": 0.6535433070866141
        },
        {
          "duration": 0.11904750000000774,
          "durationTicks": 40,
          "midi": 55,
          "name": "G3",
          "ticks": 31536,
          "time": 93.857049,
          "velocity": 0.6535433070866141
        },
        {
          "duration": 0.11904750000000774,
          "durationTicks": 40,
          "midi": 51,
          "name": "D#3",
          "ticks": 31536,
          "time": 93.857049,
          "velocity": 0.6535433070866141
        },
        {
          "duration": 0.11904750000000774,
          "durationTicks": 40,
          "midi": 56,
          "name": "G#3",
          "ticks": 31584,
          "time": 93.99990600000001,
          "velocity": 0.6535433070866141
        },
        {
          "duration": 0.11904750000000774,
          "durationTicks": 40,
          "midi": 52,
          "name": "E3",
          "ticks": 31584,
          "time": 93.99990600000001,
          "velocity": 0.6535433070866141
        },
        {
          "duration": 0.11904750000000774,
          "durationTicks": 40,
          "midi": 53,
          "name": "F3",
          "ticks": 31632,
          "time": 94.142763,
          "velocity": 0.6535433070866141
        },
        {
          "duration": 0.11904750000000774,
          "durationTicks": 40,
          "midi": 57,
          "name": "A3",
          "ticks": 31632,
          "time": 94.142763,
          "velocity": 0.6535433070866141
        },
        {
          "duration": 0.047619000000011624,
          "durationTicks": 16,
          "midi": 54,
          "name": "F#3",
          "ticks": 31680,
          "time": 94.28562000000001,
          "velocity": 0.6535433070866141
        },
        {
          "duration": 0.047619000000011624,
          "durationTicks": 16,
          "midi": 58,
          "name": "A#3",
          "ticks": 31680,
          "time": 94.28562000000001,
          "velocity": 0.6535433070866141
        },
        {
          "duration": 0.047619000000011624,
          "durationTicks": 16,
          "midi": 59,
          "name": "B3",
          "ticks": 31704,
          "time": 94.3570485,
          "velocity": 0.6535433070866141
        },
        {
          "duration": 0.047619000000011624,
          "durationTicks": 16,
          "midi": 55,
          "name": "G3",
          "ticks": 31704,
          "time": 94.3570485,
          "velocity": 0.6535433070866141
        },
        {
          "duration": 0.047619000000011624,
          "durationTicks": 16,
          "midi": 60,
          "name": "C4",
          "ticks": 31728,
          "time": 94.428477,
          "velocity": 0.6535433070866141
        },
        {
          "duration": 0.047619000000011624,
          "durationTicks": 16,
          "midi": 56,
          "name": "G#3",
          "ticks": 31728,
          "time": 94.428477,
          "velocity": 0.6535433070866141
        },
        {
          "duration": 0.04761899999999741,
          "durationTicks": 16,
          "midi": 61,
          "name": "C#4",
          "ticks": 31752,
          "time": 94.49990550000001,
          "velocity": 0.6535433070866141
        },
        {
          "duration": 0.04761899999999741,
          "durationTicks": 16,
          "midi": 57,
          "name": "A3",
          "ticks": 31752,
          "time": 94.49990550000001,
          "velocity": 0.6535433070866141
        },
        {
          "duration": 0.047619000000011624,
          "durationTicks": 16,
          "midi": 58,
          "name": "A#3",
          "ticks": 31776,
          "time": 94.57133400000001,
          "velocity": 0.6535433070866141
        },
        {
          "duration": 0.047619000000011624,
          "durationTicks": 16,
          "midi": 62,
          "name": "D4",
          "ticks": 31776,
          "time": 94.57133400000001,
          "velocity": 0.6535433070866141
        },
        {
          "duration": 0.047619000000011624,
          "durationTicks": 16,
          "midi": 59,
          "name": "B3",
          "ticks": 31800,
          "time": 94.6427625,
          "velocity": 0.6535433070866141
        },
        {
          "duration": 0.047619000000011624,
          "durationTicks": 16,
          "midi": 63,
          "name": "D#4",
          "ticks": 31800,
          "time": 94.6427625,
          "velocity": 0.6535433070866141
        },
        {
          "duration": 0.04761899999999741,
          "durationTicks": 16,
          "midi": 60,
          "name": "C4",
          "ticks": 31824,
          "time": 94.71419100000001,
          "velocity": 0.6535433070866141
        },
        {
          "duration": 0.04761899999999741,
          "durationTicks": 16,
          "midi": 64,
          "name": "E4",
          "ticks": 31824,
          "time": 94.71419100000001,
          "velocity": 0.6535433070866141
        },
        {
          "duration": 0.04761899999999741,
          "durationTicks": 16,
          "midi": 61,
          "name": "C#4",
          "ticks": 31848,
          "time": 94.78561950000001,
          "velocity": 0.6535433070866141
        },
        {
          "duration": 0.04761899999999741,
          "durationTicks": 16,
          "midi": 65,
          "name": "F4",
          "ticks": 31848,
          "time": 94.78561950000001,
          "velocity": 0.6535433070866141
        }
      ],
      "endOfTrackTicks": 47692
    },
    {
      "channel": 3,
      "controlChanges": {
        "6": [
          {
            "number": 6,
            "ticks": 0,
            "time": 0,
            "value": 0.09448818897637795
          },
          {
            "number": 6,
            "ticks": 0,
            "time": 0,
            "value": 0.09448818897637795
          },
          {
            "number": 6,
            "ticks": 0,
            "time": 0,
            "value": 0.09448818897637795
          },
          {
            "number": 6,
            "ticks": 47690,
            "time": 141.934381875,
            "value": 0.09448818897637795
          },
          {
            "number": 6,
            "ticks": 47692,
            "time": 141.94033425,
            "value": 0.09448818897637795
          }
        ],
        "7": [
          {
            "number": 7,
            "ticks": 0,
            "time": 0,
            "value": 0.7874015748031497
          },
          {
            "number": 7,
            "ticks": 0,
            "time": 0,
            "value": 0.7874015748031497
          },
          {
            "number": 7,
            "ticks": 0,
            "time": 0,
            "value": 0.7874015748031497
          },
          {
            "number": 7,
            "ticks": 0,
            "time": 0,
            "value": 0.7874015748031497
          },
          {
            "number": 7,
            "ticks": 47690,
            "time": 141.934381875,
            "value": 0.7874015748031497
          },
          {
            "number": 7,
            "ticks": 47692,
            "time": 141.94033425,
            "value": 0.7874015748031497
          }
        ],
        "10": [
          {
            "number": 10,
            "ticks": 0,
            "time": 0,
            "value": 0.5039370078740157
          },
          {
            "number": 10,
            "ticks": 0,
            "time": 0,
            "value": 0.5039370078740157
          },
          {
            "number": 10,
            "ticks": 0,
            "time": 0,
            "value": 0.5039370078740157
          },
          {
            "number": 10,
            "ticks": 0,
            "time": 0,
            "value": 0.5039370078740157
          },
          {
            "number": 10,
            "ticks": 47690,
            "time": 141.934381875,
            "value": 0.5039370078740157
          },
          {
            "number": 10,
            "ticks": 47692,
            "time": 141.94033425,
            "value": 0.5039370078740157
          }
        ],
        "100": [
          {
            "number": 100,
            "ticks": 0,
            "time": 0,
            "value": 0
          },
          {
            "number": 100,
            "ticks": 0,
            "time": 0,
            "value": 0
          },
          {
            "number": 100,
            "ticks": 0,
            "time": 0,
            "value": 0
          },
          {
            "number": 100,
            "ticks": 47690,
            "time": 141.934381875,
            "value": 0
          },
          {
            "number": 100,
            "ticks": 47692,
            "time": 141.94033425,
            "value": 0
          }
        ],
        "101": [
          {
            "number": 101,
            "ticks": 0,
            "time": 0,
            "value": 0
          },
          {
            "number": 101,
            "ticks": 0,
            "time": 0,
            "value": 0
          },
          {
            "number": 101,
            "ticks": 0,
            "time": 0,
            "value": 0
          },
          {
            "number": 101,
            "ticks": 47690,
            "time": 141.934381875,
            "value": 0
          },
          {
            "number": 101,
            "ticks": 47692,
            "time": 141.94033425,
            "value": 0
          }
        ]
      },
      "pitchBends": [
        {
          "ticks": 0,
          "time": 0,
          "value": 0
        },
        {
          "ticks": 0,
          "time": 0,
          "value": 0
        },
        {
          "ticks": 0,
          "time": 0,
          "value": 0
        },
        {
          "ticks": 0,
          "time": 0,
          "value": 0
        },
        {
          "ticks": 47690,
          "time": 141.934381875,
          "value": 0
        },
        {
          "ticks": 47692,
          "time": 141.94033425,
          "value": 0
        }
      ],
      "instrument": {
        "family": "piano",
        "number": 0,
        "name": "acoustic grand piano"
      },
      "name": "Srting",
      "notes": [
        {
          "duration": 0.14285700000000023,
          "durationTicks": 48,
          "midi": 70,
          "name": "A#4",
          "ticks": 1920,
          "time": 5.7142800000000005,
          "velocity": 0.6535433070866141
        },
        {
          "duration": 0.14285700000000023,
          "durationTicks": 48,
          "midi": 69,
          "name": "A4",
          "ticks": 1968,
          "time": 5.857137000000001,
          "velocity": 0.6535433070866141
        },
        {
          "duration": 0.14285699999999935,
          "durationTicks": 48,
          "midi": 67,
          "name": "G4",
          "ticks": 2016,
          "time": 5.999994000000001,
          "velocity": 0.6535433070866141
        },
        {
          "duration": 0.14285700000000023,
          "durationTicks": 48,
          "midi": 62,
          "name": "D4",
          "ticks": 2064,
          "time": 6.142851,
          "velocity": 0.6535433070866141
        },
        {
          "duration": 0.2857139999999996,
          "durationTicks": 96,
          "midi": 58,
          "name": "A#3",
          "ticks": 2112,
          "time": 6.2857080000000005,
          "velocity": 0.6535433070866141
        },
        {
          "duration": 0.2619045000000009,
          "durationTicks": 88,
          "midi": 70,
          "name": "A#4",
          "ticks": 2208,
          "time": 6.571422,
          "velocity": 0.6535433070866141
        },
        {
          "duration": 0.5476185000000005,
          "durationTicks": 184,
          "midi": 69,
          "name": "A4",
          "ticks": 2310,
          "time": 6.8749931250000005,
          "velocity": 0.6535433070866141
        },
        {
          "duration": 0.14285700000000023,
          "durationTicks": 48,
          "midi": 69,
          "name": "A4",
          "ticks": 2496,
          "time": 7.428564000000001,
          "velocity": 0.6535433070866141
        },
        {
          "duration": 0.14285699999999935,
          "durationTicks": 48,
          "midi": 67,
          "name": "G4",
          "ticks": 2544,
          "time": 7.571421000000001,
          "velocity": 0.6535433070866141
        },
        {
          "duration": 0.28571400000000047,
          "durationTicks": 96,
          "midi": 66,
          "name": "F#4",
          "ticks": 2592,
          "time": 7.714278,
          "velocity": 0.6535433070866141
        },
        {
          "duration": 0.2380949999999995,
          "durationTicks": 80,
          "midi": 62,
          "name": "D4",
          "ticks": 2688,
          "time": 7.999992000000001,
          "velocity": 0.6535433070866141
        },
        {
          "duration": 0.14285699999999935,
          "durationTicks": 48,
          "midi": 58,
          "name": "A#3",
          "ticks": 2784,
          "time": 8.285706000000001,
          "velocity": 0.6535433070866141
        },
        {
          "duration": 0.14285699999999935,
          "durationTicks": 48,
          "midi": 62,
          "name": "D4",
          "ticks": 2832,
          "time": 8.428563,
          "velocity": 0.6535433070866141
        },
        {
          "duration": 0.26190450000000176,
          "durationTicks": 88,
          "midi": 65,
          "name": "F4",
          "ticks": 2880,
          "time": 8.57142,
          "velocity": 0.6535433070866141
        },
        {
          "duration": 0.2619045,
          "durationTicks": 88,
          "midi": 68,
          "name": "G#4",
          "ticks": 2976,
          "time": 8.857134,
          "velocity": 0.6535433070866141
        },
        {
          "duration": 0.5476184999999987,
          "durationTicks": 184,
          "midi": 67,
          "name": "G4",
          "ticks": 3072,
          "time": 9.142848,
          "velocity": 0.6535433070866141
        },
        {
          "duration": 0.523809,
          "durationTicks": 176,
          "midi": 65,
          "name": "F4",
          "ticks": 3269,
          "time": 9.7291569375,
          "velocity": 0.6535433070866141
        },
        {
          "duration": 0.14285699999999935,
          "durationTicks": 48,
          "midi": 63,
          "name": "D#4",
          "ticks": 3456,
          "time": 10.285704,
          "velocity": 0.6535433070866141
        },
        {
          "duration": 0.14285700000000112,
          "durationTicks": 48,
          "midi": 62,
          "name": "D4",
          "ticks": 3504,
          "time": 10.428561,
          "velocity": 0.6535433070866141
        },
        {
          "duration": 0.14285699999999935,
          "durationTicks": 48,
          "midi": 60,
          "name": "C4",
          "ticks": 3552,
          "time": 10.571418000000001,
          "velocity": 0.6535433070866141
        },
        {
          "duration": 0.14285699999999935,
          "durationTicks": 48,
          "midi": 63,
          "name": "D#4",
          "ticks": 3600,
          "time": 10.714275,
          "velocity": 0.6535433070866141
        },
        {
          "duration": 0.2619045,
          "durationTicks": 88,
          "midi": 67,
          "name": "G4",
          "ticks": 3654,
          "time": 10.874989125,
          "velocity": 0.6535433070866141
        },
        {
          "duration": 0.28571400000000047,
          "durationTicks": 96,
          "midi": 63,
          "name": "D#4",
          "ticks": 3744,
          "time": 11.142846,
          "velocity": 0.6535433070866141
        },
        {
          "duration": 0.2380949999999995,
          "durationTicks": 80,
          "midi": 64,
          "name": "E4",
          "ticks": 3841,
          "time": 11.4315361875,
          "velocity": 0.6535433070866141
        },
        {
          "duration": 0.2380949999999995,
          "durationTicks": 80,
          "midi": 57,
          "name": "A3",
          "ticks": 3936,
          "time": 11.714274000000001,
          "velocity": 0.6535433070866141
        },
        {
          "duration": 0.14285699999999935,
          "durationTicks": 48,
          "midi": 61,
          "name": "C#4",
          "ticks": 4032,
          "time": 11.999988000000002,
          "velocity": 0.6535433070866141
        },
        {
          "duration": 0.14285699999999935,
          "durationTicks": 48,
          "midi": 64,
          "name": "E4",
          "ticks": 4080,
          "time": 12.142845000000001,
          "velocity": 0.6535433070866141
        },
        {
          "duration": 0.2619044999999982,
          "durationTicks": 88,
          "midi": 69,
          "name": "A4",
          "ticks": 4130,
          "time": 12.291654375000002,
          "velocity": 0.6535433070866141
        },
        {
          "duration": 1.6904744999999988,
          "durationTicks": 568,
          "midi": 67,
          "name": "G4",
          "ticks": 4226,
          "time": 12.577368375000002,
          "velocity": 0.6535433070866141
        },
        {
          "duration": 0.5476184999999987,
          "durationTicks": 184,
          "midi": 67,
          "name": "G4",
          "ticks": 4800,
          "time": 14.285700000000002,
          "velocity": 0.6535433070866141
        },
        {
          "duration": 2.2619024999999997,
          "durationTicks": 760,
          "midi": 66,
          "name": "F#4",
          "ticks": 4995,
          "time": 14.8660565625,
          "velocity": 0.6535433070866141
        },
        {
          "duration": 0.2619045,
          "durationTicks": 88,
          "midi": 70,
          "name": "A#4",
          "ticks": 6528,
          "time": 19.428552000000003,
          "velocity": 0.8267716535433071
        },
        {
          "duration": 0.2619045,
          "durationTicks": 88,
          "midi": 67,
          "name": "G4",
          "ticks": 6528,
          "time": 19.428552000000003,
          "velocity": 0.6929133858267716
        },
        {
          "duration": 0.2619045,
          "durationTicks": 88,
          "midi": 58,
          "name": "A#3",
          "ticks": 6528,
          "time": 19.428552000000003,
          "velocity": 0.8267716535433071
        },
        {
          "duration": 0.2619045,
          "durationTicks": 88,
          "midi": 66,
          "name": "F#4",
          "ticks": 6672,
          "time": 19.857123,
          "velocity": 0.6929133858267716
        },
        {
          "duration": 0.2619045,
          "durationTicks": 88,
          "midi": 69,
          "name": "A4",
          "ticks": 6672,
          "time": 19.857123,
          "velocity": 0.8267716535433071
        },
        {
          "duration": 0.2619045,
          "durationTicks": 88,
          "midi": 57,
          "name": "A3",
          "ticks": 6672,
          "time": 19.857123,
          "velocity": 0.8267716535433071
        },
        {
          "duration": 0.2619045,
          "durationTicks": 88,
          "midi": 67,
          "name": "G4",
          "ticks": 6816,
          "time": 20.285694000000003,
          "velocity": 0.6929133858267716
        },
        {
          "duration": 0.2619045,
          "durationTicks": 88,
          "midi": 58,
          "name": "A#3",
          "ticks": 6816,
          "time": 20.285694000000003,
          "velocity": 0.8267716535433071
        },
        {
          "duration": 0.2619045,
          "durationTicks": 88,
          "midi": 70,
          "name": "A#4",
          "ticks": 6816,
          "time": 20.285694000000003,
          "velocity": 0.8267716535433071
        },
        {
          "duration": 0.26190450000000354,
          "durationTicks": 88,
          "midi": 66,
          "name": "F#4",
          "ticks": 6960,
          "time": 20.714265,
          "velocity": 0.6929133858267716
        },
        {
          "duration": 0.26190450000000354,
          "durationTicks": 88,
          "midi": 69,
          "name": "A4",
          "ticks": 6960,
          "time": 20.714265,
          "velocity": 0.8267716535433071
        },
        {
          "duration": 0.26190450000000354,
          "durationTicks": 88,
          "midi": 57,
          "name": "A3",
          "ticks": 6960,
          "time": 20.714265,
          "velocity": 0.8267716535433071
        },
        {
          "duration": 0.2619045,
          "durationTicks": 88,
          "midi": 67,
          "name": "G4",
          "ticks": 7104,
          "time": 21.142836000000003,
          "velocity": 0.6929133858267716
        },
        {
          "duration": 0.2619045,
          "durationTicks": 88,
          "midi": 58,
          "name": "A#3",
          "ticks": 7104,
          "time": 21.142836000000003,
          "velocity": 0.8267716535433071
        },
        {
          "duration": 0.2619045,
          "durationTicks": 88,
          "midi": 70,
          "name": "A#4",
          "ticks": 7104,
          "time": 21.142836000000003,
          "velocity": 0.8267716535433071
        },
        {
          "duration": 0.26190450000000354,
          "durationTicks": 88,
          "midi": 69,
          "name": "A4",
          "ticks": 7200,
          "time": 21.42855,
          "velocity": 0.6929133858267716
        },
        {
          "duration": 0.26190450000000354,
          "durationTicks": 88,
          "midi": 72,
          "name": "C5",
          "ticks": 7200,
          "time": 21.42855,
          "velocity": 0.8267716535433071
        },
        {
          "duration": 0.26190450000000354,
          "durationTicks": 88,
          "midi": 60,
          "name": "C4",
          "ticks": 7200,
          "time": 21.42855,
          "velocity": 0.8267716535433071
        },
        {
          "duration": 0.26190450000000354,
          "durationTicks": 88,
          "midi": 70,
          "name": "A#4",
          "ticks": 7296,
          "time": 21.714264,
          "velocity": 0.8267716535433071
        },
        {
          "duration": 0.26190450000000354,
          "durationTicks": 88,
          "midi": 67,
          "name": "G4",
          "ticks": 7296,
          "time": 21.714264,
          "velocity": 0.7165354330708661
        },
        {
          "duration": 0.26190450000000354,
          "durationTicks": 88,
          "midi": 58,
          "name": "A#3",
          "ticks": 7296,
          "time": 21.714264,
          "velocity": 0.8267716535433071
        },
        {
          "duration": 0.2619045,
          "durationTicks": 88,
          "midi": 66,
          "name": "F#4",
          "ticks": 7440,
          "time": 22.142835,
          "velocity": 0.6929133858267716
        },
        {
          "duration": 0.2619045,
          "durationTicks": 88,
          "midi": 69,
          "name": "A4",
          "ticks": 7440,
          "time": 22.142835,
          "velocity": 0.8267716535433071
        },
        {
          "duration": 0.2619045,
          "durationTicks": 88,
          "midi": 57,
          "name": "A3",
          "ticks": 7440,
          "time": 22.142835,
          "velocity": 0.8267716535433071
        },
        {
          "duration": 0.2619045,
          "durationTicks": 88,
          "midi": 67,
          "name": "G4",
          "ticks": 7584,
          "time": 22.571406000000003,
          "velocity": 0.6929133858267716
        },
        {
          "duration": 0.2619045,
          "durationTicks": 88,
          "midi": 70,
          "name": "A#4",
          "ticks": 7584,
          "time": 22.571406000000003,
          "velocity": 0.8267716535433071
        },
        {
          "duration": 0.2619045,
          "durationTicks": 88,
          "midi": 58,
          "name": "A#3",
          "ticks": 7584,
          "time": 22.571406000000003,
          "velocity": 0.8267716535433071
        },
        {
          "duration": 0.26190450000000354,
          "durationTicks": 88,
          "midi": 66,
          "name": "F#4",
          "ticks": 7728,
          "time": 22.999977,
          "velocity": 0.6929133858267716
        },
        {
          "duration": 0.26190450000000354,
          "durationTicks": 88,
          "midi": 57,
          "name": "A3",
          "ticks": 7728,
          "time": 22.999977,
          "velocity": 0.8267716535433071
        },
        {
          "duration": 0.26190450000000354,
          "durationTicks": 88,
          "midi": 69,
          "name": "A4",
          "ticks": 7728,
          "time": 22.999977,
          "velocity": 0.8267716535433071
        },
        {
          "duration": 0.2619045,
          "durationTicks": 88,
          "midi": 67,
          "name": "G4",
          "ticks": 7872,
          "time": 23.428548000000003,
          "velocity": 0.6929133858267716
        },
        {
          "duration": 0.2619045,
          "durationTicks": 88,
          "midi": 70,
          "name": "A#4",
          "ticks": 7872,
          "time": 23.428548000000003,
          "velocity": 0.8267716535433071
        },
        {
          "duration": 0.2619045,
          "durationTicks": 88,
          "midi": 58,
          "name": "A#3",
          "ticks": 7872,
          "time": 23.428548000000003,
          "velocity": 0.8267716535433071
        },
        {
          "duration": 0.26190450000000354,
          "durationTicks": 88,
          "midi": 54,
          "name": "F#3",
          "ticks": 7968,
          "time": 23.714262,
          "velocity": 0.8267716535433071
        },
        {
          "duration": 0.26190450000000354,
          "durationTicks": 88,
          "midi": 66,
          "name": "F#4",
          "ticks": 7968,
          "time": 23.714262,
          "velocity": 0.8267716535433071
        },
        {
          "duration": 0.26190450000000354,
          "durationTicks": 88,
          "midi": 62,
          "name": "D4",
          "ticks": 7968,
          "time": 23.714262,
          "velocity": 0.6929133858267716
        },
        {
          "duration": 0.2619045,
          "durationTicks": 88,
          "midi": 67,
          "name": "G4",
          "ticks": 8064,
          "time": 23.999976000000004,
          "velocity": 0.8267716535433071
        },
        {
          "duration": 0.2619045,
          "durationTicks": 88,
          "midi": 55,
          "name": "G3",
          "ticks": 8064,
          "time": 23.999976000000004,
          "velocity": 0.8267716535433071
        },
        {
          "duration": 0.2619045,
          "durationTicks": 88,
          "midi": 62,
          "name": "D4",
          "ticks": 8064,
          "time": 23.999976000000004,
          "velocity": 0.6929133858267716
        },
        {
          "duration": 0.2619045,
          "durationTicks": 88,
          "midi": 66,
          "name": "F#4",
          "ticks": 8208,
          "time": 24.428547000000002,
          "velocity": 0.6929133858267716
        },
        {
          "duration": 0.2619045,
          "durationTicks": 88,
          "midi": 69,
          "name": "A4",
          "ticks": 8208,
          "time": 24.428547000000002,
          "velocity": 0.8267716535433071
        },
        {
          "duration": 0.2619045,
          "durationTicks": 88,
          "midi": 57,
          "name": "A3",
          "ticks": 8208,
          "time": 24.428547000000002,
          "velocity": 0.8267716535433071
        },
        {
          "duration": 0.2619045,
          "durationTicks": 88,
          "midi": 67,
          "name": "G4",
          "ticks": 8352,
          "time": 24.857118000000003,
          "velocity": 0.6929133858267716
        },
        {
          "duration": 0.2619045,
          "durationTicks": 88,
          "midi": 70,
          "name": "A#4",
          "ticks": 8352,
          "time": 24.857118000000003,
          "velocity": 0.8267716535433071
        },
        {
          "duration": 0.2619045,
          "durationTicks": 88,
          "midi": 58,
          "name": "A#3",
          "ticks": 8352,
          "time": 24.857118000000003,
          "velocity": 0.8267716535433071
        },
        {
          "duration": 0.26190450000000354,
          "durationTicks": 88,
          "midi": 66,
          "name": "F#4",
          "ticks": 8496,
          "time": 25.285689,
          "velocity": 0.6929133858267716
        },
        {
          "duration": 0.26190450000000354,
          "durationTicks": 88,
          "midi": 69,
          "name": "A4",
          "ticks": 8496,
          "time": 25.285689,
          "velocity": 0.8267716535433071
        },
        {
          "duration": 0.26190450000000354,
          "durationTicks": 88,
          "midi": 57,
          "name": "A3",
          "ticks": 8496,
          "time": 25.285689,
          "velocity": 0.8267716535433071
        },
        {
          "duration": 0.2619045,
          "durationTicks": 88,
          "midi": 67,
          "name": "G4",
          "ticks": 8640,
          "time": 25.714260000000003,
          "velocity": 0.6929133858267716
        },
        {
          "duration": 0.2619045,
          "durationTicks": 88,
          "midi": 58,
          "name": "A#3",
          "ticks": 8640,
          "time": 25.714260000000003,
          "velocity": 0.8267716535433071
        },
        {
          "duration": 0.2619045,
          "durationTicks": 88,
          "midi": 70,
          "name": "A#4",
          "ticks": 8640,
          "time": 25.714260000000003,
          "velocity": 0.8267716535433071
        },
        {
          "duration": 0.26190450000000354,
          "durationTicks": 88,
          "midi": 69,
          "name": "A4",
          "ticks": 8736,
          "time": 25.999974,
          "velocity": 0.6929133858267716
        },
        {
          "duration": 0.26190450000000354,
          "durationTicks": 88,
          "midi": 72,
          "name": "C5",
          "ticks": 8736,
          "time": 25.999974,
          "velocity": 0.8267716535433071
        },
        {
          "duration": 0.26190450000000354,
          "durationTicks": 88,
          "midi": 60,
          "name": "C4",
          "ticks": 8736,
          "time": 25.999974,
          "velocity": 0.8267716535433071
        },
        {
          "duration": 0.26190450000000354,
          "durationTicks": 88,
          "midi": 70,
          "name": "A#4",
          "ticks": 8832,
          "time": 26.285688,
          "velocity": 0.6929133858267716
        },
        {
          "duration": 0.26190450000000354,
          "durationTicks": 88,
          "midi": 62,
          "name": "D4",
          "ticks": 8832,
          "time": 26.285688,
          "velocity": 0.8267716535433071
        },
        {
          "duration": 0.26190450000000354,
          "durationTicks": 88,
          "midi": 74,
          "name": "D5",
          "ticks": 8832,
          "time": 26.285688,
          "velocity": 0.8267716535433071
        },
        {
          "duration": 0.2619045,
          "durationTicks": 88,
          "midi": 69,
          "name": "A4",
          "ticks": 8976,
          "time": 26.714259000000002,
          "velocity": 0.6929133858267716
        },
        {
          "duration": 0.2619045,
          "durationTicks": 88,
          "midi": 72,
          "name": "C5",
          "ticks": 8976,
          "time": 26.714259000000002,
          "velocity": 0.8267716535433071
        },
        {
          "duration": 0.2619045,
          "durationTicks": 88,
          "midi": 60,
          "name": "C4",
          "ticks": 8976,
          "time": 26.714259000000002,
          "velocity": 0.8267716535433071
        },
        {
          "duration": 0.2619045,
          "durationTicks": 88,
          "midi": 70,
          "name": "A#4",
          "ticks": 9120,
          "time": 27.142830000000004,
          "velocity": 0.6929133858267716
        },
        {
          "duration": 0.2619045,
          "durationTicks": 88,
          "midi": 74,
          "name": "D5",
          "ticks": 9120,
          "time": 27.142830000000004,
          "velocity": 0.8267716535433071
        },
        {
          "duration": 0.2619045,
          "durationTicks": 88,
          "midi": 62,
          "name": "D4",
          "ticks": 9120,
          "time": 27.142830000000004,
          "velocity": 0.8267716535433071
        },
        {
          "duration": 0.26190450000000354,
          "durationTicks": 88,
          "midi": 69,
          "name": "A4",
          "ticks": 9264,
          "time": 27.571401,
          "velocity": 0.6929133858267716
        },
        {
          "duration": 0.26190450000000354,
          "durationTicks": 88,
          "midi": 72,
          "name": "C5",
          "ticks": 9264,
          "time": 27.571401,
          "velocity": 0.8267716535433071
        },
        {
          "duration": 0.26190450000000354,
          "durationTicks": 88,
          "midi": 60,
          "name": "C4",
          "ticks": 9264,
          "time": 27.571401,
          "velocity": 0.8267716535433071
        },
        {
          "duration": 0.2619045,
          "durationTicks": 88,
          "midi": 70,
          "name": "A#4",
          "ticks": 9408,
          "time": 27.999972000000003,
          "velocity": 0.7952755905511811
        },
        {
          "duration": 0.2619045,
          "durationTicks": 88,
          "midi": 74,
          "name": "D5",
          "ticks": 9408,
          "time": 27.999972000000003,
          "velocity": 0.7480314960629921
        },
        {
          "duration": 0.2619045,
          "durationTicks": 88,
          "midi": 62,
          "name": "D4",
          "ticks": 9408,
          "time": 27.999972000000003,
          "velocity": 0.8267716535433071
        },
        {
          "duration": 0.26190450000000354,
          "durationTicks": 88,
          "midi": 62,
          "name": "D4",
          "ticks": 9504,
          "time": 28.285686000000002,
          "velocity": 0.8267716535433071
        },
        {
          "duration": 0.26190450000000354,
          "durationTicks": 88,
          "midi": 74,
          "name": "D5",
          "ticks": 9504,
          "time": 28.285686000000002,
          "velocity": 0.7322834645669292
        },
        {
          "duration": 0.26190450000000354,
          "durationTicks": 88,
          "midi": 66,
          "name": "F#4",
          "ticks": 9504,
          "time": 28.285686000000002,
          "velocity": 0.7952755905511811
        },
        {
          "duration": 0.2619045,
          "durationTicks": 88,
          "midi": 67,
          "name": "G4",
          "ticks": 9600,
          "time": 28.571400000000004,
          "velocity": 0.8188976377952756
        },
        {
          "duration": 0.2619045,
          "durationTicks": 88,
          "midi": 62,
          "name": "D4",
          "ticks": 9600,
          "time": 28.571400000000004,
          "velocity": 0.6456692913385826
        },
        {
          "duration": 0.2619045,
          "durationTicks": 88,
          "midi": 55,
          "name": "G3",
          "ticks": 9600,
          "time": 28.571400000000004,
          "velocity": 0.7165354330708661
        },
        {
          "duration": 0.2619045,
          "durationTicks": 88,
          "midi": 69,
          "name": "A4",
          "ticks": 9744,
          "time": 28.999971000000002,
          "velocity": 0.8188976377952756
        },
        {
          "duration": 0.2619045,
          "durationTicks": 88,
          "midi": 66,
          "name": "F#4",
          "ticks": 9744,
          "time": 28.999971000000002,
          "velocity": 0.6771653543307087
        },
        {
          "duration": 0.2619045,
          "durationTicks": 88,
          "midi": 57,
          "name": "A3",
          "ticks": 9744,
          "time": 28.999971000000002,
          "velocity": 0.7165354330708661
        },
        {
          "duration": 0.2619045,
          "durationTicks": 88,
          "midi": 67,
          "name": "G4",
          "ticks": 9888,
          "time": 29.428542000000004,
          "velocity": 0.6614173228346457
        },
        {
          "duration": 0.2619045,
          "durationTicks": 88,
          "midi": 58,
          "name": "A#3",
          "ticks": 9888,
          "time": 29.428542000000004,
          "velocity": 0.7165354330708661
        },
        {
          "duration": 0.2619045,
          "durationTicks": 88,
          "midi": 70,
          "name": "A#4",
          "ticks": 9888,
          "time": 29.428542000000004,
          "velocity": 0.8188976377952756
        },
        {
          "duration": 0.26190450000000354,
          "durationTicks": 88,
          "midi": 69,
          "name": "A4",
          "ticks": 10032,
          "time": 29.857113000000002,
          "velocity": 0.8188976377952756
        },
        {
          "duration": 0.26190450000000354,
          "durationTicks": 88,
          "midi": 66,
          "name": "F#4",
          "ticks": 10032,
          "time": 29.857113000000002,
          "velocity": 0.6771653543307087
        },
        {
          "duration": 0.26190450000000354,
          "durationTicks": 88,
          "midi": 57,
          "name": "A3",
          "ticks": 10032,
          "time": 29.857113000000002,
          "velocity": 0.7165354330708661
        },
        {
          "duration": 0.2619045,
          "durationTicks": 88,
          "midi": 67,
          "name": "G4",
          "ticks": 10176,
          "time": 30.285684000000003,
          "velocity": 0.6850393700787402
        },
        {
          "duration": 0.2619045,
          "durationTicks": 88,
          "midi": 70,
          "name": "A#4",
          "ticks": 10176,
          "time": 30.285684000000003,
          "velocity": 0.8188976377952756
        },
        {
          "duration": 0.2619045,
          "durationTicks": 88,
          "midi": 58,
          "name": "A#3",
          "ticks": 10176,
          "time": 30.285684000000003,
          "velocity": 0.7165354330708661
        },
        {
          "duration": 0.26190450000000354,
          "durationTicks": 88,
          "midi": 60,
          "name": "C4",
          "ticks": 10272,
          "time": 30.571398000000002,
          "velocity": 0.7165354330708661
        },
        {
          "duration": 0.26190450000000354,
          "durationTicks": 88,
          "midi": 69,
          "name": "A4",
          "ticks": 10272,
          "time": 30.571398000000002,
          "velocity": 0.6929133858267716
        },
        {
          "duration": 0.26190450000000354,
          "durationTicks": 88,
          "midi": 72,
          "name": "C5",
          "ticks": 10272,
          "time": 30.571398000000002,
          "velocity": 0.8188976377952756
        },
        {
          "duration": 0.26190450000000354,
          "durationTicks": 88,
          "midi": 55,
          "name": "G3",
          "ticks": 10368,
          "time": 30.857112,
          "velocity": 0.7165354330708661
        },
        {
          "duration": 0.26190450000000354,
          "durationTicks": 88,
          "midi": 67,
          "name": "G4",
          "ticks": 10368,
          "time": 30.857112,
          "velocity": 0.8188976377952756
        },
        {
          "duration": 0.26190450000000354,
          "durationTicks": 88,
          "midi": 62,
          "name": "D4",
          "ticks": 10368,
          "time": 30.857112,
          "velocity": 0.6929133858267716
        },
        {
          "duration": 0.2619045,
          "durationTicks": 88,
          "midi": 57,
          "name": "A3",
          "ticks": 10512,
          "time": 31.285683000000002,
          "velocity": 0.7165354330708661
        },
        {
          "duration": 0.2619045,
          "durationTicks": 88,
          "midi": 66,
          "name": "F#4",
          "ticks": 10512,
          "time": 31.285683000000002,
          "velocity": 0.7086614173228346
        },
        {
          "duration": 0.2619045,
          "durationTicks": 88,
          "midi": 69,
          "name": "A4",
          "ticks": 10512,
          "time": 31.285683000000002,
          "velocity": 0.8188976377952756
        },
        {
          "duration": 0.2619045,
          "durationTicks": 88,
          "midi": 58,
          "name": "A#3",
          "ticks": 10656,
          "time": 31.714254000000004,
          "velocity": 0.7165354330708661
        },
        {
          "duration": 0.2619045,
          "durationTicks": 88,
          "midi": 67,
          "name": "G4",
          "ticks": 10656,
          "time": 31.714254000000004,
          "velocity": 0.7165354330708661
        },
        {
          "duration": 0.2619045,
          "durationTicks": 88,
          "midi": 70,
          "name": "A#4",
          "ticks": 10656,
          "time": 31.714254000000004,
          "velocity": 0.8188976377952756
        },
        {
          "duration": 0.2619045,
          "durationTicks": 88,
          "midi": 69,
          "name": "A4",
          "ticks": 10800,
          "time": 32.142825,
          "velocity": 0.8188976377952756
        },
        {
          "duration": 0.2619045,
          "durationTicks": 88,
          "midi": 66,
          "name": "F#4",
          "ticks": 10800,
          "time": 32.142825,
          "velocity": 0.7244094488188977
        },
        {
          "duration": 0.2619045,
          "durationTicks": 88,
          "midi": 57,
          "name": "A3",
          "ticks": 10800,
          "time": 32.142825,
          "velocity": 0.7165354330708661
        },
        {
          "duration": 0.2619045000000071,
          "durationTicks": 88,
          "midi": 67,
          "name": "G4",
          "ticks": 10944,
          "time": 32.571396,
          "velocity": 0.7322834645669292
        },
        {
          "duration": 0.2619045000000071,
          "durationTicks": 88,
          "midi": 70,
          "name": "A#4",
          "ticks": 10944,
          "time": 32.571396,
          "velocity": 0.8188976377952756
        },
        {
          "duration": 0.2619045000000071,
          "durationTicks": 88,
          "midi": 58,
          "name": "A#3",
          "ticks": 10944,
          "time": 32.571396,
          "velocity": 0.7165354330708661
        },
        {
          "duration": 0.2619045,
          "durationTicks": 88,
          "midi": 54,
          "name": "F#3",
          "ticks": 11040,
          "time": 32.857110000000006,
          "velocity": 0.7165354330708661
        },
        {
          "duration": 0.2619045,
          "durationTicks": 88,
          "midi": 66,
          "name": "F#4",
          "ticks": 11040,
          "time": 32.857110000000006,
          "velocity": 0.8188976377952756
        },
        {
          "duration": 0.2619045,
          "durationTicks": 88,
          "midi": 62,
          "name": "D4",
          "ticks": 11040,
          "time": 32.857110000000006,
          "velocity": 0.7401574803149606
        },
        {
          "duration": 0.2619045,
          "durationTicks": 88,
          "midi": 55,
          "name": "G3",
          "ticks": 11136,
          "time": 33.142824000000005,
          "velocity": 0.7165354330708661
        },
        {
          "duration": 0.2619045,
          "durationTicks": 88,
          "midi": 62,
          "name": "D4",
          "ticks": 11136,
          "time": 33.142824000000005,
          "velocity": 0.7480314960629921
        },
        {
          "duration": 0.2619045,
          "durationTicks": 88,
          "midi": 67,
          "name": "G4",
          "ticks": 11136,
          "time": 33.142824000000005,
          "velocity": 0.8188976377952756
        },
        {
          "duration": 0.2619045,
          "durationTicks": 88,
          "midi": 69,
          "name": "A4",
          "ticks": 11280,
          "time": 33.571395,
          "velocity": 0.8188976377952756
        },
        {
          "duration": 0.2619045,
          "durationTicks": 88,
          "midi": 66,
          "name": "F#4",
          "ticks": 11280,
          "time": 33.571395,
          "velocity": 0.8188976377952756
        },
        {
          "duration": 0.2619045,
          "durationTicks": 88,
          "midi": 57,
          "name": "A3",
          "ticks": 11280,
          "time": 33.571395,
          "velocity": 0.7165354330708661
        },
        {
          "duration": 0.2619045000000071,
          "durationTicks": 88,
          "midi": 67,
          "name": "G4",
          "ticks": 11424,
          "time": 33.999966,
          "velocity": 0.8188976377952756
        },
        {
          "duration": 0.2619045000000071,
          "durationTicks": 88,
          "midi": 70,
          "name": "A#4",
          "ticks": 11424,
          "time": 33.999966,
          "velocity": 0.8188976377952756
        },
        {
          "duration": 0.2619045000000071,
          "durationTicks": 88,
          "midi": 58,
          "name": "A#3",
          "ticks": 11424,
          "time": 33.999966,
          "velocity": 0.7165354330708661
        },
        {
          "duration": 0.2619045,
          "durationTicks": 88,
          "midi": 66,
          "name": "F#4",
          "ticks": 11568,
          "time": 34.428537000000006,
          "velocity": 0.8188976377952756
        },
        {
          "duration": 0.2619045,
          "durationTicks": 88,
          "midi": 69,
          "name": "A4",
          "ticks": 11568,
          "time": 34.428537000000006,
          "velocity": 0.8188976377952756
        },
        {
          "duration": 0.2619045,
          "durationTicks": 88,
          "midi": 57,
          "name": "A3",
          "ticks": 11568,
          "time": 34.428537000000006,
          "velocity": 0.7165354330708661
        },
        {
          "duration": 0.2619045,
          "durationTicks": 88,
          "midi": 58,
          "name": "A#3",
          "ticks": 11712,
          "time": 34.857108000000004,
          "velocity": 0.7165354330708661
        },
        {
          "duration": 0.2619045,
          "durationTicks": 88,
          "midi": 70,
          "name": "A#4",
          "ticks": 11712,
          "time": 34.857108000000004,
          "velocity": 0.8188976377952756
        },
        {
          "duration": 0.2619045,
          "durationTicks": 88,
          "midi": 67,
          "name": "G4",
          "ticks": 11712,
          "time": 34.857108000000004,
          "velocity": 0.8188976377952756
        },
        {
          "duration": 0.2619045,
          "durationTicks": 88,
          "midi": 60,
          "name": "C4",
          "ticks": 11808,
          "time": 35.142822,
          "velocity": 0.7165354330708661
        },
        {
          "duration": 0.2619045,
          "durationTicks": 88,
          "midi": 72,
          "name": "C5",
          "ticks": 11808,
          "time": 35.142822,
          "velocity": 0.8188976377952756
        },
        {
          "duration": 0.2619045,
          "durationTicks": 88,
          "midi": 69,
          "name": "A4",
          "ticks": 11808,
          "time": 35.142822,
          "velocity": 0.8188976377952756
        },
        {
          "duration": 0.2619045,
          "durationTicks": 88,
          "midi": 62,
          "name": "D4",
          "ticks": 11904,
          "time": 35.428536,
          "velocity": 0.7165354330708661
        },
        {
          "duration": 0.2619045,
          "durationTicks": 88,
          "midi": 74,
          "name": "D5",
          "ticks": 11904,
          "time": 35.428536,
          "velocity": 0.8188976377952756
        },
        {
          "duration": 0.2619045,
          "durationTicks": 88,
          "midi": 70,
          "name": "A#4",
          "ticks": 11904,
          "time": 35.428536,
          "velocity": 0.8188976377952756
        },
        {
          "duration": 0.2619045,
          "durationTicks": 88,
          "midi": 60,
          "name": "C4",
          "ticks": 12048,
          "time": 35.857107000000006,
          "velocity": 0.7165354330708661
        },
        {
          "duration": 0.2619045,
          "durationTicks": 88,
          "midi": 72,
          "name": "C5",
          "ticks": 12048,
          "time": 35.857107000000006,
          "velocity": 0.8188976377952756
        },
        {
          "duration": 0.2619045,
          "durationTicks": 88,
          "midi": 69,
          "name": "A4",
          "ticks": 12048,
          "time": 35.857107000000006,
          "velocity": 0.8188976377952756
        },
        {
          "duration": 0.2619045,
          "durationTicks": 88,
          "midi": 62,
          "name": "D4",
          "ticks": 12192,
          "time": 36.285678000000004,
          "velocity": 0.7165354330708661
        },
        {
          "duration": 0.2619045,
          "durationTicks": 88,
          "midi": 74,
          "name": "D5",
          "ticks": 12192,
          "time": 36.285678000000004,
          "velocity": 0.8188976377952756
        },
        {
          "duration": 0.2619045,
          "durationTicks": 88,
          "midi": 70,
          "name": "A#4",
          "ticks": 12192,
          "time": 36.285678000000004,
          "velocity": 0.8188976377952756
        },
        {
          "duration": 0.2619045,
          "durationTicks": 88,
          "midi": 66,
          "name": "F#4",
          "ticks": 12288,
          "time": 36.571392,
          "velocity": 0.7165354330708661
        },
        {
          "duration": 0.2619045,
          "durationTicks": 88,
          "midi": 74,
          "name": "D5",
          "ticks": 12288,
          "time": 36.571392,
          "velocity": 0.8188976377952756
        },
        {
          "duration": 0.2619045,
          "durationTicks": 88,
          "midi": 78,
          "name": "F#5",
          "ticks": 12288,
          "time": 36.571392,
          "velocity": 0.8188976377952756
        },
        {
          "duration": 0.2619045,
          "durationTicks": 88,
          "midi": 79,
          "name": "G5",
          "ticks": 12480,
          "time": 37.14282,
          "velocity": 0.8188976377952756
        },
        {
          "duration": 0.2619045,
          "durationTicks": 88,
          "midi": 74,
          "name": "D5",
          "ticks": 12480,
          "time": 37.14282,
          "velocity": 0.8188976377952756
        },
        {
          "duration": 0.2619045,
          "durationTicks": 88,
          "midi": 67,
          "name": "G4",
          "ticks": 12480,
          "time": 37.14282,
          "velocity": 0.7165354330708661
        },
        {
          "duration": 0.2619044999999929,
          "durationTicks": 88,
          "midi": 78,
          "name": "F#5",
          "ticks": 12576,
          "time": 37.428534000000006,
          "velocity": 0.8188976377952756
        },
        {
          "duration": 0.2619044999999929,
          "durationTicks": 88,
          "midi": 74,
          "name": "D5",
          "ticks": 12576,
          "time": 37.428534000000006,
          "velocity": 0.8188976377952756
        },
        {
          "duration": 0.2619044999999929,
          "durationTicks": 88,
          "midi": 66,
          "name": "F#4",
          "ticks": 12576,
          "time": 37.428534000000006,
          "velocity": 0.7165354330708661
        },
        {
          "duration": 0.2619044999999929,
          "durationTicks": 88,
          "midi": 67,
          "name": "G4",
          "ticks": 12672,
          "time": 37.714248000000005,
          "velocity": 0.7165354330708661
        },
        {
          "duration": 0.2619045,
          "durationTicks": 88,
          "midi": 67,
          "name": "G4",
          "ticks": 29568,
          "time": 87.99991200000001,
          "velocity": 0.6929133858267716
        },
        {
          "duration": 0.2619045,
          "durationTicks": 88,
          "midi": 70,
          "name": "A#4",
          "ticks": 29568,
          "time": 87.99991200000001,
          "velocity": 0.8267716535433071
        },
        {
          "duration": 0.2619045,
          "durationTicks": 88,
          "midi": 58,
          "name": "A#3",
          "ticks": 29568,
          "time": 87.99991200000001,
          "velocity": 0.8267716535433071
        },
        {
          "duration": 0.2619045,
          "durationTicks": 88,
          "midi": 66,
          "name": "F#4",
          "ticks": 29712,
          "time": 88.42848300000001,
          "velocity": 0.6929133858267716
        },
        {
          "duration": 0.2619045,
          "durationTicks": 88,
          "midi": 57,
          "name": "A3",
          "ticks": 29712,
          "time": 88.42848300000001,
          "velocity": 0.8267716535433071
        },
        {
          "duration": 0.2619045,
          "durationTicks": 88,
          "midi": 69,
          "name": "A4",
          "ticks": 29712,
          "time": 88.42848300000001,
          "velocity": 0.8267716535433071
        },
        {
          "duration": 0.2619045000000142,
          "durationTicks": 88,
          "midi": 67,
          "name": "G4",
          "ticks": 29856,
          "time": 88.857054,
          "velocity": 0.6929133858267716
        },
        {
          "duration": 0.2619045000000142,
          "durationTicks": 88,
          "midi": 58,
          "name": "A#3",
          "ticks": 29856,
          "time": 88.857054,
          "velocity": 0.8267716535433071
        },
        {
          "duration": 0.2619045000000142,
          "durationTicks": 88,
          "midi": 70,
          "name": "A#4",
          "ticks": 29856,
          "time": 88.857054,
          "velocity": 0.8267716535433071
        },
        {
          "duration": 0.2619045,
          "durationTicks": 88,
          "midi": 66,
          "name": "F#4",
          "ticks": 30000,
          "time": 89.28562500000001,
          "velocity": 0.6929133858267716
        },
        {
          "duration": 0.2619045,
          "durationTicks": 88,
          "midi": 69,
          "name": "A4",
          "ticks": 30000,
          "time": 89.28562500000001,
          "velocity": 0.8267716535433071
        },
        {
          "duration": 0.2619045,
          "durationTicks": 88,
          "midi": 57,
          "name": "A3",
          "ticks": 30000,
          "time": 89.28562500000001,
          "velocity": 0.8267716535433071
        },
        {
          "duration": 0.2619045000000142,
          "durationTicks": 88,
          "midi": 67,
          "name": "G4",
          "ticks": 30144,
          "time": 89.714196,
          "velocity": 0.6929133858267716
        },
        {
          "duration": 0.2619045000000142,
          "durationTicks": 88,
          "midi": 70,
          "name": "A#4",
          "ticks": 30144,
          "time": 89.714196,
          "velocity": 0.8267716535433071
        },
        {
          "duration": 0.2619045000000142,
          "durationTicks": 88,
          "midi": 58,
          "name": "A#3",
          "ticks": 30144,
          "time": 89.714196,
          "velocity": 0.8267716535433071
        },
        {
          "duration": 0.2619045,
          "durationTicks": 88,
          "midi": 69,
          "name": "A4",
          "ticks": 30240,
          "time": 89.99991000000001,
          "velocity": 0.6929133858267716
        },
        {
          "duration": 0.2619045,
          "durationTicks": 88,
          "midi": 72,
          "name": "C5",
          "ticks": 30240,
          "time": 89.99991000000001,
          "velocity": 0.8267716535433071
        },
        {
          "duration": 0.2619045,
          "durationTicks": 88,
          "midi": 60,
          "name": "C4",
          "ticks": 30240,
          "time": 89.99991000000001,
          "velocity": 0.8267716535433071
        },
        {
          "duration": 0.2619045,
          "durationTicks": 88,
          "midi": 67,
          "name": "G4",
          "ticks": 30336,
          "time": 90.28562400000001,
          "velocity": 0.6929133858267716
        },
        {
          "duration": 0.2619045,
          "durationTicks": 88,
          "midi": 70,
          "name": "A#4",
          "ticks": 30336,
          "time": 90.28562400000001,
          "velocity": 0.8267716535433071
        },
        {
          "duration": 0.2619045,
          "durationTicks": 88,
          "midi": 58,
          "name": "A#3",
          "ticks": 30336,
          "time": 90.28562400000001,
          "velocity": 0.8267716535433071
        },
        {
          "duration": 0.2619045000000142,
          "durationTicks": 88,
          "midi": 66,
          "name": "F#4",
          "ticks": 30480,
          "time": 90.714195,
          "velocity": 0.6929133858267716
        },
        {
          "duration": 0.2619045000000142,
          "durationTicks": 88,
          "midi": 57,
          "name": "A3",
          "ticks": 30480,
          "time": 90.714195,
          "velocity": 0.8267716535433071
        },
        {
          "duration": 0.2619045000000142,
          "durationTicks": 88,
          "midi": 69,
          "name": "A4",
          "ticks": 30480,
          "time": 90.714195,
          "velocity": 0.8267716535433071
        },
        {
          "duration": 0.2619045,
          "durationTicks": 88,
          "midi": 67,
          "name": "G4",
          "ticks": 30624,
          "time": 91.14276600000001,
          "velocity": 0.6929133858267716
        },
        {
          "duration": 0.2619045,
          "durationTicks": 88,
          "midi": 70,
          "name": "A#4",
          "ticks": 30624,
          "time": 91.14276600000001,
          "velocity": 0.8267716535433071
        },
        {
          "duration": 0.2619045,
          "durationTicks": 88,
          "midi": 58,
          "name": "A#3",
          "ticks": 30624,
          "time": 91.14276600000001,
          "velocity": 0.8267716535433071
        },
        {
          "duration": 0.2619045,
          "durationTicks": 88,
          "midi": 66,
          "name": "F#4",
          "ticks": 30768,
          "time": 91.57133700000001,
          "velocity": 0.6929133858267716
        },
        {
          "duration": 0.2619045,
          "durationTicks": 88,
          "midi": 57,
          "name": "A3",
          "ticks": 30768,
          "time": 91.57133700000001,
          "velocity": 0.8267716535433071
        },
        {
          "duration": 0.2619045,
          "durationTicks": 88,
          "midi": 69,
          "name": "A4",
          "ticks": 30768,
          "time": 91.57133700000001,
          "velocity": 0.8267716535433071
        },
        {
          "duration": 0.2619045000000142,
          "durationTicks": 88,
          "midi": 67,
          "name": "G4",
          "ticks": 30912,
          "time": 91.999908,
          "velocity": 0.6929133858267716
        },
        {
          "duration": 0.2619045000000142,
          "durationTicks": 88,
          "midi": 70,
          "name": "A#4",
          "ticks": 30912,
          "time": 91.999908,
          "velocity": 0.8267716535433071
        },
        {
          "duration": 0.2619045000000142,
          "durationTicks": 88,
          "midi": 58,
          "name": "A#3",
          "ticks": 30912,
          "time": 91.999908,
          "velocity": 0.8267716535433071
        },
        {
          "duration": 0.2619045000000142,
          "durationTicks": 88,
          "midi": 69,
          "name": "A4",
          "ticks": 31008,
          "time": 92.285622,
          "velocity": 0.6929133858267716
        },
        {
          "duration": 0.2619045000000142,
          "durationTicks": 88,
          "midi": 60,
          "name": "C4",
          "ticks": 31008,
          "time": 92.285622,
          "velocity": 0.8267716535433071
        },
        {
          "duration": 0.2619045000000142,
          "durationTicks": 88,
          "midi": 72,
          "name": "C5",
          "ticks": 31008,
          "time": 92.285622,
          "velocity": 0.8267716535433071
        },
        {
          "duration": 0.2619045000000142,
          "durationTicks": 88,
          "midi": 70,
          "name": "A#4",
          "ticks": 31104,
          "time": 92.571336,
          "velocity": 0.8267716535433071
        },
        {
          "duration": 0.2619045000000142,
          "durationTicks": 88,
          "midi": 67,
          "name": "G4",
          "ticks": 31104,
          "time": 92.571336,
          "velocity": 0.6929133858267716
        },
        {
          "duration": 0.2619045000000142,
          "durationTicks": 88,
          "midi": 58,
          "name": "A#3",
          "ticks": 31104,
          "time": 92.571336,
          "velocity": 0.8267716535433071
        },
        {
          "duration": 0.2619045000000142,
          "durationTicks": 88,
          "midi": 59,
          "name": "B3",
          "ticks": 31200,
          "time": 92.85705,
          "velocity": 0.8267716535433071
        },
        {
          "duration": 0.2619045000000142,
          "durationTicks": 88,
          "midi": 68,
          "name": "G#4",
          "ticks": 31200,
          "time": 92.85705,
          "velocity": 0.6929133858267716
        },
        {
          "duration": 0.2619045000000142,
          "durationTicks": 88,
          "midi": 71,
          "name": "B4",
          "ticks": 31200,
          "time": 92.85705,
          "velocity": 0.8267716535433071
        },
        {
          "duration": 0.2619045,
          "durationTicks": 88,
          "midi": 72,
          "name": "C5",
          "ticks": 31296,
          "time": 93.14276400000001,
          "velocity": 0.8267716535433071
        },
        {
          "duration": 0.2619045,
          "durationTicks": 88,
          "midi": 69,
          "name": "A4",
          "ticks": 31296,
          "time": 93.14276400000001,
          "velocity": 0.6929133858267716
        },
        {
          "duration": 0.2619045,
          "durationTicks": 88,
          "midi": 60,
          "name": "C4",
          "ticks": 31296,
          "time": 93.14276400000001,
          "velocity": 0.8267716535433071
        },
        {
          "duration": 0.2619045,
          "durationTicks": 88,
          "midi": 61,
          "name": "C#4",
          "ticks": 31392,
          "time": 93.42847800000001,
          "velocity": 0.8267716535433071
        },
        {
          "duration": 0.2619045,
          "durationTicks": 88,
          "midi": 70,
          "name": "A#4",
          "ticks": 31392,
          "time": 93.42847800000001,
          "velocity": 0.6929133858267716
        },
        {
          "duration": 0.2619045,
          "durationTicks": 88,
          "midi": 73,
          "name": "C#5",
          "ticks": 31392,
          "time": 93.42847800000001,
          "velocity": 0.8267716535433071
        },
        {
          "duration": 0.11904750000000774,
          "durationTicks": 40,
          "midi": 74,
          "name": "D5",
          "ticks": 31488,
          "time": 93.71419200000001,
          "velocity": 0.8267716535433071
        },
        {
          "duration": 0.11904750000000774,
          "durationTicks": 40,
          "midi": 71,
          "name": "B4",
          "ticks": 31488,
          "time": 93.71419200000001,
          "velocity": 0.6929133858267716
        },
        {
          "duration": 0.11904750000000774,
          "durationTicks": 40,
          "midi": 62,
          "name": "D4",
          "ticks": 31488,
          "time": 93.71419200000001,
          "velocity": 0.8267716535433071
        },
        {
          "duration": 0.11904750000000774,
          "durationTicks": 40,
          "midi": 63,
          "name": "D#4",
          "ticks": 31536,
          "time": 93.857049,
          "velocity": 0.8267716535433071
        },
        {
          "duration": 0.11904750000000774,
          "durationTicks": 40,
          "midi": 72,
          "name": "C5",
          "ticks": 31536,
          "time": 93.857049,
          "velocity": 0.6929133858267716
        },
        {
          "duration": 0.11904750000000774,
          "durationTicks": 40,
          "midi": 75,
          "name": "D#5",
          "ticks": 31536,
          "time": 93.857049,
          "velocity": 0.8267716535433071
        },
        {
          "duration": 0.11904750000000774,
          "durationTicks": 40,
          "midi": 76,
          "name": "E5",
          "ticks": 31584,
          "time": 93.99990600000001,
          "velocity": 0.8267716535433071
        },
        {
          "duration": 0.11904750000000774,
          "durationTicks": 40,
          "midi": 73,
          "name": "C#5",
          "ticks": 31584,
          "time": 93.99990600000001,
          "velocity": 0.6929133858267716
        },
        {
          "duration": 0.11904750000000774,
          "durationTicks": 40,
          "midi": 64,
          "name": "E4",
          "ticks": 31584,
          "time": 93.99990600000001,
          "velocity": 0.8267716535433071
        },
        {
          "duration": 0.11904750000000774,
          "durationTicks": 40,
          "midi": 65,
          "name": "F4",
          "ticks": 31632,
          "time": 94.142763,
          "velocity": 0.8267716535433071
        },
        {
          "duration": 0.11904750000000774,
          "durationTicks": 40,
          "midi": 74,
          "name": "D5",
          "ticks": 31632,
          "time": 94.142763,
          "velocity": 0.6929133858267716
        },
        {
          "duration": 0.11904750000000774,
          "durationTicks": 40,
          "midi": 77,
          "name": "F5",
          "ticks": 31632,
          "time": 94.142763,
          "velocity": 0.8267716535433071
        },
        {
          "duration": 0.047619000000011624,
          "durationTicks": 16,
          "midi": 78,
          "name": "F#5",
          "ticks": 31680,
          "time": 94.28562000000001,
          "velocity": 0.8267716535433071
        },
        {
          "duration": 0.047619000000011624,
          "durationTicks": 16,
          "midi": 75,
          "name": "D#5",
          "ticks": 31680,
          "time": 94.28562000000001,
          "velocity": 0.6929133858267716
        },
        {
          "duration": 0.047619000000011624,
          "durationTicks": 16,
          "midi": 66,
          "name": "F#4",
          "ticks": 31680,
          "time": 94.28562000000001,
          "velocity": 0.8267716535433071
        },
        {
          "duration": 0.047619000000011624,
          "durationTicks": 16,
          "midi": 79,
          "name": "G5",
          "ticks": 31704,
          "time": 94.3570485,
          "velocity": 0.8267716535433071
        },
        {
          "duration": 0.047619000000011624,
          "durationTicks": 16,
          "midi": 76,
          "name": "E5",
          "ticks": 31704,
          "time": 94.3570485,
          "velocity": 0.6929133858267716
        },
        {
          "duration": 0.047619000000011624,
          "durationTicks": 16,
          "midi": 67,
          "name": "G4",
          "ticks": 31704,
          "time": 94.3570485,
          "velocity": 0.8267716535433071
        },
        {
          "duration": 0.047619000000011624,
          "durationTicks": 16,
          "midi": 80,
          "name": "G#5",
          "ticks": 31728,
          "time": 94.428477,
          "velocity": 0.8267716535433071
        },
        {
          "duration": 0.047619000000011624,
          "durationTicks": 16,
          "midi": 77,
          "name": "F5",
          "ticks": 31728,
          "time": 94.428477,
          "velocity": 0.6929133858267716
        },
        {
          "duration": 0.047619000000011624,
          "durationTicks": 16,
          "midi": 68,
          "name": "G#4",
          "ticks": 31728,
          "time": 94.428477,
          "velocity": 0.8267716535433071
        },
        {
          "duration": 0.04761899999999741,
          "durationTicks": 16,
          "midi": 81,
          "name": "A5",
          "ticks": 31752,
          "time": 94.49990550000001,
          "velocity": 0.8267716535433071
        },
        {
          "duration": 0.04761899999999741,
          "durationTicks": 16,
          "midi": 78,
          "name": "F#5",
          "ticks": 31752,
          "time": 94.49990550000001,
          "velocity": 0.6929133858267716
        },
        {
          "duration": 0.04761899999999741,
          "durationTicks": 16,
          "midi": 69,
          "name": "A4",
          "ticks": 31752,
          "time": 94.49990550000001,
          "velocity": 0.8267716535433071
        },
        {
          "duration": 0.047619000000011624,
          "durationTicks": 16,
          "midi": 70,
          "name": "A#4",
          "ticks": 31776,
          "time": 94.57133400000001,
          "velocity": 0.8267716535433071
        },
        {
          "duration": 0.047619000000011624,
          "durationTicks": 16,
          "midi": 79,
          "name": "G5",
          "ticks": 31776,
          "time": 94.57133400000001,
          "velocity": 0.6929133858267716
        },
        {
          "duration": 0.047619000000011624,
          "durationTicks": 16,
          "midi": 82,
          "name": "A#5",
          "ticks": 31776,
          "time": 94.57133400000001,
          "velocity": 0.8267716535433071
        },
        {
          "duration": 0.047619000000011624,
          "durationTicks": 16,
          "midi": 83,
          "name": "B5",
          "ticks": 31800,
          "time": 94.6427625,
          "velocity": 0.8267716535433071
        },
        {
          "duration": 0.047619000000011624,
          "durationTicks": 16,
          "midi": 80,
          "name": "G#5",
          "ticks": 31800,
          "time": 94.6427625,
          "velocity": 0.6929133858267716
        },
        {
          "duration": 0.047619000000011624,
          "durationTicks": 16,
          "midi": 71,
          "name": "B4",
          "ticks": 31800,
          "time": 94.6427625,
          "velocity": 0.8267716535433071
        },
        {
          "duration": 0.04761899999999741,
          "durationTicks": 16,
          "midi": 72,
          "name": "C5",
          "ticks": 31824,
          "time": 94.71419100000001,
          "velocity": 0.8267716535433071
        },
        {
          "duration": 0.04761899999999741,
          "durationTicks": 16,
          "midi": 81,
          "name": "A5",
          "ticks": 31824,
          "time": 94.71419100000001,
          "velocity": 0.6929133858267716
        },
        {
          "duration": 0.04761899999999741,
          "durationTicks": 16,
          "midi": 84,
          "name": "C6",
          "ticks": 31824,
          "time": 94.71419100000001,
          "velocity": 0.8267716535433071
        },
        {
          "duration": 0.04761899999999741,
          "durationTicks": 16,
          "midi": 73,
          "name": "C#5",
          "ticks": 31848,
          "time": 94.78561950000001,
          "velocity": 0.8267716535433071
        },
        {
          "duration": 0.04761899999999741,
          "durationTicks": 16,
          "midi": 82,
          "name": "A#5",
          "ticks": 31848,
          "time": 94.78561950000001,
          "velocity": 0.6929133858267716
        },
        {
          "duration": 0.04761899999999741,
          "durationTicks": 16,
          "midi": 85,
          "name": "C#6",
          "ticks": 31848,
          "time": 94.78561950000001,
          "velocity": 0.8267716535433071
        }
      ],
      "endOfTrackTicks": 47692
    },
    {
      "channel": 4,
      "controlChanges": {
        "6": [
          {
            "number": 6,
            "ticks": 0,
            "time": 0,
            "value": 0.09448818897637795
          },
          {
            "number": 6,
            "ticks": 0,
            "time": 0,
            "value": 0.09448818897637795
          },
          {
            "number": 6,
            "ticks": 0,
            "time": 0,
            "value": 0.09448818897637795
          },
          {
            "number": 6,
            "ticks": 47690,
            "time": 141.934381875,
            "value": 0.09448818897637795
          },
          {
            "number": 6,
            "ticks": 47692,
            "time": 141.94033425,
            "value": 0.09448818897637795
          }
        ],
        "7": [
          {
            "number": 7,
            "ticks": 0,
            "time": 0,
            "value": 0.7874015748031497
          },
          {
            "number": 7,
            "ticks": 0,
            "time": 0,
            "value": 0.7874015748031497
          },
          {
            "number": 7,
            "ticks": 0,
            "time": 0,
            "value": 0.7874015748031497
          },
          {
            "number": 7,
            "ticks": 0,
            "time": 0,
            "value": 0.7874015748031497
          },
          {
            "number": 7,
            "ticks": 47690,
            "time": 141.934381875,
            "value": 0.7874015748031497
          },
          {
            "number": 7,
            "ticks": 47692,
            "time": 141.94033425,
            "value": 0.7874015748031497
          }
        ],
        "10": [
          {
            "number": 10,
            "ticks": 0,
            "time": 0,
            "value": 0.5039370078740157
          },
          {
            "number": 10,
            "ticks": 0,
            "time": 0,
            "value": 0.5039370078740157
          },
          {
            "number": 10,
            "ticks": 0,
            "time": 0,
            "value": 0.5039370078740157
          },
          {
            "number": 10,
            "ticks": 0,
            "time": 0,
            "value": 0.5039370078740157
          },
          {
            "number": 10,
            "ticks": 47690,
            "time": 141.934381875,
            "value": 0.5039370078740157
          },
          {
            "number": 10,
            "ticks": 47692,
            "time": 141.94033425,
            "value": 0.5039370078740157
          }
        ],
        "100": [
          {
            "number": 100,
            "ticks": 0,
            "time": 0,
            "value": 0
          },
          {
            "number": 100,
            "ticks": 0,
            "time": 0,
            "value": 0
          },
          {
            "number": 100,
            "ticks": 0,
            "time": 0,
            "value": 0
          },
          {
            "number": 100,
            "ticks": 47690,
            "time": 141.934381875,
            "value": 0
          },
          {
            "number": 100,
            "ticks": 47692,
            "time": 141.94033425,
            "value": 0
          }
        ],
        "101": [
          {
            "number": 101,
            "ticks": 0,
            "time": 0,
            "value": 0
          },
          {
            "number": 101,
            "ticks": 0,
            "time": 0,
            "value": 0
          },
          {
            "number": 101,
            "ticks": 0,
            "time": 0,
            "value": 0
          },
          {
            "number": 101,
            "ticks": 47690,
            "time": 141.934381875,
            "value": 0
          },
          {
            "number": 101,
            "ticks": 47692,
            "time": 141.94033425,
            "value": 0
          }
        ]
      },
      "pitchBends": [
        {
          "ticks": 0,
          "time": 0,
          "value": 0
        },
        {
          "ticks": 0,
          "time": 0,
          "value": 0
        },
        {
          "ticks": 0,
          "time": 0,
          "value": 0
        },
        {
          "ticks": 0,
          "time": 0,
          "value": 0
        },
        {
          "ticks": 47690,
          "time": 141.934381875,
          "value": 0
        },
        {
          "ticks": 47692,
          "time": 141.94033425,
          "value": 0
        }
      ],
      "instrument": {
        "family": "piano",
        "number": 0,
        "name": "acoustic grand piano"
      },
      "name": "Piano",
      "notes": [
        {
          "duration": 0.285714,
          "durationTicks": 96,
          "midi": 75,
          "name": "D#5",
          "ticks": 384,
          "time": 1.142856,
          "velocity": 0.6299212598425197
        },
        {
          "duration": 0.285714,
          "durationTicks": 96,
          "midi": 79,
          "name": "G5",
          "ticks": 480,
          "time": 1.4285700000000001,
          "velocity": 0.6299212598425197
        },
        {
          "duration": 0.142857,
          "durationTicks": 48,
          "midi": 77,
          "name": "F5",
          "ticks": 576,
          "time": 1.7142840000000001,
          "velocity": 0.6220472440944882
        },
        {
          "duration": 0.142857,
          "durationTicks": 48,
          "midi": 79,
          "name": "G5",
          "ticks": 624,
          "time": 1.8571410000000002,
          "velocity": 0.6299212598425197
        },
        {
          "duration": 0.1428569999999998,
          "durationTicks": 48,
          "midi": 80,
          "name": "G#5",
          "ticks": 672,
          "time": 1.9999980000000002,
          "velocity": 0.6299212598425197
        },
        {
          "duration": 0.14285700000000023,
          "durationTicks": 48,
          "midi": 77,
          "name": "F5",
          "ticks": 720,
          "time": 2.142855,
          "velocity": 0.6535433070866141
        },
        {
          "duration": 0.14285700000000023,
          "durationTicks": 48,
          "midi": 79,
          "name": "G5",
          "ticks": 768,
          "time": 2.285712,
          "velocity": 0.6299212598425197
        },
        {
          "duration": 0.1428569999999998,
          "durationTicks": 48,
          "midi": 77,
          "name": "F5",
          "ticks": 816,
          "time": 2.4285690000000004,
          "velocity": 0.6299212598425197
        },
        {
          "duration": 0.1428569999999998,
          "durationTicks": 48,
          "midi": 75,
          "name": "D#5",
          "ticks": 864,
          "time": 2.571426,
          "velocity": 0.6535433070866141
        },
        {
          "duration": 0.14285700000000023,
          "durationTicks": 48,
          "midi": 74,
          "name": "D5",
          "ticks": 912,
          "time": 2.714283,
          "velocity": 0.6535433070866141
        },
        {
          "duration": 0.285714,
          "durationTicks": 96,
          "midi": 75,
          "name": "D#5",
          "ticks": 960,
          "time": 2.8571400000000002,
          "velocity": 0.6535433070866141
        },
        {
          "duration": 0.285714,
          "durationTicks": 96,
          "midi": 72,
          "name": "C5",
          "ticks": 1056,
          "time": 3.1428540000000003,
          "velocity": 0.6535433070866141
        },
        {
          "duration": 0.285714,
          "durationTicks": 96,
          "midi": 75,
          "name": "D#5",
          "ticks": 1152,
          "time": 3.4285680000000003,
          "velocity": 0.6614173228346457
        },
        {
          "duration": 0.2380950000000004,
          "durationTicks": 80,
          "midi": 79,
          "name": "G5",
          "ticks": 1344,
          "time": 3.9999960000000003,
          "velocity": 0.7007874015748031
        },
        {
          "duration": 0.2380950000000004,
          "durationTicks": 80,
          "midi": 84,
          "name": "C6",
          "ticks": 1440,
          "time": 4.28571,
          "velocity": 0.6929133858267716
        },
        {
          "duration": 0.2380949999999995,
          "durationTicks": 80,
          "midi": 87,
          "name": "D#6",
          "ticks": 1447,
          "time": 4.3065433125000006,
          "velocity": 0.7322834645669292
        },
        {
          "duration": 0.2380949999999995,
          "durationTicks": 80,
          "midi": 78,
          "name": "F#5",
          "ticks": 1536,
          "time": 4.571424,
          "velocity": 0.7007874015748031
        },
        {
          "duration": 0.2380949999999995,
          "durationTicks": 80,
          "midi": 82,
          "name": "A#5",
          "ticks": 1632,
          "time": 4.857138000000001,
          "velocity": 0.6929133858267716
        },
        {
          "duration": 0.2380950000000004,
          "durationTicks": 80,
          "midi": 86,
          "name": "D6",
          "ticks": 1637,
          "time": 4.8720189375,
          "velocity": 0.7322834645669292
        },
        {
          "duration": 0.2380949999999995,
          "durationTicks": 80,
          "midi": 74,
          "name": "D5",
          "ticks": 1728,
          "time": 5.142852,
          "velocity": 0.7007874015748031
        },
        {
          "duration": 0.2380950000000004,
          "durationTicks": 80,
          "midi": 81,
          "name": "A5",
          "ticks": 1824,
          "time": 5.428566,
          "velocity": 0.6929133858267716
        },
        {
          "duration": 0.2380950000000004,
          "durationTicks": 80,
          "midi": 84,
          "name": "C6",
          "ticks": 1824,
          "time": 5.428566,
          "velocity": 0.7322834645669292
        },
        {
          "duration": 0.14285700000000023,
          "durationTicks": 48,
          "midi": 82,
          "name": "A#5",
          "ticks": 1920,
          "time": 5.7142800000000005,
          "velocity": 0.8031496062992126
        },
        {
          "duration": 0.2380949999999995,
          "durationTicks": 80,
          "midi": 79,
          "name": "G5",
          "ticks": 1920,
          "time": 5.7142800000000005,
          "velocity": 0.7007874015748031
        },
        {
          "duration": 0.14285700000000023,
          "durationTicks": 48,
          "midi": 81,
          "name": "A5",
          "ticks": 1968,
          "time": 5.857137000000001,
          "velocity": 0.7952755905511811
        },
        {
          "duration": 0.14285699999999935,
          "durationTicks": 48,
          "midi": 79,
          "name": "G5",
          "ticks": 2016,
          "time": 5.999994000000001,
          "velocity": 0.8031496062992126
        },
        {
          "duration": 0.14285700000000023,
          "durationTicks": 48,
          "midi": 74,
          "name": "D5",
          "ticks": 2064,
          "time": 6.142851,
          "velocity": 0.8031496062992126
        },
        {
          "duration": 0.2857139999999996,
          "durationTicks": 96,
          "midi": 70,
          "name": "A#4",
          "ticks": 2112,
          "time": 6.2857080000000005,
          "velocity": 0.7795275590551181
        },
        {
          "duration": 0.2619045000000009,
          "durationTicks": 88,
          "midi": 82,
          "name": "A#5",
          "ticks": 2208,
          "time": 6.571422,
          "velocity": 0.8110236220472441
        },
        {
          "duration": 0.571428,
          "durationTicks": 192,
          "midi": 78,
          "name": "F#5",
          "ticks": 2304,
          "time": 6.857136000000001,
          "velocity": 0.7244094488188977
        },
        {
          "duration": 0.5476185000000005,
          "durationTicks": 184,
          "midi": 81,
          "name": "A5",
          "ticks": 2310,
          "time": 6.8749931250000005,
          "velocity": 0.7952755905511811
        },
        {
          "duration": 0.14285700000000023,
          "durationTicks": 48,
          "midi": 81,
          "name": "A5",
          "ticks": 2496,
          "time": 7.428564000000001,
          "velocity": 0.8031496062992126
        },
        {
          "duration": 0.14285699999999935,
          "durationTicks": 48,
          "midi": 79,
          "name": "G5",
          "ticks": 2544,
          "time": 7.571421000000001,
          "velocity": 0.8031496062992126
        },
        {
          "duration": 0.28571400000000047,
          "durationTicks": 96,
          "midi": 78,
          "name": "F#5",
          "ticks": 2592,
          "time": 7.714278,
          "velocity": 0.8110236220472441
        },
        {
          "duration": 0.2380949999999995,
          "durationTicks": 80,
          "midi": 74,
          "name": "D5",
          "ticks": 2688,
          "time": 7.999992000000001,
          "velocity": 0.7952755905511811
        },
        {
          "duration": 0.2380949999999995,
          "durationTicks": 80,
          "midi": 70,
          "name": "A#4",
          "ticks": 2688,
          "time": 7.999992000000001,
          "velocity": 0.7007874015748031
        },
        {
          "duration": 0.14285699999999935,
          "durationTicks": 48,
          "midi": 70,
          "name": "A#4",
          "ticks": 2784,
          "time": 8.285706000000001,
          "velocity": 0.8031496062992126
        },
        {
          "duration": 0.14285699999999935,
          "durationTicks": 48,
          "midi": 74,
          "name": "D5",
          "ticks": 2832,
          "time": 8.428563,
          "velocity": 0.8110236220472441
        },
        {
          "duration": 0.23809500000000128,
          "durationTicks": 80,
          "midi": 74,
          "name": "D5",
          "ticks": 2880,
          "time": 8.57142,
          "velocity": 0.7165354330708661
        },
        {
          "duration": 0.23809500000000128,
          "durationTicks": 80,
          "midi": 77,
          "name": "F5",
          "ticks": 2880,
          "time": 8.57142,
          "velocity": 0.8031496062992126
        },
        {
          "duration": 0.2380949999999995,
          "durationTicks": 80,
          "midi": 77,
          "name": "F5",
          "ticks": 2976,
          "time": 8.857134,
          "velocity": 0.7165354330708661
        },
        {
          "duration": 0.2380949999999995,
          "durationTicks": 80,
          "midi": 80,
          "name": "G#5",
          "ticks": 2976,
          "time": 8.857134,
          "velocity": 0.7952755905511811
        },
        {
          "duration": 0.5476184999999987,
          "durationTicks": 184,
          "midi": 79,
          "name": "G5",
          "ticks": 3072,
          "time": 9.142848,
          "velocity": 0.8031496062992126
        },
        {
          "duration": 0.4999994999999995,
          "durationTicks": 168,
          "midi": 74,
          "name": "D5",
          "ticks": 3072,
          "time": 9.142848,
          "velocity": 0.7244094488188977
        },
        {
          "duration": 0.5714279999999992,
          "durationTicks": 192,
          "midi": 74,
          "name": "D5",
          "ticks": 3264,
          "time": 9.714276000000002,
          "velocity": 0.7165354330708661
        },
        {
          "duration": 0.523809,
          "durationTicks": 176,
          "midi": 77,
          "name": "F5",
          "ticks": 3269,
          "time": 9.7291569375,
          "velocity": 0.8031496062992126
        },
        {
          "duration": 0.5565470625000017,
          "durationTicks": 187,
          "midi": 67,
          "name": "G4",
          "ticks": 22655,
          "time": 67.42552781250001,
          "velocity": 0.6220472440944882
        },
        {
          "duration": 0.4851185625000056,
          "durationTicks": 163,
          "midi": 62,
          "name": "D4",
          "ticks": 22656,
          "time": 67.428504,
          "velocity": 0.5826771653543307
        },
        {
          "duration": 0.5565470624999875,
          "durationTicks": 187,
          "midi": 70,
          "name": "A#4",
          "ticks": 22661,
          "time": 67.44338493750001,
          "velocity": 0.6850393700787402
        },
        {
          "duration": 0.1279760624999966,
          "durationTicks": 43,
          "midi": 67,
          "name": "G4",
          "ticks": 22848,
          "time": 67.999932,
          "velocity": 0.6377952755905512
        },
        {
          "duration": 0.1279760624999966,
          "durationTicks": 43,
          "midi": 69,
          "name": "A4",
          "ticks": 22896,
          "time": 68.14278900000001,
          "velocity": 0.6692913385826772
        },
        {
          "duration": 0.27083306250000305,
          "durationTicks": 91,
          "midi": 70,
          "name": "A#4",
          "ticks": 22944,
          "time": 68.285646,
          "velocity": 0.7007874015748031
        },
        {
          "duration": 0.5208328125000037,
          "durationTicks": 175,
          "midi": 65,
          "name": "F4",
          "ticks": 23040,
          "time": 68.57136,
          "velocity": 0.5984251968503937
        },
        {
          "duration": 0.5208328125000037,
          "durationTicks": 175,
          "midi": 69,
          "name": "A4",
          "ticks": 23040,
          "time": 68.57136,
          "velocity": 0.5984251968503937
        },
        {
          "duration": 0.5565470624999875,
          "durationTicks": 187,
          "midi": 72,
          "name": "C5",
          "ticks": 23048,
          "time": 68.59516950000001,
          "velocity": 0.7244094488188977
        },
        {
          "duration": 0.27083306249998884,
          "durationTicks": 91,
          "midi": 69,
          "name": "A4",
          "ticks": 23232,
          "time": 69.14278800000001,
          "velocity": 0.6692913385826772
        },
        {
          "duration": 0.23511881249999078,
          "durationTicks": 79,
          "midi": 65,
          "name": "F4",
          "ticks": 23232,
          "time": 69.14278800000001,
          "velocity": 0.5433070866141733
        },
        {
          "duration": 0.23511881249999078,
          "durationTicks": 79,
          "midi": 72,
          "name": "C5",
          "ticks": 23328,
          "time": 69.42850200000001,
          "velocity": 0.6141732283464567
        },
        {
          "duration": 0.27083306250000305,
          "durationTicks": 91,
          "midi": 77,
          "name": "F5",
          "ticks": 23329,
          "time": 69.4314781875,
          "velocity": 0.7480314960629921
        },
        {
          "duration": 0.4136900624999953,
          "durationTicks": 139,
          "midi": 72,
          "name": "C5",
          "ticks": 23424,
          "time": 69.71421600000001,
          "velocity": 0.6692913385826772
        },
        {
          "duration": 0.4136900624999953,
          "durationTicks": 139,
          "midi": 75,
          "name": "D#5",
          "ticks": 23432,
          "time": 69.7380255,
          "velocity": 0.7480314960629921
        },
        {
          "duration": 0.4136900624999953,
          "durationTicks": 139,
          "midi": 70,
          "name": "A#4",
          "ticks": 23568,
          "time": 70.14278700000001,
          "velocity": 0.6062992125984252
        },
        {
          "duration": 0.4136900624999953,
          "durationTicks": 139,
          "midi": 74,
          "name": "D5",
          "ticks": 23568,
          "time": 70.14278700000001,
          "velocity": 0.7322834645669292
        },
        {
          "duration": 0.27083306250000305,
          "durationTicks": 91,
          "midi": 72,
          "name": "C5",
          "ticks": 23712,
          "time": 70.571358,
          "velocity": 0.6929133858267716
        },
        {
          "duration": 0.235118812500005,
          "durationTicks": 79,
          "midi": 70,
          "name": "A#4",
          "ticks": 23712,
          "time": 70.571358,
          "velocity": 0.5669291338582677
        },
        {
          "duration": 0.5565470625000017,
          "durationTicks": 187,
          "midi": 65,
          "name": "F4",
          "ticks": 23808,
          "time": 70.857072,
          "velocity": 0.6062992125984252
        },
        {
          "duration": 0.5565470625000017,
          "durationTicks": 187,
          "midi": 62,
          "name": "D4",
          "ticks": 23808,
          "time": 70.857072,
          "velocity": 0.5748031496062992
        },
        {
          "duration": 0.5297613750000068,
          "durationTicks": 178,
          "midi": 71,
          "name": "B4",
          "ticks": 23815,
          "time": 70.8779053125,
          "velocity": 0.6929133858267716
        },
        {
          "duration": 0.1279760624999966,
          "durationTicks": 43,
          "midi": 71,
          "name": "B4",
          "ticks": 24000,
          "time": 71.4285,
          "velocity": 0.6220472440944882
        },
        {
          "duration": 0.1279760624999966,
          "durationTicks": 43,
          "midi": 72,
          "name": "C5",
          "ticks": 24048,
          "time": 71.571357,
          "velocity": 0.6377952755905512
        },
        {
          "duration": 0.27083306249998884,
          "durationTicks": 91,
          "midi": 74,
          "name": "D5",
          "ticks": 24096,
          "time": 71.71421400000001,
          "velocity": 0.6929133858267716
        },
        {
          "duration": 0.5565470624999875,
          "durationTicks": 187,
          "midi": 72,
          "name": "C5",
          "ticks": 24192,
          "time": 71.99992800000001,
          "velocity": 0.6377952755905512
        },
        {
          "duration": 0.5565470624999875,
          "durationTicks": 187,
          "midi": 67,
          "name": "G4",
          "ticks": 24192,
          "time": 71.99992800000001,
          "velocity": 0.6141732283464567
        },
        {
          "duration": 0.5565470625000017,
          "durationTicks": 187,
          "midi": 75,
          "name": "D#5",
          "ticks": 24198,
          "time": 72.017785125,
          "velocity": 0.6929133858267716
        },
        {
          "duration": 0.1279760624999966,
          "durationTicks": 43,
          "midi": 72,
          "name": "C5",
          "ticks": 24384,
          "time": 72.57135600000001,
          "velocity": 0.7007874015748031
        },
        {
          "duration": 0.1279760624999966,
          "durationTicks": 43,
          "midi": 75,
          "name": "D#5",
          "ticks": 24432,
          "time": 72.714213,
          "velocity": 0.6929133858267716
        },
        {
          "duration": 0.27083306250000305,
          "durationTicks": 91,
          "midi": 79,
          "name": "G5",
          "ticks": 24480,
          "time": 72.85707000000001,
          "velocity": 0.7165354330708661
        },
        {
          "duration": 0.27083306250000305,
          "durationTicks": 91,
          "midi": 75,
          "name": "D#5",
          "ticks": 24480,
          "time": 72.85707000000001,
          "velocity": 0.6220472440944882
        },
        {
          "duration": 0.4136900624999953,
          "durationTicks": 139,
          "midi": 70,
          "name": "A#4",
          "ticks": 24579,
          "time": 73.15171256250001,
          "velocity": 0.5826771653543307
        },
        {
          "duration": 0.4136900624999953,
          "durationTicks": 139,
          "midi": 74,
          "name": "D5",
          "ticks": 24583,
          "time": 73.16361731250001,
          "velocity": 0.6929133858267716
        },
        {
          "duration": 0.4136900624999953,
          "durationTicks": 139,
          "midi": 67,
          "name": "G4",
          "ticks": 24720,
          "time": 73.57135500000001,
          "velocity": 0.5826771653543307
        },
        {
          "duration": 0.4136900624999953,
          "durationTicks": 139,
          "midi": 70,
          "name": "A#4",
          "ticks": 24720,
          "time": 73.57135500000001,
          "velocity": 0.7007874015748031
        },
        {
          "duration": 0.27083306250000305,
          "durationTicks": 91,
          "midi": 74,
          "name": "D5",
          "ticks": 24864,
          "time": 73.999926,
          "velocity": 0.6929133858267716
        },
        {
          "duration": 0.27083306250000305,
          "durationTicks": 91,
          "midi": 70,
          "name": "A#4",
          "ticks": 24864,
          "time": 73.999926,
          "velocity": 0.5826771653543307
        },
        {
          "duration": 0.4136900625000095,
          "durationTicks": 139,
          "midi": 73,
          "name": "C#5",
          "ticks": 24960,
          "time": 74.28564,
          "velocity": 0.6850393700787402
        },
        {
          "duration": 0.4136900625000095,
          "durationTicks": 139,
          "midi": 69,
          "name": "A4",
          "ticks": 24960,
          "time": 74.28564,
          "velocity": 0.6299212598425197
        },
        {
          "duration": 0.4136900625000095,
          "durationTicks": 139,
          "midi": 69,
          "name": "A4",
          "ticks": 25104,
          "time": 74.714211,
          "velocity": 0.6929133858267716
        },
        {
          "duration": 0.4136900625000095,
          "durationTicks": 139,
          "midi": 64,
          "name": "E4",
          "ticks": 25104,
          "time": 74.714211,
          "velocity": 0.5669291338582677
        },
        {
          "duration": 0.27083306250000305,
          "durationTicks": 91,
          "midi": 67,
          "name": "G4",
          "ticks": 25248,
          "time": 75.14278200000001,
          "velocity": 0.6929133858267716
        },
        {
          "duration": 0.27083306250000305,
          "durationTicks": 91,
          "midi": 62,
          "name": "D4",
          "ticks": 25344,
          "time": 75.42849600000001,
          "velocity": 0.6062992125984252
        },
        {
          "duration": 0.27083306250000305,
          "durationTicks": 91,
          "midi": 67,
          "name": "G4",
          "ticks": 25344,
          "time": 75.42849600000001,
          "velocity": 0.7007874015748031
        },
        {
          "duration": 0.27083306250000305,
          "durationTicks": 91,
          "midi": 69,
          "name": "A4",
          "ticks": 25440,
          "time": 75.71421000000001,
          "velocity": 0.6535433070866141
        },
        {
          "duration": 0.5565470625000017,
          "durationTicks": 187,
          "midi": 66,
          "name": "F#4",
          "ticks": 25536,
          "time": 75.99992400000001,
          "velocity": 0.6850393700787402
        },
        {
          "duration": 0.5565470625000017,
          "durationTicks": 187,
          "midi": 62,
          "name": "D4",
          "ticks": 25536,
          "time": 75.99992400000001,
          "velocity": 0.6377952755905512
        }
      ],
      "endOfTrackTicks": 47692
    },
    {
      "channel": 5,
      "controlChanges": {
        "6": [
          {
            "number": 6,
            "ticks": 0,
            "time": 0,
            "value": 0.09448818897637795
          },
          {
            "number": 6,
            "ticks": 0,
            "time": 0,
            "value": 0.09448818897637795
          },
          {
            "number": 6,
            "ticks": 0,
            "time": 0,
            "value": 0.09448818897637795
          },
          {
            "number": 6,
            "ticks": 47690,
            "time": 141.934381875,
            "value": 0.09448818897637795
          },
          {
            "number": 6,
            "ticks": 47692,
            "time": 141.94033425,
            "value": 0.09448818897637795
          }
        ],
        "7": [
          {
            "number": 7,
            "ticks": 0,
            "time": 0,
            "value": 0.7874015748031497
          },
          {
            "number": 7,
            "ticks": 0,
            "time": 0,
            "value": 0.7874015748031497
          },
          {
            "number": 7,
            "ticks": 0,
            "time": 0,
            "value": 0.7874015748031497
          },
          {
            "number": 7,
            "ticks": 0,
            "time": 0,
            "value": 0.7874015748031497
          },
          {
            "number": 7,
            "ticks": 47690,
            "time": 141.934381875,
            "value": 0.7874015748031497
          },
          {
            "number": 7,
            "ticks": 47692,
            "time": 141.94033425,
            "value": 0.7874015748031497
          }
        ],
        "10": [
          {
            "number": 10,
            "ticks": 0,
            "time": 0,
            "value": 0.5039370078740157
          },
          {
            "number": 10,
            "ticks": 0,
            "time": 0,
            "value": 0.5039370078740157
          },
          {
            "number": 10,
            "ticks": 0,
            "time": 0,
            "value": 0.5039370078740157
          },
          {
            "number": 10,
            "ticks": 0,
            "time": 0,
            "value": 0.5039370078740157
          },
          {
            "number": 10,
            "ticks": 47690,
            "time": 141.934381875,
            "value": 0.5039370078740157
          },
          {
            "number": 10,
            "ticks": 47692,
            "time": 141.94033425,
            "value": 0.5039370078740157
          }
        ],
        "100": [
          {
            "number": 100,
            "ticks": 0,
            "time": 0,
            "value": 0
          },
          {
            "number": 100,
            "ticks": 0,
            "time": 0,
            "value": 0
          },
          {
            "number": 100,
            "ticks": 0,
            "time": 0,
            "value": 0
          },
          {
            "number": 100,
            "ticks": 47690,
            "time": 141.934381875,
            "value": 0
          },
          {
            "number": 100,
            "ticks": 47692,
            "time": 141.94033425,
            "value": 0
          }
        ],
        "101": [
          {
            "number": 101,
            "ticks": 0,
            "time": 0,
            "value": 0
          },
          {
            "number": 101,
            "ticks": 0,
            "time": 0,
            "value": 0
          },
          {
            "number": 101,
            "ticks": 0,
            "time": 0,
            "value": 0
          },
          {
            "number": 101,
            "ticks": 47690,
            "time": 141.934381875,
            "value": 0
          },
          {
            "number": 101,
            "ticks": 47692,
            "time": 141.94033425,
            "value": 0
          }
        ]
      },
      "pitchBends": [
        {
          "ticks": 0,
          "time": 0,
          "value": 0
        },
        {
          "ticks": 0,
          "time": 0,
          "value": 0
        },
        {
          "ticks": 0,
          "time": 0,
          "value": 0
        },
        {
          "ticks": 0,
          "time": 0,
          "value": 0
        },
        {
          "ticks": 47690,
          "time": 141.934381875,
          "value": 0
        },
        {
          "ticks": 47692,
          "time": 141.94033425,
          "value": 0
        }
      ],
      "instrument": {
        "family": "piano",
        "number": 0,
        "name": "acoustic grand piano"
      },
      "name": "Piano #2",
      "notes": [
        {
          "duration": 2.285712,
          "durationTicks": 768,
          "midi": 36,
          "name": "C2",
          "ticks": 384,
          "time": 1.142856,
          "velocity": 0.6456692913385826
        },
        {
          "duration": 0.571428,
          "durationTicks": 192,
          "midi": 63,
          "name": "D#4",
          "ticks": 384,
          "time": 1.142856,
          "velocity": 0.5590551181102362
        },
        {
          "duration": 0.571428,
          "durationTicks": 192,
          "midi": 65,
          "name": "F4",
          "ticks": 576,
          "time": 1.7142840000000001,
          "velocity": 0.5511811023622047
        },
        {
          "duration": 0.571428,
          "durationTicks": 192,
          "midi": 63,
          "name": "D#4",
          "ticks": 768,
          "time": 2.285712,
          "velocity": 0.5590551181102362
        },
        {
          "duration": 0.571428,
          "durationTicks": 192,
          "midi": 62,
          "name": "D4",
          "ticks": 960,
          "time": 2.8571400000000002,
          "velocity": 0.5590551181102362
        },
        {
          "duration": 2.285712,
          "durationTicks": 768,
          "midi": 48,
          "name": "C3",
          "ticks": 1152,
          "time": 3.4285680000000003,
          "velocity": 0.5748031496062992
        },
        {
          "duration": 0.2619045,
          "durationTicks": 88,
          "midi": 60,
          "name": "C4",
          "ticks": 1152,
          "time": 3.4285680000000003,
          "velocity": 0.6299212598425197
        },
        {
          "duration": 0.2619045,
          "durationTicks": 88,
          "midi": 60,
          "name": "C4",
          "ticks": 1248,
          "time": 3.7142820000000003,
          "velocity": 0.6141732283464567
        },
        {
          "duration": 0.1398808125000004,
          "durationTicks": 47,
          "midi": 63,
          "name": "D#4",
          "ticks": 1344,
          "time": 3.9999960000000003,
          "velocity": 0.5433070866141733
        },
        {
          "duration": 0.1398808125000004,
          "durationTicks": 47,
          "midi": 62,
          "name": "D4",
          "ticks": 1392,
          "time": 4.142853000000001,
          "velocity": 0.5433070866141733
        },
        {
          "duration": 0.1398808125000004,
          "durationTicks": 47,
          "midi": 60,
          "name": "C4",
          "ticks": 1440,
          "time": 4.28571,
          "velocity": 0.5354330708661418
        },
        {
          "duration": 0.1398808125000004,
          "durationTicks": 47,
          "midi": 63,
          "name": "D#4",
          "ticks": 1488,
          "time": 4.428567,
          "velocity": 0.5275590551181102
        },
        {
          "duration": 0.1398808124999995,
          "durationTicks": 47,
          "midi": 62,
          "name": "D4",
          "ticks": 1536,
          "time": 4.571424,
          "velocity": 0.5196850393700787
        },
        {
          "duration": 0.1398808124999995,
          "durationTicks": 47,
          "midi": 60,
          "name": "C4",
          "ticks": 1584,
          "time": 4.714281000000001,
          "velocity": 0.5039370078740157
        },
        {
          "duration": 0.1398808124999995,
          "durationTicks": 47,
          "midi": 58,
          "name": "A#3",
          "ticks": 1632,
          "time": 4.857138000000001,
          "velocity": 0.49606299212598426
        },
        {
          "duration": 0.1398808124999995,
          "durationTicks": 47,
          "midi": 62,
          "name": "D4",
          "ticks": 1680,
          "time": 4.999995,
          "velocity": 0.4881889763779528
        },
        {
          "duration": 0.1398808124999995,
          "durationTicks": 47,
          "midi": 60,
          "name": "C4",
          "ticks": 1728,
          "time": 5.142852,
          "velocity": 0.4881889763779528
        },
        {
          "duration": 0.1398808124999995,
          "durationTicks": 47,
          "midi": 58,
          "name": "A#3",
          "ticks": 1776,
          "time": 5.285709000000001,
          "velocity": 0.48031496062992124
        },
        {
          "duration": 0.28273781249999974,
          "durationTicks": 95,
          "midi": 57,
          "name": "A3",
          "ticks": 1824,
          "time": 5.428566,
          "velocity": 0.47244094488188976
        },
        {
          "duration": 0.14285700000000112,
          "durationTicks": 48,
          "midi": 48,
          "name": "C3",
          "ticks": 3648,
          "time": 10.857132,
          "velocity": 0.6377952755905512
        },
        {
          "duration": 0.14285699999999935,
          "durationTicks": 48,
          "midi": 51,
          "name": "D#3",
          "ticks": 3696,
          "time": 10.999989000000001,
          "velocity": 0.5669291338582677
        },
        {
          "duration": 0.14285700000000112,
          "durationTicks": 48,
          "midi": 55,
          "name": "G3",
          "ticks": 3744,
          "time": 11.142846,
          "velocity": 0.6141732283464567
        },
        {
          "duration": 0.14285699999999935,
          "durationTicks": 48,
          "midi": 56,
          "name": "G#3",
          "ticks": 3792,
          "time": 11.285703000000002,
          "velocity": 0.6456692913385826
        },
        {
          "duration": 0.14285699999999935,
          "durationTicks": 48,
          "midi": 57,
          "name": "A3",
          "ticks": 3840,
          "time": 11.428560000000001,
          "velocity": 0.6929133858267716
        },
        {
          "duration": 0.14285700000000112,
          "durationTicks": 48,
          "midi": 52,
          "name": "E3",
          "ticks": 3888,
          "time": 11.571417,
          "velocity": 0.6771653543307087
        },
        {
          "duration": 0.14285699999999935,
          "durationTicks": 48,
          "midi": 49,
          "name": "C#3",
          "ticks": 3936,
          "time": 11.714274000000001,
          "velocity": 0.6456692913385826
        },
        {
          "duration": 0.14285700000000112,
          "durationTicks": 48,
          "midi": 45,
          "name": "A2",
          "ticks": 3984,
          "time": 11.857131,
          "velocity": 0.5984251968503937
        },
        {
          "duration": 0.14285699999999935,
          "durationTicks": 48,
          "midi": 52,
          "name": "E3",
          "ticks": 4032,
          "time": 11.999988000000002,
          "velocity": 0.5669291338582677
        },
        {
          "duration": 0.14285699999999935,
          "durationTicks": 48,
          "midi": 57,
          "name": "A3",
          "ticks": 4080,
          "time": 12.142845000000001,
          "velocity": 0.5826771653543307
        },
        {
          "duration": 0.14285700000000112,
          "durationTicks": 48,
          "midi": 60,
          "name": "C4",
          "ticks": 4128,
          "time": 12.285702,
          "velocity": 0.6299212598425197
        },
        {
          "duration": 0.14285699999999935,
          "durationTicks": 48,
          "midi": 61,
          "name": "C#4",
          "ticks": 4176,
          "time": 12.428559000000002,
          "velocity": 0.6614173228346457
        },
        {
          "duration": 0.14285699999999935,
          "durationTicks": 48,
          "midi": 62,
          "name": "D4",
          "ticks": 4224,
          "time": 12.571416000000001,
          "velocity": 0.5669291338582677
        },
        {
          "duration": 0.14285700000000112,
          "durationTicks": 48,
          "midi": 50,
          "name": "D3",
          "ticks": 4272,
          "time": 12.714273,
          "velocity": 0.5984251968503937
        },
        {
          "duration": 0.14285699999999935,
          "durationTicks": 48,
          "midi": 55,
          "name": "G3",
          "ticks": 4320,
          "time": 12.857130000000002,
          "velocity": 0.6299212598425197
        },
        {
          "duration": 0.14285699999999935,
          "durationTicks": 48,
          "midi": 57,
          "name": "A3",
          "ticks": 4368,
          "time": 12.999987,
          "velocity": 0.6614173228346457
        },
        {
          "duration": 0.14285700000000112,
          "durationTicks": 48,
          "midi": 62,
          "name": "D4",
          "ticks": 4416,
          "time": 13.142844,
          "velocity": 0.7086614173228346
        },
        {
          "duration": 0.14285699999999935,
          "durationTicks": 48,
          "midi": 57,
          "name": "A3",
          "ticks": 4464,
          "time": 13.285701000000001,
          "velocity": 0.6614173228346457
        },
        {
          "duration": 0.14285700000000112,
          "durationTicks": 48,
          "midi": 55,
          "name": "G3",
          "ticks": 4512,
          "time": 13.428558,
          "velocity": 0.6141732283464567
        },
        {
          "duration": 0.14285699999999935,
          "durationTicks": 48,
          "midi": 57,
          "name": "A3",
          "ticks": 4560,
          "time": 13.571415000000002,
          "velocity": 0.6771653543307087
        },
        {
          "duration": 0.14285699999999935,
          "durationTicks": 48,
          "midi": 62,
          "name": "D4",
          "ticks": 4608,
          "time": 13.714272000000001,
          "velocity": 0.7086614173228346
        },
        {
          "duration": 0.14285700000000112,
          "durationTicks": 48,
          "midi": 57,
          "name": "A3",
          "ticks": 4656,
          "time": 13.857129,
          "velocity": 0.6929133858267716
        },
        {
          "duration": 0.14285699999999935,
          "durationTicks": 48,
          "midi": 55,
          "name": "G3",
          "ticks": 4704,
          "time": 13.999986000000002,
          "velocity": 0.6299212598425197
        },
        {
          "duration": 0.14285700000000112,
          "durationTicks": 48,
          "midi": 57,
          "name": "A3",
          "ticks": 4752,
          "time": 14.142843000000001,
          "velocity": 0.6614173228346457
        },
        {
          "duration": 0.14285699999999935,
          "durationTicks": 48,
          "midi": 62,
          "name": "D4",
          "ticks": 4800,
          "time": 14.285700000000002,
          "velocity": 0.6929133858267716
        },
        {
          "duration": 0.14285699999999935,
          "durationTicks": 48,
          "midi": 57,
          "name": "A3",
          "ticks": 4848,
          "time": 14.428557000000001,
          "velocity": 0.6771653543307087
        },
        {
          "duration": 0.14285700000000112,
          "durationTicks": 48,
          "midi": 55,
          "name": "G3",
          "ticks": 4896,
          "time": 14.571414,
          "velocity": 0.6141732283464567
        },
        {
          "duration": 0.14285699999999935,
          "durationTicks": 48,
          "midi": 50,
          "name": "D3",
          "ticks": 4944,
          "time": 14.714271000000002,
          "velocity": 0.6614173228346457
        },
        {
          "duration": 0.14285700000000112,
          "durationTicks": 48,
          "midi": 45,
          "name": "A2",
          "ticks": 5040,
          "time": 14.999985,
          "velocity": 0.5826771653543307
        },
        {
          "duration": 0.14285699999999935,
          "durationTicks": 48,
          "midi": 50,
          "name": "D3",
          "ticks": 5088,
          "time": 15.142842000000002,
          "velocity": 0.6141732283464567
        },
        {
          "duration": 0.14285699999999935,
          "durationTicks": 48,
          "midi": 54,
          "name": "F#3",
          "ticks": 5136,
          "time": 15.285699000000001,
          "velocity": 0.6456692913385826
        },
        {
          "duration": 0.14285700000000112,
          "durationTicks": 48,
          "midi": 57,
          "name": "A3",
          "ticks": 5184,
          "time": 15.428556,
          "velocity": 0.6771653543307087
        },
        {
          "duration": 0.14285699999999935,
          "durationTicks": 48,
          "midi": 62,
          "name": "D4",
          "ticks": 5232,
          "time": 15.571413000000002,
          "velocity": 0.7086614173228346
        },
        {
          "duration": 0.14285700000000112,
          "durationTicks": 48,
          "midi": 66,
          "name": "F#4",
          "ticks": 5280,
          "time": 15.71427,
          "velocity": 0.7559055118110236
        },
        {
          "duration": 0.14285699999999935,
          "durationTicks": 48,
          "midi": 69,
          "name": "A4",
          "ticks": 5328,
          "time": 15.857127000000002,
          "velocity": 0.7874015748031497
        },
        {
          "duration": 0.14285699999999935,
          "durationTicks": 48,
          "midi": 74,
          "name": "D5",
          "ticks": 5376,
          "time": 15.999984000000001,
          "velocity": 0.8188976377952756
        },
        {
          "duration": 0.14285699999999935,
          "durationTicks": 48,
          "midi": 69,
          "name": "A4",
          "ticks": 5424,
          "time": 16.142841,
          "velocity": 0.7874015748031497
        },
        {
          "duration": 0.1428570000000029,
          "durationTicks": 48,
          "midi": 66,
          "name": "F#4",
          "ticks": 5472,
          "time": 16.285698,
          "velocity": 0.7401574803149606
        },
        {
          "duration": 0.14285699999999935,
          "durationTicks": 48,
          "midi": 62,
          "name": "D4",
          "ticks": 5520,
          "time": 16.428555000000003,
          "velocity": 0.7086614173228346
        },
        {
          "duration": 0.14285699999999935,
          "durationTicks": 48,
          "midi": 57,
          "name": "A3",
          "ticks": 5568,
          "time": 16.571412000000002,
          "velocity": 0.6771653543307087
        },
        {
          "duration": 0.14285699999999935,
          "durationTicks": 48,
          "midi": 54,
          "name": "F#3",
          "ticks": 5616,
          "time": 16.714269,
          "velocity": 0.6299212598425197
        },
        {
          "duration": 0.14285699999999935,
          "durationTicks": 48,
          "midi": 50,
          "name": "D3",
          "ticks": 5664,
          "time": 16.857126,
          "velocity": 0.5984251968503937
        },
        {
          "duration": 0.14285699999999935,
          "durationTicks": 48,
          "midi": 45,
          "name": "A2",
          "ticks": 5712,
          "time": 16.999983,
          "velocity": 0.5669291338582677
        },
        {
          "duration": 0.27083306250000305,
          "durationTicks": 91,
          "midi": 43,
          "name": "G2",
          "ticks": 22656,
          "time": 67.428504,
          "velocity": 0.6771653543307087
        },
        {
          "duration": 0.27083306250000305,
          "durationTicks": 91,
          "midi": 58,
          "name": "A#3",
          "ticks": 22752,
          "time": 67.714218,
          "velocity": 0.5275590551181102
        },
        {
          "duration": 0.27083306250000305,
          "durationTicks": 91,
          "midi": 55,
          "name": "G3",
          "ticks": 22848,
          "time": 67.999932,
          "velocity": 0.5590551181102362
        },
        {
          "duration": 0.27083306250000305,
          "durationTicks": 91,
          "midi": 58,
          "name": "A#3",
          "ticks": 22944,
          "time": 68.285646,
          "velocity": 0.5905511811023622
        },
        {
          "duration": 0.27083306250000305,
          "durationTicks": 91,
          "midi": 45,
          "name": "A2",
          "ticks": 23040,
          "time": 68.57136,
          "velocity": 0.6771653543307087
        },
        {
          "duration": 0.1279760624999966,
          "durationTicks": 43,
          "midi": 53,
          "name": "F3",
          "ticks": 23088,
          "time": 68.714217,
          "velocity": 0.5433070866141733
        },
        {
          "duration": 0.1279760624999966,
          "durationTicks": 43,
          "midi": 60,
          "name": "C4",
          "ticks": 23136,
          "time": 68.85707400000001,
          "velocity": 0.6220472440944882
        },
        {
          "duration": 0.1279760624999966,
          "durationTicks": 43,
          "midi": 53,
          "name": "F3",
          "ticks": 23184,
          "time": 68.999931,
          "velocity": 0.6299212598425197
        },
        {
          "duration": 0.09226181249999854,
          "durationTicks": 31,
          "midi": 53,
          "name": "F3",
          "ticks": 23232,
          "time": 69.14278800000001,
          "velocity": 0.6299212598425197
        },
        {
          "duration": 0.09226181249999854,
          "durationTicks": 31,
          "midi": 53,
          "name": "F3",
          "ticks": 23280,
          "time": 69.285645,
          "velocity": 0.6299212598425197
        },
        {
          "duration": 0.27083306249998884,
          "durationTicks": 91,
          "midi": 53,
          "name": "F3",
          "ticks": 23328,
          "time": 69.42850200000001,
          "velocity": 0.6299212598425197
        },
        {
          "duration": 0.27083306249998884,
          "durationTicks": 91,
          "midi": 46,
          "name": "A#2",
          "ticks": 23424,
          "time": 69.71421600000001,
          "velocity": 0.6771653543307087
        },
        {
          "duration": 0.1279760624999966,
          "durationTicks": 43,
          "midi": 50,
          "name": "D3",
          "ticks": 23472,
          "time": 69.857073,
          "velocity": 0.5196850393700787
        },
        {
          "duration": 0.1279760624999966,
          "durationTicks": 43,
          "midi": 62,
          "name": "D4",
          "ticks": 23520,
          "time": 69.99993,
          "velocity": 0.6535433070866141
        },
        {
          "duration": 0.1279760624999966,
          "durationTicks": 43,
          "midi": 58,
          "name": "A#3",
          "ticks": 23568,
          "time": 70.14278700000001,
          "velocity": 0.6377952755905512
        },
        {
          "duration": 0.1279760624999966,
          "durationTicks": 43,
          "midi": 50,
          "name": "D3",
          "ticks": 23616,
          "time": 70.285644,
          "velocity": 0.5905511811023622
        },
        {
          "duration": 0.1279760624999966,
          "durationTicks": 43,
          "midi": 53,
          "name": "F3",
          "ticks": 23664,
          "time": 70.42850100000001,
          "velocity": 0.5905511811023622
        },
        {
          "duration": 0.1279760624999966,
          "durationTicks": 43,
          "midi": 62,
          "name": "D4",
          "ticks": 23712,
          "time": 70.571358,
          "velocity": 0.6692913385826772
        },
        {
          "duration": 0.1279760624999966,
          "durationTicks": 43,
          "midi": 58,
          "name": "A#3",
          "ticks": 23760,
          "time": 70.71421500000001,
          "velocity": 0.6062992125984252
        },
        {
          "duration": 0.27083306250000305,
          "durationTicks": 91,
          "midi": 47,
          "name": "B2",
          "ticks": 23808,
          "time": 70.857072,
          "velocity": 0.6771653543307087
        },
        {
          "duration": 0.1279760624999966,
          "durationTicks": 43,
          "midi": 53,
          "name": "F3",
          "ticks": 23856,
          "time": 70.99992900000001,
          "velocity": 0.5275590551181102
        },
        {
          "duration": 0.235118812500005,
          "durationTicks": 79,
          "midi": 59,
          "name": "B3",
          "ticks": 23904,
          "time": 71.142786,
          "velocity": 0.5905511811023622
        },
        {
          "duration": 0.5208328125000037,
          "durationTicks": 175,
          "midi": 62,
          "name": "D4",
          "ticks": 24000,
          "time": 71.4285,
          "velocity": 0.6299212598425197
        },
        {
          "duration": 0.27083306249998884,
          "durationTicks": 91,
          "midi": 48,
          "name": "C3",
          "ticks": 24192,
          "time": 71.99992800000001,
          "velocity": 0.6771653543307087
        },
        {
          "duration": 0.1279760624999966,
          "durationTicks": 43,
          "midi": 55,
          "name": "G3",
          "ticks": 24240,
          "time": 72.142785,
          "velocity": 0.5433070866141733
        },
        {
          "duration": 0.23511881249999078,
          "durationTicks": 79,
          "midi": 60,
          "name": "C4",
          "ticks": 24288,
          "time": 72.28564200000001,
          "velocity": 0.5748031496062992
        },
        {
          "duration": 0.5208328124999895,
          "durationTicks": 175,
          "midi": 63,
          "name": "D#4",
          "ticks": 24384,
          "time": 72.57135600000001,
          "velocity": 0.6692913385826772
        },
        {
          "duration": 0.27083306250000305,
          "durationTicks": 91,
          "midi": 46,
          "name": "A#2",
          "ticks": 24576,
          "time": 73.142784,
          "velocity": 0.6771653543307087
        },
        {
          "duration": 0.1279760624999966,
          "durationTicks": 43,
          "midi": 53,
          "name": "F3",
          "ticks": 24624,
          "time": 73.28564100000001,
          "velocity": 0.5196850393700787
        },
        {
          "duration": 0.1279760625000108,
          "durationTicks": 43,
          "midi": 58,
          "name": "A#3",
          "ticks": 24672,
          "time": 73.428498,
          "velocity": 0.5590551181102362
        },
        {
          "duration": 0.1279760624999966,
          "durationTicks": 43,
          "midi": 53,
          "name": "F3",
          "ticks": 24720,
          "time": 73.57135500000001,
          "velocity": 0.6377952755905512
        },
        {
          "duration": 0.5565470625000017,
          "durationTicks": 187,
          "midi": 62,
          "name": "D4",
          "ticks": 24768,
          "time": 73.714212,
          "velocity": 0.6850393700787402
        },
        {
          "duration": 0.27083306250001726,
          "durationTicks": 91,
          "midi": 45,
          "name": "A2",
          "ticks": 24960,
          "time": 74.28564,
          "velocity": 0.6771653543307087
        },
        {
          "duration": 0.1279760625000108,
          "durationTicks": 43,
          "midi": 49,
          "name": "C#3",
          "ticks": 25008,
          "time": 74.42849700000001,
          "velocity": 0.5748031496062992
        },
        {
          "duration": 0.1279760625000108,
          "durationTicks": 43,
          "midi": 52,
          "name": "E3",
          "ticks": 25056,
          "time": 74.571354,
          "velocity": 0.6220472440944882
        },
        {
          "duration": 0.1279760625000108,
          "durationTicks": 43,
          "midi": 55,
          "name": "G3",
          "ticks": 25104,
          "time": 74.714211,
          "velocity": 0.6377952755905512
        },
        {
          "duration": 0.1279760624999966,
          "durationTicks": 43,
          "midi": 57,
          "name": "A3",
          "ticks": 25152,
          "time": 74.85706800000001,
          "velocity": 0.6692913385826772
        },
        {
          "duration": 0.1279760625000108,
          "durationTicks": 43,
          "midi": 61,
          "name": "C#4",
          "ticks": 25200,
          "time": 74.999925,
          "velocity": 0.6850393700787402
        },
        {
          "duration": 0.1279760624999966,
          "durationTicks": 43,
          "midi": 64,
          "name": "E4",
          "ticks": 25248,
          "time": 75.14278200000001,
          "velocity": 0.6692913385826772
        },
        {
          "duration": 0.1279760625000108,
          "durationTicks": 43,
          "midi": 61,
          "name": "C#4",
          "ticks": 25296,
          "time": 75.285639,
          "velocity": 0.6377952755905512
        },
        {
          "duration": 0.5565470625000017,
          "durationTicks": 187,
          "midi": 38,
          "name": "D2",
          "ticks": 25344,
          "time": 75.42849600000001,
          "velocity": 0.6062992125984252
        },
        {
          "duration": 0.1279760625000108,
          "durationTicks": 43,
          "midi": 43,
          "name": "G2",
          "ticks": 25392,
          "time": 75.571353,
          "velocity": 0.4566929133858268
        },
        {
          "duration": 0.1279760624999966,
          "durationTicks": 43,
          "midi": 45,
          "name": "A2",
          "ticks": 25440,
          "time": 75.71421000000001,
          "velocity": 0.4881889763779528
        },
        {
          "duration": 0.1279760625000108,
          "durationTicks": 43,
          "midi": 50,
          "name": "D3",
          "ticks": 25488,
          "time": 75.857067,
          "velocity": 0.5275590551181102
        },
        {
          "duration": 0.1279760625000108,
          "durationTicks": 43,
          "midi": 45,
          "name": "A2",
          "ticks": 25536,
          "time": 75.99992400000001,
          "velocity": 0.6062992125984252
        },
        {
          "duration": 0.1279760625000108,
          "durationTicks": 43,
          "midi": 43,
          "name": "G2",
          "ticks": 25584,
          "time": 76.142781,
          "velocity": 0.5748031496062992
        },
        {
          "duration": 0.1279760625000108,
          "durationTicks": 43,
          "midi": 38,
          "name": "D2",
          "ticks": 25632,
          "time": 76.285638,
          "velocity": 0.5196850393700787
        },
        {
          "duration": 0.1279760624999966,
          "durationTicks": 43,
          "midi": 33,
          "name": "A1",
          "ticks": 25680,
          "time": 76.42849500000001,
          "velocity": 0.47244094488188976
        },
        {
          "duration": 0.27083306250000305,
          "durationTicks": 91,
          "midi": 43,
          "name": "G2",
          "ticks": 25728,
          "time": 76.571352,
          "velocity": 0.6771653543307087
        },
        {
          "duration": 0.27083306250000305,
          "durationTicks": 91,
          "midi": 58,
          "name": "A#3",
          "ticks": 25824,
          "time": 76.857066,
          "velocity": 0.5275590551181102
        },
        {
          "duration": 0.1279760624999966,
          "durationTicks": 43,
          "midi": 50,
          "name": "D3",
          "ticks": 25872,
          "time": 76.99992300000001,
          "velocity": 0.5275590551181102
        },
        {
          "duration": 0.27083306250000305,
          "durationTicks": 91,
          "midi": 55,
          "name": "G3",
          "ticks": 25920,
          "time": 77.14278,
          "velocity": 0.5590551181102362
        },
        {
          "duration": 0.1279760624999966,
          "durationTicks": 43,
          "midi": 50,
          "name": "D3",
          "ticks": 25968,
          "time": 77.28563700000001,
          "velocity": 0.5275590551181102
        },
        {
          "duration": 0.27083306250001726,
          "durationTicks": 91,
          "midi": 58,
          "name": "A#3",
          "ticks": 26016,
          "time": 77.428494,
          "velocity": 0.5905511811023622
        },
        {
          "duration": 0.27083306250000305,
          "durationTicks": 91,
          "midi": 45,
          "name": "A2",
          "ticks": 26112,
          "time": 77.71420800000001,
          "velocity": 0.6771653543307087
        },
        {
          "duration": 0.1279760625000108,
          "durationTicks": 43,
          "midi": 53,
          "name": "F3",
          "ticks": 26160,
          "time": 77.857065,
          "velocity": 0.5433070866141733
        },
        {
          "duration": 0.1279760624999966,
          "durationTicks": 43,
          "midi": 60,
          "name": "C4",
          "ticks": 26208,
          "time": 77.99992200000001,
          "velocity": 0.6220472440944882
        },
        {
          "duration": 0.1279760625000108,
          "durationTicks": 43,
          "midi": 53,
          "name": "F3",
          "ticks": 26256,
          "time": 78.142779,
          "velocity": 0.6299212598425197
        },
        {
          "duration": 0.1279760624999966,
          "durationTicks": 43,
          "midi": 53,
          "name": "F3",
          "ticks": 26304,
          "time": 78.28563600000001,
          "velocity": 0.6299212598425197
        },
        {
          "duration": 0.1279760625000108,
          "durationTicks": 43,
          "midi": 53,
          "name": "F3",
          "ticks": 26352,
          "time": 78.428493,
          "velocity": 0.6299212598425197
        },
        {
          "duration": 0.27083306250000305,
          "durationTicks": 91,
          "midi": 53,
          "name": "F3",
          "ticks": 26400,
          "time": 78.57135000000001,
          "velocity": 0.6299212598425197
        },
        {
          "duration": 0.27083306250000305,
          "durationTicks": 91,
          "midi": 46,
          "name": "A#2",
          "ticks": 26496,
          "time": 78.85706400000001,
          "velocity": 0.6771653543307087
        },
        {
          "duration": 0.1279760625000108,
          "durationTicks": 43,
          "midi": 50,
          "name": "D3",
          "ticks": 26544,
          "time": 78.999921,
          "velocity": 0.5196850393700787
        },
        {
          "duration": 0.1279760625000108,
          "durationTicks": 43,
          "midi": 62,
          "name": "D4",
          "ticks": 26592,
          "time": 79.142778,
          "velocity": 0.6535433070866141
        },
        {
          "duration": 0.1279760624999966,
          "durationTicks": 43,
          "midi": 58,
          "name": "A#3",
          "ticks": 26640,
          "time": 79.28563500000001,
          "velocity": 0.6377952755905512
        },
        {
          "duration": 0.1279760625000108,
          "durationTicks": 43,
          "midi": 50,
          "name": "D3",
          "ticks": 26688,
          "time": 79.428492,
          "velocity": 0.5905511811023622
        },
        {
          "duration": 0.1279760624999966,
          "durationTicks": 43,
          "midi": 53,
          "name": "F3",
          "ticks": 26736,
          "time": 79.57134900000001,
          "velocity": 0.5905511811023622
        },
        {
          "duration": 0.1279760625000108,
          "durationTicks": 43,
          "midi": 62,
          "name": "D4",
          "ticks": 26784,
          "time": 79.714206,
          "velocity": 0.6692913385826772
        },
        {
          "duration": 0.1279760624999966,
          "durationTicks": 43,
          "midi": 58,
          "name": "A#3",
          "ticks": 26832,
          "time": 79.85706300000001,
          "velocity": 0.6062992125984252
        },
        {
          "duration": 0.27083306250000305,
          "durationTicks": 91,
          "midi": 47,
          "name": "B2",
          "ticks": 26880,
          "time": 79.99992,
          "velocity": 0.6771653543307087
        },
        {
          "duration": 0.1279760624999966,
          "durationTicks": 43,
          "midi": 53,
          "name": "F3",
          "ticks": 26928,
          "time": 80.14277700000001,
          "velocity": 0.5275590551181102
        },
        {
          "duration": 0.235118812500005,
          "durationTicks": 79,
          "midi": 59,
          "name": "B3",
          "ticks": 26976,
          "time": 80.285634,
          "velocity": 0.5905511811023622
        },
        {
          "duration": 0.5208328125000179,
          "durationTicks": 175,
          "midi": 62,
          "name": "D4",
          "ticks": 27072,
          "time": 80.571348,
          "velocity": 0.6299212598425197
        },
        {
          "duration": 0.27083306250000305,
          "durationTicks": 91,
          "midi": 48,
          "name": "C3",
          "ticks": 27264,
          "time": 81.14277600000001,
          "velocity": 0.6771653543307087
        },
        {
          "duration": 0.1279760625000108,
          "durationTicks": 43,
          "midi": 55,
          "name": "G3",
          "ticks": 27312,
          "time": 81.285633,
          "velocity": 0.6771653543307087
        },
        {
          "duration": 0.1279760624999966,
          "durationTicks": 43,
          "midi": 60,
          "name": "C4",
          "ticks": 27360,
          "time": 81.42849000000001,
          "velocity": 0.6771653543307087
        },
        {
          "duration": 0.1279760624999966,
          "durationTicks": 43,
          "midi": 63,
          "name": "D#4",
          "ticks": 27456,
          "time": 81.71420400000001,
          "velocity": 0.6771653543307087
        },
        {
          "duration": 0.1279760625000108,
          "durationTicks": 43,
          "midi": 67,
          "name": "G4",
          "ticks": 27552,
          "time": 81.99991800000001,
          "velocity": 0.6771653543307087
        },
        {
          "duration": 0.1279760625000108,
          "durationTicks": 43,
          "midi": 49,
          "name": "C#3",
          "ticks": 27648,
          "time": 82.285632,
          "velocity": 0.6771653543307087
        },
        {
          "duration": 0.1279760624999966,
          "durationTicks": 43,
          "midi": 57,
          "name": "A3",
          "ticks": 27696,
          "time": 82.42848900000001,
          "velocity": 0.6771653543307087
        },
        {
          "duration": 0.1279760625000108,
          "durationTicks": 43,
          "midi": 61,
          "name": "C#4",
          "ticks": 27744,
          "time": 82.571346,
          "velocity": 0.6771653543307087
        },
        {
          "duration": 0.1279760624999966,
          "durationTicks": 43,
          "midi": 57,
          "name": "A3",
          "ticks": 27792,
          "time": 82.71420300000001,
          "velocity": 0.6771653543307087
        },
        {
          "duration": 0.1279760625000108,
          "durationTicks": 43,
          "midi": 64,
          "name": "E4",
          "ticks": 27840,
          "time": 82.85706,
          "velocity": 0.6771653543307087
        },
        {
          "duration": 0.1279760625000108,
          "durationTicks": 43,
          "midi": 67,
          "name": "G4",
          "ticks": 27936,
          "time": 83.142774,
          "velocity": 0.6771653543307087
        },
        {
          "duration": 0.1279760625000108,
          "durationTicks": 43,
          "midi": 43,
          "name": "G2",
          "ticks": 28080,
          "time": 83.57134500000001,
          "velocity": 0.6771653543307087
        },
        {
          "duration": 0.1279760625000108,
          "durationTicks": 43,
          "midi": 50,
          "name": "D3",
          "ticks": 28128,
          "time": 83.714202,
          "velocity": 0.6771653543307087
        },
        {
          "duration": 0.1279760625000108,
          "durationTicks": 43,
          "midi": 55,
          "name": "G3",
          "ticks": 28176,
          "time": 83.857059,
          "velocity": 0.6771653543307087
        },
        {
          "duration": 0.1279760624999966,
          "durationTicks": 43,
          "midi": 57,
          "name": "A3",
          "ticks": 28224,
          "time": 83.99991600000001,
          "velocity": 0.6771653543307087
        },
        {
          "duration": 0.1279760625000108,
          "durationTicks": 43,
          "midi": 55,
          "name": "G3",
          "ticks": 28272,
          "time": 84.142773,
          "velocity": 0.6771653543307087
        },
        {
          "duration": 0.1279760624999966,
          "durationTicks": 43,
          "midi": 62,
          "name": "D4",
          "ticks": 28320,
          "time": 84.28563000000001,
          "velocity": 0.6771653543307087
        },
        {
          "duration": 0.1279760625000108,
          "durationTicks": 43,
          "midi": 42,
          "name": "F#2",
          "ticks": 28464,
          "time": 84.714201,
          "velocity": 0.6771653543307087
        },
        {
          "duration": 0.1279760624999966,
          "durationTicks": 43,
          "midi": 50,
          "name": "D3",
          "ticks": 28512,
          "time": 84.85705800000001,
          "velocity": 0.6771653543307087
        },
        {
          "duration": 0.1279760625000108,
          "durationTicks": 43,
          "midi": 54,
          "name": "F#3",
          "ticks": 28560,
          "time": 84.999915,
          "velocity": 0.6771653543307087
        },
        {
          "duration": 0.1279760625000108,
          "durationTicks": 43,
          "midi": 57,
          "name": "A3",
          "ticks": 28608,
          "time": 85.14277200000001,
          "velocity": 0.6771653543307087
        },
        {
          "duration": 0.1279760625000108,
          "durationTicks": 43,
          "midi": 54,
          "name": "F#3",
          "ticks": 28656,
          "time": 85.285629,
          "velocity": 0.6771653543307087
        },
        {
          "duration": 0.1279760625000108,
          "durationTicks": 43,
          "midi": 62,
          "name": "D4",
          "ticks": 28704,
          "time": 85.428486,
          "velocity": 0.6771653543307087
        },
        {
          "duration": 0.1279760624999966,
          "durationTicks": 43,
          "midi": 43,
          "name": "G2",
          "ticks": 28848,
          "time": 85.85705700000001,
          "velocity": 0.6771653543307087
        },
        {
          "duration": 0.1279760625000108,
          "durationTicks": 43,
          "midi": 50,
          "name": "D3",
          "ticks": 28896,
          "time": 85.999914,
          "velocity": 0.6771653543307087
        },
        {
          "duration": 0.1279760624999966,
          "durationTicks": 43,
          "midi": 55,
          "name": "G3",
          "ticks": 28944,
          "time": 86.14277100000001,
          "velocity": 0.6771653543307087
        },
        {
          "duration": 0.1279760625000108,
          "durationTicks": 43,
          "midi": 57,
          "name": "A3",
          "ticks": 28992,
          "time": 86.285628,
          "velocity": 0.6771653543307087
        },
        {
          "duration": 0.1279760624999966,
          "durationTicks": 43,
          "midi": 55,
          "name": "G3",
          "ticks": 29040,
          "time": 86.42848500000001,
          "velocity": 0.6771653543307087
        },
        {
          "duration": 0.1279760625000108,
          "durationTicks": 43,
          "midi": 62,
          "name": "D4",
          "ticks": 29088,
          "time": 86.571342,
          "velocity": 0.6771653543307087
        },
        {
          "duration": 0.1279760625000108,
          "durationTicks": 43,
          "midi": 50,
          "name": "D3",
          "ticks": 29232,
          "time": 86.999913,
          "velocity": 0.6771653543307087
        },
        {
          "duration": 0.1279760624999966,
          "durationTicks": 43,
          "midi": 54,
          "name": "F#3",
          "ticks": 29280,
          "time": 87.14277000000001,
          "velocity": 0.6771653543307087
        },
        {
          "duration": 0.1279760625000108,
          "durationTicks": 43,
          "midi": 57,
          "name": "A3",
          "ticks": 29328,
          "time": 87.285627,
          "velocity": 0.6771653543307087
        },
        {
          "duration": 0.1279760624999966,
          "durationTicks": 43,
          "midi": 62,
          "name": "D4",
          "ticks": 29376,
          "time": 87.42848400000001,
          "velocity": 0.6771653543307087
        },
        {
          "duration": 0.1279760625000108,
          "durationTicks": 43,
          "midi": 66,
          "name": "F#4",
          "ticks": 29424,
          "time": 87.571341,
          "velocity": 0.6771653543307087
        },
        {
          "duration": 0.1279760624999966,
          "durationTicks": 43,
          "midi": 62,
          "name": "D4",
          "ticks": 29472,
          "time": 87.71419800000001,
          "velocity": 0.6771653543307087
        }
      ],
      "endOfTrackTicks": 47692
    },
    {
      "channel": 6,
      "controlChanges": {
        "6": [
          {
            "number": 6,
            "ticks": 0,
            "time": 0,
            "value": 0.09448818897637795
          },
          {
            "number": 6,
            "ticks": 0,
            "time": 0,
            "value": 0.09448818897637795
          },
          {
            "number": 6,
            "ticks": 0,
            "time": 0,
            "value": 0.09448818897637795
          },
          {
            "number": 6,
            "ticks": 47690,
            "time": 141.934381875,
            "value": 0.09448818897637795
          },
          {
            "number": 6,
            "ticks": 47692,
            "time": 141.94033425,
            "value": 0.09448818897637795
          }
        ],
        "7": [
          {
            "number": 7,
            "ticks": 0,
            "time": 0,
            "value": 0.7874015748031497
          },
          {
            "number": 7,
            "ticks": 0,
            "time": 0,
            "value": 0.7874015748031497
          },
          {
            "number": 7,
            "ticks": 0,
            "time": 0,
            "value": 0.7874015748031497
          },
          {
            "number": 7,
            "ticks": 0,
            "time": 0,
            "value": 0.7874015748031497
          },
          {
            "number": 7,
            "ticks": 47690,
            "time": 141.934381875,
            "value": 0.7874015748031497
          },
          {
            "number": 7,
            "ticks": 47692,
            "time": 141.94033425,
            "value": 0.7874015748031497
          }
        ],
        "10": [
          {
            "number": 10,
            "ticks": 0,
            "time": 0,
            "value": 0.5039370078740157
          },
          {
            "number": 10,
            "ticks": 0,
            "time": 0,
            "value": 0.5039370078740157
          },
          {
            "number": 10,
            "ticks": 0,
            "time": 0,
            "value": 0.5039370078740157
          },
          {
            "number": 10,
            "ticks": 0,
            "time": 0,
            "value": 0.5039370078740157
          },
          {
            "number": 10,
            "ticks": 47690,
            "time": 141.934381875,
            "value": 0.5039370078740157
          },
          {
            "number": 10,
            "ticks": 47692,
            "time": 141.94033425,
            "value": 0.5039370078740157
          }
        ],
        "100": [
          {
            "number": 100,
            "ticks": 0,
            "time": 0,
            "value": 0
          },
          {
            "number": 100,
            "ticks": 0,
            "time": 0,
            "value": 0
          },
          {
            "number": 100,
            "ticks": 0,
            "time": 0,
            "value": 0
          },
          {
            "number": 100,
            "ticks": 47690,
            "time": 141.934381875,
            "value": 0
          },
          {
            "number": 100,
            "ticks": 47692,
            "time": 141.94033425,
            "value": 0
          }
        ],
        "101": [
          {
            "number": 101,
            "ticks": 0,
            "time": 0,
            "value": 0
          },
          {
            "number": 101,
            "ticks": 0,
            "time": 0,
            "value": 0
          },
          {
            "number": 101,
            "ticks": 0,
            "time": 0,
            "value": 0
          },
          {
            "number": 101,
            "ticks": 47690,
            "time": 141.934381875,
            "value": 0
          },
          {
            "number": 101,
            "ticks": 47692,
            "time": 141.94033425,
            "value": 0
          }
        ]
      },
      "pitchBends": [
        {
          "ticks": 0,
          "time": 0,
          "value": 0
        },
        {
          "ticks": 0,
          "time": 0,
          "value": 0
        },
        {
          "ticks": 0,
          "time": 0,
          "value": 0
        },
        {
          "ticks": 0,
          "time": 0,
          "value": 0
        },
        {
          "ticks": 47690,
          "time": 141.934381875,
          "value": 0
        },
        {
          "ticks": 47692,
          "time": 141.94033425,
          "value": 0
        }
      ],
      "instrument": {
        "family": "piano",
        "number": 0,
        "name": "acoustic grand piano"
      },
      "name": "Ect.",
      "notes": [
        {
          "duration": 0.14285699999999935,
          "durationTicks": 48,
          "midi": 72,
          "name": "C5",
          "ticks": 3456,
          "time": 10.285704,
          "velocity": 0.7716535433070866
        },
        {
          "duration": 0.14285699999999935,
          "durationTicks": 48,
          "midi": 75,
          "name": "D#5",
          "ticks": 3456,
          "time": 10.285704,
          "velocity": 0.8031496062992126
        },
        {
          "duration": 0.14285700000000112,
          "durationTicks": 48,
          "midi": 74,
          "name": "D5",
          "ticks": 3504,
          "time": 10.428561,
          "velocity": 0.8031496062992126
        },
        {
          "duration": 0.14285699999999935,
          "durationTicks": 48,
          "midi": 72,
          "name": "C5",
          "ticks": 3552,
          "time": 10.571418000000001,
          "velocity": 0.8031496062992126
        },
        {
          "duration": 0.14285699999999935,
          "durationTicks": 48,
          "midi": 75,
          "name": "D#5",
          "ticks": 3600,
          "time": 10.714275,
          "velocity": 0.8031496062992126
        },
        {
          "duration": 0.2619045,
          "durationTicks": 88,
          "midi": 75,
          "name": "D#5",
          "ticks": 3648,
          "time": 10.857132,
          "velocity": 0.7874015748031497
        },
        {
          "duration": 0.2619045,
          "durationTicks": 88,
          "midi": 79,
          "name": "G5",
          "ticks": 3654,
          "time": 10.874989125,
          "velocity": 0.8031496062992126
        },
        {
          "duration": 0.28571400000000047,
          "durationTicks": 96,
          "midi": 72,
          "name": "C5",
          "ticks": 3744,
          "time": 11.142846,
          "velocity": 0.7716535433070866
        },
        {
          "duration": 0.28571400000000047,
          "durationTicks": 96,
          "midi": 75,
          "name": "D#5",
          "ticks": 3744,
          "time": 11.142846,
          "velocity": 0.8188976377952756
        },
        {
          "duration": 0.23809500000000128,
          "durationTicks": 80,
          "midi": 73,
          "name": "C#5",
          "ticks": 3840,
          "time": 11.428560000000001,
          "velocity": 0.7874015748031497
        },
        {
          "duration": 0.2380949999999995,
          "durationTicks": 80,
          "midi": 76,
          "name": "E5",
          "ticks": 3841,
          "time": 11.4315361875,
          "velocity": 0.8188976377952756
        },
        {
          "duration": 0.2380949999999995,
          "durationTicks": 80,
          "midi": 69,
          "name": "A4",
          "ticks": 3936,
          "time": 11.714274000000001,
          "velocity": 0.8031496062992126
        },
        {
          "duration": 0.2380949999999995,
          "durationTicks": 80,
          "midi": 64,
          "name": "E4",
          "ticks": 3936,
          "time": 11.714274000000001,
          "velocity": 0.7716535433070866
        },
        {
          "duration": 0.14285699999999935,
          "durationTicks": 48,
          "midi": 73,
          "name": "C#5",
          "ticks": 4032,
          "time": 11.999988000000002,
          "velocity": 0.8031496062992126
        },
        {
          "duration": 0.14285699999999935,
          "durationTicks": 48,
          "midi": 69,
          "name": "A4",
          "ticks": 4032,
          "time": 11.999988000000002,
          "velocity": 0.7559055118110236
        },
        {
          "duration": 0.14285699999999935,
          "durationTicks": 48,
          "midi": 76,
          "name": "E5",
          "ticks": 4080,
          "time": 12.142845000000001,
          "velocity": 0.8031496062992126
        },
        {
          "duration": 0.14285699999999935,
          "durationTicks": 48,
          "midi": 73,
          "name": "C#5",
          "ticks": 4080,
          "time": 12.142845000000001,
          "velocity": 0.7716535433070866
        },
        {
          "duration": 0.28571400000000047,
          "durationTicks": 96,
          "midi": 76,
          "name": "E5",
          "ticks": 4128,
          "time": 12.285702,
          "velocity": 0.7559055118110236
        },
        {
          "duration": 0.2619044999999982,
          "durationTicks": 88,
          "midi": 81,
          "name": "A5",
          "ticks": 4130,
          "time": 12.291654375000002,
          "velocity": 0.8031496062992126
        },
        {
          "duration": 1.6904744999999988,
          "durationTicks": 568,
          "midi": 74,
          "name": "D5",
          "ticks": 4224,
          "time": 12.571416000000001,
          "velocity": 0.8031496062992126
        },
        {
          "duration": 1.6904744999999988,
          "durationTicks": 568,
          "midi": 79,
          "name": "G5",
          "ticks": 4226,
          "time": 12.577368375000002,
          "velocity": 0.8031496062992126
        },
        {
          "duration": 0.5476184999999987,
          "durationTicks": 184,
          "midi": 79,
          "name": "G5",
          "ticks": 4800,
          "time": 14.285700000000002,
          "velocity": 0.8031496062992126
        },
        {
          "duration": 0.5476184999999987,
          "durationTicks": 184,
          "midi": 74,
          "name": "D5",
          "ticks": 4800,
          "time": 14.285700000000002,
          "velocity": 0.8188976377952756
        },
        {
          "duration": 2.2857119999999984,
          "durationTicks": 768,
          "midi": 74,
          "name": "D5",
          "ticks": 4992,
          "time": 14.857128000000001,
          "velocity": 0.8031496062992126
        },
        {
          "duration": 2.2619024999999997,
          "durationTicks": 760,
          "midi": 78,
          "name": "F#5",
          "ticks": 4995,
          "time": 14.8660565625,
          "velocity": 0.8188976377952756
        },
        {
          "duration": 0.09523799999999838,
          "durationTicks": 32,
          "midi": 62,
          "name": "D4",
          "ticks": 6576,
          "time": 19.571409000000003,
          "velocity": 0.5748031496062992
        },
        {
          "duration": 0.09523799999999838,
          "durationTicks": 32,
          "midi": 62,
          "name": "D4",
          "ticks": 6624,
          "time": 19.714266000000002,
          "velocity": 0.5748031496062992
        },
        {
          "duration": 0.09523799999999838,
          "durationTicks": 32,
          "midi": 62,
          "name": "D4",
          "ticks": 6720,
          "time": 19.99998,
          "velocity": 0.5748031496062992
        },
        {
          "duration": 0.09523800000000193,
          "durationTicks": 32,
          "midi": 62,
          "name": "D4",
          "ticks": 6768,
          "time": 20.142837,
          "velocity": 0.5748031496062992
        },
        {
          "duration": 0.09523799999999838,
          "durationTicks": 32,
          "midi": 62,
          "name": "D4",
          "ticks": 6864,
          "time": 20.428551000000002,
          "velocity": 0.5748031496062992
        },
        {
          "duration": 0.09523799999999838,
          "durationTicks": 32,
          "midi": 62,
          "name": "D4",
          "ticks": 6912,
          "time": 20.571408,
          "velocity": 0.5748031496062992
        },
        {
          "duration": 0.09523799999999838,
          "durationTicks": 32,
          "midi": 62,
          "name": "D4",
          "ticks": 7008,
          "time": 20.857122,
          "velocity": 0.5748031496062992
        },
        {
          "duration": 0.09523799999999838,
          "durationTicks": 32,
          "midi": 62,
          "name": "D4",
          "ticks": 7056,
          "time": 20.999979000000003,
          "velocity": 0.5748031496062992
        },
        {
          "duration": 0.09523799999999838,
          "durationTicks": 32,
          "midi": 62,
          "name": "D4",
          "ticks": 7152,
          "time": 21.285693000000002,
          "velocity": 0.5748031496062992
        },
        {
          "duration": 0.09523799999999838,
          "durationTicks": 32,
          "midi": 62,
          "name": "D4",
          "ticks": 7248,
          "time": 21.571407,
          "velocity": 0.5748031496062992
        },
        {
          "duration": 0.09523799999999838,
          "durationTicks": 32,
          "midi": 62,
          "name": "D4",
          "ticks": 7344,
          "time": 21.857121000000003,
          "velocity": 0.5748031496062992
        },
        {
          "duration": 0.09523799999999838,
          "durationTicks": 32,
          "midi": 62,
          "name": "D4",
          "ticks": 7392,
          "time": 21.999978000000002,
          "velocity": 0.5748031496062992
        },
        {
          "duration": 0.09523799999999838,
          "durationTicks": 32,
          "midi": 62,
          "name": "D4",
          "ticks": 7488,
          "time": 22.285692,
          "velocity": 0.5748031496062992
        },
        {
          "duration": 0.09523800000000193,
          "durationTicks": 32,
          "midi": 62,
          "name": "D4",
          "ticks": 7536,
          "time": 22.428549,
          "velocity": 0.5748031496062992
        },
        {
          "duration": 0.09523799999999838,
          "durationTicks": 32,
          "midi": 62,
          "name": "D4",
          "ticks": 7632,
          "time": 22.714263000000003,
          "velocity": 0.5748031496062992
        },
        {
          "duration": 0.09523799999999838,
          "durationTicks": 32,
          "midi": 62,
          "name": "D4",
          "ticks": 7680,
          "time": 22.857120000000002,
          "velocity": 0.5748031496062992
        },
        {
          "duration": 0.09523799999999838,
          "durationTicks": 32,
          "midi": 62,
          "name": "D4",
          "ticks": 7776,
          "time": 23.142834,
          "velocity": 0.5748031496062992
        },
        {
          "duration": 0.09523799999999838,
          "durationTicks": 32,
          "midi": 62,
          "name": "D4",
          "ticks": 7824,
          "time": 23.285691000000003,
          "velocity": 0.5748031496062992
        },
        {
          "duration": 0.09523799999999838,
          "durationTicks": 32,
          "midi": 62,
          "name": "D4",
          "ticks": 7920,
          "time": 23.571405000000002,
          "velocity": 0.5748031496062992
        },
        {
          "duration": 0.09523799999999838,
          "durationTicks": 32,
          "midi": 62,
          "name": "D4",
          "ticks": 8016,
          "time": 23.857119,
          "velocity": 0.5748031496062992
        },
        {
          "duration": 0.09523799999999838,
          "durationTicks": 32,
          "midi": 62,
          "name": "D4",
          "ticks": 8112,
          "time": 24.142833000000003,
          "velocity": 0.5748031496062992
        },
        {
          "duration": 0.09523799999999838,
          "durationTicks": 32,
          "midi": 62,
          "name": "D4",
          "ticks": 8160,
          "time": 24.285690000000002,
          "velocity": 0.5748031496062992
        },
        {
          "duration": 0.09523799999999838,
          "durationTicks": 32,
          "midi": 62,
          "name": "D4",
          "ticks": 8256,
          "time": 24.571404,
          "velocity": 0.5748031496062992
        },
        {
          "duration": 0.09523800000000193,
          "durationTicks": 32,
          "midi": 62,
          "name": "D4",
          "ticks": 8304,
          "time": 24.714261,
          "velocity": 0.5748031496062992
        },
        {
          "duration": 0.09523799999999838,
          "durationTicks": 32,
          "midi": 62,
          "name": "D4",
          "ticks": 8400,
          "time": 24.999975000000003,
          "velocity": 0.5748031496062992
        },
        {
          "duration": 0.09523799999999838,
          "durationTicks": 32,
          "midi": 62,
          "name": "D4",
          "ticks": 8448,
          "time": 25.142832000000002,
          "velocity": 0.5748031496062992
        },
        {
          "duration": 0.09523799999999838,
          "durationTicks": 32,
          "midi": 62,
          "name": "D4",
          "ticks": 8544,
          "time": 25.428546,
          "velocity": 0.5748031496062992
        },
        {
          "duration": 0.09523799999999838,
          "durationTicks": 32,
          "midi": 62,
          "name": "D4",
          "ticks": 8592,
          "time": 25.571403000000004,
          "velocity": 0.5748031496062992
        },
        {
          "duration": 0.09523799999999838,
          "durationTicks": 32,
          "midi": 62,
          "name": "D4",
          "ticks": 8688,
          "time": 25.857117000000002,
          "velocity": 0.5748031496062992
        },
        {
          "duration": 0.09523799999999838,
          "durationTicks": 32,
          "midi": 62,
          "name": "D4",
          "ticks": 8784,
          "time": 26.142831,
          "velocity": 0.5748031496062992
        },
        {
          "duration": 0.09523799999999838,
          "durationTicks": 32,
          "midi": 74,
          "name": "D5",
          "ticks": 8880,
          "time": 26.428545000000003,
          "velocity": 0.5748031496062992
        },
        {
          "duration": 0.09523799999999838,
          "durationTicks": 32,
          "midi": 74,
          "name": "D5",
          "ticks": 8928,
          "time": 26.571402000000003,
          "velocity": 0.5748031496062992
        },
        {
          "duration": 0.09523799999999838,
          "durationTicks": 32,
          "midi": 74,
          "name": "D5",
          "ticks": 9024,
          "time": 26.857116,
          "velocity": 0.5748031496062992
        },
        {
          "duration": 0.09523800000000193,
          "durationTicks": 32,
          "midi": 74,
          "name": "D5",
          "ticks": 9072,
          "time": 26.999973,
          "velocity": 0.5748031496062992
        },
        {
          "duration": 0.09523799999999838,
          "durationTicks": 32,
          "midi": 74,
          "name": "D5",
          "ticks": 9168,
          "time": 27.285687000000003,
          "velocity": 0.5748031496062992
        },
        {
          "duration": 0.09523799999999838,
          "durationTicks": 32,
          "midi": 74,
          "name": "D5",
          "ticks": 9216,
          "time": 27.428544000000002,
          "velocity": 0.5748031496062992
        },
        {
          "duration": 0.09523799999999838,
          "durationTicks": 32,
          "midi": 74,
          "name": "D5",
          "ticks": 9312,
          "time": 27.714258,
          "velocity": 0.5748031496062992
        },
        {
          "duration": 0.09523799999999838,
          "durationTicks": 32,
          "midi": 74,
          "name": "D5",
          "ticks": 9360,
          "time": 27.857115000000004,
          "velocity": 0.5748031496062992
        },
        {
          "duration": 0.09523799999999838,
          "durationTicks": 32,
          "midi": 74,
          "name": "D5",
          "ticks": 9456,
          "time": 28.142829000000003,
          "velocity": 0.5748031496062992
        },
        {
          "duration": 0.09523799999999838,
          "durationTicks": 32,
          "midi": 74,
          "name": "D5",
          "ticks": 9552,
          "time": 28.428543,
          "velocity": 0.5748031496062992
        },
        {
          "duration": 0.09523799999999838,
          "durationTicks": 32,
          "midi": 62,
          "name": "D4",
          "ticks": 9648,
          "time": 28.714257000000003,
          "velocity": 0.5748031496062992
        },
        {
          "duration": 0.09523799999999838,
          "durationTicks": 32,
          "midi": 62,
          "name": "D4",
          "ticks": 9696,
          "time": 28.857114000000003,
          "velocity": 0.5748031496062992
        },
        {
          "duration": 0.09523799999999838,
          "durationTicks": 32,
          "midi": 62,
          "name": "D4",
          "ticks": 9792,
          "time": 29.142828,
          "velocity": 0.5748031496062992
        },
        {
          "duration": 0.09523800000000193,
          "durationTicks": 32,
          "midi": 62,
          "name": "D4",
          "ticks": 9840,
          "time": 29.285685,
          "velocity": 0.5748031496062992
        },
        {
          "duration": 0.09523799999999838,
          "durationTicks": 32,
          "midi": 62,
          "name": "D4",
          "ticks": 9936,
          "time": 29.571399000000003,
          "velocity": 0.5748031496062992
        },
        {
          "duration": 0.09523799999999838,
          "durationTicks": 32,
          "midi": 62,
          "name": "D4",
          "ticks": 9984,
          "time": 29.714256000000002,
          "velocity": 0.5748031496062992
        },
        {
          "duration": 0.09523799999999838,
          "durationTicks": 32,
          "midi": 62,
          "name": "D4",
          "ticks": 10080,
          "time": 29.99997,
          "velocity": 0.5748031496062992
        },
        {
          "duration": 0.09523799999999838,
          "durationTicks": 32,
          "midi": 62,
          "name": "D4",
          "ticks": 10128,
          "time": 30.142827000000004,
          "velocity": 0.5748031496062992
        },
        {
          "duration": 0.09523799999999838,
          "durationTicks": 32,
          "midi": 62,
          "name": "D4",
          "ticks": 10224,
          "time": 30.428541000000003,
          "velocity": 0.5748031496062992
        },
        {
          "duration": 0.09523799999999838,
          "durationTicks": 32,
          "midi": 62,
          "name": "D4",
          "ticks": 10320,
          "time": 30.714255,
          "velocity": 0.5748031496062992
        },
        {
          "duration": 0.09523799999999838,
          "durationTicks": 32,
          "midi": 62,
          "name": "D4",
          "ticks": 10416,
          "time": 30.999969000000004,
          "velocity": 0.5748031496062992
        },
        {
          "duration": 0.09523799999999838,
          "durationTicks": 32,
          "midi": 62,
          "name": "D4",
          "ticks": 10464,
          "time": 31.142826000000003,
          "velocity": 0.5748031496062992
        },
        {
          "duration": 0.09523799999999838,
          "durationTicks": 32,
          "midi": 62,
          "name": "D4",
          "ticks": 10560,
          "time": 31.42854,
          "velocity": 0.5748031496062992
        },
        {
          "duration": 0.09523800000000193,
          "durationTicks": 32,
          "midi": 62,
          "name": "D4",
          "ticks": 10608,
          "time": 31.571397,
          "velocity": 0.5748031496062992
        },
        {
          "duration": 0.09523799999999838,
          "durationTicks": 32,
          "midi": 62,
          "name": "D4",
          "ticks": 10704,
          "time": 31.857111000000003,
          "velocity": 0.5748031496062992
        },
        {
          "duration": 0.09523800000000193,
          "durationTicks": 32,
          "midi": 62,
          "name": "D4",
          "ticks": 10752,
          "time": 31.999968000000003,
          "velocity": 0.5748031496062992
        },
        {
          "duration": 0.09523800000000193,
          "durationTicks": 32,
          "midi": 62,
          "name": "D4",
          "ticks": 10848,
          "time": 32.285682,
          "velocity": 0.5748031496062992
        },
        {
          "duration": 0.09523800000000193,
          "durationTicks": 32,
          "midi": 62,
          "name": "D4",
          "ticks": 10896,
          "time": 32.428539,
          "velocity": 0.5748031496062992
        },
        {
          "duration": 0.09523800000000193,
          "durationTicks": 32,
          "midi": 62,
          "name": "D4",
          "ticks": 10992,
          "time": 32.714253,
          "velocity": 0.5748031496062992
        },
        {
          "duration": 0.09523799999999483,
          "durationTicks": 32,
          "midi": 62,
          "name": "D4",
          "ticks": 11088,
          "time": 32.999967000000005,
          "velocity": 0.5748031496062992
        },
        {
          "duration": 0.09523799999999483,
          "durationTicks": 32,
          "midi": 62,
          "name": "D4",
          "ticks": 11184,
          "time": 33.285681000000004,
          "velocity": 0.5748031496062992
        },
        {
          "duration": 0.09523799999999483,
          "durationTicks": 32,
          "midi": 62,
          "name": "D4",
          "ticks": 11232,
          "time": 33.428538,
          "velocity": 0.5748031496062992
        },
        {
          "duration": 0.09523800000000193,
          "durationTicks": 32,
          "midi": 62,
          "name": "D4",
          "ticks": 11328,
          "time": 33.714252,
          "velocity": 0.5748031496062992
        },
        {
          "duration": 0.09523800000000193,
          "durationTicks": 32,
          "midi": 62,
          "name": "D4",
          "ticks": 11376,
          "time": 33.857109,
          "velocity": 0.5748031496062992
        },
        {
          "duration": 0.09523800000000193,
          "durationTicks": 32,
          "midi": 62,
          "name": "D4",
          "ticks": 11472,
          "time": 34.142823,
          "velocity": 0.5748031496062992
        },
        {
          "duration": 0.09523800000000193,
          "durationTicks": 32,
          "midi": 62,
          "name": "D4",
          "ticks": 11520,
          "time": 34.28568,
          "velocity": 0.5748031496062992
        },
        {
          "duration": 0.09523799999999483,
          "durationTicks": 32,
          "midi": 62,
          "name": "D4",
          "ticks": 11616,
          "time": 34.571394000000005,
          "velocity": 0.5748031496062992
        },
        {
          "duration": 0.09523799999999483,
          "durationTicks": 32,
          "midi": 62,
          "name": "D4",
          "ticks": 11664,
          "time": 34.714251000000004,
          "velocity": 0.5748031496062992
        },
        {
          "duration": 0.09523800000000193,
          "durationTicks": 32,
          "midi": 62,
          "name": "D4",
          "ticks": 11760,
          "time": 34.999965,
          "velocity": 0.5748031496062992
        },
        {
          "duration": 0.09523800000000193,
          "durationTicks": 32,
          "midi": 62,
          "name": "D4",
          "ticks": 11856,
          "time": 35.285679,
          "velocity": 0.5748031496062992
        },
        {
          "duration": 0.09523800000000193,
          "durationTicks": 32,
          "midi": 74,
          "name": "D5",
          "ticks": 11952,
          "time": 35.571393,
          "velocity": 0.5748031496062992
        },
        {
          "duration": 0.09523800000000193,
          "durationTicks": 32,
          "midi": 74,
          "name": "D5",
          "ticks": 12000,
          "time": 35.71425,
          "velocity": 0.5748031496062992
        },
        {
          "duration": 0.09523799999999483,
          "durationTicks": 32,
          "midi": 74,
          "name": "D5",
          "ticks": 12096,
          "time": 35.999964000000006,
          "velocity": 0.5748031496062992
        },
        {
          "duration": 0.09523799999999483,
          "durationTicks": 32,
          "midi": 74,
          "name": "D5",
          "ticks": 12144,
          "time": 36.142821000000005,
          "velocity": 0.5748031496062992
        },
        {
          "duration": 0.09523799999999483,
          "durationTicks": 32,
          "midi": 74,
          "name": "D5",
          "ticks": 12240,
          "time": 36.428535000000004,
          "velocity": 0.5748031496062992
        },
        {
          "duration": 0.5357137499999993,
          "durationTicks": 180,
          "midi": 62,
          "name": "D4",
          "ticks": 25728,
          "time": 76.571352,
          "velocity": 0.6929133858267716
        },
        {
          "duration": 0.5357137499999993,
          "durationTicks": 180,
          "midi": 67,
          "name": "G4",
          "ticks": 25730,
          "time": 76.577304375,
          "velocity": 0.6929133858267716
        },
        {
          "duration": 0.5357137499999993,
          "durationTicks": 180,
          "midi": 70,
          "name": "A#4",
          "ticks": 25732,
          "time": 76.58325675000002,
          "velocity": 0.7795275590551181
        },
        {
          "duration": 0.14285700000000645,
          "durationTicks": 48,
          "midi": 67,
          "name": "G4",
          "ticks": 25920,
          "time": 77.14278,
          "velocity": 0.7874015748031497
        },
        {
          "duration": 0.14285699999999224,
          "durationTicks": 48,
          "midi": 69,
          "name": "A4",
          "ticks": 25968,
          "time": 77.28563700000001,
          "velocity": 0.7874015748031497
        },
        {
          "duration": 0.2857140000000129,
          "durationTicks": 96,
          "midi": 70,
          "name": "A#4",
          "ticks": 26016,
          "time": 77.428494,
          "velocity": 0.7952755905511811
        },
        {
          "duration": 0.49999949999998705,
          "durationTicks": 168,
          "midi": 69,
          "name": "A4",
          "ticks": 26112,
          "time": 77.71420800000001,
          "velocity": 0.6929133858267716
        },
        {
          "duration": 0.5357137499999993,
          "durationTicks": 180,
          "midi": 65,
          "name": "F4",
          "ticks": 26112,
          "time": 77.71420800000001,
          "velocity": 0.6929133858267716
        },
        {
          "duration": 0.49999950000000126,
          "durationTicks": 168,
          "midi": 72,
          "name": "C5",
          "ticks": 26116,
          "time": 77.72611275000001,
          "velocity": 0.7952755905511811
        },
        {
          "duration": 0.2857139999999987,
          "durationTicks": 96,
          "midi": 69,
          "name": "A4",
          "ticks": 26304,
          "time": 78.28563600000001,
          "velocity": 0.7952755905511811
        },
        {
          "duration": 0.2857139999999987,
          "durationTicks": 96,
          "midi": 65,
          "name": "F4",
          "ticks": 26304,
          "time": 78.28563600000001,
          "velocity": 0.6299212598425197
        },
        {
          "duration": 0.2857139999999987,
          "durationTicks": 96,
          "midi": 77,
          "name": "F5",
          "ticks": 26400,
          "time": 78.57135000000001,
          "velocity": 0.7952755905511811
        },
        {
          "duration": 0.2857139999999987,
          "durationTicks": 96,
          "midi": 72,
          "name": "C5",
          "ticks": 26400,
          "time": 78.57135000000001,
          "velocity": 0.5748031496062992
        },
        {
          "duration": 0.2857139999999987,
          "durationTicks": 96,
          "midi": 72,
          "name": "C5",
          "ticks": 26496,
          "time": 78.85706400000001,
          "velocity": 0.7007874015748031
        },
        {
          "duration": 0.2857139999999987,
          "durationTicks": 96,
          "midi": 75,
          "name": "D#5",
          "ticks": 26505,
          "time": 78.8838496875,
          "velocity": 0.7795275590551181
        },
        {
          "duration": 0.10714274999999418,
          "durationTicks": 36,
          "midi": 70,
          "name": "A#4",
          "ticks": 26640,
          "time": 79.28563500000001,
          "velocity": 0.6929133858267716
        },
        {
          "duration": 0.10714274999999418,
          "durationTicks": 36,
          "midi": 74,
          "name": "D5",
          "ticks": 26640,
          "time": 79.28563500000001,
          "velocity": 0.7874015748031497
        },
        {
          "duration": 0.10714274999999418,
          "durationTicks": 36,
          "midi": 74,
          "name": "D5",
          "ticks": 26688,
          "time": 79.428492,
          "velocity": 0.7952755905511811
        },
        {
          "duration": 0.10714274999999418,
          "durationTicks": 36,
          "midi": 70,
          "name": "A#4",
          "ticks": 26688,
          "time": 79.428492,
          "velocity": 0.6929133858267716
        },
        {
          "duration": 0.2857139999999987,
          "durationTicks": 96,
          "midi": 72,
          "name": "C5",
          "ticks": 26784,
          "time": 79.714206,
          "velocity": 0.7874015748031497
        },
        {
          "duration": 0.2857139999999987,
          "durationTicks": 96,
          "midi": 70,
          "name": "A#4",
          "ticks": 26784,
          "time": 79.714206,
          "velocity": 0.6850393700787402
        },
        {
          "duration": 0.2857139999999987,
          "durationTicks": 96,
          "midi": 65,
          "name": "F4",
          "ticks": 26880,
          "time": 79.99992,
          "velocity": 0.6850393700787402
        },
        {
          "duration": 0.2857139999999987,
          "durationTicks": 96,
          "midi": 67,
          "name": "G4",
          "ticks": 26881,
          "time": 80.00289618750001,
          "velocity": 0.6850393700787402
        },
        {
          "duration": 0.2857139999999987,
          "durationTicks": 96,
          "midi": 71,
          "name": "B4",
          "ticks": 26884,
          "time": 80.01182475000002,
          "velocity": 0.7952755905511811
        },
        {
          "duration": 0.14285700000000645,
          "durationTicks": 48,
          "midi": 71,
          "name": "B4",
          "ticks": 27072,
          "time": 80.571348,
          "velocity": 0.7795275590551181
        },
        {
          "duration": 0.14285700000000645,
          "durationTicks": 48,
          "midi": 72,
          "name": "C5",
          "ticks": 27120,
          "time": 80.714205,
          "velocity": 0.7874015748031497
        },
        {
          "duration": 0.2857139999999987,
          "durationTicks": 96,
          "midi": 74,
          "name": "D5",
          "ticks": 27168,
          "time": 80.85706200000001,
          "velocity": 0.7952755905511811
        },
        {
          "duration": 0.2857139999999987,
          "durationTicks": 96,
          "midi": 72,
          "name": "C5",
          "ticks": 27264,
          "time": 81.14277600000001,
          "velocity": 0.7007874015748031
        },
        {
          "duration": 0.2857139999999987,
          "durationTicks": 96,
          "midi": 75,
          "name": "D#5",
          "ticks": 27264,
          "time": 81.14277600000001,
          "velocity": 0.7874015748031497
        },
        {
          "duration": 0.14285699999999224,
          "durationTicks": 48,
          "midi": 72,
          "name": "C5",
          "ticks": 27456,
          "time": 81.71420400000001,
          "velocity": 0.7952755905511811
        },
        {
          "duration": 0.14285700000000645,
          "durationTicks": 48,
          "midi": 74,
          "name": "D5",
          "ticks": 27504,
          "time": 81.857061,
          "velocity": 0.7874015748031497
        },
        {
          "duration": 0.24999975000000063,
          "durationTicks": 84,
          "midi": 75,
          "name": "D#5",
          "ticks": 27552,
          "time": 81.99991800000001,
          "velocity": 0.7795275590551181
        },
        {
          "duration": 0.2857139999999987,
          "durationTicks": 96,
          "midi": 73,
          "name": "C#5",
          "ticks": 27648,
          "time": 82.285632,
          "velocity": 0.5748031496062992
        },
        {
          "duration": 0.2857139999999987,
          "durationTicks": 96,
          "midi": 76,
          "name": "E5",
          "ticks": 27648,
          "time": 82.285632,
          "velocity": 0.7165354330708661
        },
        {
          "duration": 0.24999975000000063,
          "durationTicks": 84,
          "midi": 79,
          "name": "G5",
          "ticks": 27654,
          "time": 82.30348912500001,
          "velocity": 0.7874015748031497
        },
        {
          "duration": 0.14285700000000645,
          "durationTicks": 48,
          "midi": 73,
          "name": "C#5",
          "ticks": 27840,
          "time": 82.85706,
          "velocity": 0.7874015748031497
        },
        {
          "duration": 0.14285699999999224,
          "durationTicks": 48,
          "midi": 76,
          "name": "E5",
          "ticks": 27888,
          "time": 82.99991700000001,
          "velocity": 0.7874015748031497
        },
        {
          "duration": 0.2857139999999987,
          "durationTicks": 96,
          "midi": 79,
          "name": "G5",
          "ticks": 27936,
          "time": 83.142774,
          "velocity": 0.7952755905511811
        },
        {
          "duration": 1.142856000000009,
          "durationTicks": 384,
          "midi": 74,
          "name": "D5",
          "ticks": 28032,
          "time": 83.428488,
          "velocity": 0.7244094488188977
        },
        {
          "duration": 1.1041655625000004,
          "durationTicks": 371,
          "midi": 79,
          "name": "G5",
          "ticks": 28034,
          "time": 83.43444037500001,
          "velocity": 0.7874015748031497
        },
        {
          "duration": 1.1428559999999948,
          "durationTicks": 384,
          "midi": 78,
          "name": "F#5",
          "ticks": 28416,
          "time": 84.57134400000001,
          "velocity": 0.7244094488188977
        },
        {
          "duration": 1.1041655625000004,
          "durationTicks": 371,
          "midi": 81,
          "name": "A5",
          "ticks": 28417,
          "time": 84.5743201875,
          "velocity": 0.7795275590551181
        },
        {
          "duration": 1.1428559999999948,
          "durationTicks": 384,
          "midi": 84,
          "name": "C6",
          "ticks": 28800,
          "time": 85.7142,
          "velocity": 0.7874015748031497
        },
        {
          "duration": 1.1428559999999948,
          "durationTicks": 384,
          "midi": 81,
          "name": "A5",
          "ticks": 28800,
          "time": 85.7142,
          "velocity": 0.7244094488188977
        },
        {
          "duration": 1.142856000000009,
          "durationTicks": 384,
          "midi": 86,
          "name": "D6",
          "ticks": 29184,
          "time": 86.857056,
          "velocity": 0.7874015748031497
        },
        {
          "duration": 1.142856000000009,
          "durationTicks": 384,
          "midi": 81,
          "name": "A5",
          "ticks": 29184,
          "time": 86.857056,
          "velocity": 0.7244094488188977
        },
        {
          "duration": 0.09523799999999483,
          "durationTicks": 32,
          "midi": 62,
          "name": "D4",
          "ticks": 29616,
          "time": 88.142769,
          "velocity": 0.5748031496062992
        },
        {
          "duration": 0.09523799999999483,
          "durationTicks": 32,
          "midi": 62,
          "name": "D4",
          "ticks": 29664,
          "time": 88.28562600000001,
          "velocity": 0.5748031496062992
        },
        {
          "duration": 0.09523799999999483,
          "durationTicks": 32,
          "midi": 62,
          "name": "D4",
          "ticks": 29760,
          "time": 88.57134,
          "velocity": 0.5748031496062992
        },
        {
          "duration": 0.09523799999999483,
          "durationTicks": 32,
          "midi": 62,
          "name": "D4",
          "ticks": 29808,
          "time": 88.71419700000001,
          "velocity": 0.5748031496062992
        },
        {
          "duration": 0.09523799999999483,
          "durationTicks": 32,
          "midi": 62,
          "name": "D4",
          "ticks": 29904,
          "time": 88.99991100000001,
          "velocity": 0.5748031496062992
        },
        {
          "duration": 0.09523799999999483,
          "durationTicks": 32,
          "midi": 62,
          "name": "D4",
          "ticks": 29952,
          "time": 89.142768,
          "velocity": 0.5748031496062992
        },
        {
          "duration": 0.09523799999999483,
          "durationTicks": 32,
          "midi": 62,
          "name": "D4",
          "ticks": 30048,
          "time": 89.428482,
          "velocity": 0.5748031496062992
        },
        {
          "duration": 0.09523799999999483,
          "durationTicks": 32,
          "midi": 62,
          "name": "D4",
          "ticks": 30096,
          "time": 89.57133900000001,
          "velocity": 0.5748031496062992
        },
        {
          "duration": 0.09523799999999483,
          "durationTicks": 32,
          "midi": 62,
          "name": "D4",
          "ticks": 30192,
          "time": 89.85705300000001,
          "velocity": 0.5748031496062992
        },
        {
          "duration": 0.09523799999999483,
          "durationTicks": 32,
          "midi": 62,
          "name": "D4",
          "ticks": 30288,
          "time": 90.142767,
          "velocity": 0.5748031496062992
        },
        {
          "duration": 0.09523799999999483,
          "durationTicks": 32,
          "midi": 62,
          "name": "D4",
          "ticks": 30384,
          "time": 90.428481,
          "velocity": 0.5748031496062992
        },
        {
          "duration": 0.09523799999999483,
          "durationTicks": 32,
          "midi": 62,
          "name": "D4",
          "ticks": 30432,
          "time": 90.57133800000001,
          "velocity": 0.5748031496062992
        },
        {
          "duration": 0.09523799999999483,
          "durationTicks": 32,
          "midi": 62,
          "name": "D4",
          "ticks": 30528,
          "time": 90.85705200000001,
          "velocity": 0.5748031496062992
        },
        {
          "duration": 0.09523799999999483,
          "durationTicks": 32,
          "midi": 62,
          "name": "D4",
          "ticks": 30576,
          "time": 90.999909,
          "velocity": 0.5748031496062992
        },
        {
          "duration": 0.09523799999999483,
          "durationTicks": 32,
          "midi": 62,
          "name": "D4",
          "ticks": 30672,
          "time": 91.285623,
          "velocity": 0.5748031496062992
        },
        {
          "duration": 0.09523799999999483,
          "durationTicks": 32,
          "midi": 62,
          "name": "D4",
          "ticks": 30720,
          "time": 91.42848000000001,
          "velocity": 0.5748031496062992
        },
        {
          "duration": 0.09523799999999483,
          "durationTicks": 32,
          "midi": 62,
          "name": "D4",
          "ticks": 30816,
          "time": 91.714194,
          "velocity": 0.5748031496062992
        },
        {
          "duration": 0.09523799999999483,
          "durationTicks": 32,
          "midi": 62,
          "name": "D4",
          "ticks": 30864,
          "time": 91.85705100000001,
          "velocity": 0.5748031496062992
        },
        {
          "duration": 0.09523799999999483,
          "durationTicks": 32,
          "midi": 62,
          "name": "D4",
          "ticks": 30960,
          "time": 92.14276500000001,
          "velocity": 0.5748031496062992
        },
        {
          "duration": 0.09523799999999483,
          "durationTicks": 32,
          "midi": 62,
          "name": "D4",
          "ticks": 31056,
          "time": 92.42847900000001,
          "velocity": 0.5748031496062992
        },
        {
          "duration": 0.05654756250000048,
          "durationTicks": 19,
          "midi": 67,
          "name": "G4",
          "ticks": 32736,
          "time": 97.42847400000001,
          "velocity": 0.7165354330708661
        },
        {
          "duration": 0.05654756250001469,
          "durationTicks": 19,
          "midi": 67,
          "name": "G4",
          "ticks": 32760,
          "time": 97.4999025,
          "velocity": 0.7165354330708661
        },
        {
          "duration": 0.1279760624999966,
          "durationTicks": 43,
          "midi": 67,
          "name": "G4",
          "ticks": 32784,
          "time": 97.57133100000001,
          "velocity": 0.7165354330708661
        },
        {
          "duration": 0.1279760625000108,
          "durationTicks": 43,
          "midi": 67,
          "name": "G4",
          "ticks": 32832,
          "time": 97.71418800000001,
          "velocity": 0.7165354330708661
        },
        {
          "duration": 0.05654756250000048,
          "durationTicks": 19,
          "midi": 67,
          "name": "G4",
          "ticks": 32880,
          "time": 97.85704500000001,
          "velocity": 0.7165354330708661
        },
        {
          "duration": 0.05654756250000048,
          "durationTicks": 19,
          "midi": 67,
          "name": "G4",
          "ticks": 32904,
          "time": 97.92847350000001,
          "velocity": 0.7165354330708661
        },
        {
          "duration": 0.05654756250000048,
          "durationTicks": 19,
          "midi": 67,
          "name": "G4",
          "ticks": 32976,
          "time": 98.14275900000001,
          "velocity": 0.7165354330708661
        },
        {
          "duration": 0.05654756250000048,
          "durationTicks": 19,
          "midi": 67,
          "name": "G4",
          "ticks": 33000,
          "time": 98.21418750000001,
          "velocity": 0.7165354330708661
        },
        {
          "duration": 0.05654756250001469,
          "durationTicks": 19,
          "midi": 69,
          "name": "A4",
          "ticks": 33120,
          "time": 98.57133,
          "velocity": 0.7165354330708661
        },
        {
          "duration": 0.05654756250000048,
          "durationTicks": 19,
          "midi": 69,
          "name": "A4",
          "ticks": 33144,
          "time": 98.64275850000001,
          "velocity": 0.7165354330708661
        },
        {
          "duration": 0.1279760625000108,
          "durationTicks": 43,
          "midi": 69,
          "name": "A4",
          "ticks": 33216,
          "time": 98.857044,
          "velocity": 0.7165354330708661
        },
        {
          "duration": 0.05654756250000048,
          "durationTicks": 19,
          "midi": 69,
          "name": "A4",
          "ticks": 33264,
          "time": 98.99990100000001,
          "velocity": 0.7165354330708661
        },
        {
          "duration": 0.05654756250001469,
          "durationTicks": 19,
          "midi": 69,
          "name": "A4",
          "ticks": 33288,
          "time": 99.0713295,
          "velocity": 0.7165354330708661
        },
        {
          "duration": 0.05654756250000048,
          "durationTicks": 19,
          "midi": 69,
          "name": "A4",
          "ticks": 33360,
          "time": 99.285615,
          "velocity": 0.7165354330708661
        },
        {
          "duration": 0.05654756250001469,
          "durationTicks": 19,
          "midi": 69,
          "name": "A4",
          "ticks": 33384,
          "time": 99.3570435,
          "velocity": 0.7165354330708661
        },
        {
          "duration": 0.05654756250000048,
          "durationTicks": 19,
          "midi": 71,
          "name": "B4",
          "ticks": 33504,
          "time": 99.71418600000001,
          "velocity": 0.7165354330708661
        },
        {
          "duration": 0.05654756250000048,
          "durationTicks": 19,
          "midi": 71,
          "name": "B4",
          "ticks": 33528,
          "time": 99.78561450000001,
          "velocity": 0.7165354330708661
        },
        {
          "duration": 0.1279760624999966,
          "durationTicks": 43,
          "midi": 71,
          "name": "B4",
          "ticks": 33600,
          "time": 99.99990000000001,
          "velocity": 0.7165354330708661
        },
        {
          "duration": 0.05654756250001469,
          "durationTicks": 19,
          "midi": 71,
          "name": "B4",
          "ticks": 33648,
          "time": 100.142757,
          "velocity": 0.7165354330708661
        },
        {
          "duration": 0.05654756250000048,
          "durationTicks": 19,
          "midi": 71,
          "name": "B4",
          "ticks": 33672,
          "time": 100.21418550000001,
          "velocity": 0.7165354330708661
        },
        {
          "duration": 0.1279760625000108,
          "durationTicks": 43,
          "midi": 71,
          "name": "B4",
          "ticks": 33696,
          "time": 100.28561400000001,
          "velocity": 0.7165354330708661
        },
        {
          "duration": 0.05654756250001469,
          "durationTicks": 19,
          "midi": 71,
          "name": "B4",
          "ticks": 33744,
          "time": 100.428471,
          "velocity": 0.7165354330708661
        },
        {
          "duration": 0.05654756250000048,
          "durationTicks": 19,
          "midi": 71,
          "name": "B4",
          "ticks": 33768,
          "time": 100.49989950000001,
          "velocity": 0.7165354330708661
        },
        {
          "duration": 0.05654756250000048,
          "durationTicks": 19,
          "midi": 72,
          "name": "C5",
          "ticks": 33888,
          "time": 100.857042,
          "velocity": 0.7165354330708661
        },
        {
          "duration": 0.05654756250001469,
          "durationTicks": 19,
          "midi": 72,
          "name": "C5",
          "ticks": 33912,
          "time": 100.9284705,
          "velocity": 0.7165354330708661
        },
        {
          "duration": 0.1279760625000108,
          "durationTicks": 43,
          "midi": 72,
          "name": "C5",
          "ticks": 33984,
          "time": 101.142756,
          "velocity": 0.7165354330708661
        },
        {
          "duration": 0.05654756250000048,
          "durationTicks": 19,
          "midi": 72,
          "name": "C5",
          "ticks": 34032,
          "time": 101.28561300000001,
          "velocity": 0.7165354330708661
        },
        {
          "duration": 0.05654756250000048,
          "durationTicks": 19,
          "midi": 72,
          "name": "C5",
          "ticks": 34056,
          "time": 101.35704150000001,
          "velocity": 0.7165354330708661
        },
        {
          "duration": 0.05654756250000048,
          "durationTicks": 19,
          "midi": 72,
          "name": "C5",
          "ticks": 34128,
          "time": 101.57132700000001,
          "velocity": 0.7165354330708661
        },
        {
          "duration": 0.05654756250000048,
          "durationTicks": 19,
          "midi": 72,
          "name": "C5",
          "ticks": 34152,
          "time": 101.6427555,
          "velocity": 0.7165354330708661
        },
        {
          "duration": 0.27083306250001726,
          "durationTicks": 91,
          "midi": 72,
          "name": "C5",
          "ticks": 34176,
          "time": 101.714184,
          "velocity": 0.7165354330708661
        },
        {
          "duration": 0.05654756250001469,
          "durationTicks": 19,
          "midi": 72,
          "name": "C5",
          "ticks": 34272,
          "time": 101.999898,
          "velocity": 0.7165354330708661
        },
        {
          "duration": 0.05654756250000048,
          "durationTicks": 19,
          "midi": 72,
          "name": "C5",
          "ticks": 34296,
          "time": 102.07132650000001,
          "velocity": 0.7165354330708661
        },
        {
          "duration": 0.1279760624999966,
          "durationTicks": 43,
          "midi": 72,
          "name": "C5",
          "ticks": 34368,
          "time": 102.28561200000001,
          "velocity": 0.7165354330708661
        },
        {
          "duration": 0.05654756250000048,
          "durationTicks": 19,
          "midi": 72,
          "name": "C5",
          "ticks": 34416,
          "time": 102.428469,
          "velocity": 0.7165354330708661
        },
        {
          "duration": 0.05654756250001469,
          "durationTicks": 19,
          "midi": 72,
          "name": "C5",
          "ticks": 34440,
          "time": 102.4998975,
          "velocity": 0.7165354330708661
        },
        {
          "duration": 0.1279760624999966,
          "durationTicks": 43,
          "midi": 72,
          "name": "C5",
          "ticks": 34464,
          "time": 102.57132600000001,
          "velocity": 0.7165354330708661
        },
        {
          "duration": 0.05654756250001469,
          "durationTicks": 19,
          "midi": 72,
          "name": "C5",
          "ticks": 34512,
          "time": 102.714183,
          "velocity": 0.7165354330708661
        },
        {
          "duration": 0.05654756250001469,
          "durationTicks": 19,
          "midi": 72,
          "name": "C5",
          "ticks": 34536,
          "time": 102.7856115,
          "velocity": 0.7165354330708661
        },
        {
          "duration": 0.05654756250000048,
          "durationTicks": 19,
          "midi": 70,
          "name": "A#4",
          "ticks": 34656,
          "time": 103.14275400000001,
          "velocity": 0.7165354330708661
        },
        {
          "duration": 0.05654756250000048,
          "durationTicks": 19,
          "midi": 70,
          "name": "A#4",
          "ticks": 34680,
          "time": 103.2141825,
          "velocity": 0.7165354330708661
        },
        {
          "duration": 0.1279760625000108,
          "durationTicks": 43,
          "midi": 70,
          "name": "A#4",
          "ticks": 34704,
          "time": 103.285611,
          "velocity": 0.7165354330708661
        },
        {
          "duration": 0.1279760625000108,
          "durationTicks": 43,
          "midi": 70,
          "name": "A#4",
          "ticks": 34752,
          "time": 103.42846800000001,
          "velocity": 0.7165354330708661
        },
        {
          "duration": 0.05654756250001469,
          "durationTicks": 19,
          "midi": 70,
          "name": "A#4",
          "ticks": 34800,
          "time": 103.571325,
          "velocity": 0.7165354330708661
        },
        {
          "duration": 0.05654756250000048,
          "durationTicks": 19,
          "midi": 70,
          "name": "A#4",
          "ticks": 34824,
          "time": 103.64275350000001,
          "velocity": 0.7165354330708661
        },
        {
          "duration": 0.1279760625000108,
          "durationTicks": 43,
          "midi": 70,
          "name": "A#4",
          "ticks": 34848,
          "time": 103.71418200000001,
          "velocity": 0.7165354330708661
        },
        {
          "duration": 0.05654756250000048,
          "durationTicks": 19,
          "midi": 70,
          "name": "A#4",
          "ticks": 34896,
          "time": 103.85703900000001,
          "velocity": 0.7165354330708661
        },
        {
          "duration": 0.05654756250000048,
          "durationTicks": 19,
          "midi": 70,
          "name": "A#4",
          "ticks": 34920,
          "time": 103.92846750000001,
          "velocity": 0.7165354330708661
        },
        {
          "duration": 0.05654756250001469,
          "durationTicks": 19,
          "midi": 69,
          "name": "A4",
          "ticks": 35040,
          "time": 104.28561,
          "velocity": 0.7165354330708661
        },
        {
          "duration": 0.05654756250001469,
          "durationTicks": 19,
          "midi": 69,
          "name": "A4",
          "ticks": 35064,
          "time": 104.3570385,
          "velocity": 0.7165354330708661
        },
        {
          "duration": 0.1279760625000108,
          "durationTicks": 43,
          "midi": 69,
          "name": "A4",
          "ticks": 35136,
          "time": 104.571324,
          "velocity": 0.7165354330708661
        },
        {
          "duration": 0.05654756250000048,
          "durationTicks": 19,
          "midi": 69,
          "name": "A4",
          "ticks": 35184,
          "time": 104.71418100000001,
          "velocity": 0.7165354330708661
        },
        {
          "duration": 0.05654756250000048,
          "durationTicks": 19,
          "midi": 69,
          "name": "A4",
          "ticks": 35208,
          "time": 104.7856095,
          "velocity": 0.7165354330708661
        },
        {
          "duration": 0.05654756250000048,
          "durationTicks": 19,
          "midi": 69,
          "name": "A4",
          "ticks": 35280,
          "time": 104.99989500000001,
          "velocity": 0.7165354330708661
        },
        {
          "duration": 0.05654756250001469,
          "durationTicks": 19,
          "midi": 69,
          "name": "A4",
          "ticks": 35304,
          "time": 105.0713235,
          "velocity": 0.7165354330708661
        },
        {
          "duration": 0.27083306250001726,
          "durationTicks": 91,
          "midi": 66,
          "name": "F#4",
          "ticks": 35328,
          "time": 105.142752,
          "velocity": 0.7165354330708661
        },
        {
          "duration": 0.05654756250000048,
          "durationTicks": 19,
          "midi": 66,
          "name": "F#4",
          "ticks": 35424,
          "time": 105.42846600000001,
          "velocity": 0.7165354330708661
        },
        {
          "duration": 0.05654756250000048,
          "durationTicks": 19,
          "midi": 66,
          "name": "F#4",
          "ticks": 35448,
          "time": 105.49989450000001,
          "velocity": 0.7165354330708661
        },
        {
          "duration": 0.1279760625000108,
          "durationTicks": 43,
          "midi": 66,
          "name": "F#4",
          "ticks": 35472,
          "time": 105.571323,
          "velocity": 0.7165354330708661
        },
        {
          "duration": 0.1279760624999966,
          "durationTicks": 43,
          "midi": 66,
          "name": "F#4",
          "ticks": 35520,
          "time": 105.71418000000001,
          "velocity": 0.7165354330708661
        },
        {
          "duration": 0.05654756250001469,
          "durationTicks": 19,
          "midi": 66,
          "name": "F#4",
          "ticks": 35568,
          "time": 105.857037,
          "velocity": 0.7165354330708661
        },
        {
          "duration": 0.05654756250000048,
          "durationTicks": 19,
          "midi": 66,
          "name": "F#4",
          "ticks": 35592,
          "time": 105.92846550000002,
          "velocity": 0.7165354330708661
        },
        {
          "duration": 0.1279760624999966,
          "durationTicks": 43,
          "midi": 66,
          "name": "F#4",
          "ticks": 35616,
          "time": 105.99989400000001,
          "velocity": 0.7165354330708661
        },
        {
          "duration": 0.05654756250001469,
          "durationTicks": 19,
          "midi": 66,
          "name": "F#4",
          "ticks": 35664,
          "time": 106.142751,
          "velocity": 0.7165354330708661
        },
        {
          "duration": 0.05654756250000048,
          "durationTicks": 19,
          "midi": 66,
          "name": "F#4",
          "ticks": 35688,
          "time": 106.21417950000001,
          "velocity": 0.7165354330708661
        },
        {
          "duration": 0.05654756250000048,
          "durationTicks": 19,
          "midi": 67,
          "name": "G4",
          "ticks": 35808,
          "time": 106.57132200000001,
          "velocity": 0.7165354330708661
        },
        {
          "duration": 0.05654756250001469,
          "durationTicks": 19,
          "midi": 67,
          "name": "G4",
          "ticks": 35832,
          "time": 106.6427505,
          "velocity": 0.7165354330708661
        },
        {
          "duration": 0.1279760624999966,
          "durationTicks": 43,
          "midi": 67,
          "name": "G4",
          "ticks": 35856,
          "time": 106.71417900000002,
          "velocity": 0.7165354330708661
        },
        {
          "duration": 0.1279760625000108,
          "durationTicks": 43,
          "midi": 67,
          "name": "G4",
          "ticks": 35904,
          "time": 106.85703600000001,
          "velocity": 0.7165354330708661
        },
        {
          "duration": 0.05654756250000048,
          "durationTicks": 19,
          "midi": 67,
          "name": "G4",
          "ticks": 35952,
          "time": 106.99989300000001,
          "velocity": 0.7165354330708661
        },
        {
          "duration": 0.05654756250000048,
          "durationTicks": 19,
          "midi": 67,
          "name": "G4",
          "ticks": 35976,
          "time": 107.07132150000001,
          "velocity": 0.7165354330708661
        },
        {
          "duration": 0.05654756250000048,
          "durationTicks": 19,
          "midi": 67,
          "name": "G4",
          "ticks": 36048,
          "time": 107.28560700000001,
          "velocity": 0.7165354330708661
        },
        {
          "duration": 0.05654756250000048,
          "durationTicks": 19,
          "midi": 67,
          "name": "G4",
          "ticks": 36072,
          "time": 107.35703550000001,
          "velocity": 0.7165354330708661
        },
        {
          "duration": 0.05654756250001469,
          "durationTicks": 19,
          "midi": 69,
          "name": "A4",
          "ticks": 36192,
          "time": 107.714178,
          "velocity": 0.7165354330708661
        },
        {
          "duration": 0.05654756250000048,
          "durationTicks": 19,
          "midi": 69,
          "name": "A4",
          "ticks": 36216,
          "time": 107.78560650000001,
          "velocity": 0.7165354330708661
        },
        {
          "duration": 0.1279760625000108,
          "durationTicks": 43,
          "midi": 69,
          "name": "A4",
          "ticks": 36288,
          "time": 107.999892,
          "velocity": 0.7165354330708661
        },
        {
          "duration": 0.05654756250000048,
          "durationTicks": 19,
          "midi": 69,
          "name": "A4",
          "ticks": 36336,
          "time": 108.14274900000001,
          "velocity": 0.7165354330708661
        },
        {
          "duration": 0.05654756250001469,
          "durationTicks": 19,
          "midi": 69,
          "name": "A4",
          "ticks": 36360,
          "time": 108.2141775,
          "velocity": 0.7165354330708661
        },
        {
          "duration": 0.1279760624999966,
          "durationTicks": 43,
          "midi": 69,
          "name": "A4",
          "ticks": 36384,
          "time": 108.28560600000002,
          "velocity": 0.7165354330708661
        },
        {
          "duration": 0.05654756250000048,
          "durationTicks": 19,
          "midi": 69,
          "name": "A4",
          "ticks": 36432,
          "time": 108.42846300000001,
          "velocity": 0.7165354330708661
        },
        {
          "duration": 0.05654756250001469,
          "durationTicks": 19,
          "midi": 69,
          "name": "A4",
          "ticks": 36456,
          "time": 108.4998915,
          "velocity": 0.7165354330708661
        },
        {
          "duration": 0.05654756250000048,
          "durationTicks": 19,
          "midi": 71,
          "name": "B4",
          "ticks": 36576,
          "time": 108.85703400000001,
          "velocity": 0.7165354330708661
        },
        {
          "duration": 0.05654756250000048,
          "durationTicks": 19,
          "midi": 71,
          "name": "B4",
          "ticks": 36600,
          "time": 108.92846250000001,
          "velocity": 0.7165354330708661
        },
        {
          "duration": 0.1279760624999966,
          "durationTicks": 43,
          "midi": 71,
          "name": "B4",
          "ticks": 36672,
          "time": 109.14274800000001,
          "velocity": 0.7165354330708661
        },
        {
          "duration": 0.05654756250001469,
          "durationTicks": 19,
          "midi": 71,
          "name": "B4",
          "ticks": 36720,
          "time": 109.285605,
          "velocity": 0.7165354330708661
        },
        {
          "duration": 0.05654756250000048,
          "durationTicks": 19,
          "midi": 71,
          "name": "B4",
          "ticks": 36744,
          "time": 109.35703350000001,
          "velocity": 0.7165354330708661
        },
        {
          "duration": 0.1279760625000108,
          "durationTicks": 43,
          "midi": 71,
          "name": "B4",
          "ticks": 36768,
          "time": 109.42846200000001,
          "velocity": 0.7165354330708661
        },
        {
          "duration": 0.05654756250001469,
          "durationTicks": 19,
          "midi": 71,
          "name": "B4",
          "ticks": 36816,
          "time": 109.571319,
          "velocity": 0.7165354330708661
        },
        {
          "duration": 0.05654756250000048,
          "durationTicks": 19,
          "midi": 71,
          "name": "B4",
          "ticks": 36840,
          "time": 109.64274750000001,
          "velocity": 0.7165354330708661
        },
        {
          "duration": 0.05654756250000048,
          "durationTicks": 19,
          "midi": 72,
          "name": "C5",
          "ticks": 36960,
          "time": 109.99989000000001,
          "velocity": 0.7165354330708661
        },
        {
          "duration": 0.05654756250001469,
          "durationTicks": 19,
          "midi": 72,
          "name": "C5",
          "ticks": 36984,
          "time": 110.0713185,
          "velocity": 0.7165354330708661
        },
        {
          "duration": 0.1279760625000108,
          "durationTicks": 43,
          "midi": 72,
          "name": "C5",
          "ticks": 37056,
          "time": 110.285604,
          "velocity": 0.7165354330708661
        },
        {
          "duration": 0.05654756250000048,
          "durationTicks": 19,
          "midi": 72,
          "name": "C5",
          "ticks": 37104,
          "time": 110.42846100000001,
          "velocity": 0.7165354330708661
        },
        {
          "duration": 0.05654756250000048,
          "durationTicks": 19,
          "midi": 72,
          "name": "C5",
          "ticks": 37128,
          "time": 110.49988950000001,
          "velocity": 0.7165354330708661
        },
        {
          "duration": 0.05654756250000048,
          "durationTicks": 19,
          "midi": 72,
          "name": "C5",
          "ticks": 37200,
          "time": 110.71417500000001,
          "velocity": 0.7165354330708661
        },
        {
          "duration": 0.05654756250000048,
          "durationTicks": 19,
          "midi": 72,
          "name": "C5",
          "ticks": 37224,
          "time": 110.78560350000001,
          "velocity": 0.7165354330708661
        },
        {
          "duration": 0.27083306250001726,
          "durationTicks": 91,
          "midi": 72,
          "name": "C5",
          "ticks": 37248,
          "time": 110.857032,
          "velocity": 0.7165354330708661
        },
        {
          "duration": 0.05654756250001469,
          "durationTicks": 19,
          "midi": 72,
          "name": "C5",
          "ticks": 37344,
          "time": 111.142746,
          "velocity": 0.7165354330708661
        },
        {
          "duration": 0.05654756250000048,
          "durationTicks": 19,
          "midi": 72,
          "name": "C5",
          "ticks": 37368,
          "time": 111.21417450000001,
          "velocity": 0.7165354330708661
        },
        {
          "duration": 0.1279760625000108,
          "durationTicks": 43,
          "midi": 72,
          "name": "C5",
          "ticks": 37392,
          "time": 111.28560300000001,
          "velocity": 0.7165354330708661
        },
        {
          "duration": 0.1279760624999966,
          "durationTicks": 43,
          "midi": 72,
          "name": "C5",
          "ticks": 37440,
          "time": 111.42846000000002,
          "velocity": 0.7165354330708661
        },
        {
          "duration": 0.05654756250000048,
          "durationTicks": 19,
          "midi": 72,
          "name": "C5",
          "ticks": 37488,
          "time": 111.57131700000001,
          "velocity": 0.7165354330708661
        },
        {
          "duration": 0.05654756250001469,
          "durationTicks": 19,
          "midi": 72,
          "name": "C5",
          "ticks": 37512,
          "time": 111.6427455,
          "velocity": 0.7165354330708661
        },
        {
          "duration": 0.1279760624999966,
          "durationTicks": 43,
          "midi": 72,
          "name": "C5",
          "ticks": 37536,
          "time": 111.71417400000001,
          "velocity": 0.7165354330708661
        },
        {
          "duration": 0.05654756250001469,
          "durationTicks": 19,
          "midi": 72,
          "name": "C5",
          "ticks": 37584,
          "time": 111.857031,
          "velocity": 0.7165354330708661
        },
        {
          "duration": 0.05654756250001469,
          "durationTicks": 19,
          "midi": 72,
          "name": "C5",
          "ticks": 37608,
          "time": 111.9284595,
          "velocity": 0.7165354330708661
        },
        {
          "duration": 0.05654756250000048,
          "durationTicks": 19,
          "midi": 70,
          "name": "A#4",
          "ticks": 37728,
          "time": 112.28560200000001,
          "velocity": 0.7165354330708661
        },
        {
          "duration": 0.05654756250000048,
          "durationTicks": 19,
          "midi": 70,
          "name": "A#4",
          "ticks": 37752,
          "time": 112.35703050000001,
          "velocity": 0.7165354330708661
        },
        {
          "duration": 0.1279760625000108,
          "durationTicks": 43,
          "midi": 70,
          "name": "A#4",
          "ticks": 37776,
          "time": 112.428459,
          "velocity": 0.7165354330708661
        },
        {
          "duration": 0.1279760625000108,
          "durationTicks": 43,
          "midi": 70,
          "name": "A#4",
          "ticks": 37824,
          "time": 112.57131600000001,
          "velocity": 0.7165354330708661
        },
        {
          "duration": 0.05654756250001469,
          "durationTicks": 19,
          "midi": 70,
          "name": "A#4",
          "ticks": 37872,
          "time": 112.714173,
          "velocity": 0.7165354330708661
        },
        {
          "duration": 0.05654756250000048,
          "durationTicks": 19,
          "midi": 70,
          "name": "A#4",
          "ticks": 37896,
          "time": 112.78560150000001,
          "velocity": 0.7165354330708661
        },
        {
          "duration": 0.1279760625000108,
          "durationTicks": 43,
          "midi": 70,
          "name": "A#4",
          "ticks": 37920,
          "time": 112.85703000000001,
          "velocity": 0.7165354330708661
        },
        {
          "duration": 0.05654756250000048,
          "durationTicks": 19,
          "midi": 70,
          "name": "A#4",
          "ticks": 37968,
          "time": 112.99988700000002,
          "velocity": 0.7165354330708661
        },
        {
          "duration": 0.05654756250000048,
          "durationTicks": 19,
          "midi": 70,
          "name": "A#4",
          "ticks": 37992,
          "time": 113.07131550000001,
          "velocity": 0.7165354330708661
        },
        {
          "duration": 0.05654756250001469,
          "durationTicks": 19,
          "midi": 69,
          "name": "A4",
          "ticks": 38112,
          "time": 113.428458,
          "velocity": 0.7165354330708661
        },
        {
          "duration": 0.05654756250001469,
          "durationTicks": 19,
          "midi": 69,
          "name": "A4",
          "ticks": 38136,
          "time": 113.4998865,
          "velocity": 0.7165354330708661
        },
        {
          "duration": 0.1279760625000108,
          "durationTicks": 43,
          "midi": 69,
          "name": "A4",
          "ticks": 38208,
          "time": 113.714172,
          "velocity": 0.7165354330708661
        },
        {
          "duration": 0.05654756250000048,
          "durationTicks": 19,
          "midi": 69,
          "name": "A4",
          "ticks": 38256,
          "time": 113.85702900000001,
          "velocity": 0.7165354330708661
        },
        {
          "duration": 0.05654756250000048,
          "durationTicks": 19,
          "midi": 69,
          "name": "A4",
          "ticks": 38280,
          "time": 113.92845750000001,
          "velocity": 0.7165354330708661
        },
        {
          "duration": 0.05654756250000048,
          "durationTicks": 19,
          "midi": 69,
          "name": "A4",
          "ticks": 38352,
          "time": 114.14274300000001,
          "velocity": 0.7165354330708661
        },
        {
          "duration": 0.05654756250001469,
          "durationTicks": 19,
          "midi": 69,
          "name": "A4",
          "ticks": 38376,
          "time": 114.2141715,
          "velocity": 0.7165354330708661
        },
        {
          "duration": 0.05654756250000048,
          "durationTicks": 19,
          "midi": 67,
          "name": "G4",
          "ticks": 38880,
          "time": 115.71417000000001,
          "velocity": 0.7165354330708661
        },
        {
          "duration": 0.05654756250001469,
          "durationTicks": 19,
          "midi": 67,
          "name": "G4",
          "ticks": 38904,
          "time": 115.7855985,
          "velocity": 0.7165354330708661
        },
        {
          "duration": 0.1279760624999966,
          "durationTicks": 43,
          "midi": 67,
          "name": "G4",
          "ticks": 38928,
          "time": 115.85702700000002,
          "velocity": 0.7165354330708661
        },
        {
          "duration": 0.1279760625000108,
          "durationTicks": 43,
          "midi": 67,
          "name": "G4",
          "ticks": 38976,
          "time": 115.99988400000001,
          "velocity": 0.7165354330708661
        },
        {
          "duration": 0.05654756250000048,
          "durationTicks": 19,
          "midi": 67,
          "name": "G4",
          "ticks": 39024,
          "time": 116.14274100000002,
          "velocity": 0.7165354330708661
        },
        {
          "duration": 0.05654756250000048,
          "durationTicks": 19,
          "midi": 67,
          "name": "G4",
          "ticks": 39048,
          "time": 116.21416950000001,
          "velocity": 0.7165354330708661
        },
        {
          "duration": 0.05654756250000048,
          "durationTicks": 19,
          "midi": 67,
          "name": "G4",
          "ticks": 39120,
          "time": 116.42845500000001,
          "velocity": 0.7165354330708661
        },
        {
          "duration": 0.05654756250000048,
          "durationTicks": 19,
          "midi": 67,
          "name": "G4",
          "ticks": 39144,
          "time": 116.49988350000001,
          "velocity": 0.7165354330708661
        },
        {
          "duration": 0.05654756250001469,
          "durationTicks": 19,
          "midi": 69,
          "name": "A4",
          "ticks": 39264,
          "time": 116.857026,
          "velocity": 0.7165354330708661
        },
        {
          "duration": 0.05654756250000048,
          "durationTicks": 19,
          "midi": 69,
          "name": "A4",
          "ticks": 39288,
          "time": 116.92845450000002,
          "velocity": 0.7165354330708661
        },
        {
          "duration": 0.1279760625000108,
          "durationTicks": 43,
          "midi": 69,
          "name": "A4",
          "ticks": 39360,
          "time": 117.14274,
          "velocity": 0.7165354330708661
        },
        {
          "duration": 0.05654756250000048,
          "durationTicks": 19,
          "midi": 69,
          "name": "A4",
          "ticks": 39408,
          "time": 117.28559700000001,
          "velocity": 0.7165354330708661
        },
        {
          "duration": 0.05654756250001469,
          "durationTicks": 19,
          "midi": 69,
          "name": "A4",
          "ticks": 39432,
          "time": 117.3570255,
          "velocity": 0.7165354330708661
        },
        {
          "duration": 0.05654756250000048,
          "durationTicks": 19,
          "midi": 69,
          "name": "A4",
          "ticks": 39504,
          "time": 117.57131100000001,
          "velocity": 0.7165354330708661
        },
        {
          "duration": 0.05654756250001469,
          "durationTicks": 19,
          "midi": 69,
          "name": "A4",
          "ticks": 39528,
          "time": 117.6427395,
          "velocity": 0.7165354330708661
        },
        {
          "duration": 0.05654756250000048,
          "durationTicks": 19,
          "midi": 71,
          "name": "B4",
          "ticks": 39648,
          "time": 117.99988200000001,
          "velocity": 0.7165354330708661
        },
        {
          "duration": 0.05654756250000048,
          "durationTicks": 19,
          "midi": 71,
          "name": "B4",
          "ticks": 39672,
          "time": 118.07131050000001,
          "velocity": 0.7165354330708661
        },
        {
          "duration": 0.1279760624999966,
          "durationTicks": 43,
          "midi": 71,
          "name": "B4",
          "ticks": 39744,
          "time": 118.28559600000001,
          "velocity": 0.7165354330708661
        },
        {
          "duration": 0.05654756250001469,
          "durationTicks": 19,
          "midi": 71,
          "name": "B4",
          "ticks": 39792,
          "time": 118.428453,
          "velocity": 0.7165354330708661
        },
        {
          "duration": 0.05654756250000048,
          "durationTicks": 19,
          "midi": 71,
          "name": "B4",
          "ticks": 39816,
          "time": 118.49988150000001,
          "velocity": 0.7165354330708661
        },
        {
          "duration": 0.1279760625000108,
          "durationTicks": 43,
          "midi": 71,
          "name": "B4",
          "ticks": 39840,
          "time": 118.57131000000001,
          "velocity": 0.7165354330708661
        },
        {
          "duration": 0.05654756250001469,
          "durationTicks": 19,
          "midi": 71,
          "name": "B4",
          "ticks": 39888,
          "time": 118.714167,
          "velocity": 0.7165354330708661
        },
        {
          "duration": 0.05654756250000048,
          "durationTicks": 19,
          "midi": 71,
          "name": "B4",
          "ticks": 39912,
          "time": 118.78559550000001,
          "velocity": 0.7165354330708661
        },
        {
          "duration": 0.05654756250000048,
          "durationTicks": 19,
          "midi": 72,
          "name": "C5",
          "ticks": 40032,
          "time": 119.14273800000001,
          "velocity": 0.7165354330708661
        },
        {
          "duration": 0.05654756250001469,
          "durationTicks": 19,
          "midi": 72,
          "name": "C5",
          "ticks": 40056,
          "time": 119.2141665,
          "velocity": 0.7165354330708661
        },
        {
          "duration": 0.1279760625000108,
          "durationTicks": 43,
          "midi": 72,
          "name": "C5",
          "ticks": 40128,
          "time": 119.42845200000001,
          "velocity": 0.7165354330708661
        },
        {
          "duration": 0.05654756250000048,
          "durationTicks": 19,
          "midi": 72,
          "name": "C5",
          "ticks": 40176,
          "time": 119.57130900000001,
          "velocity": 0.7165354330708661
        },
        {
          "duration": 0.05654756250000048,
          "durationTicks": 19,
          "midi": 72,
          "name": "C5",
          "ticks": 40200,
          "time": 119.64273750000001,
          "velocity": 0.7165354330708661
        },
        {
          "duration": 0.05654756250000048,
          "durationTicks": 19,
          "midi": 72,
          "name": "C5",
          "ticks": 40272,
          "time": 119.85702300000001,
          "velocity": 0.7165354330708661
        },
        {
          "duration": 0.05654756250000048,
          "durationTicks": 19,
          "midi": 72,
          "name": "C5",
          "ticks": 40296,
          "time": 119.92845150000001,
          "velocity": 0.7165354330708661
        },
        {
          "duration": 0.27083306250001726,
          "durationTicks": 91,
          "midi": 72,
          "name": "C5",
          "ticks": 40320,
          "time": 119.99988,
          "velocity": 0.7165354330708661
        },
        {
          "duration": 0.05654756250001469,
          "durationTicks": 19,
          "midi": 72,
          "name": "C5",
          "ticks": 40416,
          "time": 120.285594,
          "velocity": 0.7165354330708661
        },
        {
          "duration": 0.05654756250000048,
          "durationTicks": 19,
          "midi": 72,
          "name": "C5",
          "ticks": 40440,
          "time": 120.35702250000001,
          "velocity": 0.7165354330708661
        },
        {
          "duration": 0.1279760624999966,
          "durationTicks": 43,
          "midi": 72,
          "name": "C5",
          "ticks": 40512,
          "time": 120.57130800000002,
          "velocity": 0.7165354330708661
        },
        {
          "duration": 0.05654756250000048,
          "durationTicks": 19,
          "midi": 72,
          "name": "C5",
          "ticks": 40560,
          "time": 120.71416500000001,
          "velocity": 0.7165354330708661
        },
        {
          "duration": 0.05654756250001469,
          "durationTicks": 19,
          "midi": 72,
          "name": "C5",
          "ticks": 40584,
          "time": 120.7855935,
          "velocity": 0.7165354330708661
        },
        {
          "duration": 0.1279760624999966,
          "durationTicks": 43,
          "midi": 72,
          "name": "C5",
          "ticks": 40608,
          "time": 120.85702200000001,
          "velocity": 0.7165354330708661
        },
        {
          "duration": 0.05654756250001469,
          "durationTicks": 19,
          "midi": 72,
          "name": "C5",
          "ticks": 40656,
          "time": 120.999879,
          "velocity": 0.7165354330708661
        },
        {
          "duration": 0.05654756250001469,
          "durationTicks": 19,
          "midi": 72,
          "name": "C5",
          "ticks": 40680,
          "time": 121.0713075,
          "velocity": 0.7165354330708661
        },
        {
          "duration": 0.05654756250000048,
          "durationTicks": 19,
          "midi": 70,
          "name": "A#4",
          "ticks": 40800,
          "time": 121.42845000000001,
          "velocity": 0.7165354330708661
        },
        {
          "duration": 0.05654756250000048,
          "durationTicks": 19,
          "midi": 70,
          "name": "A#4",
          "ticks": 40824,
          "time": 121.49987850000001,
          "velocity": 0.7165354330708661
        },
        {
          "duration": 0.1279760625000108,
          "durationTicks": 43,
          "midi": 70,
          "name": "A#4",
          "ticks": 40848,
          "time": 121.571307,
          "velocity": 0.7165354330708661
        },
        {
          "duration": 0.1279760625000108,
          "durationTicks": 43,
          "midi": 70,
          "name": "A#4",
          "ticks": 40896,
          "time": 121.71416400000001,
          "velocity": 0.7165354330708661
        },
        {
          "duration": 0.05654756250001469,
          "durationTicks": 19,
          "midi": 70,
          "name": "A#4",
          "ticks": 40944,
          "time": 121.857021,
          "velocity": 0.7165354330708661
        },
        {
          "duration": 0.05654756250000048,
          "durationTicks": 19,
          "midi": 70,
          "name": "A#4",
          "ticks": 40968,
          "time": 121.92844950000001,
          "velocity": 0.7165354330708661
        },
        {
          "duration": 0.1279760625000108,
          "durationTicks": 43,
          "midi": 70,
          "name": "A#4",
          "ticks": 40992,
          "time": 121.99987800000001,
          "velocity": 0.7165354330708661
        },
        {
          "duration": 0.05654756250000048,
          "durationTicks": 19,
          "midi": 70,
          "name": "A#4",
          "ticks": 41040,
          "time": 122.14273500000002,
          "velocity": 0.7165354330708661
        },
        {
          "duration": 0.05654756250000048,
          "durationTicks": 19,
          "midi": 70,
          "name": "A#4",
          "ticks": 41064,
          "time": 122.21416350000001,
          "velocity": 0.7165354330708661
        },
        {
          "duration": 0.05654756250001469,
          "durationTicks": 19,
          "midi": 69,
          "name": "A4",
          "ticks": 41184,
          "time": 122.571306,
          "velocity": 0.7165354330708661
        },
        {
          "duration": 0.05654756250001469,
          "durationTicks": 19,
          "midi": 69,
          "name": "A4",
          "ticks": 41208,
          "time": 122.6427345,
          "velocity": 0.7165354330708661
        },
        {
          "duration": 0.1279760625000108,
          "durationTicks": 43,
          "midi": 69,
          "name": "A4",
          "ticks": 41280,
          "time": 122.85702,
          "velocity": 0.7165354330708661
        },
        {
          "duration": 0.05654756250000048,
          "durationTicks": 19,
          "midi": 69,
          "name": "A4",
          "ticks": 41328,
          "time": 122.99987700000001,
          "velocity": 0.7165354330708661
        },
        {
          "duration": 0.05654756250000048,
          "durationTicks": 19,
          "midi": 69,
          "name": "A4",
          "ticks": 41352,
          "time": 123.07130550000001,
          "velocity": 0.7165354330708661
        },
        {
          "duration": 0.05654756250000048,
          "durationTicks": 19,
          "midi": 69,
          "name": "A4",
          "ticks": 41424,
          "time": 123.28559100000001,
          "velocity": 0.7165354330708661
        },
        {
          "duration": 0.05654756250001469,
          "durationTicks": 19,
          "midi": 69,
          "name": "A4",
          "ticks": 41448,
          "time": 123.3570195,
          "velocity": 0.7165354330708661
        },
        {
          "duration": 0.27083306250001726,
          "durationTicks": 91,
          "midi": 66,
          "name": "F#4",
          "ticks": 41472,
          "time": 123.428448,
          "velocity": 0.7165354330708661
        },
        {
          "duration": 0.05654756250000048,
          "durationTicks": 19,
          "midi": 66,
          "name": "F#4",
          "ticks": 41568,
          "time": 123.71416200000002,
          "velocity": 0.7165354330708661
        },
        {
          "duration": 0.05654756250000048,
          "durationTicks": 19,
          "midi": 66,
          "name": "F#4",
          "ticks": 41592,
          "time": 123.78559050000001,
          "velocity": 0.7165354330708661
        },
        {
          "duration": 0.1279760625000108,
          "durationTicks": 43,
          "midi": 66,
          "name": "F#4",
          "ticks": 41616,
          "time": 123.85701900000001,
          "velocity": 0.7165354330708661
        },
        {
          "duration": 0.1279760624999966,
          "durationTicks": 43,
          "midi": 66,
          "name": "F#4",
          "ticks": 41664,
          "time": 123.99987600000001,
          "velocity": 0.7165354330708661
        },
        {
          "duration": 0.05654756250001469,
          "durationTicks": 19,
          "midi": 66,
          "name": "F#4",
          "ticks": 41712,
          "time": 124.142733,
          "velocity": 0.7165354330708661
        },
        {
          "duration": 0.05654756250000048,
          "durationTicks": 19,
          "midi": 66,
          "name": "F#4",
          "ticks": 41736,
          "time": 124.21416150000002,
          "velocity": 0.7165354330708661
        },
        {
          "duration": 0.1279760624999966,
          "durationTicks": 43,
          "midi": 66,
          "name": "F#4",
          "ticks": 41760,
          "time": 124.28559000000001,
          "velocity": 0.7165354330708661
        },
        {
          "duration": 0.05654756250001469,
          "durationTicks": 19,
          "midi": 66,
          "name": "F#4",
          "ticks": 41808,
          "time": 124.428447,
          "velocity": 0.7165354330708661
        },
        {
          "duration": 0.05654756250000048,
          "durationTicks": 19,
          "midi": 66,
          "name": "F#4",
          "ticks": 41832,
          "time": 124.49987550000002,
          "velocity": 0.7165354330708661
        },
        {
          "duration": 0.05654756250000048,
          "durationTicks": 19,
          "midi": 67,
          "name": "G4",
          "ticks": 41952,
          "time": 124.85701800000001,
          "velocity": 0.7165354330708661
        },
        {
          "duration": 0.05654756250001469,
          "durationTicks": 19,
          "midi": 67,
          "name": "G4",
          "ticks": 41976,
          "time": 124.9284465,
          "velocity": 0.7165354330708661
        },
        {
          "duration": 0.1279760624999966,
          "durationTicks": 43,
          "midi": 67,
          "name": "G4",
          "ticks": 42000,
          "time": 124.99987500000002,
          "velocity": 0.7165354330708661
        },
        {
          "duration": 0.1279760625000108,
          "durationTicks": 43,
          "midi": 67,
          "name": "G4",
          "ticks": 42048,
          "time": 125.14273200000001,
          "velocity": 0.7165354330708661
        },
        {
          "duration": 0.05654756250000048,
          "durationTicks": 19,
          "midi": 67,
          "name": "G4",
          "ticks": 42096,
          "time": 125.28558900000002,
          "velocity": 0.7165354330708661
        },
        {
          "duration": 0.05654756250000048,
          "durationTicks": 19,
          "midi": 67,
          "name": "G4",
          "ticks": 42120,
          "time": 125.35701750000001,
          "velocity": 0.7165354330708661
        },
        {
          "duration": 0.05654756250000048,
          "durationTicks": 19,
          "midi": 67,
          "name": "G4",
          "ticks": 42192,
          "time": 125.57130300000001,
          "velocity": 0.7165354330708661
        },
        {
          "duration": 0.05654756250000048,
          "durationTicks": 19,
          "midi": 67,
          "name": "G4",
          "ticks": 42216,
          "time": 125.64273150000001,
          "velocity": 0.7165354330708661
        },
        {
          "duration": 0.05654756250001469,
          "durationTicks": 19,
          "midi": 69,
          "name": "A4",
          "ticks": 42336,
          "time": 125.999874,
          "velocity": 0.7165354330708661
        },
        {
          "duration": 0.05654756250000048,
          "durationTicks": 19,
          "midi": 69,
          "name": "A4",
          "ticks": 42360,
          "time": 126.07130250000002,
          "velocity": 0.7165354330708661
        },
        {
          "duration": 0.1279760625000108,
          "durationTicks": 43,
          "midi": 69,
          "name": "A4",
          "ticks": 42432,
          "time": 126.285588,
          "velocity": 0.7165354330708661
        },
        {
          "duration": 0.05654756250000048,
          "durationTicks": 19,
          "midi": 69,
          "name": "A4",
          "ticks": 42480,
          "time": 126.42844500000001,
          "velocity": 0.7165354330708661
        },
        {
          "duration": 0.05654756250001469,
          "durationTicks": 19,
          "midi": 69,
          "name": "A4",
          "ticks": 42504,
          "time": 126.4998735,
          "velocity": 0.7165354330708661
        },
        {
          "duration": 0.1279760624999966,
          "durationTicks": 43,
          "midi": 69,
          "name": "A4",
          "ticks": 42528,
          "time": 126.57130200000002,
          "velocity": 0.7165354330708661
        },
        {
          "duration": 0.05654756250000048,
          "durationTicks": 19,
          "midi": 69,
          "name": "A4",
          "ticks": 42576,
          "time": 126.71415900000001,
          "velocity": 0.7165354330708661
        },
        {
          "duration": 0.05654756250001469,
          "durationTicks": 19,
          "midi": 69,
          "name": "A4",
          "ticks": 42600,
          "time": 126.7855875,
          "velocity": 0.7165354330708661
        },
        {
          "duration": 0.05654756250000048,
          "durationTicks": 19,
          "midi": 71,
          "name": "B4",
          "ticks": 42720,
          "time": 127.14273000000001,
          "velocity": 0.7165354330708661
        },
        {
          "duration": 0.05654756250000048,
          "durationTicks": 19,
          "midi": 71,
          "name": "B4",
          "ticks": 42744,
          "time": 127.21415850000001,
          "velocity": 0.7165354330708661
        },
        {
          "duration": 0.1279760624999966,
          "durationTicks": 43,
          "midi": 71,
          "name": "B4",
          "ticks": 42816,
          "time": 127.42844400000001,
          "velocity": 0.7165354330708661
        },
        {
          "duration": 0.05654756250001469,
          "durationTicks": 19,
          "midi": 71,
          "name": "B4",
          "ticks": 42864,
          "time": 127.571301,
          "velocity": 0.7165354330708661
        },
        {
          "duration": 0.05654756250000048,
          "durationTicks": 19,
          "midi": 71,
          "name": "B4",
          "ticks": 42888,
          "time": 127.64272950000002,
          "velocity": 0.7165354330708661
        },
        {
          "duration": 0.1279760625000108,
          "durationTicks": 43,
          "midi": 71,
          "name": "B4",
          "ticks": 42912,
          "time": 127.71415800000001,
          "velocity": 0.7165354330708661
        },
        {
          "duration": 0.05654756250001469,
          "durationTicks": 19,
          "midi": 71,
          "name": "B4",
          "ticks": 42960,
          "time": 127.857015,
          "velocity": 0.7165354330708661
        },
        {
          "duration": 0.05654756250000048,
          "durationTicks": 19,
          "midi": 71,
          "name": "B4",
          "ticks": 42984,
          "time": 127.92844350000001,
          "velocity": 0.7165354330708661
        },
        {
          "duration": 0.05654756249998627,
          "durationTicks": 19,
          "midi": 72,
          "name": "C5",
          "ticks": 43104,
          "time": 128.28558600000002,
          "velocity": 0.7165354330708661
        },
        {
          "duration": 0.05654756249998627,
          "durationTicks": 19,
          "midi": 72,
          "name": "C5",
          "ticks": 43128,
          "time": 128.35701450000002,
          "velocity": 0.7165354330708661
        },
        {
          "duration": 0.1279760625000108,
          "durationTicks": 43,
          "midi": 72,
          "name": "C5",
          "ticks": 43200,
          "time": 128.5713,
          "velocity": 0.7165354330708661
        },
        {
          "duration": 0.05654756250001469,
          "durationTicks": 19,
          "midi": 72,
          "name": "C5",
          "ticks": 43248,
          "time": 128.714157,
          "velocity": 0.7165354330708661
        },
        {
          "duration": 0.05654756249998627,
          "durationTicks": 19,
          "midi": 72,
          "name": "C5",
          "ticks": 43272,
          "time": 128.78558550000002,
          "velocity": 0.7165354330708661
        },
        {
          "duration": 0.05654756250001469,
          "durationTicks": 19,
          "midi": 72,
          "name": "C5",
          "ticks": 43344,
          "time": 128.999871,
          "velocity": 0.7165354330708661
        },
        {
          "duration": 0.05654756250001469,
          "durationTicks": 19,
          "midi": 72,
          "name": "C5",
          "ticks": 43368,
          "time": 129.0712995,
          "velocity": 0.7165354330708661
        },
        {
          "duration": 0.27083306250000305,
          "durationTicks": 91,
          "midi": 72,
          "name": "C5",
          "ticks": 43392,
          "time": 129.142728,
          "velocity": 0.7165354330708661
        },
        {
          "duration": 0.05654756249998627,
          "durationTicks": 19,
          "midi": 72,
          "name": "C5",
          "ticks": 43488,
          "time": 129.42844200000002,
          "velocity": 0.7165354330708661
        },
        {
          "duration": 0.05654756250001469,
          "durationTicks": 19,
          "midi": 72,
          "name": "C5",
          "ticks": 43512,
          "time": 129.49987050000001,
          "velocity": 0.7165354330708661
        },
        {
          "duration": 0.1279760625000108,
          "durationTicks": 43,
          "midi": 72,
          "name": "C5",
          "ticks": 43536,
          "time": 129.571299,
          "velocity": 0.7165354330708661
        },
        {
          "duration": 0.1279760625000108,
          "durationTicks": 43,
          "midi": 72,
          "name": "C5",
          "ticks": 43584,
          "time": 129.714156,
          "velocity": 0.7165354330708661
        },
        {
          "duration": 0.05654756249998627,
          "durationTicks": 19,
          "midi": 72,
          "name": "C5",
          "ticks": 43632,
          "time": 129.85701300000002,
          "velocity": 0.7165354330708661
        },
        {
          "duration": 0.05654756249998627,
          "durationTicks": 19,
          "midi": 72,
          "name": "C5",
          "ticks": 43656,
          "time": 129.92844150000002,
          "velocity": 0.7165354330708661
        },
        {
          "duration": 0.1279760625000108,
          "durationTicks": 43,
          "midi": 72,
          "name": "C5",
          "ticks": 43680,
          "time": 129.99987000000002,
          "velocity": 0.7165354330708661
        },
        {
          "duration": 0.05654756250001469,
          "durationTicks": 19,
          "midi": 72,
          "name": "C5",
          "ticks": 43728,
          "time": 130.142727,
          "velocity": 0.7165354330708661
        },
        {
          "duration": 0.05654756250001469,
          "durationTicks": 19,
          "midi": 72,
          "name": "C5",
          "ticks": 43752,
          "time": 130.2141555,
          "velocity": 0.7165354330708661
        },
        {
          "duration": 0.05654756250001469,
          "durationTicks": 19,
          "midi": 70,
          "name": "A#4",
          "ticks": 43872,
          "time": 130.571298,
          "velocity": 0.7165354330708661
        },
        {
          "duration": 0.05654756250001469,
          "durationTicks": 19,
          "midi": 70,
          "name": "A#4",
          "ticks": 43896,
          "time": 130.6427265,
          "velocity": 0.7165354330708661
        },
        {
          "duration": 0.1279760625000108,
          "durationTicks": 43,
          "midi": 70,
          "name": "A#4",
          "ticks": 43920,
          "time": 130.714155,
          "velocity": 0.7165354330708661
        },
        {
          "duration": 0.1279760625000108,
          "durationTicks": 43,
          "midi": 70,
          "name": "A#4",
          "ticks": 43968,
          "time": 130.857012,
          "velocity": 0.7165354330708661
        },
        {
          "duration": 0.05654756249998627,
          "durationTicks": 19,
          "midi": 70,
          "name": "A#4",
          "ticks": 44016,
          "time": 130.99986900000002,
          "velocity": 0.7165354330708661
        },
        {
          "duration": 0.05654756250001469,
          "durationTicks": 19,
          "midi": 70,
          "name": "A#4",
          "ticks": 44040,
          "time": 131.07129750000001,
          "velocity": 0.7165354330708661
        },
        {
          "duration": 0.1279760625000108,
          "durationTicks": 43,
          "midi": 70,
          "name": "A#4",
          "ticks": 44064,
          "time": 131.142726,
          "velocity": 0.7165354330708661
        },
        {
          "duration": 0.05654756250001469,
          "durationTicks": 19,
          "midi": 70,
          "name": "A#4",
          "ticks": 44112,
          "time": 131.285583,
          "velocity": 0.7165354330708661
        },
        {
          "duration": 0.05654756250001469,
          "durationTicks": 19,
          "midi": 70,
          "name": "A#4",
          "ticks": 44136,
          "time": 131.3570115,
          "velocity": 0.7165354330708661
        },
        {
          "duration": 0.05654756250001469,
          "durationTicks": 19,
          "midi": 69,
          "name": "A4",
          "ticks": 44256,
          "time": 131.714154,
          "velocity": 0.7165354330708661
        },
        {
          "duration": 0.05654756250001469,
          "durationTicks": 19,
          "midi": 69,
          "name": "A4",
          "ticks": 44280,
          "time": 131.7855825,
          "velocity": 0.7165354330708661
        },
        {
          "duration": 0.1279760624999824,
          "durationTicks": 43,
          "midi": 69,
          "name": "A4",
          "ticks": 44352,
          "time": 131.99986800000002,
          "velocity": 0.7165354330708661
        },
        {
          "duration": 0.05654756250001469,
          "durationTicks": 19,
          "midi": 69,
          "name": "A4",
          "ticks": 44400,
          "time": 132.142725,
          "velocity": 0.7165354330708661
        },
        {
          "duration": 0.05654756250001469,
          "durationTicks": 19,
          "midi": 69,
          "name": "A4",
          "ticks": 44424,
          "time": 132.2141535,
          "velocity": 0.7165354330708661
        },
        {
          "duration": 0.05654756250001469,
          "durationTicks": 19,
          "midi": 69,
          "name": "A4",
          "ticks": 44496,
          "time": 132.428439,
          "velocity": 0.7165354330708661
        },
        {
          "duration": 0.05654756249998627,
          "durationTicks": 19,
          "midi": 69,
          "name": "A4",
          "ticks": 44520,
          "time": 132.49986750000002,
          "velocity": 0.7165354330708661
        }
      ],
      "endOfTrackTicks": 47692
    },
    {
      "channel": 7,
      "controlChanges": {
        "6": [
          {
            "number": 6,
            "ticks": 0,
            "time": 0,
            "value": 0.09448818897637795
          },
          {
            "number": 6,
            "ticks": 0,
            "time": 0,
            "value": 0.09448818897637795
          },
          {
            "number": 6,
            "ticks": 0,
            "time": 0,
            "value": 0.09448818897637795
          },
          {
            "number": 6,
            "ticks": 47690,
            "time": 141.934381875,
            "value": 0.09448818897637795
          },
          {
            "number": 6,
            "ticks": 47692,
            "time": 141.94033425,
            "value": 0.09448818897637795
          }
        ],
        "7": [
          {
            "number": 7,
            "ticks": 0,
            "time": 0,
            "value": 0.7874015748031497
          },
          {
            "number": 7,
            "ticks": 0,
            "time": 0,
            "value": 0.7874015748031497
          },
          {
            "number": 7,
            "ticks": 0,
            "time": 0,
            "value": 0.7874015748031497
          },
          {
            "number": 7,
            "ticks": 0,
            "time": 0,
            "value": 0.7874015748031497
          },
          {
            "number": 7,
            "ticks": 47690,
            "time": 141.934381875,
            "value": 0.7874015748031497
          },
          {
            "number": 7,
            "ticks": 47692,
            "time": 141.94033425,
            "value": 0.7874015748031497
          }
        ],
        "10": [
          {
            "number": 10,
            "ticks": 0,
            "time": 0,
            "value": 0.5039370078740157
          },
          {
            "number": 10,
            "ticks": 0,
            "time": 0,
            "value": 0.5039370078740157
          },
          {
            "number": 10,
            "ticks": 0,
            "time": 0,
            "value": 0.5039370078740157
          },
          {
            "number": 10,
            "ticks": 0,
            "time": 0,
            "value": 0.5039370078740157
          },
          {
            "number": 10,
            "ticks": 47690,
            "time": 141.934381875,
            "value": 0.5039370078740157
          },
          {
            "number": 10,
            "ticks": 47692,
            "time": 141.94033425,
            "value": 0.5039370078740157
          }
        ],
        "100": [
          {
            "number": 100,
            "ticks": 0,
            "time": 0,
            "value": 0
          },
          {
            "number": 100,
            "ticks": 0,
            "time": 0,
            "value": 0
          },
          {
            "number": 100,
            "ticks": 0,
            "time": 0,
            "value": 0
          },
          {
            "number": 100,
            "ticks": 47690,
            "time": 141.934381875,
            "value": 0
          },
          {
            "number": 100,
            "ticks": 47692,
            "time": 141.94033425,
            "value": 0
          }
        ],
        "101": [
          {
            "number": 101,
            "ticks": 0,
            "time": 0,
            "value": 0
          },
          {
            "number": 101,
            "ticks": 0,
            "time": 0,
            "value": 0
          },
          {
            "number": 101,
            "ticks": 0,
            "time": 0,
            "value": 0
          },
          {
            "number": 101,
            "ticks": 47690,
            "time": 141.934381875,
            "value": 0
          },
          {
            "number": 101,
            "ticks": 47692,
            "time": 141.94033425,
            "value": 0
          }
        ]
      },
      "pitchBends": [
        {
          "ticks": 0,
          "time": 0,
          "value": 0
        },
        {
          "ticks": 0,
          "time": 0,
          "value": 0
        },
        {
          "ticks": 0,
          "time": 0,
          "value": 0
        },
        {
          "ticks": 0,
          "time": 0,
          "value": 0
        },
        {
          "ticks": 47690,
          "time": 141.934381875,
          "value": 0
        },
        {
          "ticks": 47692,
          "time": 141.94033425,
          "value": 0
        }
      ],
      "instrument": {
        "family": "piano",
        "number": 0,
        "name": "acoustic grand piano"
      },
      "name": "Harpsi",
      "notes": [
        {
          "duration": 0.14285700000000023,
          "durationTicks": 48,
          "midi": 55,
          "name": "G3",
          "ticks": 1920,
          "time": 5.7142800000000005,
          "velocity": 0.5196850393700787
        },
        {
          "duration": 0.14285700000000023,
          "durationTicks": 48,
          "midi": 58,
          "name": "A#3",
          "ticks": 1968,
          "time": 5.857137000000001,
          "velocity": 0.5511811023622047
        },
        {
          "duration": 0.14285699999999935,
          "durationTicks": 48,
          "midi": 62,
          "name": "D4",
          "ticks": 2016,
          "time": 5.999994000000001,
          "velocity": 0.5905511811023622
        },
        {
          "duration": 0.14285700000000023,
          "durationTicks": 48,
          "midi": 67,
          "name": "G4",
          "ticks": 2064,
          "time": 6.142851,
          "velocity": 0.6456692913385826
        },
        {
          "duration": 0.14285700000000023,
          "durationTicks": 48,
          "midi": 70,
          "name": "A#4",
          "ticks": 2112,
          "time": 6.2857080000000005,
          "velocity": 0.6535433070866141
        },
        {
          "duration": 0.14285699999999935,
          "durationTicks": 48,
          "midi": 62,
          "name": "D4",
          "ticks": 2160,
          "time": 6.428565000000001,
          "velocity": 0.6062992125984252
        },
        {
          "duration": 0.14285700000000023,
          "durationTicks": 48,
          "midi": 58,
          "name": "A#3",
          "ticks": 2208,
          "time": 6.571422,
          "velocity": 0.5039370078740157
        },
        {
          "duration": 0.14285700000000023,
          "durationTicks": 48,
          "midi": 67,
          "name": "G4",
          "ticks": 2256,
          "time": 6.714279,
          "velocity": 0.5905511811023622
        },
        {
          "duration": 0.14285700000000023,
          "durationTicks": 48,
          "midi": 69,
          "name": "A4",
          "ticks": 2304,
          "time": 6.857136000000001,
          "velocity": 0.5984251968503937
        },
        {
          "duration": 0.14285700000000023,
          "durationTicks": 48,
          "midi": 62,
          "name": "D4",
          "ticks": 2352,
          "time": 6.999993000000001,
          "velocity": 0.6062992125984252
        },
        {
          "duration": 0.14285699999999935,
          "durationTicks": 48,
          "midi": 74,
          "name": "D5",
          "ticks": 2400,
          "time": 7.142850000000001,
          "velocity": 0.6062992125984252
        },
        {
          "duration": 0.14285700000000023,
          "durationTicks": 48,
          "midi": 69,
          "name": "A4",
          "ticks": 2448,
          "time": 7.285707,
          "velocity": 0.5196850393700787
        },
        {
          "duration": 0.14285700000000023,
          "durationTicks": 48,
          "midi": 62,
          "name": "D4",
          "ticks": 2496,
          "time": 7.428564000000001,
          "velocity": 0.5196850393700787
        },
        {
          "duration": 0.14285700000000023,
          "durationTicks": 48,
          "midi": 57,
          "name": "A3",
          "ticks": 2592,
          "time": 7.714278,
          "velocity": 0.48031496062992124
        },
        {
          "duration": 0.14285700000000023,
          "durationTicks": 48,
          "midi": 62,
          "name": "D4",
          "ticks": 2640,
          "time": 7.857135,
          "velocity": 0.5275590551181102
        },
        {
          "duration": 0.14285699999999935,
          "durationTicks": 48,
          "midi": 65,
          "name": "F4",
          "ticks": 2688,
          "time": 7.999992000000001,
          "velocity": 0.6062992125984252
        },
        {
          "duration": 0.14285700000000112,
          "durationTicks": 48,
          "midi": 63,
          "name": "D#4",
          "ticks": 2736,
          "time": 8.142849,
          "velocity": 0.5826771653543307
        },
        {
          "duration": 0.14285699999999935,
          "durationTicks": 48,
          "midi": 58,
          "name": "A#3",
          "ticks": 2784,
          "time": 8.285706000000001,
          "velocity": 0.5511811023622047
        },
        {
          "duration": 0.14285699999999935,
          "durationTicks": 48,
          "midi": 62,
          "name": "D4",
          "ticks": 2832,
          "time": 8.428563,
          "velocity": 0.5433070866141733
        },
        {
          "duration": 0.14285700000000112,
          "durationTicks": 48,
          "midi": 65,
          "name": "F4",
          "ticks": 2880,
          "time": 8.57142,
          "velocity": 0.5275590551181102
        },
        {
          "duration": 0.14285699999999935,
          "durationTicks": 48,
          "midi": 63,
          "name": "D#4",
          "ticks": 2928,
          "time": 8.714277000000001,
          "velocity": 0.5433070866141733
        },
        {
          "duration": 0.14285700000000112,
          "durationTicks": 48,
          "midi": 62,
          "name": "D4",
          "ticks": 2976,
          "time": 8.857134,
          "velocity": 0.5275590551181102
        },
        {
          "duration": 0.14285699999999935,
          "durationTicks": 48,
          "midi": 65,
          "name": "F4",
          "ticks": 3024,
          "time": 8.999991000000001,
          "velocity": 0.4881889763779528
        },
        {
          "duration": 0.14285699999999935,
          "durationTicks": 48,
          "midi": 67,
          "name": "G4",
          "ticks": 3072,
          "time": 9.142848,
          "velocity": 0.5275590551181102
        },
        {
          "duration": 0.14285700000000112,
          "durationTicks": 48,
          "midi": 62,
          "name": "D4",
          "ticks": 3120,
          "time": 9.285705,
          "velocity": 0.5354330708661418
        },
        {
          "duration": 0.14285699999999935,
          "durationTicks": 48,
          "midi": 71,
          "name": "B4",
          "ticks": 3168,
          "time": 9.428562000000001,
          "velocity": 0.5354330708661418
        },
        {
          "duration": 0.14285700000000112,
          "durationTicks": 48,
          "midi": 62,
          "name": "D4",
          "ticks": 3216,
          "time": 9.571419,
          "velocity": 0.5590551181102362
        },
        {
          "duration": 0.14285699999999935,
          "durationTicks": 48,
          "midi": 68,
          "name": "G#4",
          "ticks": 3264,
          "time": 9.714276000000002,
          "velocity": 0.5826771653543307
        },
        {
          "duration": 0.14285699999999935,
          "durationTicks": 48,
          "midi": 65,
          "name": "F4",
          "ticks": 3312,
          "time": 9.857133000000001,
          "velocity": 0.5984251968503937
        },
        {
          "duration": 0.14285700000000112,
          "durationTicks": 48,
          "midi": 62,
          "name": "D4",
          "ticks": 3360,
          "time": 9.99999,
          "velocity": 0.6062992125984252
        },
        {
          "duration": 0.14285699999999935,
          "durationTicks": 48,
          "midi": 65,
          "name": "F4",
          "ticks": 3408,
          "time": 10.142847000000002,
          "velocity": 0.6377952755905512
        }
      ],
      "endOfTrackTicks": 47692
    },
    {
      "channel": 8,
      "controlChanges": {
        "6": [
          {
            "number": 6,
            "ticks": 0,
            "time": 0,
            "value": 0.09448818897637795
          },
          {
            "number": 6,
            "ticks": 0,
            "time": 0,
            "value": 0.09448818897637795
          },
          {
            "number": 6,
            "ticks": 0,
            "time": 0,
            "value": 0.09448818897637795
          },
          {
            "number": 6,
            "ticks": 47690,
            "time": 141.934381875,
            "value": 0.09448818897637795
          },
          {
            "number": 6,
            "ticks": 47692,
            "time": 141.94033425,
            "value": 0.09448818897637795
          }
        ],
        "7": [
          {
            "number": 7,
            "ticks": 0,
            "time": 0,
            "value": 0.7874015748031497
          },
          {
            "number": 7,
            "ticks": 0,
            "time": 0,
            "value": 0.7874015748031497
          },
          {
            "number": 7,
            "ticks": 0,
            "time": 0,
            "value": 0.7874015748031497
          },
          {
            "number": 7,
            "ticks": 0,
            "time": 0,
            "value": 0.7874015748031497
          },
          {
            "number": 7,
            "ticks": 47690,
            "time": 141.934381875,
            "value": 0.7874015748031497
          },
          {
            "number": 7,
            "ticks": 47692,
            "time": 141.94033425,
            "value": 0.7874015748031497
          }
        ],
        "10": [
          {
            "number": 10,
            "ticks": 0,
            "time": 0,
            "value": 0.5039370078740157
          },
          {
            "number": 10,
            "ticks": 0,
            "time": 0,
            "value": 0.5039370078740157
          },
          {
            "number": 10,
            "ticks": 0,
            "time": 0,
            "value": 0.5039370078740157
          },
          {
            "number": 10,
            "ticks": 0,
            "time": 0,
            "value": 0.5039370078740157
          },
          {
            "number": 10,
            "ticks": 47690,
            "time": 141.934381875,
            "value": 0.5039370078740157
          },
          {
            "number": 10,
            "ticks": 47692,
            "time": 141.94033425,
            "value": 0.5039370078740157
          }
        ],
        "100": [
          {
            "number": 100,
            "ticks": 0,
            "time": 0,
            "value": 0
          },
          {
            "number": 100,
            "ticks": 0,
            "time": 0,
            "value": 0
          },
          {
            "number": 100,
            "ticks": 0,
            "time": 0,
            "value": 0
          },
          {
            "number": 100,
            "ticks": 47690,
            "time": 141.934381875,
            "value": 0
          },
          {
            "number": 100,
            "ticks": 47692,
            "time": 141.94033425,
            "value": 0
          }
        ],
        "101": [
          {
            "number": 101,
            "ticks": 0,
            "time": 0,
            "value": 0
          },
          {
            "number": 101,
            "ticks": 0,
            "time": 0,
            "value": 0
          },
          {
            "number": 101,
            "ticks": 0,
            "time": 0,
            "value": 0
          },
          {
            "number": 101,
            "ticks": 47690,
            "time": 141.934381875,
            "value": 0
          },
          {
            "number": 101,
            "ticks": 47692,
            "time": 141.94033425,
            "value": 0
          }
        ]
      },
      "pitchBends": [
        {
          "ticks": 0,
          "time": 0,
          "value": 0
        },
        {
          "ticks": 0,
          "time": 0,
          "value": 0
        },
        {
          "ticks": 0,
          "time": 0,
          "value": 0
        },
        {
          "ticks": 0,
          "time": 0,
          "value": 0
        },
        {
          "ticks": 47690,
          "time": 141.934381875,
          "value": 0
        },
        {
          "ticks": 47692,
          "time": 141.94033425,
          "value": 0
        }
      ],
      "instrument": {
        "family": "piano",
        "number": 0,
        "name": "acoustic grand piano"
      },
      "name": "Lead",
      "notes": [
        {
          "duration": 0.24702356250000435,
          "durationTicks": 83,
          "midi": 79,
          "name": "G5",
          "ticks": 15744,
          "time": 46.857096000000006,
          "velocity": 0.2677165354330709
        },
        {
          "duration": 0.24702356250000435,
          "durationTicks": 83,
          "midi": 79,
          "name": "G5",
          "ticks": 15840,
          "time": 47.142810000000004,
          "velocity": 0.28346456692913385
        },
        {
          "duration": 0.24702356250000435,
          "durationTicks": 83,
          "midi": 80,
          "name": "G#5",
          "ticks": 15936,
          "time": 47.428524,
          "velocity": 0.2992125984251969
        },
        {
          "duration": 0.24702356250000435,
          "durationTicks": 83,
          "midi": 77,
          "name": "F5",
          "ticks": 16032,
          "time": 47.714238,
          "velocity": 0.31496062992125984
        },
        {
          "duration": 0.24702356249999724,
          "durationTicks": 83,
          "midi": 79,
          "name": "G5",
          "ticks": 16128,
          "time": 47.99995200000001,
          "velocity": 0.33070866141732286
        },
        {
          "duration": 0.24702356249999724,
          "durationTicks": 83,
          "midi": 79,
          "name": "G5",
          "ticks": 16224,
          "time": 48.285666000000006,
          "velocity": 0.3543307086614173
        },
        {
          "duration": 0.1279760624999966,
          "durationTicks": 43,
          "midi": 79,
          "name": "G5",
          "ticks": 16320,
          "time": 48.571380000000005,
          "velocity": 0.3700787401574803
        },
        {
          "duration": 0.1279760624999966,
          "durationTicks": 43,
          "midi": 82,
          "name": "A#5",
          "ticks": 16368,
          "time": 48.714237000000004,
          "velocity": 0.3779527559055118
        },
        {
          "duration": 0.1279760624999966,
          "durationTicks": 43,
          "midi": 80,
          "name": "G#5",
          "ticks": 16416,
          "time": 48.857094000000004,
          "velocity": 0.3858267716535433
        },
        {
          "duration": 0.1279760624999966,
          "durationTicks": 43,
          "midi": 77,
          "name": "F5",
          "ticks": 16464,
          "time": 48.999951,
          "velocity": 0.3937007874015748
        },
        {
          "duration": 0.24702356250000435,
          "durationTicks": 83,
          "midi": 79,
          "name": "G5",
          "ticks": 16512,
          "time": 49.142808,
          "velocity": 0.4015748031496063
        },
        {
          "duration": 0.24702356250000435,
          "durationTicks": 83,
          "midi": 79,
          "name": "G5",
          "ticks": 16608,
          "time": 49.428522,
          "velocity": 0.41732283464566927
        },
        {
          "duration": 0.24702356249999724,
          "durationTicks": 83,
          "midi": 80,
          "name": "G#5",
          "ticks": 16704,
          "time": 49.71423600000001,
          "velocity": 0.4330708661417323
        },
        {
          "duration": 0.24702356250000435,
          "durationTicks": 83,
          "midi": 77,
          "name": "F5",
          "ticks": 16800,
          "time": 49.999950000000005,
          "velocity": 0.4566929133858268
        },
        {
          "duration": 0.24702356250000435,
          "durationTicks": 83,
          "midi": 79,
          "name": "G5",
          "ticks": 16896,
          "time": 50.285664000000004,
          "velocity": 0.47244094488188976
        },
        {
          "duration": 0.1279760624999966,
          "durationTicks": 43,
          "midi": 74,
          "name": "D5",
          "ticks": 16992,
          "time": 50.571378,
          "velocity": 0.4881889763779528
        },
        {
          "duration": 0.1279760624999966,
          "durationTicks": 43,
          "midi": 79,
          "name": "G5",
          "ticks": 17040,
          "time": 50.714235,
          "velocity": 0.49606299212598426
        },
        {
          "duration": 0.27083306250000305,
          "durationTicks": 91,
          "midi": 78,
          "name": "F#5",
          "ticks": 17088,
          "time": 50.857092,
          "velocity": 0.5039370078740157
        },
        {
          "duration": 0.27083306249999595,
          "durationTicks": 91,
          "midi": 74,
          "name": "D5",
          "ticks": 17184,
          "time": 51.14280600000001,
          "velocity": 0.5196850393700787
        },
        {
          "duration": 0.24702356250000435,
          "durationTicks": 83,
          "midi": 79,
          "name": "G5",
          "ticks": 17280,
          "time": 51.428520000000006,
          "velocity": 0.5433070866141733
        },
        {
          "duration": 0.24702356250000435,
          "durationTicks": 83,
          "midi": 79,
          "name": "G5",
          "ticks": 17376,
          "time": 51.714234000000005,
          "velocity": 0.5590551181102362
        },
        {
          "duration": 0.24702356250000435,
          "durationTicks": 83,
          "midi": 80,
          "name": "G#5",
          "ticks": 17472,
          "time": 51.999948,
          "velocity": 0.5748031496062992
        },
        {
          "duration": 0.24702356250000435,
          "durationTicks": 83,
          "midi": 77,
          "name": "F5",
          "ticks": 17568,
          "time": 52.285662,
          "velocity": 0.5905511811023622
        },
        {
          "duration": 0.24702356250000435,
          "durationTicks": 83,
          "midi": 79,
          "name": "G5",
          "ticks": 17664,
          "time": 52.571376,
          "velocity": 0.6062992125984252
        },
        {
          "duration": 0.24702356249999724,
          "durationTicks": 83,
          "midi": 79,
          "name": "G5",
          "ticks": 17760,
          "time": 52.85709000000001,
          "velocity": 0.6299212598425197
        },
        {
          "duration": 0.1279760624999966,
          "durationTicks": 43,
          "midi": 79,
          "name": "G5",
          "ticks": 17856,
          "time": 53.142804000000005,
          "velocity": 0.6456692913385826
        },
        {
          "duration": 0.1279760624999966,
          "durationTicks": 43,
          "midi": 82,
          "name": "A#5",
          "ticks": 17904,
          "time": 53.285661000000005,
          "velocity": 0.6535433070866141
        },
        {
          "duration": 0.1279760624999966,
          "durationTicks": 43,
          "midi": 80,
          "name": "G#5",
          "ticks": 17952,
          "time": 53.428518000000004,
          "velocity": 0.6614173228346457
        },
        {
          "duration": 0.1279760624999966,
          "durationTicks": 43,
          "midi": 77,
          "name": "F5",
          "ticks": 18000,
          "time": 53.571375,
          "velocity": 0.6692913385826772
        },
        {
          "duration": 0.1279760624999966,
          "durationTicks": 43,
          "midi": 79,
          "name": "G5",
          "ticks": 18048,
          "time": 53.714232,
          "velocity": 0.6771653543307087
        },
        {
          "duration": 0.1279760625000037,
          "durationTicks": 43,
          "midi": 80,
          "name": "G#5",
          "ticks": 18144,
          "time": 53.999946,
          "velocity": 0.6929133858267716
        },
        {
          "duration": 0.1279760624999966,
          "durationTicks": 43,
          "midi": 81,
          "name": "A5",
          "ticks": 18240,
          "time": 54.28566000000001,
          "velocity": 0.7165354330708661
        },
        {
          "duration": 0.1279760624999966,
          "durationTicks": 43,
          "midi": 82,
          "name": "A#5",
          "ticks": 18336,
          "time": 54.571374000000006,
          "velocity": 0.7322834645669292
        },
        {
          "duration": 0.24702356250000435,
          "durationTicks": 83,
          "midi": 87,
          "name": "D#6",
          "ticks": 18432,
          "time": 54.857088000000005,
          "velocity": 0.8110236220472441
        },
        {
          "duration": 0.24702356250000435,
          "durationTicks": 83,
          "midi": 86,
          "name": "D6",
          "ticks": 18528,
          "time": 55.142802,
          "velocity": 0.8110236220472441
        },
        {
          "duration": 0.1279760624999966,
          "durationTicks": 43,
          "midi": 86,
          "name": "D6",
          "ticks": 18624,
          "time": 55.428516,
          "velocity": 0.8110236220472441
        },
        {
          "duration": 0.05654756250000048,
          "durationTicks": 19,
          "midi": 87,
          "name": "D#6",
          "ticks": 18672,
          "time": 55.571373,
          "velocity": 0.8110236220472441
        },
        {
          "duration": 0.1279760624999966,
          "durationTicks": 43,
          "midi": 88,
          "name": "E6",
          "ticks": 18720,
          "time": 55.71423000000001,
          "velocity": 0.8110236220472441
        },
        {
          "duration": 0.1279760624999966,
          "durationTicks": 43,
          "midi": 90,
          "name": "F#6",
          "ticks": 18768,
          "time": 55.85708700000001,
          "velocity": 0.8110236220472441
        },
        {
          "duration": 0.24702356250000435,
          "durationTicks": 83,
          "midi": 79,
          "name": "G5",
          "ticks": 18816,
          "time": 55.999944000000006,
          "velocity": 0.8110236220472441
        },
        {
          "duration": 0.24702356250000435,
          "durationTicks": 83,
          "midi": 74,
          "name": "D5",
          "ticks": 18816,
          "time": 55.999944000000006,
          "velocity": 0.7086614173228346
        },
        {
          "duration": 0.24702356250000435,
          "durationTicks": 83,
          "midi": 91,
          "name": "G6",
          "ticks": 18816,
          "time": 55.999944000000006,
          "velocity": 0.7637795275590551
        },
        {
          "duration": 0.056547562499993376,
          "durationTicks": 19,
          "midi": 55,
          "name": "G3",
          "ticks": 18864,
          "time": 56.142801000000006,
          "velocity": 0.7637795275590551
        },
        {
          "duration": 0.05654756250000048,
          "durationTicks": 19,
          "midi": 55,
          "name": "G3",
          "ticks": 18888,
          "time": 56.2142295,
          "velocity": 0.7637795275590551
        },
        {
          "duration": 0.24702356250000435,
          "durationTicks": 83,
          "midi": 79,
          "name": "G5",
          "ticks": 18912,
          "time": 56.285658000000005,
          "velocity": 0.8110236220472441
        },
        {
          "duration": 0.24702356250000435,
          "durationTicks": 83,
          "midi": 74,
          "name": "D5",
          "ticks": 18912,
          "time": 56.285658000000005,
          "velocity": 0.7086614173228346
        },
        {
          "duration": 0.24702356250000435,
          "durationTicks": 83,
          "midi": 91,
          "name": "G6",
          "ticks": 18912,
          "time": 56.285658000000005,
          "velocity": 0.7637795275590551
        },
        {
          "duration": 0.05654756250000048,
          "durationTicks": 19,
          "midi": 55,
          "name": "G3",
          "ticks": 18960,
          "time": 56.428515000000004,
          "velocity": 0.7637795275590551
        },
        {
          "duration": 0.056547562499993376,
          "durationTicks": 19,
          "midi": 55,
          "name": "G3",
          "ticks": 18984,
          "time": 56.49994350000001,
          "velocity": 0.7637795275590551
        },
        {
          "duration": 0.24702356250000435,
          "durationTicks": 83,
          "midi": 80,
          "name": "G#5",
          "ticks": 19008,
          "time": 56.571372000000004,
          "velocity": 0.8110236220472441
        },
        {
          "duration": 0.24702356250000435,
          "durationTicks": 83,
          "midi": 75,
          "name": "D#5",
          "ticks": 19008,
          "time": 56.571372000000004,
          "velocity": 0.7086614173228346
        },
        {
          "duration": 0.24702356250000435,
          "durationTicks": 83,
          "midi": 92,
          "name": "G#6",
          "ticks": 19008,
          "time": 56.571372000000004,
          "velocity": 0.7637795275590551
        },
        {
          "duration": 0.05654756250000048,
          "durationTicks": 19,
          "midi": 55,
          "name": "G3",
          "ticks": 19056,
          "time": 56.714229,
          "velocity": 0.7637795275590551
        },
        {
          "duration": 0.056547562499993376,
          "durationTicks": 19,
          "midi": 55,
          "name": "G3",
          "ticks": 19080,
          "time": 56.785657500000006,
          "velocity": 0.7637795275590551
        },
        {
          "duration": 0.24702356250000435,
          "durationTicks": 83,
          "midi": 72,
          "name": "C5",
          "ticks": 19104,
          "time": 56.857086,
          "velocity": 0.7086614173228346
        },
        {
          "duration": 0.24702356250000435,
          "durationTicks": 83,
          "midi": 77,
          "name": "F5",
          "ticks": 19104,
          "time": 56.857086,
          "velocity": 0.8110236220472441
        },
        {
          "duration": 0.24702356250000435,
          "durationTicks": 83,
          "midi": 89,
          "name": "F6",
          "ticks": 19104,
          "time": 56.857086,
          "velocity": 0.7637795275590551
        },
        {
          "duration": 0.05654756250000048,
          "durationTicks": 19,
          "midi": 55,
          "name": "G3",
          "ticks": 19152,
          "time": 56.999943,
          "velocity": 0.7637795275590551
        },
        {
          "duration": 0.05654756250000048,
          "durationTicks": 19,
          "midi": 55,
          "name": "G3",
          "ticks": 19176,
          "time": 57.071371500000005,
          "velocity": 0.7637795275590551
        },
        {
          "duration": 0.24702356249999724,
          "durationTicks": 83,
          "midi": 91,
          "name": "G6",
          "ticks": 19200,
          "time": 57.14280000000001,
          "velocity": 0.7637795275590551
        },
        {
          "duration": 0.24702356249999724,
          "durationTicks": 83,
          "midi": 79,
          "name": "G5",
          "ticks": 19200,
          "time": 57.14280000000001,
          "velocity": 0.8110236220472441
        },
        {
          "duration": 0.24702356249999724,
          "durationTicks": 83,
          "midi": 74,
          "name": "D5",
          "ticks": 19200,
          "time": 57.14280000000001,
          "velocity": 0.7086614173228346
        },
        {
          "duration": 0.056547562499993376,
          "durationTicks": 19,
          "midi": 55,
          "name": "G3",
          "ticks": 19248,
          "time": 57.28565700000001,
          "velocity": 0.7637795275590551
        },
        {
          "duration": 0.05654756250000048,
          "durationTicks": 19,
          "midi": 55,
          "name": "G3",
          "ticks": 19272,
          "time": 57.357085500000004,
          "velocity": 0.7637795275590551
        },
        {
          "duration": 0.24702356249999724,
          "durationTicks": 83,
          "midi": 74,
          "name": "D5",
          "ticks": 19296,
          "time": 57.42851400000001,
          "velocity": 0.7086614173228346
        },
        {
          "duration": 0.24702356249999724,
          "durationTicks": 83,
          "midi": 79,
          "name": "G5",
          "ticks": 19296,
          "time": 57.42851400000001,
          "velocity": 0.8110236220472441
        },
        {
          "duration": 0.24702356249999724,
          "durationTicks": 83,
          "midi": 91,
          "name": "G6",
          "ticks": 19296,
          "time": 57.42851400000001,
          "velocity": 0.7637795275590551
        },
        {
          "duration": 0.056547562499993376,
          "durationTicks": 19,
          "midi": 55,
          "name": "G3",
          "ticks": 19344,
          "time": 57.571371000000006,
          "velocity": 0.7637795275590551
        },
        {
          "duration": 0.05654756250000048,
          "durationTicks": 19,
          "midi": 55,
          "name": "G3",
          "ticks": 19368,
          "time": 57.6427995,
          "velocity": 0.7637795275590551
        },
        {
          "duration": 0.1279760624999966,
          "durationTicks": 43,
          "midi": 91,
          "name": "G6",
          "ticks": 19392,
          "time": 57.714228000000006,
          "velocity": 0.7637795275590551
        },
        {
          "duration": 0.1279760624999966,
          "durationTicks": 43,
          "midi": 74,
          "name": "D5",
          "ticks": 19392,
          "time": 57.714228000000006,
          "velocity": 0.7086614173228346
        },
        {
          "duration": 0.1279760624999966,
          "durationTicks": 43,
          "midi": 79,
          "name": "G5",
          "ticks": 19392,
          "time": 57.714228000000006,
          "velocity": 0.8110236220472441
        },
        {
          "duration": 0.05654756250000048,
          "durationTicks": 19,
          "midi": 55,
          "name": "G3",
          "ticks": 19416,
          "time": 57.7856565,
          "velocity": 0.7637795275590551
        },
        {
          "duration": 0.1279760624999966,
          "durationTicks": 43,
          "midi": 94,
          "name": "A#6",
          "ticks": 19440,
          "time": 57.857085000000005,
          "velocity": 0.7637795275590551
        },
        {
          "duration": 0.1279760624999966,
          "durationTicks": 43,
          "midi": 82,
          "name": "A#5",
          "ticks": 19440,
          "time": 57.857085000000005,
          "velocity": 0.8110236220472441
        },
        {
          "duration": 0.1279760624999966,
          "durationTicks": 43,
          "midi": 77,
          "name": "F5",
          "ticks": 19440,
          "time": 57.857085000000005,
          "velocity": 0.7086614173228346
        },
        {
          "duration": 0.056547562499993376,
          "durationTicks": 19,
          "midi": 55,
          "name": "G3",
          "ticks": 19464,
          "time": 57.92851350000001,
          "velocity": 0.7637795275590551
        },
        {
          "duration": 0.1279760624999966,
          "durationTicks": 43,
          "midi": 92,
          "name": "G#6",
          "ticks": 19488,
          "time": 57.999942000000004,
          "velocity": 0.7637795275590551
        },
        {
          "duration": 0.1279760624999966,
          "durationTicks": 43,
          "midi": 75,
          "name": "D#5",
          "ticks": 19488,
          "time": 57.999942000000004,
          "velocity": 0.7086614173228346
        },
        {
          "duration": 0.1279760624999966,
          "durationTicks": 43,
          "midi": 80,
          "name": "G#5",
          "ticks": 19488,
          "time": 57.999942000000004,
          "velocity": 0.8110236220472441
        },
        {
          "duration": 0.056547562499993376,
          "durationTicks": 19,
          "midi": 55,
          "name": "G3",
          "ticks": 19512,
          "time": 58.07137050000001,
          "velocity": 0.7637795275590551
        },
        {
          "duration": 0.1279760624999966,
          "durationTicks": 43,
          "midi": 89,
          "name": "F6",
          "ticks": 19536,
          "time": 58.142799000000004,
          "velocity": 0.7637795275590551
        },
        {
          "duration": 0.1279760624999966,
          "durationTicks": 43,
          "midi": 77,
          "name": "F5",
          "ticks": 19536,
          "time": 58.142799000000004,
          "velocity": 0.8110236220472441
        },
        {
          "duration": 0.1279760624999966,
          "durationTicks": 43,
          "midi": 72,
          "name": "C5",
          "ticks": 19536,
          "time": 58.142799000000004,
          "velocity": 0.7086614173228346
        },
        {
          "duration": 0.056547562499993376,
          "durationTicks": 19,
          "midi": 55,
          "name": "G3",
          "ticks": 19560,
          "time": 58.21422750000001,
          "velocity": 0.7637795275590551
        },
        {
          "duration": 0.24702356250000435,
          "durationTicks": 83,
          "midi": 91,
          "name": "G6",
          "ticks": 19584,
          "time": 58.285656,
          "velocity": 0.7637795275590551
        },
        {
          "duration": 0.24702356250000435,
          "durationTicks": 83,
          "midi": 74,
          "name": "D5",
          "ticks": 19584,
          "time": 58.285656,
          "velocity": 0.7086614173228346
        },
        {
          "duration": 0.24702356250000435,
          "durationTicks": 83,
          "midi": 79,
          "name": "G5",
          "ticks": 19584,
          "time": 58.285656,
          "velocity": 0.8110236220472441
        },
        {
          "duration": 0.05654756250000048,
          "durationTicks": 19,
          "midi": 55,
          "name": "G3",
          "ticks": 19632,
          "time": 58.428513,
          "velocity": 0.7637795275590551
        },
        {
          "duration": 0.056547562499993376,
          "durationTicks": 19,
          "midi": 55,
          "name": "G3",
          "ticks": 19656,
          "time": 58.499941500000006,
          "velocity": 0.7637795275590551
        },
        {
          "duration": 0.24702356250000435,
          "durationTicks": 83,
          "midi": 79,
          "name": "G5",
          "ticks": 19680,
          "time": 58.57137,
          "velocity": 0.8110236220472441
        },
        {
          "duration": 0.24702356250000435,
          "durationTicks": 83,
          "midi": 74,
          "name": "D5",
          "ticks": 19680,
          "time": 58.57137,
          "velocity": 0.7086614173228346
        },
        {
          "duration": 0.24702356250000435,
          "durationTicks": 83,
          "midi": 91,
          "name": "G6",
          "ticks": 19680,
          "time": 58.57137,
          "velocity": 0.7637795275590551
        },
        {
          "duration": 0.056547562499993376,
          "durationTicks": 19,
          "midi": 55,
          "name": "G3",
          "ticks": 19728,
          "time": 58.71422700000001,
          "velocity": 0.7637795275590551
        },
        {
          "duration": 0.05654756250000048,
          "durationTicks": 19,
          "midi": 55,
          "name": "G3",
          "ticks": 19752,
          "time": 58.785655500000004,
          "velocity": 0.7637795275590551
        },
        {
          "duration": 0.24702356249999724,
          "durationTicks": 83,
          "midi": 75,
          "name": "D#5",
          "ticks": 19776,
          "time": 58.85708400000001,
          "velocity": 0.7086614173228346
        },
        {
          "duration": 0.24702356249999724,
          "durationTicks": 83,
          "midi": 80,
          "name": "G#5",
          "ticks": 19776,
          "time": 58.85708400000001,
          "velocity": 0.8110236220472441
        },
        {
          "duration": 0.24702356249999724,
          "durationTicks": 83,
          "midi": 92,
          "name": "G#6",
          "ticks": 19776,
          "time": 58.85708400000001,
          "velocity": 0.7637795275590551
        },
        {
          "duration": 0.056547562499993376,
          "durationTicks": 19,
          "midi": 55,
          "name": "G3",
          "ticks": 19824,
          "time": 58.99994100000001,
          "velocity": 0.7637795275590551
        },
        {
          "duration": 0.05654756250000048,
          "durationTicks": 19,
          "midi": 55,
          "name": "G3",
          "ticks": 19848,
          "time": 59.0713695,
          "velocity": 0.7637795275590551
        },
        {
          "duration": 0.24702356250000435,
          "durationTicks": 83,
          "midi": 72,
          "name": "C5",
          "ticks": 19872,
          "time": 59.142798000000006,
          "velocity": 0.7086614173228346
        },
        {
          "duration": 0.24702356250000435,
          "durationTicks": 83,
          "midi": 77,
          "name": "F5",
          "ticks": 19872,
          "time": 59.142798000000006,
          "velocity": 0.8110236220472441
        },
        {
          "duration": 0.24702356250000435,
          "durationTicks": 83,
          "midi": 89,
          "name": "F6",
          "ticks": 19872,
          "time": 59.142798000000006,
          "velocity": 0.7637795275590551
        },
        {
          "duration": 0.056547562499993376,
          "durationTicks": 19,
          "midi": 55,
          "name": "G3",
          "ticks": 19920,
          "time": 59.285655000000006,
          "velocity": 0.7637795275590551
        },
        {
          "duration": 0.05654756250000048,
          "durationTicks": 19,
          "midi": 55,
          "name": "G3",
          "ticks": 19944,
          "time": 59.3570835,
          "velocity": 0.7637795275590551
        },
        {
          "duration": 0.24702356250000435,
          "durationTicks": 83,
          "midi": 79,
          "name": "G5",
          "ticks": 19968,
          "time": 59.428512000000005,
          "velocity": 0.8110236220472441
        },
        {
          "duration": 0.24702356250000435,
          "durationTicks": 83,
          "midi": 74,
          "name": "D5",
          "ticks": 19968,
          "time": 59.428512000000005,
          "velocity": 0.7086614173228346
        },
        {
          "duration": 0.24702356250000435,
          "durationTicks": 83,
          "midi": 91,
          "name": "G6",
          "ticks": 19968,
          "time": 59.428512000000005,
          "velocity": 0.7637795275590551
        },
        {
          "duration": 0.05654756250000048,
          "durationTicks": 19,
          "midi": 55,
          "name": "G3",
          "ticks": 20016,
          "time": 59.571369000000004,
          "velocity": 0.7637795275590551
        },
        {
          "duration": 0.056547562499993376,
          "durationTicks": 19,
          "midi": 55,
          "name": "G3",
          "ticks": 20040,
          "time": 59.64279750000001,
          "velocity": 0.7637795275590551
        },
        {
          "duration": 0.1279760624999966,
          "durationTicks": 43,
          "midi": 86,
          "name": "D6",
          "ticks": 20064,
          "time": 59.714226000000004,
          "velocity": 0.7637795275590551
        },
        {
          "duration": 0.1279760624999966,
          "durationTicks": 43,
          "midi": 70,
          "name": "A#4",
          "ticks": 20064,
          "time": 59.714226000000004,
          "velocity": 0.7086614173228346
        },
        {
          "duration": 0.1279760624999966,
          "durationTicks": 43,
          "midi": 74,
          "name": "D5",
          "ticks": 20064,
          "time": 59.714226000000004,
          "velocity": 0.8110236220472441
        },
        {
          "duration": 0.056547562499993376,
          "durationTicks": 19,
          "midi": 55,
          "name": "G3",
          "ticks": 20088,
          "time": 59.78565450000001,
          "velocity": 0.7637795275590551
        },
        {
          "duration": 0.1279760624999966,
          "durationTicks": 43,
          "midi": 91,
          "name": "G6",
          "ticks": 20112,
          "time": 59.857083,
          "velocity": 0.7637795275590551
        },
        {
          "duration": 0.1279760624999966,
          "durationTicks": 43,
          "midi": 79,
          "name": "G5",
          "ticks": 20112,
          "time": 59.857083,
          "velocity": 0.8110236220472441
        },
        {
          "duration": 0.1279760624999966,
          "durationTicks": 43,
          "midi": 74,
          "name": "D5",
          "ticks": 20112,
          "time": 59.857083,
          "velocity": 0.7086614173228346
        },
        {
          "duration": 0.056547562499993376,
          "durationTicks": 19,
          "midi": 55,
          "name": "G3",
          "ticks": 20136,
          "time": 59.928511500000006,
          "velocity": 0.7637795275590551
        },
        {
          "duration": 0.27083306250000305,
          "durationTicks": 91,
          "midi": 90,
          "name": "F#6",
          "ticks": 20160,
          "time": 59.99994,
          "velocity": 0.7637795275590551
        },
        {
          "duration": 0.27083306250000305,
          "durationTicks": 91,
          "midi": 78,
          "name": "F#5",
          "ticks": 20160,
          "time": 59.99994,
          "velocity": 0.8110236220472441
        },
        {
          "duration": 0.27083306250000305,
          "durationTicks": 91,
          "midi": 74,
          "name": "D5",
          "ticks": 20160,
          "time": 59.99994,
          "velocity": 0.7086614173228346
        },
        {
          "duration": 0.05654756250000048,
          "durationTicks": 19,
          "midi": 54,
          "name": "F#3",
          "ticks": 20208,
          "time": 60.142797,
          "velocity": 0.7637795275590551
        },
        {
          "duration": 0.05654756250000048,
          "durationTicks": 19,
          "midi": 54,
          "name": "F#3",
          "ticks": 20232,
          "time": 60.214225500000005,
          "velocity": 0.7637795275590551
        },
        {
          "duration": 0.27083306249999595,
          "durationTicks": 91,
          "midi": 86,
          "name": "D6",
          "ticks": 20256,
          "time": 60.28565400000001,
          "velocity": 0.7637795275590551
        },
        {
          "duration": 0.27083306249999595,
          "durationTicks": 91,
          "midi": 74,
          "name": "D5",
          "ticks": 20256,
          "time": 60.28565400000001,
          "velocity": 0.8110236220472441
        },
        {
          "duration": 0.27083306249999595,
          "durationTicks": 91,
          "midi": 69,
          "name": "A4",
          "ticks": 20256,
          "time": 60.28565400000001,
          "velocity": 0.7086614173228346
        },
        {
          "duration": 0.056547562499993376,
          "durationTicks": 19,
          "midi": 54,
          "name": "F#3",
          "ticks": 20304,
          "time": 60.42851100000001,
          "velocity": 0.7637795275590551
        },
        {
          "duration": 0.05654756250000048,
          "durationTicks": 19,
          "midi": 54,
          "name": "F#3",
          "ticks": 20328,
          "time": 60.4999395,
          "velocity": 0.7637795275590551
        },
        {
          "duration": 0.24702356250000435,
          "durationTicks": 83,
          "midi": 91,
          "name": "G6",
          "ticks": 20352,
          "time": 60.57136800000001,
          "velocity": 0.7637795275590551
        },
        {
          "duration": 0.24702356250000435,
          "durationTicks": 83,
          "midi": 74,
          "name": "D5",
          "ticks": 20352,
          "time": 60.57136800000001,
          "velocity": 0.7165354330708661
        },
        {
          "duration": 0.24702356250000435,
          "durationTicks": 83,
          "midi": 79,
          "name": "G5",
          "ticks": 20352,
          "time": 60.57136800000001,
          "velocity": 0.8110236220472441
        },
        {
          "duration": 0.056547562499993376,
          "durationTicks": 19,
          "midi": 55,
          "name": "G3",
          "ticks": 20400,
          "time": 60.714225000000006,
          "velocity": 0.7637795275590551
        },
        {
          "duration": 0.05654756250000048,
          "durationTicks": 19,
          "midi": 55,
          "name": "G3",
          "ticks": 20424,
          "time": 60.7856535,
          "velocity": 0.7637795275590551
        },
        {
          "duration": 0.24702356250000435,
          "durationTicks": 83,
          "midi": 91,
          "name": "G6",
          "ticks": 20448,
          "time": 60.857082000000005,
          "velocity": 0.7637795275590551
        },
        {
          "duration": 0.24702356250000435,
          "durationTicks": 83,
          "midi": 74,
          "name": "D5",
          "ticks": 20448,
          "time": 60.857082000000005,
          "velocity": 0.7165354330708661
        },
        {
          "duration": 0.24702356250000435,
          "durationTicks": 83,
          "midi": 79,
          "name": "G5",
          "ticks": 20448,
          "time": 60.857082000000005,
          "velocity": 0.8110236220472441
        },
        {
          "duration": 0.05654756250000048,
          "durationTicks": 19,
          "midi": 55,
          "name": "G3",
          "ticks": 20496,
          "time": 60.999939000000005,
          "velocity": 0.7637795275590551
        },
        {
          "duration": 0.056547562499993376,
          "durationTicks": 19,
          "midi": 55,
          "name": "G3",
          "ticks": 20520,
          "time": 61.07136750000001,
          "velocity": 0.7637795275590551
        },
        {
          "duration": 0.24702356250000435,
          "durationTicks": 83,
          "midi": 75,
          "name": "D#5",
          "ticks": 20544,
          "time": 61.142796000000004,
          "velocity": 0.7165354330708661
        },
        {
          "duration": 0.24702356250000435,
          "durationTicks": 83,
          "midi": 80,
          "name": "G#5",
          "ticks": 20544,
          "time": 61.142796000000004,
          "velocity": 0.8110236220472441
        },
        {
          "duration": 0.24702356250000435,
          "durationTicks": 83,
          "midi": 92,
          "name": "G#6",
          "ticks": 20544,
          "time": 61.142796000000004,
          "velocity": 0.7637795275590551
        },
        {
          "duration": 0.05654756250000048,
          "durationTicks": 19,
          "midi": 55,
          "name": "G3",
          "ticks": 20592,
          "time": 61.285653,
          "velocity": 0.7637795275590551
        },
        {
          "duration": 0.056547562499993376,
          "durationTicks": 19,
          "midi": 55,
          "name": "G3",
          "ticks": 20616,
          "time": 61.35708150000001,
          "velocity": 0.7637795275590551
        },
        {
          "duration": 0.24702356250000435,
          "durationTicks": 83,
          "midi": 72,
          "name": "C5",
          "ticks": 20640,
          "time": 61.42851,
          "velocity": 0.7165354330708661
        },
        {
          "duration": 0.24702356250000435,
          "durationTicks": 83,
          "midi": 77,
          "name": "F5",
          "ticks": 20640,
          "time": 61.42851,
          "velocity": 0.8110236220472441
        },
        {
          "duration": 0.24702356250000435,
          "durationTicks": 83,
          "midi": 89,
          "name": "F6",
          "ticks": 20640,
          "time": 61.42851,
          "velocity": 0.7637795275590551
        },
        {
          "duration": 0.05654756250000048,
          "durationTicks": 19,
          "midi": 55,
          "name": "G3",
          "ticks": 20688,
          "time": 61.571367,
          "velocity": 0.7637795275590551
        },
        {
          "duration": 0.05654756250000048,
          "durationTicks": 19,
          "midi": 55,
          "name": "G3",
          "ticks": 20712,
          "time": 61.642795500000005,
          "velocity": 0.7637795275590551
        },
        {
          "duration": 0.24702356250000435,
          "durationTicks": 83,
          "midi": 79,
          "name": "G5",
          "ticks": 20736,
          "time": 61.714224,
          "velocity": 0.8110236220472441
        },
        {
          "duration": 0.24702356250000435,
          "durationTicks": 83,
          "midi": 74,
          "name": "D5",
          "ticks": 20736,
          "time": 61.714224,
          "velocity": 0.7165354330708661
        },
        {
          "duration": 0.24702356250000435,
          "durationTicks": 83,
          "midi": 91,
          "name": "G6",
          "ticks": 20736,
          "time": 61.714224,
          "velocity": 0.7637795275590551
        },
        {
          "duration": 0.056547562499993376,
          "durationTicks": 19,
          "midi": 55,
          "name": "G3",
          "ticks": 20784,
          "time": 61.85708100000001,
          "velocity": 0.7637795275590551
        },
        {
          "duration": 0.05654756250000048,
          "durationTicks": 19,
          "midi": 55,
          "name": "G3",
          "ticks": 20808,
          "time": 61.928509500000004,
          "velocity": 0.7637795275590551
        },
        {
          "duration": 0.24702356249999724,
          "durationTicks": 83,
          "midi": 79,
          "name": "G5",
          "ticks": 20832,
          "time": 61.99993800000001,
          "velocity": 0.8110236220472441
        },
        {
          "duration": 0.24702356249999724,
          "durationTicks": 83,
          "midi": 74,
          "name": "D5",
          "ticks": 20832,
          "time": 61.99993800000001,
          "velocity": 0.7165354330708661
        },
        {
          "duration": 0.24702356249999724,
          "durationTicks": 83,
          "midi": 91,
          "name": "G6",
          "ticks": 20832,
          "time": 61.99993800000001,
          "velocity": 0.7637795275590551
        },
        {
          "duration": 0.056547562499993376,
          "durationTicks": 19,
          "midi": 55,
          "name": "G3",
          "ticks": 20880,
          "time": 62.14279500000001,
          "velocity": 0.7637795275590551
        },
        {
          "duration": 0.05654756250000048,
          "durationTicks": 19,
          "midi": 55,
          "name": "G3",
          "ticks": 20904,
          "time": 62.2142235,
          "velocity": 0.7637795275590551
        },
        {
          "duration": 0.1279760624999966,
          "durationTicks": 43,
          "midi": 79,
          "name": "G5",
          "ticks": 20928,
          "time": 62.285652000000006,
          "velocity": 0.8110236220472441
        },
        {
          "duration": 0.1279760624999966,
          "durationTicks": 43,
          "midi": 74,
          "name": "D5",
          "ticks": 20928,
          "time": 62.285652000000006,
          "velocity": 0.7165354330708661
        },
        {
          "duration": 0.1279760624999966,
          "durationTicks": 43,
          "midi": 91,
          "name": "G6",
          "ticks": 20928,
          "time": 62.285652000000006,
          "velocity": 0.7637795275590551
        },
        {
          "duration": 0.05654756250000048,
          "durationTicks": 19,
          "midi": 55,
          "name": "G3",
          "ticks": 20952,
          "time": 62.3570805,
          "velocity": 0.7637795275590551
        },
        {
          "duration": 0.1279760624999966,
          "durationTicks": 43,
          "midi": 77,
          "name": "F5",
          "ticks": 20976,
          "time": 62.428509000000005,
          "velocity": 0.7165354330708661
        },
        {
          "duration": 0.1279760624999966,
          "durationTicks": 43,
          "midi": 82,
          "name": "A#5",
          "ticks": 20976,
          "time": 62.428509000000005,
          "velocity": 0.8110236220472441
        },
        {
          "duration": 0.1279760624999966,
          "durationTicks": 43,
          "midi": 94,
          "name": "A#6",
          "ticks": 20976,
          "time": 62.428509000000005,
          "velocity": 0.7637795275590551
        },
        {
          "duration": 0.056547562499993376,
          "durationTicks": 19,
          "midi": 55,
          "name": "G3",
          "ticks": 21000,
          "time": 62.49993750000001,
          "velocity": 0.7637795275590551
        },
        {
          "duration": 0.1279760624999966,
          "durationTicks": 43,
          "midi": 92,
          "name": "G#6",
          "ticks": 21024,
          "time": 62.571366000000005,
          "velocity": 0.7637795275590551
        },
        {
          "duration": 0.1279760624999966,
          "durationTicks": 43,
          "midi": 80,
          "name": "G#5",
          "ticks": 21024,
          "time": 62.571366000000005,
          "velocity": 0.8110236220472441
        },
        {
          "duration": 0.1279760624999966,
          "durationTicks": 43,
          "midi": 75,
          "name": "D#5",
          "ticks": 21024,
          "time": 62.571366000000005,
          "velocity": 0.7165354330708661
        },
        {
          "duration": 0.056547562499993376,
          "durationTicks": 19,
          "midi": 55,
          "name": "G3",
          "ticks": 21048,
          "time": 62.64279450000001,
          "velocity": 0.7637795275590551
        },
        {
          "duration": 0.1279760624999966,
          "durationTicks": 43,
          "midi": 89,
          "name": "F6",
          "ticks": 21072,
          "time": 62.714223000000004,
          "velocity": 0.7637795275590551
        },
        {
          "duration": 0.1279760624999966,
          "durationTicks": 43,
          "midi": 77,
          "name": "F5",
          "ticks": 21072,
          "time": 62.714223000000004,
          "velocity": 0.8110236220472441
        },
        {
          "duration": 0.1279760624999966,
          "durationTicks": 43,
          "midi": 72,
          "name": "C5",
          "ticks": 21072,
          "time": 62.714223000000004,
          "velocity": 0.7165354330708661
        },
        {
          "duration": 0.056547562499993376,
          "durationTicks": 19,
          "midi": 55,
          "name": "G3",
          "ticks": 21096,
          "time": 62.78565150000001,
          "velocity": 0.7637795275590551
        },
        {
          "duration": 0.1279760624999966,
          "durationTicks": 43,
          "midi": 91,
          "name": "G6",
          "ticks": 21120,
          "time": 62.85708,
          "velocity": 0.7637795275590551
        },
        {
          "duration": 0.1517855625000024,
          "durationTicks": 51,
          "midi": 79,
          "name": "G5",
          "ticks": 21120,
          "time": 62.85708,
          "velocity": 0.8110236220472441
        },
        {
          "duration": 0.17559506250000112,
          "durationTicks": 59,
          "midi": 74,
          "name": "D5",
          "ticks": 21120,
          "time": 62.85708,
          "velocity": 0.7086614173228346
        },
        {
          "duration": 0.05654756250000048,
          "durationTicks": 19,
          "midi": 55,
          "name": "G3",
          "ticks": 21168,
          "time": 62.999937,
          "velocity": 0.7637795275590551
        },
        {
          "duration": 0.056547562499993376,
          "durationTicks": 19,
          "midi": 55,
          "name": "G3",
          "ticks": 21192,
          "time": 63.071365500000006,
          "velocity": 0.7637795275590551
        },
        {
          "duration": 0.1517855625000024,
          "durationTicks": 51,
          "midi": 80,
          "name": "G#5",
          "ticks": 21216,
          "time": 63.142794,
          "velocity": 0.8110236220472441
        },
        {
          "duration": 0.17559506250000823,
          "durationTicks": 59,
          "midi": 75,
          "name": "D#5",
          "ticks": 21216,
          "time": 63.142794,
          "velocity": 0.7086614173228346
        },
        {
          "duration": 0.1279760625000037,
          "durationTicks": 43,
          "midi": 92,
          "name": "G#6",
          "ticks": 21216,
          "time": 63.142794,
          "velocity": 0.7637795275590551
        },
        {
          "duration": 0.056547562499993376,
          "durationTicks": 19,
          "midi": 55,
          "name": "G3",
          "ticks": 21264,
          "time": 63.28565100000001,
          "velocity": 0.7637795275590551
        },
        {
          "duration": 0.05654756250000048,
          "durationTicks": 19,
          "midi": 55,
          "name": "G3",
          "ticks": 21288,
          "time": 63.357079500000005,
          "velocity": 0.7637795275590551
        },
        {
          "duration": 0.1517855624999953,
          "durationTicks": 51,
          "midi": 81,
          "name": "A5",
          "ticks": 21312,
          "time": 63.42850800000001,
          "velocity": 0.8110236220472441
        },
        {
          "duration": 0.17559506250000112,
          "durationTicks": 59,
          "midi": 76,
          "name": "E5",
          "ticks": 21312,
          "time": 63.42850800000001,
          "velocity": 0.7086614173228346
        },
        {
          "duration": 0.1279760624999966,
          "durationTicks": 43,
          "midi": 93,
          "name": "A6",
          "ticks": 21312,
          "time": 63.42850800000001,
          "velocity": 0.7637795275590551
        },
        {
          "duration": 0.056547562499993376,
          "durationTicks": 19,
          "midi": 55,
          "name": "G3",
          "ticks": 21360,
          "time": 63.57136500000001,
          "velocity": 0.7637795275590551
        },
        {
          "duration": 0.05654756250000048,
          "durationTicks": 19,
          "midi": 55,
          "name": "G3",
          "ticks": 21384,
          "time": 63.6427935,
          "velocity": 0.7637795275590551
        },
        {
          "duration": 0.1279760624999966,
          "durationTicks": 43,
          "midi": 94,
          "name": "A#6",
          "ticks": 21408,
          "time": 63.71422200000001,
          "velocity": 0.7637795275590551
        },
        {
          "duration": 0.17559506250000112,
          "durationTicks": 59,
          "midi": 77,
          "name": "F5",
          "ticks": 21408,
          "time": 63.71422200000001,
          "velocity": 0.7086614173228346
        },
        {
          "duration": 0.1517855624999953,
          "durationTicks": 51,
          "midi": 82,
          "name": "A#5",
          "ticks": 21408,
          "time": 63.71422200000001,
          "velocity": 0.8110236220472441
        },
        {
          "duration": 0.056547562499993376,
          "durationTicks": 19,
          "midi": 55,
          "name": "G3",
          "ticks": 21456,
          "time": 63.857079000000006,
          "velocity": 0.7637795275590551
        },
        {
          "duration": 0.05654756250000048,
          "durationTicks": 19,
          "midi": 55,
          "name": "G3",
          "ticks": 21480,
          "time": 63.9285075,
          "velocity": 0.7637795275590551
        },
        {
          "duration": 0.27083306250000305,
          "durationTicks": 91,
          "midi": 82,
          "name": "A#5",
          "ticks": 21504,
          "time": 63.999936000000005,
          "velocity": 0.7165354330708661
        },
        {
          "duration": 0.24702356250000435,
          "durationTicks": 83,
          "midi": 99,
          "name": "D#7",
          "ticks": 21504,
          "time": 63.999936000000005,
          "velocity": 0.7637795275590551
        },
        {
          "duration": 0.24702356250000435,
          "durationTicks": 83,
          "midi": 87,
          "name": "D#6",
          "ticks": 21504,
          "time": 63.999936000000005,
          "velocity": 0.8110236220472441
        },
        {
          "duration": 0.05654756249998627,
          "durationTicks": 19,
          "midi": 55,
          "name": "G3",
          "ticks": 21552,
          "time": 64.14279300000001,
          "velocity": 0.7637795275590551
        },
        {
          "duration": 0.05654756250000048,
          "durationTicks": 19,
          "midi": 55,
          "name": "G3",
          "ticks": 21576,
          "time": 64.21422150000001,
          "velocity": 0.7637795275590551
        },
        {
          "duration": 0.24702356250000435,
          "durationTicks": 83,
          "midi": 98,
          "name": "D7",
          "ticks": 21600,
          "time": 64.28565,
          "velocity": 0.7637795275590551
        },
        {
          "duration": 0.27083306250000305,
          "durationTicks": 91,
          "midi": 82,
          "name": "A#5",
          "ticks": 21600,
          "time": 64.28565,
          "velocity": 0.7165354330708661
        },
        {
          "duration": 0.24702356250000435,
          "durationTicks": 83,
          "midi": 86,
          "name": "D6",
          "ticks": 21600,
          "time": 64.28565,
          "velocity": 0.8110236220472441
        },
        {
          "duration": 0.05654756250001469,
          "durationTicks": 19,
          "midi": 55,
          "name": "G3",
          "ticks": 21640,
          "time": 64.4046975,
          "velocity": 0.7637795275590551
        },
        {
          "duration": 0.05654756250000048,
          "durationTicks": 19,
          "midi": 55,
          "name": "G3",
          "ticks": 21664,
          "time": 64.47612600000001,
          "velocity": 0.7637795275590551
        },
        {
          "duration": 0.1279760624999966,
          "durationTicks": 43,
          "midi": 98,
          "name": "D7",
          "ticks": 21696,
          "time": 64.571364,
          "velocity": 0.7637795275590551
        },
        {
          "duration": 0.1279760624999966,
          "durationTicks": 43,
          "midi": 86,
          "name": "D6",
          "ticks": 21696,
          "time": 64.571364,
          "velocity": 0.8110236220472441
        },
        {
          "duration": 0.1279760624999966,
          "durationTicks": 43,
          "midi": 82,
          "name": "A#5",
          "ticks": 21696,
          "time": 64.571364,
          "velocity": 0.7165354330708661
        },
        {
          "duration": 0.05654756250000048,
          "durationTicks": 19,
          "midi": 55,
          "name": "G3",
          "ticks": 21720,
          "time": 64.6427925,
          "velocity": 0.7637795275590551
        },
        {
          "duration": 0.05654756250000048,
          "durationTicks": 19,
          "midi": 99,
          "name": "D#7",
          "ticks": 21744,
          "time": 64.71422100000001,
          "velocity": 0.7637795275590551
        },
        {
          "duration": 0.05654756250000048,
          "durationTicks": 19,
          "midi": 83,
          "name": "B5",
          "ticks": 21744,
          "time": 64.71422100000001,
          "velocity": 0.7165354330708661
        },
        {
          "duration": 0.05654756250000048,
          "durationTicks": 19,
          "midi": 87,
          "name": "D#6",
          "ticks": 21744,
          "time": 64.71422100000001,
          "velocity": 0.8110236220472441
        },
        {
          "duration": 0.05654756250000048,
          "durationTicks": 19,
          "midi": 55,
          "name": "G3",
          "ticks": 21768,
          "time": 64.7856495,
          "velocity": 0.7637795275590551
        },
        {
          "duration": 0.1279760624999966,
          "durationTicks": 43,
          "midi": 84,
          "name": "C6",
          "ticks": 21792,
          "time": 64.857078,
          "velocity": 0.7165354330708661
        },
        {
          "duration": 0.1279760624999966,
          "durationTicks": 43,
          "midi": 88,
          "name": "E6",
          "ticks": 21792,
          "time": 64.857078,
          "velocity": 0.8110236220472441
        },
        {
          "duration": 0.1279760624999966,
          "durationTicks": 43,
          "midi": 100,
          "name": "E7",
          "ticks": 21792,
          "time": 64.857078,
          "velocity": 0.7637795275590551
        },
        {
          "duration": 0.05654756249998627,
          "durationTicks": 19,
          "midi": 55,
          "name": "G3",
          "ticks": 21816,
          "time": 64.92850650000001,
          "velocity": 0.7637795275590551
        },
        {
          "duration": 0.05654756250000048,
          "durationTicks": 19,
          "midi": 90,
          "name": "F#6",
          "ticks": 21840,
          "time": 64.99993500000001,
          "velocity": 0.8110236220472441
        },
        {
          "duration": 0.05654756250000048,
          "durationTicks": 19,
          "midi": 102,
          "name": "F#7",
          "ticks": 21840,
          "time": 64.99993500000001,
          "velocity": 0.7637795275590551
        },
        {
          "duration": 0.05654756250000048,
          "durationTicks": 19,
          "midi": 86,
          "name": "D6",
          "ticks": 21840,
          "time": 64.99993500000001,
          "velocity": 0.7165354330708661
        },
        {
          "duration": 0.05654756250000048,
          "durationTicks": 19,
          "midi": 55,
          "name": "G3",
          "ticks": 21864,
          "time": 65.0713635,
          "velocity": 0.7637795275590551
        },
        {
          "duration": 2.261902500000005,
          "durationTicks": 760,
          "midi": 91,
          "name": "G6",
          "ticks": 21888,
          "time": 65.142792,
          "velocity": 0.8110236220472441
        },
        {
          "duration": 2.261902500000005,
          "durationTicks": 760,
          "midi": 103,
          "name": "G7",
          "ticks": 21888,
          "time": 65.142792,
          "velocity": 0.8110236220472441
        },
        {
          "duration": 2.270831062500008,
          "durationTicks": 763,
          "midi": 86,
          "name": "D6",
          "ticks": 21888,
          "time": 65.142792,
          "velocity": 0.7637795275590551
        },
        {
          "duration": 0.27083306250000305,
          "durationTicks": 91,
          "midi": 67,
          "name": "G4",
          "ticks": 32640,
          "time": 97.14276000000001,
          "velocity": 0.7559055118110236
        },
        {
          "duration": 0.27083306250000305,
          "durationTicks": 91,
          "midi": 70,
          "name": "A#4",
          "ticks": 32640,
          "time": 97.14276000000001,
          "velocity": 0.8346456692913385
        },
        {
          "duration": 0.27083306250000305,
          "durationTicks": 91,
          "midi": 70,
          "name": "A#4",
          "ticks": 32784,
          "time": 97.57133100000001,
          "velocity": 0.7559055118110236
        },
        {
          "duration": 0.27083306250000305,
          "durationTicks": 91,
          "midi": 74,
          "name": "D5",
          "ticks": 32784,
          "time": 97.57133100000001,
          "velocity": 0.8346456692913385
        },
        {
          "duration": 0.27083306250000305,
          "durationTicks": 91,
          "midi": 70,
          "name": "A#4",
          "ticks": 32928,
          "time": 97.999902,
          "velocity": 0.8346456692913385
        },
        {
          "duration": 0.27083306250000305,
          "durationTicks": 91,
          "midi": 67,
          "name": "G4",
          "ticks": 32928,
          "time": 97.999902,
          "velocity": 0.7559055118110236
        },
        {
          "duration": 0.27083306250000305,
          "durationTicks": 91,
          "midi": 72,
          "name": "C5",
          "ticks": 33024,
          "time": 98.285616,
          "velocity": 0.8346456692913385
        },
        {
          "duration": 0.27083306250000305,
          "durationTicks": 91,
          "midi": 69,
          "name": "A4",
          "ticks": 33024,
          "time": 98.285616,
          "velocity": 0.7559055118110236
        },
        {
          "duration": 0.27083306250000305,
          "durationTicks": 91,
          "midi": 66,
          "name": "F#4",
          "ticks": 33168,
          "time": 98.71418700000001,
          "velocity": 0.7559055118110236
        },
        {
          "duration": 0.27083306250000305,
          "durationTicks": 91,
          "midi": 69,
          "name": "A4",
          "ticks": 33168,
          "time": 98.71418700000001,
          "velocity": 0.8346456692913385
        },
        {
          "duration": 0.27083306250000305,
          "durationTicks": 91,
          "midi": 69,
          "name": "A4",
          "ticks": 33312,
          "time": 99.14275800000001,
          "velocity": 0.7559055118110236
        },
        {
          "duration": 0.27083306250000305,
          "durationTicks": 91,
          "midi": 72,
          "name": "C5",
          "ticks": 33312,
          "time": 99.14275800000001,
          "velocity": 0.8346456692913385
        },
        {
          "duration": 0.27083306250000305,
          "durationTicks": 91,
          "midi": 67,
          "name": "G4",
          "ticks": 33408,
          "time": 99.42847200000001,
          "velocity": 0.7559055118110236
        },
        {
          "duration": 0.27083306250000305,
          "durationTicks": 91,
          "midi": 71,
          "name": "B4",
          "ticks": 33408,
          "time": 99.42847200000001,
          "velocity": 0.8346456692913385
        },
        {
          "duration": 0.27083306250000305,
          "durationTicks": 91,
          "midi": 71,
          "name": "B4",
          "ticks": 33552,
          "time": 99.857043,
          "velocity": 0.7559055118110236
        },
        {
          "duration": 0.27083306250000305,
          "durationTicks": 91,
          "midi": 74,
          "name": "D5",
          "ticks": 33552,
          "time": 99.857043,
          "velocity": 0.8346456692913385
        },
        {
          "duration": 0.27083306250000305,
          "durationTicks": 91,
          "midi": 74,
          "name": "D5",
          "ticks": 33696,
          "time": 100.28561400000001,
          "velocity": 0.7559055118110236
        },
        {
          "duration": 0.27083306250000305,
          "durationTicks": 91,
          "midi": 77,
          "name": "F5",
          "ticks": 33696,
          "time": 100.28561400000001,
          "velocity": 0.8346456692913385
        },
        {
          "duration": 0.27083306250000305,
          "durationTicks": 91,
          "midi": 75,
          "name": "D#5",
          "ticks": 33792,
          "time": 100.57132800000001,
          "velocity": 0.8346456692913385
        },
        {
          "duration": 0.27083306250000305,
          "durationTicks": 91,
          "midi": 72,
          "name": "C5",
          "ticks": 33792,
          "time": 100.57132800000001,
          "velocity": 0.7559055118110236
        },
        {
          "duration": 0.27083306250000305,
          "durationTicks": 91,
          "midi": 67,
          "name": "G4",
          "ticks": 33936,
          "time": 100.99989900000001,
          "velocity": 0.7559055118110236
        },
        {
          "duration": 0.27083306250000305,
          "durationTicks": 91,
          "midi": 72,
          "name": "C5",
          "ticks": 33936,
          "time": 100.99989900000001,
          "velocity": 0.8346456692913385
        },
        {
          "duration": 0.27083306250000305,
          "durationTicks": 91,
          "midi": 72,
          "name": "C5",
          "ticks": 34080,
          "time": 101.42847,
          "velocity": 0.7559055118110236
        },
        {
          "duration": 0.27083306250000305,
          "durationTicks": 91,
          "midi": 75,
          "name": "D#5",
          "ticks": 34080,
          "time": 101.42847,
          "velocity": 0.8346456692913385
        },
        {
          "duration": 0.27083306250001726,
          "durationTicks": 91,
          "midi": 75,
          "name": "D#5",
          "ticks": 34176,
          "time": 101.714184,
          "velocity": 0.7559055118110236
        },
        {
          "duration": 0.27083306250001726,
          "durationTicks": 91,
          "midi": 79,
          "name": "G5",
          "ticks": 34176,
          "time": 101.714184,
          "velocity": 0.8346456692913385
        },
        {
          "duration": 0.27083306250000305,
          "durationTicks": 91,
          "midi": 72,
          "name": "C5",
          "ticks": 34320,
          "time": 102.14275500000001,
          "velocity": 0.8346456692913385
        },
        {
          "duration": 0.27083306250000305,
          "durationTicks": 91,
          "midi": 67,
          "name": "G4",
          "ticks": 34320,
          "time": 102.14275500000001,
          "velocity": 0.7559055118110236
        },
        {
          "duration": 0.27083306250000305,
          "durationTicks": 91,
          "midi": 79,
          "name": "G5",
          "ticks": 34464,
          "time": 102.57132600000001,
          "velocity": 0.8346456692913385
        },
        {
          "duration": 0.27083306250000305,
          "durationTicks": 91,
          "midi": 75,
          "name": "D#5",
          "ticks": 34464,
          "time": 102.57132600000001,
          "velocity": 0.7559055118110236
        },
        {
          "duration": 0.27083306250000305,
          "durationTicks": 91,
          "midi": 74,
          "name": "D5",
          "ticks": 34560,
          "time": 102.85704000000001,
          "velocity": 0.8346456692913385
        },
        {
          "duration": 0.27083306250000305,
          "durationTicks": 91,
          "midi": 70,
          "name": "A#4",
          "ticks": 34560,
          "time": 102.85704000000001,
          "velocity": 0.7559055118110236
        },
        {
          "duration": 0.27083306250001726,
          "durationTicks": 91,
          "midi": 67,
          "name": "G4",
          "ticks": 34704,
          "time": 103.285611,
          "velocity": 0.7559055118110236
        },
        {
          "duration": 0.27083306250001726,
          "durationTicks": 91,
          "midi": 70,
          "name": "A#4",
          "ticks": 34704,
          "time": 103.285611,
          "velocity": 0.8346456692913385
        },
        {
          "duration": 0.27083306250000305,
          "durationTicks": 91,
          "midi": 70,
          "name": "A#4",
          "ticks": 34848,
          "time": 103.71418200000001,
          "velocity": 0.7559055118110236
        },
        {
          "duration": 0.27083306250000305,
          "durationTicks": 91,
          "midi": 74,
          "name": "D5",
          "ticks": 34848,
          "time": 103.71418200000001,
          "velocity": 0.8346456692913385
        },
        {
          "duration": 0.27083306250000305,
          "durationTicks": 91,
          "midi": 69,
          "name": "A4",
          "ticks": 34944,
          "time": 103.999896,
          "velocity": 0.7559055118110236
        },
        {
          "duration": 0.27083306250000305,
          "durationTicks": 91,
          "midi": 73,
          "name": "C#5",
          "ticks": 34944,
          "time": 103.999896,
          "velocity": 0.8346456692913385
        },
        {
          "duration": 0.27083306250000305,
          "durationTicks": 91,
          "midi": 69,
          "name": "A4",
          "ticks": 35088,
          "time": 104.42846700000001,
          "velocity": 0.8346456692913385
        },
        {
          "duration": 0.27083306250000305,
          "durationTicks": 91,
          "midi": 64,
          "name": "E4",
          "ticks": 35088,
          "time": 104.42846700000001,
          "velocity": 0.7559055118110236
        },
        {
          "duration": 0.27083306250001726,
          "durationTicks": 91,
          "midi": 73,
          "name": "C#5",
          "ticks": 35232,
          "time": 104.857038,
          "velocity": 0.8346456692913385
        },
        {
          "duration": 0.27083306250001726,
          "durationTicks": 91,
          "midi": 69,
          "name": "A4",
          "ticks": 35232,
          "time": 104.857038,
          "velocity": 0.7559055118110236
        },
        {
          "duration": 0.27083306250001726,
          "durationTicks": 91,
          "midi": 74,
          "name": "D5",
          "ticks": 35328,
          "time": 105.142752,
          "velocity": 0.8346456692913385
        },
        {
          "duration": 0.27083306250001726,
          "durationTicks": 91,
          "midi": 69,
          "name": "A4",
          "ticks": 35328,
          "time": 105.142752,
          "velocity": 0.7559055118110236
        },
        {
          "duration": 0.27083306250000305,
          "durationTicks": 91,
          "midi": 74,
          "name": "D5",
          "ticks": 35472,
          "time": 105.571323,
          "velocity": 0.8346456692913385
        },
        {
          "duration": 0.27083306250000305,
          "durationTicks": 91,
          "midi": 69,
          "name": "A4",
          "ticks": 35472,
          "time": 105.571323,
          "velocity": 0.7559055118110236
        },
        {
          "duration": 0.27083306250000305,
          "durationTicks": 91,
          "midi": 74,
          "name": "D5",
          "ticks": 35616,
          "time": 105.99989400000001,
          "velocity": 0.7559055118110236
        },
        {
          "duration": 0.27083306250000305,
          "durationTicks": 91,
          "midi": 78,
          "name": "F#5",
          "ticks": 35616,
          "time": 105.99989400000001,
          "velocity": 0.8346456692913385
        },
        {
          "duration": 0.27083306250000305,
          "durationTicks": 91,
          "midi": 67,
          "name": "G4",
          "ticks": 35712,
          "time": 106.28560800000001,
          "velocity": 0.7401574803149606
        },
        {
          "duration": 0.27083306250000305,
          "durationTicks": 91,
          "midi": 70,
          "name": "A#4",
          "ticks": 35712,
          "time": 106.28560800000001,
          "velocity": 0.8346456692913385
        },
        {
          "duration": 0.27083306250000305,
          "durationTicks": 91,
          "midi": 74,
          "name": "D5",
          "ticks": 35856,
          "time": 106.71417900000002,
          "velocity": 0.8346456692913385
        },
        {
          "duration": 0.27083306250000305,
          "durationTicks": 91,
          "midi": 70,
          "name": "A#4",
          "ticks": 35856,
          "time": 106.71417900000002,
          "velocity": 0.7401574803149606
        },
        {
          "duration": 0.27083306250000305,
          "durationTicks": 91,
          "midi": 67,
          "name": "G4",
          "ticks": 36000,
          "time": 107.14275,
          "velocity": 0.7401574803149606
        },
        {
          "duration": 0.27083306250000305,
          "durationTicks": 91,
          "midi": 70,
          "name": "A#4",
          "ticks": 36000,
          "time": 107.14275,
          "velocity": 0.8346456692913385
        },
        {
          "duration": 0.27083306250000305,
          "durationTicks": 91,
          "midi": 69,
          "name": "A4",
          "ticks": 36096,
          "time": 107.428464,
          "velocity": 0.7401574803149606
        },
        {
          "duration": 0.27083306250000305,
          "durationTicks": 91,
          "midi": 72,
          "name": "C5",
          "ticks": 36096,
          "time": 107.428464,
          "velocity": 0.8346456692913385
        },
        {
          "duration": 0.27083306250000305,
          "durationTicks": 91,
          "midi": 69,
          "name": "A4",
          "ticks": 36240,
          "time": 107.85703500000001,
          "velocity": 0.8346456692913385
        },
        {
          "duration": 0.27083306250000305,
          "durationTicks": 91,
          "midi": 66,
          "name": "F#4",
          "ticks": 36240,
          "time": 107.85703500000001,
          "velocity": 0.7401574803149606
        },
        {
          "duration": 0.27083306250000305,
          "durationTicks": 91,
          "midi": 72,
          "name": "C5",
          "ticks": 36384,
          "time": 108.28560600000002,
          "velocity": 0.8346456692913385
        },
        {
          "duration": 0.27083306250000305,
          "durationTicks": 91,
          "midi": 69,
          "name": "A4",
          "ticks": 36384,
          "time": 108.28560600000002,
          "velocity": 0.7401574803149606
        },
        {
          "duration": 0.27083306250000305,
          "durationTicks": 91,
          "midi": 71,
          "name": "B4",
          "ticks": 36480,
          "time": 108.57132000000001,
          "velocity": 0.8346456692913385
        },
        {
          "duration": 0.27083306250000305,
          "durationTicks": 91,
          "midi": 67,
          "name": "G4",
          "ticks": 36480,
          "time": 108.57132000000001,
          "velocity": 0.7401574803149606
        },
        {
          "duration": 0.27083306250000305,
          "durationTicks": 91,
          "midi": 74,
          "name": "D5",
          "ticks": 36624,
          "time": 108.999891,
          "velocity": 0.8346456692913385
        },
        {
          "duration": 0.27083306250000305,
          "durationTicks": 91,
          "midi": 71,
          "name": "B4",
          "ticks": 36624,
          "time": 108.999891,
          "velocity": 0.7401574803149606
        },
        {
          "duration": 0.27083306250000305,
          "durationTicks": 91,
          "midi": 74,
          "name": "D5",
          "ticks": 36768,
          "time": 109.42846200000001,
          "velocity": 0.7401574803149606
        },
        {
          "duration": 0.27083306250000305,
          "durationTicks": 91,
          "midi": 77,
          "name": "F5",
          "ticks": 36768,
          "time": 109.42846200000001,
          "velocity": 0.8346456692913385
        },
        {
          "duration": 0.27083306250000305,
          "durationTicks": 91,
          "midi": 72,
          "name": "C5",
          "ticks": 36864,
          "time": 109.71417600000001,
          "velocity": 0.7401574803149606
        },
        {
          "duration": 0.27083306250000305,
          "durationTicks": 91,
          "midi": 75,
          "name": "D#5",
          "ticks": 36864,
          "time": 109.71417600000001,
          "velocity": 0.8346456692913385
        },
        {
          "duration": 0.27083306250000305,
          "durationTicks": 91,
          "midi": 67,
          "name": "G4",
          "ticks": 37008,
          "time": 110.14274700000001,
          "velocity": 0.7401574803149606
        },
        {
          "duration": 0.27083306250000305,
          "durationTicks": 91,
          "midi": 72,
          "name": "C5",
          "ticks": 37008,
          "time": 110.14274700000001,
          "velocity": 0.8346456692913385
        },
        {
          "duration": 0.27083306250000305,
          "durationTicks": 91,
          "midi": 72,
          "name": "C5",
          "ticks": 37152,
          "time": 110.571318,
          "velocity": 0.7401574803149606
        },
        {
          "duration": 0.27083306250000305,
          "durationTicks": 91,
          "midi": 75,
          "name": "D#5",
          "ticks": 37152,
          "time": 110.571318,
          "velocity": 0.8346456692913385
        },
        {
          "duration": 0.27083306250001726,
          "durationTicks": 91,
          "midi": 79,
          "name": "G5",
          "ticks": 37248,
          "time": 110.857032,
          "velocity": 0.8346456692913385
        },
        {
          "duration": 0.27083306250001726,
          "durationTicks": 91,
          "midi": 75,
          "name": "D#5",
          "ticks": 37248,
          "time": 110.857032,
          "velocity": 0.7401574803149606
        },
        {
          "duration": 0.27083306250000305,
          "durationTicks": 91,
          "midi": 67,
          "name": "G4",
          "ticks": 37392,
          "time": 111.28560300000001,
          "velocity": 0.7401574803149606
        },
        {
          "duration": 0.27083306250000305,
          "durationTicks": 91,
          "midi": 72,
          "name": "C5",
          "ticks": 37392,
          "time": 111.28560300000001,
          "velocity": 0.8346456692913385
        },
        {
          "duration": 0.27083306250000305,
          "durationTicks": 91,
          "midi": 79,
          "name": "G5",
          "ticks": 37536,
          "time": 111.71417400000001,
          "velocity": 0.8346456692913385
        },
        {
          "duration": 0.27083306250000305,
          "durationTicks": 91,
          "midi": 75,
          "name": "D#5",
          "ticks": 37536,
          "time": 111.71417400000001,
          "velocity": 0.7401574803149606
        },
        {
          "duration": 0.27083306250000305,
          "durationTicks": 91,
          "midi": 82,
          "name": "A#5",
          "ticks": 37632,
          "time": 111.99988800000001,
          "velocity": 0.8346456692913385
        },
        {
          "duration": 0.27083306250000305,
          "durationTicks": 91,
          "midi": 79,
          "name": "G5",
          "ticks": 37632,
          "time": 111.99988800000001,
          "velocity": 0.7401574803149606
        },
        {
          "duration": 0.27083306250001726,
          "durationTicks": 91,
          "midi": 78,
          "name": "F#5",
          "ticks": 37776,
          "time": 112.428459,
          "velocity": 0.7401574803149606
        },
        {
          "duration": 0.27083306250001726,
          "durationTicks": 91,
          "midi": 81,
          "name": "A5",
          "ticks": 37776,
          "time": 112.428459,
          "velocity": 0.8346456692913385
        },
        {
          "duration": 0.27083306250000305,
          "durationTicks": 91,
          "midi": 79,
          "name": "G5",
          "ticks": 37920,
          "time": 112.85703000000001,
          "velocity": 0.8346456692913385
        },
        {
          "duration": 0.27083306250000305,
          "durationTicks": 91,
          "midi": 74,
          "name": "D5",
          "ticks": 37920,
          "time": 112.85703000000001,
          "velocity": 0.7401574803149606
        },
        {
          "duration": 0.27083306250000305,
          "durationTicks": 91,
          "midi": 78,
          "name": "F#5",
          "ticks": 38016,
          "time": 113.14274400000001,
          "velocity": 0.7401574803149606
        },
        {
          "duration": 0.27083306250000305,
          "durationTicks": 91,
          "midi": 81,
          "name": "A5",
          "ticks": 38016,
          "time": 113.14274400000001,
          "velocity": 0.8346456692913385
        },
        {
          "duration": 0.27083306250000305,
          "durationTicks": 91,
          "midi": 74,
          "name": "D5",
          "ticks": 38160,
          "time": 113.57131500000001,
          "velocity": 0.8267716535433071
        },
        {
          "duration": 0.27083306250000305,
          "durationTicks": 91,
          "midi": 81,
          "name": "A5",
          "ticks": 38160,
          "time": 113.57131500000001,
          "velocity": 0.8346456692913385
        },
        {
          "duration": 0.1279760625000108,
          "durationTicks": 43,
          "midi": 78,
          "name": "F#5",
          "ticks": 38304,
          "time": 113.999886,
          "velocity": 0.7401574803149606
        },
        {
          "duration": 0.1279760625000108,
          "durationTicks": 43,
          "midi": 81,
          "name": "A5",
          "ticks": 38304,
          "time": 113.999886,
          "velocity": 0.8346456692913385
        },
        {
          "duration": 0.1279760625000108,
          "durationTicks": 43,
          "midi": 79,
          "name": "G5",
          "ticks": 38352,
          "time": 114.14274300000001,
          "velocity": 0.8346456692913385
        },
        {
          "duration": 0.1279760625000108,
          "durationTicks": 43,
          "midi": 76,
          "name": "E5",
          "ticks": 38352,
          "time": 114.14274300000001,
          "velocity": 0.7401574803149606
        },
        {
          "duration": 0.1279760624999966,
          "durationTicks": 43,
          "midi": 74,
          "name": "D5",
          "ticks": 38400,
          "time": 114.28560000000002,
          "velocity": 0.7401574803149606
        },
        {
          "duration": 0.1279760624999966,
          "durationTicks": 43,
          "midi": 78,
          "name": "F#5",
          "ticks": 38400,
          "time": 114.28560000000002,
          "velocity": 0.8346456692913385
        },
        {
          "duration": 0.1279760625000108,
          "durationTicks": 43,
          "midi": 78,
          "name": "F#5",
          "ticks": 38472,
          "time": 114.4998855,
          "velocity": 0.8346456692913385
        },
        {
          "duration": 0.1279760625000108,
          "durationTicks": 43,
          "midi": 74,
          "name": "D5",
          "ticks": 38472,
          "time": 114.4998855,
          "velocity": 0.7401574803149606
        },
        {
          "duration": 0.1279760625000108,
          "durationTicks": 43,
          "midi": 78,
          "name": "F#5",
          "ticks": 38544,
          "time": 114.71417100000001,
          "velocity": 0.8346456692913385
        },
        {
          "duration": 0.1279760625000108,
          "durationTicks": 43,
          "midi": 74,
          "name": "D5",
          "ticks": 38544,
          "time": 114.71417100000001,
          "velocity": 0.7401574803149606
        },
        {
          "duration": 0.1279760625000108,
          "durationTicks": 43,
          "midi": 81,
          "name": "A5",
          "ticks": 38640,
          "time": 114.999885,
          "velocity": 0.8346456692913385
        },
        {
          "duration": 0.1279760625000108,
          "durationTicks": 43,
          "midi": 78,
          "name": "F#5",
          "ticks": 38640,
          "time": 114.999885,
          "velocity": 0.7401574803149606
        },
        {
          "duration": 0.1279760624999966,
          "durationTicks": 43,
          "midi": 81,
          "name": "A5",
          "ticks": 38688,
          "time": 115.14274200000001,
          "velocity": 0.8346456692913385
        },
        {
          "duration": 0.1279760624999966,
          "durationTicks": 43,
          "midi": 78,
          "name": "F#5",
          "ticks": 38688,
          "time": 115.14274200000001,
          "velocity": 0.7401574803149606
        },
        {
          "duration": 0.1279760625000108,
          "durationTicks": 43,
          "midi": 81,
          "name": "A5",
          "ticks": 38736,
          "time": 115.285599,
          "velocity": 0.8346456692913385
        },
        {
          "duration": 0.1279760625000108,
          "durationTicks": 43,
          "midi": 78,
          "name": "F#5",
          "ticks": 38736,
          "time": 115.285599,
          "velocity": 0.7401574803149606
        },
        {
          "duration": 0.27083306250000305,
          "durationTicks": 91,
          "midi": 70,
          "name": "A#4",
          "ticks": 38784,
          "time": 115.42845600000001,
          "velocity": 0.8346456692913385
        },
        {
          "duration": 0.27083306250000305,
          "durationTicks": 91,
          "midi": 67,
          "name": "G4",
          "ticks": 38784,
          "time": 115.42845600000001,
          "velocity": 0.7559055118110236
        },
        {
          "duration": 0.27083306250000305,
          "durationTicks": 91,
          "midi": 74,
          "name": "D5",
          "ticks": 38928,
          "time": 115.85702700000002,
          "velocity": 0.8346456692913385
        },
        {
          "duration": 0.27083306250000305,
          "durationTicks": 91,
          "midi": 70,
          "name": "A#4",
          "ticks": 38928,
          "time": 115.85702700000002,
          "velocity": 0.7559055118110236
        },
        {
          "duration": 0.27083306250000305,
          "durationTicks": 91,
          "midi": 67,
          "name": "G4",
          "ticks": 39072,
          "time": 116.28559800000001,
          "velocity": 0.7559055118110236
        },
        {
          "duration": 0.27083306250000305,
          "durationTicks": 91,
          "midi": 70,
          "name": "A#4",
          "ticks": 39072,
          "time": 116.28559800000001,
          "velocity": 0.8346456692913385
        },
        {
          "duration": 0.27083306250000305,
          "durationTicks": 91,
          "midi": 72,
          "name": "C5",
          "ticks": 39168,
          "time": 116.571312,
          "velocity": 0.8346456692913385
        },
        {
          "duration": 0.27083306250000305,
          "durationTicks": 91,
          "midi": 69,
          "name": "A4",
          "ticks": 39168,
          "time": 116.571312,
          "velocity": 0.7559055118110236
        },
        {
          "duration": 0.27083306250000305,
          "durationTicks": 91,
          "midi": 66,
          "name": "F#4",
          "ticks": 39312,
          "time": 116.99988300000001,
          "velocity": 0.7559055118110236
        },
        {
          "duration": 0.27083306250000305,
          "durationTicks": 91,
          "midi": 69,
          "name": "A4",
          "ticks": 39312,
          "time": 116.99988300000001,
          "velocity": 0.8346456692913385
        },
        {
          "duration": 0.27083306250000305,
          "durationTicks": 91,
          "midi": 69,
          "name": "A4",
          "ticks": 39456,
          "time": 117.42845400000002,
          "velocity": 0.7559055118110236
        },
        {
          "duration": 0.27083306250000305,
          "durationTicks": 91,
          "midi": 72,
          "name": "C5",
          "ticks": 39456,
          "time": 117.42845400000002,
          "velocity": 0.8346456692913385
        },
        {
          "duration": 0.27083306250000305,
          "durationTicks": 91,
          "midi": 67,
          "name": "G4",
          "ticks": 39552,
          "time": 117.71416800000002,
          "velocity": 0.7559055118110236
        },
        {
          "duration": 0.27083306250000305,
          "durationTicks": 91,
          "midi": 71,
          "name": "B4",
          "ticks": 39552,
          "time": 117.71416800000002,
          "velocity": 0.8346456692913385
        },
        {
          "duration": 0.27083306250000305,
          "durationTicks": 91,
          "midi": 74,
          "name": "D5",
          "ticks": 39696,
          "time": 118.142739,
          "velocity": 0.8346456692913385
        },
        {
          "duration": 0.27083306250000305,
          "durationTicks": 91,
          "midi": 71,
          "name": "B4",
          "ticks": 39696,
          "time": 118.142739,
          "velocity": 0.7559055118110236
        },
        {
          "duration": 0.27083306250000305,
          "durationTicks": 91,
          "midi": 74,
          "name": "D5",
          "ticks": 39840,
          "time": 118.57131000000001,
          "velocity": 0.7559055118110236
        },
        {
          "duration": 0.27083306250000305,
          "durationTicks": 91,
          "midi": 77,
          "name": "F5",
          "ticks": 39840,
          "time": 118.57131000000001,
          "velocity": 0.8346456692913385
        },
        {
          "duration": 0.27083306250000305,
          "durationTicks": 91,
          "midi": 72,
          "name": "C5",
          "ticks": 39936,
          "time": 118.85702400000001,
          "velocity": 0.7559055118110236
        },
        {
          "duration": 0.27083306250000305,
          "durationTicks": 91,
          "midi": 75,
          "name": "D#5",
          "ticks": 39936,
          "time": 118.85702400000001,
          "velocity": 0.8346456692913385
        },
        {
          "duration": 0.27083306250000305,
          "durationTicks": 91,
          "midi": 67,
          "name": "G4",
          "ticks": 40080,
          "time": 119.28559500000001,
          "velocity": 0.7559055118110236
        },
        {
          "duration": 0.27083306250000305,
          "durationTicks": 91,
          "midi": 72,
          "name": "C5",
          "ticks": 40080,
          "time": 119.28559500000001,
          "velocity": 0.8346456692913385
        },
        {
          "duration": 0.27083306250000305,
          "durationTicks": 91,
          "midi": 75,
          "name": "D#5",
          "ticks": 40224,
          "time": 119.714166,
          "velocity": 0.8346456692913385
        },
        {
          "duration": 0.27083306250000305,
          "durationTicks": 91,
          "midi": 72,
          "name": "C5",
          "ticks": 40224,
          "time": 119.714166,
          "velocity": 0.7559055118110236
        },
        {
          "duration": 0.27083306250001726,
          "durationTicks": 91,
          "midi": 79,
          "name": "G5",
          "ticks": 40320,
          "time": 119.99988,
          "velocity": 0.8346456692913385
        },
        {
          "duration": 0.27083306250001726,
          "durationTicks": 91,
          "midi": 75,
          "name": "D#5",
          "ticks": 40320,
          "time": 119.99988,
          "velocity": 0.7559055118110236
        },
        {
          "duration": 0.27083306250000305,
          "durationTicks": 91,
          "midi": 67,
          "name": "G4",
          "ticks": 40464,
          "time": 120.42845100000001,
          "velocity": 0.7559055118110236
        },
        {
          "duration": 0.27083306250000305,
          "durationTicks": 91,
          "midi": 72,
          "name": "C5",
          "ticks": 40464,
          "time": 120.42845100000001,
          "velocity": 0.8346456692913385
        },
        {
          "duration": 0.27083306250000305,
          "durationTicks": 91,
          "midi": 79,
          "name": "G5",
          "ticks": 40608,
          "time": 120.85702200000001,
          "velocity": 0.8346456692913385
        },
        {
          "duration": 0.27083306250000305,
          "durationTicks": 91,
          "midi": 75,
          "name": "D#5",
          "ticks": 40608,
          "time": 120.85702200000001,
          "velocity": 0.7559055118110236
        },
        {
          "duration": 0.27083306250000305,
          "durationTicks": 91,
          "midi": 70,
          "name": "A#4",
          "ticks": 40704,
          "time": 121.14273600000001,
          "velocity": 0.7559055118110236
        },
        {
          "duration": 0.27083306250000305,
          "durationTicks": 91,
          "midi": 74,
          "name": "D5",
          "ticks": 40704,
          "time": 121.14273600000001,
          "velocity": 0.8346456692913385
        },
        {
          "duration": 0.27083306250001726,
          "durationTicks": 91,
          "midi": 70,
          "name": "A#4",
          "ticks": 40848,
          "time": 121.571307,
          "velocity": 0.8346456692913385
        },
        {
          "duration": 0.27083306250001726,
          "durationTicks": 91,
          "midi": 67,
          "name": "G4",
          "ticks": 40848,
          "time": 121.571307,
          "velocity": 0.7559055118110236
        },
        {
          "duration": 0.27083306250000305,
          "durationTicks": 91,
          "midi": 74,
          "name": "D5",
          "ticks": 40992,
          "time": 121.99987800000001,
          "velocity": 0.8346456692913385
        },
        {
          "duration": 0.27083306250000305,
          "durationTicks": 91,
          "midi": 70,
          "name": "A#4",
          "ticks": 40992,
          "time": 121.99987800000001,
          "velocity": 0.7559055118110236
        },
        {
          "duration": 0.27083306250000305,
          "durationTicks": 91,
          "midi": 73,
          "name": "C#5",
          "ticks": 41088,
          "time": 122.28559200000001,
          "velocity": 0.8346456692913385
        },
        {
          "duration": 0.27083306250000305,
          "durationTicks": 91,
          "midi": 69,
          "name": "A4",
          "ticks": 41088,
          "time": 122.28559200000001,
          "velocity": 0.7559055118110236
        },
        {
          "duration": 0.27083306250000305,
          "durationTicks": 91,
          "midi": 69,
          "name": "A4",
          "ticks": 41232,
          "time": 122.71416300000001,
          "velocity": 0.8346456692913385
        },
        {
          "duration": 0.27083306250000305,
          "durationTicks": 91,
          "midi": 64,
          "name": "E4",
          "ticks": 41232,
          "time": 122.71416300000001,
          "velocity": 0.7559055118110236
        },
        {
          "duration": 0.27083306250001726,
          "durationTicks": 91,
          "midi": 73,
          "name": "C#5",
          "ticks": 41376,
          "time": 123.142734,
          "velocity": 0.8346456692913385
        },
        {
          "duration": 0.27083306250001726,
          "durationTicks": 91,
          "midi": 69,
          "name": "A4",
          "ticks": 41376,
          "time": 123.142734,
          "velocity": 0.7559055118110236
        },
        {
          "duration": 0.27083306250001726,
          "durationTicks": 91,
          "midi": 69,
          "name": "A4",
          "ticks": 41472,
          "time": 123.428448,
          "velocity": 0.7559055118110236
        },
        {
          "duration": 0.27083306250001726,
          "durationTicks": 91,
          "midi": 74,
          "name": "D5",
          "ticks": 41472,
          "time": 123.428448,
          "velocity": 0.8346456692913385
        },
        {
          "duration": 0.27083306250000305,
          "durationTicks": 91,
          "midi": 69,
          "name": "A4",
          "ticks": 41616,
          "time": 123.85701900000001,
          "velocity": 0.7559055118110236
        },
        {
          "duration": 0.27083306250000305,
          "durationTicks": 91,
          "midi": 74,
          "name": "D5",
          "ticks": 41616,
          "time": 123.85701900000001,
          "velocity": 0.8346456692913385
        },
        {
          "duration": 0.27083306250000305,
          "durationTicks": 91,
          "midi": 78,
          "name": "F#5",
          "ticks": 41760,
          "time": 124.28559000000001,
          "velocity": 0.8346456692913385
        },
        {
          "duration": 0.27083306250000305,
          "durationTicks": 91,
          "midi": 74,
          "name": "D5",
          "ticks": 41760,
          "time": 124.28559000000001,
          "velocity": 0.7559055118110236
        },
        {
          "duration": 0.27083306250000305,
          "durationTicks": 91,
          "midi": 70,
          "name": "A#4",
          "ticks": 41856,
          "time": 124.57130400000001,
          "velocity": 0.8346456692913385
        },
        {
          "duration": 0.27083306250000305,
          "durationTicks": 91,
          "midi": 67,
          "name": "G4",
          "ticks": 41856,
          "time": 124.57130400000001,
          "velocity": 0.7401574803149606
        },
        {
          "duration": 0.27083306250000305,
          "durationTicks": 91,
          "midi": 74,
          "name": "D5",
          "ticks": 42000,
          "time": 124.99987500000002,
          "velocity": 0.8346456692913385
        },
        {
          "duration": 0.27083306250000305,
          "durationTicks": 91,
          "midi": 70,
          "name": "A#4",
          "ticks": 42000,
          "time": 124.99987500000002,
          "velocity": 0.7401574803149606
        },
        {
          "duration": 0.27083306250000305,
          "durationTicks": 91,
          "midi": 67,
          "name": "G4",
          "ticks": 42144,
          "time": 125.42844600000001,
          "velocity": 0.7401574803149606
        },
        {
          "duration": 0.27083306250000305,
          "durationTicks": 91,
          "midi": 70,
          "name": "A#4",
          "ticks": 42144,
          "time": 125.42844600000001,
          "velocity": 0.8346456692913385
        },
        {
          "duration": 0.27083306250000305,
          "durationTicks": 91,
          "midi": 69,
          "name": "A4",
          "ticks": 42240,
          "time": 125.71416,
          "velocity": 0.7401574803149606
        },
        {
          "duration": 0.27083306250000305,
          "durationTicks": 91,
          "midi": 72,
          "name": "C5",
          "ticks": 42240,
          "time": 125.71416,
          "velocity": 0.8346456692913385
        },
        {
          "duration": 0.27083306250000305,
          "durationTicks": 91,
          "midi": 66,
          "name": "F#4",
          "ticks": 42384,
          "time": 126.14273100000001,
          "velocity": 0.7401574803149606
        },
        {
          "duration": 0.27083306250000305,
          "durationTicks": 91,
          "midi": 69,
          "name": "A4",
          "ticks": 42384,
          "time": 126.14273100000001,
          "velocity": 0.8346456692913385
        },
        {
          "duration": 0.27083306250000305,
          "durationTicks": 91,
          "midi": 72,
          "name": "C5",
          "ticks": 42528,
          "time": 126.57130200000002,
          "velocity": 0.8346456692913385
        },
        {
          "duration": 0.27083306250000305,
          "durationTicks": 91,
          "midi": 69,
          "name": "A4",
          "ticks": 42528,
          "time": 126.57130200000002,
          "velocity": 0.7401574803149606
        },
        {
          "duration": 0.27083306250000305,
          "durationTicks": 91,
          "midi": 67,
          "name": "G4",
          "ticks": 42624,
          "time": 126.85701600000002,
          "velocity": 0.7401574803149606
        },
        {
          "duration": 0.27083306250000305,
          "durationTicks": 91,
          "midi": 71,
          "name": "B4",
          "ticks": 42624,
          "time": 126.85701600000002,
          "velocity": 0.8346456692913385
        },
        {
          "duration": 0.27083306250000305,
          "durationTicks": 91,
          "midi": 71,
          "name": "B4",
          "ticks": 42768,
          "time": 127.285587,
          "velocity": 0.7401574803149606
        },
        {
          "duration": 0.27083306250000305,
          "durationTicks": 91,
          "midi": 74,
          "name": "D5",
          "ticks": 42768,
          "time": 127.285587,
          "velocity": 0.8346456692913385
        },
        {
          "duration": 0.27083306250000305,
          "durationTicks": 91,
          "midi": 77,
          "name": "F5",
          "ticks": 42912,
          "time": 127.71415800000001,
          "velocity": 0.8346456692913385
        },
        {
          "duration": 0.27083306250000305,
          "durationTicks": 91,
          "midi": 74,
          "name": "D5",
          "ticks": 42912,
          "time": 127.71415800000001,
          "velocity": 0.7401574803149606
        },
        {
          "duration": 0.27083306250000305,
          "durationTicks": 91,
          "midi": 72,
          "name": "C5",
          "ticks": 43008,
          "time": 127.99987200000001,
          "velocity": 0.7401574803149606
        },
        {
          "duration": 0.27083306250000305,
          "durationTicks": 91,
          "midi": 75,
          "name": "D#5",
          "ticks": 43008,
          "time": 127.99987200000001,
          "velocity": 0.8346456692913385
        },
        {
          "duration": 0.27083306250000305,
          "durationTicks": 91,
          "midi": 67,
          "name": "G4",
          "ticks": 43152,
          "time": 128.42844300000002,
          "velocity": 0.7401574803149606
        },
        {
          "duration": 0.27083306250000305,
          "durationTicks": 91,
          "midi": 72,
          "name": "C5",
          "ticks": 43152,
          "time": 128.42844300000002,
          "velocity": 0.8346456692913385
        },
        {
          "duration": 0.27083306250000305,
          "durationTicks": 91,
          "midi": 72,
          "name": "C5",
          "ticks": 43296,
          "time": 128.85701400000002,
          "velocity": 0.7401574803149606
        },
        {
          "duration": 0.27083306250000305,
          "durationTicks": 91,
          "midi": 75,
          "name": "D#5",
          "ticks": 43296,
          "time": 128.85701400000002,
          "velocity": 0.8346456692913385
        },
        {
          "duration": 0.27083306250000305,
          "durationTicks": 91,
          "midi": 79,
          "name": "G5",
          "ticks": 43392,
          "time": 129.142728,
          "velocity": 0.8346456692913385
        },
        {
          "duration": 0.27083306250000305,
          "durationTicks": 91,
          "midi": 75,
          "name": "D#5",
          "ticks": 43392,
          "time": 129.142728,
          "velocity": 0.7401574803149606
        },
        {
          "duration": 0.27083306250000305,
          "durationTicks": 91,
          "midi": 72,
          "name": "C5",
          "ticks": 43536,
          "time": 129.571299,
          "velocity": 0.8346456692913385
        },
        {
          "duration": 0.27083306250000305,
          "durationTicks": 91,
          "midi": 67,
          "name": "G4",
          "ticks": 43536,
          "time": 129.571299,
          "velocity": 0.7401574803149606
        },
        {
          "duration": 0.27083306250000305,
          "durationTicks": 91,
          "midi": 79,
          "name": "G5",
          "ticks": 43680,
          "time": 129.99987000000002,
          "velocity": 0.8346456692913385
        },
        {
          "duration": 0.27083306250000305,
          "durationTicks": 91,
          "midi": 75,
          "name": "D#5",
          "ticks": 43680,
          "time": 129.99987000000002,
          "velocity": 0.7401574803149606
        },
        {
          "duration": 0.27083306250000305,
          "durationTicks": 91,
          "midi": 82,
          "name": "A#5",
          "ticks": 43776,
          "time": 130.285584,
          "velocity": 0.8346456692913385
        },
        {
          "duration": 0.27083306250000305,
          "durationTicks": 91,
          "midi": 79,
          "name": "G5",
          "ticks": 43776,
          "time": 130.285584,
          "velocity": 0.7401574803149606
        },
        {
          "duration": 0.27083306250000305,
          "durationTicks": 91,
          "midi": 81,
          "name": "A5",
          "ticks": 43920,
          "time": 130.714155,
          "velocity": 0.8346456692913385
        },
        {
          "duration": 0.27083306250000305,
          "durationTicks": 91,
          "midi": 78,
          "name": "F#5",
          "ticks": 43920,
          "time": 130.714155,
          "velocity": 0.7401574803149606
        },
        {
          "duration": 0.27083306250000305,
          "durationTicks": 91,
          "midi": 74,
          "name": "D5",
          "ticks": 44064,
          "time": 131.142726,
          "velocity": 0.7401574803149606
        },
        {
          "duration": 0.27083306250000305,
          "durationTicks": 91,
          "midi": 79,
          "name": "G5",
          "ticks": 44064,
          "time": 131.142726,
          "velocity": 0.8346456692913385
        },
        {
          "duration": 0.27083306250000305,
          "durationTicks": 91,
          "midi": 81,
          "name": "A5",
          "ticks": 44160,
          "time": 131.42844000000002,
          "velocity": 0.8346456692913385
        },
        {
          "duration": 0.27083306250000305,
          "durationTicks": 91,
          "midi": 78,
          "name": "F#5",
          "ticks": 44160,
          "time": 131.42844000000002,
          "velocity": 0.7401574803149606
        },
        {
          "duration": 0.27083306250000305,
          "durationTicks": 91,
          "midi": 74,
          "name": "D5",
          "ticks": 44304,
          "time": 131.857011,
          "velocity": 0.8346456692913385
        },
        {
          "duration": 0.27083306250000305,
          "durationTicks": 91,
          "midi": 81,
          "name": "A5",
          "ticks": 44304,
          "time": 131.857011,
          "velocity": 0.8346456692913385
        },
        {
          "duration": 0.1279760625000108,
          "durationTicks": 43,
          "midi": 81,
          "name": "A5",
          "ticks": 44448,
          "time": 132.285582,
          "velocity": 0.8346456692913385
        },
        {
          "duration": 0.1279760625000108,
          "durationTicks": 43,
          "midi": 78,
          "name": "F#5",
          "ticks": 44448,
          "time": 132.285582,
          "velocity": 0.7401574803149606
        },
        {
          "duration": 0.1279760625000108,
          "durationTicks": 43,
          "midi": 79,
          "name": "G5",
          "ticks": 44496,
          "time": 132.428439,
          "velocity": 0.8346456692913385
        },
        {
          "duration": 0.1279760625000108,
          "durationTicks": 43,
          "midi": 76,
          "name": "E5",
          "ticks": 44496,
          "time": 132.428439,
          "velocity": 0.7401574803149606
        },
        {
          "duration": 0.1279760625000108,
          "durationTicks": 43,
          "midi": 74,
          "name": "D5",
          "ticks": 44544,
          "time": 132.57129600000002,
          "velocity": 0.7401574803149606
        },
        {
          "duration": 0.1279760625000108,
          "durationTicks": 43,
          "midi": 78,
          "name": "F#5",
          "ticks": 44544,
          "time": 132.57129600000002,
          "velocity": 0.8346456692913385
        },
        {
          "duration": 0.1279760624999824,
          "durationTicks": 43,
          "midi": 79,
          "name": "G5",
          "ticks": 44688,
          "time": 132.99986700000002,
          "velocity": 0.8346456692913385
        },
        {
          "duration": 0.1279760624999824,
          "durationTicks": 43,
          "midi": 74,
          "name": "D5",
          "ticks": 44688,
          "time": 132.99986700000002,
          "velocity": 0.7401574803149606
        },
        {
          "duration": 0.27083306250000305,
          "durationTicks": 91,
          "midi": 81,
          "name": "A5",
          "ticks": 44832,
          "time": 133.428438,
          "velocity": 0.8346456692913385
        },
        {
          "duration": 0.27083306250000305,
          "durationTicks": 91,
          "midi": 78,
          "name": "F#5",
          "ticks": 44832,
          "time": 133.428438,
          "velocity": 0.7401574803149606
        },
        {
          "duration": 4.556543062499998,
          "durationTicks": 1531,
          "midi": 79,
          "name": "G5",
          "ticks": 44928,
          "time": 133.714152,
          "velocity": 0.8346456692913385
        },
        {
          "duration": 4.520828812500014,
          "durationTicks": 1519,
          "midi": 74,
          "name": "D5",
          "ticks": 44928,
          "time": 133.714152,
          "velocity": 0.7559055118110236
        }
      ],
      "endOfTrackTicks": 47692
    },
    {
      "channel": 10,
      "controlChanges": {
        "6": [
          {
            "number": 6,
            "ticks": 0,
            "time": 0,
            "value": 0.09448818897637795
          },
          {
            "number": 6,
            "ticks": 0,
            "time": 0,
            "value": 0.09448818897637795
          },
          {
            "number": 6,
            "ticks": 0,
            "time": 0,
            "value": 0.09448818897637795
          },
          {
            "number": 6,
            "ticks": 47690,
            "time": 141.934381875,
            "value": 0.09448818897637795
          },
          {
            "number": 6,
            "ticks": 47692,
            "time": 141.94033425,
            "value": 0.09448818897637795
          }
        ],
        "7": [
          {
            "number": 7,
            "ticks": 0,
            "time": 0,
            "value": 0.7874015748031497
          },
          {
            "number": 7,
            "ticks": 0,
            "time": 0,
            "value": 0.7874015748031497
          },
          {
            "number": 7,
            "ticks": 0,
            "time": 0,
            "value": 0.7874015748031497
          },
          {
            "number": 7,
            "ticks": 0,
            "time": 0,
            "value": 0.7874015748031497
          },
          {
            "number": 7,
            "ticks": 47690,
            "time": 141.934381875,
            "value": 0.7874015748031497
          },
          {
            "number": 7,
            "ticks": 47692,
            "time": 141.94033425,
            "value": 0.7874015748031497
          }
        ],
        "10": [
          {
            "number": 10,
            "ticks": 0,
            "time": 0,
            "value": 0.5039370078740157
          },
          {
            "number": 10,
            "ticks": 0,
            "time": 0,
            "value": 0.5039370078740157
          },
          {
            "number": 10,
            "ticks": 0,
            "time": 0,
            "value": 0.5039370078740157
          },
          {
            "number": 10,
            "ticks": 0,
            "time": 0,
            "value": 0.5039370078740157
          },
          {
            "number": 10,
            "ticks": 47690,
            "time": 141.934381875,
            "value": 0.5039370078740157
          },
          {
            "number": 10,
            "ticks": 47692,
            "time": 141.94033425,
            "value": 0.5039370078740157
          }
        ],
        "100": [
          {
            "number": 100,
            "ticks": 0,
            "time": 0,
            "value": 0
          },
          {
            "number": 100,
            "ticks": 0,
            "time": 0,
            "value": 0
          },
          {
            "number": 100,
            "ticks": 0,
            "time": 0,
            "value": 0
          },
          {
            "number": 100,
            "ticks": 47690,
            "time": 141.934381875,
            "value": 0
          },
          {
            "number": 100,
            "ticks": 47692,
            "time": 141.94033425,
            "value": 0
          }
        ],
        "101": [
          {
            "number": 101,
            "ticks": 0,
            "time": 0,
            "value": 0
          },
          {
            "number": 101,
            "ticks": 0,
            "time": 0,
            "value": 0
          },
          {
            "number": 101,
            "ticks": 0,
            "time": 0,
            "value": 0
          },
          {
            "number": 101,
            "ticks": 47690,
            "time": 141.934381875,
            "value": 0
          },
          {
            "number": 101,
            "ticks": 47692,
            "time": 141.94033425,
            "value": 0
          }
        ]
      },
      "pitchBends": [
        {
          "ticks": 0,
          "time": 0,
          "value": 0
        },
        {
          "ticks": 0,
          "time": 0,
          "value": 0
        },
        {
          "ticks": 0,
          "time": 0,
          "value": 0
        },
        {
          "ticks": 0,
          "time": 0,
          "value": 0
        },
        {
          "ticks": 47690,
          "time": 141.934381875,
          "value": 0
        },
        {
          "ticks": 47692,
          "time": 141.94033425,
          "value": 0
        }
      ],
      "instrument": {
        "family": "piano",
        "number": 0,
        "name": "acoustic grand piano"
      },
      "name": "Lead #2",
      "notes": [
        {
          "duration": 0.24702356250000435,
          "durationTicks": 83,
          "midi": 67,
          "name": "G4",
          "ticks": 15744,
          "time": 46.857096000000006,
          "velocity": 0.15748031496062992
        },
        {
          "duration": 0.24702356250000435,
          "durationTicks": 83,
          "midi": 67,
          "name": "G4",
          "ticks": 15840,
          "time": 47.142810000000004,
          "velocity": 0.18110236220472442
        },
        {
          "duration": 0.24702356250000435,
          "durationTicks": 83,
          "midi": 68,
          "name": "G#4",
          "ticks": 15936,
          "time": 47.428524,
          "velocity": 0.1968503937007874
        },
        {
          "duration": 0.24702356250000435,
          "durationTicks": 83,
          "midi": 65,
          "name": "F4",
          "ticks": 16032,
          "time": 47.714238,
          "velocity": 0.2204724409448819
        },
        {
          "duration": 0.24702356249999724,
          "durationTicks": 83,
          "midi": 67,
          "name": "G4",
          "ticks": 16128,
          "time": 47.99995200000001,
          "velocity": 0.23622047244094488
        },
        {
          "duration": 0.24702356249999724,
          "durationTicks": 83,
          "midi": 67,
          "name": "G4",
          "ticks": 16224,
          "time": 48.285666000000006,
          "velocity": 0.25196850393700787
        },
        {
          "duration": 0.1279760624999966,
          "durationTicks": 43,
          "midi": 67,
          "name": "G4",
          "ticks": 16320,
          "time": 48.571380000000005,
          "velocity": 0.2755905511811024
        },
        {
          "duration": 0.1279760624999966,
          "durationTicks": 43,
          "midi": 70,
          "name": "A#4",
          "ticks": 16368,
          "time": 48.714237000000004,
          "velocity": 0.28346456692913385
        },
        {
          "duration": 0.1279760624999966,
          "durationTicks": 43,
          "midi": 68,
          "name": "G#4",
          "ticks": 16416,
          "time": 48.857094000000004,
          "velocity": 0.29133858267716534
        },
        {
          "duration": 0.1279760624999966,
          "durationTicks": 43,
          "midi": 65,
          "name": "F4",
          "ticks": 16464,
          "time": 48.999951,
          "velocity": 0.2992125984251969
        },
        {
          "duration": 0.24702356250000435,
          "durationTicks": 83,
          "midi": 67,
          "name": "G4",
          "ticks": 16512,
          "time": 49.142808,
          "velocity": 0.31496062992125984
        },
        {
          "duration": 0.24702356250000435,
          "durationTicks": 83,
          "midi": 67,
          "name": "G4",
          "ticks": 16608,
          "time": 49.428522,
          "velocity": 0.33070866141732286
        },
        {
          "duration": 0.24702356249999724,
          "durationTicks": 83,
          "midi": 68,
          "name": "G#4",
          "ticks": 16704,
          "time": 49.71423600000001,
          "velocity": 0.3464566929133858
        },
        {
          "duration": 0.24702356250000435,
          "durationTicks": 83,
          "midi": 65,
          "name": "F4",
          "ticks": 16800,
          "time": 49.999950000000005,
          "velocity": 0.3700787401574803
        },
        {
          "duration": 0.24702356250000435,
          "durationTicks": 83,
          "midi": 67,
          "name": "G4",
          "ticks": 16896,
          "time": 50.285664000000004,
          "velocity": 0.3858267716535433
        },
        {
          "duration": 0.1279760624999966,
          "durationTicks": 43,
          "midi": 62,
          "name": "D4",
          "ticks": 16992,
          "time": 50.571378,
          "velocity": 0.4094488188976378
        },
        {
          "duration": 0.1279760624999966,
          "durationTicks": 43,
          "midi": 67,
          "name": "G4",
          "ticks": 17040,
          "time": 50.714235,
          "velocity": 0.41732283464566927
        },
        {
          "duration": 0.27083306250000305,
          "durationTicks": 91,
          "midi": 66,
          "name": "F#4",
          "ticks": 17088,
          "time": 50.857092,
          "velocity": 0.4251968503937008
        },
        {
          "duration": 0.27083306249999595,
          "durationTicks": 91,
          "midi": 62,
          "name": "D4",
          "ticks": 17184,
          "time": 51.14280600000001,
          "velocity": 0.44881889763779526
        },
        {
          "duration": 0.24702356250000435,
          "durationTicks": 83,
          "midi": 67,
          "name": "G4",
          "ticks": 17280,
          "time": 51.428520000000006,
          "velocity": 0.4645669291338583
        },
        {
          "duration": 0.24702356250000435,
          "durationTicks": 83,
          "midi": 67,
          "name": "G4",
          "ticks": 17376,
          "time": 51.714234000000005,
          "velocity": 0.48031496062992124
        },
        {
          "duration": 0.24702356250000435,
          "durationTicks": 83,
          "midi": 68,
          "name": "G#4",
          "ticks": 17472,
          "time": 51.999948,
          "velocity": 0.5039370078740157
        },
        {
          "duration": 0.24702356250000435,
          "durationTicks": 83,
          "midi": 65,
          "name": "F4",
          "ticks": 17568,
          "time": 52.285662,
          "velocity": 0.5196850393700787
        },
        {
          "duration": 0.24702356250000435,
          "durationTicks": 83,
          "midi": 67,
          "name": "G4",
          "ticks": 17664,
          "time": 52.571376,
          "velocity": 0.5433070866141733
        },
        {
          "duration": 0.24702356249999724,
          "durationTicks": 83,
          "midi": 67,
          "name": "G4",
          "ticks": 17760,
          "time": 52.85709000000001,
          "velocity": 0.5590551181102362
        },
        {
          "duration": 0.1279760624999966,
          "durationTicks": 43,
          "midi": 67,
          "name": "G4",
          "ticks": 17856,
          "time": 53.142804000000005,
          "velocity": 0.5748031496062992
        },
        {
          "duration": 0.1279760624999966,
          "durationTicks": 43,
          "midi": 70,
          "name": "A#4",
          "ticks": 17904,
          "time": 53.285661000000005,
          "velocity": 0.5905511811023622
        },
        {
          "duration": 0.1279760624999966,
          "durationTicks": 43,
          "midi": 68,
          "name": "G#4",
          "ticks": 17952,
          "time": 53.428518000000004,
          "velocity": 0.5984251968503937
        },
        {
          "duration": 0.1279760624999966,
          "durationTicks": 43,
          "midi": 65,
          "name": "F4",
          "ticks": 18000,
          "time": 53.571375,
          "velocity": 0.6062992125984252
        },
        {
          "duration": 0.1279760624999966,
          "durationTicks": 43,
          "midi": 67,
          "name": "G4",
          "ticks": 18048,
          "time": 53.714232,
          "velocity": 0.6141732283464567
        },
        {
          "duration": 0.1279760625000037,
          "durationTicks": 43,
          "midi": 68,
          "name": "G#4",
          "ticks": 18144,
          "time": 53.999946,
          "velocity": 0.6377952755905512
        },
        {
          "duration": 0.1279760624999966,
          "durationTicks": 43,
          "midi": 69,
          "name": "A4",
          "ticks": 18240,
          "time": 54.28566000000001,
          "velocity": 0.6535433070866141
        },
        {
          "duration": 0.1279760624999966,
          "durationTicks": 43,
          "midi": 70,
          "name": "A#4",
          "ticks": 18336,
          "time": 54.571374000000006,
          "velocity": 0.6692913385826772
        },
        {
          "duration": 0.24702356250000435,
          "durationTicks": 83,
          "midi": 75,
          "name": "D#5",
          "ticks": 18432,
          "time": 54.857088000000005,
          "velocity": 0.7559055118110236
        },
        {
          "duration": 0.24702356250000435,
          "durationTicks": 83,
          "midi": 74,
          "name": "D5",
          "ticks": 18528,
          "time": 55.142802,
          "velocity": 0.7559055118110236
        },
        {
          "duration": 0.1279760624999966,
          "durationTicks": 43,
          "midi": 74,
          "name": "D5",
          "ticks": 18624,
          "time": 55.428516,
          "velocity": 0.7559055118110236
        },
        {
          "duration": 0.0803570625000063,
          "durationTicks": 27,
          "midi": 75,
          "name": "D#5",
          "ticks": 18672,
          "time": 55.571373,
          "velocity": 0.7559055118110236
        },
        {
          "duration": 0.1279760624999966,
          "durationTicks": 43,
          "midi": 76,
          "name": "E5",
          "ticks": 18720,
          "time": 55.71423000000001,
          "velocity": 0.7559055118110236
        },
        {
          "duration": 0.08035706249999919,
          "durationTicks": 27,
          "midi": 78,
          "name": "F#5",
          "ticks": 18768,
          "time": 55.85708700000001,
          "velocity": 0.7559055118110236
        },
        {
          "duration": 0.24702356250000435,
          "durationTicks": 83,
          "midi": 67,
          "name": "G4",
          "ticks": 18816,
          "time": 55.999944000000006,
          "velocity": 0.7637795275590551
        },
        {
          "duration": 0.24702356250000435,
          "durationTicks": 83,
          "midi": 67,
          "name": "G4",
          "ticks": 18912,
          "time": 56.285658000000005,
          "velocity": 0.7637795275590551
        },
        {
          "duration": 0.24702356250000435,
          "durationTicks": 83,
          "midi": 68,
          "name": "G#4",
          "ticks": 19008,
          "time": 56.571372000000004,
          "velocity": 0.7637795275590551
        },
        {
          "duration": 0.24702356250000435,
          "durationTicks": 83,
          "midi": 65,
          "name": "F4",
          "ticks": 19104,
          "time": 56.857086,
          "velocity": 0.7637795275590551
        },
        {
          "duration": 0.24702356249999724,
          "durationTicks": 83,
          "midi": 67,
          "name": "G4",
          "ticks": 19200,
          "time": 57.14280000000001,
          "velocity": 0.7637795275590551
        },
        {
          "duration": 0.24702356249999724,
          "durationTicks": 83,
          "midi": 67,
          "name": "G4",
          "ticks": 19296,
          "time": 57.42851400000001,
          "velocity": 0.7637795275590551
        },
        {
          "duration": 0.1279760624999966,
          "durationTicks": 43,
          "midi": 67,
          "name": "G4",
          "ticks": 19392,
          "time": 57.714228000000006,
          "velocity": 0.7637795275590551
        },
        {
          "duration": 0.1279760624999966,
          "durationTicks": 43,
          "midi": 70,
          "name": "A#4",
          "ticks": 19440,
          "time": 57.857085000000005,
          "velocity": 0.7637795275590551
        },
        {
          "duration": 0.1279760624999966,
          "durationTicks": 43,
          "midi": 68,
          "name": "G#4",
          "ticks": 19488,
          "time": 57.999942000000004,
          "velocity": 0.3858267716535433
        },
        {
          "duration": 0.1279760624999966,
          "durationTicks": 43,
          "midi": 65,
          "name": "F4",
          "ticks": 19536,
          "time": 58.142799000000004,
          "velocity": 0.7637795275590551
        },
        {
          "duration": 0.24702356250000435,
          "durationTicks": 83,
          "midi": 67,
          "name": "G4",
          "ticks": 19584,
          "time": 58.285656,
          "velocity": 0.7637795275590551
        },
        {
          "duration": 0.24702356250000435,
          "durationTicks": 83,
          "midi": 67,
          "name": "G4",
          "ticks": 19680,
          "time": 58.57137,
          "velocity": 0.7637795275590551
        },
        {
          "duration": 0.24702356249999724,
          "durationTicks": 83,
          "midi": 68,
          "name": "G#4",
          "ticks": 19776,
          "time": 58.85708400000001,
          "velocity": 0.7637795275590551
        },
        {
          "duration": 0.24702356250000435,
          "durationTicks": 83,
          "midi": 65,
          "name": "F4",
          "ticks": 19872,
          "time": 59.142798000000006,
          "velocity": 0.7637795275590551
        },
        {
          "duration": 0.24702356250000435,
          "durationTicks": 83,
          "midi": 67,
          "name": "G4",
          "ticks": 19968,
          "time": 59.428512000000005,
          "velocity": 0.7637795275590551
        },
        {
          "duration": 0.1279760624999966,
          "durationTicks": 43,
          "midi": 62,
          "name": "D4",
          "ticks": 20064,
          "time": 59.714226000000004,
          "velocity": 0.7637795275590551
        },
        {
          "duration": 0.1279760624999966,
          "durationTicks": 43,
          "midi": 67,
          "name": "G4",
          "ticks": 20112,
          "time": 59.857083,
          "velocity": 0.7637795275590551
        },
        {
          "duration": 0.27083306250000305,
          "durationTicks": 91,
          "midi": 66,
          "name": "F#4",
          "ticks": 20160,
          "time": 59.99994,
          "velocity": 0.7637795275590551
        },
        {
          "duration": 0.27083306249999595,
          "durationTicks": 91,
          "midi": 62,
          "name": "D4",
          "ticks": 20256,
          "time": 60.28565400000001,
          "velocity": 0.7637795275590551
        },
        {
          "duration": 0.24702356250000435,
          "durationTicks": 83,
          "midi": 67,
          "name": "G4",
          "ticks": 20352,
          "time": 60.57136800000001,
          "velocity": 0.7637795275590551
        },
        {
          "duration": 0.24702356250000435,
          "durationTicks": 83,
          "midi": 67,
          "name": "G4",
          "ticks": 20448,
          "time": 60.857082000000005,
          "velocity": 0.7637795275590551
        },
        {
          "duration": 0.24702356250000435,
          "durationTicks": 83,
          "midi": 68,
          "name": "G#4",
          "ticks": 20544,
          "time": 61.142796000000004,
          "velocity": 0.7637795275590551
        },
        {
          "duration": 0.24702356250000435,
          "durationTicks": 83,
          "midi": 65,
          "name": "F4",
          "ticks": 20640,
          "time": 61.42851,
          "velocity": 0.7637795275590551
        },
        {
          "duration": 0.24702356250000435,
          "durationTicks": 83,
          "midi": 67,
          "name": "G4",
          "ticks": 20736,
          "time": 61.714224,
          "velocity": 0.7637795275590551
        },
        {
          "duration": 0.24702356249999724,
          "durationTicks": 83,
          "midi": 67,
          "name": "G4",
          "ticks": 20832,
          "time": 61.99993800000001,
          "velocity": 0.7637795275590551
        },
        {
          "duration": 0.1279760624999966,
          "durationTicks": 43,
          "midi": 67,
          "name": "G4",
          "ticks": 20928,
          "time": 62.285652000000006,
          "velocity": 0.7637795275590551
        },
        {
          "duration": 0.1279760624999966,
          "durationTicks": 43,
          "midi": 70,
          "name": "A#4",
          "ticks": 20976,
          "time": 62.428509000000005,
          "velocity": 0.7637795275590551
        },
        {
          "duration": 0.1279760624999966,
          "durationTicks": 43,
          "midi": 68,
          "name": "G#4",
          "ticks": 21024,
          "time": 62.571366000000005,
          "velocity": 0.7637795275590551
        },
        {
          "duration": 0.1279760624999966,
          "durationTicks": 43,
          "midi": 65,
          "name": "F4",
          "ticks": 21072,
          "time": 62.714223000000004,
          "velocity": 0.7637795275590551
        },
        {
          "duration": 0.1279760624999966,
          "durationTicks": 43,
          "midi": 67,
          "name": "G4",
          "ticks": 21120,
          "time": 62.85708,
          "velocity": 0.7637795275590551
        },
        {
          "duration": 0.1279760625000037,
          "durationTicks": 43,
          "midi": 68,
          "name": "G#4",
          "ticks": 21216,
          "time": 63.142794,
          "velocity": 0.7637795275590551
        },
        {
          "duration": 0.1279760624999966,
          "durationTicks": 43,
          "midi": 69,
          "name": "A4",
          "ticks": 21312,
          "time": 63.42850800000001,
          "velocity": 0.7637795275590551
        },
        {
          "duration": 0.1279760624999966,
          "durationTicks": 43,
          "midi": 70,
          "name": "A#4",
          "ticks": 21408,
          "time": 63.71422200000001,
          "velocity": 0.7637795275590551
        },
        {
          "duration": 0.24702356250000435,
          "durationTicks": 83,
          "midi": 75,
          "name": "D#5",
          "ticks": 21504,
          "time": 63.999936000000005,
          "velocity": 0.7637795275590551
        },
        {
          "duration": 0.24702356250000435,
          "durationTicks": 83,
          "midi": 74,
          "name": "D5",
          "ticks": 21600,
          "time": 64.28565,
          "velocity": 0.7637795275590551
        },
        {
          "duration": 0.1279760624999966,
          "durationTicks": 43,
          "midi": 74,
          "name": "D5",
          "ticks": 21696,
          "time": 64.571364,
          "velocity": 0.7637795275590551
        },
        {
          "duration": 0.05654756250000048,
          "durationTicks": 19,
          "midi": 75,
          "name": "D#5",
          "ticks": 21744,
          "time": 64.71422100000001,
          "velocity": 0.7637795275590551
        },
        {
          "duration": 0.1279760624999966,
          "durationTicks": 43,
          "midi": 76,
          "name": "E5",
          "ticks": 21792,
          "time": 64.857078,
          "velocity": 0.7637795275590551
        },
        {
          "duration": 0.05654756250000048,
          "durationTicks": 19,
          "midi": 78,
          "name": "F#5",
          "ticks": 21840,
          "time": 64.99993500000001,
          "velocity": 0.7637795275590551
        },
        {
          "duration": 2.261902500000005,
          "durationTicks": 760,
          "midi": 79,
          "name": "G5",
          "ticks": 21888,
          "time": 65.142792,
          "velocity": 0.7637795275590551
        },
        {
          "duration": 0.27083306250000305,
          "durationTicks": 91,
          "midi": 58,
          "name": "A#3",
          "ticks": 32640,
          "time": 97.14276000000001,
          "velocity": 0.7952755905511811
        },
        {
          "duration": 0.27083306250000305,
          "durationTicks": 91,
          "midi": 62,
          "name": "D4",
          "ticks": 32784,
          "time": 97.57133100000001,
          "velocity": 0.7952755905511811
        },
        {
          "duration": 0.27083306250000305,
          "durationTicks": 91,
          "midi": 58,
          "name": "A#3",
          "ticks": 32928,
          "time": 97.999902,
          "velocity": 0.7952755905511811
        },
        {
          "duration": 0.27083306250000305,
          "durationTicks": 91,
          "midi": 60,
          "name": "C4",
          "ticks": 33024,
          "time": 98.285616,
          "velocity": 0.7952755905511811
        },
        {
          "duration": 0.27083306250000305,
          "durationTicks": 91,
          "midi": 57,
          "name": "A3",
          "ticks": 33168,
          "time": 98.71418700000001,
          "velocity": 0.7952755905511811
        },
        {
          "duration": 0.27083306250000305,
          "durationTicks": 91,
          "midi": 60,
          "name": "C4",
          "ticks": 33312,
          "time": 99.14275800000001,
          "velocity": 0.7952755905511811
        },
        {
          "duration": 0.27083306250000305,
          "durationTicks": 91,
          "midi": 59,
          "name": "B3",
          "ticks": 33408,
          "time": 99.42847200000001,
          "velocity": 0.7952755905511811
        },
        {
          "duration": 0.27083306250000305,
          "durationTicks": 91,
          "midi": 62,
          "name": "D4",
          "ticks": 33552,
          "time": 99.857043,
          "velocity": 0.7952755905511811
        },
        {
          "duration": 0.27083306250000305,
          "durationTicks": 91,
          "midi": 65,
          "name": "F4",
          "ticks": 33696,
          "time": 100.28561400000001,
          "velocity": 0.7952755905511811
        },
        {
          "duration": 0.27083306250000305,
          "durationTicks": 91,
          "midi": 63,
          "name": "D#4",
          "ticks": 33792,
          "time": 100.57132800000001,
          "velocity": 0.7952755905511811
        },
        {
          "duration": 0.27083306250000305,
          "durationTicks": 91,
          "midi": 60,
          "name": "C4",
          "ticks": 33936,
          "time": 100.99989900000001,
          "velocity": 0.7952755905511811
        },
        {
          "duration": 0.27083306250000305,
          "durationTicks": 91,
          "midi": 63,
          "name": "D#4",
          "ticks": 34080,
          "time": 101.42847,
          "velocity": 0.7952755905511811
        },
        {
          "duration": 0.27083306250001726,
          "durationTicks": 91,
          "midi": 67,
          "name": "G4",
          "ticks": 34176,
          "time": 101.714184,
          "velocity": 0.7952755905511811
        },
        {
          "duration": 0.27083306250000305,
          "durationTicks": 91,
          "midi": 60,
          "name": "C4",
          "ticks": 34320,
          "time": 102.14275500000001,
          "velocity": 0.7952755905511811
        },
        {
          "duration": 0.27083306250000305,
          "durationTicks": 91,
          "midi": 67,
          "name": "G4",
          "ticks": 34464,
          "time": 102.57132600000001,
          "velocity": 0.7952755905511811
        },
        {
          "duration": 0.27083306250000305,
          "durationTicks": 91,
          "midi": 62,
          "name": "D4",
          "ticks": 34560,
          "time": 102.85704000000001,
          "velocity": 0.7952755905511811
        },
        {
          "duration": 0.27083306250001726,
          "durationTicks": 91,
          "midi": 58,
          "name": "A#3",
          "ticks": 34704,
          "time": 103.285611,
          "velocity": 0.7952755905511811
        },
        {
          "duration": 0.27083306250000305,
          "durationTicks": 91,
          "midi": 62,
          "name": "D4",
          "ticks": 34848,
          "time": 103.71418200000001,
          "velocity": 0.7952755905511811
        },
        {
          "duration": 0.27083306250000305,
          "durationTicks": 91,
          "midi": 61,
          "name": "C#4",
          "ticks": 34944,
          "time": 103.999896,
          "velocity": 0.7952755905511811
        },
        {
          "duration": 0.27083306250000305,
          "durationTicks": 91,
          "midi": 57,
          "name": "A3",
          "ticks": 35088,
          "time": 104.42846700000001,
          "velocity": 0.7952755905511811
        },
        {
          "duration": 0.27083306250001726,
          "durationTicks": 91,
          "midi": 61,
          "name": "C#4",
          "ticks": 35232,
          "time": 104.857038,
          "velocity": 0.7952755905511811
        },
        {
          "duration": 0.27083306250001726,
          "durationTicks": 91,
          "midi": 62,
          "name": "D4",
          "ticks": 35328,
          "time": 105.142752,
          "velocity": 0.7952755905511811
        },
        {
          "duration": 0.27083306250000305,
          "durationTicks": 91,
          "midi": 66,
          "name": "F#4",
          "ticks": 35616,
          "time": 105.99989400000001,
          "velocity": 0.7952755905511811
        },
        {
          "duration": 0.27083306250000305,
          "durationTicks": 91,
          "midi": 58,
          "name": "A#3",
          "ticks": 35712,
          "time": 106.28560800000001,
          "velocity": 0.7952755905511811
        },
        {
          "duration": 0.27083306250000305,
          "durationTicks": 91,
          "midi": 62,
          "name": "D4",
          "ticks": 35856,
          "time": 106.71417900000002,
          "velocity": 0.7952755905511811
        },
        {
          "duration": 0.27083306250000305,
          "durationTicks": 91,
          "midi": 58,
          "name": "A#3",
          "ticks": 36000,
          "time": 107.14275,
          "velocity": 0.7952755905511811
        },
        {
          "duration": 0.27083306250000305,
          "durationTicks": 91,
          "midi": 60,
          "name": "C4",
          "ticks": 36096,
          "time": 107.428464,
          "velocity": 0.7952755905511811
        },
        {
          "duration": 0.27083306250000305,
          "durationTicks": 91,
          "midi": 57,
          "name": "A3",
          "ticks": 36240,
          "time": 107.85703500000001,
          "velocity": 0.7952755905511811
        },
        {
          "duration": 0.27083306250000305,
          "durationTicks": 91,
          "midi": 60,
          "name": "C4",
          "ticks": 36384,
          "time": 108.28560600000002,
          "velocity": 0.7952755905511811
        },
        {
          "duration": 0.27083306250000305,
          "durationTicks": 91,
          "midi": 59,
          "name": "B3",
          "ticks": 36480,
          "time": 108.57132000000001,
          "velocity": 0.7952755905511811
        },
        {
          "duration": 0.27083306250000305,
          "durationTicks": 91,
          "midi": 62,
          "name": "D4",
          "ticks": 36624,
          "time": 108.999891,
          "velocity": 0.7952755905511811
        },
        {
          "duration": 0.27083306250000305,
          "durationTicks": 91,
          "midi": 65,
          "name": "F4",
          "ticks": 36768,
          "time": 109.42846200000001,
          "velocity": 0.7952755905511811
        },
        {
          "duration": 0.27083306250000305,
          "durationTicks": 91,
          "midi": 63,
          "name": "D#4",
          "ticks": 36864,
          "time": 109.71417600000001,
          "velocity": 0.7952755905511811
        },
        {
          "duration": 0.27083306250000305,
          "durationTicks": 91,
          "midi": 60,
          "name": "C4",
          "ticks": 37008,
          "time": 110.14274700000001,
          "velocity": 0.7952755905511811
        },
        {
          "duration": 0.27083306250000305,
          "durationTicks": 91,
          "midi": 63,
          "name": "D#4",
          "ticks": 37152,
          "time": 110.571318,
          "velocity": 0.7952755905511811
        },
        {
          "duration": 0.27083306250001726,
          "durationTicks": 91,
          "midi": 67,
          "name": "G4",
          "ticks": 37248,
          "time": 110.857032,
          "velocity": 0.7952755905511811
        },
        {
          "duration": 0.27083306250000305,
          "durationTicks": 91,
          "midi": 60,
          "name": "C4",
          "ticks": 37392,
          "time": 111.28560300000001,
          "velocity": 0.7952755905511811
        },
        {
          "duration": 0.27083306250000305,
          "durationTicks": 91,
          "midi": 67,
          "name": "G4",
          "ticks": 37536,
          "time": 111.71417400000001,
          "velocity": 0.7952755905511811
        },
        {
          "duration": 0.27083306250000305,
          "durationTicks": 91,
          "midi": 70,
          "name": "A#4",
          "ticks": 37632,
          "time": 111.99988800000001,
          "velocity": 0.7952755905511811
        },
        {
          "duration": 0.27083306250001726,
          "durationTicks": 91,
          "midi": 69,
          "name": "A4",
          "ticks": 37776,
          "time": 112.428459,
          "velocity": 0.7952755905511811
        },
        {
          "duration": 0.27083306250000305,
          "durationTicks": 91,
          "midi": 67,
          "name": "G4",
          "ticks": 37920,
          "time": 112.85703000000001,
          "velocity": 0.7952755905511811
        },
        {
          "duration": 0.27083306250000305,
          "durationTicks": 91,
          "midi": 69,
          "name": "A4",
          "ticks": 38016,
          "time": 113.14274400000001,
          "velocity": 0.7952755905511811
        },
        {
          "duration": 0.27083306250000305,
          "durationTicks": 91,
          "midi": 69,
          "name": "A4",
          "ticks": 38160,
          "time": 113.57131500000001,
          "velocity": 0.7952755905511811
        },
        {
          "duration": 0.1279760625000108,
          "durationTicks": 43,
          "midi": 69,
          "name": "A4",
          "ticks": 38304,
          "time": 113.999886,
          "velocity": 0.7952755905511811
        },
        {
          "duration": 0.1279760625000108,
          "durationTicks": 43,
          "midi": 67,
          "name": "G4",
          "ticks": 38352,
          "time": 114.14274300000001,
          "velocity": 0.7952755905511811
        },
        {
          "duration": 0.1279760624999966,
          "durationTicks": 43,
          "midi": 66,
          "name": "F#4",
          "ticks": 38400,
          "time": 114.28560000000002,
          "velocity": 0.7952755905511811
        },
        {
          "duration": 0.1279760625000108,
          "durationTicks": 43,
          "midi": 66,
          "name": "F#4",
          "ticks": 38472,
          "time": 114.4998855,
          "velocity": 0.7952755905511811
        },
        {
          "duration": 0.1279760625000108,
          "durationTicks": 43,
          "midi": 66,
          "name": "F#4",
          "ticks": 38544,
          "time": 114.71417100000001,
          "velocity": 0.7952755905511811
        },
        {
          "duration": 0.1279760625000108,
          "durationTicks": 43,
          "midi": 69,
          "name": "A4",
          "ticks": 38640,
          "time": 114.999885,
          "velocity": 0.7952755905511811
        },
        {
          "duration": 0.1279760624999966,
          "durationTicks": 43,
          "midi": 69,
          "name": "A4",
          "ticks": 38688,
          "time": 115.14274200000001,
          "velocity": 0.7952755905511811
        },
        {
          "duration": 0.1279760625000108,
          "durationTicks": 43,
          "midi": 69,
          "name": "A4",
          "ticks": 38736,
          "time": 115.285599,
          "velocity": 0.7952755905511811
        },
        {
          "duration": 0.27083306250000305,
          "durationTicks": 91,
          "midi": 58,
          "name": "A#3",
          "ticks": 38784,
          "time": 115.42845600000001,
          "velocity": 0.7952755905511811
        },
        {
          "duration": 0.27083306250000305,
          "durationTicks": 91,
          "midi": 62,
          "name": "D4",
          "ticks": 38928,
          "time": 115.85702700000002,
          "velocity": 0.7952755905511811
        },
        {
          "duration": 0.27083306250000305,
          "durationTicks": 91,
          "midi": 58,
          "name": "A#3",
          "ticks": 39072,
          "time": 116.28559800000001,
          "velocity": 0.7952755905511811
        },
        {
          "duration": 0.27083306250000305,
          "durationTicks": 91,
          "midi": 60,
          "name": "C4",
          "ticks": 39168,
          "time": 116.571312,
          "velocity": 0.7952755905511811
        },
        {
          "duration": 0.27083306250000305,
          "durationTicks": 91,
          "midi": 57,
          "name": "A3",
          "ticks": 39312,
          "time": 116.99988300000001,
          "velocity": 0.7952755905511811
        },
        {
          "duration": 0.27083306250000305,
          "durationTicks": 91,
          "midi": 60,
          "name": "C4",
          "ticks": 39456,
          "time": 117.42845400000002,
          "velocity": 0.7952755905511811
        },
        {
          "duration": 0.27083306250000305,
          "durationTicks": 91,
          "midi": 59,
          "name": "B3",
          "ticks": 39552,
          "time": 117.71416800000002,
          "velocity": 0.7952755905511811
        },
        {
          "duration": 0.27083306250000305,
          "durationTicks": 91,
          "midi": 62,
          "name": "D4",
          "ticks": 39696,
          "time": 118.142739,
          "velocity": 0.7952755905511811
        },
        {
          "duration": 0.27083306250000305,
          "durationTicks": 91,
          "midi": 65,
          "name": "F4",
          "ticks": 39840,
          "time": 118.57131000000001,
          "velocity": 0.7952755905511811
        },
        {
          "duration": 0.27083306250000305,
          "durationTicks": 91,
          "midi": 63,
          "name": "D#4",
          "ticks": 39936,
          "time": 118.85702400000001,
          "velocity": 0.7952755905511811
        },
        {
          "duration": 0.27083306250000305,
          "durationTicks": 91,
          "midi": 60,
          "name": "C4",
          "ticks": 40080,
          "time": 119.28559500000001,
          "velocity": 0.7952755905511811
        },
        {
          "duration": 0.27083306250000305,
          "durationTicks": 91,
          "midi": 63,
          "name": "D#4",
          "ticks": 40224,
          "time": 119.714166,
          "velocity": 0.7952755905511811
        },
        {
          "duration": 0.27083306250001726,
          "durationTicks": 91,
          "midi": 67,
          "name": "G4",
          "ticks": 40320,
          "time": 119.99988,
          "velocity": 0.7952755905511811
        },
        {
          "duration": 0.27083306250000305,
          "durationTicks": 91,
          "midi": 60,
          "name": "C4",
          "ticks": 40464,
          "time": 120.42845100000001,
          "velocity": 0.7952755905511811
        },
        {
          "duration": 0.27083306250000305,
          "durationTicks": 91,
          "midi": 67,
          "name": "G4",
          "ticks": 40608,
          "time": 120.85702200000001,
          "velocity": 0.7952755905511811
        },
        {
          "duration": 0.27083306250000305,
          "durationTicks": 91,
          "midi": 62,
          "name": "D4",
          "ticks": 40704,
          "time": 121.14273600000001,
          "velocity": 0.7952755905511811
        },
        {
          "duration": 0.27083306250001726,
          "durationTicks": 91,
          "midi": 58,
          "name": "A#3",
          "ticks": 40848,
          "time": 121.571307,
          "velocity": 0.7952755905511811
        },
        {
          "duration": 0.27083306250000305,
          "durationTicks": 91,
          "midi": 62,
          "name": "D4",
          "ticks": 40992,
          "time": 121.99987800000001,
          "velocity": 0.7952755905511811
        },
        {
          "duration": 0.27083306250000305,
          "durationTicks": 91,
          "midi": 61,
          "name": "C#4",
          "ticks": 41088,
          "time": 122.28559200000001,
          "velocity": 0.7952755905511811
        },
        {
          "duration": 0.27083306250000305,
          "durationTicks": 91,
          "midi": 57,
          "name": "A3",
          "ticks": 41232,
          "time": 122.71416300000001,
          "velocity": 0.7952755905511811
        },
        {
          "duration": 0.27083306250001726,
          "durationTicks": 91,
          "midi": 61,
          "name": "C#4",
          "ticks": 41376,
          "time": 123.142734,
          "velocity": 0.7952755905511811
        },
        {
          "duration": 0.27083306250001726,
          "durationTicks": 91,
          "midi": 62,
          "name": "D4",
          "ticks": 41472,
          "time": 123.428448,
          "velocity": 0.7952755905511811
        },
        {
          "duration": 0.27083306250000305,
          "durationTicks": 91,
          "midi": 66,
          "name": "F#4",
          "ticks": 41760,
          "time": 124.28559000000001,
          "velocity": 0.7952755905511811
        },
        {
          "duration": 0.27083306250000305,
          "durationTicks": 91,
          "midi": 58,
          "name": "A#3",
          "ticks": 41856,
          "time": 124.57130400000001,
          "velocity": 0.7952755905511811
        },
        {
          "duration": 0.27083306250000305,
          "durationTicks": 91,
          "midi": 62,
          "name": "D4",
          "ticks": 42000,
          "time": 124.99987500000002,
          "velocity": 0.7952755905511811
        },
        {
          "duration": 0.27083306250000305,
          "durationTicks": 91,
          "midi": 58,
          "name": "A#3",
          "ticks": 42144,
          "time": 125.42844600000001,
          "velocity": 0.7952755905511811
        },
        {
          "duration": 0.27083306250000305,
          "durationTicks": 91,
          "midi": 60,
          "name": "C4",
          "ticks": 42240,
          "time": 125.71416,
          "velocity": 0.7952755905511811
        },
        {
          "duration": 0.27083306250000305,
          "durationTicks": 91,
          "midi": 57,
          "name": "A3",
          "ticks": 42384,
          "time": 126.14273100000001,
          "velocity": 0.7952755905511811
        },
        {
          "duration": 0.27083306250000305,
          "durationTicks": 91,
          "midi": 60,
          "name": "C4",
          "ticks": 42528,
          "time": 126.57130200000002,
          "velocity": 0.7952755905511811
        },
        {
          "duration": 0.27083306250000305,
          "durationTicks": 91,
          "midi": 59,
          "name": "B3",
          "ticks": 42624,
          "time": 126.85701600000002,
          "velocity": 0.7952755905511811
        },
        {
          "duration": 0.27083306250000305,
          "durationTicks": 91,
          "midi": 62,
          "name": "D4",
          "ticks": 42768,
          "time": 127.285587,
          "velocity": 0.7952755905511811
        },
        {
          "duration": 0.27083306250000305,
          "durationTicks": 91,
          "midi": 65,
          "name": "F4",
          "ticks": 42912,
          "time": 127.71415800000001,
          "velocity": 0.7952755905511811
        },
        {
          "duration": 0.27083306250000305,
          "durationTicks": 91,
          "midi": 63,
          "name": "D#4",
          "ticks": 43008,
          "time": 127.99987200000001,
          "velocity": 0.7952755905511811
        },
        {
          "duration": 0.27083306250000305,
          "durationTicks": 91,
          "midi": 60,
          "name": "C4",
          "ticks": 43152,
          "time": 128.42844300000002,
          "velocity": 0.7952755905511811
        },
        {
          "duration": 0.27083306250000305,
          "durationTicks": 91,
          "midi": 63,
          "name": "D#4",
          "ticks": 43296,
          "time": 128.85701400000002,
          "velocity": 0.7952755905511811
        },
        {
          "duration": 0.27083306250000305,
          "durationTicks": 91,
          "midi": 67,
          "name": "G4",
          "ticks": 43392,
          "time": 129.142728,
          "velocity": 0.7952755905511811
        },
        {
          "duration": 0.27083306250000305,
          "durationTicks": 91,
          "midi": 60,
          "name": "C4",
          "ticks": 43536,
          "time": 129.571299,
          "velocity": 0.7952755905511811
        },
        {
          "duration": 0.27083306250000305,
          "durationTicks": 91,
          "midi": 67,
          "name": "G4",
          "ticks": 43680,
          "time": 129.99987000000002,
          "velocity": 0.7952755905511811
        },
        {
          "duration": 0.27083306250000305,
          "durationTicks": 91,
          "midi": 70,
          "name": "A#4",
          "ticks": 43776,
          "time": 130.285584,
          "velocity": 0.7952755905511811
        },
        {
          "duration": 0.27083306250000305,
          "durationTicks": 91,
          "midi": 69,
          "name": "A4",
          "ticks": 43920,
          "time": 130.714155,
          "velocity": 0.7952755905511811
        },
        {
          "duration": 0.27083306250000305,
          "durationTicks": 91,
          "midi": 67,
          "name": "G4",
          "ticks": 44064,
          "time": 131.142726,
          "velocity": 0.7952755905511811
        },
        {
          "duration": 0.27083306250000305,
          "durationTicks": 91,
          "midi": 69,
          "name": "A4",
          "ticks": 44160,
          "time": 131.42844000000002,
          "velocity": 0.7952755905511811
        },
        {
          "duration": 0.27083306250000305,
          "durationTicks": 91,
          "midi": 69,
          "name": "A4",
          "ticks": 44304,
          "time": 131.857011,
          "velocity": 0.7952755905511811
        },
        {
          "duration": 0.1279760625000108,
          "durationTicks": 43,
          "midi": 69,
          "name": "A4",
          "ticks": 44448,
          "time": 132.285582,
          "velocity": 0.7952755905511811
        },
        {
          "duration": 0.1279760625000108,
          "durationTicks": 43,
          "midi": 67,
          "name": "G4",
          "ticks": 44496,
          "time": 132.428439,
          "velocity": 0.7952755905511811
        },
        {
          "duration": 0.1279760625000108,
          "durationTicks": 43,
          "midi": 66,
          "name": "F#4",
          "ticks": 44544,
          "time": 132.57129600000002,
          "velocity": 0.7952755905511811
        },
        {
          "duration": 0.1279760624999824,
          "durationTicks": 43,
          "midi": 67,
          "name": "G4",
          "ticks": 44688,
          "time": 132.99986700000002,
          "velocity": 0.7952755905511811
        },
        {
          "duration": 0.27083306250000305,
          "durationTicks": 91,
          "midi": 69,
          "name": "A4",
          "ticks": 44832,
          "time": 133.428438,
          "velocity": 0.7952755905511811
        },
        {
          "duration": 4.520828812500014,
          "durationTicks": 1519,
          "midi": 67,
          "name": "G4",
          "ticks": 44928,
          "time": 133.714152,
          "velocity": 0.7559055118110236
        }
      ],
      "endOfTrackTicks": 47692
    },
    {
      "channel": 11,
      "controlChanges": {
        "6": [
          {
            "number": 6,
            "ticks": 0,
            "time": 0,
            "value": 0.09448818897637795
          },
          {
            "number": 6,
            "ticks": 0,
            "time": 0,
            "value": 0.09448818897637795
          },
          {
            "number": 6,
            "ticks": 0,
            "time": 0,
            "value": 0.09448818897637795
          },
          {
            "number": 6,
            "ticks": 47690,
            "time": 141.934381875,
            "value": 0.09448818897637795
          },
          {
            "number": 6,
            "ticks": 47692,
            "time": 141.94033425,
            "value": 0.09448818897637795
          }
        ],
        "7": [
          {
            "number": 7,
            "ticks": 0,
            "time": 0,
            "value": 0.7874015748031497
          },
          {
            "number": 7,
            "ticks": 0,
            "time": 0,
            "value": 0.7874015748031497
          },
          {
            "number": 7,
            "ticks": 0,
            "time": 0,
            "value": 0.7874015748031497
          },
          {
            "number": 7,
            "ticks": 0,
            "time": 0,
            "value": 0.7874015748031497
          },
          {
            "number": 7,
            "ticks": 47690,
            "time": 141.934381875,
            "value": 0.7874015748031497
          },
          {
            "number": 7,
            "ticks": 47692,
            "time": 141.94033425,
            "value": 0.7874015748031497
          }
        ],
        "10": [
          {
            "number": 10,
            "ticks": 0,
            "time": 0,
            "value": 0.5039370078740157
          },
          {
            "number": 10,
            "ticks": 0,
            "time": 0,
            "value": 0.5039370078740157
          },
          {
            "number": 10,
            "ticks": 0,
            "time": 0,
            "value": 0.5039370078740157
          },
          {
            "number": 10,
            "ticks": 0,
            "time": 0,
            "value": 0.5039370078740157
          },
          {
            "number": 10,
            "ticks": 47690,
            "time": 141.934381875,
            "value": 0.5039370078740157
          },
          {
            "number": 10,
            "ticks": 47692,
            "time": 141.94033425,
            "value": 0.5039370078740157
          }
        ],
        "100": [
          {
            "number": 100,
            "ticks": 0,
            "time": 0,
            "value": 0
          },
          {
            "number": 100,
            "ticks": 0,
            "time": 0,
            "value": 0
          },
          {
            "number": 100,
            "ticks": 0,
            "time": 0,
            "value": 0
          },
          {
            "number": 100,
            "ticks": 47690,
            "time": 141.934381875,
            "value": 0
          },
          {
            "number": 100,
            "ticks": 47692,
            "time": 141.94033425,
            "value": 0
          }
        ],
        "101": [
          {
            "number": 101,
            "ticks": 0,
            "time": 0,
            "value": 0
          },
          {
            "number": 101,
            "ticks": 0,
            "time": 0,
            "value": 0
          },
          {
            "number": 101,
            "ticks": 0,
            "time": 0,
            "value": 0
          },
          {
            "number": 101,
            "ticks": 47690,
            "time": 141.934381875,
            "value": 0
          },
          {
            "number": 101,
            "ticks": 47692,
            "time": 141.94033425,
            "value": 0
          }
        ]
      },
      "pitchBends": [
        {
          "ticks": 0,
          "time": 0,
          "value": 0
        },
        {
          "ticks": 0,
          "time": 0,
          "value": 0
        },
        {
          "ticks": 0,
          "time": 0,
          "value": 0
        },
        {
          "ticks": 0,
          "time": 0,
          "value": 0
        },
        {
          "ticks": 47690,
          "time": 141.934381875,
          "value": 0
        },
        {
          "ticks": 47692,
          "time": 141.94033425,
          "value": 0
        }
      ],
      "instrument": {
        "family": "piano",
        "number": 0,
        "name": "acoustic grand piano"
      },
      "name": "Bass",
      "notes": [
        {
          "duration": 1.142856,
          "durationTicks": 384,
          "midi": 31,
          "name": "G1",
          "ticks": 1920,
          "time": 5.7142800000000005,
          "velocity": 0.7165354330708661
        },
        {
          "duration": 1.142856,
          "durationTicks": 384,
          "midi": 30,
          "name": "F#1",
          "ticks": 2304,
          "time": 6.857136000000001,
          "velocity": 0.7165354330708661
        },
        {
          "duration": 1.142856,
          "durationTicks": 384,
          "midi": 34,
          "name": "A#1",
          "ticks": 2688,
          "time": 7.999992000000001,
          "velocity": 0.7165354330708661
        },
        {
          "duration": 1.142856,
          "durationTicks": 384,
          "midi": 35,
          "name": "B1",
          "ticks": 3072,
          "time": 9.142848,
          "velocity": 0.7165354330708661
        },
        {
          "duration": 1.142856,
          "durationTicks": 384,
          "midi": 36,
          "name": "C2",
          "ticks": 3456,
          "time": 10.285704,
          "velocity": 0.7165354330708661
        },
        {
          "duration": 1.142856,
          "durationTicks": 384,
          "midi": 37,
          "name": "C#2",
          "ticks": 3840,
          "time": 11.428560000000001,
          "velocity": 0.7165354330708661
        },
        {
          "duration": 2.285712,
          "durationTicks": 768,
          "midi": 38,
          "name": "D2",
          "ticks": 4224,
          "time": 12.571416000000001,
          "velocity": 0.7165354330708661
        },
        {
          "duration": 2.2857119999999984,
          "durationTicks": 768,
          "midi": 38,
          "name": "D2",
          "ticks": 4992,
          "time": 14.857128000000001,
          "velocity": 0.7165354330708661
        },
        {
          "duration": 0.28571400000000224,
          "durationTicks": 96,
          "midi": 38,
          "name": "D2",
          "ticks": 5760,
          "time": 17.14284,
          "velocity": 0.7165354330708661
        },
        {
          "duration": 1.6904745000000005,
          "durationTicks": 568,
          "midi": 43,
          "name": "G2",
          "ticks": 6528,
          "time": 19.428552000000003,
          "velocity": 0.7795275590551181
        },
        {
          "duration": 0.5238089999999964,
          "durationTicks": 176,
          "midi": 43,
          "name": "G2",
          "ticks": 7104,
          "time": 21.142836000000003,
          "velocity": 0.7795275590551181
        },
        {
          "duration": 1.690474500000004,
          "durationTicks": 568,
          "midi": 43,
          "name": "G2",
          "ticks": 7296,
          "time": 21.714264,
          "velocity": 0.7795275590551181
        },
        {
          "duration": 0.09523799999999838,
          "durationTicks": 32,
          "midi": 43,
          "name": "G2",
          "ticks": 7872,
          "time": 23.428548000000003,
          "velocity": 0.7795275590551181
        },
        {
          "duration": 0.09523799999999838,
          "durationTicks": 32,
          "midi": 43,
          "name": "G2",
          "ticks": 7920,
          "time": 23.571405000000002,
          "velocity": 0.7795275590551181
        },
        {
          "duration": 0.26190450000000354,
          "durationTicks": 88,
          "midi": 43,
          "name": "G2",
          "ticks": 7968,
          "time": 23.714262,
          "velocity": 0.7795275590551181
        },
        {
          "duration": 1.6904745000000005,
          "durationTicks": 568,
          "midi": 43,
          "name": "G2",
          "ticks": 8064,
          "time": 23.999976000000004,
          "velocity": 0.7795275590551181
        },
        {
          "duration": 0.2619045,
          "durationTicks": 88,
          "midi": 43,
          "name": "G2",
          "ticks": 8640,
          "time": 25.714260000000003,
          "velocity": 0.7795275590551181
        },
        {
          "duration": 0.26190450000000354,
          "durationTicks": 88,
          "midi": 43,
          "name": "G2",
          "ticks": 8736,
          "time": 25.999974,
          "velocity": 0.7795275590551181
        },
        {
          "duration": 1.690474500000004,
          "durationTicks": 568,
          "midi": 43,
          "name": "G2",
          "ticks": 8832,
          "time": 26.285688,
          "velocity": 0.7795275590551181
        },
        {
          "duration": 0.09523799999999838,
          "durationTicks": 32,
          "midi": 43,
          "name": "G2",
          "ticks": 9408,
          "time": 27.999972000000003,
          "velocity": 0.7795275590551181
        },
        {
          "duration": 0.09523799999999838,
          "durationTicks": 32,
          "midi": 43,
          "name": "G2",
          "ticks": 9456,
          "time": 28.142829000000003,
          "velocity": 0.7795275590551181
        },
        {
          "duration": 0.26190450000000354,
          "durationTicks": 88,
          "midi": 43,
          "name": "G2",
          "ticks": 9504,
          "time": 28.285686000000002,
          "velocity": 0.7795275590551181
        },
        {
          "duration": 0.2619045,
          "durationTicks": 88,
          "midi": 43,
          "name": "G2",
          "ticks": 9600,
          "time": 28.571400000000004,
          "velocity": 0.7480314960629921
        },
        {
          "duration": 0.11904750000000064,
          "durationTicks": 40,
          "midi": 43,
          "name": "G2",
          "ticks": 9696,
          "time": 28.857114000000003,
          "velocity": 0.7480314960629921
        },
        {
          "duration": 0.2619045,
          "durationTicks": 88,
          "midi": 43,
          "name": "G2",
          "ticks": 9744,
          "time": 28.999971000000002,
          "velocity": 0.7480314960629921
        },
        {
          "duration": 0.11904750000000419,
          "durationTicks": 40,
          "midi": 43,
          "name": "G2",
          "ticks": 9840,
          "time": 29.285685,
          "velocity": 0.7480314960629921
        },
        {
          "duration": 0.2619045,
          "durationTicks": 88,
          "midi": 43,
          "name": "G2",
          "ticks": 9888,
          "time": 29.428542000000004,
          "velocity": 0.7480314960629921
        },
        {
          "duration": 0.11904750000000064,
          "durationTicks": 40,
          "midi": 43,
          "name": "G2",
          "ticks": 9984,
          "time": 29.714256000000002,
          "velocity": 0.7480314960629921
        },
        {
          "duration": 0.26190450000000354,
          "durationTicks": 88,
          "midi": 43,
          "name": "G2",
          "ticks": 10032,
          "time": 29.857113000000002,
          "velocity": 0.7480314960629921
        },
        {
          "duration": 0.11904750000000064,
          "durationTicks": 40,
          "midi": 43,
          "name": "G2",
          "ticks": 10128,
          "time": 30.142827000000004,
          "velocity": 0.7480314960629921
        },
        {
          "duration": 0.2619045,
          "durationTicks": 88,
          "midi": 43,
          "name": "G2",
          "ticks": 10176,
          "time": 30.285684000000003,
          "velocity": 0.7480314960629921
        },
        {
          "duration": 0.26190450000000354,
          "durationTicks": 88,
          "midi": 43,
          "name": "G2",
          "ticks": 10272,
          "time": 30.571398000000002,
          "velocity": 0.7480314960629921
        },
        {
          "duration": 0.26190450000000354,
          "durationTicks": 88,
          "midi": 43,
          "name": "G2",
          "ticks": 10368,
          "time": 30.857112,
          "velocity": 0.7480314960629921
        },
        {
          "duration": 0.11904750000000064,
          "durationTicks": 40,
          "midi": 43,
          "name": "G2",
          "ticks": 10464,
          "time": 31.142826000000003,
          "velocity": 0.7480314960629921
        },
        {
          "duration": 0.2619045,
          "durationTicks": 88,
          "midi": 43,
          "name": "G2",
          "ticks": 10512,
          "time": 31.285683000000002,
          "velocity": 0.7480314960629921
        },
        {
          "duration": 0.11904750000000419,
          "durationTicks": 40,
          "midi": 43,
          "name": "G2",
          "ticks": 10608,
          "time": 31.571397,
          "velocity": 0.7480314960629921
        },
        {
          "duration": 0.2619045,
          "durationTicks": 88,
          "midi": 43,
          "name": "G2",
          "ticks": 10656,
          "time": 31.714254000000004,
          "velocity": 0.7480314960629921
        },
        {
          "duration": 0.11904750000000064,
          "durationTicks": 40,
          "midi": 43,
          "name": "G2",
          "ticks": 10752,
          "time": 31.999968000000003,
          "velocity": 0.7480314960629921
        },
        {
          "duration": 0.2619045,
          "durationTicks": 88,
          "midi": 43,
          "name": "G2",
          "ticks": 10800,
          "time": 32.142825,
          "velocity": 0.7480314960629921
        },
        {
          "duration": 0.11904750000000064,
          "durationTicks": 40,
          "midi": 43,
          "name": "G2",
          "ticks": 10896,
          "time": 32.428539,
          "velocity": 0.7480314960629921
        },
        {
          "duration": 0.2619045000000071,
          "durationTicks": 88,
          "midi": 43,
          "name": "G2",
          "ticks": 10944,
          "time": 32.571396,
          "velocity": 0.7480314960629921
        },
        {
          "duration": 0.2619045,
          "durationTicks": 88,
          "midi": 43,
          "name": "G2",
          "ticks": 11040,
          "time": 32.857110000000006,
          "velocity": 0.7480314960629921
        },
        {
          "duration": 0.2619045,
          "durationTicks": 88,
          "midi": 43,
          "name": "G2",
          "ticks": 11136,
          "time": 33.142824000000005,
          "velocity": 0.7480314960629921
        },
        {
          "duration": 0.11904750000000064,
          "durationTicks": 40,
          "midi": 43,
          "name": "G2",
          "ticks": 11232,
          "time": 33.428538,
          "velocity": 0.7480314960629921
        },
        {
          "duration": 0.2619045,
          "durationTicks": 88,
          "midi": 43,
          "name": "G2",
          "ticks": 11280,
          "time": 33.571395,
          "velocity": 0.7480314960629921
        },
        {
          "duration": 0.11904750000000064,
          "durationTicks": 40,
          "midi": 43,
          "name": "G2",
          "ticks": 11376,
          "time": 33.857109,
          "velocity": 0.7480314960629921
        },
        {
          "duration": 0.2619045000000071,
          "durationTicks": 88,
          "midi": 43,
          "name": "G2",
          "ticks": 11424,
          "time": 33.999966,
          "velocity": 0.7480314960629921
        },
        {
          "duration": 0.11904750000000774,
          "durationTicks": 40,
          "midi": 43,
          "name": "G2",
          "ticks": 11520,
          "time": 34.28568,
          "velocity": 0.7480314960629921
        },
        {
          "duration": 0.2619045,
          "durationTicks": 88,
          "midi": 43,
          "name": "G2",
          "ticks": 11568,
          "time": 34.428537000000006,
          "velocity": 0.7480314960629921
        },
        {
          "duration": 0.11904750000000064,
          "durationTicks": 40,
          "midi": 43,
          "name": "G2",
          "ticks": 11664,
          "time": 34.714251000000004,
          "velocity": 0.7480314960629921
        },
        {
          "duration": 0.2619045,
          "durationTicks": 88,
          "midi": 43,
          "name": "G2",
          "ticks": 11712,
          "time": 34.857108000000004,
          "velocity": 0.7480314960629921
        },
        {
          "duration": 0.2619045,
          "durationTicks": 88,
          "midi": 43,
          "name": "G2",
          "ticks": 11808,
          "time": 35.142822,
          "velocity": 0.7480314960629921
        },
        {
          "duration": 0.2619045,
          "durationTicks": 88,
          "midi": 43,
          "name": "G2",
          "ticks": 11904,
          "time": 35.428536,
          "velocity": 0.7480314960629921
        },
        {
          "duration": 0.11904750000000774,
          "durationTicks": 40,
          "midi": 43,
          "name": "G2",
          "ticks": 12000,
          "time": 35.71425,
          "velocity": 0.7480314960629921
        },
        {
          "duration": 0.2619045,
          "durationTicks": 88,
          "midi": 43,
          "name": "G2",
          "ticks": 12048,
          "time": 35.857107000000006,
          "velocity": 0.7480314960629921
        },
        {
          "duration": 0.11904750000000064,
          "durationTicks": 40,
          "midi": 43,
          "name": "G2",
          "ticks": 12144,
          "time": 36.142821000000005,
          "velocity": 0.7480314960629921
        },
        {
          "duration": 0.2619045,
          "durationTicks": 88,
          "midi": 43,
          "name": "G2",
          "ticks": 12192,
          "time": 36.285678000000004,
          "velocity": 0.7480314960629921
        },
        {
          "duration": 0.40476149999999933,
          "durationTicks": 136,
          "midi": 42,
          "name": "F#2",
          "ticks": 12288,
          "time": 36.571392,
          "velocity": 0.7480314960629921
        },
        {
          "duration": 0.2619044999999929,
          "durationTicks": 88,
          "midi": 43,
          "name": "G2",
          "ticks": 12672,
          "time": 37.714248000000005,
          "velocity": 0.7401574803149606
        },
        {
          "duration": 0.2619045,
          "durationTicks": 88,
          "midi": 43,
          "name": "G2",
          "ticks": 12768,
          "time": 37.999962000000004,
          "velocity": 0.7401574803149606
        },
        {
          "duration": 0.2619045,
          "durationTicks": 88,
          "midi": 43,
          "name": "G2",
          "ticks": 12864,
          "time": 38.285676,
          "velocity": 0.7401574803149606
        },
        {
          "duration": 0.2619045,
          "durationTicks": 88,
          "midi": 43,
          "name": "G2",
          "ticks": 12960,
          "time": 38.57139,
          "velocity": 0.7401574803149606
        },
        {
          "duration": 0.2619044999999929,
          "durationTicks": 88,
          "midi": 43,
          "name": "G2",
          "ticks": 13056,
          "time": 38.85710400000001,
          "velocity": 0.7401574803149606
        },
        {
          "duration": 0.2619044999999929,
          "durationTicks": 88,
          "midi": 43,
          "name": "G2",
          "ticks": 13152,
          "time": 39.142818000000005,
          "velocity": 0.7401574803149606
        },
        {
          "duration": 0.2619044999999929,
          "durationTicks": 88,
          "midi": 43,
          "name": "G2",
          "ticks": 13248,
          "time": 39.428532000000004,
          "velocity": 0.7401574803149606
        },
        {
          "duration": 0.11904750000000064,
          "durationTicks": 40,
          "midi": 43,
          "name": "G2",
          "ticks": 13344,
          "time": 39.714246,
          "velocity": 0.7401574803149606
        },
        {
          "duration": 0.11904750000000064,
          "durationTicks": 40,
          "midi": 43,
          "name": "G2",
          "ticks": 13392,
          "time": 39.857103,
          "velocity": 0.7401574803149606
        },
        {
          "duration": 0.2619045,
          "durationTicks": 88,
          "midi": 43,
          "name": "G2",
          "ticks": 13440,
          "time": 39.99996,
          "velocity": 0.7401574803149606
        },
        {
          "duration": 0.2619045,
          "durationTicks": 88,
          "midi": 43,
          "name": "G2",
          "ticks": 13536,
          "time": 40.285674,
          "velocity": 0.7401574803149606
        },
        {
          "duration": 0.2619044999999929,
          "durationTicks": 88,
          "midi": 43,
          "name": "G2",
          "ticks": 13632,
          "time": 40.571388000000006,
          "velocity": 0.7401574803149606
        },
        {
          "duration": 0.2619044999999929,
          "durationTicks": 88,
          "midi": 43,
          "name": "G2",
          "ticks": 13728,
          "time": 40.857102000000005,
          "velocity": 0.7401574803149606
        },
        {
          "duration": 0.2619045,
          "durationTicks": 88,
          "midi": 43,
          "name": "G2",
          "ticks": 13824,
          "time": 41.142816,
          "velocity": 0.7401574803149606
        },
        {
          "duration": 0.2619045,
          "durationTicks": 88,
          "midi": 43,
          "name": "G2",
          "ticks": 13920,
          "time": 41.42853,
          "velocity": 0.7401574803149606
        },
        {
          "duration": 0.11904750000000064,
          "durationTicks": 40,
          "midi": 43,
          "name": "G2",
          "ticks": 14016,
          "time": 41.714244,
          "velocity": 0.7401574803149606
        },
        {
          "duration": 0.2619045,
          "durationTicks": 88,
          "midi": 43,
          "name": "G2",
          "ticks": 14064,
          "time": 41.857101,
          "velocity": 0.7401574803149606
        },
        {
          "duration": 0.11904749999999353,
          "durationTicks": 40,
          "midi": 43,
          "name": "G2",
          "ticks": 14160,
          "time": 42.142815000000006,
          "velocity": 0.7401574803149606
        },
        {
          "duration": 0.2619044999999929,
          "durationTicks": 88,
          "midi": 43,
          "name": "G2",
          "ticks": 14208,
          "time": 42.285672000000005,
          "velocity": 0.7401574803149606
        },
        {
          "duration": 0.2619045,
          "durationTicks": 88,
          "midi": 43,
          "name": "G2",
          "ticks": 14304,
          "time": 42.571386000000004,
          "velocity": 0.7401574803149606
        },
        {
          "duration": 0.2619045,
          "durationTicks": 88,
          "midi": 43,
          "name": "G2",
          "ticks": 14400,
          "time": 42.8571,
          "velocity": 0.7401574803149606
        },
        {
          "duration": 0.2619045,
          "durationTicks": 88,
          "midi": 43,
          "name": "G2",
          "ticks": 14496,
          "time": 43.142814,
          "velocity": 0.7401574803149606
        },
        {
          "duration": 0.2619045,
          "durationTicks": 88,
          "midi": 43,
          "name": "G2",
          "ticks": 14592,
          "time": 43.428528,
          "velocity": 0.7401574803149606
        },
        {
          "duration": 0.11904749999999353,
          "durationTicks": 40,
          "midi": 43,
          "name": "G2",
          "ticks": 14688,
          "time": 43.714242000000006,
          "velocity": 0.7401574803149606
        },
        {
          "duration": 0.11904749999999353,
          "durationTicks": 40,
          "midi": 43,
          "name": "G2",
          "ticks": 14736,
          "time": 43.857099000000005,
          "velocity": 0.7401574803149606
        },
        {
          "duration": 0.11904749999999353,
          "durationTicks": 40,
          "midi": 43,
          "name": "G2",
          "ticks": 14784,
          "time": 43.999956000000005,
          "velocity": 0.7401574803149606
        },
        {
          "duration": 0.023809500000005812,
          "durationTicks": 8,
          "midi": 43,
          "name": "G2",
          "ticks": 14832,
          "time": 44.142813000000004,
          "velocity": 0.7401574803149606
        },
        {
          "duration": 0.023809500000005812,
          "durationTicks": 8,
          "midi": 43,
          "name": "G2",
          "ticks": 14848,
          "time": 44.190432,
          "velocity": 0.7401574803149606
        },
        {
          "duration": 0.0238094999999916,
          "durationTicks": 8,
          "midi": 43,
          "name": "G2",
          "ticks": 14864,
          "time": 44.238051000000006,
          "velocity": 0.7401574803149606
        },
        {
          "duration": 0.11904750000000064,
          "durationTicks": 40,
          "midi": 43,
          "name": "G2",
          "ticks": 14880,
          "time": 44.28567,
          "velocity": 0.7401574803149606
        },
        {
          "duration": 0.11904750000000064,
          "durationTicks": 40,
          "midi": 43,
          "name": "G2",
          "ticks": 14928,
          "time": 44.428527,
          "velocity": 0.7401574803149606
        },
        {
          "duration": 0.2619045,
          "durationTicks": 88,
          "midi": 43,
          "name": "G2",
          "ticks": 14976,
          "time": 44.571384,
          "velocity": 0.7401574803149606
        },
        {
          "duration": 0.2619045,
          "durationTicks": 88,
          "midi": 43,
          "name": "G2",
          "ticks": 15072,
          "time": 44.857098,
          "velocity": 0.7401574803149606
        },
        {
          "duration": 0.2619044999999929,
          "durationTicks": 88,
          "midi": 43,
          "name": "G2",
          "ticks": 15168,
          "time": 45.142812000000006,
          "velocity": 0.7401574803149606
        },
        {
          "duration": 0.2619044999999929,
          "durationTicks": 88,
          "midi": 43,
          "name": "G2",
          "ticks": 15264,
          "time": 45.428526000000005,
          "velocity": 0.7401574803149606
        },
        {
          "duration": 0.2619045,
          "durationTicks": 88,
          "midi": 43,
          "name": "G2",
          "ticks": 15360,
          "time": 45.714240000000004,
          "velocity": 0.7401574803149606
        },
        {
          "duration": 0.2619045,
          "durationTicks": 88,
          "midi": 43,
          "name": "G2",
          "ticks": 15456,
          "time": 45.999954,
          "velocity": 0.7401574803149606
        },
        {
          "duration": 0.11904750000000064,
          "durationTicks": 40,
          "midi": 43,
          "name": "G2",
          "ticks": 15552,
          "time": 46.285668,
          "velocity": 0.7401574803149606
        },
        {
          "duration": 0.11904750000000064,
          "durationTicks": 40,
          "midi": 43,
          "name": "G2",
          "ticks": 15600,
          "time": 46.428525,
          "velocity": 0.7401574803149606
        },
        {
          "duration": 0.11904749999999353,
          "durationTicks": 40,
          "midi": 43,
          "name": "G2",
          "ticks": 15648,
          "time": 46.57138200000001,
          "velocity": 0.7401574803149606
        },
        {
          "duration": 0.11904749999999353,
          "durationTicks": 40,
          "midi": 43,
          "name": "G2",
          "ticks": 15696,
          "time": 46.714239000000006,
          "velocity": 0.7401574803149606
        },
        {
          "duration": 0.11904749999999353,
          "durationTicks": 40,
          "midi": 43,
          "name": "G2",
          "ticks": 15792,
          "time": 46.999953000000005,
          "velocity": 0.7480314960629921
        },
        {
          "duration": 0.2619045,
          "durationTicks": 88,
          "midi": 43,
          "name": "G2",
          "ticks": 15840,
          "time": 47.142810000000004,
          "velocity": 0.7480314960629921
        },
        {
          "duration": 0.2619045,
          "durationTicks": 88,
          "midi": 43,
          "name": "G2",
          "ticks": 15936,
          "time": 47.428524,
          "velocity": 0.7480314960629921
        },
        {
          "duration": 0.2619045,
          "durationTicks": 88,
          "midi": 43,
          "name": "G2",
          "ticks": 16032,
          "time": 47.714238,
          "velocity": 0.7480314960629921
        },
        {
          "duration": 0.2619044999999929,
          "durationTicks": 88,
          "midi": 43,
          "name": "G2",
          "ticks": 16128,
          "time": 47.99995200000001,
          "velocity": 0.7480314960629921
        },
        {
          "duration": 0.2619044999999929,
          "durationTicks": 88,
          "midi": 43,
          "name": "G2",
          "ticks": 16224,
          "time": 48.285666000000006,
          "velocity": 0.7480314960629921
        },
        {
          "duration": 0.11904749999999353,
          "durationTicks": 40,
          "midi": 43,
          "name": "G2",
          "ticks": 16320,
          "time": 48.571380000000005,
          "velocity": 0.7480314960629921
        },
        {
          "duration": 0.04761899999999741,
          "durationTicks": 16,
          "midi": 43,
          "name": "G2",
          "ticks": 16368,
          "time": 48.714237000000004,
          "velocity": 0.7480314960629921
        },
        {
          "duration": 0.04761899999999031,
          "durationTicks": 16,
          "midi": 43,
          "name": "G2",
          "ticks": 16392,
          "time": 48.78566550000001,
          "velocity": 0.7480314960629921
        },
        {
          "duration": 0.11904750000000064,
          "durationTicks": 40,
          "midi": 43,
          "name": "G2",
          "ticks": 16416,
          "time": 48.857094000000004,
          "velocity": 0.7480314960629921
        },
        {
          "duration": 0.11904750000000064,
          "durationTicks": 40,
          "midi": 43,
          "name": "G2",
          "ticks": 16464,
          "time": 48.999951,
          "velocity": 0.7480314960629921
        },
        {
          "duration": 0.2619045,
          "durationTicks": 88,
          "midi": 43,
          "name": "G2",
          "ticks": 16512,
          "time": 49.142808,
          "velocity": 0.7480314960629921
        },
        {
          "duration": 0.2619045,
          "durationTicks": 88,
          "midi": 43,
          "name": "G2",
          "ticks": 16608,
          "time": 49.428522,
          "velocity": 0.7480314960629921
        },
        {
          "duration": 0.2619044999999929,
          "durationTicks": 88,
          "midi": 43,
          "name": "G2",
          "ticks": 16704,
          "time": 49.71423600000001,
          "velocity": 0.7480314960629921
        },
        {
          "duration": 0.11904749999999353,
          "durationTicks": 40,
          "midi": 43,
          "name": "G2",
          "ticks": 16752,
          "time": 49.857093000000006,
          "velocity": 0.7480314960629921
        },
        {
          "duration": 0.11904749999999353,
          "durationTicks": 40,
          "midi": 43,
          "name": "G2",
          "ticks": 16800,
          "time": 49.999950000000005,
          "velocity": 0.7480314960629921
        },
        {
          "duration": 0.11904749999999353,
          "durationTicks": 40,
          "midi": 43,
          "name": "G2",
          "ticks": 16848,
          "time": 50.142807000000005,
          "velocity": 0.7480314960629921
        },
        {
          "duration": 0.2619045,
          "durationTicks": 88,
          "midi": 43,
          "name": "G2",
          "ticks": 16896,
          "time": 50.285664000000004,
          "velocity": 0.7480314960629921
        },
        {
          "duration": 0.2619045,
          "durationTicks": 88,
          "midi": 43,
          "name": "G2",
          "ticks": 16992,
          "time": 50.571378,
          "velocity": 0.7480314960629921
        },
        {
          "duration": 0.11904750000000064,
          "durationTicks": 40,
          "midi": 43,
          "name": "G2",
          "ticks": 17088,
          "time": 50.857092,
          "velocity": 0.7480314960629921
        },
        {
          "duration": 0.11904750000000064,
          "durationTicks": 40,
          "midi": 43,
          "name": "G2",
          "ticks": 17136,
          "time": 50.999949,
          "velocity": 0.7480314960629921
        },
        {
          "duration": 0.11904749999999353,
          "durationTicks": 40,
          "midi": 43,
          "name": "G2",
          "ticks": 17184,
          "time": 51.14280600000001,
          "velocity": 0.7480314960629921
        },
        {
          "duration": 0.11904749999999353,
          "durationTicks": 40,
          "midi": 43,
          "name": "G2",
          "ticks": 17232,
          "time": 51.28566300000001,
          "velocity": 0.7480314960629921
        },
        {
          "duration": 0.11904749999999353,
          "durationTicks": 40,
          "midi": 43,
          "name": "G2",
          "ticks": 17328,
          "time": 51.571377000000005,
          "velocity": 0.7480314960629921
        },
        {
          "duration": 0.2619045,
          "durationTicks": 88,
          "midi": 43,
          "name": "G2",
          "ticks": 17376,
          "time": 51.714234000000005,
          "velocity": 0.7480314960629921
        },
        {
          "duration": 0.2619045,
          "durationTicks": 88,
          "midi": 43,
          "name": "G2",
          "ticks": 17472,
          "time": 51.999948,
          "velocity": 0.7480314960629921
        },
        {
          "duration": 0.2619045,
          "durationTicks": 88,
          "midi": 43,
          "name": "G2",
          "ticks": 17568,
          "time": 52.285662,
          "velocity": 0.7480314960629921
        },
        {
          "duration": 0.2619045,
          "durationTicks": 88,
          "midi": 43,
          "name": "G2",
          "ticks": 17664,
          "time": 52.571376,
          "velocity": 0.7480314960629921
        },
        {
          "duration": 0.2619044999999929,
          "durationTicks": 88,
          "midi": 43,
          "name": "G2",
          "ticks": 17760,
          "time": 52.85709000000001,
          "velocity": 0.7480314960629921
        },
        {
          "duration": 0.11904749999999353,
          "durationTicks": 40,
          "midi": 43,
          "name": "G2",
          "ticks": 17856,
          "time": 53.142804000000005,
          "velocity": 0.7480314960629921
        },
        {
          "duration": 0.11904749999999353,
          "durationTicks": 40,
          "midi": 43,
          "name": "G2",
          "ticks": 17904,
          "time": 53.285661000000005,
          "velocity": 0.7480314960629921
        },
        {
          "duration": 0.11904750000000064,
          "durationTicks": 40,
          "midi": 43,
          "name": "G2",
          "ticks": 17952,
          "time": 53.428518000000004,
          "velocity": 0.7480314960629921
        },
        {
          "duration": 0.11904750000000064,
          "durationTicks": 40,
          "midi": 43,
          "name": "G2",
          "ticks": 18000,
          "time": 53.571375,
          "velocity": 0.7480314960629921
        },
        {
          "duration": 0.5476184999999987,
          "durationTicks": 184,
          "midi": 43,
          "name": "G2",
          "ticks": 18048,
          "time": 53.714232,
          "velocity": 0.7480314960629921
        },
        {
          "duration": 0.5476184999999916,
          "durationTicks": 184,
          "midi": 43,
          "name": "G2",
          "ticks": 18240,
          "time": 54.28566000000001,
          "velocity": 0.7480314960629921
        },
        {
          "duration": 0.5476184999999987,
          "durationTicks": 184,
          "midi": 43,
          "name": "G2",
          "ticks": 18432,
          "time": 54.857088000000005,
          "velocity": 0.7480314960629921
        },
        {
          "duration": 0.2619044999999929,
          "durationTicks": 88,
          "midi": 43,
          "name": "G2",
          "ticks": 18816,
          "time": 55.999944000000006,
          "velocity": 0.7401574803149606
        },
        {
          "duration": 0.2619045,
          "durationTicks": 88,
          "midi": 43,
          "name": "G2",
          "ticks": 18912,
          "time": 56.285658000000005,
          "velocity": 0.7401574803149606
        },
        {
          "duration": 0.2619045,
          "durationTicks": 88,
          "midi": 43,
          "name": "G2",
          "ticks": 19008,
          "time": 56.571372000000004,
          "velocity": 0.7401574803149606
        },
        {
          "duration": 0.2619045,
          "durationTicks": 88,
          "midi": 43,
          "name": "G2",
          "ticks": 19104,
          "time": 56.857086,
          "velocity": 0.7401574803149606
        },
        {
          "duration": 0.2619044999999929,
          "durationTicks": 88,
          "midi": 43,
          "name": "G2",
          "ticks": 19200,
          "time": 57.14280000000001,
          "velocity": 0.7401574803149606
        },
        {
          "duration": 0.2619044999999929,
          "durationTicks": 88,
          "midi": 43,
          "name": "G2",
          "ticks": 19296,
          "time": 57.42851400000001,
          "velocity": 0.7401574803149606
        },
        {
          "duration": 0.2619044999999929,
          "durationTicks": 88,
          "midi": 43,
          "name": "G2",
          "ticks": 19392,
          "time": 57.714228000000006,
          "velocity": 0.7401574803149606
        },
        {
          "duration": 0.11904750000000064,
          "durationTicks": 40,
          "midi": 43,
          "name": "G2",
          "ticks": 19488,
          "time": 57.999942000000004,
          "velocity": 0.7401574803149606
        },
        {
          "duration": 0.11904750000000064,
          "durationTicks": 40,
          "midi": 43,
          "name": "G2",
          "ticks": 19536,
          "time": 58.142799000000004,
          "velocity": 0.7401574803149606
        },
        {
          "duration": 0.2619045,
          "durationTicks": 88,
          "midi": 43,
          "name": "G2",
          "ticks": 19584,
          "time": 58.285656,
          "velocity": 0.7401574803149606
        },
        {
          "duration": 0.2619045,
          "durationTicks": 88,
          "midi": 43,
          "name": "G2",
          "ticks": 19680,
          "time": 58.57137,
          "velocity": 0.7401574803149606
        },
        {
          "duration": 0.2619044999999929,
          "durationTicks": 88,
          "midi": 43,
          "name": "G2",
          "ticks": 19776,
          "time": 58.85708400000001,
          "velocity": 0.7401574803149606
        },
        {
          "duration": 0.04761899999999741,
          "durationTicks": 16,
          "midi": 43,
          "name": "G2",
          "ticks": 19872,
          "time": 59.142798000000006,
          "velocity": 0.7401574803149606
        },
        {
          "duration": 0.04761899999999741,
          "durationTicks": 16,
          "midi": 43,
          "name": "G2",
          "ticks": 19896,
          "time": 59.2142265,
          "velocity": 0.7401574803149606
        },
        {
          "duration": 0.04761899999999741,
          "durationTicks": 16,
          "midi": 43,
          "name": "G2",
          "ticks": 19920,
          "time": 59.285655000000006,
          "velocity": 0.7401574803149606
        },
        {
          "duration": 0.04761899999999741,
          "durationTicks": 16,
          "midi": 43,
          "name": "G2",
          "ticks": 19944,
          "time": 59.3570835,
          "velocity": 0.7401574803149606
        },
        {
          "duration": 0.2619045,
          "durationTicks": 88,
          "midi": 43,
          "name": "G2",
          "ticks": 19968,
          "time": 59.428512000000005,
          "velocity": 0.7401574803149606
        },
        {
          "duration": 0.11904750000000064,
          "durationTicks": 40,
          "midi": 43,
          "name": "G2",
          "ticks": 20064,
          "time": 59.714226000000004,
          "velocity": 0.7401574803149606
        },
        {
          "duration": 0.11904750000000064,
          "durationTicks": 40,
          "midi": 43,
          "name": "G2",
          "ticks": 20112,
          "time": 59.857083,
          "velocity": 0.7401574803149606
        },
        {
          "duration": 0.2619045,
          "durationTicks": 88,
          "midi": 43,
          "name": "G2",
          "ticks": 20160,
          "time": 59.99994,
          "velocity": 0.7401574803149606
        },
        {
          "duration": 0.11904749999999353,
          "durationTicks": 40,
          "midi": 43,
          "name": "G2",
          "ticks": 20256,
          "time": 60.28565400000001,
          "velocity": 0.7401574803149606
        },
        {
          "duration": 0.11904749999999353,
          "durationTicks": 40,
          "midi": 43,
          "name": "G2",
          "ticks": 20304,
          "time": 60.42851100000001,
          "velocity": 0.7401574803149606
        },
        {
          "duration": 0.2619044999999929,
          "durationTicks": 88,
          "midi": 43,
          "name": "G2",
          "ticks": 20352,
          "time": 60.57136800000001,
          "velocity": 0.7401574803149606
        },
        {
          "duration": 0.2619045,
          "durationTicks": 88,
          "midi": 43,
          "name": "G2",
          "ticks": 20448,
          "time": 60.857082000000005,
          "velocity": 0.7401574803149606
        },
        {
          "duration": 0.2619045,
          "durationTicks": 88,
          "midi": 43,
          "name": "G2",
          "ticks": 20544,
          "time": 61.142796000000004,
          "velocity": 0.7401574803149606
        },
        {
          "duration": 0.2619045,
          "durationTicks": 88,
          "midi": 43,
          "name": "G2",
          "ticks": 20640,
          "time": 61.42851,
          "velocity": 0.7401574803149606
        },
        {
          "duration": 0.2619045,
          "durationTicks": 88,
          "midi": 43,
          "name": "G2",
          "ticks": 20736,
          "time": 61.714224,
          "velocity": 0.7401574803149606
        },
        {
          "duration": 0.2619044999999929,
          "durationTicks": 88,
          "midi": 43,
          "name": "G2",
          "ticks": 20832,
          "time": 61.99993800000001,
          "velocity": 0.7401574803149606
        },
        {
          "duration": 0.11904749999999353,
          "durationTicks": 40,
          "midi": 43,
          "name": "G2",
          "ticks": 20928,
          "time": 62.285652000000006,
          "velocity": 0.7401574803149606
        },
        {
          "duration": 0.11904749999999353,
          "durationTicks": 40,
          "midi": 43,
          "name": "G2",
          "ticks": 20976,
          "time": 62.428509000000005,
          "velocity": 0.7401574803149606
        },
        {
          "duration": 0.11904750000000064,
          "durationTicks": 40,
          "midi": 43,
          "name": "G2",
          "ticks": 21024,
          "time": 62.571366000000005,
          "velocity": 0.7401574803149606
        },
        {
          "duration": 0.11904750000000064,
          "durationTicks": 40,
          "midi": 43,
          "name": "G2",
          "ticks": 21072,
          "time": 62.714223000000004,
          "velocity": 0.7401574803149606
        },
        {
          "duration": 0.11904750000000064,
          "durationTicks": 40,
          "midi": 43,
          "name": "G2",
          "ticks": 21120,
          "time": 62.85708,
          "velocity": 0.7401574803149606
        },
        {
          "duration": 0.11904750000000064,
          "durationTicks": 40,
          "midi": 43,
          "name": "G2",
          "ticks": 21168,
          "time": 62.999937,
          "velocity": 0.7401574803149606
        },
        {
          "duration": 0.2619045,
          "durationTicks": 88,
          "midi": 43,
          "name": "G2",
          "ticks": 21216,
          "time": 63.142794,
          "velocity": 0.7401574803149606
        },
        {
          "duration": 0.2619044999999929,
          "durationTicks": 88,
          "midi": 43,
          "name": "G2",
          "ticks": 21312,
          "time": 63.42850800000001,
          "velocity": 0.7401574803149606
        },
        {
          "duration": 0.11904749999999353,
          "durationTicks": 40,
          "midi": 43,
          "name": "G2",
          "ticks": 21408,
          "time": 63.71422200000001,
          "velocity": 0.7401574803149606
        },
        {
          "duration": 0.11904749999999353,
          "durationTicks": 40,
          "midi": 43,
          "name": "G2",
          "ticks": 21456,
          "time": 63.857079000000006,
          "velocity": 0.7401574803149606
        },
        {
          "duration": 0.11904749999999353,
          "durationTicks": 40,
          "midi": 43,
          "name": "G2",
          "ticks": 21504,
          "time": 63.999936000000005,
          "velocity": 0.7401574803149606
        },
        {
          "duration": 0.04761899999999741,
          "durationTicks": 16,
          "midi": 43,
          "name": "G2",
          "ticks": 21552,
          "time": 64.14279300000001,
          "velocity": 0.7401574803149606
        },
        {
          "duration": 0.04761899999999741,
          "durationTicks": 16,
          "midi": 43,
          "name": "G2",
          "ticks": 21576,
          "time": 64.21422150000001,
          "velocity": 0.7401574803149606
        },
        {
          "duration": 0.2619045,
          "durationTicks": 88,
          "midi": 43,
          "name": "G2",
          "ticks": 21600,
          "time": 64.28565,
          "velocity": 0.7401574803149606
        },
        {
          "duration": 0.04761899999999741,
          "durationTicks": 16,
          "midi": 43,
          "name": "G2",
          "ticks": 21696,
          "time": 64.571364,
          "velocity": 0.7401574803149606
        },
        {
          "duration": 0.04761899999999741,
          "durationTicks": 16,
          "midi": 43,
          "name": "G2",
          "ticks": 21720,
          "time": 64.6427925,
          "velocity": 0.7401574803149606
        },
        {
          "duration": 0.04761899999999741,
          "durationTicks": 16,
          "midi": 43,
          "name": "G2",
          "ticks": 21744,
          "time": 64.71422100000001,
          "velocity": 0.7401574803149606
        },
        {
          "duration": 0.04761899999999741,
          "durationTicks": 16,
          "midi": 43,
          "name": "G2",
          "ticks": 21768,
          "time": 64.7856495,
          "velocity": 0.7401574803149606
        },
        {
          "duration": 0.04761899999999741,
          "durationTicks": 16,
          "midi": 43,
          "name": "G2",
          "ticks": 21792,
          "time": 64.857078,
          "velocity": 0.7401574803149606
        },
        {
          "duration": 0.04761899999999741,
          "durationTicks": 16,
          "midi": 43,
          "name": "G2",
          "ticks": 21816,
          "time": 64.92850650000001,
          "velocity": 0.7401574803149606
        },
        {
          "duration": 0.04761899999999741,
          "durationTicks": 16,
          "midi": 43,
          "name": "G2",
          "ticks": 21840,
          "time": 64.99993500000001,
          "velocity": 0.7401574803149606
        },
        {
          "duration": 0.04761899999999741,
          "durationTicks": 16,
          "midi": 43,
          "name": "G2",
          "ticks": 21864,
          "time": 65.0713635,
          "velocity": 0.7401574803149606
        },
        {
          "duration": 0.2619045,
          "durationTicks": 88,
          "midi": 43,
          "name": "G2",
          "ticks": 21888,
          "time": 65.142792,
          "velocity": 0.7165354330708661
        },
        {
          "duration": 0.2619045,
          "durationTicks": 88,
          "midi": 43,
          "name": "G2",
          "ticks": 21984,
          "time": 65.428506,
          "velocity": 0.6771653543307087
        },
        {
          "duration": 0.2619044999999858,
          "durationTicks": 88,
          "midi": 43,
          "name": "G2",
          "ticks": 22080,
          "time": 65.71422000000001,
          "velocity": 0.6299212598425197
        },
        {
          "duration": 0.2619044999999858,
          "durationTicks": 88,
          "midi": 43,
          "name": "G2",
          "ticks": 22176,
          "time": 65.99993400000001,
          "velocity": 0.5826771653543307
        },
        {
          "duration": 0.2619045,
          "durationTicks": 88,
          "midi": 43,
          "name": "G2",
          "ticks": 22272,
          "time": 66.28564800000001,
          "velocity": 0.5354330708661418
        },
        {
          "duration": 0.2619045,
          "durationTicks": 88,
          "midi": 43,
          "name": "G2",
          "ticks": 22368,
          "time": 66.57136200000001,
          "velocity": 0.4881889763779528
        },
        {
          "duration": 0.2619045,
          "durationTicks": 88,
          "midi": 43,
          "name": "G2",
          "ticks": 22464,
          "time": 66.857076,
          "velocity": 0.4409448818897638
        },
        {
          "duration": 0.2619045,
          "durationTicks": 88,
          "midi": 43,
          "name": "G2",
          "ticks": 22560,
          "time": 67.14279,
          "velocity": 0.3937007874015748
        },
        {
          "duration": 1.142856000000009,
          "durationTicks": 384,
          "midi": 31,
          "name": "G1",
          "ticks": 25728,
          "time": 76.571352,
          "velocity": 0.7559055118110236
        },
        {
          "duration": 1.1428559999999948,
          "durationTicks": 384,
          "midi": 33,
          "name": "A1",
          "ticks": 26112,
          "time": 77.71420800000001,
          "velocity": 0.7559055118110236
        },
        {
          "duration": 1.1428559999999948,
          "durationTicks": 384,
          "midi": 34,
          "name": "A#1",
          "ticks": 26496,
          "time": 78.85706400000001,
          "velocity": 0.7559055118110236
        },
        {
          "duration": 1.142856000000009,
          "durationTicks": 384,
          "midi": 35,
          "name": "B1",
          "ticks": 26880,
          "time": 79.99992,
          "velocity": 0.7559055118110236
        },
        {
          "duration": 1.1428559999999948,
          "durationTicks": 384,
          "midi": 36,
          "name": "C2",
          "ticks": 27264,
          "time": 81.14277600000001,
          "velocity": 0.7559055118110236
        },
        {
          "duration": 1.1428559999999948,
          "durationTicks": 384,
          "midi": 37,
          "name": "C#2",
          "ticks": 27648,
          "time": 82.285632,
          "velocity": 0.7559055118110236
        },
        {
          "duration": 1.142856000000009,
          "durationTicks": 384,
          "midi": 38,
          "name": "D2",
          "ticks": 28032,
          "time": 83.428488,
          "velocity": 0.7559055118110236
        },
        {
          "duration": 1.1428559999999948,
          "durationTicks": 384,
          "midi": 38,
          "name": "D2",
          "ticks": 28416,
          "time": 84.57134400000001,
          "velocity": 0.7559055118110236
        },
        {
          "duration": 1.1428559999999948,
          "durationTicks": 384,
          "midi": 38,
          "name": "D2",
          "ticks": 28800,
          "time": 85.7142,
          "velocity": 0.7559055118110236
        },
        {
          "duration": 1.142856000000009,
          "durationTicks": 384,
          "midi": 38,
          "name": "D2",
          "ticks": 29184,
          "time": 86.857056,
          "velocity": 0.7559055118110236
        },
        {
          "duration": 1.7023792499999928,
          "durationTicks": 572,
          "midi": 43,
          "name": "G2",
          "ticks": 29568,
          "time": 87.99991200000001,
          "velocity": 0.7795275590551181
        },
        {
          "duration": 0.27380924999999934,
          "durationTicks": 92,
          "midi": 43,
          "name": "G2",
          "ticks": 30144,
          "time": 89.714196,
          "velocity": 0.7795275590551181
        },
        {
          "duration": 0.2738092499999851,
          "durationTicks": 92,
          "midi": 43,
          "name": "G2",
          "ticks": 30240,
          "time": 89.99991000000001,
          "velocity": 0.7795275590551181
        },
        {
          "duration": 1.6904744999999934,
          "durationTicks": 568,
          "midi": 43,
          "name": "G2",
          "ticks": 30336,
          "time": 90.28562400000001,
          "velocity": 0.7795275590551181
        },
        {
          "duration": 0.09523799999999483,
          "durationTicks": 32,
          "midi": 43,
          "name": "G2",
          "ticks": 30912,
          "time": 91.999908,
          "velocity": 0.7795275590551181
        },
        {
          "duration": 0.09523799999999483,
          "durationTicks": 32,
          "midi": 43,
          "name": "G2",
          "ticks": 30960,
          "time": 92.14276500000001,
          "velocity": 0.7874015748031497
        },
        {
          "duration": 0.2619045000000142,
          "durationTicks": 88,
          "midi": 43,
          "name": "G2",
          "ticks": 31008,
          "time": 92.285622,
          "velocity": 0.7795275590551181
        },
        {
          "duration": 0.2619045000000142,
          "durationTicks": 88,
          "midi": 43,
          "name": "G2",
          "ticks": 31104,
          "time": 92.571336,
          "velocity": 0.7795275590551181
        },
        {
          "duration": 0.2619045000000142,
          "durationTicks": 88,
          "midi": 44,
          "name": "G#2",
          "ticks": 31200,
          "time": 92.85705,
          "velocity": 0.7795275590551181
        },
        {
          "duration": 0.2619045,
          "durationTicks": 88,
          "midi": 45,
          "name": "A2",
          "ticks": 31296,
          "time": 93.14276400000001,
          "velocity": 0.7795275590551181
        },
        {
          "duration": 0.2619045,
          "durationTicks": 88,
          "midi": 46,
          "name": "A#2",
          "ticks": 31392,
          "time": 93.42847800000001,
          "velocity": 0.7795275590551181
        },
        {
          "duration": 0.11904750000000774,
          "durationTicks": 40,
          "midi": 47,
          "name": "B2",
          "ticks": 31488,
          "time": 93.71419200000001,
          "velocity": 0.7795275590551181
        },
        {
          "duration": 0.11904750000000774,
          "durationTicks": 40,
          "midi": 48,
          "name": "C3",
          "ticks": 31536,
          "time": 93.857049,
          "velocity": 0.7874015748031497
        },
        {
          "duration": 0.11904750000000774,
          "durationTicks": 40,
          "midi": 49,
          "name": "C#3",
          "ticks": 31584,
          "time": 93.99990600000001,
          "velocity": 0.7795275590551181
        },
        {
          "duration": 0.11904750000000774,
          "durationTicks": 40,
          "midi": 50,
          "name": "D3",
          "ticks": 31632,
          "time": 94.142763,
          "velocity": 0.7795275590551181
        },
        {
          "duration": 0.047619000000011624,
          "durationTicks": 16,
          "midi": 51,
          "name": "D#3",
          "ticks": 31680,
          "time": 94.28562000000001,
          "velocity": 0.7795275590551181
        },
        {
          "duration": 0.047619000000011624,
          "durationTicks": 16,
          "midi": 52,
          "name": "E3",
          "ticks": 31704,
          "time": 94.3570485,
          "velocity": 0.7795275590551181
        },
        {
          "duration": 0.047619000000011624,
          "durationTicks": 16,
          "midi": 53,
          "name": "F3",
          "ticks": 31728,
          "time": 94.428477,
          "velocity": 0.7795275590551181
        },
        {
          "duration": 0.04761899999999741,
          "durationTicks": 16,
          "midi": 54,
          "name": "F#3",
          "ticks": 31752,
          "time": 94.49990550000001,
          "velocity": 0.7795275590551181
        },
        {
          "duration": 0.047619000000011624,
          "durationTicks": 16,
          "midi": 55,
          "name": "G3",
          "ticks": 31776,
          "time": 94.57133400000001,
          "velocity": 0.7795275590551181
        },
        {
          "duration": 0.047619000000011624,
          "durationTicks": 16,
          "midi": 56,
          "name": "G#3",
          "ticks": 31800,
          "time": 94.6427625,
          "velocity": 0.7874015748031497
        },
        {
          "duration": 0.04761899999999741,
          "durationTicks": 16,
          "midi": 57,
          "name": "A3",
          "ticks": 31824,
          "time": 94.71419100000001,
          "velocity": 0.7795275590551181
        },
        {
          "duration": 0.04761899999999741,
          "durationTicks": 16,
          "midi": 58,
          "name": "A#3",
          "ticks": 31848,
          "time": 94.78561950000001,
          "velocity": 0.7795275590551181
        },
        {
          "duration": 0.2619045,
          "durationTicks": 88,
          "midi": 43,
          "name": "G2",
          "ticks": 32640,
          "time": 97.14276000000001,
          "velocity": 0.7401574803149606
        },
        {
          "duration": 0.2619045,
          "durationTicks": 88,
          "midi": 43,
          "name": "G2",
          "ticks": 32736,
          "time": 97.42847400000001,
          "velocity": 0.7401574803149606
        },
        {
          "duration": 0.2619045,
          "durationTicks": 88,
          "midi": 43,
          "name": "G2",
          "ticks": 32832,
          "time": 97.71418800000001,
          "velocity": 0.7401574803149606
        },
        {
          "duration": 0.2619045000000142,
          "durationTicks": 88,
          "midi": 43,
          "name": "G2",
          "ticks": 32928,
          "time": 97.999902,
          "velocity": 0.7401574803149606
        },
        {
          "duration": 0.2619045000000142,
          "durationTicks": 88,
          "midi": 43,
          "name": "G2",
          "ticks": 33024,
          "time": 98.285616,
          "velocity": 0.7401574803149606
        },
        {
          "duration": 0.2619045000000142,
          "durationTicks": 88,
          "midi": 43,
          "name": "G2",
          "ticks": 33120,
          "time": 98.57133,
          "velocity": 0.7401574803149606
        },
        {
          "duration": 0.2619045000000142,
          "durationTicks": 88,
          "midi": 43,
          "name": "G2",
          "ticks": 33216,
          "time": 98.857044,
          "velocity": 0.7401574803149606
        },
        {
          "duration": 0.11904749999999353,
          "durationTicks": 40,
          "midi": 43,
          "name": "G2",
          "ticks": 33312,
          "time": 99.14275800000001,
          "velocity": 0.7401574803149606
        },
        {
          "duration": 0.11904750000000774,
          "durationTicks": 40,
          "midi": 43,
          "name": "G2",
          "ticks": 33360,
          "time": 99.285615,
          "velocity": 0.7401574803149606
        },
        {
          "duration": 0.2619045,
          "durationTicks": 88,
          "midi": 43,
          "name": "G2",
          "ticks": 33408,
          "time": 99.42847200000001,
          "velocity": 0.7401574803149606
        },
        {
          "duration": 0.2619045,
          "durationTicks": 88,
          "midi": 43,
          "name": "G2",
          "ticks": 33504,
          "time": 99.71418600000001,
          "velocity": 0.7401574803149606
        },
        {
          "duration": 0.2619045,
          "durationTicks": 88,
          "midi": 43,
          "name": "G2",
          "ticks": 33600,
          "time": 99.99990000000001,
          "velocity": 0.7401574803149606
        },
        {
          "duration": 0.11904750000000774,
          "durationTicks": 40,
          "midi": 43,
          "name": "G2",
          "ticks": 33696,
          "time": 100.28561400000001,
          "velocity": 0.7401574803149606
        },
        {
          "duration": 0.047619000000011624,
          "durationTicks": 16,
          "midi": 43,
          "name": "G2",
          "ticks": 33744,
          "time": 100.428471,
          "velocity": 0.7401574803149606
        },
        {
          "duration": 0.04761899999999741,
          "durationTicks": 16,
          "midi": 43,
          "name": "G2",
          "ticks": 33768,
          "time": 100.49989950000001,
          "velocity": 0.7401574803149606
        },
        {
          "duration": 0.2619045,
          "durationTicks": 88,
          "midi": 43,
          "name": "G2",
          "ticks": 33792,
          "time": 100.57132800000001,
          "velocity": 0.7401574803149606
        },
        {
          "duration": 0.11904750000000774,
          "durationTicks": 40,
          "midi": 43,
          "name": "G2",
          "ticks": 33888,
          "time": 100.857042,
          "velocity": 0.7401574803149606
        },
        {
          "duration": 0.2619045,
          "durationTicks": 88,
          "midi": 43,
          "name": "G2",
          "ticks": 33936,
          "time": 100.99989900000001,
          "velocity": 0.7401574803149606
        },
        {
          "duration": 0.11904750000000774,
          "durationTicks": 40,
          "midi": 43,
          "name": "G2",
          "ticks": 34032,
          "time": 101.28561300000001,
          "velocity": 0.7401574803149606
        },
        {
          "duration": 0.11904750000000774,
          "durationTicks": 40,
          "midi": 43,
          "name": "G2",
          "ticks": 34080,
          "time": 101.42847,
          "velocity": 0.7401574803149606
        },
        {
          "duration": 0.11904750000000774,
          "durationTicks": 40,
          "midi": 43,
          "name": "G2",
          "ticks": 34128,
          "time": 101.57132700000001,
          "velocity": 0.7401574803149606
        },
        {
          "duration": 0.2619045000000142,
          "durationTicks": 88,
          "midi": 43,
          "name": "G2",
          "ticks": 34176,
          "time": 101.714184,
          "velocity": 0.7401574803149606
        },
        {
          "duration": 0.2619045000000142,
          "durationTicks": 88,
          "midi": 43,
          "name": "G2",
          "ticks": 34272,
          "time": 101.999898,
          "velocity": 0.7401574803149606
        },
        {
          "duration": 0.2619045,
          "durationTicks": 88,
          "midi": 43,
          "name": "G2",
          "ticks": 34368,
          "time": 102.28561200000001,
          "velocity": 0.7401574803149606
        },
        {
          "duration": 0.11904749999999353,
          "durationTicks": 40,
          "midi": 43,
          "name": "G2",
          "ticks": 34464,
          "time": 102.57132600000001,
          "velocity": 0.7401574803149606
        },
        {
          "duration": 0.11904750000000774,
          "durationTicks": 40,
          "midi": 43,
          "name": "G2",
          "ticks": 34512,
          "time": 102.714183,
          "velocity": 0.7401574803149606
        },
        {
          "duration": 0.2619045,
          "durationTicks": 88,
          "midi": 43,
          "name": "G2",
          "ticks": 34560,
          "time": 102.85704000000001,
          "velocity": 0.7401574803149606
        },
        {
          "duration": 0.11904750000000774,
          "durationTicks": 40,
          "midi": 43,
          "name": "G2",
          "ticks": 34656,
          "time": 103.14275400000001,
          "velocity": 0.7401574803149606
        },
        {
          "duration": 0.2619045000000142,
          "durationTicks": 88,
          "midi": 43,
          "name": "G2",
          "ticks": 34704,
          "time": 103.285611,
          "velocity": 0.7401574803149606
        },
        {
          "duration": 0.2619045000000142,
          "durationTicks": 88,
          "midi": 43,
          "name": "G2",
          "ticks": 34800,
          "time": 103.571325,
          "velocity": 0.7401574803149606
        },
        {
          "duration": 0.11904749999999353,
          "durationTicks": 40,
          "midi": 43,
          "name": "G2",
          "ticks": 34896,
          "time": 103.85703900000001,
          "velocity": 0.7401574803149606
        },
        {
          "duration": 0.11904750000000774,
          "durationTicks": 40,
          "midi": 43,
          "name": "G2",
          "ticks": 34944,
          "time": 103.999896,
          "velocity": 0.7401574803149606
        },
        {
          "duration": 0.11904750000000774,
          "durationTicks": 40,
          "midi": 43,
          "name": "G2",
          "ticks": 34992,
          "time": 104.14275300000001,
          "velocity": 0.7401574803149606
        },
        {
          "duration": 0.2619045000000142,
          "durationTicks": 88,
          "midi": 43,
          "name": "G2",
          "ticks": 35040,
          "time": 104.28561,
          "velocity": 0.7401574803149606
        },
        {
          "duration": 0.11904750000000774,
          "durationTicks": 40,
          "midi": 43,
          "name": "G2",
          "ticks": 35136,
          "time": 104.571324,
          "velocity": 0.7401574803149606
        },
        {
          "duration": 0.2619045,
          "durationTicks": 88,
          "midi": 43,
          "name": "G2",
          "ticks": 35184,
          "time": 104.71418100000001,
          "velocity": 0.7401574803149606
        },
        {
          "duration": 0.11904750000000774,
          "durationTicks": 40,
          "midi": 43,
          "name": "G2",
          "ticks": 35280,
          "time": 104.99989500000001,
          "velocity": 0.7401574803149606
        },
        {
          "duration": 0.11904750000000774,
          "durationTicks": 40,
          "midi": 43,
          "name": "G2",
          "ticks": 35328,
          "time": 105.142752,
          "velocity": 0.7401574803149606
        },
        {
          "duration": 0.11904750000000774,
          "durationTicks": 40,
          "midi": 43,
          "name": "G2",
          "ticks": 35376,
          "time": 105.28560900000001,
          "velocity": 0.7401574803149606
        },
        {
          "duration": 0.11904749999999353,
          "durationTicks": 40,
          "midi": 43,
          "name": "G2",
          "ticks": 35424,
          "time": 105.42846600000001,
          "velocity": 0.7401574803149606
        },
        {
          "duration": 0.11904750000000774,
          "durationTicks": 40,
          "midi": 43,
          "name": "G2",
          "ticks": 35472,
          "time": 105.571323,
          "velocity": 0.7401574803149606
        },
        {
          "duration": 0.04761899999999741,
          "durationTicks": 16,
          "midi": 43,
          "name": "G2",
          "ticks": 35520,
          "time": 105.71418000000001,
          "velocity": 0.7401574803149606
        },
        {
          "duration": 0.047619000000011624,
          "durationTicks": 16,
          "midi": 43,
          "name": "G2",
          "ticks": 35544,
          "time": 105.78560850000001,
          "velocity": 0.7401574803149606
        },
        {
          "duration": 0.047619000000011624,
          "durationTicks": 16,
          "midi": 43,
          "name": "G2",
          "ticks": 35568,
          "time": 105.857037,
          "velocity": 0.7401574803149606
        },
        {
          "duration": 0.04761899999999741,
          "durationTicks": 16,
          "midi": 43,
          "name": "G2",
          "ticks": 35592,
          "time": 105.92846550000002,
          "velocity": 0.7401574803149606
        },
        {
          "duration": 0.04761899999999741,
          "durationTicks": 16,
          "midi": 43,
          "name": "G2",
          "ticks": 35616,
          "time": 105.99989400000001,
          "velocity": 0.7401574803149606
        },
        {
          "duration": 0.047619000000011624,
          "durationTicks": 16,
          "midi": 43,
          "name": "G2",
          "ticks": 35640,
          "time": 106.07132250000001,
          "velocity": 0.7401574803149606
        },
        {
          "duration": 0.047619000000011624,
          "durationTicks": 16,
          "midi": 43,
          "name": "G2",
          "ticks": 35664,
          "time": 106.142751,
          "velocity": 0.7401574803149606
        },
        {
          "duration": 0.04761899999999741,
          "durationTicks": 16,
          "midi": 43,
          "name": "G2",
          "ticks": 35688,
          "time": 106.21417950000001,
          "velocity": 0.7401574803149606
        },
        {
          "duration": 0.11904750000000774,
          "durationTicks": 40,
          "midi": 43,
          "name": "G2",
          "ticks": 35760,
          "time": 106.428465,
          "velocity": 0.7401574803149606
        },
        {
          "duration": 0.2619045,
          "durationTicks": 88,
          "midi": 43,
          "name": "G2",
          "ticks": 35808,
          "time": 106.57132200000001,
          "velocity": 0.7401574803149606
        },
        {
          "duration": 0.2619045,
          "durationTicks": 88,
          "midi": 43,
          "name": "G2",
          "ticks": 35904,
          "time": 106.85703600000001,
          "velocity": 0.7401574803149606
        },
        {
          "duration": 0.2619045000000142,
          "durationTicks": 88,
          "midi": 43,
          "name": "G2",
          "ticks": 36000,
          "time": 107.14275,
          "velocity": 0.7401574803149606
        },
        {
          "duration": 0.2619045000000142,
          "durationTicks": 88,
          "midi": 43,
          "name": "G2",
          "ticks": 36096,
          "time": 107.428464,
          "velocity": 0.7401574803149606
        },
        {
          "duration": 0.2619045000000142,
          "durationTicks": 88,
          "midi": 43,
          "name": "G2",
          "ticks": 36192,
          "time": 107.714178,
          "velocity": 0.7401574803149606
        },
        {
          "duration": 0.2619045000000142,
          "durationTicks": 88,
          "midi": 43,
          "name": "G2",
          "ticks": 36288,
          "time": 107.999892,
          "velocity": 0.7401574803149606
        },
        {
          "duration": 0.11904749999999353,
          "durationTicks": 40,
          "midi": 43,
          "name": "G2",
          "ticks": 36384,
          "time": 108.28560600000002,
          "velocity": 0.7401574803149606
        },
        {
          "duration": 0.11904750000000774,
          "durationTicks": 40,
          "midi": 43,
          "name": "G2",
          "ticks": 36432,
          "time": 108.42846300000001,
          "velocity": 0.7401574803149606
        },
        {
          "duration": 0.2619045,
          "durationTicks": 88,
          "midi": 43,
          "name": "G2",
          "ticks": 36480,
          "time": 108.57132000000001,
          "velocity": 0.7401574803149606
        },
        {
          "duration": 0.2619045,
          "durationTicks": 88,
          "midi": 43,
          "name": "G2",
          "ticks": 36576,
          "time": 108.85703400000001,
          "velocity": 0.7401574803149606
        },
        {
          "duration": 0.2619045,
          "durationTicks": 88,
          "midi": 43,
          "name": "G2",
          "ticks": 36672,
          "time": 109.14274800000001,
          "velocity": 0.7401574803149606
        },
        {
          "duration": 0.04761899999999741,
          "durationTicks": 16,
          "midi": 43,
          "name": "G2",
          "ticks": 36768,
          "time": 109.42846200000001,
          "velocity": 0.7401574803149606
        },
        {
          "duration": 0.047619000000011624,
          "durationTicks": 16,
          "midi": 43,
          "name": "G2",
          "ticks": 36792,
          "time": 109.4998905,
          "velocity": 0.7401574803149606
        },
        {
          "duration": 0.047619000000011624,
          "durationTicks": 16,
          "midi": 43,
          "name": "G2",
          "ticks": 36816,
          "time": 109.571319,
          "velocity": 0.7401574803149606
        },
        {
          "duration": 0.04761899999999741,
          "durationTicks": 16,
          "midi": 43,
          "name": "G2",
          "ticks": 36840,
          "time": 109.64274750000001,
          "velocity": 0.7401574803149606
        },
        {
          "duration": 0.2619045,
          "durationTicks": 88,
          "midi": 43,
          "name": "G2",
          "ticks": 36864,
          "time": 109.71417600000001,
          "velocity": 0.7401574803149606
        },
        {
          "duration": 0.2619045,
          "durationTicks": 88,
          "midi": 43,
          "name": "G2",
          "ticks": 36960,
          "time": 109.99989000000001,
          "velocity": 0.7401574803149606
        },
        {
          "duration": 0.2619045000000142,
          "durationTicks": 88,
          "midi": 43,
          "name": "G2",
          "ticks": 37056,
          "time": 110.285604,
          "velocity": 0.7401574803149606
        },
        {
          "duration": 0.11904750000000774,
          "durationTicks": 40,
          "midi": 43,
          "name": "G2",
          "ticks": 37152,
          "time": 110.571318,
          "velocity": 0.7401574803149606
        },
        {
          "duration": 0.11904750000000774,
          "durationTicks": 40,
          "midi": 43,
          "name": "G2",
          "ticks": 37200,
          "time": 110.71417500000001,
          "velocity": 0.7401574803149606
        },
        {
          "duration": 0.2619045000000142,
          "durationTicks": 88,
          "midi": 43,
          "name": "G2",
          "ticks": 37248,
          "time": 110.857032,
          "velocity": 0.7401574803149606
        },
        {
          "duration": 0.2619045000000142,
          "durationTicks": 88,
          "midi": 43,
          "name": "G2",
          "ticks": 37344,
          "time": 111.142746,
          "velocity": 0.7401574803149606
        },
        {
          "duration": 0.2619045,
          "durationTicks": 88,
          "midi": 43,
          "name": "G2",
          "ticks": 37440,
          "time": 111.42846000000002,
          "velocity": 0.7401574803149606
        },
        {
          "duration": 0.22619025000000192,
          "durationTicks": 76,
          "midi": 43,
          "name": "G2",
          "ticks": 37536,
          "time": 111.71417400000001,
          "velocity": 0.7401574803149606
        },
        {
          "duration": 0.2619045,
          "durationTicks": 88,
          "midi": 43,
          "name": "G2",
          "ticks": 37632,
          "time": 111.99988800000001,
          "velocity": 0.7401574803149606
        },
        {
          "duration": 0.2619045,
          "durationTicks": 88,
          "midi": 43,
          "name": "G2",
          "ticks": 37728,
          "time": 112.28560200000001,
          "velocity": 0.7401574803149606
        },
        {
          "duration": 0.2619045,
          "durationTicks": 88,
          "midi": 43,
          "name": "G2",
          "ticks": 37824,
          "time": 112.57131600000001,
          "velocity": 0.7401574803149606
        },
        {
          "duration": 0.11904750000000774,
          "durationTicks": 40,
          "midi": 43,
          "name": "G2",
          "ticks": 37920,
          "time": 112.85703000000001,
          "velocity": 0.7401574803149606
        },
        {
          "duration": 0.11904749999999353,
          "durationTicks": 40,
          "midi": 43,
          "name": "G2",
          "ticks": 37968,
          "time": 112.99988700000002,
          "velocity": 0.7401574803149606
        },
        {
          "duration": 0.2619045000000142,
          "durationTicks": 88,
          "midi": 43,
          "name": "G2",
          "ticks": 38016,
          "time": 113.14274400000001,
          "velocity": 0.7401574803149606
        },
        {
          "duration": 0.2619045000000142,
          "durationTicks": 88,
          "midi": 43,
          "name": "G2",
          "ticks": 38112,
          "time": 113.428458,
          "velocity": 0.7401574803149606
        },
        {
          "duration": 0.2619045000000142,
          "durationTicks": 88,
          "midi": 43,
          "name": "G2",
          "ticks": 38208,
          "time": 113.714172,
          "velocity": 0.7401574803149606
        },
        {
          "duration": 0.11904750000000774,
          "durationTicks": 40,
          "midi": 43,
          "name": "G2",
          "ticks": 38304,
          "time": 113.999886,
          "velocity": 0.7401574803149606
        },
        {
          "duration": 0.11904750000000774,
          "durationTicks": 40,
          "midi": 43,
          "name": "G2",
          "ticks": 38352,
          "time": 114.14274300000001,
          "velocity": 0.7401574803149606
        },
        {
          "duration": 0.11904749999999353,
          "durationTicks": 40,
          "midi": 43,
          "name": "G2",
          "ticks": 38400,
          "time": 114.28560000000002,
          "velocity": 0.7401574803149606
        },
        {
          "duration": 0.11904750000000774,
          "durationTicks": 40,
          "midi": 43,
          "name": "G2",
          "ticks": 38472,
          "time": 114.4998855,
          "velocity": 0.7401574803149606
        },
        {
          "duration": 0.2619045000000142,
          "durationTicks": 88,
          "midi": 43,
          "name": "G2",
          "ticks": 38544,
          "time": 114.71417100000001,
          "velocity": 0.7401574803149606
        },
        {
          "duration": 0.11904750000000774,
          "durationTicks": 40,
          "midi": 43,
          "name": "G2",
          "ticks": 38640,
          "time": 114.999885,
          "velocity": 0.7401574803149606
        },
        {
          "duration": 0.11904750000000774,
          "durationTicks": 40,
          "midi": 43,
          "name": "G2",
          "ticks": 38688,
          "time": 115.14274200000001,
          "velocity": 0.7401574803149606
        },
        {
          "duration": 0.023809499999998707,
          "durationTicks": 8,
          "midi": 43,
          "name": "G2",
          "ticks": 38736,
          "time": 115.285599,
          "velocity": 0.7401574803149606
        },
        {
          "duration": 0.023809499999998707,
          "durationTicks": 8,
          "midi": 43,
          "name": "G2",
          "ticks": 38752,
          "time": 115.33321800000002,
          "velocity": 0.7401574803149606
        },
        {
          "duration": 0.023809500000012918,
          "durationTicks": 8,
          "midi": 43,
          "name": "G2",
          "ticks": 38768,
          "time": 115.380837,
          "velocity": 0.7401574803149606
        },
        {
          "duration": 0.11904750000000774,
          "durationTicks": 40,
          "midi": 43,
          "name": "G2",
          "ticks": 38832,
          "time": 115.571313,
          "velocity": 0.7401574803149606
        },
        {
          "duration": 0.2619045,
          "durationTicks": 88,
          "midi": 43,
          "name": "G2",
          "ticks": 38880,
          "time": 115.71417000000001,
          "velocity": 0.7401574803149606
        },
        {
          "duration": 0.2619045,
          "durationTicks": 88,
          "midi": 43,
          "name": "G2",
          "ticks": 38976,
          "time": 115.99988400000001,
          "velocity": 0.7401574803149606
        },
        {
          "duration": 0.2619045000000142,
          "durationTicks": 88,
          "midi": 43,
          "name": "G2",
          "ticks": 39072,
          "time": 116.28559800000001,
          "velocity": 0.7401574803149606
        },
        {
          "duration": 0.2619045000000142,
          "durationTicks": 88,
          "midi": 43,
          "name": "G2",
          "ticks": 39168,
          "time": 116.571312,
          "velocity": 0.7401574803149606
        },
        {
          "duration": 0.2619045000000142,
          "durationTicks": 88,
          "midi": 43,
          "name": "G2",
          "ticks": 39264,
          "time": 116.857026,
          "velocity": 0.7401574803149606
        },
        {
          "duration": 0.2619045000000142,
          "durationTicks": 88,
          "midi": 43,
          "name": "G2",
          "ticks": 39360,
          "time": 117.14274,
          "velocity": 0.7401574803149606
        },
        {
          "duration": 0.11904749999999353,
          "durationTicks": 40,
          "midi": 43,
          "name": "G2",
          "ticks": 39456,
          "time": 117.42845400000002,
          "velocity": 0.7401574803149606
        },
        {
          "duration": 0.11904750000000774,
          "durationTicks": 40,
          "midi": 43,
          "name": "G2",
          "ticks": 39504,
          "time": 117.57131100000001,
          "velocity": 0.7401574803149606
        },
        {
          "duration": 0.2619045,
          "durationTicks": 88,
          "midi": 43,
          "name": "G2",
          "ticks": 39552,
          "time": 117.71416800000002,
          "velocity": 0.7401574803149606
        },
        {
          "duration": 0.2619045,
          "durationTicks": 88,
          "midi": 43,
          "name": "G2",
          "ticks": 39648,
          "time": 117.99988200000001,
          "velocity": 0.7401574803149606
        },
        {
          "duration": 0.11904750000000774,
          "durationTicks": 40,
          "midi": 43,
          "name": "G2",
          "ticks": 39744,
          "time": 118.28559600000001,
          "velocity": 0.7401574803149606
        },
        {
          "duration": 0.11904750000000774,
          "durationTicks": 40,
          "midi": 43,
          "name": "G2",
          "ticks": 39792,
          "time": 118.428453,
          "velocity": 0.7401574803149606
        },
        {
          "duration": 0.11904750000000774,
          "durationTicks": 40,
          "midi": 43,
          "name": "G2",
          "ticks": 39840,
          "time": 118.57131000000001,
          "velocity": 0.7401574803149606
        },
        {
          "duration": 0.11904750000000774,
          "durationTicks": 40,
          "midi": 43,
          "name": "G2",
          "ticks": 39888,
          "time": 118.714167,
          "velocity": 0.7401574803149606
        },
        {
          "duration": 0.2619045,
          "durationTicks": 88,
          "midi": 43,
          "name": "G2",
          "ticks": 39936,
          "time": 118.85702400000001,
          "velocity": 0.7401574803149606
        },
        {
          "duration": 0.2619045,
          "durationTicks": 88,
          "midi": 43,
          "name": "G2",
          "ticks": 40032,
          "time": 119.14273800000001,
          "velocity": 0.7401574803149606
        },
        {
          "duration": 0.047619000000011624,
          "durationTicks": 16,
          "midi": 43,
          "name": "G2",
          "ticks": 40128,
          "time": 119.42845200000001,
          "velocity": 0.7401574803149606
        },
        {
          "duration": 0.047619000000011624,
          "durationTicks": 16,
          "midi": 43,
          "name": "G2",
          "ticks": 40152,
          "time": 119.4998805,
          "velocity": 0.7401574803149606
        },
        {
          "duration": 0.023809499999984496,
          "durationTicks": 8,
          "midi": 43,
          "name": "G2",
          "ticks": 40176,
          "time": 119.57130900000001,
          "velocity": 0.7401574803149606
        },
        {
          "duration": 0.023809499999998707,
          "durationTicks": 8,
          "midi": 43,
          "name": "G2",
          "ticks": 40192,
          "time": 119.61892800000001,
          "velocity": 0.7401574803149606
        },
        {
          "duration": 0.023809500000012918,
          "durationTicks": 8,
          "midi": 43,
          "name": "G2",
          "ticks": 40208,
          "time": 119.66654700000001,
          "velocity": 0.7401574803149606
        },
        {
          "duration": 0.047619000000011624,
          "durationTicks": 16,
          "midi": 43,
          "name": "G2",
          "ticks": 40224,
          "time": 119.714166,
          "velocity": 0.7401574803149606
        },
        {
          "duration": 0.04761899999999741,
          "durationTicks": 16,
          "midi": 43,
          "name": "G2",
          "ticks": 40248,
          "time": 119.78559450000002,
          "velocity": 0.7401574803149606
        },
        {
          "duration": 0.023809499999998707,
          "durationTicks": 8,
          "midi": 43,
          "name": "G2",
          "ticks": 40272,
          "time": 119.85702300000001,
          "velocity": 0.7401574803149606
        },
        {
          "duration": 0.023809499999998707,
          "durationTicks": 8,
          "midi": 43,
          "name": "G2",
          "ticks": 40288,
          "time": 119.90464200000001,
          "velocity": 0.7401574803149606
        },
        {
          "duration": 0.023809500000012918,
          "durationTicks": 8,
          "midi": 43,
          "name": "G2",
          "ticks": 40304,
          "time": 119.95226100000001,
          "velocity": 0.7401574803149606
        },
        {
          "duration": 0.11904750000000774,
          "durationTicks": 40,
          "midi": 43,
          "name": "G2",
          "ticks": 40320,
          "time": 119.99988,
          "velocity": 0.7401574803149606
        },
        {
          "duration": 0.11904750000000774,
          "durationTicks": 40,
          "midi": 43,
          "name": "G2",
          "ticks": 40368,
          "time": 120.14273700000001,
          "velocity": 0.7401574803149606
        },
        {
          "duration": 0.2619045000000142,
          "durationTicks": 88,
          "midi": 43,
          "name": "G2",
          "ticks": 40416,
          "time": 120.285594,
          "velocity": 0.7401574803149606
        },
        {
          "duration": 0.2619045,
          "durationTicks": 88,
          "midi": 43,
          "name": "G2",
          "ticks": 40512,
          "time": 120.57130800000002,
          "velocity": 0.7401574803149606
        },
        {
          "duration": 0.10714274999999418,
          "durationTicks": 36,
          "midi": 43,
          "name": "G2",
          "ticks": 40608,
          "time": 120.85702200000001,
          "velocity": 0.7401574803149606
        },
        {
          "duration": 0.10714275000000839,
          "durationTicks": 36,
          "midi": 43,
          "name": "G2",
          "ticks": 40656,
          "time": 120.999879,
          "velocity": 0.7401574803149606
        },
        {
          "duration": 0.2619045,
          "durationTicks": 88,
          "midi": 43,
          "name": "G2",
          "ticks": 40704,
          "time": 121.14273600000001,
          "velocity": 0.7401574803149606
        },
        {
          "duration": 0.2619045,
          "durationTicks": 88,
          "midi": 43,
          "name": "G2",
          "ticks": 40800,
          "time": 121.42845000000001,
          "velocity": 0.7401574803149606
        },
        {
          "duration": 0.2619045,
          "durationTicks": 88,
          "midi": 43,
          "name": "G2",
          "ticks": 40896,
          "time": 121.71416400000001,
          "velocity": 0.7401574803149606
        },
        {
          "duration": 0.11904750000000774,
          "durationTicks": 40,
          "midi": 43,
          "name": "G2",
          "ticks": 40992,
          "time": 121.99987800000001,
          "velocity": 0.7401574803149606
        },
        {
          "duration": 0.11904749999999353,
          "durationTicks": 40,
          "midi": 43,
          "name": "G2",
          "ticks": 41040,
          "time": 122.14273500000002,
          "velocity": 0.7401574803149606
        },
        {
          "duration": 0.11904750000000774,
          "durationTicks": 40,
          "midi": 43,
          "name": "G2",
          "ticks": 41088,
          "time": 122.28559200000001,
          "velocity": 0.7401574803149606
        },
        {
          "duration": 0.11904750000000774,
          "durationTicks": 40,
          "midi": 43,
          "name": "G2",
          "ticks": 41136,
          "time": 122.42844900000001,
          "velocity": 0.7401574803149606
        },
        {
          "duration": 0.11904750000000774,
          "durationTicks": 40,
          "midi": 43,
          "name": "G2",
          "ticks": 41184,
          "time": 122.571306,
          "velocity": 0.7401574803149606
        },
        {
          "duration": 0.11904750000000774,
          "durationTicks": 40,
          "midi": 43,
          "name": "G2",
          "ticks": 41232,
          "time": 122.71416300000001,
          "velocity": 0.7401574803149606
        },
        {
          "duration": 0.11904750000000774,
          "durationTicks": 40,
          "midi": 43,
          "name": "G2",
          "ticks": 41280,
          "time": 122.85702,
          "velocity": 0.7401574803149606
        },
        {
          "duration": 0.11904750000000774,
          "durationTicks": 40,
          "midi": 43,
          "name": "G2",
          "ticks": 41328,
          "time": 122.99987700000001,
          "velocity": 0.7401574803149606
        },
        {
          "duration": 0.047619000000011624,
          "durationTicks": 16,
          "midi": 43,
          "name": "G2",
          "ticks": 41376,
          "time": 123.142734,
          "velocity": 0.7401574803149606
        },
        {
          "duration": 0.04761899999999741,
          "durationTicks": 16,
          "midi": 43,
          "name": "G2",
          "ticks": 41400,
          "time": 123.21416250000001,
          "velocity": 0.7401574803149606
        },
        {
          "duration": 0.047619000000011624,
          "durationTicks": 16,
          "midi": 43,
          "name": "G2",
          "ticks": 41424,
          "time": 123.28559100000001,
          "velocity": 0.7401574803149606
        },
        {
          "duration": 0.047619000000011624,
          "durationTicks": 16,
          "midi": 43,
          "name": "G2",
          "ticks": 41448,
          "time": 123.3570195,
          "velocity": 0.7401574803149606
        },
        {
          "duration": 0.2619045000000142,
          "durationTicks": 88,
          "midi": 43,
          "name": "G2",
          "ticks": 41472,
          "time": 123.428448,
          "velocity": 0.7401574803149606
        },
        {
          "duration": 0.2619045,
          "durationTicks": 88,
          "midi": 43,
          "name": "G2",
          "ticks": 41568,
          "time": 123.71416200000002,
          "velocity": 0.7401574803149606
        },
        {
          "duration": 0.11904750000000774,
          "durationTicks": 40,
          "midi": 43,
          "name": "G2",
          "ticks": 41664,
          "time": 123.99987600000001,
          "velocity": 0.7401574803149606
        },
        {
          "duration": 0.2619045000000142,
          "durationTicks": 88,
          "midi": 43,
          "name": "G2",
          "ticks": 41712,
          "time": 124.142733,
          "velocity": 0.7401574803149606
        },
        {
          "duration": 0.023809499999998707,
          "durationTicks": 8,
          "midi": 43,
          "name": "G2",
          "ticks": 41808,
          "time": 124.428447,
          "velocity": 0.7401574803149606
        },
        {
          "duration": 0.023809499999998707,
          "durationTicks": 8,
          "midi": 43,
          "name": "G2",
          "ticks": 41824,
          "time": 124.47606600000002,
          "velocity": 0.7401574803149606
        },
        {
          "duration": 0.023809500000012918,
          "durationTicks": 8,
          "midi": 43,
          "name": "G2",
          "ticks": 41840,
          "time": 124.523685,
          "velocity": 0.7401574803149606
        },
        {
          "duration": 0.2619045,
          "durationTicks": 88,
          "midi": 43,
          "name": "G2",
          "ticks": 41856,
          "time": 124.57130400000001,
          "velocity": 0.7401574803149606
        },
        {
          "duration": 0.2619045,
          "durationTicks": 88,
          "midi": 43,
          "name": "G2",
          "ticks": 41952,
          "time": 124.85701800000001,
          "velocity": 0.7401574803149606
        },
        {
          "duration": 0.2619045,
          "durationTicks": 88,
          "midi": 43,
          "name": "G2",
          "ticks": 42048,
          "time": 125.14273200000001,
          "velocity": 0.7401574803149606
        },
        {
          "duration": 0.11904750000000774,
          "durationTicks": 40,
          "midi": 43,
          "name": "G2",
          "ticks": 42144,
          "time": 125.42844600000001,
          "velocity": 0.7401574803149606
        },
        {
          "duration": 0.11904750000000774,
          "durationTicks": 40,
          "midi": 43,
          "name": "G2",
          "ticks": 42192,
          "time": 125.57130300000001,
          "velocity": 0.7401574803149606
        },
        {
          "duration": 0.2619045000000142,
          "durationTicks": 88,
          "midi": 43,
          "name": "G2",
          "ticks": 42240,
          "time": 125.71416,
          "velocity": 0.7401574803149606
        },
        {
          "duration": 0.2619045000000142,
          "durationTicks": 88,
          "midi": 43,
          "name": "G2",
          "ticks": 42336,
          "time": 125.999874,
          "velocity": 0.7401574803149606
        },
        {
          "duration": 0.11904750000000774,
          "durationTicks": 40,
          "midi": 43,
          "name": "G2",
          "ticks": 42432,
          "time": 126.285588,
          "velocity": 0.7401574803149606
        },
        {
          "duration": 0.047619000000011624,
          "durationTicks": 16,
          "midi": 43,
          "name": "G2",
          "ticks": 42480,
          "time": 126.42844500000001,
          "velocity": 0.7401574803149606
        },
        {
          "duration": 0.047619000000011624,
          "durationTicks": 16,
          "midi": 43,
          "name": "G2",
          "ticks": 42504,
          "time": 126.4998735,
          "velocity": 0.7401574803149606
        },
        {
          "duration": 0.11904749999999353,
          "durationTicks": 40,
          "midi": 43,
          "name": "G2",
          "ticks": 42528,
          "time": 126.57130200000002,
          "velocity": 0.7401574803149606
        },
        {
          "duration": 0.11904750000000774,
          "durationTicks": 40,
          "midi": 43,
          "name": "G2",
          "ticks": 42576,
          "time": 126.71415900000001,
          "velocity": 0.7401574803149606
        },
        {
          "duration": 0.2619045,
          "durationTicks": 88,
          "midi": 43,
          "name": "G2",
          "ticks": 42624,
          "time": 126.85701600000002,
          "velocity": 0.7401574803149606
        },
        {
          "duration": 0.2619045,
          "durationTicks": 88,
          "midi": 43,
          "name": "G2",
          "ticks": 42720,
          "time": 127.14273000000001,
          "velocity": 0.7401574803149606
        },
        {
          "duration": 0.11904750000000774,
          "durationTicks": 40,
          "midi": 43,
          "name": "G2",
          "ticks": 42816,
          "time": 127.42844400000001,
          "velocity": 0.7401574803149606
        },
        {
          "duration": 0.2619045000000142,
          "durationTicks": 88,
          "midi": 43,
          "name": "G2",
          "ticks": 42864,
          "time": 127.571301,
          "velocity": 0.7401574803149606
        },
        {
          "duration": 0.023809499999998707,
          "durationTicks": 8,
          "midi": 43,
          "name": "G2",
          "ticks": 42960,
          "time": 127.857015,
          "velocity": 0.7401574803149606
        },
        {
          "duration": 0.023809499999998707,
          "durationTicks": 8,
          "midi": 43,
          "name": "G2",
          "ticks": 42976,
          "time": 127.90463400000002,
          "velocity": 0.7401574803149606
        },
        {
          "duration": 0.023809500000012918,
          "durationTicks": 8,
          "midi": 43,
          "name": "G2",
          "ticks": 42992,
          "time": 127.952253,
          "velocity": 0.7401574803149606
        },
        {
          "duration": 0.11904749999999353,
          "durationTicks": 40,
          "midi": 43,
          "name": "G2",
          "ticks": 43008,
          "time": 127.99987200000001,
          "velocity": 0.7401574803149606
        },
        {
          "duration": 0.11904750000002196,
          "durationTicks": 40,
          "midi": 43,
          "name": "G2",
          "ticks": 43056,
          "time": 128.142729,
          "velocity": 0.7401574803149606
        },
        {
          "duration": 0.2619044999999858,
          "durationTicks": 88,
          "midi": 43,
          "name": "G2",
          "ticks": 43104,
          "time": 128.28558600000002,
          "velocity": 0.7401574803149606
        },
        {
          "duration": 0.2619045000000142,
          "durationTicks": 88,
          "midi": 43,
          "name": "G2",
          "ticks": 43200,
          "time": 128.5713,
          "velocity": 0.7401574803149606
        },
        {
          "duration": 0.11904749999999353,
          "durationTicks": 40,
          "midi": 43,
          "name": "G2",
          "ticks": 43296,
          "time": 128.85701400000002,
          "velocity": 0.7401574803149606
        },
        {
          "duration": 0.023809499999998707,
          "durationTicks": 8,
          "midi": 43,
          "name": "G2",
          "ticks": 43344,
          "time": 128.999871,
          "velocity": 0.7401574803149606
        },
        {
          "duration": 0.023809499999998707,
          "durationTicks": 8,
          "midi": 43,
          "name": "G2",
          "ticks": 43360,
          "time": 129.04749,
          "velocity": 0.7401574803149606
        },
        {
          "duration": 0.023809499999998707,
          "durationTicks": 8,
          "midi": 43,
          "name": "G2",
          "ticks": 43376,
          "time": 129.095109,
          "velocity": 0.7401574803149606
        },
        {
          "duration": 0.2619045000000142,
          "durationTicks": 88,
          "midi": 43,
          "name": "G2",
          "ticks": 43392,
          "time": 129.142728,
          "velocity": 0.7401574803149606
        },
        {
          "duration": 0.2619044999999858,
          "durationTicks": 88,
          "midi": 43,
          "name": "G2",
          "ticks": 43488,
          "time": 129.42844200000002,
          "velocity": 0.7401574803149606
        },
        {
          "duration": 0.2619045000000142,
          "durationTicks": 88,
          "midi": 43,
          "name": "G2",
          "ticks": 43584,
          "time": 129.714156,
          "velocity": 0.7401574803149606
        },
        {
          "duration": 0.11904749999999353,
          "durationTicks": 40,
          "midi": 43,
          "name": "G2",
          "ticks": 43680,
          "time": 129.99987000000002,
          "velocity": 0.7401574803149606
        },
        {
          "duration": 0.11904750000002196,
          "durationTicks": 40,
          "midi": 43,
          "name": "G2",
          "ticks": 43728,
          "time": 130.142727,
          "velocity": 0.7401574803149606
        },
        {
          "duration": 0.2619045000000142,
          "durationTicks": 88,
          "midi": 43,
          "name": "G2",
          "ticks": 43776,
          "time": 130.285584,
          "velocity": 0.7401574803149606
        },
        {
          "duration": 0.2619045000000142,
          "durationTicks": 88,
          "midi": 43,
          "name": "G2",
          "ticks": 43872,
          "time": 130.571298,
          "velocity": 0.7401574803149606
        },
        {
          "duration": 0.11904750000002196,
          "durationTicks": 40,
          "midi": 43,
          "name": "G2",
          "ticks": 43968,
          "time": 130.857012,
          "velocity": 0.7401574803149606
        },
        {
          "duration": 0.11904749999999353,
          "durationTicks": 40,
          "midi": 43,
          "name": "G2",
          "ticks": 44016,
          "time": 130.99986900000002,
          "velocity": 0.7401574803149606
        },
        {
          "duration": 0.11904749999999353,
          "durationTicks": 40,
          "midi": 43,
          "name": "G2",
          "ticks": 44064,
          "time": 131.142726,
          "velocity": 0.7401574803149606
        },
        {
          "duration": 0.11904750000002196,
          "durationTicks": 40,
          "midi": 43,
          "name": "G2",
          "ticks": 44112,
          "time": 131.285583,
          "velocity": 0.7401574803149606
        },
        {
          "duration": 0.11904749999999353,
          "durationTicks": 40,
          "midi": 43,
          "name": "G2",
          "ticks": 44160,
          "time": 131.42844000000002,
          "velocity": 0.7401574803149606
        },
        {
          "duration": 0.023809499999998707,
          "durationTicks": 8,
          "midi": 43,
          "name": "G2",
          "ticks": 44208,
          "time": 131.57129700000002,
          "velocity": 0.7401574803149606
        },
        {
          "duration": 0.023809499999998707,
          "durationTicks": 8,
          "midi": 43,
          "name": "G2",
          "ticks": 44224,
          "time": 131.618916,
          "velocity": 0.7401574803149606
        },
        {
          "duration": 0.023809499999998707,
          "durationTicks": 8,
          "midi": 43,
          "name": "G2",
          "ticks": 44240,
          "time": 131.666535,
          "velocity": 0.7401574803149606
        },
        {
          "duration": 0.04761899999999741,
          "durationTicks": 16,
          "midi": 43,
          "name": "G2",
          "ticks": 44256,
          "time": 131.714154,
          "velocity": 0.7401574803149606
        },
        {
          "duration": 0.047619000000025835,
          "durationTicks": 16,
          "midi": 43,
          "name": "G2",
          "ticks": 44280,
          "time": 131.7855825,
          "velocity": 0.7401574803149606
        },
        {
          "duration": 0.11904750000002196,
          "durationTicks": 40,
          "midi": 43,
          "name": "G2",
          "ticks": 44304,
          "time": 131.857011,
          "velocity": 0.7401574803149606
        },
        {
          "duration": 0.023809499999998707,
          "durationTicks": 8,
          "midi": 43,
          "name": "G2",
          "ticks": 44352,
          "time": 131.99986800000002,
          "velocity": 0.7401574803149606
        },
        {
          "duration": 0.023809499999998707,
          "durationTicks": 8,
          "midi": 43,
          "name": "G2",
          "ticks": 44368,
          "time": 132.04748700000002,
          "velocity": 0.7401574803149606
        },
        {
          "duration": 0.023809499999998707,
          "durationTicks": 8,
          "midi": 43,
          "name": "G2",
          "ticks": 44384,
          "time": 132.09510600000002,
          "velocity": 0.7401574803149606
        },
        {
          "duration": 0.11904749999999353,
          "durationTicks": 40,
          "midi": 43,
          "name": "G2",
          "ticks": 44400,
          "time": 132.142725,
          "velocity": 0.7401574803149606
        },
        {
          "duration": 0.023809499999998707,
          "durationTicks": 8,
          "midi": 43,
          "name": "G2",
          "ticks": 44448,
          "time": 132.285582,
          "velocity": 0.7401574803149606
        },
        {
          "duration": 0.023809499999998707,
          "durationTicks": 8,
          "midi": 43,
          "name": "G2",
          "ticks": 44464,
          "time": 132.333201,
          "velocity": 0.7401574803149606
        },
        {
          "duration": 0.02380950000002713,
          "durationTicks": 8,
          "midi": 43,
          "name": "G2",
          "ticks": 44480,
          "time": 132.38082,
          "velocity": 0.7401574803149606
        },
        {
          "duration": 0.023809499999998707,
          "durationTicks": 8,
          "midi": 43,
          "name": "G2",
          "ticks": 44496,
          "time": 132.428439,
          "velocity": 0.7401574803149606
        },
        {
          "duration": 0.023809499999998707,
          "durationTicks": 8,
          "midi": 43,
          "name": "G2",
          "ticks": 44512,
          "time": 132.47605800000002,
          "velocity": 0.7401574803149606
        },
        {
          "duration": 0.02380950000002713,
          "durationTicks": 8,
          "midi": 43,
          "name": "G2",
          "ticks": 44528,
          "time": 132.523677,
          "velocity": 0.7401574803149606
        },
        {
          "duration": 0.13095224999997868,
          "durationTicks": 44,
          "midi": 43,
          "name": "G2",
          "ticks": 44544,
          "time": 132.57129600000002,
          "velocity": 0.7401574803149606
        },
        {
          "duration": 0.13095224999997868,
          "durationTicks": 44,
          "midi": 43,
          "name": "G2",
          "ticks": 44688,
          "time": 132.99986700000002,
          "velocity": 0.7401574803149606
        },
        {
          "duration": 0.05952375000001098,
          "durationTicks": 20,
          "midi": 43,
          "name": "G2",
          "ticks": 44832,
          "time": 133.428438,
          "velocity": 0.7401574803149606
        },
        {
          "duration": 0.059523749999982556,
          "durationTicks": 20,
          "midi": 43,
          "name": "G2",
          "ticks": 44856,
          "time": 133.49986650000002,
          "velocity": 0.7401574803149606
        },
        {
          "duration": 0.059523749999982556,
          "durationTicks": 20,
          "midi": 43,
          "name": "G2",
          "ticks": 44880,
          "time": 133.57129500000002,
          "velocity": 0.7401574803149606
        },
        {
          "duration": 0.059523749999982556,
          "durationTicks": 20,
          "midi": 43,
          "name": "G2",
          "ticks": 44904,
          "time": 133.64272350000002,
          "velocity": 0.7401574803149606
        },
        {
          "duration": 0.27380924999999934,
          "durationTicks": 92,
          "midi": 43,
          "name": "G2",
          "ticks": 44928,
          "time": 133.714152,
          "velocity": 0.7401574803149606
        },
        {
          "duration": 0.27380924999999934,
          "durationTicks": 92,
          "midi": 43,
          "name": "G2",
          "ticks": 45024,
          "time": 133.999866,
          "velocity": 0.7007874015748031
        },
        {
          "duration": 0.27380924999999934,
          "durationTicks": 92,
          "midi": 43,
          "name": "G2",
          "ticks": 45120,
          "time": 134.28558,
          "velocity": 0.6692913385826772
        },
        {
          "duration": 0.2738092499999709,
          "durationTicks": 92,
          "midi": 43,
          "name": "G2",
          "ticks": 45216,
          "time": 134.57129400000002,
          "velocity": 0.6299212598425197
        },
        {
          "duration": 0.27380924999999934,
          "durationTicks": 92,
          "midi": 43,
          "name": "G2",
          "ticks": 45312,
          "time": 134.857008,
          "velocity": 0.5905511811023622
        },
        {
          "duration": 0.27380924999999934,
          "durationTicks": 92,
          "midi": 43,
          "name": "G2",
          "ticks": 45408,
          "time": 135.14272200000002,
          "velocity": 0.5433070866141733
        },
        {
          "duration": 0.27380924999999934,
          "durationTicks": 92,
          "midi": 43,
          "name": "G2",
          "ticks": 45504,
          "time": 135.428436,
          "velocity": 0.5039370078740157
        },
        {
          "duration": 0.27380924999999934,
          "durationTicks": 92,
          "midi": 43,
          "name": "G2",
          "ticks": 45600,
          "time": 135.71415000000002,
          "velocity": 0.4566929133858268
        },
        {
          "duration": 0.27380924999999934,
          "durationTicks": 92,
          "midi": 43,
          "name": "G2",
          "ticks": 45696,
          "time": 135.999864,
          "velocity": 0.41732283464566927
        },
        {
          "duration": 0.27380924999999934,
          "durationTicks": 92,
          "midi": 43,
          "name": "G2",
          "ticks": 45792,
          "time": 136.28557800000002,
          "velocity": 0.3700787401574803
        },
        {
          "duration": 0.27380924999999934,
          "durationTicks": 92,
          "midi": 43,
          "name": "G2",
          "ticks": 45888,
          "time": 136.571292,
          "velocity": 0.33070866141732286
        },
        {
          "duration": 0.27380924999999934,
          "durationTicks": 92,
          "midi": 43,
          "name": "G2",
          "ticks": 45984,
          "time": 136.857006,
          "velocity": 0.28346456692913385
        },
        {
          "duration": 0.27380924999999934,
          "durationTicks": 92,
          "midi": 43,
          "name": "G2",
          "ticks": 46080,
          "time": 137.14272,
          "velocity": 0.2440944881889764
        },
        {
          "duration": 0.27380924999999934,
          "durationTicks": 92,
          "midi": 43,
          "name": "G2",
          "ticks": 46176,
          "time": 137.428434,
          "velocity": 0.1968503937007874
        },
        {
          "duration": 0.2738092499999709,
          "durationTicks": 92,
          "midi": 43,
          "name": "G2",
          "ticks": 46272,
          "time": 137.71414800000002,
          "velocity": 0.15748031496062992
        },
        {
          "duration": 0.27380924999999934,
          "durationTicks": 92,
          "midi": 43,
          "name": "G2",
          "ticks": 46368,
          "time": 137.999862,
          "velocity": 0.11811023622047244
        }
      ],
      "endOfTrackTicks": 47692
    },
    {
      "channel": 12,
      "controlChanges": {
        "6": [
          {
            "number": 6,
            "ticks": 0,
            "time": 0,
            "value": 0.09448818897637795
          },
          {
            "number": 6,
            "ticks": 0,
            "time": 0,
            "value": 0.09448818897637795
          },
          {
            "number": 6,
            "ticks": 0,
            "time": 0,
            "value": 0.09448818897637795
          },
          {
            "number": 6,
            "ticks": 47690,
            "time": 141.934381875,
            "value": 0.09448818897637795
          },
          {
            "number": 6,
            "ticks": 47692,
            "time": 141.94033425,
            "value": 0.09448818897637795
          }
        ],
        "7": [
          {
            "number": 7,
            "ticks": 0,
            "time": 0,
            "value": 0.7874015748031497
          },
          {
            "number": 7,
            "ticks": 0,
            "time": 0,
            "value": 0.7874015748031497
          },
          {
            "number": 7,
            "ticks": 0,
            "time": 0,
            "value": 0.7874015748031497
          },
          {
            "number": 7,
            "ticks": 0,
            "time": 0,
            "value": 0.7874015748031497
          },
          {
            "number": 7,
            "ticks": 47690,
            "time": 141.934381875,
            "value": 0.7874015748031497
          },
          {
            "number": 7,
            "ticks": 47692,
            "time": 141.94033425,
            "value": 0.7874015748031497
          }
        ],
        "10": [
          {
            "number": 10,
            "ticks": 0,
            "time": 0,
            "value": 0.5039370078740157
          },
          {
            "number": 10,
            "ticks": 0,
            "time": 0,
            "value": 0.5039370078740157
          },
          {
            "number": 10,
            "ticks": 0,
            "time": 0,
            "value": 0.5039370078740157
          },
          {
            "number": 10,
            "ticks": 0,
            "time": 0,
            "value": 0.5039370078740157
          },
          {
            "number": 10,
            "ticks": 47690,
            "time": 141.934381875,
            "value": 0.5039370078740157
          },
          {
            "number": 10,
            "ticks": 47692,
            "time": 141.94033425,
            "value": 0.5039370078740157
          }
        ],
        "100": [
          {
            "number": 100,
            "ticks": 0,
            "time": 0,
            "value": 0
          },
          {
            "number": 100,
            "ticks": 0,
            "time": 0,
            "value": 0
          },
          {
            "number": 100,
            "ticks": 0,
            "time": 0,
            "value": 0
          },
          {
            "number": 100,
            "ticks": 47690,
            "time": 141.934381875,
            "value": 0
          },
          {
            "number": 100,
            "ticks": 47692,
            "time": 141.94033425,
            "value": 0
          }
        ],
        "101": [
          {
            "number": 101,
            "ticks": 0,
            "time": 0,
            "value": 0
          },
          {
            "number": 101,
            "ticks": 0,
            "time": 0,
            "value": 0
          },
          {
            "number": 101,
            "ticks": 0,
            "time": 0,
            "value": 0
          },
          {
            "number": 101,
            "ticks": 47690,
            "time": 141.934381875,
            "value": 0
          },
          {
            "number": 101,
            "ticks": 47692,
            "time": 141.94033425,
            "value": 0
          }
        ]
      },
      "pitchBends": [
        {
          "ticks": 0,
          "time": 0,
          "value": 0
        },
        {
          "ticks": 0,
          "time": 0,
          "value": 0
        },
        {
          "ticks": 0,
          "time": 0,
          "value": 0
        },
        {
          "ticks": 0,
          "time": 0,
          "value": 0
        },
        {
          "ticks": 47690,
          "time": 141.934381875,
          "value": 0
        },
        {
          "ticks": 47692,
          "time": 141.94033425,
          "value": 0
        }
      ],
      "instrument": {
        "family": "piano",
        "number": 0,
        "name": "acoustic grand piano"
      },
      "name": "Bass #2",
      "notes": [
        {
          "duration": 0.026785687499994992,
          "durationTicks": 9,
          "midi": 67,
          "name": "G4",
          "ticks": 12672,
          "time": 37.714248000000005,
          "velocity": 0.7874015748031497
        },
        {
          "duration": 0.023809499999998707,
          "durationTicks": 8,
          "midi": 68,
          "name": "G#4",
          "ticks": 12680,
          "time": 37.738057500000004,
          "velocity": 0.7874015748031497
        },
        {
          "duration": 0.023809499999998707,
          "durationTicks": 8,
          "midi": 69,
          "name": "A4",
          "ticks": 12688,
          "time": 37.761867,
          "velocity": 0.7874015748031497
        },
        {
          "duration": 0.023809500000005812,
          "durationTicks": 8,
          "midi": 70,
          "name": "A#4",
          "ticks": 12696,
          "time": 37.7856765,
          "velocity": 0.7874015748031497
        },
        {
          "duration": 0.0238094999999916,
          "durationTicks": 8,
          "midi": 71,
          "name": "B4",
          "ticks": 12704,
          "time": 37.80948600000001,
          "velocity": 0.7874015748031497
        },
        {
          "duration": 0.023809500000005812,
          "durationTicks": 8,
          "midi": 72,
          "name": "C5",
          "ticks": 12712,
          "time": 37.8332955,
          "velocity": 0.7874015748031497
        },
        {
          "duration": 0.023809499999998707,
          "durationTicks": 8,
          "midi": 73,
          "name": "C#5",
          "ticks": 12720,
          "time": 37.857105000000004,
          "velocity": 0.7874015748031497
        },
        {
          "duration": 0.026785687500002098,
          "durationTicks": 9,
          "midi": 74,
          "name": "D5",
          "ticks": 12727,
          "time": 37.8779383125,
          "velocity": 0.7874015748031497
        },
        {
          "duration": 0.026785687499994992,
          "durationTicks": 9,
          "midi": 75,
          "name": "D#5",
          "ticks": 12735,
          "time": 37.901747812500005,
          "velocity": 0.7874015748031497
        },
        {
          "duration": 0.026785687500002098,
          "durationTicks": 9,
          "midi": 76,
          "name": "E5",
          "ticks": 12743,
          "time": 37.925557312500004,
          "velocity": 0.7874015748031497
        },
        {
          "duration": 0.026785687499994992,
          "durationTicks": 9,
          "midi": 77,
          "name": "F5",
          "ticks": 12751,
          "time": 37.9493668125,
          "velocity": 0.7874015748031497
        },
        {
          "duration": 0.026785687500002098,
          "durationTicks": 9,
          "midi": 78,
          "name": "F#5",
          "ticks": 12759,
          "time": 37.9731763125,
          "velocity": 0.7874015748031497
        },
        {
          "duration": 0.032738062500001774,
          "durationTicks": 11,
          "midi": 79,
          "name": "G5",
          "ticks": 12768,
          "time": 37.999962000000004,
          "velocity": 0.7874015748031497
        },
        {
          "duration": 0.032738062500001774,
          "durationTicks": 11,
          "midi": 80,
          "name": "G#5",
          "ticks": 12780,
          "time": 38.03567625,
          "velocity": 0.7874015748031497
        },
        {
          "duration": 0.03273806250000888,
          "durationTicks": 11,
          "midi": 81,
          "name": "A5",
          "ticks": 12792,
          "time": 38.0713905,
          "velocity": 0.7874015748031497
        },
        {
          "duration": 0.032738062500001774,
          "durationTicks": 11,
          "midi": 81,
          "name": "A5",
          "ticks": 12804,
          "time": 38.107104750000005,
          "velocity": 0.7874015748031497
        },
        {
          "duration": 0.032738062500001774,
          "durationTicks": 11,
          "midi": 82,
          "name": "A#5",
          "ticks": 12816,
          "time": 38.142819,
          "velocity": 0.7874015748031497
        },
        {
          "duration": 0.032738062500001774,
          "durationTicks": 11,
          "midi": 83,
          "name": "B5",
          "ticks": 12840,
          "time": 38.214247500000006,
          "velocity": 0.7874015748031497
        },
        {
          "duration": 0.032738062500001774,
          "durationTicks": 11,
          "midi": 83,
          "name": "B5",
          "ticks": 12864,
          "time": 38.285676,
          "velocity": 0.7874015748031497
        },
        {
          "duration": 0.03273806249999467,
          "durationTicks": 11,
          "midi": 84,
          "name": "C6",
          "ticks": 12866,
          "time": 38.29162837500001,
          "velocity": 0.7874015748031497
        },
        {
          "duration": 0.032738062500001774,
          "durationTicks": 11,
          "midi": 84,
          "name": "C6",
          "ticks": 12888,
          "time": 38.357104500000005,
          "velocity": 0.7874015748031497
        },
        {
          "duration": 0.032738062500001774,
          "durationTicks": 11,
          "midi": 84,
          "name": "C6",
          "ticks": 12912,
          "time": 38.428533,
          "velocity": 0.7874015748031497
        },
        {
          "duration": 0.032738062500001774,
          "durationTicks": 11,
          "midi": 84,
          "name": "C6",
          "ticks": 12936,
          "time": 38.499961500000005,
          "velocity": 0.7874015748031497
        },
        {
          "duration": 0.032738062500001774,
          "durationTicks": 11,
          "midi": 82,
          "name": "A#5",
          "ticks": 12960,
          "time": 38.57139,
          "velocity": 0.7874015748031497
        },
        {
          "duration": 0.03273806249999467,
          "durationTicks": 11,
          "midi": 83,
          "name": "B5",
          "ticks": 12962,
          "time": 38.57734237500001,
          "velocity": 0.7874015748031497
        },
        {
          "duration": 0.032738062500001774,
          "durationTicks": 11,
          "midi": 83,
          "name": "B5",
          "ticks": 12984,
          "time": 38.642818500000004,
          "velocity": 0.7874015748031497
        },
        {
          "duration": 0.03273806250000888,
          "durationTicks": 11,
          "midi": 83,
          "name": "B5",
          "ticks": 13008,
          "time": 38.714247,
          "velocity": 0.7874015748031497
        },
        {
          "duration": 0.032738062500001774,
          "durationTicks": 11,
          "midi": 83,
          "name": "B5",
          "ticks": 13032,
          "time": 38.7856755,
          "velocity": 0.7874015748031497
        },
        {
          "duration": 0.032738062500001774,
          "durationTicks": 11,
          "midi": 81,
          "name": "A5",
          "ticks": 13056,
          "time": 38.85710400000001,
          "velocity": 0.7874015748031497
        },
        {
          "duration": 0.026785687500002098,
          "durationTicks": 9,
          "midi": 82,
          "name": "A#5",
          "ticks": 13058,
          "time": 38.863056375000006,
          "velocity": 0.7874015748031497
        },
        {
          "duration": 0.026785687499994992,
          "durationTicks": 9,
          "midi": 82,
          "name": "A#5",
          "ticks": 13068,
          "time": 38.892818250000005,
          "velocity": 0.7874015748031497
        },
        {
          "duration": 0.032738062500001774,
          "durationTicks": 11,
          "midi": 82,
          "name": "A#5",
          "ticks": 13080,
          "time": 38.9285325,
          "velocity": 0.7874015748031497
        },
        {
          "duration": 0.026785687500002098,
          "durationTicks": 9,
          "midi": 82,
          "name": "A#5",
          "ticks": 13092,
          "time": 38.96424675,
          "velocity": 0.7874015748031497
        },
        {
          "duration": 0.032738062500001774,
          "durationTicks": 11,
          "midi": 82,
          "name": "A#5",
          "ticks": 13104,
          "time": 38.999961000000006,
          "velocity": 0.7874015748031497
        },
        {
          "duration": 0.026785687500002098,
          "durationTicks": 9,
          "midi": 82,
          "name": "A#5",
          "ticks": 13116,
          "time": 39.035675250000004,
          "velocity": 0.7874015748031497
        },
        {
          "duration": 0.032738062500001774,
          "durationTicks": 11,
          "midi": 82,
          "name": "A#5",
          "ticks": 13128,
          "time": 39.0713895,
          "velocity": 0.7874015748031497
        },
        {
          "duration": 0.026785687500002098,
          "durationTicks": 9,
          "midi": 82,
          "name": "A#5",
          "ticks": 13140,
          "time": 39.10710375,
          "velocity": 0.7874015748031497
        },
        {
          "duration": 0.032738062500001774,
          "durationTicks": 11,
          "midi": 80,
          "name": "G#5",
          "ticks": 13152,
          "time": 39.142818000000005,
          "velocity": 0.7874015748031497
        },
        {
          "duration": 0.03273806249999467,
          "durationTicks": 11,
          "midi": 81,
          "name": "A5",
          "ticks": 13154,
          "time": 39.148770375000005,
          "velocity": 0.7874015748031497
        },
        {
          "duration": 0.032738062500001774,
          "durationTicks": 11,
          "midi": 81,
          "name": "A5",
          "ticks": 13176,
          "time": 39.2142465,
          "velocity": 0.7874015748031497
        },
        {
          "duration": 0.032738062500001774,
          "durationTicks": 11,
          "midi": 81,
          "name": "A5",
          "ticks": 13200,
          "time": 39.285675000000005,
          "velocity": 0.7874015748031497
        },
        {
          "duration": 0.032738062500001774,
          "durationTicks": 11,
          "midi": 81,
          "name": "A5",
          "ticks": 13224,
          "time": 39.3571035,
          "velocity": 0.7874015748031497
        },
        {
          "duration": 0.032738062500001774,
          "durationTicks": 11,
          "midi": 79,
          "name": "G5",
          "ticks": 13248,
          "time": 39.428532000000004,
          "velocity": 0.7874015748031497
        },
        {
          "duration": 0.03273806249999467,
          "durationTicks": 11,
          "midi": 80,
          "name": "G#5",
          "ticks": 13250,
          "time": 39.434484375000004,
          "velocity": 0.7874015748031497
        },
        {
          "duration": 0.03273806250000888,
          "durationTicks": 11,
          "midi": 80,
          "name": "G#5",
          "ticks": 13272,
          "time": 39.4999605,
          "velocity": 0.7874015748031497
        },
        {
          "duration": 0.032738062500001774,
          "durationTicks": 11,
          "midi": 80,
          "name": "G#5",
          "ticks": 13296,
          "time": 39.571389,
          "velocity": 0.7874015748031497
        },
        {
          "duration": 0.032738062500001774,
          "durationTicks": 11,
          "midi": 80,
          "name": "G#5",
          "ticks": 13320,
          "time": 39.64281750000001,
          "velocity": 0.7874015748031497
        },
        {
          "duration": 0.032738062500001774,
          "durationTicks": 11,
          "midi": 78,
          "name": "F#5",
          "ticks": 13344,
          "time": 39.714246,
          "velocity": 0.7874015748031497
        },
        {
          "duration": 0.03273806249999467,
          "durationTicks": 11,
          "midi": 79,
          "name": "G5",
          "ticks": 13346,
          "time": 39.720198375,
          "velocity": 0.7874015748031497
        },
        {
          "duration": 0.032738062500001774,
          "durationTicks": 11,
          "midi": 79,
          "name": "G5",
          "ticks": 13368,
          "time": 39.785674500000006,
          "velocity": 0.7874015748031497
        },
        {
          "duration": 0.032738062500001774,
          "durationTicks": 11,
          "midi": 79,
          "name": "G5",
          "ticks": 13392,
          "time": 39.857103,
          "velocity": 0.7874015748031497
        },
        {
          "duration": 0.032738062500001774,
          "durationTicks": 11,
          "midi": 79,
          "name": "G5",
          "ticks": 13416,
          "time": 39.928531500000005,
          "velocity": 0.7874015748031497
        },
        {
          "duration": 0.026785687500002098,
          "durationTicks": 9,
          "midi": 58,
          "name": "A#3",
          "ticks": 13440,
          "time": 39.99996,
          "velocity": 0.7874015748031497
        },
        {
          "duration": 0.026785687499994992,
          "durationTicks": 9,
          "midi": 59,
          "name": "B3",
          "ticks": 13452,
          "time": 40.03567425000001,
          "velocity": 0.7874015748031497
        },
        {
          "duration": 0.026785687500002098,
          "durationTicks": 9,
          "midi": 60,
          "name": "C4",
          "ticks": 13464,
          "time": 40.071388500000005,
          "velocity": 0.7874015748031497
        },
        {
          "duration": 0.026785687500002098,
          "durationTicks": 9,
          "midi": 61,
          "name": "C#4",
          "ticks": 13476,
          "time": 40.10710275,
          "velocity": 0.7874015748031497
        },
        {
          "duration": 0.026785687500002098,
          "durationTicks": 9,
          "midi": 62,
          "name": "D4",
          "ticks": 13488,
          "time": 40.142817,
          "velocity": 0.7874015748031497
        },
        {
          "duration": 0.026785687499994992,
          "durationTicks": 9,
          "midi": 63,
          "name": "D#4",
          "ticks": 13500,
          "time": 40.178531250000006,
          "velocity": 0.7874015748031497
        },
        {
          "duration": 0.026785687500002098,
          "durationTicks": 9,
          "midi": 64,
          "name": "E4",
          "ticks": 13512,
          "time": 40.214245500000004,
          "velocity": 0.7874015748031497
        },
        {
          "duration": 0.026785687500002098,
          "durationTicks": 9,
          "midi": 65,
          "name": "F4",
          "ticks": 13536,
          "time": 40.285674,
          "velocity": 0.7874015748031497
        },
        {
          "duration": 0.026785687500002098,
          "durationTicks": 9,
          "midi": 66,
          "name": "F#4",
          "ticks": 13536,
          "time": 40.285674,
          "velocity": 0.7874015748031497
        },
        {
          "duration": 0.026785687499994992,
          "durationTicks": 9,
          "midi": 67,
          "name": "G4",
          "ticks": 13548,
          "time": 40.321388250000005,
          "velocity": 0.7874015748031497
        },
        {
          "duration": 0.026785687500002098,
          "durationTicks": 9,
          "midi": 68,
          "name": "G#4",
          "ticks": 13560,
          "time": 40.3571025,
          "velocity": 0.7874015748031497
        },
        {
          "duration": 0.026785687500002098,
          "durationTicks": 9,
          "midi": 69,
          "name": "A4",
          "ticks": 13572,
          "time": 40.39281675,
          "velocity": 0.7874015748031497
        },
        {
          "duration": 0.026785687499994992,
          "durationTicks": 9,
          "midi": 70,
          "name": "A#4",
          "ticks": 13584,
          "time": 40.42853100000001,
          "velocity": 0.7874015748031497
        },
        {
          "duration": 0.026785687500002098,
          "durationTicks": 9,
          "midi": 71,
          "name": "B4",
          "ticks": 13596,
          "time": 40.464245250000005,
          "velocity": 0.7874015748031497
        },
        {
          "duration": 0.026785687500002098,
          "durationTicks": 9,
          "midi": 72,
          "name": "C5",
          "ticks": 13608,
          "time": 40.4999595,
          "velocity": 0.7874015748031497
        },
        {
          "duration": 0.026785687499994992,
          "durationTicks": 9,
          "midi": 73,
          "name": "C#5",
          "ticks": 13632,
          "time": 40.571388000000006,
          "velocity": 0.7874015748031497
        },
        {
          "duration": 0.026785687499994992,
          "durationTicks": 9,
          "midi": 72,
          "name": "C5",
          "ticks": 13632,
          "time": 40.571388000000006,
          "velocity": 0.7874015748031497
        },
        {
          "duration": 0.026785687500002098,
          "durationTicks": 9,
          "midi": 74,
          "name": "D5",
          "ticks": 13644,
          "time": 40.607102250000004,
          "velocity": 0.7874015748031497
        },
        {
          "duration": 0.026785687500002098,
          "durationTicks": 9,
          "midi": 75,
          "name": "D#5",
          "ticks": 13656,
          "time": 40.6428165,
          "velocity": 0.7874015748031497
        },
        {
          "duration": 0.026785687500002098,
          "durationTicks": 9,
          "midi": 76,
          "name": "E5",
          "ticks": 13668,
          "time": 40.67853075,
          "velocity": 0.7874015748031497
        },
        {
          "duration": 0.026785687499994992,
          "durationTicks": 9,
          "midi": 77,
          "name": "F5",
          "ticks": 13680,
          "time": 40.714245000000005,
          "velocity": 0.7874015748031497
        },
        {
          "duration": 0.026785687500002098,
          "durationTicks": 9,
          "midi": 78,
          "name": "F#5",
          "ticks": 13692,
          "time": 40.74995925,
          "velocity": 0.7874015748031497
        },
        {
          "duration": 0.026785687500002098,
          "durationTicks": 9,
          "midi": 79,
          "name": "G5",
          "ticks": 13704,
          "time": 40.7856735,
          "velocity": 0.7874015748031497
        },
        {
          "duration": 0.026785687500002098,
          "durationTicks": 9,
          "midi": 77,
          "name": "F5",
          "ticks": 13728,
          "time": 40.857102000000005,
          "velocity": 0.7874015748031497
        },
        {
          "duration": 0.026785687500002098,
          "durationTicks": 9,
          "midi": 78,
          "name": "F#5",
          "ticks": 13740,
          "time": 40.89281625,
          "velocity": 0.7874015748031497
        },
        {
          "duration": 0.026785687500002098,
          "durationTicks": 9,
          "midi": 79,
          "name": "G5",
          "ticks": 13752,
          "time": 40.9285305,
          "velocity": 0.7874015748031497
        },
        {
          "duration": 0.026785687499994992,
          "durationTicks": 9,
          "midi": 80,
          "name": "G#5",
          "ticks": 13764,
          "time": 40.964244750000006,
          "velocity": 0.7874015748031497
        },
        {
          "duration": 0.026785687500002098,
          "durationTicks": 9,
          "midi": 81,
          "name": "A5",
          "ticks": 13776,
          "time": 40.999959000000004,
          "velocity": 0.7874015748031497
        },
        {
          "duration": 0.026785687500002098,
          "durationTicks": 9,
          "midi": 82,
          "name": "A#5",
          "ticks": 13788,
          "time": 41.03567325,
          "velocity": 0.7874015748031497
        },
        {
          "duration": 0.026785687500002098,
          "durationTicks": 9,
          "midi": 83,
          "name": "B5",
          "ticks": 13800,
          "time": 41.0713875,
          "velocity": 0.7874015748031497
        },
        {
          "duration": 0.06249993750000016,
          "durationTicks": 21,
          "midi": 79,
          "name": "G5",
          "ticks": 13824,
          "time": 41.142816,
          "velocity": 0.7874015748031497
        },
        {
          "duration": 0.06249993750000016,
          "durationTicks": 21,
          "midi": 80,
          "name": "G#5",
          "ticks": 13830,
          "time": 41.160673125,
          "velocity": 0.7874015748031497
        },
        {
          "duration": 0.026785687500002098,
          "durationTicks": 9,
          "midi": 67,
          "name": "G4",
          "ticks": 13872,
          "time": 41.285673,
          "velocity": 0.7874015748031497
        },
        {
          "duration": 0.026785687499994992,
          "durationTicks": 9,
          "midi": 67,
          "name": "G4",
          "ticks": 13896,
          "time": 41.357101500000006,
          "velocity": 0.7874015748031497
        },
        {
          "duration": 0.026785687500002098,
          "durationTicks": 9,
          "midi": 67,
          "name": "G4",
          "ticks": 13920,
          "time": 41.42853,
          "velocity": 0.7874015748031497
        },
        {
          "duration": 0.026785687499994992,
          "durationTicks": 9,
          "midi": 67,
          "name": "G4",
          "ticks": 13944,
          "time": 41.499958500000005,
          "velocity": 0.7874015748031497
        },
        {
          "duration": 0.026785687500002098,
          "durationTicks": 9,
          "midi": 67,
          "name": "G4",
          "ticks": 13968,
          "time": 41.571387,
          "velocity": 0.7874015748031497
        },
        {
          "duration": 0.026785687500002098,
          "durationTicks": 9,
          "midi": 67,
          "name": "G4",
          "ticks": 13992,
          "time": 41.642815500000005,
          "velocity": 0.7874015748031497
        },
        {
          "duration": 0.06249993750000016,
          "durationTicks": 21,
          "midi": 79,
          "name": "G5",
          "ticks": 14016,
          "time": 41.714244,
          "velocity": 0.7874015748031497
        },
        {
          "duration": 0.06249993749999305,
          "durationTicks": 21,
          "midi": 80,
          "name": "G#5",
          "ticks": 14022,
          "time": 41.73210112500001,
          "velocity": 0.7874015748031497
        },
        {
          "duration": 0.026785687500002098,
          "durationTicks": 9,
          "midi": 68,
          "name": "G#4",
          "ticks": 14064,
          "time": 41.857101,
          "velocity": 0.7874015748031497
        },
        {
          "duration": 0.026785687500002098,
          "durationTicks": 9,
          "midi": 68,
          "name": "G#4",
          "ticks": 14088,
          "time": 41.9285295,
          "velocity": 0.7874015748031497
        },
        {
          "duration": 0.026785687499994992,
          "durationTicks": 9,
          "midi": 68,
          "name": "G#4",
          "ticks": 14112,
          "time": 41.99995800000001,
          "velocity": 0.7874015748031497
        },
        {
          "duration": 0.026785687500002098,
          "durationTicks": 9,
          "midi": 68,
          "name": "G#4",
          "ticks": 14136,
          "time": 42.0713865,
          "velocity": 0.7874015748031497
        },
        {
          "duration": 0.026785687499994992,
          "durationTicks": 9,
          "midi": 68,
          "name": "G#4",
          "ticks": 14160,
          "time": 42.142815000000006,
          "velocity": 0.7874015748031497
        },
        {
          "duration": 0.026785687500002098,
          "durationTicks": 9,
          "midi": 68,
          "name": "G#4",
          "ticks": 14184,
          "time": 42.2142435,
          "velocity": 0.7874015748031497
        },
        {
          "duration": 0.026785687499994992,
          "durationTicks": 9,
          "midi": 67,
          "name": "G4",
          "ticks": 14208,
          "time": 42.285672000000005,
          "velocity": 0.7874015748031497
        },
        {
          "duration": 0.023809499999998707,
          "durationTicks": 8,
          "midi": 68,
          "name": "G#4",
          "ticks": 14216,
          "time": 42.309481500000004,
          "velocity": 0.7874015748031497
        },
        {
          "duration": 0.023809499999998707,
          "durationTicks": 8,
          "midi": 69,
          "name": "A4",
          "ticks": 14224,
          "time": 42.333291,
          "velocity": 0.7874015748031497
        },
        {
          "duration": 0.023809500000005812,
          "durationTicks": 8,
          "midi": 70,
          "name": "A#4",
          "ticks": 14232,
          "time": 42.3571005,
          "velocity": 0.7874015748031497
        },
        {
          "duration": 0.0238094999999916,
          "durationTicks": 8,
          "midi": 71,
          "name": "B4",
          "ticks": 14240,
          "time": 42.38091000000001,
          "velocity": 0.7874015748031497
        },
        {
          "duration": 0.023809500000005812,
          "durationTicks": 8,
          "midi": 72,
          "name": "C5",
          "ticks": 14248,
          "time": 42.4047195,
          "velocity": 0.7874015748031497
        },
        {
          "duration": 0.023809499999998707,
          "durationTicks": 8,
          "midi": 73,
          "name": "C#5",
          "ticks": 14256,
          "time": 42.428529000000005,
          "velocity": 0.7874015748031497
        },
        {
          "duration": 0.026785687500002098,
          "durationTicks": 9,
          "midi": 74,
          "name": "D5",
          "ticks": 14263,
          "time": 42.4493623125,
          "velocity": 0.7874015748031497
        },
        {
          "duration": 0.026785687499994992,
          "durationTicks": 9,
          "midi": 75,
          "name": "D#5",
          "ticks": 14271,
          "time": 42.473171812500006,
          "velocity": 0.7874015748031497
        },
        {
          "duration": 0.026785687500002098,
          "durationTicks": 9,
          "midi": 76,
          "name": "E5",
          "ticks": 14279,
          "time": 42.496981312500004,
          "velocity": 0.7874015748031497
        },
        {
          "duration": 0.026785687499994992,
          "durationTicks": 9,
          "midi": 77,
          "name": "F5",
          "ticks": 14287,
          "time": 42.5207908125,
          "velocity": 0.7874015748031497
        },
        {
          "duration": 0.026785687500002098,
          "durationTicks": 9,
          "midi": 78,
          "name": "F#5",
          "ticks": 14295,
          "time": 42.5446003125,
          "velocity": 0.7874015748031497
        },
        {
          "duration": 0.032738062500001774,
          "durationTicks": 11,
          "midi": 79,
          "name": "G5",
          "ticks": 14304,
          "time": 42.571386000000004,
          "velocity": 0.7874015748031497
        },
        {
          "duration": 0.032738062500001774,
          "durationTicks": 11,
          "midi": 80,
          "name": "G#5",
          "ticks": 14316,
          "time": 42.60710025,
          "velocity": 0.7874015748031497
        },
        {
          "duration": 0.03273806250000888,
          "durationTicks": 11,
          "midi": 81,
          "name": "A5",
          "ticks": 14328,
          "time": 42.6428145,
          "velocity": 0.7874015748031497
        },
        {
          "duration": 0.032738062500001774,
          "durationTicks": 11,
          "midi": 81,
          "name": "A5",
          "ticks": 14340,
          "time": 42.678528750000005,
          "velocity": 0.7874015748031497
        },
        {
          "duration": 0.032738062500001774,
          "durationTicks": 11,
          "midi": 82,
          "name": "A#5",
          "ticks": 14352,
          "time": 42.714243,
          "velocity": 0.7874015748031497
        },
        {
          "duration": 0.032738062500001774,
          "durationTicks": 11,
          "midi": 83,
          "name": "B5",
          "ticks": 14376,
          "time": 42.78567150000001,
          "velocity": 0.7874015748031497
        },
        {
          "duration": 0.032738062500001774,
          "durationTicks": 11,
          "midi": 83,
          "name": "B5",
          "ticks": 14400,
          "time": 42.8571,
          "velocity": 0.7874015748031497
        },
        {
          "duration": 0.03273806249999467,
          "durationTicks": 11,
          "midi": 84,
          "name": "C6",
          "ticks": 14402,
          "time": 42.86305237500001,
          "velocity": 0.7874015748031497
        },
        {
          "duration": 0.032738062500001774,
          "durationTicks": 11,
          "midi": 84,
          "name": "C6",
          "ticks": 14424,
          "time": 42.928528500000006,
          "velocity": 0.7874015748031497
        },
        {
          "duration": 0.032738062500001774,
          "durationTicks": 11,
          "midi": 84,
          "name": "C6",
          "ticks": 14448,
          "time": 42.999957,
          "velocity": 0.7874015748031497
        },
        {
          "duration": 0.032738062500001774,
          "durationTicks": 11,
          "midi": 84,
          "name": "C6",
          "ticks": 14472,
          "time": 43.071385500000005,
          "velocity": 0.7874015748031497
        },
        {
          "duration": 0.032738062500001774,
          "durationTicks": 11,
          "midi": 82,
          "name": "A#5",
          "ticks": 14496,
          "time": 43.142814,
          "velocity": 0.7874015748031497
        },
        {
          "duration": 0.03273806249999467,
          "durationTicks": 11,
          "midi": 83,
          "name": "B5",
          "ticks": 14498,
          "time": 43.14876637500001,
          "velocity": 0.7874015748031497
        },
        {
          "duration": 0.032738062500001774,
          "durationTicks": 11,
          "midi": 83,
          "name": "B5",
          "ticks": 14520,
          "time": 43.214242500000005,
          "velocity": 0.7874015748031497
        },
        {
          "duration": 0.03273806250000888,
          "durationTicks": 11,
          "midi": 83,
          "name": "B5",
          "ticks": 14544,
          "time": 43.285671,
          "velocity": 0.7874015748031497
        },
        {
          "duration": 0.032738062500001774,
          "durationTicks": 11,
          "midi": 83,
          "name": "B5",
          "ticks": 14568,
          "time": 43.357099500000004,
          "velocity": 0.7874015748031497
        },
        {
          "duration": 0.03273806250000888,
          "durationTicks": 11,
          "midi": 81,
          "name": "A5",
          "ticks": 14592,
          "time": 43.428528,
          "velocity": 0.7874015748031497
        },
        {
          "duration": 0.026785687500002098,
          "durationTicks": 9,
          "midi": 82,
          "name": "A#5",
          "ticks": 14594,
          "time": 43.43448037500001,
          "velocity": 0.7874015748031497
        },
        {
          "duration": 0.026785687499994992,
          "durationTicks": 9,
          "midi": 82,
          "name": "A#5",
          "ticks": 14604,
          "time": 43.464242250000005,
          "velocity": 0.7874015748031497
        },
        {
          "duration": 0.032738062500001774,
          "durationTicks": 11,
          "midi": 82,
          "name": "A#5",
          "ticks": 14616,
          "time": 43.4999565,
          "velocity": 0.7874015748031497
        },
        {
          "duration": 0.026785687500002098,
          "durationTicks": 9,
          "midi": 82,
          "name": "A#5",
          "ticks": 14628,
          "time": 43.53567075,
          "velocity": 0.7874015748031497
        },
        {
          "duration": 0.032738062500001774,
          "durationTicks": 11,
          "midi": 82,
          "name": "A#5",
          "ticks": 14640,
          "time": 43.57138500000001,
          "velocity": 0.7874015748031497
        },
        {
          "duration": 0.026785687500002098,
          "durationTicks": 9,
          "midi": 82,
          "name": "A#5",
          "ticks": 14652,
          "time": 43.607099250000005,
          "velocity": 0.7874015748031497
        },
        {
          "duration": 0.032738062500001774,
          "durationTicks": 11,
          "midi": 82,
          "name": "A#5",
          "ticks": 14664,
          "time": 43.6428135,
          "velocity": 0.7874015748031497
        },
        {
          "duration": 0.026785687500002098,
          "durationTicks": 9,
          "midi": 82,
          "name": "A#5",
          "ticks": 14676,
          "time": 43.67852775,
          "velocity": 0.7874015748031497
        },
        {
          "duration": 0.032738062500001774,
          "durationTicks": 11,
          "midi": 80,
          "name": "G#5",
          "ticks": 14688,
          "time": 43.714242000000006,
          "velocity": 0.7874015748031497
        },
        {
          "duration": 0.03273806249999467,
          "durationTicks": 11,
          "midi": 81,
          "name": "A5",
          "ticks": 14690,
          "time": 43.720194375000005,
          "velocity": 0.7874015748031497
        },
        {
          "duration": 0.032738062500001774,
          "durationTicks": 11,
          "midi": 81,
          "name": "A5",
          "ticks": 14712,
          "time": 43.7856705,
          "velocity": 0.7874015748031497
        },
        {
          "duration": 0.032738062500001774,
          "durationTicks": 11,
          "midi": 81,
          "name": "A5",
          "ticks": 14736,
          "time": 43.857099000000005,
          "velocity": 0.7874015748031497
        },
        {
          "duration": 0.032738062500001774,
          "durationTicks": 11,
          "midi": 81,
          "name": "A5",
          "ticks": 14760,
          "time": 43.9285275,
          "velocity": 0.7874015748031497
        },
        {
          "duration": 0.032738062500001774,
          "durationTicks": 11,
          "midi": 79,
          "name": "G5",
          "ticks": 14784,
          "time": 43.999956000000005,
          "velocity": 0.7874015748031497
        },
        {
          "duration": 0.03273806249999467,
          "durationTicks": 11,
          "midi": 80,
          "name": "G#5",
          "ticks": 14786,
          "time": 44.005908375000004,
          "velocity": 0.7874015748031497
        },
        {
          "duration": 0.03273806250000888,
          "durationTicks": 11,
          "midi": 80,
          "name": "G#5",
          "ticks": 14808,
          "time": 44.0713845,
          "velocity": 0.7874015748031497
        },
        {
          "duration": 0.032738062500001774,
          "durationTicks": 11,
          "midi": 80,
          "name": "G#5",
          "ticks": 14832,
          "time": 44.142813000000004,
          "velocity": 0.7874015748031497
        },
        {
          "duration": 0.032738062500001774,
          "durationTicks": 11,
          "midi": 80,
          "name": "G#5",
          "ticks": 14856,
          "time": 44.21424150000001,
          "velocity": 0.7874015748031497
        },
        {
          "duration": 0.032738062500001774,
          "durationTicks": 11,
          "midi": 78,
          "name": "F#5",
          "ticks": 14880,
          "time": 44.28567,
          "velocity": 0.7874015748031497
        },
        {
          "duration": 0.03273806249999467,
          "durationTicks": 11,
          "midi": 79,
          "name": "G5",
          "ticks": 14882,
          "time": 44.291622375,
          "velocity": 0.7874015748031497
        },
        {
          "duration": 0.032738062500001774,
          "durationTicks": 11,
          "midi": 79,
          "name": "G5",
          "ticks": 14904,
          "time": 44.357098500000006,
          "velocity": 0.7874015748031497
        },
        {
          "duration": 0.032738062500001774,
          "durationTicks": 11,
          "midi": 79,
          "name": "G5",
          "ticks": 14928,
          "time": 44.428527,
          "velocity": 0.7874015748031497
        },
        {
          "duration": 0.032738062500001774,
          "durationTicks": 11,
          "midi": 79,
          "name": "G5",
          "ticks": 14952,
          "time": 44.499955500000006,
          "velocity": 0.7874015748031497
        },
        {
          "duration": 0.032738062500001774,
          "durationTicks": 11,
          "midi": 83,
          "name": "B5",
          "ticks": 14976,
          "time": 44.571384,
          "velocity": 0.7874015748031497
        },
        {
          "duration": 0.032738062500001774,
          "durationTicks": 11,
          "midi": 84,
          "name": "C6",
          "ticks": 14988,
          "time": 44.60709825000001,
          "velocity": 0.7874015748031497
        },
        {
          "duration": 0.032738062500001774,
          "durationTicks": 11,
          "midi": 84,
          "name": "C6",
          "ticks": 15000,
          "time": 44.642812500000005,
          "velocity": 0.7874015748031497
        },
        {
          "duration": 0.032738062500001774,
          "durationTicks": 11,
          "midi": 74,
          "name": "D5",
          "ticks": 15024,
          "time": 44.714241,
          "velocity": 0.7874015748031497
        },
        {
          "duration": 0.032738062500001774,
          "durationTicks": 11,
          "midi": 74,
          "name": "D5",
          "ticks": 15048,
          "time": 44.785669500000004,
          "velocity": 0.7874015748031497
        },
        {
          "duration": 0.03273806250000888,
          "durationTicks": 11,
          "midi": 83,
          "name": "B5",
          "ticks": 15072,
          "time": 44.857098,
          "velocity": 0.7874015748031497
        },
        {
          "duration": 0.032738062500001774,
          "durationTicks": 11,
          "midi": 84,
          "name": "C6",
          "ticks": 15084,
          "time": 44.892812250000006,
          "velocity": 0.7874015748031497
        },
        {
          "duration": 0.032738062500001774,
          "durationTicks": 11,
          "midi": 84,
          "name": "C6",
          "ticks": 15096,
          "time": 44.928526500000004,
          "velocity": 0.7874015748031497
        },
        {
          "duration": 0.032738062500001774,
          "durationTicks": 11,
          "midi": 74,
          "name": "D5",
          "ticks": 15120,
          "time": 44.99995500000001,
          "velocity": 0.7874015748031497
        },
        {
          "duration": 0.032738062500001774,
          "durationTicks": 11,
          "midi": 74,
          "name": "D5",
          "ticks": 15144,
          "time": 45.0713835,
          "velocity": 0.7874015748031497
        },
        {
          "duration": 0.032738062500001774,
          "durationTicks": 11,
          "midi": 83,
          "name": "B5",
          "ticks": 15168,
          "time": 45.142812000000006,
          "velocity": 0.7874015748031497
        },
        {
          "duration": 0.032738062500001774,
          "durationTicks": 11,
          "midi": 84,
          "name": "C6",
          "ticks": 15180,
          "time": 45.178526250000004,
          "velocity": 0.7874015748031497
        },
        {
          "duration": 0.032738062500001774,
          "durationTicks": 11,
          "midi": 84,
          "name": "C6",
          "ticks": 15192,
          "time": 45.2142405,
          "velocity": 0.7874015748031497
        },
        {
          "duration": 0.032738062500001774,
          "durationTicks": 11,
          "midi": 74,
          "name": "D5",
          "ticks": 15216,
          "time": 45.285669000000006,
          "velocity": 0.7874015748031497
        },
        {
          "duration": 0.032738062500001774,
          "durationTicks": 11,
          "midi": 74,
          "name": "D5",
          "ticks": 15240,
          "time": 45.3570975,
          "velocity": 0.7874015748031497
        },
        {
          "duration": 0.032738062500001774,
          "durationTicks": 11,
          "midi": 83,
          "name": "B5",
          "ticks": 15264,
          "time": 45.428526000000005,
          "velocity": 0.7874015748031497
        },
        {
          "duration": 0.032738062500001774,
          "durationTicks": 11,
          "midi": 84,
          "name": "C6",
          "ticks": 15276,
          "time": 45.46424025,
          "velocity": 0.7874015748031497
        },
        {
          "duration": 0.032738062500001774,
          "durationTicks": 11,
          "midi": 84,
          "name": "C6",
          "ticks": 15288,
          "time": 45.4999545,
          "velocity": 0.7874015748031497
        },
        {
          "duration": 0.032738062500001774,
          "durationTicks": 11,
          "midi": 74,
          "name": "D5",
          "ticks": 15312,
          "time": 45.571383000000004,
          "velocity": 0.7874015748031497
        },
        {
          "duration": 0.03273806250000888,
          "durationTicks": 11,
          "midi": 74,
          "name": "D5",
          "ticks": 15336,
          "time": 45.6428115,
          "velocity": 0.7874015748031497
        },
        {
          "duration": 0.032738062500001774,
          "durationTicks": 11,
          "midi": 87,
          "name": "D#6",
          "ticks": 15360,
          "time": 45.714240000000004,
          "velocity": 0.7874015748031497
        },
        {
          "duration": 0.032738062500001774,
          "durationTicks": 11,
          "midi": 86,
          "name": "D6",
          "ticks": 15372,
          "time": 45.74995425,
          "velocity": 0.7874015748031497
        },
        {
          "duration": 0.032738062500001774,
          "durationTicks": 11,
          "midi": 85,
          "name": "C#6",
          "ticks": 15384,
          "time": 45.78566850000001,
          "velocity": 0.7874015748031497
        },
        {
          "duration": 0.032738062500001774,
          "durationTicks": 11,
          "midi": 84,
          "name": "C6",
          "ticks": 15396,
          "time": 45.821382750000005,
          "velocity": 0.7874015748031497
        },
        {
          "duration": 0.032738062500001774,
          "durationTicks": 11,
          "midi": 83,
          "name": "B5",
          "ticks": 15408,
          "time": 45.857097,
          "velocity": 0.7874015748031497
        },
        {
          "duration": 0.032738062500001774,
          "durationTicks": 11,
          "midi": 74,
          "name": "D5",
          "ticks": 15456,
          "time": 45.999954,
          "velocity": 0.7874015748031497
        },
        {
          "duration": 0.032738062500001774,
          "durationTicks": 11,
          "midi": 74,
          "name": "D5",
          "ticks": 15480,
          "time": 46.071382500000006,
          "velocity": 0.7874015748031497
        },
        {
          "duration": 0.032738062500001774,
          "durationTicks": 11,
          "midi": 74,
          "name": "D5",
          "ticks": 15480,
          "time": 46.071382500000006,
          "velocity": 0.7874015748031497
        },
        {
          "duration": 0.02083331250000242,
          "durationTicks": 7,
          "midi": 86,
          "name": "D6",
          "ticks": 15504,
          "time": 46.142811,
          "velocity": 0.7874015748031497
        },
        {
          "duration": 0.020833312499995316,
          "durationTicks": 7,
          "midi": 85,
          "name": "C#6",
          "ticks": 15512,
          "time": 46.16662050000001,
          "velocity": 0.7874015748031497
        },
        {
          "duration": 0.020833312500009527,
          "durationTicks": 7,
          "midi": 84,
          "name": "C6",
          "ticks": 15520,
          "time": 46.19043,
          "velocity": 0.7874015748031497
        },
        {
          "duration": 0.020833312499995316,
          "durationTicks": 7,
          "midi": 83,
          "name": "B5",
          "ticks": 15528,
          "time": 46.214239500000005,
          "velocity": 0.7874015748031497
        },
        {
          "duration": 0.02083331250000242,
          "durationTicks": 7,
          "midi": 82,
          "name": "A#5",
          "ticks": 15536,
          "time": 46.238049000000004,
          "velocity": 0.7874015748031497
        },
        {
          "duration": 0.02083331250000242,
          "durationTicks": 7,
          "midi": 81,
          "name": "A5",
          "ticks": 15544,
          "time": 46.2618585,
          "velocity": 0.7874015748031497
        },
        {
          "duration": 0.03273806250000888,
          "durationTicks": 11,
          "midi": 74,
          "name": "D5",
          "ticks": 15552,
          "time": 46.285668,
          "velocity": 0.7874015748031497
        },
        {
          "duration": 0.03273806250000888,
          "durationTicks": 11,
          "midi": 74,
          "name": "D5",
          "ticks": 15600,
          "time": 46.428525,
          "velocity": 0.7874015748031497
        },
        {
          "duration": 0.032738062500001774,
          "durationTicks": 11,
          "midi": 74,
          "name": "D5",
          "ticks": 15624,
          "time": 46.499953500000004,
          "velocity": 0.7874015748031497
        },
        {
          "duration": 0.032738062500001774,
          "durationTicks": 11,
          "midi": 84,
          "name": "C6",
          "ticks": 15648,
          "time": 46.57138200000001,
          "velocity": 0.7874015748031497
        },
        {
          "duration": 0.03273806249999467,
          "durationTicks": 11,
          "midi": 83,
          "name": "B5",
          "ticks": 15656,
          "time": 46.595191500000006,
          "velocity": 0.7874015748031497
        },
        {
          "duration": 0.032738062500001774,
          "durationTicks": 11,
          "midi": 82,
          "name": "A#5",
          "ticks": 15664,
          "time": 46.619001000000004,
          "velocity": 0.7874015748031497
        },
        {
          "duration": 0.032738062500001774,
          "durationTicks": 11,
          "midi": 81,
          "name": "A5",
          "ticks": 15672,
          "time": 46.6428105,
          "velocity": 0.7874015748031497
        },
        {
          "duration": 0.03273806249999467,
          "durationTicks": 11,
          "midi": 80,
          "name": "G#5",
          "ticks": 15680,
          "time": 46.66662000000001,
          "velocity": 0.7874015748031497
        },
        {
          "duration": 0.032738062500001774,
          "durationTicks": 11,
          "midi": 79,
          "name": "G5",
          "ticks": 15688,
          "time": 46.6904295,
          "velocity": 0.7874015748031497
        },
        {
          "duration": 0.032738062500001774,
          "durationTicks": 11,
          "midi": 78,
          "name": "F#5",
          "ticks": 15696,
          "time": 46.714239000000006,
          "velocity": 0.7874015748031497
        },
        {
          "duration": 0.03273806249999467,
          "durationTicks": 11,
          "midi": 77,
          "name": "F5",
          "ticks": 15704,
          "time": 46.738048500000005,
          "velocity": 0.7874015748031497
        },
        {
          "duration": 0.026785687499994992,
          "durationTicks": 9,
          "midi": 67,
          "name": "G4",
          "ticks": 15744,
          "time": 46.857096000000006,
          "velocity": 0.7874015748031497
        },
        {
          "duration": 0.023809499999998707,
          "durationTicks": 8,
          "midi": 68,
          "name": "G#4",
          "ticks": 15752,
          "time": 46.880905500000004,
          "velocity": 0.7874015748031497
        },
        {
          "duration": 0.023809499999998707,
          "durationTicks": 8,
          "midi": 69,
          "name": "A4",
          "ticks": 15760,
          "time": 46.904715,
          "velocity": 0.7874015748031497
        },
        {
          "duration": 0.023809500000005812,
          "durationTicks": 8,
          "midi": 70,
          "name": "A#4",
          "ticks": 15768,
          "time": 46.9285245,
          "velocity": 0.7874015748031497
        },
        {
          "duration": 0.0238094999999916,
          "durationTicks": 8,
          "midi": 71,
          "name": "B4",
          "ticks": 15776,
          "time": 46.95233400000001,
          "velocity": 0.7874015748031497
        },
        {
          "duration": 0.023809500000005812,
          "durationTicks": 8,
          "midi": 72,
          "name": "C5",
          "ticks": 15784,
          "time": 46.9761435,
          "velocity": 0.7874015748031497
        },
        {
          "duration": 0.023809499999998707,
          "durationTicks": 8,
          "midi": 73,
          "name": "C#5",
          "ticks": 15792,
          "time": 46.999953000000005,
          "velocity": 0.7874015748031497
        },
        {
          "duration": 0.026785687500002098,
          "durationTicks": 9,
          "midi": 74,
          "name": "D5",
          "ticks": 15799,
          "time": 47.0207863125,
          "velocity": 0.7874015748031497
        },
        {
          "duration": 0.026785687499994992,
          "durationTicks": 9,
          "midi": 75,
          "name": "D#5",
          "ticks": 15807,
          "time": 47.044595812500006,
          "velocity": 0.7874015748031497
        },
        {
          "duration": 0.026785687500002098,
          "durationTicks": 9,
          "midi": 76,
          "name": "E5",
          "ticks": 15815,
          "time": 47.068405312500005,
          "velocity": 0.7874015748031497
        },
        {
          "duration": 0.026785687499994992,
          "durationTicks": 9,
          "midi": 77,
          "name": "F5",
          "ticks": 15823,
          "time": 47.0922148125,
          "velocity": 0.7874015748031497
        },
        {
          "duration": 0.026785687500002098,
          "durationTicks": 9,
          "midi": 78,
          "name": "F#5",
          "ticks": 15831,
          "time": 47.1160243125,
          "velocity": 0.7874015748031497
        },
        {
          "duration": 0.032738062500001774,
          "durationTicks": 11,
          "midi": 79,
          "name": "G5",
          "ticks": 15840,
          "time": 47.142810000000004,
          "velocity": 0.7874015748031497
        },
        {
          "duration": 0.032738062500001774,
          "durationTicks": 11,
          "midi": 80,
          "name": "G#5",
          "ticks": 15852,
          "time": 47.17852425,
          "velocity": 0.7874015748031497
        },
        {
          "duration": 0.03273806250000888,
          "durationTicks": 11,
          "midi": 81,
          "name": "A5",
          "ticks": 15864,
          "time": 47.2142385,
          "velocity": 0.7874015748031497
        },
        {
          "duration": 0.032738062500001774,
          "durationTicks": 11,
          "midi": 81,
          "name": "A5",
          "ticks": 15876,
          "time": 47.249952750000006,
          "velocity": 0.7874015748031497
        },
        {
          "duration": 0.032738062500001774,
          "durationTicks": 11,
          "midi": 82,
          "name": "A#5",
          "ticks": 15888,
          "time": 47.285667000000004,
          "velocity": 0.7874015748031497
        },
        {
          "duration": 0.032738062500001774,
          "durationTicks": 11,
          "midi": 83,
          "name": "B5",
          "ticks": 15912,
          "time": 47.35709550000001,
          "velocity": 0.7874015748031497
        },
        {
          "duration": 0.032738062500001774,
          "durationTicks": 11,
          "midi": 83,
          "name": "B5",
          "ticks": 15936,
          "time": 47.428524,
          "velocity": 0.7874015748031497
        },
        {
          "duration": 0.03273806249999467,
          "durationTicks": 11,
          "midi": 84,
          "name": "C6",
          "ticks": 15938,
          "time": 47.43447637500001,
          "velocity": 0.7874015748031497
        },
        {
          "duration": 0.032738062500001774,
          "durationTicks": 11,
          "midi": 84,
          "name": "C6",
          "ticks": 15960,
          "time": 47.499952500000006,
          "velocity": 0.7874015748031497
        },
        {
          "duration": 0.032738062500001774,
          "durationTicks": 11,
          "midi": 84,
          "name": "C6",
          "ticks": 15984,
          "time": 47.571381,
          "velocity": 0.7874015748031497
        },
        {
          "duration": 0.032738062500001774,
          "durationTicks": 11,
          "midi": 84,
          "name": "C6",
          "ticks": 16008,
          "time": 47.642809500000006,
          "velocity": 0.7874015748031497
        },
        {
          "duration": 0.032738062500001774,
          "durationTicks": 11,
          "midi": 82,
          "name": "A#5",
          "ticks": 16032,
          "time": 47.714238,
          "velocity": 0.7874015748031497
        },
        {
          "duration": 0.03273806249999467,
          "durationTicks": 11,
          "midi": 83,
          "name": "B5",
          "ticks": 16034,
          "time": 47.72019037500001,
          "velocity": 0.7874015748031497
        },
        {
          "duration": 0.032738062500001774,
          "durationTicks": 11,
          "midi": 83,
          "name": "B5",
          "ticks": 16056,
          "time": 47.785666500000005,
          "velocity": 0.7874015748031497
        },
        {
          "duration": 0.03273806250000888,
          "durationTicks": 11,
          "midi": 83,
          "name": "B5",
          "ticks": 16080,
          "time": 47.857095,
          "velocity": 0.7874015748031497
        },
        {
          "duration": 0.032738062500001774,
          "durationTicks": 11,
          "midi": 83,
          "name": "B5",
          "ticks": 16104,
          "time": 47.928523500000004,
          "velocity": 0.7874015748031497
        },
        {
          "duration": 0.032738062500001774,
          "durationTicks": 11,
          "midi": 81,
          "name": "A5",
          "ticks": 16128,
          "time": 47.99995200000001,
          "velocity": 0.7874015748031497
        },
        {
          "duration": 0.026785687500002098,
          "durationTicks": 9,
          "midi": 82,
          "name": "A#5",
          "ticks": 16130,
          "time": 48.00590437500001,
          "velocity": 0.7874015748031497
        },
        {
          "duration": 0.026785687499994992,
          "durationTicks": 9,
          "midi": 82,
          "name": "A#5",
          "ticks": 16140,
          "time": 48.035666250000006,
          "velocity": 0.7874015748031497
        },
        {
          "duration": 0.032738062500001774,
          "durationTicks": 11,
          "midi": 82,
          "name": "A#5",
          "ticks": 16152,
          "time": 48.071380500000004,
          "velocity": 0.7874015748031497
        },
        {
          "duration": 0.026785687500002098,
          "durationTicks": 9,
          "midi": 82,
          "name": "A#5",
          "ticks": 16164,
          "time": 48.10709475,
          "velocity": 0.7874015748031497
        },
        {
          "duration": 0.032738062500001774,
          "durationTicks": 11,
          "midi": 82,
          "name": "A#5",
          "ticks": 16176,
          "time": 48.14280900000001,
          "velocity": 0.7874015748031497
        },
        {
          "duration": 0.026785687500002098,
          "durationTicks": 9,
          "midi": 82,
          "name": "A#5",
          "ticks": 16188,
          "time": 48.178523250000005,
          "velocity": 0.7874015748031497
        },
        {
          "duration": 0.032738062500001774,
          "durationTicks": 11,
          "midi": 82,
          "name": "A#5",
          "ticks": 16200,
          "time": 48.2142375,
          "velocity": 0.7874015748031497
        },
        {
          "duration": 0.026785687500002098,
          "durationTicks": 9,
          "midi": 82,
          "name": "A#5",
          "ticks": 16212,
          "time": 48.24995175,
          "velocity": 0.7874015748031497
        },
        {
          "duration": 0.032738062500001774,
          "durationTicks": 11,
          "midi": 80,
          "name": "G#5",
          "ticks": 16224,
          "time": 48.285666000000006,
          "velocity": 0.7874015748031497
        },
        {
          "duration": 0.03273806249999467,
          "durationTicks": 11,
          "midi": 81,
          "name": "A5",
          "ticks": 16226,
          "time": 48.291618375000006,
          "velocity": 0.7874015748031497
        },
        {
          "duration": 0.032738062500001774,
          "durationTicks": 11,
          "midi": 81,
          "name": "A5",
          "ticks": 16248,
          "time": 48.3570945,
          "velocity": 0.7874015748031497
        },
        {
          "duration": 0.032738062500001774,
          "durationTicks": 11,
          "midi": 81,
          "name": "A5",
          "ticks": 16272,
          "time": 48.428523000000006,
          "velocity": 0.7874015748031497
        },
        {
          "duration": 0.032738062500001774,
          "durationTicks": 11,
          "midi": 81,
          "name": "A5",
          "ticks": 16296,
          "time": 48.4999515,
          "velocity": 0.7874015748031497
        },
        {
          "duration": 0.032738062500001774,
          "durationTicks": 11,
          "midi": 79,
          "name": "G5",
          "ticks": 16320,
          "time": 48.571380000000005,
          "velocity": 0.7874015748031497
        },
        {
          "duration": 0.03273806249999467,
          "durationTicks": 11,
          "midi": 80,
          "name": "G#5",
          "ticks": 16322,
          "time": 48.577332375000005,
          "velocity": 0.7874015748031497
        },
        {
          "duration": 0.03273806250000888,
          "durationTicks": 11,
          "midi": 80,
          "name": "G#5",
          "ticks": 16344,
          "time": 48.6428085,
          "velocity": 0.7874015748031497
        },
        {
          "duration": 0.032738062500001774,
          "durationTicks": 11,
          "midi": 80,
          "name": "G#5",
          "ticks": 16368,
          "time": 48.714237000000004,
          "velocity": 0.7874015748031497
        },
        {
          "duration": 0.032738062500001774,
          "durationTicks": 11,
          "midi": 80,
          "name": "G#5",
          "ticks": 16392,
          "time": 48.78566550000001,
          "velocity": 0.7874015748031497
        },
        {
          "duration": 0.032738062500001774,
          "durationTicks": 11,
          "midi": 78,
          "name": "F#5",
          "ticks": 16416,
          "time": 48.857094000000004,
          "velocity": 0.7874015748031497
        },
        {
          "duration": 0.03273806249999467,
          "durationTicks": 11,
          "midi": 79,
          "name": "G5",
          "ticks": 16418,
          "time": 48.863046375,
          "velocity": 0.7874015748031497
        },
        {
          "duration": 0.032738062500001774,
          "durationTicks": 11,
          "midi": 79,
          "name": "G5",
          "ticks": 16440,
          "time": 48.92852250000001,
          "velocity": 0.7874015748031497
        },
        {
          "duration": 0.032738062500001774,
          "durationTicks": 11,
          "midi": 79,
          "name": "G5",
          "ticks": 16464,
          "time": 48.999951,
          "velocity": 0.7874015748031497
        },
        {
          "duration": 0.032738062500001774,
          "durationTicks": 11,
          "midi": 79,
          "name": "G5",
          "ticks": 16488,
          "time": 49.071379500000006,
          "velocity": 0.7874015748031497
        },
        {
          "duration": 0.026785687500002098,
          "durationTicks": 9,
          "midi": 58,
          "name": "A#3",
          "ticks": 16512,
          "time": 49.142808,
          "velocity": 0.7874015748031497
        },
        {
          "duration": 0.026785687499994992,
          "durationTicks": 9,
          "midi": 59,
          "name": "B3",
          "ticks": 16524,
          "time": 49.17852225000001,
          "velocity": 0.7874015748031497
        },
        {
          "duration": 0.026785687500002098,
          "durationTicks": 9,
          "midi": 60,
          "name": "C4",
          "ticks": 16536,
          "time": 49.214236500000005,
          "velocity": 0.7874015748031497
        },
        {
          "duration": 0.026785687500002098,
          "durationTicks": 9,
          "midi": 61,
          "name": "C#4",
          "ticks": 16548,
          "time": 49.24995075,
          "velocity": 0.7874015748031497
        },
        {
          "duration": 0.026785687500002098,
          "durationTicks": 9,
          "midi": 62,
          "name": "D4",
          "ticks": 16560,
          "time": 49.285665,
          "velocity": 0.7874015748031497
        },
        {
          "duration": 0.026785687499994992,
          "durationTicks": 9,
          "midi": 63,
          "name": "D#4",
          "ticks": 16572,
          "time": 49.32137925000001,
          "velocity": 0.7874015748031497
        },
        {
          "duration": 0.026785687500002098,
          "durationTicks": 9,
          "midi": 64,
          "name": "E4",
          "ticks": 16584,
          "time": 49.357093500000005,
          "velocity": 0.7874015748031497
        },
        {
          "duration": 0.026785687500002098,
          "durationTicks": 9,
          "midi": 65,
          "name": "F4",
          "ticks": 16608,
          "time": 49.428522,
          "velocity": 0.7874015748031497
        },
        {
          "duration": 0.026785687500002098,
          "durationTicks": 9,
          "midi": 66,
          "name": "F#4",
          "ticks": 16608,
          "time": 49.428522,
          "velocity": 0.7874015748031497
        },
        {
          "duration": 0.026785687499994992,
          "durationTicks": 9,
          "midi": 67,
          "name": "G4",
          "ticks": 16620,
          "time": 49.464236250000006,
          "velocity": 0.7874015748031497
        },
        {
          "duration": 0.026785687500002098,
          "durationTicks": 9,
          "midi": 68,
          "name": "G#4",
          "ticks": 16632,
          "time": 49.499950500000004,
          "velocity": 0.7874015748031497
        },
        {
          "duration": 0.026785687500002098,
          "durationTicks": 9,
          "midi": 69,
          "name": "A4",
          "ticks": 16644,
          "time": 49.53566475,
          "velocity": 0.7874015748031497
        },
        {
          "duration": 0.026785687499994992,
          "durationTicks": 9,
          "midi": 70,
          "name": "A#4",
          "ticks": 16656,
          "time": 49.57137900000001,
          "velocity": 0.7874015748031497
        },
        {
          "duration": 0.026785687500002098,
          "durationTicks": 9,
          "midi": 71,
          "name": "B4",
          "ticks": 16668,
          "time": 49.607093250000005,
          "velocity": 0.7874015748031497
        },
        {
          "duration": 0.026785687500002098,
          "durationTicks": 9,
          "midi": 72,
          "name": "C5",
          "ticks": 16680,
          "time": 49.6428075,
          "velocity": 0.7874015748031497
        },
        {
          "duration": 0.026785687499994992,
          "durationTicks": 9,
          "midi": 73,
          "name": "C#5",
          "ticks": 16704,
          "time": 49.71423600000001,
          "velocity": 0.7874015748031497
        },
        {
          "duration": 0.026785687499994992,
          "durationTicks": 9,
          "midi": 72,
          "name": "C5",
          "ticks": 16704,
          "time": 49.71423600000001,
          "velocity": 0.7874015748031497
        },
        {
          "duration": 0.026785687500002098,
          "durationTicks": 9,
          "midi": 74,
          "name": "D5",
          "ticks": 16716,
          "time": 49.749950250000005,
          "velocity": 0.7874015748031497
        },
        {
          "duration": 0.026785687500002098,
          "durationTicks": 9,
          "midi": 75,
          "name": "D#5",
          "ticks": 16728,
          "time": 49.7856645,
          "velocity": 0.7874015748031497
        },
        {
          "duration": 0.026785687500002098,
          "durationTicks": 9,
          "midi": 76,
          "name": "E5",
          "ticks": 16740,
          "time": 49.82137875,
          "velocity": 0.7874015748031497
        },
        {
          "duration": 0.026785687499994992,
          "durationTicks": 9,
          "midi": 77,
          "name": "F5",
          "ticks": 16752,
          "time": 49.857093000000006,
          "velocity": 0.7874015748031497
        },
        {
          "duration": 0.026785687500002098,
          "durationTicks": 9,
          "midi": 78,
          "name": "F#5",
          "ticks": 16764,
          "time": 49.892807250000004,
          "velocity": 0.7874015748031497
        },
        {
          "duration": 0.026785687500002098,
          "durationTicks": 9,
          "midi": 79,
          "name": "G5",
          "ticks": 16776,
          "time": 49.9285215,
          "velocity": 0.7874015748031497
        },
        {
          "duration": 0.026785687500002098,
          "durationTicks": 9,
          "midi": 77,
          "name": "F5",
          "ticks": 16800,
          "time": 49.999950000000005,
          "velocity": 0.7874015748031497
        },
        {
          "duration": 0.026785687500002098,
          "durationTicks": 9,
          "midi": 78,
          "name": "F#5",
          "ticks": 16812,
          "time": 50.03566425,
          "velocity": 0.7874015748031497
        },
        {
          "duration": 0.026785687500002098,
          "durationTicks": 9,
          "midi": 79,
          "name": "G5",
          "ticks": 16824,
          "time": 50.0713785,
          "velocity": 0.7874015748031497
        },
        {
          "duration": 0.026785687499994992,
          "durationTicks": 9,
          "midi": 80,
          "name": "G#5",
          "ticks": 16836,
          "time": 50.10709275000001,
          "velocity": 0.7874015748031497
        },
        {
          "duration": 0.026785687500002098,
          "durationTicks": 9,
          "midi": 81,
          "name": "A5",
          "ticks": 16848,
          "time": 50.142807000000005,
          "velocity": 0.7874015748031497
        },
        {
          "duration": 0.026785687500002098,
          "durationTicks": 9,
          "midi": 82,
          "name": "A#5",
          "ticks": 16860,
          "time": 50.17852125,
          "velocity": 0.7874015748031497
        },
        {
          "duration": 0.026785687500002098,
          "durationTicks": 9,
          "midi": 83,
          "name": "B5",
          "ticks": 16872,
          "time": 50.2142355,
          "velocity": 0.7874015748031497
        },
        {
          "duration": 0.06249993750000016,
          "durationTicks": 21,
          "midi": 79,
          "name": "G5",
          "ticks": 16896,
          "time": 50.285664000000004,
          "velocity": 0.7874015748031497
        },
        {
          "duration": 0.06249993750000016,
          "durationTicks": 21,
          "midi": 80,
          "name": "G#5",
          "ticks": 16902,
          "time": 50.303521125,
          "velocity": 0.7874015748031497
        },
        {
          "duration": 0.026785687500002098,
          "durationTicks": 9,
          "midi": 67,
          "name": "G4",
          "ticks": 16944,
          "time": 50.428521,
          "velocity": 0.7874015748031497
        },
        {
          "duration": 0.026785687499994992,
          "durationTicks": 9,
          "midi": 67,
          "name": "G4",
          "ticks": 16968,
          "time": 50.49994950000001,
          "velocity": 0.7874015748031497
        },
        {
          "duration": 0.026785687500002098,
          "durationTicks": 9,
          "midi": 67,
          "name": "G4",
          "ticks": 16992,
          "time": 50.571378,
          "velocity": 0.7874015748031497
        },
        {
          "duration": 0.026785687499994992,
          "durationTicks": 9,
          "midi": 67,
          "name": "G4",
          "ticks": 17016,
          "time": 50.642806500000006,
          "velocity": 0.7874015748031497
        },
        {
          "duration": 0.026785687500002098,
          "durationTicks": 9,
          "midi": 67,
          "name": "G4",
          "ticks": 17040,
          "time": 50.714235,
          "velocity": 0.7874015748031497
        },
        {
          "duration": 0.026785687500002098,
          "durationTicks": 9,
          "midi": 67,
          "name": "G4",
          "ticks": 17064,
          "time": 50.785663500000005,
          "velocity": 0.7874015748031497
        },
        {
          "duration": 0.06249993750000016,
          "durationTicks": 21,
          "midi": 79,
          "name": "G5",
          "ticks": 17088,
          "time": 50.857092,
          "velocity": 0.7874015748031497
        },
        {
          "duration": 0.06249993749999305,
          "durationTicks": 21,
          "midi": 80,
          "name": "G#5",
          "ticks": 17094,
          "time": 50.87494912500001,
          "velocity": 0.7874015748031497
        },
        {
          "duration": 0.026785687500002098,
          "durationTicks": 9,
          "midi": 68,
          "name": "G#4",
          "ticks": 17136,
          "time": 50.999949,
          "velocity": 0.7874015748031497
        },
        {
          "duration": 0.026785687500002098,
          "durationTicks": 9,
          "midi": 68,
          "name": "G#4",
          "ticks": 17160,
          "time": 51.071377500000004,
          "velocity": 0.7874015748031497
        },
        {
          "duration": 0.026785687499994992,
          "durationTicks": 9,
          "midi": 68,
          "name": "G#4",
          "ticks": 17184,
          "time": 51.14280600000001,
          "velocity": 0.7874015748031497
        },
        {
          "duration": 0.026785687500002098,
          "durationTicks": 9,
          "midi": 68,
          "name": "G#4",
          "ticks": 17208,
          "time": 51.2142345,
          "velocity": 0.7874015748031497
        },
        {
          "duration": 0.026785687499994992,
          "durationTicks": 9,
          "midi": 68,
          "name": "G#4",
          "ticks": 17232,
          "time": 51.28566300000001,
          "velocity": 0.7874015748031497
        },
        {
          "duration": 0.026785687500002098,
          "durationTicks": 9,
          "midi": 68,
          "name": "G#4",
          "ticks": 17256,
          "time": 51.3570915,
          "velocity": 0.7874015748031497
        },
        {
          "duration": 0.026785687499994992,
          "durationTicks": 9,
          "midi": 67,
          "name": "G4",
          "ticks": 17280,
          "time": 51.428520000000006,
          "velocity": 0.7874015748031497
        },
        {
          "duration": 0.023809499999998707,
          "durationTicks": 8,
          "midi": 68,
          "name": "G#4",
          "ticks": 17288,
          "time": 51.452329500000005,
          "velocity": 0.7874015748031497
        },
        {
          "duration": 0.023809499999998707,
          "durationTicks": 8,
          "midi": 69,
          "name": "A4",
          "ticks": 17296,
          "time": 51.476139,
          "velocity": 0.7874015748031497
        },
        {
          "duration": 0.023809500000005812,
          "durationTicks": 8,
          "midi": 70,
          "name": "A#4",
          "ticks": 17304,
          "time": 51.4999485,
          "velocity": 0.7874015748031497
        },
        {
          "duration": 0.0238094999999916,
          "durationTicks": 8,
          "midi": 71,
          "name": "B4",
          "ticks": 17312,
          "time": 51.52375800000001,
          "velocity": 0.7874015748031497
        },
        {
          "duration": 0.023809500000005812,
          "durationTicks": 8,
          "midi": 72,
          "name": "C5",
          "ticks": 17320,
          "time": 51.5475675,
          "velocity": 0.7874015748031497
        },
        {
          "duration": 0.023809499999998707,
          "durationTicks": 8,
          "midi": 73,
          "name": "C#5",
          "ticks": 17328,
          "time": 51.571377000000005,
          "velocity": 0.7874015748031497
        },
        {
          "duration": 0.026785687500002098,
          "durationTicks": 9,
          "midi": 74,
          "name": "D5",
          "ticks": 17335,
          "time": 51.5922103125,
          "velocity": 0.7874015748031497
        },
        {
          "duration": 0.026785687499994992,
          "durationTicks": 9,
          "midi": 75,
          "name": "D#5",
          "ticks": 17343,
          "time": 51.61601981250001,
          "velocity": 0.7874015748031497
        },
        {
          "duration": 0.026785687500002098,
          "durationTicks": 9,
          "midi": 76,
          "name": "E5",
          "ticks": 17351,
          "time": 51.639829312500005,
          "velocity": 0.7874015748031497
        },
        {
          "duration": 0.026785687499994992,
          "durationTicks": 9,
          "midi": 77,
          "name": "F5",
          "ticks": 17359,
          "time": 51.663638812500004,
          "velocity": 0.7874015748031497
        },
        {
          "duration": 0.026785687500002098,
          "durationTicks": 9,
          "midi": 78,
          "name": "F#5",
          "ticks": 17367,
          "time": 51.6874483125,
          "velocity": 0.7874015748031497
        },
        {
          "duration": 0.032738062500001774,
          "durationTicks": 11,
          "midi": 79,
          "name": "G5",
          "ticks": 17376,
          "time": 51.714234000000005,
          "velocity": 0.7874015748031497
        },
        {
          "duration": 0.032738062500001774,
          "durationTicks": 11,
          "midi": 80,
          "name": "G#5",
          "ticks": 17388,
          "time": 51.74994825,
          "velocity": 0.7874015748031497
        },
        {
          "duration": 0.03273806250000888,
          "durationTicks": 11,
          "midi": 81,
          "name": "A5",
          "ticks": 17400,
          "time": 51.7856625,
          "velocity": 0.7874015748031497
        },
        {
          "duration": 0.032738062500001774,
          "durationTicks": 11,
          "midi": 81,
          "name": "A5",
          "ticks": 17412,
          "time": 51.821376750000006,
          "velocity": 0.7874015748031497
        },
        {
          "duration": 0.032738062500001774,
          "durationTicks": 11,
          "midi": 82,
          "name": "A#5",
          "ticks": 17424,
          "time": 51.857091000000004,
          "velocity": 0.7874015748031497
        },
        {
          "duration": 0.032738062500001774,
          "durationTicks": 11,
          "midi": 83,
          "name": "B5",
          "ticks": 17448,
          "time": 51.92851950000001,
          "velocity": 0.7874015748031497
        },
        {
          "duration": 0.032738062500001774,
          "durationTicks": 11,
          "midi": 83,
          "name": "B5",
          "ticks": 17472,
          "time": 51.999948,
          "velocity": 0.7874015748031497
        },
        {
          "duration": 0.03273806249999467,
          "durationTicks": 11,
          "midi": 84,
          "name": "C6",
          "ticks": 17474,
          "time": 52.00590037500001,
          "velocity": 0.7874015748031497
        },
        {
          "duration": 0.032738062500001774,
          "durationTicks": 11,
          "midi": 84,
          "name": "C6",
          "ticks": 17496,
          "time": 52.07137650000001,
          "velocity": 0.7874015748031497
        },
        {
          "duration": 0.032738062500001774,
          "durationTicks": 11,
          "midi": 84,
          "name": "C6",
          "ticks": 17520,
          "time": 52.142805,
          "velocity": 0.7874015748031497
        },
        {
          "duration": 0.032738062500001774,
          "durationTicks": 11,
          "midi": 84,
          "name": "C6",
          "ticks": 17544,
          "time": 52.214233500000006,
          "velocity": 0.7874015748031497
        },
        {
          "duration": 0.032738062500001774,
          "durationTicks": 11,
          "midi": 82,
          "name": "A#5",
          "ticks": 17568,
          "time": 52.285662,
          "velocity": 0.7874015748031497
        },
        {
          "duration": 0.03273806249999467,
          "durationTicks": 11,
          "midi": 83,
          "name": "B5",
          "ticks": 17570,
          "time": 52.29161437500001,
          "velocity": 0.7874015748031497
        },
        {
          "duration": 0.032738062500001774,
          "durationTicks": 11,
          "midi": 83,
          "name": "B5",
          "ticks": 17592,
          "time": 52.357090500000005,
          "velocity": 0.7874015748031497
        },
        {
          "duration": 0.03273806250000888,
          "durationTicks": 11,
          "midi": 83,
          "name": "B5",
          "ticks": 17616,
          "time": 52.428519,
          "velocity": 0.7874015748031497
        },
        {
          "duration": 0.032738062500001774,
          "durationTicks": 11,
          "midi": 83,
          "name": "B5",
          "ticks": 17640,
          "time": 52.499947500000005,
          "velocity": 0.7874015748031497
        },
        {
          "duration": 0.026785687500002098,
          "durationTicks": 9,
          "midi": 69,
          "name": "A4",
          "ticks": 17664,
          "time": 52.571376,
          "velocity": 0.7874015748031497
        },
        {
          "duration": 0.0238094999999916,
          "durationTicks": 8,
          "midi": 70,
          "name": "A#4",
          "ticks": 17672,
          "time": 52.59518550000001,
          "velocity": 0.7874015748031497
        },
        {
          "duration": 0.023809500000005812,
          "durationTicks": 8,
          "midi": 71,
          "name": "B4",
          "ticks": 17680,
          "time": 52.618995,
          "velocity": 0.7874015748031497
        },
        {
          "duration": 0.023809500000005812,
          "durationTicks": 8,
          "midi": 72,
          "name": "C5",
          "ticks": 17688,
          "time": 52.642804500000004,
          "velocity": 0.7874015748031497
        },
        {
          "duration": 0.0238094999999916,
          "durationTicks": 8,
          "midi": 73,
          "name": "C#5",
          "ticks": 17696,
          "time": 52.66661400000001,
          "velocity": 0.7874015748031497
        },
        {
          "duration": 0.023809500000005812,
          "durationTicks": 8,
          "midi": 74,
          "name": "D5",
          "ticks": 17704,
          "time": 52.6904235,
          "velocity": 0.7874015748031497
        },
        {
          "duration": 0.023809499999998707,
          "durationTicks": 8,
          "midi": 75,
          "name": "D#5",
          "ticks": 17712,
          "time": 52.71423300000001,
          "velocity": 0.7874015748031497
        },
        {
          "duration": 0.026785687500002098,
          "durationTicks": 9,
          "midi": 76,
          "name": "E5",
          "ticks": 17719,
          "time": 52.7350663125,
          "velocity": 0.7874015748031497
        },
        {
          "duration": 0.026785687500002098,
          "durationTicks": 9,
          "midi": 77,
          "name": "F5",
          "ticks": 17727,
          "time": 52.7588758125,
          "velocity": 0.7874015748031497
        },
        {
          "duration": 0.026785687500002098,
          "durationTicks": 9,
          "midi": 78,
          "name": "F#5",
          "ticks": 17735,
          "time": 52.78268531250001,
          "velocity": 0.7874015748031497
        },
        {
          "duration": 0.026785687499994992,
          "durationTicks": 9,
          "midi": 79,
          "name": "G5",
          "ticks": 17759,
          "time": 52.85411381250001,
          "velocity": 0.7874015748031497
        },
        {
          "duration": 0.03273806249999467,
          "durationTicks": 11,
          "midi": 80,
          "name": "G#5",
          "ticks": 17765,
          "time": 52.87197093750001,
          "velocity": 0.7874015748031497
        },
        {
          "duration": 0.01785712499999903,
          "durationTicks": 6,
          "midi": 80,
          "name": "G#5",
          "ticks": 17776,
          "time": 52.904709000000004,
          "velocity": 0.7874015748031497
        },
        {
          "duration": 0.04166662500000484,
          "durationTicks": 14,
          "midi": 80,
          "name": "G#5",
          "ticks": 17784,
          "time": 52.9285185,
          "velocity": 0.7874015748031497
        },
        {
          "duration": 0.032738062500001774,
          "durationTicks": 11,
          "midi": 79,
          "name": "G5",
          "ticks": 17808,
          "time": 52.999947000000006,
          "velocity": 0.7874015748031497
        },
        {
          "duration": 0.032738062500001774,
          "durationTicks": 11,
          "midi": 79,
          "name": "G5",
          "ticks": 17832,
          "time": 53.0713755,
          "velocity": 0.7874015748031497
        },
        {
          "duration": 0.032738062500001774,
          "durationTicks": 11,
          "midi": 77,
          "name": "F5",
          "ticks": 17856,
          "time": 53.142804000000005,
          "velocity": 0.7874015748031497
        },
        {
          "duration": 0.03273806249999467,
          "durationTicks": 11,
          "midi": 78,
          "name": "F#5",
          "ticks": 17858,
          "time": 53.148756375000005,
          "velocity": 0.7874015748031497
        },
        {
          "duration": 0.03273806250000888,
          "durationTicks": 11,
          "midi": 78,
          "name": "F#5",
          "ticks": 17880,
          "time": 53.2142325,
          "velocity": 0.7874015748031497
        },
        {
          "duration": 0.032738062500001774,
          "durationTicks": 11,
          "midi": 78,
          "name": "F#5",
          "ticks": 17904,
          "time": 53.285661000000005,
          "velocity": 0.7874015748031497
        },
        {
          "duration": 0.032738062500001774,
          "durationTicks": 11,
          "midi": 78,
          "name": "F#5",
          "ticks": 17928,
          "time": 53.35708950000001,
          "velocity": 0.7874015748031497
        },
        {
          "duration": 0.032738062500001774,
          "durationTicks": 11,
          "midi": 76,
          "name": "E5",
          "ticks": 17952,
          "time": 53.428518000000004,
          "velocity": 0.7874015748031497
        },
        {
          "duration": 0.03273806249999467,
          "durationTicks": 11,
          "midi": 77,
          "name": "F5",
          "ticks": 17954,
          "time": 53.434470375000004,
          "velocity": 0.7874015748031497
        },
        {
          "duration": 0.032738062500001774,
          "durationTicks": 11,
          "midi": 77,
          "name": "F5",
          "ticks": 17976,
          "time": 53.49994650000001,
          "velocity": 0.7874015748031497
        },
        {
          "duration": 0.032738062500001774,
          "durationTicks": 11,
          "midi": 77,
          "name": "F5",
          "ticks": 18000,
          "time": 53.571375,
          "velocity": 0.7874015748031497
        },
        {
          "duration": 0.032738062500001774,
          "durationTicks": 11,
          "midi": 77,
          "name": "F5",
          "ticks": 18024,
          "time": 53.64280350000001,
          "velocity": 0.7874015748031497
        },
        {
          "duration": 0.026785687500002098,
          "durationTicks": 9,
          "midi": 58,
          "name": "A#3",
          "ticks": 18048,
          "time": 53.714232,
          "velocity": 0.7874015748031497
        },
        {
          "duration": 0.026785687499994992,
          "durationTicks": 9,
          "midi": 59,
          "name": "B3",
          "ticks": 18060,
          "time": 53.74994625000001,
          "velocity": 0.7874015748031497
        },
        {
          "duration": 0.026785687500002098,
          "durationTicks": 9,
          "midi": 60,
          "name": "C4",
          "ticks": 18072,
          "time": 53.785660500000006,
          "velocity": 0.7874015748031497
        },
        {
          "duration": 0.026785687500002098,
          "durationTicks": 9,
          "midi": 61,
          "name": "C#4",
          "ticks": 18084,
          "time": 53.821374750000004,
          "velocity": 0.7874015748031497
        },
        {
          "duration": 0.026785687500002098,
          "durationTicks": 9,
          "midi": 62,
          "name": "D4",
          "ticks": 18096,
          "time": 53.857089,
          "velocity": 0.7874015748031497
        },
        {
          "duration": 0.026785687499994992,
          "durationTicks": 9,
          "midi": 63,
          "name": "D#4",
          "ticks": 18108,
          "time": 53.89280325000001,
          "velocity": 0.7874015748031497
        },
        {
          "duration": 0.026785687500002098,
          "durationTicks": 9,
          "midi": 64,
          "name": "E4",
          "ticks": 18120,
          "time": 53.928517500000005,
          "velocity": 0.7874015748031497
        },
        {
          "duration": 0.026785687500002098,
          "durationTicks": 9,
          "midi": 66,
          "name": "F#4",
          "ticks": 18144,
          "time": 53.999946,
          "velocity": 0.7874015748031497
        },
        {
          "duration": 0.026785687500002098,
          "durationTicks": 9,
          "midi": 65,
          "name": "F4",
          "ticks": 18144,
          "time": 53.999946,
          "velocity": 0.7874015748031497
        },
        {
          "duration": 0.026785687499994992,
          "durationTicks": 9,
          "midi": 67,
          "name": "G4",
          "ticks": 18156,
          "time": 54.03566025000001,
          "velocity": 0.7874015748031497
        },
        {
          "duration": 0.026785687500002098,
          "durationTicks": 9,
          "midi": 68,
          "name": "G#4",
          "ticks": 18168,
          "time": 54.071374500000005,
          "velocity": 0.7874015748031497
        },
        {
          "duration": 0.026785687500002098,
          "durationTicks": 9,
          "midi": 69,
          "name": "A4",
          "ticks": 18180,
          "time": 54.10708875,
          "velocity": 0.7874015748031497
        },
        {
          "duration": 0.026785687499994992,
          "durationTicks": 9,
          "midi": 70,
          "name": "A#4",
          "ticks": 18192,
          "time": 54.14280300000001,
          "velocity": 0.7874015748031497
        },
        {
          "duration": 0.026785687500002098,
          "durationTicks": 9,
          "midi": 71,
          "name": "B4",
          "ticks": 18204,
          "time": 54.178517250000006,
          "velocity": 0.7874015748031497
        },
        {
          "duration": 0.026785687500002098,
          "durationTicks": 9,
          "midi": 72,
          "name": "C5",
          "ticks": 18216,
          "time": 54.214231500000004,
          "velocity": 0.7874015748031497
        },
        {
          "duration": 0.026785687499994992,
          "durationTicks": 9,
          "midi": 72,
          "name": "C5",
          "ticks": 18240,
          "time": 54.28566000000001,
          "velocity": 0.7874015748031497
        },
        {
          "duration": 0.026785687499994992,
          "durationTicks": 9,
          "midi": 73,
          "name": "C#5",
          "ticks": 18240,
          "time": 54.28566000000001,
          "velocity": 0.7874015748031497
        },
        {
          "duration": 0.026785687500002098,
          "durationTicks": 9,
          "midi": 74,
          "name": "D5",
          "ticks": 18252,
          "time": 54.321374250000005,
          "velocity": 0.7874015748031497
        },
        {
          "duration": 0.026785687500002098,
          "durationTicks": 9,
          "midi": 75,
          "name": "D#5",
          "ticks": 18264,
          "time": 54.3570885,
          "velocity": 0.7874015748031497
        },
        {
          "duration": 0.026785687500002098,
          "durationTicks": 9,
          "midi": 76,
          "name": "E5",
          "ticks": 18276,
          "time": 54.39280275,
          "velocity": 0.7874015748031497
        },
        {
          "duration": 0.026785687499994992,
          "durationTicks": 9,
          "midi": 77,
          "name": "F5",
          "ticks": 18288,
          "time": 54.42851700000001,
          "velocity": 0.7874015748031497
        },
        {
          "duration": 0.026785687500002098,
          "durationTicks": 9,
          "midi": 78,
          "name": "F#5",
          "ticks": 18300,
          "time": 54.464231250000005,
          "velocity": 0.7874015748031497
        },
        {
          "duration": 0.026785687500002098,
          "durationTicks": 9,
          "midi": 79,
          "name": "G5",
          "ticks": 18312,
          "time": 54.4999455,
          "velocity": 0.7874015748031497
        },
        {
          "duration": 0.026785687500002098,
          "durationTicks": 9,
          "midi": 77,
          "name": "F5",
          "ticks": 18336,
          "time": 54.571374000000006,
          "velocity": 0.7874015748031497
        },
        {
          "duration": 0.026785687500002098,
          "durationTicks": 9,
          "midi": 78,
          "name": "F#5",
          "ticks": 18348,
          "time": 54.607088250000004,
          "velocity": 0.7874015748031497
        },
        {
          "duration": 0.026785687500002098,
          "durationTicks": 9,
          "midi": 79,
          "name": "G5",
          "ticks": 18360,
          "time": 54.6428025,
          "velocity": 0.7874015748031497
        },
        {
          "duration": 0.026785687499994992,
          "durationTicks": 9,
          "midi": 80,
          "name": "G#5",
          "ticks": 18372,
          "time": 54.67851675000001,
          "velocity": 0.7874015748031497
        },
        {
          "duration": 0.026785687500002098,
          "durationTicks": 9,
          "midi": 81,
          "name": "A5",
          "ticks": 18384,
          "time": 54.714231000000005,
          "velocity": 0.7874015748031497
        },
        {
          "duration": 0.026785687500002098,
          "durationTicks": 9,
          "midi": 82,
          "name": "A#5",
          "ticks": 18396,
          "time": 54.74994525,
          "velocity": 0.7874015748031497
        },
        {
          "duration": 0.026785687500002098,
          "durationTicks": 9,
          "midi": 83,
          "name": "B5",
          "ticks": 18408,
          "time": 54.7856595,
          "velocity": 0.7874015748031497
        },
        {
          "duration": 0.06249993750000016,
          "durationTicks": 21,
          "midi": 79,
          "name": "G5",
          "ticks": 18432,
          "time": 54.857088000000005,
          "velocity": 0.7559055118110236
        },
        {
          "duration": 0.06249993750000016,
          "durationTicks": 21,
          "midi": 80,
          "name": "G#5",
          "ticks": 18438,
          "time": 54.874945125,
          "velocity": 0.7559055118110236
        },
        {
          "duration": 0.026785687500002098,
          "durationTicks": 9,
          "midi": 67,
          "name": "G4",
          "ticks": 18480,
          "time": 54.999945000000004,
          "velocity": 0.7559055118110236
        },
        {
          "duration": 0.026785687499994992,
          "durationTicks": 9,
          "midi": 67,
          "name": "G4",
          "ticks": 18504,
          "time": 55.07137350000001,
          "velocity": 0.7559055118110236
        },
        {
          "duration": 0.026785687500002098,
          "durationTicks": 9,
          "midi": 67,
          "name": "G4",
          "ticks": 18528,
          "time": 55.142802,
          "velocity": 0.7559055118110236
        },
        {
          "duration": 0.026785687499994992,
          "durationTicks": 9,
          "midi": 67,
          "name": "G4",
          "ticks": 18552,
          "time": 55.214230500000006,
          "velocity": 0.7559055118110236
        },
        {
          "duration": 0.026785687500002098,
          "durationTicks": 9,
          "midi": 67,
          "name": "G4",
          "ticks": 18576,
          "time": 55.285659,
          "velocity": 0.7559055118110236
        },
        {
          "duration": 0.026785687500002098,
          "durationTicks": 9,
          "midi": 67,
          "name": "G4",
          "ticks": 18600,
          "time": 55.357087500000006,
          "velocity": 0.7559055118110236
        },
        {
          "duration": 0.026785687500002098,
          "durationTicks": 9,
          "midi": 85,
          "name": "C#6",
          "ticks": 18632,
          "time": 55.45232550000001,
          "velocity": 0.7401574803149606
        },
        {
          "duration": 0.026785687500002098,
          "durationTicks": 9,
          "midi": 84,
          "name": "C6",
          "ticks": 18640,
          "time": 55.476135,
          "velocity": 0.7401574803149606
        },
        {
          "duration": 0.026785687500002098,
          "durationTicks": 9,
          "midi": 83,
          "name": "B5",
          "ticks": 18648,
          "time": 55.499944500000005,
          "velocity": 0.7322834645669292
        },
        {
          "duration": 0.026785687500002098,
          "durationTicks": 9,
          "midi": 82,
          "name": "A#5",
          "ticks": 18656,
          "time": 55.523754000000004,
          "velocity": 0.7322834645669292
        },
        {
          "duration": 0.026785687500002098,
          "durationTicks": 9,
          "midi": 81,
          "name": "A5",
          "ticks": 18664,
          "time": 55.5475635,
          "velocity": 0.7244094488188977
        },
        {
          "duration": 0.026785687500002098,
          "durationTicks": 9,
          "midi": 80,
          "name": "G#5",
          "ticks": 18672,
          "time": 55.571373,
          "velocity": 0.7244094488188977
        },
        {
          "duration": 0.026785687500002098,
          "durationTicks": 9,
          "midi": 79,
          "name": "G5",
          "ticks": 18680,
          "time": 55.59518250000001,
          "velocity": 0.7165354330708661
        },
        {
          "duration": 0.026785687500002098,
          "durationTicks": 9,
          "midi": 78,
          "name": "F#5",
          "ticks": 18688,
          "time": 55.618992,
          "velocity": 0.7165354330708661
        },
        {
          "duration": 0.029761874999998383,
          "durationTicks": 10,
          "midi": 77,
          "name": "F5",
          "ticks": 18695,
          "time": 55.63982531250001,
          "velocity": 0.7165354330708661
        },
        {
          "duration": 0.02976187500000549,
          "durationTicks": 10,
          "midi": 76,
          "name": "E5",
          "ticks": 18703,
          "time": 55.6636348125,
          "velocity": 0.7086614173228346
        },
        {
          "duration": 0.029761874999998383,
          "durationTicks": 10,
          "midi": 75,
          "name": "D#5",
          "ticks": 18711,
          "time": 55.687444312500006,
          "velocity": 0.7086614173228346
        },
        {
          "duration": 0.029761874999998383,
          "durationTicks": 10,
          "midi": 74,
          "name": "D5",
          "ticks": 18719,
          "time": 55.711253812500004,
          "velocity": 0.7007874015748031
        },
        {
          "duration": 0.02976187500000549,
          "durationTicks": 10,
          "midi": 73,
          "name": "C#5",
          "ticks": 18727,
          "time": 55.7350633125,
          "velocity": 0.7007874015748031
        },
        {
          "duration": 0.029761874999998383,
          "durationTicks": 10,
          "midi": 72,
          "name": "C5",
          "ticks": 18735,
          "time": 55.7588728125,
          "velocity": 0.6929133858267716
        },
        {
          "duration": 0.026785687500002098,
          "durationTicks": 9,
          "midi": 71,
          "name": "B4",
          "ticks": 18743,
          "time": 55.78268231250001,
          "velocity": 0.6929133858267716
        },
        {
          "duration": 0.026785687500002098,
          "durationTicks": 9,
          "midi": 70,
          "name": "A#4",
          "ticks": 18751,
          "time": 55.8064918125,
          "velocity": 0.6850393700787402
        },
        {
          "duration": 0.026785687500002098,
          "durationTicks": 9,
          "midi": 69,
          "name": "A4",
          "ticks": 18759,
          "time": 55.830301312500005,
          "velocity": 0.6850393700787402
        },
        {
          "duration": 0.026785687499994992,
          "durationTicks": 9,
          "midi": 68,
          "name": "G#4",
          "ticks": 18767,
          "time": 55.85411081250001,
          "velocity": 0.6850393700787402
        },
        {
          "duration": 0.026785687500002098,
          "durationTicks": 9,
          "midi": 67,
          "name": "G4",
          "ticks": 18775,
          "time": 55.8779203125,
          "velocity": 0.6771653543307087
        },
        {
          "duration": 0.026785687500002098,
          "durationTicks": 9,
          "midi": 66,
          "name": "F#4",
          "ticks": 18783,
          "time": 55.9017298125,
          "velocity": 0.6771653543307087
        },
        {
          "duration": 0.026785687500002098,
          "durationTicks": 9,
          "midi": 65,
          "name": "F4",
          "ticks": 18791,
          "time": 55.92553931250001,
          "velocity": 0.6771653543307087
        },
        {
          "duration": 0.026785687500002098,
          "durationTicks": 9,
          "midi": 64,
          "name": "E4",
          "ticks": 18799,
          "time": 55.9493488125,
          "velocity": 0.6771653543307087
        },
        {
          "duration": 0.026785687500002098,
          "durationTicks": 9,
          "midi": 63,
          "name": "D#4",
          "ticks": 18807,
          "time": 55.973158312500004,
          "velocity": 0.6692913385826772
        },
        {
          "duration": 0.026785687499994992,
          "durationTicks": 9,
          "midi": 58,
          "name": "A#3",
          "ticks": 39552,
          "time": 117.71416800000002,
          "velocity": 0.6299212598425197
        },
        {
          "duration": 0.026785687499994992,
          "durationTicks": 9,
          "midi": 59,
          "name": "B3",
          "ticks": 39564,
          "time": 117.74988225000001,
          "velocity": 0.6299212598425197
        },
        {
          "duration": 0.026785687499994992,
          "durationTicks": 9,
          "midi": 60,
          "name": "C4",
          "ticks": 39576,
          "time": 117.78559650000001,
          "velocity": 0.6299212598425197
        },
        {
          "duration": 0.026785687499994992,
          "durationTicks": 9,
          "midi": 61,
          "name": "C#4",
          "ticks": 39588,
          "time": 117.82131075000001,
          "velocity": 0.6299212598425197
        },
        {
          "duration": 0.026785687500009203,
          "durationTicks": 9,
          "midi": 62,
          "name": "D4",
          "ticks": 39600,
          "time": 117.85702500000001,
          "velocity": 0.6299212598425197
        },
        {
          "duration": 0.026785687500009203,
          "durationTicks": 9,
          "midi": 63,
          "name": "D#4",
          "ticks": 39612,
          "time": 117.89273925,
          "velocity": 0.6299212598425197
        },
        {
          "duration": 0.026785687500009203,
          "durationTicks": 9,
          "midi": 64,
          "name": "E4",
          "ticks": 39624,
          "time": 117.9284535,
          "velocity": 0.6299212598425197
        },
        {
          "duration": 0.026785687499994992,
          "durationTicks": 9,
          "midi": 66,
          "name": "F#4",
          "ticks": 39648,
          "time": 117.99988200000001,
          "velocity": 0.6299212598425197
        },
        {
          "duration": 0.026785687499994992,
          "durationTicks": 9,
          "midi": 65,
          "name": "F4",
          "ticks": 39648,
          "time": 117.99988200000001,
          "velocity": 0.6299212598425197
        },
        {
          "duration": 0.026785687499994992,
          "durationTicks": 9,
          "midi": 67,
          "name": "G4",
          "ticks": 39660,
          "time": 118.03559625000001,
          "velocity": 0.6299212598425197
        },
        {
          "duration": 0.026785687499994992,
          "durationTicks": 9,
          "midi": 68,
          "name": "G#4",
          "ticks": 39672,
          "time": 118.07131050000001,
          "velocity": 0.6299212598425197
        },
        {
          "duration": 0.026785687499994992,
          "durationTicks": 9,
          "midi": 69,
          "name": "A4",
          "ticks": 39684,
          "time": 118.10702475000001,
          "velocity": 0.6299212598425197
        },
        {
          "duration": 0.026785687500009203,
          "durationTicks": 9,
          "midi": 70,
          "name": "A#4",
          "ticks": 39696,
          "time": 118.142739,
          "velocity": 0.6299212598425197
        },
        {
          "duration": 0.026785687500009203,
          "durationTicks": 9,
          "midi": 71,
          "name": "B4",
          "ticks": 39708,
          "time": 118.17845325,
          "velocity": 0.6299212598425197
        },
        {
          "duration": 0.026785687499994992,
          "durationTicks": 9,
          "midi": 72,
          "name": "C5",
          "ticks": 39720,
          "time": 118.21416750000002,
          "velocity": 0.6299212598425197
        },
        {
          "duration": 0.026785687499994992,
          "durationTicks": 9,
          "midi": 73,
          "name": "C#5",
          "ticks": 39744,
          "time": 118.28559600000001,
          "velocity": 0.6299212598425197
        },
        {
          "duration": 0.026785687499994992,
          "durationTicks": 9,
          "midi": 72,
          "name": "C5",
          "ticks": 39744,
          "time": 118.28559600000001,
          "velocity": 0.6299212598425197
        },
        {
          "duration": 0.026785687499994992,
          "durationTicks": 9,
          "midi": 74,
          "name": "D5",
          "ticks": 39756,
          "time": 118.32131025000001,
          "velocity": 0.6299212598425197
        },
        {
          "duration": 0.026785687499994992,
          "durationTicks": 9,
          "midi": 75,
          "name": "D#5",
          "ticks": 39768,
          "time": 118.35702450000001,
          "velocity": 0.6299212598425197
        },
        {
          "duration": 0.026785687500009203,
          "durationTicks": 9,
          "midi": 76,
          "name": "E5",
          "ticks": 39780,
          "time": 118.39273875,
          "velocity": 0.6299212598425197
        },
        {
          "duration": 0.026785687500009203,
          "durationTicks": 9,
          "midi": 77,
          "name": "F5",
          "ticks": 39792,
          "time": 118.428453,
          "velocity": 0.6299212598425197
        },
        {
          "duration": 0.026785687500009203,
          "durationTicks": 9,
          "midi": 78,
          "name": "F#5",
          "ticks": 39804,
          "time": 118.46416725,
          "velocity": 0.6299212598425197
        },
        {
          "duration": 0.026785687499994992,
          "durationTicks": 9,
          "midi": 79,
          "name": "G5",
          "ticks": 39816,
          "time": 118.49988150000001,
          "velocity": 0.6299212598425197
        },
        {
          "duration": 0.026785687499994992,
          "durationTicks": 9,
          "midi": 77,
          "name": "F5",
          "ticks": 39840,
          "time": 118.57131000000001,
          "velocity": 0.6299212598425197
        },
        {
          "duration": 0.026785687499994992,
          "durationTicks": 9,
          "midi": 78,
          "name": "F#5",
          "ticks": 39852,
          "time": 118.60702425000001,
          "velocity": 0.6299212598425197
        },
        {
          "duration": 0.026785687500009203,
          "durationTicks": 9,
          "midi": 79,
          "name": "G5",
          "ticks": 39864,
          "time": 118.64273850000001,
          "velocity": 0.6299212598425197
        },
        {
          "duration": 0.026785687500009203,
          "durationTicks": 9,
          "midi": 80,
          "name": "G#5",
          "ticks": 39876,
          "time": 118.67845275,
          "velocity": 0.6299212598425197
        },
        {
          "duration": 0.026785687500009203,
          "durationTicks": 9,
          "midi": 81,
          "name": "A5",
          "ticks": 39888,
          "time": 118.714167,
          "velocity": 0.6299212598425197
        },
        {
          "duration": 0.026785687499994992,
          "durationTicks": 9,
          "midi": 82,
          "name": "A#5",
          "ticks": 39900,
          "time": 118.74988125000002,
          "velocity": 0.6299212598425197
        },
        {
          "duration": 0.026785687499994992,
          "durationTicks": 9,
          "midi": 83,
          "name": "B5",
          "ticks": 39912,
          "time": 118.78559550000001,
          "velocity": 0.6299212598425197
        },
        {
          "duration": 0.026785687499994992,
          "durationTicks": 9,
          "midi": 57,
          "name": "A3",
          "ticks": 42624,
          "time": 126.85701600000002,
          "velocity": 0.6299212598425197
        },
        {
          "duration": 0.026785687499994992,
          "durationTicks": 9,
          "midi": 58,
          "name": "A#3",
          "ticks": 42636,
          "time": 126.89273025000001,
          "velocity": 0.6299212598425197
        },
        {
          "duration": 0.026785687499994992,
          "durationTicks": 9,
          "midi": 59,
          "name": "B3",
          "ticks": 42648,
          "time": 126.92844450000001,
          "velocity": 0.6299212598425197
        },
        {
          "duration": 0.026785687499994992,
          "durationTicks": 9,
          "midi": 60,
          "name": "C4",
          "ticks": 42660,
          "time": 126.96415875000001,
          "velocity": 0.6299212598425197
        },
        {
          "duration": 0.026785687500009203,
          "durationTicks": 9,
          "midi": 61,
          "name": "C#4",
          "ticks": 42672,
          "time": 126.99987300000001,
          "velocity": 0.6299212598425197
        },
        {
          "duration": 0.026785687500009203,
          "durationTicks": 9,
          "midi": 62,
          "name": "D4",
          "ticks": 42684,
          "time": 127.03558725,
          "velocity": 0.6299212598425197
        },
        {
          "duration": 0.026785687500009203,
          "durationTicks": 9,
          "midi": 63,
          "name": "D#4",
          "ticks": 42696,
          "time": 127.0713015,
          "velocity": 0.6299212598425197
        },
        {
          "duration": 0.026785687499994992,
          "durationTicks": 9,
          "midi": 65,
          "name": "F4",
          "ticks": 42720,
          "time": 127.14273000000001,
          "velocity": 0.6299212598425197
        },
        {
          "duration": 0.026785687499994992,
          "durationTicks": 9,
          "midi": 64,
          "name": "E4",
          "ticks": 42720,
          "time": 127.14273000000001,
          "velocity": 0.6299212598425197
        },
        {
          "duration": 0.026785687499994992,
          "durationTicks": 9,
          "midi": 66,
          "name": "F#4",
          "ticks": 42732,
          "time": 127.17844425000001,
          "velocity": 0.6299212598425197
        },
        {
          "duration": 0.026785687499994992,
          "durationTicks": 9,
          "midi": 67,
          "name": "G4",
          "ticks": 42744,
          "time": 127.21415850000001,
          "velocity": 0.6299212598425197
        },
        {
          "duration": 0.026785687499994992,
          "durationTicks": 9,
          "midi": 68,
          "name": "G#4",
          "ticks": 42756,
          "time": 127.24987275000001,
          "velocity": 0.6299212598425197
        },
        {
          "duration": 0.026785687500009203,
          "durationTicks": 9,
          "midi": 69,
          "name": "A4",
          "ticks": 42768,
          "time": 127.285587,
          "velocity": 0.6299212598425197
        },
        {
          "duration": 0.026785687500009203,
          "durationTicks": 9,
          "midi": 70,
          "name": "A#4",
          "ticks": 42780,
          "time": 127.32130125,
          "velocity": 0.6299212598425197
        },
        {
          "duration": 0.026785687499994992,
          "durationTicks": 9,
          "midi": 71,
          "name": "B4",
          "ticks": 42792,
          "time": 127.35701550000002,
          "velocity": 0.6299212598425197
        },
        {
          "duration": 0.026785687499994992,
          "durationTicks": 9,
          "midi": 72,
          "name": "C5",
          "ticks": 42816,
          "time": 127.42844400000001,
          "velocity": 0.6299212598425197
        },
        {
          "duration": 0.026785687499994992,
          "durationTicks": 9,
          "midi": 71,
          "name": "B4",
          "ticks": 42816,
          "time": 127.42844400000001,
          "velocity": 0.6299212598425197
        },
        {
          "duration": 0.026785687499994992,
          "durationTicks": 9,
          "midi": 73,
          "name": "C#5",
          "ticks": 42828,
          "time": 127.46415825000001,
          "velocity": 0.6299212598425197
        },
        {
          "duration": 0.026785687499994992,
          "durationTicks": 9,
          "midi": 74,
          "name": "D5",
          "ticks": 42840,
          "time": 127.49987250000001,
          "velocity": 0.6299212598425197
        },
        {
          "duration": 0.026785687500009203,
          "durationTicks": 9,
          "midi": 75,
          "name": "D#5",
          "ticks": 42852,
          "time": 127.53558675000001,
          "velocity": 0.6299212598425197
        },
        {
          "duration": 0.026785687500009203,
          "durationTicks": 9,
          "midi": 76,
          "name": "E5",
          "ticks": 42864,
          "time": 127.571301,
          "velocity": 0.6299212598425197
        },
        {
          "duration": 0.026785687500009203,
          "durationTicks": 9,
          "midi": 77,
          "name": "F5",
          "ticks": 42876,
          "time": 127.60701525,
          "velocity": 0.6299212598425197
        },
        {
          "duration": 0.026785687499994992,
          "durationTicks": 9,
          "midi": 78,
          "name": "F#5",
          "ticks": 42888,
          "time": 127.64272950000002,
          "velocity": 0.6299212598425197
        },
        {
          "duration": 0.026785687499994992,
          "durationTicks": 9,
          "midi": 76,
          "name": "E5",
          "ticks": 42912,
          "time": 127.71415800000001,
          "velocity": 0.6299212598425197
        },
        {
          "duration": 0.026785687499994992,
          "durationTicks": 9,
          "midi": 77,
          "name": "F5",
          "ticks": 42924,
          "time": 127.74987225000001,
          "velocity": 0.6299212598425197
        },
        {
          "duration": 0.026785687500009203,
          "durationTicks": 9,
          "midi": 78,
          "name": "F#5",
          "ticks": 42936,
          "time": 127.78558650000001,
          "velocity": 0.6299212598425197
        },
        {
          "duration": 0.026785687500009203,
          "durationTicks": 9,
          "midi": 79,
          "name": "G5",
          "ticks": 42948,
          "time": 127.82130075,
          "velocity": 0.6299212598425197
        },
        {
          "duration": 0.026785687500009203,
          "durationTicks": 9,
          "midi": 80,
          "name": "G#5",
          "ticks": 42960,
          "time": 127.857015,
          "velocity": 0.6299212598425197
        },
        {
          "duration": 0.026785687499994992,
          "durationTicks": 9,
          "midi": 81,
          "name": "A5",
          "ticks": 42972,
          "time": 127.89272925000002,
          "velocity": 0.6299212598425197
        },
        {
          "duration": 0.026785687499994992,
          "durationTicks": 9,
          "midi": 82,
          "name": "A#5",
          "ticks": 42984,
          "time": 127.92844350000001,
          "velocity": 0.6299212598425197
        }
      ],
      "endOfTrackTicks": 47692
    },
    {
      "channel": 13,
      "controlChanges": {
        "6": [
          {
            "number": 6,
            "ticks": 0,
            "time": 0,
            "value": 0.09448818897637795
          },
          {
            "number": 6,
            "ticks": 0,
            "time": 0,
            "value": 0.09448818897637795
          },
          {
            "number": 6,
            "ticks": 0,
            "time": 0,
            "value": 0.09448818897637795
          },
          {
            "number": 6,
            "ticks": 47690,
            "time": 141.934381875,
            "value": 0.09448818897637795
          },
          {
            "number": 6,
            "ticks": 47692,
            "time": 141.94033425,
            "value": 0.09448818897637795
          }
        ],
        "7": [
          {
            "number": 7,
            "ticks": 0,
            "time": 0,
            "value": 0.7874015748031497
          },
          {
            "number": 7,
            "ticks": 0,
            "time": 0,
            "value": 0.7874015748031497
          },
          {
            "number": 7,
            "ticks": 0,
            "time": 0,
            "value": 0.7874015748031497
          },
          {
            "number": 7,
            "ticks": 0,
            "time": 0,
            "value": 0.7874015748031497
          },
          {
            "number": 7,
            "ticks": 47690,
            "time": 141.934381875,
            "value": 0.7874015748031497
          },
          {
            "number": 7,
            "ticks": 47692,
            "time": 141.94033425,
            "value": 0.7874015748031497
          }
        ],
        "10": [
          {
            "number": 10,
            "ticks": 0,
            "time": 0,
            "value": 0.5039370078740157
          },
          {
            "number": 10,
            "ticks": 0,
            "time": 0,
            "value": 0.5039370078740157
          },
          {
            "number": 10,
            "ticks": 0,
            "time": 0,
            "value": 0.5039370078740157
          },
          {
            "number": 10,
            "ticks": 0,
            "time": 0,
            "value": 0.5039370078740157
          },
          {
            "number": 10,
            "ticks": 47690,
            "time": 141.934381875,
            "value": 0.5039370078740157
          },
          {
            "number": 10,
            "ticks": 47692,
            "time": 141.94033425,
            "value": 0.5039370078740157
          }
        ],
        "100": [
          {
            "number": 100,
            "ticks": 0,
            "time": 0,
            "value": 0
          },
          {
            "number": 100,
            "ticks": 0,
            "time": 0,
            "value": 0
          },
          {
            "number": 100,
            "ticks": 0,
            "time": 0,
            "value": 0
          },
          {
            "number": 100,
            "ticks": 47690,
            "time": 141.934381875,
            "value": 0
          },
          {
            "number": 100,
            "ticks": 47692,
            "time": 141.94033425,
            "value": 0
          }
        ],
        "101": [
          {
            "number": 101,
            "ticks": 0,
            "time": 0,
            "value": 0
          },
          {
            "number": 101,
            "ticks": 0,
            "time": 0,
            "value": 0
          },
          {
            "number": 101,
            "ticks": 0,
            "time": 0,
            "value": 0
          },
          {
            "number": 101,
            "ticks": 47690,
            "time": 141.934381875,
            "value": 0
          },
          {
            "number": 101,
            "ticks": 47692,
            "time": 141.94033425,
            "value": 0
          }
        ]
      },
      "pitchBends": [
        {
          "ticks": 0,
          "time": 0,
          "value": 0
        },
        {
          "ticks": 0,
          "time": 0,
          "value": 0
        },
        {
          "ticks": 0,
          "time": 0,
          "value": 0
        },
        {
          "ticks": 0,
          "time": 0,
          "value": 0
        },
        {
          "ticks": 47690,
          "time": 141.934381875,
          "value": 0
        },
        {
          "ticks": 47692,
          "time": 141.94033425,
          "value": 0
        }
      ],
      "instrument": {
        "family": "piano",
        "number": 0,
        "name": "acoustic grand piano"
      },
      "name": "Drum",
      "notes": [
        {
          "duration": 1.142856,
          "durationTicks": 384,
          "midi": 24,
          "name": "C1",
          "ticks": 3456,
          "time": 10.285704,
          "velocity": 0.7480314960629921
        },
        {
          "duration": 1.142856,
          "durationTicks": 384,
          "midi": 25,
          "name": "C#1",
          "ticks": 3840,
          "time": 11.428560000000001,
          "velocity": 0.7480314960629921
        },
        {
          "duration": 2.285712,
          "durationTicks": 768,
          "midi": 26,
          "name": "D1",
          "ticks": 4224,
          "time": 12.571416000000001,
          "velocity": 0.7480314960629921
        },
        {
          "duration": 2.2857119999999984,
          "durationTicks": 768,
          "midi": 26,
          "name": "D1",
          "ticks": 4992,
          "time": 14.857128000000001,
          "velocity": 0.7480314960629921
        },
        {
          "duration": 0.28571400000000224,
          "durationTicks": 96,
          "midi": 26,
          "name": "D1",
          "ticks": 5760,
          "time": 17.14284,
          "velocity": 0.7480314960629921
        },
        {
          "duration": 1.6904745000000005,
          "durationTicks": 568,
          "midi": 31,
          "name": "G1",
          "ticks": 6528,
          "time": 19.428552000000003,
          "velocity": 0.7874015748031497
        },
        {
          "duration": 0.5238089999999964,
          "durationTicks": 176,
          "midi": 31,
          "name": "G1",
          "ticks": 7104,
          "time": 21.142836000000003,
          "velocity": 0.7874015748031497
        },
        {
          "duration": 1.690474500000004,
          "durationTicks": 568,
          "midi": 31,
          "name": "G1",
          "ticks": 7296,
          "time": 21.714264,
          "velocity": 0.7874015748031497
        },
        {
          "duration": 0.09523799999999838,
          "durationTicks": 32,
          "midi": 31,
          "name": "G1",
          "ticks": 7872,
          "time": 23.428548000000003,
          "velocity": 0.7874015748031497
        },
        {
          "duration": 0.09523799999999838,
          "durationTicks": 32,
          "midi": 31,
          "name": "G1",
          "ticks": 7920,
          "time": 23.571405000000002,
          "velocity": 0.7874015748031497
        },
        {
          "duration": 0.26190450000000354,
          "durationTicks": 88,
          "midi": 31,
          "name": "G1",
          "ticks": 7968,
          "time": 23.714262,
          "velocity": 0.7874015748031497
        },
        {
          "duration": 1.6904745000000005,
          "durationTicks": 568,
          "midi": 31,
          "name": "G1",
          "ticks": 8064,
          "time": 23.999976000000004,
          "velocity": 0.7874015748031497
        },
        {
          "duration": 0.2619045,
          "durationTicks": 88,
          "midi": 31,
          "name": "G1",
          "ticks": 8640,
          "time": 25.714260000000003,
          "velocity": 0.7874015748031497
        },
        {
          "duration": 0.26190450000000354,
          "durationTicks": 88,
          "midi": 31,
          "name": "G1",
          "ticks": 8736,
          "time": 25.999974,
          "velocity": 0.7874015748031497
        },
        {
          "duration": 1.690474500000004,
          "durationTicks": 568,
          "midi": 31,
          "name": "G1",
          "ticks": 8832,
          "time": 26.285688,
          "velocity": 0.7874015748031497
        },
        {
          "duration": 0.09523799999999838,
          "durationTicks": 32,
          "midi": 31,
          "name": "G1",
          "ticks": 9408,
          "time": 27.999972000000003,
          "velocity": 0.7874015748031497
        },
        {
          "duration": 0.09523799999999838,
          "durationTicks": 32,
          "midi": 31,
          "name": "G1",
          "ticks": 9456,
          "time": 28.142829000000003,
          "velocity": 0.7874015748031497
        },
        {
          "duration": 0.26190450000000354,
          "durationTicks": 88,
          "midi": 31,
          "name": "G1",
          "ticks": 9504,
          "time": 28.285686000000002,
          "velocity": 0.7874015748031497
        },
        {
          "duration": 0.40476149999999933,
          "durationTicks": 136,
          "midi": 31,
          "name": "G1",
          "ticks": 9600,
          "time": 28.571400000000004,
          "velocity": 0.7874015748031497
        },
        {
          "duration": 0.4047615000000029,
          "durationTicks": 136,
          "midi": 31,
          "name": "G1",
          "ticks": 9744,
          "time": 28.999971000000002,
          "velocity": 0.7874015748031497
        },
        {
          "duration": 0.40476149999999933,
          "durationTicks": 136,
          "midi": 31,
          "name": "G1",
          "ticks": 9888,
          "time": 29.428542000000004,
          "velocity": 0.7874015748031497
        },
        {
          "duration": 0.4047615000000029,
          "durationTicks": 136,
          "midi": 31,
          "name": "G1",
          "ticks": 10032,
          "time": 29.857113000000002,
          "velocity": 0.7874015748031497
        },
        {
          "duration": 0.2619045,
          "durationTicks": 88,
          "midi": 31,
          "name": "G1",
          "ticks": 10176,
          "time": 30.285684000000003,
          "velocity": 0.7874015748031497
        },
        {
          "duration": 0.26190450000000354,
          "durationTicks": 88,
          "midi": 31,
          "name": "G1",
          "ticks": 10272,
          "time": 30.571398000000002,
          "velocity": 0.7874015748031497
        },
        {
          "duration": 0.4047615000000029,
          "durationTicks": 136,
          "midi": 31,
          "name": "G1",
          "ticks": 10368,
          "time": 30.857112,
          "velocity": 0.7874015748031497
        },
        {
          "duration": 0.4047615000000029,
          "durationTicks": 136,
          "midi": 31,
          "name": "G1",
          "ticks": 10512,
          "time": 31.285683000000002,
          "velocity": 0.7874015748031497
        },
        {
          "duration": 0.40476149999999933,
          "durationTicks": 136,
          "midi": 31,
          "name": "G1",
          "ticks": 10656,
          "time": 31.714254000000004,
          "velocity": 0.7874015748031497
        },
        {
          "duration": 0.40476149999999933,
          "durationTicks": 136,
          "midi": 31,
          "name": "G1",
          "ticks": 10800,
          "time": 32.142825,
          "velocity": 0.7874015748031497
        },
        {
          "duration": 0.2619045000000071,
          "durationTicks": 88,
          "midi": 31,
          "name": "G1",
          "ticks": 10944,
          "time": 32.571396,
          "velocity": 0.7874015748031497
        },
        {
          "duration": 0.2619045,
          "durationTicks": 88,
          "midi": 31,
          "name": "G1",
          "ticks": 11040,
          "time": 32.857110000000006,
          "velocity": 0.7874015748031497
        },
        {
          "duration": 0.40476149999999933,
          "durationTicks": 136,
          "midi": 31,
          "name": "G1",
          "ticks": 11136,
          "time": 33.142824000000005,
          "velocity": 0.7874015748031497
        },
        {
          "duration": 0.40476149999999933,
          "durationTicks": 136,
          "midi": 31,
          "name": "G1",
          "ticks": 11280,
          "time": 33.571395,
          "velocity": 0.7874015748031497
        },
        {
          "duration": 0.40476150000000644,
          "durationTicks": 136,
          "midi": 31,
          "name": "G1",
          "ticks": 11424,
          "time": 33.999966,
          "velocity": 0.7874015748031497
        },
        {
          "duration": 0.40476149999999933,
          "durationTicks": 136,
          "midi": 31,
          "name": "G1",
          "ticks": 11568,
          "time": 34.428537000000006,
          "velocity": 0.7874015748031497
        },
        {
          "duration": 0.2619045,
          "durationTicks": 88,
          "midi": 31,
          "name": "G1",
          "ticks": 11712,
          "time": 34.857108000000004,
          "velocity": 0.7874015748031497
        },
        {
          "duration": 0.2619045,
          "durationTicks": 88,
          "midi": 31,
          "name": "G1",
          "ticks": 11808,
          "time": 35.142822,
          "velocity": 0.7874015748031497
        },
        {
          "duration": 0.40476150000000644,
          "durationTicks": 136,
          "midi": 31,
          "name": "G1",
          "ticks": 11904,
          "time": 35.428536,
          "velocity": 0.7874015748031497
        },
        {
          "duration": 0.40476149999999933,
          "durationTicks": 136,
          "midi": 31,
          "name": "G1",
          "ticks": 12048,
          "time": 35.857107000000006,
          "velocity": 0.7874015748031497
        },
        {
          "duration": 0.2619045,
          "durationTicks": 88,
          "midi": 31,
          "name": "G1",
          "ticks": 12192,
          "time": 36.285678000000004,
          "velocity": 0.7874015748031497
        },
        {
          "duration": 0.40476149999999933,
          "durationTicks": 136,
          "midi": 30,
          "name": "F#1",
          "ticks": 12288,
          "time": 36.571392,
          "velocity": 0.7874015748031497
        },
        {
          "duration": 0.2619044999999929,
          "durationTicks": 88,
          "midi": 31,
          "name": "G1",
          "ticks": 12672,
          "time": 37.714248000000005,
          "velocity": 0.7795275590551181
        },
        {
          "duration": 0.2619045,
          "durationTicks": 88,
          "midi": 31,
          "name": "G1",
          "ticks": 12768,
          "time": 37.999962000000004,
          "velocity": 0.7795275590551181
        },
        {
          "duration": 0.2619045,
          "durationTicks": 88,
          "midi": 31,
          "name": "G1",
          "ticks": 12864,
          "time": 38.285676,
          "velocity": 0.7795275590551181
        },
        {
          "duration": 0.2619045,
          "durationTicks": 88,
          "midi": 31,
          "name": "G1",
          "ticks": 12960,
          "time": 38.57139,
          "velocity": 0.7795275590551181
        },
        {
          "duration": 0.2619044999999929,
          "durationTicks": 88,
          "midi": 31,
          "name": "G1",
          "ticks": 13056,
          "time": 38.85710400000001,
          "velocity": 0.7795275590551181
        },
        {
          "duration": 0.2619044999999929,
          "durationTicks": 88,
          "midi": 31,
          "name": "G1",
          "ticks": 13152,
          "time": 39.142818000000005,
          "velocity": 0.7795275590551181
        },
        {
          "duration": 0.2619044999999929,
          "durationTicks": 88,
          "midi": 31,
          "name": "G1",
          "ticks": 13248,
          "time": 39.428532000000004,
          "velocity": 0.7795275590551181
        },
        {
          "duration": 0.11904750000000064,
          "durationTicks": 40,
          "midi": 31,
          "name": "G1",
          "ticks": 13344,
          "time": 39.714246,
          "velocity": 0.7795275590551181
        },
        {
          "duration": 0.11904750000000064,
          "durationTicks": 40,
          "midi": 31,
          "name": "G1",
          "ticks": 13392,
          "time": 39.857103,
          "velocity": 0.7795275590551181
        },
        {
          "duration": 0.2619045,
          "durationTicks": 88,
          "midi": 31,
          "name": "G1",
          "ticks": 13440,
          "time": 39.99996,
          "velocity": 0.7795275590551181
        },
        {
          "duration": 0.2619045,
          "durationTicks": 88,
          "midi": 31,
          "name": "G1",
          "ticks": 13536,
          "time": 40.285674,
          "velocity": 0.7795275590551181
        },
        {
          "duration": 0.2619044999999929,
          "durationTicks": 88,
          "midi": 31,
          "name": "G1",
          "ticks": 13632,
          "time": 40.571388000000006,
          "velocity": 0.7795275590551181
        },
        {
          "duration": 0.2619044999999929,
          "durationTicks": 88,
          "midi": 31,
          "name": "G1",
          "ticks": 13728,
          "time": 40.857102000000005,
          "velocity": 0.7795275590551181
        },
        {
          "duration": 0.2619045,
          "durationTicks": 88,
          "midi": 31,
          "name": "G1",
          "ticks": 13824,
          "time": 41.142816,
          "velocity": 0.7795275590551181
        },
        {
          "duration": 0.2619045,
          "durationTicks": 88,
          "midi": 31,
          "name": "G1",
          "ticks": 13920,
          "time": 41.42853,
          "velocity": 0.7795275590551181
        },
        {
          "duration": 0.11904750000000064,
          "durationTicks": 40,
          "midi": 31,
          "name": "G1",
          "ticks": 14016,
          "time": 41.714244,
          "velocity": 0.7795275590551181
        },
        {
          "duration": 0.2619045,
          "durationTicks": 88,
          "midi": 31,
          "name": "G1",
          "ticks": 14064,
          "time": 41.857101,
          "velocity": 0.7795275590551181
        },
        {
          "duration": 0.11904749999999353,
          "durationTicks": 40,
          "midi": 31,
          "name": "G1",
          "ticks": 14160,
          "time": 42.142815000000006,
          "velocity": 0.7795275590551181
        },
        {
          "duration": 0.2619044999999929,
          "durationTicks": 88,
          "midi": 31,
          "name": "G1",
          "ticks": 14208,
          "time": 42.285672000000005,
          "velocity": 0.7795275590551181
        },
        {
          "duration": 0.2619045,
          "durationTicks": 88,
          "midi": 31,
          "name": "G1",
          "ticks": 14304,
          "time": 42.571386000000004,
          "velocity": 0.7795275590551181
        },
        {
          "duration": 0.2619045,
          "durationTicks": 88,
          "midi": 31,
          "name": "G1",
          "ticks": 14400,
          "time": 42.8571,
          "velocity": 0.7795275590551181
        },
        {
          "duration": 0.2619045,
          "durationTicks": 88,
          "midi": 31,
          "name": "G1",
          "ticks": 14496,
          "time": 43.142814,
          "velocity": 0.7795275590551181
        },
        {
          "duration": 0.2619045,
          "durationTicks": 88,
          "midi": 31,
          "name": "G1",
          "ticks": 14592,
          "time": 43.428528,
          "velocity": 0.7795275590551181
        },
        {
          "duration": 0.11904749999999353,
          "durationTicks": 40,
          "midi": 31,
          "name": "G1",
          "ticks": 14688,
          "time": 43.714242000000006,
          "velocity": 0.7795275590551181
        },
        {
          "duration": 0.11904749999999353,
          "durationTicks": 40,
          "midi": 31,
          "name": "G1",
          "ticks": 14736,
          "time": 43.857099000000005,
          "velocity": 0.7795275590551181
        },
        {
          "duration": 0.11904749999999353,
          "durationTicks": 40,
          "midi": 31,
          "name": "G1",
          "ticks": 14784,
          "time": 43.999956000000005,
          "velocity": 0.7795275590551181
        },
        {
          "duration": 0.023809500000005812,
          "durationTicks": 8,
          "midi": 31,
          "name": "G1",
          "ticks": 14832,
          "time": 44.142813000000004,
          "velocity": 0.7795275590551181
        },
        {
          "duration": 0.023809500000005812,
          "durationTicks": 8,
          "midi": 31,
          "name": "G1",
          "ticks": 14848,
          "time": 44.190432,
          "velocity": 0.7795275590551181
        },
        {
          "duration": 0.0238094999999916,
          "durationTicks": 8,
          "midi": 31,
          "name": "G1",
          "ticks": 14864,
          "time": 44.238051000000006,
          "velocity": 0.7795275590551181
        },
        {
          "duration": 0.11904750000000064,
          "durationTicks": 40,
          "midi": 31,
          "name": "G1",
          "ticks": 14880,
          "time": 44.28567,
          "velocity": 0.7795275590551181
        },
        {
          "duration": 0.11904750000000064,
          "durationTicks": 40,
          "midi": 31,
          "name": "G1",
          "ticks": 14928,
          "time": 44.428527,
          "velocity": 0.7795275590551181
        },
        {
          "duration": 0.2619045,
          "durationTicks": 88,
          "midi": 31,
          "name": "G1",
          "ticks": 14976,
          "time": 44.571384,
          "velocity": 0.7795275590551181
        },
        {
          "duration": 0.2619045,
          "durationTicks": 88,
          "midi": 31,
          "name": "G1",
          "ticks": 15072,
          "time": 44.857098,
          "velocity": 0.7795275590551181
        },
        {
          "duration": 0.2619044999999929,
          "durationTicks": 88,
          "midi": 31,
          "name": "G1",
          "ticks": 15168,
          "time": 45.142812000000006,
          "velocity": 0.7795275590551181
        },
        {
          "duration": 0.2619044999999929,
          "durationTicks": 88,
          "midi": 31,
          "name": "G1",
          "ticks": 15264,
          "time": 45.428526000000005,
          "velocity": 0.7795275590551181
        },
        {
          "duration": 0.2619045,
          "durationTicks": 88,
          "midi": 31,
          "name": "G1",
          "ticks": 15360,
          "time": 45.714240000000004,
          "velocity": 0.7795275590551181
        },
        {
          "duration": 0.2619045,
          "durationTicks": 88,
          "midi": 31,
          "name": "G1",
          "ticks": 15456,
          "time": 45.999954,
          "velocity": 0.7795275590551181
        },
        {
          "duration": 0.11904750000000064,
          "durationTicks": 40,
          "midi": 31,
          "name": "G1",
          "ticks": 15552,
          "time": 46.285668,
          "velocity": 0.7795275590551181
        },
        {
          "duration": 0.11904750000000064,
          "durationTicks": 40,
          "midi": 31,
          "name": "G1",
          "ticks": 15600,
          "time": 46.428525,
          "velocity": 0.7795275590551181
        },
        {
          "duration": 0.11904749999999353,
          "durationTicks": 40,
          "midi": 31,
          "name": "G1",
          "ticks": 15648,
          "time": 46.57138200000001,
          "velocity": 0.7795275590551181
        },
        {
          "duration": 0.11904749999999353,
          "durationTicks": 40,
          "midi": 31,
          "name": "G1",
          "ticks": 15696,
          "time": 46.714239000000006,
          "velocity": 0.7795275590551181
        },
        {
          "duration": 0.11904749999999353,
          "durationTicks": 40,
          "midi": 31,
          "name": "G1",
          "ticks": 15792,
          "time": 46.999953000000005,
          "velocity": 0.7874015748031497
        },
        {
          "duration": 0.2619045,
          "durationTicks": 88,
          "midi": 31,
          "name": "G1",
          "ticks": 15840,
          "time": 47.142810000000004,
          "velocity": 0.7874015748031497
        },
        {
          "duration": 0.2619045,
          "durationTicks": 88,
          "midi": 31,
          "name": "G1",
          "ticks": 15936,
          "time": 47.428524,
          "velocity": 0.7874015748031497
        },
        {
          "duration": 0.2619045,
          "durationTicks": 88,
          "midi": 31,
          "name": "G1",
          "ticks": 16032,
          "time": 47.714238,
          "velocity": 0.7874015748031497
        },
        {
          "duration": 0.2619044999999929,
          "durationTicks": 88,
          "midi": 31,
          "name": "G1",
          "ticks": 16128,
          "time": 47.99995200000001,
          "velocity": 0.7874015748031497
        },
        {
          "duration": 0.2619044999999929,
          "durationTicks": 88,
          "midi": 31,
          "name": "G1",
          "ticks": 16224,
          "time": 48.285666000000006,
          "velocity": 0.7874015748031497
        },
        {
          "duration": 0.11904749999999353,
          "durationTicks": 40,
          "midi": 31,
          "name": "G1",
          "ticks": 16320,
          "time": 48.571380000000005,
          "velocity": 0.7874015748031497
        },
        {
          "duration": 0.04761899999999741,
          "durationTicks": 16,
          "midi": 31,
          "name": "G1",
          "ticks": 16368,
          "time": 48.714237000000004,
          "velocity": 0.7874015748031497
        },
        {
          "duration": 0.04761899999999031,
          "durationTicks": 16,
          "midi": 31,
          "name": "G1",
          "ticks": 16392,
          "time": 48.78566550000001,
          "velocity": 0.7874015748031497
        },
        {
          "duration": 0.11904750000000064,
          "durationTicks": 40,
          "midi": 31,
          "name": "G1",
          "ticks": 16416,
          "time": 48.857094000000004,
          "velocity": 0.7874015748031497
        },
        {
          "duration": 0.11904750000000064,
          "durationTicks": 40,
          "midi": 31,
          "name": "G1",
          "ticks": 16464,
          "time": 48.999951,
          "velocity": 0.7874015748031497
        },
        {
          "duration": 0.2619045,
          "durationTicks": 88,
          "midi": 31,
          "name": "G1",
          "ticks": 16512,
          "time": 49.142808,
          "velocity": 0.7874015748031497
        },
        {
          "duration": 0.2619045,
          "durationTicks": 88,
          "midi": 31,
          "name": "G1",
          "ticks": 16608,
          "time": 49.428522,
          "velocity": 0.7874015748031497
        },
        {
          "duration": 0.2619044999999929,
          "durationTicks": 88,
          "midi": 31,
          "name": "G1",
          "ticks": 16704,
          "time": 49.71423600000001,
          "velocity": 0.7874015748031497
        },
        {
          "duration": 0.11904749999999353,
          "durationTicks": 40,
          "midi": 31,
          "name": "G1",
          "ticks": 16752,
          "time": 49.857093000000006,
          "velocity": 0.7874015748031497
        },
        {
          "duration": 0.11904749999999353,
          "durationTicks": 40,
          "midi": 31,
          "name": "G1",
          "ticks": 16800,
          "time": 49.999950000000005,
          "velocity": 0.7874015748031497
        },
        {
          "duration": 0.11904749999999353,
          "durationTicks": 40,
          "midi": 31,
          "name": "G1",
          "ticks": 16848,
          "time": 50.142807000000005,
          "velocity": 0.7874015748031497
        },
        {
          "duration": 0.2619045,
          "durationTicks": 88,
          "midi": 31,
          "name": "G1",
          "ticks": 16896,
          "time": 50.285664000000004,
          "velocity": 0.7874015748031497
        },
        {
          "duration": 0.2619045,
          "durationTicks": 88,
          "midi": 31,
          "name": "G1",
          "ticks": 16992,
          "time": 50.571378,
          "velocity": 0.7874015748031497
        },
        {
          "duration": 0.11904750000000064,
          "durationTicks": 40,
          "midi": 31,
          "name": "G1",
          "ticks": 17088,
          "time": 50.857092,
          "velocity": 0.7874015748031497
        },
        {
          "duration": 0.11904750000000064,
          "durationTicks": 40,
          "midi": 31,
          "name": "G1",
          "ticks": 17136,
          "time": 50.999949,
          "velocity": 0.7874015748031497
        },
        {
          "duration": 0.11904749999999353,
          "durationTicks": 40,
          "midi": 31,
          "name": "G1",
          "ticks": 17184,
          "time": 51.14280600000001,
          "velocity": 0.7874015748031497
        },
        {
          "duration": 0.11904749999999353,
          "durationTicks": 40,
          "midi": 31,
          "name": "G1",
          "ticks": 17232,
          "time": 51.28566300000001,
          "velocity": 0.7874015748031497
        },
        {
          "duration": 0.11904749999999353,
          "durationTicks": 40,
          "midi": 31,
          "name": "G1",
          "ticks": 17328,
          "time": 51.571377000000005,
          "velocity": 0.7874015748031497
        },
        {
          "duration": 0.2619045,
          "durationTicks": 88,
          "midi": 31,
          "name": "G1",
          "ticks": 17376,
          "time": 51.714234000000005,
          "velocity": 0.7874015748031497
        },
        {
          "duration": 0.2619045,
          "durationTicks": 88,
          "midi": 31,
          "name": "G1",
          "ticks": 17472,
          "time": 51.999948,
          "velocity": 0.7874015748031497
        },
        {
          "duration": 0.2619045,
          "durationTicks": 88,
          "midi": 31,
          "name": "G1",
          "ticks": 17568,
          "time": 52.285662,
          "velocity": 0.7874015748031497
        },
        {
          "duration": 0.2619045,
          "durationTicks": 88,
          "midi": 31,
          "name": "G1",
          "ticks": 17664,
          "time": 52.571376,
          "velocity": 0.7874015748031497
        },
        {
          "duration": 0.2619044999999929,
          "durationTicks": 88,
          "midi": 31,
          "name": "G1",
          "ticks": 17760,
          "time": 52.85709000000001,
          "velocity": 0.7874015748031497
        },
        {
          "duration": 0.11904749999999353,
          "durationTicks": 40,
          "midi": 31,
          "name": "G1",
          "ticks": 17856,
          "time": 53.142804000000005,
          "velocity": 0.7874015748031497
        },
        {
          "duration": 0.11904749999999353,
          "durationTicks": 40,
          "midi": 31,
          "name": "G1",
          "ticks": 17904,
          "time": 53.285661000000005,
          "velocity": 0.7874015748031497
        },
        {
          "duration": 0.11904750000000064,
          "durationTicks": 40,
          "midi": 31,
          "name": "G1",
          "ticks": 17952,
          "time": 53.428518000000004,
          "velocity": 0.7874015748031497
        },
        {
          "duration": 0.11904750000000064,
          "durationTicks": 40,
          "midi": 31,
          "name": "G1",
          "ticks": 18000,
          "time": 53.571375,
          "velocity": 0.7874015748031497
        },
        {
          "duration": 0.5476184999999987,
          "durationTicks": 184,
          "midi": 31,
          "name": "G1",
          "ticks": 18048,
          "time": 53.714232,
          "velocity": 0.7874015748031497
        },
        {
          "duration": 0.5476184999999916,
          "durationTicks": 184,
          "midi": 31,
          "name": "G1",
          "ticks": 18240,
          "time": 54.28566000000001,
          "velocity": 0.7874015748031497
        },
        {
          "duration": 0.5476184999999987,
          "durationTicks": 184,
          "midi": 31,
          "name": "G1",
          "ticks": 18432,
          "time": 54.857088000000005,
          "velocity": 0.7874015748031497
        },
        {
          "duration": 0.2619044999999929,
          "durationTicks": 88,
          "midi": 31,
          "name": "G1",
          "ticks": 18816,
          "time": 55.999944000000006,
          "velocity": 0.7952755905511811
        },
        {
          "duration": 0.2619045,
          "durationTicks": 88,
          "midi": 31,
          "name": "G1",
          "ticks": 18912,
          "time": 56.285658000000005,
          "velocity": 0.7952755905511811
        },
        {
          "duration": 0.2619045,
          "durationTicks": 88,
          "midi": 31,
          "name": "G1",
          "ticks": 19008,
          "time": 56.571372000000004,
          "velocity": 0.7952755905511811
        },
        {
          "duration": 0.2619045,
          "durationTicks": 88,
          "midi": 31,
          "name": "G1",
          "ticks": 19104,
          "time": 56.857086,
          "velocity": 0.7952755905511811
        },
        {
          "duration": 0.2619044999999929,
          "durationTicks": 88,
          "midi": 31,
          "name": "G1",
          "ticks": 19200,
          "time": 57.14280000000001,
          "velocity": 0.7952755905511811
        },
        {
          "duration": 0.2619044999999929,
          "durationTicks": 88,
          "midi": 31,
          "name": "G1",
          "ticks": 19296,
          "time": 57.42851400000001,
          "velocity": 0.7952755905511811
        },
        {
          "duration": 0.2619044999999929,
          "durationTicks": 88,
          "midi": 31,
          "name": "G1",
          "ticks": 19392,
          "time": 57.714228000000006,
          "velocity": 0.7952755905511811
        },
        {
          "duration": 0.11904750000000064,
          "durationTicks": 40,
          "midi": 31,
          "name": "G1",
          "ticks": 19488,
          "time": 57.999942000000004,
          "velocity": 0.7952755905511811
        },
        {
          "duration": 0.11904750000000064,
          "durationTicks": 40,
          "midi": 31,
          "name": "G1",
          "ticks": 19536,
          "time": 58.142799000000004,
          "velocity": 0.7952755905511811
        },
        {
          "duration": 0.2619045,
          "durationTicks": 88,
          "midi": 31,
          "name": "G1",
          "ticks": 19584,
          "time": 58.285656,
          "velocity": 0.7952755905511811
        },
        {
          "duration": 0.2619045,
          "durationTicks": 88,
          "midi": 31,
          "name": "G1",
          "ticks": 19680,
          "time": 58.57137,
          "velocity": 0.7952755905511811
        },
        {
          "duration": 0.2619044999999929,
          "durationTicks": 88,
          "midi": 31,
          "name": "G1",
          "ticks": 19776,
          "time": 58.85708400000001,
          "velocity": 0.7952755905511811
        },
        {
          "duration": 0.04761899999999741,
          "durationTicks": 16,
          "midi": 31,
          "name": "G1",
          "ticks": 19872,
          "time": 59.142798000000006,
          "velocity": 0.7952755905511811
        },
        {
          "duration": 0.04761899999999741,
          "durationTicks": 16,
          "midi": 31,
          "name": "G1",
          "ticks": 19896,
          "time": 59.2142265,
          "velocity": 0.7952755905511811
        },
        {
          "duration": 0.04761899999999741,
          "durationTicks": 16,
          "midi": 31,
          "name": "G1",
          "ticks": 19920,
          "time": 59.285655000000006,
          "velocity": 0.7952755905511811
        },
        {
          "duration": 0.04761899999999741,
          "durationTicks": 16,
          "midi": 31,
          "name": "G1",
          "ticks": 19944,
          "time": 59.3570835,
          "velocity": 0.7952755905511811
        },
        {
          "duration": 0.2619045,
          "durationTicks": 88,
          "midi": 31,
          "name": "G1",
          "ticks": 19968,
          "time": 59.428512000000005,
          "velocity": 0.7952755905511811
        },
        {
          "duration": 0.11904750000000064,
          "durationTicks": 40,
          "midi": 31,
          "name": "G1",
          "ticks": 20064,
          "time": 59.714226000000004,
          "velocity": 0.7952755905511811
        },
        {
          "duration": 0.11904750000000064,
          "durationTicks": 40,
          "midi": 31,
          "name": "G1",
          "ticks": 20112,
          "time": 59.857083,
          "velocity": 0.7952755905511811
        },
        {
          "duration": 0.2619045,
          "durationTicks": 88,
          "midi": 31,
          "name": "G1",
          "ticks": 20160,
          "time": 59.99994,
          "velocity": 0.7952755905511811
        },
        {
          "duration": 0.11904749999999353,
          "durationTicks": 40,
          "midi": 31,
          "name": "G1",
          "ticks": 20256,
          "time": 60.28565400000001,
          "velocity": 0.7952755905511811
        },
        {
          "duration": 0.11904749999999353,
          "durationTicks": 40,
          "midi": 31,
          "name": "G1",
          "ticks": 20304,
          "time": 60.42851100000001,
          "velocity": 0.7952755905511811
        },
        {
          "duration": 0.2619044999999929,
          "durationTicks": 88,
          "midi": 31,
          "name": "G1",
          "ticks": 20352,
          "time": 60.57136800000001,
          "velocity": 0.7952755905511811
        },
        {
          "duration": 0.2619045,
          "durationTicks": 88,
          "midi": 31,
          "name": "G1",
          "ticks": 20448,
          "time": 60.857082000000005,
          "velocity": 0.7952755905511811
        },
        {
          "duration": 0.2619045,
          "durationTicks": 88,
          "midi": 31,
          "name": "G1",
          "ticks": 20544,
          "time": 61.142796000000004,
          "velocity": 0.7952755905511811
        },
        {
          "duration": 0.2619045,
          "durationTicks": 88,
          "midi": 31,
          "name": "G1",
          "ticks": 20640,
          "time": 61.42851,
          "velocity": 0.7952755905511811
        },
        {
          "duration": 0.2619045,
          "durationTicks": 88,
          "midi": 31,
          "name": "G1",
          "ticks": 20736,
          "time": 61.714224,
          "velocity": 0.7952755905511811
        },
        {
          "duration": 0.2619044999999929,
          "durationTicks": 88,
          "midi": 31,
          "name": "G1",
          "ticks": 20832,
          "time": 61.99993800000001,
          "velocity": 0.7952755905511811
        },
        {
          "duration": 0.11904749999999353,
          "durationTicks": 40,
          "midi": 31,
          "name": "G1",
          "ticks": 20928,
          "time": 62.285652000000006,
          "velocity": 0.7952755905511811
        },
        {
          "duration": 0.11904749999999353,
          "durationTicks": 40,
          "midi": 31,
          "name": "G1",
          "ticks": 20976,
          "time": 62.428509000000005,
          "velocity": 0.7952755905511811
        },
        {
          "duration": 0.11904750000000064,
          "durationTicks": 40,
          "midi": 31,
          "name": "G1",
          "ticks": 21024,
          "time": 62.571366000000005,
          "velocity": 0.7952755905511811
        },
        {
          "duration": 0.11904750000000064,
          "durationTicks": 40,
          "midi": 31,
          "name": "G1",
          "ticks": 21072,
          "time": 62.714223000000004,
          "velocity": 0.7952755905511811
        },
        {
          "duration": 0.11904750000000064,
          "durationTicks": 40,
          "midi": 31,
          "name": "G1",
          "ticks": 21120,
          "time": 62.85708,
          "velocity": 0.7952755905511811
        },
        {
          "duration": 0.11904750000000064,
          "durationTicks": 40,
          "midi": 31,
          "name": "G1",
          "ticks": 21168,
          "time": 62.999937,
          "velocity": 0.7952755905511811
        },
        {
          "duration": 0.2619045,
          "durationTicks": 88,
          "midi": 31,
          "name": "G1",
          "ticks": 21216,
          "time": 63.142794,
          "velocity": 0.7952755905511811
        },
        {
          "duration": 0.2619044999999929,
          "durationTicks": 88,
          "midi": 31,
          "name": "G1",
          "ticks": 21312,
          "time": 63.42850800000001,
          "velocity": 0.7952755905511811
        },
        {
          "duration": 0.11904749999999353,
          "durationTicks": 40,
          "midi": 31,
          "name": "G1",
          "ticks": 21408,
          "time": 63.71422200000001,
          "velocity": 0.7952755905511811
        },
        {
          "duration": 0.11904749999999353,
          "durationTicks": 40,
          "midi": 31,
          "name": "G1",
          "ticks": 21456,
          "time": 63.857079000000006,
          "velocity": 0.7952755905511811
        },
        {
          "duration": 0.11904749999999353,
          "durationTicks": 40,
          "midi": 31,
          "name": "G1",
          "ticks": 21504,
          "time": 63.999936000000005,
          "velocity": 0.7952755905511811
        },
        {
          "duration": 0.04761899999999741,
          "durationTicks": 16,
          "midi": 31,
          "name": "G1",
          "ticks": 21552,
          "time": 64.14279300000001,
          "velocity": 0.7952755905511811
        },
        {
          "duration": 0.04761899999999741,
          "durationTicks": 16,
          "midi": 31,
          "name": "G1",
          "ticks": 21576,
          "time": 64.21422150000001,
          "velocity": 0.7952755905511811
        },
        {
          "duration": 0.2619045,
          "durationTicks": 88,
          "midi": 31,
          "name": "G1",
          "ticks": 21600,
          "time": 64.28565,
          "velocity": 0.7952755905511811
        },
        {
          "duration": 0.04761899999999741,
          "durationTicks": 16,
          "midi": 31,
          "name": "G1",
          "ticks": 21696,
          "time": 64.571364,
          "velocity": 0.7952755905511811
        },
        {
          "duration": 0.04761899999999741,
          "durationTicks": 16,
          "midi": 31,
          "name": "G1",
          "ticks": 21720,
          "time": 64.6427925,
          "velocity": 0.7952755905511811
        },
        {
          "duration": 0.04761899999999741,
          "durationTicks": 16,
          "midi": 31,
          "name": "G1",
          "ticks": 21744,
          "time": 64.71422100000001,
          "velocity": 0.7952755905511811
        },
        {
          "duration": 0.04761899999999741,
          "durationTicks": 16,
          "midi": 31,
          "name": "G1",
          "ticks": 21768,
          "time": 64.7856495,
          "velocity": 0.7952755905511811
        },
        {
          "duration": 0.04761899999999741,
          "durationTicks": 16,
          "midi": 31,
          "name": "G1",
          "ticks": 21792,
          "time": 64.857078,
          "velocity": 0.7952755905511811
        },
        {
          "duration": 0.04761899999999741,
          "durationTicks": 16,
          "midi": 31,
          "name": "G1",
          "ticks": 21816,
          "time": 64.92850650000001,
          "velocity": 0.7952755905511811
        },
        {
          "duration": 0.04761899999999741,
          "durationTicks": 16,
          "midi": 31,
          "name": "G1",
          "ticks": 21840,
          "time": 64.99993500000001,
          "velocity": 0.7952755905511811
        },
        {
          "duration": 0.04761899999999741,
          "durationTicks": 16,
          "midi": 31,
          "name": "G1",
          "ticks": 21864,
          "time": 65.0713635,
          "velocity": 0.7952755905511811
        },
        {
          "duration": 2.261902500000005,
          "durationTicks": 760,
          "midi": 31,
          "name": "G1",
          "ticks": 21888,
          "time": 65.142792,
          "velocity": 0.7952755905511811
        },
        {
          "duration": 1.1428559999999948,
          "durationTicks": 384,
          "midi": 24,
          "name": "C1",
          "ticks": 27264,
          "time": 81.14277600000001,
          "velocity": 0.7480314960629921
        },
        {
          "duration": 1.1428559999999948,
          "durationTicks": 384,
          "midi": 25,
          "name": "C#1",
          "ticks": 27648,
          "time": 82.285632,
          "velocity": 0.7480314960629921
        },
        {
          "duration": 2.2857120000000037,
          "durationTicks": 768,
          "midi": 26,
          "name": "D1",
          "ticks": 28032,
          "time": 83.428488,
          "velocity": 0.7480314960629921
        },
        {
          "duration": 2.2857120000000037,
          "durationTicks": 768,
          "midi": 26,
          "name": "D1",
          "ticks": 28800,
          "time": 85.7142,
          "velocity": 0.7480314960629921
        },
        {
          "duration": 1.6904745000000077,
          "durationTicks": 568,
          "midi": 31,
          "name": "G1",
          "ticks": 29568,
          "time": 87.99991200000001,
          "velocity": 0.7874015748031497
        },
        {
          "duration": 0.27380924999999934,
          "durationTicks": 92,
          "midi": 31,
          "name": "G1",
          "ticks": 30144,
          "time": 89.714196,
          "velocity": 0.7874015748031497
        },
        {
          "duration": 0.2738092499999851,
          "durationTicks": 92,
          "midi": 31,
          "name": "G1",
          "ticks": 30240,
          "time": 89.99991000000001,
          "velocity": 0.7874015748031497
        },
        {
          "duration": 1.6904744999999934,
          "durationTicks": 568,
          "midi": 31,
          "name": "G1",
          "ticks": 30336,
          "time": 90.28562400000001,
          "velocity": 0.7874015748031497
        },
        {
          "duration": 0.09523799999999483,
          "durationTicks": 32,
          "midi": 31,
          "name": "G1",
          "ticks": 30912,
          "time": 91.999908,
          "velocity": 0.7874015748031497
        },
        {
          "duration": 0.09523799999999483,
          "durationTicks": 32,
          "midi": 31,
          "name": "G1",
          "ticks": 30960,
          "time": 92.14276500000001,
          "velocity": 0.7874015748031497
        },
        {
          "duration": 0.2619045000000142,
          "durationTicks": 88,
          "midi": 31,
          "name": "G1",
          "ticks": 31008,
          "time": 92.285622,
          "velocity": 0.7874015748031497
        },
        {
          "duration": 0.2619045000000142,
          "durationTicks": 88,
          "midi": 31,
          "name": "G1",
          "ticks": 31104,
          "time": 92.571336,
          "velocity": 0.7874015748031497
        },
        {
          "duration": 0.2619045000000142,
          "durationTicks": 88,
          "midi": 32,
          "name": "G#1",
          "ticks": 31200,
          "time": 92.85705,
          "velocity": 0.7874015748031497
        },
        {
          "duration": 0.2619045,
          "durationTicks": 88,
          "midi": 33,
          "name": "A1",
          "ticks": 31296,
          "time": 93.14276400000001,
          "velocity": 0.7874015748031497
        },
        {
          "duration": 0.2619045,
          "durationTicks": 88,
          "midi": 34,
          "name": "A#1",
          "ticks": 31392,
          "time": 93.42847800000001,
          "velocity": 0.7874015748031497
        },
        {
          "duration": 0.11904750000000774,
          "durationTicks": 40,
          "midi": 35,
          "name": "B1",
          "ticks": 31488,
          "time": 93.71419200000001,
          "velocity": 0.7874015748031497
        },
        {
          "duration": 0.11904750000000774,
          "durationTicks": 40,
          "midi": 36,
          "name": "C2",
          "ticks": 31536,
          "time": 93.857049,
          "velocity": 0.7874015748031497
        },
        {
          "duration": 0.11904750000000774,
          "durationTicks": 40,
          "midi": 37,
          "name": "C#2",
          "ticks": 31584,
          "time": 93.99990600000001,
          "velocity": 0.7874015748031497
        },
        {
          "duration": 0.11904750000000774,
          "durationTicks": 40,
          "midi": 38,
          "name": "D2",
          "ticks": 31632,
          "time": 94.142763,
          "velocity": 0.7874015748031497
        },
        {
          "duration": 0.047619000000011624,
          "durationTicks": 16,
          "midi": 39,
          "name": "D#2",
          "ticks": 31680,
          "time": 94.28562000000001,
          "velocity": 0.7874015748031497
        },
        {
          "duration": 0.047619000000011624,
          "durationTicks": 16,
          "midi": 40,
          "name": "E2",
          "ticks": 31704,
          "time": 94.3570485,
          "velocity": 0.7874015748031497
        },
        {
          "duration": 0.047619000000011624,
          "durationTicks": 16,
          "midi": 41,
          "name": "F2",
          "ticks": 31728,
          "time": 94.428477,
          "velocity": 0.7874015748031497
        },
        {
          "duration": 0.04761899999999741,
          "durationTicks": 16,
          "midi": 42,
          "name": "F#2",
          "ticks": 31752,
          "time": 94.49990550000001,
          "velocity": 0.7874015748031497
        },
        {
          "duration": 0.047619000000011624,
          "durationTicks": 16,
          "midi": 43,
          "name": "G2",
          "ticks": 31776,
          "time": 94.57133400000001,
          "velocity": 0.7874015748031497
        },
        {
          "duration": 0.047619000000011624,
          "durationTicks": 16,
          "midi": 44,
          "name": "G#2",
          "ticks": 31800,
          "time": 94.6427625,
          "velocity": 0.7874015748031497
        },
        {
          "duration": 0.04761899999999741,
          "durationTicks": 16,
          "midi": 45,
          "name": "A2",
          "ticks": 31824,
          "time": 94.71419100000001,
          "velocity": 0.7874015748031497
        },
        {
          "duration": 0.04761899999999741,
          "durationTicks": 16,
          "midi": 46,
          "name": "A#2",
          "ticks": 31848,
          "time": 94.78561950000001,
          "velocity": 0.7874015748031497
        },
        {
          "duration": 0.29761875000001226,
          "durationTicks": 100,
          "midi": 43,
          "name": "G2",
          "ticks": 31872,
          "time": 94.857048,
          "velocity": 0.7559055118110236
        },
        {
          "duration": 0.29761875000001226,
          "durationTicks": 100,
          "midi": 31,
          "name": "G1",
          "ticks": 31872,
          "time": 94.857048,
          "velocity": 0.7559055118110236
        },
        {
          "duration": 0.11904749999999353,
          "durationTicks": 40,
          "midi": 31,
          "name": "G1",
          "ticks": 32256,
          "time": 95.99990400000002,
          "velocity": 0.4015748031496063
        },
        {
          "duration": 0.047619000000011624,
          "durationTicks": 16,
          "midi": 31,
          "name": "G1",
          "ticks": 32304,
          "time": 96.14276100000001,
          "velocity": 0.44881889763779526
        },
        {
          "duration": 0.047619000000011624,
          "durationTicks": 16,
          "midi": 31,
          "name": "G1",
          "ticks": 32328,
          "time": 96.2141895,
          "velocity": 0.48031496062992124
        },
        {
          "duration": 0.11904749999999353,
          "durationTicks": 40,
          "midi": 43,
          "name": "G2",
          "ticks": 32352,
          "time": 96.28561800000001,
          "velocity": 0.5039370078740157
        },
        {
          "duration": 0.11904750000000774,
          "durationTicks": 40,
          "midi": 31,
          "name": "G1",
          "ticks": 32400,
          "time": 96.428475,
          "velocity": 0.5590551181102362
        },
        {
          "duration": 0.11904750000000774,
          "durationTicks": 40,
          "midi": 31,
          "name": "G1",
          "ticks": 32448,
          "time": 96.57133200000001,
          "velocity": 0.6062992125984252
        },
        {
          "duration": 0.047619000000011624,
          "durationTicks": 16,
          "midi": 31,
          "name": "G1",
          "ticks": 32496,
          "time": 96.714189,
          "velocity": 0.6614173228346457
        },
        {
          "duration": 0.04761899999999741,
          "durationTicks": 16,
          "midi": 31,
          "name": "G1",
          "ticks": 32520,
          "time": 96.78561750000001,
          "velocity": 0.6850393700787402
        },
        {
          "duration": 0.2619045,
          "durationTicks": 88,
          "midi": 31,
          "name": "G1",
          "ticks": 32544,
          "time": 96.85704600000001,
          "velocity": 0.7165354330708661
        },
        {
          "duration": 0.2619045,
          "durationTicks": 88,
          "midi": 43,
          "name": "G2",
          "ticks": 32544,
          "time": 96.85704600000001,
          "velocity": 0.7165354330708661
        },
        {
          "duration": 0.2619045,
          "durationTicks": 88,
          "midi": 31,
          "name": "G1",
          "ticks": 32640,
          "time": 97.14276000000001,
          "velocity": 0.7874015748031497
        },
        {
          "duration": 0.2619045,
          "durationTicks": 88,
          "midi": 31,
          "name": "G1",
          "ticks": 32736,
          "time": 97.42847400000001,
          "velocity": 0.7874015748031497
        },
        {
          "duration": 0.2619045,
          "durationTicks": 88,
          "midi": 31,
          "name": "G1",
          "ticks": 32832,
          "time": 97.71418800000001,
          "velocity": 0.7874015748031497
        },
        {
          "duration": 0.2619045000000142,
          "durationTicks": 88,
          "midi": 31,
          "name": "G1",
          "ticks": 32928,
          "time": 97.999902,
          "velocity": 0.7874015748031497
        },
        {
          "duration": 0.2619045000000142,
          "durationTicks": 88,
          "midi": 31,
          "name": "G1",
          "ticks": 33024,
          "time": 98.285616,
          "velocity": 0.7874015748031497
        },
        {
          "duration": 0.2619045000000142,
          "durationTicks": 88,
          "midi": 31,
          "name": "G1",
          "ticks": 33120,
          "time": 98.57133,
          "velocity": 0.7874015748031497
        },
        {
          "duration": 0.2619045000000142,
          "durationTicks": 88,
          "midi": 31,
          "name": "G1",
          "ticks": 33216,
          "time": 98.857044,
          "velocity": 0.7874015748031497
        },
        {
          "duration": 0.11904749999999353,
          "durationTicks": 40,
          "midi": 31,
          "name": "G1",
          "ticks": 33312,
          "time": 99.14275800000001,
          "velocity": 0.7874015748031497
        },
        {
          "duration": 0.11904750000000774,
          "durationTicks": 40,
          "midi": 31,
          "name": "G1",
          "ticks": 33360,
          "time": 99.285615,
          "velocity": 0.7874015748031497
        },
        {
          "duration": 0.2619045,
          "durationTicks": 88,
          "midi": 31,
          "name": "G1",
          "ticks": 33408,
          "time": 99.42847200000001,
          "velocity": 0.7874015748031497
        },
        {
          "duration": 0.2619045,
          "durationTicks": 88,
          "midi": 31,
          "name": "G1",
          "ticks": 33504,
          "time": 99.71418600000001,
          "velocity": 0.7874015748031497
        },
        {
          "duration": 0.2619045,
          "durationTicks": 88,
          "midi": 31,
          "name": "G1",
          "ticks": 33600,
          "time": 99.99990000000001,
          "velocity": 0.7874015748031497
        },
        {
          "duration": 0.11904750000000774,
          "durationTicks": 40,
          "midi": 31,
          "name": "G1",
          "ticks": 33696,
          "time": 100.28561400000001,
          "velocity": 0.7874015748031497
        },
        {
          "duration": 0.047619000000011624,
          "durationTicks": 16,
          "midi": 31,
          "name": "G1",
          "ticks": 33744,
          "time": 100.428471,
          "velocity": 0.7874015748031497
        },
        {
          "duration": 0.04761899999999741,
          "durationTicks": 16,
          "midi": 31,
          "name": "G1",
          "ticks": 33768,
          "time": 100.49989950000001,
          "velocity": 0.7874015748031497
        },
        {
          "duration": 0.2619045,
          "durationTicks": 88,
          "midi": 31,
          "name": "G1",
          "ticks": 33792,
          "time": 100.57132800000001,
          "velocity": 0.7874015748031497
        },
        {
          "duration": 0.11904750000000774,
          "durationTicks": 40,
          "midi": 31,
          "name": "G1",
          "ticks": 33888,
          "time": 100.857042,
          "velocity": 0.7874015748031497
        },
        {
          "duration": 0.2619045,
          "durationTicks": 88,
          "midi": 31,
          "name": "G1",
          "ticks": 33936,
          "time": 100.99989900000001,
          "velocity": 0.7874015748031497
        },
        {
          "duration": 0.11904750000000774,
          "durationTicks": 40,
          "midi": 31,
          "name": "G1",
          "ticks": 34032,
          "time": 101.28561300000001,
          "velocity": 0.7874015748031497
        },
        {
          "duration": 0.11904750000000774,
          "durationTicks": 40,
          "midi": 31,
          "name": "G1",
          "ticks": 34080,
          "time": 101.42847,
          "velocity": 0.7874015748031497
        },
        {
          "duration": 0.11904750000000774,
          "durationTicks": 40,
          "midi": 31,
          "name": "G1",
          "ticks": 34128,
          "time": 101.57132700000001,
          "velocity": 0.7874015748031497
        },
        {
          "duration": 0.2619045000000142,
          "durationTicks": 88,
          "midi": 31,
          "name": "G1",
          "ticks": 34176,
          "time": 101.714184,
          "velocity": 0.7874015748031497
        },
        {
          "duration": 0.2619045000000142,
          "durationTicks": 88,
          "midi": 31,
          "name": "G1",
          "ticks": 34272,
          "time": 101.999898,
          "velocity": 0.7874015748031497
        },
        {
          "duration": 0.2619045,
          "durationTicks": 88,
          "midi": 31,
          "name": "G1",
          "ticks": 34368,
          "time": 102.28561200000001,
          "velocity": 0.7874015748031497
        },
        {
          "duration": 0.11904749999999353,
          "durationTicks": 40,
          "midi": 31,
          "name": "G1",
          "ticks": 34464,
          "time": 102.57132600000001,
          "velocity": 0.7874015748031497
        },
        {
          "duration": 0.11904750000000774,
          "durationTicks": 40,
          "midi": 31,
          "name": "G1",
          "ticks": 34512,
          "time": 102.714183,
          "velocity": 0.7874015748031497
        },
        {
          "duration": 0.2619045,
          "durationTicks": 88,
          "midi": 31,
          "name": "G1",
          "ticks": 34560,
          "time": 102.85704000000001,
          "velocity": 0.7874015748031497
        },
        {
          "duration": 0.11904750000000774,
          "durationTicks": 40,
          "midi": 31,
          "name": "G1",
          "ticks": 34656,
          "time": 103.14275400000001,
          "velocity": 0.7874015748031497
        },
        {
          "duration": 0.2619045000000142,
          "durationTicks": 88,
          "midi": 31,
          "name": "G1",
          "ticks": 34704,
          "time": 103.285611,
          "velocity": 0.7874015748031497
        },
        {
          "duration": 0.2619045000000142,
          "durationTicks": 88,
          "midi": 31,
          "name": "G1",
          "ticks": 34800,
          "time": 103.571325,
          "velocity": 0.7874015748031497
        },
        {
          "duration": 0.11904749999999353,
          "durationTicks": 40,
          "midi": 31,
          "name": "G1",
          "ticks": 34896,
          "time": 103.85703900000001,
          "velocity": 0.7874015748031497
        },
        {
          "duration": 0.11904750000000774,
          "durationTicks": 40,
          "midi": 31,
          "name": "G1",
          "ticks": 34944,
          "time": 103.999896,
          "velocity": 0.7874015748031497
        },
        {
          "duration": 0.11904750000000774,
          "durationTicks": 40,
          "midi": 31,
          "name": "G1",
          "ticks": 34992,
          "time": 104.14275300000001,
          "velocity": 0.7874015748031497
        },
        {
          "duration": 0.2619045000000142,
          "durationTicks": 88,
          "midi": 31,
          "name": "G1",
          "ticks": 35040,
          "time": 104.28561,
          "velocity": 0.7874015748031497
        },
        {
          "duration": 0.11904750000000774,
          "durationTicks": 40,
          "midi": 31,
          "name": "G1",
          "ticks": 35136,
          "time": 104.571324,
          "velocity": 0.7874015748031497
        },
        {
          "duration": 0.2619045,
          "durationTicks": 88,
          "midi": 31,
          "name": "G1",
          "ticks": 35184,
          "time": 104.71418100000001,
          "velocity": 0.7874015748031497
        },
        {
          "duration": 0.11904750000000774,
          "durationTicks": 40,
          "midi": 31,
          "name": "G1",
          "ticks": 35280,
          "time": 104.99989500000001,
          "velocity": 0.7874015748031497
        },
        {
          "duration": 0.11904750000000774,
          "durationTicks": 40,
          "midi": 31,
          "name": "G1",
          "ticks": 35328,
          "time": 105.142752,
          "velocity": 0.7874015748031497
        },
        {
          "duration": 0.11904750000000774,
          "durationTicks": 40,
          "midi": 31,
          "name": "G1",
          "ticks": 35376,
          "time": 105.28560900000001,
          "velocity": 0.7874015748031497
        },
        {
          "duration": 0.11904749999999353,
          "durationTicks": 40,
          "midi": 31,
          "name": "G1",
          "ticks": 35424,
          "time": 105.42846600000001,
          "velocity": 0.7874015748031497
        },
        {
          "duration": 0.11904750000000774,
          "durationTicks": 40,
          "midi": 31,
          "name": "G1",
          "ticks": 35472,
          "time": 105.571323,
          "velocity": 0.7874015748031497
        },
        {
          "duration": 0.04761899999999741,
          "durationTicks": 16,
          "midi": 31,
          "name": "G1",
          "ticks": 35520,
          "time": 105.71418000000001,
          "velocity": 0.7874015748031497
        },
        {
          "duration": 0.047619000000011624,
          "durationTicks": 16,
          "midi": 31,
          "name": "G1",
          "ticks": 35544,
          "time": 105.78560850000001,
          "velocity": 0.7874015748031497
        },
        {
          "duration": 0.047619000000011624,
          "durationTicks": 16,
          "midi": 31,
          "name": "G1",
          "ticks": 35568,
          "time": 105.857037,
          "velocity": 0.7874015748031497
        },
        {
          "duration": 0.04761899999999741,
          "durationTicks": 16,
          "midi": 31,
          "name": "G1",
          "ticks": 35592,
          "time": 105.92846550000002,
          "velocity": 0.7874015748031497
        },
        {
          "duration": 0.04761899999999741,
          "durationTicks": 16,
          "midi": 31,
          "name": "G1",
          "ticks": 35616,
          "time": 105.99989400000001,
          "velocity": 0.7874015748031497
        },
        {
          "duration": 0.047619000000011624,
          "durationTicks": 16,
          "midi": 31,
          "name": "G1",
          "ticks": 35640,
          "time": 106.07132250000001,
          "velocity": 0.7874015748031497
        },
        {
          "duration": 0.047619000000011624,
          "durationTicks": 16,
          "midi": 31,
          "name": "G1",
          "ticks": 35664,
          "time": 106.142751,
          "velocity": 0.7874015748031497
        },
        {
          "duration": 0.04761899999999741,
          "durationTicks": 16,
          "midi": 31,
          "name": "G1",
          "ticks": 35688,
          "time": 106.21417950000001,
          "velocity": 0.7874015748031497
        },
        {
          "duration": 0.11904750000000774,
          "durationTicks": 40,
          "midi": 31,
          "name": "G1",
          "ticks": 35760,
          "time": 106.428465,
          "velocity": 0.7874015748031497
        },
        {
          "duration": 0.2619045,
          "durationTicks": 88,
          "midi": 31,
          "name": "G1",
          "ticks": 35808,
          "time": 106.57132200000001,
          "velocity": 0.7874015748031497
        },
        {
          "duration": 0.2619045,
          "durationTicks": 88,
          "midi": 31,
          "name": "G1",
          "ticks": 35904,
          "time": 106.85703600000001,
          "velocity": 0.7874015748031497
        },
        {
          "duration": 0.2619045000000142,
          "durationTicks": 88,
          "midi": 31,
          "name": "G1",
          "ticks": 36000,
          "time": 107.14275,
          "velocity": 0.7874015748031497
        },
        {
          "duration": 0.2619045000000142,
          "durationTicks": 88,
          "midi": 31,
          "name": "G1",
          "ticks": 36096,
          "time": 107.428464,
          "velocity": 0.7874015748031497
        },
        {
          "duration": 0.2619045000000142,
          "durationTicks": 88,
          "midi": 31,
          "name": "G1",
          "ticks": 36192,
          "time": 107.714178,
          "velocity": 0.7874015748031497
        },
        {
          "duration": 0.2619045000000142,
          "durationTicks": 88,
          "midi": 31,
          "name": "G1",
          "ticks": 36288,
          "time": 107.999892,
          "velocity": 0.7874015748031497
        },
        {
          "duration": 0.11904749999999353,
          "durationTicks": 40,
          "midi": 31,
          "name": "G1",
          "ticks": 36384,
          "time": 108.28560600000002,
          "velocity": 0.7874015748031497
        },
        {
          "duration": 0.11904750000000774,
          "durationTicks": 40,
          "midi": 31,
          "name": "G1",
          "ticks": 36432,
          "time": 108.42846300000001,
          "velocity": 0.7874015748031497
        },
        {
          "duration": 0.2619045,
          "durationTicks": 88,
          "midi": 31,
          "name": "G1",
          "ticks": 36480,
          "time": 108.57132000000001,
          "velocity": 0.7874015748031497
        },
        {
          "duration": 0.2619045,
          "durationTicks": 88,
          "midi": 31,
          "name": "G1",
          "ticks": 36576,
          "time": 108.85703400000001,
          "velocity": 0.7874015748031497
        },
        {
          "duration": 0.2619045,
          "durationTicks": 88,
          "midi": 31,
          "name": "G1",
          "ticks": 36672,
          "time": 109.14274800000001,
          "velocity": 0.7874015748031497
        },
        {
          "duration": 0.04761899999999741,
          "durationTicks": 16,
          "midi": 31,
          "name": "G1",
          "ticks": 36768,
          "time": 109.42846200000001,
          "velocity": 0.7874015748031497
        },
        {
          "duration": 0.047619000000011624,
          "durationTicks": 16,
          "midi": 31,
          "name": "G1",
          "ticks": 36792,
          "time": 109.4998905,
          "velocity": 0.7874015748031497
        },
        {
          "duration": 0.047619000000011624,
          "durationTicks": 16,
          "midi": 31,
          "name": "G1",
          "ticks": 36816,
          "time": 109.571319,
          "velocity": 0.7874015748031497
        },
        {
          "duration": 0.04761899999999741,
          "durationTicks": 16,
          "midi": 31,
          "name": "G1",
          "ticks": 36840,
          "time": 109.64274750000001,
          "velocity": 0.7874015748031497
        },
        {
          "duration": 0.2619045,
          "durationTicks": 88,
          "midi": 31,
          "name": "G1",
          "ticks": 36864,
          "time": 109.71417600000001,
          "velocity": 0.7874015748031497
        },
        {
          "duration": 0.2619045,
          "durationTicks": 88,
          "midi": 31,
          "name": "G1",
          "ticks": 36960,
          "time": 109.99989000000001,
          "velocity": 0.7874015748031497
        },
        {
          "duration": 0.2619045000000142,
          "durationTicks": 88,
          "midi": 31,
          "name": "G1",
          "ticks": 37056,
          "time": 110.285604,
          "velocity": 0.7874015748031497
        },
        {
          "duration": 0.11904750000000774,
          "durationTicks": 40,
          "midi": 31,
          "name": "G1",
          "ticks": 37152,
          "time": 110.571318,
          "velocity": 0.7874015748031497
        },
        {
          "duration": 0.11904750000000774,
          "durationTicks": 40,
          "midi": 31,
          "name": "G1",
          "ticks": 37200,
          "time": 110.71417500000001,
          "velocity": 0.7874015748031497
        },
        {
          "duration": 0.2619045000000142,
          "durationTicks": 88,
          "midi": 31,
          "name": "G1",
          "ticks": 37248,
          "time": 110.857032,
          "velocity": 0.7874015748031497
        },
        {
          "duration": 0.2619045000000142,
          "durationTicks": 88,
          "midi": 31,
          "name": "G1",
          "ticks": 37344,
          "time": 111.142746,
          "velocity": 0.7874015748031497
        },
        {
          "duration": 0.2619045,
          "durationTicks": 88,
          "midi": 31,
          "name": "G1",
          "ticks": 37440,
          "time": 111.42846000000002,
          "velocity": 0.7874015748031497
        },
        {
          "duration": 0.22619025000000192,
          "durationTicks": 76,
          "midi": 31,
          "name": "G1",
          "ticks": 37536,
          "time": 111.71417400000001,
          "velocity": 0.7874015748031497
        },
        {
          "duration": 0.2619045,
          "durationTicks": 88,
          "midi": 31,
          "name": "G1",
          "ticks": 37632,
          "time": 111.99988800000001,
          "velocity": 0.7874015748031497
        },
        {
          "duration": 0.2619045,
          "durationTicks": 88,
          "midi": 31,
          "name": "G1",
          "ticks": 37728,
          "time": 112.28560200000001,
          "velocity": 0.7874015748031497
        },
        {
          "duration": 0.2619045,
          "durationTicks": 88,
          "midi": 31,
          "name": "G1",
          "ticks": 37824,
          "time": 112.57131600000001,
          "velocity": 0.7874015748031497
        },
        {
          "duration": 0.11904750000000774,
          "durationTicks": 40,
          "midi": 31,
          "name": "G1",
          "ticks": 37920,
          "time": 112.85703000000001,
          "velocity": 0.7874015748031497
        },
        {
          "duration": 0.11904749999999353,
          "durationTicks": 40,
          "midi": 31,
          "name": "G1",
          "ticks": 37968,
          "time": 112.99988700000002,
          "velocity": 0.7874015748031497
        },
        {
          "duration": 0.2619045000000142,
          "durationTicks": 88,
          "midi": 31,
          "name": "G1",
          "ticks": 38016,
          "time": 113.14274400000001,
          "velocity": 0.7874015748031497
        },
        {
          "duration": 0.2619045000000142,
          "durationTicks": 88,
          "midi": 31,
          "name": "G1",
          "ticks": 38112,
          "time": 113.428458,
          "velocity": 0.7874015748031497
        },
        {
          "duration": 0.2619045000000142,
          "durationTicks": 88,
          "midi": 31,
          "name": "G1",
          "ticks": 38208,
          "time": 113.714172,
          "velocity": 0.7874015748031497
        },
        {
          "duration": 0.11904750000000774,
          "durationTicks": 40,
          "midi": 31,
          "name": "G1",
          "ticks": 38304,
          "time": 113.999886,
          "velocity": 0.7874015748031497
        },
        {
          "duration": 0.11904750000000774,
          "durationTicks": 40,
          "midi": 31,
          "name": "G1",
          "ticks": 38352,
          "time": 114.14274300000001,
          "velocity": 0.7874015748031497
        },
        {
          "duration": 0.11904749999999353,
          "durationTicks": 40,
          "midi": 31,
          "name": "G1",
          "ticks": 38400,
          "time": 114.28560000000002,
          "velocity": 0.7874015748031497
        },
        {
          "duration": 0.11904750000000774,
          "durationTicks": 40,
          "midi": 31,
          "name": "G1",
          "ticks": 38472,
          "time": 114.4998855,
          "velocity": 0.7874015748031497
        },
        {
          "duration": 0.2619045000000142,
          "durationTicks": 88,
          "midi": 31,
          "name": "G1",
          "ticks": 38544,
          "time": 114.71417100000001,
          "velocity": 0.7874015748031497
        },
        {
          "duration": 0.11904750000000774,
          "durationTicks": 40,
          "midi": 31,
          "name": "G1",
          "ticks": 38640,
          "time": 114.999885,
          "velocity": 0.7874015748031497
        },
        {
          "duration": 0.11904750000000774,
          "durationTicks": 40,
          "midi": 31,
          "name": "G1",
          "ticks": 38688,
          "time": 115.14274200000001,
          "velocity": 0.7874015748031497
        },
        {
          "duration": 0.023809499999998707,
          "durationTicks": 8,
          "midi": 31,
          "name": "G1",
          "ticks": 38736,
          "time": 115.285599,
          "velocity": 0.7874015748031497
        },
        {
          "duration": 0.023809499999998707,
          "durationTicks": 8,
          "midi": 31,
          "name": "G1",
          "ticks": 38752,
          "time": 115.33321800000002,
          "velocity": 0.7874015748031497
        },
        {
          "duration": 0.023809500000012918,
          "durationTicks": 8,
          "midi": 31,
          "name": "G1",
          "ticks": 38768,
          "time": 115.380837,
          "velocity": 0.7874015748031497
        },
        {
          "duration": 0.11904750000000774,
          "durationTicks": 40,
          "midi": 31,
          "name": "G1",
          "ticks": 38832,
          "time": 115.571313,
          "velocity": 0.7874015748031497
        },
        {
          "duration": 0.2619045,
          "durationTicks": 88,
          "midi": 31,
          "name": "G1",
          "ticks": 38880,
          "time": 115.71417000000001,
          "velocity": 0.7874015748031497
        },
        {
          "duration": 0.2619045,
          "durationTicks": 88,
          "midi": 31,
          "name": "G1",
          "ticks": 38976,
          "time": 115.99988400000001,
          "velocity": 0.7874015748031497
        },
        {
          "duration": 0.2619045000000142,
          "durationTicks": 88,
          "midi": 31,
          "name": "G1",
          "ticks": 39072,
          "time": 116.28559800000001,
          "velocity": 0.7874015748031497
        },
        {
          "duration": 0.2619045000000142,
          "durationTicks": 88,
          "midi": 31,
          "name": "G1",
          "ticks": 39168,
          "time": 116.571312,
          "velocity": 0.7874015748031497
        },
        {
          "duration": 0.2619045000000142,
          "durationTicks": 88,
          "midi": 31,
          "name": "G1",
          "ticks": 39264,
          "time": 116.857026,
          "velocity": 0.7874015748031497
        },
        {
          "duration": 0.2619045000000142,
          "durationTicks": 88,
          "midi": 31,
          "name": "G1",
          "ticks": 39360,
          "time": 117.14274,
          "velocity": 0.7874015748031497
        },
        {
          "duration": 0.11904749999999353,
          "durationTicks": 40,
          "midi": 31,
          "name": "G1",
          "ticks": 39456,
          "time": 117.42845400000002,
          "velocity": 0.7874015748031497
        },
        {
          "duration": 0.11904750000000774,
          "durationTicks": 40,
          "midi": 31,
          "name": "G1",
          "ticks": 39504,
          "time": 117.57131100000001,
          "velocity": 0.7874015748031497
        },
        {
          "duration": 0.2619045,
          "durationTicks": 88,
          "midi": 31,
          "name": "G1",
          "ticks": 39552,
          "time": 117.71416800000002,
          "velocity": 0.7874015748031497
        },
        {
          "duration": 0.2619045,
          "durationTicks": 88,
          "midi": 31,
          "name": "G1",
          "ticks": 39648,
          "time": 117.99988200000001,
          "velocity": 0.7874015748031497
        },
        {
          "duration": 0.11904750000000774,
          "durationTicks": 40,
          "midi": 31,
          "name": "G1",
          "ticks": 39744,
          "time": 118.28559600000001,
          "velocity": 0.7874015748031497
        },
        {
          "duration": 0.11904750000000774,
          "durationTicks": 40,
          "midi": 31,
          "name": "G1",
          "ticks": 39792,
          "time": 118.428453,
          "velocity": 0.7874015748031497
        },
        {
          "duration": 0.11904750000000774,
          "durationTicks": 40,
          "midi": 31,
          "name": "G1",
          "ticks": 39840,
          "time": 118.57131000000001,
          "velocity": 0.7874015748031497
        },
        {
          "duration": 0.11904750000000774,
          "durationTicks": 40,
          "midi": 31,
          "name": "G1",
          "ticks": 39888,
          "time": 118.714167,
          "velocity": 0.7874015748031497
        },
        {
          "duration": 0.2619045,
          "durationTicks": 88,
          "midi": 31,
          "name": "G1",
          "ticks": 39936,
          "time": 118.85702400000001,
          "velocity": 0.7874015748031497
        },
        {
          "duration": 0.2619045,
          "durationTicks": 88,
          "midi": 31,
          "name": "G1",
          "ticks": 40032,
          "time": 119.14273800000001,
          "velocity": 0.7874015748031497
        },
        {
          "duration": 0.047619000000011624,
          "durationTicks": 16,
          "midi": 31,
          "name": "G1",
          "ticks": 40128,
          "time": 119.42845200000001,
          "velocity": 0.7874015748031497
        },
        {
          "duration": 0.047619000000011624,
          "durationTicks": 16,
          "midi": 31,
          "name": "G1",
          "ticks": 40152,
          "time": 119.4998805,
          "velocity": 0.7874015748031497
        },
        {
          "duration": 0.023809499999984496,
          "durationTicks": 8,
          "midi": 31,
          "name": "G1",
          "ticks": 40176,
          "time": 119.57130900000001,
          "velocity": 0.7874015748031497
        },
        {
          "duration": 0.023809499999998707,
          "durationTicks": 8,
          "midi": 31,
          "name": "G1",
          "ticks": 40192,
          "time": 119.61892800000001,
          "velocity": 0.7874015748031497
        },
        {
          "duration": 0.023809500000012918,
          "durationTicks": 8,
          "midi": 31,
          "name": "G1",
          "ticks": 40208,
          "time": 119.66654700000001,
          "velocity": 0.7874015748031497
        },
        {
          "duration": 0.047619000000011624,
          "durationTicks": 16,
          "midi": 31,
          "name": "G1",
          "ticks": 40224,
          "time": 119.714166,
          "velocity": 0.7874015748031497
        },
        {
          "duration": 0.04761899999999741,
          "durationTicks": 16,
          "midi": 31,
          "name": "G1",
          "ticks": 40248,
          "time": 119.78559450000002,
          "velocity": 0.7874015748031497
        },
        {
          "duration": 0.023809499999998707,
          "durationTicks": 8,
          "midi": 31,
          "name": "G1",
          "ticks": 40272,
          "time": 119.85702300000001,
          "velocity": 0.7874015748031497
        },
        {
          "duration": 0.023809499999998707,
          "durationTicks": 8,
          "midi": 31,
          "name": "G1",
          "ticks": 40288,
          "time": 119.90464200000001,
          "velocity": 0.7874015748031497
        },
        {
          "duration": 0.023809500000012918,
          "durationTicks": 8,
          "midi": 31,
          "name": "G1",
          "ticks": 40304,
          "time": 119.95226100000001,
          "velocity": 0.7874015748031497
        },
        {
          "duration": 0.11904750000000774,
          "durationTicks": 40,
          "midi": 31,
          "name": "G1",
          "ticks": 40320,
          "time": 119.99988,
          "velocity": 0.7874015748031497
        },
        {
          "duration": 0.11904750000000774,
          "durationTicks": 40,
          "midi": 31,
          "name": "G1",
          "ticks": 40368,
          "time": 120.14273700000001,
          "velocity": 0.7874015748031497
        },
        {
          "duration": 0.2619045000000142,
          "durationTicks": 88,
          "midi": 31,
          "name": "G1",
          "ticks": 40416,
          "time": 120.285594,
          "velocity": 0.7874015748031497
        },
        {
          "duration": 0.2619045,
          "durationTicks": 88,
          "midi": 31,
          "name": "G1",
          "ticks": 40512,
          "time": 120.57130800000002,
          "velocity": 0.7874015748031497
        },
        {
          "duration": 0.10714274999999418,
          "durationTicks": 36,
          "midi": 31,
          "name": "G1",
          "ticks": 40608,
          "time": 120.85702200000001,
          "velocity": 0.7874015748031497
        },
        {
          "duration": 0.10714275000000839,
          "durationTicks": 36,
          "midi": 31,
          "name": "G1",
          "ticks": 40656,
          "time": 120.999879,
          "velocity": 0.7874015748031497
        },
        {
          "duration": 0.2619045,
          "durationTicks": 88,
          "midi": 31,
          "name": "G1",
          "ticks": 40704,
          "time": 121.14273600000001,
          "velocity": 0.7874015748031497
        },
        {
          "duration": 0.2619045,
          "durationTicks": 88,
          "midi": 31,
          "name": "G1",
          "ticks": 40800,
          "time": 121.42845000000001,
          "velocity": 0.7874015748031497
        },
        {
          "duration": 0.2619045,
          "durationTicks": 88,
          "midi": 31,
          "name": "G1",
          "ticks": 40896,
          "time": 121.71416400000001,
          "velocity": 0.7874015748031497
        },
        {
          "duration": 0.11904750000000774,
          "durationTicks": 40,
          "midi": 31,
          "name": "G1",
          "ticks": 40992,
          "time": 121.99987800000001,
          "velocity": 0.7874015748031497
        },
        {
          "duration": 0.11904749999999353,
          "durationTicks": 40,
          "midi": 31,
          "name": "G1",
          "ticks": 41040,
          "time": 122.14273500000002,
          "velocity": 0.7874015748031497
        },
        {
          "duration": 0.11904750000000774,
          "durationTicks": 40,
          "midi": 31,
          "name": "G1",
          "ticks": 41088,
          "time": 122.28559200000001,
          "velocity": 0.7874015748031497
        },
        {
          "duration": 0.11904750000000774,
          "durationTicks": 40,
          "midi": 31,
          "name": "G1",
          "ticks": 41136,
          "time": 122.42844900000001,
          "velocity": 0.7874015748031497
        },
        {
          "duration": 0.11904750000000774,
          "durationTicks": 40,
          "midi": 31,
          "name": "G1",
          "ticks": 41184,
          "time": 122.571306,
          "velocity": 0.7874015748031497
        },
        {
          "duration": 0.11904750000000774,
          "durationTicks": 40,
          "midi": 31,
          "name": "G1",
          "ticks": 41232,
          "time": 122.71416300000001,
          "velocity": 0.7874015748031497
        },
        {
          "duration": 0.11904750000000774,
          "durationTicks": 40,
          "midi": 31,
          "name": "G1",
          "ticks": 41280,
          "time": 122.85702,
          "velocity": 0.7874015748031497
        },
        {
          "duration": 0.11904750000000774,
          "durationTicks": 40,
          "midi": 31,
          "name": "G1",
          "ticks": 41328,
          "time": 122.99987700000001,
          "velocity": 0.7874015748031497
        },
        {
          "duration": 0.047619000000011624,
          "durationTicks": 16,
          "midi": 31,
          "name": "G1",
          "ticks": 41376,
          "time": 123.142734,
          "velocity": 0.7874015748031497
        },
        {
          "duration": 0.04761899999999741,
          "durationTicks": 16,
          "midi": 31,
          "name": "G1",
          "ticks": 41400,
          "time": 123.21416250000001,
          "velocity": 0.7874015748031497
        },
        {
          "duration": 0.047619000000011624,
          "durationTicks": 16,
          "midi": 31,
          "name": "G1",
          "ticks": 41424,
          "time": 123.28559100000001,
          "velocity": 0.7874015748031497
        },
        {
          "duration": 0.047619000000011624,
          "durationTicks": 16,
          "midi": 31,
          "name": "G1",
          "ticks": 41448,
          "time": 123.3570195,
          "velocity": 0.7874015748031497
        },
        {
          "duration": 0.2619045000000142,
          "durationTicks": 88,
          "midi": 31,
          "name": "G1",
          "ticks": 41472,
          "time": 123.428448,
          "velocity": 0.7874015748031497
        },
        {
          "duration": 0.2619045,
          "durationTicks": 88,
          "midi": 31,
          "name": "G1",
          "ticks": 41568,
          "time": 123.71416200000002,
          "velocity": 0.7874015748031497
        },
        {
          "duration": 0.11904750000000774,
          "durationTicks": 40,
          "midi": 31,
          "name": "G1",
          "ticks": 41664,
          "time": 123.99987600000001,
          "velocity": 0.7874015748031497
        },
        {
          "duration": 0.2619045000000142,
          "durationTicks": 88,
          "midi": 31,
          "name": "G1",
          "ticks": 41712,
          "time": 124.142733,
          "velocity": 0.7874015748031497
        },
        {
          "duration": 0.023809499999998707,
          "durationTicks": 8,
          "midi": 31,
          "name": "G1",
          "ticks": 41808,
          "time": 124.428447,
          "velocity": 0.7874015748031497
        },
        {
          "duration": 0.023809499999998707,
          "durationTicks": 8,
          "midi": 31,
          "name": "G1",
          "ticks": 41824,
          "time": 124.47606600000002,
          "velocity": 0.7874015748031497
        },
        {
          "duration": 0.023809500000012918,
          "durationTicks": 8,
          "midi": 31,
          "name": "G1",
          "ticks": 41840,
          "time": 124.523685,
          "velocity": 0.7874015748031497
        },
        {
          "duration": 0.2619045,
          "durationTicks": 88,
          "midi": 31,
          "name": "G1",
          "ticks": 41856,
          "time": 124.57130400000001,
          "velocity": 0.7874015748031497
        },
        {
          "duration": 0.2619045,
          "durationTicks": 88,
          "midi": 31,
          "name": "G1",
          "ticks": 41952,
          "time": 124.85701800000001,
          "velocity": 0.7874015748031497
        },
        {
          "duration": 0.2619045,
          "durationTicks": 88,
          "midi": 31,
          "name": "G1",
          "ticks": 42048,
          "time": 125.14273200000001,
          "velocity": 0.7874015748031497
        },
        {
          "duration": 0.11904750000000774,
          "durationTicks": 40,
          "midi": 31,
          "name": "G1",
          "ticks": 42144,
          "time": 125.42844600000001,
          "velocity": 0.7874015748031497
        },
        {
          "duration": 0.11904750000000774,
          "durationTicks": 40,
          "midi": 31,
          "name": "G1",
          "ticks": 42192,
          "time": 125.57130300000001,
          "velocity": 0.7874015748031497
        },
        {
          "duration": 0.2619045000000142,
          "durationTicks": 88,
          "midi": 31,
          "name": "G1",
          "ticks": 42240,
          "time": 125.71416,
          "velocity": 0.7874015748031497
        },
        {
          "duration": 0.2619045000000142,
          "durationTicks": 88,
          "midi": 31,
          "name": "G1",
          "ticks": 42336,
          "time": 125.999874,
          "velocity": 0.7874015748031497
        },
        {
          "duration": 0.11904750000000774,
          "durationTicks": 40,
          "midi": 31,
          "name": "G1",
          "ticks": 42432,
          "time": 126.285588,
          "velocity": 0.7874015748031497
        },
        {
          "duration": 0.047619000000011624,
          "durationTicks": 16,
          "midi": 31,
          "name": "G1",
          "ticks": 42480,
          "time": 126.42844500000001,
          "velocity": 0.7874015748031497
        },
        {
          "duration": 0.047619000000011624,
          "durationTicks": 16,
          "midi": 31,
          "name": "G1",
          "ticks": 42504,
          "time": 126.4998735,
          "velocity": 0.7874015748031497
        },
        {
          "duration": 0.11904749999999353,
          "durationTicks": 40,
          "midi": 31,
          "name": "G1",
          "ticks": 42528,
          "time": 126.57130200000002,
          "velocity": 0.7874015748031497
        },
        {
          "duration": 0.11904750000000774,
          "durationTicks": 40,
          "midi": 31,
          "name": "G1",
          "ticks": 42576,
          "time": 126.71415900000001,
          "velocity": 0.7874015748031497
        },
        {
          "duration": 0.2619045,
          "durationTicks": 88,
          "midi": 31,
          "name": "G1",
          "ticks": 42624,
          "time": 126.85701600000002,
          "velocity": 0.7874015748031497
        },
        {
          "duration": 0.2619045,
          "durationTicks": 88,
          "midi": 31,
          "name": "G1",
          "ticks": 42720,
          "time": 127.14273000000001,
          "velocity": 0.7874015748031497
        },
        {
          "duration": 0.11904750000000774,
          "durationTicks": 40,
          "midi": 31,
          "name": "G1",
          "ticks": 42816,
          "time": 127.42844400000001,
          "velocity": 0.7874015748031497
        },
        {
          "duration": 0.2619045000000142,
          "durationTicks": 88,
          "midi": 31,
          "name": "G1",
          "ticks": 42864,
          "time": 127.571301,
          "velocity": 0.7874015748031497
        },
        {
          "duration": 0.023809499999998707,
          "durationTicks": 8,
          "midi": 31,
          "name": "G1",
          "ticks": 42960,
          "time": 127.857015,
          "velocity": 0.7874015748031497
        },
        {
          "duration": 0.023809499999998707,
          "durationTicks": 8,
          "midi": 31,
          "name": "G1",
          "ticks": 42976,
          "time": 127.90463400000002,
          "velocity": 0.7874015748031497
        },
        {
          "duration": 0.023809500000012918,
          "durationTicks": 8,
          "midi": 31,
          "name": "G1",
          "ticks": 42992,
          "time": 127.952253,
          "velocity": 0.7874015748031497
        },
        {
          "duration": 0.11904749999999353,
          "durationTicks": 40,
          "midi": 31,
          "name": "G1",
          "ticks": 43008,
          "time": 127.99987200000001,
          "velocity": 0.7874015748031497
        },
        {
          "duration": 0.11904750000002196,
          "durationTicks": 40,
          "midi": 31,
          "name": "G1",
          "ticks": 43056,
          "time": 128.142729,
          "velocity": 0.7874015748031497
        },
        {
          "duration": 0.2619044999999858,
          "durationTicks": 88,
          "midi": 31,
          "name": "G1",
          "ticks": 43104,
          "time": 128.28558600000002,
          "velocity": 0.7874015748031497
        },
        {
          "duration": 0.2619045000000142,
          "durationTicks": 88,
          "midi": 31,
          "name": "G1",
          "ticks": 43200,
          "time": 128.5713,
          "velocity": 0.7874015748031497
        },
        {
          "duration": 0.11904749999999353,
          "durationTicks": 40,
          "midi": 31,
          "name": "G1",
          "ticks": 43296,
          "time": 128.85701400000002,
          "velocity": 0.7874015748031497
        },
        {
          "duration": 0.023809499999998707,
          "durationTicks": 8,
          "midi": 31,
          "name": "G1",
          "ticks": 43344,
          "time": 128.999871,
          "velocity": 0.7874015748031497
        },
        {
          "duration": 0.023809499999998707,
          "durationTicks": 8,
          "midi": 31,
          "name": "G1",
          "ticks": 43360,
          "time": 129.04749,
          "velocity": 0.7874015748031497
        },
        {
          "duration": 0.023809499999998707,
          "durationTicks": 8,
          "midi": 31,
          "name": "G1",
          "ticks": 43376,
          "time": 129.095109,
          "velocity": 0.7874015748031497
        },
        {
          "duration": 0.2619045000000142,
          "durationTicks": 88,
          "midi": 31,
          "name": "G1",
          "ticks": 43392,
          "time": 129.142728,
          "velocity": 0.7874015748031497
        },
        {
          "duration": 0.2619044999999858,
          "durationTicks": 88,
          "midi": 31,
          "name": "G1",
          "ticks": 43488,
          "time": 129.42844200000002,
          "velocity": 0.7874015748031497
        },
        {
          "duration": 0.2619045000000142,
          "durationTicks": 88,
          "midi": 31,
          "name": "G1",
          "ticks": 43584,
          "time": 129.714156,
          "velocity": 0.7874015748031497
        },
        {
          "duration": 0.11904749999999353,
          "durationTicks": 40,
          "midi": 31,
          "name": "G1",
          "ticks": 43680,
          "time": 129.99987000000002,
          "velocity": 0.7874015748031497
        },
        {
          "duration": 0.11904750000002196,
          "durationTicks": 40,
          "midi": 31,
          "name": "G1",
          "ticks": 43728,
          "time": 130.142727,
          "velocity": 0.7874015748031497
        },
        {
          "duration": 0.2619045000000142,
          "durationTicks": 88,
          "midi": 31,
          "name": "G1",
          "ticks": 43776,
          "time": 130.285584,
          "velocity": 0.7874015748031497
        },
        {
          "duration": 0.2619045000000142,
          "durationTicks": 88,
          "midi": 31,
          "name": "G1",
          "ticks": 43872,
          "time": 130.571298,
          "velocity": 0.7874015748031497
        },
        {
          "duration": 0.11904750000002196,
          "durationTicks": 40,
          "midi": 31,
          "name": "G1",
          "ticks": 43968,
          "time": 130.857012,
          "velocity": 0.7874015748031497
        },
        {
          "duration": 0.11904749999999353,
          "durationTicks": 40,
          "midi": 31,
          "name": "G1",
          "ticks": 44016,
          "time": 130.99986900000002,
          "velocity": 0.7874015748031497
        },
        {
          "duration": 0.11904749999999353,
          "durationTicks": 40,
          "midi": 31,
          "name": "G1",
          "ticks": 44064,
          "time": 131.142726,
          "velocity": 0.7874015748031497
        },
        {
          "duration": 0.11904750000002196,
          "durationTicks": 40,
          "midi": 31,
          "name": "G1",
          "ticks": 44112,
          "time": 131.285583,
          "velocity": 0.7874015748031497
        },
        {
          "duration": 0.11904749999999353,
          "durationTicks": 40,
          "midi": 31,
          "name": "G1",
          "ticks": 44160,
          "time": 131.42844000000002,
          "velocity": 0.7874015748031497
        },
        {
          "duration": 0.023809499999998707,
          "durationTicks": 8,
          "midi": 31,
          "name": "G1",
          "ticks": 44208,
          "time": 131.57129700000002,
          "velocity": 0.7874015748031497
        },
        {
          "duration": 0.023809499999998707,
          "durationTicks": 8,
          "midi": 31,
          "name": "G1",
          "ticks": 44224,
          "time": 131.618916,
          "velocity": 0.7874015748031497
        },
        {
          "duration": 0.023809499999998707,
          "durationTicks": 8,
          "midi": 31,
          "name": "G1",
          "ticks": 44240,
          "time": 131.666535,
          "velocity": 0.7874015748031497
        },
        {
          "duration": 0.04761899999999741,
          "durationTicks": 16,
          "midi": 31,
          "name": "G1",
          "ticks": 44256,
          "time": 131.714154,
          "velocity": 0.7874015748031497
        },
        {
          "duration": 0.047619000000025835,
          "durationTicks": 16,
          "midi": 31,
          "name": "G1",
          "ticks": 44280,
          "time": 131.7855825,
          "velocity": 0.7874015748031497
        },
        {
          "duration": 0.11904750000002196,
          "durationTicks": 40,
          "midi": 31,
          "name": "G1",
          "ticks": 44304,
          "time": 131.857011,
          "velocity": 0.7874015748031497
        },
        {
          "duration": 0.023809499999998707,
          "durationTicks": 8,
          "midi": 31,
          "name": "G1",
          "ticks": 44352,
          "time": 131.99986800000002,
          "velocity": 0.7874015748031497
        },
        {
          "duration": 0.023809499999998707,
          "durationTicks": 8,
          "midi": 31,
          "name": "G1",
          "ticks": 44368,
          "time": 132.04748700000002,
          "velocity": 0.7874015748031497
        },
        {
          "duration": 0.023809499999998707,
          "durationTicks": 8,
          "midi": 31,
          "name": "G1",
          "ticks": 44384,
          "time": 132.09510600000002,
          "velocity": 0.7874015748031497
        },
        {
          "duration": 0.11904749999999353,
          "durationTicks": 40,
          "midi": 31,
          "name": "G1",
          "ticks": 44400,
          "time": 132.142725,
          "velocity": 0.7874015748031497
        },
        {
          "duration": 0.023809499999998707,
          "durationTicks": 8,
          "midi": 31,
          "name": "G1",
          "ticks": 44448,
          "time": 132.285582,
          "velocity": 0.7874015748031497
        },
        {
          "duration": 0.023809499999998707,
          "durationTicks": 8,
          "midi": 31,
          "name": "G1",
          "ticks": 44464,
          "time": 132.333201,
          "velocity": 0.7874015748031497
        },
        {
          "duration": 0.02380950000002713,
          "durationTicks": 8,
          "midi": 31,
          "name": "G1",
          "ticks": 44480,
          "time": 132.38082,
          "velocity": 0.7874015748031497
        },
        {
          "duration": 0.023809499999998707,
          "durationTicks": 8,
          "midi": 31,
          "name": "G1",
          "ticks": 44496,
          "time": 132.428439,
          "velocity": 0.7874015748031497
        },
        {
          "duration": 0.023809499999998707,
          "durationTicks": 8,
          "midi": 31,
          "name": "G1",
          "ticks": 44512,
          "time": 132.47605800000002,
          "velocity": 0.7874015748031497
        },
        {
          "duration": 0.02380950000002713,
          "durationTicks": 8,
          "midi": 31,
          "name": "G1",
          "ticks": 44528,
          "time": 132.523677,
          "velocity": 0.7874015748031497
        },
        {
          "duration": 0.13095224999997868,
          "durationTicks": 44,
          "midi": 31,
          "name": "G1",
          "ticks": 44544,
          "time": 132.57129600000002,
          "velocity": 0.7874015748031497
        },
        {
          "duration": 0.13095224999997868,
          "durationTicks": 44,
          "midi": 31,
          "name": "G1",
          "ticks": 44688,
          "time": 132.99986700000002,
          "velocity": 0.7874015748031497
        },
        {
          "duration": 0.05952375000001098,
          "durationTicks": 20,
          "midi": 31,
          "name": "G1",
          "ticks": 44832,
          "time": 133.428438,
          "velocity": 0.7874015748031497
        },
        {
          "duration": 0.059523749999982556,
          "durationTicks": 20,
          "midi": 31,
          "name": "G1",
          "ticks": 44856,
          "time": 133.49986650000002,
          "velocity": 0.7874015748031497
        },
        {
          "duration": 0.059523749999982556,
          "durationTicks": 20,
          "midi": 31,
          "name": "G1",
          "ticks": 44880,
          "time": 133.57129500000002,
          "velocity": 0.7874015748031497
        },
        {
          "duration": 0.059523749999982556,
          "durationTicks": 20,
          "midi": 31,
          "name": "G1",
          "ticks": 44904,
          "time": 133.64272350000002,
          "velocity": 0.7874015748031497
        },
        {
          "duration": 4.559519249999994,
          "durationTicks": 1532,
          "midi": 31,
          "name": "G1",
          "ticks": 44928,
          "time": 133.714152,
          "velocity": 0.7874015748031497
        }
      ],
      "endOfTrackTicks": 47692
    },
    {
      "channel": 14,
      "controlChanges": {
        "6": [
          {
            "number": 6,
            "ticks": 0,
            "time": 0,
            "value": 0.09448818897637795
          },
          {
            "number": 6,
            "ticks": 0,
            "time": 0,
            "value": 0.09448818897637795
          },
          {
            "number": 6,
            "ticks": 0,
            "time": 0,
            "value": 0.09448818897637795
          },
          {
            "number": 6,
            "ticks": 47690,
            "time": 141.934381875,
            "value": 0.09448818897637795
          },
          {
            "number": 6,
            "ticks": 47692,
            "time": 141.94033425,
            "value": 0.09448818897637795
          }
        ],
        "7": [
          {
            "number": 7,
            "ticks": 0,
            "time": 0,
            "value": 0.7874015748031497
          },
          {
            "number": 7,
            "ticks": 0,
            "time": 0,
            "value": 0.7874015748031497
          },
          {
            "number": 7,
            "ticks": 0,
            "time": 0,
            "value": 0.7874015748031497
          },
          {
            "number": 7,
            "ticks": 0,
            "time": 0,
            "value": 0.7874015748031497
          },
          {
            "number": 7,
            "ticks": 47690,
            "time": 141.934381875,
            "value": 0.7874015748031497
          },
          {
            "number": 7,
            "ticks": 47692,
            "time": 141.94033425,
            "value": 0.7874015748031497
          }
        ],
        "10": [
          {
            "number": 10,
            "ticks": 0,
            "time": 0,
            "value": 0.5039370078740157
          },
          {
            "number": 10,
            "ticks": 0,
            "time": 0,
            "value": 0.5039370078740157
          },
          {
            "number": 10,
            "ticks": 0,
            "time": 0,
            "value": 0.5039370078740157
          },
          {
            "number": 10,
            "ticks": 0,
            "time": 0,
            "value": 0.5039370078740157
          },
          {
            "number": 10,
            "ticks": 47690,
            "time": 141.934381875,
            "value": 0.5039370078740157
          },
          {
            "number": 10,
            "ticks": 47692,
            "time": 141.94033425,
            "value": 0.5039370078740157
          }
        ],
        "100": [
          {
            "number": 100,
            "ticks": 0,
            "time": 0,
            "value": 0
          },
          {
            "number": 100,
            "ticks": 0,
            "time": 0,
            "value": 0
          },
          {
            "number": 100,
            "ticks": 0,
            "time": 0,
            "value": 0
          },
          {
            "number": 100,
            "ticks": 47690,
            "time": 141.934381875,
            "value": 0
          },
          {
            "number": 100,
            "ticks": 47692,
            "time": 141.94033425,
            "value": 0
          }
        ],
        "101": [
          {
            "number": 101,
            "ticks": 0,
            "time": 0,
            "value": 0
          },
          {
            "number": 101,
            "ticks": 0,
            "time": 0,
            "value": 0
          },
          {
            "number": 101,
            "ticks": 0,
            "time": 0,
            "value": 0
          },
          {
            "number": 101,
            "ticks": 47690,
            "time": 141.934381875,
            "value": 0
          },
          {
            "number": 101,
            "ticks": 47692,
            "time": 141.94033425,
            "value": 0
          }
        ]
      },
      "pitchBends": [
        {
          "ticks": 0,
          "time": 0,
          "value": 0
        },
        {
          "ticks": 0,
          "time": 0,
          "value": 0
        },
        {
          "ticks": 0,
          "time": 0,
          "value": 0
        },
        {
          "ticks": 0,
          "time": 0,
          "value": 0
        },
        {
          "ticks": 47690,
          "time": 141.934381875,
          "value": 0
        },
        {
          "ticks": 47692,
          "time": 141.94033425,
          "value": 0
        }
      ],
      "instrument": {
        "family": "piano",
        "number": 0,
        "name": "acoustic grand piano"
      },
      "name": "Pad",
      "notes": [
        {
          "duration": 1.142856,
          "durationTicks": 384,
          "midi": 62,
          "name": "D4",
          "ticks": 1920,
          "time": 5.7142800000000005,
          "velocity": 0.4094488188976378
        },
        {
          "duration": 1.142856,
          "durationTicks": 384,
          "midi": 67,
          "name": "G4",
          "ticks": 1920,
          "time": 5.7142800000000005,
          "velocity": 0.4094488188976378
        },
        {
          "duration": 1.142856,
          "durationTicks": 384,
          "midi": 62,
          "name": "D4",
          "ticks": 2304,
          "time": 6.857136000000001,
          "velocity": 0.4094488188976378
        },
        {
          "duration": 1.142856,
          "durationTicks": 384,
          "midi": 66,
          "name": "F#4",
          "ticks": 2304,
          "time": 6.857136000000001,
          "velocity": 0.4094488188976378
        },
        {
          "duration": 1.142856,
          "durationTicks": 384,
          "midi": 65,
          "name": "F4",
          "ticks": 2688,
          "time": 7.999992000000001,
          "velocity": 0.4094488188976378
        },
        {
          "duration": 1.142856,
          "durationTicks": 384,
          "midi": 71,
          "name": "B4",
          "ticks": 3072,
          "time": 9.142848,
          "velocity": 0.4094488188976378
        },
        {
          "duration": 1.142856,
          "durationTicks": 384,
          "midi": 62,
          "name": "D4",
          "ticks": 3072,
          "time": 9.142848,
          "velocity": 0.4094488188976378
        },
        {
          "duration": 1.142856,
          "durationTicks": 384,
          "midi": 65,
          "name": "F4",
          "ticks": 3072,
          "time": 9.142848,
          "velocity": 0.4094488188976378
        },
        {
          "duration": 1.142856,
          "durationTicks": 384,
          "midi": 67,
          "name": "G4",
          "ticks": 3456,
          "time": 10.285704,
          "velocity": 0.4094488188976378
        },
        {
          "duration": 1.142856,
          "durationTicks": 384,
          "midi": 69,
          "name": "A4",
          "ticks": 3840,
          "time": 11.428560000000001,
          "velocity": 0.4094488188976378
        },
        {
          "duration": 2.285712,
          "durationTicks": 768,
          "midi": 69,
          "name": "A4",
          "ticks": 4224,
          "time": 12.571416000000001,
          "velocity": 0.4094488188976378
        },
        {
          "duration": 2.2857119999999984,
          "durationTicks": 768,
          "midi": 69,
          "name": "A4",
          "ticks": 4992,
          "time": 14.857128000000001,
          "velocity": 0.4094488188976378
        },
        {
          "duration": 2.261902499999998,
          "durationTicks": 760,
          "midi": 62,
          "name": "D4",
          "ticks": 18816,
          "time": 55.999944000000006,
          "velocity": 0.6850393700787402
        },
        {
          "duration": 2.261902499999998,
          "durationTicks": 760,
          "midi": 58,
          "name": "A#3",
          "ticks": 18816,
          "time": 55.999944000000006,
          "velocity": 0.6850393700787402
        },
        {
          "duration": 2.261902499999998,
          "durationTicks": 760,
          "midi": 55,
          "name": "G3",
          "ticks": 18816,
          "time": 55.999944000000006,
          "velocity": 0.6850393700787402
        },
        {
          "duration": 1.6904745000000005,
          "durationTicks": 568,
          "midi": 62,
          "name": "D4",
          "ticks": 19584,
          "time": 58.285656,
          "velocity": 0.6850393700787402
        },
        {
          "duration": 1.6904745000000005,
          "durationTicks": 568,
          "midi": 58,
          "name": "A#3",
          "ticks": 19584,
          "time": 58.285656,
          "velocity": 0.6850393700787402
        },
        {
          "duration": 1.6904745000000005,
          "durationTicks": 568,
          "midi": 55,
          "name": "G3",
          "ticks": 19584,
          "time": 58.285656,
          "velocity": 0.6850393700787402
        },
        {
          "duration": 0.5476184999999987,
          "durationTicks": 184,
          "midi": 54,
          "name": "F#3",
          "ticks": 20160,
          "time": 59.99994,
          "velocity": 0.6850393700787402
        },
        {
          "duration": 0.5476184999999987,
          "durationTicks": 184,
          "midi": 62,
          "name": "D4",
          "ticks": 20160,
          "time": 59.99994,
          "velocity": 0.6850393700787402
        },
        {
          "duration": 0.5476184999999987,
          "durationTicks": 184,
          "midi": 57,
          "name": "A3",
          "ticks": 20160,
          "time": 59.99994,
          "velocity": 0.6850393700787402
        },
        {
          "duration": 2.261902499999998,
          "durationTicks": 760,
          "midi": 55,
          "name": "G3",
          "ticks": 20352,
          "time": 60.57136800000001,
          "velocity": 0.6850393700787402
        },
        {
          "duration": 2.261902499999998,
          "durationTicks": 760,
          "midi": 58,
          "name": "A#3",
          "ticks": 20352,
          "time": 60.57136800000001,
          "velocity": 0.6850393700787402
        },
        {
          "duration": 2.261902499999998,
          "durationTicks": 760,
          "midi": 62,
          "name": "D4",
          "ticks": 20352,
          "time": 60.57136800000001,
          "velocity": 0.6850393700787402
        },
        {
          "duration": 2.261902499999998,
          "durationTicks": 760,
          "midi": 58,
          "name": "A#3",
          "ticks": 21120,
          "time": 62.85708,
          "velocity": 0.6850393700787402
        },
        {
          "duration": 2.261902499999998,
          "durationTicks": 760,
          "midi": 62,
          "name": "D4",
          "ticks": 21120,
          "time": 62.85708,
          "velocity": 0.6850393700787402
        },
        {
          "duration": 2.261902499999998,
          "durationTicks": 760,
          "midi": 55,
          "name": "G3",
          "ticks": 21120,
          "time": 62.85708,
          "velocity": 0.6850393700787402
        },
        {
          "duration": 2.261902500000005,
          "durationTicks": 760,
          "midi": 62,
          "name": "D4",
          "ticks": 21888,
          "time": 65.142792,
          "velocity": 0.6850393700787402
        },
        {
          "duration": 2.261902500000005,
          "durationTicks": 760,
          "midi": 55,
          "name": "G3",
          "ticks": 21888,
          "time": 65.142792,
          "velocity": 0.6850393700787402
        },
        {
          "duration": 2.261902500000005,
          "durationTicks": 760,
          "midi": 58,
          "name": "A#3",
          "ticks": 21888,
          "time": 65.142792,
          "velocity": 0.6850393700787402
        },
        {
          "duration": 1.1190465000000103,
          "durationTicks": 376,
          "midi": 67,
          "name": "G4",
          "ticks": 25728,
          "time": 76.571352,
          "velocity": 0.4094488188976378
        },
        {
          "duration": 1.1190465000000103,
          "durationTicks": 376,
          "midi": 70,
          "name": "A#4",
          "ticks": 25728,
          "time": 76.571352,
          "velocity": 0.4094488188976378
        },
        {
          "duration": 1.1190465000000103,
          "durationTicks": 376,
          "midi": 74,
          "name": "D5",
          "ticks": 25728,
          "time": 76.571352,
          "velocity": 0.4094488188976378
        },
        {
          "duration": 1.119046499999996,
          "durationTicks": 376,
          "midi": 72,
          "name": "C5",
          "ticks": 26112,
          "time": 77.71420800000001,
          "velocity": 0.4094488188976378
        },
        {
          "duration": 1.1190465000000103,
          "durationTicks": 376,
          "midi": 74,
          "name": "D5",
          "ticks": 26496,
          "time": 78.85706400000001,
          "velocity": 0.4094488188976378
        },
        {
          "duration": 1.1190465000000103,
          "durationTicks": 376,
          "midi": 65,
          "name": "F4",
          "ticks": 26496,
          "time": 78.85706400000001,
          "velocity": 0.4094488188976378
        },
        {
          "duration": 1.1190465000000103,
          "durationTicks": 376,
          "midi": 74,
          "name": "D5",
          "ticks": 26880,
          "time": 79.99992,
          "velocity": 0.4094488188976378
        },
        {
          "duration": 1.1190465000000103,
          "durationTicks": 376,
          "midi": 71,
          "name": "B4",
          "ticks": 26880,
          "time": 79.99992,
          "velocity": 0.4094488188976378
        },
        {
          "duration": 1.119046499999996,
          "durationTicks": 376,
          "midi": 67,
          "name": "G4",
          "ticks": 27264,
          "time": 81.14277600000001,
          "velocity": 0.4094488188976378
        },
        {
          "duration": 1.1190465000000103,
          "durationTicks": 376,
          "midi": 69,
          "name": "A4",
          "ticks": 27648,
          "time": 82.285632,
          "velocity": 0.4094488188976378
        },
        {
          "duration": 1.1190465000000103,
          "durationTicks": 376,
          "midi": 67,
          "name": "G4",
          "ticks": 27648,
          "time": 82.285632,
          "velocity": 0.4094488188976378
        },
        {
          "duration": 1.1190465000000103,
          "durationTicks": 376,
          "midi": 67,
          "name": "G4",
          "ticks": 28032,
          "time": 83.428488,
          "velocity": 0.4094488188976378
        },
        {
          "duration": 1.1190465000000103,
          "durationTicks": 376,
          "midi": 69,
          "name": "A4",
          "ticks": 28032,
          "time": 83.428488,
          "velocity": 0.4094488188976378
        },
        {
          "duration": 1.119046499999996,
          "durationTicks": 376,
          "midi": 74,
          "name": "D5",
          "ticks": 28416,
          "time": 84.57134400000001,
          "velocity": 0.4094488188976378
        },
        {
          "duration": 1.119046499999996,
          "durationTicks": 376,
          "midi": 66,
          "name": "F#4",
          "ticks": 28416,
          "time": 84.57134400000001,
          "velocity": 0.4094488188976378
        },
        {
          "duration": 1.119046499999996,
          "durationTicks": 376,
          "midi": 69,
          "name": "A4",
          "ticks": 28416,
          "time": 84.57134400000001,
          "velocity": 0.4094488188976378
        },
        {
          "duration": 1.1190465000000103,
          "durationTicks": 376,
          "midi": 67,
          "name": "G4",
          "ticks": 28800,
          "time": 85.7142,
          "velocity": 0.4094488188976378
        },
        {
          "duration": 1.1190465000000103,
          "durationTicks": 376,
          "midi": 69,
          "name": "A4",
          "ticks": 28800,
          "time": 85.7142,
          "velocity": 0.4094488188976378
        },
        {
          "duration": 1.1190465000000103,
          "durationTicks": 376,
          "midi": 74,
          "name": "D5",
          "ticks": 28800,
          "time": 85.7142,
          "velocity": 0.4094488188976378
        },
        {
          "duration": 1.1190465000000103,
          "durationTicks": 376,
          "midi": 66,
          "name": "F#4",
          "ticks": 29184,
          "time": 86.857056,
          "velocity": 0.4094488188976378
        },
        {
          "duration": 1.1190465000000103,
          "durationTicks": 376,
          "midi": 69,
          "name": "A4",
          "ticks": 29184,
          "time": 86.857056,
          "velocity": 0.4094488188976378
        },
        {
          "duration": 1.1190465000000103,
          "durationTicks": 376,
          "midi": 74,
          "name": "D5",
          "ticks": 29184,
          "time": 86.857056,
          "velocity": 0.4094488188976378
        },
        {
          "duration": 1.1279750624999991,
          "durationTicks": 379,
          "midi": 46,
          "name": "A#2",
          "ticks": 32640,
          "time": 97.14276000000001,
          "velocity": 0.6456692913385826
        },
        {
          "duration": 1.1279750624999991,
          "durationTicks": 379,
          "midi": 50,
          "name": "D3",
          "ticks": 32640,
          "time": 97.14276000000001,
          "velocity": 0.6456692913385826
        },
        {
          "duration": 1.1279750624999991,
          "durationTicks": 379,
          "midi": 55,
          "name": "G3",
          "ticks": 32640,
          "time": 97.14276000000001,
          "velocity": 0.6456692913385826
        },
        {
          "duration": 1.1279750625000133,
          "durationTicks": 379,
          "midi": 48,
          "name": "C3",
          "ticks": 33024,
          "time": 98.285616,
          "velocity": 0.6456692913385826
        },
        {
          "duration": 1.1279750625000133,
          "durationTicks": 379,
          "midi": 57,
          "name": "A3",
          "ticks": 33024,
          "time": 98.285616,
          "velocity": 0.6456692913385826
        },
        {
          "duration": 1.1279750625000133,
          "durationTicks": 379,
          "midi": 54,
          "name": "F#3",
          "ticks": 33024,
          "time": 98.285616,
          "velocity": 0.6456692913385826
        },
        {
          "duration": 1.1279750624999991,
          "durationTicks": 379,
          "midi": 55,
          "name": "G3",
          "ticks": 33408,
          "time": 99.42847200000001,
          "velocity": 0.6456692913385826
        },
        {
          "duration": 1.1279750624999991,
          "durationTicks": 379,
          "midi": 53,
          "name": "F3",
          "ticks": 33408,
          "time": 99.42847200000001,
          "velocity": 0.6456692913385826
        },
        {
          "duration": 1.1279750624999991,
          "durationTicks": 379,
          "midi": 50,
          "name": "D3",
          "ticks": 33408,
          "time": 99.42847200000001,
          "velocity": 0.6456692913385826
        },
        {
          "duration": 1.1279750624999991,
          "durationTicks": 379,
          "midi": 59,
          "name": "B3",
          "ticks": 33408,
          "time": 99.42847200000001,
          "velocity": 0.6456692913385826
        },
        {
          "duration": 1.1279750624999991,
          "durationTicks": 379,
          "midi": 60,
          "name": "C4",
          "ticks": 33792,
          "time": 100.57132800000001,
          "velocity": 0.6456692913385826
        },
        {
          "duration": 1.1279750624999991,
          "durationTicks": 379,
          "midi": 55,
          "name": "G3",
          "ticks": 33792,
          "time": 100.57132800000001,
          "velocity": 0.6456692913385826
        },
        {
          "duration": 1.1279750624999991,
          "durationTicks": 379,
          "midi": 51,
          "name": "D#3",
          "ticks": 33792,
          "time": 100.57132800000001,
          "velocity": 0.6456692913385826
        },
        {
          "duration": 1.1279750625000133,
          "durationTicks": 379,
          "midi": 60,
          "name": "C4",
          "ticks": 34176,
          "time": 101.714184,
          "velocity": 0.6456692913385826
        },
        {
          "duration": 1.1279750625000133,
          "durationTicks": 379,
          "midi": 55,
          "name": "G3",
          "ticks": 34176,
          "time": 101.714184,
          "velocity": 0.6456692913385826
        },
        {
          "duration": 1.1279750625000133,
          "durationTicks": 379,
          "midi": 51,
          "name": "D#3",
          "ticks": 34176,
          "time": 101.714184,
          "velocity": 0.6456692913385826
        },
        {
          "duration": 1.1279750624999991,
          "durationTicks": 379,
          "midi": 55,
          "name": "G3",
          "ticks": 34560,
          "time": 102.85704000000001,
          "velocity": 0.6456692913385826
        },
        {
          "duration": 1.1279750624999991,
          "durationTicks": 379,
          "midi": 58,
          "name": "A#3",
          "ticks": 34560,
          "time": 102.85704000000001,
          "velocity": 0.6456692913385826
        },
        {
          "duration": 1.1279750624999991,
          "durationTicks": 379,
          "midi": 50,
          "name": "D3",
          "ticks": 34560,
          "time": 102.85704000000001,
          "velocity": 0.6456692913385826
        },
        {
          "duration": 1.1279750625000133,
          "durationTicks": 379,
          "midi": 49,
          "name": "C#3",
          "ticks": 34944,
          "time": 103.999896,
          "velocity": 0.6456692913385826
        },
        {
          "duration": 1.1279750625000133,
          "durationTicks": 379,
          "midi": 57,
          "name": "A3",
          "ticks": 34944,
          "time": 103.999896,
          "velocity": 0.6456692913385826
        },
        {
          "duration": 1.1279750625000133,
          "durationTicks": 379,
          "midi": 52,
          "name": "E3",
          "ticks": 34944,
          "time": 103.999896,
          "velocity": 0.6456692913385826
        },
        {
          "duration": 1.1279750625000133,
          "durationTicks": 379,
          "midi": 55,
          "name": "G3",
          "ticks": 34944,
          "time": 103.999896,
          "velocity": 0.6456692913385826
        },
        {
          "duration": 1.1279750625000133,
          "durationTicks": 379,
          "midi": 57,
          "name": "A3",
          "ticks": 35328,
          "time": 105.142752,
          "velocity": 0.6456692913385826
        },
        {
          "duration": 1.1279750625000133,
          "durationTicks": 379,
          "midi": 54,
          "name": "F#3",
          "ticks": 35328,
          "time": 105.142752,
          "velocity": 0.6456692913385826
        },
        {
          "duration": 1.1279750625000133,
          "durationTicks": 379,
          "midi": 50,
          "name": "D3",
          "ticks": 35328,
          "time": 105.142752,
          "velocity": 0.6456692913385826
        },
        {
          "duration": 1.1279750624999991,
          "durationTicks": 379,
          "midi": 46,
          "name": "A#2",
          "ticks": 35712,
          "time": 106.28560800000001,
          "velocity": 0.6456692913385826
        },
        {
          "duration": 1.1279750624999991,
          "durationTicks": 379,
          "midi": 50,
          "name": "D3",
          "ticks": 35712,
          "time": 106.28560800000001,
          "velocity": 0.6456692913385826
        },
        {
          "duration": 1.1279750624999991,
          "durationTicks": 379,
          "midi": 55,
          "name": "G3",
          "ticks": 35712,
          "time": 106.28560800000001,
          "velocity": 0.6456692913385826
        },
        {
          "duration": 1.1279750625000133,
          "durationTicks": 379,
          "midi": 54,
          "name": "F#3",
          "ticks": 36096,
          "time": 107.428464,
          "velocity": 0.6456692913385826
        },
        {
          "duration": 1.1279750625000133,
          "durationTicks": 379,
          "midi": 57,
          "name": "A3",
          "ticks": 36096,
          "time": 107.428464,
          "velocity": 0.6456692913385826
        },
        {
          "duration": 1.1279750625000133,
          "durationTicks": 379,
          "midi": 48,
          "name": "C3",
          "ticks": 36096,
          "time": 107.428464,
          "velocity": 0.6456692913385826
        },
        {
          "duration": 1.1279750624999991,
          "durationTicks": 379,
          "midi": 55,
          "name": "G3",
          "ticks": 36480,
          "time": 108.57132000000001,
          "velocity": 0.6456692913385826
        },
        {
          "duration": 1.1279750624999991,
          "durationTicks": 379,
          "midi": 53,
          "name": "F3",
          "ticks": 36480,
          "time": 108.57132000000001,
          "velocity": 0.6456692913385826
        },
        {
          "duration": 1.1279750624999991,
          "durationTicks": 379,
          "midi": 50,
          "name": "D3",
          "ticks": 36480,
          "time": 108.57132000000001,
          "velocity": 0.6456692913385826
        },
        {
          "duration": 1.1279750624999991,
          "durationTicks": 379,
          "midi": 59,
          "name": "B3",
          "ticks": 36480,
          "time": 108.57132000000001,
          "velocity": 0.6456692913385826
        },
        {
          "duration": 1.1279750624999991,
          "durationTicks": 379,
          "midi": 60,
          "name": "C4",
          "ticks": 36864,
          "time": 109.71417600000001,
          "velocity": 0.6456692913385826
        },
        {
          "duration": 1.1279750624999991,
          "durationTicks": 379,
          "midi": 55,
          "name": "G3",
          "ticks": 36864,
          "time": 109.71417600000001,
          "velocity": 0.6456692913385826
        },
        {
          "duration": 1.1279750624999991,
          "durationTicks": 379,
          "midi": 51,
          "name": "D#3",
          "ticks": 36864,
          "time": 109.71417600000001,
          "velocity": 0.6456692913385826
        },
        {
          "duration": 1.1279750625000133,
          "durationTicks": 379,
          "midi": 60,
          "name": "C4",
          "ticks": 37248,
          "time": 110.857032,
          "velocity": 0.6456692913385826
        },
        {
          "duration": 1.1279750625000133,
          "durationTicks": 379,
          "midi": 55,
          "name": "G3",
          "ticks": 37248,
          "time": 110.857032,
          "velocity": 0.6456692913385826
        },
        {
          "duration": 1.1279750625000133,
          "durationTicks": 379,
          "midi": 51,
          "name": "D#3",
          "ticks": 37248,
          "time": 110.857032,
          "velocity": 0.6456692913385826
        },
        {
          "duration": 1.1279750624999991,
          "durationTicks": 379,
          "midi": 58,
          "name": "A#3",
          "ticks": 37632,
          "time": 111.99988800000001,
          "velocity": 0.6456692913385826
        },
        {
          "duration": 1.1279750624999991,
          "durationTicks": 379,
          "midi": 50,
          "name": "D3",
          "ticks": 37632,
          "time": 111.99988800000001,
          "velocity": 0.6456692913385826
        },
        {
          "duration": 1.1279750624999991,
          "durationTicks": 379,
          "midi": 55,
          "name": "G3",
          "ticks": 37632,
          "time": 111.99988800000001,
          "velocity": 0.6456692913385826
        },
        {
          "duration": 1.1279750625000133,
          "durationTicks": 379,
          "midi": 55,
          "name": "G3",
          "ticks": 38016,
          "time": 113.14274400000001,
          "velocity": 0.6456692913385826
        },
        {
          "duration": 1.1279750625000133,
          "durationTicks": 379,
          "midi": 50,
          "name": "D3",
          "ticks": 38016,
          "time": 113.14274400000001,
          "velocity": 0.6456692913385826
        },
        {
          "duration": 1.1279750625000133,
          "durationTicks": 379,
          "midi": 57,
          "name": "A3",
          "ticks": 38016,
          "time": 113.14274400000001,
          "velocity": 0.6456692913385826
        },
        {
          "duration": 1.1279750624999991,
          "durationTicks": 379,
          "midi": 50,
          "name": "D3",
          "ticks": 38400,
          "time": 114.28560000000002,
          "velocity": 0.6456692913385826
        },
        {
          "duration": 1.1279750624999991,
          "durationTicks": 379,
          "midi": 57,
          "name": "A3",
          "ticks": 38400,
          "time": 114.28560000000002,
          "velocity": 0.6456692913385826
        },
        {
          "duration": 1.1279750624999991,
          "durationTicks": 379,
          "midi": 54,
          "name": "F#3",
          "ticks": 38400,
          "time": 114.28560000000002,
          "velocity": 0.6456692913385826
        },
        {
          "duration": 0.9851180625000069,
          "durationTicks": 331,
          "midi": 55,
          "name": "G3",
          "ticks": 38832,
          "time": 115.571313,
          "velocity": 0.6456692913385826
        },
        {
          "duration": 0.9851180625000069,
          "durationTicks": 331,
          "midi": 50,
          "name": "D3",
          "ticks": 38832,
          "time": 115.571313,
          "velocity": 0.6456692913385826
        },
        {
          "duration": 0.9851180625000069,
          "durationTicks": 331,
          "midi": 46,
          "name": "A#2",
          "ticks": 38832,
          "time": 115.571313,
          "velocity": 0.6456692913385826
        },
        {
          "duration": 1.1279750625000133,
          "durationTicks": 379,
          "midi": 48,
          "name": "C3",
          "ticks": 39168,
          "time": 116.571312,
          "velocity": 0.6456692913385826
        },
        {
          "duration": 1.1279750625000133,
          "durationTicks": 379,
          "midi": 54,
          "name": "F#3",
          "ticks": 39168,
          "time": 116.571312,
          "velocity": 0.6456692913385826
        },
        {
          "duration": 1.1279750625000133,
          "durationTicks": 379,
          "midi": 57,
          "name": "A3",
          "ticks": 39168,
          "time": 116.571312,
          "velocity": 0.6456692913385826
        },
        {
          "duration": 1.1279750624999991,
          "durationTicks": 379,
          "midi": 59,
          "name": "B3",
          "ticks": 39552,
          "time": 117.71416800000002,
          "velocity": 0.6456692913385826
        },
        {
          "duration": 1.1279750624999991,
          "durationTicks": 379,
          "midi": 50,
          "name": "D3",
          "ticks": 39552,
          "time": 117.71416800000002,
          "velocity": 0.6456692913385826
        },
        {
          "duration": 1.1279750624999991,
          "durationTicks": 379,
          "midi": 53,
          "name": "F3",
          "ticks": 39552,
          "time": 117.71416800000002,
          "velocity": 0.6456692913385826
        },
        {
          "duration": 1.1279750624999991,
          "durationTicks": 379,
          "midi": 55,
          "name": "G3",
          "ticks": 39552,
          "time": 117.71416800000002,
          "velocity": 0.6456692913385826
        },
        {
          "duration": 1.1279750624999991,
          "durationTicks": 379,
          "midi": 60,
          "name": "C4",
          "ticks": 39936,
          "time": 118.85702400000001,
          "velocity": 0.6456692913385826
        },
        {
          "duration": 1.1279750624999991,
          "durationTicks": 379,
          "midi": 55,
          "name": "G3",
          "ticks": 39936,
          "time": 118.85702400000001,
          "velocity": 0.6456692913385826
        },
        {
          "duration": 1.1279750624999991,
          "durationTicks": 379,
          "midi": 51,
          "name": "D#3",
          "ticks": 39936,
          "time": 118.85702400000001,
          "velocity": 0.6456692913385826
        },
        {
          "duration": 1.1279750625000133,
          "durationTicks": 379,
          "midi": 51,
          "name": "D#3",
          "ticks": 40320,
          "time": 119.99988,
          "velocity": 0.6456692913385826
        },
        {
          "duration": 1.1279750625000133,
          "durationTicks": 379,
          "midi": 55,
          "name": "G3",
          "ticks": 40320,
          "time": 119.99988,
          "velocity": 0.6456692913385826
        },
        {
          "duration": 1.1279750625000133,
          "durationTicks": 379,
          "midi": 60,
          "name": "C4",
          "ticks": 40320,
          "time": 119.99988,
          "velocity": 0.6456692913385826
        },
        {
          "duration": 1.1279750624999991,
          "durationTicks": 379,
          "midi": 55,
          "name": "G3",
          "ticks": 40704,
          "time": 121.14273600000001,
          "velocity": 0.6456692913385826
        },
        {
          "duration": 1.1279750624999991,
          "durationTicks": 379,
          "midi": 58,
          "name": "A#3",
          "ticks": 40704,
          "time": 121.14273600000001,
          "velocity": 0.6456692913385826
        },
        {
          "duration": 1.1279750624999991,
          "durationTicks": 379,
          "midi": 50,
          "name": "D3",
          "ticks": 40704,
          "time": 121.14273600000001,
          "velocity": 0.6456692913385826
        },
        {
          "duration": 1.1279750625000133,
          "durationTicks": 379,
          "midi": 49,
          "name": "C#3",
          "ticks": 41088,
          "time": 122.28559200000001,
          "velocity": 0.6456692913385826
        },
        {
          "duration": 1.1279750625000133,
          "durationTicks": 379,
          "midi": 57,
          "name": "A3",
          "ticks": 41088,
          "time": 122.28559200000001,
          "velocity": 0.6456692913385826
        },
        {
          "duration": 1.1279750625000133,
          "durationTicks": 379,
          "midi": 52,
          "name": "E3",
          "ticks": 41088,
          "time": 122.28559200000001,
          "velocity": 0.6456692913385826
        },
        {
          "duration": 1.1279750625000133,
          "durationTicks": 379,
          "midi": 55,
          "name": "G3",
          "ticks": 41088,
          "time": 122.28559200000001,
          "velocity": 0.6456692913385826
        },
        {
          "duration": 1.1279750625000133,
          "durationTicks": 379,
          "midi": 50,
          "name": "D3",
          "ticks": 41472,
          "time": 123.428448,
          "velocity": 0.6456692913385826
        },
        {
          "duration": 1.1279750625000133,
          "durationTicks": 379,
          "midi": 54,
          "name": "F#3",
          "ticks": 41472,
          "time": 123.428448,
          "velocity": 0.6456692913385826
        },
        {
          "duration": 1.1279750625000133,
          "durationTicks": 379,
          "midi": 57,
          "name": "A3",
          "ticks": 41472,
          "time": 123.428448,
          "velocity": 0.6456692913385826
        },
        {
          "duration": 1.1279750624999991,
          "durationTicks": 379,
          "midi": 46,
          "name": "A#2",
          "ticks": 41856,
          "time": 124.57130400000001,
          "velocity": 0.6456692913385826
        },
        {
          "duration": 1.1279750624999991,
          "durationTicks": 379,
          "midi": 50,
          "name": "D3",
          "ticks": 41856,
          "time": 124.57130400000001,
          "velocity": 0.6456692913385826
        },
        {
          "duration": 1.1279750624999991,
          "durationTicks": 379,
          "midi": 55,
          "name": "G3",
          "ticks": 41856,
          "time": 124.57130400000001,
          "velocity": 0.6456692913385826
        },
        {
          "duration": 1.1279750625000133,
          "durationTicks": 379,
          "midi": 48,
          "name": "C3",
          "ticks": 42240,
          "time": 125.71416,
          "velocity": 0.6456692913385826
        },
        {
          "duration": 1.1279750625000133,
          "durationTicks": 379,
          "midi": 57,
          "name": "A3",
          "ticks": 42240,
          "time": 125.71416,
          "velocity": 0.6456692913385826
        },
        {
          "duration": 1.1279750625000133,
          "durationTicks": 379,
          "midi": 54,
          "name": "F#3",
          "ticks": 42240,
          "time": 125.71416,
          "velocity": 0.6456692913385826
        },
        {
          "duration": 1.1279750624999991,
          "durationTicks": 379,
          "midi": 55,
          "name": "G3",
          "ticks": 42624,
          "time": 126.85701600000002,
          "velocity": 0.6456692913385826
        },
        {
          "duration": 1.1279750624999991,
          "durationTicks": 379,
          "midi": 53,
          "name": "F3",
          "ticks": 42624,
          "time": 126.85701600000002,
          "velocity": 0.6456692913385826
        },
        {
          "duration": 1.1279750624999991,
          "durationTicks": 379,
          "midi": 50,
          "name": "D3",
          "ticks": 42624,
          "time": 126.85701600000002,
          "velocity": 0.6456692913385826
        },
        {
          "duration": 1.1279750624999991,
          "durationTicks": 379,
          "midi": 59,
          "name": "B3",
          "ticks": 42624,
          "time": 126.85701600000002,
          "velocity": 0.6456692913385826
        },
        {
          "duration": 1.1279750625000133,
          "durationTicks": 379,
          "midi": 51,
          "name": "D#3",
          "ticks": 43008,
          "time": 127.99987200000001,
          "velocity": 0.6456692913385826
        },
        {
          "duration": 1.1279750625000133,
          "durationTicks": 379,
          "midi": 55,
          "name": "G3",
          "ticks": 43008,
          "time": 127.99987200000001,
          "velocity": 0.6456692913385826
        },
        {
          "duration": 1.1279750625000133,
          "durationTicks": 379,
          "midi": 60,
          "name": "C4",
          "ticks": 43008,
          "time": 127.99987200000001,
          "velocity": 0.6456692913385826
        },
        {
          "duration": 1.1279750625000133,
          "durationTicks": 379,
          "midi": 51,
          "name": "D#3",
          "ticks": 43392,
          "time": 129.142728,
          "velocity": 0.6456692913385826
        },
        {
          "duration": 1.1279750625000133,
          "durationTicks": 379,
          "midi": 55,
          "name": "G3",
          "ticks": 43392,
          "time": 129.142728,
          "velocity": 0.6456692913385826
        },
        {
          "duration": 1.1279750625000133,
          "durationTicks": 379,
          "midi": 60,
          "name": "C4",
          "ticks": 43392,
          "time": 129.142728,
          "velocity": 0.6456692913385826
        },
        {
          "duration": 1.1279750625000133,
          "durationTicks": 379,
          "midi": 50,
          "name": "D3",
          "ticks": 43776,
          "time": 130.285584,
          "velocity": 0.6456692913385826
        },
        {
          "duration": 1.1279750625000133,
          "durationTicks": 379,
          "midi": 58,
          "name": "A#3",
          "ticks": 43776,
          "time": 130.285584,
          "velocity": 0.6456692913385826
        },
        {
          "duration": 1.1279750625000133,
          "durationTicks": 379,
          "midi": 55,
          "name": "G3",
          "ticks": 43776,
          "time": 130.285584,
          "velocity": 0.6456692913385826
        },
        {
          "duration": 1.127975062499985,
          "durationTicks": 379,
          "midi": 57,
          "name": "A3",
          "ticks": 44160,
          "time": 131.42844000000002,
          "velocity": 0.6456692913385826
        },
        {
          "duration": 1.127975062499985,
          "durationTicks": 379,
          "midi": 55,
          "name": "G3",
          "ticks": 44160,
          "time": 131.42844000000002,
          "velocity": 0.6456692913385826
        },
        {
          "duration": 1.1071417499999825,
          "durationTicks": 372,
          "midi": 50,
          "name": "D3",
          "ticks": 44160,
          "time": 131.42844000000002,
          "velocity": 0.6456692913385826
        },
        {
          "duration": 0.1279760625000108,
          "durationTicks": 43,
          "midi": 50,
          "name": "D3",
          "ticks": 44544,
          "time": 132.57129600000002,
          "velocity": 0.6456692913385826
        },
        {
          "duration": 0.1279760625000108,
          "durationTicks": 43,
          "midi": 57,
          "name": "A3",
          "ticks": 44544,
          "time": 132.57129600000002,
          "velocity": 0.6456692913385826
        },
        {
          "duration": 0.1279760625000108,
          "durationTicks": 43,
          "midi": 54,
          "name": "F#3",
          "ticks": 44544,
          "time": 132.57129600000002,
          "velocity": 0.6456692913385826
        },
        {
          "duration": 0.1279760624999824,
          "durationTicks": 43,
          "midi": 54,
          "name": "F#3",
          "ticks": 44688,
          "time": 132.99986700000002,
          "velocity": 0.6456692913385826
        },
        {
          "duration": 0.1279760624999824,
          "durationTicks": 43,
          "midi": 57,
          "name": "A3",
          "ticks": 44688,
          "time": 132.99986700000002,
          "velocity": 0.6456692913385826
        },
        {
          "duration": 0.1279760624999824,
          "durationTicks": 43,
          "midi": 50,
          "name": "D3",
          "ticks": 44688,
          "time": 132.99986700000002,
          "velocity": 0.6456692913385826
        },
        {
          "duration": 0.27083306250000305,
          "durationTicks": 91,
          "midi": 54,
          "name": "F#3",
          "ticks": 44832,
          "time": 133.428438,
          "velocity": 0.6456692913385826
        },
        {
          "duration": 0.27083306250000305,
          "durationTicks": 91,
          "midi": 57,
          "name": "A3",
          "ticks": 44832,
          "time": 133.428438,
          "velocity": 0.6456692913385826
        },
        {
          "duration": 0.27083306250000305,
          "durationTicks": 91,
          "midi": 50,
          "name": "D3",
          "ticks": 44832,
          "time": 133.428438,
          "velocity": 0.6456692913385826
        },
        {
          "duration": 4.556543062499998,
          "durationTicks": 1531,
          "midi": 58,
          "name": "A#3",
          "ticks": 44928,
          "time": 133.714152,
          "velocity": 0.6456692913385826
        },
        {
          "duration": 4.556543062499998,
          "durationTicks": 1531,
          "midi": 46,
          "name": "A#2",
          "ticks": 44928,
          "time": 133.714152,
          "velocity": 0.6456692913385826
        },
        {
          "duration": 4.556543062499998,
          "durationTicks": 1531,
          "midi": 50,
          "name": "D3",
          "ticks": 44928,
          "time": 133.714152,
          "velocity": 0.6456692913385826
        },
        {
          "duration": 4.556543062499998,
          "durationTicks": 1531,
          "midi": 55,
          "name": "G3",
          "ticks": 44928,
          "time": 133.714152,
          "velocity": 0.6456692913385826
        }
      ],
      "endOfTrackTicks": 47692
    },
    {
      "channel": 0,
      "controlChanges": {
        "6": [
          {
            "number": 6,
            "ticks": 0,
            "time": 0,
            "value": 0.09448818897637795
          },
          {
            "number": 6,
            "ticks": 0,
            "time": 0,
            "value": 0.09448818897637795
          },
          {
            "number": 6,
            "ticks": 0,
            "time": 0,
            "value": 0.09448818897637795
          },
          {
            "number": 6,
            "ticks": 47690,
            "time": 141.934381875,
            "value": 0.09448818897637795
          },
          {
            "number": 6,
            "ticks": 47692,
            "time": 141.94033425,
            "value": 0.09448818897637795
          }
        ],
        "7": [
          {
            "number": 7,
            "ticks": 0,
            "time": 0,
            "value": 0.7874015748031497
          },
          {
            "number": 7,
            "ticks": 0,
            "time": 0,
            "value": 0.7874015748031497
          },
          {
            "number": 7,
            "ticks": 0,
            "time": 0,
            "value": 0.7874015748031497
          },
          {
            "number": 7,
            "ticks": 0,
            "time": 0,
            "value": 0.7874015748031497
          },
          {
            "number": 7,
            "ticks": 47690,
            "time": 141.934381875,
            "value": 0.7874015748031497
          },
          {
            "number": 7,
            "ticks": 47692,
            "time": 141.94033425,
            "value": 0.7874015748031497
          }
        ],
        "10": [
          {
            "number": 10,
            "ticks": 0,
            "time": 0,
            "value": 0.5039370078740157
          },
          {
            "number": 10,
            "ticks": 0,
            "time": 0,
            "value": 0.5039370078740157
          },
          {
            "number": 10,
            "ticks": 0,
            "time": 0,
            "value": 0.5039370078740157
          },
          {
            "number": 10,
            "ticks": 0,
            "time": 0,
            "value": 0.5039370078740157
          },
          {
            "number": 10,
            "ticks": 47690,
            "time": 141.934381875,
            "value": 0.5039370078740157
          },
          {
            "number": 10,
            "ticks": 47692,
            "time": 141.94033425,
            "value": 0.5039370078740157
          }
        ],
        "100": [
          {
            "number": 100,
            "ticks": 0,
            "time": 0,
            "value": 0
          },
          {
            "number": 100,
            "ticks": 0,
            "time": 0,
            "value": 0
          },
          {
            "number": 100,
            "ticks": 0,
            "time": 0,
            "value": 0
          },
          {
            "number": 100,
            "ticks": 47690,
            "time": 141.934381875,
            "value": 0
          },
          {
            "number": 100,
            "ticks": 47692,
            "time": 141.94033425,
            "value": 0
          }
        ],
        "101": [
          {
            "number": 101,
            "ticks": 0,
            "time": 0,
            "value": 0
          },
          {
            "number": 101,
            "ticks": 0,
            "time": 0,
            "value": 0
          },
          {
            "number": 101,
            "ticks": 0,
            "time": 0,
            "value": 0
          },
          {
            "number": 101,
            "ticks": 47690,
            "time": 141.934381875,
            "value": 0
          },
          {
            "number": 101,
            "ticks": 47692,
            "time": 141.94033425,
            "value": 0
          }
        ]
      },
      "pitchBends": [
        {
          "ticks": 0,
          "time": 0,
          "value": 0
        },
        {
          "ticks": 0,
          "time": 0,
          "value": 0
        },
        {
          "ticks": 0,
          "time": 0,
          "value": 0
        },
        {
          "ticks": 0,
          "time": 0,
          "value": 0
        },
        {
          "ticks": 47690,
          "time": 141.934381875,
          "value": 0
        },
        {
          "ticks": 47692,
          "time": 141.94033425,
          "value": 0
        }
      ],
      "instrument": {
        "family": "piano",
        "number": 0,
        "name": "acoustic grand piano"
      },
      "name": "Pad #2",
      "notes": [],
      "endOfTrackTicks": 47692
    },
    {
      "channel": 0,
      "controlChanges": {
        "6": [
          {
            "number": 6,
            "ticks": 0,
            "time": 0,
            "value": 0.09448818897637795
          },
          {
            "number": 6,
            "ticks": 0,
            "time": 0,
            "value": 0.09448818897637795
          },
          {
            "number": 6,
            "ticks": 0,
            "time": 0,
            "value": 0.09448818897637795
          },
          {
            "number": 6,
            "ticks": 47690,
            "time": 141.934381875,
            "value": 0.09448818897637795
          },
          {
            "number": 6,
            "ticks": 47692,
            "time": 141.94033425,
            "value": 0.09448818897637795
          }
        ],
        "7": [
          {
            "number": 7,
            "ticks": 0,
            "time": 0,
            "value": 0.7874015748031497
          },
          {
            "number": 7,
            "ticks": 0,
            "time": 0,
            "value": 0.7874015748031497
          },
          {
            "number": 7,
            "ticks": 0,
            "time": 0,
            "value": 0.7874015748031497
          },
          {
            "number": 7,
            "ticks": 0,
            "time": 0,
            "value": 0.7874015748031497
          },
          {
            "number": 7,
            "ticks": 47690,
            "time": 141.934381875,
            "value": 0.7874015748031497
          },
          {
            "number": 7,
            "ticks": 47692,
            "time": 141.94033425,
            "value": 0.7874015748031497
          }
        ],
        "10": [
          {
            "number": 10,
            "ticks": 0,
            "time": 0,
            "value": 0.5039370078740157
          },
          {
            "number": 10,
            "ticks": 0,
            "time": 0,
            "value": 0.5039370078740157
          },
          {
            "number": 10,
            "ticks": 0,
            "time": 0,
            "value": 0.5039370078740157
          },
          {
            "number": 10,
            "ticks": 0,
            "time": 0,
            "value": 0.5039370078740157
          },
          {
            "number": 10,
            "ticks": 47690,
            "time": 141.934381875,
            "value": 0.5039370078740157
          },
          {
            "number": 10,
            "ticks": 47692,
            "time": 141.94033425,
            "value": 0.5039370078740157
          }
        ],
        "100": [
          {
            "number": 100,
            "ticks": 0,
            "time": 0,
            "value": 0
          },
          {
            "number": 100,
            "ticks": 0,
            "time": 0,
            "value": 0
          },
          {
            "number": 100,
            "ticks": 0,
            "time": 0,
            "value": 0
          },
          {
            "number": 100,
            "ticks": 47690,
            "time": 141.934381875,
            "value": 0
          },
          {
            "number": 100,
            "ticks": 47692,
            "time": 141.94033425,
            "value": 0
          }
        ],
        "101": [
          {
            "number": 101,
            "ticks": 0,
            "time": 0,
            "value": 0
          },
          {
            "number": 101,
            "ticks": 0,
            "time": 0,
            "value": 0
          },
          {
            "number": 101,
            "ticks": 0,
            "time": 0,
            "value": 0
          },
          {
            "number": 101,
            "ticks": 47690,
            "time": 141.934381875,
            "value": 0
          },
          {
            "number": 101,
            "ticks": 47692,
            "time": 141.94033425,
            "value": 0
          }
        ]
      },
      "pitchBends": [
        {
          "ticks": 0,
          "time": 0,
          "value": 0
        },
        {
          "ticks": 0,
          "time": 0,
          "value": 0
        },
        {
          "ticks": 0,
          "time": 0,
          "value": 0
        },
        {
          "ticks": 0,
          "time": 0,
          "value": 0
        },
        {
          "ticks": 47690,
          "time": 141.934381875,
          "value": 0
        },
        {
          "ticks": 47692,
          "time": 141.94033425,
          "value": 0
        }
      ],
      "instrument": {
        "family": "piano",
        "number": 0,
        "name": "acoustic grand piano"
      },
      "name": "Close Grand",
      "notes": [],
      "endOfTrackTicks": 47692
    }
  ]
}
