{
  "header": {
    "keySignatures": [],
    "meta": [],
    "name": "",
    "ppq": 96,
    "tempos": [
      {
        "bpm": 175.000072916697,
        "ticks": 0
      }
    ],
    "timeSignatures": [
      {
        "ticks": 0,
        "timeSignature": [4, 4],
        "measures": 0
      }
    ]
  },
  "tracks": [
    {
      "channel": 0,
      "controlChanges": {

      },
      "pitchBends": [],
      "instrument": {
        "family": "piano",
        "number": 0,
        "name": "acoustic grand piano"
      },
      "name": "",
      "notes": [],
      "endOfTrackTicks": 0
    },
    {
      "channel": 0,
      "controlChanges": {
        "6": [
          {
            "number": 6,
            "ticks": 0,
            "time": 0,
            "value": 0.094488188976378
          }
        ],
        "7": [
          {
            "number": 7,
            "ticks": 0,
            "time": 0,
            "value": 1
          },
          {
            "number": 7,
            "ticks": 0,
            "time": 0,
            "value": 1
          }
        ],
        "10": [
          {
            "number": 10,
            "ticks": 0,
            "time": 0,
            "value": 0.503937007874016
          },
          {
            "number": 10,
            "ticks": 0,
            "time": 0,
            "value": 0.503937007874016
          }
        ],
        "100": [
          {
            "number": 100,
            "ticks": 0,
            "time": 0,
            "value": 0
          }
        ],
        "101": [
          {
            "number": 101,
            "ticks": 0,
            "time": 0,
            "value": 0
          }
        ]
      },
      "pitchBends": [
        {
          "ticks": 0,
          "time": 0,
          "value": 0
        },
        {
          "ticks": 0,
          "time": 0,
          "value": 0
        }
      ],
      "instrument": {
        "family": "piano",
        "number": 0,
        "name": "acoustic grand piano"
      },
      "name": "MIDI out #2",
      "notes": [],
      "endOfTrackTicks": 34177
    },
    {
      "channel": 2,
      "controlChanges": {
        "6": [
          {
            "number": 6,
            "ticks": 0,
            "time": 0,
            "value": 0.094488188976378
          },
          {
            "number": 6,
            "ticks": 0,
            "time": 0,
            "value": 0.094488188976378
          },
          {
            "number": 6,
            "ticks": 34176,
            "time": 122.057092,
            "value": 0.094488188976378
          },
          {
            "number": 6,
            "ticks": 34177,
            "time": 122.060663427083,
            "value": 0.094488188976378
          },
          {
            "number": 6,
            "ticks": 34177,
            "time": 122.060663427083,
            "value": 0.094488188976378
          }
        ],
        "7": [
          {
            "number": 7,
            "ticks": 0,
            "time": 0,
            "value": 1
          },
          {
            "number": 7,
            "ticks": 0,
            "time": 0,
            "value": 1
          },
          {
            "number": 7,
            "ticks": 34176,
            "time": 122.057092,
            "value": 1
          },
          {
            "number": 7,
            "ticks": 34177,
            "time": 122.060663427083,
            "value": 1
          },
          {
            "number": 7,
            "ticks": 34177,
            "time": 122.060663427083,
            "value": 1
          }
        ],
        "10": [
          {
            "number": 10,
            "ticks": 0,
            "time": 0,
            "value": 0.503937007874016
          },
          {
            "number": 10,
            "ticks": 0,
            "time": 0,
            "value": 0.503937007874016
          },
          {
            "number": 10,
            "ticks": 34176,
            "time": 122.057092,
            "value": 0.503937007874016
          },
          {
            "number": 10,
            "ticks": 34177,
            "time": 122.060663427083,
            "value": 0.503937007874016
          },
          {
            "number": 10,
            "ticks": 34177,
            "time": 122.060663427083,
            "value": 0.503937007874016
          }
        ],
        "100": [
          {
            "number": 100,
            "ticks": 0,
            "time": 0,
            "value": 0
          },
          {
            "number": 100,
            "ticks": 0,
            "time": 0,
            "value": 0
          },
          {
            "number": 100,
            "ticks": 34176,
            "time": 122.057092,
            "value": 0
          },
          {
            "number": 100,
            "ticks": 34177,
            "time": 122.060663427083,
            "value": 0
          },
          {
            "number": 100,
            "ticks": 34177,
            "time": 122.060663427083,
            "value": 0
          }
        ],
        "101": [
          {
            "number": 101,
            "ticks": 0,
            "time": 0,
            "value": 0
          },
          {
            "number": 101,
            "ticks": 0,
            "time": 0,
            "value": 0
          },
          {
            "number": 101,
            "ticks": 34176,
            "time": 122.057092,
            "value": 0
          },
          {
            "number": 101,
            "ticks": 34177,
            "time": 122.060663427083,
            "value": 0
          },
          {
            "number": 101,
            "ticks": 34177,
            "time": 122.060663427083,
            "value": 0
          }
        ]
      },
      "pitchBends": [
        {
          "ticks": 0,
          "time": 0,
          "value": 0
        },
        {
          "ticks": 0,
          "time": 0,
          "value": 0
        },
        {
          "ticks": 34176,
          "time": 122.057092,
          "value": 0
        },
        {
          "ticks": 34177,
          "time": 122.060663427083,
          "value": 0
        },
        {
          "ticks": 34177,
          "time": 122.060663427083,
          "value": 0
        }
      ],
      "instrument": {
        "family": "chromatic percussion",
        "number": 8,
        "name": "celesta"
      },
      "name": "",
      "notes": [
        {
          "duration": 0.171428499999999,
          "durationTicks": 48,
          "midi": 74,
          "name": "D5",
          "ticks": 2928,
          "time": 10.4571385,
          "velocity": 0.78740157480315
        },
        {
          "duration": 0.171428500000001,
          "durationTicks": 48,
          "midi": 76,
          "name": "E5",
          "ticks": 2976,
          "time": 10.628567,
          "velocity": 0.78740157480315
        },
        {
          "duration": 0.171428499999999,
          "durationTicks": 48,
          "midi": 77,
          "name": "F5",
          "ticks": 3024,
          "time": 10.7999955,
          "velocity": 0.78740157480315
        },
        {
          "duration": 0.171428499999999,
          "durationTicks": 48,
          "midi": 81,
          "name": "A5",
          "ticks": 3072,
          "time": 10.971424,
          "velocity": 0.78740157480315
        },
        {
          "duration": 0.171428500000001,
          "durationTicks": 48,
          "midi": 81,
          "name": "A5",
          "ticks": 3216,
          "time": 11.4857095,
          "velocity": 0.78740157480315
        },
        {
          "duration": 0.171428499999999,
          "durationTicks": 48,
          "midi": 77,
          "name": "F5",
          "ticks": 3264,
          "time": 11.657138,
          "velocity": 0.78740157480315
        },
        {
          "duration": 0.171428499999999,
          "durationTicks": 48,
          "midi": 81,
          "name": "A5",
          "ticks": 3312,
          "time": 11.8285665,
          "velocity": 0.78740157480315
        },
        {
          "duration": 0.171428500000001,
          "durationTicks": 48,
          "midi": 77,
          "name": "F5",
          "ticks": 3360,
          "time": 11.999995,
          "velocity": 0.78740157480315
        },
        {
          "duration": 0.171428499999999,
          "durationTicks": 48,
          "midi": 76,
          "name": "E5",
          "ticks": 3408,
          "time": 12.1714235,
          "velocity": 0.78740157480315
        },
        {
          "duration": 0.685714000000001,
          "durationTicks": 192,
          "midi": 74,
          "name": "D5",
          "ticks": 3456,
          "time": 12.342852,
          "velocity": 0.78740157480315
        },
        {
          "duration": 0.157142791666667,
          "durationTicks": 44,
          "midi": 86,
          "name": "D6",
          "ticks": 3507,
          "time": 12.52499478125,
          "velocity": 0.503937007874016
        },
        {
          "duration": 0.16071421875,
          "durationTicks": 45,
          "midi": 89,
          "name": "F6",
          "ticks": 3554,
          "time": 12.6928518541667,
          "velocity": 0.511811023622047
        },
        {
          "duration": 0.16071421875,
          "durationTicks": 45,
          "midi": 93,
          "name": "A6",
          "ticks": 3602,
          "time": 12.8642803541667,
          "velocity": 0.503937007874016
        },
        {
          "duration": 0.16071421875,
          "durationTicks": 45,
          "midi": 98,
          "name": "D7",
          "ticks": 3649,
          "time": 13.0321374270833,
          "velocity": 0.52755905511811
        },
        {
          "duration": 0.171428499999999,
          "durationTicks": 48,
          "midi": 74,
          "name": "D5",
          "ticks": 3696,
          "time": 13.1999945,
          "velocity": 0.78740157480315
        },
        {
          "duration": 0.171428500000001,
          "durationTicks": 48,
          "midi": 77,
          "name": "F5",
          "ticks": 3744,
          "time": 13.371423,
          "velocity": 0.78740157480315
        },
        {
          "duration": 0.171428499999999,
          "durationTicks": 48,
          "midi": 81,
          "name": "A5",
          "ticks": 3792,
          "time": 13.5428515,
          "velocity": 0.78740157480315
        },
        {
          "duration": 0.171428500000001,
          "durationTicks": 48,
          "midi": 86,
          "name": "D6",
          "ticks": 3840,
          "time": 13.71428,
          "velocity": 0.78740157480315
        },
        {
          "duration": 0.171428500000001,
          "durationTicks": 48,
          "midi": 86,
          "name": "D6",
          "ticks": 3840,
          "time": 13.71428,
          "velocity": 0.78740157480315
        },
        {
          "duration": 0.171428500000001,
          "durationTicks": 48,
          "midi": 86,
          "name": "D6",
          "ticks": 3840,
          "time": 13.71428,
          "velocity": 0.78740157480315
        },
        {
          "duration": 0.171428500000001,
          "durationTicks": 48,
          "midi": 86,
          "name": "D6",
          "ticks": 3984,
          "time": 14.2285655,
          "velocity": 0.78740157480315
        },
        {
          "duration": 0.171428499999999,
          "durationTicks": 48,
          "midi": 84,
          "name": "C6",
          "ticks": 4032,
          "time": 14.399994,
          "velocity": 0.78740157480315
        },
        {
          "duration": 0.171428500000001,
          "durationTicks": 48,
          "midi": 86,
          "name": "D6",
          "ticks": 4080,
          "time": 14.5714225,
          "velocity": 0.78740157480315
        },
        {
          "duration": 0.171428499999999,
          "durationTicks": 48,
          "midi": 84,
          "name": "C6",
          "ticks": 4128,
          "time": 14.742851,
          "velocity": 0.78740157480315
        },
        {
          "duration": 0.171428499999999,
          "durationTicks": 48,
          "midi": 79,
          "name": "G5",
          "ticks": 4176,
          "time": 14.9142795,
          "velocity": 0.78740157480315
        },
        {
          "duration": 0.685714000000001,
          "durationTicks": 192,
          "midi": 81,
          "name": "A5",
          "ticks": 4224,
          "time": 15.085708,
          "velocity": 0.78740157480315
        },
        {
          "duration": 0.0749999687499994,
          "durationTicks": 21,
          "midi": 73,
          "name": "C#5",
          "ticks": 4275,
          "time": 15.26785078125,
          "velocity": 0.503937007874016
        },
        {
          "duration": 0.0821428229166656,
          "durationTicks": 23,
          "midi": 70,
          "name": "A#4",
          "ticks": 4298,
          "time": 15.3499936041667,
          "velocity": 0.503937007874016
        },
        {
          "duration": 0.0821428229166656,
          "durationTicks": 23,
          "midi": 69,
          "name": "A4",
          "ticks": 4322,
          "time": 15.4357078541667,
          "velocity": 0.511811023622047
        },
        {
          "duration": 0.0749999687500011,
          "durationTicks": 21,
          "midi": 70,
          "name": "A#4",
          "ticks": 4347,
          "time": 15.52499353125,
          "velocity": 0.503937007874016
        },
        {
          "duration": 0.0749999687500011,
          "durationTicks": 21,
          "midi": 69,
          "name": "A4",
          "ticks": 4370,
          "time": 15.6071363541667,
          "velocity": 0.503937007874016
        },
        {
          "duration": 0.0821428229166674,
          "durationTicks": 23,
          "midi": 67,
          "name": "G4",
          "ticks": 4393,
          "time": 15.6892791770833,
          "velocity": 0.503937007874016
        },
        {
          "duration": 0.16071421875,
          "durationTicks": 45,
          "midi": 69,
          "name": "A4",
          "ticks": 4417,
          "time": 15.7749934270833,
          "velocity": 0.52755905511811
        },
        {
          "duration": 0.335714145833336,
          "durationTicks": 94,
          "midi": 76,
          "name": "E5",
          "ticks": 4513,
          "time": 16.1178504270833,
          "velocity": 0.78740157480315
        },
        {
          "duration": 0.521428354166666,
          "durationTicks": 146,
          "midi": 77,
          "name": "F5",
          "ticks": 4608,
          "time": 16.457136,
          "velocity": 0.78740157480315
        },
        {
          "duration": 0.160714218750002,
          "durationTicks": 45,
          "midi": 77,
          "name": "F5",
          "ticks": 4754,
          "time": 16.9785643541667,
          "velocity": 0.78740157480315
        },
        {
          "duration": 0.160714218750002,
          "durationTicks": 45,
          "midi": 76,
          "name": "E5",
          "ticks": 4801,
          "time": 17.1464214270833,
          "velocity": 0.78740157480315
        },
        {
          "duration": 0.160714218750002,
          "durationTicks": 45,
          "midi": 77,
          "name": "F5",
          "ticks": 4849,
          "time": 17.3178499270833,
          "velocity": 0.78740157480315
        },
        {
          "duration": 0.157142791666665,
          "durationTicks": 44,
          "midi": 81,
          "name": "A5",
          "ticks": 4897,
          "time": 17.4892784270833,
          "velocity": 0.78740157480315
        },
        {
          "duration": 0.160714218749998,
          "durationTicks": 45,
          "midi": 76,
          "name": "E5",
          "ticks": 4944,
          "time": 17.6571355,
          "velocity": 0.78740157480315
        },
        {
          "duration": 0.171428500000001,
          "durationTicks": 48,
          "midi": 79,
          "name": "G5",
          "ticks": 4992,
          "time": 17.828564,
          "velocity": 0.78740157480315
        },
        {
          "duration": 0.0678571145833331,
          "durationTicks": 19,
          "midi": 79,
          "name": "G5",
          "ticks": 5043,
          "time": 18.01070678125,
          "velocity": 0.78740157480315
        },
        {
          "duration": 0.0714285416666627,
          "durationTicks": 20,
          "midi": 79,
          "name": "G5",
          "ticks": 5066,
          "time": 18.0928496041667,
          "velocity": 0.78740157480315
        },
        {
          "duration": 0.160714218750002,
          "durationTicks": 45,
          "midi": 79,
          "name": "G5",
          "ticks": 5090,
          "time": 18.1785638541667,
          "velocity": 0.78740157480315
        },
        {
          "duration": 0.160714218749998,
          "durationTicks": 45,
          "midi": 79,
          "name": "G5",
          "ticks": 5138,
          "time": 18.3499923541667,
          "velocity": 0.78740157480315
        },
        {
          "duration": 0.160714218749998,
          "durationTicks": 45,
          "midi": 78,
          "name": "F#5",
          "ticks": 5185,
          "time": 18.5178494270833,
          "velocity": 0.78740157480315
        },
        {
          "duration": 0.160714218749998,
          "durationTicks": 45,
          "midi": 79,
          "name": "G5",
          "ticks": 5233,
          "time": 18.6892779270833,
          "velocity": 0.78740157480315
        },
        {
          "duration": 0.157142791666669,
          "durationTicks": 44,
          "midi": 78,
          "name": "F#5",
          "ticks": 5281,
          "time": 18.8607064270833,
          "velocity": 0.78740157480315
        },
        {
          "duration": 0.160714218750002,
          "durationTicks": 45,
          "midi": 79,
          "name": "G5",
          "ticks": 5328,
          "time": 19.0285635,
          "velocity": 0.78740157480315
        },
        {
          "duration": 0.171428500000001,
          "durationTicks": 48,
          "midi": 78,
          "name": "F#5",
          "ticks": 5376,
          "time": 19.199992,
          "velocity": 0.78740157480315
        },
        {
          "duration": 0.157142791666665,
          "durationTicks": 44,
          "midi": 79,
          "name": "G5",
          "ticks": 5427,
          "time": 19.38213478125,
          "velocity": 0.78740157480315
        },
        {
          "duration": 0.160714218749998,
          "durationTicks": 45,
          "midi": 80,
          "name": "G#5",
          "ticks": 5474,
          "time": 19.5499918541667,
          "velocity": 0.78740157480315
        },
        {
          "duration": 0.160714218750002,
          "durationTicks": 45,
          "midi": 81,
          "name": "A5",
          "ticks": 5522,
          "time": 19.7214203541667,
          "velocity": 0.78740157480315
        },
        {
          "duration": 0.160714218750002,
          "durationTicks": 45,
          "midi": 81,
          "name": "A5",
          "ticks": 5569,
          "time": 19.8892774270833,
          "velocity": 0.78740157480315
        },
        {
          "duration": 0.160714218750002,
          "durationTicks": 45,
          "midi": 82,
          "name": "A#5",
          "ticks": 5617,
          "time": 20.0607059270833,
          "velocity": 0.78740157480315
        },
        {
          "duration": 0.157142791666669,
          "durationTicks": 44,
          "midi": 83,
          "name": "B5",
          "ticks": 5665,
          "time": 20.2321344270833,
          "velocity": 0.78740157480315
        },
        {
          "duration": 0.160714218749998,
          "durationTicks": 45,
          "midi": 84,
          "name": "C6",
          "ticks": 5712,
          "time": 20.3999915,
          "velocity": 0.78740157480315
        },
        {
          "duration": 0.171428500000001,
          "durationTicks": 48,
          "midi": 81,
          "name": "A5",
          "ticks": 5760,
          "time": 20.57142,
          "velocity": 0.78740157480315
        },
        {
          "duration": 0.0678571145833331,
          "durationTicks": 19,
          "midi": 81,
          "name": "A5",
          "ticks": 5811,
          "time": 20.75356278125,
          "velocity": 0.78740157480315
        },
        {
          "duration": 0.092857104166665,
          "durationTicks": 26,
          "midi": 81,
          "name": "A5",
          "ticks": 5834,
          "time": 20.8357056041667,
          "velocity": 0.78740157480315
        },
        {
          "duration": 0.160714218750002,
          "durationTicks": 45,
          "midi": 77,
          "name": "F5",
          "ticks": 5858,
          "time": 20.9214198541667,
          "velocity": 0.78740157480315
        },
        {
          "duration": 0.160714218749998,
          "durationTicks": 45,
          "midi": 77,
          "name": "F5",
          "ticks": 5906,
          "time": 21.0928483541667,
          "velocity": 0.78740157480315
        },
        {
          "duration": 0.160714218750002,
          "durationTicks": 45,
          "midi": 77,
          "name": "F5",
          "ticks": 5953,
          "time": 21.2607054270833,
          "velocity": 0.78740157480315
        },
        {
          "duration": 0.160714218749998,
          "durationTicks": 45,
          "midi": 89,
          "name": "F6",
          "ticks": 6001,
          "time": 21.4321339270833,
          "velocity": 0.78740157480315
        },
        {
          "duration": 0.160714218749998,
          "durationTicks": 45,
          "midi": 88,
          "name": "E6",
          "ticks": 6001,
          "time": 21.4321339270833,
          "velocity": 0.78740157480315
        },
        {
          "duration": 0.157142791666669,
          "durationTicks": 44,
          "midi": 88,
          "name": "E6",
          "ticks": 6049,
          "time": 21.6035624270833,
          "velocity": 0.78740157480315
        },
        {
          "duration": 0.157142791666669,
          "durationTicks": 44,
          "midi": 89,
          "name": "F6",
          "ticks": 6049,
          "time": 21.6035624270833,
          "velocity": 0.78740157480315
        },
        {
          "duration": 0.160714218750002,
          "durationTicks": 45,
          "midi": 62,
          "name": "D4",
          "ticks": 21361,
          "time": 76.2892539270833,
          "velocity": 0.440944881889764
        },
        {
          "duration": 0.160714218750002,
          "durationTicks": 45,
          "midi": 74,
          "name": "D5",
          "ticks": 21361,
          "time": 76.2892539270833,
          "velocity": 0.551181102362205
        },
        {
          "duration": 0.157142791666658,
          "durationTicks": 44,
          "midi": 76,
          "name": "E5",
          "ticks": 21409,
          "time": 76.4606824270833,
          "velocity": 0.559055118110236
        },
        {
          "duration": 0.157142791666658,
          "durationTicks": 44,
          "midi": 64,
          "name": "E4",
          "ticks": 21409,
          "time": 76.4606824270833,
          "velocity": 0.448818897637795
        },
        {
          "duration": 0.160714218750002,
          "durationTicks": 45,
          "midi": 77,
          "name": "F5",
          "ticks": 21456,
          "time": 76.6285395,
          "velocity": 0.551181102362205
        },
        {
          "duration": 0.160714218750002,
          "durationTicks": 45,
          "midi": 65,
          "name": "F4",
          "ticks": 21456,
          "time": 76.6285395,
          "velocity": 0.440944881889764
        },
        {
          "duration": 0.521428354166673,
          "durationTicks": 146,
          "midi": 81,
          "name": "A5",
          "ticks": 21504,
          "time": 76.799968,
          "velocity": 0.590551181102362
        },
        {
          "duration": 0.521428354166673,
          "durationTicks": 146,
          "midi": 77,
          "name": "F5",
          "ticks": 21504,
          "time": 76.799968,
          "velocity": 0.480314960629921
        },
        {
          "duration": 0.521428354166673,
          "durationTicks": 146,
          "midi": 74,
          "name": "D5",
          "ticks": 21504,
          "time": 76.799968,
          "velocity": 0.480314960629921
        },
        {
          "duration": 0.521428354166673,
          "durationTicks": 146,
          "midi": 69,
          "name": "A4",
          "ticks": 21504,
          "time": 76.799968,
          "velocity": 0.480314960629921
        },
        {
          "duration": 0.160714218750002,
          "durationTicks": 45,
          "midi": 69,
          "name": "A4",
          "ticks": 21650,
          "time": 77.3213963541667,
          "velocity": 0.440944881889764
        },
        {
          "duration": 0.160714218750002,
          "durationTicks": 45,
          "midi": 81,
          "name": "A5",
          "ticks": 21650,
          "time": 77.3213963541667,
          "velocity": 0.551181102362205
        },
        {
          "duration": 0.160714218749987,
          "durationTicks": 45,
          "midi": 77,
          "name": "F5",
          "ticks": 21697,
          "time": 77.4892534270833,
          "velocity": 0.574803149606299
        },
        {
          "duration": 0.160714218749987,
          "durationTicks": 45,
          "midi": 65,
          "name": "F4",
          "ticks": 21697,
          "time": 77.4892534270833,
          "velocity": 0.464566929133858
        },
        {
          "duration": 0.160714218750002,
          "durationTicks": 45,
          "midi": 69,
          "name": "A4",
          "ticks": 21745,
          "time": 77.6606819270833,
          "velocity": 0.440944881889764
        },
        {
          "duration": 0.160714218750002,
          "durationTicks": 45,
          "midi": 81,
          "name": "A5",
          "ticks": 21745,
          "time": 77.6606819270833,
          "velocity": 0.551181102362205
        },
        {
          "duration": 0.157142791666672,
          "durationTicks": 44,
          "midi": 77,
          "name": "F5",
          "ticks": 21793,
          "time": 77.8321104270833,
          "velocity": 0.559055118110236
        },
        {
          "duration": 0.157142791666672,
          "durationTicks": 44,
          "midi": 65,
          "name": "F4",
          "ticks": 21793,
          "time": 77.8321104270833,
          "velocity": 0.448818897637795
        },
        {
          "duration": 0.160714218749987,
          "durationTicks": 45,
          "midi": 76,
          "name": "E5",
          "ticks": 21840,
          "time": 77.9999675,
          "velocity": 0.551181102362205
        },
        {
          "duration": 0.160714218749987,
          "durationTicks": 45,
          "midi": 64,
          "name": "E4",
          "ticks": 21840,
          "time": 77.9999675,
          "velocity": 0.440944881889764
        },
        {
          "duration": 0.171428500000005,
          "durationTicks": 48,
          "midi": 74,
          "name": "D5",
          "ticks": 21888,
          "time": 78.171396,
          "velocity": 0.590551181102362
        },
        {
          "duration": 0.171428500000005,
          "durationTicks": 48,
          "midi": 62,
          "name": "D4",
          "ticks": 21888,
          "time": 78.171396,
          "velocity": 0.480314960629921
        },
        {
          "duration": 0.157142791666672,
          "durationTicks": 44,
          "midi": 74,
          "name": "D5",
          "ticks": 21939,
          "time": 78.35353878125,
          "velocity": 0.440944881889764
        },
        {
          "duration": 0.157142791666672,
          "durationTicks": 44,
          "midi": 86,
          "name": "D6",
          "ticks": 21939,
          "time": 78.35353878125,
          "velocity": 0.551181102362205
        },
        {
          "duration": 0.160714218750002,
          "durationTicks": 45,
          "midi": 77,
          "name": "F5",
          "ticks": 21986,
          "time": 78.5213958541667,
          "velocity": 0.448818897637795
        },
        {
          "duration": 0.160714218750002,
          "durationTicks": 45,
          "midi": 89,
          "name": "F6",
          "ticks": 21986,
          "time": 78.5213958541667,
          "velocity": 0.559055118110236
        },
        {
          "duration": 0.160714218750002,
          "durationTicks": 45,
          "midi": 81,
          "name": "A5",
          "ticks": 22034,
          "time": 78.6928243541667,
          "velocity": 0.440944881889764
        },
        {
          "duration": 0.160714218750002,
          "durationTicks": 45,
          "midi": 93,
          "name": "A6",
          "ticks": 22034,
          "time": 78.6928243541667,
          "velocity": 0.551181102362205
        },
        {
          "duration": 0.160714218750002,
          "durationTicks": 45,
          "midi": 98,
          "name": "D7",
          "ticks": 22081,
          "time": 78.8606814270833,
          "velocity": 0.574803149606299
        },
        {
          "duration": 0.160714218750002,
          "durationTicks": 45,
          "midi": 86,
          "name": "D6",
          "ticks": 22081,
          "time": 78.8606814270833,
          "velocity": 0.464566929133858
        },
        {
          "duration": 0.160714218750002,
          "durationTicks": 45,
          "midi": 74,
          "name": "D5",
          "ticks": 22129,
          "time": 79.0321099270833,
          "velocity": 0.551181102362205
        },
        {
          "duration": 0.160714218750002,
          "durationTicks": 45,
          "midi": 62,
          "name": "D4",
          "ticks": 22129,
          "time": 79.0321099270833,
          "velocity": 0.440944881889764
        },
        {
          "duration": 0.157142791666672,
          "durationTicks": 44,
          "midi": 65,
          "name": "F4",
          "ticks": 22177,
          "time": 79.2035384270833,
          "velocity": 0.448818897637795
        },
        {
          "duration": 0.157142791666672,
          "durationTicks": 44,
          "midi": 77,
          "name": "F5",
          "ticks": 22177,
          "time": 79.2035384270833,
          "velocity": 0.559055118110236
        },
        {
          "duration": 0.160714218750002,
          "durationTicks": 45,
          "midi": 81,
          "name": "A5",
          "ticks": 22224,
          "time": 79.3713955,
          "velocity": 0.551181102362205
        },
        {
          "duration": 0.160714218750002,
          "durationTicks": 45,
          "midi": 69,
          "name": "A4",
          "ticks": 22224,
          "time": 79.3713955,
          "velocity": 0.440944881889764
        },
        {
          "duration": 0.521428354166659,
          "durationTicks": 146,
          "midi": 74,
          "name": "D5",
          "ticks": 22272,
          "time": 79.542824,
          "velocity": 0.480314960629921
        },
        {
          "duration": 0.521428354166659,
          "durationTicks": 146,
          "midi": 77,
          "name": "F5",
          "ticks": 22272,
          "time": 79.542824,
          "velocity": 0.480314960629921
        },
        {
          "duration": 0.521428354166659,
          "durationTicks": 146,
          "midi": 82,
          "name": "A#5",
          "ticks": 22272,
          "time": 79.542824,
          "velocity": 0.480314960629921
        },
        {
          "duration": 0.521428354166659,
          "durationTicks": 146,
          "midi": 86,
          "name": "D6",
          "ticks": 22272,
          "time": 79.542824,
          "velocity": 0.590551181102362
        },
        {
          "duration": 0.160714218750002,
          "durationTicks": 45,
          "midi": 74,
          "name": "D5",
          "ticks": 22418,
          "time": 80.0642523541667,
          "velocity": 0.440944881889764
        },
        {
          "duration": 0.160714218750002,
          "durationTicks": 45,
          "midi": 86,
          "name": "D6",
          "ticks": 22418,
          "time": 80.0642523541667,
          "velocity": 0.551181102362205
        },
        {
          "duration": 0.160714218750002,
          "durationTicks": 45,
          "midi": 84,
          "name": "C6",
          "ticks": 22465,
          "time": 80.2321094270833,
          "velocity": 0.574803149606299
        },
        {
          "duration": 0.160714218750002,
          "durationTicks": 45,
          "midi": 72,
          "name": "C5",
          "ticks": 22465,
          "time": 80.2321094270833,
          "velocity": 0.464566929133858
        },
        {
          "duration": 0.160714218750002,
          "durationTicks": 45,
          "midi": 74,
          "name": "D5",
          "ticks": 22513,
          "time": 80.4035379270833,
          "velocity": 0.440944881889764
        },
        {
          "duration": 0.160714218750002,
          "durationTicks": 45,
          "midi": 86,
          "name": "D6",
          "ticks": 22513,
          "time": 80.4035379270833,
          "velocity": 0.551181102362205
        },
        {
          "duration": 0.157142791666672,
          "durationTicks": 44,
          "midi": 72,
          "name": "C5",
          "ticks": 22561,
          "time": 80.5749664270833,
          "velocity": 0.448818897637795
        },
        {
          "duration": 0.157142791666672,
          "durationTicks": 44,
          "midi": 84,
          "name": "C6",
          "ticks": 22561,
          "time": 80.5749664270833,
          "velocity": 0.559055118110236
        },
        {
          "duration": 0.160714218750002,
          "durationTicks": 45,
          "midi": 67,
          "name": "G4",
          "ticks": 22608,
          "time": 80.7428235,
          "velocity": 0.440944881889764
        },
        {
          "duration": 0.160714218750002,
          "durationTicks": 45,
          "midi": 79,
          "name": "G5",
          "ticks": 22608,
          "time": 80.7428235,
          "velocity": 0.551181102362205
        },
        {
          "duration": 0.171428500000005,
          "durationTicks": 48,
          "midi": 81,
          "name": "A5",
          "ticks": 22656,
          "time": 80.914252,
          "velocity": 0.590551181102362
        },
        {
          "duration": 0.171428500000005,
          "durationTicks": 48,
          "midi": 76,
          "name": "E5",
          "ticks": 22656,
          "time": 80.914252,
          "velocity": 0.480314960629921
        },
        {
          "duration": 0.171428500000005,
          "durationTicks": 48,
          "midi": 73,
          "name": "C#5",
          "ticks": 22656,
          "time": 80.914252,
          "velocity": 0.480314960629921
        },
        {
          "duration": 0.171428500000005,
          "durationTicks": 48,
          "midi": 69,
          "name": "A4",
          "ticks": 22656,
          "time": 80.914252,
          "velocity": 0.480314960629921
        },
        {
          "duration": 0.0749999687499923,
          "durationTicks": 21,
          "midi": 85,
          "name": "C#6",
          "ticks": 22707,
          "time": 81.09639478125,
          "velocity": 0.503937007874016
        },
        {
          "duration": 0.0821428229166514,
          "durationTicks": 23,
          "midi": 82,
          "name": "A#5",
          "ticks": 22730,
          "time": 81.1785376041667,
          "velocity": 0.503937007874016
        },
        {
          "duration": 0.0821428229166656,
          "durationTicks": 23,
          "midi": 81,
          "name": "A5",
          "ticks": 22754,
          "time": 81.2642518541667,
          "velocity": 0.511811023622047
        },
        {
          "duration": 0.0749999687499923,
          "durationTicks": 21,
          "midi": 82,
          "name": "A#5",
          "ticks": 22779,
          "time": 81.35353753125,
          "velocity": 0.503937007874016
        },
        {
          "duration": 0.0749999687499923,
          "durationTicks": 21,
          "midi": 81,
          "name": "A5",
          "ticks": 22802,
          "time": 81.4356803541667,
          "velocity": 0.503937007874016
        },
        {
          "duration": 0.0821428229166799,
          "durationTicks": 23,
          "midi": 79,
          "name": "G5",
          "ticks": 22825,
          "time": 81.5178231770833,
          "velocity": 0.503937007874016
        },
        {
          "duration": 0.342856999999995,
          "durationTicks": 96,
          "midi": 81,
          "name": "A5",
          "ticks": 22849,
          "time": 81.6035374270833,
          "velocity": 0.52755905511811
        },
        {
          "duration": 0.335714145833336,
          "durationTicks": 94,
          "midi": 69,
          "name": "A4",
          "ticks": 22945,
          "time": 81.9463944270833,
          "velocity": 0.448818897637795
        },
        {
          "duration": 0.335714145833336,
          "durationTicks": 94,
          "midi": 76,
          "name": "E5",
          "ticks": 22945,
          "time": 81.9463944270833,
          "velocity": 0.559055118110236
        },
        {
          "duration": 0.521428354166673,
          "durationTicks": 146,
          "midi": 69,
          "name": "A4",
          "ticks": 23040,
          "time": 82.28568,
          "velocity": 0.480314960629921
        },
        {
          "duration": 0.521428354166673,
          "durationTicks": 146,
          "midi": 74,
          "name": "D5",
          "ticks": 23040,
          "time": 82.28568,
          "velocity": 0.480314960629921
        },
        {
          "duration": 0.521428354166673,
          "durationTicks": 146,
          "midi": 77,
          "name": "F5",
          "ticks": 23040,
          "time": 82.28568,
          "velocity": 0.590551181102362
        },
        {
          "duration": 0.160714218750002,
          "durationTicks": 45,
          "midi": 77,
          "name": "F5",
          "ticks": 23186,
          "time": 82.8071083541667,
          "velocity": 0.503937007874016
        },
        {
          "duration": 0.160714218750002,
          "durationTicks": 45,
          "midi": 67,
          "name": "G4",
          "ticks": 23233,
          "time": 82.9749654270833,
          "velocity": 0.464566929133858
        },
        {
          "duration": 0.160714218750002,
          "durationTicks": 45,
          "midi": 72,
          "name": "C5",
          "ticks": 23233,
          "time": 82.9749654270833,
          "velocity": 0.464566929133858
        },
        {
          "duration": 0.160714218750002,
          "durationTicks": 45,
          "midi": 76,
          "name": "E5",
          "ticks": 23233,
          "time": 82.9749654270833,
          "velocity": 0.574803149606299
        },
        {
          "duration": 0.160714218750002,
          "durationTicks": 45,
          "midi": 77,
          "name": "F5",
          "ticks": 23281,
          "time": 83.1463939270833,
          "velocity": 0.503937007874016
        },
        {
          "duration": 0.157142791666658,
          "durationTicks": 44,
          "midi": 81,
          "name": "A5",
          "ticks": 23329,
          "time": 83.3178224270833,
          "velocity": 0.511811023622047
        },
        {
          "duration": 0.160714218750002,
          "durationTicks": 45,
          "midi": 74,
          "name": "D5",
          "ticks": 23376,
          "time": 83.4856795,
          "velocity": 0.503937007874016
        },
        {
          "duration": 0.0678571145833331,
          "durationTicks": 19,
          "midi": 79,
          "name": "G5",
          "ticks": 23475,
          "time": 83.83925078125,
          "velocity": 0.425196850393701
        },
        {
          "duration": 0.0678571145833331,
          "durationTicks": 19,
          "midi": 74,
          "name": "D5",
          "ticks": 23475,
          "time": 83.83925078125,
          "velocity": 0.346456692913386
        },
        {
          "duration": 0.0678571145833331,
          "durationTicks": 19,
          "midi": 71,
          "name": "B4",
          "ticks": 23475,
          "time": 83.83925078125,
          "velocity": 0.346456692913386
        },
        {
          "duration": 0.0678571145833331,
          "durationTicks": 19,
          "midi": 67,
          "name": "G4",
          "ticks": 23475,
          "time": 83.83925078125,
          "velocity": 0.346456692913386
        },
        {
          "duration": 0.0714285416666485,
          "durationTicks": 20,
          "midi": 79,
          "name": "G5",
          "ticks": 23498,
          "time": 83.9213936041667,
          "velocity": 0.425196850393701
        },
        {
          "duration": 0.0714285416666485,
          "durationTicks": 20,
          "midi": 74,
          "name": "D5",
          "ticks": 23498,
          "time": 83.9213936041667,
          "velocity": 0.346456692913386
        },
        {
          "duration": 0.0714285416666485,
          "durationTicks": 20,
          "midi": 71,
          "name": "B4",
          "ticks": 23498,
          "time": 83.9213936041667,
          "velocity": 0.346456692913386
        },
        {
          "duration": 0.0714285416666485,
          "durationTicks": 20,
          "midi": 67,
          "name": "G4",
          "ticks": 23498,
          "time": 83.9213936041667,
          "velocity": 0.346456692913386
        },
        {
          "duration": 0.160714218750002,
          "durationTicks": 45,
          "midi": 67,
          "name": "G4",
          "ticks": 23522,
          "time": 84.0071078541667,
          "velocity": 0.448818897637795
        },
        {
          "duration": 0.160714218750002,
          "durationTicks": 45,
          "midi": 71,
          "name": "B4",
          "ticks": 23522,
          "time": 84.0071078541667,
          "velocity": 0.448818897637795
        },
        {
          "duration": 0.160714218750002,
          "durationTicks": 45,
          "midi": 74,
          "name": "D5",
          "ticks": 23522,
          "time": 84.0071078541667,
          "velocity": 0.448818897637795
        },
        {
          "duration": 0.160714218750002,
          "durationTicks": 45,
          "midi": 79,
          "name": "G5",
          "ticks": 23522,
          "time": 84.0071078541667,
          "velocity": 0.52755905511811
        },
        {
          "duration": 0.160714218749987,
          "durationTicks": 45,
          "midi": 67,
          "name": "G4",
          "ticks": 23570,
          "time": 84.1785363541667,
          "velocity": 0.52755905511811
        },
        {
          "duration": 0.160714218749987,
          "durationTicks": 45,
          "midi": 71,
          "name": "B4",
          "ticks": 23570,
          "time": 84.1785363541667,
          "velocity": 0.440944881889764
        },
        {
          "duration": 0.160714218749987,
          "durationTicks": 45,
          "midi": 74,
          "name": "D5",
          "ticks": 23570,
          "time": 84.1785363541667,
          "velocity": 0.52755905511811
        },
        {
          "duration": 0.160714218749987,
          "durationTicks": 45,
          "midi": 79,
          "name": "G5",
          "ticks": 23570,
          "time": 84.1785363541667,
          "velocity": 0.488188976377953
        },
        {
          "duration": 0.160714218749987,
          "durationTicks": 45,
          "midi": 71,
          "name": "B4",
          "ticks": 23617,
          "time": 84.3463934270833,
          "velocity": 0.464566929133858
        },
        {
          "duration": 0.160714218749987,
          "durationTicks": 45,
          "midi": 79,
          "name": "G5",
          "ticks": 23617,
          "time": 84.3463934270833,
          "velocity": 0.543307086614173
        },
        {
          "duration": 0.160714218750002,
          "durationTicks": 45,
          "midi": 81,
          "name": "A5",
          "ticks": 23665,
          "time": 84.5178219270833,
          "velocity": 0.503937007874016
        },
        {
          "duration": 0.157142791666672,
          "durationTicks": 44,
          "midi": 71,
          "name": "B4",
          "ticks": 23713,
          "time": 84.6892504270833,
          "velocity": 0.448818897637795
        },
        {
          "duration": 0.157142791666672,
          "durationTicks": 44,
          "midi": 79,
          "name": "G5",
          "ticks": 23713,
          "time": 84.6892504270833,
          "velocity": 0.559055118110236
        },
        {
          "duration": 0.160714218749987,
          "durationTicks": 45,
          "midi": 74,
          "name": "D5",
          "ticks": 23760,
          "time": 84.8571075,
          "velocity": 0.503937007874016
        },
        {
          "duration": 0.171428500000005,
          "durationTicks": 48,
          "midi": 70,
          "name": "A#4",
          "ticks": 23808,
          "time": 85.028536,
          "velocity": 0.480314960629921
        },
        {
          "duration": 0.171428500000005,
          "durationTicks": 48,
          "midi": 77,
          "name": "F5",
          "ticks": 23808,
          "time": 85.028536,
          "velocity": 0.590551181102362
        },
        {
          "duration": 0.157142791666672,
          "durationTicks": 44,
          "midi": 74,
          "name": "D5",
          "ticks": 23859,
          "time": 85.21067878125,
          "velocity": 0.503937007874016
        },
        {
          "duration": 0.160714218750002,
          "durationTicks": 45,
          "midi": 70,
          "name": "A#4",
          "ticks": 23906,
          "time": 85.3785358541667,
          "velocity": 0.511811023622047
        },
        {
          "duration": 0.160714218750002,
          "durationTicks": 45,
          "midi": 77,
          "name": "F5",
          "ticks": 23954,
          "time": 85.5499643541667,
          "velocity": 0.503937007874016
        },
        {
          "duration": 0.160714218750002,
          "durationTicks": 45,
          "midi": 76,
          "name": "E5",
          "ticks": 24001,
          "time": 85.7178214270833,
          "velocity": 0.574803149606299
        },
        {
          "duration": 0.160714218750002,
          "durationTicks": 45,
          "midi": 67,
          "name": "G4",
          "ticks": 24001,
          "time": 85.7178214270833,
          "velocity": 0.464566929133858
        },
        {
          "duration": 0.160714218750002,
          "durationTicks": 45,
          "midi": 72,
          "name": "C5",
          "ticks": 24049,
          "time": 85.8892499270833,
          "velocity": 0.503937007874016
        },
        {
          "duration": 0.157142791666672,
          "durationTicks": 44,
          "midi": 67,
          "name": "G4",
          "ticks": 24097,
          "time": 86.0606784270833,
          "velocity": 0.511811023622047
        },
        {
          "duration": 0.160714218750002,
          "durationTicks": 45,
          "midi": 76,
          "name": "E5",
          "ticks": 24144,
          "time": 86.2285355,
          "velocity": 0.503937007874016
        },
        {
          "duration": 0.349999854166668,
          "durationTicks": 98,
          "midi": 74,
          "name": "D5",
          "ticks": 24192,
          "time": 86.399964,
          "velocity": 0.590551181102362
        },
        {
          "duration": 0.349999854166668,
          "durationTicks": 98,
          "midi": 69,
          "name": "A4",
          "ticks": 24192,
          "time": 86.399964,
          "velocity": 0.480314960629921
        },
        {
          "duration": 0.349999854166668,
          "durationTicks": 98,
          "midi": 66,
          "name": "F#4",
          "ticks": 24192,
          "time": 86.399964,
          "velocity": 0.480314960629921
        },
        {
          "duration": 0.339285572916651,
          "durationTicks": 95,
          "midi": 66,
          "name": "F#4",
          "ticks": 24290,
          "time": 86.7499638541667,
          "velocity": 0.448818897637795
        },
        {
          "duration": 0.339285572916651,
          "durationTicks": 95,
          "midi": 69,
          "name": "A4",
          "ticks": 24290,
          "time": 86.7499638541667,
          "velocity": 0.448818897637795
        },
        {
          "duration": 0.339285572916651,
          "durationTicks": 95,
          "midi": 76,
          "name": "E5",
          "ticks": 24290,
          "time": 86.7499638541667,
          "velocity": 0.559055118110236
        },
        {
          "duration": 0.160714218750002,
          "durationTicks": 45,
          "midi": 69,
          "name": "A4",
          "ticks": 24385,
          "time": 87.0892494270833,
          "velocity": 0.464566929133858
        },
        {
          "duration": 0.160714218750002,
          "durationTicks": 45,
          "midi": 74,
          "name": "D5",
          "ticks": 24385,
          "time": 87.0892494270833,
          "velocity": 0.464566929133858
        },
        {
          "duration": 0.160714218750002,
          "durationTicks": 45,
          "midi": 78,
          "name": "F#5",
          "ticks": 24385,
          "time": 87.0892494270833,
          "velocity": 0.574803149606299
        },
        {
          "duration": 0.160714218750002,
          "durationTicks": 45,
          "midi": 74,
          "name": "D5",
          "ticks": 24433,
          "time": 87.2606779270833,
          "velocity": 0.551181102362205
        },
        {
          "duration": 0.160714218750002,
          "durationTicks": 45,
          "midi": 62,
          "name": "D4",
          "ticks": 24433,
          "time": 87.2606779270833,
          "velocity": 0.440944881889764
        },
        {
          "duration": 0.157142791666672,
          "durationTicks": 44,
          "midi": 64,
          "name": "E4",
          "ticks": 24481,
          "time": 87.4321064270833,
          "velocity": 0.448818897637795
        },
        {
          "duration": 0.157142791666672,
          "durationTicks": 44,
          "midi": 76,
          "name": "E5",
          "ticks": 24481,
          "time": 87.4321064270833,
          "velocity": 0.559055118110236
        },
        {
          "duration": 0.160714218750002,
          "durationTicks": 45,
          "midi": 65,
          "name": "F4",
          "ticks": 24528,
          "time": 87.5999635,
          "velocity": 0.440944881889764
        },
        {
          "duration": 0.160714218750002,
          "durationTicks": 45,
          "midi": 77,
          "name": "F5",
          "ticks": 24528,
          "time": 87.5999635,
          "velocity": 0.551181102362205
        },
        {
          "duration": 0.521428354166659,
          "durationTicks": 146,
          "midi": 69,
          "name": "A4",
          "ticks": 24576,
          "time": 87.771392,
          "velocity": 0.480314960629921
        },
        {
          "duration": 0.521428354166659,
          "durationTicks": 146,
          "midi": 74,
          "name": "D5",
          "ticks": 24576,
          "time": 87.771392,
          "velocity": 0.480314960629921
        },
        {
          "duration": 0.521428354166659,
          "durationTicks": 146,
          "midi": 77,
          "name": "F5",
          "ticks": 24576,
          "time": 87.771392,
          "velocity": 0.480314960629921
        },
        {
          "duration": 0.521428354166659,
          "durationTicks": 146,
          "midi": 81,
          "name": "A5",
          "ticks": 24576,
          "time": 87.771392,
          "velocity": 0.590551181102362
        },
        {
          "duration": 0.160714218750002,
          "durationTicks": 45,
          "midi": 81,
          "name": "A5",
          "ticks": 24722,
          "time": 88.2928203541667,
          "velocity": 0.551181102362205
        },
        {
          "duration": 0.160714218750002,
          "durationTicks": 45,
          "midi": 69,
          "name": "A4",
          "ticks": 24722,
          "time": 88.2928203541667,
          "velocity": 0.440944881889764
        },
        {
          "duration": 0.160714218750002,
          "durationTicks": 45,
          "midi": 65,
          "name": "F4",
          "ticks": 24769,
          "time": 88.4606774270833,
          "velocity": 0.464566929133858
        },
        {
          "duration": 0.160714218750002,
          "durationTicks": 45,
          "midi": 77,
          "name": "F5",
          "ticks": 24769,
          "time": 88.4606774270833,
          "velocity": 0.574803149606299
        },
        {
          "duration": 0.160714218750002,
          "durationTicks": 45,
          "midi": 81,
          "name": "A5",
          "ticks": 24817,
          "time": 88.6321059270833,
          "velocity": 0.551181102362205
        },
        {
          "duration": 0.160714218750002,
          "durationTicks": 45,
          "midi": 69,
          "name": "A4",
          "ticks": 24817,
          "time": 88.6321059270833,
          "velocity": 0.440944881889764
        },
        {
          "duration": 0.157142791666658,
          "durationTicks": 44,
          "midi": 65,
          "name": "F4",
          "ticks": 24865,
          "time": 88.8035344270834,
          "velocity": 0.448818897637795
        },
        {
          "duration": 0.157142791666658,
          "durationTicks": 44,
          "midi": 77,
          "name": "F5",
          "ticks": 24865,
          "time": 88.8035344270834,
          "velocity": 0.559055118110236
        },
        {
          "duration": 0.160714218750002,
          "durationTicks": 45,
          "midi": 76,
          "name": "E5",
          "ticks": 24912,
          "time": 88.9713915,
          "velocity": 0.551181102362205
        },
        {
          "duration": 0.160714218750002,
          "durationTicks": 45,
          "midi": 64,
          "name": "E4",
          "ticks": 24912,
          "time": 88.9713915,
          "velocity": 0.440944881889764
        },
        {
          "duration": 0.171428500000005,
          "durationTicks": 48,
          "midi": 74,
          "name": "D5",
          "ticks": 24960,
          "time": 89.14282,
          "velocity": 0.590551181102362
        },
        {
          "duration": 0.171428500000005,
          "durationTicks": 48,
          "midi": 62,
          "name": "D4",
          "ticks": 24960,
          "time": 89.14282,
          "velocity": 0.480314960629921
        },
        {
          "duration": 0.157142791666658,
          "durationTicks": 44,
          "midi": 86,
          "name": "D6",
          "ticks": 25011,
          "time": 89.32496278125,
          "velocity": 0.551181102362205
        },
        {
          "duration": 0.157142791666658,
          "durationTicks": 44,
          "midi": 74,
          "name": "D5",
          "ticks": 25011,
          "time": 89.32496278125,
          "velocity": 0.440944881889764
        },
        {
          "duration": 0.160714218750002,
          "durationTicks": 45,
          "midi": 89,
          "name": "F6",
          "ticks": 25058,
          "time": 89.4928198541667,
          "velocity": 0.559055118110236
        },
        {
          "duration": 0.160714218750002,
          "durationTicks": 45,
          "midi": 77,
          "name": "F5",
          "ticks": 25058,
          "time": 89.4928198541667,
          "velocity": 0.448818897637795
        },
        {
          "duration": 0.160714218750002,
          "durationTicks": 45,
          "midi": 93,
          "name": "A6",
          "ticks": 25106,
          "time": 89.6642483541667,
          "velocity": 0.551181102362205
        },
        {
          "duration": 0.160714218750002,
          "durationTicks": 45,
          "midi": 81,
          "name": "A5",
          "ticks": 25106,
          "time": 89.6642483541667,
          "velocity": 0.440944881889764
        },
        {
          "duration": 0.160714218750002,
          "durationTicks": 45,
          "midi": 86,
          "name": "D6",
          "ticks": 25153,
          "time": 89.8321054270834,
          "velocity": 0.464566929133858
        },
        {
          "duration": 0.160714218750002,
          "durationTicks": 45,
          "midi": 98,
          "name": "D7",
          "ticks": 25153,
          "time": 89.8321054270834,
          "velocity": 0.574803149606299
        },
        {
          "duration": 0.160714218750002,
          "durationTicks": 45,
          "midi": 74,
          "name": "D5",
          "ticks": 25201,
          "time": 90.0035339270833,
          "velocity": 0.551181102362205
        },
        {
          "duration": 0.160714218750002,
          "durationTicks": 45,
          "midi": 62,
          "name": "D4",
          "ticks": 25201,
          "time": 90.0035339270833,
          "velocity": 0.440944881889764
        },
        {
          "duration": 0.157142791666658,
          "durationTicks": 44,
          "midi": 65,
          "name": "F4",
          "ticks": 25249,
          "time": 90.1749624270833,
          "velocity": 0.448818897637795
        },
        {
          "duration": 0.157142791666658,
          "durationTicks": 44,
          "midi": 77,
          "name": "F5",
          "ticks": 25249,
          "time": 90.1749624270833,
          "velocity": 0.559055118110236
        },
        {
          "duration": 0.160714218750002,
          "durationTicks": 45,
          "midi": 81,
          "name": "A5",
          "ticks": 25296,
          "time": 90.3428195,
          "velocity": 0.551181102362205
        },
        {
          "duration": 0.160714218750002,
          "durationTicks": 45,
          "midi": 69,
          "name": "A4",
          "ticks": 25296,
          "time": 90.3428195,
          "velocity": 0.440944881889764
        },
        {
          "duration": 0.521428354166659,
          "durationTicks": 146,
          "midi": 86,
          "name": "D6",
          "ticks": 25344,
          "time": 90.514248,
          "velocity": 0.590551181102362
        },
        {
          "duration": 0.521428354166659,
          "durationTicks": 146,
          "midi": 82,
          "name": "A#5",
          "ticks": 25344,
          "time": 90.514248,
          "velocity": 0.480314960629921
        },
        {
          "duration": 0.521428354166659,
          "durationTicks": 146,
          "midi": 77,
          "name": "F5",
          "ticks": 25344,
          "time": 90.514248,
          "velocity": 0.480314960629921
        },
        {
          "duration": 0.521428354166659,
          "durationTicks": 146,
          "midi": 74,
          "name": "D5",
          "ticks": 25344,
          "time": 90.514248,
          "velocity": 0.480314960629921
        },
        {
          "duration": 0.160714218750002,
          "durationTicks": 45,
          "midi": 86,
          "name": "D6",
          "ticks": 25490,
          "time": 91.0356763541667,
          "velocity": 0.551181102362205
        },
        {
          "duration": 0.160714218750002,
          "durationTicks": 45,
          "midi": 74,
          "name": "D5",
          "ticks": 25490,
          "time": 91.0356763541667,
          "velocity": 0.440944881889764
        },
        {
          "duration": 0.160714218750002,
          "durationTicks": 45,
          "midi": 72,
          "name": "C5",
          "ticks": 25537,
          "time": 91.2035334270833,
          "velocity": 0.464566929133858
        },
        {
          "duration": 0.160714218750002,
          "durationTicks": 45,
          "midi": 84,
          "name": "C6",
          "ticks": 25537,
          "time": 91.2035334270833,
          "velocity": 0.574803149606299
        },
        {
          "duration": 0.160714218750002,
          "durationTicks": 45,
          "midi": 86,
          "name": "D6",
          "ticks": 25585,
          "time": 91.3749619270834,
          "velocity": 0.551181102362205
        },
        {
          "duration": 0.160714218750002,
          "durationTicks": 45,
          "midi": 74,
          "name": "D5",
          "ticks": 25585,
          "time": 91.3749619270834,
          "velocity": 0.440944881889764
        },
        {
          "duration": 0.157142791666658,
          "durationTicks": 44,
          "midi": 72,
          "name": "C5",
          "ticks": 25633,
          "time": 91.5463904270834,
          "velocity": 0.448818897637795
        },
        {
          "duration": 0.157142791666658,
          "durationTicks": 44,
          "midi": 84,
          "name": "C6",
          "ticks": 25633,
          "time": 91.5463904270834,
          "velocity": 0.559055118110236
        },
        {
          "duration": 0.160714218750002,
          "durationTicks": 45,
          "midi": 67,
          "name": "G4",
          "ticks": 25680,
          "time": 91.7142475,
          "velocity": 0.440944881889764
        },
        {
          "duration": 0.160714218750002,
          "durationTicks": 45,
          "midi": 79,
          "name": "G5",
          "ticks": 25680,
          "time": 91.7142475,
          "velocity": 0.551181102362205
        },
        {
          "duration": 0.171428500000005,
          "durationTicks": 48,
          "midi": 81,
          "name": "A5",
          "ticks": 25728,
          "time": 91.885676,
          "velocity": 0.590551181102362
        },
        {
          "duration": 0.171428500000005,
          "durationTicks": 48,
          "midi": 76,
          "name": "E5",
          "ticks": 25728,
          "time": 91.885676,
          "velocity": 0.480314960629921
        },
        {
          "duration": 0.171428500000005,
          "durationTicks": 48,
          "midi": 73,
          "name": "C#5",
          "ticks": 25728,
          "time": 91.885676,
          "velocity": 0.480314960629921
        },
        {
          "duration": 0.171428500000005,
          "durationTicks": 48,
          "midi": 69,
          "name": "A4",
          "ticks": 25728,
          "time": 91.885676,
          "velocity": 0.480314960629921
        },
        {
          "duration": 0.0749999687499923,
          "durationTicks": 21,
          "midi": 85,
          "name": "C#6",
          "ticks": 25779,
          "time": 92.06781878125,
          "velocity": 0.503937007874016
        },
        {
          "duration": 0.0821428229166799,
          "durationTicks": 23,
          "midi": 82,
          "name": "A#5",
          "ticks": 25802,
          "time": 92.1499616041667,
          "velocity": 0.503937007874016
        },
        {
          "duration": 0.0821428229166799,
          "durationTicks": 23,
          "midi": 81,
          "name": "A5",
          "ticks": 25826,
          "time": 92.2356758541667,
          "velocity": 0.511811023622047
        },
        {
          "duration": 0.0749999687499923,
          "durationTicks": 21,
          "midi": 82,
          "name": "A#5",
          "ticks": 25851,
          "time": 92.32496153125,
          "velocity": 0.503937007874016
        },
        {
          "duration": 0.0749999687500065,
          "durationTicks": 21,
          "midi": 81,
          "name": "A5",
          "ticks": 25874,
          "time": 92.4071043541667,
          "velocity": 0.503937007874016
        },
        {
          "duration": 0.0821428229166656,
          "durationTicks": 23,
          "midi": 79,
          "name": "G5",
          "ticks": 25897,
          "time": 92.4892471770833,
          "velocity": 0.503937007874016
        },
        {
          "duration": 0.342856999999995,
          "durationTicks": 96,
          "midi": 81,
          "name": "A5",
          "ticks": 25921,
          "time": 92.5749614270834,
          "velocity": 0.52755905511811
        },
        {
          "duration": 0.335714145833322,
          "durationTicks": 94,
          "midi": 69,
          "name": "A4",
          "ticks": 26017,
          "time": 92.9178184270834,
          "velocity": 0.448818897637795
        },
        {
          "duration": 0.335714145833322,
          "durationTicks": 94,
          "midi": 76,
          "name": "E5",
          "ticks": 26017,
          "time": 92.9178184270834,
          "velocity": 0.559055118110236
        },
        {
          "duration": 0.521428354166659,
          "durationTicks": 146,
          "midi": 77,
          "name": "F5",
          "ticks": 26112,
          "time": 93.257104,
          "velocity": 0.590551181102362
        },
        {
          "duration": 0.521428354166659,
          "durationTicks": 146,
          "midi": 74,
          "name": "D5",
          "ticks": 26112,
          "time": 93.257104,
          "velocity": 0.480314960629921
        },
        {
          "duration": 0.521428354166659,
          "durationTicks": 146,
          "midi": 69,
          "name": "A4",
          "ticks": 26112,
          "time": 93.257104,
          "velocity": 0.480314960629921
        },
        {
          "duration": 0.160714218750002,
          "durationTicks": 45,
          "midi": 77,
          "name": "F5",
          "ticks": 26258,
          "time": 93.7785323541667,
          "velocity": 0.503937007874016
        },
        {
          "duration": 0.160714218750002,
          "durationTicks": 45,
          "midi": 76,
          "name": "E5",
          "ticks": 26305,
          "time": 93.9463894270834,
          "velocity": 0.574803149606299
        },
        {
          "duration": 0.160714218750002,
          "durationTicks": 45,
          "midi": 72,
          "name": "C5",
          "ticks": 26305,
          "time": 93.9463894270834,
          "velocity": 0.464566929133858
        },
        {
          "duration": 0.160714218750002,
          "durationTicks": 45,
          "midi": 67,
          "name": "G4",
          "ticks": 26305,
          "time": 93.9463894270834,
          "velocity": 0.464566929133858
        },
        {
          "duration": 0.160714218750002,
          "durationTicks": 45,
          "midi": 77,
          "name": "F5",
          "ticks": 26353,
          "time": 94.1178179270834,
          "velocity": 0.503937007874016
        },
        {
          "duration": 0.157142791666658,
          "durationTicks": 44,
          "midi": 81,
          "name": "A5",
          "ticks": 26401,
          "time": 94.2892464270833,
          "velocity": 0.511811023622047
        },
        {
          "duration": 0.160714218750002,
          "durationTicks": 45,
          "midi": 74,
          "name": "D5",
          "ticks": 26448,
          "time": 94.4571035,
          "velocity": 0.503937007874016
        },
        {
          "duration": 0.171428500000005,
          "durationTicks": 48,
          "midi": 71,
          "name": "B4",
          "ticks": 26496,
          "time": 94.628532,
          "velocity": 0.480314960629921
        },
        {
          "duration": 0.171428500000005,
          "durationTicks": 48,
          "midi": 74,
          "name": "D5",
          "ticks": 26496,
          "time": 94.628532,
          "velocity": 0.480314960629921
        },
        {
          "duration": 0.171428500000005,
          "durationTicks": 48,
          "midi": 79,
          "name": "G5",
          "ticks": 26496,
          "time": 94.628532,
          "velocity": 0.559055118110236
        },
        {
          "duration": 0.157142791666672,
          "durationTicks": 44,
          "midi": 71,
          "name": "B4",
          "ticks": 26547,
          "time": 94.81067478125,
          "velocity": 0.440944881889764
        },
        {
          "duration": 0.157142791666672,
          "durationTicks": 44,
          "midi": 74,
          "name": "D5",
          "ticks": 26547,
          "time": 94.81067478125,
          "velocity": 0.440944881889764
        },
        {
          "duration": 0.157142791666672,
          "durationTicks": 44,
          "midi": 79,
          "name": "G5",
          "ticks": 26547,
          "time": 94.81067478125,
          "velocity": 0.519685039370079
        },
        {
          "duration": 0.160714218750002,
          "durationTicks": 45,
          "midi": 71,
          "name": "B4",
          "ticks": 26594,
          "time": 94.9785318541667,
          "velocity": 0.448818897637795
        },
        {
          "duration": 0.160714218750002,
          "durationTicks": 45,
          "midi": 74,
          "name": "D5",
          "ticks": 26594,
          "time": 94.9785318541667,
          "velocity": 0.448818897637795
        },
        {
          "duration": 0.160714218750002,
          "durationTicks": 45,
          "midi": 79,
          "name": "G5",
          "ticks": 26594,
          "time": 94.9785318541667,
          "velocity": 0.52755905511811
        },
        {
          "duration": 0.160714218750002,
          "durationTicks": 45,
          "midi": 71,
          "name": "B4",
          "ticks": 26642,
          "time": 95.1499603541667,
          "velocity": 0.440944881889764
        },
        {
          "duration": 0.160714218750002,
          "durationTicks": 45,
          "midi": 74,
          "name": "D5",
          "ticks": 26642,
          "time": 95.1499603541667,
          "velocity": 0.440944881889764
        },
        {
          "duration": 0.160714218750002,
          "durationTicks": 45,
          "midi": 79,
          "name": "G5",
          "ticks": 26642,
          "time": 95.1499603541667,
          "velocity": 0.551181102362205
        },
        {
          "duration": 0.160714218750002,
          "durationTicks": 45,
          "midi": 78,
          "name": "F#5",
          "ticks": 26689,
          "time": 95.3178174270833,
          "velocity": 0.574803149606299
        },
        {
          "duration": 0.160714218750002,
          "durationTicks": 45,
          "midi": 71,
          "name": "B4",
          "ticks": 26689,
          "time": 95.3178174270833,
          "velocity": 0.464566929133858
        },
        {
          "duration": 0.160714218750002,
          "durationTicks": 45,
          "midi": 79,
          "name": "G5",
          "ticks": 26737,
          "time": 95.4892459270834,
          "velocity": 0.503937007874016
        },
        {
          "duration": 0.157142791666658,
          "durationTicks": 44,
          "midi": 71,
          "name": "B4",
          "ticks": 26785,
          "time": 95.6606744270834,
          "velocity": 0.448818897637795
        },
        {
          "duration": 0.157142791666658,
          "durationTicks": 44,
          "midi": 78,
          "name": "F#5",
          "ticks": 26785,
          "time": 95.6606744270834,
          "velocity": 0.559055118110236
        },
        {
          "duration": 0.160714218750002,
          "durationTicks": 45,
          "midi": 79,
          "name": "G5",
          "ticks": 26832,
          "time": 95.8285315,
          "velocity": 0.503937007874016
        },
        {
          "duration": 0.171428500000005,
          "durationTicks": 48,
          "midi": 78,
          "name": "F#5",
          "ticks": 26880,
          "time": 95.99996,
          "velocity": 0.590551181102362
        },
        {
          "duration": 0.171428500000005,
          "durationTicks": 48,
          "midi": 70,
          "name": "A#4",
          "ticks": 26880,
          "time": 95.99996,
          "velocity": 0.480314960629921
        },
        {
          "duration": 0.157142791666658,
          "durationTicks": 44,
          "midi": 79,
          "name": "G5",
          "ticks": 26931,
          "time": 96.18210278125,
          "velocity": 0.503937007874016
        },
        {
          "duration": 0.160714218750002,
          "durationTicks": 45,
          "midi": 80,
          "name": "G#5",
          "ticks": 26978,
          "time": 96.3499598541667,
          "velocity": 0.511811023622047
        },
        {
          "duration": 0.160714218750002,
          "durationTicks": 45,
          "midi": 81,
          "name": "A5",
          "ticks": 27026,
          "time": 96.5213883541667,
          "velocity": 0.503937007874016
        },
        {
          "duration": 0.160714218750002,
          "durationTicks": 45,
          "midi": 72,
          "name": "C5",
          "ticks": 27073,
          "time": 96.6892454270834,
          "velocity": 0.464566929133858
        },
        {
          "duration": 0.160714218750002,
          "durationTicks": 45,
          "midi": 81,
          "name": "A5",
          "ticks": 27073,
          "time": 96.6892454270834,
          "velocity": 0.574803149606299
        },
        {
          "duration": 0.160714218750002,
          "durationTicks": 45,
          "midi": 82,
          "name": "A#5",
          "ticks": 27121,
          "time": 96.8606739270833,
          "velocity": 0.503937007874016
        },
        {
          "duration": 0.157142791666658,
          "durationTicks": 44,
          "midi": 83,
          "name": "B5",
          "ticks": 27169,
          "time": 97.0321024270833,
          "velocity": 0.511811023622047
        },
        {
          "duration": 0.160714218750002,
          "durationTicks": 45,
          "midi": 84,
          "name": "C6",
          "ticks": 27216,
          "time": 97.1999595,
          "velocity": 0.503937007874016
        },
        {
          "duration": 0.17142849999999,
          "durationTicks": 48,
          "midi": 86,
          "name": "D6",
          "ticks": 27264,
          "time": 97.371388,
          "velocity": 0.543307086614173
        }
      ]
    },
    {
      "channel": 0,
      "controlChanges": {
        "6": [
          {
            "number": 6,
            "ticks": 0,
            "time": 0,
            "value": 0.094488188976378
          }
        ],
        "7": [
          {
            "number": 7,
            "ticks": 0,
            "time": 0,
            "value": 1
          },
          {
            "number": 7,
            "ticks": 0,
            "time": 0,
            "value": 1
          }
        ],
        "10": [
          {
            "number": 10,
            "ticks": 0,
            "time": 0,
            "value": 0.503937007874016
          },
          {
            "number": 10,
            "ticks": 0,
            "time": 0,
            "value": 0.503937007874016
          }
        ],
        "100": [
          {
            "number": 100,
            "ticks": 0,
            "time": 0,
            "value": 0
          }
        ],
        "101": [
          {
            "number": 101,
            "ticks": 0,
            "time": 0,
            "value": 0
          }
        ]
      },
      "pitchBends": [
        {
          "ticks": 0,
          "time": 0,
          "value": 0
        },
        {
          "ticks": 0,
          "time": 0,
          "value": 0
        }
      ],
      "instrument": {
        "family": "piano",
        "number": 0,
        "name": "acoustic grand piano"
      },
      "name": "MIDI out #4",
      "notes": [],
      "endOfTrackTicks": 34177
    },
    {
      "channel": 13,
      "controlChanges": {
        "6": [
          {
            "number": 6,
            "ticks": 0,
            "time": 0,
            "value": 0.094488188976378
          },
          {
            "number": 6,
            "ticks": 0,
            "time": 0,
            "value": 0.094488188976378
          },
          {
            "number": 6,
            "ticks": 34176,
            "time": 122.057092,
            "value": 0.094488188976378
          },
          {
            "number": 6,
            "ticks": 34177,
            "time": 122.060663427083,
            "value": 0.094488188976378
          },
          {
            "number": 6,
            "ticks": 34177,
            "time": 122.060663427083,
            "value": 0.094488188976378
          }
        ],
        "7": [
          {
            "number": 7,
            "ticks": 0,
            "time": 0,
            "value": 1
          },
          {
            "number": 7,
            "ticks": 0,
            "time": 0,
            "value": 1
          },
          {
            "number": 7,
            "ticks": 34176,
            "time": 122.057092,
            "value": 1
          },
          {
            "number": 7,
            "ticks": 34177,
            "time": 122.060663427083,
            "value": 1
          },
          {
            "number": 7,
            "ticks": 34177,
            "time": 122.060663427083,
            "value": 1
          }
        ],
        "10": [
          {
            "number": 10,
            "ticks": 0,
            "time": 0,
            "value": 0.503937007874016
          },
          {
            "number": 10,
            "ticks": 0,
            "time": 0,
            "value": 0.503937007874016
          },
          {
            "number": 10,
            "ticks": 34176,
            "time": 122.057092,
            "value": 0.503937007874016
          },
          {
            "number": 10,
            "ticks": 34177,
            "time": 122.060663427083,
            "value": 0.503937007874016
          },
          {
            "number": 10,
            "ticks": 34177,
            "time": 122.060663427083,
            "value": 0.503937007874016
          }
        ],
        "100": [
          {
            "number": 100,
            "ticks": 0,
            "time": 0,
            "value": 0
          },
          {
            "number": 100,
            "ticks": 0,
            "time": 0,
            "value": 0
          },
          {
            "number": 100,
            "ticks": 34176,
            "time": 122.057092,
            "value": 0
          },
          {
            "number": 100,
            "ticks": 34177,
            "time": 122.060663427083,
            "value": 0
          },
          {
            "number": 100,
            "ticks": 34177,
            "time": 122.060663427083,
            "value": 0
          }
        ],
        "101": [
          {
            "number": 101,
            "ticks": 0,
            "time": 0,
            "value": 0
          },
          {
            "number": 101,
            "ticks": 0,
            "time": 0,
            "value": 0
          },
          {
            "number": 101,
            "ticks": 34176,
            "time": 122.057092,
            "value": 0
          },
          {
            "number": 101,
            "ticks": 34177,
            "time": 122.060663427083,
            "value": 0
          },
          {
            "number": 101,
            "ticks": 34177,
            "time": 122.060663427083,
            "value": 0
          }
        ]
      },
      "pitchBends": [
        {
          "ticks": 0,
          "time": 0,
          "value": 0
        },
        {
          "ticks": 0,
          "time": 0,
          "value": 0
        },
        {
          "ticks": 34176,
          "time": 122.057092,
          "value": 0
        },
        {
          "ticks": 34177,
          "time": 122.060663427083,
          "value": 0
        },
        {
          "ticks": 34177,
          "time": 122.060663427083,
          "value": 0
        }
      ],
      "instrument": {
        "family": "piano",
        "number": 4,
        "name": "electric piano 1"
      },
      "name": "",
      "notes": [
        {
          "duration": 0.1714285,
          "durationTicks": 48,
          "midi": 69,
          "name": "A4",
          "ticks": 0,
          "time": 0,
          "velocity": 0.543307086614173
        },
        {
          "duration": 0.1714285,
          "durationTicks": 48,
          "midi": 81,
          "name": "A5",
          "ticks": 0,
          "time": 0,
          "velocity": 0.543307086614173
        },
        {
          "duration": 0.157142791666667,
          "durationTicks": 44,
          "midi": 70,
          "name": "A#4",
          "ticks": 51,
          "time": 0.18214278125,
          "velocity": 0.503937007874016
        },
        {
          "duration": 0.157142791666667,
          "durationTicks": 44,
          "midi": 82,
          "name": "A#5",
          "ticks": 51,
          "time": 0.18214278125,
          "velocity": 0.503937007874016
        },
        {
          "duration": 0.16071421875,
          "durationTicks": 45,
          "midi": 83,
          "name": "B5",
          "ticks": 98,
          "time": 0.349999854166667,
          "velocity": 0.511811023622047
        },
        {
          "duration": 0.16071421875,
          "durationTicks": 45,
          "midi": 71,
          "name": "B4",
          "ticks": 98,
          "time": 0.349999854166667,
          "velocity": 0.511811023622047
        },
        {
          "duration": 0.16071421875,
          "durationTicks": 45,
          "midi": 72,
          "name": "C5",
          "ticks": 146,
          "time": 0.521428354166667,
          "velocity": 0.503937007874016
        },
        {
          "duration": 0.16071421875,
          "durationTicks": 45,
          "midi": 84,
          "name": "C6",
          "ticks": 146,
          "time": 0.521428354166667,
          "velocity": 0.503937007874016
        },
        {
          "duration": 0.16071421875,
          "durationTicks": 45,
          "midi": 72,
          "name": "C5",
          "ticks": 241,
          "time": 0.860713927083333,
          "velocity": 0.503937007874016
        },
        {
          "duration": 0.16071421875,
          "durationTicks": 45,
          "midi": 84,
          "name": "C6",
          "ticks": 241,
          "time": 0.860713927083333,
          "velocity": 0.503937007874016
        },
        {
          "duration": 0.157142791666667,
          "durationTicks": 44,
          "midi": 71,
          "name": "B4",
          "ticks": 289,
          "time": 1.03214242708333,
          "velocity": 0.511811023622047
        },
        {
          "duration": 0.157142791666667,
          "durationTicks": 44,
          "midi": 83,
          "name": "B5",
          "ticks": 289,
          "time": 1.03214242708333,
          "velocity": 0.511811023622047
        },
        {
          "duration": 0.16071421875,
          "durationTicks": 45,
          "midi": 70,
          "name": "A#4",
          "ticks": 336,
          "time": 1.1999995,
          "velocity": 0.503937007874016
        },
        {
          "duration": 0.16071421875,
          "durationTicks": 45,
          "midi": 82,
          "name": "A#5",
          "ticks": 336,
          "time": 1.1999995,
          "velocity": 0.503937007874016
        },
        {
          "duration": 0.1714285,
          "durationTicks": 48,
          "midi": 69,
          "name": "A4",
          "ticks": 384,
          "time": 1.371428,
          "velocity": 0.543307086614173
        },
        {
          "duration": 0.1714285,
          "durationTicks": 48,
          "midi": 81,
          "name": "A5",
          "ticks": 384,
          "time": 1.371428,
          "velocity": 0.543307086614173
        },
        {
          "duration": 0.157142791666667,
          "durationTicks": 44,
          "midi": 70,
          "name": "A#4",
          "ticks": 435,
          "time": 1.55357078125,
          "velocity": 0.503937007874016
        },
        {
          "duration": 0.157142791666667,
          "durationTicks": 44,
          "midi": 82,
          "name": "A#5",
          "ticks": 435,
          "time": 1.55357078125,
          "velocity": 0.503937007874016
        },
        {
          "duration": 0.16071421875,
          "durationTicks": 45,
          "midi": 71,
          "name": "B4",
          "ticks": 482,
          "time": 1.72142785416667,
          "velocity": 0.511811023622047
        },
        {
          "duration": 0.16071421875,
          "durationTicks": 45,
          "midi": 83,
          "name": "B5",
          "ticks": 482,
          "time": 1.72142785416667,
          "velocity": 0.511811023622047
        },
        {
          "duration": 0.16071421875,
          "durationTicks": 45,
          "midi": 72,
          "name": "C5",
          "ticks": 530,
          "time": 1.89285635416667,
          "velocity": 0.503937007874016
        },
        {
          "duration": 0.16071421875,
          "durationTicks": 45,
          "midi": 84,
          "name": "C6",
          "ticks": 530,
          "time": 1.89285635416667,
          "velocity": 0.503937007874016
        },
        {
          "duration": 0.16071421875,
          "durationTicks": 45,
          "midi": 72,
          "name": "C5",
          "ticks": 625,
          "time": 2.23214192708333,
          "velocity": 0.503937007874016
        },
        {
          "duration": 0.16071421875,
          "durationTicks": 45,
          "midi": 84,
          "name": "C6",
          "ticks": 625,
          "time": 2.23214192708333,
          "velocity": 0.503937007874016
        },
        {
          "duration": 0.157142791666666,
          "durationTicks": 44,
          "midi": 71,
          "name": "B4",
          "ticks": 673,
          "time": 2.40357042708333,
          "velocity": 0.511811023622047
        },
        {
          "duration": 0.157142791666666,
          "durationTicks": 44,
          "midi": 83,
          "name": "B5",
          "ticks": 673,
          "time": 2.40357042708333,
          "velocity": 0.511811023622047
        },
        {
          "duration": 0.16071421875,
          "durationTicks": 45,
          "midi": 82,
          "name": "A#5",
          "ticks": 720,
          "time": 2.5714275,
          "velocity": 0.503937007874016
        },
        {
          "duration": 0.16071421875,
          "durationTicks": 45,
          "midi": 70,
          "name": "A#4",
          "ticks": 720,
          "time": 2.5714275,
          "velocity": 0.503937007874016
        },
        {
          "duration": 0.1714285,
          "durationTicks": 48,
          "midi": 81,
          "name": "A5",
          "ticks": 768,
          "time": 2.742856,
          "velocity": 0.543307086614173
        },
        {
          "duration": 0.1714285,
          "durationTicks": 48,
          "midi": 65,
          "name": "F4",
          "ticks": 768,
          "time": 2.742856,
          "velocity": 0.543307086614173
        },
        {
          "duration": 0.157142791666667,
          "durationTicks": 44,
          "midi": 82,
          "name": "A#5",
          "ticks": 819,
          "time": 2.92499878125,
          "velocity": 0.503937007874016
        },
        {
          "duration": 0.157142791666667,
          "durationTicks": 44,
          "midi": 67,
          "name": "G4",
          "ticks": 819,
          "time": 2.92499878125,
          "velocity": 0.503937007874016
        },
        {
          "duration": 0.16071421875,
          "durationTicks": 45,
          "midi": 83,
          "name": "B5",
          "ticks": 866,
          "time": 3.09285585416667,
          "velocity": 0.511811023622047
        },
        {
          "duration": 0.16071421875,
          "durationTicks": 45,
          "midi": 68,
          "name": "G#4",
          "ticks": 866,
          "time": 3.09285585416667,
          "velocity": 0.511811023622047
        },
        {
          "duration": 0.16071421875,
          "durationTicks": 45,
          "midi": 84,
          "name": "C6",
          "ticks": 914,
          "time": 3.26428435416667,
          "velocity": 0.503937007874016
        },
        {
          "duration": 0.16071421875,
          "durationTicks": 45,
          "midi": 69,
          "name": "A4",
          "ticks": 914,
          "time": 3.26428435416667,
          "velocity": 0.503937007874016
        },
        {
          "duration": 0.16071421875,
          "durationTicks": 45,
          "midi": 70,
          "name": "A#4",
          "ticks": 961,
          "time": 3.43214142708333,
          "velocity": 0.52755905511811
        },
        {
          "duration": 0.16071421875,
          "durationTicks": 45,
          "midi": 86,
          "name": "D6",
          "ticks": 961,
          "time": 3.43214142708333,
          "velocity": 0.52755905511811
        },
        {
          "duration": 0.16071421875,
          "durationTicks": 45,
          "midi": 88,
          "name": "E6",
          "ticks": 1009,
          "time": 3.60356992708333,
          "velocity": 0.503937007874016
        },
        {
          "duration": 0.16071421875,
          "durationTicks": 45,
          "midi": 72,
          "name": "C5",
          "ticks": 1009,
          "time": 3.60356992708333,
          "velocity": 0.503937007874016
        },
        {
          "duration": 0.157142791666667,
          "durationTicks": 44,
          "midi": 89,
          "name": "F6",
          "ticks": 1057,
          "time": 3.77499842708333,
          "velocity": 0.511811023622047
        },
        {
          "duration": 0.157142791666667,
          "durationTicks": 44,
          "midi": 74,
          "name": "D5",
          "ticks": 1057,
          "time": 3.77499842708333,
          "velocity": 0.511811023622047
        },
        {
          "duration": 0.16071421875,
          "durationTicks": 45,
          "midi": 70,
          "name": "A#4",
          "ticks": 1104,
          "time": 3.9428555,
          "velocity": 0.503937007874016
        },
        {
          "duration": 0.16071421875,
          "durationTicks": 45,
          "midi": 86,
          "name": "D6",
          "ticks": 1104,
          "time": 3.9428555,
          "velocity": 0.503937007874016
        },
        {
          "duration": 0.1714285,
          "durationTicks": 48,
          "midi": 76,
          "name": "E5",
          "ticks": 1152,
          "time": 4.114284,
          "velocity": 0.543307086614173
        },
        {
          "duration": 0.1714285,
          "durationTicks": 48,
          "midi": 91,
          "name": "G6",
          "ticks": 1152,
          "time": 4.114284,
          "velocity": 0.543307086614173
        },
        {
          "duration": 0.157142791666667,
          "durationTicks": 44,
          "midi": 74,
          "name": "D5",
          "ticks": 1203,
          "time": 4.29642678125,
          "velocity": 0.503937007874016
        },
        {
          "duration": 0.157142791666667,
          "durationTicks": 44,
          "midi": 89,
          "name": "F6",
          "ticks": 1203,
          "time": 4.29642678125,
          "velocity": 0.503937007874016
        },
        {
          "duration": 0.16071421875,
          "durationTicks": 45,
          "midi": 88,
          "name": "E6",
          "ticks": 1250,
          "time": 4.46428385416667,
          "velocity": 0.511811023622047
        },
        {
          "duration": 0.16071421875,
          "durationTicks": 45,
          "midi": 72,
          "name": "C5",
          "ticks": 1250,
          "time": 4.46428385416667,
          "velocity": 0.511811023622047
        },
        {
          "duration": 0.16071421875,
          "durationTicks": 45,
          "midi": 84,
          "name": "C6",
          "ticks": 1298,
          "time": 4.63571235416667,
          "velocity": 0.503937007874016
        },
        {
          "duration": 0.16071421875,
          "durationTicks": 45,
          "midi": 67,
          "name": "G4",
          "ticks": 1298,
          "time": 4.63571235416667,
          "velocity": 0.503937007874016
        },
        {
          "duration": 0.16071421875,
          "durationTicks": 45,
          "midi": 71,
          "name": "B4",
          "ticks": 1393,
          "time": 4.97499792708333,
          "velocity": 0.440944881889764
        },
        {
          "duration": 0.16071421875,
          "durationTicks": 45,
          "midi": 72,
          "name": "C5",
          "ticks": 1393,
          "time": 4.97499792708333,
          "velocity": 0.519685039370079
        },
        {
          "duration": 0.335714145833334,
          "durationTicks": 94,
          "midi": 72,
          "name": "C5",
          "ticks": 1441,
          "time": 5.14642642708333,
          "velocity": 0.52755905511811
        },
        {
          "duration": 0.335714145833334,
          "durationTicks": 94,
          "midi": 71,
          "name": "B4",
          "ticks": 1441,
          "time": 5.14642642708333,
          "velocity": 0.448818897637795
        },
        {
          "duration": 0.1714285,
          "durationTicks": 48,
          "midi": 69,
          "name": "A4",
          "ticks": 1536,
          "time": 5.485712,
          "velocity": 0.543307086614173
        },
        {
          "duration": 0.1714285,
          "durationTicks": 48,
          "midi": 81,
          "name": "A5",
          "ticks": 1536,
          "time": 5.485712,
          "velocity": 0.543307086614173
        },
        {
          "duration": 0.157142791666667,
          "durationTicks": 44,
          "midi": 82,
          "name": "A#5",
          "ticks": 1587,
          "time": 5.66785478125,
          "velocity": 0.503937007874016
        },
        {
          "duration": 0.157142791666667,
          "durationTicks": 44,
          "midi": 70,
          "name": "A#4",
          "ticks": 1587,
          "time": 5.66785478125,
          "velocity": 0.503937007874016
        },
        {
          "duration": 0.16071421875,
          "durationTicks": 45,
          "midi": 71,
          "name": "B4",
          "ticks": 1634,
          "time": 5.83571185416667,
          "velocity": 0.511811023622047
        },
        {
          "duration": 0.16071421875,
          "durationTicks": 45,
          "midi": 83,
          "name": "B5",
          "ticks": 1634,
          "time": 5.83571185416667,
          "velocity": 0.511811023622047
        },
        {
          "duration": 0.16071421875,
          "durationTicks": 45,
          "midi": 72,
          "name": "C5",
          "ticks": 1682,
          "time": 6.00714035416667,
          "velocity": 0.503937007874016
        },
        {
          "duration": 0.16071421875,
          "durationTicks": 45,
          "midi": 84,
          "name": "C6",
          "ticks": 1682,
          "time": 6.00714035416667,
          "velocity": 0.503937007874016
        },
        {
          "duration": 0.16071421875,
          "durationTicks": 45,
          "midi": 72,
          "name": "C5",
          "ticks": 1777,
          "time": 6.34642592708333,
          "velocity": 0.503937007874016
        },
        {
          "duration": 0.16071421875,
          "durationTicks": 45,
          "midi": 84,
          "name": "C6",
          "ticks": 1777,
          "time": 6.34642592708333,
          "velocity": 0.503937007874016
        },
        {
          "duration": 0.157142791666667,
          "durationTicks": 44,
          "midi": 83,
          "name": "B5",
          "ticks": 1825,
          "time": 6.51785442708333,
          "velocity": 0.511811023622047
        },
        {
          "duration": 0.157142791666667,
          "durationTicks": 44,
          "midi": 71,
          "name": "B4",
          "ticks": 1825,
          "time": 6.51785442708333,
          "velocity": 0.511811023622047
        },
        {
          "duration": 0.160714218750001,
          "durationTicks": 45,
          "midi": 72,
          "name": "C5",
          "ticks": 1872,
          "time": 6.6857115,
          "velocity": 0.503937007874016
        },
        {
          "duration": 0.160714218750001,
          "durationTicks": 45,
          "midi": 84,
          "name": "C6",
          "ticks": 1872,
          "time": 6.6857115,
          "velocity": 0.503937007874016
        },
        {
          "duration": 0.1714285,
          "durationTicks": 48,
          "midi": 86,
          "name": "D6",
          "ticks": 1920,
          "time": 6.85714,
          "velocity": 0.543307086614173
        },
        {
          "duration": 0.1714285,
          "durationTicks": 48,
          "midi": 82,
          "name": "A#5",
          "ticks": 1920,
          "time": 6.85714,
          "velocity": 0.543307086614173
        },
        {
          "duration": 0.157142791666666,
          "durationTicks": 44,
          "midi": 81,
          "name": "A5",
          "ticks": 1971,
          "time": 7.03928278125,
          "velocity": 0.503937007874016
        },
        {
          "duration": 0.157142791666666,
          "durationTicks": 44,
          "midi": 88,
          "name": "E6",
          "ticks": 1971,
          "time": 7.03928278125,
          "velocity": 0.503937007874016
        },
        {
          "duration": 0.16071421875,
          "durationTicks": 45,
          "midi": 79,
          "name": "G5",
          "ticks": 2018,
          "time": 7.20713985416667,
          "velocity": 0.511811023622047
        },
        {
          "duration": 0.16071421875,
          "durationTicks": 45,
          "midi": 89,
          "name": "F6",
          "ticks": 2018,
          "time": 7.20713985416667,
          "velocity": 0.511811023622047
        },
        {
          "duration": 0.16071421875,
          "durationTicks": 45,
          "midi": 86,
          "name": "D6",
          "ticks": 2066,
          "time": 7.37856835416667,
          "velocity": 0.440944881889764
        },
        {
          "duration": 0.16071421875,
          "durationTicks": 45,
          "midi": 90,
          "name": "F#6",
          "ticks": 2066,
          "time": 7.37856835416667,
          "velocity": 0.440944881889764
        },
        {
          "duration": 0.16071421875,
          "durationTicks": 45,
          "midi": 93,
          "name": "A6",
          "ticks": 2066,
          "time": 7.37856835416667,
          "velocity": 0.551181102362205
        },
        {
          "duration": 0.16071421875,
          "durationTicks": 45,
          "midi": 105,
          "name": "A7",
          "ticks": 2161,
          "time": 7.71785392708333,
          "velocity": 0.551181102362205
        },
        {
          "duration": 0.16071421875,
          "durationTicks": 45,
          "midi": 93,
          "name": "A6",
          "ticks": 2161,
          "time": 7.71785392708333,
          "velocity": 0.440944881889764
        },
        {
          "duration": 0.157142791666666,
          "durationTicks": 44,
          "midi": 91,
          "name": "G6",
          "ticks": 2209,
          "time": 7.88928242708334,
          "velocity": 0.448818897637795
        },
        {
          "duration": 0.157142791666666,
          "durationTicks": 44,
          "midi": 103,
          "name": "G7",
          "ticks": 2209,
          "time": 7.88928242708334,
          "velocity": 0.559055118110236
        },
        {
          "duration": 0.16071421875,
          "durationTicks": 45,
          "midi": 93,
          "name": "A6",
          "ticks": 2256,
          "time": 8.0571395,
          "velocity": 0.440944881889764
        },
        {
          "duration": 0.16071421875,
          "durationTicks": 45,
          "midi": 105,
          "name": "A7",
          "ticks": 2256,
          "time": 8.0571395,
          "velocity": 0.551181102362205
        },
        {
          "duration": 0.171428499999999,
          "durationTicks": 48,
          "midi": 94,
          "name": "A#6",
          "ticks": 2304,
          "time": 8.228568,
          "velocity": 0.480314960629921
        },
        {
          "duration": 0.171428499999999,
          "durationTicks": 48,
          "midi": 100,
          "name": "E7",
          "ticks": 2304,
          "time": 8.228568,
          "velocity": 0.480314960629921
        },
        {
          "duration": 0.171428499999999,
          "durationTicks": 48,
          "midi": 106,
          "name": "A#7",
          "ticks": 2304,
          "time": 8.228568,
          "velocity": 0.590551181102362
        },
        {
          "duration": 0.157142791666667,
          "durationTicks": 44,
          "midi": 105,
          "name": "A7",
          "ticks": 2355,
          "time": 8.41071078125,
          "velocity": 0.551181102362205
        },
        {
          "duration": 0.157142791666667,
          "durationTicks": 44,
          "midi": 93,
          "name": "A6",
          "ticks": 2355,
          "time": 8.41071078125,
          "velocity": 0.440944881889764
        },
        {
          "duration": 0.16071421875,
          "durationTicks": 45,
          "midi": 106,
          "name": "A#7",
          "ticks": 2402,
          "time": 8.57856785416667,
          "velocity": 0.559055118110236
        },
        {
          "duration": 0.16071421875,
          "durationTicks": 45,
          "midi": 94,
          "name": "A#6",
          "ticks": 2402,
          "time": 8.57856785416667,
          "velocity": 0.448818897637795
        },
        {
          "duration": 0.16071421875,
          "durationTicks": 45,
          "midi": 103,
          "name": "G7",
          "ticks": 2450,
          "time": 8.74999635416667,
          "velocity": 0.551181102362205
        },
        {
          "duration": 0.16071421875,
          "durationTicks": 45,
          "midi": 91,
          "name": "G6",
          "ticks": 2450,
          "time": 8.74999635416667,
          "velocity": 0.440944881889764
        },
        {
          "duration": 0.16071421875,
          "durationTicks": 45,
          "midi": 88,
          "name": "E6",
          "ticks": 2497,
          "time": 8.91785342708334,
          "velocity": 0.464566929133858
        },
        {
          "duration": 0.16071421875,
          "durationTicks": 45,
          "midi": 91,
          "name": "G6",
          "ticks": 2497,
          "time": 8.91785342708334,
          "velocity": 0.464566929133858
        },
        {
          "duration": 0.16071421875,
          "durationTicks": 45,
          "midi": 100,
          "name": "E7",
          "ticks": 2497,
          "time": 8.91785342708334,
          "velocity": 0.574803149606299
        },
        {
          "duration": 0.16071421875,
          "durationTicks": 45,
          "midi": 98,
          "name": "D7",
          "ticks": 2545,
          "time": 9.08928192708333,
          "velocity": 0.551181102362205
        },
        {
          "duration": 0.16071421875,
          "durationTicks": 45,
          "midi": 86,
          "name": "D6",
          "ticks": 2545,
          "time": 9.08928192708333,
          "velocity": 0.440944881889764
        },
        {
          "duration": 0.157142791666667,
          "durationTicks": 44,
          "midi": 100,
          "name": "E7",
          "ticks": 2593,
          "time": 9.26071042708333,
          "velocity": 0.559055118110236
        },
        {
          "duration": 0.157142791666667,
          "durationTicks": 44,
          "midi": 88,
          "name": "E6",
          "ticks": 2593,
          "time": 9.26071042708333,
          "velocity": 0.448818897637795
        },
        {
          "duration": 0.160714218750002,
          "durationTicks": 45,
          "midi": 84,
          "name": "C6",
          "ticks": 2640,
          "time": 9.4285675,
          "velocity": 0.440944881889764
        },
        {
          "duration": 0.160714218750002,
          "durationTicks": 45,
          "midi": 96,
          "name": "C7",
          "ticks": 2640,
          "time": 9.4285675,
          "velocity": 0.551181102362205
        },
        {
          "duration": 0.171428499999999,
          "durationTicks": 48,
          "midi": 101,
          "name": "F7",
          "ticks": 2688,
          "time": 9.599996,
          "velocity": 0.590551181102362
        },
        {
          "duration": 0.171428499999999,
          "durationTicks": 48,
          "midi": 93,
          "name": "A6",
          "ticks": 2688,
          "time": 9.599996,
          "velocity": 0.480314960629921
        },
        {
          "duration": 0.171428499999999,
          "durationTicks": 48,
          "midi": 89,
          "name": "F6",
          "ticks": 2688,
          "time": 9.599996,
          "velocity": 0.480314960629921
        },
        {
          "duration": 0.157142791666665,
          "durationTicks": 44,
          "midi": 89,
          "name": "F6",
          "ticks": 2739,
          "time": 9.78213878125,
          "velocity": 0.440944881889764
        },
        {
          "duration": 0.157142791666665,
          "durationTicks": 44,
          "midi": 93,
          "name": "A6",
          "ticks": 2739,
          "time": 9.78213878125,
          "velocity": 0.440944881889764
        },
        {
          "duration": 0.157142791666665,
          "durationTicks": 44,
          "midi": 101,
          "name": "F7",
          "ticks": 2739,
          "time": 9.78213878125,
          "velocity": 0.551181102362205
        },
        {
          "duration": 0.16071421875,
          "durationTicks": 45,
          "midi": 88,
          "name": "E6",
          "ticks": 2786,
          "time": 9.94999585416667,
          "velocity": 0.448818897637795
        },
        {
          "duration": 0.16071421875,
          "durationTicks": 45,
          "midi": 92,
          "name": "G#6",
          "ticks": 2786,
          "time": 9.94999585416667,
          "velocity": 0.448818897637795
        },
        {
          "duration": 0.16071421875,
          "durationTicks": 45,
          "midi": 100,
          "name": "E7",
          "ticks": 2786,
          "time": 9.94999585416667,
          "velocity": 0.559055118110236
        },
        {
          "duration": 0.16071421875,
          "durationTicks": 45,
          "midi": 101,
          "name": "F7",
          "ticks": 2834,
          "time": 10.1214243541667,
          "velocity": 0.551181102362205
        },
        {
          "duration": 0.16071421875,
          "durationTicks": 45,
          "midi": 93,
          "name": "A6",
          "ticks": 2834,
          "time": 10.1214243541667,
          "velocity": 0.440944881889764
        },
        {
          "duration": 0.16071421875,
          "durationTicks": 45,
          "midi": 89,
          "name": "F6",
          "ticks": 2834,
          "time": 10.1214243541667,
          "velocity": 0.440944881889764
        }
      ]
    },
    {
      "channel": 0,
      "controlChanges": {
        "6": [
          {
            "number": 6,
            "ticks": 0,
            "time": 0,
            "value": 0.094488188976378
          }
        ],
        "7": [
          {
            "number": 7,
            "ticks": 0,
            "time": 0,
            "value": 1
          },
          {
            "number": 7,
            "ticks": 0,
            "time": 0,
            "value": 1
          }
        ],
        "10": [
          {
            "number": 10,
            "ticks": 0,
            "time": 0,
            "value": 0.503937007874016
          },
          {
            "number": 10,
            "ticks": 0,
            "time": 0,
            "value": 0.503937007874016
          }
        ],
        "100": [
          {
            "number": 100,
            "ticks": 0,
            "time": 0,
            "value": 0
          }
        ],
        "101": [
          {
            "number": 101,
            "ticks": 0,
            "time": 0,
            "value": 0
          }
        ]
      },
      "pitchBends": [
        {
          "ticks": 0,
          "time": 0,
          "value": 0
        },
        {
          "ticks": 0,
          "time": 0,
          "value": 0
        }
      ],
      "instrument": {
        "family": "piano",
        "number": 0,
        "name": "acoustic grand piano"
      },
      "name": "MIDI out",
      "notes": [],
      "endOfTrackTicks": 34177
    },
    {
      "channel": 4,
      "controlChanges": {
        "6": [
          {
            "number": 6,
            "ticks": 0,
            "time": 0,
            "value": 0.094488188976378
          },
          {
            "number": 6,
            "ticks": 0,
            "time": 0,
            "value": 0.094488188976378
          },
          {
            "number": 6,
            "ticks": 34176,
            "time": 122.057092,
            "value": 0.094488188976378
          },
          {
            "number": 6,
            "ticks": 34177,
            "time": 122.060663427083,
            "value": 0.094488188976378
          },
          {
            "number": 6,
            "ticks": 34177,
            "time": 122.060663427083,
            "value": 0.094488188976378
          }
        ],
        "7": [
          {
            "number": 7,
            "ticks": 0,
            "time": 0,
            "value": 1
          },
          {
            "number": 7,
            "ticks": 0,
            "time": 0,
            "value": 1
          },
          {
            "number": 7,
            "ticks": 34176,
            "time": 122.057092,
            "value": 1
          },
          {
            "number": 7,
            "ticks": 34177,
            "time": 122.060663427083,
            "value": 1
          },
          {
            "number": 7,
            "ticks": 34177,
            "time": 122.060663427083,
            "value": 1
          }
        ],
        "10": [
          {
            "number": 10,
            "ticks": 0,
            "time": 0,
            "value": 0.503937007874016
          },
          {
            "number": 10,
            "ticks": 0,
            "time": 0,
            "value": 0.503937007874016
          },
          {
            "number": 10,
            "ticks": 34176,
            "time": 122.057092,
            "value": 0.503937007874016
          },
          {
            "number": 10,
            "ticks": 34177,
            "time": 122.060663427083,
            "value": 0.503937007874016
          },
          {
            "number": 10,
            "ticks": 34177,
            "time": 122.060663427083,
            "value": 0.503937007874016
          }
        ],
        "100": [
          {
            "number": 100,
            "ticks": 0,
            "time": 0,
            "value": 0
          },
          {
            "number": 100,
            "ticks": 0,
            "time": 0,
            "value": 0
          },
          {
            "number": 100,
            "ticks": 34176,
            "time": 122.057092,
            "value": 0
          },
          {
            "number": 100,
            "ticks": 34177,
            "time": 122.060663427083,
            "value": 0
          },
          {
            "number": 100,
            "ticks": 34177,
            "time": 122.060663427083,
            "value": 0
          }
        ],
        "101": [
          {
            "number": 101,
            "ticks": 0,
            "time": 0,
            "value": 0
          },
          {
            "number": 101,
            "ticks": 0,
            "time": 0,
            "value": 0
          },
          {
            "number": 101,
            "ticks": 34176,
            "time": 122.057092,
            "value": 0
          },
          {
            "number": 101,
            "ticks": 34177,
            "time": 122.060663427083,
            "value": 0
          },
          {
            "number": 101,
            "ticks": 34177,
            "time": 122.060663427083,
            "value": 0
          }
        ]
      },
      "pitchBends": [
        {
          "ticks": 0,
          "time": 0,
          "value": 0
        },
        {
          "ticks": 0,
          "time": 0,
          "value": 0
        },
        {
          "ticks": 34176,
          "time": 122.057092,
          "value": 0
        },
        {
          "ticks": 34177,
          "time": 122.060663427083,
          "value": 0
        },
        {
          "ticks": 34177,
          "time": 122.060663427083,
          "value": 0
        }
      ],
      "instrument": {
        "family": "brass",
        "number": 62,
        "name": "synthbrass 1"
      },
      "name": "",
      "notes": [
        {
          "duration": 0.171428500000001,
          "durationTicks": 48,
          "midi": 69,
          "name": "A4",
          "ticks": 6144,
          "time": 21.942848,
          "velocity": 0.480314960629921
        },
        {
          "duration": 0.171428500000001,
          "durationTicks": 48,
          "midi": 74,
          "name": "D5",
          "ticks": 6144,
          "time": 21.942848,
          "velocity": 0.590551181102362
        },
        {
          "duration": 0.157142791666665,
          "durationTicks": 44,
          "midi": 72,
          "name": "C5",
          "ticks": 6195,
          "time": 22.12499078125,
          "velocity": 0.503937007874016
        },
        {
          "duration": 0.160714218750002,
          "durationTicks": 45,
          "midi": 74,
          "name": "D5",
          "ticks": 6242,
          "time": 22.2928478541667,
          "velocity": 0.511811023622047
        },
        {
          "duration": 0.32857129166667,
          "durationTicks": 92,
          "midi": 77,
          "name": "F5",
          "ticks": 6290,
          "time": 22.4642763541667,
          "velocity": 0.519685039370079
        },
        {
          "duration": 0.32857129166667,
          "durationTicks": 92,
          "midi": 69,
          "name": "A4",
          "ticks": 6290,
          "time": 22.4642763541667,
          "velocity": 0.440944881889764
        },
        {
          "duration": 0.160714218750002,
          "durationTicks": 45,
          "midi": 74,
          "name": "D5",
          "ticks": 6385,
          "time": 22.8035619270833,
          "velocity": 0.503937007874016
        },
        {
          "duration": 0.078571395833329,
          "durationTicks": 22,
          "midi": 69,
          "name": "A4",
          "ticks": 6433,
          "time": 22.9749904270833,
          "velocity": 0.511811023622047
        },
        {
          "duration": 0.0749999687499994,
          "durationTicks": 21,
          "midi": 68,
          "name": "G#4",
          "ticks": 6457,
          "time": 23.0607046770833,
          "velocity": 0.503937007874016
        },
        {
          "duration": 0.0785713958333361,
          "durationTicks": 22,
          "midi": 67,
          "name": "G4",
          "ticks": 6480,
          "time": 23.1428475,
          "velocity": 0.503937007874016
        },
        {
          "duration": 0.0821428229166692,
          "durationTicks": 23,
          "midi": 65,
          "name": "F4",
          "ticks": 6503,
          "time": 23.2249903229167,
          "velocity": 0.503937007874016
        },
        {
          "duration": 0.171428499999998,
          "durationTicks": 48,
          "midi": 74,
          "name": "D5",
          "ticks": 6528,
          "time": 23.314276,
          "velocity": 0.543307086614173
        },
        {
          "duration": 0.157142791666665,
          "durationTicks": 44,
          "midi": 72,
          "name": "C5",
          "ticks": 6579,
          "time": 23.49641878125,
          "velocity": 0.503937007874016
        },
        {
          "duration": 0.160714218749998,
          "durationTicks": 45,
          "midi": 74,
          "name": "D5",
          "ticks": 6626,
          "time": 23.6642758541667,
          "velocity": 0.511811023622047
        },
        {
          "duration": 0.32857129166667,
          "durationTicks": 92,
          "midi": 77,
          "name": "F5",
          "ticks": 6674,
          "time": 23.8357043541667,
          "velocity": 0.519685039370079
        },
        {
          "duration": 0.32857129166667,
          "durationTicks": 92,
          "midi": 69,
          "name": "A4",
          "ticks": 6674,
          "time": 23.8357043541667,
          "velocity": 0.440944881889764
        },
        {
          "duration": 0.160714218749998,
          "durationTicks": 45,
          "midi": 79,
          "name": "G5",
          "ticks": 6769,
          "time": 24.1749899270833,
          "velocity": 0.503937007874016
        },
        {
          "duration": 0.157142791666665,
          "durationTicks": 44,
          "midi": 74,
          "name": "D5",
          "ticks": 6817,
          "time": 24.3464184270833,
          "velocity": 0.511811023622047
        },
        {
          "duration": 0.160714218750002,
          "durationTicks": 45,
          "midi": 72,
          "name": "C5",
          "ticks": 6864,
          "time": 24.5142755,
          "velocity": 0.503937007874016
        },
        {
          "duration": 0.171428500000001,
          "durationTicks": 48,
          "midi": 74,
          "name": "D5",
          "ticks": 6912,
          "time": 24.685704,
          "velocity": 0.590551181102362
        },
        {
          "duration": 0.171428500000001,
          "durationTicks": 48,
          "midi": 69,
          "name": "A4",
          "ticks": 6912,
          "time": 24.685704,
          "velocity": 0.480314960629921
        },
        {
          "duration": 0.157142791666665,
          "durationTicks": 44,
          "midi": 72,
          "name": "C5",
          "ticks": 6963,
          "time": 24.86784678125,
          "velocity": 0.503937007874016
        },
        {
          "duration": 0.160714218750002,
          "durationTicks": 45,
          "midi": 74,
          "name": "D5",
          "ticks": 7010,
          "time": 25.0357038541667,
          "velocity": 0.511811023622047
        },
        {
          "duration": 0.32857129166667,
          "durationTicks": 92,
          "midi": 77,
          "name": "F5",
          "ticks": 7058,
          "time": 25.2071323541667,
          "velocity": 0.519685039370079
        },
        {
          "duration": 0.32857129166667,
          "durationTicks": 92,
          "midi": 69,
          "name": "A4",
          "ticks": 7058,
          "time": 25.2071323541667,
          "velocity": 0.440944881889764
        },
        {
          "duration": 0.160714218750002,
          "durationTicks": 45,
          "midi": 74,
          "name": "D5",
          "ticks": 7153,
          "time": 25.5464179270833,
          "velocity": 0.503937007874016
        },
        {
          "duration": 0.078571395833329,
          "durationTicks": 22,
          "midi": 69,
          "name": "A4",
          "ticks": 7201,
          "time": 25.7178464270833,
          "velocity": 0.511811023622047
        },
        {
          "duration": 0.0749999687499994,
          "durationTicks": 21,
          "midi": 68,
          "name": "G#4",
          "ticks": 7225,
          "time": 25.8035606770833,
          "velocity": 0.503937007874016
        },
        {
          "duration": 0.0785713958333361,
          "durationTicks": 22,
          "midi": 67,
          "name": "G4",
          "ticks": 7248,
          "time": 25.8857035,
          "velocity": 0.503937007874016
        },
        {
          "duration": 0.0821428229166692,
          "durationTicks": 23,
          "midi": 65,
          "name": "F4",
          "ticks": 7271,
          "time": 25.9678463229167,
          "velocity": 0.503937007874016
        },
        {
          "duration": 0.171428499999998,
          "durationTicks": 48,
          "midi": 74,
          "name": "D5",
          "ticks": 7296,
          "time": 26.057132,
          "velocity": 0.543307086614173
        },
        {
          "duration": 0.157142791666665,
          "durationTicks": 44,
          "midi": 72,
          "name": "C5",
          "ticks": 7347,
          "time": 26.23927478125,
          "velocity": 0.503937007874016
        },
        {
          "duration": 0.160714218749998,
          "durationTicks": 45,
          "midi": 74,
          "name": "D5",
          "ticks": 7394,
          "time": 26.4071318541667,
          "velocity": 0.511811023622047
        },
        {
          "duration": 0.328571291666673,
          "durationTicks": 92,
          "midi": 81,
          "name": "A5",
          "ticks": 7442,
          "time": 26.5785603541667,
          "velocity": 0.519685039370079
        },
        {
          "duration": 0.328571291666673,
          "durationTicks": 92,
          "midi": 77,
          "name": "F5",
          "ticks": 7442,
          "time": 26.5785603541667,
          "velocity": 0.440944881889764
        },
        {
          "duration": 0.328571291666673,
          "durationTicks": 92,
          "midi": 74,
          "name": "D5",
          "ticks": 7442,
          "time": 26.5785603541667,
          "velocity": 0.440944881889764
        },
        {
          "duration": 0.328571291666673,
          "durationTicks": 92,
          "midi": 69,
          "name": "A4",
          "ticks": 7442,
          "time": 26.5785603541667,
          "velocity": 0.440944881889764
        },
        {
          "duration": 0.160714218749998,
          "durationTicks": 45,
          "midi": 81,
          "name": "A5",
          "ticks": 7537,
          "time": 26.9178459270833,
          "velocity": 0.551181102362205
        },
        {
          "duration": 0.160714218749998,
          "durationTicks": 45,
          "midi": 77,
          "name": "F5",
          "ticks": 7537,
          "time": 26.9178459270833,
          "velocity": 0.440944881889764
        },
        {
          "duration": 0.160714218749998,
          "durationTicks": 45,
          "midi": 74,
          "name": "D5",
          "ticks": 7537,
          "time": 26.9178459270833,
          "velocity": 0.440944881889764
        },
        {
          "duration": 0.160714218749998,
          "durationTicks": 45,
          "midi": 69,
          "name": "A4",
          "ticks": 7537,
          "time": 26.9178459270833,
          "velocity": 0.440944881889764
        },
        {
          "duration": 0.157142791666665,
          "durationTicks": 44,
          "midi": 79,
          "name": "G5",
          "ticks": 7585,
          "time": 27.0892744270833,
          "velocity": 0.559055118110236
        },
        {
          "duration": 0.157142791666665,
          "durationTicks": 44,
          "midi": 76,
          "name": "E5",
          "ticks": 7585,
          "time": 27.0892744270833,
          "velocity": 0.448818897637795
        },
        {
          "duration": 0.157142791666665,
          "durationTicks": 44,
          "midi": 72,
          "name": "C5",
          "ticks": 7585,
          "time": 27.0892744270833,
          "velocity": 0.448818897637795
        },
        {
          "duration": 0.157142791666665,
          "durationTicks": 44,
          "midi": 67,
          "name": "G4",
          "ticks": 7585,
          "time": 27.0892744270833,
          "velocity": 0.448818897637795
        },
        {
          "duration": 0.160714218749998,
          "durationTicks": 45,
          "midi": 79,
          "name": "G5",
          "ticks": 7632,
          "time": 27.2571315,
          "velocity": 0.551181102362205
        },
        {
          "duration": 0.160714218749998,
          "durationTicks": 45,
          "midi": 76,
          "name": "E5",
          "ticks": 7632,
          "time": 27.2571315,
          "velocity": 0.440944881889764
        },
        {
          "duration": 0.160714218749998,
          "durationTicks": 45,
          "midi": 72,
          "name": "C5",
          "ticks": 7632,
          "time": 27.2571315,
          "velocity": 0.440944881889764
        },
        {
          "duration": 0.160714218749998,
          "durationTicks": 45,
          "midi": 67,
          "name": "G4",
          "ticks": 7632,
          "time": 27.2571315,
          "velocity": 0.440944881889764
        },
        {
          "duration": 0.171428500000001,
          "durationTicks": 48,
          "midi": 70,
          "name": "A#4",
          "ticks": 7680,
          "time": 27.42856,
          "velocity": 0.480314960629921
        },
        {
          "duration": 0.171428500000001,
          "durationTicks": 48,
          "midi": 74,
          "name": "D5",
          "ticks": 7680,
          "time": 27.42856,
          "velocity": 0.590551181102362
        },
        {
          "duration": 0.157142791666665,
          "durationTicks": 44,
          "midi": 72,
          "name": "C5",
          "ticks": 7731,
          "time": 27.61070278125,
          "velocity": 0.503937007874016
        },
        {
          "duration": 0.160714218750002,
          "durationTicks": 45,
          "midi": 74,
          "name": "D5",
          "ticks": 7778,
          "time": 27.7785598541667,
          "velocity": 0.511811023622047
        },
        {
          "duration": 0.32857129166667,
          "durationTicks": 92,
          "midi": 70,
          "name": "A#4",
          "ticks": 7826,
          "time": 27.9499883541667,
          "velocity": 0.440944881889764
        },
        {
          "duration": 0.32857129166667,
          "durationTicks": 92,
          "midi": 77,
          "name": "F5",
          "ticks": 7826,
          "time": 27.9499883541667,
          "velocity": 0.519685039370079
        },
        {
          "duration": 0.160714218750002,
          "durationTicks": 45,
          "midi": 74,
          "name": "D5",
          "ticks": 7921,
          "time": 28.2892739270833,
          "velocity": 0.503937007874016
        },
        {
          "duration": 0.078571395833329,
          "durationTicks": 22,
          "midi": 69,
          "name": "A4",
          "ticks": 7969,
          "time": 28.4607024270833,
          "velocity": 0.511811023622047
        },
        {
          "duration": 0.0749999687499994,
          "durationTicks": 21,
          "midi": 68,
          "name": "G#4",
          "ticks": 7993,
          "time": 28.5464166770833,
          "velocity": 0.503937007874016
        },
        {
          "duration": 0.0785713958333361,
          "durationTicks": 22,
          "midi": 67,
          "name": "G4",
          "ticks": 8016,
          "time": 28.6285595,
          "velocity": 0.503937007874016
        },
        {
          "duration": 0.0821428229166692,
          "durationTicks": 23,
          "midi": 65,
          "name": "F4",
          "ticks": 8039,
          "time": 28.7107023229167,
          "velocity": 0.503937007874016
        },
        {
          "duration": 0.171428500000001,
          "durationTicks": 48,
          "midi": 74,
          "name": "D5",
          "ticks": 8064,
          "time": 28.799988,
          "velocity": 0.543307086614173
        },
        {
          "duration": 0.157142791666665,
          "durationTicks": 44,
          "midi": 72,
          "name": "C5",
          "ticks": 8115,
          "time": 28.98213078125,
          "velocity": 0.503937007874016
        },
        {
          "duration": 0.160714218749998,
          "durationTicks": 45,
          "midi": 74,
          "name": "D5",
          "ticks": 8162,
          "time": 29.1499878541667,
          "velocity": 0.511811023622047
        },
        {
          "duration": 0.32857129166667,
          "durationTicks": 92,
          "midi": 70,
          "name": "A#4",
          "ticks": 8210,
          "time": 29.3214163541667,
          "velocity": 0.440944881889764
        },
        {
          "duration": 0.32857129166667,
          "durationTicks": 92,
          "midi": 77,
          "name": "F5",
          "ticks": 8210,
          "time": 29.3214163541667,
          "velocity": 0.519685039370079
        },
        {
          "duration": 0.160714218749998,
          "durationTicks": 45,
          "midi": 79,
          "name": "G5",
          "ticks": 8305,
          "time": 29.6607019270833,
          "velocity": 0.503937007874016
        },
        {
          "duration": 0.157142791666669,
          "durationTicks": 44,
          "midi": 74,
          "name": "D5",
          "ticks": 8353,
          "time": 29.8321304270833,
          "velocity": 0.511811023622047
        },
        {
          "duration": 0.160714218749998,
          "durationTicks": 45,
          "midi": 72,
          "name": "C5",
          "ticks": 8400,
          "time": 29.9999875,
          "velocity": 0.503937007874016
        },
        {
          "duration": 0.171428500000001,
          "durationTicks": 48,
          "midi": 70,
          "name": "A#4",
          "ticks": 8448,
          "time": 30.171416,
          "velocity": 0.480314960629921
        },
        {
          "duration": 0.171428500000001,
          "durationTicks": 48,
          "midi": 74,
          "name": "D5",
          "ticks": 8448,
          "time": 30.171416,
          "velocity": 0.590551181102362
        },
        {
          "duration": 0.157142791666665,
          "durationTicks": 44,
          "midi": 72,
          "name": "C5",
          "ticks": 8499,
          "time": 30.35355878125,
          "velocity": 0.503937007874016
        },
        {
          "duration": 0.160714218750002,
          "durationTicks": 45,
          "midi": 74,
          "name": "D5",
          "ticks": 8546,
          "time": 30.5214158541667,
          "velocity": 0.511811023622047
        },
        {
          "duration": 0.32857129166667,
          "durationTicks": 92,
          "midi": 70,
          "name": "A#4",
          "ticks": 8594,
          "time": 30.6928443541667,
          "velocity": 0.440944881889764
        },
        {
          "duration": 0.32857129166667,
          "durationTicks": 92,
          "midi": 77,
          "name": "F5",
          "ticks": 8594,
          "time": 30.6928443541667,
          "velocity": 0.519685039370079
        },
        {
          "duration": 0.160714218750002,
          "durationTicks": 45,
          "midi": 74,
          "name": "D5",
          "ticks": 8689,
          "time": 31.0321299270833,
          "velocity": 0.503937007874016
        },
        {
          "duration": 0.078571395833329,
          "durationTicks": 22,
          "midi": 69,
          "name": "A4",
          "ticks": 8737,
          "time": 31.2035584270833,
          "velocity": 0.511811023622047
        },
        {
          "duration": 0.0749999687500029,
          "durationTicks": 21,
          "midi": 68,
          "name": "G#4",
          "ticks": 8761,
          "time": 31.2892726770833,
          "velocity": 0.503937007874016
        },
        {
          "duration": 0.0785713958333361,
          "durationTicks": 22,
          "midi": 67,
          "name": "G4",
          "ticks": 8784,
          "time": 31.3714155,
          "velocity": 0.503937007874016
        },
        {
          "duration": 0.0821428229166692,
          "durationTicks": 23,
          "midi": 65,
          "name": "F4",
          "ticks": 8807,
          "time": 31.4535583229167,
          "velocity": 0.503937007874016
        },
        {
          "duration": 0.092857104166665,
          "durationTicks": 26,
          "midi": 69,
          "name": "A4",
          "ticks": 8832,
          "time": 31.542844,
          "velocity": 0.480314960629921
        },
        {
          "duration": 0.092857104166665,
          "durationTicks": 26,
          "midi": 81,
          "name": "A5",
          "ticks": 8832,
          "time": 31.542844,
          "velocity": 0.559055118110236
        },
        {
          "duration": 0.0785713958333361,
          "durationTicks": 22,
          "midi": 69,
          "name": "A4",
          "ticks": 8859,
          "time": 31.63927253125,
          "velocity": 0.440944881889764
        },
        {
          "duration": 0.0785713958333361,
          "durationTicks": 22,
          "midi": 81,
          "name": "A5",
          "ticks": 8859,
          "time": 31.63927253125,
          "velocity": 0.519685039370079
        },
        {
          "duration": 0.157142791666665,
          "durationTicks": 44,
          "midi": 69,
          "name": "A4",
          "ticks": 8883,
          "time": 31.72498678125,
          "velocity": 0.440944881889764
        },
        {
          "duration": 0.157142791666665,
          "durationTicks": 44,
          "midi": 81,
          "name": "A5",
          "ticks": 8883,
          "time": 31.72498678125,
          "velocity": 0.519685039370079
        },
        {
          "duration": 0.160714218749998,
          "durationTicks": 45,
          "midi": 81,
          "name": "A5",
          "ticks": 8930,
          "time": 31.8928438541667,
          "velocity": 0.52755905511811
        },
        {
          "duration": 0.160714218749998,
          "durationTicks": 45,
          "midi": 69,
          "name": "A4",
          "ticks": 8930,
          "time": 31.8928438541667,
          "velocity": 0.448818897637795
        },
        {
          "duration": 0.160714218750002,
          "durationTicks": 45,
          "midi": 81,
          "name": "A5",
          "ticks": 8978,
          "time": 32.0642723541667,
          "velocity": 0.551181102362205
        },
        {
          "duration": 0.160714218750002,
          "durationTicks": 45,
          "midi": 69,
          "name": "A4",
          "ticks": 8978,
          "time": 32.0642723541667,
          "velocity": 0.440944881889764
        },
        {
          "duration": 0.160714218750002,
          "durationTicks": 45,
          "midi": 72,
          "name": "C5",
          "ticks": 9025,
          "time": 32.2321294270833,
          "velocity": 0.464566929133858
        },
        {
          "duration": 0.160714218750002,
          "durationTicks": 45,
          "midi": 84,
          "name": "C6",
          "ticks": 9025,
          "time": 32.2321294270833,
          "velocity": 0.574803149606299
        },
        {
          "duration": 0.160714218750002,
          "durationTicks": 45,
          "midi": 68,
          "name": "G#4",
          "ticks": 9073,
          "time": 32.4035579270833,
          "velocity": 0.440944881889764
        },
        {
          "duration": 0.160714218750002,
          "durationTicks": 45,
          "midi": 80,
          "name": "G#5",
          "ticks": 9073,
          "time": 32.4035579270833,
          "velocity": 0.551181102362205
        },
        {
          "duration": 0.157142791666665,
          "durationTicks": 44,
          "midi": 79,
          "name": "G5",
          "ticks": 9121,
          "time": 32.5749864270833,
          "velocity": 0.559055118110236
        },
        {
          "duration": 0.157142791666665,
          "durationTicks": 44,
          "midi": 67,
          "name": "G4",
          "ticks": 9121,
          "time": 32.5749864270833,
          "velocity": 0.448818897637795
        },
        {
          "duration": 0.160714218750002,
          "durationTicks": 45,
          "midi": 77,
          "name": "F5",
          "ticks": 9168,
          "time": 32.7428435,
          "velocity": 0.551181102362205
        },
        {
          "duration": 0.160714218750002,
          "durationTicks": 45,
          "midi": 65,
          "name": "F4",
          "ticks": 9168,
          "time": 32.7428435,
          "velocity": 0.440944881889764
        },
        {
          "duration": 0.171428499999998,
          "durationTicks": 48,
          "midi": 69,
          "name": "A4",
          "ticks": 9216,
          "time": 32.914272,
          "velocity": 0.480314960629921
        },
        {
          "duration": 0.171428499999998,
          "durationTicks": 48,
          "midi": 74,
          "name": "D5",
          "ticks": 9216,
          "time": 32.914272,
          "velocity": 0.590551181102362
        },
        {
          "duration": 0.157142791666665,
          "durationTicks": 44,
          "midi": 72,
          "name": "C5",
          "ticks": 9267,
          "time": 33.09641478125,
          "velocity": 0.503937007874016
        },
        {
          "duration": 0.160714218750002,
          "durationTicks": 45,
          "midi": 74,
          "name": "D5",
          "ticks": 9314,
          "time": 33.2642718541667,
          "velocity": 0.511811023622047
        },
        {
          "duration": 0.32857129166667,
          "durationTicks": 92,
          "midi": 69,
          "name": "A4",
          "ticks": 9362,
          "time": 33.4357003541667,
          "velocity": 0.440944881889764
        },
        {
          "duration": 0.32857129166667,
          "durationTicks": 92,
          "midi": 77,
          "name": "F5",
          "ticks": 9362,
          "time": 33.4357003541667,
          "velocity": 0.519685039370079
        },
        {
          "duration": 0.160714218750002,
          "durationTicks": 45,
          "midi": 74,
          "name": "D5",
          "ticks": 9457,
          "time": 33.7749859270833,
          "velocity": 0.503937007874016
        },
        {
          "duration": 0.078571395833329,
          "durationTicks": 22,
          "midi": 69,
          "name": "A4",
          "ticks": 9505,
          "time": 33.9464144270833,
          "velocity": 0.511811023622047
        },
        {
          "duration": 0.0749999687499994,
          "durationTicks": 21,
          "midi": 68,
          "name": "G#4",
          "ticks": 9529,
          "time": 34.0321286770833,
          "velocity": 0.503937007874016
        },
        {
          "duration": 0.0785713958333361,
          "durationTicks": 22,
          "midi": 67,
          "name": "G4",
          "ticks": 9552,
          "time": 34.1142715,
          "velocity": 0.503937007874016
        },
        {
          "duration": 0.0821428229166727,
          "durationTicks": 23,
          "midi": 65,
          "name": "F4",
          "ticks": 9575,
          "time": 34.1964143229167,
          "velocity": 0.503937007874016
        },
        {
          "duration": 0.171428499999998,
          "durationTicks": 48,
          "midi": 74,
          "name": "D5",
          "ticks": 9600,
          "time": 34.2857,
          "velocity": 0.543307086614173
        },
        {
          "duration": 0.157142791666665,
          "durationTicks": 44,
          "midi": 72,
          "name": "C5",
          "ticks": 9651,
          "time": 34.46784278125,
          "velocity": 0.503937007874016
        },
        {
          "duration": 0.160714218750002,
          "durationTicks": 45,
          "midi": 74,
          "name": "D5",
          "ticks": 9698,
          "time": 34.6356998541667,
          "velocity": 0.511811023622047
        },
        {
          "duration": 0.32857129166667,
          "durationTicks": 92,
          "midi": 77,
          "name": "F5",
          "ticks": 9746,
          "time": 34.8071283541667,
          "velocity": 0.519685039370079
        },
        {
          "duration": 0.32857129166667,
          "durationTicks": 92,
          "midi": 69,
          "name": "A4",
          "ticks": 9746,
          "time": 34.8071283541667,
          "velocity": 0.440944881889764
        },
        {
          "duration": 0.160714218750002,
          "durationTicks": 45,
          "midi": 79,
          "name": "G5",
          "ticks": 9841,
          "time": 35.1464139270833,
          "velocity": 0.503937007874016
        },
        {
          "duration": 0.157142791666665,
          "durationTicks": 44,
          "midi": 74,
          "name": "D5",
          "ticks": 9889,
          "time": 35.3178424270833,
          "velocity": 0.511811023622047
        },
        {
          "duration": 0.160714218750002,
          "durationTicks": 45,
          "midi": 72,
          "name": "C5",
          "ticks": 9936,
          "time": 35.4856995,
          "velocity": 0.503937007874016
        },
        {
          "duration": 0.171428500000005,
          "durationTicks": 48,
          "midi": 74,
          "name": "D5",
          "ticks": 9984,
          "time": 35.657128,
          "velocity": 0.590551181102362
        },
        {
          "duration": 0.171428500000005,
          "durationTicks": 48,
          "midi": 69,
          "name": "A4",
          "ticks": 9984,
          "time": 35.657128,
          "velocity": 0.480314960629921
        },
        {
          "duration": 0.157142791666665,
          "durationTicks": 44,
          "midi": 72,
          "name": "C5",
          "ticks": 10035,
          "time": 35.83927078125,
          "velocity": 0.503937007874016
        },
        {
          "duration": 0.160714218750002,
          "durationTicks": 45,
          "midi": 74,
          "name": "D5",
          "ticks": 10082,
          "time": 36.0071278541667,
          "velocity": 0.511811023622047
        },
        {
          "duration": 0.32857129166667,
          "durationTicks": 92,
          "midi": 69,
          "name": "A4",
          "ticks": 10130,
          "time": 36.1785563541667,
          "velocity": 0.440944881889764
        },
        {
          "duration": 0.32857129166667,
          "durationTicks": 92,
          "midi": 77,
          "name": "F5",
          "ticks": 10130,
          "time": 36.1785563541667,
          "velocity": 0.519685039370079
        },
        {
          "duration": 0.160714218750002,
          "durationTicks": 45,
          "midi": 74,
          "name": "D5",
          "ticks": 10225,
          "time": 36.5178419270833,
          "velocity": 0.503937007874016
        },
        {
          "duration": 0.078571395833329,
          "durationTicks": 22,
          "midi": 69,
          "name": "A4",
          "ticks": 10273,
          "time": 36.6892704270833,
          "velocity": 0.511811023622047
        },
        {
          "duration": 0.0749999687499994,
          "durationTicks": 21,
          "midi": 68,
          "name": "G#4",
          "ticks": 10297,
          "time": 36.7749846770833,
          "velocity": 0.503937007874016
        },
        {
          "duration": 0.0785713958333361,
          "durationTicks": 22,
          "midi": 67,
          "name": "G4",
          "ticks": 10320,
          "time": 36.8571275,
          "velocity": 0.503937007874016
        },
        {
          "duration": 0.0821428229166656,
          "durationTicks": 23,
          "midi": 65,
          "name": "F4",
          "ticks": 10343,
          "time": 36.9392703229167,
          "velocity": 0.503937007874016
        },
        {
          "duration": 0.171428499999998,
          "durationTicks": 48,
          "midi": 74,
          "name": "D5",
          "ticks": 10368,
          "time": 37.028556,
          "velocity": 0.543307086614173
        },
        {
          "duration": 0.157142791666665,
          "durationTicks": 44,
          "midi": 72,
          "name": "C5",
          "ticks": 10419,
          "time": 37.21069878125,
          "velocity": 0.503937007874016
        },
        {
          "duration": 0.160714218749995,
          "durationTicks": 45,
          "midi": 74,
          "name": "D5",
          "ticks": 10466,
          "time": 37.3785558541667,
          "velocity": 0.511811023622047
        },
        {
          "duration": 0.32857129166667,
          "durationTicks": 92,
          "midi": 69,
          "name": "A4",
          "ticks": 10514,
          "time": 37.5499843541667,
          "velocity": 0.440944881889764
        },
        {
          "duration": 0.32857129166667,
          "durationTicks": 92,
          "midi": 74,
          "name": "D5",
          "ticks": 10514,
          "time": 37.5499843541667,
          "velocity": 0.440944881889764
        },
        {
          "duration": 0.32857129166667,
          "durationTicks": 92,
          "midi": 77,
          "name": "F5",
          "ticks": 10514,
          "time": 37.5499843541667,
          "velocity": 0.440944881889764
        },
        {
          "duration": 0.32857129166667,
          "durationTicks": 92,
          "midi": 81,
          "name": "A5",
          "ticks": 10514,
          "time": 37.5499843541667,
          "velocity": 0.519685039370079
        },
        {
          "duration": 0.160714218749995,
          "durationTicks": 45,
          "midi": 69,
          "name": "A4",
          "ticks": 10609,
          "time": 37.8892699270833,
          "velocity": 0.440944881889764
        },
        {
          "duration": 0.160714218749995,
          "durationTicks": 45,
          "midi": 74,
          "name": "D5",
          "ticks": 10609,
          "time": 37.8892699270833,
          "velocity": 0.440944881889764
        },
        {
          "duration": 0.160714218749995,
          "durationTicks": 45,
          "midi": 77,
          "name": "F5",
          "ticks": 10609,
          "time": 37.8892699270833,
          "velocity": 0.440944881889764
        },
        {
          "duration": 0.160714218749995,
          "durationTicks": 45,
          "midi": 81,
          "name": "A5",
          "ticks": 10609,
          "time": 37.8892699270833,
          "velocity": 0.551181102362205
        },
        {
          "duration": 0.157142791666665,
          "durationTicks": 44,
          "midi": 67,
          "name": "G4",
          "ticks": 10657,
          "time": 38.0606984270833,
          "velocity": 0.448818897637795
        },
        {
          "duration": 0.157142791666665,
          "durationTicks": 44,
          "midi": 72,
          "name": "C5",
          "ticks": 10657,
          "time": 38.0606984270833,
          "velocity": 0.448818897637795
        },
        {
          "duration": 0.157142791666665,
          "durationTicks": 44,
          "midi": 76,
          "name": "E5",
          "ticks": 10657,
          "time": 38.0606984270833,
          "velocity": 0.448818897637795
        },
        {
          "duration": 0.157142791666665,
          "durationTicks": 44,
          "midi": 79,
          "name": "G5",
          "ticks": 10657,
          "time": 38.0606984270833,
          "velocity": 0.559055118110236
        },
        {
          "duration": 0.160714218749995,
          "durationTicks": 45,
          "midi": 67,
          "name": "G4",
          "ticks": 10704,
          "time": 38.2285555,
          "velocity": 0.440944881889764
        },
        {
          "duration": 0.160714218749995,
          "durationTicks": 45,
          "midi": 72,
          "name": "C5",
          "ticks": 10704,
          "time": 38.2285555,
          "velocity": 0.440944881889764
        },
        {
          "duration": 0.160714218749995,
          "durationTicks": 45,
          "midi": 76,
          "name": "E5",
          "ticks": 10704,
          "time": 38.2285555,
          "velocity": 0.440944881889764
        },
        {
          "duration": 0.160714218749995,
          "durationTicks": 45,
          "midi": 79,
          "name": "G5",
          "ticks": 10704,
          "time": 38.2285555,
          "velocity": 0.551181102362205
        },
        {
          "duration": 0.171428499999998,
          "durationTicks": 48,
          "midi": 74,
          "name": "D5",
          "ticks": 10752,
          "time": 38.399984,
          "velocity": 0.590551181102362
        },
        {
          "duration": 0.171428499999998,
          "durationTicks": 48,
          "midi": 70,
          "name": "A#4",
          "ticks": 10752,
          "time": 38.399984,
          "velocity": 0.480314960629921
        },
        {
          "duration": 0.157142791666665,
          "durationTicks": 44,
          "midi": 72,
          "name": "C5",
          "ticks": 10803,
          "time": 38.58212678125,
          "velocity": 0.503937007874016
        },
        {
          "duration": 0.160714218750002,
          "durationTicks": 45,
          "midi": 74,
          "name": "D5",
          "ticks": 10850,
          "time": 38.7499838541667,
          "velocity": 0.511811023622047
        },
        {
          "duration": 0.32857129166667,
          "durationTicks": 92,
          "midi": 77,
          "name": "F5",
          "ticks": 10898,
          "time": 38.9214123541667,
          "velocity": 0.519685039370079
        },
        {
          "duration": 0.32857129166667,
          "durationTicks": 92,
          "midi": 70,
          "name": "A#4",
          "ticks": 10898,
          "time": 38.9214123541667,
          "velocity": 0.440944881889764
        },
        {
          "duration": 0.160714218750002,
          "durationTicks": 45,
          "midi": 74,
          "name": "D5",
          "ticks": 10993,
          "time": 39.2606979270833,
          "velocity": 0.503937007874016
        },
        {
          "duration": 0.078571395833329,
          "durationTicks": 22,
          "midi": 69,
          "name": "A4",
          "ticks": 11041,
          "time": 39.4321264270833,
          "velocity": 0.511811023622047
        },
        {
          "duration": 0.0749999687499994,
          "durationTicks": 21,
          "midi": 68,
          "name": "G#4",
          "ticks": 11065,
          "time": 39.5178406770833,
          "velocity": 0.503937007874016
        },
        {
          "duration": 0.0785713958333361,
          "durationTicks": 22,
          "midi": 67,
          "name": "G4",
          "ticks": 11088,
          "time": 39.5999835,
          "velocity": 0.503937007874016
        },
        {
          "duration": 0.0821428229166727,
          "durationTicks": 23,
          "midi": 65,
          "name": "F4",
          "ticks": 11111,
          "time": 39.6821263229167,
          "velocity": 0.503937007874016
        },
        {
          "duration": 0.171428499999998,
          "durationTicks": 48,
          "midi": 74,
          "name": "D5",
          "ticks": 11136,
          "time": 39.771412,
          "velocity": 0.543307086614173
        },
        {
          "duration": 0.157142791666665,
          "durationTicks": 44,
          "midi": 72,
          "name": "C5",
          "ticks": 11187,
          "time": 39.95355478125,
          "velocity": 0.503937007874016
        },
        {
          "duration": 0.160714218750002,
          "durationTicks": 45,
          "midi": 74,
          "name": "D5",
          "ticks": 11234,
          "time": 40.1214118541667,
          "velocity": 0.511811023622047
        },
        {
          "duration": 0.32857129166667,
          "durationTicks": 92,
          "midi": 70,
          "name": "A#4",
          "ticks": 11282,
          "time": 40.2928403541667,
          "velocity": 0.440944881889764
        },
        {
          "duration": 0.32857129166667,
          "durationTicks": 92,
          "midi": 77,
          "name": "F5",
          "ticks": 11282,
          "time": 40.2928403541667,
          "velocity": 0.519685039370079
        },
        {
          "duration": 0.160714218750002,
          "durationTicks": 45,
          "midi": 79,
          "name": "G5",
          "ticks": 11377,
          "time": 40.6321259270833,
          "velocity": 0.503937007874016
        },
        {
          "duration": 0.157142791666672,
          "durationTicks": 44,
          "midi": 74,
          "name": "D5",
          "ticks": 11425,
          "time": 40.8035544270833,
          "velocity": 0.511811023622047
        },
        {
          "duration": 0.160714218750002,
          "durationTicks": 45,
          "midi": 72,
          "name": "C5",
          "ticks": 11472,
          "time": 40.9714115,
          "velocity": 0.503937007874016
        },
        {
          "duration": 0.0928571041666686,
          "durationTicks": 26,
          "midi": 75,
          "name": "D#5",
          "ticks": 11520,
          "time": 41.14284,
          "velocity": 0.480314960629921
        },
        {
          "duration": 0.0928571041666686,
          "durationTicks": 26,
          "midi": 87,
          "name": "D#6",
          "ticks": 11520,
          "time": 41.14284,
          "velocity": 0.559055118110236
        },
        {
          "duration": 0.0785713958333361,
          "durationTicks": 22,
          "midi": 87,
          "name": "D#6",
          "ticks": 11547,
          "time": 41.23926853125,
          "velocity": 0.551181102362205
        },
        {
          "duration": 0.0785713958333361,
          "durationTicks": 22,
          "midi": 75,
          "name": "D#5",
          "ticks": 11547,
          "time": 41.23926853125,
          "velocity": 0.440944881889764
        },
        {
          "duration": 0.0821428229166727,
          "durationTicks": 23,
          "midi": 86,
          "name": "D6",
          "ticks": 11594,
          "time": 41.4071256041667,
          "velocity": 0.551181102362205
        },
        {
          "duration": 0.0821428229166727,
          "durationTicks": 23,
          "midi": 74,
          "name": "D5",
          "ticks": 11594,
          "time": 41.4071256041667,
          "velocity": 0.440944881889764
        },
        {
          "duration": 0.0821428229166727,
          "durationTicks": 23,
          "midi": 86,
          "name": "D6",
          "ticks": 11618,
          "time": 41.4928398541667,
          "velocity": 0.559055118110236
        },
        {
          "duration": 0.0821428229166727,
          "durationTicks": 23,
          "midi": 74,
          "name": "D5",
          "ticks": 11618,
          "time": 41.4928398541667,
          "velocity": 0.448818897637795
        },
        {
          "duration": 0.0749999687499994,
          "durationTicks": 21,
          "midi": 84,
          "name": "C6",
          "ticks": 11666,
          "time": 41.6642683541667,
          "velocity": 0.551181102362205
        },
        {
          "duration": 0.0749999687499994,
          "durationTicks": 21,
          "midi": 72,
          "name": "C5",
          "ticks": 11666,
          "time": 41.6642683541667,
          "velocity": 0.440944881889764
        },
        {
          "duration": 0.0821428229166656,
          "durationTicks": 23,
          "midi": 84,
          "name": "C6",
          "ticks": 11689,
          "time": 41.7464111770833,
          "velocity": 0.551181102362205
        },
        {
          "duration": 0.0821428229166656,
          "durationTicks": 23,
          "midi": 72,
          "name": "C5",
          "ticks": 11689,
          "time": 41.7464111770833,
          "velocity": 0.440944881889764
        },
        {
          "duration": 0.160714218750002,
          "durationTicks": 45,
          "midi": 74,
          "name": "D5",
          "ticks": 11761,
          "time": 42.0035539270833,
          "velocity": 0.440944881889764
        },
        {
          "duration": 0.160714218750002,
          "durationTicks": 45,
          "midi": 86,
          "name": "D6",
          "ticks": 11761,
          "time": 42.0035539270833,
          "velocity": 0.551181102362205
        },
        {
          "duration": 0.157142791666665,
          "durationTicks": 44,
          "midi": 75,
          "name": "D#5",
          "ticks": 11809,
          "time": 42.1749824270833,
          "velocity": 0.448818897637795
        },
        {
          "duration": 0.157142791666665,
          "durationTicks": 44,
          "midi": 87,
          "name": "D#6",
          "ticks": 11809,
          "time": 42.1749824270833,
          "velocity": 0.559055118110236
        },
        {
          "duration": 0.160714218750002,
          "durationTicks": 45,
          "midi": 84,
          "name": "C6",
          "ticks": 11856,
          "time": 42.3428395,
          "velocity": 0.551181102362205
        },
        {
          "duration": 0.160714218750002,
          "durationTicks": 45,
          "midi": 72,
          "name": "C5",
          "ticks": 11856,
          "time": 42.3428395,
          "velocity": 0.440944881889764
        },
        {
          "duration": 0.171428500000005,
          "durationTicks": 48,
          "midi": 74,
          "name": "D5",
          "ticks": 11904,
          "time": 42.514268,
          "velocity": 0.480314960629921
        },
        {
          "duration": 0.171428500000005,
          "durationTicks": 48,
          "midi": 86,
          "name": "D6",
          "ticks": 11904,
          "time": 42.514268,
          "velocity": 0.590551181102362
        },
        {
          "duration": 0.157142791666665,
          "durationTicks": 44,
          "midi": 86,
          "name": "D6",
          "ticks": 11955,
          "time": 42.69641078125,
          "velocity": 0.519685039370079
        },
        {
          "duration": 0.157142791666665,
          "durationTicks": 44,
          "midi": 74,
          "name": "D5",
          "ticks": 11955,
          "time": 42.69641078125,
          "velocity": 0.440944881889764
        },
        {
          "duration": 0.160714218750002,
          "durationTicks": 45,
          "midi": 74,
          "name": "D5",
          "ticks": 12002,
          "time": 42.8642678541667,
          "velocity": 0.448818897637795
        },
        {
          "duration": 0.160714218750002,
          "durationTicks": 45,
          "midi": 86,
          "name": "D6",
          "ticks": 12002,
          "time": 42.8642678541667,
          "velocity": 0.559055118110236
        },
        {
          "duration": 0.0749999687499994,
          "durationTicks": 21,
          "midi": 72,
          "name": "C5",
          "ticks": 12050,
          "time": 43.0356963541667,
          "velocity": 0.440944881889764
        },
        {
          "duration": 0.0749999687499994,
          "durationTicks": 21,
          "midi": 84,
          "name": "C6",
          "ticks": 12050,
          "time": 43.0356963541667,
          "velocity": 0.551181102362205
        },
        {
          "duration": 0.0821428229166656,
          "durationTicks": 23,
          "midi": 74,
          "name": "D5",
          "ticks": 12073,
          "time": 43.1178391770833,
          "velocity": 0.440944881889764
        },
        {
          "duration": 0.0821428229166656,
          "durationTicks": 23,
          "midi": 86,
          "name": "D6",
          "ticks": 12073,
          "time": 43.1178391770833,
          "velocity": 0.551181102362205
        },
        {
          "duration": 0.157142791666665,
          "durationTicks": 44,
          "midi": 86,
          "name": "D6",
          "ticks": 12193,
          "time": 43.5464104270833,
          "velocity": 0.448818897637795
        },
        {
          "duration": 0.157142791666665,
          "durationTicks": 44,
          "midi": 98,
          "name": "D7",
          "ticks": 12193,
          "time": 43.5464104270833,
          "velocity": 0.559055118110236
        },
        {
          "duration": 0.189285635416667,
          "durationTicks": 53,
          "midi": 77,
          "name": "F5",
          "ticks": 14592,
          "time": 52.114264,
          "velocity": 0.448818897637795
        },
        {
          "duration": 0.178571354166664,
          "durationTicks": 50,
          "midi": 74,
          "name": "D5",
          "ticks": 14643,
          "time": 52.29640678125,
          "velocity": 0.409448818897638
        },
        {
          "duration": 0.178571354166657,
          "durationTicks": 50,
          "midi": 70,
          "name": "A#4",
          "ticks": 14690,
          "time": 52.4642638541667,
          "velocity": 0.417322834645669
        },
        {
          "duration": 0.178571354166664,
          "durationTicks": 50,
          "midi": 77,
          "name": "F5",
          "ticks": 14738,
          "time": 52.6356923541667,
          "velocity": 0.409448818897638
        },
        {
          "duration": 0.182142781250001,
          "durationTicks": 51,
          "midi": 76,
          "name": "E5",
          "ticks": 14785,
          "time": 52.8035494270833,
          "velocity": 0.433070866141732
        },
        {
          "duration": 0.178571354166671,
          "durationTicks": 50,
          "midi": 72,
          "name": "C5",
          "ticks": 14833,
          "time": 52.9749779270833,
          "velocity": 0.409448818897638
        },
        {
          "duration": 0.178571354166671,
          "durationTicks": 50,
          "midi": 67,
          "name": "G4",
          "ticks": 14881,
          "time": 53.1464064270833,
          "velocity": 0.417322834645669
        },
        {
          "duration": 0.149999937499999,
          "durationTicks": 42,
          "midi": 76,
          "name": "E5",
          "ticks": 14928,
          "time": 53.3142635,
          "velocity": 0.409448818897638
        },
        {
          "duration": 0.521428354166673,
          "durationTicks": 146,
          "midi": 76,
          "name": "E5",
          "ticks": 14976,
          "time": 53.485692,
          "velocity": 0.543307086614173
        },
        {
          "duration": 0.160714218750002,
          "durationTicks": 45,
          "midi": 78,
          "name": "F#5",
          "ticks": 15122,
          "time": 54.0071203541667,
          "velocity": 0.503937007874016
        },
        {
          "duration": 0.678571145833338,
          "durationTicks": 190,
          "midi": 78,
          "name": "F#5",
          "ticks": 15169,
          "time": 54.1749774270833,
          "velocity": 0.52755905511811
        },
        {
          "duration": 0.335714145833343,
          "durationTicks": 94,
          "midi": 81,
          "name": "A5",
          "ticks": 15649,
          "time": 55.8892624270833,
          "velocity": 0.559055118110236
        },
        {
          "duration": 0.335714145833343,
          "durationTicks": 94,
          "midi": 77,
          "name": "F5",
          "ticks": 15649,
          "time": 55.8892624270833,
          "velocity": 0.448818897637795
        },
        {
          "duration": 0.335714145833343,
          "durationTicks": 94,
          "midi": 74,
          "name": "D5",
          "ticks": 15649,
          "time": 55.8892624270833,
          "velocity": 0.448818897637795
        },
        {
          "duration": 0.171428499999998,
          "durationTicks": 48,
          "midi": 64,
          "name": "E4",
          "ticks": 15984,
          "time": 57.0856905,
          "velocity": 0.464566929133858
        },
        {
          "duration": 0.171428499999998,
          "durationTicks": 48,
          "midi": 72,
          "name": "C5",
          "ticks": 15984,
          "time": 57.0856905,
          "velocity": 0.464566929133858
        },
        {
          "duration": 0.171428499999998,
          "durationTicks": 48,
          "midi": 67,
          "name": "G4",
          "ticks": 15984,
          "time": 57.0856905,
          "velocity": 0.464566929133858
        },
        {
          "duration": 0.335714145833343,
          "durationTicks": 94,
          "midi": 72,
          "name": "C5",
          "ticks": 16033,
          "time": 57.2606904270833,
          "velocity": 0.559055118110236
        },
        {
          "duration": 0.335714145833343,
          "durationTicks": 94,
          "midi": 67,
          "name": "G4",
          "ticks": 16033,
          "time": 57.2606904270833,
          "velocity": 0.448818897637795
        },
        {
          "duration": 0.335714145833343,
          "durationTicks": 94,
          "midi": 64,
          "name": "E4",
          "ticks": 16033,
          "time": 57.2606904270833,
          "velocity": 0.448818897637795
        },
        {
          "duration": 0.171428500000005,
          "durationTicks": 48,
          "midi": 72,
          "name": "C5",
          "ticks": 16752,
          "time": 59.8285465,
          "velocity": 0.464566929133858
        },
        {
          "duration": 0.171428500000005,
          "durationTicks": 48,
          "midi": 67,
          "name": "G4",
          "ticks": 16752,
          "time": 59.8285465,
          "velocity": 0.464566929133858
        },
        {
          "duration": 0.171428500000005,
          "durationTicks": 48,
          "midi": 64,
          "name": "E4",
          "ticks": 16752,
          "time": 59.8285465,
          "velocity": 0.464566929133858
        },
        {
          "duration": 0.335714145833336,
          "durationTicks": 94,
          "midi": 64,
          "name": "E4",
          "ticks": 16801,
          "time": 60.0035464270833,
          "velocity": 0.448818897637795
        },
        {
          "duration": 0.335714145833336,
          "durationTicks": 94,
          "midi": 67,
          "name": "G4",
          "ticks": 16801,
          "time": 60.0035464270833,
          "velocity": 0.448818897637795
        },
        {
          "duration": 0.335714145833336,
          "durationTicks": 94,
          "midi": 72,
          "name": "C5",
          "ticks": 16801,
          "time": 60.0035464270833,
          "velocity": 0.559055118110236
        },
        {
          "duration": 0.0928571041666686,
          "durationTicks": 26,
          "midi": 93,
          "name": "A6",
          "ticks": 18048,
          "time": 64.457116,
          "velocity": 0.543307086614173
        },
        {
          "duration": 0.0785713958333361,
          "durationTicks": 22,
          "midi": 90,
          "name": "F#6",
          "ticks": 18075,
          "time": 64.55354453125,
          "velocity": 0.503937007874016
        },
        {
          "duration": 0.0749999687499923,
          "durationTicks": 21,
          "midi": 88,
          "name": "E6",
          "ticks": 18099,
          "time": 64.63925878125,
          "velocity": 0.503937007874016
        },
        {
          "duration": 0.0821428229166656,
          "durationTicks": 23,
          "midi": 86,
          "name": "D6",
          "ticks": 18122,
          "time": 64.7214016041667,
          "velocity": 0.503937007874016
        },
        {
          "duration": 0.0821428229166656,
          "durationTicks": 23,
          "midi": 81,
          "name": "A5",
          "ticks": 18146,
          "time": 64.8071158541667,
          "velocity": 0.511811023622047
        },
        {
          "duration": 0.0749999687499923,
          "durationTicks": 21,
          "midi": 78,
          "name": "F#5",
          "ticks": 18171,
          "time": 64.89640153125,
          "velocity": 0.503937007874016
        },
        {
          "duration": 0.0749999687500065,
          "durationTicks": 21,
          "midi": 76,
          "name": "E5",
          "ticks": 18194,
          "time": 64.9785443541667,
          "velocity": 0.503937007874016
        },
        {
          "duration": 0.0821428229166656,
          "durationTicks": 23,
          "midi": 74,
          "name": "D5",
          "ticks": 18217,
          "time": 65.0606871770833,
          "velocity": 0.503937007874016
        },
        {
          "duration": 0.0857142499999952,
          "durationTicks": 24,
          "midi": 69,
          "name": "A4",
          "ticks": 18241,
          "time": 65.1464014270833,
          "velocity": 0.52755905511811
        },
        {
          "duration": 0.0785713958333361,
          "durationTicks": 22,
          "midi": 66,
          "name": "F#4",
          "ticks": 18266,
          "time": 65.2356871041667,
          "velocity": 0.503937007874016
        },
        {
          "duration": 0.0785713958333361,
          "durationTicks": 22,
          "midi": 64,
          "name": "E4",
          "ticks": 18289,
          "time": 65.3178299270833,
          "velocity": 0.503937007874016
        },
        {
          "duration": 0.0785713958333361,
          "durationTicks": 22,
          "midi": 62,
          "name": "D4",
          "ticks": 18313,
          "time": 65.4035441770833,
          "velocity": 0.503937007874016
        },
        {
          "duration": 0.0785713958333503,
          "durationTicks": 22,
          "midi": 57,
          "name": "A3",
          "ticks": 18337,
          "time": 65.4892584270833,
          "velocity": 0.511811023622047
        },
        {
          "duration": 0.0749999687499923,
          "durationTicks": 21,
          "midi": 54,
          "name": "F#3",
          "ticks": 18361,
          "time": 65.5749726770833,
          "velocity": 0.503937007874016
        },
        {
          "duration": 0.0785713958333361,
          "durationTicks": 22,
          "midi": 52,
          "name": "E3",
          "ticks": 18384,
          "time": 65.6571155,
          "velocity": 0.503937007874016
        },
        {
          "duration": 0.0821428229166656,
          "durationTicks": 23,
          "midi": 50,
          "name": "D3",
          "ticks": 18407,
          "time": 65.7392583229167,
          "velocity": 0.503937007874016
        },
        {
          "duration": 0.0535714062500006,
          "durationTicks": 15,
          "midi": 69,
          "name": "A4",
          "ticks": 20736,
          "time": 74.057112,
          "velocity": 0.590551181102362
        },
        {
          "duration": 0.039285697916668,
          "durationTicks": 11,
          "midi": 71,
          "name": "B4",
          "ticks": 20752,
          "time": 74.1142548333333,
          "velocity": 0.503937007874016
        },
        {
          "duration": 0.039285697916668,
          "durationTicks": 11,
          "midi": 72,
          "name": "C5",
          "ticks": 20763,
          "time": 74.15354053125,
          "velocity": 0.503937007874016
        },
        {
          "duration": 0.0392856979166822,
          "durationTicks": 11,
          "midi": 74,
          "name": "D5",
          "ticks": 20775,
          "time": 74.19639765625,
          "velocity": 0.503937007874016
        },
        {
          "duration": 0.0357142708333242,
          "durationTicks": 10,
          "midi": 76,
          "name": "E5",
          "ticks": 20787,
          "time": 74.23925478125,
          "velocity": 0.503937007874016
        },
        {
          "duration": 0.0392856979166538,
          "durationTicks": 11,
          "midi": 77,
          "name": "F5",
          "ticks": 20798,
          "time": 74.2785404791667,
          "velocity": 0.503937007874016
        },
        {
          "duration": 0.0392856979166538,
          "durationTicks": 11,
          "midi": 79,
          "name": "G5",
          "ticks": 20810,
          "time": 74.3213976041667,
          "velocity": 0.503937007874016
        },
        {
          "duration": 0.0392856979166538,
          "durationTicks": 11,
          "midi": 81,
          "name": "A5",
          "ticks": 20822,
          "time": 74.3642547291667,
          "velocity": 0.503937007874016
        },
        {
          "duration": 0.0428571249999976,
          "durationTicks": 12,
          "midi": 83,
          "name": "B5",
          "ticks": 20834,
          "time": 74.4071118541667,
          "velocity": 0.511811023622047
        },
        {
          "duration": 0.0392856979166822,
          "durationTicks": 11,
          "midi": 84,
          "name": "C6",
          "ticks": 20847,
          "time": 74.45354040625,
          "velocity": 0.503937007874016
        },
        {
          "duration": 0.0357142708333242,
          "durationTicks": 10,
          "midi": 86,
          "name": "D6",
          "ticks": 20859,
          "time": 74.49639753125,
          "velocity": 0.503937007874016
        },
        {
          "duration": 0.0392856979166538,
          "durationTicks": 11,
          "midi": 88,
          "name": "E6",
          "ticks": 20870,
          "time": 74.5356832291667,
          "velocity": 0.503937007874016
        },
        {
          "duration": 0.0357142708333242,
          "durationTicks": 10,
          "midi": 89,
          "name": "F6",
          "ticks": 20882,
          "time": 74.5785403541667,
          "velocity": 0.503937007874016
        },
        {
          "duration": 0.039285697916668,
          "durationTicks": 11,
          "midi": 91,
          "name": "G6",
          "ticks": 20893,
          "time": 74.6178260520833,
          "velocity": 0.503937007874016
        },
        {
          "duration": 0.0821428229166799,
          "durationTicks": 23,
          "midi": 93,
          "name": "A6",
          "ticks": 20905,
          "time": 74.6606831770833,
          "velocity": 0.503937007874016
        },
        {
          "duration": 0.0428571249999976,
          "durationTicks": 12,
          "midi": 81,
          "name": "A5",
          "ticks": 20929,
          "time": 74.7463974270833,
          "velocity": 0.574803149606299
        },
        {
          "duration": 0.0428571249999976,
          "durationTicks": 12,
          "midi": 76,
          "name": "E5",
          "ticks": 20929,
          "time": 74.7463974270833,
          "velocity": 0.464566929133858
        },
        {
          "duration": 0.0428571249999976,
          "durationTicks": 12,
          "midi": 73,
          "name": "C#5",
          "ticks": 20929,
          "time": 74.7463974270833,
          "velocity": 0.464566929133858
        },
        {
          "duration": 0.0428571249999976,
          "durationTicks": 12,
          "midi": 69,
          "name": "A4",
          "ticks": 20929,
          "time": 74.7463974270833,
          "velocity": 0.464566929133858
        },
        {
          "duration": 0.0392856979166538,
          "durationTicks": 11,
          "midi": 83,
          "name": "B5",
          "ticks": 20942,
          "time": 74.7928259791667,
          "velocity": 0.503937007874016
        },
        {
          "duration": 0.0392856979166538,
          "durationTicks": 11,
          "midi": 84,
          "name": "C6",
          "ticks": 20954,
          "time": 74.8356831041667,
          "velocity": 0.503937007874016
        },
        {
          "duration": 0.0357142708333242,
          "durationTicks": 10,
          "midi": 86,
          "name": "D6",
          "ticks": 20966,
          "time": 74.8785402291667,
          "velocity": 0.503937007874016
        },
        {
          "duration": 0.0392856979166822,
          "durationTicks": 11,
          "midi": 88,
          "name": "E6",
          "ticks": 20977,
          "time": 74.9178259270833,
          "velocity": 0.503937007874016
        },
        {
          "duration": 0.039285697916668,
          "durationTicks": 11,
          "midi": 89,
          "name": "F6",
          "ticks": 20989,
          "time": 74.9606830520833,
          "velocity": 0.503937007874016
        },
        {
          "duration": 0.039285697916668,
          "durationTicks": 11,
          "midi": 91,
          "name": "G6",
          "ticks": 21001,
          "time": 75.0035401770833,
          "velocity": 0.503937007874016
        },
        {
          "duration": 0.0428571249999976,
          "durationTicks": 12,
          "midi": 93,
          "name": "A6",
          "ticks": 21012,
          "time": 75.042825875,
          "velocity": 0.503937007874016
        },
        {
          "duration": 0.039285697916668,
          "durationTicks": 11,
          "midi": 95,
          "name": "B6",
          "ticks": 21025,
          "time": 75.0892544270833,
          "velocity": 0.511811023622047
        },
        {
          "duration": 0.039285697916668,
          "durationTicks": 11,
          "midi": 96,
          "name": "C7",
          "ticks": 21037,
          "time": 75.1321115520833,
          "velocity": 0.503937007874016
        },
        {
          "duration": 0.039285697916668,
          "durationTicks": 11,
          "midi": 98,
          "name": "D7",
          "ticks": 21049,
          "time": 75.1749686770833,
          "velocity": 0.503937007874016
        },
        {
          "duration": 0.039285697916668,
          "durationTicks": 11,
          "midi": 100,
          "name": "E7",
          "ticks": 21060,
          "time": 75.214254375,
          "velocity": 0.503937007874016
        },
        {
          "duration": 0.039285697916668,
          "durationTicks": 11,
          "midi": 101,
          "name": "F7",
          "ticks": 21072,
          "time": 75.2571115,
          "velocity": 0.503937007874016
        },
        {
          "duration": 0.0357142708333242,
          "durationTicks": 10,
          "midi": 103,
          "name": "G7",
          "ticks": 21084,
          "time": 75.299968625,
          "velocity": 0.503937007874016
        },
        {
          "duration": 0.0821428229166656,
          "durationTicks": 23,
          "midi": 105,
          "name": "A7",
          "ticks": 21095,
          "time": 75.3392543229167,
          "velocity": 0.503937007874016
        },
        {
          "duration": 0.0535714062500006,
          "durationTicks": 15,
          "midi": 105,
          "name": "A7",
          "ticks": 21120,
          "time": 75.42854,
          "velocity": 0.590551181102362
        },
        {
          "duration": 0.0535714062500006,
          "durationTicks": 15,
          "midi": 100,
          "name": "E7",
          "ticks": 21120,
          "time": 75.42854,
          "velocity": 0.480314960629921
        },
        {
          "duration": 0.0535714062500006,
          "durationTicks": 15,
          "midi": 97,
          "name": "C#7",
          "ticks": 21120,
          "time": 75.42854,
          "velocity": 0.480314960629921
        },
        {
          "duration": 0.0535714062500006,
          "durationTicks": 15,
          "midi": 93,
          "name": "A6",
          "ticks": 21120,
          "time": 75.42854,
          "velocity": 0.480314960629921
        },
        {
          "duration": 0.0392856979166822,
          "durationTicks": 11,
          "midi": 91,
          "name": "G6",
          "ticks": 21136,
          "time": 75.4856828333333,
          "velocity": 0.503937007874016
        },
        {
          "duration": 0.039285697916668,
          "durationTicks": 11,
          "midi": 89,
          "name": "F6",
          "ticks": 21147,
          "time": 75.52496853125,
          "velocity": 0.503937007874016
        },
        {
          "duration": 0.039285697916668,
          "durationTicks": 11,
          "midi": 88,
          "name": "E6",
          "ticks": 21159,
          "time": 75.56782565625,
          "velocity": 0.503937007874016
        },
        {
          "duration": 0.0357142708333242,
          "durationTicks": 10,
          "midi": 86,
          "name": "D6",
          "ticks": 21171,
          "time": 75.61068278125,
          "velocity": 0.503937007874016
        },
        {
          "duration": 0.039285697916668,
          "durationTicks": 11,
          "midi": 84,
          "name": "C6",
          "ticks": 21182,
          "time": 75.6499684791667,
          "velocity": 0.503937007874016
        },
        {
          "duration": 0.039285697916668,
          "durationTicks": 11,
          "midi": 83,
          "name": "B5",
          "ticks": 21194,
          "time": 75.6928256041667,
          "velocity": 0.503937007874016
        },
        {
          "duration": 0.039285697916668,
          "durationTicks": 11,
          "midi": 81,
          "name": "A5",
          "ticks": 21206,
          "time": 75.7356827291667,
          "velocity": 0.503937007874016
        },
        {
          "duration": 0.0428571249999976,
          "durationTicks": 12,
          "midi": 79,
          "name": "G5",
          "ticks": 21218,
          "time": 75.7785398541667,
          "velocity": 0.511811023622047
        },
        {
          "duration": 0.039285697916668,
          "durationTicks": 11,
          "midi": 77,
          "name": "F5",
          "ticks": 21231,
          "time": 75.82496840625,
          "velocity": 0.503937007874016
        },
        {
          "duration": 0.0357142708333242,
          "durationTicks": 10,
          "midi": 76,
          "name": "E5",
          "ticks": 21243,
          "time": 75.86782553125,
          "velocity": 0.503937007874016
        },
        {
          "duration": 0.039285697916668,
          "durationTicks": 11,
          "midi": 74,
          "name": "D5",
          "ticks": 21254,
          "time": 75.9071112291667,
          "velocity": 0.503937007874016
        },
        {
          "duration": 0.0357142708333384,
          "durationTicks": 10,
          "midi": 72,
          "name": "C5",
          "ticks": 21266,
          "time": 75.9499683541667,
          "velocity": 0.503937007874016
        },
        {
          "duration": 0.039285697916668,
          "durationTicks": 11,
          "midi": 71,
          "name": "B4",
          "ticks": 21277,
          "time": 75.9892540520833,
          "velocity": 0.503937007874016
        },
        {
          "duration": 0.0821428229166656,
          "durationTicks": 23,
          "midi": 69,
          "name": "A4",
          "ticks": 21289,
          "time": 76.0321111770833,
          "velocity": 0.503937007874016
        },
        {
          "duration": 0.342856999999995,
          "durationTicks": 96,
          "midi": 77,
          "name": "F5",
          "ticks": 27552,
          "time": 98.399959,
          "velocity": 0.464566929133858
        },
        {
          "duration": 0.342856999999995,
          "durationTicks": 96,
          "midi": 53,
          "name": "F3",
          "ticks": 27552,
          "time": 98.399959,
          "velocity": 0.464566929133858
        },
        {
          "duration": 0.342856999999995,
          "durationTicks": 96,
          "midi": 65,
          "name": "F4",
          "ticks": 27552,
          "time": 98.399959,
          "velocity": 0.464566929133858
        },
        {
          "duration": 0.342856999999995,
          "durationTicks": 96,
          "midi": 41,
          "name": "F2",
          "ticks": 27552,
          "time": 98.399959,
          "velocity": 0.464566929133858
        },
        {
          "duration": 0.342856999999995,
          "durationTicks": 96,
          "midi": 89,
          "name": "F6",
          "ticks": 27552,
          "time": 98.399959,
          "velocity": 0.464566929133858
        },
        {
          "duration": 0.171428500000005,
          "durationTicks": 48,
          "midi": 74,
          "name": "D5",
          "ticks": 27648,
          "time": 98.742816,
          "velocity": 0.590551181102362
        },
        {
          "duration": 0.171428500000005,
          "durationTicks": 48,
          "midi": 69,
          "name": "A4",
          "ticks": 27648,
          "time": 98.742816,
          "velocity": 0.480314960629921
        },
        {
          "duration": 0.157142791666658,
          "durationTicks": 44,
          "midi": 72,
          "name": "C5",
          "ticks": 27699,
          "time": 98.92495878125,
          "velocity": 0.503937007874016
        },
        {
          "duration": 0.160714218749987,
          "durationTicks": 45,
          "midi": 74,
          "name": "D5",
          "ticks": 27746,
          "time": 99.0928158541667,
          "velocity": 0.511811023622047
        },
        {
          "duration": 0.328571291666677,
          "durationTicks": 92,
          "midi": 69,
          "name": "A4",
          "ticks": 27794,
          "time": 99.2642443541667,
          "velocity": 0.440944881889764
        },
        {
          "duration": 0.328571291666677,
          "durationTicks": 92,
          "midi": 77,
          "name": "F5",
          "ticks": 27794,
          "time": 99.2642443541667,
          "velocity": 0.519685039370079
        },
        {
          "duration": 0.160714218750002,
          "durationTicks": 45,
          "midi": 74,
          "name": "D5",
          "ticks": 27889,
          "time": 99.6035299270833,
          "velocity": 0.503937007874016
        },
        {
          "duration": 0.0785713958333218,
          "durationTicks": 22,
          "midi": 69,
          "name": "A4",
          "ticks": 27937,
          "time": 99.7749584270834,
          "velocity": 0.511811023622047
        },
        {
          "duration": 0.0749999687500065,
          "durationTicks": 21,
          "midi": 68,
          "name": "G#4",
          "ticks": 27961,
          "time": 99.8606726770833,
          "velocity": 0.503937007874016
        },
        {
          "duration": 0.0785713958333361,
          "durationTicks": 22,
          "midi": 67,
          "name": "G4",
          "ticks": 27984,
          "time": 99.9428155,
          "velocity": 0.503937007874016
        },
        {
          "duration": 0.0821428229166799,
          "durationTicks": 23,
          "midi": 65,
          "name": "F4",
          "ticks": 28007,
          "time": 100.024958322917,
          "velocity": 0.503937007874016
        },
        {
          "duration": 0.17142849999999,
          "durationTicks": 48,
          "midi": 74,
          "name": "D5",
          "ticks": 28032,
          "time": 100.114244,
          "velocity": 0.543307086614173
        },
        {
          "duration": 0.157142791666658,
          "durationTicks": 44,
          "midi": 72,
          "name": "C5",
          "ticks": 28083,
          "time": 100.29638678125,
          "velocity": 0.503937007874016
        },
        {
          "duration": 0.160714218750002,
          "durationTicks": 45,
          "midi": 74,
          "name": "D5",
          "ticks": 28130,
          "time": 100.464243854167,
          "velocity": 0.511811023622047
        },
        {
          "duration": 0.328571291666677,
          "durationTicks": 92,
          "midi": 69,
          "name": "A4",
          "ticks": 28178,
          "time": 100.635672354167,
          "velocity": 0.440944881889764
        },
        {
          "duration": 0.328571291666677,
          "durationTicks": 92,
          "midi": 77,
          "name": "F5",
          "ticks": 28178,
          "time": 100.635672354167,
          "velocity": 0.519685039370079
        },
        {
          "duration": 0.160714218749987,
          "durationTicks": 45,
          "midi": 79,
          "name": "G5",
          "ticks": 28273,
          "time": 100.974957927083,
          "velocity": 0.503937007874016
        },
        {
          "duration": 0.157142791666658,
          "durationTicks": 44,
          "midi": 74,
          "name": "D5",
          "ticks": 28321,
          "time": 101.146386427083,
          "velocity": 0.511811023622047
        },
        {
          "duration": 0.160714218750002,
          "durationTicks": 45,
          "midi": 72,
          "name": "C5",
          "ticks": 28368,
          "time": 101.3142435,
          "velocity": 0.503937007874016
        },
        {
          "duration": 0.171428500000005,
          "durationTicks": 48,
          "midi": 74,
          "name": "D5",
          "ticks": 28416,
          "time": 101.485672,
          "velocity": 0.590551181102362
        },
        {
          "duration": 0.171428500000005,
          "durationTicks": 48,
          "midi": 69,
          "name": "A4",
          "ticks": 28416,
          "time": 101.485672,
          "velocity": 0.480314960629921
        },
        {
          "duration": 0.157142791666672,
          "durationTicks": 44,
          "midi": 72,
          "name": "C5",
          "ticks": 28467,
          "time": 101.66781478125,
          "velocity": 0.503937007874016
        },
        {
          "duration": 0.160714218750002,
          "durationTicks": 45,
          "midi": 74,
          "name": "D5",
          "ticks": 28514,
          "time": 101.835671854167,
          "velocity": 0.511811023622047
        },
        {
          "duration": 0.328571291666677,
          "durationTicks": 92,
          "midi": 69,
          "name": "A4",
          "ticks": 28562,
          "time": 102.007100354167,
          "velocity": 0.440944881889764
        },
        {
          "duration": 0.328571291666677,
          "durationTicks": 92,
          "midi": 77,
          "name": "F5",
          "ticks": 28562,
          "time": 102.007100354167,
          "velocity": 0.519685039370079
        },
        {
          "duration": 0.160714218750002,
          "durationTicks": 45,
          "midi": 74,
          "name": "D5",
          "ticks": 28657,
          "time": 102.346385927083,
          "velocity": 0.503937007874016
        },
        {
          "duration": 0.0785713958333218,
          "durationTicks": 22,
          "midi": 69,
          "name": "A4",
          "ticks": 28705,
          "time": 102.517814427083,
          "velocity": 0.511811023622047
        },
        {
          "duration": 0.0749999687500065,
          "durationTicks": 21,
          "midi": 68,
          "name": "G#4",
          "ticks": 28729,
          "time": 102.603528677083,
          "velocity": 0.503937007874016
        },
        {
          "duration": 0.0785713958333361,
          "durationTicks": 22,
          "midi": 67,
          "name": "G4",
          "ticks": 28752,
          "time": 102.6856715,
          "velocity": 0.503937007874016
        },
        {
          "duration": 0.0821428229166799,
          "durationTicks": 23,
          "midi": 65,
          "name": "F4",
          "ticks": 28775,
          "time": 102.767814322917,
          "velocity": 0.503937007874016
        },
        {
          "duration": 0.171428500000005,
          "durationTicks": 48,
          "midi": 74,
          "name": "D5",
          "ticks": 28800,
          "time": 102.8571,
          "velocity": 0.543307086614173
        },
        {
          "duration": 0.157142791666658,
          "durationTicks": 44,
          "midi": 72,
          "name": "C5",
          "ticks": 28851,
          "time": 103.03924278125,
          "velocity": 0.503937007874016
        },
        {
          "duration": 0.160714218750002,
          "durationTicks": 45,
          "midi": 74,
          "name": "D5",
          "ticks": 28898,
          "time": 103.207099854167,
          "velocity": 0.511811023622047
        },
        {
          "duration": 0.328571291666691,
          "durationTicks": 92,
          "midi": 81,
          "name": "A5",
          "ticks": 28946,
          "time": 103.378528354167,
          "velocity": 0.519685039370079
        },
        {
          "duration": 0.328571291666691,
          "durationTicks": 92,
          "midi": 77,
          "name": "F5",
          "ticks": 28946,
          "time": 103.378528354167,
          "velocity": 0.440944881889764
        },
        {
          "duration": 0.328571291666691,
          "durationTicks": 92,
          "midi": 74,
          "name": "D5",
          "ticks": 28946,
          "time": 103.378528354167,
          "velocity": 0.440944881889764
        },
        {
          "duration": 0.328571291666691,
          "durationTicks": 92,
          "midi": 69,
          "name": "A4",
          "ticks": 28946,
          "time": 103.378528354167,
          "velocity": 0.440944881889764
        },
        {
          "duration": 0.160714218750002,
          "durationTicks": 45,
          "midi": 81,
          "name": "A5",
          "ticks": 29041,
          "time": 103.717813927083,
          "velocity": 0.551181102362205
        },
        {
          "duration": 0.160714218750002,
          "durationTicks": 45,
          "midi": 77,
          "name": "F5",
          "ticks": 29041,
          "time": 103.717813927083,
          "velocity": 0.440944881889764
        },
        {
          "duration": 0.160714218750002,
          "durationTicks": 45,
          "midi": 74,
          "name": "D5",
          "ticks": 29041,
          "time": 103.717813927083,
          "velocity": 0.440944881889764
        },
        {
          "duration": 0.160714218750002,
          "durationTicks": 45,
          "midi": 69,
          "name": "A4",
          "ticks": 29041,
          "time": 103.717813927083,
          "velocity": 0.440944881889764
        },
        {
          "duration": 0.157142791666658,
          "durationTicks": 44,
          "midi": 67,
          "name": "G4",
          "ticks": 29089,
          "time": 103.889242427083,
          "velocity": 0.448818897637795
        },
        {
          "duration": 0.157142791666658,
          "durationTicks": 44,
          "midi": 72,
          "name": "C5",
          "ticks": 29089,
          "time": 103.889242427083,
          "velocity": 0.448818897637795
        },
        {
          "duration": 0.157142791666658,
          "durationTicks": 44,
          "midi": 76,
          "name": "E5",
          "ticks": 29089,
          "time": 103.889242427083,
          "velocity": 0.448818897637795
        },
        {
          "duration": 0.157142791666658,
          "durationTicks": 44,
          "midi": 79,
          "name": "G5",
          "ticks": 29089,
          "time": 103.889242427083,
          "velocity": 0.559055118110236
        },
        {
          "duration": 0.160714218750002,
          "durationTicks": 45,
          "midi": 67,
          "name": "G4",
          "ticks": 29136,
          "time": 104.0570995,
          "velocity": 0.440944881889764
        },
        {
          "duration": 0.160714218750002,
          "durationTicks": 45,
          "midi": 72,
          "name": "C5",
          "ticks": 29136,
          "time": 104.0570995,
          "velocity": 0.440944881889764
        },
        {
          "duration": 0.160714218750002,
          "durationTicks": 45,
          "midi": 76,
          "name": "E5",
          "ticks": 29136,
          "time": 104.0570995,
          "velocity": 0.440944881889764
        },
        {
          "duration": 0.160714218750002,
          "durationTicks": 45,
          "midi": 79,
          "name": "G5",
          "ticks": 29136,
          "time": 104.0570995,
          "velocity": 0.551181102362205
        },
        {
          "duration": 0.17142849999999,
          "durationTicks": 48,
          "midi": 70,
          "name": "A#4",
          "ticks": 29184,
          "time": 104.228528,
          "velocity": 0.480314960629921
        },
        {
          "duration": 0.17142849999999,
          "durationTicks": 48,
          "midi": 74,
          "name": "D5",
          "ticks": 29184,
          "time": 104.228528,
          "velocity": 0.590551181102362
        },
        {
          "duration": 0.157142791666658,
          "durationTicks": 44,
          "midi": 72,
          "name": "C5",
          "ticks": 29235,
          "time": 104.41067078125,
          "velocity": 0.503937007874016
        },
        {
          "duration": 0.160714218750002,
          "durationTicks": 45,
          "midi": 74,
          "name": "D5",
          "ticks": 29282,
          "time": 104.578527854167,
          "velocity": 0.511811023622047
        },
        {
          "duration": 0.328571291666677,
          "durationTicks": 92,
          "midi": 77,
          "name": "F5",
          "ticks": 29330,
          "time": 104.749956354167,
          "velocity": 0.519685039370079
        },
        {
          "duration": 0.328571291666677,
          "durationTicks": 92,
          "midi": 70,
          "name": "A#4",
          "ticks": 29330,
          "time": 104.749956354167,
          "velocity": 0.440944881889764
        },
        {
          "duration": 0.160714218750002,
          "durationTicks": 45,
          "midi": 74,
          "name": "D5",
          "ticks": 29425,
          "time": 105.089241927083,
          "velocity": 0.503937007874016
        },
        {
          "duration": 0.0785713958333218,
          "durationTicks": 22,
          "midi": 69,
          "name": "A4",
          "ticks": 29473,
          "time": 105.260670427083,
          "velocity": 0.511811023622047
        },
        {
          "duration": 0.0749999687499923,
          "durationTicks": 21,
          "midi": 68,
          "name": "G#4",
          "ticks": 29497,
          "time": 105.346384677083,
          "velocity": 0.503937007874016
        },
        {
          "duration": 0.0785713958333503,
          "durationTicks": 22,
          "midi": 67,
          "name": "G4",
          "ticks": 29520,
          "time": 105.4285275,
          "velocity": 0.503937007874016
        },
        {
          "duration": 0.0821428229166799,
          "durationTicks": 23,
          "midi": 65,
          "name": "F4",
          "ticks": 29543,
          "time": 105.510670322917,
          "velocity": 0.503937007874016
        },
        {
          "duration": 0.171428500000005,
          "durationTicks": 48,
          "midi": 74,
          "name": "D5",
          "ticks": 29568,
          "time": 105.599956,
          "velocity": 0.543307086614173
        },
        {
          "duration": 0.157142791666658,
          "durationTicks": 44,
          "midi": 72,
          "name": "C5",
          "ticks": 29619,
          "time": 105.78209878125,
          "velocity": 0.503937007874016
        },
        {
          "duration": 0.160714218750002,
          "durationTicks": 45,
          "midi": 74,
          "name": "D5",
          "ticks": 29666,
          "time": 105.949955854167,
          "velocity": 0.511811023622047
        },
        {
          "duration": 0.328571291666677,
          "durationTicks": 92,
          "midi": 70,
          "name": "A#4",
          "ticks": 29714,
          "time": 106.121384354167,
          "velocity": 0.440944881889764
        },
        {
          "duration": 0.328571291666677,
          "durationTicks": 92,
          "midi": 77,
          "name": "F5",
          "ticks": 29714,
          "time": 106.121384354167,
          "velocity": 0.519685039370079
        },
        {
          "duration": 0.160714218750002,
          "durationTicks": 45,
          "midi": 79,
          "name": "G5",
          "ticks": 29809,
          "time": 106.460669927083,
          "velocity": 0.503937007874016
        },
        {
          "duration": 0.157142791666658,
          "durationTicks": 44,
          "midi": 74,
          "name": "D5",
          "ticks": 29857,
          "time": 106.632098427083,
          "velocity": 0.511811023622047
        },
        {
          "duration": 0.160714218750002,
          "durationTicks": 45,
          "midi": 72,
          "name": "C5",
          "ticks": 29904,
          "time": 106.7999555,
          "velocity": 0.503937007874016
        },
        {
          "duration": 0.171428500000005,
          "durationTicks": 48,
          "midi": 70,
          "name": "A#4",
          "ticks": 29952,
          "time": 106.971384,
          "velocity": 0.480314960629921
        },
        {
          "duration": 0.171428500000005,
          "durationTicks": 48,
          "midi": 74,
          "name": "D5",
          "ticks": 29952,
          "time": 106.971384,
          "velocity": 0.590551181102362
        },
        {
          "duration": 0.157142791666658,
          "durationTicks": 44,
          "midi": 72,
          "name": "C5",
          "ticks": 30003,
          "time": 107.15352678125,
          "velocity": 0.503937007874016
        },
        {
          "duration": 0.160714218750002,
          "durationTicks": 45,
          "midi": 74,
          "name": "D5",
          "ticks": 30050,
          "time": 107.321383854167,
          "velocity": 0.511811023622047
        },
        {
          "duration": 0.328571291666677,
          "durationTicks": 92,
          "midi": 70,
          "name": "A#4",
          "ticks": 30098,
          "time": 107.492812354167,
          "velocity": 0.440944881889764
        },
        {
          "duration": 0.328571291666677,
          "durationTicks": 92,
          "midi": 77,
          "name": "F5",
          "ticks": 30098,
          "time": 107.492812354167,
          "velocity": 0.519685039370079
        },
        {
          "duration": 0.160714218749987,
          "durationTicks": 45,
          "midi": 74,
          "name": "D5",
          "ticks": 30193,
          "time": 107.832097927083,
          "velocity": 0.503937007874016
        },
        {
          "duration": 0.0785713958333218,
          "durationTicks": 22,
          "midi": 69,
          "name": "A4",
          "ticks": 30241,
          "time": 108.003526427083,
          "velocity": 0.511811023622047
        },
        {
          "duration": 0.0749999687499923,
          "durationTicks": 21,
          "midi": 68,
          "name": "G#4",
          "ticks": 30265,
          "time": 108.089240677083,
          "velocity": 0.503937007874016
        },
        {
          "duration": 0.0785713958333361,
          "durationTicks": 22,
          "midi": 67,
          "name": "G4",
          "ticks": 30288,
          "time": 108.1713835,
          "velocity": 0.503937007874016
        },
        {
          "duration": 0.0821428229166799,
          "durationTicks": 23,
          "midi": 65,
          "name": "F4",
          "ticks": 30311,
          "time": 108.253526322917,
          "velocity": 0.503937007874016
        },
        {
          "duration": 0.0928571041666544,
          "durationTicks": 26,
          "midi": 69,
          "name": "A4",
          "ticks": 30336,
          "time": 108.342812,
          "velocity": 0.480314960629921
        },
        {
          "duration": 0.0928571041666544,
          "durationTicks": 26,
          "midi": 81,
          "name": "A5",
          "ticks": 30336,
          "time": 108.342812,
          "velocity": 0.559055118110236
        },
        {
          "duration": 0.0785713958333361,
          "durationTicks": 22,
          "midi": 69,
          "name": "A4",
          "ticks": 30363,
          "time": 108.43924053125,
          "velocity": 0.440944881889764
        },
        {
          "duration": 0.0785713958333361,
          "durationTicks": 22,
          "midi": 81,
          "name": "A5",
          "ticks": 30363,
          "time": 108.43924053125,
          "velocity": 0.519685039370079
        },
        {
          "duration": 0.157142791666658,
          "durationTicks": 44,
          "midi": 69,
          "name": "A4",
          "ticks": 30387,
          "time": 108.52495478125,
          "velocity": 0.440944881889764
        },
        {
          "duration": 0.157142791666658,
          "durationTicks": 44,
          "midi": 81,
          "name": "A5",
          "ticks": 30387,
          "time": 108.52495478125,
          "velocity": 0.519685039370079
        },
        {
          "duration": 0.160714218750002,
          "durationTicks": 45,
          "midi": 81,
          "name": "A5",
          "ticks": 30434,
          "time": 108.692811854167,
          "velocity": 0.52755905511811
        },
        {
          "duration": 0.160714218750002,
          "durationTicks": 45,
          "midi": 69,
          "name": "A4",
          "ticks": 30434,
          "time": 108.692811854167,
          "velocity": 0.448818897637795
        },
        {
          "duration": 0.160714218750002,
          "durationTicks": 45,
          "midi": 81,
          "name": "A5",
          "ticks": 30482,
          "time": 108.864240354167,
          "velocity": 0.551181102362205
        },
        {
          "duration": 0.160714218750002,
          "durationTicks": 45,
          "midi": 69,
          "name": "A4",
          "ticks": 30482,
          "time": 108.864240354167,
          "velocity": 0.440944881889764
        },
        {
          "duration": 0.160714218750002,
          "durationTicks": 45,
          "midi": 72,
          "name": "C5",
          "ticks": 30529,
          "time": 109.032097427083,
          "velocity": 0.464566929133858
        },
        {
          "duration": 0.160714218750002,
          "durationTicks": 45,
          "midi": 84,
          "name": "C6",
          "ticks": 30529,
          "time": 109.032097427083,
          "velocity": 0.574803149606299
        },
        {
          "duration": 0.160714218750002,
          "durationTicks": 45,
          "midi": 68,
          "name": "G#4",
          "ticks": 30577,
          "time": 109.203525927083,
          "velocity": 0.440944881889764
        },
        {
          "duration": 0.160714218750002,
          "durationTicks": 45,
          "midi": 80,
          "name": "G#5",
          "ticks": 30577,
          "time": 109.203525927083,
          "velocity": 0.551181102362205
        },
        {
          "duration": 0.157142791666658,
          "durationTicks": 44,
          "midi": 67,
          "name": "G4",
          "ticks": 30625,
          "time": 109.374954427083,
          "velocity": 0.448818897637795
        },
        {
          "duration": 0.157142791666658,
          "durationTicks": 44,
          "midi": 79,
          "name": "G5",
          "ticks": 30625,
          "time": 109.374954427083,
          "velocity": 0.559055118110236
        },
        {
          "duration": 0.160714218749987,
          "durationTicks": 45,
          "midi": 65,
          "name": "F4",
          "ticks": 30672,
          "time": 109.5428115,
          "velocity": 0.440944881889764
        },
        {
          "duration": 0.160714218749987,
          "durationTicks": 45,
          "midi": 77,
          "name": "F5",
          "ticks": 30672,
          "time": 109.5428115,
          "velocity": 0.551181102362205
        },
        {
          "duration": 0.171428500000005,
          "durationTicks": 48,
          "midi": 74,
          "name": "D5",
          "ticks": 30720,
          "time": 109.71424,
          "velocity": 0.590551181102362
        },
        {
          "duration": 0.171428500000005,
          "durationTicks": 48,
          "midi": 69,
          "name": "A4",
          "ticks": 30720,
          "time": 109.71424,
          "velocity": 0.480314960629921
        },
        {
          "duration": 0.157142791666658,
          "durationTicks": 44,
          "midi": 72,
          "name": "C5",
          "ticks": 30771,
          "time": 109.89638278125,
          "velocity": 0.503937007874016
        },
        {
          "duration": 0.160714218750002,
          "durationTicks": 45,
          "midi": 74,
          "name": "D5",
          "ticks": 30818,
          "time": 110.064239854167,
          "velocity": 0.511811023622047
        },
        {
          "duration": 0.328571291666691,
          "durationTicks": 92,
          "midi": 77,
          "name": "F5",
          "ticks": 30866,
          "time": 110.235668354167,
          "velocity": 0.519685039370079
        },
        {
          "duration": 0.328571291666691,
          "durationTicks": 92,
          "midi": 69,
          "name": "A4",
          "ticks": 30866,
          "time": 110.235668354167,
          "velocity": 0.440944881889764
        },
        {
          "duration": 0.160714218750002,
          "durationTicks": 45,
          "midi": 74,
          "name": "D5",
          "ticks": 30961,
          "time": 110.574953927083,
          "velocity": 0.503937007874016
        },
        {
          "duration": 0.0785713958333218,
          "durationTicks": 22,
          "midi": 69,
          "name": "A4",
          "ticks": 31009,
          "time": 110.746382427083,
          "velocity": 0.511811023622047
        },
        {
          "duration": 0.0749999687500065,
          "durationTicks": 21,
          "midi": 68,
          "name": "G#4",
          "ticks": 31033,
          "time": 110.832096677083,
          "velocity": 0.503937007874016
        },
        {
          "duration": 0.0785713958333361,
          "durationTicks": 22,
          "midi": 67,
          "name": "G4",
          "ticks": 31056,
          "time": 110.9142395,
          "velocity": 0.503937007874016
        },
        {
          "duration": 0.0821428229166799,
          "durationTicks": 23,
          "midi": 65,
          "name": "F4",
          "ticks": 31079,
          "time": 110.996382322917,
          "velocity": 0.503937007874016
        },
        {
          "duration": 0.17142849999999,
          "durationTicks": 48,
          "midi": 74,
          "name": "D5",
          "ticks": 31104,
          "time": 111.085668,
          "velocity": 0.543307086614173
        },
        {
          "duration": 0.157142791666658,
          "durationTicks": 44,
          "midi": 72,
          "name": "C5",
          "ticks": 31155,
          "time": 111.26781078125,
          "velocity": 0.503937007874016
        },
        {
          "duration": 0.160714218750002,
          "durationTicks": 45,
          "midi": 74,
          "name": "D5",
          "ticks": 31202,
          "time": 111.435667854167,
          "velocity": 0.511811023622047
        },
        {
          "duration": 0.328571291666677,
          "durationTicks": 92,
          "midi": 69,
          "name": "A4",
          "ticks": 31250,
          "time": 111.607096354167,
          "velocity": 0.440944881889764
        },
        {
          "duration": 0.328571291666677,
          "durationTicks": 92,
          "midi": 77,
          "name": "F5",
          "ticks": 31250,
          "time": 111.607096354167,
          "velocity": 0.519685039370079
        },
        {
          "duration": 0.160714218750002,
          "durationTicks": 45,
          "midi": 79,
          "name": "G5",
          "ticks": 31345,
          "time": 111.946381927083,
          "velocity": 0.503937007874016
        },
        {
          "duration": 0.157142791666672,
          "durationTicks": 44,
          "midi": 74,
          "name": "D5",
          "ticks": 31393,
          "time": 112.117810427083,
          "velocity": 0.511811023622047
        },
        {
          "duration": 0.160714218750002,
          "durationTicks": 45,
          "midi": 72,
          "name": "C5",
          "ticks": 31440,
          "time": 112.2856675,
          "velocity": 0.503937007874016
        },
        {
          "duration": 0.171428500000005,
          "durationTicks": 48,
          "midi": 74,
          "name": "D5",
          "ticks": 31488,
          "time": 112.457096,
          "velocity": 0.590551181102362
        },
        {
          "duration": 0.171428500000005,
          "durationTicks": 48,
          "midi": 69,
          "name": "A4",
          "ticks": 31488,
          "time": 112.457096,
          "velocity": 0.480314960629921
        },
        {
          "duration": 0.157142791666672,
          "durationTicks": 44,
          "midi": 72,
          "name": "C5",
          "ticks": 31539,
          "time": 112.63923878125,
          "velocity": 0.503937007874016
        },
        {
          "duration": 0.160714218750002,
          "durationTicks": 45,
          "midi": 74,
          "name": "D5",
          "ticks": 31586,
          "time": 112.807095854167,
          "velocity": 0.511811023622047
        },
        {
          "duration": 0.328571291666677,
          "durationTicks": 92,
          "midi": 77,
          "name": "F5",
          "ticks": 31634,
          "time": 112.978524354167,
          "velocity": 0.519685039370079
        },
        {
          "duration": 0.328571291666677,
          "durationTicks": 92,
          "midi": 69,
          "name": "A4",
          "ticks": 31634,
          "time": 112.978524354167,
          "velocity": 0.440944881889764
        },
        {
          "duration": 0.160714218750002,
          "durationTicks": 45,
          "midi": 74,
          "name": "D5",
          "ticks": 31729,
          "time": 113.317809927083,
          "velocity": 0.503937007874016
        },
        {
          "duration": 0.0785713958333218,
          "durationTicks": 22,
          "midi": 69,
          "name": "A4",
          "ticks": 31777,
          "time": 113.489238427083,
          "velocity": 0.511811023622047
        },
        {
          "duration": 0.0749999687500065,
          "durationTicks": 21,
          "midi": 68,
          "name": "G#4",
          "ticks": 31801,
          "time": 113.574952677083,
          "velocity": 0.503937007874016
        },
        {
          "duration": 0.0785713958333361,
          "durationTicks": 22,
          "midi": 67,
          "name": "G4",
          "ticks": 31824,
          "time": 113.6570955,
          "velocity": 0.503937007874016
        },
        {
          "duration": 0.0821428229166799,
          "durationTicks": 23,
          "midi": 65,
          "name": "F4",
          "ticks": 31847,
          "time": 113.739238322917,
          "velocity": 0.503937007874016
        },
        {
          "duration": 0.171428500000005,
          "durationTicks": 48,
          "midi": 74,
          "name": "D5",
          "ticks": 31872,
          "time": 113.828524,
          "velocity": 0.543307086614173
        },
        {
          "duration": 0.157142791666658,
          "durationTicks": 44,
          "midi": 72,
          "name": "C5",
          "ticks": 31923,
          "time": 114.01066678125,
          "velocity": 0.503937007874016
        },
        {
          "duration": 0.160714218750002,
          "durationTicks": 45,
          "midi": 74,
          "name": "D5",
          "ticks": 31970,
          "time": 114.178523854167,
          "velocity": 0.511811023622047
        },
        {
          "duration": 0.328571291666677,
          "durationTicks": 92,
          "midi": 69,
          "name": "A4",
          "ticks": 32018,
          "time": 114.349952354167,
          "velocity": 0.440944881889764
        },
        {
          "duration": 0.328571291666677,
          "durationTicks": 92,
          "midi": 74,
          "name": "D5",
          "ticks": 32018,
          "time": 114.349952354167,
          "velocity": 0.440944881889764
        },
        {
          "duration": 0.328571291666677,
          "durationTicks": 92,
          "midi": 77,
          "name": "F5",
          "ticks": 32018,
          "time": 114.349952354167,
          "velocity": 0.440944881889764
        },
        {
          "duration": 0.328571291666677,
          "durationTicks": 92,
          "midi": 81,
          "name": "A5",
          "ticks": 32018,
          "time": 114.349952354167,
          "velocity": 0.519685039370079
        },
        {
          "duration": 0.160714218749987,
          "durationTicks": 45,
          "midi": 69,
          "name": "A4",
          "ticks": 32113,
          "time": 114.689237927083,
          "velocity": 0.440944881889764
        },
        {
          "duration": 0.160714218749987,
          "durationTicks": 45,
          "midi": 74,
          "name": "D5",
          "ticks": 32113,
          "time": 114.689237927083,
          "velocity": 0.440944881889764
        },
        {
          "duration": 0.160714218749987,
          "durationTicks": 45,
          "midi": 77,
          "name": "F5",
          "ticks": 32113,
          "time": 114.689237927083,
          "velocity": 0.440944881889764
        },
        {
          "duration": 0.160714218749987,
          "durationTicks": 45,
          "midi": 81,
          "name": "A5",
          "ticks": 32113,
          "time": 114.689237927083,
          "velocity": 0.551181102362205
        },
        {
          "duration": 0.157142791666658,
          "durationTicks": 44,
          "midi": 79,
          "name": "G5",
          "ticks": 32161,
          "time": 114.860666427083,
          "velocity": 0.559055118110236
        },
        {
          "duration": 0.157142791666658,
          "durationTicks": 44,
          "midi": 76,
          "name": "E5",
          "ticks": 32161,
          "time": 114.860666427083,
          "velocity": 0.448818897637795
        },
        {
          "duration": 0.157142791666658,
          "durationTicks": 44,
          "midi": 72,
          "name": "C5",
          "ticks": 32161,
          "time": 114.860666427083,
          "velocity": 0.448818897637795
        },
        {
          "duration": 0.157142791666658,
          "durationTicks": 44,
          "midi": 67,
          "name": "G4",
          "ticks": 32161,
          "time": 114.860666427083,
          "velocity": 0.448818897637795
        },
        {
          "duration": 0.160714218750002,
          "durationTicks": 45,
          "midi": 79,
          "name": "G5",
          "ticks": 32208,
          "time": 115.0285235,
          "velocity": 0.551181102362205
        },
        {
          "duration": 0.160714218750002,
          "durationTicks": 45,
          "midi": 76,
          "name": "E5",
          "ticks": 32208,
          "time": 115.0285235,
          "velocity": 0.440944881889764
        },
        {
          "duration": 0.160714218750002,
          "durationTicks": 45,
          "midi": 72,
          "name": "C5",
          "ticks": 32208,
          "time": 115.0285235,
          "velocity": 0.440944881889764
        },
        {
          "duration": 0.160714218750002,
          "durationTicks": 45,
          "midi": 67,
          "name": "G4",
          "ticks": 32208,
          "time": 115.0285235,
          "velocity": 0.440944881889764
        },
        {
          "duration": 0.17142849999999,
          "durationTicks": 48,
          "midi": 74,
          "name": "D5",
          "ticks": 32256,
          "time": 115.199952,
          "velocity": 0.590551181102362
        },
        {
          "duration": 0.17142849999999,
          "durationTicks": 48,
          "midi": 70,
          "name": "A#4",
          "ticks": 32256,
          "time": 115.199952,
          "velocity": 0.480314960629921
        },
        {
          "duration": 0.157142791666658,
          "durationTicks": 44,
          "midi": 72,
          "name": "C5",
          "ticks": 32307,
          "time": 115.38209478125,
          "velocity": 0.503937007874016
        },
        {
          "duration": 0.160714218750002,
          "durationTicks": 45,
          "midi": 74,
          "name": "D5",
          "ticks": 32354,
          "time": 115.549951854167,
          "velocity": 0.511811023622047
        },
        {
          "duration": 0.328571291666677,
          "durationTicks": 92,
          "midi": 70,
          "name": "A#4",
          "ticks": 32402,
          "time": 115.721380354167,
          "velocity": 0.440944881889764
        },
        {
          "duration": 0.328571291666677,
          "durationTicks": 92,
          "midi": 77,
          "name": "F5",
          "ticks": 32402,
          "time": 115.721380354167,
          "velocity": 0.519685039370079
        },
        {
          "duration": 0.160714218750002,
          "durationTicks": 45,
          "midi": 74,
          "name": "D5",
          "ticks": 32497,
          "time": 116.060665927083,
          "velocity": 0.503937007874016
        },
        {
          "duration": 0.0785713958333076,
          "durationTicks": 22,
          "midi": 69,
          "name": "A4",
          "ticks": 32545,
          "time": 116.232094427083,
          "velocity": 0.511811023622047
        },
        {
          "duration": 0.0749999687499923,
          "durationTicks": 21,
          "midi": 68,
          "name": "G#4",
          "ticks": 32569,
          "time": 116.317808677083,
          "velocity": 0.503937007874016
        },
        {
          "duration": 0.0785713958333361,
          "durationTicks": 22,
          "midi": 67,
          "name": "G4",
          "ticks": 32592,
          "time": 116.3999515,
          "velocity": 0.503937007874016
        },
        {
          "duration": 0.0821428229166799,
          "durationTicks": 23,
          "midi": 65,
          "name": "F4",
          "ticks": 32615,
          "time": 116.482094322917,
          "velocity": 0.503937007874016
        },
        {
          "duration": 0.171428500000005,
          "durationTicks": 48,
          "midi": 74,
          "name": "D5",
          "ticks": 32640,
          "time": 116.57138,
          "velocity": 0.543307086614173
        },
        {
          "duration": 0.157142791666658,
          "durationTicks": 44,
          "midi": 72,
          "name": "C5",
          "ticks": 32691,
          "time": 116.75352278125,
          "velocity": 0.503937007874016
        },
        {
          "duration": 0.160714218750002,
          "durationTicks": 45,
          "midi": 74,
          "name": "D5",
          "ticks": 32738,
          "time": 116.921379854167,
          "velocity": 0.511811023622047
        },
        {
          "duration": 0.328571291666691,
          "durationTicks": 92,
          "midi": 77,
          "name": "F5",
          "ticks": 32786,
          "time": 117.092808354167,
          "velocity": 0.519685039370079
        },
        {
          "duration": 0.328571291666691,
          "durationTicks": 92,
          "midi": 70,
          "name": "A#4",
          "ticks": 32786,
          "time": 117.092808354167,
          "velocity": 0.440944881889764
        },
        {
          "duration": 0.160714218750002,
          "durationTicks": 45,
          "midi": 79,
          "name": "G5",
          "ticks": 32881,
          "time": 117.432093927083,
          "velocity": 0.503937007874016
        },
        {
          "duration": 0.157142791666658,
          "durationTicks": 44,
          "midi": 74,
          "name": "D5",
          "ticks": 32929,
          "time": 117.603522427083,
          "velocity": 0.511811023622047
        },
        {
          "duration": 0.160714218750002,
          "durationTicks": 45,
          "midi": 72,
          "name": "C5",
          "ticks": 32976,
          "time": 117.7713795,
          "velocity": 0.503937007874016
        },
        {
          "duration": 0.0928571041666544,
          "durationTicks": 26,
          "midi": 87,
          "name": "D#6",
          "ticks": 33024,
          "time": 117.942808,
          "velocity": 0.559055118110236
        },
        {
          "duration": 0.0928571041666544,
          "durationTicks": 26,
          "midi": 75,
          "name": "D#5",
          "ticks": 33024,
          "time": 117.942808,
          "velocity": 0.480314960629921
        },
        {
          "duration": 0.0785713958333361,
          "durationTicks": 22,
          "midi": 87,
          "name": "D#6",
          "ticks": 33051,
          "time": 118.03923653125,
          "velocity": 0.551181102362205
        },
        {
          "duration": 0.0785713958333361,
          "durationTicks": 22,
          "midi": 75,
          "name": "D#5",
          "ticks": 33051,
          "time": 118.03923653125,
          "velocity": 0.440944881889764
        },
        {
          "duration": 0.0821428229166799,
          "durationTicks": 23,
          "midi": 86,
          "name": "D6",
          "ticks": 33098,
          "time": 118.207093604167,
          "velocity": 0.551181102362205
        },
        {
          "duration": 0.0821428229166799,
          "durationTicks": 23,
          "midi": 74,
          "name": "D5",
          "ticks": 33098,
          "time": 118.207093604167,
          "velocity": 0.440944881889764
        },
        {
          "duration": 0.0821428229166799,
          "durationTicks": 23,
          "midi": 86,
          "name": "D6",
          "ticks": 33122,
          "time": 118.292807854167,
          "velocity": 0.559055118110236
        },
        {
          "duration": 0.0821428229166799,
          "durationTicks": 23,
          "midi": 74,
          "name": "D5",
          "ticks": 33122,
          "time": 118.292807854167,
          "velocity": 0.448818897637795
        },
        {
          "duration": 0.0749999687499923,
          "durationTicks": 21,
          "midi": 84,
          "name": "C6",
          "ticks": 33170,
          "time": 118.464236354167,
          "velocity": 0.551181102362205
        },
        {
          "duration": 0.0749999687499923,
          "durationTicks": 21,
          "midi": 72,
          "name": "C5",
          "ticks": 33170,
          "time": 118.464236354167,
          "velocity": 0.440944881889764
        },
        {
          "duration": 0.0821428229166514,
          "durationTicks": 23,
          "midi": 84,
          "name": "C6",
          "ticks": 33193,
          "time": 118.546379177083,
          "velocity": 0.551181102362205
        },
        {
          "duration": 0.0821428229166514,
          "durationTicks": 23,
          "midi": 72,
          "name": "C5",
          "ticks": 33193,
          "time": 118.546379177083,
          "velocity": 0.440944881889764
        },
        {
          "duration": 0.160714218750002,
          "durationTicks": 45,
          "midi": 74,
          "name": "D5",
          "ticks": 33265,
          "time": 118.803521927083,
          "velocity": 0.440944881889764
        },
        {
          "duration": 0.160714218750002,
          "durationTicks": 45,
          "midi": 86,
          "name": "D6",
          "ticks": 33265,
          "time": 118.803521927083,
          "velocity": 0.551181102362205
        },
        {
          "duration": 0.157142791666672,
          "durationTicks": 44,
          "midi": 75,
          "name": "D#5",
          "ticks": 33313,
          "time": 118.974950427083,
          "velocity": 0.448818897637795
        },
        {
          "duration": 0.157142791666672,
          "durationTicks": 44,
          "midi": 87,
          "name": "D#6",
          "ticks": 33313,
          "time": 118.974950427083,
          "velocity": 0.559055118110236
        },
        {
          "duration": 0.160714218750002,
          "durationTicks": 45,
          "midi": 72,
          "name": "C5",
          "ticks": 33360,
          "time": 119.1428075,
          "velocity": 0.440944881889764
        },
        {
          "duration": 0.160714218750002,
          "durationTicks": 45,
          "midi": 84,
          "name": "C6",
          "ticks": 33360,
          "time": 119.1428075,
          "velocity": 0.551181102362205
        },
        {
          "duration": 0.171428500000005,
          "durationTicks": 48,
          "midi": 86,
          "name": "D6",
          "ticks": 33408,
          "time": 119.314236,
          "velocity": 0.590551181102362
        },
        {
          "duration": 0.171428500000005,
          "durationTicks": 48,
          "midi": 74,
          "name": "D5",
          "ticks": 33408,
          "time": 119.314236,
          "velocity": 0.480314960629921
        },
        {
          "duration": 0.157142791666672,
          "durationTicks": 44,
          "midi": 86,
          "name": "D6",
          "ticks": 33459,
          "time": 119.49637878125,
          "velocity": 0.519685039370079
        },
        {
          "duration": 0.157142791666672,
          "durationTicks": 44,
          "midi": 74,
          "name": "D5",
          "ticks": 33459,
          "time": 119.49637878125,
          "velocity": 0.440944881889764
        },
        {
          "duration": 0.160714218750002,
          "durationTicks": 45,
          "midi": 86,
          "name": "D6",
          "ticks": 33506,
          "time": 119.664235854167,
          "velocity": 0.559055118110236
        },
        {
          "duration": 0.160714218750002,
          "durationTicks": 45,
          "midi": 74,
          "name": "D5",
          "ticks": 33506,
          "time": 119.664235854167,
          "velocity": 0.448818897637795
        },
        {
          "duration": 0.0749999687500065,
          "durationTicks": 21,
          "midi": 84,
          "name": "C6",
          "ticks": 33554,
          "time": 119.835664354167,
          "velocity": 0.551181102362205
        },
        {
          "duration": 0.0749999687500065,
          "durationTicks": 21,
          "midi": 72,
          "name": "C5",
          "ticks": 33554,
          "time": 119.835664354167,
          "velocity": 0.440944881889764
        },
        {
          "duration": 0.0821428229166656,
          "durationTicks": 23,
          "midi": 86,
          "name": "D6",
          "ticks": 33577,
          "time": 119.917807177083,
          "velocity": 0.551181102362205
        },
        {
          "duration": 0.0821428229166656,
          "durationTicks": 23,
          "midi": 74,
          "name": "D5",
          "ticks": 33577,
          "time": 119.917807177083,
          "velocity": 0.440944881889764
        },
        {
          "duration": 0.157142791666658,
          "durationTicks": 44,
          "midi": 86,
          "name": "D6",
          "ticks": 33697,
          "time": 120.346378427083,
          "velocity": 0.448818897637795
        },
        {
          "duration": 0.157142791666658,
          "durationTicks": 44,
          "midi": 98,
          "name": "D7",
          "ticks": 33697,
          "time": 120.346378427083,
          "velocity": 0.559055118110236
        }
      ]
    },
    {
      "channel": 0,
      "controlChanges": {
        "6": [
          {
            "number": 6,
            "ticks": 0,
            "time": 0,
            "value": 0.094488188976378
          }
        ],
        "7": [
          {
            "number": 7,
            "ticks": 0,
            "time": 0,
            "value": 1
          },
          {
            "number": 7,
            "ticks": 0,
            "time": 0,
            "value": 1
          }
        ],
        "10": [
          {
            "number": 10,
            "ticks": 0,
            "time": 0,
            "value": 0.503937007874016
          },
          {
            "number": 10,
            "ticks": 0,
            "time": 0,
            "value": 0.503937007874016
          }
        ],
        "100": [
          {
            "number": 100,
            "ticks": 0,
            "time": 0,
            "value": 0
          }
        ],
        "101": [
          {
            "number": 101,
            "ticks": 0,
            "time": 0,
            "value": 0
          }
        ]
      },
      "pitchBends": [
        {
          "ticks": 0,
          "time": 0,
          "value": 0
        },
        {
          "ticks": 0,
          "time": 0,
          "value": 0
        }
      ],
      "instrument": {
        "family": "piano",
        "number": 0,
        "name": "acoustic grand piano"
      },
      "name": "MIDI out #5",
      "notes": [],
      "endOfTrackTicks": 34177
    },
    {
      "channel": 5,
      "controlChanges": {
        "6": [
          {
            "number": 6,
            "ticks": 0,
            "time": 0,
            "value": 0.094488188976378
          },
          {
            "number": 6,
            "ticks": 0,
            "time": 0,
            "value": 0.094488188976378
          },
          {
            "number": 6,
            "ticks": 34176,
            "time": 122.057092,
            "value": 0.094488188976378
          },
          {
            "number": 6,
            "ticks": 34177,
            "time": 122.060663427083,
            "value": 0.094488188976378
          },
          {
            "number": 6,
            "ticks": 34177,
            "time": 122.060663427083,
            "value": 0.094488188976378
          }
        ],
        "7": [
          {
            "number": 7,
            "ticks": 0,
            "time": 0,
            "value": 1
          },
          {
            "number": 7,
            "ticks": 0,
            "time": 0,
            "value": 1
          },
          {
            "number": 7,
            "ticks": 34176,
            "time": 122.057092,
            "value": 1
          },
          {
            "number": 7,
            "ticks": 34177,
            "time": 122.060663427083,
            "value": 1
          },
          {
            "number": 7,
            "ticks": 34177,
            "time": 122.060663427083,
            "value": 1
          }
        ],
        "10": [
          {
            "number": 10,
            "ticks": 0,
            "time": 0,
            "value": 0.503937007874016
          },
          {
            "number": 10,
            "ticks": 0,
            "time": 0,
            "value": 0.503937007874016
          },
          {
            "number": 10,
            "ticks": 34176,
            "time": 122.057092,
            "value": 0.503937007874016
          },
          {
            "number": 10,
            "ticks": 34177,
            "time": 122.060663427083,
            "value": 0.503937007874016
          },
          {
            "number": 10,
            "ticks": 34177,
            "time": 122.060663427083,
            "value": 0.503937007874016
          }
        ],
        "100": [
          {
            "number": 100,
            "ticks": 0,
            "time": 0,
            "value": 0
          },
          {
            "number": 100,
            "ticks": 0,
            "time": 0,
            "value": 0
          },
          {
            "number": 100,
            "ticks": 34176,
            "time": 122.057092,
            "value": 0
          },
          {
            "number": 100,
            "ticks": 34177,
            "time": 122.060663427083,
            "value": 0
          },
          {
            "number": 100,
            "ticks": 34177,
            "time": 122.060663427083,
            "value": 0
          }
        ],
        "101": [
          {
            "number": 101,
            "ticks": 0,
            "time": 0,
            "value": 0
          },
          {
            "number": 101,
            "ticks": 0,
            "time": 0,
            "value": 0
          },
          {
            "number": 101,
            "ticks": 34176,
            "time": 122.057092,
            "value": 0
          },
          {
            "number": 101,
            "ticks": 34177,
            "time": 122.060663427083,
            "value": 0
          },
          {
            "number": 101,
            "ticks": 34177,
            "time": 122.060663427083,
            "value": 0
          }
        ]
      },
      "pitchBends": [
        {
          "ticks": 0,
          "time": 0,
          "value": 0
        },
        {
          "ticks": 0,
          "time": 0,
          "value": 0
        },
        {
          "ticks": 34176,
          "time": 122.057092,
          "value": 0
        },
        {
          "ticks": 34177,
          "time": 122.060663427083,
          "value": 0
        },
        {
          "ticks": 34177,
          "time": 122.060663427083,
          "value": 0
        }
      ],
      "instrument": {
        "family": "synth lead",
        "number": 80,
        "name": "lead 1 (square)"
      },
      "name": "",
      "notes": [
        {
          "duration": 0.68928542708333,
          "durationTicks": 193,
          "midi": 38,
          "name": "D2",
          "ticks": 4608,
          "time": 16.457136,
          "velocity": 0.614173228346457
        },
        {
          "duration": 0.68928542708333,
          "durationTicks": 193,
          "midi": 50,
          "name": "D3",
          "ticks": 4608,
          "time": 16.457136,
          "velocity": 0.614173228346457
        },
        {
          "duration": 0.678571145833335,
          "durationTicks": 190,
          "midi": 36,
          "name": "C2",
          "ticks": 4801,
          "time": 17.1464214270833,
          "velocity": 0.606299212598425
        },
        {
          "duration": 0.678571145833335,
          "durationTicks": 190,
          "midi": 48,
          "name": "C3",
          "ticks": 4801,
          "time": 17.1464214270833,
          "velocity": 0.606299212598425
        },
        {
          "duration": 0.689285427083334,
          "durationTicks": 193,
          "midi": 47,
          "name": "B2",
          "ticks": 4992,
          "time": 17.828564,
          "velocity": 0.606299212598425
        },
        {
          "duration": 0.689285427083334,
          "durationTicks": 193,
          "midi": 35,
          "name": "B1",
          "ticks": 4992,
          "time": 17.828564,
          "velocity": 0.606299212598425
        },
        {
          "duration": 0.678571145833335,
          "durationTicks": 190,
          "midi": 31,
          "name": "G1",
          "ticks": 5185,
          "time": 18.5178494270833,
          "velocity": 0.606299212598425
        },
        {
          "duration": 0.678571145833335,
          "durationTicks": 190,
          "midi": 43,
          "name": "G2",
          "ticks": 5185,
          "time": 18.5178494270833,
          "velocity": 0.606299212598425
        },
        {
          "duration": 0.339285572916662,
          "durationTicks": 95,
          "midi": 46,
          "name": "A#2",
          "ticks": 5474,
          "time": 19.5499918541667,
          "velocity": 0.606299212598425
        },
        {
          "duration": 0.339285572916662,
          "durationTicks": 95,
          "midi": 34,
          "name": "A#1",
          "ticks": 5474,
          "time": 19.5499918541667,
          "velocity": 0.606299212598425
        },
        {
          "duration": 0.335714145833336,
          "durationTicks": 94,
          "midi": 36,
          "name": "C2",
          "ticks": 5665,
          "time": 20.2321344270833,
          "velocity": 0.606299212598425
        },
        {
          "duration": 0.335714145833336,
          "durationTicks": 94,
          "midi": 48,
          "name": "C3",
          "ticks": 5665,
          "time": 20.2321344270833,
          "velocity": 0.606299212598425
        },
        {
          "duration": 0.171428500000001,
          "durationTicks": 48,
          "midi": 38,
          "name": "D2",
          "ticks": 6144,
          "time": 21.942848,
          "velocity": 0.637795275590551
        },
        {
          "duration": 0.157142791666665,
          "durationTicks": 44,
          "midi": 53,
          "name": "F3",
          "ticks": 6195,
          "time": 22.12499078125,
          "velocity": 0.62992125984252
        },
        {
          "duration": 0.157142791666665,
          "durationTicks": 44,
          "midi": 50,
          "name": "D3",
          "ticks": 6195,
          "time": 22.12499078125,
          "velocity": 0.62992125984252
        },
        {
          "duration": 0.160714218750002,
          "durationTicks": 45,
          "midi": 38,
          "name": "D2",
          "ticks": 6242,
          "time": 22.2928478541667,
          "velocity": 0.62992125984252
        },
        {
          "duration": 0.160714218749998,
          "durationTicks": 45,
          "midi": 53,
          "name": "F3",
          "ticks": 6290,
          "time": 22.4642763541667,
          "velocity": 0.62992125984252
        },
        {
          "duration": 0.160714218749998,
          "durationTicks": 45,
          "midi": 50,
          "name": "D3",
          "ticks": 6290,
          "time": 22.4642763541667,
          "velocity": 0.62992125984252
        },
        {
          "duration": 0.160714218750002,
          "durationTicks": 45,
          "midi": 38,
          "name": "D2",
          "ticks": 6337,
          "time": 22.6321334270833,
          "velocity": 0.62992125984252
        },
        {
          "duration": 0.160714218750002,
          "durationTicks": 45,
          "midi": 53,
          "name": "F3",
          "ticks": 6385,
          "time": 22.8035619270833,
          "velocity": 0.62992125984252
        },
        {
          "duration": 0.160714218750002,
          "durationTicks": 45,
          "midi": 50,
          "name": "D3",
          "ticks": 6385,
          "time": 22.8035619270833,
          "velocity": 0.62992125984252
        },
        {
          "duration": 0.157142791666665,
          "durationTicks": 44,
          "midi": 38,
          "name": "D2",
          "ticks": 6433,
          "time": 22.9749904270833,
          "velocity": 0.62992125984252
        },
        {
          "duration": 0.160714218749998,
          "durationTicks": 45,
          "midi": 53,
          "name": "F3",
          "ticks": 6480,
          "time": 23.1428475,
          "velocity": 0.62992125984252
        },
        {
          "duration": 0.160714218749998,
          "durationTicks": 45,
          "midi": 50,
          "name": "D3",
          "ticks": 6480,
          "time": 23.1428475,
          "velocity": 0.62992125984252
        },
        {
          "duration": 0.171428499999998,
          "durationTicks": 48,
          "midi": 38,
          "name": "D2",
          "ticks": 6528,
          "time": 23.314276,
          "velocity": 0.62992125984252
        },
        {
          "duration": 0.157142791666665,
          "durationTicks": 44,
          "midi": 53,
          "name": "F3",
          "ticks": 6579,
          "time": 23.49641878125,
          "velocity": 0.62992125984252
        },
        {
          "duration": 0.157142791666665,
          "durationTicks": 44,
          "midi": 50,
          "name": "D3",
          "ticks": 6579,
          "time": 23.49641878125,
          "velocity": 0.62992125984252
        },
        {
          "duration": 0.160714218749998,
          "durationTicks": 45,
          "midi": 38,
          "name": "D2",
          "ticks": 6626,
          "time": 23.6642758541667,
          "velocity": 0.62992125984252
        },
        {
          "duration": 0.160714218750002,
          "durationTicks": 45,
          "midi": 53,
          "name": "F3",
          "ticks": 6674,
          "time": 23.8357043541667,
          "velocity": 0.62992125984252
        },
        {
          "duration": 0.160714218750002,
          "durationTicks": 45,
          "midi": 50,
          "name": "D3",
          "ticks": 6674,
          "time": 23.8357043541667,
          "velocity": 0.62992125984252
        },
        {
          "duration": 0.160714218749998,
          "durationTicks": 45,
          "midi": 38,
          "name": "D2",
          "ticks": 6721,
          "time": 24.0035614270833,
          "velocity": 0.62992125984252
        },
        {
          "duration": 0.160714218749998,
          "durationTicks": 45,
          "midi": 53,
          "name": "F3",
          "ticks": 6769,
          "time": 24.1749899270833,
          "velocity": 0.62992125984252
        },
        {
          "duration": 0.160714218749998,
          "durationTicks": 45,
          "midi": 50,
          "name": "D3",
          "ticks": 6769,
          "time": 24.1749899270833,
          "velocity": 0.62992125984252
        },
        {
          "duration": 0.157142791666665,
          "durationTicks": 44,
          "midi": 38,
          "name": "D2",
          "ticks": 6817,
          "time": 24.3464184270833,
          "velocity": 0.62992125984252
        },
        {
          "duration": 0.160714218750002,
          "durationTicks": 45,
          "midi": 53,
          "name": "F3",
          "ticks": 6864,
          "time": 24.5142755,
          "velocity": 0.62992125984252
        },
        {
          "duration": 0.160714218750002,
          "durationTicks": 45,
          "midi": 50,
          "name": "D3",
          "ticks": 6864,
          "time": 24.5142755,
          "velocity": 0.62992125984252
        },
        {
          "duration": 0.171428500000001,
          "durationTicks": 48,
          "midi": 38,
          "name": "D2",
          "ticks": 6912,
          "time": 24.685704,
          "velocity": 0.62992125984252
        },
        {
          "duration": 0.157142791666665,
          "durationTicks": 44,
          "midi": 53,
          "name": "F3",
          "ticks": 6963,
          "time": 24.86784678125,
          "velocity": 0.62992125984252
        },
        {
          "duration": 0.157142791666665,
          "durationTicks": 44,
          "midi": 50,
          "name": "D3",
          "ticks": 6963,
          "time": 24.86784678125,
          "velocity": 0.62992125984252
        },
        {
          "duration": 0.160714218750002,
          "durationTicks": 45,
          "midi": 38,
          "name": "D2",
          "ticks": 7010,
          "time": 25.0357038541667,
          "velocity": 0.62992125984252
        },
        {
          "duration": 0.160714218749998,
          "durationTicks": 45,
          "midi": 53,
          "name": "F3",
          "ticks": 7058,
          "time": 25.2071323541667,
          "velocity": 0.62992125984252
        },
        {
          "duration": 0.160714218749998,
          "durationTicks": 45,
          "midi": 50,
          "name": "D3",
          "ticks": 7058,
          "time": 25.2071323541667,
          "velocity": 0.62992125984252
        },
        {
          "duration": 0.160714218750002,
          "durationTicks": 45,
          "midi": 38,
          "name": "D2",
          "ticks": 7105,
          "time": 25.3749894270833,
          "velocity": 0.62992125984252
        },
        {
          "duration": 0.160714218750002,
          "durationTicks": 45,
          "midi": 53,
          "name": "F3",
          "ticks": 7153,
          "time": 25.5464179270833,
          "velocity": 0.62992125984252
        },
        {
          "duration": 0.160714218750002,
          "durationTicks": 45,
          "midi": 50,
          "name": "D3",
          "ticks": 7153,
          "time": 25.5464179270833,
          "velocity": 0.62992125984252
        },
        {
          "duration": 0.157142791666665,
          "durationTicks": 44,
          "midi": 38,
          "name": "D2",
          "ticks": 7201,
          "time": 25.7178464270833,
          "velocity": 0.62992125984252
        },
        {
          "duration": 0.160714218750002,
          "durationTicks": 45,
          "midi": 53,
          "name": "F3",
          "ticks": 7248,
          "time": 25.8857035,
          "velocity": 0.62992125984252
        },
        {
          "duration": 0.160714218750002,
          "durationTicks": 45,
          "midi": 50,
          "name": "D3",
          "ticks": 7248,
          "time": 25.8857035,
          "velocity": 0.62992125984252
        },
        {
          "duration": 0.171428499999998,
          "durationTicks": 48,
          "midi": 38,
          "name": "D2",
          "ticks": 7296,
          "time": 26.057132,
          "velocity": 0.62992125984252
        },
        {
          "duration": 0.157142791666665,
          "durationTicks": 44,
          "midi": 53,
          "name": "F3",
          "ticks": 7347,
          "time": 26.23927478125,
          "velocity": 0.62992125984252
        },
        {
          "duration": 0.157142791666665,
          "durationTicks": 44,
          "midi": 50,
          "name": "D3",
          "ticks": 7347,
          "time": 26.23927478125,
          "velocity": 0.62992125984252
        },
        {
          "duration": 0.160714218749998,
          "durationTicks": 45,
          "midi": 38,
          "name": "D2",
          "ticks": 7394,
          "time": 26.4071318541667,
          "velocity": 0.62992125984252
        },
        {
          "duration": 0.160714218750002,
          "durationTicks": 45,
          "midi": 53,
          "name": "F3",
          "ticks": 7442,
          "time": 26.5785603541667,
          "velocity": 0.62992125984252
        },
        {
          "duration": 0.160714218750002,
          "durationTicks": 45,
          "midi": 50,
          "name": "D3",
          "ticks": 7442,
          "time": 26.5785603541667,
          "velocity": 0.62992125984252
        },
        {
          "duration": 0.160714218750002,
          "durationTicks": 45,
          "midi": 38,
          "name": "D2",
          "ticks": 7489,
          "time": 26.7464174270833,
          "velocity": 0.62992125984252
        },
        {
          "duration": 0.160714218749998,
          "durationTicks": 45,
          "midi": 53,
          "name": "F3",
          "ticks": 7537,
          "time": 26.9178459270833,
          "velocity": 0.62992125984252
        },
        {
          "duration": 0.160714218749998,
          "durationTicks": 45,
          "midi": 50,
          "name": "D3",
          "ticks": 7537,
          "time": 26.9178459270833,
          "velocity": 0.62992125984252
        },
        {
          "duration": 0.157142791666665,
          "durationTicks": 44,
          "midi": 36,
          "name": "C2",
          "ticks": 7585,
          "time": 27.0892744270833,
          "velocity": 0.62992125984252
        },
        {
          "duration": 0.160714218749998,
          "durationTicks": 45,
          "midi": 52,
          "name": "E3",
          "ticks": 7632,
          "time": 27.2571315,
          "velocity": 0.62992125984252
        },
        {
          "duration": 0.160714218749998,
          "durationTicks": 45,
          "midi": 48,
          "name": "C3",
          "ticks": 7632,
          "time": 27.2571315,
          "velocity": 0.62992125984252
        },
        {
          "duration": 0.171428500000001,
          "durationTicks": 48,
          "midi": 34,
          "name": "A#1",
          "ticks": 7680,
          "time": 27.42856,
          "velocity": 0.62992125984252
        },
        {
          "duration": 0.157142791666665,
          "durationTicks": 44,
          "midi": 46,
          "name": "A#2",
          "ticks": 7731,
          "time": 27.61070278125,
          "velocity": 0.62992125984252
        },
        {
          "duration": 0.157142791666665,
          "durationTicks": 44,
          "midi": 50,
          "name": "D3",
          "ticks": 7731,
          "time": 27.61070278125,
          "velocity": 0.62992125984252
        },
        {
          "duration": 0.160714218750002,
          "durationTicks": 45,
          "midi": 34,
          "name": "A#1",
          "ticks": 7778,
          "time": 27.7785598541667,
          "velocity": 0.62992125984252
        },
        {
          "duration": 0.160714218750002,
          "durationTicks": 45,
          "midi": 46,
          "name": "A#2",
          "ticks": 7826,
          "time": 27.9499883541667,
          "velocity": 0.62992125984252
        },
        {
          "duration": 0.160714218750002,
          "durationTicks": 45,
          "midi": 50,
          "name": "D3",
          "ticks": 7826,
          "time": 27.9499883541667,
          "velocity": 0.62992125984252
        },
        {
          "duration": 0.160714218749998,
          "durationTicks": 45,
          "midi": 34,
          "name": "A#1",
          "ticks": 7873,
          "time": 28.1178454270833,
          "velocity": 0.62992125984252
        },
        {
          "duration": 0.160714218750002,
          "durationTicks": 45,
          "midi": 50,
          "name": "D3",
          "ticks": 7921,
          "time": 28.2892739270833,
          "velocity": 0.62992125984252
        },
        {
          "duration": 0.160714218750002,
          "durationTicks": 45,
          "midi": 46,
          "name": "A#2",
          "ticks": 7921,
          "time": 28.2892739270833,
          "velocity": 0.62992125984252
        },
        {
          "duration": 0.157142791666665,
          "durationTicks": 44,
          "midi": 34,
          "name": "A#1",
          "ticks": 7969,
          "time": 28.4607024270833,
          "velocity": 0.62992125984252
        },
        {
          "duration": 0.160714218750002,
          "durationTicks": 45,
          "midi": 50,
          "name": "D3",
          "ticks": 8016,
          "time": 28.6285595,
          "velocity": 0.637795275590551
        },
        {
          "duration": 0.160714218750002,
          "durationTicks": 45,
          "midi": 46,
          "name": "A#2",
          "ticks": 8016,
          "time": 28.6285595,
          "velocity": 0.637795275590551
        },
        {
          "duration": 0.171428500000001,
          "durationTicks": 48,
          "midi": 34,
          "name": "A#1",
          "ticks": 8064,
          "time": 28.799988,
          "velocity": 0.637795275590551
        },
        {
          "duration": 0.157142791666665,
          "durationTicks": 44,
          "midi": 46,
          "name": "A#2",
          "ticks": 8115,
          "time": 28.98213078125,
          "velocity": 0.637795275590551
        },
        {
          "duration": 0.157142791666665,
          "durationTicks": 44,
          "midi": 50,
          "name": "D3",
          "ticks": 8115,
          "time": 28.98213078125,
          "velocity": 0.637795275590551
        },
        {
          "duration": 0.160714218749998,
          "durationTicks": 45,
          "midi": 34,
          "name": "A#1",
          "ticks": 8162,
          "time": 29.1499878541667,
          "velocity": 0.637795275590551
        },
        {
          "duration": 0.160714218749998,
          "durationTicks": 45,
          "midi": 46,
          "name": "A#2",
          "ticks": 8210,
          "time": 29.3214163541667,
          "velocity": 0.637795275590551
        },
        {
          "duration": 0.160714218749998,
          "durationTicks": 45,
          "midi": 50,
          "name": "D3",
          "ticks": 8210,
          "time": 29.3214163541667,
          "velocity": 0.637795275590551
        },
        {
          "duration": 0.160714218750002,
          "durationTicks": 45,
          "midi": 34,
          "name": "A#1",
          "ticks": 8257,
          "time": 29.4892734270833,
          "velocity": 0.637795275590551
        },
        {
          "duration": 0.160714218749998,
          "durationTicks": 45,
          "midi": 50,
          "name": "D3",
          "ticks": 8305,
          "time": 29.6607019270833,
          "velocity": 0.637795275590551
        },
        {
          "duration": 0.160714218749998,
          "durationTicks": 45,
          "midi": 46,
          "name": "A#2",
          "ticks": 8305,
          "time": 29.6607019270833,
          "velocity": 0.637795275590551
        },
        {
          "duration": 0.157142791666669,
          "durationTicks": 44,
          "midi": 34,
          "name": "A#1",
          "ticks": 8353,
          "time": 29.8321304270833,
          "velocity": 0.637795275590551
        },
        {
          "duration": 0.160714218749998,
          "durationTicks": 45,
          "midi": 50,
          "name": "D3",
          "ticks": 8400,
          "time": 29.9999875,
          "velocity": 0.637795275590551
        },
        {
          "duration": 0.160714218749998,
          "durationTicks": 45,
          "midi": 46,
          "name": "A#2",
          "ticks": 8400,
          "time": 29.9999875,
          "velocity": 0.637795275590551
        },
        {
          "duration": 0.171428500000001,
          "durationTicks": 48,
          "midi": 34,
          "name": "A#1",
          "ticks": 8448,
          "time": 30.171416,
          "velocity": 0.637795275590551
        },
        {
          "duration": 0.157142791666665,
          "durationTicks": 44,
          "midi": 50,
          "name": "D3",
          "ticks": 8499,
          "time": 30.35355878125,
          "velocity": 0.637795275590551
        },
        {
          "duration": 0.157142791666665,
          "durationTicks": 44,
          "midi": 46,
          "name": "A#2",
          "ticks": 8499,
          "time": 30.35355878125,
          "velocity": 0.637795275590551
        },
        {
          "duration": 0.160714218750002,
          "durationTicks": 45,
          "midi": 34,
          "name": "A#1",
          "ticks": 8546,
          "time": 30.5214158541667,
          "velocity": 0.637795275590551
        },
        {
          "duration": 0.160714218750002,
          "durationTicks": 45,
          "midi": 46,
          "name": "A#2",
          "ticks": 8594,
          "time": 30.6928443541667,
          "velocity": 0.637795275590551
        },
        {
          "duration": 0.160714218750002,
          "durationTicks": 45,
          "midi": 50,
          "name": "D3",
          "ticks": 8594,
          "time": 30.6928443541667,
          "velocity": 0.637795275590551
        },
        {
          "duration": 0.160714218749998,
          "durationTicks": 45,
          "midi": 34,
          "name": "A#1",
          "ticks": 8641,
          "time": 30.8607014270833,
          "velocity": 0.637795275590551
        },
        {
          "duration": 0.160714218750002,
          "durationTicks": 45,
          "midi": 50,
          "name": "D3",
          "ticks": 8689,
          "time": 31.0321299270833,
          "velocity": 0.637795275590551
        },
        {
          "duration": 0.160714218750002,
          "durationTicks": 45,
          "midi": 46,
          "name": "A#2",
          "ticks": 8689,
          "time": 31.0321299270833,
          "velocity": 0.637795275590551
        },
        {
          "duration": 0.157142791666665,
          "durationTicks": 44,
          "midi": 34,
          "name": "A#1",
          "ticks": 8737,
          "time": 31.2035584270833,
          "velocity": 0.637795275590551
        },
        {
          "duration": 0.160714218750002,
          "durationTicks": 45,
          "midi": 46,
          "name": "A#2",
          "ticks": 8784,
          "time": 31.3714155,
          "velocity": 0.637795275590551
        },
        {
          "duration": 0.160714218750002,
          "durationTicks": 45,
          "midi": 50,
          "name": "D3",
          "ticks": 8784,
          "time": 31.3714155,
          "velocity": 0.637795275590551
        },
        {
          "duration": 0.171428500000001,
          "durationTicks": 48,
          "midi": 33,
          "name": "A1",
          "ticks": 8832,
          "time": 31.542844,
          "velocity": 0.637795275590551
        },
        {
          "duration": 0.157142791666665,
          "durationTicks": 44,
          "midi": 45,
          "name": "A2",
          "ticks": 8883,
          "time": 31.72498678125,
          "velocity": 0.637795275590551
        },
        {
          "duration": 0.157142791666665,
          "durationTicks": 44,
          "midi": 48,
          "name": "C3",
          "ticks": 8883,
          "time": 31.72498678125,
          "velocity": 0.637795275590551
        },
        {
          "duration": 0.160714218749998,
          "durationTicks": 45,
          "midi": 33,
          "name": "A1",
          "ticks": 8930,
          "time": 31.8928438541667,
          "velocity": 0.637795275590551
        },
        {
          "duration": 0.160714218750002,
          "durationTicks": 45,
          "midi": 48,
          "name": "C3",
          "ticks": 8978,
          "time": 32.0642723541667,
          "velocity": 0.637795275590551
        },
        {
          "duration": 0.160714218750002,
          "durationTicks": 45,
          "midi": 45,
          "name": "A2",
          "ticks": 8978,
          "time": 32.0642723541667,
          "velocity": 0.637795275590551
        },
        {
          "duration": 0.160714218750002,
          "durationTicks": 45,
          "midi": 36,
          "name": "C2",
          "ticks": 9025,
          "time": 32.2321294270833,
          "velocity": 0.637795275590551
        },
        {
          "duration": 0.160714218750002,
          "durationTicks": 45,
          "midi": 48,
          "name": "C3",
          "ticks": 9073,
          "time": 32.4035579270833,
          "velocity": 0.637795275590551
        },
        {
          "duration": 0.157142791666665,
          "durationTicks": 44,
          "midi": 37,
          "name": "C#2",
          "ticks": 9121,
          "time": 32.5749864270833,
          "velocity": 0.637795275590551
        },
        {
          "duration": 0.160714218750002,
          "durationTicks": 45,
          "midi": 49,
          "name": "C#3",
          "ticks": 9168,
          "time": 32.7428435,
          "velocity": 0.637795275590551
        },
        {
          "duration": 0.171428499999998,
          "durationTicks": 48,
          "midi": 38,
          "name": "D2",
          "ticks": 9216,
          "time": 32.914272,
          "velocity": 0.637795275590551
        },
        {
          "duration": 0.157142791666665,
          "durationTicks": 44,
          "midi": 53,
          "name": "F3",
          "ticks": 9267,
          "time": 33.09641478125,
          "velocity": 0.637795275590551
        },
        {
          "duration": 0.157142791666665,
          "durationTicks": 44,
          "midi": 50,
          "name": "D3",
          "ticks": 9267,
          "time": 33.09641478125,
          "velocity": 0.637795275590551
        },
        {
          "duration": 0.160714218750002,
          "durationTicks": 45,
          "midi": 38,
          "name": "D2",
          "ticks": 9314,
          "time": 33.2642718541667,
          "velocity": 0.637795275590551
        },
        {
          "duration": 0.160714218749995,
          "durationTicks": 45,
          "midi": 50,
          "name": "D3",
          "ticks": 9362,
          "time": 33.4357003541667,
          "velocity": 0.637795275590551
        },
        {
          "duration": 0.160714218749995,
          "durationTicks": 45,
          "midi": 53,
          "name": "F3",
          "ticks": 9362,
          "time": 33.4357003541667,
          "velocity": 0.637795275590551
        },
        {
          "duration": 0.160714218750002,
          "durationTicks": 45,
          "midi": 38,
          "name": "D2",
          "ticks": 9409,
          "time": 33.6035574270833,
          "velocity": 0.637795275590551
        },
        {
          "duration": 0.160714218750002,
          "durationTicks": 45,
          "midi": 53,
          "name": "F3",
          "ticks": 9457,
          "time": 33.7749859270833,
          "velocity": 0.637795275590551
        },
        {
          "duration": 0.160714218750002,
          "durationTicks": 45,
          "midi": 50,
          "name": "D3",
          "ticks": 9457,
          "time": 33.7749859270833,
          "velocity": 0.637795275590551
        },
        {
          "duration": 0.157142791666665,
          "durationTicks": 44,
          "midi": 38,
          "name": "D2",
          "ticks": 9505,
          "time": 33.9464144270833,
          "velocity": 0.637795275590551
        },
        {
          "duration": 0.160714218750002,
          "durationTicks": 45,
          "midi": 50,
          "name": "D3",
          "ticks": 9552,
          "time": 34.1142715,
          "velocity": 0.637795275590551
        },
        {
          "duration": 0.160714218750002,
          "durationTicks": 45,
          "midi": 53,
          "name": "F3",
          "ticks": 9552,
          "time": 34.1142715,
          "velocity": 0.637795275590551
        },
        {
          "duration": 0.171428499999998,
          "durationTicks": 48,
          "midi": 38,
          "name": "D2",
          "ticks": 9600,
          "time": 34.2857,
          "velocity": 0.62992125984252
        },
        {
          "duration": 0.157142791666665,
          "durationTicks": 44,
          "midi": 50,
          "name": "D3",
          "ticks": 9651,
          "time": 34.46784278125,
          "velocity": 0.62992125984252
        },
        {
          "duration": 0.157142791666665,
          "durationTicks": 44,
          "midi": 53,
          "name": "F3",
          "ticks": 9651,
          "time": 34.46784278125,
          "velocity": 0.62992125984252
        },
        {
          "duration": 0.160714218750002,
          "durationTicks": 45,
          "midi": 38,
          "name": "D2",
          "ticks": 9698,
          "time": 34.6356998541667,
          "velocity": 0.62992125984252
        },
        {
          "duration": 0.160714218750002,
          "durationTicks": 45,
          "midi": 53,
          "name": "F3",
          "ticks": 9746,
          "time": 34.8071283541667,
          "velocity": 0.62992125984252
        },
        {
          "duration": 0.160714218750002,
          "durationTicks": 45,
          "midi": 50,
          "name": "D3",
          "ticks": 9746,
          "time": 34.8071283541667,
          "velocity": 0.62992125984252
        },
        {
          "duration": 0.160714218749995,
          "durationTicks": 45,
          "midi": 38,
          "name": "D2",
          "ticks": 9793,
          "time": 34.9749854270833,
          "velocity": 0.62992125984252
        },
        {
          "duration": 0.160714218750002,
          "durationTicks": 45,
          "midi": 50,
          "name": "D3",
          "ticks": 9841,
          "time": 35.1464139270833,
          "velocity": 0.62992125984252
        },
        {
          "duration": 0.160714218750002,
          "durationTicks": 45,
          "midi": 53,
          "name": "F3",
          "ticks": 9841,
          "time": 35.1464139270833,
          "velocity": 0.62992125984252
        },
        {
          "duration": 0.157142791666665,
          "durationTicks": 44,
          "midi": 38,
          "name": "D2",
          "ticks": 9889,
          "time": 35.3178424270833,
          "velocity": 0.62992125984252
        },
        {
          "duration": 0.160714218750002,
          "durationTicks": 45,
          "midi": 53,
          "name": "F3",
          "ticks": 9936,
          "time": 35.4856995,
          "velocity": 0.62992125984252
        },
        {
          "duration": 0.160714218750002,
          "durationTicks": 45,
          "midi": 50,
          "name": "D3",
          "ticks": 9936,
          "time": 35.4856995,
          "velocity": 0.62992125984252
        },
        {
          "duration": 0.171428500000005,
          "durationTicks": 48,
          "midi": 38,
          "name": "D2",
          "ticks": 9984,
          "time": 35.657128,
          "velocity": 0.62992125984252
        },
        {
          "duration": 0.157142791666665,
          "durationTicks": 44,
          "midi": 53,
          "name": "F3",
          "ticks": 10035,
          "time": 35.83927078125,
          "velocity": 0.62992125984252
        },
        {
          "duration": 0.157142791666665,
          "durationTicks": 44,
          "midi": 50,
          "name": "D3",
          "ticks": 10035,
          "time": 35.83927078125,
          "velocity": 0.62992125984252
        },
        {
          "duration": 0.160714218750002,
          "durationTicks": 45,
          "midi": 38,
          "name": "D2",
          "ticks": 10082,
          "time": 36.0071278541667,
          "velocity": 0.62992125984252
        },
        {
          "duration": 0.160714218750002,
          "durationTicks": 45,
          "midi": 50,
          "name": "D3",
          "ticks": 10130,
          "time": 36.1785563541667,
          "velocity": 0.62992125984252
        },
        {
          "duration": 0.160714218750002,
          "durationTicks": 45,
          "midi": 53,
          "name": "F3",
          "ticks": 10130,
          "time": 36.1785563541667,
          "velocity": 0.62992125984252
        },
        {
          "duration": 0.160714218750002,
          "durationTicks": 45,
          "midi": 38,
          "name": "D2",
          "ticks": 10177,
          "time": 36.3464134270833,
          "velocity": 0.62992125984252
        },
        {
          "duration": 0.160714218750002,
          "durationTicks": 45,
          "midi": 50,
          "name": "D3",
          "ticks": 10225,
          "time": 36.5178419270833,
          "velocity": 0.62992125984252
        },
        {
          "duration": 0.160714218750002,
          "durationTicks": 45,
          "midi": 53,
          "name": "F3",
          "ticks": 10225,
          "time": 36.5178419270833,
          "velocity": 0.62992125984252
        },
        {
          "duration": 0.157142791666665,
          "durationTicks": 44,
          "midi": 38,
          "name": "D2",
          "ticks": 10273,
          "time": 36.6892704270833,
          "velocity": 0.62992125984252
        },
        {
          "duration": 0.160714218750002,
          "durationTicks": 45,
          "midi": 53,
          "name": "F3",
          "ticks": 10320,
          "time": 36.8571275,
          "velocity": 0.62992125984252
        },
        {
          "duration": 0.160714218750002,
          "durationTicks": 45,
          "midi": 50,
          "name": "D3",
          "ticks": 10320,
          "time": 36.8571275,
          "velocity": 0.62992125984252
        },
        {
          "duration": 0.171428499999998,
          "durationTicks": 48,
          "midi": 38,
          "name": "D2",
          "ticks": 10368,
          "time": 37.028556,
          "velocity": 0.62992125984252
        },
        {
          "duration": 0.157142791666665,
          "durationTicks": 44,
          "midi": 53,
          "name": "F3",
          "ticks": 10419,
          "time": 37.21069878125,
          "velocity": 0.62992125984252
        },
        {
          "duration": 0.157142791666665,
          "durationTicks": 44,
          "midi": 50,
          "name": "D3",
          "ticks": 10419,
          "time": 37.21069878125,
          "velocity": 0.62992125984252
        },
        {
          "duration": 0.160714218749995,
          "durationTicks": 45,
          "midi": 38,
          "name": "D2",
          "ticks": 10466,
          "time": 37.3785558541667,
          "velocity": 0.62992125984252
        },
        {
          "duration": 0.160714218750002,
          "durationTicks": 45,
          "midi": 50,
          "name": "D3",
          "ticks": 10514,
          "time": 37.5499843541667,
          "velocity": 0.62992125984252
        },
        {
          "duration": 0.160714218750002,
          "durationTicks": 45,
          "midi": 53,
          "name": "F3",
          "ticks": 10514,
          "time": 37.5499843541667,
          "velocity": 0.62992125984252
        },
        {
          "duration": 0.160714218750002,
          "durationTicks": 45,
          "midi": 38,
          "name": "D2",
          "ticks": 10561,
          "time": 37.7178414270833,
          "velocity": 0.62992125984252
        },
        {
          "duration": 0.160714218749995,
          "durationTicks": 45,
          "midi": 50,
          "name": "D3",
          "ticks": 10609,
          "time": 37.8892699270833,
          "velocity": 0.62992125984252
        },
        {
          "duration": 0.160714218749995,
          "durationTicks": 45,
          "midi": 53,
          "name": "F3",
          "ticks": 10609,
          "time": 37.8892699270833,
          "velocity": 0.62992125984252
        },
        {
          "duration": 0.157142791666665,
          "durationTicks": 44,
          "midi": 36,
          "name": "C2",
          "ticks": 10657,
          "time": 38.0606984270833,
          "velocity": 0.62992125984252
        },
        {
          "duration": 0.160714218749995,
          "durationTicks": 45,
          "midi": 48,
          "name": "C3",
          "ticks": 10704,
          "time": 38.2285555,
          "velocity": 0.62992125984252
        },
        {
          "duration": 0.160714218749995,
          "durationTicks": 45,
          "midi": 52,
          "name": "E3",
          "ticks": 10704,
          "time": 38.2285555,
          "velocity": 0.62992125984252
        },
        {
          "duration": 0.171428499999998,
          "durationTicks": 48,
          "midi": 34,
          "name": "A#1",
          "ticks": 10752,
          "time": 38.399984,
          "velocity": 0.62992125984252
        },
        {
          "duration": 0.157142791666665,
          "durationTicks": 44,
          "midi": 46,
          "name": "A#2",
          "ticks": 10803,
          "time": 38.58212678125,
          "velocity": 0.62992125984252
        },
        {
          "duration": 0.157142791666665,
          "durationTicks": 44,
          "midi": 50,
          "name": "D3",
          "ticks": 10803,
          "time": 38.58212678125,
          "velocity": 0.62992125984252
        },
        {
          "duration": 0.160714218750002,
          "durationTicks": 45,
          "midi": 34,
          "name": "A#1",
          "ticks": 10850,
          "time": 38.7499838541667,
          "velocity": 0.62992125984252
        },
        {
          "duration": 0.160714218750002,
          "durationTicks": 45,
          "midi": 50,
          "name": "D3",
          "ticks": 10898,
          "time": 38.9214123541667,
          "velocity": 0.62992125984252
        },
        {
          "duration": 0.160714218750002,
          "durationTicks": 45,
          "midi": 46,
          "name": "A#2",
          "ticks": 10898,
          "time": 38.9214123541667,
          "velocity": 0.62992125984252
        },
        {
          "duration": 0.160714218750002,
          "durationTicks": 45,
          "midi": 34,
          "name": "A#1",
          "ticks": 10945,
          "time": 39.0892694270833,
          "velocity": 0.62992125984252
        },
        {
          "duration": 0.160714218750002,
          "durationTicks": 45,
          "midi": 46,
          "name": "A#2",
          "ticks": 10993,
          "time": 39.2606979270833,
          "velocity": 0.62992125984252
        },
        {
          "duration": 0.160714218750002,
          "durationTicks": 45,
          "midi": 50,
          "name": "D3",
          "ticks": 10993,
          "time": 39.2606979270833,
          "velocity": 0.62992125984252
        },
        {
          "duration": 0.157142791666665,
          "durationTicks": 44,
          "midi": 34,
          "name": "A#1",
          "ticks": 11041,
          "time": 39.4321264270833,
          "velocity": 0.62992125984252
        },
        {
          "duration": 0.160714218750002,
          "durationTicks": 45,
          "midi": 46,
          "name": "A#2",
          "ticks": 11088,
          "time": 39.5999835,
          "velocity": 0.62992125984252
        },
        {
          "duration": 0.160714218750002,
          "durationTicks": 45,
          "midi": 50,
          "name": "D3",
          "ticks": 11088,
          "time": 39.5999835,
          "velocity": 0.62992125984252
        },
        {
          "duration": 0.171428499999998,
          "durationTicks": 48,
          "midi": 34,
          "name": "A#1",
          "ticks": 11136,
          "time": 39.771412,
          "velocity": 0.62992125984252
        },
        {
          "duration": 0.157142791666665,
          "durationTicks": 44,
          "midi": 50,
          "name": "D3",
          "ticks": 11187,
          "time": 39.95355478125,
          "velocity": 0.62992125984252
        },
        {
          "duration": 0.157142791666665,
          "durationTicks": 44,
          "midi": 46,
          "name": "A#2",
          "ticks": 11187,
          "time": 39.95355478125,
          "velocity": 0.62992125984252
        },
        {
          "duration": 0.160714218750002,
          "durationTicks": 45,
          "midi": 34,
          "name": "A#1",
          "ticks": 11234,
          "time": 40.1214118541667,
          "velocity": 0.62992125984252
        },
        {
          "duration": 0.160714218749995,
          "durationTicks": 45,
          "midi": 46,
          "name": "A#2",
          "ticks": 11282,
          "time": 40.2928403541667,
          "velocity": 0.62992125984252
        },
        {
          "duration": 0.160714218749995,
          "durationTicks": 45,
          "midi": 50,
          "name": "D3",
          "ticks": 11282,
          "time": 40.2928403541667,
          "velocity": 0.62992125984252
        },
        {
          "duration": 0.160714218750002,
          "durationTicks": 45,
          "midi": 34,
          "name": "A#1",
          "ticks": 11329,
          "time": 40.4606974270833,
          "velocity": 0.62992125984252
        },
        {
          "duration": 0.160714218750002,
          "durationTicks": 45,
          "midi": 46,
          "name": "A#2",
          "ticks": 11377,
          "time": 40.6321259270833,
          "velocity": 0.62992125984252
        },
        {
          "duration": 0.160714218750002,
          "durationTicks": 45,
          "midi": 50,
          "name": "D3",
          "ticks": 11377,
          "time": 40.6321259270833,
          "velocity": 0.62992125984252
        },
        {
          "duration": 0.157142791666672,
          "durationTicks": 44,
          "midi": 34,
          "name": "A#1",
          "ticks": 11425,
          "time": 40.8035544270833,
          "velocity": 0.62992125984252
        },
        {
          "duration": 0.160714218750002,
          "durationTicks": 45,
          "midi": 46,
          "name": "A#2",
          "ticks": 11472,
          "time": 40.9714115,
          "velocity": 0.62992125984252
        },
        {
          "duration": 0.160714218750002,
          "durationTicks": 45,
          "midi": 50,
          "name": "D3",
          "ticks": 11472,
          "time": 40.9714115,
          "velocity": 0.62992125984252
        },
        {
          "duration": 0.0928571041666686,
          "durationTicks": 26,
          "midi": 39,
          "name": "D#2",
          "ticks": 11520,
          "time": 41.14284,
          "velocity": 0.62992125984252
        },
        {
          "duration": 0.0928571041666686,
          "durationTicks": 26,
          "midi": 51,
          "name": "D#3",
          "ticks": 11520,
          "time": 41.14284,
          "velocity": 0.62992125984252
        },
        {
          "duration": 0.0785713958333361,
          "durationTicks": 22,
          "midi": 51,
          "name": "D#3",
          "ticks": 11547,
          "time": 41.23926853125,
          "velocity": 0.62992125984252
        },
        {
          "duration": 0.0785713958333361,
          "durationTicks": 22,
          "midi": 39,
          "name": "D#2",
          "ticks": 11547,
          "time": 41.23926853125,
          "velocity": 0.62992125984252
        },
        {
          "duration": 0.0821428229166727,
          "durationTicks": 23,
          "midi": 50,
          "name": "D3",
          "ticks": 11594,
          "time": 41.4071256041667,
          "velocity": 0.62992125984252
        },
        {
          "duration": 0.0821428229166727,
          "durationTicks": 23,
          "midi": 38,
          "name": "D2",
          "ticks": 11594,
          "time": 41.4071256041667,
          "velocity": 0.62992125984252
        },
        {
          "duration": 0.0821428229166727,
          "durationTicks": 23,
          "midi": 50,
          "name": "D3",
          "ticks": 11618,
          "time": 41.4928398541667,
          "velocity": 0.62992125984252
        },
        {
          "duration": 0.0821428229166727,
          "durationTicks": 23,
          "midi": 38,
          "name": "D2",
          "ticks": 11618,
          "time": 41.4928398541667,
          "velocity": 0.62992125984252
        },
        {
          "duration": 0.0749999687499994,
          "durationTicks": 21,
          "midi": 48,
          "name": "C3",
          "ticks": 11666,
          "time": 41.6642683541667,
          "velocity": 0.62992125984252
        },
        {
          "duration": 0.0749999687499994,
          "durationTicks": 21,
          "midi": 36,
          "name": "C2",
          "ticks": 11666,
          "time": 41.6642683541667,
          "velocity": 0.62992125984252
        },
        {
          "duration": 0.0821428229166656,
          "durationTicks": 23,
          "midi": 48,
          "name": "C3",
          "ticks": 11689,
          "time": 41.7464111770833,
          "velocity": 0.62992125984252
        },
        {
          "duration": 0.0821428229166656,
          "durationTicks": 23,
          "midi": 36,
          "name": "C2",
          "ticks": 11689,
          "time": 41.7464111770833,
          "velocity": 0.62992125984252
        },
        {
          "duration": 0.160714218750002,
          "durationTicks": 45,
          "midi": 38,
          "name": "D2",
          "ticks": 11761,
          "time": 42.0035539270833,
          "velocity": 0.637795275590551
        },
        {
          "duration": 0.160714218750002,
          "durationTicks": 45,
          "midi": 50,
          "name": "D3",
          "ticks": 11761,
          "time": 42.0035539270833,
          "velocity": 0.637795275590551
        },
        {
          "duration": 0.157142791666665,
          "durationTicks": 44,
          "midi": 39,
          "name": "D#2",
          "ticks": 11809,
          "time": 42.1749824270833,
          "velocity": 0.637795275590551
        },
        {
          "duration": 0.157142791666665,
          "durationTicks": 44,
          "midi": 51,
          "name": "D#3",
          "ticks": 11809,
          "time": 42.1749824270833,
          "velocity": 0.637795275590551
        },
        {
          "duration": 0.160714218750002,
          "durationTicks": 45,
          "midi": 48,
          "name": "C3",
          "ticks": 11856,
          "time": 42.3428395,
          "velocity": 0.637795275590551
        },
        {
          "duration": 0.160714218750002,
          "durationTicks": 45,
          "midi": 36,
          "name": "C2",
          "ticks": 11856,
          "time": 42.3428395,
          "velocity": 0.637795275590551
        },
        {
          "duration": 0.171428500000005,
          "durationTicks": 48,
          "midi": 38,
          "name": "D2",
          "ticks": 11904,
          "time": 42.514268,
          "velocity": 0.637795275590551
        },
        {
          "duration": 0.171428500000005,
          "durationTicks": 48,
          "midi": 50,
          "name": "D3",
          "ticks": 11904,
          "time": 42.514268,
          "velocity": 0.637795275590551
        },
        {
          "duration": 0.157142791666665,
          "durationTicks": 44,
          "midi": 50,
          "name": "D3",
          "ticks": 11955,
          "time": 42.69641078125,
          "velocity": 0.637795275590551
        },
        {
          "duration": 0.157142791666665,
          "durationTicks": 44,
          "midi": 38,
          "name": "D2",
          "ticks": 11955,
          "time": 42.69641078125,
          "velocity": 0.637795275590551
        },
        {
          "duration": 0.160714218750002,
          "durationTicks": 45,
          "midi": 38,
          "name": "D2",
          "ticks": 12002,
          "time": 42.8642678541667,
          "velocity": 0.637795275590551
        },
        {
          "duration": 0.160714218750002,
          "durationTicks": 45,
          "midi": 50,
          "name": "D3",
          "ticks": 12002,
          "time": 42.8642678541667,
          "velocity": 0.637795275590551
        },
        {
          "duration": 0.0749999687499994,
          "durationTicks": 21,
          "midi": 36,
          "name": "C2",
          "ticks": 12050,
          "time": 43.0356963541667,
          "velocity": 0.700787401574803
        },
        {
          "duration": 0.0749999687499994,
          "durationTicks": 21,
          "midi": 48,
          "name": "C3",
          "ticks": 12050,
          "time": 43.0356963541667,
          "velocity": 0.700787401574803
        },
        {
          "duration": 0.0821428229166656,
          "durationTicks": 23,
          "midi": 38,
          "name": "D2",
          "ticks": 12073,
          "time": 43.1178391770833,
          "velocity": 0.637795275590551
        },
        {
          "duration": 0.0821428229166656,
          "durationTicks": 23,
          "midi": 50,
          "name": "D3",
          "ticks": 12073,
          "time": 43.1178391770833,
          "velocity": 0.637795275590551
        },
        {
          "duration": 0.171428499999998,
          "durationTicks": 48,
          "midi": 53,
          "name": "F3",
          "ticks": 12288,
          "time": 43.885696,
          "velocity": 0.598425196850394
        },
        {
          "duration": 0.171428499999998,
          "durationTicks": 48,
          "midi": 38,
          "name": "D2",
          "ticks": 12288,
          "time": 43.885696,
          "velocity": 0.598425196850394
        },
        {
          "duration": 0.157142791666672,
          "durationTicks": 44,
          "midi": 53,
          "name": "F3",
          "ticks": 12339,
          "time": 44.06783878125,
          "velocity": 0.598425196850394
        },
        {
          "duration": 0.157142791666672,
          "durationTicks": 44,
          "midi": 50,
          "name": "D3",
          "ticks": 12339,
          "time": 44.06783878125,
          "velocity": 0.598425196850394
        },
        {
          "duration": 0.160714218750002,
          "durationTicks": 45,
          "midi": 38,
          "name": "D2",
          "ticks": 12386,
          "time": 44.2356958541667,
          "velocity": 0.598425196850394
        },
        {
          "duration": 0.160714218749995,
          "durationTicks": 45,
          "midi": 50,
          "name": "D3",
          "ticks": 12434,
          "time": 44.4071243541667,
          "velocity": 0.598425196850394
        },
        {
          "duration": 0.160714218749995,
          "durationTicks": 45,
          "midi": 53,
          "name": "F3",
          "ticks": 12434,
          "time": 44.4071243541667,
          "velocity": 0.598425196850394
        },
        {
          "duration": 0.160714218750002,
          "durationTicks": 45,
          "midi": 38,
          "name": "D2",
          "ticks": 12481,
          "time": 44.5749814270833,
          "velocity": 0.598425196850394
        },
        {
          "duration": 0.160714218750002,
          "durationTicks": 45,
          "midi": 53,
          "name": "F3",
          "ticks": 12529,
          "time": 44.7464099270833,
          "velocity": 0.598425196850394
        },
        {
          "duration": 0.160714218750002,
          "durationTicks": 45,
          "midi": 50,
          "name": "D3",
          "ticks": 12529,
          "time": 44.7464099270833,
          "velocity": 0.598425196850394
        },
        {
          "duration": 0.157142791666672,
          "durationTicks": 44,
          "midi": 38,
          "name": "D2",
          "ticks": 12577,
          "time": 44.9178384270833,
          "velocity": 0.598425196850394
        },
        {
          "duration": 0.160714218750002,
          "durationTicks": 45,
          "midi": 53,
          "name": "F3",
          "ticks": 12624,
          "time": 45.0856955,
          "velocity": 0.598425196850394
        },
        {
          "duration": 0.160714218750002,
          "durationTicks": 45,
          "midi": 50,
          "name": "D3",
          "ticks": 12624,
          "time": 45.0856955,
          "velocity": 0.598425196850394
        },
        {
          "duration": 0.171428499999998,
          "durationTicks": 48,
          "midi": 33,
          "name": "A1",
          "ticks": 12672,
          "time": 45.257124,
          "velocity": 0.598425196850394
        },
        {
          "duration": 0.157142791666665,
          "durationTicks": 44,
          "midi": 45,
          "name": "A2",
          "ticks": 12723,
          "time": 45.43926678125,
          "velocity": 0.598425196850394
        },
        {
          "duration": 0.157142791666665,
          "durationTicks": 44,
          "midi": 48,
          "name": "C3",
          "ticks": 12723,
          "time": 45.43926678125,
          "velocity": 0.598425196850394
        },
        {
          "duration": 0.160714218750002,
          "durationTicks": 45,
          "midi": 33,
          "name": "A1",
          "ticks": 12770,
          "time": 45.6071238541667,
          "velocity": 0.598425196850394
        },
        {
          "duration": 0.160714218750002,
          "durationTicks": 45,
          "midi": 45,
          "name": "A2",
          "ticks": 12818,
          "time": 45.7785523541667,
          "velocity": 0.598425196850394
        },
        {
          "duration": 0.160714218750002,
          "durationTicks": 45,
          "midi": 48,
          "name": "C3",
          "ticks": 12818,
          "time": 45.7785523541667,
          "velocity": 0.598425196850394
        },
        {
          "duration": 0.160714218750002,
          "durationTicks": 45,
          "midi": 33,
          "name": "A1",
          "ticks": 12865,
          "time": 45.9464094270833,
          "velocity": 0.598425196850394
        },
        {
          "duration": 0.160714218749995,
          "durationTicks": 45,
          "midi": 48,
          "name": "C3",
          "ticks": 12913,
          "time": 46.1178379270833,
          "velocity": 0.598425196850394
        },
        {
          "duration": 0.160714218749995,
          "durationTicks": 45,
          "midi": 45,
          "name": "A2",
          "ticks": 12913,
          "time": 46.1178379270833,
          "velocity": 0.598425196850394
        },
        {
          "duration": 0.157142791666672,
          "durationTicks": 44,
          "midi": 33,
          "name": "A1",
          "ticks": 12961,
          "time": 46.2892664270833,
          "velocity": 0.598425196850394
        },
        {
          "duration": 0.160714218750002,
          "durationTicks": 45,
          "midi": 45,
          "name": "A2",
          "ticks": 13008,
          "time": 46.4571235,
          "velocity": 0.598425196850394
        },
        {
          "duration": 0.160714218750002,
          "durationTicks": 45,
          "midi": 48,
          "name": "C3",
          "ticks": 13008,
          "time": 46.4571235,
          "velocity": 0.598425196850394
        },
        {
          "duration": 0.171428499999998,
          "durationTicks": 48,
          "midi": 34,
          "name": "A#1",
          "ticks": 13056,
          "time": 46.628552,
          "velocity": 0.598425196850394
        },
        {
          "duration": 0.157142791666672,
          "durationTicks": 44,
          "midi": 50,
          "name": "D3",
          "ticks": 13107,
          "time": 46.81069478125,
          "velocity": 0.598425196850394
        },
        {
          "duration": 0.157142791666672,
          "durationTicks": 44,
          "midi": 46,
          "name": "A#2",
          "ticks": 13107,
          "time": 46.81069478125,
          "velocity": 0.598425196850394
        },
        {
          "duration": 0.160714218750002,
          "durationTicks": 45,
          "midi": 34,
          "name": "A#1",
          "ticks": 13154,
          "time": 46.9785518541667,
          "velocity": 0.598425196850394
        },
        {
          "duration": 0.160714218750002,
          "durationTicks": 45,
          "midi": 50,
          "name": "D3",
          "ticks": 13202,
          "time": 47.1499803541667,
          "velocity": 0.598425196850394
        },
        {
          "duration": 0.160714218750002,
          "durationTicks": 45,
          "midi": 46,
          "name": "A#2",
          "ticks": 13202,
          "time": 47.1499803541667,
          "velocity": 0.598425196850394
        },
        {
          "duration": 0.160714218750002,
          "durationTicks": 45,
          "midi": 34,
          "name": "A#1",
          "ticks": 13249,
          "time": 47.3178374270833,
          "velocity": 0.598425196850394
        },
        {
          "duration": 0.160714218750002,
          "durationTicks": 45,
          "midi": 46,
          "name": "A#2",
          "ticks": 13297,
          "time": 47.4892659270833,
          "velocity": 0.598425196850394
        },
        {
          "duration": 0.160714218750002,
          "durationTicks": 45,
          "midi": 50,
          "name": "D3",
          "ticks": 13297,
          "time": 47.4892659270833,
          "velocity": 0.598425196850394
        },
        {
          "duration": 0.157142791666665,
          "durationTicks": 44,
          "midi": 34,
          "name": "A#1",
          "ticks": 13345,
          "time": 47.6606944270833,
          "velocity": 0.598425196850394
        },
        {
          "duration": 0.160714218750002,
          "durationTicks": 45,
          "midi": 50,
          "name": "D3",
          "ticks": 13392,
          "time": 47.8285515,
          "velocity": 0.598425196850394
        },
        {
          "duration": 0.160714218750002,
          "durationTicks": 45,
          "midi": 46,
          "name": "A#2",
          "ticks": 13392,
          "time": 47.8285515,
          "velocity": 0.598425196850394
        },
        {
          "duration": 0.171428500000005,
          "durationTicks": 48,
          "midi": 36,
          "name": "C2",
          "ticks": 13440,
          "time": 47.99998,
          "velocity": 0.598425196850394
        },
        {
          "duration": 0.157142791666672,
          "durationTicks": 44,
          "midi": 52,
          "name": "E3",
          "ticks": 13491,
          "time": 48.18212278125,
          "velocity": 0.598425196850394
        },
        {
          "duration": 0.157142791666672,
          "durationTicks": 44,
          "midi": 48,
          "name": "C3",
          "ticks": 13491,
          "time": 48.18212278125,
          "velocity": 0.598425196850394
        },
        {
          "duration": 0.160714218749995,
          "durationTicks": 45,
          "midi": 36,
          "name": "C2",
          "ticks": 13538,
          "time": 48.3499798541667,
          "velocity": 0.598425196850394
        },
        {
          "duration": 0.160714218750002,
          "durationTicks": 45,
          "midi": 52,
          "name": "E3",
          "ticks": 13586,
          "time": 48.5214083541667,
          "velocity": 0.598425196850394
        },
        {
          "duration": 0.160714218750002,
          "durationTicks": 45,
          "midi": 48,
          "name": "C3",
          "ticks": 13586,
          "time": 48.5214083541667,
          "velocity": 0.598425196850394
        },
        {
          "duration": 0.160714218750002,
          "durationTicks": 45,
          "midi": 36,
          "name": "C2",
          "ticks": 13633,
          "time": 48.6892654270833,
          "velocity": 0.598425196850394
        },
        {
          "duration": 0.160714218750002,
          "durationTicks": 45,
          "midi": 52,
          "name": "E3",
          "ticks": 13681,
          "time": 48.8606939270833,
          "velocity": 0.598425196850394
        },
        {
          "duration": 0.160714218750002,
          "durationTicks": 45,
          "midi": 48,
          "name": "C3",
          "ticks": 13681,
          "time": 48.8606939270833,
          "velocity": 0.598425196850394
        },
        {
          "duration": 0.157142791666665,
          "durationTicks": 44,
          "midi": 36,
          "name": "C2",
          "ticks": 13729,
          "time": 49.0321224270833,
          "velocity": 0.598425196850394
        },
        {
          "duration": 0.160714218750002,
          "durationTicks": 45,
          "midi": 52,
          "name": "E3",
          "ticks": 13776,
          "time": 49.1999795,
          "velocity": 0.606299212598425
        },
        {
          "duration": 0.160714218750002,
          "durationTicks": 45,
          "midi": 48,
          "name": "C3",
          "ticks": 13776,
          "time": 49.1999795,
          "velocity": 0.606299212598425
        },
        {
          "duration": 0.171428499999998,
          "durationTicks": 48,
          "midi": 38,
          "name": "D2",
          "ticks": 13824,
          "time": 49.371408,
          "velocity": 0.606299212598425
        },
        {
          "duration": 0.157142791666672,
          "durationTicks": 44,
          "midi": 53,
          "name": "F3",
          "ticks": 13875,
          "time": 49.55355078125,
          "velocity": 0.606299212598425
        },
        {
          "duration": 0.157142791666672,
          "durationTicks": 44,
          "midi": 50,
          "name": "D3",
          "ticks": 13875,
          "time": 49.55355078125,
          "velocity": 0.606299212598425
        },
        {
          "duration": 0.160714218750002,
          "durationTicks": 45,
          "midi": 38,
          "name": "D2",
          "ticks": 13922,
          "time": 49.7214078541667,
          "velocity": 0.606299212598425
        },
        {
          "duration": 0.160714218749995,
          "durationTicks": 45,
          "midi": 50,
          "name": "D3",
          "ticks": 13970,
          "time": 49.8928363541667,
          "velocity": 0.606299212598425
        },
        {
          "duration": 0.160714218749995,
          "durationTicks": 45,
          "midi": 53,
          "name": "F3",
          "ticks": 13970,
          "time": 49.8928363541667,
          "velocity": 0.606299212598425
        },
        {
          "duration": 0.160714218749995,
          "durationTicks": 45,
          "midi": 38,
          "name": "D2",
          "ticks": 14017,
          "time": 50.0606934270833,
          "velocity": 0.606299212598425
        },
        {
          "duration": 0.160714218750002,
          "durationTicks": 45,
          "midi": 53,
          "name": "F3",
          "ticks": 14065,
          "time": 50.2321219270833,
          "velocity": 0.606299212598425
        },
        {
          "duration": 0.160714218750002,
          "durationTicks": 45,
          "midi": 50,
          "name": "D3",
          "ticks": 14065,
          "time": 50.2321219270833,
          "velocity": 0.606299212598425
        },
        {
          "duration": 0.157142791666672,
          "durationTicks": 44,
          "midi": 38,
          "name": "D2",
          "ticks": 14113,
          "time": 50.4035504270833,
          "velocity": 0.606299212598425
        },
        {
          "duration": 0.160714218749995,
          "durationTicks": 45,
          "midi": 53,
          "name": "F3",
          "ticks": 14160,
          "time": 50.5714075,
          "velocity": 0.606299212598425
        },
        {
          "duration": 0.160714218749995,
          "durationTicks": 45,
          "midi": 50,
          "name": "D3",
          "ticks": 14160,
          "time": 50.5714075,
          "velocity": 0.606299212598425
        },
        {
          "duration": 0.171428499999998,
          "durationTicks": 48,
          "midi": 33,
          "name": "A1",
          "ticks": 14208,
          "time": 50.742836,
          "velocity": 0.606299212598425
        },
        {
          "duration": 0.157142791666672,
          "durationTicks": 44,
          "midi": 48,
          "name": "C3",
          "ticks": 14259,
          "time": 50.92497878125,
          "velocity": 0.606299212598425
        },
        {
          "duration": 0.157142791666672,
          "durationTicks": 44,
          "midi": 45,
          "name": "A2",
          "ticks": 14259,
          "time": 50.92497878125,
          "velocity": 0.606299212598425
        },
        {
          "duration": 0.160714218750002,
          "durationTicks": 45,
          "midi": 33,
          "name": "A1",
          "ticks": 14306,
          "time": 51.0928358541667,
          "velocity": 0.606299212598425
        },
        {
          "duration": 0.160714218750002,
          "durationTicks": 45,
          "midi": 45,
          "name": "A2",
          "ticks": 14354,
          "time": 51.2642643541667,
          "velocity": 0.606299212598425
        },
        {
          "duration": 0.160714218750002,
          "durationTicks": 45,
          "midi": 48,
          "name": "C3",
          "ticks": 14354,
          "time": 51.2642643541667,
          "velocity": 0.606299212598425
        },
        {
          "duration": 0.160714218750002,
          "durationTicks": 45,
          "midi": 33,
          "name": "A1",
          "ticks": 14401,
          "time": 51.4321214270833,
          "velocity": 0.606299212598425
        },
        {
          "duration": 0.160714218749995,
          "durationTicks": 45,
          "midi": 48,
          "name": "C3",
          "ticks": 14449,
          "time": 51.6035499270833,
          "velocity": 0.606299212598425
        },
        {
          "duration": 0.160714218749995,
          "durationTicks": 45,
          "midi": 45,
          "name": "A2",
          "ticks": 14449,
          "time": 51.6035499270833,
          "velocity": 0.606299212598425
        },
        {
          "duration": 0.157142791666672,
          "durationTicks": 44,
          "midi": 33,
          "name": "A1",
          "ticks": 14497,
          "time": 51.7749784270833,
          "velocity": 0.606299212598425
        },
        {
          "duration": 0.160714218750002,
          "durationTicks": 45,
          "midi": 48,
          "name": "C3",
          "ticks": 14544,
          "time": 51.9428355,
          "velocity": 0.606299212598425
        },
        {
          "duration": 0.160714218750002,
          "durationTicks": 45,
          "midi": 45,
          "name": "A2",
          "ticks": 14544,
          "time": 51.9428355,
          "velocity": 0.606299212598425
        },
        {
          "duration": 0.171428499999998,
          "durationTicks": 48,
          "midi": 34,
          "name": "A#1",
          "ticks": 14592,
          "time": 52.114264,
          "velocity": 0.606299212598425
        },
        {
          "duration": 0.157142791666665,
          "durationTicks": 44,
          "midi": 46,
          "name": "A#2",
          "ticks": 14643,
          "time": 52.29640678125,
          "velocity": 0.606299212598425
        },
        {
          "duration": 0.157142791666665,
          "durationTicks": 44,
          "midi": 50,
          "name": "D3",
          "ticks": 14643,
          "time": 52.29640678125,
          "velocity": 0.606299212598425
        },
        {
          "duration": 0.160714218750002,
          "durationTicks": 45,
          "midi": 34,
          "name": "A#1",
          "ticks": 14690,
          "time": 52.4642638541667,
          "velocity": 0.606299212598425
        },
        {
          "duration": 0.160714218750002,
          "durationTicks": 45,
          "midi": 46,
          "name": "A#2",
          "ticks": 14738,
          "time": 52.6356923541667,
          "velocity": 0.606299212598425
        },
        {
          "duration": 0.160714218750002,
          "durationTicks": 45,
          "midi": 50,
          "name": "D3",
          "ticks": 14738,
          "time": 52.6356923541667,
          "velocity": 0.606299212598425
        },
        {
          "duration": 0.160714218750002,
          "durationTicks": 45,
          "midi": 36,
          "name": "C2",
          "ticks": 14785,
          "time": 52.8035494270833,
          "velocity": 0.606299212598425
        },
        {
          "duration": 0.160714218750002,
          "durationTicks": 45,
          "midi": 48,
          "name": "C3",
          "ticks": 14833,
          "time": 52.9749779270833,
          "velocity": 0.606299212598425
        },
        {
          "duration": 0.160714218750002,
          "durationTicks": 45,
          "midi": 52,
          "name": "E3",
          "ticks": 14833,
          "time": 52.9749779270833,
          "velocity": 0.606299212598425
        },
        {
          "duration": 0.157142791666672,
          "durationTicks": 44,
          "midi": 36,
          "name": "C2",
          "ticks": 14881,
          "time": 53.1464064270833,
          "velocity": 0.614173228346457
        },
        {
          "duration": 0.160714218750002,
          "durationTicks": 45,
          "midi": 52,
          "name": "E3",
          "ticks": 14928,
          "time": 53.3142635,
          "velocity": 0.614173228346457
        },
        {
          "duration": 0.160714218750002,
          "durationTicks": 45,
          "midi": 48,
          "name": "C3",
          "ticks": 14928,
          "time": 53.3142635,
          "velocity": 0.614173228346457
        },
        {
          "duration": 0.171428500000005,
          "durationTicks": 48,
          "midi": 38,
          "name": "D2",
          "ticks": 14976,
          "time": 53.485692,
          "velocity": 0.614173228346457
        },
        {
          "duration": 0.157142791666672,
          "durationTicks": 44,
          "midi": 54,
          "name": "F#3",
          "ticks": 15027,
          "time": 53.66783478125,
          "velocity": 0.614173228346457
        },
        {
          "duration": 0.157142791666672,
          "durationTicks": 44,
          "midi": 50,
          "name": "D3",
          "ticks": 15027,
          "time": 53.66783478125,
          "velocity": 0.614173228346457
        },
        {
          "duration": 0.160714218749995,
          "durationTicks": 45,
          "midi": 38,
          "name": "D2",
          "ticks": 15074,
          "time": 53.8356918541667,
          "velocity": 0.614173228346457
        },
        {
          "duration": 0.160714218750002,
          "durationTicks": 45,
          "midi": 50,
          "name": "D3",
          "ticks": 15122,
          "time": 54.0071203541667,
          "velocity": 0.614173228346457
        },
        {
          "duration": 0.160714218750002,
          "durationTicks": 45,
          "midi": 54,
          "name": "F#3",
          "ticks": 15122,
          "time": 54.0071203541667,
          "velocity": 0.614173228346457
        },
        {
          "duration": 0.160714218750002,
          "durationTicks": 45,
          "midi": 38,
          "name": "D2",
          "ticks": 15169,
          "time": 54.1749774270833,
          "velocity": 0.622047244094488
        },
        {
          "duration": 0.160714218750002,
          "durationTicks": 45,
          "midi": 50,
          "name": "D3",
          "ticks": 15217,
          "time": 54.3464059270833,
          "velocity": 0.622047244094488
        },
        {
          "duration": 0.160714218750002,
          "durationTicks": 45,
          "midi": 54,
          "name": "F#3",
          "ticks": 15217,
          "time": 54.3464059270833,
          "velocity": 0.622047244094488
        },
        {
          "duration": 0.157142791666665,
          "durationTicks": 44,
          "midi": 38,
          "name": "D2",
          "ticks": 15265,
          "time": 54.5178344270833,
          "velocity": 0.622047244094488
        },
        {
          "duration": 0.160714218750002,
          "durationTicks": 45,
          "midi": 50,
          "name": "D3",
          "ticks": 15312,
          "time": 54.6856915,
          "velocity": 0.62992125984252
        },
        {
          "duration": 0.160714218750002,
          "durationTicks": 45,
          "midi": 54,
          "name": "F#3",
          "ticks": 15312,
          "time": 54.6856915,
          "velocity": 0.62992125984252
        },
        {
          "duration": 0.171428500000005,
          "durationTicks": 48,
          "midi": 38,
          "name": "D2",
          "ticks": 15360,
          "time": 54.85712,
          "velocity": 0.62992125984252
        },
        {
          "duration": 0.171428500000005,
          "durationTicks": 48,
          "midi": 53,
          "name": "F3",
          "ticks": 15360,
          "time": 54.85712,
          "velocity": 0.62992125984252
        },
        {
          "duration": 0.157142791666672,
          "durationTicks": 44,
          "midi": 53,
          "name": "F3",
          "ticks": 15411,
          "time": 55.03926278125,
          "velocity": 0.62992125984252
        },
        {
          "duration": 0.157142791666672,
          "durationTicks": 44,
          "midi": 50,
          "name": "D3",
          "ticks": 15411,
          "time": 55.03926278125,
          "velocity": 0.62992125984252
        },
        {
          "duration": 0.160714218750002,
          "durationTicks": 45,
          "midi": 38,
          "name": "D2",
          "ticks": 15458,
          "time": 55.2071198541667,
          "velocity": 0.62992125984252
        },
        {
          "duration": 0.160714218750002,
          "durationTicks": 45,
          "midi": 53,
          "name": "F3",
          "ticks": 15506,
          "time": 55.3785483541667,
          "velocity": 0.62992125984252
        },
        {
          "duration": 0.160714218750002,
          "durationTicks": 45,
          "midi": 50,
          "name": "D3",
          "ticks": 15506,
          "time": 55.3785483541667,
          "velocity": 0.62992125984252
        },
        {
          "duration": 0.160714218749995,
          "durationTicks": 45,
          "midi": 38,
          "name": "D2",
          "ticks": 15553,
          "time": 55.5464054270833,
          "velocity": 0.637795275590551
        },
        {
          "duration": 0.160714218750002,
          "durationTicks": 45,
          "midi": 53,
          "name": "F3",
          "ticks": 15601,
          "time": 55.7178339270833,
          "velocity": 0.637795275590551
        },
        {
          "duration": 0.160714218750002,
          "durationTicks": 45,
          "midi": 50,
          "name": "D3",
          "ticks": 15601,
          "time": 55.7178339270833,
          "velocity": 0.637795275590551
        },
        {
          "duration": 0.157142791666672,
          "durationTicks": 44,
          "midi": 38,
          "name": "D2",
          "ticks": 15649,
          "time": 55.8892624270833,
          "velocity": 0.637795275590551
        },
        {
          "duration": 0.160714218749995,
          "durationTicks": 45,
          "midi": 53,
          "name": "F3",
          "ticks": 15696,
          "time": 56.0571195,
          "velocity": 0.637795275590551
        },
        {
          "duration": 0.160714218749995,
          "durationTicks": 45,
          "midi": 50,
          "name": "D3",
          "ticks": 15696,
          "time": 56.0571195,
          "velocity": 0.637795275590551
        },
        {
          "duration": 0.171428499999998,
          "durationTicks": 48,
          "midi": 33,
          "name": "A1",
          "ticks": 15744,
          "time": 56.228548,
          "velocity": 0.637795275590551
        },
        {
          "duration": 0.157142791666672,
          "durationTicks": 44,
          "midi": 45,
          "name": "A2",
          "ticks": 15795,
          "time": 56.41069078125,
          "velocity": 0.645669291338583
        },
        {
          "duration": 0.157142791666672,
          "durationTicks": 44,
          "midi": 48,
          "name": "C3",
          "ticks": 15795,
          "time": 56.41069078125,
          "velocity": 0.645669291338583
        },
        {
          "duration": 0.160714218750002,
          "durationTicks": 45,
          "midi": 33,
          "name": "A1",
          "ticks": 15842,
          "time": 56.5785478541667,
          "velocity": 0.645669291338583
        },
        {
          "duration": 0.160714218749995,
          "durationTicks": 45,
          "midi": 45,
          "name": "A2",
          "ticks": 15890,
          "time": 56.7499763541667,
          "velocity": 0.645669291338583
        },
        {
          "duration": 0.160714218749995,
          "durationTicks": 45,
          "midi": 48,
          "name": "C3",
          "ticks": 15890,
          "time": 56.7499763541667,
          "velocity": 0.645669291338583
        },
        {
          "duration": 0.160714218750002,
          "durationTicks": 45,
          "midi": 33,
          "name": "A1",
          "ticks": 15937,
          "time": 56.9178334270833,
          "velocity": 0.645669291338583
        },
        {
          "duration": 0.160714218750002,
          "durationTicks": 45,
          "midi": 48,
          "name": "C3",
          "ticks": 15985,
          "time": 57.0892619270833,
          "velocity": 0.653543307086614
        },
        {
          "duration": 0.160714218750002,
          "durationTicks": 45,
          "midi": 45,
          "name": "A2",
          "ticks": 15985,
          "time": 57.0892619270833,
          "velocity": 0.653543307086614
        },
        {
          "duration": 0.157142791666672,
          "durationTicks": 44,
          "midi": 33,
          "name": "A1",
          "ticks": 16033,
          "time": 57.2606904270833,
          "velocity": 0.653543307086614
        },
        {
          "duration": 0.160714218750002,
          "durationTicks": 45,
          "midi": 45,
          "name": "A2",
          "ticks": 16080,
          "time": 57.4285475,
          "velocity": 0.661417322834646
        },
        {
          "duration": 0.160714218750002,
          "durationTicks": 45,
          "midi": 48,
          "name": "C3",
          "ticks": 16080,
          "time": 57.4285475,
          "velocity": 0.661417322834646
        },
        {
          "duration": 0.171428499999998,
          "durationTicks": 48,
          "midi": 34,
          "name": "A#1",
          "ticks": 16128,
          "time": 57.599976,
          "velocity": 0.661417322834646
        },
        {
          "duration": 0.157142791666665,
          "durationTicks": 44,
          "midi": 50,
          "name": "D3",
          "ticks": 16179,
          "time": 57.78211878125,
          "velocity": 0.669291338582677
        },
        {
          "duration": 0.157142791666665,
          "durationTicks": 44,
          "midi": 46,
          "name": "A#2",
          "ticks": 16179,
          "time": 57.78211878125,
          "velocity": 0.669291338582677
        },
        {
          "duration": 0.160714218750002,
          "durationTicks": 45,
          "midi": 34,
          "name": "A#1",
          "ticks": 16226,
          "time": 57.9499758541667,
          "velocity": 0.669291338582677
        },
        {
          "duration": 0.160714218750002,
          "durationTicks": 45,
          "midi": 50,
          "name": "D3",
          "ticks": 16274,
          "time": 58.1214043541667,
          "velocity": 0.669291338582677
        },
        {
          "duration": 0.160714218750002,
          "durationTicks": 45,
          "midi": 46,
          "name": "A#2",
          "ticks": 16274,
          "time": 58.1214043541667,
          "velocity": 0.669291338582677
        },
        {
          "duration": 0.160714218750002,
          "durationTicks": 45,
          "midi": 34,
          "name": "A#1",
          "ticks": 16321,
          "time": 58.2892614270833,
          "velocity": 0.669291338582677
        },
        {
          "duration": 0.160714218749995,
          "durationTicks": 45,
          "midi": 50,
          "name": "D3",
          "ticks": 16369,
          "time": 58.4606899270833,
          "velocity": 0.669291338582677
        },
        {
          "duration": 0.160714218749995,
          "durationTicks": 45,
          "midi": 46,
          "name": "A#2",
          "ticks": 16369,
          "time": 58.4606899270833,
          "velocity": 0.669291338582677
        },
        {
          "duration": 0.157142791666672,
          "durationTicks": 44,
          "midi": 34,
          "name": "A#1",
          "ticks": 16417,
          "time": 58.6321184270833,
          "velocity": 0.669291338582677
        },
        {
          "duration": 0.160714218750002,
          "durationTicks": 45,
          "midi": 46,
          "name": "A#2",
          "ticks": 16464,
          "time": 58.7999755,
          "velocity": 0.669291338582677
        },
        {
          "duration": 0.160714218750002,
          "durationTicks": 45,
          "midi": 50,
          "name": "D3",
          "ticks": 16464,
          "time": 58.7999755,
          "velocity": 0.669291338582677
        },
        {
          "duration": 0.171428499999998,
          "durationTicks": 48,
          "midi": 36,
          "name": "C2",
          "ticks": 16512,
          "time": 58.971404,
          "velocity": 0.669291338582677
        },
        {
          "duration": 0.157142791666665,
          "durationTicks": 44,
          "midi": 52,
          "name": "E3",
          "ticks": 16563,
          "time": 59.15354678125,
          "velocity": 0.669291338582677
        },
        {
          "duration": 0.157142791666665,
          "durationTicks": 44,
          "midi": 48,
          "name": "C3",
          "ticks": 16563,
          "time": 59.15354678125,
          "velocity": 0.669291338582677
        },
        {
          "duration": 0.160714218750002,
          "durationTicks": 45,
          "midi": 36,
          "name": "C2",
          "ticks": 16610,
          "time": 59.3214038541667,
          "velocity": 0.669291338582677
        },
        {
          "duration": 0.160714218750002,
          "durationTicks": 45,
          "midi": 48,
          "name": "C3",
          "ticks": 16658,
          "time": 59.4928323541667,
          "velocity": 0.669291338582677
        },
        {
          "duration": 0.160714218750002,
          "durationTicks": 45,
          "midi": 52,
          "name": "E3",
          "ticks": 16658,
          "time": 59.4928323541667,
          "velocity": 0.669291338582677
        },
        {
          "duration": 0.160714218750002,
          "durationTicks": 45,
          "midi": 36,
          "name": "C2",
          "ticks": 16705,
          "time": 59.6606894270833,
          "velocity": 0.669291338582677
        },
        {
          "duration": 0.160714218750002,
          "durationTicks": 45,
          "midi": 52,
          "name": "E3",
          "ticks": 16753,
          "time": 59.8321179270833,
          "velocity": 0.669291338582677
        },
        {
          "duration": 0.160714218750002,
          "durationTicks": 45,
          "midi": 48,
          "name": "C3",
          "ticks": 16753,
          "time": 59.8321179270833,
          "velocity": 0.669291338582677
        },
        {
          "duration": 0.157142791666665,
          "durationTicks": 44,
          "midi": 36,
          "name": "C2",
          "ticks": 16801,
          "time": 60.0035464270833,
          "velocity": 0.669291338582677
        },
        {
          "duration": 0.160714218750002,
          "durationTicks": 45,
          "midi": 52,
          "name": "E3",
          "ticks": 16848,
          "time": 60.1714035,
          "velocity": 0.669291338582677
        },
        {
          "duration": 0.160714218750002,
          "durationTicks": 45,
          "midi": 48,
          "name": "C3",
          "ticks": 16848,
          "time": 60.1714035,
          "velocity": 0.669291338582677
        },
        {
          "duration": 2.73928457291667,
          "durationTicks": 767,
          "midi": 50,
          "name": "D3",
          "ticks": 16896,
          "time": 60.342832,
          "velocity": 0.677165354330709
        },
        {
          "duration": 2.73928457291667,
          "durationTicks": 767,
          "midi": 38,
          "name": "D2",
          "ticks": 16896,
          "time": 60.342832,
          "velocity": 0.677165354330709
        },
        {
          "duration": 0.521428354166666,
          "durationTicks": 146,
          "midi": 46,
          "name": "A#2",
          "ticks": 17664,
          "time": 63.085688,
          "velocity": 0.582677165354331
        },
        {
          "duration": 0.521428354166666,
          "durationTicks": 146,
          "midi": 34,
          "name": "A#1",
          "ticks": 17664,
          "time": 63.085688,
          "velocity": 0.464566929133858
        },
        {
          "duration": 0.160714218750002,
          "durationTicks": 45,
          "midi": 34,
          "name": "A#1",
          "ticks": 17810,
          "time": 63.6071163541667,
          "velocity": 0.425196850393701
        },
        {
          "duration": 0.160714218750002,
          "durationTicks": 45,
          "midi": 46,
          "name": "A#2",
          "ticks": 17810,
          "time": 63.6071163541667,
          "velocity": 0.543307086614173
        },
        {
          "duration": 0.510714072916677,
          "durationTicks": 143,
          "midi": 36,
          "name": "C2",
          "ticks": 17857,
          "time": 63.7749734270833,
          "velocity": 0.448818897637795
        },
        {
          "duration": 0.510714072916677,
          "durationTicks": 143,
          "midi": 48,
          "name": "C3",
          "ticks": 17857,
          "time": 63.7749734270833,
          "velocity": 0.566929133858268
        },
        {
          "duration": 0.160714218750002,
          "durationTicks": 45,
          "midi": 36,
          "name": "C2",
          "ticks": 18000,
          "time": 64.2856875,
          "velocity": 0.425196850393701
        },
        {
          "duration": 0.160714218750002,
          "durationTicks": 45,
          "midi": 48,
          "name": "C3",
          "ticks": 18000,
          "time": 64.2856875,
          "velocity": 0.543307086614173
        },
        {
          "duration": 0.521428354166673,
          "durationTicks": 146,
          "midi": 50,
          "name": "D3",
          "ticks": 18048,
          "time": 64.457116,
          "velocity": 0.480314960629921
        },
        {
          "duration": 0.849999645833321,
          "durationTicks": 238,
          "midi": 43,
          "name": "G2",
          "ticks": 18432,
          "time": 65.828544,
          "velocity": 0.551181102362205
        },
        {
          "duration": 0.849999645833321,
          "durationTicks": 238,
          "midi": 31,
          "name": "G1",
          "ticks": 18432,
          "time": 65.828544,
          "velocity": 0.456692913385827
        },
        {
          "duration": 0.160714218750002,
          "durationTicks": 45,
          "midi": 31,
          "name": "G1",
          "ticks": 18673,
          "time": 66.6892579270833,
          "velocity": 0.480314960629921
        },
        {
          "duration": 0.157142791666672,
          "durationTicks": 44,
          "midi": 43,
          "name": "G2",
          "ticks": 18721,
          "time": 66.8606864270833,
          "velocity": 0.503937007874016
        },
        {
          "duration": 0.160714218750002,
          "durationTicks": 45,
          "midi": 31,
          "name": "G1",
          "ticks": 18768,
          "time": 67.0285435,
          "velocity": 0.480314960629921
        },
        {
          "duration": 1.03214242708333,
          "durationTicks": 289,
          "midi": 33,
          "name": "A1",
          "ticks": 18816,
          "time": 67.199972,
          "velocity": 0.511811023622047
        },
        {
          "duration": 0.846428218749992,
          "durationTicks": 237,
          "midi": 45,
          "name": "A2",
          "ticks": 18962,
          "time": 67.7214003541667,
          "velocity": 0.511811023622047
        },
        {
          "duration": 0.335714145833336,
          "durationTicks": 94,
          "midi": 33,
          "name": "A1",
          "ticks": 19105,
          "time": 68.2321144270833,
          "velocity": 0.425196850393701
        },
        {
          "duration": 0.849999645833321,
          "durationTicks": 238,
          "midi": 35,
          "name": "B1",
          "ticks": 19200,
          "time": 68.5714,
          "velocity": 0.519685039370079
        },
        {
          "duration": 0.160714218750002,
          "durationTicks": 45,
          "midi": 47,
          "name": "B2",
          "ticks": 19441,
          "time": 69.4321139270833,
          "velocity": 0.503937007874016
        },
        {
          "duration": 0.157142791666658,
          "durationTicks": 44,
          "midi": 35,
          "name": "B1",
          "ticks": 19489,
          "time": 69.6035424270833,
          "velocity": 0.496062992125984
        },
        {
          "duration": 1.20357092708333,
          "durationTicks": 337,
          "midi": 30,
          "name": "F#1",
          "ticks": 19536,
          "time": 69.7713995,
          "velocity": 0.47244094488189
        },
        {
          "duration": 1.03214242708333,
          "durationTicks": 289,
          "midi": 42,
          "name": "F#2",
          "ticks": 19584,
          "time": 69.942828,
          "velocity": 0.551181102362205
        },
        {
          "duration": 0.335714145833336,
          "durationTicks": 94,
          "midi": 30,
          "name": "F#1",
          "ticks": 19873,
          "time": 70.9749704270833,
          "velocity": 0.417322834645669
        },
        {
          "duration": 0.335714145833336,
          "durationTicks": 94,
          "midi": 42,
          "name": "F#2",
          "ticks": 19873,
          "time": 70.9749704270833,
          "velocity": 0.551181102362205
        },
        {
          "duration": 0.839285364583333,
          "durationTicks": 235,
          "midi": 43,
          "name": "G2",
          "ticks": 19968,
          "time": 71.314256,
          "velocity": 0.582677165354331
        },
        {
          "duration": 0.839285364583333,
          "durationTicks": 235,
          "midi": 31,
          "name": "G1",
          "ticks": 19968,
          "time": 71.314256,
          "velocity": 0.456692913385827
        },
        {
          "duration": 0.171428500000005,
          "durationTicks": 48,
          "midi": 50,
          "name": "D3",
          "ticks": 19968,
          "time": 71.314256,
          "velocity": 0.480314960629921
        },
        {
          "duration": 0.178571354166664,
          "durationTicks": 50,
          "midi": 31,
          "name": "G1",
          "ticks": 20209,
          "time": 72.1749699270833,
          "velocity": 0.385826771653543
        },
        {
          "duration": 0.33571414583335,
          "durationTicks": 94,
          "midi": 43,
          "name": "G2",
          "ticks": 20257,
          "time": 72.3463984270833,
          "velocity": 0.503937007874016
        },
        {
          "duration": 0.521428354166659,
          "durationTicks": 146,
          "midi": 28,
          "name": "E1",
          "ticks": 20352,
          "time": 72.685684,
          "velocity": 0.448818897637795
        },
        {
          "duration": 0.521428354166659,
          "durationTicks": 146,
          "midi": 40,
          "name": "E2",
          "ticks": 20352,
          "time": 72.685684,
          "velocity": 0.574803149606299
        },
        {
          "duration": 0.160714218750002,
          "durationTicks": 45,
          "midi": 40,
          "name": "E2",
          "ticks": 20498,
          "time": 73.2071123541667,
          "velocity": 0.496062992125984
        },
        {
          "duration": 0.342857000000009,
          "durationTicks": 96,
          "midi": 28,
          "name": "E1",
          "ticks": 20545,
          "time": 73.3749694270833,
          "velocity": 0.433070866141732
        },
        {
          "duration": 0.342857000000009,
          "durationTicks": 96,
          "midi": 40,
          "name": "E2",
          "ticks": 20545,
          "time": 73.3749694270833,
          "velocity": 0.52755905511811
        },
        {
          "duration": 0.335714145833336,
          "durationTicks": 94,
          "midi": 28,
          "name": "E1",
          "ticks": 20641,
          "time": 73.7178264270833,
          "velocity": 0.417322834645669
        },
        {
          "duration": 0.335714145833336,
          "durationTicks": 94,
          "midi": 40,
          "name": "E2",
          "ticks": 20641,
          "time": 73.7178264270833,
          "velocity": 0.543307086614173
        },
        {
          "duration": 0.689285427083334,
          "durationTicks": 193,
          "midi": 45,
          "name": "A2",
          "ticks": 20736,
          "time": 74.057112,
          "velocity": 0.582677165354331
        },
        {
          "duration": 0.689285427083334,
          "durationTicks": 193,
          "midi": 33,
          "name": "A1",
          "ticks": 20736,
          "time": 74.057112,
          "velocity": 0.456692913385827
        },
        {
          "duration": 0.678571145833331,
          "durationTicks": 190,
          "midi": 33,
          "name": "A1",
          "ticks": 20929,
          "time": 74.7463974270833,
          "velocity": 0.440944881889764
        },
        {
          "duration": 0.678571145833331,
          "durationTicks": 190,
          "midi": 45,
          "name": "A2",
          "ticks": 20929,
          "time": 74.7463974270833,
          "velocity": 0.535433070866142
        },
        {
          "duration": 0.689285427083334,
          "durationTicks": 193,
          "midi": 45,
          "name": "A2",
          "ticks": 21120,
          "time": 75.42854,
          "velocity": 0.551181102362205
        },
        {
          "duration": 0.689285427083334,
          "durationTicks": 193,
          "midi": 33,
          "name": "A1",
          "ticks": 21120,
          "time": 75.42854,
          "velocity": 0.456692913385827
        },
        {
          "duration": 0.678571145833345,
          "durationTicks": 190,
          "midi": 33,
          "name": "A1",
          "ticks": 21313,
          "time": 76.1178254270833,
          "velocity": 0.440944881889764
        },
        {
          "duration": 0.678571145833345,
          "durationTicks": 190,
          "midi": 45,
          "name": "A2",
          "ticks": 21313,
          "time": 76.1178254270833,
          "velocity": 0.535433070866142
        },
        {
          "duration": 0.171428500000005,
          "durationTicks": 48,
          "midi": 38,
          "name": "D2",
          "ticks": 21504,
          "time": 76.799968,
          "velocity": 0.52755905511811
        },
        {
          "duration": 0.157142791666672,
          "durationTicks": 44,
          "midi": 50,
          "name": "D3",
          "ticks": 21555,
          "time": 76.98211078125,
          "velocity": 0.440944881889764
        },
        {
          "duration": 0.157142791666672,
          "durationTicks": 44,
          "midi": 53,
          "name": "F3",
          "ticks": 21555,
          "time": 76.98211078125,
          "velocity": 0.551181102362205
        },
        {
          "duration": 0.160714218750002,
          "durationTicks": 45,
          "midi": 38,
          "name": "D2",
          "ticks": 21602,
          "time": 77.1499678541667,
          "velocity": 0.503937007874016
        },
        {
          "duration": 0.160714218750002,
          "durationTicks": 45,
          "midi": 53,
          "name": "F3",
          "ticks": 21650,
          "time": 77.3213963541667,
          "velocity": 0.551181102362205
        },
        {
          "duration": 0.160714218750002,
          "durationTicks": 45,
          "midi": 50,
          "name": "D3",
          "ticks": 21650,
          "time": 77.3213963541667,
          "velocity": 0.440944881889764
        },
        {
          "duration": 0.160714218749987,
          "durationTicks": 45,
          "midi": 38,
          "name": "D2",
          "ticks": 21697,
          "time": 77.4892534270833,
          "velocity": 0.511811023622047
        },
        {
          "duration": 0.160714218750002,
          "durationTicks": 45,
          "midi": 53,
          "name": "F3",
          "ticks": 21745,
          "time": 77.6606819270833,
          "velocity": 0.551181102362205
        },
        {
          "duration": 0.160714218750002,
          "durationTicks": 45,
          "midi": 50,
          "name": "D3",
          "ticks": 21745,
          "time": 77.6606819270833,
          "velocity": 0.440944881889764
        },
        {
          "duration": 0.157142791666672,
          "durationTicks": 44,
          "midi": 38,
          "name": "D2",
          "ticks": 21793,
          "time": 77.8321104270833,
          "velocity": 0.503937007874016
        },
        {
          "duration": 0.160714218749987,
          "durationTicks": 45,
          "midi": 50,
          "name": "D3",
          "ticks": 21840,
          "time": 77.9999675,
          "velocity": 0.440944881889764
        },
        {
          "duration": 0.160714218749987,
          "durationTicks": 45,
          "midi": 53,
          "name": "F3",
          "ticks": 21840,
          "time": 77.9999675,
          "velocity": 0.551181102362205
        },
        {
          "duration": 0.171428500000005,
          "durationTicks": 48,
          "midi": 38,
          "name": "D2",
          "ticks": 21888,
          "time": 78.171396,
          "velocity": 0.52755905511811
        },
        {
          "duration": 0.157142791666672,
          "durationTicks": 44,
          "midi": 53,
          "name": "F3",
          "ticks": 21939,
          "time": 78.35353878125,
          "velocity": 0.551181102362205
        },
        {
          "duration": 0.157142791666672,
          "durationTicks": 44,
          "midi": 50,
          "name": "D3",
          "ticks": 21939,
          "time": 78.35353878125,
          "velocity": 0.440944881889764
        },
        {
          "duration": 0.160714218750002,
          "durationTicks": 45,
          "midi": 38,
          "name": "D2",
          "ticks": 21986,
          "time": 78.5213958541667,
          "velocity": 0.503937007874016
        },
        {
          "duration": 0.160714218750002,
          "durationTicks": 45,
          "midi": 53,
          "name": "F3",
          "ticks": 22034,
          "time": 78.6928243541667,
          "velocity": 0.551181102362205
        },
        {
          "duration": 0.160714218750002,
          "durationTicks": 45,
          "midi": 50,
          "name": "D3",
          "ticks": 22034,
          "time": 78.6928243541667,
          "velocity": 0.440944881889764
        },
        {
          "duration": 0.160714218750002,
          "durationTicks": 45,
          "midi": 38,
          "name": "D2",
          "ticks": 22081,
          "time": 78.8606814270833,
          "velocity": 0.511811023622047
        },
        {
          "duration": 0.160714218750002,
          "durationTicks": 45,
          "midi": 50,
          "name": "D3",
          "ticks": 22129,
          "time": 79.0321099270833,
          "velocity": 0.440944881889764
        },
        {
          "duration": 0.160714218750002,
          "durationTicks": 45,
          "midi": 53,
          "name": "F3",
          "ticks": 22129,
          "time": 79.0321099270833,
          "velocity": 0.551181102362205
        },
        {
          "duration": 0.157142791666672,
          "durationTicks": 44,
          "midi": 38,
          "name": "D2",
          "ticks": 22177,
          "time": 79.2035384270833,
          "velocity": 0.503937007874016
        },
        {
          "duration": 0.160714218750002,
          "durationTicks": 45,
          "midi": 50,
          "name": "D3",
          "ticks": 22224,
          "time": 79.3713955,
          "velocity": 0.440944881889764
        },
        {
          "duration": 0.160714218750002,
          "durationTicks": 45,
          "midi": 53,
          "name": "F3",
          "ticks": 22224,
          "time": 79.3713955,
          "velocity": 0.551181102362205
        },
        {
          "duration": 0.17142849999999,
          "durationTicks": 48,
          "midi": 34,
          "name": "A#1",
          "ticks": 22272,
          "time": 79.542824,
          "velocity": 0.519685039370079
        },
        {
          "duration": 0.157142791666672,
          "durationTicks": 44,
          "midi": 46,
          "name": "A#2",
          "ticks": 22323,
          "time": 79.72496678125,
          "velocity": 0.440944881889764
        },
        {
          "duration": 0.157142791666672,
          "durationTicks": 44,
          "midi": 50,
          "name": "D3",
          "ticks": 22323,
          "time": 79.72496678125,
          "velocity": 0.551181102362205
        },
        {
          "duration": 0.160714218750002,
          "durationTicks": 45,
          "midi": 34,
          "name": "A#1",
          "ticks": 22370,
          "time": 79.8928238541667,
          "velocity": 0.496062992125984
        },
        {
          "duration": 0.160714218750002,
          "durationTicks": 45,
          "midi": 50,
          "name": "D3",
          "ticks": 22418,
          "time": 80.0642523541667,
          "velocity": 0.551181102362205
        },
        {
          "duration": 0.160714218750002,
          "durationTicks": 45,
          "midi": 46,
          "name": "A#2",
          "ticks": 22418,
          "time": 80.0642523541667,
          "velocity": 0.440944881889764
        },
        {
          "duration": 0.160714218750002,
          "durationTicks": 45,
          "midi": 36,
          "name": "C2",
          "ticks": 22465,
          "time": 80.2321094270833,
          "velocity": 0.503937007874016
        },
        {
          "duration": 0.160714218750002,
          "durationTicks": 45,
          "midi": 52,
          "name": "E3",
          "ticks": 22513,
          "time": 80.4035379270833,
          "velocity": 0.551181102362205
        },
        {
          "duration": 0.160714218750002,
          "durationTicks": 45,
          "midi": 48,
          "name": "C3",
          "ticks": 22513,
          "time": 80.4035379270833,
          "velocity": 0.440944881889764
        },
        {
          "duration": 0.157142791666672,
          "durationTicks": 44,
          "midi": 36,
          "name": "C2",
          "ticks": 22561,
          "time": 80.5749664270833,
          "velocity": 0.496062992125984
        },
        {
          "duration": 0.160714218750002,
          "durationTicks": 45,
          "midi": 52,
          "name": "E3",
          "ticks": 22608,
          "time": 80.7428235,
          "velocity": 0.551181102362205
        },
        {
          "duration": 0.160714218750002,
          "durationTicks": 45,
          "midi": 48,
          "name": "C3",
          "ticks": 22608,
          "time": 80.7428235,
          "velocity": 0.440944881889764
        },
        {
          "duration": 0.171428500000005,
          "durationTicks": 48,
          "midi": 33,
          "name": "A1",
          "ticks": 22656,
          "time": 80.914252,
          "velocity": 0.511811023622047
        },
        {
          "duration": 0.157142791666658,
          "durationTicks": 44,
          "midi": 45,
          "name": "A2",
          "ticks": 22707,
          "time": 81.09639478125,
          "velocity": 0.440944881889764
        },
        {
          "duration": 0.157142791666658,
          "durationTicks": 44,
          "midi": 49,
          "name": "C#3",
          "ticks": 22707,
          "time": 81.09639478125,
          "velocity": 0.551181102362205
        },
        {
          "duration": 0.160714218750002,
          "durationTicks": 45,
          "midi": 33,
          "name": "A1",
          "ticks": 22754,
          "time": 81.2642518541667,
          "velocity": 0.488188976377953
        },
        {
          "duration": 0.160714218750002,
          "durationTicks": 45,
          "midi": 49,
          "name": "C#3",
          "ticks": 22802,
          "time": 81.4356803541667,
          "velocity": 0.551181102362205
        },
        {
          "duration": 0.160714218750002,
          "durationTicks": 45,
          "midi": 45,
          "name": "A2",
          "ticks": 22802,
          "time": 81.4356803541667,
          "velocity": 0.440944881889764
        },
        {
          "duration": 0.160714218750002,
          "durationTicks": 45,
          "midi": 33,
          "name": "A1",
          "ticks": 22849,
          "time": 81.6035374270833,
          "velocity": 0.503937007874016
        },
        {
          "duration": 0.160714218750002,
          "durationTicks": 45,
          "midi": 45,
          "name": "A2",
          "ticks": 22897,
          "time": 81.7749659270833,
          "velocity": 0.440944881889764
        },
        {
          "duration": 0.160714218750002,
          "durationTicks": 45,
          "midi": 49,
          "name": "C#3",
          "ticks": 22897,
          "time": 81.7749659270833,
          "velocity": 0.551181102362205
        },
        {
          "duration": 0.157142791666672,
          "durationTicks": 44,
          "midi": 33,
          "name": "A1",
          "ticks": 22945,
          "time": 81.9463944270833,
          "velocity": 0.488188976377953
        },
        {
          "duration": 0.160714218750002,
          "durationTicks": 45,
          "midi": 49,
          "name": "C#3",
          "ticks": 22992,
          "time": 82.1142515,
          "velocity": 0.551181102362205
        },
        {
          "duration": 0.160714218750002,
          "durationTicks": 45,
          "midi": 45,
          "name": "A2",
          "ticks": 22992,
          "time": 82.1142515,
          "velocity": 0.440944881889764
        },
        {
          "duration": 0.171428500000005,
          "durationTicks": 48,
          "midi": 38,
          "name": "D2",
          "ticks": 23040,
          "time": 82.28568,
          "velocity": 0.52755905511811
        },
        {
          "duration": 0.157142791666672,
          "durationTicks": 44,
          "midi": 50,
          "name": "D3",
          "ticks": 23091,
          "time": 82.46782278125,
          "velocity": 0.440944881889764
        },
        {
          "duration": 0.157142791666672,
          "durationTicks": 44,
          "midi": 53,
          "name": "F3",
          "ticks": 23091,
          "time": 82.46782278125,
          "velocity": 0.551181102362205
        },
        {
          "duration": 0.160714218749987,
          "durationTicks": 45,
          "midi": 38,
          "name": "D2",
          "ticks": 23138,
          "time": 82.6356798541667,
          "velocity": 0.503937007874016
        },
        {
          "duration": 0.160714218750002,
          "durationTicks": 45,
          "midi": 53,
          "name": "F3",
          "ticks": 23186,
          "time": 82.8071083541667,
          "velocity": 0.551181102362205
        },
        {
          "duration": 0.160714218750002,
          "durationTicks": 45,
          "midi": 50,
          "name": "D3",
          "ticks": 23186,
          "time": 82.8071083541667,
          "velocity": 0.440944881889764
        },
        {
          "duration": 0.160714218750002,
          "durationTicks": 45,
          "midi": 36,
          "name": "C2",
          "ticks": 23233,
          "time": 82.9749654270833,
          "velocity": 0.503937007874016
        },
        {
          "duration": 0.160714218750002,
          "durationTicks": 45,
          "midi": 52,
          "name": "E3",
          "ticks": 23281,
          "time": 83.1463939270833,
          "velocity": 0.551181102362205
        },
        {
          "duration": 0.160714218750002,
          "durationTicks": 45,
          "midi": 48,
          "name": "C3",
          "ticks": 23281,
          "time": 83.1463939270833,
          "velocity": 0.440944881889764
        },
        {
          "duration": 0.157142791666658,
          "durationTicks": 44,
          "midi": 36,
          "name": "C2",
          "ticks": 23329,
          "time": 83.3178224270833,
          "velocity": 0.496062992125984
        },
        {
          "duration": 0.160714218750002,
          "durationTicks": 45,
          "midi": 52,
          "name": "E3",
          "ticks": 23376,
          "time": 83.4856795,
          "velocity": 0.551181102362205
        },
        {
          "duration": 0.160714218750002,
          "durationTicks": 45,
          "midi": 48,
          "name": "C3",
          "ticks": 23376,
          "time": 83.4856795,
          "velocity": 0.440944881889764
        },
        {
          "duration": 0.171428500000005,
          "durationTicks": 48,
          "midi": 35,
          "name": "B1",
          "ticks": 23424,
          "time": 83.657108,
          "velocity": 0.519685039370079
        },
        {
          "duration": 0.157142791666672,
          "durationTicks": 44,
          "midi": 47,
          "name": "B2",
          "ticks": 23475,
          "time": 83.83925078125,
          "velocity": 0.440944881889764
        },
        {
          "duration": 0.157142791666672,
          "durationTicks": 44,
          "midi": 50,
          "name": "D3",
          "ticks": 23475,
          "time": 83.83925078125,
          "velocity": 0.551181102362205
        },
        {
          "duration": 0.160714218750002,
          "durationTicks": 45,
          "midi": 35,
          "name": "B1",
          "ticks": 23522,
          "time": 84.0071078541667,
          "velocity": 0.496062992125984
        },
        {
          "duration": 0.160714218749987,
          "durationTicks": 45,
          "midi": 50,
          "name": "D3",
          "ticks": 23570,
          "time": 84.1785363541667,
          "velocity": 0.551181102362205
        },
        {
          "duration": 0.160714218749987,
          "durationTicks": 45,
          "midi": 47,
          "name": "B2",
          "ticks": 23570,
          "time": 84.1785363541667,
          "velocity": 0.440944881889764
        },
        {
          "duration": 0.160714218749987,
          "durationTicks": 45,
          "midi": 31,
          "name": "G1",
          "ticks": 23617,
          "time": 84.3463934270833,
          "velocity": 0.503937007874016
        },
        {
          "duration": 0.160714218750002,
          "durationTicks": 45,
          "midi": 43,
          "name": "G2",
          "ticks": 23665,
          "time": 84.5178219270833,
          "velocity": 0.440944881889764
        },
        {
          "duration": 0.160714218750002,
          "durationTicks": 45,
          "midi": 47,
          "name": "B2",
          "ticks": 23665,
          "time": 84.5178219270833,
          "velocity": 0.543307086614173
        },
        {
          "duration": 0.157142791666672,
          "durationTicks": 44,
          "midi": 31,
          "name": "G1",
          "ticks": 23713,
          "time": 84.6892504270833,
          "velocity": 0.488188976377953
        },
        {
          "duration": 0.160714218749987,
          "durationTicks": 45,
          "midi": 43,
          "name": "G2",
          "ticks": 23760,
          "time": 84.8571075,
          "velocity": 0.440944881889764
        },
        {
          "duration": 0.160714218749987,
          "durationTicks": 45,
          "midi": 47,
          "name": "B2",
          "ticks": 23760,
          "time": 84.8571075,
          "velocity": 0.543307086614173
        },
        {
          "duration": 0.171428500000005,
          "durationTicks": 48,
          "midi": 34,
          "name": "A#1",
          "ticks": 23808,
          "time": 85.028536,
          "velocity": 0.519685039370079
        },
        {
          "duration": 0.157142791666672,
          "durationTicks": 44,
          "midi": 46,
          "name": "A#2",
          "ticks": 23859,
          "time": 85.21067878125,
          "velocity": 0.440944881889764
        },
        {
          "duration": 0.157142791666672,
          "durationTicks": 44,
          "midi": 50,
          "name": "D3",
          "ticks": 23859,
          "time": 85.21067878125,
          "velocity": 0.551181102362205
        },
        {
          "duration": 0.160714218750002,
          "durationTicks": 45,
          "midi": 34,
          "name": "A#1",
          "ticks": 23906,
          "time": 85.3785358541667,
          "velocity": 0.496062992125984
        },
        {
          "duration": 0.160714218750002,
          "durationTicks": 45,
          "midi": 46,
          "name": "A#2",
          "ticks": 23954,
          "time": 85.5499643541667,
          "velocity": 0.440944881889764
        },
        {
          "duration": 0.160714218750002,
          "durationTicks": 45,
          "midi": 50,
          "name": "D3",
          "ticks": 23954,
          "time": 85.5499643541667,
          "velocity": 0.551181102362205
        },
        {
          "duration": 0.160714218750002,
          "durationTicks": 45,
          "midi": 36,
          "name": "C2",
          "ticks": 24001,
          "time": 85.7178214270833,
          "velocity": 0.503937007874016
        },
        {
          "duration": 0.160714218750002,
          "durationTicks": 45,
          "midi": 52,
          "name": "E3",
          "ticks": 24049,
          "time": 85.8892499270833,
          "velocity": 0.551181102362205
        },
        {
          "duration": 0.160714218750002,
          "durationTicks": 45,
          "midi": 48,
          "name": "C3",
          "ticks": 24049,
          "time": 85.8892499270833,
          "velocity": 0.440944881889764
        },
        {
          "duration": 0.157142791666672,
          "durationTicks": 44,
          "midi": 36,
          "name": "C2",
          "ticks": 24097,
          "time": 86.0606784270833,
          "velocity": 0.496062992125984
        },
        {
          "duration": 0.160714218750002,
          "durationTicks": 45,
          "midi": 48,
          "name": "C3",
          "ticks": 24144,
          "time": 86.2285355,
          "velocity": 0.440944881889764
        },
        {
          "duration": 0.160714218750002,
          "durationTicks": 45,
          "midi": 52,
          "name": "E3",
          "ticks": 24144,
          "time": 86.2285355,
          "velocity": 0.551181102362205
        },
        {
          "duration": 0.17142849999999,
          "durationTicks": 48,
          "midi": 38,
          "name": "D2",
          "ticks": 24192,
          "time": 86.399964,
          "velocity": 0.52755905511811
        },
        {
          "duration": 0.157142791666672,
          "durationTicks": 44,
          "midi": 50,
          "name": "D3",
          "ticks": 24243,
          "time": 86.58210678125,
          "velocity": 0.440944881889764
        },
        {
          "duration": 0.160714218750002,
          "durationTicks": 45,
          "midi": 38,
          "name": "D2",
          "ticks": 24290,
          "time": 86.7499638541667,
          "velocity": 0.503937007874016
        },
        {
          "duration": 0.160714218750002,
          "durationTicks": 45,
          "midi": 50,
          "name": "D3",
          "ticks": 24338,
          "time": 86.9213923541667,
          "velocity": 0.440944881889764
        },
        {
          "duration": 0.160714218750002,
          "durationTicks": 45,
          "midi": 38,
          "name": "D2",
          "ticks": 24385,
          "time": 87.0892494270833,
          "velocity": 0.511811023622047
        },
        {
          "duration": 0.160714218750002,
          "durationTicks": 45,
          "midi": 50,
          "name": "D3",
          "ticks": 24433,
          "time": 87.2606779270833,
          "velocity": 0.440944881889764
        },
        {
          "duration": 0.157142791666672,
          "durationTicks": 44,
          "midi": 38,
          "name": "D2",
          "ticks": 24481,
          "time": 87.4321064270833,
          "velocity": 0.503937007874016
        },
        {
          "duration": 0.160714218750002,
          "durationTicks": 45,
          "midi": 50,
          "name": "D3",
          "ticks": 24528,
          "time": 87.5999635,
          "velocity": 0.440944881889764
        },
        {
          "duration": 0.171428500000005,
          "durationTicks": 48,
          "midi": 38,
          "name": "D2",
          "ticks": 24576,
          "time": 87.771392,
          "velocity": 0.52755905511811
        },
        {
          "duration": 0.157142791666672,
          "durationTicks": 44,
          "midi": 53,
          "name": "F3",
          "ticks": 24627,
          "time": 87.95353478125,
          "velocity": 0.551181102362205
        },
        {
          "duration": 0.157142791666672,
          "durationTicks": 44,
          "midi": 50,
          "name": "D3",
          "ticks": 24627,
          "time": 87.95353478125,
          "velocity": 0.440944881889764
        },
        {
          "duration": 0.160714218750002,
          "durationTicks": 45,
          "midi": 38,
          "name": "D2",
          "ticks": 24674,
          "time": 88.1213918541667,
          "velocity": 0.503937007874016
        },
        {
          "duration": 0.160714218750002,
          "durationTicks": 45,
          "midi": 53,
          "name": "F3",
          "ticks": 24722,
          "time": 88.2928203541667,
          "velocity": 0.551181102362205
        },
        {
          "duration": 0.160714218750002,
          "durationTicks": 45,
          "midi": 50,
          "name": "D3",
          "ticks": 24722,
          "time": 88.2928203541667,
          "velocity": 0.440944881889764
        },
        {
          "duration": 0.160714218750002,
          "durationTicks": 45,
          "midi": 38,
          "name": "D2",
          "ticks": 24769,
          "time": 88.4606774270833,
          "velocity": 0.511811023622047
        },
        {
          "duration": 0.160714218750002,
          "durationTicks": 45,
          "midi": 50,
          "name": "D3",
          "ticks": 24817,
          "time": 88.6321059270833,
          "velocity": 0.440944881889764
        },
        {
          "duration": 0.160714218750002,
          "durationTicks": 45,
          "midi": 53,
          "name": "F3",
          "ticks": 24817,
          "time": 88.6321059270833,
          "velocity": 0.551181102362205
        },
        {
          "duration": 0.157142791666658,
          "durationTicks": 44,
          "midi": 38,
          "name": "D2",
          "ticks": 24865,
          "time": 88.8035344270834,
          "velocity": 0.503937007874016
        },
        {
          "duration": 0.160714218750002,
          "durationTicks": 45,
          "midi": 50,
          "name": "D3",
          "ticks": 24912,
          "time": 88.9713915,
          "velocity": 0.440944881889764
        },
        {
          "duration": 0.160714218750002,
          "durationTicks": 45,
          "midi": 53,
          "name": "F3",
          "ticks": 24912,
          "time": 88.9713915,
          "velocity": 0.551181102362205
        },
        {
          "duration": 0.171428500000005,
          "durationTicks": 48,
          "midi": 38,
          "name": "D2",
          "ticks": 24960,
          "time": 89.14282,
          "velocity": 0.52755905511811
        },
        {
          "duration": 0.157142791666658,
          "durationTicks": 44,
          "midi": 50,
          "name": "D3",
          "ticks": 25011,
          "time": 89.32496278125,
          "velocity": 0.440944881889764
        },
        {
          "duration": 0.157142791666658,
          "durationTicks": 44,
          "midi": 53,
          "name": "F3",
          "ticks": 25011,
          "time": 89.32496278125,
          "velocity": 0.551181102362205
        },
        {
          "duration": 0.160714218750002,
          "durationTicks": 45,
          "midi": 38,
          "name": "D2",
          "ticks": 25058,
          "time": 89.4928198541667,
          "velocity": 0.503937007874016
        },
        {
          "duration": 0.160714218750002,
          "durationTicks": 45,
          "midi": 53,
          "name": "F3",
          "ticks": 25106,
          "time": 89.6642483541667,
          "velocity": 0.551181102362205
        },
        {
          "duration": 0.160714218750002,
          "durationTicks": 45,
          "midi": 50,
          "name": "D3",
          "ticks": 25106,
          "time": 89.6642483541667,
          "velocity": 0.440944881889764
        },
        {
          "duration": 0.160714218750002,
          "durationTicks": 45,
          "midi": 38,
          "name": "D2",
          "ticks": 25153,
          "time": 89.8321054270834,
          "velocity": 0.511811023622047
        },
        {
          "duration": 0.160714218750002,
          "durationTicks": 45,
          "midi": 50,
          "name": "D3",
          "ticks": 25201,
          "time": 90.0035339270833,
          "velocity": 0.440944881889764
        },
        {
          "duration": 0.160714218750002,
          "durationTicks": 45,
          "midi": 53,
          "name": "F3",
          "ticks": 25201,
          "time": 90.0035339270833,
          "velocity": 0.551181102362205
        },
        {
          "duration": 0.157142791666658,
          "durationTicks": 44,
          "midi": 38,
          "name": "D2",
          "ticks": 25249,
          "time": 90.1749624270833,
          "velocity": 0.503937007874016
        },
        {
          "duration": 0.160714218750002,
          "durationTicks": 45,
          "midi": 50,
          "name": "D3",
          "ticks": 25296,
          "time": 90.3428195,
          "velocity": 0.440944881889764
        },
        {
          "duration": 0.160714218750002,
          "durationTicks": 45,
          "midi": 53,
          "name": "F3",
          "ticks": 25296,
          "time": 90.3428195,
          "velocity": 0.551181102362205
        },
        {
          "duration": 0.17142849999999,
          "durationTicks": 48,
          "midi": 34,
          "name": "A#1",
          "ticks": 25344,
          "time": 90.514248,
          "velocity": 0.519685039370079
        },
        {
          "duration": 0.157142791666658,
          "durationTicks": 44,
          "midi": 46,
          "name": "A#2",
          "ticks": 25395,
          "time": 90.69639078125,
          "velocity": 0.440944881889764
        },
        {
          "duration": 0.157142791666658,
          "durationTicks": 44,
          "midi": 50,
          "name": "D3",
          "ticks": 25395,
          "time": 90.69639078125,
          "velocity": 0.551181102362205
        },
        {
          "duration": 0.160714218750002,
          "durationTicks": 45,
          "midi": 34,
          "name": "A#1",
          "ticks": 25442,
          "time": 90.8642478541667,
          "velocity": 0.496062992125984
        },
        {
          "duration": 0.160714218750002,
          "durationTicks": 45,
          "midi": 50,
          "name": "D3",
          "ticks": 25490,
          "time": 91.0356763541667,
          "velocity": 0.551181102362205
        },
        {
          "duration": 0.160714218750002,
          "durationTicks": 45,
          "midi": 46,
          "name": "A#2",
          "ticks": 25490,
          "time": 91.0356763541667,
          "velocity": 0.440944881889764
        },
        {
          "duration": 0.160714218750002,
          "durationTicks": 45,
          "midi": 36,
          "name": "C2",
          "ticks": 25537,
          "time": 91.2035334270833,
          "velocity": 0.503937007874016
        },
        {
          "duration": 0.160714218750002,
          "durationTicks": 45,
          "midi": 48,
          "name": "C3",
          "ticks": 25585,
          "time": 91.3749619270834,
          "velocity": 0.440944881889764
        },
        {
          "duration": 0.160714218750002,
          "durationTicks": 45,
          "midi": 52,
          "name": "E3",
          "ticks": 25585,
          "time": 91.3749619270834,
          "velocity": 0.551181102362205
        },
        {
          "duration": 0.157142791666658,
          "durationTicks": 44,
          "midi": 36,
          "name": "C2",
          "ticks": 25633,
          "time": 91.5463904270834,
          "velocity": 0.496062992125984
        },
        {
          "duration": 0.160714218750002,
          "durationTicks": 45,
          "midi": 52,
          "name": "E3",
          "ticks": 25680,
          "time": 91.7142475,
          "velocity": 0.551181102362205
        },
        {
          "duration": 0.160714218750002,
          "durationTicks": 45,
          "midi": 48,
          "name": "C3",
          "ticks": 25680,
          "time": 91.7142475,
          "velocity": 0.440944881889764
        },
        {
          "duration": 0.171428500000005,
          "durationTicks": 48,
          "midi": 33,
          "name": "A1",
          "ticks": 25728,
          "time": 91.885676,
          "velocity": 0.511811023622047
        },
        {
          "duration": 0.157142791666658,
          "durationTicks": 44,
          "midi": 45,
          "name": "A2",
          "ticks": 25779,
          "time": 92.06781878125,
          "velocity": 0.440944881889764
        },
        {
          "duration": 0.157142791666658,
          "durationTicks": 44,
          "midi": 49,
          "name": "C#3",
          "ticks": 25779,
          "time": 92.06781878125,
          "velocity": 0.551181102362205
        },
        {
          "duration": 0.160714218749987,
          "durationTicks": 45,
          "midi": 33,
          "name": "A1",
          "ticks": 25826,
          "time": 92.2356758541667,
          "velocity": 0.488188976377953
        },
        {
          "duration": 0.160714218750002,
          "durationTicks": 45,
          "midi": 45,
          "name": "A2",
          "ticks": 25874,
          "time": 92.4071043541667,
          "velocity": 0.440944881889764
        },
        {
          "duration": 0.160714218750002,
          "durationTicks": 45,
          "midi": 49,
          "name": "C#3",
          "ticks": 25874,
          "time": 92.4071043541667,
          "velocity": 0.551181102362205
        },
        {
          "duration": 0.160714218749987,
          "durationTicks": 45,
          "midi": 33,
          "name": "A1",
          "ticks": 25921,
          "time": 92.5749614270834,
          "velocity": 0.503937007874016
        },
        {
          "duration": 0.160714218750002,
          "durationTicks": 45,
          "midi": 45,
          "name": "A2",
          "ticks": 25969,
          "time": 92.7463899270833,
          "velocity": 0.440944881889764
        },
        {
          "duration": 0.160714218750002,
          "durationTicks": 45,
          "midi": 49,
          "name": "C#3",
          "ticks": 25969,
          "time": 92.7463899270833,
          "velocity": 0.551181102362205
        },
        {
          "duration": 0.157142791666658,
          "durationTicks": 44,
          "midi": 33,
          "name": "A1",
          "ticks": 26017,
          "time": 92.9178184270834,
          "velocity": 0.488188976377953
        },
        {
          "duration": 0.160714218750002,
          "durationTicks": 45,
          "midi": 45,
          "name": "A2",
          "ticks": 26064,
          "time": 93.0856755,
          "velocity": 0.440944881889764
        },
        {
          "duration": 0.160714218750002,
          "durationTicks": 45,
          "midi": 49,
          "name": "C#3",
          "ticks": 26064,
          "time": 93.0856755,
          "velocity": 0.551181102362205
        },
        {
          "duration": 0.17142849999999,
          "durationTicks": 48,
          "midi": 38,
          "name": "D2",
          "ticks": 26112,
          "time": 93.257104,
          "velocity": 0.52755905511811
        },
        {
          "duration": 0.157142791666658,
          "durationTicks": 44,
          "midi": 53,
          "name": "F3",
          "ticks": 26163,
          "time": 93.43924678125,
          "velocity": 0.551181102362205
        },
        {
          "duration": 0.157142791666658,
          "durationTicks": 44,
          "midi": 50,
          "name": "D3",
          "ticks": 26163,
          "time": 93.43924678125,
          "velocity": 0.440944881889764
        },
        {
          "duration": 0.160714218750002,
          "durationTicks": 45,
          "midi": 38,
          "name": "D2",
          "ticks": 26210,
          "time": 93.6071038541667,
          "velocity": 0.503937007874016
        },
        {
          "duration": 0.160714218750002,
          "durationTicks": 45,
          "midi": 50,
          "name": "D3",
          "ticks": 26258,
          "time": 93.7785323541667,
          "velocity": 0.440944881889764
        },
        {
          "duration": 0.160714218750002,
          "durationTicks": 45,
          "midi": 53,
          "name": "F3",
          "ticks": 26258,
          "time": 93.7785323541667,
          "velocity": 0.551181102362205
        },
        {
          "duration": 0.160714218750002,
          "durationTicks": 45,
          "midi": 36,
          "name": "C2",
          "ticks": 26305,
          "time": 93.9463894270834,
          "velocity": 0.503937007874016
        },
        {
          "duration": 0.160714218750002,
          "durationTicks": 45,
          "midi": 48,
          "name": "C3",
          "ticks": 26353,
          "time": 94.1178179270834,
          "velocity": 0.440944881889764
        },
        {
          "duration": 0.160714218750002,
          "durationTicks": 45,
          "midi": 52,
          "name": "E3",
          "ticks": 26353,
          "time": 94.1178179270834,
          "velocity": 0.551181102362205
        },
        {
          "duration": 0.157142791666658,
          "durationTicks": 44,
          "midi": 36,
          "name": "C2",
          "ticks": 26401,
          "time": 94.2892464270833,
          "velocity": 0.496062992125984
        },
        {
          "duration": 0.160714218750002,
          "durationTicks": 45,
          "midi": 52,
          "name": "E3",
          "ticks": 26448,
          "time": 94.4571035,
          "velocity": 0.551181102362205
        },
        {
          "duration": 0.160714218750002,
          "durationTicks": 45,
          "midi": 48,
          "name": "C3",
          "ticks": 26448,
          "time": 94.4571035,
          "velocity": 0.440944881889764
        },
        {
          "duration": 0.171428500000005,
          "durationTicks": 48,
          "midi": 35,
          "name": "B1",
          "ticks": 26496,
          "time": 94.628532,
          "velocity": 0.519685039370079
        },
        {
          "duration": 0.157142791666672,
          "durationTicks": 44,
          "midi": 50,
          "name": "D3",
          "ticks": 26547,
          "time": 94.81067478125,
          "velocity": 0.551181102362205
        },
        {
          "duration": 0.157142791666672,
          "durationTicks": 44,
          "midi": 47,
          "name": "B2",
          "ticks": 26547,
          "time": 94.81067478125,
          "velocity": 0.440944881889764
        },
        {
          "duration": 0.160714218750002,
          "durationTicks": 45,
          "midi": 35,
          "name": "B1",
          "ticks": 26594,
          "time": 94.9785318541667,
          "velocity": 0.496062992125984
        },
        {
          "duration": 0.160714218750002,
          "durationTicks": 45,
          "midi": 47,
          "name": "B2",
          "ticks": 26642,
          "time": 95.1499603541667,
          "velocity": 0.440944881889764
        },
        {
          "duration": 0.160714218750002,
          "durationTicks": 45,
          "midi": 50,
          "name": "D3",
          "ticks": 26642,
          "time": 95.1499603541667,
          "velocity": 0.551181102362205
        },
        {
          "duration": 0.160714218750002,
          "durationTicks": 45,
          "midi": 31,
          "name": "G1",
          "ticks": 26689,
          "time": 95.3178174270833,
          "velocity": 0.503937007874016
        },
        {
          "duration": 0.160714218750002,
          "durationTicks": 45,
          "midi": 47,
          "name": "B2",
          "ticks": 26737,
          "time": 95.4892459270834,
          "velocity": 0.543307086614173
        },
        {
          "duration": 0.160714218750002,
          "durationTicks": 45,
          "midi": 43,
          "name": "G2",
          "ticks": 26737,
          "time": 95.4892459270834,
          "velocity": 0.440944881889764
        },
        {
          "duration": 0.157142791666658,
          "durationTicks": 44,
          "midi": 31,
          "name": "G1",
          "ticks": 26785,
          "time": 95.6606744270834,
          "velocity": 0.488188976377953
        },
        {
          "duration": 0.160714218750002,
          "durationTicks": 45,
          "midi": 47,
          "name": "B2",
          "ticks": 26832,
          "time": 95.8285315,
          "velocity": 0.543307086614173
        },
        {
          "duration": 0.160714218750002,
          "durationTicks": 45,
          "midi": 43,
          "name": "G2",
          "ticks": 26832,
          "time": 95.8285315,
          "velocity": 0.440944881889764
        },
        {
          "duration": 0.33928557291668,
          "durationTicks": 95,
          "midi": 46,
          "name": "A#2",
          "ticks": 26978,
          "time": 96.3499598541667,
          "velocity": 0.551181102362205
        },
        {
          "duration": 0.33928557291668,
          "durationTicks": 95,
          "midi": 34,
          "name": "A#1",
          "ticks": 26978,
          "time": 96.3499598541667,
          "velocity": 0.433070866141732
        },
        {
          "duration": 0.335714145833322,
          "durationTicks": 94,
          "midi": 36,
          "name": "C2",
          "ticks": 27169,
          "time": 97.0321024270833,
          "velocity": 0.433070866141732
        },
        {
          "duration": 0.335714145833322,
          "durationTicks": 94,
          "midi": 48,
          "name": "C3",
          "ticks": 27169,
          "time": 97.0321024270833,
          "velocity": 0.551181102362205
        },
        {
          "duration": 0.171428500000005,
          "durationTicks": 48,
          "midi": 38,
          "name": "D2",
          "ticks": 27648,
          "time": 98.742816,
          "velocity": 0.52755905511811
        },
        {
          "duration": 0.157142791666658,
          "durationTicks": 44,
          "midi": 53,
          "name": "F3",
          "ticks": 27699,
          "time": 98.92495878125,
          "velocity": 0.551181102362205
        },
        {
          "duration": 0.157142791666658,
          "durationTicks": 44,
          "midi": 50,
          "name": "D3",
          "ticks": 27699,
          "time": 98.92495878125,
          "velocity": 0.440944881889764
        },
        {
          "duration": 0.160714218749987,
          "durationTicks": 45,
          "midi": 38,
          "name": "D2",
          "ticks": 27746,
          "time": 99.0928158541667,
          "velocity": 0.503937007874016
        },
        {
          "duration": 0.160714218750002,
          "durationTicks": 45,
          "midi": 53,
          "name": "F3",
          "ticks": 27794,
          "time": 99.2642443541667,
          "velocity": 0.551181102362205
        },
        {
          "duration": 0.160714218750002,
          "durationTicks": 45,
          "midi": 50,
          "name": "D3",
          "ticks": 27794,
          "time": 99.2642443541667,
          "velocity": 0.440944881889764
        },
        {
          "duration": 0.160714218749987,
          "durationTicks": 45,
          "midi": 38,
          "name": "D2",
          "ticks": 27841,
          "time": 99.4321014270834,
          "velocity": 0.511811023622047
        },
        {
          "duration": 0.160714218750002,
          "durationTicks": 45,
          "midi": 53,
          "name": "F3",
          "ticks": 27889,
          "time": 99.6035299270833,
          "velocity": 0.551181102362205
        },
        {
          "duration": 0.160714218750002,
          "durationTicks": 45,
          "midi": 50,
          "name": "D3",
          "ticks": 27889,
          "time": 99.6035299270833,
          "velocity": 0.440944881889764
        },
        {
          "duration": 0.157142791666658,
          "durationTicks": 44,
          "midi": 38,
          "name": "D2",
          "ticks": 27937,
          "time": 99.7749584270834,
          "velocity": 0.503937007874016
        },
        {
          "duration": 0.160714218750002,
          "durationTicks": 45,
          "midi": 50,
          "name": "D3",
          "ticks": 27984,
          "time": 99.9428155,
          "velocity": 0.440944881889764
        },
        {
          "duration": 0.160714218750002,
          "durationTicks": 45,
          "midi": 53,
          "name": "F3",
          "ticks": 27984,
          "time": 99.9428155,
          "velocity": 0.551181102362205
        },
        {
          "duration": 0.17142849999999,
          "durationTicks": 48,
          "midi": 38,
          "name": "D2",
          "ticks": 28032,
          "time": 100.114244,
          "velocity": 0.52755905511811
        },
        {
          "duration": 0.157142791666658,
          "durationTicks": 44,
          "midi": 53,
          "name": "F3",
          "ticks": 28083,
          "time": 100.29638678125,
          "velocity": 0.551181102362205
        },
        {
          "duration": 0.157142791666658,
          "durationTicks": 44,
          "midi": 50,
          "name": "D3",
          "ticks": 28083,
          "time": 100.29638678125,
          "velocity": 0.440944881889764
        },
        {
          "duration": 0.160714218750002,
          "durationTicks": 45,
          "midi": 38,
          "name": "D2",
          "ticks": 28130,
          "time": 100.464243854167,
          "velocity": 0.503937007874016
        },
        {
          "duration": 0.160714218749987,
          "durationTicks": 45,
          "midi": 53,
          "name": "F3",
          "ticks": 28178,
          "time": 100.635672354167,
          "velocity": 0.551181102362205
        },
        {
          "duration": 0.160714218749987,
          "durationTicks": 45,
          "midi": 50,
          "name": "D3",
          "ticks": 28178,
          "time": 100.635672354167,
          "velocity": 0.440944881889764
        },
        {
          "duration": 0.160714218750002,
          "durationTicks": 45,
          "midi": 38,
          "name": "D2",
          "ticks": 28225,
          "time": 100.803529427083,
          "velocity": 0.511811023622047
        },
        {
          "duration": 0.160714218749987,
          "durationTicks": 45,
          "midi": 53,
          "name": "F3",
          "ticks": 28273,
          "time": 100.974957927083,
          "velocity": 0.551181102362205
        },
        {
          "duration": 0.160714218749987,
          "durationTicks": 45,
          "midi": 50,
          "name": "D3",
          "ticks": 28273,
          "time": 100.974957927083,
          "velocity": 0.440944881889764
        },
        {
          "duration": 0.157142791666658,
          "durationTicks": 44,
          "midi": 38,
          "name": "D2",
          "ticks": 28321,
          "time": 101.146386427083,
          "velocity": 0.503937007874016
        },
        {
          "duration": 0.160714218750002,
          "durationTicks": 45,
          "midi": 50,
          "name": "D3",
          "ticks": 28368,
          "time": 101.3142435,
          "velocity": 0.440944881889764
        },
        {
          "duration": 0.160714218750002,
          "durationTicks": 45,
          "midi": 53,
          "name": "F3",
          "ticks": 28368,
          "time": 101.3142435,
          "velocity": 0.551181102362205
        },
        {
          "duration": 0.171428500000005,
          "durationTicks": 48,
          "midi": 38,
          "name": "D2",
          "ticks": 28416,
          "time": 101.485672,
          "velocity": 0.52755905511811
        },
        {
          "duration": 0.157142791666672,
          "durationTicks": 44,
          "midi": 53,
          "name": "F3",
          "ticks": 28467,
          "time": 101.66781478125,
          "velocity": 0.551181102362205
        },
        {
          "duration": 0.157142791666672,
          "durationTicks": 44,
          "midi": 50,
          "name": "D3",
          "ticks": 28467,
          "time": 101.66781478125,
          "velocity": 0.440944881889764
        },
        {
          "duration": 0.160714218750002,
          "durationTicks": 45,
          "midi": 38,
          "name": "D2",
          "ticks": 28514,
          "time": 101.835671854167,
          "velocity": 0.503937007874016
        },
        {
          "duration": 0.160714218750002,
          "durationTicks": 45,
          "midi": 53,
          "name": "F3",
          "ticks": 28562,
          "time": 102.007100354167,
          "velocity": 0.551181102362205
        },
        {
          "duration": 0.160714218750002,
          "durationTicks": 45,
          "midi": 50,
          "name": "D3",
          "ticks": 28562,
          "time": 102.007100354167,
          "velocity": 0.440944881889764
        },
        {
          "duration": 0.160714218750002,
          "durationTicks": 45,
          "midi": 38,
          "name": "D2",
          "ticks": 28609,
          "time": 102.174957427083,
          "velocity": 0.511811023622047
        },
        {
          "duration": 0.160714218750002,
          "durationTicks": 45,
          "midi": 53,
          "name": "F3",
          "ticks": 28657,
          "time": 102.346385927083,
          "velocity": 0.551181102362205
        },
        {
          "duration": 0.160714218750002,
          "durationTicks": 45,
          "midi": 50,
          "name": "D3",
          "ticks": 28657,
          "time": 102.346385927083,
          "velocity": 0.440944881889764
        },
        {
          "duration": 0.157142791666658,
          "durationTicks": 44,
          "midi": 38,
          "name": "D2",
          "ticks": 28705,
          "time": 102.517814427083,
          "velocity": 0.503937007874016
        },
        {
          "duration": 0.160714218750002,
          "durationTicks": 45,
          "midi": 50,
          "name": "D3",
          "ticks": 28752,
          "time": 102.6856715,
          "velocity": 0.440944881889764
        },
        {
          "duration": 0.160714218750002,
          "durationTicks": 45,
          "midi": 53,
          "name": "F3",
          "ticks": 28752,
          "time": 102.6856715,
          "velocity": 0.551181102362205
        },
        {
          "duration": 0.171428500000005,
          "durationTicks": 48,
          "midi": 38,
          "name": "D2",
          "ticks": 28800,
          "time": 102.8571,
          "velocity": 0.52755905511811
        },
        {
          "duration": 0.157142791666658,
          "durationTicks": 44,
          "midi": 50,
          "name": "D3",
          "ticks": 28851,
          "time": 103.03924278125,
          "velocity": 0.440944881889764
        },
        {
          "duration": 0.157142791666658,
          "durationTicks": 44,
          "midi": 53,
          "name": "F3",
          "ticks": 28851,
          "time": 103.03924278125,
          "velocity": 0.551181102362205
        },
        {
          "duration": 0.160714218750002,
          "durationTicks": 45,
          "midi": 38,
          "name": "D2",
          "ticks": 28898,
          "time": 103.207099854167,
          "velocity": 0.503937007874016
        },
        {
          "duration": 0.160714218750002,
          "durationTicks": 45,
          "midi": 50,
          "name": "D3",
          "ticks": 28946,
          "time": 103.378528354167,
          "velocity": 0.440944881889764
        },
        {
          "duration": 0.160714218750002,
          "durationTicks": 45,
          "midi": 53,
          "name": "F3",
          "ticks": 28946,
          "time": 103.378528354167,
          "velocity": 0.551181102362205
        },
        {
          "duration": 0.160714218750002,
          "durationTicks": 45,
          "midi": 38,
          "name": "D2",
          "ticks": 28993,
          "time": 103.546385427083,
          "velocity": 0.511811023622047
        },
        {
          "duration": 0.160714218750002,
          "durationTicks": 45,
          "midi": 50,
          "name": "D3",
          "ticks": 29041,
          "time": 103.717813927083,
          "velocity": 0.440944881889764
        },
        {
          "duration": 0.160714218750002,
          "durationTicks": 45,
          "midi": 53,
          "name": "F3",
          "ticks": 29041,
          "time": 103.717813927083,
          "velocity": 0.551181102362205
        },
        {
          "duration": 0.157142791666658,
          "durationTicks": 44,
          "midi": 36,
          "name": "C2",
          "ticks": 29089,
          "time": 103.889242427083,
          "velocity": 0.496062992125984
        },
        {
          "duration": 0.160714218750002,
          "durationTicks": 45,
          "midi": 52,
          "name": "E3",
          "ticks": 29136,
          "time": 104.0570995,
          "velocity": 0.551181102362205
        },
        {
          "duration": 0.160714218750002,
          "durationTicks": 45,
          "midi": 48,
          "name": "C3",
          "ticks": 29136,
          "time": 104.0570995,
          "velocity": 0.440944881889764
        },
        {
          "duration": 0.17142849999999,
          "durationTicks": 48,
          "midi": 34,
          "name": "A#1",
          "ticks": 29184,
          "time": 104.228528,
          "velocity": 0.519685039370079
        },
        {
          "duration": 0.157142791666658,
          "durationTicks": 44,
          "midi": 50,
          "name": "D3",
          "ticks": 29235,
          "time": 104.41067078125,
          "velocity": 0.551181102362205
        },
        {
          "duration": 0.157142791666658,
          "durationTicks": 44,
          "midi": 46,
          "name": "A#2",
          "ticks": 29235,
          "time": 104.41067078125,
          "velocity": 0.440944881889764
        },
        {
          "duration": 0.160714218750002,
          "durationTicks": 45,
          "midi": 34,
          "name": "A#1",
          "ticks": 29282,
          "time": 104.578527854167,
          "velocity": 0.496062992125984
        },
        {
          "duration": 0.160714218750002,
          "durationTicks": 45,
          "midi": 46,
          "name": "A#2",
          "ticks": 29330,
          "time": 104.749956354167,
          "velocity": 0.440944881889764
        },
        {
          "duration": 0.160714218750002,
          "durationTicks": 45,
          "midi": 50,
          "name": "D3",
          "ticks": 29330,
          "time": 104.749956354167,
          "velocity": 0.551181102362205
        },
        {
          "duration": 0.160714218750002,
          "durationTicks": 45,
          "midi": 34,
          "name": "A#1",
          "ticks": 29377,
          "time": 104.917813427083,
          "velocity": 0.503937007874016
        },
        {
          "duration": 0.160714218750002,
          "durationTicks": 45,
          "midi": 50,
          "name": "D3",
          "ticks": 29425,
          "time": 105.089241927083,
          "velocity": 0.551181102362205
        },
        {
          "duration": 0.160714218750002,
          "durationTicks": 45,
          "midi": 46,
          "name": "A#2",
          "ticks": 29425,
          "time": 105.089241927083,
          "velocity": 0.440944881889764
        },
        {
          "duration": 0.157142791666672,
          "durationTicks": 44,
          "midi": 34,
          "name": "A#1",
          "ticks": 29473,
          "time": 105.260670427083,
          "velocity": 0.496062992125984
        },
        {
          "duration": 0.160714218750002,
          "durationTicks": 45,
          "midi": 50,
          "name": "D3",
          "ticks": 29520,
          "time": 105.4285275,
          "velocity": 0.551181102362205
        },
        {
          "duration": 0.160714218750002,
          "durationTicks": 45,
          "midi": 46,
          "name": "A#2",
          "ticks": 29520,
          "time": 105.4285275,
          "velocity": 0.440944881889764
        },
        {
          "duration": 0.171428500000005,
          "durationTicks": 48,
          "midi": 34,
          "name": "A#1",
          "ticks": 29568,
          "time": 105.599956,
          "velocity": 0.519685039370079
        },
        {
          "duration": 0.157142791666658,
          "durationTicks": 44,
          "midi": 46,
          "name": "A#2",
          "ticks": 29619,
          "time": 105.78209878125,
          "velocity": 0.440944881889764
        },
        {
          "duration": 0.157142791666658,
          "durationTicks": 44,
          "midi": 50,
          "name": "D3",
          "ticks": 29619,
          "time": 105.78209878125,
          "velocity": 0.551181102362205
        },
        {
          "duration": 0.160714218750002,
          "durationTicks": 45,
          "midi": 34,
          "name": "A#1",
          "ticks": 29666,
          "time": 105.949955854167,
          "velocity": 0.496062992125984
        },
        {
          "duration": 0.160714218750002,
          "durationTicks": 45,
          "midi": 50,
          "name": "D3",
          "ticks": 29714,
          "time": 106.121384354167,
          "velocity": 0.551181102362205
        },
        {
          "duration": 0.160714218750002,
          "durationTicks": 45,
          "midi": 46,
          "name": "A#2",
          "ticks": 29714,
          "time": 106.121384354167,
          "velocity": 0.440944881889764
        },
        {
          "duration": 0.160714218750002,
          "durationTicks": 45,
          "midi": 34,
          "name": "A#1",
          "ticks": 29761,
          "time": 106.289241427083,
          "velocity": 0.503937007874016
        },
        {
          "duration": 0.160714218750002,
          "durationTicks": 45,
          "midi": 46,
          "name": "A#2",
          "ticks": 29809,
          "time": 106.460669927083,
          "velocity": 0.440944881889764
        },
        {
          "duration": 0.160714218750002,
          "durationTicks": 45,
          "midi": 50,
          "name": "D3",
          "ticks": 29809,
          "time": 106.460669927083,
          "velocity": 0.551181102362205
        },
        {
          "duration": 0.157142791666658,
          "durationTicks": 44,
          "midi": 34,
          "name": "A#1",
          "ticks": 29857,
          "time": 106.632098427083,
          "velocity": 0.496062992125984
        },
        {
          "duration": 0.160714218750002,
          "durationTicks": 45,
          "midi": 46,
          "name": "A#2",
          "ticks": 29904,
          "time": 106.7999555,
          "velocity": 0.440944881889764
        },
        {
          "duration": 0.160714218750002,
          "durationTicks": 45,
          "midi": 50,
          "name": "D3",
          "ticks": 29904,
          "time": 106.7999555,
          "velocity": 0.551181102362205
        },
        {
          "duration": 0.171428500000005,
          "durationTicks": 48,
          "midi": 34,
          "name": "A#1",
          "ticks": 29952,
          "time": 106.971384,
          "velocity": 0.519685039370079
        },
        {
          "duration": 0.157142791666658,
          "durationTicks": 44,
          "midi": 46,
          "name": "A#2",
          "ticks": 30003,
          "time": 107.15352678125,
          "velocity": 0.440944881889764
        },
        {
          "duration": 0.157142791666658,
          "durationTicks": 44,
          "midi": 50,
          "name": "D3",
          "ticks": 30003,
          "time": 107.15352678125,
          "velocity": 0.551181102362205
        },
        {
          "duration": 0.160714218750002,
          "durationTicks": 45,
          "midi": 34,
          "name": "A#1",
          "ticks": 30050,
          "time": 107.321383854167,
          "velocity": 0.496062992125984
        },
        {
          "duration": 0.160714218749987,
          "durationTicks": 45,
          "midi": 50,
          "name": "D3",
          "ticks": 30098,
          "time": 107.492812354167,
          "velocity": 0.551181102362205
        },
        {
          "duration": 0.160714218749987,
          "durationTicks": 45,
          "midi": 46,
          "name": "A#2",
          "ticks": 30098,
          "time": 107.492812354167,
          "velocity": 0.440944881889764
        },
        {
          "duration": 0.160714218750002,
          "durationTicks": 45,
          "midi": 34,
          "name": "A#1",
          "ticks": 30145,
          "time": 107.660669427083,
          "velocity": 0.503937007874016
        },
        {
          "duration": 0.160714218749987,
          "durationTicks": 45,
          "midi": 46,
          "name": "A#2",
          "ticks": 30193,
          "time": 107.832097927083,
          "velocity": 0.440944881889764
        },
        {
          "duration": 0.160714218749987,
          "durationTicks": 45,
          "midi": 50,
          "name": "D3",
          "ticks": 30193,
          "time": 107.832097927083,
          "velocity": 0.551181102362205
        },
        {
          "duration": 0.157142791666658,
          "durationTicks": 44,
          "midi": 34,
          "name": "A#1",
          "ticks": 30241,
          "time": 108.003526427083,
          "velocity": 0.496062992125984
        },
        {
          "duration": 0.160714218750002,
          "durationTicks": 45,
          "midi": 46,
          "name": "A#2",
          "ticks": 30288,
          "time": 108.1713835,
          "velocity": 0.440944881889764
        },
        {
          "duration": 0.160714218750002,
          "durationTicks": 45,
          "midi": 50,
          "name": "D3",
          "ticks": 30288,
          "time": 108.1713835,
          "velocity": 0.551181102362205
        },
        {
          "duration": 0.171428500000005,
          "durationTicks": 48,
          "midi": 33,
          "name": "A1",
          "ticks": 30336,
          "time": 108.342812,
          "velocity": 0.511811023622047
        },
        {
          "duration": 0.157142791666658,
          "durationTicks": 44,
          "midi": 48,
          "name": "C3",
          "ticks": 30387,
          "time": 108.52495478125,
          "velocity": 0.543307086614173
        },
        {
          "duration": 0.157142791666658,
          "durationTicks": 44,
          "midi": 45,
          "name": "A2",
          "ticks": 30387,
          "time": 108.52495478125,
          "velocity": 0.440944881889764
        },
        {
          "duration": 0.160714218750002,
          "durationTicks": 45,
          "midi": 33,
          "name": "A1",
          "ticks": 30434,
          "time": 108.692811854167,
          "velocity": 0.488188976377953
        },
        {
          "duration": 0.160714218750002,
          "durationTicks": 45,
          "midi": 45,
          "name": "A2",
          "ticks": 30482,
          "time": 108.864240354167,
          "velocity": 0.440944881889764
        },
        {
          "duration": 0.160714218750002,
          "durationTicks": 45,
          "midi": 48,
          "name": "C3",
          "ticks": 30482,
          "time": 108.864240354167,
          "velocity": 0.543307086614173
        },
        {
          "duration": 0.160714218750002,
          "durationTicks": 45,
          "midi": 36,
          "name": "C2",
          "ticks": 30529,
          "time": 109.032097427083,
          "velocity": 0.503937007874016
        },
        {
          "duration": 0.160714218750002,
          "durationTicks": 45,
          "midi": 48,
          "name": "C3",
          "ticks": 30577,
          "time": 109.203525927083,
          "velocity": 0.503937007874016
        },
        {
          "duration": 0.157142791666658,
          "durationTicks": 44,
          "midi": 37,
          "name": "C#2",
          "ticks": 30625,
          "time": 109.374954427083,
          "velocity": 0.503937007874016
        },
        {
          "duration": 0.160714218749987,
          "durationTicks": 45,
          "midi": 49,
          "name": "C#3",
          "ticks": 30672,
          "time": 109.5428115,
          "velocity": 0.503937007874016
        },
        {
          "duration": 0.171428500000005,
          "durationTicks": 48,
          "midi": 38,
          "name": "D2",
          "ticks": 30720,
          "time": 109.71424,
          "velocity": 0.52755905511811
        },
        {
          "duration": 0.157142791666658,
          "durationTicks": 44,
          "midi": 50,
          "name": "D3",
          "ticks": 30771,
          "time": 109.89638278125,
          "velocity": 0.440944881889764
        },
        {
          "duration": 0.157142791666658,
          "durationTicks": 44,
          "midi": 53,
          "name": "F3",
          "ticks": 30771,
          "time": 109.89638278125,
          "velocity": 0.551181102362205
        },
        {
          "duration": 0.160714218750002,
          "durationTicks": 45,
          "midi": 38,
          "name": "D2",
          "ticks": 30818,
          "time": 110.064239854167,
          "velocity": 0.503937007874016
        },
        {
          "duration": 0.160714218750002,
          "durationTicks": 45,
          "midi": 50,
          "name": "D3",
          "ticks": 30866,
          "time": 110.235668354167,
          "velocity": 0.440944881889764
        },
        {
          "duration": 0.160714218750002,
          "durationTicks": 45,
          "midi": 53,
          "name": "F3",
          "ticks": 30866,
          "time": 110.235668354167,
          "velocity": 0.551181102362205
        },
        {
          "duration": 0.160714218750002,
          "durationTicks": 45,
          "midi": 38,
          "name": "D2",
          "ticks": 30913,
          "time": 110.403525427083,
          "velocity": 0.511811023622047
        },
        {
          "duration": 0.160714218750002,
          "durationTicks": 45,
          "midi": 50,
          "name": "D3",
          "ticks": 30961,
          "time": 110.574953927083,
          "velocity": 0.440944881889764
        },
        {
          "duration": 0.160714218750002,
          "durationTicks": 45,
          "midi": 53,
          "name": "F3",
          "ticks": 30961,
          "time": 110.574953927083,
          "velocity": 0.551181102362205
        },
        {
          "duration": 0.157142791666658,
          "durationTicks": 44,
          "midi": 38,
          "name": "D2",
          "ticks": 31009,
          "time": 110.746382427083,
          "velocity": 0.503937007874016
        },
        {
          "duration": 0.160714218750002,
          "durationTicks": 45,
          "midi": 53,
          "name": "F3",
          "ticks": 31056,
          "time": 110.9142395,
          "velocity": 0.551181102362205
        },
        {
          "duration": 0.160714218750002,
          "durationTicks": 45,
          "midi": 50,
          "name": "D3",
          "ticks": 31056,
          "time": 110.9142395,
          "velocity": 0.440944881889764
        },
        {
          "duration": 0.17142849999999,
          "durationTicks": 48,
          "midi": 38,
          "name": "D2",
          "ticks": 31104,
          "time": 111.085668,
          "velocity": 0.52755905511811
        },
        {
          "duration": 0.157142791666658,
          "durationTicks": 44,
          "midi": 53,
          "name": "F3",
          "ticks": 31155,
          "time": 111.26781078125,
          "velocity": 0.551181102362205
        },
        {
          "duration": 0.157142791666658,
          "durationTicks": 44,
          "midi": 50,
          "name": "D3",
          "ticks": 31155,
          "time": 111.26781078125,
          "velocity": 0.440944881889764
        },
        {
          "duration": 0.160714218750002,
          "durationTicks": 45,
          "midi": 38,
          "name": "D2",
          "ticks": 31202,
          "time": 111.435667854167,
          "velocity": 0.503937007874016
        },
        {
          "duration": 0.160714218750002,
          "durationTicks": 45,
          "midi": 53,
          "name": "F3",
          "ticks": 31250,
          "time": 111.607096354167,
          "velocity": 0.551181102362205
        },
        {
          "duration": 0.160714218750002,
          "durationTicks": 45,
          "midi": 50,
          "name": "D3",
          "ticks": 31250,
          "time": 111.607096354167,
          "velocity": 0.440944881889764
        },
        {
          "duration": 0.160714218750002,
          "durationTicks": 45,
          "midi": 38,
          "name": "D2",
          "ticks": 31297,
          "time": 111.774953427083,
          "velocity": 0.511811023622047
        },
        {
          "duration": 0.160714218750002,
          "durationTicks": 45,
          "midi": 53,
          "name": "F3",
          "ticks": 31345,
          "time": 111.946381927083,
          "velocity": 0.551181102362205
        },
        {
          "duration": 0.160714218750002,
          "durationTicks": 45,
          "midi": 50,
          "name": "D3",
          "ticks": 31345,
          "time": 111.946381927083,
          "velocity": 0.440944881889764
        },
        {
          "duration": 0.157142791666672,
          "durationTicks": 44,
          "midi": 38,
          "name": "D2",
          "ticks": 31393,
          "time": 112.117810427083,
          "velocity": 0.503937007874016
        },
        {
          "duration": 0.160714218750002,
          "durationTicks": 45,
          "midi": 50,
          "name": "D3",
          "ticks": 31440,
          "time": 112.2856675,
          "velocity": 0.440944881889764
        },
        {
          "duration": 0.160714218750002,
          "durationTicks": 45,
          "midi": 53,
          "name": "F3",
          "ticks": 31440,
          "time": 112.2856675,
          "velocity": 0.551181102362205
        },
        {
          "duration": 0.171428500000005,
          "durationTicks": 48,
          "midi": 38,
          "name": "D2",
          "ticks": 31488,
          "time": 112.457096,
          "velocity": 0.52755905511811
        },
        {
          "duration": 0.157142791666672,
          "durationTicks": 44,
          "midi": 50,
          "name": "D3",
          "ticks": 31539,
          "time": 112.63923878125,
          "velocity": 0.440944881889764
        },
        {
          "duration": 0.157142791666672,
          "durationTicks": 44,
          "midi": 53,
          "name": "F3",
          "ticks": 31539,
          "time": 112.63923878125,
          "velocity": 0.551181102362205
        },
        {
          "duration": 0.160714218750002,
          "durationTicks": 45,
          "midi": 38,
          "name": "D2",
          "ticks": 31586,
          "time": 112.807095854167,
          "velocity": 0.503937007874016
        },
        {
          "duration": 0.160714218750002,
          "durationTicks": 45,
          "midi": 50,
          "name": "D3",
          "ticks": 31634,
          "time": 112.978524354167,
          "velocity": 0.440944881889764
        },
        {
          "duration": 0.160714218750002,
          "durationTicks": 45,
          "midi": 53,
          "name": "F3",
          "ticks": 31634,
          "time": 112.978524354167,
          "velocity": 0.551181102362205
        },
        {
          "duration": 0.160714218750002,
          "durationTicks": 45,
          "midi": 38,
          "name": "D2",
          "ticks": 31681,
          "time": 113.146381427083,
          "velocity": 0.511811023622047
        },
        {
          "duration": 0.160714218750002,
          "durationTicks": 45,
          "midi": 50,
          "name": "D3",
          "ticks": 31729,
          "time": 113.317809927083,
          "velocity": 0.440944881889764
        },
        {
          "duration": 0.160714218750002,
          "durationTicks": 45,
          "midi": 53,
          "name": "F3",
          "ticks": 31729,
          "time": 113.317809927083,
          "velocity": 0.551181102362205
        },
        {
          "duration": 0.157142791666658,
          "durationTicks": 44,
          "midi": 38,
          "name": "D2",
          "ticks": 31777,
          "time": 113.489238427083,
          "velocity": 0.503937007874016
        },
        {
          "duration": 0.160714218750002,
          "durationTicks": 45,
          "midi": 53,
          "name": "F3",
          "ticks": 31824,
          "time": 113.6570955,
          "velocity": 0.551181102362205
        },
        {
          "duration": 0.160714218750002,
          "durationTicks": 45,
          "midi": 50,
          "name": "D3",
          "ticks": 31824,
          "time": 113.6570955,
          "velocity": 0.440944881889764
        },
        {
          "duration": 0.171428500000005,
          "durationTicks": 48,
          "midi": 38,
          "name": "D2",
          "ticks": 31872,
          "time": 113.828524,
          "velocity": 0.52755905511811
        },
        {
          "duration": 0.157142791666658,
          "durationTicks": 44,
          "midi": 53,
          "name": "F3",
          "ticks": 31923,
          "time": 114.01066678125,
          "velocity": 0.551181102362205
        },
        {
          "duration": 0.157142791666658,
          "durationTicks": 44,
          "midi": 50,
          "name": "D3",
          "ticks": 31923,
          "time": 114.01066678125,
          "velocity": 0.440944881889764
        },
        {
          "duration": 0.160714218750002,
          "durationTicks": 45,
          "midi": 38,
          "name": "D2",
          "ticks": 31970,
          "time": 114.178523854167,
          "velocity": 0.503937007874016
        },
        {
          "duration": 0.160714218749987,
          "durationTicks": 45,
          "midi": 53,
          "name": "F3",
          "ticks": 32018,
          "time": 114.349952354167,
          "velocity": 0.551181102362205
        },
        {
          "duration": 0.160714218749987,
          "durationTicks": 45,
          "midi": 50,
          "name": "D3",
          "ticks": 32018,
          "time": 114.349952354167,
          "velocity": 0.440944881889764
        },
        {
          "duration": 0.160714218750002,
          "durationTicks": 45,
          "midi": 38,
          "name": "D2",
          "ticks": 32065,
          "time": 114.517809427083,
          "velocity": 0.511811023622047
        },
        {
          "duration": 0.160714218749987,
          "durationTicks": 45,
          "midi": 53,
          "name": "F3",
          "ticks": 32113,
          "time": 114.689237927083,
          "velocity": 0.551181102362205
        },
        {
          "duration": 0.160714218749987,
          "durationTicks": 45,
          "midi": 50,
          "name": "D3",
          "ticks": 32113,
          "time": 114.689237927083,
          "velocity": 0.440944881889764
        },
        {
          "duration": 0.157142791666658,
          "durationTicks": 44,
          "midi": 36,
          "name": "C2",
          "ticks": 32161,
          "time": 114.860666427083,
          "velocity": 0.496062992125984
        },
        {
          "duration": 0.160714218750002,
          "durationTicks": 45,
          "midi": 48,
          "name": "C3",
          "ticks": 32208,
          "time": 115.0285235,
          "velocity": 0.440944881889764
        },
        {
          "duration": 0.160714218750002,
          "durationTicks": 45,
          "midi": 52,
          "name": "E3",
          "ticks": 32208,
          "time": 115.0285235,
          "velocity": 0.551181102362205
        },
        {
          "duration": 0.17142849999999,
          "durationTicks": 48,
          "midi": 34,
          "name": "A#1",
          "ticks": 32256,
          "time": 115.199952,
          "velocity": 0.519685039370079
        },
        {
          "duration": 0.157142791666658,
          "durationTicks": 44,
          "midi": 46,
          "name": "A#2",
          "ticks": 32307,
          "time": 115.38209478125,
          "velocity": 0.440944881889764
        },
        {
          "duration": 0.157142791666658,
          "durationTicks": 44,
          "midi": 50,
          "name": "D3",
          "ticks": 32307,
          "time": 115.38209478125,
          "velocity": 0.551181102362205
        },
        {
          "duration": 0.160714218750002,
          "durationTicks": 45,
          "midi": 34,
          "name": "A#1",
          "ticks": 32354,
          "time": 115.549951854167,
          "velocity": 0.496062992125984
        },
        {
          "duration": 0.160714218750002,
          "durationTicks": 45,
          "midi": 50,
          "name": "D3",
          "ticks": 32402,
          "time": 115.721380354167,
          "velocity": 0.551181102362205
        },
        {
          "duration": 0.160714218750002,
          "durationTicks": 45,
          "midi": 46,
          "name": "A#2",
          "ticks": 32402,
          "time": 115.721380354167,
          "velocity": 0.440944881889764
        },
        {
          "duration": 0.160714218750002,
          "durationTicks": 45,
          "midi": 34,
          "name": "A#1",
          "ticks": 32449,
          "time": 115.889237427083,
          "velocity": 0.503937007874016
        },
        {
          "duration": 0.160714218750002,
          "durationTicks": 45,
          "midi": 46,
          "name": "A#2",
          "ticks": 32497,
          "time": 116.060665927083,
          "velocity": 0.440944881889764
        },
        {
          "duration": 0.160714218750002,
          "durationTicks": 45,
          "midi": 50,
          "name": "D3",
          "ticks": 32497,
          "time": 116.060665927083,
          "velocity": 0.551181102362205
        },
        {
          "duration": 0.157142791666658,
          "durationTicks": 44,
          "midi": 34,
          "name": "A#1",
          "ticks": 32545,
          "time": 116.232094427083,
          "velocity": 0.496062992125984
        },
        {
          "duration": 0.160714218749987,
          "durationTicks": 45,
          "midi": 46,
          "name": "A#2",
          "ticks": 32592,
          "time": 116.3999515,
          "velocity": 0.440944881889764
        },
        {
          "duration": 0.160714218749987,
          "durationTicks": 45,
          "midi": 50,
          "name": "D3",
          "ticks": 32592,
          "time": 116.3999515,
          "velocity": 0.551181102362205
        },
        {
          "duration": 0.171428500000005,
          "durationTicks": 48,
          "midi": 34,
          "name": "A#1",
          "ticks": 32640,
          "time": 116.57138,
          "velocity": 0.519685039370079
        },
        {
          "duration": 0.157142791666658,
          "durationTicks": 44,
          "midi": 50,
          "name": "D3",
          "ticks": 32691,
          "time": 116.75352278125,
          "velocity": 0.551181102362205
        },
        {
          "duration": 0.157142791666658,
          "durationTicks": 44,
          "midi": 46,
          "name": "A#2",
          "ticks": 32691,
          "time": 116.75352278125,
          "velocity": 0.440944881889764
        },
        {
          "duration": 0.160714218750002,
          "durationTicks": 45,
          "midi": 34,
          "name": "A#1",
          "ticks": 32738,
          "time": 116.921379854167,
          "velocity": 0.496062992125984
        },
        {
          "duration": 0.160714218750002,
          "durationTicks": 45,
          "midi": 46,
          "name": "A#2",
          "ticks": 32786,
          "time": 117.092808354167,
          "velocity": 0.440944881889764
        },
        {
          "duration": 0.160714218750002,
          "durationTicks": 45,
          "midi": 50,
          "name": "D3",
          "ticks": 32786,
          "time": 117.092808354167,
          "velocity": 0.551181102362205
        },
        {
          "duration": 0.160714218750002,
          "durationTicks": 45,
          "midi": 34,
          "name": "A#1",
          "ticks": 32833,
          "time": 117.260665427083,
          "velocity": 0.503937007874016
        },
        {
          "duration": 0.160714218750002,
          "durationTicks": 45,
          "midi": 50,
          "name": "D3",
          "ticks": 32881,
          "time": 117.432093927083,
          "velocity": 0.551181102362205
        },
        {
          "duration": 0.160714218750002,
          "durationTicks": 45,
          "midi": 46,
          "name": "A#2",
          "ticks": 32881,
          "time": 117.432093927083,
          "velocity": 0.440944881889764
        },
        {
          "duration": 0.157142791666658,
          "durationTicks": 44,
          "midi": 34,
          "name": "A#1",
          "ticks": 32929,
          "time": 117.603522427083,
          "velocity": 0.496062992125984
        },
        {
          "duration": 0.160714218750002,
          "durationTicks": 45,
          "midi": 50,
          "name": "D3",
          "ticks": 32976,
          "time": 117.7713795,
          "velocity": 0.551181102362205
        },
        {
          "duration": 0.160714218750002,
          "durationTicks": 45,
          "midi": 46,
          "name": "A#2",
          "ticks": 32976,
          "time": 117.7713795,
          "velocity": 0.440944881889764
        },
        {
          "duration": 0.0928571041666544,
          "durationTicks": 26,
          "midi": 39,
          "name": "D#2",
          "ticks": 33024,
          "time": 117.942808,
          "velocity": 0.47244094488189
        },
        {
          "duration": 0.0928571041666544,
          "durationTicks": 26,
          "midi": 51,
          "name": "D#3",
          "ticks": 33024,
          "time": 117.942808,
          "velocity": 0.590551181102362
        },
        {
          "duration": 0.0785713958333361,
          "durationTicks": 22,
          "midi": 39,
          "name": "D#2",
          "ticks": 33051,
          "time": 118.03923653125,
          "velocity": 0.433070866141732
        },
        {
          "duration": 0.0785713958333361,
          "durationTicks": 22,
          "midi": 51,
          "name": "D#3",
          "ticks": 33051,
          "time": 118.03923653125,
          "velocity": 0.551181102362205
        },
        {
          "duration": 0.0821428229166799,
          "durationTicks": 23,
          "midi": 38,
          "name": "D2",
          "ticks": 33098,
          "time": 118.207093604167,
          "velocity": 0.433070866141732
        },
        {
          "duration": 0.0821428229166799,
          "durationTicks": 23,
          "midi": 50,
          "name": "D3",
          "ticks": 33098,
          "time": 118.207093604167,
          "velocity": 0.551181102362205
        },
        {
          "duration": 0.0821428229166799,
          "durationTicks": 23,
          "midi": 38,
          "name": "D2",
          "ticks": 33122,
          "time": 118.292807854167,
          "velocity": 0.440944881889764
        },
        {
          "duration": 0.0821428229166799,
          "durationTicks": 23,
          "midi": 50,
          "name": "D3",
          "ticks": 33122,
          "time": 118.292807854167,
          "velocity": 0.559055118110236
        },
        {
          "duration": 0.0749999687499923,
          "durationTicks": 21,
          "midi": 36,
          "name": "C2",
          "ticks": 33170,
          "time": 118.464236354167,
          "velocity": 0.425196850393701
        },
        {
          "duration": 0.0749999687499923,
          "durationTicks": 21,
          "midi": 48,
          "name": "C3",
          "ticks": 33170,
          "time": 118.464236354167,
          "velocity": 0.543307086614173
        },
        {
          "duration": 0.0821428229166514,
          "durationTicks": 23,
          "midi": 36,
          "name": "C2",
          "ticks": 33193,
          "time": 118.546379177083,
          "velocity": 0.425196850393701
        },
        {
          "duration": 0.0821428229166514,
          "durationTicks": 23,
          "midi": 48,
          "name": "C3",
          "ticks": 33193,
          "time": 118.546379177083,
          "velocity": 0.543307086614173
        },
        {
          "duration": 0.160714218750002,
          "durationTicks": 45,
          "midi": 50,
          "name": "D3",
          "ticks": 33265,
          "time": 118.803521927083,
          "velocity": 0.551181102362205
        },
        {
          "duration": 0.160714218750002,
          "durationTicks": 45,
          "midi": 38,
          "name": "D2",
          "ticks": 33265,
          "time": 118.803521927083,
          "velocity": 0.433070866141732
        },
        {
          "duration": 0.157142791666672,
          "durationTicks": 44,
          "midi": 51,
          "name": "D#3",
          "ticks": 33313,
          "time": 118.974950427083,
          "velocity": 0.559055118110236
        },
        {
          "duration": 0.157142791666672,
          "durationTicks": 44,
          "midi": 39,
          "name": "D#2",
          "ticks": 33313,
          "time": 118.974950427083,
          "velocity": 0.440944881889764
        },
        {
          "duration": 0.160714218750002,
          "durationTicks": 45,
          "midi": 48,
          "name": "C3",
          "ticks": 33360,
          "time": 119.1428075,
          "velocity": 0.543307086614173
        },
        {
          "duration": 0.160714218750002,
          "durationTicks": 45,
          "midi": 36,
          "name": "C2",
          "ticks": 33360,
          "time": 119.1428075,
          "velocity": 0.425196850393701
        },
        {
          "duration": 0.171428500000005,
          "durationTicks": 48,
          "midi": 38,
          "name": "D2",
          "ticks": 33408,
          "time": 119.314236,
          "velocity": 0.47244094488189
        },
        {
          "duration": 0.171428500000005,
          "durationTicks": 48,
          "midi": 50,
          "name": "D3",
          "ticks": 33408,
          "time": 119.314236,
          "velocity": 0.590551181102362
        },
        {
          "duration": 0.157142791666672,
          "durationTicks": 44,
          "midi": 38,
          "name": "D2",
          "ticks": 33459,
          "time": 119.49637878125,
          "velocity": 0.433070866141732
        },
        {
          "duration": 0.157142791666672,
          "durationTicks": 44,
          "midi": 50,
          "name": "D3",
          "ticks": 33459,
          "time": 119.49637878125,
          "velocity": 0.519685039370079
        },
        {
          "duration": 0.160714218750002,
          "durationTicks": 45,
          "midi": 38,
          "name": "D2",
          "ticks": 33506,
          "time": 119.664235854167,
          "velocity": 0.440944881889764
        },
        {
          "duration": 0.160714218750002,
          "durationTicks": 45,
          "midi": 50,
          "name": "D3",
          "ticks": 33506,
          "time": 119.664235854167,
          "velocity": 0.559055118110236
        },
        {
          "duration": 0.0749999687500065,
          "durationTicks": 21,
          "midi": 36,
          "name": "C2",
          "ticks": 33554,
          "time": 119.835664354167,
          "velocity": 0.425196850393701
        },
        {
          "duration": 0.0749999687500065,
          "durationTicks": 21,
          "midi": 48,
          "name": "C3",
          "ticks": 33554,
          "time": 119.835664354167,
          "velocity": 0.543307086614173
        },
        {
          "duration": 0.0821428229166656,
          "durationTicks": 23,
          "midi": 38,
          "name": "D2",
          "ticks": 33577,
          "time": 119.917807177083,
          "velocity": 0.433070866141732
        },
        {
          "duration": 0.0821428229166656,
          "durationTicks": 23,
          "midi": 50,
          "name": "D3",
          "ticks": 33577,
          "time": 119.917807177083,
          "velocity": 0.551181102362205
        },
        {
          "duration": 0.157142791666658,
          "durationTicks": 44,
          "midi": 26,
          "name": "D1",
          "ticks": 33697,
          "time": 120.346378427083,
          "velocity": 0.503937007874016
        }
      ]
    },
    {
      "channel": 0,
      "controlChanges": {
        "6": [
          {
            "number": 6,
            "ticks": 0,
            "time": 0,
            "value": 0.094488188976378
          }
        ],
        "7": [
          {
            "number": 7,
            "ticks": 0,
            "time": 0,
            "value": 1
          },
          {
            "number": 7,
            "ticks": 0,
            "time": 0,
            "value": 1
          }
        ],
        "10": [
          {
            "number": 10,
            "ticks": 0,
            "time": 0,
            "value": 0.503937007874016
          },
          {
            "number": 10,
            "ticks": 0,
            "time": 0,
            "value": 0.503937007874016
          }
        ],
        "100": [
          {
            "number": 100,
            "ticks": 0,
            "time": 0,
            "value": 0
          }
        ],
        "101": [
          {
            "number": 101,
            "ticks": 0,
            "time": 0,
            "value": 0
          }
        ]
      },
      "pitchBends": [
        {
          "ticks": 0,
          "time": 0,
          "value": 0
        },
        {
          "ticks": 0,
          "time": 0,
          "value": 0
        }
      ],
      "instrument": {
        "family": "piano",
        "number": 0,
        "name": "acoustic grand piano"
      },
      "name": "MIDI out #8",
      "notes": [],
      "endOfTrackTicks": 34177
    },
    {
      "channel": 10,
      "controlChanges": {
        "6": [
          {
            "number": 6,
            "ticks": 0,
            "time": 0,
            "value": 0.094488188976378
          },
          {
            "number": 6,
            "ticks": 0,
            "time": 0,
            "value": 0.094488188976378
          },
          {
            "number": 6,
            "ticks": 34176,
            "time": 122.057092,
            "value": 0.094488188976378
          },
          {
            "number": 6,
            "ticks": 34177,
            "time": 122.060663427083,
            "value": 0.094488188976378
          },
          {
            "number": 6,
            "ticks": 34177,
            "time": 122.060663427083,
            "value": 0.094488188976378
          }
        ],
        "7": [
          {
            "number": 7,
            "ticks": 0,
            "time": 0,
            "value": 1
          },
          {
            "number": 7,
            "ticks": 0,
            "time": 0,
            "value": 1
          },
          {
            "number": 7,
            "ticks": 34176,
            "time": 122.057092,
            "value": 1
          },
          {
            "number": 7,
            "ticks": 34177,
            "time": 122.060663427083,
            "value": 1
          },
          {
            "number": 7,
            "ticks": 34177,
            "time": 122.060663427083,
            "value": 1
          }
        ],
        "10": [
          {
            "number": 10,
            "ticks": 0,
            "time": 0,
            "value": 0.503937007874016
          },
          {
            "number": 10,
            "ticks": 0,
            "time": 0,
            "value": 0.503937007874016
          },
          {
            "number": 10,
            "ticks": 34176,
            "time": 122.057092,
            "value": 0.503937007874016
          },
          {
            "number": 10,
            "ticks": 34177,
            "time": 122.060663427083,
            "value": 0.503937007874016
          },
          {
            "number": 10,
            "ticks": 34177,
            "time": 122.060663427083,
            "value": 0.503937007874016
          }
        ],
        "100": [
          {
            "number": 100,
            "ticks": 0,
            "time": 0,
            "value": 0
          },
          {
            "number": 100,
            "ticks": 0,
            "time": 0,
            "value": 0
          },
          {
            "number": 100,
            "ticks": 34176,
            "time": 122.057092,
            "value": 0
          },
          {
            "number": 100,
            "ticks": 34177,
            "time": 122.060663427083,
            "value": 0
          },
          {
            "number": 100,
            "ticks": 34177,
            "time": 122.060663427083,
            "value": 0
          }
        ],
        "101": [
          {
            "number": 101,
            "ticks": 0,
            "time": 0,
            "value": 0
          },
          {
            "number": 101,
            "ticks": 0,
            "time": 0,
            "value": 0
          },
          {
            "number": 101,
            "ticks": 34176,
            "time": 122.057092,
            "value": 0
          },
          {
            "number": 101,
            "ticks": 34177,
            "time": 122.060663427083,
            "value": 0
          },
          {
            "number": 101,
            "ticks": 34177,
            "time": 122.060663427083,
            "value": 0
          }
        ]
      },
      "pitchBends": [
        {
          "ticks": 0,
          "time": 0,
          "value": 0
        },
        {
          "ticks": 0,
          "time": 0,
          "value": 0
        },
        {
          "ticks": 34176,
          "time": 122.057092,
          "value": 0
        },
        {
          "ticks": 34177,
          "time": 122.060663427083,
          "value": 0
        },
        {
          "ticks": 34177,
          "time": 122.060663427083,
          "value": 0
        }
      ],
      "instrument": {
        "family": "ensemble",
        "number": 48,
        "name": "string ensemble 1"
      },
      "name": "",
      "notes": [
        {
          "duration": 0.16071421875,
          "durationTicks": 45,
          "midi": 54,
          "name": "F#3",
          "ticks": 2161,
          "time": 7.71785392708333,
          "velocity": 0.440944881889764
        },
        {
          "duration": 0.16071421875,
          "durationTicks": 45,
          "midi": 62,
          "name": "D4",
          "ticks": 2161,
          "time": 7.71785392708333,
          "velocity": 0.551181102362205
        },
        {
          "duration": 0.157142791666666,
          "durationTicks": 44,
          "midi": 64,
          "name": "E4",
          "ticks": 2209,
          "time": 7.88928242708334,
          "velocity": 0.559055118110236
        },
        {
          "duration": 0.157142791666666,
          "durationTicks": 44,
          "midi": 55,
          "name": "G3",
          "ticks": 2209,
          "time": 7.88928242708334,
          "velocity": 0.448818897637795
        },
        {
          "duration": 0.16071421875,
          "durationTicks": 45,
          "midi": 66,
          "name": "F#4",
          "ticks": 2256,
          "time": 8.0571395,
          "velocity": 0.551181102362205
        },
        {
          "duration": 0.16071421875,
          "durationTicks": 45,
          "midi": 57,
          "name": "A3",
          "ticks": 2256,
          "time": 8.0571395,
          "velocity": 0.440944881889764
        },
        {
          "duration": 0.689285427083334,
          "durationTicks": 193,
          "midi": 67,
          "name": "G4",
          "ticks": 2304,
          "time": 8.228568,
          "velocity": 0.590551181102362
        },
        {
          "duration": 0.689285427083334,
          "durationTicks": 193,
          "midi": 62,
          "name": "D4",
          "ticks": 2304,
          "time": 8.228568,
          "velocity": 0.480314960629921
        },
        {
          "duration": 0.689285427083334,
          "durationTicks": 193,
          "midi": 58,
          "name": "A#3",
          "ticks": 2304,
          "time": 8.228568,
          "velocity": 0.480314960629921
        },
        {
          "duration": 0.678571145833333,
          "durationTicks": 190,
          "midi": 60,
          "name": "C4",
          "ticks": 2497,
          "time": 8.91785342708334,
          "velocity": 0.551181102362205
        },
        {
          "duration": 0.678571145833333,
          "durationTicks": 190,
          "midi": 64,
          "name": "E4",
          "ticks": 2497,
          "time": 8.91785342708334,
          "velocity": 0.551181102362205
        },
        {
          "duration": 0.678571145833333,
          "durationTicks": 190,
          "midi": 67,
          "name": "G4",
          "ticks": 2497,
          "time": 8.91785342708334,
          "velocity": 0.511811023622047
        },
        {
          "duration": 0.171428499999999,
          "durationTicks": 48,
          "midi": 69,
          "name": "A4",
          "ticks": 2688,
          "time": 9.599996,
          "velocity": 0.543307086614173
        },
        {
          "duration": 0.157142791666665,
          "durationTicks": 44,
          "midi": 68,
          "name": "G#4",
          "ticks": 2739,
          "time": 9.78213878125,
          "velocity": 0.503937007874016
        },
        {
          "duration": 0.16071421875,
          "durationTicks": 45,
          "midi": 67,
          "name": "G4",
          "ticks": 2786,
          "time": 9.94999585416667,
          "velocity": 0.511811023622047
        },
        {
          "duration": 0.16071421875,
          "durationTicks": 45,
          "midi": 65,
          "name": "F4",
          "ticks": 2834,
          "time": 10.1214243541667,
          "velocity": 0.503937007874016
        },
        {
          "duration": 2.73928457291667,
          "durationTicks": 767,
          "midi": 57,
          "name": "A3",
          "ticks": 3073,
          "time": 10.9749954270833,
          "velocity": 0.37007874015748
        },
        {
          "duration": 2.73928457291667,
          "durationTicks": 767,
          "midi": 53,
          "name": "F3",
          "ticks": 3073,
          "time": 10.9749954270833,
          "velocity": 0.37007874015748
        },
        {
          "duration": 2.73928457291667,
          "durationTicks": 767,
          "midi": 50,
          "name": "D3",
          "ticks": 3073,
          "time": 10.9749954270833,
          "velocity": 0.37007874015748
        },
        {
          "duration": 0.689285427083334,
          "durationTicks": 193,
          "midi": 62,
          "name": "D4",
          "ticks": 3841,
          "time": 13.7178514270833,
          "velocity": 0.37007874015748
        },
        {
          "duration": 0.689285427083334,
          "durationTicks": 193,
          "midi": 58,
          "name": "A#3",
          "ticks": 3841,
          "time": 13.7178514270833,
          "velocity": 0.37007874015748
        },
        {
          "duration": 0.689285427083334,
          "durationTicks": 193,
          "midi": 53,
          "name": "F3",
          "ticks": 3841,
          "time": 13.7178514270833,
          "velocity": 0.37007874015748
        },
        {
          "duration": 0.521428354166668,
          "durationTicks": 146,
          "midi": 65,
          "name": "F4",
          "ticks": 3841,
          "time": 13.7178514270833,
          "velocity": 0.37007874015748
        },
        {
          "duration": 0.678571145833333,
          "durationTicks": 190,
          "midi": 55,
          "name": "G3",
          "ticks": 4034,
          "time": 14.4071368541667,
          "velocity": 0.346456692913386
        },
        {
          "duration": 0.678571145833333,
          "durationTicks": 190,
          "midi": 60,
          "name": "C4",
          "ticks": 4034,
          "time": 14.4071368541667,
          "velocity": 0.346456692913386
        },
        {
          "duration": 0.678571145833333,
          "durationTicks": 190,
          "midi": 64,
          "name": "E4",
          "ticks": 4034,
          "time": 14.4071368541667,
          "velocity": 0.346456692913386
        },
        {
          "duration": 0.16071421875,
          "durationTicks": 45,
          "midi": 67,
          "name": "G4",
          "ticks": 4177,
          "time": 14.9178509270833,
          "velocity": 0.307086614173228
        },
        {
          "duration": 1.03214242708334,
          "durationTicks": 289,
          "midi": 64,
          "name": "E4",
          "ticks": 4225,
          "time": 15.0892794270833,
          "velocity": 0.307086614173228
        },
        {
          "duration": 1.03214242708334,
          "durationTicks": 289,
          "midi": 61,
          "name": "C#4",
          "ticks": 4225,
          "time": 15.0892794270833,
          "velocity": 0.307086614173228
        },
        {
          "duration": 1.03214242708334,
          "durationTicks": 289,
          "midi": 55,
          "name": "G3",
          "ticks": 4225,
          "time": 15.0892794270833,
          "velocity": 0.307086614173228
        },
        {
          "duration": 1.03214242708334,
          "durationTicks": 289,
          "midi": 52,
          "name": "E3",
          "ticks": 4225,
          "time": 15.0892794270833,
          "velocity": 0.307086614173228
        },
        {
          "duration": 0.0821428229166656,
          "durationTicks": 23,
          "midi": 67,
          "name": "G4",
          "ticks": 4394,
          "time": 15.6928506041667,
          "velocity": 0.307086614173228
        },
        {
          "duration": 0.335714145833332,
          "durationTicks": 94,
          "midi": 64,
          "name": "E4",
          "ticks": 4514,
          "time": 16.1214218541667,
          "velocity": 0.307086614173228
        },
        {
          "duration": 0.68928542708333,
          "durationTicks": 193,
          "midi": 62,
          "name": "D4",
          "ticks": 4608,
          "time": 16.457136,
          "velocity": 0.299212598425197
        },
        {
          "duration": 0.68928542708333,
          "durationTicks": 193,
          "midi": 50,
          "name": "D3",
          "ticks": 4608,
          "time": 16.457136,
          "velocity": 0.299212598425197
        },
        {
          "duration": 0.678571145833335,
          "durationTicks": 190,
          "midi": 48,
          "name": "C3",
          "ticks": 4801,
          "time": 17.1464214270833,
          "velocity": 0.283464566929134
        },
        {
          "duration": 0.678571145833335,
          "durationTicks": 190,
          "midi": 60,
          "name": "C4",
          "ticks": 4801,
          "time": 17.1464214270833,
          "velocity": 0.283464566929134
        },
        {
          "duration": 0.689285427083334,
          "durationTicks": 193,
          "midi": 47,
          "name": "B2",
          "ticks": 4992,
          "time": 17.828564,
          "velocity": 0.275590551181102
        },
        {
          "duration": 0.689285427083334,
          "durationTicks": 193,
          "midi": 59,
          "name": "B3",
          "ticks": 4992,
          "time": 17.828564,
          "velocity": 0.275590551181102
        },
        {
          "duration": 0.678571145833335,
          "durationTicks": 190,
          "midi": 55,
          "name": "G3",
          "ticks": 5185,
          "time": 18.5178494270833,
          "velocity": 0.244094488188976
        },
        {
          "duration": 0.678571145833335,
          "durationTicks": 190,
          "midi": 43,
          "name": "G2",
          "ticks": 5185,
          "time": 18.5178494270833,
          "velocity": 0.244094488188976
        },
        {
          "duration": 0.339285572916662,
          "durationTicks": 95,
          "midi": 46,
          "name": "A#2",
          "ticks": 5474,
          "time": 19.5499918541667,
          "velocity": 0.244094488188976
        },
        {
          "duration": 0.339285572916662,
          "durationTicks": 95,
          "midi": 58,
          "name": "A#3",
          "ticks": 5474,
          "time": 19.5499918541667,
          "velocity": 0.244094488188976
        },
        {
          "duration": 0.335714145833336,
          "durationTicks": 94,
          "midi": 48,
          "name": "C3",
          "ticks": 5665,
          "time": 20.2321344270833,
          "velocity": 0.236220472440945
        },
        {
          "duration": 0.335714145833336,
          "durationTicks": 94,
          "midi": 60,
          "name": "C4",
          "ticks": 5665,
          "time": 20.2321344270833,
          "velocity": 0.236220472440945
        },
        {
          "duration": 5.53214055208333,
          "durationTicks": 1549,
          "midi": 50,
          "name": "D3",
          "ticks": 6134,
          "time": 21.9071337291667,
          "velocity": 0.551181102362205
        },
        {
          "duration": 5.48214057291667,
          "durationTicks": 1535,
          "midi": 62,
          "name": "D4",
          "ticks": 6144,
          "time": 21.942848,
          "velocity": 0.440944881889764
        },
        {
          "duration": 5.53214055208333,
          "durationTicks": 1549,
          "midi": 53,
          "name": "F3",
          "ticks": 6144,
          "time": 21.942848,
          "velocity": 0.551181102362205
        },
        {
          "duration": 0.389285552083337,
          "durationTicks": 109,
          "midi": 38,
          "name": "D2",
          "ticks": 6432,
          "time": 22.971419,
          "velocity": 0.551181102362205
        },
        {
          "duration": 0.389285552083333,
          "durationTicks": 109,
          "midi": 38,
          "name": "D2",
          "ticks": 6816,
          "time": 24.342847,
          "velocity": 0.551181102362205
        },
        {
          "duration": 0.389285552083337,
          "durationTicks": 109,
          "midi": 38,
          "name": "D2",
          "ticks": 7200,
          "time": 25.714275,
          "velocity": 0.551181102362205
        },
        {
          "duration": 0.389285552083333,
          "durationTicks": 109,
          "midi": 38,
          "name": "D2",
          "ticks": 7584,
          "time": 27.085703,
          "velocity": 0.551181102362205
        },
        {
          "duration": 5.53214055208334,
          "durationTicks": 1549,
          "midi": 46,
          "name": "A#2",
          "ticks": 7680,
          "time": 27.42856,
          "velocity": 0.551181102362205
        },
        {
          "duration": 5.53214055208334,
          "durationTicks": 1549,
          "midi": 38,
          "name": "D2",
          "ticks": 7680,
          "time": 27.42856,
          "velocity": 0.551181102362205
        },
        {
          "duration": 5.48214057291667,
          "durationTicks": 1535,
          "midi": 58,
          "name": "A#3",
          "ticks": 7680,
          "time": 27.42856,
          "velocity": 0.440944881889764
        },
        {
          "duration": 0.389285552083337,
          "durationTicks": 109,
          "midi": 50,
          "name": "D3",
          "ticks": 7968,
          "time": 28.457131,
          "velocity": 0.551181102362205
        },
        {
          "duration": 0.389285552083337,
          "durationTicks": 109,
          "midi": 50,
          "name": "D3",
          "ticks": 8352,
          "time": 29.828559,
          "velocity": 0.551181102362205
        },
        {
          "duration": 0.389285552083333,
          "durationTicks": 109,
          "midi": 50,
          "name": "D3",
          "ticks": 8736,
          "time": 31.199987,
          "velocity": 0.551181102362205
        },
        {
          "duration": 0.389285552083337,
          "durationTicks": 109,
          "midi": 50,
          "name": "D3",
          "ticks": 9120,
          "time": 32.571415,
          "velocity": 0.551181102362205
        },
        {
          "duration": 5.53214055208333,
          "durationTicks": 1549,
          "midi": 50,
          "name": "D3",
          "ticks": 9206,
          "time": 32.8785577291667,
          "velocity": 0.551181102362205
        },
        {
          "duration": 5.53214055208333,
          "durationTicks": 1549,
          "midi": 53,
          "name": "F3",
          "ticks": 9216,
          "time": 32.914272,
          "velocity": 0.551181102362205
        },
        {
          "duration": 5.48214057291666,
          "durationTicks": 1535,
          "midi": 62,
          "name": "D4",
          "ticks": 9216,
          "time": 32.914272,
          "velocity": 0.440944881889764
        },
        {
          "duration": 0.389285552083337,
          "durationTicks": 109,
          "midi": 38,
          "name": "D2",
          "ticks": 9504,
          "time": 33.942843,
          "velocity": 0.551181102362205
        },
        {
          "duration": 0.389285552083329,
          "durationTicks": 109,
          "midi": 38,
          "name": "D2",
          "ticks": 9888,
          "time": 35.314271,
          "velocity": 0.551181102362205
        },
        {
          "duration": 0.389285552083337,
          "durationTicks": 109,
          "midi": 38,
          "name": "D2",
          "ticks": 10272,
          "time": 36.685699,
          "velocity": 0.551181102362205
        },
        {
          "duration": 0.389285552083337,
          "durationTicks": 109,
          "midi": 38,
          "name": "D2",
          "ticks": 10656,
          "time": 38.057127,
          "velocity": 0.551181102362205
        },
        {
          "duration": 2.78928455208334,
          "durationTicks": 781,
          "midi": 38,
          "name": "D2",
          "ticks": 10752,
          "time": 38.399984,
          "velocity": 0.551181102362205
        },
        {
          "duration": 2.78928455208334,
          "durationTicks": 781,
          "midi": 46,
          "name": "A#2",
          "ticks": 10752,
          "time": 38.399984,
          "velocity": 0.551181102362205
        },
        {
          "duration": 0.389285552083337,
          "durationTicks": 109,
          "midi": 50,
          "name": "D3",
          "ticks": 11040,
          "time": 39.428555,
          "velocity": 0.551181102362205
        },
        {
          "duration": 0.389285552083337,
          "durationTicks": 109,
          "midi": 50,
          "name": "D3",
          "ticks": 11424,
          "time": 40.799983,
          "velocity": 0.551181102362205
        },
        {
          "duration": 0.171428500000005,
          "durationTicks": 48,
          "midi": 51,
          "name": "D#3",
          "ticks": 11520,
          "time": 41.14284,
          "velocity": 0.425196850393701
        },
        {
          "duration": 0.171428500000005,
          "durationTicks": 48,
          "midi": 39,
          "name": "D#2",
          "ticks": 11520,
          "time": 41.14284,
          "velocity": 0.425196850393701
        },
        {
          "duration": 0.171428500000005,
          "durationTicks": 48,
          "midi": 50,
          "name": "D3",
          "ticks": 11592,
          "time": 41.39998275,
          "velocity": 0.425196850393701
        },
        {
          "duration": 0.171428500000005,
          "durationTicks": 48,
          "midi": 38,
          "name": "D2",
          "ticks": 11592,
          "time": 41.39998275,
          "velocity": 0.425196850393701
        },
        {
          "duration": 0.171428500000005,
          "durationTicks": 48,
          "midi": 48,
          "name": "C3",
          "ticks": 11664,
          "time": 41.6571255,
          "velocity": 0.425196850393701
        },
        {
          "duration": 0.171428500000005,
          "durationTicks": 48,
          "midi": 36,
          "name": "C2",
          "ticks": 11664,
          "time": 41.6571255,
          "velocity": 0.425196850393701
        },
        {
          "duration": 0.160714218750002,
          "durationTicks": 45,
          "midi": 38,
          "name": "D2",
          "ticks": 11761,
          "time": 42.0035539270833,
          "velocity": 0.425196850393701
        },
        {
          "duration": 0.160714218750002,
          "durationTicks": 45,
          "midi": 50,
          "name": "D3",
          "ticks": 11761,
          "time": 42.0035539270833,
          "velocity": 0.425196850393701
        },
        {
          "duration": 0.157142791666665,
          "durationTicks": 44,
          "midi": 39,
          "name": "D#2",
          "ticks": 11809,
          "time": 42.1749824270833,
          "velocity": 0.433070866141732
        },
        {
          "duration": 0.157142791666665,
          "durationTicks": 44,
          "midi": 51,
          "name": "D#3",
          "ticks": 11809,
          "time": 42.1749824270833,
          "velocity": 0.433070866141732
        },
        {
          "duration": 0.157142791666665,
          "durationTicks": 44,
          "midi": 36,
          "name": "C2",
          "ticks": 11856,
          "time": 42.3428395,
          "velocity": 0.433070866141732
        },
        {
          "duration": 0.157142791666665,
          "durationTicks": 44,
          "midi": 48,
          "name": "C3",
          "ticks": 11856,
          "time": 42.3428395,
          "velocity": 0.433070866141732
        },
        {
          "duration": 0.685714000000004,
          "durationTicks": 192,
          "midi": 50,
          "name": "D3",
          "ticks": 11904,
          "time": 42.514268,
          "velocity": 0.433070866141732
        },
        {
          "duration": 0.685714000000004,
          "durationTicks": 192,
          "midi": 38,
          "name": "D2",
          "ticks": 11904,
          "time": 42.514268,
          "velocity": 0.433070866141732
        },
        {
          "duration": 0.157142791666665,
          "durationTicks": 44,
          "midi": 62,
          "name": "D4",
          "ticks": 12193,
          "time": 43.5464104270833,
          "velocity": 0.433070866141732
        },
        {
          "duration": 0.157142791666665,
          "durationTicks": 44,
          "midi": 38,
          "name": "D2",
          "ticks": 12193,
          "time": 43.5464104270833,
          "velocity": 0.433070866141732
        },
        {
          "duration": 0.157142791666665,
          "durationTicks": 44,
          "midi": 50,
          "name": "D3",
          "ticks": 12193,
          "time": 43.5464104270833,
          "velocity": 0.433070866141732
        },
        {
          "duration": 0.671428291666672,
          "durationTicks": 188,
          "midi": 53,
          "name": "F3",
          "ticks": 17664,
          "time": 63.085688,
          "velocity": 0.47244094488189
        },
        {
          "duration": 0.671428291666672,
          "durationTicks": 188,
          "midi": 41,
          "name": "F2",
          "ticks": 17664,
          "time": 63.085688,
          "velocity": 0.47244094488189
        },
        {
          "duration": 0.671428291666679,
          "durationTicks": 188,
          "midi": 40,
          "name": "E2",
          "ticks": 17856,
          "time": 63.771402,
          "velocity": 0.47244094488189
        },
        {
          "duration": 0.671428291666679,
          "durationTicks": 188,
          "midi": 52,
          "name": "E3",
          "ticks": 17856,
          "time": 63.771402,
          "velocity": 0.47244094488189
        },
        {
          "duration": 1.52857079166668,
          "durationTicks": 428,
          "midi": 50,
          "name": "D3",
          "ticks": 18048,
          "time": 64.457116,
          "velocity": 0.47244094488189
        },
        {
          "duration": 1.52857079166668,
          "durationTicks": 428,
          "midi": 38,
          "name": "D2",
          "ticks": 18048,
          "time": 64.457116,
          "velocity": 0.47244094488189
        },
        {
          "duration": 1.35714229166666,
          "durationTicks": 380,
          "midi": 50,
          "name": "D3",
          "ticks": 18432,
          "time": 65.828544,
          "velocity": 0.47244094488189
        },
        {
          "duration": 1.35714229166666,
          "durationTicks": 380,
          "midi": 38,
          "name": "D2",
          "ticks": 18432,
          "time": 65.828544,
          "velocity": 0.47244094488189
        },
        {
          "duration": 1.35714229166668,
          "durationTicks": 380,
          "midi": 40,
          "name": "E2",
          "ticks": 18816,
          "time": 67.199972,
          "velocity": 0.47244094488189
        },
        {
          "duration": 1.35714229166668,
          "durationTicks": 380,
          "midi": 52,
          "name": "E3",
          "ticks": 18816,
          "time": 67.199972,
          "velocity": 0.47244094488189
        },
        {
          "duration": 1.35714229166666,
          "durationTicks": 380,
          "midi": 38,
          "name": "D2",
          "ticks": 19200,
          "time": 68.5714,
          "velocity": 0.480314960629921
        },
        {
          "duration": 1.35714229166666,
          "durationTicks": 380,
          "midi": 50,
          "name": "D3",
          "ticks": 19200,
          "time": 68.5714,
          "velocity": 0.480314960629921
        },
        {
          "duration": 1.35714229166666,
          "durationTicks": 380,
          "midi": 49,
          "name": "C#3",
          "ticks": 19584,
          "time": 69.942828,
          "velocity": 0.480314960629921
        },
        {
          "duration": 1.35714229166666,
          "durationTicks": 380,
          "midi": 37,
          "name": "C#2",
          "ticks": 19584,
          "time": 69.942828,
          "velocity": 0.480314960629921
        },
        {
          "duration": 1.35714229166668,
          "durationTicks": 380,
          "midi": 50,
          "name": "D3",
          "ticks": 19968,
          "time": 71.314256,
          "velocity": 0.480314960629921
        },
        {
          "duration": 1.35714229166668,
          "durationTicks": 380,
          "midi": 38,
          "name": "D2",
          "ticks": 19968,
          "time": 71.314256,
          "velocity": 0.480314960629921
        },
        {
          "duration": 1.35714229166666,
          "durationTicks": 380,
          "midi": 51,
          "name": "D#3",
          "ticks": 20352,
          "time": 72.685684,
          "velocity": 0.480314960629921
        },
        {
          "duration": 1.35714229166666,
          "durationTicks": 380,
          "midi": 39,
          "name": "D#2",
          "ticks": 20352,
          "time": 72.685684,
          "velocity": 0.480314960629921
        },
        {
          "duration": 0.671428291666672,
          "durationTicks": 188,
          "midi": 38,
          "name": "D2",
          "ticks": 20736,
          "time": 74.057112,
          "velocity": 0.47244094488189
        },
        {
          "duration": 0.671428291666672,
          "durationTicks": 188,
          "midi": 38,
          "name": "D2",
          "ticks": 20736,
          "time": 74.057112,
          "velocity": 0.480314960629921
        },
        {
          "duration": 0.671428291666672,
          "durationTicks": 188,
          "midi": 38,
          "name": "D2",
          "ticks": 20928,
          "time": 74.742826,
          "velocity": 0.47244094488189
        },
        {
          "duration": 1.35714229166668,
          "durationTicks": 380,
          "midi": 38,
          "name": "D2",
          "ticks": 21120,
          "time": 75.42854,
          "velocity": 0.47244094488189
        },
        {
          "duration": 2.73928457291667,
          "durationTicks": 767,
          "midi": 57,
          "name": "A3",
          "ticks": 21505,
          "time": 76.8035394270833,
          "velocity": 0.52755905511811
        },
        {
          "duration": 2.73928457291667,
          "durationTicks": 767,
          "midi": 53,
          "name": "F3",
          "ticks": 21505,
          "time": 76.8035394270833,
          "velocity": 0.52755905511811
        },
        {
          "duration": 2.73928457291667,
          "durationTicks": 767,
          "midi": 50,
          "name": "D3",
          "ticks": 21505,
          "time": 76.8035394270833,
          "velocity": 0.52755905511811
        },
        {
          "duration": 0.521428354166659,
          "durationTicks": 146,
          "midi": 65,
          "name": "F4",
          "ticks": 22273,
          "time": 79.5463954270833,
          "velocity": 0.511811023622047
        },
        {
          "duration": 0.689285427083334,
          "durationTicks": 193,
          "midi": 53,
          "name": "F3",
          "ticks": 22273,
          "time": 79.5463954270833,
          "velocity": 0.511811023622047
        },
        {
          "duration": 0.689285427083334,
          "durationTicks": 193,
          "midi": 58,
          "name": "A#3",
          "ticks": 22273,
          "time": 79.5463954270833,
          "velocity": 0.511811023622047
        },
        {
          "duration": 0.689285427083334,
          "durationTicks": 193,
          "midi": 62,
          "name": "D4",
          "ticks": 22273,
          "time": 79.5463954270833,
          "velocity": 0.511811023622047
        },
        {
          "duration": 0.678571145833331,
          "durationTicks": 190,
          "midi": 64,
          "name": "E4",
          "ticks": 22466,
          "time": 80.2356808541667,
          "velocity": 0.496062992125984
        },
        {
          "duration": 0.678571145833331,
          "durationTicks": 190,
          "midi": 60,
          "name": "C4",
          "ticks": 22466,
          "time": 80.2356808541667,
          "velocity": 0.496062992125984
        },
        {
          "duration": 0.678571145833331,
          "durationTicks": 190,
          "midi": 55,
          "name": "G3",
          "ticks": 22466,
          "time": 80.2356808541667,
          "velocity": 0.496062992125984
        },
        {
          "duration": 0.160714218750002,
          "durationTicks": 45,
          "midi": 67,
          "name": "G4",
          "ticks": 22609,
          "time": 80.7463949270833,
          "velocity": 0.488188976377953
        },
        {
          "duration": 1.03214242708334,
          "durationTicks": 289,
          "midi": 64,
          "name": "E4",
          "ticks": 22657,
          "time": 80.9178234270833,
          "velocity": 0.480314960629921
        },
        {
          "duration": 1.03214242708334,
          "durationTicks": 289,
          "midi": 61,
          "name": "C#4",
          "ticks": 22657,
          "time": 80.9178234270833,
          "velocity": 0.480314960629921
        },
        {
          "duration": 1.03214242708334,
          "durationTicks": 289,
          "midi": 55,
          "name": "G3",
          "ticks": 22657,
          "time": 80.9178234270833,
          "velocity": 0.480314960629921
        },
        {
          "duration": 1.03214242708334,
          "durationTicks": 289,
          "midi": 52,
          "name": "E3",
          "ticks": 22657,
          "time": 80.9178234270833,
          "velocity": 0.480314960629921
        },
        {
          "duration": 0.0821428229166656,
          "durationTicks": 23,
          "midi": 67,
          "name": "G4",
          "ticks": 22826,
          "time": 81.5213946041667,
          "velocity": 0.47244094488189
        },
        {
          "duration": 0.335714145833322,
          "durationTicks": 94,
          "midi": 64,
          "name": "E4",
          "ticks": 22946,
          "time": 81.9499658541667,
          "velocity": 0.47244094488189
        },
        {
          "duration": 0.689285427083334,
          "durationTicks": 193,
          "midi": 50,
          "name": "D3",
          "ticks": 23040,
          "time": 82.28568,
          "velocity": 0.47244094488189
        },
        {
          "duration": 0.689285427083334,
          "durationTicks": 193,
          "midi": 62,
          "name": "D4",
          "ticks": 23040,
          "time": 82.28568,
          "velocity": 0.47244094488189
        },
        {
          "duration": 0.678571145833345,
          "durationTicks": 190,
          "midi": 60,
          "name": "C4",
          "ticks": 23233,
          "time": 82.9749654270833,
          "velocity": 0.488188976377953
        },
        {
          "duration": 0.678571145833345,
          "durationTicks": 190,
          "midi": 48,
          "name": "C3",
          "ticks": 23233,
          "time": 82.9749654270833,
          "velocity": 0.488188976377953
        },
        {
          "duration": 0.689285427083334,
          "durationTicks": 193,
          "midi": 59,
          "name": "B3",
          "ticks": 23424,
          "time": 83.657108,
          "velocity": 0.496062992125984
        },
        {
          "duration": 0.689285427083334,
          "durationTicks": 193,
          "midi": 47,
          "name": "B2",
          "ticks": 23424,
          "time": 83.657108,
          "velocity": 0.496062992125984
        },
        {
          "duration": 0.678571145833331,
          "durationTicks": 190,
          "midi": 55,
          "name": "G3",
          "ticks": 23617,
          "time": 84.3463934270833,
          "velocity": 0.496062992125984
        },
        {
          "duration": 0.678571145833331,
          "durationTicks": 190,
          "midi": 43,
          "name": "G2",
          "ticks": 23617,
          "time": 84.3463934270833,
          "velocity": 0.496062992125984
        },
        {
          "duration": 0.339285572916666,
          "durationTicks": 95,
          "midi": 58,
          "name": "A#3",
          "ticks": 23906,
          "time": 85.3785358541667,
          "velocity": 0.496062992125984
        },
        {
          "duration": 0.339285572916666,
          "durationTicks": 95,
          "midi": 46,
          "name": "A#2",
          "ticks": 23906,
          "time": 85.3785358541667,
          "velocity": 0.496062992125984
        },
        {
          "duration": 0.33571414583335,
          "durationTicks": 94,
          "midi": 60,
          "name": "C4",
          "ticks": 24097,
          "time": 86.0606784270833,
          "velocity": 0.496062992125984
        },
        {
          "duration": 0.33571414583335,
          "durationTicks": 94,
          "midi": 48,
          "name": "C3",
          "ticks": 24097,
          "time": 86.0606784270833,
          "velocity": 0.496062992125984
        },
        {
          "duration": 2.73928457291666,
          "durationTicks": 767,
          "midi": 50,
          "name": "D3",
          "ticks": 24577,
          "time": 87.7749634270834,
          "velocity": 0.52755905511811
        },
        {
          "duration": 2.73928457291666,
          "durationTicks": 767,
          "midi": 53,
          "name": "F3",
          "ticks": 24577,
          "time": 87.7749634270834,
          "velocity": 0.52755905511811
        },
        {
          "duration": 2.73928457291666,
          "durationTicks": 767,
          "midi": 57,
          "name": "A3",
          "ticks": 24577,
          "time": 87.7749634270834,
          "velocity": 0.52755905511811
        },
        {
          "duration": 0.68928542708332,
          "durationTicks": 193,
          "midi": 62,
          "name": "D4",
          "ticks": 25345,
          "time": 90.5178194270834,
          "velocity": 0.511811023622047
        },
        {
          "duration": 0.68928542708332,
          "durationTicks": 193,
          "midi": 58,
          "name": "A#3",
          "ticks": 25345,
          "time": 90.5178194270834,
          "velocity": 0.511811023622047
        },
        {
          "duration": 0.68928542708332,
          "durationTicks": 193,
          "midi": 53,
          "name": "F3",
          "ticks": 25345,
          "time": 90.5178194270834,
          "velocity": 0.511811023622047
        },
        {
          "duration": 0.521428354166659,
          "durationTicks": 146,
          "midi": 65,
          "name": "F4",
          "ticks": 25345,
          "time": 90.5178194270834,
          "velocity": 0.511811023622047
        },
        {
          "duration": 0.678571145833331,
          "durationTicks": 190,
          "midi": 55,
          "name": "G3",
          "ticks": 25538,
          "time": 91.2071048541667,
          "velocity": 0.496062992125984
        },
        {
          "duration": 0.678571145833331,
          "durationTicks": 190,
          "midi": 60,
          "name": "C4",
          "ticks": 25538,
          "time": 91.2071048541667,
          "velocity": 0.496062992125984
        },
        {
          "duration": 0.678571145833331,
          "durationTicks": 190,
          "midi": 64,
          "name": "E4",
          "ticks": 25538,
          "time": 91.2071048541667,
          "velocity": 0.496062992125984
        },
        {
          "duration": 0.160714218750002,
          "durationTicks": 45,
          "midi": 67,
          "name": "G4",
          "ticks": 25681,
          "time": 91.7178189270833,
          "velocity": 0.488188976377953
        },
        {
          "duration": 1.03214242708331,
          "durationTicks": 289,
          "midi": 64,
          "name": "E4",
          "ticks": 25729,
          "time": 91.8892474270834,
          "velocity": 0.480314960629921
        },
        {
          "duration": 1.03214242708331,
          "durationTicks": 289,
          "midi": 61,
          "name": "C#4",
          "ticks": 25729,
          "time": 91.8892474270834,
          "velocity": 0.480314960629921
        },
        {
          "duration": 1.03214242708331,
          "durationTicks": 289,
          "midi": 55,
          "name": "G3",
          "ticks": 25729,
          "time": 91.8892474270834,
          "velocity": 0.480314960629921
        },
        {
          "duration": 1.03214242708331,
          "durationTicks": 289,
          "midi": 52,
          "name": "E3",
          "ticks": 25729,
          "time": 91.8892474270834,
          "velocity": 0.480314960629921
        },
        {
          "duration": 0.0821428229166799,
          "durationTicks": 23,
          "midi": 67,
          "name": "G4",
          "ticks": 25898,
          "time": 92.4928186041667,
          "velocity": 0.47244094488189
        },
        {
          "duration": 0.33571414583335,
          "durationTicks": 94,
          "midi": 64,
          "name": "E4",
          "ticks": 26018,
          "time": 92.9213898541667,
          "velocity": 0.47244094488189
        },
        {
          "duration": 0.689285427083334,
          "durationTicks": 193,
          "midi": 62,
          "name": "D4",
          "ticks": 26112,
          "time": 93.257104,
          "velocity": 0.47244094488189
        },
        {
          "duration": 0.689285427083334,
          "durationTicks": 193,
          "midi": 50,
          "name": "D3",
          "ticks": 26112,
          "time": 93.257104,
          "velocity": 0.47244094488189
        },
        {
          "duration": 0.678571145833317,
          "durationTicks": 190,
          "midi": 48,
          "name": "C3",
          "ticks": 26305,
          "time": 93.9463894270834,
          "velocity": 0.488188976377953
        },
        {
          "duration": 0.678571145833317,
          "durationTicks": 190,
          "midi": 60,
          "name": "C4",
          "ticks": 26305,
          "time": 93.9463894270834,
          "velocity": 0.488188976377953
        },
        {
          "duration": 0.689285427083334,
          "durationTicks": 193,
          "midi": 47,
          "name": "B2",
          "ticks": 26496,
          "time": 94.628532,
          "velocity": 0.496062992125984
        },
        {
          "duration": 0.689285427083334,
          "durationTicks": 193,
          "midi": 59,
          "name": "B3",
          "ticks": 26496,
          "time": 94.628532,
          "velocity": 0.496062992125984
        },
        {
          "duration": 0.678571145833331,
          "durationTicks": 190,
          "midi": 55,
          "name": "G3",
          "ticks": 26689,
          "time": 95.3178174270833,
          "velocity": 0.496062992125984
        },
        {
          "duration": 0.678571145833331,
          "durationTicks": 190,
          "midi": 43,
          "name": "G2",
          "ticks": 26689,
          "time": 95.3178174270833,
          "velocity": 0.496062992125984
        },
        {
          "duration": 0.33928557291668,
          "durationTicks": 95,
          "midi": 46,
          "name": "A#2",
          "ticks": 26978,
          "time": 96.3499598541667,
          "velocity": 0.496062992125984
        },
        {
          "duration": 0.33928557291668,
          "durationTicks": 95,
          "midi": 58,
          "name": "A#3",
          "ticks": 26978,
          "time": 96.3499598541667,
          "velocity": 0.496062992125984
        },
        {
          "duration": 0.335714145833322,
          "durationTicks": 94,
          "midi": 48,
          "name": "C3",
          "ticks": 27169,
          "time": 97.0321024270833,
          "velocity": 0.496062992125984
        },
        {
          "duration": 0.335714145833322,
          "durationTicks": 94,
          "midi": 60,
          "name": "C4",
          "ticks": 27169,
          "time": 97.0321024270833,
          "velocity": 0.496062992125984
        },
        {
          "duration": 5.53214055208333,
          "durationTicks": 1549,
          "midi": 50,
          "name": "D3",
          "ticks": 27638,
          "time": 98.7071017291667,
          "velocity": 0.551181102362205
        },
        {
          "duration": 5.48214057291666,
          "durationTicks": 1535,
          "midi": 62,
          "name": "D4",
          "ticks": 27648,
          "time": 98.742816,
          "velocity": 0.440944881889764
        },
        {
          "duration": 0.389285552083337,
          "durationTicks": 109,
          "midi": 38,
          "name": "D2",
          "ticks": 27936,
          "time": 99.771387,
          "velocity": 0.551181102362205
        },
        {
          "duration": 0.389285552083337,
          "durationTicks": 109,
          "midi": 38,
          "name": "D2",
          "ticks": 28320,
          "time": 101.142815,
          "velocity": 0.551181102362205
        },
        {
          "duration": 0.389285552083337,
          "durationTicks": 109,
          "midi": 38,
          "name": "D2",
          "ticks": 28704,
          "time": 102.514243,
          "velocity": 0.551181102362205
        },
        {
          "duration": 0.389285552083351,
          "durationTicks": 109,
          "midi": 38,
          "name": "D2",
          "ticks": 29088,
          "time": 103.885671,
          "velocity": 0.551181102362205
        },
        {
          "duration": 5.48214057291666,
          "durationTicks": 1535,
          "midi": 58,
          "name": "A#3",
          "ticks": 29184,
          "time": 104.228528,
          "velocity": 0.440944881889764
        },
        {
          "duration": 5.53214055208333,
          "durationTicks": 1549,
          "midi": 38,
          "name": "D2",
          "ticks": 29184,
          "time": 104.228528,
          "velocity": 0.551181102362205
        },
        {
          "duration": 5.53214055208333,
          "durationTicks": 1549,
          "midi": 46,
          "name": "A#2",
          "ticks": 29184,
          "time": 104.228528,
          "velocity": 0.551181102362205
        },
        {
          "duration": 0.389285552083337,
          "durationTicks": 109,
          "midi": 50,
          "name": "D3",
          "ticks": 29472,
          "time": 105.257099,
          "velocity": 0.551181102362205
        },
        {
          "duration": 0.389285552083337,
          "durationTicks": 109,
          "midi": 50,
          "name": "D3",
          "ticks": 29856,
          "time": 106.628527,
          "velocity": 0.551181102362205
        },
        {
          "duration": 0.389285552083337,
          "durationTicks": 109,
          "midi": 50,
          "name": "D3",
          "ticks": 30240,
          "time": 107.999955,
          "velocity": 0.551181102362205
        },
        {
          "duration": 0.389285552083337,
          "durationTicks": 109,
          "midi": 50,
          "name": "D3",
          "ticks": 30624,
          "time": 109.371383,
          "velocity": 0.551181102362205
        },
        {
          "duration": 5.53214055208335,
          "durationTicks": 1549,
          "midi": 50,
          "name": "D3",
          "ticks": 30710,
          "time": 109.678525729167,
          "velocity": 0.551181102362205
        },
        {
          "duration": 5.48214057291666,
          "durationTicks": 1535,
          "midi": 62,
          "name": "D4",
          "ticks": 30720,
          "time": 109.71424,
          "velocity": 0.440944881889764
        },
        {
          "duration": 0.389285552083351,
          "durationTicks": 109,
          "midi": 38,
          "name": "D2",
          "ticks": 31008,
          "time": 110.742811,
          "velocity": 0.551181102362205
        },
        {
          "duration": 0.389285552083337,
          "durationTicks": 109,
          "midi": 38,
          "name": "D2",
          "ticks": 31392,
          "time": 112.114239,
          "velocity": 0.551181102362205
        },
        {
          "duration": 0.389285552083337,
          "durationTicks": 109,
          "midi": 38,
          "name": "D2",
          "ticks": 31776,
          "time": 113.485667,
          "velocity": 0.551181102362205
        },
        {
          "duration": 0.389285552083351,
          "durationTicks": 109,
          "midi": 38,
          "name": "D2",
          "ticks": 32160,
          "time": 114.857095,
          "velocity": 0.551181102362205
        },
        {
          "duration": 2.78928455208333,
          "durationTicks": 781,
          "midi": 38,
          "name": "D2",
          "ticks": 32256,
          "time": 115.199952,
          "velocity": 0.551181102362205
        },
        {
          "duration": 2.78928455208333,
          "durationTicks": 781,
          "midi": 46,
          "name": "A#2",
          "ticks": 32256,
          "time": 115.199952,
          "velocity": 0.551181102362205
        },
        {
          "duration": 0.389285552083337,
          "durationTicks": 109,
          "midi": 50,
          "name": "D3",
          "ticks": 32544,
          "time": 116.228523,
          "velocity": 0.551181102362205
        },
        {
          "duration": 0.389285552083337,
          "durationTicks": 109,
          "midi": 50,
          "name": "D3",
          "ticks": 32928,
          "time": 117.599951,
          "velocity": 0.551181102362205
        },
        {
          "duration": 0.17142849999999,
          "durationTicks": 48,
          "midi": 51,
          "name": "D#3",
          "ticks": 33024,
          "time": 117.942808,
          "velocity": 0.409448818897638
        },
        {
          "duration": 0.17142849999999,
          "durationTicks": 48,
          "midi": 39,
          "name": "D#2",
          "ticks": 33024,
          "time": 117.942808,
          "velocity": 0.409448818897638
        },
        {
          "duration": 0.17142849999999,
          "durationTicks": 48,
          "midi": 50,
          "name": "D3",
          "ticks": 33096,
          "time": 118.19995075,
          "velocity": 0.409448818897638
        },
        {
          "duration": 0.17142849999999,
          "durationTicks": 48,
          "midi": 38,
          "name": "D2",
          "ticks": 33096,
          "time": 118.19995075,
          "velocity": 0.409448818897638
        },
        {
          "duration": 0.17142849999999,
          "durationTicks": 48,
          "midi": 48,
          "name": "C3",
          "ticks": 33168,
          "time": 118.4570935,
          "velocity": 0.409448818897638
        },
        {
          "duration": 0.17142849999999,
          "durationTicks": 48,
          "midi": 36,
          "name": "C2",
          "ticks": 33168,
          "time": 118.4570935,
          "velocity": 0.409448818897638
        },
        {
          "duration": 0.160714218750002,
          "durationTicks": 45,
          "midi": 50,
          "name": "D3",
          "ticks": 33265,
          "time": 118.803521927083,
          "velocity": 0.409448818897638
        },
        {
          "duration": 0.160714218750002,
          "durationTicks": 45,
          "midi": 38,
          "name": "D2",
          "ticks": 33265,
          "time": 118.803521927083,
          "velocity": 0.409448818897638
        },
        {
          "duration": 0.157142791666672,
          "durationTicks": 44,
          "midi": 39,
          "name": "D#2",
          "ticks": 33313,
          "time": 118.974950427083,
          "velocity": 0.409448818897638
        },
        {
          "duration": 0.157142791666672,
          "durationTicks": 44,
          "midi": 51,
          "name": "D#3",
          "ticks": 33313,
          "time": 118.974950427083,
          "velocity": 0.409448818897638
        },
        {
          "duration": 0.157142791666658,
          "durationTicks": 44,
          "midi": 48,
          "name": "C3",
          "ticks": 33360,
          "time": 119.1428075,
          "velocity": 0.409448818897638
        },
        {
          "duration": 0.157142791666658,
          "durationTicks": 44,
          "midi": 36,
          "name": "C2",
          "ticks": 33360,
          "time": 119.1428075,
          "velocity": 0.409448818897638
        },
        {
          "duration": 0.685714000000004,
          "durationTicks": 192,
          "midi": 50,
          "name": "D3",
          "ticks": 33408,
          "time": 119.314236,
          "velocity": 0.409448818897638
        },
        {
          "duration": 0.685714000000004,
          "durationTicks": 192,
          "midi": 38,
          "name": "D2",
          "ticks": 33408,
          "time": 119.314236,
          "velocity": 0.409448818897638
        },
        {
          "duration": 0.157142791666658,
          "durationTicks": 44,
          "midi": 62,
          "name": "D4",
          "ticks": 33697,
          "time": 120.346378427083,
          "velocity": 0.409448818897638
        },
        {
          "duration": 0.157142791666658,
          "durationTicks": 44,
          "midi": 38,
          "name": "D2",
          "ticks": 33697,
          "time": 120.346378427083,
          "velocity": 0.409448818897638
        },
        {
          "duration": 0.157142791666658,
          "durationTicks": 44,
          "midi": 50,
          "name": "D3",
          "ticks": 33697,
          "time": 120.346378427083,
          "velocity": 0.409448818897638
        }
      ]
    },
    {
      "channel": 0,
      "controlChanges": {
        "6": [
          {
            "number": 6,
            "ticks": 0,
            "time": 0,
            "value": 0.094488188976378
          }
        ],
        "7": [
          {
            "number": 7,
            "ticks": 0,
            "time": 0,
            "value": 0.716535433070866
          },
          {
            "number": 7,
            "ticks": 0,
            "time": 0,
            "value": 0.716535433070866
          }
        ],
        "10": [
          {
            "number": 10,
            "ticks": 0,
            "time": 0,
            "value": 0.503937007874016
          },
          {
            "number": 10,
            "ticks": 0,
            "time": 0,
            "value": 0.503937007874016
          }
        ],
        "100": [
          {
            "number": 100,
            "ticks": 0,
            "time": 0,
            "value": 0
          }
        ],
        "101": [
          {
            "number": 101,
            "ticks": 0,
            "time": 0,
            "value": 0
          }
        ]
      },
      "pitchBends": [
        {
          "ticks": 0,
          "time": 0,
          "value": 0
        },
        {
          "ticks": 0,
          "time": 0,
          "value": 0
        }
      ],
      "instrument": {
        "family": "piano",
        "number": 0,
        "name": "acoustic grand piano"
      },
      "name": "MIDI out #7",
      "notes": [],
      "endOfTrackTicks": 34177
    },
    {
      "channel": 11,
      "controlChanges": {
        "6": [
          {
            "number": 6,
            "ticks": 0,
            "time": 0,
            "value": 0.094488188976378
          },
          {
            "number": 6,
            "ticks": 0,
            "time": 0,
            "value": 0.094488188976378
          },
          {
            "number": 6,
            "ticks": 34176,
            "time": 122.057092,
            "value": 0.094488188976378
          },
          {
            "number": 6,
            "ticks": 34177,
            "time": 122.060663427083,
            "value": 0.094488188976378
          },
          {
            "number": 6,
            "ticks": 34177,
            "time": 122.060663427083,
            "value": 0.094488188976378
          }
        ],
        "7": [
          {
            "number": 7,
            "ticks": 0,
            "time": 0,
            "value": 0.716535433070866
          },
          {
            "number": 7,
            "ticks": 0,
            "time": 0,
            "value": 0.716535433070866
          },
          {
            "number": 7,
            "ticks": 34176,
            "time": 122.057092,
            "value": 0.716535433070866
          },
          {
            "number": 7,
            "ticks": 34177,
            "time": 122.060663427083,
            "value": 0.716535433070866
          },
          {
            "number": 7,
            "ticks": 34177,
            "time": 122.060663427083,
            "value": 0.716535433070866
          }
        ],
        "10": [
          {
            "number": 10,
            "ticks": 0,
            "time": 0,
            "value": 0.503937007874016
          },
          {
            "number": 10,
            "ticks": 0,
            "time": 0,
            "value": 0.503937007874016
          },
          {
            "number": 10,
            "ticks": 34176,
            "time": 122.057092,
            "value": 0.503937007874016
          },
          {
            "number": 10,
            "ticks": 34177,
            "time": 122.060663427083,
            "value": 0.503937007874016
          },
          {
            "number": 10,
            "ticks": 34177,
            "time": 122.060663427083,
            "value": 0.503937007874016
          }
        ],
        "100": [
          {
            "number": 100,
            "ticks": 0,
            "time": 0,
            "value": 0
          },
          {
            "number": 100,
            "ticks": 0,
            "time": 0,
            "value": 0
          },
          {
            "number": 100,
            "ticks": 34176,
            "time": 122.057092,
            "value": 0
          },
          {
            "number": 100,
            "ticks": 34177,
            "time": 122.060663427083,
            "value": 0
          },
          {
            "number": 100,
            "ticks": 34177,
            "time": 122.060663427083,
            "value": 0
          }
        ],
        "101": [
          {
            "number": 101,
            "ticks": 0,
            "time": 0,
            "value": 0
          },
          {
            "number": 101,
            "ticks": 0,
            "time": 0,
            "value": 0
          },
          {
            "number": 101,
            "ticks": 34176,
            "time": 122.057092,
            "value": 0
          },
          {
            "number": 101,
            "ticks": 34177,
            "time": 122.060663427083,
            "value": 0
          },
          {
            "number": 101,
            "ticks": 34177,
            "time": 122.060663427083,
            "value": 0
          }
        ]
      },
      "pitchBends": [
        {
          "ticks": 0,
          "time": 0,
          "value": 0
        },
        {
          "ticks": 0,
          "time": 0,
          "value": 0
        },
        {
          "ticks": 34176,
          "time": 122.057092,
          "value": 0
        },
        {
          "ticks": 34177,
          "time": 122.060663427083,
          "value": 0
        },
        {
          "ticks": 34177,
          "time": 122.060663427083,
          "value": 0
        }
      ],
      "instrument": {
        "family": "synth lead",
        "number": 81,
        "name": "lead 2 (sawtooth)"
      },
      "name": "",
      "notes": [
        {
          "duration": 0.68928542708333,
          "durationTicks": 193,
          "midi": 38,
          "name": "D2",
          "ticks": 4608,
          "time": 16.457136,
          "velocity": 0.590551181102362
        },
        {
          "duration": 0.68928542708333,
          "durationTicks": 193,
          "midi": 50,
          "name": "D3",
          "ticks": 4608,
          "time": 16.457136,
          "velocity": 0.590551181102362
        },
        {
          "duration": 0.678571145833335,
          "durationTicks": 190,
          "midi": 36,
          "name": "C2",
          "ticks": 4801,
          "time": 17.1464214270833,
          "velocity": 0.582677165354331
        },
        {
          "duration": 0.678571145833335,
          "durationTicks": 190,
          "midi": 48,
          "name": "C3",
          "ticks": 4801,
          "time": 17.1464214270833,
          "velocity": 0.582677165354331
        },
        {
          "duration": 0.689285427083334,
          "durationTicks": 193,
          "midi": 47,
          "name": "B2",
          "ticks": 4992,
          "time": 17.828564,
          "velocity": 0.582677165354331
        },
        {
          "duration": 0.689285427083334,
          "durationTicks": 193,
          "midi": 35,
          "name": "B1",
          "ticks": 4992,
          "time": 17.828564,
          "velocity": 0.582677165354331
        },
        {
          "duration": 0.678571145833335,
          "durationTicks": 190,
          "midi": 31,
          "name": "G1",
          "ticks": 5185,
          "time": 18.5178494270833,
          "velocity": 0.582677165354331
        },
        {
          "duration": 0.678571145833335,
          "durationTicks": 190,
          "midi": 43,
          "name": "G2",
          "ticks": 5185,
          "time": 18.5178494270833,
          "velocity": 0.582677165354331
        },
        {
          "duration": 0.339285572916662,
          "durationTicks": 95,
          "midi": 46,
          "name": "A#2",
          "ticks": 5474,
          "time": 19.5499918541667,
          "velocity": 0.574803149606299
        },
        {
          "duration": 0.339285572916662,
          "durationTicks": 95,
          "midi": 34,
          "name": "A#1",
          "ticks": 5474,
          "time": 19.5499918541667,
          "velocity": 0.574803149606299
        },
        {
          "duration": 0.335714145833336,
          "durationTicks": 94,
          "midi": 36,
          "name": "C2",
          "ticks": 5665,
          "time": 20.2321344270833,
          "velocity": 0.574803149606299
        },
        {
          "duration": 0.335714145833336,
          "durationTicks": 94,
          "midi": 48,
          "name": "C3",
          "ticks": 5665,
          "time": 20.2321344270833,
          "velocity": 0.574803149606299
        },
        {
          "duration": 0.685713999999997,
          "durationTicks": 192,
          "midi": 38,
          "name": "D2",
          "ticks": 12288,
          "time": 43.885696,
          "velocity": 0.905511811023622
        },
        {
          "duration": 0.685714000000004,
          "durationTicks": 192,
          "midi": 38,
          "name": "D2",
          "ticks": 12480,
          "time": 44.57141,
          "velocity": 0.905511811023622
        },
        {
          "duration": 0.685713999999997,
          "durationTicks": 192,
          "midi": 41,
          "name": "F2",
          "ticks": 12672,
          "time": 45.257124,
          "velocity": 0.905511811023622
        },
        {
          "duration": 0.685714000000004,
          "durationTicks": 192,
          "midi": 36,
          "name": "C2",
          "ticks": 12864,
          "time": 45.942838,
          "velocity": 0.905511811023622
        },
        {
          "duration": 0.685713999999997,
          "durationTicks": 192,
          "midi": 38,
          "name": "D2",
          "ticks": 13056,
          "time": 46.628552,
          "velocity": 0.905511811023622
        },
        {
          "duration": 0.685713999999997,
          "durationTicks": 192,
          "midi": 38,
          "name": "D2",
          "ticks": 13248,
          "time": 47.314266,
          "velocity": 0.905511811023622
        },
        {
          "duration": 0.685714000000004,
          "durationTicks": 192,
          "midi": 33,
          "name": "A1",
          "ticks": 13440,
          "time": 47.99998,
          "velocity": 0.905511811023622
        },
        {
          "duration": 0.685713999999997,
          "durationTicks": 192,
          "midi": 36,
          "name": "C2",
          "ticks": 13632,
          "time": 48.685694,
          "velocity": 0.905511811023622
        },
        {
          "duration": 0.685714000000004,
          "durationTicks": 192,
          "midi": 38,
          "name": "D2",
          "ticks": 13824,
          "time": 49.371408,
          "velocity": 0.905511811023622
        },
        {
          "duration": 0.685713999999997,
          "durationTicks": 192,
          "midi": 38,
          "name": "D2",
          "ticks": 14016,
          "time": 50.057122,
          "velocity": 0.905511811023622
        },
        {
          "duration": 0.685713999999997,
          "durationTicks": 192,
          "midi": 41,
          "name": "F2",
          "ticks": 14208,
          "time": 50.742836,
          "velocity": 0.905511811023622
        },
        {
          "duration": 0.685714000000004,
          "durationTicks": 192,
          "midi": 33,
          "name": "A1",
          "ticks": 14400,
          "time": 51.42855,
          "velocity": 0.905511811023622
        },
        {
          "duration": 0.685714000000004,
          "durationTicks": 192,
          "midi": 33,
          "name": "A1",
          "ticks": 14400,
          "time": 51.42855,
          "velocity": 0.905511811023622
        },
        {
          "duration": 0.685713999999997,
          "durationTicks": 192,
          "midi": 34,
          "name": "A#1",
          "ticks": 14592,
          "time": 52.114264,
          "velocity": 0.905511811023622
        },
        {
          "duration": 0.685713999999997,
          "durationTicks": 192,
          "midi": 36,
          "name": "C2",
          "ticks": 14784,
          "time": 52.799978,
          "velocity": 0.905511811023622
        },
        {
          "duration": 0.685714000000004,
          "durationTicks": 192,
          "midi": 38,
          "name": "D2",
          "ticks": 14976,
          "time": 53.485692,
          "velocity": 0.905511811023622
        },
        {
          "duration": 0.685713999999997,
          "durationTicks": 192,
          "midi": 26,
          "name": "D1",
          "ticks": 15168,
          "time": 54.171406,
          "velocity": 0.905511811023622
        },
        {
          "duration": 0.685713999999997,
          "durationTicks": 192,
          "midi": 38,
          "name": "D2",
          "ticks": 15168,
          "time": 54.171406,
          "velocity": 0.905511811023622
        },
        {
          "duration": 0.685713999999997,
          "durationTicks": 192,
          "midi": 50,
          "name": "D3",
          "ticks": 15168,
          "time": 54.171406,
          "velocity": 0.905511811023622
        },
        {
          "duration": 0.685714000000004,
          "durationTicks": 192,
          "midi": 38,
          "name": "D2",
          "ticks": 15360,
          "time": 54.85712,
          "velocity": 0.905511811023622
        },
        {
          "duration": 0.685713999999997,
          "durationTicks": 192,
          "midi": 38,
          "name": "D2",
          "ticks": 15552,
          "time": 55.542834,
          "velocity": 0.905511811023622
        },
        {
          "duration": 0.685713999999997,
          "durationTicks": 192,
          "midi": 41,
          "name": "F2",
          "ticks": 15744,
          "time": 56.228548,
          "velocity": 0.905511811023622
        },
        {
          "duration": 0.685714000000004,
          "durationTicks": 192,
          "midi": 36,
          "name": "C2",
          "ticks": 15936,
          "time": 56.914262,
          "velocity": 0.905511811023622
        },
        {
          "duration": 0.685713999999997,
          "durationTicks": 192,
          "midi": 38,
          "name": "D2",
          "ticks": 16128,
          "time": 57.599976,
          "velocity": 0.905511811023622
        },
        {
          "duration": 0.685714000000004,
          "durationTicks": 192,
          "midi": 38,
          "name": "D2",
          "ticks": 16320,
          "time": 58.28569,
          "velocity": 0.905511811023622
        },
        {
          "duration": 0.685713999999997,
          "durationTicks": 192,
          "midi": 33,
          "name": "A1",
          "ticks": 16512,
          "time": 58.971404,
          "velocity": 0.905511811023622
        },
        {
          "duration": 0.685713999999997,
          "durationTicks": 192,
          "midi": 36,
          "name": "C2",
          "ticks": 16704,
          "time": 59.657118,
          "velocity": 0.905511811023622
        },
        {
          "duration": 0.685714000000004,
          "durationTicks": 192,
          "midi": 38,
          "name": "D2",
          "ticks": 16896,
          "time": 60.342832,
          "velocity": 0.905511811023622
        },
        {
          "duration": 0.685713999999997,
          "durationTicks": 192,
          "midi": 38,
          "name": "D2",
          "ticks": 17088,
          "time": 61.028546,
          "velocity": 0.905511811023622
        },
        {
          "duration": 0.685714000000004,
          "durationTicks": 192,
          "midi": 38,
          "name": "D2",
          "ticks": 17280,
          "time": 61.71426,
          "velocity": 0.905511811023622
        },
        {
          "duration": 0.685713999999997,
          "durationTicks": 192,
          "midi": 38,
          "name": "D2",
          "ticks": 17472,
          "time": 62.399974,
          "velocity": 0.905511811023622
        },
        {
          "duration": 0.685713999999997,
          "durationTicks": 192,
          "midi": 34,
          "name": "A#1",
          "ticks": 17664,
          "time": 63.085688,
          "velocity": 0.905511811023622
        },
        {
          "duration": 0.685713999999997,
          "durationTicks": 192,
          "midi": 36,
          "name": "C2",
          "ticks": 17856,
          "time": 63.771402,
          "velocity": 0.905511811023622
        },
        {
          "duration": 0.685714000000004,
          "durationTicks": 192,
          "midi": 38,
          "name": "D2",
          "ticks": 18048,
          "time": 64.457116,
          "velocity": 0.905511811023622
        },
        {
          "duration": 0.685714000000004,
          "durationTicks": 192,
          "midi": 50,
          "name": "D3",
          "ticks": 18240,
          "time": 65.14283,
          "velocity": 0.905511811023622
        },
        {
          "duration": 0.685714000000004,
          "durationTicks": 192,
          "midi": 26,
          "name": "D1",
          "ticks": 18240,
          "time": 65.14283,
          "velocity": 0.905511811023622
        },
        {
          "duration": 0.685714000000004,
          "durationTicks": 192,
          "midi": 38,
          "name": "D2",
          "ticks": 18240,
          "time": 65.14283,
          "velocity": 0.905511811023622
        },
        {
          "duration": 0.849999645833321,
          "durationTicks": 238,
          "midi": 43,
          "name": "G2",
          "ticks": 18432,
          "time": 65.828544,
          "velocity": 0.905511811023622
        },
        {
          "duration": 0.849999645833321,
          "durationTicks": 238,
          "midi": 31,
          "name": "G1",
          "ticks": 18432,
          "time": 65.828544,
          "velocity": 0.905511811023622
        },
        {
          "duration": 0.160714218750002,
          "durationTicks": 45,
          "midi": 31,
          "name": "G1",
          "ticks": 18673,
          "time": 66.6892579270833,
          "velocity": 0.905511811023622
        },
        {
          "duration": 0.157142791666672,
          "durationTicks": 44,
          "midi": 43,
          "name": "G2",
          "ticks": 18721,
          "time": 66.8606864270833,
          "velocity": 0.905511811023622
        },
        {
          "duration": 0.160714218750002,
          "durationTicks": 45,
          "midi": 31,
          "name": "G1",
          "ticks": 18768,
          "time": 67.0285435,
          "velocity": 0.905511811023622
        },
        {
          "duration": 1.03214242708333,
          "durationTicks": 289,
          "midi": 33,
          "name": "A1",
          "ticks": 18816,
          "time": 67.199972,
          "velocity": 0.905511811023622
        },
        {
          "duration": 0.846428218749992,
          "durationTicks": 237,
          "midi": 45,
          "name": "A2",
          "ticks": 18962,
          "time": 67.7214003541667,
          "velocity": 0.905511811023622
        },
        {
          "duration": 0.335714145833336,
          "durationTicks": 94,
          "midi": 33,
          "name": "A1",
          "ticks": 19105,
          "time": 68.2321144270833,
          "velocity": 0.905511811023622
        },
        {
          "duration": 0.849999645833321,
          "durationTicks": 238,
          "midi": 35,
          "name": "B1",
          "ticks": 19200,
          "time": 68.5714,
          "velocity": 0.905511811023622
        },
        {
          "duration": 0.160714218750002,
          "durationTicks": 45,
          "midi": 47,
          "name": "B2",
          "ticks": 19441,
          "time": 69.4321139270833,
          "velocity": 0.905511811023622
        },
        {
          "duration": 0.157142791666658,
          "durationTicks": 44,
          "midi": 35,
          "name": "B1",
          "ticks": 19489,
          "time": 69.6035424270833,
          "velocity": 0.905511811023622
        },
        {
          "duration": 1.20357092708333,
          "durationTicks": 337,
          "midi": 30,
          "name": "F#1",
          "ticks": 19536,
          "time": 69.7713995,
          "velocity": 0.905511811023622
        },
        {
          "duration": 1.03214242708333,
          "durationTicks": 289,
          "midi": 42,
          "name": "F#2",
          "ticks": 19584,
          "time": 69.942828,
          "velocity": 0.905511811023622
        },
        {
          "duration": 0.335714145833336,
          "durationTicks": 94,
          "midi": 30,
          "name": "F#1",
          "ticks": 19873,
          "time": 70.9749704270833,
          "velocity": 0.905511811023622
        },
        {
          "duration": 0.335714145833336,
          "durationTicks": 94,
          "midi": 42,
          "name": "F#2",
          "ticks": 19873,
          "time": 70.9749704270833,
          "velocity": 0.905511811023622
        },
        {
          "duration": 0.171428500000005,
          "durationTicks": 48,
          "midi": 50,
          "name": "D3",
          "ticks": 19968,
          "time": 71.314256,
          "velocity": 0.905511811023622
        },
        {
          "duration": 0.839285364583333,
          "durationTicks": 235,
          "midi": 31,
          "name": "G1",
          "ticks": 19968,
          "time": 71.314256,
          "velocity": 0.905511811023622
        },
        {
          "duration": 0.839285364583333,
          "durationTicks": 235,
          "midi": 43,
          "name": "G2",
          "ticks": 19968,
          "time": 71.314256,
          "velocity": 0.905511811023622
        },
        {
          "duration": 0.178571354166664,
          "durationTicks": 50,
          "midi": 31,
          "name": "G1",
          "ticks": 20209,
          "time": 72.1749699270833,
          "velocity": 0.905511811023622
        },
        {
          "duration": 0.33571414583335,
          "durationTicks": 94,
          "midi": 43,
          "name": "G2",
          "ticks": 20257,
          "time": 72.3463984270833,
          "velocity": 0.905511811023622
        },
        {
          "duration": 0.521428354166659,
          "durationTicks": 146,
          "midi": 28,
          "name": "E1",
          "ticks": 20352,
          "time": 72.685684,
          "velocity": 0.905511811023622
        },
        {
          "duration": 0.521428354166659,
          "durationTicks": 146,
          "midi": 40,
          "name": "E2",
          "ticks": 20352,
          "time": 72.685684,
          "velocity": 0.905511811023622
        },
        {
          "duration": 0.160714218750002,
          "durationTicks": 45,
          "midi": 40,
          "name": "E2",
          "ticks": 20498,
          "time": 73.2071123541667,
          "velocity": 0.905511811023622
        },
        {
          "duration": 0.342857000000009,
          "durationTicks": 96,
          "midi": 40,
          "name": "E2",
          "ticks": 20545,
          "time": 73.3749694270833,
          "velocity": 0.905511811023622
        },
        {
          "duration": 0.342857000000009,
          "durationTicks": 96,
          "midi": 28,
          "name": "E1",
          "ticks": 20545,
          "time": 73.3749694270833,
          "velocity": 0.905511811023622
        },
        {
          "duration": 0.335714145833336,
          "durationTicks": 94,
          "midi": 28,
          "name": "E1",
          "ticks": 20641,
          "time": 73.7178264270833,
          "velocity": 0.905511811023622
        },
        {
          "duration": 0.335714145833336,
          "durationTicks": 94,
          "midi": 40,
          "name": "E2",
          "ticks": 20641,
          "time": 73.7178264270833,
          "velocity": 0.905511811023622
        },
        {
          "duration": 0.689285427083334,
          "durationTicks": 193,
          "midi": 45,
          "name": "A2",
          "ticks": 20736,
          "time": 74.057112,
          "velocity": 0.905511811023622
        },
        {
          "duration": 0.689285427083334,
          "durationTicks": 193,
          "midi": 33,
          "name": "A1",
          "ticks": 20736,
          "time": 74.057112,
          "velocity": 0.905511811023622
        },
        {
          "duration": 0.678571145833331,
          "durationTicks": 190,
          "midi": 33,
          "name": "A1",
          "ticks": 20929,
          "time": 74.7463974270833,
          "velocity": 0.905511811023622
        },
        {
          "duration": 0.678571145833331,
          "durationTicks": 190,
          "midi": 45,
          "name": "A2",
          "ticks": 20929,
          "time": 74.7463974270833,
          "velocity": 0.905511811023622
        },
        {
          "duration": 0.689285427083334,
          "durationTicks": 193,
          "midi": 33,
          "name": "A1",
          "ticks": 21120,
          "time": 75.42854,
          "velocity": 0.905511811023622
        },
        {
          "duration": 0.689285427083334,
          "durationTicks": 193,
          "midi": 45,
          "name": "A2",
          "ticks": 21120,
          "time": 75.42854,
          "velocity": 0.905511811023622
        },
        {
          "duration": 0.678571145833345,
          "durationTicks": 190,
          "midi": 33,
          "name": "A1",
          "ticks": 21313,
          "time": 76.1178254270833,
          "velocity": 0.905511811023622
        },
        {
          "duration": 0.678571145833345,
          "durationTicks": 190,
          "midi": 45,
          "name": "A2",
          "ticks": 21313,
          "time": 76.1178254270833,
          "velocity": 0.905511811023622
        }
      ]
    },
    {
      "channel": 0,
      "controlChanges": {
        "6": [
          {
            "number": 6,
            "ticks": 0,
            "time": 0,
            "value": 0.094488188976378
          }
        ],
        "7": [
          {
            "number": 7,
            "ticks": 0,
            "time": 0,
            "value": 0.78740157480315
          },
          {
            "number": 7,
            "ticks": 0,
            "time": 0,
            "value": 0.78740157480315
          }
        ],
        "10": [
          {
            "number": 10,
            "ticks": 0,
            "time": 0,
            "value": 0.503937007874016
          },
          {
            "number": 10,
            "ticks": 0,
            "time": 0,
            "value": 0.503937007874016
          }
        ],
        "100": [
          {
            "number": 100,
            "ticks": 0,
            "time": 0,
            "value": 0
          }
        ],
        "101": [
          {
            "number": 101,
            "ticks": 0,
            "time": 0,
            "value": 0
          }
        ]
      },
      "pitchBends": [
        {
          "ticks": 0,
          "time": 0,
          "value": 0
        },
        {
          "ticks": 0,
          "time": 0,
          "value": 0
        }
      ],
      "instrument": {
        "family": "piano",
        "number": 0,
        "name": "acoustic grand piano"
      },
      "name": "MIDI out #6",
      "notes": [],
      "endOfTrackTicks": 34177
    },
    {
      "channel": 12,
      "controlChanges": {
        "6": [
          {
            "number": 6,
            "ticks": 0,
            "time": 0,
            "value": 0.094488188976378
          },
          {
            "number": 6,
            "ticks": 0,
            "time": 0,
            "value": 0.094488188976378
          },
          {
            "number": 6,
            "ticks": 34176,
            "time": 122.057092,
            "value": 0.094488188976378
          },
          {
            "number": 6,
            "ticks": 34177,
            "time": 122.060663427083,
            "value": 0.094488188976378
          },
          {
            "number": 6,
            "ticks": 34177,
            "time": 122.060663427083,
            "value": 0.094488188976378
          }
        ],
        "7": [
          {
            "number": 7,
            "ticks": 0,
            "time": 0,
            "value": 0.78740157480315
          },
          {
            "number": 7,
            "ticks": 0,
            "time": 0,
            "value": 0.78740157480315
          },
          {
            "number": 7,
            "ticks": 34176,
            "time": 122.057092,
            "value": 0.78740157480315
          },
          {
            "number": 7,
            "ticks": 34177,
            "time": 122.060663427083,
            "value": 0.78740157480315
          },
          {
            "number": 7,
            "ticks": 34177,
            "time": 122.060663427083,
            "value": 0.78740157480315
          }
        ],
        "10": [
          {
            "number": 10,
            "ticks": 0,
            "time": 0,
            "value": 0.503937007874016
          },
          {
            "number": 10,
            "ticks": 0,
            "time": 0,
            "value": 0.503937007874016
          },
          {
            "number": 10,
            "ticks": 34176,
            "time": 122.057092,
            "value": 0.503937007874016
          },
          {
            "number": 10,
            "ticks": 34177,
            "time": 122.060663427083,
            "value": 0.503937007874016
          },
          {
            "number": 10,
            "ticks": 34177,
            "time": 122.060663427083,
            "value": 0.503937007874016
          }
        ],
        "100": [
          {
            "number": 100,
            "ticks": 0,
            "time": 0,
            "value": 0
          },
          {
            "number": 100,
            "ticks": 0,
            "time": 0,
            "value": 0
          },
          {
            "number": 100,
            "ticks": 34176,
            "time": 122.057092,
            "value": 0
          },
          {
            "number": 100,
            "ticks": 34177,
            "time": 122.060663427083,
            "value": 0
          },
          {
            "number": 100,
            "ticks": 34177,
            "time": 122.060663427083,
            "value": 0
          }
        ],
        "101": [
          {
            "number": 101,
            "ticks": 0,
            "time": 0,
            "value": 0
          },
          {
            "number": 101,
            "ticks": 0,
            "time": 0,
            "value": 0
          },
          {
            "number": 101,
            "ticks": 34176,
            "time": 122.057092,
            "value": 0
          },
          {
            "number": 101,
            "ticks": 34177,
            "time": 122.060663427083,
            "value": 0
          },
          {
            "number": 101,
            "ticks": 34177,
            "time": 122.060663427083,
            "value": 0
          }
        ]
      },
      "pitchBends": [
        {
          "ticks": 0,
          "time": 0,
          "value": 0
        },
        {
          "ticks": 0,
          "time": 0,
          "value": 0
        },
        {
          "ticks": 34176,
          "time": 122.057092,
          "value": 0
        },
        {
          "ticks": 34177,
          "time": 122.060663427083,
          "value": 0
        },
        {
          "ticks": 34177,
          "time": 122.060663427083,
          "value": 0
        }
      ],
      "instrument": {
        "family": "piano",
        "number": 5,
        "name": "electric piano 2"
      },
      "name": "",
      "notes": [
        {
          "duration": 0.1714285,
          "durationTicks": 48,
          "midi": 69,
          "name": "A4",
          "ticks": 0,
          "time": 0,
          "velocity": 0.543307086614173
        },
        {
          "duration": 0.1714285,
          "durationTicks": 48,
          "midi": 81,
          "name": "A5",
          "ticks": 0,
          "time": 0,
          "velocity": 0.543307086614173
        },
        {
          "duration": 0.157142791666667,
          "durationTicks": 44,
          "midi": 70,
          "name": "A#4",
          "ticks": 51,
          "time": 0.18214278125,
          "velocity": 0.503937007874016
        },
        {
          "duration": 0.157142791666667,
          "durationTicks": 44,
          "midi": 82,
          "name": "A#5",
          "ticks": 51,
          "time": 0.18214278125,
          "velocity": 0.503937007874016
        },
        {
          "duration": 0.16071421875,
          "durationTicks": 45,
          "midi": 83,
          "name": "B5",
          "ticks": 98,
          "time": 0.349999854166667,
          "velocity": 0.511811023622047
        },
        {
          "duration": 0.16071421875,
          "durationTicks": 45,
          "midi": 71,
          "name": "B4",
          "ticks": 98,
          "time": 0.349999854166667,
          "velocity": 0.511811023622047
        },
        {
          "duration": 0.16071421875,
          "durationTicks": 45,
          "midi": 72,
          "name": "C5",
          "ticks": 146,
          "time": 0.521428354166667,
          "velocity": 0.503937007874016
        },
        {
          "duration": 0.16071421875,
          "durationTicks": 45,
          "midi": 84,
          "name": "C6",
          "ticks": 146,
          "time": 0.521428354166667,
          "velocity": 0.503937007874016
        },
        {
          "duration": 0.16071421875,
          "durationTicks": 45,
          "midi": 72,
          "name": "C5",
          "ticks": 241,
          "time": 0.860713927083333,
          "velocity": 0.503937007874016
        },
        {
          "duration": 0.16071421875,
          "durationTicks": 45,
          "midi": 84,
          "name": "C6",
          "ticks": 241,
          "time": 0.860713927083333,
          "velocity": 0.503937007874016
        },
        {
          "duration": 0.157142791666667,
          "durationTicks": 44,
          "midi": 71,
          "name": "B4",
          "ticks": 289,
          "time": 1.03214242708333,
          "velocity": 0.511811023622047
        },
        {
          "duration": 0.157142791666667,
          "durationTicks": 44,
          "midi": 83,
          "name": "B5",
          "ticks": 289,
          "time": 1.03214242708333,
          "velocity": 0.511811023622047
        },
        {
          "duration": 0.16071421875,
          "durationTicks": 45,
          "midi": 70,
          "name": "A#4",
          "ticks": 336,
          "time": 1.1999995,
          "velocity": 0.503937007874016
        },
        {
          "duration": 0.16071421875,
          "durationTicks": 45,
          "midi": 82,
          "name": "A#5",
          "ticks": 336,
          "time": 1.1999995,
          "velocity": 0.503937007874016
        },
        {
          "duration": 0.1714285,
          "durationTicks": 48,
          "midi": 69,
          "name": "A4",
          "ticks": 384,
          "time": 1.371428,
          "velocity": 0.543307086614173
        },
        {
          "duration": 0.1714285,
          "durationTicks": 48,
          "midi": 81,
          "name": "A5",
          "ticks": 384,
          "time": 1.371428,
          "velocity": 0.543307086614173
        },
        {
          "duration": 0.157142791666667,
          "durationTicks": 44,
          "midi": 70,
          "name": "A#4",
          "ticks": 435,
          "time": 1.55357078125,
          "velocity": 0.503937007874016
        },
        {
          "duration": 0.157142791666667,
          "durationTicks": 44,
          "midi": 82,
          "name": "A#5",
          "ticks": 435,
          "time": 1.55357078125,
          "velocity": 0.503937007874016
        },
        {
          "duration": 0.16071421875,
          "durationTicks": 45,
          "midi": 71,
          "name": "B4",
          "ticks": 482,
          "time": 1.72142785416667,
          "velocity": 0.511811023622047
        },
        {
          "duration": 0.16071421875,
          "durationTicks": 45,
          "midi": 83,
          "name": "B5",
          "ticks": 482,
          "time": 1.72142785416667,
          "velocity": 0.511811023622047
        },
        {
          "duration": 0.16071421875,
          "durationTicks": 45,
          "midi": 72,
          "name": "C5",
          "ticks": 530,
          "time": 1.89285635416667,
          "velocity": 0.503937007874016
        },
        {
          "duration": 0.16071421875,
          "durationTicks": 45,
          "midi": 84,
          "name": "C6",
          "ticks": 530,
          "time": 1.89285635416667,
          "velocity": 0.503937007874016
        },
        {
          "duration": 0.16071421875,
          "durationTicks": 45,
          "midi": 72,
          "name": "C5",
          "ticks": 625,
          "time": 2.23214192708333,
          "velocity": 0.503937007874016
        },
        {
          "duration": 0.16071421875,
          "durationTicks": 45,
          "midi": 84,
          "name": "C6",
          "ticks": 625,
          "time": 2.23214192708333,
          "velocity": 0.503937007874016
        },
        {
          "duration": 0.157142791666666,
          "durationTicks": 44,
          "midi": 71,
          "name": "B4",
          "ticks": 673,
          "time": 2.40357042708333,
          "velocity": 0.511811023622047
        },
        {
          "duration": 0.157142791666666,
          "durationTicks": 44,
          "midi": 83,
          "name": "B5",
          "ticks": 673,
          "time": 2.40357042708333,
          "velocity": 0.511811023622047
        },
        {
          "duration": 0.16071421875,
          "durationTicks": 45,
          "midi": 82,
          "name": "A#5",
          "ticks": 720,
          "time": 2.5714275,
          "velocity": 0.503937007874016
        },
        {
          "duration": 0.16071421875,
          "durationTicks": 45,
          "midi": 70,
          "name": "A#4",
          "ticks": 720,
          "time": 2.5714275,
          "velocity": 0.503937007874016
        },
        {
          "duration": 0.1714285,
          "durationTicks": 48,
          "midi": 81,
          "name": "A5",
          "ticks": 768,
          "time": 2.742856,
          "velocity": 0.543307086614173
        },
        {
          "duration": 0.1714285,
          "durationTicks": 48,
          "midi": 65,
          "name": "F4",
          "ticks": 768,
          "time": 2.742856,
          "velocity": 0.543307086614173
        },
        {
          "duration": 0.157142791666667,
          "durationTicks": 44,
          "midi": 82,
          "name": "A#5",
          "ticks": 819,
          "time": 2.92499878125,
          "velocity": 0.503937007874016
        },
        {
          "duration": 0.157142791666667,
          "durationTicks": 44,
          "midi": 67,
          "name": "G4",
          "ticks": 819,
          "time": 2.92499878125,
          "velocity": 0.503937007874016
        },
        {
          "duration": 0.16071421875,
          "durationTicks": 45,
          "midi": 83,
          "name": "B5",
          "ticks": 866,
          "time": 3.09285585416667,
          "velocity": 0.511811023622047
        },
        {
          "duration": 0.16071421875,
          "durationTicks": 45,
          "midi": 68,
          "name": "G#4",
          "ticks": 866,
          "time": 3.09285585416667,
          "velocity": 0.511811023622047
        },
        {
          "duration": 0.16071421875,
          "durationTicks": 45,
          "midi": 84,
          "name": "C6",
          "ticks": 914,
          "time": 3.26428435416667,
          "velocity": 0.503937007874016
        },
        {
          "duration": 0.16071421875,
          "durationTicks": 45,
          "midi": 69,
          "name": "A4",
          "ticks": 914,
          "time": 3.26428435416667,
          "velocity": 0.503937007874016
        },
        {
          "duration": 0.16071421875,
          "durationTicks": 45,
          "midi": 70,
          "name": "A#4",
          "ticks": 961,
          "time": 3.43214142708333,
          "velocity": 0.52755905511811
        },
        {
          "duration": 0.16071421875,
          "durationTicks": 45,
          "midi": 86,
          "name": "D6",
          "ticks": 961,
          "time": 3.43214142708333,
          "velocity": 0.52755905511811
        },
        {
          "duration": 0.16071421875,
          "durationTicks": 45,
          "midi": 88,
          "name": "E6",
          "ticks": 1009,
          "time": 3.60356992708333,
          "velocity": 0.503937007874016
        },
        {
          "duration": 0.16071421875,
          "durationTicks": 45,
          "midi": 72,
          "name": "C5",
          "ticks": 1009,
          "time": 3.60356992708333,
          "velocity": 0.503937007874016
        },
        {
          "duration": 0.157142791666667,
          "durationTicks": 44,
          "midi": 89,
          "name": "F6",
          "ticks": 1057,
          "time": 3.77499842708333,
          "velocity": 0.511811023622047
        },
        {
          "duration": 0.157142791666667,
          "durationTicks": 44,
          "midi": 74,
          "name": "D5",
          "ticks": 1057,
          "time": 3.77499842708333,
          "velocity": 0.511811023622047
        },
        {
          "duration": 0.16071421875,
          "durationTicks": 45,
          "midi": 70,
          "name": "A#4",
          "ticks": 1104,
          "time": 3.9428555,
          "velocity": 0.503937007874016
        },
        {
          "duration": 0.16071421875,
          "durationTicks": 45,
          "midi": 86,
          "name": "D6",
          "ticks": 1104,
          "time": 3.9428555,
          "velocity": 0.503937007874016
        },
        {
          "duration": 0.1714285,
          "durationTicks": 48,
          "midi": 76,
          "name": "E5",
          "ticks": 1152,
          "time": 4.114284,
          "velocity": 0.543307086614173
        },
        {
          "duration": 0.1714285,
          "durationTicks": 48,
          "midi": 91,
          "name": "G6",
          "ticks": 1152,
          "time": 4.114284,
          "velocity": 0.543307086614173
        },
        {
          "duration": 0.157142791666667,
          "durationTicks": 44,
          "midi": 74,
          "name": "D5",
          "ticks": 1203,
          "time": 4.29642678125,
          "velocity": 0.503937007874016
        },
        {
          "duration": 0.157142791666667,
          "durationTicks": 44,
          "midi": 89,
          "name": "F6",
          "ticks": 1203,
          "time": 4.29642678125,
          "velocity": 0.503937007874016
        },
        {
          "duration": 0.16071421875,
          "durationTicks": 45,
          "midi": 88,
          "name": "E6",
          "ticks": 1250,
          "time": 4.46428385416667,
          "velocity": 0.511811023622047
        },
        {
          "duration": 0.16071421875,
          "durationTicks": 45,
          "midi": 72,
          "name": "C5",
          "ticks": 1250,
          "time": 4.46428385416667,
          "velocity": 0.511811023622047
        },
        {
          "duration": 0.16071421875,
          "durationTicks": 45,
          "midi": 84,
          "name": "C6",
          "ticks": 1298,
          "time": 4.63571235416667,
          "velocity": 0.503937007874016
        },
        {
          "duration": 0.16071421875,
          "durationTicks": 45,
          "midi": 67,
          "name": "G4",
          "ticks": 1298,
          "time": 4.63571235416667,
          "velocity": 0.503937007874016
        },
        {
          "duration": 0.16071421875,
          "durationTicks": 45,
          "midi": 71,
          "name": "B4",
          "ticks": 1393,
          "time": 4.97499792708333,
          "velocity": 0.440944881889764
        },
        {
          "duration": 0.16071421875,
          "durationTicks": 45,
          "midi": 72,
          "name": "C5",
          "ticks": 1393,
          "time": 4.97499792708333,
          "velocity": 0.519685039370079
        },
        {
          "duration": 0.335714145833334,
          "durationTicks": 94,
          "midi": 72,
          "name": "C5",
          "ticks": 1441,
          "time": 5.14642642708333,
          "velocity": 0.52755905511811
        },
        {
          "duration": 0.335714145833334,
          "durationTicks": 94,
          "midi": 71,
          "name": "B4",
          "ticks": 1441,
          "time": 5.14642642708333,
          "velocity": 0.448818897637795
        },
        {
          "duration": 0.1714285,
          "durationTicks": 48,
          "midi": 69,
          "name": "A4",
          "ticks": 1536,
          "time": 5.485712,
          "velocity": 0.543307086614173
        },
        {
          "duration": 0.1714285,
          "durationTicks": 48,
          "midi": 81,
          "name": "A5",
          "ticks": 1536,
          "time": 5.485712,
          "velocity": 0.543307086614173
        },
        {
          "duration": 0.157142791666667,
          "durationTicks": 44,
          "midi": 82,
          "name": "A#5",
          "ticks": 1587,
          "time": 5.66785478125,
          "velocity": 0.503937007874016
        },
        {
          "duration": 0.157142791666667,
          "durationTicks": 44,
          "midi": 70,
          "name": "A#4",
          "ticks": 1587,
          "time": 5.66785478125,
          "velocity": 0.503937007874016
        },
        {
          "duration": 0.16071421875,
          "durationTicks": 45,
          "midi": 71,
          "name": "B4",
          "ticks": 1634,
          "time": 5.83571185416667,
          "velocity": 0.511811023622047
        },
        {
          "duration": 0.16071421875,
          "durationTicks": 45,
          "midi": 83,
          "name": "B5",
          "ticks": 1634,
          "time": 5.83571185416667,
          "velocity": 0.511811023622047
        },
        {
          "duration": 0.16071421875,
          "durationTicks": 45,
          "midi": 72,
          "name": "C5",
          "ticks": 1682,
          "time": 6.00714035416667,
          "velocity": 0.503937007874016
        },
        {
          "duration": 0.16071421875,
          "durationTicks": 45,
          "midi": 84,
          "name": "C6",
          "ticks": 1682,
          "time": 6.00714035416667,
          "velocity": 0.503937007874016
        },
        {
          "duration": 0.16071421875,
          "durationTicks": 45,
          "midi": 72,
          "name": "C5",
          "ticks": 1777,
          "time": 6.34642592708333,
          "velocity": 0.503937007874016
        },
        {
          "duration": 0.16071421875,
          "durationTicks": 45,
          "midi": 84,
          "name": "C6",
          "ticks": 1777,
          "time": 6.34642592708333,
          "velocity": 0.503937007874016
        },
        {
          "duration": 0.157142791666667,
          "durationTicks": 44,
          "midi": 83,
          "name": "B5",
          "ticks": 1825,
          "time": 6.51785442708333,
          "velocity": 0.511811023622047
        },
        {
          "duration": 0.157142791666667,
          "durationTicks": 44,
          "midi": 71,
          "name": "B4",
          "ticks": 1825,
          "time": 6.51785442708333,
          "velocity": 0.511811023622047
        },
        {
          "duration": 0.160714218750001,
          "durationTicks": 45,
          "midi": 72,
          "name": "C5",
          "ticks": 1872,
          "time": 6.6857115,
          "velocity": 0.503937007874016
        },
        {
          "duration": 0.160714218750001,
          "durationTicks": 45,
          "midi": 84,
          "name": "C6",
          "ticks": 1872,
          "time": 6.6857115,
          "velocity": 0.503937007874016
        },
        {
          "duration": 0.1714285,
          "durationTicks": 48,
          "midi": 86,
          "name": "D6",
          "ticks": 1920,
          "time": 6.85714,
          "velocity": 0.543307086614173
        },
        {
          "duration": 0.1714285,
          "durationTicks": 48,
          "midi": 82,
          "name": "A#5",
          "ticks": 1920,
          "time": 6.85714,
          "velocity": 0.543307086614173
        },
        {
          "duration": 0.157142791666666,
          "durationTicks": 44,
          "midi": 81,
          "name": "A5",
          "ticks": 1971,
          "time": 7.03928278125,
          "velocity": 0.503937007874016
        },
        {
          "duration": 0.157142791666666,
          "durationTicks": 44,
          "midi": 88,
          "name": "E6",
          "ticks": 1971,
          "time": 7.03928278125,
          "velocity": 0.503937007874016
        },
        {
          "duration": 0.16071421875,
          "durationTicks": 45,
          "midi": 79,
          "name": "G5",
          "ticks": 2018,
          "time": 7.20713985416667,
          "velocity": 0.511811023622047
        },
        {
          "duration": 0.16071421875,
          "durationTicks": 45,
          "midi": 89,
          "name": "F6",
          "ticks": 2018,
          "time": 7.20713985416667,
          "velocity": 0.511811023622047
        },
        {
          "duration": 0.16071421875,
          "durationTicks": 45,
          "midi": 74,
          "name": "D5",
          "ticks": 2066,
          "time": 7.37856835416667,
          "velocity": 0.440944881889764
        },
        {
          "duration": 0.16071421875,
          "durationTicks": 45,
          "midi": 78,
          "name": "F#5",
          "ticks": 2066,
          "time": 7.37856835416667,
          "velocity": 0.440944881889764
        },
        {
          "duration": 0.16071421875,
          "durationTicks": 45,
          "midi": 81,
          "name": "A5",
          "ticks": 2066,
          "time": 7.37856835416667,
          "velocity": 0.551181102362205
        },
        {
          "duration": 0.16071421875,
          "durationTicks": 45,
          "midi": 62,
          "name": "D4",
          "ticks": 2161,
          "time": 7.71785392708333,
          "velocity": 0.551181102362205
        },
        {
          "duration": 0.16071421875,
          "durationTicks": 45,
          "midi": 54,
          "name": "F#3",
          "ticks": 2161,
          "time": 7.71785392708333,
          "velocity": 0.440944881889764
        },
        {
          "duration": 0.16071421875,
          "durationTicks": 45,
          "midi": 93,
          "name": "A6",
          "ticks": 2161,
          "time": 7.71785392708333,
          "velocity": 0.551181102362205
        },
        {
          "duration": 0.16071421875,
          "durationTicks": 45,
          "midi": 81,
          "name": "A5",
          "ticks": 2161,
          "time": 7.71785392708333,
          "velocity": 0.440944881889764
        },
        {
          "duration": 0.157142791666666,
          "durationTicks": 44,
          "midi": 79,
          "name": "G5",
          "ticks": 2209,
          "time": 7.88928242708334,
          "velocity": 0.448818897637795
        },
        {
          "duration": 0.157142791666666,
          "durationTicks": 44,
          "midi": 91,
          "name": "G6",
          "ticks": 2209,
          "time": 7.88928242708334,
          "velocity": 0.559055118110236
        },
        {
          "duration": 0.157142791666666,
          "durationTicks": 44,
          "midi": 55,
          "name": "G3",
          "ticks": 2209,
          "time": 7.88928242708334,
          "velocity": 0.448818897637795
        },
        {
          "duration": 0.157142791666666,
          "durationTicks": 44,
          "midi": 64,
          "name": "E4",
          "ticks": 2209,
          "time": 7.88928242708334,
          "velocity": 0.559055118110236
        },
        {
          "duration": 0.16071421875,
          "durationTicks": 45,
          "midi": 81,
          "name": "A5",
          "ticks": 2256,
          "time": 8.0571395,
          "velocity": 0.440944881889764
        },
        {
          "duration": 0.16071421875,
          "durationTicks": 45,
          "midi": 93,
          "name": "A6",
          "ticks": 2256,
          "time": 8.0571395,
          "velocity": 0.551181102362205
        },
        {
          "duration": 0.16071421875,
          "durationTicks": 45,
          "midi": 57,
          "name": "A3",
          "ticks": 2256,
          "time": 8.0571395,
          "velocity": 0.440944881889764
        },
        {
          "duration": 0.16071421875,
          "durationTicks": 45,
          "midi": 66,
          "name": "F#4",
          "ticks": 2256,
          "time": 8.0571395,
          "velocity": 0.551181102362205
        },
        {
          "duration": 0.689285427083334,
          "durationTicks": 193,
          "midi": 58,
          "name": "A#3",
          "ticks": 2304,
          "time": 8.228568,
          "velocity": 0.480314960629921
        },
        {
          "duration": 0.689285427083334,
          "durationTicks": 193,
          "midi": 62,
          "name": "D4",
          "ticks": 2304,
          "time": 8.228568,
          "velocity": 0.480314960629921
        },
        {
          "duration": 0.689285427083334,
          "durationTicks": 193,
          "midi": 67,
          "name": "G4",
          "ticks": 2304,
          "time": 8.228568,
          "velocity": 0.590551181102362
        },
        {
          "duration": 0.171428499999999,
          "durationTicks": 48,
          "midi": 82,
          "name": "A#5",
          "ticks": 2304,
          "time": 8.228568,
          "velocity": 0.480314960629921
        },
        {
          "duration": 0.171428499999999,
          "durationTicks": 48,
          "midi": 88,
          "name": "E6",
          "ticks": 2304,
          "time": 8.228568,
          "velocity": 0.480314960629921
        },
        {
          "duration": 0.171428499999999,
          "durationTicks": 48,
          "midi": 94,
          "name": "A#6",
          "ticks": 2304,
          "time": 8.228568,
          "velocity": 0.590551181102362
        },
        {
          "duration": 0.157142791666667,
          "durationTicks": 44,
          "midi": 93,
          "name": "A6",
          "ticks": 2355,
          "time": 8.41071078125,
          "velocity": 0.551181102362205
        },
        {
          "duration": 0.157142791666667,
          "durationTicks": 44,
          "midi": 81,
          "name": "A5",
          "ticks": 2355,
          "time": 8.41071078125,
          "velocity": 0.440944881889764
        },
        {
          "duration": 0.16071421875,
          "durationTicks": 45,
          "midi": 94,
          "name": "A#6",
          "ticks": 2402,
          "time": 8.57856785416667,
          "velocity": 0.559055118110236
        },
        {
          "duration": 0.16071421875,
          "durationTicks": 45,
          "midi": 82,
          "name": "A#5",
          "ticks": 2402,
          "time": 8.57856785416667,
          "velocity": 0.448818897637795
        },
        {
          "duration": 0.16071421875,
          "durationTicks": 45,
          "midi": 91,
          "name": "G6",
          "ticks": 2450,
          "time": 8.74999635416667,
          "velocity": 0.551181102362205
        },
        {
          "duration": 0.16071421875,
          "durationTicks": 45,
          "midi": 79,
          "name": "G5",
          "ticks": 2450,
          "time": 8.74999635416667,
          "velocity": 0.440944881889764
        },
        {
          "duration": 0.16071421875,
          "durationTicks": 45,
          "midi": 76,
          "name": "E5",
          "ticks": 2497,
          "time": 8.91785342708334,
          "velocity": 0.464566929133858
        },
        {
          "duration": 0.16071421875,
          "durationTicks": 45,
          "midi": 79,
          "name": "G5",
          "ticks": 2497,
          "time": 8.91785342708334,
          "velocity": 0.464566929133858
        },
        {
          "duration": 0.16071421875,
          "durationTicks": 45,
          "midi": 88,
          "name": "E6",
          "ticks": 2497,
          "time": 8.91785342708334,
          "velocity": 0.574803149606299
        },
        {
          "duration": 0.678571145833333,
          "durationTicks": 190,
          "midi": 60,
          "name": "C4",
          "ticks": 2497,
          "time": 8.91785342708334,
          "velocity": 0.551181102362205
        },
        {
          "duration": 0.678571145833333,
          "durationTicks": 190,
          "midi": 64,
          "name": "E4",
          "ticks": 2497,
          "time": 8.91785342708334,
          "velocity": 0.551181102362205
        },
        {
          "duration": 0.678571145833333,
          "durationTicks": 190,
          "midi": 67,
          "name": "G4",
          "ticks": 2497,
          "time": 8.91785342708334,
          "velocity": 0.511811023622047
        },
        {
          "duration": 0.16071421875,
          "durationTicks": 45,
          "midi": 86,
          "name": "D6",
          "ticks": 2545,
          "time": 9.08928192708333,
          "velocity": 0.551181102362205
        },
        {
          "duration": 0.16071421875,
          "durationTicks": 45,
          "midi": 74,
          "name": "D5",
          "ticks": 2545,
          "time": 9.08928192708333,
          "velocity": 0.440944881889764
        },
        {
          "duration": 0.157142791666667,
          "durationTicks": 44,
          "midi": 88,
          "name": "E6",
          "ticks": 2593,
          "time": 9.26071042708333,
          "velocity": 0.559055118110236
        },
        {
          "duration": 0.157142791666667,
          "durationTicks": 44,
          "midi": 76,
          "name": "E5",
          "ticks": 2593,
          "time": 9.26071042708333,
          "velocity": 0.448818897637795
        },
        {
          "duration": 0.160714218750002,
          "durationTicks": 45,
          "midi": 72,
          "name": "C5",
          "ticks": 2640,
          "time": 9.4285675,
          "velocity": 0.440944881889764
        },
        {
          "duration": 0.160714218750002,
          "durationTicks": 45,
          "midi": 84,
          "name": "C6",
          "ticks": 2640,
          "time": 9.4285675,
          "velocity": 0.551181102362205
        },
        {
          "duration": 0.171428499999999,
          "durationTicks": 48,
          "midi": 89,
          "name": "F6",
          "ticks": 2688,
          "time": 9.599996,
          "velocity": 0.590551181102362
        },
        {
          "duration": 0.171428499999999,
          "durationTicks": 48,
          "midi": 81,
          "name": "A5",
          "ticks": 2688,
          "time": 9.599996,
          "velocity": 0.480314960629921
        },
        {
          "duration": 0.171428499999999,
          "durationTicks": 48,
          "midi": 77,
          "name": "F5",
          "ticks": 2688,
          "time": 9.599996,
          "velocity": 0.480314960629921
        },
        {
          "duration": 0.171428499999999,
          "durationTicks": 48,
          "midi": 69,
          "name": "A4",
          "ticks": 2688,
          "time": 9.599996,
          "velocity": 0.543307086614173
        },
        {
          "duration": 0.157142791666665,
          "durationTicks": 44,
          "midi": 68,
          "name": "G#4",
          "ticks": 2739,
          "time": 9.78213878125,
          "velocity": 0.503937007874016
        },
        {
          "duration": 0.157142791666665,
          "durationTicks": 44,
          "midi": 77,
          "name": "F5",
          "ticks": 2739,
          "time": 9.78213878125,
          "velocity": 0.440944881889764
        },
        {
          "duration": 0.157142791666665,
          "durationTicks": 44,
          "midi": 81,
          "name": "A5",
          "ticks": 2739,
          "time": 9.78213878125,
          "velocity": 0.440944881889764
        },
        {
          "duration": 0.157142791666665,
          "durationTicks": 44,
          "midi": 89,
          "name": "F6",
          "ticks": 2739,
          "time": 9.78213878125,
          "velocity": 0.551181102362205
        },
        {
          "duration": 0.16071421875,
          "durationTicks": 45,
          "midi": 67,
          "name": "G4",
          "ticks": 2786,
          "time": 9.94999585416667,
          "velocity": 0.511811023622047
        },
        {
          "duration": 0.16071421875,
          "durationTicks": 45,
          "midi": 76,
          "name": "E5",
          "ticks": 2786,
          "time": 9.94999585416667,
          "velocity": 0.448818897637795
        },
        {
          "duration": 0.16071421875,
          "durationTicks": 45,
          "midi": 80,
          "name": "G#5",
          "ticks": 2786,
          "time": 9.94999585416667,
          "velocity": 0.448818897637795
        },
        {
          "duration": 0.16071421875,
          "durationTicks": 45,
          "midi": 88,
          "name": "E6",
          "ticks": 2786,
          "time": 9.94999585416667,
          "velocity": 0.559055118110236
        },
        {
          "duration": 0.16071421875,
          "durationTicks": 45,
          "midi": 89,
          "name": "F6",
          "ticks": 2834,
          "time": 10.1214243541667,
          "velocity": 0.551181102362205
        },
        {
          "duration": 0.16071421875,
          "durationTicks": 45,
          "midi": 81,
          "name": "A5",
          "ticks": 2834,
          "time": 10.1214243541667,
          "velocity": 0.440944881889764
        },
        {
          "duration": 0.16071421875,
          "durationTicks": 45,
          "midi": 77,
          "name": "F5",
          "ticks": 2834,
          "time": 10.1214243541667,
          "velocity": 0.440944881889764
        },
        {
          "duration": 0.16071421875,
          "durationTicks": 45,
          "midi": 65,
          "name": "F4",
          "ticks": 2834,
          "time": 10.1214243541667,
          "velocity": 0.503937007874016
        },
        {
          "duration": 0.521428354166659,
          "durationTicks": 146,
          "midi": 69,
          "name": "A4",
          "ticks": 24576,
          "time": 87.771392,
          "velocity": 0.480314960629921
        },
        {
          "duration": 0.521428354166659,
          "durationTicks": 146,
          "midi": 74,
          "name": "D5",
          "ticks": 24576,
          "time": 87.771392,
          "velocity": 0.480314960629921
        },
        {
          "duration": 0.521428354166659,
          "durationTicks": 146,
          "midi": 77,
          "name": "F5",
          "ticks": 24576,
          "time": 87.771392,
          "velocity": 0.480314960629921
        },
        {
          "duration": 0.521428354166659,
          "durationTicks": 146,
          "midi": 81,
          "name": "A5",
          "ticks": 24576,
          "time": 87.771392,
          "velocity": 0.590551181102362
        },
        {
          "duration": 0.160714218750002,
          "durationTicks": 45,
          "midi": 81,
          "name": "A5",
          "ticks": 24722,
          "time": 88.2928203541667,
          "velocity": 0.551181102362205
        },
        {
          "duration": 0.160714218750002,
          "durationTicks": 45,
          "midi": 69,
          "name": "A4",
          "ticks": 24722,
          "time": 88.2928203541667,
          "velocity": 0.440944881889764
        },
        {
          "duration": 0.160714218750002,
          "durationTicks": 45,
          "midi": 65,
          "name": "F4",
          "ticks": 24769,
          "time": 88.4606774270833,
          "velocity": 0.464566929133858
        },
        {
          "duration": 0.160714218750002,
          "durationTicks": 45,
          "midi": 77,
          "name": "F5",
          "ticks": 24769,
          "time": 88.4606774270833,
          "velocity": 0.574803149606299
        },
        {
          "duration": 0.160714218750002,
          "durationTicks": 45,
          "midi": 81,
          "name": "A5",
          "ticks": 24817,
          "time": 88.6321059270833,
          "velocity": 0.551181102362205
        },
        {
          "duration": 0.160714218750002,
          "durationTicks": 45,
          "midi": 69,
          "name": "A4",
          "ticks": 24817,
          "time": 88.6321059270833,
          "velocity": 0.440944881889764
        },
        {
          "duration": 0.157142791666658,
          "durationTicks": 44,
          "midi": 65,
          "name": "F4",
          "ticks": 24865,
          "time": 88.8035344270834,
          "velocity": 0.448818897637795
        },
        {
          "duration": 0.157142791666658,
          "durationTicks": 44,
          "midi": 77,
          "name": "F5",
          "ticks": 24865,
          "time": 88.8035344270834,
          "velocity": 0.559055118110236
        },
        {
          "duration": 0.160714218750002,
          "durationTicks": 45,
          "midi": 76,
          "name": "E5",
          "ticks": 24912,
          "time": 88.9713915,
          "velocity": 0.551181102362205
        },
        {
          "duration": 0.160714218750002,
          "durationTicks": 45,
          "midi": 64,
          "name": "E4",
          "ticks": 24912,
          "time": 88.9713915,
          "velocity": 0.440944881889764
        },
        {
          "duration": 0.171428500000005,
          "durationTicks": 48,
          "midi": 74,
          "name": "D5",
          "ticks": 24960,
          "time": 89.14282,
          "velocity": 0.590551181102362
        },
        {
          "duration": 0.171428500000005,
          "durationTicks": 48,
          "midi": 62,
          "name": "D4",
          "ticks": 24960,
          "time": 89.14282,
          "velocity": 0.480314960629921
        },
        {
          "duration": 0.157142791666658,
          "durationTicks": 44,
          "midi": 86,
          "name": "D6",
          "ticks": 25011,
          "time": 89.32496278125,
          "velocity": 0.551181102362205
        },
        {
          "duration": 0.157142791666658,
          "durationTicks": 44,
          "midi": 74,
          "name": "D5",
          "ticks": 25011,
          "time": 89.32496278125,
          "velocity": 0.440944881889764
        },
        {
          "duration": 0.160714218750002,
          "durationTicks": 45,
          "midi": 89,
          "name": "F6",
          "ticks": 25058,
          "time": 89.4928198541667,
          "velocity": 0.559055118110236
        },
        {
          "duration": 0.160714218750002,
          "durationTicks": 45,
          "midi": 77,
          "name": "F5",
          "ticks": 25058,
          "time": 89.4928198541667,
          "velocity": 0.448818897637795
        },
        {
          "duration": 0.160714218750002,
          "durationTicks": 45,
          "midi": 93,
          "name": "A6",
          "ticks": 25106,
          "time": 89.6642483541667,
          "velocity": 0.551181102362205
        },
        {
          "duration": 0.160714218750002,
          "durationTicks": 45,
          "midi": 81,
          "name": "A5",
          "ticks": 25106,
          "time": 89.6642483541667,
          "velocity": 0.440944881889764
        },
        {
          "duration": 0.160714218750002,
          "durationTicks": 45,
          "midi": 86,
          "name": "D6",
          "ticks": 25153,
          "time": 89.8321054270834,
          "velocity": 0.464566929133858
        },
        {
          "duration": 0.160714218750002,
          "durationTicks": 45,
          "midi": 98,
          "name": "D7",
          "ticks": 25153,
          "time": 89.8321054270834,
          "velocity": 0.574803149606299
        },
        {
          "duration": 0.160714218750002,
          "durationTicks": 45,
          "midi": 74,
          "name": "D5",
          "ticks": 25201,
          "time": 90.0035339270833,
          "velocity": 0.551181102362205
        },
        {
          "duration": 0.160714218750002,
          "durationTicks": 45,
          "midi": 62,
          "name": "D4",
          "ticks": 25201,
          "time": 90.0035339270833,
          "velocity": 0.440944881889764
        },
        {
          "duration": 0.157142791666658,
          "durationTicks": 44,
          "midi": 65,
          "name": "F4",
          "ticks": 25249,
          "time": 90.1749624270833,
          "velocity": 0.448818897637795
        },
        {
          "duration": 0.157142791666658,
          "durationTicks": 44,
          "midi": 77,
          "name": "F5",
          "ticks": 25249,
          "time": 90.1749624270833,
          "velocity": 0.559055118110236
        },
        {
          "duration": 0.160714218750002,
          "durationTicks": 45,
          "midi": 81,
          "name": "A5",
          "ticks": 25296,
          "time": 90.3428195,
          "velocity": 0.551181102362205
        },
        {
          "duration": 0.160714218750002,
          "durationTicks": 45,
          "midi": 69,
          "name": "A4",
          "ticks": 25296,
          "time": 90.3428195,
          "velocity": 0.440944881889764
        },
        {
          "duration": 0.521428354166659,
          "durationTicks": 146,
          "midi": 86,
          "name": "D6",
          "ticks": 25344,
          "time": 90.514248,
          "velocity": 0.590551181102362
        },
        {
          "duration": 0.521428354166659,
          "durationTicks": 146,
          "midi": 82,
          "name": "A#5",
          "ticks": 25344,
          "time": 90.514248,
          "velocity": 0.480314960629921
        },
        {
          "duration": 0.521428354166659,
          "durationTicks": 146,
          "midi": 77,
          "name": "F5",
          "ticks": 25344,
          "time": 90.514248,
          "velocity": 0.480314960629921
        },
        {
          "duration": 0.521428354166659,
          "durationTicks": 146,
          "midi": 74,
          "name": "D5",
          "ticks": 25344,
          "time": 90.514248,
          "velocity": 0.480314960629921
        },
        {
          "duration": 0.160714218750002,
          "durationTicks": 45,
          "midi": 86,
          "name": "D6",
          "ticks": 25490,
          "time": 91.0356763541667,
          "velocity": 0.551181102362205
        },
        {
          "duration": 0.160714218750002,
          "durationTicks": 45,
          "midi": 74,
          "name": "D5",
          "ticks": 25490,
          "time": 91.0356763541667,
          "velocity": 0.440944881889764
        },
        {
          "duration": 0.160714218750002,
          "durationTicks": 45,
          "midi": 72,
          "name": "C5",
          "ticks": 25537,
          "time": 91.2035334270833,
          "velocity": 0.464566929133858
        },
        {
          "duration": 0.160714218750002,
          "durationTicks": 45,
          "midi": 84,
          "name": "C6",
          "ticks": 25537,
          "time": 91.2035334270833,
          "velocity": 0.574803149606299
        },
        {
          "duration": 0.160714218750002,
          "durationTicks": 45,
          "midi": 86,
          "name": "D6",
          "ticks": 25585,
          "time": 91.3749619270834,
          "velocity": 0.551181102362205
        },
        {
          "duration": 0.160714218750002,
          "durationTicks": 45,
          "midi": 74,
          "name": "D5",
          "ticks": 25585,
          "time": 91.3749619270834,
          "velocity": 0.440944881889764
        },
        {
          "duration": 0.157142791666658,
          "durationTicks": 44,
          "midi": 72,
          "name": "C5",
          "ticks": 25633,
          "time": 91.5463904270834,
          "velocity": 0.448818897637795
        },
        {
          "duration": 0.157142791666658,
          "durationTicks": 44,
          "midi": 84,
          "name": "C6",
          "ticks": 25633,
          "time": 91.5463904270834,
          "velocity": 0.559055118110236
        },
        {
          "duration": 0.160714218750002,
          "durationTicks": 45,
          "midi": 67,
          "name": "G4",
          "ticks": 25680,
          "time": 91.7142475,
          "velocity": 0.440944881889764
        },
        {
          "duration": 0.160714218750002,
          "durationTicks": 45,
          "midi": 79,
          "name": "G5",
          "ticks": 25680,
          "time": 91.7142475,
          "velocity": 0.551181102362205
        },
        {
          "duration": 0.171428500000005,
          "durationTicks": 48,
          "midi": 81,
          "name": "A5",
          "ticks": 25728,
          "time": 91.885676,
          "velocity": 0.590551181102362
        },
        {
          "duration": 0.171428500000005,
          "durationTicks": 48,
          "midi": 76,
          "name": "E5",
          "ticks": 25728,
          "time": 91.885676,
          "velocity": 0.480314960629921
        },
        {
          "duration": 0.171428500000005,
          "durationTicks": 48,
          "midi": 73,
          "name": "C#5",
          "ticks": 25728,
          "time": 91.885676,
          "velocity": 0.480314960629921
        },
        {
          "duration": 0.171428500000005,
          "durationTicks": 48,
          "midi": 69,
          "name": "A4",
          "ticks": 25728,
          "time": 91.885676,
          "velocity": 0.480314960629921
        },
        {
          "duration": 0.0749999687499923,
          "durationTicks": 21,
          "midi": 85,
          "name": "C#6",
          "ticks": 25779,
          "time": 92.06781878125,
          "velocity": 0.503937007874016
        },
        {
          "duration": 0.0821428229166799,
          "durationTicks": 23,
          "midi": 82,
          "name": "A#5",
          "ticks": 25802,
          "time": 92.1499616041667,
          "velocity": 0.503937007874016
        },
        {
          "duration": 0.0821428229166799,
          "durationTicks": 23,
          "midi": 81,
          "name": "A5",
          "ticks": 25826,
          "time": 92.2356758541667,
          "velocity": 0.511811023622047
        },
        {
          "duration": 0.0749999687499923,
          "durationTicks": 21,
          "midi": 82,
          "name": "A#5",
          "ticks": 25851,
          "time": 92.32496153125,
          "velocity": 0.503937007874016
        },
        {
          "duration": 0.0749999687500065,
          "durationTicks": 21,
          "midi": 81,
          "name": "A5",
          "ticks": 25874,
          "time": 92.4071043541667,
          "velocity": 0.503937007874016
        },
        {
          "duration": 0.0821428229166656,
          "durationTicks": 23,
          "midi": 79,
          "name": "G5",
          "ticks": 25897,
          "time": 92.4892471770833,
          "velocity": 0.503937007874016
        },
        {
          "duration": 0.342856999999995,
          "durationTicks": 96,
          "midi": 81,
          "name": "A5",
          "ticks": 25921,
          "time": 92.5749614270834,
          "velocity": 0.52755905511811
        },
        {
          "duration": 0.335714145833322,
          "durationTicks": 94,
          "midi": 69,
          "name": "A4",
          "ticks": 26017,
          "time": 92.9178184270834,
          "velocity": 0.448818897637795
        },
        {
          "duration": 0.335714145833322,
          "durationTicks": 94,
          "midi": 76,
          "name": "E5",
          "ticks": 26017,
          "time": 92.9178184270834,
          "velocity": 0.559055118110236
        },
        {
          "duration": 0.521428354166659,
          "durationTicks": 146,
          "midi": 77,
          "name": "F5",
          "ticks": 26112,
          "time": 93.257104,
          "velocity": 0.590551181102362
        },
        {
          "duration": 0.521428354166659,
          "durationTicks": 146,
          "midi": 74,
          "name": "D5",
          "ticks": 26112,
          "time": 93.257104,
          "velocity": 0.480314960629921
        },
        {
          "duration": 0.521428354166659,
          "durationTicks": 146,
          "midi": 69,
          "name": "A4",
          "ticks": 26112,
          "time": 93.257104,
          "velocity": 0.480314960629921
        },
        {
          "duration": 0.160714218750002,
          "durationTicks": 45,
          "midi": 77,
          "name": "F5",
          "ticks": 26258,
          "time": 93.7785323541667,
          "velocity": 0.503937007874016
        },
        {
          "duration": 0.160714218750002,
          "durationTicks": 45,
          "midi": 76,
          "name": "E5",
          "ticks": 26305,
          "time": 93.9463894270834,
          "velocity": 0.574803149606299
        },
        {
          "duration": 0.160714218750002,
          "durationTicks": 45,
          "midi": 72,
          "name": "C5",
          "ticks": 26305,
          "time": 93.9463894270834,
          "velocity": 0.464566929133858
        },
        {
          "duration": 0.160714218750002,
          "durationTicks": 45,
          "midi": 67,
          "name": "G4",
          "ticks": 26305,
          "time": 93.9463894270834,
          "velocity": 0.464566929133858
        },
        {
          "duration": 0.160714218750002,
          "durationTicks": 45,
          "midi": 77,
          "name": "F5",
          "ticks": 26353,
          "time": 94.1178179270834,
          "velocity": 0.503937007874016
        },
        {
          "duration": 0.157142791666658,
          "durationTicks": 44,
          "midi": 81,
          "name": "A5",
          "ticks": 26401,
          "time": 94.2892464270833,
          "velocity": 0.511811023622047
        },
        {
          "duration": 0.160714218750002,
          "durationTicks": 45,
          "midi": 74,
          "name": "D5",
          "ticks": 26448,
          "time": 94.4571035,
          "velocity": 0.503937007874016
        },
        {
          "duration": 0.171428500000005,
          "durationTicks": 48,
          "midi": 71,
          "name": "B4",
          "ticks": 26496,
          "time": 94.628532,
          "velocity": 0.480314960629921
        },
        {
          "duration": 0.171428500000005,
          "durationTicks": 48,
          "midi": 74,
          "name": "D5",
          "ticks": 26496,
          "time": 94.628532,
          "velocity": 0.480314960629921
        },
        {
          "duration": 0.171428500000005,
          "durationTicks": 48,
          "midi": 79,
          "name": "G5",
          "ticks": 26496,
          "time": 94.628532,
          "velocity": 0.559055118110236
        },
        {
          "duration": 0.157142791666672,
          "durationTicks": 44,
          "midi": 71,
          "name": "B4",
          "ticks": 26547,
          "time": 94.81067478125,
          "velocity": 0.440944881889764
        },
        {
          "duration": 0.157142791666672,
          "durationTicks": 44,
          "midi": 74,
          "name": "D5",
          "ticks": 26547,
          "time": 94.81067478125,
          "velocity": 0.440944881889764
        },
        {
          "duration": 0.157142791666672,
          "durationTicks": 44,
          "midi": 79,
          "name": "G5",
          "ticks": 26547,
          "time": 94.81067478125,
          "velocity": 0.519685039370079
        },
        {
          "duration": 0.160714218750002,
          "durationTicks": 45,
          "midi": 71,
          "name": "B4",
          "ticks": 26594,
          "time": 94.9785318541667,
          "velocity": 0.448818897637795
        },
        {
          "duration": 0.160714218750002,
          "durationTicks": 45,
          "midi": 74,
          "name": "D5",
          "ticks": 26594,
          "time": 94.9785318541667,
          "velocity": 0.448818897637795
        },
        {
          "duration": 0.160714218750002,
          "durationTicks": 45,
          "midi": 79,
          "name": "G5",
          "ticks": 26594,
          "time": 94.9785318541667,
          "velocity": 0.52755905511811
        },
        {
          "duration": 0.160714218750002,
          "durationTicks": 45,
          "midi": 71,
          "name": "B4",
          "ticks": 26642,
          "time": 95.1499603541667,
          "velocity": 0.440944881889764
        },
        {
          "duration": 0.160714218750002,
          "durationTicks": 45,
          "midi": 74,
          "name": "D5",
          "ticks": 26642,
          "time": 95.1499603541667,
          "velocity": 0.440944881889764
        },
        {
          "duration": 0.160714218750002,
          "durationTicks": 45,
          "midi": 79,
          "name": "G5",
          "ticks": 26642,
          "time": 95.1499603541667,
          "velocity": 0.551181102362205
        },
        {
          "duration": 0.160714218750002,
          "durationTicks": 45,
          "midi": 78,
          "name": "F#5",
          "ticks": 26689,
          "time": 95.3178174270833,
          "velocity": 0.574803149606299
        },
        {
          "duration": 0.160714218750002,
          "durationTicks": 45,
          "midi": 71,
          "name": "B4",
          "ticks": 26689,
          "time": 95.3178174270833,
          "velocity": 0.464566929133858
        },
        {
          "duration": 0.160714218750002,
          "durationTicks": 45,
          "midi": 79,
          "name": "G5",
          "ticks": 26737,
          "time": 95.4892459270834,
          "velocity": 0.503937007874016
        },
        {
          "duration": 0.157142791666658,
          "durationTicks": 44,
          "midi": 71,
          "name": "B4",
          "ticks": 26785,
          "time": 95.6606744270834,
          "velocity": 0.448818897637795
        },
        {
          "duration": 0.157142791666658,
          "durationTicks": 44,
          "midi": 78,
          "name": "F#5",
          "ticks": 26785,
          "time": 95.6606744270834,
          "velocity": 0.559055118110236
        },
        {
          "duration": 0.160714218750002,
          "durationTicks": 45,
          "midi": 79,
          "name": "G5",
          "ticks": 26832,
          "time": 95.8285315,
          "velocity": 0.503937007874016
        },
        {
          "duration": 0.171428500000005,
          "durationTicks": 48,
          "midi": 78,
          "name": "F#5",
          "ticks": 26880,
          "time": 95.99996,
          "velocity": 0.590551181102362
        },
        {
          "duration": 0.171428500000005,
          "durationTicks": 48,
          "midi": 70,
          "name": "A#4",
          "ticks": 26880,
          "time": 95.99996,
          "velocity": 0.480314960629921
        },
        {
          "duration": 0.157142791666658,
          "durationTicks": 44,
          "midi": 79,
          "name": "G5",
          "ticks": 26931,
          "time": 96.18210278125,
          "velocity": 0.503937007874016
        },
        {
          "duration": 0.160714218750002,
          "durationTicks": 45,
          "midi": 80,
          "name": "G#5",
          "ticks": 26978,
          "time": 96.3499598541667,
          "velocity": 0.511811023622047
        },
        {
          "duration": 0.160714218750002,
          "durationTicks": 45,
          "midi": 81,
          "name": "A5",
          "ticks": 27026,
          "time": 96.5213883541667,
          "velocity": 0.503937007874016
        },
        {
          "duration": 0.160714218750002,
          "durationTicks": 45,
          "midi": 72,
          "name": "C5",
          "ticks": 27073,
          "time": 96.6892454270834,
          "velocity": 0.464566929133858
        },
        {
          "duration": 0.160714218750002,
          "durationTicks": 45,
          "midi": 81,
          "name": "A5",
          "ticks": 27073,
          "time": 96.6892454270834,
          "velocity": 0.574803149606299
        },
        {
          "duration": 0.160714218750002,
          "durationTicks": 45,
          "midi": 82,
          "name": "A#5",
          "ticks": 27121,
          "time": 96.8606739270833,
          "velocity": 0.503937007874016
        },
        {
          "duration": 0.157142791666658,
          "durationTicks": 44,
          "midi": 83,
          "name": "B5",
          "ticks": 27169,
          "time": 97.0321024270833,
          "velocity": 0.511811023622047
        },
        {
          "duration": 0.160714218750002,
          "durationTicks": 45,
          "midi": 84,
          "name": "C6",
          "ticks": 27216,
          "time": 97.1999595,
          "velocity": 0.503937007874016
        },
        {
          "duration": 0.17142849999999,
          "durationTicks": 48,
          "midi": 86,
          "name": "D6",
          "ticks": 27264,
          "time": 97.371388,
          "velocity": 0.543307086614173
        }
      ]
    },
    {
      "channel": 9,
      "controlChanges": {
        "6": [
          {
            "number": 6,
            "ticks": 0,
            "time": 0,
            "value": 0.094488188976378
          },
          {
            "number": 6,
            "ticks": 0,
            "time": 0,
            "value": 0.094488188976378
          },
          {
            "number": 6,
            "ticks": 0,
            "time": 0,
            "value": 0.094488188976378
          },
          {
            "number": 6,
            "ticks": 34176,
            "time": 122.057092,
            "value": 0.094488188976378
          },
          {
            "number": 6,
            "ticks": 34177,
            "time": 122.060663427083,
            "value": 0.094488188976378
          },
          {
            "number": 6,
            "ticks": 34177,
            "time": 122.060663427083,
            "value": 0.094488188976378
          }
        ],
        "7": [
          {
            "number": 7,
            "ticks": 0,
            "time": 0,
            "value": 1
          },
          {
            "number": 7,
            "ticks": 0,
            "time": 0,
            "value": 1
          },
          {
            "number": 7,
            "ticks": 0,
            "time": 0,
            "value": 1
          },
          {
            "number": 7,
            "ticks": 0,
            "time": 0,
            "value": 1
          },
          {
            "number": 7,
            "ticks": 34176,
            "time": 122.057092,
            "value": 1
          },
          {
            "number": 7,
            "ticks": 34177,
            "time": 122.060663427083,
            "value": 1
          },
          {
            "number": 7,
            "ticks": 34177,
            "time": 122.060663427083,
            "value": 1
          }
        ],
        "10": [
          {
            "number": 10,
            "ticks": 0,
            "time": 0,
            "value": 0.503937007874016
          },
          {
            "number": 10,
            "ticks": 0,
            "time": 0,
            "value": 0.503937007874016
          },
          {
            "number": 10,
            "ticks": 0,
            "time": 0,
            "value": 0.503937007874016
          },
          {
            "number": 10,
            "ticks": 0,
            "time": 0,
            "value": 0.503937007874016
          },
          {
            "number": 10,
            "ticks": 34176,
            "time": 122.057092,
            "value": 0.503937007874016
          },
          {
            "number": 10,
            "ticks": 34177,
            "time": 122.060663427083,
            "value": 0.503937007874016
          },
          {
            "number": 10,
            "ticks": 34177,
            "time": 122.060663427083,
            "value": 0.503937007874016
          }
        ],
        "100": [
          {
            "number": 100,
            "ticks": 0,
            "time": 0,
            "value": 0
          },
          {
            "number": 100,
            "ticks": 0,
            "time": 0,
            "value": 0
          },
          {
            "number": 100,
            "ticks": 0,
            "time": 0,
            "value": 0
          },
          {
            "number": 100,
            "ticks": 34176,
            "time": 122.057092,
            "value": 0
          },
          {
            "number": 100,
            "ticks": 34177,
            "time": 122.060663427083,
            "value": 0
          },
          {
            "number": 100,
            "ticks": 34177,
            "time": 122.060663427083,
            "value": 0
          }
        ],
        "101": [
          {
            "number": 101,
            "ticks": 0,
            "time": 0,
            "value": 0
          },
          {
            "number": 101,
            "ticks": 0,
            "time": 0,
            "value": 0
          },
          {
            "number": 101,
            "ticks": 0,
            "time": 0,
            "value": 0
          },
          {
            "number": 101,
            "ticks": 34176,
            "time": 122.057092,
            "value": 0
          },
          {
            "number": 101,
            "ticks": 34177,
            "time": 122.060663427083,
            "value": 0
          },
          {
            "number": 101,
            "ticks": 34177,
            "time": 122.060663427083,
            "value": 0
          }
        ]
      },
      "pitchBends": [
        {
          "ticks": 0,
          "time": 0,
          "value": 0
        },
        {
          "ticks": 0,
          "time": 0,
          "value": 0
        },
        {
          "ticks": 0,
          "time": 0,
          "value": 0
        },
        {
          "ticks": 0,
          "time": 0,
          "value": 0
        },
        {
          "ticks": 34176,
          "time": 122.057092,
          "value": 0
        },
        {
          "ticks": 34177,
          "time": 122.060663427083,
          "value": 0
        },
        {
          "ticks": 34177,
          "time": 122.060663427083,
          "value": 0
        }
      ],
      "instrument": {
        "family": "drums",
        "number": 0,
        "name": "standard kit"
      },
      "name": "MIDI out #9",
      "notes": [
        {
          "duration": 0.07499996875,
          "durationTicks": 21,
          "midi": 42,
          "name": "F#2",
          "ticks": 0,
          "time": 0,
          "velocity": 0.669291338582677
        },
        {
          "duration": 0.07499996875,
          "durationTicks": 21,
          "midi": 42,
          "name": "F#2",
          "ticks": 48,
          "time": 0.1714285,
          "velocity": 0.669291338582677
        },
        {
          "duration": 0.07499996875,
          "durationTicks": 21,
          "midi": 40,
          "name": "E2",
          "ticks": 96,
          "time": 0.342857,
          "velocity": 0.669291338582677
        },
        {
          "duration": 0.0749999687499999,
          "durationTicks": 21,
          "midi": 40,
          "name": "E2",
          "ticks": 144,
          "time": 0.5142855,
          "velocity": 0.669291338582677
        },
        {
          "duration": 0.07499996875,
          "durationTicks": 21,
          "midi": 42,
          "name": "F#2",
          "ticks": 240,
          "time": 0.8571425,
          "velocity": 0.669291338582677
        },
        {
          "duration": 0.07499996875,
          "durationTicks": 21,
          "midi": 42,
          "name": "F#2",
          "ticks": 288,
          "time": 1.028571,
          "velocity": 0.669291338582677
        },
        {
          "duration": 0.07499996875,
          "durationTicks": 21,
          "midi": 42,
          "name": "F#2",
          "ticks": 336,
          "time": 1.1999995,
          "velocity": 0.669291338582677
        },
        {
          "duration": 0.07499996875,
          "durationTicks": 21,
          "midi": 42,
          "name": "F#2",
          "ticks": 384,
          "time": 1.371428,
          "velocity": 0.669291338582677
        },
        {
          "duration": 0.07499996875,
          "durationTicks": 21,
          "midi": 42,
          "name": "F#2",
          "ticks": 384,
          "time": 1.371428,
          "velocity": 0.669291338582677
        },
        {
          "duration": 0.07499996875,
          "durationTicks": 21,
          "midi": 42,
          "name": "F#2",
          "ticks": 432,
          "time": 1.5428565,
          "velocity": 0.669291338582677
        },
        {
          "duration": 0.07499996875,
          "durationTicks": 21,
          "midi": 42,
          "name": "F#2",
          "ticks": 432,
          "time": 1.5428565,
          "velocity": 0.669291338582677
        },
        {
          "duration": 0.07499996875,
          "durationTicks": 21,
          "midi": 40,
          "name": "E2",
          "ticks": 480,
          "time": 1.714285,
          "velocity": 0.669291338582677
        },
        {
          "duration": 0.07499996875,
          "durationTicks": 21,
          "midi": 40,
          "name": "E2",
          "ticks": 528,
          "time": 1.8857135,
          "velocity": 0.669291338582677
        },
        {
          "duration": 0.0749999687500003,
          "durationTicks": 21,
          "midi": 42,
          "name": "F#2",
          "ticks": 624,
          "time": 2.2285705,
          "velocity": 0.669291338582677
        },
        {
          "duration": 0.0749999687499998,
          "durationTicks": 21,
          "midi": 42,
          "name": "F#2",
          "ticks": 672,
          "time": 2.399999,
          "velocity": 0.669291338582677
        },
        {
          "duration": 0.0749999687500003,
          "durationTicks": 21,
          "midi": 42,
          "name": "F#2",
          "ticks": 720,
          "time": 2.5714275,
          "velocity": 0.669291338582677
        },
        {
          "duration": 0.0749999687499998,
          "durationTicks": 21,
          "midi": 42,
          "name": "F#2",
          "ticks": 768,
          "time": 2.742856,
          "velocity": 0.669291338582677
        },
        {
          "duration": 0.0749999687499998,
          "durationTicks": 21,
          "midi": 42,
          "name": "F#2",
          "ticks": 816,
          "time": 2.9142845,
          "velocity": 0.669291338582677
        },
        {
          "duration": 0.0749999687500003,
          "durationTicks": 21,
          "midi": 40,
          "name": "E2",
          "ticks": 864,
          "time": 3.085713,
          "velocity": 0.669291338582677
        },
        {
          "duration": 0.0749999687500003,
          "durationTicks": 21,
          "midi": 42,
          "name": "F#2",
          "ticks": 960,
          "time": 3.42857,
          "velocity": 0.669291338582677
        },
        {
          "duration": 0.0749999687499998,
          "durationTicks": 21,
          "midi": 42,
          "name": "F#2",
          "ticks": 1008,
          "time": 3.5999985,
          "velocity": 0.669291338582677
        },
        {
          "duration": 0.0749999687500003,
          "durationTicks": 21,
          "midi": 40,
          "name": "E2",
          "ticks": 1056,
          "time": 3.771427,
          "velocity": 0.669291338582677
        },
        {
          "duration": 0.0749999687499994,
          "durationTicks": 21,
          "midi": 42,
          "name": "F#2",
          "ticks": 1152,
          "time": 4.114284,
          "velocity": 0.669291338582677
        },
        {
          "duration": 0.0749999687499994,
          "durationTicks": 21,
          "midi": 42,
          "name": "F#2",
          "ticks": 1200,
          "time": 4.2857125,
          "velocity": 0.669291338582677
        },
        {
          "duration": 0.0749999687500003,
          "durationTicks": 21,
          "midi": 42,
          "name": "F#2",
          "ticks": 1248,
          "time": 4.457141,
          "velocity": 0.669291338582677
        },
        {
          "duration": 0.0749999687500003,
          "durationTicks": 21,
          "midi": 42,
          "name": "F#2",
          "ticks": 1296,
          "time": 4.6285695,
          "velocity": 0.669291338582677
        },
        {
          "duration": 0.0749999687499994,
          "durationTicks": 21,
          "midi": 59,
          "name": "B3",
          "ticks": 1392,
          "time": 4.9714265,
          "velocity": 0.669291338582677
        },
        {
          "duration": 0.0749999687499994,
          "durationTicks": 21,
          "midi": 40,
          "name": "E2",
          "ticks": 1392,
          "time": 4.9714265,
          "velocity": 0.669291338582677
        },
        {
          "duration": 0.0749999687500003,
          "durationTicks": 21,
          "midi": 40,
          "name": "E2",
          "ticks": 1440,
          "time": 5.142855,
          "velocity": 0.669291338582677
        },
        {
          "duration": 0.0749999687500003,
          "durationTicks": 21,
          "midi": 59,
          "name": "B3",
          "ticks": 1440,
          "time": 5.142855,
          "velocity": 0.669291338582677
        },
        {
          "duration": 0.0749999687500003,
          "durationTicks": 21,
          "midi": 42,
          "name": "F#2",
          "ticks": 1536,
          "time": 5.485712,
          "velocity": 0.669291338582677
        },
        {
          "duration": 0.0749999687499994,
          "durationTicks": 21,
          "midi": 42,
          "name": "F#2",
          "ticks": 1584,
          "time": 5.6571405,
          "velocity": 0.669291338582677
        },
        {
          "duration": 0.0749999687499994,
          "durationTicks": 21,
          "midi": 40,
          "name": "E2",
          "ticks": 1632,
          "time": 5.828569,
          "velocity": 0.669291338582677
        },
        {
          "duration": 0.0749999687500003,
          "durationTicks": 21,
          "midi": 40,
          "name": "E2",
          "ticks": 1680,
          "time": 5.9999975,
          "velocity": 0.669291338582677
        },
        {
          "duration": 0.0749999687500003,
          "durationTicks": 21,
          "midi": 42,
          "name": "F#2",
          "ticks": 1776,
          "time": 6.3428545,
          "velocity": 0.669291338582677
        },
        {
          "duration": 0.0749999687499994,
          "durationTicks": 21,
          "midi": 42,
          "name": "F#2",
          "ticks": 1824,
          "time": 6.514283,
          "velocity": 0.669291338582677
        },
        {
          "duration": 0.0749999687500003,
          "durationTicks": 21,
          "midi": 42,
          "name": "F#2",
          "ticks": 1872,
          "time": 6.6857115,
          "velocity": 0.669291338582677
        },
        {
          "duration": 0.0749999687500003,
          "durationTicks": 21,
          "midi": 42,
          "name": "F#2",
          "ticks": 1920,
          "time": 6.85714,
          "velocity": 0.669291338582677
        },
        {
          "duration": 0.0749999687500003,
          "durationTicks": 21,
          "midi": 42,
          "name": "F#2",
          "ticks": 1920,
          "time": 6.85714,
          "velocity": 0.669291338582677
        },
        {
          "duration": 0.0749999687500003,
          "durationTicks": 21,
          "midi": 42,
          "name": "F#2",
          "ticks": 1968,
          "time": 7.0285685,
          "velocity": 0.669291338582677
        },
        {
          "duration": 0.0749999687500003,
          "durationTicks": 21,
          "midi": 42,
          "name": "F#2",
          "ticks": 1968,
          "time": 7.0285685,
          "velocity": 0.669291338582677
        },
        {
          "duration": 0.0749999687500003,
          "durationTicks": 21,
          "midi": 40,
          "name": "E2",
          "ticks": 2016,
          "time": 7.199997,
          "velocity": 0.669291338582677
        },
        {
          "duration": 0.0749999687499994,
          "durationTicks": 21,
          "midi": 40,
          "name": "E2",
          "ticks": 2064,
          "time": 7.3714255,
          "velocity": 0.669291338582677
        },
        {
          "duration": 0.0749999687500003,
          "durationTicks": 21,
          "midi": 42,
          "name": "F#2",
          "ticks": 2160,
          "time": 7.7142825,
          "velocity": 0.669291338582677
        },
        {
          "duration": 0.0749999687500003,
          "durationTicks": 21,
          "midi": 42,
          "name": "F#2",
          "ticks": 2208,
          "time": 7.885711,
          "velocity": 0.669291338582677
        },
        {
          "duration": 0.0749999687500011,
          "durationTicks": 21,
          "midi": 42,
          "name": "F#2",
          "ticks": 2256,
          "time": 8.0571395,
          "velocity": 0.669291338582677
        },
        {
          "duration": 0.0749999687499994,
          "durationTicks": 21,
          "midi": 42,
          "name": "F#2",
          "ticks": 2304,
          "time": 8.228568,
          "velocity": 0.669291338582677
        },
        {
          "duration": 0.0749999687499994,
          "durationTicks": 21,
          "midi": 42,
          "name": "F#2",
          "ticks": 2352,
          "time": 8.3999965,
          "velocity": 0.669291338582677
        },
        {
          "duration": 0.0749999687499994,
          "durationTicks": 21,
          "midi": 40,
          "name": "E2",
          "ticks": 2400,
          "time": 8.571425,
          "velocity": 0.669291338582677
        },
        {
          "duration": 0.0749999687500011,
          "durationTicks": 21,
          "midi": 42,
          "name": "F#2",
          "ticks": 2496,
          "time": 8.914282,
          "velocity": 0.669291338582677
        },
        {
          "duration": 0.0749999687499994,
          "durationTicks": 21,
          "midi": 42,
          "name": "F#2",
          "ticks": 2544,
          "time": 9.0857105,
          "velocity": 0.669291338582677
        },
        {
          "duration": 0.0749999687499994,
          "durationTicks": 21,
          "midi": 40,
          "name": "E2",
          "ticks": 2592,
          "time": 9.257139,
          "velocity": 0.669291338582677
        },
        {
          "duration": 0.0749999687499994,
          "durationTicks": 21,
          "midi": 42,
          "name": "F#2",
          "ticks": 2688,
          "time": 9.599996,
          "velocity": 0.669291338582677
        },
        {
          "duration": 0.0749999687500011,
          "durationTicks": 21,
          "midi": 42,
          "name": "F#2",
          "ticks": 2736,
          "time": 9.7714245,
          "velocity": 0.669291338582677
        },
        {
          "duration": 0.0749999687499994,
          "durationTicks": 21,
          "midi": 42,
          "name": "F#2",
          "ticks": 2784,
          "time": 9.942853,
          "velocity": 0.669291338582677
        },
        {
          "duration": 0.0749999687499994,
          "durationTicks": 21,
          "midi": 40,
          "name": "E2",
          "ticks": 2784,
          "time": 9.942853,
          "velocity": 0.669291338582677
        },
        {
          "duration": 0.0749999687499994,
          "durationTicks": 21,
          "midi": 59,
          "name": "B3",
          "ticks": 2784,
          "time": 9.942853,
          "velocity": 0.669291338582677
        },
        {
          "duration": 0.0749999687499994,
          "durationTicks": 21,
          "midi": 42,
          "name": "F#2",
          "ticks": 2832,
          "time": 10.1142815,
          "velocity": 0.669291338582677
        },
        {
          "duration": 0.0749999687499994,
          "durationTicks": 21,
          "midi": 40,
          "name": "E2",
          "ticks": 2832,
          "time": 10.1142815,
          "velocity": 0.669291338582677
        },
        {
          "duration": 0.0749999687499994,
          "durationTicks": 21,
          "midi": 59,
          "name": "B3",
          "ticks": 2832,
          "time": 10.1142815,
          "velocity": 0.669291338582677
        },
        {
          "duration": 0.0749999687499994,
          "durationTicks": 21,
          "midi": 49,
          "name": "C#3",
          "ticks": 4608,
          "time": 16.457136,
          "velocity": 0.669291338582677
        },
        {
          "duration": 0.0749999687499994,
          "durationTicks": 21,
          "midi": 38,
          "name": "D2",
          "ticks": 4608,
          "time": 16.457136,
          "velocity": 0.669291338582677
        },
        {
          "duration": 0.0749999687499994,
          "durationTicks": 21,
          "midi": 38,
          "name": "D2",
          "ticks": 4800,
          "time": 17.14285,
          "velocity": 0.669291338582677
        },
        {
          "duration": 0.0749999687499994,
          "durationTicks": 21,
          "midi": 49,
          "name": "C#3",
          "ticks": 4800,
          "time": 17.14285,
          "velocity": 0.669291338582677
        },
        {
          "duration": 0.0749999687499994,
          "durationTicks": 21,
          "midi": 49,
          "name": "C#3",
          "ticks": 4992,
          "time": 17.828564,
          "velocity": 0.669291338582677
        },
        {
          "duration": 0.0749999687499994,
          "durationTicks": 21,
          "midi": 38,
          "name": "D2",
          "ticks": 4992,
          "time": 17.828564,
          "velocity": 0.669291338582677
        },
        {
          "duration": 0.0749999687499994,
          "durationTicks": 21,
          "midi": 44,
          "name": "G#2",
          "ticks": 4992,
          "time": 17.828564,
          "velocity": 0.669291338582677
        },
        {
          "duration": 0.0749999687499994,
          "durationTicks": 21,
          "midi": 44,
          "name": "G#2",
          "ticks": 5016,
          "time": 17.91427825,
          "velocity": 0.669291338582677
        },
        {
          "duration": 0.0749999687499994,
          "durationTicks": 21,
          "midi": 44,
          "name": "G#2",
          "ticks": 5040,
          "time": 17.9999925,
          "velocity": 0.669291338582677
        },
        {
          "duration": 0.0749999687500029,
          "durationTicks": 21,
          "midi": 44,
          "name": "G#2",
          "ticks": 5064,
          "time": 18.08570675,
          "velocity": 0.669291338582677
        },
        {
          "duration": 0.0749999687499994,
          "durationTicks": 21,
          "midi": 44,
          "name": "G#2",
          "ticks": 5088,
          "time": 18.171421,
          "velocity": 0.669291338582677
        },
        {
          "duration": 0.0749999687499994,
          "durationTicks": 21,
          "midi": 44,
          "name": "G#2",
          "ticks": 5112,
          "time": 18.25713525,
          "velocity": 0.669291338582677
        },
        {
          "duration": 0.0749999687500029,
          "durationTicks": 21,
          "midi": 44,
          "name": "G#2",
          "ticks": 5136,
          "time": 18.3428495,
          "velocity": 0.669291338582677
        },
        {
          "duration": 0.0749999687499994,
          "durationTicks": 21,
          "midi": 44,
          "name": "G#2",
          "ticks": 5160,
          "time": 18.42856375,
          "velocity": 0.669291338582677
        },
        {
          "duration": 0.0749999687499994,
          "durationTicks": 21,
          "midi": 44,
          "name": "G#2",
          "ticks": 5184,
          "time": 18.514278,
          "velocity": 0.669291338582677
        },
        {
          "duration": 0.0749999687499994,
          "durationTicks": 21,
          "midi": 38,
          "name": "D2",
          "ticks": 5184,
          "time": 18.514278,
          "velocity": 0.669291338582677
        },
        {
          "duration": 0.0749999687499994,
          "durationTicks": 21,
          "midi": 49,
          "name": "C#3",
          "ticks": 5184,
          "time": 18.514278,
          "velocity": 0.669291338582677
        },
        {
          "duration": 0.0321428437500018,
          "durationTicks": 9,
          "midi": 44,
          "name": "G#2",
          "ticks": 5208,
          "time": 18.59999225,
          "velocity": 0.669291338582677
        },
        {
          "duration": 0.0321428437500018,
          "durationTicks": 9,
          "midi": 44,
          "name": "G#2",
          "ticks": 5220,
          "time": 18.642849375,
          "velocity": 0.669291338582677
        },
        {
          "duration": 0.0321428437499982,
          "durationTicks": 9,
          "midi": 44,
          "name": "G#2",
          "ticks": 5232,
          "time": 18.6857065,
          "velocity": 0.669291338582677
        },
        {
          "duration": 0.0321428437500018,
          "durationTicks": 9,
          "midi": 44,
          "name": "G#2",
          "ticks": 5244,
          "time": 18.728563625,
          "velocity": 0.669291338582677
        },
        {
          "duration": 0.0321428437500018,
          "durationTicks": 9,
          "midi": 44,
          "name": "G#2",
          "ticks": 5256,
          "time": 18.77142075,
          "velocity": 0.669291338582677
        },
        {
          "duration": 0.0321428437499982,
          "durationTicks": 9,
          "midi": 44,
          "name": "G#2",
          "ticks": 5268,
          "time": 18.814277875,
          "velocity": 0.669291338582677
        },
        {
          "duration": 0.0321428437500018,
          "durationTicks": 9,
          "midi": 44,
          "name": "G#2",
          "ticks": 5280,
          "time": 18.857135,
          "velocity": 0.669291338582677
        },
        {
          "duration": 0.0321428437500018,
          "durationTicks": 9,
          "midi": 44,
          "name": "G#2",
          "ticks": 5292,
          "time": 18.899992125,
          "velocity": 0.669291338582677
        },
        {
          "duration": 0.0321428437499982,
          "durationTicks": 9,
          "midi": 44,
          "name": "G#2",
          "ticks": 5304,
          "time": 18.94284925,
          "velocity": 0.669291338582677
        },
        {
          "duration": 0.0321428437499982,
          "durationTicks": 9,
          "midi": 44,
          "name": "G#2",
          "ticks": 5316,
          "time": 18.985706375,
          "velocity": 0.669291338582677
        },
        {
          "duration": 0.0321428437500018,
          "durationTicks": 9,
          "midi": 44,
          "name": "G#2",
          "ticks": 5328,
          "time": 19.0285635,
          "velocity": 0.669291338582677
        },
        {
          "duration": 0.0321428437500018,
          "durationTicks": 9,
          "midi": 44,
          "name": "G#2",
          "ticks": 5328,
          "time": 19.0285635,
          "velocity": 0.669291338582677
        },
        {
          "duration": 0.0321428437500018,
          "durationTicks": 9,
          "midi": 44,
          "name": "G#2",
          "ticks": 5328,
          "time": 19.0285635,
          "velocity": 0.669291338582677
        },
        {
          "duration": 0.0321428437500018,
          "durationTicks": 9,
          "midi": 44,
          "name": "G#2",
          "ticks": 5328,
          "time": 19.0285635,
          "velocity": 0.669291338582677
        },
        {
          "duration": 0.0321428437499982,
          "durationTicks": 9,
          "midi": 44,
          "name": "G#2",
          "ticks": 5340,
          "time": 19.071420625,
          "velocity": 0.669291338582677
        },
        {
          "duration": 0.0321428437499982,
          "durationTicks": 9,
          "midi": 44,
          "name": "G#2",
          "ticks": 5352,
          "time": 19.11427775,
          "velocity": 0.669291338582677
        },
        {
          "duration": 0.0321428437500018,
          "durationTicks": 9,
          "midi": 44,
          "name": "G#2",
          "ticks": 5364,
          "time": 19.157134875,
          "velocity": 0.669291338582677
        },
        {
          "duration": 0.0749999687499994,
          "durationTicks": 21,
          "midi": 38,
          "name": "D2",
          "ticks": 5472,
          "time": 19.542849,
          "velocity": 0.669291338582677
        },
        {
          "duration": 0.0749999687499994,
          "durationTicks": 21,
          "midi": 49,
          "name": "C#3",
          "ticks": 5472,
          "time": 19.542849,
          "velocity": 0.669291338582677
        },
        {
          "duration": 0.0749999687499994,
          "durationTicks": 21,
          "midi": 38,
          "name": "D2",
          "ticks": 5664,
          "time": 20.228563,
          "velocity": 0.669291338582677
        },
        {
          "duration": 0.0749999687499994,
          "durationTicks": 21,
          "midi": 49,
          "name": "C#3",
          "ticks": 5664,
          "time": 20.228563,
          "velocity": 0.669291338582677
        },
        {
          "duration": 0.0749999687499994,
          "durationTicks": 21,
          "midi": 49,
          "name": "C#3",
          "ticks": 6144,
          "time": 21.942848,
          "velocity": 0.362204724409449
        },
        {
          "duration": 0.0749999687499994,
          "durationTicks": 21,
          "midi": 36,
          "name": "C2",
          "ticks": 6144,
          "time": 21.942848,
          "velocity": 0.669291338582677
        },
        {
          "duration": 0.0749999687499994,
          "durationTicks": 21,
          "midi": 50,
          "name": "D3",
          "ticks": 6192,
          "time": 22.1142765,
          "velocity": 0.669291338582677
        },
        {
          "duration": 0.0749999687500029,
          "durationTicks": 21,
          "midi": 38,
          "name": "D2",
          "ticks": 6240,
          "time": 22.285705,
          "velocity": 0.669291338582677
        },
        {
          "duration": 0.0749999687499994,
          "durationTicks": 21,
          "midi": 50,
          "name": "D3",
          "ticks": 6288,
          "time": 22.4571335,
          "velocity": 0.669291338582677
        },
        {
          "duration": 0.0749999687499994,
          "durationTicks": 21,
          "midi": 36,
          "name": "C2",
          "ticks": 6336,
          "time": 22.628562,
          "velocity": 0.669291338582677
        },
        {
          "duration": 0.0749999687500029,
          "durationTicks": 21,
          "midi": 50,
          "name": "D3",
          "ticks": 6384,
          "time": 22.7999905,
          "velocity": 0.669291338582677
        },
        {
          "duration": 0.0749999687499994,
          "durationTicks": 21,
          "midi": 38,
          "name": "D2",
          "ticks": 6432,
          "time": 22.971419,
          "velocity": 0.669291338582677
        },
        {
          "duration": 0.0749999687499994,
          "durationTicks": 21,
          "midi": 50,
          "name": "D3",
          "ticks": 6480,
          "time": 23.1428475,
          "velocity": 0.669291338582677
        },
        {
          "duration": 0.0749999687499994,
          "durationTicks": 21,
          "midi": 36,
          "name": "C2",
          "ticks": 6528,
          "time": 23.314276,
          "velocity": 0.669291338582677
        },
        {
          "duration": 0.0749999687499994,
          "durationTicks": 21,
          "midi": 50,
          "name": "D3",
          "ticks": 6576,
          "time": 23.4857045,
          "velocity": 0.669291338582677
        },
        {
          "duration": 0.0749999687499994,
          "durationTicks": 21,
          "midi": 38,
          "name": "D2",
          "ticks": 6624,
          "time": 23.657133,
          "velocity": 0.669291338582677
        },
        {
          "duration": 0.0749999687499994,
          "durationTicks": 21,
          "midi": 50,
          "name": "D3",
          "ticks": 6672,
          "time": 23.8285615,
          "velocity": 0.669291338582677
        },
        {
          "duration": 0.0749999687500029,
          "durationTicks": 21,
          "midi": 36,
          "name": "C2",
          "ticks": 6720,
          "time": 23.99999,
          "velocity": 0.669291338582677
        },
        {
          "duration": 0.0749999687499994,
          "durationTicks": 21,
          "midi": 50,
          "name": "D3",
          "ticks": 6768,
          "time": 24.1714185,
          "velocity": 0.669291338582677
        },
        {
          "duration": 0.0749999687499994,
          "durationTicks": 21,
          "midi": 38,
          "name": "D2",
          "ticks": 6816,
          "time": 24.342847,
          "velocity": 0.669291338582677
        },
        {
          "duration": 0.0749999687500029,
          "durationTicks": 21,
          "midi": 50,
          "name": "D3",
          "ticks": 6864,
          "time": 24.5142755,
          "velocity": 0.669291338582677
        },
        {
          "duration": 0.0749999687499994,
          "durationTicks": 21,
          "midi": 36,
          "name": "C2",
          "ticks": 6912,
          "time": 24.685704,
          "velocity": 0.669291338582677
        },
        {
          "duration": 0.0749999687499994,
          "durationTicks": 21,
          "midi": 50,
          "name": "D3",
          "ticks": 6960,
          "time": 24.8571325,
          "velocity": 0.669291338582677
        },
        {
          "duration": 0.0749999687499994,
          "durationTicks": 21,
          "midi": 38,
          "name": "D2",
          "ticks": 7008,
          "time": 25.028561,
          "velocity": 0.669291338582677
        },
        {
          "duration": 0.0749999687499994,
          "durationTicks": 21,
          "midi": 50,
          "name": "D3",
          "ticks": 7056,
          "time": 25.1999895,
          "velocity": 0.669291338582677
        },
        {
          "duration": 0.0749999687499994,
          "durationTicks": 21,
          "midi": 36,
          "name": "C2",
          "ticks": 7104,
          "time": 25.371418,
          "velocity": 0.669291338582677
        },
        {
          "duration": 0.0749999687499994,
          "durationTicks": 21,
          "midi": 50,
          "name": "D3",
          "ticks": 7152,
          "time": 25.5428465,
          "velocity": 0.669291338582677
        },
        {
          "duration": 0.0749999687499994,
          "durationTicks": 21,
          "midi": 38,
          "name": "D2",
          "ticks": 7200,
          "time": 25.714275,
          "velocity": 0.669291338582677
        },
        {
          "duration": 0.0749999687499994,
          "durationTicks": 21,
          "midi": 50,
          "name": "D3",
          "ticks": 7248,
          "time": 25.8857035,
          "velocity": 0.669291338582677
        },
        {
          "duration": 0.0749999687499994,
          "durationTicks": 21,
          "midi": 41,
          "name": "F2",
          "ticks": 7296,
          "time": 26.057132,
          "velocity": 0.669291338582677
        },
        {
          "duration": 0.0749999687499994,
          "durationTicks": 21,
          "midi": 36,
          "name": "C2",
          "ticks": 7296,
          "time": 26.057132,
          "velocity": 0.669291338582677
        },
        {
          "duration": 0.0749999687500029,
          "durationTicks": 21,
          "midi": 41,
          "name": "F2",
          "ticks": 7344,
          "time": 26.2285605,
          "velocity": 0.669291338582677
        },
        {
          "duration": 0.0749999687500029,
          "durationTicks": 21,
          "midi": 50,
          "name": "D3",
          "ticks": 7344,
          "time": 26.2285605,
          "velocity": 0.669291338582677
        },
        {
          "duration": 0.0749999687499994,
          "durationTicks": 21,
          "midi": 41,
          "name": "F2",
          "ticks": 7392,
          "time": 26.399989,
          "velocity": 0.669291338582677
        },
        {
          "duration": 0.0749999687499994,
          "durationTicks": 21,
          "midi": 38,
          "name": "D2",
          "ticks": 7392,
          "time": 26.399989,
          "velocity": 0.669291338582677
        },
        {
          "duration": 0.0749999687499994,
          "durationTicks": 21,
          "midi": 41,
          "name": "F2",
          "ticks": 7440,
          "time": 26.5714175,
          "velocity": 0.669291338582677
        },
        {
          "duration": 0.0749999687499994,
          "durationTicks": 21,
          "midi": 50,
          "name": "D3",
          "ticks": 7440,
          "time": 26.5714175,
          "velocity": 0.669291338582677
        },
        {
          "duration": 0.0749999687500029,
          "durationTicks": 21,
          "midi": 41,
          "name": "F2",
          "ticks": 7488,
          "time": 26.742846,
          "velocity": 0.669291338582677
        },
        {
          "duration": 0.0749999687500029,
          "durationTicks": 21,
          "midi": 36,
          "name": "C2",
          "ticks": 7488,
          "time": 26.742846,
          "velocity": 0.669291338582677
        },
        {
          "duration": 0.0749999687499994,
          "durationTicks": 21,
          "midi": 41,
          "name": "F2",
          "ticks": 7512,
          "time": 26.82856025,
          "velocity": 0.669291338582677
        },
        {
          "duration": 0.0749999687499994,
          "durationTicks": 21,
          "midi": 41,
          "name": "F2",
          "ticks": 7536,
          "time": 26.9142745,
          "velocity": 0.669291338582677
        },
        {
          "duration": 0.0749999687499994,
          "durationTicks": 21,
          "midi": 50,
          "name": "D3",
          "ticks": 7536,
          "time": 26.9142745,
          "velocity": 0.669291338582677
        },
        {
          "duration": 0.0749999687499994,
          "durationTicks": 21,
          "midi": 41,
          "name": "F2",
          "ticks": 7560,
          "time": 26.99998875,
          "velocity": 0.669291338582677
        },
        {
          "duration": 0.0749999687499994,
          "durationTicks": 21,
          "midi": 41,
          "name": "F2",
          "ticks": 7584,
          "time": 27.085703,
          "velocity": 0.669291338582677
        },
        {
          "duration": 0.0749999687499994,
          "durationTicks": 21,
          "midi": 38,
          "name": "D2",
          "ticks": 7584,
          "time": 27.085703,
          "velocity": 0.669291338582677
        },
        {
          "duration": 0.0749999687499994,
          "durationTicks": 21,
          "midi": 41,
          "name": "F2",
          "ticks": 7608,
          "time": 27.17141725,
          "velocity": 0.669291338582677
        },
        {
          "duration": 0.0749999687499994,
          "durationTicks": 21,
          "midi": 41,
          "name": "F2",
          "ticks": 7632,
          "time": 27.2571315,
          "velocity": 0.669291338582677
        },
        {
          "duration": 0.0749999687499994,
          "durationTicks": 21,
          "midi": 50,
          "name": "D3",
          "ticks": 7632,
          "time": 27.2571315,
          "velocity": 0.669291338582677
        },
        {
          "duration": 0.0749999687499994,
          "durationTicks": 21,
          "midi": 41,
          "name": "F2",
          "ticks": 7656,
          "time": 27.34284575,
          "velocity": 0.669291338582677
        },
        {
          "duration": 0.0749999687499994,
          "durationTicks": 21,
          "midi": 49,
          "name": "C#3",
          "ticks": 7680,
          "time": 27.42856,
          "velocity": 0.362204724409449
        },
        {
          "duration": 0.0749999687499994,
          "durationTicks": 21,
          "midi": 36,
          "name": "C2",
          "ticks": 7680,
          "time": 27.42856,
          "velocity": 0.669291338582677
        },
        {
          "duration": 0.0749999687499994,
          "durationTicks": 21,
          "midi": 50,
          "name": "D3",
          "ticks": 7728,
          "time": 27.5999885,
          "velocity": 0.669291338582677
        },
        {
          "duration": 0.0749999687499994,
          "durationTicks": 21,
          "midi": 38,
          "name": "D2",
          "ticks": 7776,
          "time": 27.771417,
          "velocity": 0.669291338582677
        },
        {
          "duration": 0.0749999687500029,
          "durationTicks": 21,
          "midi": 50,
          "name": "D3",
          "ticks": 7824,
          "time": 27.9428455,
          "velocity": 0.669291338582677
        },
        {
          "duration": 0.0749999687499994,
          "durationTicks": 21,
          "midi": 36,
          "name": "C2",
          "ticks": 7872,
          "time": 28.114274,
          "velocity": 0.669291338582677
        },
        {
          "duration": 0.0749999687499994,
          "durationTicks": 21,
          "midi": 50,
          "name": "D3",
          "ticks": 7920,
          "time": 28.2857025,
          "velocity": 0.669291338582677
        },
        {
          "duration": 0.0749999687500029,
          "durationTicks": 21,
          "midi": 38,
          "name": "D2",
          "ticks": 7968,
          "time": 28.457131,
          "velocity": 0.669291338582677
        },
        {
          "duration": 0.0749999687499994,
          "durationTicks": 21,
          "midi": 50,
          "name": "D3",
          "ticks": 8016,
          "time": 28.6285595,
          "velocity": 0.669291338582677
        },
        {
          "duration": 0.0749999687499994,
          "durationTicks": 21,
          "midi": 36,
          "name": "C2",
          "ticks": 8064,
          "time": 28.799988,
          "velocity": 0.669291338582677
        },
        {
          "duration": 0.0749999687499994,
          "durationTicks": 21,
          "midi": 50,
          "name": "D3",
          "ticks": 8112,
          "time": 28.9714165,
          "velocity": 0.669291338582677
        },
        {
          "duration": 0.0749999687499994,
          "durationTicks": 21,
          "midi": 38,
          "name": "D2",
          "ticks": 8160,
          "time": 29.142845,
          "velocity": 0.669291338582677
        },
        {
          "duration": 0.0749999687499994,
          "durationTicks": 21,
          "midi": 50,
          "name": "D3",
          "ticks": 8208,
          "time": 29.3142735,
          "velocity": 0.669291338582677
        },
        {
          "duration": 0.0749999687499994,
          "durationTicks": 21,
          "midi": 36,
          "name": "C2",
          "ticks": 8256,
          "time": 29.485702,
          "velocity": 0.669291338582677
        },
        {
          "duration": 0.0749999687499994,
          "durationTicks": 21,
          "midi": 50,
          "name": "D3",
          "ticks": 8304,
          "time": 29.6571305,
          "velocity": 0.669291338582677
        },
        {
          "duration": 0.0749999687499994,
          "durationTicks": 21,
          "midi": 38,
          "name": "D2",
          "ticks": 8352,
          "time": 29.828559,
          "velocity": 0.669291338582677
        },
        {
          "duration": 0.0749999687499994,
          "durationTicks": 21,
          "midi": 50,
          "name": "D3",
          "ticks": 8400,
          "time": 29.9999875,
          "velocity": 0.669291338582677
        },
        {
          "duration": 0.0749999687500029,
          "durationTicks": 21,
          "midi": 36,
          "name": "C2",
          "ticks": 8448,
          "time": 30.171416,
          "velocity": 0.669291338582677
        },
        {
          "duration": 0.0749999687499994,
          "durationTicks": 21,
          "midi": 50,
          "name": "D3",
          "ticks": 8496,
          "time": 30.3428445,
          "velocity": 0.669291338582677
        },
        {
          "duration": 0.0749999687499994,
          "durationTicks": 21,
          "midi": 38,
          "name": "D2",
          "ticks": 8544,
          "time": 30.514273,
          "velocity": 0.669291338582677
        },
        {
          "duration": 0.0749999687500029,
          "durationTicks": 21,
          "midi": 50,
          "name": "D3",
          "ticks": 8592,
          "time": 30.6857015,
          "velocity": 0.669291338582677
        },
        {
          "duration": 0.0749999687499994,
          "durationTicks": 21,
          "midi": 36,
          "name": "C2",
          "ticks": 8640,
          "time": 30.85713,
          "velocity": 0.669291338582677
        },
        {
          "duration": 0.0749999687499994,
          "durationTicks": 21,
          "midi": 50,
          "name": "D3",
          "ticks": 8688,
          "time": 31.0285585,
          "velocity": 0.669291338582677
        },
        {
          "duration": 0.0749999687499994,
          "durationTicks": 21,
          "midi": 38,
          "name": "D2",
          "ticks": 8736,
          "time": 31.199987,
          "velocity": 0.669291338582677
        },
        {
          "duration": 0.0749999687499994,
          "durationTicks": 21,
          "midi": 50,
          "name": "D3",
          "ticks": 8784,
          "time": 31.3714155,
          "velocity": 0.669291338582677
        },
        {
          "duration": 0.0749999687499994,
          "durationTicks": 21,
          "midi": 41,
          "name": "F2",
          "ticks": 8832,
          "time": 31.542844,
          "velocity": 0.669291338582677
        },
        {
          "duration": 0.0749999687499994,
          "durationTicks": 21,
          "midi": 36,
          "name": "C2",
          "ticks": 8832,
          "time": 31.542844,
          "velocity": 0.669291338582677
        },
        {
          "duration": 0.0749999687499994,
          "durationTicks": 21,
          "midi": 41,
          "name": "F2",
          "ticks": 8880,
          "time": 31.7142725,
          "velocity": 0.669291338582677
        },
        {
          "duration": 0.0749999687499994,
          "durationTicks": 21,
          "midi": 50,
          "name": "D3",
          "ticks": 8880,
          "time": 31.7142725,
          "velocity": 0.669291338582677
        },
        {
          "duration": 0.0749999687500029,
          "durationTicks": 21,
          "midi": 41,
          "name": "F2",
          "ticks": 8928,
          "time": 31.885701,
          "velocity": 0.669291338582677
        },
        {
          "duration": 0.0749999687500029,
          "durationTicks": 21,
          "midi": 38,
          "name": "D2",
          "ticks": 8928,
          "time": 31.885701,
          "velocity": 0.669291338582677
        },
        {
          "duration": 0.0749999687499994,
          "durationTicks": 21,
          "midi": 41,
          "name": "F2",
          "ticks": 8976,
          "time": 32.0571295,
          "velocity": 0.669291338582677
        },
        {
          "duration": 0.0749999687499994,
          "durationTicks": 21,
          "midi": 50,
          "name": "D3",
          "ticks": 8976,
          "time": 32.0571295,
          "velocity": 0.669291338582677
        },
        {
          "duration": 0.0749999687499994,
          "durationTicks": 21,
          "midi": 41,
          "name": "F2",
          "ticks": 9024,
          "time": 32.228558,
          "velocity": 0.669291338582677
        },
        {
          "duration": 0.0749999687499994,
          "durationTicks": 21,
          "midi": 36,
          "name": "C2",
          "ticks": 9024,
          "time": 32.228558,
          "velocity": 0.669291338582677
        },
        {
          "duration": 0.0749999687499994,
          "durationTicks": 21,
          "midi": 41,
          "name": "F2",
          "ticks": 9048,
          "time": 32.31427225,
          "velocity": 0.669291338582677
        },
        {
          "duration": 0.0749999687499994,
          "durationTicks": 21,
          "midi": 41,
          "name": "F2",
          "ticks": 9072,
          "time": 32.3999865,
          "velocity": 0.669291338582677
        },
        {
          "duration": 0.0749999687499994,
          "durationTicks": 21,
          "midi": 50,
          "name": "D3",
          "ticks": 9072,
          "time": 32.3999865,
          "velocity": 0.669291338582677
        },
        {
          "duration": 0.0749999687499994,
          "durationTicks": 21,
          "midi": 41,
          "name": "F2",
          "ticks": 9096,
          "time": 32.48570075,
          "velocity": 0.669291338582677
        },
        {
          "duration": 0.0749999687499994,
          "durationTicks": 21,
          "midi": 41,
          "name": "F2",
          "ticks": 9120,
          "time": 32.571415,
          "velocity": 0.669291338582677
        },
        {
          "duration": 0.0749999687499994,
          "durationTicks": 21,
          "midi": 38,
          "name": "D2",
          "ticks": 9120,
          "time": 32.571415,
          "velocity": 0.669291338582677
        },
        {
          "duration": 0.0749999687499994,
          "durationTicks": 21,
          "midi": 41,
          "name": "F2",
          "ticks": 9144,
          "time": 32.65712925,
          "velocity": 0.669291338582677
        },
        {
          "duration": 0.0749999687499994,
          "durationTicks": 21,
          "midi": 41,
          "name": "F2",
          "ticks": 9168,
          "time": 32.7428435,
          "velocity": 0.669291338582677
        },
        {
          "duration": 0.0749999687499994,
          "durationTicks": 21,
          "midi": 50,
          "name": "D3",
          "ticks": 9168,
          "time": 32.7428435,
          "velocity": 0.669291338582677
        },
        {
          "duration": 0.0749999687499994,
          "durationTicks": 21,
          "midi": 41,
          "name": "F2",
          "ticks": 9192,
          "time": 32.82855775,
          "velocity": 0.669291338582677
        },
        {
          "duration": 0.0749999687499994,
          "durationTicks": 21,
          "midi": 49,
          "name": "C#3",
          "ticks": 9216,
          "time": 32.914272,
          "velocity": 0.362204724409449
        },
        {
          "duration": 0.0749999687499994,
          "durationTicks": 21,
          "midi": 36,
          "name": "C2",
          "ticks": 9216,
          "time": 32.914272,
          "velocity": 0.669291338582677
        },
        {
          "duration": 0.0749999687499994,
          "durationTicks": 21,
          "midi": 50,
          "name": "D3",
          "ticks": 9264,
          "time": 33.0857005,
          "velocity": 0.669291338582677
        },
        {
          "duration": 0.0749999687500065,
          "durationTicks": 21,
          "midi": 38,
          "name": "D2",
          "ticks": 9312,
          "time": 33.257129,
          "velocity": 0.669291338582677
        },
        {
          "duration": 0.0749999687499994,
          "durationTicks": 21,
          "midi": 50,
          "name": "D3",
          "ticks": 9360,
          "time": 33.4285575,
          "velocity": 0.669291338582677
        },
        {
          "duration": 0.0749999687499994,
          "durationTicks": 21,
          "midi": 36,
          "name": "C2",
          "ticks": 9408,
          "time": 33.599986,
          "velocity": 0.669291338582677
        },
        {
          "duration": 0.0749999687500065,
          "durationTicks": 21,
          "midi": 50,
          "name": "D3",
          "ticks": 9456,
          "time": 33.7714145,
          "velocity": 0.669291338582677
        },
        {
          "duration": 0.0749999687499994,
          "durationTicks": 21,
          "midi": 38,
          "name": "D2",
          "ticks": 9504,
          "time": 33.942843,
          "velocity": 0.669291338582677
        },
        {
          "duration": 0.0749999687499994,
          "durationTicks": 21,
          "midi": 50,
          "name": "D3",
          "ticks": 9552,
          "time": 34.1142715,
          "velocity": 0.669291338582677
        },
        {
          "duration": 0.0749999687499994,
          "durationTicks": 21,
          "midi": 36,
          "name": "C2",
          "ticks": 9600,
          "time": 34.2857,
          "velocity": 0.669291338582677
        },
        {
          "duration": 0.0749999687499994,
          "durationTicks": 21,
          "midi": 50,
          "name": "D3",
          "ticks": 9648,
          "time": 34.4571285,
          "velocity": 0.669291338582677
        },
        {
          "duration": 0.0749999687499994,
          "durationTicks": 21,
          "midi": 38,
          "name": "D2",
          "ticks": 9696,
          "time": 34.628557,
          "velocity": 0.669291338582677
        },
        {
          "duration": 0.0749999687499994,
          "durationTicks": 21,
          "midi": 50,
          "name": "D3",
          "ticks": 9744,
          "time": 34.7999855,
          "velocity": 0.669291338582677
        },
        {
          "duration": 0.0749999687499994,
          "durationTicks": 21,
          "midi": 36,
          "name": "C2",
          "ticks": 9792,
          "time": 34.971414,
          "velocity": 0.669291338582677
        },
        {
          "duration": 0.0749999687499994,
          "durationTicks": 21,
          "midi": 50,
          "name": "D3",
          "ticks": 9840,
          "time": 35.1428425,
          "velocity": 0.669291338582677
        },
        {
          "duration": 0.0749999687499994,
          "durationTicks": 21,
          "midi": 38,
          "name": "D2",
          "ticks": 9888,
          "time": 35.314271,
          "velocity": 0.669291338582677
        },
        {
          "duration": 0.0749999687499994,
          "durationTicks": 21,
          "midi": 50,
          "name": "D3",
          "ticks": 9936,
          "time": 35.4856995,
          "velocity": 0.669291338582677
        },
        {
          "duration": 0.0749999687499994,
          "durationTicks": 21,
          "midi": 36,
          "name": "C2",
          "ticks": 9984,
          "time": 35.657128,
          "velocity": 0.669291338582677
        },
        {
          "duration": 0.0749999687499994,
          "durationTicks": 21,
          "midi": 50,
          "name": "D3",
          "ticks": 10032,
          "time": 35.8285565,
          "velocity": 0.669291338582677
        },
        {
          "duration": 0.0749999687499994,
          "durationTicks": 21,
          "midi": 38,
          "name": "D2",
          "ticks": 10080,
          "time": 35.999985,
          "velocity": 0.669291338582677
        },
        {
          "duration": 0.0749999687499994,
          "durationTicks": 21,
          "midi": 50,
          "name": "D3",
          "ticks": 10128,
          "time": 36.1714135,
          "velocity": 0.669291338582677
        },
        {
          "duration": 0.0749999687499994,
          "durationTicks": 21,
          "midi": 36,
          "name": "C2",
          "ticks": 10176,
          "time": 36.342842,
          "velocity": 0.669291338582677
        },
        {
          "duration": 0.0749999687499994,
          "durationTicks": 21,
          "midi": 50,
          "name": "D3",
          "ticks": 10224,
          "time": 36.5142705,
          "velocity": 0.669291338582677
        },
        {
          "duration": 0.0749999687499994,
          "durationTicks": 21,
          "midi": 38,
          "name": "D2",
          "ticks": 10272,
          "time": 36.685699,
          "velocity": 0.669291338582677
        },
        {
          "duration": 0.0749999687499994,
          "durationTicks": 21,
          "midi": 50,
          "name": "D3",
          "ticks": 10320,
          "time": 36.8571275,
          "velocity": 0.669291338582677
        },
        {
          "duration": 0.0749999687499994,
          "durationTicks": 21,
          "midi": 41,
          "name": "F2",
          "ticks": 10368,
          "time": 37.028556,
          "velocity": 0.669291338582677
        },
        {
          "duration": 0.0749999687499994,
          "durationTicks": 21,
          "midi": 36,
          "name": "C2",
          "ticks": 10368,
          "time": 37.028556,
          "velocity": 0.669291338582677
        },
        {
          "duration": 0.0749999687500065,
          "durationTicks": 21,
          "midi": 41,
          "name": "F2",
          "ticks": 10416,
          "time": 37.1999845,
          "velocity": 0.669291338582677
        },
        {
          "duration": 0.0749999687500065,
          "durationTicks": 21,
          "midi": 50,
          "name": "D3",
          "ticks": 10416,
          "time": 37.1999845,
          "velocity": 0.669291338582677
        },
        {
          "duration": 0.0749999687499994,
          "durationTicks": 21,
          "midi": 41,
          "name": "F2",
          "ticks": 10464,
          "time": 37.371413,
          "velocity": 0.669291338582677
        },
        {
          "duration": 0.0749999687499994,
          "durationTicks": 21,
          "midi": 38,
          "name": "D2",
          "ticks": 10464,
          "time": 37.371413,
          "velocity": 0.669291338582677
        },
        {
          "duration": 0.0749999687499994,
          "durationTicks": 21,
          "midi": 41,
          "name": "F2",
          "ticks": 10512,
          "time": 37.5428415,
          "velocity": 0.669291338582677
        },
        {
          "duration": 0.0749999687499994,
          "durationTicks": 21,
          "midi": 50,
          "name": "D3",
          "ticks": 10512,
          "time": 37.5428415,
          "velocity": 0.669291338582677
        },
        {
          "duration": 0.0749999687500065,
          "durationTicks": 21,
          "midi": 41,
          "name": "F2",
          "ticks": 10560,
          "time": 37.71427,
          "velocity": 0.669291338582677
        },
        {
          "duration": 0.0749999687500065,
          "durationTicks": 21,
          "midi": 36,
          "name": "C2",
          "ticks": 10560,
          "time": 37.71427,
          "velocity": 0.669291338582677
        },
        {
          "duration": 0.0749999687499994,
          "durationTicks": 21,
          "midi": 41,
          "name": "F2",
          "ticks": 10584,
          "time": 37.79998425,
          "velocity": 0.669291338582677
        },
        {
          "duration": 0.0749999687499994,
          "durationTicks": 21,
          "midi": 41,
          "name": "F2",
          "ticks": 10608,
          "time": 37.8856985,
          "velocity": 0.669291338582677
        },
        {
          "duration": 0.0749999687499994,
          "durationTicks": 21,
          "midi": 50,
          "name": "D3",
          "ticks": 10608,
          "time": 37.8856985,
          "velocity": 0.669291338582677
        },
        {
          "duration": 0.0749999687499994,
          "durationTicks": 21,
          "midi": 41,
          "name": "F2",
          "ticks": 10632,
          "time": 37.97141275,
          "velocity": 0.669291338582677
        },
        {
          "duration": 0.0749999687499994,
          "durationTicks": 21,
          "midi": 41,
          "name": "F2",
          "ticks": 10656,
          "time": 38.057127,
          "velocity": 0.669291338582677
        },
        {
          "duration": 0.0749999687499994,
          "durationTicks": 21,
          "midi": 38,
          "name": "D2",
          "ticks": 10656,
          "time": 38.057127,
          "velocity": 0.669291338582677
        },
        {
          "duration": 0.0749999687499994,
          "durationTicks": 21,
          "midi": 41,
          "name": "F2",
          "ticks": 10680,
          "time": 38.14284125,
          "velocity": 0.669291338582677
        },
        {
          "duration": 0.0749999687499994,
          "durationTicks": 21,
          "midi": 41,
          "name": "F2",
          "ticks": 10704,
          "time": 38.2285555,
          "velocity": 0.669291338582677
        },
        {
          "duration": 0.0749999687499994,
          "durationTicks": 21,
          "midi": 50,
          "name": "D3",
          "ticks": 10704,
          "time": 38.2285555,
          "velocity": 0.669291338582677
        },
        {
          "duration": 0.0749999687499994,
          "durationTicks": 21,
          "midi": 41,
          "name": "F2",
          "ticks": 10728,
          "time": 38.31426975,
          "velocity": 0.669291338582677
        },
        {
          "duration": 0.0749999687499994,
          "durationTicks": 21,
          "midi": 49,
          "name": "C#3",
          "ticks": 10752,
          "time": 38.399984,
          "velocity": 0.362204724409449
        },
        {
          "duration": 0.0749999687499994,
          "durationTicks": 21,
          "midi": 36,
          "name": "C2",
          "ticks": 10752,
          "time": 38.399984,
          "velocity": 0.669291338582677
        },
        {
          "duration": 0.0749999687499994,
          "durationTicks": 21,
          "midi": 50,
          "name": "D3",
          "ticks": 10800,
          "time": 38.5714125,
          "velocity": 0.669291338582677
        },
        {
          "duration": 0.0749999687499994,
          "durationTicks": 21,
          "midi": 38,
          "name": "D2",
          "ticks": 10848,
          "time": 38.742841,
          "velocity": 0.669291338582677
        },
        {
          "duration": 0.0749999687499994,
          "durationTicks": 21,
          "midi": 50,
          "name": "D3",
          "ticks": 10896,
          "time": 38.9142695,
          "velocity": 0.669291338582677
        },
        {
          "duration": 0.0749999687499994,
          "durationTicks": 21,
          "midi": 36,
          "name": "C2",
          "ticks": 10944,
          "time": 39.085698,
          "velocity": 0.669291338582677
        },
        {
          "duration": 0.0749999687499994,
          "durationTicks": 21,
          "midi": 50,
          "name": "D3",
          "ticks": 10992,
          "time": 39.2571265,
          "velocity": 0.669291338582677
        },
        {
          "duration": 0.0749999687499994,
          "durationTicks": 21,
          "midi": 38,
          "name": "D2",
          "ticks": 11040,
          "time": 39.428555,
          "velocity": 0.669291338582677
        },
        {
          "duration": 0.0749999687499994,
          "durationTicks": 21,
          "midi": 50,
          "name": "D3",
          "ticks": 11088,
          "time": 39.5999835,
          "velocity": 0.669291338582677
        },
        {
          "duration": 0.0749999687499994,
          "durationTicks": 21,
          "midi": 36,
          "name": "C2",
          "ticks": 11136,
          "time": 39.771412,
          "velocity": 0.669291338582677
        },
        {
          "duration": 0.0749999687499994,
          "durationTicks": 21,
          "midi": 50,
          "name": "D3",
          "ticks": 11184,
          "time": 39.9428405,
          "velocity": 0.669291338582677
        },
        {
          "duration": 0.0749999687499994,
          "durationTicks": 21,
          "midi": 38,
          "name": "D2",
          "ticks": 11232,
          "time": 40.114269,
          "velocity": 0.669291338582677
        },
        {
          "duration": 0.0749999687499994,
          "durationTicks": 21,
          "midi": 50,
          "name": "D3",
          "ticks": 11280,
          "time": 40.2856975,
          "velocity": 0.669291338582677
        },
        {
          "duration": 0.0749999687499994,
          "durationTicks": 21,
          "midi": 36,
          "name": "C2",
          "ticks": 11328,
          "time": 40.457126,
          "velocity": 0.669291338582677
        },
        {
          "duration": 0.0749999687499994,
          "durationTicks": 21,
          "midi": 50,
          "name": "D3",
          "ticks": 11376,
          "time": 40.6285545,
          "velocity": 0.669291338582677
        },
        {
          "duration": 0.0749999687499994,
          "durationTicks": 21,
          "midi": 38,
          "name": "D2",
          "ticks": 11424,
          "time": 40.799983,
          "velocity": 0.669291338582677
        },
        {
          "duration": 0.0749999687499994,
          "durationTicks": 21,
          "midi": 50,
          "name": "D3",
          "ticks": 11472,
          "time": 40.9714115,
          "velocity": 0.669291338582677
        },
        {
          "duration": 0.0928571041666686,
          "durationTicks": 26,
          "midi": 41,
          "name": "F2",
          "ticks": 11520,
          "time": 41.14284,
          "velocity": 0.803149606299213
        },
        {
          "duration": 0.0785713958333361,
          "durationTicks": 22,
          "midi": 41,
          "name": "F2",
          "ticks": 11547,
          "time": 41.23926853125,
          "velocity": 0.803149606299213
        },
        {
          "duration": 0.0821428229166727,
          "durationTicks": 23,
          "midi": 41,
          "name": "F2",
          "ticks": 11594,
          "time": 41.4071256041667,
          "velocity": 0.803149606299213
        },
        {
          "duration": 0.0821428229166727,
          "durationTicks": 23,
          "midi": 41,
          "name": "F2",
          "ticks": 11618,
          "time": 41.4928398541667,
          "velocity": 0.803149606299213
        },
        {
          "duration": 0.0749999687499994,
          "durationTicks": 21,
          "midi": 41,
          "name": "F2",
          "ticks": 11666,
          "time": 41.6642683541667,
          "velocity": 0.803149606299213
        },
        {
          "duration": 0.0821428229166656,
          "durationTicks": 23,
          "midi": 41,
          "name": "F2",
          "ticks": 11689,
          "time": 41.7464111770833,
          "velocity": 0.811023622047244
        },
        {
          "duration": 0.160714218750002,
          "durationTicks": 45,
          "midi": 41,
          "name": "F2",
          "ticks": 11761,
          "time": 42.0035539270833,
          "velocity": 0.811023622047244
        },
        {
          "duration": 0.0749999687499994,
          "durationTicks": 21,
          "midi": 49,
          "name": "C#3",
          "ticks": 11808,
          "time": 42.171411,
          "velocity": 0.590551181102362
        },
        {
          "duration": 0.160714218749995,
          "durationTicks": 45,
          "midi": 42,
          "name": "F#2",
          "ticks": 11808,
          "time": 42.171411,
          "velocity": 0.362204724409449
        },
        {
          "duration": 0.0749999687499994,
          "durationTicks": 21,
          "midi": 38,
          "name": "D2",
          "ticks": 11808,
          "time": 42.171411,
          "velocity": 0.362204724409449
        },
        {
          "duration": 0.0749999687499994,
          "durationTicks": 21,
          "midi": 49,
          "name": "C#3",
          "ticks": 11856,
          "time": 42.3428395,
          "velocity": 0.590551181102362
        },
        {
          "duration": 0.160714218750002,
          "durationTicks": 45,
          "midi": 42,
          "name": "F#2",
          "ticks": 11856,
          "time": 42.3428395,
          "velocity": 0.362204724409449
        },
        {
          "duration": 0.0749999687499994,
          "durationTicks": 21,
          "midi": 38,
          "name": "D2",
          "ticks": 11856,
          "time": 42.3428395,
          "velocity": 0.362204724409449
        },
        {
          "duration": 0.171428500000005,
          "durationTicks": 48,
          "midi": 41,
          "name": "F2",
          "ticks": 11904,
          "time": 42.514268,
          "velocity": 0.818897637795276
        },
        {
          "duration": 0.157142791666665,
          "durationTicks": 44,
          "midi": 41,
          "name": "F2",
          "ticks": 11955,
          "time": 42.69641078125,
          "velocity": 0.818897637795276
        },
        {
          "duration": 0.160714218750002,
          "durationTicks": 45,
          "midi": 41,
          "name": "F2",
          "ticks": 12002,
          "time": 42.8642678541667,
          "velocity": 0.818897637795276
        },
        {
          "duration": 0.0749999687499994,
          "durationTicks": 21,
          "midi": 41,
          "name": "F2",
          "ticks": 12050,
          "time": 43.0356963541667,
          "velocity": 0.818897637795276
        },
        {
          "duration": 0.0821428229166656,
          "durationTicks": 23,
          "midi": 41,
          "name": "F2",
          "ticks": 12073,
          "time": 43.1178391770833,
          "velocity": 0.818897637795276
        },
        {
          "duration": 1.61785646875001,
          "durationTicks": 453,
          "midi": 52,
          "name": "E3",
          "ticks": 12192,
          "time": 43.542839,
          "velocity": 0.590551181102362
        },
        {
          "duration": 0.157142791666665,
          "durationTicks": 44,
          "midi": 47,
          "name": "B2",
          "ticks": 12193,
          "time": 43.5464104270833,
          "velocity": 0.448818897637795
        },
        {
          "duration": 0.0749999687499994,
          "durationTicks": 21,
          "midi": 36,
          "name": "C2",
          "ticks": 12288,
          "time": 43.885696,
          "velocity": 0.669291338582677
        },
        {
          "duration": 0.0749999687499994,
          "durationTicks": 21,
          "midi": 50,
          "name": "D3",
          "ticks": 12336,
          "time": 44.0571245,
          "velocity": 0.669291338582677
        },
        {
          "duration": 0.0749999687499994,
          "durationTicks": 21,
          "midi": 38,
          "name": "D2",
          "ticks": 12384,
          "time": 44.228553,
          "velocity": 0.669291338582677
        },
        {
          "duration": 0.0749999687499994,
          "durationTicks": 21,
          "midi": 50,
          "name": "D3",
          "ticks": 12432,
          "time": 44.3999815,
          "velocity": 0.669291338582677
        },
        {
          "duration": 0.0749999687499994,
          "durationTicks": 21,
          "midi": 36,
          "name": "C2",
          "ticks": 12480,
          "time": 44.57141,
          "velocity": 0.669291338582677
        },
        {
          "duration": 0.0749999687499994,
          "durationTicks": 21,
          "midi": 50,
          "name": "D3",
          "ticks": 12528,
          "time": 44.7428385,
          "velocity": 0.669291338582677
        },
        {
          "duration": 0.0749999687499994,
          "durationTicks": 21,
          "midi": 38,
          "name": "D2",
          "ticks": 12576,
          "time": 44.914267,
          "velocity": 0.669291338582677
        },
        {
          "duration": 0.0749999687500065,
          "durationTicks": 21,
          "midi": 50,
          "name": "D3",
          "ticks": 12624,
          "time": 45.0856955,
          "velocity": 0.669291338582677
        },
        {
          "duration": 0.0749999687499994,
          "durationTicks": 21,
          "midi": 36,
          "name": "C2",
          "ticks": 12672,
          "time": 45.257124,
          "velocity": 0.669291338582677
        },
        {
          "duration": 0.0749999687499994,
          "durationTicks": 21,
          "midi": 50,
          "name": "D3",
          "ticks": 12720,
          "time": 45.4285525,
          "velocity": 0.669291338582677
        },
        {
          "duration": 0.0749999687500065,
          "durationTicks": 21,
          "midi": 38,
          "name": "D2",
          "ticks": 12768,
          "time": 45.599981,
          "velocity": 0.669291338582677
        },
        {
          "duration": 0.0749999687499994,
          "durationTicks": 21,
          "midi": 50,
          "name": "D3",
          "ticks": 12816,
          "time": 45.7714095,
          "velocity": 0.669291338582677
        },
        {
          "duration": 0.0749999687499994,
          "durationTicks": 21,
          "midi": 36,
          "name": "C2",
          "ticks": 12864,
          "time": 45.942838,
          "velocity": 0.669291338582677
        },
        {
          "duration": 0.0749999687499994,
          "durationTicks": 21,
          "midi": 50,
          "name": "D3",
          "ticks": 12912,
          "time": 46.1142665,
          "velocity": 0.669291338582677
        },
        {
          "duration": 0.0749999687499994,
          "durationTicks": 21,
          "midi": 38,
          "name": "D2",
          "ticks": 12960,
          "time": 46.285695,
          "velocity": 0.669291338582677
        },
        {
          "duration": 0.0749999687499994,
          "durationTicks": 21,
          "midi": 50,
          "name": "D3",
          "ticks": 13008,
          "time": 46.4571235,
          "velocity": 0.669291338582677
        },
        {
          "duration": 0.0749999687499994,
          "durationTicks": 21,
          "midi": 36,
          "name": "C2",
          "ticks": 13056,
          "time": 46.628552,
          "velocity": 0.669291338582677
        },
        {
          "duration": 0.0749999687499994,
          "durationTicks": 21,
          "midi": 50,
          "name": "D3",
          "ticks": 13104,
          "time": 46.7999805,
          "velocity": 0.669291338582677
        },
        {
          "duration": 0.0749999687499994,
          "durationTicks": 21,
          "midi": 38,
          "name": "D2",
          "ticks": 13152,
          "time": 46.971409,
          "velocity": 0.669291338582677
        },
        {
          "duration": 0.0749999687499994,
          "durationTicks": 21,
          "midi": 50,
          "name": "D3",
          "ticks": 13200,
          "time": 47.1428375,
          "velocity": 0.669291338582677
        },
        {
          "duration": 0.0749999687499994,
          "durationTicks": 21,
          "midi": 36,
          "name": "C2",
          "ticks": 13248,
          "time": 47.314266,
          "velocity": 0.669291338582677
        },
        {
          "duration": 0.0749999687499994,
          "durationTicks": 21,
          "midi": 50,
          "name": "D3",
          "ticks": 13296,
          "time": 47.4856945,
          "velocity": 0.669291338582677
        },
        {
          "duration": 0.0749999687499994,
          "durationTicks": 21,
          "midi": 38,
          "name": "D2",
          "ticks": 13344,
          "time": 47.657123,
          "velocity": 0.669291338582677
        },
        {
          "duration": 0.0749999687499994,
          "durationTicks": 21,
          "midi": 50,
          "name": "D3",
          "ticks": 13392,
          "time": 47.8285515,
          "velocity": 0.669291338582677
        },
        {
          "duration": 0.0749999687499994,
          "durationTicks": 21,
          "midi": 41,
          "name": "F2",
          "ticks": 13440,
          "time": 47.99998,
          "velocity": 0.669291338582677
        },
        {
          "duration": 0.0749999687499994,
          "durationTicks": 21,
          "midi": 36,
          "name": "C2",
          "ticks": 13440,
          "time": 47.99998,
          "velocity": 0.669291338582677
        },
        {
          "duration": 0.0749999687499994,
          "durationTicks": 21,
          "midi": 50,
          "name": "D3",
          "ticks": 13488,
          "time": 48.1714085,
          "velocity": 0.669291338582677
        },
        {
          "duration": 0.0749999687499994,
          "durationTicks": 21,
          "midi": 41,
          "name": "F2",
          "ticks": 13488,
          "time": 48.1714085,
          "velocity": 0.669291338582677
        },
        {
          "duration": 0.0749999687499994,
          "durationTicks": 21,
          "midi": 38,
          "name": "D2",
          "ticks": 13536,
          "time": 48.342837,
          "velocity": 0.669291338582677
        },
        {
          "duration": 0.0749999687499994,
          "durationTicks": 21,
          "midi": 41,
          "name": "F2",
          "ticks": 13536,
          "time": 48.342837,
          "velocity": 0.669291338582677
        },
        {
          "duration": 0.0749999687499994,
          "durationTicks": 21,
          "midi": 50,
          "name": "D3",
          "ticks": 13584,
          "time": 48.5142655,
          "velocity": 0.669291338582677
        },
        {
          "duration": 0.0749999687499994,
          "durationTicks": 21,
          "midi": 41,
          "name": "F2",
          "ticks": 13584,
          "time": 48.5142655,
          "velocity": 0.669291338582677
        },
        {
          "duration": 0.0749999687499994,
          "durationTicks": 21,
          "midi": 36,
          "name": "C2",
          "ticks": 13632,
          "time": 48.685694,
          "velocity": 0.669291338582677
        },
        {
          "duration": 0.0749999687499994,
          "durationTicks": 21,
          "midi": 41,
          "name": "F2",
          "ticks": 13632,
          "time": 48.685694,
          "velocity": 0.669291338582677
        },
        {
          "duration": 0.0749999687499994,
          "durationTicks": 21,
          "midi": 41,
          "name": "F2",
          "ticks": 13656,
          "time": 48.77140825,
          "velocity": 0.669291338582677
        },
        {
          "duration": 0.0749999687499994,
          "durationTicks": 21,
          "midi": 41,
          "name": "F2",
          "ticks": 13680,
          "time": 48.8571225,
          "velocity": 0.669291338582677
        },
        {
          "duration": 0.0749999687499994,
          "durationTicks": 21,
          "midi": 50,
          "name": "D3",
          "ticks": 13680,
          "time": 48.8571225,
          "velocity": 0.669291338582677
        },
        {
          "duration": 0.0749999687499994,
          "durationTicks": 21,
          "midi": 41,
          "name": "F2",
          "ticks": 13704,
          "time": 48.94283675,
          "velocity": 0.669291338582677
        },
        {
          "duration": 0.0749999687500065,
          "durationTicks": 21,
          "midi": 41,
          "name": "F2",
          "ticks": 13728,
          "time": 49.028551,
          "velocity": 0.669291338582677
        },
        {
          "duration": 0.0749999687500065,
          "durationTicks": 21,
          "midi": 38,
          "name": "D2",
          "ticks": 13728,
          "time": 49.028551,
          "velocity": 0.669291338582677
        },
        {
          "duration": 0.0749999687499994,
          "durationTicks": 21,
          "midi": 41,
          "name": "F2",
          "ticks": 13752,
          "time": 49.11426525,
          "velocity": 0.669291338582677
        },
        {
          "duration": 0.0749999687499994,
          "durationTicks": 21,
          "midi": 41,
          "name": "F2",
          "ticks": 13776,
          "time": 49.1999795,
          "velocity": 0.669291338582677
        },
        {
          "duration": 0.0749999687499994,
          "durationTicks": 21,
          "midi": 50,
          "name": "D3",
          "ticks": 13776,
          "time": 49.1999795,
          "velocity": 0.669291338582677
        },
        {
          "duration": 0.0749999687500065,
          "durationTicks": 21,
          "midi": 41,
          "name": "F2",
          "ticks": 13800,
          "time": 49.28569375,
          "velocity": 0.669291338582677
        },
        {
          "duration": 0.0749999687499994,
          "durationTicks": 21,
          "midi": 49,
          "name": "C#3",
          "ticks": 13824,
          "time": 49.371408,
          "velocity": 0.362204724409449
        },
        {
          "duration": 0.0749999687499994,
          "durationTicks": 21,
          "midi": 36,
          "name": "C2",
          "ticks": 13824,
          "time": 49.371408,
          "velocity": 0.669291338582677
        },
        {
          "duration": 0.0749999687500065,
          "durationTicks": 21,
          "midi": 50,
          "name": "D3",
          "ticks": 13872,
          "time": 49.5428365,
          "velocity": 0.669291338582677
        },
        {
          "duration": 0.0749999687499994,
          "durationTicks": 21,
          "midi": 38,
          "name": "D2",
          "ticks": 13920,
          "time": 49.714265,
          "velocity": 0.669291338582677
        },
        {
          "duration": 0.0749999687499994,
          "durationTicks": 21,
          "midi": 50,
          "name": "D3",
          "ticks": 13968,
          "time": 49.8856935,
          "velocity": 0.669291338582677
        },
        {
          "duration": 0.0749999687499994,
          "durationTicks": 21,
          "midi": 36,
          "name": "C2",
          "ticks": 14016,
          "time": 50.057122,
          "velocity": 0.669291338582677
        },
        {
          "duration": 0.0749999687499994,
          "durationTicks": 21,
          "midi": 50,
          "name": "D3",
          "ticks": 14064,
          "time": 50.2285505,
          "velocity": 0.669291338582677
        },
        {
          "duration": 0.0749999687499994,
          "durationTicks": 21,
          "midi": 38,
          "name": "D2",
          "ticks": 14112,
          "time": 50.399979,
          "velocity": 0.669291338582677
        },
        {
          "duration": 0.0749999687499994,
          "durationTicks": 21,
          "midi": 50,
          "name": "D3",
          "ticks": 14160,
          "time": 50.5714075,
          "velocity": 0.669291338582677
        },
        {
          "duration": 0.0749999687499994,
          "durationTicks": 21,
          "midi": 36,
          "name": "C2",
          "ticks": 14208,
          "time": 50.742836,
          "velocity": 0.669291338582677
        },
        {
          "duration": 0.0749999687499994,
          "durationTicks": 21,
          "midi": 50,
          "name": "D3",
          "ticks": 14256,
          "time": 50.9142645,
          "velocity": 0.669291338582677
        },
        {
          "duration": 0.0749999687499994,
          "durationTicks": 21,
          "midi": 38,
          "name": "D2",
          "ticks": 14304,
          "time": 51.085693,
          "velocity": 0.669291338582677
        },
        {
          "duration": 0.0749999687499994,
          "durationTicks": 21,
          "midi": 50,
          "name": "D3",
          "ticks": 14352,
          "time": 51.2571215,
          "velocity": 0.669291338582677
        },
        {
          "duration": 0.0749999687499994,
          "durationTicks": 21,
          "midi": 36,
          "name": "C2",
          "ticks": 14400,
          "time": 51.42855,
          "velocity": 0.669291338582677
        },
        {
          "duration": 0.0749999687499994,
          "durationTicks": 21,
          "midi": 50,
          "name": "D3",
          "ticks": 14448,
          "time": 51.5999785,
          "velocity": 0.669291338582677
        },
        {
          "duration": 0.0749999687499994,
          "durationTicks": 21,
          "midi": 38,
          "name": "D2",
          "ticks": 14496,
          "time": 51.771407,
          "velocity": 0.669291338582677
        },
        {
          "duration": 0.0749999687499994,
          "durationTicks": 21,
          "midi": 50,
          "name": "D3",
          "ticks": 14544,
          "time": 51.9428355,
          "velocity": 0.669291338582677
        },
        {
          "duration": 0.0749999687499994,
          "durationTicks": 21,
          "midi": 36,
          "name": "C2",
          "ticks": 14592,
          "time": 52.114264,
          "velocity": 0.669291338582677
        },
        {
          "duration": 0.0749999687499994,
          "durationTicks": 21,
          "midi": 50,
          "name": "D3",
          "ticks": 14640,
          "time": 52.2856925,
          "velocity": 0.669291338582677
        },
        {
          "duration": 0.0749999687499994,
          "durationTicks": 21,
          "midi": 38,
          "name": "D2",
          "ticks": 14688,
          "time": 52.457121,
          "velocity": 0.669291338582677
        },
        {
          "duration": 0.0749999687499994,
          "durationTicks": 21,
          "midi": 50,
          "name": "D3",
          "ticks": 14736,
          "time": 52.6285495,
          "velocity": 0.669291338582677
        },
        {
          "duration": 0.0749999687499994,
          "durationTicks": 21,
          "midi": 36,
          "name": "C2",
          "ticks": 14784,
          "time": 52.799978,
          "velocity": 0.669291338582677
        },
        {
          "duration": 0.0749999687500065,
          "durationTicks": 21,
          "midi": 50,
          "name": "D3",
          "ticks": 14832,
          "time": 52.9714065,
          "velocity": 0.669291338582677
        },
        {
          "duration": 0.0749999687499994,
          "durationTicks": 21,
          "midi": 38,
          "name": "D2",
          "ticks": 14880,
          "time": 53.142835,
          "velocity": 0.669291338582677
        },
        {
          "duration": 0.0749999687499994,
          "durationTicks": 21,
          "midi": 50,
          "name": "D3",
          "ticks": 14928,
          "time": 53.3142635,
          "velocity": 0.669291338582677
        },
        {
          "duration": 0.0749999687500065,
          "durationTicks": 21,
          "midi": 36,
          "name": "C2",
          "ticks": 14976,
          "time": 53.485692,
          "velocity": 0.669291338582677
        },
        {
          "duration": 0.0749999687499994,
          "durationTicks": 21,
          "midi": 50,
          "name": "D3",
          "ticks": 15024,
          "time": 53.6571205,
          "velocity": 0.669291338582677
        },
        {
          "duration": 0.0749999687499994,
          "durationTicks": 21,
          "midi": 38,
          "name": "D2",
          "ticks": 15072,
          "time": 53.828549,
          "velocity": 0.669291338582677
        },
        {
          "duration": 0.0749999687499994,
          "durationTicks": 21,
          "midi": 50,
          "name": "D3",
          "ticks": 15120,
          "time": 53.9999775,
          "velocity": 0.669291338582677
        },
        {
          "duration": 0.0749999687499994,
          "durationTicks": 21,
          "midi": 36,
          "name": "C2",
          "ticks": 15168,
          "time": 54.171406,
          "velocity": 0.669291338582677
        },
        {
          "duration": 0.0749999687499994,
          "durationTicks": 21,
          "midi": 50,
          "name": "D3",
          "ticks": 15216,
          "time": 54.3428345,
          "velocity": 0.669291338582677
        },
        {
          "duration": 0.0749999687499994,
          "durationTicks": 21,
          "midi": 38,
          "name": "D2",
          "ticks": 15264,
          "time": 54.514263,
          "velocity": 0.669291338582677
        },
        {
          "duration": 0.0749999687499994,
          "durationTicks": 21,
          "midi": 50,
          "name": "D3",
          "ticks": 15312,
          "time": 54.6856915,
          "velocity": 0.669291338582677
        },
        {
          "duration": 0.0749999687499994,
          "durationTicks": 21,
          "midi": 36,
          "name": "C2",
          "ticks": 15360,
          "time": 54.85712,
          "velocity": 0.669291338582677
        },
        {
          "duration": 0.0749999687499994,
          "durationTicks": 21,
          "midi": 42,
          "name": "F#2",
          "ticks": 15408,
          "time": 55.0285485,
          "velocity": 0.669291338582677
        },
        {
          "duration": 0.0749999687499994,
          "durationTicks": 21,
          "midi": 42,
          "name": "F#2",
          "ticks": 15408,
          "time": 55.0285485,
          "velocity": 0.669291338582677
        },
        {
          "duration": 0.0749999687499994,
          "durationTicks": 21,
          "midi": 42,
          "name": "F#2",
          "ticks": 15432,
          "time": 55.11426275,
          "velocity": 0.669291338582677
        },
        {
          "duration": 0.0749999687499994,
          "durationTicks": 21,
          "midi": 38,
          "name": "D2",
          "ticks": 15456,
          "time": 55.199977,
          "velocity": 0.669291338582677
        },
        {
          "duration": 0.0749999687499994,
          "durationTicks": 21,
          "midi": 42,
          "name": "F#2",
          "ticks": 15504,
          "time": 55.3714055,
          "velocity": 0.669291338582677
        },
        {
          "duration": 0.0749999687499994,
          "durationTicks": 21,
          "midi": 42,
          "name": "F#2",
          "ticks": 15504,
          "time": 55.3714055,
          "velocity": 0.669291338582677
        },
        {
          "duration": 0.0749999687499994,
          "durationTicks": 21,
          "midi": 42,
          "name": "F#2",
          "ticks": 15528,
          "time": 55.45711975,
          "velocity": 0.669291338582677
        },
        {
          "duration": 0.0749999687499994,
          "durationTicks": 21,
          "midi": 36,
          "name": "C2",
          "ticks": 15552,
          "time": 55.542834,
          "velocity": 0.669291338582677
        },
        {
          "duration": 0.0749999687499994,
          "durationTicks": 21,
          "midi": 42,
          "name": "F#2",
          "ticks": 15600,
          "time": 55.7142625,
          "velocity": 0.669291338582677
        },
        {
          "duration": 0.0749999687499994,
          "durationTicks": 21,
          "midi": 42,
          "name": "F#2",
          "ticks": 15600,
          "time": 55.7142625,
          "velocity": 0.669291338582677
        },
        {
          "duration": 0.0749999687499994,
          "durationTicks": 21,
          "midi": 42,
          "name": "F#2",
          "ticks": 15624,
          "time": 55.79997675,
          "velocity": 0.669291338582677
        },
        {
          "duration": 0.0749999687499994,
          "durationTicks": 21,
          "midi": 38,
          "name": "D2",
          "ticks": 15648,
          "time": 55.885691,
          "velocity": 0.669291338582677
        },
        {
          "duration": 0.0749999687499994,
          "durationTicks": 21,
          "midi": 42,
          "name": "F#2",
          "ticks": 15696,
          "time": 56.0571195,
          "velocity": 0.669291338582677
        },
        {
          "duration": 0.0749999687499994,
          "durationTicks": 21,
          "midi": 42,
          "name": "F#2",
          "ticks": 15696,
          "time": 56.0571195,
          "velocity": 0.669291338582677
        },
        {
          "duration": 0.0749999687499994,
          "durationTicks": 21,
          "midi": 42,
          "name": "F#2",
          "ticks": 15720,
          "time": 56.14283375,
          "velocity": 0.669291338582677
        },
        {
          "duration": 0.0749999687499994,
          "durationTicks": 21,
          "midi": 36,
          "name": "C2",
          "ticks": 15744,
          "time": 56.228548,
          "velocity": 0.669291338582677
        },
        {
          "duration": 0.0749999687499994,
          "durationTicks": 21,
          "midi": 42,
          "name": "F#2",
          "ticks": 15792,
          "time": 56.3999765,
          "velocity": 0.669291338582677
        },
        {
          "duration": 0.0749999687499994,
          "durationTicks": 21,
          "midi": 42,
          "name": "F#2",
          "ticks": 15792,
          "time": 56.3999765,
          "velocity": 0.669291338582677
        },
        {
          "duration": 0.0749999687499994,
          "durationTicks": 21,
          "midi": 42,
          "name": "F#2",
          "ticks": 15816,
          "time": 56.48569075,
          "velocity": 0.669291338582677
        },
        {
          "duration": 0.0749999687499994,
          "durationTicks": 21,
          "midi": 38,
          "name": "D2",
          "ticks": 15840,
          "time": 56.571405,
          "velocity": 0.669291338582677
        },
        {
          "duration": 0.0749999687499994,
          "durationTicks": 21,
          "midi": 42,
          "name": "F#2",
          "ticks": 15888,
          "time": 56.7428335,
          "velocity": 0.669291338582677
        },
        {
          "duration": 0.0749999687499994,
          "durationTicks": 21,
          "midi": 42,
          "name": "F#2",
          "ticks": 15888,
          "time": 56.7428335,
          "velocity": 0.669291338582677
        },
        {
          "duration": 0.0749999687499994,
          "durationTicks": 21,
          "midi": 42,
          "name": "F#2",
          "ticks": 15912,
          "time": 56.82854775,
          "velocity": 0.669291338582677
        },
        {
          "duration": 0.0749999687500065,
          "durationTicks": 21,
          "midi": 36,
          "name": "C2",
          "ticks": 15936,
          "time": 56.914262,
          "velocity": 0.669291338582677
        },
        {
          "duration": 0.0749999687499994,
          "durationTicks": 21,
          "midi": 42,
          "name": "F#2",
          "ticks": 15984,
          "time": 57.0856905,
          "velocity": 0.669291338582677
        },
        {
          "duration": 0.0749999687499994,
          "durationTicks": 21,
          "midi": 42,
          "name": "F#2",
          "ticks": 15984,
          "time": 57.0856905,
          "velocity": 0.669291338582677
        },
        {
          "duration": 0.0749999687500065,
          "durationTicks": 21,
          "midi": 42,
          "name": "F#2",
          "ticks": 16008,
          "time": 57.17140475,
          "velocity": 0.669291338582677
        },
        {
          "duration": 0.0749999687499994,
          "durationTicks": 21,
          "midi": 38,
          "name": "D2",
          "ticks": 16032,
          "time": 57.257119,
          "velocity": 0.669291338582677
        },
        {
          "duration": 0.0749999687500065,
          "durationTicks": 21,
          "midi": 42,
          "name": "F#2",
          "ticks": 16080,
          "time": 57.4285475,
          "velocity": 0.669291338582677
        },
        {
          "duration": 0.0749999687500065,
          "durationTicks": 21,
          "midi": 42,
          "name": "F#2",
          "ticks": 16080,
          "time": 57.4285475,
          "velocity": 0.669291338582677
        },
        {
          "duration": 0.0749999687499994,
          "durationTicks": 21,
          "midi": 42,
          "name": "F#2",
          "ticks": 16104,
          "time": 57.51426175,
          "velocity": 0.669291338582677
        },
        {
          "duration": 0.0749999687499994,
          "durationTicks": 21,
          "midi": 36,
          "name": "C2",
          "ticks": 16128,
          "time": 57.599976,
          "velocity": 0.669291338582677
        },
        {
          "duration": 0.0749999687499994,
          "durationTicks": 21,
          "midi": 42,
          "name": "F#2",
          "ticks": 16176,
          "time": 57.7714045,
          "velocity": 0.669291338582677
        },
        {
          "duration": 0.0749999687499994,
          "durationTicks": 21,
          "midi": 42,
          "name": "F#2",
          "ticks": 16176,
          "time": 57.7714045,
          "velocity": 0.669291338582677
        },
        {
          "duration": 0.0749999687499994,
          "durationTicks": 21,
          "midi": 42,
          "name": "F#2",
          "ticks": 16200,
          "time": 57.85711875,
          "velocity": 0.669291338582677
        },
        {
          "duration": 0.0749999687499994,
          "durationTicks": 21,
          "midi": 38,
          "name": "D2",
          "ticks": 16224,
          "time": 57.942833,
          "velocity": 0.669291338582677
        },
        {
          "duration": 0.0749999687499994,
          "durationTicks": 21,
          "midi": 42,
          "name": "F#2",
          "ticks": 16272,
          "time": 58.1142615,
          "velocity": 0.669291338582677
        },
        {
          "duration": 0.0749999687499994,
          "durationTicks": 21,
          "midi": 42,
          "name": "F#2",
          "ticks": 16272,
          "time": 58.1142615,
          "velocity": 0.669291338582677
        },
        {
          "duration": 0.0749999687499994,
          "durationTicks": 21,
          "midi": 42,
          "name": "F#2",
          "ticks": 16296,
          "time": 58.19997575,
          "velocity": 0.669291338582677
        },
        {
          "duration": 0.0749999687499994,
          "durationTicks": 21,
          "midi": 36,
          "name": "C2",
          "ticks": 16320,
          "time": 58.28569,
          "velocity": 0.669291338582677
        },
        {
          "duration": 0.0749999687499994,
          "durationTicks": 21,
          "midi": 42,
          "name": "F#2",
          "ticks": 16368,
          "time": 58.4571185,
          "velocity": 0.669291338582677
        },
        {
          "duration": 0.0749999687499994,
          "durationTicks": 21,
          "midi": 42,
          "name": "F#2",
          "ticks": 16368,
          "time": 58.4571185,
          "velocity": 0.669291338582677
        },
        {
          "duration": 0.0749999687499994,
          "durationTicks": 21,
          "midi": 42,
          "name": "F#2",
          "ticks": 16392,
          "time": 58.54283275,
          "velocity": 0.669291338582677
        },
        {
          "duration": 0.0749999687499994,
          "durationTicks": 21,
          "midi": 38,
          "name": "D2",
          "ticks": 16416,
          "time": 58.628547,
          "velocity": 0.669291338582677
        },
        {
          "duration": 0.0749999687499994,
          "durationTicks": 21,
          "midi": 42,
          "name": "F#2",
          "ticks": 16464,
          "time": 58.7999755,
          "velocity": 0.669291338582677
        },
        {
          "duration": 0.0749999687499994,
          "durationTicks": 21,
          "midi": 42,
          "name": "F#2",
          "ticks": 16464,
          "time": 58.7999755,
          "velocity": 0.669291338582677
        },
        {
          "duration": 0.0749999687499994,
          "durationTicks": 21,
          "midi": 42,
          "name": "F#2",
          "ticks": 16488,
          "time": 58.88568975,
          "velocity": 0.669291338582677
        },
        {
          "duration": 0.0749999687499994,
          "durationTicks": 21,
          "midi": 36,
          "name": "C2",
          "ticks": 16512,
          "time": 58.971404,
          "velocity": 0.669291338582677
        },
        {
          "duration": 0.0749999687499994,
          "durationTicks": 21,
          "midi": 42,
          "name": "F#2",
          "ticks": 16560,
          "time": 59.1428325,
          "velocity": 0.669291338582677
        },
        {
          "duration": 0.0749999687499994,
          "durationTicks": 21,
          "midi": 42,
          "name": "F#2",
          "ticks": 16560,
          "time": 59.1428325,
          "velocity": 0.669291338582677
        },
        {
          "duration": 0.0749999687499994,
          "durationTicks": 21,
          "midi": 42,
          "name": "F#2",
          "ticks": 16584,
          "time": 59.22854675,
          "velocity": 0.669291338582677
        },
        {
          "duration": 0.0749999687499994,
          "durationTicks": 21,
          "midi": 38,
          "name": "D2",
          "ticks": 16608,
          "time": 59.314261,
          "velocity": 0.669291338582677
        },
        {
          "duration": 0.0749999687499994,
          "durationTicks": 21,
          "midi": 42,
          "name": "F#2",
          "ticks": 16656,
          "time": 59.4856895,
          "velocity": 0.669291338582677
        },
        {
          "duration": 0.0749999687499994,
          "durationTicks": 21,
          "midi": 42,
          "name": "F#2",
          "ticks": 16656,
          "time": 59.4856895,
          "velocity": 0.669291338582677
        },
        {
          "duration": 0.0749999687499994,
          "durationTicks": 21,
          "midi": 42,
          "name": "F#2",
          "ticks": 16680,
          "time": 59.57140375,
          "velocity": 0.669291338582677
        },
        {
          "duration": 0.0749999687499994,
          "durationTicks": 21,
          "midi": 36,
          "name": "C2",
          "ticks": 16704,
          "time": 59.657118,
          "velocity": 0.669291338582677
        },
        {
          "duration": 0.0749999687499994,
          "durationTicks": 21,
          "midi": 42,
          "name": "F#2",
          "ticks": 16752,
          "time": 59.8285465,
          "velocity": 0.669291338582677
        },
        {
          "duration": 0.0749999687499994,
          "durationTicks": 21,
          "midi": 42,
          "name": "F#2",
          "ticks": 16752,
          "time": 59.8285465,
          "velocity": 0.669291338582677
        },
        {
          "duration": 0.0749999687499994,
          "durationTicks": 21,
          "midi": 42,
          "name": "F#2",
          "ticks": 16776,
          "time": 59.91426075,
          "velocity": 0.669291338582677
        },
        {
          "duration": 0.0749999687499994,
          "durationTicks": 21,
          "midi": 38,
          "name": "D2",
          "ticks": 16800,
          "time": 59.999975,
          "velocity": 0.669291338582677
        },
        {
          "duration": 0.0749999687499994,
          "durationTicks": 21,
          "midi": 42,
          "name": "F#2",
          "ticks": 16848,
          "time": 60.1714035,
          "velocity": 0.669291338582677
        },
        {
          "duration": 0.0749999687499994,
          "durationTicks": 21,
          "midi": 42,
          "name": "F#2",
          "ticks": 16848,
          "time": 60.1714035,
          "velocity": 0.669291338582677
        },
        {
          "duration": 0.0749999687499994,
          "durationTicks": 21,
          "midi": 42,
          "name": "F#2",
          "ticks": 16872,
          "time": 60.25711775,
          "velocity": 0.669291338582677
        },
        {
          "duration": 0.0749999687499994,
          "durationTicks": 21,
          "midi": 38,
          "name": "D2",
          "ticks": 16896,
          "time": 60.342832,
          "velocity": 0.669291338582677
        },
        {
          "duration": 0.0749999687499994,
          "durationTicks": 21,
          "midi": 49,
          "name": "C#3",
          "ticks": 16896,
          "time": 60.342832,
          "velocity": 0.669291338582677
        },
        {
          "duration": 0.0749999687499994,
          "durationTicks": 21,
          "midi": 38,
          "name": "D2",
          "ticks": 17088,
          "time": 61.028546,
          "velocity": 0.669291338582677
        },
        {
          "duration": 0.0749999687499994,
          "durationTicks": 21,
          "midi": 49,
          "name": "C#3",
          "ticks": 17088,
          "time": 61.028546,
          "velocity": 0.669291338582677
        },
        {
          "duration": 0.0749999687499994,
          "durationTicks": 21,
          "midi": 38,
          "name": "D2",
          "ticks": 17280,
          "time": 61.71426,
          "velocity": 0.669291338582677
        },
        {
          "duration": 0.0749999687499994,
          "durationTicks": 21,
          "midi": 49,
          "name": "C#3",
          "ticks": 17280,
          "time": 61.71426,
          "velocity": 0.669291338582677
        },
        {
          "duration": 0.0749999687499994,
          "durationTicks": 21,
          "midi": 38,
          "name": "D2",
          "ticks": 17376,
          "time": 62.057117,
          "velocity": 0.669291338582677
        },
        {
          "duration": 0.0749999687499994,
          "durationTicks": 21,
          "midi": 49,
          "name": "C#3",
          "ticks": 17376,
          "time": 62.057117,
          "velocity": 0.669291338582677
        },
        {
          "duration": 0.0749999687499994,
          "durationTicks": 21,
          "midi": 38,
          "name": "D2",
          "ticks": 17472,
          "time": 62.399974,
          "velocity": 0.669291338582677
        },
        {
          "duration": 0.0749999687499994,
          "durationTicks": 21,
          "midi": 49,
          "name": "C#3",
          "ticks": 17472,
          "time": 62.399974,
          "velocity": 0.669291338582677
        },
        {
          "duration": 0.0749999687499994,
          "durationTicks": 21,
          "midi": 38,
          "name": "D2",
          "ticks": 17568,
          "time": 62.742831,
          "velocity": 0.669291338582677
        },
        {
          "duration": 0.0749999687499994,
          "durationTicks": 21,
          "midi": 49,
          "name": "C#3",
          "ticks": 17568,
          "time": 62.742831,
          "velocity": 0.669291338582677
        },
        {
          "duration": 0.0749999687499994,
          "durationTicks": 21,
          "midi": 49,
          "name": "C#3",
          "ticks": 17664,
          "time": 63.085688,
          "velocity": 0.669291338582677
        },
        {
          "duration": 0.0749999687499994,
          "durationTicks": 21,
          "midi": 49,
          "name": "C#3",
          "ticks": 17856,
          "time": 63.771402,
          "velocity": 0.669291338582677
        },
        {
          "duration": 0.0749999687500065,
          "durationTicks": 21,
          "midi": 49,
          "name": "C#3",
          "ticks": 18048,
          "time": 64.457116,
          "velocity": 0.669291338582677
        },
        {
          "duration": 0.0749999687500065,
          "durationTicks": 21,
          "midi": 40,
          "name": "E2",
          "ticks": 18048,
          "time": 64.457116,
          "velocity": 0.669291338582677
        },
        {
          "duration": 0.0749999687499923,
          "durationTicks": 21,
          "midi": 40,
          "name": "E2",
          "ticks": 18072,
          "time": 64.54283025,
          "velocity": 0.669291338582677
        },
        {
          "duration": 0.0749999687500065,
          "durationTicks": 21,
          "midi": 40,
          "name": "E2",
          "ticks": 18096,
          "time": 64.6285445,
          "velocity": 0.669291338582677
        },
        {
          "duration": 0.0749999687500065,
          "durationTicks": 21,
          "midi": 40,
          "name": "E2",
          "ticks": 18120,
          "time": 64.71425875,
          "velocity": 0.669291338582677
        },
        {
          "duration": 0.0749999687499923,
          "durationTicks": 21,
          "midi": 49,
          "name": "C#3",
          "ticks": 18144,
          "time": 64.799973,
          "velocity": 0.669291338582677
        },
        {
          "duration": 0.0749999687499923,
          "durationTicks": 21,
          "midi": 40,
          "name": "E2",
          "ticks": 18144,
          "time": 64.799973,
          "velocity": 0.669291338582677
        },
        {
          "duration": 0.0749999687500065,
          "durationTicks": 21,
          "midi": 40,
          "name": "E2",
          "ticks": 18168,
          "time": 64.88568725,
          "velocity": 0.669291338582677
        },
        {
          "duration": 0.0749999687500065,
          "durationTicks": 21,
          "midi": 40,
          "name": "E2",
          "ticks": 18192,
          "time": 64.9714015,
          "velocity": 0.669291338582677
        },
        {
          "duration": 0.0749999687499923,
          "durationTicks": 21,
          "midi": 40,
          "name": "E2",
          "ticks": 18216,
          "time": 65.05711575,
          "velocity": 0.669291338582677
        },
        {
          "duration": 0.0749999687500065,
          "durationTicks": 21,
          "midi": 49,
          "name": "C#3",
          "ticks": 18240,
          "time": 65.14283,
          "velocity": 0.669291338582677
        },
        {
          "duration": 0.0749999687500065,
          "durationTicks": 21,
          "midi": 40,
          "name": "E2",
          "ticks": 18240,
          "time": 65.14283,
          "velocity": 0.669291338582677
        },
        {
          "duration": 0.0321428437500089,
          "durationTicks": 9,
          "midi": 40,
          "name": "E2",
          "ticks": 18264,
          "time": 65.22854425,
          "velocity": 0.669291338582677
        },
        {
          "duration": 0.0321428437499947,
          "durationTicks": 9,
          "midi": 40,
          "name": "E2",
          "ticks": 18276,
          "time": 65.271401375,
          "velocity": 0.669291338582677
        },
        {
          "duration": 0.0321428437499947,
          "durationTicks": 9,
          "midi": 40,
          "name": "E2",
          "ticks": 18288,
          "time": 65.3142585,
          "velocity": 0.669291338582677
        },
        {
          "duration": 0.0321428437499947,
          "durationTicks": 9,
          "midi": 40,
          "name": "E2",
          "ticks": 18300,
          "time": 65.357115625,
          "velocity": 0.669291338582677
        },
        {
          "duration": 0.0321428437499947,
          "durationTicks": 9,
          "midi": 40,
          "name": "E2",
          "ticks": 18312,
          "time": 65.39997275,
          "velocity": 0.669291338582677
        },
        {
          "duration": 0.0321428437500089,
          "durationTicks": 9,
          "midi": 40,
          "name": "E2",
          "ticks": 18324,
          "time": 65.442829875,
          "velocity": 0.669291338582677
        },
        {
          "duration": 0.0749999687500065,
          "durationTicks": 21,
          "midi": 49,
          "name": "C#3",
          "ticks": 18336,
          "time": 65.485687,
          "velocity": 0.669291338582677
        },
        {
          "duration": 0.0321428437500089,
          "durationTicks": 9,
          "midi": 40,
          "name": "E2",
          "ticks": 18336,
          "time": 65.485687,
          "velocity": 0.669291338582677
        },
        {
          "duration": 0.0321428437499947,
          "durationTicks": 9,
          "midi": 40,
          "name": "E2",
          "ticks": 18348,
          "time": 65.528544125,
          "velocity": 0.669291338582677
        },
        {
          "duration": 0.0321428437499947,
          "durationTicks": 9,
          "midi": 40,
          "name": "E2",
          "ticks": 18360,
          "time": 65.57140125,
          "velocity": 0.669291338582677
        },
        {
          "duration": 0.0321428437499947,
          "durationTicks": 9,
          "midi": 40,
          "name": "E2",
          "ticks": 18372,
          "time": 65.614258375,
          "velocity": 0.669291338582677
        },
        {
          "duration": 0.0321428437499947,
          "durationTicks": 9,
          "midi": 40,
          "name": "E2",
          "ticks": 18384,
          "time": 65.6571155,
          "velocity": 0.669291338582677
        },
        {
          "duration": 0.0321428437499947,
          "durationTicks": 9,
          "midi": 40,
          "name": "E2",
          "ticks": 18384,
          "time": 65.6571155,
          "velocity": 0.669291338582677
        },
        {
          "duration": 0.0321428437499947,
          "durationTicks": 9,
          "midi": 40,
          "name": "E2",
          "ticks": 18384,
          "time": 65.6571155,
          "velocity": 0.669291338582677
        },
        {
          "duration": 0.0321428437499947,
          "durationTicks": 9,
          "midi": 40,
          "name": "E2",
          "ticks": 18384,
          "time": 65.6571155,
          "velocity": 0.669291338582677
        },
        {
          "duration": 0.0321428437500089,
          "durationTicks": 9,
          "midi": 40,
          "name": "E2",
          "ticks": 18396,
          "time": 65.699972625,
          "velocity": 0.669291338582677
        },
        {
          "duration": 0.0321428437500089,
          "durationTicks": 9,
          "midi": 40,
          "name": "E2",
          "ticks": 18408,
          "time": 65.74282975,
          "velocity": 0.669291338582677
        },
        {
          "duration": 0.0321428437499947,
          "durationTicks": 9,
          "midi": 40,
          "name": "E2",
          "ticks": 18420,
          "time": 65.785686875,
          "velocity": 0.669291338582677
        },
        {
          "duration": 0.0749999687499923,
          "durationTicks": 21,
          "midi": 49,
          "name": "C#3",
          "ticks": 18432,
          "time": 65.828544,
          "velocity": 0.669291338582677
        },
        {
          "duration": 0.0749999687500065,
          "durationTicks": 21,
          "midi": 49,
          "name": "C#3",
          "ticks": 18816,
          "time": 67.199972,
          "velocity": 0.362204724409449
        },
        {
          "duration": 0.0749999687499923,
          "durationTicks": 21,
          "midi": 49,
          "name": "C#3",
          "ticks": 19200,
          "time": 68.5714,
          "velocity": 0.425196850393701
        },
        {
          "duration": 0.0749999687499923,
          "durationTicks": 21,
          "midi": 49,
          "name": "C#3",
          "ticks": 19584,
          "time": 69.942828,
          "velocity": 0.511811023622047
        },
        {
          "duration": 0.0749999687500065,
          "durationTicks": 21,
          "midi": 39,
          "name": "D#2",
          "ticks": 19968,
          "time": 71.314256,
          "velocity": 0.362204724409449
        },
        {
          "duration": 0.0749999687500065,
          "durationTicks": 21,
          "midi": 49,
          "name": "C#3",
          "ticks": 19968,
          "time": 71.314256,
          "velocity": 0.574803149606299
        },
        {
          "duration": 0.0749999687500065,
          "durationTicks": 21,
          "midi": 42,
          "name": "F#2",
          "ticks": 20016,
          "time": 71.4856845,
          "velocity": 0.362204724409449
        },
        {
          "duration": 0.0749999687499923,
          "durationTicks": 21,
          "midi": 39,
          "name": "D#2",
          "ticks": 20064,
          "time": 71.657113,
          "velocity": 0.362204724409449
        },
        {
          "duration": 0.0749999687500065,
          "durationTicks": 21,
          "midi": 42,
          "name": "F#2",
          "ticks": 20112,
          "time": 71.8285415,
          "velocity": 0.362204724409449
        },
        {
          "duration": 0.0749999687500065,
          "durationTicks": 21,
          "midi": 39,
          "name": "D#2",
          "ticks": 20160,
          "time": 71.99997,
          "velocity": 0.362204724409449
        },
        {
          "duration": 0.0749999687499923,
          "durationTicks": 21,
          "midi": 42,
          "name": "F#2",
          "ticks": 20208,
          "time": 72.1713985,
          "velocity": 0.362204724409449
        },
        {
          "duration": 0.0749999687500065,
          "durationTicks": 21,
          "midi": 39,
          "name": "D#2",
          "ticks": 20256,
          "time": 72.342827,
          "velocity": 0.362204724409449
        },
        {
          "duration": 0.0749999687500065,
          "durationTicks": 21,
          "midi": 42,
          "name": "F#2",
          "ticks": 20304,
          "time": 72.5142555,
          "velocity": 0.362204724409449
        },
        {
          "duration": 0.0749999687499923,
          "durationTicks": 21,
          "midi": 42,
          "name": "F#2",
          "ticks": 20352,
          "time": 72.685684,
          "velocity": 0.362204724409449
        },
        {
          "duration": 0.0749999687499923,
          "durationTicks": 21,
          "midi": 39,
          "name": "D#2",
          "ticks": 20352,
          "time": 72.685684,
          "velocity": 0.362204724409449
        },
        {
          "duration": 0.0749999687499923,
          "durationTicks": 21,
          "midi": 49,
          "name": "C#3",
          "ticks": 20352,
          "time": 72.685684,
          "velocity": 0.637795275590551
        },
        {
          "duration": 0.0749999687500065,
          "durationTicks": 21,
          "midi": 42,
          "name": "F#2",
          "ticks": 20376,
          "time": 72.77139825,
          "velocity": 0.362204724409449
        },
        {
          "duration": 0.0749999687500065,
          "durationTicks": 21,
          "midi": 42,
          "name": "F#2",
          "ticks": 20400,
          "time": 72.8571125,
          "velocity": 0.362204724409449
        },
        {
          "duration": 0.0749999687499923,
          "durationTicks": 21,
          "midi": 42,
          "name": "F#2",
          "ticks": 20424,
          "time": 72.94282675,
          "velocity": 0.362204724409449
        },
        {
          "duration": 0.0749999687500065,
          "durationTicks": 21,
          "midi": 42,
          "name": "F#2",
          "ticks": 20448,
          "time": 73.028541,
          "velocity": 0.362204724409449
        },
        {
          "duration": 0.0749999687500065,
          "durationTicks": 21,
          "midi": 42,
          "name": "F#2",
          "ticks": 20472,
          "time": 73.11425525,
          "velocity": 0.362204724409449
        },
        {
          "duration": 0.0749999687499923,
          "durationTicks": 21,
          "midi": 42,
          "name": "F#2",
          "ticks": 20496,
          "time": 73.1999695,
          "velocity": 0.362204724409449
        },
        {
          "duration": 0.0749999687500065,
          "durationTicks": 21,
          "midi": 42,
          "name": "F#2",
          "ticks": 20520,
          "time": 73.28568375,
          "velocity": 0.362204724409449
        },
        {
          "duration": 0.0749999687500065,
          "durationTicks": 21,
          "midi": 42,
          "name": "F#2",
          "ticks": 20544,
          "time": 73.371398,
          "velocity": 0.362204724409449
        },
        {
          "duration": 0.0749999687500065,
          "durationTicks": 21,
          "midi": 42,
          "name": "F#2",
          "ticks": 20592,
          "time": 73.5428265,
          "velocity": 0.362204724409449
        },
        {
          "duration": 0.0749999687499923,
          "durationTicks": 21,
          "midi": 42,
          "name": "F#2",
          "ticks": 20640,
          "time": 73.714255,
          "velocity": 0.362204724409449
        },
        {
          "duration": 0.0749999687500065,
          "durationTicks": 21,
          "midi": 42,
          "name": "F#2",
          "ticks": 20688,
          "time": 73.8856835,
          "velocity": 0.362204724409449
        },
        {
          "duration": 0.0749999687500065,
          "durationTicks": 21,
          "midi": 49,
          "name": "C#3",
          "ticks": 20832,
          "time": 74.399969,
          "velocity": 0.669291338582677
        },
        {
          "duration": 0.0749999687500065,
          "durationTicks": 21,
          "midi": 49,
          "name": "C#3",
          "ticks": 21024,
          "time": 75.085683,
          "velocity": 0.669291338582677
        },
        {
          "duration": 0.0749999687500065,
          "durationTicks": 21,
          "midi": 42,
          "name": "F#2",
          "ticks": 21120,
          "time": 75.42854,
          "velocity": 0.362204724409449
        },
        {
          "duration": 0.0749999687500065,
          "durationTicks": 21,
          "midi": 49,
          "name": "C#3",
          "ticks": 21120,
          "time": 75.42854,
          "velocity": 0.669291338582677
        },
        {
          "duration": 0.0749999687500065,
          "durationTicks": 21,
          "midi": 42,
          "name": "F#2",
          "ticks": 21168,
          "time": 75.5999685,
          "velocity": 0.362204724409449
        },
        {
          "duration": 0.0749999687499923,
          "durationTicks": 21,
          "midi": 42,
          "name": "F#2",
          "ticks": 21216,
          "time": 75.771397,
          "velocity": 0.362204724409449
        },
        {
          "duration": 0.0749999687499923,
          "durationTicks": 21,
          "midi": 42,
          "name": "F#2",
          "ticks": 21264,
          "time": 75.9428255,
          "velocity": 0.362204724409449
        },
        {
          "duration": 0.0749999687500065,
          "durationTicks": 21,
          "midi": 42,
          "name": "F#2",
          "ticks": 21312,
          "time": 76.114254,
          "velocity": 0.362204724409449
        },
        {
          "duration": 0.0749999687499923,
          "durationTicks": 21,
          "midi": 49,
          "name": "C#3",
          "ticks": 21504,
          "time": 76.799968,
          "velocity": 0.362204724409449
        },
        {
          "duration": 0.0749999687499923,
          "durationTicks": 21,
          "midi": 36,
          "name": "C2",
          "ticks": 21504,
          "time": 76.799968,
          "velocity": 0.669291338582677
        },
        {
          "duration": 0.0749999687499923,
          "durationTicks": 21,
          "midi": 50,
          "name": "D3",
          "ticks": 21552,
          "time": 76.9713965,
          "velocity": 0.669291338582677
        },
        {
          "duration": 0.0749999687500065,
          "durationTicks": 21,
          "midi": 38,
          "name": "D2",
          "ticks": 21600,
          "time": 77.142825,
          "velocity": 0.669291338582677
        },
        {
          "duration": 0.0749999687499923,
          "durationTicks": 21,
          "midi": 50,
          "name": "D3",
          "ticks": 21648,
          "time": 77.3142535,
          "velocity": 0.669291338582677
        },
        {
          "duration": 0.0749999687499923,
          "durationTicks": 21,
          "midi": 36,
          "name": "C2",
          "ticks": 21696,
          "time": 77.485682,
          "velocity": 0.669291338582677
        },
        {
          "duration": 0.0749999687500065,
          "durationTicks": 21,
          "midi": 50,
          "name": "D3",
          "ticks": 21744,
          "time": 77.6571105,
          "velocity": 0.669291338582677
        },
        {
          "duration": 0.0749999687499923,
          "durationTicks": 21,
          "midi": 38,
          "name": "D2",
          "ticks": 21792,
          "time": 77.828539,
          "velocity": 0.669291338582677
        },
        {
          "duration": 0.0749999687499923,
          "durationTicks": 21,
          "midi": 50,
          "name": "D3",
          "ticks": 21840,
          "time": 77.9999675,
          "velocity": 0.669291338582677
        },
        {
          "duration": 0.0749999687500065,
          "durationTicks": 21,
          "midi": 36,
          "name": "C2",
          "ticks": 21888,
          "time": 78.171396,
          "velocity": 0.669291338582677
        },
        {
          "duration": 0.0749999687499923,
          "durationTicks": 21,
          "midi": 50,
          "name": "D3",
          "ticks": 21936,
          "time": 78.3428245,
          "velocity": 0.669291338582677
        },
        {
          "duration": 0.0749999687499923,
          "durationTicks": 21,
          "midi": 38,
          "name": "D2",
          "ticks": 21984,
          "time": 78.514253,
          "velocity": 0.669291338582677
        },
        {
          "duration": 0.0749999687500065,
          "durationTicks": 21,
          "midi": 50,
          "name": "D3",
          "ticks": 22032,
          "time": 78.6856815,
          "velocity": 0.669291338582677
        },
        {
          "duration": 0.0749999687500065,
          "durationTicks": 21,
          "midi": 36,
          "name": "C2",
          "ticks": 22080,
          "time": 78.85711,
          "velocity": 0.669291338582677
        },
        {
          "duration": 0.0749999687499923,
          "durationTicks": 21,
          "midi": 50,
          "name": "D3",
          "ticks": 22128,
          "time": 79.0285385,
          "velocity": 0.669291338582677
        },
        {
          "duration": 0.0749999687500065,
          "durationTicks": 21,
          "midi": 38,
          "name": "D2",
          "ticks": 22176,
          "time": 79.199967,
          "velocity": 0.669291338582677
        },
        {
          "duration": 0.0749999687500065,
          "durationTicks": 21,
          "midi": 50,
          "name": "D3",
          "ticks": 22224,
          "time": 79.3713955,
          "velocity": 0.669291338582677
        },
        {
          "duration": 0.0749999687499923,
          "durationTicks": 21,
          "midi": 36,
          "name": "C2",
          "ticks": 22272,
          "time": 79.542824,
          "velocity": 0.669291338582677
        },
        {
          "duration": 0.0749999687500065,
          "durationTicks": 21,
          "midi": 50,
          "name": "D3",
          "ticks": 22320,
          "time": 79.7142525,
          "velocity": 0.669291338582677
        },
        {
          "duration": 0.0749999687500065,
          "durationTicks": 21,
          "midi": 38,
          "name": "D2",
          "ticks": 22368,
          "time": 79.885681,
          "velocity": 0.669291338582677
        },
        {
          "duration": 0.0749999687499923,
          "durationTicks": 21,
          "midi": 50,
          "name": "D3",
          "ticks": 22416,
          "time": 80.0571095,
          "velocity": 0.669291338582677
        },
        {
          "duration": 0.0749999687500065,
          "durationTicks": 21,
          "midi": 36,
          "name": "C2",
          "ticks": 22464,
          "time": 80.228538,
          "velocity": 0.669291338582677
        },
        {
          "duration": 0.0749999687500065,
          "durationTicks": 21,
          "midi": 50,
          "name": "D3",
          "ticks": 22512,
          "time": 80.3999665,
          "velocity": 0.669291338582677
        },
        {
          "duration": 0.0749999687499923,
          "durationTicks": 21,
          "midi": 38,
          "name": "D2",
          "ticks": 22560,
          "time": 80.571395,
          "velocity": 0.669291338582677
        },
        {
          "duration": 0.0749999687500065,
          "durationTicks": 21,
          "midi": 50,
          "name": "D3",
          "ticks": 22608,
          "time": 80.7428235,
          "velocity": 0.669291338582677
        },
        {
          "duration": 0.0749999687500065,
          "durationTicks": 21,
          "midi": 41,
          "name": "F2",
          "ticks": 22656,
          "time": 80.914252,
          "velocity": 0.669291338582677
        },
        {
          "duration": 0.0749999687500065,
          "durationTicks": 21,
          "midi": 36,
          "name": "C2",
          "ticks": 22656,
          "time": 80.914252,
          "velocity": 0.669291338582677
        },
        {
          "duration": 0.0749999687499923,
          "durationTicks": 21,
          "midi": 41,
          "name": "F2",
          "ticks": 22704,
          "time": 81.0856805,
          "velocity": 0.669291338582677
        },
        {
          "duration": 0.0749999687499923,
          "durationTicks": 21,
          "midi": 50,
          "name": "D3",
          "ticks": 22704,
          "time": 81.0856805,
          "velocity": 0.669291338582677
        },
        {
          "duration": 0.0749999687500065,
          "durationTicks": 21,
          "midi": 41,
          "name": "F2",
          "ticks": 22752,
          "time": 81.257109,
          "velocity": 0.669291338582677
        },
        {
          "duration": 0.0749999687500065,
          "durationTicks": 21,
          "midi": 38,
          "name": "D2",
          "ticks": 22752,
          "time": 81.257109,
          "velocity": 0.669291338582677
        },
        {
          "duration": 0.0749999687500065,
          "durationTicks": 21,
          "midi": 41,
          "name": "F2",
          "ticks": 22800,
          "time": 81.4285375,
          "velocity": 0.669291338582677
        },
        {
          "duration": 0.0749999687500065,
          "durationTicks": 21,
          "midi": 50,
          "name": "D3",
          "ticks": 22800,
          "time": 81.4285375,
          "velocity": 0.669291338582677
        },
        {
          "duration": 0.0749999687499923,
          "durationTicks": 21,
          "midi": 41,
          "name": "F2",
          "ticks": 22848,
          "time": 81.599966,
          "velocity": 0.669291338582677
        },
        {
          "duration": 0.0749999687499923,
          "durationTicks": 21,
          "midi": 36,
          "name": "C2",
          "ticks": 22848,
          "time": 81.599966,
          "velocity": 0.669291338582677
        },
        {
          "duration": 0.0749999687500065,
          "durationTicks": 21,
          "midi": 41,
          "name": "F2",
          "ticks": 22872,
          "time": 81.68568025,
          "velocity": 0.669291338582677
        },
        {
          "duration": 0.0749999687500065,
          "durationTicks": 21,
          "midi": 41,
          "name": "F2",
          "ticks": 22896,
          "time": 81.7713945,
          "velocity": 0.669291338582677
        },
        {
          "duration": 0.0749999687500065,
          "durationTicks": 21,
          "midi": 50,
          "name": "D3",
          "ticks": 22896,
          "time": 81.7713945,
          "velocity": 0.669291338582677
        },
        {
          "duration": 0.0749999687499923,
          "durationTicks": 21,
          "midi": 41,
          "name": "F2",
          "ticks": 22920,
          "time": 81.85710875,
          "velocity": 0.669291338582677
        },
        {
          "duration": 0.0749999687500065,
          "durationTicks": 21,
          "midi": 41,
          "name": "F2",
          "ticks": 22944,
          "time": 81.942823,
          "velocity": 0.669291338582677
        },
        {
          "duration": 0.0749999687500065,
          "durationTicks": 21,
          "midi": 38,
          "name": "D2",
          "ticks": 22944,
          "time": 81.942823,
          "velocity": 0.669291338582677
        },
        {
          "duration": 0.0749999687500065,
          "durationTicks": 21,
          "midi": 41,
          "name": "F2",
          "ticks": 22968,
          "time": 82.02853725,
          "velocity": 0.669291338582677
        },
        {
          "duration": 0.0749999687499923,
          "durationTicks": 21,
          "midi": 41,
          "name": "F2",
          "ticks": 22992,
          "time": 82.1142515,
          "velocity": 0.669291338582677
        },
        {
          "duration": 0.0749999687499923,
          "durationTicks": 21,
          "midi": 50,
          "name": "D3",
          "ticks": 22992,
          "time": 82.1142515,
          "velocity": 0.669291338582677
        },
        {
          "duration": 0.0749999687500065,
          "durationTicks": 21,
          "midi": 41,
          "name": "F2",
          "ticks": 23016,
          "time": 82.19996575,
          "velocity": 0.669291338582677
        },
        {
          "duration": 0.0749999687500065,
          "durationTicks": 21,
          "midi": 49,
          "name": "C#3",
          "ticks": 23040,
          "time": 82.28568,
          "velocity": 0.362204724409449
        },
        {
          "duration": 0.0749999687500065,
          "durationTicks": 21,
          "midi": 36,
          "name": "C2",
          "ticks": 23040,
          "time": 82.28568,
          "velocity": 0.669291338582677
        },
        {
          "duration": 0.0749999687500065,
          "durationTicks": 21,
          "midi": 50,
          "name": "D3",
          "ticks": 23088,
          "time": 82.4571085,
          "velocity": 0.669291338582677
        },
        {
          "duration": 0.0749999687499923,
          "durationTicks": 21,
          "midi": 38,
          "name": "D2",
          "ticks": 23136,
          "time": 82.628537,
          "velocity": 0.669291338582677
        },
        {
          "duration": 0.0749999687500065,
          "durationTicks": 21,
          "midi": 50,
          "name": "D3",
          "ticks": 23184,
          "time": 82.7999655,
          "velocity": 0.669291338582677
        },
        {
          "duration": 0.0749999687500065,
          "durationTicks": 21,
          "midi": 36,
          "name": "C2",
          "ticks": 23232,
          "time": 82.971394,
          "velocity": 0.669291338582677
        },
        {
          "duration": 0.0749999687499923,
          "durationTicks": 21,
          "midi": 50,
          "name": "D3",
          "ticks": 23280,
          "time": 83.1428225,
          "velocity": 0.669291338582677
        },
        {
          "duration": 0.0749999687500065,
          "durationTicks": 21,
          "midi": 38,
          "name": "D2",
          "ticks": 23328,
          "time": 83.314251,
          "velocity": 0.669291338582677
        },
        {
          "duration": 0.0749999687500065,
          "durationTicks": 21,
          "midi": 50,
          "name": "D3",
          "ticks": 23376,
          "time": 83.4856795,
          "velocity": 0.669291338582677
        },
        {
          "duration": 0.0749999687499923,
          "durationTicks": 21,
          "midi": 36,
          "name": "C2",
          "ticks": 23424,
          "time": 83.657108,
          "velocity": 0.669291338582677
        },
        {
          "duration": 0.0749999687499923,
          "durationTicks": 21,
          "midi": 50,
          "name": "D3",
          "ticks": 23472,
          "time": 83.8285365,
          "velocity": 0.669291338582677
        },
        {
          "duration": 0.0749999687500065,
          "durationTicks": 21,
          "midi": 38,
          "name": "D2",
          "ticks": 23520,
          "time": 83.999965,
          "velocity": 0.669291338582677
        },
        {
          "duration": 0.0749999687499923,
          "durationTicks": 21,
          "midi": 50,
          "name": "D3",
          "ticks": 23568,
          "time": 84.1713935,
          "velocity": 0.669291338582677
        },
        {
          "duration": 0.0749999687499923,
          "durationTicks": 21,
          "midi": 36,
          "name": "C2",
          "ticks": 23616,
          "time": 84.342822,
          "velocity": 0.669291338582677
        },
        {
          "duration": 0.0749999687500065,
          "durationTicks": 21,
          "midi": 50,
          "name": "D3",
          "ticks": 23664,
          "time": 84.5142505,
          "velocity": 0.669291338582677
        },
        {
          "duration": 0.0749999687499923,
          "durationTicks": 21,
          "midi": 38,
          "name": "D2",
          "ticks": 23712,
          "time": 84.685679,
          "velocity": 0.669291338582677
        },
        {
          "duration": 0.0749999687499923,
          "durationTicks": 21,
          "midi": 50,
          "name": "D3",
          "ticks": 23760,
          "time": 84.8571075,
          "velocity": 0.669291338582677
        },
        {
          "duration": 0.0749999687500065,
          "durationTicks": 21,
          "midi": 36,
          "name": "C2",
          "ticks": 23808,
          "time": 85.028536,
          "velocity": 0.669291338582677
        },
        {
          "duration": 0.0749999687499923,
          "durationTicks": 21,
          "midi": 50,
          "name": "D3",
          "ticks": 23856,
          "time": 85.1999645,
          "velocity": 0.669291338582677
        },
        {
          "duration": 0.0749999687499923,
          "durationTicks": 21,
          "midi": 38,
          "name": "D2",
          "ticks": 23904,
          "time": 85.371393,
          "velocity": 0.669291338582677
        },
        {
          "duration": 0.0749999687500065,
          "durationTicks": 21,
          "midi": 50,
          "name": "D3",
          "ticks": 23952,
          "time": 85.5428215,
          "velocity": 0.669291338582677
        },
        {
          "duration": 0.0749999687499923,
          "durationTicks": 21,
          "midi": 36,
          "name": "C2",
          "ticks": 24000,
          "time": 85.71425,
          "velocity": 0.669291338582677
        },
        {
          "duration": 0.0749999687499923,
          "durationTicks": 21,
          "midi": 50,
          "name": "D3",
          "ticks": 24048,
          "time": 85.8856785,
          "velocity": 0.669291338582677
        },
        {
          "duration": 0.0749999687500065,
          "durationTicks": 21,
          "midi": 38,
          "name": "D2",
          "ticks": 24096,
          "time": 86.057107,
          "velocity": 0.669291338582677
        },
        {
          "duration": 0.0749999687499923,
          "durationTicks": 21,
          "midi": 50,
          "name": "D3",
          "ticks": 24144,
          "time": 86.2285355,
          "velocity": 0.669291338582677
        },
        {
          "duration": 0.0749999687499923,
          "durationTicks": 21,
          "midi": 41,
          "name": "F2",
          "ticks": 24192,
          "time": 86.399964,
          "velocity": 0.669291338582677
        },
        {
          "duration": 0.0749999687499923,
          "durationTicks": 21,
          "midi": 36,
          "name": "C2",
          "ticks": 24192,
          "time": 86.399964,
          "velocity": 0.669291338582677
        },
        {
          "duration": 0.0749999687500065,
          "durationTicks": 21,
          "midi": 41,
          "name": "F2",
          "ticks": 24240,
          "time": 86.5713925,
          "velocity": 0.669291338582677
        },
        {
          "duration": 0.0749999687500065,
          "durationTicks": 21,
          "midi": 50,
          "name": "D3",
          "ticks": 24240,
          "time": 86.5713925,
          "velocity": 0.669291338582677
        },
        {
          "duration": 0.0749999687500065,
          "durationTicks": 21,
          "midi": 41,
          "name": "F2",
          "ticks": 24288,
          "time": 86.742821,
          "velocity": 0.669291338582677
        },
        {
          "duration": 0.0749999687500065,
          "durationTicks": 21,
          "midi": 38,
          "name": "D2",
          "ticks": 24288,
          "time": 86.742821,
          "velocity": 0.669291338582677
        },
        {
          "duration": 0.0749999687499923,
          "durationTicks": 21,
          "midi": 41,
          "name": "F2",
          "ticks": 24336,
          "time": 86.9142495,
          "velocity": 0.669291338582677
        },
        {
          "duration": 0.0749999687499923,
          "durationTicks": 21,
          "midi": 50,
          "name": "D3",
          "ticks": 24336,
          "time": 86.9142495,
          "velocity": 0.669291338582677
        },
        {
          "duration": 0.0749999687500065,
          "durationTicks": 21,
          "midi": 41,
          "name": "F2",
          "ticks": 24384,
          "time": 87.085678,
          "velocity": 0.669291338582677
        },
        {
          "duration": 0.0749999687500065,
          "durationTicks": 21,
          "midi": 36,
          "name": "C2",
          "ticks": 24384,
          "time": 87.085678,
          "velocity": 0.669291338582677
        },
        {
          "duration": 0.0749999687499923,
          "durationTicks": 21,
          "midi": 41,
          "name": "F2",
          "ticks": 24408,
          "time": 87.17139225,
          "velocity": 0.669291338582677
        },
        {
          "duration": 0.0749999687500065,
          "durationTicks": 21,
          "midi": 41,
          "name": "F2",
          "ticks": 24432,
          "time": 87.2571065,
          "velocity": 0.669291338582677
        },
        {
          "duration": 0.0749999687500065,
          "durationTicks": 21,
          "midi": 50,
          "name": "D3",
          "ticks": 24432,
          "time": 87.2571065,
          "velocity": 0.669291338582677
        },
        {
          "duration": 0.0749999687500065,
          "durationTicks": 21,
          "midi": 41,
          "name": "F2",
          "ticks": 24456,
          "time": 87.34282075,
          "velocity": 0.669291338582677
        },
        {
          "duration": 0.0749999687499923,
          "durationTicks": 21,
          "midi": 41,
          "name": "F2",
          "ticks": 24480,
          "time": 87.428535,
          "velocity": 0.669291338582677
        },
        {
          "duration": 0.0749999687499923,
          "durationTicks": 21,
          "midi": 38,
          "name": "D2",
          "ticks": 24480,
          "time": 87.428535,
          "velocity": 0.669291338582677
        },
        {
          "duration": 0.0749999687500065,
          "durationTicks": 21,
          "midi": 41,
          "name": "F2",
          "ticks": 24504,
          "time": 87.51424925,
          "velocity": 0.669291338582677
        },
        {
          "duration": 0.0749999687500065,
          "durationTicks": 21,
          "midi": 41,
          "name": "F2",
          "ticks": 24528,
          "time": 87.5999635,
          "velocity": 0.669291338582677
        },
        {
          "duration": 0.0749999687500065,
          "durationTicks": 21,
          "midi": 50,
          "name": "D3",
          "ticks": 24528,
          "time": 87.5999635,
          "velocity": 0.669291338582677
        },
        {
          "duration": 0.0749999687499923,
          "durationTicks": 21,
          "midi": 41,
          "name": "F2",
          "ticks": 24552,
          "time": 87.68567775,
          "velocity": 0.669291338582677
        },
        {
          "duration": 0.0749999687500065,
          "durationTicks": 21,
          "midi": 49,
          "name": "C#3",
          "ticks": 24576,
          "time": 87.771392,
          "velocity": 0.362204724409449
        },
        {
          "duration": 0.0749999687500065,
          "durationTicks": 21,
          "midi": 36,
          "name": "C2",
          "ticks": 24576,
          "time": 87.771392,
          "velocity": 0.669291338582677
        },
        {
          "duration": 0.0749999687499923,
          "durationTicks": 21,
          "midi": 50,
          "name": "D3",
          "ticks": 24624,
          "time": 87.9428205,
          "velocity": 0.669291338582677
        },
        {
          "duration": 0.0749999687500065,
          "durationTicks": 21,
          "midi": 38,
          "name": "D2",
          "ticks": 24672,
          "time": 88.114249,
          "velocity": 0.669291338582677
        },
        {
          "duration": 0.0749999687500065,
          "durationTicks": 21,
          "midi": 50,
          "name": "D3",
          "ticks": 24720,
          "time": 88.2856775,
          "velocity": 0.669291338582677
        },
        {
          "duration": 0.0749999687499923,
          "durationTicks": 21,
          "midi": 36,
          "name": "C2",
          "ticks": 24768,
          "time": 88.457106,
          "velocity": 0.669291338582677
        },
        {
          "duration": 0.0749999687500065,
          "durationTicks": 21,
          "midi": 50,
          "name": "D3",
          "ticks": 24816,
          "time": 88.6285345,
          "velocity": 0.669291338582677
        },
        {
          "duration": 0.0749999687500065,
          "durationTicks": 21,
          "midi": 38,
          "name": "D2",
          "ticks": 24864,
          "time": 88.799963,
          "velocity": 0.669291338582677
        },
        {
          "duration": 0.0749999687499923,
          "durationTicks": 21,
          "midi": 50,
          "name": "D3",
          "ticks": 24912,
          "time": 88.9713915,
          "velocity": 0.669291338582677
        },
        {
          "duration": 0.0749999687500065,
          "durationTicks": 21,
          "midi": 36,
          "name": "C2",
          "ticks": 24960,
          "time": 89.14282,
          "velocity": 0.669291338582677
        },
        {
          "duration": 0.0749999687500065,
          "durationTicks": 21,
          "midi": 50,
          "name": "D3",
          "ticks": 25008,
          "time": 89.3142485,
          "velocity": 0.669291338582677
        },
        {
          "duration": 0.0749999687499923,
          "durationTicks": 21,
          "midi": 38,
          "name": "D2",
          "ticks": 25056,
          "time": 89.485677,
          "velocity": 0.669291338582677
        },
        {
          "duration": 0.0749999687500065,
          "durationTicks": 21,
          "midi": 50,
          "name": "D3",
          "ticks": 25104,
          "time": 89.6571055,
          "velocity": 0.669291338582677
        },
        {
          "duration": 0.0749999687500065,
          "durationTicks": 21,
          "midi": 36,
          "name": "C2",
          "ticks": 25152,
          "time": 89.828534,
          "velocity": 0.669291338582677
        },
        {
          "duration": 0.0749999687499923,
          "durationTicks": 21,
          "midi": 50,
          "name": "D3",
          "ticks": 25200,
          "time": 89.9999625,
          "velocity": 0.669291338582677
        },
        {
          "duration": 0.0749999687500065,
          "durationTicks": 21,
          "midi": 38,
          "name": "D2",
          "ticks": 25248,
          "time": 90.171391,
          "velocity": 0.669291338582677
        },
        {
          "duration": 0.0749999687500065,
          "durationTicks": 21,
          "midi": 50,
          "name": "D3",
          "ticks": 25296,
          "time": 90.3428195,
          "velocity": 0.669291338582677
        },
        {
          "duration": 0.0749999687499923,
          "durationTicks": 21,
          "midi": 36,
          "name": "C2",
          "ticks": 25344,
          "time": 90.514248,
          "velocity": 0.669291338582677
        },
        {
          "duration": 0.0749999687500065,
          "durationTicks": 21,
          "midi": 50,
          "name": "D3",
          "ticks": 25392,
          "time": 90.6856765,
          "velocity": 0.669291338582677
        },
        {
          "duration": 0.0749999687500065,
          "durationTicks": 21,
          "midi": 38,
          "name": "D2",
          "ticks": 25440,
          "time": 90.857105,
          "velocity": 0.669291338582677
        },
        {
          "duration": 0.0749999687499923,
          "durationTicks": 21,
          "midi": 50,
          "name": "D3",
          "ticks": 25488,
          "time": 91.0285335,
          "velocity": 0.669291338582677
        },
        {
          "duration": 0.0749999687500065,
          "durationTicks": 21,
          "midi": 36,
          "name": "C2",
          "ticks": 25536,
          "time": 91.199962,
          "velocity": 0.669291338582677
        },
        {
          "duration": 0.0749999687500065,
          "durationTicks": 21,
          "midi": 50,
          "name": "D3",
          "ticks": 25584,
          "time": 91.3713905,
          "velocity": 0.669291338582677
        },
        {
          "duration": 0.0749999687499923,
          "durationTicks": 21,
          "midi": 38,
          "name": "D2",
          "ticks": 25632,
          "time": 91.542819,
          "velocity": 0.669291338582677
        },
        {
          "duration": 0.0749999687500065,
          "durationTicks": 21,
          "midi": 50,
          "name": "D3",
          "ticks": 25680,
          "time": 91.7142475,
          "velocity": 0.669291338582677
        },
        {
          "duration": 0.0749999687500065,
          "durationTicks": 21,
          "midi": 41,
          "name": "F2",
          "ticks": 25728,
          "time": 91.885676,
          "velocity": 0.669291338582677
        },
        {
          "duration": 0.0749999687500065,
          "durationTicks": 21,
          "midi": 36,
          "name": "C2",
          "ticks": 25728,
          "time": 91.885676,
          "velocity": 0.669291338582677
        },
        {
          "duration": 0.0749999687499923,
          "durationTicks": 21,
          "midi": 41,
          "name": "F2",
          "ticks": 25776,
          "time": 92.0571045,
          "velocity": 0.669291338582677
        },
        {
          "duration": 0.0749999687499923,
          "durationTicks": 21,
          "midi": 50,
          "name": "D3",
          "ticks": 25776,
          "time": 92.0571045,
          "velocity": 0.669291338582677
        },
        {
          "duration": 0.0749999687499923,
          "durationTicks": 21,
          "midi": 41,
          "name": "F2",
          "ticks": 25824,
          "time": 92.228533,
          "velocity": 0.669291338582677
        },
        {
          "duration": 0.0749999687499923,
          "durationTicks": 21,
          "midi": 38,
          "name": "D2",
          "ticks": 25824,
          "time": 92.228533,
          "velocity": 0.669291338582677
        },
        {
          "duration": 0.0749999687500065,
          "durationTicks": 21,
          "midi": 41,
          "name": "F2",
          "ticks": 25872,
          "time": 92.3999615,
          "velocity": 0.669291338582677
        },
        {
          "duration": 0.0749999687500065,
          "durationTicks": 21,
          "midi": 50,
          "name": "D3",
          "ticks": 25872,
          "time": 92.3999615,
          "velocity": 0.669291338582677
        },
        {
          "duration": 0.0749999687499923,
          "durationTicks": 21,
          "midi": 41,
          "name": "F2",
          "ticks": 25920,
          "time": 92.57139,
          "velocity": 0.669291338582677
        },
        {
          "duration": 0.0749999687499923,
          "durationTicks": 21,
          "midi": 36,
          "name": "C2",
          "ticks": 25920,
          "time": 92.57139,
          "velocity": 0.669291338582677
        },
        {
          "duration": 0.0749999687500065,
          "durationTicks": 21,
          "midi": 41,
          "name": "F2",
          "ticks": 25944,
          "time": 92.65710425,
          "velocity": 0.669291338582677
        },
        {
          "duration": 0.0749999687499923,
          "durationTicks": 21,
          "midi": 41,
          "name": "F2",
          "ticks": 25968,
          "time": 92.7428185,
          "velocity": 0.669291338582677
        },
        {
          "duration": 0.0749999687499923,
          "durationTicks": 21,
          "midi": 50,
          "name": "D3",
          "ticks": 25968,
          "time": 92.7428185,
          "velocity": 0.669291338582677
        },
        {
          "duration": 0.0749999687499923,
          "durationTicks": 21,
          "midi": 41,
          "name": "F2",
          "ticks": 25992,
          "time": 92.82853275,
          "velocity": 0.669291338582677
        },
        {
          "duration": 0.0749999687500065,
          "durationTicks": 21,
          "midi": 41,
          "name": "F2",
          "ticks": 26016,
          "time": 92.914247,
          "velocity": 0.669291338582677
        },
        {
          "duration": 0.0749999687500065,
          "durationTicks": 21,
          "midi": 38,
          "name": "D2",
          "ticks": 26016,
          "time": 92.914247,
          "velocity": 0.669291338582677
        },
        {
          "duration": 0.0749999687499923,
          "durationTicks": 21,
          "midi": 41,
          "name": "F2",
          "ticks": 26040,
          "time": 92.99996125,
          "velocity": 0.669291338582677
        },
        {
          "duration": 0.0749999687499923,
          "durationTicks": 21,
          "midi": 41,
          "name": "F2",
          "ticks": 26064,
          "time": 93.0856755,
          "velocity": 0.669291338582677
        },
        {
          "duration": 0.0749999687499923,
          "durationTicks": 21,
          "midi": 50,
          "name": "D3",
          "ticks": 26064,
          "time": 93.0856755,
          "velocity": 0.669291338582677
        },
        {
          "duration": 0.0749999687500065,
          "durationTicks": 21,
          "midi": 41,
          "name": "F2",
          "ticks": 26088,
          "time": 93.17138975,
          "velocity": 0.669291338582677
        },
        {
          "duration": 0.0749999687499923,
          "durationTicks": 21,
          "midi": 49,
          "name": "C#3",
          "ticks": 26112,
          "time": 93.257104,
          "velocity": 0.362204724409449
        },
        {
          "duration": 0.0749999687499923,
          "durationTicks": 21,
          "midi": 36,
          "name": "C2",
          "ticks": 26112,
          "time": 93.257104,
          "velocity": 0.669291338582677
        },
        {
          "duration": 0.0749999687500065,
          "durationTicks": 21,
          "midi": 50,
          "name": "D3",
          "ticks": 26160,
          "time": 93.4285325,
          "velocity": 0.669291338582677
        },
        {
          "duration": 0.0749999687499923,
          "durationTicks": 21,
          "midi": 38,
          "name": "D2",
          "ticks": 26208,
          "time": 93.599961,
          "velocity": 0.669291338582677
        },
        {
          "duration": 0.0749999687499923,
          "durationTicks": 21,
          "midi": 50,
          "name": "D3",
          "ticks": 26256,
          "time": 93.7713895,
          "velocity": 0.669291338582677
        },
        {
          "duration": 0.0749999687500065,
          "durationTicks": 21,
          "midi": 36,
          "name": "C2",
          "ticks": 26304,
          "time": 93.942818,
          "velocity": 0.669291338582677
        },
        {
          "duration": 0.0749999687499923,
          "durationTicks": 21,
          "midi": 50,
          "name": "D3",
          "ticks": 26352,
          "time": 94.1142465,
          "velocity": 0.669291338582677
        },
        {
          "duration": 0.0749999687499923,
          "durationTicks": 21,
          "midi": 38,
          "name": "D2",
          "ticks": 26400,
          "time": 94.285675,
          "velocity": 0.669291338582677
        },
        {
          "duration": 0.0749999687500065,
          "durationTicks": 21,
          "midi": 50,
          "name": "D3",
          "ticks": 26448,
          "time": 94.4571035,
          "velocity": 0.669291338582677
        },
        {
          "duration": 0.0749999687499923,
          "durationTicks": 21,
          "midi": 36,
          "name": "C2",
          "ticks": 26496,
          "time": 94.628532,
          "velocity": 0.669291338582677
        },
        {
          "duration": 0.0749999687499923,
          "durationTicks": 21,
          "midi": 50,
          "name": "D3",
          "ticks": 26544,
          "time": 94.7999605,
          "velocity": 0.669291338582677
        },
        {
          "duration": 0.0749999687500065,
          "durationTicks": 21,
          "midi": 38,
          "name": "D2",
          "ticks": 26592,
          "time": 94.971389,
          "velocity": 0.669291338582677
        },
        {
          "duration": 0.0749999687500065,
          "durationTicks": 21,
          "midi": 50,
          "name": "D3",
          "ticks": 26640,
          "time": 95.1428175,
          "velocity": 0.669291338582677
        },
        {
          "duration": 0.0749999687499923,
          "durationTicks": 21,
          "midi": 36,
          "name": "C2",
          "ticks": 26688,
          "time": 95.314246,
          "velocity": 0.669291338582677
        },
        {
          "duration": 0.0749999687500065,
          "durationTicks": 21,
          "midi": 50,
          "name": "D3",
          "ticks": 26736,
          "time": 95.4856745,
          "velocity": 0.669291338582677
        },
        {
          "duration": 0.0749999687500065,
          "durationTicks": 21,
          "midi": 38,
          "name": "D2",
          "ticks": 26784,
          "time": 95.657103,
          "velocity": 0.669291338582677
        },
        {
          "duration": 0.0749999687499923,
          "durationTicks": 21,
          "midi": 50,
          "name": "D3",
          "ticks": 26832,
          "time": 95.8285315,
          "velocity": 0.669291338582677
        },
        {
          "duration": 0.0749999687500065,
          "durationTicks": 21,
          "midi": 49,
          "name": "C#3",
          "ticks": 26880,
          "time": 95.99996,
          "velocity": 0.362204724409449
        },
        {
          "duration": 0.0749999687500065,
          "durationTicks": 21,
          "midi": 49,
          "name": "C#3",
          "ticks": 26880,
          "time": 95.99996,
          "velocity": 0.362204724409449
        },
        {
          "duration": 0.0749999687500065,
          "durationTicks": 21,
          "midi": 49,
          "name": "C#3",
          "ticks": 27072,
          "time": 96.685674,
          "velocity": 0.362204724409449
        },
        {
          "duration": 0.0749999687499923,
          "durationTicks": 21,
          "midi": 49,
          "name": "C#3",
          "ticks": 27264,
          "time": 97.371388,
          "velocity": 0.362204724409449
        },
        {
          "duration": 0.0749999687500065,
          "durationTicks": 21,
          "midi": 49,
          "name": "C#3",
          "ticks": 27648,
          "time": 98.742816,
          "velocity": 0.362204724409449
        },
        {
          "duration": 0.0749999687500065,
          "durationTicks": 21,
          "midi": 36,
          "name": "C2",
          "ticks": 27648,
          "time": 98.742816,
          "velocity": 0.669291338582677
        },
        {
          "duration": 0.0749999687499923,
          "durationTicks": 21,
          "midi": 50,
          "name": "D3",
          "ticks": 27696,
          "time": 98.9142445,
          "velocity": 0.669291338582677
        },
        {
          "duration": 0.0749999687500065,
          "durationTicks": 21,
          "midi": 38,
          "name": "D2",
          "ticks": 27744,
          "time": 99.085673,
          "velocity": 0.669291338582677
        },
        {
          "duration": 0.0749999687500065,
          "durationTicks": 21,
          "midi": 50,
          "name": "D3",
          "ticks": 27792,
          "time": 99.2571015,
          "velocity": 0.669291338582677
        },
        {
          "duration": 0.0749999687499923,
          "durationTicks": 21,
          "midi": 36,
          "name": "C2",
          "ticks": 27840,
          "time": 99.42853,
          "velocity": 0.669291338582677
        },
        {
          "duration": 0.0749999687500065,
          "durationTicks": 21,
          "midi": 50,
          "name": "D3",
          "ticks": 27888,
          "time": 99.5999585,
          "velocity": 0.669291338582677
        },
        {
          "duration": 0.0749999687500065,
          "durationTicks": 21,
          "midi": 38,
          "name": "D2",
          "ticks": 27936,
          "time": 99.771387,
          "velocity": 0.669291338582677
        },
        {
          "duration": 0.0749999687499923,
          "durationTicks": 21,
          "midi": 50,
          "name": "D3",
          "ticks": 27984,
          "time": 99.9428155,
          "velocity": 0.669291338582677
        },
        {
          "duration": 0.0749999687499923,
          "durationTicks": 21,
          "midi": 36,
          "name": "C2",
          "ticks": 28032,
          "time": 100.114244,
          "velocity": 0.669291338582677
        },
        {
          "duration": 0.0749999687500065,
          "durationTicks": 21,
          "midi": 50,
          "name": "D3",
          "ticks": 28080,
          "time": 100.2856725,
          "velocity": 0.669291338582677
        },
        {
          "duration": 0.0749999687499923,
          "durationTicks": 21,
          "midi": 38,
          "name": "D2",
          "ticks": 28128,
          "time": 100.457101,
          "velocity": 0.669291338582677
        },
        {
          "duration": 0.0749999687499923,
          "durationTicks": 21,
          "midi": 50,
          "name": "D3",
          "ticks": 28176,
          "time": 100.6285295,
          "velocity": 0.669291338582677
        },
        {
          "duration": 0.0749999687500065,
          "durationTicks": 21,
          "midi": 36,
          "name": "C2",
          "ticks": 28224,
          "time": 100.799958,
          "velocity": 0.669291338582677
        },
        {
          "duration": 0.0749999687499923,
          "durationTicks": 21,
          "midi": 50,
          "name": "D3",
          "ticks": 28272,
          "time": 100.9713865,
          "velocity": 0.669291338582677
        },
        {
          "duration": 0.0749999687499923,
          "durationTicks": 21,
          "midi": 38,
          "name": "D2",
          "ticks": 28320,
          "time": 101.142815,
          "velocity": 0.669291338582677
        },
        {
          "duration": 0.0749999687500065,
          "durationTicks": 21,
          "midi": 50,
          "name": "D3",
          "ticks": 28368,
          "time": 101.3142435,
          "velocity": 0.669291338582677
        },
        {
          "duration": 0.0749999687499923,
          "durationTicks": 21,
          "midi": 36,
          "name": "C2",
          "ticks": 28416,
          "time": 101.485672,
          "velocity": 0.669291338582677
        },
        {
          "duration": 0.0749999687499923,
          "durationTicks": 21,
          "midi": 50,
          "name": "D3",
          "ticks": 28464,
          "time": 101.6571005,
          "velocity": 0.669291338582677
        },
        {
          "duration": 0.0749999687500065,
          "durationTicks": 21,
          "midi": 38,
          "name": "D2",
          "ticks": 28512,
          "time": 101.828529,
          "velocity": 0.669291338582677
        },
        {
          "duration": 0.0749999687499923,
          "durationTicks": 21,
          "midi": 50,
          "name": "D3",
          "ticks": 28560,
          "time": 101.9999575,
          "velocity": 0.669291338582677
        },
        {
          "duration": 0.0749999687499923,
          "durationTicks": 21,
          "midi": 36,
          "name": "C2",
          "ticks": 28608,
          "time": 102.171386,
          "velocity": 0.669291338582677
        },
        {
          "duration": 0.0749999687500065,
          "durationTicks": 21,
          "midi": 50,
          "name": "D3",
          "ticks": 28656,
          "time": 102.3428145,
          "velocity": 0.669291338582677
        },
        {
          "duration": 0.0749999687499923,
          "durationTicks": 21,
          "midi": 38,
          "name": "D2",
          "ticks": 28704,
          "time": 102.514243,
          "velocity": 0.669291338582677
        },
        {
          "duration": 0.0749999687499923,
          "durationTicks": 21,
          "midi": 50,
          "name": "D3",
          "ticks": 28752,
          "time": 102.6856715,
          "velocity": 0.669291338582677
        },
        {
          "duration": 0.0749999687500065,
          "durationTicks": 21,
          "midi": 36,
          "name": "C2",
          "ticks": 28800,
          "time": 102.8571,
          "velocity": 0.669291338582677
        },
        {
          "duration": 0.0749999687500065,
          "durationTicks": 21,
          "midi": 41,
          "name": "F2",
          "ticks": 28800,
          "time": 102.8571,
          "velocity": 0.669291338582677
        },
        {
          "duration": 0.0749999687500065,
          "durationTicks": 21,
          "midi": 50,
          "name": "D3",
          "ticks": 28848,
          "time": 103.0285285,
          "velocity": 0.669291338582677
        },
        {
          "duration": 0.0749999687500065,
          "durationTicks": 21,
          "midi": 41,
          "name": "F2",
          "ticks": 28848,
          "time": 103.0285285,
          "velocity": 0.669291338582677
        },
        {
          "duration": 0.0749999687499923,
          "durationTicks": 21,
          "midi": 38,
          "name": "D2",
          "ticks": 28896,
          "time": 103.199957,
          "velocity": 0.669291338582677
        },
        {
          "duration": 0.0749999687499923,
          "durationTicks": 21,
          "midi": 41,
          "name": "F2",
          "ticks": 28896,
          "time": 103.199957,
          "velocity": 0.669291338582677
        },
        {
          "duration": 0.0749999687500065,
          "durationTicks": 21,
          "midi": 50,
          "name": "D3",
          "ticks": 28944,
          "time": 103.3713855,
          "velocity": 0.669291338582677
        },
        {
          "duration": 0.0749999687500065,
          "durationTicks": 21,
          "midi": 41,
          "name": "F2",
          "ticks": 28944,
          "time": 103.3713855,
          "velocity": 0.669291338582677
        },
        {
          "duration": 0.0749999687500065,
          "durationTicks": 21,
          "midi": 36,
          "name": "C2",
          "ticks": 28992,
          "time": 103.542814,
          "velocity": 0.669291338582677
        },
        {
          "duration": 0.0749999687500065,
          "durationTicks": 21,
          "midi": 41,
          "name": "F2",
          "ticks": 28992,
          "time": 103.542814,
          "velocity": 0.669291338582677
        },
        {
          "duration": 0.0749999687500065,
          "durationTicks": 21,
          "midi": 41,
          "name": "F2",
          "ticks": 29016,
          "time": 103.62852825,
          "velocity": 0.669291338582677
        },
        {
          "duration": 0.0749999687499923,
          "durationTicks": 21,
          "midi": 50,
          "name": "D3",
          "ticks": 29040,
          "time": 103.7142425,
          "velocity": 0.669291338582677
        },
        {
          "duration": 0.0749999687499923,
          "durationTicks": 21,
          "midi": 41,
          "name": "F2",
          "ticks": 29040,
          "time": 103.7142425,
          "velocity": 0.669291338582677
        },
        {
          "duration": 0.0749999687500065,
          "durationTicks": 21,
          "midi": 41,
          "name": "F2",
          "ticks": 29064,
          "time": 103.79995675,
          "velocity": 0.669291338582677
        },
        {
          "duration": 0.0749999687500065,
          "durationTicks": 21,
          "midi": 38,
          "name": "D2",
          "ticks": 29088,
          "time": 103.885671,
          "velocity": 0.669291338582677
        },
        {
          "duration": 0.0749999687500065,
          "durationTicks": 21,
          "midi": 41,
          "name": "F2",
          "ticks": 29088,
          "time": 103.885671,
          "velocity": 0.669291338582677
        },
        {
          "duration": 0.0749999687499923,
          "durationTicks": 21,
          "midi": 41,
          "name": "F2",
          "ticks": 29112,
          "time": 103.97138525,
          "velocity": 0.669291338582677
        },
        {
          "duration": 0.0749999687500065,
          "durationTicks": 21,
          "midi": 50,
          "name": "D3",
          "ticks": 29136,
          "time": 104.0570995,
          "velocity": 0.669291338582677
        },
        {
          "duration": 0.0749999687500065,
          "durationTicks": 21,
          "midi": 41,
          "name": "F2",
          "ticks": 29136,
          "time": 104.0570995,
          "velocity": 0.669291338582677
        },
        {
          "duration": 0.0749999687500065,
          "durationTicks": 21,
          "midi": 41,
          "name": "F2",
          "ticks": 29160,
          "time": 104.14281375,
          "velocity": 0.669291338582677
        },
        {
          "duration": 0.0749999687499923,
          "durationTicks": 21,
          "midi": 49,
          "name": "C#3",
          "ticks": 29184,
          "time": 104.228528,
          "velocity": 0.362204724409449
        },
        {
          "duration": 0.0749999687499923,
          "durationTicks": 21,
          "midi": 36,
          "name": "C2",
          "ticks": 29184,
          "time": 104.228528,
          "velocity": 0.669291338582677
        },
        {
          "duration": 0.0749999687500065,
          "durationTicks": 21,
          "midi": 50,
          "name": "D3",
          "ticks": 29232,
          "time": 104.3999565,
          "velocity": 0.669291338582677
        },
        {
          "duration": 0.0749999687500065,
          "durationTicks": 21,
          "midi": 38,
          "name": "D2",
          "ticks": 29280,
          "time": 104.571385,
          "velocity": 0.669291338582677
        },
        {
          "duration": 0.0749999687499923,
          "durationTicks": 21,
          "midi": 50,
          "name": "D3",
          "ticks": 29328,
          "time": 104.7428135,
          "velocity": 0.669291338582677
        },
        {
          "duration": 0.0749999687500065,
          "durationTicks": 21,
          "midi": 36,
          "name": "C2",
          "ticks": 29376,
          "time": 104.914242,
          "velocity": 0.669291338582677
        },
        {
          "duration": 0.0749999687500065,
          "durationTicks": 21,
          "midi": 50,
          "name": "D3",
          "ticks": 29424,
          "time": 105.0856705,
          "velocity": 0.669291338582677
        },
        {
          "duration": 0.0749999687499923,
          "durationTicks": 21,
          "midi": 38,
          "name": "D2",
          "ticks": 29472,
          "time": 105.257099,
          "velocity": 0.669291338582677
        },
        {
          "duration": 0.0749999687500065,
          "durationTicks": 21,
          "midi": 50,
          "name": "D3",
          "ticks": 29520,
          "time": 105.4285275,
          "velocity": 0.669291338582677
        },
        {
          "duration": 0.0749999687500065,
          "durationTicks": 21,
          "midi": 36,
          "name": "C2",
          "ticks": 29568,
          "time": 105.599956,
          "velocity": 0.669291338582677
        },
        {
          "duration": 0.0749999687499923,
          "durationTicks": 21,
          "midi": 50,
          "name": "D3",
          "ticks": 29616,
          "time": 105.7713845,
          "velocity": 0.669291338582677
        },
        {
          "duration": 0.0749999687500065,
          "durationTicks": 21,
          "midi": 38,
          "name": "D2",
          "ticks": 29664,
          "time": 105.942813,
          "velocity": 0.669291338582677
        },
        {
          "duration": 0.0749999687500065,
          "durationTicks": 21,
          "midi": 50,
          "name": "D3",
          "ticks": 29712,
          "time": 106.1142415,
          "velocity": 0.669291338582677
        },
        {
          "duration": 0.0749999687499923,
          "durationTicks": 21,
          "midi": 36,
          "name": "C2",
          "ticks": 29760,
          "time": 106.28567,
          "velocity": 0.669291338582677
        },
        {
          "duration": 0.0749999687500065,
          "durationTicks": 21,
          "midi": 50,
          "name": "D3",
          "ticks": 29808,
          "time": 106.4570985,
          "velocity": 0.669291338582677
        },
        {
          "duration": 0.0749999687500065,
          "durationTicks": 21,
          "midi": 38,
          "name": "D2",
          "ticks": 29856,
          "time": 106.628527,
          "velocity": 0.669291338582677
        },
        {
          "duration": 0.0749999687499923,
          "durationTicks": 21,
          "midi": 50,
          "name": "D3",
          "ticks": 29904,
          "time": 106.7999555,
          "velocity": 0.669291338582677
        },
        {
          "duration": 0.0749999687500065,
          "durationTicks": 21,
          "midi": 36,
          "name": "C2",
          "ticks": 29952,
          "time": 106.971384,
          "velocity": 0.669291338582677
        },
        {
          "duration": 0.0749999687500065,
          "durationTicks": 21,
          "midi": 50,
          "name": "D3",
          "ticks": 30000,
          "time": 107.1428125,
          "velocity": 0.669291338582677
        },
        {
          "duration": 0.0749999687499923,
          "durationTicks": 21,
          "midi": 38,
          "name": "D2",
          "ticks": 30048,
          "time": 107.314241,
          "velocity": 0.669291338582677
        },
        {
          "duration": 0.0749999687500065,
          "durationTicks": 21,
          "midi": 50,
          "name": "D3",
          "ticks": 30096,
          "time": 107.4856695,
          "velocity": 0.669291338582677
        },
        {
          "duration": 0.0749999687500065,
          "durationTicks": 21,
          "midi": 36,
          "name": "C2",
          "ticks": 30144,
          "time": 107.657098,
          "velocity": 0.669291338582677
        },
        {
          "duration": 0.0749999687499923,
          "durationTicks": 21,
          "midi": 50,
          "name": "D3",
          "ticks": 30192,
          "time": 107.8285265,
          "velocity": 0.669291338582677
        },
        {
          "duration": 0.0749999687499923,
          "durationTicks": 21,
          "midi": 38,
          "name": "D2",
          "ticks": 30240,
          "time": 107.999955,
          "velocity": 0.669291338582677
        },
        {
          "duration": 0.0749999687500065,
          "durationTicks": 21,
          "midi": 50,
          "name": "D3",
          "ticks": 30288,
          "time": 108.1713835,
          "velocity": 0.669291338582677
        },
        {
          "duration": 0.0749999687499923,
          "durationTicks": 21,
          "midi": 36,
          "name": "C2",
          "ticks": 30336,
          "time": 108.342812,
          "velocity": 0.669291338582677
        },
        {
          "duration": 0.0749999687499923,
          "durationTicks": 21,
          "midi": 41,
          "name": "F2",
          "ticks": 30336,
          "time": 108.342812,
          "velocity": 0.669291338582677
        },
        {
          "duration": 0.0749999687499923,
          "durationTicks": 21,
          "midi": 50,
          "name": "D3",
          "ticks": 30384,
          "time": 108.5142405,
          "velocity": 0.669291338582677
        },
        {
          "duration": 0.0749999687499923,
          "durationTicks": 21,
          "midi": 41,
          "name": "F2",
          "ticks": 30384,
          "time": 108.5142405,
          "velocity": 0.669291338582677
        },
        {
          "duration": 0.0749999687500065,
          "durationTicks": 21,
          "midi": 38,
          "name": "D2",
          "ticks": 30432,
          "time": 108.685669,
          "velocity": 0.669291338582677
        },
        {
          "duration": 0.0749999687500065,
          "durationTicks": 21,
          "midi": 41,
          "name": "F2",
          "ticks": 30432,
          "time": 108.685669,
          "velocity": 0.669291338582677
        },
        {
          "duration": 0.0749999687499923,
          "durationTicks": 21,
          "midi": 50,
          "name": "D3",
          "ticks": 30480,
          "time": 108.8570975,
          "velocity": 0.669291338582677
        },
        {
          "duration": 0.0749999687499923,
          "durationTicks": 21,
          "midi": 41,
          "name": "F2",
          "ticks": 30480,
          "time": 108.8570975,
          "velocity": 0.669291338582677
        },
        {
          "duration": 0.160714218749987,
          "durationTicks": 45,
          "midi": 63,
          "name": "D#4",
          "ticks": 30528,
          "time": 109.028526,
          "velocity": 0.818897637795276
        },
        {
          "duration": 0.0749999687499923,
          "durationTicks": 21,
          "midi": 36,
          "name": "C2",
          "ticks": 30528,
          "time": 109.028526,
          "velocity": 0.669291338582677
        },
        {
          "duration": 0.0749999687499923,
          "durationTicks": 21,
          "midi": 41,
          "name": "F2",
          "ticks": 30528,
          "time": 109.028526,
          "velocity": 0.669291338582677
        },
        {
          "duration": 0.0749999687499923,
          "durationTicks": 21,
          "midi": 41,
          "name": "F2",
          "ticks": 30552,
          "time": 109.11424025,
          "velocity": 0.669291338582677
        },
        {
          "duration": 0.503571218749997,
          "durationTicks": 141,
          "midi": 63,
          "name": "D#4",
          "ticks": 30576,
          "time": 109.1999545,
          "velocity": 0.818897637795276
        },
        {
          "duration": 0.0749999687500065,
          "durationTicks": 21,
          "midi": 50,
          "name": "D3",
          "ticks": 30576,
          "time": 109.1999545,
          "velocity": 0.669291338582677
        },
        {
          "duration": 0.0749999687500065,
          "durationTicks": 21,
          "midi": 41,
          "name": "F2",
          "ticks": 30576,
          "time": 109.1999545,
          "velocity": 0.669291338582677
        },
        {
          "duration": 0.0749999687499923,
          "durationTicks": 21,
          "midi": 41,
          "name": "F2",
          "ticks": 30600,
          "time": 109.28566875,
          "velocity": 0.669291338582677
        },
        {
          "duration": 0.0749999687499923,
          "durationTicks": 21,
          "midi": 38,
          "name": "D2",
          "ticks": 30624,
          "time": 109.371383,
          "velocity": 0.669291338582677
        },
        {
          "duration": 0.0749999687499923,
          "durationTicks": 21,
          "midi": 41,
          "name": "F2",
          "ticks": 30624,
          "time": 109.371383,
          "velocity": 0.669291338582677
        },
        {
          "duration": 0.0749999687500065,
          "durationTicks": 21,
          "midi": 41,
          "name": "F2",
          "ticks": 30648,
          "time": 109.45709725,
          "velocity": 0.669291338582677
        },
        {
          "duration": 0.0749999687499923,
          "durationTicks": 21,
          "midi": 50,
          "name": "D3",
          "ticks": 30672,
          "time": 109.5428115,
          "velocity": 0.669291338582677
        },
        {
          "duration": 0.0749999687499923,
          "durationTicks": 21,
          "midi": 41,
          "name": "F2",
          "ticks": 30672,
          "time": 109.5428115,
          "velocity": 0.669291338582677
        },
        {
          "duration": 0.0749999687499923,
          "durationTicks": 21,
          "midi": 41,
          "name": "F2",
          "ticks": 30696,
          "time": 109.62852575,
          "velocity": 0.669291338582677
        },
        {
          "duration": 0.160714218750002,
          "durationTicks": 45,
          "midi": 63,
          "name": "D#4",
          "ticks": 30720,
          "time": 109.71424,
          "velocity": 0.818897637795276
        },
        {
          "duration": 0.0749999687500065,
          "durationTicks": 21,
          "midi": 49,
          "name": "C#3",
          "ticks": 30720,
          "time": 109.71424,
          "velocity": 0.362204724409449
        },
        {
          "duration": 0.0749999687500065,
          "durationTicks": 21,
          "midi": 36,
          "name": "C2",
          "ticks": 30720,
          "time": 109.71424,
          "velocity": 0.669291338582677
        },
        {
          "duration": 0.0749999687499923,
          "durationTicks": 21,
          "midi": 50,
          "name": "D3",
          "ticks": 30768,
          "time": 109.8856685,
          "velocity": 0.669291338582677
        },
        {
          "duration": 0.0749999687499923,
          "durationTicks": 21,
          "midi": 38,
          "name": "D2",
          "ticks": 30816,
          "time": 110.057097,
          "velocity": 0.669291338582677
        },
        {
          "duration": 0.0749999687500065,
          "durationTicks": 21,
          "midi": 50,
          "name": "D3",
          "ticks": 30864,
          "time": 110.2285255,
          "velocity": 0.669291338582677
        },
        {
          "duration": 0.0749999687499923,
          "durationTicks": 21,
          "midi": 36,
          "name": "C2",
          "ticks": 30912,
          "time": 110.399954,
          "velocity": 0.669291338582677
        },
        {
          "duration": 0.0749999687499923,
          "durationTicks": 21,
          "midi": 50,
          "name": "D3",
          "ticks": 30960,
          "time": 110.5713825,
          "velocity": 0.669291338582677
        },
        {
          "duration": 0.0749999687500065,
          "durationTicks": 21,
          "midi": 38,
          "name": "D2",
          "ticks": 31008,
          "time": 110.742811,
          "velocity": 0.669291338582677
        },
        {
          "duration": 0.0749999687500065,
          "durationTicks": 21,
          "midi": 50,
          "name": "D3",
          "ticks": 31056,
          "time": 110.9142395,
          "velocity": 0.669291338582677
        },
        {
          "duration": 0.0749999687499923,
          "durationTicks": 21,
          "midi": 36,
          "name": "C2",
          "ticks": 31104,
          "time": 111.085668,
          "velocity": 0.669291338582677
        },
        {
          "duration": 0.0749999687500065,
          "durationTicks": 21,
          "midi": 50,
          "name": "D3",
          "ticks": 31152,
          "time": 111.2570965,
          "velocity": 0.669291338582677
        },
        {
          "duration": 0.0749999687500065,
          "durationTicks": 21,
          "midi": 38,
          "name": "D2",
          "ticks": 31200,
          "time": 111.428525,
          "velocity": 0.669291338582677
        },
        {
          "duration": 0.0749999687499923,
          "durationTicks": 21,
          "midi": 50,
          "name": "D3",
          "ticks": 31248,
          "time": 111.5999535,
          "velocity": 0.669291338582677
        },
        {
          "duration": 0.0749999687500065,
          "durationTicks": 21,
          "midi": 36,
          "name": "C2",
          "ticks": 31296,
          "time": 111.771382,
          "velocity": 0.669291338582677
        },
        {
          "duration": 0.0749999687500065,
          "durationTicks": 21,
          "midi": 50,
          "name": "D3",
          "ticks": 31344,
          "time": 111.9428105,
          "velocity": 0.669291338582677
        },
        {
          "duration": 0.0749999687499923,
          "durationTicks": 21,
          "midi": 38,
          "name": "D2",
          "ticks": 31392,
          "time": 112.114239,
          "velocity": 0.669291338582677
        },
        {
          "duration": 0.0749999687500065,
          "durationTicks": 21,
          "midi": 50,
          "name": "D3",
          "ticks": 31440,
          "time": 112.2856675,
          "velocity": 0.669291338582677
        },
        {
          "duration": 0.0749999687500065,
          "durationTicks": 21,
          "midi": 36,
          "name": "C2",
          "ticks": 31488,
          "time": 112.457096,
          "velocity": 0.669291338582677
        },
        {
          "duration": 0.0749999687499923,
          "durationTicks": 21,
          "midi": 50,
          "name": "D3",
          "ticks": 31536,
          "time": 112.6285245,
          "velocity": 0.669291338582677
        },
        {
          "duration": 0.0749999687500065,
          "durationTicks": 21,
          "midi": 38,
          "name": "D2",
          "ticks": 31584,
          "time": 112.799953,
          "velocity": 0.669291338582677
        },
        {
          "duration": 0.0749999687500065,
          "durationTicks": 21,
          "midi": 50,
          "name": "D3",
          "ticks": 31632,
          "time": 112.9713815,
          "velocity": 0.669291338582677
        },
        {
          "duration": 0.0749999687499923,
          "durationTicks": 21,
          "midi": 36,
          "name": "C2",
          "ticks": 31680,
          "time": 113.14281,
          "velocity": 0.669291338582677
        },
        {
          "duration": 0.0749999687500065,
          "durationTicks": 21,
          "midi": 50,
          "name": "D3",
          "ticks": 31728,
          "time": 113.3142385,
          "velocity": 0.669291338582677
        },
        {
          "duration": 0.0749999687500065,
          "durationTicks": 21,
          "midi": 38,
          "name": "D2",
          "ticks": 31776,
          "time": 113.485667,
          "velocity": 0.669291338582677
        },
        {
          "duration": 0.0749999687499923,
          "durationTicks": 21,
          "midi": 50,
          "name": "D3",
          "ticks": 31824,
          "time": 113.6570955,
          "velocity": 0.669291338582677
        },
        {
          "duration": 0.0749999687500065,
          "durationTicks": 21,
          "midi": 36,
          "name": "C2",
          "ticks": 31872,
          "time": 113.828524,
          "velocity": 0.669291338582677
        },
        {
          "duration": 0.0749999687500065,
          "durationTicks": 21,
          "midi": 41,
          "name": "F2",
          "ticks": 31872,
          "time": 113.828524,
          "velocity": 0.669291338582677
        },
        {
          "duration": 0.0749999687500065,
          "durationTicks": 21,
          "midi": 50,
          "name": "D3",
          "ticks": 31920,
          "time": 113.9999525,
          "velocity": 0.669291338582677
        },
        {
          "duration": 0.0749999687500065,
          "durationTicks": 21,
          "midi": 41,
          "name": "F2",
          "ticks": 31920,
          "time": 113.9999525,
          "velocity": 0.669291338582677
        },
        {
          "duration": 0.0749999687499923,
          "durationTicks": 21,
          "midi": 38,
          "name": "D2",
          "ticks": 31968,
          "time": 114.171381,
          "velocity": 0.669291338582677
        },
        {
          "duration": 0.0749999687499923,
          "durationTicks": 21,
          "midi": 41,
          "name": "F2",
          "ticks": 31968,
          "time": 114.171381,
          "velocity": 0.669291338582677
        },
        {
          "duration": 0.0749999687500065,
          "durationTicks": 21,
          "midi": 50,
          "name": "D3",
          "ticks": 32016,
          "time": 114.3428095,
          "velocity": 0.669291338582677
        },
        {
          "duration": 0.0749999687500065,
          "durationTicks": 21,
          "midi": 41,
          "name": "F2",
          "ticks": 32016,
          "time": 114.3428095,
          "velocity": 0.669291338582677
        },
        {
          "duration": 0.0749999687500065,
          "durationTicks": 21,
          "midi": 36,
          "name": "C2",
          "ticks": 32064,
          "time": 114.514238,
          "velocity": 0.669291338582677
        },
        {
          "duration": 0.0749999687500065,
          "durationTicks": 21,
          "midi": 41,
          "name": "F2",
          "ticks": 32064,
          "time": 114.514238,
          "velocity": 0.669291338582677
        },
        {
          "duration": 0.0749999687500065,
          "durationTicks": 21,
          "midi": 41,
          "name": "F2",
          "ticks": 32088,
          "time": 114.59995225,
          "velocity": 0.669291338582677
        },
        {
          "duration": 0.0749999687499923,
          "durationTicks": 21,
          "midi": 50,
          "name": "D3",
          "ticks": 32112,
          "time": 114.6856665,
          "velocity": 0.669291338582677
        },
        {
          "duration": 0.0749999687499923,
          "durationTicks": 21,
          "midi": 41,
          "name": "F2",
          "ticks": 32112,
          "time": 114.6856665,
          "velocity": 0.669291338582677
        },
        {
          "duration": 0.0749999687500065,
          "durationTicks": 21,
          "midi": 41,
          "name": "F2",
          "ticks": 32136,
          "time": 114.77138075,
          "velocity": 0.669291338582677
        },
        {
          "duration": 0.0749999687500065,
          "durationTicks": 21,
          "midi": 38,
          "name": "D2",
          "ticks": 32160,
          "time": 114.857095,
          "velocity": 0.669291338582677
        },
        {
          "duration": 0.0749999687500065,
          "durationTicks": 21,
          "midi": 41,
          "name": "F2",
          "ticks": 32160,
          "time": 114.857095,
          "velocity": 0.669291338582677
        },
        {
          "duration": 0.0749999687499923,
          "durationTicks": 21,
          "midi": 41,
          "name": "F2",
          "ticks": 32184,
          "time": 114.94280925,
          "velocity": 0.669291338582677
        },
        {
          "duration": 0.0749999687500065,
          "durationTicks": 21,
          "midi": 50,
          "name": "D3",
          "ticks": 32208,
          "time": 115.0285235,
          "velocity": 0.669291338582677
        },
        {
          "duration": 0.0749999687500065,
          "durationTicks": 21,
          "midi": 41,
          "name": "F2",
          "ticks": 32208,
          "time": 115.0285235,
          "velocity": 0.669291338582677
        },
        {
          "duration": 0.0749999687500065,
          "durationTicks": 21,
          "midi": 41,
          "name": "F2",
          "ticks": 32232,
          "time": 115.11423775,
          "velocity": 0.669291338582677
        },
        {
          "duration": 0.0749999687499923,
          "durationTicks": 21,
          "midi": 49,
          "name": "C#3",
          "ticks": 32256,
          "time": 115.199952,
          "velocity": 0.362204724409449
        },
        {
          "duration": 0.0749999687499923,
          "durationTicks": 21,
          "midi": 36,
          "name": "C2",
          "ticks": 32256,
          "time": 115.199952,
          "velocity": 0.669291338582677
        },
        {
          "duration": 0.0749999687500065,
          "durationTicks": 21,
          "midi": 50,
          "name": "D3",
          "ticks": 32304,
          "time": 115.3713805,
          "velocity": 0.669291338582677
        },
        {
          "duration": 0.0749999687500065,
          "durationTicks": 21,
          "midi": 38,
          "name": "D2",
          "ticks": 32352,
          "time": 115.542809,
          "velocity": 0.669291338582677
        },
        {
          "duration": 0.0749999687499923,
          "durationTicks": 21,
          "midi": 50,
          "name": "D3",
          "ticks": 32400,
          "time": 115.7142375,
          "velocity": 0.669291338582677
        },
        {
          "duration": 0.0749999687499923,
          "durationTicks": 21,
          "midi": 36,
          "name": "C2",
          "ticks": 32448,
          "time": 115.885666,
          "velocity": 0.669291338582677
        },
        {
          "duration": 0.0749999687500065,
          "durationTicks": 21,
          "midi": 50,
          "name": "D3",
          "ticks": 32496,
          "time": 116.0570945,
          "velocity": 0.669291338582677
        },
        {
          "duration": 0.0749999687499923,
          "durationTicks": 21,
          "midi": 38,
          "name": "D2",
          "ticks": 32544,
          "time": 116.228523,
          "velocity": 0.669291338582677
        },
        {
          "duration": 0.0749999687499923,
          "durationTicks": 21,
          "midi": 50,
          "name": "D3",
          "ticks": 32592,
          "time": 116.3999515,
          "velocity": 0.669291338582677
        },
        {
          "duration": 0.0749999687500065,
          "durationTicks": 21,
          "midi": 36,
          "name": "C2",
          "ticks": 32640,
          "time": 116.57138,
          "velocity": 0.669291338582677
        },
        {
          "duration": 0.0749999687499923,
          "durationTicks": 21,
          "midi": 50,
          "name": "D3",
          "ticks": 32688,
          "time": 116.7428085,
          "velocity": 0.669291338582677
        },
        {
          "duration": 0.0749999687499923,
          "durationTicks": 21,
          "midi": 38,
          "name": "D2",
          "ticks": 32736,
          "time": 116.914237,
          "velocity": 0.669291338582677
        },
        {
          "duration": 0.0749999687500065,
          "durationTicks": 21,
          "midi": 50,
          "name": "D3",
          "ticks": 32784,
          "time": 117.0856655,
          "velocity": 0.669291338582677
        },
        {
          "duration": 0.0749999687499923,
          "durationTicks": 21,
          "midi": 36,
          "name": "C2",
          "ticks": 32832,
          "time": 117.257094,
          "velocity": 0.669291338582677
        },
        {
          "duration": 0.0749999687499923,
          "durationTicks": 21,
          "midi": 50,
          "name": "D3",
          "ticks": 32880,
          "time": 117.4285225,
          "velocity": 0.669291338582677
        },
        {
          "duration": 0.0749999687500065,
          "durationTicks": 21,
          "midi": 38,
          "name": "D2",
          "ticks": 32928,
          "time": 117.599951,
          "velocity": 0.669291338582677
        },
        {
          "duration": 0.0749999687499923,
          "durationTicks": 21,
          "midi": 50,
          "name": "D3",
          "ticks": 32976,
          "time": 117.7713795,
          "velocity": 0.669291338582677
        },
        {
          "duration": 0.0928571041666544,
          "durationTicks": 26,
          "midi": 41,
          "name": "F2",
          "ticks": 33024,
          "time": 117.942808,
          "velocity": 0.803149606299213
        },
        {
          "duration": 0.0785713958333361,
          "durationTicks": 22,
          "midi": 41,
          "name": "F2",
          "ticks": 33051,
          "time": 118.03923653125,
          "velocity": 0.803149606299213
        },
        {
          "duration": 0.0821428229166799,
          "durationTicks": 23,
          "midi": 41,
          "name": "F2",
          "ticks": 33098,
          "time": 118.207093604167,
          "velocity": 0.803149606299213
        },
        {
          "duration": 0.0821428229166799,
          "durationTicks": 23,
          "midi": 41,
          "name": "F2",
          "ticks": 33122,
          "time": 118.292807854167,
          "velocity": 0.803149606299213
        },
        {
          "duration": 0.0749999687499923,
          "durationTicks": 21,
          "midi": 41,
          "name": "F2",
          "ticks": 33170,
          "time": 118.464236354167,
          "velocity": 0.803149606299213
        },
        {
          "duration": 0.0821428229166514,
          "durationTicks": 23,
          "midi": 41,
          "name": "F2",
          "ticks": 33193,
          "time": 118.546379177083,
          "velocity": 0.811023622047244
        },
        {
          "duration": 0.160714218750002,
          "durationTicks": 45,
          "midi": 41,
          "name": "F2",
          "ticks": 33265,
          "time": 118.803521927083,
          "velocity": 0.811023622047244
        },
        {
          "duration": 0.0749999687499923,
          "durationTicks": 21,
          "midi": 49,
          "name": "C#3",
          "ticks": 33312,
          "time": 118.971379,
          "velocity": 0.590551181102362
        },
        {
          "duration": 0.160714218750002,
          "durationTicks": 45,
          "midi": 42,
          "name": "F#2",
          "ticks": 33312,
          "time": 118.971379,
          "velocity": 0.362204724409449
        },
        {
          "duration": 0.0749999687499923,
          "durationTicks": 21,
          "midi": 38,
          "name": "D2",
          "ticks": 33312,
          "time": 118.971379,
          "velocity": 0.362204724409449
        },
        {
          "duration": 0.0749999687500065,
          "durationTicks": 21,
          "midi": 49,
          "name": "C#3",
          "ticks": 33360,
          "time": 119.1428075,
          "velocity": 0.590551181102362
        },
        {
          "duration": 0.160714218750002,
          "durationTicks": 45,
          "midi": 42,
          "name": "F#2",
          "ticks": 33360,
          "time": 119.1428075,
          "velocity": 0.362204724409449
        },
        {
          "duration": 0.0749999687500065,
          "durationTicks": 21,
          "midi": 38,
          "name": "D2",
          "ticks": 33360,
          "time": 119.1428075,
          "velocity": 0.362204724409449
        },
        {
          "duration": 0.171428500000005,
          "durationTicks": 48,
          "midi": 41,
          "name": "F2",
          "ticks": 33408,
          "time": 119.314236,
          "velocity": 0.818897637795276
        },
        {
          "duration": 0.157142791666672,
          "durationTicks": 44,
          "midi": 41,
          "name": "F2",
          "ticks": 33459,
          "time": 119.49637878125,
          "velocity": 0.818897637795276
        },
        {
          "duration": 0.160714218750002,
          "durationTicks": 45,
          "midi": 41,
          "name": "F2",
          "ticks": 33506,
          "time": 119.664235854167,
          "velocity": 0.818897637795276
        },
        {
          "duration": 0.0749999687500065,
          "durationTicks": 21,
          "midi": 41,
          "name": "F2",
          "ticks": 33554,
          "time": 119.835664354167,
          "velocity": 0.818897637795276
        },
        {
          "duration": 0.0821428229166656,
          "durationTicks": 23,
          "midi": 41,
          "name": "F2",
          "ticks": 33577,
          "time": 119.917807177083,
          "velocity": 0.818897637795276
        },
        {
          "duration": 1.61785646875001,
          "durationTicks": 453,
          "midi": 52,
          "name": "E3",
          "ticks": 33696,
          "time": 120.342807,
          "velocity": 0.590551181102362
        },
        {
          "duration": 0.157142791666658,
          "durationTicks": 44,
          "midi": 47,
          "name": "B2",
          "ticks": 33697,
          "time": 120.346378427083,
          "velocity": 0.448818897637795
        }
      ],
      "endOfTrackTicks": 34177
    },
    {
      "channel": 0,
      "controlChanges": {
        "6": [
          {
            "number": 6,
            "ticks": 0,
            "time": 0,
            "value": 0.094488188976378
          }
        ],
        "7": [
          {
            "number": 7,
            "ticks": 0,
            "time": 0,
            "value": 1
          },
          {
            "number": 7,
            "ticks": 0,
            "time": 0,
            "value": 1
          }
        ],
        "10": [
          {
            "number": 10,
            "ticks": 0,
            "time": 0,
            "value": 0.503937007874016
          },
          {
            "number": 10,
            "ticks": 0,
            "time": 0,
            "value": 0.503937007874016
          }
        ],
        "100": [
          {
            "number": 100,
            "ticks": 0,
            "time": 0,
            "value": 0
          }
        ],
        "101": [
          {
            "number": 101,
            "ticks": 0,
            "time": 0,
            "value": 0
          }
        ]
      },
      "pitchBends": [
        {
          "ticks": 0,
          "time": 0,
          "value": 0
        },
        {
          "ticks": 0,
          "time": 0,
          "value": 0
        }
      ],
      "instrument": {
        "family": "piano",
        "number": 0,
        "name": "acoustic grand piano"
      },
      "name": "MIDI out #10",
      "notes": [],
      "endOfTrackTicks": 34177
    },
    {
      "channel": 14,
      "controlChanges": {
        "6": [
          {
            "number": 6,
            "ticks": 0,
            "time": 0,
            "value": 0.094488188976378
          },
          {
            "number": 6,
            "ticks": 0,
            "time": 0,
            "value": 0.094488188976378
          },
          {
            "number": 6,
            "ticks": 34176,
            "time": 122.057092,
            "value": 0.094488188976378
          },
          {
            "number": 6,
            "ticks": 34177,
            "time": 122.060663427083,
            "value": 0.094488188976378
          },
          {
            "number": 6,
            "ticks": 34177,
            "time": 122.060663427083,
            "value": 0.094488188976378
          }
        ],
        "7": [
          {
            "number": 7,
            "ticks": 0,
            "time": 0,
            "value": 1
          },
          {
            "number": 7,
            "ticks": 0,
            "time": 0,
            "value": 1
          },
          {
            "number": 7,
            "ticks": 34176,
            "time": 122.057092,
            "value": 1
          },
          {
            "number": 7,
            "ticks": 34177,
            "time": 122.060663427083,
            "value": 1
          },
          {
            "number": 7,
            "ticks": 34177,
            "time": 122.060663427083,
            "value": 1
          }
        ],
        "10": [
          {
            "number": 10,
            "ticks": 0,
            "time": 0,
            "value": 0.503937007874016
          },
          {
            "number": 10,
            "ticks": 0,
            "time": 0,
            "value": 0.503937007874016
          },
          {
            "number": 10,
            "ticks": 34176,
            "time": 122.057092,
            "value": 0.503937007874016
          },
          {
            "number": 10,
            "ticks": 34177,
            "time": 122.060663427083,
            "value": 0.503937007874016
          },
          {
            "number": 10,
            "ticks": 34177,
            "time": 122.060663427083,
            "value": 0.503937007874016
          }
        ],
        "100": [
          {
            "number": 100,
            "ticks": 0,
            "time": 0,
            "value": 0
          },
          {
            "number": 100,
            "ticks": 0,
            "time": 0,
            "value": 0
          },
          {
            "number": 100,
            "ticks": 34176,
            "time": 122.057092,
            "value": 0
          },
          {
            "number": 100,
            "ticks": 34177,
            "time": 122.060663427083,
            "value": 0
          },
          {
            "number": 100,
            "ticks": 34177,
            "time": 122.060663427083,
            "value": 0
          }
        ],
        "101": [
          {
            "number": 101,
            "ticks": 0,
            "time": 0,
            "value": 0
          },
          {
            "number": 101,
            "ticks": 0,
            "time": 0,
            "value": 0
          },
          {
            "number": 101,
            "ticks": 34176,
            "time": 122.057092,
            "value": 0
          },
          {
            "number": 101,
            "ticks": 34177,
            "time": 122.060663427083,
            "value": 0
          },
          {
            "number": 101,
            "ticks": 34177,
            "time": 122.060663427083,
            "value": 0
          }
        ]
      },
      "pitchBends": [
        {
          "ticks": 0,
          "time": 0,
          "value": 0
        },
        {
          "ticks": 0,
          "time": 0,
          "value": 0
        },
        {
          "ticks": 34176,
          "time": 122.057092,
          "value": 0
        },
        {
          "ticks": 34177,
          "time": 122.060663427083,
          "value": 0
        },
        {
          "ticks": 34177,
          "time": 122.060663427083,
          "value": 0
        }
      ],
      "instrument": {
        "family": "reed",
        "number": 66,
        "name": "tenor sax"
      },
      "name": "",
      "notes": [
        {
          "duration": 0.171428500000001,
          "durationTicks": 48,
          "midi": 69,
          "name": "A4",
          "ticks": 6144,
          "time": 21.942848,
          "velocity": 0.480314960629921
        },
        {
          "duration": 0.171428500000001,
          "durationTicks": 48,
          "midi": 74,
          "name": "D5",
          "ticks": 6144,
          "time": 21.942848,
          "velocity": 0.590551181102362
        },
        {
          "duration": 0.157142791666665,
          "durationTicks": 44,
          "midi": 72,
          "name": "C5",
          "ticks": 6195,
          "time": 22.12499078125,
          "velocity": 0.503937007874016
        },
        {
          "duration": 0.160714218750002,
          "durationTicks": 45,
          "midi": 74,
          "name": "D5",
          "ticks": 6242,
          "time": 22.2928478541667,
          "velocity": 0.511811023622047
        },
        {
          "duration": 0.32857129166667,
          "durationTicks": 92,
          "midi": 77,
          "name": "F5",
          "ticks": 6290,
          "time": 22.4642763541667,
          "velocity": 0.519685039370079
        },
        {
          "duration": 0.32857129166667,
          "durationTicks": 92,
          "midi": 69,
          "name": "A4",
          "ticks": 6290,
          "time": 22.4642763541667,
          "velocity": 0.440944881889764
        },
        {
          "duration": 0.160714218750002,
          "durationTicks": 45,
          "midi": 74,
          "name": "D5",
          "ticks": 6385,
          "time": 22.8035619270833,
          "velocity": 0.503937007874016
        },
        {
          "duration": 0.078571395833329,
          "durationTicks": 22,
          "midi": 69,
          "name": "A4",
          "ticks": 6433,
          "time": 22.9749904270833,
          "velocity": 0.511811023622047
        },
        {
          "duration": 0.0749999687499994,
          "durationTicks": 21,
          "midi": 68,
          "name": "G#4",
          "ticks": 6457,
          "time": 23.0607046770833,
          "velocity": 0.503937007874016
        },
        {
          "duration": 0.0785713958333361,
          "durationTicks": 22,
          "midi": 67,
          "name": "G4",
          "ticks": 6480,
          "time": 23.1428475,
          "velocity": 0.503937007874016
        },
        {
          "duration": 0.0821428229166692,
          "durationTicks": 23,
          "midi": 65,
          "name": "F4",
          "ticks": 6503,
          "time": 23.2249903229167,
          "velocity": 0.503937007874016
        },
        {
          "duration": 0.171428499999998,
          "durationTicks": 48,
          "midi": 74,
          "name": "D5",
          "ticks": 6528,
          "time": 23.314276,
          "velocity": 0.543307086614173
        },
        {
          "duration": 0.157142791666665,
          "durationTicks": 44,
          "midi": 72,
          "name": "C5",
          "ticks": 6579,
          "time": 23.49641878125,
          "velocity": 0.503937007874016
        },
        {
          "duration": 0.160714218749998,
          "durationTicks": 45,
          "midi": 74,
          "name": "D5",
          "ticks": 6626,
          "time": 23.6642758541667,
          "velocity": 0.511811023622047
        },
        {
          "duration": 0.32857129166667,
          "durationTicks": 92,
          "midi": 69,
          "name": "A4",
          "ticks": 6674,
          "time": 23.8357043541667,
          "velocity": 0.440944881889764
        },
        {
          "duration": 0.32857129166667,
          "durationTicks": 92,
          "midi": 77,
          "name": "F5",
          "ticks": 6674,
          "time": 23.8357043541667,
          "velocity": 0.519685039370079
        },
        {
          "duration": 0.160714218749998,
          "durationTicks": 45,
          "midi": 79,
          "name": "G5",
          "ticks": 6769,
          "time": 24.1749899270833,
          "velocity": 0.503937007874016
        },
        {
          "duration": 0.157142791666665,
          "durationTicks": 44,
          "midi": 74,
          "name": "D5",
          "ticks": 6817,
          "time": 24.3464184270833,
          "velocity": 0.511811023622047
        },
        {
          "duration": 0.160714218750002,
          "durationTicks": 45,
          "midi": 72,
          "name": "C5",
          "ticks": 6864,
          "time": 24.5142755,
          "velocity": 0.503937007874016
        },
        {
          "duration": 0.171428500000001,
          "durationTicks": 48,
          "midi": 74,
          "name": "D5",
          "ticks": 6912,
          "time": 24.685704,
          "velocity": 0.590551181102362
        },
        {
          "duration": 0.171428500000001,
          "durationTicks": 48,
          "midi": 69,
          "name": "A4",
          "ticks": 6912,
          "time": 24.685704,
          "velocity": 0.480314960629921
        },
        {
          "duration": 0.157142791666665,
          "durationTicks": 44,
          "midi": 72,
          "name": "C5",
          "ticks": 6963,
          "time": 24.86784678125,
          "velocity": 0.503937007874016
        },
        {
          "duration": 0.160714218750002,
          "durationTicks": 45,
          "midi": 74,
          "name": "D5",
          "ticks": 7010,
          "time": 25.0357038541667,
          "velocity": 0.511811023622047
        },
        {
          "duration": 0.32857129166667,
          "durationTicks": 92,
          "midi": 77,
          "name": "F5",
          "ticks": 7058,
          "time": 25.2071323541667,
          "velocity": 0.519685039370079
        },
        {
          "duration": 0.32857129166667,
          "durationTicks": 92,
          "midi": 69,
          "name": "A4",
          "ticks": 7058,
          "time": 25.2071323541667,
          "velocity": 0.440944881889764
        },
        {
          "duration": 0.160714218750002,
          "durationTicks": 45,
          "midi": 74,
          "name": "D5",
          "ticks": 7153,
          "time": 25.5464179270833,
          "velocity": 0.503937007874016
        },
        {
          "duration": 0.078571395833329,
          "durationTicks": 22,
          "midi": 69,
          "name": "A4",
          "ticks": 7201,
          "time": 25.7178464270833,
          "velocity": 0.511811023622047
        },
        {
          "duration": 0.0749999687499994,
          "durationTicks": 21,
          "midi": 68,
          "name": "G#4",
          "ticks": 7225,
          "time": 25.8035606770833,
          "velocity": 0.503937007874016
        },
        {
          "duration": 0.0785713958333361,
          "durationTicks": 22,
          "midi": 67,
          "name": "G4",
          "ticks": 7248,
          "time": 25.8857035,
          "velocity": 0.503937007874016
        },
        {
          "duration": 0.0821428229166692,
          "durationTicks": 23,
          "midi": 65,
          "name": "F4",
          "ticks": 7271,
          "time": 25.9678463229167,
          "velocity": 0.503937007874016
        },
        {
          "duration": 0.171428499999998,
          "durationTicks": 48,
          "midi": 74,
          "name": "D5",
          "ticks": 7296,
          "time": 26.057132,
          "velocity": 0.543307086614173
        },
        {
          "duration": 0.157142791666665,
          "durationTicks": 44,
          "midi": 72,
          "name": "C5",
          "ticks": 7347,
          "time": 26.23927478125,
          "velocity": 0.503937007874016
        },
        {
          "duration": 0.160714218749998,
          "durationTicks": 45,
          "midi": 74,
          "name": "D5",
          "ticks": 7394,
          "time": 26.4071318541667,
          "velocity": 0.511811023622047
        },
        {
          "duration": 0.328571291666673,
          "durationTicks": 92,
          "midi": 69,
          "name": "A4",
          "ticks": 7442,
          "time": 26.5785603541667,
          "velocity": 0.440944881889764
        },
        {
          "duration": 0.328571291666673,
          "durationTicks": 92,
          "midi": 74,
          "name": "D5",
          "ticks": 7442,
          "time": 26.5785603541667,
          "velocity": 0.440944881889764
        },
        {
          "duration": 0.328571291666673,
          "durationTicks": 92,
          "midi": 77,
          "name": "F5",
          "ticks": 7442,
          "time": 26.5785603541667,
          "velocity": 0.440944881889764
        },
        {
          "duration": 0.328571291666673,
          "durationTicks": 92,
          "midi": 81,
          "name": "A5",
          "ticks": 7442,
          "time": 26.5785603541667,
          "velocity": 0.519685039370079
        },
        {
          "duration": 0.160714218749998,
          "durationTicks": 45,
          "midi": 69,
          "name": "A4",
          "ticks": 7537,
          "time": 26.9178459270833,
          "velocity": 0.440944881889764
        },
        {
          "duration": 0.160714218749998,
          "durationTicks": 45,
          "midi": 74,
          "name": "D5",
          "ticks": 7537,
          "time": 26.9178459270833,
          "velocity": 0.440944881889764
        },
        {
          "duration": 0.160714218749998,
          "durationTicks": 45,
          "midi": 77,
          "name": "F5",
          "ticks": 7537,
          "time": 26.9178459270833,
          "velocity": 0.440944881889764
        },
        {
          "duration": 0.160714218749998,
          "durationTicks": 45,
          "midi": 81,
          "name": "A5",
          "ticks": 7537,
          "time": 26.9178459270833,
          "velocity": 0.551181102362205
        },
        {
          "duration": 0.157142791666665,
          "durationTicks": 44,
          "midi": 79,
          "name": "G5",
          "ticks": 7585,
          "time": 27.0892744270833,
          "velocity": 0.559055118110236
        },
        {
          "duration": 0.157142791666665,
          "durationTicks": 44,
          "midi": 76,
          "name": "E5",
          "ticks": 7585,
          "time": 27.0892744270833,
          "velocity": 0.448818897637795
        },
        {
          "duration": 0.157142791666665,
          "durationTicks": 44,
          "midi": 72,
          "name": "C5",
          "ticks": 7585,
          "time": 27.0892744270833,
          "velocity": 0.448818897637795
        },
        {
          "duration": 0.157142791666665,
          "durationTicks": 44,
          "midi": 67,
          "name": "G4",
          "ticks": 7585,
          "time": 27.0892744270833,
          "velocity": 0.448818897637795
        },
        {
          "duration": 0.160714218749998,
          "durationTicks": 45,
          "midi": 79,
          "name": "G5",
          "ticks": 7632,
          "time": 27.2571315,
          "velocity": 0.551181102362205
        },
        {
          "duration": 0.160714218749998,
          "durationTicks": 45,
          "midi": 76,
          "name": "E5",
          "ticks": 7632,
          "time": 27.2571315,
          "velocity": 0.440944881889764
        },
        {
          "duration": 0.160714218749998,
          "durationTicks": 45,
          "midi": 72,
          "name": "C5",
          "ticks": 7632,
          "time": 27.2571315,
          "velocity": 0.440944881889764
        },
        {
          "duration": 0.160714218749998,
          "durationTicks": 45,
          "midi": 67,
          "name": "G4",
          "ticks": 7632,
          "time": 27.2571315,
          "velocity": 0.440944881889764
        },
        {
          "duration": 0.171428500000001,
          "durationTicks": 48,
          "midi": 70,
          "name": "A#4",
          "ticks": 7680,
          "time": 27.42856,
          "velocity": 0.480314960629921
        },
        {
          "duration": 0.171428500000001,
          "durationTicks": 48,
          "midi": 74,
          "name": "D5",
          "ticks": 7680,
          "time": 27.42856,
          "velocity": 0.590551181102362
        },
        {
          "duration": 0.157142791666665,
          "durationTicks": 44,
          "midi": 72,
          "name": "C5",
          "ticks": 7731,
          "time": 27.61070278125,
          "velocity": 0.503937007874016
        },
        {
          "duration": 0.160714218750002,
          "durationTicks": 45,
          "midi": 74,
          "name": "D5",
          "ticks": 7778,
          "time": 27.7785598541667,
          "velocity": 0.511811023622047
        },
        {
          "duration": 0.32857129166667,
          "durationTicks": 92,
          "midi": 70,
          "name": "A#4",
          "ticks": 7826,
          "time": 27.9499883541667,
          "velocity": 0.440944881889764
        },
        {
          "duration": 0.32857129166667,
          "durationTicks": 92,
          "midi": 77,
          "name": "F5",
          "ticks": 7826,
          "time": 27.9499883541667,
          "velocity": 0.519685039370079
        },
        {
          "duration": 0.160714218750002,
          "durationTicks": 45,
          "midi": 74,
          "name": "D5",
          "ticks": 7921,
          "time": 28.2892739270833,
          "velocity": 0.503937007874016
        },
        {
          "duration": 0.078571395833329,
          "durationTicks": 22,
          "midi": 69,
          "name": "A4",
          "ticks": 7969,
          "time": 28.4607024270833,
          "velocity": 0.511811023622047
        },
        {
          "duration": 0.0749999687499994,
          "durationTicks": 21,
          "midi": 68,
          "name": "G#4",
          "ticks": 7993,
          "time": 28.5464166770833,
          "velocity": 0.503937007874016
        },
        {
          "duration": 0.0785713958333361,
          "durationTicks": 22,
          "midi": 67,
          "name": "G4",
          "ticks": 8016,
          "time": 28.6285595,
          "velocity": 0.503937007874016
        },
        {
          "duration": 0.0821428229166692,
          "durationTicks": 23,
          "midi": 65,
          "name": "F4",
          "ticks": 8039,
          "time": 28.7107023229167,
          "velocity": 0.503937007874016
        },
        {
          "duration": 0.171428500000001,
          "durationTicks": 48,
          "midi": 74,
          "name": "D5",
          "ticks": 8064,
          "time": 28.799988,
          "velocity": 0.543307086614173
        },
        {
          "duration": 0.157142791666665,
          "durationTicks": 44,
          "midi": 72,
          "name": "C5",
          "ticks": 8115,
          "time": 28.98213078125,
          "velocity": 0.503937007874016
        },
        {
          "duration": 0.160714218749998,
          "durationTicks": 45,
          "midi": 74,
          "name": "D5",
          "ticks": 8162,
          "time": 29.1499878541667,
          "velocity": 0.511811023622047
        },
        {
          "duration": 0.32857129166667,
          "durationTicks": 92,
          "midi": 77,
          "name": "F5",
          "ticks": 8210,
          "time": 29.3214163541667,
          "velocity": 0.519685039370079
        },
        {
          "duration": 0.32857129166667,
          "durationTicks": 92,
          "midi": 70,
          "name": "A#4",
          "ticks": 8210,
          "time": 29.3214163541667,
          "velocity": 0.440944881889764
        },
        {
          "duration": 0.160714218749998,
          "durationTicks": 45,
          "midi": 79,
          "name": "G5",
          "ticks": 8305,
          "time": 29.6607019270833,
          "velocity": 0.503937007874016
        },
        {
          "duration": 0.157142791666669,
          "durationTicks": 44,
          "midi": 74,
          "name": "D5",
          "ticks": 8353,
          "time": 29.8321304270833,
          "velocity": 0.511811023622047
        },
        {
          "duration": 0.160714218749998,
          "durationTicks": 45,
          "midi": 72,
          "name": "C5",
          "ticks": 8400,
          "time": 29.9999875,
          "velocity": 0.503937007874016
        },
        {
          "duration": 0.171428500000001,
          "durationTicks": 48,
          "midi": 70,
          "name": "A#4",
          "ticks": 8448,
          "time": 30.171416,
          "velocity": 0.480314960629921
        },
        {
          "duration": 0.171428500000001,
          "durationTicks": 48,
          "midi": 74,
          "name": "D5",
          "ticks": 8448,
          "time": 30.171416,
          "velocity": 0.590551181102362
        },
        {
          "duration": 0.157142791666665,
          "durationTicks": 44,
          "midi": 72,
          "name": "C5",
          "ticks": 8499,
          "time": 30.35355878125,
          "velocity": 0.503937007874016
        },
        {
          "duration": 0.160714218750002,
          "durationTicks": 45,
          "midi": 74,
          "name": "D5",
          "ticks": 8546,
          "time": 30.5214158541667,
          "velocity": 0.511811023622047
        },
        {
          "duration": 0.32857129166667,
          "durationTicks": 92,
          "midi": 70,
          "name": "A#4",
          "ticks": 8594,
          "time": 30.6928443541667,
          "velocity": 0.440944881889764
        },
        {
          "duration": 0.32857129166667,
          "durationTicks": 92,
          "midi": 77,
          "name": "F5",
          "ticks": 8594,
          "time": 30.6928443541667,
          "velocity": 0.519685039370079
        },
        {
          "duration": 0.160714218750002,
          "durationTicks": 45,
          "midi": 74,
          "name": "D5",
          "ticks": 8689,
          "time": 31.0321299270833,
          "velocity": 0.503937007874016
        },
        {
          "duration": 0.078571395833329,
          "durationTicks": 22,
          "midi": 69,
          "name": "A4",
          "ticks": 8737,
          "time": 31.2035584270833,
          "velocity": 0.511811023622047
        },
        {
          "duration": 0.0749999687500029,
          "durationTicks": 21,
          "midi": 68,
          "name": "G#4",
          "ticks": 8761,
          "time": 31.2892726770833,
          "velocity": 0.503937007874016
        },
        {
          "duration": 0.0785713958333361,
          "durationTicks": 22,
          "midi": 67,
          "name": "G4",
          "ticks": 8784,
          "time": 31.3714155,
          "velocity": 0.503937007874016
        },
        {
          "duration": 0.0821428229166692,
          "durationTicks": 23,
          "midi": 65,
          "name": "F4",
          "ticks": 8807,
          "time": 31.4535583229167,
          "velocity": 0.503937007874016
        },
        {
          "duration": 0.092857104166665,
          "durationTicks": 26,
          "midi": 81,
          "name": "A5",
          "ticks": 8832,
          "time": 31.542844,
          "velocity": 0.559055118110236
        },
        {
          "duration": 0.092857104166665,
          "durationTicks": 26,
          "midi": 69,
          "name": "A4",
          "ticks": 8832,
          "time": 31.542844,
          "velocity": 0.480314960629921
        },
        {
          "duration": 0.0785713958333361,
          "durationTicks": 22,
          "midi": 81,
          "name": "A5",
          "ticks": 8859,
          "time": 31.63927253125,
          "velocity": 0.519685039370079
        },
        {
          "duration": 0.0785713958333361,
          "durationTicks": 22,
          "midi": 69,
          "name": "A4",
          "ticks": 8859,
          "time": 31.63927253125,
          "velocity": 0.440944881889764
        },
        {
          "duration": 0.157142791666665,
          "durationTicks": 44,
          "midi": 81,
          "name": "A5",
          "ticks": 8883,
          "time": 31.72498678125,
          "velocity": 0.519685039370079
        },
        {
          "duration": 0.157142791666665,
          "durationTicks": 44,
          "midi": 69,
          "name": "A4",
          "ticks": 8883,
          "time": 31.72498678125,
          "velocity": 0.440944881889764
        },
        {
          "duration": 0.160714218749998,
          "durationTicks": 45,
          "midi": 69,
          "name": "A4",
          "ticks": 8930,
          "time": 31.8928438541667,
          "velocity": 0.448818897637795
        },
        {
          "duration": 0.160714218749998,
          "durationTicks": 45,
          "midi": 81,
          "name": "A5",
          "ticks": 8930,
          "time": 31.8928438541667,
          "velocity": 0.52755905511811
        },
        {
          "duration": 0.160714218750002,
          "durationTicks": 45,
          "midi": 69,
          "name": "A4",
          "ticks": 8978,
          "time": 32.0642723541667,
          "velocity": 0.440944881889764
        },
        {
          "duration": 0.160714218750002,
          "durationTicks": 45,
          "midi": 81,
          "name": "A5",
          "ticks": 8978,
          "time": 32.0642723541667,
          "velocity": 0.551181102362205
        },
        {
          "duration": 0.160714218750002,
          "durationTicks": 45,
          "midi": 84,
          "name": "C6",
          "ticks": 9025,
          "time": 32.2321294270833,
          "velocity": 0.574803149606299
        },
        {
          "duration": 0.160714218750002,
          "durationTicks": 45,
          "midi": 72,
          "name": "C5",
          "ticks": 9025,
          "time": 32.2321294270833,
          "velocity": 0.464566929133858
        },
        {
          "duration": 0.160714218750002,
          "durationTicks": 45,
          "midi": 80,
          "name": "G#5",
          "ticks": 9073,
          "time": 32.4035579270833,
          "velocity": 0.551181102362205
        },
        {
          "duration": 0.160714218750002,
          "durationTicks": 45,
          "midi": 68,
          "name": "G#4",
          "ticks": 9073,
          "time": 32.4035579270833,
          "velocity": 0.440944881889764
        },
        {
          "duration": 0.157142791666665,
          "durationTicks": 44,
          "midi": 79,
          "name": "G5",
          "ticks": 9121,
          "time": 32.5749864270833,
          "velocity": 0.559055118110236
        },
        {
          "duration": 0.157142791666665,
          "durationTicks": 44,
          "midi": 67,
          "name": "G4",
          "ticks": 9121,
          "time": 32.5749864270833,
          "velocity": 0.448818897637795
        },
        {
          "duration": 0.160714218750002,
          "durationTicks": 45,
          "midi": 77,
          "name": "F5",
          "ticks": 9168,
          "time": 32.7428435,
          "velocity": 0.551181102362205
        },
        {
          "duration": 0.160714218750002,
          "durationTicks": 45,
          "midi": 65,
          "name": "F4",
          "ticks": 9168,
          "time": 32.7428435,
          "velocity": 0.440944881889764
        },
        {
          "duration": 0.171428499999998,
          "durationTicks": 48,
          "midi": 81,
          "name": "A5",
          "ticks": 9216,
          "time": 32.914272,
          "velocity": 0.480314960629921
        },
        {
          "duration": 0.171428499999998,
          "durationTicks": 48,
          "midi": 86,
          "name": "D6",
          "ticks": 9216,
          "time": 32.914272,
          "velocity": 0.590551181102362
        },
        {
          "duration": 0.157142791666665,
          "durationTicks": 44,
          "midi": 84,
          "name": "C6",
          "ticks": 9267,
          "time": 33.09641478125,
          "velocity": 0.503937007874016
        },
        {
          "duration": 0.160714218750002,
          "durationTicks": 45,
          "midi": 86,
          "name": "D6",
          "ticks": 9314,
          "time": 33.2642718541667,
          "velocity": 0.511811023622047
        },
        {
          "duration": 0.32857129166667,
          "durationTicks": 92,
          "midi": 81,
          "name": "A5",
          "ticks": 9362,
          "time": 33.4357003541667,
          "velocity": 0.440944881889764
        },
        {
          "duration": 0.32857129166667,
          "durationTicks": 92,
          "midi": 89,
          "name": "F6",
          "ticks": 9362,
          "time": 33.4357003541667,
          "velocity": 0.519685039370079
        },
        {
          "duration": 0.160714218750002,
          "durationTicks": 45,
          "midi": 86,
          "name": "D6",
          "ticks": 9457,
          "time": 33.7749859270833,
          "velocity": 0.503937007874016
        },
        {
          "duration": 0.078571395833329,
          "durationTicks": 22,
          "midi": 81,
          "name": "A5",
          "ticks": 9505,
          "time": 33.9464144270833,
          "velocity": 0.511811023622047
        },
        {
          "duration": 0.0749999687499994,
          "durationTicks": 21,
          "midi": 80,
          "name": "G#5",
          "ticks": 9529,
          "time": 34.0321286770833,
          "velocity": 0.503937007874016
        },
        {
          "duration": 0.0785713958333361,
          "durationTicks": 22,
          "midi": 79,
          "name": "G5",
          "ticks": 9552,
          "time": 34.1142715,
          "velocity": 0.503937007874016
        },
        {
          "duration": 0.0821428229166727,
          "durationTicks": 23,
          "midi": 77,
          "name": "F5",
          "ticks": 9575,
          "time": 34.1964143229167,
          "velocity": 0.503937007874016
        },
        {
          "duration": 0.171428499999998,
          "durationTicks": 48,
          "midi": 86,
          "name": "D6",
          "ticks": 9600,
          "time": 34.2857,
          "velocity": 0.543307086614173
        },
        {
          "duration": 0.157142791666665,
          "durationTicks": 44,
          "midi": 84,
          "name": "C6",
          "ticks": 9651,
          "time": 34.46784278125,
          "velocity": 0.503937007874016
        },
        {
          "duration": 0.160714218750002,
          "durationTicks": 45,
          "midi": 86,
          "name": "D6",
          "ticks": 9698,
          "time": 34.6356998541667,
          "velocity": 0.511811023622047
        },
        {
          "duration": 0.32857129166667,
          "durationTicks": 92,
          "midi": 81,
          "name": "A5",
          "ticks": 9746,
          "time": 34.8071283541667,
          "velocity": 0.440944881889764
        },
        {
          "duration": 0.32857129166667,
          "durationTicks": 92,
          "midi": 89,
          "name": "F6",
          "ticks": 9746,
          "time": 34.8071283541667,
          "velocity": 0.519685039370079
        },
        {
          "duration": 0.160714218750002,
          "durationTicks": 45,
          "midi": 91,
          "name": "G6",
          "ticks": 9841,
          "time": 35.1464139270833,
          "velocity": 0.503937007874016
        },
        {
          "duration": 0.157142791666665,
          "durationTicks": 44,
          "midi": 86,
          "name": "D6",
          "ticks": 9889,
          "time": 35.3178424270833,
          "velocity": 0.511811023622047
        },
        {
          "duration": 0.160714218750002,
          "durationTicks": 45,
          "midi": 84,
          "name": "C6",
          "ticks": 9936,
          "time": 35.4856995,
          "velocity": 0.503937007874016
        },
        {
          "duration": 0.171428500000005,
          "durationTicks": 48,
          "midi": 86,
          "name": "D6",
          "ticks": 9984,
          "time": 35.657128,
          "velocity": 0.590551181102362
        },
        {
          "duration": 0.171428500000005,
          "durationTicks": 48,
          "midi": 81,
          "name": "A5",
          "ticks": 9984,
          "time": 35.657128,
          "velocity": 0.480314960629921
        },
        {
          "duration": 0.157142791666665,
          "durationTicks": 44,
          "midi": 84,
          "name": "C6",
          "ticks": 10035,
          "time": 35.83927078125,
          "velocity": 0.503937007874016
        },
        {
          "duration": 0.160714218750002,
          "durationTicks": 45,
          "midi": 86,
          "name": "D6",
          "ticks": 10082,
          "time": 36.0071278541667,
          "velocity": 0.511811023622047
        },
        {
          "duration": 0.32857129166667,
          "durationTicks": 92,
          "midi": 81,
          "name": "A5",
          "ticks": 10130,
          "time": 36.1785563541667,
          "velocity": 0.440944881889764
        },
        {
          "duration": 0.32857129166667,
          "durationTicks": 92,
          "midi": 89,
          "name": "F6",
          "ticks": 10130,
          "time": 36.1785563541667,
          "velocity": 0.519685039370079
        },
        {
          "duration": 0.160714218750002,
          "durationTicks": 45,
          "midi": 86,
          "name": "D6",
          "ticks": 10225,
          "time": 36.5178419270833,
          "velocity": 0.503937007874016
        },
        {
          "duration": 0.078571395833329,
          "durationTicks": 22,
          "midi": 81,
          "name": "A5",
          "ticks": 10273,
          "time": 36.6892704270833,
          "velocity": 0.511811023622047
        },
        {
          "duration": 0.0749999687499994,
          "durationTicks": 21,
          "midi": 80,
          "name": "G#5",
          "ticks": 10297,
          "time": 36.7749846770833,
          "velocity": 0.503937007874016
        },
        {
          "duration": 0.0785713958333361,
          "durationTicks": 22,
          "midi": 79,
          "name": "G5",
          "ticks": 10320,
          "time": 36.8571275,
          "velocity": 0.503937007874016
        },
        {
          "duration": 0.0821428229166656,
          "durationTicks": 23,
          "midi": 77,
          "name": "F5",
          "ticks": 10343,
          "time": 36.9392703229167,
          "velocity": 0.503937007874016
        },
        {
          "duration": 0.171428499999998,
          "durationTicks": 48,
          "midi": 86,
          "name": "D6",
          "ticks": 10368,
          "time": 37.028556,
          "velocity": 0.543307086614173
        },
        {
          "duration": 0.157142791666665,
          "durationTicks": 44,
          "midi": 84,
          "name": "C6",
          "ticks": 10419,
          "time": 37.21069878125,
          "velocity": 0.503937007874016
        },
        {
          "duration": 0.160714218749995,
          "durationTicks": 45,
          "midi": 86,
          "name": "D6",
          "ticks": 10466,
          "time": 37.3785558541667,
          "velocity": 0.511811023622047
        },
        {
          "duration": 0.32857129166667,
          "durationTicks": 92,
          "midi": 93,
          "name": "A6",
          "ticks": 10514,
          "time": 37.5499843541667,
          "velocity": 0.519685039370079
        },
        {
          "duration": 0.32857129166667,
          "durationTicks": 92,
          "midi": 89,
          "name": "F6",
          "ticks": 10514,
          "time": 37.5499843541667,
          "velocity": 0.440944881889764
        },
        {
          "duration": 0.32857129166667,
          "durationTicks": 92,
          "midi": 86,
          "name": "D6",
          "ticks": 10514,
          "time": 37.5499843541667,
          "velocity": 0.440944881889764
        },
        {
          "duration": 0.32857129166667,
          "durationTicks": 92,
          "midi": 81,
          "name": "A5",
          "ticks": 10514,
          "time": 37.5499843541667,
          "velocity": 0.440944881889764
        },
        {
          "duration": 0.160714218749995,
          "durationTicks": 45,
          "midi": 93,
          "name": "A6",
          "ticks": 10609,
          "time": 37.8892699270833,
          "velocity": 0.551181102362205
        },
        {
          "duration": 0.160714218749995,
          "durationTicks": 45,
          "midi": 89,
          "name": "F6",
          "ticks": 10609,
          "time": 37.8892699270833,
          "velocity": 0.440944881889764
        },
        {
          "duration": 0.160714218749995,
          "durationTicks": 45,
          "midi": 86,
          "name": "D6",
          "ticks": 10609,
          "time": 37.8892699270833,
          "velocity": 0.440944881889764
        },
        {
          "duration": 0.160714218749995,
          "durationTicks": 45,
          "midi": 81,
          "name": "A5",
          "ticks": 10609,
          "time": 37.8892699270833,
          "velocity": 0.440944881889764
        },
        {
          "duration": 0.157142791666665,
          "durationTicks": 44,
          "midi": 79,
          "name": "G5",
          "ticks": 10657,
          "time": 38.0606984270833,
          "velocity": 0.448818897637795
        },
        {
          "duration": 0.157142791666665,
          "durationTicks": 44,
          "midi": 84,
          "name": "C6",
          "ticks": 10657,
          "time": 38.0606984270833,
          "velocity": 0.448818897637795
        },
        {
          "duration": 0.157142791666665,
          "durationTicks": 44,
          "midi": 88,
          "name": "E6",
          "ticks": 10657,
          "time": 38.0606984270833,
          "velocity": 0.448818897637795
        },
        {
          "duration": 0.157142791666665,
          "durationTicks": 44,
          "midi": 91,
          "name": "G6",
          "ticks": 10657,
          "time": 38.0606984270833,
          "velocity": 0.559055118110236
        },
        {
          "duration": 0.160714218749995,
          "durationTicks": 45,
          "midi": 79,
          "name": "G5",
          "ticks": 10704,
          "time": 38.2285555,
          "velocity": 0.440944881889764
        },
        {
          "duration": 0.160714218749995,
          "durationTicks": 45,
          "midi": 84,
          "name": "C6",
          "ticks": 10704,
          "time": 38.2285555,
          "velocity": 0.440944881889764
        },
        {
          "duration": 0.160714218749995,
          "durationTicks": 45,
          "midi": 88,
          "name": "E6",
          "ticks": 10704,
          "time": 38.2285555,
          "velocity": 0.440944881889764
        },
        {
          "duration": 0.160714218749995,
          "durationTicks": 45,
          "midi": 91,
          "name": "G6",
          "ticks": 10704,
          "time": 38.2285555,
          "velocity": 0.551181102362205
        },
        {
          "duration": 0.171428499999998,
          "durationTicks": 48,
          "midi": 86,
          "name": "D6",
          "ticks": 10752,
          "time": 38.399984,
          "velocity": 0.590551181102362
        },
        {
          "duration": 0.171428499999998,
          "durationTicks": 48,
          "midi": 82,
          "name": "A#5",
          "ticks": 10752,
          "time": 38.399984,
          "velocity": 0.480314960629921
        },
        {
          "duration": 0.157142791666665,
          "durationTicks": 44,
          "midi": 84,
          "name": "C6",
          "ticks": 10803,
          "time": 38.58212678125,
          "velocity": 0.503937007874016
        },
        {
          "duration": 0.160714218750002,
          "durationTicks": 45,
          "midi": 86,
          "name": "D6",
          "ticks": 10850,
          "time": 38.7499838541667,
          "velocity": 0.511811023622047
        },
        {
          "duration": 0.32857129166667,
          "durationTicks": 92,
          "midi": 89,
          "name": "F6",
          "ticks": 10898,
          "time": 38.9214123541667,
          "velocity": 0.519685039370079
        },
        {
          "duration": 0.32857129166667,
          "durationTicks": 92,
          "midi": 82,
          "name": "A#5",
          "ticks": 10898,
          "time": 38.9214123541667,
          "velocity": 0.440944881889764
        },
        {
          "duration": 0.160714218750002,
          "durationTicks": 45,
          "midi": 86,
          "name": "D6",
          "ticks": 10993,
          "time": 39.2606979270833,
          "velocity": 0.503937007874016
        },
        {
          "duration": 0.078571395833329,
          "durationTicks": 22,
          "midi": 81,
          "name": "A5",
          "ticks": 11041,
          "time": 39.4321264270833,
          "velocity": 0.511811023622047
        },
        {
          "duration": 0.0749999687499994,
          "durationTicks": 21,
          "midi": 80,
          "name": "G#5",
          "ticks": 11065,
          "time": 39.5178406770833,
          "velocity": 0.503937007874016
        },
        {
          "duration": 0.0785713958333361,
          "durationTicks": 22,
          "midi": 79,
          "name": "G5",
          "ticks": 11088,
          "time": 39.5999835,
          "velocity": 0.503937007874016
        },
        {
          "duration": 0.0821428229166727,
          "durationTicks": 23,
          "midi": 77,
          "name": "F5",
          "ticks": 11111,
          "time": 39.6821263229167,
          "velocity": 0.503937007874016
        },
        {
          "duration": 0.171428499999998,
          "durationTicks": 48,
          "midi": 86,
          "name": "D6",
          "ticks": 11136,
          "time": 39.771412,
          "velocity": 0.543307086614173
        },
        {
          "duration": 0.157142791666665,
          "durationTicks": 44,
          "midi": 84,
          "name": "C6",
          "ticks": 11187,
          "time": 39.95355478125,
          "velocity": 0.503937007874016
        },
        {
          "duration": 0.160714218750002,
          "durationTicks": 45,
          "midi": 86,
          "name": "D6",
          "ticks": 11234,
          "time": 40.1214118541667,
          "velocity": 0.511811023622047
        },
        {
          "duration": 0.32857129166667,
          "durationTicks": 92,
          "midi": 89,
          "name": "F6",
          "ticks": 11282,
          "time": 40.2928403541667,
          "velocity": 0.519685039370079
        },
        {
          "duration": 0.32857129166667,
          "durationTicks": 92,
          "midi": 82,
          "name": "A#5",
          "ticks": 11282,
          "time": 40.2928403541667,
          "velocity": 0.440944881889764
        },
        {
          "duration": 0.160714218750002,
          "durationTicks": 45,
          "midi": 91,
          "name": "G6",
          "ticks": 11377,
          "time": 40.6321259270833,
          "velocity": 0.503937007874016
        },
        {
          "duration": 0.157142791666672,
          "durationTicks": 44,
          "midi": 86,
          "name": "D6",
          "ticks": 11425,
          "time": 40.8035544270833,
          "velocity": 0.511811023622047
        },
        {
          "duration": 0.160714218750002,
          "durationTicks": 45,
          "midi": 84,
          "name": "C6",
          "ticks": 11472,
          "time": 40.9714115,
          "velocity": 0.503937007874016
        },
        {
          "duration": 0.0928571041666686,
          "durationTicks": 26,
          "midi": 87,
          "name": "D#6",
          "ticks": 11520,
          "time": 41.14284,
          "velocity": 0.480314960629921
        },
        {
          "duration": 0.0928571041666686,
          "durationTicks": 26,
          "midi": 87,
          "name": "D#6",
          "ticks": 11520,
          "time": 41.14284,
          "velocity": 0.559055118110236
        },
        {
          "duration": 0.0785713958333361,
          "durationTicks": 22,
          "midi": 87,
          "name": "D#6",
          "ticks": 11547,
          "time": 41.23926853125,
          "velocity": 0.551181102362205
        },
        {
          "duration": 0.0785713958333361,
          "durationTicks": 22,
          "midi": 87,
          "name": "D#6",
          "ticks": 11547,
          "time": 41.23926853125,
          "velocity": 0.440944881889764
        },
        {
          "duration": 0.0821428229166727,
          "durationTicks": 23,
          "midi": 86,
          "name": "D6",
          "ticks": 11594,
          "time": 41.4071256041667,
          "velocity": 0.551181102362205
        },
        {
          "duration": 0.0821428229166727,
          "durationTicks": 23,
          "midi": 86,
          "name": "D6",
          "ticks": 11594,
          "time": 41.4071256041667,
          "velocity": 0.440944881889764
        },
        {
          "duration": 0.0821428229166727,
          "durationTicks": 23,
          "midi": 86,
          "name": "D6",
          "ticks": 11618,
          "time": 41.4928398541667,
          "velocity": 0.559055118110236
        },
        {
          "duration": 0.0821428229166727,
          "durationTicks": 23,
          "midi": 86,
          "name": "D6",
          "ticks": 11618,
          "time": 41.4928398541667,
          "velocity": 0.448818897637795
        },
        {
          "duration": 0.0749999687499994,
          "durationTicks": 21,
          "midi": 84,
          "name": "C6",
          "ticks": 11666,
          "time": 41.6642683541667,
          "velocity": 0.551181102362205
        },
        {
          "duration": 0.0749999687499994,
          "durationTicks": 21,
          "midi": 84,
          "name": "C6",
          "ticks": 11666,
          "time": 41.6642683541667,
          "velocity": 0.440944881889764
        },
        {
          "duration": 0.0821428229166656,
          "durationTicks": 23,
          "midi": 84,
          "name": "C6",
          "ticks": 11689,
          "time": 41.7464111770833,
          "velocity": 0.551181102362205
        },
        {
          "duration": 0.0821428229166656,
          "durationTicks": 23,
          "midi": 84,
          "name": "C6",
          "ticks": 11689,
          "time": 41.7464111770833,
          "velocity": 0.440944881889764
        },
        {
          "duration": 0.160714218750002,
          "durationTicks": 45,
          "midi": 86,
          "name": "D6",
          "ticks": 11761,
          "time": 42.0035539270833,
          "velocity": 0.440944881889764
        },
        {
          "duration": 0.160714218750002,
          "durationTicks": 45,
          "midi": 86,
          "name": "D6",
          "ticks": 11761,
          "time": 42.0035539270833,
          "velocity": 0.551181102362205
        },
        {
          "duration": 0.157142791666665,
          "durationTicks": 44,
          "midi": 87,
          "name": "D#6",
          "ticks": 11809,
          "time": 42.1749824270833,
          "velocity": 0.559055118110236
        },
        {
          "duration": 0.157142791666665,
          "durationTicks": 44,
          "midi": 87,
          "name": "D#6",
          "ticks": 11809,
          "time": 42.1749824270833,
          "velocity": 0.448818897637795
        },
        {
          "duration": 0.160714218750002,
          "durationTicks": 45,
          "midi": 84,
          "name": "C6",
          "ticks": 11856,
          "time": 42.3428395,
          "velocity": 0.440944881889764
        },
        {
          "duration": 0.160714218750002,
          "durationTicks": 45,
          "midi": 84,
          "name": "C6",
          "ticks": 11856,
          "time": 42.3428395,
          "velocity": 0.551181102362205
        },
        {
          "duration": 0.171428500000005,
          "durationTicks": 48,
          "midi": 86,
          "name": "D6",
          "ticks": 11904,
          "time": 42.514268,
          "velocity": 0.590551181102362
        },
        {
          "duration": 0.171428500000005,
          "durationTicks": 48,
          "midi": 86,
          "name": "D6",
          "ticks": 11904,
          "time": 42.514268,
          "velocity": 0.480314960629921
        },
        {
          "duration": 0.157142791666665,
          "durationTicks": 44,
          "midi": 86,
          "name": "D6",
          "ticks": 11955,
          "time": 42.69641078125,
          "velocity": 0.440944881889764
        },
        {
          "duration": 0.157142791666665,
          "durationTicks": 44,
          "midi": 86,
          "name": "D6",
          "ticks": 11955,
          "time": 42.69641078125,
          "velocity": 0.519685039370079
        },
        {
          "duration": 0.160714218750002,
          "durationTicks": 45,
          "midi": 86,
          "name": "D6",
          "ticks": 12002,
          "time": 42.8642678541667,
          "velocity": 0.559055118110236
        },
        {
          "duration": 0.160714218750002,
          "durationTicks": 45,
          "midi": 86,
          "name": "D6",
          "ticks": 12002,
          "time": 42.8642678541667,
          "velocity": 0.448818897637795
        },
        {
          "duration": 0.0749999687499994,
          "durationTicks": 21,
          "midi": 84,
          "name": "C6",
          "ticks": 12050,
          "time": 43.0356963541667,
          "velocity": 0.551181102362205
        },
        {
          "duration": 0.0749999687499994,
          "durationTicks": 21,
          "midi": 84,
          "name": "C6",
          "ticks": 12050,
          "time": 43.0356963541667,
          "velocity": 0.440944881889764
        },
        {
          "duration": 0.0821428229166656,
          "durationTicks": 23,
          "midi": 86,
          "name": "D6",
          "ticks": 12073,
          "time": 43.1178391770833,
          "velocity": 0.551181102362205
        },
        {
          "duration": 0.0821428229166656,
          "durationTicks": 23,
          "midi": 86,
          "name": "D6",
          "ticks": 12073,
          "time": 43.1178391770833,
          "velocity": 0.440944881889764
        },
        {
          "duration": 0.157142791666665,
          "durationTicks": 44,
          "midi": 86,
          "name": "D6",
          "ticks": 12193,
          "time": 43.5464104270833,
          "velocity": 0.448818897637795
        },
        {
          "duration": 0.157142791666665,
          "durationTicks": 44,
          "midi": 98,
          "name": "D7",
          "ticks": 12193,
          "time": 43.5464104270833,
          "velocity": 0.559055118110236
        },
        {
          "duration": 0.171428499999998,
          "durationTicks": 48,
          "midi": 62,
          "name": "D4",
          "ticks": 12288,
          "time": 43.885696,
          "velocity": 0.590551181102362
        },
        {
          "duration": 0.157142791666672,
          "durationTicks": 44,
          "midi": 62,
          "name": "D4",
          "ticks": 12339,
          "time": 44.06783878125,
          "velocity": 0.503937007874016
        },
        {
          "duration": 0.160714218750002,
          "durationTicks": 45,
          "midi": 62,
          "name": "D4",
          "ticks": 12386,
          "time": 44.2356958541667,
          "velocity": 0.511811023622047
        },
        {
          "duration": 0.160714218749995,
          "durationTicks": 45,
          "midi": 65,
          "name": "F4",
          "ticks": 12434,
          "time": 44.4071243541667,
          "velocity": 0.503937007874016
        },
        {
          "duration": 0.678571145833345,
          "durationTicks": 190,
          "midi": 62,
          "name": "D4",
          "ticks": 12481,
          "time": 44.5749814270833,
          "velocity": 0.464566929133858
        },
        {
          "duration": 0.678571145833345,
          "durationTicks": 190,
          "midi": 65,
          "name": "F4",
          "ticks": 12481,
          "time": 44.5749814270833,
          "velocity": 0.464566929133858
        },
        {
          "duration": 0.678571145833345,
          "durationTicks": 190,
          "midi": 69,
          "name": "A4",
          "ticks": 12481,
          "time": 44.5749814270833,
          "velocity": 0.574803149606299
        },
        {
          "duration": 0.171428499999998,
          "durationTicks": 48,
          "midi": 67,
          "name": "G4",
          "ticks": 12672,
          "time": 45.257124,
          "velocity": 0.590551181102362
        },
        {
          "duration": 0.171428499999998,
          "durationTicks": 48,
          "midi": 64,
          "name": "E4",
          "ticks": 12672,
          "time": 45.257124,
          "velocity": 0.480314960629921
        },
        {
          "duration": 0.171428499999998,
          "durationTicks": 48,
          "midi": 60,
          "name": "C4",
          "ticks": 12672,
          "time": 45.257124,
          "velocity": 0.480314960629921
        },
        {
          "duration": 0.157142791666665,
          "durationTicks": 44,
          "midi": 67,
          "name": "G4",
          "ticks": 12723,
          "time": 45.43926678125,
          "velocity": 0.503937007874016
        },
        {
          "duration": 0.160714218750002,
          "durationTicks": 45,
          "midi": 67,
          "name": "G4",
          "ticks": 12770,
          "time": 45.6071238541667,
          "velocity": 0.511811023622047
        },
        {
          "duration": 0.160714218750002,
          "durationTicks": 45,
          "midi": 64,
          "name": "E4",
          "ticks": 12818,
          "time": 45.7785523541667,
          "velocity": 0.503937007874016
        },
        {
          "duration": 0.678571145833338,
          "durationTicks": 190,
          "midi": 60,
          "name": "C4",
          "ticks": 12865,
          "time": 45.9464094270833,
          "velocity": 0.574803149606299
        },
        {
          "duration": 0.678571145833338,
          "durationTicks": 190,
          "midi": 55,
          "name": "G3",
          "ticks": 12865,
          "time": 45.9464094270833,
          "velocity": 0.464566929133858
        },
        {
          "duration": 0.171428499999998,
          "durationTicks": 48,
          "midi": 58,
          "name": "A#3",
          "ticks": 13056,
          "time": 46.628552,
          "velocity": 0.590551181102362
        },
        {
          "duration": 0.157142791666672,
          "durationTicks": 44,
          "midi": 58,
          "name": "A#3",
          "ticks": 13107,
          "time": 46.81069478125,
          "velocity": 0.503937007874016
        },
        {
          "duration": 0.160714218750002,
          "durationTicks": 45,
          "midi": 58,
          "name": "A#3",
          "ticks": 13154,
          "time": 46.9785518541667,
          "velocity": 0.511811023622047
        },
        {
          "duration": 0.160714218750002,
          "durationTicks": 45,
          "midi": 62,
          "name": "D4",
          "ticks": 13202,
          "time": 47.1499803541667,
          "velocity": 0.503937007874016
        },
        {
          "duration": 0.342857000000002,
          "durationTicks": 96,
          "midi": 58,
          "name": "A#3",
          "ticks": 13249,
          "time": 47.3178374270833,
          "velocity": 0.464566929133858
        },
        {
          "duration": 0.342857000000002,
          "durationTicks": 96,
          "midi": 65,
          "name": "F4",
          "ticks": 13249,
          "time": 47.3178374270833,
          "velocity": 0.574803149606299
        },
        {
          "duration": 0.157142791666665,
          "durationTicks": 44,
          "midi": 64,
          "name": "E4",
          "ticks": 13345,
          "time": 47.6606944270833,
          "velocity": 0.511811023622047
        },
        {
          "duration": 0.160714218750002,
          "durationTicks": 45,
          "midi": 65,
          "name": "F4",
          "ticks": 13392,
          "time": 47.8285515,
          "velocity": 0.503937007874016
        },
        {
          "duration": 0.349999854166676,
          "durationTicks": 98,
          "midi": 67,
          "name": "G4",
          "ticks": 13440,
          "time": 47.99998,
          "velocity": 0.590551181102362
        },
        {
          "duration": 0.349999854166676,
          "durationTicks": 98,
          "midi": 64,
          "name": "E4",
          "ticks": 13440,
          "time": 47.99998,
          "velocity": 0.480314960629921
        },
        {
          "duration": 0.339285572916658,
          "durationTicks": 95,
          "midi": 64,
          "name": "E4",
          "ticks": 13538,
          "time": 48.3499798541667,
          "velocity": 0.511811023622047
        },
        {
          "duration": 0.678571145833338,
          "durationTicks": 190,
          "midi": 55,
          "name": "G3",
          "ticks": 13633,
          "time": 48.6892654270833,
          "velocity": 0.464566929133858
        },
        {
          "duration": 0.678571145833338,
          "durationTicks": 190,
          "midi": 60,
          "name": "C4",
          "ticks": 13633,
          "time": 48.6892654270833,
          "velocity": 0.574803149606299
        },
        {
          "duration": 0.171428499999998,
          "durationTicks": 48,
          "midi": 57,
          "name": "A3",
          "ticks": 13824,
          "time": 49.371408,
          "velocity": 0.480314960629921
        },
        {
          "duration": 0.171428499999998,
          "durationTicks": 48,
          "midi": 62,
          "name": "D4",
          "ticks": 13824,
          "time": 49.371408,
          "velocity": 0.590551181102362
        },
        {
          "duration": 0.157142791666672,
          "durationTicks": 44,
          "midi": 62,
          "name": "D4",
          "ticks": 13875,
          "time": 49.55355078125,
          "velocity": 0.503937007874016
        },
        {
          "duration": 0.160714218750002,
          "durationTicks": 45,
          "midi": 62,
          "name": "D4",
          "ticks": 13922,
          "time": 49.7214078541667,
          "velocity": 0.511811023622047
        },
        {
          "duration": 0.160714218749995,
          "durationTicks": 45,
          "midi": 65,
          "name": "F4",
          "ticks": 13970,
          "time": 49.8928363541667,
          "velocity": 0.503937007874016
        },
        {
          "duration": 0.678571145833338,
          "durationTicks": 190,
          "midi": 62,
          "name": "D4",
          "ticks": 14017,
          "time": 50.0606934270833,
          "velocity": 0.464566929133858
        },
        {
          "duration": 0.678571145833338,
          "durationTicks": 190,
          "midi": 65,
          "name": "F4",
          "ticks": 14017,
          "time": 50.0606934270833,
          "velocity": 0.464566929133858
        },
        {
          "duration": 0.678571145833338,
          "durationTicks": 190,
          "midi": 69,
          "name": "A4",
          "ticks": 14017,
          "time": 50.0606934270833,
          "velocity": 0.574803149606299
        },
        {
          "duration": 0.171428499999998,
          "durationTicks": 48,
          "midi": 60,
          "name": "C4",
          "ticks": 14208,
          "time": 50.742836,
          "velocity": 0.480314960629921
        },
        {
          "duration": 0.171428499999998,
          "durationTicks": 48,
          "midi": 64,
          "name": "E4",
          "ticks": 14208,
          "time": 50.742836,
          "velocity": 0.480314960629921
        },
        {
          "duration": 0.171428499999998,
          "durationTicks": 48,
          "midi": 67,
          "name": "G4",
          "ticks": 14208,
          "time": 50.742836,
          "velocity": 0.590551181102362
        },
        {
          "duration": 0.157142791666672,
          "durationTicks": 44,
          "midi": 67,
          "name": "G4",
          "ticks": 14259,
          "time": 50.92497878125,
          "velocity": 0.503937007874016
        },
        {
          "duration": 0.160714218750002,
          "durationTicks": 45,
          "midi": 67,
          "name": "G4",
          "ticks": 14306,
          "time": 51.0928358541667,
          "velocity": 0.511811023622047
        },
        {
          "duration": 0.160714218750002,
          "durationTicks": 45,
          "midi": 64,
          "name": "E4",
          "ticks": 14354,
          "time": 51.2642643541667,
          "velocity": 0.503937007874016
        },
        {
          "duration": 0.678571145833345,
          "durationTicks": 190,
          "midi": 55,
          "name": "G3",
          "ticks": 14401,
          "time": 51.4321214270833,
          "velocity": 0.464566929133858
        },
        {
          "duration": 0.678571145833345,
          "durationTicks": 190,
          "midi": 60,
          "name": "C4",
          "ticks": 14401,
          "time": 51.4321214270833,
          "velocity": 0.574803149606299
        },
        {
          "duration": 0.189285635416667,
          "durationTicks": 53,
          "midi": 65,
          "name": "F4",
          "ticks": 14592,
          "time": 52.114264,
          "velocity": 0.448818897637795
        },
        {
          "duration": 0.178571354166664,
          "durationTicks": 50,
          "midi": 62,
          "name": "D4",
          "ticks": 14643,
          "time": 52.29640678125,
          "velocity": 0.409448818897638
        },
        {
          "duration": 0.178571354166657,
          "durationTicks": 50,
          "midi": 58,
          "name": "A#3",
          "ticks": 14690,
          "time": 52.4642638541667,
          "velocity": 0.417322834645669
        },
        {
          "duration": 0.178571354166664,
          "durationTicks": 50,
          "midi": 65,
          "name": "F4",
          "ticks": 14738,
          "time": 52.6356923541667,
          "velocity": 0.409448818897638
        },
        {
          "duration": 0.182142781250001,
          "durationTicks": 51,
          "midi": 64,
          "name": "E4",
          "ticks": 14785,
          "time": 52.8035494270833,
          "velocity": 0.433070866141732
        },
        {
          "duration": 0.178571354166671,
          "durationTicks": 50,
          "midi": 60,
          "name": "C4",
          "ticks": 14833,
          "time": 52.9749779270833,
          "velocity": 0.409448818897638
        },
        {
          "duration": 0.178571354166671,
          "durationTicks": 50,
          "midi": 55,
          "name": "G3",
          "ticks": 14881,
          "time": 53.1464064270833,
          "velocity": 0.417322834645669
        },
        {
          "duration": 0.149999937499999,
          "durationTicks": 42,
          "midi": 64,
          "name": "E4",
          "ticks": 14928,
          "time": 53.3142635,
          "velocity": 0.409448818897638
        },
        {
          "duration": 0.521428354166673,
          "durationTicks": 146,
          "midi": 64,
          "name": "E4",
          "ticks": 14976,
          "time": 53.485692,
          "velocity": 0.543307086614173
        },
        {
          "duration": 0.160714218750002,
          "durationTicks": 45,
          "midi": 66,
          "name": "F#4",
          "ticks": 15122,
          "time": 54.0071203541667,
          "velocity": 0.503937007874016
        },
        {
          "duration": 0.0857142500000023,
          "durationTicks": 24,
          "midi": 57,
          "name": "A3",
          "ticks": 15169,
          "time": 54.1749774270833,
          "velocity": 0.52755905511811
        },
        {
          "duration": 0.249999895833341,
          "durationTicks": 70,
          "midi": 66,
          "name": "F#4",
          "ticks": 15169,
          "time": 54.1749774270833,
          "velocity": 0.52755905511811
        },
        {
          "duration": 0.078571395833329,
          "durationTicks": 22,
          "midi": 62,
          "name": "D4",
          "ticks": 15194,
          "time": 54.2642631041667,
          "velocity": 0.503937007874016
        },
        {
          "duration": 0.332142718749999,
          "durationTicks": 93,
          "midi": 66,
          "name": "F#4",
          "ticks": 15217,
          "time": 54.3464059270833,
          "velocity": 0.503937007874016
        },
        {
          "duration": 0.0785713958333361,
          "durationTicks": 22,
          "midi": 69,
          "name": "A4",
          "ticks": 15241,
          "time": 54.4321201770833,
          "velocity": 0.503937007874016
        },
        {
          "duration": 0.0785713958333361,
          "durationTicks": 22,
          "midi": 62,
          "name": "D4",
          "ticks": 15265,
          "time": 54.5178344270833,
          "velocity": 0.511811023622047
        },
        {
          "duration": 0.249999895833341,
          "durationTicks": 70,
          "midi": 66,
          "name": "F#4",
          "ticks": 15289,
          "time": 54.6035486770833,
          "velocity": 0.503937007874016
        },
        {
          "duration": 0.078571395833329,
          "durationTicks": 22,
          "midi": 69,
          "name": "A4",
          "ticks": 15312,
          "time": 54.6856915,
          "velocity": 0.503937007874016
        },
        {
          "duration": 0.0821428229166585,
          "durationTicks": 23,
          "midi": 74,
          "name": "D5",
          "ticks": 15335,
          "time": 54.7678343229167,
          "velocity": 0.503937007874016
        },
        {
          "duration": 0.171428500000005,
          "durationTicks": 48,
          "midi": 62,
          "name": "D4",
          "ticks": 15360,
          "time": 54.85712,
          "velocity": 0.590551181102362
        },
        {
          "duration": 0.171428500000005,
          "durationTicks": 48,
          "midi": 57,
          "name": "A3",
          "ticks": 15360,
          "time": 54.85712,
          "velocity": 0.480314960629921
        },
        {
          "duration": 0.157142791666672,
          "durationTicks": 44,
          "midi": 62,
          "name": "D4",
          "ticks": 15411,
          "time": 55.03926278125,
          "velocity": 0.503937007874016
        },
        {
          "duration": 0.160714218750002,
          "durationTicks": 45,
          "midi": 62,
          "name": "D4",
          "ticks": 15458,
          "time": 55.2071198541667,
          "velocity": 0.511811023622047
        },
        {
          "duration": 0.160714218750002,
          "durationTicks": 45,
          "midi": 65,
          "name": "F4",
          "ticks": 15506,
          "time": 55.3785483541667,
          "velocity": 0.503937007874016
        },
        {
          "duration": 0.342856999999995,
          "durationTicks": 96,
          "midi": 69,
          "name": "A4",
          "ticks": 15553,
          "time": 55.5464054270833,
          "velocity": 0.574803149606299
        },
        {
          "duration": 0.342856999999995,
          "durationTicks": 96,
          "midi": 65,
          "name": "F4",
          "ticks": 15553,
          "time": 55.5464054270833,
          "velocity": 0.464566929133858
        },
        {
          "duration": 0.342856999999995,
          "durationTicks": 96,
          "midi": 62,
          "name": "D4",
          "ticks": 15553,
          "time": 55.5464054270833,
          "velocity": 0.464566929133858
        },
        {
          "duration": 0.335714145833343,
          "durationTicks": 94,
          "midi": 81,
          "name": "A5",
          "ticks": 15649,
          "time": 55.8892624270833,
          "velocity": 0.559055118110236
        },
        {
          "duration": 0.335714145833343,
          "durationTicks": 94,
          "midi": 77,
          "name": "F5",
          "ticks": 15649,
          "time": 55.8892624270833,
          "velocity": 0.448818897637795
        },
        {
          "duration": 0.335714145833343,
          "durationTicks": 94,
          "midi": 74,
          "name": "D5",
          "ticks": 15649,
          "time": 55.8892624270833,
          "velocity": 0.448818897637795
        },
        {
          "duration": 0.171428499999998,
          "durationTicks": 48,
          "midi": 67,
          "name": "G4",
          "ticks": 15744,
          "time": 56.228548,
          "velocity": 0.590551181102362
        },
        {
          "duration": 0.171428499999998,
          "durationTicks": 48,
          "midi": 64,
          "name": "E4",
          "ticks": 15744,
          "time": 56.228548,
          "velocity": 0.480314960629921
        },
        {
          "duration": 0.171428499999998,
          "durationTicks": 48,
          "midi": 60,
          "name": "C4",
          "ticks": 15744,
          "time": 56.228548,
          "velocity": 0.480314960629921
        },
        {
          "duration": 0.157142791666672,
          "durationTicks": 44,
          "midi": 67,
          "name": "G4",
          "ticks": 15795,
          "time": 56.41069078125,
          "velocity": 0.503937007874016
        },
        {
          "duration": 0.160714218750002,
          "durationTicks": 45,
          "midi": 67,
          "name": "G4",
          "ticks": 15842,
          "time": 56.5785478541667,
          "velocity": 0.511811023622047
        },
        {
          "duration": 0.160714218749995,
          "durationTicks": 45,
          "midi": 64,
          "name": "E4",
          "ticks": 15890,
          "time": 56.7499763541667,
          "velocity": 0.503937007874016
        },
        {
          "duration": 0.342857000000002,
          "durationTicks": 96,
          "midi": 60,
          "name": "C4",
          "ticks": 15937,
          "time": 56.9178334270833,
          "velocity": 0.543307086614173
        },
        {
          "duration": 0.342857000000002,
          "durationTicks": 96,
          "midi": 55,
          "name": "G3",
          "ticks": 15937,
          "time": 56.9178334270833,
          "velocity": 0.464566929133858
        },
        {
          "duration": 0.335714145833343,
          "durationTicks": 94,
          "midi": 60,
          "name": "C4",
          "ticks": 16033,
          "time": 57.2606904270833,
          "velocity": 0.559055118110236
        },
        {
          "duration": 0.335714145833343,
          "durationTicks": 94,
          "midi": 55,
          "name": "G3",
          "ticks": 16033,
          "time": 57.2606904270833,
          "velocity": 0.448818897637795
        },
        {
          "duration": 0.171428499999998,
          "durationTicks": 48,
          "midi": 53,
          "name": "F3",
          "ticks": 16128,
          "time": 57.599976,
          "velocity": 0.480314960629921
        },
        {
          "duration": 0.171428499999998,
          "durationTicks": 48,
          "midi": 58,
          "name": "A#3",
          "ticks": 16128,
          "time": 57.599976,
          "velocity": 0.590551181102362
        },
        {
          "duration": 0.157142791666665,
          "durationTicks": 44,
          "midi": 58,
          "name": "A#3",
          "ticks": 16179,
          "time": 57.78211878125,
          "velocity": 0.503937007874016
        },
        {
          "duration": 0.160714218750002,
          "durationTicks": 45,
          "midi": 58,
          "name": "A#3",
          "ticks": 16226,
          "time": 57.9499758541667,
          "velocity": 0.511811023622047
        },
        {
          "duration": 0.160714218750002,
          "durationTicks": 45,
          "midi": 62,
          "name": "D4",
          "ticks": 16274,
          "time": 58.1214043541667,
          "velocity": 0.503937007874016
        },
        {
          "duration": 0.342857000000002,
          "durationTicks": 96,
          "midi": 58,
          "name": "A#3",
          "ticks": 16321,
          "time": 58.2892614270833,
          "velocity": 0.464566929133858
        },
        {
          "duration": 0.342857000000002,
          "durationTicks": 96,
          "midi": 65,
          "name": "F4",
          "ticks": 16321,
          "time": 58.2892614270833,
          "velocity": 0.574803149606299
        },
        {
          "duration": 0.157142791666672,
          "durationTicks": 44,
          "midi": 64,
          "name": "E4",
          "ticks": 16417,
          "time": 58.6321184270833,
          "velocity": 0.511811023622047
        },
        {
          "duration": 0.160714218750002,
          "durationTicks": 45,
          "midi": 65,
          "name": "F4",
          "ticks": 16464,
          "time": 58.7999755,
          "velocity": 0.503937007874016
        },
        {
          "duration": 0.349999854166668,
          "durationTicks": 98,
          "midi": 64,
          "name": "E4",
          "ticks": 16512,
          "time": 58.971404,
          "velocity": 0.480314960629921
        },
        {
          "duration": 0.349999854166668,
          "durationTicks": 98,
          "midi": 67,
          "name": "G4",
          "ticks": 16512,
          "time": 58.971404,
          "velocity": 0.590551181102362
        },
        {
          "duration": 0.339285572916658,
          "durationTicks": 95,
          "midi": 64,
          "name": "E4",
          "ticks": 16610,
          "time": 59.3214038541667,
          "velocity": 0.511811023622047
        },
        {
          "duration": 0.678571145833338,
          "durationTicks": 190,
          "midi": 55,
          "name": "G3",
          "ticks": 16705,
          "time": 59.6606894270833,
          "velocity": 0.464566929133858
        },
        {
          "duration": 0.678571145833338,
          "durationTicks": 190,
          "midi": 60,
          "name": "C4",
          "ticks": 16705,
          "time": 59.6606894270833,
          "velocity": 0.574803149606299
        },
        {
          "duration": 0.0928571041666757,
          "durationTicks": 26,
          "midi": 62,
          "name": "D4",
          "ticks": 16896,
          "time": 60.342832,
          "velocity": 0.543307086614173
        },
        {
          "duration": 0.078571395833329,
          "durationTicks": 22,
          "midi": 62,
          "name": "D4",
          "ticks": 16923,
          "time": 60.43926053125,
          "velocity": 0.503937007874016
        },
        {
          "duration": 0.0749999687499994,
          "durationTicks": 21,
          "midi": 62,
          "name": "D4",
          "ticks": 16947,
          "time": 60.52497478125,
          "velocity": 0.503937007874016
        },
        {
          "duration": 0.0821428229166585,
          "durationTicks": 23,
          "midi": 62,
          "name": "D4",
          "ticks": 16970,
          "time": 60.6071176041667,
          "velocity": 0.503937007874016
        },
        {
          "duration": 0.0821428229166585,
          "durationTicks": 23,
          "midi": 62,
          "name": "D4",
          "ticks": 16994,
          "time": 60.6928318541667,
          "velocity": 0.511811023622047
        },
        {
          "duration": 0.0749999687499994,
          "durationTicks": 21,
          "midi": 62,
          "name": "D4",
          "ticks": 17019,
          "time": 60.78211753125,
          "velocity": 0.503937007874016
        },
        {
          "duration": 0.0749999687499994,
          "durationTicks": 21,
          "midi": 64,
          "name": "E4",
          "ticks": 17042,
          "time": 60.8642603541667,
          "velocity": 0.503937007874016
        },
        {
          "duration": 0.0821428229166727,
          "durationTicks": 23,
          "midi": 64,
          "name": "E4",
          "ticks": 17065,
          "time": 60.9464031770833,
          "velocity": 0.503937007874016
        },
        {
          "duration": 0.0857142500000023,
          "durationTicks": 24,
          "midi": 65,
          "name": "F4",
          "ticks": 17089,
          "time": 61.0321174270833,
          "velocity": 0.52755905511811
        },
        {
          "duration": 0.078571395833329,
          "durationTicks": 22,
          "midi": 65,
          "name": "F4",
          "ticks": 17114,
          "time": 61.1214031041667,
          "velocity": 0.503937007874016
        },
        {
          "duration": 0.0785713958333432,
          "durationTicks": 22,
          "midi": 65,
          "name": "F4",
          "ticks": 17137,
          "time": 61.2035459270833,
          "velocity": 0.503937007874016
        },
        {
          "duration": 0.0785713958333361,
          "durationTicks": 22,
          "midi": 65,
          "name": "F4",
          "ticks": 17161,
          "time": 61.2892601770833,
          "velocity": 0.503937007874016
        },
        {
          "duration": 0.0785713958333361,
          "durationTicks": 22,
          "midi": 65,
          "name": "F4",
          "ticks": 17185,
          "time": 61.3749744270833,
          "velocity": 0.511811023622047
        },
        {
          "duration": 0.0749999687499994,
          "durationTicks": 21,
          "midi": 65,
          "name": "F4",
          "ticks": 17209,
          "time": 61.4606886770833,
          "velocity": 0.503937007874016
        },
        {
          "duration": 0.078571395833329,
          "durationTicks": 22,
          "midi": 67,
          "name": "G4",
          "ticks": 17232,
          "time": 61.5428315,
          "velocity": 0.503937007874016
        },
        {
          "duration": 0.0821428229166656,
          "durationTicks": 23,
          "midi": 67,
          "name": "G4",
          "ticks": 17255,
          "time": 61.6249743229167,
          "velocity": 0.503937007874016
        },
        {
          "duration": 0.0928571041666686,
          "durationTicks": 26,
          "midi": 69,
          "name": "A4",
          "ticks": 17280,
          "time": 61.71426,
          "velocity": 0.543307086614173
        },
        {
          "duration": 0.0785713958333361,
          "durationTicks": 22,
          "midi": 69,
          "name": "A4",
          "ticks": 17307,
          "time": 61.81068853125,
          "velocity": 0.503937007874016
        },
        {
          "duration": 0.0749999687499994,
          "durationTicks": 21,
          "midi": 69,
          "name": "A4",
          "ticks": 17331,
          "time": 61.89640278125,
          "velocity": 0.503937007874016
        },
        {
          "duration": 0.0821428229166585,
          "durationTicks": 23,
          "midi": 69,
          "name": "A4",
          "ticks": 17354,
          "time": 61.9785456041667,
          "velocity": 0.503937007874016
        },
        {
          "duration": 0.160714218750002,
          "durationTicks": 45,
          "midi": 69,
          "name": "A4",
          "ticks": 17378,
          "time": 62.0642598541667,
          "velocity": 0.511811023622047
        },
        {
          "duration": 0.160714218749995,
          "durationTicks": 45,
          "midi": 69,
          "name": "A4",
          "ticks": 17426,
          "time": 62.2356883541667,
          "velocity": 0.503937007874016
        },
        {
          "duration": 0.160714218749995,
          "durationTicks": 45,
          "midi": 67,
          "name": "G4",
          "ticks": 17473,
          "time": 62.4035454270833,
          "velocity": 0.52755905511811
        },
        {
          "duration": 0.160714218750002,
          "durationTicks": 45,
          "midi": 69,
          "name": "A4",
          "ticks": 17521,
          "time": 62.5749739270833,
          "velocity": 0.503937007874016
        },
        {
          "duration": 0.335714145833343,
          "durationTicks": 94,
          "midi": 69,
          "name": "A4",
          "ticks": 17569,
          "time": 62.7464024270833,
          "velocity": 0.511811023622047
        },
        {
          "duration": 0.171428499999998,
          "durationTicks": 48,
          "midi": 65,
          "name": "F4",
          "ticks": 17664,
          "time": 63.085688,
          "velocity": 0.590551181102362
        },
        {
          "duration": 0.171428499999998,
          "durationTicks": 48,
          "midi": 62,
          "name": "D4",
          "ticks": 17664,
          "time": 63.085688,
          "velocity": 0.480314960629921
        },
        {
          "duration": 0.171428499999998,
          "durationTicks": 48,
          "midi": 58,
          "name": "A#3",
          "ticks": 17664,
          "time": 63.085688,
          "velocity": 0.480314960629921
        },
        {
          "duration": 0.171428499999998,
          "durationTicks": 48,
          "midi": 53,
          "name": "F3",
          "ticks": 17664,
          "time": 63.085688,
          "velocity": 0.480314960629921
        },
        {
          "duration": 0.157142791666672,
          "durationTicks": 44,
          "midi": 62,
          "name": "D4",
          "ticks": 17715,
          "time": 63.26783078125,
          "velocity": 0.503937007874016
        },
        {
          "duration": 0.160714218750002,
          "durationTicks": 45,
          "midi": 58,
          "name": "A#3",
          "ticks": 17762,
          "time": 63.4356878541667,
          "velocity": 0.511811023622047
        },
        {
          "duration": 0.160714218750002,
          "durationTicks": 45,
          "midi": 65,
          "name": "F4",
          "ticks": 17810,
          "time": 63.6071163541667,
          "velocity": 0.503937007874016
        },
        {
          "duration": 0.160714218750002,
          "durationTicks": 45,
          "midi": 55,
          "name": "G3",
          "ticks": 17857,
          "time": 63.7749734270833,
          "velocity": 0.464566929133858
        },
        {
          "duration": 0.160714218750002,
          "durationTicks": 45,
          "midi": 60,
          "name": "C4",
          "ticks": 17857,
          "time": 63.7749734270833,
          "velocity": 0.464566929133858
        },
        {
          "duration": 0.160714218750002,
          "durationTicks": 45,
          "midi": 64,
          "name": "E4",
          "ticks": 17857,
          "time": 63.7749734270833,
          "velocity": 0.574803149606299
        },
        {
          "duration": 0.160714218749995,
          "durationTicks": 45,
          "midi": 60,
          "name": "C4",
          "ticks": 17905,
          "time": 63.9464019270833,
          "velocity": 0.503937007874016
        },
        {
          "duration": 0.157142791666672,
          "durationTicks": 44,
          "midi": 55,
          "name": "G3",
          "ticks": 17953,
          "time": 64.1178304270833,
          "velocity": 0.511811023622047
        },
        {
          "duration": 0.160714218750002,
          "durationTicks": 45,
          "midi": 64,
          "name": "E4",
          "ticks": 18000,
          "time": 64.2856875,
          "velocity": 0.503937007874016
        },
        {
          "duration": 0.503571218750011,
          "durationTicks": 141,
          "midi": 64,
          "name": "E4",
          "ticks": 18048,
          "time": 64.457116,
          "velocity": 0.503937007874016
        },
        {
          "duration": 0.160714218750002,
          "durationTicks": 45,
          "midi": 62,
          "name": "D4",
          "ticks": 18192,
          "time": 64.9714015,
          "velocity": 0.503937007874016
        },
        {
          "duration": 0.503571218749997,
          "durationTicks": 141,
          "midi": 62,
          "name": "D4",
          "ticks": 18240,
          "time": 65.14283,
          "velocity": 0.503937007874016
        },
        {
          "duration": 0.17142849999999,
          "durationTicks": 48,
          "midi": 59,
          "name": "B3",
          "ticks": 18432,
          "time": 65.828544,
          "velocity": 0.590551181102362
        },
        {
          "duration": 0.17142849999999,
          "durationTicks": 48,
          "midi": 55,
          "name": "G3",
          "ticks": 18432,
          "time": 65.828544,
          "velocity": 0.480314960629921
        },
        {
          "duration": 0.157142791666672,
          "durationTicks": 44,
          "midi": 57,
          "name": "A3",
          "ticks": 18483,
          "time": 66.01068678125,
          "velocity": 0.503937007874016
        },
        {
          "duration": 0.160714218750002,
          "durationTicks": 45,
          "midi": 59,
          "name": "B3",
          "ticks": 18530,
          "time": 66.1785438541667,
          "velocity": 0.511811023622047
        },
        {
          "duration": 0.846428218749992,
          "durationTicks": 237,
          "midi": 62,
          "name": "D4",
          "ticks": 18578,
          "time": 66.3499723541667,
          "velocity": 0.519685039370079
        },
        {
          "duration": 0.846428218749992,
          "durationTicks": 237,
          "midi": 55,
          "name": "G3",
          "ticks": 18578,
          "time": 66.3499723541667,
          "velocity": 0.440944881889764
        },
        {
          "duration": 0.171428500000005,
          "durationTicks": 48,
          "midi": 59,
          "name": "B3",
          "ticks": 18816,
          "time": 67.199972,
          "velocity": 0.590551181102362
        },
        {
          "duration": 0.157142791666658,
          "durationTicks": 44,
          "midi": 57,
          "name": "A3",
          "ticks": 18867,
          "time": 67.38211478125,
          "velocity": 0.503937007874016
        },
        {
          "duration": 0.160714218750002,
          "durationTicks": 45,
          "midi": 59,
          "name": "B3",
          "ticks": 18914,
          "time": 67.5499718541667,
          "velocity": 0.511811023622047
        },
        {
          "duration": 0.328571291666663,
          "durationTicks": 92,
          "midi": 62,
          "name": "D4",
          "ticks": 18962,
          "time": 67.7214003541667,
          "velocity": 0.519685039370079
        },
        {
          "duration": 0.160714218749987,
          "durationTicks": 45,
          "midi": 64,
          "name": "E4",
          "ticks": 19057,
          "time": 68.0606859270833,
          "velocity": 0.503937007874016
        },
        {
          "duration": 0.157142791666672,
          "durationTicks": 44,
          "midi": 59,
          "name": "B3",
          "ticks": 19105,
          "time": 68.2321144270833,
          "velocity": 0.511811023622047
        },
        {
          "duration": 0.160714218750002,
          "durationTicks": 45,
          "midi": 57,
          "name": "A3",
          "ticks": 19152,
          "time": 68.3999715,
          "velocity": 0.503937007874016
        },
        {
          "duration": 0.17142849999999,
          "durationTicks": 48,
          "midi": 54,
          "name": "F#3",
          "ticks": 19200,
          "time": 68.5714,
          "velocity": 0.480314960629921
        },
        {
          "duration": 0.17142849999999,
          "durationTicks": 48,
          "midi": 59,
          "name": "B3",
          "ticks": 19200,
          "time": 68.5714,
          "velocity": 0.590551181102362
        },
        {
          "duration": 0.157142791666672,
          "durationTicks": 44,
          "midi": 57,
          "name": "A3",
          "ticks": 19251,
          "time": 68.75354278125,
          "velocity": 0.503937007874016
        },
        {
          "duration": 0.160714218750002,
          "durationTicks": 45,
          "midi": 59,
          "name": "B3",
          "ticks": 19298,
          "time": 68.9213998541667,
          "velocity": 0.511811023622047
        },
        {
          "duration": 0.846428218750006,
          "durationTicks": 237,
          "midi": 62,
          "name": "D4",
          "ticks": 19346,
          "time": 69.0928283541667,
          "velocity": 0.519685039370079
        },
        {
          "duration": 0.846428218750006,
          "durationTicks": 237,
          "midi": 54,
          "name": "F#3",
          "ticks": 19346,
          "time": 69.0928283541667,
          "velocity": 0.440944881889764
        },
        {
          "duration": 0.171428500000005,
          "durationTicks": 48,
          "midi": 59,
          "name": "B3",
          "ticks": 19584,
          "time": 69.942828,
          "velocity": 0.543307086614173
        },
        {
          "duration": 0.157142791666672,
          "durationTicks": 44,
          "midi": 57,
          "name": "A3",
          "ticks": 19635,
          "time": 70.12497078125,
          "velocity": 0.503937007874016
        },
        {
          "duration": 0.160714218750002,
          "durationTicks": 45,
          "midi": 59,
          "name": "B3",
          "ticks": 19682,
          "time": 70.2928278541667,
          "velocity": 0.511811023622047
        },
        {
          "duration": 0.328571291666663,
          "durationTicks": 92,
          "midi": 57,
          "name": "A3",
          "ticks": 19730,
          "time": 70.4642563541667,
          "velocity": 0.440944881889764
        },
        {
          "duration": 0.328571291666663,
          "durationTicks": 92,
          "midi": 66,
          "name": "F#4",
          "ticks": 19730,
          "time": 70.4642563541667,
          "velocity": 0.519685039370079
        },
        {
          "duration": 0.160714218750002,
          "durationTicks": 45,
          "midi": 66,
          "name": "F#4",
          "ticks": 19825,
          "time": 70.8035419270833,
          "velocity": 0.503937007874016
        },
        {
          "duration": 0.335714145833336,
          "durationTicks": 94,
          "midi": 64,
          "name": "E4",
          "ticks": 19873,
          "time": 70.9749704270833,
          "velocity": 0.511811023622047
        },
        {
          "duration": 0.171428500000005,
          "durationTicks": 48,
          "midi": 59,
          "name": "B3",
          "ticks": 19968,
          "time": 71.314256,
          "velocity": 0.590551181102362
        },
        {
          "duration": 0.171428500000005,
          "durationTicks": 48,
          "midi": 55,
          "name": "G3",
          "ticks": 19968,
          "time": 71.314256,
          "velocity": 0.480314960629921
        },
        {
          "duration": 0.157142791666672,
          "durationTicks": 44,
          "midi": 57,
          "name": "A3",
          "ticks": 20019,
          "time": 71.49639878125,
          "velocity": 0.503937007874016
        },
        {
          "duration": 0.160714218750002,
          "durationTicks": 45,
          "midi": 59,
          "name": "B3",
          "ticks": 20066,
          "time": 71.6642558541667,
          "velocity": 0.511811023622047
        },
        {
          "duration": 0.328571291666663,
          "durationTicks": 92,
          "midi": 62,
          "name": "D4",
          "ticks": 20114,
          "time": 71.8356843541667,
          "velocity": 0.519685039370079
        },
        {
          "duration": 0.328571291666663,
          "durationTicks": 92,
          "midi": 55,
          "name": "G3",
          "ticks": 20114,
          "time": 71.8356843541667,
          "velocity": 0.440944881889764
        },
        {
          "duration": 0.160714218750002,
          "durationTicks": 45,
          "midi": 62,
          "name": "D4",
          "ticks": 20209,
          "time": 72.1749699270833,
          "velocity": 0.503937007874016
        },
        {
          "duration": 0.157142791666672,
          "durationTicks": 44,
          "midi": 59,
          "name": "B3",
          "ticks": 20257,
          "time": 72.3463984270833,
          "velocity": 0.511811023622047
        },
        {
          "duration": 0.160714218750002,
          "durationTicks": 45,
          "midi": 57,
          "name": "A3",
          "ticks": 20304,
          "time": 72.5142555,
          "velocity": 0.503937007874016
        },
        {
          "duration": 0.349999854166668,
          "durationTicks": 98,
          "midi": 56,
          "name": "G#3",
          "ticks": 20352,
          "time": 72.685684,
          "velocity": 0.480314960629921
        },
        {
          "duration": 0.349999854166668,
          "durationTicks": 98,
          "midi": 62,
          "name": "D4",
          "ticks": 20352,
          "time": 72.685684,
          "velocity": 0.480314960629921
        },
        {
          "duration": 0.349999854166668,
          "durationTicks": 98,
          "midi": 66,
          "name": "F#4",
          "ticks": 20352,
          "time": 72.685684,
          "velocity": 0.559055118110236
        },
        {
          "duration": 0.339285572916651,
          "durationTicks": 95,
          "midi": 66,
          "name": "F#4",
          "ticks": 20450,
          "time": 73.0356838541667,
          "velocity": 0.559055118110236
        },
        {
          "duration": 0.339285572916651,
          "durationTicks": 95,
          "midi": 62,
          "name": "D4",
          "ticks": 20450,
          "time": 73.0356838541667,
          "velocity": 0.448818897637795
        },
        {
          "duration": 0.339285572916651,
          "durationTicks": 95,
          "midi": 56,
          "name": "G#3",
          "ticks": 20450,
          "time": 73.0356838541667,
          "velocity": 0.448818897637795
        },
        {
          "duration": 0.342857000000009,
          "durationTicks": 96,
          "midi": 68,
          "name": "G#4",
          "ticks": 20545,
          "time": 73.3749694270833,
          "velocity": 0.574803149606299
        },
        {
          "duration": 0.342857000000009,
          "durationTicks": 96,
          "midi": 64,
          "name": "E4",
          "ticks": 20545,
          "time": 73.3749694270833,
          "velocity": 0.464566929133858
        },
        {
          "duration": 0.342857000000009,
          "durationTicks": 96,
          "midi": 62,
          "name": "D4",
          "ticks": 20545,
          "time": 73.3749694270833,
          "velocity": 0.464566929133858
        },
        {
          "duration": 0.342857000000009,
          "durationTicks": 96,
          "midi": 56,
          "name": "G#3",
          "ticks": 20545,
          "time": 73.3749694270833,
          "velocity": 0.464566929133858
        },
        {
          "duration": 0.335714145833336,
          "durationTicks": 94,
          "midi": 56,
          "name": "G#3",
          "ticks": 20641,
          "time": 73.7178264270833,
          "velocity": 0.448818897637795
        },
        {
          "duration": 0.335714145833336,
          "durationTicks": 94,
          "midi": 62,
          "name": "D4",
          "ticks": 20641,
          "time": 73.7178264270833,
          "velocity": 0.448818897637795
        },
        {
          "duration": 0.335714145833336,
          "durationTicks": 94,
          "midi": 64,
          "name": "E4",
          "ticks": 20641,
          "time": 73.7178264270833,
          "velocity": 0.448818897637795
        },
        {
          "duration": 0.335714145833336,
          "durationTicks": 94,
          "midi": 68,
          "name": "G#4",
          "ticks": 20641,
          "time": 73.7178264270833,
          "velocity": 0.559055118110236
        },
        {
          "duration": 0.0535714062500006,
          "durationTicks": 15,
          "midi": 69,
          "name": "A4",
          "ticks": 20736,
          "time": 74.057112,
          "velocity": 0.590551181102362
        },
        {
          "duration": 0.0535714062500006,
          "durationTicks": 15,
          "midi": 64,
          "name": "E4",
          "ticks": 20736,
          "time": 74.057112,
          "velocity": 0.480314960629921
        },
        {
          "duration": 0.0535714062500006,
          "durationTicks": 15,
          "midi": 61,
          "name": "C#4",
          "ticks": 20736,
          "time": 74.057112,
          "velocity": 0.480314960629921
        },
        {
          "duration": 0.0535714062500006,
          "durationTicks": 15,
          "midi": 57,
          "name": "A3",
          "ticks": 20736,
          "time": 74.057112,
          "velocity": 0.480314960629921
        },
        {
          "duration": 0.039285697916668,
          "durationTicks": 11,
          "midi": 71,
          "name": "B4",
          "ticks": 20752,
          "time": 74.1142548333333,
          "velocity": 0.503937007874016
        },
        {
          "duration": 0.039285697916668,
          "durationTicks": 11,
          "midi": 72,
          "name": "C5",
          "ticks": 20763,
          "time": 74.15354053125,
          "velocity": 0.503937007874016
        },
        {
          "duration": 0.0392856979166822,
          "durationTicks": 11,
          "midi": 74,
          "name": "D5",
          "ticks": 20775,
          "time": 74.19639765625,
          "velocity": 0.503937007874016
        },
        {
          "duration": 0.0357142708333242,
          "durationTicks": 10,
          "midi": 76,
          "name": "E5",
          "ticks": 20787,
          "time": 74.23925478125,
          "velocity": 0.503937007874016
        },
        {
          "duration": 0.0392856979166538,
          "durationTicks": 11,
          "midi": 77,
          "name": "F5",
          "ticks": 20798,
          "time": 74.2785404791667,
          "velocity": 0.503937007874016
        },
        {
          "duration": 0.0392856979166538,
          "durationTicks": 11,
          "midi": 79,
          "name": "G5",
          "ticks": 20810,
          "time": 74.3213976041667,
          "velocity": 0.503937007874016
        },
        {
          "duration": 0.0392856979166538,
          "durationTicks": 11,
          "midi": 81,
          "name": "A5",
          "ticks": 20822,
          "time": 74.3642547291667,
          "velocity": 0.503937007874016
        },
        {
          "duration": 0.0428571249999976,
          "durationTicks": 12,
          "midi": 83,
          "name": "B5",
          "ticks": 20834,
          "time": 74.4071118541667,
          "velocity": 0.511811023622047
        },
        {
          "duration": 0.0392856979166822,
          "durationTicks": 11,
          "midi": 84,
          "name": "C6",
          "ticks": 20847,
          "time": 74.45354040625,
          "velocity": 0.503937007874016
        },
        {
          "duration": 0.0357142708333242,
          "durationTicks": 10,
          "midi": 86,
          "name": "D6",
          "ticks": 20859,
          "time": 74.49639753125,
          "velocity": 0.503937007874016
        },
        {
          "duration": 0.0392856979166538,
          "durationTicks": 11,
          "midi": 88,
          "name": "E6",
          "ticks": 20870,
          "time": 74.5356832291667,
          "velocity": 0.503937007874016
        },
        {
          "duration": 0.0357142708333242,
          "durationTicks": 10,
          "midi": 89,
          "name": "F6",
          "ticks": 20882,
          "time": 74.5785403541667,
          "velocity": 0.503937007874016
        },
        {
          "duration": 0.039285697916668,
          "durationTicks": 11,
          "midi": 91,
          "name": "G6",
          "ticks": 20893,
          "time": 74.6178260520833,
          "velocity": 0.503937007874016
        },
        {
          "duration": 0.0821428229166799,
          "durationTicks": 23,
          "midi": 93,
          "name": "A6",
          "ticks": 20905,
          "time": 74.6606831770833,
          "velocity": 0.503937007874016
        },
        {
          "duration": 0.0428571249999976,
          "durationTicks": 12,
          "midi": 81,
          "name": "A5",
          "ticks": 20929,
          "time": 74.7463974270833,
          "velocity": 0.574803149606299
        },
        {
          "duration": 0.0428571249999976,
          "durationTicks": 12,
          "midi": 76,
          "name": "E5",
          "ticks": 20929,
          "time": 74.7463974270833,
          "velocity": 0.464566929133858
        },
        {
          "duration": 0.0428571249999976,
          "durationTicks": 12,
          "midi": 73,
          "name": "C#5",
          "ticks": 20929,
          "time": 74.7463974270833,
          "velocity": 0.464566929133858
        },
        {
          "duration": 0.0428571249999976,
          "durationTicks": 12,
          "midi": 69,
          "name": "A4",
          "ticks": 20929,
          "time": 74.7463974270833,
          "velocity": 0.464566929133858
        },
        {
          "duration": 0.0392856979166538,
          "durationTicks": 11,
          "midi": 83,
          "name": "B5",
          "ticks": 20942,
          "time": 74.7928259791667,
          "velocity": 0.503937007874016
        },
        {
          "duration": 0.0392856979166538,
          "durationTicks": 11,
          "midi": 84,
          "name": "C6",
          "ticks": 20954,
          "time": 74.8356831041667,
          "velocity": 0.503937007874016
        },
        {
          "duration": 0.0357142708333242,
          "durationTicks": 10,
          "midi": 86,
          "name": "D6",
          "ticks": 20966,
          "time": 74.8785402291667,
          "velocity": 0.503937007874016
        },
        {
          "duration": 0.0392856979166822,
          "durationTicks": 11,
          "midi": 88,
          "name": "E6",
          "ticks": 20977,
          "time": 74.9178259270833,
          "velocity": 0.503937007874016
        },
        {
          "duration": 0.039285697916668,
          "durationTicks": 11,
          "midi": 89,
          "name": "F6",
          "ticks": 20989,
          "time": 74.9606830520833,
          "velocity": 0.503937007874016
        },
        {
          "duration": 0.039285697916668,
          "durationTicks": 11,
          "midi": 91,
          "name": "G6",
          "ticks": 21001,
          "time": 75.0035401770833,
          "velocity": 0.503937007874016
        },
        {
          "duration": 0.0428571249999976,
          "durationTicks": 12,
          "midi": 93,
          "name": "A6",
          "ticks": 21012,
          "time": 75.042825875,
          "velocity": 0.503937007874016
        },
        {
          "duration": 0.039285697916668,
          "durationTicks": 11,
          "midi": 95,
          "name": "B6",
          "ticks": 21025,
          "time": 75.0892544270833,
          "velocity": 0.511811023622047
        },
        {
          "duration": 0.039285697916668,
          "durationTicks": 11,
          "midi": 96,
          "name": "C7",
          "ticks": 21037,
          "time": 75.1321115520833,
          "velocity": 0.503937007874016
        },
        {
          "duration": 0.039285697916668,
          "durationTicks": 11,
          "midi": 98,
          "name": "D7",
          "ticks": 21049,
          "time": 75.1749686770833,
          "velocity": 0.503937007874016
        },
        {
          "duration": 0.039285697916668,
          "durationTicks": 11,
          "midi": 100,
          "name": "E7",
          "ticks": 21060,
          "time": 75.214254375,
          "velocity": 0.503937007874016
        },
        {
          "duration": 0.039285697916668,
          "durationTicks": 11,
          "midi": 101,
          "name": "F7",
          "ticks": 21072,
          "time": 75.2571115,
          "velocity": 0.503937007874016
        },
        {
          "duration": 0.0357142708333242,
          "durationTicks": 10,
          "midi": 103,
          "name": "G7",
          "ticks": 21084,
          "time": 75.299968625,
          "velocity": 0.503937007874016
        },
        {
          "duration": 0.0821428229166656,
          "durationTicks": 23,
          "midi": 105,
          "name": "A7",
          "ticks": 21095,
          "time": 75.3392543229167,
          "velocity": 0.503937007874016
        },
        {
          "duration": 0.0535714062500006,
          "durationTicks": 15,
          "midi": 105,
          "name": "A7",
          "ticks": 21120,
          "time": 75.42854,
          "velocity": 0.590551181102362
        },
        {
          "duration": 0.0535714062500006,
          "durationTicks": 15,
          "midi": 100,
          "name": "E7",
          "ticks": 21120,
          "time": 75.42854,
          "velocity": 0.480314960629921
        },
        {
          "duration": 0.0535714062500006,
          "durationTicks": 15,
          "midi": 97,
          "name": "C#7",
          "ticks": 21120,
          "time": 75.42854,
          "velocity": 0.480314960629921
        },
        {
          "duration": 0.0535714062500006,
          "durationTicks": 15,
          "midi": 93,
          "name": "A6",
          "ticks": 21120,
          "time": 75.42854,
          "velocity": 0.480314960629921
        },
        {
          "duration": 0.0392856979166822,
          "durationTicks": 11,
          "midi": 91,
          "name": "G6",
          "ticks": 21136,
          "time": 75.4856828333333,
          "velocity": 0.503937007874016
        },
        {
          "duration": 0.039285697916668,
          "durationTicks": 11,
          "midi": 89,
          "name": "F6",
          "ticks": 21147,
          "time": 75.52496853125,
          "velocity": 0.503937007874016
        },
        {
          "duration": 0.039285697916668,
          "durationTicks": 11,
          "midi": 88,
          "name": "E6",
          "ticks": 21159,
          "time": 75.56782565625,
          "velocity": 0.503937007874016
        },
        {
          "duration": 0.0357142708333242,
          "durationTicks": 10,
          "midi": 86,
          "name": "D6",
          "ticks": 21171,
          "time": 75.61068278125,
          "velocity": 0.503937007874016
        },
        {
          "duration": 0.039285697916668,
          "durationTicks": 11,
          "midi": 84,
          "name": "C6",
          "ticks": 21182,
          "time": 75.6499684791667,
          "velocity": 0.503937007874016
        },
        {
          "duration": 0.039285697916668,
          "durationTicks": 11,
          "midi": 83,
          "name": "B5",
          "ticks": 21194,
          "time": 75.6928256041667,
          "velocity": 0.503937007874016
        },
        {
          "duration": 0.039285697916668,
          "durationTicks": 11,
          "midi": 81,
          "name": "A5",
          "ticks": 21206,
          "time": 75.7356827291667,
          "velocity": 0.503937007874016
        },
        {
          "duration": 0.0428571249999976,
          "durationTicks": 12,
          "midi": 79,
          "name": "G5",
          "ticks": 21218,
          "time": 75.7785398541667,
          "velocity": 0.511811023622047
        },
        {
          "duration": 0.039285697916668,
          "durationTicks": 11,
          "midi": 77,
          "name": "F5",
          "ticks": 21231,
          "time": 75.82496840625,
          "velocity": 0.503937007874016
        },
        {
          "duration": 0.0357142708333242,
          "durationTicks": 10,
          "midi": 76,
          "name": "E5",
          "ticks": 21243,
          "time": 75.86782553125,
          "velocity": 0.503937007874016
        },
        {
          "duration": 0.039285697916668,
          "durationTicks": 11,
          "midi": 74,
          "name": "D5",
          "ticks": 21254,
          "time": 75.9071112291667,
          "velocity": 0.503937007874016
        },
        {
          "duration": 0.0357142708333384,
          "durationTicks": 10,
          "midi": 72,
          "name": "C5",
          "ticks": 21266,
          "time": 75.9499683541667,
          "velocity": 0.503937007874016
        },
        {
          "duration": 0.039285697916668,
          "durationTicks": 11,
          "midi": 71,
          "name": "B4",
          "ticks": 21277,
          "time": 75.9892540520833,
          "velocity": 0.503937007874016
        },
        {
          "duration": 0.0821428229166656,
          "durationTicks": 23,
          "midi": 69,
          "name": "A4",
          "ticks": 21289,
          "time": 76.0321111770833,
          "velocity": 0.503937007874016
        },
        {
          "duration": 0.0821428229166799,
          "durationTicks": 23,
          "midi": 93,
          "name": "A6",
          "ticks": 27338,
          "time": 97.6356736041667,
          "velocity": 0.503937007874016
        },
        {
          "duration": 0.160714218750002,
          "durationTicks": 45,
          "midi": 91,
          "name": "G6",
          "ticks": 27362,
          "time": 97.7213878541667,
          "velocity": 0.511811023622047
        },
        {
          "duration": 0.160714218750002,
          "durationTicks": 45,
          "midi": 89,
          "name": "F6",
          "ticks": 27410,
          "time": 97.8928163541667,
          "velocity": 0.503937007874016
        },
        {
          "duration": 0.160714218750002,
          "durationTicks": 45,
          "midi": 88,
          "name": "E6",
          "ticks": 27457,
          "time": 98.0606734270833,
          "velocity": 0.52755905511811
        },
        {
          "duration": 0.160714218750002,
          "durationTicks": 45,
          "midi": 84,
          "name": "C6",
          "ticks": 27505,
          "time": 98.2321019270834,
          "velocity": 0.503937007874016
        },
        {
          "duration": 0.0214285625000059,
          "durationTicks": 6,
          "midi": 98,
          "name": "D7",
          "ticks": 27553,
          "time": 98.4035304270833,
          "velocity": 0.511811023622047
        },
        {
          "duration": 0.0214285625000059,
          "durationTicks": 6,
          "midi": 96,
          "name": "C7",
          "ticks": 27559,
          "time": 98.4249589895834,
          "velocity": 0.503937007874016
        },
        {
          "duration": 0.0178571354166621,
          "durationTicks": 5,
          "midi": 95,
          "name": "B6",
          "ticks": 27565,
          "time": 98.4463875520834,
          "velocity": 0.503937007874016
        },
        {
          "duration": 0.0178571354166621,
          "durationTicks": 5,
          "midi": 93,
          "name": "A6",
          "ticks": 27571,
          "time": 98.4678161145833,
          "velocity": 0.503937007874016
        },
        {
          "duration": 0.0178571354166621,
          "durationTicks": 5,
          "midi": 91,
          "name": "G6",
          "ticks": 27577,
          "time": 98.4892446770834,
          "velocity": 0.503937007874016
        },
        {
          "duration": 0.0178571354166621,
          "durationTicks": 5,
          "midi": 89,
          "name": "F6",
          "ticks": 27583,
          "time": 98.5106732395833,
          "velocity": 0.503937007874016
        },
        {
          "duration": 0.0214285625000059,
          "durationTicks": 6,
          "midi": 88,
          "name": "E6",
          "ticks": 27588,
          "time": 98.528530375,
          "velocity": 0.503937007874016
        },
        {
          "duration": 0.0214285624999917,
          "durationTicks": 6,
          "midi": 86,
          "name": "D6",
          "ticks": 27594,
          "time": 98.5499589375,
          "velocity": 0.503937007874016
        },
        {
          "duration": 0.0178571354166621,
          "durationTicks": 5,
          "midi": 84,
          "name": "C6",
          "ticks": 27600,
          "time": 98.5713875,
          "velocity": 0.503937007874016
        },
        {
          "duration": 0.0178571354166621,
          "durationTicks": 5,
          "midi": 83,
          "name": "B5",
          "ticks": 27606,
          "time": 98.5928160625,
          "velocity": 0.503937007874016
        },
        {
          "duration": 0.0178571354166479,
          "durationTicks": 5,
          "midi": 81,
          "name": "A5",
          "ticks": 27612,
          "time": 98.614244625,
          "velocity": 0.503937007874016
        },
        {
          "duration": 0.0214285625000059,
          "durationTicks": 6,
          "midi": 79,
          "name": "G5",
          "ticks": 27617,
          "time": 98.6321017604167,
          "velocity": 0.503937007874016
        },
        {
          "duration": 0.0214285625000059,
          "durationTicks": 6,
          "midi": 77,
          "name": "F5",
          "ticks": 27623,
          "time": 98.6535303229167,
          "velocity": 0.503937007874016
        },
        {
          "duration": 0.0214285624999917,
          "durationTicks": 6,
          "midi": 76,
          "name": "E5",
          "ticks": 27629,
          "time": 98.6749588854167,
          "velocity": 0.503937007874016
        },
        {
          "duration": 0.171428500000005,
          "durationTicks": 48,
          "midi": 69,
          "name": "A4",
          "ticks": 27648,
          "time": 98.742816,
          "velocity": 0.480314960629921
        },
        {
          "duration": 0.171428500000005,
          "durationTicks": 48,
          "midi": 74,
          "name": "D5",
          "ticks": 27648,
          "time": 98.742816,
          "velocity": 0.590551181102362
        },
        {
          "duration": 0.157142791666658,
          "durationTicks": 44,
          "midi": 72,
          "name": "C5",
          "ticks": 27699,
          "time": 98.92495878125,
          "velocity": 0.503937007874016
        },
        {
          "duration": 0.160714218749987,
          "durationTicks": 45,
          "midi": 74,
          "name": "D5",
          "ticks": 27746,
          "time": 99.0928158541667,
          "velocity": 0.511811023622047
        },
        {
          "duration": 0.328571291666677,
          "durationTicks": 92,
          "midi": 69,
          "name": "A4",
          "ticks": 27794,
          "time": 99.2642443541667,
          "velocity": 0.440944881889764
        },
        {
          "duration": 0.328571291666677,
          "durationTicks": 92,
          "midi": 77,
          "name": "F5",
          "ticks": 27794,
          "time": 99.2642443541667,
          "velocity": 0.519685039370079
        },
        {
          "duration": 0.160714218750002,
          "durationTicks": 45,
          "midi": 74,
          "name": "D5",
          "ticks": 27889,
          "time": 99.6035299270833,
          "velocity": 0.503937007874016
        },
        {
          "duration": 0.0785713958333218,
          "durationTicks": 22,
          "midi": 69,
          "name": "A4",
          "ticks": 27937,
          "time": 99.7749584270834,
          "velocity": 0.511811023622047
        },
        {
          "duration": 0.0749999687500065,
          "durationTicks": 21,
          "midi": 68,
          "name": "G#4",
          "ticks": 27961,
          "time": 99.8606726770833,
          "velocity": 0.503937007874016
        },
        {
          "duration": 0.0785713958333361,
          "durationTicks": 22,
          "midi": 67,
          "name": "G4",
          "ticks": 27984,
          "time": 99.9428155,
          "velocity": 0.503937007874016
        },
        {
          "duration": 0.0821428229166799,
          "durationTicks": 23,
          "midi": 65,
          "name": "F4",
          "ticks": 28007,
          "time": 100.024958322917,
          "velocity": 0.503937007874016
        },
        {
          "duration": 0.17142849999999,
          "durationTicks": 48,
          "midi": 74,
          "name": "D5",
          "ticks": 28032,
          "time": 100.114244,
          "velocity": 0.543307086614173
        },
        {
          "duration": 0.157142791666658,
          "durationTicks": 44,
          "midi": 72,
          "name": "C5",
          "ticks": 28083,
          "time": 100.29638678125,
          "velocity": 0.503937007874016
        },
        {
          "duration": 0.160714218750002,
          "durationTicks": 45,
          "midi": 74,
          "name": "D5",
          "ticks": 28130,
          "time": 100.464243854167,
          "velocity": 0.511811023622047
        },
        {
          "duration": 0.328571291666677,
          "durationTicks": 92,
          "midi": 77,
          "name": "F5",
          "ticks": 28178,
          "time": 100.635672354167,
          "velocity": 0.519685039370079
        },
        {
          "duration": 0.328571291666677,
          "durationTicks": 92,
          "midi": 69,
          "name": "A4",
          "ticks": 28178,
          "time": 100.635672354167,
          "velocity": 0.440944881889764
        },
        {
          "duration": 0.160714218749987,
          "durationTicks": 45,
          "midi": 79,
          "name": "G5",
          "ticks": 28273,
          "time": 100.974957927083,
          "velocity": 0.503937007874016
        },
        {
          "duration": 0.157142791666658,
          "durationTicks": 44,
          "midi": 74,
          "name": "D5",
          "ticks": 28321,
          "time": 101.146386427083,
          "velocity": 0.511811023622047
        },
        {
          "duration": 0.160714218750002,
          "durationTicks": 45,
          "midi": 72,
          "name": "C5",
          "ticks": 28368,
          "time": 101.3142435,
          "velocity": 0.503937007874016
        },
        {
          "duration": 0.171428500000005,
          "durationTicks": 48,
          "midi": 74,
          "name": "D5",
          "ticks": 28416,
          "time": 101.485672,
          "velocity": 0.590551181102362
        },
        {
          "duration": 0.171428500000005,
          "durationTicks": 48,
          "midi": 69,
          "name": "A4",
          "ticks": 28416,
          "time": 101.485672,
          "velocity": 0.480314960629921
        },
        {
          "duration": 0.157142791666672,
          "durationTicks": 44,
          "midi": 72,
          "name": "C5",
          "ticks": 28467,
          "time": 101.66781478125,
          "velocity": 0.503937007874016
        },
        {
          "duration": 0.160714218750002,
          "durationTicks": 45,
          "midi": 74,
          "name": "D5",
          "ticks": 28514,
          "time": 101.835671854167,
          "velocity": 0.511811023622047
        },
        {
          "duration": 0.328571291666677,
          "durationTicks": 92,
          "midi": 69,
          "name": "A4",
          "ticks": 28562,
          "time": 102.007100354167,
          "velocity": 0.440944881889764
        },
        {
          "duration": 0.328571291666677,
          "durationTicks": 92,
          "midi": 77,
          "name": "F5",
          "ticks": 28562,
          "time": 102.007100354167,
          "velocity": 0.519685039370079
        },
        {
          "duration": 0.160714218750002,
          "durationTicks": 45,
          "midi": 74,
          "name": "D5",
          "ticks": 28657,
          "time": 102.346385927083,
          "velocity": 0.503937007874016
        },
        {
          "duration": 0.0785713958333218,
          "durationTicks": 22,
          "midi": 69,
          "name": "A4",
          "ticks": 28705,
          "time": 102.517814427083,
          "velocity": 0.511811023622047
        },
        {
          "duration": 0.0749999687500065,
          "durationTicks": 21,
          "midi": 68,
          "name": "G#4",
          "ticks": 28729,
          "time": 102.603528677083,
          "velocity": 0.503937007874016
        },
        {
          "duration": 0.0785713958333361,
          "durationTicks": 22,
          "midi": 67,
          "name": "G4",
          "ticks": 28752,
          "time": 102.6856715,
          "velocity": 0.503937007874016
        },
        {
          "duration": 0.0821428229166799,
          "durationTicks": 23,
          "midi": 65,
          "name": "F4",
          "ticks": 28775,
          "time": 102.767814322917,
          "velocity": 0.503937007874016
        },
        {
          "duration": 0.171428500000005,
          "durationTicks": 48,
          "midi": 74,
          "name": "D5",
          "ticks": 28800,
          "time": 102.8571,
          "velocity": 0.543307086614173
        },
        {
          "duration": 0.157142791666658,
          "durationTicks": 44,
          "midi": 72,
          "name": "C5",
          "ticks": 28851,
          "time": 103.03924278125,
          "velocity": 0.503937007874016
        },
        {
          "duration": 0.160714218750002,
          "durationTicks": 45,
          "midi": 74,
          "name": "D5",
          "ticks": 28898,
          "time": 103.207099854167,
          "velocity": 0.511811023622047
        },
        {
          "duration": 0.328571291666691,
          "durationTicks": 92,
          "midi": 81,
          "name": "A5",
          "ticks": 28946,
          "time": 103.378528354167,
          "velocity": 0.519685039370079
        },
        {
          "duration": 0.328571291666691,
          "durationTicks": 92,
          "midi": 77,
          "name": "F5",
          "ticks": 28946,
          "time": 103.378528354167,
          "velocity": 0.440944881889764
        },
        {
          "duration": 0.328571291666691,
          "durationTicks": 92,
          "midi": 74,
          "name": "D5",
          "ticks": 28946,
          "time": 103.378528354167,
          "velocity": 0.440944881889764
        },
        {
          "duration": 0.328571291666691,
          "durationTicks": 92,
          "midi": 69,
          "name": "A4",
          "ticks": 28946,
          "time": 103.378528354167,
          "velocity": 0.440944881889764
        },
        {
          "duration": 0.160714218750002,
          "durationTicks": 45,
          "midi": 81,
          "name": "A5",
          "ticks": 29041,
          "time": 103.717813927083,
          "velocity": 0.551181102362205
        },
        {
          "duration": 0.160714218750002,
          "durationTicks": 45,
          "midi": 77,
          "name": "F5",
          "ticks": 29041,
          "time": 103.717813927083,
          "velocity": 0.440944881889764
        },
        {
          "duration": 0.160714218750002,
          "durationTicks": 45,
          "midi": 74,
          "name": "D5",
          "ticks": 29041,
          "time": 103.717813927083,
          "velocity": 0.440944881889764
        },
        {
          "duration": 0.160714218750002,
          "durationTicks": 45,
          "midi": 69,
          "name": "A4",
          "ticks": 29041,
          "time": 103.717813927083,
          "velocity": 0.440944881889764
        },
        {
          "duration": 0.157142791666658,
          "durationTicks": 44,
          "midi": 79,
          "name": "G5",
          "ticks": 29089,
          "time": 103.889242427083,
          "velocity": 0.559055118110236
        },
        {
          "duration": 0.157142791666658,
          "durationTicks": 44,
          "midi": 76,
          "name": "E5",
          "ticks": 29089,
          "time": 103.889242427083,
          "velocity": 0.448818897637795
        },
        {
          "duration": 0.157142791666658,
          "durationTicks": 44,
          "midi": 72,
          "name": "C5",
          "ticks": 29089,
          "time": 103.889242427083,
          "velocity": 0.448818897637795
        },
        {
          "duration": 0.157142791666658,
          "durationTicks": 44,
          "midi": 67,
          "name": "G4",
          "ticks": 29089,
          "time": 103.889242427083,
          "velocity": 0.448818897637795
        },
        {
          "duration": 0.160714218750002,
          "durationTicks": 45,
          "midi": 79,
          "name": "G5",
          "ticks": 29136,
          "time": 104.0570995,
          "velocity": 0.551181102362205
        },
        {
          "duration": 0.160714218750002,
          "durationTicks": 45,
          "midi": 76,
          "name": "E5",
          "ticks": 29136,
          "time": 104.0570995,
          "velocity": 0.440944881889764
        },
        {
          "duration": 0.160714218750002,
          "durationTicks": 45,
          "midi": 72,
          "name": "C5",
          "ticks": 29136,
          "time": 104.0570995,
          "velocity": 0.440944881889764
        },
        {
          "duration": 0.160714218750002,
          "durationTicks": 45,
          "midi": 67,
          "name": "G4",
          "ticks": 29136,
          "time": 104.0570995,
          "velocity": 0.440944881889764
        },
        {
          "duration": 0.17142849999999,
          "durationTicks": 48,
          "midi": 70,
          "name": "A#4",
          "ticks": 29184,
          "time": 104.228528,
          "velocity": 0.480314960629921
        },
        {
          "duration": 0.17142849999999,
          "durationTicks": 48,
          "midi": 74,
          "name": "D5",
          "ticks": 29184,
          "time": 104.228528,
          "velocity": 0.590551181102362
        },
        {
          "duration": 0.157142791666658,
          "durationTicks": 44,
          "midi": 72,
          "name": "C5",
          "ticks": 29235,
          "time": 104.41067078125,
          "velocity": 0.503937007874016
        },
        {
          "duration": 0.160714218750002,
          "durationTicks": 45,
          "midi": 74,
          "name": "D5",
          "ticks": 29282,
          "time": 104.578527854167,
          "velocity": 0.511811023622047
        },
        {
          "duration": 0.328571291666677,
          "durationTicks": 92,
          "midi": 77,
          "name": "F5",
          "ticks": 29330,
          "time": 104.749956354167,
          "velocity": 0.519685039370079
        },
        {
          "duration": 0.328571291666677,
          "durationTicks": 92,
          "midi": 70,
          "name": "A#4",
          "ticks": 29330,
          "time": 104.749956354167,
          "velocity": 0.440944881889764
        },
        {
          "duration": 0.160714218750002,
          "durationTicks": 45,
          "midi": 74,
          "name": "D5",
          "ticks": 29425,
          "time": 105.089241927083,
          "velocity": 0.503937007874016
        },
        {
          "duration": 0.0785713958333218,
          "durationTicks": 22,
          "midi": 69,
          "name": "A4",
          "ticks": 29473,
          "time": 105.260670427083,
          "velocity": 0.511811023622047
        },
        {
          "duration": 0.0749999687499923,
          "durationTicks": 21,
          "midi": 68,
          "name": "G#4",
          "ticks": 29497,
          "time": 105.346384677083,
          "velocity": 0.503937007874016
        },
        {
          "duration": 0.0785713958333503,
          "durationTicks": 22,
          "midi": 67,
          "name": "G4",
          "ticks": 29520,
          "time": 105.4285275,
          "velocity": 0.503937007874016
        },
        {
          "duration": 0.0821428229166799,
          "durationTicks": 23,
          "midi": 65,
          "name": "F4",
          "ticks": 29543,
          "time": 105.510670322917,
          "velocity": 0.503937007874016
        },
        {
          "duration": 0.171428500000005,
          "durationTicks": 48,
          "midi": 74,
          "name": "D5",
          "ticks": 29568,
          "time": 105.599956,
          "velocity": 0.543307086614173
        },
        {
          "duration": 0.157142791666658,
          "durationTicks": 44,
          "midi": 72,
          "name": "C5",
          "ticks": 29619,
          "time": 105.78209878125,
          "velocity": 0.503937007874016
        },
        {
          "duration": 0.160714218750002,
          "durationTicks": 45,
          "midi": 74,
          "name": "D5",
          "ticks": 29666,
          "time": 105.949955854167,
          "velocity": 0.511811023622047
        },
        {
          "duration": 0.328571291666677,
          "durationTicks": 92,
          "midi": 70,
          "name": "A#4",
          "ticks": 29714,
          "time": 106.121384354167,
          "velocity": 0.440944881889764
        },
        {
          "duration": 0.328571291666677,
          "durationTicks": 92,
          "midi": 77,
          "name": "F5",
          "ticks": 29714,
          "time": 106.121384354167,
          "velocity": 0.519685039370079
        },
        {
          "duration": 0.160714218750002,
          "durationTicks": 45,
          "midi": 79,
          "name": "G5",
          "ticks": 29809,
          "time": 106.460669927083,
          "velocity": 0.503937007874016
        },
        {
          "duration": 0.157142791666658,
          "durationTicks": 44,
          "midi": 74,
          "name": "D5",
          "ticks": 29857,
          "time": 106.632098427083,
          "velocity": 0.511811023622047
        },
        {
          "duration": 0.160714218750002,
          "durationTicks": 45,
          "midi": 72,
          "name": "C5",
          "ticks": 29904,
          "time": 106.7999555,
          "velocity": 0.503937007874016
        },
        {
          "duration": 0.171428500000005,
          "durationTicks": 48,
          "midi": 70,
          "name": "A#4",
          "ticks": 29952,
          "time": 106.971384,
          "velocity": 0.480314960629921
        },
        {
          "duration": 0.171428500000005,
          "durationTicks": 48,
          "midi": 74,
          "name": "D5",
          "ticks": 29952,
          "time": 106.971384,
          "velocity": 0.590551181102362
        },
        {
          "duration": 0.157142791666658,
          "durationTicks": 44,
          "midi": 72,
          "name": "C5",
          "ticks": 30003,
          "time": 107.15352678125,
          "velocity": 0.503937007874016
        },
        {
          "duration": 0.160714218750002,
          "durationTicks": 45,
          "midi": 74,
          "name": "D5",
          "ticks": 30050,
          "time": 107.321383854167,
          "velocity": 0.511811023622047
        },
        {
          "duration": 0.328571291666677,
          "durationTicks": 92,
          "midi": 77,
          "name": "F5",
          "ticks": 30098,
          "time": 107.492812354167,
          "velocity": 0.519685039370079
        },
        {
          "duration": 0.328571291666677,
          "durationTicks": 92,
          "midi": 70,
          "name": "A#4",
          "ticks": 30098,
          "time": 107.492812354167,
          "velocity": 0.440944881889764
        },
        {
          "duration": 0.160714218749987,
          "durationTicks": 45,
          "midi": 74,
          "name": "D5",
          "ticks": 30193,
          "time": 107.832097927083,
          "velocity": 0.503937007874016
        },
        {
          "duration": 0.0785713958333218,
          "durationTicks": 22,
          "midi": 69,
          "name": "A4",
          "ticks": 30241,
          "time": 108.003526427083,
          "velocity": 0.511811023622047
        },
        {
          "duration": 0.0749999687499923,
          "durationTicks": 21,
          "midi": 68,
          "name": "G#4",
          "ticks": 30265,
          "time": 108.089240677083,
          "velocity": 0.503937007874016
        },
        {
          "duration": 0.0785713958333361,
          "durationTicks": 22,
          "midi": 67,
          "name": "G4",
          "ticks": 30288,
          "time": 108.1713835,
          "velocity": 0.503937007874016
        },
        {
          "duration": 0.0821428229166799,
          "durationTicks": 23,
          "midi": 65,
          "name": "F4",
          "ticks": 30311,
          "time": 108.253526322917,
          "velocity": 0.503937007874016
        },
        {
          "duration": 0.0928571041666544,
          "durationTicks": 26,
          "midi": 81,
          "name": "A5",
          "ticks": 30336,
          "time": 108.342812,
          "velocity": 0.559055118110236
        },
        {
          "duration": 0.0928571041666544,
          "durationTicks": 26,
          "midi": 69,
          "name": "A4",
          "ticks": 30336,
          "time": 108.342812,
          "velocity": 0.480314960629921
        },
        {
          "duration": 0.0785713958333361,
          "durationTicks": 22,
          "midi": 69,
          "name": "A4",
          "ticks": 30363,
          "time": 108.43924053125,
          "velocity": 0.440944881889764
        },
        {
          "duration": 0.0785713958333361,
          "durationTicks": 22,
          "midi": 81,
          "name": "A5",
          "ticks": 30363,
          "time": 108.43924053125,
          "velocity": 0.519685039370079
        },
        {
          "duration": 0.157142791666658,
          "durationTicks": 44,
          "midi": 69,
          "name": "A4",
          "ticks": 30387,
          "time": 108.52495478125,
          "velocity": 0.440944881889764
        },
        {
          "duration": 0.157142791666658,
          "durationTicks": 44,
          "midi": 81,
          "name": "A5",
          "ticks": 30387,
          "time": 108.52495478125,
          "velocity": 0.519685039370079
        },
        {
          "duration": 0.160714218750002,
          "durationTicks": 45,
          "midi": 81,
          "name": "A5",
          "ticks": 30434,
          "time": 108.692811854167,
          "velocity": 0.52755905511811
        },
        {
          "duration": 0.160714218750002,
          "durationTicks": 45,
          "midi": 69,
          "name": "A4",
          "ticks": 30434,
          "time": 108.692811854167,
          "velocity": 0.448818897637795
        },
        {
          "duration": 0.160714218750002,
          "durationTicks": 45,
          "midi": 81,
          "name": "A5",
          "ticks": 30482,
          "time": 108.864240354167,
          "velocity": 0.551181102362205
        },
        {
          "duration": 0.160714218750002,
          "durationTicks": 45,
          "midi": 69,
          "name": "A4",
          "ticks": 30482,
          "time": 108.864240354167,
          "velocity": 0.440944881889764
        },
        {
          "duration": 0.160714218750002,
          "durationTicks": 45,
          "midi": 72,
          "name": "C5",
          "ticks": 30529,
          "time": 109.032097427083,
          "velocity": 0.464566929133858
        },
        {
          "duration": 0.160714218750002,
          "durationTicks": 45,
          "midi": 72,
          "name": "C5",
          "ticks": 30529,
          "time": 109.032097427083,
          "velocity": 0.574803149606299
        },
        {
          "duration": 0.160714218750002,
          "durationTicks": 45,
          "midi": 68,
          "name": "G#4",
          "ticks": 30577,
          "time": 109.203525927083,
          "velocity": 0.440944881889764
        },
        {
          "duration": 0.160714218750002,
          "durationTicks": 45,
          "midi": 80,
          "name": "G#5",
          "ticks": 30577,
          "time": 109.203525927083,
          "velocity": 0.551181102362205
        },
        {
          "duration": 0.157142791666658,
          "durationTicks": 44,
          "midi": 79,
          "name": "G5",
          "ticks": 30625,
          "time": 109.374954427083,
          "velocity": 0.559055118110236
        },
        {
          "duration": 0.157142791666658,
          "durationTicks": 44,
          "midi": 67,
          "name": "G4",
          "ticks": 30625,
          "time": 109.374954427083,
          "velocity": 0.448818897637795
        },
        {
          "duration": 0.160714218749987,
          "durationTicks": 45,
          "midi": 77,
          "name": "F5",
          "ticks": 30672,
          "time": 109.5428115,
          "velocity": 0.551181102362205
        },
        {
          "duration": 0.160714218749987,
          "durationTicks": 45,
          "midi": 65,
          "name": "F4",
          "ticks": 30672,
          "time": 109.5428115,
          "velocity": 0.440944881889764
        },
        {
          "duration": 0.171428500000005,
          "durationTicks": 48,
          "midi": 81,
          "name": "A5",
          "ticks": 30720,
          "time": 109.71424,
          "velocity": 0.480314960629921
        },
        {
          "duration": 0.171428500000005,
          "durationTicks": 48,
          "midi": 86,
          "name": "D6",
          "ticks": 30720,
          "time": 109.71424,
          "velocity": 0.590551181102362
        },
        {
          "duration": 0.157142791666658,
          "durationTicks": 44,
          "midi": 84,
          "name": "C6",
          "ticks": 30771,
          "time": 109.89638278125,
          "velocity": 0.503937007874016
        },
        {
          "duration": 0.160714218750002,
          "durationTicks": 45,
          "midi": 86,
          "name": "D6",
          "ticks": 30818,
          "time": 110.064239854167,
          "velocity": 0.511811023622047
        },
        {
          "duration": 0.328571291666691,
          "durationTicks": 92,
          "midi": 89,
          "name": "F6",
          "ticks": 30866,
          "time": 110.235668354167,
          "velocity": 0.519685039370079
        },
        {
          "duration": 0.328571291666691,
          "durationTicks": 92,
          "midi": 81,
          "name": "A5",
          "ticks": 30866,
          "time": 110.235668354167,
          "velocity": 0.440944881889764
        },
        {
          "duration": 0.160714218750002,
          "durationTicks": 45,
          "midi": 86,
          "name": "D6",
          "ticks": 30961,
          "time": 110.574953927083,
          "velocity": 0.503937007874016
        },
        {
          "duration": 0.0785713958333218,
          "durationTicks": 22,
          "midi": 81,
          "name": "A5",
          "ticks": 31009,
          "time": 110.746382427083,
          "velocity": 0.511811023622047
        },
        {
          "duration": 0.0749999687500065,
          "durationTicks": 21,
          "midi": 80,
          "name": "G#5",
          "ticks": 31033,
          "time": 110.832096677083,
          "velocity": 0.503937007874016
        },
        {
          "duration": 0.0785713958333361,
          "durationTicks": 22,
          "midi": 79,
          "name": "G5",
          "ticks": 31056,
          "time": 110.9142395,
          "velocity": 0.503937007874016
        },
        {
          "duration": 0.0821428229166799,
          "durationTicks": 23,
          "midi": 77,
          "name": "F5",
          "ticks": 31079,
          "time": 110.996382322917,
          "velocity": 0.503937007874016
        },
        {
          "duration": 0.17142849999999,
          "durationTicks": 48,
          "midi": 86,
          "name": "D6",
          "ticks": 31104,
          "time": 111.085668,
          "velocity": 0.543307086614173
        },
        {
          "duration": 0.157142791666658,
          "durationTicks": 44,
          "midi": 84,
          "name": "C6",
          "ticks": 31155,
          "time": 111.26781078125,
          "velocity": 0.503937007874016
        },
        {
          "duration": 0.160714218750002,
          "durationTicks": 45,
          "midi": 86,
          "name": "D6",
          "ticks": 31202,
          "time": 111.435667854167,
          "velocity": 0.511811023622047
        },
        {
          "duration": 0.328571291666677,
          "durationTicks": 92,
          "midi": 89,
          "name": "F6",
          "ticks": 31250,
          "time": 111.607096354167,
          "velocity": 0.519685039370079
        },
        {
          "duration": 0.328571291666677,
          "durationTicks": 92,
          "midi": 81,
          "name": "A5",
          "ticks": 31250,
          "time": 111.607096354167,
          "velocity": 0.440944881889764
        },
        {
          "duration": 0.160714218750002,
          "durationTicks": 45,
          "midi": 91,
          "name": "G6",
          "ticks": 31345,
          "time": 111.946381927083,
          "velocity": 0.503937007874016
        },
        {
          "duration": 0.157142791666672,
          "durationTicks": 44,
          "midi": 86,
          "name": "D6",
          "ticks": 31393,
          "time": 112.117810427083,
          "velocity": 0.511811023622047
        },
        {
          "duration": 0.160714218750002,
          "durationTicks": 45,
          "midi": 84,
          "name": "C6",
          "ticks": 31440,
          "time": 112.2856675,
          "velocity": 0.503937007874016
        },
        {
          "duration": 0.171428500000005,
          "durationTicks": 48,
          "midi": 81,
          "name": "A5",
          "ticks": 31488,
          "time": 112.457096,
          "velocity": 0.480314960629921
        },
        {
          "duration": 0.171428500000005,
          "durationTicks": 48,
          "midi": 86,
          "name": "D6",
          "ticks": 31488,
          "time": 112.457096,
          "velocity": 0.590551181102362
        },
        {
          "duration": 0.157142791666672,
          "durationTicks": 44,
          "midi": 84,
          "name": "C6",
          "ticks": 31539,
          "time": 112.63923878125,
          "velocity": 0.503937007874016
        },
        {
          "duration": 0.160714218750002,
          "durationTicks": 45,
          "midi": 86,
          "name": "D6",
          "ticks": 31586,
          "time": 112.807095854167,
          "velocity": 0.511811023622047
        },
        {
          "duration": 0.328571291666677,
          "durationTicks": 92,
          "midi": 81,
          "name": "A5",
          "ticks": 31634,
          "time": 112.978524354167,
          "velocity": 0.440944881889764
        },
        {
          "duration": 0.328571291666677,
          "durationTicks": 92,
          "midi": 89,
          "name": "F6",
          "ticks": 31634,
          "time": 112.978524354167,
          "velocity": 0.519685039370079
        },
        {
          "duration": 0.160714218750002,
          "durationTicks": 45,
          "midi": 86,
          "name": "D6",
          "ticks": 31729,
          "time": 113.317809927083,
          "velocity": 0.503937007874016
        },
        {
          "duration": 0.0785713958333218,
          "durationTicks": 22,
          "midi": 81,
          "name": "A5",
          "ticks": 31777,
          "time": 113.489238427083,
          "velocity": 0.511811023622047
        },
        {
          "duration": 0.0749999687500065,
          "durationTicks": 21,
          "midi": 80,
          "name": "G#5",
          "ticks": 31801,
          "time": 113.574952677083,
          "velocity": 0.503937007874016
        },
        {
          "duration": 0.0785713958333361,
          "durationTicks": 22,
          "midi": 79,
          "name": "G5",
          "ticks": 31824,
          "time": 113.6570955,
          "velocity": 0.503937007874016
        },
        {
          "duration": 0.0821428229166799,
          "durationTicks": 23,
          "midi": 77,
          "name": "F5",
          "ticks": 31847,
          "time": 113.739238322917,
          "velocity": 0.503937007874016
        },
        {
          "duration": 0.171428500000005,
          "durationTicks": 48,
          "midi": 86,
          "name": "D6",
          "ticks": 31872,
          "time": 113.828524,
          "velocity": 0.543307086614173
        },
        {
          "duration": 0.157142791666658,
          "durationTicks": 44,
          "midi": 84,
          "name": "C6",
          "ticks": 31923,
          "time": 114.01066678125,
          "velocity": 0.503937007874016
        },
        {
          "duration": 0.160714218750002,
          "durationTicks": 45,
          "midi": 86,
          "name": "D6",
          "ticks": 31970,
          "time": 114.178523854167,
          "velocity": 0.511811023622047
        },
        {
          "duration": 0.328571291666677,
          "durationTicks": 92,
          "midi": 93,
          "name": "A6",
          "ticks": 32018,
          "time": 114.349952354167,
          "velocity": 0.519685039370079
        },
        {
          "duration": 0.328571291666677,
          "durationTicks": 92,
          "midi": 89,
          "name": "F6",
          "ticks": 32018,
          "time": 114.349952354167,
          "velocity": 0.440944881889764
        },
        {
          "duration": 0.328571291666677,
          "durationTicks": 92,
          "midi": 86,
          "name": "D6",
          "ticks": 32018,
          "time": 114.349952354167,
          "velocity": 0.440944881889764
        },
        {
          "duration": 0.328571291666677,
          "durationTicks": 92,
          "midi": 81,
          "name": "A5",
          "ticks": 32018,
          "time": 114.349952354167,
          "velocity": 0.440944881889764
        },
        {
          "duration": 0.160714218749987,
          "durationTicks": 45,
          "midi": 93,
          "name": "A6",
          "ticks": 32113,
          "time": 114.689237927083,
          "velocity": 0.551181102362205
        },
        {
          "duration": 0.160714218749987,
          "durationTicks": 45,
          "midi": 89,
          "name": "F6",
          "ticks": 32113,
          "time": 114.689237927083,
          "velocity": 0.440944881889764
        },
        {
          "duration": 0.160714218749987,
          "durationTicks": 45,
          "midi": 86,
          "name": "D6",
          "ticks": 32113,
          "time": 114.689237927083,
          "velocity": 0.440944881889764
        },
        {
          "duration": 0.160714218749987,
          "durationTicks": 45,
          "midi": 81,
          "name": "A5",
          "ticks": 32113,
          "time": 114.689237927083,
          "velocity": 0.440944881889764
        },
        {
          "duration": 0.157142791666658,
          "durationTicks": 44,
          "midi": 91,
          "name": "G6",
          "ticks": 32161,
          "time": 114.860666427083,
          "velocity": 0.559055118110236
        },
        {
          "duration": 0.157142791666658,
          "durationTicks": 44,
          "midi": 88,
          "name": "E6",
          "ticks": 32161,
          "time": 114.860666427083,
          "velocity": 0.448818897637795
        },
        {
          "duration": 0.157142791666658,
          "durationTicks": 44,
          "midi": 84,
          "name": "C6",
          "ticks": 32161,
          "time": 114.860666427083,
          "velocity": 0.448818897637795
        },
        {
          "duration": 0.157142791666658,
          "durationTicks": 44,
          "midi": 79,
          "name": "G5",
          "ticks": 32161,
          "time": 114.860666427083,
          "velocity": 0.448818897637795
        },
        {
          "duration": 0.160714218750002,
          "durationTicks": 45,
          "midi": 91,
          "name": "G6",
          "ticks": 32208,
          "time": 115.0285235,
          "velocity": 0.551181102362205
        },
        {
          "duration": 0.160714218750002,
          "durationTicks": 45,
          "midi": 88,
          "name": "E6",
          "ticks": 32208,
          "time": 115.0285235,
          "velocity": 0.440944881889764
        },
        {
          "duration": 0.160714218750002,
          "durationTicks": 45,
          "midi": 84,
          "name": "C6",
          "ticks": 32208,
          "time": 115.0285235,
          "velocity": 0.440944881889764
        },
        {
          "duration": 0.160714218750002,
          "durationTicks": 45,
          "midi": 79,
          "name": "G5",
          "ticks": 32208,
          "time": 115.0285235,
          "velocity": 0.440944881889764
        },
        {
          "duration": 0.17142849999999,
          "durationTicks": 48,
          "midi": 82,
          "name": "A#5",
          "ticks": 32256,
          "time": 115.199952,
          "velocity": 0.480314960629921
        },
        {
          "duration": 0.17142849999999,
          "durationTicks": 48,
          "midi": 86,
          "name": "D6",
          "ticks": 32256,
          "time": 115.199952,
          "velocity": 0.590551181102362
        },
        {
          "duration": 0.157142791666658,
          "durationTicks": 44,
          "midi": 84,
          "name": "C6",
          "ticks": 32307,
          "time": 115.38209478125,
          "velocity": 0.503937007874016
        },
        {
          "duration": 0.160714218750002,
          "durationTicks": 45,
          "midi": 86,
          "name": "D6",
          "ticks": 32354,
          "time": 115.549951854167,
          "velocity": 0.511811023622047
        },
        {
          "duration": 0.328571291666677,
          "durationTicks": 92,
          "midi": 89,
          "name": "F6",
          "ticks": 32402,
          "time": 115.721380354167,
          "velocity": 0.519685039370079
        },
        {
          "duration": 0.328571291666677,
          "durationTicks": 92,
          "midi": 82,
          "name": "A#5",
          "ticks": 32402,
          "time": 115.721380354167,
          "velocity": 0.440944881889764
        },
        {
          "duration": 0.160714218750002,
          "durationTicks": 45,
          "midi": 86,
          "name": "D6",
          "ticks": 32497,
          "time": 116.060665927083,
          "velocity": 0.503937007874016
        },
        {
          "duration": 0.0785713958333076,
          "durationTicks": 22,
          "midi": 81,
          "name": "A5",
          "ticks": 32545,
          "time": 116.232094427083,
          "velocity": 0.511811023622047
        },
        {
          "duration": 0.0749999687499923,
          "durationTicks": 21,
          "midi": 80,
          "name": "G#5",
          "ticks": 32569,
          "time": 116.317808677083,
          "velocity": 0.503937007874016
        },
        {
          "duration": 0.0785713958333361,
          "durationTicks": 22,
          "midi": 79,
          "name": "G5",
          "ticks": 32592,
          "time": 116.3999515,
          "velocity": 0.503937007874016
        },
        {
          "duration": 0.0821428229166799,
          "durationTicks": 23,
          "midi": 77,
          "name": "F5",
          "ticks": 32615,
          "time": 116.482094322917,
          "velocity": 0.503937007874016
        },
        {
          "duration": 0.171428500000005,
          "durationTicks": 48,
          "midi": 86,
          "name": "D6",
          "ticks": 32640,
          "time": 116.57138,
          "velocity": 0.543307086614173
        },
        {
          "duration": 0.157142791666658,
          "durationTicks": 44,
          "midi": 84,
          "name": "C6",
          "ticks": 32691,
          "time": 116.75352278125,
          "velocity": 0.503937007874016
        },
        {
          "duration": 0.160714218750002,
          "durationTicks": 45,
          "midi": 86,
          "name": "D6",
          "ticks": 32738,
          "time": 116.921379854167,
          "velocity": 0.511811023622047
        },
        {
          "duration": 0.328571291666691,
          "durationTicks": 92,
          "midi": 89,
          "name": "F6",
          "ticks": 32786,
          "time": 117.092808354167,
          "velocity": 0.519685039370079
        },
        {
          "duration": 0.328571291666691,
          "durationTicks": 92,
          "midi": 82,
          "name": "A#5",
          "ticks": 32786,
          "time": 117.092808354167,
          "velocity": 0.440944881889764
        },
        {
          "duration": 0.160714218750002,
          "durationTicks": 45,
          "midi": 91,
          "name": "G6",
          "ticks": 32881,
          "time": 117.432093927083,
          "velocity": 0.503937007874016
        },
        {
          "duration": 0.157142791666658,
          "durationTicks": 44,
          "midi": 86,
          "name": "D6",
          "ticks": 32929,
          "time": 117.603522427083,
          "velocity": 0.511811023622047
        },
        {
          "duration": 0.160714218750002,
          "durationTicks": 45,
          "midi": 84,
          "name": "C6",
          "ticks": 32976,
          "time": 117.7713795,
          "velocity": 0.503937007874016
        },
        {
          "duration": 0.0928571041666544,
          "durationTicks": 26,
          "midi": 87,
          "name": "D#6",
          "ticks": 33024,
          "time": 117.942808,
          "velocity": 0.480314960629921
        },
        {
          "duration": 0.0928571041666544,
          "durationTicks": 26,
          "midi": 87,
          "name": "D#6",
          "ticks": 33024,
          "time": 117.942808,
          "velocity": 0.559055118110236
        },
        {
          "duration": 0.0785713958333361,
          "durationTicks": 22,
          "midi": 87,
          "name": "D#6",
          "ticks": 33051,
          "time": 118.03923653125,
          "velocity": 0.440944881889764
        },
        {
          "duration": 0.0785713958333361,
          "durationTicks": 22,
          "midi": 87,
          "name": "D#6",
          "ticks": 33051,
          "time": 118.03923653125,
          "velocity": 0.551181102362205
        },
        {
          "duration": 0.0821428229166799,
          "durationTicks": 23,
          "midi": 86,
          "name": "D6",
          "ticks": 33098,
          "time": 118.207093604167,
          "velocity": 0.551181102362205
        },
        {
          "duration": 0.0821428229166799,
          "durationTicks": 23,
          "midi": 86,
          "name": "D6",
          "ticks": 33098,
          "time": 118.207093604167,
          "velocity": 0.440944881889764
        },
        {
          "duration": 0.0821428229166799,
          "durationTicks": 23,
          "midi": 86,
          "name": "D6",
          "ticks": 33122,
          "time": 118.292807854167,
          "velocity": 0.448818897637795
        },
        {
          "duration": 0.0821428229166799,
          "durationTicks": 23,
          "midi": 86,
          "name": "D6",
          "ticks": 33122,
          "time": 118.292807854167,
          "velocity": 0.559055118110236
        },
        {
          "duration": 0.0749999687499923,
          "durationTicks": 21,
          "midi": 84,
          "name": "C6",
          "ticks": 33170,
          "time": 118.464236354167,
          "velocity": 0.551181102362205
        },
        {
          "duration": 0.0749999687499923,
          "durationTicks": 21,
          "midi": 84,
          "name": "C6",
          "ticks": 33170,
          "time": 118.464236354167,
          "velocity": 0.440944881889764
        },
        {
          "duration": 0.0821428229166514,
          "durationTicks": 23,
          "midi": 84,
          "name": "C6",
          "ticks": 33193,
          "time": 118.546379177083,
          "velocity": 0.551181102362205
        },
        {
          "duration": 0.0821428229166514,
          "durationTicks": 23,
          "midi": 84,
          "name": "C6",
          "ticks": 33193,
          "time": 118.546379177083,
          "velocity": 0.440944881889764
        },
        {
          "duration": 0.160714218750002,
          "durationTicks": 45,
          "midi": 86,
          "name": "D6",
          "ticks": 33265,
          "time": 118.803521927083,
          "velocity": 0.551181102362205
        },
        {
          "duration": 0.160714218750002,
          "durationTicks": 45,
          "midi": 86,
          "name": "D6",
          "ticks": 33265,
          "time": 118.803521927083,
          "velocity": 0.440944881889764
        },
        {
          "duration": 0.157142791666672,
          "durationTicks": 44,
          "midi": 87,
          "name": "D#6",
          "ticks": 33313,
          "time": 118.974950427083,
          "velocity": 0.448818897637795
        },
        {
          "duration": 0.157142791666672,
          "durationTicks": 44,
          "midi": 87,
          "name": "D#6",
          "ticks": 33313,
          "time": 118.974950427083,
          "velocity": 0.559055118110236
        },
        {
          "duration": 0.160714218750002,
          "durationTicks": 45,
          "midi": 84,
          "name": "C6",
          "ticks": 33360,
          "time": 119.1428075,
          "velocity": 0.551181102362205
        },
        {
          "duration": 0.160714218750002,
          "durationTicks": 45,
          "midi": 84,
          "name": "C6",
          "ticks": 33360,
          "time": 119.1428075,
          "velocity": 0.440944881889764
        },
        {
          "duration": 0.171428500000005,
          "durationTicks": 48,
          "midi": 86,
          "name": "D6",
          "ticks": 33408,
          "time": 119.314236,
          "velocity": 0.480314960629921
        },
        {
          "duration": 0.171428500000005,
          "durationTicks": 48,
          "midi": 86,
          "name": "D6",
          "ticks": 33408,
          "time": 119.314236,
          "velocity": 0.590551181102362
        },
        {
          "duration": 0.157142791666672,
          "durationTicks": 44,
          "midi": 86,
          "name": "D6",
          "ticks": 33459,
          "time": 119.49637878125,
          "velocity": 0.519685039370079
        },
        {
          "duration": 0.157142791666672,
          "durationTicks": 44,
          "midi": 86,
          "name": "D6",
          "ticks": 33459,
          "time": 119.49637878125,
          "velocity": 0.440944881889764
        },
        {
          "duration": 0.160714218750002,
          "durationTicks": 45,
          "midi": 86,
          "name": "D6",
          "ticks": 33506,
          "time": 119.664235854167,
          "velocity": 0.448818897637795
        },
        {
          "duration": 0.160714218750002,
          "durationTicks": 45,
          "midi": 86,
          "name": "D6",
          "ticks": 33506,
          "time": 119.664235854167,
          "velocity": 0.559055118110236
        },
        {
          "duration": 0.0749999687500065,
          "durationTicks": 21,
          "midi": 84,
          "name": "C6",
          "ticks": 33554,
          "time": 119.835664354167,
          "velocity": 0.440944881889764
        },
        {
          "duration": 0.0749999687500065,
          "durationTicks": 21,
          "midi": 84,
          "name": "C6",
          "ticks": 33554,
          "time": 119.835664354167,
          "velocity": 0.551181102362205
        },
        {
          "duration": 0.0821428229166656,
          "durationTicks": 23,
          "midi": 86,
          "name": "D6",
          "ticks": 33577,
          "time": 119.917807177083,
          "velocity": 0.440944881889764
        },
        {
          "duration": 0.0821428229166656,
          "durationTicks": 23,
          "midi": 86,
          "name": "D6",
          "ticks": 33577,
          "time": 119.917807177083,
          "velocity": 0.551181102362205
        },
        {
          "duration": 0.157142791666658,
          "durationTicks": 44,
          "midi": 86,
          "name": "D6",
          "ticks": 33697,
          "time": 120.346378427083,
          "velocity": 0.448818897637795
        },
        {
          "duration": 0.157142791666658,
          "durationTicks": 44,
          "midi": 98,
          "name": "D7",
          "ticks": 33697,
          "time": 120.346378427083,
          "velocity": 0.559055118110236
        }
      ]
    },
    {
      "channel": 0,
      "controlChanges": {
        "6": [
          {
            "number": 6,
            "ticks": 0,
            "time": 0,
            "value": 0.094488188976378
          }
        ],
        "7": [
          {
            "number": 7,
            "ticks": 0,
            "time": 0,
            "value": 1
          },
          {
            "number": 7,
            "ticks": 0,
            "time": 0,
            "value": 1
          }
        ],
        "10": [
          {
            "number": 10,
            "ticks": 0,
            "time": 0,
            "value": 0.503937007874016
          },
          {
            "number": 10,
            "ticks": 0,
            "time": 0,
            "value": 0.503937007874016
          }
        ],
        "100": [
          {
            "number": 100,
            "ticks": 0,
            "time": 0,
            "value": 0
          }
        ],
        "101": [
          {
            "number": 101,
            "ticks": 0,
            "time": 0,
            "value": 0
          }
        ]
      },
      "pitchBends": [
        {
          "ticks": 0,
          "time": 0,
          "value": 0
        },
        {
          "ticks": 0,
          "time": 0,
          "value": 0
        }
      ],
      "instrument": {
        "family": "piano",
        "number": 0,
        "name": "acoustic grand piano"
      },
      "name": "MIDI out #3",
      "notes": [],
      "endOfTrackTicks": 34177
    },
    {
      "channel": 1,
      "controlChanges": {
        "6": [
          {
            "number": 6,
            "ticks": 0,
            "time": 0,
            "value": 0.094488188976378
          },
          {
            "number": 6,
            "ticks": 0,
            "time": 0,
            "value": 0.094488188976378
          },
          {
            "number": 6,
            "ticks": 34176,
            "time": 122.057092,
            "value": 0.094488188976378
          },
          {
            "number": 6,
            "ticks": 34177,
            "time": 122.060663427083,
            "value": 0.094488188976378
          },
          {
            "number": 6,
            "ticks": 34177,
            "time": 122.060663427083,
            "value": 0.094488188976378
          }
        ],
        "7": [
          {
            "number": 7,
            "ticks": 0,
            "time": 0,
            "value": 1
          },
          {
            "number": 7,
            "ticks": 0,
            "time": 0,
            "value": 1
          },
          {
            "number": 7,
            "ticks": 34176,
            "time": 122.057092,
            "value": 1
          },
          {
            "number": 7,
            "ticks": 34177,
            "time": 122.060663427083,
            "value": 1
          },
          {
            "number": 7,
            "ticks": 34177,
            "time": 122.060663427083,
            "value": 1
          }
        ],
        "10": [
          {
            "number": 10,
            "ticks": 0,
            "time": 0,
            "value": 0.503937007874016
          },
          {
            "number": 10,
            "ticks": 0,
            "time": 0,
            "value": 0.503937007874016
          },
          {
            "number": 10,
            "ticks": 34176,
            "time": 122.057092,
            "value": 0.503937007874016
          },
          {
            "number": 10,
            "ticks": 34177,
            "time": 122.060663427083,
            "value": 0.503937007874016
          },
          {
            "number": 10,
            "ticks": 34177,
            "time": 122.060663427083,
            "value": 0.503937007874016
          }
        ],
        "100": [
          {
            "number": 100,
            "ticks": 0,
            "time": 0,
            "value": 0
          },
          {
            "number": 100,
            "ticks": 0,
            "time": 0,
            "value": 0
          },
          {
            "number": 100,
            "ticks": 34176,
            "time": 122.057092,
            "value": 0
          },
          {
            "number": 100,
            "ticks": 34177,
            "time": 122.060663427083,
            "value": 0
          },
          {
            "number": 100,
            "ticks": 34177,
            "time": 122.060663427083,
            "value": 0
          }
        ],
        "101": [
          {
            "number": 101,
            "ticks": 0,
            "time": 0,
            "value": 0
          },
          {
            "number": 101,
            "ticks": 0,
            "time": 0,
            "value": 0
          },
          {
            "number": 101,
            "ticks": 34176,
            "time": 122.057092,
            "value": 0
          },
          {
            "number": 101,
            "ticks": 34177,
            "time": 122.060663427083,
            "value": 0
          },
          {
            "number": 101,
            "ticks": 34177,
            "time": 122.060663427083,
            "value": 0
          }
        ]
      },
      "pitchBends": [
        {
          "ticks": 0,
          "time": 0,
          "value": 0
        },
        {
          "ticks": 0,
          "time": 0,
          "value": 0
        },
        {
          "ticks": 34176,
          "time": 122.057092,
          "value": 0
        },
        {
          "ticks": 34177,
          "time": 122.060663427083,
          "value": 0
        },
        {
          "ticks": 34177,
          "time": 122.060663427083,
          "value": 0
        }
      ],
      "instrument": {
        "family": "synth lead",
        "number": 87,
        "name": "lead 8 (bass + lead)"
      },
      "name": "",
      "notes": [
        {
          "duration": 0.171428500000001,
          "durationTicks": 48,
          "midi": 26,
          "name": "D1",
          "ticks": 6144,
          "time": 21.942848,
          "velocity": 0.637795275590551
        },
        {
          "duration": 0.157142791666665,
          "durationTicks": 44,
          "midi": 41,
          "name": "F2",
          "ticks": 6195,
          "time": 22.12499078125,
          "velocity": 0.62992125984252
        },
        {
          "duration": 0.157142791666665,
          "durationTicks": 44,
          "midi": 38,
          "name": "D2",
          "ticks": 6195,
          "time": 22.12499078125,
          "velocity": 0.62992125984252
        },
        {
          "duration": 0.160714218750002,
          "durationTicks": 45,
          "midi": 26,
          "name": "D1",
          "ticks": 6242,
          "time": 22.2928478541667,
          "velocity": 0.62992125984252
        },
        {
          "duration": 0.160714218749998,
          "durationTicks": 45,
          "midi": 41,
          "name": "F2",
          "ticks": 6290,
          "time": 22.4642763541667,
          "velocity": 0.62992125984252
        },
        {
          "duration": 0.160714218749998,
          "durationTicks": 45,
          "midi": 38,
          "name": "D2",
          "ticks": 6290,
          "time": 22.4642763541667,
          "velocity": 0.62992125984252
        },
        {
          "duration": 0.160714218750002,
          "durationTicks": 45,
          "midi": 26,
          "name": "D1",
          "ticks": 6337,
          "time": 22.6321334270833,
          "velocity": 0.62992125984252
        },
        {
          "duration": 0.160714218750002,
          "durationTicks": 45,
          "midi": 41,
          "name": "F2",
          "ticks": 6385,
          "time": 22.8035619270833,
          "velocity": 0.62992125984252
        },
        {
          "duration": 0.160714218750002,
          "durationTicks": 45,
          "midi": 38,
          "name": "D2",
          "ticks": 6385,
          "time": 22.8035619270833,
          "velocity": 0.62992125984252
        },
        {
          "duration": 0.157142791666665,
          "durationTicks": 44,
          "midi": 26,
          "name": "D1",
          "ticks": 6433,
          "time": 22.9749904270833,
          "velocity": 0.62992125984252
        },
        {
          "duration": 0.160714218749998,
          "durationTicks": 45,
          "midi": 41,
          "name": "F2",
          "ticks": 6480,
          "time": 23.1428475,
          "velocity": 0.62992125984252
        },
        {
          "duration": 0.160714218749998,
          "durationTicks": 45,
          "midi": 38,
          "name": "D2",
          "ticks": 6480,
          "time": 23.1428475,
          "velocity": 0.62992125984252
        },
        {
          "duration": 0.171428499999998,
          "durationTicks": 48,
          "midi": 26,
          "name": "D1",
          "ticks": 6528,
          "time": 23.314276,
          "velocity": 0.62992125984252
        },
        {
          "duration": 0.157142791666665,
          "durationTicks": 44,
          "midi": 41,
          "name": "F2",
          "ticks": 6579,
          "time": 23.49641878125,
          "velocity": 0.62992125984252
        },
        {
          "duration": 0.157142791666665,
          "durationTicks": 44,
          "midi": 38,
          "name": "D2",
          "ticks": 6579,
          "time": 23.49641878125,
          "velocity": 0.62992125984252
        },
        {
          "duration": 0.160714218749998,
          "durationTicks": 45,
          "midi": 26,
          "name": "D1",
          "ticks": 6626,
          "time": 23.6642758541667,
          "velocity": 0.62992125984252
        },
        {
          "duration": 0.160714218750002,
          "durationTicks": 45,
          "midi": 41,
          "name": "F2",
          "ticks": 6674,
          "time": 23.8357043541667,
          "velocity": 0.62992125984252
        },
        {
          "duration": 0.160714218750002,
          "durationTicks": 45,
          "midi": 38,
          "name": "D2",
          "ticks": 6674,
          "time": 23.8357043541667,
          "velocity": 0.62992125984252
        },
        {
          "duration": 0.160714218749998,
          "durationTicks": 45,
          "midi": 26,
          "name": "D1",
          "ticks": 6721,
          "time": 24.0035614270833,
          "velocity": 0.62992125984252
        },
        {
          "duration": 0.160714218749998,
          "durationTicks": 45,
          "midi": 41,
          "name": "F2",
          "ticks": 6769,
          "time": 24.1749899270833,
          "velocity": 0.62992125984252
        },
        {
          "duration": 0.160714218749998,
          "durationTicks": 45,
          "midi": 38,
          "name": "D2",
          "ticks": 6769,
          "time": 24.1749899270833,
          "velocity": 0.62992125984252
        },
        {
          "duration": 0.157142791666665,
          "durationTicks": 44,
          "midi": 26,
          "name": "D1",
          "ticks": 6817,
          "time": 24.3464184270833,
          "velocity": 0.62992125984252
        },
        {
          "duration": 0.160714218750002,
          "durationTicks": 45,
          "midi": 41,
          "name": "F2",
          "ticks": 6864,
          "time": 24.5142755,
          "velocity": 0.62992125984252
        },
        {
          "duration": 0.160714218750002,
          "durationTicks": 45,
          "midi": 38,
          "name": "D2",
          "ticks": 6864,
          "time": 24.5142755,
          "velocity": 0.62992125984252
        },
        {
          "duration": 0.171428500000001,
          "durationTicks": 48,
          "midi": 26,
          "name": "D1",
          "ticks": 6912,
          "time": 24.685704,
          "velocity": 0.62992125984252
        },
        {
          "duration": 0.157142791666665,
          "durationTicks": 44,
          "midi": 41,
          "name": "F2",
          "ticks": 6963,
          "time": 24.86784678125,
          "velocity": 0.62992125984252
        },
        {
          "duration": 0.157142791666665,
          "durationTicks": 44,
          "midi": 38,
          "name": "D2",
          "ticks": 6963,
          "time": 24.86784678125,
          "velocity": 0.62992125984252
        },
        {
          "duration": 0.160714218750002,
          "durationTicks": 45,
          "midi": 26,
          "name": "D1",
          "ticks": 7010,
          "time": 25.0357038541667,
          "velocity": 0.62992125984252
        },
        {
          "duration": 0.160714218749998,
          "durationTicks": 45,
          "midi": 41,
          "name": "F2",
          "ticks": 7058,
          "time": 25.2071323541667,
          "velocity": 0.62992125984252
        },
        {
          "duration": 0.160714218749998,
          "durationTicks": 45,
          "midi": 38,
          "name": "D2",
          "ticks": 7058,
          "time": 25.2071323541667,
          "velocity": 0.62992125984252
        },
        {
          "duration": 0.160714218750002,
          "durationTicks": 45,
          "midi": 26,
          "name": "D1",
          "ticks": 7105,
          "time": 25.3749894270833,
          "velocity": 0.62992125984252
        },
        {
          "duration": 0.160714218750002,
          "durationTicks": 45,
          "midi": 41,
          "name": "F2",
          "ticks": 7153,
          "time": 25.5464179270833,
          "velocity": 0.62992125984252
        },
        {
          "duration": 0.160714218750002,
          "durationTicks": 45,
          "midi": 38,
          "name": "D2",
          "ticks": 7153,
          "time": 25.5464179270833,
          "velocity": 0.62992125984252
        },
        {
          "duration": 0.157142791666665,
          "durationTicks": 44,
          "midi": 26,
          "name": "D1",
          "ticks": 7201,
          "time": 25.7178464270833,
          "velocity": 0.62992125984252
        },
        {
          "duration": 0.160714218750002,
          "durationTicks": 45,
          "midi": 41,
          "name": "F2",
          "ticks": 7248,
          "time": 25.8857035,
          "velocity": 0.62992125984252
        },
        {
          "duration": 0.160714218750002,
          "durationTicks": 45,
          "midi": 38,
          "name": "D2",
          "ticks": 7248,
          "time": 25.8857035,
          "velocity": 0.62992125984252
        },
        {
          "duration": 0.171428499999998,
          "durationTicks": 48,
          "midi": 26,
          "name": "D1",
          "ticks": 7296,
          "time": 26.057132,
          "velocity": 0.62992125984252
        },
        {
          "duration": 0.157142791666665,
          "durationTicks": 44,
          "midi": 41,
          "name": "F2",
          "ticks": 7347,
          "time": 26.23927478125,
          "velocity": 0.62992125984252
        },
        {
          "duration": 0.157142791666665,
          "durationTicks": 44,
          "midi": 38,
          "name": "D2",
          "ticks": 7347,
          "time": 26.23927478125,
          "velocity": 0.62992125984252
        },
        {
          "duration": 0.160714218749998,
          "durationTicks": 45,
          "midi": 26,
          "name": "D1",
          "ticks": 7394,
          "time": 26.4071318541667,
          "velocity": 0.62992125984252
        },
        {
          "duration": 0.160714218750002,
          "durationTicks": 45,
          "midi": 41,
          "name": "F2",
          "ticks": 7442,
          "time": 26.5785603541667,
          "velocity": 0.62992125984252
        },
        {
          "duration": 0.160714218750002,
          "durationTicks": 45,
          "midi": 38,
          "name": "D2",
          "ticks": 7442,
          "time": 26.5785603541667,
          "velocity": 0.62992125984252
        },
        {
          "duration": 0.160714218750002,
          "durationTicks": 45,
          "midi": 26,
          "name": "D1",
          "ticks": 7489,
          "time": 26.7464174270833,
          "velocity": 0.62992125984252
        },
        {
          "duration": 0.160714218749998,
          "durationTicks": 45,
          "midi": 41,
          "name": "F2",
          "ticks": 7537,
          "time": 26.9178459270833,
          "velocity": 0.62992125984252
        },
        {
          "duration": 0.160714218749998,
          "durationTicks": 45,
          "midi": 38,
          "name": "D2",
          "ticks": 7537,
          "time": 26.9178459270833,
          "velocity": 0.62992125984252
        },
        {
          "duration": 0.157142791666665,
          "durationTicks": 44,
          "midi": 24,
          "name": "C1",
          "ticks": 7585,
          "time": 27.0892744270833,
          "velocity": 0.62992125984252
        },
        {
          "duration": 0.160714218749998,
          "durationTicks": 45,
          "midi": 40,
          "name": "E2",
          "ticks": 7632,
          "time": 27.2571315,
          "velocity": 0.62992125984252
        },
        {
          "duration": 0.160714218749998,
          "durationTicks": 45,
          "midi": 36,
          "name": "C2",
          "ticks": 7632,
          "time": 27.2571315,
          "velocity": 0.62992125984252
        },
        {
          "duration": 0.171428500000001,
          "durationTicks": 48,
          "midi": 22,
          "name": "A#0",
          "ticks": 7680,
          "time": 27.42856,
          "velocity": 0.62992125984252
        },
        {
          "duration": 0.157142791666665,
          "durationTicks": 44,
          "midi": 34,
          "name": "A#1",
          "ticks": 7731,
          "time": 27.61070278125,
          "velocity": 0.62992125984252
        },
        {
          "duration": 0.157142791666665,
          "durationTicks": 44,
          "midi": 38,
          "name": "D2",
          "ticks": 7731,
          "time": 27.61070278125,
          "velocity": 0.62992125984252
        },
        {
          "duration": 0.160714218750002,
          "durationTicks": 45,
          "midi": 22,
          "name": "A#0",
          "ticks": 7778,
          "time": 27.7785598541667,
          "velocity": 0.62992125984252
        },
        {
          "duration": 0.160714218750002,
          "durationTicks": 45,
          "midi": 34,
          "name": "A#1",
          "ticks": 7826,
          "time": 27.9499883541667,
          "velocity": 0.62992125984252
        },
        {
          "duration": 0.160714218750002,
          "durationTicks": 45,
          "midi": 38,
          "name": "D2",
          "ticks": 7826,
          "time": 27.9499883541667,
          "velocity": 0.62992125984252
        },
        {
          "duration": 0.160714218749998,
          "durationTicks": 45,
          "midi": 22,
          "name": "A#0",
          "ticks": 7873,
          "time": 28.1178454270833,
          "velocity": 0.62992125984252
        },
        {
          "duration": 0.160714218750002,
          "durationTicks": 45,
          "midi": 38,
          "name": "D2",
          "ticks": 7921,
          "time": 28.2892739270833,
          "velocity": 0.62992125984252
        },
        {
          "duration": 0.160714218750002,
          "durationTicks": 45,
          "midi": 34,
          "name": "A#1",
          "ticks": 7921,
          "time": 28.2892739270833,
          "velocity": 0.62992125984252
        },
        {
          "duration": 0.157142791666665,
          "durationTicks": 44,
          "midi": 22,
          "name": "A#0",
          "ticks": 7969,
          "time": 28.4607024270833,
          "velocity": 0.62992125984252
        },
        {
          "duration": 0.160714218750002,
          "durationTicks": 45,
          "midi": 38,
          "name": "D2",
          "ticks": 8016,
          "time": 28.6285595,
          "velocity": 0.637795275590551
        },
        {
          "duration": 0.160714218750002,
          "durationTicks": 45,
          "midi": 34,
          "name": "A#1",
          "ticks": 8016,
          "time": 28.6285595,
          "velocity": 0.637795275590551
        },
        {
          "duration": 0.171428500000001,
          "durationTicks": 48,
          "midi": 22,
          "name": "A#0",
          "ticks": 8064,
          "time": 28.799988,
          "velocity": 0.637795275590551
        },
        {
          "duration": 0.157142791666665,
          "durationTicks": 44,
          "midi": 34,
          "name": "A#1",
          "ticks": 8115,
          "time": 28.98213078125,
          "velocity": 0.637795275590551
        },
        {
          "duration": 0.157142791666665,
          "durationTicks": 44,
          "midi": 38,
          "name": "D2",
          "ticks": 8115,
          "time": 28.98213078125,
          "velocity": 0.637795275590551
        },
        {
          "duration": 0.160714218749998,
          "durationTicks": 45,
          "midi": 22,
          "name": "A#0",
          "ticks": 8162,
          "time": 29.1499878541667,
          "velocity": 0.637795275590551
        },
        {
          "duration": 0.160714218749998,
          "durationTicks": 45,
          "midi": 34,
          "name": "A#1",
          "ticks": 8210,
          "time": 29.3214163541667,
          "velocity": 0.637795275590551
        },
        {
          "duration": 0.160714218749998,
          "durationTicks": 45,
          "midi": 38,
          "name": "D2",
          "ticks": 8210,
          "time": 29.3214163541667,
          "velocity": 0.637795275590551
        },
        {
          "duration": 0.160714218750002,
          "durationTicks": 45,
          "midi": 22,
          "name": "A#0",
          "ticks": 8257,
          "time": 29.4892734270833,
          "velocity": 0.637795275590551
        },
        {
          "duration": 0.160714218749998,
          "durationTicks": 45,
          "midi": 38,
          "name": "D2",
          "ticks": 8305,
          "time": 29.6607019270833,
          "velocity": 0.637795275590551
        },
        {
          "duration": 0.160714218749998,
          "durationTicks": 45,
          "midi": 34,
          "name": "A#1",
          "ticks": 8305,
          "time": 29.6607019270833,
          "velocity": 0.637795275590551
        },
        {
          "duration": 0.157142791666669,
          "durationTicks": 44,
          "midi": 22,
          "name": "A#0",
          "ticks": 8353,
          "time": 29.8321304270833,
          "velocity": 0.637795275590551
        },
        {
          "duration": 0.160714218749998,
          "durationTicks": 45,
          "midi": 38,
          "name": "D2",
          "ticks": 8400,
          "time": 29.9999875,
          "velocity": 0.637795275590551
        },
        {
          "duration": 0.160714218749998,
          "durationTicks": 45,
          "midi": 34,
          "name": "A#1",
          "ticks": 8400,
          "time": 29.9999875,
          "velocity": 0.637795275590551
        },
        {
          "duration": 0.171428500000001,
          "durationTicks": 48,
          "midi": 22,
          "name": "A#0",
          "ticks": 8448,
          "time": 30.171416,
          "velocity": 0.637795275590551
        },
        {
          "duration": 0.157142791666665,
          "durationTicks": 44,
          "midi": 38,
          "name": "D2",
          "ticks": 8499,
          "time": 30.35355878125,
          "velocity": 0.637795275590551
        },
        {
          "duration": 0.157142791666665,
          "durationTicks": 44,
          "midi": 34,
          "name": "A#1",
          "ticks": 8499,
          "time": 30.35355878125,
          "velocity": 0.637795275590551
        },
        {
          "duration": 0.160714218750002,
          "durationTicks": 45,
          "midi": 22,
          "name": "A#0",
          "ticks": 8546,
          "time": 30.5214158541667,
          "velocity": 0.637795275590551
        },
        {
          "duration": 0.160714218750002,
          "durationTicks": 45,
          "midi": 34,
          "name": "A#1",
          "ticks": 8594,
          "time": 30.6928443541667,
          "velocity": 0.637795275590551
        },
        {
          "duration": 0.160714218750002,
          "durationTicks": 45,
          "midi": 38,
          "name": "D2",
          "ticks": 8594,
          "time": 30.6928443541667,
          "velocity": 0.637795275590551
        },
        {
          "duration": 0.160714218749998,
          "durationTicks": 45,
          "midi": 22,
          "name": "A#0",
          "ticks": 8641,
          "time": 30.8607014270833,
          "velocity": 0.637795275590551
        },
        {
          "duration": 0.160714218750002,
          "durationTicks": 45,
          "midi": 38,
          "name": "D2",
          "ticks": 8689,
          "time": 31.0321299270833,
          "velocity": 0.637795275590551
        },
        {
          "duration": 0.160714218750002,
          "durationTicks": 45,
          "midi": 34,
          "name": "A#1",
          "ticks": 8689,
          "time": 31.0321299270833,
          "velocity": 0.637795275590551
        },
        {
          "duration": 0.157142791666665,
          "durationTicks": 44,
          "midi": 22,
          "name": "A#0",
          "ticks": 8737,
          "time": 31.2035584270833,
          "velocity": 0.637795275590551
        },
        {
          "duration": 0.160714218750002,
          "durationTicks": 45,
          "midi": 34,
          "name": "A#1",
          "ticks": 8784,
          "time": 31.3714155,
          "velocity": 0.637795275590551
        },
        {
          "duration": 0.160714218750002,
          "durationTicks": 45,
          "midi": 38,
          "name": "D2",
          "ticks": 8784,
          "time": 31.3714155,
          "velocity": 0.637795275590551
        },
        {
          "duration": 0.171428500000001,
          "durationTicks": 48,
          "midi": 21,
          "name": "A0",
          "ticks": 8832,
          "time": 31.542844,
          "velocity": 0.637795275590551
        },
        {
          "duration": 0.157142791666665,
          "durationTicks": 44,
          "midi": 33,
          "name": "A1",
          "ticks": 8883,
          "time": 31.72498678125,
          "velocity": 0.637795275590551
        },
        {
          "duration": 0.157142791666665,
          "durationTicks": 44,
          "midi": 36,
          "name": "C2",
          "ticks": 8883,
          "time": 31.72498678125,
          "velocity": 0.637795275590551
        },
        {
          "duration": 0.160714218749998,
          "durationTicks": 45,
          "midi": 21,
          "name": "A0",
          "ticks": 8930,
          "time": 31.8928438541667,
          "velocity": 0.637795275590551
        },
        {
          "duration": 0.160714218750002,
          "durationTicks": 45,
          "midi": 36,
          "name": "C2",
          "ticks": 8978,
          "time": 32.0642723541667,
          "velocity": 0.637795275590551
        },
        {
          "duration": 0.160714218750002,
          "durationTicks": 45,
          "midi": 33,
          "name": "A1",
          "ticks": 8978,
          "time": 32.0642723541667,
          "velocity": 0.637795275590551
        },
        {
          "duration": 0.160714218750002,
          "durationTicks": 45,
          "midi": 24,
          "name": "C1",
          "ticks": 9025,
          "time": 32.2321294270833,
          "velocity": 0.637795275590551
        },
        {
          "duration": 0.160714218750002,
          "durationTicks": 45,
          "midi": 36,
          "name": "C2",
          "ticks": 9073,
          "time": 32.4035579270833,
          "velocity": 0.637795275590551
        },
        {
          "duration": 0.157142791666665,
          "durationTicks": 44,
          "midi": 25,
          "name": "C#1",
          "ticks": 9121,
          "time": 32.5749864270833,
          "velocity": 0.637795275590551
        },
        {
          "duration": 0.160714218750002,
          "durationTicks": 45,
          "midi": 37,
          "name": "C#2",
          "ticks": 9168,
          "time": 32.7428435,
          "velocity": 0.637795275590551
        },
        {
          "duration": 0.171428499999998,
          "durationTicks": 48,
          "midi": 26,
          "name": "D1",
          "ticks": 9216,
          "time": 32.914272,
          "velocity": 0.637795275590551
        },
        {
          "duration": 0.157142791666665,
          "durationTicks": 44,
          "midi": 41,
          "name": "F2",
          "ticks": 9267,
          "time": 33.09641478125,
          "velocity": 0.637795275590551
        },
        {
          "duration": 0.157142791666665,
          "durationTicks": 44,
          "midi": 38,
          "name": "D2",
          "ticks": 9267,
          "time": 33.09641478125,
          "velocity": 0.637795275590551
        },
        {
          "duration": 0.160714218750002,
          "durationTicks": 45,
          "midi": 26,
          "name": "D1",
          "ticks": 9314,
          "time": 33.2642718541667,
          "velocity": 0.637795275590551
        },
        {
          "duration": 0.160714218749995,
          "durationTicks": 45,
          "midi": 38,
          "name": "D2",
          "ticks": 9362,
          "time": 33.4357003541667,
          "velocity": 0.637795275590551
        },
        {
          "duration": 0.160714218749995,
          "durationTicks": 45,
          "midi": 41,
          "name": "F2",
          "ticks": 9362,
          "time": 33.4357003541667,
          "velocity": 0.637795275590551
        },
        {
          "duration": 0.160714218750002,
          "durationTicks": 45,
          "midi": 26,
          "name": "D1",
          "ticks": 9409,
          "time": 33.6035574270833,
          "velocity": 0.637795275590551
        },
        {
          "duration": 0.160714218750002,
          "durationTicks": 45,
          "midi": 41,
          "name": "F2",
          "ticks": 9457,
          "time": 33.7749859270833,
          "velocity": 0.637795275590551
        },
        {
          "duration": 0.160714218750002,
          "durationTicks": 45,
          "midi": 38,
          "name": "D2",
          "ticks": 9457,
          "time": 33.7749859270833,
          "velocity": 0.637795275590551
        },
        {
          "duration": 0.157142791666665,
          "durationTicks": 44,
          "midi": 26,
          "name": "D1",
          "ticks": 9505,
          "time": 33.9464144270833,
          "velocity": 0.637795275590551
        },
        {
          "duration": 0.160714218750002,
          "durationTicks": 45,
          "midi": 38,
          "name": "D2",
          "ticks": 9552,
          "time": 34.1142715,
          "velocity": 0.637795275590551
        },
        {
          "duration": 0.160714218750002,
          "durationTicks": 45,
          "midi": 41,
          "name": "F2",
          "ticks": 9552,
          "time": 34.1142715,
          "velocity": 0.637795275590551
        },
        {
          "duration": 0.171428499999998,
          "durationTicks": 48,
          "midi": 26,
          "name": "D1",
          "ticks": 9600,
          "time": 34.2857,
          "velocity": 0.62992125984252
        },
        {
          "duration": 0.157142791666665,
          "durationTicks": 44,
          "midi": 38,
          "name": "D2",
          "ticks": 9651,
          "time": 34.46784278125,
          "velocity": 0.62992125984252
        },
        {
          "duration": 0.157142791666665,
          "durationTicks": 44,
          "midi": 41,
          "name": "F2",
          "ticks": 9651,
          "time": 34.46784278125,
          "velocity": 0.62992125984252
        },
        {
          "duration": 0.160714218750002,
          "durationTicks": 45,
          "midi": 26,
          "name": "D1",
          "ticks": 9698,
          "time": 34.6356998541667,
          "velocity": 0.62992125984252
        },
        {
          "duration": 0.160714218750002,
          "durationTicks": 45,
          "midi": 41,
          "name": "F2",
          "ticks": 9746,
          "time": 34.8071283541667,
          "velocity": 0.62992125984252
        },
        {
          "duration": 0.160714218750002,
          "durationTicks": 45,
          "midi": 38,
          "name": "D2",
          "ticks": 9746,
          "time": 34.8071283541667,
          "velocity": 0.62992125984252
        },
        {
          "duration": 0.160714218749995,
          "durationTicks": 45,
          "midi": 26,
          "name": "D1",
          "ticks": 9793,
          "time": 34.9749854270833,
          "velocity": 0.62992125984252
        },
        {
          "duration": 0.160714218750002,
          "durationTicks": 45,
          "midi": 38,
          "name": "D2",
          "ticks": 9841,
          "time": 35.1464139270833,
          "velocity": 0.62992125984252
        },
        {
          "duration": 0.160714218750002,
          "durationTicks": 45,
          "midi": 41,
          "name": "F2",
          "ticks": 9841,
          "time": 35.1464139270833,
          "velocity": 0.62992125984252
        },
        {
          "duration": 0.157142791666665,
          "durationTicks": 44,
          "midi": 26,
          "name": "D1",
          "ticks": 9889,
          "time": 35.3178424270833,
          "velocity": 0.62992125984252
        },
        {
          "duration": 0.160714218750002,
          "durationTicks": 45,
          "midi": 41,
          "name": "F2",
          "ticks": 9936,
          "time": 35.4856995,
          "velocity": 0.62992125984252
        },
        {
          "duration": 0.160714218750002,
          "durationTicks": 45,
          "midi": 38,
          "name": "D2",
          "ticks": 9936,
          "time": 35.4856995,
          "velocity": 0.62992125984252
        },
        {
          "duration": 0.171428500000005,
          "durationTicks": 48,
          "midi": 26,
          "name": "D1",
          "ticks": 9984,
          "time": 35.657128,
          "velocity": 0.62992125984252
        },
        {
          "duration": 0.157142791666665,
          "durationTicks": 44,
          "midi": 41,
          "name": "F2",
          "ticks": 10035,
          "time": 35.83927078125,
          "velocity": 0.62992125984252
        },
        {
          "duration": 0.157142791666665,
          "durationTicks": 44,
          "midi": 38,
          "name": "D2",
          "ticks": 10035,
          "time": 35.83927078125,
          "velocity": 0.62992125984252
        },
        {
          "duration": 0.160714218750002,
          "durationTicks": 45,
          "midi": 26,
          "name": "D1",
          "ticks": 10082,
          "time": 36.0071278541667,
          "velocity": 0.62992125984252
        },
        {
          "duration": 0.160714218750002,
          "durationTicks": 45,
          "midi": 38,
          "name": "D2",
          "ticks": 10130,
          "time": 36.1785563541667,
          "velocity": 0.62992125984252
        },
        {
          "duration": 0.160714218750002,
          "durationTicks": 45,
          "midi": 41,
          "name": "F2",
          "ticks": 10130,
          "time": 36.1785563541667,
          "velocity": 0.62992125984252
        },
        {
          "duration": 0.160714218750002,
          "durationTicks": 45,
          "midi": 26,
          "name": "D1",
          "ticks": 10177,
          "time": 36.3464134270833,
          "velocity": 0.62992125984252
        },
        {
          "duration": 0.160714218750002,
          "durationTicks": 45,
          "midi": 38,
          "name": "D2",
          "ticks": 10225,
          "time": 36.5178419270833,
          "velocity": 0.62992125984252
        },
        {
          "duration": 0.160714218750002,
          "durationTicks": 45,
          "midi": 41,
          "name": "F2",
          "ticks": 10225,
          "time": 36.5178419270833,
          "velocity": 0.62992125984252
        },
        {
          "duration": 0.157142791666665,
          "durationTicks": 44,
          "midi": 26,
          "name": "D1",
          "ticks": 10273,
          "time": 36.6892704270833,
          "velocity": 0.62992125984252
        },
        {
          "duration": 0.160714218750002,
          "durationTicks": 45,
          "midi": 41,
          "name": "F2",
          "ticks": 10320,
          "time": 36.8571275,
          "velocity": 0.62992125984252
        },
        {
          "duration": 0.160714218750002,
          "durationTicks": 45,
          "midi": 38,
          "name": "D2",
          "ticks": 10320,
          "time": 36.8571275,
          "velocity": 0.62992125984252
        },
        {
          "duration": 0.171428499999998,
          "durationTicks": 48,
          "midi": 26,
          "name": "D1",
          "ticks": 10368,
          "time": 37.028556,
          "velocity": 0.62992125984252
        },
        {
          "duration": 0.157142791666665,
          "durationTicks": 44,
          "midi": 41,
          "name": "F2",
          "ticks": 10419,
          "time": 37.21069878125,
          "velocity": 0.62992125984252
        },
        {
          "duration": 0.157142791666665,
          "durationTicks": 44,
          "midi": 38,
          "name": "D2",
          "ticks": 10419,
          "time": 37.21069878125,
          "velocity": 0.62992125984252
        },
        {
          "duration": 0.160714218749995,
          "durationTicks": 45,
          "midi": 26,
          "name": "D1",
          "ticks": 10466,
          "time": 37.3785558541667,
          "velocity": 0.62992125984252
        },
        {
          "duration": 0.160714218750002,
          "durationTicks": 45,
          "midi": 38,
          "name": "D2",
          "ticks": 10514,
          "time": 37.5499843541667,
          "velocity": 0.62992125984252
        },
        {
          "duration": 0.160714218750002,
          "durationTicks": 45,
          "midi": 41,
          "name": "F2",
          "ticks": 10514,
          "time": 37.5499843541667,
          "velocity": 0.62992125984252
        },
        {
          "duration": 0.160714218750002,
          "durationTicks": 45,
          "midi": 26,
          "name": "D1",
          "ticks": 10561,
          "time": 37.7178414270833,
          "velocity": 0.62992125984252
        },
        {
          "duration": 0.160714218749995,
          "durationTicks": 45,
          "midi": 38,
          "name": "D2",
          "ticks": 10609,
          "time": 37.8892699270833,
          "velocity": 0.62992125984252
        },
        {
          "duration": 0.160714218749995,
          "durationTicks": 45,
          "midi": 41,
          "name": "F2",
          "ticks": 10609,
          "time": 37.8892699270833,
          "velocity": 0.62992125984252
        },
        {
          "duration": 0.157142791666665,
          "durationTicks": 44,
          "midi": 24,
          "name": "C1",
          "ticks": 10657,
          "time": 38.0606984270833,
          "velocity": 0.62992125984252
        },
        {
          "duration": 0.160714218749995,
          "durationTicks": 45,
          "midi": 36,
          "name": "C2",
          "ticks": 10704,
          "time": 38.2285555,
          "velocity": 0.62992125984252
        },
        {
          "duration": 0.160714218749995,
          "durationTicks": 45,
          "midi": 40,
          "name": "E2",
          "ticks": 10704,
          "time": 38.2285555,
          "velocity": 0.62992125984252
        },
        {
          "duration": 0.171428499999998,
          "durationTicks": 48,
          "midi": 22,
          "name": "A#0",
          "ticks": 10752,
          "time": 38.399984,
          "velocity": 0.62992125984252
        },
        {
          "duration": 0.157142791666665,
          "durationTicks": 44,
          "midi": 34,
          "name": "A#1",
          "ticks": 10803,
          "time": 38.58212678125,
          "velocity": 0.62992125984252
        },
        {
          "duration": 0.157142791666665,
          "durationTicks": 44,
          "midi": 38,
          "name": "D2",
          "ticks": 10803,
          "time": 38.58212678125,
          "velocity": 0.62992125984252
        },
        {
          "duration": 0.160714218750002,
          "durationTicks": 45,
          "midi": 22,
          "name": "A#0",
          "ticks": 10850,
          "time": 38.7499838541667,
          "velocity": 0.62992125984252
        },
        {
          "duration": 0.160714218750002,
          "durationTicks": 45,
          "midi": 38,
          "name": "D2",
          "ticks": 10898,
          "time": 38.9214123541667,
          "velocity": 0.62992125984252
        },
        {
          "duration": 0.160714218750002,
          "durationTicks": 45,
          "midi": 34,
          "name": "A#1",
          "ticks": 10898,
          "time": 38.9214123541667,
          "velocity": 0.62992125984252
        },
        {
          "duration": 0.160714218750002,
          "durationTicks": 45,
          "midi": 22,
          "name": "A#0",
          "ticks": 10945,
          "time": 39.0892694270833,
          "velocity": 0.62992125984252
        },
        {
          "duration": 0.160714218750002,
          "durationTicks": 45,
          "midi": 34,
          "name": "A#1",
          "ticks": 10993,
          "time": 39.2606979270833,
          "velocity": 0.62992125984252
        },
        {
          "duration": 0.160714218750002,
          "durationTicks": 45,
          "midi": 38,
          "name": "D2",
          "ticks": 10993,
          "time": 39.2606979270833,
          "velocity": 0.62992125984252
        },
        {
          "duration": 0.157142791666665,
          "durationTicks": 44,
          "midi": 22,
          "name": "A#0",
          "ticks": 11041,
          "time": 39.4321264270833,
          "velocity": 0.62992125984252
        },
        {
          "duration": 0.160714218750002,
          "durationTicks": 45,
          "midi": 38,
          "name": "D2",
          "ticks": 11088,
          "time": 39.5999835,
          "velocity": 0.62992125984252
        },
        {
          "duration": 0.160714218750002,
          "durationTicks": 45,
          "midi": 34,
          "name": "A#1",
          "ticks": 11088,
          "time": 39.5999835,
          "velocity": 0.62992125984252
        },
        {
          "duration": 0.171428499999998,
          "durationTicks": 48,
          "midi": 22,
          "name": "A#0",
          "ticks": 11136,
          "time": 39.771412,
          "velocity": 0.62992125984252
        },
        {
          "duration": 0.157142791666665,
          "durationTicks": 44,
          "midi": 34,
          "name": "A#1",
          "ticks": 11187,
          "time": 39.95355478125,
          "velocity": 0.62992125984252
        },
        {
          "duration": 0.157142791666665,
          "durationTicks": 44,
          "midi": 38,
          "name": "D2",
          "ticks": 11187,
          "time": 39.95355478125,
          "velocity": 0.62992125984252
        },
        {
          "duration": 0.160714218750002,
          "durationTicks": 45,
          "midi": 22,
          "name": "A#0",
          "ticks": 11234,
          "time": 40.1214118541667,
          "velocity": 0.62992125984252
        },
        {
          "duration": 0.160714218749995,
          "durationTicks": 45,
          "midi": 38,
          "name": "D2",
          "ticks": 11282,
          "time": 40.2928403541667,
          "velocity": 0.62992125984252
        },
        {
          "duration": 0.160714218749995,
          "durationTicks": 45,
          "midi": 34,
          "name": "A#1",
          "ticks": 11282,
          "time": 40.2928403541667,
          "velocity": 0.62992125984252
        },
        {
          "duration": 0.160714218750002,
          "durationTicks": 45,
          "midi": 22,
          "name": "A#0",
          "ticks": 11329,
          "time": 40.4606974270833,
          "velocity": 0.62992125984252
        },
        {
          "duration": 0.160714218750002,
          "durationTicks": 45,
          "midi": 38,
          "name": "D2",
          "ticks": 11377,
          "time": 40.6321259270833,
          "velocity": 0.62992125984252
        },
        {
          "duration": 0.160714218750002,
          "durationTicks": 45,
          "midi": 34,
          "name": "A#1",
          "ticks": 11377,
          "time": 40.6321259270833,
          "velocity": 0.62992125984252
        },
        {
          "duration": 0.157142791666672,
          "durationTicks": 44,
          "midi": 22,
          "name": "A#0",
          "ticks": 11425,
          "time": 40.8035544270833,
          "velocity": 0.62992125984252
        },
        {
          "duration": 0.160714218750002,
          "durationTicks": 45,
          "midi": 34,
          "name": "A#1",
          "ticks": 11472,
          "time": 40.9714115,
          "velocity": 0.62992125984252
        },
        {
          "duration": 0.160714218750002,
          "durationTicks": 45,
          "midi": 38,
          "name": "D2",
          "ticks": 11472,
          "time": 40.9714115,
          "velocity": 0.62992125984252
        },
        {
          "duration": 0.0928571041666686,
          "durationTicks": 26,
          "midi": 27,
          "name": "D#1",
          "ticks": 11520,
          "time": 41.14284,
          "velocity": 0.62992125984252
        },
        {
          "duration": 0.0928571041666686,
          "durationTicks": 26,
          "midi": 39,
          "name": "D#2",
          "ticks": 11520,
          "time": 41.14284,
          "velocity": 0.62992125984252
        },
        {
          "duration": 0.0785713958333361,
          "durationTicks": 22,
          "midi": 39,
          "name": "D#2",
          "ticks": 11547,
          "time": 41.23926853125,
          "velocity": 0.62992125984252
        },
        {
          "duration": 0.0785713958333361,
          "durationTicks": 22,
          "midi": 27,
          "name": "D#1",
          "ticks": 11547,
          "time": 41.23926853125,
          "velocity": 0.62992125984252
        },
        {
          "duration": 0.0821428229166727,
          "durationTicks": 23,
          "midi": 38,
          "name": "D2",
          "ticks": 11594,
          "time": 41.4071256041667,
          "velocity": 0.62992125984252
        },
        {
          "duration": 0.0821428229166727,
          "durationTicks": 23,
          "midi": 26,
          "name": "D1",
          "ticks": 11594,
          "time": 41.4071256041667,
          "velocity": 0.62992125984252
        },
        {
          "duration": 0.0821428229166727,
          "durationTicks": 23,
          "midi": 38,
          "name": "D2",
          "ticks": 11618,
          "time": 41.4928398541667,
          "velocity": 0.62992125984252
        },
        {
          "duration": 0.0821428229166727,
          "durationTicks": 23,
          "midi": 26,
          "name": "D1",
          "ticks": 11618,
          "time": 41.4928398541667,
          "velocity": 0.62992125984252
        },
        {
          "duration": 0.0749999687499994,
          "durationTicks": 21,
          "midi": 36,
          "name": "C2",
          "ticks": 11666,
          "time": 41.6642683541667,
          "velocity": 0.62992125984252
        },
        {
          "duration": 0.0749999687499994,
          "durationTicks": 21,
          "midi": 24,
          "name": "C1",
          "ticks": 11666,
          "time": 41.6642683541667,
          "velocity": 0.62992125984252
        },
        {
          "duration": 0.0821428229166656,
          "durationTicks": 23,
          "midi": 36,
          "name": "C2",
          "ticks": 11689,
          "time": 41.7464111770833,
          "velocity": 0.62992125984252
        },
        {
          "duration": 0.0821428229166656,
          "durationTicks": 23,
          "midi": 24,
          "name": "C1",
          "ticks": 11689,
          "time": 41.7464111770833,
          "velocity": 0.62992125984252
        },
        {
          "duration": 0.160714218750002,
          "durationTicks": 45,
          "midi": 26,
          "name": "D1",
          "ticks": 11761,
          "time": 42.0035539270833,
          "velocity": 0.637795275590551
        },
        {
          "duration": 0.160714218750002,
          "durationTicks": 45,
          "midi": 38,
          "name": "D2",
          "ticks": 11761,
          "time": 42.0035539270833,
          "velocity": 0.637795275590551
        },
        {
          "duration": 0.157142791666665,
          "durationTicks": 44,
          "midi": 27,
          "name": "D#1",
          "ticks": 11809,
          "time": 42.1749824270833,
          "velocity": 0.637795275590551
        },
        {
          "duration": 0.157142791666665,
          "durationTicks": 44,
          "midi": 39,
          "name": "D#2",
          "ticks": 11809,
          "time": 42.1749824270833,
          "velocity": 0.637795275590551
        },
        {
          "duration": 0.160714218750002,
          "durationTicks": 45,
          "midi": 24,
          "name": "C1",
          "ticks": 11856,
          "time": 42.3428395,
          "velocity": 0.637795275590551
        },
        {
          "duration": 0.160714218750002,
          "durationTicks": 45,
          "midi": 36,
          "name": "C2",
          "ticks": 11856,
          "time": 42.3428395,
          "velocity": 0.637795275590551
        },
        {
          "duration": 0.171428500000005,
          "durationTicks": 48,
          "midi": 38,
          "name": "D2",
          "ticks": 11904,
          "time": 42.514268,
          "velocity": 0.637795275590551
        },
        {
          "duration": 0.171428500000005,
          "durationTicks": 48,
          "midi": 26,
          "name": "D1",
          "ticks": 11904,
          "time": 42.514268,
          "velocity": 0.637795275590551
        },
        {
          "duration": 0.157142791666665,
          "durationTicks": 44,
          "midi": 26,
          "name": "D1",
          "ticks": 11955,
          "time": 42.69641078125,
          "velocity": 0.637795275590551
        },
        {
          "duration": 0.157142791666665,
          "durationTicks": 44,
          "midi": 38,
          "name": "D2",
          "ticks": 11955,
          "time": 42.69641078125,
          "velocity": 0.637795275590551
        },
        {
          "duration": 0.160714218750002,
          "durationTicks": 45,
          "midi": 38,
          "name": "D2",
          "ticks": 12002,
          "time": 42.8642678541667,
          "velocity": 0.637795275590551
        },
        {
          "duration": 0.160714218750002,
          "durationTicks": 45,
          "midi": 26,
          "name": "D1",
          "ticks": 12002,
          "time": 42.8642678541667,
          "velocity": 0.637795275590551
        },
        {
          "duration": 0.0749999687499994,
          "durationTicks": 21,
          "midi": 36,
          "name": "C2",
          "ticks": 12050,
          "time": 43.0356963541667,
          "velocity": 0.700787401574803
        },
        {
          "duration": 0.0749999687499994,
          "durationTicks": 21,
          "midi": 24,
          "name": "C1",
          "ticks": 12050,
          "time": 43.0356963541667,
          "velocity": 0.700787401574803
        },
        {
          "duration": 0.0821428229166656,
          "durationTicks": 23,
          "midi": 38,
          "name": "D2",
          "ticks": 12073,
          "time": 43.1178391770833,
          "velocity": 0.637795275590551
        },
        {
          "duration": 0.0821428229166656,
          "durationTicks": 23,
          "midi": 26,
          "name": "D1",
          "ticks": 12073,
          "time": 43.1178391770833,
          "velocity": 0.637795275590551
        },
        {
          "duration": 0.171428499999998,
          "durationTicks": 48,
          "midi": 41,
          "name": "F2",
          "ticks": 12288,
          "time": 43.885696,
          "velocity": 0.598425196850394
        },
        {
          "duration": 0.171428499999998,
          "durationTicks": 48,
          "midi": 26,
          "name": "D1",
          "ticks": 12288,
          "time": 43.885696,
          "velocity": 0.598425196850394
        },
        {
          "duration": 0.157142791666672,
          "durationTicks": 44,
          "midi": 41,
          "name": "F2",
          "ticks": 12339,
          "time": 44.06783878125,
          "velocity": 0.598425196850394
        },
        {
          "duration": 0.157142791666672,
          "durationTicks": 44,
          "midi": 38,
          "name": "D2",
          "ticks": 12339,
          "time": 44.06783878125,
          "velocity": 0.598425196850394
        },
        {
          "duration": 0.160714218750002,
          "durationTicks": 45,
          "midi": 26,
          "name": "D1",
          "ticks": 12386,
          "time": 44.2356958541667,
          "velocity": 0.598425196850394
        },
        {
          "duration": 0.160714218749995,
          "durationTicks": 45,
          "midi": 38,
          "name": "D2",
          "ticks": 12434,
          "time": 44.4071243541667,
          "velocity": 0.598425196850394
        },
        {
          "duration": 0.160714218749995,
          "durationTicks": 45,
          "midi": 41,
          "name": "F2",
          "ticks": 12434,
          "time": 44.4071243541667,
          "velocity": 0.598425196850394
        },
        {
          "duration": 0.160714218750002,
          "durationTicks": 45,
          "midi": 26,
          "name": "D1",
          "ticks": 12481,
          "time": 44.5749814270833,
          "velocity": 0.598425196850394
        },
        {
          "duration": 0.160714218750002,
          "durationTicks": 45,
          "midi": 41,
          "name": "F2",
          "ticks": 12529,
          "time": 44.7464099270833,
          "velocity": 0.598425196850394
        },
        {
          "duration": 0.160714218750002,
          "durationTicks": 45,
          "midi": 38,
          "name": "D2",
          "ticks": 12529,
          "time": 44.7464099270833,
          "velocity": 0.598425196850394
        },
        {
          "duration": 0.157142791666672,
          "durationTicks": 44,
          "midi": 26,
          "name": "D1",
          "ticks": 12577,
          "time": 44.9178384270833,
          "velocity": 0.598425196850394
        },
        {
          "duration": 0.160714218750002,
          "durationTicks": 45,
          "midi": 38,
          "name": "D2",
          "ticks": 12624,
          "time": 45.0856955,
          "velocity": 0.598425196850394
        },
        {
          "duration": 0.160714218750002,
          "durationTicks": 45,
          "midi": 41,
          "name": "F2",
          "ticks": 12624,
          "time": 45.0856955,
          "velocity": 0.598425196850394
        },
        {
          "duration": 0.171428499999998,
          "durationTicks": 48,
          "midi": 21,
          "name": "A0",
          "ticks": 12672,
          "time": 45.257124,
          "velocity": 0.598425196850394
        },
        {
          "duration": 0.157142791666665,
          "durationTicks": 44,
          "midi": 36,
          "name": "C2",
          "ticks": 12723,
          "time": 45.43926678125,
          "velocity": 0.598425196850394
        },
        {
          "duration": 0.157142791666665,
          "durationTicks": 44,
          "midi": 33,
          "name": "A1",
          "ticks": 12723,
          "time": 45.43926678125,
          "velocity": 0.598425196850394
        },
        {
          "duration": 0.160714218750002,
          "durationTicks": 45,
          "midi": 21,
          "name": "A0",
          "ticks": 12770,
          "time": 45.6071238541667,
          "velocity": 0.598425196850394
        },
        {
          "duration": 0.160714218750002,
          "durationTicks": 45,
          "midi": 36,
          "name": "C2",
          "ticks": 12818,
          "time": 45.7785523541667,
          "velocity": 0.598425196850394
        },
        {
          "duration": 0.160714218750002,
          "durationTicks": 45,
          "midi": 33,
          "name": "A1",
          "ticks": 12818,
          "time": 45.7785523541667,
          "velocity": 0.598425196850394
        },
        {
          "duration": 0.160714218750002,
          "durationTicks": 45,
          "midi": 21,
          "name": "A0",
          "ticks": 12865,
          "time": 45.9464094270833,
          "velocity": 0.598425196850394
        },
        {
          "duration": 0.160714218749995,
          "durationTicks": 45,
          "midi": 33,
          "name": "A1",
          "ticks": 12913,
          "time": 46.1178379270833,
          "velocity": 0.598425196850394
        },
        {
          "duration": 0.160714218749995,
          "durationTicks": 45,
          "midi": 36,
          "name": "C2",
          "ticks": 12913,
          "time": 46.1178379270833,
          "velocity": 0.598425196850394
        },
        {
          "duration": 0.157142791666672,
          "durationTicks": 44,
          "midi": 21,
          "name": "A0",
          "ticks": 12961,
          "time": 46.2892664270833,
          "velocity": 0.598425196850394
        },
        {
          "duration": 0.160714218750002,
          "durationTicks": 45,
          "midi": 33,
          "name": "A1",
          "ticks": 13008,
          "time": 46.4571235,
          "velocity": 0.598425196850394
        },
        {
          "duration": 0.160714218750002,
          "durationTicks": 45,
          "midi": 36,
          "name": "C2",
          "ticks": 13008,
          "time": 46.4571235,
          "velocity": 0.598425196850394
        },
        {
          "duration": 0.171428499999998,
          "durationTicks": 48,
          "midi": 22,
          "name": "A#0",
          "ticks": 13056,
          "time": 46.628552,
          "velocity": 0.598425196850394
        },
        {
          "duration": 0.157142791666672,
          "durationTicks": 44,
          "midi": 38,
          "name": "D2",
          "ticks": 13107,
          "time": 46.81069478125,
          "velocity": 0.598425196850394
        },
        {
          "duration": 0.157142791666672,
          "durationTicks": 44,
          "midi": 34,
          "name": "A#1",
          "ticks": 13107,
          "time": 46.81069478125,
          "velocity": 0.598425196850394
        },
        {
          "duration": 0.160714218750002,
          "durationTicks": 45,
          "midi": 22,
          "name": "A#0",
          "ticks": 13154,
          "time": 46.9785518541667,
          "velocity": 0.598425196850394
        },
        {
          "duration": 0.160714218750002,
          "durationTicks": 45,
          "midi": 38,
          "name": "D2",
          "ticks": 13202,
          "time": 47.1499803541667,
          "velocity": 0.598425196850394
        },
        {
          "duration": 0.160714218750002,
          "durationTicks": 45,
          "midi": 34,
          "name": "A#1",
          "ticks": 13202,
          "time": 47.1499803541667,
          "velocity": 0.598425196850394
        },
        {
          "duration": 0.160714218750002,
          "durationTicks": 45,
          "midi": 22,
          "name": "A#0",
          "ticks": 13249,
          "time": 47.3178374270833,
          "velocity": 0.598425196850394
        },
        {
          "duration": 0.160714218750002,
          "durationTicks": 45,
          "midi": 34,
          "name": "A#1",
          "ticks": 13297,
          "time": 47.4892659270833,
          "velocity": 0.598425196850394
        },
        {
          "duration": 0.160714218750002,
          "durationTicks": 45,
          "midi": 38,
          "name": "D2",
          "ticks": 13297,
          "time": 47.4892659270833,
          "velocity": 0.598425196850394
        },
        {
          "duration": 0.157142791666665,
          "durationTicks": 44,
          "midi": 22,
          "name": "A#0",
          "ticks": 13345,
          "time": 47.6606944270833,
          "velocity": 0.598425196850394
        },
        {
          "duration": 0.160714218750002,
          "durationTicks": 45,
          "midi": 34,
          "name": "A#1",
          "ticks": 13392,
          "time": 47.8285515,
          "velocity": 0.598425196850394
        },
        {
          "duration": 0.160714218750002,
          "durationTicks": 45,
          "midi": 38,
          "name": "D2",
          "ticks": 13392,
          "time": 47.8285515,
          "velocity": 0.598425196850394
        },
        {
          "duration": 0.171428500000005,
          "durationTicks": 48,
          "midi": 24,
          "name": "C1",
          "ticks": 13440,
          "time": 47.99998,
          "velocity": 0.598425196850394
        },
        {
          "duration": 0.157142791666672,
          "durationTicks": 44,
          "midi": 36,
          "name": "C2",
          "ticks": 13491,
          "time": 48.18212278125,
          "velocity": 0.598425196850394
        },
        {
          "duration": 0.157142791666672,
          "durationTicks": 44,
          "midi": 40,
          "name": "E2",
          "ticks": 13491,
          "time": 48.18212278125,
          "velocity": 0.598425196850394
        },
        {
          "duration": 0.160714218749995,
          "durationTicks": 45,
          "midi": 24,
          "name": "C1",
          "ticks": 13538,
          "time": 48.3499798541667,
          "velocity": 0.598425196850394
        },
        {
          "duration": 0.160714218750002,
          "durationTicks": 45,
          "midi": 36,
          "name": "C2",
          "ticks": 13586,
          "time": 48.5214083541667,
          "velocity": 0.598425196850394
        },
        {
          "duration": 0.160714218750002,
          "durationTicks": 45,
          "midi": 40,
          "name": "E2",
          "ticks": 13586,
          "time": 48.5214083541667,
          "velocity": 0.598425196850394
        },
        {
          "duration": 0.160714218750002,
          "durationTicks": 45,
          "midi": 24,
          "name": "C1",
          "ticks": 13633,
          "time": 48.6892654270833,
          "velocity": 0.598425196850394
        },
        {
          "duration": 0.160714218750002,
          "durationTicks": 45,
          "midi": 36,
          "name": "C2",
          "ticks": 13681,
          "time": 48.8606939270833,
          "velocity": 0.598425196850394
        },
        {
          "duration": 0.160714218750002,
          "durationTicks": 45,
          "midi": 40,
          "name": "E2",
          "ticks": 13681,
          "time": 48.8606939270833,
          "velocity": 0.598425196850394
        },
        {
          "duration": 0.157142791666665,
          "durationTicks": 44,
          "midi": 24,
          "name": "C1",
          "ticks": 13729,
          "time": 49.0321224270833,
          "velocity": 0.598425196850394
        },
        {
          "duration": 0.160714218750002,
          "durationTicks": 45,
          "midi": 40,
          "name": "E2",
          "ticks": 13776,
          "time": 49.1999795,
          "velocity": 0.606299212598425
        },
        {
          "duration": 0.160714218750002,
          "durationTicks": 45,
          "midi": 36,
          "name": "C2",
          "ticks": 13776,
          "time": 49.1999795,
          "velocity": 0.606299212598425
        },
        {
          "duration": 0.171428499999998,
          "durationTicks": 48,
          "midi": 26,
          "name": "D1",
          "ticks": 13824,
          "time": 49.371408,
          "velocity": 0.606299212598425
        },
        {
          "duration": 0.157142791666672,
          "durationTicks": 44,
          "midi": 41,
          "name": "F2",
          "ticks": 13875,
          "time": 49.55355078125,
          "velocity": 0.606299212598425
        },
        {
          "duration": 0.157142791666672,
          "durationTicks": 44,
          "midi": 38,
          "name": "D2",
          "ticks": 13875,
          "time": 49.55355078125,
          "velocity": 0.606299212598425
        },
        {
          "duration": 0.160714218750002,
          "durationTicks": 45,
          "midi": 26,
          "name": "D1",
          "ticks": 13922,
          "time": 49.7214078541667,
          "velocity": 0.606299212598425
        },
        {
          "duration": 0.160714218749995,
          "durationTicks": 45,
          "midi": 38,
          "name": "D2",
          "ticks": 13970,
          "time": 49.8928363541667,
          "velocity": 0.606299212598425
        },
        {
          "duration": 0.160714218749995,
          "durationTicks": 45,
          "midi": 41,
          "name": "F2",
          "ticks": 13970,
          "time": 49.8928363541667,
          "velocity": 0.606299212598425
        },
        {
          "duration": 0.160714218749995,
          "durationTicks": 45,
          "midi": 26,
          "name": "D1",
          "ticks": 14017,
          "time": 50.0606934270833,
          "velocity": 0.606299212598425
        },
        {
          "duration": 0.160714218750002,
          "durationTicks": 45,
          "midi": 41,
          "name": "F2",
          "ticks": 14065,
          "time": 50.2321219270833,
          "velocity": 0.606299212598425
        },
        {
          "duration": 0.160714218750002,
          "durationTicks": 45,
          "midi": 38,
          "name": "D2",
          "ticks": 14065,
          "time": 50.2321219270833,
          "velocity": 0.606299212598425
        },
        {
          "duration": 0.157142791666672,
          "durationTicks": 44,
          "midi": 26,
          "name": "D1",
          "ticks": 14113,
          "time": 50.4035504270833,
          "velocity": 0.606299212598425
        },
        {
          "duration": 0.160714218749995,
          "durationTicks": 45,
          "midi": 38,
          "name": "D2",
          "ticks": 14160,
          "time": 50.5714075,
          "velocity": 0.606299212598425
        },
        {
          "duration": 0.160714218749995,
          "durationTicks": 45,
          "midi": 41,
          "name": "F2",
          "ticks": 14160,
          "time": 50.5714075,
          "velocity": 0.606299212598425
        },
        {
          "duration": 0.171428499999998,
          "durationTicks": 48,
          "midi": 21,
          "name": "A0",
          "ticks": 14208,
          "time": 50.742836,
          "velocity": 0.606299212598425
        },
        {
          "duration": 0.157142791666672,
          "durationTicks": 44,
          "midi": 33,
          "name": "A1",
          "ticks": 14259,
          "time": 50.92497878125,
          "velocity": 0.606299212598425
        },
        {
          "duration": 0.157142791666672,
          "durationTicks": 44,
          "midi": 36,
          "name": "C2",
          "ticks": 14259,
          "time": 50.92497878125,
          "velocity": 0.606299212598425
        },
        {
          "duration": 0.160714218750002,
          "durationTicks": 45,
          "midi": 21,
          "name": "A0",
          "ticks": 14306,
          "time": 51.0928358541667,
          "velocity": 0.606299212598425
        },
        {
          "duration": 0.160714218750002,
          "durationTicks": 45,
          "midi": 36,
          "name": "C2",
          "ticks": 14354,
          "time": 51.2642643541667,
          "velocity": 0.606299212598425
        },
        {
          "duration": 0.160714218750002,
          "durationTicks": 45,
          "midi": 33,
          "name": "A1",
          "ticks": 14354,
          "time": 51.2642643541667,
          "velocity": 0.606299212598425
        },
        {
          "duration": 0.160714218750002,
          "durationTicks": 45,
          "midi": 21,
          "name": "A0",
          "ticks": 14401,
          "time": 51.4321214270833,
          "velocity": 0.606299212598425
        },
        {
          "duration": 0.160714218749995,
          "durationTicks": 45,
          "midi": 33,
          "name": "A1",
          "ticks": 14449,
          "time": 51.6035499270833,
          "velocity": 0.606299212598425
        },
        {
          "duration": 0.160714218749995,
          "durationTicks": 45,
          "midi": 36,
          "name": "C2",
          "ticks": 14449,
          "time": 51.6035499270833,
          "velocity": 0.606299212598425
        },
        {
          "duration": 0.157142791666672,
          "durationTicks": 44,
          "midi": 21,
          "name": "A0",
          "ticks": 14497,
          "time": 51.7749784270833,
          "velocity": 0.606299212598425
        },
        {
          "duration": 0.160714218750002,
          "durationTicks": 45,
          "midi": 36,
          "name": "C2",
          "ticks": 14544,
          "time": 51.9428355,
          "velocity": 0.606299212598425
        },
        {
          "duration": 0.160714218750002,
          "durationTicks": 45,
          "midi": 33,
          "name": "A1",
          "ticks": 14544,
          "time": 51.9428355,
          "velocity": 0.606299212598425
        },
        {
          "duration": 0.171428499999998,
          "durationTicks": 48,
          "midi": 22,
          "name": "A#0",
          "ticks": 14592,
          "time": 52.114264,
          "velocity": 0.606299212598425
        },
        {
          "duration": 0.157142791666665,
          "durationTicks": 44,
          "midi": 34,
          "name": "A#1",
          "ticks": 14643,
          "time": 52.29640678125,
          "velocity": 0.606299212598425
        },
        {
          "duration": 0.157142791666665,
          "durationTicks": 44,
          "midi": 38,
          "name": "D2",
          "ticks": 14643,
          "time": 52.29640678125,
          "velocity": 0.606299212598425
        },
        {
          "duration": 0.160714218750002,
          "durationTicks": 45,
          "midi": 22,
          "name": "A#0",
          "ticks": 14690,
          "time": 52.4642638541667,
          "velocity": 0.606299212598425
        },
        {
          "duration": 0.160714218750002,
          "durationTicks": 45,
          "midi": 34,
          "name": "A#1",
          "ticks": 14738,
          "time": 52.6356923541667,
          "velocity": 0.606299212598425
        },
        {
          "duration": 0.160714218750002,
          "durationTicks": 45,
          "midi": 38,
          "name": "D2",
          "ticks": 14738,
          "time": 52.6356923541667,
          "velocity": 0.606299212598425
        },
        {
          "duration": 0.160714218750002,
          "durationTicks": 45,
          "midi": 24,
          "name": "C1",
          "ticks": 14785,
          "time": 52.8035494270833,
          "velocity": 0.606299212598425
        },
        {
          "duration": 0.160714218750002,
          "durationTicks": 45,
          "midi": 36,
          "name": "C2",
          "ticks": 14833,
          "time": 52.9749779270833,
          "velocity": 0.606299212598425
        },
        {
          "duration": 0.160714218750002,
          "durationTicks": 45,
          "midi": 40,
          "name": "E2",
          "ticks": 14833,
          "time": 52.9749779270833,
          "velocity": 0.606299212598425
        },
        {
          "duration": 0.157142791666672,
          "durationTicks": 44,
          "midi": 24,
          "name": "C1",
          "ticks": 14881,
          "time": 53.1464064270833,
          "velocity": 0.614173228346457
        },
        {
          "duration": 0.160714218750002,
          "durationTicks": 45,
          "midi": 36,
          "name": "C2",
          "ticks": 14928,
          "time": 53.3142635,
          "velocity": 0.614173228346457
        },
        {
          "duration": 0.160714218750002,
          "durationTicks": 45,
          "midi": 40,
          "name": "E2",
          "ticks": 14928,
          "time": 53.3142635,
          "velocity": 0.614173228346457
        },
        {
          "duration": 0.171428500000005,
          "durationTicks": 48,
          "midi": 26,
          "name": "D1",
          "ticks": 14976,
          "time": 53.485692,
          "velocity": 0.614173228346457
        },
        {
          "duration": 0.157142791666672,
          "durationTicks": 44,
          "midi": 38,
          "name": "D2",
          "ticks": 15027,
          "time": 53.66783478125,
          "velocity": 0.614173228346457
        },
        {
          "duration": 0.157142791666672,
          "durationTicks": 44,
          "midi": 42,
          "name": "F#2",
          "ticks": 15027,
          "time": 53.66783478125,
          "velocity": 0.614173228346457
        },
        {
          "duration": 0.160714218749995,
          "durationTicks": 45,
          "midi": 26,
          "name": "D1",
          "ticks": 15074,
          "time": 53.8356918541667,
          "velocity": 0.614173228346457
        },
        {
          "duration": 0.160714218750002,
          "durationTicks": 45,
          "midi": 42,
          "name": "F#2",
          "ticks": 15122,
          "time": 54.0071203541667,
          "velocity": 0.614173228346457
        },
        {
          "duration": 0.160714218750002,
          "durationTicks": 45,
          "midi": 38,
          "name": "D2",
          "ticks": 15122,
          "time": 54.0071203541667,
          "velocity": 0.614173228346457
        },
        {
          "duration": 0.160714218750002,
          "durationTicks": 45,
          "midi": 26,
          "name": "D1",
          "ticks": 15169,
          "time": 54.1749774270833,
          "velocity": 0.622047244094488
        },
        {
          "duration": 0.160714218750002,
          "durationTicks": 45,
          "midi": 42,
          "name": "F#2",
          "ticks": 15217,
          "time": 54.3464059270833,
          "velocity": 0.622047244094488
        },
        {
          "duration": 0.160714218750002,
          "durationTicks": 45,
          "midi": 38,
          "name": "D2",
          "ticks": 15217,
          "time": 54.3464059270833,
          "velocity": 0.622047244094488
        },
        {
          "duration": 0.157142791666665,
          "durationTicks": 44,
          "midi": 26,
          "name": "D1",
          "ticks": 15265,
          "time": 54.5178344270833,
          "velocity": 0.622047244094488
        },
        {
          "duration": 0.160714218750002,
          "durationTicks": 45,
          "midi": 38,
          "name": "D2",
          "ticks": 15312,
          "time": 54.6856915,
          "velocity": 0.62992125984252
        },
        {
          "duration": 0.160714218750002,
          "durationTicks": 45,
          "midi": 42,
          "name": "F#2",
          "ticks": 15312,
          "time": 54.6856915,
          "velocity": 0.62992125984252
        },
        {
          "duration": 0.171428500000005,
          "durationTicks": 48,
          "midi": 26,
          "name": "D1",
          "ticks": 15360,
          "time": 54.85712,
          "velocity": 0.62992125984252
        },
        {
          "duration": 0.171428500000005,
          "durationTicks": 48,
          "midi": 41,
          "name": "F2",
          "ticks": 15360,
          "time": 54.85712,
          "velocity": 0.62992125984252
        },
        {
          "duration": 0.157142791666672,
          "durationTicks": 44,
          "midi": 41,
          "name": "F2",
          "ticks": 15411,
          "time": 55.03926278125,
          "velocity": 0.62992125984252
        },
        {
          "duration": 0.157142791666672,
          "durationTicks": 44,
          "midi": 38,
          "name": "D2",
          "ticks": 15411,
          "time": 55.03926278125,
          "velocity": 0.62992125984252
        },
        {
          "duration": 0.160714218750002,
          "durationTicks": 45,
          "midi": 26,
          "name": "D1",
          "ticks": 15458,
          "time": 55.2071198541667,
          "velocity": 0.62992125984252
        },
        {
          "duration": 0.160714218750002,
          "durationTicks": 45,
          "midi": 41,
          "name": "F2",
          "ticks": 15506,
          "time": 55.3785483541667,
          "velocity": 0.62992125984252
        },
        {
          "duration": 0.160714218750002,
          "durationTicks": 45,
          "midi": 38,
          "name": "D2",
          "ticks": 15506,
          "time": 55.3785483541667,
          "velocity": 0.62992125984252
        },
        {
          "duration": 0.160714218749995,
          "durationTicks": 45,
          "midi": 26,
          "name": "D1",
          "ticks": 15553,
          "time": 55.5464054270833,
          "velocity": 0.637795275590551
        },
        {
          "duration": 0.160714218750002,
          "durationTicks": 45,
          "midi": 41,
          "name": "F2",
          "ticks": 15601,
          "time": 55.7178339270833,
          "velocity": 0.637795275590551
        },
        {
          "duration": 0.160714218750002,
          "durationTicks": 45,
          "midi": 38,
          "name": "D2",
          "ticks": 15601,
          "time": 55.7178339270833,
          "velocity": 0.637795275590551
        },
        {
          "duration": 0.157142791666672,
          "durationTicks": 44,
          "midi": 26,
          "name": "D1",
          "ticks": 15649,
          "time": 55.8892624270833,
          "velocity": 0.637795275590551
        },
        {
          "duration": 0.160714218749995,
          "durationTicks": 45,
          "midi": 38,
          "name": "D2",
          "ticks": 15696,
          "time": 56.0571195,
          "velocity": 0.637795275590551
        },
        {
          "duration": 0.160714218749995,
          "durationTicks": 45,
          "midi": 41,
          "name": "F2",
          "ticks": 15696,
          "time": 56.0571195,
          "velocity": 0.637795275590551
        },
        {
          "duration": 0.171428499999998,
          "durationTicks": 48,
          "midi": 21,
          "name": "A0",
          "ticks": 15744,
          "time": 56.228548,
          "velocity": 0.637795275590551
        },
        {
          "duration": 0.157142791666672,
          "durationTicks": 44,
          "midi": 36,
          "name": "C2",
          "ticks": 15795,
          "time": 56.41069078125,
          "velocity": 0.645669291338583
        },
        {
          "duration": 0.157142791666672,
          "durationTicks": 44,
          "midi": 33,
          "name": "A1",
          "ticks": 15795,
          "time": 56.41069078125,
          "velocity": 0.645669291338583
        },
        {
          "duration": 0.160714218750002,
          "durationTicks": 45,
          "midi": 21,
          "name": "A0",
          "ticks": 15842,
          "time": 56.5785478541667,
          "velocity": 0.645669291338583
        },
        {
          "duration": 0.160714218749995,
          "durationTicks": 45,
          "midi": 36,
          "name": "C2",
          "ticks": 15890,
          "time": 56.7499763541667,
          "velocity": 0.645669291338583
        },
        {
          "duration": 0.160714218749995,
          "durationTicks": 45,
          "midi": 33,
          "name": "A1",
          "ticks": 15890,
          "time": 56.7499763541667,
          "velocity": 0.645669291338583
        },
        {
          "duration": 0.160714218750002,
          "durationTicks": 45,
          "midi": 21,
          "name": "A0",
          "ticks": 15937,
          "time": 56.9178334270833,
          "velocity": 0.645669291338583
        },
        {
          "duration": 0.160714218750002,
          "durationTicks": 45,
          "midi": 33,
          "name": "A1",
          "ticks": 15985,
          "time": 57.0892619270833,
          "velocity": 0.653543307086614
        },
        {
          "duration": 0.160714218750002,
          "durationTicks": 45,
          "midi": 36,
          "name": "C2",
          "ticks": 15985,
          "time": 57.0892619270833,
          "velocity": 0.653543307086614
        },
        {
          "duration": 0.157142791666672,
          "durationTicks": 44,
          "midi": 21,
          "name": "A0",
          "ticks": 16033,
          "time": 57.2606904270833,
          "velocity": 0.653543307086614
        },
        {
          "duration": 0.160714218750002,
          "durationTicks": 45,
          "midi": 33,
          "name": "A1",
          "ticks": 16080,
          "time": 57.4285475,
          "velocity": 0.661417322834646
        },
        {
          "duration": 0.160714218750002,
          "durationTicks": 45,
          "midi": 36,
          "name": "C2",
          "ticks": 16080,
          "time": 57.4285475,
          "velocity": 0.661417322834646
        },
        {
          "duration": 0.171428499999998,
          "durationTicks": 48,
          "midi": 22,
          "name": "A#0",
          "ticks": 16128,
          "time": 57.599976,
          "velocity": 0.661417322834646
        },
        {
          "duration": 0.157142791666665,
          "durationTicks": 44,
          "midi": 38,
          "name": "D2",
          "ticks": 16179,
          "time": 57.78211878125,
          "velocity": 0.669291338582677
        },
        {
          "duration": 0.157142791666665,
          "durationTicks": 44,
          "midi": 34,
          "name": "A#1",
          "ticks": 16179,
          "time": 57.78211878125,
          "velocity": 0.669291338582677
        },
        {
          "duration": 0.160714218750002,
          "durationTicks": 45,
          "midi": 22,
          "name": "A#0",
          "ticks": 16226,
          "time": 57.9499758541667,
          "velocity": 0.669291338582677
        },
        {
          "duration": 0.160714218750002,
          "durationTicks": 45,
          "midi": 38,
          "name": "D2",
          "ticks": 16274,
          "time": 58.1214043541667,
          "velocity": 0.669291338582677
        },
        {
          "duration": 0.160714218750002,
          "durationTicks": 45,
          "midi": 34,
          "name": "A#1",
          "ticks": 16274,
          "time": 58.1214043541667,
          "velocity": 0.669291338582677
        },
        {
          "duration": 0.160714218750002,
          "durationTicks": 45,
          "midi": 22,
          "name": "A#0",
          "ticks": 16321,
          "time": 58.2892614270833,
          "velocity": 0.669291338582677
        },
        {
          "duration": 0.160714218749995,
          "durationTicks": 45,
          "midi": 38,
          "name": "D2",
          "ticks": 16369,
          "time": 58.4606899270833,
          "velocity": 0.669291338582677
        },
        {
          "duration": 0.160714218749995,
          "durationTicks": 45,
          "midi": 34,
          "name": "A#1",
          "ticks": 16369,
          "time": 58.4606899270833,
          "velocity": 0.669291338582677
        },
        {
          "duration": 0.157142791666672,
          "durationTicks": 44,
          "midi": 22,
          "name": "A#0",
          "ticks": 16417,
          "time": 58.6321184270833,
          "velocity": 0.669291338582677
        },
        {
          "duration": 0.160714218750002,
          "durationTicks": 45,
          "midi": 38,
          "name": "D2",
          "ticks": 16464,
          "time": 58.7999755,
          "velocity": 0.669291338582677
        },
        {
          "duration": 0.160714218750002,
          "durationTicks": 45,
          "midi": 34,
          "name": "A#1",
          "ticks": 16464,
          "time": 58.7999755,
          "velocity": 0.669291338582677
        },
        {
          "duration": 0.171428499999998,
          "durationTicks": 48,
          "midi": 24,
          "name": "C1",
          "ticks": 16512,
          "time": 58.971404,
          "velocity": 0.669291338582677
        },
        {
          "duration": 0.157142791666665,
          "durationTicks": 44,
          "midi": 36,
          "name": "C2",
          "ticks": 16563,
          "time": 59.15354678125,
          "velocity": 0.669291338582677
        },
        {
          "duration": 0.157142791666665,
          "durationTicks": 44,
          "midi": 40,
          "name": "E2",
          "ticks": 16563,
          "time": 59.15354678125,
          "velocity": 0.669291338582677
        },
        {
          "duration": 0.160714218750002,
          "durationTicks": 45,
          "midi": 24,
          "name": "C1",
          "ticks": 16610,
          "time": 59.3214038541667,
          "velocity": 0.669291338582677
        },
        {
          "duration": 0.160714218750002,
          "durationTicks": 45,
          "midi": 40,
          "name": "E2",
          "ticks": 16658,
          "time": 59.4928323541667,
          "velocity": 0.669291338582677
        },
        {
          "duration": 0.160714218750002,
          "durationTicks": 45,
          "midi": 36,
          "name": "C2",
          "ticks": 16658,
          "time": 59.4928323541667,
          "velocity": 0.669291338582677
        },
        {
          "duration": 0.160714218750002,
          "durationTicks": 45,
          "midi": 24,
          "name": "C1",
          "ticks": 16705,
          "time": 59.6606894270833,
          "velocity": 0.669291338582677
        },
        {
          "duration": 0.160714218750002,
          "durationTicks": 45,
          "midi": 36,
          "name": "C2",
          "ticks": 16753,
          "time": 59.8321179270833,
          "velocity": 0.669291338582677
        },
        {
          "duration": 0.160714218750002,
          "durationTicks": 45,
          "midi": 40,
          "name": "E2",
          "ticks": 16753,
          "time": 59.8321179270833,
          "velocity": 0.669291338582677
        },
        {
          "duration": 0.157142791666665,
          "durationTicks": 44,
          "midi": 24,
          "name": "C1",
          "ticks": 16801,
          "time": 60.0035464270833,
          "velocity": 0.669291338582677
        },
        {
          "duration": 0.160714218750002,
          "durationTicks": 45,
          "midi": 40,
          "name": "E2",
          "ticks": 16848,
          "time": 60.1714035,
          "velocity": 0.669291338582677
        },
        {
          "duration": 0.160714218750002,
          "durationTicks": 45,
          "midi": 36,
          "name": "C2",
          "ticks": 16848,
          "time": 60.1714035,
          "velocity": 0.669291338582677
        },
        {
          "duration": 0.171428500000005,
          "durationTicks": 48,
          "midi": 26,
          "name": "D1",
          "ticks": 21504,
          "time": 76.799968,
          "velocity": 0.52755905511811
        },
        {
          "duration": 0.157142791666672,
          "durationTicks": 44,
          "midi": 38,
          "name": "D2",
          "ticks": 21555,
          "time": 76.98211078125,
          "velocity": 0.440944881889764
        },
        {
          "duration": 0.157142791666672,
          "durationTicks": 44,
          "midi": 41,
          "name": "F2",
          "ticks": 21555,
          "time": 76.98211078125,
          "velocity": 0.551181102362205
        },
        {
          "duration": 0.160714218750002,
          "durationTicks": 45,
          "midi": 26,
          "name": "D1",
          "ticks": 21602,
          "time": 77.1499678541667,
          "velocity": 0.503937007874016
        },
        {
          "duration": 0.160714218750002,
          "durationTicks": 45,
          "midi": 41,
          "name": "F2",
          "ticks": 21650,
          "time": 77.3213963541667,
          "velocity": 0.551181102362205
        },
        {
          "duration": 0.160714218750002,
          "durationTicks": 45,
          "midi": 38,
          "name": "D2",
          "ticks": 21650,
          "time": 77.3213963541667,
          "velocity": 0.440944881889764
        },
        {
          "duration": 0.160714218749987,
          "durationTicks": 45,
          "midi": 26,
          "name": "D1",
          "ticks": 21697,
          "time": 77.4892534270833,
          "velocity": 0.511811023622047
        },
        {
          "duration": 0.160714218750002,
          "durationTicks": 45,
          "midi": 41,
          "name": "F2",
          "ticks": 21745,
          "time": 77.6606819270833,
          "velocity": 0.551181102362205
        },
        {
          "duration": 0.160714218750002,
          "durationTicks": 45,
          "midi": 38,
          "name": "D2",
          "ticks": 21745,
          "time": 77.6606819270833,
          "velocity": 0.440944881889764
        },
        {
          "duration": 0.157142791666672,
          "durationTicks": 44,
          "midi": 26,
          "name": "D1",
          "ticks": 21793,
          "time": 77.8321104270833,
          "velocity": 0.503937007874016
        },
        {
          "duration": 0.160714218749987,
          "durationTicks": 45,
          "midi": 38,
          "name": "D2",
          "ticks": 21840,
          "time": 77.9999675,
          "velocity": 0.440944881889764
        },
        {
          "duration": 0.160714218749987,
          "durationTicks": 45,
          "midi": 41,
          "name": "F2",
          "ticks": 21840,
          "time": 77.9999675,
          "velocity": 0.551181102362205
        },
        {
          "duration": 0.171428500000005,
          "durationTicks": 48,
          "midi": 26,
          "name": "D1",
          "ticks": 21888,
          "time": 78.171396,
          "velocity": 0.52755905511811
        },
        {
          "duration": 0.157142791666672,
          "durationTicks": 44,
          "midi": 38,
          "name": "D2",
          "ticks": 21939,
          "time": 78.35353878125,
          "velocity": 0.440944881889764
        },
        {
          "duration": 0.157142791666672,
          "durationTicks": 44,
          "midi": 41,
          "name": "F2",
          "ticks": 21939,
          "time": 78.35353878125,
          "velocity": 0.551181102362205
        },
        {
          "duration": 0.160714218750002,
          "durationTicks": 45,
          "midi": 26,
          "name": "D1",
          "ticks": 21986,
          "time": 78.5213958541667,
          "velocity": 0.503937007874016
        },
        {
          "duration": 0.160714218750002,
          "durationTicks": 45,
          "midi": 38,
          "name": "D2",
          "ticks": 22034,
          "time": 78.6928243541667,
          "velocity": 0.440944881889764
        },
        {
          "duration": 0.160714218750002,
          "durationTicks": 45,
          "midi": 41,
          "name": "F2",
          "ticks": 22034,
          "time": 78.6928243541667,
          "velocity": 0.551181102362205
        },
        {
          "duration": 0.160714218750002,
          "durationTicks": 45,
          "midi": 26,
          "name": "D1",
          "ticks": 22081,
          "time": 78.8606814270833,
          "velocity": 0.511811023622047
        },
        {
          "duration": 0.160714218750002,
          "durationTicks": 45,
          "midi": 41,
          "name": "F2",
          "ticks": 22129,
          "time": 79.0321099270833,
          "velocity": 0.551181102362205
        },
        {
          "duration": 0.160714218750002,
          "durationTicks": 45,
          "midi": 38,
          "name": "D2",
          "ticks": 22129,
          "time": 79.0321099270833,
          "velocity": 0.440944881889764
        },
        {
          "duration": 0.157142791666672,
          "durationTicks": 44,
          "midi": 26,
          "name": "D1",
          "ticks": 22177,
          "time": 79.2035384270833,
          "velocity": 0.503937007874016
        },
        {
          "duration": 0.160714218750002,
          "durationTicks": 45,
          "midi": 41,
          "name": "F2",
          "ticks": 22224,
          "time": 79.3713955,
          "velocity": 0.551181102362205
        },
        {
          "duration": 0.160714218750002,
          "durationTicks": 45,
          "midi": 38,
          "name": "D2",
          "ticks": 22224,
          "time": 79.3713955,
          "velocity": 0.440944881889764
        },
        {
          "duration": 0.17142849999999,
          "durationTicks": 48,
          "midi": 22,
          "name": "A#0",
          "ticks": 22272,
          "time": 79.542824,
          "velocity": 0.519685039370079
        },
        {
          "duration": 0.157142791666672,
          "durationTicks": 44,
          "midi": 34,
          "name": "A#1",
          "ticks": 22323,
          "time": 79.72496678125,
          "velocity": 0.440944881889764
        },
        {
          "duration": 0.157142791666672,
          "durationTicks": 44,
          "midi": 38,
          "name": "D2",
          "ticks": 22323,
          "time": 79.72496678125,
          "velocity": 0.551181102362205
        },
        {
          "duration": 0.160714218750002,
          "durationTicks": 45,
          "midi": 22,
          "name": "A#0",
          "ticks": 22370,
          "time": 79.8928238541667,
          "velocity": 0.496062992125984
        },
        {
          "duration": 0.160714218750002,
          "durationTicks": 45,
          "midi": 38,
          "name": "D2",
          "ticks": 22418,
          "time": 80.0642523541667,
          "velocity": 0.551181102362205
        },
        {
          "duration": 0.160714218750002,
          "durationTicks": 45,
          "midi": 34,
          "name": "A#1",
          "ticks": 22418,
          "time": 80.0642523541667,
          "velocity": 0.440944881889764
        },
        {
          "duration": 0.160714218750002,
          "durationTicks": 45,
          "midi": 24,
          "name": "C1",
          "ticks": 22465,
          "time": 80.2321094270833,
          "velocity": 0.503937007874016
        },
        {
          "duration": 0.160714218750002,
          "durationTicks": 45,
          "midi": 40,
          "name": "E2",
          "ticks": 22513,
          "time": 80.4035379270833,
          "velocity": 0.551181102362205
        },
        {
          "duration": 0.160714218750002,
          "durationTicks": 45,
          "midi": 36,
          "name": "C2",
          "ticks": 22513,
          "time": 80.4035379270833,
          "velocity": 0.440944881889764
        },
        {
          "duration": 0.157142791666672,
          "durationTicks": 44,
          "midi": 24,
          "name": "C1",
          "ticks": 22561,
          "time": 80.5749664270833,
          "velocity": 0.496062992125984
        },
        {
          "duration": 0.160714218750002,
          "durationTicks": 45,
          "midi": 40,
          "name": "E2",
          "ticks": 22608,
          "time": 80.7428235,
          "velocity": 0.551181102362205
        },
        {
          "duration": 0.160714218750002,
          "durationTicks": 45,
          "midi": 36,
          "name": "C2",
          "ticks": 22608,
          "time": 80.7428235,
          "velocity": 0.440944881889764
        },
        {
          "duration": 0.171428500000005,
          "durationTicks": 48,
          "midi": 21,
          "name": "A0",
          "ticks": 22656,
          "time": 80.914252,
          "velocity": 0.511811023622047
        },
        {
          "duration": 0.157142791666658,
          "durationTicks": 44,
          "midi": 37,
          "name": "C#2",
          "ticks": 22707,
          "time": 81.09639478125,
          "velocity": 0.551181102362205
        },
        {
          "duration": 0.157142791666658,
          "durationTicks": 44,
          "midi": 33,
          "name": "A1",
          "ticks": 22707,
          "time": 81.09639478125,
          "velocity": 0.440944881889764
        },
        {
          "duration": 0.160714218750002,
          "durationTicks": 45,
          "midi": 21,
          "name": "A0",
          "ticks": 22754,
          "time": 81.2642518541667,
          "velocity": 0.488188976377953
        },
        {
          "duration": 0.160714218750002,
          "durationTicks": 45,
          "midi": 33,
          "name": "A1",
          "ticks": 22802,
          "time": 81.4356803541667,
          "velocity": 0.440944881889764
        },
        {
          "duration": 0.160714218750002,
          "durationTicks": 45,
          "midi": 37,
          "name": "C#2",
          "ticks": 22802,
          "time": 81.4356803541667,
          "velocity": 0.551181102362205
        },
        {
          "duration": 0.160714218750002,
          "durationTicks": 45,
          "midi": 21,
          "name": "A0",
          "ticks": 22849,
          "time": 81.6035374270833,
          "velocity": 0.503937007874016
        },
        {
          "duration": 0.160714218750002,
          "durationTicks": 45,
          "midi": 37,
          "name": "C#2",
          "ticks": 22897,
          "time": 81.7749659270833,
          "velocity": 0.551181102362205
        },
        {
          "duration": 0.160714218750002,
          "durationTicks": 45,
          "midi": 33,
          "name": "A1",
          "ticks": 22897,
          "time": 81.7749659270833,
          "velocity": 0.440944881889764
        },
        {
          "duration": 0.157142791666672,
          "durationTicks": 44,
          "midi": 21,
          "name": "A0",
          "ticks": 22945,
          "time": 81.9463944270833,
          "velocity": 0.488188976377953
        },
        {
          "duration": 0.160714218750002,
          "durationTicks": 45,
          "midi": 33,
          "name": "A1",
          "ticks": 22992,
          "time": 82.1142515,
          "velocity": 0.440944881889764
        },
        {
          "duration": 0.160714218750002,
          "durationTicks": 45,
          "midi": 37,
          "name": "C#2",
          "ticks": 22992,
          "time": 82.1142515,
          "velocity": 0.551181102362205
        },
        {
          "duration": 0.171428500000005,
          "durationTicks": 48,
          "midi": 26,
          "name": "D1",
          "ticks": 23040,
          "time": 82.28568,
          "velocity": 0.52755905511811
        },
        {
          "duration": 0.157142791666672,
          "durationTicks": 44,
          "midi": 38,
          "name": "D2",
          "ticks": 23091,
          "time": 82.46782278125,
          "velocity": 0.440944881889764
        },
        {
          "duration": 0.157142791666672,
          "durationTicks": 44,
          "midi": 41,
          "name": "F2",
          "ticks": 23091,
          "time": 82.46782278125,
          "velocity": 0.551181102362205
        },
        {
          "duration": 0.160714218749987,
          "durationTicks": 45,
          "midi": 26,
          "name": "D1",
          "ticks": 23138,
          "time": 82.6356798541667,
          "velocity": 0.503937007874016
        },
        {
          "duration": 0.160714218750002,
          "durationTicks": 45,
          "midi": 41,
          "name": "F2",
          "ticks": 23186,
          "time": 82.8071083541667,
          "velocity": 0.551181102362205
        },
        {
          "duration": 0.160714218750002,
          "durationTicks": 45,
          "midi": 38,
          "name": "D2",
          "ticks": 23186,
          "time": 82.8071083541667,
          "velocity": 0.440944881889764
        },
        {
          "duration": 0.160714218750002,
          "durationTicks": 45,
          "midi": 24,
          "name": "C1",
          "ticks": 23233,
          "time": 82.9749654270833,
          "velocity": 0.503937007874016
        },
        {
          "duration": 0.160714218750002,
          "durationTicks": 45,
          "midi": 40,
          "name": "E2",
          "ticks": 23281,
          "time": 83.1463939270833,
          "velocity": 0.551181102362205
        },
        {
          "duration": 0.160714218750002,
          "durationTicks": 45,
          "midi": 36,
          "name": "C2",
          "ticks": 23281,
          "time": 83.1463939270833,
          "velocity": 0.440944881889764
        },
        {
          "duration": 0.157142791666658,
          "durationTicks": 44,
          "midi": 24,
          "name": "C1",
          "ticks": 23329,
          "time": 83.3178224270833,
          "velocity": 0.496062992125984
        },
        {
          "duration": 0.160714218750002,
          "durationTicks": 45,
          "midi": 40,
          "name": "E2",
          "ticks": 23376,
          "time": 83.4856795,
          "velocity": 0.551181102362205
        },
        {
          "duration": 0.160714218750002,
          "durationTicks": 45,
          "midi": 36,
          "name": "C2",
          "ticks": 23376,
          "time": 83.4856795,
          "velocity": 0.440944881889764
        },
        {
          "duration": 0.171428500000005,
          "durationTicks": 48,
          "midi": 23,
          "name": "B0",
          "ticks": 23424,
          "time": 83.657108,
          "velocity": 0.519685039370079
        },
        {
          "duration": 0.157142791666672,
          "durationTicks": 44,
          "midi": 38,
          "name": "D2",
          "ticks": 23475,
          "time": 83.83925078125,
          "velocity": 0.551181102362205
        },
        {
          "duration": 0.157142791666672,
          "durationTicks": 44,
          "midi": 35,
          "name": "B1",
          "ticks": 23475,
          "time": 83.83925078125,
          "velocity": 0.440944881889764
        },
        {
          "duration": 0.160714218750002,
          "durationTicks": 45,
          "midi": 23,
          "name": "B0",
          "ticks": 23522,
          "time": 84.0071078541667,
          "velocity": 0.496062992125984
        },
        {
          "duration": 0.160714218749987,
          "durationTicks": 45,
          "midi": 35,
          "name": "B1",
          "ticks": 23570,
          "time": 84.1785363541667,
          "velocity": 0.440944881889764
        },
        {
          "duration": 0.160714218749987,
          "durationTicks": 45,
          "midi": 38,
          "name": "D2",
          "ticks": 23570,
          "time": 84.1785363541667,
          "velocity": 0.551181102362205
        },
        {
          "duration": 0.160714218749987,
          "durationTicks": 45,
          "midi": 19,
          "name": "G0",
          "ticks": 23617,
          "time": 84.3463934270833,
          "velocity": 0.503937007874016
        },
        {
          "duration": 0.160714218750002,
          "durationTicks": 45,
          "midi": 35,
          "name": "B1",
          "ticks": 23665,
          "time": 84.5178219270833,
          "velocity": 0.543307086614173
        },
        {
          "duration": 0.160714218750002,
          "durationTicks": 45,
          "midi": 31,
          "name": "G1",
          "ticks": 23665,
          "time": 84.5178219270833,
          "velocity": 0.440944881889764
        },
        {
          "duration": 0.157142791666672,
          "durationTicks": 44,
          "midi": 19,
          "name": "G0",
          "ticks": 23713,
          "time": 84.6892504270833,
          "velocity": 0.488188976377953
        },
        {
          "duration": 0.160714218749987,
          "durationTicks": 45,
          "midi": 35,
          "name": "B1",
          "ticks": 23760,
          "time": 84.8571075,
          "velocity": 0.543307086614173
        },
        {
          "duration": 0.160714218749987,
          "durationTicks": 45,
          "midi": 31,
          "name": "G1",
          "ticks": 23760,
          "time": 84.8571075,
          "velocity": 0.440944881889764
        },
        {
          "duration": 0.171428500000005,
          "durationTicks": 48,
          "midi": 22,
          "name": "A#0",
          "ticks": 23808,
          "time": 85.028536,
          "velocity": 0.519685039370079
        },
        {
          "duration": 0.157142791666672,
          "durationTicks": 44,
          "midi": 34,
          "name": "A#1",
          "ticks": 23859,
          "time": 85.21067878125,
          "velocity": 0.440944881889764
        },
        {
          "duration": 0.157142791666672,
          "durationTicks": 44,
          "midi": 38,
          "name": "D2",
          "ticks": 23859,
          "time": 85.21067878125,
          "velocity": 0.551181102362205
        },
        {
          "duration": 0.160714218750002,
          "durationTicks": 45,
          "midi": 22,
          "name": "A#0",
          "ticks": 23906,
          "time": 85.3785358541667,
          "velocity": 0.496062992125984
        },
        {
          "duration": 0.160714218750002,
          "durationTicks": 45,
          "midi": 34,
          "name": "A#1",
          "ticks": 23954,
          "time": 85.5499643541667,
          "velocity": 0.440944881889764
        },
        {
          "duration": 0.160714218750002,
          "durationTicks": 45,
          "midi": 38,
          "name": "D2",
          "ticks": 23954,
          "time": 85.5499643541667,
          "velocity": 0.551181102362205
        },
        {
          "duration": 0.160714218750002,
          "durationTicks": 45,
          "midi": 24,
          "name": "C1",
          "ticks": 24001,
          "time": 85.7178214270833,
          "velocity": 0.503937007874016
        },
        {
          "duration": 0.160714218750002,
          "durationTicks": 45,
          "midi": 40,
          "name": "E2",
          "ticks": 24049,
          "time": 85.8892499270833,
          "velocity": 0.551181102362205
        },
        {
          "duration": 0.160714218750002,
          "durationTicks": 45,
          "midi": 36,
          "name": "C2",
          "ticks": 24049,
          "time": 85.8892499270833,
          "velocity": 0.440944881889764
        },
        {
          "duration": 0.157142791666672,
          "durationTicks": 44,
          "midi": 24,
          "name": "C1",
          "ticks": 24097,
          "time": 86.0606784270833,
          "velocity": 0.496062992125984
        },
        {
          "duration": 0.160714218750002,
          "durationTicks": 45,
          "midi": 36,
          "name": "C2",
          "ticks": 24144,
          "time": 86.2285355,
          "velocity": 0.440944881889764
        },
        {
          "duration": 0.160714218750002,
          "durationTicks": 45,
          "midi": 40,
          "name": "E2",
          "ticks": 24144,
          "time": 86.2285355,
          "velocity": 0.551181102362205
        },
        {
          "duration": 0.17142849999999,
          "durationTicks": 48,
          "midi": 26,
          "name": "D1",
          "ticks": 24192,
          "time": 86.399964,
          "velocity": 0.52755905511811
        },
        {
          "duration": 0.157142791666672,
          "durationTicks": 44,
          "midi": 38,
          "name": "D2",
          "ticks": 24243,
          "time": 86.58210678125,
          "velocity": 0.440944881889764
        },
        {
          "duration": 0.160714218750002,
          "durationTicks": 45,
          "midi": 26,
          "name": "D1",
          "ticks": 24290,
          "time": 86.7499638541667,
          "velocity": 0.503937007874016
        },
        {
          "duration": 0.160714218750002,
          "durationTicks": 45,
          "midi": 38,
          "name": "D2",
          "ticks": 24338,
          "time": 86.9213923541667,
          "velocity": 0.440944881889764
        },
        {
          "duration": 0.160714218750002,
          "durationTicks": 45,
          "midi": 26,
          "name": "D1",
          "ticks": 24385,
          "time": 87.0892494270833,
          "velocity": 0.511811023622047
        },
        {
          "duration": 0.160714218750002,
          "durationTicks": 45,
          "midi": 38,
          "name": "D2",
          "ticks": 24433,
          "time": 87.2606779270833,
          "velocity": 0.440944881889764
        },
        {
          "duration": 0.157142791666672,
          "durationTicks": 44,
          "midi": 26,
          "name": "D1",
          "ticks": 24481,
          "time": 87.4321064270833,
          "velocity": 0.503937007874016
        },
        {
          "duration": 0.160714218750002,
          "durationTicks": 45,
          "midi": 38,
          "name": "D2",
          "ticks": 24528,
          "time": 87.5999635,
          "velocity": 0.440944881889764
        },
        {
          "duration": 0.171428500000005,
          "durationTicks": 48,
          "midi": 26,
          "name": "D1",
          "ticks": 24576,
          "time": 87.771392,
          "velocity": 0.52755905511811
        },
        {
          "duration": 0.157142791666672,
          "durationTicks": 44,
          "midi": 41,
          "name": "F2",
          "ticks": 24627,
          "time": 87.95353478125,
          "velocity": 0.551181102362205
        },
        {
          "duration": 0.157142791666672,
          "durationTicks": 44,
          "midi": 38,
          "name": "D2",
          "ticks": 24627,
          "time": 87.95353478125,
          "velocity": 0.440944881889764
        },
        {
          "duration": 0.160714218750002,
          "durationTicks": 45,
          "midi": 26,
          "name": "D1",
          "ticks": 24674,
          "time": 88.1213918541667,
          "velocity": 0.503937007874016
        },
        {
          "duration": 0.160714218750002,
          "durationTicks": 45,
          "midi": 41,
          "name": "F2",
          "ticks": 24722,
          "time": 88.2928203541667,
          "velocity": 0.551181102362205
        },
        {
          "duration": 0.160714218750002,
          "durationTicks": 45,
          "midi": 38,
          "name": "D2",
          "ticks": 24722,
          "time": 88.2928203541667,
          "velocity": 0.440944881889764
        },
        {
          "duration": 0.160714218750002,
          "durationTicks": 45,
          "midi": 26,
          "name": "D1",
          "ticks": 24769,
          "time": 88.4606774270833,
          "velocity": 0.511811023622047
        },
        {
          "duration": 0.160714218750002,
          "durationTicks": 45,
          "midi": 38,
          "name": "D2",
          "ticks": 24817,
          "time": 88.6321059270833,
          "velocity": 0.440944881889764
        },
        {
          "duration": 0.160714218750002,
          "durationTicks": 45,
          "midi": 41,
          "name": "F2",
          "ticks": 24817,
          "time": 88.6321059270833,
          "velocity": 0.551181102362205
        },
        {
          "duration": 0.157142791666658,
          "durationTicks": 44,
          "midi": 26,
          "name": "D1",
          "ticks": 24865,
          "time": 88.8035344270834,
          "velocity": 0.503937007874016
        },
        {
          "duration": 0.160714218750002,
          "durationTicks": 45,
          "midi": 38,
          "name": "D2",
          "ticks": 24912,
          "time": 88.9713915,
          "velocity": 0.440944881889764
        },
        {
          "duration": 0.160714218750002,
          "durationTicks": 45,
          "midi": 41,
          "name": "F2",
          "ticks": 24912,
          "time": 88.9713915,
          "velocity": 0.551181102362205
        },
        {
          "duration": 0.171428500000005,
          "durationTicks": 48,
          "midi": 26,
          "name": "D1",
          "ticks": 24960,
          "time": 89.14282,
          "velocity": 0.52755905511811
        },
        {
          "duration": 0.157142791666658,
          "durationTicks": 44,
          "midi": 41,
          "name": "F2",
          "ticks": 25011,
          "time": 89.32496278125,
          "velocity": 0.551181102362205
        },
        {
          "duration": 0.157142791666658,
          "durationTicks": 44,
          "midi": 38,
          "name": "D2",
          "ticks": 25011,
          "time": 89.32496278125,
          "velocity": 0.440944881889764
        },
        {
          "duration": 0.160714218750002,
          "durationTicks": 45,
          "midi": 26,
          "name": "D1",
          "ticks": 25058,
          "time": 89.4928198541667,
          "velocity": 0.503937007874016
        },
        {
          "duration": 0.160714218750002,
          "durationTicks": 45,
          "midi": 38,
          "name": "D2",
          "ticks": 25106,
          "time": 89.6642483541667,
          "velocity": 0.440944881889764
        },
        {
          "duration": 0.160714218750002,
          "durationTicks": 45,
          "midi": 41,
          "name": "F2",
          "ticks": 25106,
          "time": 89.6642483541667,
          "velocity": 0.551181102362205
        },
        {
          "duration": 0.160714218750002,
          "durationTicks": 45,
          "midi": 26,
          "name": "D1",
          "ticks": 25153,
          "time": 89.8321054270834,
          "velocity": 0.511811023622047
        },
        {
          "duration": 0.160714218750002,
          "durationTicks": 45,
          "midi": 41,
          "name": "F2",
          "ticks": 25201,
          "time": 90.0035339270833,
          "velocity": 0.551181102362205
        },
        {
          "duration": 0.160714218750002,
          "durationTicks": 45,
          "midi": 38,
          "name": "D2",
          "ticks": 25201,
          "time": 90.0035339270833,
          "velocity": 0.440944881889764
        },
        {
          "duration": 0.157142791666658,
          "durationTicks": 44,
          "midi": 26,
          "name": "D1",
          "ticks": 25249,
          "time": 90.1749624270833,
          "velocity": 0.503937007874016
        },
        {
          "duration": 0.160714218750002,
          "durationTicks": 45,
          "midi": 41,
          "name": "F2",
          "ticks": 25296,
          "time": 90.3428195,
          "velocity": 0.551181102362205
        },
        {
          "duration": 0.160714218750002,
          "durationTicks": 45,
          "midi": 38,
          "name": "D2",
          "ticks": 25296,
          "time": 90.3428195,
          "velocity": 0.440944881889764
        },
        {
          "duration": 0.17142849999999,
          "durationTicks": 48,
          "midi": 22,
          "name": "A#0",
          "ticks": 25344,
          "time": 90.514248,
          "velocity": 0.519685039370079
        },
        {
          "duration": 0.157142791666658,
          "durationTicks": 44,
          "midi": 34,
          "name": "A#1",
          "ticks": 25395,
          "time": 90.69639078125,
          "velocity": 0.440944881889764
        },
        {
          "duration": 0.157142791666658,
          "durationTicks": 44,
          "midi": 38,
          "name": "D2",
          "ticks": 25395,
          "time": 90.69639078125,
          "velocity": 0.551181102362205
        },
        {
          "duration": 0.160714218750002,
          "durationTicks": 45,
          "midi": 22,
          "name": "A#0",
          "ticks": 25442,
          "time": 90.8642478541667,
          "velocity": 0.496062992125984
        },
        {
          "duration": 0.160714218750002,
          "durationTicks": 45,
          "midi": 38,
          "name": "D2",
          "ticks": 25490,
          "time": 91.0356763541667,
          "velocity": 0.551181102362205
        },
        {
          "duration": 0.160714218750002,
          "durationTicks": 45,
          "midi": 34,
          "name": "A#1",
          "ticks": 25490,
          "time": 91.0356763541667,
          "velocity": 0.440944881889764
        },
        {
          "duration": 0.160714218750002,
          "durationTicks": 45,
          "midi": 24,
          "name": "C1",
          "ticks": 25537,
          "time": 91.2035334270833,
          "velocity": 0.503937007874016
        },
        {
          "duration": 0.160714218750002,
          "durationTicks": 45,
          "midi": 36,
          "name": "C2",
          "ticks": 25585,
          "time": 91.3749619270834,
          "velocity": 0.440944881889764
        },
        {
          "duration": 0.160714218750002,
          "durationTicks": 45,
          "midi": 40,
          "name": "E2",
          "ticks": 25585,
          "time": 91.3749619270834,
          "velocity": 0.551181102362205
        },
        {
          "duration": 0.157142791666658,
          "durationTicks": 44,
          "midi": 24,
          "name": "C1",
          "ticks": 25633,
          "time": 91.5463904270834,
          "velocity": 0.496062992125984
        },
        {
          "duration": 0.160714218750002,
          "durationTicks": 45,
          "midi": 40,
          "name": "E2",
          "ticks": 25680,
          "time": 91.7142475,
          "velocity": 0.551181102362205
        },
        {
          "duration": 0.160714218750002,
          "durationTicks": 45,
          "midi": 36,
          "name": "C2",
          "ticks": 25680,
          "time": 91.7142475,
          "velocity": 0.440944881889764
        },
        {
          "duration": 0.171428500000005,
          "durationTicks": 48,
          "midi": 21,
          "name": "A0",
          "ticks": 25728,
          "time": 91.885676,
          "velocity": 0.511811023622047
        },
        {
          "duration": 0.157142791666658,
          "durationTicks": 44,
          "midi": 37,
          "name": "C#2",
          "ticks": 25779,
          "time": 92.06781878125,
          "velocity": 0.551181102362205
        },
        {
          "duration": 0.157142791666658,
          "durationTicks": 44,
          "midi": 33,
          "name": "A1",
          "ticks": 25779,
          "time": 92.06781878125,
          "velocity": 0.440944881889764
        },
        {
          "duration": 0.160714218749987,
          "durationTicks": 45,
          "midi": 21,
          "name": "A0",
          "ticks": 25826,
          "time": 92.2356758541667,
          "velocity": 0.488188976377953
        },
        {
          "duration": 0.160714218750002,
          "durationTicks": 45,
          "midi": 37,
          "name": "C#2",
          "ticks": 25874,
          "time": 92.4071043541667,
          "velocity": 0.551181102362205
        },
        {
          "duration": 0.160714218750002,
          "durationTicks": 45,
          "midi": 33,
          "name": "A1",
          "ticks": 25874,
          "time": 92.4071043541667,
          "velocity": 0.440944881889764
        },
        {
          "duration": 0.160714218749987,
          "durationTicks": 45,
          "midi": 21,
          "name": "A0",
          "ticks": 25921,
          "time": 92.5749614270834,
          "velocity": 0.503937007874016
        },
        {
          "duration": 0.160714218750002,
          "durationTicks": 45,
          "midi": 37,
          "name": "C#2",
          "ticks": 25969,
          "time": 92.7463899270833,
          "velocity": 0.551181102362205
        },
        {
          "duration": 0.160714218750002,
          "durationTicks": 45,
          "midi": 33,
          "name": "A1",
          "ticks": 25969,
          "time": 92.7463899270833,
          "velocity": 0.440944881889764
        },
        {
          "duration": 0.157142791666658,
          "durationTicks": 44,
          "midi": 21,
          "name": "A0",
          "ticks": 26017,
          "time": 92.9178184270834,
          "velocity": 0.488188976377953
        },
        {
          "duration": 0.160714218750002,
          "durationTicks": 45,
          "midi": 37,
          "name": "C#2",
          "ticks": 26064,
          "time": 93.0856755,
          "velocity": 0.551181102362205
        },
        {
          "duration": 0.160714218750002,
          "durationTicks": 45,
          "midi": 33,
          "name": "A1",
          "ticks": 26064,
          "time": 93.0856755,
          "velocity": 0.440944881889764
        },
        {
          "duration": 0.17142849999999,
          "durationTicks": 48,
          "midi": 26,
          "name": "D1",
          "ticks": 26112,
          "time": 93.257104,
          "velocity": 0.52755905511811
        },
        {
          "duration": 0.157142791666658,
          "durationTicks": 44,
          "midi": 41,
          "name": "F2",
          "ticks": 26163,
          "time": 93.43924678125,
          "velocity": 0.551181102362205
        },
        {
          "duration": 0.157142791666658,
          "durationTicks": 44,
          "midi": 38,
          "name": "D2",
          "ticks": 26163,
          "time": 93.43924678125,
          "velocity": 0.440944881889764
        },
        {
          "duration": 0.160714218750002,
          "durationTicks": 45,
          "midi": 26,
          "name": "D1",
          "ticks": 26210,
          "time": 93.6071038541667,
          "velocity": 0.503937007874016
        },
        {
          "duration": 0.160714218750002,
          "durationTicks": 45,
          "midi": 38,
          "name": "D2",
          "ticks": 26258,
          "time": 93.7785323541667,
          "velocity": 0.440944881889764
        },
        {
          "duration": 0.160714218750002,
          "durationTicks": 45,
          "midi": 41,
          "name": "F2",
          "ticks": 26258,
          "time": 93.7785323541667,
          "velocity": 0.551181102362205
        },
        {
          "duration": 0.160714218750002,
          "durationTicks": 45,
          "midi": 24,
          "name": "C1",
          "ticks": 26305,
          "time": 93.9463894270834,
          "velocity": 0.503937007874016
        },
        {
          "duration": 0.160714218750002,
          "durationTicks": 45,
          "midi": 36,
          "name": "C2",
          "ticks": 26353,
          "time": 94.1178179270834,
          "velocity": 0.440944881889764
        },
        {
          "duration": 0.160714218750002,
          "durationTicks": 45,
          "midi": 40,
          "name": "E2",
          "ticks": 26353,
          "time": 94.1178179270834,
          "velocity": 0.551181102362205
        },
        {
          "duration": 0.157142791666658,
          "durationTicks": 44,
          "midi": 24,
          "name": "C1",
          "ticks": 26401,
          "time": 94.2892464270833,
          "velocity": 0.496062992125984
        },
        {
          "duration": 0.160714218750002,
          "durationTicks": 45,
          "midi": 40,
          "name": "E2",
          "ticks": 26448,
          "time": 94.4571035,
          "velocity": 0.551181102362205
        },
        {
          "duration": 0.160714218750002,
          "durationTicks": 45,
          "midi": 36,
          "name": "C2",
          "ticks": 26448,
          "time": 94.4571035,
          "velocity": 0.440944881889764
        },
        {
          "duration": 0.171428500000005,
          "durationTicks": 48,
          "midi": 23,
          "name": "B0",
          "ticks": 26496,
          "time": 94.628532,
          "velocity": 0.519685039370079
        },
        {
          "duration": 0.157142791666672,
          "durationTicks": 44,
          "midi": 35,
          "name": "B1",
          "ticks": 26547,
          "time": 94.81067478125,
          "velocity": 0.440944881889764
        },
        {
          "duration": 0.157142791666672,
          "durationTicks": 44,
          "midi": 38,
          "name": "D2",
          "ticks": 26547,
          "time": 94.81067478125,
          "velocity": 0.551181102362205
        },
        {
          "duration": 0.160714218750002,
          "durationTicks": 45,
          "midi": 23,
          "name": "B0",
          "ticks": 26594,
          "time": 94.9785318541667,
          "velocity": 0.496062992125984
        },
        {
          "duration": 0.160714218750002,
          "durationTicks": 45,
          "midi": 38,
          "name": "D2",
          "ticks": 26642,
          "time": 95.1499603541667,
          "velocity": 0.551181102362205
        },
        {
          "duration": 0.160714218750002,
          "durationTicks": 45,
          "midi": 35,
          "name": "B1",
          "ticks": 26642,
          "time": 95.1499603541667,
          "velocity": 0.440944881889764
        },
        {
          "duration": 0.160714218750002,
          "durationTicks": 45,
          "midi": 19,
          "name": "G0",
          "ticks": 26689,
          "time": 95.3178174270833,
          "velocity": 0.503937007874016
        },
        {
          "duration": 0.160714218750002,
          "durationTicks": 45,
          "midi": 31,
          "name": "G1",
          "ticks": 26737,
          "time": 95.4892459270834,
          "velocity": 0.440944881889764
        },
        {
          "duration": 0.160714218750002,
          "durationTicks": 45,
          "midi": 35,
          "name": "B1",
          "ticks": 26737,
          "time": 95.4892459270834,
          "velocity": 0.543307086614173
        },
        {
          "duration": 0.157142791666658,
          "durationTicks": 44,
          "midi": 19,
          "name": "G0",
          "ticks": 26785,
          "time": 95.6606744270834,
          "velocity": 0.488188976377953
        },
        {
          "duration": 0.160714218750002,
          "durationTicks": 45,
          "midi": 31,
          "name": "G1",
          "ticks": 26832,
          "time": 95.8285315,
          "velocity": 0.440944881889764
        },
        {
          "duration": 0.160714218750002,
          "durationTicks": 45,
          "midi": 35,
          "name": "B1",
          "ticks": 26832,
          "time": 95.8285315,
          "velocity": 0.543307086614173
        },
        {
          "duration": 0.33928557291668,
          "durationTicks": 95,
          "midi": 34,
          "name": "A#1",
          "ticks": 26978,
          "time": 96.3499598541667,
          "velocity": 0.551181102362205
        },
        {
          "duration": 0.33928557291668,
          "durationTicks": 95,
          "midi": 22,
          "name": "A#0",
          "ticks": 26978,
          "time": 96.3499598541667,
          "velocity": 0.433070866141732
        },
        {
          "duration": 0.335714145833322,
          "durationTicks": 94,
          "midi": 36,
          "name": "C2",
          "ticks": 27169,
          "time": 97.0321024270833,
          "velocity": 0.551181102362205
        },
        {
          "duration": 0.335714145833322,
          "durationTicks": 94,
          "midi": 24,
          "name": "C1",
          "ticks": 27169,
          "time": 97.0321024270833,
          "velocity": 0.433070866141732
        },
        {
          "duration": 0.171428500000005,
          "durationTicks": 48,
          "midi": 26,
          "name": "D1",
          "ticks": 27648,
          "time": 98.742816,
          "velocity": 0.52755905511811
        },
        {
          "duration": 0.157142791666658,
          "durationTicks": 44,
          "midi": 41,
          "name": "F2",
          "ticks": 27699,
          "time": 98.92495878125,
          "velocity": 0.551181102362205
        },
        {
          "duration": 0.157142791666658,
          "durationTicks": 44,
          "midi": 38,
          "name": "D2",
          "ticks": 27699,
          "time": 98.92495878125,
          "velocity": 0.440944881889764
        },
        {
          "duration": 0.160714218749987,
          "durationTicks": 45,
          "midi": 26,
          "name": "D1",
          "ticks": 27746,
          "time": 99.0928158541667,
          "velocity": 0.503937007874016
        },
        {
          "duration": 0.160714218750002,
          "durationTicks": 45,
          "midi": 41,
          "name": "F2",
          "ticks": 27794,
          "time": 99.2642443541667,
          "velocity": 0.551181102362205
        },
        {
          "duration": 0.160714218750002,
          "durationTicks": 45,
          "midi": 38,
          "name": "D2",
          "ticks": 27794,
          "time": 99.2642443541667,
          "velocity": 0.440944881889764
        },
        {
          "duration": 0.160714218749987,
          "durationTicks": 45,
          "midi": 26,
          "name": "D1",
          "ticks": 27841,
          "time": 99.4321014270834,
          "velocity": 0.511811023622047
        },
        {
          "duration": 0.160714218750002,
          "durationTicks": 45,
          "midi": 41,
          "name": "F2",
          "ticks": 27889,
          "time": 99.6035299270833,
          "velocity": 0.551181102362205
        },
        {
          "duration": 0.160714218750002,
          "durationTicks": 45,
          "midi": 38,
          "name": "D2",
          "ticks": 27889,
          "time": 99.6035299270833,
          "velocity": 0.440944881889764
        },
        {
          "duration": 0.157142791666658,
          "durationTicks": 44,
          "midi": 26,
          "name": "D1",
          "ticks": 27937,
          "time": 99.7749584270834,
          "velocity": 0.503937007874016
        },
        {
          "duration": 0.160714218750002,
          "durationTicks": 45,
          "midi": 41,
          "name": "F2",
          "ticks": 27984,
          "time": 99.9428155,
          "velocity": 0.551181102362205
        },
        {
          "duration": 0.160714218750002,
          "durationTicks": 45,
          "midi": 38,
          "name": "D2",
          "ticks": 27984,
          "time": 99.9428155,
          "velocity": 0.440944881889764
        },
        {
          "duration": 0.17142849999999,
          "durationTicks": 48,
          "midi": 26,
          "name": "D1",
          "ticks": 28032,
          "time": 100.114244,
          "velocity": 0.52755905511811
        },
        {
          "duration": 0.157142791666658,
          "durationTicks": 44,
          "midi": 38,
          "name": "D2",
          "ticks": 28083,
          "time": 100.29638678125,
          "velocity": 0.440944881889764
        },
        {
          "duration": 0.157142791666658,
          "durationTicks": 44,
          "midi": 41,
          "name": "F2",
          "ticks": 28083,
          "time": 100.29638678125,
          "velocity": 0.551181102362205
        },
        {
          "duration": 0.160714218750002,
          "durationTicks": 45,
          "midi": 26,
          "name": "D1",
          "ticks": 28130,
          "time": 100.464243854167,
          "velocity": 0.503937007874016
        },
        {
          "duration": 0.160714218749987,
          "durationTicks": 45,
          "midi": 38,
          "name": "D2",
          "ticks": 28178,
          "time": 100.635672354167,
          "velocity": 0.440944881889764
        },
        {
          "duration": 0.160714218749987,
          "durationTicks": 45,
          "midi": 41,
          "name": "F2",
          "ticks": 28178,
          "time": 100.635672354167,
          "velocity": 0.551181102362205
        },
        {
          "duration": 0.160714218750002,
          "durationTicks": 45,
          "midi": 26,
          "name": "D1",
          "ticks": 28225,
          "time": 100.803529427083,
          "velocity": 0.511811023622047
        },
        {
          "duration": 0.160714218749987,
          "durationTicks": 45,
          "midi": 38,
          "name": "D2",
          "ticks": 28273,
          "time": 100.974957927083,
          "velocity": 0.440944881889764
        },
        {
          "duration": 0.160714218749987,
          "durationTicks": 45,
          "midi": 41,
          "name": "F2",
          "ticks": 28273,
          "time": 100.974957927083,
          "velocity": 0.551181102362205
        },
        {
          "duration": 0.157142791666658,
          "durationTicks": 44,
          "midi": 26,
          "name": "D1",
          "ticks": 28321,
          "time": 101.146386427083,
          "velocity": 0.503937007874016
        },
        {
          "duration": 0.160714218750002,
          "durationTicks": 45,
          "midi": 38,
          "name": "D2",
          "ticks": 28368,
          "time": 101.3142435,
          "velocity": 0.440944881889764
        },
        {
          "duration": 0.160714218750002,
          "durationTicks": 45,
          "midi": 41,
          "name": "F2",
          "ticks": 28368,
          "time": 101.3142435,
          "velocity": 0.551181102362205
        },
        {
          "duration": 0.171428500000005,
          "durationTicks": 48,
          "midi": 26,
          "name": "D1",
          "ticks": 28416,
          "time": 101.485672,
          "velocity": 0.52755905511811
        },
        {
          "duration": 0.157142791666672,
          "durationTicks": 44,
          "midi": 41,
          "name": "F2",
          "ticks": 28467,
          "time": 101.66781478125,
          "velocity": 0.551181102362205
        },
        {
          "duration": 0.157142791666672,
          "durationTicks": 44,
          "midi": 38,
          "name": "D2",
          "ticks": 28467,
          "time": 101.66781478125,
          "velocity": 0.440944881889764
        },
        {
          "duration": 0.160714218750002,
          "durationTicks": 45,
          "midi": 26,
          "name": "D1",
          "ticks": 28514,
          "time": 101.835671854167,
          "velocity": 0.503937007874016
        },
        {
          "duration": 0.160714218750002,
          "durationTicks": 45,
          "midi": 41,
          "name": "F2",
          "ticks": 28562,
          "time": 102.007100354167,
          "velocity": 0.551181102362205
        },
        {
          "duration": 0.160714218750002,
          "durationTicks": 45,
          "midi": 38,
          "name": "D2",
          "ticks": 28562,
          "time": 102.007100354167,
          "velocity": 0.440944881889764
        },
        {
          "duration": 0.160714218750002,
          "durationTicks": 45,
          "midi": 26,
          "name": "D1",
          "ticks": 28609,
          "time": 102.174957427083,
          "velocity": 0.511811023622047
        },
        {
          "duration": 0.160714218750002,
          "durationTicks": 45,
          "midi": 41,
          "name": "F2",
          "ticks": 28657,
          "time": 102.346385927083,
          "velocity": 0.551181102362205
        },
        {
          "duration": 0.160714218750002,
          "durationTicks": 45,
          "midi": 38,
          "name": "D2",
          "ticks": 28657,
          "time": 102.346385927083,
          "velocity": 0.440944881889764
        },
        {
          "duration": 0.157142791666658,
          "durationTicks": 44,
          "midi": 26,
          "name": "D1",
          "ticks": 28705,
          "time": 102.517814427083,
          "velocity": 0.503937007874016
        },
        {
          "duration": 0.160714218750002,
          "durationTicks": 45,
          "midi": 41,
          "name": "F2",
          "ticks": 28752,
          "time": 102.6856715,
          "velocity": 0.551181102362205
        },
        {
          "duration": 0.160714218750002,
          "durationTicks": 45,
          "midi": 38,
          "name": "D2",
          "ticks": 28752,
          "time": 102.6856715,
          "velocity": 0.440944881889764
        },
        {
          "duration": 0.171428500000005,
          "durationTicks": 48,
          "midi": 26,
          "name": "D1",
          "ticks": 28800,
          "time": 102.8571,
          "velocity": 0.52755905511811
        },
        {
          "duration": 0.157142791666658,
          "durationTicks": 44,
          "midi": 41,
          "name": "F2",
          "ticks": 28851,
          "time": 103.03924278125,
          "velocity": 0.551181102362205
        },
        {
          "duration": 0.157142791666658,
          "durationTicks": 44,
          "midi": 38,
          "name": "D2",
          "ticks": 28851,
          "time": 103.03924278125,
          "velocity": 0.440944881889764
        },
        {
          "duration": 0.160714218750002,
          "durationTicks": 45,
          "midi": 26,
          "name": "D1",
          "ticks": 28898,
          "time": 103.207099854167,
          "velocity": 0.503937007874016
        },
        {
          "duration": 0.160714218750002,
          "durationTicks": 45,
          "midi": 41,
          "name": "F2",
          "ticks": 28946,
          "time": 103.378528354167,
          "velocity": 0.551181102362205
        },
        {
          "duration": 0.160714218750002,
          "durationTicks": 45,
          "midi": 38,
          "name": "D2",
          "ticks": 28946,
          "time": 103.378528354167,
          "velocity": 0.440944881889764
        },
        {
          "duration": 0.160714218750002,
          "durationTicks": 45,
          "midi": 26,
          "name": "D1",
          "ticks": 28993,
          "time": 103.546385427083,
          "velocity": 0.511811023622047
        },
        {
          "duration": 0.160714218750002,
          "durationTicks": 45,
          "midi": 41,
          "name": "F2",
          "ticks": 29041,
          "time": 103.717813927083,
          "velocity": 0.551181102362205
        },
        {
          "duration": 0.160714218750002,
          "durationTicks": 45,
          "midi": 38,
          "name": "D2",
          "ticks": 29041,
          "time": 103.717813927083,
          "velocity": 0.440944881889764
        },
        {
          "duration": 0.157142791666658,
          "durationTicks": 44,
          "midi": 24,
          "name": "C1",
          "ticks": 29089,
          "time": 103.889242427083,
          "velocity": 0.496062992125984
        },
        {
          "duration": 0.160714218750002,
          "durationTicks": 45,
          "midi": 40,
          "name": "E2",
          "ticks": 29136,
          "time": 104.0570995,
          "velocity": 0.551181102362205
        },
        {
          "duration": 0.160714218750002,
          "durationTicks": 45,
          "midi": 36,
          "name": "C2",
          "ticks": 29136,
          "time": 104.0570995,
          "velocity": 0.440944881889764
        },
        {
          "duration": 0.17142849999999,
          "durationTicks": 48,
          "midi": 22,
          "name": "A#0",
          "ticks": 29184,
          "time": 104.228528,
          "velocity": 0.519685039370079
        },
        {
          "duration": 0.157142791666658,
          "durationTicks": 44,
          "midi": 38,
          "name": "D2",
          "ticks": 29235,
          "time": 104.41067078125,
          "velocity": 0.551181102362205
        },
        {
          "duration": 0.157142791666658,
          "durationTicks": 44,
          "midi": 34,
          "name": "A#1",
          "ticks": 29235,
          "time": 104.41067078125,
          "velocity": 0.440944881889764
        },
        {
          "duration": 0.160714218750002,
          "durationTicks": 45,
          "midi": 22,
          "name": "A#0",
          "ticks": 29282,
          "time": 104.578527854167,
          "velocity": 0.496062992125984
        },
        {
          "duration": 0.160714218750002,
          "durationTicks": 45,
          "midi": 34,
          "name": "A#1",
          "ticks": 29330,
          "time": 104.749956354167,
          "velocity": 0.440944881889764
        },
        {
          "duration": 0.160714218750002,
          "durationTicks": 45,
          "midi": 38,
          "name": "D2",
          "ticks": 29330,
          "time": 104.749956354167,
          "velocity": 0.551181102362205
        },
        {
          "duration": 0.160714218750002,
          "durationTicks": 45,
          "midi": 22,
          "name": "A#0",
          "ticks": 29377,
          "time": 104.917813427083,
          "velocity": 0.503937007874016
        },
        {
          "duration": 0.160714218750002,
          "durationTicks": 45,
          "midi": 38,
          "name": "D2",
          "ticks": 29425,
          "time": 105.089241927083,
          "velocity": 0.551181102362205
        },
        {
          "duration": 0.160714218750002,
          "durationTicks": 45,
          "midi": 34,
          "name": "A#1",
          "ticks": 29425,
          "time": 105.089241927083,
          "velocity": 0.440944881889764
        },
        {
          "duration": 0.157142791666672,
          "durationTicks": 44,
          "midi": 22,
          "name": "A#0",
          "ticks": 29473,
          "time": 105.260670427083,
          "velocity": 0.496062992125984
        },
        {
          "duration": 0.160714218750002,
          "durationTicks": 45,
          "midi": 34,
          "name": "A#1",
          "ticks": 29520,
          "time": 105.4285275,
          "velocity": 0.440944881889764
        },
        {
          "duration": 0.160714218750002,
          "durationTicks": 45,
          "midi": 38,
          "name": "D2",
          "ticks": 29520,
          "time": 105.4285275,
          "velocity": 0.551181102362205
        },
        {
          "duration": 0.171428500000005,
          "durationTicks": 48,
          "midi": 22,
          "name": "A#0",
          "ticks": 29568,
          "time": 105.599956,
          "velocity": 0.519685039370079
        },
        {
          "duration": 0.157142791666658,
          "durationTicks": 44,
          "midi": 38,
          "name": "D2",
          "ticks": 29619,
          "time": 105.78209878125,
          "velocity": 0.551181102362205
        },
        {
          "duration": 0.157142791666658,
          "durationTicks": 44,
          "midi": 34,
          "name": "A#1",
          "ticks": 29619,
          "time": 105.78209878125,
          "velocity": 0.440944881889764
        },
        {
          "duration": 0.160714218750002,
          "durationTicks": 45,
          "midi": 22,
          "name": "A#0",
          "ticks": 29666,
          "time": 105.949955854167,
          "velocity": 0.496062992125984
        },
        {
          "duration": 0.160714218750002,
          "durationTicks": 45,
          "midi": 34,
          "name": "A#1",
          "ticks": 29714,
          "time": 106.121384354167,
          "velocity": 0.440944881889764
        },
        {
          "duration": 0.160714218750002,
          "durationTicks": 45,
          "midi": 38,
          "name": "D2",
          "ticks": 29714,
          "time": 106.121384354167,
          "velocity": 0.551181102362205
        },
        {
          "duration": 0.160714218750002,
          "durationTicks": 45,
          "midi": 22,
          "name": "A#0",
          "ticks": 29761,
          "time": 106.289241427083,
          "velocity": 0.503937007874016
        },
        {
          "duration": 0.160714218750002,
          "durationTicks": 45,
          "midi": 38,
          "name": "D2",
          "ticks": 29809,
          "time": 106.460669927083,
          "velocity": 0.551181102362205
        },
        {
          "duration": 0.160714218750002,
          "durationTicks": 45,
          "midi": 34,
          "name": "A#1",
          "ticks": 29809,
          "time": 106.460669927083,
          "velocity": 0.440944881889764
        },
        {
          "duration": 0.157142791666658,
          "durationTicks": 44,
          "midi": 22,
          "name": "A#0",
          "ticks": 29857,
          "time": 106.632098427083,
          "velocity": 0.496062992125984
        },
        {
          "duration": 0.160714218750002,
          "durationTicks": 45,
          "midi": 34,
          "name": "A#1",
          "ticks": 29904,
          "time": 106.7999555,
          "velocity": 0.440944881889764
        },
        {
          "duration": 0.160714218750002,
          "durationTicks": 45,
          "midi": 38,
          "name": "D2",
          "ticks": 29904,
          "time": 106.7999555,
          "velocity": 0.551181102362205
        },
        {
          "duration": 0.171428500000005,
          "durationTicks": 48,
          "midi": 22,
          "name": "A#0",
          "ticks": 29952,
          "time": 106.971384,
          "velocity": 0.519685039370079
        },
        {
          "duration": 0.157142791666658,
          "durationTicks": 44,
          "midi": 34,
          "name": "A#1",
          "ticks": 30003,
          "time": 107.15352678125,
          "velocity": 0.440944881889764
        },
        {
          "duration": 0.157142791666658,
          "durationTicks": 44,
          "midi": 38,
          "name": "D2",
          "ticks": 30003,
          "time": 107.15352678125,
          "velocity": 0.551181102362205
        },
        {
          "duration": 0.160714218750002,
          "durationTicks": 45,
          "midi": 22,
          "name": "A#0",
          "ticks": 30050,
          "time": 107.321383854167,
          "velocity": 0.496062992125984
        },
        {
          "duration": 0.160714218749987,
          "durationTicks": 45,
          "midi": 38,
          "name": "D2",
          "ticks": 30098,
          "time": 107.492812354167,
          "velocity": 0.551181102362205
        },
        {
          "duration": 0.160714218749987,
          "durationTicks": 45,
          "midi": 34,
          "name": "A#1",
          "ticks": 30098,
          "time": 107.492812354167,
          "velocity": 0.440944881889764
        },
        {
          "duration": 0.160714218750002,
          "durationTicks": 45,
          "midi": 22,
          "name": "A#0",
          "ticks": 30145,
          "time": 107.660669427083,
          "velocity": 0.503937007874016
        },
        {
          "duration": 0.160714218749987,
          "durationTicks": 45,
          "midi": 34,
          "name": "A#1",
          "ticks": 30193,
          "time": 107.832097927083,
          "velocity": 0.440944881889764
        },
        {
          "duration": 0.160714218749987,
          "durationTicks": 45,
          "midi": 38,
          "name": "D2",
          "ticks": 30193,
          "time": 107.832097927083,
          "velocity": 0.551181102362205
        },
        {
          "duration": 0.157142791666658,
          "durationTicks": 44,
          "midi": 22,
          "name": "A#0",
          "ticks": 30241,
          "time": 108.003526427083,
          "velocity": 0.496062992125984
        },
        {
          "duration": 0.160714218750002,
          "durationTicks": 45,
          "midi": 38,
          "name": "D2",
          "ticks": 30288,
          "time": 108.1713835,
          "velocity": 0.551181102362205
        },
        {
          "duration": 0.160714218750002,
          "durationTicks": 45,
          "midi": 34,
          "name": "A#1",
          "ticks": 30288,
          "time": 108.1713835,
          "velocity": 0.440944881889764
        },
        {
          "duration": 0.171428500000005,
          "durationTicks": 48,
          "midi": 21,
          "name": "A0",
          "ticks": 30336,
          "time": 108.342812,
          "velocity": 0.511811023622047
        },
        {
          "duration": 0.157142791666658,
          "durationTicks": 44,
          "midi": 33,
          "name": "A1",
          "ticks": 30387,
          "time": 108.52495478125,
          "velocity": 0.440944881889764
        },
        {
          "duration": 0.157142791666658,
          "durationTicks": 44,
          "midi": 36,
          "name": "C2",
          "ticks": 30387,
          "time": 108.52495478125,
          "velocity": 0.543307086614173
        },
        {
          "duration": 0.160714218750002,
          "durationTicks": 45,
          "midi": 21,
          "name": "A0",
          "ticks": 30434,
          "time": 108.692811854167,
          "velocity": 0.488188976377953
        },
        {
          "duration": 0.160714218750002,
          "durationTicks": 45,
          "midi": 36,
          "name": "C2",
          "ticks": 30482,
          "time": 108.864240354167,
          "velocity": 0.543307086614173
        },
        {
          "duration": 0.160714218750002,
          "durationTicks": 45,
          "midi": 33,
          "name": "A1",
          "ticks": 30482,
          "time": 108.864240354167,
          "velocity": 0.440944881889764
        },
        {
          "duration": 0.160714218750002,
          "durationTicks": 45,
          "midi": 24,
          "name": "C1",
          "ticks": 30529,
          "time": 109.032097427083,
          "velocity": 0.503937007874016
        },
        {
          "duration": 0.160714218750002,
          "durationTicks": 45,
          "midi": 36,
          "name": "C2",
          "ticks": 30577,
          "time": 109.203525927083,
          "velocity": 0.503937007874016
        },
        {
          "duration": 0.157142791666658,
          "durationTicks": 44,
          "midi": 25,
          "name": "C#1",
          "ticks": 30625,
          "time": 109.374954427083,
          "velocity": 0.503937007874016
        },
        {
          "duration": 0.160714218749987,
          "durationTicks": 45,
          "midi": 37,
          "name": "C#2",
          "ticks": 30672,
          "time": 109.5428115,
          "velocity": 0.503937007874016
        },
        {
          "duration": 0.171428500000005,
          "durationTicks": 48,
          "midi": 26,
          "name": "D1",
          "ticks": 30720,
          "time": 109.71424,
          "velocity": 0.52755905511811
        },
        {
          "duration": 0.157142791666658,
          "durationTicks": 44,
          "midi": 38,
          "name": "D2",
          "ticks": 30771,
          "time": 109.89638278125,
          "velocity": 0.440944881889764
        },
        {
          "duration": 0.157142791666658,
          "durationTicks": 44,
          "midi": 41,
          "name": "F2",
          "ticks": 30771,
          "time": 109.89638278125,
          "velocity": 0.551181102362205
        },
        {
          "duration": 0.160714218750002,
          "durationTicks": 45,
          "midi": 26,
          "name": "D1",
          "ticks": 30818,
          "time": 110.064239854167,
          "velocity": 0.503937007874016
        },
        {
          "duration": 0.160714218750002,
          "durationTicks": 45,
          "midi": 38,
          "name": "D2",
          "ticks": 30866,
          "time": 110.235668354167,
          "velocity": 0.440944881889764
        },
        {
          "duration": 0.160714218750002,
          "durationTicks": 45,
          "midi": 41,
          "name": "F2",
          "ticks": 30866,
          "time": 110.235668354167,
          "velocity": 0.551181102362205
        },
        {
          "duration": 0.160714218750002,
          "durationTicks": 45,
          "midi": 26,
          "name": "D1",
          "ticks": 30913,
          "time": 110.403525427083,
          "velocity": 0.511811023622047
        },
        {
          "duration": 0.160714218750002,
          "durationTicks": 45,
          "midi": 38,
          "name": "D2",
          "ticks": 30961,
          "time": 110.574953927083,
          "velocity": 0.440944881889764
        },
        {
          "duration": 0.160714218750002,
          "durationTicks": 45,
          "midi": 41,
          "name": "F2",
          "ticks": 30961,
          "time": 110.574953927083,
          "velocity": 0.551181102362205
        },
        {
          "duration": 0.157142791666658,
          "durationTicks": 44,
          "midi": 26,
          "name": "D1",
          "ticks": 31009,
          "time": 110.746382427083,
          "velocity": 0.503937007874016
        },
        {
          "duration": 0.160714218750002,
          "durationTicks": 45,
          "midi": 38,
          "name": "D2",
          "ticks": 31056,
          "time": 110.9142395,
          "velocity": 0.440944881889764
        },
        {
          "duration": 0.160714218750002,
          "durationTicks": 45,
          "midi": 41,
          "name": "F2",
          "ticks": 31056,
          "time": 110.9142395,
          "velocity": 0.551181102362205
        },
        {
          "duration": 0.17142849999999,
          "durationTicks": 48,
          "midi": 26,
          "name": "D1",
          "ticks": 31104,
          "time": 111.085668,
          "velocity": 0.52755905511811
        },
        {
          "duration": 0.157142791666658,
          "durationTicks": 44,
          "midi": 38,
          "name": "D2",
          "ticks": 31155,
          "time": 111.26781078125,
          "velocity": 0.440944881889764
        },
        {
          "duration": 0.157142791666658,
          "durationTicks": 44,
          "midi": 41,
          "name": "F2",
          "ticks": 31155,
          "time": 111.26781078125,
          "velocity": 0.551181102362205
        },
        {
          "duration": 0.160714218750002,
          "durationTicks": 45,
          "midi": 26,
          "name": "D1",
          "ticks": 31202,
          "time": 111.435667854167,
          "velocity": 0.503937007874016
        },
        {
          "duration": 0.160714218750002,
          "durationTicks": 45,
          "midi": 38,
          "name": "D2",
          "ticks": 31250,
          "time": 111.607096354167,
          "velocity": 0.440944881889764
        },
        {
          "duration": 0.160714218750002,
          "durationTicks": 45,
          "midi": 41,
          "name": "F2",
          "ticks": 31250,
          "time": 111.607096354167,
          "velocity": 0.551181102362205
        },
        {
          "duration": 0.160714218750002,
          "durationTicks": 45,
          "midi": 26,
          "name": "D1",
          "ticks": 31297,
          "time": 111.774953427083,
          "velocity": 0.511811023622047
        },
        {
          "duration": 0.160714218750002,
          "durationTicks": 45,
          "midi": 38,
          "name": "D2",
          "ticks": 31345,
          "time": 111.946381927083,
          "velocity": 0.440944881889764
        },
        {
          "duration": 0.160714218750002,
          "durationTicks": 45,
          "midi": 41,
          "name": "F2",
          "ticks": 31345,
          "time": 111.946381927083,
          "velocity": 0.551181102362205
        },
        {
          "duration": 0.157142791666672,
          "durationTicks": 44,
          "midi": 26,
          "name": "D1",
          "ticks": 31393,
          "time": 112.117810427083,
          "velocity": 0.503937007874016
        },
        {
          "duration": 0.160714218750002,
          "durationTicks": 45,
          "midi": 38,
          "name": "D2",
          "ticks": 31440,
          "time": 112.2856675,
          "velocity": 0.440944881889764
        },
        {
          "duration": 0.160714218750002,
          "durationTicks": 45,
          "midi": 41,
          "name": "F2",
          "ticks": 31440,
          "time": 112.2856675,
          "velocity": 0.551181102362205
        },
        {
          "duration": 0.171428500000005,
          "durationTicks": 48,
          "midi": 26,
          "name": "D1",
          "ticks": 31488,
          "time": 112.457096,
          "velocity": 0.52755905511811
        },
        {
          "duration": 0.157142791666672,
          "durationTicks": 44,
          "midi": 38,
          "name": "D2",
          "ticks": 31539,
          "time": 112.63923878125,
          "velocity": 0.440944881889764
        },
        {
          "duration": 0.157142791666672,
          "durationTicks": 44,
          "midi": 41,
          "name": "F2",
          "ticks": 31539,
          "time": 112.63923878125,
          "velocity": 0.551181102362205
        },
        {
          "duration": 0.160714218750002,
          "durationTicks": 45,
          "midi": 26,
          "name": "D1",
          "ticks": 31586,
          "time": 112.807095854167,
          "velocity": 0.503937007874016
        },
        {
          "duration": 0.160714218750002,
          "durationTicks": 45,
          "midi": 38,
          "name": "D2",
          "ticks": 31634,
          "time": 112.978524354167,
          "velocity": 0.440944881889764
        },
        {
          "duration": 0.160714218750002,
          "durationTicks": 45,
          "midi": 41,
          "name": "F2",
          "ticks": 31634,
          "time": 112.978524354167,
          "velocity": 0.551181102362205
        },
        {
          "duration": 0.160714218750002,
          "durationTicks": 45,
          "midi": 26,
          "name": "D1",
          "ticks": 31681,
          "time": 113.146381427083,
          "velocity": 0.511811023622047
        },
        {
          "duration": 0.160714218750002,
          "durationTicks": 45,
          "midi": 38,
          "name": "D2",
          "ticks": 31729,
          "time": 113.317809927083,
          "velocity": 0.440944881889764
        },
        {
          "duration": 0.160714218750002,
          "durationTicks": 45,
          "midi": 41,
          "name": "F2",
          "ticks": 31729,
          "time": 113.317809927083,
          "velocity": 0.551181102362205
        },
        {
          "duration": 0.157142791666658,
          "durationTicks": 44,
          "midi": 26,
          "name": "D1",
          "ticks": 31777,
          "time": 113.489238427083,
          "velocity": 0.503937007874016
        },
        {
          "duration": 0.160714218750002,
          "durationTicks": 45,
          "midi": 38,
          "name": "D2",
          "ticks": 31824,
          "time": 113.6570955,
          "velocity": 0.440944881889764
        },
        {
          "duration": 0.160714218750002,
          "durationTicks": 45,
          "midi": 41,
          "name": "F2",
          "ticks": 31824,
          "time": 113.6570955,
          "velocity": 0.551181102362205
        },
        {
          "duration": 0.171428500000005,
          "durationTicks": 48,
          "midi": 26,
          "name": "D1",
          "ticks": 31872,
          "time": 113.828524,
          "velocity": 0.52755905511811
        },
        {
          "duration": 0.157142791666658,
          "durationTicks": 44,
          "midi": 38,
          "name": "D2",
          "ticks": 31923,
          "time": 114.01066678125,
          "velocity": 0.440944881889764
        },
        {
          "duration": 0.157142791666658,
          "durationTicks": 44,
          "midi": 41,
          "name": "F2",
          "ticks": 31923,
          "time": 114.01066678125,
          "velocity": 0.551181102362205
        },
        {
          "duration": 0.160714218750002,
          "durationTicks": 45,
          "midi": 26,
          "name": "D1",
          "ticks": 31970,
          "time": 114.178523854167,
          "velocity": 0.503937007874016
        },
        {
          "duration": 0.160714218749987,
          "durationTicks": 45,
          "midi": 38,
          "name": "D2",
          "ticks": 32018,
          "time": 114.349952354167,
          "velocity": 0.440944881889764
        },
        {
          "duration": 0.160714218749987,
          "durationTicks": 45,
          "midi": 41,
          "name": "F2",
          "ticks": 32018,
          "time": 114.349952354167,
          "velocity": 0.551181102362205
        },
        {
          "duration": 0.160714218750002,
          "durationTicks": 45,
          "midi": 26,
          "name": "D1",
          "ticks": 32065,
          "time": 114.517809427083,
          "velocity": 0.511811023622047
        },
        {
          "duration": 0.160714218749987,
          "durationTicks": 45,
          "midi": 38,
          "name": "D2",
          "ticks": 32113,
          "time": 114.689237927083,
          "velocity": 0.440944881889764
        },
        {
          "duration": 0.160714218749987,
          "durationTicks": 45,
          "midi": 41,
          "name": "F2",
          "ticks": 32113,
          "time": 114.689237927083,
          "velocity": 0.551181102362205
        },
        {
          "duration": 0.157142791666658,
          "durationTicks": 44,
          "midi": 24,
          "name": "C1",
          "ticks": 32161,
          "time": 114.860666427083,
          "velocity": 0.496062992125984
        },
        {
          "duration": 0.160714218750002,
          "durationTicks": 45,
          "midi": 36,
          "name": "C2",
          "ticks": 32208,
          "time": 115.0285235,
          "velocity": 0.440944881889764
        },
        {
          "duration": 0.160714218750002,
          "durationTicks": 45,
          "midi": 40,
          "name": "E2",
          "ticks": 32208,
          "time": 115.0285235,
          "velocity": 0.551181102362205
        },
        {
          "duration": 0.17142849999999,
          "durationTicks": 48,
          "midi": 22,
          "name": "A#0",
          "ticks": 32256,
          "time": 115.199952,
          "velocity": 0.519685039370079
        },
        {
          "duration": 0.157142791666658,
          "durationTicks": 44,
          "midi": 34,
          "name": "A#1",
          "ticks": 32307,
          "time": 115.38209478125,
          "velocity": 0.440944881889764
        },
        {
          "duration": 0.157142791666658,
          "durationTicks": 44,
          "midi": 38,
          "name": "D2",
          "ticks": 32307,
          "time": 115.38209478125,
          "velocity": 0.551181102362205
        },
        {
          "duration": 0.160714218750002,
          "durationTicks": 45,
          "midi": 22,
          "name": "A#0",
          "ticks": 32354,
          "time": 115.549951854167,
          "velocity": 0.496062992125984
        },
        {
          "duration": 0.160714218750002,
          "durationTicks": 45,
          "midi": 38,
          "name": "D2",
          "ticks": 32402,
          "time": 115.721380354167,
          "velocity": 0.551181102362205
        },
        {
          "duration": 0.160714218750002,
          "durationTicks": 45,
          "midi": 34,
          "name": "A#1",
          "ticks": 32402,
          "time": 115.721380354167,
          "velocity": 0.440944881889764
        },
        {
          "duration": 0.160714218750002,
          "durationTicks": 45,
          "midi": 22,
          "name": "A#0",
          "ticks": 32449,
          "time": 115.889237427083,
          "velocity": 0.503937007874016
        },
        {
          "duration": 0.160714218750002,
          "durationTicks": 45,
          "midi": 34,
          "name": "A#1",
          "ticks": 32497,
          "time": 116.060665927083,
          "velocity": 0.440944881889764
        },
        {
          "duration": 0.160714218750002,
          "durationTicks": 45,
          "midi": 38,
          "name": "D2",
          "ticks": 32497,
          "time": 116.060665927083,
          "velocity": 0.551181102362205
        },
        {
          "duration": 0.157142791666658,
          "durationTicks": 44,
          "midi": 22,
          "name": "A#0",
          "ticks": 32545,
          "time": 116.232094427083,
          "velocity": 0.496062992125984
        },
        {
          "duration": 0.160714218749987,
          "durationTicks": 45,
          "midi": 38,
          "name": "D2",
          "ticks": 32592,
          "time": 116.3999515,
          "velocity": 0.551181102362205
        },
        {
          "duration": 0.160714218749987,
          "durationTicks": 45,
          "midi": 34,
          "name": "A#1",
          "ticks": 32592,
          "time": 116.3999515,
          "velocity": 0.440944881889764
        },
        {
          "duration": 0.171428500000005,
          "durationTicks": 48,
          "midi": 22,
          "name": "A#0",
          "ticks": 32640,
          "time": 116.57138,
          "velocity": 0.519685039370079
        },
        {
          "duration": 0.157142791666658,
          "durationTicks": 44,
          "midi": 34,
          "name": "A#1",
          "ticks": 32691,
          "time": 116.75352278125,
          "velocity": 0.440944881889764
        },
        {
          "duration": 0.157142791666658,
          "durationTicks": 44,
          "midi": 38,
          "name": "D2",
          "ticks": 32691,
          "time": 116.75352278125,
          "velocity": 0.551181102362205
        },
        {
          "duration": 0.160714218750002,
          "durationTicks": 45,
          "midi": 22,
          "name": "A#0",
          "ticks": 32738,
          "time": 116.921379854167,
          "velocity": 0.496062992125984
        },
        {
          "duration": 0.160714218750002,
          "durationTicks": 45,
          "midi": 38,
          "name": "D2",
          "ticks": 32786,
          "time": 117.092808354167,
          "velocity": 0.551181102362205
        },
        {
          "duration": 0.160714218750002,
          "durationTicks": 45,
          "midi": 34,
          "name": "A#1",
          "ticks": 32786,
          "time": 117.092808354167,
          "velocity": 0.440944881889764
        },
        {
          "duration": 0.160714218750002,
          "durationTicks": 45,
          "midi": 22,
          "name": "A#0",
          "ticks": 32833,
          "time": 117.260665427083,
          "velocity": 0.503937007874016
        },
        {
          "duration": 0.160714218750002,
          "durationTicks": 45,
          "midi": 34,
          "name": "A#1",
          "ticks": 32881,
          "time": 117.432093927083,
          "velocity": 0.440944881889764
        },
        {
          "duration": 0.160714218750002,
          "durationTicks": 45,
          "midi": 38,
          "name": "D2",
          "ticks": 32881,
          "time": 117.432093927083,
          "velocity": 0.551181102362205
        },
        {
          "duration": 0.157142791666658,
          "durationTicks": 44,
          "midi": 22,
          "name": "A#0",
          "ticks": 32929,
          "time": 117.603522427083,
          "velocity": 0.496062992125984
        },
        {
          "duration": 0.160714218750002,
          "durationTicks": 45,
          "midi": 38,
          "name": "D2",
          "ticks": 32976,
          "time": 117.7713795,
          "velocity": 0.551181102362205
        },
        {
          "duration": 0.160714218750002,
          "durationTicks": 45,
          "midi": 34,
          "name": "A#1",
          "ticks": 32976,
          "time": 117.7713795,
          "velocity": 0.440944881889764
        },
        {
          "duration": 0.0928571041666544,
          "durationTicks": 26,
          "midi": 27,
          "name": "D#1",
          "ticks": 33024,
          "time": 117.942808,
          "velocity": 0.47244094488189
        },
        {
          "duration": 0.0928571041666544,
          "durationTicks": 26,
          "midi": 39,
          "name": "D#2",
          "ticks": 33024,
          "time": 117.942808,
          "velocity": 0.590551181102362
        },
        {
          "duration": 0.0785713958333361,
          "durationTicks": 22,
          "midi": 27,
          "name": "D#1",
          "ticks": 33051,
          "time": 118.03923653125,
          "velocity": 0.433070866141732
        },
        {
          "duration": 0.0785713958333361,
          "durationTicks": 22,
          "midi": 39,
          "name": "D#2",
          "ticks": 33051,
          "time": 118.03923653125,
          "velocity": 0.551181102362205
        },
        {
          "duration": 0.0821428229166799,
          "durationTicks": 23,
          "midi": 26,
          "name": "D1",
          "ticks": 33098,
          "time": 118.207093604167,
          "velocity": 0.433070866141732
        },
        {
          "duration": 0.0821428229166799,
          "durationTicks": 23,
          "midi": 38,
          "name": "D2",
          "ticks": 33098,
          "time": 118.207093604167,
          "velocity": 0.551181102362205
        },
        {
          "duration": 0.0821428229166799,
          "durationTicks": 23,
          "midi": 26,
          "name": "D1",
          "ticks": 33122,
          "time": 118.292807854167,
          "velocity": 0.440944881889764
        },
        {
          "duration": 0.0821428229166799,
          "durationTicks": 23,
          "midi": 38,
          "name": "D2",
          "ticks": 33122,
          "time": 118.292807854167,
          "velocity": 0.559055118110236
        },
        {
          "duration": 0.0749999687499923,
          "durationTicks": 21,
          "midi": 24,
          "name": "C1",
          "ticks": 33170,
          "time": 118.464236354167,
          "velocity": 0.425196850393701
        },
        {
          "duration": 0.0749999687499923,
          "durationTicks": 21,
          "midi": 36,
          "name": "C2",
          "ticks": 33170,
          "time": 118.464236354167,
          "velocity": 0.543307086614173
        },
        {
          "duration": 0.0821428229166514,
          "durationTicks": 23,
          "midi": 24,
          "name": "C1",
          "ticks": 33193,
          "time": 118.546379177083,
          "velocity": 0.425196850393701
        },
        {
          "duration": 0.0821428229166514,
          "durationTicks": 23,
          "midi": 36,
          "name": "C2",
          "ticks": 33193,
          "time": 118.546379177083,
          "velocity": 0.543307086614173
        },
        {
          "duration": 0.160714218750002,
          "durationTicks": 45,
          "midi": 38,
          "name": "D2",
          "ticks": 33265,
          "time": 118.803521927083,
          "velocity": 0.551181102362205
        },
        {
          "duration": 0.160714218750002,
          "durationTicks": 45,
          "midi": 26,
          "name": "D1",
          "ticks": 33265,
          "time": 118.803521927083,
          "velocity": 0.433070866141732
        },
        {
          "duration": 0.157142791666672,
          "durationTicks": 44,
          "midi": 27,
          "name": "D#1",
          "ticks": 33313,
          "time": 118.974950427083,
          "velocity": 0.440944881889764
        },
        {
          "duration": 0.157142791666672,
          "durationTicks": 44,
          "midi": 39,
          "name": "D#2",
          "ticks": 33313,
          "time": 118.974950427083,
          "velocity": 0.559055118110236
        },
        {
          "duration": 0.160714218750002,
          "durationTicks": 45,
          "midi": 24,
          "name": "C1",
          "ticks": 33360,
          "time": 119.1428075,
          "velocity": 0.425196850393701
        },
        {
          "duration": 0.160714218750002,
          "durationTicks": 45,
          "midi": 36,
          "name": "C2",
          "ticks": 33360,
          "time": 119.1428075,
          "velocity": 0.543307086614173
        },
        {
          "duration": 0.171428500000005,
          "durationTicks": 48,
          "midi": 38,
          "name": "D2",
          "ticks": 33408,
          "time": 119.314236,
          "velocity": 0.590551181102362
        },
        {
          "duration": 0.171428500000005,
          "durationTicks": 48,
          "midi": 26,
          "name": "D1",
          "ticks": 33408,
          "time": 119.314236,
          "velocity": 0.47244094488189
        },
        {
          "duration": 0.157142791666672,
          "durationTicks": 44,
          "midi": 38,
          "name": "D2",
          "ticks": 33459,
          "time": 119.49637878125,
          "velocity": 0.519685039370079
        },
        {
          "duration": 0.157142791666672,
          "durationTicks": 44,
          "midi": 26,
          "name": "D1",
          "ticks": 33459,
          "time": 119.49637878125,
          "velocity": 0.433070866141732
        },
        {
          "duration": 0.160714218750002,
          "durationTicks": 45,
          "midi": 38,
          "name": "D2",
          "ticks": 33506,
          "time": 119.664235854167,
          "velocity": 0.559055118110236
        },
        {
          "duration": 0.160714218750002,
          "durationTicks": 45,
          "midi": 26,
          "name": "D1",
          "ticks": 33506,
          "time": 119.664235854167,
          "velocity": 0.440944881889764
        },
        {
          "duration": 0.0749999687500065,
          "durationTicks": 21,
          "midi": 36,
          "name": "C2",
          "ticks": 33554,
          "time": 119.835664354167,
          "velocity": 0.543307086614173
        },
        {
          "duration": 0.0749999687500065,
          "durationTicks": 21,
          "midi": 24,
          "name": "C1",
          "ticks": 33554,
          "time": 119.835664354167,
          "velocity": 0.425196850393701
        },
        {
          "duration": 0.0821428229166656,
          "durationTicks": 23,
          "midi": 38,
          "name": "D2",
          "ticks": 33577,
          "time": 119.917807177083,
          "velocity": 0.551181102362205
        },
        {
          "duration": 0.0821428229166656,
          "durationTicks": 23,
          "midi": 26,
          "name": "D1",
          "ticks": 33577,
          "time": 119.917807177083,
          "velocity": 0.433070866141732
        },
        {
          "duration": 0.157142791666658,
          "durationTicks": 44,
          "midi": 14,
          "name": "D0",
          "ticks": 33697,
          "time": 120.346378427083,
          "velocity": 0.503937007874016
        }
      ]
    },
    {
      "channel": 0,
      "controlChanges": {
        "6": [
          {
            "number": 6,
            "ticks": 0,
            "time": 0,
            "value": 0.094488188976378
          }
        ],
        "7": [
          {
            "number": 7,
            "ticks": 0,
            "time": 0,
            "value": 0.78740157480315
          },
          {
            "number": 7,
            "ticks": 0,
            "time": 0,
            "value": 0.78740157480315
          }
        ],
        "10": [
          {
            "number": 10,
            "ticks": 0,
            "time": 0,
            "value": 0.503937007874016
          },
          {
            "number": 10,
            "ticks": 0,
            "time": 0,
            "value": 0.503937007874016
          }
        ],
        "100": [
          {
            "number": 100,
            "ticks": 0,
            "time": 0,
            "value": 0
          }
        ],
        "101": [
          {
            "number": 101,
            "ticks": 0,
            "time": 0,
            "value": 0
          }
        ]
      },
      "pitchBends": [
        {
          "ticks": 0,
          "time": 0,
          "value": 0
        },
        {
          "ticks": 0,
          "time": 0,
          "value": 0
        }
      ],
      "instrument": {
        "family": "piano",
        "number": 0,
        "name": "acoustic grand piano"
      },
      "name": "MIDI out #11",
      "notes": [],
      "endOfTrackTicks": 34177
    },
    {
      "channel": 3,
      "controlChanges": {
        "6": [
          {
            "number": 6,
            "ticks": 0,
            "time": 0,
            "value": 0.094488188976378
          },
          {
            "number": 6,
            "ticks": 0,
            "time": 0,
            "value": 0.094488188976378
          },
          {
            "number": 6,
            "ticks": 34176,
            "time": 122.057092,
            "value": 0.094488188976378
          },
          {
            "number": 6,
            "ticks": 34177,
            "time": 122.060663427083,
            "value": 0.094488188976378
          },
          {
            "number": 6,
            "ticks": 34177,
            "time": 122.060663427083,
            "value": 0.094488188976378
          }
        ],
        "7": [
          {
            "number": 7,
            "ticks": 0,
            "time": 0,
            "value": 0.78740157480315
          },
          {
            "number": 7,
            "ticks": 0,
            "time": 0,
            "value": 0.78740157480315
          },
          {
            "number": 7,
            "ticks": 34176,
            "time": 122.057092,
            "value": 0.78740157480315
          },
          {
            "number": 7,
            "ticks": 34177,
            "time": 122.060663427083,
            "value": 0.78740157480315
          },
          {
            "number": 7,
            "ticks": 34177,
            "time": 122.060663427083,
            "value": 0.78740157480315
          }
        ],
        "10": [
          {
            "number": 10,
            "ticks": 0,
            "time": 0,
            "value": 0.503937007874016
          },
          {
            "number": 10,
            "ticks": 0,
            "time": 0,
            "value": 0.503937007874016
          },
          {
            "number": 10,
            "ticks": 34176,
            "time": 122.057092,
            "value": 0.503937007874016
          },
          {
            "number": 10,
            "ticks": 34177,
            "time": 122.060663427083,
            "value": 0.503937007874016
          },
          {
            "number": 10,
            "ticks": 34177,
            "time": 122.060663427083,
            "value": 0.503937007874016
          }
        ],
        "100": [
          {
            "number": 100,
            "ticks": 0,
            "time": 0,
            "value": 0
          },
          {
            "number": 100,
            "ticks": 0,
            "time": 0,
            "value": 0
          },
          {
            "number": 100,
            "ticks": 34176,
            "time": 122.057092,
            "value": 0
          },
          {
            "number": 100,
            "ticks": 34177,
            "time": 122.060663427083,
            "value": 0
          },
          {
            "number": 100,
            "ticks": 34177,
            "time": 122.060663427083,
            "value": 0
          }
        ],
        "101": [
          {
            "number": 101,
            "ticks": 0,
            "time": 0,
            "value": 0
          },
          {
            "number": 101,
            "ticks": 0,
            "time": 0,
            "value": 0
          },
          {
            "number": 101,
            "ticks": 34176,
            "time": 122.057092,
            "value": 0
          },
          {
            "number": 101,
            "ticks": 34177,
            "time": 122.060663427083,
            "value": 0
          },
          {
            "number": 101,
            "ticks": 34177,
            "time": 122.060663427083,
            "value": 0
          }
        ]
      },
      "pitchBends": [
        {
          "ticks": 0,
          "time": 0,
          "value": 0
        },
        {
          "ticks": 0,
          "time": 0,
          "value": 0
        },
        {
          "ticks": 34176,
          "time": 122.057092,
          "value": 0
        },
        {
          "ticks": 34177,
          "time": 122.060663427083,
          "value": 0
        },
        {
          "ticks": 34177,
          "time": 122.060663427083,
          "value": 0
        }
      ],
      "instrument": {
        "family": "synth effects",
        "number": 102,
        "name": "fx 7 (echoes)"
      },
      "name": "",
      "notes": [
        {
          "duration": 0.171428499999999,
          "durationTicks": 48,
          "midi": 74,
          "name": "D5",
          "ticks": 2928,
          "time": 10.4571385,
          "velocity": 0.464566929133858
        },
        {
          "duration": 0.171428500000001,
          "durationTicks": 48,
          "midi": 76,
          "name": "E5",
          "ticks": 2976,
          "time": 10.628567,
          "velocity": 0.464566929133858
        },
        {
          "duration": 0.171428499999999,
          "durationTicks": 48,
          "midi": 77,
          "name": "F5",
          "ticks": 3024,
          "time": 10.7999955,
          "velocity": 0.464566929133858
        },
        {
          "duration": 0.171428499999999,
          "durationTicks": 48,
          "midi": 81,
          "name": "A5",
          "ticks": 3072,
          "time": 10.971424,
          "velocity": 0.464566929133858
        },
        {
          "duration": 0.171428500000001,
          "durationTicks": 48,
          "midi": 81,
          "name": "A5",
          "ticks": 3216,
          "time": 11.4857095,
          "velocity": 0.464566929133858
        },
        {
          "duration": 0.171428499999999,
          "durationTicks": 48,
          "midi": 77,
          "name": "F5",
          "ticks": 3264,
          "time": 11.657138,
          "velocity": 0.464566929133858
        },
        {
          "duration": 0.171428499999999,
          "durationTicks": 48,
          "midi": 81,
          "name": "A5",
          "ticks": 3312,
          "time": 11.8285665,
          "velocity": 0.464566929133858
        },
        {
          "duration": 0.171428500000001,
          "durationTicks": 48,
          "midi": 77,
          "name": "F5",
          "ticks": 3360,
          "time": 11.999995,
          "velocity": 0.464566929133858
        },
        {
          "duration": 0.171428499999999,
          "durationTicks": 48,
          "midi": 76,
          "name": "E5",
          "ticks": 3408,
          "time": 12.1714235,
          "velocity": 0.464566929133858
        },
        {
          "duration": 0.685714000000001,
          "durationTicks": 192,
          "midi": 74,
          "name": "D5",
          "ticks": 3456,
          "time": 12.342852,
          "velocity": 0.464566929133858
        },
        {
          "duration": 0.157142791666667,
          "durationTicks": 44,
          "midi": 86,
          "name": "D6",
          "ticks": 3507,
          "time": 12.52499478125,
          "velocity": 0.464566929133858
        },
        {
          "duration": 0.16071421875,
          "durationTicks": 45,
          "midi": 89,
          "name": "F6",
          "ticks": 3554,
          "time": 12.6928518541667,
          "velocity": 0.456692913385827
        },
        {
          "duration": 0.16071421875,
          "durationTicks": 45,
          "midi": 93,
          "name": "A6",
          "ticks": 3602,
          "time": 12.8642803541667,
          "velocity": 0.456692913385827
        },
        {
          "duration": 0.16071421875,
          "durationTicks": 45,
          "midi": 98,
          "name": "D7",
          "ticks": 3649,
          "time": 13.0321374270833,
          "velocity": 0.456692913385827
        },
        {
          "duration": 0.171428499999999,
          "durationTicks": 48,
          "midi": 74,
          "name": "D5",
          "ticks": 3696,
          "time": 13.1999945,
          "velocity": 0.456692913385827
        },
        {
          "duration": 0.171428500000001,
          "durationTicks": 48,
          "midi": 77,
          "name": "F5",
          "ticks": 3744,
          "time": 13.371423,
          "velocity": 0.456692913385827
        },
        {
          "duration": 0.171428499999999,
          "durationTicks": 48,
          "midi": 81,
          "name": "A5",
          "ticks": 3792,
          "time": 13.5428515,
          "velocity": 0.456692913385827
        },
        {
          "duration": 0.171428500000001,
          "durationTicks": 48,
          "midi": 86,
          "name": "D6",
          "ticks": 3840,
          "time": 13.71428,
          "velocity": 0.456692913385827
        },
        {
          "duration": 0.171428500000001,
          "durationTicks": 48,
          "midi": 86,
          "name": "D6",
          "ticks": 3840,
          "time": 13.71428,
          "velocity": 0.456692913385827
        },
        {
          "duration": 0.171428500000001,
          "durationTicks": 48,
          "midi": 86,
          "name": "D6",
          "ticks": 3840,
          "time": 13.71428,
          "velocity": 0.456692913385827
        },
        {
          "duration": 0.171428500000001,
          "durationTicks": 48,
          "midi": 86,
          "name": "D6",
          "ticks": 3984,
          "time": 14.2285655,
          "velocity": 0.456692913385827
        },
        {
          "duration": 0.171428499999999,
          "durationTicks": 48,
          "midi": 84,
          "name": "C6",
          "ticks": 4032,
          "time": 14.399994,
          "velocity": 0.456692913385827
        },
        {
          "duration": 0.171428500000001,
          "durationTicks": 48,
          "midi": 86,
          "name": "D6",
          "ticks": 4080,
          "time": 14.5714225,
          "velocity": 0.456692913385827
        },
        {
          "duration": 0.171428499999999,
          "durationTicks": 48,
          "midi": 84,
          "name": "C6",
          "ticks": 4128,
          "time": 14.742851,
          "velocity": 0.456692913385827
        },
        {
          "duration": 0.171428499999999,
          "durationTicks": 48,
          "midi": 79,
          "name": "G5",
          "ticks": 4176,
          "time": 14.9142795,
          "velocity": 0.456692913385827
        },
        {
          "duration": 0.685714000000001,
          "durationTicks": 192,
          "midi": 81,
          "name": "A5",
          "ticks": 4224,
          "time": 15.085708,
          "velocity": 0.464566929133858
        },
        {
          "duration": 0.0749999687499994,
          "durationTicks": 21,
          "midi": 73,
          "name": "C#5",
          "ticks": 4275,
          "time": 15.26785078125,
          "velocity": 0.464566929133858
        },
        {
          "duration": 0.0821428229166656,
          "durationTicks": 23,
          "midi": 70,
          "name": "A#4",
          "ticks": 4298,
          "time": 15.3499936041667,
          "velocity": 0.464566929133858
        },
        {
          "duration": 0.0821428229166656,
          "durationTicks": 23,
          "midi": 69,
          "name": "A4",
          "ticks": 4322,
          "time": 15.4357078541667,
          "velocity": 0.464566929133858
        },
        {
          "duration": 0.0749999687500011,
          "durationTicks": 21,
          "midi": 70,
          "name": "A#4",
          "ticks": 4347,
          "time": 15.52499353125,
          "velocity": 0.464566929133858
        },
        {
          "duration": 0.0749999687500011,
          "durationTicks": 21,
          "midi": 69,
          "name": "A4",
          "ticks": 4370,
          "time": 15.6071363541667,
          "velocity": 0.464566929133858
        },
        {
          "duration": 0.0821428229166674,
          "durationTicks": 23,
          "midi": 67,
          "name": "G4",
          "ticks": 4393,
          "time": 15.6892791770833,
          "velocity": 0.464566929133858
        },
        {
          "duration": 0.16071421875,
          "durationTicks": 45,
          "midi": 69,
          "name": "A4",
          "ticks": 4417,
          "time": 15.7749934270833,
          "velocity": 0.464566929133858
        },
        {
          "duration": 0.335714145833336,
          "durationTicks": 94,
          "midi": 76,
          "name": "E5",
          "ticks": 4513,
          "time": 16.1178504270833,
          "velocity": 0.464566929133858
        },
        {
          "duration": 0.521428354166666,
          "durationTicks": 146,
          "midi": 77,
          "name": "F5",
          "ticks": 4608,
          "time": 16.457136,
          "velocity": 0.464566929133858
        },
        {
          "duration": 0.160714218750002,
          "durationTicks": 45,
          "midi": 77,
          "name": "F5",
          "ticks": 4754,
          "time": 16.9785643541667,
          "velocity": 0.519685039370079
        },
        {
          "duration": 0.160714218750002,
          "durationTicks": 45,
          "midi": 76,
          "name": "E5",
          "ticks": 4801,
          "time": 17.1464214270833,
          "velocity": 0.519685039370079
        },
        {
          "duration": 0.160714218750002,
          "durationTicks": 45,
          "midi": 77,
          "name": "F5",
          "ticks": 4849,
          "time": 17.3178499270833,
          "velocity": 0.519685039370079
        },
        {
          "duration": 0.157142791666665,
          "durationTicks": 44,
          "midi": 81,
          "name": "A5",
          "ticks": 4897,
          "time": 17.4892784270833,
          "velocity": 0.52755905511811
        },
        {
          "duration": 0.160714218749998,
          "durationTicks": 45,
          "midi": 76,
          "name": "E5",
          "ticks": 4944,
          "time": 17.6571355,
          "velocity": 0.52755905511811
        },
        {
          "duration": 0.171428500000001,
          "durationTicks": 48,
          "midi": 79,
          "name": "G5",
          "ticks": 4992,
          "time": 17.828564,
          "velocity": 0.535433070866142
        },
        {
          "duration": 0.0678571145833331,
          "durationTicks": 19,
          "midi": 79,
          "name": "G5",
          "ticks": 5043,
          "time": 18.01070678125,
          "velocity": 0.543307086614173
        },
        {
          "duration": 0.0714285416666627,
          "durationTicks": 20,
          "midi": 79,
          "name": "G5",
          "ticks": 5066,
          "time": 18.0928496041667,
          "velocity": 0.543307086614173
        },
        {
          "duration": 0.160714218750002,
          "durationTicks": 45,
          "midi": 79,
          "name": "G5",
          "ticks": 5090,
          "time": 18.1785638541667,
          "velocity": 0.543307086614173
        },
        {
          "duration": 0.160714218749998,
          "durationTicks": 45,
          "midi": 79,
          "name": "G5",
          "ticks": 5138,
          "time": 18.3499923541667,
          "velocity": 0.551181102362205
        },
        {
          "duration": 0.160714218749998,
          "durationTicks": 45,
          "midi": 78,
          "name": "F#5",
          "ticks": 5185,
          "time": 18.5178494270833,
          "velocity": 0.551181102362205
        },
        {
          "duration": 0.160714218749998,
          "durationTicks": 45,
          "midi": 79,
          "name": "G5",
          "ticks": 5233,
          "time": 18.6892779270833,
          "velocity": 0.559055118110236
        },
        {
          "duration": 0.157142791666669,
          "durationTicks": 44,
          "midi": 78,
          "name": "F#5",
          "ticks": 5281,
          "time": 18.8607064270833,
          "velocity": 0.559055118110236
        },
        {
          "duration": 0.160714218750002,
          "durationTicks": 45,
          "midi": 79,
          "name": "G5",
          "ticks": 5328,
          "time": 19.0285635,
          "velocity": 0.566929133858268
        },
        {
          "duration": 0.171428500000001,
          "durationTicks": 48,
          "midi": 78,
          "name": "F#5",
          "ticks": 5376,
          "time": 19.199992,
          "velocity": 0.574803149606299
        },
        {
          "duration": 0.157142791666665,
          "durationTicks": 44,
          "midi": 79,
          "name": "G5",
          "ticks": 5427,
          "time": 19.38213478125,
          "velocity": 0.582677165354331
        },
        {
          "duration": 0.160714218749998,
          "durationTicks": 45,
          "midi": 80,
          "name": "G#5",
          "ticks": 5474,
          "time": 19.5499918541667,
          "velocity": 0.582677165354331
        },
        {
          "duration": 0.160714218750002,
          "durationTicks": 45,
          "midi": 81,
          "name": "A5",
          "ticks": 5522,
          "time": 19.7214203541667,
          "velocity": 0.590551181102362
        },
        {
          "duration": 0.160714218750002,
          "durationTicks": 45,
          "midi": 81,
          "name": "A5",
          "ticks": 5569,
          "time": 19.8892774270833,
          "velocity": 0.598425196850394
        },
        {
          "duration": 0.160714218750002,
          "durationTicks": 45,
          "midi": 82,
          "name": "A#5",
          "ticks": 5617,
          "time": 20.0607059270833,
          "velocity": 0.606299212598425
        },
        {
          "duration": 0.157142791666669,
          "durationTicks": 44,
          "midi": 83,
          "name": "B5",
          "ticks": 5665,
          "time": 20.2321344270833,
          "velocity": 0.614173228346457
        },
        {
          "duration": 0.160714218749998,
          "durationTicks": 45,
          "midi": 84,
          "name": "C6",
          "ticks": 5712,
          "time": 20.3999915,
          "velocity": 0.62992125984252
        },
        {
          "duration": 0.171428500000001,
          "durationTicks": 48,
          "midi": 81,
          "name": "A5",
          "ticks": 5760,
          "time": 20.57142,
          "velocity": 0.62992125984252
        },
        {
          "duration": 0.0678571145833331,
          "durationTicks": 19,
          "midi": 81,
          "name": "A5",
          "ticks": 5811,
          "time": 20.75356278125,
          "velocity": 0.62992125984252
        },
        {
          "duration": 0.092857104166665,
          "durationTicks": 26,
          "midi": 81,
          "name": "A5",
          "ticks": 5834,
          "time": 20.8357056041667,
          "velocity": 0.637795275590551
        },
        {
          "duration": 0.160714218750002,
          "durationTicks": 45,
          "midi": 77,
          "name": "F5",
          "ticks": 5858,
          "time": 20.9214198541667,
          "velocity": 0.637795275590551
        },
        {
          "duration": 0.160714218749998,
          "durationTicks": 45,
          "midi": 77,
          "name": "F5",
          "ticks": 5906,
          "time": 21.0928483541667,
          "velocity": 0.637795275590551
        },
        {
          "duration": 0.160714218750002,
          "durationTicks": 45,
          "midi": 77,
          "name": "F5",
          "ticks": 5953,
          "time": 21.2607054270833,
          "velocity": 0.645669291338583
        },
        {
          "duration": 0.160714218749998,
          "durationTicks": 45,
          "midi": 89,
          "name": "F6",
          "ticks": 6001,
          "time": 21.4321339270833,
          "velocity": 0.661417322834646
        },
        {
          "duration": 0.160714218749998,
          "durationTicks": 45,
          "midi": 88,
          "name": "E6",
          "ticks": 6001,
          "time": 21.4321339270833,
          "velocity": 0.661417322834646
        },
        {
          "duration": 0.157142791666669,
          "durationTicks": 44,
          "midi": 89,
          "name": "F6",
          "ticks": 6049,
          "time": 21.6035624270833,
          "velocity": 0.669291338582677
        },
        {
          "duration": 0.157142791666669,
          "durationTicks": 44,
          "midi": 88,
          "name": "E6",
          "ticks": 6049,
          "time": 21.6035624270833,
          "velocity": 0.669291338582677
        },
        {
          "duration": 0.160714218750002,
          "durationTicks": 45,
          "midi": 62,
          "name": "D4",
          "ticks": 21361,
          "time": 76.2892539270833,
          "velocity": 0.582677165354331
        },
        {
          "duration": 0.160714218750002,
          "durationTicks": 45,
          "midi": 74,
          "name": "D5",
          "ticks": 21361,
          "time": 76.2892539270833,
          "velocity": 0.582677165354331
        },
        {
          "duration": 0.157142791666658,
          "durationTicks": 44,
          "midi": 64,
          "name": "E4",
          "ticks": 21409,
          "time": 76.4606824270833,
          "velocity": 0.574803149606299
        },
        {
          "duration": 0.157142791666658,
          "durationTicks": 44,
          "midi": 76,
          "name": "E5",
          "ticks": 21409,
          "time": 76.4606824270833,
          "velocity": 0.574803149606299
        },
        {
          "duration": 0.160714218750002,
          "durationTicks": 45,
          "midi": 65,
          "name": "F4",
          "ticks": 21456,
          "time": 76.6285395,
          "velocity": 0.559055118110236
        },
        {
          "duration": 0.160714218750002,
          "durationTicks": 45,
          "midi": 77,
          "name": "F5",
          "ticks": 21456,
          "time": 76.6285395,
          "velocity": 0.559055118110236
        },
        {
          "duration": 0.521428354166673,
          "durationTicks": 146,
          "midi": 69,
          "name": "A4",
          "ticks": 21504,
          "time": 76.799968,
          "velocity": 0.52755905511811
        },
        {
          "duration": 0.521428354166673,
          "durationTicks": 146,
          "midi": 74,
          "name": "D5",
          "ticks": 21504,
          "time": 76.799968,
          "velocity": 0.52755905511811
        },
        {
          "duration": 0.521428354166673,
          "durationTicks": 146,
          "midi": 77,
          "name": "F5",
          "ticks": 21504,
          "time": 76.799968,
          "velocity": 0.52755905511811
        },
        {
          "duration": 0.521428354166673,
          "durationTicks": 146,
          "midi": 81,
          "name": "A5",
          "ticks": 21504,
          "time": 76.799968,
          "velocity": 0.52755905511811
        },
        {
          "duration": 0.160714218750002,
          "durationTicks": 45,
          "midi": 81,
          "name": "A5",
          "ticks": 21650,
          "time": 77.3213963541667,
          "velocity": 0.511811023622047
        },
        {
          "duration": 0.160714218750002,
          "durationTicks": 45,
          "midi": 69,
          "name": "A4",
          "ticks": 21650,
          "time": 77.3213963541667,
          "velocity": 0.511811023622047
        },
        {
          "duration": 0.160714218749987,
          "durationTicks": 45,
          "midi": 77,
          "name": "F5",
          "ticks": 21697,
          "time": 77.4892534270833,
          "velocity": 0.503937007874016
        },
        {
          "duration": 0.160714218749987,
          "durationTicks": 45,
          "midi": 65,
          "name": "F4",
          "ticks": 21697,
          "time": 77.4892534270833,
          "velocity": 0.503937007874016
        },
        {
          "duration": 0.160714218750002,
          "durationTicks": 45,
          "midi": 81,
          "name": "A5",
          "ticks": 21745,
          "time": 77.6606819270833,
          "velocity": 0.503937007874016
        },
        {
          "duration": 0.160714218750002,
          "durationTicks": 45,
          "midi": 69,
          "name": "A4",
          "ticks": 21745,
          "time": 77.6606819270833,
          "velocity": 0.503937007874016
        },
        {
          "duration": 0.157142791666672,
          "durationTicks": 44,
          "midi": 77,
          "name": "F5",
          "ticks": 21793,
          "time": 77.8321104270833,
          "velocity": 0.496062992125984
        },
        {
          "duration": 0.157142791666672,
          "durationTicks": 44,
          "midi": 65,
          "name": "F4",
          "ticks": 21793,
          "time": 77.8321104270833,
          "velocity": 0.496062992125984
        },
        {
          "duration": 0.160714218749987,
          "durationTicks": 45,
          "midi": 64,
          "name": "E4",
          "ticks": 21840,
          "time": 77.9999675,
          "velocity": 0.496062992125984
        },
        {
          "duration": 0.160714218749987,
          "durationTicks": 45,
          "midi": 76,
          "name": "E5",
          "ticks": 21840,
          "time": 77.9999675,
          "velocity": 0.496062992125984
        },
        {
          "duration": 0.171428500000005,
          "durationTicks": 48,
          "midi": 62,
          "name": "D4",
          "ticks": 21888,
          "time": 78.171396,
          "velocity": 0.496062992125984
        },
        {
          "duration": 0.171428500000005,
          "durationTicks": 48,
          "midi": 74,
          "name": "D5",
          "ticks": 21888,
          "time": 78.171396,
          "velocity": 0.496062992125984
        },
        {
          "duration": 0.157142791666672,
          "durationTicks": 44,
          "midi": 86,
          "name": "D6",
          "ticks": 21939,
          "time": 78.35353878125,
          "velocity": 0.488188976377953
        },
        {
          "duration": 0.157142791666672,
          "durationTicks": 44,
          "midi": 74,
          "name": "D5",
          "ticks": 21939,
          "time": 78.35353878125,
          "velocity": 0.488188976377953
        },
        {
          "duration": 0.160714218750002,
          "durationTicks": 45,
          "midi": 77,
          "name": "F5",
          "ticks": 21986,
          "time": 78.5213958541667,
          "velocity": 0.488188976377953
        },
        {
          "duration": 0.160714218750002,
          "durationTicks": 45,
          "midi": 89,
          "name": "F6",
          "ticks": 21986,
          "time": 78.5213958541667,
          "velocity": 0.488188976377953
        },
        {
          "duration": 0.160714218750002,
          "durationTicks": 45,
          "midi": 93,
          "name": "A6",
          "ticks": 22034,
          "time": 78.6928243541667,
          "velocity": 0.488188976377953
        },
        {
          "duration": 0.160714218750002,
          "durationTicks": 45,
          "midi": 81,
          "name": "A5",
          "ticks": 22034,
          "time": 78.6928243541667,
          "velocity": 0.488188976377953
        },
        {
          "duration": 0.160714218750002,
          "durationTicks": 45,
          "midi": 86,
          "name": "D6",
          "ticks": 22081,
          "time": 78.8606814270833,
          "velocity": 0.488188976377953
        },
        {
          "duration": 0.160714218750002,
          "durationTicks": 45,
          "midi": 98,
          "name": "D7",
          "ticks": 22081,
          "time": 78.8606814270833,
          "velocity": 0.488188976377953
        },
        {
          "duration": 0.160714218750002,
          "durationTicks": 45,
          "midi": 74,
          "name": "D5",
          "ticks": 22129,
          "time": 79.0321099270833,
          "velocity": 0.488188976377953
        },
        {
          "duration": 0.160714218750002,
          "durationTicks": 45,
          "midi": 62,
          "name": "D4",
          "ticks": 22129,
          "time": 79.0321099270833,
          "velocity": 0.488188976377953
        },
        {
          "duration": 0.157142791666672,
          "durationTicks": 44,
          "midi": 65,
          "name": "F4",
          "ticks": 22177,
          "time": 79.2035384270833,
          "velocity": 0.488188976377953
        },
        {
          "duration": 0.157142791666672,
          "durationTicks": 44,
          "midi": 77,
          "name": "F5",
          "ticks": 22177,
          "time": 79.2035384270833,
          "velocity": 0.488188976377953
        },
        {
          "duration": 0.160714218750002,
          "durationTicks": 45,
          "midi": 69,
          "name": "A4",
          "ticks": 22224,
          "time": 79.3713955,
          "velocity": 0.488188976377953
        },
        {
          "duration": 0.160714218750002,
          "durationTicks": 45,
          "midi": 81,
          "name": "A5",
          "ticks": 22224,
          "time": 79.3713955,
          "velocity": 0.488188976377953
        },
        {
          "duration": 0.521428354166659,
          "durationTicks": 146,
          "midi": 74,
          "name": "D5",
          "ticks": 22272,
          "time": 79.542824,
          "velocity": 0.496062992125984
        },
        {
          "duration": 0.521428354166659,
          "durationTicks": 146,
          "midi": 77,
          "name": "F5",
          "ticks": 22272,
          "time": 79.542824,
          "velocity": 0.496062992125984
        },
        {
          "duration": 0.521428354166659,
          "durationTicks": 146,
          "midi": 82,
          "name": "A#5",
          "ticks": 22272,
          "time": 79.542824,
          "velocity": 0.496062992125984
        },
        {
          "duration": 0.521428354166659,
          "durationTicks": 146,
          "midi": 86,
          "name": "D6",
          "ticks": 22272,
          "time": 79.542824,
          "velocity": 0.496062992125984
        },
        {
          "duration": 0.160714218750002,
          "durationTicks": 45,
          "midi": 86,
          "name": "D6",
          "ticks": 22418,
          "time": 80.0642523541667,
          "velocity": 0.496062992125984
        },
        {
          "duration": 0.160714218750002,
          "durationTicks": 45,
          "midi": 74,
          "name": "D5",
          "ticks": 22418,
          "time": 80.0642523541667,
          "velocity": 0.496062992125984
        },
        {
          "duration": 0.160714218750002,
          "durationTicks": 45,
          "midi": 84,
          "name": "C6",
          "ticks": 22465,
          "time": 80.2321094270833,
          "velocity": 0.496062992125984
        },
        {
          "duration": 0.160714218750002,
          "durationTicks": 45,
          "midi": 72,
          "name": "C5",
          "ticks": 22465,
          "time": 80.2321094270833,
          "velocity": 0.496062992125984
        },
        {
          "duration": 0.160714218750002,
          "durationTicks": 45,
          "midi": 86,
          "name": "D6",
          "ticks": 22513,
          "time": 80.4035379270833,
          "velocity": 0.503937007874016
        },
        {
          "duration": 0.160714218750002,
          "durationTicks": 45,
          "midi": 74,
          "name": "D5",
          "ticks": 22513,
          "time": 80.4035379270833,
          "velocity": 0.503937007874016
        },
        {
          "duration": 0.157142791666672,
          "durationTicks": 44,
          "midi": 72,
          "name": "C5",
          "ticks": 22561,
          "time": 80.5749664270833,
          "velocity": 0.511811023622047
        },
        {
          "duration": 0.157142791666672,
          "durationTicks": 44,
          "midi": 84,
          "name": "C6",
          "ticks": 22561,
          "time": 80.5749664270833,
          "velocity": 0.511811023622047
        },
        {
          "duration": 0.160714218750002,
          "durationTicks": 45,
          "midi": 79,
          "name": "G5",
          "ticks": 22608,
          "time": 80.7428235,
          "velocity": 0.511811023622047
        },
        {
          "duration": 0.160714218750002,
          "durationTicks": 45,
          "midi": 67,
          "name": "G4",
          "ticks": 22608,
          "time": 80.7428235,
          "velocity": 0.511811023622047
        },
        {
          "duration": 0.171428500000005,
          "durationTicks": 48,
          "midi": 69,
          "name": "A4",
          "ticks": 22656,
          "time": 80.914252,
          "velocity": 0.519685039370079
        },
        {
          "duration": 0.171428500000005,
          "durationTicks": 48,
          "midi": 73,
          "name": "C#5",
          "ticks": 22656,
          "time": 80.914252,
          "velocity": 0.519685039370079
        },
        {
          "duration": 0.171428500000005,
          "durationTicks": 48,
          "midi": 76,
          "name": "E5",
          "ticks": 22656,
          "time": 80.914252,
          "velocity": 0.519685039370079
        },
        {
          "duration": 0.171428500000005,
          "durationTicks": 48,
          "midi": 81,
          "name": "A5",
          "ticks": 22656,
          "time": 80.914252,
          "velocity": 0.519685039370079
        },
        {
          "duration": 0.0749999687499923,
          "durationTicks": 21,
          "midi": 85,
          "name": "C#6",
          "ticks": 22707,
          "time": 81.09639478125,
          "velocity": 0.52755905511811
        },
        {
          "duration": 0.0821428229166514,
          "durationTicks": 23,
          "midi": 82,
          "name": "A#5",
          "ticks": 22730,
          "time": 81.1785376041667,
          "velocity": 0.52755905511811
        },
        {
          "duration": 0.0821428229166656,
          "durationTicks": 23,
          "midi": 81,
          "name": "A5",
          "ticks": 22754,
          "time": 81.2642518541667,
          "velocity": 0.52755905511811
        },
        {
          "duration": 0.0749999687499923,
          "durationTicks": 21,
          "midi": 82,
          "name": "A#5",
          "ticks": 22779,
          "time": 81.35353753125,
          "velocity": 0.535433070866142
        },
        {
          "duration": 0.0749999687499923,
          "durationTicks": 21,
          "midi": 81,
          "name": "A5",
          "ticks": 22802,
          "time": 81.4356803541667,
          "velocity": 0.535433070866142
        },
        {
          "duration": 0.0821428229166799,
          "durationTicks": 23,
          "midi": 79,
          "name": "G5",
          "ticks": 22825,
          "time": 81.5178231770833,
          "velocity": 0.535433070866142
        },
        {
          "duration": 0.342856999999995,
          "durationTicks": 96,
          "midi": 81,
          "name": "A5",
          "ticks": 22849,
          "time": 81.6035374270833,
          "velocity": 0.543307086614173
        },
        {
          "duration": 0.335714145833336,
          "durationTicks": 94,
          "midi": 76,
          "name": "E5",
          "ticks": 22945,
          "time": 81.9463944270833,
          "velocity": 0.559055118110236
        },
        {
          "duration": 0.335714145833336,
          "durationTicks": 94,
          "midi": 69,
          "name": "A4",
          "ticks": 22945,
          "time": 81.9463944270833,
          "velocity": 0.559055118110236
        },
        {
          "duration": 0.521428354166673,
          "durationTicks": 146,
          "midi": 69,
          "name": "A4",
          "ticks": 23040,
          "time": 82.28568,
          "velocity": 0.590551181102362
        },
        {
          "duration": 0.521428354166673,
          "durationTicks": 146,
          "midi": 74,
          "name": "D5",
          "ticks": 23040,
          "time": 82.28568,
          "velocity": 0.590551181102362
        },
        {
          "duration": 0.521428354166673,
          "durationTicks": 146,
          "midi": 77,
          "name": "F5",
          "ticks": 23040,
          "time": 82.28568,
          "velocity": 0.590551181102362
        },
        {
          "duration": 0.160714218750002,
          "durationTicks": 45,
          "midi": 77,
          "name": "F5",
          "ticks": 23186,
          "time": 82.8071083541667,
          "velocity": 0.614173228346457
        },
        {
          "duration": 0.160714218750002,
          "durationTicks": 45,
          "midi": 76,
          "name": "E5",
          "ticks": 23233,
          "time": 82.9749654270833,
          "velocity": 0.622047244094488
        },
        {
          "duration": 0.160714218750002,
          "durationTicks": 45,
          "midi": 72,
          "name": "C5",
          "ticks": 23233,
          "time": 82.9749654270833,
          "velocity": 0.622047244094488
        },
        {
          "duration": 0.160714218750002,
          "durationTicks": 45,
          "midi": 67,
          "name": "G4",
          "ticks": 23233,
          "time": 82.9749654270833,
          "velocity": 0.622047244094488
        },
        {
          "duration": 0.160714218750002,
          "durationTicks": 45,
          "midi": 77,
          "name": "F5",
          "ticks": 23281,
          "time": 83.1463939270833,
          "velocity": 0.62992125984252
        },
        {
          "duration": 0.157142791666658,
          "durationTicks": 44,
          "midi": 81,
          "name": "A5",
          "ticks": 23329,
          "time": 83.3178224270833,
          "velocity": 0.637795275590551
        },
        {
          "duration": 0.160714218750002,
          "durationTicks": 45,
          "midi": 74,
          "name": "D5",
          "ticks": 23376,
          "time": 83.4856795,
          "velocity": 0.653543307086614
        },
        {
          "duration": 0.0678571145833331,
          "durationTicks": 19,
          "midi": 79,
          "name": "G5",
          "ticks": 23475,
          "time": 83.83925078125,
          "velocity": 0.661417322834646
        },
        {
          "duration": 0.0678571145833331,
          "durationTicks": 19,
          "midi": 74,
          "name": "D5",
          "ticks": 23475,
          "time": 83.83925078125,
          "velocity": 0.661417322834646
        },
        {
          "duration": 0.0678571145833331,
          "durationTicks": 19,
          "midi": 71,
          "name": "B4",
          "ticks": 23475,
          "time": 83.83925078125,
          "velocity": 0.661417322834646
        },
        {
          "duration": 0.0678571145833331,
          "durationTicks": 19,
          "midi": 67,
          "name": "G4",
          "ticks": 23475,
          "time": 83.83925078125,
          "velocity": 0.661417322834646
        },
        {
          "duration": 0.0714285416666485,
          "durationTicks": 20,
          "midi": 79,
          "name": "G5",
          "ticks": 23498,
          "time": 83.9213936041667,
          "velocity": 0.669291338582677
        },
        {
          "duration": 0.0714285416666485,
          "durationTicks": 20,
          "midi": 74,
          "name": "D5",
          "ticks": 23498,
          "time": 83.9213936041667,
          "velocity": 0.669291338582677
        },
        {
          "duration": 0.0714285416666485,
          "durationTicks": 20,
          "midi": 71,
          "name": "B4",
          "ticks": 23498,
          "time": 83.9213936041667,
          "velocity": 0.669291338582677
        },
        {
          "duration": 0.0714285416666485,
          "durationTicks": 20,
          "midi": 67,
          "name": "G4",
          "ticks": 23498,
          "time": 83.9213936041667,
          "velocity": 0.669291338582677
        },
        {
          "duration": 0.160714218750002,
          "durationTicks": 45,
          "midi": 67,
          "name": "G4",
          "ticks": 23522,
          "time": 84.0071078541667,
          "velocity": 0.669291338582677
        },
        {
          "duration": 0.160714218750002,
          "durationTicks": 45,
          "midi": 71,
          "name": "B4",
          "ticks": 23522,
          "time": 84.0071078541667,
          "velocity": 0.669291338582677
        },
        {
          "duration": 0.160714218750002,
          "durationTicks": 45,
          "midi": 74,
          "name": "D5",
          "ticks": 23522,
          "time": 84.0071078541667,
          "velocity": 0.669291338582677
        },
        {
          "duration": 0.160714218750002,
          "durationTicks": 45,
          "midi": 79,
          "name": "G5",
          "ticks": 23522,
          "time": 84.0071078541667,
          "velocity": 0.669291338582677
        },
        {
          "duration": 0.160714218749987,
          "durationTicks": 45,
          "midi": 67,
          "name": "G4",
          "ticks": 23570,
          "time": 84.1785363541667,
          "velocity": 0.677165354330709
        },
        {
          "duration": 0.160714218749987,
          "durationTicks": 45,
          "midi": 71,
          "name": "B4",
          "ticks": 23570,
          "time": 84.1785363541667,
          "velocity": 0.677165354330709
        },
        {
          "duration": 0.160714218749987,
          "durationTicks": 45,
          "midi": 74,
          "name": "D5",
          "ticks": 23570,
          "time": 84.1785363541667,
          "velocity": 0.677165354330709
        },
        {
          "duration": 0.160714218749987,
          "durationTicks": 45,
          "midi": 79,
          "name": "G5",
          "ticks": 23570,
          "time": 84.1785363541667,
          "velocity": 0.677165354330709
        },
        {
          "duration": 0.160714218749987,
          "durationTicks": 45,
          "midi": 79,
          "name": "G5",
          "ticks": 23617,
          "time": 84.3463934270833,
          "velocity": 0.68503937007874
        },
        {
          "duration": 0.160714218749987,
          "durationTicks": 45,
          "midi": 71,
          "name": "B4",
          "ticks": 23617,
          "time": 84.3463934270833,
          "velocity": 0.68503937007874
        },
        {
          "duration": 0.160714218750002,
          "durationTicks": 45,
          "midi": 81,
          "name": "A5",
          "ticks": 23665,
          "time": 84.5178219270833,
          "velocity": 0.68503937007874
        },
        {
          "duration": 0.157142791666672,
          "durationTicks": 44,
          "midi": 79,
          "name": "G5",
          "ticks": 23713,
          "time": 84.6892504270833,
          "velocity": 0.68503937007874
        },
        {
          "duration": 0.157142791666672,
          "durationTicks": 44,
          "midi": 71,
          "name": "B4",
          "ticks": 23713,
          "time": 84.6892504270833,
          "velocity": 0.68503937007874
        },
        {
          "duration": 0.160714218749987,
          "durationTicks": 45,
          "midi": 74,
          "name": "D5",
          "ticks": 23760,
          "time": 84.8571075,
          "velocity": 0.68503937007874
        },
        {
          "duration": 0.171428500000005,
          "durationTicks": 48,
          "midi": 70,
          "name": "A#4",
          "ticks": 23808,
          "time": 85.028536,
          "velocity": 0.68503937007874
        },
        {
          "duration": 0.171428500000005,
          "durationTicks": 48,
          "midi": 77,
          "name": "F5",
          "ticks": 23808,
          "time": 85.028536,
          "velocity": 0.68503937007874
        },
        {
          "duration": 0.157142791666672,
          "durationTicks": 44,
          "midi": 74,
          "name": "D5",
          "ticks": 23859,
          "time": 85.21067878125,
          "velocity": 0.68503937007874
        },
        {
          "duration": 0.160714218750002,
          "durationTicks": 45,
          "midi": 70,
          "name": "A#4",
          "ticks": 23906,
          "time": 85.3785358541667,
          "velocity": 0.68503937007874
        },
        {
          "duration": 0.160714218750002,
          "durationTicks": 45,
          "midi": 77,
          "name": "F5",
          "ticks": 23954,
          "time": 85.5499643541667,
          "velocity": 0.68503937007874
        },
        {
          "duration": 0.160714218750002,
          "durationTicks": 45,
          "midi": 67,
          "name": "G4",
          "ticks": 24001,
          "time": 85.7178214270833,
          "velocity": 0.68503937007874
        },
        {
          "duration": 0.160714218750002,
          "durationTicks": 45,
          "midi": 76,
          "name": "E5",
          "ticks": 24001,
          "time": 85.7178214270833,
          "velocity": 0.68503937007874
        },
        {
          "duration": 0.160714218750002,
          "durationTicks": 45,
          "midi": 72,
          "name": "C5",
          "ticks": 24049,
          "time": 85.8892499270833,
          "velocity": 0.677165354330709
        },
        {
          "duration": 0.157142791666672,
          "durationTicks": 44,
          "midi": 67,
          "name": "G4",
          "ticks": 24097,
          "time": 86.0606784270833,
          "velocity": 0.677165354330709
        },
        {
          "duration": 0.160714218750002,
          "durationTicks": 45,
          "midi": 76,
          "name": "E5",
          "ticks": 24144,
          "time": 86.2285355,
          "velocity": 0.669291338582677
        },
        {
          "duration": 0.349999854166668,
          "durationTicks": 98,
          "midi": 74,
          "name": "D5",
          "ticks": 24192,
          "time": 86.399964,
          "velocity": 0.661417322834646
        },
        {
          "duration": 0.349999854166668,
          "durationTicks": 98,
          "midi": 69,
          "name": "A4",
          "ticks": 24192,
          "time": 86.399964,
          "velocity": 0.661417322834646
        },
        {
          "duration": 0.349999854166668,
          "durationTicks": 98,
          "midi": 66,
          "name": "F#4",
          "ticks": 24192,
          "time": 86.399964,
          "velocity": 0.661417322834646
        },
        {
          "duration": 0.339285572916651,
          "durationTicks": 95,
          "midi": 76,
          "name": "E5",
          "ticks": 24290,
          "time": 86.7499638541667,
          "velocity": 0.645669291338583
        },
        {
          "duration": 0.339285572916651,
          "durationTicks": 95,
          "midi": 69,
          "name": "A4",
          "ticks": 24290,
          "time": 86.7499638541667,
          "velocity": 0.645669291338583
        },
        {
          "duration": 0.339285572916651,
          "durationTicks": 95,
          "midi": 66,
          "name": "F#4",
          "ticks": 24290,
          "time": 86.7499638541667,
          "velocity": 0.645669291338583
        },
        {
          "duration": 0.160714218750002,
          "durationTicks": 45,
          "midi": 69,
          "name": "A4",
          "ticks": 24385,
          "time": 87.0892494270833,
          "velocity": 0.645669291338583
        },
        {
          "duration": 0.160714218750002,
          "durationTicks": 45,
          "midi": 74,
          "name": "D5",
          "ticks": 24385,
          "time": 87.0892494270833,
          "velocity": 0.645669291338583
        },
        {
          "duration": 0.160714218750002,
          "durationTicks": 45,
          "midi": 78,
          "name": "F#5",
          "ticks": 24385,
          "time": 87.0892494270833,
          "velocity": 0.645669291338583
        },
        {
          "duration": 0.160714218750002,
          "durationTicks": 45,
          "midi": 62,
          "name": "D4",
          "ticks": 24433,
          "time": 87.2606779270833,
          "velocity": 0.637795275590551
        },
        {
          "duration": 0.160714218750002,
          "durationTicks": 45,
          "midi": 74,
          "name": "D5",
          "ticks": 24433,
          "time": 87.2606779270833,
          "velocity": 0.637795275590551
        },
        {
          "duration": 0.157142791666672,
          "durationTicks": 44,
          "midi": 76,
          "name": "E5",
          "ticks": 24481,
          "time": 87.4321064270833,
          "velocity": 0.62992125984252
        },
        {
          "duration": 0.157142791666672,
          "durationTicks": 44,
          "midi": 64,
          "name": "E4",
          "ticks": 24481,
          "time": 87.4321064270833,
          "velocity": 0.62992125984252
        },
        {
          "duration": 0.160714218750002,
          "durationTicks": 45,
          "midi": 65,
          "name": "F4",
          "ticks": 24528,
          "time": 87.5999635,
          "velocity": 0.62992125984252
        },
        {
          "duration": 0.160714218750002,
          "durationTicks": 45,
          "midi": 77,
          "name": "F5",
          "ticks": 24528,
          "time": 87.5999635,
          "velocity": 0.62992125984252
        },
        {
          "duration": 0.521428354166659,
          "durationTicks": 146,
          "midi": 81,
          "name": "A5",
          "ticks": 24576,
          "time": 87.771392,
          "velocity": 0.614173228346457
        },
        {
          "duration": 0.521428354166659,
          "durationTicks": 146,
          "midi": 77,
          "name": "F5",
          "ticks": 24576,
          "time": 87.771392,
          "velocity": 0.614173228346457
        },
        {
          "duration": 0.521428354166659,
          "durationTicks": 146,
          "midi": 74,
          "name": "D5",
          "ticks": 24576,
          "time": 87.771392,
          "velocity": 0.614173228346457
        },
        {
          "duration": 0.521428354166659,
          "durationTicks": 146,
          "midi": 69,
          "name": "A4",
          "ticks": 24576,
          "time": 87.771392,
          "velocity": 0.614173228346457
        },
        {
          "duration": 0.160714218750002,
          "durationTicks": 45,
          "midi": 69,
          "name": "A4",
          "ticks": 24722,
          "time": 88.2928203541667,
          "velocity": 0.598425196850394
        },
        {
          "duration": 0.160714218750002,
          "durationTicks": 45,
          "midi": 81,
          "name": "A5",
          "ticks": 24722,
          "time": 88.2928203541667,
          "velocity": 0.598425196850394
        },
        {
          "duration": 0.160714218750002,
          "durationTicks": 45,
          "midi": 77,
          "name": "F5",
          "ticks": 24769,
          "time": 88.4606774270833,
          "velocity": 0.598425196850394
        },
        {
          "duration": 0.160714218750002,
          "durationTicks": 45,
          "midi": 65,
          "name": "F4",
          "ticks": 24769,
          "time": 88.4606774270833,
          "velocity": 0.598425196850394
        },
        {
          "duration": 0.160714218750002,
          "durationTicks": 45,
          "midi": 81,
          "name": "A5",
          "ticks": 24817,
          "time": 88.6321059270833,
          "velocity": 0.598425196850394
        },
        {
          "duration": 0.160714218750002,
          "durationTicks": 45,
          "midi": 69,
          "name": "A4",
          "ticks": 24817,
          "time": 88.6321059270833,
          "velocity": 0.598425196850394
        },
        {
          "duration": 0.157142791666658,
          "durationTicks": 44,
          "midi": 65,
          "name": "F4",
          "ticks": 24865,
          "time": 88.8035344270834,
          "velocity": 0.590551181102362
        },
        {
          "duration": 0.157142791666658,
          "durationTicks": 44,
          "midi": 77,
          "name": "F5",
          "ticks": 24865,
          "time": 88.8035344270834,
          "velocity": 0.590551181102362
        },
        {
          "duration": 0.160714218750002,
          "durationTicks": 45,
          "midi": 64,
          "name": "E4",
          "ticks": 24912,
          "time": 88.9713915,
          "velocity": 0.590551181102362
        },
        {
          "duration": 0.160714218750002,
          "durationTicks": 45,
          "midi": 76,
          "name": "E5",
          "ticks": 24912,
          "time": 88.9713915,
          "velocity": 0.590551181102362
        },
        {
          "duration": 0.171428500000005,
          "durationTicks": 48,
          "midi": 74,
          "name": "D5",
          "ticks": 24960,
          "time": 89.14282,
          "velocity": 0.590551181102362
        },
        {
          "duration": 0.171428500000005,
          "durationTicks": 48,
          "midi": 62,
          "name": "D4",
          "ticks": 24960,
          "time": 89.14282,
          "velocity": 0.590551181102362
        },
        {
          "duration": 0.157142791666658,
          "durationTicks": 44,
          "midi": 86,
          "name": "D6",
          "ticks": 25011,
          "time": 89.32496278125,
          "velocity": 0.590551181102362
        },
        {
          "duration": 0.157142791666658,
          "durationTicks": 44,
          "midi": 74,
          "name": "D5",
          "ticks": 25011,
          "time": 89.32496278125,
          "velocity": 0.590551181102362
        },
        {
          "duration": 0.160714218750002,
          "durationTicks": 45,
          "midi": 77,
          "name": "F5",
          "ticks": 25058,
          "time": 89.4928198541667,
          "velocity": 0.590551181102362
        },
        {
          "duration": 0.160714218750002,
          "durationTicks": 45,
          "midi": 89,
          "name": "F6",
          "ticks": 25058,
          "time": 89.4928198541667,
          "velocity": 0.590551181102362
        },
        {
          "duration": 0.160714218750002,
          "durationTicks": 45,
          "midi": 81,
          "name": "A5",
          "ticks": 25106,
          "time": 89.6642483541667,
          "velocity": 0.590551181102362
        },
        {
          "duration": 0.160714218750002,
          "durationTicks": 45,
          "midi": 93,
          "name": "A6",
          "ticks": 25106,
          "time": 89.6642483541667,
          "velocity": 0.590551181102362
        },
        {
          "duration": 0.160714218750002,
          "durationTicks": 45,
          "midi": 98,
          "name": "D7",
          "ticks": 25153,
          "time": 89.8321054270834,
          "velocity": 0.582677165354331
        },
        {
          "duration": 0.160714218750002,
          "durationTicks": 45,
          "midi": 86,
          "name": "D6",
          "ticks": 25153,
          "time": 89.8321054270834,
          "velocity": 0.582677165354331
        },
        {
          "duration": 0.160714218750002,
          "durationTicks": 45,
          "midi": 74,
          "name": "D5",
          "ticks": 25201,
          "time": 90.0035339270833,
          "velocity": 0.574803149606299
        },
        {
          "duration": 0.160714218750002,
          "durationTicks": 45,
          "midi": 62,
          "name": "D4",
          "ticks": 25201,
          "time": 90.0035339270833,
          "velocity": 0.574803149606299
        },
        {
          "duration": 0.157142791666658,
          "durationTicks": 44,
          "midi": 77,
          "name": "F5",
          "ticks": 25249,
          "time": 90.1749624270833,
          "velocity": 0.574803149606299
        },
        {
          "duration": 0.157142791666658,
          "durationTicks": 44,
          "midi": 65,
          "name": "F4",
          "ticks": 25249,
          "time": 90.1749624270833,
          "velocity": 0.574803149606299
        },
        {
          "duration": 0.160714218750002,
          "durationTicks": 45,
          "midi": 81,
          "name": "A5",
          "ticks": 25296,
          "time": 90.3428195,
          "velocity": 0.574803149606299
        },
        {
          "duration": 0.160714218750002,
          "durationTicks": 45,
          "midi": 69,
          "name": "A4",
          "ticks": 25296,
          "time": 90.3428195,
          "velocity": 0.574803149606299
        },
        {
          "duration": 0.521428354166659,
          "durationTicks": 146,
          "midi": 86,
          "name": "D6",
          "ticks": 25344,
          "time": 90.514248,
          "velocity": 0.566929133858268
        },
        {
          "duration": 0.521428354166659,
          "durationTicks": 146,
          "midi": 82,
          "name": "A#5",
          "ticks": 25344,
          "time": 90.514248,
          "velocity": 0.566929133858268
        },
        {
          "duration": 0.521428354166659,
          "durationTicks": 146,
          "midi": 77,
          "name": "F5",
          "ticks": 25344,
          "time": 90.514248,
          "velocity": 0.566929133858268
        },
        {
          "duration": 0.521428354166659,
          "durationTicks": 146,
          "midi": 74,
          "name": "D5",
          "ticks": 25344,
          "time": 90.514248,
          "velocity": 0.566929133858268
        },
        {
          "duration": 0.160714218750002,
          "durationTicks": 45,
          "midi": 86,
          "name": "D6",
          "ticks": 25490,
          "time": 91.0356763541667,
          "velocity": 0.559055118110236
        },
        {
          "duration": 0.160714218750002,
          "durationTicks": 45,
          "midi": 74,
          "name": "D5",
          "ticks": 25490,
          "time": 91.0356763541667,
          "velocity": 0.559055118110236
        },
        {
          "duration": 0.160714218750002,
          "durationTicks": 45,
          "midi": 72,
          "name": "C5",
          "ticks": 25537,
          "time": 91.2035334270833,
          "velocity": 0.559055118110236
        },
        {
          "duration": 0.160714218750002,
          "durationTicks": 45,
          "midi": 84,
          "name": "C6",
          "ticks": 25537,
          "time": 91.2035334270833,
          "velocity": 0.559055118110236
        },
        {
          "duration": 0.160714218750002,
          "durationTicks": 45,
          "midi": 74,
          "name": "D5",
          "ticks": 25585,
          "time": 91.3749619270834,
          "velocity": 0.559055118110236
        },
        {
          "duration": 0.160714218750002,
          "durationTicks": 45,
          "midi": 86,
          "name": "D6",
          "ticks": 25585,
          "time": 91.3749619270834,
          "velocity": 0.559055118110236
        },
        {
          "duration": 0.157142791666658,
          "durationTicks": 44,
          "midi": 84,
          "name": "C6",
          "ticks": 25633,
          "time": 91.5463904270834,
          "velocity": 0.551181102362205
        },
        {
          "duration": 0.157142791666658,
          "durationTicks": 44,
          "midi": 72,
          "name": "C5",
          "ticks": 25633,
          "time": 91.5463904270834,
          "velocity": 0.551181102362205
        },
        {
          "duration": 0.160714218750002,
          "durationTicks": 45,
          "midi": 67,
          "name": "G4",
          "ticks": 25680,
          "time": 91.7142475,
          "velocity": 0.551181102362205
        },
        {
          "duration": 0.160714218750002,
          "durationTicks": 45,
          "midi": 79,
          "name": "G5",
          "ticks": 25680,
          "time": 91.7142475,
          "velocity": 0.551181102362205
        },
        {
          "duration": 0.171428500000005,
          "durationTicks": 48,
          "midi": 69,
          "name": "A4",
          "ticks": 25728,
          "time": 91.885676,
          "velocity": 0.551181102362205
        },
        {
          "duration": 0.171428500000005,
          "durationTicks": 48,
          "midi": 73,
          "name": "C#5",
          "ticks": 25728,
          "time": 91.885676,
          "velocity": 0.551181102362205
        },
        {
          "duration": 0.171428500000005,
          "durationTicks": 48,
          "midi": 76,
          "name": "E5",
          "ticks": 25728,
          "time": 91.885676,
          "velocity": 0.551181102362205
        },
        {
          "duration": 0.171428500000005,
          "durationTicks": 48,
          "midi": 81,
          "name": "A5",
          "ticks": 25728,
          "time": 91.885676,
          "velocity": 0.551181102362205
        },
        {
          "duration": 0.0749999687499923,
          "durationTicks": 21,
          "midi": 85,
          "name": "C#6",
          "ticks": 25779,
          "time": 92.06781878125,
          "velocity": 0.551181102362205
        },
        {
          "duration": 0.0821428229166799,
          "durationTicks": 23,
          "midi": 82,
          "name": "A#5",
          "ticks": 25802,
          "time": 92.1499616041667,
          "velocity": 0.551181102362205
        },
        {
          "duration": 0.0821428229166799,
          "durationTicks": 23,
          "midi": 81,
          "name": "A5",
          "ticks": 25826,
          "time": 92.2356758541667,
          "velocity": 0.551181102362205
        },
        {
          "duration": 0.0749999687499923,
          "durationTicks": 21,
          "midi": 82,
          "name": "A#5",
          "ticks": 25851,
          "time": 92.32496153125,
          "velocity": 0.551181102362205
        },
        {
          "duration": 0.0749999687500065,
          "durationTicks": 21,
          "midi": 81,
          "name": "A5",
          "ticks": 25874,
          "time": 92.4071043541667,
          "velocity": 0.551181102362205
        },
        {
          "duration": 0.0821428229166656,
          "durationTicks": 23,
          "midi": 79,
          "name": "G5",
          "ticks": 25897,
          "time": 92.4892471770833,
          "velocity": 0.551181102362205
        },
        {
          "duration": 0.342856999999995,
          "durationTicks": 96,
          "midi": 81,
          "name": "A5",
          "ticks": 25921,
          "time": 92.5749614270834,
          "velocity": 0.551181102362205
        },
        {
          "duration": 0.335714145833322,
          "durationTicks": 94,
          "midi": 76,
          "name": "E5",
          "ticks": 26017,
          "time": 92.9178184270834,
          "velocity": 0.551181102362205
        },
        {
          "duration": 0.335714145833322,
          "durationTicks": 94,
          "midi": 69,
          "name": "A4",
          "ticks": 26017,
          "time": 92.9178184270834,
          "velocity": 0.551181102362205
        },
        {
          "duration": 0.521428354166659,
          "durationTicks": 146,
          "midi": 69,
          "name": "A4",
          "ticks": 26112,
          "time": 93.257104,
          "velocity": 0.543307086614173
        },
        {
          "duration": 0.521428354166659,
          "durationTicks": 146,
          "midi": 74,
          "name": "D5",
          "ticks": 26112,
          "time": 93.257104,
          "velocity": 0.543307086614173
        },
        {
          "duration": 0.521428354166659,
          "durationTicks": 146,
          "midi": 77,
          "name": "F5",
          "ticks": 26112,
          "time": 93.257104,
          "velocity": 0.543307086614173
        },
        {
          "duration": 0.160714218750002,
          "durationTicks": 45,
          "midi": 77,
          "name": "F5",
          "ticks": 26258,
          "time": 93.7785323541667,
          "velocity": 0.543307086614173
        },
        {
          "duration": 0.160714218750002,
          "durationTicks": 45,
          "midi": 76,
          "name": "E5",
          "ticks": 26305,
          "time": 93.9463894270834,
          "velocity": 0.543307086614173
        },
        {
          "duration": 0.160714218750002,
          "durationTicks": 45,
          "midi": 72,
          "name": "C5",
          "ticks": 26305,
          "time": 93.9463894270834,
          "velocity": 0.543307086614173
        },
        {
          "duration": 0.160714218750002,
          "durationTicks": 45,
          "midi": 67,
          "name": "G4",
          "ticks": 26305,
          "time": 93.9463894270834,
          "velocity": 0.543307086614173
        },
        {
          "duration": 0.160714218750002,
          "durationTicks": 45,
          "midi": 77,
          "name": "F5",
          "ticks": 26353,
          "time": 94.1178179270834,
          "velocity": 0.543307086614173
        },
        {
          "duration": 0.157142791666658,
          "durationTicks": 44,
          "midi": 81,
          "name": "A5",
          "ticks": 26401,
          "time": 94.2892464270833,
          "velocity": 0.551181102362205
        },
        {
          "duration": 0.160714218750002,
          "durationTicks": 45,
          "midi": 74,
          "name": "D5",
          "ticks": 26448,
          "time": 94.4571035,
          "velocity": 0.551181102362205
        },
        {
          "duration": 0.171428500000005,
          "durationTicks": 48,
          "midi": 71,
          "name": "B4",
          "ticks": 26496,
          "time": 94.628532,
          "velocity": 0.551181102362205
        },
        {
          "duration": 0.171428500000005,
          "durationTicks": 48,
          "midi": 74,
          "name": "D5",
          "ticks": 26496,
          "time": 94.628532,
          "velocity": 0.551181102362205
        },
        {
          "duration": 0.171428500000005,
          "durationTicks": 48,
          "midi": 79,
          "name": "G5",
          "ticks": 26496,
          "time": 94.628532,
          "velocity": 0.551181102362205
        },
        {
          "duration": 0.157142791666672,
          "durationTicks": 44,
          "midi": 71,
          "name": "B4",
          "ticks": 26547,
          "time": 94.81067478125,
          "velocity": 0.559055118110236
        },
        {
          "duration": 0.157142791666672,
          "durationTicks": 44,
          "midi": 74,
          "name": "D5",
          "ticks": 26547,
          "time": 94.81067478125,
          "velocity": 0.559055118110236
        },
        {
          "duration": 0.157142791666672,
          "durationTicks": 44,
          "midi": 79,
          "name": "G5",
          "ticks": 26547,
          "time": 94.81067478125,
          "velocity": 0.559055118110236
        },
        {
          "duration": 0.160714218750002,
          "durationTicks": 45,
          "midi": 79,
          "name": "G5",
          "ticks": 26594,
          "time": 94.9785318541667,
          "velocity": 0.559055118110236
        },
        {
          "duration": 0.160714218750002,
          "durationTicks": 45,
          "midi": 74,
          "name": "D5",
          "ticks": 26594,
          "time": 94.9785318541667,
          "velocity": 0.559055118110236
        },
        {
          "duration": 0.160714218750002,
          "durationTicks": 45,
          "midi": 71,
          "name": "B4",
          "ticks": 26594,
          "time": 94.9785318541667,
          "velocity": 0.559055118110236
        },
        {
          "duration": 0.160714218750002,
          "durationTicks": 45,
          "midi": 79,
          "name": "G5",
          "ticks": 26642,
          "time": 95.1499603541667,
          "velocity": 0.566929133858268
        },
        {
          "duration": 0.160714218750002,
          "durationTicks": 45,
          "midi": 74,
          "name": "D5",
          "ticks": 26642,
          "time": 95.1499603541667,
          "velocity": 0.566929133858268
        },
        {
          "duration": 0.160714218750002,
          "durationTicks": 45,
          "midi": 71,
          "name": "B4",
          "ticks": 26642,
          "time": 95.1499603541667,
          "velocity": 0.566929133858268
        },
        {
          "duration": 0.160714218750002,
          "durationTicks": 45,
          "midi": 78,
          "name": "F#5",
          "ticks": 26689,
          "time": 95.3178174270833,
          "velocity": 0.574803149606299
        },
        {
          "duration": 0.160714218750002,
          "durationTicks": 45,
          "midi": 71,
          "name": "B4",
          "ticks": 26689,
          "time": 95.3178174270833,
          "velocity": 0.574803149606299
        },
        {
          "duration": 0.160714218750002,
          "durationTicks": 45,
          "midi": 79,
          "name": "G5",
          "ticks": 26737,
          "time": 95.4892459270834,
          "velocity": 0.582677165354331
        },
        {
          "duration": 0.157142791666658,
          "durationTicks": 44,
          "midi": 78,
          "name": "F#5",
          "ticks": 26785,
          "time": 95.6606744270834,
          "velocity": 0.590551181102362
        },
        {
          "duration": 0.157142791666658,
          "durationTicks": 44,
          "midi": 71,
          "name": "B4",
          "ticks": 26785,
          "time": 95.6606744270834,
          "velocity": 0.590551181102362
        },
        {
          "duration": 0.160714218750002,
          "durationTicks": 45,
          "midi": 79,
          "name": "G5",
          "ticks": 26832,
          "time": 95.8285315,
          "velocity": 0.606299212598425
        },
        {
          "duration": 0.171428500000005,
          "durationTicks": 48,
          "midi": 78,
          "name": "F#5",
          "ticks": 26880,
          "time": 95.99996,
          "velocity": 0.614173228346457
        },
        {
          "duration": 0.171428500000005,
          "durationTicks": 48,
          "midi": 70,
          "name": "A#4",
          "ticks": 26880,
          "time": 95.99996,
          "velocity": 0.614173228346457
        },
        {
          "duration": 0.157142791666658,
          "durationTicks": 44,
          "midi": 79,
          "name": "G5",
          "ticks": 26931,
          "time": 96.18210278125,
          "velocity": 0.62992125984252
        },
        {
          "duration": 0.160714218750002,
          "durationTicks": 45,
          "midi": 80,
          "name": "G#5",
          "ticks": 26978,
          "time": 96.3499598541667,
          "velocity": 0.645669291338583
        },
        {
          "duration": 0.160714218750002,
          "durationTicks": 45,
          "midi": 81,
          "name": "A5",
          "ticks": 27026,
          "time": 96.5213883541667,
          "velocity": 0.653543307086614
        },
        {
          "duration": 0.160714218750002,
          "durationTicks": 45,
          "midi": 72,
          "name": "C5",
          "ticks": 27073,
          "time": 96.6892454270834,
          "velocity": 0.669291338582677
        },
        {
          "duration": 0.160714218750002,
          "durationTicks": 45,
          "midi": 81,
          "name": "A5",
          "ticks": 27073,
          "time": 96.6892454270834,
          "velocity": 0.669291338582677
        },
        {
          "duration": 0.160714218750002,
          "durationTicks": 45,
          "midi": 82,
          "name": "A#5",
          "ticks": 27121,
          "time": 96.8606739270833,
          "velocity": 0.68503937007874
        },
        {
          "duration": 0.157142791666658,
          "durationTicks": 44,
          "midi": 83,
          "name": "B5",
          "ticks": 27169,
          "time": 97.0321024270833,
          "velocity": 0.700787401574803
        },
        {
          "duration": 0.160714218750002,
          "durationTicks": 45,
          "midi": 84,
          "name": "C6",
          "ticks": 27216,
          "time": 97.1999595,
          "velocity": 0.724409448818898
        },
        {
          "duration": 0.17142849999999,
          "durationTicks": 48,
          "midi": 86,
          "name": "D6",
          "ticks": 27264,
          "time": 97.371388,
          "velocity": 0.740157480314961
        }
      ]
    }
  ]
}
