{
  "header": {
    "keySignatures": [],
    "meta": [],
    "name": "",
    "ppq": 96,
    "tempos": [
      {
        "bpm": 185.000185000185,
        "ticks": 0
      }
    ],
    "timeSignatures": [
      {
        "ticks": 0,
        "timeSignature": [
          4,
          4
        ],
        "measures": 0
      }
    ]
  },
  "tracks": [
    {
      "channel": 0,
      "controlChanges": {},
      "pitchBends": [],
      "instrument": {
        "family": "piano",
        "number": 0,
        "name": "acoustic grand piano"
      },
      "name": "",
      "notes": [],
      "endOfTrackTicks": 0
    },
    {
      "channel": 0,
      "controlChanges": {
        "6": [
          {
            "number": 6,
            "ticks": 0,
            "time": 0,
            "value": 0.09448818897637795
          },
          {
            "number": 6,
            "ticks": 0,
            "time": 0,
            "value": 0.09448818897637795
          },
          {
            "number": 6,
            "ticks": 0,
            "time": 0,
            "value": 0.09448818897637795
          },
          {
            "number": 6,
            "ticks": 46084,
            "time": 155.6890335,
            "value": 0.09448818897637795
          },
          {
            "number": 6,
            "ticks": 46086,
            "time": 155.69579025,
            "value": 0.09448818897637795
          }
        ],
        "7": [
          {
            "number": 7,
            "ticks": 0,
            "time": 0,
            "value": 0.7874015748031497
          },
          {
            "number": 7,
            "ticks": 0,
            "time": 0,
            "value": 0.7874015748031497
          },
          {
            "number": 7,
            "ticks": 0,
            "time": 0,
            "value": 0.7874015748031497
          },
          {
            "number": 7,
            "ticks": 0,
            "time": 0,
            "value": 0.7874015748031497
          },
          {
            "number": 7,
            "ticks": 46084,
            "time": 155.6890335,
            "value": 0.7874015748031497
          },
          {
            "number": 7,
            "ticks": 46086,
            "time": 155.69579025,
            "value": 0.7874015748031497
          }
        ],
        "10": [
          {
            "number": 10,
            "ticks": 0,
            "time": 0,
            "value": 0.5039370078740157
          },
          {
            "number": 10,
            "ticks": 0,
            "time": 0,
            "value": 0.5039370078740157
          },
          {
            "number": 10,
            "ticks": 0,
            "time": 0,
            "value": 0.5039370078740157
          },
          {
            "number": 10,
            "ticks": 0,
            "time": 0,
            "value": 0.5039370078740157
          },
          {
            "number": 10,
            "ticks": 46084,
            "time": 155.6890335,
            "value": 0.5039370078740157
          },
          {
            "number": 10,
            "ticks": 46086,
            "time": 155.69579025,
            "value": 0.5039370078740157
          }
        ],
        "100": [
          {
            "number": 100,
            "ticks": 0,
            "time": 0,
            "value": 0
          },
          {
            "number": 100,
            "ticks": 0,
            "time": 0,
            "value": 0
          },
          {
            "number": 100,
            "ticks": 0,
            "time": 0,
            "value": 0
          },
          {
            "number": 100,
            "ticks": 46084,
            "time": 155.6890335,
            "value": 0
          },
          {
            "number": 100,
            "ticks": 46086,
            "time": 155.69579025,
            "value": 0
          }
        ],
        "101": [
          {
            "number": 101,
            "ticks": 0,
            "time": 0,
            "value": 0
          },
          {
            "number": 101,
            "ticks": 0,
            "time": 0,
            "value": 0
          },
          {
            "number": 101,
            "ticks": 0,
            "time": 0,
            "value": 0
          },
          {
            "number": 101,
            "ticks": 46084,
            "time": 155.6890335,
            "value": 0
          },
          {
            "number": 101,
            "ticks": 46086,
            "time": 155.69579025,
            "value": 0
          }
        ]
      },
      "pitchBends": [
        {
          "ticks": 0,
          "time": 0,
          "value": 0
        },
        {
          "ticks": 0,
          "time": 0,
          "value": 0
        },
        {
          "ticks": 0,
          "time": 0,
          "value": 0
        },
        {
          "ticks": 0,
          "time": 0,
          "value": 0
        },
        {
          "ticks": 46084,
          "time": 155.6890335,
          "value": 0
        },
        {
          "ticks": 46086,
          "time": 155.69579025,
          "value": 0
        }
      ],
      "instrument": {
        "family": "piano",
        "number": 0,
        "name": "acoustic grand piano"
      },
      "name": "Sampler",
      "notes": [],
      "endOfTrackTicks": 46086
    },
    {
      "channel": 1,
      "controlChanges": {
        "6": [
          {
            "number": 6,
            "ticks": 0,
            "time": 0,
            "value": 0.09448818897637795
          },
          {
            "number": 6,
            "ticks": 0,
            "time": 0,
            "value": 0.09448818897637795
          },
          {
            "number": 6,
            "ticks": 0,
            "time": 0,
            "value": 0.09448818897637795
          },
          {
            "number": 6,
            "ticks": 46084,
            "time": 155.6890335,
            "value": 0.09448818897637795
          },
          {
            "number": 6,
            "ticks": 46086,
            "time": 155.69579025,
            "value": 0.09448818897637795
          }
        ],
        "7": [
          {
            "number": 7,
            "ticks": 0,
            "time": 0,
            "value": 0.7874015748031497
          },
          {
            "number": 7,
            "ticks": 0,
            "time": 0,
            "value": 0.7874015748031497
          },
          {
            "number": 7,
            "ticks": 0,
            "time": 0,
            "value": 0.7874015748031497
          },
          {
            "number": 7,
            "ticks": 0,
            "time": 0,
            "value": 0.7874015748031497
          },
          {
            "number": 7,
            "ticks": 46084,
            "time": 155.6890335,
            "value": 0.7874015748031497
          },
          {
            "number": 7,
            "ticks": 46086,
            "time": 155.69579025,
            "value": 0.7874015748031497
          }
        ],
        "10": [
          {
            "number": 10,
            "ticks": 0,
            "time": 0,
            "value": 0.5039370078740157
          },
          {
            "number": 10,
            "ticks": 0,
            "time": 0,
            "value": 0.5039370078740157
          },
          {
            "number": 10,
            "ticks": 0,
            "time": 0,
            "value": 0.5039370078740157
          },
          {
            "number": 10,
            "ticks": 0,
            "time": 0,
            "value": 0.5039370078740157
          },
          {
            "number": 10,
            "ticks": 46084,
            "time": 155.6890335,
            "value": 0.5039370078740157
          },
          {
            "number": 10,
            "ticks": 46086,
            "time": 155.69579025,
            "value": 0.5039370078740157
          }
        ],
        "100": [
          {
            "number": 100,
            "ticks": 0,
            "time": 0,
            "value": 0
          },
          {
            "number": 100,
            "ticks": 0,
            "time": 0,
            "value": 0
          },
          {
            "number": 100,
            "ticks": 0,
            "time": 0,
            "value": 0
          },
          {
            "number": 100,
            "ticks": 46084,
            "time": 155.6890335,
            "value": 0
          },
          {
            "number": 100,
            "ticks": 46086,
            "time": 155.69579025,
            "value": 0
          }
        ],
        "101": [
          {
            "number": 101,
            "ticks": 0,
            "time": 0,
            "value": 0
          },
          {
            "number": 101,
            "ticks": 0,
            "time": 0,
            "value": 0
          },
          {
            "number": 101,
            "ticks": 0,
            "time": 0,
            "value": 0
          },
          {
            "number": 101,
            "ticks": 46084,
            "time": 155.6890335,
            "value": 0
          },
          {
            "number": 101,
            "ticks": 46086,
            "time": 155.69579025,
            "value": 0
          }
        ]
      },
      "pitchBends": [
        {
          "ticks": 0,
          "time": 0,
          "value": 0
        },
        {
          "ticks": 0,
          "time": 0,
          "value": 0
        },
        {
          "ticks": 0,
          "time": 0,
          "value": 0
        },
        {
          "ticks": 0,
          "time": 0,
          "value": 0
        },
        {
          "ticks": 46084,
          "time": 155.6890335,
          "value": 0
        },
        {
          "ticks": 46086,
          "time": 155.69579025,
          "value": 0
        }
      ],
      "instrument": {
        "family": "piano",
        "number": 0,
        "name": "acoustic grand piano"
      },
      "name": "WTF IDK piano",
      "notes": [
        {
          "duration": 0.08108100000000107,
          "durationTicks": 24,
          "midi": 77,
          "name": "F5",
          "ticks": 6912,
          "time": 23.351328,
          "velocity": 0.6299212598425197
        },
        {
          "duration": 0.08108100000000107,
          "durationTicks": 24,
          "midi": 70,
          "name": "A#4",
          "ticks": 6912,
          "time": 23.351328,
          "velocity": 0.6299212598425197
        },
        {
          "duration": 0.08108100000000107,
          "durationTicks": 24,
          "midi": 61,
          "name": "C#4",
          "ticks": 6912,
          "time": 23.351328,
          "velocity": 0.6299212598425197
        },
        {
          "duration": 0.08108100000000107,
          "durationTicks": 24,
          "midi": 75,
          "name": "D#5",
          "ticks": 6936,
          "time": 23.432409,
          "velocity": 0.6299212598425197
        },
        {
          "duration": 0.08108099999999752,
          "durationTicks": 24,
          "midi": 77,
          "name": "F5",
          "ticks": 6960,
          "time": 23.51349,
          "velocity": 0.6299212598425197
        },
        {
          "duration": 0.08108099999999752,
          "durationTicks": 24,
          "midi": 70,
          "name": "A#4",
          "ticks": 6960,
          "time": 23.51349,
          "velocity": 0.6299212598425197
        },
        {
          "duration": 0.08108100000000107,
          "durationTicks": 24,
          "midi": 70,
          "name": "A#4",
          "ticks": 7008,
          "time": 23.675652,
          "velocity": 0.6299212598425197
        },
        {
          "duration": 0.08108100000000107,
          "durationTicks": 24,
          "midi": 75,
          "name": "D#5",
          "ticks": 7032,
          "time": 23.756733,
          "velocity": 0.6299212598425197
        },
        {
          "duration": 0.08108099999999752,
          "durationTicks": 24,
          "midi": 77,
          "name": "F5",
          "ticks": 7056,
          "time": 23.837814,
          "velocity": 0.6299212598425197
        },
        {
          "duration": 0.08108100000000107,
          "durationTicks": 24,
          "midi": 70,
          "name": "A#4",
          "ticks": 7080,
          "time": 23.918895,
          "velocity": 0.6299212598425197
        },
        {
          "duration": 0.08108100000000107,
          "durationTicks": 24,
          "midi": 68,
          "name": "G#4",
          "ticks": 7104,
          "time": 23.999976,
          "velocity": 0.6299212598425197
        },
        {
          "duration": 0.08108100000000107,
          "durationTicks": 24,
          "midi": 73,
          "name": "C#5",
          "ticks": 7104,
          "time": 23.999976,
          "velocity": 0.6299212598425197
        },
        {
          "duration": 0.08108100000000107,
          "durationTicks": 24,
          "midi": 54,
          "name": "F#3",
          "ticks": 7104,
          "time": 23.999976,
          "velocity": 0.6299212598425197
        },
        {
          "duration": 0.08108099999999752,
          "durationTicks": 24,
          "midi": 73,
          "name": "C#5",
          "ticks": 7128,
          "time": 24.081057,
          "velocity": 0.6299212598425197
        },
        {
          "duration": 0.08108100000000107,
          "durationTicks": 24,
          "midi": 75,
          "name": "D#5",
          "ticks": 7152,
          "time": 24.162138,
          "velocity": 0.6299212598425197
        },
        {
          "duration": 0.08108100000000107,
          "durationTicks": 24,
          "midi": 68,
          "name": "G#4",
          "ticks": 7176,
          "time": 24.243219,
          "velocity": 0.6299212598425197
        },
        {
          "duration": 0.08108100000000107,
          "durationTicks": 24,
          "midi": 66,
          "name": "F#4",
          "ticks": 7224,
          "time": 24.405381,
          "velocity": 0.6299212598425197
        },
        {
          "duration": 0.08108100000000107,
          "durationTicks": 24,
          "midi": 68,
          "name": "G#4",
          "ticks": 7248,
          "time": 24.486462,
          "velocity": 0.6299212598425197
        },
        {
          "duration": 0.08108099999999752,
          "durationTicks": 24,
          "midi": 80,
          "name": "G#5",
          "ticks": 7296,
          "time": 24.648624,
          "velocity": 0.6299212598425197
        },
        {
          "duration": 0.08108099999999752,
          "durationTicks": 24,
          "midi": 72,
          "name": "C5",
          "ticks": 7296,
          "time": 24.648624,
          "velocity": 0.6299212598425197
        },
        {
          "duration": 0.08108099999999752,
          "durationTicks": 24,
          "midi": 56,
          "name": "G#3",
          "ticks": 7296,
          "time": 24.648624,
          "velocity": 0.6299212598425197
        },
        {
          "duration": 0.08108100000000107,
          "durationTicks": 24,
          "midi": 73,
          "name": "C#5",
          "ticks": 7320,
          "time": 24.729705,
          "velocity": 0.6299212598425197
        },
        {
          "duration": 0.08108100000000107,
          "durationTicks": 24,
          "midi": 56,
          "name": "G#3",
          "ticks": 7344,
          "time": 24.810786,
          "velocity": 0.6299212598425197
        },
        {
          "duration": 0.08108100000000107,
          "durationTicks": 24,
          "midi": 72,
          "name": "C5",
          "ticks": 7344,
          "time": 24.810786,
          "velocity": 0.6299212598425197
        },
        {
          "duration": 0.08108100000000107,
          "durationTicks": 24,
          "midi": 80,
          "name": "G#5",
          "ticks": 7344,
          "time": 24.810786,
          "velocity": 0.6299212598425197
        },
        {
          "duration": 0.08108099999999752,
          "durationTicks": 24,
          "midi": 68,
          "name": "G#4",
          "ticks": 7368,
          "time": 24.891867,
          "velocity": 0.6299212598425197
        },
        {
          "duration": 0.08108100000000107,
          "durationTicks": 24,
          "midi": 72,
          "name": "C5",
          "ticks": 7392,
          "time": 24.972948,
          "velocity": 0.6299212598425197
        },
        {
          "duration": 0.08108100000000107,
          "durationTicks": 24,
          "midi": 73,
          "name": "C#5",
          "ticks": 7416,
          "time": 25.054029,
          "velocity": 0.6299212598425197
        },
        {
          "duration": 0.08108099999999752,
          "durationTicks": 24,
          "midi": 72,
          "name": "C5",
          "ticks": 7440,
          "time": 25.13511,
          "velocity": 0.6299212598425197
        },
        {
          "duration": 0.08108100000000107,
          "durationTicks": 24,
          "midi": 70,
          "name": "A#4",
          "ticks": 7488,
          "time": 25.297272,
          "velocity": 0.6299212598425197
        },
        {
          "duration": 0.08108100000000107,
          "durationTicks": 24,
          "midi": 73,
          "name": "C#5",
          "ticks": 7488,
          "time": 25.297272,
          "velocity": 0.6299212598425197
        },
        {
          "duration": 0.08108100000000107,
          "durationTicks": 24,
          "midi": 63,
          "name": "D#4",
          "ticks": 7488,
          "time": 25.297272,
          "velocity": 0.6299212598425197
        },
        {
          "duration": 0.08108100000000107,
          "durationTicks": 24,
          "midi": 72,
          "name": "C5",
          "ticks": 7512,
          "time": 25.378353,
          "velocity": 0.6299212598425197
        },
        {
          "duration": 0.08108099999999752,
          "durationTicks": 24,
          "midi": 70,
          "name": "A#4",
          "ticks": 7536,
          "time": 25.459434,
          "velocity": 0.6299212598425197
        },
        {
          "duration": 0.08108100000000107,
          "durationTicks": 24,
          "midi": 63,
          "name": "D#4",
          "ticks": 7560,
          "time": 25.540515,
          "velocity": 0.6299212598425197
        },
        {
          "duration": 0.08108099999999752,
          "durationTicks": 24,
          "midi": 68,
          "name": "G#4",
          "ticks": 7608,
          "time": 25.702677,
          "velocity": 0.6299212598425197
        },
        {
          "duration": 0.08108099999999752,
          "durationTicks": 24,
          "midi": 72,
          "name": "C5",
          "ticks": 7608,
          "time": 25.702677,
          "velocity": 0.6299212598425197
        },
        {
          "duration": 0.08108100000000107,
          "durationTicks": 24,
          "midi": 71,
          "name": "B4",
          "ticks": 7656,
          "time": 25.864839,
          "velocity": 0.6299212598425197
        },
        {
          "duration": 0.08108099999999752,
          "durationTicks": 24,
          "midi": 57,
          "name": "A3",
          "ticks": 7680,
          "time": 25.94592,
          "velocity": 0.6299212598425197
        },
        {
          "duration": 0.08108099999999752,
          "durationTicks": 24,
          "midi": 69,
          "name": "A4",
          "ticks": 7680,
          "time": 25.94592,
          "velocity": 0.6299212598425197
        },
        {
          "duration": 0.08108100000000107,
          "durationTicks": 24,
          "midi": 74,
          "name": "D5",
          "ticks": 7704,
          "time": 26.027001,
          "velocity": 0.6299212598425197
        },
        {
          "duration": 0.08108100000000107,
          "durationTicks": 24,
          "midi": 81,
          "name": "A5",
          "ticks": 7752,
          "time": 26.189163,
          "velocity": 0.6299212598425197
        },
        {
          "duration": 0.08108099999999752,
          "durationTicks": 24,
          "midi": 69,
          "name": "A4",
          "ticks": 7776,
          "time": 26.270244,
          "velocity": 0.6299212598425197
        },
        {
          "duration": 0.08108100000000107,
          "durationTicks": 24,
          "midi": 75,
          "name": "D#5",
          "ticks": 7824,
          "time": 26.432406,
          "velocity": 0.6299212598425197
        },
        {
          "duration": 0.08108099999999752,
          "durationTicks": 24,
          "midi": 75,
          "name": "D#5",
          "ticks": 7848,
          "time": 26.513487,
          "velocity": 0.6299212598425197
        },
        {
          "duration": 0.08108100000000107,
          "durationTicks": 24,
          "midi": 60,
          "name": "C4",
          "ticks": 7872,
          "time": 26.594568,
          "velocity": 0.6299212598425197
        },
        {
          "duration": 0.08108100000000107,
          "durationTicks": 24,
          "midi": 65,
          "name": "F4",
          "ticks": 7872,
          "time": 26.594568,
          "velocity": 0.6299212598425197
        },
        {
          "duration": 0.08108100000000107,
          "durationTicks": 24,
          "midi": 72,
          "name": "C5",
          "ticks": 7896,
          "time": 26.675649,
          "velocity": 0.6299212598425197
        },
        {
          "duration": 0.08108100000000107,
          "durationTicks": 24,
          "midi": 68,
          "name": "G#4",
          "ticks": 7896,
          "time": 26.675649,
          "velocity": 0.6299212598425197
        },
        {
          "duration": 0.08108100000000107,
          "durationTicks": 24,
          "midi": 68,
          "name": "G#4",
          "ticks": 7944,
          "time": 26.837811,
          "velocity": 0.6299212598425197
        },
        {
          "duration": 0.08108100000000107,
          "durationTicks": 24,
          "midi": 65,
          "name": "F4",
          "ticks": 7944,
          "time": 26.837811,
          "velocity": 0.6299212598425197
        },
        {
          "duration": 0.16216199999999859,
          "durationTicks": 48,
          "midi": 77,
          "name": "F5",
          "ticks": 7992,
          "time": 26.999973,
          "velocity": 0.6299212598425197
        },
        {
          "duration": 0.16216199999999859,
          "durationTicks": 48,
          "midi": 73,
          "name": "C#5",
          "ticks": 7992,
          "time": 26.999973,
          "velocity": 0.6299212598425197
        },
        {
          "duration": 0.08108100000000107,
          "durationTicks": 24,
          "midi": 73,
          "name": "C#5",
          "ticks": 8064,
          "time": 27.243216,
          "velocity": 0.6299212598425197
        },
        {
          "duration": 0.08108100000000107,
          "durationTicks": 24,
          "midi": 65,
          "name": "F4",
          "ticks": 8064,
          "time": 27.243216,
          "velocity": 0.6299212598425197
        },
        {
          "duration": 0.08108099999999752,
          "durationTicks": 24,
          "midi": 75,
          "name": "D#5",
          "ticks": 8088,
          "time": 27.324297,
          "velocity": 0.6299212598425197
        },
        {
          "duration": 0.08108100000000107,
          "durationTicks": 24,
          "midi": 65,
          "name": "F4",
          "ticks": 8112,
          "time": 27.405378,
          "velocity": 0.6299212598425197
        },
        {
          "duration": 0.08108100000000107,
          "durationTicks": 24,
          "midi": 77,
          "name": "F5",
          "ticks": 8112,
          "time": 27.405378,
          "velocity": 0.6299212598425197
        },
        {
          "duration": 0.08108100000000107,
          "durationTicks": 24,
          "midi": 68,
          "name": "G#4",
          "ticks": 8136,
          "time": 27.486459,
          "velocity": 0.6299212598425197
        },
        {
          "duration": 0.08108099999999752,
          "durationTicks": 24,
          "midi": 80,
          "name": "G#5",
          "ticks": 8160,
          "time": 27.56754,
          "velocity": 0.6299212598425197
        },
        {
          "duration": 0.08108099999999752,
          "durationTicks": 24,
          "midi": 68,
          "name": "G#4",
          "ticks": 8160,
          "time": 27.56754,
          "velocity": 0.6299212598425197
        },
        {
          "duration": 0.08108099999999752,
          "durationTicks": 24,
          "midi": 58,
          "name": "A#3",
          "ticks": 8160,
          "time": 27.56754,
          "velocity": 0.6299212598425197
        },
        {
          "duration": 0.08108100000000107,
          "durationTicks": 24,
          "midi": 77,
          "name": "F5",
          "ticks": 8184,
          "time": 27.648621,
          "velocity": 0.6299212598425197
        },
        {
          "duration": 0.08108100000000107,
          "durationTicks": 24,
          "midi": 70,
          "name": "A#4",
          "ticks": 8208,
          "time": 27.729702,
          "velocity": 0.6299212598425197
        },
        {
          "duration": 0.08108100000000107,
          "durationTicks": 24,
          "midi": 56,
          "name": "G#3",
          "ticks": 8208,
          "time": 27.729702,
          "velocity": 0.6299212598425197
        },
        {
          "duration": 0.08108100000000107,
          "durationTicks": 24,
          "midi": 68,
          "name": "G#4",
          "ticks": 8232,
          "time": 27.810783,
          "velocity": 0.6299212598425197
        },
        {
          "duration": 0.08108099999999752,
          "durationTicks": 24,
          "midi": 73,
          "name": "C#5",
          "ticks": 8256,
          "time": 27.891864,
          "velocity": 0.6299212598425197
        },
        {
          "duration": 0.08108100000000107,
          "durationTicks": 24,
          "midi": 61,
          "name": "C#4",
          "ticks": 8280,
          "time": 27.972945,
          "velocity": 0.6299212598425197
        },
        {
          "duration": 0.08108100000000107,
          "durationTicks": 24,
          "midi": 73,
          "name": "C#5",
          "ticks": 8304,
          "time": 28.054026,
          "velocity": 0.6299212598425197
        },
        {
          "duration": 0.08108100000000107,
          "durationTicks": 24,
          "midi": 85,
          "name": "C#6",
          "ticks": 8304,
          "time": 28.054026,
          "velocity": 0.6299212598425197
        },
        {
          "duration": 0.08108099999999752,
          "durationTicks": 24,
          "midi": 82,
          "name": "A#5",
          "ticks": 8328,
          "time": 28.135107,
          "velocity": 0.6299212598425197
        },
        {
          "duration": 0.08108099999999752,
          "durationTicks": 24,
          "midi": 65,
          "name": "F4",
          "ticks": 8328,
          "time": 28.135107,
          "velocity": 0.6299212598425197
        },
        {
          "duration": 0.08108100000000107,
          "durationTicks": 24,
          "midi": 77,
          "name": "F5",
          "ticks": 8352,
          "time": 28.216188,
          "velocity": 0.6299212598425197
        },
        {
          "duration": 0.08108100000000107,
          "durationTicks": 24,
          "midi": 68,
          "name": "G#4",
          "ticks": 8376,
          "time": 28.297269,
          "velocity": 0.6299212598425197
        },
        {
          "duration": 0.08108099999999752,
          "durationTicks": 24,
          "midi": 77,
          "name": "F5",
          "ticks": 8400,
          "time": 28.37835,
          "velocity": 0.6299212598425197
        },
        {
          "duration": 0.08108100000000107,
          "durationTicks": 24,
          "midi": 70,
          "name": "A#4",
          "ticks": 8424,
          "time": 28.459431,
          "velocity": 0.6299212598425197
        },
        {
          "duration": 0.08108100000000107,
          "durationTicks": 24,
          "midi": 61,
          "name": "C#4",
          "ticks": 8448,
          "time": 28.540512,
          "velocity": 0.6299212598425197
        },
        {
          "duration": 0.08108100000000107,
          "durationTicks": 24,
          "midi": 70,
          "name": "A#4",
          "ticks": 8448,
          "time": 28.540512,
          "velocity": 0.6299212598425197
        },
        {
          "duration": 0.08108100000000107,
          "durationTicks": 24,
          "midi": 77,
          "name": "F5",
          "ticks": 8448,
          "time": 28.540512,
          "velocity": 0.6299212598425197
        },
        {
          "duration": 0.08108100000000107,
          "durationTicks": 24,
          "midi": 75,
          "name": "D#5",
          "ticks": 8472,
          "time": 28.621593,
          "velocity": 0.6299212598425197
        },
        {
          "duration": 0.08108099999999752,
          "durationTicks": 24,
          "midi": 77,
          "name": "F5",
          "ticks": 8496,
          "time": 28.702674000000002,
          "velocity": 0.6299212598425197
        },
        {
          "duration": 0.08108099999999752,
          "durationTicks": 24,
          "midi": 70,
          "name": "A#4",
          "ticks": 8496,
          "time": 28.702674000000002,
          "velocity": 0.6299212598425197
        },
        {
          "duration": 0.08108100000000107,
          "durationTicks": 24,
          "midi": 70,
          "name": "A#4",
          "ticks": 8544,
          "time": 28.864836,
          "velocity": 0.6299212598425197
        },
        {
          "duration": 0.08108099999999752,
          "durationTicks": 24,
          "midi": 75,
          "name": "D#5",
          "ticks": 8568,
          "time": 28.945917,
          "velocity": 0.6299212598425197
        },
        {
          "duration": 0.08108100000000107,
          "durationTicks": 24,
          "midi": 77,
          "name": "F5",
          "ticks": 8592,
          "time": 29.026998,
          "velocity": 0.6299212598425197
        },
        {
          "duration": 0.08108100000000107,
          "durationTicks": 24,
          "midi": 70,
          "name": "A#4",
          "ticks": 8616,
          "time": 29.108079,
          "velocity": 0.6299212598425197
        },
        {
          "duration": 0.08108099999999752,
          "durationTicks": 24,
          "midi": 54,
          "name": "F#3",
          "ticks": 8640,
          "time": 29.18916,
          "velocity": 0.6299212598425197
        },
        {
          "duration": 0.08108099999999752,
          "durationTicks": 24,
          "midi": 73,
          "name": "C#5",
          "ticks": 8640,
          "time": 29.18916,
          "velocity": 0.6299212598425197
        },
        {
          "duration": 0.08108099999999752,
          "durationTicks": 24,
          "midi": 68,
          "name": "G#4",
          "ticks": 8640,
          "time": 29.18916,
          "velocity": 0.6299212598425197
        },
        {
          "duration": 0.08108100000000107,
          "durationTicks": 24,
          "midi": 73,
          "name": "C#5",
          "ticks": 8664,
          "time": 29.270241,
          "velocity": 0.6299212598425197
        },
        {
          "duration": 0.08108100000000107,
          "durationTicks": 24,
          "midi": 75,
          "name": "D#5",
          "ticks": 8688,
          "time": 29.351322,
          "velocity": 0.6299212598425197
        },
        {
          "duration": 0.08108100000000107,
          "durationTicks": 24,
          "midi": 68,
          "name": "G#4",
          "ticks": 8712,
          "time": 29.432403,
          "velocity": 0.6299212598425197
        },
        {
          "duration": 0.08108100000000107,
          "durationTicks": 24,
          "midi": 66,
          "name": "F#4",
          "ticks": 8760,
          "time": 29.594565,
          "velocity": 0.6299212598425197
        },
        {
          "duration": 0.08108100000000107,
          "durationTicks": 24,
          "midi": 68,
          "name": "G#4",
          "ticks": 8784,
          "time": 29.675646,
          "velocity": 0.6299212598425197
        },
        {
          "duration": 0.08108100000000107,
          "durationTicks": 24,
          "midi": 80,
          "name": "G#5",
          "ticks": 8832,
          "time": 29.837808,
          "velocity": 0.6299212598425197
        },
        {
          "duration": 0.08108100000000107,
          "durationTicks": 24,
          "midi": 72,
          "name": "C5",
          "ticks": 8832,
          "time": 29.837808,
          "velocity": 0.6299212598425197
        },
        {
          "duration": 0.08108100000000107,
          "durationTicks": 24,
          "midi": 56,
          "name": "G#3",
          "ticks": 8832,
          "time": 29.837808,
          "velocity": 0.6299212598425197
        },
        {
          "duration": 0.08108100000000107,
          "durationTicks": 24,
          "midi": 73,
          "name": "C#5",
          "ticks": 8856,
          "time": 29.918889,
          "velocity": 0.6299212598425197
        },
        {
          "duration": 0.08108099999999752,
          "durationTicks": 24,
          "midi": 80,
          "name": "G#5",
          "ticks": 8880,
          "time": 29.99997,
          "velocity": 0.6299212598425197
        },
        {
          "duration": 0.08108099999999752,
          "durationTicks": 24,
          "midi": 72,
          "name": "C5",
          "ticks": 8880,
          "time": 29.99997,
          "velocity": 0.6299212598425197
        },
        {
          "duration": 0.08108099999999752,
          "durationTicks": 24,
          "midi": 56,
          "name": "G#3",
          "ticks": 8880,
          "time": 29.99997,
          "velocity": 0.6299212598425197
        },
        {
          "duration": 0.08108100000000107,
          "durationTicks": 24,
          "midi": 68,
          "name": "G#4",
          "ticks": 8904,
          "time": 30.081051,
          "velocity": 0.6299212598425197
        },
        {
          "duration": 0.08108100000000107,
          "durationTicks": 24,
          "midi": 72,
          "name": "C5",
          "ticks": 8928,
          "time": 30.162132,
          "velocity": 0.6299212598425197
        },
        {
          "duration": 0.08108100000000107,
          "durationTicks": 24,
          "midi": 73,
          "name": "C#5",
          "ticks": 8952,
          "time": 30.243213,
          "velocity": 0.6299212598425197
        },
        {
          "duration": 0.08108099999999752,
          "durationTicks": 24,
          "midi": 72,
          "name": "C5",
          "ticks": 8976,
          "time": 30.324294000000002,
          "velocity": 0.6299212598425197
        },
        {
          "duration": 0.08108100000000107,
          "durationTicks": 24,
          "midi": 63,
          "name": "D#4",
          "ticks": 9024,
          "time": 30.486456,
          "velocity": 0.6299212598425197
        },
        {
          "duration": 0.08108100000000107,
          "durationTicks": 24,
          "midi": 73,
          "name": "C#5",
          "ticks": 9024,
          "time": 30.486456,
          "velocity": 0.6299212598425197
        },
        {
          "duration": 0.08108100000000107,
          "durationTicks": 24,
          "midi": 70,
          "name": "A#4",
          "ticks": 9024,
          "time": 30.486456,
          "velocity": 0.6299212598425197
        },
        {
          "duration": 0.08108099999999752,
          "durationTicks": 24,
          "midi": 72,
          "name": "C5",
          "ticks": 9048,
          "time": 30.567537,
          "velocity": 0.6299212598425197
        },
        {
          "duration": 0.08108100000000107,
          "durationTicks": 24,
          "midi": 70,
          "name": "A#4",
          "ticks": 9072,
          "time": 30.648618,
          "velocity": 0.6299212598425197
        },
        {
          "duration": 0.08108100000000107,
          "durationTicks": 24,
          "midi": 63,
          "name": "D#4",
          "ticks": 9096,
          "time": 30.729699,
          "velocity": 0.6299212598425197
        },
        {
          "duration": 0.08108100000000107,
          "durationTicks": 24,
          "midi": 72,
          "name": "C5",
          "ticks": 9144,
          "time": 30.891861,
          "velocity": 0.6299212598425197
        },
        {
          "duration": 0.08108100000000107,
          "durationTicks": 24,
          "midi": 68,
          "name": "G#4",
          "ticks": 9144,
          "time": 30.891861,
          "velocity": 0.6299212598425197
        },
        {
          "duration": 0.08108099999999752,
          "durationTicks": 24,
          "midi": 71,
          "name": "B4",
          "ticks": 9192,
          "time": 31.054023,
          "velocity": 0.6299212598425197
        },
        {
          "duration": 0.08108100000000107,
          "durationTicks": 24,
          "midi": 69,
          "name": "A4",
          "ticks": 9216,
          "time": 31.135104,
          "velocity": 0.6299212598425197
        },
        {
          "duration": 0.08108100000000107,
          "durationTicks": 24,
          "midi": 57,
          "name": "A3",
          "ticks": 9216,
          "time": 31.135104,
          "velocity": 0.6299212598425197
        },
        {
          "duration": 0.08108100000000107,
          "durationTicks": 24,
          "midi": 74,
          "name": "D5",
          "ticks": 9240,
          "time": 31.216185,
          "velocity": 0.6299212598425197
        },
        {
          "duration": 0.08108099999999752,
          "durationTicks": 24,
          "midi": 81,
          "name": "A5",
          "ticks": 9288,
          "time": 31.378347,
          "velocity": 0.6299212598425197
        },
        {
          "duration": 0.08108100000000107,
          "durationTicks": 24,
          "midi": 69,
          "name": "A4",
          "ticks": 9312,
          "time": 31.459428,
          "velocity": 0.6299212598425197
        },
        {
          "duration": 0.08108099999999752,
          "durationTicks": 24,
          "midi": 75,
          "name": "D#5",
          "ticks": 9360,
          "time": 31.62159,
          "velocity": 0.6299212598425197
        },
        {
          "duration": 0.08108100000000107,
          "durationTicks": 24,
          "midi": 75,
          "name": "D#5",
          "ticks": 9384,
          "time": 31.702671,
          "velocity": 0.6299212598425197
        },
        {
          "duration": 0.08108100000000107,
          "durationTicks": 24,
          "midi": 60,
          "name": "C4",
          "ticks": 9408,
          "time": 31.783752,
          "velocity": 0.6299212598425197
        },
        {
          "duration": 0.08108100000000107,
          "durationTicks": 24,
          "midi": 65,
          "name": "F4",
          "ticks": 9408,
          "time": 31.783752,
          "velocity": 0.6299212598425197
        },
        {
          "duration": 0.08108099999999752,
          "durationTicks": 24,
          "midi": 72,
          "name": "C5",
          "ticks": 9432,
          "time": 31.864833,
          "velocity": 0.6299212598425197
        },
        {
          "duration": 0.08108099999999752,
          "durationTicks": 24,
          "midi": 68,
          "name": "G#4",
          "ticks": 9432,
          "time": 31.864833,
          "velocity": 0.6299212598425197
        },
        {
          "duration": 0.08108099999999752,
          "durationTicks": 24,
          "midi": 68,
          "name": "G#4",
          "ticks": 9480,
          "time": 32.026995,
          "velocity": 0.6299212598425197
        },
        {
          "duration": 0.08108099999999752,
          "durationTicks": 24,
          "midi": 65,
          "name": "F4",
          "ticks": 9480,
          "time": 32.026995,
          "velocity": 0.6299212598425197
        },
        {
          "duration": 0.16216199999999503,
          "durationTicks": 48,
          "midi": 73,
          "name": "C#5",
          "ticks": 9528,
          "time": 32.189157,
          "velocity": 0.6299212598425197
        },
        {
          "duration": 0.16216199999999503,
          "durationTicks": 48,
          "midi": 77,
          "name": "F5",
          "ticks": 9528,
          "time": 32.189157,
          "velocity": 0.6299212598425197
        },
        {
          "duration": 0.08108099999999752,
          "durationTicks": 24,
          "midi": 73,
          "name": "C#5",
          "ticks": 9600,
          "time": 32.4324,
          "velocity": 0.6299212598425197
        },
        {
          "duration": 0.08108099999999752,
          "durationTicks": 24,
          "midi": 65,
          "name": "F4",
          "ticks": 9600,
          "time": 32.4324,
          "velocity": 0.6299212598425197
        },
        {
          "duration": 0.08108100000000462,
          "durationTicks": 24,
          "midi": 75,
          "name": "D#5",
          "ticks": 9624,
          "time": 32.513481,
          "velocity": 0.6299212598425197
        },
        {
          "duration": 0.08108099999999752,
          "durationTicks": 24,
          "midi": 65,
          "name": "F4",
          "ticks": 9648,
          "time": 32.594562,
          "velocity": 0.6299212598425197
        },
        {
          "duration": 0.08108099999999752,
          "durationTicks": 24,
          "midi": 77,
          "name": "F5",
          "ticks": 9648,
          "time": 32.594562,
          "velocity": 0.6299212598425197
        },
        {
          "duration": 0.08108099999999752,
          "durationTicks": 24,
          "midi": 68,
          "name": "G#4",
          "ticks": 9672,
          "time": 32.675643,
          "velocity": 0.6299212598425197
        },
        {
          "duration": 0.08108100000000462,
          "durationTicks": 24,
          "midi": 58,
          "name": "A#3",
          "ticks": 9696,
          "time": 32.756724,
          "velocity": 0.6299212598425197
        },
        {
          "duration": 0.08108100000000462,
          "durationTicks": 24,
          "midi": 68,
          "name": "G#4",
          "ticks": 9696,
          "time": 32.756724,
          "velocity": 0.6299212598425197
        },
        {
          "duration": 0.08108100000000462,
          "durationTicks": 24,
          "midi": 80,
          "name": "G#5",
          "ticks": 9696,
          "time": 32.756724,
          "velocity": 0.6299212598425197
        },
        {
          "duration": 0.08108099999999752,
          "durationTicks": 24,
          "midi": 77,
          "name": "F5",
          "ticks": 9720,
          "time": 32.837805,
          "velocity": 0.6299212598425197
        },
        {
          "duration": 0.08108099999999752,
          "durationTicks": 24,
          "midi": 70,
          "name": "A#4",
          "ticks": 9744,
          "time": 32.918886,
          "velocity": 0.6299212598425197
        },
        {
          "duration": 0.08108099999999752,
          "durationTicks": 24,
          "midi": 56,
          "name": "G#3",
          "ticks": 9744,
          "time": 32.918886,
          "velocity": 0.6299212598425197
        },
        {
          "duration": 0.08108100000000462,
          "durationTicks": 24,
          "midi": 68,
          "name": "G#4",
          "ticks": 9768,
          "time": 32.999967,
          "velocity": 0.6299212598425197
        },
        {
          "duration": 0.08108099999999752,
          "durationTicks": 24,
          "midi": 73,
          "name": "C#5",
          "ticks": 9792,
          "time": 33.081048,
          "velocity": 0.6299212598425197
        },
        {
          "duration": 0.08108099999999752,
          "durationTicks": 24,
          "midi": 61,
          "name": "C#4",
          "ticks": 9816,
          "time": 33.162129,
          "velocity": 0.6299212598425197
        },
        {
          "duration": 0.08108100000000462,
          "durationTicks": 24,
          "midi": 73,
          "name": "C#5",
          "ticks": 9840,
          "time": 33.24321,
          "velocity": 0.6299212598425197
        },
        {
          "duration": 0.08108100000000462,
          "durationTicks": 24,
          "midi": 85,
          "name": "C#6",
          "ticks": 9840,
          "time": 33.24321,
          "velocity": 0.6299212598425197
        },
        {
          "duration": 0.08108099999999752,
          "durationTicks": 24,
          "midi": 65,
          "name": "F4",
          "ticks": 9864,
          "time": 33.324291,
          "velocity": 0.6299212598425197
        },
        {
          "duration": 0.08108099999999752,
          "durationTicks": 24,
          "midi": 82,
          "name": "A#5",
          "ticks": 9864,
          "time": 33.324291,
          "velocity": 0.6299212598425197
        },
        {
          "duration": 0.08108099999999752,
          "durationTicks": 24,
          "midi": 77,
          "name": "F5",
          "ticks": 9888,
          "time": 33.405372,
          "velocity": 0.6299212598425197
        },
        {
          "duration": 0.08108100000000462,
          "durationTicks": 24,
          "midi": 68,
          "name": "G#4",
          "ticks": 9912,
          "time": 33.486453,
          "velocity": 0.6299212598425197
        },
        {
          "duration": 0.08108099999999752,
          "durationTicks": 24,
          "midi": 77,
          "name": "F5",
          "ticks": 9936,
          "time": 33.567534,
          "velocity": 0.6299212598425197
        },
        {
          "duration": 0.08108099999999752,
          "durationTicks": 24,
          "midi": 70,
          "name": "A#4",
          "ticks": 9960,
          "time": 33.648615,
          "velocity": 0.6299212598425197
        },
        {
          "duration": 0.08108100000000462,
          "durationTicks": 24,
          "midi": 70,
          "name": "A#4",
          "ticks": 9984,
          "time": 33.729696,
          "velocity": 0.6299212598425197
        },
        {
          "duration": 0.08108100000000462,
          "durationTicks": 24,
          "midi": 66,
          "name": "F#4",
          "ticks": 9984,
          "time": 33.729696,
          "velocity": 0.6299212598425197
        },
        {
          "duration": 0.08108100000000462,
          "durationTicks": 24,
          "midi": 61,
          "name": "C#4",
          "ticks": 9984,
          "time": 33.729696,
          "velocity": 0.6299212598425197
        },
        {
          "duration": 0.08108099999999752,
          "durationTicks": 24,
          "midi": 61,
          "name": "C#4",
          "ticks": 10032,
          "time": 33.891858,
          "velocity": 0.6299212598425197
        },
        {
          "duration": 0.08108099999999752,
          "durationTicks": 24,
          "midi": 66,
          "name": "F#4",
          "ticks": 10032,
          "time": 33.891858,
          "velocity": 0.6299212598425197
        },
        {
          "duration": 0.08108099999999752,
          "durationTicks": 24,
          "midi": 70,
          "name": "A#4",
          "ticks": 10032,
          "time": 33.891858,
          "velocity": 0.6299212598425197
        },
        {
          "duration": 0.16216200000000214,
          "durationTicks": 48,
          "midi": 66,
          "name": "F#4",
          "ticks": 10080,
          "time": 34.05402,
          "velocity": 0.6299212598425197
        },
        {
          "duration": 0.08108099999999752,
          "durationTicks": 24,
          "midi": 70,
          "name": "A#4",
          "ticks": 10128,
          "time": 34.216182,
          "velocity": 0.6299212598425197
        },
        {
          "duration": 0.16216200000000214,
          "durationTicks": 48,
          "midi": 73,
          "name": "C#5",
          "ticks": 10152,
          "time": 34.297263,
          "velocity": 0.6299212598425197
        },
        {
          "duration": 0.16216200000000214,
          "durationTicks": 48,
          "midi": 70,
          "name": "A#4",
          "ticks": 10152,
          "time": 34.297263,
          "velocity": 0.6299212598425197
        },
        {
          "duration": 0.16216200000000214,
          "durationTicks": 48,
          "midi": 73,
          "name": "C#5",
          "ticks": 10224,
          "time": 34.540506,
          "velocity": 0.6299212598425197
        },
        {
          "duration": 0.16216200000000214,
          "durationTicks": 48,
          "midi": 70,
          "name": "A#4",
          "ticks": 10224,
          "time": 34.540506,
          "velocity": 0.6299212598425197
        },
        {
          "duration": 0.2837834999999984,
          "durationTicks": 84,
          "midi": 66,
          "name": "F#4",
          "ticks": 10272,
          "time": 34.702668,
          "velocity": 0.6299212598425197
        },
        {
          "duration": 0.12162150000000338,
          "durationTicks": 36,
          "midi": 75,
          "name": "D#5",
          "ticks": 10368,
          "time": 35.026992,
          "velocity": 0.6299212598425197
        },
        {
          "duration": 0.08108099999999752,
          "durationTicks": 24,
          "midi": 72,
          "name": "C5",
          "ticks": 10368,
          "time": 35.026992,
          "velocity": 0.6299212598425197
        },
        {
          "duration": 0.08108099999999752,
          "durationTicks": 24,
          "midi": 68,
          "name": "G#4",
          "ticks": 10368,
          "time": 35.026992,
          "velocity": 0.6299212598425197
        },
        {
          "duration": 0.12162149999999627,
          "durationTicks": 36,
          "midi": 75,
          "name": "D#5",
          "ticks": 10416,
          "time": 35.189154,
          "velocity": 0.6299212598425197
        },
        {
          "duration": 0.08108099999999752,
          "durationTicks": 24,
          "midi": 72,
          "name": "C5",
          "ticks": 10416,
          "time": 35.189154,
          "velocity": 0.6299212598425197
        },
        {
          "duration": 0.08108099999999752,
          "durationTicks": 24,
          "midi": 68,
          "name": "G#4",
          "ticks": 10416,
          "time": 35.189154,
          "velocity": 0.6299212598425197
        },
        {
          "duration": 0.12162150000000338,
          "durationTicks": 36,
          "midi": 72,
          "name": "C5",
          "ticks": 10464,
          "time": 35.351316,
          "velocity": 0.6299212598425197
        },
        {
          "duration": 0.12162150000000338,
          "durationTicks": 36,
          "midi": 68,
          "name": "G#4",
          "ticks": 10512,
          "time": 35.513478,
          "velocity": 0.6299212598425197
        },
        {
          "duration": 0.16216200000000214,
          "durationTicks": 48,
          "midi": 72,
          "name": "C5",
          "ticks": 10560,
          "time": 35.67564,
          "velocity": 0.6299212598425197
        },
        {
          "duration": 0.16216200000000214,
          "durationTicks": 48,
          "midi": 68,
          "name": "G#4",
          "ticks": 10560,
          "time": 35.67564,
          "velocity": 0.6299212598425197
        },
        {
          "duration": 0.24324299999999965,
          "durationTicks": 72,
          "midi": 65,
          "name": "F4",
          "ticks": 10656,
          "time": 35.999964,
          "velocity": 0.6299212598425197
        },
        {
          "duration": 0.24324299999999965,
          "durationTicks": 72,
          "midi": 66,
          "name": "F#4",
          "ticks": 10752,
          "time": 36.324288,
          "velocity": 0.6299212598425197
        },
        {
          "duration": 0.24324299999999965,
          "durationTicks": 72,
          "midi": 70,
          "name": "A#4",
          "ticks": 10752,
          "time": 36.324288,
          "velocity": 0.6299212598425197
        },
        {
          "duration": 0.24324299999999965,
          "durationTicks": 72,
          "midi": 73,
          "name": "C#5",
          "ticks": 10752,
          "time": 36.324288,
          "velocity": 0.6299212598425197
        },
        {
          "duration": 0.12162150000000338,
          "durationTicks": 36,
          "midi": 66,
          "name": "F#4",
          "ticks": 10848,
          "time": 36.648612,
          "velocity": 0.6299212598425197
        },
        {
          "duration": 0.12162150000000338,
          "durationTicks": 36,
          "midi": 73,
          "name": "C#5",
          "ticks": 10848,
          "time": 36.648612,
          "velocity": 0.6299212598425197
        },
        {
          "duration": 0.24324299999999965,
          "durationTicks": 72,
          "midi": 70,
          "name": "A#4",
          "ticks": 10896,
          "time": 36.810774,
          "velocity": 0.6299212598425197
        },
        {
          "duration": 0.32432399999999717,
          "durationTicks": 96,
          "midi": 75,
          "name": "D#5",
          "ticks": 10896,
          "time": 36.810774,
          "velocity": 0.6299212598425197
        },
        {
          "duration": 0.3243240000000043,
          "durationTicks": 96,
          "midi": 70,
          "name": "A#4",
          "ticks": 10992,
          "time": 37.135098,
          "velocity": 0.6299212598425197
        },
        {
          "duration": 0.24324299999999965,
          "durationTicks": 72,
          "midi": 66,
          "name": "F#4",
          "ticks": 10992,
          "time": 37.135098,
          "velocity": 0.6299212598425197
        },
        {
          "duration": 0.12162149999999627,
          "durationTicks": 36,
          "midi": 66,
          "name": "F#4",
          "ticks": 11088,
          "time": 37.459422,
          "velocity": 0.6299212598425197
        },
        {
          "duration": 0.12162149999999627,
          "durationTicks": 36,
          "midi": 61,
          "name": "C#4",
          "ticks": 11088,
          "time": 37.459422,
          "velocity": 0.6299212598425197
        },
        {
          "duration": 0.12162150000000338,
          "durationTicks": 36,
          "midi": 65,
          "name": "F4",
          "ticks": 11136,
          "time": 37.621584,
          "velocity": 0.6299212598425197
        },
        {
          "duration": 0.12162150000000338,
          "durationTicks": 36,
          "midi": 68,
          "name": "G#4",
          "ticks": 11136,
          "time": 37.621584,
          "velocity": 0.6299212598425197
        },
        {
          "duration": 0.12162150000000338,
          "durationTicks": 36,
          "midi": 72,
          "name": "C5",
          "ticks": 11136,
          "time": 37.621584,
          "velocity": 0.6299212598425197
        },
        {
          "duration": 0.12162149999999627,
          "durationTicks": 36,
          "midi": 72,
          "name": "C5",
          "ticks": 11184,
          "time": 37.783746,
          "velocity": 0.6299212598425197
        },
        {
          "duration": 0.12162149999999627,
          "durationTicks": 36,
          "midi": 68,
          "name": "G#4",
          "ticks": 11184,
          "time": 37.783746,
          "velocity": 0.6299212598425197
        },
        {
          "duration": 0.12162149999999627,
          "durationTicks": 36,
          "midi": 65,
          "name": "F4",
          "ticks": 11184,
          "time": 37.783746,
          "velocity": 0.6299212598425197
        },
        {
          "duration": 0.12162149999999627,
          "durationTicks": 36,
          "midi": 68,
          "name": "G#4",
          "ticks": 11232,
          "time": 37.945908,
          "velocity": 0.6299212598425197
        },
        {
          "duration": 0.2837835000000055,
          "durationTicks": 84,
          "midi": 65,
          "name": "F4",
          "ticks": 11280,
          "time": 38.10807,
          "velocity": 0.6299212598425197
        },
        {
          "duration": 0.4054049999999947,
          "durationTicks": 120,
          "midi": 68,
          "name": "G#4",
          "ticks": 11376,
          "time": 38.432394,
          "velocity": 0.6299212598425197
        },
        {
          "duration": 0.4054050000000018,
          "durationTicks": 120,
          "midi": 72,
          "name": "C5",
          "ticks": 11382,
          "time": 38.45266425,
          "velocity": 0.6299212598425197
        },
        {
          "duration": 0.2837834999999984,
          "durationTicks": 84,
          "midi": 70,
          "name": "A#4",
          "ticks": 11520,
          "time": 38.91888,
          "velocity": 0.6299212598425197
        },
        {
          "duration": 0.2837834999999984,
          "durationTicks": 84,
          "midi": 66,
          "name": "F#4",
          "ticks": 11520,
          "time": 38.91888,
          "velocity": 0.6299212598425197
        },
        {
          "duration": 0.2837834999999984,
          "durationTicks": 84,
          "midi": 61,
          "name": "C#4",
          "ticks": 11520,
          "time": 38.91888,
          "velocity": 0.6299212598425197
        },
        {
          "duration": 0.16216200000000214,
          "durationTicks": 48,
          "midi": 68,
          "name": "G#4",
          "ticks": 11616,
          "time": 39.243204,
          "velocity": 0.6299212598425197
        },
        {
          "duration": 0.16216200000000214,
          "durationTicks": 48,
          "midi": 70,
          "name": "A#4",
          "ticks": 11664,
          "time": 39.405366,
          "velocity": 0.6299212598425197
        },
        {
          "duration": 0.16216199999999503,
          "durationTicks": 48,
          "midi": 78,
          "name": "F#5",
          "ticks": 11712,
          "time": 39.567528,
          "velocity": 0.6299212598425197
        },
        {
          "duration": 0.16216200000000214,
          "durationTicks": 48,
          "midi": 77,
          "name": "F5",
          "ticks": 11760,
          "time": 39.72969,
          "velocity": 0.6299212598425197
        },
        {
          "duration": 0.16216200000000214,
          "durationTicks": 48,
          "midi": 66,
          "name": "F#4",
          "ticks": 11808,
          "time": 39.891852,
          "velocity": 0.6299212598425197
        },
        {
          "duration": 0.16216199999999503,
          "durationTicks": 48,
          "midi": 68,
          "name": "G#4",
          "ticks": 11856,
          "time": 40.054014,
          "velocity": 0.6299212598425197
        },
        {
          "duration": 0.3243240000000043,
          "durationTicks": 96,
          "midi": 72,
          "name": "C5",
          "ticks": 11904,
          "time": 40.216176,
          "velocity": 0.6299212598425197
        },
        {
          "duration": 0.24324299999999965,
          "durationTicks": 72,
          "midi": 68,
          "name": "G#4",
          "ticks": 11904,
          "time": 40.216176,
          "velocity": 0.6299212598425197
        },
        {
          "duration": 0.24324299999999965,
          "durationTicks": 72,
          "midi": 65,
          "name": "F4",
          "ticks": 11904,
          "time": 40.216176,
          "velocity": 0.6299212598425197
        },
        {
          "duration": 0.16216200000000214,
          "durationTicks": 48,
          "midi": 60,
          "name": "C4",
          "ticks": 11952,
          "time": 40.378338,
          "velocity": 0.6299212598425197
        },
        {
          "duration": 0.16216200000000214,
          "durationTicks": 48,
          "midi": 65,
          "name": "F4",
          "ticks": 12000,
          "time": 40.5405,
          "velocity": 0.6299212598425197
        },
        {
          "duration": 0.16216199999999503,
          "durationTicks": 48,
          "midi": 68,
          "name": "G#4",
          "ticks": 12048,
          "time": 40.702662000000004,
          "velocity": 0.6299212598425197
        },
        {
          "duration": 0.3243240000000043,
          "durationTicks": 96,
          "midi": 72,
          "name": "C5",
          "ticks": 12096,
          "time": 40.864824,
          "velocity": 0.6299212598425197
        },
        {
          "duration": 0.24324299999999965,
          "durationTicks": 72,
          "midi": 68,
          "name": "G#4",
          "ticks": 12096,
          "time": 40.864824,
          "velocity": 0.6299212598425197
        },
        {
          "duration": 0.24324299999999965,
          "durationTicks": 72,
          "midi": 65,
          "name": "F4",
          "ticks": 12096,
          "time": 40.864824,
          "velocity": 0.6299212598425197
        },
        {
          "duration": 0.16216200000000214,
          "durationTicks": 48,
          "midi": 60,
          "name": "C4",
          "ticks": 12144,
          "time": 41.026986,
          "velocity": 0.6299212598425197
        },
        {
          "duration": 0.16216199999999503,
          "durationTicks": 48,
          "midi": 65,
          "name": "F4",
          "ticks": 12192,
          "time": 41.189148,
          "velocity": 0.6299212598425197
        },
        {
          "duration": 0.16216200000000214,
          "durationTicks": 48,
          "midi": 68,
          "name": "G#4",
          "ticks": 12240,
          "time": 41.35131,
          "velocity": 0.6299212598425197
        },
        {
          "duration": 0.32432399999999717,
          "durationTicks": 96,
          "midi": 73,
          "name": "C#5",
          "ticks": 12288,
          "time": 41.513472,
          "velocity": 0.6299212598425197
        },
        {
          "duration": 0.24324299999999965,
          "durationTicks": 72,
          "midi": 70,
          "name": "A#4",
          "ticks": 12288,
          "time": 41.513472,
          "velocity": 0.6299212598425197
        },
        {
          "duration": 0.12162149999999627,
          "durationTicks": 36,
          "midi": 66,
          "name": "F#4",
          "ticks": 12336,
          "time": 41.675634,
          "velocity": 0.6299212598425197
        },
        {
          "duration": 0.3243240000000043,
          "durationTicks": 96,
          "midi": 77,
          "name": "F5",
          "ticks": 12384,
          "time": 41.837796,
          "velocity": 0.6299212598425197
        },
        {
          "duration": 0.24324299999999965,
          "durationTicks": 72,
          "midi": 73,
          "name": "C#5",
          "ticks": 12384,
          "time": 41.837796,
          "velocity": 0.6299212598425197
        },
        {
          "duration": 0.12162150000000338,
          "durationTicks": 36,
          "midi": 66,
          "name": "F#4",
          "ticks": 12432,
          "time": 41.999958,
          "velocity": 0.6299212598425197
        },
        {
          "duration": 0.24324299999999965,
          "durationTicks": 72,
          "midi": 72,
          "name": "C5",
          "ticks": 12480,
          "time": 42.16212,
          "velocity": 0.6299212598425197
        },
        {
          "duration": 0.2027025000000009,
          "durationTicks": 60,
          "midi": 75,
          "name": "D#5",
          "ticks": 12480,
          "time": 42.16212,
          "velocity": 0.6299212598425197
        },
        {
          "duration": 0.12162150000000338,
          "durationTicks": 36,
          "midi": 66,
          "name": "F#4",
          "ticks": 12528,
          "time": 42.324282,
          "velocity": 0.6299212598425197
        },
        {
          "duration": 0.24324299999999965,
          "durationTicks": 72,
          "midi": 72,
          "name": "C5",
          "ticks": 12576,
          "time": 42.486444,
          "velocity": 0.6299212598425197
        },
        {
          "duration": 0.2027025000000009,
          "durationTicks": 60,
          "midi": 75,
          "name": "D#5",
          "ticks": 12576,
          "time": 42.486444,
          "velocity": 0.6299212598425197
        },
        {
          "duration": 0.12162149999999627,
          "durationTicks": 36,
          "midi": 66,
          "name": "F#4",
          "ticks": 12624,
          "time": 42.648606,
          "velocity": 0.6299212598425197
        },
        {
          "duration": 0.08108100000000462,
          "durationTicks": 24,
          "midi": 70,
          "name": "A#4",
          "ticks": 13056,
          "time": 44.108064,
          "velocity": 0.5905511811023622
        },
        {
          "duration": 0.08108100000000462,
          "durationTicks": 24,
          "midi": 66,
          "name": "F#4",
          "ticks": 13056,
          "time": 44.108064,
          "velocity": 0.5905511811023622
        },
        {
          "duration": 0.08108100000000462,
          "durationTicks": 24,
          "midi": 73,
          "name": "C#5",
          "ticks": 13056,
          "time": 44.108064,
          "velocity": 0.5905511811023622
        },
        {
          "duration": 0.08108100000000462,
          "durationTicks": 24,
          "midi": 77,
          "name": "F5",
          "ticks": 13056,
          "time": 44.108064,
          "velocity": 0.5905511811023622
        },
        {
          "duration": 0.08108100000000462,
          "durationTicks": 24,
          "midi": 77,
          "name": "F5",
          "ticks": 13128,
          "time": 44.351307,
          "velocity": 0.5905511811023622
        },
        {
          "duration": 0.08108100000000462,
          "durationTicks": 24,
          "midi": 73,
          "name": "C#5",
          "ticks": 13128,
          "time": 44.351307,
          "velocity": 0.5905511811023622
        },
        {
          "duration": 0.08108100000000462,
          "durationTicks": 24,
          "midi": 70,
          "name": "A#4",
          "ticks": 13128,
          "time": 44.351307,
          "velocity": 0.5905511811023622
        },
        {
          "duration": 0.08108100000000462,
          "durationTicks": 24,
          "midi": 66,
          "name": "F#4",
          "ticks": 13128,
          "time": 44.351307,
          "velocity": 0.5905511811023622
        },
        {
          "duration": 0.08108099999999752,
          "durationTicks": 24,
          "midi": 70,
          "name": "A#4",
          "ticks": 13176,
          "time": 44.513469,
          "velocity": 0.5905511811023622
        },
        {
          "duration": 0.08108100000000462,
          "durationTicks": 24,
          "midi": 66,
          "name": "F#4",
          "ticks": 13200,
          "time": 44.59455,
          "velocity": 0.5905511811023622
        },
        {
          "duration": 0.08108099999999752,
          "durationTicks": 24,
          "midi": 78,
          "name": "F#5",
          "ticks": 13224,
          "time": 44.675631,
          "velocity": 0.5905511811023622
        },
        {
          "duration": 0.08108099999999752,
          "durationTicks": 24,
          "midi": 66,
          "name": "F#4",
          "ticks": 13248,
          "time": 44.756712,
          "velocity": 0.5905511811023622
        },
        {
          "duration": 0.08108099999999752,
          "durationTicks": 24,
          "midi": 70,
          "name": "A#4",
          "ticks": 13248,
          "time": 44.756712,
          "velocity": 0.5905511811023622
        },
        {
          "duration": 0.08108099999999752,
          "durationTicks": 24,
          "midi": 73,
          "name": "C#5",
          "ticks": 13248,
          "time": 44.756712,
          "velocity": 0.5905511811023622
        },
        {
          "duration": 0.08108099999999752,
          "durationTicks": 24,
          "midi": 77,
          "name": "F5",
          "ticks": 13248,
          "time": 44.756712,
          "velocity": 0.5905511811023622
        },
        {
          "duration": 0.08108100000000462,
          "durationTicks": 24,
          "midi": 80,
          "name": "G#5",
          "ticks": 13272,
          "time": 44.837793,
          "velocity": 0.5905511811023622
        },
        {
          "duration": 0.08108099999999752,
          "durationTicks": 24,
          "midi": 78,
          "name": "F#5",
          "ticks": 13296,
          "time": 44.918874,
          "velocity": 0.5905511811023622
        },
        {
          "duration": 0.08108099999999752,
          "durationTicks": 24,
          "midi": 77,
          "name": "F5",
          "ticks": 13320,
          "time": 44.999955,
          "velocity": 0.5905511811023622
        },
        {
          "duration": 0.08108099999999752,
          "durationTicks": 24,
          "midi": 73,
          "name": "C#5",
          "ticks": 13320,
          "time": 44.999955,
          "velocity": 0.5905511811023622
        },
        {
          "duration": 0.08108099999999752,
          "durationTicks": 24,
          "midi": 70,
          "name": "A#4",
          "ticks": 13320,
          "time": 44.999955,
          "velocity": 0.5905511811023622
        },
        {
          "duration": 0.08108099999999752,
          "durationTicks": 24,
          "midi": 66,
          "name": "F#4",
          "ticks": 13320,
          "time": 44.999955,
          "velocity": 0.5905511811023622
        },
        {
          "duration": 0.08108099999999752,
          "durationTicks": 24,
          "midi": 70,
          "name": "A#4",
          "ticks": 13368,
          "time": 45.162117,
          "velocity": 0.5905511811023622
        },
        {
          "duration": 0.16216200000000214,
          "durationTicks": 48,
          "midi": 78,
          "name": "F#5",
          "ticks": 13392,
          "time": 45.243198,
          "velocity": 0.5905511811023622
        },
        {
          "duration": 0.08108100000000462,
          "durationTicks": 24,
          "midi": 70,
          "name": "A#4",
          "ticks": 13416,
          "time": 45.324279,
          "velocity": 0.5905511811023622
        },
        {
          "duration": 0.08108099999999752,
          "durationTicks": 24,
          "midi": 77,
          "name": "F5",
          "ticks": 13440,
          "time": 45.40536,
          "velocity": 0.5905511811023622
        },
        {
          "duration": 0.08108099999999752,
          "durationTicks": 24,
          "midi": 65,
          "name": "F4",
          "ticks": 13440,
          "time": 45.40536,
          "velocity": 0.5905511811023622
        },
        {
          "duration": 0.08108099999999752,
          "durationTicks": 24,
          "midi": 72,
          "name": "C5",
          "ticks": 13440,
          "time": 45.40536,
          "velocity": 0.5905511811023622
        },
        {
          "duration": 0.08108099999999752,
          "durationTicks": 24,
          "midi": 69,
          "name": "A4",
          "ticks": 13440,
          "time": 45.40536,
          "velocity": 0.5905511811023622
        },
        {
          "duration": 0.08108099999999752,
          "durationTicks": 24,
          "midi": 77,
          "name": "F5",
          "ticks": 13512,
          "time": 45.648603,
          "velocity": 0.5905511811023622
        },
        {
          "duration": 0.08108099999999752,
          "durationTicks": 24,
          "midi": 72,
          "name": "C5",
          "ticks": 13512,
          "time": 45.648603,
          "velocity": 0.5905511811023622
        },
        {
          "duration": 0.08108099999999752,
          "durationTicks": 24,
          "midi": 69,
          "name": "A4",
          "ticks": 13512,
          "time": 45.648603,
          "velocity": 0.5905511811023622
        },
        {
          "duration": 0.08108099999999752,
          "durationTicks": 24,
          "midi": 65,
          "name": "F4",
          "ticks": 13512,
          "time": 45.648603,
          "velocity": 0.5905511811023622
        },
        {
          "duration": 0.04054049999999876,
          "durationTicks": 12,
          "midi": 72,
          "name": "C5",
          "ticks": 13584,
          "time": 45.891846,
          "velocity": 0.5905511811023622
        },
        {
          "duration": 0.04054049999999876,
          "durationTicks": 12,
          "midi": 72,
          "name": "C5",
          "ticks": 13608,
          "time": 45.972927,
          "velocity": 0.5905511811023622
        },
        {
          "duration": 0.16216199999999503,
          "durationTicks": 48,
          "midi": 65,
          "name": "F4",
          "ticks": 13632,
          "time": 46.054008,
          "velocity": 0.5905511811023622
        },
        {
          "duration": 0.16216199999999503,
          "durationTicks": 48,
          "midi": 69,
          "name": "A4",
          "ticks": 13632,
          "time": 46.054008,
          "velocity": 0.5905511811023622
        },
        {
          "duration": 0.08108100000000462,
          "durationTicks": 24,
          "midi": 81,
          "name": "A5",
          "ticks": 13680,
          "time": 46.21617,
          "velocity": 0.5905511811023622
        },
        {
          "duration": 0.08108100000000462,
          "durationTicks": 24,
          "midi": 77,
          "name": "F5",
          "ticks": 13680,
          "time": 46.21617,
          "velocity": 0.5905511811023622
        },
        {
          "duration": 0.08108099999999752,
          "durationTicks": 24,
          "midi": 73,
          "name": "C#5",
          "ticks": 13728,
          "time": 46.378332,
          "velocity": 0.5905511811023622
        },
        {
          "duration": 0.08108099999999752,
          "durationTicks": 24,
          "midi": 77,
          "name": "F5",
          "ticks": 13728,
          "time": 46.378332,
          "velocity": 0.5905511811023622
        },
        {
          "duration": 0.08108100000000462,
          "durationTicks": 24,
          "midi": 75,
          "name": "D#5",
          "ticks": 13752,
          "time": 46.459413,
          "velocity": 0.5905511811023622
        },
        {
          "duration": 0.08108100000000462,
          "durationTicks": 24,
          "midi": 72,
          "name": "C5",
          "ticks": 13752,
          "time": 46.459413,
          "velocity": 0.5905511811023622
        },
        {
          "duration": 0.16216199999999503,
          "durationTicks": 48,
          "midi": 73,
          "name": "C#5",
          "ticks": 13776,
          "time": 46.540494,
          "velocity": 0.5905511811023622
        },
        {
          "duration": 0.08108099999999752,
          "durationTicks": 24,
          "midi": 69,
          "name": "A4",
          "ticks": 13776,
          "time": 46.540494,
          "velocity": 0.5905511811023622
        },
        {
          "duration": 0.08108099999999752,
          "durationTicks": 24,
          "midi": 65,
          "name": "F4",
          "ticks": 13800,
          "time": 46.621575,
          "velocity": 0.5905511811023622
        },
        {
          "duration": 0.16216200000000214,
          "durationTicks": 48,
          "midi": 82,
          "name": "A#5",
          "ticks": 13824,
          "time": 46.702656,
          "velocity": 0.5905511811023622
        },
        {
          "duration": 0.16216200000000214,
          "durationTicks": 48,
          "midi": 70,
          "name": "A#4",
          "ticks": 13824,
          "time": 46.702656,
          "velocity": 0.5905511811023622
        },
        {
          "duration": 0.16216200000000214,
          "durationTicks": 48,
          "midi": 73,
          "name": "C#5",
          "ticks": 13824,
          "time": 46.702656,
          "velocity": 0.5905511811023622
        },
        {
          "duration": 0.16216200000000214,
          "durationTicks": 48,
          "midi": 77,
          "name": "F5",
          "ticks": 13824,
          "time": 46.702656,
          "velocity": 0.5905511811023622
        },
        {
          "duration": 0.08108100000000462,
          "durationTicks": 24,
          "midi": 65,
          "name": "F4",
          "ticks": 13896,
          "time": 46.945899,
          "velocity": 0.5905511811023622
        },
        {
          "duration": 0.08108100000000462,
          "durationTicks": 24,
          "midi": 70,
          "name": "A#4",
          "ticks": 13896,
          "time": 46.945899,
          "velocity": 0.5905511811023622
        },
        {
          "duration": 0.08108100000000462,
          "durationTicks": 24,
          "midi": 73,
          "name": "C#5",
          "ticks": 13896,
          "time": 46.945899,
          "velocity": 0.5905511811023622
        },
        {
          "duration": 0.08108100000000462,
          "durationTicks": 24,
          "midi": 70,
          "name": "A#4",
          "ticks": 13968,
          "time": 47.189142,
          "velocity": 0.5905511811023622
        },
        {
          "duration": 0.08108099999999752,
          "durationTicks": 24,
          "midi": 70,
          "name": "A#4",
          "ticks": 13992,
          "time": 47.270223,
          "velocity": 0.5905511811023622
        },
        {
          "duration": 0.16216200000000214,
          "durationTicks": 48,
          "midi": 73,
          "name": "C#5",
          "ticks": 14016,
          "time": 47.351304,
          "velocity": 0.5905511811023622
        },
        {
          "duration": 0.16216200000000214,
          "durationTicks": 48,
          "midi": 68,
          "name": "G#4",
          "ticks": 14016,
          "time": 47.351304,
          "velocity": 0.5905511811023622
        },
        {
          "duration": 0.16216200000000214,
          "durationTicks": 48,
          "midi": 73,
          "name": "C#5",
          "ticks": 14088,
          "time": 47.594547,
          "velocity": 0.5905511811023622
        },
        {
          "duration": 0.16216200000000214,
          "durationTicks": 48,
          "midi": 77,
          "name": "F5",
          "ticks": 14088,
          "time": 47.594547,
          "velocity": 0.5905511811023622
        },
        {
          "duration": 0.16216200000000214,
          "durationTicks": 48,
          "midi": 80,
          "name": "G#5",
          "ticks": 14088,
          "time": 47.594547,
          "velocity": 0.5905511811023622
        },
        {
          "duration": 0.08108099999999752,
          "durationTicks": 24,
          "midi": 73,
          "name": "C#5",
          "ticks": 14136,
          "time": 47.756709,
          "velocity": 0.5905511811023622
        },
        {
          "duration": 0.08108100000000462,
          "durationTicks": 24,
          "midi": 70,
          "name": "A#4",
          "ticks": 14160,
          "time": 47.83779,
          "velocity": 0.5905511811023622
        },
        {
          "duration": 0.08108099999999752,
          "durationTicks": 24,
          "midi": 65,
          "name": "F4",
          "ticks": 14184,
          "time": 47.918871,
          "velocity": 0.5905511811023622
        },
        {
          "duration": 0.08108099999999752,
          "durationTicks": 24,
          "midi": 68,
          "name": "G#4",
          "ticks": 14208,
          "time": 47.999952,
          "velocity": 0.5905511811023622
        },
        {
          "duration": 0.08108099999999752,
          "durationTicks": 24,
          "midi": 72,
          "name": "C5",
          "ticks": 14208,
          "time": 47.999952,
          "velocity": 0.5905511811023622
        },
        {
          "duration": 0.08108099999999752,
          "durationTicks": 24,
          "midi": 63,
          "name": "D#4",
          "ticks": 14208,
          "time": 47.999952,
          "velocity": 0.5905511811023622
        },
        {
          "duration": 0.08108099999999752,
          "durationTicks": 24,
          "midi": 75,
          "name": "D#5",
          "ticks": 14208,
          "time": 47.999952,
          "velocity": 0.5905511811023622
        },
        {
          "duration": 0.08108099999999752,
          "durationTicks": 24,
          "midi": 72,
          "name": "C5",
          "ticks": 14256,
          "time": 48.162114,
          "velocity": 0.5905511811023622
        },
        {
          "duration": 0.08108099999999752,
          "durationTicks": 24,
          "midi": 75,
          "name": "D#5",
          "ticks": 14280,
          "time": 48.243195,
          "velocity": 0.5905511811023622
        },
        {
          "duration": 0.08108099999999752,
          "durationTicks": 24,
          "midi": 63,
          "name": "D#4",
          "ticks": 14280,
          "time": 48.243195,
          "velocity": 0.5905511811023622
        },
        {
          "duration": 0.08108099999999752,
          "durationTicks": 24,
          "midi": 72,
          "name": "C5",
          "ticks": 14280,
          "time": 48.243195,
          "velocity": 0.5905511811023622
        },
        {
          "duration": 0.08108099999999752,
          "durationTicks": 24,
          "midi": 68,
          "name": "G#4",
          "ticks": 14280,
          "time": 48.243195,
          "velocity": 0.5905511811023622
        },
        {
          "duration": 0.08108099999999752,
          "durationTicks": 24,
          "midi": 72,
          "name": "C5",
          "ticks": 14328,
          "time": 48.405357,
          "velocity": 0.5905511811023622
        },
        {
          "duration": 0.08108099999999752,
          "durationTicks": 24,
          "midi": 68,
          "name": "G#4",
          "ticks": 14352,
          "time": 48.486438,
          "velocity": 0.5905511811023622
        },
        {
          "duration": 0.08108100000000462,
          "durationTicks": 24,
          "midi": 61,
          "name": "C#4",
          "ticks": 14376,
          "time": 48.567519,
          "velocity": 0.5905511811023622
        },
        {
          "duration": 0.12162149999999627,
          "durationTicks": 36,
          "midi": 77,
          "name": "F5",
          "ticks": 14400,
          "time": 48.6486,
          "velocity": 0.5905511811023622
        },
        {
          "duration": 0.12162149999999627,
          "durationTicks": 36,
          "midi": 73,
          "name": "C#5",
          "ticks": 14400,
          "time": 48.6486,
          "velocity": 0.5905511811023622
        },
        {
          "duration": 0.12162149999999627,
          "durationTicks": 36,
          "midi": 68,
          "name": "G#4",
          "ticks": 14400,
          "time": 48.6486,
          "velocity": 0.5905511811023622
        },
        {
          "duration": 0.08108100000000462,
          "durationTicks": 24,
          "midi": 73,
          "name": "C#5",
          "ticks": 14448,
          "time": 48.810762,
          "velocity": 0.5905511811023622
        },
        {
          "duration": 0.08108100000000462,
          "durationTicks": 24,
          "midi": 77,
          "name": "F5",
          "ticks": 14448,
          "time": 48.810762,
          "velocity": 0.5905511811023622
        },
        {
          "duration": 0.12162150000000338,
          "durationTicks": 36,
          "midi": 68,
          "name": "G#4",
          "ticks": 14448,
          "time": 48.810762,
          "velocity": 0.5905511811023622
        },
        {
          "duration": 0.08108100000000462,
          "durationTicks": 24,
          "midi": 73,
          "name": "C#5",
          "ticks": 14496,
          "time": 48.972924,
          "velocity": 0.5905511811023622
        },
        {
          "duration": 0.08108099999999752,
          "durationTicks": 24,
          "midi": 65,
          "name": "F4",
          "ticks": 14520,
          "time": 49.054005000000004,
          "velocity": 0.5905511811023622
        },
        {
          "duration": 0.08108099999999752,
          "durationTicks": 24,
          "midi": 61,
          "name": "C#4",
          "ticks": 14544,
          "time": 49.135086,
          "velocity": 0.5905511811023622
        },
        {
          "duration": 0.08108100000000462,
          "durationTicks": 24,
          "midi": 56,
          "name": "G#3",
          "ticks": 14568,
          "time": 49.216167,
          "velocity": 0.5905511811023622
        },
        {
          "duration": 0.08108099999999752,
          "durationTicks": 24,
          "midi": 77,
          "name": "F5",
          "ticks": 14592,
          "time": 49.297248,
          "velocity": 0.5905511811023622
        },
        {
          "duration": 0.08108099999999752,
          "durationTicks": 24,
          "midi": 73,
          "name": "C#5",
          "ticks": 14592,
          "time": 49.297248,
          "velocity": 0.5905511811023622
        },
        {
          "duration": 0.08108099999999752,
          "durationTicks": 24,
          "midi": 66,
          "name": "F#4",
          "ticks": 14592,
          "time": 49.297248,
          "velocity": 0.5905511811023622
        },
        {
          "duration": 0.08108099999999752,
          "durationTicks": 24,
          "midi": 70,
          "name": "A#4",
          "ticks": 14592,
          "time": 49.297248,
          "velocity": 0.5905511811023622
        },
        {
          "duration": 0.08108099999999752,
          "durationTicks": 24,
          "midi": 77,
          "name": "F5",
          "ticks": 14664,
          "time": 49.540491,
          "velocity": 0.5905511811023622
        },
        {
          "duration": 0.08108099999999752,
          "durationTicks": 24,
          "midi": 73,
          "name": "C#5",
          "ticks": 14664,
          "time": 49.540491,
          "velocity": 0.5905511811023622
        },
        {
          "duration": 0.08108099999999752,
          "durationTicks": 24,
          "midi": 70,
          "name": "A#4",
          "ticks": 14664,
          "time": 49.540491,
          "velocity": 0.5905511811023622
        },
        {
          "duration": 0.08108099999999752,
          "durationTicks": 24,
          "midi": 66,
          "name": "F#4",
          "ticks": 14664,
          "time": 49.540491,
          "velocity": 0.5905511811023622
        },
        {
          "duration": 0.08108100000000462,
          "durationTicks": 24,
          "midi": 70,
          "name": "A#4",
          "ticks": 14712,
          "time": 49.702653,
          "velocity": 0.5905511811023622
        },
        {
          "duration": 0.08108099999999752,
          "durationTicks": 24,
          "midi": 66,
          "name": "F#4",
          "ticks": 14736,
          "time": 49.783734,
          "velocity": 0.5905511811023622
        },
        {
          "duration": 0.08108099999999752,
          "durationTicks": 24,
          "midi": 78,
          "name": "F#5",
          "ticks": 14760,
          "time": 49.864815,
          "velocity": 0.5905511811023622
        },
        {
          "duration": 0.08108100000000462,
          "durationTicks": 24,
          "midi": 77,
          "name": "F5",
          "ticks": 14784,
          "time": 49.945896,
          "velocity": 0.5905511811023622
        },
        {
          "duration": 0.08108100000000462,
          "durationTicks": 24,
          "midi": 73,
          "name": "C#5",
          "ticks": 14784,
          "time": 49.945896,
          "velocity": 0.5905511811023622
        },
        {
          "duration": 0.08108100000000462,
          "durationTicks": 24,
          "midi": 70,
          "name": "A#4",
          "ticks": 14784,
          "time": 49.945896,
          "velocity": 0.5905511811023622
        },
        {
          "duration": 0.08108100000000462,
          "durationTicks": 24,
          "midi": 66,
          "name": "F#4",
          "ticks": 14784,
          "time": 49.945896,
          "velocity": 0.5905511811023622
        },
        {
          "duration": 0.08108099999999752,
          "durationTicks": 24,
          "midi": 80,
          "name": "G#5",
          "ticks": 14808,
          "time": 50.026977,
          "velocity": 0.5905511811023622
        },
        {
          "duration": 0.08108099999999752,
          "durationTicks": 24,
          "midi": 78,
          "name": "F#5",
          "ticks": 14832,
          "time": 50.108058,
          "velocity": 0.5905511811023622
        },
        {
          "duration": 0.08108100000000462,
          "durationTicks": 24,
          "midi": 77,
          "name": "F5",
          "ticks": 14856,
          "time": 50.189139,
          "velocity": 0.5905511811023622
        },
        {
          "duration": 0.08108100000000462,
          "durationTicks": 24,
          "midi": 73,
          "name": "C#5",
          "ticks": 14856,
          "time": 50.189139,
          "velocity": 0.5905511811023622
        },
        {
          "duration": 0.08108100000000462,
          "durationTicks": 24,
          "midi": 70,
          "name": "A#4",
          "ticks": 14856,
          "time": 50.189139,
          "velocity": 0.5905511811023622
        },
        {
          "duration": 0.08108100000000462,
          "durationTicks": 24,
          "midi": 66,
          "name": "F#4",
          "ticks": 14856,
          "time": 50.189139,
          "velocity": 0.5905511811023622
        },
        {
          "duration": 0.08108099999999752,
          "durationTicks": 24,
          "midi": 70,
          "name": "A#4",
          "ticks": 14904,
          "time": 50.351301,
          "velocity": 0.5905511811023622
        },
        {
          "duration": 0.16216200000000214,
          "durationTicks": 48,
          "midi": 78,
          "name": "F#5",
          "ticks": 14928,
          "time": 50.432382,
          "velocity": 0.5905511811023622
        },
        {
          "duration": 0.08108099999999752,
          "durationTicks": 24,
          "midi": 70,
          "name": "A#4",
          "ticks": 14952,
          "time": 50.513463,
          "velocity": 0.5905511811023622
        },
        {
          "duration": 0.08108100000000462,
          "durationTicks": 24,
          "midi": 69,
          "name": "A4",
          "ticks": 14976,
          "time": 50.594544,
          "velocity": 0.5905511811023622
        },
        {
          "duration": 0.08108100000000462,
          "durationTicks": 24,
          "midi": 72,
          "name": "C5",
          "ticks": 14976,
          "time": 50.594544,
          "velocity": 0.5905511811023622
        },
        {
          "duration": 0.08108100000000462,
          "durationTicks": 24,
          "midi": 65,
          "name": "F4",
          "ticks": 14976,
          "time": 50.594544,
          "velocity": 0.5905511811023622
        },
        {
          "duration": 0.08108100000000462,
          "durationTicks": 24,
          "midi": 77,
          "name": "F5",
          "ticks": 14976,
          "time": 50.594544,
          "velocity": 0.5905511811023622
        },
        {
          "duration": 0.08108100000000462,
          "durationTicks": 24,
          "midi": 65,
          "name": "F4",
          "ticks": 15048,
          "time": 50.837787,
          "velocity": 0.5905511811023622
        },
        {
          "duration": 0.08108100000000462,
          "durationTicks": 24,
          "midi": 69,
          "name": "A4",
          "ticks": 15048,
          "time": 50.837787,
          "velocity": 0.5905511811023622
        },
        {
          "duration": 0.08108100000000462,
          "durationTicks": 24,
          "midi": 72,
          "name": "C5",
          "ticks": 15048,
          "time": 50.837787,
          "velocity": 0.5905511811023622
        },
        {
          "duration": 0.08108100000000462,
          "durationTicks": 24,
          "midi": 77,
          "name": "F5",
          "ticks": 15048,
          "time": 50.837787,
          "velocity": 0.5905511811023622
        },
        {
          "duration": 0.04054049999999876,
          "durationTicks": 12,
          "midi": 72,
          "name": "C5",
          "ticks": 15120,
          "time": 51.08103,
          "velocity": 0.5905511811023622
        },
        {
          "duration": 0.04054049999999876,
          "durationTicks": 12,
          "midi": 72,
          "name": "C5",
          "ticks": 15144,
          "time": 51.162111,
          "velocity": 0.5905511811023622
        },
        {
          "duration": 0.16216200000000214,
          "durationTicks": 48,
          "midi": 69,
          "name": "A4",
          "ticks": 15168,
          "time": 51.243192,
          "velocity": 0.5905511811023622
        },
        {
          "duration": 0.16216200000000214,
          "durationTicks": 48,
          "midi": 65,
          "name": "F4",
          "ticks": 15168,
          "time": 51.243192,
          "velocity": 0.5905511811023622
        },
        {
          "duration": 0.08108099999999752,
          "durationTicks": 24,
          "midi": 81,
          "name": "A5",
          "ticks": 15216,
          "time": 51.405354,
          "velocity": 0.5905511811023622
        },
        {
          "duration": 0.08108099999999752,
          "durationTicks": 24,
          "midi": 77,
          "name": "F5",
          "ticks": 15216,
          "time": 51.405354,
          "velocity": 0.5905511811023622
        },
        {
          "duration": 0.08108100000000462,
          "durationTicks": 24,
          "midi": 77,
          "name": "F5",
          "ticks": 15264,
          "time": 51.567516,
          "velocity": 0.5905511811023622
        },
        {
          "duration": 0.08108100000000462,
          "durationTicks": 24,
          "midi": 73,
          "name": "C#5",
          "ticks": 15264,
          "time": 51.567516,
          "velocity": 0.5905511811023622
        },
        {
          "duration": 0.08108099999999752,
          "durationTicks": 24,
          "midi": 72,
          "name": "C5",
          "ticks": 15288,
          "time": 51.648597,
          "velocity": 0.5905511811023622
        },
        {
          "duration": 0.08108099999999752,
          "durationTicks": 24,
          "midi": 75,
          "name": "D#5",
          "ticks": 15288,
          "time": 51.648597,
          "velocity": 0.5905511811023622
        },
        {
          "duration": 0.16216200000000214,
          "durationTicks": 48,
          "midi": 73,
          "name": "C#5",
          "ticks": 15312,
          "time": 51.729678,
          "velocity": 0.5905511811023622
        },
        {
          "duration": 0.08108099999999752,
          "durationTicks": 24,
          "midi": 69,
          "name": "A4",
          "ticks": 15312,
          "time": 51.729678,
          "velocity": 0.5905511811023622
        },
        {
          "duration": 0.08108100000000462,
          "durationTicks": 24,
          "midi": 65,
          "name": "F4",
          "ticks": 15336,
          "time": 51.810759,
          "velocity": 0.5905511811023622
        },
        {
          "duration": 0.16216199999999503,
          "durationTicks": 48,
          "midi": 82,
          "name": "A#5",
          "ticks": 15360,
          "time": 51.89184,
          "velocity": 0.5905511811023622
        },
        {
          "duration": 0.16216199999999503,
          "durationTicks": 48,
          "midi": 70,
          "name": "A#4",
          "ticks": 15360,
          "time": 51.89184,
          "velocity": 0.5905511811023622
        },
        {
          "duration": 0.16216199999999503,
          "durationTicks": 48,
          "midi": 73,
          "name": "C#5",
          "ticks": 15360,
          "time": 51.89184,
          "velocity": 0.5905511811023622
        },
        {
          "duration": 0.16216199999999503,
          "durationTicks": 48,
          "midi": 77,
          "name": "F5",
          "ticks": 15360,
          "time": 51.89184,
          "velocity": 0.5905511811023622
        },
        {
          "duration": 0.08108099999999752,
          "durationTicks": 24,
          "midi": 73,
          "name": "C#5",
          "ticks": 15432,
          "time": 52.135083,
          "velocity": 0.5905511811023622
        },
        {
          "duration": 0.08108099999999752,
          "durationTicks": 24,
          "midi": 70,
          "name": "A#4",
          "ticks": 15432,
          "time": 52.135083,
          "velocity": 0.5905511811023622
        },
        {
          "duration": 0.08108099999999752,
          "durationTicks": 24,
          "midi": 65,
          "name": "F4",
          "ticks": 15432,
          "time": 52.135083,
          "velocity": 0.5905511811023622
        },
        {
          "duration": 0.08108099999999752,
          "durationTicks": 24,
          "midi": 70,
          "name": "A#4",
          "ticks": 15504,
          "time": 52.378326,
          "velocity": 0.5905511811023622
        },
        {
          "duration": 0.08108100000000462,
          "durationTicks": 24,
          "midi": 70,
          "name": "A#4",
          "ticks": 15528,
          "time": 52.459407,
          "velocity": 0.5905511811023622
        },
        {
          "duration": 0.16216199999999503,
          "durationTicks": 48,
          "midi": 68,
          "name": "G#4",
          "ticks": 15552,
          "time": 52.540488,
          "velocity": 0.5905511811023622
        },
        {
          "duration": 0.16216199999999503,
          "durationTicks": 48,
          "midi": 73,
          "name": "C#5",
          "ticks": 15552,
          "time": 52.540488,
          "velocity": 0.5905511811023622
        },
        {
          "duration": 0.16216199999999503,
          "durationTicks": 48,
          "midi": 80,
          "name": "G#5",
          "ticks": 15624,
          "time": 52.783731,
          "velocity": 0.5905511811023622
        },
        {
          "duration": 0.16216199999999503,
          "durationTicks": 48,
          "midi": 77,
          "name": "F5",
          "ticks": 15624,
          "time": 52.783731,
          "velocity": 0.5905511811023622
        },
        {
          "duration": 0.08108100000000462,
          "durationTicks": 24,
          "midi": 73,
          "name": "C#5",
          "ticks": 15672,
          "time": 52.945893,
          "velocity": 0.5905511811023622
        },
        {
          "duration": 0.08108099999999752,
          "durationTicks": 24,
          "midi": 70,
          "name": "A#4",
          "ticks": 15696,
          "time": 53.026974,
          "velocity": 0.5905511811023622
        },
        {
          "duration": 0.08108099999999752,
          "durationTicks": 24,
          "midi": 65,
          "name": "F4",
          "ticks": 15720,
          "time": 53.108055,
          "velocity": 0.5905511811023622
        },
        {
          "duration": 0.12162150000000338,
          "durationTicks": 36,
          "midi": 67,
          "name": "G4",
          "ticks": 15744,
          "time": 53.189136,
          "velocity": 0.5905511811023622
        },
        {
          "duration": 0.12162150000000338,
          "durationTicks": 36,
          "midi": 70,
          "name": "A#4",
          "ticks": 15744,
          "time": 53.189136,
          "velocity": 0.5905511811023622
        },
        {
          "duration": 0.12162150000000338,
          "durationTicks": 36,
          "midi": 75,
          "name": "D#5",
          "ticks": 15744,
          "time": 53.189136,
          "velocity": 0.5905511811023622
        },
        {
          "duration": 0.12162150000000338,
          "durationTicks": 36,
          "midi": 79,
          "name": "G5",
          "ticks": 15744,
          "time": 53.189136,
          "velocity": 0.5905511811023622
        },
        {
          "duration": 0.08108100000000462,
          "durationTicks": 24,
          "midi": 79,
          "name": "G5",
          "ticks": 15816,
          "time": 53.432379,
          "velocity": 0.5905511811023622
        },
        {
          "duration": 0.08108100000000462,
          "durationTicks": 24,
          "midi": 70,
          "name": "A#4",
          "ticks": 15816,
          "time": 53.432379,
          "velocity": 0.5905511811023622
        },
        {
          "duration": 0.08108100000000462,
          "durationTicks": 24,
          "midi": 75,
          "name": "D#5",
          "ticks": 15816,
          "time": 53.432379,
          "velocity": 0.5905511811023622
        },
        {
          "duration": 0.08108100000000462,
          "durationTicks": 24,
          "midi": 67,
          "name": "G4",
          "ticks": 15816,
          "time": 53.432379,
          "velocity": 0.5905511811023622
        },
        {
          "duration": 0.08108099999999752,
          "durationTicks": 24,
          "midi": 67,
          "name": "G4",
          "ticks": 15864,
          "time": 53.594541,
          "velocity": 0.5905511811023622
        },
        {
          "duration": 0.08108100000000462,
          "durationTicks": 24,
          "midi": 63,
          "name": "D#4",
          "ticks": 15888,
          "time": 53.675622,
          "velocity": 0.5905511811023622
        },
        {
          "duration": 0.08108099999999752,
          "durationTicks": 24,
          "midi": 58,
          "name": "A#3",
          "ticks": 15912,
          "time": 53.756703,
          "velocity": 0.5905511811023622
        },
        {
          "duration": 0.16216200000000214,
          "durationTicks": 48,
          "midi": 70,
          "name": "A#4",
          "ticks": 15936,
          "time": 53.837784,
          "velocity": 0.5905511811023622
        },
        {
          "duration": 0.16216200000000214,
          "durationTicks": 48,
          "midi": 75,
          "name": "D#5",
          "ticks": 15936,
          "time": 53.837784,
          "velocity": 0.5905511811023622
        },
        {
          "duration": 0.16216200000000214,
          "durationTicks": 48,
          "midi": 79,
          "name": "G5",
          "ticks": 15936,
          "time": 53.837784,
          "velocity": 0.5905511811023622
        },
        {
          "duration": 0.08108099999999752,
          "durationTicks": 24,
          "midi": 79,
          "name": "G5",
          "ticks": 15984,
          "time": 53.999946,
          "velocity": 0.5905511811023622
        },
        {
          "duration": 0.08108099999999752,
          "durationTicks": 24,
          "midi": 82,
          "name": "A#5",
          "ticks": 15984,
          "time": 53.999946,
          "velocity": 0.5905511811023622
        },
        {
          "duration": 0.08108099999999752,
          "durationTicks": 24,
          "midi": 85,
          "name": "C#6",
          "ticks": 15984,
          "time": 53.999946,
          "velocity": 0.5905511811023622
        },
        {
          "duration": 0.08108099999999752,
          "durationTicks": 24,
          "midi": 79,
          "name": "G5",
          "ticks": 16032,
          "time": 54.162108,
          "velocity": 0.5905511811023622
        },
        {
          "duration": 0.08108099999999752,
          "durationTicks": 24,
          "midi": 75,
          "name": "D#5",
          "ticks": 16056,
          "time": 54.243189,
          "velocity": 0.5905511811023622
        },
        {
          "duration": 0.08108100000000462,
          "durationTicks": 24,
          "midi": 70,
          "name": "A#4",
          "ticks": 16080,
          "time": 54.32427,
          "velocity": 0.5905511811023622
        },
        {
          "duration": 0.08108099999999752,
          "durationTicks": 24,
          "midi": 67,
          "name": "G4",
          "ticks": 16104,
          "time": 54.405351,
          "velocity": 0.5905511811023622
        },
        {
          "duration": 0.08108099999999752,
          "durationTicks": 24,
          "midi": 70,
          "name": "A#4",
          "ticks": 16128,
          "time": 54.486432,
          "velocity": 0.5905511811023622
        },
        {
          "duration": 0.08108099999999752,
          "durationTicks": 24,
          "midi": 66,
          "name": "F#4",
          "ticks": 16128,
          "time": 54.486432,
          "velocity": 0.5905511811023622
        },
        {
          "duration": 0.08108099999999752,
          "durationTicks": 24,
          "midi": 73,
          "name": "C#5",
          "ticks": 16128,
          "time": 54.486432,
          "velocity": 0.5905511811023622
        },
        {
          "duration": 0.08108099999999752,
          "durationTicks": 24,
          "midi": 77,
          "name": "F5",
          "ticks": 16128,
          "time": 54.486432,
          "velocity": 0.5905511811023622
        },
        {
          "duration": 0.08108099999999752,
          "durationTicks": 24,
          "midi": 66,
          "name": "F#4",
          "ticks": 16200,
          "time": 54.729675,
          "velocity": 0.5905511811023622
        },
        {
          "duration": 0.08108099999999752,
          "durationTicks": 24,
          "midi": 70,
          "name": "A#4",
          "ticks": 16200,
          "time": 54.729675,
          "velocity": 0.5905511811023622
        },
        {
          "duration": 0.08108099999999752,
          "durationTicks": 24,
          "midi": 73,
          "name": "C#5",
          "ticks": 16200,
          "time": 54.729675,
          "velocity": 0.5905511811023622
        },
        {
          "duration": 0.08108099999999752,
          "durationTicks": 24,
          "midi": 77,
          "name": "F5",
          "ticks": 16200,
          "time": 54.729675,
          "velocity": 0.5905511811023622
        },
        {
          "duration": 0.08108099999999752,
          "durationTicks": 24,
          "midi": 70,
          "name": "A#4",
          "ticks": 16248,
          "time": 54.891837,
          "velocity": 0.5905511811023622
        },
        {
          "duration": 0.08108099999999752,
          "durationTicks": 24,
          "midi": 66,
          "name": "F#4",
          "ticks": 16272,
          "time": 54.972918,
          "velocity": 0.5905511811023622
        },
        {
          "duration": 0.08108100000000462,
          "durationTicks": 24,
          "midi": 78,
          "name": "F#5",
          "ticks": 16296,
          "time": 55.053999,
          "velocity": 0.5905511811023622
        },
        {
          "duration": 0.08108099999999752,
          "durationTicks": 24,
          "midi": 66,
          "name": "F#4",
          "ticks": 16320,
          "time": 55.13508,
          "velocity": 0.5905511811023622
        },
        {
          "duration": 0.08108099999999752,
          "durationTicks": 24,
          "midi": 70,
          "name": "A#4",
          "ticks": 16320,
          "time": 55.13508,
          "velocity": 0.5905511811023622
        },
        {
          "duration": 0.08108099999999752,
          "durationTicks": 24,
          "midi": 73,
          "name": "C#5",
          "ticks": 16320,
          "time": 55.13508,
          "velocity": 0.5905511811023622
        },
        {
          "duration": 0.08108099999999752,
          "durationTicks": 24,
          "midi": 77,
          "name": "F5",
          "ticks": 16320,
          "time": 55.13508,
          "velocity": 0.5905511811023622
        },
        {
          "duration": 0.08108099999999752,
          "durationTicks": 24,
          "midi": 80,
          "name": "G#5",
          "ticks": 16344,
          "time": 55.216161,
          "velocity": 0.5905511811023622
        },
        {
          "duration": 0.08108100000000462,
          "durationTicks": 24,
          "midi": 78,
          "name": "F#5",
          "ticks": 16368,
          "time": 55.297242,
          "velocity": 0.5905511811023622
        },
        {
          "duration": 0.08108099999999752,
          "durationTicks": 24,
          "midi": 77,
          "name": "F5",
          "ticks": 16392,
          "time": 55.378323,
          "velocity": 0.5905511811023622
        },
        {
          "duration": 0.08108099999999752,
          "durationTicks": 24,
          "midi": 73,
          "name": "C#5",
          "ticks": 16392,
          "time": 55.378323,
          "velocity": 0.5905511811023622
        },
        {
          "duration": 0.08108099999999752,
          "durationTicks": 24,
          "midi": 70,
          "name": "A#4",
          "ticks": 16392,
          "time": 55.378323,
          "velocity": 0.5905511811023622
        },
        {
          "duration": 0.08108099999999752,
          "durationTicks": 24,
          "midi": 66,
          "name": "F#4",
          "ticks": 16392,
          "time": 55.378323,
          "velocity": 0.5905511811023622
        },
        {
          "duration": 0.08108100000000462,
          "durationTicks": 24,
          "midi": 70,
          "name": "A#4",
          "ticks": 16440,
          "time": 55.540485,
          "velocity": 0.5905511811023622
        },
        {
          "duration": 0.16216200000000214,
          "durationTicks": 48,
          "midi": 78,
          "name": "F#5",
          "ticks": 16464,
          "time": 55.621566,
          "velocity": 0.5905511811023622
        },
        {
          "duration": 0.08108100000000462,
          "durationTicks": 24,
          "midi": 70,
          "name": "A#4",
          "ticks": 16488,
          "time": 55.702647,
          "velocity": 0.5905511811023622
        },
        {
          "duration": 0.08108099999999752,
          "durationTicks": 24,
          "midi": 77,
          "name": "F5",
          "ticks": 16512,
          "time": 55.783728,
          "velocity": 0.5905511811023622
        },
        {
          "duration": 0.08108099999999752,
          "durationTicks": 24,
          "midi": 65,
          "name": "F4",
          "ticks": 16512,
          "time": 55.783728,
          "velocity": 0.5905511811023622
        },
        {
          "duration": 0.08108099999999752,
          "durationTicks": 24,
          "midi": 72,
          "name": "C5",
          "ticks": 16512,
          "time": 55.783728,
          "velocity": 0.5905511811023622
        },
        {
          "duration": 0.08108099999999752,
          "durationTicks": 24,
          "midi": 69,
          "name": "A4",
          "ticks": 16512,
          "time": 55.783728,
          "velocity": 0.5905511811023622
        },
        {
          "duration": 0.08108099999999752,
          "durationTicks": 24,
          "midi": 65,
          "name": "F4",
          "ticks": 16584,
          "time": 56.026971,
          "velocity": 0.5905511811023622
        },
        {
          "duration": 0.08108099999999752,
          "durationTicks": 24,
          "midi": 69,
          "name": "A4",
          "ticks": 16584,
          "time": 56.026971,
          "velocity": 0.5905511811023622
        },
        {
          "duration": 0.08108099999999752,
          "durationTicks": 24,
          "midi": 72,
          "name": "C5",
          "ticks": 16584,
          "time": 56.026971,
          "velocity": 0.5905511811023622
        },
        {
          "duration": 0.08108099999999752,
          "durationTicks": 24,
          "midi": 77,
          "name": "F5",
          "ticks": 16584,
          "time": 56.026971,
          "velocity": 0.5905511811023622
        },
        {
          "duration": 0.04054049999999876,
          "durationTicks": 12,
          "midi": 72,
          "name": "C5",
          "ticks": 16656,
          "time": 56.270214,
          "velocity": 0.5905511811023622
        },
        {
          "duration": 0.04054049999999876,
          "durationTicks": 12,
          "midi": 72,
          "name": "C5",
          "ticks": 16680,
          "time": 56.351295,
          "velocity": 0.5905511811023622
        },
        {
          "duration": 0.16216200000000214,
          "durationTicks": 48,
          "midi": 69,
          "name": "A4",
          "ticks": 16704,
          "time": 56.432376,
          "velocity": 0.5905511811023622
        },
        {
          "duration": 0.16216200000000214,
          "durationTicks": 48,
          "midi": 65,
          "name": "F4",
          "ticks": 16704,
          "time": 56.432376,
          "velocity": 0.5905511811023622
        },
        {
          "duration": 0.08108099999999752,
          "durationTicks": 24,
          "midi": 77,
          "name": "F5",
          "ticks": 16752,
          "time": 56.594538,
          "velocity": 0.5905511811023622
        },
        {
          "duration": 0.08108099999999752,
          "durationTicks": 24,
          "midi": 81,
          "name": "A5",
          "ticks": 16752,
          "time": 56.594538,
          "velocity": 0.5905511811023622
        },
        {
          "duration": 0.08108099999999752,
          "durationTicks": 24,
          "midi": 77,
          "name": "F5",
          "ticks": 16800,
          "time": 56.7567,
          "velocity": 0.5905511811023622
        },
        {
          "duration": 0.08108099999999752,
          "durationTicks": 24,
          "midi": 73,
          "name": "C#5",
          "ticks": 16800,
          "time": 56.7567,
          "velocity": 0.5905511811023622
        },
        {
          "duration": 0.08108099999999752,
          "durationTicks": 24,
          "midi": 75,
          "name": "D#5",
          "ticks": 16824,
          "time": 56.837781,
          "velocity": 0.5905511811023622
        },
        {
          "duration": 0.08108099999999752,
          "durationTicks": 24,
          "midi": 72,
          "name": "C5",
          "ticks": 16824,
          "time": 56.837781,
          "velocity": 0.5905511811023622
        },
        {
          "duration": 0.08108100000000462,
          "durationTicks": 24,
          "midi": 69,
          "name": "A4",
          "ticks": 16848,
          "time": 56.918862,
          "velocity": 0.5905511811023622
        },
        {
          "duration": 0.16216200000000214,
          "durationTicks": 48,
          "midi": 73,
          "name": "C#5",
          "ticks": 16848,
          "time": 56.918862,
          "velocity": 0.5905511811023622
        },
        {
          "duration": 0.08108099999999752,
          "durationTicks": 24,
          "midi": 65,
          "name": "F4",
          "ticks": 16872,
          "time": 56.999943,
          "velocity": 0.5905511811023622
        },
        {
          "duration": 0.16216200000000214,
          "durationTicks": 48,
          "midi": 77,
          "name": "F5",
          "ticks": 16896,
          "time": 57.081024,
          "velocity": 0.5905511811023622
        },
        {
          "duration": 0.16216200000000214,
          "durationTicks": 48,
          "midi": 73,
          "name": "C#5",
          "ticks": 16896,
          "time": 57.081024,
          "velocity": 0.5905511811023622
        },
        {
          "duration": 0.16216200000000214,
          "durationTicks": 48,
          "midi": 70,
          "name": "A#4",
          "ticks": 16896,
          "time": 57.081024,
          "velocity": 0.5905511811023622
        },
        {
          "duration": 0.16216200000000214,
          "durationTicks": 48,
          "midi": 82,
          "name": "A#5",
          "ticks": 16896,
          "time": 57.081024,
          "velocity": 0.5905511811023622
        },
        {
          "duration": 0.08108100000000462,
          "durationTicks": 24,
          "midi": 73,
          "name": "C#5",
          "ticks": 16968,
          "time": 57.324267,
          "velocity": 0.5905511811023622
        },
        {
          "duration": 0.08108100000000462,
          "durationTicks": 24,
          "midi": 70,
          "name": "A#4",
          "ticks": 16968,
          "time": 57.324267,
          "velocity": 0.5905511811023622
        },
        {
          "duration": 0.08108100000000462,
          "durationTicks": 24,
          "midi": 65,
          "name": "F4",
          "ticks": 16968,
          "time": 57.324267,
          "velocity": 0.5905511811023622
        },
        {
          "duration": 0.08108100000000462,
          "durationTicks": 24,
          "midi": 70,
          "name": "A#4",
          "ticks": 17040,
          "time": 57.56751,
          "velocity": 0.5905511811023622
        },
        {
          "duration": 0.08108099999999752,
          "durationTicks": 24,
          "midi": 70,
          "name": "A#4",
          "ticks": 17064,
          "time": 57.648591,
          "velocity": 0.5905511811023622
        },
        {
          "duration": 0.16216200000000214,
          "durationTicks": 48,
          "midi": 73,
          "name": "C#5",
          "ticks": 17088,
          "time": 57.729672,
          "velocity": 0.5905511811023622
        },
        {
          "duration": 0.16216200000000214,
          "durationTicks": 48,
          "midi": 68,
          "name": "G#4",
          "ticks": 17088,
          "time": 57.729672,
          "velocity": 0.5905511811023622
        },
        {
          "duration": 0.16216200000000214,
          "durationTicks": 48,
          "midi": 80,
          "name": "G#5",
          "ticks": 17160,
          "time": 57.972915,
          "velocity": 0.5905511811023622
        },
        {
          "duration": 0.16216200000000214,
          "durationTicks": 48,
          "midi": 77,
          "name": "F5",
          "ticks": 17160,
          "time": 57.972915,
          "velocity": 0.5905511811023622
        },
        {
          "duration": 0.16216200000000214,
          "durationTicks": 48,
          "midi": 73,
          "name": "C#5",
          "ticks": 17160,
          "time": 57.972915,
          "velocity": 0.5905511811023622
        },
        {
          "duration": 0.08108099999999752,
          "durationTicks": 24,
          "midi": 73,
          "name": "C#5",
          "ticks": 17208,
          "time": 58.135077,
          "velocity": 0.5905511811023622
        },
        {
          "duration": 0.08108099999999752,
          "durationTicks": 24,
          "midi": 70,
          "name": "A#4",
          "ticks": 17232,
          "time": 58.216158,
          "velocity": 0.5905511811023622
        },
        {
          "duration": 0.08108100000000462,
          "durationTicks": 24,
          "midi": 65,
          "name": "F4",
          "ticks": 17256,
          "time": 58.297239,
          "velocity": 0.5905511811023622
        },
        {
          "duration": 0.08108099999999752,
          "durationTicks": 24,
          "midi": 75,
          "name": "D#5",
          "ticks": 17280,
          "time": 58.37832,
          "velocity": 0.5905511811023622
        },
        {
          "duration": 0.08108099999999752,
          "durationTicks": 24,
          "midi": 63,
          "name": "D#4",
          "ticks": 17280,
          "time": 58.37832,
          "velocity": 0.5905511811023622
        },
        {
          "duration": 0.08108099999999752,
          "durationTicks": 24,
          "midi": 72,
          "name": "C5",
          "ticks": 17280,
          "time": 58.37832,
          "velocity": 0.5905511811023622
        },
        {
          "duration": 0.08108099999999752,
          "durationTicks": 24,
          "midi": 68,
          "name": "G#4",
          "ticks": 17280,
          "time": 58.37832,
          "velocity": 0.5905511811023622
        },
        {
          "duration": 0.08108100000000462,
          "durationTicks": 24,
          "midi": 72,
          "name": "C5",
          "ticks": 17328,
          "time": 58.540482,
          "velocity": 0.5905511811023622
        },
        {
          "duration": 0.08108099999999752,
          "durationTicks": 24,
          "midi": 75,
          "name": "D#5",
          "ticks": 17352,
          "time": 58.621563,
          "velocity": 0.5905511811023622
        },
        {
          "duration": 0.08108099999999752,
          "durationTicks": 24,
          "midi": 63,
          "name": "D#4",
          "ticks": 17352,
          "time": 58.621563,
          "velocity": 0.5905511811023622
        },
        {
          "duration": 0.08108099999999752,
          "durationTicks": 24,
          "midi": 72,
          "name": "C5",
          "ticks": 17352,
          "time": 58.621563,
          "velocity": 0.5905511811023622
        },
        {
          "duration": 0.08108099999999752,
          "durationTicks": 24,
          "midi": 68,
          "name": "G#4",
          "ticks": 17352,
          "time": 58.621563,
          "velocity": 0.5905511811023622
        },
        {
          "duration": 0.08108100000000462,
          "durationTicks": 24,
          "midi": 72,
          "name": "C5",
          "ticks": 17400,
          "time": 58.783725,
          "velocity": 0.5905511811023622
        },
        {
          "duration": 0.08108099999999752,
          "durationTicks": 24,
          "midi": 68,
          "name": "G#4",
          "ticks": 17424,
          "time": 58.864806,
          "velocity": 0.5905511811023622
        },
        {
          "duration": 0.08108100000000462,
          "durationTicks": 24,
          "midi": 61,
          "name": "C#4",
          "ticks": 17448,
          "time": 58.945887,
          "velocity": 0.5905511811023622
        },
        {
          "duration": 0.12162149999999627,
          "durationTicks": 36,
          "midi": 68,
          "name": "G#4",
          "ticks": 17472,
          "time": 59.026968000000004,
          "velocity": 0.5905511811023622
        },
        {
          "duration": 0.12162149999999627,
          "durationTicks": 36,
          "midi": 73,
          "name": "C#5",
          "ticks": 17472,
          "time": 59.026968000000004,
          "velocity": 0.5905511811023622
        },
        {
          "duration": 0.12162149999999627,
          "durationTicks": 36,
          "midi": 77,
          "name": "F5",
          "ticks": 17472,
          "time": 59.026968000000004,
          "velocity": 0.5905511811023622
        },
        {
          "duration": 0.08108100000000462,
          "durationTicks": 24,
          "midi": 73,
          "name": "C#5",
          "ticks": 17520,
          "time": 59.18913,
          "velocity": 0.5905511811023622
        },
        {
          "duration": 0.08108100000000462,
          "durationTicks": 24,
          "midi": 77,
          "name": "F5",
          "ticks": 17520,
          "time": 59.18913,
          "velocity": 0.5905511811023622
        },
        {
          "duration": 0.12162150000000338,
          "durationTicks": 36,
          "midi": 68,
          "name": "G#4",
          "ticks": 17520,
          "time": 59.18913,
          "velocity": 0.5905511811023622
        },
        {
          "duration": 0.08108099999999752,
          "durationTicks": 24,
          "midi": 73,
          "name": "C#5",
          "ticks": 17568,
          "time": 59.351292,
          "velocity": 0.5905511811023622
        },
        {
          "duration": 0.08108100000000462,
          "durationTicks": 24,
          "midi": 65,
          "name": "F4",
          "ticks": 17592,
          "time": 59.432373,
          "velocity": 0.5905511811023622
        },
        {
          "duration": 0.08108099999999752,
          "durationTicks": 24,
          "midi": 61,
          "name": "C#4",
          "ticks": 17616,
          "time": 59.513454,
          "velocity": 0.5905511811023622
        },
        {
          "duration": 0.08108099999999752,
          "durationTicks": 24,
          "midi": 56,
          "name": "G#3",
          "ticks": 17640,
          "time": 59.594535,
          "velocity": 0.5905511811023622
        },
        {
          "duration": 0.08108100000000462,
          "durationTicks": 24,
          "midi": 70,
          "name": "A#4",
          "ticks": 17664,
          "time": 59.675616,
          "velocity": 0.5905511811023622
        },
        {
          "duration": 0.08108100000000462,
          "durationTicks": 24,
          "midi": 66,
          "name": "F#4",
          "ticks": 17664,
          "time": 59.675616,
          "velocity": 0.5905511811023622
        },
        {
          "duration": 0.08108100000000462,
          "durationTicks": 24,
          "midi": 73,
          "name": "C#5",
          "ticks": 17664,
          "time": 59.675616,
          "velocity": 0.5905511811023622
        },
        {
          "duration": 0.08108100000000462,
          "durationTicks": 24,
          "midi": 77,
          "name": "F5",
          "ticks": 17664,
          "time": 59.675616,
          "velocity": 0.5905511811023622
        },
        {
          "duration": 0.08108100000000462,
          "durationTicks": 24,
          "midi": 77,
          "name": "F5",
          "ticks": 17736,
          "time": 59.918859,
          "velocity": 0.5905511811023622
        },
        {
          "duration": 0.08108100000000462,
          "durationTicks": 24,
          "midi": 73,
          "name": "C#5",
          "ticks": 17736,
          "time": 59.918859,
          "velocity": 0.5905511811023622
        },
        {
          "duration": 0.08108100000000462,
          "durationTicks": 24,
          "midi": 70,
          "name": "A#4",
          "ticks": 17736,
          "time": 59.918859,
          "velocity": 0.5905511811023622
        },
        {
          "duration": 0.08108100000000462,
          "durationTicks": 24,
          "midi": 66,
          "name": "F#4",
          "ticks": 17736,
          "time": 59.918859,
          "velocity": 0.5905511811023622
        },
        {
          "duration": 0.08108099999999752,
          "durationTicks": 24,
          "midi": 70,
          "name": "A#4",
          "ticks": 17784,
          "time": 60.081021,
          "velocity": 0.5905511811023622
        },
        {
          "duration": 0.08108100000000462,
          "durationTicks": 24,
          "midi": 66,
          "name": "F#4",
          "ticks": 17808,
          "time": 60.162102,
          "velocity": 0.5905511811023622
        },
        {
          "duration": 0.08108099999999752,
          "durationTicks": 24,
          "midi": 78,
          "name": "F#5",
          "ticks": 17832,
          "time": 60.243183,
          "velocity": 0.5905511811023622
        },
        {
          "duration": 0.08108099999999752,
          "durationTicks": 24,
          "midi": 77,
          "name": "F5",
          "ticks": 17856,
          "time": 60.324264,
          "velocity": 0.5905511811023622
        },
        {
          "duration": 0.08108099999999752,
          "durationTicks": 24,
          "midi": 73,
          "name": "C#5",
          "ticks": 17856,
          "time": 60.324264,
          "velocity": 0.5905511811023622
        },
        {
          "duration": 0.08108099999999752,
          "durationTicks": 24,
          "midi": 70,
          "name": "A#4",
          "ticks": 17856,
          "time": 60.324264,
          "velocity": 0.5905511811023622
        },
        {
          "duration": 0.08108099999999752,
          "durationTicks": 24,
          "midi": 66,
          "name": "F#4",
          "ticks": 17856,
          "time": 60.324264,
          "velocity": 0.5905511811023622
        },
        {
          "duration": 0.08108100000000462,
          "durationTicks": 24,
          "midi": 80,
          "name": "G#5",
          "ticks": 17880,
          "time": 60.405345,
          "velocity": 0.5905511811023622
        },
        {
          "duration": 0.08108099999999752,
          "durationTicks": 24,
          "midi": 78,
          "name": "F#5",
          "ticks": 17904,
          "time": 60.486426,
          "velocity": 0.5905511811023622
        },
        {
          "duration": 0.08108100000000462,
          "durationTicks": 24,
          "midi": 66,
          "name": "F#4",
          "ticks": 17928,
          "time": 60.567507,
          "velocity": 0.5905511811023622
        },
        {
          "duration": 0.08108100000000462,
          "durationTicks": 24,
          "midi": 70,
          "name": "A#4",
          "ticks": 17928,
          "time": 60.567507,
          "velocity": 0.5905511811023622
        },
        {
          "duration": 0.08108100000000462,
          "durationTicks": 24,
          "midi": 73,
          "name": "C#5",
          "ticks": 17928,
          "time": 60.567507,
          "velocity": 0.5905511811023622
        },
        {
          "duration": 0.08108100000000462,
          "durationTicks": 24,
          "midi": 77,
          "name": "F5",
          "ticks": 17928,
          "time": 60.567507,
          "velocity": 0.5905511811023622
        },
        {
          "duration": 0.08108099999999752,
          "durationTicks": 24,
          "midi": 70,
          "name": "A#4",
          "ticks": 17976,
          "time": 60.729669,
          "velocity": 0.5905511811023622
        },
        {
          "duration": 0.16216200000000214,
          "durationTicks": 48,
          "midi": 78,
          "name": "F#5",
          "ticks": 18000,
          "time": 60.81075,
          "velocity": 0.5905511811023622
        },
        {
          "duration": 0.08108099999999752,
          "durationTicks": 24,
          "midi": 70,
          "name": "A#4",
          "ticks": 18024,
          "time": 60.891831,
          "velocity": 0.5905511811023622
        },
        {
          "duration": 0.08108099999999752,
          "durationTicks": 24,
          "midi": 77,
          "name": "F5",
          "ticks": 18048,
          "time": 60.972912,
          "velocity": 0.5905511811023622
        },
        {
          "duration": 0.08108099999999752,
          "durationTicks": 24,
          "midi": 65,
          "name": "F4",
          "ticks": 18048,
          "time": 60.972912,
          "velocity": 0.5905511811023622
        },
        {
          "duration": 0.08108099999999752,
          "durationTicks": 24,
          "midi": 72,
          "name": "C5",
          "ticks": 18048,
          "time": 60.972912,
          "velocity": 0.5905511811023622
        },
        {
          "duration": 0.08108099999999752,
          "durationTicks": 24,
          "midi": 69,
          "name": "A4",
          "ticks": 18048,
          "time": 60.972912,
          "velocity": 0.5905511811023622
        },
        {
          "duration": 0.08108099999999752,
          "durationTicks": 24,
          "midi": 77,
          "name": "F5",
          "ticks": 18120,
          "time": 61.216155,
          "velocity": 0.5905511811023622
        },
        {
          "duration": 0.08108099999999752,
          "durationTicks": 24,
          "midi": 72,
          "name": "C5",
          "ticks": 18120,
          "time": 61.216155,
          "velocity": 0.5905511811023622
        },
        {
          "duration": 0.08108099999999752,
          "durationTicks": 24,
          "midi": 69,
          "name": "A4",
          "ticks": 18120,
          "time": 61.216155,
          "velocity": 0.5905511811023622
        },
        {
          "duration": 0.08108099999999752,
          "durationTicks": 24,
          "midi": 65,
          "name": "F4",
          "ticks": 18120,
          "time": 61.216155,
          "velocity": 0.5905511811023622
        },
        {
          "duration": 0.04054049999999876,
          "durationTicks": 12,
          "midi": 72,
          "name": "C5",
          "ticks": 18192,
          "time": 61.459398,
          "velocity": 0.5905511811023622
        },
        {
          "duration": 0.040540500000005864,
          "durationTicks": 12,
          "midi": 72,
          "name": "C5",
          "ticks": 18216,
          "time": 61.540479,
          "velocity": 0.5905511811023622
        },
        {
          "duration": 0.16216199999999503,
          "durationTicks": 48,
          "midi": 69,
          "name": "A4",
          "ticks": 18240,
          "time": 61.62156,
          "velocity": 0.5905511811023622
        },
        {
          "duration": 0.16216199999999503,
          "durationTicks": 48,
          "midi": 65,
          "name": "F4",
          "ticks": 18240,
          "time": 61.62156,
          "velocity": 0.5905511811023622
        },
        {
          "duration": 0.08108100000000462,
          "durationTicks": 24,
          "midi": 81,
          "name": "A5",
          "ticks": 18288,
          "time": 61.783722,
          "velocity": 0.5905511811023622
        },
        {
          "duration": 0.08108100000000462,
          "durationTicks": 24,
          "midi": 77,
          "name": "F5",
          "ticks": 18288,
          "time": 61.783722,
          "velocity": 0.5905511811023622
        },
        {
          "duration": 0.08108099999999752,
          "durationTicks": 24,
          "midi": 77,
          "name": "F5",
          "ticks": 18336,
          "time": 61.945884,
          "velocity": 0.5905511811023622
        },
        {
          "duration": 0.08108099999999752,
          "durationTicks": 24,
          "midi": 73,
          "name": "C#5",
          "ticks": 18336,
          "time": 61.945884,
          "velocity": 0.5905511811023622
        },
        {
          "duration": 0.08108100000000462,
          "durationTicks": 24,
          "midi": 72,
          "name": "C5",
          "ticks": 18360,
          "time": 62.026965,
          "velocity": 0.5905511811023622
        },
        {
          "duration": 0.08108100000000462,
          "durationTicks": 24,
          "midi": 75,
          "name": "D#5",
          "ticks": 18360,
          "time": 62.026965,
          "velocity": 0.5905511811023622
        },
        {
          "duration": 0.08108099999999752,
          "durationTicks": 24,
          "midi": 69,
          "name": "A4",
          "ticks": 18384,
          "time": 62.108046,
          "velocity": 0.5905511811023622
        },
        {
          "duration": 0.16216199999999503,
          "durationTicks": 48,
          "midi": 73,
          "name": "C#5",
          "ticks": 18384,
          "time": 62.108046,
          "velocity": 0.5905511811023622
        },
        {
          "duration": 0.08108099999999752,
          "durationTicks": 24,
          "midi": 65,
          "name": "F4",
          "ticks": 18408,
          "time": 62.189127,
          "velocity": 0.5905511811023622
        },
        {
          "duration": 0.16216200000000214,
          "durationTicks": 48,
          "midi": 77,
          "name": "F5",
          "ticks": 18432,
          "time": 62.270208,
          "velocity": 0.5905511811023622
        },
        {
          "duration": 0.16216200000000214,
          "durationTicks": 48,
          "midi": 73,
          "name": "C#5",
          "ticks": 18432,
          "time": 62.270208,
          "velocity": 0.5905511811023622
        },
        {
          "duration": 0.16216200000000214,
          "durationTicks": 48,
          "midi": 70,
          "name": "A#4",
          "ticks": 18432,
          "time": 62.270208,
          "velocity": 0.5905511811023622
        },
        {
          "duration": 0.16216200000000214,
          "durationTicks": 48,
          "midi": 82,
          "name": "A#5",
          "ticks": 18432,
          "time": 62.270208,
          "velocity": 0.5905511811023622
        },
        {
          "duration": 0.08108099999999752,
          "durationTicks": 24,
          "midi": 65,
          "name": "F4",
          "ticks": 18504,
          "time": 62.513451,
          "velocity": 0.5905511811023622
        },
        {
          "duration": 0.08108099999999752,
          "durationTicks": 24,
          "midi": 70,
          "name": "A#4",
          "ticks": 18504,
          "time": 62.513451,
          "velocity": 0.5905511811023622
        },
        {
          "duration": 0.08108099999999752,
          "durationTicks": 24,
          "midi": 73,
          "name": "C#5",
          "ticks": 18504,
          "time": 62.513451,
          "velocity": 0.5905511811023622
        },
        {
          "duration": 0.08108099999999752,
          "durationTicks": 24,
          "midi": 70,
          "name": "A#4",
          "ticks": 18576,
          "time": 62.756694,
          "velocity": 0.5905511811023622
        },
        {
          "duration": 0.08108099999999752,
          "durationTicks": 24,
          "midi": 70,
          "name": "A#4",
          "ticks": 18600,
          "time": 62.837775,
          "velocity": 0.5905511811023622
        },
        {
          "duration": 0.16216200000000214,
          "durationTicks": 48,
          "midi": 73,
          "name": "C#5",
          "ticks": 18624,
          "time": 62.918856,
          "velocity": 0.5905511811023622
        },
        {
          "duration": 0.16216200000000214,
          "durationTicks": 48,
          "midi": 68,
          "name": "G#4",
          "ticks": 18624,
          "time": 62.918856,
          "velocity": 0.5905511811023622
        },
        {
          "duration": 0.16216200000000214,
          "durationTicks": 48,
          "midi": 80,
          "name": "G#5",
          "ticks": 18696,
          "time": 63.162099,
          "velocity": 0.5905511811023622
        },
        {
          "duration": 0.16216200000000214,
          "durationTicks": 48,
          "midi": 77,
          "name": "F5",
          "ticks": 18696,
          "time": 63.162099,
          "velocity": 0.5905511811023622
        },
        {
          "duration": 0.08108099999999752,
          "durationTicks": 24,
          "midi": 73,
          "name": "C#5",
          "ticks": 18744,
          "time": 63.324261,
          "velocity": 0.5905511811023622
        },
        {
          "duration": 0.08108100000000462,
          "durationTicks": 24,
          "midi": 70,
          "name": "A#4",
          "ticks": 18768,
          "time": 63.405342,
          "velocity": 0.5905511811023622
        },
        {
          "duration": 0.08108099999999752,
          "durationTicks": 24,
          "midi": 65,
          "name": "F4",
          "ticks": 18792,
          "time": 63.486423,
          "velocity": 0.5905511811023622
        },
        {
          "duration": 0.08108099999999752,
          "durationTicks": 24,
          "midi": 77,
          "name": "F5",
          "ticks": 18816,
          "time": 63.567504,
          "velocity": 0.5826771653543307
        },
        {
          "duration": 0.08108099999999752,
          "durationTicks": 24,
          "midi": 82,
          "name": "A#5",
          "ticks": 18816,
          "time": 63.567504,
          "velocity": 0.5826771653543307
        },
        {
          "duration": 0.08108099999999752,
          "durationTicks": 24,
          "midi": 70,
          "name": "A#4",
          "ticks": 18816,
          "time": 63.567504,
          "velocity": 0.5826771653543307
        },
        {
          "duration": 0.08108100000000462,
          "durationTicks": 24,
          "midi": 77,
          "name": "F5",
          "ticks": 18840,
          "time": 63.648585,
          "velocity": 0.5826771653543307
        },
        {
          "duration": 0.08108099999999752,
          "durationTicks": 24,
          "midi": 73,
          "name": "C#5",
          "ticks": 18864,
          "time": 63.729666,
          "velocity": 0.5826771653543307
        },
        {
          "duration": 0.08108099999999752,
          "durationTicks": 24,
          "midi": 70,
          "name": "A#4",
          "ticks": 18888,
          "time": 63.810747,
          "velocity": 0.5826771653543307
        },
        {
          "duration": 0.08108100000000462,
          "durationTicks": 24,
          "midi": 76,
          "name": "E5",
          "ticks": 18912,
          "time": 63.891828,
          "velocity": 0.5826771653543307
        },
        {
          "duration": 0.08108100000000462,
          "durationTicks": 24,
          "midi": 69,
          "name": "A4",
          "ticks": 18912,
          "time": 63.891828,
          "velocity": 0.5826771653543307
        },
        {
          "duration": 0.08108100000000462,
          "durationTicks": 24,
          "midi": 81,
          "name": "A5",
          "ticks": 18912,
          "time": 63.891828,
          "velocity": 0.5826771653543307
        },
        {
          "duration": 0.08108099999999752,
          "durationTicks": 24,
          "midi": 76,
          "name": "E5",
          "ticks": 18936,
          "time": 63.972909,
          "velocity": 0.5826771653543307
        },
        {
          "duration": 0.08108099999999752,
          "durationTicks": 24,
          "midi": 72,
          "name": "C5",
          "ticks": 18960,
          "time": 64.05399,
          "velocity": 0.5826771653543307
        },
        {
          "duration": 0.08108099999999752,
          "durationTicks": 24,
          "midi": 69,
          "name": "A4",
          "ticks": 18984,
          "time": 64.135071,
          "velocity": 0.5826771653543307
        },
        {
          "duration": 0.08108100000001173,
          "durationTicks": 24,
          "midi": 80,
          "name": "G#5",
          "ticks": 19008,
          "time": 64.216152,
          "velocity": 0.5826771653543307
        },
        {
          "duration": 0.08108100000001173,
          "durationTicks": 24,
          "midi": 68,
          "name": "G#4",
          "ticks": 19008,
          "time": 64.216152,
          "velocity": 0.5826771653543307
        },
        {
          "duration": 0.08108100000001173,
          "durationTicks": 24,
          "midi": 75,
          "name": "D#5",
          "ticks": 19008,
          "time": 64.216152,
          "velocity": 0.5826771653543307
        },
        {
          "duration": 0.08108099999999752,
          "durationTicks": 24,
          "midi": 75,
          "name": "D#5",
          "ticks": 19032,
          "time": 64.297233,
          "velocity": 0.5826771653543307
        },
        {
          "duration": 0.08108099999999752,
          "durationTicks": 24,
          "midi": 71,
          "name": "B4",
          "ticks": 19056,
          "time": 64.378314,
          "velocity": 0.5826771653543307
        },
        {
          "duration": 0.08108099999999752,
          "durationTicks": 24,
          "midi": 68,
          "name": "G#4",
          "ticks": 19080,
          "time": 64.459395,
          "velocity": 0.5826771653543307
        },
        {
          "duration": 0.08108099999999752,
          "durationTicks": 24,
          "midi": 74,
          "name": "D5",
          "ticks": 19104,
          "time": 64.540476,
          "velocity": 0.5826771653543307
        },
        {
          "duration": 0.08108099999999752,
          "durationTicks": 24,
          "midi": 67,
          "name": "G4",
          "ticks": 19104,
          "time": 64.540476,
          "velocity": 0.5826771653543307
        },
        {
          "duration": 0.08108099999999752,
          "durationTicks": 24,
          "midi": 79,
          "name": "G5",
          "ticks": 19104,
          "time": 64.540476,
          "velocity": 0.5826771653543307
        },
        {
          "duration": 0.08108099999999752,
          "durationTicks": 24,
          "midi": 74,
          "name": "D5",
          "ticks": 19128,
          "time": 64.621557,
          "velocity": 0.5826771653543307
        },
        {
          "duration": 0.08108100000001173,
          "durationTicks": 24,
          "midi": 70,
          "name": "A#4",
          "ticks": 19152,
          "time": 64.702638,
          "velocity": 0.5826771653543307
        },
        {
          "duration": 0.08108099999999752,
          "durationTicks": 24,
          "midi": 67,
          "name": "G4",
          "ticks": 19176,
          "time": 64.783719,
          "velocity": 0.5826771653543307
        },
        {
          "duration": 0.08108099999999752,
          "durationTicks": 24,
          "midi": 77,
          "name": "F5",
          "ticks": 29184,
          "time": 98.594496,
          "velocity": 0.6299212598425197
        },
        {
          "duration": 0.08108099999999752,
          "durationTicks": 24,
          "midi": 73,
          "name": "C#5",
          "ticks": 29184,
          "time": 98.594496,
          "velocity": 0.6299212598425197
        },
        {
          "duration": 0.08108099999999752,
          "durationTicks": 24,
          "midi": 66,
          "name": "F#4",
          "ticks": 29184,
          "time": 98.594496,
          "velocity": 0.6299212598425197
        },
        {
          "duration": 0.08108099999999752,
          "durationTicks": 24,
          "midi": 70,
          "name": "A#4",
          "ticks": 29184,
          "time": 98.594496,
          "velocity": 0.6299212598425197
        },
        {
          "duration": 0.08108099999999752,
          "durationTicks": 24,
          "midi": 61,
          "name": "C#4",
          "ticks": 29184,
          "time": 98.594496,
          "velocity": 0.6299212598425197
        },
        {
          "duration": 0.08108099999999752,
          "durationTicks": 24,
          "midi": 54,
          "name": "F#3",
          "ticks": 29184,
          "time": 98.594496,
          "velocity": 0.6299212598425197
        },
        {
          "duration": 0.08108099999999752,
          "durationTicks": 24,
          "midi": 61,
          "name": "C#4",
          "ticks": 29256,
          "time": 98.837739,
          "velocity": 0.6299212598425197
        },
        {
          "duration": 0.08108099999999752,
          "durationTicks": 24,
          "midi": 54,
          "name": "F#3",
          "ticks": 29256,
          "time": 98.837739,
          "velocity": 0.6299212598425197
        },
        {
          "duration": 0.08108099999999752,
          "durationTicks": 24,
          "midi": 66,
          "name": "F#4",
          "ticks": 29256,
          "time": 98.837739,
          "velocity": 0.6299212598425197
        },
        {
          "duration": 0.08108099999999752,
          "durationTicks": 24,
          "midi": 77,
          "name": "F5",
          "ticks": 29256,
          "time": 98.837739,
          "velocity": 0.6299212598425197
        },
        {
          "duration": 0.08108099999999752,
          "durationTicks": 24,
          "midi": 73,
          "name": "C#5",
          "ticks": 29256,
          "time": 98.837739,
          "velocity": 0.6299212598425197
        },
        {
          "duration": 0.08108099999999752,
          "durationTicks": 24,
          "midi": 70,
          "name": "A#4",
          "ticks": 29256,
          "time": 98.837739,
          "velocity": 0.6299212598425197
        },
        {
          "duration": 0.08108100000001173,
          "durationTicks": 24,
          "midi": 70,
          "name": "A#4",
          "ticks": 29304,
          "time": 98.999901,
          "velocity": 0.6299212598425197
        },
        {
          "duration": 0.08108099999999752,
          "durationTicks": 24,
          "midi": 66,
          "name": "F#4",
          "ticks": 29328,
          "time": 99.080982,
          "velocity": 0.6299212598425197
        },
        {
          "duration": 0.08108099999999752,
          "durationTicks": 24,
          "midi": 78,
          "name": "F#5",
          "ticks": 29352,
          "time": 99.162063,
          "velocity": 0.6299212598425197
        },
        {
          "duration": 0.08108099999999752,
          "durationTicks": 24,
          "midi": 61,
          "name": "C#4",
          "ticks": 29376,
          "time": 99.243144,
          "velocity": 0.6299212598425197
        },
        {
          "duration": 0.08108099999999752,
          "durationTicks": 24,
          "midi": 54,
          "name": "F#3",
          "ticks": 29376,
          "time": 99.243144,
          "velocity": 0.6299212598425197
        },
        {
          "duration": 0.08108099999999752,
          "durationTicks": 24,
          "midi": 77,
          "name": "F5",
          "ticks": 29376,
          "time": 99.243144,
          "velocity": 0.6299212598425197
        },
        {
          "duration": 0.08108099999999752,
          "durationTicks": 24,
          "midi": 73,
          "name": "C#5",
          "ticks": 29376,
          "time": 99.243144,
          "velocity": 0.6299212598425197
        },
        {
          "duration": 0.08108099999999752,
          "durationTicks": 24,
          "midi": 70,
          "name": "A#4",
          "ticks": 29376,
          "time": 99.243144,
          "velocity": 0.6299212598425197
        },
        {
          "duration": 0.08108099999999752,
          "durationTicks": 24,
          "midi": 66,
          "name": "F#4",
          "ticks": 29376,
          "time": 99.243144,
          "velocity": 0.6299212598425197
        },
        {
          "duration": 0.08108099999999752,
          "durationTicks": 24,
          "midi": 80,
          "name": "G#5",
          "ticks": 29400,
          "time": 99.324225,
          "velocity": 0.6299212598425197
        },
        {
          "duration": 0.08108099999999752,
          "durationTicks": 24,
          "midi": 78,
          "name": "F#5",
          "ticks": 29424,
          "time": 99.405306,
          "velocity": 0.6299212598425197
        },
        {
          "duration": 0.08108100000001173,
          "durationTicks": 24,
          "midi": 66,
          "name": "F#4",
          "ticks": 29448,
          "time": 99.486387,
          "velocity": 0.6299212598425197
        },
        {
          "duration": 0.08108100000001173,
          "durationTicks": 24,
          "midi": 70,
          "name": "A#4",
          "ticks": 29448,
          "time": 99.486387,
          "velocity": 0.6299212598425197
        },
        {
          "duration": 0.08108100000001173,
          "durationTicks": 24,
          "midi": 73,
          "name": "C#5",
          "ticks": 29448,
          "time": 99.486387,
          "velocity": 0.6299212598425197
        },
        {
          "duration": 0.08108100000001173,
          "durationTicks": 24,
          "midi": 77,
          "name": "F5",
          "ticks": 29448,
          "time": 99.486387,
          "velocity": 0.6299212598425197
        },
        {
          "duration": 0.08108100000001173,
          "durationTicks": 24,
          "midi": 54,
          "name": "F#3",
          "ticks": 29448,
          "time": 99.486387,
          "velocity": 0.6299212598425197
        },
        {
          "duration": 0.08108100000001173,
          "durationTicks": 24,
          "midi": 61,
          "name": "C#4",
          "ticks": 29448,
          "time": 99.486387,
          "velocity": 0.6299212598425197
        },
        {
          "duration": 0.08108099999999752,
          "durationTicks": 24,
          "midi": 70,
          "name": "A#4",
          "ticks": 29496,
          "time": 99.648549,
          "velocity": 0.6299212598425197
        },
        {
          "duration": 0.16216199999999503,
          "durationTicks": 48,
          "midi": 78,
          "name": "F#5",
          "ticks": 29520,
          "time": 99.72963,
          "velocity": 0.6299212598425197
        },
        {
          "duration": 0.08108099999999752,
          "durationTicks": 24,
          "midi": 70,
          "name": "A#4",
          "ticks": 29544,
          "time": 99.810711,
          "velocity": 0.6299212598425197
        },
        {
          "duration": 0.08108100000001173,
          "durationTicks": 24,
          "midi": 77,
          "name": "F5",
          "ticks": 29568,
          "time": 99.891792,
          "velocity": 0.6299212598425197
        },
        {
          "duration": 0.08108100000001173,
          "durationTicks": 24,
          "midi": 65,
          "name": "F4",
          "ticks": 29568,
          "time": 99.891792,
          "velocity": 0.6299212598425197
        },
        {
          "duration": 0.08108100000001173,
          "durationTicks": 24,
          "midi": 72,
          "name": "C5",
          "ticks": 29568,
          "time": 99.891792,
          "velocity": 0.6299212598425197
        },
        {
          "duration": 0.08108100000001173,
          "durationTicks": 24,
          "midi": 69,
          "name": "A4",
          "ticks": 29568,
          "time": 99.891792,
          "velocity": 0.6299212598425197
        },
        {
          "duration": 0.08108100000001173,
          "durationTicks": 24,
          "midi": 53,
          "name": "F3",
          "ticks": 29568,
          "time": 99.891792,
          "velocity": 0.6299212598425197
        },
        {
          "duration": 0.08108100000001173,
          "durationTicks": 24,
          "midi": 60,
          "name": "C4",
          "ticks": 29568,
          "time": 99.891792,
          "velocity": 0.6299212598425197
        },
        {
          "duration": 0.08108099999999752,
          "durationTicks": 24,
          "midi": 65,
          "name": "F4",
          "ticks": 29640,
          "time": 100.135035,
          "velocity": 0.6299212598425197
        },
        {
          "duration": 0.08108099999999752,
          "durationTicks": 24,
          "midi": 69,
          "name": "A4",
          "ticks": 29640,
          "time": 100.135035,
          "velocity": 0.6299212598425197
        },
        {
          "duration": 0.08108099999999752,
          "durationTicks": 24,
          "midi": 72,
          "name": "C5",
          "ticks": 29640,
          "time": 100.135035,
          "velocity": 0.6299212598425197
        },
        {
          "duration": 0.08108099999999752,
          "durationTicks": 24,
          "midi": 77,
          "name": "F5",
          "ticks": 29640,
          "time": 100.135035,
          "velocity": 0.6299212598425197
        },
        {
          "duration": 0.08108099999999752,
          "durationTicks": 24,
          "midi": 60,
          "name": "C4",
          "ticks": 29640,
          "time": 100.135035,
          "velocity": 0.6299212598425197
        },
        {
          "duration": 0.08108099999999752,
          "durationTicks": 24,
          "midi": 53,
          "name": "F3",
          "ticks": 29640,
          "time": 100.135035,
          "velocity": 0.6299212598425197
        },
        {
          "duration": 0.040540500000005864,
          "durationTicks": 12,
          "midi": 72,
          "name": "C5",
          "ticks": 29712,
          "time": 100.378278,
          "velocity": 0.6299212598425197
        },
        {
          "duration": 0.04054049999999165,
          "durationTicks": 12,
          "midi": 72,
          "name": "C5",
          "ticks": 29736,
          "time": 100.459359,
          "velocity": 0.6299212598425197
        },
        {
          "duration": 0.16216199999999503,
          "durationTicks": 48,
          "midi": 53,
          "name": "F3",
          "ticks": 29760,
          "time": 100.54044,
          "velocity": 0.6299212598425197
        },
        {
          "duration": 0.16216199999999503,
          "durationTicks": 48,
          "midi": 60,
          "name": "C4",
          "ticks": 29760,
          "time": 100.54044,
          "velocity": 0.6299212598425197
        },
        {
          "duration": 0.16216199999999503,
          "durationTicks": 48,
          "midi": 65,
          "name": "F4",
          "ticks": 29760,
          "time": 100.54044,
          "velocity": 0.6299212598425197
        },
        {
          "duration": 0.16216199999999503,
          "durationTicks": 48,
          "midi": 69,
          "name": "A4",
          "ticks": 29760,
          "time": 100.54044,
          "velocity": 0.6299212598425197
        },
        {
          "duration": 0.08108099999999752,
          "durationTicks": 24,
          "midi": 77,
          "name": "F5",
          "ticks": 29808,
          "time": 100.702602,
          "velocity": 0.6299212598425197
        },
        {
          "duration": 0.08108099999999752,
          "durationTicks": 24,
          "midi": 81,
          "name": "A5",
          "ticks": 29808,
          "time": 100.702602,
          "velocity": 0.6299212598425197
        },
        {
          "duration": 0.16216200000000924,
          "durationTicks": 48,
          "midi": 60,
          "name": "C4",
          "ticks": 29856,
          "time": 100.864764,
          "velocity": 0.5905511811023622
        },
        {
          "duration": 0.08108100000001173,
          "durationTicks": 24,
          "midi": 77,
          "name": "F5",
          "ticks": 29856,
          "time": 100.864764,
          "velocity": 0.6299212598425197
        },
        {
          "duration": 0.08108100000001173,
          "durationTicks": 24,
          "midi": 73,
          "name": "C#5",
          "ticks": 29856,
          "time": 100.864764,
          "velocity": 0.6299212598425197
        },
        {
          "duration": 0.16216200000000924,
          "durationTicks": 48,
          "midi": 65,
          "name": "F4",
          "ticks": 29856,
          "time": 100.864764,
          "velocity": 0.6299212598425197
        },
        {
          "duration": 0.08108099999999752,
          "durationTicks": 24,
          "midi": 75,
          "name": "D#5",
          "ticks": 29880,
          "time": 100.945845,
          "velocity": 0.6299212598425197
        },
        {
          "duration": 0.08108099999999752,
          "durationTicks": 24,
          "midi": 72,
          "name": "C5",
          "ticks": 29880,
          "time": 100.945845,
          "velocity": 0.6299212598425197
        },
        {
          "duration": 0.08108099999999752,
          "durationTicks": 24,
          "midi": 69,
          "name": "A4",
          "ticks": 29904,
          "time": 101.026926,
          "velocity": 0.6299212598425197
        },
        {
          "duration": 0.16216199999999503,
          "durationTicks": 48,
          "midi": 73,
          "name": "C#5",
          "ticks": 29904,
          "time": 101.026926,
          "velocity": 0.6299212598425197
        },
        {
          "duration": 0.08108099999999752,
          "durationTicks": 24,
          "midi": 65,
          "name": "F4",
          "ticks": 29928,
          "time": 101.108007,
          "velocity": 0.6299212598425197
        },
        {
          "duration": 0.16216200000000924,
          "durationTicks": 48,
          "midi": 58,
          "name": "A#3",
          "ticks": 29952,
          "time": 101.189088,
          "velocity": 0.6299212598425197
        },
        {
          "duration": 0.16216200000000924,
          "durationTicks": 48,
          "midi": 77,
          "name": "F5",
          "ticks": 29952,
          "time": 101.189088,
          "velocity": 0.6299212598425197
        },
        {
          "duration": 0.16216200000000924,
          "durationTicks": 48,
          "midi": 73,
          "name": "C#5",
          "ticks": 29952,
          "time": 101.189088,
          "velocity": 0.6299212598425197
        },
        {
          "duration": 0.16216200000000924,
          "durationTicks": 48,
          "midi": 70,
          "name": "A#4",
          "ticks": 29952,
          "time": 101.189088,
          "velocity": 0.6299212598425197
        },
        {
          "duration": 0.16216200000000924,
          "durationTicks": 48,
          "midi": 82,
          "name": "A#5",
          "ticks": 29952,
          "time": 101.189088,
          "velocity": 0.6299212598425197
        },
        {
          "duration": 0.08108099999999752,
          "durationTicks": 24,
          "midi": 58,
          "name": "A#3",
          "ticks": 30024,
          "time": 101.432331,
          "velocity": 0.6299212598425197
        },
        {
          "duration": 0.08108099999999752,
          "durationTicks": 24,
          "midi": 65,
          "name": "F4",
          "ticks": 30024,
          "time": 101.432331,
          "velocity": 0.6299212598425197
        },
        {
          "duration": 0.08108099999999752,
          "durationTicks": 24,
          "midi": 70,
          "name": "A#4",
          "ticks": 30024,
          "time": 101.432331,
          "velocity": 0.6299212598425197
        },
        {
          "duration": 0.08108099999999752,
          "durationTicks": 24,
          "midi": 73,
          "name": "C#5",
          "ticks": 30024,
          "time": 101.432331,
          "velocity": 0.6299212598425197
        },
        {
          "duration": 0.08108099999999752,
          "durationTicks": 24,
          "midi": 70,
          "name": "A#4",
          "ticks": 30096,
          "time": 101.675574,
          "velocity": 0.6299212598425197
        },
        {
          "duration": 0.08108100000001173,
          "durationTicks": 24,
          "midi": 70,
          "name": "A#4",
          "ticks": 30120,
          "time": 101.756655,
          "velocity": 0.6299212598425197
        },
        {
          "duration": 0.16216199999999503,
          "durationTicks": 48,
          "midi": 68,
          "name": "G#4",
          "ticks": 30144,
          "time": 101.837736,
          "velocity": 0.6299212598425197
        },
        {
          "duration": 0.16216199999999503,
          "durationTicks": 48,
          "midi": 73,
          "name": "C#5",
          "ticks": 30144,
          "time": 101.837736,
          "velocity": 0.6299212598425197
        },
        {
          "duration": 0.16216199999999503,
          "durationTicks": 48,
          "midi": 61,
          "name": "C#4",
          "ticks": 30144,
          "time": 101.837736,
          "velocity": 0.6299212598425197
        },
        {
          "duration": 0.16216199999999503,
          "durationTicks": 48,
          "midi": 65,
          "name": "F4",
          "ticks": 30144,
          "time": 101.837736,
          "velocity": 0.6299212598425197
        },
        {
          "duration": 0.16216199999999503,
          "durationTicks": 48,
          "midi": 65,
          "name": "F4",
          "ticks": 30216,
          "time": 102.080979,
          "velocity": 0.6299212598425197
        },
        {
          "duration": 0.16216199999999503,
          "durationTicks": 48,
          "midi": 80,
          "name": "G#5",
          "ticks": 30216,
          "time": 102.080979,
          "velocity": 0.6299212598425197
        },
        {
          "duration": 0.16216199999999503,
          "durationTicks": 48,
          "midi": 77,
          "name": "F5",
          "ticks": 30216,
          "time": 102.080979,
          "velocity": 0.6299212598425197
        },
        {
          "duration": 0.16216199999999503,
          "durationTicks": 48,
          "midi": 73,
          "name": "C#5",
          "ticks": 30216,
          "time": 102.080979,
          "velocity": 0.6299212598425197
        },
        {
          "duration": 0.08108100000001173,
          "durationTicks": 24,
          "midi": 73,
          "name": "C#5",
          "ticks": 30264,
          "time": 102.243141,
          "velocity": 0.6299212598425197
        },
        {
          "duration": 0.08108099999999752,
          "durationTicks": 24,
          "midi": 70,
          "name": "A#4",
          "ticks": 30288,
          "time": 102.324222,
          "velocity": 0.6299212598425197
        },
        {
          "duration": 0.08108099999999752,
          "durationTicks": 24,
          "midi": 65,
          "name": "F4",
          "ticks": 30312,
          "time": 102.405303,
          "velocity": 0.6299212598425197
        },
        {
          "duration": 0.08108099999999752,
          "durationTicks": 24,
          "midi": 63,
          "name": "D#4",
          "ticks": 30336,
          "time": 102.486384,
          "velocity": 0.6299212598425197
        },
        {
          "duration": 0.08108099999999752,
          "durationTicks": 24,
          "midi": 75,
          "name": "D#5",
          "ticks": 30336,
          "time": 102.486384,
          "velocity": 0.6299212598425197
        },
        {
          "duration": 0.08108099999999752,
          "durationTicks": 24,
          "midi": 56,
          "name": "G#3",
          "ticks": 30336,
          "time": 102.486384,
          "velocity": 0.6299212598425197
        },
        {
          "duration": 0.08108099999999752,
          "durationTicks": 24,
          "midi": 72,
          "name": "C5",
          "ticks": 30336,
          "time": 102.486384,
          "velocity": 0.6299212598425197
        },
        {
          "duration": 0.08108099999999752,
          "durationTicks": 24,
          "midi": 68,
          "name": "G#4",
          "ticks": 30336,
          "time": 102.486384,
          "velocity": 0.6299212598425197
        },
        {
          "duration": 0.08108099999999752,
          "durationTicks": 24,
          "midi": 72,
          "name": "C5",
          "ticks": 30384,
          "time": 102.648546,
          "velocity": 0.6299212598425197
        },
        {
          "duration": 0.08108100000001173,
          "durationTicks": 24,
          "midi": 63,
          "name": "D#4",
          "ticks": 30408,
          "time": 102.729627,
          "velocity": 0.6299212598425197
        },
        {
          "duration": 0.08108100000001173,
          "durationTicks": 24,
          "midi": 68,
          "name": "G#4",
          "ticks": 30408,
          "time": 102.729627,
          "velocity": 0.6299212598425197
        },
        {
          "duration": 0.08108100000001173,
          "durationTicks": 24,
          "midi": 72,
          "name": "C5",
          "ticks": 30408,
          "time": 102.729627,
          "velocity": 0.6299212598425197
        },
        {
          "duration": 0.08108100000001173,
          "durationTicks": 24,
          "midi": 56,
          "name": "G#3",
          "ticks": 30408,
          "time": 102.729627,
          "velocity": 0.6299212598425197
        },
        {
          "duration": 0.08108100000001173,
          "durationTicks": 24,
          "midi": 75,
          "name": "D#5",
          "ticks": 30408,
          "time": 102.729627,
          "velocity": 0.6299212598425197
        },
        {
          "duration": 0.08108099999999752,
          "durationTicks": 24,
          "midi": 72,
          "name": "C5",
          "ticks": 30456,
          "time": 102.891789,
          "velocity": 0.6299212598425197
        },
        {
          "duration": 0.08108099999999752,
          "durationTicks": 24,
          "midi": 68,
          "name": "G#4",
          "ticks": 30480,
          "time": 102.97287,
          "velocity": 0.6299212598425197
        },
        {
          "duration": 0.08108099999999752,
          "durationTicks": 24,
          "midi": 61,
          "name": "C#4",
          "ticks": 30504,
          "time": 103.053951,
          "velocity": 0.6299212598425197
        },
        {
          "duration": 0.12162150000000338,
          "durationTicks": 36,
          "midi": 68,
          "name": "G#4",
          "ticks": 30528,
          "time": 103.135032,
          "velocity": 0.6299212598425197
        },
        {
          "duration": 0.12162150000000338,
          "durationTicks": 36,
          "midi": 73,
          "name": "C#5",
          "ticks": 30528,
          "time": 103.135032,
          "velocity": 0.6299212598425197
        },
        {
          "duration": 0.12162150000000338,
          "durationTicks": 36,
          "midi": 77,
          "name": "F5",
          "ticks": 30528,
          "time": 103.135032,
          "velocity": 0.6299212598425197
        },
        {
          "duration": 0.12162150000000338,
          "durationTicks": 36,
          "midi": 61,
          "name": "C#4",
          "ticks": 30528,
          "time": 103.135032,
          "velocity": 0.6299212598425197
        },
        {
          "duration": 0.12162149999998917,
          "durationTicks": 36,
          "midi": 61,
          "name": "C#4",
          "ticks": 30576,
          "time": 103.297194,
          "velocity": 0.6299212598425197
        },
        {
          "duration": 0.12162149999998917,
          "durationTicks": 36,
          "midi": 68,
          "name": "G#4",
          "ticks": 30576,
          "time": 103.297194,
          "velocity": 0.6299212598425197
        },
        {
          "duration": 0.08108099999999752,
          "durationTicks": 24,
          "midi": 77,
          "name": "F5",
          "ticks": 30576,
          "time": 103.297194,
          "velocity": 0.6299212598425197
        },
        {
          "duration": 0.08108099999999752,
          "durationTicks": 24,
          "midi": 73,
          "name": "C#5",
          "ticks": 30576,
          "time": 103.297194,
          "velocity": 0.6299212598425197
        },
        {
          "duration": 0.08108099999999752,
          "durationTicks": 24,
          "midi": 73,
          "name": "C#5",
          "ticks": 30624,
          "time": 103.459356,
          "velocity": 0.6299212598425197
        },
        {
          "duration": 0.08108099999999752,
          "durationTicks": 24,
          "midi": 65,
          "name": "F4",
          "ticks": 30648,
          "time": 103.540437,
          "velocity": 0.6299212598425197
        },
        {
          "duration": 0.08108100000001173,
          "durationTicks": 24,
          "midi": 61,
          "name": "C#4",
          "ticks": 30672,
          "time": 103.621518,
          "velocity": 0.6299212598425197
        },
        {
          "duration": 0.08108099999999752,
          "durationTicks": 24,
          "midi": 56,
          "name": "G#3",
          "ticks": 30696,
          "time": 103.702599,
          "velocity": 0.6299212598425197
        },
        {
          "duration": 0.08108099999999752,
          "durationTicks": 24,
          "midi": 77,
          "name": "F5",
          "ticks": 30720,
          "time": 103.78368,
          "velocity": 0.6299212598425197
        },
        {
          "duration": 0.08108099999999752,
          "durationTicks": 24,
          "midi": 73,
          "name": "C#5",
          "ticks": 30720,
          "time": 103.78368,
          "velocity": 0.6299212598425197
        },
        {
          "duration": 0.08108099999999752,
          "durationTicks": 24,
          "midi": 66,
          "name": "F#4",
          "ticks": 30720,
          "time": 103.78368,
          "velocity": 0.6299212598425197
        },
        {
          "duration": 0.08108099999999752,
          "durationTicks": 24,
          "midi": 70,
          "name": "A#4",
          "ticks": 30720,
          "time": 103.78368,
          "velocity": 0.6299212598425197
        },
        {
          "duration": 0.08108099999999752,
          "durationTicks": 24,
          "midi": 54,
          "name": "F#3",
          "ticks": 30720,
          "time": 103.78368,
          "velocity": 0.6299212598425197
        },
        {
          "duration": 0.08108099999999752,
          "durationTicks": 24,
          "midi": 61,
          "name": "C#4",
          "ticks": 30720,
          "time": 103.78368,
          "velocity": 0.6299212598425197
        },
        {
          "duration": 0.08108099999999752,
          "durationTicks": 24,
          "midi": 77,
          "name": "F5",
          "ticks": 30792,
          "time": 104.026923,
          "velocity": 0.6299212598425197
        },
        {
          "duration": 0.08108099999999752,
          "durationTicks": 24,
          "midi": 73,
          "name": "C#5",
          "ticks": 30792,
          "time": 104.026923,
          "velocity": 0.6299212598425197
        },
        {
          "duration": 0.08108099999999752,
          "durationTicks": 24,
          "midi": 70,
          "name": "A#4",
          "ticks": 30792,
          "time": 104.026923,
          "velocity": 0.6299212598425197
        },
        {
          "duration": 0.08108099999999752,
          "durationTicks": 24,
          "midi": 66,
          "name": "F#4",
          "ticks": 30792,
          "time": 104.026923,
          "velocity": 0.6299212598425197
        },
        {
          "duration": 0.08108099999999752,
          "durationTicks": 24,
          "midi": 61,
          "name": "C#4",
          "ticks": 30792,
          "time": 104.026923,
          "velocity": 0.6299212598425197
        },
        {
          "duration": 0.08108099999999752,
          "durationTicks": 24,
          "midi": 54,
          "name": "F#3",
          "ticks": 30792,
          "time": 104.026923,
          "velocity": 0.6299212598425197
        },
        {
          "duration": 0.08108099999999752,
          "durationTicks": 24,
          "midi": 70,
          "name": "A#4",
          "ticks": 30840,
          "time": 104.189085,
          "velocity": 0.6299212598425197
        },
        {
          "duration": 0.08108099999999752,
          "durationTicks": 24,
          "midi": 66,
          "name": "F#4",
          "ticks": 30864,
          "time": 104.270166,
          "velocity": 0.6299212598425197
        },
        {
          "duration": 0.08108099999999752,
          "durationTicks": 24,
          "midi": 78,
          "name": "F#5",
          "ticks": 30888,
          "time": 104.351247,
          "velocity": 0.6299212598425197
        },
        {
          "duration": 0.08108099999999752,
          "durationTicks": 24,
          "midi": 61,
          "name": "C#4",
          "ticks": 30912,
          "time": 104.432328,
          "velocity": 0.6299212598425197
        },
        {
          "duration": 0.08108099999999752,
          "durationTicks": 24,
          "midi": 54,
          "name": "F#3",
          "ticks": 30912,
          "time": 104.432328,
          "velocity": 0.6299212598425197
        },
        {
          "duration": 0.08108099999999752,
          "durationTicks": 24,
          "midi": 77,
          "name": "F5",
          "ticks": 30912,
          "time": 104.432328,
          "velocity": 0.6299212598425197
        },
        {
          "duration": 0.08108099999999752,
          "durationTicks": 24,
          "midi": 73,
          "name": "C#5",
          "ticks": 30912,
          "time": 104.432328,
          "velocity": 0.6299212598425197
        },
        {
          "duration": 0.08108099999999752,
          "durationTicks": 24,
          "midi": 70,
          "name": "A#4",
          "ticks": 30912,
          "time": 104.432328,
          "velocity": 0.6299212598425197
        },
        {
          "duration": 0.08108099999999752,
          "durationTicks": 24,
          "midi": 66,
          "name": "F#4",
          "ticks": 30912,
          "time": 104.432328,
          "velocity": 0.6299212598425197
        },
        {
          "duration": 0.08108099999999752,
          "durationTicks": 24,
          "midi": 80,
          "name": "G#5",
          "ticks": 30936,
          "time": 104.513409,
          "velocity": 0.6299212598425197
        },
        {
          "duration": 0.08108100000001173,
          "durationTicks": 24,
          "midi": 78,
          "name": "F#5",
          "ticks": 30960,
          "time": 104.59449,
          "velocity": 0.6299212598425197
        },
        {
          "duration": 0.08108099999999752,
          "durationTicks": 24,
          "midi": 66,
          "name": "F#4",
          "ticks": 30984,
          "time": 104.675571,
          "velocity": 0.6299212598425197
        },
        {
          "duration": 0.08108099999999752,
          "durationTicks": 24,
          "midi": 70,
          "name": "A#4",
          "ticks": 30984,
          "time": 104.675571,
          "velocity": 0.6299212598425197
        },
        {
          "duration": 0.08108099999999752,
          "durationTicks": 24,
          "midi": 73,
          "name": "C#5",
          "ticks": 30984,
          "time": 104.675571,
          "velocity": 0.6299212598425197
        },
        {
          "duration": 0.08108099999999752,
          "durationTicks": 24,
          "midi": 77,
          "name": "F5",
          "ticks": 30984,
          "time": 104.675571,
          "velocity": 0.6299212598425197
        },
        {
          "duration": 0.08108099999999752,
          "durationTicks": 24,
          "midi": 54,
          "name": "F#3",
          "ticks": 30984,
          "time": 104.675571,
          "velocity": 0.6299212598425197
        },
        {
          "duration": 0.08108099999999752,
          "durationTicks": 24,
          "midi": 61,
          "name": "C#4",
          "ticks": 30984,
          "time": 104.675571,
          "velocity": 0.6299212598425197
        },
        {
          "duration": 0.08108099999999752,
          "durationTicks": 24,
          "midi": 70,
          "name": "A#4",
          "ticks": 31032,
          "time": 104.837733,
          "velocity": 0.6299212598425197
        },
        {
          "duration": 0.16216200000000924,
          "durationTicks": 48,
          "midi": 78,
          "name": "F#5",
          "ticks": 31056,
          "time": 104.918814,
          "velocity": 0.6299212598425197
        },
        {
          "duration": 0.08108100000001173,
          "durationTicks": 24,
          "midi": 70,
          "name": "A#4",
          "ticks": 31080,
          "time": 104.999895,
          "velocity": 0.6299212598425197
        },
        {
          "duration": 0.08108099999999752,
          "durationTicks": 24,
          "midi": 77,
          "name": "F5",
          "ticks": 31104,
          "time": 105.080976,
          "velocity": 0.6299212598425197
        },
        {
          "duration": 0.08108099999999752,
          "durationTicks": 24,
          "midi": 65,
          "name": "F4",
          "ticks": 31104,
          "time": 105.080976,
          "velocity": 0.6299212598425197
        },
        {
          "duration": 0.08108099999999752,
          "durationTicks": 24,
          "midi": 72,
          "name": "C5",
          "ticks": 31104,
          "time": 105.080976,
          "velocity": 0.6299212598425197
        },
        {
          "duration": 0.08108099999999752,
          "durationTicks": 24,
          "midi": 69,
          "name": "A4",
          "ticks": 31104,
          "time": 105.080976,
          "velocity": 0.6299212598425197
        },
        {
          "duration": 0.08108099999999752,
          "durationTicks": 24,
          "midi": 60,
          "name": "C4",
          "ticks": 31104,
          "time": 105.080976,
          "velocity": 0.6299212598425197
        },
        {
          "duration": 0.08108099999999752,
          "durationTicks": 24,
          "midi": 53,
          "name": "F3",
          "ticks": 31104,
          "time": 105.080976,
          "velocity": 0.6299212598425197
        },
        {
          "duration": 0.08108099999999752,
          "durationTicks": 24,
          "midi": 53,
          "name": "F3",
          "ticks": 31176,
          "time": 105.324219,
          "velocity": 0.6299212598425197
        },
        {
          "duration": 0.08108099999999752,
          "durationTicks": 24,
          "midi": 60,
          "name": "C4",
          "ticks": 31176,
          "time": 105.324219,
          "velocity": 0.6299212598425197
        },
        {
          "duration": 0.08108099999999752,
          "durationTicks": 24,
          "midi": 65,
          "name": "F4",
          "ticks": 31176,
          "time": 105.324219,
          "velocity": 0.6299212598425197
        },
        {
          "duration": 0.08108099999999752,
          "durationTicks": 24,
          "midi": 69,
          "name": "A4",
          "ticks": 31176,
          "time": 105.324219,
          "velocity": 0.6299212598425197
        },
        {
          "duration": 0.08108099999999752,
          "durationTicks": 24,
          "midi": 72,
          "name": "C5",
          "ticks": 31176,
          "time": 105.324219,
          "velocity": 0.6299212598425197
        },
        {
          "duration": 0.08108099999999752,
          "durationTicks": 24,
          "midi": 77,
          "name": "F5",
          "ticks": 31176,
          "time": 105.324219,
          "velocity": 0.6299212598425197
        },
        {
          "duration": 0.04054049999999165,
          "durationTicks": 12,
          "midi": 72,
          "name": "C5",
          "ticks": 31248,
          "time": 105.567462,
          "velocity": 0.6299212598425197
        },
        {
          "duration": 0.04054049999999165,
          "durationTicks": 12,
          "midi": 72,
          "name": "C5",
          "ticks": 31272,
          "time": 105.648543,
          "velocity": 0.6299212598425197
        },
        {
          "duration": 0.16216199999999503,
          "durationTicks": 48,
          "midi": 65,
          "name": "F4",
          "ticks": 31296,
          "time": 105.729624,
          "velocity": 0.6299212598425197
        },
        {
          "duration": 0.16216199999999503,
          "durationTicks": 48,
          "midi": 69,
          "name": "A4",
          "ticks": 31296,
          "time": 105.729624,
          "velocity": 0.6299212598425197
        },
        {
          "duration": 0.16216199999999503,
          "durationTicks": 48,
          "midi": 60,
          "name": "C4",
          "ticks": 31296,
          "time": 105.729624,
          "velocity": 0.6299212598425197
        },
        {
          "duration": 0.16216199999999503,
          "durationTicks": 48,
          "midi": 53,
          "name": "F3",
          "ticks": 31296,
          "time": 105.729624,
          "velocity": 0.6299212598425197
        },
        {
          "duration": 0.08108099999999752,
          "durationTicks": 24,
          "midi": 77,
          "name": "F5",
          "ticks": 31344,
          "time": 105.891786,
          "velocity": 0.6299212598425197
        },
        {
          "duration": 0.08108099999999752,
          "durationTicks": 24,
          "midi": 81,
          "name": "A5",
          "ticks": 31344,
          "time": 105.891786,
          "velocity": 0.6299212598425197
        },
        {
          "duration": 0.16216199999999503,
          "durationTicks": 48,
          "midi": 60,
          "name": "C4",
          "ticks": 31392,
          "time": 106.053948,
          "velocity": 0.5905511811023622
        },
        {
          "duration": 0.08108099999999752,
          "durationTicks": 24,
          "midi": 73,
          "name": "C#5",
          "ticks": 31392,
          "time": 106.053948,
          "velocity": 0.6299212598425197
        },
        {
          "duration": 0.08108099999999752,
          "durationTicks": 24,
          "midi": 77,
          "name": "F5",
          "ticks": 31392,
          "time": 106.053948,
          "velocity": 0.6299212598425197
        },
        {
          "duration": 0.16216199999999503,
          "durationTicks": 48,
          "midi": 65,
          "name": "F4",
          "ticks": 31392,
          "time": 106.053948,
          "velocity": 0.6299212598425197
        },
        {
          "duration": 0.08108099999999752,
          "durationTicks": 24,
          "midi": 75,
          "name": "D#5",
          "ticks": 31416,
          "time": 106.135029,
          "velocity": 0.6299212598425197
        },
        {
          "duration": 0.08108099999999752,
          "durationTicks": 24,
          "midi": 72,
          "name": "C5",
          "ticks": 31416,
          "time": 106.135029,
          "velocity": 0.6299212598425197
        },
        {
          "duration": 0.08108099999999752,
          "durationTicks": 24,
          "midi": 69,
          "name": "A4",
          "ticks": 31440,
          "time": 106.21611,
          "velocity": 0.6299212598425197
        },
        {
          "duration": 0.16216199999999503,
          "durationTicks": 48,
          "midi": 73,
          "name": "C#5",
          "ticks": 31440,
          "time": 106.21611,
          "velocity": 0.6299212598425197
        },
        {
          "duration": 0.08108099999999752,
          "durationTicks": 24,
          "midi": 65,
          "name": "F4",
          "ticks": 31464,
          "time": 106.297191,
          "velocity": 0.6299212598425197
        },
        {
          "duration": 0.16216200000000924,
          "durationTicks": 48,
          "midi": 82,
          "name": "A#5",
          "ticks": 31488,
          "time": 106.378272,
          "velocity": 0.6299212598425197
        },
        {
          "duration": 0.16216200000000924,
          "durationTicks": 48,
          "midi": 70,
          "name": "A#4",
          "ticks": 31488,
          "time": 106.378272,
          "velocity": 0.6299212598425197
        },
        {
          "duration": 0.16216200000000924,
          "durationTicks": 48,
          "midi": 73,
          "name": "C#5",
          "ticks": 31488,
          "time": 106.378272,
          "velocity": 0.6299212598425197
        },
        {
          "duration": 0.16216200000000924,
          "durationTicks": 48,
          "midi": 77,
          "name": "F5",
          "ticks": 31488,
          "time": 106.378272,
          "velocity": 0.6299212598425197
        },
        {
          "duration": 0.16216200000000924,
          "durationTicks": 48,
          "midi": 58,
          "name": "A#3",
          "ticks": 31488,
          "time": 106.378272,
          "velocity": 0.6299212598425197
        },
        {
          "duration": 0.08108099999999752,
          "durationTicks": 24,
          "midi": 65,
          "name": "F4",
          "ticks": 31560,
          "time": 106.621515,
          "velocity": 0.6299212598425197
        },
        {
          "duration": 0.08108099999999752,
          "durationTicks": 24,
          "midi": 70,
          "name": "A#4",
          "ticks": 31560,
          "time": 106.621515,
          "velocity": 0.6299212598425197
        },
        {
          "duration": 0.08108099999999752,
          "durationTicks": 24,
          "midi": 73,
          "name": "C#5",
          "ticks": 31560,
          "time": 106.621515,
          "velocity": 0.6299212598425197
        },
        {
          "duration": 0.08108099999999752,
          "durationTicks": 24,
          "midi": 58,
          "name": "A#3",
          "ticks": 31560,
          "time": 106.621515,
          "velocity": 0.6299212598425197
        },
        {
          "duration": 0.08108100000001173,
          "durationTicks": 24,
          "midi": 70,
          "name": "A#4",
          "ticks": 31632,
          "time": 106.864758,
          "velocity": 0.6299212598425197
        },
        {
          "duration": 0.08108099999999752,
          "durationTicks": 24,
          "midi": 70,
          "name": "A#4",
          "ticks": 31656,
          "time": 106.945839,
          "velocity": 0.6299212598425197
        },
        {
          "duration": 0.16216199999999503,
          "durationTicks": 48,
          "midi": 68,
          "name": "G#4",
          "ticks": 31680,
          "time": 107.02692,
          "velocity": 0.6299212598425197
        },
        {
          "duration": 0.16216199999999503,
          "durationTicks": 48,
          "midi": 73,
          "name": "C#5",
          "ticks": 31680,
          "time": 107.02692,
          "velocity": 0.6299212598425197
        },
        {
          "duration": 0.16216199999999503,
          "durationTicks": 48,
          "midi": 65,
          "name": "F4",
          "ticks": 31680,
          "time": 107.02692,
          "velocity": 0.6299212598425197
        },
        {
          "duration": 0.16216199999999503,
          "durationTicks": 48,
          "midi": 61,
          "name": "C#4",
          "ticks": 31680,
          "time": 107.02692,
          "velocity": 0.6299212598425197
        },
        {
          "duration": 0.16216200000000924,
          "durationTicks": 48,
          "midi": 80,
          "name": "G#5",
          "ticks": 31752,
          "time": 107.270163,
          "velocity": 0.6299212598425197
        },
        {
          "duration": 0.16216200000000924,
          "durationTicks": 48,
          "midi": 77,
          "name": "F5",
          "ticks": 31752,
          "time": 107.270163,
          "velocity": 0.6299212598425197
        },
        {
          "duration": 0.16216200000000924,
          "durationTicks": 48,
          "midi": 65,
          "name": "F4",
          "ticks": 31752,
          "time": 107.270163,
          "velocity": 0.6299212598425197
        },
        {
          "duration": 0.08108099999999752,
          "durationTicks": 24,
          "midi": 73,
          "name": "C#5",
          "ticks": 31800,
          "time": 107.432325,
          "velocity": 0.6299212598425197
        },
        {
          "duration": 0.08108099999999752,
          "durationTicks": 24,
          "midi": 70,
          "name": "A#4",
          "ticks": 31824,
          "time": 107.513406,
          "velocity": 0.6299212598425197
        },
        {
          "duration": 0.08108099999999752,
          "durationTicks": 24,
          "midi": 65,
          "name": "F4",
          "ticks": 31848,
          "time": 107.594487,
          "velocity": 0.6299212598425197
        },
        {
          "duration": 0.12162150000000338,
          "durationTicks": 36,
          "midi": 67,
          "name": "G4",
          "ticks": 31872,
          "time": 107.675568,
          "velocity": 0.6299212598425197
        },
        {
          "duration": 0.12162150000000338,
          "durationTicks": 36,
          "midi": 70,
          "name": "A#4",
          "ticks": 31872,
          "time": 107.675568,
          "velocity": 0.6299212598425197
        },
        {
          "duration": 0.12162150000000338,
          "durationTicks": 36,
          "midi": 75,
          "name": "D#5",
          "ticks": 31872,
          "time": 107.675568,
          "velocity": 0.6299212598425197
        },
        {
          "duration": 0.12162150000000338,
          "durationTicks": 36,
          "midi": 79,
          "name": "G5",
          "ticks": 31872,
          "time": 107.675568,
          "velocity": 0.6299212598425197
        },
        {
          "duration": 0.12162150000000338,
          "durationTicks": 36,
          "midi": 58,
          "name": "A#3",
          "ticks": 31872,
          "time": 107.675568,
          "velocity": 0.5905511811023622
        },
        {
          "duration": 0.12162150000000338,
          "durationTicks": 36,
          "midi": 63,
          "name": "D#4",
          "ticks": 31872,
          "time": 107.675568,
          "velocity": 0.5905511811023622
        },
        {
          "duration": 0.08108099999999752,
          "durationTicks": 24,
          "midi": 63,
          "name": "D#4",
          "ticks": 31944,
          "time": 107.918811,
          "velocity": 0.5905511811023622
        },
        {
          "duration": 0.08108099999999752,
          "durationTicks": 24,
          "midi": 58,
          "name": "A#3",
          "ticks": 31944,
          "time": 107.918811,
          "velocity": 0.5905511811023622
        },
        {
          "duration": 0.08108099999999752,
          "durationTicks": 24,
          "midi": 79,
          "name": "G5",
          "ticks": 31944,
          "time": 107.918811,
          "velocity": 0.6299212598425197
        },
        {
          "duration": 0.08108099999999752,
          "durationTicks": 24,
          "midi": 70,
          "name": "A#4",
          "ticks": 31944,
          "time": 107.918811,
          "velocity": 0.6299212598425197
        },
        {
          "duration": 0.08108099999999752,
          "durationTicks": 24,
          "midi": 75,
          "name": "D#5",
          "ticks": 31944,
          "time": 107.918811,
          "velocity": 0.6299212598425197
        },
        {
          "duration": 0.08108099999999752,
          "durationTicks": 24,
          "midi": 67,
          "name": "G4",
          "ticks": 31944,
          "time": 107.918811,
          "velocity": 0.6299212598425197
        },
        {
          "duration": 0.08108099999999752,
          "durationTicks": 24,
          "midi": 67,
          "name": "G4",
          "ticks": 31992,
          "time": 108.080973,
          "velocity": 0.6299212598425197
        },
        {
          "duration": 0.08108099999999752,
          "durationTicks": 24,
          "midi": 63,
          "name": "D#4",
          "ticks": 32016,
          "time": 108.162054,
          "velocity": 0.6299212598425197
        },
        {
          "duration": 0.08108100000001173,
          "durationTicks": 24,
          "midi": 58,
          "name": "A#3",
          "ticks": 32040,
          "time": 108.243135,
          "velocity": 0.6299212598425197
        },
        {
          "duration": 0.16216199999999503,
          "durationTicks": 48,
          "midi": 63,
          "name": "D#4",
          "ticks": 32064,
          "time": 108.324216,
          "velocity": 0.5905511811023622
        },
        {
          "duration": 0.16216199999999503,
          "durationTicks": 48,
          "midi": 58,
          "name": "A#3",
          "ticks": 32064,
          "time": 108.324216,
          "velocity": 0.5905511811023622
        },
        {
          "duration": 0.16216199999999503,
          "durationTicks": 48,
          "midi": 70,
          "name": "A#4",
          "ticks": 32064,
          "time": 108.324216,
          "velocity": 0.6299212598425197
        },
        {
          "duration": 0.16216199999999503,
          "durationTicks": 48,
          "midi": 75,
          "name": "D#5",
          "ticks": 32064,
          "time": 108.324216,
          "velocity": 0.6299212598425197
        },
        {
          "duration": 0.16216199999999503,
          "durationTicks": 48,
          "midi": 79,
          "name": "G5",
          "ticks": 32064,
          "time": 108.324216,
          "velocity": 0.6299212598425197
        },
        {
          "duration": 0.08108099999999752,
          "durationTicks": 24,
          "midi": 79,
          "name": "G5",
          "ticks": 32112,
          "time": 108.486378,
          "velocity": 0.6299212598425197
        },
        {
          "duration": 0.08108099999999752,
          "durationTicks": 24,
          "midi": 82,
          "name": "A#5",
          "ticks": 32112,
          "time": 108.486378,
          "velocity": 0.6299212598425197
        },
        {
          "duration": 0.08108099999999752,
          "durationTicks": 24,
          "midi": 85,
          "name": "C#6",
          "ticks": 32112,
          "time": 108.486378,
          "velocity": 0.6299212598425197
        },
        {
          "duration": 0.08108099999999752,
          "durationTicks": 24,
          "midi": 79,
          "name": "G5",
          "ticks": 32160,
          "time": 108.64854,
          "velocity": 0.6299212598425197
        },
        {
          "duration": 0.08108100000001173,
          "durationTicks": 24,
          "midi": 75,
          "name": "D#5",
          "ticks": 32184,
          "time": 108.729621,
          "velocity": 0.6299212598425197
        },
        {
          "duration": 0.08108099999999752,
          "durationTicks": 24,
          "midi": 70,
          "name": "A#4",
          "ticks": 32208,
          "time": 108.810702,
          "velocity": 0.6299212598425197
        },
        {
          "duration": 0.08108099999999752,
          "durationTicks": 24,
          "midi": 67,
          "name": "G4",
          "ticks": 32232,
          "time": 108.891783,
          "velocity": 0.6299212598425197
        },
        {
          "duration": 0.08108099999999752,
          "durationTicks": 24,
          "midi": 77,
          "name": "F5",
          "ticks": 32256,
          "time": 108.972864,
          "velocity": 0.5905511811023622
        },
        {
          "duration": 0.08108099999999752,
          "durationTicks": 24,
          "midi": 73,
          "name": "C#5",
          "ticks": 32256,
          "time": 108.972864,
          "velocity": 0.5905511811023622
        },
        {
          "duration": 0.08108099999999752,
          "durationTicks": 24,
          "midi": 66,
          "name": "F#4",
          "ticks": 32256,
          "time": 108.972864,
          "velocity": 0.5905511811023622
        },
        {
          "duration": 0.08108099999999752,
          "durationTicks": 24,
          "midi": 70,
          "name": "A#4",
          "ticks": 32256,
          "time": 108.972864,
          "velocity": 0.5905511811023622
        },
        {
          "duration": 0.08108100000001173,
          "durationTicks": 24,
          "midi": 66,
          "name": "F#4",
          "ticks": 32328,
          "time": 109.216107,
          "velocity": 0.5905511811023622
        },
        {
          "duration": 0.08108100000001173,
          "durationTicks": 24,
          "midi": 70,
          "name": "A#4",
          "ticks": 32328,
          "time": 109.216107,
          "velocity": 0.5905511811023622
        },
        {
          "duration": 0.08108100000001173,
          "durationTicks": 24,
          "midi": 73,
          "name": "C#5",
          "ticks": 32328,
          "time": 109.216107,
          "velocity": 0.5905511811023622
        },
        {
          "duration": 0.08108100000001173,
          "durationTicks": 24,
          "midi": 77,
          "name": "F5",
          "ticks": 32328,
          "time": 109.216107,
          "velocity": 0.5905511811023622
        },
        {
          "duration": 0.08108099999999752,
          "durationTicks": 24,
          "midi": 70,
          "name": "A#4",
          "ticks": 32376,
          "time": 109.378269,
          "velocity": 0.5905511811023622
        },
        {
          "duration": 0.08108099999999752,
          "durationTicks": 24,
          "midi": 66,
          "name": "F#4",
          "ticks": 32400,
          "time": 109.45935,
          "velocity": 0.5905511811023622
        },
        {
          "duration": 0.08108099999999752,
          "durationTicks": 24,
          "midi": 78,
          "name": "F#5",
          "ticks": 32424,
          "time": 109.540431,
          "velocity": 0.5905511811023622
        },
        {
          "duration": 0.08108100000001173,
          "durationTicks": 24,
          "midi": 66,
          "name": "F#4",
          "ticks": 32448,
          "time": 109.621512,
          "velocity": 0.5905511811023622
        },
        {
          "duration": 0.08108100000001173,
          "durationTicks": 24,
          "midi": 70,
          "name": "A#4",
          "ticks": 32448,
          "time": 109.621512,
          "velocity": 0.5905511811023622
        },
        {
          "duration": 0.08108100000001173,
          "durationTicks": 24,
          "midi": 73,
          "name": "C#5",
          "ticks": 32448,
          "time": 109.621512,
          "velocity": 0.5905511811023622
        },
        {
          "duration": 0.08108100000001173,
          "durationTicks": 24,
          "midi": 77,
          "name": "F5",
          "ticks": 32448,
          "time": 109.621512,
          "velocity": 0.5905511811023622
        },
        {
          "duration": 0.08108099999999752,
          "durationTicks": 24,
          "midi": 80,
          "name": "G#5",
          "ticks": 32472,
          "time": 109.70259300000001,
          "velocity": 0.5905511811023622
        },
        {
          "duration": 0.08108099999999752,
          "durationTicks": 24,
          "midi": 78,
          "name": "F#5",
          "ticks": 32496,
          "time": 109.783674,
          "velocity": 0.5905511811023622
        },
        {
          "duration": 0.08108099999999752,
          "durationTicks": 24,
          "midi": 77,
          "name": "F5",
          "ticks": 32520,
          "time": 109.864755,
          "velocity": 0.5905511811023622
        },
        {
          "duration": 0.08108099999999752,
          "durationTicks": 24,
          "midi": 73,
          "name": "C#5",
          "ticks": 32520,
          "time": 109.864755,
          "velocity": 0.5905511811023622
        },
        {
          "duration": 0.08108099999999752,
          "durationTicks": 24,
          "midi": 70,
          "name": "A#4",
          "ticks": 32520,
          "time": 109.864755,
          "velocity": 0.5905511811023622
        },
        {
          "duration": 0.08108099999999752,
          "durationTicks": 24,
          "midi": 66,
          "name": "F#4",
          "ticks": 32520,
          "time": 109.864755,
          "velocity": 0.5905511811023622
        },
        {
          "duration": 0.08108099999999752,
          "durationTicks": 24,
          "midi": 70,
          "name": "A#4",
          "ticks": 32568,
          "time": 110.026917,
          "velocity": 0.5905511811023622
        },
        {
          "duration": 0.16216200000000924,
          "durationTicks": 48,
          "midi": 78,
          "name": "F#5",
          "ticks": 32592,
          "time": 110.107998,
          "velocity": 0.5905511811023622
        },
        {
          "duration": 0.08108099999999752,
          "durationTicks": 24,
          "midi": 70,
          "name": "A#4",
          "ticks": 32616,
          "time": 110.189079,
          "velocity": 0.5905511811023622
        },
        {
          "duration": 0.08108099999999752,
          "durationTicks": 24,
          "midi": 77,
          "name": "F5",
          "ticks": 32640,
          "time": 110.27016,
          "velocity": 0.5905511811023622
        },
        {
          "duration": 0.08108099999999752,
          "durationTicks": 24,
          "midi": 65,
          "name": "F4",
          "ticks": 32640,
          "time": 110.27016,
          "velocity": 0.5905511811023622
        },
        {
          "duration": 0.08108099999999752,
          "durationTicks": 24,
          "midi": 72,
          "name": "C5",
          "ticks": 32640,
          "time": 110.27016,
          "velocity": 0.5905511811023622
        },
        {
          "duration": 0.08108099999999752,
          "durationTicks": 24,
          "midi": 69,
          "name": "A4",
          "ticks": 32640,
          "time": 110.27016,
          "velocity": 0.5905511811023622
        },
        {
          "duration": 0.08108099999999752,
          "durationTicks": 24,
          "midi": 77,
          "name": "F5",
          "ticks": 32712,
          "time": 110.513403,
          "velocity": 0.5905511811023622
        },
        {
          "duration": 0.08108099999999752,
          "durationTicks": 24,
          "midi": 72,
          "name": "C5",
          "ticks": 32712,
          "time": 110.513403,
          "velocity": 0.5905511811023622
        },
        {
          "duration": 0.08108099999999752,
          "durationTicks": 24,
          "midi": 69,
          "name": "A4",
          "ticks": 32712,
          "time": 110.513403,
          "velocity": 0.5905511811023622
        },
        {
          "duration": 0.08108099999999752,
          "durationTicks": 24,
          "midi": 65,
          "name": "F4",
          "ticks": 32712,
          "time": 110.513403,
          "velocity": 0.5905511811023622
        },
        {
          "duration": 0.04054049999999165,
          "durationTicks": 12,
          "midi": 72,
          "name": "C5",
          "ticks": 32784,
          "time": 110.756646,
          "velocity": 0.5905511811023622
        },
        {
          "duration": 0.040540500000005864,
          "durationTicks": 12,
          "midi": 72,
          "name": "C5",
          "ticks": 32808,
          "time": 110.837727,
          "velocity": 0.5905511811023622
        },
        {
          "duration": 0.16216199999999503,
          "durationTicks": 48,
          "midi": 69,
          "name": "A4",
          "ticks": 32832,
          "time": 110.918808,
          "velocity": 0.5905511811023622
        },
        {
          "duration": 0.16216199999999503,
          "durationTicks": 48,
          "midi": 65,
          "name": "F4",
          "ticks": 32832,
          "time": 110.918808,
          "velocity": 0.5905511811023622
        },
        {
          "duration": 0.08108100000001173,
          "durationTicks": 24,
          "midi": 81,
          "name": "A5",
          "ticks": 32880,
          "time": 111.08097,
          "velocity": 0.5905511811023622
        },
        {
          "duration": 0.08108100000001173,
          "durationTicks": 24,
          "midi": 77,
          "name": "F5",
          "ticks": 32880,
          "time": 111.08097,
          "velocity": 0.5905511811023622
        },
        {
          "duration": 0.08108099999999752,
          "durationTicks": 24,
          "midi": 77,
          "name": "F5",
          "ticks": 32928,
          "time": 111.243132,
          "velocity": 0.5905511811023622
        },
        {
          "duration": 0.08108099999999752,
          "durationTicks": 24,
          "midi": 73,
          "name": "C#5",
          "ticks": 32928,
          "time": 111.243132,
          "velocity": 0.5905511811023622
        },
        {
          "duration": 0.08108099999999752,
          "durationTicks": 24,
          "midi": 72,
          "name": "C5",
          "ticks": 32952,
          "time": 111.324213,
          "velocity": 0.5905511811023622
        },
        {
          "duration": 0.08108099999999752,
          "durationTicks": 24,
          "midi": 75,
          "name": "D#5",
          "ticks": 32952,
          "time": 111.324213,
          "velocity": 0.5905511811023622
        },
        {
          "duration": 0.16216200000000924,
          "durationTicks": 48,
          "midi": 73,
          "name": "C#5",
          "ticks": 32976,
          "time": 111.405294,
          "velocity": 0.5905511811023622
        },
        {
          "duration": 0.08108099999999752,
          "durationTicks": 24,
          "midi": 69,
          "name": "A4",
          "ticks": 32976,
          "time": 111.405294,
          "velocity": 0.5905511811023622
        },
        {
          "duration": 0.08108100000001173,
          "durationTicks": 24,
          "midi": 65,
          "name": "F4",
          "ticks": 33000,
          "time": 111.486375,
          "velocity": 0.5905511811023622
        },
        {
          "duration": 0.16216199999999503,
          "durationTicks": 48,
          "midi": 82,
          "name": "A#5",
          "ticks": 33024,
          "time": 111.567456,
          "velocity": 0.5905511811023622
        },
        {
          "duration": 0.16216199999999503,
          "durationTicks": 48,
          "midi": 70,
          "name": "A#4",
          "ticks": 33024,
          "time": 111.567456,
          "velocity": 0.5905511811023622
        },
        {
          "duration": 0.16216199999999503,
          "durationTicks": 48,
          "midi": 73,
          "name": "C#5",
          "ticks": 33024,
          "time": 111.567456,
          "velocity": 0.5905511811023622
        },
        {
          "duration": 0.16216199999999503,
          "durationTicks": 48,
          "midi": 77,
          "name": "F5",
          "ticks": 33024,
          "time": 111.567456,
          "velocity": 0.5905511811023622
        },
        {
          "duration": 0.08108099999999752,
          "durationTicks": 24,
          "midi": 65,
          "name": "F4",
          "ticks": 33096,
          "time": 111.810699,
          "velocity": 0.5905511811023622
        },
        {
          "duration": 0.08108099999999752,
          "durationTicks": 24,
          "midi": 70,
          "name": "A#4",
          "ticks": 33096,
          "time": 111.810699,
          "velocity": 0.5905511811023622
        },
        {
          "duration": 0.08108099999999752,
          "durationTicks": 24,
          "midi": 73,
          "name": "C#5",
          "ticks": 33096,
          "time": 111.810699,
          "velocity": 0.5905511811023622
        },
        {
          "duration": 0.08108099999999752,
          "durationTicks": 24,
          "midi": 70,
          "name": "A#4",
          "ticks": 33168,
          "time": 112.053942,
          "velocity": 0.5905511811023622
        },
        {
          "duration": 0.08108099999999752,
          "durationTicks": 24,
          "midi": 70,
          "name": "A#4",
          "ticks": 33192,
          "time": 112.135023,
          "velocity": 0.5905511811023622
        },
        {
          "duration": 0.16216199999999503,
          "durationTicks": 48,
          "midi": 68,
          "name": "G#4",
          "ticks": 33216,
          "time": 112.216104,
          "velocity": 0.5905511811023622
        },
        {
          "duration": 0.16216199999999503,
          "durationTicks": 48,
          "midi": 73,
          "name": "C#5",
          "ticks": 33216,
          "time": 112.216104,
          "velocity": 0.5905511811023622
        },
        {
          "duration": 0.16216200000000924,
          "durationTicks": 48,
          "midi": 80,
          "name": "G#5",
          "ticks": 33288,
          "time": 112.459347,
          "velocity": 0.5905511811023622
        },
        {
          "duration": 0.16216200000000924,
          "durationTicks": 48,
          "midi": 77,
          "name": "F5",
          "ticks": 33288,
          "time": 112.459347,
          "velocity": 0.5905511811023622
        },
        {
          "duration": 0.16216200000000924,
          "durationTicks": 48,
          "midi": 73,
          "name": "C#5",
          "ticks": 33288,
          "time": 112.459347,
          "velocity": 0.5905511811023622
        },
        {
          "duration": 0.08108099999999752,
          "durationTicks": 24,
          "midi": 73,
          "name": "C#5",
          "ticks": 33336,
          "time": 112.621509,
          "velocity": 0.5905511811023622
        },
        {
          "duration": 0.08108099999999752,
          "durationTicks": 24,
          "midi": 70,
          "name": "A#4",
          "ticks": 33360,
          "time": 112.70259,
          "velocity": 0.5905511811023622
        },
        {
          "duration": 0.08108099999999752,
          "durationTicks": 24,
          "midi": 65,
          "name": "F4",
          "ticks": 33384,
          "time": 112.783671,
          "velocity": 0.5905511811023622
        },
        {
          "duration": 0.08108100000001173,
          "durationTicks": 24,
          "midi": 68,
          "name": "G#4",
          "ticks": 33408,
          "time": 112.864752,
          "velocity": 0.5905511811023622
        },
        {
          "duration": 0.08108100000001173,
          "durationTicks": 24,
          "midi": 72,
          "name": "C5",
          "ticks": 33408,
          "time": 112.864752,
          "velocity": 0.5905511811023622
        },
        {
          "duration": 0.08108100000001173,
          "durationTicks": 24,
          "midi": 63,
          "name": "D#4",
          "ticks": 33408,
          "time": 112.864752,
          "velocity": 0.5905511811023622
        },
        {
          "duration": 0.08108100000001173,
          "durationTicks": 24,
          "midi": 75,
          "name": "D#5",
          "ticks": 33408,
          "time": 112.864752,
          "velocity": 0.5905511811023622
        },
        {
          "duration": 0.08108099999999752,
          "durationTicks": 24,
          "midi": 72,
          "name": "C5",
          "ticks": 33456,
          "time": 113.026914,
          "velocity": 0.5905511811023622
        },
        {
          "duration": 0.08108099999999752,
          "durationTicks": 24,
          "midi": 68,
          "name": "G#4",
          "ticks": 33480,
          "time": 113.107995,
          "velocity": 0.5905511811023622
        },
        {
          "duration": 0.08108099999999752,
          "durationTicks": 24,
          "midi": 72,
          "name": "C5",
          "ticks": 33480,
          "time": 113.107995,
          "velocity": 0.5905511811023622
        },
        {
          "duration": 0.08108099999999752,
          "durationTicks": 24,
          "midi": 63,
          "name": "D#4",
          "ticks": 33480,
          "time": 113.107995,
          "velocity": 0.5905511811023622
        },
        {
          "duration": 0.08108099999999752,
          "durationTicks": 24,
          "midi": 75,
          "name": "D#5",
          "ticks": 33480,
          "time": 113.107995,
          "velocity": 0.5905511811023622
        },
        {
          "duration": 0.08108099999999752,
          "durationTicks": 24,
          "midi": 72,
          "name": "C5",
          "ticks": 33528,
          "time": 113.270157,
          "velocity": 0.5905511811023622
        },
        {
          "duration": 0.08108100000001173,
          "durationTicks": 24,
          "midi": 68,
          "name": "G#4",
          "ticks": 33552,
          "time": 113.351238,
          "velocity": 0.5905511811023622
        },
        {
          "duration": 0.08108099999999752,
          "durationTicks": 24,
          "midi": 61,
          "name": "C#4",
          "ticks": 33576,
          "time": 113.432319,
          "velocity": 0.5905511811023622
        },
        {
          "duration": 0.12162149999998917,
          "durationTicks": 36,
          "midi": 68,
          "name": "G#4",
          "ticks": 33600,
          "time": 113.5134,
          "velocity": 0.5905511811023622
        },
        {
          "duration": 0.12162149999998917,
          "durationTicks": 36,
          "midi": 73,
          "name": "C#5",
          "ticks": 33600,
          "time": 113.5134,
          "velocity": 0.5905511811023622
        },
        {
          "duration": 0.12162149999998917,
          "durationTicks": 36,
          "midi": 77,
          "name": "F5",
          "ticks": 33600,
          "time": 113.5134,
          "velocity": 0.5905511811023622
        },
        {
          "duration": 0.12162150000000338,
          "durationTicks": 36,
          "midi": 68,
          "name": "G#4",
          "ticks": 33648,
          "time": 113.675562,
          "velocity": 0.5905511811023622
        },
        {
          "duration": 0.08108099999999752,
          "durationTicks": 24,
          "midi": 77,
          "name": "F5",
          "ticks": 33648,
          "time": 113.675562,
          "velocity": 0.5905511811023622
        },
        {
          "duration": 0.08108099999999752,
          "durationTicks": 24,
          "midi": 73,
          "name": "C#5",
          "ticks": 33648,
          "time": 113.675562,
          "velocity": 0.5905511811023622
        },
        {
          "duration": 0.08108100000001173,
          "durationTicks": 24,
          "midi": 73,
          "name": "C#5",
          "ticks": 33696,
          "time": 113.837724,
          "velocity": 0.5905511811023622
        },
        {
          "duration": 0.08108099999999752,
          "durationTicks": 24,
          "midi": 65,
          "name": "F4",
          "ticks": 33720,
          "time": 113.918805,
          "velocity": 0.5905511811023622
        },
        {
          "duration": 0.08108099999999752,
          "durationTicks": 24,
          "midi": 61,
          "name": "C#4",
          "ticks": 33744,
          "time": 113.999886,
          "velocity": 0.5905511811023622
        },
        {
          "duration": 0.08108099999999752,
          "durationTicks": 24,
          "midi": 56,
          "name": "G#3",
          "ticks": 33768,
          "time": 114.080967,
          "velocity": 0.5905511811023622
        },
        {
          "duration": 0.08108099999999752,
          "durationTicks": 24,
          "midi": 77,
          "name": "F5",
          "ticks": 33792,
          "time": 114.162048,
          "velocity": 0.5905511811023622
        },
        {
          "duration": 0.08108099999999752,
          "durationTicks": 24,
          "midi": 73,
          "name": "C#5",
          "ticks": 33792,
          "time": 114.162048,
          "velocity": 0.5905511811023622
        },
        {
          "duration": 0.08108099999999752,
          "durationTicks": 24,
          "midi": 66,
          "name": "F#4",
          "ticks": 33792,
          "time": 114.162048,
          "velocity": 0.5905511811023622
        },
        {
          "duration": 0.08108099999999752,
          "durationTicks": 24,
          "midi": 70,
          "name": "A#4",
          "ticks": 33792,
          "time": 114.162048,
          "velocity": 0.5905511811023622
        },
        {
          "duration": 0.08108099999999752,
          "durationTicks": 24,
          "midi": 77,
          "name": "F5",
          "ticks": 33864,
          "time": 114.405291,
          "velocity": 0.5905511811023622
        },
        {
          "duration": 0.08108099999999752,
          "durationTicks": 24,
          "midi": 73,
          "name": "C#5",
          "ticks": 33864,
          "time": 114.405291,
          "velocity": 0.5905511811023622
        },
        {
          "duration": 0.08108099999999752,
          "durationTicks": 24,
          "midi": 70,
          "name": "A#4",
          "ticks": 33864,
          "time": 114.405291,
          "velocity": 0.5905511811023622
        },
        {
          "duration": 0.08108099999999752,
          "durationTicks": 24,
          "midi": 66,
          "name": "F#4",
          "ticks": 33864,
          "time": 114.405291,
          "velocity": 0.5905511811023622
        },
        {
          "duration": 0.08108099999999752,
          "durationTicks": 24,
          "midi": 70,
          "name": "A#4",
          "ticks": 33912,
          "time": 114.567453,
          "velocity": 0.5905511811023622
        },
        {
          "duration": 0.08108099999999752,
          "durationTicks": 24,
          "midi": 66,
          "name": "F#4",
          "ticks": 33936,
          "time": 114.648534,
          "velocity": 0.5905511811023622
        },
        {
          "duration": 0.08108100000001173,
          "durationTicks": 24,
          "midi": 78,
          "name": "F#5",
          "ticks": 33960,
          "time": 114.729615,
          "velocity": 0.5905511811023622
        },
        {
          "duration": 0.08108099999999752,
          "durationTicks": 24,
          "midi": 77,
          "name": "F5",
          "ticks": 33984,
          "time": 114.81069600000001,
          "velocity": 0.5905511811023622
        },
        {
          "duration": 0.08108099999999752,
          "durationTicks": 24,
          "midi": 73,
          "name": "C#5",
          "ticks": 33984,
          "time": 114.81069600000001,
          "velocity": 0.5905511811023622
        },
        {
          "duration": 0.08108099999999752,
          "durationTicks": 24,
          "midi": 70,
          "name": "A#4",
          "ticks": 33984,
          "time": 114.81069600000001,
          "velocity": 0.5905511811023622
        },
        {
          "duration": 0.08108099999999752,
          "durationTicks": 24,
          "midi": 66,
          "name": "F#4",
          "ticks": 33984,
          "time": 114.81069600000001,
          "velocity": 0.5905511811023622
        },
        {
          "duration": 0.08108099999999752,
          "durationTicks": 24,
          "midi": 80,
          "name": "G#5",
          "ticks": 34008,
          "time": 114.891777,
          "velocity": 0.5905511811023622
        },
        {
          "duration": 0.08108099999999752,
          "durationTicks": 24,
          "midi": 78,
          "name": "F#5",
          "ticks": 34032,
          "time": 114.972858,
          "velocity": 0.5905511811023622
        },
        {
          "duration": 0.08108099999999752,
          "durationTicks": 24,
          "midi": 66,
          "name": "F#4",
          "ticks": 34056,
          "time": 115.053939,
          "velocity": 0.5905511811023622
        },
        {
          "duration": 0.08108099999999752,
          "durationTicks": 24,
          "midi": 70,
          "name": "A#4",
          "ticks": 34056,
          "time": 115.053939,
          "velocity": 0.5905511811023622
        },
        {
          "duration": 0.08108099999999752,
          "durationTicks": 24,
          "midi": 73,
          "name": "C#5",
          "ticks": 34056,
          "time": 115.053939,
          "velocity": 0.5905511811023622
        },
        {
          "duration": 0.08108099999999752,
          "durationTicks": 24,
          "midi": 77,
          "name": "F5",
          "ticks": 34056,
          "time": 115.053939,
          "velocity": 0.5905511811023622
        },
        {
          "duration": 0.08108100000001173,
          "durationTicks": 24,
          "midi": 70,
          "name": "A#4",
          "ticks": 34104,
          "time": 115.216101,
          "velocity": 0.5905511811023622
        },
        {
          "duration": 0.16216199999999503,
          "durationTicks": 48,
          "midi": 78,
          "name": "F#5",
          "ticks": 34128,
          "time": 115.297182,
          "velocity": 0.5905511811023622
        },
        {
          "duration": 0.08108099999999752,
          "durationTicks": 24,
          "midi": 70,
          "name": "A#4",
          "ticks": 34152,
          "time": 115.378263,
          "velocity": 0.5905511811023622
        },
        {
          "duration": 0.08108099999999752,
          "durationTicks": 24,
          "midi": 77,
          "name": "F5",
          "ticks": 34176,
          "time": 115.459344,
          "velocity": 0.5905511811023622
        },
        {
          "duration": 0.08108099999999752,
          "durationTicks": 24,
          "midi": 65,
          "name": "F4",
          "ticks": 34176,
          "time": 115.459344,
          "velocity": 0.5905511811023622
        },
        {
          "duration": 0.08108099999999752,
          "durationTicks": 24,
          "midi": 72,
          "name": "C5",
          "ticks": 34176,
          "time": 115.459344,
          "velocity": 0.5905511811023622
        },
        {
          "duration": 0.08108099999999752,
          "durationTicks": 24,
          "midi": 69,
          "name": "A4",
          "ticks": 34176,
          "time": 115.459344,
          "velocity": 0.5905511811023622
        },
        {
          "duration": 0.08108100000001173,
          "durationTicks": 24,
          "midi": 77,
          "name": "F5",
          "ticks": 34248,
          "time": 115.702587,
          "velocity": 0.5905511811023622
        },
        {
          "duration": 0.08108100000001173,
          "durationTicks": 24,
          "midi": 72,
          "name": "C5",
          "ticks": 34248,
          "time": 115.702587,
          "velocity": 0.5905511811023622
        },
        {
          "duration": 0.08108100000001173,
          "durationTicks": 24,
          "midi": 69,
          "name": "A4",
          "ticks": 34248,
          "time": 115.702587,
          "velocity": 0.5905511811023622
        },
        {
          "duration": 0.08108100000001173,
          "durationTicks": 24,
          "midi": 65,
          "name": "F4",
          "ticks": 34248,
          "time": 115.702587,
          "velocity": 0.5905511811023622
        },
        {
          "duration": 0.040540500000005864,
          "durationTicks": 12,
          "midi": 72,
          "name": "C5",
          "ticks": 34320,
          "time": 115.94583,
          "velocity": 0.5905511811023622
        },
        {
          "duration": 0.040540500000005864,
          "durationTicks": 12,
          "midi": 72,
          "name": "C5",
          "ticks": 34344,
          "time": 116.026911,
          "velocity": 0.5905511811023622
        },
        {
          "duration": 0.16216200000000924,
          "durationTicks": 48,
          "midi": 65,
          "name": "F4",
          "ticks": 34368,
          "time": 116.107992,
          "velocity": 0.5905511811023622
        },
        {
          "duration": 0.16216200000000924,
          "durationTicks": 48,
          "midi": 69,
          "name": "A4",
          "ticks": 34368,
          "time": 116.107992,
          "velocity": 0.5905511811023622
        },
        {
          "duration": 0.08108099999999752,
          "durationTicks": 24,
          "midi": 77,
          "name": "F5",
          "ticks": 34416,
          "time": 116.270154,
          "velocity": 0.5905511811023622
        },
        {
          "duration": 0.08108099999999752,
          "durationTicks": 24,
          "midi": 81,
          "name": "A5",
          "ticks": 34416,
          "time": 116.270154,
          "velocity": 0.5905511811023622
        },
        {
          "duration": 0.08108099999999752,
          "durationTicks": 24,
          "midi": 73,
          "name": "C#5",
          "ticks": 34464,
          "time": 116.432316,
          "velocity": 0.5905511811023622
        },
        {
          "duration": 0.08108099999999752,
          "durationTicks": 24,
          "midi": 77,
          "name": "F5",
          "ticks": 34464,
          "time": 116.432316,
          "velocity": 0.5905511811023622
        },
        {
          "duration": 0.08108099999999752,
          "durationTicks": 24,
          "midi": 72,
          "name": "C5",
          "ticks": 34488,
          "time": 116.513397,
          "velocity": 0.5905511811023622
        },
        {
          "duration": 0.08108099999999752,
          "durationTicks": 24,
          "midi": 75,
          "name": "D#5",
          "ticks": 34488,
          "time": 116.513397,
          "velocity": 0.5905511811023622
        },
        {
          "duration": 0.16216200000000924,
          "durationTicks": 48,
          "midi": 73,
          "name": "C#5",
          "ticks": 34512,
          "time": 116.594478,
          "velocity": 0.5905511811023622
        },
        {
          "duration": 0.08108100000001173,
          "durationTicks": 24,
          "midi": 69,
          "name": "A4",
          "ticks": 34512,
          "time": 116.594478,
          "velocity": 0.5905511811023622
        },
        {
          "duration": 0.08108099999999752,
          "durationTicks": 24,
          "midi": 65,
          "name": "F4",
          "ticks": 34536,
          "time": 116.675559,
          "velocity": 0.5905511811023622
        },
        {
          "duration": 0.16216199999999503,
          "durationTicks": 48,
          "midi": 77,
          "name": "F5",
          "ticks": 34560,
          "time": 116.75664,
          "velocity": 0.5905511811023622
        },
        {
          "duration": 0.16216199999999503,
          "durationTicks": 48,
          "midi": 73,
          "name": "C#5",
          "ticks": 34560,
          "time": 116.75664,
          "velocity": 0.5905511811023622
        },
        {
          "duration": 0.16216199999999503,
          "durationTicks": 48,
          "midi": 70,
          "name": "A#4",
          "ticks": 34560,
          "time": 116.75664,
          "velocity": 0.5905511811023622
        },
        {
          "duration": 0.16216199999999503,
          "durationTicks": 48,
          "midi": 82,
          "name": "A#5",
          "ticks": 34560,
          "time": 116.75664,
          "velocity": 0.5905511811023622
        },
        {
          "duration": 0.08108099999999752,
          "durationTicks": 24,
          "midi": 73,
          "name": "C#5",
          "ticks": 34632,
          "time": 116.999883,
          "velocity": 0.5905511811023622
        },
        {
          "duration": 0.08108099999999752,
          "durationTicks": 24,
          "midi": 70,
          "name": "A#4",
          "ticks": 34632,
          "time": 116.999883,
          "velocity": 0.5905511811023622
        },
        {
          "duration": 0.08108099999999752,
          "durationTicks": 24,
          "midi": 65,
          "name": "F4",
          "ticks": 34632,
          "time": 116.999883,
          "velocity": 0.5905511811023622
        },
        {
          "duration": 0.08108099999999752,
          "durationTicks": 24,
          "midi": 70,
          "name": "A#4",
          "ticks": 34704,
          "time": 117.243126,
          "velocity": 0.5905511811023622
        },
        {
          "duration": 0.08108099999999752,
          "durationTicks": 24,
          "midi": 70,
          "name": "A#4",
          "ticks": 34728,
          "time": 117.324207,
          "velocity": 0.5905511811023622
        },
        {
          "duration": 0.16216199999999503,
          "durationTicks": 48,
          "midi": 73,
          "name": "C#5",
          "ticks": 34752,
          "time": 117.405288,
          "velocity": 0.5905511811023622
        },
        {
          "duration": 0.16216199999999503,
          "durationTicks": 48,
          "midi": 68,
          "name": "G#4",
          "ticks": 34752,
          "time": 117.405288,
          "velocity": 0.5905511811023622
        },
        {
          "duration": 0.16216199999999503,
          "durationTicks": 48,
          "midi": 77,
          "name": "F5",
          "ticks": 34824,
          "time": 117.648531,
          "velocity": 0.5905511811023622
        },
        {
          "duration": 0.16216199999999503,
          "durationTicks": 48,
          "midi": 80,
          "name": "G#5",
          "ticks": 34824,
          "time": 117.648531,
          "velocity": 0.5905511811023622
        },
        {
          "duration": 0.08108099999999752,
          "durationTicks": 24,
          "midi": 73,
          "name": "C#5",
          "ticks": 34872,
          "time": 117.810693,
          "velocity": 0.5905511811023622
        },
        {
          "duration": 0.08108099999999752,
          "durationTicks": 24,
          "midi": 70,
          "name": "A#4",
          "ticks": 34896,
          "time": 117.891774,
          "velocity": 0.5905511811023622
        },
        {
          "duration": 0.08108100000001173,
          "durationTicks": 24,
          "midi": 65,
          "name": "F4",
          "ticks": 34920,
          "time": 117.972855,
          "velocity": 0.5905511811023622
        },
        {
          "duration": 0.08108099999999752,
          "durationTicks": 24,
          "midi": 70,
          "name": "A#4",
          "ticks": 34944,
          "time": 118.05393600000001,
          "velocity": 0.5826771653543307
        },
        {
          "duration": 0.08108099999999752,
          "durationTicks": 24,
          "midi": 82,
          "name": "A#5",
          "ticks": 34944,
          "time": 118.05393600000001,
          "velocity": 0.5826771653543307
        },
        {
          "duration": 0.08108099999999752,
          "durationTicks": 24,
          "midi": 77,
          "name": "F5",
          "ticks": 34944,
          "time": 118.05393600000001,
          "velocity": 0.5826771653543307
        },
        {
          "duration": 0.08108099999999752,
          "durationTicks": 24,
          "midi": 77,
          "name": "F5",
          "ticks": 34968,
          "time": 118.135017,
          "velocity": 0.5826771653543307
        },
        {
          "duration": 0.08108099999999752,
          "durationTicks": 24,
          "midi": 73,
          "name": "C#5",
          "ticks": 34992,
          "time": 118.216098,
          "velocity": 0.5826771653543307
        },
        {
          "duration": 0.08108099999999752,
          "durationTicks": 24,
          "midi": 70,
          "name": "A#4",
          "ticks": 35016,
          "time": 118.297179,
          "velocity": 0.5826771653543307
        },
        {
          "duration": 0.08108099999999752,
          "durationTicks": 24,
          "midi": 81,
          "name": "A5",
          "ticks": 35040,
          "time": 118.37826,
          "velocity": 0.5826771653543307
        },
        {
          "duration": 0.08108099999999752,
          "durationTicks": 24,
          "midi": 69,
          "name": "A4",
          "ticks": 35040,
          "time": 118.37826,
          "velocity": 0.5826771653543307
        },
        {
          "duration": 0.08108099999999752,
          "durationTicks": 24,
          "midi": 76,
          "name": "E5",
          "ticks": 35040,
          "time": 118.37826,
          "velocity": 0.5826771653543307
        },
        {
          "duration": 0.08108100000001173,
          "durationTicks": 24,
          "midi": 76,
          "name": "E5",
          "ticks": 35064,
          "time": 118.459341,
          "velocity": 0.5826771653543307
        },
        {
          "duration": 0.08108099999999752,
          "durationTicks": 24,
          "midi": 72,
          "name": "C5",
          "ticks": 35088,
          "time": 118.540422,
          "velocity": 0.5826771653543307
        },
        {
          "duration": 0.08108099999999752,
          "durationTicks": 24,
          "midi": 69,
          "name": "A4",
          "ticks": 35112,
          "time": 118.621503,
          "velocity": 0.5826771653543307
        },
        {
          "duration": 0.08108099999999752,
          "durationTicks": 24,
          "midi": 80,
          "name": "G#5",
          "ticks": 35136,
          "time": 118.702584,
          "velocity": 0.5826771653543307
        },
        {
          "duration": 0.08108099999999752,
          "durationTicks": 24,
          "midi": 68,
          "name": "G#4",
          "ticks": 35136,
          "time": 118.702584,
          "velocity": 0.5826771653543307
        },
        {
          "duration": 0.08108099999999752,
          "durationTicks": 24,
          "midi": 75,
          "name": "D#5",
          "ticks": 35136,
          "time": 118.702584,
          "velocity": 0.5826771653543307
        },
        {
          "duration": 0.08108099999999752,
          "durationTicks": 24,
          "midi": 75,
          "name": "D#5",
          "ticks": 35160,
          "time": 118.783665,
          "velocity": 0.5826771653543307
        },
        {
          "duration": 0.08108099999999752,
          "durationTicks": 24,
          "midi": 71,
          "name": "B4",
          "ticks": 35184,
          "time": 118.864746,
          "velocity": 0.5826771653543307
        },
        {
          "duration": 0.08108100000001173,
          "durationTicks": 24,
          "midi": 68,
          "name": "G#4",
          "ticks": 35208,
          "time": 118.945827,
          "velocity": 0.5826771653543307
        },
        {
          "duration": 0.08108099999999752,
          "durationTicks": 24,
          "midi": 79,
          "name": "G5",
          "ticks": 35232,
          "time": 119.026908,
          "velocity": 0.5826771653543307
        },
        {
          "duration": 0.08108099999999752,
          "durationTicks": 24,
          "midi": 67,
          "name": "G4",
          "ticks": 35232,
          "time": 119.026908,
          "velocity": 0.5826771653543307
        },
        {
          "duration": 0.08108099999999752,
          "durationTicks": 24,
          "midi": 74,
          "name": "D5",
          "ticks": 35232,
          "time": 119.026908,
          "velocity": 0.5826771653543307
        },
        {
          "duration": 0.08108099999999752,
          "durationTicks": 24,
          "midi": 74,
          "name": "D5",
          "ticks": 35256,
          "time": 119.107989,
          "velocity": 0.5826771653543307
        },
        {
          "duration": 0.08108099999999752,
          "durationTicks": 24,
          "midi": 70,
          "name": "A#4",
          "ticks": 35280,
          "time": 119.18907,
          "velocity": 0.5826771653543307
        },
        {
          "duration": 0.08108099999999752,
          "durationTicks": 24,
          "midi": 67,
          "name": "G4",
          "ticks": 35304,
          "time": 119.270151,
          "velocity": 0.5826771653543307
        },
        {
          "duration": 0.16216199999999503,
          "durationTicks": 48,
          "midi": 83,
          "name": "B5",
          "ticks": 36096,
          "time": 121.945824,
          "velocity": 0.5905511811023622
        },
        {
          "duration": 0.16216199999999503,
          "durationTicks": 48,
          "midi": 71,
          "name": "B4",
          "ticks": 36096,
          "time": 121.945824,
          "velocity": 0.5905511811023622
        },
        {
          "duration": 0.16216199999999503,
          "durationTicks": 48,
          "midi": 74,
          "name": "D5",
          "ticks": 36096,
          "time": 121.945824,
          "velocity": 0.5905511811023622
        },
        {
          "duration": 0.16216199999999503,
          "durationTicks": 48,
          "midi": 78,
          "name": "F#5",
          "ticks": 36096,
          "time": 121.945824,
          "velocity": 0.5905511811023622
        },
        {
          "duration": 0.08108100000001173,
          "durationTicks": 24,
          "midi": 74,
          "name": "D5",
          "ticks": 36168,
          "time": 122.189067,
          "velocity": 0.5905511811023622
        },
        {
          "duration": 0.08108100000001173,
          "durationTicks": 24,
          "midi": 71,
          "name": "B4",
          "ticks": 36168,
          "time": 122.189067,
          "velocity": 0.5905511811023622
        },
        {
          "duration": 0.08108100000001173,
          "durationTicks": 24,
          "midi": 66,
          "name": "F#4",
          "ticks": 36168,
          "time": 122.189067,
          "velocity": 0.5905511811023622
        },
        {
          "duration": 0.08108099999999752,
          "durationTicks": 24,
          "midi": 71,
          "name": "B4",
          "ticks": 36240,
          "time": 122.43231,
          "velocity": 0.5905511811023622
        },
        {
          "duration": 0.08108099999999752,
          "durationTicks": 24,
          "midi": 71,
          "name": "B4",
          "ticks": 36264,
          "time": 122.513391,
          "velocity": 0.5905511811023622
        },
        {
          "duration": 0.16216200000000924,
          "durationTicks": 48,
          "midi": 74,
          "name": "D5",
          "ticks": 36288,
          "time": 122.594472,
          "velocity": 0.5905511811023622
        },
        {
          "duration": 0.16216200000000924,
          "durationTicks": 48,
          "midi": 69,
          "name": "A4",
          "ticks": 36288,
          "time": 122.594472,
          "velocity": 0.5905511811023622
        },
        {
          "duration": 0.16216199999999503,
          "durationTicks": 48,
          "midi": 74,
          "name": "D5",
          "ticks": 36360,
          "time": 122.837715,
          "velocity": 0.5905511811023622
        },
        {
          "duration": 0.16216199999999503,
          "durationTicks": 48,
          "midi": 78,
          "name": "F#5",
          "ticks": 36360,
          "time": 122.837715,
          "velocity": 0.5905511811023622
        },
        {
          "duration": 0.16216199999999503,
          "durationTicks": 48,
          "midi": 81,
          "name": "A5",
          "ticks": 36360,
          "time": 122.837715,
          "velocity": 0.5905511811023622
        },
        {
          "duration": 0.08108099999999752,
          "durationTicks": 24,
          "midi": 74,
          "name": "D5",
          "ticks": 36408,
          "time": 122.999877,
          "velocity": 0.5905511811023622
        },
        {
          "duration": 0.08108100000001173,
          "durationTicks": 24,
          "midi": 71,
          "name": "B4",
          "ticks": 36432,
          "time": 123.080958,
          "velocity": 0.5905511811023622
        },
        {
          "duration": 0.08108099999999752,
          "durationTicks": 24,
          "midi": 66,
          "name": "F#4",
          "ticks": 36456,
          "time": 123.16203900000001,
          "velocity": 0.5905511811023622
        },
        {
          "duration": 0.08108099999999752,
          "durationTicks": 24,
          "midi": 69,
          "name": "A4",
          "ticks": 36480,
          "time": 123.24312,
          "velocity": 0.5905511811023622
        },
        {
          "duration": 0.08108099999999752,
          "durationTicks": 24,
          "midi": 73,
          "name": "C#5",
          "ticks": 36480,
          "time": 123.24312,
          "velocity": 0.5905511811023622
        },
        {
          "duration": 0.08108099999999752,
          "durationTicks": 24,
          "midi": 64,
          "name": "E4",
          "ticks": 36480,
          "time": 123.24312,
          "velocity": 0.5905511811023622
        },
        {
          "duration": 0.08108099999999752,
          "durationTicks": 24,
          "midi": 76,
          "name": "E5",
          "ticks": 36480,
          "time": 123.24312,
          "velocity": 0.5905511811023622
        },
        {
          "duration": 0.08108099999999752,
          "durationTicks": 24,
          "midi": 73,
          "name": "C#5",
          "ticks": 36528,
          "time": 123.405282,
          "velocity": 0.5905511811023622
        },
        {
          "duration": 0.08108099999999752,
          "durationTicks": 24,
          "midi": 69,
          "name": "A4",
          "ticks": 36552,
          "time": 123.486363,
          "velocity": 0.5905511811023622
        },
        {
          "duration": 0.08108099999999752,
          "durationTicks": 24,
          "midi": 73,
          "name": "C#5",
          "ticks": 36552,
          "time": 123.486363,
          "velocity": 0.5905511811023622
        },
        {
          "duration": 0.08108099999999752,
          "durationTicks": 24,
          "midi": 64,
          "name": "E4",
          "ticks": 36552,
          "time": 123.486363,
          "velocity": 0.5905511811023622
        },
        {
          "duration": 0.08108099999999752,
          "durationTicks": 24,
          "midi": 76,
          "name": "E5",
          "ticks": 36552,
          "time": 123.486363,
          "velocity": 0.5905511811023622
        },
        {
          "duration": 0.08108099999999752,
          "durationTicks": 24,
          "midi": 73,
          "name": "C#5",
          "ticks": 36600,
          "time": 123.648525,
          "velocity": 0.5905511811023622
        },
        {
          "duration": 0.08108099999999752,
          "durationTicks": 24,
          "midi": 69,
          "name": "A4",
          "ticks": 36624,
          "time": 123.729606,
          "velocity": 0.5905511811023622
        },
        {
          "duration": 0.08108099999999752,
          "durationTicks": 24,
          "midi": 62,
          "name": "D4",
          "ticks": 36648,
          "time": 123.810687,
          "velocity": 0.5905511811023622
        },
        {
          "duration": 0.12162150000000338,
          "durationTicks": 36,
          "midi": 78,
          "name": "F#5",
          "ticks": 36672,
          "time": 123.891768,
          "velocity": 0.5905511811023622
        },
        {
          "duration": 0.12162150000000338,
          "durationTicks": 36,
          "midi": 74,
          "name": "D5",
          "ticks": 36672,
          "time": 123.891768,
          "velocity": 0.5905511811023622
        },
        {
          "duration": 0.12162150000000338,
          "durationTicks": 36,
          "midi": 69,
          "name": "A4",
          "ticks": 36672,
          "time": 123.891768,
          "velocity": 0.5905511811023622
        },
        {
          "duration": 0.08108100000001173,
          "durationTicks": 24,
          "midi": 74,
          "name": "D5",
          "ticks": 36720,
          "time": 124.05393,
          "velocity": 0.5905511811023622
        },
        {
          "duration": 0.08108100000001173,
          "durationTicks": 24,
          "midi": 78,
          "name": "F#5",
          "ticks": 36720,
          "time": 124.05393,
          "velocity": 0.5905511811023622
        },
        {
          "duration": 0.12162150000000338,
          "durationTicks": 36,
          "midi": 69,
          "name": "A4",
          "ticks": 36720,
          "time": 124.05393,
          "velocity": 0.5905511811023622
        },
        {
          "duration": 0.08108099999999752,
          "durationTicks": 24,
          "midi": 74,
          "name": "D5",
          "ticks": 36768,
          "time": 124.216092,
          "velocity": 0.5905511811023622
        },
        {
          "duration": 0.08108099999999752,
          "durationTicks": 24,
          "midi": 66,
          "name": "F#4",
          "ticks": 36792,
          "time": 124.297173,
          "velocity": 0.5905511811023622
        },
        {
          "duration": 0.08108099999999752,
          "durationTicks": 24,
          "midi": 62,
          "name": "D4",
          "ticks": 36816,
          "time": 124.378254,
          "velocity": 0.5905511811023622
        },
        {
          "duration": 0.08108099999999752,
          "durationTicks": 24,
          "midi": 57,
          "name": "A3",
          "ticks": 36840,
          "time": 124.459335,
          "velocity": 0.5905511811023622
        },
        {
          "duration": 0.08108100000001173,
          "durationTicks": 24,
          "midi": 78,
          "name": "F#5",
          "ticks": 36864,
          "time": 124.540416,
          "velocity": 0.5905511811023622
        },
        {
          "duration": 0.08108100000001173,
          "durationTicks": 24,
          "midi": 74,
          "name": "D5",
          "ticks": 36864,
          "time": 124.540416,
          "velocity": 0.5905511811023622
        },
        {
          "duration": 0.08108100000001173,
          "durationTicks": 24,
          "midi": 67,
          "name": "G4",
          "ticks": 36864,
          "time": 124.540416,
          "velocity": 0.5905511811023622
        },
        {
          "duration": 0.08108100000001173,
          "durationTicks": 24,
          "midi": 71,
          "name": "B4",
          "ticks": 36864,
          "time": 124.540416,
          "velocity": 0.5905511811023622
        },
        {
          "duration": 0.08108099999999752,
          "durationTicks": 24,
          "midi": 67,
          "name": "G4",
          "ticks": 36936,
          "time": 124.783659,
          "velocity": 0.5905511811023622
        },
        {
          "duration": 0.08108099999999752,
          "durationTicks": 24,
          "midi": 71,
          "name": "B4",
          "ticks": 36936,
          "time": 124.783659,
          "velocity": 0.5905511811023622
        },
        {
          "duration": 0.08108099999999752,
          "durationTicks": 24,
          "midi": 74,
          "name": "D5",
          "ticks": 36936,
          "time": 124.783659,
          "velocity": 0.5905511811023622
        },
        {
          "duration": 0.08108099999999752,
          "durationTicks": 24,
          "midi": 78,
          "name": "F#5",
          "ticks": 36936,
          "time": 124.783659,
          "velocity": 0.5905511811023622
        },
        {
          "duration": 0.08108100000001173,
          "durationTicks": 24,
          "midi": 71,
          "name": "B4",
          "ticks": 36984,
          "time": 124.945821,
          "velocity": 0.5905511811023622
        },
        {
          "duration": 0.08108099999999752,
          "durationTicks": 24,
          "midi": 67,
          "name": "G4",
          "ticks": 37008,
          "time": 125.026902,
          "velocity": 0.5905511811023622
        },
        {
          "duration": 0.08108099999999752,
          "durationTicks": 24,
          "midi": 79,
          "name": "G5",
          "ticks": 37032,
          "time": 125.107983,
          "velocity": 0.5905511811023622
        },
        {
          "duration": 0.08108099999999752,
          "durationTicks": 24,
          "midi": 78,
          "name": "F#5",
          "ticks": 37056,
          "time": 125.189064,
          "velocity": 0.5905511811023622
        },
        {
          "duration": 0.08108099999999752,
          "durationTicks": 24,
          "midi": 74,
          "name": "D5",
          "ticks": 37056,
          "time": 125.189064,
          "velocity": 0.5905511811023622
        },
        {
          "duration": 0.08108099999999752,
          "durationTicks": 24,
          "midi": 71,
          "name": "B4",
          "ticks": 37056,
          "time": 125.189064,
          "velocity": 0.5905511811023622
        },
        {
          "duration": 0.08108099999999752,
          "durationTicks": 24,
          "midi": 67,
          "name": "G4",
          "ticks": 37056,
          "time": 125.189064,
          "velocity": 0.5905511811023622
        },
        {
          "duration": 0.08108099999999752,
          "durationTicks": 24,
          "midi": 81,
          "name": "A5",
          "ticks": 37080,
          "time": 125.270145,
          "velocity": 0.5905511811023622
        },
        {
          "duration": 0.08108099999999752,
          "durationTicks": 24,
          "midi": 79,
          "name": "G5",
          "ticks": 37104,
          "time": 125.351226,
          "velocity": 0.5905511811023622
        },
        {
          "duration": 0.08108100000001173,
          "durationTicks": 24,
          "midi": 67,
          "name": "G4",
          "ticks": 37128,
          "time": 125.432307,
          "velocity": 0.5905511811023622
        },
        {
          "duration": 0.08108100000001173,
          "durationTicks": 24,
          "midi": 71,
          "name": "B4",
          "ticks": 37128,
          "time": 125.432307,
          "velocity": 0.5905511811023622
        },
        {
          "duration": 0.08108100000001173,
          "durationTicks": 24,
          "midi": 74,
          "name": "D5",
          "ticks": 37128,
          "time": 125.432307,
          "velocity": 0.5905511811023622
        },
        {
          "duration": 0.08108100000001173,
          "durationTicks": 24,
          "midi": 78,
          "name": "F#5",
          "ticks": 37128,
          "time": 125.432307,
          "velocity": 0.5905511811023622
        },
        {
          "duration": 0.08108099999999752,
          "durationTicks": 24,
          "midi": 71,
          "name": "B4",
          "ticks": 37176,
          "time": 125.594469,
          "velocity": 0.5905511811023622
        },
        {
          "duration": 0.16216199999999503,
          "durationTicks": 48,
          "midi": 79,
          "name": "G5",
          "ticks": 37200,
          "time": 125.67555,
          "velocity": 0.5905511811023622
        },
        {
          "duration": 0.08108099999999752,
          "durationTicks": 24,
          "midi": 71,
          "name": "B4",
          "ticks": 37224,
          "time": 125.756631,
          "velocity": 0.5905511811023622
        },
        {
          "duration": 0.08108099999999752,
          "durationTicks": 24,
          "midi": 70,
          "name": "A#4",
          "ticks": 37248,
          "time": 125.837712,
          "velocity": 0.5905511811023622
        },
        {
          "duration": 0.08108099999999752,
          "durationTicks": 24,
          "midi": 73,
          "name": "C#5",
          "ticks": 37248,
          "time": 125.837712,
          "velocity": 0.5905511811023622
        },
        {
          "duration": 0.08108099999999752,
          "durationTicks": 24,
          "midi": 66,
          "name": "F#4",
          "ticks": 37248,
          "time": 125.837712,
          "velocity": 0.5905511811023622
        },
        {
          "duration": 0.08108099999999752,
          "durationTicks": 24,
          "midi": 78,
          "name": "F#5",
          "ticks": 37248,
          "time": 125.837712,
          "velocity": 0.5905511811023622
        },
        {
          "duration": 0.08108099999999752,
          "durationTicks": 24,
          "midi": 78,
          "name": "F#5",
          "ticks": 37320,
          "time": 126.080955,
          "velocity": 0.5905511811023622
        },
        {
          "duration": 0.08108099999999752,
          "durationTicks": 24,
          "midi": 73,
          "name": "C#5",
          "ticks": 37320,
          "time": 126.080955,
          "velocity": 0.5905511811023622
        },
        {
          "duration": 0.08108099999999752,
          "durationTicks": 24,
          "midi": 70,
          "name": "A#4",
          "ticks": 37320,
          "time": 126.080955,
          "velocity": 0.5905511811023622
        },
        {
          "duration": 0.08108099999999752,
          "durationTicks": 24,
          "midi": 66,
          "name": "F#4",
          "ticks": 37320,
          "time": 126.080955,
          "velocity": 0.5905511811023622
        },
        {
          "duration": 0.040540500000005864,
          "durationTicks": 12,
          "midi": 73,
          "name": "C#5",
          "ticks": 37392,
          "time": 126.324198,
          "velocity": 0.5905511811023622
        },
        {
          "duration": 0.04054049999999165,
          "durationTicks": 12,
          "midi": 73,
          "name": "C#5",
          "ticks": 37416,
          "time": 126.40527900000001,
          "velocity": 0.5905511811023622
        },
        {
          "duration": 0.16216199999999503,
          "durationTicks": 48,
          "midi": 70,
          "name": "A#4",
          "ticks": 37440,
          "time": 126.48636,
          "velocity": 0.5905511811023622
        },
        {
          "duration": 0.16216199999999503,
          "durationTicks": 48,
          "midi": 66,
          "name": "F#4",
          "ticks": 37440,
          "time": 126.48636,
          "velocity": 0.5905511811023622
        },
        {
          "duration": 0.08108099999999752,
          "durationTicks": 24,
          "midi": 82,
          "name": "A#5",
          "ticks": 37488,
          "time": 126.648522,
          "velocity": 0.5905511811023622
        },
        {
          "duration": 0.08108099999999752,
          "durationTicks": 24,
          "midi": 78,
          "name": "F#5",
          "ticks": 37488,
          "time": 126.648522,
          "velocity": 0.5905511811023622
        },
        {
          "duration": 0.08108100000001173,
          "durationTicks": 24,
          "midi": 78,
          "name": "F#5",
          "ticks": 37536,
          "time": 126.810684,
          "velocity": 0.5905511811023622
        },
        {
          "duration": 0.08108100000001173,
          "durationTicks": 24,
          "midi": 74,
          "name": "D5",
          "ticks": 37536,
          "time": 126.810684,
          "velocity": 0.5905511811023622
        },
        {
          "duration": 0.08108099999999752,
          "durationTicks": 24,
          "midi": 76,
          "name": "E5",
          "ticks": 37560,
          "time": 126.891765,
          "velocity": 0.5905511811023622
        },
        {
          "duration": 0.08108099999999752,
          "durationTicks": 24,
          "midi": 73,
          "name": "C#5",
          "ticks": 37560,
          "time": 126.891765,
          "velocity": 0.5905511811023622
        },
        {
          "duration": 0.16216199999999503,
          "durationTicks": 48,
          "midi": 74,
          "name": "D5",
          "ticks": 37584,
          "time": 126.972846,
          "velocity": 0.5905511811023622
        },
        {
          "duration": 0.08108099999999752,
          "durationTicks": 24,
          "midi": 70,
          "name": "A#4",
          "ticks": 37584,
          "time": 126.972846,
          "velocity": 0.5905511811023622
        },
        {
          "duration": 0.08108099999999752,
          "durationTicks": 24,
          "midi": 66,
          "name": "F#4",
          "ticks": 37608,
          "time": 127.053927,
          "velocity": 0.5905511811023622
        },
        {
          "duration": 0.16216199999999503,
          "durationTicks": 48,
          "midi": 83,
          "name": "B5",
          "ticks": 37632,
          "time": 127.135008,
          "velocity": 0.5905511811023622
        },
        {
          "duration": 0.16216199999999503,
          "durationTicks": 48,
          "midi": 71,
          "name": "B4",
          "ticks": 37632,
          "time": 127.135008,
          "velocity": 0.5905511811023622
        },
        {
          "duration": 0.16216199999999503,
          "durationTicks": 48,
          "midi": 74,
          "name": "D5",
          "ticks": 37632,
          "time": 127.135008,
          "velocity": 0.5905511811023622
        },
        {
          "duration": 0.16216199999999503,
          "durationTicks": 48,
          "midi": 78,
          "name": "F#5",
          "ticks": 37632,
          "time": 127.135008,
          "velocity": 0.5905511811023622
        },
        {
          "duration": 0.08108099999999752,
          "durationTicks": 24,
          "midi": 66,
          "name": "F#4",
          "ticks": 37704,
          "time": 127.378251,
          "velocity": 0.5905511811023622
        },
        {
          "duration": 0.08108099999999752,
          "durationTicks": 24,
          "midi": 71,
          "name": "B4",
          "ticks": 37704,
          "time": 127.378251,
          "velocity": 0.5905511811023622
        },
        {
          "duration": 0.08108099999999752,
          "durationTicks": 24,
          "midi": 74,
          "name": "D5",
          "ticks": 37704,
          "time": 127.378251,
          "velocity": 0.5905511811023622
        },
        {
          "duration": 0.08108099999999752,
          "durationTicks": 24,
          "midi": 71,
          "name": "B4",
          "ticks": 37776,
          "time": 127.621494,
          "velocity": 0.5905511811023622
        },
        {
          "duration": 0.08108099999999752,
          "durationTicks": 24,
          "midi": 71,
          "name": "B4",
          "ticks": 37800,
          "time": 127.702575,
          "velocity": 0.5905511811023622
        },
        {
          "duration": 0.16216200000000924,
          "durationTicks": 48,
          "midi": 69,
          "name": "A4",
          "ticks": 37824,
          "time": 127.783656,
          "velocity": 0.5905511811023622
        },
        {
          "duration": 0.16216200000000924,
          "durationTicks": 48,
          "midi": 74,
          "name": "D5",
          "ticks": 37824,
          "time": 127.783656,
          "velocity": 0.5905511811023622
        },
        {
          "duration": 0.16216199999999503,
          "durationTicks": 48,
          "midi": 81,
          "name": "A5",
          "ticks": 37896,
          "time": 128.02689900000001,
          "velocity": 0.5905511811023622
        },
        {
          "duration": 0.16216199999999503,
          "durationTicks": 48,
          "midi": 78,
          "name": "F#5",
          "ticks": 37896,
          "time": 128.02689900000001,
          "velocity": 0.5905511811023622
        },
        {
          "duration": 0.0810809999999833,
          "durationTicks": 24,
          "midi": 74,
          "name": "D5",
          "ticks": 37944,
          "time": 128.189061,
          "velocity": 0.5905511811023622
        },
        {
          "duration": 0.08108100000001173,
          "durationTicks": 24,
          "midi": 71,
          "name": "B4",
          "ticks": 37968,
          "time": 128.270142,
          "velocity": 0.5905511811023622
        },
        {
          "duration": 0.0810809999999833,
          "durationTicks": 24,
          "midi": 66,
          "name": "F#4",
          "ticks": 37992,
          "time": 128.351223,
          "velocity": 0.5905511811023622
        },
        {
          "duration": 0.12162150000000338,
          "durationTicks": 36,
          "midi": 68,
          "name": "G#4",
          "ticks": 38016,
          "time": 128.432304,
          "velocity": 0.5905511811023622
        },
        {
          "duration": 0.12162150000000338,
          "durationTicks": 36,
          "midi": 71,
          "name": "B4",
          "ticks": 38016,
          "time": 128.432304,
          "velocity": 0.5905511811023622
        },
        {
          "duration": 0.12162150000000338,
          "durationTicks": 36,
          "midi": 76,
          "name": "E5",
          "ticks": 38016,
          "time": 128.432304,
          "velocity": 0.5905511811023622
        },
        {
          "duration": 0.12162150000000338,
          "durationTicks": 36,
          "midi": 80,
          "name": "G#5",
          "ticks": 38016,
          "time": 128.432304,
          "velocity": 0.5905511811023622
        },
        {
          "duration": 0.08108100000001173,
          "durationTicks": 24,
          "midi": 68,
          "name": "G#4",
          "ticks": 38088,
          "time": 128.675547,
          "velocity": 0.5905511811023622
        },
        {
          "duration": 0.08108100000001173,
          "durationTicks": 24,
          "midi": 76,
          "name": "E5",
          "ticks": 38088,
          "time": 128.675547,
          "velocity": 0.5905511811023622
        },
        {
          "duration": 0.08108100000001173,
          "durationTicks": 24,
          "midi": 71,
          "name": "B4",
          "ticks": 38088,
          "time": 128.675547,
          "velocity": 0.5905511811023622
        },
        {
          "duration": 0.08108100000001173,
          "durationTicks": 24,
          "midi": 80,
          "name": "G#5",
          "ticks": 38088,
          "time": 128.675547,
          "velocity": 0.5905511811023622
        },
        {
          "duration": 0.08108100000001173,
          "durationTicks": 24,
          "midi": 68,
          "name": "G#4",
          "ticks": 38136,
          "time": 128.837709,
          "velocity": 0.5905511811023622
        },
        {
          "duration": 0.08108100000001173,
          "durationTicks": 24,
          "midi": 64,
          "name": "E4",
          "ticks": 38160,
          "time": 128.91879,
          "velocity": 0.5905511811023622
        },
        {
          "duration": 0.0810809999999833,
          "durationTicks": 24,
          "midi": 59,
          "name": "B3",
          "ticks": 38184,
          "time": 128.999871,
          "velocity": 0.5905511811023622
        },
        {
          "duration": 0.16216199999999503,
          "durationTicks": 48,
          "midi": 71,
          "name": "B4",
          "ticks": 38208,
          "time": 129.080952,
          "velocity": 0.5905511811023622
        },
        {
          "duration": 0.16216199999999503,
          "durationTicks": 48,
          "midi": 76,
          "name": "E5",
          "ticks": 38208,
          "time": 129.080952,
          "velocity": 0.5905511811023622
        },
        {
          "duration": 0.16216199999999503,
          "durationTicks": 48,
          "midi": 80,
          "name": "G#5",
          "ticks": 38208,
          "time": 129.080952,
          "velocity": 0.5905511811023622
        },
        {
          "duration": 0.08108100000001173,
          "durationTicks": 24,
          "midi": 80,
          "name": "G#5",
          "ticks": 38256,
          "time": 129.243114,
          "velocity": 0.5905511811023622
        },
        {
          "duration": 0.08108100000001173,
          "durationTicks": 24,
          "midi": 83,
          "name": "B5",
          "ticks": 38256,
          "time": 129.243114,
          "velocity": 0.5905511811023622
        },
        {
          "duration": 0.08108100000001173,
          "durationTicks": 24,
          "midi": 86,
          "name": "D6",
          "ticks": 38256,
          "time": 129.243114,
          "velocity": 0.5905511811023622
        },
        {
          "duration": 0.08108100000001173,
          "durationTicks": 24,
          "midi": 80,
          "name": "G#5",
          "ticks": 38304,
          "time": 129.405276,
          "velocity": 0.5905511811023622
        },
        {
          "duration": 0.08108100000001173,
          "durationTicks": 24,
          "midi": 76,
          "name": "E5",
          "ticks": 38328,
          "time": 129.486357,
          "velocity": 0.5905511811023622
        },
        {
          "duration": 0.0810809999999833,
          "durationTicks": 24,
          "midi": 71,
          "name": "B4",
          "ticks": 38352,
          "time": 129.567438,
          "velocity": 0.5905511811023622
        },
        {
          "duration": 0.08108100000001173,
          "durationTicks": 24,
          "midi": 68,
          "name": "G#4",
          "ticks": 38376,
          "time": 129.648519,
          "velocity": 0.5905511811023622
        },
        {
          "duration": 0.0810809999999833,
          "durationTicks": 24,
          "midi": 71,
          "name": "B4",
          "ticks": 38400,
          "time": 129.7296,
          "velocity": 0.5905511811023622
        },
        {
          "duration": 0.0810809999999833,
          "durationTicks": 24,
          "midi": 67,
          "name": "G4",
          "ticks": 38400,
          "time": 129.7296,
          "velocity": 0.5905511811023622
        },
        {
          "duration": 0.0810809999999833,
          "durationTicks": 24,
          "midi": 74,
          "name": "D5",
          "ticks": 38400,
          "time": 129.7296,
          "velocity": 0.5905511811023622
        },
        {
          "duration": 0.0810809999999833,
          "durationTicks": 24,
          "midi": 78,
          "name": "F#5",
          "ticks": 38400,
          "time": 129.7296,
          "velocity": 0.5905511811023622
        },
        {
          "duration": 0.0810809999999833,
          "durationTicks": 24,
          "midi": 67,
          "name": "G4",
          "ticks": 38472,
          "time": 129.972843,
          "velocity": 0.5905511811023622
        },
        {
          "duration": 0.0810809999999833,
          "durationTicks": 24,
          "midi": 71,
          "name": "B4",
          "ticks": 38472,
          "time": 129.972843,
          "velocity": 0.5905511811023622
        },
        {
          "duration": 0.0810809999999833,
          "durationTicks": 24,
          "midi": 74,
          "name": "D5",
          "ticks": 38472,
          "time": 129.972843,
          "velocity": 0.5905511811023622
        },
        {
          "duration": 0.0810809999999833,
          "durationTicks": 24,
          "midi": 78,
          "name": "F#5",
          "ticks": 38472,
          "time": 129.972843,
          "velocity": 0.5905511811023622
        },
        {
          "duration": 0.0810809999999833,
          "durationTicks": 24,
          "midi": 71,
          "name": "B4",
          "ticks": 38520,
          "time": 130.135005,
          "velocity": 0.5905511811023622
        },
        {
          "duration": 0.08108100000001173,
          "durationTicks": 24,
          "midi": 67,
          "name": "G4",
          "ticks": 38544,
          "time": 130.216086,
          "velocity": 0.5905511811023622
        },
        {
          "duration": 0.08108100000001173,
          "durationTicks": 24,
          "midi": 79,
          "name": "G5",
          "ticks": 38568,
          "time": 130.297167,
          "velocity": 0.5905511811023622
        },
        {
          "duration": 0.0810809999999833,
          "durationTicks": 24,
          "midi": 78,
          "name": "F#5",
          "ticks": 38592,
          "time": 130.378248,
          "velocity": 0.5905511811023622
        },
        {
          "duration": 0.0810809999999833,
          "durationTicks": 24,
          "midi": 74,
          "name": "D5",
          "ticks": 38592,
          "time": 130.378248,
          "velocity": 0.5905511811023622
        },
        {
          "duration": 0.0810809999999833,
          "durationTicks": 24,
          "midi": 71,
          "name": "B4",
          "ticks": 38592,
          "time": 130.378248,
          "velocity": 0.5905511811023622
        },
        {
          "duration": 0.0810809999999833,
          "durationTicks": 24,
          "midi": 67,
          "name": "G4",
          "ticks": 38592,
          "time": 130.378248,
          "velocity": 0.5905511811023622
        },
        {
          "duration": 0.08108100000001173,
          "durationTicks": 24,
          "midi": 81,
          "name": "A5",
          "ticks": 38616,
          "time": 130.459329,
          "velocity": 0.5905511811023622
        },
        {
          "duration": 0.0810809999999833,
          "durationTicks": 24,
          "midi": 79,
          "name": "G5",
          "ticks": 38640,
          "time": 130.54041,
          "velocity": 0.5905511811023622
        },
        {
          "duration": 0.08108100000001173,
          "durationTicks": 24,
          "midi": 78,
          "name": "F#5",
          "ticks": 38664,
          "time": 130.621491,
          "velocity": 0.5905511811023622
        },
        {
          "duration": 0.08108100000001173,
          "durationTicks": 24,
          "midi": 74,
          "name": "D5",
          "ticks": 38664,
          "time": 130.621491,
          "velocity": 0.5905511811023622
        },
        {
          "duration": 0.08108100000001173,
          "durationTicks": 24,
          "midi": 71,
          "name": "B4",
          "ticks": 38664,
          "time": 130.621491,
          "velocity": 0.5905511811023622
        },
        {
          "duration": 0.08108100000001173,
          "durationTicks": 24,
          "midi": 67,
          "name": "G4",
          "ticks": 38664,
          "time": 130.621491,
          "velocity": 0.5905511811023622
        },
        {
          "duration": 0.08108100000001173,
          "durationTicks": 24,
          "midi": 71,
          "name": "B4",
          "ticks": 38712,
          "time": 130.783653,
          "velocity": 0.5905511811023622
        },
        {
          "duration": 0.16216199999999503,
          "durationTicks": 48,
          "midi": 79,
          "name": "G5",
          "ticks": 38736,
          "time": 130.864734,
          "velocity": 0.5905511811023622
        },
        {
          "duration": 0.0810809999999833,
          "durationTicks": 24,
          "midi": 71,
          "name": "B4",
          "ticks": 38760,
          "time": 130.945815,
          "velocity": 0.5905511811023622
        },
        {
          "duration": 0.08108100000001173,
          "durationTicks": 24,
          "midi": 70,
          "name": "A#4",
          "ticks": 38784,
          "time": 131.026896,
          "velocity": 0.5905511811023622
        },
        {
          "duration": 0.08108100000001173,
          "durationTicks": 24,
          "midi": 73,
          "name": "C#5",
          "ticks": 38784,
          "time": 131.026896,
          "velocity": 0.5905511811023622
        },
        {
          "duration": 0.08108100000001173,
          "durationTicks": 24,
          "midi": 66,
          "name": "F#4",
          "ticks": 38784,
          "time": 131.026896,
          "velocity": 0.5905511811023622
        },
        {
          "duration": 0.08108100000001173,
          "durationTicks": 24,
          "midi": 78,
          "name": "F#5",
          "ticks": 38784,
          "time": 131.026896,
          "velocity": 0.5905511811023622
        },
        {
          "duration": 0.08108100000001173,
          "durationTicks": 24,
          "midi": 66,
          "name": "F#4",
          "ticks": 38856,
          "time": 131.270139,
          "velocity": 0.5905511811023622
        },
        {
          "duration": 0.08108100000001173,
          "durationTicks": 24,
          "midi": 70,
          "name": "A#4",
          "ticks": 38856,
          "time": 131.270139,
          "velocity": 0.5905511811023622
        },
        {
          "duration": 0.08108100000001173,
          "durationTicks": 24,
          "midi": 73,
          "name": "C#5",
          "ticks": 38856,
          "time": 131.270139,
          "velocity": 0.5905511811023622
        },
        {
          "duration": 0.08108100000001173,
          "durationTicks": 24,
          "midi": 78,
          "name": "F#5",
          "ticks": 38856,
          "time": 131.270139,
          "velocity": 0.5905511811023622
        },
        {
          "duration": 0.04054049999999165,
          "durationTicks": 12,
          "midi": 73,
          "name": "C#5",
          "ticks": 38928,
          "time": 131.513382,
          "velocity": 0.5905511811023622
        },
        {
          "duration": 0.040540500000020074,
          "durationTicks": 12,
          "midi": 73,
          "name": "C#5",
          "ticks": 38952,
          "time": 131.594463,
          "velocity": 0.5905511811023622
        },
        {
          "duration": 0.16216199999999503,
          "durationTicks": 48,
          "midi": 70,
          "name": "A#4",
          "ticks": 38976,
          "time": 131.675544,
          "velocity": 0.5905511811023622
        },
        {
          "duration": 0.16216199999999503,
          "durationTicks": 48,
          "midi": 66,
          "name": "F#4",
          "ticks": 38976,
          "time": 131.675544,
          "velocity": 0.5905511811023622
        },
        {
          "duration": 0.08108100000001173,
          "durationTicks": 24,
          "midi": 82,
          "name": "A#5",
          "ticks": 39024,
          "time": 131.837706,
          "velocity": 0.5905511811023622
        },
        {
          "duration": 0.08108100000001173,
          "durationTicks": 24,
          "midi": 78,
          "name": "F#5",
          "ticks": 39024,
          "time": 131.837706,
          "velocity": 0.5905511811023622
        },
        {
          "duration": 0.08108100000001173,
          "durationTicks": 24,
          "midi": 78,
          "name": "F#5",
          "ticks": 39072,
          "time": 131.999868,
          "velocity": 0.5905511811023622
        },
        {
          "duration": 0.08108100000001173,
          "durationTicks": 24,
          "midi": 74,
          "name": "D5",
          "ticks": 39072,
          "time": 131.999868,
          "velocity": 0.5905511811023622
        },
        {
          "duration": 0.0810809999999833,
          "durationTicks": 24,
          "midi": 73,
          "name": "C#5",
          "ticks": 39096,
          "time": 132.080949,
          "velocity": 0.5905511811023622
        },
        {
          "duration": 0.0810809999999833,
          "durationTicks": 24,
          "midi": 76,
          "name": "E5",
          "ticks": 39096,
          "time": 132.080949,
          "velocity": 0.5905511811023622
        },
        {
          "duration": 0.16216200000002345,
          "durationTicks": 48,
          "midi": 74,
          "name": "D5",
          "ticks": 39120,
          "time": 132.16203,
          "velocity": 0.5905511811023622
        },
        {
          "duration": 0.08108100000001173,
          "durationTicks": 24,
          "midi": 70,
          "name": "A#4",
          "ticks": 39120,
          "time": 132.16203,
          "velocity": 0.5905511811023622
        },
        {
          "duration": 0.08108100000001173,
          "durationTicks": 24,
          "midi": 66,
          "name": "F#4",
          "ticks": 39144,
          "time": 132.243111,
          "velocity": 0.5905511811023622
        },
        {
          "duration": 0.16216199999999503,
          "durationTicks": 48,
          "midi": 83,
          "name": "B5",
          "ticks": 39168,
          "time": 132.324192,
          "velocity": 0.5905511811023622
        },
        {
          "duration": 0.16216199999999503,
          "durationTicks": 48,
          "midi": 71,
          "name": "B4",
          "ticks": 39168,
          "time": 132.324192,
          "velocity": 0.5905511811023622
        },
        {
          "duration": 0.16216199999999503,
          "durationTicks": 48,
          "midi": 74,
          "name": "D5",
          "ticks": 39168,
          "time": 132.324192,
          "velocity": 0.5905511811023622
        },
        {
          "duration": 0.16216199999999503,
          "durationTicks": 48,
          "midi": 78,
          "name": "F#5",
          "ticks": 39168,
          "time": 132.324192,
          "velocity": 0.5905511811023622
        },
        {
          "duration": 0.08108100000001173,
          "durationTicks": 24,
          "midi": 66,
          "name": "F#4",
          "ticks": 39240,
          "time": 132.567435,
          "velocity": 0.5905511811023622
        },
        {
          "duration": 0.08108100000001173,
          "durationTicks": 24,
          "midi": 71,
          "name": "B4",
          "ticks": 39240,
          "time": 132.567435,
          "velocity": 0.5905511811023622
        },
        {
          "duration": 0.08108100000001173,
          "durationTicks": 24,
          "midi": 74,
          "name": "D5",
          "ticks": 39240,
          "time": 132.567435,
          "velocity": 0.5905511811023622
        },
        {
          "duration": 0.08108100000001173,
          "durationTicks": 24,
          "midi": 71,
          "name": "B4",
          "ticks": 39312,
          "time": 132.810678,
          "velocity": 0.5905511811023622
        },
        {
          "duration": 0.0810809999999833,
          "durationTicks": 24,
          "midi": 71,
          "name": "B4",
          "ticks": 39336,
          "time": 132.891759,
          "velocity": 0.5905511811023622
        },
        {
          "duration": 0.16216200000002345,
          "durationTicks": 48,
          "midi": 69,
          "name": "A4",
          "ticks": 39360,
          "time": 132.97284,
          "velocity": 0.5905511811023622
        },
        {
          "duration": 0.16216200000002345,
          "durationTicks": 48,
          "midi": 74,
          "name": "D5",
          "ticks": 39360,
          "time": 132.97284,
          "velocity": 0.5905511811023622
        },
        {
          "duration": 0.16216199999999503,
          "durationTicks": 48,
          "midi": 74,
          "name": "D5",
          "ticks": 39432,
          "time": 133.216083,
          "velocity": 0.5905511811023622
        },
        {
          "duration": 0.16216199999999503,
          "durationTicks": 48,
          "midi": 78,
          "name": "F#5",
          "ticks": 39432,
          "time": 133.216083,
          "velocity": 0.5905511811023622
        },
        {
          "duration": 0.16216199999999503,
          "durationTicks": 48,
          "midi": 81,
          "name": "A5",
          "ticks": 39432,
          "time": 133.216083,
          "velocity": 0.5905511811023622
        },
        {
          "duration": 0.08108100000001173,
          "durationTicks": 24,
          "midi": 74,
          "name": "D5",
          "ticks": 39480,
          "time": 133.378245,
          "velocity": 0.5905511811023622
        },
        {
          "duration": 0.0810809999999833,
          "durationTicks": 24,
          "midi": 71,
          "name": "B4",
          "ticks": 39504,
          "time": 133.459326,
          "velocity": 0.5905511811023622
        },
        {
          "duration": 0.08108100000001173,
          "durationTicks": 24,
          "midi": 66,
          "name": "F#4",
          "ticks": 39528,
          "time": 133.540407,
          "velocity": 0.5905511811023622
        },
        {
          "duration": 0.08108100000001173,
          "durationTicks": 24,
          "midi": 69,
          "name": "A4",
          "ticks": 39552,
          "time": 133.621488,
          "velocity": 0.5905511811023622
        },
        {
          "duration": 0.08108100000001173,
          "durationTicks": 24,
          "midi": 73,
          "name": "C#5",
          "ticks": 39552,
          "time": 133.621488,
          "velocity": 0.5905511811023622
        },
        {
          "duration": 0.08108100000001173,
          "durationTicks": 24,
          "midi": 64,
          "name": "E4",
          "ticks": 39552,
          "time": 133.621488,
          "velocity": 0.5905511811023622
        },
        {
          "duration": 0.08108100000001173,
          "durationTicks": 24,
          "midi": 76,
          "name": "E5",
          "ticks": 39552,
          "time": 133.621488,
          "velocity": 0.5905511811023622
        },
        {
          "duration": 0.08108100000001173,
          "durationTicks": 24,
          "midi": 73,
          "name": "C#5",
          "ticks": 39600,
          "time": 133.78365,
          "velocity": 0.5905511811023622
        },
        {
          "duration": 0.0810809999999833,
          "durationTicks": 24,
          "midi": 69,
          "name": "A4",
          "ticks": 39624,
          "time": 133.864731,
          "velocity": 0.5905511811023622
        },
        {
          "duration": 0.0810809999999833,
          "durationTicks": 24,
          "midi": 73,
          "name": "C#5",
          "ticks": 39624,
          "time": 133.864731,
          "velocity": 0.5905511811023622
        },
        {
          "duration": 0.0810809999999833,
          "durationTicks": 24,
          "midi": 64,
          "name": "E4",
          "ticks": 39624,
          "time": 133.864731,
          "velocity": 0.5905511811023622
        },
        {
          "duration": 0.0810809999999833,
          "durationTicks": 24,
          "midi": 76,
          "name": "E5",
          "ticks": 39624,
          "time": 133.864731,
          "velocity": 0.5905511811023622
        },
        {
          "duration": 0.08108100000001173,
          "durationTicks": 24,
          "midi": 73,
          "name": "C#5",
          "ticks": 39672,
          "time": 134.026893,
          "velocity": 0.5905511811023622
        },
        {
          "duration": 0.0810809999999833,
          "durationTicks": 24,
          "midi": 69,
          "name": "A4",
          "ticks": 39696,
          "time": 134.107974,
          "velocity": 0.5905511811023622
        },
        {
          "duration": 0.08108100000001173,
          "durationTicks": 24,
          "midi": 62,
          "name": "D4",
          "ticks": 39720,
          "time": 134.189055,
          "velocity": 0.5905511811023622
        },
        {
          "duration": 0.12162150000000338,
          "durationTicks": 36,
          "midi": 78,
          "name": "F#5",
          "ticks": 39744,
          "time": 134.270136,
          "velocity": 0.5905511811023622
        },
        {
          "duration": 0.12162150000000338,
          "durationTicks": 36,
          "midi": 74,
          "name": "D5",
          "ticks": 39744,
          "time": 134.270136,
          "velocity": 0.5905511811023622
        },
        {
          "duration": 0.12162150000000338,
          "durationTicks": 36,
          "midi": 69,
          "name": "A4",
          "ticks": 39744,
          "time": 134.270136,
          "velocity": 0.5905511811023622
        },
        {
          "duration": 0.12162150000000338,
          "durationTicks": 36,
          "midi": 69,
          "name": "A4",
          "ticks": 39792,
          "time": 134.432298,
          "velocity": 0.5905511811023622
        },
        {
          "duration": 0.08108100000001173,
          "durationTicks": 24,
          "midi": 78,
          "name": "F#5",
          "ticks": 39792,
          "time": 134.432298,
          "velocity": 0.5905511811023622
        },
        {
          "duration": 0.08108100000001173,
          "durationTicks": 24,
          "midi": 74,
          "name": "D5",
          "ticks": 39792,
          "time": 134.432298,
          "velocity": 0.5905511811023622
        },
        {
          "duration": 0.08108100000001173,
          "durationTicks": 24,
          "midi": 74,
          "name": "D5",
          "ticks": 39840,
          "time": 134.59446,
          "velocity": 0.5905511811023622
        },
        {
          "duration": 0.0810809999999833,
          "durationTicks": 24,
          "midi": 66,
          "name": "F#4",
          "ticks": 39864,
          "time": 134.675541,
          "velocity": 0.5905511811023622
        },
        {
          "duration": 0.08108100000001173,
          "durationTicks": 24,
          "midi": 62,
          "name": "D4",
          "ticks": 39888,
          "time": 134.756622,
          "velocity": 0.5905511811023622
        },
        {
          "duration": 0.0810809999999833,
          "durationTicks": 24,
          "midi": 57,
          "name": "A3",
          "ticks": 39912,
          "time": 134.837703,
          "velocity": 0.5905511811023622
        },
        {
          "duration": 0.08108100000001173,
          "durationTicks": 24,
          "midi": 78,
          "name": "F#5",
          "ticks": 39936,
          "time": 134.918784,
          "velocity": 0.5905511811023622
        },
        {
          "duration": 0.08108100000001173,
          "durationTicks": 24,
          "midi": 74,
          "name": "D5",
          "ticks": 39936,
          "time": 134.918784,
          "velocity": 0.5905511811023622
        },
        {
          "duration": 0.08108100000001173,
          "durationTicks": 24,
          "midi": 67,
          "name": "G4",
          "ticks": 39936,
          "time": 134.918784,
          "velocity": 0.5905511811023622
        },
        {
          "duration": 0.08108100000001173,
          "durationTicks": 24,
          "midi": 71,
          "name": "B4",
          "ticks": 39936,
          "time": 134.918784,
          "velocity": 0.5905511811023622
        },
        {
          "duration": 0.08108100000001173,
          "durationTicks": 24,
          "midi": 78,
          "name": "F#5",
          "ticks": 40008,
          "time": 135.162027,
          "velocity": 0.5905511811023622
        },
        {
          "duration": 0.08108100000001173,
          "durationTicks": 24,
          "midi": 74,
          "name": "D5",
          "ticks": 40008,
          "time": 135.162027,
          "velocity": 0.5905511811023622
        },
        {
          "duration": 0.08108100000001173,
          "durationTicks": 24,
          "midi": 71,
          "name": "B4",
          "ticks": 40008,
          "time": 135.162027,
          "velocity": 0.5905511811023622
        },
        {
          "duration": 0.08108100000001173,
          "durationTicks": 24,
          "midi": 67,
          "name": "G4",
          "ticks": 40008,
          "time": 135.162027,
          "velocity": 0.5905511811023622
        },
        {
          "duration": 0.08108100000001173,
          "durationTicks": 24,
          "midi": 71,
          "name": "B4",
          "ticks": 40056,
          "time": 135.324189,
          "velocity": 0.5905511811023622
        },
        {
          "duration": 0.08108100000001173,
          "durationTicks": 24,
          "midi": 67,
          "name": "G4",
          "ticks": 40080,
          "time": 135.40527,
          "velocity": 0.5905511811023622
        },
        {
          "duration": 0.0810809999999833,
          "durationTicks": 24,
          "midi": 79,
          "name": "G5",
          "ticks": 40104,
          "time": 135.486351,
          "velocity": 0.5905511811023622
        },
        {
          "duration": 0.08108100000001173,
          "durationTicks": 24,
          "midi": 67,
          "name": "G4",
          "ticks": 40128,
          "time": 135.567432,
          "velocity": 0.5905511811023622
        },
        {
          "duration": 0.08108100000001173,
          "durationTicks": 24,
          "midi": 71,
          "name": "B4",
          "ticks": 40128,
          "time": 135.567432,
          "velocity": 0.5905511811023622
        },
        {
          "duration": 0.08108100000001173,
          "durationTicks": 24,
          "midi": 74,
          "name": "D5",
          "ticks": 40128,
          "time": 135.567432,
          "velocity": 0.5905511811023622
        },
        {
          "duration": 0.08108100000001173,
          "durationTicks": 24,
          "midi": 78,
          "name": "F#5",
          "ticks": 40128,
          "time": 135.567432,
          "velocity": 0.5905511811023622
        },
        {
          "duration": 0.0810809999999833,
          "durationTicks": 24,
          "midi": 81,
          "name": "A5",
          "ticks": 40152,
          "time": 135.648513,
          "velocity": 0.5905511811023622
        },
        {
          "duration": 0.08108100000001173,
          "durationTicks": 24,
          "midi": 79,
          "name": "G5",
          "ticks": 40176,
          "time": 135.729594,
          "velocity": 0.5905511811023622
        },
        {
          "duration": 0.0810809999999833,
          "durationTicks": 24,
          "midi": 67,
          "name": "G4",
          "ticks": 40200,
          "time": 135.810675,
          "velocity": 0.5905511811023622
        },
        {
          "duration": 0.0810809999999833,
          "durationTicks": 24,
          "midi": 71,
          "name": "B4",
          "ticks": 40200,
          "time": 135.810675,
          "velocity": 0.5905511811023622
        },
        {
          "duration": 0.0810809999999833,
          "durationTicks": 24,
          "midi": 74,
          "name": "D5",
          "ticks": 40200,
          "time": 135.810675,
          "velocity": 0.5905511811023622
        },
        {
          "duration": 0.0810809999999833,
          "durationTicks": 24,
          "midi": 78,
          "name": "F#5",
          "ticks": 40200,
          "time": 135.810675,
          "velocity": 0.5905511811023622
        },
        {
          "duration": 0.08108100000001173,
          "durationTicks": 24,
          "midi": 71,
          "name": "B4",
          "ticks": 40248,
          "time": 135.972837,
          "velocity": 0.5905511811023622
        },
        {
          "duration": 0.16216199999999503,
          "durationTicks": 48,
          "midi": 79,
          "name": "G5",
          "ticks": 40272,
          "time": 136.053918,
          "velocity": 0.5905511811023622
        },
        {
          "duration": 0.08108100000001173,
          "durationTicks": 24,
          "midi": 71,
          "name": "B4",
          "ticks": 40296,
          "time": 136.134999,
          "velocity": 0.5905511811023622
        },
        {
          "duration": 0.0810809999999833,
          "durationTicks": 24,
          "midi": 70,
          "name": "A#4",
          "ticks": 40320,
          "time": 136.21608,
          "velocity": 0.5905511811023622
        },
        {
          "duration": 0.0810809999999833,
          "durationTicks": 24,
          "midi": 73,
          "name": "C#5",
          "ticks": 40320,
          "time": 136.21608,
          "velocity": 0.5905511811023622
        },
        {
          "duration": 0.0810809999999833,
          "durationTicks": 24,
          "midi": 66,
          "name": "F#4",
          "ticks": 40320,
          "time": 136.21608,
          "velocity": 0.5905511811023622
        },
        {
          "duration": 0.0810809999999833,
          "durationTicks": 24,
          "midi": 78,
          "name": "F#5",
          "ticks": 40320,
          "time": 136.21608,
          "velocity": 0.5905511811023622
        },
        {
          "duration": 0.0810809999999833,
          "durationTicks": 24,
          "midi": 78,
          "name": "F#5",
          "ticks": 40392,
          "time": 136.459323,
          "velocity": 0.5905511811023622
        },
        {
          "duration": 0.0810809999999833,
          "durationTicks": 24,
          "midi": 73,
          "name": "C#5",
          "ticks": 40392,
          "time": 136.459323,
          "velocity": 0.5905511811023622
        },
        {
          "duration": 0.0810809999999833,
          "durationTicks": 24,
          "midi": 70,
          "name": "A#4",
          "ticks": 40392,
          "time": 136.459323,
          "velocity": 0.5905511811023622
        },
        {
          "duration": 0.0810809999999833,
          "durationTicks": 24,
          "midi": 66,
          "name": "F#4",
          "ticks": 40392,
          "time": 136.459323,
          "velocity": 0.5905511811023622
        },
        {
          "duration": 0.040540500000020074,
          "durationTicks": 12,
          "midi": 73,
          "name": "C#5",
          "ticks": 40464,
          "time": 136.702566,
          "velocity": 0.5905511811023622
        },
        {
          "duration": 0.04054049999999165,
          "durationTicks": 12,
          "midi": 73,
          "name": "C#5",
          "ticks": 40488,
          "time": 136.783647,
          "velocity": 0.5905511811023622
        },
        {
          "duration": 0.16216199999999503,
          "durationTicks": 48,
          "midi": 70,
          "name": "A#4",
          "ticks": 40512,
          "time": 136.864728,
          "velocity": 0.5905511811023622
        },
        {
          "duration": 0.16216199999999503,
          "durationTicks": 48,
          "midi": 66,
          "name": "F#4",
          "ticks": 40512,
          "time": 136.864728,
          "velocity": 0.5905511811023622
        },
        {
          "duration": 0.0810809999999833,
          "durationTicks": 24,
          "midi": 78,
          "name": "F#5",
          "ticks": 40560,
          "time": 137.02689,
          "velocity": 0.5905511811023622
        },
        {
          "duration": 0.0810809999999833,
          "durationTicks": 24,
          "midi": 82,
          "name": "A#5",
          "ticks": 40560,
          "time": 137.02689,
          "velocity": 0.5905511811023622
        },
        {
          "duration": 0.0810809999999833,
          "durationTicks": 24,
          "midi": 78,
          "name": "F#5",
          "ticks": 40608,
          "time": 137.189052,
          "velocity": 0.5905511811023622
        },
        {
          "duration": 0.0810809999999833,
          "durationTicks": 24,
          "midi": 74,
          "name": "D5",
          "ticks": 40608,
          "time": 137.189052,
          "velocity": 0.5905511811023622
        },
        {
          "duration": 0.08108100000001173,
          "durationTicks": 24,
          "midi": 76,
          "name": "E5",
          "ticks": 40632,
          "time": 137.270133,
          "velocity": 0.5905511811023622
        },
        {
          "duration": 0.08108100000001173,
          "durationTicks": 24,
          "midi": 73,
          "name": "C#5",
          "ticks": 40632,
          "time": 137.270133,
          "velocity": 0.5905511811023622
        },
        {
          "duration": 0.16216199999999503,
          "durationTicks": 48,
          "midi": 74,
          "name": "D5",
          "ticks": 40656,
          "time": 137.351214,
          "velocity": 0.5905511811023622
        },
        {
          "duration": 0.08108100000001173,
          "durationTicks": 24,
          "midi": 70,
          "name": "A#4",
          "ticks": 40656,
          "time": 137.351214,
          "velocity": 0.5905511811023622
        },
        {
          "duration": 0.0810809999999833,
          "durationTicks": 24,
          "midi": 66,
          "name": "F#4",
          "ticks": 40680,
          "time": 137.432295,
          "velocity": 0.5905511811023622
        },
        {
          "duration": 0.16216199999999503,
          "durationTicks": 48,
          "midi": 83,
          "name": "B5",
          "ticks": 40704,
          "time": 137.513376,
          "velocity": 0.5905511811023622
        },
        {
          "duration": 0.16216199999999503,
          "durationTicks": 48,
          "midi": 71,
          "name": "B4",
          "ticks": 40704,
          "time": 137.513376,
          "velocity": 0.5905511811023622
        },
        {
          "duration": 0.16216199999999503,
          "durationTicks": 48,
          "midi": 74,
          "name": "D5",
          "ticks": 40704,
          "time": 137.513376,
          "velocity": 0.5905511811023622
        },
        {
          "duration": 0.16216199999999503,
          "durationTicks": 48,
          "midi": 78,
          "name": "F#5",
          "ticks": 40704,
          "time": 137.513376,
          "velocity": 0.5905511811023622
        },
        {
          "duration": 0.08108100000001173,
          "durationTicks": 24,
          "midi": 74,
          "name": "D5",
          "ticks": 40776,
          "time": 137.756619,
          "velocity": 0.5905511811023622
        },
        {
          "duration": 0.08108100000001173,
          "durationTicks": 24,
          "midi": 71,
          "name": "B4",
          "ticks": 40776,
          "time": 137.756619,
          "velocity": 0.5905511811023622
        },
        {
          "duration": 0.08108100000001173,
          "durationTicks": 24,
          "midi": 66,
          "name": "F#4",
          "ticks": 40776,
          "time": 137.756619,
          "velocity": 0.5905511811023622
        },
        {
          "duration": 0.0810809999999833,
          "durationTicks": 24,
          "midi": 71,
          "name": "B4",
          "ticks": 40848,
          "time": 137.999862,
          "velocity": 0.5905511811023622
        },
        {
          "duration": 0.08108100000001173,
          "durationTicks": 24,
          "midi": 71,
          "name": "B4",
          "ticks": 40872,
          "time": 138.080943,
          "velocity": 0.5905511811023622
        },
        {
          "duration": 0.16216199999999503,
          "durationTicks": 48,
          "midi": 69,
          "name": "A4",
          "ticks": 40896,
          "time": 138.162024,
          "velocity": 0.5905511811023622
        },
        {
          "duration": 0.16216199999999503,
          "durationTicks": 48,
          "midi": 74,
          "name": "D5",
          "ticks": 40896,
          "time": 138.162024,
          "velocity": 0.5905511811023622
        },
        {
          "duration": 0.16216199999999503,
          "durationTicks": 48,
          "midi": 78,
          "name": "F#5",
          "ticks": 40968,
          "time": 138.405267,
          "velocity": 0.5905511811023622
        },
        {
          "duration": 0.16216199999999503,
          "durationTicks": 48,
          "midi": 81,
          "name": "A5",
          "ticks": 40968,
          "time": 138.405267,
          "velocity": 0.5905511811023622
        },
        {
          "duration": 0.0810809999999833,
          "durationTicks": 24,
          "midi": 74,
          "name": "D5",
          "ticks": 41016,
          "time": 138.567429,
          "velocity": 0.5905511811023622
        },
        {
          "duration": 0.08108100000001173,
          "durationTicks": 24,
          "midi": 71,
          "name": "B4",
          "ticks": 41040,
          "time": 138.64851,
          "velocity": 0.5905511811023622
        },
        {
          "duration": 0.08108100000001173,
          "durationTicks": 24,
          "midi": 66,
          "name": "F#4",
          "ticks": 41064,
          "time": 138.729591,
          "velocity": 0.5905511811023622
        },
        {
          "duration": 0.0810809999999833,
          "durationTicks": 24,
          "midi": 71,
          "name": "B4",
          "ticks": 41088,
          "time": 138.810672,
          "velocity": 0.5826771653543307
        },
        {
          "duration": 0.0810809999999833,
          "durationTicks": 24,
          "midi": 83,
          "name": "B5",
          "ticks": 41088,
          "time": 138.810672,
          "velocity": 0.5826771653543307
        },
        {
          "duration": 0.0810809999999833,
          "durationTicks": 24,
          "midi": 78,
          "name": "F#5",
          "ticks": 41088,
          "time": 138.810672,
          "velocity": 0.5826771653543307
        },
        {
          "duration": 0.08108100000001173,
          "durationTicks": 24,
          "midi": 78,
          "name": "F#5",
          "ticks": 41112,
          "time": 138.891753,
          "velocity": 0.5826771653543307
        },
        {
          "duration": 0.0810809999999833,
          "durationTicks": 24,
          "midi": 74,
          "name": "D5",
          "ticks": 41136,
          "time": 138.972834,
          "velocity": 0.5826771653543307
        },
        {
          "duration": 0.08108100000001173,
          "durationTicks": 24,
          "midi": 71,
          "name": "B4",
          "ticks": 41160,
          "time": 139.053915,
          "velocity": 0.5826771653543307
        },
        {
          "duration": 0.08108100000001173,
          "durationTicks": 24,
          "midi": 82,
          "name": "A#5",
          "ticks": 41184,
          "time": 139.134996,
          "velocity": 0.5826771653543307
        },
        {
          "duration": 0.08108100000001173,
          "durationTicks": 24,
          "midi": 70,
          "name": "A#4",
          "ticks": 41184,
          "time": 139.134996,
          "velocity": 0.5826771653543307
        },
        {
          "duration": 0.08108100000001173,
          "durationTicks": 24,
          "midi": 77,
          "name": "F5",
          "ticks": 41184,
          "time": 139.134996,
          "velocity": 0.5826771653543307
        },
        {
          "duration": 0.0810809999999833,
          "durationTicks": 24,
          "midi": 77,
          "name": "F5",
          "ticks": 41208,
          "time": 139.216077,
          "velocity": 0.5826771653543307
        },
        {
          "duration": 0.08108100000001173,
          "durationTicks": 24,
          "midi": 73,
          "name": "C#5",
          "ticks": 41232,
          "time": 139.297158,
          "velocity": 0.5826771653543307
        },
        {
          "duration": 0.0810809999999833,
          "durationTicks": 24,
          "midi": 70,
          "name": "A#4",
          "ticks": 41256,
          "time": 139.378239,
          "velocity": 0.5826771653543307
        },
        {
          "duration": 0.08108100000001173,
          "durationTicks": 24,
          "midi": 76,
          "name": "E5",
          "ticks": 41280,
          "time": 139.45932,
          "velocity": 0.5826771653543307
        },
        {
          "duration": 0.08108100000001173,
          "durationTicks": 24,
          "midi": 69,
          "name": "A4",
          "ticks": 41280,
          "time": 139.45932,
          "velocity": 0.5826771653543307
        },
        {
          "duration": 0.08108100000001173,
          "durationTicks": 24,
          "midi": 81,
          "name": "A5",
          "ticks": 41280,
          "time": 139.45932,
          "velocity": 0.5826771653543307
        },
        {
          "duration": 0.08108100000001173,
          "durationTicks": 24,
          "midi": 76,
          "name": "E5",
          "ticks": 41304,
          "time": 139.540401,
          "velocity": 0.5826771653543307
        },
        {
          "duration": 0.0810809999999833,
          "durationTicks": 24,
          "midi": 72,
          "name": "C5",
          "ticks": 41328,
          "time": 139.62148200000001,
          "velocity": 0.5826771653543307
        },
        {
          "duration": 0.08108100000001173,
          "durationTicks": 24,
          "midi": 69,
          "name": "A4",
          "ticks": 41352,
          "time": 139.702563,
          "velocity": 0.5826771653543307
        },
        {
          "duration": 0.0810809999999833,
          "durationTicks": 24,
          "midi": 80,
          "name": "G#5",
          "ticks": 41376,
          "time": 139.783644,
          "velocity": 0.5826771653543307
        },
        {
          "duration": 0.0810809999999833,
          "durationTicks": 24,
          "midi": 68,
          "name": "G#4",
          "ticks": 41376,
          "time": 139.783644,
          "velocity": 0.5826771653543307
        },
        {
          "duration": 0.0810809999999833,
          "durationTicks": 24,
          "midi": 75,
          "name": "D#5",
          "ticks": 41376,
          "time": 139.783644,
          "velocity": 0.5826771653543307
        },
        {
          "duration": 0.08108100000001173,
          "durationTicks": 24,
          "midi": 75,
          "name": "D#5",
          "ticks": 41400,
          "time": 139.864725,
          "velocity": 0.5826771653543307
        },
        {
          "duration": 0.0810809999999833,
          "durationTicks": 24,
          "midi": 71,
          "name": "B4",
          "ticks": 41424,
          "time": 139.945806,
          "velocity": 0.5826771653543307
        },
        {
          "duration": 0.08108100000001173,
          "durationTicks": 24,
          "midi": 68,
          "name": "G#4",
          "ticks": 41448,
          "time": 140.026887,
          "velocity": 0.5826771653543307
        }
      ],
      "endOfTrackTicks": 46086
    },
    {
      "channel": 2,
      "controlChanges": {
        "6": [
          {
            "number": 6,
            "ticks": 0,
            "time": 0,
            "value": 0.09448818897637795
          },
          {
            "number": 6,
            "ticks": 0,
            "time": 0,
            "value": 0.09448818897637795
          },
          {
            "number": 6,
            "ticks": 0,
            "time": 0,
            "value": 0.09448818897637795
          },
          {
            "number": 6,
            "ticks": 46084,
            "time": 155.6890335,
            "value": 0.09448818897637795
          },
          {
            "number": 6,
            "ticks": 46086,
            "time": 155.69579025,
            "value": 0.09448818897637795
          }
        ],
        "7": [
          {
            "number": 7,
            "ticks": 0,
            "time": 0,
            "value": 0.49606299212598426
          },
          {
            "number": 7,
            "ticks": 0,
            "time": 0,
            "value": 0.49606299212598426
          },
          {
            "number": 7,
            "ticks": 0,
            "time": 0,
            "value": 0.49606299212598426
          },
          {
            "number": 7,
            "ticks": 0,
            "time": 0,
            "value": 0.49606299212598426
          },
          {
            "number": 7,
            "ticks": 0,
            "time": 0,
            "value": 0.49606299212598426
          },
          {
            "number": 7,
            "ticks": 46084,
            "time": 155.6890335,
            "value": 0.49606299212598426
          },
          {
            "number": 7,
            "ticks": 46085,
            "time": 155.692411875,
            "value": 0.49606299212598426
          },
          {
            "number": 7,
            "ticks": 46086,
            "time": 155.69579025,
            "value": 0.49606299212598426
          }
        ],
        "10": [
          {
            "number": 10,
            "ticks": 0,
            "time": 0,
            "value": 0.5039370078740157
          },
          {
            "number": 10,
            "ticks": 0,
            "time": 0,
            "value": 0.5039370078740157
          },
          {
            "number": 10,
            "ticks": 0,
            "time": 0,
            "value": 0.5039370078740157
          },
          {
            "number": 10,
            "ticks": 0,
            "time": 0,
            "value": 0.5039370078740157
          },
          {
            "number": 10,
            "ticks": 46084,
            "time": 155.6890335,
            "value": 0.5039370078740157
          },
          {
            "number": 10,
            "ticks": 46086,
            "time": 155.69579025,
            "value": 0.5039370078740157
          }
        ],
        "100": [
          {
            "number": 100,
            "ticks": 0,
            "time": 0,
            "value": 0
          },
          {
            "number": 100,
            "ticks": 0,
            "time": 0,
            "value": 0
          },
          {
            "number": 100,
            "ticks": 0,
            "time": 0,
            "value": 0
          },
          {
            "number": 100,
            "ticks": 46084,
            "time": 155.6890335,
            "value": 0
          },
          {
            "number": 100,
            "ticks": 46086,
            "time": 155.69579025,
            "value": 0
          }
        ],
        "101": [
          {
            "number": 101,
            "ticks": 0,
            "time": 0,
            "value": 0
          },
          {
            "number": 101,
            "ticks": 0,
            "time": 0,
            "value": 0
          },
          {
            "number": 101,
            "ticks": 0,
            "time": 0,
            "value": 0
          },
          {
            "number": 101,
            "ticks": 46084,
            "time": 155.6890335,
            "value": 0
          },
          {
            "number": 101,
            "ticks": 46086,
            "time": 155.69579025,
            "value": 0
          }
        ]
      },
      "pitchBends": [
        {
          "ticks": 0,
          "time": 0,
          "value": 0
        },
        {
          "ticks": 0,
          "time": 0,
          "value": 0
        },
        {
          "ticks": 0,
          "time": 0,
          "value": 0
        },
        {
          "ticks": 0,
          "time": 0,
          "value": 0
        },
        {
          "ticks": 46084,
          "time": 155.6890335,
          "value": 0
        },
        {
          "ticks": 46086,
          "time": 155.69579025,
          "value": 0
        }
      ],
      "instrument": {
        "family": "piano",
        "number": 0,
        "name": "acoustic grand piano"
      },
      "name": "Arp",
      "notes": [
        {
          "duration": 0.04054049999999876,
          "durationTicks": 12,
          "midi": 80,
          "name": "G#5",
          "ticks": 3840,
          "time": 12.97296,
          "velocity": 0.6141732283464567
        },
        {
          "duration": 0.040540500000000534,
          "durationTicks": 12,
          "midi": 80,
          "name": "G#5",
          "ticks": 3864,
          "time": 13.054041,
          "velocity": 0.6141732283464567
        },
        {
          "duration": 0.04054049999999876,
          "durationTicks": 12,
          "midi": 80,
          "name": "G#5",
          "ticks": 3888,
          "time": 13.135122,
          "velocity": 0.6141732283464567
        },
        {
          "duration": 0.040540500000000534,
          "durationTicks": 12,
          "midi": 80,
          "name": "G#5",
          "ticks": 3912,
          "time": 13.216203,
          "velocity": 0.6141732283464567
        },
        {
          "duration": 0.16216200000000036,
          "durationTicks": 48,
          "midi": 80,
          "name": "G#5",
          "ticks": 3984,
          "time": 13.459446,
          "velocity": 0.6141732283464567
        },
        {
          "duration": 0.16216200000000036,
          "durationTicks": 48,
          "midi": 80,
          "name": "G#5",
          "ticks": 4080,
          "time": 13.78377,
          "velocity": 0.6141732283464567
        },
        {
          "duration": 0.08108099999999929,
          "durationTicks": 24,
          "midi": 68,
          "name": "G#4",
          "ticks": 4128,
          "time": 13.945932,
          "velocity": 0.6141732283464567
        },
        {
          "duration": 0.040540500000000534,
          "durationTicks": 12,
          "midi": 80,
          "name": "G#5",
          "ticks": 4224,
          "time": 14.270256,
          "velocity": 0.6141732283464567
        },
        {
          "duration": 0.040540500000000534,
          "durationTicks": 12,
          "midi": 80,
          "name": "G#5",
          "ticks": 4272,
          "time": 14.432418,
          "velocity": 0.6141732283464567
        },
        {
          "duration": 0.04054049999999876,
          "durationTicks": 12,
          "midi": 80,
          "name": "G#5",
          "ticks": 4320,
          "time": 14.59458,
          "velocity": 0.6062992125984252
        },
        {
          "duration": 0.16216199999999859,
          "durationTicks": 48,
          "midi": 68,
          "name": "G#4",
          "ticks": 4368,
          "time": 14.756742000000001,
          "velocity": 0.6141732283464567
        },
        {
          "duration": 0.16216199999999859,
          "durationTicks": 48,
          "midi": 73,
          "name": "C#5",
          "ticks": 4488,
          "time": 15.162147000000001,
          "velocity": 0.6062992125984252
        },
        {
          "duration": 0.16216199999999859,
          "durationTicks": 48,
          "midi": 68,
          "name": "G#4",
          "ticks": 4560,
          "time": 15.40539,
          "velocity": 0.6141732283464567
        },
        {
          "duration": 0.08108100000000107,
          "durationTicks": 24,
          "midi": 80,
          "name": "G#5",
          "ticks": 4608,
          "time": 15.567552,
          "velocity": 0.6141732283464567
        },
        {
          "duration": 0.08108099999999929,
          "durationTicks": 24,
          "midi": 85,
          "name": "C#6",
          "ticks": 4632,
          "time": 15.648633,
          "velocity": 0.6141732283464567
        },
        {
          "duration": 0.08108100000000107,
          "durationTicks": 24,
          "midi": 92,
          "name": "G#6",
          "ticks": 4656,
          "time": 15.729714,
          "velocity": 0.6141732283464567
        },
        {
          "duration": 0.16216200000000214,
          "durationTicks": 48,
          "midi": 80,
          "name": "G#5",
          "ticks": 4752,
          "time": 16.054038,
          "velocity": 0.6141732283464567
        },
        {
          "duration": 0.16216200000000214,
          "durationTicks": 48,
          "midi": 80,
          "name": "G#5",
          "ticks": 4848,
          "time": 16.378362,
          "velocity": 0.6141732283464567
        },
        {
          "duration": 0.16216199999999859,
          "durationTicks": 48,
          "midi": 68,
          "name": "G#4",
          "ticks": 4896,
          "time": 16.540524,
          "velocity": 0.6141732283464567
        },
        {
          "duration": 0.04054050000000231,
          "durationTicks": 12,
          "midi": 80,
          "name": "G#5",
          "ticks": 4992,
          "time": 16.864848,
          "velocity": 0.6062992125984252
        },
        {
          "duration": 0.04054049999999876,
          "durationTicks": 12,
          "midi": 80,
          "name": "G#5",
          "ticks": 5040,
          "time": 17.02701,
          "velocity": 0.6062992125984252
        },
        {
          "duration": 0.04054050000000231,
          "durationTicks": 12,
          "midi": 80,
          "name": "G#5",
          "ticks": 5088,
          "time": 17.189172,
          "velocity": 0.6062992125984252
        },
        {
          "duration": 0.16216199999999859,
          "durationTicks": 48,
          "midi": 68,
          "name": "G#4",
          "ticks": 5136,
          "time": 17.351334,
          "velocity": 0.6062992125984252
        },
        {
          "duration": 0.16216200000000214,
          "durationTicks": 48,
          "midi": 85,
          "name": "C#6",
          "ticks": 5232,
          "time": 17.675658,
          "velocity": 0.6062992125984252
        },
        {
          "duration": 0.16216200000000214,
          "durationTicks": 48,
          "midi": 80,
          "name": "G#5",
          "ticks": 5256,
          "time": 17.756739,
          "velocity": 0.6062992125984252
        },
        {
          "duration": 0.16216199999999859,
          "durationTicks": 48,
          "midi": 73,
          "name": "C#5",
          "ticks": 5280,
          "time": 17.83782,
          "velocity": 0.6062992125984252
        },
        {
          "duration": 0.16216200000000214,
          "durationTicks": 48,
          "midi": 87,
          "name": "D#6",
          "ticks": 5328,
          "time": 17.999982,
          "velocity": 0.6062992125984252
        },
        {
          "duration": 0.04054049999999876,
          "durationTicks": 12,
          "midi": 80,
          "name": "G#5",
          "ticks": 5376,
          "time": 18.162144,
          "velocity": 0.6141732283464567
        },
        {
          "duration": 0.04054050000000231,
          "durationTicks": 12,
          "midi": 80,
          "name": "G#5",
          "ticks": 5400,
          "time": 18.243225,
          "velocity": 0.6141732283464567
        },
        {
          "duration": 0.04054049999999876,
          "durationTicks": 12,
          "midi": 80,
          "name": "G#5",
          "ticks": 5424,
          "time": 18.324306,
          "velocity": 0.6141732283464567
        },
        {
          "duration": 0.04054049999999876,
          "durationTicks": 12,
          "midi": 80,
          "name": "G#5",
          "ticks": 5448,
          "time": 18.405387,
          "velocity": 0.6141732283464567
        },
        {
          "duration": 0.16216199999999859,
          "durationTicks": 48,
          "midi": 80,
          "name": "G#5",
          "ticks": 5520,
          "time": 18.64863,
          "velocity": 0.6141732283464567
        },
        {
          "duration": 0.16216199999999859,
          "durationTicks": 48,
          "midi": 80,
          "name": "G#5",
          "ticks": 5616,
          "time": 18.972954,
          "velocity": 0.6141732283464567
        },
        {
          "duration": 0.08108100000000107,
          "durationTicks": 24,
          "midi": 68,
          "name": "G#4",
          "ticks": 5664,
          "time": 19.135116,
          "velocity": 0.6141732283464567
        },
        {
          "duration": 0.04054049999999876,
          "durationTicks": 12,
          "midi": 80,
          "name": "G#5",
          "ticks": 5760,
          "time": 19.45944,
          "velocity": 0.6141732283464567
        },
        {
          "duration": 0.04054050000000231,
          "durationTicks": 12,
          "midi": 80,
          "name": "G#5",
          "ticks": 5808,
          "time": 19.621602,
          "velocity": 0.6141732283464567
        },
        {
          "duration": 0.04054049999999876,
          "durationTicks": 12,
          "midi": 80,
          "name": "G#5",
          "ticks": 5856,
          "time": 19.783764,
          "velocity": 0.6062992125984252
        },
        {
          "duration": 0.16216199999999859,
          "durationTicks": 48,
          "midi": 68,
          "name": "G#4",
          "ticks": 5904,
          "time": 19.945926,
          "velocity": 0.6141732283464567
        },
        {
          "duration": 0.16216199999999859,
          "durationTicks": 48,
          "midi": 73,
          "name": "C#5",
          "ticks": 6024,
          "time": 20.351331000000002,
          "velocity": 0.6062992125984252
        },
        {
          "duration": 0.16216199999999859,
          "durationTicks": 48,
          "midi": 68,
          "name": "G#4",
          "ticks": 6096,
          "time": 20.594574,
          "velocity": 0.6141732283464567
        },
        {
          "duration": 0.08108100000000107,
          "durationTicks": 24,
          "midi": 80,
          "name": "G#5",
          "ticks": 6144,
          "time": 20.756736,
          "velocity": 0.6141732283464567
        },
        {
          "duration": 0.08108099999999752,
          "durationTicks": 24,
          "midi": 85,
          "name": "C#6",
          "ticks": 6168,
          "time": 20.837817,
          "velocity": 0.6141732283464567
        },
        {
          "duration": 0.08108100000000107,
          "durationTicks": 24,
          "midi": 92,
          "name": "G#6",
          "ticks": 6192,
          "time": 20.918898,
          "velocity": 0.6141732283464567
        },
        {
          "duration": 0.16216200000000214,
          "durationTicks": 48,
          "midi": 80,
          "name": "G#5",
          "ticks": 6288,
          "time": 21.243222,
          "velocity": 0.6141732283464567
        },
        {
          "duration": 0.16216199999999859,
          "durationTicks": 48,
          "midi": 80,
          "name": "G#5",
          "ticks": 6384,
          "time": 21.567546,
          "velocity": 0.6141732283464567
        },
        {
          "duration": 0.16216200000000214,
          "durationTicks": 48,
          "midi": 82,
          "name": "A#5",
          "ticks": 10080,
          "time": 34.05402,
          "velocity": 0.6220472440944882
        },
        {
          "duration": 0.16216199999999503,
          "durationTicks": 48,
          "midi": 92,
          "name": "G#6",
          "ticks": 10416,
          "time": 35.189154,
          "velocity": 0.6220472440944882
        },
        {
          "duration": 0.32432399999999717,
          "durationTicks": 96,
          "midi": 85,
          "name": "C#6",
          "ticks": 10560,
          "time": 35.67564,
          "velocity": 0.5039370078740157
        },
        {
          "duration": 0.32432399999999717,
          "durationTicks": 96,
          "midi": 73,
          "name": "C#5",
          "ticks": 10560,
          "time": 35.67564,
          "velocity": 0.5039370078740157
        },
        {
          "duration": 0.3243240000000043,
          "durationTicks": 96,
          "midi": 87,
          "name": "D#6",
          "ticks": 10656,
          "time": 35.999964,
          "velocity": 0.5039370078740157
        },
        {
          "duration": 0.3243240000000043,
          "durationTicks": 96,
          "midi": 75,
          "name": "D#5",
          "ticks": 10656,
          "time": 35.999964,
          "velocity": 0.5039370078740157
        },
        {
          "duration": 0.16216200000000214,
          "durationTicks": 48,
          "midi": 82,
          "name": "A#5",
          "ticks": 10848,
          "time": 36.648612,
          "velocity": 0.6220472440944882
        },
        {
          "duration": 0.16216200000000214,
          "durationTicks": 48,
          "midi": 92,
          "name": "G#6",
          "ticks": 10992,
          "time": 37.135098,
          "velocity": 0.5433070866141733
        },
        {
          "duration": 0.32432399999999717,
          "durationTicks": 96,
          "midi": 73,
          "name": "C#5",
          "ticks": 11040,
          "time": 37.29726,
          "velocity": 0.5039370078740157
        },
        {
          "duration": 0.32432399999999717,
          "durationTicks": 96,
          "midi": 85,
          "name": "C#6",
          "ticks": 11040,
          "time": 37.29726,
          "velocity": 0.5039370078740157
        },
        {
          "duration": 0.3243240000000043,
          "durationTicks": 96,
          "midi": 80,
          "name": "G#5",
          "ticks": 11136,
          "time": 37.621584,
          "velocity": 0.5039370078740157
        },
        {
          "duration": 0.3243240000000043,
          "durationTicks": 96,
          "midi": 68,
          "name": "G#4",
          "ticks": 11136,
          "time": 37.621584,
          "velocity": 0.5039370078740157
        },
        {
          "duration": 0.16216200000000214,
          "durationTicks": 48,
          "midi": 82,
          "name": "A#5",
          "ticks": 11616,
          "time": 39.243204,
          "velocity": 0.6220472440944882
        },
        {
          "duration": 0.16216200000000214,
          "durationTicks": 48,
          "midi": 92,
          "name": "G#6",
          "ticks": 11952,
          "time": 40.378338,
          "velocity": 0.6220472440944882
        },
        {
          "duration": 0.3243240000000043,
          "durationTicks": 96,
          "midi": 85,
          "name": "C#6",
          "ticks": 12096,
          "time": 40.864824,
          "velocity": 0.5039370078740157
        },
        {
          "duration": 0.3243240000000043,
          "durationTicks": 96,
          "midi": 73,
          "name": "C#5",
          "ticks": 12096,
          "time": 40.864824,
          "velocity": 0.5039370078740157
        },
        {
          "duration": 0.32432399999999717,
          "durationTicks": 96,
          "midi": 87,
          "name": "D#6",
          "ticks": 12192,
          "time": 41.189148,
          "velocity": 0.5039370078740157
        },
        {
          "duration": 0.32432399999999717,
          "durationTicks": 96,
          "midi": 75,
          "name": "D#5",
          "ticks": 12192,
          "time": 41.189148,
          "velocity": 0.5039370078740157
        },
        {
          "duration": 0.16216200000000214,
          "durationTicks": 48,
          "midi": 82,
          "name": "A#5",
          "ticks": 12384,
          "time": 41.837796,
          "velocity": 0.6220472440944882
        },
        {
          "duration": 0.16216200000000214,
          "durationTicks": 48,
          "midi": 92,
          "name": "G#6",
          "ticks": 12528,
          "time": 42.324282,
          "velocity": 0.5433070866141733
        },
        {
          "duration": 0.3243240000000043,
          "durationTicks": 96,
          "midi": 73,
          "name": "C#5",
          "ticks": 12576,
          "time": 42.486444,
          "velocity": 0.5039370078740157
        },
        {
          "duration": 0.3243240000000043,
          "durationTicks": 96,
          "midi": 85,
          "name": "C#6",
          "ticks": 12576,
          "time": 42.486444,
          "velocity": 0.5039370078740157
        },
        {
          "duration": 0.08108099999999752,
          "durationTicks": 24,
          "midi": 68,
          "name": "G#4",
          "ticks": 23040,
          "time": 77.83776,
          "velocity": 0.41732283464566927
        },
        {
          "duration": 0.08108099999999752,
          "durationTicks": 24,
          "midi": 80,
          "name": "G#5",
          "ticks": 23088,
          "time": 77.999922,
          "velocity": 0.41732283464566927
        },
        {
          "duration": 0.08108099999999752,
          "durationTicks": 24,
          "midi": 92,
          "name": "G#6",
          "ticks": 23136,
          "time": 78.16208400000001,
          "velocity": 0.41732283464566927
        },
        {
          "duration": 0.08108099999999752,
          "durationTicks": 24,
          "midi": 80,
          "name": "G#5",
          "ticks": 23184,
          "time": 78.324246,
          "velocity": 0.41732283464566927
        },
        {
          "duration": 0.08108099999999752,
          "durationTicks": 24,
          "midi": 68,
          "name": "G#4",
          "ticks": 23232,
          "time": 78.486408,
          "velocity": 0.41732283464566927
        },
        {
          "duration": 0.08108099999999752,
          "durationTicks": 24,
          "midi": 80,
          "name": "G#5",
          "ticks": 23280,
          "time": 78.64857,
          "velocity": 0.41732283464566927
        },
        {
          "duration": 0.08108099999999752,
          "durationTicks": 24,
          "midi": 87,
          "name": "D#6",
          "ticks": 23328,
          "time": 78.810732,
          "velocity": 0.41732283464566927
        },
        {
          "duration": 0.08108099999999752,
          "durationTicks": 24,
          "midi": 80,
          "name": "G#5",
          "ticks": 23376,
          "time": 78.972894,
          "velocity": 0.41732283464566927
        },
        {
          "duration": 0.08108099999999752,
          "durationTicks": 24,
          "midi": 68,
          "name": "G#4",
          "ticks": 23424,
          "time": 79.135056,
          "velocity": 0.41732283464566927
        },
        {
          "duration": 0.08108099999999752,
          "durationTicks": 24,
          "midi": 80,
          "name": "G#5",
          "ticks": 23472,
          "time": 79.297218,
          "velocity": 0.41732283464566927
        },
        {
          "duration": 0.08108099999999752,
          "durationTicks": 24,
          "midi": 92,
          "name": "G#6",
          "ticks": 23520,
          "time": 79.45938,
          "velocity": 0.41732283464566927
        },
        {
          "duration": 0.08108099999999752,
          "durationTicks": 24,
          "midi": 80,
          "name": "G#5",
          "ticks": 23568,
          "time": 79.621542,
          "velocity": 0.41732283464566927
        },
        {
          "duration": 0.08108099999999752,
          "durationTicks": 24,
          "midi": 68,
          "name": "G#4",
          "ticks": 23616,
          "time": 79.783704,
          "velocity": 0.41732283464566927
        },
        {
          "duration": 0.08108100000001173,
          "durationTicks": 24,
          "midi": 80,
          "name": "G#5",
          "ticks": 23664,
          "time": 79.945866,
          "velocity": 0.41732283464566927
        },
        {
          "duration": 0.08108099999999752,
          "durationTicks": 24,
          "midi": 87,
          "name": "D#6",
          "ticks": 23712,
          "time": 80.108028,
          "velocity": 0.41732283464566927
        },
        {
          "duration": 0.08108099999999752,
          "durationTicks": 24,
          "midi": 80,
          "name": "G#5",
          "ticks": 23760,
          "time": 80.27019,
          "velocity": 0.41732283464566927
        },
        {
          "duration": 0.08108100000001173,
          "durationTicks": 24,
          "midi": 68,
          "name": "G#4",
          "ticks": 23808,
          "time": 80.432352,
          "velocity": 0.41732283464566927
        },
        {
          "duration": 0.08108099999999752,
          "durationTicks": 24,
          "midi": 80,
          "name": "G#5",
          "ticks": 23856,
          "time": 80.594514,
          "velocity": 0.41732283464566927
        },
        {
          "duration": 0.08108099999999752,
          "durationTicks": 24,
          "midi": 92,
          "name": "G#6",
          "ticks": 23904,
          "time": 80.756676,
          "velocity": 0.41732283464566927
        },
        {
          "duration": 0.08108100000001173,
          "durationTicks": 24,
          "midi": 80,
          "name": "G#5",
          "ticks": 23952,
          "time": 80.918838,
          "velocity": 0.41732283464566927
        },
        {
          "duration": 0.08108099999999752,
          "durationTicks": 24,
          "midi": 68,
          "name": "G#4",
          "ticks": 24000,
          "time": 81.081,
          "velocity": 0.41732283464566927
        },
        {
          "duration": 0.08108099999999752,
          "durationTicks": 24,
          "midi": 80,
          "name": "G#5",
          "ticks": 24048,
          "time": 81.243162,
          "velocity": 0.41732283464566927
        },
        {
          "duration": 0.08108099999999752,
          "durationTicks": 24,
          "midi": 87,
          "name": "D#6",
          "ticks": 24096,
          "time": 81.40532400000001,
          "velocity": 0.41732283464566927
        },
        {
          "duration": 0.08108099999999752,
          "durationTicks": 24,
          "midi": 80,
          "name": "G#5",
          "ticks": 24144,
          "time": 81.567486,
          "velocity": 0.41732283464566927
        },
        {
          "duration": 0.08108099999999752,
          "durationTicks": 24,
          "midi": 68,
          "name": "G#4",
          "ticks": 24192,
          "time": 81.729648,
          "velocity": 0.41732283464566927
        },
        {
          "duration": 0.08108099999999752,
          "durationTicks": 24,
          "midi": 80,
          "name": "G#5",
          "ticks": 24240,
          "time": 81.89181,
          "velocity": 0.41732283464566927
        },
        {
          "duration": 0.08108099999999752,
          "durationTicks": 24,
          "midi": 92,
          "name": "G#6",
          "ticks": 24288,
          "time": 82.053972,
          "velocity": 0.41732283464566927
        },
        {
          "duration": 0.08108099999999752,
          "durationTicks": 24,
          "midi": 80,
          "name": "G#5",
          "ticks": 24336,
          "time": 82.216134,
          "velocity": 0.41732283464566927
        },
        {
          "duration": 0.08108099999999752,
          "durationTicks": 24,
          "midi": 68,
          "name": "G#4",
          "ticks": 24384,
          "time": 82.378296,
          "velocity": 0.41732283464566927
        },
        {
          "duration": 0.08108099999999752,
          "durationTicks": 24,
          "midi": 80,
          "name": "G#5",
          "ticks": 24432,
          "time": 82.540458,
          "velocity": 0.41732283464566927
        },
        {
          "duration": 0.08108099999999752,
          "durationTicks": 24,
          "midi": 87,
          "name": "D#6",
          "ticks": 24480,
          "time": 82.70262,
          "velocity": 0.41732283464566927
        },
        {
          "duration": 0.08108099999999752,
          "durationTicks": 24,
          "midi": 80,
          "name": "G#5",
          "ticks": 24528,
          "time": 82.864782,
          "velocity": 0.41732283464566927
        },
        {
          "duration": 0.08108099999999752,
          "durationTicks": 24,
          "midi": 68,
          "name": "G#4",
          "ticks": 24576,
          "time": 83.026944,
          "velocity": 0.41732283464566927
        },
        {
          "duration": 0.08108100000001173,
          "durationTicks": 24,
          "midi": 80,
          "name": "G#5",
          "ticks": 24624,
          "time": 83.189106,
          "velocity": 0.41732283464566927
        },
        {
          "duration": 0.08108099999999752,
          "durationTicks": 24,
          "midi": 92,
          "name": "G#6",
          "ticks": 24672,
          "time": 83.351268,
          "velocity": 0.41732283464566927
        },
        {
          "duration": 0.08108099999999752,
          "durationTicks": 24,
          "midi": 80,
          "name": "G#5",
          "ticks": 24720,
          "time": 83.51343,
          "velocity": 0.41732283464566927
        },
        {
          "duration": 0.08108100000001173,
          "durationTicks": 24,
          "midi": 68,
          "name": "G#4",
          "ticks": 24768,
          "time": 83.675592,
          "velocity": 0.41732283464566927
        },
        {
          "duration": 0.08108099999999752,
          "durationTicks": 24,
          "midi": 80,
          "name": "G#5",
          "ticks": 24816,
          "time": 83.837754,
          "velocity": 0.41732283464566927
        },
        {
          "duration": 0.08108099999999752,
          "durationTicks": 24,
          "midi": 87,
          "name": "D#6",
          "ticks": 24864,
          "time": 83.999916,
          "velocity": 0.41732283464566927
        },
        {
          "duration": 0.08108100000001173,
          "durationTicks": 24,
          "midi": 80,
          "name": "G#5",
          "ticks": 24912,
          "time": 84.162078,
          "velocity": 0.41732283464566927
        },
        {
          "duration": 0.08108099999999752,
          "durationTicks": 24,
          "midi": 68,
          "name": "G#4",
          "ticks": 24960,
          "time": 84.32424,
          "velocity": 0.41732283464566927
        },
        {
          "duration": 0.08108099999999752,
          "durationTicks": 24,
          "midi": 80,
          "name": "G#5",
          "ticks": 25008,
          "time": 84.486402,
          "velocity": 0.41732283464566927
        },
        {
          "duration": 0.08108100000001173,
          "durationTicks": 24,
          "midi": 92,
          "name": "G#6",
          "ticks": 25056,
          "time": 84.648564,
          "velocity": 0.41732283464566927
        },
        {
          "duration": 0.08108099999999752,
          "durationTicks": 24,
          "midi": 80,
          "name": "G#5",
          "ticks": 25104,
          "time": 84.810726,
          "velocity": 0.41732283464566927
        },
        {
          "duration": 0.08108099999999752,
          "durationTicks": 24,
          "midi": 68,
          "name": "G#4",
          "ticks": 25152,
          "time": 84.972888,
          "velocity": 0.41732283464566927
        },
        {
          "duration": 0.08108099999999752,
          "durationTicks": 24,
          "midi": 80,
          "name": "G#5",
          "ticks": 25200,
          "time": 85.13505,
          "velocity": 0.41732283464566927
        },
        {
          "duration": 0.08108099999999752,
          "durationTicks": 24,
          "midi": 87,
          "name": "D#6",
          "ticks": 25248,
          "time": 85.297212,
          "velocity": 0.41732283464566927
        },
        {
          "duration": 0.08108099999999752,
          "durationTicks": 24,
          "midi": 80,
          "name": "G#5",
          "ticks": 25296,
          "time": 85.459374,
          "velocity": 0.41732283464566927
        },
        {
          "duration": 0.08108099999999752,
          "durationTicks": 24,
          "midi": 68,
          "name": "G#4",
          "ticks": 25344,
          "time": 85.621536,
          "velocity": 0.41732283464566927
        },
        {
          "duration": 0.08108099999999752,
          "durationTicks": 24,
          "midi": 80,
          "name": "G#5",
          "ticks": 25392,
          "time": 85.783698,
          "velocity": 0.41732283464566927
        },
        {
          "duration": 0.08108099999999752,
          "durationTicks": 24,
          "midi": 92,
          "name": "G#6",
          "ticks": 25440,
          "time": 85.94586,
          "velocity": 0.41732283464566927
        },
        {
          "duration": 0.08108099999999752,
          "durationTicks": 24,
          "midi": 80,
          "name": "G#5",
          "ticks": 25488,
          "time": 86.108022,
          "velocity": 0.41732283464566927
        },
        {
          "duration": 0.08108099999999752,
          "durationTicks": 24,
          "midi": 68,
          "name": "G#4",
          "ticks": 25536,
          "time": 86.270184,
          "velocity": 0.41732283464566927
        },
        {
          "duration": 0.08108100000001173,
          "durationTicks": 24,
          "midi": 80,
          "name": "G#5",
          "ticks": 25584,
          "time": 86.432346,
          "velocity": 0.41732283464566927
        },
        {
          "duration": 0.08108099999999752,
          "durationTicks": 24,
          "midi": 87,
          "name": "D#6",
          "ticks": 25632,
          "time": 86.594508,
          "velocity": 0.41732283464566927
        },
        {
          "duration": 0.08108099999999752,
          "durationTicks": 24,
          "midi": 80,
          "name": "G#5",
          "ticks": 25680,
          "time": 86.75667,
          "velocity": 0.41732283464566927
        },
        {
          "duration": 0.08108100000001173,
          "durationTicks": 24,
          "midi": 68,
          "name": "G#4",
          "ticks": 25728,
          "time": 86.918832,
          "velocity": 0.41732283464566927
        },
        {
          "duration": 0.08108099999999752,
          "durationTicks": 24,
          "midi": 80,
          "name": "G#5",
          "ticks": 25776,
          "time": 87.080994,
          "velocity": 0.41732283464566927
        },
        {
          "duration": 0.08108099999999752,
          "durationTicks": 24,
          "midi": 92,
          "name": "G#6",
          "ticks": 25824,
          "time": 87.243156,
          "velocity": 0.41732283464566927
        },
        {
          "duration": 0.08108100000001173,
          "durationTicks": 24,
          "midi": 80,
          "name": "G#5",
          "ticks": 25872,
          "time": 87.405318,
          "velocity": 0.41732283464566927
        },
        {
          "duration": 0.08108099999999752,
          "durationTicks": 24,
          "midi": 68,
          "name": "G#4",
          "ticks": 25920,
          "time": 87.56748,
          "velocity": 0.41732283464566927
        },
        {
          "duration": 0.08108099999999752,
          "durationTicks": 24,
          "midi": 80,
          "name": "G#5",
          "ticks": 25968,
          "time": 87.729642,
          "velocity": 0.41732283464566927
        },
        {
          "duration": 0.08108100000001173,
          "durationTicks": 24,
          "midi": 87,
          "name": "D#6",
          "ticks": 26016,
          "time": 87.891804,
          "velocity": 0.41732283464566927
        },
        {
          "duration": 0.08108099999999752,
          "durationTicks": 24,
          "midi": 80,
          "name": "G#5",
          "ticks": 26064,
          "time": 88.053966,
          "velocity": 0.41732283464566927
        },
        {
          "duration": 0.08108099999999752,
          "durationTicks": 24,
          "midi": 68,
          "name": "G#4",
          "ticks": 26112,
          "time": 88.216128,
          "velocity": 0.41732283464566927
        },
        {
          "duration": 0.08108099999999752,
          "durationTicks": 24,
          "midi": 80,
          "name": "G#5",
          "ticks": 26160,
          "time": 88.37829,
          "velocity": 0.41732283464566927
        },
        {
          "duration": 0.08108099999999752,
          "durationTicks": 24,
          "midi": 92,
          "name": "G#6",
          "ticks": 26208,
          "time": 88.540452,
          "velocity": 0.41732283464566927
        },
        {
          "duration": 0.08108099999999752,
          "durationTicks": 24,
          "midi": 80,
          "name": "G#5",
          "ticks": 26256,
          "time": 88.702614,
          "velocity": 0.41732283464566927
        },
        {
          "duration": 0.08108099999999752,
          "durationTicks": 24,
          "midi": 68,
          "name": "G#4",
          "ticks": 26304,
          "time": 88.864776,
          "velocity": 0.41732283464566927
        },
        {
          "duration": 0.08108099999999752,
          "durationTicks": 24,
          "midi": 80,
          "name": "G#5",
          "ticks": 26352,
          "time": 89.026938,
          "velocity": 0.41732283464566927
        },
        {
          "duration": 0.08108099999999752,
          "durationTicks": 24,
          "midi": 87,
          "name": "D#6",
          "ticks": 26400,
          "time": 89.1891,
          "velocity": 0.41732283464566927
        },
        {
          "duration": 0.08108099999999752,
          "durationTicks": 24,
          "midi": 80,
          "name": "G#5",
          "ticks": 26448,
          "time": 89.351262,
          "velocity": 0.41732283464566927
        },
        {
          "duration": 0.08108099999999752,
          "durationTicks": 24,
          "midi": 68,
          "name": "G#4",
          "ticks": 26496,
          "time": 89.513424,
          "velocity": 0.41732283464566927
        },
        {
          "duration": 0.08108100000001173,
          "durationTicks": 24,
          "midi": 80,
          "name": "G#5",
          "ticks": 26544,
          "time": 89.675586,
          "velocity": 0.41732283464566927
        },
        {
          "duration": 0.08108099999999752,
          "durationTicks": 24,
          "midi": 92,
          "name": "G#6",
          "ticks": 26592,
          "time": 89.837748,
          "velocity": 0.41732283464566927
        },
        {
          "duration": 0.08108099999999752,
          "durationTicks": 24,
          "midi": 80,
          "name": "G#5",
          "ticks": 26640,
          "time": 89.99991,
          "velocity": 0.41732283464566927
        },
        {
          "duration": 0.08108100000001173,
          "durationTicks": 24,
          "midi": 68,
          "name": "G#4",
          "ticks": 26688,
          "time": 90.162072,
          "velocity": 0.41732283464566927
        },
        {
          "duration": 0.08108099999999752,
          "durationTicks": 24,
          "midi": 80,
          "name": "G#5",
          "ticks": 26736,
          "time": 90.324234,
          "velocity": 0.41732283464566927
        },
        {
          "duration": 0.08108099999999752,
          "durationTicks": 24,
          "midi": 87,
          "name": "D#6",
          "ticks": 26784,
          "time": 90.486396,
          "velocity": 0.41732283464566927
        },
        {
          "duration": 0.08108100000001173,
          "durationTicks": 24,
          "midi": 80,
          "name": "G#5",
          "ticks": 26832,
          "time": 90.648558,
          "velocity": 0.41732283464566927
        },
        {
          "duration": 0.08108099999999752,
          "durationTicks": 24,
          "midi": 68,
          "name": "G#4",
          "ticks": 26880,
          "time": 90.81072,
          "velocity": 0.41732283464566927
        },
        {
          "duration": 0.08108099999999752,
          "durationTicks": 24,
          "midi": 80,
          "name": "G#5",
          "ticks": 26928,
          "time": 90.972882,
          "velocity": 0.41732283464566927
        },
        {
          "duration": 0.08108100000001173,
          "durationTicks": 24,
          "midi": 92,
          "name": "G#6",
          "ticks": 26976,
          "time": 91.135044,
          "velocity": 0.41732283464566927
        },
        {
          "duration": 0.08108099999999752,
          "durationTicks": 24,
          "midi": 80,
          "name": "G#5",
          "ticks": 27024,
          "time": 91.297206,
          "velocity": 0.41732283464566927
        },
        {
          "duration": 0.08108099999999752,
          "durationTicks": 24,
          "midi": 68,
          "name": "G#4",
          "ticks": 27072,
          "time": 91.459368,
          "velocity": 0.41732283464566927
        },
        {
          "duration": 0.08108099999999752,
          "durationTicks": 24,
          "midi": 80,
          "name": "G#5",
          "ticks": 27120,
          "time": 91.62153,
          "velocity": 0.41732283464566927
        },
        {
          "duration": 0.08108099999999752,
          "durationTicks": 24,
          "midi": 87,
          "name": "D#6",
          "ticks": 27168,
          "time": 91.783692,
          "velocity": 0.41732283464566927
        },
        {
          "duration": 0.08108099999999752,
          "durationTicks": 24,
          "midi": 80,
          "name": "G#5",
          "ticks": 27216,
          "time": 91.945854,
          "velocity": 0.41732283464566927
        },
        {
          "duration": 0.08108099999999752,
          "durationTicks": 24,
          "midi": 68,
          "name": "G#4",
          "ticks": 27264,
          "time": 92.108016,
          "velocity": 0.41732283464566927
        },
        {
          "duration": 0.08108099999999752,
          "durationTicks": 24,
          "midi": 80,
          "name": "G#5",
          "ticks": 27312,
          "time": 92.270178,
          "velocity": 0.41732283464566927
        },
        {
          "duration": 0.08108099999999752,
          "durationTicks": 24,
          "midi": 92,
          "name": "G#6",
          "ticks": 27360,
          "time": 92.43234,
          "velocity": 0.41732283464566927
        },
        {
          "duration": 0.08108099999999752,
          "durationTicks": 24,
          "midi": 80,
          "name": "G#5",
          "ticks": 27408,
          "time": 92.594502,
          "velocity": 0.41732283464566927
        },
        {
          "duration": 0.08108099999999752,
          "durationTicks": 24,
          "midi": 68,
          "name": "G#4",
          "ticks": 27456,
          "time": 92.756664,
          "velocity": 0.41732283464566927
        },
        {
          "duration": 0.08108100000001173,
          "durationTicks": 24,
          "midi": 80,
          "name": "G#5",
          "ticks": 27504,
          "time": 92.918826,
          "velocity": 0.41732283464566927
        },
        {
          "duration": 0.08108099999999752,
          "durationTicks": 24,
          "midi": 87,
          "name": "D#6",
          "ticks": 27552,
          "time": 93.080988,
          "velocity": 0.41732283464566927
        },
        {
          "duration": 0.08108099999999752,
          "durationTicks": 24,
          "midi": 80,
          "name": "G#5",
          "ticks": 27600,
          "time": 93.24315,
          "velocity": 0.41732283464566927
        },
        {
          "duration": 0.08108100000001173,
          "durationTicks": 24,
          "midi": 68,
          "name": "G#4",
          "ticks": 27648,
          "time": 93.405312,
          "velocity": 0.41732283464566927
        },
        {
          "duration": 0.08108099999999752,
          "durationTicks": 24,
          "midi": 80,
          "name": "G#5",
          "ticks": 27696,
          "time": 93.567474,
          "velocity": 0.41732283464566927
        },
        {
          "duration": 0.08108099999999752,
          "durationTicks": 24,
          "midi": 92,
          "name": "G#6",
          "ticks": 27744,
          "time": 93.729636,
          "velocity": 0.41732283464566927
        },
        {
          "duration": 0.08108100000001173,
          "durationTicks": 24,
          "midi": 80,
          "name": "G#5",
          "ticks": 27792,
          "time": 93.891798,
          "velocity": 0.41732283464566927
        },
        {
          "duration": 0.08108099999999752,
          "durationTicks": 24,
          "midi": 68,
          "name": "G#4",
          "ticks": 27840,
          "time": 94.05396,
          "velocity": 0.41732283464566927
        },
        {
          "duration": 0.08108099999999752,
          "durationTicks": 24,
          "midi": 80,
          "name": "G#5",
          "ticks": 27888,
          "time": 94.216122,
          "velocity": 0.41732283464566927
        },
        {
          "duration": 0.08108100000001173,
          "durationTicks": 24,
          "midi": 87,
          "name": "D#6",
          "ticks": 27936,
          "time": 94.378284,
          "velocity": 0.41732283464566927
        },
        {
          "duration": 0.08108099999999752,
          "durationTicks": 24,
          "midi": 80,
          "name": "G#5",
          "ticks": 27984,
          "time": 94.540446,
          "velocity": 0.41732283464566927
        },
        {
          "duration": 0.08108099999999752,
          "durationTicks": 24,
          "midi": 68,
          "name": "G#4",
          "ticks": 28032,
          "time": 94.702608,
          "velocity": 0.41732283464566927
        },
        {
          "duration": 0.08108099999999752,
          "durationTicks": 24,
          "midi": 80,
          "name": "G#5",
          "ticks": 28080,
          "time": 94.86477000000001,
          "velocity": 0.41732283464566927
        },
        {
          "duration": 0.08108099999999752,
          "durationTicks": 24,
          "midi": 92,
          "name": "G#6",
          "ticks": 28128,
          "time": 95.026932,
          "velocity": 0.41732283464566927
        },
        {
          "duration": 0.08108099999999752,
          "durationTicks": 24,
          "midi": 80,
          "name": "G#5",
          "ticks": 28176,
          "time": 95.189094,
          "velocity": 0.41732283464566927
        },
        {
          "duration": 0.08108099999999752,
          "durationTicks": 24,
          "midi": 68,
          "name": "G#4",
          "ticks": 28224,
          "time": 95.351256,
          "velocity": 0.41732283464566927
        },
        {
          "duration": 0.08108099999999752,
          "durationTicks": 24,
          "midi": 80,
          "name": "G#5",
          "ticks": 28272,
          "time": 95.513418,
          "velocity": 0.41732283464566927
        },
        {
          "duration": 0.08108099999999752,
          "durationTicks": 24,
          "midi": 87,
          "name": "D#6",
          "ticks": 28320,
          "time": 95.67558,
          "velocity": 0.41732283464566927
        },
        {
          "duration": 0.08108099999999752,
          "durationTicks": 24,
          "midi": 80,
          "name": "G#5",
          "ticks": 28368,
          "time": 95.837742,
          "velocity": 0.41732283464566927
        }
      ],
      "endOfTrackTicks": 46086
    },
    {
      "channel": 3,
      "controlChanges": {
        "6": [
          {
            "number": 6,
            "ticks": 0,
            "time": 0,
            "value": 0.09448818897637795
          },
          {
            "number": 6,
            "ticks": 0,
            "time": 0,
            "value": 0.09448818897637795
          },
          {
            "number": 6,
            "ticks": 0,
            "time": 0,
            "value": 0.09448818897637795
          },
          {
            "number": 6,
            "ticks": 46084,
            "time": 155.6890335,
            "value": 0.09448818897637795
          },
          {
            "number": 6,
            "ticks": 46086,
            "time": 155.69579025,
            "value": 0.09448818897637795
          }
        ],
        "7": [
          {
            "number": 7,
            "ticks": 0,
            "time": 0,
            "value": 0.7874015748031497
          },
          {
            "number": 7,
            "ticks": 0,
            "time": 0,
            "value": 0.7874015748031497
          },
          {
            "number": 7,
            "ticks": 0,
            "time": 0,
            "value": 0.7874015748031497
          },
          {
            "number": 7,
            "ticks": 0,
            "time": 0,
            "value": 0.7874015748031497
          },
          {
            "number": 7,
            "ticks": 46084,
            "time": 155.6890335,
            "value": 0.7874015748031497
          },
          {
            "number": 7,
            "ticks": 46086,
            "time": 155.69579025,
            "value": 0.7874015748031497
          }
        ],
        "10": [
          {
            "number": 10,
            "ticks": 0,
            "time": 0,
            "value": 0.5039370078740157
          },
          {
            "number": 10,
            "ticks": 0,
            "time": 0,
            "value": 0.5039370078740157
          },
          {
            "number": 10,
            "ticks": 0,
            "time": 0,
            "value": 0.5039370078740157
          },
          {
            "number": 10,
            "ticks": 0,
            "time": 0,
            "value": 0.5039370078740157
          },
          {
            "number": 10,
            "ticks": 46084,
            "time": 155.6890335,
            "value": 0.5039370078740157
          },
          {
            "number": 10,
            "ticks": 46086,
            "time": 155.69579025,
            "value": 0.5039370078740157
          }
        ],
        "100": [
          {
            "number": 100,
            "ticks": 0,
            "time": 0,
            "value": 0
          },
          {
            "number": 100,
            "ticks": 0,
            "time": 0,
            "value": 0
          },
          {
            "number": 100,
            "ticks": 0,
            "time": 0,
            "value": 0
          },
          {
            "number": 100,
            "ticks": 46084,
            "time": 155.6890335,
            "value": 0
          },
          {
            "number": 100,
            "ticks": 46086,
            "time": 155.69579025,
            "value": 0
          }
        ],
        "101": [
          {
            "number": 101,
            "ticks": 0,
            "time": 0,
            "value": 0
          },
          {
            "number": 101,
            "ticks": 0,
            "time": 0,
            "value": 0
          },
          {
            "number": 101,
            "ticks": 0,
            "time": 0,
            "value": 0
          },
          {
            "number": 101,
            "ticks": 46084,
            "time": 155.6890335,
            "value": 0
          },
          {
            "number": 101,
            "ticks": 46086,
            "time": 155.69579025,
            "value": 0
          }
        ]
      },
      "pitchBends": [
        {
          "ticks": 0,
          "time": 0,
          "value": 0
        },
        {
          "ticks": 0,
          "time": 0,
          "value": 0
        },
        {
          "ticks": 0,
          "time": 0,
          "value": 0
        },
        {
          "ticks": 0,
          "time": 0,
          "value": 0
        },
        {
          "ticks": 46084,
          "time": 155.6890335,
          "value": 0
        },
        {
          "ticks": 46086,
          "time": 155.69579025,
          "value": 0
        }
      ],
      "instrument": {
        "family": "piano",
        "number": 0,
        "name": "acoustic grand piano"
      },
      "name": "I cant hear this guitar",
      "notes": [
        {
          "duration": 0.16216199999999859,
          "durationTicks": 48,
          "midi": 58,
          "name": "A#3",
          "ticks": 6480,
          "time": 21.89187,
          "velocity": 0.5511811023622047
        },
        {
          "duration": 0.16216199999999859,
          "durationTicks": 48,
          "midi": 53,
          "name": "F3",
          "ticks": 6480,
          "time": 21.89187,
          "velocity": 0.5511811023622047
        },
        {
          "duration": 0.16216200000000214,
          "durationTicks": 48,
          "midi": 53,
          "name": "F3",
          "ticks": 6672,
          "time": 22.540518,
          "velocity": 0.5511811023622047
        },
        {
          "duration": 0.16216200000000214,
          "durationTicks": 48,
          "midi": 58,
          "name": "A#3",
          "ticks": 6672,
          "time": 22.540518,
          "velocity": 0.5511811023622047
        },
        {
          "duration": 0.3243240000000007,
          "durationTicks": 96,
          "midi": 70,
          "name": "A#4",
          "ticks": 6912,
          "time": 23.351328,
          "velocity": 0.5511811023622047
        },
        {
          "duration": 0.16216200000000214,
          "durationTicks": 48,
          "midi": 66,
          "name": "F#4",
          "ticks": 7008,
          "time": 23.675652,
          "velocity": 0.5511811023622047
        },
        {
          "duration": 0.16216199999999859,
          "durationTicks": 48,
          "midi": 65,
          "name": "F4",
          "ticks": 7056,
          "time": 23.837814,
          "velocity": 0.5511811023622047
        },
        {
          "duration": 0.16216199999999859,
          "durationTicks": 48,
          "midi": 63,
          "name": "D#4",
          "ticks": 7104,
          "time": 23.999976,
          "velocity": 0.5511811023622047
        },
        {
          "duration": 0.16216200000000214,
          "durationTicks": 48,
          "midi": 61,
          "name": "C#4",
          "ticks": 7152,
          "time": 24.162138,
          "velocity": 0.5511811023622047
        },
        {
          "duration": 0.16216199999999859,
          "durationTicks": 48,
          "midi": 63,
          "name": "D#4",
          "ticks": 7200,
          "time": 24.3243,
          "velocity": 0.5511811023622047
        },
        {
          "duration": 0.3243240000000007,
          "durationTicks": 96,
          "midi": 56,
          "name": "G#3",
          "ticks": 7248,
          "time": 24.486462,
          "velocity": 0.5511811023622047
        },
        {
          "duration": 0.16216199999999859,
          "durationTicks": 48,
          "midi": 56,
          "name": "G#3",
          "ticks": 7344,
          "time": 24.810786,
          "velocity": 0.5511811023622047
        },
        {
          "duration": 0.16216200000000214,
          "durationTicks": 48,
          "midi": 60,
          "name": "C4",
          "ticks": 7392,
          "time": 24.972948,
          "velocity": 0.5511811023622047
        },
        {
          "duration": 0.16216199999999859,
          "durationTicks": 48,
          "midi": 61,
          "name": "C#4",
          "ticks": 7440,
          "time": 25.13511,
          "velocity": 0.5511811023622047
        },
        {
          "duration": 0.16216200000000214,
          "durationTicks": 48,
          "midi": 63,
          "name": "D#4",
          "ticks": 7488,
          "time": 25.297272,
          "velocity": 0.5511811023622047
        },
        {
          "duration": 0.16216199999999859,
          "durationTicks": 48,
          "midi": 61,
          "name": "C#4",
          "ticks": 7536,
          "time": 25.459434,
          "velocity": 0.5511811023622047
        },
        {
          "duration": 0.16216199999999859,
          "durationTicks": 48,
          "midi": 63,
          "name": "D#4",
          "ticks": 7584,
          "time": 25.621596,
          "velocity": 0.5511811023622047
        },
        {
          "duration": 0.04054050000000231,
          "durationTicks": 12,
          "midi": 64,
          "name": "E4",
          "ticks": 7632,
          "time": 25.783758,
          "velocity": 0.28346456692913385
        },
        {
          "duration": 0.03716212499999827,
          "durationTicks": 11,
          "midi": 65,
          "name": "F4",
          "ticks": 7638,
          "time": 25.80402825,
          "velocity": 0.30708661417322836
        },
        {
          "duration": 0.03716212499999827,
          "durationTicks": 11,
          "midi": 66,
          "name": "F#4",
          "ticks": 7644,
          "time": 25.8242985,
          "velocity": 0.33070866141732286
        },
        {
          "duration": 0.04054049999999876,
          "durationTicks": 12,
          "midi": 67,
          "name": "G4",
          "ticks": 7649,
          "time": 25.841190375,
          "velocity": 0.3464566929133858
        },
        {
          "duration": 0.03716212500000182,
          "durationTicks": 11,
          "midi": 68,
          "name": "G#4",
          "ticks": 7655,
          "time": 25.861460625,
          "velocity": 0.36220472440944884
        },
        {
          "duration": 0.04054049999999876,
          "durationTicks": 12,
          "midi": 69,
          "name": "A4",
          "ticks": 7661,
          "time": 25.881730875,
          "velocity": 0.3858267716535433
        },
        {
          "duration": 0.36486450000000303,
          "durationTicks": 108,
          "midi": 70,
          "name": "A#4",
          "ticks": 7668,
          "time": 25.9053795,
          "velocity": 0.5511811023622047
        },
        {
          "duration": 0.16216199999999859,
          "durationTicks": 48,
          "midi": 66,
          "name": "F#4",
          "ticks": 7776,
          "time": 26.270244,
          "velocity": 0.5511811023622047
        },
        {
          "duration": 0.16216199999999859,
          "durationTicks": 48,
          "midi": 65,
          "name": "F4",
          "ticks": 7824,
          "time": 26.432406,
          "velocity": 0.5511811023622047
        },
        {
          "duration": 0.16216200000000214,
          "durationTicks": 48,
          "midi": 63,
          "name": "D#4",
          "ticks": 7872,
          "time": 26.594568,
          "velocity": 0.5511811023622047
        },
        {
          "duration": 0.16216199999999859,
          "durationTicks": 48,
          "midi": 61,
          "name": "C#4",
          "ticks": 7920,
          "time": 26.75673,
          "velocity": 0.5511811023622047
        },
        {
          "duration": 0.16216200000000214,
          "durationTicks": 48,
          "midi": 63,
          "name": "D#4",
          "ticks": 7968,
          "time": 26.918892,
          "velocity": 0.5511811023622047
        },
        {
          "duration": 0.08108099999999752,
          "durationTicks": 24,
          "midi": 63,
          "name": "D#4",
          "ticks": 8016,
          "time": 27.081054,
          "velocity": 0.5511811023622047
        },
        {
          "duration": 0.24324299999999965,
          "durationTicks": 72,
          "midi": 64,
          "name": "E4",
          "ticks": 8040,
          "time": 27.162135,
          "velocity": 0.5511811023622047
        },
        {
          "duration": 0.16216200000000214,
          "durationTicks": 48,
          "midi": 63,
          "name": "D#4",
          "ticks": 8112,
          "time": 27.405378,
          "velocity": 0.5511811023622047
        },
        {
          "duration": 0.16216199999999859,
          "durationTicks": 48,
          "midi": 61,
          "name": "C#4",
          "ticks": 8160,
          "time": 27.56754,
          "velocity": 0.5511811023622047
        },
        {
          "duration": 0.16216200000000214,
          "durationTicks": 48,
          "midi": 63,
          "name": "D#4",
          "ticks": 8208,
          "time": 27.729702,
          "velocity": 0.5511811023622047
        },
        {
          "duration": 0.16216199999999859,
          "durationTicks": 48,
          "midi": 64,
          "name": "E4",
          "ticks": 8256,
          "time": 27.891864,
          "velocity": 0.5511811023622047
        },
        {
          "duration": 0.16216199999999859,
          "durationTicks": 48,
          "midi": 63,
          "name": "D#4",
          "ticks": 8304,
          "time": 28.054026,
          "velocity": 0.5511811023622047
        },
        {
          "duration": 0.3243240000000007,
          "durationTicks": 96,
          "midi": 61,
          "name": "C#4",
          "ticks": 8352,
          "time": 28.216188,
          "velocity": 0.5511811023622047
        },
        {
          "duration": 0.16216200000000214,
          "durationTicks": 48,
          "midi": 73,
          "name": "C#5",
          "ticks": 8448,
          "time": 28.540512,
          "velocity": 0.5511811023622047
        },
        {
          "duration": 0.013513500000001955,
          "durationTicks": 4,
          "midi": 72,
          "name": "C5",
          "ticks": 8472,
          "time": 28.621593,
          "velocity": 0.3858267716535433
        },
        {
          "duration": 0.013513499999994849,
          "durationTicks": 4,
          "midi": 71,
          "name": "B4",
          "ticks": 8476,
          "time": 28.635106500000003,
          "velocity": 0.33070866141732286
        },
        {
          "duration": 0.013513500000001955,
          "durationTicks": 4,
          "midi": 70,
          "name": "A#4",
          "ticks": 8480,
          "time": 28.648619999999998,
          "velocity": 0.2677165354330709
        },
        {
          "duration": 0.010135125000001466,
          "durationTicks": 3,
          "midi": 69,
          "name": "A4",
          "ticks": 8484,
          "time": 28.6621335,
          "velocity": 0.2125984251968504
        },
        {
          "duration": 0.013513500000001955,
          "durationTicks": 4,
          "midi": 68,
          "name": "G#4",
          "ticks": 8487,
          "time": 28.672268625,
          "velocity": 0.16535433070866143
        },
        {
          "duration": 0.013513499999994849,
          "durationTicks": 4,
          "midi": 67,
          "name": "G4",
          "ticks": 8491,
          "time": 28.685782125000003,
          "velocity": 0.11023622047244094
        },
        {
          "duration": 0.16216199999999859,
          "durationTicks": 48,
          "midi": 61,
          "name": "C#4",
          "ticks": 8544,
          "time": 28.864836,
          "velocity": 0.5511811023622047
        },
        {
          "duration": 0.16216200000000214,
          "durationTicks": 48,
          "midi": 61,
          "name": "C#4",
          "ticks": 8592,
          "time": 29.026998,
          "velocity": 0.5511811023622047
        },
        {
          "duration": 0.16216199999999859,
          "durationTicks": 48,
          "midi": 61,
          "name": "C#4",
          "ticks": 8640,
          "time": 29.18916,
          "velocity": 0.5511811023622047
        },
        {
          "duration": 0.16216200000000214,
          "durationTicks": 48,
          "midi": 61,
          "name": "C#4",
          "ticks": 8688,
          "time": 29.351322,
          "velocity": 0.5511811023622047
        },
        {
          "duration": 0.16216199999999859,
          "durationTicks": 48,
          "midi": 61,
          "name": "C#4",
          "ticks": 8736,
          "time": 29.513484000000002,
          "velocity": 0.5511811023622047
        },
        {
          "duration": 0.3243240000000007,
          "durationTicks": 96,
          "midi": 63,
          "name": "D#4",
          "ticks": 8784,
          "time": 29.675646,
          "velocity": 0.5511811023622047
        },
        {
          "duration": 0.16216199999999859,
          "durationTicks": 48,
          "midi": 61,
          "name": "C#4",
          "ticks": 8880,
          "time": 29.99997,
          "velocity": 0.5511811023622047
        },
        {
          "duration": 0.16216200000000214,
          "durationTicks": 48,
          "midi": 58,
          "name": "A#3",
          "ticks": 8928,
          "time": 30.162132,
          "velocity": 0.5511811023622047
        },
        {
          "duration": 0.16216199999999859,
          "durationTicks": 48,
          "midi": 58,
          "name": "A#3",
          "ticks": 8976,
          "time": 30.324294000000002,
          "velocity": 0.5511811023622047
        },
        {
          "duration": 0.16216199999999859,
          "durationTicks": 48,
          "midi": 58,
          "name": "A#3",
          "ticks": 9024,
          "time": 30.486456,
          "velocity": 0.5511811023622047
        },
        {
          "duration": 0.16216199999999859,
          "durationTicks": 48,
          "midi": 56,
          "name": "G#3",
          "ticks": 9120,
          "time": 30.81078,
          "velocity": 0.5511811023622047
        },
        {
          "duration": 0.16216200000000214,
          "durationTicks": 48,
          "midi": 68,
          "name": "G#4",
          "ticks": 9216,
          "time": 31.135104,
          "velocity": 0.5511811023622047
        },
        {
          "duration": 0.013513500000001955,
          "durationTicks": 4,
          "midi": 67,
          "name": "G4",
          "ticks": 9240,
          "time": 31.216185,
          "velocity": 0.3858267716535433
        },
        {
          "duration": 0.013513499999998402,
          "durationTicks": 4,
          "midi": 66,
          "name": "F#4",
          "ticks": 9244,
          "time": 31.2296985,
          "velocity": 0.33070866141732286
        },
        {
          "duration": 0.013513500000001955,
          "durationTicks": 4,
          "midi": 65,
          "name": "F4",
          "ticks": 9248,
          "time": 31.243212,
          "velocity": 0.2677165354330709
        },
        {
          "duration": 0.010135124999997913,
          "durationTicks": 3,
          "midi": 64,
          "name": "E4",
          "ticks": 9252,
          "time": 31.2567255,
          "velocity": 0.2125984251968504
        },
        {
          "duration": 0.013513500000001955,
          "durationTicks": 4,
          "midi": 63,
          "name": "D#4",
          "ticks": 9255,
          "time": 31.266860625,
          "velocity": 0.16535433070866143
        },
        {
          "duration": 0.013513499999998402,
          "durationTicks": 4,
          "midi": 62,
          "name": "D4",
          "ticks": 9259,
          "time": 31.280374125,
          "velocity": 0.11023622047244094
        },
        {
          "duration": 0.16216200000000214,
          "durationTicks": 48,
          "midi": 61,
          "name": "C#4",
          "ticks": 9312,
          "time": 31.459428,
          "velocity": 0.5511811023622047
        },
        {
          "duration": 0.04054049999999876,
          "durationTicks": 12,
          "midi": 63,
          "name": "D#4",
          "ticks": 9360,
          "time": 31.62159,
          "velocity": 0.5511811023622047
        },
        {
          "duration": 0.04054050000000231,
          "durationTicks": 12,
          "midi": 63,
          "name": "D#4",
          "ticks": 9384,
          "time": 31.702671,
          "velocity": 0.5511811023622047
        },
        {
          "duration": 0.16216199999999859,
          "durationTicks": 48,
          "midi": 63,
          "name": "D#4",
          "ticks": 9408,
          "time": 31.783752,
          "velocity": 0.5511811023622047
        },
        {
          "duration": 0.16216199999999859,
          "durationTicks": 48,
          "midi": 63,
          "name": "D#4",
          "ticks": 9456,
          "time": 31.945914,
          "velocity": 0.5511811023622047
        },
        {
          "duration": 0.16216200000000214,
          "durationTicks": 48,
          "midi": 61,
          "name": "C#4",
          "ticks": 9504,
          "time": 32.108076,
          "velocity": 0.5511811023622047
        },
        {
          "duration": 0.3243240000000043,
          "durationTicks": 96,
          "midi": 58,
          "name": "A#3",
          "ticks": 9552,
          "time": 32.270238,
          "velocity": 0.5511811023622047
        },
        {
          "duration": 0.3243240000000043,
          "durationTicks": 96,
          "midi": 63,
          "name": "D#4",
          "ticks": 9552,
          "time": 32.270238,
          "velocity": 0.5511811023622047
        },
        {
          "duration": 0.16216199999999503,
          "durationTicks": 48,
          "midi": 61,
          "name": "C#4",
          "ticks": 9648,
          "time": 32.594562,
          "velocity": 0.5511811023622047
        },
        {
          "duration": 0.16216200000000214,
          "durationTicks": 48,
          "midi": 58,
          "name": "A#3",
          "ticks": 9696,
          "time": 32.756724,
          "velocity": 0.5511811023622047
        },
        {
          "duration": 0.4054049999999947,
          "durationTicks": 120,
          "midi": 56,
          "name": "G#3",
          "ticks": 9792,
          "time": 33.081048,
          "velocity": 0.5511811023622047
        },
        {
          "duration": 0.16216199999999503,
          "durationTicks": 48,
          "midi": 49,
          "name": "C#3",
          "ticks": 23040,
          "time": 77.83776,
          "velocity": 0.6299212598425197
        },
        {
          "duration": 0.16216200000000924,
          "durationTicks": 48,
          "midi": 51,
          "name": "D#3",
          "ticks": 23088,
          "time": 77.999922,
          "velocity": 0.6299212598425197
        },
        {
          "duration": 0.16216199999999503,
          "durationTicks": 48,
          "midi": 54,
          "name": "F#3",
          "ticks": 23136,
          "time": 78.16208400000001,
          "velocity": 0.6299212598425197
        },
        {
          "duration": 0.16216199999999503,
          "durationTicks": 48,
          "midi": 56,
          "name": "G#3",
          "ticks": 23184,
          "time": 78.324246,
          "velocity": 0.6299212598425197
        },
        {
          "duration": 0.16216200000000924,
          "durationTicks": 48,
          "midi": 58,
          "name": "A#3",
          "ticks": 23232,
          "time": 78.486408,
          "velocity": 0.6299212598425197
        },
        {
          "duration": 0.16216199999999503,
          "durationTicks": 48,
          "midi": 65,
          "name": "F4",
          "ticks": 23280,
          "time": 78.64857,
          "velocity": 0.6299212598425197
        },
        {
          "duration": 0.08108099999999752,
          "durationTicks": 24,
          "midi": 65,
          "name": "F4",
          "ticks": 23376,
          "time": 78.972894,
          "velocity": 0.6299212598425197
        },
        {
          "duration": 0.08108100000001173,
          "durationTicks": 24,
          "midi": 66,
          "name": "F#4",
          "ticks": 23400,
          "time": 79.053975,
          "velocity": 0.6299212598425197
        },
        {
          "duration": 0.16216199999999503,
          "durationTicks": 48,
          "midi": 65,
          "name": "F4",
          "ticks": 23424,
          "time": 79.135056,
          "velocity": 0.6299212598425197
        },
        {
          "duration": 0.16216199999999503,
          "durationTicks": 48,
          "midi": 63,
          "name": "D#4",
          "ticks": 23472,
          "time": 79.297218,
          "velocity": 0.6299212598425197
        },
        {
          "duration": 0.16216200000000924,
          "durationTicks": 48,
          "midi": 61,
          "name": "C#4",
          "ticks": 23520,
          "time": 79.45938,
          "velocity": 0.6299212598425197
        },
        {
          "duration": 0.16216199999999503,
          "durationTicks": 48,
          "midi": 58,
          "name": "A#3",
          "ticks": 23568,
          "time": 79.621542,
          "velocity": 0.6299212598425197
        },
        {
          "duration": 0.16216199999999503,
          "durationTicks": 48,
          "midi": 61,
          "name": "C#4",
          "ticks": 23616,
          "time": 79.783704,
          "velocity": 0.6299212598425197
        },
        {
          "duration": 0.16216200000000924,
          "durationTicks": 48,
          "midi": 58,
          "name": "A#3",
          "ticks": 23664,
          "time": 79.945866,
          "velocity": 0.6299212598425197
        },
        {
          "duration": 0.32432399999999006,
          "durationTicks": 96,
          "midi": 56,
          "name": "G#3",
          "ticks": 23712,
          "time": 80.108028,
          "velocity": 0.6299212598425197
        },
        {
          "duration": 0.16216200000000924,
          "durationTicks": 48,
          "midi": 49,
          "name": "C#3",
          "ticks": 23808,
          "time": 80.432352,
          "velocity": 0.6299212598425197
        },
        {
          "duration": 0.16216199999999503,
          "durationTicks": 48,
          "midi": 51,
          "name": "D#3",
          "ticks": 23856,
          "time": 80.594514,
          "velocity": 0.6299212598425197
        },
        {
          "duration": 0.16216199999999503,
          "durationTicks": 48,
          "midi": 54,
          "name": "F#3",
          "ticks": 23904,
          "time": 80.756676,
          "velocity": 0.6299212598425197
        },
        {
          "duration": 0.16216200000000924,
          "durationTicks": 48,
          "midi": 56,
          "name": "G#3",
          "ticks": 23952,
          "time": 80.918838,
          "velocity": 0.6299212598425197
        },
        {
          "duration": 0.16216199999999503,
          "durationTicks": 48,
          "midi": 58,
          "name": "A#3",
          "ticks": 24000,
          "time": 81.081,
          "velocity": 0.6299212598425197
        },
        {
          "duration": 0.16216200000000924,
          "durationTicks": 48,
          "midi": 65,
          "name": "F4",
          "ticks": 24048,
          "time": 81.243162,
          "velocity": 0.6299212598425197
        },
        {
          "duration": 0.08108099999999752,
          "durationTicks": 24,
          "midi": 65,
          "name": "F4",
          "ticks": 24144,
          "time": 81.567486,
          "velocity": 0.6299212598425197
        },
        {
          "duration": 0.08108099999999752,
          "durationTicks": 24,
          "midi": 66,
          "name": "F#4",
          "ticks": 24168,
          "time": 81.648567,
          "velocity": 0.6299212598425197
        },
        {
          "duration": 0.16216200000000924,
          "durationTicks": 48,
          "midi": 65,
          "name": "F4",
          "ticks": 24192,
          "time": 81.729648,
          "velocity": 0.6299212598425197
        },
        {
          "duration": 0.16216199999999503,
          "durationTicks": 48,
          "midi": 63,
          "name": "D#4",
          "ticks": 24240,
          "time": 81.89181,
          "velocity": 0.6299212598425197
        },
        {
          "duration": 0.16216199999999503,
          "durationTicks": 48,
          "midi": 61,
          "name": "C#4",
          "ticks": 24288,
          "time": 82.053972,
          "velocity": 0.6299212598425197
        },
        {
          "duration": 0.16216200000000924,
          "durationTicks": 48,
          "midi": 58,
          "name": "A#3",
          "ticks": 24336,
          "time": 82.216134,
          "velocity": 0.6299212598425197
        },
        {
          "duration": 0.16216199999999503,
          "durationTicks": 48,
          "midi": 70,
          "name": "A#4",
          "ticks": 24384,
          "time": 82.378296,
          "velocity": 0.6299212598425197
        },
        {
          "duration": 0.16216199999999503,
          "durationTicks": 48,
          "midi": 72,
          "name": "C5",
          "ticks": 24432,
          "time": 82.540458,
          "velocity": 0.6299212598425197
        },
        {
          "duration": 0.3243240000000043,
          "durationTicks": 96,
          "midi": 70,
          "name": "A#4",
          "ticks": 24480,
          "time": 82.70262,
          "velocity": 0.6299212598425197
        },
        {
          "duration": 0.16216199999999503,
          "durationTicks": 48,
          "midi": 49,
          "name": "C#3",
          "ticks": 24576,
          "time": 83.026944,
          "velocity": 0.6299212598425197
        },
        {
          "duration": 0.16216200000000924,
          "durationTicks": 48,
          "midi": 51,
          "name": "D#3",
          "ticks": 24624,
          "time": 83.189106,
          "velocity": 0.6299212598425197
        },
        {
          "duration": 0.16216199999999503,
          "durationTicks": 48,
          "midi": 54,
          "name": "F#3",
          "ticks": 24672,
          "time": 83.351268,
          "velocity": 0.6299212598425197
        },
        {
          "duration": 0.16216199999999503,
          "durationTicks": 48,
          "midi": 56,
          "name": "G#3",
          "ticks": 24720,
          "time": 83.51343,
          "velocity": 0.6299212598425197
        },
        {
          "duration": 0.16216200000000924,
          "durationTicks": 48,
          "midi": 58,
          "name": "A#3",
          "ticks": 24768,
          "time": 83.675592,
          "velocity": 0.6299212598425197
        },
        {
          "duration": 0.16216199999999503,
          "durationTicks": 48,
          "midi": 65,
          "name": "F4",
          "ticks": 24816,
          "time": 83.837754,
          "velocity": 0.6299212598425197
        },
        {
          "duration": 0.08108100000001173,
          "durationTicks": 24,
          "midi": 65,
          "name": "F4",
          "ticks": 24912,
          "time": 84.162078,
          "velocity": 0.6299212598425197
        },
        {
          "duration": 0.08108099999999752,
          "durationTicks": 24,
          "midi": 66,
          "name": "F#4",
          "ticks": 24936,
          "time": 84.243159,
          "velocity": 0.6299212598425197
        },
        {
          "duration": 0.16216199999999503,
          "durationTicks": 48,
          "midi": 65,
          "name": "F4",
          "ticks": 24960,
          "time": 84.32424,
          "velocity": 0.6299212598425197
        },
        {
          "duration": 0.16216199999999503,
          "durationTicks": 48,
          "midi": 63,
          "name": "D#4",
          "ticks": 25008,
          "time": 84.486402,
          "velocity": 0.6299212598425197
        },
        {
          "duration": 0.16216200000000924,
          "durationTicks": 48,
          "midi": 61,
          "name": "C#4",
          "ticks": 25056,
          "time": 84.648564,
          "velocity": 0.6299212598425197
        },
        {
          "duration": 0.16216199999999503,
          "durationTicks": 48,
          "midi": 58,
          "name": "A#3",
          "ticks": 25104,
          "time": 84.810726,
          "velocity": 0.6299212598425197
        },
        {
          "duration": 0.16216200000000924,
          "durationTicks": 48,
          "midi": 61,
          "name": "C#4",
          "ticks": 25152,
          "time": 84.972888,
          "velocity": 0.6299212598425197
        },
        {
          "duration": 0.16216199999999503,
          "durationTicks": 48,
          "midi": 58,
          "name": "A#3",
          "ticks": 25200,
          "time": 85.13505,
          "velocity": 0.6299212598425197
        },
        {
          "duration": 0.3243240000000043,
          "durationTicks": 96,
          "midi": 56,
          "name": "G#3",
          "ticks": 25248,
          "time": 85.297212,
          "velocity": 0.6299212598425197
        },
        {
          "duration": 0.16216199999999503,
          "durationTicks": 48,
          "midi": 49,
          "name": "C#3",
          "ticks": 25344,
          "time": 85.621536,
          "velocity": 0.6299212598425197
        },
        {
          "duration": 0.16216199999999503,
          "durationTicks": 48,
          "midi": 51,
          "name": "D#3",
          "ticks": 25392,
          "time": 85.783698,
          "velocity": 0.6299212598425197
        },
        {
          "duration": 0.16216200000000924,
          "durationTicks": 48,
          "midi": 54,
          "name": "F#3",
          "ticks": 25440,
          "time": 85.94586,
          "velocity": 0.6299212598425197
        },
        {
          "duration": 0.16216199999999503,
          "durationTicks": 48,
          "midi": 56,
          "name": "G#3",
          "ticks": 25488,
          "time": 86.108022,
          "velocity": 0.6299212598425197
        },
        {
          "duration": 0.16216199999999503,
          "durationTicks": 48,
          "midi": 58,
          "name": "A#3",
          "ticks": 25536,
          "time": 86.270184,
          "velocity": 0.6299212598425197
        },
        {
          "duration": 0.16216200000000924,
          "durationTicks": 48,
          "midi": 65,
          "name": "F4",
          "ticks": 25584,
          "time": 86.432346,
          "velocity": 0.6299212598425197
        },
        {
          "duration": 0.08108099999999752,
          "durationTicks": 24,
          "midi": 65,
          "name": "F4",
          "ticks": 25680,
          "time": 86.75667,
          "velocity": 0.6299212598425197
        },
        {
          "duration": 0.08108099999999752,
          "durationTicks": 24,
          "midi": 66,
          "name": "F#4",
          "ticks": 25704,
          "time": 86.837751,
          "velocity": 0.6299212598425197
        },
        {
          "duration": 0.16216200000000924,
          "durationTicks": 48,
          "midi": 65,
          "name": "F4",
          "ticks": 25728,
          "time": 86.918832,
          "velocity": 0.6299212598425197
        },
        {
          "duration": 0.16216199999999503,
          "durationTicks": 48,
          "midi": 63,
          "name": "D#4",
          "ticks": 25776,
          "time": 87.080994,
          "velocity": 0.6299212598425197
        },
        {
          "duration": 0.16216199999999503,
          "durationTicks": 48,
          "midi": 61,
          "name": "C#4",
          "ticks": 25824,
          "time": 87.243156,
          "velocity": 0.6299212598425197
        },
        {
          "duration": 0.16216200000000924,
          "durationTicks": 48,
          "midi": 58,
          "name": "A#3",
          "ticks": 25872,
          "time": 87.405318,
          "velocity": 0.6299212598425197
        },
        {
          "duration": 0.16216200000000924,
          "durationTicks": 48,
          "midi": 49,
          "name": "C#3",
          "ticks": 26112,
          "time": 88.216128,
          "velocity": 0.6299212598425197
        },
        {
          "duration": 0.16216199999999503,
          "durationTicks": 48,
          "midi": 51,
          "name": "D#3",
          "ticks": 26160,
          "time": 88.37829,
          "velocity": 0.6299212598425197
        },
        {
          "duration": 0.16216199999999503,
          "durationTicks": 48,
          "midi": 54,
          "name": "F#3",
          "ticks": 26208,
          "time": 88.540452,
          "velocity": 0.6299212598425197
        },
        {
          "duration": 0.16216200000000924,
          "durationTicks": 48,
          "midi": 56,
          "name": "G#3",
          "ticks": 26256,
          "time": 88.702614,
          "velocity": 0.6299212598425197
        },
        {
          "duration": 0.16216199999999503,
          "durationTicks": 48,
          "midi": 58,
          "name": "A#3",
          "ticks": 26304,
          "time": 88.864776,
          "velocity": 0.6299212598425197
        },
        {
          "duration": 0.16216199999999503,
          "durationTicks": 48,
          "midi": 65,
          "name": "F4",
          "ticks": 26352,
          "time": 89.026938,
          "velocity": 0.6299212598425197
        },
        {
          "duration": 0.08108099999999752,
          "durationTicks": 24,
          "midi": 65,
          "name": "F4",
          "ticks": 26448,
          "time": 89.351262,
          "velocity": 0.6299212598425197
        },
        {
          "duration": 0.08108099999999752,
          "durationTicks": 24,
          "midi": 66,
          "name": "F#4",
          "ticks": 26472,
          "time": 89.432343,
          "velocity": 0.6299212598425197
        },
        {
          "duration": 0.16216199999999503,
          "durationTicks": 48,
          "midi": 65,
          "name": "F4",
          "ticks": 26496,
          "time": 89.513424,
          "velocity": 0.6299212598425197
        },
        {
          "duration": 0.16216200000000924,
          "durationTicks": 48,
          "midi": 63,
          "name": "D#4",
          "ticks": 26544,
          "time": 89.675586,
          "velocity": 0.6299212598425197
        },
        {
          "duration": 0.16216199999999503,
          "durationTicks": 48,
          "midi": 61,
          "name": "C#4",
          "ticks": 26592,
          "time": 89.837748,
          "velocity": 0.6299212598425197
        },
        {
          "duration": 0.16216199999999503,
          "durationTicks": 48,
          "midi": 58,
          "name": "A#3",
          "ticks": 26640,
          "time": 89.99991,
          "velocity": 0.6299212598425197
        },
        {
          "duration": 0.16216200000000924,
          "durationTicks": 48,
          "midi": 61,
          "name": "C#4",
          "ticks": 26688,
          "time": 90.162072,
          "velocity": 0.6299212598425197
        },
        {
          "duration": 0.16216199999999503,
          "durationTicks": 48,
          "midi": 58,
          "name": "A#3",
          "ticks": 26736,
          "time": 90.324234,
          "velocity": 0.6299212598425197
        },
        {
          "duration": 0.3243240000000043,
          "durationTicks": 96,
          "midi": 56,
          "name": "G#3",
          "ticks": 26784,
          "time": 90.486396,
          "velocity": 0.6299212598425197
        },
        {
          "duration": 0.16216199999999503,
          "durationTicks": 48,
          "midi": 49,
          "name": "C#3",
          "ticks": 26880,
          "time": 90.81072,
          "velocity": 0.6299212598425197
        },
        {
          "duration": 0.16216199999999503,
          "durationTicks": 48,
          "midi": 51,
          "name": "D#3",
          "ticks": 26928,
          "time": 90.972882,
          "velocity": 0.6299212598425197
        },
        {
          "duration": 0.16216200000000924,
          "durationTicks": 48,
          "midi": 54,
          "name": "F#3",
          "ticks": 26976,
          "time": 91.135044,
          "velocity": 0.6299212598425197
        },
        {
          "duration": 0.16216199999999503,
          "durationTicks": 48,
          "midi": 56,
          "name": "G#3",
          "ticks": 27024,
          "time": 91.297206,
          "velocity": 0.6299212598425197
        },
        {
          "duration": 0.16216200000000924,
          "durationTicks": 48,
          "midi": 58,
          "name": "A#3",
          "ticks": 27072,
          "time": 91.459368,
          "velocity": 0.6299212598425197
        },
        {
          "duration": 0.16216199999999503,
          "durationTicks": 48,
          "midi": 65,
          "name": "F4",
          "ticks": 27120,
          "time": 91.62153,
          "velocity": 0.6299212598425197
        },
        {
          "duration": 0.08108099999999752,
          "durationTicks": 24,
          "midi": 65,
          "name": "F4",
          "ticks": 27216,
          "time": 91.945854,
          "velocity": 0.6299212598425197
        },
        {
          "duration": 0.08108100000001173,
          "durationTicks": 24,
          "midi": 66,
          "name": "F#4",
          "ticks": 27240,
          "time": 92.026935,
          "velocity": 0.6299212598425197
        },
        {
          "duration": 0.16216199999999503,
          "durationTicks": 48,
          "midi": 65,
          "name": "F4",
          "ticks": 27264,
          "time": 92.108016,
          "velocity": 0.6299212598425197
        },
        {
          "duration": 0.16216199999999503,
          "durationTicks": 48,
          "midi": 63,
          "name": "D#4",
          "ticks": 27312,
          "time": 92.270178,
          "velocity": 0.6299212598425197
        },
        {
          "duration": 0.16216200000000924,
          "durationTicks": 48,
          "midi": 61,
          "name": "C#4",
          "ticks": 27360,
          "time": 92.43234,
          "velocity": 0.6299212598425197
        },
        {
          "duration": 0.16216199999999503,
          "durationTicks": 48,
          "midi": 58,
          "name": "A#3",
          "ticks": 27408,
          "time": 92.594502,
          "velocity": 0.6299212598425197
        },
        {
          "duration": 0.16216199999999503,
          "durationTicks": 48,
          "midi": 70,
          "name": "A#4",
          "ticks": 27456,
          "time": 92.756664,
          "velocity": 0.6299212598425197
        },
        {
          "duration": 0.16216200000000924,
          "durationTicks": 48,
          "midi": 72,
          "name": "C5",
          "ticks": 27504,
          "time": 92.918826,
          "velocity": 0.6299212598425197
        },
        {
          "duration": 0.32432399999999006,
          "durationTicks": 96,
          "midi": 70,
          "name": "A#4",
          "ticks": 27552,
          "time": 93.080988,
          "velocity": 0.6299212598425197
        },
        {
          "duration": 0.16216200000000924,
          "durationTicks": 48,
          "midi": 49,
          "name": "C#3",
          "ticks": 27648,
          "time": 93.405312,
          "velocity": 0.6299212598425197
        },
        {
          "duration": 0.16216199999999503,
          "durationTicks": 48,
          "midi": 51,
          "name": "D#3",
          "ticks": 27696,
          "time": 93.567474,
          "velocity": 0.6299212598425197
        },
        {
          "duration": 0.16216199999999503,
          "durationTicks": 48,
          "midi": 54,
          "name": "F#3",
          "ticks": 27744,
          "time": 93.729636,
          "velocity": 0.6299212598425197
        },
        {
          "duration": 0.16216200000000924,
          "durationTicks": 48,
          "midi": 56,
          "name": "G#3",
          "ticks": 27792,
          "time": 93.891798,
          "velocity": 0.6299212598425197
        },
        {
          "duration": 0.16216199999999503,
          "durationTicks": 48,
          "midi": 58,
          "name": "A#3",
          "ticks": 27840,
          "time": 94.05396,
          "velocity": 0.6299212598425197
        },
        {
          "duration": 0.16216199999999503,
          "durationTicks": 48,
          "midi": 65,
          "name": "F4",
          "ticks": 27888,
          "time": 94.216122,
          "velocity": 0.6299212598425197
        },
        {
          "duration": 0.08108099999999752,
          "durationTicks": 24,
          "midi": 65,
          "name": "F4",
          "ticks": 27984,
          "time": 94.540446,
          "velocity": 0.6299212598425197
        },
        {
          "duration": 0.08108099999999752,
          "durationTicks": 24,
          "midi": 66,
          "name": "F#4",
          "ticks": 28008,
          "time": 94.621527,
          "velocity": 0.6299212598425197
        },
        {
          "duration": 0.16216200000000924,
          "durationTicks": 48,
          "midi": 65,
          "name": "F4",
          "ticks": 28032,
          "time": 94.702608,
          "velocity": 0.6299212598425197
        },
        {
          "duration": 0.16216199999999503,
          "durationTicks": 48,
          "midi": 63,
          "name": "D#4",
          "ticks": 28080,
          "time": 94.86477000000001,
          "velocity": 0.6299212598425197
        },
        {
          "duration": 0.16216199999999503,
          "durationTicks": 48,
          "midi": 61,
          "name": "C#4",
          "ticks": 28128,
          "time": 95.026932,
          "velocity": 0.6299212598425197
        },
        {
          "duration": 0.16216200000000924,
          "durationTicks": 48,
          "midi": 58,
          "name": "A#3",
          "ticks": 28176,
          "time": 95.189094,
          "velocity": 0.6299212598425197
        },
        {
          "duration": 0.16216199999999503,
          "durationTicks": 48,
          "midi": 61,
          "name": "C#4",
          "ticks": 28224,
          "time": 95.351256,
          "velocity": 0.6299212598425197
        },
        {
          "duration": 0.16216199999999503,
          "durationTicks": 48,
          "midi": 58,
          "name": "A#3",
          "ticks": 28272,
          "time": 95.513418,
          "velocity": 0.6299212598425197
        },
        {
          "duration": 0.3243240000000043,
          "durationTicks": 96,
          "midi": 56,
          "name": "G#3",
          "ticks": 28320,
          "time": 95.67558,
          "velocity": 0.6299212598425197
        }
      ],
      "endOfTrackTicks": 46086
    },
    {
      "channel": 4,
      "controlChanges": {
        "6": [
          {
            "number": 6,
            "ticks": 0,
            "time": 0,
            "value": 0.09448818897637795
          },
          {
            "number": 6,
            "ticks": 0,
            "time": 0,
            "value": 0.09448818897637795
          },
          {
            "number": 6,
            "ticks": 0,
            "time": 0,
            "value": 0.09448818897637795
          },
          {
            "number": 6,
            "ticks": 46084,
            "time": 155.6890335,
            "value": 0.09448818897637795
          },
          {
            "number": 6,
            "ticks": 46086,
            "time": 155.69579025,
            "value": 0.09448818897637795
          }
        ],
        "7": [
          {
            "number": 7,
            "ticks": 0,
            "time": 0,
            "value": 0.7874015748031497
          },
          {
            "number": 7,
            "ticks": 0,
            "time": 0,
            "value": 0.7874015748031497
          },
          {
            "number": 7,
            "ticks": 0,
            "time": 0,
            "value": 0.7874015748031497
          },
          {
            "number": 7,
            "ticks": 0,
            "time": 0,
            "value": 0.7874015748031497
          },
          {
            "number": 7,
            "ticks": 46084,
            "time": 155.6890335,
            "value": 0.7874015748031497
          },
          {
            "number": 7,
            "ticks": 46086,
            "time": 155.69579025,
            "value": 0.7874015748031497
          }
        ],
        "10": [
          {
            "number": 10,
            "ticks": 0,
            "time": 0,
            "value": 0.5039370078740157
          },
          {
            "number": 10,
            "ticks": 0,
            "time": 0,
            "value": 0.5039370078740157
          },
          {
            "number": 10,
            "ticks": 0,
            "time": 0,
            "value": 0.5039370078740157
          },
          {
            "number": 10,
            "ticks": 0,
            "time": 0,
            "value": 0.5039370078740157
          },
          {
            "number": 10,
            "ticks": 46084,
            "time": 155.6890335,
            "value": 0.5039370078740157
          },
          {
            "number": 10,
            "ticks": 46086,
            "time": 155.69579025,
            "value": 0.5039370078740157
          }
        ],
        "100": [
          {
            "number": 100,
            "ticks": 0,
            "time": 0,
            "value": 0
          },
          {
            "number": 100,
            "ticks": 0,
            "time": 0,
            "value": 0
          },
          {
            "number": 100,
            "ticks": 0,
            "time": 0,
            "value": 0
          },
          {
            "number": 100,
            "ticks": 46084,
            "time": 155.6890335,
            "value": 0
          },
          {
            "number": 100,
            "ticks": 46086,
            "time": 155.69579025,
            "value": 0
          }
        ],
        "101": [
          {
            "number": 101,
            "ticks": 0,
            "time": 0,
            "value": 0
          },
          {
            "number": 101,
            "ticks": 0,
            "time": 0,
            "value": 0
          },
          {
            "number": 101,
            "ticks": 0,
            "time": 0,
            "value": 0
          },
          {
            "number": 101,
            "ticks": 46084,
            "time": 155.6890335,
            "value": 0
          },
          {
            "number": 101,
            "ticks": 46086,
            "time": 155.69579025,
            "value": 0
          }
        ]
      },
      "pitchBends": [
        {
          "ticks": 0,
          "time": 0,
          "value": 0
        },
        {
          "ticks": 0,
          "time": 0,
          "value": 0
        },
        {
          "ticks": 0,
          "time": 0,
          "value": 0
        },
        {
          "ticks": 0,
          "time": 0,
          "value": 0
        },
        {
          "ticks": 46084,
          "time": 155.6890335,
          "value": 0
        },
        {
          "ticks": 46086,
          "time": 155.69579025,
          "value": 0
        }
      ],
      "instrument": {
        "family": "piano",
        "number": 0,
        "name": "acoustic grand piano"
      },
      "name": "FX",
      "notes": [
        {
          "duration": 0.162162,
          "durationTicks": 48,
          "midi": 61,
          "name": "C#4",
          "ticks": 48,
          "time": 0.162162,
          "velocity": 0.7244094488188977
        },
        {
          "duration": 0.08108100000000001,
          "durationTicks": 24,
          "midi": 61,
          "name": "C#4",
          "ticks": 96,
          "time": 0.324324,
          "velocity": 0.7244094488188977
        },
        {
          "duration": 0.08108099999999996,
          "durationTicks": 24,
          "midi": 61,
          "name": "C#4",
          "ticks": 168,
          "time": 0.567567,
          "velocity": 0.7244094488188977
        },
        {
          "duration": 0.08108100000000007,
          "durationTicks": 24,
          "midi": 61,
          "name": "C#4",
          "ticks": 216,
          "time": 0.729729,
          "velocity": 0.7244094488188977
        },
        {
          "duration": 0.08108099999999996,
          "durationTicks": 24,
          "midi": 61,
          "name": "C#4",
          "ticks": 264,
          "time": 0.891891,
          "velocity": 0.7244094488188977
        },
        {
          "duration": 0.027027000000000134,
          "durationTicks": 8,
          "midi": 49,
          "name": "C#3",
          "ticks": 288,
          "time": 0.972972,
          "velocity": 0.7244094488188977
        },
        {
          "duration": 0.027027000000000134,
          "durationTicks": 8,
          "midi": 49,
          "name": "C#3",
          "ticks": 312,
          "time": 1.054053,
          "velocity": 0.7244094488188977
        },
        {
          "duration": 0.027026999999999912,
          "durationTicks": 8,
          "midi": 61,
          "name": "C#4",
          "ticks": 336,
          "time": 1.135134,
          "velocity": 0.6456692913385826
        },
        {
          "duration": 0.027026999999999912,
          "durationTicks": 8,
          "midi": 61,
          "name": "C#4",
          "ticks": 360,
          "time": 1.216215,
          "velocity": 0.6456692913385826
        },
        {
          "duration": 0.08108099999999996,
          "durationTicks": 24,
          "midi": 49,
          "name": "C#3",
          "ticks": 384,
          "time": 1.297296,
          "velocity": 0.7165354330708661
        },
        {
          "duration": 0.08108099999999996,
          "durationTicks": 24,
          "midi": 50,
          "name": "D3",
          "ticks": 408,
          "time": 1.378377,
          "velocity": 0.7165354330708661
        },
        {
          "duration": 0.08108100000000018,
          "durationTicks": 24,
          "midi": 51,
          "name": "D#3",
          "ticks": 432,
          "time": 1.459458,
          "velocity": 0.7165354330708661
        },
        {
          "duration": 0.08108099999999996,
          "durationTicks": 24,
          "midi": 52,
          "name": "E3",
          "ticks": 456,
          "time": 1.540539,
          "velocity": 0.7165354330708661
        },
        {
          "duration": 0.08108099999999996,
          "durationTicks": 24,
          "midi": 53,
          "name": "F3",
          "ticks": 480,
          "time": 1.62162,
          "velocity": 0.7165354330708661
        },
        {
          "duration": 0.08108099999999996,
          "durationTicks": 24,
          "midi": 54,
          "name": "F#3",
          "ticks": 504,
          "time": 1.702701,
          "velocity": 0.7165354330708661
        },
        {
          "duration": 0.08108099999999996,
          "durationTicks": 24,
          "midi": 55,
          "name": "G3",
          "ticks": 528,
          "time": 1.783782,
          "velocity": 0.7165354330708661
        },
        {
          "duration": 0.08108099999999996,
          "durationTicks": 24,
          "midi": 56,
          "name": "G#3",
          "ticks": 552,
          "time": 1.864863,
          "velocity": 0.7165354330708661
        },
        {
          "duration": 0.08108100000000018,
          "durationTicks": 24,
          "midi": 57,
          "name": "A3",
          "ticks": 576,
          "time": 1.945944,
          "velocity": 0.7165354330708661
        },
        {
          "duration": 0.08108099999999974,
          "durationTicks": 24,
          "midi": 58,
          "name": "A#3",
          "ticks": 600,
          "time": 2.027025,
          "velocity": 0.7165354330708661
        },
        {
          "duration": 0.08108100000000018,
          "durationTicks": 24,
          "midi": 59,
          "name": "B3",
          "ticks": 624,
          "time": 2.108106,
          "velocity": 0.7165354330708661
        },
        {
          "duration": 0.08108100000000018,
          "durationTicks": 24,
          "midi": 60,
          "name": "C4",
          "ticks": 648,
          "time": 2.189187,
          "velocity": 0.7165354330708661
        },
        {
          "duration": 0.08108099999999974,
          "durationTicks": 24,
          "midi": 61,
          "name": "C#4",
          "ticks": 672,
          "time": 2.270268,
          "velocity": 0.7165354330708661
        },
        {
          "duration": 0.08108100000000018,
          "durationTicks": 24,
          "midi": 62,
          "name": "D4",
          "ticks": 696,
          "time": 2.351349,
          "velocity": 0.7165354330708661
        },
        {
          "duration": 0.08108099999999974,
          "durationTicks": 24,
          "midi": 63,
          "name": "D#4",
          "ticks": 720,
          "time": 2.43243,
          "velocity": 0.7165354330708661
        },
        {
          "duration": 0.08108100000000018,
          "durationTicks": 24,
          "midi": 64,
          "name": "E4",
          "ticks": 744,
          "time": 2.513511,
          "velocity": 0.7165354330708661
        },
        {
          "duration": 0.16216200000000924,
          "durationTicks": 48,
          "midi": 61,
          "name": "C#4",
          "ticks": 19248,
          "time": 65.026962,
          "velocity": 0.7244094488188977
        },
        {
          "duration": 0.08108099999999752,
          "durationTicks": 24,
          "midi": 61,
          "name": "C#4",
          "ticks": 19296,
          "time": 65.189124,
          "velocity": 0.7244094488188977
        },
        {
          "duration": 0.08108099999999752,
          "durationTicks": 24,
          "midi": 61,
          "name": "C#4",
          "ticks": 19368,
          "time": 65.432367,
          "velocity": 0.7244094488188977
        },
        {
          "duration": 0.08108100000001173,
          "durationTicks": 24,
          "midi": 61,
          "name": "C#4",
          "ticks": 19416,
          "time": 65.594529,
          "velocity": 0.7244094488188977
        },
        {
          "duration": 0.08108099999999752,
          "durationTicks": 24,
          "midi": 61,
          "name": "C#4",
          "ticks": 19464,
          "time": 65.756691,
          "velocity": 0.7244094488188977
        },
        {
          "duration": 0.02702700000000391,
          "durationTicks": 8,
          "midi": 49,
          "name": "C#3",
          "ticks": 19488,
          "time": 65.837772,
          "velocity": 0.7244094488188977
        },
        {
          "duration": 0.02702700000000391,
          "durationTicks": 8,
          "midi": 49,
          "name": "C#3",
          "ticks": 19512,
          "time": 65.918853,
          "velocity": 0.7244094488188977
        },
        {
          "duration": 0.02702700000000391,
          "durationTicks": 8,
          "midi": 61,
          "name": "C#4",
          "ticks": 19536,
          "time": 65.999934,
          "velocity": 0.6377952755905512
        },
        {
          "duration": 0.02702700000000391,
          "durationTicks": 8,
          "midi": 61,
          "name": "C#4",
          "ticks": 19560,
          "time": 66.081015,
          "velocity": 0.6377952755905512
        },
        {
          "duration": 0.08108099999999752,
          "durationTicks": 24,
          "midi": 49,
          "name": "C#3",
          "ticks": 19584,
          "time": 66.162096,
          "velocity": 0.7165354330708661
        },
        {
          "duration": 0.08108099999999752,
          "durationTicks": 24,
          "midi": 50,
          "name": "D3",
          "ticks": 19608,
          "time": 66.243177,
          "velocity": 0.7165354330708661
        },
        {
          "duration": 0.08108099999999752,
          "durationTicks": 24,
          "midi": 51,
          "name": "D#3",
          "ticks": 19632,
          "time": 66.324258,
          "velocity": 0.7165354330708661
        },
        {
          "duration": 0.08108099999999752,
          "durationTicks": 24,
          "midi": 52,
          "name": "E3",
          "ticks": 19656,
          "time": 66.405339,
          "velocity": 0.7165354330708661
        },
        {
          "duration": 0.08108100000001173,
          "durationTicks": 24,
          "midi": 53,
          "name": "F3",
          "ticks": 19680,
          "time": 66.48642,
          "velocity": 0.7165354330708661
        },
        {
          "duration": 0.08108099999999752,
          "durationTicks": 24,
          "midi": 54,
          "name": "F#3",
          "ticks": 19704,
          "time": 66.56750100000001,
          "velocity": 0.7165354330708661
        },
        {
          "duration": 0.08108099999999752,
          "durationTicks": 24,
          "midi": 55,
          "name": "G3",
          "ticks": 19728,
          "time": 66.648582,
          "velocity": 0.7165354330708661
        },
        {
          "duration": 0.08108099999999752,
          "durationTicks": 24,
          "midi": 56,
          "name": "G#3",
          "ticks": 19752,
          "time": 66.729663,
          "velocity": 0.7165354330708661
        },
        {
          "duration": 0.08108099999999752,
          "durationTicks": 24,
          "midi": 57,
          "name": "A3",
          "ticks": 19776,
          "time": 66.810744,
          "velocity": 0.7165354330708661
        },
        {
          "duration": 0.08108099999999752,
          "durationTicks": 24,
          "midi": 58,
          "name": "A#3",
          "ticks": 19800,
          "time": 66.891825,
          "velocity": 0.7165354330708661
        },
        {
          "duration": 0.08108100000001173,
          "durationTicks": 24,
          "midi": 59,
          "name": "B3",
          "ticks": 19824,
          "time": 66.972906,
          "velocity": 0.7165354330708661
        },
        {
          "duration": 0.08108099999999752,
          "durationTicks": 24,
          "midi": 60,
          "name": "C4",
          "ticks": 19848,
          "time": 67.053987,
          "velocity": 0.7165354330708661
        },
        {
          "duration": 0.08108099999999752,
          "durationTicks": 24,
          "midi": 61,
          "name": "C#4",
          "ticks": 19872,
          "time": 67.135068,
          "velocity": 0.7165354330708661
        },
        {
          "duration": 0.08108099999999752,
          "durationTicks": 24,
          "midi": 62,
          "name": "D4",
          "ticks": 19896,
          "time": 67.216149,
          "velocity": 0.7165354330708661
        },
        {
          "duration": 0.08108099999999752,
          "durationTicks": 24,
          "midi": 63,
          "name": "D#4",
          "ticks": 19920,
          "time": 67.29723,
          "velocity": 0.7165354330708661
        },
        {
          "duration": 0.08108099999999752,
          "durationTicks": 24,
          "midi": 64,
          "name": "E4",
          "ticks": 19944,
          "time": 67.378311,
          "velocity": 0.7165354330708661
        },
        {
          "duration": 0.06756749999999556,
          "durationTicks": 20,
          "midi": 87,
          "name": "D#6",
          "ticks": 28416,
          "time": 95.999904,
          "velocity": 0.4330708661417323
        },
        {
          "duration": 0.44594550000000766,
          "durationTicks": 132,
          "midi": 88,
          "name": "E6",
          "ticks": 28429,
          "time": 96.043822875,
          "velocity": 0.4251968503937008
        },
        {
          "duration": 0.08108099999999752,
          "durationTicks": 24,
          "midi": 88,
          "name": "E6",
          "ticks": 28576,
          "time": 96.54044400000001,
          "velocity": 0.3543307086614173
        },
        {
          "duration": 0.09121612500000253,
          "durationTicks": 27,
          "midi": 89,
          "name": "F6",
          "ticks": 28598,
          "time": 96.61476825,
          "velocity": 0.3464566929133858
        },
        {
          "duration": 0.09121612500000253,
          "durationTicks": 27,
          "midi": 90,
          "name": "F#6",
          "ticks": 28624,
          "time": 96.702606,
          "velocity": 0.33070866141732286
        },
        {
          "duration": 0.09459450000001368,
          "durationTicks": 28,
          "midi": 91,
          "name": "G6",
          "ticks": 28644,
          "time": 96.7701735,
          "velocity": 0.3228346456692913
        },
        {
          "duration": 0.12162150000000338,
          "durationTicks": 36,
          "midi": 92,
          "name": "G#6",
          "ticks": 28664,
          "time": 96.837741,
          "velocity": 0.31496062992125984
        },
        {
          "duration": 0.08108099999999752,
          "durationTicks": 24,
          "midi": 49,
          "name": "C#3",
          "ticks": 28800,
          "time": 97.2972,
          "velocity": 0.7165354330708661
        },
        {
          "duration": 0.08108099999999752,
          "durationTicks": 24,
          "midi": 50,
          "name": "D3",
          "ticks": 28824,
          "time": 97.378281,
          "velocity": 0.7165354330708661
        },
        {
          "duration": 0.08108099999999752,
          "durationTicks": 24,
          "midi": 51,
          "name": "D#3",
          "ticks": 28848,
          "time": 97.459362,
          "velocity": 0.7165354330708661
        },
        {
          "duration": 0.08108099999999752,
          "durationTicks": 24,
          "midi": 52,
          "name": "E3",
          "ticks": 28872,
          "time": 97.540443,
          "velocity": 0.7165354330708661
        },
        {
          "duration": 0.08108100000001173,
          "durationTicks": 24,
          "midi": 53,
          "name": "F3",
          "ticks": 28896,
          "time": 97.621524,
          "velocity": 0.7165354330708661
        },
        {
          "duration": 0.08108099999999752,
          "durationTicks": 24,
          "midi": 54,
          "name": "F#3",
          "ticks": 28920,
          "time": 97.702605,
          "velocity": 0.7165354330708661
        },
        {
          "duration": 0.08108099999999752,
          "durationTicks": 24,
          "midi": 55,
          "name": "G3",
          "ticks": 28944,
          "time": 97.783686,
          "velocity": 0.7165354330708661
        },
        {
          "duration": 0.08108099999999752,
          "durationTicks": 24,
          "midi": 56,
          "name": "G#3",
          "ticks": 28968,
          "time": 97.864767,
          "velocity": 0.7165354330708661
        },
        {
          "duration": 0.08108099999999752,
          "durationTicks": 24,
          "midi": 57,
          "name": "A3",
          "ticks": 28992,
          "time": 97.945848,
          "velocity": 0.7165354330708661
        },
        {
          "duration": 0.08108100000001173,
          "durationTicks": 24,
          "midi": 58,
          "name": "A#3",
          "ticks": 29016,
          "time": 98.026929,
          "velocity": 0.7165354330708661
        },
        {
          "duration": 0.08108099999999752,
          "durationTicks": 24,
          "midi": 59,
          "name": "B3",
          "ticks": 29040,
          "time": 98.10801000000001,
          "velocity": 0.7165354330708661
        },
        {
          "duration": 0.08108099999999752,
          "durationTicks": 24,
          "midi": 60,
          "name": "C4",
          "ticks": 29064,
          "time": 98.189091,
          "velocity": 0.7165354330708661
        },
        {
          "duration": 0.08108099999999752,
          "durationTicks": 24,
          "midi": 61,
          "name": "C#4",
          "ticks": 29088,
          "time": 98.270172,
          "velocity": 0.7165354330708661
        },
        {
          "duration": 0.08108099999999752,
          "durationTicks": 24,
          "midi": 62,
          "name": "D4",
          "ticks": 29112,
          "time": 98.351253,
          "velocity": 0.7165354330708661
        },
        {
          "duration": 0.08108099999999752,
          "durationTicks": 24,
          "midi": 63,
          "name": "D#4",
          "ticks": 29136,
          "time": 98.432334,
          "velocity": 0.7165354330708661
        },
        {
          "duration": 0.08108100000001173,
          "durationTicks": 24,
          "midi": 64,
          "name": "E4",
          "ticks": 29160,
          "time": 98.513415,
          "velocity": 0.7165354330708661
        },
        {
          "duration": 0.16216199999999503,
          "durationTicks": 48,
          "midi": 62,
          "name": "D4",
          "ticks": 41520,
          "time": 140.27013,
          "velocity": 0.7244094488188977
        },
        {
          "duration": 0.08108100000001173,
          "durationTicks": 24,
          "midi": 62,
          "name": "D4",
          "ticks": 41568,
          "time": 140.432292,
          "velocity": 0.7244094488188977
        },
        {
          "duration": 0.08108100000001173,
          "durationTicks": 24,
          "midi": 62,
          "name": "D4",
          "ticks": 41640,
          "time": 140.675535,
          "velocity": 0.7244094488188977
        },
        {
          "duration": 0.08108100000001173,
          "durationTicks": 24,
          "midi": 62,
          "name": "D4",
          "ticks": 41688,
          "time": 140.837697,
          "velocity": 0.7244094488188977
        },
        {
          "duration": 0.08108100000001173,
          "durationTicks": 24,
          "midi": 62,
          "name": "D4",
          "ticks": 41736,
          "time": 140.999859,
          "velocity": 0.7244094488188977
        },
        {
          "duration": 0.02702700000000391,
          "durationTicks": 8,
          "midi": 50,
          "name": "D3",
          "ticks": 41760,
          "time": 141.08094,
          "velocity": 0.7244094488188977
        },
        {
          "duration": 0.027026999999975487,
          "durationTicks": 8,
          "midi": 50,
          "name": "D3",
          "ticks": 41784,
          "time": 141.162021,
          "velocity": 0.7244094488188977
        },
        {
          "duration": 0.02702700000000391,
          "durationTicks": 8,
          "midi": 62,
          "name": "D4",
          "ticks": 41808,
          "time": 141.243102,
          "velocity": 0.6535433070866141
        },
        {
          "duration": 0.027026999999975487,
          "durationTicks": 8,
          "midi": 62,
          "name": "D4",
          "ticks": 41832,
          "time": 141.324183,
          "velocity": 0.6535433070866141
        },
        {
          "duration": 0.08108100000001173,
          "durationTicks": 24,
          "midi": 50,
          "name": "D3",
          "ticks": 41856,
          "time": 141.405264,
          "velocity": 0.7165354330708661
        },
        {
          "duration": 0.08108100000001173,
          "durationTicks": 24,
          "midi": 51,
          "name": "D#3",
          "ticks": 41880,
          "time": 141.486345,
          "velocity": 0.7165354330708661
        },
        {
          "duration": 0.0810809999999833,
          "durationTicks": 24,
          "midi": 52,
          "name": "E3",
          "ticks": 41904,
          "time": 141.567426,
          "velocity": 0.7165354330708661
        },
        {
          "duration": 0.08108100000001173,
          "durationTicks": 24,
          "midi": 53,
          "name": "F3",
          "ticks": 41928,
          "time": 141.648507,
          "velocity": 0.7165354330708661
        },
        {
          "duration": 0.0810809999999833,
          "durationTicks": 24,
          "midi": 54,
          "name": "F#3",
          "ticks": 41952,
          "time": 141.729588,
          "velocity": 0.7165354330708661
        },
        {
          "duration": 0.08108100000001173,
          "durationTicks": 24,
          "midi": 55,
          "name": "G3",
          "ticks": 41976,
          "time": 141.810669,
          "velocity": 0.7165354330708661
        },
        {
          "duration": 0.08108100000001173,
          "durationTicks": 24,
          "midi": 56,
          "name": "G#3",
          "ticks": 42000,
          "time": 141.89175,
          "velocity": 0.7165354330708661
        },
        {
          "duration": 0.0810809999999833,
          "durationTicks": 24,
          "midi": 57,
          "name": "A3",
          "ticks": 42024,
          "time": 141.972831,
          "velocity": 0.7165354330708661
        },
        {
          "duration": 0.08108100000001173,
          "durationTicks": 24,
          "midi": 58,
          "name": "A#3",
          "ticks": 42048,
          "time": 142.053912,
          "velocity": 0.7165354330708661
        },
        {
          "duration": 0.0810809999999833,
          "durationTicks": 24,
          "midi": 59,
          "name": "B3",
          "ticks": 42072,
          "time": 142.134993,
          "velocity": 0.7165354330708661
        },
        {
          "duration": 0.08108100000001173,
          "durationTicks": 24,
          "midi": 60,
          "name": "C4",
          "ticks": 42096,
          "time": 142.216074,
          "velocity": 0.7165354330708661
        },
        {
          "duration": 0.0810809999999833,
          "durationTicks": 24,
          "midi": 61,
          "name": "C#4",
          "ticks": 42120,
          "time": 142.297155,
          "velocity": 0.7165354330708661
        },
        {
          "duration": 0.08108100000001173,
          "durationTicks": 24,
          "midi": 62,
          "name": "D4",
          "ticks": 42144,
          "time": 142.378236,
          "velocity": 0.7165354330708661
        },
        {
          "duration": 0.08108100000001173,
          "durationTicks": 24,
          "midi": 63,
          "name": "D#4",
          "ticks": 42168,
          "time": 142.459317,
          "velocity": 0.7165354330708661
        },
        {
          "duration": 0.0810809999999833,
          "durationTicks": 24,
          "midi": 64,
          "name": "E4",
          "ticks": 42192,
          "time": 142.540398,
          "velocity": 0.7165354330708661
        },
        {
          "duration": 0.08108100000001173,
          "durationTicks": 24,
          "midi": 65,
          "name": "F4",
          "ticks": 42216,
          "time": 142.621479,
          "velocity": 0.7165354330708661
        }
      ],
      "endOfTrackTicks": 46086
    },
    {
      "channel": 5,
      "controlChanges": {
        "6": [
          {
            "number": 6,
            "ticks": 0,
            "time": 0,
            "value": 0.09448818897637795
          },
          {
            "number": 6,
            "ticks": 0,
            "time": 0,
            "value": 0.09448818897637795
          },
          {
            "number": 6,
            "ticks": 0,
            "time": 0,
            "value": 0.09448818897637795
          },
          {
            "number": 6,
            "ticks": 46084,
            "time": 155.6890335,
            "value": 0.09448818897637795
          },
          {
            "number": 6,
            "ticks": 46086,
            "time": 155.69579025,
            "value": 0.09448818897637795
          }
        ],
        "7": [
          {
            "number": 7,
            "ticks": 0,
            "time": 0,
            "value": 0.7874015748031497
          },
          {
            "number": 7,
            "ticks": 0,
            "time": 0,
            "value": 0.7874015748031497
          },
          {
            "number": 7,
            "ticks": 0,
            "time": 0,
            "value": 0.7874015748031497
          },
          {
            "number": 7,
            "ticks": 0,
            "time": 0,
            "value": 0.7874015748031497
          },
          {
            "number": 7,
            "ticks": 46084,
            "time": 155.6890335,
            "value": 0.7874015748031497
          },
          {
            "number": 7,
            "ticks": 46086,
            "time": 155.69579025,
            "value": 0.7874015748031497
          }
        ],
        "10": [
          {
            "number": 10,
            "ticks": 0,
            "time": 0,
            "value": 0.5039370078740157
          },
          {
            "number": 10,
            "ticks": 0,
            "time": 0,
            "value": 0.5039370078740157
          },
          {
            "number": 10,
            "ticks": 0,
            "time": 0,
            "value": 0.5039370078740157
          },
          {
            "number": 10,
            "ticks": 0,
            "time": 0,
            "value": 0.5039370078740157
          },
          {
            "number": 10,
            "ticks": 46084,
            "time": 155.6890335,
            "value": 0.5039370078740157
          },
          {
            "number": 10,
            "ticks": 46086,
            "time": 155.69579025,
            "value": 0.5039370078740157
          }
        ],
        "100": [
          {
            "number": 100,
            "ticks": 0,
            "time": 0,
            "value": 0
          },
          {
            "number": 100,
            "ticks": 0,
            "time": 0,
            "value": 0
          },
          {
            "number": 100,
            "ticks": 0,
            "time": 0,
            "value": 0
          },
          {
            "number": 100,
            "ticks": 46084,
            "time": 155.6890335,
            "value": 0
          },
          {
            "number": 100,
            "ticks": 46086,
            "time": 155.69579025,
            "value": 0
          }
        ],
        "101": [
          {
            "number": 101,
            "ticks": 0,
            "time": 0,
            "value": 0
          },
          {
            "number": 101,
            "ticks": 0,
            "time": 0,
            "value": 0
          },
          {
            "number": 101,
            "ticks": 0,
            "time": 0,
            "value": 0
          },
          {
            "number": 101,
            "ticks": 46084,
            "time": 155.6890335,
            "value": 0
          },
          {
            "number": 101,
            "ticks": 46086,
            "time": 155.69579025,
            "value": 0
          }
        ]
      },
      "pitchBends": [
        {
          "ticks": 0,
          "time": 0,
          "value": 0
        },
        {
          "ticks": 0,
          "time": 0,
          "value": 0
        },
        {
          "ticks": 0,
          "time": 0,
          "value": 0
        },
        {
          "ticks": 0,
          "time": 0,
          "value": 0
        },
        {
          "ticks": 46084,
          "time": 155.6890335,
          "value": 0
        },
        {
          "ticks": 46086,
          "time": 155.69579025,
          "value": 0
        }
      ],
      "instrument": {
        "family": "piano",
        "number": 0,
        "name": "acoustic grand piano"
      },
      "name": "M",
      "notes": [
        {
          "duration": 0.16216200000000036,
          "durationTicks": 48,
          "midi": 82,
          "name": "A#5",
          "ticks": 3840,
          "time": 12.97296,
          "velocity": 0.8267716535433071
        },
        {
          "duration": 0.12162149999999983,
          "durationTicks": 36,
          "midi": 77,
          "name": "F5",
          "ticks": 3936,
          "time": 13.297284,
          "velocity": 0.8267716535433071
        },
        {
          "duration": 0.040540500000000534,
          "durationTicks": 12,
          "midi": 77,
          "name": "F5",
          "ticks": 3984,
          "time": 13.459446,
          "velocity": 0.8267716535433071
        },
        {
          "duration": 0.12162149999999983,
          "durationTicks": 36,
          "midi": 77,
          "name": "F5",
          "ticks": 4008,
          "time": 13.540527,
          "velocity": 0.8267716535433071
        },
        {
          "duration": 0.12162149999999983,
          "durationTicks": 36,
          "midi": 77,
          "name": "F5",
          "ticks": 4056,
          "time": 13.702689,
          "velocity": 0.8267716535433071
        },
        {
          "duration": 0.08108100000000107,
          "durationTicks": 24,
          "midi": 77,
          "name": "F5",
          "ticks": 4104,
          "time": 13.864851,
          "velocity": 0.8267716535433071
        },
        {
          "duration": 0.16216199999999859,
          "durationTicks": 48,
          "midi": 78,
          "name": "F#5",
          "ticks": 4128,
          "time": 13.945932,
          "velocity": 0.8267716535433071
        },
        {
          "duration": 0.08108100000000107,
          "durationTicks": 24,
          "midi": 77,
          "name": "F5",
          "ticks": 4176,
          "time": 14.108094,
          "velocity": 0.8267716535433071
        },
        {
          "duration": 0.16216200000000036,
          "durationTicks": 48,
          "midi": 77,
          "name": "F5",
          "ticks": 4272,
          "time": 14.432418,
          "velocity": 0.8267716535433071
        },
        {
          "duration": 0.16216200000000036,
          "durationTicks": 48,
          "midi": 78,
          "name": "F#5",
          "ticks": 4320,
          "time": 14.59458,
          "velocity": 0.8267716535433071
        },
        {
          "duration": 0.16216199999999859,
          "durationTicks": 48,
          "midi": 77,
          "name": "F5",
          "ticks": 4368,
          "time": 14.756742000000001,
          "velocity": 0.8267716535433071
        },
        {
          "duration": 0.16216200000000036,
          "durationTicks": 48,
          "midi": 78,
          "name": "F#5",
          "ticks": 4416,
          "time": 14.918904,
          "velocity": 0.8267716535433071
        },
        {
          "duration": 0.16216200000000036,
          "durationTicks": 48,
          "midi": 77,
          "name": "F5",
          "ticks": 4464,
          "time": 15.081066,
          "velocity": 0.8267716535433071
        },
        {
          "duration": 0.16216200000000036,
          "durationTicks": 48,
          "midi": 75,
          "name": "D#5",
          "ticks": 4512,
          "time": 15.243228,
          "velocity": 0.8267716535433071
        },
        {
          "duration": 0.16216199999999859,
          "durationTicks": 48,
          "midi": 73,
          "name": "C#5",
          "ticks": 4560,
          "time": 15.40539,
          "velocity": 0.8267716535433071
        },
        {
          "duration": 0.16216200000000036,
          "durationTicks": 48,
          "midi": 75,
          "name": "D#5",
          "ticks": 4656,
          "time": 15.729714,
          "velocity": 0.8267716535433071
        },
        {
          "duration": 0.16216200000000214,
          "durationTicks": 48,
          "midi": 73,
          "name": "C#5",
          "ticks": 4752,
          "time": 16.054038,
          "velocity": 0.8267716535433071
        },
        {
          "duration": 0.16216199999999859,
          "durationTicks": 48,
          "midi": 75,
          "name": "D#5",
          "ticks": 4800,
          "time": 16.2162,
          "velocity": 0.8267716535433071
        },
        {
          "duration": 0.16216200000000214,
          "durationTicks": 48,
          "midi": 75,
          "name": "D#5",
          "ticks": 4848,
          "time": 16.378362,
          "velocity": 0.8267716535433071
        },
        {
          "duration": 0.16216199999999859,
          "durationTicks": 48,
          "midi": 77,
          "name": "F5",
          "ticks": 4896,
          "time": 16.540524,
          "velocity": 0.8267716535433071
        },
        {
          "duration": 0.16216199999999859,
          "durationTicks": 48,
          "midi": 75,
          "name": "D#5",
          "ticks": 4944,
          "time": 16.702686,
          "velocity": 0.8267716535433071
        },
        {
          "duration": 0.16216200000000214,
          "durationTicks": 48,
          "midi": 77,
          "name": "F5",
          "ticks": 4992,
          "time": 16.864848,
          "velocity": 0.8267716535433071
        },
        {
          "duration": 0.16216199999999859,
          "durationTicks": 48,
          "midi": 75,
          "name": "D#5",
          "ticks": 5040,
          "time": 17.02701,
          "velocity": 0.8267716535433071
        },
        {
          "duration": 0.16216200000000214,
          "durationTicks": 48,
          "midi": 73,
          "name": "C#5",
          "ticks": 5088,
          "time": 17.189172,
          "velocity": 0.8267716535433071
        },
        {
          "duration": 0.16216199999999859,
          "durationTicks": 48,
          "midi": 72,
          "name": "C5",
          "ticks": 5136,
          "time": 17.351334,
          "velocity": 0.8267716535433071
        },
        {
          "duration": 0.3243240000000007,
          "durationTicks": 96,
          "midi": 70,
          "name": "A#4",
          "ticks": 5184,
          "time": 17.513496,
          "velocity": 0.8267716535433071
        },
        {
          "duration": 0.3243240000000007,
          "durationTicks": 96,
          "midi": 68,
          "name": "G#4",
          "ticks": 5280,
          "time": 17.83782,
          "velocity": 0.8267716535433071
        },
        {
          "duration": 0.08108099999999752,
          "durationTicks": 24,
          "midi": 80,
          "name": "G#5",
          "ticks": 5376,
          "time": 18.162144,
          "velocity": 0.8267716535433071
        },
        {
          "duration": 0.16216199999999859,
          "durationTicks": 48,
          "midi": 82,
          "name": "A#5",
          "ticks": 5388,
          "time": 18.2026845,
          "velocity": 0.8267716535433071
        },
        {
          "duration": 0.12162149999999983,
          "durationTicks": 36,
          "midi": 77,
          "name": "F5",
          "ticks": 5472,
          "time": 18.486468,
          "velocity": 0.8267716535433071
        },
        {
          "duration": 0.04054049999999876,
          "durationTicks": 12,
          "midi": 77,
          "name": "F5",
          "ticks": 5520,
          "time": 18.64863,
          "velocity": 0.8267716535433071
        },
        {
          "duration": 0.12162149999999983,
          "durationTicks": 36,
          "midi": 77,
          "name": "F5",
          "ticks": 5544,
          "time": 18.729711,
          "velocity": 0.8267716535433071
        },
        {
          "duration": 0.12162149999999983,
          "durationTicks": 36,
          "midi": 77,
          "name": "F5",
          "ticks": 5592,
          "time": 18.891873,
          "velocity": 0.8267716535433071
        },
        {
          "duration": 0.08108100000000107,
          "durationTicks": 24,
          "midi": 77,
          "name": "F5",
          "ticks": 5640,
          "time": 19.054035,
          "velocity": 0.8267716535433071
        },
        {
          "duration": 0.16216199999999859,
          "durationTicks": 48,
          "midi": 78,
          "name": "F#5",
          "ticks": 5664,
          "time": 19.135116,
          "velocity": 0.8267716535433071
        },
        {
          "duration": 0.08108100000000107,
          "durationTicks": 24,
          "midi": 77,
          "name": "F5",
          "ticks": 5712,
          "time": 19.297278,
          "velocity": 0.8267716535433071
        },
        {
          "duration": 0.16216200000000214,
          "durationTicks": 48,
          "midi": 77,
          "name": "F5",
          "ticks": 5808,
          "time": 19.621602,
          "velocity": 0.8267716535433071
        },
        {
          "duration": 0.16216199999999859,
          "durationTicks": 48,
          "midi": 78,
          "name": "F#5",
          "ticks": 5856,
          "time": 19.783764,
          "velocity": 0.8267716535433071
        },
        {
          "duration": 0.16216199999999859,
          "durationTicks": 48,
          "midi": 77,
          "name": "F5",
          "ticks": 5904,
          "time": 19.945926,
          "velocity": 0.8267716535433071
        },
        {
          "duration": 0.16216200000000214,
          "durationTicks": 48,
          "midi": 78,
          "name": "F#5",
          "ticks": 5952,
          "time": 20.108088,
          "velocity": 0.8267716535433071
        },
        {
          "duration": 0.16216199999999859,
          "durationTicks": 48,
          "midi": 77,
          "name": "F5",
          "ticks": 6000,
          "time": 20.27025,
          "velocity": 0.8267716535433071
        },
        {
          "duration": 0.16216200000000214,
          "durationTicks": 48,
          "midi": 75,
          "name": "D#5",
          "ticks": 6048,
          "time": 20.432412,
          "velocity": 0.8267716535433071
        },
        {
          "duration": 0.16216199999999859,
          "durationTicks": 48,
          "midi": 73,
          "name": "C#5",
          "ticks": 6096,
          "time": 20.594574,
          "velocity": 0.8267716535433071
        },
        {
          "duration": 0.16216200000000214,
          "durationTicks": 48,
          "midi": 75,
          "name": "D#5",
          "ticks": 6192,
          "time": 20.918898,
          "velocity": 0.8267716535433071
        },
        {
          "duration": 0.16216199999999859,
          "durationTicks": 48,
          "midi": 75,
          "name": "D#5",
          "ticks": 6240,
          "time": 21.08106,
          "velocity": 0.8267716535433071
        },
        {
          "duration": 0.16216200000000214,
          "durationTicks": 48,
          "midi": 73,
          "name": "C#5",
          "ticks": 6288,
          "time": 21.243222,
          "velocity": 0.8267716535433071
        },
        {
          "duration": 0.16216199999999859,
          "durationTicks": 48,
          "midi": 75,
          "name": "D#5",
          "ticks": 6336,
          "time": 21.405384,
          "velocity": 0.8267716535433071
        },
        {
          "duration": 0.16216199999999859,
          "durationTicks": 48,
          "midi": 75,
          "name": "D#5",
          "ticks": 6384,
          "time": 21.567546,
          "velocity": 0.8267716535433071
        },
        {
          "duration": 0.16216200000000214,
          "durationTicks": 48,
          "midi": 77,
          "name": "F5",
          "ticks": 6432,
          "time": 21.729708,
          "velocity": 0.8267716535433071
        },
        {
          "duration": 0.16216199999999859,
          "durationTicks": 48,
          "midi": 70,
          "name": "A#4",
          "ticks": 6480,
          "time": 21.89187,
          "velocity": 0.8267716535433071
        },
        {
          "duration": 0.16216200000000214,
          "durationTicks": 48,
          "midi": 70,
          "name": "A#4",
          "ticks": 6672,
          "time": 22.540518,
          "velocity": 0.8267716535433071
        },
        {
          "duration": 0.16216199999999503,
          "durationTicks": 48,
          "midi": 73,
          "name": "C#5",
          "ticks": 10128,
          "time": 34.216182,
          "velocity": 0.8267716535433071
        },
        {
          "duration": 0.16216200000000214,
          "durationTicks": 48,
          "midi": 75,
          "name": "D#5",
          "ticks": 10176,
          "time": 34.378344,
          "velocity": 0.8267716535433071
        },
        {
          "duration": 0.16216200000000214,
          "durationTicks": 48,
          "midi": 77,
          "name": "F5",
          "ticks": 10224,
          "time": 34.540506,
          "velocity": 0.8267716535433071
        },
        {
          "duration": 0.16216199999999503,
          "durationTicks": 48,
          "midi": 78,
          "name": "F#5",
          "ticks": 10272,
          "time": 34.702668,
          "velocity": 0.8267716535433071
        },
        {
          "duration": 0.16216200000000214,
          "durationTicks": 48,
          "midi": 80,
          "name": "G#5",
          "ticks": 10320,
          "time": 34.86483,
          "velocity": 0.8267716535433071
        },
        {
          "duration": 0.2837834999999984,
          "durationTicks": 84,
          "midi": 82,
          "name": "A#5",
          "ticks": 10368,
          "time": 35.026992,
          "velocity": 0.8267716535433071
        },
        {
          "duration": 0.2837835000000055,
          "durationTicks": 84,
          "midi": 80,
          "name": "G#5",
          "ticks": 10464,
          "time": 35.351316,
          "velocity": 0.8267716535433071
        },
        {
          "duration": 0.16216200000000214,
          "durationTicks": 48,
          "midi": 77,
          "name": "F5",
          "ticks": 10560,
          "time": 35.67564,
          "velocity": 0.8267716535433071
        },
        {
          "duration": 0.16216199999999503,
          "durationTicks": 48,
          "midi": 80,
          "name": "G#5",
          "ticks": 10608,
          "time": 35.837802,
          "velocity": 0.8267716535433071
        },
        {
          "duration": 0.16216200000000214,
          "durationTicks": 48,
          "midi": 77,
          "name": "F5",
          "ticks": 10656,
          "time": 35.999964,
          "velocity": 0.8267716535433071
        },
        {
          "duration": 0.16216200000000214,
          "durationTicks": 48,
          "midi": 75,
          "name": "D#5",
          "ticks": 10704,
          "time": 36.162126,
          "velocity": 0.8267716535433071
        },
        {
          "duration": 0.32432399999999717,
          "durationTicks": 96,
          "midi": 73,
          "name": "C#5",
          "ticks": 10752,
          "time": 36.324288,
          "velocity": 0.8267716535433071
        },
        {
          "duration": 0.16216199999999503,
          "durationTicks": 48,
          "midi": 73,
          "name": "C#5",
          "ticks": 10896,
          "time": 36.810774,
          "velocity": 0.8267716535433071
        },
        {
          "duration": 0.16216200000000214,
          "durationTicks": 48,
          "midi": 75,
          "name": "D#5",
          "ticks": 10944,
          "time": 36.972936,
          "velocity": 0.8267716535433071
        },
        {
          "duration": 0.16216200000000214,
          "durationTicks": 48,
          "midi": 77,
          "name": "F5",
          "ticks": 10992,
          "time": 37.135098,
          "velocity": 0.8267716535433071
        },
        {
          "duration": 0.16216200000000214,
          "durationTicks": 48,
          "midi": 78,
          "name": "F#5",
          "ticks": 11040,
          "time": 37.29726,
          "velocity": 0.8267716535433071
        },
        {
          "duration": 0.16216199999999503,
          "durationTicks": 48,
          "midi": 80,
          "name": "G#5",
          "ticks": 11088,
          "time": 37.459422,
          "velocity": 0.8267716535433071
        },
        {
          "duration": 0.2837834999999984,
          "durationTicks": 84,
          "midi": 85,
          "name": "C#6",
          "ticks": 11136,
          "time": 37.621584,
          "velocity": 0.8267716535433071
        },
        {
          "duration": 0.2837834999999984,
          "durationTicks": 84,
          "midi": 82,
          "name": "A#5",
          "ticks": 11232,
          "time": 37.945908,
          "velocity": 0.8267716535433071
        },
        {
          "duration": 0.16216200000000214,
          "durationTicks": 48,
          "midi": 80,
          "name": "G#5",
          "ticks": 11328,
          "time": 38.270232,
          "velocity": 0.8267716535433071
        },
        {
          "duration": 0.16216199999999503,
          "durationTicks": 48,
          "midi": 82,
          "name": "A#5",
          "ticks": 11376,
          "time": 38.432394,
          "velocity": 0.8267716535433071
        },
        {
          "duration": 0.16216200000000214,
          "durationTicks": 48,
          "midi": 80,
          "name": "G#5",
          "ticks": 11424,
          "time": 38.594556,
          "velocity": 0.8267716535433071
        },
        {
          "duration": 0.16216200000000214,
          "durationTicks": 48,
          "midi": 77,
          "name": "F5",
          "ticks": 11472,
          "time": 38.756718,
          "velocity": 0.8267716535433071
        },
        {
          "duration": 0.32432399999999717,
          "durationTicks": 96,
          "midi": 73,
          "name": "C#5",
          "ticks": 11520,
          "time": 38.91888,
          "velocity": 0.8267716535433071
        },
        {
          "duration": 0.3243240000000043,
          "durationTicks": 96,
          "midi": 73,
          "name": "C#5",
          "ticks": 12864,
          "time": 43.459416,
          "velocity": 0.8267716535433071
        },
        {
          "duration": 0.16216199999999503,
          "durationTicks": 48,
          "midi": 75,
          "name": "D#5",
          "ticks": 12960,
          "time": 43.78374,
          "velocity": 0.8267716535433071
        },
        {
          "duration": 0.16216200000000214,
          "durationTicks": 48,
          "midi": 77,
          "name": "F5",
          "ticks": 13008,
          "time": 43.945902,
          "velocity": 0.8267716535433071
        },
        {
          "duration": 0.3243240000000043,
          "durationTicks": 96,
          "midi": 80,
          "name": "G#5",
          "ticks": 13056,
          "time": 44.108064,
          "velocity": 0.8267716535433071
        },
        {
          "duration": 0.16216199999999503,
          "durationTicks": 48,
          "midi": 80,
          "name": "G#5",
          "ticks": 13152,
          "time": 44.432388,
          "velocity": 0.8267716535433071
        },
        {
          "duration": 0.16216200000000214,
          "durationTicks": 48,
          "midi": 82,
          "name": "A#5",
          "ticks": 13200,
          "time": 44.59455,
          "velocity": 0.8267716535433071
        },
        {
          "duration": 0.32432399999999717,
          "durationTicks": 96,
          "midi": 80,
          "name": "G#5",
          "ticks": 13248,
          "time": 44.756712,
          "velocity": 0.8267716535433071
        },
        {
          "duration": 0.16216200000000214,
          "durationTicks": 48,
          "midi": 80,
          "name": "G#5",
          "ticks": 13344,
          "time": 45.081036,
          "velocity": 0.8267716535433071
        },
        {
          "duration": 0.16216200000000214,
          "durationTicks": 48,
          "midi": 82,
          "name": "A#5",
          "ticks": 13392,
          "time": 45.243198,
          "velocity": 0.8267716535433071
        },
        {
          "duration": 0.32432399999999717,
          "durationTicks": 96,
          "midi": 80,
          "name": "G#5",
          "ticks": 13440,
          "time": 45.40536,
          "velocity": 0.8267716535433071
        },
        {
          "duration": 0.3243240000000043,
          "durationTicks": 96,
          "midi": 78,
          "name": "F#5",
          "ticks": 13536,
          "time": 45.729684,
          "velocity": 0.8267716535433071
        },
        {
          "duration": 0.32432399999999717,
          "durationTicks": 96,
          "midi": 77,
          "name": "F5",
          "ticks": 13632,
          "time": 46.054008,
          "velocity": 0.8267716535433071
        },
        {
          "duration": 0.16216200000000214,
          "durationTicks": 48,
          "midi": 75,
          "name": "D#5",
          "ticks": 13728,
          "time": 46.378332,
          "velocity": 0.8267716535433071
        },
        {
          "duration": 0.16216199999999503,
          "durationTicks": 48,
          "midi": 73,
          "name": "C#5",
          "ticks": 13776,
          "time": 46.540494,
          "velocity": 0.8267716535433071
        },
        {
          "duration": 0.16216200000000214,
          "durationTicks": 48,
          "midi": 75,
          "name": "D#5",
          "ticks": 13824,
          "time": 46.702656,
          "velocity": 0.8267716535433071
        },
        {
          "duration": 0.16216200000000214,
          "durationTicks": 48,
          "midi": 73,
          "name": "C#5",
          "ticks": 13872,
          "time": 46.864818,
          "velocity": 0.8267716535433071
        },
        {
          "duration": 0.16216199999999503,
          "durationTicks": 48,
          "midi": 75,
          "name": "D#5",
          "ticks": 13920,
          "time": 47.02698,
          "velocity": 0.8267716535433071
        },
        {
          "duration": 0.16216200000000214,
          "durationTicks": 48,
          "midi": 73,
          "name": "C#5",
          "ticks": 13968,
          "time": 47.189142,
          "velocity": 0.8267716535433071
        },
        {
          "duration": 0.16216200000000214,
          "durationTicks": 48,
          "midi": 75,
          "name": "D#5",
          "ticks": 14016,
          "time": 47.351304,
          "velocity": 0.8267716535433071
        },
        {
          "duration": 0.16216200000000214,
          "durationTicks": 48,
          "midi": 77,
          "name": "F5",
          "ticks": 14064,
          "time": 47.513466,
          "velocity": 0.8267716535433071
        },
        {
          "duration": 0.3243240000000043,
          "durationTicks": 96,
          "midi": 77,
          "name": "F5",
          "ticks": 14160,
          "time": 47.83779,
          "velocity": 0.8267716535433071
        },
        {
          "duration": 0.16216199999999503,
          "durationTicks": 48,
          "midi": 78,
          "name": "F#5",
          "ticks": 14256,
          "time": 48.162114,
          "velocity": 0.8267716535433071
        },
        {
          "duration": 0.16216200000000214,
          "durationTicks": 48,
          "midi": 77,
          "name": "F5",
          "ticks": 14304,
          "time": 48.324276,
          "velocity": 0.8267716535433071
        },
        {
          "duration": 0.16216200000000214,
          "durationTicks": 48,
          "midi": 78,
          "name": "F#5",
          "ticks": 14352,
          "time": 48.486438,
          "velocity": 0.8267716535433071
        },
        {
          "duration": 0.32432399999999717,
          "durationTicks": 96,
          "midi": 77,
          "name": "F5",
          "ticks": 14400,
          "time": 48.6486,
          "velocity": 0.8267716535433071
        },
        {
          "duration": 0.16216200000000214,
          "durationTicks": 48,
          "midi": 75,
          "name": "D#5",
          "ticks": 14496,
          "time": 48.972924,
          "velocity": 0.8267716535433071
        },
        {
          "duration": 0.16216200000000214,
          "durationTicks": 48,
          "midi": 73,
          "name": "C#5",
          "ticks": 14544,
          "time": 49.135086,
          "velocity": 0.8267716535433071
        },
        {
          "duration": 0.32432399999999717,
          "durationTicks": 96,
          "midi": 80,
          "name": "G#5",
          "ticks": 14592,
          "time": 49.297248,
          "velocity": 0.8267716535433071
        },
        {
          "duration": 0.16216200000000214,
          "durationTicks": 48,
          "midi": 80,
          "name": "G#5",
          "ticks": 14688,
          "time": 49.621572,
          "velocity": 0.8267716535433071
        },
        {
          "duration": 0.16216199999999503,
          "durationTicks": 48,
          "midi": 82,
          "name": "A#5",
          "ticks": 14736,
          "time": 49.783734,
          "velocity": 0.8267716535433071
        },
        {
          "duration": 0.3243240000000043,
          "durationTicks": 96,
          "midi": 80,
          "name": "G#5",
          "ticks": 14784,
          "time": 49.945896,
          "velocity": 0.8267716535433071
        },
        {
          "duration": 0.16216199999999503,
          "durationTicks": 48,
          "midi": 80,
          "name": "G#5",
          "ticks": 14880,
          "time": 50.27022,
          "velocity": 0.8267716535433071
        },
        {
          "duration": 0.16216200000000214,
          "durationTicks": 48,
          "midi": 82,
          "name": "A#5",
          "ticks": 14928,
          "time": 50.432382,
          "velocity": 0.8267716535433071
        },
        {
          "duration": 0.3243240000000043,
          "durationTicks": 96,
          "midi": 80,
          "name": "G#5",
          "ticks": 14976,
          "time": 50.594544,
          "velocity": 0.8267716535433071
        },
        {
          "duration": 0.32432399999999717,
          "durationTicks": 96,
          "midi": 78,
          "name": "F#5",
          "ticks": 15072,
          "time": 50.918868,
          "velocity": 0.8267716535433071
        },
        {
          "duration": 0.32432399999999717,
          "durationTicks": 96,
          "midi": 77,
          "name": "F5",
          "ticks": 15168,
          "time": 51.243192,
          "velocity": 0.8267716535433071
        },
        {
          "duration": 0.16216200000000214,
          "durationTicks": 48,
          "midi": 75,
          "name": "D#5",
          "ticks": 15264,
          "time": 51.567516,
          "velocity": 0.8267716535433071
        },
        {
          "duration": 0.16216200000000214,
          "durationTicks": 48,
          "midi": 73,
          "name": "C#5",
          "ticks": 15312,
          "time": 51.729678,
          "velocity": 0.8267716535433071
        },
        {
          "duration": 0.16216199999999503,
          "durationTicks": 48,
          "midi": 75,
          "name": "D#5",
          "ticks": 15360,
          "time": 51.89184,
          "velocity": 0.8267716535433071
        },
        {
          "duration": 0.16216200000000214,
          "durationTicks": 48,
          "midi": 73,
          "name": "C#5",
          "ticks": 15408,
          "time": 52.054002,
          "velocity": 0.8267716535433071
        },
        {
          "duration": 0.16216200000000214,
          "durationTicks": 48,
          "midi": 75,
          "name": "D#5",
          "ticks": 15456,
          "time": 52.216164,
          "velocity": 0.8267716535433071
        },
        {
          "duration": 0.16216200000000214,
          "durationTicks": 48,
          "midi": 73,
          "name": "C#5",
          "ticks": 15504,
          "time": 52.378326,
          "velocity": 0.8267716535433071
        },
        {
          "duration": 0.16216199999999503,
          "durationTicks": 48,
          "midi": 75,
          "name": "D#5",
          "ticks": 15552,
          "time": 52.540488,
          "velocity": 0.8267716535433071
        },
        {
          "duration": 0.16216200000000214,
          "durationTicks": 48,
          "midi": 85,
          "name": "C#6",
          "ticks": 15600,
          "time": 52.70265,
          "velocity": 0.8267716535433071
        },
        {
          "duration": 0.32432399999999717,
          "durationTicks": 96,
          "midi": 82,
          "name": "A#5",
          "ticks": 15696,
          "time": 53.026974,
          "velocity": 0.8267716535433071
        },
        {
          "duration": 0.16216200000000214,
          "durationTicks": 48,
          "midi": 82,
          "name": "A#5",
          "ticks": 15792,
          "time": 53.351298,
          "velocity": 0.8267716535433071
        },
        {
          "duration": 0.16216199999999503,
          "durationTicks": 48,
          "midi": 80,
          "name": "G#5",
          "ticks": 15840,
          "time": 53.51346,
          "velocity": 0.8267716535433071
        },
        {
          "duration": 0.16216200000000214,
          "durationTicks": 48,
          "midi": 78,
          "name": "F#5",
          "ticks": 15888,
          "time": 53.675622,
          "velocity": 0.8267716535433071
        },
        {
          "duration": 0.16216200000000214,
          "durationTicks": 48,
          "midi": 77,
          "name": "F5",
          "ticks": 15936,
          "time": 53.837784,
          "velocity": 0.8267716535433071
        },
        {
          "duration": 0.16216200000000214,
          "durationTicks": 48,
          "midi": 78,
          "name": "F#5",
          "ticks": 15984,
          "time": 53.999946,
          "velocity": 0.8267716535433071
        },
        {
          "duration": 0.32432399999999717,
          "durationTicks": 96,
          "midi": 77,
          "name": "F5",
          "ticks": 16032,
          "time": 54.162108,
          "velocity": 0.8267716535433071
        },
        {
          "duration": 0.32432399999999006,
          "durationTicks": 96,
          "midi": 80,
          "name": "G#5",
          "ticks": 29184,
          "time": 98.594496,
          "velocity": 0.8267716535433071
        },
        {
          "duration": 0.16216200000000924,
          "durationTicks": 48,
          "midi": 80,
          "name": "G#5",
          "ticks": 29280,
          "time": 98.91882,
          "velocity": 0.8267716535433071
        },
        {
          "duration": 0.16216199999999503,
          "durationTicks": 48,
          "midi": 82,
          "name": "A#5",
          "ticks": 29328,
          "time": 99.080982,
          "velocity": 0.8267716535433071
        },
        {
          "duration": 0.3243240000000043,
          "durationTicks": 96,
          "midi": 80,
          "name": "G#5",
          "ticks": 29376,
          "time": 99.243144,
          "velocity": 0.8267716535433071
        },
        {
          "duration": 0.16216199999999503,
          "durationTicks": 48,
          "midi": 80,
          "name": "G#5",
          "ticks": 29472,
          "time": 99.567468,
          "velocity": 0.8267716535433071
        },
        {
          "duration": 0.16216199999999503,
          "durationTicks": 48,
          "midi": 82,
          "name": "A#5",
          "ticks": 29520,
          "time": 99.72963,
          "velocity": 0.8267716535433071
        },
        {
          "duration": 0.3243240000000043,
          "durationTicks": 96,
          "midi": 80,
          "name": "G#5",
          "ticks": 29568,
          "time": 99.891792,
          "velocity": 0.8267716535433071
        },
        {
          "duration": 0.3243240000000043,
          "durationTicks": 96,
          "midi": 78,
          "name": "F#5",
          "ticks": 29664,
          "time": 100.216116,
          "velocity": 0.8267716535433071
        },
        {
          "duration": 0.32432399999999006,
          "durationTicks": 96,
          "midi": 77,
          "name": "F5",
          "ticks": 29760,
          "time": 100.54044,
          "velocity": 0.8267716535433071
        },
        {
          "duration": 0.16216200000000924,
          "durationTicks": 48,
          "midi": 75,
          "name": "D#5",
          "ticks": 29856,
          "time": 100.864764,
          "velocity": 0.8267716535433071
        },
        {
          "duration": 0.16216199999999503,
          "durationTicks": 48,
          "midi": 73,
          "name": "C#5",
          "ticks": 29904,
          "time": 101.026926,
          "velocity": 0.8267716535433071
        },
        {
          "duration": 0.16216200000000924,
          "durationTicks": 48,
          "midi": 75,
          "name": "D#5",
          "ticks": 29952,
          "time": 101.189088,
          "velocity": 0.8267716535433071
        },
        {
          "duration": 0.16216199999999503,
          "durationTicks": 48,
          "midi": 73,
          "name": "C#5",
          "ticks": 30000,
          "time": 101.35125000000001,
          "velocity": 0.8267716535433071
        },
        {
          "duration": 0.16216199999999503,
          "durationTicks": 48,
          "midi": 75,
          "name": "D#5",
          "ticks": 30048,
          "time": 101.513412,
          "velocity": 0.8267716535433071
        },
        {
          "duration": 0.16216200000000924,
          "durationTicks": 48,
          "midi": 73,
          "name": "C#5",
          "ticks": 30096,
          "time": 101.675574,
          "velocity": 0.8267716535433071
        },
        {
          "duration": 0.16216199999999503,
          "durationTicks": 48,
          "midi": 75,
          "name": "D#5",
          "ticks": 30144,
          "time": 101.837736,
          "velocity": 0.8267716535433071
        },
        {
          "duration": 0.16216199999999503,
          "durationTicks": 48,
          "midi": 77,
          "name": "F5",
          "ticks": 30192,
          "time": 101.999898,
          "velocity": 0.8267716535433071
        },
        {
          "duration": 0.32432399999999006,
          "durationTicks": 96,
          "midi": 77,
          "name": "F5",
          "ticks": 30288,
          "time": 102.324222,
          "velocity": 0.8267716535433071
        },
        {
          "duration": 0.16216200000000924,
          "durationTicks": 48,
          "midi": 78,
          "name": "F#5",
          "ticks": 30384,
          "time": 102.648546,
          "velocity": 0.8267716535433071
        },
        {
          "duration": 0.16216199999999503,
          "durationTicks": 48,
          "midi": 77,
          "name": "F5",
          "ticks": 30432,
          "time": 102.810708,
          "velocity": 0.8267716535433071
        },
        {
          "duration": 0.16216199999999503,
          "durationTicks": 48,
          "midi": 78,
          "name": "F#5",
          "ticks": 30480,
          "time": 102.97287,
          "velocity": 0.8267716535433071
        },
        {
          "duration": 0.3243240000000043,
          "durationTicks": 96,
          "midi": 77,
          "name": "F5",
          "ticks": 30528,
          "time": 103.135032,
          "velocity": 0.8267716535433071
        },
        {
          "duration": 0.16216199999999503,
          "durationTicks": 48,
          "midi": 75,
          "name": "D#5",
          "ticks": 30624,
          "time": 103.459356,
          "velocity": 0.8267716535433071
        },
        {
          "duration": 0.16216200000000924,
          "durationTicks": 48,
          "midi": 73,
          "name": "C#5",
          "ticks": 30672,
          "time": 103.621518,
          "velocity": 0.8267716535433071
        },
        {
          "duration": 0.32432399999999006,
          "durationTicks": 96,
          "midi": 80,
          "name": "G#5",
          "ticks": 30720,
          "time": 103.78368,
          "velocity": 0.8267716535433071
        },
        {
          "duration": 0.16216200000000924,
          "durationTicks": 48,
          "midi": 80,
          "name": "G#5",
          "ticks": 30816,
          "time": 104.108004,
          "velocity": 0.8267716535433071
        },
        {
          "duration": 0.16216199999999503,
          "durationTicks": 48,
          "midi": 82,
          "name": "A#5",
          "ticks": 30864,
          "time": 104.270166,
          "velocity": 0.8267716535433071
        },
        {
          "duration": 0.3243240000000043,
          "durationTicks": 96,
          "midi": 80,
          "name": "G#5",
          "ticks": 30912,
          "time": 104.432328,
          "velocity": 0.8267716535433071
        },
        {
          "duration": 0.16216199999999503,
          "durationTicks": 48,
          "midi": 80,
          "name": "G#5",
          "ticks": 31008,
          "time": 104.756652,
          "velocity": 0.8267716535433071
        },
        {
          "duration": 0.16216200000000924,
          "durationTicks": 48,
          "midi": 82,
          "name": "A#5",
          "ticks": 31056,
          "time": 104.918814,
          "velocity": 0.8267716535433071
        },
        {
          "duration": 0.32432399999999006,
          "durationTicks": 96,
          "midi": 80,
          "name": "G#5",
          "ticks": 31104,
          "time": 105.080976,
          "velocity": 0.8267716535433071
        },
        {
          "duration": 0.3243240000000043,
          "durationTicks": 96,
          "midi": 78,
          "name": "F#5",
          "ticks": 31200,
          "time": 105.4053,
          "velocity": 0.8267716535433071
        },
        {
          "duration": 0.3243240000000043,
          "durationTicks": 96,
          "midi": 77,
          "name": "F5",
          "ticks": 31296,
          "time": 105.729624,
          "velocity": 0.8267716535433071
        },
        {
          "duration": 0.16216199999999503,
          "durationTicks": 48,
          "midi": 75,
          "name": "D#5",
          "ticks": 31392,
          "time": 106.053948,
          "velocity": 0.8267716535433071
        },
        {
          "duration": 0.16216199999999503,
          "durationTicks": 48,
          "midi": 73,
          "name": "C#5",
          "ticks": 31440,
          "time": 106.21611,
          "velocity": 0.8267716535433071
        },
        {
          "duration": 0.16216200000000924,
          "durationTicks": 48,
          "midi": 75,
          "name": "D#5",
          "ticks": 31488,
          "time": 106.378272,
          "velocity": 0.8267716535433071
        },
        {
          "duration": 0.16216199999999503,
          "durationTicks": 48,
          "midi": 73,
          "name": "C#5",
          "ticks": 31536,
          "time": 106.540434,
          "velocity": 0.8267716535433071
        },
        {
          "duration": 0.16216199999999503,
          "durationTicks": 48,
          "midi": 75,
          "name": "D#5",
          "ticks": 31584,
          "time": 106.702596,
          "velocity": 0.8267716535433071
        },
        {
          "duration": 0.16216200000000924,
          "durationTicks": 48,
          "midi": 73,
          "name": "C#5",
          "ticks": 31632,
          "time": 106.864758,
          "velocity": 0.8267716535433071
        },
        {
          "duration": 0.16216199999999503,
          "durationTicks": 48,
          "midi": 75,
          "name": "D#5",
          "ticks": 31680,
          "time": 107.02692,
          "velocity": 0.8267716535433071
        },
        {
          "duration": 0.16216199999999503,
          "durationTicks": 48,
          "midi": 85,
          "name": "C#6",
          "ticks": 31728,
          "time": 107.189082,
          "velocity": 0.8267716535433071
        },
        {
          "duration": 0.32432399999999006,
          "durationTicks": 96,
          "midi": 82,
          "name": "A#5",
          "ticks": 31824,
          "time": 107.513406,
          "velocity": 0.8267716535433071
        },
        {
          "duration": 0.16216200000000924,
          "durationTicks": 48,
          "midi": 82,
          "name": "A#5",
          "ticks": 31920,
          "time": 107.83773,
          "velocity": 0.8267716535433071
        },
        {
          "duration": 0.16216199999999503,
          "durationTicks": 48,
          "midi": 80,
          "name": "G#5",
          "ticks": 31968,
          "time": 107.999892,
          "velocity": 0.8267716535433071
        },
        {
          "duration": 0.16216200000000924,
          "durationTicks": 48,
          "midi": 78,
          "name": "F#5",
          "ticks": 32016,
          "time": 108.162054,
          "velocity": 0.8267716535433071
        },
        {
          "duration": 0.16216199999999503,
          "durationTicks": 48,
          "midi": 77,
          "name": "F5",
          "ticks": 32064,
          "time": 108.324216,
          "velocity": 0.8267716535433071
        },
        {
          "duration": 0.16216199999999503,
          "durationTicks": 48,
          "midi": 78,
          "name": "F#5",
          "ticks": 32112,
          "time": 108.486378,
          "velocity": 0.8267716535433071
        },
        {
          "duration": 0.16216200000000924,
          "durationTicks": 48,
          "midi": 77,
          "name": "F5",
          "ticks": 32160,
          "time": 108.64854,
          "velocity": 0.8267716535433071
        },
        {
          "duration": 0.16216199999999503,
          "durationTicks": 48,
          "midi": 78,
          "name": "F#5",
          "ticks": 32208,
          "time": 108.810702,
          "velocity": 0.8267716535433071
        },
        {
          "duration": 0.3243240000000043,
          "durationTicks": 96,
          "midi": 81,
          "name": "A5",
          "ticks": 35328,
          "time": 119.351232,
          "velocity": 0.8267716535433071
        },
        {
          "duration": 0.16216199999999503,
          "durationTicks": 48,
          "midi": 81,
          "name": "A5",
          "ticks": 35424,
          "time": 119.675556,
          "velocity": 0.8267716535433071
        },
        {
          "duration": 0.16216200000000924,
          "durationTicks": 48,
          "midi": 83,
          "name": "B5",
          "ticks": 35472,
          "time": 119.837718,
          "velocity": 0.8267716535433071
        },
        {
          "duration": 0.32432399999999006,
          "durationTicks": 96,
          "midi": 81,
          "name": "A5",
          "ticks": 35520,
          "time": 119.99988,
          "velocity": 0.8267716535433071
        },
        {
          "duration": 0.16216200000000924,
          "durationTicks": 48,
          "midi": 81,
          "name": "A5",
          "ticks": 35616,
          "time": 120.324204,
          "velocity": 0.8267716535433071
        },
        {
          "duration": 0.16216199999999503,
          "durationTicks": 48,
          "midi": 83,
          "name": "B5",
          "ticks": 35664,
          "time": 120.486366,
          "velocity": 0.8267716535433071
        },
        {
          "duration": 0.3243240000000043,
          "durationTicks": 96,
          "midi": 81,
          "name": "A5",
          "ticks": 35712,
          "time": 120.648528,
          "velocity": 0.8267716535433071
        },
        {
          "duration": 0.3243240000000043,
          "durationTicks": 96,
          "midi": 79,
          "name": "G5",
          "ticks": 35808,
          "time": 120.972852,
          "velocity": 0.8267716535433071
        },
        {
          "duration": 0.32432399999999006,
          "durationTicks": 96,
          "midi": 78,
          "name": "F#5",
          "ticks": 35904,
          "time": 121.29717600000001,
          "velocity": 0.8267716535433071
        },
        {
          "duration": 0.16216200000000924,
          "durationTicks": 48,
          "midi": 76,
          "name": "E5",
          "ticks": 36000,
          "time": 121.6215,
          "velocity": 0.8267716535433071
        },
        {
          "duration": 0.16216199999999503,
          "durationTicks": 48,
          "midi": 74,
          "name": "D5",
          "ticks": 36048,
          "time": 121.783662,
          "velocity": 0.8267716535433071
        },
        {
          "duration": 0.16216199999999503,
          "durationTicks": 48,
          "midi": 76,
          "name": "E5",
          "ticks": 36096,
          "time": 121.945824,
          "velocity": 0.8267716535433071
        },
        {
          "duration": 0.16216200000000924,
          "durationTicks": 48,
          "midi": 74,
          "name": "D5",
          "ticks": 36144,
          "time": 122.107986,
          "velocity": 0.8267716535433071
        },
        {
          "duration": 0.16216199999999503,
          "durationTicks": 48,
          "midi": 76,
          "name": "E5",
          "ticks": 36192,
          "time": 122.270148,
          "velocity": 0.8267716535433071
        },
        {
          "duration": 0.16216199999999503,
          "durationTicks": 48,
          "midi": 74,
          "name": "D5",
          "ticks": 36240,
          "time": 122.43231,
          "velocity": 0.8267716535433071
        },
        {
          "duration": 0.16216200000000924,
          "durationTicks": 48,
          "midi": 76,
          "name": "E5",
          "ticks": 36288,
          "time": 122.594472,
          "velocity": 0.8267716535433071
        },
        {
          "duration": 0.16216199999999503,
          "durationTicks": 48,
          "midi": 78,
          "name": "F#5",
          "ticks": 36336,
          "time": 122.756634,
          "velocity": 0.8267716535433071
        },
        {
          "duration": 0.3243240000000043,
          "durationTicks": 96,
          "midi": 78,
          "name": "F#5",
          "ticks": 36432,
          "time": 123.080958,
          "velocity": 0.8267716535433071
        },
        {
          "duration": 0.16216199999999503,
          "durationTicks": 48,
          "midi": 79,
          "name": "G5",
          "ticks": 36528,
          "time": 123.405282,
          "velocity": 0.8267716535433071
        },
        {
          "duration": 0.16216200000000924,
          "durationTicks": 48,
          "midi": 78,
          "name": "F#5",
          "ticks": 36576,
          "time": 123.567444,
          "velocity": 0.8267716535433071
        },
        {
          "duration": 0.16216199999999503,
          "durationTicks": 48,
          "midi": 79,
          "name": "G5",
          "ticks": 36624,
          "time": 123.729606,
          "velocity": 0.8267716535433071
        },
        {
          "duration": 0.3243240000000043,
          "durationTicks": 96,
          "midi": 78,
          "name": "F#5",
          "ticks": 36672,
          "time": 123.891768,
          "velocity": 0.8267716535433071
        },
        {
          "duration": 0.16216199999999503,
          "durationTicks": 48,
          "midi": 76,
          "name": "E5",
          "ticks": 36768,
          "time": 124.216092,
          "velocity": 0.8267716535433071
        },
        {
          "duration": 0.16216199999999503,
          "durationTicks": 48,
          "midi": 74,
          "name": "D5",
          "ticks": 36816,
          "time": 124.378254,
          "velocity": 0.8267716535433071
        },
        {
          "duration": 0.3243240000000043,
          "durationTicks": 96,
          "midi": 81,
          "name": "A5",
          "ticks": 36864,
          "time": 124.540416,
          "velocity": 0.8267716535433071
        },
        {
          "duration": 0.16216200000000924,
          "durationTicks": 48,
          "midi": 81,
          "name": "A5",
          "ticks": 36960,
          "time": 124.86474,
          "velocity": 0.8267716535433071
        },
        {
          "duration": 0.16216199999999503,
          "durationTicks": 48,
          "midi": 83,
          "name": "B5",
          "ticks": 37008,
          "time": 125.026902,
          "velocity": 0.8267716535433071
        },
        {
          "duration": 0.3243240000000043,
          "durationTicks": 96,
          "midi": 81,
          "name": "A5",
          "ticks": 37056,
          "time": 125.189064,
          "velocity": 0.8267716535433071
        },
        {
          "duration": 0.16216199999999503,
          "durationTicks": 48,
          "midi": 81,
          "name": "A5",
          "ticks": 37152,
          "time": 125.513388,
          "velocity": 0.8267716535433071
        },
        {
          "duration": 0.16216199999999503,
          "durationTicks": 48,
          "midi": 83,
          "name": "B5",
          "ticks": 37200,
          "time": 125.67555,
          "velocity": 0.8267716535433071
        },
        {
          "duration": 0.3243240000000043,
          "durationTicks": 96,
          "midi": 81,
          "name": "A5",
          "ticks": 37248,
          "time": 125.837712,
          "velocity": 0.8267716535433071
        },
        {
          "duration": 0.3243240000000043,
          "durationTicks": 96,
          "midi": 79,
          "name": "G5",
          "ticks": 37344,
          "time": 126.162036,
          "velocity": 0.8267716535433071
        },
        {
          "duration": 0.32432399999999006,
          "durationTicks": 96,
          "midi": 78,
          "name": "F#5",
          "ticks": 37440,
          "time": 126.48636,
          "velocity": 0.8267716535433071
        },
        {
          "duration": 0.16216200000000924,
          "durationTicks": 48,
          "midi": 76,
          "name": "E5",
          "ticks": 37536,
          "time": 126.810684,
          "velocity": 0.8267716535433071
        },
        {
          "duration": 0.16216199999999503,
          "durationTicks": 48,
          "midi": 74,
          "name": "D5",
          "ticks": 37584,
          "time": 126.972846,
          "velocity": 0.8267716535433071
        },
        {
          "duration": 0.16216199999999503,
          "durationTicks": 48,
          "midi": 76,
          "name": "E5",
          "ticks": 37632,
          "time": 127.135008,
          "velocity": 0.8267716535433071
        },
        {
          "duration": 0.16216200000000924,
          "durationTicks": 48,
          "midi": 74,
          "name": "D5",
          "ticks": 37680,
          "time": 127.29717,
          "velocity": 0.8267716535433071
        },
        {
          "duration": 0.16216199999999503,
          "durationTicks": 48,
          "midi": 76,
          "name": "E5",
          "ticks": 37728,
          "time": 127.459332,
          "velocity": 0.8267716535433071
        },
        {
          "duration": 0.16216199999999503,
          "durationTicks": 48,
          "midi": 74,
          "name": "D5",
          "ticks": 37776,
          "time": 127.621494,
          "velocity": 0.8267716535433071
        },
        {
          "duration": 0.16216200000000924,
          "durationTicks": 48,
          "midi": 76,
          "name": "E5",
          "ticks": 37824,
          "time": 127.783656,
          "velocity": 0.8267716535433071
        },
        {
          "duration": 0.16216199999999503,
          "durationTicks": 48,
          "midi": 86,
          "name": "D6",
          "ticks": 37872,
          "time": 127.945818,
          "velocity": 0.8267716535433071
        },
        {
          "duration": 0.3243240000000185,
          "durationTicks": 96,
          "midi": 83,
          "name": "B5",
          "ticks": 37968,
          "time": 128.270142,
          "velocity": 0.8267716535433071
        },
        {
          "duration": 0.16216199999999503,
          "durationTicks": 48,
          "midi": 83,
          "name": "B5",
          "ticks": 38064,
          "time": 128.594466,
          "velocity": 0.8267716535433071
        },
        {
          "duration": 0.16216199999999503,
          "durationTicks": 48,
          "midi": 81,
          "name": "A5",
          "ticks": 38112,
          "time": 128.756628,
          "velocity": 0.8267716535433071
        },
        {
          "duration": 0.16216199999999503,
          "durationTicks": 48,
          "midi": 79,
          "name": "G5",
          "ticks": 38160,
          "time": 128.91879,
          "velocity": 0.8267716535433071
        },
        {
          "duration": 0.16216199999999503,
          "durationTicks": 48,
          "midi": 78,
          "name": "F#5",
          "ticks": 38208,
          "time": 129.080952,
          "velocity": 0.8267716535433071
        },
        {
          "duration": 0.16216199999999503,
          "durationTicks": 48,
          "midi": 79,
          "name": "G5",
          "ticks": 38256,
          "time": 129.243114,
          "velocity": 0.8267716535433071
        },
        {
          "duration": 0.3243240000000185,
          "durationTicks": 96,
          "midi": 78,
          "name": "F#5",
          "ticks": 38304,
          "time": 129.405276,
          "velocity": 0.8267716535433071
        }
      ],
      "endOfTrackTicks": 46086
    },
    {
      "channel": 6,
      "controlChanges": {
        "6": [
          {
            "number": 6,
            "ticks": 0,
            "time": 0,
            "value": 0.09448818897637795
          },
          {
            "number": 6,
            "ticks": 0,
            "time": 0,
            "value": 0.09448818897637795
          },
          {
            "number": 6,
            "ticks": 0,
            "time": 0,
            "value": 0.09448818897637795
          },
          {
            "number": 6,
            "ticks": 46084,
            "time": 155.6890335,
            "value": 0.09448818897637795
          },
          {
            "number": 6,
            "ticks": 46086,
            "time": 155.69579025,
            "value": 0.09448818897637795
          }
        ],
        "7": [
          {
            "number": 7,
            "ticks": 0,
            "time": 0,
            "value": 0.7874015748031497
          },
          {
            "number": 7,
            "ticks": 0,
            "time": 0,
            "value": 0.7874015748031497
          },
          {
            "number": 7,
            "ticks": 0,
            "time": 0,
            "value": 0.7874015748031497
          },
          {
            "number": 7,
            "ticks": 0,
            "time": 0,
            "value": 0.7874015748031497
          },
          {
            "number": 7,
            "ticks": 46084,
            "time": 155.6890335,
            "value": 0.7874015748031497
          },
          {
            "number": 7,
            "ticks": 46086,
            "time": 155.69579025,
            "value": 0.7874015748031497
          }
        ],
        "10": [
          {
            "number": 10,
            "ticks": 0,
            "time": 0,
            "value": 0.5039370078740157
          },
          {
            "number": 10,
            "ticks": 0,
            "time": 0,
            "value": 0.5039370078740157
          },
          {
            "number": 10,
            "ticks": 0,
            "time": 0,
            "value": 0.5039370078740157
          },
          {
            "number": 10,
            "ticks": 0,
            "time": 0,
            "value": 0.5039370078740157
          },
          {
            "number": 10,
            "ticks": 46084,
            "time": 155.6890335,
            "value": 0.5039370078740157
          },
          {
            "number": 10,
            "ticks": 46086,
            "time": 155.69579025,
            "value": 0.5039370078740157
          }
        ],
        "100": [
          {
            "number": 100,
            "ticks": 0,
            "time": 0,
            "value": 0
          },
          {
            "number": 100,
            "ticks": 0,
            "time": 0,
            "value": 0
          },
          {
            "number": 100,
            "ticks": 0,
            "time": 0,
            "value": 0
          },
          {
            "number": 100,
            "ticks": 46084,
            "time": 155.6890335,
            "value": 0
          },
          {
            "number": 100,
            "ticks": 46086,
            "time": 155.69579025,
            "value": 0
          }
        ],
        "101": [
          {
            "number": 101,
            "ticks": 0,
            "time": 0,
            "value": 0
          },
          {
            "number": 101,
            "ticks": 0,
            "time": 0,
            "value": 0
          },
          {
            "number": 101,
            "ticks": 0,
            "time": 0,
            "value": 0
          },
          {
            "number": 101,
            "ticks": 46084,
            "time": 155.6890335,
            "value": 0
          },
          {
            "number": 101,
            "ticks": 46086,
            "time": 155.69579025,
            "value": 0
          }
        ]
      },
      "pitchBends": [
        {
          "ticks": 0,
          "time": 0,
          "value": 0
        },
        {
          "ticks": 0,
          "time": 0,
          "value": 0
        },
        {
          "ticks": 0,
          "time": 0,
          "value": 0
        },
        {
          "ticks": 0,
          "time": 0,
          "value": 0
        },
        {
          "ticks": 46084,
          "time": 155.6890335,
          "value": 0
        },
        {
          "ticks": 46086,
          "time": 155.69579025,
          "value": 0
        }
      ],
      "instrument": {
        "family": "piano",
        "number": 0,
        "name": "acoustic grand piano"
      },
      "name": "M #3",
      "notes": [
        {
          "duration": 0.08108099999999752,
          "durationTicks": 24,
          "midi": 70,
          "name": "A#4",
          "ticks": 23040,
          "time": 77.83776,
          "velocity": 0.8267716535433071
        },
        {
          "duration": 0.08108099999999752,
          "durationTicks": 24,
          "midi": 70,
          "name": "A#4",
          "ticks": 23072,
          "time": 77.945868,
          "velocity": 0.8267716535433071
        },
        {
          "duration": 0.08108100000001173,
          "durationTicks": 24,
          "midi": 70,
          "name": "A#4",
          "ticks": 23104,
          "time": 78.05397599999999,
          "velocity": 0.8267716535433071
        },
        {
          "duration": 0.16216199999999503,
          "durationTicks": 48,
          "midi": 70,
          "name": "A#4",
          "ticks": 23136,
          "time": 78.16208400000001,
          "velocity": 0.8267716535433071
        },
        {
          "duration": 0.08108099999999752,
          "durationTicks": 24,
          "midi": 70,
          "name": "A#4",
          "ticks": 23200,
          "time": 78.3783,
          "velocity": 0.8267716535433071
        },
        {
          "duration": 0.08108099999999752,
          "durationTicks": 24,
          "midi": 70,
          "name": "A#4",
          "ticks": 23232,
          "time": 78.486408,
          "velocity": 0.8267716535433071
        },
        {
          "duration": 0.08108100000001173,
          "durationTicks": 24,
          "midi": 70,
          "name": "A#4",
          "ticks": 23264,
          "time": 78.594516,
          "velocity": 0.8267716535433071
        },
        {
          "duration": 0.08108099999999752,
          "durationTicks": 24,
          "midi": 70,
          "name": "A#4",
          "ticks": 23296,
          "time": 78.702624,
          "velocity": 0.8267716535433071
        },
        {
          "duration": 0.05405399999999361,
          "durationTicks": 16,
          "midi": 68,
          "name": "G#4",
          "ticks": 23328,
          "time": 78.810732,
          "velocity": 0.6456692913385826
        },
        {
          "duration": 0.13513500000000533,
          "durationTicks": 40,
          "midi": 70,
          "name": "A#4",
          "ticks": 23332,
          "time": 78.8242455,
          "velocity": 0.8267716535433071
        },
        {
          "duration": 0.08108100000001173,
          "durationTicks": 24,
          "midi": 70,
          "name": "A#4",
          "ticks": 23392,
          "time": 79.02694799999999,
          "velocity": 0.8267716535433071
        },
        {
          "duration": 0.08108099999999752,
          "durationTicks": 24,
          "midi": 70,
          "name": "A#4",
          "ticks": 23424,
          "time": 79.135056,
          "velocity": 0.8267716535433071
        },
        {
          "duration": 0.08108099999999752,
          "durationTicks": 24,
          "midi": 70,
          "name": "A#4",
          "ticks": 23456,
          "time": 79.24316400000001,
          "velocity": 0.8267716535433071
        },
        {
          "duration": 0.08108099999999752,
          "durationTicks": 24,
          "midi": 70,
          "name": "A#4",
          "ticks": 23488,
          "time": 79.351272,
          "velocity": 0.8267716535433071
        },
        {
          "duration": 0.05405400000000782,
          "durationTicks": 16,
          "midi": 68,
          "name": "G#4",
          "ticks": 23520,
          "time": 79.45938,
          "velocity": 0.6456692913385826
        },
        {
          "duration": 0.13513500000000533,
          "durationTicks": 40,
          "midi": 70,
          "name": "A#4",
          "ticks": 23524,
          "time": 79.4728935,
          "velocity": 0.8267716535433071
        },
        {
          "duration": 0.08108099999999752,
          "durationTicks": 24,
          "midi": 70,
          "name": "A#4",
          "ticks": 23584,
          "time": 79.675596,
          "velocity": 0.8267716535433071
        },
        {
          "duration": 0.08108099999999752,
          "durationTicks": 24,
          "midi": 70,
          "name": "A#4",
          "ticks": 23616,
          "time": 79.783704,
          "velocity": 0.8267716535433071
        },
        {
          "duration": 0.08108099999999752,
          "durationTicks": 24,
          "midi": 70,
          "name": "A#4",
          "ticks": 23648,
          "time": 79.891812,
          "velocity": 0.8267716535433071
        },
        {
          "duration": 0.08108099999999752,
          "durationTicks": 24,
          "midi": 70,
          "name": "A#4",
          "ticks": 23680,
          "time": 79.99992,
          "velocity": 0.8267716535433071
        },
        {
          "duration": 0.24324299999999255,
          "durationTicks": 72,
          "midi": 68,
          "name": "G#4",
          "ticks": 23712,
          "time": 80.108028,
          "velocity": 0.8267716535433071
        },
        {
          "duration": 0.08108100000001173,
          "durationTicks": 24,
          "midi": 70,
          "name": "A#4",
          "ticks": 23808,
          "time": 80.432352,
          "velocity": 0.8267716535433071
        },
        {
          "duration": 0.08108099999999752,
          "durationTicks": 24,
          "midi": 70,
          "name": "A#4",
          "ticks": 23840,
          "time": 80.54046000000001,
          "velocity": 0.8267716535433071
        },
        {
          "duration": 0.08108099999999752,
          "durationTicks": 24,
          "midi": 70,
          "name": "A#4",
          "ticks": 23872,
          "time": 80.648568,
          "velocity": 0.8267716535433071
        },
        {
          "duration": 0.16216199999999503,
          "durationTicks": 48,
          "midi": 70,
          "name": "A#4",
          "ticks": 23904,
          "time": 80.756676,
          "velocity": 0.8267716535433071
        },
        {
          "duration": 0.08108099999999752,
          "durationTicks": 24,
          "midi": 70,
          "name": "A#4",
          "ticks": 23968,
          "time": 80.972892,
          "velocity": 0.8267716535433071
        },
        {
          "duration": 0.08108099999999752,
          "durationTicks": 24,
          "midi": 70,
          "name": "A#4",
          "ticks": 24000,
          "time": 81.081,
          "velocity": 0.8267716535433071
        },
        {
          "duration": 0.08108099999999752,
          "durationTicks": 24,
          "midi": 70,
          "name": "A#4",
          "ticks": 24032,
          "time": 81.189108,
          "velocity": 0.8267716535433071
        },
        {
          "duration": 0.08108100000001173,
          "durationTicks": 24,
          "midi": 70,
          "name": "A#4",
          "ticks": 24064,
          "time": 81.29721599999999,
          "velocity": 0.8267716535433071
        },
        {
          "duration": 0.05405399999999361,
          "durationTicks": 16,
          "midi": 68,
          "name": "G#4",
          "ticks": 24096,
          "time": 81.40532400000001,
          "velocity": 0.6456692913385826
        },
        {
          "duration": 0.13513500000000533,
          "durationTicks": 40,
          "midi": 70,
          "name": "A#4",
          "ticks": 24100,
          "time": 81.4188375,
          "velocity": 0.8267716535433071
        },
        {
          "duration": 0.08108099999999752,
          "durationTicks": 24,
          "midi": 70,
          "name": "A#4",
          "ticks": 24160,
          "time": 81.62154,
          "velocity": 0.8267716535433071
        },
        {
          "duration": 0.08108099999999752,
          "durationTicks": 24,
          "midi": 70,
          "name": "A#4",
          "ticks": 24192,
          "time": 81.729648,
          "velocity": 0.8267716535433071
        },
        {
          "duration": 0.08108099999999752,
          "durationTicks": 24,
          "midi": 70,
          "name": "A#4",
          "ticks": 24224,
          "time": 81.837756,
          "velocity": 0.8267716535433071
        },
        {
          "duration": 0.08108099999999752,
          "durationTicks": 24,
          "midi": 70,
          "name": "A#4",
          "ticks": 24256,
          "time": 81.945864,
          "velocity": 0.8267716535433071
        },
        {
          "duration": 0.05405399999999361,
          "durationTicks": 16,
          "midi": 68,
          "name": "G#4",
          "ticks": 24288,
          "time": 82.053972,
          "velocity": 0.6456692913385826
        },
        {
          "duration": 0.13513500000000533,
          "durationTicks": 40,
          "midi": 70,
          "name": "A#4",
          "ticks": 24292,
          "time": 82.0674855,
          "velocity": 0.8267716535433071
        },
        {
          "duration": 0.08108100000001173,
          "durationTicks": 24,
          "midi": 70,
          "name": "A#4",
          "ticks": 24352,
          "time": 82.27018799999999,
          "velocity": 0.8267716535433071
        },
        {
          "duration": 0.08108099999999752,
          "durationTicks": 24,
          "midi": 70,
          "name": "A#4",
          "ticks": 24384,
          "time": 82.378296,
          "velocity": 0.8267716535433071
        },
        {
          "duration": 0.08108099999999752,
          "durationTicks": 24,
          "midi": 70,
          "name": "A#4",
          "ticks": 24416,
          "time": 82.48640400000001,
          "velocity": 0.8267716535433071
        },
        {
          "duration": 0.08108099999999752,
          "durationTicks": 24,
          "midi": 70,
          "name": "A#4",
          "ticks": 24448,
          "time": 82.594512,
          "velocity": 0.8267716535433071
        },
        {
          "duration": 0.16216200000000924,
          "durationTicks": 48,
          "midi": 70,
          "name": "A#4",
          "ticks": 24480,
          "time": 82.70262,
          "velocity": 0.8267716535433071
        },
        {
          "duration": 0.10810800000000143,
          "durationTicks": 32,
          "midi": 73,
          "name": "C#5",
          "ticks": 24544,
          "time": 82.918836,
          "velocity": 0.8267716535433071
        },
        {
          "duration": 0.08108099999999752,
          "durationTicks": 24,
          "midi": 70,
          "name": "A#4",
          "ticks": 24576,
          "time": 83.026944,
          "velocity": 0.8267716535433071
        },
        {
          "duration": 0.08108100000001173,
          "durationTicks": 24,
          "midi": 70,
          "name": "A#4",
          "ticks": 24608,
          "time": 83.13505199999999,
          "velocity": 0.8267716535433071
        },
        {
          "duration": 0.08108099999999752,
          "durationTicks": 24,
          "midi": 70,
          "name": "A#4",
          "ticks": 24640,
          "time": 83.24316,
          "velocity": 0.8267716535433071
        },
        {
          "duration": 0.16216199999999503,
          "durationTicks": 48,
          "midi": 70,
          "name": "A#4",
          "ticks": 24672,
          "time": 83.351268,
          "velocity": 0.8267716535433071
        },
        {
          "duration": 0.08108099999999752,
          "durationTicks": 24,
          "midi": 70,
          "name": "A#4",
          "ticks": 24736,
          "time": 83.56748400000001,
          "velocity": 0.8267716535433071
        },
        {
          "duration": 0.08108100000001173,
          "durationTicks": 24,
          "midi": 70,
          "name": "A#4",
          "ticks": 24768,
          "time": 83.675592,
          "velocity": 0.8267716535433071
        },
        {
          "duration": 0.08108099999999752,
          "durationTicks": 24,
          "midi": 70,
          "name": "A#4",
          "ticks": 24800,
          "time": 83.7837,
          "velocity": 0.8267716535433071
        },
        {
          "duration": 0.08108099999999752,
          "durationTicks": 24,
          "midi": 70,
          "name": "A#4",
          "ticks": 24832,
          "time": 83.89180800000001,
          "velocity": 0.8267716535433071
        },
        {
          "duration": 0.05405400000000782,
          "durationTicks": 16,
          "midi": 68,
          "name": "G#4",
          "ticks": 24864,
          "time": 83.999916,
          "velocity": 0.6456692913385826
        },
        {
          "duration": 0.13513499999999112,
          "durationTicks": 40,
          "midi": 70,
          "name": "A#4",
          "ticks": 24868,
          "time": 84.0134295,
          "velocity": 0.8267716535433071
        },
        {
          "duration": 0.08108100000001173,
          "durationTicks": 24,
          "midi": 70,
          "name": "A#4",
          "ticks": 24928,
          "time": 84.216132,
          "velocity": 0.8267716535433071
        },
        {
          "duration": 0.08108099999999752,
          "durationTicks": 24,
          "midi": 70,
          "name": "A#4",
          "ticks": 24960,
          "time": 84.32424,
          "velocity": 0.8267716535433071
        },
        {
          "duration": 0.08108099999999752,
          "durationTicks": 24,
          "midi": 70,
          "name": "A#4",
          "ticks": 24992,
          "time": 84.43234799999999,
          "velocity": 0.8267716535433071
        },
        {
          "duration": 0.08108099999999752,
          "durationTicks": 24,
          "midi": 70,
          "name": "A#4",
          "ticks": 25024,
          "time": 84.540456,
          "velocity": 0.8267716535433071
        },
        {
          "duration": 0.05405400000000782,
          "durationTicks": 16,
          "midi": 68,
          "name": "G#4",
          "ticks": 25056,
          "time": 84.648564,
          "velocity": 0.6456692913385826
        },
        {
          "duration": 0.13513499999999112,
          "durationTicks": 40,
          "midi": 70,
          "name": "A#4",
          "ticks": 25060,
          "time": 84.66207750000001,
          "velocity": 0.8267716535433071
        },
        {
          "duration": 0.08108099999999752,
          "durationTicks": 24,
          "midi": 70,
          "name": "A#4",
          "ticks": 25120,
          "time": 84.86478000000001,
          "velocity": 0.8267716535433071
        },
        {
          "duration": 0.08108099999999752,
          "durationTicks": 24,
          "midi": 70,
          "name": "A#4",
          "ticks": 25152,
          "time": 84.972888,
          "velocity": 0.8267716535433071
        },
        {
          "duration": 0.08108099999999752,
          "durationTicks": 24,
          "midi": 70,
          "name": "A#4",
          "ticks": 25184,
          "time": 85.080996,
          "velocity": 0.8267716535433071
        },
        {
          "duration": 0.08108100000001173,
          "durationTicks": 24,
          "midi": 70,
          "name": "A#4",
          "ticks": 25216,
          "time": 85.189104,
          "velocity": 0.8267716535433071
        },
        {
          "duration": 0.24324299999999255,
          "durationTicks": 72,
          "midi": 68,
          "name": "G#4",
          "ticks": 25248,
          "time": 85.297212,
          "velocity": 0.8267716535433071
        },
        {
          "duration": 0.08108099999999752,
          "durationTicks": 24,
          "midi": 70,
          "name": "A#4",
          "ticks": 25344,
          "time": 85.621536,
          "velocity": 0.8267716535433071
        },
        {
          "duration": 0.08108099999999752,
          "durationTicks": 24,
          "midi": 70,
          "name": "A#4",
          "ticks": 25376,
          "time": 85.729644,
          "velocity": 0.8267716535433071
        },
        {
          "duration": 0.08108099999999752,
          "durationTicks": 24,
          "midi": 70,
          "name": "A#4",
          "ticks": 25408,
          "time": 85.83775200000001,
          "velocity": 0.8267716535433071
        },
        {
          "duration": 0.16216200000000924,
          "durationTicks": 48,
          "midi": 70,
          "name": "A#4",
          "ticks": 25440,
          "time": 85.94586,
          "velocity": 0.8267716535433071
        },
        {
          "duration": 0.08108099999999752,
          "durationTicks": 24,
          "midi": 70,
          "name": "A#4",
          "ticks": 25504,
          "time": 86.16207600000001,
          "velocity": 0.8267716535433071
        },
        {
          "duration": 0.08108099999999752,
          "durationTicks": 24,
          "midi": 70,
          "name": "A#4",
          "ticks": 25536,
          "time": 86.270184,
          "velocity": 0.8267716535433071
        },
        {
          "duration": 0.08108100000001173,
          "durationTicks": 24,
          "midi": 70,
          "name": "A#4",
          "ticks": 25568,
          "time": 86.37829199999999,
          "velocity": 0.8267716535433071
        },
        {
          "duration": 0.08108099999999752,
          "durationTicks": 24,
          "midi": 70,
          "name": "A#4",
          "ticks": 25600,
          "time": 86.4864,
          "velocity": 0.8267716535433071
        },
        {
          "duration": 0.05405400000000782,
          "durationTicks": 16,
          "midi": 68,
          "name": "G#4",
          "ticks": 25632,
          "time": 86.594508,
          "velocity": 0.7244094488188977
        },
        {
          "duration": 0.13513499999999112,
          "durationTicks": 40,
          "midi": 70,
          "name": "A#4",
          "ticks": 25636,
          "time": 86.6080215,
          "velocity": 0.8267716535433071
        },
        {
          "duration": 0.08108099999999752,
          "durationTicks": 24,
          "midi": 70,
          "name": "A#4",
          "ticks": 25696,
          "time": 86.81072400000001,
          "velocity": 0.8267716535433071
        },
        {
          "duration": 0.08108100000001173,
          "durationTicks": 24,
          "midi": 70,
          "name": "A#4",
          "ticks": 25728,
          "time": 86.918832,
          "velocity": 0.8267716535433071
        },
        {
          "duration": 0.08108099999999752,
          "durationTicks": 24,
          "midi": 70,
          "name": "A#4",
          "ticks": 25760,
          "time": 87.02694,
          "velocity": 0.8267716535433071
        },
        {
          "duration": 0.08108099999999752,
          "durationTicks": 24,
          "midi": 70,
          "name": "A#4",
          "ticks": 25792,
          "time": 87.13504800000001,
          "velocity": 0.8267716535433071
        },
        {
          "duration": 0.08108099999999752,
          "durationTicks": 24,
          "midi": 70,
          "name": "A#4",
          "ticks": 25824,
          "time": 87.243156,
          "velocity": 0.8267716535433071
        },
        {
          "duration": 0.08108099999999752,
          "durationTicks": 24,
          "midi": 70,
          "name": "A#4",
          "ticks": 25856,
          "time": 87.351264,
          "velocity": 0.8267716535433071
        },
        {
          "duration": 0.08108099999999752,
          "durationTicks": 24,
          "midi": 70,
          "name": "A#4",
          "ticks": 25888,
          "time": 87.459372,
          "velocity": 0.8267716535433071
        },
        {
          "duration": 0.32432399999999006,
          "durationTicks": 96,
          "midi": 68,
          "name": "G#4",
          "ticks": 25920,
          "time": 87.56748,
          "velocity": 0.8267716535433071
        },
        {
          "duration": 0.3243240000000043,
          "durationTicks": 96,
          "midi": 65,
          "name": "F4",
          "ticks": 26016,
          "time": 87.891804,
          "velocity": 0.8267716535433071
        }
      ],
      "endOfTrackTicks": 46086
    },
    {
      "channel": 7,
      "controlChanges": {
        "6": [
          {
            "number": 6,
            "ticks": 0,
            "time": 0,
            "value": 0.09448818897637795
          },
          {
            "number": 6,
            "ticks": 0,
            "time": 0,
            "value": 0.09448818897637795
          },
          {
            "number": 6,
            "ticks": 0,
            "time": 0,
            "value": 0.09448818897637795
          },
          {
            "number": 6,
            "ticks": 46084,
            "time": 155.6890335,
            "value": 0.09448818897637795
          },
          {
            "number": 6,
            "ticks": 46086,
            "time": 155.69579025,
            "value": 0.09448818897637795
          }
        ],
        "7": [
          {
            "number": 7,
            "ticks": 0,
            "time": 0,
            "value": 0.7874015748031497
          },
          {
            "number": 7,
            "ticks": 0,
            "time": 0,
            "value": 0.7874015748031497
          },
          {
            "number": 7,
            "ticks": 0,
            "time": 0,
            "value": 0.7874015748031497
          },
          {
            "number": 7,
            "ticks": 0,
            "time": 0,
            "value": 0.7874015748031497
          },
          {
            "number": 7,
            "ticks": 46084,
            "time": 155.6890335,
            "value": 0.7874015748031497
          },
          {
            "number": 7,
            "ticks": 46086,
            "time": 155.69579025,
            "value": 0.7874015748031497
          }
        ],
        "10": [
          {
            "number": 10,
            "ticks": 0,
            "time": 0,
            "value": 0.5039370078740157
          },
          {
            "number": 10,
            "ticks": 0,
            "time": 0,
            "value": 0.5039370078740157
          },
          {
            "number": 10,
            "ticks": 0,
            "time": 0,
            "value": 0.5039370078740157
          },
          {
            "number": 10,
            "ticks": 0,
            "time": 0,
            "value": 0.5039370078740157
          },
          {
            "number": 10,
            "ticks": 46084,
            "time": 155.6890335,
            "value": 0.5039370078740157
          },
          {
            "number": 10,
            "ticks": 46086,
            "time": 155.69579025,
            "value": 0.5039370078740157
          }
        ],
        "100": [
          {
            "number": 100,
            "ticks": 0,
            "time": 0,
            "value": 0
          },
          {
            "number": 100,
            "ticks": 0,
            "time": 0,
            "value": 0
          },
          {
            "number": 100,
            "ticks": 0,
            "time": 0,
            "value": 0
          },
          {
            "number": 100,
            "ticks": 46084,
            "time": 155.6890335,
            "value": 0
          },
          {
            "number": 100,
            "ticks": 46086,
            "time": 155.69579025,
            "value": 0
          }
        ],
        "101": [
          {
            "number": 101,
            "ticks": 0,
            "time": 0,
            "value": 0
          },
          {
            "number": 101,
            "ticks": 0,
            "time": 0,
            "value": 0
          },
          {
            "number": 101,
            "ticks": 0,
            "time": 0,
            "value": 0
          },
          {
            "number": 101,
            "ticks": 46084,
            "time": 155.6890335,
            "value": 0
          },
          {
            "number": 101,
            "ticks": 46086,
            "time": 155.69579025,
            "value": 0
          }
        ]
      },
      "pitchBends": [
        {
          "ticks": 0,
          "time": 0,
          "value": 0
        },
        {
          "ticks": 0,
          "time": 0,
          "value": 0
        },
        {
          "ticks": 0,
          "time": 0,
          "value": 0
        },
        {
          "ticks": 0,
          "time": 0,
          "value": 0
        },
        {
          "ticks": 46084,
          "time": 155.6890335,
          "value": 0
        },
        {
          "ticks": 46086,
          "time": 155.69579025,
          "value": 0
        }
      ],
      "instrument": {
        "family": "piano",
        "number": 0,
        "name": "acoustic grand piano"
      },
      "name": "M #2",
      "notes": [
        {
          "duration": 0.16216200000000036,
          "durationTicks": 48,
          "midi": 70,
          "name": "A#4",
          "ticks": 3840,
          "time": 12.97296,
          "velocity": 0.6299212598425197
        },
        {
          "duration": 0.12162149999999983,
          "durationTicks": 36,
          "midi": 65,
          "name": "F4",
          "ticks": 3936,
          "time": 13.297284,
          "velocity": 0.6299212598425197
        },
        {
          "duration": 0.040540500000000534,
          "durationTicks": 12,
          "midi": 65,
          "name": "F4",
          "ticks": 3984,
          "time": 13.459446,
          "velocity": 0.6299212598425197
        },
        {
          "duration": 0.12162149999999983,
          "durationTicks": 36,
          "midi": 65,
          "name": "F4",
          "ticks": 4008,
          "time": 13.540527,
          "velocity": 0.6299212598425197
        },
        {
          "duration": 0.12162149999999983,
          "durationTicks": 36,
          "midi": 65,
          "name": "F4",
          "ticks": 4056,
          "time": 13.702689,
          "velocity": 0.6299212598425197
        },
        {
          "duration": 0.08108100000000107,
          "durationTicks": 24,
          "midi": 65,
          "name": "F4",
          "ticks": 4104,
          "time": 13.864851,
          "velocity": 0.6299212598425197
        },
        {
          "duration": 0.16216199999999859,
          "durationTicks": 48,
          "midi": 66,
          "name": "F#4",
          "ticks": 4128,
          "time": 13.945932,
          "velocity": 0.6299212598425197
        },
        {
          "duration": 0.08108100000000107,
          "durationTicks": 24,
          "midi": 65,
          "name": "F4",
          "ticks": 4176,
          "time": 14.108094,
          "velocity": 0.6299212598425197
        },
        {
          "duration": 0.16216200000000036,
          "durationTicks": 48,
          "midi": 65,
          "name": "F4",
          "ticks": 4272,
          "time": 14.432418,
          "velocity": 0.6299212598425197
        },
        {
          "duration": 0.16216200000000036,
          "durationTicks": 48,
          "midi": 66,
          "name": "F#4",
          "ticks": 4320,
          "time": 14.59458,
          "velocity": 0.6299212598425197
        },
        {
          "duration": 0.16216199999999859,
          "durationTicks": 48,
          "midi": 65,
          "name": "F4",
          "ticks": 4368,
          "time": 14.756742000000001,
          "velocity": 0.6299212598425197
        },
        {
          "duration": 0.16216200000000036,
          "durationTicks": 48,
          "midi": 66,
          "name": "F#4",
          "ticks": 4416,
          "time": 14.918904,
          "velocity": 0.6299212598425197
        },
        {
          "duration": 0.16216200000000036,
          "durationTicks": 48,
          "midi": 65,
          "name": "F4",
          "ticks": 4464,
          "time": 15.081066,
          "velocity": 0.6299212598425197
        },
        {
          "duration": 0.16216200000000036,
          "durationTicks": 48,
          "midi": 63,
          "name": "D#4",
          "ticks": 4512,
          "time": 15.243228,
          "velocity": 0.6299212598425197
        },
        {
          "duration": 0.16216199999999859,
          "durationTicks": 48,
          "midi": 61,
          "name": "C#4",
          "ticks": 4560,
          "time": 15.40539,
          "velocity": 0.6299212598425197
        },
        {
          "duration": 0.16216200000000036,
          "durationTicks": 48,
          "midi": 63,
          "name": "D#4",
          "ticks": 4656,
          "time": 15.729714,
          "velocity": 0.6299212598425197
        },
        {
          "duration": 0.16216200000000214,
          "durationTicks": 48,
          "midi": 61,
          "name": "C#4",
          "ticks": 4752,
          "time": 16.054038,
          "velocity": 0.6299212598425197
        },
        {
          "duration": 0.16216199999999859,
          "durationTicks": 48,
          "midi": 63,
          "name": "D#4",
          "ticks": 4800,
          "time": 16.2162,
          "velocity": 0.6299212598425197
        },
        {
          "duration": 0.16216200000000214,
          "durationTicks": 48,
          "midi": 63,
          "name": "D#4",
          "ticks": 4848,
          "time": 16.378362,
          "velocity": 0.6299212598425197
        },
        {
          "duration": 0.16216199999999859,
          "durationTicks": 48,
          "midi": 65,
          "name": "F4",
          "ticks": 4896,
          "time": 16.540524,
          "velocity": 0.6299212598425197
        },
        {
          "duration": 0.16216199999999859,
          "durationTicks": 48,
          "midi": 63,
          "name": "D#4",
          "ticks": 4944,
          "time": 16.702686,
          "velocity": 0.6299212598425197
        },
        {
          "duration": 0.16216200000000214,
          "durationTicks": 48,
          "midi": 65,
          "name": "F4",
          "ticks": 4992,
          "time": 16.864848,
          "velocity": 0.6299212598425197
        },
        {
          "duration": 0.16216199999999859,
          "durationTicks": 48,
          "midi": 63,
          "name": "D#4",
          "ticks": 5040,
          "time": 17.02701,
          "velocity": 0.6299212598425197
        },
        {
          "duration": 0.16216200000000214,
          "durationTicks": 48,
          "midi": 61,
          "name": "C#4",
          "ticks": 5088,
          "time": 17.189172,
          "velocity": 0.6299212598425197
        },
        {
          "duration": 0.16216199999999859,
          "durationTicks": 48,
          "midi": 60,
          "name": "C4",
          "ticks": 5136,
          "time": 17.351334,
          "velocity": 0.6299212598425197
        },
        {
          "duration": 0.3243240000000007,
          "durationTicks": 96,
          "midi": 58,
          "name": "A#3",
          "ticks": 5184,
          "time": 17.513496,
          "velocity": 0.6299212598425197
        },
        {
          "duration": 0.3243240000000007,
          "durationTicks": 96,
          "midi": 56,
          "name": "G#3",
          "ticks": 5280,
          "time": 17.83782,
          "velocity": 0.6299212598425197
        },
        {
          "duration": 0.08108099999999752,
          "durationTicks": 24,
          "midi": 68,
          "name": "G#4",
          "ticks": 5376,
          "time": 18.162144,
          "velocity": 0.6299212598425197
        },
        {
          "duration": 0.16216199999999859,
          "durationTicks": 48,
          "midi": 70,
          "name": "A#4",
          "ticks": 5388,
          "time": 18.2026845,
          "velocity": 0.6299212598425197
        },
        {
          "duration": 0.12162149999999983,
          "durationTicks": 36,
          "midi": 65,
          "name": "F4",
          "ticks": 5472,
          "time": 18.486468,
          "velocity": 0.6299212598425197
        },
        {
          "duration": 0.04054049999999876,
          "durationTicks": 12,
          "midi": 65,
          "name": "F4",
          "ticks": 5520,
          "time": 18.64863,
          "velocity": 0.6299212598425197
        },
        {
          "duration": 0.12162149999999983,
          "durationTicks": 36,
          "midi": 65,
          "name": "F4",
          "ticks": 5544,
          "time": 18.729711,
          "velocity": 0.6299212598425197
        },
        {
          "duration": 0.12162149999999983,
          "durationTicks": 36,
          "midi": 65,
          "name": "F4",
          "ticks": 5592,
          "time": 18.891873,
          "velocity": 0.6299212598425197
        },
        {
          "duration": 0.08108100000000107,
          "durationTicks": 24,
          "midi": 65,
          "name": "F4",
          "ticks": 5640,
          "time": 19.054035,
          "velocity": 0.6299212598425197
        },
        {
          "duration": 0.16216199999999859,
          "durationTicks": 48,
          "midi": 66,
          "name": "F#4",
          "ticks": 5664,
          "time": 19.135116,
          "velocity": 0.6299212598425197
        },
        {
          "duration": 0.08108100000000107,
          "durationTicks": 24,
          "midi": 65,
          "name": "F4",
          "ticks": 5712,
          "time": 19.297278,
          "velocity": 0.6299212598425197
        },
        {
          "duration": 0.16216200000000214,
          "durationTicks": 48,
          "midi": 65,
          "name": "F4",
          "ticks": 5808,
          "time": 19.621602,
          "velocity": 0.6299212598425197
        },
        {
          "duration": 0.16216199999999859,
          "durationTicks": 48,
          "midi": 66,
          "name": "F#4",
          "ticks": 5856,
          "time": 19.783764,
          "velocity": 0.6299212598425197
        },
        {
          "duration": 0.16216199999999859,
          "durationTicks": 48,
          "midi": 65,
          "name": "F4",
          "ticks": 5904,
          "time": 19.945926,
          "velocity": 0.6299212598425197
        },
        {
          "duration": 0.16216200000000214,
          "durationTicks": 48,
          "midi": 66,
          "name": "F#4",
          "ticks": 5952,
          "time": 20.108088,
          "velocity": 0.6299212598425197
        },
        {
          "duration": 0.16216199999999859,
          "durationTicks": 48,
          "midi": 65,
          "name": "F4",
          "ticks": 6000,
          "time": 20.27025,
          "velocity": 0.6299212598425197
        },
        {
          "duration": 0.16216200000000214,
          "durationTicks": 48,
          "midi": 63,
          "name": "D#4",
          "ticks": 6048,
          "time": 20.432412,
          "velocity": 0.6299212598425197
        },
        {
          "duration": 0.16216199999999859,
          "durationTicks": 48,
          "midi": 61,
          "name": "C#4",
          "ticks": 6096,
          "time": 20.594574,
          "velocity": 0.6299212598425197
        },
        {
          "duration": 0.16216200000000214,
          "durationTicks": 48,
          "midi": 63,
          "name": "D#4",
          "ticks": 6192,
          "time": 20.918898,
          "velocity": 0.6299212598425197
        },
        {
          "duration": 0.16216199999999859,
          "durationTicks": 48,
          "midi": 63,
          "name": "D#4",
          "ticks": 6240,
          "time": 21.08106,
          "velocity": 0.6299212598425197
        },
        {
          "duration": 0.16216200000000214,
          "durationTicks": 48,
          "midi": 61,
          "name": "C#4",
          "ticks": 6288,
          "time": 21.243222,
          "velocity": 0.6299212598425197
        },
        {
          "duration": 0.16216199999999859,
          "durationTicks": 48,
          "midi": 63,
          "name": "D#4",
          "ticks": 6336,
          "time": 21.405384,
          "velocity": 0.6299212598425197
        },
        {
          "duration": 0.16216199999999859,
          "durationTicks": 48,
          "midi": 63,
          "name": "D#4",
          "ticks": 6384,
          "time": 21.567546,
          "velocity": 0.6299212598425197
        },
        {
          "duration": 0.16216200000000214,
          "durationTicks": 48,
          "midi": 65,
          "name": "F4",
          "ticks": 6432,
          "time": 21.729708,
          "velocity": 0.6299212598425197
        },
        {
          "duration": 0.16216199999999859,
          "durationTicks": 48,
          "midi": 58,
          "name": "A#3",
          "ticks": 6480,
          "time": 21.89187,
          "velocity": 0.6299212598425197
        },
        {
          "duration": 0.16216200000000214,
          "durationTicks": 48,
          "midi": 58,
          "name": "A#3",
          "ticks": 6672,
          "time": 22.540518,
          "velocity": 0.6299212598425197
        },
        {
          "duration": 0.16216199999999503,
          "durationTicks": 48,
          "midi": 61,
          "name": "C#4",
          "ticks": 10128,
          "time": 34.216182,
          "velocity": 0.6299212598425197
        },
        {
          "duration": 0.16216200000000214,
          "durationTicks": 48,
          "midi": 63,
          "name": "D#4",
          "ticks": 10176,
          "time": 34.378344,
          "velocity": 0.6299212598425197
        },
        {
          "duration": 0.16216200000000214,
          "durationTicks": 48,
          "midi": 65,
          "name": "F4",
          "ticks": 10224,
          "time": 34.540506,
          "velocity": 0.6299212598425197
        },
        {
          "duration": 0.16216199999999503,
          "durationTicks": 48,
          "midi": 66,
          "name": "F#4",
          "ticks": 10272,
          "time": 34.702668,
          "velocity": 0.6299212598425197
        },
        {
          "duration": 0.16216200000000214,
          "durationTicks": 48,
          "midi": 68,
          "name": "G#4",
          "ticks": 10320,
          "time": 34.86483,
          "velocity": 0.6299212598425197
        },
        {
          "duration": 0.2837834999999984,
          "durationTicks": 84,
          "midi": 70,
          "name": "A#4",
          "ticks": 10368,
          "time": 35.026992,
          "velocity": 0.6299212598425197
        },
        {
          "duration": 0.2837835000000055,
          "durationTicks": 84,
          "midi": 68,
          "name": "G#4",
          "ticks": 10464,
          "time": 35.351316,
          "velocity": 0.6299212598425197
        },
        {
          "duration": 0.16216200000000214,
          "durationTicks": 48,
          "midi": 65,
          "name": "F4",
          "ticks": 10560,
          "time": 35.67564,
          "velocity": 0.6299212598425197
        },
        {
          "duration": 0.16216199999999503,
          "durationTicks": 48,
          "midi": 68,
          "name": "G#4",
          "ticks": 10608,
          "time": 35.837802,
          "velocity": 0.6299212598425197
        },
        {
          "duration": 0.16216200000000214,
          "durationTicks": 48,
          "midi": 65,
          "name": "F4",
          "ticks": 10656,
          "time": 35.999964,
          "velocity": 0.6299212598425197
        },
        {
          "duration": 0.16216200000000214,
          "durationTicks": 48,
          "midi": 63,
          "name": "D#4",
          "ticks": 10704,
          "time": 36.162126,
          "velocity": 0.6299212598425197
        },
        {
          "duration": 0.32432399999999717,
          "durationTicks": 96,
          "midi": 61,
          "name": "C#4",
          "ticks": 10752,
          "time": 36.324288,
          "velocity": 0.6299212598425197
        },
        {
          "duration": 0.16216199999999503,
          "durationTicks": 48,
          "midi": 61,
          "name": "C#4",
          "ticks": 10896,
          "time": 36.810774,
          "velocity": 0.6299212598425197
        },
        {
          "duration": 0.16216200000000214,
          "durationTicks": 48,
          "midi": 63,
          "name": "D#4",
          "ticks": 10944,
          "time": 36.972936,
          "velocity": 0.6299212598425197
        },
        {
          "duration": 0.16216200000000214,
          "durationTicks": 48,
          "midi": 65,
          "name": "F4",
          "ticks": 10992,
          "time": 37.135098,
          "velocity": 0.6299212598425197
        },
        {
          "duration": 0.16216200000000214,
          "durationTicks": 48,
          "midi": 66,
          "name": "F#4",
          "ticks": 11040,
          "time": 37.29726,
          "velocity": 0.6299212598425197
        },
        {
          "duration": 0.16216199999999503,
          "durationTicks": 48,
          "midi": 68,
          "name": "G#4",
          "ticks": 11088,
          "time": 37.459422,
          "velocity": 0.6299212598425197
        },
        {
          "duration": 0.2837834999999984,
          "durationTicks": 84,
          "midi": 73,
          "name": "C#5",
          "ticks": 11136,
          "time": 37.621584,
          "velocity": 0.6299212598425197
        },
        {
          "duration": 0.2837834999999984,
          "durationTicks": 84,
          "midi": 70,
          "name": "A#4",
          "ticks": 11232,
          "time": 37.945908,
          "velocity": 0.6299212598425197
        },
        {
          "duration": 0.16216200000000214,
          "durationTicks": 48,
          "midi": 68,
          "name": "G#4",
          "ticks": 11328,
          "time": 38.270232,
          "velocity": 0.6299212598425197
        },
        {
          "duration": 0.16216199999999503,
          "durationTicks": 48,
          "midi": 70,
          "name": "A#4",
          "ticks": 11376,
          "time": 38.432394,
          "velocity": 0.6299212598425197
        },
        {
          "duration": 0.16216200000000214,
          "durationTicks": 48,
          "midi": 68,
          "name": "G#4",
          "ticks": 11424,
          "time": 38.594556,
          "velocity": 0.6299212598425197
        },
        {
          "duration": 0.16216200000000214,
          "durationTicks": 48,
          "midi": 65,
          "name": "F4",
          "ticks": 11472,
          "time": 38.756718,
          "velocity": 0.6299212598425197
        },
        {
          "duration": 0.32432399999999717,
          "durationTicks": 96,
          "midi": 61,
          "name": "C#4",
          "ticks": 11520,
          "time": 38.91888,
          "velocity": 0.6299212598425197
        },
        {
          "duration": 0.3243240000000043,
          "durationTicks": 96,
          "midi": 61,
          "name": "C#4",
          "ticks": 12864,
          "time": 43.459416,
          "velocity": 0.6377952755905512
        },
        {
          "duration": 0.16216199999999503,
          "durationTicks": 48,
          "midi": 63,
          "name": "D#4",
          "ticks": 12960,
          "time": 43.78374,
          "velocity": 0.6377952755905512
        },
        {
          "duration": 0.16216200000000214,
          "durationTicks": 48,
          "midi": 65,
          "name": "F4",
          "ticks": 13008,
          "time": 43.945902,
          "velocity": 0.6377952755905512
        },
        {
          "duration": 0.3243240000000043,
          "durationTicks": 96,
          "midi": 77,
          "name": "F5",
          "ticks": 13056,
          "time": 44.108064,
          "velocity": 0.4881889763779528
        },
        {
          "duration": 0.3243240000000043,
          "durationTicks": 96,
          "midi": 68,
          "name": "G#4",
          "ticks": 13056,
          "time": 44.108064,
          "velocity": 0.6377952755905512
        },
        {
          "duration": 0.16216199999999503,
          "durationTicks": 48,
          "midi": 77,
          "name": "F5",
          "ticks": 13152,
          "time": 44.432388,
          "velocity": 0.4881889763779528
        },
        {
          "duration": 0.16216199999999503,
          "durationTicks": 48,
          "midi": 68,
          "name": "G#4",
          "ticks": 13152,
          "time": 44.432388,
          "velocity": 0.6377952755905512
        },
        {
          "duration": 0.16216200000000214,
          "durationTicks": 48,
          "midi": 78,
          "name": "F#5",
          "ticks": 13200,
          "time": 44.59455,
          "velocity": 0.4881889763779528
        },
        {
          "duration": 0.16216200000000214,
          "durationTicks": 48,
          "midi": 70,
          "name": "A#4",
          "ticks": 13200,
          "time": 44.59455,
          "velocity": 0.6377952755905512
        },
        {
          "duration": 0.32432399999999717,
          "durationTicks": 96,
          "midi": 77,
          "name": "F5",
          "ticks": 13248,
          "time": 44.756712,
          "velocity": 0.4881889763779528
        },
        {
          "duration": 0.32432399999999717,
          "durationTicks": 96,
          "midi": 68,
          "name": "G#4",
          "ticks": 13248,
          "time": 44.756712,
          "velocity": 0.6377952755905512
        },
        {
          "duration": 0.16216200000000214,
          "durationTicks": 48,
          "midi": 77,
          "name": "F5",
          "ticks": 13344,
          "time": 45.081036,
          "velocity": 0.4881889763779528
        },
        {
          "duration": 0.16216200000000214,
          "durationTicks": 48,
          "midi": 68,
          "name": "G#4",
          "ticks": 13344,
          "time": 45.081036,
          "velocity": 0.6377952755905512
        },
        {
          "duration": 0.16216200000000214,
          "durationTicks": 48,
          "midi": 78,
          "name": "F#5",
          "ticks": 13392,
          "time": 45.243198,
          "velocity": 0.4881889763779528
        },
        {
          "duration": 0.16216200000000214,
          "durationTicks": 48,
          "midi": 70,
          "name": "A#4",
          "ticks": 13392,
          "time": 45.243198,
          "velocity": 0.6377952755905512
        },
        {
          "duration": 0.32432399999999717,
          "durationTicks": 96,
          "midi": 77,
          "name": "F5",
          "ticks": 13440,
          "time": 45.40536,
          "velocity": 0.4881889763779528
        },
        {
          "duration": 0.32432399999999717,
          "durationTicks": 96,
          "midi": 68,
          "name": "G#4",
          "ticks": 13440,
          "time": 45.40536,
          "velocity": 0.6377952755905512
        },
        {
          "duration": 0.3243240000000043,
          "durationTicks": 96,
          "midi": 75,
          "name": "D#5",
          "ticks": 13536,
          "time": 45.729684,
          "velocity": 0.4881889763779528
        },
        {
          "duration": 0.3243240000000043,
          "durationTicks": 96,
          "midi": 66,
          "name": "F#4",
          "ticks": 13536,
          "time": 45.729684,
          "velocity": 0.6377952755905512
        },
        {
          "duration": 0.32432399999999717,
          "durationTicks": 96,
          "midi": 73,
          "name": "C#5",
          "ticks": 13632,
          "time": 46.054008,
          "velocity": 0.4881889763779528
        },
        {
          "duration": 0.32432399999999717,
          "durationTicks": 96,
          "midi": 65,
          "name": "F4",
          "ticks": 13632,
          "time": 46.054008,
          "velocity": 0.6377952755905512
        },
        {
          "duration": 0.16216200000000214,
          "durationTicks": 48,
          "midi": 72,
          "name": "C5",
          "ticks": 13728,
          "time": 46.378332,
          "velocity": 0.4881889763779528
        },
        {
          "duration": 0.16216200000000214,
          "durationTicks": 48,
          "midi": 63,
          "name": "D#4",
          "ticks": 13728,
          "time": 46.378332,
          "velocity": 0.6377952755905512
        },
        {
          "duration": 0.16216199999999503,
          "durationTicks": 48,
          "midi": 70,
          "name": "A#4",
          "ticks": 13776,
          "time": 46.540494,
          "velocity": 0.4881889763779528
        },
        {
          "duration": 0.16216199999999503,
          "durationTicks": 48,
          "midi": 61,
          "name": "C#4",
          "ticks": 13776,
          "time": 46.540494,
          "velocity": 0.6377952755905512
        },
        {
          "duration": 0.16216200000000214,
          "durationTicks": 48,
          "midi": 72,
          "name": "C5",
          "ticks": 13824,
          "time": 46.702656,
          "velocity": 0.4881889763779528
        },
        {
          "duration": 0.16216200000000214,
          "durationTicks": 48,
          "midi": 63,
          "name": "D#4",
          "ticks": 13824,
          "time": 46.702656,
          "velocity": 0.6377952755905512
        },
        {
          "duration": 0.16216200000000214,
          "durationTicks": 48,
          "midi": 70,
          "name": "A#4",
          "ticks": 13872,
          "time": 46.864818,
          "velocity": 0.4881889763779528
        },
        {
          "duration": 0.16216200000000214,
          "durationTicks": 48,
          "midi": 61,
          "name": "C#4",
          "ticks": 13872,
          "time": 46.864818,
          "velocity": 0.6377952755905512
        },
        {
          "duration": 0.16216199999999503,
          "durationTicks": 48,
          "midi": 72,
          "name": "C5",
          "ticks": 13920,
          "time": 47.02698,
          "velocity": 0.4881889763779528
        },
        {
          "duration": 0.16216199999999503,
          "durationTicks": 48,
          "midi": 63,
          "name": "D#4",
          "ticks": 13920,
          "time": 47.02698,
          "velocity": 0.6377952755905512
        },
        {
          "duration": 0.16216200000000214,
          "durationTicks": 48,
          "midi": 70,
          "name": "A#4",
          "ticks": 13968,
          "time": 47.189142,
          "velocity": 0.4881889763779528
        },
        {
          "duration": 0.16216200000000214,
          "durationTicks": 48,
          "midi": 61,
          "name": "C#4",
          "ticks": 13968,
          "time": 47.189142,
          "velocity": 0.6377952755905512
        },
        {
          "duration": 0.16216200000000214,
          "durationTicks": 48,
          "midi": 72,
          "name": "C5",
          "ticks": 14016,
          "time": 47.351304,
          "velocity": 0.4881889763779528
        },
        {
          "duration": 0.16216200000000214,
          "durationTicks": 48,
          "midi": 63,
          "name": "D#4",
          "ticks": 14016,
          "time": 47.351304,
          "velocity": 0.6377952755905512
        },
        {
          "duration": 0.16216200000000214,
          "durationTicks": 48,
          "midi": 73,
          "name": "C#5",
          "ticks": 14064,
          "time": 47.513466,
          "velocity": 0.4881889763779528
        },
        {
          "duration": 0.16216200000000214,
          "durationTicks": 48,
          "midi": 65,
          "name": "F4",
          "ticks": 14064,
          "time": 47.513466,
          "velocity": 0.6377952755905512
        },
        {
          "duration": 0.3243240000000043,
          "durationTicks": 96,
          "midi": 73,
          "name": "C#5",
          "ticks": 14160,
          "time": 47.83779,
          "velocity": 0.4881889763779528
        },
        {
          "duration": 0.3243240000000043,
          "durationTicks": 96,
          "midi": 65,
          "name": "F4",
          "ticks": 14160,
          "time": 47.83779,
          "velocity": 0.6377952755905512
        },
        {
          "duration": 0.16216199999999503,
          "durationTicks": 48,
          "midi": 75,
          "name": "D#5",
          "ticks": 14256,
          "time": 48.162114,
          "velocity": 0.4881889763779528
        },
        {
          "duration": 0.16216199999999503,
          "durationTicks": 48,
          "midi": 66,
          "name": "F#4",
          "ticks": 14256,
          "time": 48.162114,
          "velocity": 0.6377952755905512
        },
        {
          "duration": 0.16216200000000214,
          "durationTicks": 48,
          "midi": 73,
          "name": "C#5",
          "ticks": 14304,
          "time": 48.324276,
          "velocity": 0.4881889763779528
        },
        {
          "duration": 0.16216200000000214,
          "durationTicks": 48,
          "midi": 65,
          "name": "F4",
          "ticks": 14304,
          "time": 48.324276,
          "velocity": 0.6377952755905512
        },
        {
          "duration": 0.16216200000000214,
          "durationTicks": 48,
          "midi": 75,
          "name": "D#5",
          "ticks": 14352,
          "time": 48.486438,
          "velocity": 0.4881889763779528
        },
        {
          "duration": 0.16216200000000214,
          "durationTicks": 48,
          "midi": 66,
          "name": "F#4",
          "ticks": 14352,
          "time": 48.486438,
          "velocity": 0.6377952755905512
        },
        {
          "duration": 0.32432399999999717,
          "durationTicks": 96,
          "midi": 73,
          "name": "C#5",
          "ticks": 14400,
          "time": 48.6486,
          "velocity": 0.4881889763779528
        },
        {
          "duration": 0.32432399999999717,
          "durationTicks": 96,
          "midi": 65,
          "name": "F4",
          "ticks": 14400,
          "time": 48.6486,
          "velocity": 0.6377952755905512
        },
        {
          "duration": 0.16216200000000214,
          "durationTicks": 48,
          "midi": 72,
          "name": "C5",
          "ticks": 14496,
          "time": 48.972924,
          "velocity": 0.4881889763779528
        },
        {
          "duration": 0.16216200000000214,
          "durationTicks": 48,
          "midi": 63,
          "name": "D#4",
          "ticks": 14496,
          "time": 48.972924,
          "velocity": 0.6377952755905512
        },
        {
          "duration": 0.16216200000000214,
          "durationTicks": 48,
          "midi": 70,
          "name": "A#4",
          "ticks": 14544,
          "time": 49.135086,
          "velocity": 0.4881889763779528
        },
        {
          "duration": 0.16216200000000214,
          "durationTicks": 48,
          "midi": 61,
          "name": "C#4",
          "ticks": 14544,
          "time": 49.135086,
          "velocity": 0.6377952755905512
        },
        {
          "duration": 0.32432399999999717,
          "durationTicks": 96,
          "midi": 77,
          "name": "F5",
          "ticks": 14592,
          "time": 49.297248,
          "velocity": 0.4881889763779528
        },
        {
          "duration": 0.32432399999999717,
          "durationTicks": 96,
          "midi": 68,
          "name": "G#4",
          "ticks": 14592,
          "time": 49.297248,
          "velocity": 0.6377952755905512
        },
        {
          "duration": 0.16216200000000214,
          "durationTicks": 48,
          "midi": 77,
          "name": "F5",
          "ticks": 14688,
          "time": 49.621572,
          "velocity": 0.4881889763779528
        },
        {
          "duration": 0.16216200000000214,
          "durationTicks": 48,
          "midi": 68,
          "name": "G#4",
          "ticks": 14688,
          "time": 49.621572,
          "velocity": 0.6377952755905512
        },
        {
          "duration": 0.16216199999999503,
          "durationTicks": 48,
          "midi": 78,
          "name": "F#5",
          "ticks": 14736,
          "time": 49.783734,
          "velocity": 0.4881889763779528
        },
        {
          "duration": 0.16216199999999503,
          "durationTicks": 48,
          "midi": 70,
          "name": "A#4",
          "ticks": 14736,
          "time": 49.783734,
          "velocity": 0.6377952755905512
        },
        {
          "duration": 0.3243240000000043,
          "durationTicks": 96,
          "midi": 77,
          "name": "F5",
          "ticks": 14784,
          "time": 49.945896,
          "velocity": 0.4881889763779528
        },
        {
          "duration": 0.3243240000000043,
          "durationTicks": 96,
          "midi": 68,
          "name": "G#4",
          "ticks": 14784,
          "time": 49.945896,
          "velocity": 0.6377952755905512
        },
        {
          "duration": 0.16216199999999503,
          "durationTicks": 48,
          "midi": 77,
          "name": "F5",
          "ticks": 14880,
          "time": 50.27022,
          "velocity": 0.4881889763779528
        },
        {
          "duration": 0.16216199999999503,
          "durationTicks": 48,
          "midi": 68,
          "name": "G#4",
          "ticks": 14880,
          "time": 50.27022,
          "velocity": 0.6377952755905512
        },
        {
          "duration": 0.16216200000000214,
          "durationTicks": 48,
          "midi": 78,
          "name": "F#5",
          "ticks": 14928,
          "time": 50.432382,
          "velocity": 0.4881889763779528
        },
        {
          "duration": 0.16216200000000214,
          "durationTicks": 48,
          "midi": 70,
          "name": "A#4",
          "ticks": 14928,
          "time": 50.432382,
          "velocity": 0.6377952755905512
        },
        {
          "duration": 0.3243240000000043,
          "durationTicks": 96,
          "midi": 77,
          "name": "F5",
          "ticks": 14976,
          "time": 50.594544,
          "velocity": 0.4881889763779528
        },
        {
          "duration": 0.3243240000000043,
          "durationTicks": 96,
          "midi": 68,
          "name": "G#4",
          "ticks": 14976,
          "time": 50.594544,
          "velocity": 0.6377952755905512
        },
        {
          "duration": 0.32432399999999717,
          "durationTicks": 96,
          "midi": 75,
          "name": "D#5",
          "ticks": 15072,
          "time": 50.918868,
          "velocity": 0.4881889763779528
        },
        {
          "duration": 0.32432399999999717,
          "durationTicks": 96,
          "midi": 66,
          "name": "F#4",
          "ticks": 15072,
          "time": 50.918868,
          "velocity": 0.6377952755905512
        },
        {
          "duration": 0.32432399999999717,
          "durationTicks": 96,
          "midi": 73,
          "name": "C#5",
          "ticks": 15168,
          "time": 51.243192,
          "velocity": 0.4881889763779528
        },
        {
          "duration": 0.32432399999999717,
          "durationTicks": 96,
          "midi": 65,
          "name": "F4",
          "ticks": 15168,
          "time": 51.243192,
          "velocity": 0.6377952755905512
        },
        {
          "duration": 0.16216200000000214,
          "durationTicks": 48,
          "midi": 72,
          "name": "C5",
          "ticks": 15264,
          "time": 51.567516,
          "velocity": 0.4881889763779528
        },
        {
          "duration": 0.16216200000000214,
          "durationTicks": 48,
          "midi": 63,
          "name": "D#4",
          "ticks": 15264,
          "time": 51.567516,
          "velocity": 0.6377952755905512
        },
        {
          "duration": 0.16216200000000214,
          "durationTicks": 48,
          "midi": 70,
          "name": "A#4",
          "ticks": 15312,
          "time": 51.729678,
          "velocity": 0.4881889763779528
        },
        {
          "duration": 0.16216200000000214,
          "durationTicks": 48,
          "midi": 61,
          "name": "C#4",
          "ticks": 15312,
          "time": 51.729678,
          "velocity": 0.6377952755905512
        },
        {
          "duration": 0.16216199999999503,
          "durationTicks": 48,
          "midi": 63,
          "name": "D#4",
          "ticks": 15360,
          "time": 51.89184,
          "velocity": 0.6377952755905512
        },
        {
          "duration": 0.16216199999999503,
          "durationTicks": 48,
          "midi": 72,
          "name": "C5",
          "ticks": 15360,
          "time": 51.89184,
          "velocity": 0.4881889763779528
        },
        {
          "duration": 0.16216200000000214,
          "durationTicks": 48,
          "midi": 61,
          "name": "C#4",
          "ticks": 15408,
          "time": 52.054002,
          "velocity": 0.6377952755905512
        },
        {
          "duration": 0.16216200000000214,
          "durationTicks": 48,
          "midi": 70,
          "name": "A#4",
          "ticks": 15408,
          "time": 52.054002,
          "velocity": 0.4881889763779528
        },
        {
          "duration": 0.16216200000000214,
          "durationTicks": 48,
          "midi": 72,
          "name": "C5",
          "ticks": 15456,
          "time": 52.216164,
          "velocity": 0.4881889763779528
        },
        {
          "duration": 0.16216200000000214,
          "durationTicks": 48,
          "midi": 63,
          "name": "D#4",
          "ticks": 15456,
          "time": 52.216164,
          "velocity": 0.6377952755905512
        },
        {
          "duration": 0.16216200000000214,
          "durationTicks": 48,
          "midi": 61,
          "name": "C#4",
          "ticks": 15504,
          "time": 52.378326,
          "velocity": 0.6377952755905512
        },
        {
          "duration": 0.16216200000000214,
          "durationTicks": 48,
          "midi": 70,
          "name": "A#4",
          "ticks": 15504,
          "time": 52.378326,
          "velocity": 0.4881889763779528
        },
        {
          "duration": 0.16216199999999503,
          "durationTicks": 48,
          "midi": 72,
          "name": "C5",
          "ticks": 15552,
          "time": 52.540488,
          "velocity": 0.4881889763779528
        },
        {
          "duration": 0.16216199999999503,
          "durationTicks": 48,
          "midi": 63,
          "name": "D#4",
          "ticks": 15552,
          "time": 52.540488,
          "velocity": 0.6377952755905512
        },
        {
          "duration": 0.16216200000000214,
          "durationTicks": 48,
          "midi": 82,
          "name": "A#5",
          "ticks": 15600,
          "time": 52.70265,
          "velocity": 0.4881889763779528
        },
        {
          "duration": 0.16216200000000214,
          "durationTicks": 48,
          "midi": 73,
          "name": "C#5",
          "ticks": 15600,
          "time": 52.70265,
          "velocity": 0.4881889763779528
        },
        {
          "duration": 0.32432399999999717,
          "durationTicks": 96,
          "midi": 78,
          "name": "F#5",
          "ticks": 15696,
          "time": 53.026974,
          "velocity": 0.4881889763779528
        },
        {
          "duration": 0.32432399999999717,
          "durationTicks": 96,
          "midi": 70,
          "name": "A#4",
          "ticks": 15696,
          "time": 53.026974,
          "velocity": 0.6377952755905512
        },
        {
          "duration": 0.16216200000000214,
          "durationTicks": 48,
          "midi": 78,
          "name": "F#5",
          "ticks": 15792,
          "time": 53.351298,
          "velocity": 0.4881889763779528
        },
        {
          "duration": 0.16216200000000214,
          "durationTicks": 48,
          "midi": 70,
          "name": "A#4",
          "ticks": 15792,
          "time": 53.351298,
          "velocity": 0.6377952755905512
        },
        {
          "duration": 0.16216199999999503,
          "durationTicks": 48,
          "midi": 77,
          "name": "F5",
          "ticks": 15840,
          "time": 53.51346,
          "velocity": 0.4881889763779528
        },
        {
          "duration": 0.16216199999999503,
          "durationTicks": 48,
          "midi": 68,
          "name": "G#4",
          "ticks": 15840,
          "time": 53.51346,
          "velocity": 0.6377952755905512
        },
        {
          "duration": 0.16216200000000214,
          "durationTicks": 48,
          "midi": 75,
          "name": "D#5",
          "ticks": 15888,
          "time": 53.675622,
          "velocity": 0.4881889763779528
        },
        {
          "duration": 0.16216200000000214,
          "durationTicks": 48,
          "midi": 66,
          "name": "F#4",
          "ticks": 15888,
          "time": 53.675622,
          "velocity": 0.6377952755905512
        },
        {
          "duration": 0.16216200000000214,
          "durationTicks": 48,
          "midi": 73,
          "name": "C#5",
          "ticks": 15936,
          "time": 53.837784,
          "velocity": 0.4881889763779528
        },
        {
          "duration": 0.16216200000000214,
          "durationTicks": 48,
          "midi": 65,
          "name": "F4",
          "ticks": 15936,
          "time": 53.837784,
          "velocity": 0.6377952755905512
        },
        {
          "duration": 0.16216200000000214,
          "durationTicks": 48,
          "midi": 75,
          "name": "D#5",
          "ticks": 15984,
          "time": 53.999946,
          "velocity": 0.4881889763779528
        },
        {
          "duration": 0.16216200000000214,
          "durationTicks": 48,
          "midi": 66,
          "name": "F#4",
          "ticks": 15984,
          "time": 53.999946,
          "velocity": 0.6377952755905512
        },
        {
          "duration": 0.32432399999999717,
          "durationTicks": 96,
          "midi": 73,
          "name": "C#5",
          "ticks": 16032,
          "time": 54.162108,
          "velocity": 0.4881889763779528
        },
        {
          "duration": 0.32432399999999717,
          "durationTicks": 96,
          "midi": 65,
          "name": "F4",
          "ticks": 16032,
          "time": 54.162108,
          "velocity": 0.6377952755905512
        },
        {
          "duration": 0.3243240000000043,
          "durationTicks": 96,
          "midi": 69,
          "name": "A4",
          "ticks": 35328,
          "time": 119.351232,
          "velocity": 0.6377952755905512
        },
        {
          "duration": 0.3243240000000043,
          "durationTicks": 96,
          "midi": 78,
          "name": "F#5",
          "ticks": 35328,
          "time": 119.351232,
          "velocity": 0.4881889763779528
        },
        {
          "duration": 0.16216199999999503,
          "durationTicks": 48,
          "midi": 78,
          "name": "F#5",
          "ticks": 35424,
          "time": 119.675556,
          "velocity": 0.4881889763779528
        },
        {
          "duration": 0.16216199999999503,
          "durationTicks": 48,
          "midi": 69,
          "name": "A4",
          "ticks": 35424,
          "time": 119.675556,
          "velocity": 0.6377952755905512
        },
        {
          "duration": 0.16216200000000924,
          "durationTicks": 48,
          "midi": 79,
          "name": "G5",
          "ticks": 35472,
          "time": 119.837718,
          "velocity": 0.4881889763779528
        },
        {
          "duration": 0.16216200000000924,
          "durationTicks": 48,
          "midi": 71,
          "name": "B4",
          "ticks": 35472,
          "time": 119.837718,
          "velocity": 0.6377952755905512
        },
        {
          "duration": 0.32432399999999006,
          "durationTicks": 96,
          "midi": 78,
          "name": "F#5",
          "ticks": 35520,
          "time": 119.99988,
          "velocity": 0.4881889763779528
        },
        {
          "duration": 0.32432399999999006,
          "durationTicks": 96,
          "midi": 69,
          "name": "A4",
          "ticks": 35520,
          "time": 119.99988,
          "velocity": 0.6377952755905512
        },
        {
          "duration": 0.16216200000000924,
          "durationTicks": 48,
          "midi": 69,
          "name": "A4",
          "ticks": 35616,
          "time": 120.324204,
          "velocity": 0.6377952755905512
        },
        {
          "duration": 0.16216200000000924,
          "durationTicks": 48,
          "midi": 78,
          "name": "F#5",
          "ticks": 35616,
          "time": 120.324204,
          "velocity": 0.4881889763779528
        },
        {
          "duration": 0.16216199999999503,
          "durationTicks": 48,
          "midi": 79,
          "name": "G5",
          "ticks": 35664,
          "time": 120.486366,
          "velocity": 0.4881889763779528
        },
        {
          "duration": 0.16216199999999503,
          "durationTicks": 48,
          "midi": 71,
          "name": "B4",
          "ticks": 35664,
          "time": 120.486366,
          "velocity": 0.6377952755905512
        },
        {
          "duration": 0.3243240000000043,
          "durationTicks": 96,
          "midi": 69,
          "name": "A4",
          "ticks": 35712,
          "time": 120.648528,
          "velocity": 0.6377952755905512
        },
        {
          "duration": 0.3243240000000043,
          "durationTicks": 96,
          "midi": 78,
          "name": "F#5",
          "ticks": 35712,
          "time": 120.648528,
          "velocity": 0.4881889763779528
        },
        {
          "duration": 0.3243240000000043,
          "durationTicks": 96,
          "midi": 67,
          "name": "G4",
          "ticks": 35808,
          "time": 120.972852,
          "velocity": 0.6377952755905512
        },
        {
          "duration": 0.3243240000000043,
          "durationTicks": 96,
          "midi": 76,
          "name": "E5",
          "ticks": 35808,
          "time": 120.972852,
          "velocity": 0.4881889763779528
        },
        {
          "duration": 0.32432399999999006,
          "durationTicks": 96,
          "midi": 66,
          "name": "F#4",
          "ticks": 35904,
          "time": 121.29717600000001,
          "velocity": 0.6377952755905512
        },
        {
          "duration": 0.32432399999999006,
          "durationTicks": 96,
          "midi": 74,
          "name": "D5",
          "ticks": 35904,
          "time": 121.29717600000001,
          "velocity": 0.4881889763779528
        },
        {
          "duration": 0.16216200000000924,
          "durationTicks": 48,
          "midi": 73,
          "name": "C#5",
          "ticks": 36000,
          "time": 121.6215,
          "velocity": 0.4881889763779528
        },
        {
          "duration": 0.16216200000000924,
          "durationTicks": 48,
          "midi": 64,
          "name": "E4",
          "ticks": 36000,
          "time": 121.6215,
          "velocity": 0.6377952755905512
        },
        {
          "duration": 0.16216199999999503,
          "durationTicks": 48,
          "midi": 62,
          "name": "D4",
          "ticks": 36048,
          "time": 121.783662,
          "velocity": 0.6377952755905512
        },
        {
          "duration": 0.16216199999999503,
          "durationTicks": 48,
          "midi": 71,
          "name": "B4",
          "ticks": 36048,
          "time": 121.783662,
          "velocity": 0.4881889763779528
        },
        {
          "duration": 0.16216199999999503,
          "durationTicks": 48,
          "midi": 64,
          "name": "E4",
          "ticks": 36096,
          "time": 121.945824,
          "velocity": 0.6377952755905512
        },
        {
          "duration": 0.16216199999999503,
          "durationTicks": 48,
          "midi": 73,
          "name": "C#5",
          "ticks": 36096,
          "time": 121.945824,
          "velocity": 0.4881889763779528
        },
        {
          "duration": 0.16216200000000924,
          "durationTicks": 48,
          "midi": 71,
          "name": "B4",
          "ticks": 36144,
          "time": 122.107986,
          "velocity": 0.4881889763779528
        },
        {
          "duration": 0.16216200000000924,
          "durationTicks": 48,
          "midi": 62,
          "name": "D4",
          "ticks": 36144,
          "time": 122.107986,
          "velocity": 0.6377952755905512
        },
        {
          "duration": 0.16216199999999503,
          "durationTicks": 48,
          "midi": 73,
          "name": "C#5",
          "ticks": 36192,
          "time": 122.270148,
          "velocity": 0.4881889763779528
        },
        {
          "duration": 0.16216199999999503,
          "durationTicks": 48,
          "midi": 64,
          "name": "E4",
          "ticks": 36192,
          "time": 122.270148,
          "velocity": 0.6377952755905512
        },
        {
          "duration": 0.16216199999999503,
          "durationTicks": 48,
          "midi": 71,
          "name": "B4",
          "ticks": 36240,
          "time": 122.43231,
          "velocity": 0.4881889763779528
        },
        {
          "duration": 0.16216199999999503,
          "durationTicks": 48,
          "midi": 62,
          "name": "D4",
          "ticks": 36240,
          "time": 122.43231,
          "velocity": 0.6377952755905512
        },
        {
          "duration": 0.16216200000000924,
          "durationTicks": 48,
          "midi": 73,
          "name": "C#5",
          "ticks": 36288,
          "time": 122.594472,
          "velocity": 0.4881889763779528
        },
        {
          "duration": 0.16216200000000924,
          "durationTicks": 48,
          "midi": 64,
          "name": "E4",
          "ticks": 36288,
          "time": 122.594472,
          "velocity": 0.6377952755905512
        },
        {
          "duration": 0.16216199999999503,
          "durationTicks": 48,
          "midi": 74,
          "name": "D5",
          "ticks": 36336,
          "time": 122.756634,
          "velocity": 0.4881889763779528
        },
        {
          "duration": 0.16216199999999503,
          "durationTicks": 48,
          "midi": 66,
          "name": "F#4",
          "ticks": 36336,
          "time": 122.756634,
          "velocity": 0.6377952755905512
        },
        {
          "duration": 0.3243240000000043,
          "durationTicks": 96,
          "midi": 66,
          "name": "F#4",
          "ticks": 36432,
          "time": 123.080958,
          "velocity": 0.6377952755905512
        },
        {
          "duration": 0.3243240000000043,
          "durationTicks": 96,
          "midi": 74,
          "name": "D5",
          "ticks": 36432,
          "time": 123.080958,
          "velocity": 0.4881889763779528
        },
        {
          "duration": 0.16216199999999503,
          "durationTicks": 48,
          "midi": 67,
          "name": "G4",
          "ticks": 36528,
          "time": 123.405282,
          "velocity": 0.6377952755905512
        },
        {
          "duration": 0.16216199999999503,
          "durationTicks": 48,
          "midi": 76,
          "name": "E5",
          "ticks": 36528,
          "time": 123.405282,
          "velocity": 0.4881889763779528
        },
        {
          "duration": 0.16216200000000924,
          "durationTicks": 48,
          "midi": 66,
          "name": "F#4",
          "ticks": 36576,
          "time": 123.567444,
          "velocity": 0.6377952755905512
        },
        {
          "duration": 0.16216200000000924,
          "durationTicks": 48,
          "midi": 74,
          "name": "D5",
          "ticks": 36576,
          "time": 123.567444,
          "velocity": 0.4881889763779528
        },
        {
          "duration": 0.16216199999999503,
          "durationTicks": 48,
          "midi": 76,
          "name": "E5",
          "ticks": 36624,
          "time": 123.729606,
          "velocity": 0.4881889763779528
        },
        {
          "duration": 0.16216199999999503,
          "durationTicks": 48,
          "midi": 67,
          "name": "G4",
          "ticks": 36624,
          "time": 123.729606,
          "velocity": 0.6377952755905512
        },
        {
          "duration": 0.3243240000000043,
          "durationTicks": 96,
          "midi": 74,
          "name": "D5",
          "ticks": 36672,
          "time": 123.891768,
          "velocity": 0.4881889763779528
        },
        {
          "duration": 0.3243240000000043,
          "durationTicks": 96,
          "midi": 66,
          "name": "F#4",
          "ticks": 36672,
          "time": 123.891768,
          "velocity": 0.6377952755905512
        },
        {
          "duration": 0.16216199999999503,
          "durationTicks": 48,
          "midi": 73,
          "name": "C#5",
          "ticks": 36768,
          "time": 124.216092,
          "velocity": 0.4881889763779528
        },
        {
          "duration": 0.16216199999999503,
          "durationTicks": 48,
          "midi": 64,
          "name": "E4",
          "ticks": 36768,
          "time": 124.216092,
          "velocity": 0.6377952755905512
        },
        {
          "duration": 0.16216199999999503,
          "durationTicks": 48,
          "midi": 71,
          "name": "B4",
          "ticks": 36816,
          "time": 124.378254,
          "velocity": 0.4881889763779528
        },
        {
          "duration": 0.16216199999999503,
          "durationTicks": 48,
          "midi": 62,
          "name": "D4",
          "ticks": 36816,
          "time": 124.378254,
          "velocity": 0.6377952755905512
        },
        {
          "duration": 0.3243240000000043,
          "durationTicks": 96,
          "midi": 69,
          "name": "A4",
          "ticks": 36864,
          "time": 124.540416,
          "velocity": 0.6377952755905512
        },
        {
          "duration": 0.3243240000000043,
          "durationTicks": 96,
          "midi": 78,
          "name": "F#5",
          "ticks": 36864,
          "time": 124.540416,
          "velocity": 0.4881889763779528
        },
        {
          "duration": 0.16216200000000924,
          "durationTicks": 48,
          "midi": 78,
          "name": "F#5",
          "ticks": 36960,
          "time": 124.86474,
          "velocity": 0.4881889763779528
        },
        {
          "duration": 0.16216200000000924,
          "durationTicks": 48,
          "midi": 69,
          "name": "A4",
          "ticks": 36960,
          "time": 124.86474,
          "velocity": 0.6377952755905512
        },
        {
          "duration": 0.16216199999999503,
          "durationTicks": 48,
          "midi": 79,
          "name": "G5",
          "ticks": 37008,
          "time": 125.026902,
          "velocity": 0.4881889763779528
        },
        {
          "duration": 0.16216199999999503,
          "durationTicks": 48,
          "midi": 71,
          "name": "B4",
          "ticks": 37008,
          "time": 125.026902,
          "velocity": 0.6377952755905512
        },
        {
          "duration": 0.3243240000000043,
          "durationTicks": 96,
          "midi": 69,
          "name": "A4",
          "ticks": 37056,
          "time": 125.189064,
          "velocity": 0.6377952755905512
        },
        {
          "duration": 0.3243240000000043,
          "durationTicks": 96,
          "midi": 78,
          "name": "F#5",
          "ticks": 37056,
          "time": 125.189064,
          "velocity": 0.4881889763779528
        },
        {
          "duration": 0.16216199999999503,
          "durationTicks": 48,
          "midi": 69,
          "name": "A4",
          "ticks": 37152,
          "time": 125.513388,
          "velocity": 0.6377952755905512
        },
        {
          "duration": 0.16216199999999503,
          "durationTicks": 48,
          "midi": 78,
          "name": "F#5",
          "ticks": 37152,
          "time": 125.513388,
          "velocity": 0.4881889763779528
        },
        {
          "duration": 0.16216199999999503,
          "durationTicks": 48,
          "midi": 71,
          "name": "B4",
          "ticks": 37200,
          "time": 125.67555,
          "velocity": 0.6377952755905512
        },
        {
          "duration": 0.16216199999999503,
          "durationTicks": 48,
          "midi": 79,
          "name": "G5",
          "ticks": 37200,
          "time": 125.67555,
          "velocity": 0.4881889763779528
        },
        {
          "duration": 0.3243240000000043,
          "durationTicks": 96,
          "midi": 78,
          "name": "F#5",
          "ticks": 37248,
          "time": 125.837712,
          "velocity": 0.4881889763779528
        },
        {
          "duration": 0.3243240000000043,
          "durationTicks": 96,
          "midi": 69,
          "name": "A4",
          "ticks": 37248,
          "time": 125.837712,
          "velocity": 0.6377952755905512
        },
        {
          "duration": 0.3243240000000043,
          "durationTicks": 96,
          "midi": 76,
          "name": "E5",
          "ticks": 37344,
          "time": 126.162036,
          "velocity": 0.4881889763779528
        },
        {
          "duration": 0.3243240000000043,
          "durationTicks": 96,
          "midi": 67,
          "name": "G4",
          "ticks": 37344,
          "time": 126.162036,
          "velocity": 0.6377952755905512
        },
        {
          "duration": 0.32432399999999006,
          "durationTicks": 96,
          "midi": 74,
          "name": "D5",
          "ticks": 37440,
          "time": 126.48636,
          "velocity": 0.4881889763779528
        },
        {
          "duration": 0.32432399999999006,
          "durationTicks": 96,
          "midi": 66,
          "name": "F#4",
          "ticks": 37440,
          "time": 126.48636,
          "velocity": 0.6377952755905512
        },
        {
          "duration": 0.16216200000000924,
          "durationTicks": 48,
          "midi": 64,
          "name": "E4",
          "ticks": 37536,
          "time": 126.810684,
          "velocity": 0.6377952755905512
        },
        {
          "duration": 0.16216200000000924,
          "durationTicks": 48,
          "midi": 73,
          "name": "C#5",
          "ticks": 37536,
          "time": 126.810684,
          "velocity": 0.4881889763779528
        },
        {
          "duration": 0.16216199999999503,
          "durationTicks": 48,
          "midi": 62,
          "name": "D4",
          "ticks": 37584,
          "time": 126.972846,
          "velocity": 0.6377952755905512
        },
        {
          "duration": 0.16216199999999503,
          "durationTicks": 48,
          "midi": 71,
          "name": "B4",
          "ticks": 37584,
          "time": 126.972846,
          "velocity": 0.4881889763779528
        },
        {
          "duration": 0.16216199999999503,
          "durationTicks": 48,
          "midi": 73,
          "name": "C#5",
          "ticks": 37632,
          "time": 127.135008,
          "velocity": 0.4881889763779528
        },
        {
          "duration": 0.16216199999999503,
          "durationTicks": 48,
          "midi": 64,
          "name": "E4",
          "ticks": 37632,
          "time": 127.135008,
          "velocity": 0.6377952755905512
        },
        {
          "duration": 0.16216200000000924,
          "durationTicks": 48,
          "midi": 71,
          "name": "B4",
          "ticks": 37680,
          "time": 127.29717,
          "velocity": 0.4881889763779528
        },
        {
          "duration": 0.16216200000000924,
          "durationTicks": 48,
          "midi": 62,
          "name": "D4",
          "ticks": 37680,
          "time": 127.29717,
          "velocity": 0.6377952755905512
        },
        {
          "duration": 0.16216199999999503,
          "durationTicks": 48,
          "midi": 73,
          "name": "C#5",
          "ticks": 37728,
          "time": 127.459332,
          "velocity": 0.4881889763779528
        },
        {
          "duration": 0.16216199999999503,
          "durationTicks": 48,
          "midi": 64,
          "name": "E4",
          "ticks": 37728,
          "time": 127.459332,
          "velocity": 0.6377952755905512
        },
        {
          "duration": 0.16216199999999503,
          "durationTicks": 48,
          "midi": 71,
          "name": "B4",
          "ticks": 37776,
          "time": 127.621494,
          "velocity": 0.4881889763779528
        },
        {
          "duration": 0.16216199999999503,
          "durationTicks": 48,
          "midi": 62,
          "name": "D4",
          "ticks": 37776,
          "time": 127.621494,
          "velocity": 0.6377952755905512
        },
        {
          "duration": 0.16216200000000924,
          "durationTicks": 48,
          "midi": 64,
          "name": "E4",
          "ticks": 37824,
          "time": 127.783656,
          "velocity": 0.6377952755905512
        },
        {
          "duration": 0.16216200000000924,
          "durationTicks": 48,
          "midi": 73,
          "name": "C#5",
          "ticks": 37824,
          "time": 127.783656,
          "velocity": 0.4881889763779528
        },
        {
          "duration": 0.16216199999999503,
          "durationTicks": 48,
          "midi": 83,
          "name": "B5",
          "ticks": 37872,
          "time": 127.945818,
          "velocity": 0.4881889763779528
        },
        {
          "duration": 0.16216199999999503,
          "durationTicks": 48,
          "midi": 74,
          "name": "D5",
          "ticks": 37872,
          "time": 127.945818,
          "velocity": 0.4881889763779528
        },
        {
          "duration": 0.3243240000000185,
          "durationTicks": 96,
          "midi": 71,
          "name": "B4",
          "ticks": 37968,
          "time": 128.270142,
          "velocity": 0.6377952755905512
        },
        {
          "duration": 0.3243240000000185,
          "durationTicks": 96,
          "midi": 79,
          "name": "G5",
          "ticks": 37968,
          "time": 128.270142,
          "velocity": 0.4881889763779528
        },
        {
          "duration": 0.16216199999999503,
          "durationTicks": 48,
          "midi": 79,
          "name": "G5",
          "ticks": 38064,
          "time": 128.594466,
          "velocity": 0.4881889763779528
        },
        {
          "duration": 0.16216199999999503,
          "durationTicks": 48,
          "midi": 71,
          "name": "B4",
          "ticks": 38064,
          "time": 128.594466,
          "velocity": 0.6377952755905512
        },
        {
          "duration": 0.16216199999999503,
          "durationTicks": 48,
          "midi": 69,
          "name": "A4",
          "ticks": 38112,
          "time": 128.756628,
          "velocity": 0.6377952755905512
        },
        {
          "duration": 0.16216199999999503,
          "durationTicks": 48,
          "midi": 78,
          "name": "F#5",
          "ticks": 38112,
          "time": 128.756628,
          "velocity": 0.4881889763779528
        },
        {
          "duration": 0.16216199999999503,
          "durationTicks": 48,
          "midi": 76,
          "name": "E5",
          "ticks": 38160,
          "time": 128.91879,
          "velocity": 0.4881889763779528
        },
        {
          "duration": 0.16216199999999503,
          "durationTicks": 48,
          "midi": 67,
          "name": "G4",
          "ticks": 38160,
          "time": 128.91879,
          "velocity": 0.6377952755905512
        },
        {
          "duration": 0.16216199999999503,
          "durationTicks": 48,
          "midi": 74,
          "name": "D5",
          "ticks": 38208,
          "time": 129.080952,
          "velocity": 0.4881889763779528
        },
        {
          "duration": 0.16216199999999503,
          "durationTicks": 48,
          "midi": 66,
          "name": "F#4",
          "ticks": 38208,
          "time": 129.080952,
          "velocity": 0.6377952755905512
        },
        {
          "duration": 0.16216199999999503,
          "durationTicks": 48,
          "midi": 76,
          "name": "E5",
          "ticks": 38256,
          "time": 129.243114,
          "velocity": 0.4881889763779528
        },
        {
          "duration": 0.16216199999999503,
          "durationTicks": 48,
          "midi": 67,
          "name": "G4",
          "ticks": 38256,
          "time": 129.243114,
          "velocity": 0.6377952755905512
        },
        {
          "duration": 0.3243240000000185,
          "durationTicks": 96,
          "midi": 74,
          "name": "D5",
          "ticks": 38304,
          "time": 129.405276,
          "velocity": 0.4881889763779528
        },
        {
          "duration": 0.3243240000000185,
          "durationTicks": 96,
          "midi": 66,
          "name": "F#4",
          "ticks": 38304,
          "time": 129.405276,
          "velocity": 0.6377952755905512
        }
      ],
      "endOfTrackTicks": 46086
    },
    {
      "channel": 8,
      "controlChanges": {
        "6": [
          {
            "number": 6,
            "ticks": 0,
            "time": 0,
            "value": 0.09448818897637795
          },
          {
            "number": 6,
            "ticks": 0,
            "time": 0,
            "value": 0.09448818897637795
          },
          {
            "number": 6,
            "ticks": 0,
            "time": 0,
            "value": 0.09448818897637795
          },
          {
            "number": 6,
            "ticks": 46084,
            "time": 155.6890335,
            "value": 0.09448818897637795
          },
          {
            "number": 6,
            "ticks": 46086,
            "time": 155.69579025,
            "value": 0.09448818897637795
          }
        ],
        "7": [
          {
            "number": 7,
            "ticks": 0,
            "time": 0,
            "value": 0.7874015748031497
          },
          {
            "number": 7,
            "ticks": 0,
            "time": 0,
            "value": 0.7874015748031497
          },
          {
            "number": 7,
            "ticks": 0,
            "time": 0,
            "value": 0.7874015748031497
          },
          {
            "number": 7,
            "ticks": 0,
            "time": 0,
            "value": 0.7874015748031497
          },
          {
            "number": 7,
            "ticks": 46084,
            "time": 155.6890335,
            "value": 0.7874015748031497
          },
          {
            "number": 7,
            "ticks": 46086,
            "time": 155.69579025,
            "value": 0.7874015748031497
          }
        ],
        "10": [
          {
            "number": 10,
            "ticks": 0,
            "time": 0,
            "value": 0.5039370078740157
          },
          {
            "number": 10,
            "ticks": 0,
            "time": 0,
            "value": 0.5039370078740157
          },
          {
            "number": 10,
            "ticks": 0,
            "time": 0,
            "value": 0.5039370078740157
          },
          {
            "number": 10,
            "ticks": 0,
            "time": 0,
            "value": 0.5039370078740157
          },
          {
            "number": 10,
            "ticks": 46084,
            "time": 155.6890335,
            "value": 0.5039370078740157
          },
          {
            "number": 10,
            "ticks": 46086,
            "time": 155.69579025,
            "value": 0.5039370078740157
          }
        ],
        "100": [
          {
            "number": 100,
            "ticks": 0,
            "time": 0,
            "value": 0
          },
          {
            "number": 100,
            "ticks": 0,
            "time": 0,
            "value": 0
          },
          {
            "number": 100,
            "ticks": 0,
            "time": 0,
            "value": 0
          },
          {
            "number": 100,
            "ticks": 46084,
            "time": 155.6890335,
            "value": 0
          },
          {
            "number": 100,
            "ticks": 46086,
            "time": 155.69579025,
            "value": 0
          }
        ],
        "101": [
          {
            "number": 101,
            "ticks": 0,
            "time": 0,
            "value": 0
          },
          {
            "number": 101,
            "ticks": 0,
            "time": 0,
            "value": 0
          },
          {
            "number": 101,
            "ticks": 0,
            "time": 0,
            "value": 0
          },
          {
            "number": 101,
            "ticks": 46084,
            "time": 155.6890335,
            "value": 0
          },
          {
            "number": 101,
            "ticks": 46086,
            "time": 155.69579025,
            "value": 0
          }
        ]
      },
      "pitchBends": [
        {
          "ticks": 0,
          "time": 0,
          "value": 0
        },
        {
          "ticks": 0,
          "time": 0,
          "value": 0
        },
        {
          "ticks": 0,
          "time": 0,
          "value": 0
        },
        {
          "ticks": 0,
          "time": 0,
          "value": 0
        },
        {
          "ticks": 46084,
          "time": 155.6890335,
          "value": 0
        },
        {
          "ticks": 46086,
          "time": 155.69579025,
          "value": 0
        }
      ],
      "instrument": {
        "family": "piano",
        "number": 0,
        "name": "acoustic grand piano"
      },
      "name": "T",
      "notes": [
        {
          "duration": 0.16216200000000214,
          "durationTicks": 48,
          "midi": 73,
          "name": "C#5",
          "ticks": 6768,
          "time": 22.864842,
          "velocity": 0.8267716535433071
        },
        {
          "duration": 0.16216199999999859,
          "durationTicks": 48,
          "midi": 75,
          "name": "D#5",
          "ticks": 6816,
          "time": 23.027004,
          "velocity": 0.8267716535433071
        },
        {
          "duration": 0.16216199999999859,
          "durationTicks": 48,
          "midi": 77,
          "name": "F5",
          "ticks": 6864,
          "time": 23.189166,
          "velocity": 0.8267716535433071
        },
        {
          "duration": 0.08108100000000107,
          "durationTicks": 24,
          "midi": 82,
          "name": "A#5",
          "ticks": 6912,
          "time": 23.351328,
          "velocity": 0.8267716535433071
        },
        {
          "duration": 0.08108100000000107,
          "durationTicks": 24,
          "midi": 82,
          "name": "A#5",
          "ticks": 6936,
          "time": 23.432409,
          "velocity": 0.8267716535433071
        },
        {
          "duration": 0.08108099999999752,
          "durationTicks": 24,
          "midi": 77,
          "name": "F5",
          "ticks": 6960,
          "time": 23.51349,
          "velocity": 0.8267716535433071
        },
        {
          "duration": 0.08108100000000107,
          "durationTicks": 24,
          "midi": 77,
          "name": "F5",
          "ticks": 6984,
          "time": 23.594571,
          "velocity": 0.8267716535433071
        },
        {
          "duration": 0.08108100000000107,
          "durationTicks": 24,
          "midi": 77,
          "name": "F5",
          "ticks": 7008,
          "time": 23.675652,
          "velocity": 0.8267716535433071
        },
        {
          "duration": 0.08108100000000107,
          "durationTicks": 24,
          "midi": 77,
          "name": "F5",
          "ticks": 7032,
          "time": 23.756733,
          "velocity": 0.8267716535433071
        },
        {
          "duration": 0.08108099999999752,
          "durationTicks": 24,
          "midi": 77,
          "name": "F5",
          "ticks": 7056,
          "time": 23.837814,
          "velocity": 0.8267716535433071
        },
        {
          "duration": 0.08108100000000107,
          "durationTicks": 24,
          "midi": 77,
          "name": "F5",
          "ticks": 7080,
          "time": 23.918895,
          "velocity": 0.8267716535433071
        },
        {
          "duration": 0.08108100000000107,
          "durationTicks": 24,
          "midi": 77,
          "name": "F5",
          "ticks": 7104,
          "time": 23.999976,
          "velocity": 0.8267716535433071
        },
        {
          "duration": 0.08108099999999752,
          "durationTicks": 24,
          "midi": 78,
          "name": "F#5",
          "ticks": 7128,
          "time": 24.081057,
          "velocity": 0.8267716535433071
        },
        {
          "duration": 0.08108100000000107,
          "durationTicks": 24,
          "midi": 77,
          "name": "F5",
          "ticks": 7152,
          "time": 24.162138,
          "velocity": 0.8267716535433071
        },
        {
          "duration": 0.08108100000000107,
          "durationTicks": 24,
          "midi": 75,
          "name": "D#5",
          "ticks": 7176,
          "time": 24.243219,
          "velocity": 0.8267716535433071
        },
        {
          "duration": 0.08108099999999752,
          "durationTicks": 24,
          "midi": 75,
          "name": "D#5",
          "ticks": 7200,
          "time": 24.3243,
          "velocity": 0.8267716535433071
        },
        {
          "duration": 0.08108100000000107,
          "durationTicks": 24,
          "midi": 77,
          "name": "F5",
          "ticks": 7224,
          "time": 24.405381,
          "velocity": 0.8267716535433071
        },
        {
          "duration": 0.08108100000000107,
          "durationTicks": 24,
          "midi": 75,
          "name": "D#5",
          "ticks": 7248,
          "time": 24.486462,
          "velocity": 0.8267716535433071
        },
        {
          "duration": 0.08108100000000107,
          "durationTicks": 24,
          "midi": 73,
          "name": "C#5",
          "ticks": 7272,
          "time": 24.567543,
          "velocity": 0.8267716535433071
        },
        {
          "duration": 0.16216199999999859,
          "durationTicks": 48,
          "midi": 75,
          "name": "D#5",
          "ticks": 7296,
          "time": 24.648624,
          "velocity": 0.8267716535433071
        },
        {
          "duration": 0.16216199999999859,
          "durationTicks": 48,
          "midi": 77,
          "name": "F5",
          "ticks": 7344,
          "time": 24.810786,
          "velocity": 0.8267716535433071
        },
        {
          "duration": 0.16216200000000214,
          "durationTicks": 48,
          "midi": 75,
          "name": "D#5",
          "ticks": 7392,
          "time": 24.972948,
          "velocity": 0.8267716535433071
        },
        {
          "duration": 0.3243240000000007,
          "durationTicks": 96,
          "midi": 73,
          "name": "C#5",
          "ticks": 7440,
          "time": 25.13511,
          "velocity": 0.8267716535433071
        },
        {
          "duration": 0.16216199999999859,
          "durationTicks": 48,
          "midi": 73,
          "name": "C#5",
          "ticks": 7536,
          "time": 25.459434,
          "velocity": 0.8267716535433071
        },
        {
          "duration": 0.16216199999999859,
          "durationTicks": 48,
          "midi": 75,
          "name": "D#5",
          "ticks": 7584,
          "time": 25.621596,
          "velocity": 0.8267716535433071
        },
        {
          "duration": 0.16216200000000214,
          "durationTicks": 48,
          "midi": 77,
          "name": "F5",
          "ticks": 7632,
          "time": 25.783758,
          "velocity": 0.8267716535433071
        },
        {
          "duration": 0.16216199999999859,
          "durationTicks": 48,
          "midi": 82,
          "name": "A#5",
          "ticks": 7680,
          "time": 25.94592,
          "velocity": 0.8267716535433071
        },
        {
          "duration": 0.08108100000000107,
          "durationTicks": 24,
          "midi": 77,
          "name": "F5",
          "ticks": 7728,
          "time": 26.108082,
          "velocity": 0.8267716535433071
        },
        {
          "duration": 0.08108100000000107,
          "durationTicks": 24,
          "midi": 77,
          "name": "F5",
          "ticks": 7752,
          "time": 26.189163,
          "velocity": 0.8267716535433071
        },
        {
          "duration": 0.08108099999999752,
          "durationTicks": 24,
          "midi": 77,
          "name": "F5",
          "ticks": 7776,
          "time": 26.270244,
          "velocity": 0.8267716535433071
        },
        {
          "duration": 0.08108100000000107,
          "durationTicks": 24,
          "midi": 77,
          "name": "F5",
          "ticks": 7800,
          "time": 26.351325,
          "velocity": 0.8267716535433071
        },
        {
          "duration": 0.08108100000000107,
          "durationTicks": 24,
          "midi": 77,
          "name": "F5",
          "ticks": 7824,
          "time": 26.432406,
          "velocity": 0.8267716535433071
        },
        {
          "duration": 0.08108099999999752,
          "durationTicks": 24,
          "midi": 77,
          "name": "F5",
          "ticks": 7848,
          "time": 26.513487,
          "velocity": 0.8267716535433071
        },
        {
          "duration": 0.08108100000000107,
          "durationTicks": 24,
          "midi": 77,
          "name": "F5",
          "ticks": 7872,
          "time": 26.594568,
          "velocity": 0.8267716535433071
        },
        {
          "duration": 0.08108100000000107,
          "durationTicks": 24,
          "midi": 80,
          "name": "G#5",
          "ticks": 7896,
          "time": 26.675649,
          "velocity": 0.8267716535433071
        },
        {
          "duration": 0.08108099999999752,
          "durationTicks": 24,
          "midi": 77,
          "name": "F5",
          "ticks": 7920,
          "time": 26.75673,
          "velocity": 0.8267716535433071
        },
        {
          "duration": 0.08108100000000107,
          "durationTicks": 24,
          "midi": 75,
          "name": "D#5",
          "ticks": 7944,
          "time": 26.837811,
          "velocity": 0.8267716535433071
        },
        {
          "duration": 0.08108100000000107,
          "durationTicks": 24,
          "midi": 75,
          "name": "D#5",
          "ticks": 7968,
          "time": 26.918892,
          "velocity": 0.8267716535433071
        },
        {
          "duration": 0.08108100000000107,
          "durationTicks": 24,
          "midi": 77,
          "name": "F5",
          "ticks": 7992,
          "time": 26.999973,
          "velocity": 0.8267716535433071
        },
        {
          "duration": 0.08108099999999752,
          "durationTicks": 24,
          "midi": 80,
          "name": "G#5",
          "ticks": 8016,
          "time": 27.081054,
          "velocity": 0.8267716535433071
        },
        {
          "duration": 0.08108100000000107,
          "durationTicks": 24,
          "midi": 80,
          "name": "G#5",
          "ticks": 8040,
          "time": 27.162135,
          "velocity": 0.8267716535433071
        },
        {
          "duration": 0.16216199999999859,
          "durationTicks": 48,
          "midi": 85,
          "name": "C#6",
          "ticks": 8064,
          "time": 27.243216,
          "velocity": 0.8267716535433071
        },
        {
          "duration": 0.16216200000000214,
          "durationTicks": 48,
          "midi": 82,
          "name": "A#5",
          "ticks": 8112,
          "time": 27.405378,
          "velocity": 0.8267716535433071
        },
        {
          "duration": 0.16216199999999859,
          "durationTicks": 48,
          "midi": 80,
          "name": "G#5",
          "ticks": 8160,
          "time": 27.56754,
          "velocity": 0.8267716535433071
        },
        {
          "duration": 0.3243240000000007,
          "durationTicks": 96,
          "midi": 77,
          "name": "F5",
          "ticks": 8208,
          "time": 27.729702,
          "velocity": 0.8267716535433071
        },
        {
          "duration": 0.16216199999999859,
          "durationTicks": 48,
          "midi": 73,
          "name": "C#5",
          "ticks": 8304,
          "time": 28.054026,
          "velocity": 0.8267716535433071
        },
        {
          "duration": 0.16216200000000214,
          "durationTicks": 48,
          "midi": 75,
          "name": "D#5",
          "ticks": 8352,
          "time": 28.216188,
          "velocity": 0.8267716535433071
        },
        {
          "duration": 0.16216199999999859,
          "durationTicks": 48,
          "midi": 77,
          "name": "F5",
          "ticks": 8400,
          "time": 28.37835,
          "velocity": 0.8267716535433071
        },
        {
          "duration": 0.16216200000000214,
          "durationTicks": 48,
          "midi": 82,
          "name": "A#5",
          "ticks": 8448,
          "time": 28.540512,
          "velocity": 0.8267716535433071
        },
        {
          "duration": 0.08108099999999752,
          "durationTicks": 24,
          "midi": 77,
          "name": "F5",
          "ticks": 8496,
          "time": 28.702674000000002,
          "velocity": 0.8267716535433071
        },
        {
          "duration": 0.08108100000000107,
          "durationTicks": 24,
          "midi": 77,
          "name": "F5",
          "ticks": 8520,
          "time": 28.783755,
          "velocity": 0.8267716535433071
        },
        {
          "duration": 0.08108100000000107,
          "durationTicks": 24,
          "midi": 77,
          "name": "F5",
          "ticks": 8544,
          "time": 28.864836,
          "velocity": 0.8267716535433071
        },
        {
          "duration": 0.08108099999999752,
          "durationTicks": 24,
          "midi": 77,
          "name": "F5",
          "ticks": 8568,
          "time": 28.945917,
          "velocity": 0.8267716535433071
        },
        {
          "duration": 0.08108100000000107,
          "durationTicks": 24,
          "midi": 77,
          "name": "F5",
          "ticks": 8592,
          "time": 29.026998,
          "velocity": 0.8267716535433071
        },
        {
          "duration": 0.08108100000000107,
          "durationTicks": 24,
          "midi": 77,
          "name": "F5",
          "ticks": 8616,
          "time": 29.108079,
          "velocity": 0.8267716535433071
        },
        {
          "duration": 0.16216199999999859,
          "durationTicks": 48,
          "midi": 77,
          "name": "F5",
          "ticks": 8640,
          "time": 29.18916,
          "velocity": 0.8267716535433071
        },
        {
          "duration": 0.16216200000000214,
          "durationTicks": 48,
          "midi": 77,
          "name": "F5",
          "ticks": 8688,
          "time": 29.351322,
          "velocity": 0.8267716535433071
        },
        {
          "duration": 0.08108099999999752,
          "durationTicks": 24,
          "midi": 75,
          "name": "D#5",
          "ticks": 8736,
          "time": 29.513484000000002,
          "velocity": 0.8267716535433071
        },
        {
          "duration": 0.08108100000000107,
          "durationTicks": 24,
          "midi": 77,
          "name": "F5",
          "ticks": 8760,
          "time": 29.594565,
          "velocity": 0.8267716535433071
        },
        {
          "duration": 0.08108100000000107,
          "durationTicks": 24,
          "midi": 75,
          "name": "D#5",
          "ticks": 8784,
          "time": 29.675646,
          "velocity": 0.8267716535433071
        },
        {
          "duration": 0.08108099999999752,
          "durationTicks": 24,
          "midi": 73,
          "name": "C#5",
          "ticks": 8808,
          "time": 29.756727,
          "velocity": 0.8267716535433071
        },
        {
          "duration": 0.16216200000000214,
          "durationTicks": 48,
          "midi": 75,
          "name": "D#5",
          "ticks": 8832,
          "time": 29.837808,
          "velocity": 0.8267716535433071
        },
        {
          "duration": 0.16216199999999859,
          "durationTicks": 48,
          "midi": 77,
          "name": "F5",
          "ticks": 8880,
          "time": 29.99997,
          "velocity": 0.8267716535433071
        },
        {
          "duration": 0.16216200000000214,
          "durationTicks": 48,
          "midi": 75,
          "name": "D#5",
          "ticks": 8928,
          "time": 30.162132,
          "velocity": 0.8267716535433071
        },
        {
          "duration": 0.32432399999999717,
          "durationTicks": 96,
          "midi": 73,
          "name": "C#5",
          "ticks": 8976,
          "time": 30.324294000000002,
          "velocity": 0.8267716535433071
        },
        {
          "duration": 0.16216200000000214,
          "durationTicks": 48,
          "midi": 73,
          "name": "C#5",
          "ticks": 9072,
          "time": 30.648618,
          "velocity": 0.8267716535433071
        },
        {
          "duration": 0.16216199999999859,
          "durationTicks": 48,
          "midi": 75,
          "name": "D#5",
          "ticks": 9120,
          "time": 30.81078,
          "velocity": 0.8267716535433071
        },
        {
          "duration": 0.16216199999999859,
          "durationTicks": 48,
          "midi": 77,
          "name": "F5",
          "ticks": 9168,
          "time": 30.972942,
          "velocity": 0.8267716535433071
        },
        {
          "duration": 0.08108100000000107,
          "durationTicks": 24,
          "midi": 82,
          "name": "A#5",
          "ticks": 9216,
          "time": 31.135104,
          "velocity": 0.8267716535433071
        },
        {
          "duration": 0.08108100000000107,
          "durationTicks": 24,
          "midi": 82,
          "name": "A#5",
          "ticks": 9240,
          "time": 31.216185,
          "velocity": 0.8267716535433071
        },
        {
          "duration": 0.08108100000000107,
          "durationTicks": 24,
          "midi": 77,
          "name": "F5",
          "ticks": 9264,
          "time": 31.297266,
          "velocity": 0.8267716535433071
        },
        {
          "duration": 0.08108099999999752,
          "durationTicks": 24,
          "midi": 77,
          "name": "F5",
          "ticks": 9288,
          "time": 31.378347,
          "velocity": 0.8267716535433071
        },
        {
          "duration": 0.08108100000000107,
          "durationTicks": 24,
          "midi": 77,
          "name": "F5",
          "ticks": 9312,
          "time": 31.459428,
          "velocity": 0.8267716535433071
        },
        {
          "duration": 0.08108100000000107,
          "durationTicks": 24,
          "midi": 77,
          "name": "F5",
          "ticks": 9336,
          "time": 31.540509,
          "velocity": 0.8267716535433071
        },
        {
          "duration": 0.08108099999999752,
          "durationTicks": 24,
          "midi": 77,
          "name": "F5",
          "ticks": 9360,
          "time": 31.62159,
          "velocity": 0.8267716535433071
        },
        {
          "duration": 0.08108100000000107,
          "durationTicks": 24,
          "midi": 77,
          "name": "F5",
          "ticks": 9384,
          "time": 31.702671,
          "velocity": 0.8267716535433071
        },
        {
          "duration": 0.16216199999999859,
          "durationTicks": 48,
          "midi": 80,
          "name": "G#5",
          "ticks": 9408,
          "time": 31.783752,
          "velocity": 0.8267716535433071
        },
        {
          "duration": 0.16216199999999859,
          "durationTicks": 48,
          "midi": 77,
          "name": "F5",
          "ticks": 9456,
          "time": 31.945914,
          "velocity": 0.8267716535433071
        },
        {
          "duration": 0.16216200000000214,
          "durationTicks": 48,
          "midi": 80,
          "name": "G#5",
          "ticks": 9504,
          "time": 32.108076,
          "velocity": 0.8267716535433071
        },
        {
          "duration": 0.3243240000000043,
          "durationTicks": 96,
          "midi": 85,
          "name": "C#6",
          "ticks": 9552,
          "time": 32.270238,
          "velocity": 0.8267716535433071
        },
        {
          "duration": 0.16216199999999503,
          "durationTicks": 48,
          "midi": 82,
          "name": "A#5",
          "ticks": 9648,
          "time": 32.594562,
          "velocity": 0.8267716535433071
        },
        {
          "duration": 0.16216200000000214,
          "durationTicks": 48,
          "midi": 80,
          "name": "G#5",
          "ticks": 9696,
          "time": 32.756724,
          "velocity": 0.8267716535433071
        },
        {
          "duration": 0.16216200000000214,
          "durationTicks": 48,
          "midi": 77,
          "name": "F5",
          "ticks": 9744,
          "time": 32.918886,
          "velocity": 0.8267716535433071
        },
        {
          "duration": 0.16216199999999503,
          "durationTicks": 48,
          "midi": 77,
          "name": "F5",
          "ticks": 9792,
          "time": 33.081048,
          "velocity": 0.8267716535433071
        },
        {
          "duration": 0.16216200000000214,
          "durationTicks": 48,
          "midi": 80,
          "name": "G#5",
          "ticks": 9840,
          "time": 33.24321,
          "velocity": 0.8267716535433071
        },
        {
          "duration": 0.16216200000000214,
          "durationTicks": 48,
          "midi": 77,
          "name": "F5",
          "ticks": 9888,
          "time": 33.405372,
          "velocity": 0.8267716535433071
        },
        {
          "duration": 0.16216199999999503,
          "durationTicks": 48,
          "midi": 75,
          "name": "D#5",
          "ticks": 9936,
          "time": 33.567534,
          "velocity": 0.8267716535433071
        },
        {
          "duration": 0.6486480000000014,
          "durationTicks": 192,
          "midi": 73,
          "name": "C#5",
          "ticks": 9984,
          "time": 33.729696,
          "velocity": 0.8267716535433071
        },
        {
          "duration": 0.16216200000000214,
          "durationTicks": 48,
          "midi": 73,
          "name": "C#5",
          "ticks": 11664,
          "time": 39.405366,
          "velocity": 0.8267716535433071
        },
        {
          "duration": 0.16216199999999503,
          "durationTicks": 48,
          "midi": 75,
          "name": "D#5",
          "ticks": 11712,
          "time": 39.567528,
          "velocity": 0.8267716535433071
        },
        {
          "duration": 0.16216200000000214,
          "durationTicks": 48,
          "midi": 77,
          "name": "F5",
          "ticks": 11760,
          "time": 39.72969,
          "velocity": 0.8267716535433071
        },
        {
          "duration": 0.16216200000000214,
          "durationTicks": 48,
          "midi": 78,
          "name": "F#5",
          "ticks": 11808,
          "time": 39.891852,
          "velocity": 0.8267716535433071
        },
        {
          "duration": 0.16216199999999503,
          "durationTicks": 48,
          "midi": 80,
          "name": "G#5",
          "ticks": 11856,
          "time": 40.054014,
          "velocity": 0.8267716535433071
        },
        {
          "duration": 0.2837835000000055,
          "durationTicks": 84,
          "midi": 82,
          "name": "A#5",
          "ticks": 11904,
          "time": 40.216176,
          "velocity": 0.8267716535433071
        },
        {
          "duration": 0.2837834999999984,
          "durationTicks": 84,
          "midi": 80,
          "name": "G#5",
          "ticks": 12000,
          "time": 40.5405,
          "velocity": 0.8267716535433071
        },
        {
          "duration": 0.16216200000000214,
          "durationTicks": 48,
          "midi": 77,
          "name": "F5",
          "ticks": 12096,
          "time": 40.864824,
          "velocity": 0.8267716535433071
        },
        {
          "duration": 0.16216200000000214,
          "durationTicks": 48,
          "midi": 80,
          "name": "G#5",
          "ticks": 12144,
          "time": 41.026986,
          "velocity": 0.8267716535433071
        },
        {
          "duration": 0.16216199999999503,
          "durationTicks": 48,
          "midi": 77,
          "name": "F5",
          "ticks": 12192,
          "time": 41.189148,
          "velocity": 0.8267716535433071
        },
        {
          "duration": 0.16216200000000214,
          "durationTicks": 48,
          "midi": 75,
          "name": "D#5",
          "ticks": 12240,
          "time": 41.35131,
          "velocity": 0.8267716535433071
        },
        {
          "duration": 0.16216200000000214,
          "durationTicks": 48,
          "midi": 73,
          "name": "C#5",
          "ticks": 12288,
          "time": 41.513472,
          "velocity": 0.8267716535433071
        },
        {
          "duration": 0.16216199999999503,
          "durationTicks": 48,
          "midi": 72,
          "name": "C5",
          "ticks": 12336,
          "time": 41.675634,
          "velocity": 0.8267716535433071
        },
        {
          "duration": 0.16216200000000214,
          "durationTicks": 48,
          "midi": 73,
          "name": "C#5",
          "ticks": 12384,
          "time": 41.837796,
          "velocity": 0.8267716535433071
        },
        {
          "duration": 0.16216200000000214,
          "durationTicks": 48,
          "midi": 72,
          "name": "C5",
          "ticks": 12432,
          "time": 41.999958,
          "velocity": 0.8267716535433071
        },
        {
          "duration": 0.16216199999999503,
          "durationTicks": 48,
          "midi": 73,
          "name": "C#5",
          "ticks": 12480,
          "time": 42.16212,
          "velocity": 0.8267716535433071
        },
        {
          "duration": 0.16216200000000214,
          "durationTicks": 48,
          "midi": 72,
          "name": "C5",
          "ticks": 12528,
          "time": 42.324282,
          "velocity": 0.8267716535433071
        },
        {
          "duration": 0.16216200000000214,
          "durationTicks": 48,
          "midi": 73,
          "name": "C#5",
          "ticks": 12576,
          "time": 42.486444,
          "velocity": 0.8267716535433071
        },
        {
          "duration": 0.16216200000000214,
          "durationTicks": 48,
          "midi": 72,
          "name": "C5",
          "ticks": 12624,
          "time": 42.648606,
          "velocity": 0.8267716535433071
        },
        {
          "duration": 0.32432399999999717,
          "durationTicks": 96,
          "midi": 70,
          "name": "A#4",
          "ticks": 12672,
          "time": 42.810768,
          "velocity": 0.8267716535433071
        },
        {
          "duration": 0.32432399999999717,
          "durationTicks": 96,
          "midi": 80,
          "name": "G#5",
          "ticks": 16128,
          "time": 54.486432,
          "velocity": 0.8267716535433071
        },
        {
          "duration": 0.16216200000000214,
          "durationTicks": 48,
          "midi": 80,
          "name": "G#5",
          "ticks": 16224,
          "time": 54.810756,
          "velocity": 0.8267716535433071
        },
        {
          "duration": 0.16216200000000214,
          "durationTicks": 48,
          "midi": 82,
          "name": "A#5",
          "ticks": 16272,
          "time": 54.972918,
          "velocity": 0.8267716535433071
        },
        {
          "duration": 0.32432399999999717,
          "durationTicks": 96,
          "midi": 80,
          "name": "G#5",
          "ticks": 16320,
          "time": 55.13508,
          "velocity": 0.8267716535433071
        },
        {
          "duration": 0.16216200000000214,
          "durationTicks": 48,
          "midi": 80,
          "name": "G#5",
          "ticks": 16416,
          "time": 55.459404,
          "velocity": 0.8267716535433071
        },
        {
          "duration": 0.16216200000000214,
          "durationTicks": 48,
          "midi": 82,
          "name": "A#5",
          "ticks": 16464,
          "time": 55.621566,
          "velocity": 0.8267716535433071
        },
        {
          "duration": 0.32432399999999717,
          "durationTicks": 96,
          "midi": 80,
          "name": "G#5",
          "ticks": 16512,
          "time": 55.783728,
          "velocity": 0.8267716535433071
        },
        {
          "duration": 0.32432399999999717,
          "durationTicks": 96,
          "midi": 78,
          "name": "F#5",
          "ticks": 16608,
          "time": 56.108052,
          "velocity": 0.8267716535433071
        },
        {
          "duration": 0.3243240000000043,
          "durationTicks": 96,
          "midi": 77,
          "name": "F5",
          "ticks": 16704,
          "time": 56.432376,
          "velocity": 0.8267716535433071
        },
        {
          "duration": 0.16216199999999503,
          "durationTicks": 48,
          "midi": 75,
          "name": "D#5",
          "ticks": 16800,
          "time": 56.7567,
          "velocity": 0.8267716535433071
        },
        {
          "duration": 0.16216200000000214,
          "durationTicks": 48,
          "midi": 73,
          "name": "C#5",
          "ticks": 16848,
          "time": 56.918862,
          "velocity": 0.8267716535433071
        },
        {
          "duration": 0.16216200000000214,
          "durationTicks": 48,
          "midi": 75,
          "name": "D#5",
          "ticks": 16896,
          "time": 57.081024,
          "velocity": 0.8267716535433071
        },
        {
          "duration": 0.16216200000000214,
          "durationTicks": 48,
          "midi": 73,
          "name": "C#5",
          "ticks": 16944,
          "time": 57.243186,
          "velocity": 0.8267716535433071
        },
        {
          "duration": 0.16216199999999503,
          "durationTicks": 48,
          "midi": 75,
          "name": "D#5",
          "ticks": 16992,
          "time": 57.405348000000004,
          "velocity": 0.8267716535433071
        },
        {
          "duration": 0.16216200000000214,
          "durationTicks": 48,
          "midi": 73,
          "name": "C#5",
          "ticks": 17040,
          "time": 57.56751,
          "velocity": 0.8267716535433071
        },
        {
          "duration": 0.16216200000000214,
          "durationTicks": 48,
          "midi": 75,
          "name": "D#5",
          "ticks": 17088,
          "time": 57.729672,
          "velocity": 0.8267716535433071
        },
        {
          "duration": 0.16216199999999503,
          "durationTicks": 48,
          "midi": 77,
          "name": "F5",
          "ticks": 17136,
          "time": 57.891834,
          "velocity": 0.8267716535433071
        },
        {
          "duration": 0.32432399999999717,
          "durationTicks": 96,
          "midi": 77,
          "name": "F5",
          "ticks": 17232,
          "time": 58.216158,
          "velocity": 0.8267716535433071
        },
        {
          "duration": 0.16216200000000214,
          "durationTicks": 48,
          "midi": 78,
          "name": "F#5",
          "ticks": 17328,
          "time": 58.540482,
          "velocity": 0.8267716535433071
        },
        {
          "duration": 0.16216200000000214,
          "durationTicks": 48,
          "midi": 77,
          "name": "F5",
          "ticks": 17376,
          "time": 58.702644,
          "velocity": 0.8267716535433071
        },
        {
          "duration": 0.16216200000000214,
          "durationTicks": 48,
          "midi": 78,
          "name": "F#5",
          "ticks": 17424,
          "time": 58.864806,
          "velocity": 0.8267716535433071
        },
        {
          "duration": 0.32432399999999717,
          "durationTicks": 96,
          "midi": 77,
          "name": "F5",
          "ticks": 17472,
          "time": 59.026968000000004,
          "velocity": 0.8267716535433071
        },
        {
          "duration": 0.16216200000000214,
          "durationTicks": 48,
          "midi": 75,
          "name": "D#5",
          "ticks": 17568,
          "time": 59.351292,
          "velocity": 0.8267716535433071
        },
        {
          "duration": 0.16216199999999503,
          "durationTicks": 48,
          "midi": 73,
          "name": "C#5",
          "ticks": 17616,
          "time": 59.513454,
          "velocity": 0.8267716535433071
        },
        {
          "duration": 0.3243240000000043,
          "durationTicks": 96,
          "midi": 80,
          "name": "G#5",
          "ticks": 17664,
          "time": 59.675616,
          "velocity": 0.8267716535433071
        },
        {
          "duration": 0.16216199999999503,
          "durationTicks": 48,
          "midi": 80,
          "name": "G#5",
          "ticks": 17760,
          "time": 59.99994,
          "velocity": 0.8267716535433071
        },
        {
          "duration": 0.16216200000000214,
          "durationTicks": 48,
          "midi": 82,
          "name": "A#5",
          "ticks": 17808,
          "time": 60.162102,
          "velocity": 0.8267716535433071
        },
        {
          "duration": 0.3243240000000043,
          "durationTicks": 96,
          "midi": 80,
          "name": "G#5",
          "ticks": 17856,
          "time": 60.324264,
          "velocity": 0.8267716535433071
        },
        {
          "duration": 0.16216199999999503,
          "durationTicks": 48,
          "midi": 80,
          "name": "G#5",
          "ticks": 17952,
          "time": 60.648588000000004,
          "velocity": 0.8267716535433071
        },
        {
          "duration": 0.16216200000000214,
          "durationTicks": 48,
          "midi": 82,
          "name": "A#5",
          "ticks": 18000,
          "time": 60.81075,
          "velocity": 0.8267716535433071
        },
        {
          "duration": 0.32432399999999717,
          "durationTicks": 96,
          "midi": 80,
          "name": "G#5",
          "ticks": 18048,
          "time": 60.972912,
          "velocity": 0.8267716535433071
        },
        {
          "duration": 0.3243240000000043,
          "durationTicks": 96,
          "midi": 78,
          "name": "F#5",
          "ticks": 18144,
          "time": 61.297236,
          "velocity": 0.8267716535433071
        },
        {
          "duration": 0.32432399999999717,
          "durationTicks": 96,
          "midi": 77,
          "name": "F5",
          "ticks": 18240,
          "time": 61.62156,
          "velocity": 0.8267716535433071
        },
        {
          "duration": 0.16216200000000214,
          "durationTicks": 48,
          "midi": 75,
          "name": "D#5",
          "ticks": 18336,
          "time": 61.945884,
          "velocity": 0.8267716535433071
        },
        {
          "duration": 0.16216199999999503,
          "durationTicks": 48,
          "midi": 73,
          "name": "C#5",
          "ticks": 18384,
          "time": 62.108046,
          "velocity": 0.8267716535433071
        },
        {
          "duration": 0.16216200000000214,
          "durationTicks": 48,
          "midi": 75,
          "name": "D#5",
          "ticks": 18432,
          "time": 62.270208,
          "velocity": 0.8267716535433071
        },
        {
          "duration": 0.16216200000000214,
          "durationTicks": 48,
          "midi": 73,
          "name": "C#5",
          "ticks": 18480,
          "time": 62.43237,
          "velocity": 0.8267716535433071
        },
        {
          "duration": 0.16216200000000214,
          "durationTicks": 48,
          "midi": 75,
          "name": "D#5",
          "ticks": 18528,
          "time": 62.594532,
          "velocity": 0.8267716535433071
        },
        {
          "duration": 0.16216199999999503,
          "durationTicks": 48,
          "midi": 73,
          "name": "C#5",
          "ticks": 18576,
          "time": 62.756694,
          "velocity": 0.8267716535433071
        },
        {
          "duration": 0.16216200000000214,
          "durationTicks": 48,
          "midi": 75,
          "name": "D#5",
          "ticks": 18624,
          "time": 62.918856,
          "velocity": 0.8267716535433071
        },
        {
          "duration": 0.16216200000000214,
          "durationTicks": 48,
          "midi": 85,
          "name": "C#6",
          "ticks": 18672,
          "time": 63.081018,
          "velocity": 0.8267716535433071
        },
        {
          "duration": 0.3243240000000043,
          "durationTicks": 96,
          "midi": 82,
          "name": "A#5",
          "ticks": 18768,
          "time": 63.405342,
          "velocity": 0.8267716535433071
        },
        {
          "duration": 0.16216199999999503,
          "durationTicks": 48,
          "midi": 82,
          "name": "A#5",
          "ticks": 18864,
          "time": 63.729666,
          "velocity": 0.8267716535433071
        },
        {
          "duration": 0.16216200000000214,
          "durationTicks": 48,
          "midi": 81,
          "name": "A5",
          "ticks": 18912,
          "time": 63.891828,
          "velocity": 0.8267716535433071
        },
        {
          "duration": 0.16216199999999503,
          "durationTicks": 48,
          "midi": 81,
          "name": "A5",
          "ticks": 18960,
          "time": 64.05399,
          "velocity": 0.8267716535433071
        },
        {
          "duration": 0.16216200000000924,
          "durationTicks": 48,
          "midi": 80,
          "name": "G#5",
          "ticks": 19008,
          "time": 64.216152,
          "velocity": 0.8267716535433071
        },
        {
          "duration": 0.16216199999999503,
          "durationTicks": 48,
          "midi": 80,
          "name": "G#5",
          "ticks": 19056,
          "time": 64.378314,
          "velocity": 0.8267716535433071
        },
        {
          "duration": 0.16216199999999503,
          "durationTicks": 48,
          "midi": 78,
          "name": "F#5",
          "ticks": 19104,
          "time": 64.540476,
          "velocity": 0.8267716535433071
        },
        {
          "duration": 0.16216200000000924,
          "durationTicks": 48,
          "midi": 77,
          "name": "F5",
          "ticks": 19152,
          "time": 64.702638,
          "velocity": 0.8267716535433071
        },
        {
          "duration": 0.16216199999999503,
          "durationTicks": 48,
          "midi": 75,
          "name": "D#5",
          "ticks": 19200,
          "time": 64.8648,
          "velocity": 0.8267716535433071
        },
        {
          "duration": 0.3243240000000043,
          "durationTicks": 96,
          "midi": 80,
          "name": "G#5",
          "ticks": 32256,
          "time": 108.972864,
          "velocity": 0.8267716535433071
        },
        {
          "duration": 0.16216199999999503,
          "durationTicks": 48,
          "midi": 80,
          "name": "G#5",
          "ticks": 32352,
          "time": 109.297188,
          "velocity": 0.8267716535433071
        },
        {
          "duration": 0.16216199999999503,
          "durationTicks": 48,
          "midi": 82,
          "name": "A#5",
          "ticks": 32400,
          "time": 109.45935,
          "velocity": 0.8267716535433071
        },
        {
          "duration": 0.3243240000000043,
          "durationTicks": 96,
          "midi": 80,
          "name": "G#5",
          "ticks": 32448,
          "time": 109.621512,
          "velocity": 0.8267716535433071
        },
        {
          "duration": 0.16216199999999503,
          "durationTicks": 48,
          "midi": 80,
          "name": "G#5",
          "ticks": 32544,
          "time": 109.945836,
          "velocity": 0.8267716535433071
        },
        {
          "duration": 0.16216200000000924,
          "durationTicks": 48,
          "midi": 82,
          "name": "A#5",
          "ticks": 32592,
          "time": 110.107998,
          "velocity": 0.8267716535433071
        },
        {
          "duration": 0.32432399999999006,
          "durationTicks": 96,
          "midi": 80,
          "name": "G#5",
          "ticks": 32640,
          "time": 110.27016,
          "velocity": 0.8267716535433071
        },
        {
          "duration": 0.3243240000000043,
          "durationTicks": 96,
          "midi": 78,
          "name": "F#5",
          "ticks": 32736,
          "time": 110.594484,
          "velocity": 0.8267716535433071
        },
        {
          "duration": 0.3243240000000043,
          "durationTicks": 96,
          "midi": 77,
          "name": "F5",
          "ticks": 32832,
          "time": 110.918808,
          "velocity": 0.8267716535433071
        },
        {
          "duration": 0.16216199999999503,
          "durationTicks": 48,
          "midi": 75,
          "name": "D#5",
          "ticks": 32928,
          "time": 111.243132,
          "velocity": 0.8267716535433071
        },
        {
          "duration": 0.16216200000000924,
          "durationTicks": 48,
          "midi": 73,
          "name": "C#5",
          "ticks": 32976,
          "time": 111.405294,
          "velocity": 0.8267716535433071
        },
        {
          "duration": 0.16216199999999503,
          "durationTicks": 48,
          "midi": 75,
          "name": "D#5",
          "ticks": 33024,
          "time": 111.567456,
          "velocity": 0.8267716535433071
        },
        {
          "duration": 0.16216199999999503,
          "durationTicks": 48,
          "midi": 73,
          "name": "C#5",
          "ticks": 33072,
          "time": 111.729618,
          "velocity": 0.8267716535433071
        },
        {
          "duration": 0.16216200000000924,
          "durationTicks": 48,
          "midi": 75,
          "name": "D#5",
          "ticks": 33120,
          "time": 111.89178,
          "velocity": 0.8267716535433071
        },
        {
          "duration": 0.16216199999999503,
          "durationTicks": 48,
          "midi": 73,
          "name": "C#5",
          "ticks": 33168,
          "time": 112.053942,
          "velocity": 0.8267716535433071
        },
        {
          "duration": 0.16216199999999503,
          "durationTicks": 48,
          "midi": 75,
          "name": "D#5",
          "ticks": 33216,
          "time": 112.216104,
          "velocity": 0.8267716535433071
        },
        {
          "duration": 0.16216200000000924,
          "durationTicks": 48,
          "midi": 77,
          "name": "F5",
          "ticks": 33264,
          "time": 112.378266,
          "velocity": 0.8267716535433071
        },
        {
          "duration": 0.3243240000000043,
          "durationTicks": 96,
          "midi": 77,
          "name": "F5",
          "ticks": 33360,
          "time": 112.70259,
          "velocity": 0.8267716535433071
        },
        {
          "duration": 0.16216199999999503,
          "durationTicks": 48,
          "midi": 78,
          "name": "F#5",
          "ticks": 33456,
          "time": 113.026914,
          "velocity": 0.8267716535433071
        },
        {
          "duration": 0.16216199999999503,
          "durationTicks": 48,
          "midi": 77,
          "name": "F5",
          "ticks": 33504,
          "time": 113.189076,
          "velocity": 0.8267716535433071
        },
        {
          "duration": 0.16216200000000924,
          "durationTicks": 48,
          "midi": 78,
          "name": "F#5",
          "ticks": 33552,
          "time": 113.351238,
          "velocity": 0.8267716535433071
        },
        {
          "duration": 0.32432399999999006,
          "durationTicks": 96,
          "midi": 77,
          "name": "F5",
          "ticks": 33600,
          "time": 113.5134,
          "velocity": 0.8267716535433071
        },
        {
          "duration": 0.16216200000000924,
          "durationTicks": 48,
          "midi": 75,
          "name": "D#5",
          "ticks": 33696,
          "time": 113.837724,
          "velocity": 0.8267716535433071
        },
        {
          "duration": 0.16216199999999503,
          "durationTicks": 48,
          "midi": 73,
          "name": "C#5",
          "ticks": 33744,
          "time": 113.999886,
          "velocity": 0.8267716535433071
        },
        {
          "duration": 0.3243240000000043,
          "durationTicks": 96,
          "midi": 80,
          "name": "G#5",
          "ticks": 33792,
          "time": 114.162048,
          "velocity": 0.8267716535433071
        },
        {
          "duration": 0.16216199999999503,
          "durationTicks": 48,
          "midi": 80,
          "name": "G#5",
          "ticks": 33888,
          "time": 114.486372,
          "velocity": 0.8267716535433071
        },
        {
          "duration": 0.16216200000000924,
          "durationTicks": 48,
          "midi": 82,
          "name": "A#5",
          "ticks": 33936,
          "time": 114.648534,
          "velocity": 0.8267716535433071
        },
        {
          "duration": 0.32432399999999006,
          "durationTicks": 96,
          "midi": 80,
          "name": "G#5",
          "ticks": 33984,
          "time": 114.81069600000001,
          "velocity": 0.8267716535433071
        },
        {
          "duration": 0.16216200000000924,
          "durationTicks": 48,
          "midi": 80,
          "name": "G#5",
          "ticks": 34080,
          "time": 115.13502,
          "velocity": 0.8267716535433071
        },
        {
          "duration": 0.16216199999999503,
          "durationTicks": 48,
          "midi": 82,
          "name": "A#5",
          "ticks": 34128,
          "time": 115.297182,
          "velocity": 0.8267716535433071
        },
        {
          "duration": 0.3243240000000043,
          "durationTicks": 96,
          "midi": 80,
          "name": "G#5",
          "ticks": 34176,
          "time": 115.459344,
          "velocity": 0.8267716535433071
        },
        {
          "duration": 0.32432399999999006,
          "durationTicks": 96,
          "midi": 78,
          "name": "F#5",
          "ticks": 34272,
          "time": 115.783668,
          "velocity": 0.8267716535433071
        },
        {
          "duration": 0.3243240000000043,
          "durationTicks": 96,
          "midi": 77,
          "name": "F5",
          "ticks": 34368,
          "time": 116.107992,
          "velocity": 0.8267716535433071
        },
        {
          "duration": 0.16216199999999503,
          "durationTicks": 48,
          "midi": 75,
          "name": "D#5",
          "ticks": 34464,
          "time": 116.432316,
          "velocity": 0.8267716535433071
        },
        {
          "duration": 0.16216200000000924,
          "durationTicks": 48,
          "midi": 73,
          "name": "C#5",
          "ticks": 34512,
          "time": 116.594478,
          "velocity": 0.8267716535433071
        },
        {
          "duration": 0.16216199999999503,
          "durationTicks": 48,
          "midi": 75,
          "name": "D#5",
          "ticks": 34560,
          "time": 116.75664,
          "velocity": 0.8267716535433071
        },
        {
          "duration": 0.16216199999999503,
          "durationTicks": 48,
          "midi": 73,
          "name": "C#5",
          "ticks": 34608,
          "time": 116.918802,
          "velocity": 0.8267716535433071
        },
        {
          "duration": 0.16216200000000924,
          "durationTicks": 48,
          "midi": 75,
          "name": "D#5",
          "ticks": 34656,
          "time": 117.080964,
          "velocity": 0.8267716535433071
        },
        {
          "duration": 0.16216199999999503,
          "durationTicks": 48,
          "midi": 73,
          "name": "C#5",
          "ticks": 34704,
          "time": 117.243126,
          "velocity": 0.8267716535433071
        },
        {
          "duration": 0.16216199999999503,
          "durationTicks": 48,
          "midi": 75,
          "name": "D#5",
          "ticks": 34752,
          "time": 117.405288,
          "velocity": 0.8267716535433071
        },
        {
          "duration": 0.16216200000000924,
          "durationTicks": 48,
          "midi": 85,
          "name": "C#6",
          "ticks": 34800,
          "time": 117.56745,
          "velocity": 0.8267716535433071
        },
        {
          "duration": 0.3243240000000043,
          "durationTicks": 96,
          "midi": 82,
          "name": "A#5",
          "ticks": 34896,
          "time": 117.891774,
          "velocity": 0.8267716535433071
        },
        {
          "duration": 0.16216199999999503,
          "durationTicks": 48,
          "midi": 82,
          "name": "A#5",
          "ticks": 34992,
          "time": 118.216098,
          "velocity": 0.8267716535433071
        },
        {
          "duration": 0.16216200000000924,
          "durationTicks": 48,
          "midi": 81,
          "name": "A5",
          "ticks": 35040,
          "time": 118.37826,
          "velocity": 0.8267716535433071
        },
        {
          "duration": 0.16216199999999503,
          "durationTicks": 48,
          "midi": 81,
          "name": "A5",
          "ticks": 35088,
          "time": 118.540422,
          "velocity": 0.8267716535433071
        },
        {
          "duration": 0.16216199999999503,
          "durationTicks": 48,
          "midi": 80,
          "name": "G#5",
          "ticks": 35136,
          "time": 118.702584,
          "velocity": 0.8267716535433071
        },
        {
          "duration": 0.16216200000000924,
          "durationTicks": 48,
          "midi": 80,
          "name": "G#5",
          "ticks": 35184,
          "time": 118.864746,
          "velocity": 0.8267716535433071
        },
        {
          "duration": 0.16216199999999503,
          "durationTicks": 48,
          "midi": 76,
          "name": "E5",
          "ticks": 35232,
          "time": 119.026908,
          "velocity": 0.8267716535433071
        },
        {
          "duration": 0.16216199999999503,
          "durationTicks": 48,
          "midi": 78,
          "name": "F#5",
          "ticks": 35280,
          "time": 119.18907,
          "velocity": 0.8267716535433071
        },
        {
          "duration": 0.32432399999999006,
          "durationTicks": 96,
          "midi": 81,
          "name": "A5",
          "ticks": 38400,
          "time": 129.7296,
          "velocity": 0.8267716535433071
        },
        {
          "duration": 0.16216199999999503,
          "durationTicks": 48,
          "midi": 81,
          "name": "A5",
          "ticks": 38496,
          "time": 130.053924,
          "velocity": 0.8267716535433071
        },
        {
          "duration": 0.16216200000002345,
          "durationTicks": 48,
          "midi": 83,
          "name": "B5",
          "ticks": 38544,
          "time": 130.216086,
          "velocity": 0.8267716535433071
        },
        {
          "duration": 0.32432399999999006,
          "durationTicks": 96,
          "midi": 81,
          "name": "A5",
          "ticks": 38592,
          "time": 130.378248,
          "velocity": 0.8267716535433071
        },
        {
          "duration": 0.16216199999999503,
          "durationTicks": 48,
          "midi": 81,
          "name": "A5",
          "ticks": 38688,
          "time": 130.702572,
          "velocity": 0.8267716535433071
        },
        {
          "duration": 0.16216199999999503,
          "durationTicks": 48,
          "midi": 83,
          "name": "B5",
          "ticks": 38736,
          "time": 130.864734,
          "velocity": 0.8267716535433071
        },
        {
          "duration": 0.3243240000000185,
          "durationTicks": 96,
          "midi": 81,
          "name": "A5",
          "ticks": 38784,
          "time": 131.026896,
          "velocity": 0.8267716535433071
        },
        {
          "duration": 0.32432399999999006,
          "durationTicks": 96,
          "midi": 79,
          "name": "G5",
          "ticks": 38880,
          "time": 131.35122,
          "velocity": 0.8267716535433071
        },
        {
          "duration": 0.32432399999999006,
          "durationTicks": 96,
          "midi": 78,
          "name": "F#5",
          "ticks": 38976,
          "time": 131.675544,
          "velocity": 0.8267716535433071
        },
        {
          "duration": 0.16216199999999503,
          "durationTicks": 48,
          "midi": 76,
          "name": "E5",
          "ticks": 39072,
          "time": 131.999868,
          "velocity": 0.8267716535433071
        },
        {
          "duration": 0.16216200000002345,
          "durationTicks": 48,
          "midi": 74,
          "name": "D5",
          "ticks": 39120,
          "time": 132.16203,
          "velocity": 0.8267716535433071
        },
        {
          "duration": 0.16216199999999503,
          "durationTicks": 48,
          "midi": 76,
          "name": "E5",
          "ticks": 39168,
          "time": 132.324192,
          "velocity": 0.8267716535433071
        },
        {
          "duration": 0.16216199999999503,
          "durationTicks": 48,
          "midi": 74,
          "name": "D5",
          "ticks": 39216,
          "time": 132.486354,
          "velocity": 0.8267716535433071
        },
        {
          "duration": 0.16216199999999503,
          "durationTicks": 48,
          "midi": 76,
          "name": "E5",
          "ticks": 39264,
          "time": 132.648516,
          "velocity": 0.8267716535433071
        },
        {
          "duration": 0.16216199999999503,
          "durationTicks": 48,
          "midi": 74,
          "name": "D5",
          "ticks": 39312,
          "time": 132.810678,
          "velocity": 0.8267716535433071
        },
        {
          "duration": 0.16216200000002345,
          "durationTicks": 48,
          "midi": 76,
          "name": "E5",
          "ticks": 39360,
          "time": 132.97284,
          "velocity": 0.8267716535433071
        },
        {
          "duration": 0.16216199999999503,
          "durationTicks": 48,
          "midi": 78,
          "name": "F#5",
          "ticks": 39408,
          "time": 133.13500200000001,
          "velocity": 0.8267716535433071
        },
        {
          "duration": 0.32432399999999006,
          "durationTicks": 96,
          "midi": 78,
          "name": "F#5",
          "ticks": 39504,
          "time": 133.459326,
          "velocity": 0.8267716535433071
        },
        {
          "duration": 0.16216199999999503,
          "durationTicks": 48,
          "midi": 79,
          "name": "G5",
          "ticks": 39600,
          "time": 133.78365,
          "velocity": 0.8267716535433071
        },
        {
          "duration": 0.16216200000002345,
          "durationTicks": 48,
          "midi": 78,
          "name": "F#5",
          "ticks": 39648,
          "time": 133.945812,
          "velocity": 0.8267716535433071
        },
        {
          "duration": 0.16216199999999503,
          "durationTicks": 48,
          "midi": 79,
          "name": "G5",
          "ticks": 39696,
          "time": 134.107974,
          "velocity": 0.8267716535433071
        },
        {
          "duration": 0.32432399999999006,
          "durationTicks": 96,
          "midi": 78,
          "name": "F#5",
          "ticks": 39744,
          "time": 134.270136,
          "velocity": 0.8267716535433071
        },
        {
          "duration": 0.16216199999999503,
          "durationTicks": 48,
          "midi": 76,
          "name": "E5",
          "ticks": 39840,
          "time": 134.59446,
          "velocity": 0.8267716535433071
        },
        {
          "duration": 0.16216199999999503,
          "durationTicks": 48,
          "midi": 74,
          "name": "D5",
          "ticks": 39888,
          "time": 134.756622,
          "velocity": 0.8267716535433071
        },
        {
          "duration": 0.16216200000002345,
          "durationTicks": 48,
          "midi": 81,
          "name": "A5",
          "ticks": 39936,
          "time": 134.918784,
          "velocity": 0.8267716535433071
        },
        {
          "duration": 0.16216199999999503,
          "durationTicks": 48,
          "midi": 81,
          "name": "A5",
          "ticks": 40008,
          "time": 135.162027,
          "velocity": 0.8267716535433071
        },
        {
          "duration": 0.16216199999999503,
          "durationTicks": 48,
          "midi": 83,
          "name": "B5",
          "ticks": 40080,
          "time": 135.40527,
          "velocity": 0.8267716535433071
        },
        {
          "duration": 0.32432399999999006,
          "durationTicks": 96,
          "midi": 81,
          "name": "A5",
          "ticks": 40128,
          "time": 135.567432,
          "velocity": 0.8267716535433071
        },
        {
          "duration": 0.16216200000002345,
          "durationTicks": 48,
          "midi": 81,
          "name": "A5",
          "ticks": 40224,
          "time": 135.891756,
          "velocity": 0.8267716535433071
        },
        {
          "duration": 0.16216199999999503,
          "durationTicks": 48,
          "midi": 83,
          "name": "B5",
          "ticks": 40272,
          "time": 136.053918,
          "velocity": 0.8267716535433071
        },
        {
          "duration": 0.32432399999999006,
          "durationTicks": 96,
          "midi": 81,
          "name": "A5",
          "ticks": 40320,
          "time": 136.21608,
          "velocity": 0.8267716535433071
        },
        {
          "duration": 0.3243240000000185,
          "durationTicks": 96,
          "midi": 79,
          "name": "G5",
          "ticks": 40416,
          "time": 136.540404,
          "velocity": 0.8267716535433071
        },
        {
          "duration": 0.32432399999999006,
          "durationTicks": 96,
          "midi": 78,
          "name": "F#5",
          "ticks": 40512,
          "time": 136.864728,
          "velocity": 0.8267716535433071
        },
        {
          "duration": 0.16216199999999503,
          "durationTicks": 48,
          "midi": 76,
          "name": "E5",
          "ticks": 40608,
          "time": 137.189052,
          "velocity": 0.8267716535433071
        },
        {
          "duration": 0.16216199999999503,
          "durationTicks": 48,
          "midi": 74,
          "name": "D5",
          "ticks": 40656,
          "time": 137.351214,
          "velocity": 0.8267716535433071
        },
        {
          "duration": 0.16216199999999503,
          "durationTicks": 48,
          "midi": 76,
          "name": "E5",
          "ticks": 40704,
          "time": 137.513376,
          "velocity": 0.8267716535433071
        },
        {
          "duration": 0.16216200000002345,
          "durationTicks": 48,
          "midi": 74,
          "name": "D5",
          "ticks": 40752,
          "time": 137.675538,
          "velocity": 0.8267716535433071
        },
        {
          "duration": 0.16216199999999503,
          "durationTicks": 48,
          "midi": 76,
          "name": "E5",
          "ticks": 40800,
          "time": 137.8377,
          "velocity": 0.8267716535433071
        },
        {
          "duration": 0.16216199999999503,
          "durationTicks": 48,
          "midi": 74,
          "name": "D5",
          "ticks": 40848,
          "time": 137.999862,
          "velocity": 0.8267716535433071
        },
        {
          "duration": 0.16216199999999503,
          "durationTicks": 48,
          "midi": 76,
          "name": "E5",
          "ticks": 40896,
          "time": 138.162024,
          "velocity": 0.8267716535433071
        },
        {
          "duration": 0.16216199999999503,
          "durationTicks": 48,
          "midi": 86,
          "name": "D6",
          "ticks": 40944,
          "time": 138.324186,
          "velocity": 0.8267716535433071
        },
        {
          "duration": 0.3243240000000185,
          "durationTicks": 96,
          "midi": 83,
          "name": "B5",
          "ticks": 41040,
          "time": 138.64851,
          "velocity": 0.8267716535433071
        },
        {
          "duration": 0.16216199999999503,
          "durationTicks": 48,
          "midi": 83,
          "name": "B5",
          "ticks": 41136,
          "time": 138.972834,
          "velocity": 0.8267716535433071
        },
        {
          "duration": 0.16216199999999503,
          "durationTicks": 48,
          "midi": 82,
          "name": "A#5",
          "ticks": 41184,
          "time": 139.134996,
          "velocity": 0.8267716535433071
        },
        {
          "duration": 0.16216199999999503,
          "durationTicks": 48,
          "midi": 82,
          "name": "A#5",
          "ticks": 41232,
          "time": 139.297158,
          "velocity": 0.8267716535433071
        },
        {
          "duration": 0.16216200000002345,
          "durationTicks": 48,
          "midi": 81,
          "name": "A5",
          "ticks": 41280,
          "time": 139.45932,
          "velocity": 0.8267716535433071
        },
        {
          "duration": 0.16216199999999503,
          "durationTicks": 48,
          "midi": 81,
          "name": "A5",
          "ticks": 41328,
          "time": 139.62148200000001,
          "velocity": 0.8267716535433071
        },
        {
          "duration": 0.16216199999999503,
          "durationTicks": 48,
          "midi": 79,
          "name": "G5",
          "ticks": 41376,
          "time": 139.783644,
          "velocity": 0.8267716535433071
        },
        {
          "duration": 0.16216199999999503,
          "durationTicks": 48,
          "midi": 78,
          "name": "F#5",
          "ticks": 41424,
          "time": 139.945806,
          "velocity": 0.8267716535433071
        },
        {
          "duration": 0.16216199999999503,
          "durationTicks": 48,
          "midi": 76,
          "name": "E5",
          "ticks": 41472,
          "time": 140.107968,
          "velocity": 0.8267716535433071
        }
      ],
      "endOfTrackTicks": 46086
    },
    {
      "channel": 10,
      "controlChanges": {
        "6": [
          {
            "number": 6,
            "ticks": 0,
            "time": 0,
            "value": 0.09448818897637795
          },
          {
            "number": 6,
            "ticks": 0,
            "time": 0,
            "value": 0.09448818897637795
          },
          {
            "number": 6,
            "ticks": 0,
            "time": 0,
            "value": 0.09448818897637795
          },
          {
            "number": 6,
            "ticks": 46084,
            "time": 155.6890335,
            "value": 0.09448818897637795
          },
          {
            "number": 6,
            "ticks": 46086,
            "time": 155.69579025,
            "value": 0.09448818897637795
          }
        ],
        "7": [
          {
            "number": 7,
            "ticks": 0,
            "time": 0,
            "value": 0.7874015748031497
          },
          {
            "number": 7,
            "ticks": 0,
            "time": 0,
            "value": 0.7874015748031497
          },
          {
            "number": 7,
            "ticks": 0,
            "time": 0,
            "value": 0.7874015748031497
          },
          {
            "number": 7,
            "ticks": 0,
            "time": 0,
            "value": 0.7874015748031497
          },
          {
            "number": 7,
            "ticks": 46084,
            "time": 155.6890335,
            "value": 0.7874015748031497
          },
          {
            "number": 7,
            "ticks": 46086,
            "time": 155.69579025,
            "value": 0.7874015748031497
          }
        ],
        "10": [
          {
            "number": 10,
            "ticks": 0,
            "time": 0,
            "value": 0.5039370078740157
          },
          {
            "number": 10,
            "ticks": 0,
            "time": 0,
            "value": 0.5039370078740157
          },
          {
            "number": 10,
            "ticks": 0,
            "time": 0,
            "value": 0.5039370078740157
          },
          {
            "number": 10,
            "ticks": 0,
            "time": 0,
            "value": 0.5039370078740157
          },
          {
            "number": 10,
            "ticks": 46084,
            "time": 155.6890335,
            "value": 0.5039370078740157
          },
          {
            "number": 10,
            "ticks": 46086,
            "time": 155.69579025,
            "value": 0.5039370078740157
          }
        ],
        "100": [
          {
            "number": 100,
            "ticks": 0,
            "time": 0,
            "value": 0
          },
          {
            "number": 100,
            "ticks": 0,
            "time": 0,
            "value": 0
          },
          {
            "number": 100,
            "ticks": 0,
            "time": 0,
            "value": 0
          },
          {
            "number": 100,
            "ticks": 46084,
            "time": 155.6890335,
            "value": 0
          },
          {
            "number": 100,
            "ticks": 46086,
            "time": 155.69579025,
            "value": 0
          }
        ],
        "101": [
          {
            "number": 101,
            "ticks": 0,
            "time": 0,
            "value": 0
          },
          {
            "number": 101,
            "ticks": 0,
            "time": 0,
            "value": 0
          },
          {
            "number": 101,
            "ticks": 0,
            "time": 0,
            "value": 0
          },
          {
            "number": 101,
            "ticks": 46084,
            "time": 155.6890335,
            "value": 0
          },
          {
            "number": 101,
            "ticks": 46086,
            "time": 155.69579025,
            "value": 0
          }
        ]
      },
      "pitchBends": [
        {
          "ticks": 0,
          "time": 0,
          "value": 0
        },
        {
          "ticks": 0,
          "time": 0,
          "value": 0
        },
        {
          "ticks": 0,
          "time": 0,
          "value": 0
        },
        {
          "ticks": 0,
          "time": 0,
          "value": 0
        },
        {
          "ticks": 46084,
          "time": 155.6890335,
          "value": 0
        },
        {
          "ticks": 46086,
          "time": 155.69579025,
          "value": 0
        }
      ],
      "instrument": {
        "family": "piano",
        "number": 0,
        "name": "acoustic grand piano"
      },
      "name": "T #2",
      "notes": [
        {
          "duration": 0.16216200000000214,
          "durationTicks": 48,
          "midi": 61,
          "name": "C#4",
          "ticks": 6768,
          "time": 22.864842,
          "velocity": 0.6299212598425197
        },
        {
          "duration": 0.16216199999999859,
          "durationTicks": 48,
          "midi": 63,
          "name": "D#4",
          "ticks": 6816,
          "time": 23.027004,
          "velocity": 0.6299212598425197
        },
        {
          "duration": 0.16216199999999859,
          "durationTicks": 48,
          "midi": 65,
          "name": "F4",
          "ticks": 6864,
          "time": 23.189166,
          "velocity": 0.6299212598425197
        },
        {
          "duration": 0.08108100000000107,
          "durationTicks": 24,
          "midi": 70,
          "name": "A#4",
          "ticks": 6912,
          "time": 23.351328,
          "velocity": 0.6299212598425197
        },
        {
          "duration": 0.08108100000000107,
          "durationTicks": 24,
          "midi": 70,
          "name": "A#4",
          "ticks": 6936,
          "time": 23.432409,
          "velocity": 0.6299212598425197
        },
        {
          "duration": 0.08108099999999752,
          "durationTicks": 24,
          "midi": 65,
          "name": "F4",
          "ticks": 6960,
          "time": 23.51349,
          "velocity": 0.6299212598425197
        },
        {
          "duration": 0.08108100000000107,
          "durationTicks": 24,
          "midi": 65,
          "name": "F4",
          "ticks": 6984,
          "time": 23.594571,
          "velocity": 0.6299212598425197
        },
        {
          "duration": 0.08108100000000107,
          "durationTicks": 24,
          "midi": 65,
          "name": "F4",
          "ticks": 7008,
          "time": 23.675652,
          "velocity": 0.6299212598425197
        },
        {
          "duration": 0.08108100000000107,
          "durationTicks": 24,
          "midi": 65,
          "name": "F4",
          "ticks": 7032,
          "time": 23.756733,
          "velocity": 0.6299212598425197
        },
        {
          "duration": 0.08108099999999752,
          "durationTicks": 24,
          "midi": 65,
          "name": "F4",
          "ticks": 7056,
          "time": 23.837814,
          "velocity": 0.6299212598425197
        },
        {
          "duration": 0.08108100000000107,
          "durationTicks": 24,
          "midi": 65,
          "name": "F4",
          "ticks": 7080,
          "time": 23.918895,
          "velocity": 0.6299212598425197
        },
        {
          "duration": 0.08108100000000107,
          "durationTicks": 24,
          "midi": 65,
          "name": "F4",
          "ticks": 7104,
          "time": 23.999976,
          "velocity": 0.6299212598425197
        },
        {
          "duration": 0.08108099999999752,
          "durationTicks": 24,
          "midi": 66,
          "name": "F#4",
          "ticks": 7128,
          "time": 24.081057,
          "velocity": 0.6299212598425197
        },
        {
          "duration": 0.08108100000000107,
          "durationTicks": 24,
          "midi": 65,
          "name": "F4",
          "ticks": 7152,
          "time": 24.162138,
          "velocity": 0.6299212598425197
        },
        {
          "duration": 0.08108100000000107,
          "durationTicks": 24,
          "midi": 63,
          "name": "D#4",
          "ticks": 7176,
          "time": 24.243219,
          "velocity": 0.6299212598425197
        },
        {
          "duration": 0.08108099999999752,
          "durationTicks": 24,
          "midi": 63,
          "name": "D#4",
          "ticks": 7200,
          "time": 24.3243,
          "velocity": 0.6299212598425197
        },
        {
          "duration": 0.08108100000000107,
          "durationTicks": 24,
          "midi": 65,
          "name": "F4",
          "ticks": 7224,
          "time": 24.405381,
          "velocity": 0.6299212598425197
        },
        {
          "duration": 0.08108100000000107,
          "durationTicks": 24,
          "midi": 63,
          "name": "D#4",
          "ticks": 7248,
          "time": 24.486462,
          "velocity": 0.6299212598425197
        },
        {
          "duration": 0.08108100000000107,
          "durationTicks": 24,
          "midi": 61,
          "name": "C#4",
          "ticks": 7272,
          "time": 24.567543,
          "velocity": 0.6299212598425197
        },
        {
          "duration": 0.16216199999999859,
          "durationTicks": 48,
          "midi": 63,
          "name": "D#4",
          "ticks": 7296,
          "time": 24.648624,
          "velocity": 0.6299212598425197
        },
        {
          "duration": 0.16216199999999859,
          "durationTicks": 48,
          "midi": 65,
          "name": "F4",
          "ticks": 7344,
          "time": 24.810786,
          "velocity": 0.6299212598425197
        },
        {
          "duration": 0.16216200000000214,
          "durationTicks": 48,
          "midi": 63,
          "name": "D#4",
          "ticks": 7392,
          "time": 24.972948,
          "velocity": 0.6299212598425197
        },
        {
          "duration": 0.3243240000000007,
          "durationTicks": 96,
          "midi": 61,
          "name": "C#4",
          "ticks": 7440,
          "time": 25.13511,
          "velocity": 0.6299212598425197
        },
        {
          "duration": 0.16216199999999859,
          "durationTicks": 48,
          "midi": 61,
          "name": "C#4",
          "ticks": 7536,
          "time": 25.459434,
          "velocity": 0.6299212598425197
        },
        {
          "duration": 0.16216199999999859,
          "durationTicks": 48,
          "midi": 63,
          "name": "D#4",
          "ticks": 7584,
          "time": 25.621596,
          "velocity": 0.6299212598425197
        },
        {
          "duration": 0.16216200000000214,
          "durationTicks": 48,
          "midi": 65,
          "name": "F4",
          "ticks": 7632,
          "time": 25.783758,
          "velocity": 0.6299212598425197
        },
        {
          "duration": 0.16216199999999859,
          "durationTicks": 48,
          "midi": 70,
          "name": "A#4",
          "ticks": 7680,
          "time": 25.94592,
          "velocity": 0.6299212598425197
        },
        {
          "duration": 0.08108100000000107,
          "durationTicks": 24,
          "midi": 65,
          "name": "F4",
          "ticks": 7728,
          "time": 26.108082,
          "velocity": 0.6299212598425197
        },
        {
          "duration": 0.08108100000000107,
          "durationTicks": 24,
          "midi": 65,
          "name": "F4",
          "ticks": 7752,
          "time": 26.189163,
          "velocity": 0.6299212598425197
        },
        {
          "duration": 0.08108099999999752,
          "durationTicks": 24,
          "midi": 65,
          "name": "F4",
          "ticks": 7776,
          "time": 26.270244,
          "velocity": 0.6299212598425197
        },
        {
          "duration": 0.08108100000000107,
          "durationTicks": 24,
          "midi": 65,
          "name": "F4",
          "ticks": 7800,
          "time": 26.351325,
          "velocity": 0.6299212598425197
        },
        {
          "duration": 0.08108100000000107,
          "durationTicks": 24,
          "midi": 65,
          "name": "F4",
          "ticks": 7824,
          "time": 26.432406,
          "velocity": 0.6299212598425197
        },
        {
          "duration": 0.08108099999999752,
          "durationTicks": 24,
          "midi": 65,
          "name": "F4",
          "ticks": 7848,
          "time": 26.513487,
          "velocity": 0.6299212598425197
        },
        {
          "duration": 0.08108100000000107,
          "durationTicks": 24,
          "midi": 65,
          "name": "F4",
          "ticks": 7872,
          "time": 26.594568,
          "velocity": 0.6299212598425197
        },
        {
          "duration": 0.08108100000000107,
          "durationTicks": 24,
          "midi": 68,
          "name": "G#4",
          "ticks": 7896,
          "time": 26.675649,
          "velocity": 0.6299212598425197
        },
        {
          "duration": 0.08108099999999752,
          "durationTicks": 24,
          "midi": 65,
          "name": "F4",
          "ticks": 7920,
          "time": 26.75673,
          "velocity": 0.6299212598425197
        },
        {
          "duration": 0.08108100000000107,
          "durationTicks": 24,
          "midi": 63,
          "name": "D#4",
          "ticks": 7944,
          "time": 26.837811,
          "velocity": 0.6299212598425197
        },
        {
          "duration": 0.08108100000000107,
          "durationTicks": 24,
          "midi": 63,
          "name": "D#4",
          "ticks": 7968,
          "time": 26.918892,
          "velocity": 0.6299212598425197
        },
        {
          "duration": 0.08108100000000107,
          "durationTicks": 24,
          "midi": 65,
          "name": "F4",
          "ticks": 7992,
          "time": 26.999973,
          "velocity": 0.6299212598425197
        },
        {
          "duration": 0.08108099999999752,
          "durationTicks": 24,
          "midi": 68,
          "name": "G#4",
          "ticks": 8016,
          "time": 27.081054,
          "velocity": 0.6299212598425197
        },
        {
          "duration": 0.08108100000000107,
          "durationTicks": 24,
          "midi": 68,
          "name": "G#4",
          "ticks": 8040,
          "time": 27.162135,
          "velocity": 0.6299212598425197
        },
        {
          "duration": 0.16216199999999859,
          "durationTicks": 48,
          "midi": 73,
          "name": "C#5",
          "ticks": 8064,
          "time": 27.243216,
          "velocity": 0.6299212598425197
        },
        {
          "duration": 0.16216200000000214,
          "durationTicks": 48,
          "midi": 70,
          "name": "A#4",
          "ticks": 8112,
          "time": 27.405378,
          "velocity": 0.6299212598425197
        },
        {
          "duration": 0.16216199999999859,
          "durationTicks": 48,
          "midi": 68,
          "name": "G#4",
          "ticks": 8160,
          "time": 27.56754,
          "velocity": 0.6299212598425197
        },
        {
          "duration": 0.3243240000000007,
          "durationTicks": 96,
          "midi": 65,
          "name": "F4",
          "ticks": 8208,
          "time": 27.729702,
          "velocity": 0.6299212598425197
        },
        {
          "duration": 0.16216199999999859,
          "durationTicks": 48,
          "midi": 61,
          "name": "C#4",
          "ticks": 8304,
          "time": 28.054026,
          "velocity": 0.6299212598425197
        },
        {
          "duration": 0.16216200000000214,
          "durationTicks": 48,
          "midi": 63,
          "name": "D#4",
          "ticks": 8352,
          "time": 28.216188,
          "velocity": 0.6299212598425197
        },
        {
          "duration": 0.16216199999999859,
          "durationTicks": 48,
          "midi": 65,
          "name": "F4",
          "ticks": 8400,
          "time": 28.37835,
          "velocity": 0.6299212598425197
        },
        {
          "duration": 0.16216200000000214,
          "durationTicks": 48,
          "midi": 70,
          "name": "A#4",
          "ticks": 8448,
          "time": 28.540512,
          "velocity": 0.6299212598425197
        },
        {
          "duration": 0.08108099999999752,
          "durationTicks": 24,
          "midi": 65,
          "name": "F4",
          "ticks": 8496,
          "time": 28.702674000000002,
          "velocity": 0.6299212598425197
        },
        {
          "duration": 0.08108100000000107,
          "durationTicks": 24,
          "midi": 65,
          "name": "F4",
          "ticks": 8520,
          "time": 28.783755,
          "velocity": 0.6299212598425197
        },
        {
          "duration": 0.08108100000000107,
          "durationTicks": 24,
          "midi": 65,
          "name": "F4",
          "ticks": 8544,
          "time": 28.864836,
          "velocity": 0.6299212598425197
        },
        {
          "duration": 0.08108099999999752,
          "durationTicks": 24,
          "midi": 65,
          "name": "F4",
          "ticks": 8568,
          "time": 28.945917,
          "velocity": 0.6299212598425197
        },
        {
          "duration": 0.08108100000000107,
          "durationTicks": 24,
          "midi": 65,
          "name": "F4",
          "ticks": 8592,
          "time": 29.026998,
          "velocity": 0.6299212598425197
        },
        {
          "duration": 0.08108100000000107,
          "durationTicks": 24,
          "midi": 65,
          "name": "F4",
          "ticks": 8616,
          "time": 29.108079,
          "velocity": 0.6299212598425197
        },
        {
          "duration": 0.16216199999999859,
          "durationTicks": 48,
          "midi": 65,
          "name": "F4",
          "ticks": 8640,
          "time": 29.18916,
          "velocity": 0.6299212598425197
        },
        {
          "duration": 0.16216200000000214,
          "durationTicks": 48,
          "midi": 65,
          "name": "F4",
          "ticks": 8688,
          "time": 29.351322,
          "velocity": 0.6299212598425197
        },
        {
          "duration": 0.08108099999999752,
          "durationTicks": 24,
          "midi": 63,
          "name": "D#4",
          "ticks": 8736,
          "time": 29.513484000000002,
          "velocity": 0.6299212598425197
        },
        {
          "duration": 0.08108100000000107,
          "durationTicks": 24,
          "midi": 65,
          "name": "F4",
          "ticks": 8760,
          "time": 29.594565,
          "velocity": 0.6299212598425197
        },
        {
          "duration": 0.08108100000000107,
          "durationTicks": 24,
          "midi": 63,
          "name": "D#4",
          "ticks": 8784,
          "time": 29.675646,
          "velocity": 0.6299212598425197
        },
        {
          "duration": 0.08108099999999752,
          "durationTicks": 24,
          "midi": 61,
          "name": "C#4",
          "ticks": 8808,
          "time": 29.756727,
          "velocity": 0.6299212598425197
        },
        {
          "duration": 0.16216200000000214,
          "durationTicks": 48,
          "midi": 63,
          "name": "D#4",
          "ticks": 8832,
          "time": 29.837808,
          "velocity": 0.6299212598425197
        },
        {
          "duration": 0.16216199999999859,
          "durationTicks": 48,
          "midi": 65,
          "name": "F4",
          "ticks": 8880,
          "time": 29.99997,
          "velocity": 0.6299212598425197
        },
        {
          "duration": 0.16216200000000214,
          "durationTicks": 48,
          "midi": 63,
          "name": "D#4",
          "ticks": 8928,
          "time": 30.162132,
          "velocity": 0.6299212598425197
        },
        {
          "duration": 0.32432399999999717,
          "durationTicks": 96,
          "midi": 61,
          "name": "C#4",
          "ticks": 8976,
          "time": 30.324294000000002,
          "velocity": 0.6299212598425197
        },
        {
          "duration": 0.16216200000000214,
          "durationTicks": 48,
          "midi": 61,
          "name": "C#4",
          "ticks": 9072,
          "time": 30.648618,
          "velocity": 0.6299212598425197
        },
        {
          "duration": 0.16216199999999859,
          "durationTicks": 48,
          "midi": 63,
          "name": "D#4",
          "ticks": 9120,
          "time": 30.81078,
          "velocity": 0.6299212598425197
        },
        {
          "duration": 0.16216199999999859,
          "durationTicks": 48,
          "midi": 65,
          "name": "F4",
          "ticks": 9168,
          "time": 30.972942,
          "velocity": 0.6299212598425197
        },
        {
          "duration": 0.08108100000000107,
          "durationTicks": 24,
          "midi": 70,
          "name": "A#4",
          "ticks": 9216,
          "time": 31.135104,
          "velocity": 0.6299212598425197
        },
        {
          "duration": 0.08108100000000107,
          "durationTicks": 24,
          "midi": 70,
          "name": "A#4",
          "ticks": 9240,
          "time": 31.216185,
          "velocity": 0.6299212598425197
        },
        {
          "duration": 0.08108100000000107,
          "durationTicks": 24,
          "midi": 65,
          "name": "F4",
          "ticks": 9264,
          "time": 31.297266,
          "velocity": 0.6299212598425197
        },
        {
          "duration": 0.08108099999999752,
          "durationTicks": 24,
          "midi": 65,
          "name": "F4",
          "ticks": 9288,
          "time": 31.378347,
          "velocity": 0.6299212598425197
        },
        {
          "duration": 0.08108100000000107,
          "durationTicks": 24,
          "midi": 65,
          "name": "F4",
          "ticks": 9312,
          "time": 31.459428,
          "velocity": 0.6299212598425197
        },
        {
          "duration": 0.08108100000000107,
          "durationTicks": 24,
          "midi": 65,
          "name": "F4",
          "ticks": 9336,
          "time": 31.540509,
          "velocity": 0.6299212598425197
        },
        {
          "duration": 0.08108099999999752,
          "durationTicks": 24,
          "midi": 65,
          "name": "F4",
          "ticks": 9360,
          "time": 31.62159,
          "velocity": 0.6299212598425197
        },
        {
          "duration": 0.08108100000000107,
          "durationTicks": 24,
          "midi": 65,
          "name": "F4",
          "ticks": 9384,
          "time": 31.702671,
          "velocity": 0.6299212598425197
        },
        {
          "duration": 0.16216199999999859,
          "durationTicks": 48,
          "midi": 68,
          "name": "G#4",
          "ticks": 9408,
          "time": 31.783752,
          "velocity": 0.6299212598425197
        },
        {
          "duration": 0.16216199999999859,
          "durationTicks": 48,
          "midi": 65,
          "name": "F4",
          "ticks": 9456,
          "time": 31.945914,
          "velocity": 0.6299212598425197
        },
        {
          "duration": 0.16216200000000214,
          "durationTicks": 48,
          "midi": 68,
          "name": "G#4",
          "ticks": 9504,
          "time": 32.108076,
          "velocity": 0.6299212598425197
        },
        {
          "duration": 0.3243240000000043,
          "durationTicks": 96,
          "midi": 73,
          "name": "C#5",
          "ticks": 9552,
          "time": 32.270238,
          "velocity": 0.6299212598425197
        },
        {
          "duration": 0.16216199999999503,
          "durationTicks": 48,
          "midi": 70,
          "name": "A#4",
          "ticks": 9648,
          "time": 32.594562,
          "velocity": 0.6299212598425197
        },
        {
          "duration": 0.16216200000000214,
          "durationTicks": 48,
          "midi": 68,
          "name": "G#4",
          "ticks": 9696,
          "time": 32.756724,
          "velocity": 0.6299212598425197
        },
        {
          "duration": 0.16216200000000214,
          "durationTicks": 48,
          "midi": 65,
          "name": "F4",
          "ticks": 9744,
          "time": 32.918886,
          "velocity": 0.6299212598425197
        },
        {
          "duration": 0.16216199999999503,
          "durationTicks": 48,
          "midi": 65,
          "name": "F4",
          "ticks": 9792,
          "time": 33.081048,
          "velocity": 0.6299212598425197
        },
        {
          "duration": 0.16216200000000214,
          "durationTicks": 48,
          "midi": 68,
          "name": "G#4",
          "ticks": 9840,
          "time": 33.24321,
          "velocity": 0.6299212598425197
        },
        {
          "duration": 0.16216200000000214,
          "durationTicks": 48,
          "midi": 65,
          "name": "F4",
          "ticks": 9888,
          "time": 33.405372,
          "velocity": 0.6299212598425197
        },
        {
          "duration": 0.16216199999999503,
          "durationTicks": 48,
          "midi": 63,
          "name": "D#4",
          "ticks": 9936,
          "time": 33.567534,
          "velocity": 0.6299212598425197
        },
        {
          "duration": 0.6486480000000014,
          "durationTicks": 192,
          "midi": 61,
          "name": "C#4",
          "ticks": 9984,
          "time": 33.729696,
          "velocity": 0.6299212598425197
        },
        {
          "duration": 0.16216200000000214,
          "durationTicks": 48,
          "midi": 61,
          "name": "C#4",
          "ticks": 11664,
          "time": 39.405366,
          "velocity": 0.6299212598425197
        },
        {
          "duration": 0.16216199999999503,
          "durationTicks": 48,
          "midi": 63,
          "name": "D#4",
          "ticks": 11712,
          "time": 39.567528,
          "velocity": 0.6299212598425197
        },
        {
          "duration": 0.16216200000000214,
          "durationTicks": 48,
          "midi": 65,
          "name": "F4",
          "ticks": 11760,
          "time": 39.72969,
          "velocity": 0.6299212598425197
        },
        {
          "duration": 0.16216200000000214,
          "durationTicks": 48,
          "midi": 66,
          "name": "F#4",
          "ticks": 11808,
          "time": 39.891852,
          "velocity": 0.6299212598425197
        },
        {
          "duration": 0.16216199999999503,
          "durationTicks": 48,
          "midi": 68,
          "name": "G#4",
          "ticks": 11856,
          "time": 40.054014,
          "velocity": 0.6299212598425197
        },
        {
          "duration": 0.2837835000000055,
          "durationTicks": 84,
          "midi": 70,
          "name": "A#4",
          "ticks": 11904,
          "time": 40.216176,
          "velocity": 0.6299212598425197
        },
        {
          "duration": 0.2837834999999984,
          "durationTicks": 84,
          "midi": 68,
          "name": "G#4",
          "ticks": 12000,
          "time": 40.5405,
          "velocity": 0.6299212598425197
        },
        {
          "duration": 0.16216200000000214,
          "durationTicks": 48,
          "midi": 65,
          "name": "F4",
          "ticks": 12096,
          "time": 40.864824,
          "velocity": 0.6299212598425197
        },
        {
          "duration": 0.16216200000000214,
          "durationTicks": 48,
          "midi": 68,
          "name": "G#4",
          "ticks": 12144,
          "time": 41.026986,
          "velocity": 0.6299212598425197
        },
        {
          "duration": 0.16216199999999503,
          "durationTicks": 48,
          "midi": 65,
          "name": "F4",
          "ticks": 12192,
          "time": 41.189148,
          "velocity": 0.6299212598425197
        },
        {
          "duration": 0.16216200000000214,
          "durationTicks": 48,
          "midi": 63,
          "name": "D#4",
          "ticks": 12240,
          "time": 41.35131,
          "velocity": 0.6299212598425197
        },
        {
          "duration": 0.16216200000000214,
          "durationTicks": 48,
          "midi": 61,
          "name": "C#4",
          "ticks": 12288,
          "time": 41.513472,
          "velocity": 0.6299212598425197
        },
        {
          "duration": 0.16216199999999503,
          "durationTicks": 48,
          "midi": 60,
          "name": "C4",
          "ticks": 12336,
          "time": 41.675634,
          "velocity": 0.6299212598425197
        },
        {
          "duration": 0.16216200000000214,
          "durationTicks": 48,
          "midi": 61,
          "name": "C#4",
          "ticks": 12384,
          "time": 41.837796,
          "velocity": 0.6299212598425197
        },
        {
          "duration": 0.16216200000000214,
          "durationTicks": 48,
          "midi": 60,
          "name": "C4",
          "ticks": 12432,
          "time": 41.999958,
          "velocity": 0.6299212598425197
        },
        {
          "duration": 0.16216199999999503,
          "durationTicks": 48,
          "midi": 61,
          "name": "C#4",
          "ticks": 12480,
          "time": 42.16212,
          "velocity": 0.6299212598425197
        },
        {
          "duration": 0.16216200000000214,
          "durationTicks": 48,
          "midi": 60,
          "name": "C4",
          "ticks": 12528,
          "time": 42.324282,
          "velocity": 0.6299212598425197
        },
        {
          "duration": 0.16216200000000214,
          "durationTicks": 48,
          "midi": 61,
          "name": "C#4",
          "ticks": 12576,
          "time": 42.486444,
          "velocity": 0.6299212598425197
        },
        {
          "duration": 0.16216200000000214,
          "durationTicks": 48,
          "midi": 60,
          "name": "C4",
          "ticks": 12624,
          "time": 42.648606,
          "velocity": 0.6299212598425197
        },
        {
          "duration": 0.32432399999999717,
          "durationTicks": 96,
          "midi": 58,
          "name": "A#3",
          "ticks": 12672,
          "time": 42.810768,
          "velocity": 0.6299212598425197
        },
        {
          "duration": 0.32432399999999717,
          "durationTicks": 96,
          "midi": 77,
          "name": "F5",
          "ticks": 16128,
          "time": 54.486432,
          "velocity": 0.49606299212598426
        },
        {
          "duration": 0.32432399999999717,
          "durationTicks": 96,
          "midi": 68,
          "name": "G#4",
          "ticks": 16128,
          "time": 54.486432,
          "velocity": 0.6299212598425197
        },
        {
          "duration": 0.16216200000000214,
          "durationTicks": 48,
          "midi": 77,
          "name": "F5",
          "ticks": 16224,
          "time": 54.810756,
          "velocity": 0.49606299212598426
        },
        {
          "duration": 0.16216200000000214,
          "durationTicks": 48,
          "midi": 68,
          "name": "G#4",
          "ticks": 16224,
          "time": 54.810756,
          "velocity": 0.6299212598425197
        },
        {
          "duration": 0.16216200000000214,
          "durationTicks": 48,
          "midi": 78,
          "name": "F#5",
          "ticks": 16272,
          "time": 54.972918,
          "velocity": 0.49606299212598426
        },
        {
          "duration": 0.16216200000000214,
          "durationTicks": 48,
          "midi": 70,
          "name": "A#4",
          "ticks": 16272,
          "time": 54.972918,
          "velocity": 0.6299212598425197
        },
        {
          "duration": 0.32432399999999717,
          "durationTicks": 96,
          "midi": 77,
          "name": "F5",
          "ticks": 16320,
          "time": 55.13508,
          "velocity": 0.49606299212598426
        },
        {
          "duration": 0.32432399999999717,
          "durationTicks": 96,
          "midi": 68,
          "name": "G#4",
          "ticks": 16320,
          "time": 55.13508,
          "velocity": 0.6299212598425197
        },
        {
          "duration": 0.16216200000000214,
          "durationTicks": 48,
          "midi": 77,
          "name": "F5",
          "ticks": 16416,
          "time": 55.459404,
          "velocity": 0.49606299212598426
        },
        {
          "duration": 0.16216200000000214,
          "durationTicks": 48,
          "midi": 68,
          "name": "G#4",
          "ticks": 16416,
          "time": 55.459404,
          "velocity": 0.6299212598425197
        },
        {
          "duration": 0.16216200000000214,
          "durationTicks": 48,
          "midi": 78,
          "name": "F#5",
          "ticks": 16464,
          "time": 55.621566,
          "velocity": 0.49606299212598426
        },
        {
          "duration": 0.16216200000000214,
          "durationTicks": 48,
          "midi": 70,
          "name": "A#4",
          "ticks": 16464,
          "time": 55.621566,
          "velocity": 0.6299212598425197
        },
        {
          "duration": 0.32432399999999717,
          "durationTicks": 96,
          "midi": 77,
          "name": "F5",
          "ticks": 16512,
          "time": 55.783728,
          "velocity": 0.49606299212598426
        },
        {
          "duration": 0.32432399999999717,
          "durationTicks": 96,
          "midi": 68,
          "name": "G#4",
          "ticks": 16512,
          "time": 55.783728,
          "velocity": 0.6299212598425197
        },
        {
          "duration": 0.32432399999999717,
          "durationTicks": 96,
          "midi": 75,
          "name": "D#5",
          "ticks": 16608,
          "time": 56.108052,
          "velocity": 0.49606299212598426
        },
        {
          "duration": 0.32432399999999717,
          "durationTicks": 96,
          "midi": 66,
          "name": "F#4",
          "ticks": 16608,
          "time": 56.108052,
          "velocity": 0.6299212598425197
        },
        {
          "duration": 0.3243240000000043,
          "durationTicks": 96,
          "midi": 73,
          "name": "C#5",
          "ticks": 16704,
          "time": 56.432376,
          "velocity": 0.49606299212598426
        },
        {
          "duration": 0.3243240000000043,
          "durationTicks": 96,
          "midi": 65,
          "name": "F4",
          "ticks": 16704,
          "time": 56.432376,
          "velocity": 0.6299212598425197
        },
        {
          "duration": 0.16216199999999503,
          "durationTicks": 48,
          "midi": 72,
          "name": "C5",
          "ticks": 16800,
          "time": 56.7567,
          "velocity": 0.49606299212598426
        },
        {
          "duration": 0.16216199999999503,
          "durationTicks": 48,
          "midi": 63,
          "name": "D#4",
          "ticks": 16800,
          "time": 56.7567,
          "velocity": 0.6299212598425197
        },
        {
          "duration": 0.16216200000000214,
          "durationTicks": 48,
          "midi": 70,
          "name": "A#4",
          "ticks": 16848,
          "time": 56.918862,
          "velocity": 0.49606299212598426
        },
        {
          "duration": 0.16216200000000214,
          "durationTicks": 48,
          "midi": 61,
          "name": "C#4",
          "ticks": 16848,
          "time": 56.918862,
          "velocity": 0.6299212598425197
        },
        {
          "duration": 0.16216200000000214,
          "durationTicks": 48,
          "midi": 72,
          "name": "C5",
          "ticks": 16896,
          "time": 57.081024,
          "velocity": 0.49606299212598426
        },
        {
          "duration": 0.16216200000000214,
          "durationTicks": 48,
          "midi": 63,
          "name": "D#4",
          "ticks": 16896,
          "time": 57.081024,
          "velocity": 0.6299212598425197
        },
        {
          "duration": 0.16216200000000214,
          "durationTicks": 48,
          "midi": 70,
          "name": "A#4",
          "ticks": 16944,
          "time": 57.243186,
          "velocity": 0.49606299212598426
        },
        {
          "duration": 0.16216200000000214,
          "durationTicks": 48,
          "midi": 61,
          "name": "C#4",
          "ticks": 16944,
          "time": 57.243186,
          "velocity": 0.6299212598425197
        },
        {
          "duration": 0.16216199999999503,
          "durationTicks": 48,
          "midi": 72,
          "name": "C5",
          "ticks": 16992,
          "time": 57.405348000000004,
          "velocity": 0.49606299212598426
        },
        {
          "duration": 0.16216199999999503,
          "durationTicks": 48,
          "midi": 63,
          "name": "D#4",
          "ticks": 16992,
          "time": 57.405348000000004,
          "velocity": 0.6299212598425197
        },
        {
          "duration": 0.16216200000000214,
          "durationTicks": 48,
          "midi": 70,
          "name": "A#4",
          "ticks": 17040,
          "time": 57.56751,
          "velocity": 0.49606299212598426
        },
        {
          "duration": 0.16216200000000214,
          "durationTicks": 48,
          "midi": 61,
          "name": "C#4",
          "ticks": 17040,
          "time": 57.56751,
          "velocity": 0.6299212598425197
        },
        {
          "duration": 0.16216200000000214,
          "durationTicks": 48,
          "midi": 72,
          "name": "C5",
          "ticks": 17088,
          "time": 57.729672,
          "velocity": 0.49606299212598426
        },
        {
          "duration": 0.16216200000000214,
          "durationTicks": 48,
          "midi": 63,
          "name": "D#4",
          "ticks": 17088,
          "time": 57.729672,
          "velocity": 0.6299212598425197
        },
        {
          "duration": 0.16216199999999503,
          "durationTicks": 48,
          "midi": 73,
          "name": "C#5",
          "ticks": 17136,
          "time": 57.891834,
          "velocity": 0.49606299212598426
        },
        {
          "duration": 0.16216199999999503,
          "durationTicks": 48,
          "midi": 65,
          "name": "F4",
          "ticks": 17136,
          "time": 57.891834,
          "velocity": 0.6299212598425197
        },
        {
          "duration": 0.32432399999999717,
          "durationTicks": 96,
          "midi": 73,
          "name": "C#5",
          "ticks": 17232,
          "time": 58.216158,
          "velocity": 0.49606299212598426
        },
        {
          "duration": 0.32432399999999717,
          "durationTicks": 96,
          "midi": 65,
          "name": "F4",
          "ticks": 17232,
          "time": 58.216158,
          "velocity": 0.6299212598425197
        },
        {
          "duration": 0.16216200000000214,
          "durationTicks": 48,
          "midi": 75,
          "name": "D#5",
          "ticks": 17328,
          "time": 58.540482,
          "velocity": 0.49606299212598426
        },
        {
          "duration": 0.16216200000000214,
          "durationTicks": 48,
          "midi": 66,
          "name": "F#4",
          "ticks": 17328,
          "time": 58.540482,
          "velocity": 0.6299212598425197
        },
        {
          "duration": 0.16216200000000214,
          "durationTicks": 48,
          "midi": 73,
          "name": "C#5",
          "ticks": 17376,
          "time": 58.702644,
          "velocity": 0.49606299212598426
        },
        {
          "duration": 0.16216200000000214,
          "durationTicks": 48,
          "midi": 65,
          "name": "F4",
          "ticks": 17376,
          "time": 58.702644,
          "velocity": 0.6299212598425197
        },
        {
          "duration": 0.16216200000000214,
          "durationTicks": 48,
          "midi": 75,
          "name": "D#5",
          "ticks": 17424,
          "time": 58.864806,
          "velocity": 0.49606299212598426
        },
        {
          "duration": 0.16216200000000214,
          "durationTicks": 48,
          "midi": 66,
          "name": "F#4",
          "ticks": 17424,
          "time": 58.864806,
          "velocity": 0.6299212598425197
        },
        {
          "duration": 0.32432399999999717,
          "durationTicks": 96,
          "midi": 73,
          "name": "C#5",
          "ticks": 17472,
          "time": 59.026968000000004,
          "velocity": 0.49606299212598426
        },
        {
          "duration": 0.32432399999999717,
          "durationTicks": 96,
          "midi": 65,
          "name": "F4",
          "ticks": 17472,
          "time": 59.026968000000004,
          "velocity": 0.6299212598425197
        },
        {
          "duration": 0.16216200000000214,
          "durationTicks": 48,
          "midi": 72,
          "name": "C5",
          "ticks": 17568,
          "time": 59.351292,
          "velocity": 0.49606299212598426
        },
        {
          "duration": 0.16216200000000214,
          "durationTicks": 48,
          "midi": 63,
          "name": "D#4",
          "ticks": 17568,
          "time": 59.351292,
          "velocity": 0.6299212598425197
        },
        {
          "duration": 0.16216199999999503,
          "durationTicks": 48,
          "midi": 70,
          "name": "A#4",
          "ticks": 17616,
          "time": 59.513454,
          "velocity": 0.49606299212598426
        },
        {
          "duration": 0.16216199999999503,
          "durationTicks": 48,
          "midi": 61,
          "name": "C#4",
          "ticks": 17616,
          "time": 59.513454,
          "velocity": 0.6299212598425197
        },
        {
          "duration": 0.3243240000000043,
          "durationTicks": 96,
          "midi": 77,
          "name": "F5",
          "ticks": 17664,
          "time": 59.675616,
          "velocity": 0.49606299212598426
        },
        {
          "duration": 0.3243240000000043,
          "durationTicks": 96,
          "midi": 68,
          "name": "G#4",
          "ticks": 17664,
          "time": 59.675616,
          "velocity": 0.6299212598425197
        },
        {
          "duration": 0.16216199999999503,
          "durationTicks": 48,
          "midi": 77,
          "name": "F5",
          "ticks": 17760,
          "time": 59.99994,
          "velocity": 0.49606299212598426
        },
        {
          "duration": 0.16216199999999503,
          "durationTicks": 48,
          "midi": 68,
          "name": "G#4",
          "ticks": 17760,
          "time": 59.99994,
          "velocity": 0.6299212598425197
        },
        {
          "duration": 0.16216200000000214,
          "durationTicks": 48,
          "midi": 78,
          "name": "F#5",
          "ticks": 17808,
          "time": 60.162102,
          "velocity": 0.49606299212598426
        },
        {
          "duration": 0.16216200000000214,
          "durationTicks": 48,
          "midi": 70,
          "name": "A#4",
          "ticks": 17808,
          "time": 60.162102,
          "velocity": 0.6299212598425197
        },
        {
          "duration": 0.3243240000000043,
          "durationTicks": 96,
          "midi": 77,
          "name": "F5",
          "ticks": 17856,
          "time": 60.324264,
          "velocity": 0.49606299212598426
        },
        {
          "duration": 0.3243240000000043,
          "durationTicks": 96,
          "midi": 68,
          "name": "G#4",
          "ticks": 17856,
          "time": 60.324264,
          "velocity": 0.6299212598425197
        },
        {
          "duration": 0.16216199999999503,
          "durationTicks": 48,
          "midi": 77,
          "name": "F5",
          "ticks": 17952,
          "time": 60.648588000000004,
          "velocity": 0.49606299212598426
        },
        {
          "duration": 0.16216199999999503,
          "durationTicks": 48,
          "midi": 68,
          "name": "G#4",
          "ticks": 17952,
          "time": 60.648588000000004,
          "velocity": 0.6299212598425197
        },
        {
          "duration": 0.16216200000000214,
          "durationTicks": 48,
          "midi": 78,
          "name": "F#5",
          "ticks": 18000,
          "time": 60.81075,
          "velocity": 0.49606299212598426
        },
        {
          "duration": 0.16216200000000214,
          "durationTicks": 48,
          "midi": 70,
          "name": "A#4",
          "ticks": 18000,
          "time": 60.81075,
          "velocity": 0.6299212598425197
        },
        {
          "duration": 0.32432399999999717,
          "durationTicks": 96,
          "midi": 77,
          "name": "F5",
          "ticks": 18048,
          "time": 60.972912,
          "velocity": 0.49606299212598426
        },
        {
          "duration": 0.32432399999999717,
          "durationTicks": 96,
          "midi": 68,
          "name": "G#4",
          "ticks": 18048,
          "time": 60.972912,
          "velocity": 0.6299212598425197
        },
        {
          "duration": 0.3243240000000043,
          "durationTicks": 96,
          "midi": 75,
          "name": "D#5",
          "ticks": 18144,
          "time": 61.297236,
          "velocity": 0.49606299212598426
        },
        {
          "duration": 0.3243240000000043,
          "durationTicks": 96,
          "midi": 66,
          "name": "F#4",
          "ticks": 18144,
          "time": 61.297236,
          "velocity": 0.6299212598425197
        },
        {
          "duration": 0.32432399999999717,
          "durationTicks": 96,
          "midi": 73,
          "name": "C#5",
          "ticks": 18240,
          "time": 61.62156,
          "velocity": 0.49606299212598426
        },
        {
          "duration": 0.32432399999999717,
          "durationTicks": 96,
          "midi": 65,
          "name": "F4",
          "ticks": 18240,
          "time": 61.62156,
          "velocity": 0.6299212598425197
        },
        {
          "duration": 0.16216200000000214,
          "durationTicks": 48,
          "midi": 72,
          "name": "C5",
          "ticks": 18336,
          "time": 61.945884,
          "velocity": 0.49606299212598426
        },
        {
          "duration": 0.16216200000000214,
          "durationTicks": 48,
          "midi": 63,
          "name": "D#4",
          "ticks": 18336,
          "time": 61.945884,
          "velocity": 0.6299212598425197
        },
        {
          "duration": 0.16216199999999503,
          "durationTicks": 48,
          "midi": 70,
          "name": "A#4",
          "ticks": 18384,
          "time": 62.108046,
          "velocity": 0.49606299212598426
        },
        {
          "duration": 0.16216199999999503,
          "durationTicks": 48,
          "midi": 61,
          "name": "C#4",
          "ticks": 18384,
          "time": 62.108046,
          "velocity": 0.6299212598425197
        },
        {
          "duration": 0.16216200000000214,
          "durationTicks": 48,
          "midi": 72,
          "name": "C5",
          "ticks": 18432,
          "time": 62.270208,
          "velocity": 0.49606299212598426
        },
        {
          "duration": 0.16216200000000214,
          "durationTicks": 48,
          "midi": 63,
          "name": "D#4",
          "ticks": 18432,
          "time": 62.270208,
          "velocity": 0.6299212598425197
        },
        {
          "duration": 0.16216200000000214,
          "durationTicks": 48,
          "midi": 70,
          "name": "A#4",
          "ticks": 18480,
          "time": 62.43237,
          "velocity": 0.49606299212598426
        },
        {
          "duration": 0.16216200000000214,
          "durationTicks": 48,
          "midi": 61,
          "name": "C#4",
          "ticks": 18480,
          "time": 62.43237,
          "velocity": 0.6299212598425197
        },
        {
          "duration": 0.16216200000000214,
          "durationTicks": 48,
          "midi": 72,
          "name": "C5",
          "ticks": 18528,
          "time": 62.594532,
          "velocity": 0.49606299212598426
        },
        {
          "duration": 0.16216200000000214,
          "durationTicks": 48,
          "midi": 63,
          "name": "D#4",
          "ticks": 18528,
          "time": 62.594532,
          "velocity": 0.6299212598425197
        },
        {
          "duration": 0.16216199999999503,
          "durationTicks": 48,
          "midi": 70,
          "name": "A#4",
          "ticks": 18576,
          "time": 62.756694,
          "velocity": 0.49606299212598426
        },
        {
          "duration": 0.16216199999999503,
          "durationTicks": 48,
          "midi": 61,
          "name": "C#4",
          "ticks": 18576,
          "time": 62.756694,
          "velocity": 0.6299212598425197
        },
        {
          "duration": 0.16216200000000214,
          "durationTicks": 48,
          "midi": 72,
          "name": "C5",
          "ticks": 18624,
          "time": 62.918856,
          "velocity": 0.49606299212598426
        },
        {
          "duration": 0.16216200000000214,
          "durationTicks": 48,
          "midi": 63,
          "name": "D#4",
          "ticks": 18624,
          "time": 62.918856,
          "velocity": 0.6299212598425197
        },
        {
          "duration": 0.16216200000000214,
          "durationTicks": 48,
          "midi": 82,
          "name": "A#5",
          "ticks": 18672,
          "time": 63.081018,
          "velocity": 0.49606299212598426
        },
        {
          "duration": 0.16216200000000214,
          "durationTicks": 48,
          "midi": 73,
          "name": "C#5",
          "ticks": 18672,
          "time": 63.081018,
          "velocity": 0.49606299212598426
        },
        {
          "duration": 0.3243240000000043,
          "durationTicks": 96,
          "midi": 77,
          "name": "F5",
          "ticks": 18768,
          "time": 63.405342,
          "velocity": 0.49606299212598426
        },
        {
          "duration": 0.3243240000000043,
          "durationTicks": 96,
          "midi": 70,
          "name": "A#4",
          "ticks": 18768,
          "time": 63.405342,
          "velocity": 0.6299212598425197
        },
        {
          "duration": 0.16216199999999503,
          "durationTicks": 48,
          "midi": 77,
          "name": "F5",
          "ticks": 18864,
          "time": 63.729666,
          "velocity": 0.49606299212598426
        },
        {
          "duration": 0.16216199999999503,
          "durationTicks": 48,
          "midi": 70,
          "name": "A#4",
          "ticks": 18864,
          "time": 63.729666,
          "velocity": 0.6299212598425197
        },
        {
          "duration": 0.16216200000000214,
          "durationTicks": 48,
          "midi": 76,
          "name": "E5",
          "ticks": 18912,
          "time": 63.891828,
          "velocity": 0.49606299212598426
        },
        {
          "duration": 0.16216200000000214,
          "durationTicks": 48,
          "midi": 69,
          "name": "A4",
          "ticks": 18912,
          "time": 63.891828,
          "velocity": 0.6299212598425197
        },
        {
          "duration": 0.16216199999999503,
          "durationTicks": 48,
          "midi": 76,
          "name": "E5",
          "ticks": 18960,
          "time": 64.05399,
          "velocity": 0.49606299212598426
        },
        {
          "duration": 0.16216199999999503,
          "durationTicks": 48,
          "midi": 69,
          "name": "A4",
          "ticks": 18960,
          "time": 64.05399,
          "velocity": 0.6299212598425197
        },
        {
          "duration": 0.16216200000000924,
          "durationTicks": 48,
          "midi": 75,
          "name": "D#5",
          "ticks": 19008,
          "time": 64.216152,
          "velocity": 0.49606299212598426
        },
        {
          "duration": 0.16216200000000924,
          "durationTicks": 48,
          "midi": 68,
          "name": "G#4",
          "ticks": 19008,
          "time": 64.216152,
          "velocity": 0.6299212598425197
        },
        {
          "duration": 0.16216199999999503,
          "durationTicks": 48,
          "midi": 75,
          "name": "D#5",
          "ticks": 19056,
          "time": 64.378314,
          "velocity": 0.49606299212598426
        },
        {
          "duration": 0.16216199999999503,
          "durationTicks": 48,
          "midi": 68,
          "name": "G#4",
          "ticks": 19056,
          "time": 64.378314,
          "velocity": 0.6299212598425197
        },
        {
          "duration": 0.16216199999999503,
          "durationTicks": 48,
          "midi": 74,
          "name": "D5",
          "ticks": 19104,
          "time": 64.540476,
          "velocity": 0.49606299212598426
        },
        {
          "duration": 0.16216199999999503,
          "durationTicks": 48,
          "midi": 66,
          "name": "F#4",
          "ticks": 19104,
          "time": 64.540476,
          "velocity": 0.6299212598425197
        },
        {
          "duration": 0.16216200000000924,
          "durationTicks": 48,
          "midi": 73,
          "name": "C#5",
          "ticks": 19152,
          "time": 64.702638,
          "velocity": 0.49606299212598426
        },
        {
          "duration": 0.16216200000000924,
          "durationTicks": 48,
          "midi": 65,
          "name": "F4",
          "ticks": 19152,
          "time": 64.702638,
          "velocity": 0.6299212598425197
        },
        {
          "duration": 0.16216199999999503,
          "durationTicks": 48,
          "midi": 72,
          "name": "C5",
          "ticks": 19200,
          "time": 64.8648,
          "velocity": 0.49606299212598426
        },
        {
          "duration": 0.16216199999999503,
          "durationTicks": 48,
          "midi": 63,
          "name": "D#4",
          "ticks": 19200,
          "time": 64.8648,
          "velocity": 0.6299212598425197
        },
        {
          "duration": 0.32432399999999006,
          "durationTicks": 96,
          "midi": 69,
          "name": "A4",
          "ticks": 38400,
          "time": 129.7296,
          "velocity": 0.6299212598425197
        },
        {
          "duration": 0.32432399999999006,
          "durationTicks": 96,
          "midi": 78,
          "name": "F#5",
          "ticks": 38400,
          "time": 129.7296,
          "velocity": 0.49606299212598426
        },
        {
          "duration": 0.16216199999999503,
          "durationTicks": 48,
          "midi": 78,
          "name": "F#5",
          "ticks": 38496,
          "time": 130.053924,
          "velocity": 0.49606299212598426
        },
        {
          "duration": 0.16216199999999503,
          "durationTicks": 48,
          "midi": 69,
          "name": "A4",
          "ticks": 38496,
          "time": 130.053924,
          "velocity": 0.6299212598425197
        },
        {
          "duration": 0.16216200000002345,
          "durationTicks": 48,
          "midi": 79,
          "name": "G5",
          "ticks": 38544,
          "time": 130.216086,
          "velocity": 0.49606299212598426
        },
        {
          "duration": 0.16216200000002345,
          "durationTicks": 48,
          "midi": 71,
          "name": "B4",
          "ticks": 38544,
          "time": 130.216086,
          "velocity": 0.6299212598425197
        },
        {
          "duration": 0.32432399999999006,
          "durationTicks": 96,
          "midi": 78,
          "name": "F#5",
          "ticks": 38592,
          "time": 130.378248,
          "velocity": 0.49606299212598426
        },
        {
          "duration": 0.32432399999999006,
          "durationTicks": 96,
          "midi": 69,
          "name": "A4",
          "ticks": 38592,
          "time": 130.378248,
          "velocity": 0.6299212598425197
        },
        {
          "duration": 0.16216199999999503,
          "durationTicks": 48,
          "midi": 78,
          "name": "F#5",
          "ticks": 38688,
          "time": 130.702572,
          "velocity": 0.49606299212598426
        },
        {
          "duration": 0.16216199999999503,
          "durationTicks": 48,
          "midi": 69,
          "name": "A4",
          "ticks": 38688,
          "time": 130.702572,
          "velocity": 0.6299212598425197
        },
        {
          "duration": 0.16216199999999503,
          "durationTicks": 48,
          "midi": 79,
          "name": "G5",
          "ticks": 38736,
          "time": 130.864734,
          "velocity": 0.49606299212598426
        },
        {
          "duration": 0.16216199999999503,
          "durationTicks": 48,
          "midi": 71,
          "name": "B4",
          "ticks": 38736,
          "time": 130.864734,
          "velocity": 0.6299212598425197
        },
        {
          "duration": 0.3243240000000185,
          "durationTicks": 96,
          "midi": 69,
          "name": "A4",
          "ticks": 38784,
          "time": 131.026896,
          "velocity": 0.6299212598425197
        },
        {
          "duration": 0.3243240000000185,
          "durationTicks": 96,
          "midi": 78,
          "name": "F#5",
          "ticks": 38784,
          "time": 131.026896,
          "velocity": 0.49606299212598426
        },
        {
          "duration": 0.32432399999999006,
          "durationTicks": 96,
          "midi": 67,
          "name": "G4",
          "ticks": 38880,
          "time": 131.35122,
          "velocity": 0.6299212598425197
        },
        {
          "duration": 0.32432399999999006,
          "durationTicks": 96,
          "midi": 76,
          "name": "E5",
          "ticks": 38880,
          "time": 131.35122,
          "velocity": 0.49606299212598426
        },
        {
          "duration": 0.32432399999999006,
          "durationTicks": 96,
          "midi": 66,
          "name": "F#4",
          "ticks": 38976,
          "time": 131.675544,
          "velocity": 0.6299212598425197
        },
        {
          "duration": 0.32432399999999006,
          "durationTicks": 96,
          "midi": 74,
          "name": "D5",
          "ticks": 38976,
          "time": 131.675544,
          "velocity": 0.49606299212598426
        },
        {
          "duration": 0.16216199999999503,
          "durationTicks": 48,
          "midi": 73,
          "name": "C#5",
          "ticks": 39072,
          "time": 131.999868,
          "velocity": 0.49606299212598426
        },
        {
          "duration": 0.16216199999999503,
          "durationTicks": 48,
          "midi": 64,
          "name": "E4",
          "ticks": 39072,
          "time": 131.999868,
          "velocity": 0.6299212598425197
        },
        {
          "duration": 0.16216200000002345,
          "durationTicks": 48,
          "midi": 71,
          "name": "B4",
          "ticks": 39120,
          "time": 132.16203,
          "velocity": 0.49606299212598426
        },
        {
          "duration": 0.16216200000002345,
          "durationTicks": 48,
          "midi": 62,
          "name": "D4",
          "ticks": 39120,
          "time": 132.16203,
          "velocity": 0.6299212598425197
        },
        {
          "duration": 0.16216199999999503,
          "durationTicks": 48,
          "midi": 64,
          "name": "E4",
          "ticks": 39168,
          "time": 132.324192,
          "velocity": 0.6299212598425197
        },
        {
          "duration": 0.16216199999999503,
          "durationTicks": 48,
          "midi": 73,
          "name": "C#5",
          "ticks": 39168,
          "time": 132.324192,
          "velocity": 0.49606299212598426
        },
        {
          "duration": 0.16216199999999503,
          "durationTicks": 48,
          "midi": 71,
          "name": "B4",
          "ticks": 39216,
          "time": 132.486354,
          "velocity": 0.49606299212598426
        },
        {
          "duration": 0.16216199999999503,
          "durationTicks": 48,
          "midi": 62,
          "name": "D4",
          "ticks": 39216,
          "time": 132.486354,
          "velocity": 0.6299212598425197
        },
        {
          "duration": 0.16216199999999503,
          "durationTicks": 48,
          "midi": 64,
          "name": "E4",
          "ticks": 39264,
          "time": 132.648516,
          "velocity": 0.6299212598425197
        },
        {
          "duration": 0.16216199999999503,
          "durationTicks": 48,
          "midi": 73,
          "name": "C#5",
          "ticks": 39264,
          "time": 132.648516,
          "velocity": 0.49606299212598426
        },
        {
          "duration": 0.16216199999999503,
          "durationTicks": 48,
          "midi": 71,
          "name": "B4",
          "ticks": 39312,
          "time": 132.810678,
          "velocity": 0.49606299212598426
        },
        {
          "duration": 0.16216199999999503,
          "durationTicks": 48,
          "midi": 62,
          "name": "D4",
          "ticks": 39312,
          "time": 132.810678,
          "velocity": 0.6299212598425197
        },
        {
          "duration": 0.16216200000002345,
          "durationTicks": 48,
          "midi": 64,
          "name": "E4",
          "ticks": 39360,
          "time": 132.97284,
          "velocity": 0.6299212598425197
        },
        {
          "duration": 0.16216200000002345,
          "durationTicks": 48,
          "midi": 73,
          "name": "C#5",
          "ticks": 39360,
          "time": 132.97284,
          "velocity": 0.49606299212598426
        },
        {
          "duration": 0.16216199999999503,
          "durationTicks": 48,
          "midi": 74,
          "name": "D5",
          "ticks": 39408,
          "time": 133.13500200000001,
          "velocity": 0.49606299212598426
        },
        {
          "duration": 0.16216199999999503,
          "durationTicks": 48,
          "midi": 66,
          "name": "F#4",
          "ticks": 39408,
          "time": 133.13500200000001,
          "velocity": 0.6299212598425197
        },
        {
          "duration": 0.32432399999999006,
          "durationTicks": 96,
          "midi": 74,
          "name": "D5",
          "ticks": 39504,
          "time": 133.459326,
          "velocity": 0.49606299212598426
        },
        {
          "duration": 0.32432399999999006,
          "durationTicks": 96,
          "midi": 66,
          "name": "F#4",
          "ticks": 39504,
          "time": 133.459326,
          "velocity": 0.6299212598425197
        },
        {
          "duration": 0.16216199999999503,
          "durationTicks": 48,
          "midi": 76,
          "name": "E5",
          "ticks": 39600,
          "time": 133.78365,
          "velocity": 0.49606299212598426
        },
        {
          "duration": 0.16216199999999503,
          "durationTicks": 48,
          "midi": 67,
          "name": "G4",
          "ticks": 39600,
          "time": 133.78365,
          "velocity": 0.6299212598425197
        },
        {
          "duration": 0.16216200000002345,
          "durationTicks": 48,
          "midi": 74,
          "name": "D5",
          "ticks": 39648,
          "time": 133.945812,
          "velocity": 0.49606299212598426
        },
        {
          "duration": 0.16216200000002345,
          "durationTicks": 48,
          "midi": 66,
          "name": "F#4",
          "ticks": 39648,
          "time": 133.945812,
          "velocity": 0.6299212598425197
        },
        {
          "duration": 0.16216199999999503,
          "durationTicks": 48,
          "midi": 76,
          "name": "E5",
          "ticks": 39696,
          "time": 134.107974,
          "velocity": 0.49606299212598426
        },
        {
          "duration": 0.16216199999999503,
          "durationTicks": 48,
          "midi": 67,
          "name": "G4",
          "ticks": 39696,
          "time": 134.107974,
          "velocity": 0.6299212598425197
        },
        {
          "duration": 0.32432399999999006,
          "durationTicks": 96,
          "midi": 66,
          "name": "F#4",
          "ticks": 39744,
          "time": 134.270136,
          "velocity": 0.6299212598425197
        },
        {
          "duration": 0.32432399999999006,
          "durationTicks": 96,
          "midi": 74,
          "name": "D5",
          "ticks": 39744,
          "time": 134.270136,
          "velocity": 0.49606299212598426
        },
        {
          "duration": 0.16216199999999503,
          "durationTicks": 48,
          "midi": 73,
          "name": "C#5",
          "ticks": 39840,
          "time": 134.59446,
          "velocity": 0.49606299212598426
        },
        {
          "duration": 0.16216199999999503,
          "durationTicks": 48,
          "midi": 64,
          "name": "E4",
          "ticks": 39840,
          "time": 134.59446,
          "velocity": 0.6299212598425197
        },
        {
          "duration": 0.16216199999999503,
          "durationTicks": 48,
          "midi": 71,
          "name": "B4",
          "ticks": 39888,
          "time": 134.756622,
          "velocity": 0.49606299212598426
        },
        {
          "duration": 0.16216199999999503,
          "durationTicks": 48,
          "midi": 62,
          "name": "D4",
          "ticks": 39888,
          "time": 134.756622,
          "velocity": 0.6299212598425197
        },
        {
          "duration": 0.16216200000002345,
          "durationTicks": 48,
          "midi": 69,
          "name": "A4",
          "ticks": 39936,
          "time": 134.918784,
          "velocity": 0.6299212598425197
        },
        {
          "duration": 0.16216200000002345,
          "durationTicks": 48,
          "midi": 78,
          "name": "F#5",
          "ticks": 39936,
          "time": 134.918784,
          "velocity": 0.49606299212598426
        },
        {
          "duration": 0.16216199999999503,
          "durationTicks": 48,
          "midi": 69,
          "name": "A4",
          "ticks": 40008,
          "time": 135.162027,
          "velocity": 0.6299212598425197
        },
        {
          "duration": 0.16216199999999503,
          "durationTicks": 48,
          "midi": 78,
          "name": "F#5",
          "ticks": 40008,
          "time": 135.162027,
          "velocity": 0.49606299212598426
        },
        {
          "duration": 0.16216199999999503,
          "durationTicks": 48,
          "midi": 79,
          "name": "G5",
          "ticks": 40080,
          "time": 135.40527,
          "velocity": 0.49606299212598426
        },
        {
          "duration": 0.16216199999999503,
          "durationTicks": 48,
          "midi": 71,
          "name": "B4",
          "ticks": 40080,
          "time": 135.40527,
          "velocity": 0.6299212598425197
        },
        {
          "duration": 0.32432399999999006,
          "durationTicks": 96,
          "midi": 78,
          "name": "F#5",
          "ticks": 40128,
          "time": 135.567432,
          "velocity": 0.49606299212598426
        },
        {
          "duration": 0.32432399999999006,
          "durationTicks": 96,
          "midi": 69,
          "name": "A4",
          "ticks": 40128,
          "time": 135.567432,
          "velocity": 0.6299212598425197
        },
        {
          "duration": 0.16216200000002345,
          "durationTicks": 48,
          "midi": 78,
          "name": "F#5",
          "ticks": 40224,
          "time": 135.891756,
          "velocity": 0.49606299212598426
        },
        {
          "duration": 0.16216200000002345,
          "durationTicks": 48,
          "midi": 69,
          "name": "A4",
          "ticks": 40224,
          "time": 135.891756,
          "velocity": 0.6299212598425197
        },
        {
          "duration": 0.16216199999999503,
          "durationTicks": 48,
          "midi": 79,
          "name": "G5",
          "ticks": 40272,
          "time": 136.053918,
          "velocity": 0.49606299212598426
        },
        {
          "duration": 0.16216199999999503,
          "durationTicks": 48,
          "midi": 71,
          "name": "B4",
          "ticks": 40272,
          "time": 136.053918,
          "velocity": 0.6299212598425197
        },
        {
          "duration": 0.32432399999999006,
          "durationTicks": 96,
          "midi": 69,
          "name": "A4",
          "ticks": 40320,
          "time": 136.21608,
          "velocity": 0.6299212598425197
        },
        {
          "duration": 0.32432399999999006,
          "durationTicks": 96,
          "midi": 78,
          "name": "F#5",
          "ticks": 40320,
          "time": 136.21608,
          "velocity": 0.49606299212598426
        },
        {
          "duration": 0.3243240000000185,
          "durationTicks": 96,
          "midi": 67,
          "name": "G4",
          "ticks": 40416,
          "time": 136.540404,
          "velocity": 0.6299212598425197
        },
        {
          "duration": 0.3243240000000185,
          "durationTicks": 96,
          "midi": 76,
          "name": "E5",
          "ticks": 40416,
          "time": 136.540404,
          "velocity": 0.49606299212598426
        },
        {
          "duration": 0.32432399999999006,
          "durationTicks": 96,
          "midi": 66,
          "name": "F#4",
          "ticks": 40512,
          "time": 136.864728,
          "velocity": 0.6299212598425197
        },
        {
          "duration": 0.32432399999999006,
          "durationTicks": 96,
          "midi": 74,
          "name": "D5",
          "ticks": 40512,
          "time": 136.864728,
          "velocity": 0.49606299212598426
        },
        {
          "duration": 0.16216199999999503,
          "durationTicks": 48,
          "midi": 73,
          "name": "C#5",
          "ticks": 40608,
          "time": 137.189052,
          "velocity": 0.49606299212598426
        },
        {
          "duration": 0.16216199999999503,
          "durationTicks": 48,
          "midi": 64,
          "name": "E4",
          "ticks": 40608,
          "time": 137.189052,
          "velocity": 0.6299212598425197
        },
        {
          "duration": 0.16216199999999503,
          "durationTicks": 48,
          "midi": 71,
          "name": "B4",
          "ticks": 40656,
          "time": 137.351214,
          "velocity": 0.49606299212598426
        },
        {
          "duration": 0.16216199999999503,
          "durationTicks": 48,
          "midi": 62,
          "name": "D4",
          "ticks": 40656,
          "time": 137.351214,
          "velocity": 0.6299212598425197
        },
        {
          "duration": 0.16216199999999503,
          "durationTicks": 48,
          "midi": 64,
          "name": "E4",
          "ticks": 40704,
          "time": 137.513376,
          "velocity": 0.6299212598425197
        },
        {
          "duration": 0.16216199999999503,
          "durationTicks": 48,
          "midi": 73,
          "name": "C#5",
          "ticks": 40704,
          "time": 137.513376,
          "velocity": 0.49606299212598426
        },
        {
          "duration": 0.16216200000002345,
          "durationTicks": 48,
          "midi": 71,
          "name": "B4",
          "ticks": 40752,
          "time": 137.675538,
          "velocity": 0.49606299212598426
        },
        {
          "duration": 0.16216200000002345,
          "durationTicks": 48,
          "midi": 62,
          "name": "D4",
          "ticks": 40752,
          "time": 137.675538,
          "velocity": 0.6299212598425197
        },
        {
          "duration": 0.16216199999999503,
          "durationTicks": 48,
          "midi": 64,
          "name": "E4",
          "ticks": 40800,
          "time": 137.8377,
          "velocity": 0.6299212598425197
        },
        {
          "duration": 0.16216199999999503,
          "durationTicks": 48,
          "midi": 73,
          "name": "C#5",
          "ticks": 40800,
          "time": 137.8377,
          "velocity": 0.49606299212598426
        },
        {
          "duration": 0.16216199999999503,
          "durationTicks": 48,
          "midi": 71,
          "name": "B4",
          "ticks": 40848,
          "time": 137.999862,
          "velocity": 0.49606299212598426
        },
        {
          "duration": 0.16216199999999503,
          "durationTicks": 48,
          "midi": 62,
          "name": "D4",
          "ticks": 40848,
          "time": 137.999862,
          "velocity": 0.6299212598425197
        },
        {
          "duration": 0.16216199999999503,
          "durationTicks": 48,
          "midi": 64,
          "name": "E4",
          "ticks": 40896,
          "time": 138.162024,
          "velocity": 0.6299212598425197
        },
        {
          "duration": 0.16216199999999503,
          "durationTicks": 48,
          "midi": 73,
          "name": "C#5",
          "ticks": 40896,
          "time": 138.162024,
          "velocity": 0.49606299212598426
        },
        {
          "duration": 0.16216199999999503,
          "durationTicks": 48,
          "midi": 83,
          "name": "B5",
          "ticks": 40944,
          "time": 138.324186,
          "velocity": 0.49606299212598426
        },
        {
          "duration": 0.16216199999999503,
          "durationTicks": 48,
          "midi": 74,
          "name": "D5",
          "ticks": 40944,
          "time": 138.324186,
          "velocity": 0.49606299212598426
        },
        {
          "duration": 0.3243240000000185,
          "durationTicks": 96,
          "midi": 78,
          "name": "F#5",
          "ticks": 41040,
          "time": 138.64851,
          "velocity": 0.49606299212598426
        },
        {
          "duration": 0.3243240000000185,
          "durationTicks": 96,
          "midi": 71,
          "name": "B4",
          "ticks": 41040,
          "time": 138.64851,
          "velocity": 0.6299212598425197
        },
        {
          "duration": 0.16216199999999503,
          "durationTicks": 48,
          "midi": 78,
          "name": "F#5",
          "ticks": 41136,
          "time": 138.972834,
          "velocity": 0.49606299212598426
        },
        {
          "duration": 0.16216199999999503,
          "durationTicks": 48,
          "midi": 71,
          "name": "B4",
          "ticks": 41136,
          "time": 138.972834,
          "velocity": 0.6299212598425197
        },
        {
          "duration": 0.16216199999999503,
          "durationTicks": 48,
          "midi": 77,
          "name": "F5",
          "ticks": 41184,
          "time": 139.134996,
          "velocity": 0.49606299212598426
        },
        {
          "duration": 0.16216199999999503,
          "durationTicks": 48,
          "midi": 70,
          "name": "A#4",
          "ticks": 41184,
          "time": 139.134996,
          "velocity": 0.6299212598425197
        },
        {
          "duration": 0.16216199999999503,
          "durationTicks": 48,
          "midi": 77,
          "name": "F5",
          "ticks": 41232,
          "time": 139.297158,
          "velocity": 0.49606299212598426
        },
        {
          "duration": 0.16216199999999503,
          "durationTicks": 48,
          "midi": 70,
          "name": "A#4",
          "ticks": 41232,
          "time": 139.297158,
          "velocity": 0.6299212598425197
        },
        {
          "duration": 0.16216200000002345,
          "durationTicks": 48,
          "midi": 76,
          "name": "E5",
          "ticks": 41280,
          "time": 139.45932,
          "velocity": 0.49606299212598426
        },
        {
          "duration": 0.16216200000002345,
          "durationTicks": 48,
          "midi": 69,
          "name": "A4",
          "ticks": 41280,
          "time": 139.45932,
          "velocity": 0.6299212598425197
        },
        {
          "duration": 0.16216199999999503,
          "durationTicks": 48,
          "midi": 76,
          "name": "E5",
          "ticks": 41328,
          "time": 139.62148200000001,
          "velocity": 0.49606299212598426
        },
        {
          "duration": 0.16216199999999503,
          "durationTicks": 48,
          "midi": 69,
          "name": "A4",
          "ticks": 41328,
          "time": 139.62148200000001,
          "velocity": 0.6299212598425197
        },
        {
          "duration": 0.16216199999999503,
          "durationTicks": 48,
          "midi": 75,
          "name": "D#5",
          "ticks": 41376,
          "time": 139.783644,
          "velocity": 0.49606299212598426
        },
        {
          "duration": 0.16216199999999503,
          "durationTicks": 48,
          "midi": 67,
          "name": "G4",
          "ticks": 41376,
          "time": 139.783644,
          "velocity": 0.6299212598425197
        },
        {
          "duration": 0.16216199999999503,
          "durationTicks": 48,
          "midi": 74,
          "name": "D5",
          "ticks": 41424,
          "time": 139.945806,
          "velocity": 0.49606299212598426
        },
        {
          "duration": 0.16216199999999503,
          "durationTicks": 48,
          "midi": 66,
          "name": "F#4",
          "ticks": 41424,
          "time": 139.945806,
          "velocity": 0.6299212598425197
        },
        {
          "duration": 0.16216199999999503,
          "durationTicks": 48,
          "midi": 73,
          "name": "C#5",
          "ticks": 41472,
          "time": 140.107968,
          "velocity": 0.49606299212598426
        },
        {
          "duration": 0.16216199999999503,
          "durationTicks": 48,
          "midi": 64,
          "name": "E4",
          "ticks": 41472,
          "time": 140.107968,
          "velocity": 0.6299212598425197
        }
      ],
      "endOfTrackTicks": 46086
    },
    {
      "channel": 11,
      "controlChanges": {
        "6": [
          {
            "number": 6,
            "ticks": 0,
            "time": 0,
            "value": 0.09448818897637795
          },
          {
            "number": 6,
            "ticks": 0,
            "time": 0,
            "value": 0.09448818897637795
          },
          {
            "number": 6,
            "ticks": 0,
            "time": 0,
            "value": 0.09448818897637795
          },
          {
            "number": 6,
            "ticks": 46084,
            "time": 155.6890335,
            "value": 0.09448818897637795
          },
          {
            "number": 6,
            "ticks": 46086,
            "time": 155.69579025,
            "value": 0.09448818897637795
          }
        ],
        "7": [
          {
            "number": 7,
            "ticks": 0,
            "time": 0,
            "value": 0.7874015748031497
          },
          {
            "number": 7,
            "ticks": 0,
            "time": 0,
            "value": 0.7874015748031497
          },
          {
            "number": 7,
            "ticks": 0,
            "time": 0,
            "value": 0.7874015748031497
          },
          {
            "number": 7,
            "ticks": 0,
            "time": 0,
            "value": 0.7874015748031497
          },
          {
            "number": 7,
            "ticks": 46084,
            "time": 155.6890335,
            "value": 0.7874015748031497
          },
          {
            "number": 7,
            "ticks": 46086,
            "time": 155.69579025,
            "value": 0.7874015748031497
          }
        ],
        "10": [
          {
            "number": 10,
            "ticks": 0,
            "time": 0,
            "value": 0.5039370078740157
          },
          {
            "number": 10,
            "ticks": 0,
            "time": 0,
            "value": 0.5039370078740157
          },
          {
            "number": 10,
            "ticks": 0,
            "time": 0,
            "value": 0.5039370078740157
          },
          {
            "number": 10,
            "ticks": 0,
            "time": 0,
            "value": 0.5039370078740157
          },
          {
            "number": 10,
            "ticks": 46084,
            "time": 155.6890335,
            "value": 0.5039370078740157
          },
          {
            "number": 10,
            "ticks": 46086,
            "time": 155.69579025,
            "value": 0.5039370078740157
          }
        ],
        "100": [
          {
            "number": 100,
            "ticks": 0,
            "time": 0,
            "value": 0
          },
          {
            "number": 100,
            "ticks": 0,
            "time": 0,
            "value": 0
          },
          {
            "number": 100,
            "ticks": 0,
            "time": 0,
            "value": 0
          },
          {
            "number": 100,
            "ticks": 46084,
            "time": 155.6890335,
            "value": 0
          },
          {
            "number": 100,
            "ticks": 46086,
            "time": 155.69579025,
            "value": 0
          }
        ],
        "101": [
          {
            "number": 101,
            "ticks": 0,
            "time": 0,
            "value": 0
          },
          {
            "number": 101,
            "ticks": 0,
            "time": 0,
            "value": 0
          },
          {
            "number": 101,
            "ticks": 0,
            "time": 0,
            "value": 0
          },
          {
            "number": 101,
            "ticks": 46084,
            "time": 155.6890335,
            "value": 0
          },
          {
            "number": 101,
            "ticks": 46086,
            "time": 155.69579025,
            "value": 0
          }
        ]
      },
      "pitchBends": [
        {
          "ticks": 0,
          "time": 0,
          "value": 0
        },
        {
          "ticks": 0,
          "time": 0,
          "value": 0
        },
        {
          "ticks": 0,
          "time": 0,
          "value": 0
        },
        {
          "ticks": 0,
          "time": 0,
          "value": 0
        },
        {
          "ticks": 46084,
          "time": 155.6890335,
          "value": 0
        },
        {
          "ticks": 46086,
          "time": 155.69579025,
          "value": 0
        }
      ],
      "instrument": {
        "family": "piano",
        "number": 0,
        "name": "acoustic grand piano"
      },
      "name": "T #3",
      "notes": [
        {
          "duration": 0.08108099999999752,
          "durationTicks": 24,
          "midi": 70,
          "name": "A#4",
          "ticks": 26112,
          "time": 88.216128,
          "velocity": 0.8267716535433071
        },
        {
          "duration": 0.08108099999999752,
          "durationTicks": 24,
          "midi": 70,
          "name": "A#4",
          "ticks": 26144,
          "time": 88.324236,
          "velocity": 0.8267716535433071
        },
        {
          "duration": 0.08108100000001173,
          "durationTicks": 24,
          "midi": 70,
          "name": "A#4",
          "ticks": 26176,
          "time": 88.432344,
          "velocity": 0.8267716535433071
        },
        {
          "duration": 0.16216199999999503,
          "durationTicks": 48,
          "midi": 70,
          "name": "A#4",
          "ticks": 26208,
          "time": 88.540452,
          "velocity": 0.8267716535433071
        },
        {
          "duration": 0.08108099999999752,
          "durationTicks": 24,
          "midi": 70,
          "name": "A#4",
          "ticks": 26272,
          "time": 88.756668,
          "velocity": 0.8267716535433071
        },
        {
          "duration": 0.08108099999999752,
          "durationTicks": 24,
          "midi": 70,
          "name": "A#4",
          "ticks": 26304,
          "time": 88.864776,
          "velocity": 0.8267716535433071
        },
        {
          "duration": 0.08108099999999752,
          "durationTicks": 24,
          "midi": 70,
          "name": "A#4",
          "ticks": 26336,
          "time": 88.972884,
          "velocity": 0.8267716535433071
        },
        {
          "duration": 0.08108099999999752,
          "durationTicks": 24,
          "midi": 70,
          "name": "A#4",
          "ticks": 26368,
          "time": 89.08099200000001,
          "velocity": 0.8267716535433071
        },
        {
          "duration": 0.05405400000000782,
          "durationTicks": 16,
          "midi": 68,
          "name": "G#4",
          "ticks": 26400,
          "time": 89.1891,
          "velocity": 0.6220472440944882
        },
        {
          "duration": 0.1351349999999769,
          "durationTicks": 40,
          "midi": 70,
          "name": "A#4",
          "ticks": 26404,
          "time": 89.20261350000001,
          "velocity": 0.8267716535433071
        },
        {
          "duration": 0.08108099999999752,
          "durationTicks": 24,
          "midi": 70,
          "name": "A#4",
          "ticks": 26464,
          "time": 89.40531600000001,
          "velocity": 0.8267716535433071
        },
        {
          "duration": 0.08108099999999752,
          "durationTicks": 24,
          "midi": 70,
          "name": "A#4",
          "ticks": 26496,
          "time": 89.513424,
          "velocity": 0.8267716535433071
        },
        {
          "duration": 0.08108100000001173,
          "durationTicks": 24,
          "midi": 70,
          "name": "A#4",
          "ticks": 26528,
          "time": 89.62153199999999,
          "velocity": 0.8267716535433071
        },
        {
          "duration": 0.08108099999999752,
          "durationTicks": 24,
          "midi": 70,
          "name": "A#4",
          "ticks": 26560,
          "time": 89.72964,
          "velocity": 0.8267716535433071
        },
        {
          "duration": 0.05405400000000782,
          "durationTicks": 16,
          "midi": 68,
          "name": "G#4",
          "ticks": 26592,
          "time": 89.837748,
          "velocity": 0.6220472440944882
        },
        {
          "duration": 0.13513499999999112,
          "durationTicks": 40,
          "midi": 70,
          "name": "A#4",
          "ticks": 26596,
          "time": 89.8512615,
          "velocity": 0.8267716535433071
        },
        {
          "duration": 0.08108099999999752,
          "durationTicks": 24,
          "midi": 70,
          "name": "A#4",
          "ticks": 26656,
          "time": 90.05396400000001,
          "velocity": 0.8267716535433071
        },
        {
          "duration": 0.08108100000001173,
          "durationTicks": 24,
          "midi": 70,
          "name": "A#4",
          "ticks": 26688,
          "time": 90.162072,
          "velocity": 0.8267716535433071
        },
        {
          "duration": 0.08108099999999752,
          "durationTicks": 24,
          "midi": 70,
          "name": "A#4",
          "ticks": 26720,
          "time": 90.27018,
          "velocity": 0.8267716535433071
        },
        {
          "duration": 0.08108099999999752,
          "durationTicks": 24,
          "midi": 70,
          "name": "A#4",
          "ticks": 26752,
          "time": 90.37828800000001,
          "velocity": 0.8267716535433071
        },
        {
          "duration": 0.24324300000000676,
          "durationTicks": 72,
          "midi": 68,
          "name": "G#4",
          "ticks": 26784,
          "time": 90.486396,
          "velocity": 0.8267716535433071
        },
        {
          "duration": 0.08108099999999752,
          "durationTicks": 24,
          "midi": 70,
          "name": "A#4",
          "ticks": 26880,
          "time": 90.81072,
          "velocity": 0.8267716535433071
        },
        {
          "duration": 0.08108099999999752,
          "durationTicks": 24,
          "midi": 70,
          "name": "A#4",
          "ticks": 26912,
          "time": 90.91882799999999,
          "velocity": 0.8267716535433071
        },
        {
          "duration": 0.08108099999999752,
          "durationTicks": 24,
          "midi": 70,
          "name": "A#4",
          "ticks": 26944,
          "time": 91.026936,
          "velocity": 0.8267716535433071
        },
        {
          "duration": 0.16216200000000924,
          "durationTicks": 48,
          "midi": 70,
          "name": "A#4",
          "ticks": 26976,
          "time": 91.135044,
          "velocity": 0.8267716535433071
        },
        {
          "duration": 0.08108099999999752,
          "durationTicks": 24,
          "midi": 70,
          "name": "A#4",
          "ticks": 27040,
          "time": 91.35126000000001,
          "velocity": 0.8267716535433071
        },
        {
          "duration": 0.08108099999999752,
          "durationTicks": 24,
          "midi": 70,
          "name": "A#4",
          "ticks": 27072,
          "time": 91.459368,
          "velocity": 0.8267716535433071
        },
        {
          "duration": 0.08108099999999752,
          "durationTicks": 24,
          "midi": 70,
          "name": "A#4",
          "ticks": 27104,
          "time": 91.567476,
          "velocity": 0.8267716535433071
        },
        {
          "duration": 0.08108100000001173,
          "durationTicks": 24,
          "midi": 70,
          "name": "A#4",
          "ticks": 27136,
          "time": 91.675584,
          "velocity": 0.8267716535433071
        },
        {
          "duration": 0.05405400000000782,
          "durationTicks": 16,
          "midi": 68,
          "name": "G#4",
          "ticks": 27168,
          "time": 91.783692,
          "velocity": 0.6220472440944882
        },
        {
          "duration": 0.13513499999999112,
          "durationTicks": 40,
          "midi": 70,
          "name": "A#4",
          "ticks": 27172,
          "time": 91.7972055,
          "velocity": 0.8267716535433071
        },
        {
          "duration": 0.08108099999999752,
          "durationTicks": 24,
          "midi": 70,
          "name": "A#4",
          "ticks": 27232,
          "time": 91.999908,
          "velocity": 0.8267716535433071
        },
        {
          "duration": 0.08108099999999752,
          "durationTicks": 24,
          "midi": 70,
          "name": "A#4",
          "ticks": 27264,
          "time": 92.108016,
          "velocity": 0.8267716535433071
        },
        {
          "duration": 0.08108099999999752,
          "durationTicks": 24,
          "midi": 70,
          "name": "A#4",
          "ticks": 27296,
          "time": 92.216124,
          "velocity": 0.8267716535433071
        },
        {
          "duration": 0.08108099999999752,
          "durationTicks": 24,
          "midi": 70,
          "name": "A#4",
          "ticks": 27328,
          "time": 92.32423200000001,
          "velocity": 0.8267716535433071
        },
        {
          "duration": 0.05405400000000782,
          "durationTicks": 16,
          "midi": 68,
          "name": "G#4",
          "ticks": 27360,
          "time": 92.43234,
          "velocity": 0.6220472440944882
        },
        {
          "duration": 0.1351349999999769,
          "durationTicks": 40,
          "midi": 70,
          "name": "A#4",
          "ticks": 27364,
          "time": 92.44585350000001,
          "velocity": 0.8267716535433071
        },
        {
          "duration": 0.08108099999999752,
          "durationTicks": 24,
          "midi": 70,
          "name": "A#4",
          "ticks": 27424,
          "time": 92.64855600000001,
          "velocity": 0.8267716535433071
        },
        {
          "duration": 0.08108099999999752,
          "durationTicks": 24,
          "midi": 70,
          "name": "A#4",
          "ticks": 27456,
          "time": 92.756664,
          "velocity": 0.8267716535433071
        },
        {
          "duration": 0.08108100000001173,
          "durationTicks": 24,
          "midi": 70,
          "name": "A#4",
          "ticks": 27488,
          "time": 92.86477199999999,
          "velocity": 0.8267716535433071
        },
        {
          "duration": 0.08108099999999752,
          "durationTicks": 24,
          "midi": 70,
          "name": "A#4",
          "ticks": 27520,
          "time": 92.97288,
          "velocity": 0.8267716535433071
        },
        {
          "duration": 0.16216199999999503,
          "durationTicks": 48,
          "midi": 70,
          "name": "A#4",
          "ticks": 27552,
          "time": 93.080988,
          "velocity": 0.8267716535433071
        },
        {
          "duration": 0.10810799999998721,
          "durationTicks": 32,
          "midi": 73,
          "name": "C#5",
          "ticks": 27616,
          "time": 93.29720400000001,
          "velocity": 0.8267716535433071
        },
        {
          "duration": 0.08108100000001173,
          "durationTicks": 24,
          "midi": 70,
          "name": "A#4",
          "ticks": 27648,
          "time": 93.405312,
          "velocity": 0.8267716535433071
        },
        {
          "duration": 0.08108099999999752,
          "durationTicks": 24,
          "midi": 70,
          "name": "A#4",
          "ticks": 27680,
          "time": 93.51342,
          "velocity": 0.8267716535433071
        },
        {
          "duration": 0.08108099999999752,
          "durationTicks": 24,
          "midi": 70,
          "name": "A#4",
          "ticks": 27712,
          "time": 93.62152800000001,
          "velocity": 0.8267716535433071
        },
        {
          "duration": 0.16216199999999503,
          "durationTicks": 48,
          "midi": 70,
          "name": "A#4",
          "ticks": 27744,
          "time": 93.729636,
          "velocity": 0.8267716535433071
        },
        {
          "duration": 0.08108099999999752,
          "durationTicks": 24,
          "midi": 70,
          "name": "A#4",
          "ticks": 27808,
          "time": 93.945852,
          "velocity": 0.8267716535433071
        },
        {
          "duration": 0.08108099999999752,
          "durationTicks": 24,
          "midi": 70,
          "name": "A#4",
          "ticks": 27840,
          "time": 94.05396,
          "velocity": 0.8267716535433071
        },
        {
          "duration": 0.08108099999999752,
          "durationTicks": 24,
          "midi": 70,
          "name": "A#4",
          "ticks": 27872,
          "time": 94.16206799999999,
          "velocity": 0.8267716535433071
        },
        {
          "duration": 0.08108099999999752,
          "durationTicks": 24,
          "midi": 70,
          "name": "A#4",
          "ticks": 27904,
          "time": 94.270176,
          "velocity": 0.8267716535433071
        },
        {
          "duration": 0.05405400000000782,
          "durationTicks": 16,
          "midi": 68,
          "name": "G#4",
          "ticks": 27936,
          "time": 94.378284,
          "velocity": 0.6220472440944882
        },
        {
          "duration": 0.13513499999999112,
          "durationTicks": 40,
          "midi": 70,
          "name": "A#4",
          "ticks": 27940,
          "time": 94.39179750000001,
          "velocity": 0.8267716535433071
        },
        {
          "duration": 0.08108099999999752,
          "durationTicks": 24,
          "midi": 70,
          "name": "A#4",
          "ticks": 28000,
          "time": 94.59450000000001,
          "velocity": 0.8267716535433071
        },
        {
          "duration": 0.08108099999999752,
          "durationTicks": 24,
          "midi": 70,
          "name": "A#4",
          "ticks": 28032,
          "time": 94.702608,
          "velocity": 0.8267716535433071
        },
        {
          "duration": 0.08108099999999752,
          "durationTicks": 24,
          "midi": 70,
          "name": "A#4",
          "ticks": 28064,
          "time": 94.810716,
          "velocity": 0.8267716535433071
        },
        {
          "duration": 0.08108100000001173,
          "durationTicks": 24,
          "midi": 70,
          "name": "A#4",
          "ticks": 28096,
          "time": 94.918824,
          "velocity": 0.8267716535433071
        },
        {
          "duration": 0.05405400000000782,
          "durationTicks": 16,
          "midi": 68,
          "name": "G#4",
          "ticks": 28128,
          "time": 95.026932,
          "velocity": 0.6220472440944882
        },
        {
          "duration": 0.13513499999999112,
          "durationTicks": 40,
          "midi": 70,
          "name": "A#4",
          "ticks": 28132,
          "time": 95.0404455,
          "velocity": 0.8267716535433071
        },
        {
          "duration": 0.08108099999999752,
          "durationTicks": 24,
          "midi": 70,
          "name": "A#4",
          "ticks": 28192,
          "time": 95.243148,
          "velocity": 0.8267716535433071
        },
        {
          "duration": 0.08108099999999752,
          "durationTicks": 24,
          "midi": 70,
          "name": "A#4",
          "ticks": 28224,
          "time": 95.351256,
          "velocity": 0.8267716535433071
        },
        {
          "duration": 0.08108099999999752,
          "durationTicks": 24,
          "midi": 70,
          "name": "A#4",
          "ticks": 28256,
          "time": 95.459364,
          "velocity": 0.8267716535433071
        },
        {
          "duration": 0.08108099999999752,
          "durationTicks": 24,
          "midi": 70,
          "name": "A#4",
          "ticks": 28288,
          "time": 95.56747200000001,
          "velocity": 0.8267716535433071
        },
        {
          "duration": 0.24324300000000676,
          "durationTicks": 72,
          "midi": 68,
          "name": "G#4",
          "ticks": 28320,
          "time": 95.67558,
          "velocity": 0.8267716535433071
        }
      ],
      "endOfTrackTicks": 46086
    },
    {
      "channel": 12,
      "controlChanges": {
        "6": [
          {
            "number": 6,
            "ticks": 0,
            "time": 0,
            "value": 0.09448818897637795
          },
          {
            "number": 6,
            "ticks": 0,
            "time": 0,
            "value": 0.09448818897637795
          },
          {
            "number": 6,
            "ticks": 0,
            "time": 0,
            "value": 0.09448818897637795
          },
          {
            "number": 6,
            "ticks": 46084,
            "time": 155.6890335,
            "value": 0.09448818897637795
          },
          {
            "number": 6,
            "ticks": 46086,
            "time": 155.69579025,
            "value": 0.09448818897637795
          }
        ],
        "7": [
          {
            "number": 7,
            "ticks": 0,
            "time": 0,
            "value": 0.7874015748031497
          },
          {
            "number": 7,
            "ticks": 0,
            "time": 0,
            "value": 0.7874015748031497
          },
          {
            "number": 7,
            "ticks": 0,
            "time": 0,
            "value": 0.7874015748031497
          },
          {
            "number": 7,
            "ticks": 0,
            "time": 0,
            "value": 0.7874015748031497
          },
          {
            "number": 7,
            "ticks": 46084,
            "time": 155.6890335,
            "value": 0.7874015748031497
          },
          {
            "number": 7,
            "ticks": 46086,
            "time": 155.69579025,
            "value": 0.7874015748031497
          }
        ],
        "10": [
          {
            "number": 10,
            "ticks": 0,
            "time": 0,
            "value": 0.5039370078740157
          },
          {
            "number": 10,
            "ticks": 0,
            "time": 0,
            "value": 0.5039370078740157
          },
          {
            "number": 10,
            "ticks": 0,
            "time": 0,
            "value": 0.5039370078740157
          },
          {
            "number": 10,
            "ticks": 0,
            "time": 0,
            "value": 0.5039370078740157
          },
          {
            "number": 10,
            "ticks": 46084,
            "time": 155.6890335,
            "value": 0.5039370078740157
          },
          {
            "number": 10,
            "ticks": 46086,
            "time": 155.69579025,
            "value": 0.5039370078740157
          }
        ],
        "100": [
          {
            "number": 100,
            "ticks": 0,
            "time": 0,
            "value": 0
          },
          {
            "number": 100,
            "ticks": 0,
            "time": 0,
            "value": 0
          },
          {
            "number": 100,
            "ticks": 0,
            "time": 0,
            "value": 0
          },
          {
            "number": 100,
            "ticks": 46084,
            "time": 155.6890335,
            "value": 0
          },
          {
            "number": 100,
            "ticks": 46086,
            "time": 155.69579025,
            "value": 0
          }
        ],
        "101": [
          {
            "number": 101,
            "ticks": 0,
            "time": 0,
            "value": 0
          },
          {
            "number": 101,
            "ticks": 0,
            "time": 0,
            "value": 0
          },
          {
            "number": 101,
            "ticks": 0,
            "time": 0,
            "value": 0
          },
          {
            "number": 101,
            "ticks": 46084,
            "time": 155.6890335,
            "value": 0
          },
          {
            "number": 101,
            "ticks": 46086,
            "time": 155.69579025,
            "value": 0
          }
        ]
      },
      "pitchBends": [
        {
          "ticks": 0,
          "time": 0,
          "value": 0
        },
        {
          "ticks": 0,
          "time": 0,
          "value": 0
        },
        {
          "ticks": 0,
          "time": 0,
          "value": 0
        },
        {
          "ticks": 0,
          "time": 0,
          "value": 0
        },
        {
          "ticks": 46084,
          "time": 155.6890335,
          "value": 0
        },
        {
          "ticks": 46086,
          "time": 155.69579025,
          "value": 0
        }
      ],
      "instrument": {
        "family": "piano",
        "number": 0,
        "name": "acoustic grand piano"
      },
      "name": "Lead",
      "notes": [
        {
          "duration": 0.08108099999999974,
          "durationTicks": 24,
          "midi": 80,
          "name": "G#5",
          "ticks": 672,
          "time": 2.270268,
          "velocity": 0.8267716535433071
        },
        {
          "duration": 0.08108100000000018,
          "durationTicks": 24,
          "midi": 82,
          "name": "A#5",
          "ticks": 696,
          "time": 2.351349,
          "velocity": 0.8267716535433071
        },
        {
          "duration": 0.08108099999999974,
          "durationTicks": 24,
          "midi": 85,
          "name": "C#6",
          "ticks": 720,
          "time": 2.43243,
          "velocity": 0.8267716535433071
        },
        {
          "duration": 0.08108100000000018,
          "durationTicks": 24,
          "midi": 92,
          "name": "G#6",
          "ticks": 744,
          "time": 2.513511,
          "velocity": 0.8267716535433071
        },
        {
          "duration": 0.08108100000000018,
          "durationTicks": 24,
          "midi": 96,
          "name": "C7",
          "ticks": 768,
          "time": 2.594592,
          "velocity": 0.8267716535433071
        },
        {
          "duration": 0.2027025,
          "durationTicks": 60,
          "midi": 97,
          "name": "C#7",
          "ticks": 780,
          "time": 2.6351325,
          "velocity": 0.8267716535433071
        },
        {
          "duration": 0.2432430000000001,
          "durationTicks": 72,
          "midi": 96,
          "name": "C7",
          "ticks": 840,
          "time": 2.837835,
          "velocity": 0.8267716535433071
        },
        {
          "duration": 0.08108099999999974,
          "durationTicks": 24,
          "midi": 92,
          "name": "G#6",
          "ticks": 912,
          "time": 3.081078,
          "velocity": 0.8267716535433071
        },
        {
          "duration": 0.08108100000000018,
          "durationTicks": 24,
          "midi": 94,
          "name": "A#6",
          "ticks": 936,
          "time": 3.162159,
          "velocity": 0.8267716535433071
        },
        {
          "duration": 0.32432399999999983,
          "durationTicks": 96,
          "midi": 92,
          "name": "G#6",
          "ticks": 960,
          "time": 3.24324,
          "velocity": 0.8267716535433071
        },
        {
          "duration": 0.08108100000000018,
          "durationTicks": 24,
          "midi": 77,
          "name": "F5",
          "ticks": 1056,
          "time": 3.567564,
          "velocity": 0.8267716535433071
        },
        {
          "duration": 0.08108099999999974,
          "durationTicks": 24,
          "midi": 80,
          "name": "G#5",
          "ticks": 1080,
          "time": 3.648645,
          "velocity": 0.8267716535433071
        },
        {
          "duration": 0.08108100000000018,
          "durationTicks": 24,
          "midi": 84,
          "name": "C6",
          "ticks": 1104,
          "time": 3.729726,
          "velocity": 0.8267716535433071
        },
        {
          "duration": 0.08108099999999974,
          "durationTicks": 24,
          "midi": 85,
          "name": "C#6",
          "ticks": 1128,
          "time": 3.810807,
          "velocity": 0.8267716535433071
        },
        {
          "duration": 0.08108100000000018,
          "durationTicks": 24,
          "midi": 87,
          "name": "D#6",
          "ticks": 1152,
          "time": 3.891888,
          "velocity": 0.8267716535433071
        },
        {
          "duration": 0.16216200000000036,
          "durationTicks": 48,
          "midi": 89,
          "name": "F6",
          "ticks": 1176,
          "time": 3.972969,
          "velocity": 0.8267716535433071
        },
        {
          "duration": 0.08108099999999929,
          "durationTicks": 24,
          "midi": 87,
          "name": "D#6",
          "ticks": 1224,
          "time": 4.135131,
          "velocity": 0.8267716535433071
        },
        {
          "duration": 0.08108100000000018,
          "durationTicks": 24,
          "midi": 92,
          "name": "G#6",
          "ticks": 1248,
          "time": 4.216212,
          "velocity": 0.8267716535433071
        },
        {
          "duration": 0.08108100000000018,
          "durationTicks": 24,
          "midi": 89,
          "name": "F6",
          "ticks": 1272,
          "time": 4.297293,
          "velocity": 0.8267716535433071
        },
        {
          "duration": 0.08108100000000018,
          "durationTicks": 24,
          "midi": 87,
          "name": "D#6",
          "ticks": 1296,
          "time": 4.378374,
          "velocity": 0.8267716535433071
        },
        {
          "duration": 0.08108100000000018,
          "durationTicks": 24,
          "midi": 85,
          "name": "C#6",
          "ticks": 1320,
          "time": 4.459455,
          "velocity": 0.8267716535433071
        },
        {
          "duration": 0.24324299999999965,
          "durationTicks": 72,
          "midi": 84,
          "name": "C6",
          "ticks": 1344,
          "time": 4.540536,
          "velocity": 0.8267716535433071
        },
        {
          "duration": 0.24324299999999965,
          "durationTicks": 72,
          "midi": 85,
          "name": "C#6",
          "ticks": 1416,
          "time": 4.783779,
          "velocity": 0.8267716535433071
        },
        {
          "duration": 0.08108100000000018,
          "durationTicks": 24,
          "midi": 85,
          "name": "C#6",
          "ticks": 1488,
          "time": 5.027022,
          "velocity": 0.8267716535433071
        },
        {
          "duration": 0.08108100000000018,
          "durationTicks": 24,
          "midi": 87,
          "name": "D#6",
          "ticks": 1512,
          "time": 5.108103,
          "velocity": 0.8267716535433071
        },
        {
          "duration": 0.24324299999999965,
          "durationTicks": 72,
          "midi": 89,
          "name": "F6",
          "ticks": 1536,
          "time": 5.189184,
          "velocity": 0.8267716535433071
        },
        {
          "duration": 0.2027025,
          "durationTicks": 60,
          "midi": 87,
          "name": "D#6",
          "ticks": 1608,
          "time": 5.432427,
          "velocity": 0.8267716535433071
        },
        {
          "duration": 0.16216199999999947,
          "durationTicks": 48,
          "midi": 85,
          "name": "C#6",
          "ticks": 1680,
          "time": 5.67567,
          "velocity": 0.8267716535433071
        },
        {
          "duration": 0.3243240000000007,
          "durationTicks": 96,
          "midi": 80,
          "name": "G#5",
          "ticks": 1728,
          "time": 5.837832,
          "velocity": 0.8267716535433071
        },
        {
          "duration": 0.08108099999999929,
          "durationTicks": 24,
          "midi": 78,
          "name": "F#5",
          "ticks": 1824,
          "time": 6.162156,
          "velocity": 0.8267716535433071
        },
        {
          "duration": 0.08108100000000018,
          "durationTicks": 24,
          "midi": 80,
          "name": "G#5",
          "ticks": 1848,
          "time": 6.243237,
          "velocity": 0.8267716535433071
        },
        {
          "duration": 0.08108100000000018,
          "durationTicks": 24,
          "midi": 82,
          "name": "A#5",
          "ticks": 1872,
          "time": 6.324318,
          "velocity": 0.8267716535433071
        },
        {
          "duration": 0.08108100000000018,
          "durationTicks": 24,
          "midi": 84,
          "name": "C6",
          "ticks": 1896,
          "time": 6.405399,
          "velocity": 0.8267716535433071
        },
        {
          "duration": 0.24324299999999965,
          "durationTicks": 72,
          "midi": 84,
          "name": "C6",
          "ticks": 1920,
          "time": 6.48648,
          "velocity": 0.8267716535433071
        },
        {
          "duration": 0.08108100000000018,
          "durationTicks": 24,
          "midi": 85,
          "name": "C#6",
          "ticks": 1992,
          "time": 6.729723,
          "velocity": 0.8267716535433071
        },
        {
          "duration": 0.24324299999999965,
          "durationTicks": 72,
          "midi": 84,
          "name": "C6",
          "ticks": 2016,
          "time": 6.810804,
          "velocity": 0.8267716535433071
        },
        {
          "duration": 0.08108100000000018,
          "durationTicks": 24,
          "midi": 85,
          "name": "C#6",
          "ticks": 2088,
          "time": 7.054047,
          "velocity": 0.8267716535433071
        },
        {
          "duration": 0.16216199999999947,
          "durationTicks": 48,
          "midi": 87,
          "name": "D#6",
          "ticks": 2160,
          "time": 7.29729,
          "velocity": 0.8267716535433071
        },
        {
          "duration": 0.16216200000000036,
          "durationTicks": 48,
          "midi": 85,
          "name": "C#6",
          "ticks": 2208,
          "time": 7.459452,
          "velocity": 0.8267716535433071
        },
        {
          "duration": 0.16216199999999947,
          "durationTicks": 48,
          "midi": 87,
          "name": "D#6",
          "ticks": 2256,
          "time": 7.621614,
          "velocity": 0.8267716535433071
        },
        {
          "duration": 0.08108100000000018,
          "durationTicks": 24,
          "midi": 96,
          "name": "C7",
          "ticks": 2304,
          "time": 7.783776,
          "velocity": 0.8267716535433071
        },
        {
          "duration": 0.20270249999999912,
          "durationTicks": 60,
          "midi": 97,
          "name": "C#7",
          "ticks": 2316,
          "time": 7.8243165,
          "velocity": 0.8267716535433071
        },
        {
          "duration": 0.24324300000000143,
          "durationTicks": 72,
          "midi": 96,
          "name": "C7",
          "ticks": 2376,
          "time": 8.027019,
          "velocity": 0.8267716535433071
        },
        {
          "duration": 0.08108099999999929,
          "durationTicks": 24,
          "midi": 92,
          "name": "G#6",
          "ticks": 2448,
          "time": 8.270262,
          "velocity": 0.8267716535433071
        },
        {
          "duration": 0.08108099999999929,
          "durationTicks": 24,
          "midi": 94,
          "name": "A#6",
          "ticks": 2472,
          "time": 8.351343,
          "velocity": 0.8267716535433071
        },
        {
          "duration": 0.3243240000000007,
          "durationTicks": 96,
          "midi": 92,
          "name": "G#6",
          "ticks": 2496,
          "time": 8.432424,
          "velocity": 0.8267716535433071
        },
        {
          "duration": 0.08108099999999929,
          "durationTicks": 24,
          "midi": 77,
          "name": "F5",
          "ticks": 2592,
          "time": 8.756748,
          "velocity": 0.8267716535433071
        },
        {
          "duration": 0.08108100000000107,
          "durationTicks": 24,
          "midi": 80,
          "name": "G#5",
          "ticks": 2616,
          "time": 8.837829,
          "velocity": 0.8267716535433071
        },
        {
          "duration": 0.08108099999999929,
          "durationTicks": 24,
          "midi": 84,
          "name": "C6",
          "ticks": 2640,
          "time": 8.91891,
          "velocity": 0.8267716535433071
        },
        {
          "duration": 0.08108100000000107,
          "durationTicks": 24,
          "midi": 85,
          "name": "C#6",
          "ticks": 2664,
          "time": 8.999991,
          "velocity": 0.8267716535433071
        },
        {
          "duration": 0.08108099999999929,
          "durationTicks": 24,
          "midi": 87,
          "name": "D#6",
          "ticks": 2688,
          "time": 9.081072,
          "velocity": 0.8267716535433071
        },
        {
          "duration": 0.16216200000000036,
          "durationTicks": 48,
          "midi": 89,
          "name": "F6",
          "ticks": 2712,
          "time": 9.162153,
          "velocity": 0.8267716535433071
        },
        {
          "duration": 0.08108099999999929,
          "durationTicks": 24,
          "midi": 87,
          "name": "D#6",
          "ticks": 2760,
          "time": 9.324315,
          "velocity": 0.8267716535433071
        },
        {
          "duration": 0.08108100000000107,
          "durationTicks": 24,
          "midi": 92,
          "name": "G#6",
          "ticks": 2784,
          "time": 9.405396,
          "velocity": 0.8267716535433071
        },
        {
          "duration": 0.08108099999999929,
          "durationTicks": 24,
          "midi": 89,
          "name": "F6",
          "ticks": 2808,
          "time": 9.486477,
          "velocity": 0.8267716535433071
        },
        {
          "duration": 0.08108099999999929,
          "durationTicks": 24,
          "midi": 87,
          "name": "D#6",
          "ticks": 2832,
          "time": 9.567558,
          "velocity": 0.8267716535433071
        },
        {
          "duration": 0.08108100000000107,
          "durationTicks": 24,
          "midi": 85,
          "name": "C#6",
          "ticks": 2856,
          "time": 9.648639,
          "velocity": 0.8267716535433071
        },
        {
          "duration": 0.24324299999999965,
          "durationTicks": 72,
          "midi": 84,
          "name": "C6",
          "ticks": 2880,
          "time": 9.72972,
          "velocity": 0.8267716535433071
        },
        {
          "duration": 0.24324299999999965,
          "durationTicks": 72,
          "midi": 85,
          "name": "C#6",
          "ticks": 2952,
          "time": 9.972963,
          "velocity": 0.8267716535433071
        },
        {
          "duration": 0.08108100000000107,
          "durationTicks": 24,
          "midi": 85,
          "name": "C#6",
          "ticks": 3024,
          "time": 10.216206,
          "velocity": 0.8267716535433071
        },
        {
          "duration": 0.16216200000000036,
          "durationTicks": 48,
          "midi": 94,
          "name": "A#6",
          "ticks": 3072,
          "time": 10.378368,
          "velocity": 0.7480314960629921
        },
        {
          "duration": 0.16216200000000036,
          "durationTicks": 48,
          "midi": 97,
          "name": "C#7",
          "ticks": 3072,
          "time": 10.378368,
          "velocity": 0.8267716535433071
        },
        {
          "duration": 0.16216200000000036,
          "durationTicks": 48,
          "midi": 99,
          "name": "D#7",
          "ticks": 3120,
          "time": 10.54053,
          "velocity": 0.8267716535433071
        },
        {
          "duration": 0.16216200000000036,
          "durationTicks": 48,
          "midi": 96,
          "name": "C7",
          "ticks": 3120,
          "time": 10.54053,
          "velocity": 0.7480314960629921
        },
        {
          "duration": 0.16216199999999859,
          "durationTicks": 48,
          "midi": 97,
          "name": "C#7",
          "ticks": 3168,
          "time": 10.702692,
          "velocity": 0.8267716535433071
        },
        {
          "duration": 0.16216199999999859,
          "durationTicks": 48,
          "midi": 94,
          "name": "A#6",
          "ticks": 3168,
          "time": 10.702692,
          "velocity": 0.7480314960629921
        },
        {
          "duration": 0.16216200000000036,
          "durationTicks": 48,
          "midi": 92,
          "name": "G#6",
          "ticks": 3240,
          "time": 10.945935,
          "velocity": 0.7480314960629921
        },
        {
          "duration": 0.16216200000000036,
          "durationTicks": 48,
          "midi": 96,
          "name": "C7",
          "ticks": 3240,
          "time": 10.945935,
          "velocity": 0.8267716535433071
        },
        {
          "duration": 0.16216200000000036,
          "durationTicks": 48,
          "midi": 92,
          "name": "G#6",
          "ticks": 3312,
          "time": 11.189178,
          "velocity": 0.8267716535433071
        },
        {
          "duration": 0.16216200000000036,
          "durationTicks": 48,
          "midi": 89,
          "name": "F6",
          "ticks": 3312,
          "time": 11.189178,
          "velocity": 0.7480314960629921
        },
        {
          "duration": 0.16216200000000036,
          "durationTicks": 48,
          "midi": 87,
          "name": "D#6",
          "ticks": 3360,
          "time": 11.35134,
          "velocity": 0.8267716535433071
        },
        {
          "duration": 0.16216200000000036,
          "durationTicks": 48,
          "midi": 84,
          "name": "C6",
          "ticks": 3360,
          "time": 11.35134,
          "velocity": 0.7480314960629921
        },
        {
          "duration": 0.16216200000000036,
          "durationTicks": 48,
          "midi": 77,
          "name": "F5",
          "ticks": 3432,
          "time": 11.594583,
          "velocity": 0.7480314960629921
        },
        {
          "duration": 0.16216200000000036,
          "durationTicks": 48,
          "midi": 80,
          "name": "G#5",
          "ticks": 3432,
          "time": 11.594583,
          "velocity": 0.8267716535433071
        },
        {
          "duration": 0.16216200000000036,
          "durationTicks": 48,
          "midi": 82,
          "name": "A#5",
          "ticks": 3504,
          "time": 11.837826,
          "velocity": 0.8267716535433071
        },
        {
          "duration": 0.16216200000000036,
          "durationTicks": 48,
          "midi": 84,
          "name": "C6",
          "ticks": 3552,
          "time": 11.999988,
          "velocity": 0.8267716535433071
        },
        {
          "duration": 0.16216200000000036,
          "durationTicks": 48,
          "midi": 85,
          "name": "C#6",
          "ticks": 3624,
          "time": 12.243231,
          "velocity": 0.8267716535433071
        },
        {
          "duration": 0.16216200000000036,
          "durationTicks": 48,
          "midi": 87,
          "name": "D#6",
          "ticks": 3696,
          "time": 12.486474,
          "velocity": 0.8267716535433071
        },
        {
          "duration": 0.16216200000000036,
          "durationTicks": 48,
          "midi": 85,
          "name": "C#6",
          "ticks": 3744,
          "time": 12.648636,
          "velocity": 0.8267716535433071
        },
        {
          "duration": 0.16216200000000036,
          "durationTicks": 48,
          "midi": 87,
          "name": "D#6",
          "ticks": 3792,
          "time": 12.810798,
          "velocity": 0.8267716535433071
        },
        {
          "duration": 0.08108099999999752,
          "durationTicks": 24,
          "midi": 80,
          "name": "G#5",
          "ticks": 19872,
          "time": 67.135068,
          "velocity": 0.8267716535433071
        },
        {
          "duration": 0.08108099999999752,
          "durationTicks": 24,
          "midi": 82,
          "name": "A#5",
          "ticks": 19896,
          "time": 67.216149,
          "velocity": 0.8267716535433071
        },
        {
          "duration": 0.08108099999999752,
          "durationTicks": 24,
          "midi": 85,
          "name": "C#6",
          "ticks": 19920,
          "time": 67.29723,
          "velocity": 0.8267716535433071
        },
        {
          "duration": 0.08108099999999752,
          "durationTicks": 24,
          "midi": 92,
          "name": "G#6",
          "ticks": 19944,
          "time": 67.378311,
          "velocity": 0.8267716535433071
        },
        {
          "duration": 0.08108100000001173,
          "durationTicks": 24,
          "midi": 96,
          "name": "C7",
          "ticks": 19968,
          "time": 67.459392,
          "velocity": 0.8267716535433071
        },
        {
          "duration": 0.2027025000000009,
          "durationTicks": 60,
          "midi": 97,
          "name": "C#7",
          "ticks": 19980,
          "time": 67.4999325,
          "velocity": 0.8267716535433071
        },
        {
          "duration": 0.24324299999999255,
          "durationTicks": 72,
          "midi": 96,
          "name": "C7",
          "ticks": 20040,
          "time": 67.702635,
          "velocity": 0.8267716535433071
        },
        {
          "duration": 0.08108100000001173,
          "durationTicks": 24,
          "midi": 92,
          "name": "G#6",
          "ticks": 20112,
          "time": 67.945878,
          "velocity": 0.8267716535433071
        },
        {
          "duration": 0.08108099999999752,
          "durationTicks": 24,
          "midi": 94,
          "name": "A#6",
          "ticks": 20136,
          "time": 68.026959,
          "velocity": 0.8267716535433071
        },
        {
          "duration": 0.3243240000000043,
          "durationTicks": 96,
          "midi": 92,
          "name": "G#6",
          "ticks": 20160,
          "time": 68.10804,
          "velocity": 0.8267716535433071
        },
        {
          "duration": 0.08108099999999752,
          "durationTicks": 24,
          "midi": 77,
          "name": "F5",
          "ticks": 20256,
          "time": 68.432364,
          "velocity": 0.8267716535433071
        },
        {
          "duration": 0.08108099999999752,
          "durationTicks": 24,
          "midi": 80,
          "name": "G#5",
          "ticks": 20280,
          "time": 68.513445,
          "velocity": 0.8267716535433071
        },
        {
          "duration": 0.08108099999999752,
          "durationTicks": 24,
          "midi": 84,
          "name": "C6",
          "ticks": 20304,
          "time": 68.594526,
          "velocity": 0.8267716535433071
        },
        {
          "duration": 0.08108099999999752,
          "durationTicks": 24,
          "midi": 85,
          "name": "C#6",
          "ticks": 20328,
          "time": 68.675607,
          "velocity": 0.8267716535433071
        },
        {
          "duration": 0.08108099999999752,
          "durationTicks": 24,
          "midi": 87,
          "name": "D#6",
          "ticks": 20352,
          "time": 68.756688,
          "velocity": 0.8267716535433071
        },
        {
          "duration": 0.16216200000000924,
          "durationTicks": 48,
          "midi": 89,
          "name": "F6",
          "ticks": 20376,
          "time": 68.837769,
          "velocity": 0.8267716535433071
        },
        {
          "duration": 0.08108099999999752,
          "durationTicks": 24,
          "midi": 87,
          "name": "D#6",
          "ticks": 20424,
          "time": 68.999931,
          "velocity": 0.8267716535433071
        },
        {
          "duration": 0.08108099999999752,
          "durationTicks": 24,
          "midi": 92,
          "name": "G#6",
          "ticks": 20448,
          "time": 69.081012,
          "velocity": 0.8267716535433071
        },
        {
          "duration": 0.08108099999999752,
          "durationTicks": 24,
          "midi": 89,
          "name": "F6",
          "ticks": 20472,
          "time": 69.162093,
          "velocity": 0.8267716535433071
        },
        {
          "duration": 0.08108099999999752,
          "durationTicks": 24,
          "midi": 87,
          "name": "D#6",
          "ticks": 20496,
          "time": 69.243174,
          "velocity": 0.8267716535433071
        },
        {
          "duration": 0.08108100000001173,
          "durationTicks": 24,
          "midi": 85,
          "name": "C#6",
          "ticks": 20520,
          "time": 69.324255,
          "velocity": 0.8267716535433071
        },
        {
          "duration": 0.24324299999999255,
          "durationTicks": 72,
          "midi": 84,
          "name": "C6",
          "ticks": 20544,
          "time": 69.405336,
          "velocity": 0.8267716535433071
        },
        {
          "duration": 0.24324300000000676,
          "durationTicks": 72,
          "midi": 85,
          "name": "C#6",
          "ticks": 20616,
          "time": 69.648579,
          "velocity": 0.8267716535433071
        },
        {
          "duration": 0.08108099999999752,
          "durationTicks": 24,
          "midi": 85,
          "name": "C#6",
          "ticks": 20688,
          "time": 69.891822,
          "velocity": 0.8267716535433071
        },
        {
          "duration": 0.08108099999999752,
          "durationTicks": 24,
          "midi": 87,
          "name": "D#6",
          "ticks": 20712,
          "time": 69.972903,
          "velocity": 0.8267716535433071
        },
        {
          "duration": 0.24324300000000676,
          "durationTicks": 72,
          "midi": 89,
          "name": "F6",
          "ticks": 20736,
          "time": 70.053984,
          "velocity": 0.8267716535433071
        },
        {
          "duration": 0.20270249999998668,
          "durationTicks": 60,
          "midi": 87,
          "name": "D#6",
          "ticks": 20808,
          "time": 70.297227,
          "velocity": 0.8267716535433071
        },
        {
          "duration": 0.16216199999999503,
          "durationTicks": 48,
          "midi": 85,
          "name": "C#6",
          "ticks": 20880,
          "time": 70.54047,
          "velocity": 0.8267716535433071
        },
        {
          "duration": 0.3243240000000043,
          "durationTicks": 96,
          "midi": 80,
          "name": "G#5",
          "ticks": 20928,
          "time": 70.702632,
          "velocity": 0.8267716535433071
        },
        {
          "duration": 0.08108099999999752,
          "durationTicks": 24,
          "midi": 78,
          "name": "F#5",
          "ticks": 21024,
          "time": 71.026956,
          "velocity": 0.8267716535433071
        },
        {
          "duration": 0.08108099999999752,
          "durationTicks": 24,
          "midi": 80,
          "name": "G#5",
          "ticks": 21048,
          "time": 71.108037,
          "velocity": 0.8267716535433071
        },
        {
          "duration": 0.08108100000001173,
          "durationTicks": 24,
          "midi": 82,
          "name": "A#5",
          "ticks": 21072,
          "time": 71.189118,
          "velocity": 0.8267716535433071
        },
        {
          "duration": 0.08108099999999752,
          "durationTicks": 24,
          "midi": 84,
          "name": "C6",
          "ticks": 21096,
          "time": 71.270199,
          "velocity": 0.8267716535433071
        },
        {
          "duration": 0.24324299999999255,
          "durationTicks": 72,
          "midi": 84,
          "name": "C6",
          "ticks": 21120,
          "time": 71.35128,
          "velocity": 0.8267716535433071
        },
        {
          "duration": 0.08108100000001173,
          "durationTicks": 24,
          "midi": 85,
          "name": "C#6",
          "ticks": 21192,
          "time": 71.594523,
          "velocity": 0.8267716535433071
        },
        {
          "duration": 0.24324299999999255,
          "durationTicks": 72,
          "midi": 84,
          "name": "C6",
          "ticks": 21216,
          "time": 71.675604,
          "velocity": 0.8267716535433071
        },
        {
          "duration": 0.08108099999999752,
          "durationTicks": 24,
          "midi": 85,
          "name": "C#6",
          "ticks": 21288,
          "time": 71.918847,
          "velocity": 0.8267716535433071
        },
        {
          "duration": 0.16216199999999503,
          "durationTicks": 48,
          "midi": 87,
          "name": "D#6",
          "ticks": 21360,
          "time": 72.16209,
          "velocity": 0.8267716535433071
        },
        {
          "duration": 0.16216199999999503,
          "durationTicks": 48,
          "midi": 85,
          "name": "C#6",
          "ticks": 21408,
          "time": 72.324252,
          "velocity": 0.8267716535433071
        },
        {
          "duration": 0.16216200000000924,
          "durationTicks": 48,
          "midi": 87,
          "name": "D#6",
          "ticks": 21456,
          "time": 72.486414,
          "velocity": 0.8267716535433071
        },
        {
          "duration": 0.08108099999999752,
          "durationTicks": 24,
          "midi": 96,
          "name": "C7",
          "ticks": 21504,
          "time": 72.648576,
          "velocity": 0.8267716535433071
        },
        {
          "duration": 0.2027025000000009,
          "durationTicks": 60,
          "midi": 97,
          "name": "C#7",
          "ticks": 21516,
          "time": 72.6891165,
          "velocity": 0.8267716535433071
        },
        {
          "duration": 0.24324300000000676,
          "durationTicks": 72,
          "midi": 96,
          "name": "C7",
          "ticks": 21576,
          "time": 72.891819,
          "velocity": 0.8267716535433071
        },
        {
          "duration": 0.08108099999999752,
          "durationTicks": 24,
          "midi": 92,
          "name": "G#6",
          "ticks": 21648,
          "time": 73.135062,
          "velocity": 0.8267716535433071
        },
        {
          "duration": 0.08108099999999752,
          "durationTicks": 24,
          "midi": 94,
          "name": "A#6",
          "ticks": 21672,
          "time": 73.216143,
          "velocity": 0.8267716535433071
        },
        {
          "duration": 0.3243240000000043,
          "durationTicks": 96,
          "midi": 92,
          "name": "G#6",
          "ticks": 21696,
          "time": 73.297224,
          "velocity": 0.8267716535433071
        },
        {
          "duration": 0.08108099999999752,
          "durationTicks": 24,
          "midi": 77,
          "name": "F5",
          "ticks": 21792,
          "time": 73.621548,
          "velocity": 0.8267716535433071
        },
        {
          "duration": 0.08108099999999752,
          "durationTicks": 24,
          "midi": 80,
          "name": "G#5",
          "ticks": 21816,
          "time": 73.702629,
          "velocity": 0.8267716535433071
        },
        {
          "duration": 0.08108099999999752,
          "durationTicks": 24,
          "midi": 84,
          "name": "C6",
          "ticks": 21840,
          "time": 73.78371,
          "velocity": 0.8267716535433071
        },
        {
          "duration": 0.08108099999999752,
          "durationTicks": 24,
          "midi": 85,
          "name": "C#6",
          "ticks": 21864,
          "time": 73.864791,
          "velocity": 0.8267716535433071
        },
        {
          "duration": 0.08108100000001173,
          "durationTicks": 24,
          "midi": 87,
          "name": "D#6",
          "ticks": 21888,
          "time": 73.945872,
          "velocity": 0.8267716535433071
        },
        {
          "duration": 0.16216199999999503,
          "durationTicks": 48,
          "midi": 89,
          "name": "F6",
          "ticks": 21912,
          "time": 74.026953,
          "velocity": 0.8267716535433071
        },
        {
          "duration": 0.08108099999999752,
          "durationTicks": 24,
          "midi": 87,
          "name": "D#6",
          "ticks": 21960,
          "time": 74.189115,
          "velocity": 0.8267716535433071
        },
        {
          "duration": 0.08108099999999752,
          "durationTicks": 24,
          "midi": 92,
          "name": "G#6",
          "ticks": 21984,
          "time": 74.270196,
          "velocity": 0.8267716535433071
        },
        {
          "duration": 0.08108099999999752,
          "durationTicks": 24,
          "midi": 89,
          "name": "F6",
          "ticks": 22008,
          "time": 74.351277,
          "velocity": 0.8267716535433071
        },
        {
          "duration": 0.08108100000001173,
          "durationTicks": 24,
          "midi": 87,
          "name": "D#6",
          "ticks": 22032,
          "time": 74.432358,
          "velocity": 0.8267716535433071
        },
        {
          "duration": 0.08108099999999752,
          "durationTicks": 24,
          "midi": 85,
          "name": "C#6",
          "ticks": 22056,
          "time": 74.513439,
          "velocity": 0.8267716535433071
        },
        {
          "duration": 0.24324299999999255,
          "durationTicks": 72,
          "midi": 84,
          "name": "C6",
          "ticks": 22080,
          "time": 74.59452,
          "velocity": 0.8267716535433071
        },
        {
          "duration": 0.24324300000000676,
          "durationTicks": 72,
          "midi": 85,
          "name": "C#6",
          "ticks": 22152,
          "time": 74.837763,
          "velocity": 0.8267716535433071
        },
        {
          "duration": 0.08108099999999752,
          "durationTicks": 24,
          "midi": 85,
          "name": "C#6",
          "ticks": 22224,
          "time": 75.081006,
          "velocity": 0.8267716535433071
        },
        {
          "duration": 0.16216200000000924,
          "durationTicks": 48,
          "midi": 94,
          "name": "A#6",
          "ticks": 22272,
          "time": 75.243168,
          "velocity": 0.7480314960629921
        },
        {
          "duration": 0.16216200000000924,
          "durationTicks": 48,
          "midi": 97,
          "name": "C#7",
          "ticks": 22272,
          "time": 75.243168,
          "velocity": 0.8267716535433071
        },
        {
          "duration": 0.16216199999999503,
          "durationTicks": 48,
          "midi": 99,
          "name": "D#7",
          "ticks": 22320,
          "time": 75.40533,
          "velocity": 0.8267716535433071
        },
        {
          "duration": 0.16216199999999503,
          "durationTicks": 48,
          "midi": 96,
          "name": "C7",
          "ticks": 22320,
          "time": 75.40533,
          "velocity": 0.7480314960629921
        },
        {
          "duration": 0.16216199999999503,
          "durationTicks": 48,
          "midi": 97,
          "name": "C#7",
          "ticks": 22368,
          "time": 75.567492,
          "velocity": 0.8267716535433071
        },
        {
          "duration": 0.16216199999999503,
          "durationTicks": 48,
          "midi": 94,
          "name": "A#6",
          "ticks": 22368,
          "time": 75.567492,
          "velocity": 0.7480314960629921
        },
        {
          "duration": 0.16216200000000924,
          "durationTicks": 48,
          "midi": 92,
          "name": "G#6",
          "ticks": 22440,
          "time": 75.810735,
          "velocity": 0.7480314960629921
        },
        {
          "duration": 0.16216200000000924,
          "durationTicks": 48,
          "midi": 96,
          "name": "C7",
          "ticks": 22440,
          "time": 75.810735,
          "velocity": 0.8267716535433071
        },
        {
          "duration": 0.16216199999999503,
          "durationTicks": 48,
          "midi": 92,
          "name": "G#6",
          "ticks": 22512,
          "time": 76.053978,
          "velocity": 0.8267716535433071
        },
        {
          "duration": 0.16216199999999503,
          "durationTicks": 48,
          "midi": 89,
          "name": "F6",
          "ticks": 22512,
          "time": 76.053978,
          "velocity": 0.7480314960629921
        },
        {
          "duration": 0.16216200000000924,
          "durationTicks": 48,
          "midi": 87,
          "name": "D#6",
          "ticks": 22560,
          "time": 76.21614,
          "velocity": 0.8267716535433071
        },
        {
          "duration": 0.16216200000000924,
          "durationTicks": 48,
          "midi": 84,
          "name": "C6",
          "ticks": 22560,
          "time": 76.21614,
          "velocity": 0.7480314960629921
        },
        {
          "duration": 0.16216199999999503,
          "durationTicks": 48,
          "midi": 80,
          "name": "G#5",
          "ticks": 22632,
          "time": 76.459383,
          "velocity": 0.8267716535433071
        },
        {
          "duration": 0.16216199999999503,
          "durationTicks": 48,
          "midi": 77,
          "name": "F5",
          "ticks": 22632,
          "time": 76.459383,
          "velocity": 0.7480314960629921
        },
        {
          "duration": 0.16216200000000924,
          "durationTicks": 48,
          "midi": 82,
          "name": "A#5",
          "ticks": 22704,
          "time": 76.702626,
          "velocity": 0.8267716535433071
        },
        {
          "duration": 0.16216199999999503,
          "durationTicks": 48,
          "midi": 84,
          "name": "C6",
          "ticks": 22752,
          "time": 76.864788,
          "velocity": 0.8267716535433071
        },
        {
          "duration": 0.16216200000000924,
          "durationTicks": 48,
          "midi": 85,
          "name": "C#6",
          "ticks": 22824,
          "time": 77.108031,
          "velocity": 0.8267716535433071
        },
        {
          "duration": 0.16216199999999503,
          "durationTicks": 48,
          "midi": 87,
          "name": "D#6",
          "ticks": 22896,
          "time": 77.351274,
          "velocity": 0.8267716535433071
        },
        {
          "duration": 0.16216199999999503,
          "durationTicks": 48,
          "midi": 85,
          "name": "C#6",
          "ticks": 22944,
          "time": 77.513436,
          "velocity": 0.8267716535433071
        },
        {
          "duration": 0.16216200000000924,
          "durationTicks": 48,
          "midi": 87,
          "name": "D#6",
          "ticks": 22992,
          "time": 77.675598,
          "velocity": 0.8267716535433071
        },
        {
          "duration": 0.08108100000001173,
          "durationTicks": 24,
          "midi": 81,
          "name": "A5",
          "ticks": 42144,
          "time": 142.378236,
          "velocity": 0.8267716535433071
        },
        {
          "duration": 0.08108100000001173,
          "durationTicks": 24,
          "midi": 83,
          "name": "B5",
          "ticks": 42168,
          "time": 142.459317,
          "velocity": 0.8267716535433071
        },
        {
          "duration": 0.0810809999999833,
          "durationTicks": 24,
          "midi": 86,
          "name": "D6",
          "ticks": 42192,
          "time": 142.540398,
          "velocity": 0.8267716535433071
        },
        {
          "duration": 0.08108100000001173,
          "durationTicks": 24,
          "midi": 93,
          "name": "A6",
          "ticks": 42216,
          "time": 142.621479,
          "velocity": 0.8267716535433071
        },
        {
          "duration": 0.0810809999999833,
          "durationTicks": 24,
          "midi": 97,
          "name": "C#7",
          "ticks": 42240,
          "time": 142.70256,
          "velocity": 0.8267716535433071
        },
        {
          "duration": 0.2027025000000151,
          "durationTicks": 60,
          "midi": 98,
          "name": "D7",
          "ticks": 42252,
          "time": 142.7431005,
          "velocity": 0.8267716535433071
        },
        {
          "duration": 0.24324299999997834,
          "durationTicks": 72,
          "midi": 97,
          "name": "C#7",
          "ticks": 42312,
          "time": 142.945803,
          "velocity": 0.8267716535433071
        },
        {
          "duration": 0.08108100000001173,
          "durationTicks": 24,
          "midi": 93,
          "name": "A6",
          "ticks": 42384,
          "time": 143.189046,
          "velocity": 0.8267716535433071
        },
        {
          "duration": 0.08108100000001173,
          "durationTicks": 24,
          "midi": 95,
          "name": "B6",
          "ticks": 42408,
          "time": 143.270127,
          "velocity": 0.8267716535433071
        },
        {
          "duration": 0.32432399999999006,
          "durationTicks": 96,
          "midi": 93,
          "name": "A6",
          "ticks": 42432,
          "time": 143.351208,
          "velocity": 0.8267716535433071
        },
        {
          "duration": 0.0810809999999833,
          "durationTicks": 24,
          "midi": 78,
          "name": "F#5",
          "ticks": 42528,
          "time": 143.675532,
          "velocity": 0.8267716535433071
        },
        {
          "duration": 0.08108100000001173,
          "durationTicks": 24,
          "midi": 81,
          "name": "A5",
          "ticks": 42552,
          "time": 143.756613,
          "velocity": 0.8267716535433071
        },
        {
          "duration": 0.08108100000001173,
          "durationTicks": 24,
          "midi": 85,
          "name": "C#6",
          "ticks": 42576,
          "time": 143.837694,
          "velocity": 0.8267716535433071
        },
        {
          "duration": 0.0810809999999833,
          "durationTicks": 24,
          "midi": 86,
          "name": "D6",
          "ticks": 42600,
          "time": 143.918775,
          "velocity": 0.8267716535433071
        },
        {
          "duration": 0.08108100000001173,
          "durationTicks": 24,
          "midi": 88,
          "name": "E6",
          "ticks": 42624,
          "time": 143.999856,
          "velocity": 0.8267716535433071
        },
        {
          "duration": 0.16216199999999503,
          "durationTicks": 48,
          "midi": 90,
          "name": "F#6",
          "ticks": 42648,
          "time": 144.080937,
          "velocity": 0.8267716535433071
        },
        {
          "duration": 0.08108100000001173,
          "durationTicks": 24,
          "midi": 88,
          "name": "E6",
          "ticks": 42696,
          "time": 144.243099,
          "velocity": 0.8267716535433071
        },
        {
          "duration": 0.0810809999999833,
          "durationTicks": 24,
          "midi": 93,
          "name": "A6",
          "ticks": 42720,
          "time": 144.32418,
          "velocity": 0.8267716535433071
        },
        {
          "duration": 0.08108100000001173,
          "durationTicks": 24,
          "midi": 90,
          "name": "F#6",
          "ticks": 42744,
          "time": 144.405261,
          "velocity": 0.8267716535433071
        },
        {
          "duration": 0.0810809999999833,
          "durationTicks": 24,
          "midi": 88,
          "name": "E6",
          "ticks": 42768,
          "time": 144.486342,
          "velocity": 0.8267716535433071
        },
        {
          "duration": 0.08108100000001173,
          "durationTicks": 24,
          "midi": 86,
          "name": "D6",
          "ticks": 42792,
          "time": 144.567423,
          "velocity": 0.8267716535433071
        },
        {
          "duration": 0.24324300000000676,
          "durationTicks": 72,
          "midi": 85,
          "name": "C#6",
          "ticks": 42816,
          "time": 144.648504,
          "velocity": 0.8267716535433071
        },
        {
          "duration": 0.24324299999997834,
          "durationTicks": 72,
          "midi": 86,
          "name": "D6",
          "ticks": 42888,
          "time": 144.891747,
          "velocity": 0.8267716535433071
        },
        {
          "duration": 0.08108100000001173,
          "durationTicks": 24,
          "midi": 86,
          "name": "D6",
          "ticks": 42960,
          "time": 145.13499,
          "velocity": 0.8267716535433071
        },
        {
          "duration": 0.08108100000001173,
          "durationTicks": 24,
          "midi": 88,
          "name": "E6",
          "ticks": 42984,
          "time": 145.216071,
          "velocity": 0.8267716535433071
        },
        {
          "duration": 0.24324299999997834,
          "durationTicks": 72,
          "midi": 90,
          "name": "F#6",
          "ticks": 43008,
          "time": 145.297152,
          "velocity": 0.8267716535433071
        },
        {
          "duration": 0.2027025000000151,
          "durationTicks": 60,
          "midi": 88,
          "name": "E6",
          "ticks": 43080,
          "time": 145.540395,
          "velocity": 0.8267716535433071
        },
        {
          "duration": 0.16216199999999503,
          "durationTicks": 48,
          "midi": 86,
          "name": "D6",
          "ticks": 43152,
          "time": 145.783638,
          "velocity": 0.8267716535433071
        },
        {
          "duration": 0.3243240000000185,
          "durationTicks": 96,
          "midi": 81,
          "name": "A5",
          "ticks": 43200,
          "time": 145.9458,
          "velocity": 0.8267716535433071
        },
        {
          "duration": 0.0810809999999833,
          "durationTicks": 24,
          "midi": 79,
          "name": "G5",
          "ticks": 43296,
          "time": 146.270124,
          "velocity": 0.8267716535433071
        },
        {
          "duration": 0.08108100000001173,
          "durationTicks": 24,
          "midi": 81,
          "name": "A5",
          "ticks": 43320,
          "time": 146.351205,
          "velocity": 0.8267716535433071
        },
        {
          "duration": 0.0810809999999833,
          "durationTicks": 24,
          "midi": 83,
          "name": "B5",
          "ticks": 43344,
          "time": 146.432286,
          "velocity": 0.8267716535433071
        },
        {
          "duration": 0.08108100000001173,
          "durationTicks": 24,
          "midi": 85,
          "name": "C#6",
          "ticks": 43368,
          "time": 146.513367,
          "velocity": 0.8267716535433071
        },
        {
          "duration": 0.24324300000000676,
          "durationTicks": 72,
          "midi": 85,
          "name": "C#6",
          "ticks": 43392,
          "time": 146.594448,
          "velocity": 0.8267716535433071
        },
        {
          "duration": 0.0810809999999833,
          "durationTicks": 24,
          "midi": 86,
          "name": "D6",
          "ticks": 43464,
          "time": 146.837691,
          "velocity": 0.8267716535433071
        },
        {
          "duration": 0.24324300000000676,
          "durationTicks": 72,
          "midi": 85,
          "name": "C#6",
          "ticks": 43488,
          "time": 146.918772,
          "velocity": 0.8267716535433071
        },
        {
          "duration": 0.08108100000001173,
          "durationTicks": 24,
          "midi": 86,
          "name": "D6",
          "ticks": 43560,
          "time": 147.162015,
          "velocity": 0.8267716535433071
        },
        {
          "duration": 0.16216199999999503,
          "durationTicks": 48,
          "midi": 88,
          "name": "E6",
          "ticks": 43632,
          "time": 147.405258,
          "velocity": 0.8267716535433071
        },
        {
          "duration": 0.16216199999999503,
          "durationTicks": 48,
          "midi": 86,
          "name": "D6",
          "ticks": 43680,
          "time": 147.56742,
          "velocity": 0.8267716535433071
        },
        {
          "duration": 0.16216199999999503,
          "durationTicks": 48,
          "midi": 88,
          "name": "E6",
          "ticks": 43728,
          "time": 147.729582,
          "velocity": 0.8267716535433071
        },
        {
          "duration": 0.08108100000001173,
          "durationTicks": 24,
          "midi": 97,
          "name": "C#7",
          "ticks": 43776,
          "time": 147.891744,
          "velocity": 0.8267716535433071
        },
        {
          "duration": 0.20270249999998668,
          "durationTicks": 60,
          "midi": 98,
          "name": "D7",
          "ticks": 43788,
          "time": 147.9322845,
          "velocity": 0.8267716535433071
        },
        {
          "duration": 0.24324300000000676,
          "durationTicks": 72,
          "midi": 97,
          "name": "C#7",
          "ticks": 43848,
          "time": 148.134987,
          "velocity": 0.8267716535433071
        },
        {
          "duration": 0.08108100000001173,
          "durationTicks": 24,
          "midi": 93,
          "name": "A6",
          "ticks": 43920,
          "time": 148.37823,
          "velocity": 0.8267716535433071
        },
        {
          "duration": 0.0810809999999833,
          "durationTicks": 24,
          "midi": 95,
          "name": "B6",
          "ticks": 43944,
          "time": 148.459311,
          "velocity": 0.8267716535433071
        },
        {
          "duration": 0.32432399999999006,
          "durationTicks": 96,
          "midi": 93,
          "name": "A6",
          "ticks": 43968,
          "time": 148.540392,
          "velocity": 0.8267716535433071
        },
        {
          "duration": 0.08108100000001173,
          "durationTicks": 24,
          "midi": 78,
          "name": "F#5",
          "ticks": 44064,
          "time": 148.864716,
          "velocity": 0.8267716535433071
        },
        {
          "duration": 0.08108100000001173,
          "durationTicks": 24,
          "midi": 81,
          "name": "A5",
          "ticks": 44088,
          "time": 148.945797,
          "velocity": 0.8267716535433071
        },
        {
          "duration": 0.0810809999999833,
          "durationTicks": 24,
          "midi": 85,
          "name": "C#6",
          "ticks": 44112,
          "time": 149.026878,
          "velocity": 0.8267716535433071
        },
        {
          "duration": 0.08108100000001173,
          "durationTicks": 24,
          "midi": 86,
          "name": "D6",
          "ticks": 44136,
          "time": 149.107959,
          "velocity": 0.8267716535433071
        },
        {
          "duration": 0.0810809999999833,
          "durationTicks": 24,
          "midi": 88,
          "name": "E6",
          "ticks": 44160,
          "time": 149.18904,
          "velocity": 0.8267716535433071
        },
        {
          "duration": 0.16216200000002345,
          "durationTicks": 48,
          "midi": 90,
          "name": "F#6",
          "ticks": 44184,
          "time": 149.270121,
          "velocity": 0.8267716535433071
        },
        {
          "duration": 0.0810809999999833,
          "durationTicks": 24,
          "midi": 88,
          "name": "E6",
          "ticks": 44232,
          "time": 149.432283,
          "velocity": 0.8267716535433071
        },
        {
          "duration": 0.08108100000001173,
          "durationTicks": 24,
          "midi": 93,
          "name": "A6",
          "ticks": 44256,
          "time": 149.513364,
          "velocity": 0.8267716535433071
        },
        {
          "duration": 0.0810809999999833,
          "durationTicks": 24,
          "midi": 90,
          "name": "F#6",
          "ticks": 44280,
          "time": 149.594445,
          "velocity": 0.8267716535433071
        },
        {
          "duration": 0.08108100000001173,
          "durationTicks": 24,
          "midi": 88,
          "name": "E6",
          "ticks": 44304,
          "time": 149.675526,
          "velocity": 0.8267716535433071
        },
        {
          "duration": 0.08108100000001173,
          "durationTicks": 24,
          "midi": 86,
          "name": "D6",
          "ticks": 44328,
          "time": 149.756607,
          "velocity": 0.8267716535433071
        },
        {
          "duration": 0.24324299999997834,
          "durationTicks": 72,
          "midi": 85,
          "name": "C#6",
          "ticks": 44352,
          "time": 149.837688,
          "velocity": 0.8267716535433071
        },
        {
          "duration": 0.24324300000000676,
          "durationTicks": 72,
          "midi": 86,
          "name": "D6",
          "ticks": 44424,
          "time": 150.080931,
          "velocity": 0.8267716535433071
        },
        {
          "duration": 0.08108100000001173,
          "durationTicks": 24,
          "midi": 86,
          "name": "D6",
          "ticks": 44496,
          "time": 150.324174,
          "velocity": 0.8267716535433071
        },
        {
          "duration": 0.16216199999999503,
          "durationTicks": 48,
          "midi": 98,
          "name": "D7",
          "ticks": 44544,
          "time": 150.486336,
          "velocity": 0.8267716535433071
        },
        {
          "duration": 0.16216199999999503,
          "durationTicks": 48,
          "midi": 95,
          "name": "B6",
          "ticks": 44544,
          "time": 150.486336,
          "velocity": 0.7480314960629921
        },
        {
          "duration": 0.16216200000002345,
          "durationTicks": 48,
          "midi": 97,
          "name": "C#7",
          "ticks": 44592,
          "time": 150.648498,
          "velocity": 0.7480314960629921
        },
        {
          "duration": 0.16216200000002345,
          "durationTicks": 48,
          "midi": 100,
          "name": "E7",
          "ticks": 44592,
          "time": 150.648498,
          "velocity": 0.8267716535433071
        },
        {
          "duration": 0.16216199999999503,
          "durationTicks": 48,
          "midi": 95,
          "name": "B6",
          "ticks": 44640,
          "time": 150.81066,
          "velocity": 0.7480314960629921
        },
        {
          "duration": 0.16216199999999503,
          "durationTicks": 48,
          "midi": 98,
          "name": "D7",
          "ticks": 44640,
          "time": 150.81066,
          "velocity": 0.8267716535433071
        },
        {
          "duration": 0.16216200000002345,
          "durationTicks": 48,
          "midi": 93,
          "name": "A6",
          "ticks": 44712,
          "time": 151.053903,
          "velocity": 0.7480314960629921
        },
        {
          "duration": 0.16216200000002345,
          "durationTicks": 48,
          "midi": 97,
          "name": "C#7",
          "ticks": 44712,
          "time": 151.053903,
          "velocity": 0.8267716535433071
        },
        {
          "duration": 0.16216199999999503,
          "durationTicks": 48,
          "midi": 90,
          "name": "F#6",
          "ticks": 44784,
          "time": 151.297146,
          "velocity": 0.7480314960629921
        },
        {
          "duration": 0.16216199999999503,
          "durationTicks": 48,
          "midi": 93,
          "name": "A6",
          "ticks": 44784,
          "time": 151.297146,
          "velocity": 0.8267716535433071
        },
        {
          "duration": 0.16216199999999503,
          "durationTicks": 48,
          "midi": 85,
          "name": "C#6",
          "ticks": 44832,
          "time": 151.459308,
          "velocity": 0.7480314960629921
        },
        {
          "duration": 0.16216199999999503,
          "durationTicks": 48,
          "midi": 88,
          "name": "E6",
          "ticks": 44832,
          "time": 151.459308,
          "velocity": 0.8267716535433071
        },
        {
          "duration": 0.16216199999999503,
          "durationTicks": 48,
          "midi": 78,
          "name": "F#5",
          "ticks": 44904,
          "time": 151.702551,
          "velocity": 0.7480314960629921
        },
        {
          "duration": 0.16216199999999503,
          "durationTicks": 48,
          "midi": 81,
          "name": "A5",
          "ticks": 44904,
          "time": 151.702551,
          "velocity": 0.8267716535433071
        },
        {
          "duration": 0.16216199999999503,
          "durationTicks": 48,
          "midi": 83,
          "name": "B5",
          "ticks": 44976,
          "time": 151.945794,
          "velocity": 0.8267716535433071
        },
        {
          "duration": 0.16216199999999503,
          "durationTicks": 48,
          "midi": 85,
          "name": "C#6",
          "ticks": 45024,
          "time": 152.107956,
          "velocity": 0.8267716535433071
        },
        {
          "duration": 0.16216199999999503,
          "durationTicks": 48,
          "midi": 86,
          "name": "D6",
          "ticks": 45096,
          "time": 152.351199,
          "velocity": 0.8267716535433071
        },
        {
          "duration": 0.16216200000002345,
          "durationTicks": 48,
          "midi": 88,
          "name": "E6",
          "ticks": 45168,
          "time": 152.594442,
          "velocity": 0.8267716535433071
        },
        {
          "duration": 0.16216199999999503,
          "durationTicks": 48,
          "midi": 86,
          "name": "D6",
          "ticks": 45216,
          "time": 152.756604,
          "velocity": 0.8267716535433071
        },
        {
          "duration": 0.16216199999999503,
          "durationTicks": 48,
          "midi": 88,
          "name": "E6",
          "ticks": 45264,
          "time": 152.918766,
          "velocity": 0.8267716535433071
        }
      ],
      "endOfTrackTicks": 46086
    },
    {
      "channel": 13,
      "controlChanges": {
        "6": [
          {
            "number": 6,
            "ticks": 0,
            "time": 0,
            "value": 0.09448818897637795
          },
          {
            "number": 6,
            "ticks": 0,
            "time": 0,
            "value": 0.09448818897637795
          },
          {
            "number": 6,
            "ticks": 0,
            "time": 0,
            "value": 0.09448818897637795
          },
          {
            "number": 6,
            "ticks": 46084,
            "time": 155.6890335,
            "value": 0.09448818897637795
          },
          {
            "number": 6,
            "ticks": 46086,
            "time": 155.69579025,
            "value": 0.09448818897637795
          }
        ],
        "7": [
          {
            "number": 7,
            "ticks": 0,
            "time": 0,
            "value": 0.7874015748031497
          },
          {
            "number": 7,
            "ticks": 0,
            "time": 0,
            "value": 0.7874015748031497
          },
          {
            "number": 7,
            "ticks": 0,
            "time": 0,
            "value": 0.7874015748031497
          },
          {
            "number": 7,
            "ticks": 0,
            "time": 0,
            "value": 0.7874015748031497
          },
          {
            "number": 7,
            "ticks": 46084,
            "time": 155.6890335,
            "value": 0.7874015748031497
          },
          {
            "number": 7,
            "ticks": 46086,
            "time": 155.69579025,
            "value": 0.7874015748031497
          }
        ],
        "10": [
          {
            "number": 10,
            "ticks": 0,
            "time": 0,
            "value": 0.5039370078740157
          },
          {
            "number": 10,
            "ticks": 0,
            "time": 0,
            "value": 0.5039370078740157
          },
          {
            "number": 10,
            "ticks": 0,
            "time": 0,
            "value": 0.5039370078740157
          },
          {
            "number": 10,
            "ticks": 0,
            "time": 0,
            "value": 0.5039370078740157
          },
          {
            "number": 10,
            "ticks": 46084,
            "time": 155.6890335,
            "value": 0.5039370078740157
          },
          {
            "number": 10,
            "ticks": 46086,
            "time": 155.69579025,
            "value": 0.5039370078740157
          }
        ],
        "100": [
          {
            "number": 100,
            "ticks": 0,
            "time": 0,
            "value": 0
          },
          {
            "number": 100,
            "ticks": 0,
            "time": 0,
            "value": 0
          },
          {
            "number": 100,
            "ticks": 0,
            "time": 0,
            "value": 0
          },
          {
            "number": 100,
            "ticks": 46084,
            "time": 155.6890335,
            "value": 0
          },
          {
            "number": 100,
            "ticks": 46086,
            "time": 155.69579025,
            "value": 0
          }
        ],
        "101": [
          {
            "number": 101,
            "ticks": 0,
            "time": 0,
            "value": 0
          },
          {
            "number": 101,
            "ticks": 0,
            "time": 0,
            "value": 0
          },
          {
            "number": 101,
            "ticks": 0,
            "time": 0,
            "value": 0
          },
          {
            "number": 101,
            "ticks": 46084,
            "time": 155.6890335,
            "value": 0
          },
          {
            "number": 101,
            "ticks": 46086,
            "time": 155.69579025,
            "value": 0
          }
        ]
      },
      "pitchBends": [
        {
          "ticks": 0,
          "time": 0,
          "value": 0
        },
        {
          "ticks": 0,
          "time": 0,
          "value": 0
        },
        {
          "ticks": 0,
          "time": 0,
          "value": 0
        },
        {
          "ticks": 0,
          "time": 0,
          "value": 0
        },
        {
          "ticks": 46084,
          "time": 155.6890335,
          "value": 0
        },
        {
          "ticks": 46086,
          "time": 155.69579025,
          "value": 0
        }
      ],
      "instrument": {
        "family": "piano",
        "number": 0,
        "name": "acoustic grand piano"
      },
      "name": "Lead",
      "notes": [
        {
          "duration": 0.08108099999999974,
          "durationTicks": 24,
          "midi": 68,
          "name": "G#4",
          "ticks": 672,
          "time": 2.270268,
          "velocity": 0.8267716535433071
        },
        {
          "duration": 0.08108100000000018,
          "durationTicks": 24,
          "midi": 70,
          "name": "A#4",
          "ticks": 696,
          "time": 2.351349,
          "velocity": 0.8267716535433071
        },
        {
          "duration": 0.08108099999999974,
          "durationTicks": 24,
          "midi": 73,
          "name": "C#5",
          "ticks": 720,
          "time": 2.43243,
          "velocity": 0.8267716535433071
        },
        {
          "duration": 0.08108100000000018,
          "durationTicks": 24,
          "midi": 80,
          "name": "G#5",
          "ticks": 744,
          "time": 2.513511,
          "velocity": 0.8267716535433071
        },
        {
          "duration": 0.08108100000000018,
          "durationTicks": 24,
          "midi": 84,
          "name": "C6",
          "ticks": 768,
          "time": 2.594592,
          "velocity": 0.8267716535433071
        },
        {
          "duration": 0.2027025,
          "durationTicks": 60,
          "midi": 85,
          "name": "C#6",
          "ticks": 780,
          "time": 2.6351325,
          "velocity": 0.8267716535433071
        },
        {
          "duration": 0.2432430000000001,
          "durationTicks": 72,
          "midi": 84,
          "name": "C6",
          "ticks": 840,
          "time": 2.837835,
          "velocity": 0.8267716535433071
        },
        {
          "duration": 0.08108099999999974,
          "durationTicks": 24,
          "midi": 80,
          "name": "G#5",
          "ticks": 912,
          "time": 3.081078,
          "velocity": 0.8267716535433071
        },
        {
          "duration": 0.08108100000000018,
          "durationTicks": 24,
          "midi": 82,
          "name": "A#5",
          "ticks": 936,
          "time": 3.162159,
          "velocity": 0.8267716535433071
        },
        {
          "duration": 0.32432399999999983,
          "durationTicks": 96,
          "midi": 80,
          "name": "G#5",
          "ticks": 960,
          "time": 3.24324,
          "velocity": 0.8267716535433071
        },
        {
          "duration": 0.08108100000000018,
          "durationTicks": 24,
          "midi": 65,
          "name": "F4",
          "ticks": 1056,
          "time": 3.567564,
          "velocity": 0.8267716535433071
        },
        {
          "duration": 0.08108099999999974,
          "durationTicks": 24,
          "midi": 68,
          "name": "G#4",
          "ticks": 1080,
          "time": 3.648645,
          "velocity": 0.8267716535433071
        },
        {
          "duration": 0.08108100000000018,
          "durationTicks": 24,
          "midi": 72,
          "name": "C5",
          "ticks": 1104,
          "time": 3.729726,
          "velocity": 0.8267716535433071
        },
        {
          "duration": 0.08108099999999974,
          "durationTicks": 24,
          "midi": 73,
          "name": "C#5",
          "ticks": 1128,
          "time": 3.810807,
          "velocity": 0.8267716535433071
        },
        {
          "duration": 0.08108100000000018,
          "durationTicks": 24,
          "midi": 75,
          "name": "D#5",
          "ticks": 1152,
          "time": 3.891888,
          "velocity": 0.8267716535433071
        },
        {
          "duration": 0.16216200000000036,
          "durationTicks": 48,
          "midi": 77,
          "name": "F5",
          "ticks": 1176,
          "time": 3.972969,
          "velocity": 0.8267716535433071
        },
        {
          "duration": 0.08108099999999929,
          "durationTicks": 24,
          "midi": 75,
          "name": "D#5",
          "ticks": 1224,
          "time": 4.135131,
          "velocity": 0.8267716535433071
        },
        {
          "duration": 0.08108100000000018,
          "durationTicks": 24,
          "midi": 80,
          "name": "G#5",
          "ticks": 1248,
          "time": 4.216212,
          "velocity": 0.8267716535433071
        },
        {
          "duration": 0.08108100000000018,
          "durationTicks": 24,
          "midi": 77,
          "name": "F5",
          "ticks": 1272,
          "time": 4.297293,
          "velocity": 0.8267716535433071
        },
        {
          "duration": 0.08108100000000018,
          "durationTicks": 24,
          "midi": 75,
          "name": "D#5",
          "ticks": 1296,
          "time": 4.378374,
          "velocity": 0.8267716535433071
        },
        {
          "duration": 0.08108100000000018,
          "durationTicks": 24,
          "midi": 73,
          "name": "C#5",
          "ticks": 1320,
          "time": 4.459455,
          "velocity": 0.8267716535433071
        },
        {
          "duration": 0.24324299999999965,
          "durationTicks": 72,
          "midi": 72,
          "name": "C5",
          "ticks": 1344,
          "time": 4.540536,
          "velocity": 0.8267716535433071
        },
        {
          "duration": 0.24324299999999965,
          "durationTicks": 72,
          "midi": 73,
          "name": "C#5",
          "ticks": 1416,
          "time": 4.783779,
          "velocity": 0.8267716535433071
        },
        {
          "duration": 0.08108100000000018,
          "durationTicks": 24,
          "midi": 73,
          "name": "C#5",
          "ticks": 1488,
          "time": 5.027022,
          "velocity": 0.8267716535433071
        },
        {
          "duration": 0.08108100000000018,
          "durationTicks": 24,
          "midi": 75,
          "name": "D#5",
          "ticks": 1512,
          "time": 5.108103,
          "velocity": 0.8267716535433071
        },
        {
          "duration": 0.24324299999999965,
          "durationTicks": 72,
          "midi": 77,
          "name": "F5",
          "ticks": 1536,
          "time": 5.189184,
          "velocity": 0.8267716535433071
        },
        {
          "duration": 0.2027025,
          "durationTicks": 60,
          "midi": 75,
          "name": "D#5",
          "ticks": 1608,
          "time": 5.432427,
          "velocity": 0.8267716535433071
        },
        {
          "duration": 0.16216199999999947,
          "durationTicks": 48,
          "midi": 73,
          "name": "C#5",
          "ticks": 1680,
          "time": 5.67567,
          "velocity": 0.8267716535433071
        },
        {
          "duration": 0.3243240000000007,
          "durationTicks": 96,
          "midi": 68,
          "name": "G#4",
          "ticks": 1728,
          "time": 5.837832,
          "velocity": 0.8267716535433071
        },
        {
          "duration": 0.08108099999999929,
          "durationTicks": 24,
          "midi": 66,
          "name": "F#4",
          "ticks": 1824,
          "time": 6.162156,
          "velocity": 0.8267716535433071
        },
        {
          "duration": 0.08108100000000018,
          "durationTicks": 24,
          "midi": 68,
          "name": "G#4",
          "ticks": 1848,
          "time": 6.243237,
          "velocity": 0.8267716535433071
        },
        {
          "duration": 0.08108100000000018,
          "durationTicks": 24,
          "midi": 70,
          "name": "A#4",
          "ticks": 1872,
          "time": 6.324318,
          "velocity": 0.8267716535433071
        },
        {
          "duration": 0.08108100000000018,
          "durationTicks": 24,
          "midi": 72,
          "name": "C5",
          "ticks": 1896,
          "time": 6.405399,
          "velocity": 0.8267716535433071
        },
        {
          "duration": 0.24324299999999965,
          "durationTicks": 72,
          "midi": 72,
          "name": "C5",
          "ticks": 1920,
          "time": 6.48648,
          "velocity": 0.8267716535433071
        },
        {
          "duration": 0.08108100000000018,
          "durationTicks": 24,
          "midi": 73,
          "name": "C#5",
          "ticks": 1992,
          "time": 6.729723,
          "velocity": 0.8267716535433071
        },
        {
          "duration": 0.24324299999999965,
          "durationTicks": 72,
          "midi": 72,
          "name": "C5",
          "ticks": 2016,
          "time": 6.810804,
          "velocity": 0.8267716535433071
        },
        {
          "duration": 0.08108100000000018,
          "durationTicks": 24,
          "midi": 73,
          "name": "C#5",
          "ticks": 2088,
          "time": 7.054047,
          "velocity": 0.8267716535433071
        },
        {
          "duration": 0.16216199999999947,
          "durationTicks": 48,
          "midi": 75,
          "name": "D#5",
          "ticks": 2160,
          "time": 7.29729,
          "velocity": 0.8267716535433071
        },
        {
          "duration": 0.16216200000000036,
          "durationTicks": 48,
          "midi": 73,
          "name": "C#5",
          "ticks": 2208,
          "time": 7.459452,
          "velocity": 0.8267716535433071
        },
        {
          "duration": 0.16216199999999947,
          "durationTicks": 48,
          "midi": 75,
          "name": "D#5",
          "ticks": 2256,
          "time": 7.621614,
          "velocity": 0.8267716535433071
        },
        {
          "duration": 0.08108100000000018,
          "durationTicks": 24,
          "midi": 84,
          "name": "C6",
          "ticks": 2304,
          "time": 7.783776,
          "velocity": 0.8267716535433071
        },
        {
          "duration": 0.20270249999999912,
          "durationTicks": 60,
          "midi": 85,
          "name": "C#6",
          "ticks": 2316,
          "time": 7.8243165,
          "velocity": 0.8267716535433071
        },
        {
          "duration": 0.24324300000000143,
          "durationTicks": 72,
          "midi": 84,
          "name": "C6",
          "ticks": 2376,
          "time": 8.027019,
          "velocity": 0.8267716535433071
        },
        {
          "duration": 0.08108099999999929,
          "durationTicks": 24,
          "midi": 80,
          "name": "G#5",
          "ticks": 2448,
          "time": 8.270262,
          "velocity": 0.8267716535433071
        },
        {
          "duration": 0.08108099999999929,
          "durationTicks": 24,
          "midi": 82,
          "name": "A#5",
          "ticks": 2472,
          "time": 8.351343,
          "velocity": 0.8267716535433071
        },
        {
          "duration": 0.3243240000000007,
          "durationTicks": 96,
          "midi": 80,
          "name": "G#5",
          "ticks": 2496,
          "time": 8.432424,
          "velocity": 0.8267716535433071
        },
        {
          "duration": 0.08108099999999929,
          "durationTicks": 24,
          "midi": 65,
          "name": "F4",
          "ticks": 2592,
          "time": 8.756748,
          "velocity": 0.8267716535433071
        },
        {
          "duration": 0.08108100000000107,
          "durationTicks": 24,
          "midi": 68,
          "name": "G#4",
          "ticks": 2616,
          "time": 8.837829,
          "velocity": 0.8267716535433071
        },
        {
          "duration": 0.08108099999999929,
          "durationTicks": 24,
          "midi": 72,
          "name": "C5",
          "ticks": 2640,
          "time": 8.91891,
          "velocity": 0.8267716535433071
        },
        {
          "duration": 0.08108100000000107,
          "durationTicks": 24,
          "midi": 73,
          "name": "C#5",
          "ticks": 2664,
          "time": 8.999991,
          "velocity": 0.8267716535433071
        },
        {
          "duration": 0.08108099999999929,
          "durationTicks": 24,
          "midi": 75,
          "name": "D#5",
          "ticks": 2688,
          "time": 9.081072,
          "velocity": 0.8267716535433071
        },
        {
          "duration": 0.16216200000000036,
          "durationTicks": 48,
          "midi": 77,
          "name": "F5",
          "ticks": 2712,
          "time": 9.162153,
          "velocity": 0.8267716535433071
        },
        {
          "duration": 0.08108099999999929,
          "durationTicks": 24,
          "midi": 75,
          "name": "D#5",
          "ticks": 2760,
          "time": 9.324315,
          "velocity": 0.8267716535433071
        },
        {
          "duration": 0.08108100000000107,
          "durationTicks": 24,
          "midi": 80,
          "name": "G#5",
          "ticks": 2784,
          "time": 9.405396,
          "velocity": 0.8267716535433071
        },
        {
          "duration": 0.08108099999999929,
          "durationTicks": 24,
          "midi": 77,
          "name": "F5",
          "ticks": 2808,
          "time": 9.486477,
          "velocity": 0.8267716535433071
        },
        {
          "duration": 0.08108099999999929,
          "durationTicks": 24,
          "midi": 75,
          "name": "D#5",
          "ticks": 2832,
          "time": 9.567558,
          "velocity": 0.8267716535433071
        },
        {
          "duration": 0.08108100000000107,
          "durationTicks": 24,
          "midi": 73,
          "name": "C#5",
          "ticks": 2856,
          "time": 9.648639,
          "velocity": 0.8267716535433071
        },
        {
          "duration": 0.24324299999999965,
          "durationTicks": 72,
          "midi": 72,
          "name": "C5",
          "ticks": 2880,
          "time": 9.72972,
          "velocity": 0.8267716535433071
        },
        {
          "duration": 0.24324299999999965,
          "durationTicks": 72,
          "midi": 73,
          "name": "C#5",
          "ticks": 2952,
          "time": 9.972963,
          "velocity": 0.8267716535433071
        },
        {
          "duration": 0.08108100000000107,
          "durationTicks": 24,
          "midi": 73,
          "name": "C#5",
          "ticks": 3024,
          "time": 10.216206,
          "velocity": 0.8267716535433071
        },
        {
          "duration": 0.16216200000000036,
          "durationTicks": 48,
          "midi": 85,
          "name": "C#6",
          "ticks": 3072,
          "time": 10.378368,
          "velocity": 0.8267716535433071
        },
        {
          "duration": 0.16216200000000036,
          "durationTicks": 48,
          "midi": 82,
          "name": "A#5",
          "ticks": 3072,
          "time": 10.378368,
          "velocity": 0.7086614173228346
        },
        {
          "duration": 0.16216200000000036,
          "durationTicks": 48,
          "midi": 87,
          "name": "D#6",
          "ticks": 3120,
          "time": 10.54053,
          "velocity": 0.8267716535433071
        },
        {
          "duration": 0.16216200000000036,
          "durationTicks": 48,
          "midi": 84,
          "name": "C6",
          "ticks": 3120,
          "time": 10.54053,
          "velocity": 0.7086614173228346
        },
        {
          "duration": 0.16216199999999859,
          "durationTicks": 48,
          "midi": 82,
          "name": "A#5",
          "ticks": 3168,
          "time": 10.702692,
          "velocity": 0.7086614173228346
        },
        {
          "duration": 0.16216199999999859,
          "durationTicks": 48,
          "midi": 85,
          "name": "C#6",
          "ticks": 3168,
          "time": 10.702692,
          "velocity": 0.8267716535433071
        },
        {
          "duration": 0.16216200000000036,
          "durationTicks": 48,
          "midi": 84,
          "name": "C6",
          "ticks": 3240,
          "time": 10.945935,
          "velocity": 0.8267716535433071
        },
        {
          "duration": 0.16216200000000036,
          "durationTicks": 48,
          "midi": 80,
          "name": "G#5",
          "ticks": 3240,
          "time": 10.945935,
          "velocity": 0.7086614173228346
        },
        {
          "duration": 0.16216200000000036,
          "durationTicks": 48,
          "midi": 77,
          "name": "F5",
          "ticks": 3312,
          "time": 11.189178,
          "velocity": 0.7086614173228346
        },
        {
          "duration": 0.16216200000000036,
          "durationTicks": 48,
          "midi": 80,
          "name": "G#5",
          "ticks": 3312,
          "time": 11.189178,
          "velocity": 0.8267716535433071
        },
        {
          "duration": 0.16216200000000036,
          "durationTicks": 48,
          "midi": 72,
          "name": "C5",
          "ticks": 3360,
          "time": 11.35134,
          "velocity": 0.7086614173228346
        },
        {
          "duration": 0.16216200000000036,
          "durationTicks": 48,
          "midi": 75,
          "name": "D#5",
          "ticks": 3360,
          "time": 11.35134,
          "velocity": 0.8267716535433071
        },
        {
          "duration": 0.16216200000000036,
          "durationTicks": 48,
          "midi": 68,
          "name": "G#4",
          "ticks": 3432,
          "time": 11.594583,
          "velocity": 0.8267716535433071
        },
        {
          "duration": 0.16216200000000036,
          "durationTicks": 48,
          "midi": 65,
          "name": "F4",
          "ticks": 3432,
          "time": 11.594583,
          "velocity": 0.7086614173228346
        },
        {
          "duration": 0.16216200000000036,
          "durationTicks": 48,
          "midi": 70,
          "name": "A#4",
          "ticks": 3504,
          "time": 11.837826,
          "velocity": 0.8267716535433071
        },
        {
          "duration": 0.16216200000000036,
          "durationTicks": 48,
          "midi": 72,
          "name": "C5",
          "ticks": 3552,
          "time": 11.999988,
          "velocity": 0.8267716535433071
        },
        {
          "duration": 0.16216200000000036,
          "durationTicks": 48,
          "midi": 73,
          "name": "C#5",
          "ticks": 3624,
          "time": 12.243231,
          "velocity": 0.8267716535433071
        },
        {
          "duration": 0.16216200000000036,
          "durationTicks": 48,
          "midi": 75,
          "name": "D#5",
          "ticks": 3696,
          "time": 12.486474,
          "velocity": 0.8267716535433071
        },
        {
          "duration": 0.16216200000000036,
          "durationTicks": 48,
          "midi": 73,
          "name": "C#5",
          "ticks": 3744,
          "time": 12.648636,
          "velocity": 0.8267716535433071
        },
        {
          "duration": 0.16216200000000036,
          "durationTicks": 48,
          "midi": 75,
          "name": "D#5",
          "ticks": 3792,
          "time": 12.810798,
          "velocity": 0.8267716535433071
        },
        {
          "duration": 0.3243240000000043,
          "durationTicks": 96,
          "midi": 80,
          "name": "G#5",
          "ticks": 13056,
          "time": 44.108064,
          "velocity": 0.49606299212598426
        },
        {
          "duration": 0.3243240000000043,
          "durationTicks": 96,
          "midi": 92,
          "name": "G#6",
          "ticks": 13056,
          "time": 44.108064,
          "velocity": 0.49606299212598426
        },
        {
          "duration": 0.16216199999999503,
          "durationTicks": 48,
          "midi": 80,
          "name": "G#5",
          "ticks": 13152,
          "time": 44.432388,
          "velocity": 0.49606299212598426
        },
        {
          "duration": 0.16216199999999503,
          "durationTicks": 48,
          "midi": 92,
          "name": "G#6",
          "ticks": 13152,
          "time": 44.432388,
          "velocity": 0.49606299212598426
        },
        {
          "duration": 0.16216200000000214,
          "durationTicks": 48,
          "midi": 82,
          "name": "A#5",
          "ticks": 13200,
          "time": 44.59455,
          "velocity": 0.49606299212598426
        },
        {
          "duration": 0.16216200000000214,
          "durationTicks": 48,
          "midi": 94,
          "name": "A#6",
          "ticks": 13200,
          "time": 44.59455,
          "velocity": 0.49606299212598426
        },
        {
          "duration": 0.32432399999999717,
          "durationTicks": 96,
          "midi": 80,
          "name": "G#5",
          "ticks": 13248,
          "time": 44.756712,
          "velocity": 0.49606299212598426
        },
        {
          "duration": 0.32432399999999717,
          "durationTicks": 96,
          "midi": 92,
          "name": "G#6",
          "ticks": 13248,
          "time": 44.756712,
          "velocity": 0.49606299212598426
        },
        {
          "duration": 0.16216200000000214,
          "durationTicks": 48,
          "midi": 80,
          "name": "G#5",
          "ticks": 13344,
          "time": 45.081036,
          "velocity": 0.49606299212598426
        },
        {
          "duration": 0.16216200000000214,
          "durationTicks": 48,
          "midi": 92,
          "name": "G#6",
          "ticks": 13344,
          "time": 45.081036,
          "velocity": 0.49606299212598426
        },
        {
          "duration": 0.16216200000000214,
          "durationTicks": 48,
          "midi": 82,
          "name": "A#5",
          "ticks": 13392,
          "time": 45.243198,
          "velocity": 0.49606299212598426
        },
        {
          "duration": 0.16216200000000214,
          "durationTicks": 48,
          "midi": 94,
          "name": "A#6",
          "ticks": 13392,
          "time": 45.243198,
          "velocity": 0.49606299212598426
        },
        {
          "duration": 0.32432399999999717,
          "durationTicks": 96,
          "midi": 80,
          "name": "G#5",
          "ticks": 13440,
          "time": 45.40536,
          "velocity": 0.49606299212598426
        },
        {
          "duration": 0.32432399999999717,
          "durationTicks": 96,
          "midi": 92,
          "name": "G#6",
          "ticks": 13440,
          "time": 45.40536,
          "velocity": 0.49606299212598426
        },
        {
          "duration": 0.3243240000000043,
          "durationTicks": 96,
          "midi": 78,
          "name": "F#5",
          "ticks": 13536,
          "time": 45.729684,
          "velocity": 0.49606299212598426
        },
        {
          "duration": 0.3243240000000043,
          "durationTicks": 96,
          "midi": 90,
          "name": "F#6",
          "ticks": 13536,
          "time": 45.729684,
          "velocity": 0.49606299212598426
        },
        {
          "duration": 0.32432399999999717,
          "durationTicks": 96,
          "midi": 77,
          "name": "F5",
          "ticks": 13632,
          "time": 46.054008,
          "velocity": 0.49606299212598426
        },
        {
          "duration": 0.32432399999999717,
          "durationTicks": 96,
          "midi": 89,
          "name": "F6",
          "ticks": 13632,
          "time": 46.054008,
          "velocity": 0.49606299212598426
        },
        {
          "duration": 0.16216200000000214,
          "durationTicks": 48,
          "midi": 75,
          "name": "D#5",
          "ticks": 13728,
          "time": 46.378332,
          "velocity": 0.49606299212598426
        },
        {
          "duration": 0.16216200000000214,
          "durationTicks": 48,
          "midi": 87,
          "name": "D#6",
          "ticks": 13728,
          "time": 46.378332,
          "velocity": 0.49606299212598426
        },
        {
          "duration": 0.16216199999999503,
          "durationTicks": 48,
          "midi": 73,
          "name": "C#5",
          "ticks": 13776,
          "time": 46.540494,
          "velocity": 0.49606299212598426
        },
        {
          "duration": 0.16216199999999503,
          "durationTicks": 48,
          "midi": 85,
          "name": "C#6",
          "ticks": 13776,
          "time": 46.540494,
          "velocity": 0.49606299212598426
        },
        {
          "duration": 0.16216200000000214,
          "durationTicks": 48,
          "midi": 75,
          "name": "D#5",
          "ticks": 13824,
          "time": 46.702656,
          "velocity": 0.49606299212598426
        },
        {
          "duration": 0.16216200000000214,
          "durationTicks": 48,
          "midi": 87,
          "name": "D#6",
          "ticks": 13824,
          "time": 46.702656,
          "velocity": 0.49606299212598426
        },
        {
          "duration": 0.16216200000000214,
          "durationTicks": 48,
          "midi": 73,
          "name": "C#5",
          "ticks": 13872,
          "time": 46.864818,
          "velocity": 0.49606299212598426
        },
        {
          "duration": 0.16216200000000214,
          "durationTicks": 48,
          "midi": 85,
          "name": "C#6",
          "ticks": 13872,
          "time": 46.864818,
          "velocity": 0.49606299212598426
        },
        {
          "duration": 0.16216199999999503,
          "durationTicks": 48,
          "midi": 75,
          "name": "D#5",
          "ticks": 13920,
          "time": 47.02698,
          "velocity": 0.49606299212598426
        },
        {
          "duration": 0.16216199999999503,
          "durationTicks": 48,
          "midi": 87,
          "name": "D#6",
          "ticks": 13920,
          "time": 47.02698,
          "velocity": 0.49606299212598426
        },
        {
          "duration": 0.16216200000000214,
          "durationTicks": 48,
          "midi": 73,
          "name": "C#5",
          "ticks": 13968,
          "time": 47.189142,
          "velocity": 0.49606299212598426
        },
        {
          "duration": 0.16216200000000214,
          "durationTicks": 48,
          "midi": 85,
          "name": "C#6",
          "ticks": 13968,
          "time": 47.189142,
          "velocity": 0.49606299212598426
        },
        {
          "duration": 0.16216200000000214,
          "durationTicks": 48,
          "midi": 75,
          "name": "D#5",
          "ticks": 14016,
          "time": 47.351304,
          "velocity": 0.49606299212598426
        },
        {
          "duration": 0.16216200000000214,
          "durationTicks": 48,
          "midi": 87,
          "name": "D#6",
          "ticks": 14016,
          "time": 47.351304,
          "velocity": 0.49606299212598426
        },
        {
          "duration": 0.16216200000000214,
          "durationTicks": 48,
          "midi": 77,
          "name": "F5",
          "ticks": 14064,
          "time": 47.513466,
          "velocity": 0.49606299212598426
        },
        {
          "duration": 0.16216200000000214,
          "durationTicks": 48,
          "midi": 89,
          "name": "F6",
          "ticks": 14064,
          "time": 47.513466,
          "velocity": 0.49606299212598426
        },
        {
          "duration": 0.3243240000000043,
          "durationTicks": 96,
          "midi": 77,
          "name": "F5",
          "ticks": 14160,
          "time": 47.83779,
          "velocity": 0.49606299212598426
        },
        {
          "duration": 0.3243240000000043,
          "durationTicks": 96,
          "midi": 89,
          "name": "F6",
          "ticks": 14160,
          "time": 47.83779,
          "velocity": 0.49606299212598426
        },
        {
          "duration": 0.16216199999999503,
          "durationTicks": 48,
          "midi": 78,
          "name": "F#5",
          "ticks": 14256,
          "time": 48.162114,
          "velocity": 0.49606299212598426
        },
        {
          "duration": 0.16216199999999503,
          "durationTicks": 48,
          "midi": 90,
          "name": "F#6",
          "ticks": 14256,
          "time": 48.162114,
          "velocity": 0.49606299212598426
        },
        {
          "duration": 0.16216200000000214,
          "durationTicks": 48,
          "midi": 77,
          "name": "F5",
          "ticks": 14304,
          "time": 48.324276,
          "velocity": 0.49606299212598426
        },
        {
          "duration": 0.16216200000000214,
          "durationTicks": 48,
          "midi": 89,
          "name": "F6",
          "ticks": 14304,
          "time": 48.324276,
          "velocity": 0.49606299212598426
        },
        {
          "duration": 0.16216200000000214,
          "durationTicks": 48,
          "midi": 78,
          "name": "F#5",
          "ticks": 14352,
          "time": 48.486438,
          "velocity": 0.49606299212598426
        },
        {
          "duration": 0.16216200000000214,
          "durationTicks": 48,
          "midi": 90,
          "name": "F#6",
          "ticks": 14352,
          "time": 48.486438,
          "velocity": 0.49606299212598426
        },
        {
          "duration": 0.32432399999999717,
          "durationTicks": 96,
          "midi": 77,
          "name": "F5",
          "ticks": 14400,
          "time": 48.6486,
          "velocity": 0.49606299212598426
        },
        {
          "duration": 0.32432399999999717,
          "durationTicks": 96,
          "midi": 89,
          "name": "F6",
          "ticks": 14400,
          "time": 48.6486,
          "velocity": 0.49606299212598426
        },
        {
          "duration": 0.16216200000000214,
          "durationTicks": 48,
          "midi": 75,
          "name": "D#5",
          "ticks": 14496,
          "time": 48.972924,
          "velocity": 0.49606299212598426
        },
        {
          "duration": 0.16216200000000214,
          "durationTicks": 48,
          "midi": 87,
          "name": "D#6",
          "ticks": 14496,
          "time": 48.972924,
          "velocity": 0.49606299212598426
        },
        {
          "duration": 0.16216200000000214,
          "durationTicks": 48,
          "midi": 73,
          "name": "C#5",
          "ticks": 14544,
          "time": 49.135086,
          "velocity": 0.49606299212598426
        },
        {
          "duration": 0.16216200000000214,
          "durationTicks": 48,
          "midi": 85,
          "name": "C#6",
          "ticks": 14544,
          "time": 49.135086,
          "velocity": 0.49606299212598426
        },
        {
          "duration": 0.32432399999999717,
          "durationTicks": 96,
          "midi": 80,
          "name": "G#5",
          "ticks": 14592,
          "time": 49.297248,
          "velocity": 0.49606299212598426
        },
        {
          "duration": 0.32432399999999717,
          "durationTicks": 96,
          "midi": 92,
          "name": "G#6",
          "ticks": 14592,
          "time": 49.297248,
          "velocity": 0.49606299212598426
        },
        {
          "duration": 0.16216200000000214,
          "durationTicks": 48,
          "midi": 80,
          "name": "G#5",
          "ticks": 14688,
          "time": 49.621572,
          "velocity": 0.49606299212598426
        },
        {
          "duration": 0.16216200000000214,
          "durationTicks": 48,
          "midi": 92,
          "name": "G#6",
          "ticks": 14688,
          "time": 49.621572,
          "velocity": 0.49606299212598426
        },
        {
          "duration": 0.16216199999999503,
          "durationTicks": 48,
          "midi": 82,
          "name": "A#5",
          "ticks": 14736,
          "time": 49.783734,
          "velocity": 0.49606299212598426
        },
        {
          "duration": 0.16216199999999503,
          "durationTicks": 48,
          "midi": 94,
          "name": "A#6",
          "ticks": 14736,
          "time": 49.783734,
          "velocity": 0.49606299212598426
        },
        {
          "duration": 0.3243240000000043,
          "durationTicks": 96,
          "midi": 80,
          "name": "G#5",
          "ticks": 14784,
          "time": 49.945896,
          "velocity": 0.49606299212598426
        },
        {
          "duration": 0.3243240000000043,
          "durationTicks": 96,
          "midi": 92,
          "name": "G#6",
          "ticks": 14784,
          "time": 49.945896,
          "velocity": 0.49606299212598426
        },
        {
          "duration": 0.16216199999999503,
          "durationTicks": 48,
          "midi": 80,
          "name": "G#5",
          "ticks": 14880,
          "time": 50.27022,
          "velocity": 0.49606299212598426
        },
        {
          "duration": 0.16216199999999503,
          "durationTicks": 48,
          "midi": 92,
          "name": "G#6",
          "ticks": 14880,
          "time": 50.27022,
          "velocity": 0.49606299212598426
        },
        {
          "duration": 0.16216200000000214,
          "durationTicks": 48,
          "midi": 82,
          "name": "A#5",
          "ticks": 14928,
          "time": 50.432382,
          "velocity": 0.49606299212598426
        },
        {
          "duration": 0.16216200000000214,
          "durationTicks": 48,
          "midi": 94,
          "name": "A#6",
          "ticks": 14928,
          "time": 50.432382,
          "velocity": 0.49606299212598426
        },
        {
          "duration": 0.3243240000000043,
          "durationTicks": 96,
          "midi": 80,
          "name": "G#5",
          "ticks": 14976,
          "time": 50.594544,
          "velocity": 0.49606299212598426
        },
        {
          "duration": 0.3243240000000043,
          "durationTicks": 96,
          "midi": 92,
          "name": "G#6",
          "ticks": 14976,
          "time": 50.594544,
          "velocity": 0.49606299212598426
        },
        {
          "duration": 0.32432399999999717,
          "durationTicks": 96,
          "midi": 78,
          "name": "F#5",
          "ticks": 15072,
          "time": 50.918868,
          "velocity": 0.49606299212598426
        },
        {
          "duration": 0.32432399999999717,
          "durationTicks": 96,
          "midi": 90,
          "name": "F#6",
          "ticks": 15072,
          "time": 50.918868,
          "velocity": 0.49606299212598426
        },
        {
          "duration": 0.32432399999999717,
          "durationTicks": 96,
          "midi": 77,
          "name": "F5",
          "ticks": 15168,
          "time": 51.243192,
          "velocity": 0.49606299212598426
        },
        {
          "duration": 0.32432399999999717,
          "durationTicks": 96,
          "midi": 89,
          "name": "F6",
          "ticks": 15168,
          "time": 51.243192,
          "velocity": 0.49606299212598426
        },
        {
          "duration": 0.16216200000000214,
          "durationTicks": 48,
          "midi": 75,
          "name": "D#5",
          "ticks": 15264,
          "time": 51.567516,
          "velocity": 0.49606299212598426
        },
        {
          "duration": 0.16216200000000214,
          "durationTicks": 48,
          "midi": 87,
          "name": "D#6",
          "ticks": 15264,
          "time": 51.567516,
          "velocity": 0.49606299212598426
        },
        {
          "duration": 0.16216200000000214,
          "durationTicks": 48,
          "midi": 73,
          "name": "C#5",
          "ticks": 15312,
          "time": 51.729678,
          "velocity": 0.49606299212598426
        },
        {
          "duration": 0.16216200000000214,
          "durationTicks": 48,
          "midi": 85,
          "name": "C#6",
          "ticks": 15312,
          "time": 51.729678,
          "velocity": 0.49606299212598426
        },
        {
          "duration": 0.16216199999999503,
          "durationTicks": 48,
          "midi": 75,
          "name": "D#5",
          "ticks": 15360,
          "time": 51.89184,
          "velocity": 0.49606299212598426
        },
        {
          "duration": 0.16216199999999503,
          "durationTicks": 48,
          "midi": 87,
          "name": "D#6",
          "ticks": 15360,
          "time": 51.89184,
          "velocity": 0.49606299212598426
        },
        {
          "duration": 0.16216200000000214,
          "durationTicks": 48,
          "midi": 73,
          "name": "C#5",
          "ticks": 15408,
          "time": 52.054002,
          "velocity": 0.49606299212598426
        },
        {
          "duration": 0.16216200000000214,
          "durationTicks": 48,
          "midi": 85,
          "name": "C#6",
          "ticks": 15408,
          "time": 52.054002,
          "velocity": 0.49606299212598426
        },
        {
          "duration": 0.16216200000000214,
          "durationTicks": 48,
          "midi": 75,
          "name": "D#5",
          "ticks": 15456,
          "time": 52.216164,
          "velocity": 0.49606299212598426
        },
        {
          "duration": 0.16216200000000214,
          "durationTicks": 48,
          "midi": 87,
          "name": "D#6",
          "ticks": 15456,
          "time": 52.216164,
          "velocity": 0.49606299212598426
        },
        {
          "duration": 0.16216200000000214,
          "durationTicks": 48,
          "midi": 73,
          "name": "C#5",
          "ticks": 15504,
          "time": 52.378326,
          "velocity": 0.49606299212598426
        },
        {
          "duration": 0.16216200000000214,
          "durationTicks": 48,
          "midi": 85,
          "name": "C#6",
          "ticks": 15504,
          "time": 52.378326,
          "velocity": 0.49606299212598426
        },
        {
          "duration": 0.16216199999999503,
          "durationTicks": 48,
          "midi": 75,
          "name": "D#5",
          "ticks": 15552,
          "time": 52.540488,
          "velocity": 0.49606299212598426
        },
        {
          "duration": 0.16216199999999503,
          "durationTicks": 48,
          "midi": 87,
          "name": "D#6",
          "ticks": 15552,
          "time": 52.540488,
          "velocity": 0.49606299212598426
        },
        {
          "duration": 0.16216200000000214,
          "durationTicks": 48,
          "midi": 85,
          "name": "C#6",
          "ticks": 15600,
          "time": 52.70265,
          "velocity": 0.49606299212598426
        },
        {
          "duration": 0.16216200000000214,
          "durationTicks": 48,
          "midi": 97,
          "name": "C#7",
          "ticks": 15600,
          "time": 52.70265,
          "velocity": 0.49606299212598426
        },
        {
          "duration": 0.32432399999999717,
          "durationTicks": 96,
          "midi": 82,
          "name": "A#5",
          "ticks": 15696,
          "time": 53.026974,
          "velocity": 0.49606299212598426
        },
        {
          "duration": 0.32432399999999717,
          "durationTicks": 96,
          "midi": 94,
          "name": "A#6",
          "ticks": 15696,
          "time": 53.026974,
          "velocity": 0.49606299212598426
        },
        {
          "duration": 0.16216200000000214,
          "durationTicks": 48,
          "midi": 82,
          "name": "A#5",
          "ticks": 15792,
          "time": 53.351298,
          "velocity": 0.49606299212598426
        },
        {
          "duration": 0.16216200000000214,
          "durationTicks": 48,
          "midi": 94,
          "name": "A#6",
          "ticks": 15792,
          "time": 53.351298,
          "velocity": 0.49606299212598426
        },
        {
          "duration": 0.16216199999999503,
          "durationTicks": 48,
          "midi": 80,
          "name": "G#5",
          "ticks": 15840,
          "time": 53.51346,
          "velocity": 0.49606299212598426
        },
        {
          "duration": 0.16216199999999503,
          "durationTicks": 48,
          "midi": 92,
          "name": "G#6",
          "ticks": 15840,
          "time": 53.51346,
          "velocity": 0.49606299212598426
        },
        {
          "duration": 0.16216200000000214,
          "durationTicks": 48,
          "midi": 78,
          "name": "F#5",
          "ticks": 15888,
          "time": 53.675622,
          "velocity": 0.49606299212598426
        },
        {
          "duration": 0.16216200000000214,
          "durationTicks": 48,
          "midi": 90,
          "name": "F#6",
          "ticks": 15888,
          "time": 53.675622,
          "velocity": 0.49606299212598426
        },
        {
          "duration": 0.16216200000000214,
          "durationTicks": 48,
          "midi": 77,
          "name": "F5",
          "ticks": 15936,
          "time": 53.837784,
          "velocity": 0.49606299212598426
        },
        {
          "duration": 0.16216200000000214,
          "durationTicks": 48,
          "midi": 89,
          "name": "F6",
          "ticks": 15936,
          "time": 53.837784,
          "velocity": 0.49606299212598426
        },
        {
          "duration": 0.16216200000000214,
          "durationTicks": 48,
          "midi": 78,
          "name": "F#5",
          "ticks": 15984,
          "time": 53.999946,
          "velocity": 0.49606299212598426
        },
        {
          "duration": 0.16216200000000214,
          "durationTicks": 48,
          "midi": 90,
          "name": "F#6",
          "ticks": 15984,
          "time": 53.999946,
          "velocity": 0.49606299212598426
        },
        {
          "duration": 0.32432399999999717,
          "durationTicks": 96,
          "midi": 77,
          "name": "F5",
          "ticks": 16032,
          "time": 54.162108,
          "velocity": 0.49606299212598426
        },
        {
          "duration": 0.32432399999999717,
          "durationTicks": 96,
          "midi": 89,
          "name": "F6",
          "ticks": 16032,
          "time": 54.162108,
          "velocity": 0.49606299212598426
        },
        {
          "duration": 0.32432399999999717,
          "durationTicks": 96,
          "midi": 80,
          "name": "G#5",
          "ticks": 16128,
          "time": 54.486432,
          "velocity": 0.49606299212598426
        },
        {
          "duration": 0.32432399999999717,
          "durationTicks": 96,
          "midi": 92,
          "name": "G#6",
          "ticks": 16128,
          "time": 54.486432,
          "velocity": 0.49606299212598426
        },
        {
          "duration": 0.16216200000000214,
          "durationTicks": 48,
          "midi": 80,
          "name": "G#5",
          "ticks": 16224,
          "time": 54.810756,
          "velocity": 0.49606299212598426
        },
        {
          "duration": 0.16216200000000214,
          "durationTicks": 48,
          "midi": 92,
          "name": "G#6",
          "ticks": 16224,
          "time": 54.810756,
          "velocity": 0.49606299212598426
        },
        {
          "duration": 0.16216200000000214,
          "durationTicks": 48,
          "midi": 82,
          "name": "A#5",
          "ticks": 16272,
          "time": 54.972918,
          "velocity": 0.49606299212598426
        },
        {
          "duration": 0.16216200000000214,
          "durationTicks": 48,
          "midi": 94,
          "name": "A#6",
          "ticks": 16272,
          "time": 54.972918,
          "velocity": 0.49606299212598426
        },
        {
          "duration": 0.32432399999999717,
          "durationTicks": 96,
          "midi": 80,
          "name": "G#5",
          "ticks": 16320,
          "time": 55.13508,
          "velocity": 0.49606299212598426
        },
        {
          "duration": 0.32432399999999717,
          "durationTicks": 96,
          "midi": 92,
          "name": "G#6",
          "ticks": 16320,
          "time": 55.13508,
          "velocity": 0.49606299212598426
        },
        {
          "duration": 0.16216200000000214,
          "durationTicks": 48,
          "midi": 80,
          "name": "G#5",
          "ticks": 16416,
          "time": 55.459404,
          "velocity": 0.49606299212598426
        },
        {
          "duration": 0.16216200000000214,
          "durationTicks": 48,
          "midi": 92,
          "name": "G#6",
          "ticks": 16416,
          "time": 55.459404,
          "velocity": 0.49606299212598426
        },
        {
          "duration": 0.16216200000000214,
          "durationTicks": 48,
          "midi": 82,
          "name": "A#5",
          "ticks": 16464,
          "time": 55.621566,
          "velocity": 0.49606299212598426
        },
        {
          "duration": 0.16216200000000214,
          "durationTicks": 48,
          "midi": 94,
          "name": "A#6",
          "ticks": 16464,
          "time": 55.621566,
          "velocity": 0.49606299212598426
        },
        {
          "duration": 0.32432399999999717,
          "durationTicks": 96,
          "midi": 80,
          "name": "G#5",
          "ticks": 16512,
          "time": 55.783728,
          "velocity": 0.49606299212598426
        },
        {
          "duration": 0.32432399999999717,
          "durationTicks": 96,
          "midi": 92,
          "name": "G#6",
          "ticks": 16512,
          "time": 55.783728,
          "velocity": 0.49606299212598426
        },
        {
          "duration": 0.32432399999999717,
          "durationTicks": 96,
          "midi": 78,
          "name": "F#5",
          "ticks": 16608,
          "time": 56.108052,
          "velocity": 0.49606299212598426
        },
        {
          "duration": 0.32432399999999717,
          "durationTicks": 96,
          "midi": 90,
          "name": "F#6",
          "ticks": 16608,
          "time": 56.108052,
          "velocity": 0.49606299212598426
        },
        {
          "duration": 0.3243240000000043,
          "durationTicks": 96,
          "midi": 77,
          "name": "F5",
          "ticks": 16704,
          "time": 56.432376,
          "velocity": 0.49606299212598426
        },
        {
          "duration": 0.3243240000000043,
          "durationTicks": 96,
          "midi": 89,
          "name": "F6",
          "ticks": 16704,
          "time": 56.432376,
          "velocity": 0.49606299212598426
        },
        {
          "duration": 0.16216199999999503,
          "durationTicks": 48,
          "midi": 75,
          "name": "D#5",
          "ticks": 16800,
          "time": 56.7567,
          "velocity": 0.49606299212598426
        },
        {
          "duration": 0.16216199999999503,
          "durationTicks": 48,
          "midi": 87,
          "name": "D#6",
          "ticks": 16800,
          "time": 56.7567,
          "velocity": 0.49606299212598426
        },
        {
          "duration": 0.16216200000000214,
          "durationTicks": 48,
          "midi": 73,
          "name": "C#5",
          "ticks": 16848,
          "time": 56.918862,
          "velocity": 0.49606299212598426
        },
        {
          "duration": 0.16216200000000214,
          "durationTicks": 48,
          "midi": 85,
          "name": "C#6",
          "ticks": 16848,
          "time": 56.918862,
          "velocity": 0.49606299212598426
        },
        {
          "duration": 0.16216200000000214,
          "durationTicks": 48,
          "midi": 75,
          "name": "D#5",
          "ticks": 16896,
          "time": 57.081024,
          "velocity": 0.49606299212598426
        },
        {
          "duration": 0.16216200000000214,
          "durationTicks": 48,
          "midi": 87,
          "name": "D#6",
          "ticks": 16896,
          "time": 57.081024,
          "velocity": 0.49606299212598426
        },
        {
          "duration": 0.16216200000000214,
          "durationTicks": 48,
          "midi": 73,
          "name": "C#5",
          "ticks": 16944,
          "time": 57.243186,
          "velocity": 0.49606299212598426
        },
        {
          "duration": 0.16216200000000214,
          "durationTicks": 48,
          "midi": 85,
          "name": "C#6",
          "ticks": 16944,
          "time": 57.243186,
          "velocity": 0.49606299212598426
        },
        {
          "duration": 0.16216199999999503,
          "durationTicks": 48,
          "midi": 75,
          "name": "D#5",
          "ticks": 16992,
          "time": 57.405348000000004,
          "velocity": 0.49606299212598426
        },
        {
          "duration": 0.16216199999999503,
          "durationTicks": 48,
          "midi": 87,
          "name": "D#6",
          "ticks": 16992,
          "time": 57.405348000000004,
          "velocity": 0.49606299212598426
        },
        {
          "duration": 0.16216200000000214,
          "durationTicks": 48,
          "midi": 73,
          "name": "C#5",
          "ticks": 17040,
          "time": 57.56751,
          "velocity": 0.49606299212598426
        },
        {
          "duration": 0.16216200000000214,
          "durationTicks": 48,
          "midi": 85,
          "name": "C#6",
          "ticks": 17040,
          "time": 57.56751,
          "velocity": 0.49606299212598426
        },
        {
          "duration": 0.16216200000000214,
          "durationTicks": 48,
          "midi": 75,
          "name": "D#5",
          "ticks": 17088,
          "time": 57.729672,
          "velocity": 0.49606299212598426
        },
        {
          "duration": 0.16216200000000214,
          "durationTicks": 48,
          "midi": 87,
          "name": "D#6",
          "ticks": 17088,
          "time": 57.729672,
          "velocity": 0.49606299212598426
        },
        {
          "duration": 0.16216199999999503,
          "durationTicks": 48,
          "midi": 77,
          "name": "F5",
          "ticks": 17136,
          "time": 57.891834,
          "velocity": 0.49606299212598426
        },
        {
          "duration": 0.16216199999999503,
          "durationTicks": 48,
          "midi": 89,
          "name": "F6",
          "ticks": 17136,
          "time": 57.891834,
          "velocity": 0.49606299212598426
        },
        {
          "duration": 0.32432399999999717,
          "durationTicks": 96,
          "midi": 77,
          "name": "F5",
          "ticks": 17232,
          "time": 58.216158,
          "velocity": 0.49606299212598426
        },
        {
          "duration": 0.32432399999999717,
          "durationTicks": 96,
          "midi": 89,
          "name": "F6",
          "ticks": 17232,
          "time": 58.216158,
          "velocity": 0.49606299212598426
        },
        {
          "duration": 0.16216200000000214,
          "durationTicks": 48,
          "midi": 78,
          "name": "F#5",
          "ticks": 17328,
          "time": 58.540482,
          "velocity": 0.49606299212598426
        },
        {
          "duration": 0.16216200000000214,
          "durationTicks": 48,
          "midi": 90,
          "name": "F#6",
          "ticks": 17328,
          "time": 58.540482,
          "velocity": 0.49606299212598426
        },
        {
          "duration": 0.16216200000000214,
          "durationTicks": 48,
          "midi": 77,
          "name": "F5",
          "ticks": 17376,
          "time": 58.702644,
          "velocity": 0.49606299212598426
        },
        {
          "duration": 0.16216200000000214,
          "durationTicks": 48,
          "midi": 89,
          "name": "F6",
          "ticks": 17376,
          "time": 58.702644,
          "velocity": 0.49606299212598426
        },
        {
          "duration": 0.16216200000000214,
          "durationTicks": 48,
          "midi": 78,
          "name": "F#5",
          "ticks": 17424,
          "time": 58.864806,
          "velocity": 0.49606299212598426
        },
        {
          "duration": 0.16216200000000214,
          "durationTicks": 48,
          "midi": 90,
          "name": "F#6",
          "ticks": 17424,
          "time": 58.864806,
          "velocity": 0.49606299212598426
        },
        {
          "duration": 0.32432399999999717,
          "durationTicks": 96,
          "midi": 77,
          "name": "F5",
          "ticks": 17472,
          "time": 59.026968000000004,
          "velocity": 0.49606299212598426
        },
        {
          "duration": 0.32432399999999717,
          "durationTicks": 96,
          "midi": 89,
          "name": "F6",
          "ticks": 17472,
          "time": 59.026968000000004,
          "velocity": 0.49606299212598426
        },
        {
          "duration": 0.16216200000000214,
          "durationTicks": 48,
          "midi": 75,
          "name": "D#5",
          "ticks": 17568,
          "time": 59.351292,
          "velocity": 0.49606299212598426
        },
        {
          "duration": 0.16216200000000214,
          "durationTicks": 48,
          "midi": 87,
          "name": "D#6",
          "ticks": 17568,
          "time": 59.351292,
          "velocity": 0.49606299212598426
        },
        {
          "duration": 0.16216199999999503,
          "durationTicks": 48,
          "midi": 73,
          "name": "C#5",
          "ticks": 17616,
          "time": 59.513454,
          "velocity": 0.49606299212598426
        },
        {
          "duration": 0.16216199999999503,
          "durationTicks": 48,
          "midi": 85,
          "name": "C#6",
          "ticks": 17616,
          "time": 59.513454,
          "velocity": 0.49606299212598426
        },
        {
          "duration": 0.3243240000000043,
          "durationTicks": 96,
          "midi": 80,
          "name": "G#5",
          "ticks": 17664,
          "time": 59.675616,
          "velocity": 0.49606299212598426
        },
        {
          "duration": 0.3243240000000043,
          "durationTicks": 96,
          "midi": 92,
          "name": "G#6",
          "ticks": 17664,
          "time": 59.675616,
          "velocity": 0.49606299212598426
        },
        {
          "duration": 0.16216199999999503,
          "durationTicks": 48,
          "midi": 80,
          "name": "G#5",
          "ticks": 17760,
          "time": 59.99994,
          "velocity": 0.49606299212598426
        },
        {
          "duration": 0.16216199999999503,
          "durationTicks": 48,
          "midi": 92,
          "name": "G#6",
          "ticks": 17760,
          "time": 59.99994,
          "velocity": 0.49606299212598426
        },
        {
          "duration": 0.16216200000000214,
          "durationTicks": 48,
          "midi": 82,
          "name": "A#5",
          "ticks": 17808,
          "time": 60.162102,
          "velocity": 0.49606299212598426
        },
        {
          "duration": 0.16216200000000214,
          "durationTicks": 48,
          "midi": 94,
          "name": "A#6",
          "ticks": 17808,
          "time": 60.162102,
          "velocity": 0.49606299212598426
        },
        {
          "duration": 0.3243240000000043,
          "durationTicks": 96,
          "midi": 80,
          "name": "G#5",
          "ticks": 17856,
          "time": 60.324264,
          "velocity": 0.49606299212598426
        },
        {
          "duration": 0.3243240000000043,
          "durationTicks": 96,
          "midi": 92,
          "name": "G#6",
          "ticks": 17856,
          "time": 60.324264,
          "velocity": 0.49606299212598426
        },
        {
          "duration": 0.16216199999999503,
          "durationTicks": 48,
          "midi": 80,
          "name": "G#5",
          "ticks": 17952,
          "time": 60.648588000000004,
          "velocity": 0.49606299212598426
        },
        {
          "duration": 0.16216199999999503,
          "durationTicks": 48,
          "midi": 92,
          "name": "G#6",
          "ticks": 17952,
          "time": 60.648588000000004,
          "velocity": 0.49606299212598426
        },
        {
          "duration": 0.16216200000000214,
          "durationTicks": 48,
          "midi": 82,
          "name": "A#5",
          "ticks": 18000,
          "time": 60.81075,
          "velocity": 0.49606299212598426
        },
        {
          "duration": 0.16216200000000214,
          "durationTicks": 48,
          "midi": 94,
          "name": "A#6",
          "ticks": 18000,
          "time": 60.81075,
          "velocity": 0.49606299212598426
        },
        {
          "duration": 0.32432399999999717,
          "durationTicks": 96,
          "midi": 80,
          "name": "G#5",
          "ticks": 18048,
          "time": 60.972912,
          "velocity": 0.49606299212598426
        },
        {
          "duration": 0.32432399999999717,
          "durationTicks": 96,
          "midi": 92,
          "name": "G#6",
          "ticks": 18048,
          "time": 60.972912,
          "velocity": 0.49606299212598426
        },
        {
          "duration": 0.3243240000000043,
          "durationTicks": 96,
          "midi": 78,
          "name": "F#5",
          "ticks": 18144,
          "time": 61.297236,
          "velocity": 0.49606299212598426
        },
        {
          "duration": 0.3243240000000043,
          "durationTicks": 96,
          "midi": 90,
          "name": "F#6",
          "ticks": 18144,
          "time": 61.297236,
          "velocity": 0.49606299212598426
        },
        {
          "duration": 0.32432399999999717,
          "durationTicks": 96,
          "midi": 77,
          "name": "F5",
          "ticks": 18240,
          "time": 61.62156,
          "velocity": 0.49606299212598426
        },
        {
          "duration": 0.32432399999999717,
          "durationTicks": 96,
          "midi": 89,
          "name": "F6",
          "ticks": 18240,
          "time": 61.62156,
          "velocity": 0.49606299212598426
        },
        {
          "duration": 0.16216200000000214,
          "durationTicks": 48,
          "midi": 75,
          "name": "D#5",
          "ticks": 18336,
          "time": 61.945884,
          "velocity": 0.49606299212598426
        },
        {
          "duration": 0.16216200000000214,
          "durationTicks": 48,
          "midi": 87,
          "name": "D#6",
          "ticks": 18336,
          "time": 61.945884,
          "velocity": 0.49606299212598426
        },
        {
          "duration": 0.16216199999999503,
          "durationTicks": 48,
          "midi": 73,
          "name": "C#5",
          "ticks": 18384,
          "time": 62.108046,
          "velocity": 0.49606299212598426
        },
        {
          "duration": 0.16216199999999503,
          "durationTicks": 48,
          "midi": 85,
          "name": "C#6",
          "ticks": 18384,
          "time": 62.108046,
          "velocity": 0.49606299212598426
        },
        {
          "duration": 0.16216200000000214,
          "durationTicks": 48,
          "midi": 75,
          "name": "D#5",
          "ticks": 18432,
          "time": 62.270208,
          "velocity": 0.49606299212598426
        },
        {
          "duration": 0.16216200000000214,
          "durationTicks": 48,
          "midi": 87,
          "name": "D#6",
          "ticks": 18432,
          "time": 62.270208,
          "velocity": 0.49606299212598426
        },
        {
          "duration": 0.16216200000000214,
          "durationTicks": 48,
          "midi": 73,
          "name": "C#5",
          "ticks": 18480,
          "time": 62.43237,
          "velocity": 0.49606299212598426
        },
        {
          "duration": 0.16216200000000214,
          "durationTicks": 48,
          "midi": 85,
          "name": "C#6",
          "ticks": 18480,
          "time": 62.43237,
          "velocity": 0.49606299212598426
        },
        {
          "duration": 0.16216200000000214,
          "durationTicks": 48,
          "midi": 75,
          "name": "D#5",
          "ticks": 18528,
          "time": 62.594532,
          "velocity": 0.49606299212598426
        },
        {
          "duration": 0.16216200000000214,
          "durationTicks": 48,
          "midi": 87,
          "name": "D#6",
          "ticks": 18528,
          "time": 62.594532,
          "velocity": 0.49606299212598426
        },
        {
          "duration": 0.16216199999999503,
          "durationTicks": 48,
          "midi": 73,
          "name": "C#5",
          "ticks": 18576,
          "time": 62.756694,
          "velocity": 0.49606299212598426
        },
        {
          "duration": 0.16216199999999503,
          "durationTicks": 48,
          "midi": 85,
          "name": "C#6",
          "ticks": 18576,
          "time": 62.756694,
          "velocity": 0.49606299212598426
        },
        {
          "duration": 0.16216200000000214,
          "durationTicks": 48,
          "midi": 75,
          "name": "D#5",
          "ticks": 18624,
          "time": 62.918856,
          "velocity": 0.49606299212598426
        },
        {
          "duration": 0.16216200000000214,
          "durationTicks": 48,
          "midi": 87,
          "name": "D#6",
          "ticks": 18624,
          "time": 62.918856,
          "velocity": 0.49606299212598426
        },
        {
          "duration": 0.16216200000000214,
          "durationTicks": 48,
          "midi": 85,
          "name": "C#6",
          "ticks": 18672,
          "time": 63.081018,
          "velocity": 0.49606299212598426
        },
        {
          "duration": 0.16216200000000214,
          "durationTicks": 48,
          "midi": 97,
          "name": "C#7",
          "ticks": 18672,
          "time": 63.081018,
          "velocity": 0.49606299212598426
        },
        {
          "duration": 0.3243240000000043,
          "durationTicks": 96,
          "midi": 82,
          "name": "A#5",
          "ticks": 18768,
          "time": 63.405342,
          "velocity": 0.49606299212598426
        },
        {
          "duration": 0.3243240000000043,
          "durationTicks": 96,
          "midi": 94,
          "name": "A#6",
          "ticks": 18768,
          "time": 63.405342,
          "velocity": 0.49606299212598426
        },
        {
          "duration": 0.16216199999999503,
          "durationTicks": 48,
          "midi": 82,
          "name": "A#5",
          "ticks": 18864,
          "time": 63.729666,
          "velocity": 0.49606299212598426
        },
        {
          "duration": 0.16216199999999503,
          "durationTicks": 48,
          "midi": 94,
          "name": "A#6",
          "ticks": 18864,
          "time": 63.729666,
          "velocity": 0.49606299212598426
        },
        {
          "duration": 0.16216200000000214,
          "durationTicks": 48,
          "midi": 81,
          "name": "A5",
          "ticks": 18912,
          "time": 63.891828,
          "velocity": 0.49606299212598426
        },
        {
          "duration": 0.16216200000000214,
          "durationTicks": 48,
          "midi": 93,
          "name": "A6",
          "ticks": 18912,
          "time": 63.891828,
          "velocity": 0.49606299212598426
        },
        {
          "duration": 0.16216199999999503,
          "durationTicks": 48,
          "midi": 81,
          "name": "A5",
          "ticks": 18960,
          "time": 64.05399,
          "velocity": 0.49606299212598426
        },
        {
          "duration": 0.16216199999999503,
          "durationTicks": 48,
          "midi": 93,
          "name": "A6",
          "ticks": 18960,
          "time": 64.05399,
          "velocity": 0.49606299212598426
        },
        {
          "duration": 0.16216200000000924,
          "durationTicks": 48,
          "midi": 80,
          "name": "G#5",
          "ticks": 19008,
          "time": 64.216152,
          "velocity": 0.49606299212598426
        },
        {
          "duration": 0.16216200000000924,
          "durationTicks": 48,
          "midi": 92,
          "name": "G#6",
          "ticks": 19008,
          "time": 64.216152,
          "velocity": 0.49606299212598426
        },
        {
          "duration": 0.16216199999999503,
          "durationTicks": 48,
          "midi": 80,
          "name": "G#5",
          "ticks": 19056,
          "time": 64.378314,
          "velocity": 0.49606299212598426
        },
        {
          "duration": 0.16216199999999503,
          "durationTicks": 48,
          "midi": 92,
          "name": "G#6",
          "ticks": 19056,
          "time": 64.378314,
          "velocity": 0.49606299212598426
        },
        {
          "duration": 0.16216199999999503,
          "durationTicks": 48,
          "midi": 78,
          "name": "F#5",
          "ticks": 19104,
          "time": 64.540476,
          "velocity": 0.49606299212598426
        },
        {
          "duration": 0.16216199999999503,
          "durationTicks": 48,
          "midi": 90,
          "name": "F#6",
          "ticks": 19104,
          "time": 64.540476,
          "velocity": 0.49606299212598426
        },
        {
          "duration": 0.16216200000000924,
          "durationTicks": 48,
          "midi": 77,
          "name": "F5",
          "ticks": 19152,
          "time": 64.702638,
          "velocity": 0.49606299212598426
        },
        {
          "duration": 0.16216200000000924,
          "durationTicks": 48,
          "midi": 89,
          "name": "F6",
          "ticks": 19152,
          "time": 64.702638,
          "velocity": 0.49606299212598426
        },
        {
          "duration": 0.16216199999999503,
          "durationTicks": 48,
          "midi": 75,
          "name": "D#5",
          "ticks": 19200,
          "time": 64.8648,
          "velocity": 0.49606299212598426
        },
        {
          "duration": 0.16216199999999503,
          "durationTicks": 48,
          "midi": 87,
          "name": "D#6",
          "ticks": 19200,
          "time": 64.8648,
          "velocity": 0.49606299212598426
        },
        {
          "duration": 0.08108099999999752,
          "durationTicks": 24,
          "midi": 68,
          "name": "G#4",
          "ticks": 19872,
          "time": 67.135068,
          "velocity": 0.8267716535433071
        },
        {
          "duration": 0.08108099999999752,
          "durationTicks": 24,
          "midi": 70,
          "name": "A#4",
          "ticks": 19896,
          "time": 67.216149,
          "velocity": 0.8267716535433071
        },
        {
          "duration": 0.08108099999999752,
          "durationTicks": 24,
          "midi": 73,
          "name": "C#5",
          "ticks": 19920,
          "time": 67.29723,
          "velocity": 0.8267716535433071
        },
        {
          "duration": 0.08108099999999752,
          "durationTicks": 24,
          "midi": 80,
          "name": "G#5",
          "ticks": 19944,
          "time": 67.378311,
          "velocity": 0.8267716535433071
        },
        {
          "duration": 0.08108100000001173,
          "durationTicks": 24,
          "midi": 84,
          "name": "C6",
          "ticks": 19968,
          "time": 67.459392,
          "velocity": 0.8267716535433071
        },
        {
          "duration": 0.2027025000000009,
          "durationTicks": 60,
          "midi": 85,
          "name": "C#6",
          "ticks": 19980,
          "time": 67.4999325,
          "velocity": 0.8267716535433071
        },
        {
          "duration": 0.24324299999999255,
          "durationTicks": 72,
          "midi": 84,
          "name": "C6",
          "ticks": 20040,
          "time": 67.702635,
          "velocity": 0.8267716535433071
        },
        {
          "duration": 0.08108100000001173,
          "durationTicks": 24,
          "midi": 80,
          "name": "G#5",
          "ticks": 20112,
          "time": 67.945878,
          "velocity": 0.8267716535433071
        },
        {
          "duration": 0.08108099999999752,
          "durationTicks": 24,
          "midi": 82,
          "name": "A#5",
          "ticks": 20136,
          "time": 68.026959,
          "velocity": 0.8267716535433071
        },
        {
          "duration": 0.3243240000000043,
          "durationTicks": 96,
          "midi": 80,
          "name": "G#5",
          "ticks": 20160,
          "time": 68.10804,
          "velocity": 0.8267716535433071
        },
        {
          "duration": 0.08108099999999752,
          "durationTicks": 24,
          "midi": 65,
          "name": "F4",
          "ticks": 20256,
          "time": 68.432364,
          "velocity": 0.8267716535433071
        },
        {
          "duration": 0.08108099999999752,
          "durationTicks": 24,
          "midi": 68,
          "name": "G#4",
          "ticks": 20280,
          "time": 68.513445,
          "velocity": 0.8267716535433071
        },
        {
          "duration": 0.08108099999999752,
          "durationTicks": 24,
          "midi": 72,
          "name": "C5",
          "ticks": 20304,
          "time": 68.594526,
          "velocity": 0.8267716535433071
        },
        {
          "duration": 0.08108099999999752,
          "durationTicks": 24,
          "midi": 73,
          "name": "C#5",
          "ticks": 20328,
          "time": 68.675607,
          "velocity": 0.8267716535433071
        },
        {
          "duration": 0.08108099999999752,
          "durationTicks": 24,
          "midi": 75,
          "name": "D#5",
          "ticks": 20352,
          "time": 68.756688,
          "velocity": 0.8267716535433071
        },
        {
          "duration": 0.16216200000000924,
          "durationTicks": 48,
          "midi": 77,
          "name": "F5",
          "ticks": 20376,
          "time": 68.837769,
          "velocity": 0.8267716535433071
        },
        {
          "duration": 0.08108099999999752,
          "durationTicks": 24,
          "midi": 75,
          "name": "D#5",
          "ticks": 20424,
          "time": 68.999931,
          "velocity": 0.8267716535433071
        },
        {
          "duration": 0.08108099999999752,
          "durationTicks": 24,
          "midi": 80,
          "name": "G#5",
          "ticks": 20448,
          "time": 69.081012,
          "velocity": 0.8267716535433071
        },
        {
          "duration": 0.08108099999999752,
          "durationTicks": 24,
          "midi": 77,
          "name": "F5",
          "ticks": 20472,
          "time": 69.162093,
          "velocity": 0.8267716535433071
        },
        {
          "duration": 0.08108099999999752,
          "durationTicks": 24,
          "midi": 75,
          "name": "D#5",
          "ticks": 20496,
          "time": 69.243174,
          "velocity": 0.8267716535433071
        },
        {
          "duration": 0.08108100000001173,
          "durationTicks": 24,
          "midi": 73,
          "name": "C#5",
          "ticks": 20520,
          "time": 69.324255,
          "velocity": 0.8267716535433071
        },
        {
          "duration": 0.24324299999999255,
          "durationTicks": 72,
          "midi": 72,
          "name": "C5",
          "ticks": 20544,
          "time": 69.405336,
          "velocity": 0.8267716535433071
        },
        {
          "duration": 0.24324300000000676,
          "durationTicks": 72,
          "midi": 73,
          "name": "C#5",
          "ticks": 20616,
          "time": 69.648579,
          "velocity": 0.8267716535433071
        },
        {
          "duration": 0.08108099999999752,
          "durationTicks": 24,
          "midi": 73,
          "name": "C#5",
          "ticks": 20688,
          "time": 69.891822,
          "velocity": 0.8267716535433071
        },
        {
          "duration": 0.08108099999999752,
          "durationTicks": 24,
          "midi": 75,
          "name": "D#5",
          "ticks": 20712,
          "time": 69.972903,
          "velocity": 0.8267716535433071
        },
        {
          "duration": 0.24324300000000676,
          "durationTicks": 72,
          "midi": 77,
          "name": "F5",
          "ticks": 20736,
          "time": 70.053984,
          "velocity": 0.8267716535433071
        },
        {
          "duration": 0.20270249999998668,
          "durationTicks": 60,
          "midi": 75,
          "name": "D#5",
          "ticks": 20808,
          "time": 70.297227,
          "velocity": 0.8267716535433071
        },
        {
          "duration": 0.16216199999999503,
          "durationTicks": 48,
          "midi": 73,
          "name": "C#5",
          "ticks": 20880,
          "time": 70.54047,
          "velocity": 0.8267716535433071
        },
        {
          "duration": 0.3243240000000043,
          "durationTicks": 96,
          "midi": 68,
          "name": "G#4",
          "ticks": 20928,
          "time": 70.702632,
          "velocity": 0.8267716535433071
        },
        {
          "duration": 0.08108099999999752,
          "durationTicks": 24,
          "midi": 66,
          "name": "F#4",
          "ticks": 21024,
          "time": 71.026956,
          "velocity": 0.8267716535433071
        },
        {
          "duration": 0.08108099999999752,
          "durationTicks": 24,
          "midi": 68,
          "name": "G#4",
          "ticks": 21048,
          "time": 71.108037,
          "velocity": 0.8267716535433071
        },
        {
          "duration": 0.08108100000001173,
          "durationTicks": 24,
          "midi": 70,
          "name": "A#4",
          "ticks": 21072,
          "time": 71.189118,
          "velocity": 0.8267716535433071
        },
        {
          "duration": 0.08108099999999752,
          "durationTicks": 24,
          "midi": 72,
          "name": "C5",
          "ticks": 21096,
          "time": 71.270199,
          "velocity": 0.8267716535433071
        },
        {
          "duration": 0.24324299999999255,
          "durationTicks": 72,
          "midi": 72,
          "name": "C5",
          "ticks": 21120,
          "time": 71.35128,
          "velocity": 0.8267716535433071
        },
        {
          "duration": 0.08108100000001173,
          "durationTicks": 24,
          "midi": 73,
          "name": "C#5",
          "ticks": 21192,
          "time": 71.594523,
          "velocity": 0.8267716535433071
        },
        {
          "duration": 0.24324299999999255,
          "durationTicks": 72,
          "midi": 72,
          "name": "C5",
          "ticks": 21216,
          "time": 71.675604,
          "velocity": 0.8267716535433071
        },
        {
          "duration": 0.08108099999999752,
          "durationTicks": 24,
          "midi": 73,
          "name": "C#5",
          "ticks": 21288,
          "time": 71.918847,
          "velocity": 0.8267716535433071
        },
        {
          "duration": 0.16216199999999503,
          "durationTicks": 48,
          "midi": 75,
          "name": "D#5",
          "ticks": 21360,
          "time": 72.16209,
          "velocity": 0.8267716535433071
        },
        {
          "duration": 0.16216199999999503,
          "durationTicks": 48,
          "midi": 73,
          "name": "C#5",
          "ticks": 21408,
          "time": 72.324252,
          "velocity": 0.8267716535433071
        },
        {
          "duration": 0.16216200000000924,
          "durationTicks": 48,
          "midi": 75,
          "name": "D#5",
          "ticks": 21456,
          "time": 72.486414,
          "velocity": 0.8267716535433071
        },
        {
          "duration": 0.08108099999999752,
          "durationTicks": 24,
          "midi": 84,
          "name": "C6",
          "ticks": 21504,
          "time": 72.648576,
          "velocity": 0.8267716535433071
        },
        {
          "duration": 0.2027025000000009,
          "durationTicks": 60,
          "midi": 85,
          "name": "C#6",
          "ticks": 21516,
          "time": 72.6891165,
          "velocity": 0.8267716535433071
        },
        {
          "duration": 0.24324300000000676,
          "durationTicks": 72,
          "midi": 84,
          "name": "C6",
          "ticks": 21576,
          "time": 72.891819,
          "velocity": 0.8267716535433071
        },
        {
          "duration": 0.08108099999999752,
          "durationTicks": 24,
          "midi": 80,
          "name": "G#5",
          "ticks": 21648,
          "time": 73.135062,
          "velocity": 0.8267716535433071
        },
        {
          "duration": 0.08108099999999752,
          "durationTicks": 24,
          "midi": 82,
          "name": "A#5",
          "ticks": 21672,
          "time": 73.216143,
          "velocity": 0.8267716535433071
        },
        {
          "duration": 0.3243240000000043,
          "durationTicks": 96,
          "midi": 80,
          "name": "G#5",
          "ticks": 21696,
          "time": 73.297224,
          "velocity": 0.8267716535433071
        },
        {
          "duration": 0.08108099999999752,
          "durationTicks": 24,
          "midi": 65,
          "name": "F4",
          "ticks": 21792,
          "time": 73.621548,
          "velocity": 0.8267716535433071
        },
        {
          "duration": 0.08108099999999752,
          "durationTicks": 24,
          "midi": 68,
          "name": "G#4",
          "ticks": 21816,
          "time": 73.702629,
          "velocity": 0.8267716535433071
        },
        {
          "duration": 0.08108099999999752,
          "durationTicks": 24,
          "midi": 72,
          "name": "C5",
          "ticks": 21840,
          "time": 73.78371,
          "velocity": 0.8267716535433071
        },
        {
          "duration": 0.08108099999999752,
          "durationTicks": 24,
          "midi": 73,
          "name": "C#5",
          "ticks": 21864,
          "time": 73.864791,
          "velocity": 0.8267716535433071
        },
        {
          "duration": 0.08108100000001173,
          "durationTicks": 24,
          "midi": 75,
          "name": "D#5",
          "ticks": 21888,
          "time": 73.945872,
          "velocity": 0.8267716535433071
        },
        {
          "duration": 0.16216199999999503,
          "durationTicks": 48,
          "midi": 77,
          "name": "F5",
          "ticks": 21912,
          "time": 74.026953,
          "velocity": 0.8267716535433071
        },
        {
          "duration": 0.08108099999999752,
          "durationTicks": 24,
          "midi": 75,
          "name": "D#5",
          "ticks": 21960,
          "time": 74.189115,
          "velocity": 0.8267716535433071
        },
        {
          "duration": 0.08108099999999752,
          "durationTicks": 24,
          "midi": 80,
          "name": "G#5",
          "ticks": 21984,
          "time": 74.270196,
          "velocity": 0.8267716535433071
        },
        {
          "duration": 0.08108099999999752,
          "durationTicks": 24,
          "midi": 77,
          "name": "F5",
          "ticks": 22008,
          "time": 74.351277,
          "velocity": 0.8267716535433071
        },
        {
          "duration": 0.08108100000001173,
          "durationTicks": 24,
          "midi": 75,
          "name": "D#5",
          "ticks": 22032,
          "time": 74.432358,
          "velocity": 0.8267716535433071
        },
        {
          "duration": 0.08108099999999752,
          "durationTicks": 24,
          "midi": 73,
          "name": "C#5",
          "ticks": 22056,
          "time": 74.513439,
          "velocity": 0.8267716535433071
        },
        {
          "duration": 0.24324299999999255,
          "durationTicks": 72,
          "midi": 72,
          "name": "C5",
          "ticks": 22080,
          "time": 74.59452,
          "velocity": 0.8267716535433071
        },
        {
          "duration": 0.24324300000000676,
          "durationTicks": 72,
          "midi": 73,
          "name": "C#5",
          "ticks": 22152,
          "time": 74.837763,
          "velocity": 0.8267716535433071
        },
        {
          "duration": 0.08108099999999752,
          "durationTicks": 24,
          "midi": 73,
          "name": "C#5",
          "ticks": 22224,
          "time": 75.081006,
          "velocity": 0.8267716535433071
        },
        {
          "duration": 0.16216200000000924,
          "durationTicks": 48,
          "midi": 82,
          "name": "A#5",
          "ticks": 22272,
          "time": 75.243168,
          "velocity": 0.7086614173228346
        },
        {
          "duration": 0.16216200000000924,
          "durationTicks": 48,
          "midi": 85,
          "name": "C#6",
          "ticks": 22272,
          "time": 75.243168,
          "velocity": 0.8267716535433071
        },
        {
          "duration": 0.16216199999999503,
          "durationTicks": 48,
          "midi": 84,
          "name": "C6",
          "ticks": 22320,
          "time": 75.40533,
          "velocity": 0.7086614173228346
        },
        {
          "duration": 0.16216199999999503,
          "durationTicks": 48,
          "midi": 87,
          "name": "D#6",
          "ticks": 22320,
          "time": 75.40533,
          "velocity": 0.8267716535433071
        },
        {
          "duration": 0.16216199999999503,
          "durationTicks": 48,
          "midi": 85,
          "name": "C#6",
          "ticks": 22368,
          "time": 75.567492,
          "velocity": 0.8267716535433071
        },
        {
          "duration": 0.16216199999999503,
          "durationTicks": 48,
          "midi": 82,
          "name": "A#5",
          "ticks": 22368,
          "time": 75.567492,
          "velocity": 0.7086614173228346
        },
        {
          "duration": 0.16216200000000924,
          "durationTicks": 48,
          "midi": 80,
          "name": "G#5",
          "ticks": 22440,
          "time": 75.810735,
          "velocity": 0.7086614173228346
        },
        {
          "duration": 0.16216200000000924,
          "durationTicks": 48,
          "midi": 84,
          "name": "C6",
          "ticks": 22440,
          "time": 75.810735,
          "velocity": 0.8267716535433071
        },
        {
          "duration": 0.16216199999999503,
          "durationTicks": 48,
          "midi": 80,
          "name": "G#5",
          "ticks": 22512,
          "time": 76.053978,
          "velocity": 0.8267716535433071
        },
        {
          "duration": 0.16216199999999503,
          "durationTicks": 48,
          "midi": 77,
          "name": "F5",
          "ticks": 22512,
          "time": 76.053978,
          "velocity": 0.7086614173228346
        },
        {
          "duration": 0.16216200000000924,
          "durationTicks": 48,
          "midi": 75,
          "name": "D#5",
          "ticks": 22560,
          "time": 76.21614,
          "velocity": 0.8267716535433071
        },
        {
          "duration": 0.16216200000000924,
          "durationTicks": 48,
          "midi": 72,
          "name": "C5",
          "ticks": 22560,
          "time": 76.21614,
          "velocity": 0.7086614173228346
        },
        {
          "duration": 0.16216199999999503,
          "durationTicks": 48,
          "midi": 65,
          "name": "F4",
          "ticks": 22632,
          "time": 76.459383,
          "velocity": 0.7086614173228346
        },
        {
          "duration": 0.16216199999999503,
          "durationTicks": 48,
          "midi": 68,
          "name": "G#4",
          "ticks": 22632,
          "time": 76.459383,
          "velocity": 0.8267716535433071
        },
        {
          "duration": 0.16216200000000924,
          "durationTicks": 48,
          "midi": 70,
          "name": "A#4",
          "ticks": 22704,
          "time": 76.702626,
          "velocity": 0.8267716535433071
        },
        {
          "duration": 0.16216199999999503,
          "durationTicks": 48,
          "midi": 72,
          "name": "C5",
          "ticks": 22752,
          "time": 76.864788,
          "velocity": 0.8267716535433071
        },
        {
          "duration": 0.16216200000000924,
          "durationTicks": 48,
          "midi": 73,
          "name": "C#5",
          "ticks": 22824,
          "time": 77.108031,
          "velocity": 0.8267716535433071
        },
        {
          "duration": 0.16216199999999503,
          "durationTicks": 48,
          "midi": 75,
          "name": "D#5",
          "ticks": 22896,
          "time": 77.351274,
          "velocity": 0.8267716535433071
        },
        {
          "duration": 0.16216199999999503,
          "durationTicks": 48,
          "midi": 73,
          "name": "C#5",
          "ticks": 22944,
          "time": 77.513436,
          "velocity": 0.8267716535433071
        },
        {
          "duration": 0.16216200000000924,
          "durationTicks": 48,
          "midi": 75,
          "name": "D#5",
          "ticks": 22992,
          "time": 77.675598,
          "velocity": 0.8267716535433071
        },
        {
          "duration": 0.3243240000000043,
          "durationTicks": 96,
          "midi": 92,
          "name": "G#6",
          "ticks": 32256,
          "time": 108.972864,
          "velocity": 0.49606299212598426
        },
        {
          "duration": 0.3243240000000043,
          "durationTicks": 96,
          "midi": 80,
          "name": "G#5",
          "ticks": 32256,
          "time": 108.972864,
          "velocity": 0.49606299212598426
        },
        {
          "duration": 0.16216199999999503,
          "durationTicks": 48,
          "midi": 92,
          "name": "G#6",
          "ticks": 32352,
          "time": 109.297188,
          "velocity": 0.49606299212598426
        },
        {
          "duration": 0.16216199999999503,
          "durationTicks": 48,
          "midi": 80,
          "name": "G#5",
          "ticks": 32352,
          "time": 109.297188,
          "velocity": 0.49606299212598426
        },
        {
          "duration": 0.16216199999999503,
          "durationTicks": 48,
          "midi": 82,
          "name": "A#5",
          "ticks": 32400,
          "time": 109.45935,
          "velocity": 0.49606299212598426
        },
        {
          "duration": 0.16216199999999503,
          "durationTicks": 48,
          "midi": 94,
          "name": "A#6",
          "ticks": 32400,
          "time": 109.45935,
          "velocity": 0.49606299212598426
        },
        {
          "duration": 0.3243240000000043,
          "durationTicks": 96,
          "midi": 80,
          "name": "G#5",
          "ticks": 32448,
          "time": 109.621512,
          "velocity": 0.49606299212598426
        },
        {
          "duration": 0.3243240000000043,
          "durationTicks": 96,
          "midi": 92,
          "name": "G#6",
          "ticks": 32448,
          "time": 109.621512,
          "velocity": 0.49606299212598426
        },
        {
          "duration": 0.16216199999999503,
          "durationTicks": 48,
          "midi": 80,
          "name": "G#5",
          "ticks": 32544,
          "time": 109.945836,
          "velocity": 0.49606299212598426
        },
        {
          "duration": 0.16216199999999503,
          "durationTicks": 48,
          "midi": 92,
          "name": "G#6",
          "ticks": 32544,
          "time": 109.945836,
          "velocity": 0.49606299212598426
        },
        {
          "duration": 0.16216200000000924,
          "durationTicks": 48,
          "midi": 82,
          "name": "A#5",
          "ticks": 32592,
          "time": 110.107998,
          "velocity": 0.49606299212598426
        },
        {
          "duration": 0.16216200000000924,
          "durationTicks": 48,
          "midi": 94,
          "name": "A#6",
          "ticks": 32592,
          "time": 110.107998,
          "velocity": 0.49606299212598426
        },
        {
          "duration": 0.32432399999999006,
          "durationTicks": 96,
          "midi": 92,
          "name": "G#6",
          "ticks": 32640,
          "time": 110.27016,
          "velocity": 0.49606299212598426
        },
        {
          "duration": 0.32432399999999006,
          "durationTicks": 96,
          "midi": 80,
          "name": "G#5",
          "ticks": 32640,
          "time": 110.27016,
          "velocity": 0.49606299212598426
        },
        {
          "duration": 0.3243240000000043,
          "durationTicks": 96,
          "midi": 90,
          "name": "F#6",
          "ticks": 32736,
          "time": 110.594484,
          "velocity": 0.49606299212598426
        },
        {
          "duration": 0.3243240000000043,
          "durationTicks": 96,
          "midi": 78,
          "name": "F#5",
          "ticks": 32736,
          "time": 110.594484,
          "velocity": 0.49606299212598426
        },
        {
          "duration": 0.3243240000000043,
          "durationTicks": 96,
          "midi": 77,
          "name": "F5",
          "ticks": 32832,
          "time": 110.918808,
          "velocity": 0.49606299212598426
        },
        {
          "duration": 0.3243240000000043,
          "durationTicks": 96,
          "midi": 89,
          "name": "F6",
          "ticks": 32832,
          "time": 110.918808,
          "velocity": 0.49606299212598426
        },
        {
          "duration": 0.16216199999999503,
          "durationTicks": 48,
          "midi": 87,
          "name": "D#6",
          "ticks": 32928,
          "time": 111.243132,
          "velocity": 0.49606299212598426
        },
        {
          "duration": 0.16216199999999503,
          "durationTicks": 48,
          "midi": 75,
          "name": "D#5",
          "ticks": 32928,
          "time": 111.243132,
          "velocity": 0.49606299212598426
        },
        {
          "duration": 0.16216200000000924,
          "durationTicks": 48,
          "midi": 73,
          "name": "C#5",
          "ticks": 32976,
          "time": 111.405294,
          "velocity": 0.49606299212598426
        },
        {
          "duration": 0.16216200000000924,
          "durationTicks": 48,
          "midi": 85,
          "name": "C#6",
          "ticks": 32976,
          "time": 111.405294,
          "velocity": 0.49606299212598426
        },
        {
          "duration": 0.16216199999999503,
          "durationTicks": 48,
          "midi": 87,
          "name": "D#6",
          "ticks": 33024,
          "time": 111.567456,
          "velocity": 0.49606299212598426
        },
        {
          "duration": 0.16216199999999503,
          "durationTicks": 48,
          "midi": 75,
          "name": "D#5",
          "ticks": 33024,
          "time": 111.567456,
          "velocity": 0.49606299212598426
        },
        {
          "duration": 0.16216199999999503,
          "durationTicks": 48,
          "midi": 73,
          "name": "C#5",
          "ticks": 33072,
          "time": 111.729618,
          "velocity": 0.49606299212598426
        },
        {
          "duration": 0.16216199999999503,
          "durationTicks": 48,
          "midi": 85,
          "name": "C#6",
          "ticks": 33072,
          "time": 111.729618,
          "velocity": 0.49606299212598426
        },
        {
          "duration": 0.16216200000000924,
          "durationTicks": 48,
          "midi": 87,
          "name": "D#6",
          "ticks": 33120,
          "time": 111.89178,
          "velocity": 0.49606299212598426
        },
        {
          "duration": 0.16216200000000924,
          "durationTicks": 48,
          "midi": 75,
          "name": "D#5",
          "ticks": 33120,
          "time": 111.89178,
          "velocity": 0.49606299212598426
        },
        {
          "duration": 0.16216199999999503,
          "durationTicks": 48,
          "midi": 73,
          "name": "C#5",
          "ticks": 33168,
          "time": 112.053942,
          "velocity": 0.49606299212598426
        },
        {
          "duration": 0.16216199999999503,
          "durationTicks": 48,
          "midi": 85,
          "name": "C#6",
          "ticks": 33168,
          "time": 112.053942,
          "velocity": 0.49606299212598426
        },
        {
          "duration": 0.16216199999999503,
          "durationTicks": 48,
          "midi": 87,
          "name": "D#6",
          "ticks": 33216,
          "time": 112.216104,
          "velocity": 0.49606299212598426
        },
        {
          "duration": 0.16216199999999503,
          "durationTicks": 48,
          "midi": 75,
          "name": "D#5",
          "ticks": 33216,
          "time": 112.216104,
          "velocity": 0.49606299212598426
        },
        {
          "duration": 0.16216200000000924,
          "durationTicks": 48,
          "midi": 77,
          "name": "F5",
          "ticks": 33264,
          "time": 112.378266,
          "velocity": 0.49606299212598426
        },
        {
          "duration": 0.16216200000000924,
          "durationTicks": 48,
          "midi": 89,
          "name": "F6",
          "ticks": 33264,
          "time": 112.378266,
          "velocity": 0.49606299212598426
        },
        {
          "duration": 0.3243240000000043,
          "durationTicks": 96,
          "midi": 89,
          "name": "F6",
          "ticks": 33360,
          "time": 112.70259,
          "velocity": 0.49606299212598426
        },
        {
          "duration": 0.3243240000000043,
          "durationTicks": 96,
          "midi": 77,
          "name": "F5",
          "ticks": 33360,
          "time": 112.70259,
          "velocity": 0.49606299212598426
        },
        {
          "duration": 0.16216199999999503,
          "durationTicks": 48,
          "midi": 78,
          "name": "F#5",
          "ticks": 33456,
          "time": 113.026914,
          "velocity": 0.49606299212598426
        },
        {
          "duration": 0.16216199999999503,
          "durationTicks": 48,
          "midi": 90,
          "name": "F#6",
          "ticks": 33456,
          "time": 113.026914,
          "velocity": 0.49606299212598426
        },
        {
          "duration": 0.16216199999999503,
          "durationTicks": 48,
          "midi": 89,
          "name": "F6",
          "ticks": 33504,
          "time": 113.189076,
          "velocity": 0.49606299212598426
        },
        {
          "duration": 0.16216199999999503,
          "durationTicks": 48,
          "midi": 77,
          "name": "F5",
          "ticks": 33504,
          "time": 113.189076,
          "velocity": 0.49606299212598426
        },
        {
          "duration": 0.16216200000000924,
          "durationTicks": 48,
          "midi": 78,
          "name": "F#5",
          "ticks": 33552,
          "time": 113.351238,
          "velocity": 0.49606299212598426
        },
        {
          "duration": 0.16216200000000924,
          "durationTicks": 48,
          "midi": 90,
          "name": "F#6",
          "ticks": 33552,
          "time": 113.351238,
          "velocity": 0.49606299212598426
        },
        {
          "duration": 0.32432399999999006,
          "durationTicks": 96,
          "midi": 89,
          "name": "F6",
          "ticks": 33600,
          "time": 113.5134,
          "velocity": 0.49606299212598426
        },
        {
          "duration": 0.32432399999999006,
          "durationTicks": 96,
          "midi": 77,
          "name": "F5",
          "ticks": 33600,
          "time": 113.5134,
          "velocity": 0.49606299212598426
        },
        {
          "duration": 0.16216200000000924,
          "durationTicks": 48,
          "midi": 87,
          "name": "D#6",
          "ticks": 33696,
          "time": 113.837724,
          "velocity": 0.49606299212598426
        },
        {
          "duration": 0.16216200000000924,
          "durationTicks": 48,
          "midi": 75,
          "name": "D#5",
          "ticks": 33696,
          "time": 113.837724,
          "velocity": 0.49606299212598426
        },
        {
          "duration": 0.16216199999999503,
          "durationTicks": 48,
          "midi": 85,
          "name": "C#6",
          "ticks": 33744,
          "time": 113.999886,
          "velocity": 0.49606299212598426
        },
        {
          "duration": 0.16216199999999503,
          "durationTicks": 48,
          "midi": 73,
          "name": "C#5",
          "ticks": 33744,
          "time": 113.999886,
          "velocity": 0.49606299212598426
        },
        {
          "duration": 0.3243240000000043,
          "durationTicks": 96,
          "midi": 92,
          "name": "G#6",
          "ticks": 33792,
          "time": 114.162048,
          "velocity": 0.49606299212598426
        },
        {
          "duration": 0.3243240000000043,
          "durationTicks": 96,
          "midi": 80,
          "name": "G#5",
          "ticks": 33792,
          "time": 114.162048,
          "velocity": 0.49606299212598426
        },
        {
          "duration": 0.16216199999999503,
          "durationTicks": 48,
          "midi": 80,
          "name": "G#5",
          "ticks": 33888,
          "time": 114.486372,
          "velocity": 0.49606299212598426
        },
        {
          "duration": 0.16216199999999503,
          "durationTicks": 48,
          "midi": 92,
          "name": "G#6",
          "ticks": 33888,
          "time": 114.486372,
          "velocity": 0.49606299212598426
        },
        {
          "duration": 0.16216200000000924,
          "durationTicks": 48,
          "midi": 82,
          "name": "A#5",
          "ticks": 33936,
          "time": 114.648534,
          "velocity": 0.49606299212598426
        },
        {
          "duration": 0.16216200000000924,
          "durationTicks": 48,
          "midi": 94,
          "name": "A#6",
          "ticks": 33936,
          "time": 114.648534,
          "velocity": 0.49606299212598426
        },
        {
          "duration": 0.32432399999999006,
          "durationTicks": 96,
          "midi": 92,
          "name": "G#6",
          "ticks": 33984,
          "time": 114.81069600000001,
          "velocity": 0.49606299212598426
        },
        {
          "duration": 0.32432399999999006,
          "durationTicks": 96,
          "midi": 80,
          "name": "G#5",
          "ticks": 33984,
          "time": 114.81069600000001,
          "velocity": 0.49606299212598426
        },
        {
          "duration": 0.16216200000000924,
          "durationTicks": 48,
          "midi": 92,
          "name": "G#6",
          "ticks": 34080,
          "time": 115.13502,
          "velocity": 0.49606299212598426
        },
        {
          "duration": 0.16216200000000924,
          "durationTicks": 48,
          "midi": 80,
          "name": "G#5",
          "ticks": 34080,
          "time": 115.13502,
          "velocity": 0.49606299212598426
        },
        {
          "duration": 0.16216199999999503,
          "durationTicks": 48,
          "midi": 82,
          "name": "A#5",
          "ticks": 34128,
          "time": 115.297182,
          "velocity": 0.49606299212598426
        },
        {
          "duration": 0.16216199999999503,
          "durationTicks": 48,
          "midi": 94,
          "name": "A#6",
          "ticks": 34128,
          "time": 115.297182,
          "velocity": 0.49606299212598426
        },
        {
          "duration": 0.3243240000000043,
          "durationTicks": 96,
          "midi": 80,
          "name": "G#5",
          "ticks": 34176,
          "time": 115.459344,
          "velocity": 0.49606299212598426
        },
        {
          "duration": 0.3243240000000043,
          "durationTicks": 96,
          "midi": 92,
          "name": "G#6",
          "ticks": 34176,
          "time": 115.459344,
          "velocity": 0.49606299212598426
        },
        {
          "duration": 0.32432399999999006,
          "durationTicks": 96,
          "midi": 78,
          "name": "F#5",
          "ticks": 34272,
          "time": 115.783668,
          "velocity": 0.49606299212598426
        },
        {
          "duration": 0.32432399999999006,
          "durationTicks": 96,
          "midi": 90,
          "name": "F#6",
          "ticks": 34272,
          "time": 115.783668,
          "velocity": 0.49606299212598426
        },
        {
          "duration": 0.3243240000000043,
          "durationTicks": 96,
          "midi": 77,
          "name": "F5",
          "ticks": 34368,
          "time": 116.107992,
          "velocity": 0.49606299212598426
        },
        {
          "duration": 0.3243240000000043,
          "durationTicks": 96,
          "midi": 89,
          "name": "F6",
          "ticks": 34368,
          "time": 116.107992,
          "velocity": 0.49606299212598426
        },
        {
          "duration": 0.16216199999999503,
          "durationTicks": 48,
          "midi": 75,
          "name": "D#5",
          "ticks": 34464,
          "time": 116.432316,
          "velocity": 0.49606299212598426
        },
        {
          "duration": 0.16216199999999503,
          "durationTicks": 48,
          "midi": 87,
          "name": "D#6",
          "ticks": 34464,
          "time": 116.432316,
          "velocity": 0.49606299212598426
        },
        {
          "duration": 0.16216200000000924,
          "durationTicks": 48,
          "midi": 73,
          "name": "C#5",
          "ticks": 34512,
          "time": 116.594478,
          "velocity": 0.49606299212598426
        },
        {
          "duration": 0.16216200000000924,
          "durationTicks": 48,
          "midi": 85,
          "name": "C#6",
          "ticks": 34512,
          "time": 116.594478,
          "velocity": 0.49606299212598426
        },
        {
          "duration": 0.16216199999999503,
          "durationTicks": 48,
          "midi": 75,
          "name": "D#5",
          "ticks": 34560,
          "time": 116.75664,
          "velocity": 0.49606299212598426
        },
        {
          "duration": 0.16216199999999503,
          "durationTicks": 48,
          "midi": 87,
          "name": "D#6",
          "ticks": 34560,
          "time": 116.75664,
          "velocity": 0.49606299212598426
        },
        {
          "duration": 0.16216199999999503,
          "durationTicks": 48,
          "midi": 73,
          "name": "C#5",
          "ticks": 34608,
          "time": 116.918802,
          "velocity": 0.49606299212598426
        },
        {
          "duration": 0.16216199999999503,
          "durationTicks": 48,
          "midi": 85,
          "name": "C#6",
          "ticks": 34608,
          "time": 116.918802,
          "velocity": 0.49606299212598426
        },
        {
          "duration": 0.16216200000000924,
          "durationTicks": 48,
          "midi": 87,
          "name": "D#6",
          "ticks": 34656,
          "time": 117.080964,
          "velocity": 0.49606299212598426
        },
        {
          "duration": 0.16216200000000924,
          "durationTicks": 48,
          "midi": 75,
          "name": "D#5",
          "ticks": 34656,
          "time": 117.080964,
          "velocity": 0.49606299212598426
        },
        {
          "duration": 0.16216199999999503,
          "durationTicks": 48,
          "midi": 73,
          "name": "C#5",
          "ticks": 34704,
          "time": 117.243126,
          "velocity": 0.49606299212598426
        },
        {
          "duration": 0.16216199999999503,
          "durationTicks": 48,
          "midi": 85,
          "name": "C#6",
          "ticks": 34704,
          "time": 117.243126,
          "velocity": 0.49606299212598426
        },
        {
          "duration": 0.16216199999999503,
          "durationTicks": 48,
          "midi": 87,
          "name": "D#6",
          "ticks": 34752,
          "time": 117.405288,
          "velocity": 0.49606299212598426
        },
        {
          "duration": 0.16216199999999503,
          "durationTicks": 48,
          "midi": 75,
          "name": "D#5",
          "ticks": 34752,
          "time": 117.405288,
          "velocity": 0.49606299212598426
        },
        {
          "duration": 0.16216200000000924,
          "durationTicks": 48,
          "midi": 85,
          "name": "C#6",
          "ticks": 34800,
          "time": 117.56745,
          "velocity": 0.49606299212598426
        },
        {
          "duration": 0.16216200000000924,
          "durationTicks": 48,
          "midi": 97,
          "name": "C#7",
          "ticks": 34800,
          "time": 117.56745,
          "velocity": 0.49606299212598426
        },
        {
          "duration": 0.3243240000000043,
          "durationTicks": 96,
          "midi": 82,
          "name": "A#5",
          "ticks": 34896,
          "time": 117.891774,
          "velocity": 0.49606299212598426
        },
        {
          "duration": 0.3243240000000043,
          "durationTicks": 96,
          "midi": 94,
          "name": "A#6",
          "ticks": 34896,
          "time": 117.891774,
          "velocity": 0.49606299212598426
        },
        {
          "duration": 0.16216199999999503,
          "durationTicks": 48,
          "midi": 82,
          "name": "A#5",
          "ticks": 34992,
          "time": 118.216098,
          "velocity": 0.49606299212598426
        },
        {
          "duration": 0.16216199999999503,
          "durationTicks": 48,
          "midi": 94,
          "name": "A#6",
          "ticks": 34992,
          "time": 118.216098,
          "velocity": 0.49606299212598426
        },
        {
          "duration": 0.16216200000000924,
          "durationTicks": 48,
          "midi": 81,
          "name": "A5",
          "ticks": 35040,
          "time": 118.37826,
          "velocity": 0.49606299212598426
        },
        {
          "duration": 0.16216200000000924,
          "durationTicks": 48,
          "midi": 93,
          "name": "A6",
          "ticks": 35040,
          "time": 118.37826,
          "velocity": 0.49606299212598426
        },
        {
          "duration": 0.16216199999999503,
          "durationTicks": 48,
          "midi": 93,
          "name": "A6",
          "ticks": 35088,
          "time": 118.540422,
          "velocity": 0.49606299212598426
        },
        {
          "duration": 0.16216199999999503,
          "durationTicks": 48,
          "midi": 81,
          "name": "A5",
          "ticks": 35088,
          "time": 118.540422,
          "velocity": 0.49606299212598426
        },
        {
          "duration": 0.16216199999999503,
          "durationTicks": 48,
          "midi": 92,
          "name": "G#6",
          "ticks": 35136,
          "time": 118.702584,
          "velocity": 0.49606299212598426
        },
        {
          "duration": 0.16216199999999503,
          "durationTicks": 48,
          "midi": 80,
          "name": "G#5",
          "ticks": 35136,
          "time": 118.702584,
          "velocity": 0.49606299212598426
        },
        {
          "duration": 0.16216200000000924,
          "durationTicks": 48,
          "midi": 80,
          "name": "G#5",
          "ticks": 35184,
          "time": 118.864746,
          "velocity": 0.49606299212598426
        },
        {
          "duration": 0.16216200000000924,
          "durationTicks": 48,
          "midi": 92,
          "name": "G#6",
          "ticks": 35184,
          "time": 118.864746,
          "velocity": 0.49606299212598426
        },
        {
          "duration": 0.16216199999999503,
          "durationTicks": 48,
          "midi": 88,
          "name": "E6",
          "ticks": 35232,
          "time": 119.026908,
          "velocity": 0.49606299212598426
        },
        {
          "duration": 0.16216199999999503,
          "durationTicks": 48,
          "midi": 76,
          "name": "E5",
          "ticks": 35232,
          "time": 119.026908,
          "velocity": 0.49606299212598426
        },
        {
          "duration": 0.16216199999999503,
          "durationTicks": 48,
          "midi": 90,
          "name": "F#6",
          "ticks": 35280,
          "time": 119.18907,
          "velocity": 0.49606299212598426
        },
        {
          "duration": 0.16216199999999503,
          "durationTicks": 48,
          "midi": 78,
          "name": "F#5",
          "ticks": 35280,
          "time": 119.18907,
          "velocity": 0.49606299212598426
        },
        {
          "duration": 0.16216199999999503,
          "durationTicks": 48,
          "midi": 76,
          "name": "E5",
          "ticks": 36096,
          "time": 121.945824,
          "velocity": 0.49606299212598426
        },
        {
          "duration": 0.16216199999999503,
          "durationTicks": 48,
          "midi": 88,
          "name": "E6",
          "ticks": 36096,
          "time": 121.945824,
          "velocity": 0.49606299212598426
        },
        {
          "duration": 0.16216200000000924,
          "durationTicks": 48,
          "midi": 74,
          "name": "D5",
          "ticks": 36144,
          "time": 122.107986,
          "velocity": 0.49606299212598426
        },
        {
          "duration": 0.16216200000000924,
          "durationTicks": 48,
          "midi": 86,
          "name": "D6",
          "ticks": 36144,
          "time": 122.107986,
          "velocity": 0.49606299212598426
        },
        {
          "duration": 0.16216199999999503,
          "durationTicks": 48,
          "midi": 76,
          "name": "E5",
          "ticks": 36192,
          "time": 122.270148,
          "velocity": 0.49606299212598426
        },
        {
          "duration": 0.16216199999999503,
          "durationTicks": 48,
          "midi": 88,
          "name": "E6",
          "ticks": 36192,
          "time": 122.270148,
          "velocity": 0.49606299212598426
        },
        {
          "duration": 0.16216199999999503,
          "durationTicks": 48,
          "midi": 74,
          "name": "D5",
          "ticks": 36240,
          "time": 122.43231,
          "velocity": 0.49606299212598426
        },
        {
          "duration": 0.16216199999999503,
          "durationTicks": 48,
          "midi": 86,
          "name": "D6",
          "ticks": 36240,
          "time": 122.43231,
          "velocity": 0.49606299212598426
        },
        {
          "duration": 0.16216200000000924,
          "durationTicks": 48,
          "midi": 76,
          "name": "E5",
          "ticks": 36288,
          "time": 122.594472,
          "velocity": 0.49606299212598426
        },
        {
          "duration": 0.16216200000000924,
          "durationTicks": 48,
          "midi": 88,
          "name": "E6",
          "ticks": 36288,
          "time": 122.594472,
          "velocity": 0.49606299212598426
        },
        {
          "duration": 0.16216199999999503,
          "durationTicks": 48,
          "midi": 78,
          "name": "F#5",
          "ticks": 36336,
          "time": 122.756634,
          "velocity": 0.49606299212598426
        },
        {
          "duration": 0.16216199999999503,
          "durationTicks": 48,
          "midi": 90,
          "name": "F#6",
          "ticks": 36336,
          "time": 122.756634,
          "velocity": 0.49606299212598426
        },
        {
          "duration": 0.3243240000000043,
          "durationTicks": 96,
          "midi": 78,
          "name": "F#5",
          "ticks": 36432,
          "time": 123.080958,
          "velocity": 0.49606299212598426
        },
        {
          "duration": 0.3243240000000043,
          "durationTicks": 96,
          "midi": 90,
          "name": "F#6",
          "ticks": 36432,
          "time": 123.080958,
          "velocity": 0.49606299212598426
        },
        {
          "duration": 0.16216199999999503,
          "durationTicks": 48,
          "midi": 79,
          "name": "G5",
          "ticks": 36528,
          "time": 123.405282,
          "velocity": 0.49606299212598426
        },
        {
          "duration": 0.16216199999999503,
          "durationTicks": 48,
          "midi": 91,
          "name": "G6",
          "ticks": 36528,
          "time": 123.405282,
          "velocity": 0.49606299212598426
        },
        {
          "duration": 0.16216200000000924,
          "durationTicks": 48,
          "midi": 78,
          "name": "F#5",
          "ticks": 36576,
          "time": 123.567444,
          "velocity": 0.49606299212598426
        },
        {
          "duration": 0.16216200000000924,
          "durationTicks": 48,
          "midi": 90,
          "name": "F#6",
          "ticks": 36576,
          "time": 123.567444,
          "velocity": 0.49606299212598426
        },
        {
          "duration": 0.16216199999999503,
          "durationTicks": 48,
          "midi": 79,
          "name": "G5",
          "ticks": 36624,
          "time": 123.729606,
          "velocity": 0.49606299212598426
        },
        {
          "duration": 0.16216199999999503,
          "durationTicks": 48,
          "midi": 91,
          "name": "G6",
          "ticks": 36624,
          "time": 123.729606,
          "velocity": 0.49606299212598426
        },
        {
          "duration": 0.3243240000000043,
          "durationTicks": 96,
          "midi": 78,
          "name": "F#5",
          "ticks": 36672,
          "time": 123.891768,
          "velocity": 0.49606299212598426
        },
        {
          "duration": 0.3243240000000043,
          "durationTicks": 96,
          "midi": 90,
          "name": "F#6",
          "ticks": 36672,
          "time": 123.891768,
          "velocity": 0.49606299212598426
        },
        {
          "duration": 0.16216199999999503,
          "durationTicks": 48,
          "midi": 76,
          "name": "E5",
          "ticks": 36768,
          "time": 124.216092,
          "velocity": 0.49606299212598426
        },
        {
          "duration": 0.16216199999999503,
          "durationTicks": 48,
          "midi": 88,
          "name": "E6",
          "ticks": 36768,
          "time": 124.216092,
          "velocity": 0.49606299212598426
        },
        {
          "duration": 0.16216199999999503,
          "durationTicks": 48,
          "midi": 74,
          "name": "D5",
          "ticks": 36816,
          "time": 124.378254,
          "velocity": 0.49606299212598426
        },
        {
          "duration": 0.16216199999999503,
          "durationTicks": 48,
          "midi": 86,
          "name": "D6",
          "ticks": 36816,
          "time": 124.378254,
          "velocity": 0.49606299212598426
        },
        {
          "duration": 0.3243240000000043,
          "durationTicks": 96,
          "midi": 81,
          "name": "A5",
          "ticks": 36864,
          "time": 124.540416,
          "velocity": 0.49606299212598426
        },
        {
          "duration": 0.3243240000000043,
          "durationTicks": 96,
          "midi": 93,
          "name": "A6",
          "ticks": 36864,
          "time": 124.540416,
          "velocity": 0.49606299212598426
        },
        {
          "duration": 0.16216200000000924,
          "durationTicks": 48,
          "midi": 81,
          "name": "A5",
          "ticks": 36960,
          "time": 124.86474,
          "velocity": 0.49606299212598426
        },
        {
          "duration": 0.16216200000000924,
          "durationTicks": 48,
          "midi": 93,
          "name": "A6",
          "ticks": 36960,
          "time": 124.86474,
          "velocity": 0.49606299212598426
        },
        {
          "duration": 0.16216199999999503,
          "durationTicks": 48,
          "midi": 83,
          "name": "B5",
          "ticks": 37008,
          "time": 125.026902,
          "velocity": 0.49606299212598426
        },
        {
          "duration": 0.16216199999999503,
          "durationTicks": 48,
          "midi": 95,
          "name": "B6",
          "ticks": 37008,
          "time": 125.026902,
          "velocity": 0.49606299212598426
        },
        {
          "duration": 0.3243240000000043,
          "durationTicks": 96,
          "midi": 81,
          "name": "A5",
          "ticks": 37056,
          "time": 125.189064,
          "velocity": 0.49606299212598426
        },
        {
          "duration": 0.3243240000000043,
          "durationTicks": 96,
          "midi": 93,
          "name": "A6",
          "ticks": 37056,
          "time": 125.189064,
          "velocity": 0.49606299212598426
        },
        {
          "duration": 0.16216199999999503,
          "durationTicks": 48,
          "midi": 81,
          "name": "A5",
          "ticks": 37152,
          "time": 125.513388,
          "velocity": 0.49606299212598426
        },
        {
          "duration": 0.16216199999999503,
          "durationTicks": 48,
          "midi": 93,
          "name": "A6",
          "ticks": 37152,
          "time": 125.513388,
          "velocity": 0.49606299212598426
        },
        {
          "duration": 0.16216199999999503,
          "durationTicks": 48,
          "midi": 83,
          "name": "B5",
          "ticks": 37200,
          "time": 125.67555,
          "velocity": 0.49606299212598426
        },
        {
          "duration": 0.16216199999999503,
          "durationTicks": 48,
          "midi": 95,
          "name": "B6",
          "ticks": 37200,
          "time": 125.67555,
          "velocity": 0.49606299212598426
        },
        {
          "duration": 0.3243240000000043,
          "durationTicks": 96,
          "midi": 81,
          "name": "A5",
          "ticks": 37248,
          "time": 125.837712,
          "velocity": 0.49606299212598426
        },
        {
          "duration": 0.3243240000000043,
          "durationTicks": 96,
          "midi": 93,
          "name": "A6",
          "ticks": 37248,
          "time": 125.837712,
          "velocity": 0.49606299212598426
        },
        {
          "duration": 0.3243240000000043,
          "durationTicks": 96,
          "midi": 79,
          "name": "G5",
          "ticks": 37344,
          "time": 126.162036,
          "velocity": 0.49606299212598426
        },
        {
          "duration": 0.3243240000000043,
          "durationTicks": 96,
          "midi": 91,
          "name": "G6",
          "ticks": 37344,
          "time": 126.162036,
          "velocity": 0.49606299212598426
        },
        {
          "duration": 0.32432399999999006,
          "durationTicks": 96,
          "midi": 78,
          "name": "F#5",
          "ticks": 37440,
          "time": 126.48636,
          "velocity": 0.49606299212598426
        },
        {
          "duration": 0.32432399999999006,
          "durationTicks": 96,
          "midi": 90,
          "name": "F#6",
          "ticks": 37440,
          "time": 126.48636,
          "velocity": 0.49606299212598426
        },
        {
          "duration": 0.16216200000000924,
          "durationTicks": 48,
          "midi": 76,
          "name": "E5",
          "ticks": 37536,
          "time": 126.810684,
          "velocity": 0.49606299212598426
        },
        {
          "duration": 0.16216200000000924,
          "durationTicks": 48,
          "midi": 88,
          "name": "E6",
          "ticks": 37536,
          "time": 126.810684,
          "velocity": 0.49606299212598426
        },
        {
          "duration": 0.16216199999999503,
          "durationTicks": 48,
          "midi": 74,
          "name": "D5",
          "ticks": 37584,
          "time": 126.972846,
          "velocity": 0.49606299212598426
        },
        {
          "duration": 0.16216199999999503,
          "durationTicks": 48,
          "midi": 86,
          "name": "D6",
          "ticks": 37584,
          "time": 126.972846,
          "velocity": 0.49606299212598426
        },
        {
          "duration": 0.16216199999999503,
          "durationTicks": 48,
          "midi": 76,
          "name": "E5",
          "ticks": 37632,
          "time": 127.135008,
          "velocity": 0.49606299212598426
        },
        {
          "duration": 0.16216199999999503,
          "durationTicks": 48,
          "midi": 88,
          "name": "E6",
          "ticks": 37632,
          "time": 127.135008,
          "velocity": 0.49606299212598426
        },
        {
          "duration": 0.16216200000000924,
          "durationTicks": 48,
          "midi": 74,
          "name": "D5",
          "ticks": 37680,
          "time": 127.29717,
          "velocity": 0.49606299212598426
        },
        {
          "duration": 0.16216200000000924,
          "durationTicks": 48,
          "midi": 86,
          "name": "D6",
          "ticks": 37680,
          "time": 127.29717,
          "velocity": 0.49606299212598426
        },
        {
          "duration": 0.16216199999999503,
          "durationTicks": 48,
          "midi": 76,
          "name": "E5",
          "ticks": 37728,
          "time": 127.459332,
          "velocity": 0.49606299212598426
        },
        {
          "duration": 0.16216199999999503,
          "durationTicks": 48,
          "midi": 88,
          "name": "E6",
          "ticks": 37728,
          "time": 127.459332,
          "velocity": 0.49606299212598426
        },
        {
          "duration": 0.16216199999999503,
          "durationTicks": 48,
          "midi": 74,
          "name": "D5",
          "ticks": 37776,
          "time": 127.621494,
          "velocity": 0.49606299212598426
        },
        {
          "duration": 0.16216199999999503,
          "durationTicks": 48,
          "midi": 86,
          "name": "D6",
          "ticks": 37776,
          "time": 127.621494,
          "velocity": 0.49606299212598426
        },
        {
          "duration": 0.16216200000000924,
          "durationTicks": 48,
          "midi": 76,
          "name": "E5",
          "ticks": 37824,
          "time": 127.783656,
          "velocity": 0.49606299212598426
        },
        {
          "duration": 0.16216200000000924,
          "durationTicks": 48,
          "midi": 88,
          "name": "E6",
          "ticks": 37824,
          "time": 127.783656,
          "velocity": 0.49606299212598426
        },
        {
          "duration": 0.16216199999999503,
          "durationTicks": 48,
          "midi": 86,
          "name": "D6",
          "ticks": 37872,
          "time": 127.945818,
          "velocity": 0.49606299212598426
        },
        {
          "duration": 0.16216199999999503,
          "durationTicks": 48,
          "midi": 98,
          "name": "D7",
          "ticks": 37872,
          "time": 127.945818,
          "velocity": 0.49606299212598426
        },
        {
          "duration": 0.3243240000000185,
          "durationTicks": 96,
          "midi": 83,
          "name": "B5",
          "ticks": 37968,
          "time": 128.270142,
          "velocity": 0.49606299212598426
        },
        {
          "duration": 0.3243240000000185,
          "durationTicks": 96,
          "midi": 95,
          "name": "B6",
          "ticks": 37968,
          "time": 128.270142,
          "velocity": 0.49606299212598426
        },
        {
          "duration": 0.16216199999999503,
          "durationTicks": 48,
          "midi": 83,
          "name": "B5",
          "ticks": 38064,
          "time": 128.594466,
          "velocity": 0.49606299212598426
        },
        {
          "duration": 0.16216199999999503,
          "durationTicks": 48,
          "midi": 95,
          "name": "B6",
          "ticks": 38064,
          "time": 128.594466,
          "velocity": 0.49606299212598426
        },
        {
          "duration": 0.16216199999999503,
          "durationTicks": 48,
          "midi": 81,
          "name": "A5",
          "ticks": 38112,
          "time": 128.756628,
          "velocity": 0.49606299212598426
        },
        {
          "duration": 0.16216199999999503,
          "durationTicks": 48,
          "midi": 93,
          "name": "A6",
          "ticks": 38112,
          "time": 128.756628,
          "velocity": 0.49606299212598426
        },
        {
          "duration": 0.16216199999999503,
          "durationTicks": 48,
          "midi": 79,
          "name": "G5",
          "ticks": 38160,
          "time": 128.91879,
          "velocity": 0.49606299212598426
        },
        {
          "duration": 0.16216199999999503,
          "durationTicks": 48,
          "midi": 91,
          "name": "G6",
          "ticks": 38160,
          "time": 128.91879,
          "velocity": 0.49606299212598426
        },
        {
          "duration": 0.16216199999999503,
          "durationTicks": 48,
          "midi": 78,
          "name": "F#5",
          "ticks": 38208,
          "time": 129.080952,
          "velocity": 0.49606299212598426
        },
        {
          "duration": 0.16216199999999503,
          "durationTicks": 48,
          "midi": 90,
          "name": "F#6",
          "ticks": 38208,
          "time": 129.080952,
          "velocity": 0.49606299212598426
        },
        {
          "duration": 0.16216199999999503,
          "durationTicks": 48,
          "midi": 79,
          "name": "G5",
          "ticks": 38256,
          "time": 129.243114,
          "velocity": 0.49606299212598426
        },
        {
          "duration": 0.16216199999999503,
          "durationTicks": 48,
          "midi": 91,
          "name": "G6",
          "ticks": 38256,
          "time": 129.243114,
          "velocity": 0.49606299212598426
        },
        {
          "duration": 0.3243240000000185,
          "durationTicks": 96,
          "midi": 78,
          "name": "F#5",
          "ticks": 38304,
          "time": 129.405276,
          "velocity": 0.49606299212598426
        },
        {
          "duration": 0.3243240000000185,
          "durationTicks": 96,
          "midi": 90,
          "name": "F#6",
          "ticks": 38304,
          "time": 129.405276,
          "velocity": 0.49606299212598426
        },
        {
          "duration": 0.32432399999999006,
          "durationTicks": 96,
          "midi": 81,
          "name": "A5",
          "ticks": 38400,
          "time": 129.7296,
          "velocity": 0.49606299212598426
        },
        {
          "duration": 0.32432399999999006,
          "durationTicks": 96,
          "midi": 93,
          "name": "A6",
          "ticks": 38400,
          "time": 129.7296,
          "velocity": 0.49606299212598426
        },
        {
          "duration": 0.16216199999999503,
          "durationTicks": 48,
          "midi": 81,
          "name": "A5",
          "ticks": 38496,
          "time": 130.053924,
          "velocity": 0.49606299212598426
        },
        {
          "duration": 0.16216199999999503,
          "durationTicks": 48,
          "midi": 93,
          "name": "A6",
          "ticks": 38496,
          "time": 130.053924,
          "velocity": 0.49606299212598426
        },
        {
          "duration": 0.16216200000002345,
          "durationTicks": 48,
          "midi": 83,
          "name": "B5",
          "ticks": 38544,
          "time": 130.216086,
          "velocity": 0.49606299212598426
        },
        {
          "duration": 0.16216200000002345,
          "durationTicks": 48,
          "midi": 95,
          "name": "B6",
          "ticks": 38544,
          "time": 130.216086,
          "velocity": 0.49606299212598426
        },
        {
          "duration": 0.32432399999999006,
          "durationTicks": 96,
          "midi": 81,
          "name": "A5",
          "ticks": 38592,
          "time": 130.378248,
          "velocity": 0.49606299212598426
        },
        {
          "duration": 0.32432399999999006,
          "durationTicks": 96,
          "midi": 93,
          "name": "A6",
          "ticks": 38592,
          "time": 130.378248,
          "velocity": 0.49606299212598426
        },
        {
          "duration": 0.16216199999999503,
          "durationTicks": 48,
          "midi": 81,
          "name": "A5",
          "ticks": 38688,
          "time": 130.702572,
          "velocity": 0.49606299212598426
        },
        {
          "duration": 0.16216199999999503,
          "durationTicks": 48,
          "midi": 93,
          "name": "A6",
          "ticks": 38688,
          "time": 130.702572,
          "velocity": 0.49606299212598426
        },
        {
          "duration": 0.16216199999999503,
          "durationTicks": 48,
          "midi": 83,
          "name": "B5",
          "ticks": 38736,
          "time": 130.864734,
          "velocity": 0.49606299212598426
        },
        {
          "duration": 0.16216199999999503,
          "durationTicks": 48,
          "midi": 95,
          "name": "B6",
          "ticks": 38736,
          "time": 130.864734,
          "velocity": 0.49606299212598426
        },
        {
          "duration": 0.3243240000000185,
          "durationTicks": 96,
          "midi": 81,
          "name": "A5",
          "ticks": 38784,
          "time": 131.026896,
          "velocity": 0.49606299212598426
        },
        {
          "duration": 0.3243240000000185,
          "durationTicks": 96,
          "midi": 93,
          "name": "A6",
          "ticks": 38784,
          "time": 131.026896,
          "velocity": 0.49606299212598426
        },
        {
          "duration": 0.32432399999999006,
          "durationTicks": 96,
          "midi": 79,
          "name": "G5",
          "ticks": 38880,
          "time": 131.35122,
          "velocity": 0.49606299212598426
        },
        {
          "duration": 0.32432399999999006,
          "durationTicks": 96,
          "midi": 91,
          "name": "G6",
          "ticks": 38880,
          "time": 131.35122,
          "velocity": 0.49606299212598426
        },
        {
          "duration": 0.32432399999999006,
          "durationTicks": 96,
          "midi": 78,
          "name": "F#5",
          "ticks": 38976,
          "time": 131.675544,
          "velocity": 0.49606299212598426
        },
        {
          "duration": 0.32432399999999006,
          "durationTicks": 96,
          "midi": 90,
          "name": "F#6",
          "ticks": 38976,
          "time": 131.675544,
          "velocity": 0.49606299212598426
        },
        {
          "duration": 0.16216199999999503,
          "durationTicks": 48,
          "midi": 76,
          "name": "E5",
          "ticks": 39072,
          "time": 131.999868,
          "velocity": 0.49606299212598426
        },
        {
          "duration": 0.16216199999999503,
          "durationTicks": 48,
          "midi": 88,
          "name": "E6",
          "ticks": 39072,
          "time": 131.999868,
          "velocity": 0.49606299212598426
        },
        {
          "duration": 0.16216200000002345,
          "durationTicks": 48,
          "midi": 74,
          "name": "D5",
          "ticks": 39120,
          "time": 132.16203,
          "velocity": 0.49606299212598426
        },
        {
          "duration": 0.16216200000002345,
          "durationTicks": 48,
          "midi": 86,
          "name": "D6",
          "ticks": 39120,
          "time": 132.16203,
          "velocity": 0.49606299212598426
        },
        {
          "duration": 0.16216199999999503,
          "durationTicks": 48,
          "midi": 76,
          "name": "E5",
          "ticks": 39168,
          "time": 132.324192,
          "velocity": 0.49606299212598426
        },
        {
          "duration": 0.16216199999999503,
          "durationTicks": 48,
          "midi": 88,
          "name": "E6",
          "ticks": 39168,
          "time": 132.324192,
          "velocity": 0.49606299212598426
        },
        {
          "duration": 0.16216199999999503,
          "durationTicks": 48,
          "midi": 74,
          "name": "D5",
          "ticks": 39216,
          "time": 132.486354,
          "velocity": 0.49606299212598426
        },
        {
          "duration": 0.16216199999999503,
          "durationTicks": 48,
          "midi": 86,
          "name": "D6",
          "ticks": 39216,
          "time": 132.486354,
          "velocity": 0.49606299212598426
        },
        {
          "duration": 0.16216199999999503,
          "durationTicks": 48,
          "midi": 76,
          "name": "E5",
          "ticks": 39264,
          "time": 132.648516,
          "velocity": 0.49606299212598426
        },
        {
          "duration": 0.16216199999999503,
          "durationTicks": 48,
          "midi": 88,
          "name": "E6",
          "ticks": 39264,
          "time": 132.648516,
          "velocity": 0.49606299212598426
        },
        {
          "duration": 0.16216199999999503,
          "durationTicks": 48,
          "midi": 74,
          "name": "D5",
          "ticks": 39312,
          "time": 132.810678,
          "velocity": 0.49606299212598426
        },
        {
          "duration": 0.16216199999999503,
          "durationTicks": 48,
          "midi": 86,
          "name": "D6",
          "ticks": 39312,
          "time": 132.810678,
          "velocity": 0.49606299212598426
        },
        {
          "duration": 0.16216200000002345,
          "durationTicks": 48,
          "midi": 76,
          "name": "E5",
          "ticks": 39360,
          "time": 132.97284,
          "velocity": 0.49606299212598426
        },
        {
          "duration": 0.16216200000002345,
          "durationTicks": 48,
          "midi": 88,
          "name": "E6",
          "ticks": 39360,
          "time": 132.97284,
          "velocity": 0.49606299212598426
        },
        {
          "duration": 0.16216199999999503,
          "durationTicks": 48,
          "midi": 78,
          "name": "F#5",
          "ticks": 39408,
          "time": 133.13500200000001,
          "velocity": 0.49606299212598426
        },
        {
          "duration": 0.16216199999999503,
          "durationTicks": 48,
          "midi": 90,
          "name": "F#6",
          "ticks": 39408,
          "time": 133.13500200000001,
          "velocity": 0.49606299212598426
        },
        {
          "duration": 0.32432399999999006,
          "durationTicks": 96,
          "midi": 78,
          "name": "F#5",
          "ticks": 39504,
          "time": 133.459326,
          "velocity": 0.49606299212598426
        },
        {
          "duration": 0.32432399999999006,
          "durationTicks": 96,
          "midi": 90,
          "name": "F#6",
          "ticks": 39504,
          "time": 133.459326,
          "velocity": 0.49606299212598426
        },
        {
          "duration": 0.16216199999999503,
          "durationTicks": 48,
          "midi": 79,
          "name": "G5",
          "ticks": 39600,
          "time": 133.78365,
          "velocity": 0.49606299212598426
        },
        {
          "duration": 0.16216199999999503,
          "durationTicks": 48,
          "midi": 91,
          "name": "G6",
          "ticks": 39600,
          "time": 133.78365,
          "velocity": 0.49606299212598426
        },
        {
          "duration": 0.16216200000002345,
          "durationTicks": 48,
          "midi": 78,
          "name": "F#5",
          "ticks": 39648,
          "time": 133.945812,
          "velocity": 0.49606299212598426
        },
        {
          "duration": 0.16216200000002345,
          "durationTicks": 48,
          "midi": 90,
          "name": "F#6",
          "ticks": 39648,
          "time": 133.945812,
          "velocity": 0.49606299212598426
        },
        {
          "duration": 0.16216199999999503,
          "durationTicks": 48,
          "midi": 79,
          "name": "G5",
          "ticks": 39696,
          "time": 134.107974,
          "velocity": 0.49606299212598426
        },
        {
          "duration": 0.16216199999999503,
          "durationTicks": 48,
          "midi": 91,
          "name": "G6",
          "ticks": 39696,
          "time": 134.107974,
          "velocity": 0.49606299212598426
        },
        {
          "duration": 0.32432399999999006,
          "durationTicks": 96,
          "midi": 78,
          "name": "F#5",
          "ticks": 39744,
          "time": 134.270136,
          "velocity": 0.49606299212598426
        },
        {
          "duration": 0.32432399999999006,
          "durationTicks": 96,
          "midi": 90,
          "name": "F#6",
          "ticks": 39744,
          "time": 134.270136,
          "velocity": 0.49606299212598426
        },
        {
          "duration": 0.16216199999999503,
          "durationTicks": 48,
          "midi": 76,
          "name": "E5",
          "ticks": 39840,
          "time": 134.59446,
          "velocity": 0.49606299212598426
        },
        {
          "duration": 0.16216199999999503,
          "durationTicks": 48,
          "midi": 88,
          "name": "E6",
          "ticks": 39840,
          "time": 134.59446,
          "velocity": 0.49606299212598426
        },
        {
          "duration": 0.16216199999999503,
          "durationTicks": 48,
          "midi": 74,
          "name": "D5",
          "ticks": 39888,
          "time": 134.756622,
          "velocity": 0.49606299212598426
        },
        {
          "duration": 0.16216199999999503,
          "durationTicks": 48,
          "midi": 86,
          "name": "D6",
          "ticks": 39888,
          "time": 134.756622,
          "velocity": 0.49606299212598426
        },
        {
          "duration": 0.16216200000002345,
          "durationTicks": 48,
          "midi": 81,
          "name": "A5",
          "ticks": 39936,
          "time": 134.918784,
          "velocity": 0.49606299212598426
        },
        {
          "duration": 0.16216200000002345,
          "durationTicks": 48,
          "midi": 93,
          "name": "A6",
          "ticks": 39936,
          "time": 134.918784,
          "velocity": 0.49606299212598426
        },
        {
          "duration": 0.16216199999999503,
          "durationTicks": 48,
          "midi": 81,
          "name": "A5",
          "ticks": 40008,
          "time": 135.162027,
          "velocity": 0.49606299212598426
        },
        {
          "duration": 0.16216199999999503,
          "durationTicks": 48,
          "midi": 93,
          "name": "A6",
          "ticks": 40008,
          "time": 135.162027,
          "velocity": 0.49606299212598426
        },
        {
          "duration": 0.16216199999999503,
          "durationTicks": 48,
          "midi": 83,
          "name": "B5",
          "ticks": 40080,
          "time": 135.40527,
          "velocity": 0.49606299212598426
        },
        {
          "duration": 0.16216199999999503,
          "durationTicks": 48,
          "midi": 95,
          "name": "B6",
          "ticks": 40080,
          "time": 135.40527,
          "velocity": 0.49606299212598426
        },
        {
          "duration": 0.32432399999999006,
          "durationTicks": 96,
          "midi": 81,
          "name": "A5",
          "ticks": 40128,
          "time": 135.567432,
          "velocity": 0.49606299212598426
        },
        {
          "duration": 0.32432399999999006,
          "durationTicks": 96,
          "midi": 93,
          "name": "A6",
          "ticks": 40128,
          "time": 135.567432,
          "velocity": 0.49606299212598426
        },
        {
          "duration": 0.16216200000002345,
          "durationTicks": 48,
          "midi": 81,
          "name": "A5",
          "ticks": 40224,
          "time": 135.891756,
          "velocity": 0.49606299212598426
        },
        {
          "duration": 0.16216200000002345,
          "durationTicks": 48,
          "midi": 93,
          "name": "A6",
          "ticks": 40224,
          "time": 135.891756,
          "velocity": 0.49606299212598426
        },
        {
          "duration": 0.16216199999999503,
          "durationTicks": 48,
          "midi": 83,
          "name": "B5",
          "ticks": 40272,
          "time": 136.053918,
          "velocity": 0.49606299212598426
        },
        {
          "duration": 0.16216199999999503,
          "durationTicks": 48,
          "midi": 95,
          "name": "B6",
          "ticks": 40272,
          "time": 136.053918,
          "velocity": 0.49606299212598426
        },
        {
          "duration": 0.32432399999999006,
          "durationTicks": 96,
          "midi": 81,
          "name": "A5",
          "ticks": 40320,
          "time": 136.21608,
          "velocity": 0.49606299212598426
        },
        {
          "duration": 0.32432399999999006,
          "durationTicks": 96,
          "midi": 93,
          "name": "A6",
          "ticks": 40320,
          "time": 136.21608,
          "velocity": 0.49606299212598426
        },
        {
          "duration": 0.3243240000000185,
          "durationTicks": 96,
          "midi": 79,
          "name": "G5",
          "ticks": 40416,
          "time": 136.540404,
          "velocity": 0.49606299212598426
        },
        {
          "duration": 0.3243240000000185,
          "durationTicks": 96,
          "midi": 91,
          "name": "G6",
          "ticks": 40416,
          "time": 136.540404,
          "velocity": 0.49606299212598426
        },
        {
          "duration": 0.32432399999999006,
          "durationTicks": 96,
          "midi": 78,
          "name": "F#5",
          "ticks": 40512,
          "time": 136.864728,
          "velocity": 0.49606299212598426
        },
        {
          "duration": 0.32432399999999006,
          "durationTicks": 96,
          "midi": 90,
          "name": "F#6",
          "ticks": 40512,
          "time": 136.864728,
          "velocity": 0.49606299212598426
        },
        {
          "duration": 0.16216199999999503,
          "durationTicks": 48,
          "midi": 76,
          "name": "E5",
          "ticks": 40608,
          "time": 137.189052,
          "velocity": 0.49606299212598426
        },
        {
          "duration": 0.16216199999999503,
          "durationTicks": 48,
          "midi": 88,
          "name": "E6",
          "ticks": 40608,
          "time": 137.189052,
          "velocity": 0.49606299212598426
        },
        {
          "duration": 0.16216199999999503,
          "durationTicks": 48,
          "midi": 74,
          "name": "D5",
          "ticks": 40656,
          "time": 137.351214,
          "velocity": 0.49606299212598426
        },
        {
          "duration": 0.16216199999999503,
          "durationTicks": 48,
          "midi": 86,
          "name": "D6",
          "ticks": 40656,
          "time": 137.351214,
          "velocity": 0.49606299212598426
        },
        {
          "duration": 0.16216199999999503,
          "durationTicks": 48,
          "midi": 76,
          "name": "E5",
          "ticks": 40704,
          "time": 137.513376,
          "velocity": 0.49606299212598426
        },
        {
          "duration": 0.16216199999999503,
          "durationTicks": 48,
          "midi": 88,
          "name": "E6",
          "ticks": 40704,
          "time": 137.513376,
          "velocity": 0.49606299212598426
        },
        {
          "duration": 0.16216200000002345,
          "durationTicks": 48,
          "midi": 74,
          "name": "D5",
          "ticks": 40752,
          "time": 137.675538,
          "velocity": 0.49606299212598426
        },
        {
          "duration": 0.16216200000002345,
          "durationTicks": 48,
          "midi": 86,
          "name": "D6",
          "ticks": 40752,
          "time": 137.675538,
          "velocity": 0.49606299212598426
        },
        {
          "duration": 0.16216199999999503,
          "durationTicks": 48,
          "midi": 76,
          "name": "E5",
          "ticks": 40800,
          "time": 137.8377,
          "velocity": 0.49606299212598426
        },
        {
          "duration": 0.16216199999999503,
          "durationTicks": 48,
          "midi": 88,
          "name": "E6",
          "ticks": 40800,
          "time": 137.8377,
          "velocity": 0.49606299212598426
        },
        {
          "duration": 0.16216199999999503,
          "durationTicks": 48,
          "midi": 74,
          "name": "D5",
          "ticks": 40848,
          "time": 137.999862,
          "velocity": 0.49606299212598426
        },
        {
          "duration": 0.16216199999999503,
          "durationTicks": 48,
          "midi": 86,
          "name": "D6",
          "ticks": 40848,
          "time": 137.999862,
          "velocity": 0.49606299212598426
        },
        {
          "duration": 0.16216199999999503,
          "durationTicks": 48,
          "midi": 76,
          "name": "E5",
          "ticks": 40896,
          "time": 138.162024,
          "velocity": 0.49606299212598426
        },
        {
          "duration": 0.16216199999999503,
          "durationTicks": 48,
          "midi": 88,
          "name": "E6",
          "ticks": 40896,
          "time": 138.162024,
          "velocity": 0.49606299212598426
        },
        {
          "duration": 0.16216199999999503,
          "durationTicks": 48,
          "midi": 86,
          "name": "D6",
          "ticks": 40944,
          "time": 138.324186,
          "velocity": 0.49606299212598426
        },
        {
          "duration": 0.16216199999999503,
          "durationTicks": 48,
          "midi": 98,
          "name": "D7",
          "ticks": 40944,
          "time": 138.324186,
          "velocity": 0.49606299212598426
        },
        {
          "duration": 0.3243240000000185,
          "durationTicks": 96,
          "midi": 83,
          "name": "B5",
          "ticks": 41040,
          "time": 138.64851,
          "velocity": 0.49606299212598426
        },
        {
          "duration": 0.3243240000000185,
          "durationTicks": 96,
          "midi": 95,
          "name": "B6",
          "ticks": 41040,
          "time": 138.64851,
          "velocity": 0.49606299212598426
        },
        {
          "duration": 0.16216199999999503,
          "durationTicks": 48,
          "midi": 83,
          "name": "B5",
          "ticks": 41136,
          "time": 138.972834,
          "velocity": 0.49606299212598426
        },
        {
          "duration": 0.16216199999999503,
          "durationTicks": 48,
          "midi": 95,
          "name": "B6",
          "ticks": 41136,
          "time": 138.972834,
          "velocity": 0.49606299212598426
        },
        {
          "duration": 0.16216199999999503,
          "durationTicks": 48,
          "midi": 82,
          "name": "A#5",
          "ticks": 41184,
          "time": 139.134996,
          "velocity": 0.49606299212598426
        },
        {
          "duration": 0.16216199999999503,
          "durationTicks": 48,
          "midi": 94,
          "name": "A#6",
          "ticks": 41184,
          "time": 139.134996,
          "velocity": 0.49606299212598426
        },
        {
          "duration": 0.16216199999999503,
          "durationTicks": 48,
          "midi": 82,
          "name": "A#5",
          "ticks": 41232,
          "time": 139.297158,
          "velocity": 0.49606299212598426
        },
        {
          "duration": 0.16216199999999503,
          "durationTicks": 48,
          "midi": 94,
          "name": "A#6",
          "ticks": 41232,
          "time": 139.297158,
          "velocity": 0.49606299212598426
        },
        {
          "duration": 0.16216200000002345,
          "durationTicks": 48,
          "midi": 81,
          "name": "A5",
          "ticks": 41280,
          "time": 139.45932,
          "velocity": 0.49606299212598426
        },
        {
          "duration": 0.16216200000002345,
          "durationTicks": 48,
          "midi": 93,
          "name": "A6",
          "ticks": 41280,
          "time": 139.45932,
          "velocity": 0.49606299212598426
        },
        {
          "duration": 0.16216199999999503,
          "durationTicks": 48,
          "midi": 81,
          "name": "A5",
          "ticks": 41328,
          "time": 139.62148200000001,
          "velocity": 0.49606299212598426
        },
        {
          "duration": 0.16216199999999503,
          "durationTicks": 48,
          "midi": 93,
          "name": "A6",
          "ticks": 41328,
          "time": 139.62148200000001,
          "velocity": 0.49606299212598426
        },
        {
          "duration": 0.16216199999999503,
          "durationTicks": 48,
          "midi": 79,
          "name": "G5",
          "ticks": 41376,
          "time": 139.783644,
          "velocity": 0.49606299212598426
        },
        {
          "duration": 0.16216199999999503,
          "durationTicks": 48,
          "midi": 91,
          "name": "G6",
          "ticks": 41376,
          "time": 139.783644,
          "velocity": 0.49606299212598426
        },
        {
          "duration": 0.16216199999999503,
          "durationTicks": 48,
          "midi": 78,
          "name": "F#5",
          "ticks": 41424,
          "time": 139.945806,
          "velocity": 0.49606299212598426
        },
        {
          "duration": 0.16216199999999503,
          "durationTicks": 48,
          "midi": 90,
          "name": "F#6",
          "ticks": 41424,
          "time": 139.945806,
          "velocity": 0.49606299212598426
        },
        {
          "duration": 0.16216199999999503,
          "durationTicks": 48,
          "midi": 76,
          "name": "E5",
          "ticks": 41472,
          "time": 140.107968,
          "velocity": 0.49606299212598426
        },
        {
          "duration": 0.16216199999999503,
          "durationTicks": 48,
          "midi": 88,
          "name": "E6",
          "ticks": 41472,
          "time": 140.107968,
          "velocity": 0.49606299212598426
        },
        {
          "duration": 0.08108100000001173,
          "durationTicks": 24,
          "midi": 69,
          "name": "A4",
          "ticks": 42144,
          "time": 142.378236,
          "velocity": 0.8267716535433071
        },
        {
          "duration": 0.08108100000001173,
          "durationTicks": 24,
          "midi": 71,
          "name": "B4",
          "ticks": 42168,
          "time": 142.459317,
          "velocity": 0.8267716535433071
        },
        {
          "duration": 0.0810809999999833,
          "durationTicks": 24,
          "midi": 74,
          "name": "D5",
          "ticks": 42192,
          "time": 142.540398,
          "velocity": 0.8267716535433071
        },
        {
          "duration": 0.08108100000001173,
          "durationTicks": 24,
          "midi": 81,
          "name": "A5",
          "ticks": 42216,
          "time": 142.621479,
          "velocity": 0.8267716535433071
        },
        {
          "duration": 0.0810809999999833,
          "durationTicks": 24,
          "midi": 85,
          "name": "C#6",
          "ticks": 42240,
          "time": 142.70256,
          "velocity": 0.8267716535433071
        },
        {
          "duration": 0.2027025000000151,
          "durationTicks": 60,
          "midi": 86,
          "name": "D6",
          "ticks": 42252,
          "time": 142.7431005,
          "velocity": 0.8267716535433071
        },
        {
          "duration": 0.24324299999997834,
          "durationTicks": 72,
          "midi": 85,
          "name": "C#6",
          "ticks": 42312,
          "time": 142.945803,
          "velocity": 0.8267716535433071
        },
        {
          "duration": 0.08108100000001173,
          "durationTicks": 24,
          "midi": 81,
          "name": "A5",
          "ticks": 42384,
          "time": 143.189046,
          "velocity": 0.8267716535433071
        },
        {
          "duration": 0.08108100000001173,
          "durationTicks": 24,
          "midi": 83,
          "name": "B5",
          "ticks": 42408,
          "time": 143.270127,
          "velocity": 0.8267716535433071
        },
        {
          "duration": 0.32432399999999006,
          "durationTicks": 96,
          "midi": 81,
          "name": "A5",
          "ticks": 42432,
          "time": 143.351208,
          "velocity": 0.8267716535433071
        },
        {
          "duration": 0.0810809999999833,
          "durationTicks": 24,
          "midi": 66,
          "name": "F#4",
          "ticks": 42528,
          "time": 143.675532,
          "velocity": 0.8267716535433071
        },
        {
          "duration": 0.08108100000001173,
          "durationTicks": 24,
          "midi": 69,
          "name": "A4",
          "ticks": 42552,
          "time": 143.756613,
          "velocity": 0.8267716535433071
        },
        {
          "duration": 0.08108100000001173,
          "durationTicks": 24,
          "midi": 73,
          "name": "C#5",
          "ticks": 42576,
          "time": 143.837694,
          "velocity": 0.8267716535433071
        },
        {
          "duration": 0.0810809999999833,
          "durationTicks": 24,
          "midi": 74,
          "name": "D5",
          "ticks": 42600,
          "time": 143.918775,
          "velocity": 0.8267716535433071
        },
        {
          "duration": 0.08108100000001173,
          "durationTicks": 24,
          "midi": 76,
          "name": "E5",
          "ticks": 42624,
          "time": 143.999856,
          "velocity": 0.8267716535433071
        },
        {
          "duration": 0.16216199999999503,
          "durationTicks": 48,
          "midi": 78,
          "name": "F#5",
          "ticks": 42648,
          "time": 144.080937,
          "velocity": 0.8267716535433071
        },
        {
          "duration": 0.08108100000001173,
          "durationTicks": 24,
          "midi": 76,
          "name": "E5",
          "ticks": 42696,
          "time": 144.243099,
          "velocity": 0.8267716535433071
        },
        {
          "duration": 0.0810809999999833,
          "durationTicks": 24,
          "midi": 81,
          "name": "A5",
          "ticks": 42720,
          "time": 144.32418,
          "velocity": 0.8267716535433071
        },
        {
          "duration": 0.08108100000001173,
          "durationTicks": 24,
          "midi": 78,
          "name": "F#5",
          "ticks": 42744,
          "time": 144.405261,
          "velocity": 0.8267716535433071
        },
        {
          "duration": 0.0810809999999833,
          "durationTicks": 24,
          "midi": 76,
          "name": "E5",
          "ticks": 42768,
          "time": 144.486342,
          "velocity": 0.8267716535433071
        },
        {
          "duration": 0.08108100000001173,
          "durationTicks": 24,
          "midi": 74,
          "name": "D5",
          "ticks": 42792,
          "time": 144.567423,
          "velocity": 0.8267716535433071
        },
        {
          "duration": 0.24324300000000676,
          "durationTicks": 72,
          "midi": 73,
          "name": "C#5",
          "ticks": 42816,
          "time": 144.648504,
          "velocity": 0.8267716535433071
        },
        {
          "duration": 0.24324299999997834,
          "durationTicks": 72,
          "midi": 74,
          "name": "D5",
          "ticks": 42888,
          "time": 144.891747,
          "velocity": 0.8267716535433071
        },
        {
          "duration": 0.08108100000001173,
          "durationTicks": 24,
          "midi": 74,
          "name": "D5",
          "ticks": 42960,
          "time": 145.13499,
          "velocity": 0.8267716535433071
        },
        {
          "duration": 0.08108100000001173,
          "durationTicks": 24,
          "midi": 76,
          "name": "E5",
          "ticks": 42984,
          "time": 145.216071,
          "velocity": 0.8267716535433071
        },
        {
          "duration": 0.24324299999997834,
          "durationTicks": 72,
          "midi": 78,
          "name": "F#5",
          "ticks": 43008,
          "time": 145.297152,
          "velocity": 0.8267716535433071
        },
        {
          "duration": 0.2027025000000151,
          "durationTicks": 60,
          "midi": 76,
          "name": "E5",
          "ticks": 43080,
          "time": 145.540395,
          "velocity": 0.8267716535433071
        },
        {
          "duration": 0.16216199999999503,
          "durationTicks": 48,
          "midi": 74,
          "name": "D5",
          "ticks": 43152,
          "time": 145.783638,
          "velocity": 0.8267716535433071
        },
        {
          "duration": 0.3243240000000185,
          "durationTicks": 96,
          "midi": 69,
          "name": "A4",
          "ticks": 43200,
          "time": 145.9458,
          "velocity": 0.8267716535433071
        },
        {
          "duration": 0.0810809999999833,
          "durationTicks": 24,
          "midi": 67,
          "name": "G4",
          "ticks": 43296,
          "time": 146.270124,
          "velocity": 0.8267716535433071
        },
        {
          "duration": 0.08108100000001173,
          "durationTicks": 24,
          "midi": 69,
          "name": "A4",
          "ticks": 43320,
          "time": 146.351205,
          "velocity": 0.8267716535433071
        },
        {
          "duration": 0.0810809999999833,
          "durationTicks": 24,
          "midi": 71,
          "name": "B4",
          "ticks": 43344,
          "time": 146.432286,
          "velocity": 0.8267716535433071
        },
        {
          "duration": 0.08108100000001173,
          "durationTicks": 24,
          "midi": 73,
          "name": "C#5",
          "ticks": 43368,
          "time": 146.513367,
          "velocity": 0.8267716535433071
        },
        {
          "duration": 0.24324300000000676,
          "durationTicks": 72,
          "midi": 73,
          "name": "C#5",
          "ticks": 43392,
          "time": 146.594448,
          "velocity": 0.8267716535433071
        },
        {
          "duration": 0.0810809999999833,
          "durationTicks": 24,
          "midi": 74,
          "name": "D5",
          "ticks": 43464,
          "time": 146.837691,
          "velocity": 0.8267716535433071
        },
        {
          "duration": 0.24324300000000676,
          "durationTicks": 72,
          "midi": 73,
          "name": "C#5",
          "ticks": 43488,
          "time": 146.918772,
          "velocity": 0.8267716535433071
        },
        {
          "duration": 0.08108100000001173,
          "durationTicks": 24,
          "midi": 74,
          "name": "D5",
          "ticks": 43560,
          "time": 147.162015,
          "velocity": 0.8267716535433071
        },
        {
          "duration": 0.16216199999999503,
          "durationTicks": 48,
          "midi": 76,
          "name": "E5",
          "ticks": 43632,
          "time": 147.405258,
          "velocity": 0.8267716535433071
        },
        {
          "duration": 0.16216199999999503,
          "durationTicks": 48,
          "midi": 74,
          "name": "D5",
          "ticks": 43680,
          "time": 147.56742,
          "velocity": 0.8267716535433071
        },
        {
          "duration": 0.16216199999999503,
          "durationTicks": 48,
          "midi": 76,
          "name": "E5",
          "ticks": 43728,
          "time": 147.729582,
          "velocity": 0.8267716535433071
        },
        {
          "duration": 0.08108100000001173,
          "durationTicks": 24,
          "midi": 85,
          "name": "C#6",
          "ticks": 43776,
          "time": 147.891744,
          "velocity": 0.8267716535433071
        },
        {
          "duration": 0.20270249999998668,
          "durationTicks": 60,
          "midi": 86,
          "name": "D6",
          "ticks": 43788,
          "time": 147.9322845,
          "velocity": 0.8267716535433071
        },
        {
          "duration": 0.24324300000000676,
          "durationTicks": 72,
          "midi": 85,
          "name": "C#6",
          "ticks": 43848,
          "time": 148.134987,
          "velocity": 0.8267716535433071
        },
        {
          "duration": 0.08108100000001173,
          "durationTicks": 24,
          "midi": 81,
          "name": "A5",
          "ticks": 43920,
          "time": 148.37823,
          "velocity": 0.8267716535433071
        },
        {
          "duration": 0.0810809999999833,
          "durationTicks": 24,
          "midi": 83,
          "name": "B5",
          "ticks": 43944,
          "time": 148.459311,
          "velocity": 0.8267716535433071
        },
        {
          "duration": 0.32432399999999006,
          "durationTicks": 96,
          "midi": 81,
          "name": "A5",
          "ticks": 43968,
          "time": 148.540392,
          "velocity": 0.8267716535433071
        },
        {
          "duration": 0.08108100000001173,
          "durationTicks": 24,
          "midi": 66,
          "name": "F#4",
          "ticks": 44064,
          "time": 148.864716,
          "velocity": 0.8267716535433071
        },
        {
          "duration": 0.08108100000001173,
          "durationTicks": 24,
          "midi": 69,
          "name": "A4",
          "ticks": 44088,
          "time": 148.945797,
          "velocity": 0.8267716535433071
        },
        {
          "duration": 0.0810809999999833,
          "durationTicks": 24,
          "midi": 73,
          "name": "C#5",
          "ticks": 44112,
          "time": 149.026878,
          "velocity": 0.8267716535433071
        },
        {
          "duration": 0.08108100000001173,
          "durationTicks": 24,
          "midi": 74,
          "name": "D5",
          "ticks": 44136,
          "time": 149.107959,
          "velocity": 0.8267716535433071
        },
        {
          "duration": 0.0810809999999833,
          "durationTicks": 24,
          "midi": 76,
          "name": "E5",
          "ticks": 44160,
          "time": 149.18904,
          "velocity": 0.8267716535433071
        },
        {
          "duration": 0.16216200000002345,
          "durationTicks": 48,
          "midi": 78,
          "name": "F#5",
          "ticks": 44184,
          "time": 149.270121,
          "velocity": 0.8267716535433071
        },
        {
          "duration": 0.0810809999999833,
          "durationTicks": 24,
          "midi": 76,
          "name": "E5",
          "ticks": 44232,
          "time": 149.432283,
          "velocity": 0.8267716535433071
        },
        {
          "duration": 0.08108100000001173,
          "durationTicks": 24,
          "midi": 81,
          "name": "A5",
          "ticks": 44256,
          "time": 149.513364,
          "velocity": 0.8267716535433071
        },
        {
          "duration": 0.0810809999999833,
          "durationTicks": 24,
          "midi": 78,
          "name": "F#5",
          "ticks": 44280,
          "time": 149.594445,
          "velocity": 0.8267716535433071
        },
        {
          "duration": 0.08108100000001173,
          "durationTicks": 24,
          "midi": 76,
          "name": "E5",
          "ticks": 44304,
          "time": 149.675526,
          "velocity": 0.8267716535433071
        },
        {
          "duration": 0.08108100000001173,
          "durationTicks": 24,
          "midi": 74,
          "name": "D5",
          "ticks": 44328,
          "time": 149.756607,
          "velocity": 0.8267716535433071
        },
        {
          "duration": 0.24324299999997834,
          "durationTicks": 72,
          "midi": 73,
          "name": "C#5",
          "ticks": 44352,
          "time": 149.837688,
          "velocity": 0.8267716535433071
        },
        {
          "duration": 0.24324300000000676,
          "durationTicks": 72,
          "midi": 74,
          "name": "D5",
          "ticks": 44424,
          "time": 150.080931,
          "velocity": 0.8267716535433071
        },
        {
          "duration": 0.08108100000001173,
          "durationTicks": 24,
          "midi": 74,
          "name": "D5",
          "ticks": 44496,
          "time": 150.324174,
          "velocity": 0.8267716535433071
        },
        {
          "duration": 0.16216199999999503,
          "durationTicks": 48,
          "midi": 86,
          "name": "D6",
          "ticks": 44544,
          "time": 150.486336,
          "velocity": 0.8267716535433071
        },
        {
          "duration": 0.16216199999999503,
          "durationTicks": 48,
          "midi": 83,
          "name": "B5",
          "ticks": 44544,
          "time": 150.486336,
          "velocity": 0.7086614173228346
        },
        {
          "duration": 0.16216200000002345,
          "durationTicks": 48,
          "midi": 88,
          "name": "E6",
          "ticks": 44592,
          "time": 150.648498,
          "velocity": 0.8267716535433071
        },
        {
          "duration": 0.16216200000002345,
          "durationTicks": 48,
          "midi": 85,
          "name": "C#6",
          "ticks": 44592,
          "time": 150.648498,
          "velocity": 0.7086614173228346
        },
        {
          "duration": 0.16216199999999503,
          "durationTicks": 48,
          "midi": 83,
          "name": "B5",
          "ticks": 44640,
          "time": 150.81066,
          "velocity": 0.7086614173228346
        },
        {
          "duration": 0.16216199999999503,
          "durationTicks": 48,
          "midi": 86,
          "name": "D6",
          "ticks": 44640,
          "time": 150.81066,
          "velocity": 0.8267716535433071
        },
        {
          "duration": 0.16216200000002345,
          "durationTicks": 48,
          "midi": 85,
          "name": "C#6",
          "ticks": 44712,
          "time": 151.053903,
          "velocity": 0.8267716535433071
        },
        {
          "duration": 0.16216200000002345,
          "durationTicks": 48,
          "midi": 81,
          "name": "A5",
          "ticks": 44712,
          "time": 151.053903,
          "velocity": 0.7086614173228346
        },
        {
          "duration": 0.16216199999999503,
          "durationTicks": 48,
          "midi": 78,
          "name": "F#5",
          "ticks": 44784,
          "time": 151.297146,
          "velocity": 0.7086614173228346
        },
        {
          "duration": 0.16216199999999503,
          "durationTicks": 48,
          "midi": 81,
          "name": "A5",
          "ticks": 44784,
          "time": 151.297146,
          "velocity": 0.8267716535433071
        },
        {
          "duration": 0.16216199999999503,
          "durationTicks": 48,
          "midi": 73,
          "name": "C#5",
          "ticks": 44832,
          "time": 151.459308,
          "velocity": 0.7086614173228346
        },
        {
          "duration": 0.16216199999999503,
          "durationTicks": 48,
          "midi": 76,
          "name": "E5",
          "ticks": 44832,
          "time": 151.459308,
          "velocity": 0.8267716535433071
        },
        {
          "duration": 0.16216199999999503,
          "durationTicks": 48,
          "midi": 69,
          "name": "A4",
          "ticks": 44904,
          "time": 151.702551,
          "velocity": 0.8267716535433071
        },
        {
          "duration": 0.16216199999999503,
          "durationTicks": 48,
          "midi": 66,
          "name": "F#4",
          "ticks": 44904,
          "time": 151.702551,
          "velocity": 0.7086614173228346
        },
        {
          "duration": 0.16216199999999503,
          "durationTicks": 48,
          "midi": 71,
          "name": "B4",
          "ticks": 44976,
          "time": 151.945794,
          "velocity": 0.8267716535433071
        },
        {
          "duration": 0.16216199999999503,
          "durationTicks": 48,
          "midi": 73,
          "name": "C#5",
          "ticks": 45024,
          "time": 152.107956,
          "velocity": 0.8267716535433071
        },
        {
          "duration": 0.16216199999999503,
          "durationTicks": 48,
          "midi": 74,
          "name": "D5",
          "ticks": 45096,
          "time": 152.351199,
          "velocity": 0.8267716535433071
        },
        {
          "duration": 0.16216200000002345,
          "durationTicks": 48,
          "midi": 76,
          "name": "E5",
          "ticks": 45168,
          "time": 152.594442,
          "velocity": 0.8267716535433071
        },
        {
          "duration": 0.16216199999999503,
          "durationTicks": 48,
          "midi": 74,
          "name": "D5",
          "ticks": 45216,
          "time": 152.756604,
          "velocity": 0.8267716535433071
        },
        {
          "duration": 0.16216199999999503,
          "durationTicks": 48,
          "midi": 76,
          "name": "E5",
          "ticks": 45264,
          "time": 152.918766,
          "velocity": 0.8267716535433071
        }
      ],
      "endOfTrackTicks": 46086
    },
    {
      "channel": 14,
      "controlChanges": {
        "6": [
          {
            "number": 6,
            "ticks": 0,
            "time": 0,
            "value": 0.09448818897637795
          },
          {
            "number": 6,
            "ticks": 0,
            "time": 0,
            "value": 0.09448818897637795
          },
          {
            "number": 6,
            "ticks": 0,
            "time": 0,
            "value": 0.09448818897637795
          },
          {
            "number": 6,
            "ticks": 46084,
            "time": 155.6890335,
            "value": 0.09448818897637795
          },
          {
            "number": 6,
            "ticks": 46086,
            "time": 155.69579025,
            "value": 0.09448818897637795
          }
        ],
        "7": [
          {
            "number": 7,
            "ticks": 0,
            "time": 0,
            "value": 0.7874015748031497
          },
          {
            "number": 7,
            "ticks": 0,
            "time": 0,
            "value": 0.7874015748031497
          },
          {
            "number": 7,
            "ticks": 0,
            "time": 0,
            "value": 0.7874015748031497
          },
          {
            "number": 7,
            "ticks": 0,
            "time": 0,
            "value": 0.7874015748031497
          },
          {
            "number": 7,
            "ticks": 0,
            "time": 0,
            "value": 0.7874015748031497
          },
          {
            "number": 7,
            "ticks": 46084,
            "time": 155.6890335,
            "value": 0.7874015748031497
          },
          {
            "number": 7,
            "ticks": 46085,
            "time": 155.692411875,
            "value": 0.7874015748031497
          },
          {
            "number": 7,
            "ticks": 46086,
            "time": 155.69579025,
            "value": 0.7874015748031497
          }
        ],
        "10": [
          {
            "number": 10,
            "ticks": 0,
            "time": 0,
            "value": 0.5039370078740157
          },
          {
            "number": 10,
            "ticks": 0,
            "time": 0,
            "value": 0.5039370078740157
          },
          {
            "number": 10,
            "ticks": 0,
            "time": 0,
            "value": 0.5039370078740157
          },
          {
            "number": 10,
            "ticks": 0,
            "time": 0,
            "value": 0.5039370078740157
          },
          {
            "number": 10,
            "ticks": 46084,
            "time": 155.6890335,
            "value": 0.5039370078740157
          },
          {
            "number": 10,
            "ticks": 46086,
            "time": 155.69579025,
            "value": 0.5039370078740157
          }
        ],
        "100": [
          {
            "number": 100,
            "ticks": 0,
            "time": 0,
            "value": 0
          },
          {
            "number": 100,
            "ticks": 0,
            "time": 0,
            "value": 0
          },
          {
            "number": 100,
            "ticks": 0,
            "time": 0,
            "value": 0
          },
          {
            "number": 100,
            "ticks": 46084,
            "time": 155.6890335,
            "value": 0
          },
          {
            "number": 100,
            "ticks": 46086,
            "time": 155.69579025,
            "value": 0
          }
        ],
        "101": [
          {
            "number": 101,
            "ticks": 0,
            "time": 0,
            "value": 0
          },
          {
            "number": 101,
            "ticks": 0,
            "time": 0,
            "value": 0
          },
          {
            "number": 101,
            "ticks": 0,
            "time": 0,
            "value": 0
          },
          {
            "number": 101,
            "ticks": 46084,
            "time": 155.6890335,
            "value": 0
          },
          {
            "number": 101,
            "ticks": 46086,
            "time": 155.69579025,
            "value": 0
          }
        ]
      },
      "pitchBends": [
        {
          "ticks": 0,
          "time": 0,
          "value": 0
        },
        {
          "ticks": 0,
          "time": 0,
          "value": 0
        },
        {
          "ticks": 0,
          "time": 0,
          "value": 0
        },
        {
          "ticks": 0,
          "time": 0,
          "value": 0
        },
        {
          "ticks": 46084,
          "time": 155.6890335,
          "value": 0
        },
        {
          "ticks": 46086,
          "time": 155.69579025,
          "value": 0
        }
      ],
      "instrument": {
        "family": "piano",
        "number": 0,
        "name": "acoustic grand piano"
      },
      "name": "Bass",
      "notes": [
        {
          "duration": 0.32432399999999983,
          "durationTicks": 96,
          "midi": 37,
          "name": "C#2",
          "ticks": 672,
          "time": 2.270268,
          "velocity": 0.7874015748031497
        },
        {
          "duration": 0.04054050000000009,
          "durationTicks": 12,
          "midi": 36,
          "name": "C2",
          "ticks": 684,
          "time": 2.3108085,
          "velocity": 0.6850393700787402
        },
        {
          "duration": 0.04054050000000009,
          "durationTicks": 12,
          "midi": 35,
          "name": "B1",
          "ticks": 696,
          "time": 2.351349,
          "velocity": 0.5984251968503937
        },
        {
          "duration": 0.04054050000000009,
          "durationTicks": 12,
          "midi": 34,
          "name": "A#1",
          "ticks": 708,
          "time": 2.3918895,
          "velocity": 0.5118110236220472
        },
        {
          "duration": 0.04054050000000009,
          "durationTicks": 12,
          "midi": 33,
          "name": "A1",
          "ticks": 720,
          "time": 2.43243,
          "velocity": 0.4330708661417323
        },
        {
          "duration": 0.040540499999999646,
          "durationTicks": 12,
          "midi": 32,
          "name": "G#1",
          "ticks": 732,
          "time": 2.4729705,
          "velocity": 0.3464566929133858
        },
        {
          "duration": 0.04054050000000009,
          "durationTicks": 12,
          "midi": 31,
          "name": "G1",
          "ticks": 744,
          "time": 2.513511,
          "velocity": 0.25984251968503935
        },
        {
          "duration": 0.04054050000000009,
          "durationTicks": 12,
          "midi": 30,
          "name": "F#1",
          "ticks": 756,
          "time": 2.5540515,
          "velocity": 0.18110236220472442
        },
        {
          "duration": 1.2972959999999998,
          "durationTicks": 384,
          "midi": 42,
          "name": "F#2",
          "ticks": 768,
          "time": 2.594592,
          "velocity": 0.7874015748031497
        },
        {
          "duration": 1.2972960000000002,
          "durationTicks": 384,
          "midi": 41,
          "name": "F2",
          "ticks": 1152,
          "time": 3.891888,
          "velocity": 0.7874015748031497
        },
        {
          "duration": 1.2972960000000002,
          "durationTicks": 384,
          "midi": 46,
          "name": "A#2",
          "ticks": 1536,
          "time": 5.189184,
          "velocity": 0.7874015748031497
        },
        {
          "duration": 0.6486479999999997,
          "durationTicks": 192,
          "midi": 44,
          "name": "G#2",
          "ticks": 1920,
          "time": 6.48648,
          "velocity": 0.7874015748031497
        },
        {
          "duration": 0.6486479999999997,
          "durationTicks": 192,
          "midi": 37,
          "name": "C#2",
          "ticks": 2112,
          "time": 7.135128,
          "velocity": 0.7874015748031497
        },
        {
          "duration": 1.2972960000000011,
          "durationTicks": 384,
          "midi": 42,
          "name": "F#2",
          "ticks": 2304,
          "time": 7.783776,
          "velocity": 0.7874015748031497
        },
        {
          "duration": 1.2972959999999993,
          "durationTicks": 384,
          "midi": 41,
          "name": "F2",
          "ticks": 2688,
          "time": 9.081072,
          "velocity": 0.7874015748031497
        },
        {
          "duration": 1.2972959999999993,
          "durationTicks": 384,
          "midi": 46,
          "name": "A#2",
          "ticks": 3072,
          "time": 10.378368,
          "velocity": 0.7874015748031497
        },
        {
          "duration": 0.6486480000000014,
          "durationTicks": 192,
          "midi": 44,
          "name": "G#2",
          "ticks": 3456,
          "time": 11.675664,
          "velocity": 0.7874015748031497
        },
        {
          "duration": 0.6486479999999997,
          "durationTicks": 192,
          "midi": 37,
          "name": "C#2",
          "ticks": 3648,
          "time": 12.324312,
          "velocity": 0.7874015748031497
        },
        {
          "duration": 0.16216200000000036,
          "durationTicks": 48,
          "midi": 42,
          "name": "F#2",
          "ticks": 3960,
          "time": 13.378365,
          "velocity": 0.7874015748031497
        },
        {
          "duration": 0.16216200000000036,
          "durationTicks": 48,
          "midi": 42,
          "name": "F#2",
          "ticks": 4032,
          "time": 13.621608,
          "velocity": 0.7874015748031497
        },
        {
          "duration": 0.3243240000000007,
          "durationTicks": 96,
          "midi": 42,
          "name": "F#2",
          "ticks": 4104,
          "time": 13.864851,
          "velocity": 0.7874015748031497
        },
        {
          "duration": 0.16216200000000036,
          "durationTicks": 48,
          "midi": 44,
          "name": "G#2",
          "ticks": 4272,
          "time": 14.432418,
          "velocity": 0.7874015748031497
        },
        {
          "duration": 0.16216200000000036,
          "durationTicks": 48,
          "midi": 44,
          "name": "G#2",
          "ticks": 4344,
          "time": 14.675661,
          "velocity": 0.7874015748031497
        },
        {
          "duration": 0.16216200000000036,
          "durationTicks": 48,
          "midi": 44,
          "name": "G#2",
          "ticks": 4416,
          "time": 14.918904,
          "velocity": 0.7874015748031497
        },
        {
          "duration": 0.40540499999999824,
          "durationTicks": 120,
          "midi": 44,
          "name": "G#2",
          "ticks": 4488,
          "time": 15.162147000000001,
          "velocity": 0.7874015748031497
        },
        {
          "duration": 0.16216200000000036,
          "durationTicks": 48,
          "midi": 45,
          "name": "A2",
          "ticks": 4728,
          "time": 15.972957,
          "velocity": 0.7874015748031497
        },
        {
          "duration": 0.16216199999999859,
          "durationTicks": 48,
          "midi": 45,
          "name": "A2",
          "ticks": 4800,
          "time": 16.2162,
          "velocity": 0.7874015748031497
        },
        {
          "duration": 0.3243240000000007,
          "durationTicks": 96,
          "midi": 45,
          "name": "A2",
          "ticks": 4872,
          "time": 16.459443,
          "velocity": 0.7874015748031497
        },
        {
          "duration": 0.16216199999999859,
          "durationTicks": 48,
          "midi": 46,
          "name": "A#2",
          "ticks": 5040,
          "time": 17.02701,
          "velocity": 0.7874015748031497
        },
        {
          "duration": 0.16216199999999859,
          "durationTicks": 48,
          "midi": 46,
          "name": "A#2",
          "ticks": 5112,
          "time": 17.270253,
          "velocity": 0.7874015748031497
        },
        {
          "duration": 0.16216199999999859,
          "durationTicks": 48,
          "midi": 46,
          "name": "A#2",
          "ticks": 5184,
          "time": 17.513496,
          "velocity": 0.7874015748031497
        },
        {
          "duration": 0.4054050000000018,
          "durationTicks": 120,
          "midi": 46,
          "name": "A#2",
          "ticks": 5256,
          "time": 17.756739,
          "velocity": 0.7874015748031497
        },
        {
          "duration": 0.12162149999999983,
          "durationTicks": 36,
          "midi": 42,
          "name": "F#2",
          "ticks": 5496,
          "time": 18.567549,
          "velocity": 0.7874015748031497
        },
        {
          "duration": 0.2027025000000009,
          "durationTicks": 60,
          "midi": 42,
          "name": "F#2",
          "ticks": 5568,
          "time": 18.810792,
          "velocity": 0.7874015748031497
        },
        {
          "duration": 0.3243240000000007,
          "durationTicks": 96,
          "midi": 42,
          "name": "F#2",
          "ticks": 5640,
          "time": 19.054035,
          "velocity": 0.7874015748031497
        },
        {
          "duration": 0.16216200000000214,
          "durationTicks": 48,
          "midi": 44,
          "name": "G#2",
          "ticks": 5808,
          "time": 19.621602,
          "velocity": 0.7874015748031497
        },
        {
          "duration": 0.16216200000000214,
          "durationTicks": 48,
          "midi": 44,
          "name": "G#2",
          "ticks": 5880,
          "time": 19.864845,
          "velocity": 0.7874015748031497
        },
        {
          "duration": 0.16216200000000214,
          "durationTicks": 48,
          "midi": 44,
          "name": "G#2",
          "ticks": 5952,
          "time": 20.108088,
          "velocity": 0.7874015748031497
        },
        {
          "duration": 0.40540499999999824,
          "durationTicks": 120,
          "midi": 44,
          "name": "G#2",
          "ticks": 6024,
          "time": 20.351331000000002,
          "velocity": 0.7874015748031497
        },
        {
          "duration": 0.16216200000000214,
          "durationTicks": 48,
          "midi": 45,
          "name": "A2",
          "ticks": 6192,
          "time": 20.918898,
          "velocity": 0.7874015748031497
        },
        {
          "duration": 0.16216200000000214,
          "durationTicks": 48,
          "midi": 45,
          "name": "A2",
          "ticks": 6264,
          "time": 21.162141,
          "velocity": 0.7874015748031497
        },
        {
          "duration": 0.16216199999999859,
          "durationTicks": 48,
          "midi": 45,
          "name": "A2",
          "ticks": 6336,
          "time": 21.405384,
          "velocity": 0.7874015748031497
        },
        {
          "duration": 0.16216199999999859,
          "durationTicks": 48,
          "midi": 45,
          "name": "A2",
          "ticks": 6408,
          "time": 21.648627,
          "velocity": 0.7874015748031497
        },
        {
          "duration": 0.16216199999999859,
          "durationTicks": 48,
          "midi": 46,
          "name": "A#2",
          "ticks": 6480,
          "time": 21.89187,
          "velocity": 0.7874015748031497
        },
        {
          "duration": 0.16216200000000214,
          "durationTicks": 48,
          "midi": 46,
          "name": "A#2",
          "ticks": 6672,
          "time": 22.540518,
          "velocity": 0.7874015748031497
        },
        {
          "duration": 0.16216199999999859,
          "durationTicks": 48,
          "midi": 42,
          "name": "F#2",
          "ticks": 7032,
          "time": 23.756733,
          "velocity": 0.7874015748031497
        },
        {
          "duration": 0.16216199999999859,
          "durationTicks": 48,
          "midi": 42,
          "name": "F#2",
          "ticks": 7104,
          "time": 23.999976,
          "velocity": 0.7874015748031497
        },
        {
          "duration": 0.3243240000000007,
          "durationTicks": 96,
          "midi": 42,
          "name": "F#2",
          "ticks": 7176,
          "time": 24.243219,
          "velocity": 0.7874015748031497
        },
        {
          "duration": 0.16216199999999859,
          "durationTicks": 48,
          "midi": 44,
          "name": "G#2",
          "ticks": 7344,
          "time": 24.810786,
          "velocity": 0.7874015748031497
        },
        {
          "duration": 0.16216199999999859,
          "durationTicks": 48,
          "midi": 44,
          "name": "G#2",
          "ticks": 7416,
          "time": 25.054029,
          "velocity": 0.7874015748031497
        },
        {
          "duration": 0.16216200000000214,
          "durationTicks": 48,
          "midi": 44,
          "name": "G#2",
          "ticks": 7488,
          "time": 25.297272,
          "velocity": 0.7874015748031497
        },
        {
          "duration": 0.4054050000000018,
          "durationTicks": 120,
          "midi": 44,
          "name": "G#2",
          "ticks": 7560,
          "time": 25.540515,
          "velocity": 0.7874015748031497
        },
        {
          "duration": 0.16216200000000214,
          "durationTicks": 48,
          "midi": 45,
          "name": "A2",
          "ticks": 7800,
          "time": 26.351325,
          "velocity": 0.7874015748031497
        },
        {
          "duration": 0.16216200000000214,
          "durationTicks": 48,
          "midi": 45,
          "name": "A2",
          "ticks": 7872,
          "time": 26.594568,
          "velocity": 0.7874015748031497
        },
        {
          "duration": 0.3243240000000007,
          "durationTicks": 96,
          "midi": 45,
          "name": "A2",
          "ticks": 7944,
          "time": 26.837811,
          "velocity": 0.7874015748031497
        },
        {
          "duration": 0.16216200000000214,
          "durationTicks": 48,
          "midi": 46,
          "name": "A#2",
          "ticks": 8112,
          "time": 27.405378,
          "velocity": 0.7874015748031497
        },
        {
          "duration": 0.16216200000000214,
          "durationTicks": 48,
          "midi": 46,
          "name": "A#2",
          "ticks": 8184,
          "time": 27.648621,
          "velocity": 0.7874015748031497
        },
        {
          "duration": 0.16216199999999859,
          "durationTicks": 48,
          "midi": 46,
          "name": "A#2",
          "ticks": 8256,
          "time": 27.891864,
          "velocity": 0.7874015748031497
        },
        {
          "duration": 0.40540499999999824,
          "durationTicks": 120,
          "midi": 46,
          "name": "A#2",
          "ticks": 8328,
          "time": 28.135107,
          "velocity": 0.7874015748031497
        },
        {
          "duration": 0.12162149999999983,
          "durationTicks": 36,
          "midi": 42,
          "name": "F#2",
          "ticks": 8568,
          "time": 28.945917,
          "velocity": 0.7874015748031497
        },
        {
          "duration": 0.20270249999999734,
          "durationTicks": 60,
          "midi": 42,
          "name": "F#2",
          "ticks": 8640,
          "time": 29.18916,
          "velocity": 0.7874015748031497
        },
        {
          "duration": 0.3243240000000007,
          "durationTicks": 96,
          "midi": 42,
          "name": "F#2",
          "ticks": 8712,
          "time": 29.432403,
          "velocity": 0.7874015748031497
        },
        {
          "duration": 0.16216199999999859,
          "durationTicks": 48,
          "midi": 44,
          "name": "G#2",
          "ticks": 8880,
          "time": 29.99997,
          "velocity": 0.7874015748031497
        },
        {
          "duration": 0.16216199999999859,
          "durationTicks": 48,
          "midi": 44,
          "name": "G#2",
          "ticks": 8952,
          "time": 30.243213,
          "velocity": 0.7874015748031497
        },
        {
          "duration": 0.16216199999999859,
          "durationTicks": 48,
          "midi": 44,
          "name": "G#2",
          "ticks": 9024,
          "time": 30.486456,
          "velocity": 0.7874015748031497
        },
        {
          "duration": 0.40540499999999824,
          "durationTicks": 120,
          "midi": 44,
          "name": "G#2",
          "ticks": 9096,
          "time": 30.729699,
          "velocity": 0.7874015748031497
        },
        {
          "duration": 0.12162149999999983,
          "durationTicks": 36,
          "midi": 45,
          "name": "A2",
          "ticks": 9336,
          "time": 31.540509,
          "velocity": 0.7874015748031497
        },
        {
          "duration": 0.2027025000000009,
          "durationTicks": 60,
          "midi": 45,
          "name": "A2",
          "ticks": 9408,
          "time": 31.783752,
          "velocity": 0.7874015748031497
        },
        {
          "duration": 0.32432399999999717,
          "durationTicks": 96,
          "midi": 45,
          "name": "A2",
          "ticks": 9480,
          "time": 32.026995,
          "velocity": 0.7874015748031497
        },
        {
          "duration": 0.16216199999999503,
          "durationTicks": 48,
          "midi": 46,
          "name": "A#2",
          "ticks": 9648,
          "time": 32.594562,
          "velocity": 0.7874015748031497
        },
        {
          "duration": 0.16216199999999503,
          "durationTicks": 48,
          "midi": 46,
          "name": "A#2",
          "ticks": 9720,
          "time": 32.837805,
          "velocity": 0.7874015748031497
        },
        {
          "duration": 0.16216199999999503,
          "durationTicks": 48,
          "midi": 46,
          "name": "A#2",
          "ticks": 9792,
          "time": 33.081048,
          "velocity": 0.7874015748031497
        },
        {
          "duration": 0.4054049999999947,
          "durationTicks": 120,
          "midi": 46,
          "name": "A#2",
          "ticks": 9864,
          "time": 33.324291,
          "velocity": 0.7874015748031497
        },
        {
          "duration": 1.297296000000003,
          "durationTicks": 384,
          "midi": 42,
          "name": "F#2",
          "ticks": 9984,
          "time": 33.729696,
          "velocity": 0.7874015748031497
        },
        {
          "duration": 1.297296000000003,
          "durationTicks": 384,
          "midi": 41,
          "name": "F2",
          "ticks": 10368,
          "time": 35.026992,
          "velocity": 0.7874015748031497
        },
        {
          "duration": 1.2972959999999958,
          "durationTicks": 384,
          "midi": 39,
          "name": "D#2",
          "ticks": 10752,
          "time": 36.324288,
          "velocity": 0.7874015748031497
        },
        {
          "duration": 1.297296000000003,
          "durationTicks": 384,
          "midi": 41,
          "name": "F2",
          "ticks": 11136,
          "time": 37.621584,
          "velocity": 0.7874015748031497
        },
        {
          "duration": 1.2972959999999958,
          "durationTicks": 384,
          "midi": 42,
          "name": "F#2",
          "ticks": 11520,
          "time": 38.91888,
          "velocity": 0.7874015748031497
        },
        {
          "duration": 1.297296000000003,
          "durationTicks": 384,
          "midi": 41,
          "name": "F2",
          "ticks": 11904,
          "time": 40.216176,
          "velocity": 0.7874015748031497
        },
        {
          "duration": 1.297296000000003,
          "durationTicks": 384,
          "midi": 39,
          "name": "D#2",
          "ticks": 12288,
          "time": 41.513472,
          "velocity": 0.7874015748031497
        },
        {
          "duration": 1.297296000000003,
          "durationTicks": 384,
          "midi": 42,
          "name": "F#2",
          "ticks": 13056,
          "time": 44.108064,
          "velocity": 0.7874015748031497
        },
        {
          "duration": 1.2972959999999958,
          "durationTicks": 384,
          "midi": 41,
          "name": "F2",
          "ticks": 13440,
          "time": 45.40536,
          "velocity": 0.7874015748031497
        },
        {
          "duration": 1.297296000000003,
          "durationTicks": 384,
          "midi": 46,
          "name": "A#2",
          "ticks": 13824,
          "time": 46.702656,
          "velocity": 0.7874015748031497
        },
        {
          "duration": 0.6486480000000014,
          "durationTicks": 192,
          "midi": 44,
          "name": "G#2",
          "ticks": 14208,
          "time": 47.999952,
          "velocity": 0.7874015748031497
        },
        {
          "duration": 0.6486480000000014,
          "durationTicks": 192,
          "midi": 37,
          "name": "C#2",
          "ticks": 14400,
          "time": 48.6486,
          "velocity": 0.7874015748031497
        },
        {
          "duration": 1.2972959999999958,
          "durationTicks": 384,
          "midi": 42,
          "name": "F#2",
          "ticks": 14592,
          "time": 49.297248,
          "velocity": 0.7874015748031497
        },
        {
          "duration": 1.297296000000003,
          "durationTicks": 384,
          "midi": 41,
          "name": "F2",
          "ticks": 14976,
          "time": 50.594544,
          "velocity": 0.7874015748031497
        },
        {
          "duration": 1.2972959999999958,
          "durationTicks": 384,
          "midi": 46,
          "name": "A#2",
          "ticks": 15360,
          "time": 51.89184,
          "velocity": 0.7874015748031497
        },
        {
          "duration": 1.297296000000003,
          "durationTicks": 384,
          "midi": 39,
          "name": "D#2",
          "ticks": 15744,
          "time": 53.189136,
          "velocity": 0.7874015748031497
        },
        {
          "duration": 1.297296000000003,
          "durationTicks": 384,
          "midi": 42,
          "name": "F#2",
          "ticks": 16128,
          "time": 54.486432,
          "velocity": 0.7874015748031497
        },
        {
          "duration": 1.2972959999999958,
          "durationTicks": 384,
          "midi": 41,
          "name": "F2",
          "ticks": 16512,
          "time": 55.783728,
          "velocity": 0.7874015748031497
        },
        {
          "duration": 1.297296000000003,
          "durationTicks": 384,
          "midi": 46,
          "name": "A#2",
          "ticks": 16896,
          "time": 57.081024,
          "velocity": 0.7874015748031497
        },
        {
          "duration": 0.6486480000000014,
          "durationTicks": 192,
          "midi": 44,
          "name": "G#2",
          "ticks": 17280,
          "time": 58.37832,
          "velocity": 0.7874015748031497
        },
        {
          "duration": 0.6486479999999943,
          "durationTicks": 192,
          "midi": 37,
          "name": "C#2",
          "ticks": 17472,
          "time": 59.026968000000004,
          "velocity": 0.7874015748031497
        },
        {
          "duration": 1.297296000000003,
          "durationTicks": 384,
          "midi": 42,
          "name": "F#2",
          "ticks": 17664,
          "time": 59.675616,
          "velocity": 0.7874015748031497
        },
        {
          "duration": 1.2972959999999958,
          "durationTicks": 384,
          "midi": 41,
          "name": "F2",
          "ticks": 18048,
          "time": 60.972912,
          "velocity": 0.7874015748031497
        },
        {
          "duration": 1.297296000000003,
          "durationTicks": 384,
          "midi": 46,
          "name": "A#2",
          "ticks": 18432,
          "time": 62.270208,
          "velocity": 0.7874015748031497
        },
        {
          "duration": 0.32432399999999717,
          "durationTicks": 96,
          "midi": 46,
          "name": "A#2",
          "ticks": 18816,
          "time": 63.567504,
          "velocity": 0.7874015748031497
        },
        {
          "duration": 0.32432399999999717,
          "durationTicks": 96,
          "midi": 45,
          "name": "A2",
          "ticks": 18912,
          "time": 63.891828,
          "velocity": 0.7874015748031497
        },
        {
          "duration": 0.3243240000000043,
          "durationTicks": 96,
          "midi": 44,
          "name": "G#2",
          "ticks": 19008,
          "time": 64.216152,
          "velocity": 0.7874015748031497
        },
        {
          "duration": 0.3243240000000043,
          "durationTicks": 96,
          "midi": 43,
          "name": "G2",
          "ticks": 19104,
          "time": 64.540476,
          "velocity": 0.7874015748031497
        },
        {
          "duration": 1.297296000000003,
          "durationTicks": 384,
          "midi": 42,
          "name": "F#2",
          "ticks": 19968,
          "time": 67.459392,
          "velocity": 0.7874015748031497
        },
        {
          "duration": 1.297296000000003,
          "durationTicks": 384,
          "midi": 41,
          "name": "F2",
          "ticks": 20352,
          "time": 68.756688,
          "velocity": 0.7874015748031497
        },
        {
          "duration": 1.297296000000003,
          "durationTicks": 384,
          "midi": 46,
          "name": "A#2",
          "ticks": 20736,
          "time": 70.053984,
          "velocity": 0.7874015748031497
        },
        {
          "duration": 0.6486479999999943,
          "durationTicks": 192,
          "midi": 44,
          "name": "G#2",
          "ticks": 21120,
          "time": 71.35128,
          "velocity": 0.7874015748031497
        },
        {
          "duration": 0.6486480000000086,
          "durationTicks": 192,
          "midi": 37,
          "name": "C#2",
          "ticks": 21312,
          "time": 71.999928,
          "velocity": 0.7874015748031497
        },
        {
          "duration": 1.2972959999999887,
          "durationTicks": 384,
          "midi": 42,
          "name": "F#2",
          "ticks": 21504,
          "time": 72.648576,
          "velocity": 0.7874015748031497
        },
        {
          "duration": 1.297296000000003,
          "durationTicks": 384,
          "midi": 41,
          "name": "F2",
          "ticks": 21888,
          "time": 73.945872,
          "velocity": 0.7874015748031497
        },
        {
          "duration": 1.297296000000003,
          "durationTicks": 384,
          "midi": 46,
          "name": "A#2",
          "ticks": 22272,
          "time": 75.243168,
          "velocity": 0.7874015748031497
        },
        {
          "duration": 0.6486479999999943,
          "durationTicks": 192,
          "midi": 44,
          "name": "G#2",
          "ticks": 22656,
          "time": 76.540464,
          "velocity": 0.7874015748031497
        },
        {
          "duration": 0.6486480000000086,
          "durationTicks": 192,
          "midi": 37,
          "name": "C#2",
          "ticks": 22848,
          "time": 77.189112,
          "velocity": 0.7874015748031497
        },
        {
          "duration": 0.16216199999999503,
          "durationTicks": 48,
          "midi": 37,
          "name": "C#2",
          "ticks": 23040,
          "time": 77.83776,
          "velocity": 0.7795275590551181
        },
        {
          "duration": 0.04054049999999165,
          "durationTicks": 12,
          "midi": 36,
          "name": "C2",
          "ticks": 23048,
          "time": 77.864787,
          "velocity": 0.5039370078740157
        },
        {
          "duration": 0.040540500000005864,
          "durationTicks": 12,
          "midi": 35,
          "name": "B1",
          "ticks": 23056,
          "time": 77.891814,
          "velocity": 0.4566929133858268
        },
        {
          "duration": 0.040540500000005864,
          "durationTicks": 12,
          "midi": 34,
          "name": "A#1",
          "ticks": 23064,
          "time": 77.918841,
          "velocity": 0.41732283464566927
        },
        {
          "duration": 0.040540500000005864,
          "durationTicks": 12,
          "midi": 33,
          "name": "A1",
          "ticks": 23072,
          "time": 77.945868,
          "velocity": 0.3779527559055118
        },
        {
          "duration": 0.040540500000005864,
          "durationTicks": 12,
          "midi": 32,
          "name": "G#1",
          "ticks": 23080,
          "time": 77.972895,
          "velocity": 0.33070866141732286
        },
        {
          "duration": 0.040540500000005864,
          "durationTicks": 12,
          "midi": 31,
          "name": "G1",
          "ticks": 23088,
          "time": 77.999922,
          "velocity": 0.29133858267716534
        },
        {
          "duration": 0.040540500000005864,
          "durationTicks": 12,
          "midi": 30,
          "name": "F#1",
          "ticks": 23096,
          "time": 78.026949,
          "velocity": 0.2440944881889764
        },
        {
          "duration": 0.040540500000005864,
          "durationTicks": 12,
          "midi": 29,
          "name": "F1",
          "ticks": 23104,
          "time": 78.05397599999999,
          "velocity": 0.2047244094488189
        },
        {
          "duration": 0.040540500000005864,
          "durationTicks": 12,
          "midi": 28,
          "name": "E1",
          "ticks": 23112,
          "time": 78.081003,
          "velocity": 0.16535433070866143
        },
        {
          "duration": 0.16216200000000924,
          "durationTicks": 48,
          "midi": 37,
          "name": "C#2",
          "ticks": 23112,
          "time": 78.081003,
          "velocity": 0.7795275590551181
        },
        {
          "duration": 0.040540500000005864,
          "durationTicks": 12,
          "midi": 27,
          "name": "D#1",
          "ticks": 23120,
          "time": 78.10803,
          "velocity": 0.11811023622047244
        },
        {
          "duration": 0.04054049999999165,
          "durationTicks": 12,
          "midi": 26,
          "name": "D1",
          "ticks": 23128,
          "time": 78.135057,
          "velocity": 0.07874015748031496
        },
        {
          "duration": 0.04054049999999165,
          "durationTicks": 12,
          "midi": 25,
          "name": "C#1",
          "ticks": 23136,
          "time": 78.16208400000001,
          "velocity": 0.03937007874015748
        },
        {
          "duration": 0.16216199999999503,
          "durationTicks": 48,
          "midi": 37,
          "name": "C#2",
          "ticks": 23184,
          "time": 78.324246,
          "velocity": 0.7795275590551181
        },
        {
          "duration": 0.3243240000000043,
          "durationTicks": 96,
          "midi": 49,
          "name": "C#3",
          "ticks": 23232,
          "time": 78.486408,
          "velocity": 0.7795275590551181
        },
        {
          "duration": 0.030405375000000845,
          "durationTicks": 9,
          "midi": 48,
          "name": "C3",
          "ticks": 23280,
          "time": 78.64857,
          "velocity": 0.6062992125984252
        },
        {
          "duration": 0.023648624999992762,
          "durationTicks": 7,
          "midi": 47,
          "name": "B2",
          "ticks": 23289,
          "time": 78.67897537500001,
          "velocity": 0.5748031496062992
        },
        {
          "duration": 0.03378374999999778,
          "durationTicks": 10,
          "midi": 46,
          "name": "A#2",
          "ticks": 23296,
          "time": 78.702624,
          "velocity": 0.5590551181102362
        },
        {
          "duration": 0.023648625000006973,
          "durationTicks": 7,
          "midi": 45,
          "name": "A2",
          "ticks": 23306,
          "time": 78.73640775,
          "velocity": 0.5354330708661418
        },
        {
          "duration": 0.030405375000000845,
          "durationTicks": 9,
          "midi": 44,
          "name": "G#2",
          "ticks": 23313,
          "time": 78.760056375,
          "velocity": 0.5118110236220472
        },
        {
          "duration": 0.16216199999999503,
          "durationTicks": 48,
          "midi": 37,
          "name": "C#2",
          "ticks": 23328,
          "time": 78.810732,
          "velocity": 0.7795275590551181
        },
        {
          "duration": 0.16216199999999503,
          "durationTicks": 48,
          "midi": 37,
          "name": "C#2",
          "ticks": 23424,
          "time": 79.135056,
          "velocity": 0.7795275590551181
        },
        {
          "duration": 0.16216199999999503,
          "durationTicks": 48,
          "midi": 37,
          "name": "C#2",
          "ticks": 23496,
          "time": 79.378299,
          "velocity": 0.7795275590551181
        },
        {
          "duration": 0.16216199999999503,
          "durationTicks": 48,
          "midi": 37,
          "name": "C#2",
          "ticks": 23568,
          "time": 79.621542,
          "velocity": 0.7795275590551181
        },
        {
          "duration": 0.16216199999999503,
          "durationTicks": 48,
          "midi": 37,
          "name": "C#2",
          "ticks": 23616,
          "time": 79.783704,
          "velocity": 0.7795275590551181
        },
        {
          "duration": 0.16216200000000924,
          "durationTicks": 48,
          "midi": 49,
          "name": "C#3",
          "ticks": 23664,
          "time": 79.945866,
          "velocity": 0.7795275590551181
        },
        {
          "duration": 0.2837834999999984,
          "durationTicks": 84,
          "midi": 37,
          "name": "C#2",
          "ticks": 23712,
          "time": 80.108028,
          "velocity": 0.7795275590551181
        },
        {
          "duration": 0.16216200000000924,
          "durationTicks": 48,
          "midi": 37,
          "name": "C#2",
          "ticks": 23808,
          "time": 80.432352,
          "velocity": 0.7795275590551181
        },
        {
          "duration": 0.16216199999999503,
          "durationTicks": 48,
          "midi": 37,
          "name": "C#2",
          "ticks": 23880,
          "time": 80.675595,
          "velocity": 0.7795275590551181
        },
        {
          "duration": 0.16216200000000924,
          "durationTicks": 48,
          "midi": 37,
          "name": "C#2",
          "ticks": 23952,
          "time": 80.918838,
          "velocity": 0.7795275590551181
        },
        {
          "duration": 0.3243240000000043,
          "durationTicks": 96,
          "midi": 49,
          "name": "C#3",
          "ticks": 24000,
          "time": 81.081,
          "velocity": 0.7795275590551181
        },
        {
          "duration": 0.030405375000000845,
          "durationTicks": 9,
          "midi": 48,
          "name": "C3",
          "ticks": 24048,
          "time": 81.243162,
          "velocity": 0.6062992125984252
        },
        {
          "duration": 0.023648624999992762,
          "durationTicks": 7,
          "midi": 47,
          "name": "B2",
          "ticks": 24057,
          "time": 81.273567375,
          "velocity": 0.5748031496062992
        },
        {
          "duration": 0.03378375000001199,
          "durationTicks": 10,
          "midi": 46,
          "name": "A#2",
          "ticks": 24064,
          "time": 81.29721599999999,
          "velocity": 0.5590551181102362
        },
        {
          "duration": 0.023648624999992762,
          "durationTicks": 7,
          "midi": 45,
          "name": "A2",
          "ticks": 24074,
          "time": 81.33099975,
          "velocity": 0.5354330708661418
        },
        {
          "duration": 0.030405375000000845,
          "durationTicks": 9,
          "midi": 44,
          "name": "G#2",
          "ticks": 24081,
          "time": 81.354648375,
          "velocity": 0.5118110236220472
        },
        {
          "duration": 0.16216199999999503,
          "durationTicks": 48,
          "midi": 37,
          "name": "C#2",
          "ticks": 24096,
          "time": 81.40532400000001,
          "velocity": 0.7795275590551181
        },
        {
          "duration": 0.16216200000000924,
          "durationTicks": 48,
          "midi": 37,
          "name": "C#2",
          "ticks": 24192,
          "time": 81.729648,
          "velocity": 0.7795275590551181
        },
        {
          "duration": 0.16216199999999503,
          "durationTicks": 48,
          "midi": 37,
          "name": "C#2",
          "ticks": 24264,
          "time": 81.972891,
          "velocity": 0.7795275590551181
        },
        {
          "duration": 0.16216200000000924,
          "durationTicks": 48,
          "midi": 37,
          "name": "C#2",
          "ticks": 24336,
          "time": 82.216134,
          "velocity": 0.7795275590551181
        },
        {
          "duration": 0.16216199999999503,
          "durationTicks": 48,
          "midi": 37,
          "name": "C#2",
          "ticks": 24384,
          "time": 82.378296,
          "velocity": 0.7795275590551181
        },
        {
          "duration": 0.16216199999999503,
          "durationTicks": 48,
          "midi": 49,
          "name": "C#3",
          "ticks": 24432,
          "time": 82.540458,
          "velocity": 0.7795275590551181
        },
        {
          "duration": 0.2837834999999984,
          "durationTicks": 84,
          "midi": 37,
          "name": "C#2",
          "ticks": 24480,
          "time": 82.70262,
          "velocity": 0.7795275590551181
        },
        {
          "duration": 0.16216199999999503,
          "durationTicks": 48,
          "midi": 37,
          "name": "C#2",
          "ticks": 24576,
          "time": 83.026944,
          "velocity": 0.7795275590551181
        },
        {
          "duration": 0.16216199999999503,
          "durationTicks": 48,
          "midi": 37,
          "name": "C#2",
          "ticks": 24648,
          "time": 83.270187,
          "velocity": 0.7795275590551181
        },
        {
          "duration": 0.16216199999999503,
          "durationTicks": 48,
          "midi": 37,
          "name": "C#2",
          "ticks": 24720,
          "time": 83.51343,
          "velocity": 0.7795275590551181
        },
        {
          "duration": 0.3243240000000043,
          "durationTicks": 96,
          "midi": 49,
          "name": "C#3",
          "ticks": 24768,
          "time": 83.675592,
          "velocity": 0.7795275590551181
        },
        {
          "duration": 0.030405375000000845,
          "durationTicks": 9,
          "midi": 48,
          "name": "C3",
          "ticks": 24816,
          "time": 83.837754,
          "velocity": 0.6062992125984252
        },
        {
          "duration": 0.023648625000006973,
          "durationTicks": 7,
          "midi": 47,
          "name": "B2",
          "ticks": 24825,
          "time": 83.868159375,
          "velocity": 0.5748031496062992
        },
        {
          "duration": 0.03378374999998357,
          "durationTicks": 10,
          "midi": 46,
          "name": "A#2",
          "ticks": 24832,
          "time": 83.89180800000001,
          "velocity": 0.5590551181102362
        },
        {
          "duration": 0.023648625000006973,
          "durationTicks": 7,
          "midi": 45,
          "name": "A2",
          "ticks": 24842,
          "time": 83.92559175,
          "velocity": 0.5354330708661418
        },
        {
          "duration": 0.030405375000000845,
          "durationTicks": 9,
          "midi": 44,
          "name": "G#2",
          "ticks": 24849,
          "time": 83.949240375,
          "velocity": 0.5118110236220472
        },
        {
          "duration": 0.16216199999999503,
          "durationTicks": 48,
          "midi": 37,
          "name": "C#2",
          "ticks": 24864,
          "time": 83.999916,
          "velocity": 0.7795275590551181
        },
        {
          "duration": 0.16216199999999503,
          "durationTicks": 48,
          "midi": 37,
          "name": "C#2",
          "ticks": 24960,
          "time": 84.32424,
          "velocity": 0.7795275590551181
        },
        {
          "duration": 0.16216200000000924,
          "durationTicks": 48,
          "midi": 37,
          "name": "C#2",
          "ticks": 25032,
          "time": 84.567483,
          "velocity": 0.7795275590551181
        },
        {
          "duration": 0.16216199999999503,
          "durationTicks": 48,
          "midi": 37,
          "name": "C#2",
          "ticks": 25104,
          "time": 84.810726,
          "velocity": 0.7795275590551181
        },
        {
          "duration": 0.16216200000000924,
          "durationTicks": 48,
          "midi": 37,
          "name": "C#2",
          "ticks": 25152,
          "time": 84.972888,
          "velocity": 0.7795275590551181
        },
        {
          "duration": 0.16216199999999503,
          "durationTicks": 48,
          "midi": 49,
          "name": "C#3",
          "ticks": 25200,
          "time": 85.13505,
          "velocity": 0.7795275590551181
        },
        {
          "duration": 0.2837834999999984,
          "durationTicks": 84,
          "midi": 37,
          "name": "C#2",
          "ticks": 25248,
          "time": 85.297212,
          "velocity": 0.7795275590551181
        },
        {
          "duration": 0.16216199999999503,
          "durationTicks": 48,
          "midi": 37,
          "name": "C#2",
          "ticks": 25344,
          "time": 85.621536,
          "velocity": 0.7795275590551181
        },
        {
          "duration": 0.16216199999999503,
          "durationTicks": 48,
          "midi": 37,
          "name": "C#2",
          "ticks": 25416,
          "time": 85.864779,
          "velocity": 0.7795275590551181
        },
        {
          "duration": 0.16216199999999503,
          "durationTicks": 48,
          "midi": 37,
          "name": "C#2",
          "ticks": 25488,
          "time": 86.108022,
          "velocity": 0.7795275590551181
        },
        {
          "duration": 0.3243240000000043,
          "durationTicks": 96,
          "midi": 49,
          "name": "C#3",
          "ticks": 25536,
          "time": 86.270184,
          "velocity": 0.7795275590551181
        },
        {
          "duration": 0.030405375000000845,
          "durationTicks": 9,
          "midi": 48,
          "name": "C3",
          "ticks": 25584,
          "time": 86.432346,
          "velocity": 0.6062992125984252
        },
        {
          "duration": 0.023648625000006973,
          "durationTicks": 7,
          "midi": 47,
          "name": "B2",
          "ticks": 25593,
          "time": 86.462751375,
          "velocity": 0.5748031496062992
        },
        {
          "duration": 0.03378374999999778,
          "durationTicks": 10,
          "midi": 46,
          "name": "A#2",
          "ticks": 25600,
          "time": 86.4864,
          "velocity": 0.5590551181102362
        },
        {
          "duration": 0.023648624999992762,
          "durationTicks": 7,
          "midi": 45,
          "name": "A2",
          "ticks": 25610,
          "time": 86.52018375,
          "velocity": 0.5354330708661418
        },
        {
          "duration": 0.030405375000000845,
          "durationTicks": 9,
          "midi": 44,
          "name": "G#2",
          "ticks": 25617,
          "time": 86.543832375,
          "velocity": 0.5118110236220472
        },
        {
          "duration": 0.16216199999999503,
          "durationTicks": 48,
          "midi": 37,
          "name": "C#2",
          "ticks": 25632,
          "time": 86.594508,
          "velocity": 0.7795275590551181
        },
        {
          "duration": 0.16216200000000924,
          "durationTicks": 48,
          "midi": 37,
          "name": "C#2",
          "ticks": 25728,
          "time": 86.918832,
          "velocity": 0.7795275590551181
        },
        {
          "duration": 0.16216199999999503,
          "durationTicks": 48,
          "midi": 37,
          "name": "C#2",
          "ticks": 25800,
          "time": 87.162075,
          "velocity": 0.7795275590551181
        },
        {
          "duration": 0.16216200000000924,
          "durationTicks": 48,
          "midi": 37,
          "name": "C#2",
          "ticks": 25872,
          "time": 87.405318,
          "velocity": 0.7795275590551181
        },
        {
          "duration": 0.16216199999999503,
          "durationTicks": 48,
          "midi": 37,
          "name": "C#2",
          "ticks": 25920,
          "time": 87.56748,
          "velocity": 0.7795275590551181
        },
        {
          "duration": 0.16216199999999503,
          "durationTicks": 48,
          "midi": 49,
          "name": "C#3",
          "ticks": 25968,
          "time": 87.729642,
          "velocity": 0.7795275590551181
        },
        {
          "duration": 0.2837835000000126,
          "durationTicks": 84,
          "midi": 37,
          "name": "C#2",
          "ticks": 26016,
          "time": 87.891804,
          "velocity": 0.7795275590551181
        },
        {
          "duration": 0.16216200000000924,
          "durationTicks": 48,
          "midi": 37,
          "name": "C#2",
          "ticks": 26112,
          "time": 88.216128,
          "velocity": 0.7795275590551181
        },
        {
          "duration": 0.040540500000005864,
          "durationTicks": 12,
          "midi": 36,
          "name": "C2",
          "ticks": 26120,
          "time": 88.24315499999999,
          "velocity": 0.5039370078740157
        },
        {
          "duration": 0.040540500000005864,
          "durationTicks": 12,
          "midi": 35,
          "name": "B1",
          "ticks": 26128,
          "time": 88.270182,
          "velocity": 0.4566929133858268
        },
        {
          "duration": 0.040540500000005864,
          "durationTicks": 12,
          "midi": 34,
          "name": "A#1",
          "ticks": 26136,
          "time": 88.297209,
          "velocity": 0.41732283464566927
        },
        {
          "duration": 0.04054049999999165,
          "durationTicks": 12,
          "midi": 33,
          "name": "A1",
          "ticks": 26144,
          "time": 88.324236,
          "velocity": 0.3779527559055118
        },
        {
          "duration": 0.040540500000005864,
          "durationTicks": 12,
          "midi": 32,
          "name": "G#1",
          "ticks": 26152,
          "time": 88.351263,
          "velocity": 0.33070866141732286
        },
        {
          "duration": 0.04054049999999165,
          "durationTicks": 12,
          "midi": 31,
          "name": "G1",
          "ticks": 26160,
          "time": 88.37829,
          "velocity": 0.29133858267716534
        },
        {
          "duration": 0.04054049999999165,
          "durationTicks": 12,
          "midi": 30,
          "name": "F#1",
          "ticks": 26168,
          "time": 88.405317,
          "velocity": 0.2440944881889764
        },
        {
          "duration": 0.040540500000005864,
          "durationTicks": 12,
          "midi": 29,
          "name": "F1",
          "ticks": 26176,
          "time": 88.432344,
          "velocity": 0.2047244094488189
        },
        {
          "duration": 0.04054049999999165,
          "durationTicks": 12,
          "midi": 28,
          "name": "E1",
          "ticks": 26184,
          "time": 88.459371,
          "velocity": 0.16535433070866143
        },
        {
          "duration": 0.16216199999999503,
          "durationTicks": 48,
          "midi": 37,
          "name": "C#2",
          "ticks": 26184,
          "time": 88.459371,
          "velocity": 0.7795275590551181
        },
        {
          "duration": 0.040540500000005864,
          "durationTicks": 12,
          "midi": 27,
          "name": "D#1",
          "ticks": 26192,
          "time": 88.486398,
          "velocity": 0.11811023622047244
        },
        {
          "duration": 0.04054049999999165,
          "durationTicks": 12,
          "midi": 26,
          "name": "D1",
          "ticks": 26200,
          "time": 88.51342500000001,
          "velocity": 0.07874015748031496
        },
        {
          "duration": 0.04054049999999165,
          "durationTicks": 12,
          "midi": 25,
          "name": "C#1",
          "ticks": 26208,
          "time": 88.540452,
          "velocity": 0.03937007874015748
        },
        {
          "duration": 0.16216200000000924,
          "durationTicks": 48,
          "midi": 37,
          "name": "C#2",
          "ticks": 26256,
          "time": 88.702614,
          "velocity": 0.7795275590551181
        },
        {
          "duration": 0.32432399999999006,
          "durationTicks": 96,
          "midi": 49,
          "name": "C#3",
          "ticks": 26304,
          "time": 88.864776,
          "velocity": 0.7795275590551181
        },
        {
          "duration": 0.030405375000000845,
          "durationTicks": 9,
          "midi": 48,
          "name": "C3",
          "ticks": 26352,
          "time": 89.026938,
          "velocity": 0.6062992125984252
        },
        {
          "duration": 0.023648625000006973,
          "durationTicks": 7,
          "midi": 47,
          "name": "B2",
          "ticks": 26361,
          "time": 89.057343375,
          "velocity": 0.5748031496062992
        },
        {
          "duration": 0.03378374999998357,
          "durationTicks": 10,
          "midi": 46,
          "name": "A#2",
          "ticks": 26368,
          "time": 89.08099200000001,
          "velocity": 0.5590551181102362
        },
        {
          "duration": 0.023648625000006973,
          "durationTicks": 7,
          "midi": 45,
          "name": "A2",
          "ticks": 26378,
          "time": 89.11477574999999,
          "velocity": 0.5354330708661418
        },
        {
          "duration": 0.030405375000000845,
          "durationTicks": 9,
          "midi": 44,
          "name": "G#2",
          "ticks": 26385,
          "time": 89.138424375,
          "velocity": 0.5118110236220472
        },
        {
          "duration": 0.16216200000000924,
          "durationTicks": 48,
          "midi": 37,
          "name": "C#2",
          "ticks": 26400,
          "time": 89.1891,
          "velocity": 0.7795275590551181
        },
        {
          "duration": 0.16216199999999503,
          "durationTicks": 48,
          "midi": 37,
          "name": "C#2",
          "ticks": 26496,
          "time": 89.513424,
          "velocity": 0.7795275590551181
        },
        {
          "duration": 0.16216199999999503,
          "durationTicks": 48,
          "midi": 37,
          "name": "C#2",
          "ticks": 26568,
          "time": 89.75666700000001,
          "velocity": 0.7795275590551181
        },
        {
          "duration": 0.16216199999999503,
          "durationTicks": 48,
          "midi": 37,
          "name": "C#2",
          "ticks": 26640,
          "time": 89.99991,
          "velocity": 0.7795275590551181
        },
        {
          "duration": 0.16216200000000924,
          "durationTicks": 48,
          "midi": 37,
          "name": "C#2",
          "ticks": 26688,
          "time": 90.162072,
          "velocity": 0.7795275590551181
        },
        {
          "duration": 0.16216199999999503,
          "durationTicks": 48,
          "midi": 49,
          "name": "C#3",
          "ticks": 26736,
          "time": 90.324234,
          "velocity": 0.7795275590551181
        },
        {
          "duration": 0.2837834999999984,
          "durationTicks": 84,
          "midi": 37,
          "name": "C#2",
          "ticks": 26784,
          "time": 90.486396,
          "velocity": 0.7795275590551181
        },
        {
          "duration": 0.16216199999999503,
          "durationTicks": 48,
          "midi": 37,
          "name": "C#2",
          "ticks": 26880,
          "time": 90.81072,
          "velocity": 0.7795275590551181
        },
        {
          "duration": 0.16216200000000924,
          "durationTicks": 48,
          "midi": 37,
          "name": "C#2",
          "ticks": 26952,
          "time": 91.053963,
          "velocity": 0.7795275590551181
        },
        {
          "duration": 0.16216199999999503,
          "durationTicks": 48,
          "midi": 37,
          "name": "C#2",
          "ticks": 27024,
          "time": 91.297206,
          "velocity": 0.7795275590551181
        },
        {
          "duration": 0.3243240000000043,
          "durationTicks": 96,
          "midi": 49,
          "name": "C#3",
          "ticks": 27072,
          "time": 91.459368,
          "velocity": 0.7795275590551181
        },
        {
          "duration": 0.030405374999986634,
          "durationTicks": 9,
          "midi": 48,
          "name": "C3",
          "ticks": 27120,
          "time": 91.62153,
          "velocity": 0.6062992125984252
        },
        {
          "duration": 0.023648625000006973,
          "durationTicks": 7,
          "midi": 47,
          "name": "B2",
          "ticks": 27129,
          "time": 91.651935375,
          "velocity": 0.5748031496062992
        },
        {
          "duration": 0.03378374999999778,
          "durationTicks": 10,
          "midi": 46,
          "name": "A#2",
          "ticks": 27136,
          "time": 91.675584,
          "velocity": 0.5590551181102362
        },
        {
          "duration": 0.023648625000006973,
          "durationTicks": 7,
          "midi": 45,
          "name": "A2",
          "ticks": 27146,
          "time": 91.70936775,
          "velocity": 0.5354330708661418
        },
        {
          "duration": 0.030405375000000845,
          "durationTicks": 9,
          "midi": 44,
          "name": "G#2",
          "ticks": 27153,
          "time": 91.733016375,
          "velocity": 0.5118110236220472
        },
        {
          "duration": 0.16216199999999503,
          "durationTicks": 48,
          "midi": 37,
          "name": "C#2",
          "ticks": 27168,
          "time": 91.783692,
          "velocity": 0.7795275590551181
        },
        {
          "duration": 0.16216199999999503,
          "durationTicks": 48,
          "midi": 37,
          "name": "C#2",
          "ticks": 27264,
          "time": 92.108016,
          "velocity": 0.7795275590551181
        },
        {
          "duration": 0.16216199999999503,
          "durationTicks": 48,
          "midi": 37,
          "name": "C#2",
          "ticks": 27336,
          "time": 92.351259,
          "velocity": 0.7795275590551181
        },
        {
          "duration": 0.16216199999999503,
          "durationTicks": 48,
          "midi": 37,
          "name": "C#2",
          "ticks": 27408,
          "time": 92.594502,
          "velocity": 0.7795275590551181
        },
        {
          "duration": 0.16216199999999503,
          "durationTicks": 48,
          "midi": 37,
          "name": "C#2",
          "ticks": 27456,
          "time": 92.756664,
          "velocity": 0.7795275590551181
        },
        {
          "duration": 0.16216200000000924,
          "durationTicks": 48,
          "midi": 49,
          "name": "C#3",
          "ticks": 27504,
          "time": 92.918826,
          "velocity": 0.7795275590551181
        },
        {
          "duration": 0.2837834999999984,
          "durationTicks": 84,
          "midi": 37,
          "name": "C#2",
          "ticks": 27552,
          "time": 93.080988,
          "velocity": 0.7795275590551181
        },
        {
          "duration": 0.16216200000000924,
          "durationTicks": 48,
          "midi": 37,
          "name": "C#2",
          "ticks": 27648,
          "time": 93.405312,
          "velocity": 0.7795275590551181
        },
        {
          "duration": 0.16216199999999503,
          "durationTicks": 48,
          "midi": 37,
          "name": "C#2",
          "ticks": 27720,
          "time": 93.648555,
          "velocity": 0.7795275590551181
        },
        {
          "duration": 0.16216200000000924,
          "durationTicks": 48,
          "midi": 37,
          "name": "C#2",
          "ticks": 27792,
          "time": 93.891798,
          "velocity": 0.7795275590551181
        },
        {
          "duration": 0.32432399999999006,
          "durationTicks": 96,
          "midi": 49,
          "name": "C#3",
          "ticks": 27840,
          "time": 94.05396,
          "velocity": 0.7795275590551181
        },
        {
          "duration": 0.030405375000000845,
          "durationTicks": 9,
          "midi": 48,
          "name": "C3",
          "ticks": 27888,
          "time": 94.216122,
          "velocity": 0.6062992125984252
        },
        {
          "duration": 0.023648625000006973,
          "durationTicks": 7,
          "midi": 47,
          "name": "B2",
          "ticks": 27897,
          "time": 94.246527375,
          "velocity": 0.5748031496062992
        },
        {
          "duration": 0.03378374999998357,
          "durationTicks": 10,
          "midi": 46,
          "name": "A#2",
          "ticks": 27904,
          "time": 94.270176,
          "velocity": 0.5590551181102362
        },
        {
          "duration": 0.023648625000006973,
          "durationTicks": 7,
          "midi": 45,
          "name": "A2",
          "ticks": 27914,
          "time": 94.30395974999999,
          "velocity": 0.5354330708661418
        },
        {
          "duration": 0.030405375000000845,
          "durationTicks": 9,
          "midi": 44,
          "name": "G#2",
          "ticks": 27921,
          "time": 94.327608375,
          "velocity": 0.5118110236220472
        },
        {
          "duration": 0.16216200000000924,
          "durationTicks": 48,
          "midi": 37,
          "name": "C#2",
          "ticks": 27936,
          "time": 94.378284,
          "velocity": 0.7795275590551181
        },
        {
          "duration": 0.16216200000000924,
          "durationTicks": 48,
          "midi": 37,
          "name": "C#2",
          "ticks": 28032,
          "time": 94.702608,
          "velocity": 0.7795275590551181
        },
        {
          "duration": 0.16216199999999503,
          "durationTicks": 48,
          "midi": 37,
          "name": "C#2",
          "ticks": 28104,
          "time": 94.945851,
          "velocity": 0.7795275590551181
        },
        {
          "duration": 0.16216200000000924,
          "durationTicks": 48,
          "midi": 37,
          "name": "C#2",
          "ticks": 28176,
          "time": 95.189094,
          "velocity": 0.7795275590551181
        },
        {
          "duration": 0.16216199999999503,
          "durationTicks": 48,
          "midi": 37,
          "name": "C#2",
          "ticks": 28224,
          "time": 95.351256,
          "velocity": 0.7795275590551181
        },
        {
          "duration": 0.16216199999999503,
          "durationTicks": 48,
          "midi": 49,
          "name": "C#3",
          "ticks": 28272,
          "time": 95.513418,
          "velocity": 0.7795275590551181
        },
        {
          "duration": 0.2837834999999984,
          "durationTicks": 84,
          "midi": 37,
          "name": "C#2",
          "ticks": 28320,
          "time": 95.67558,
          "velocity": 0.7795275590551181
        },
        {
          "duration": 0.16216199999999503,
          "durationTicks": 48,
          "midi": 42,
          "name": "F#2",
          "ticks": 29184,
          "time": 98.594496,
          "velocity": 0.7795275590551181
        },
        {
          "duration": 0.08108099999999752,
          "durationTicks": 24,
          "midi": 42,
          "name": "F#2",
          "ticks": 29256,
          "time": 98.837739,
          "velocity": 0.7795275590551181
        },
        {
          "duration": 0.16216199999999503,
          "durationTicks": 48,
          "midi": 42,
          "name": "F#2",
          "ticks": 29376,
          "time": 99.243144,
          "velocity": 0.7795275590551181
        },
        {
          "duration": 0.08108100000001173,
          "durationTicks": 24,
          "midi": 42,
          "name": "F#2",
          "ticks": 29448,
          "time": 99.486387,
          "velocity": 0.7795275590551181
        },
        {
          "duration": 0.16216200000000924,
          "durationTicks": 48,
          "midi": 41,
          "name": "F2",
          "ticks": 29568,
          "time": 99.891792,
          "velocity": 0.7795275590551181
        },
        {
          "duration": 0.08108099999999752,
          "durationTicks": 24,
          "midi": 41,
          "name": "F2",
          "ticks": 29640,
          "time": 100.135035,
          "velocity": 0.7795275590551181
        },
        {
          "duration": 0.16216199999999503,
          "durationTicks": 48,
          "midi": 41,
          "name": "F2",
          "ticks": 29760,
          "time": 100.54044,
          "velocity": 0.7795275590551181
        },
        {
          "duration": 0.08108099999999752,
          "durationTicks": 24,
          "midi": 41,
          "name": "F2",
          "ticks": 29832,
          "time": 100.783683,
          "velocity": 0.7795275590551181
        },
        {
          "duration": 0.16216200000000924,
          "durationTicks": 48,
          "midi": 46,
          "name": "A#2",
          "ticks": 29952,
          "time": 101.189088,
          "velocity": 0.7795275590551181
        },
        {
          "duration": 0.08108099999999752,
          "durationTicks": 24,
          "midi": 46,
          "name": "A#2",
          "ticks": 30024,
          "time": 101.432331,
          "velocity": 0.7795275590551181
        },
        {
          "duration": 0.16216199999999503,
          "durationTicks": 48,
          "midi": 46,
          "name": "A#2",
          "ticks": 30144,
          "time": 101.837736,
          "velocity": 0.7795275590551181
        },
        {
          "duration": 0.08108099999999752,
          "durationTicks": 24,
          "midi": 46,
          "name": "A#2",
          "ticks": 30216,
          "time": 102.080979,
          "velocity": 0.7795275590551181
        },
        {
          "duration": 0.16216199999999503,
          "durationTicks": 48,
          "midi": 44,
          "name": "G#2",
          "ticks": 30336,
          "time": 102.486384,
          "velocity": 0.7795275590551181
        },
        {
          "duration": 0.08108100000001173,
          "durationTicks": 24,
          "midi": 44,
          "name": "G#2",
          "ticks": 30408,
          "time": 102.729627,
          "velocity": 0.7795275590551181
        },
        {
          "duration": 0.16216200000000924,
          "durationTicks": 48,
          "midi": 37,
          "name": "C#2",
          "ticks": 30528,
          "time": 103.135032,
          "velocity": 0.7795275590551181
        },
        {
          "duration": 0.08108099999999752,
          "durationTicks": 24,
          "midi": 37,
          "name": "C#2",
          "ticks": 30600,
          "time": 103.378275,
          "velocity": 0.7795275590551181
        },
        {
          "duration": 0.16216199999999503,
          "durationTicks": 48,
          "midi": 42,
          "name": "F#2",
          "ticks": 30720,
          "time": 103.78368,
          "velocity": 0.7795275590551181
        },
        {
          "duration": 0.08108099999999752,
          "durationTicks": 24,
          "midi": 42,
          "name": "F#2",
          "ticks": 30792,
          "time": 104.026923,
          "velocity": 0.7795275590551181
        },
        {
          "duration": 0.16216199999999503,
          "durationTicks": 48,
          "midi": 42,
          "name": "F#2",
          "ticks": 30912,
          "time": 104.432328,
          "velocity": 0.7795275590551181
        },
        {
          "duration": 0.08108099999999752,
          "durationTicks": 24,
          "midi": 42,
          "name": "F#2",
          "ticks": 30984,
          "time": 104.675571,
          "velocity": 0.7795275590551181
        },
        {
          "duration": 0.16216199999999503,
          "durationTicks": 48,
          "midi": 41,
          "name": "F2",
          "ticks": 31104,
          "time": 105.080976,
          "velocity": 0.7795275590551181
        },
        {
          "duration": 0.08108099999999752,
          "durationTicks": 24,
          "midi": 41,
          "name": "F2",
          "ticks": 31176,
          "time": 105.324219,
          "velocity": 0.7795275590551181
        },
        {
          "duration": 0.16216199999999503,
          "durationTicks": 48,
          "midi": 41,
          "name": "F2",
          "ticks": 31296,
          "time": 105.729624,
          "velocity": 0.7795275590551181
        },
        {
          "duration": 0.08108100000001173,
          "durationTicks": 24,
          "midi": 41,
          "name": "F2",
          "ticks": 31368,
          "time": 105.972867,
          "velocity": 0.7795275590551181
        },
        {
          "duration": 0.16216200000000924,
          "durationTicks": 48,
          "midi": 46,
          "name": "A#2",
          "ticks": 31488,
          "time": 106.378272,
          "velocity": 0.7795275590551181
        },
        {
          "duration": 0.08108099999999752,
          "durationTicks": 24,
          "midi": 46,
          "name": "A#2",
          "ticks": 31560,
          "time": 106.621515,
          "velocity": 0.7795275590551181
        },
        {
          "duration": 0.16216199999999503,
          "durationTicks": 48,
          "midi": 46,
          "name": "A#2",
          "ticks": 31680,
          "time": 107.02692,
          "velocity": 0.7795275590551181
        },
        {
          "duration": 0.08108099999999752,
          "durationTicks": 24,
          "midi": 46,
          "name": "A#2",
          "ticks": 31752,
          "time": 107.270163,
          "velocity": 0.7795275590551181
        },
        {
          "duration": 1.297296000000003,
          "durationTicks": 384,
          "midi": 39,
          "name": "D#2",
          "ticks": 31872,
          "time": 107.675568,
          "velocity": 0.7795275590551181
        },
        {
          "duration": 1.297296000000003,
          "durationTicks": 384,
          "midi": 42,
          "name": "F#2",
          "ticks": 32256,
          "time": 108.972864,
          "velocity": 0.7874015748031497
        },
        {
          "duration": 1.297296000000003,
          "durationTicks": 384,
          "midi": 41,
          "name": "F2",
          "ticks": 32640,
          "time": 110.27016,
          "velocity": 0.7874015748031497
        },
        {
          "duration": 1.2972959999999887,
          "durationTicks": 384,
          "midi": 46,
          "name": "A#2",
          "ticks": 33024,
          "time": 111.567456,
          "velocity": 0.7874015748031497
        },
        {
          "duration": 0.6486480000000086,
          "durationTicks": 192,
          "midi": 44,
          "name": "G#2",
          "ticks": 33408,
          "time": 112.864752,
          "velocity": 0.7874015748031497
        },
        {
          "duration": 0.6486479999999943,
          "durationTicks": 192,
          "midi": 37,
          "name": "C#2",
          "ticks": 33600,
          "time": 113.5134,
          "velocity": 0.7874015748031497
        },
        {
          "duration": 1.297296000000003,
          "durationTicks": 384,
          "midi": 42,
          "name": "F#2",
          "ticks": 33792,
          "time": 114.162048,
          "velocity": 0.7874015748031497
        },
        {
          "duration": 1.297296000000003,
          "durationTicks": 384,
          "midi": 41,
          "name": "F2",
          "ticks": 34176,
          "time": 115.459344,
          "velocity": 0.7874015748031497
        },
        {
          "duration": 1.297296000000003,
          "durationTicks": 384,
          "midi": 46,
          "name": "A#2",
          "ticks": 34560,
          "time": 116.75664,
          "velocity": 0.7874015748031497
        },
        {
          "duration": 0.32432399999999006,
          "durationTicks": 96,
          "midi": 46,
          "name": "A#2",
          "ticks": 34944,
          "time": 118.05393600000001,
          "velocity": 0.7874015748031497
        },
        {
          "duration": 0.3243240000000043,
          "durationTicks": 96,
          "midi": 45,
          "name": "A2",
          "ticks": 35040,
          "time": 118.37826,
          "velocity": 0.7874015748031497
        },
        {
          "duration": 0.3243240000000043,
          "durationTicks": 96,
          "midi": 44,
          "name": "G#2",
          "ticks": 35136,
          "time": 118.702584,
          "velocity": 0.7874015748031497
        },
        {
          "duration": 0.32432399999999006,
          "durationTicks": 96,
          "midi": 43,
          "name": "G2",
          "ticks": 35232,
          "time": 119.026908,
          "velocity": 0.7874015748031497
        },
        {
          "duration": 0.3243240000000043,
          "durationTicks": 96,
          "midi": 42,
          "name": "F#2",
          "ticks": 36000,
          "time": 121.6215,
          "velocity": 0.7874015748031497
        },
        {
          "duration": 0.04054049999999165,
          "durationTicks": 12,
          "midi": 41,
          "name": "F2",
          "ticks": 36012,
          "time": 121.6620405,
          "velocity": 0.6850393700787402
        },
        {
          "duration": 0.040540500000005864,
          "durationTicks": 12,
          "midi": 40,
          "name": "E2",
          "ticks": 36024,
          "time": 121.702581,
          "velocity": 0.5984251968503937
        },
        {
          "duration": 0.040540500000005864,
          "durationTicks": 12,
          "midi": 39,
          "name": "D#2",
          "ticks": 36036,
          "time": 121.7431215,
          "velocity": 0.5118110236220472
        },
        {
          "duration": 0.04054049999999165,
          "durationTicks": 12,
          "midi": 38,
          "name": "D2",
          "ticks": 36048,
          "time": 121.783662,
          "velocity": 0.4330708661417323
        },
        {
          "duration": 0.040540500000005864,
          "durationTicks": 12,
          "midi": 37,
          "name": "C#2",
          "ticks": 36060,
          "time": 121.8242025,
          "velocity": 0.3464566929133858
        },
        {
          "duration": 0.04054049999999165,
          "durationTicks": 12,
          "midi": 36,
          "name": "C2",
          "ticks": 36072,
          "time": 121.864743,
          "velocity": 0.25984251968503935
        },
        {
          "duration": 0.040540500000005864,
          "durationTicks": 12,
          "midi": 35,
          "name": "B1",
          "ticks": 36084,
          "time": 121.9052835,
          "velocity": 0.18110236220472442
        },
        {
          "duration": 1.297296000000003,
          "durationTicks": 384,
          "midi": 47,
          "name": "B2",
          "ticks": 36096,
          "time": 121.945824,
          "velocity": 0.7874015748031497
        },
        {
          "duration": 0.6486479999999943,
          "durationTicks": 192,
          "midi": 45,
          "name": "A2",
          "ticks": 36480,
          "time": 123.24312,
          "velocity": 0.7874015748031497
        },
        {
          "duration": 0.6486479999999943,
          "durationTicks": 192,
          "midi": 38,
          "name": "D2",
          "ticks": 36672,
          "time": 123.891768,
          "velocity": 0.7874015748031497
        },
        {
          "duration": 1.297296000000003,
          "durationTicks": 384,
          "midi": 43,
          "name": "G2",
          "ticks": 36864,
          "time": 124.540416,
          "velocity": 0.7874015748031497
        },
        {
          "duration": 1.297296000000003,
          "durationTicks": 384,
          "midi": 42,
          "name": "F#2",
          "ticks": 37248,
          "time": 125.837712,
          "velocity": 0.7874015748031497
        },
        {
          "duration": 1.2972959999999887,
          "durationTicks": 384,
          "midi": 47,
          "name": "B2",
          "ticks": 37632,
          "time": 127.135008,
          "velocity": 0.7874015748031497
        },
        {
          "duration": 1.297296000000017,
          "durationTicks": 384,
          "midi": 40,
          "name": "E2",
          "ticks": 38016,
          "time": 128.432304,
          "velocity": 0.7874015748031497
        },
        {
          "duration": 1.2972959999999887,
          "durationTicks": 384,
          "midi": 43,
          "name": "G2",
          "ticks": 38400,
          "time": 129.7296,
          "velocity": 0.7874015748031497
        },
        {
          "duration": 1.297296000000017,
          "durationTicks": 384,
          "midi": 42,
          "name": "F#2",
          "ticks": 38784,
          "time": 131.026896,
          "velocity": 0.7874015748031497
        },
        {
          "duration": 1.2972959999999887,
          "durationTicks": 384,
          "midi": 47,
          "name": "B2",
          "ticks": 39168,
          "time": 132.324192,
          "velocity": 0.7874015748031497
        },
        {
          "duration": 0.6486480000000086,
          "durationTicks": 192,
          "midi": 45,
          "name": "A2",
          "ticks": 39552,
          "time": 133.621488,
          "velocity": 0.7874015748031497
        },
        {
          "duration": 0.6486479999999801,
          "durationTicks": 192,
          "midi": 38,
          "name": "D2",
          "ticks": 39744,
          "time": 134.270136,
          "velocity": 0.7874015748031497
        },
        {
          "duration": 1.297296000000017,
          "durationTicks": 384,
          "midi": 43,
          "name": "G2",
          "ticks": 39936,
          "time": 134.918784,
          "velocity": 0.7874015748031497
        },
        {
          "duration": 1.2972959999999887,
          "durationTicks": 384,
          "midi": 42,
          "name": "F#2",
          "ticks": 40320,
          "time": 136.21608,
          "velocity": 0.7874015748031497
        },
        {
          "duration": 1.297296000000017,
          "durationTicks": 384,
          "midi": 47,
          "name": "B2",
          "ticks": 40704,
          "time": 137.513376,
          "velocity": 0.7874015748031497
        },
        {
          "duration": 0.32432399999999006,
          "durationTicks": 96,
          "midi": 47,
          "name": "B2",
          "ticks": 41088,
          "time": 138.810672,
          "velocity": 0.7874015748031497
        },
        {
          "duration": 0.32432399999999006,
          "durationTicks": 96,
          "midi": 46,
          "name": "A#2",
          "ticks": 41184,
          "time": 139.134996,
          "velocity": 0.7874015748031497
        },
        {
          "duration": 0.3243240000000185,
          "durationTicks": 96,
          "midi": 45,
          "name": "A2",
          "ticks": 41280,
          "time": 139.45932,
          "velocity": 0.7874015748031497
        },
        {
          "duration": 0.32432399999999006,
          "durationTicks": 96,
          "midi": 44,
          "name": "G#2",
          "ticks": 41376,
          "time": 139.783644,
          "velocity": 0.7874015748031497
        },
        {
          "duration": 1.2972959999999887,
          "durationTicks": 384,
          "midi": 43,
          "name": "G2",
          "ticks": 42240,
          "time": 142.70256,
          "velocity": 0.7874015748031497
        },
        {
          "duration": 1.297296000000017,
          "durationTicks": 384,
          "midi": 42,
          "name": "F#2",
          "ticks": 42624,
          "time": 143.999856,
          "velocity": 0.7874015748031497
        },
        {
          "duration": 1.2972959999999887,
          "durationTicks": 384,
          "midi": 47,
          "name": "B2",
          "ticks": 43008,
          "time": 145.297152,
          "velocity": 0.7874015748031497
        },
        {
          "duration": 0.6486480000000086,
          "durationTicks": 192,
          "midi": 45,
          "name": "A2",
          "ticks": 43392,
          "time": 146.594448,
          "velocity": 0.7874015748031497
        },
        {
          "duration": 0.6486479999999801,
          "durationTicks": 192,
          "midi": 38,
          "name": "D2",
          "ticks": 43584,
          "time": 147.243096,
          "velocity": 0.7874015748031497
        },
        {
          "duration": 1.297296000000017,
          "durationTicks": 384,
          "midi": 43,
          "name": "G2",
          "ticks": 43776,
          "time": 147.891744,
          "velocity": 0.7874015748031497
        },
        {
          "duration": 1.2972959999999887,
          "durationTicks": 384,
          "midi": 42,
          "name": "F#2",
          "ticks": 44160,
          "time": 149.18904,
          "velocity": 0.7874015748031497
        },
        {
          "duration": 1.297296000000017,
          "durationTicks": 384,
          "midi": 47,
          "name": "B2",
          "ticks": 44544,
          "time": 150.486336,
          "velocity": 0.7874015748031497
        },
        {
          "duration": 0.6486479999999801,
          "durationTicks": 192,
          "midi": 45,
          "name": "A2",
          "ticks": 44928,
          "time": 151.783632,
          "velocity": 0.7874015748031497
        },
        {
          "duration": 0.6486480000000086,
          "durationTicks": 192,
          "midi": 38,
          "name": "D2",
          "ticks": 45120,
          "time": 152.43228,
          "velocity": 0.7874015748031497
        },
        {
          "duration": 0.6486480000000086,
          "durationTicks": 192,
          "midi": 38,
          "name": "D2",
          "ticks": 45312,
          "time": 153.080928,
          "velocity": 0.7874015748031497
        }
      ],
      "endOfTrackTicks": 46086
    },
    {
      "channel": 15,
      "controlChanges": {
        "6": [
          {
            "number": 6,
            "ticks": 0,
            "time": 0,
            "value": 0.09448818897637795
          },
          {
            "number": 6,
            "ticks": 0,
            "time": 0,
            "value": 0.09448818897637795
          },
          {
            "number": 6,
            "ticks": 0,
            "time": 0,
            "value": 0.09448818897637795
          },
          {
            "number": 6,
            "ticks": 46084,
            "time": 155.6890335,
            "value": 0.09448818897637795
          },
          {
            "number": 6,
            "ticks": 46086,
            "time": 155.69579025,
            "value": 0.09448818897637795
          }
        ],
        "7": [
          {
            "number": 7,
            "ticks": 0,
            "time": 0,
            "value": 0.7874015748031497
          },
          {
            "number": 7,
            "ticks": 0,
            "time": 0,
            "value": 0.7874015748031497
          },
          {
            "number": 7,
            "ticks": 0,
            "time": 0,
            "value": 0.7874015748031497
          },
          {
            "number": 7,
            "ticks": 0,
            "time": 0,
            "value": 0.7874015748031497
          },
          {
            "number": 7,
            "ticks": 0,
            "time": 0,
            "value": 0.7874015748031497
          },
          {
            "number": 7,
            "ticks": 46084,
            "time": 155.6890335,
            "value": 0.7874015748031497
          },
          {
            "number": 7,
            "ticks": 46085,
            "time": 155.692411875,
            "value": 0.7874015748031497
          },
          {
            "number": 7,
            "ticks": 46086,
            "time": 155.69579025,
            "value": 0.7874015748031497
          }
        ],
        "10": [
          {
            "number": 10,
            "ticks": 0,
            "time": 0,
            "value": 0.5039370078740157
          },
          {
            "number": 10,
            "ticks": 0,
            "time": 0,
            "value": 0.5039370078740157
          },
          {
            "number": 10,
            "ticks": 0,
            "time": 0,
            "value": 0.5039370078740157
          },
          {
            "number": 10,
            "ticks": 0,
            "time": 0,
            "value": 0.5039370078740157
          },
          {
            "number": 10,
            "ticks": 46084,
            "time": 155.6890335,
            "value": 0.5039370078740157
          },
          {
            "number": 10,
            "ticks": 46086,
            "time": 155.69579025,
            "value": 0.5039370078740157
          }
        ],
        "100": [
          {
            "number": 100,
            "ticks": 0,
            "time": 0,
            "value": 0
          },
          {
            "number": 100,
            "ticks": 0,
            "time": 0,
            "value": 0
          },
          {
            "number": 100,
            "ticks": 0,
            "time": 0,
            "value": 0
          },
          {
            "number": 100,
            "ticks": 46084,
            "time": 155.6890335,
            "value": 0
          },
          {
            "number": 100,
            "ticks": 46086,
            "time": 155.69579025,
            "value": 0
          }
        ],
        "101": [
          {
            "number": 101,
            "ticks": 0,
            "time": 0,
            "value": 0
          },
          {
            "number": 101,
            "ticks": 0,
            "time": 0,
            "value": 0
          },
          {
            "number": 101,
            "ticks": 0,
            "time": 0,
            "value": 0
          },
          {
            "number": 101,
            "ticks": 46084,
            "time": 155.6890335,
            "value": 0
          },
          {
            "number": 101,
            "ticks": 46086,
            "time": 155.69579025,
            "value": 0
          }
        ]
      },
      "pitchBends": [
        {
          "ticks": 0,
          "time": 0,
          "value": 0
        },
        {
          "ticks": 0,
          "time": 0,
          "value": 0
        },
        {
          "ticks": 0,
          "time": 0,
          "value": 0
        },
        {
          "ticks": 0,
          "time": 0,
          "value": 0
        },
        {
          "ticks": 46084,
          "time": 155.6890335,
          "value": 0
        },
        {
          "ticks": 46086,
          "time": 155.69579025,
          "value": 0
        }
      ],
      "instrument": {
        "family": "piano",
        "number": 0,
        "name": "acoustic grand piano"
      },
      "name": "Drum",
      "notes": [
        {
          "duration": 0.2837835,
          "durationTicks": 84,
          "midi": 25,
          "name": "C#1",
          "ticks": 0,
          "time": 0,
          "velocity": 0.8267716535433071
        },
        {
          "duration": 0.2837835,
          "durationTicks": 84,
          "midi": 37,
          "name": "C#2",
          "ticks": 96,
          "time": 0.324324,
          "velocity": 0.8267716535433071
        },
        {
          "duration": 0.12162150000000005,
          "durationTicks": 36,
          "midi": 25,
          "name": "C#1",
          "ticks": 144,
          "time": 0.486486,
          "velocity": 0.8267716535433071
        },
        {
          "duration": 0.12162150000000005,
          "durationTicks": 36,
          "midi": 25,
          "name": "C#1",
          "ticks": 192,
          "time": 0.648648,
          "velocity": 0.8267716535433071
        },
        {
          "duration": 0.32432400000000006,
          "durationTicks": 96,
          "midi": 37,
          "name": "C#2",
          "ticks": 288,
          "time": 0.972972,
          "velocity": 0.8267716535433071
        },
        {
          "duration": 0.04054050000000009,
          "durationTicks": 12,
          "midi": 25,
          "name": "C#1",
          "ticks": 384,
          "time": 1.297296,
          "velocity": 0.8267716535433071
        },
        {
          "duration": 0.04054050000000009,
          "durationTicks": 12,
          "midi": 26,
          "name": "D1",
          "ticks": 408,
          "time": 1.378377,
          "velocity": 0.8267716535433071
        },
        {
          "duration": 0.04054050000000009,
          "durationTicks": 12,
          "midi": 27,
          "name": "D#1",
          "ticks": 432,
          "time": 1.459458,
          "velocity": 0.8267716535433071
        },
        {
          "duration": 0.04054049999999987,
          "durationTicks": 12,
          "midi": 28,
          "name": "E1",
          "ticks": 456,
          "time": 1.540539,
          "velocity": 0.8267716535433071
        },
        {
          "duration": 0.04054049999999987,
          "durationTicks": 12,
          "midi": 29,
          "name": "F1",
          "ticks": 480,
          "time": 1.62162,
          "velocity": 0.8267716535433071
        },
        {
          "duration": 0.04054050000000009,
          "durationTicks": 12,
          "midi": 30,
          "name": "F#1",
          "ticks": 504,
          "time": 1.702701,
          "velocity": 0.8267716535433071
        },
        {
          "duration": 0.04054050000000009,
          "durationTicks": 12,
          "midi": 31,
          "name": "G1",
          "ticks": 528,
          "time": 1.783782,
          "velocity": 0.8031496062992126
        },
        {
          "duration": 0.04054050000000009,
          "durationTicks": 12,
          "midi": 32,
          "name": "G#1",
          "ticks": 552,
          "time": 1.864863,
          "velocity": 0.7795275590551181
        },
        {
          "duration": 0.04054050000000009,
          "durationTicks": 12,
          "midi": 33,
          "name": "A1",
          "ticks": 576,
          "time": 1.945944,
          "velocity": 0.7637795275590551
        },
        {
          "duration": 0.04054050000000009,
          "durationTicks": 12,
          "midi": 34,
          "name": "A#1",
          "ticks": 600,
          "time": 2.027025,
          "velocity": 0.7401574803149606
        },
        {
          "duration": 0.04054050000000009,
          "durationTicks": 12,
          "midi": 35,
          "name": "B1",
          "ticks": 624,
          "time": 2.108106,
          "velocity": 0.7165354330708661
        },
        {
          "duration": 0.04054050000000009,
          "durationTicks": 12,
          "midi": 36,
          "name": "C2",
          "ticks": 648,
          "time": 2.189187,
          "velocity": 0.6929133858267716
        },
        {
          "duration": 0.040540499999999646,
          "durationTicks": 12,
          "midi": 37,
          "name": "C#2",
          "ticks": 672,
          "time": 2.270268,
          "velocity": 0.6692913385826772
        },
        {
          "duration": 0.04054050000000009,
          "durationTicks": 12,
          "midi": 38,
          "name": "D2",
          "ticks": 696,
          "time": 2.351349,
          "velocity": 0.6456692913385826
        },
        {
          "duration": 0.04054050000000009,
          "durationTicks": 12,
          "midi": 39,
          "name": "D#2",
          "ticks": 720,
          "time": 2.43243,
          "velocity": 0.6220472440944882
        },
        {
          "duration": 0.04054050000000009,
          "durationTicks": 12,
          "midi": 40,
          "name": "E2",
          "ticks": 744,
          "time": 2.513511,
          "velocity": 0.6062992125984252
        },
        {
          "duration": 0.2837835000000002,
          "durationTicks": 84,
          "midi": 30,
          "name": "F#1",
          "ticks": 768,
          "time": 2.594592,
          "velocity": 0.8267716535433071
        },
        {
          "duration": 0.2837835000000002,
          "durationTicks": 84,
          "midi": 30,
          "name": "F#1",
          "ticks": 864,
          "time": 2.918916,
          "velocity": 0.8267716535433071
        },
        {
          "duration": 0.2837835000000002,
          "durationTicks": 84,
          "midi": 42,
          "name": "F#2",
          "ticks": 864,
          "time": 2.918916,
          "velocity": 0.8267716535433071
        },
        {
          "duration": 0.28378349999999974,
          "durationTicks": 84,
          "midi": 30,
          "name": "F#1",
          "ticks": 960,
          "time": 3.24324,
          "velocity": 0.8267716535433071
        },
        {
          "duration": 0.2837835000000002,
          "durationTicks": 84,
          "midi": 30,
          "name": "F#1",
          "ticks": 1056,
          "time": 3.567564,
          "velocity": 0.8267716535433071
        },
        {
          "duration": 0.2837835000000002,
          "durationTicks": 84,
          "midi": 42,
          "name": "F#2",
          "ticks": 1056,
          "time": 3.567564,
          "velocity": 0.8267716535433071
        },
        {
          "duration": 0.2837835000000002,
          "durationTicks": 84,
          "midi": 29,
          "name": "F1",
          "ticks": 1152,
          "time": 3.891888,
          "velocity": 0.8267716535433071
        },
        {
          "duration": 0.2837835000000002,
          "durationTicks": 84,
          "midi": 41,
          "name": "F2",
          "ticks": 1248,
          "time": 4.216212,
          "velocity": 0.8267716535433071
        },
        {
          "duration": 0.2837835000000002,
          "durationTicks": 84,
          "midi": 29,
          "name": "F1",
          "ticks": 1248,
          "time": 4.216212,
          "velocity": 0.8267716535433071
        },
        {
          "duration": 0.2837834999999993,
          "durationTicks": 84,
          "midi": 29,
          "name": "F1",
          "ticks": 1344,
          "time": 4.540536,
          "velocity": 0.8267716535433071
        },
        {
          "duration": 0.2837835000000002,
          "durationTicks": 84,
          "midi": 41,
          "name": "F2",
          "ticks": 1440,
          "time": 4.86486,
          "velocity": 0.8267716535433071
        },
        {
          "duration": 0.2837835000000002,
          "durationTicks": 84,
          "midi": 29,
          "name": "F1",
          "ticks": 1440,
          "time": 4.86486,
          "velocity": 0.8267716535433071
        },
        {
          "duration": 0.2837835000000002,
          "durationTicks": 84,
          "midi": 34,
          "name": "A#1",
          "ticks": 1536,
          "time": 5.189184,
          "velocity": 0.8267716535433071
        },
        {
          "duration": 0.2837835000000002,
          "durationTicks": 84,
          "midi": 34,
          "name": "A#1",
          "ticks": 1632,
          "time": 5.513508,
          "velocity": 0.8267716535433071
        },
        {
          "duration": 0.2837835000000002,
          "durationTicks": 84,
          "midi": 46,
          "name": "A#2",
          "ticks": 1632,
          "time": 5.513508,
          "velocity": 0.8267716535433071
        },
        {
          "duration": 0.2837835000000002,
          "durationTicks": 84,
          "midi": 34,
          "name": "A#1",
          "ticks": 1728,
          "time": 5.837832,
          "velocity": 0.8267716535433071
        },
        {
          "duration": 0.2837834999999993,
          "durationTicks": 84,
          "midi": 34,
          "name": "A#1",
          "ticks": 1824,
          "time": 6.162156,
          "velocity": 0.8267716535433071
        },
        {
          "duration": 0.2837834999999993,
          "durationTicks": 84,
          "midi": 46,
          "name": "A#2",
          "ticks": 1824,
          "time": 6.162156,
          "velocity": 0.8267716535433071
        },
        {
          "duration": 0.2837835000000002,
          "durationTicks": 84,
          "midi": 32,
          "name": "G#1",
          "ticks": 1920,
          "time": 6.48648,
          "velocity": 0.8267716535433071
        },
        {
          "duration": 0.2837835000000002,
          "durationTicks": 84,
          "midi": 44,
          "name": "G#2",
          "ticks": 2016,
          "time": 6.810804,
          "velocity": 0.8267716535433071
        },
        {
          "duration": 0.2837835000000002,
          "durationTicks": 84,
          "midi": 32,
          "name": "G#1",
          "ticks": 2016,
          "time": 6.810804,
          "velocity": 0.8267716535433071
        },
        {
          "duration": 0.2837835000000002,
          "durationTicks": 84,
          "midi": 25,
          "name": "C#1",
          "ticks": 2112,
          "time": 7.135128,
          "velocity": 0.8267716535433071
        },
        {
          "duration": 0.2837835000000002,
          "durationTicks": 84,
          "midi": 37,
          "name": "C#2",
          "ticks": 2208,
          "time": 7.459452,
          "velocity": 0.8267716535433071
        },
        {
          "duration": 0.2837835000000002,
          "durationTicks": 84,
          "midi": 25,
          "name": "C#1",
          "ticks": 2208,
          "time": 7.459452,
          "velocity": 0.8267716535433071
        },
        {
          "duration": 0.2837835000000002,
          "durationTicks": 84,
          "midi": 30,
          "name": "F#1",
          "ticks": 2304,
          "time": 7.783776,
          "velocity": 0.8267716535433071
        },
        {
          "duration": 0.2837835000000002,
          "durationTicks": 84,
          "midi": 42,
          "name": "F#2",
          "ticks": 2400,
          "time": 8.1081,
          "velocity": 0.8267716535433071
        },
        {
          "duration": 0.2837835000000002,
          "durationTicks": 84,
          "midi": 30,
          "name": "F#1",
          "ticks": 2400,
          "time": 8.1081,
          "velocity": 0.8267716535433071
        },
        {
          "duration": 0.2837835000000002,
          "durationTicks": 84,
          "midi": 30,
          "name": "F#1",
          "ticks": 2496,
          "time": 8.432424,
          "velocity": 0.8267716535433071
        },
        {
          "duration": 0.2837835000000002,
          "durationTicks": 84,
          "midi": 42,
          "name": "F#2",
          "ticks": 2592,
          "time": 8.756748,
          "velocity": 0.8267716535433071
        },
        {
          "duration": 0.2837835000000002,
          "durationTicks": 84,
          "midi": 30,
          "name": "F#1",
          "ticks": 2592,
          "time": 8.756748,
          "velocity": 0.8267716535433071
        },
        {
          "duration": 0.2837835000000002,
          "durationTicks": 84,
          "midi": 29,
          "name": "F1",
          "ticks": 2688,
          "time": 9.081072,
          "velocity": 0.8267716535433071
        },
        {
          "duration": 0.2837835000000002,
          "durationTicks": 84,
          "midi": 41,
          "name": "F2",
          "ticks": 2784,
          "time": 9.405396,
          "velocity": 0.8267716535433071
        },
        {
          "duration": 0.2837835000000002,
          "durationTicks": 84,
          "midi": 29,
          "name": "F1",
          "ticks": 2784,
          "time": 9.405396,
          "velocity": 0.8267716535433071
        },
        {
          "duration": 0.2837835000000002,
          "durationTicks": 84,
          "midi": 29,
          "name": "F1",
          "ticks": 2880,
          "time": 9.72972,
          "velocity": 0.8267716535433071
        },
        {
          "duration": 0.2837835000000002,
          "durationTicks": 84,
          "midi": 29,
          "name": "F1",
          "ticks": 2976,
          "time": 10.054044,
          "velocity": 0.8267716535433071
        },
        {
          "duration": 0.2837835000000002,
          "durationTicks": 84,
          "midi": 41,
          "name": "F2",
          "ticks": 2976,
          "time": 10.054044,
          "velocity": 0.8267716535433071
        },
        {
          "duration": 0.2837835000000002,
          "durationTicks": 84,
          "midi": 34,
          "name": "A#1",
          "ticks": 3072,
          "time": 10.378368,
          "velocity": 0.8267716535433071
        },
        {
          "duration": 0.2837834999999984,
          "durationTicks": 84,
          "midi": 46,
          "name": "A#2",
          "ticks": 3168,
          "time": 10.702692,
          "velocity": 0.8267716535433071
        },
        {
          "duration": 0.2837834999999984,
          "durationTicks": 84,
          "midi": 34,
          "name": "A#1",
          "ticks": 3168,
          "time": 10.702692,
          "velocity": 0.8267716535433071
        },
        {
          "duration": 0.2837835000000002,
          "durationTicks": 84,
          "midi": 34,
          "name": "A#1",
          "ticks": 3264,
          "time": 11.027016,
          "velocity": 0.8267716535433071
        },
        {
          "duration": 0.2837835000000002,
          "durationTicks": 84,
          "midi": 34,
          "name": "A#1",
          "ticks": 3360,
          "time": 11.35134,
          "velocity": 0.8267716535433071
        },
        {
          "duration": 0.2837835000000002,
          "durationTicks": 84,
          "midi": 46,
          "name": "A#2",
          "ticks": 3360,
          "time": 11.35134,
          "velocity": 0.8267716535433071
        },
        {
          "duration": 0.2837835000000002,
          "durationTicks": 84,
          "midi": 32,
          "name": "G#1",
          "ticks": 3456,
          "time": 11.675664,
          "velocity": 0.8267716535433071
        },
        {
          "duration": 0.2837835000000002,
          "durationTicks": 84,
          "midi": 32,
          "name": "G#1",
          "ticks": 3552,
          "time": 11.999988,
          "velocity": 0.8267716535433071
        },
        {
          "duration": 0.2837835000000002,
          "durationTicks": 84,
          "midi": 44,
          "name": "G#2",
          "ticks": 3552,
          "time": 11.999988,
          "velocity": 0.8267716535433071
        },
        {
          "duration": 0.2837834999999984,
          "durationTicks": 84,
          "midi": 25,
          "name": "C#1",
          "ticks": 3648,
          "time": 12.324312,
          "velocity": 0.8267716535433071
        },
        {
          "duration": 0.2837835000000002,
          "durationTicks": 84,
          "midi": 25,
          "name": "C#1",
          "ticks": 3744,
          "time": 12.648636,
          "velocity": 0.8267716535433071
        },
        {
          "duration": 0.2837835000000002,
          "durationTicks": 84,
          "midi": 37,
          "name": "C#2",
          "ticks": 3744,
          "time": 12.648636,
          "velocity": 0.8267716535433071
        },
        {
          "duration": 0.32432399999999895,
          "durationTicks": 96,
          "midi": 30,
          "name": "F#1",
          "ticks": 3840,
          "time": 12.97296,
          "velocity": 0.8267716535433071
        },
        {
          "duration": 0.3243240000000007,
          "durationTicks": 96,
          "midi": 32,
          "name": "G#1",
          "ticks": 4224,
          "time": 14.270256,
          "velocity": 0.8267716535433071
        },
        {
          "duration": 0.3243240000000007,
          "durationTicks": 96,
          "midi": 33,
          "name": "A1",
          "ticks": 4608,
          "time": 15.567552,
          "velocity": 0.8267716535433071
        },
        {
          "duration": 0.3243240000000007,
          "durationTicks": 96,
          "midi": 34,
          "name": "A#1",
          "ticks": 4992,
          "time": 16.864848,
          "velocity": 0.8267716535433071
        },
        {
          "duration": 0.32432399999999717,
          "durationTicks": 96,
          "midi": 30,
          "name": "F#1",
          "ticks": 5376,
          "time": 18.162144,
          "velocity": 0.8267716535433071
        },
        {
          "duration": 0.3243240000000007,
          "durationTicks": 96,
          "midi": 32,
          "name": "G#1",
          "ticks": 5760,
          "time": 19.45944,
          "velocity": 0.8267716535433071
        },
        {
          "duration": 0.3243240000000007,
          "durationTicks": 96,
          "midi": 33,
          "name": "A1",
          "ticks": 6144,
          "time": 20.756736,
          "velocity": 0.8267716535433071
        },
        {
          "duration": 0.16216199999999859,
          "durationTicks": 48,
          "midi": 34,
          "name": "A#1",
          "ticks": 6480,
          "time": 21.89187,
          "velocity": 0.8267716535433071
        },
        {
          "duration": 0.16216200000000214,
          "durationTicks": 48,
          "midi": 34,
          "name": "A#1",
          "ticks": 6672,
          "time": 22.540518,
          "velocity": 0.8267716535433071
        },
        {
          "duration": 0.28378350000000196,
          "durationTicks": 84,
          "midi": 30,
          "name": "F#1",
          "ticks": 6912,
          "time": 23.351328,
          "velocity": 0.8267716535433071
        },
        {
          "duration": 0.28378350000000196,
          "durationTicks": 84,
          "midi": 42,
          "name": "F#2",
          "ticks": 7008,
          "time": 23.675652,
          "velocity": 0.8267716535433071
        },
        {
          "duration": 0.28378350000000196,
          "durationTicks": 84,
          "midi": 30,
          "name": "F#1",
          "ticks": 7008,
          "time": 23.675652,
          "velocity": 0.8267716535433071
        },
        {
          "duration": 0.2837834999999984,
          "durationTicks": 84,
          "midi": 30,
          "name": "F#1",
          "ticks": 7104,
          "time": 23.999976,
          "velocity": 0.8267716535433071
        },
        {
          "duration": 0.2837834999999984,
          "durationTicks": 84,
          "midi": 30,
          "name": "F#1",
          "ticks": 7200,
          "time": 24.3243,
          "velocity": 0.8267716535433071
        },
        {
          "duration": 0.2837834999999984,
          "durationTicks": 84,
          "midi": 42,
          "name": "F#2",
          "ticks": 7200,
          "time": 24.3243,
          "velocity": 0.8267716535433071
        },
        {
          "duration": 0.2837834999999984,
          "durationTicks": 84,
          "midi": 32,
          "name": "G#1",
          "ticks": 7296,
          "time": 24.648624,
          "velocity": 0.8267716535433071
        },
        {
          "duration": 0.28378350000000196,
          "durationTicks": 84,
          "midi": 44,
          "name": "G#2",
          "ticks": 7392,
          "time": 24.972948,
          "velocity": 0.8267716535433071
        },
        {
          "duration": 0.28378350000000196,
          "durationTicks": 84,
          "midi": 32,
          "name": "G#1",
          "ticks": 7392,
          "time": 24.972948,
          "velocity": 0.8267716535433071
        },
        {
          "duration": 0.28378350000000196,
          "durationTicks": 84,
          "midi": 32,
          "name": "G#1",
          "ticks": 7488,
          "time": 25.297272,
          "velocity": 0.8267716535433071
        },
        {
          "duration": 0.2837834999999984,
          "durationTicks": 84,
          "midi": 44,
          "name": "G#2",
          "ticks": 7584,
          "time": 25.621596,
          "velocity": 0.8267716535433071
        },
        {
          "duration": 0.2837834999999984,
          "durationTicks": 84,
          "midi": 32,
          "name": "G#1",
          "ticks": 7584,
          "time": 25.621596,
          "velocity": 0.8267716535433071
        },
        {
          "duration": 0.2837834999999984,
          "durationTicks": 84,
          "midi": 33,
          "name": "A1",
          "ticks": 7680,
          "time": 25.94592,
          "velocity": 0.8267716535433071
        },
        {
          "duration": 0.2837834999999984,
          "durationTicks": 84,
          "midi": 45,
          "name": "A2",
          "ticks": 7776,
          "time": 26.270244,
          "velocity": 0.8267716535433071
        },
        {
          "duration": 0.2837834999999984,
          "durationTicks": 84,
          "midi": 33,
          "name": "A1",
          "ticks": 7776,
          "time": 26.270244,
          "velocity": 0.8267716535433071
        },
        {
          "duration": 0.28378350000000196,
          "durationTicks": 84,
          "midi": 33,
          "name": "A1",
          "ticks": 7872,
          "time": 26.594568,
          "velocity": 0.8267716535433071
        },
        {
          "duration": 0.28378350000000196,
          "durationTicks": 84,
          "midi": 33,
          "name": "A1",
          "ticks": 7968,
          "time": 26.918892,
          "velocity": 0.8267716535433071
        },
        {
          "duration": 0.28378350000000196,
          "durationTicks": 84,
          "midi": 45,
          "name": "A2",
          "ticks": 7968,
          "time": 26.918892,
          "velocity": 0.8267716535433071
        },
        {
          "duration": 0.2837834999999984,
          "durationTicks": 84,
          "midi": 34,
          "name": "A#1",
          "ticks": 8064,
          "time": 27.243216,
          "velocity": 0.8267716535433071
        },
        {
          "duration": 0.2837834999999984,
          "durationTicks": 84,
          "midi": 34,
          "name": "A#1",
          "ticks": 8160,
          "time": 27.56754,
          "velocity": 0.8267716535433071
        },
        {
          "duration": 0.2837834999999984,
          "durationTicks": 84,
          "midi": 46,
          "name": "A#2",
          "ticks": 8160,
          "time": 27.56754,
          "velocity": 0.8267716535433071
        },
        {
          "duration": 0.2837834999999984,
          "durationTicks": 84,
          "midi": 34,
          "name": "A#1",
          "ticks": 8256,
          "time": 27.891864,
          "velocity": 0.8267716535433071
        },
        {
          "duration": 0.28378350000000196,
          "durationTicks": 84,
          "midi": 34,
          "name": "A#1",
          "ticks": 8352,
          "time": 28.216188,
          "velocity": 0.8267716535433071
        },
        {
          "duration": 0.28378350000000196,
          "durationTicks": 84,
          "midi": 46,
          "name": "A#2",
          "ticks": 8352,
          "time": 28.216188,
          "velocity": 0.8267716535433071
        },
        {
          "duration": 0.28378350000000196,
          "durationTicks": 84,
          "midi": 30,
          "name": "F#1",
          "ticks": 8448,
          "time": 28.540512,
          "velocity": 0.8267716535433071
        },
        {
          "duration": 0.2837834999999984,
          "durationTicks": 84,
          "midi": 42,
          "name": "F#2",
          "ticks": 8544,
          "time": 28.864836,
          "velocity": 0.8267716535433071
        },
        {
          "duration": 0.2837834999999984,
          "durationTicks": 84,
          "midi": 30,
          "name": "F#1",
          "ticks": 8544,
          "time": 28.864836,
          "velocity": 0.8267716535433071
        },
        {
          "duration": 0.2837834999999984,
          "durationTicks": 84,
          "midi": 30,
          "name": "F#1",
          "ticks": 8640,
          "time": 29.18916,
          "velocity": 0.8267716535433071
        },
        {
          "duration": 0.2837834999999984,
          "durationTicks": 84,
          "midi": 30,
          "name": "F#1",
          "ticks": 8736,
          "time": 29.513484000000002,
          "velocity": 0.8267716535433071
        },
        {
          "duration": 0.2837834999999984,
          "durationTicks": 84,
          "midi": 42,
          "name": "F#2",
          "ticks": 8736,
          "time": 29.513484000000002,
          "velocity": 0.8267716535433071
        },
        {
          "duration": 0.28378350000000196,
          "durationTicks": 84,
          "midi": 32,
          "name": "G#1",
          "ticks": 8832,
          "time": 29.837808,
          "velocity": 0.8267716535433071
        },
        {
          "duration": 0.28378350000000196,
          "durationTicks": 84,
          "midi": 32,
          "name": "G#1",
          "ticks": 8928,
          "time": 30.162132,
          "velocity": 0.8267716535433071
        },
        {
          "duration": 0.28378350000000196,
          "durationTicks": 84,
          "midi": 44,
          "name": "G#2",
          "ticks": 8928,
          "time": 30.162132,
          "velocity": 0.8267716535433071
        },
        {
          "duration": 0.2837834999999984,
          "durationTicks": 84,
          "midi": 32,
          "name": "G#1",
          "ticks": 9024,
          "time": 30.486456,
          "velocity": 0.8267716535433071
        },
        {
          "duration": 0.2837834999999984,
          "durationTicks": 84,
          "midi": 32,
          "name": "G#1",
          "ticks": 9120,
          "time": 30.81078,
          "velocity": 0.8267716535433071
        },
        {
          "duration": 0.2837834999999984,
          "durationTicks": 84,
          "midi": 44,
          "name": "G#2",
          "ticks": 9120,
          "time": 30.81078,
          "velocity": 0.8267716535433071
        },
        {
          "duration": 0.28378350000000196,
          "durationTicks": 84,
          "midi": 33,
          "name": "A1",
          "ticks": 9216,
          "time": 31.135104,
          "velocity": 0.8267716535433071
        },
        {
          "duration": 0.28378350000000196,
          "durationTicks": 84,
          "midi": 33,
          "name": "A1",
          "ticks": 9312,
          "time": 31.459428,
          "velocity": 0.8267716535433071
        },
        {
          "duration": 0.28378350000000196,
          "durationTicks": 84,
          "midi": 45,
          "name": "A2",
          "ticks": 9312,
          "time": 31.459428,
          "velocity": 0.8267716535433071
        },
        {
          "duration": 0.2837834999999984,
          "durationTicks": 84,
          "midi": 33,
          "name": "A1",
          "ticks": 9408,
          "time": 31.783752,
          "velocity": 0.8267716535433071
        },
        {
          "duration": 0.2837835000000055,
          "durationTicks": 84,
          "midi": 33,
          "name": "A1",
          "ticks": 9504,
          "time": 32.108076,
          "velocity": 0.8267716535433071
        },
        {
          "duration": 0.2837835000000055,
          "durationTicks": 84,
          "midi": 45,
          "name": "A2",
          "ticks": 9504,
          "time": 32.108076,
          "velocity": 0.8267716535433071
        },
        {
          "duration": 0.2837834999999984,
          "durationTicks": 84,
          "midi": 34,
          "name": "A#1",
          "ticks": 9600,
          "time": 32.4324,
          "velocity": 0.8267716535433071
        },
        {
          "duration": 0.2837834999999984,
          "durationTicks": 84,
          "midi": 34,
          "name": "A#1",
          "ticks": 9696,
          "time": 32.756724,
          "velocity": 0.8267716535433071
        },
        {
          "duration": 0.2837834999999984,
          "durationTicks": 84,
          "midi": 46,
          "name": "A#2",
          "ticks": 9696,
          "time": 32.756724,
          "velocity": 0.8267716535433071
        },
        {
          "duration": 0.2837834999999984,
          "durationTicks": 84,
          "midi": 34,
          "name": "A#1",
          "ticks": 9792,
          "time": 33.081048,
          "velocity": 0.8267716535433071
        },
        {
          "duration": 0.2837834999999984,
          "durationTicks": 84,
          "midi": 34,
          "name": "A#1",
          "ticks": 9888,
          "time": 33.405372,
          "velocity": 0.8267716535433071
        },
        {
          "duration": 0.2837834999999984,
          "durationTicks": 84,
          "midi": 46,
          "name": "A#2",
          "ticks": 9888,
          "time": 33.405372,
          "velocity": 0.8267716535433071
        },
        {
          "duration": 1.297296000000003,
          "durationTicks": 384,
          "midi": 30,
          "name": "F#1",
          "ticks": 9984,
          "time": 33.729696,
          "velocity": 0.8267716535433071
        },
        {
          "duration": 0.2837834999999984,
          "durationTicks": 84,
          "midi": 42,
          "name": "F#2",
          "ticks": 10176,
          "time": 34.378344,
          "velocity": 0.8267716535433071
        },
        {
          "duration": 0.9729719999999986,
          "durationTicks": 288,
          "midi": 29,
          "name": "F1",
          "ticks": 10368,
          "time": 35.026992,
          "velocity": 0.8267716535433071
        },
        {
          "duration": 0.2837834999999984,
          "durationTicks": 84,
          "midi": 41,
          "name": "F2",
          "ticks": 10560,
          "time": 35.67564,
          "velocity": 0.8267716535433071
        },
        {
          "duration": 0.12162149999999627,
          "durationTicks": 36,
          "midi": 29,
          "name": "F1",
          "ticks": 10704,
          "time": 36.162126,
          "velocity": 0.8267716535433071
        },
        {
          "duration": 1.2972959999999958,
          "durationTicks": 384,
          "midi": 27,
          "name": "D#1",
          "ticks": 10752,
          "time": 36.324288,
          "velocity": 0.8267716535433071
        },
        {
          "duration": 0.2837835000000055,
          "durationTicks": 84,
          "midi": 39,
          "name": "D#2",
          "ticks": 10944,
          "time": 36.972936,
          "velocity": 0.8267716535433071
        },
        {
          "duration": 1.2567555000000041,
          "durationTicks": 372,
          "midi": 29,
          "name": "F1",
          "ticks": 11136,
          "time": 37.621584,
          "velocity": 0.8267716535433071
        },
        {
          "duration": 0.2837834999999984,
          "durationTicks": 84,
          "midi": 41,
          "name": "F2",
          "ticks": 11328,
          "time": 38.270232,
          "velocity": 0.8267716535433071
        },
        {
          "duration": 0.2837834999999984,
          "durationTicks": 84,
          "midi": 30,
          "name": "F#1",
          "ticks": 11520,
          "time": 38.91888,
          "velocity": 0.8267716535433071
        },
        {
          "duration": 0.2837834999999984,
          "durationTicks": 84,
          "midi": 30,
          "name": "F#1",
          "ticks": 11616,
          "time": 39.243204,
          "velocity": 0.8267716535433071
        },
        {
          "duration": 0.2837834999999984,
          "durationTicks": 84,
          "midi": 30,
          "name": "F#1",
          "ticks": 11712,
          "time": 39.567528,
          "velocity": 0.8267716535433071
        },
        {
          "duration": 0.2837834999999984,
          "durationTicks": 84,
          "midi": 42,
          "name": "F#2",
          "ticks": 11712,
          "time": 39.567528,
          "velocity": 0.8267716535433071
        },
        {
          "duration": 0.2837834999999984,
          "durationTicks": 84,
          "midi": 30,
          "name": "F#1",
          "ticks": 11808,
          "time": 39.891852,
          "velocity": 0.8267716535433071
        },
        {
          "duration": 0.2837835000000055,
          "durationTicks": 84,
          "midi": 29,
          "name": "F1",
          "ticks": 11904,
          "time": 40.216176,
          "velocity": 0.8267716535433071
        },
        {
          "duration": 0.2837834999999984,
          "durationTicks": 84,
          "midi": 29,
          "name": "F1",
          "ticks": 12000,
          "time": 40.5405,
          "velocity": 0.8267716535433071
        },
        {
          "duration": 0.2837834999999984,
          "durationTicks": 84,
          "midi": 29,
          "name": "F1",
          "ticks": 12096,
          "time": 40.864824,
          "velocity": 0.8267716535433071
        },
        {
          "duration": 0.2837834999999984,
          "durationTicks": 84,
          "midi": 41,
          "name": "F2",
          "ticks": 12096,
          "time": 40.864824,
          "velocity": 0.8267716535433071
        },
        {
          "duration": 0.2837834999999984,
          "durationTicks": 84,
          "midi": 29,
          "name": "F1",
          "ticks": 12192,
          "time": 41.189148,
          "velocity": 0.8267716535433071
        },
        {
          "duration": 0.04054049999999876,
          "durationTicks": 12,
          "midi": 27,
          "name": "D#1",
          "ticks": 12288,
          "time": 41.513472,
          "velocity": 0.8267716535433071
        },
        {
          "duration": 0.040540500000005864,
          "durationTicks": 12,
          "midi": 27,
          "name": "D#1",
          "ticks": 12312,
          "time": 41.594553,
          "velocity": 0.8267716535433071
        },
        {
          "duration": 0.04054049999999876,
          "durationTicks": 12,
          "midi": 27,
          "name": "D#1",
          "ticks": 12336,
          "time": 41.675634,
          "velocity": 0.8267716535433071
        },
        {
          "duration": 0.04054049999999876,
          "durationTicks": 12,
          "midi": 27,
          "name": "D#1",
          "ticks": 12360,
          "time": 41.756715,
          "velocity": 0.8267716535433071
        },
        {
          "duration": 0.040540500000005864,
          "durationTicks": 12,
          "midi": 27,
          "name": "D#1",
          "ticks": 12384,
          "time": 41.837796,
          "velocity": 0.8267716535433071
        },
        {
          "duration": 0.04054049999999876,
          "durationTicks": 12,
          "midi": 27,
          "name": "D#1",
          "ticks": 12408,
          "time": 41.918877,
          "velocity": 0.8267716535433071
        },
        {
          "duration": 0.04054049999999876,
          "durationTicks": 12,
          "midi": 27,
          "name": "D#1",
          "ticks": 12432,
          "time": 41.999958,
          "velocity": 0.8267716535433071
        },
        {
          "duration": 0.040540500000005864,
          "durationTicks": 12,
          "midi": 27,
          "name": "D#1",
          "ticks": 12456,
          "time": 42.081039,
          "velocity": 0.8267716535433071
        },
        {
          "duration": 0.04054049999999876,
          "durationTicks": 12,
          "midi": 27,
          "name": "D#1",
          "ticks": 12480,
          "time": 42.16212,
          "velocity": 0.8267716535433071
        },
        {
          "duration": 0.2837834999999984,
          "durationTicks": 84,
          "midi": 39,
          "name": "D#2",
          "ticks": 12480,
          "time": 42.16212,
          "velocity": 0.8267716535433071
        },
        {
          "duration": 0.04054049999999876,
          "durationTicks": 12,
          "midi": 27,
          "name": "D#1",
          "ticks": 12504,
          "time": 42.243201,
          "velocity": 0.8267716535433071
        },
        {
          "duration": 0.040540500000005864,
          "durationTicks": 12,
          "midi": 27,
          "name": "D#1",
          "ticks": 12528,
          "time": 42.324282,
          "velocity": 0.8267716535433071
        },
        {
          "duration": 0.04054049999999876,
          "durationTicks": 12,
          "midi": 27,
          "name": "D#1",
          "ticks": 12552,
          "time": 42.405363,
          "velocity": 0.8267716535433071
        },
        {
          "duration": 0.04054049999999876,
          "durationTicks": 12,
          "midi": 27,
          "name": "D#1",
          "ticks": 12576,
          "time": 42.486444,
          "velocity": 0.8267716535433071
        },
        {
          "duration": 0.04054049999999876,
          "durationTicks": 12,
          "midi": 27,
          "name": "D#1",
          "ticks": 12600,
          "time": 42.567525,
          "velocity": 0.8267716535433071
        },
        {
          "duration": 0.04054049999999876,
          "durationTicks": 12,
          "midi": 27,
          "name": "D#1",
          "ticks": 12624,
          "time": 42.648606,
          "velocity": 0.8267716535433071
        },
        {
          "duration": 0.04054049999999876,
          "durationTicks": 12,
          "midi": 27,
          "name": "D#1",
          "ticks": 12648,
          "time": 42.729687,
          "velocity": 0.8267716535433071
        },
        {
          "duration": 0.2837834999999984,
          "durationTicks": 84,
          "midi": 30,
          "name": "F#1",
          "ticks": 13056,
          "time": 44.108064,
          "velocity": 0.8267716535433071
        },
        {
          "duration": 0.2837834999999984,
          "durationTicks": 84,
          "midi": 42,
          "name": "F#2",
          "ticks": 13152,
          "time": 44.432388,
          "velocity": 0.8267716535433071
        },
        {
          "duration": 0.2837834999999984,
          "durationTicks": 84,
          "midi": 30,
          "name": "F#1",
          "ticks": 13152,
          "time": 44.432388,
          "velocity": 0.8267716535433071
        },
        {
          "duration": 0.2837834999999984,
          "durationTicks": 84,
          "midi": 30,
          "name": "F#1",
          "ticks": 13248,
          "time": 44.756712,
          "velocity": 0.8267716535433071
        },
        {
          "duration": 0.2837835000000055,
          "durationTicks": 84,
          "midi": 30,
          "name": "F#1",
          "ticks": 13344,
          "time": 45.081036,
          "velocity": 0.8267716535433071
        },
        {
          "duration": 0.2837835000000055,
          "durationTicks": 84,
          "midi": 42,
          "name": "F#2",
          "ticks": 13344,
          "time": 45.081036,
          "velocity": 0.8267716535433071
        },
        {
          "duration": 0.2837834999999984,
          "durationTicks": 84,
          "midi": 29,
          "name": "F1",
          "ticks": 13440,
          "time": 45.40536,
          "velocity": 0.8267716535433071
        },
        {
          "duration": 0.2837834999999984,
          "durationTicks": 84,
          "midi": 29,
          "name": "F1",
          "ticks": 13536,
          "time": 45.729684,
          "velocity": 0.8267716535433071
        },
        {
          "duration": 0.2837834999999984,
          "durationTicks": 84,
          "midi": 41,
          "name": "F2",
          "ticks": 13536,
          "time": 45.729684,
          "velocity": 0.8267716535433071
        },
        {
          "duration": 0.2837834999999984,
          "durationTicks": 84,
          "midi": 29,
          "name": "F1",
          "ticks": 13632,
          "time": 46.054008,
          "velocity": 0.8267716535433071
        },
        {
          "duration": 0.2837834999999984,
          "durationTicks": 84,
          "midi": 41,
          "name": "F2",
          "ticks": 13728,
          "time": 46.378332,
          "velocity": 0.8267716535433071
        },
        {
          "duration": 0.2837834999999984,
          "durationTicks": 84,
          "midi": 29,
          "name": "F1",
          "ticks": 13728,
          "time": 46.378332,
          "velocity": 0.8267716535433071
        },
        {
          "duration": 0.2837835000000055,
          "durationTicks": 84,
          "midi": 34,
          "name": "A#1",
          "ticks": 13824,
          "time": 46.702656,
          "velocity": 0.8267716535433071
        },
        {
          "duration": 0.2837834999999984,
          "durationTicks": 84,
          "midi": 34,
          "name": "A#1",
          "ticks": 13920,
          "time": 47.02698,
          "velocity": 0.8267716535433071
        },
        {
          "duration": 0.2837834999999984,
          "durationTicks": 84,
          "midi": 46,
          "name": "A#2",
          "ticks": 13920,
          "time": 47.02698,
          "velocity": 0.8267716535433071
        },
        {
          "duration": 0.2837834999999984,
          "durationTicks": 84,
          "midi": 34,
          "name": "A#1",
          "ticks": 14016,
          "time": 47.351304,
          "velocity": 0.8267716535433071
        },
        {
          "duration": 0.2837834999999984,
          "durationTicks": 84,
          "midi": 34,
          "name": "A#1",
          "ticks": 14112,
          "time": 47.675628,
          "velocity": 0.8267716535433071
        },
        {
          "duration": 0.2837834999999984,
          "durationTicks": 84,
          "midi": 46,
          "name": "A#2",
          "ticks": 14112,
          "time": 47.675628,
          "velocity": 0.8267716535433071
        },
        {
          "duration": 0.2837834999999984,
          "durationTicks": 84,
          "midi": 32,
          "name": "G#1",
          "ticks": 14208,
          "time": 47.999952,
          "velocity": 0.8267716535433071
        },
        {
          "duration": 0.2837835000000055,
          "durationTicks": 84,
          "midi": 44,
          "name": "G#2",
          "ticks": 14304,
          "time": 48.324276,
          "velocity": 0.8267716535433071
        },
        {
          "duration": 0.2837835000000055,
          "durationTicks": 84,
          "midi": 32,
          "name": "G#1",
          "ticks": 14304,
          "time": 48.324276,
          "velocity": 0.8267716535433071
        },
        {
          "duration": 0.2837834999999984,
          "durationTicks": 84,
          "midi": 25,
          "name": "C#1",
          "ticks": 14400,
          "time": 48.6486,
          "velocity": 0.8267716535433071
        },
        {
          "duration": 0.2837834999999984,
          "durationTicks": 84,
          "midi": 25,
          "name": "C#1",
          "ticks": 14496,
          "time": 48.972924,
          "velocity": 0.8267716535433071
        },
        {
          "duration": 0.2837834999999984,
          "durationTicks": 84,
          "midi": 37,
          "name": "C#2",
          "ticks": 14496,
          "time": 48.972924,
          "velocity": 0.8267716535433071
        },
        {
          "duration": 0.2837834999999984,
          "durationTicks": 84,
          "midi": 30,
          "name": "F#1",
          "ticks": 14592,
          "time": 49.297248,
          "velocity": 0.8267716535433071
        },
        {
          "duration": 0.2837834999999984,
          "durationTicks": 84,
          "midi": 30,
          "name": "F#1",
          "ticks": 14688,
          "time": 49.621572,
          "velocity": 0.8267716535433071
        },
        {
          "duration": 0.2837834999999984,
          "durationTicks": 84,
          "midi": 42,
          "name": "F#2",
          "ticks": 14688,
          "time": 49.621572,
          "velocity": 0.8267716535433071
        },
        {
          "duration": 0.2837835000000055,
          "durationTicks": 84,
          "midi": 30,
          "name": "F#1",
          "ticks": 14784,
          "time": 49.945896,
          "velocity": 0.8267716535433071
        },
        {
          "duration": 0.2837834999999984,
          "durationTicks": 84,
          "midi": 30,
          "name": "F#1",
          "ticks": 14880,
          "time": 50.27022,
          "velocity": 0.8267716535433071
        },
        {
          "duration": 0.2837834999999984,
          "durationTicks": 84,
          "midi": 42,
          "name": "F#2",
          "ticks": 14880,
          "time": 50.27022,
          "velocity": 0.8267716535433071
        },
        {
          "duration": 0.2837834999999984,
          "durationTicks": 84,
          "midi": 29,
          "name": "F1",
          "ticks": 14976,
          "time": 50.594544,
          "velocity": 0.8267716535433071
        },
        {
          "duration": 0.2837834999999984,
          "durationTicks": 84,
          "midi": 41,
          "name": "F2",
          "ticks": 15072,
          "time": 50.918868,
          "velocity": 0.8267716535433071
        },
        {
          "duration": 0.2837834999999984,
          "durationTicks": 84,
          "midi": 29,
          "name": "F1",
          "ticks": 15072,
          "time": 50.918868,
          "velocity": 0.8267716535433071
        },
        {
          "duration": 0.2837834999999984,
          "durationTicks": 84,
          "midi": 29,
          "name": "F1",
          "ticks": 15168,
          "time": 51.243192,
          "velocity": 0.8267716535433071
        },
        {
          "duration": 0.2837835000000055,
          "durationTicks": 84,
          "midi": 41,
          "name": "F2",
          "ticks": 15264,
          "time": 51.567516,
          "velocity": 0.8267716535433071
        },
        {
          "duration": 0.2837835000000055,
          "durationTicks": 84,
          "midi": 29,
          "name": "F1",
          "ticks": 15264,
          "time": 51.567516,
          "velocity": 0.8267716535433071
        },
        {
          "duration": 0.2837834999999984,
          "durationTicks": 84,
          "midi": 34,
          "name": "A#1",
          "ticks": 15360,
          "time": 51.89184,
          "velocity": 0.8267716535433071
        },
        {
          "duration": 0.2837834999999984,
          "durationTicks": 84,
          "midi": 34,
          "name": "A#1",
          "ticks": 15456,
          "time": 52.216164,
          "velocity": 0.8267716535433071
        },
        {
          "duration": 0.2837834999999984,
          "durationTicks": 84,
          "midi": 46,
          "name": "A#2",
          "ticks": 15456,
          "time": 52.216164,
          "velocity": 0.8267716535433071
        },
        {
          "duration": 0.2837834999999984,
          "durationTicks": 84,
          "midi": 34,
          "name": "A#1",
          "ticks": 15552,
          "time": 52.540488,
          "velocity": 0.8267716535433071
        },
        {
          "duration": 0.2837834999999984,
          "durationTicks": 84,
          "midi": 46,
          "name": "A#2",
          "ticks": 15648,
          "time": 52.864812,
          "velocity": 0.8267716535433071
        },
        {
          "duration": 0.2837834999999984,
          "durationTicks": 84,
          "midi": 34,
          "name": "A#1",
          "ticks": 15648,
          "time": 52.864812,
          "velocity": 0.8267716535433071
        },
        {
          "duration": 0.2837835000000055,
          "durationTicks": 84,
          "midi": 27,
          "name": "D#1",
          "ticks": 15744,
          "time": 53.189136,
          "velocity": 0.8267716535433071
        },
        {
          "duration": 0.2837834999999984,
          "durationTicks": 84,
          "midi": 39,
          "name": "D#2",
          "ticks": 15840,
          "time": 53.51346,
          "velocity": 0.8267716535433071
        },
        {
          "duration": 0.2837834999999984,
          "durationTicks": 84,
          "midi": 27,
          "name": "D#1",
          "ticks": 15840,
          "time": 53.51346,
          "velocity": 0.8267716535433071
        },
        {
          "duration": 0.2837834999999984,
          "durationTicks": 84,
          "midi": 27,
          "name": "D#1",
          "ticks": 15936,
          "time": 53.837784,
          "velocity": 0.8267716535433071
        },
        {
          "duration": 0.2837834999999984,
          "durationTicks": 84,
          "midi": 27,
          "name": "D#1",
          "ticks": 16032,
          "time": 54.162108,
          "velocity": 0.8267716535433071
        },
        {
          "duration": 0.2837834999999984,
          "durationTicks": 84,
          "midi": 39,
          "name": "D#2",
          "ticks": 16032,
          "time": 54.162108,
          "velocity": 0.8267716535433071
        },
        {
          "duration": 0.2837834999999984,
          "durationTicks": 84,
          "midi": 30,
          "name": "F#1",
          "ticks": 16128,
          "time": 54.486432,
          "velocity": 0.8267716535433071
        },
        {
          "duration": 0.2837835000000055,
          "durationTicks": 84,
          "midi": 30,
          "name": "F#1",
          "ticks": 16224,
          "time": 54.810756,
          "velocity": 0.8267716535433071
        },
        {
          "duration": 0.2837835000000055,
          "durationTicks": 84,
          "midi": 42,
          "name": "F#2",
          "ticks": 16224,
          "time": 54.810756,
          "velocity": 0.8267716535433071
        },
        {
          "duration": 0.2837834999999984,
          "durationTicks": 84,
          "midi": 30,
          "name": "F#1",
          "ticks": 16320,
          "time": 55.13508,
          "velocity": 0.8267716535433071
        },
        {
          "duration": 0.2837834999999984,
          "durationTicks": 84,
          "midi": 30,
          "name": "F#1",
          "ticks": 16416,
          "time": 55.459404,
          "velocity": 0.8267716535433071
        },
        {
          "duration": 0.2837834999999984,
          "durationTicks": 84,
          "midi": 42,
          "name": "F#2",
          "ticks": 16416,
          "time": 55.459404,
          "velocity": 0.8267716535433071
        },
        {
          "duration": 0.2837834999999984,
          "durationTicks": 84,
          "midi": 29,
          "name": "F1",
          "ticks": 16512,
          "time": 55.783728,
          "velocity": 0.8267716535433071
        },
        {
          "duration": 0.2837834999999984,
          "durationTicks": 84,
          "midi": 41,
          "name": "F2",
          "ticks": 16608,
          "time": 56.108052,
          "velocity": 0.8267716535433071
        },
        {
          "duration": 0.2837834999999984,
          "durationTicks": 84,
          "midi": 29,
          "name": "F1",
          "ticks": 16608,
          "time": 56.108052,
          "velocity": 0.8267716535433071
        },
        {
          "duration": 0.2837835000000055,
          "durationTicks": 84,
          "midi": 29,
          "name": "F1",
          "ticks": 16704,
          "time": 56.432376,
          "velocity": 0.8267716535433071
        },
        {
          "duration": 0.2837834999999984,
          "durationTicks": 84,
          "midi": 29,
          "name": "F1",
          "ticks": 16800,
          "time": 56.7567,
          "velocity": 0.8267716535433071
        },
        {
          "duration": 0.2837834999999984,
          "durationTicks": 84,
          "midi": 41,
          "name": "F2",
          "ticks": 16800,
          "time": 56.7567,
          "velocity": 0.8267716535433071
        },
        {
          "duration": 0.2837834999999984,
          "durationTicks": 84,
          "midi": 34,
          "name": "A#1",
          "ticks": 16896,
          "time": 57.081024,
          "velocity": 0.8267716535433071
        },
        {
          "duration": 0.2837834999999984,
          "durationTicks": 84,
          "midi": 34,
          "name": "A#1",
          "ticks": 16992,
          "time": 57.405348000000004,
          "velocity": 0.8267716535433071
        },
        {
          "duration": 0.2837834999999984,
          "durationTicks": 84,
          "midi": 46,
          "name": "A#2",
          "ticks": 16992,
          "time": 57.405348000000004,
          "velocity": 0.8267716535433071
        },
        {
          "duration": 0.2837834999999984,
          "durationTicks": 84,
          "midi": 34,
          "name": "A#1",
          "ticks": 17088,
          "time": 57.729672,
          "velocity": 0.8267716535433071
        },
        {
          "duration": 0.2837835000000055,
          "durationTicks": 84,
          "midi": 46,
          "name": "A#2",
          "ticks": 17184,
          "time": 58.053996,
          "velocity": 0.8267716535433071
        },
        {
          "duration": 0.2837835000000055,
          "durationTicks": 84,
          "midi": 34,
          "name": "A#1",
          "ticks": 17184,
          "time": 58.053996,
          "velocity": 0.8267716535433071
        },
        {
          "duration": 0.2837834999999984,
          "durationTicks": 84,
          "midi": 32,
          "name": "G#1",
          "ticks": 17280,
          "time": 58.37832,
          "velocity": 0.8267716535433071
        },
        {
          "duration": 0.2837834999999984,
          "durationTicks": 84,
          "midi": 32,
          "name": "G#1",
          "ticks": 17376,
          "time": 58.702644,
          "velocity": 0.8267716535433071
        },
        {
          "duration": 0.2837834999999984,
          "durationTicks": 84,
          "midi": 44,
          "name": "G#2",
          "ticks": 17376,
          "time": 58.702644,
          "velocity": 0.8267716535433071
        },
        {
          "duration": 0.2837834999999984,
          "durationTicks": 84,
          "midi": 25,
          "name": "C#1",
          "ticks": 17472,
          "time": 59.026968000000004,
          "velocity": 0.8267716535433071
        },
        {
          "duration": 0.2837834999999984,
          "durationTicks": 84,
          "midi": 25,
          "name": "C#1",
          "ticks": 17568,
          "time": 59.351292,
          "velocity": 0.8267716535433071
        },
        {
          "duration": 0.2837834999999984,
          "durationTicks": 84,
          "midi": 37,
          "name": "C#2",
          "ticks": 17568,
          "time": 59.351292,
          "velocity": 0.8267716535433071
        },
        {
          "duration": 0.2837835000000055,
          "durationTicks": 84,
          "midi": 30,
          "name": "F#1",
          "ticks": 17664,
          "time": 59.675616,
          "velocity": 0.8267716535433071
        },
        {
          "duration": 0.2837834999999984,
          "durationTicks": 84,
          "midi": 42,
          "name": "F#2",
          "ticks": 17760,
          "time": 59.99994,
          "velocity": 0.8267716535433071
        },
        {
          "duration": 0.2837834999999984,
          "durationTicks": 84,
          "midi": 30,
          "name": "F#1",
          "ticks": 17760,
          "time": 59.99994,
          "velocity": 0.8267716535433071
        },
        {
          "duration": 0.2837834999999984,
          "durationTicks": 84,
          "midi": 30,
          "name": "F#1",
          "ticks": 17856,
          "time": 60.324264,
          "velocity": 0.8267716535433071
        },
        {
          "duration": 0.2837834999999984,
          "durationTicks": 84,
          "midi": 30,
          "name": "F#1",
          "ticks": 17952,
          "time": 60.648588000000004,
          "velocity": 0.8267716535433071
        },
        {
          "duration": 0.2837834999999984,
          "durationTicks": 84,
          "midi": 42,
          "name": "F#2",
          "ticks": 17952,
          "time": 60.648588000000004,
          "velocity": 0.8267716535433071
        },
        {
          "duration": 0.2837834999999984,
          "durationTicks": 84,
          "midi": 29,
          "name": "F1",
          "ticks": 18048,
          "time": 60.972912,
          "velocity": 0.8267716535433071
        },
        {
          "duration": 0.2837835000000055,
          "durationTicks": 84,
          "midi": 41,
          "name": "F2",
          "ticks": 18144,
          "time": 61.297236,
          "velocity": 0.8267716535433071
        },
        {
          "duration": 0.2837835000000055,
          "durationTicks": 84,
          "midi": 29,
          "name": "F1",
          "ticks": 18144,
          "time": 61.297236,
          "velocity": 0.8267716535433071
        },
        {
          "duration": 0.2837834999999984,
          "durationTicks": 84,
          "midi": 29,
          "name": "F1",
          "ticks": 18240,
          "time": 61.62156,
          "velocity": 0.8267716535433071
        },
        {
          "duration": 0.2837834999999984,
          "durationTicks": 84,
          "midi": 41,
          "name": "F2",
          "ticks": 18336,
          "time": 61.945884,
          "velocity": 0.8267716535433071
        },
        {
          "duration": 0.2837834999999984,
          "durationTicks": 84,
          "midi": 29,
          "name": "F1",
          "ticks": 18336,
          "time": 61.945884,
          "velocity": 0.8267716535433071
        },
        {
          "duration": 0.2837835000000055,
          "durationTicks": 84,
          "midi": 34,
          "name": "A#1",
          "ticks": 18432,
          "time": 62.270208,
          "velocity": 0.8267716535433071
        },
        {
          "duration": 0.2837834999999984,
          "durationTicks": 84,
          "midi": 46,
          "name": "A#2",
          "ticks": 18528,
          "time": 62.594532,
          "velocity": 0.8267716535433071
        },
        {
          "duration": 0.2837834999999984,
          "durationTicks": 84,
          "midi": 34,
          "name": "A#1",
          "ticks": 18528,
          "time": 62.594532,
          "velocity": 0.8267716535433071
        },
        {
          "duration": 0.2837835000000055,
          "durationTicks": 84,
          "midi": 34,
          "name": "A#1",
          "ticks": 18624,
          "time": 62.918856,
          "velocity": 0.8267716535433071
        },
        {
          "duration": 0.2837834999999984,
          "durationTicks": 84,
          "midi": 34,
          "name": "A#1",
          "ticks": 18720,
          "time": 63.24318,
          "velocity": 0.8267716535433071
        },
        {
          "duration": 0.2837834999999984,
          "durationTicks": 84,
          "midi": 46,
          "name": "A#2",
          "ticks": 18720,
          "time": 63.24318,
          "velocity": 0.8267716535433071
        },
        {
          "duration": 0.2837834999999984,
          "durationTicks": 84,
          "midi": 34,
          "name": "A#1",
          "ticks": 18816,
          "time": 63.567504,
          "velocity": 0.8267716535433071
        },
        {
          "duration": 0.2837835000000055,
          "durationTicks": 84,
          "midi": 33,
          "name": "A1",
          "ticks": 18912,
          "time": 63.891828,
          "velocity": 0.8267716535433071
        },
        {
          "duration": 0.2837835000000055,
          "durationTicks": 84,
          "midi": 45,
          "name": "A2",
          "ticks": 18912,
          "time": 63.891828,
          "velocity": 0.8267716535433071
        },
        {
          "duration": 0.2837835000000126,
          "durationTicks": 84,
          "midi": 32,
          "name": "G#1",
          "ticks": 19008,
          "time": 64.216152,
          "velocity": 0.8267716535433071
        },
        {
          "duration": 0.2837834999999984,
          "durationTicks": 84,
          "midi": 31,
          "name": "G1",
          "ticks": 19104,
          "time": 64.540476,
          "velocity": 0.8267716535433071
        },
        {
          "duration": 0.2837834999999984,
          "durationTicks": 84,
          "midi": 43,
          "name": "G2",
          "ticks": 19104,
          "time": 64.540476,
          "velocity": 0.8267716535433071
        },
        {
          "duration": 0.2837834999999984,
          "durationTicks": 84,
          "midi": 25,
          "name": "C#1",
          "ticks": 19200,
          "time": 64.8648,
          "velocity": 0.8267716535433071
        },
        {
          "duration": 0.2837834999999984,
          "durationTicks": 84,
          "midi": 37,
          "name": "C#2",
          "ticks": 19296,
          "time": 65.189124,
          "velocity": 0.8267716535433071
        },
        {
          "duration": 0.12162150000000338,
          "durationTicks": 36,
          "midi": 25,
          "name": "C#1",
          "ticks": 19344,
          "time": 65.351286,
          "velocity": 0.8267716535433071
        },
        {
          "duration": 0.12162150000000338,
          "durationTicks": 36,
          "midi": 25,
          "name": "C#1",
          "ticks": 19392,
          "time": 65.513448,
          "velocity": 0.8267716535433071
        },
        {
          "duration": 0.3243240000000043,
          "durationTicks": 96,
          "midi": 37,
          "name": "C#2",
          "ticks": 19488,
          "time": 65.837772,
          "velocity": 0.8267716535433071
        },
        {
          "duration": 0.04054049999999165,
          "durationTicks": 12,
          "midi": 25,
          "name": "C#1",
          "ticks": 19584,
          "time": 66.162096,
          "velocity": 0.8267716535433071
        },
        {
          "duration": 0.04054049999999165,
          "durationTicks": 12,
          "midi": 26,
          "name": "D1",
          "ticks": 19608,
          "time": 66.243177,
          "velocity": 0.8267716535433071
        },
        {
          "duration": 0.040540500000005864,
          "durationTicks": 12,
          "midi": 27,
          "name": "D#1",
          "ticks": 19632,
          "time": 66.324258,
          "velocity": 0.8267716535433071
        },
        {
          "duration": 0.040540500000005864,
          "durationTicks": 12,
          "midi": 28,
          "name": "E1",
          "ticks": 19656,
          "time": 66.405339,
          "velocity": 0.8267716535433071
        },
        {
          "duration": 0.040540500000005864,
          "durationTicks": 12,
          "midi": 29,
          "name": "F1",
          "ticks": 19680,
          "time": 66.48642,
          "velocity": 0.8267716535433071
        },
        {
          "duration": 0.04054049999999165,
          "durationTicks": 12,
          "midi": 30,
          "name": "F#1",
          "ticks": 19704,
          "time": 66.56750100000001,
          "velocity": 0.8267716535433071
        },
        {
          "duration": 0.04054049999999165,
          "durationTicks": 12,
          "midi": 31,
          "name": "G1",
          "ticks": 19728,
          "time": 66.648582,
          "velocity": 0.8031496062992126
        },
        {
          "duration": 0.04054049999999165,
          "durationTicks": 12,
          "midi": 32,
          "name": "G#1",
          "ticks": 19752,
          "time": 66.729663,
          "velocity": 0.7795275590551181
        },
        {
          "duration": 0.040540500000005864,
          "durationTicks": 12,
          "midi": 33,
          "name": "A1",
          "ticks": 19776,
          "time": 66.810744,
          "velocity": 0.7637795275590551
        },
        {
          "duration": 0.040540500000005864,
          "durationTicks": 12,
          "midi": 34,
          "name": "A#1",
          "ticks": 19800,
          "time": 66.891825,
          "velocity": 0.7401574803149606
        },
        {
          "duration": 0.040540500000005864,
          "durationTicks": 12,
          "midi": 35,
          "name": "B1",
          "ticks": 19824,
          "time": 66.972906,
          "velocity": 0.7165354330708661
        },
        {
          "duration": 0.04054049999999165,
          "durationTicks": 12,
          "midi": 36,
          "name": "C2",
          "ticks": 19848,
          "time": 67.053987,
          "velocity": 0.6929133858267716
        },
        {
          "duration": 0.04054049999999165,
          "durationTicks": 12,
          "midi": 37,
          "name": "C#2",
          "ticks": 19872,
          "time": 67.135068,
          "velocity": 0.6692913385826772
        },
        {
          "duration": 0.040540500000005864,
          "durationTicks": 12,
          "midi": 38,
          "name": "D2",
          "ticks": 19896,
          "time": 67.216149,
          "velocity": 0.6456692913385826
        },
        {
          "duration": 0.040540500000005864,
          "durationTicks": 12,
          "midi": 39,
          "name": "D#2",
          "ticks": 19920,
          "time": 67.29723,
          "velocity": 0.6220472440944882
        },
        {
          "duration": 0.040540500000005864,
          "durationTicks": 12,
          "midi": 40,
          "name": "E2",
          "ticks": 19944,
          "time": 67.378311,
          "velocity": 0.6062992125984252
        },
        {
          "duration": 0.2837835000000126,
          "durationTicks": 84,
          "midi": 30,
          "name": "F#1",
          "ticks": 19968,
          "time": 67.459392,
          "velocity": 0.8267716535433071
        },
        {
          "duration": 0.2837834999999984,
          "durationTicks": 84,
          "midi": 30,
          "name": "F#1",
          "ticks": 20064,
          "time": 67.783716,
          "velocity": 0.8267716535433071
        },
        {
          "duration": 0.2837834999999984,
          "durationTicks": 84,
          "midi": 42,
          "name": "F#2",
          "ticks": 20064,
          "time": 67.783716,
          "velocity": 0.8267716535433071
        },
        {
          "duration": 0.2837834999999984,
          "durationTicks": 84,
          "midi": 30,
          "name": "F#1",
          "ticks": 20160,
          "time": 68.10804,
          "velocity": 0.8267716535433071
        },
        {
          "duration": 0.2837834999999984,
          "durationTicks": 84,
          "midi": 30,
          "name": "F#1",
          "ticks": 20256,
          "time": 68.432364,
          "velocity": 0.8267716535433071
        },
        {
          "duration": 0.2837834999999984,
          "durationTicks": 84,
          "midi": 42,
          "name": "F#2",
          "ticks": 20256,
          "time": 68.432364,
          "velocity": 0.8267716535433071
        },
        {
          "duration": 0.2837834999999984,
          "durationTicks": 84,
          "midi": 29,
          "name": "F1",
          "ticks": 20352,
          "time": 68.756688,
          "velocity": 0.8267716535433071
        },
        {
          "duration": 0.2837834999999984,
          "durationTicks": 84,
          "midi": 29,
          "name": "F1",
          "ticks": 20448,
          "time": 69.081012,
          "velocity": 0.8267716535433071
        },
        {
          "duration": 0.2837834999999984,
          "durationTicks": 84,
          "midi": 41,
          "name": "F2",
          "ticks": 20448,
          "time": 69.081012,
          "velocity": 0.8267716535433071
        },
        {
          "duration": 0.2837834999999984,
          "durationTicks": 84,
          "midi": 29,
          "name": "F1",
          "ticks": 20544,
          "time": 69.405336,
          "velocity": 0.8267716535433071
        },
        {
          "duration": 0.2837834999999984,
          "durationTicks": 84,
          "midi": 29,
          "name": "F1",
          "ticks": 20640,
          "time": 69.72966,
          "velocity": 0.8267716535433071
        },
        {
          "duration": 0.2837834999999984,
          "durationTicks": 84,
          "midi": 41,
          "name": "F2",
          "ticks": 20640,
          "time": 69.72966,
          "velocity": 0.8267716535433071
        },
        {
          "duration": 0.2837834999999984,
          "durationTicks": 84,
          "midi": 34,
          "name": "A#1",
          "ticks": 20736,
          "time": 70.053984,
          "velocity": 0.8267716535433071
        },
        {
          "duration": 0.2837834999999984,
          "durationTicks": 84,
          "midi": 34,
          "name": "A#1",
          "ticks": 20832,
          "time": 70.378308,
          "velocity": 0.8267716535433071
        },
        {
          "duration": 0.2837834999999984,
          "durationTicks": 84,
          "midi": 46,
          "name": "A#2",
          "ticks": 20832,
          "time": 70.378308,
          "velocity": 0.8267716535433071
        },
        {
          "duration": 0.2837835000000126,
          "durationTicks": 84,
          "midi": 34,
          "name": "A#1",
          "ticks": 20928,
          "time": 70.702632,
          "velocity": 0.8267716535433071
        },
        {
          "duration": 0.2837834999999984,
          "durationTicks": 84,
          "midi": 46,
          "name": "A#2",
          "ticks": 21024,
          "time": 71.026956,
          "velocity": 0.8267716535433071
        },
        {
          "duration": 0.2837834999999984,
          "durationTicks": 84,
          "midi": 34,
          "name": "A#1",
          "ticks": 21024,
          "time": 71.026956,
          "velocity": 0.8267716535433071
        },
        {
          "duration": 0.2837834999999984,
          "durationTicks": 84,
          "midi": 32,
          "name": "G#1",
          "ticks": 21120,
          "time": 71.35128,
          "velocity": 0.8267716535433071
        },
        {
          "duration": 0.2837834999999984,
          "durationTicks": 84,
          "midi": 32,
          "name": "G#1",
          "ticks": 21216,
          "time": 71.675604,
          "velocity": 0.8267716535433071
        },
        {
          "duration": 0.2837834999999984,
          "durationTicks": 84,
          "midi": 44,
          "name": "G#2",
          "ticks": 21216,
          "time": 71.675604,
          "velocity": 0.8267716535433071
        },
        {
          "duration": 0.2837834999999984,
          "durationTicks": 84,
          "midi": 25,
          "name": "C#1",
          "ticks": 21312,
          "time": 71.999928,
          "velocity": 0.8267716535433071
        },
        {
          "duration": 0.2837834999999984,
          "durationTicks": 84,
          "midi": 37,
          "name": "C#2",
          "ticks": 21408,
          "time": 72.324252,
          "velocity": 0.8267716535433071
        },
        {
          "duration": 0.2837834999999984,
          "durationTicks": 84,
          "midi": 25,
          "name": "C#1",
          "ticks": 21408,
          "time": 72.324252,
          "velocity": 0.8267716535433071
        },
        {
          "duration": 0.2837834999999984,
          "durationTicks": 84,
          "midi": 30,
          "name": "F#1",
          "ticks": 21504,
          "time": 72.648576,
          "velocity": 0.8267716535433071
        },
        {
          "duration": 0.2837834999999984,
          "durationTicks": 84,
          "midi": 42,
          "name": "F#2",
          "ticks": 21600,
          "time": 72.9729,
          "velocity": 0.8267716535433071
        },
        {
          "duration": 0.2837834999999984,
          "durationTicks": 84,
          "midi": 30,
          "name": "F#1",
          "ticks": 21600,
          "time": 72.9729,
          "velocity": 0.8267716535433071
        },
        {
          "duration": 0.2837834999999984,
          "durationTicks": 84,
          "midi": 30,
          "name": "F#1",
          "ticks": 21696,
          "time": 73.297224,
          "velocity": 0.8267716535433071
        },
        {
          "duration": 0.2837834999999984,
          "durationTicks": 84,
          "midi": 42,
          "name": "F#2",
          "ticks": 21792,
          "time": 73.621548,
          "velocity": 0.8267716535433071
        },
        {
          "duration": 0.2837834999999984,
          "durationTicks": 84,
          "midi": 30,
          "name": "F#1",
          "ticks": 21792,
          "time": 73.621548,
          "velocity": 0.8267716535433071
        },
        {
          "duration": 0.2837835000000126,
          "durationTicks": 84,
          "midi": 29,
          "name": "F1",
          "ticks": 21888,
          "time": 73.945872,
          "velocity": 0.8267716535433071
        },
        {
          "duration": 0.2837834999999984,
          "durationTicks": 84,
          "midi": 41,
          "name": "F2",
          "ticks": 21984,
          "time": 74.270196,
          "velocity": 0.8267716535433071
        },
        {
          "duration": 0.2837834999999984,
          "durationTicks": 84,
          "midi": 29,
          "name": "F1",
          "ticks": 21984,
          "time": 74.270196,
          "velocity": 0.8267716535433071
        },
        {
          "duration": 0.2837834999999984,
          "durationTicks": 84,
          "midi": 29,
          "name": "F1",
          "ticks": 22080,
          "time": 74.59452,
          "velocity": 0.8267716535433071
        },
        {
          "duration": 0.2837834999999984,
          "durationTicks": 84,
          "midi": 29,
          "name": "F1",
          "ticks": 22176,
          "time": 74.918844,
          "velocity": 0.8267716535433071
        },
        {
          "duration": 0.2837834999999984,
          "durationTicks": 84,
          "midi": 41,
          "name": "F2",
          "ticks": 22176,
          "time": 74.918844,
          "velocity": 0.8267716535433071
        },
        {
          "duration": 0.2837834999999984,
          "durationTicks": 84,
          "midi": 34,
          "name": "A#1",
          "ticks": 22272,
          "time": 75.243168,
          "velocity": 0.8267716535433071
        },
        {
          "duration": 0.2837834999999984,
          "durationTicks": 84,
          "midi": 46,
          "name": "A#2",
          "ticks": 22368,
          "time": 75.567492,
          "velocity": 0.8267716535433071
        },
        {
          "duration": 0.2837834999999984,
          "durationTicks": 84,
          "midi": 34,
          "name": "A#1",
          "ticks": 22368,
          "time": 75.567492,
          "velocity": 0.8267716535433071
        },
        {
          "duration": 0.2837834999999984,
          "durationTicks": 84,
          "midi": 34,
          "name": "A#1",
          "ticks": 22464,
          "time": 75.891816,
          "velocity": 0.8267716535433071
        },
        {
          "duration": 0.2837834999999984,
          "durationTicks": 84,
          "midi": 46,
          "name": "A#2",
          "ticks": 22560,
          "time": 76.21614,
          "velocity": 0.8267716535433071
        },
        {
          "duration": 0.2837834999999984,
          "durationTicks": 84,
          "midi": 34,
          "name": "A#1",
          "ticks": 22560,
          "time": 76.21614,
          "velocity": 0.8267716535433071
        },
        {
          "duration": 0.2837834999999984,
          "durationTicks": 84,
          "midi": 32,
          "name": "G#1",
          "ticks": 22656,
          "time": 76.540464,
          "velocity": 0.8267716535433071
        },
        {
          "duration": 0.2837834999999984,
          "durationTicks": 84,
          "midi": 32,
          "name": "G#1",
          "ticks": 22752,
          "time": 76.864788,
          "velocity": 0.8267716535433071
        },
        {
          "duration": 0.2837834999999984,
          "durationTicks": 84,
          "midi": 44,
          "name": "G#2",
          "ticks": 22752,
          "time": 76.864788,
          "velocity": 0.8267716535433071
        },
        {
          "duration": 0.2837835000000126,
          "durationTicks": 84,
          "midi": 25,
          "name": "C#1",
          "ticks": 22848,
          "time": 77.189112,
          "velocity": 0.8267716535433071
        },
        {
          "duration": 0.2837834999999984,
          "durationTicks": 84,
          "midi": 37,
          "name": "C#2",
          "ticks": 22944,
          "time": 77.513436,
          "velocity": 0.8267716535433071
        },
        {
          "duration": 0.2837834999999984,
          "durationTicks": 84,
          "midi": 25,
          "name": "C#1",
          "ticks": 22944,
          "time": 77.513436,
          "velocity": 0.8267716535433071
        },
        {
          "duration": 1.256755499999997,
          "durationTicks": 372,
          "midi": 25,
          "name": "C#1",
          "ticks": 23040,
          "time": 77.83776,
          "velocity": 0.8267716535433071
        },
        {
          "duration": 0.2837834999999984,
          "durationTicks": 84,
          "midi": 37,
          "name": "C#2",
          "ticks": 23232,
          "time": 78.486408,
          "velocity": 0.8267716535433071
        },
        {
          "duration": 0.2837834999999984,
          "durationTicks": 84,
          "midi": 25,
          "name": "C#1",
          "ticks": 23424,
          "time": 79.135056,
          "velocity": 0.8267716535433071
        },
        {
          "duration": 0.8918910000000011,
          "durationTicks": 264,
          "midi": 25,
          "name": "C#1",
          "ticks": 23520,
          "time": 79.45938,
          "velocity": 0.8267716535433071
        },
        {
          "duration": 0.2837834999999984,
          "durationTicks": 84,
          "midi": 37,
          "name": "C#2",
          "ticks": 23616,
          "time": 79.783704,
          "velocity": 0.8267716535433071
        },
        {
          "duration": 1.2567555000000112,
          "durationTicks": 372,
          "midi": 25,
          "name": "C#1",
          "ticks": 23808,
          "time": 80.432352,
          "velocity": 0.8267716535433071
        },
        {
          "duration": 0.2837834999999984,
          "durationTicks": 84,
          "midi": 37,
          "name": "C#2",
          "ticks": 24000,
          "time": 81.081,
          "velocity": 0.8267716535433071
        },
        {
          "duration": 0.6081075000000027,
          "durationTicks": 180,
          "midi": 25,
          "name": "C#1",
          "ticks": 24288,
          "time": 82.053972,
          "velocity": 0.8267716535433071
        },
        {
          "duration": 0.2837834999999984,
          "durationTicks": 84,
          "midi": 37,
          "name": "C#2",
          "ticks": 24384,
          "time": 82.378296,
          "velocity": 0.8267716535433071
        },
        {
          "duration": 0.2837834999999984,
          "durationTicks": 84,
          "midi": 25,
          "name": "C#1",
          "ticks": 24480,
          "time": 82.70262,
          "velocity": 0.8267716535433071
        },
        {
          "duration": 1.256755499999997,
          "durationTicks": 372,
          "midi": 25,
          "name": "C#1",
          "ticks": 24576,
          "time": 83.026944,
          "velocity": 0.8267716535433071
        },
        {
          "duration": 0.2837835000000126,
          "durationTicks": 84,
          "midi": 37,
          "name": "C#2",
          "ticks": 24768,
          "time": 83.675592,
          "velocity": 0.8267716535433071
        },
        {
          "duration": 0.2837834999999984,
          "durationTicks": 84,
          "midi": 25,
          "name": "C#1",
          "ticks": 24960,
          "time": 84.32424,
          "velocity": 0.8267716535433071
        },
        {
          "duration": 0.932431500000007,
          "durationTicks": 276,
          "midi": 25,
          "name": "C#1",
          "ticks": 25056,
          "time": 84.648564,
          "velocity": 0.8267716535433071
        },
        {
          "duration": 0.2837834999999984,
          "durationTicks": 84,
          "midi": 37,
          "name": "C#2",
          "ticks": 25152,
          "time": 84.972888,
          "velocity": 0.8267716535433071
        },
        {
          "duration": 1.256755499999997,
          "durationTicks": 372,
          "midi": 25,
          "name": "C#1",
          "ticks": 25344,
          "time": 85.621536,
          "velocity": 0.8267716535433071
        },
        {
          "duration": 0.2837834999999984,
          "durationTicks": 84,
          "midi": 37,
          "name": "C#2",
          "ticks": 25536,
          "time": 86.270184,
          "velocity": 0.8267716535433071
        },
        {
          "duration": 0.6081075000000027,
          "durationTicks": 180,
          "midi": 25,
          "name": "C#1",
          "ticks": 25824,
          "time": 87.243156,
          "velocity": 0.8267716535433071
        },
        {
          "duration": 0.2837834999999984,
          "durationTicks": 84,
          "midi": 37,
          "name": "C#2",
          "ticks": 25920,
          "time": 87.56748,
          "velocity": 0.8267716535433071
        },
        {
          "duration": 0.2837835000000126,
          "durationTicks": 84,
          "midi": 25,
          "name": "C#1",
          "ticks": 26016,
          "time": 87.891804,
          "velocity": 0.8267716535433071
        },
        {
          "duration": 1.256755499999997,
          "durationTicks": 372,
          "midi": 25,
          "name": "C#1",
          "ticks": 26112,
          "time": 88.216128,
          "velocity": 0.8267716535433071
        },
        {
          "duration": 0.2837834999999984,
          "durationTicks": 84,
          "midi": 37,
          "name": "C#2",
          "ticks": 26304,
          "time": 88.864776,
          "velocity": 0.8267716535433071
        },
        {
          "duration": 0.2837834999999984,
          "durationTicks": 84,
          "midi": 25,
          "name": "C#1",
          "ticks": 26496,
          "time": 89.513424,
          "velocity": 0.8267716535433071
        },
        {
          "duration": 0.8918910000000011,
          "durationTicks": 264,
          "midi": 25,
          "name": "C#1",
          "ticks": 26592,
          "time": 89.837748,
          "velocity": 0.8267716535433071
        },
        {
          "duration": 0.2837834999999984,
          "durationTicks": 84,
          "midi": 37,
          "name": "C#2",
          "ticks": 26688,
          "time": 90.162072,
          "velocity": 0.8267716535433071
        },
        {
          "duration": 1.256755499999997,
          "durationTicks": 372,
          "midi": 25,
          "name": "C#1",
          "ticks": 26880,
          "time": 90.81072,
          "velocity": 0.8267716535433071
        },
        {
          "duration": 0.2837834999999984,
          "durationTicks": 84,
          "midi": 37,
          "name": "C#2",
          "ticks": 27072,
          "time": 91.459368,
          "velocity": 0.8267716535433071
        },
        {
          "duration": 0.6081075000000027,
          "durationTicks": 180,
          "midi": 25,
          "name": "C#1",
          "ticks": 27360,
          "time": 92.43234,
          "velocity": 0.8267716535433071
        },
        {
          "duration": 0.2837834999999984,
          "durationTicks": 84,
          "midi": 37,
          "name": "C#2",
          "ticks": 27456,
          "time": 92.756664,
          "velocity": 0.8267716535433071
        },
        {
          "duration": 0.2837834999999984,
          "durationTicks": 84,
          "midi": 25,
          "name": "C#1",
          "ticks": 27552,
          "time": 93.080988,
          "velocity": 0.8267716535433071
        },
        {
          "duration": 1.2567555000000112,
          "durationTicks": 372,
          "midi": 25,
          "name": "C#1",
          "ticks": 27648,
          "time": 93.405312,
          "velocity": 0.8267716535433071
        },
        {
          "duration": 0.2837834999999984,
          "durationTicks": 84,
          "midi": 37,
          "name": "C#2",
          "ticks": 27840,
          "time": 94.05396,
          "velocity": 0.8267716535433071
        },
        {
          "duration": 0.2837834999999984,
          "durationTicks": 84,
          "midi": 25,
          "name": "C#1",
          "ticks": 28032,
          "time": 94.702608,
          "velocity": 0.8267716535433071
        },
        {
          "duration": 0.9324314999999928,
          "durationTicks": 276,
          "midi": 25,
          "name": "C#1",
          "ticks": 28128,
          "time": 95.026932,
          "velocity": 0.8267716535433071
        },
        {
          "duration": 0.2837834999999984,
          "durationTicks": 84,
          "midi": 37,
          "name": "C#2",
          "ticks": 28224,
          "time": 95.351256,
          "velocity": 0.8267716535433071
        },
        {
          "duration": 0.04054049999999165,
          "durationTicks": 12,
          "midi": 25,
          "name": "C#1",
          "ticks": 28800,
          "time": 97.2972,
          "velocity": 0.8267716535433071
        },
        {
          "duration": 0.040540500000005864,
          "durationTicks": 12,
          "midi": 26,
          "name": "D1",
          "ticks": 28824,
          "time": 97.378281,
          "velocity": 0.8267716535433071
        },
        {
          "duration": 0.040540500000005864,
          "durationTicks": 12,
          "midi": 27,
          "name": "D#1",
          "ticks": 28848,
          "time": 97.459362,
          "velocity": 0.8267716535433071
        },
        {
          "duration": 0.040540500000005864,
          "durationTicks": 12,
          "midi": 28,
          "name": "E1",
          "ticks": 28872,
          "time": 97.540443,
          "velocity": 0.8267716535433071
        },
        {
          "duration": 0.040540500000005864,
          "durationTicks": 12,
          "midi": 29,
          "name": "F1",
          "ticks": 28896,
          "time": 97.621524,
          "velocity": 0.8267716535433071
        },
        {
          "duration": 0.04054049999999165,
          "durationTicks": 12,
          "midi": 30,
          "name": "F#1",
          "ticks": 28920,
          "time": 97.702605,
          "velocity": 0.8267716535433071
        },
        {
          "duration": 0.04054049999999165,
          "durationTicks": 12,
          "midi": 31,
          "name": "G1",
          "ticks": 28944,
          "time": 97.783686,
          "velocity": 0.8031496062992126
        },
        {
          "duration": 0.040540500000005864,
          "durationTicks": 12,
          "midi": 32,
          "name": "G#1",
          "ticks": 28968,
          "time": 97.864767,
          "velocity": 0.7795275590551181
        },
        {
          "duration": 0.040540500000005864,
          "durationTicks": 12,
          "midi": 33,
          "name": "A1",
          "ticks": 28992,
          "time": 97.945848,
          "velocity": 0.7637795275590551
        },
        {
          "duration": 0.040540500000005864,
          "durationTicks": 12,
          "midi": 34,
          "name": "A#1",
          "ticks": 29016,
          "time": 98.026929,
          "velocity": 0.7401574803149606
        },
        {
          "duration": 0.04054049999999165,
          "durationTicks": 12,
          "midi": 35,
          "name": "B1",
          "ticks": 29040,
          "time": 98.10801000000001,
          "velocity": 0.7165354330708661
        },
        {
          "duration": 0.04054049999999165,
          "durationTicks": 12,
          "midi": 36,
          "name": "C2",
          "ticks": 29064,
          "time": 98.189091,
          "velocity": 0.6929133858267716
        },
        {
          "duration": 0.04054049999999165,
          "durationTicks": 12,
          "midi": 37,
          "name": "C#2",
          "ticks": 29088,
          "time": 98.270172,
          "velocity": 0.6692913385826772
        },
        {
          "duration": 0.040540500000005864,
          "durationTicks": 12,
          "midi": 38,
          "name": "D2",
          "ticks": 29112,
          "time": 98.351253,
          "velocity": 0.6456692913385826
        },
        {
          "duration": 0.040540500000005864,
          "durationTicks": 12,
          "midi": 39,
          "name": "D#2",
          "ticks": 29136,
          "time": 98.432334,
          "velocity": 0.6220472440944882
        },
        {
          "duration": 0.040540500000005864,
          "durationTicks": 12,
          "midi": 40,
          "name": "E2",
          "ticks": 29160,
          "time": 98.513415,
          "velocity": 0.6062992125984252
        },
        {
          "duration": 0.14864849999999308,
          "durationTicks": 44,
          "midi": 27,
          "name": "D#1",
          "ticks": 31872,
          "time": 107.675568,
          "velocity": 0.7086614173228346
        },
        {
          "duration": 0.14864849999999308,
          "durationTicks": 44,
          "midi": 39,
          "name": "D#2",
          "ticks": 31896,
          "time": 107.756649,
          "velocity": 0.7165354330708661
        },
        {
          "duration": 0.040540500000005864,
          "durationTicks": 12,
          "midi": 27,
          "name": "D#1",
          "ticks": 31920,
          "time": 107.83773,
          "velocity": 0.7244094488188977
        },
        {
          "duration": 0.04054049999999165,
          "durationTicks": 12,
          "midi": 27,
          "name": "D#1",
          "ticks": 31944,
          "time": 107.918811,
          "velocity": 0.7322834645669292
        },
        {
          "duration": 0.14864849999999308,
          "durationTicks": 44,
          "midi": 39,
          "name": "D#2",
          "ticks": 31968,
          "time": 107.999892,
          "velocity": 0.7401574803149606
        },
        {
          "duration": 0.040540500000005864,
          "durationTicks": 12,
          "midi": 27,
          "name": "D#1",
          "ticks": 31992,
          "time": 108.080973,
          "velocity": 0.7480314960629921
        },
        {
          "duration": 0.040540500000005864,
          "durationTicks": 12,
          "midi": 27,
          "name": "D#1",
          "ticks": 32016,
          "time": 108.162054,
          "velocity": 0.7559055118110236
        },
        {
          "duration": 0.040540500000005864,
          "durationTicks": 12,
          "midi": 39,
          "name": "D#2",
          "ticks": 32040,
          "time": 108.243135,
          "velocity": 0.7637795275590551
        },
        {
          "duration": 0.04054049999999165,
          "durationTicks": 12,
          "midi": 27,
          "name": "D#1",
          "ticks": 32064,
          "time": 108.324216,
          "velocity": 0.7716535433070866
        },
        {
          "duration": 0.14864849999999308,
          "durationTicks": 44,
          "midi": 39,
          "name": "D#2",
          "ticks": 32064,
          "time": 108.324216,
          "velocity": 0.7716535433070866
        },
        {
          "duration": 0.04054049999999165,
          "durationTicks": 12,
          "midi": 27,
          "name": "D#1",
          "ticks": 32088,
          "time": 108.405297,
          "velocity": 0.7795275590551181
        },
        {
          "duration": 0.04054049999999165,
          "durationTicks": 12,
          "midi": 27,
          "name": "D#1",
          "ticks": 32112,
          "time": 108.486378,
          "velocity": 0.7874015748031497
        },
        {
          "duration": 0.040540500000005864,
          "durationTicks": 12,
          "midi": 27,
          "name": "D#1",
          "ticks": 32136,
          "time": 108.567459,
          "velocity": 0.7952755905511811
        },
        {
          "duration": 0.040540500000005864,
          "durationTicks": 12,
          "midi": 27,
          "name": "D#1",
          "ticks": 32160,
          "time": 108.64854,
          "velocity": 0.8031496062992126
        },
        {
          "duration": 0.14864849999999308,
          "durationTicks": 44,
          "midi": 39,
          "name": "D#2",
          "ticks": 32160,
          "time": 108.64854,
          "velocity": 0.8031496062992126
        },
        {
          "duration": 0.040540500000005864,
          "durationTicks": 12,
          "midi": 27,
          "name": "D#1",
          "ticks": 32184,
          "time": 108.729621,
          "velocity": 0.8110236220472441
        },
        {
          "duration": 0.04054049999999165,
          "durationTicks": 12,
          "midi": 27,
          "name": "D#1",
          "ticks": 32208,
          "time": 108.810702,
          "velocity": 0.8188976377952756
        },
        {
          "duration": 0.04054049999999165,
          "durationTicks": 12,
          "midi": 39,
          "name": "D#2",
          "ticks": 32208,
          "time": 108.810702,
          "velocity": 0.8188976377952756
        },
        {
          "duration": 0.04054049999999165,
          "durationTicks": 12,
          "midi": 27,
          "name": "D#1",
          "ticks": 32232,
          "time": 108.891783,
          "velocity": 0.8267716535433071
        },
        {
          "duration": 0.04054049999999165,
          "durationTicks": 12,
          "midi": 39,
          "name": "D#2",
          "ticks": 32232,
          "time": 108.891783,
          "velocity": 0.8267716535433071
        },
        {
          "duration": 0.2567565000000087,
          "durationTicks": 76,
          "midi": 30,
          "name": "F#1",
          "ticks": 32256,
          "time": 108.972864,
          "velocity": 0.8267716535433071
        },
        {
          "duration": 0.2567564999999945,
          "durationTicks": 76,
          "midi": 30,
          "name": "F#1",
          "ticks": 32352,
          "time": 109.297188,
          "velocity": 0.7007874015748031
        },
        {
          "duration": 0.2567565000000087,
          "durationTicks": 76,
          "midi": 30,
          "name": "F#1",
          "ticks": 32448,
          "time": 109.621512,
          "velocity": 0.7007874015748031
        },
        {
          "duration": 0.2567565000000087,
          "durationTicks": 76,
          "midi": 30,
          "name": "F#1",
          "ticks": 32544,
          "time": 109.945836,
          "velocity": 0.7086614173228346
        },
        {
          "duration": 0.2567565000000087,
          "durationTicks": 76,
          "midi": 29,
          "name": "F1",
          "ticks": 32640,
          "time": 110.27016,
          "velocity": 0.7086614173228346
        },
        {
          "duration": 0.2567565000000087,
          "durationTicks": 76,
          "midi": 29,
          "name": "F1",
          "ticks": 32736,
          "time": 110.594484,
          "velocity": 0.7165354330708661
        },
        {
          "duration": 0.2567565000000087,
          "durationTicks": 76,
          "midi": 29,
          "name": "F1",
          "ticks": 32832,
          "time": 110.918808,
          "velocity": 0.7244094488188977
        },
        {
          "duration": 0.2567565000000087,
          "durationTicks": 76,
          "midi": 29,
          "name": "F1",
          "ticks": 32928,
          "time": 111.243132,
          "velocity": 0.7244094488188977
        },
        {
          "duration": 0.2567564999999945,
          "durationTicks": 76,
          "midi": 34,
          "name": "A#1",
          "ticks": 33024,
          "time": 111.567456,
          "velocity": 0.7322834645669292
        },
        {
          "duration": 0.2567565000000087,
          "durationTicks": 76,
          "midi": 34,
          "name": "A#1",
          "ticks": 33120,
          "time": 111.89178,
          "velocity": 0.7322834645669292
        },
        {
          "duration": 0.2567565000000087,
          "durationTicks": 76,
          "midi": 34,
          "name": "A#1",
          "ticks": 33216,
          "time": 112.216104,
          "velocity": 0.7401574803149606
        },
        {
          "duration": 0.2567564999999945,
          "durationTicks": 76,
          "midi": 34,
          "name": "A#1",
          "ticks": 33312,
          "time": 112.540428,
          "velocity": 0.7480314960629921
        },
        {
          "duration": 0.2567565000000087,
          "durationTicks": 76,
          "midi": 32,
          "name": "G#1",
          "ticks": 33408,
          "time": 112.864752,
          "velocity": 0.7480314960629921
        },
        {
          "duration": 0.2567565000000087,
          "durationTicks": 76,
          "midi": 32,
          "name": "G#1",
          "ticks": 33504,
          "time": 113.189076,
          "velocity": 0.7559055118110236
        },
        {
          "duration": 0.2567565000000087,
          "durationTicks": 76,
          "midi": 25,
          "name": "C#1",
          "ticks": 33600,
          "time": 113.5134,
          "velocity": 0.7559055118110236
        },
        {
          "duration": 0.2567565000000087,
          "durationTicks": 76,
          "midi": 25,
          "name": "C#1",
          "ticks": 33696,
          "time": 113.837724,
          "velocity": 0.7637795275590551
        },
        {
          "duration": 0.2567565000000087,
          "durationTicks": 76,
          "midi": 30,
          "name": "F#1",
          "ticks": 33792,
          "time": 114.162048,
          "velocity": 0.8267716535433071
        },
        {
          "duration": 0.2567565000000087,
          "durationTicks": 76,
          "midi": 30,
          "name": "F#1",
          "ticks": 33888,
          "time": 114.486372,
          "velocity": 0.8267716535433071
        },
        {
          "duration": 0.2567564999999945,
          "durationTicks": 76,
          "midi": 30,
          "name": "F#1",
          "ticks": 33984,
          "time": 114.81069600000001,
          "velocity": 0.8267716535433071
        },
        {
          "duration": 0.2567565000000087,
          "durationTicks": 76,
          "midi": 30,
          "name": "F#1",
          "ticks": 34080,
          "time": 115.13502,
          "velocity": 0.8267716535433071
        },
        {
          "duration": 0.2567565000000087,
          "durationTicks": 76,
          "midi": 29,
          "name": "F1",
          "ticks": 34176,
          "time": 115.459344,
          "velocity": 0.8267716535433071
        },
        {
          "duration": 0.2567564999999945,
          "durationTicks": 76,
          "midi": 29,
          "name": "F1",
          "ticks": 34272,
          "time": 115.783668,
          "velocity": 0.8267716535433071
        },
        {
          "duration": 0.2567565000000087,
          "durationTicks": 76,
          "midi": 29,
          "name": "F1",
          "ticks": 34368,
          "time": 116.107992,
          "velocity": 0.8267716535433071
        },
        {
          "duration": 0.2567565000000087,
          "durationTicks": 76,
          "midi": 29,
          "name": "F1",
          "ticks": 34464,
          "time": 116.432316,
          "velocity": 0.8267716535433071
        },
        {
          "duration": 0.06756749999999556,
          "durationTicks": 20,
          "midi": 34,
          "name": "A#1",
          "ticks": 34560,
          "time": 116.75664,
          "velocity": 0.8267716535433071
        },
        {
          "duration": 0.06756749999999556,
          "durationTicks": 20,
          "midi": 34,
          "name": "A#1",
          "ticks": 34584,
          "time": 116.837721,
          "velocity": 0.8267716535433071
        },
        {
          "duration": 0.06756749999999556,
          "durationTicks": 20,
          "midi": 34,
          "name": "A#1",
          "ticks": 34608,
          "time": 116.918802,
          "velocity": 0.8267716535433071
        },
        {
          "duration": 0.06756749999999556,
          "durationTicks": 20,
          "midi": 34,
          "name": "A#1",
          "ticks": 34632,
          "time": 116.999883,
          "velocity": 0.8267716535433071
        },
        {
          "duration": 0.06756749999999556,
          "durationTicks": 20,
          "midi": 34,
          "name": "A#1",
          "ticks": 34656,
          "time": 117.080964,
          "velocity": 0.8267716535433071
        },
        {
          "duration": 0.06756749999998135,
          "durationTicks": 20,
          "midi": 34,
          "name": "A#1",
          "ticks": 34680,
          "time": 117.162045,
          "velocity": 0.8267716535433071
        },
        {
          "duration": 0.06756749999999556,
          "durationTicks": 20,
          "midi": 34,
          "name": "A#1",
          "ticks": 34704,
          "time": 117.243126,
          "velocity": 0.8267716535433071
        },
        {
          "duration": 0.06756749999999556,
          "durationTicks": 20,
          "midi": 34,
          "name": "A#1",
          "ticks": 34728,
          "time": 117.324207,
          "velocity": 0.8267716535433071
        },
        {
          "duration": 0.06756749999999556,
          "durationTicks": 20,
          "midi": 34,
          "name": "A#1",
          "ticks": 34752,
          "time": 117.405288,
          "velocity": 0.8267716535433071
        },
        {
          "duration": 0.06756749999999556,
          "durationTicks": 20,
          "midi": 34,
          "name": "A#1",
          "ticks": 34776,
          "time": 117.486369,
          "velocity": 0.8267716535433071
        },
        {
          "duration": 0.06756749999999556,
          "durationTicks": 20,
          "midi": 34,
          "name": "A#1",
          "ticks": 34800,
          "time": 117.56745,
          "velocity": 0.8267716535433071
        },
        {
          "duration": 0.06756749999999556,
          "durationTicks": 20,
          "midi": 34,
          "name": "A#1",
          "ticks": 34824,
          "time": 117.648531,
          "velocity": 0.8267716535433071
        },
        {
          "duration": 0.06756749999999556,
          "durationTicks": 20,
          "midi": 34,
          "name": "A#1",
          "ticks": 34848,
          "time": 117.729612,
          "velocity": 0.8267716535433071
        },
        {
          "duration": 0.06756749999999556,
          "durationTicks": 20,
          "midi": 34,
          "name": "A#1",
          "ticks": 34872,
          "time": 117.810693,
          "velocity": 0.8267716535433071
        },
        {
          "duration": 0.06756749999999556,
          "durationTicks": 20,
          "midi": 34,
          "name": "A#1",
          "ticks": 34896,
          "time": 117.891774,
          "velocity": 0.8267716535433071
        },
        {
          "duration": 0.06756749999999556,
          "durationTicks": 20,
          "midi": 34,
          "name": "A#1",
          "ticks": 34920,
          "time": 117.972855,
          "velocity": 0.8267716535433071
        },
        {
          "duration": 0.06756749999998135,
          "durationTicks": 20,
          "midi": 34,
          "name": "A#1",
          "ticks": 34944,
          "time": 118.05393600000001,
          "velocity": 0.8267716535433071
        },
        {
          "duration": 0.06756749999999556,
          "durationTicks": 20,
          "midi": 34,
          "name": "A#1",
          "ticks": 34968,
          "time": 118.135017,
          "velocity": 0.8267716535433071
        },
        {
          "duration": 0.06756749999999556,
          "durationTicks": 20,
          "midi": 34,
          "name": "A#1",
          "ticks": 34992,
          "time": 118.216098,
          "velocity": 0.8267716535433071
        },
        {
          "duration": 0.06756749999999556,
          "durationTicks": 20,
          "midi": 34,
          "name": "A#1",
          "ticks": 35016,
          "time": 118.297179,
          "velocity": 0.8267716535433071
        },
        {
          "duration": 0.06756749999999556,
          "durationTicks": 20,
          "midi": 33,
          "name": "A1",
          "ticks": 35040,
          "time": 118.37826,
          "velocity": 0.8267716535433071
        },
        {
          "duration": 0.06756749999999556,
          "durationTicks": 20,
          "midi": 33,
          "name": "A1",
          "ticks": 35064,
          "time": 118.459341,
          "velocity": 0.8267716535433071
        },
        {
          "duration": 0.06756749999998135,
          "durationTicks": 20,
          "midi": 33,
          "name": "A1",
          "ticks": 35088,
          "time": 118.540422,
          "velocity": 0.8267716535433071
        },
        {
          "duration": 0.06756749999999556,
          "durationTicks": 20,
          "midi": 33,
          "name": "A1",
          "ticks": 35112,
          "time": 118.621503,
          "velocity": 0.8267716535433071
        },
        {
          "duration": 0.06756749999999556,
          "durationTicks": 20,
          "midi": 32,
          "name": "G#1",
          "ticks": 35136,
          "time": 118.702584,
          "velocity": 0.8267716535433071
        },
        {
          "duration": 0.06756749999999556,
          "durationTicks": 20,
          "midi": 32,
          "name": "G#1",
          "ticks": 35160,
          "time": 118.783665,
          "velocity": 0.8267716535433071
        },
        {
          "duration": 0.06756749999999556,
          "durationTicks": 20,
          "midi": 32,
          "name": "G#1",
          "ticks": 35184,
          "time": 118.864746,
          "velocity": 0.8267716535433071
        },
        {
          "duration": 0.06756749999999556,
          "durationTicks": 20,
          "midi": 32,
          "name": "G#1",
          "ticks": 35208,
          "time": 118.945827,
          "velocity": 0.8267716535433071
        },
        {
          "duration": 0.06756749999998135,
          "durationTicks": 20,
          "midi": 31,
          "name": "G1",
          "ticks": 35232,
          "time": 119.026908,
          "velocity": 0.8267716535433071
        },
        {
          "duration": 0.06756749999999556,
          "durationTicks": 20,
          "midi": 31,
          "name": "G1",
          "ticks": 35256,
          "time": 119.107989,
          "velocity": 0.8267716535433071
        },
        {
          "duration": 0.06756749999999556,
          "durationTicks": 20,
          "midi": 31,
          "name": "G1",
          "ticks": 35280,
          "time": 119.18907,
          "velocity": 0.8267716535433071
        },
        {
          "duration": 0.06756749999999556,
          "durationTicks": 20,
          "midi": 31,
          "name": "G1",
          "ticks": 35304,
          "time": 119.270151,
          "velocity": 0.8267716535433071
        },
        {
          "duration": 0.12162150000000338,
          "durationTicks": 36,
          "midi": 30,
          "name": "F#1",
          "ticks": 35952,
          "time": 121.459338,
          "velocity": 0.8267716535433071
        },
        {
          "duration": 0.3108105000000023,
          "durationTicks": 92,
          "midi": 30,
          "name": "F#1",
          "ticks": 36000,
          "time": 121.6215,
          "velocity": 0.8267716535433071
        },
        {
          "duration": 0.3108105000000023,
          "durationTicks": 92,
          "midi": 42,
          "name": "F#2",
          "ticks": 36000,
          "time": 121.6215,
          "velocity": 0.8267716535433071
        },
        {
          "duration": 0.2837834999999984,
          "durationTicks": 84,
          "midi": 35,
          "name": "B1",
          "ticks": 36096,
          "time": 121.945824,
          "velocity": 0.8267716535433071
        },
        {
          "duration": 0.2837834999999984,
          "durationTicks": 84,
          "midi": 35,
          "name": "B1",
          "ticks": 36192,
          "time": 122.270148,
          "velocity": 0.8267716535433071
        },
        {
          "duration": 0.2837834999999984,
          "durationTicks": 84,
          "midi": 47,
          "name": "B2",
          "ticks": 36192,
          "time": 122.270148,
          "velocity": 0.8267716535433071
        },
        {
          "duration": 0.2837834999999984,
          "durationTicks": 84,
          "midi": 35,
          "name": "B1",
          "ticks": 36288,
          "time": 122.594472,
          "velocity": 0.8267716535433071
        },
        {
          "duration": 0.2837834999999984,
          "durationTicks": 84,
          "midi": 47,
          "name": "B2",
          "ticks": 36384,
          "time": 122.918796,
          "velocity": 0.8267716535433071
        },
        {
          "duration": 0.2837834999999984,
          "durationTicks": 84,
          "midi": 35,
          "name": "B1",
          "ticks": 36384,
          "time": 122.918796,
          "velocity": 0.8267716535433071
        },
        {
          "duration": 0.2837834999999984,
          "durationTicks": 84,
          "midi": 33,
          "name": "A1",
          "ticks": 36480,
          "time": 123.24312,
          "velocity": 0.8267716535433071
        },
        {
          "duration": 0.2837835000000126,
          "durationTicks": 84,
          "midi": 45,
          "name": "A2",
          "ticks": 36576,
          "time": 123.567444,
          "velocity": 0.8267716535433071
        },
        {
          "duration": 0.2837835000000126,
          "durationTicks": 84,
          "midi": 33,
          "name": "A1",
          "ticks": 36576,
          "time": 123.567444,
          "velocity": 0.8267716535433071
        },
        {
          "duration": 0.2837834999999984,
          "durationTicks": 84,
          "midi": 26,
          "name": "D1",
          "ticks": 36672,
          "time": 123.891768,
          "velocity": 0.8267716535433071
        },
        {
          "duration": 0.2837834999999984,
          "durationTicks": 84,
          "midi": 26,
          "name": "D1",
          "ticks": 36768,
          "time": 124.216092,
          "velocity": 0.8267716535433071
        },
        {
          "duration": 0.2837834999999984,
          "durationTicks": 84,
          "midi": 38,
          "name": "D2",
          "ticks": 36768,
          "time": 124.216092,
          "velocity": 0.8267716535433071
        },
        {
          "duration": 0.2837835000000126,
          "durationTicks": 84,
          "midi": 31,
          "name": "G1",
          "ticks": 36864,
          "time": 124.540416,
          "velocity": 0.8267716535433071
        },
        {
          "duration": 0.2837834999999984,
          "durationTicks": 84,
          "midi": 31,
          "name": "G1",
          "ticks": 36960,
          "time": 124.86474,
          "velocity": 0.8267716535433071
        },
        {
          "duration": 0.2837834999999984,
          "durationTicks": 84,
          "midi": 43,
          "name": "G2",
          "ticks": 36960,
          "time": 124.86474,
          "velocity": 0.8267716535433071
        },
        {
          "duration": 0.2837834999999984,
          "durationTicks": 84,
          "midi": 31,
          "name": "G1",
          "ticks": 37056,
          "time": 125.189064,
          "velocity": 0.8267716535433071
        },
        {
          "duration": 0.2837834999999984,
          "durationTicks": 84,
          "midi": 31,
          "name": "G1",
          "ticks": 37152,
          "time": 125.513388,
          "velocity": 0.8267716535433071
        },
        {
          "duration": 0.2837834999999984,
          "durationTicks": 84,
          "midi": 43,
          "name": "G2",
          "ticks": 37152,
          "time": 125.513388,
          "velocity": 0.8267716535433071
        },
        {
          "duration": 0.2837834999999984,
          "durationTicks": 84,
          "midi": 30,
          "name": "F#1",
          "ticks": 37248,
          "time": 125.837712,
          "velocity": 0.8267716535433071
        },
        {
          "duration": 0.2837834999999984,
          "durationTicks": 84,
          "midi": 30,
          "name": "F#1",
          "ticks": 37344,
          "time": 126.162036,
          "velocity": 0.8267716535433071
        },
        {
          "duration": 0.2837834999999984,
          "durationTicks": 84,
          "midi": 42,
          "name": "F#2",
          "ticks": 37344,
          "time": 126.162036,
          "velocity": 0.8267716535433071
        },
        {
          "duration": 0.2837834999999984,
          "durationTicks": 84,
          "midi": 30,
          "name": "F#1",
          "ticks": 37440,
          "time": 126.48636,
          "velocity": 0.8267716535433071
        },
        {
          "duration": 0.2837835000000126,
          "durationTicks": 84,
          "midi": 42,
          "name": "F#2",
          "ticks": 37536,
          "time": 126.810684,
          "velocity": 0.8267716535433071
        },
        {
          "duration": 0.2837835000000126,
          "durationTicks": 84,
          "midi": 30,
          "name": "F#1",
          "ticks": 37536,
          "time": 126.810684,
          "velocity": 0.8267716535433071
        },
        {
          "duration": 0.2837834999999984,
          "durationTicks": 84,
          "midi": 35,
          "name": "B1",
          "ticks": 37632,
          "time": 127.135008,
          "velocity": 0.8267716535433071
        },
        {
          "duration": 0.2837834999999984,
          "durationTicks": 84,
          "midi": 35,
          "name": "B1",
          "ticks": 37728,
          "time": 127.459332,
          "velocity": 0.8267716535433071
        },
        {
          "duration": 0.2837834999999984,
          "durationTicks": 84,
          "midi": 47,
          "name": "B2",
          "ticks": 37728,
          "time": 127.459332,
          "velocity": 0.8267716535433071
        },
        {
          "duration": 0.2837835000000126,
          "durationTicks": 84,
          "midi": 35,
          "name": "B1",
          "ticks": 37824,
          "time": 127.783656,
          "velocity": 0.8267716535433071
        },
        {
          "duration": 0.2837834999999984,
          "durationTicks": 84,
          "midi": 47,
          "name": "B2",
          "ticks": 37920,
          "time": 128.10798,
          "velocity": 0.8267716535433071
        },
        {
          "duration": 0.2837834999999984,
          "durationTicks": 84,
          "midi": 35,
          "name": "B1",
          "ticks": 37920,
          "time": 128.10798,
          "velocity": 0.8267716535433071
        },
        {
          "duration": 0.28378350000002683,
          "durationTicks": 84,
          "midi": 28,
          "name": "E1",
          "ticks": 38016,
          "time": 128.432304,
          "velocity": 0.8267716535433071
        },
        {
          "duration": 0.2837834999999984,
          "durationTicks": 84,
          "midi": 28,
          "name": "E1",
          "ticks": 38112,
          "time": 128.756628,
          "velocity": 0.8267716535433071
        },
        {
          "duration": 0.2837834999999984,
          "durationTicks": 84,
          "midi": 40,
          "name": "E2",
          "ticks": 38112,
          "time": 128.756628,
          "velocity": 0.8267716535433071
        },
        {
          "duration": 0.2837834999999984,
          "durationTicks": 84,
          "midi": 28,
          "name": "E1",
          "ticks": 38208,
          "time": 129.080952,
          "velocity": 0.8267716535433071
        },
        {
          "duration": 0.28378350000002683,
          "durationTicks": 84,
          "midi": 40,
          "name": "E2",
          "ticks": 38304,
          "time": 129.405276,
          "velocity": 0.8267716535433071
        },
        {
          "duration": 0.28378350000002683,
          "durationTicks": 84,
          "midi": 28,
          "name": "E1",
          "ticks": 38304,
          "time": 129.405276,
          "velocity": 0.8267716535433071
        },
        {
          "duration": 0.2837834999999984,
          "durationTicks": 84,
          "midi": 31,
          "name": "G1",
          "ticks": 38400,
          "time": 129.7296,
          "velocity": 0.8267716535433071
        },
        {
          "duration": 0.2837834999999984,
          "durationTicks": 84,
          "midi": 43,
          "name": "G2",
          "ticks": 38496,
          "time": 130.053924,
          "velocity": 0.8267716535433071
        },
        {
          "duration": 0.2837834999999984,
          "durationTicks": 84,
          "midi": 31,
          "name": "G1",
          "ticks": 38496,
          "time": 130.053924,
          "velocity": 0.8267716535433071
        },
        {
          "duration": 0.2837834999999984,
          "durationTicks": 84,
          "midi": 31,
          "name": "G1",
          "ticks": 38592,
          "time": 130.378248,
          "velocity": 0.8267716535433071
        },
        {
          "duration": 0.2837834999999984,
          "durationTicks": 84,
          "midi": 43,
          "name": "G2",
          "ticks": 38688,
          "time": 130.702572,
          "velocity": 0.8267716535433071
        },
        {
          "duration": 0.2837834999999984,
          "durationTicks": 84,
          "midi": 31,
          "name": "G1",
          "ticks": 38688,
          "time": 130.702572,
          "velocity": 0.8267716535433071
        },
        {
          "duration": 0.2837834999999984,
          "durationTicks": 84,
          "midi": 30,
          "name": "F#1",
          "ticks": 38784,
          "time": 131.026896,
          "velocity": 0.8267716535433071
        },
        {
          "duration": 0.2837834999999984,
          "durationTicks": 84,
          "midi": 30,
          "name": "F#1",
          "ticks": 38880,
          "time": 131.35122,
          "velocity": 0.8267716535433071
        },
        {
          "duration": 0.2837834999999984,
          "durationTicks": 84,
          "midi": 42,
          "name": "F#2",
          "ticks": 38880,
          "time": 131.35122,
          "velocity": 0.8267716535433071
        },
        {
          "duration": 0.2837834999999984,
          "durationTicks": 84,
          "midi": 30,
          "name": "F#1",
          "ticks": 38976,
          "time": 131.675544,
          "velocity": 0.8267716535433071
        },
        {
          "duration": 0.2837834999999984,
          "durationTicks": 84,
          "midi": 42,
          "name": "F#2",
          "ticks": 39072,
          "time": 131.999868,
          "velocity": 0.8267716535433071
        },
        {
          "duration": 0.2837834999999984,
          "durationTicks": 84,
          "midi": 30,
          "name": "F#1",
          "ticks": 39072,
          "time": 131.999868,
          "velocity": 0.8267716535433071
        },
        {
          "duration": 0.2837834999999984,
          "durationTicks": 84,
          "midi": 35,
          "name": "B1",
          "ticks": 39168,
          "time": 132.324192,
          "velocity": 0.8267716535433071
        },
        {
          "duration": 0.2837834999999984,
          "durationTicks": 84,
          "midi": 35,
          "name": "B1",
          "ticks": 39264,
          "time": 132.648516,
          "velocity": 0.8267716535433071
        },
        {
          "duration": 0.2837834999999984,
          "durationTicks": 84,
          "midi": 47,
          "name": "B2",
          "ticks": 39264,
          "time": 132.648516,
          "velocity": 0.8267716535433071
        },
        {
          "duration": 0.2837834999999984,
          "durationTicks": 84,
          "midi": 35,
          "name": "B1",
          "ticks": 39360,
          "time": 132.97284,
          "velocity": 0.8267716535433071
        },
        {
          "duration": 0.2837834999999984,
          "durationTicks": 84,
          "midi": 35,
          "name": "B1",
          "ticks": 39456,
          "time": 133.297164,
          "velocity": 0.8267716535433071
        },
        {
          "duration": 0.2837834999999984,
          "durationTicks": 84,
          "midi": 47,
          "name": "B2",
          "ticks": 39456,
          "time": 133.297164,
          "velocity": 0.8267716535433071
        },
        {
          "duration": 0.2837834999999984,
          "durationTicks": 84,
          "midi": 33,
          "name": "A1",
          "ticks": 39552,
          "time": 133.621488,
          "velocity": 0.8267716535433071
        },
        {
          "duration": 0.2837834999999984,
          "durationTicks": 84,
          "midi": 45,
          "name": "A2",
          "ticks": 39648,
          "time": 133.945812,
          "velocity": 0.8267716535433071
        },
        {
          "duration": 0.2837834999999984,
          "durationTicks": 84,
          "midi": 33,
          "name": "A1",
          "ticks": 39648,
          "time": 133.945812,
          "velocity": 0.8267716535433071
        },
        {
          "duration": 0.2837834999999984,
          "durationTicks": 84,
          "midi": 26,
          "name": "D1",
          "ticks": 39744,
          "time": 134.270136,
          "velocity": 0.8267716535433071
        },
        {
          "duration": 0.2837834999999984,
          "durationTicks": 84,
          "midi": 38,
          "name": "D2",
          "ticks": 39840,
          "time": 134.59446,
          "velocity": 0.8267716535433071
        },
        {
          "duration": 0.2837834999999984,
          "durationTicks": 84,
          "midi": 26,
          "name": "D1",
          "ticks": 39840,
          "time": 134.59446,
          "velocity": 0.8267716535433071
        },
        {
          "duration": 0.2837834999999984,
          "durationTicks": 84,
          "midi": 31,
          "name": "G1",
          "ticks": 39936,
          "time": 134.918784,
          "velocity": 0.8267716535433071
        },
        {
          "duration": 0.2837834999999984,
          "durationTicks": 84,
          "midi": 43,
          "name": "G2",
          "ticks": 40032,
          "time": 135.243108,
          "velocity": 0.8267716535433071
        },
        {
          "duration": 0.2837834999999984,
          "durationTicks": 84,
          "midi": 31,
          "name": "G1",
          "ticks": 40032,
          "time": 135.243108,
          "velocity": 0.8267716535433071
        },
        {
          "duration": 0.2837834999999984,
          "durationTicks": 84,
          "midi": 31,
          "name": "G1",
          "ticks": 40128,
          "time": 135.567432,
          "velocity": 0.8267716535433071
        },
        {
          "duration": 0.28378350000002683,
          "durationTicks": 84,
          "midi": 31,
          "name": "G1",
          "ticks": 40224,
          "time": 135.891756,
          "velocity": 0.8267716535433071
        },
        {
          "duration": 0.28378350000002683,
          "durationTicks": 84,
          "midi": 43,
          "name": "G2",
          "ticks": 40224,
          "time": 135.891756,
          "velocity": 0.8267716535433071
        },
        {
          "duration": 0.2837834999999984,
          "durationTicks": 84,
          "midi": 30,
          "name": "F#1",
          "ticks": 40320,
          "time": 136.21608,
          "velocity": 0.8267716535433071
        },
        {
          "duration": 0.2837834999999984,
          "durationTicks": 84,
          "midi": 42,
          "name": "F#2",
          "ticks": 40416,
          "time": 136.540404,
          "velocity": 0.8267716535433071
        },
        {
          "duration": 0.2837834999999984,
          "durationTicks": 84,
          "midi": 30,
          "name": "F#1",
          "ticks": 40416,
          "time": 136.540404,
          "velocity": 0.8267716535433071
        },
        {
          "duration": 0.2837834999999984,
          "durationTicks": 84,
          "midi": 30,
          "name": "F#1",
          "ticks": 40512,
          "time": 136.864728,
          "velocity": 0.8267716535433071
        },
        {
          "duration": 0.2837834999999984,
          "durationTicks": 84,
          "midi": 30,
          "name": "F#1",
          "ticks": 40608,
          "time": 137.189052,
          "velocity": 0.8267716535433071
        },
        {
          "duration": 0.2837834999999984,
          "durationTicks": 84,
          "midi": 42,
          "name": "F#2",
          "ticks": 40608,
          "time": 137.189052,
          "velocity": 0.8267716535433071
        },
        {
          "duration": 0.2837834999999984,
          "durationTicks": 84,
          "midi": 35,
          "name": "B1",
          "ticks": 40704,
          "time": 137.513376,
          "velocity": 0.8267716535433071
        },
        {
          "duration": 0.2837834999999984,
          "durationTicks": 84,
          "midi": 47,
          "name": "B2",
          "ticks": 40800,
          "time": 137.8377,
          "velocity": 0.8267716535433071
        },
        {
          "duration": 0.2837834999999984,
          "durationTicks": 84,
          "midi": 35,
          "name": "B1",
          "ticks": 40800,
          "time": 137.8377,
          "velocity": 0.8267716535433071
        },
        {
          "duration": 0.2837834999999984,
          "durationTicks": 84,
          "midi": 35,
          "name": "B1",
          "ticks": 40896,
          "time": 138.162024,
          "velocity": 0.8267716535433071
        },
        {
          "duration": 0.2837834999999984,
          "durationTicks": 84,
          "midi": 47,
          "name": "B2",
          "ticks": 40992,
          "time": 138.486348,
          "velocity": 0.8267716535433071
        },
        {
          "duration": 0.2837834999999984,
          "durationTicks": 84,
          "midi": 35,
          "name": "B1",
          "ticks": 40992,
          "time": 138.486348,
          "velocity": 0.8267716535433071
        },
        {
          "duration": 0.2837834999999984,
          "durationTicks": 84,
          "midi": 35,
          "name": "B1",
          "ticks": 41088,
          "time": 138.810672,
          "velocity": 0.8267716535433071
        },
        {
          "duration": 0.2837834999999984,
          "durationTicks": 84,
          "midi": 34,
          "name": "A#1",
          "ticks": 41184,
          "time": 139.134996,
          "velocity": 0.8267716535433071
        },
        {
          "duration": 0.2837834999999984,
          "durationTicks": 84,
          "midi": 46,
          "name": "A#2",
          "ticks": 41184,
          "time": 139.134996,
          "velocity": 0.8267716535433071
        },
        {
          "duration": 0.2837834999999984,
          "durationTicks": 84,
          "midi": 33,
          "name": "A1",
          "ticks": 41280,
          "time": 139.45932,
          "velocity": 0.8267716535433071
        },
        {
          "duration": 0.2837834999999984,
          "durationTicks": 84,
          "midi": 44,
          "name": "G#2",
          "ticks": 41376,
          "time": 139.783644,
          "velocity": 0.8267716535433071
        },
        {
          "duration": 0.2837834999999984,
          "durationTicks": 84,
          "midi": 32,
          "name": "G#1",
          "ticks": 41376,
          "time": 139.783644,
          "velocity": 0.8267716535433071
        },
        {
          "duration": 0.2837834999999984,
          "durationTicks": 84,
          "midi": 26,
          "name": "D1",
          "ticks": 41472,
          "time": 140.107968,
          "velocity": 0.8267716535433071
        },
        {
          "duration": 0.2837834999999984,
          "durationTicks": 84,
          "midi": 38,
          "name": "D2",
          "ticks": 41568,
          "time": 140.432292,
          "velocity": 0.8267716535433071
        },
        {
          "duration": 0.12162149999997496,
          "durationTicks": 36,
          "midi": 26,
          "name": "D1",
          "ticks": 41616,
          "time": 140.594454,
          "velocity": 0.8267716535433071
        },
        {
          "duration": 0.12162150000000338,
          "durationTicks": 36,
          "midi": 26,
          "name": "D1",
          "ticks": 41664,
          "time": 140.756616,
          "velocity": 0.8267716535433071
        },
        {
          "duration": 0.32432399999999006,
          "durationTicks": 96,
          "midi": 38,
          "name": "D2",
          "ticks": 41760,
          "time": 141.08094,
          "velocity": 0.8267716535433071
        },
        {
          "duration": 0.040540500000020074,
          "durationTicks": 12,
          "midi": 26,
          "name": "D1",
          "ticks": 41856,
          "time": 141.405264,
          "velocity": 0.8267716535433071
        },
        {
          "duration": 0.04054049999999165,
          "durationTicks": 12,
          "midi": 27,
          "name": "D#1",
          "ticks": 41880,
          "time": 141.486345,
          "velocity": 0.8267716535433071
        },
        {
          "duration": 0.04054049999999165,
          "durationTicks": 12,
          "midi": 28,
          "name": "E1",
          "ticks": 41904,
          "time": 141.567426,
          "velocity": 0.8267716535433071
        },
        {
          "duration": 0.04054049999999165,
          "durationTicks": 12,
          "midi": 29,
          "name": "F1",
          "ticks": 41928,
          "time": 141.648507,
          "velocity": 0.8267716535433071
        },
        {
          "duration": 0.04054049999999165,
          "durationTicks": 12,
          "midi": 30,
          "name": "F#1",
          "ticks": 41952,
          "time": 141.729588,
          "velocity": 0.8267716535433071
        },
        {
          "duration": 0.040540500000020074,
          "durationTicks": 12,
          "midi": 31,
          "name": "G1",
          "ticks": 41976,
          "time": 141.810669,
          "velocity": 0.8267716535433071
        },
        {
          "duration": 0.04054049999999165,
          "durationTicks": 12,
          "midi": 32,
          "name": "G#1",
          "ticks": 42000,
          "time": 141.89175,
          "velocity": 0.8031496062992126
        },
        {
          "duration": 0.04054049999999165,
          "durationTicks": 12,
          "midi": 33,
          "name": "A1",
          "ticks": 42024,
          "time": 141.972831,
          "velocity": 0.7795275590551181
        },
        {
          "duration": 0.04054049999999165,
          "durationTicks": 12,
          "midi": 34,
          "name": "A#1",
          "ticks": 42048,
          "time": 142.053912,
          "velocity": 0.7637795275590551
        },
        {
          "duration": 0.04054049999999165,
          "durationTicks": 12,
          "midi": 35,
          "name": "B1",
          "ticks": 42072,
          "time": 142.134993,
          "velocity": 0.7401574803149606
        },
        {
          "duration": 0.040540500000020074,
          "durationTicks": 12,
          "midi": 36,
          "name": "C2",
          "ticks": 42096,
          "time": 142.216074,
          "velocity": 0.7165354330708661
        },
        {
          "duration": 0.04054049999999165,
          "durationTicks": 12,
          "midi": 37,
          "name": "C#2",
          "ticks": 42120,
          "time": 142.297155,
          "velocity": 0.6929133858267716
        },
        {
          "duration": 0.040540500000020074,
          "durationTicks": 12,
          "midi": 38,
          "name": "D2",
          "ticks": 42144,
          "time": 142.378236,
          "velocity": 0.6692913385826772
        },
        {
          "duration": 0.04054049999999165,
          "durationTicks": 12,
          "midi": 39,
          "name": "D#2",
          "ticks": 42168,
          "time": 142.459317,
          "velocity": 0.6456692913385826
        },
        {
          "duration": 0.04054049999999165,
          "durationTicks": 12,
          "midi": 40,
          "name": "E2",
          "ticks": 42192,
          "time": 142.540398,
          "velocity": 0.6220472440944882
        },
        {
          "duration": 0.040540500000020074,
          "durationTicks": 12,
          "midi": 41,
          "name": "F2",
          "ticks": 42216,
          "time": 142.621479,
          "velocity": 0.6062992125984252
        },
        {
          "duration": 0.2837834999999984,
          "durationTicks": 84,
          "midi": 31,
          "name": "G1",
          "ticks": 42240,
          "time": 142.70256,
          "velocity": 0.8267716535433071
        },
        {
          "duration": 0.2837834999999984,
          "durationTicks": 84,
          "midi": 31,
          "name": "G1",
          "ticks": 42336,
          "time": 143.026884,
          "velocity": 0.8267716535433071
        },
        {
          "duration": 0.2837834999999984,
          "durationTicks": 84,
          "midi": 43,
          "name": "G2",
          "ticks": 42336,
          "time": 143.026884,
          "velocity": 0.8267716535433071
        },
        {
          "duration": 0.2837834999999984,
          "durationTicks": 84,
          "midi": 31,
          "name": "G1",
          "ticks": 42432,
          "time": 143.351208,
          "velocity": 0.8267716535433071
        },
        {
          "duration": 0.2837834999999984,
          "durationTicks": 84,
          "midi": 43,
          "name": "G2",
          "ticks": 42528,
          "time": 143.675532,
          "velocity": 0.8267716535433071
        },
        {
          "duration": 0.2837834999999984,
          "durationTicks": 84,
          "midi": 31,
          "name": "G1",
          "ticks": 42528,
          "time": 143.675532,
          "velocity": 0.8267716535433071
        },
        {
          "duration": 0.2837834999999984,
          "durationTicks": 84,
          "midi": 30,
          "name": "F#1",
          "ticks": 42624,
          "time": 143.999856,
          "velocity": 0.8267716535433071
        },
        {
          "duration": 0.2837834999999984,
          "durationTicks": 84,
          "midi": 30,
          "name": "F#1",
          "ticks": 42720,
          "time": 144.32418,
          "velocity": 0.8267716535433071
        },
        {
          "duration": 0.2837834999999984,
          "durationTicks": 84,
          "midi": 42,
          "name": "F#2",
          "ticks": 42720,
          "time": 144.32418,
          "velocity": 0.8267716535433071
        },
        {
          "duration": 0.2837834999999984,
          "durationTicks": 84,
          "midi": 30,
          "name": "F#1",
          "ticks": 42816,
          "time": 144.648504,
          "velocity": 0.8267716535433071
        },
        {
          "duration": 0.2837834999999984,
          "durationTicks": 84,
          "midi": 30,
          "name": "F#1",
          "ticks": 42912,
          "time": 144.972828,
          "velocity": 0.8267716535433071
        },
        {
          "duration": 0.2837834999999984,
          "durationTicks": 84,
          "midi": 42,
          "name": "F#2",
          "ticks": 42912,
          "time": 144.972828,
          "velocity": 0.8267716535433071
        },
        {
          "duration": 0.2837834999999984,
          "durationTicks": 84,
          "midi": 35,
          "name": "B1",
          "ticks": 43008,
          "time": 145.297152,
          "velocity": 0.8267716535433071
        },
        {
          "duration": 0.2837834999999984,
          "durationTicks": 84,
          "midi": 47,
          "name": "B2",
          "ticks": 43104,
          "time": 145.621476,
          "velocity": 0.8267716535433071
        },
        {
          "duration": 0.2837834999999984,
          "durationTicks": 84,
          "midi": 35,
          "name": "B1",
          "ticks": 43104,
          "time": 145.621476,
          "velocity": 0.8267716535433071
        },
        {
          "duration": 0.2837834999999984,
          "durationTicks": 84,
          "midi": 35,
          "name": "B1",
          "ticks": 43200,
          "time": 145.9458,
          "velocity": 0.8267716535433071
        },
        {
          "duration": 0.2837834999999984,
          "durationTicks": 84,
          "midi": 35,
          "name": "B1",
          "ticks": 43296,
          "time": 146.270124,
          "velocity": 0.8267716535433071
        },
        {
          "duration": 0.2837834999999984,
          "durationTicks": 84,
          "midi": 47,
          "name": "B2",
          "ticks": 43296,
          "time": 146.270124,
          "velocity": 0.8267716535433071
        },
        {
          "duration": 0.2837834999999984,
          "durationTicks": 84,
          "midi": 33,
          "name": "A1",
          "ticks": 43392,
          "time": 146.594448,
          "velocity": 0.8267716535433071
        },
        {
          "duration": 0.2837834999999984,
          "durationTicks": 84,
          "midi": 45,
          "name": "A2",
          "ticks": 43488,
          "time": 146.918772,
          "velocity": 0.8267716535433071
        },
        {
          "duration": 0.2837834999999984,
          "durationTicks": 84,
          "midi": 33,
          "name": "A1",
          "ticks": 43488,
          "time": 146.918772,
          "velocity": 0.8267716535433071
        },
        {
          "duration": 0.2837834999999984,
          "durationTicks": 84,
          "midi": 26,
          "name": "D1",
          "ticks": 43584,
          "time": 147.243096,
          "velocity": 0.8267716535433071
        },
        {
          "duration": 0.2837834999999984,
          "durationTicks": 84,
          "midi": 38,
          "name": "D2",
          "ticks": 43680,
          "time": 147.56742,
          "velocity": 0.8267716535433071
        },
        {
          "duration": 0.2837834999999984,
          "durationTicks": 84,
          "midi": 26,
          "name": "D1",
          "ticks": 43680,
          "time": 147.56742,
          "velocity": 0.8267716535433071
        },
        {
          "duration": 0.2837834999999984,
          "durationTicks": 84,
          "midi": 31,
          "name": "G1",
          "ticks": 43776,
          "time": 147.891744,
          "velocity": 0.8267716535433071
        },
        {
          "duration": 0.2837834999999984,
          "durationTicks": 84,
          "midi": 43,
          "name": "G2",
          "ticks": 43872,
          "time": 148.216068,
          "velocity": 0.8267716535433071
        },
        {
          "duration": 0.2837834999999984,
          "durationTicks": 84,
          "midi": 31,
          "name": "G1",
          "ticks": 43872,
          "time": 148.216068,
          "velocity": 0.8267716535433071
        },
        {
          "duration": 0.2837834999999984,
          "durationTicks": 84,
          "midi": 31,
          "name": "G1",
          "ticks": 43968,
          "time": 148.540392,
          "velocity": 0.8267716535433071
        },
        {
          "duration": 0.28378350000002683,
          "durationTicks": 84,
          "midi": 31,
          "name": "G1",
          "ticks": 44064,
          "time": 148.864716,
          "velocity": 0.8267716535433071
        },
        {
          "duration": 0.28378350000002683,
          "durationTicks": 84,
          "midi": 43,
          "name": "G2",
          "ticks": 44064,
          "time": 148.864716,
          "velocity": 0.8267716535433071
        },
        {
          "duration": 0.2837834999999984,
          "durationTicks": 84,
          "midi": 30,
          "name": "F#1",
          "ticks": 44160,
          "time": 149.18904,
          "velocity": 0.8267716535433071
        },
        {
          "duration": 0.2837834999999984,
          "durationTicks": 84,
          "midi": 42,
          "name": "F#2",
          "ticks": 44256,
          "time": 149.513364,
          "velocity": 0.8267716535433071
        },
        {
          "duration": 0.2837834999999984,
          "durationTicks": 84,
          "midi": 30,
          "name": "F#1",
          "ticks": 44256,
          "time": 149.513364,
          "velocity": 0.8267716535433071
        },
        {
          "duration": 0.2837834999999984,
          "durationTicks": 84,
          "midi": 30,
          "name": "F#1",
          "ticks": 44352,
          "time": 149.837688,
          "velocity": 0.8267716535433071
        },
        {
          "duration": 0.2837834999999984,
          "durationTicks": 84,
          "midi": 30,
          "name": "F#1",
          "ticks": 44448,
          "time": 150.162012,
          "velocity": 0.8267716535433071
        },
        {
          "duration": 0.2837834999999984,
          "durationTicks": 84,
          "midi": 42,
          "name": "F#2",
          "ticks": 44448,
          "time": 150.162012,
          "velocity": 0.8267716535433071
        },
        {
          "duration": 0.2837834999999984,
          "durationTicks": 84,
          "midi": 35,
          "name": "B1",
          "ticks": 44544,
          "time": 150.486336,
          "velocity": 0.8267716535433071
        },
        {
          "duration": 0.2837834999999984,
          "durationTicks": 84,
          "midi": 35,
          "name": "B1",
          "ticks": 44640,
          "time": 150.81066,
          "velocity": 0.8267716535433071
        },
        {
          "duration": 0.2837834999999984,
          "durationTicks": 84,
          "midi": 47,
          "name": "B2",
          "ticks": 44640,
          "time": 150.81066,
          "velocity": 0.8267716535433071
        },
        {
          "duration": 0.2837834999999984,
          "durationTicks": 84,
          "midi": 35,
          "name": "B1",
          "ticks": 44736,
          "time": 151.134984,
          "velocity": 0.8267716535433071
        },
        {
          "duration": 0.2837834999999984,
          "durationTicks": 84,
          "midi": 35,
          "name": "B1",
          "ticks": 44832,
          "time": 151.459308,
          "velocity": 0.8267716535433071
        },
        {
          "duration": 0.2837834999999984,
          "durationTicks": 84,
          "midi": 47,
          "name": "B2",
          "ticks": 44832,
          "time": 151.459308,
          "velocity": 0.8267716535433071
        },
        {
          "duration": 0.2837834999999984,
          "durationTicks": 84,
          "midi": 33,
          "name": "A1",
          "ticks": 44928,
          "time": 151.783632,
          "velocity": 0.8267716535433071
        },
        {
          "duration": 0.2837834999999984,
          "durationTicks": 84,
          "midi": 33,
          "name": "A1",
          "ticks": 45024,
          "time": 152.107956,
          "velocity": 0.8267716535433071
        },
        {
          "duration": 0.2837834999999984,
          "durationTicks": 84,
          "midi": 45,
          "name": "A2",
          "ticks": 45024,
          "time": 152.107956,
          "velocity": 0.8267716535433071
        },
        {
          "duration": 0.2837834999999984,
          "durationTicks": 84,
          "midi": 26,
          "name": "D1",
          "ticks": 45120,
          "time": 152.43228,
          "velocity": 0.8267716535433071
        },
        {
          "duration": 0.2837834999999984,
          "durationTicks": 84,
          "midi": 26,
          "name": "D1",
          "ticks": 45216,
          "time": 152.756604,
          "velocity": 0.8267716535433071
        },
        {
          "duration": 0.2837834999999984,
          "durationTicks": 84,
          "midi": 38,
          "name": "D2",
          "ticks": 45216,
          "time": 152.756604,
          "velocity": 0.8267716535433071
        },
        {
          "duration": 0.6486480000000086,
          "durationTicks": 192,
          "midi": 26,
          "name": "D1",
          "ticks": 45312,
          "time": 153.080928,
          "velocity": 0.8188976377952756
        }
      ],
      "endOfTrackTicks": 46086
    },
    {
      "channel": 0,
      "controlChanges": {
        "6": [
          {
            "number": 6,
            "ticks": 0,
            "time": 0,
            "value": 0.09448818897637795
          },
          {
            "number": 6,
            "ticks": 0,
            "time": 0,
            "value": 0.09448818897637795
          },
          {
            "number": 6,
            "ticks": 0,
            "time": 0,
            "value": 0.09448818897637795
          },
          {
            "number": 6,
            "ticks": 46084,
            "time": 155.6890335,
            "value": 0.09448818897637795
          },
          {
            "number": 6,
            "ticks": 46086,
            "time": 155.69579025,
            "value": 0.09448818897637795
          }
        ],
        "7": [
          {
            "number": 7,
            "ticks": 0,
            "time": 0,
            "value": 0.7874015748031497
          },
          {
            "number": 7,
            "ticks": 0,
            "time": 0,
            "value": 0.7874015748031497
          },
          {
            "number": 7,
            "ticks": 0,
            "time": 0,
            "value": 0.7874015748031497
          },
          {
            "number": 7,
            "ticks": 0,
            "time": 0,
            "value": 0.7874015748031497
          },
          {
            "number": 7,
            "ticks": 46084,
            "time": 155.6890335,
            "value": 0.7874015748031497
          },
          {
            "number": 7,
            "ticks": 46086,
            "time": 155.69579025,
            "value": 0.7874015748031497
          }
        ],
        "10": [
          {
            "number": 10,
            "ticks": 0,
            "time": 0,
            "value": 0.5039370078740157
          },
          {
            "number": 10,
            "ticks": 0,
            "time": 0,
            "value": 0.5039370078740157
          },
          {
            "number": 10,
            "ticks": 0,
            "time": 0,
            "value": 0.5039370078740157
          },
          {
            "number": 10,
            "ticks": 0,
            "time": 0,
            "value": 0.5039370078740157
          },
          {
            "number": 10,
            "ticks": 46084,
            "time": 155.6890335,
            "value": 0.5039370078740157
          },
          {
            "number": 10,
            "ticks": 46086,
            "time": 155.69579025,
            "value": 0.5039370078740157
          }
        ],
        "100": [
          {
            "number": 100,
            "ticks": 0,
            "time": 0,
            "value": 0
          },
          {
            "number": 100,
            "ticks": 0,
            "time": 0,
            "value": 0
          },
          {
            "number": 100,
            "ticks": 0,
            "time": 0,
            "value": 0
          },
          {
            "number": 100,
            "ticks": 46084,
            "time": 155.6890335,
            "value": 0
          },
          {
            "number": 100,
            "ticks": 46086,
            "time": 155.69579025,
            "value": 0
          }
        ],
        "101": [
          {
            "number": 101,
            "ticks": 0,
            "time": 0,
            "value": 0
          },
          {
            "number": 101,
            "ticks": 0,
            "time": 0,
            "value": 0
          },
          {
            "number": 101,
            "ticks": 0,
            "time": 0,
            "value": 0
          },
          {
            "number": 101,
            "ticks": 46084,
            "time": 155.6890335,
            "value": 0
          },
          {
            "number": 101,
            "ticks": 46086,
            "time": 155.69579025,
            "value": 0
          }
        ]
      },
      "pitchBends": [
        {
          "ticks": 0,
          "time": 0,
          "value": 0
        },
        {
          "ticks": 0,
          "time": 0,
          "value": 0
        },
        {
          "ticks": 0,
          "time": 0,
          "value": 0
        },
        {
          "ticks": 0,
          "time": 0,
          "value": 0
        },
        {
          "ticks": 46084,
          "time": 155.6890335,
          "value": 0
        },
        {
          "ticks": 46086,
          "time": 155.69579025,
          "value": 0
        }
      ],
      "instrument": {
        "family": "piano",
        "number": 0,
        "name": "acoustic grand piano"
      },
      "name": "Drum #2",
      "notes": [
        {
          "duration": 0.04054049999999999,
          "durationTicks": 12,
          "midi": 37,
          "name": "C#2",
          "ticks": 24,
          "time": 0.081081,
          "velocity": 0.7480314960629921
        },
        {
          "duration": 0.04054050000000001,
          "durationTicks": 12,
          "midi": 25,
          "name": "C#1",
          "ticks": 48,
          "time": 0.162162,
          "velocity": 0.7480314960629921
        },
        {
          "duration": 0.04054049999999998,
          "durationTicks": 12,
          "midi": 25,
          "name": "C#1",
          "ticks": 168,
          "time": 0.567567,
          "velocity": 0.7480314960629921
        },
        {
          "duration": 0.04054050000000009,
          "durationTicks": 12,
          "midi": 37,
          "name": "C#2",
          "ticks": 216,
          "time": 0.729729,
          "velocity": 0.7480314960629921
        },
        {
          "duration": 0.04054049999999998,
          "durationTicks": 12,
          "midi": 25,
          "name": "C#1",
          "ticks": 240,
          "time": 0.81081,
          "velocity": 0.7480314960629921
        },
        {
          "duration": 0.04054049999999998,
          "durationTicks": 12,
          "midi": 25,
          "name": "C#1",
          "ticks": 264,
          "time": 0.891891,
          "velocity": 0.7480314960629921
        },
        {
          "duration": 0.04054050000000009,
          "durationTicks": 12,
          "midi": 25,
          "name": "C#1",
          "ticks": 312,
          "time": 1.054053,
          "velocity": 0.7480314960629921
        },
        {
          "duration": 0.04054049999999987,
          "durationTicks": 12,
          "midi": 25,
          "name": "C#1",
          "ticks": 336,
          "time": 1.135134,
          "velocity": 0.7480314960629921
        },
        {
          "duration": 0.04054049999999987,
          "durationTicks": 12,
          "midi": 25,
          "name": "C#1",
          "ticks": 360,
          "time": 1.216215,
          "velocity": 0.7480314960629921
        },
        {
          "duration": 0.04054050000000009,
          "durationTicks": 12,
          "midi": 42,
          "name": "F#2",
          "ticks": 816,
          "time": 2.756754,
          "velocity": 0.7401574803149606
        },
        {
          "duration": 0.040540499999999646,
          "durationTicks": 12,
          "midi": 42,
          "name": "F#2",
          "ticks": 912,
          "time": 3.081078,
          "velocity": 0.7401574803149606
        },
        {
          "duration": 0.04054050000000009,
          "durationTicks": 12,
          "midi": 42,
          "name": "F#2",
          "ticks": 1008,
          "time": 3.405402,
          "velocity": 0.7401574803149606
        },
        {
          "duration": 0.04054050000000009,
          "durationTicks": 12,
          "midi": 42,
          "name": "F#2",
          "ticks": 1104,
          "time": 3.729726,
          "velocity": 0.7401574803149606
        },
        {
          "duration": 0.040540499999999646,
          "durationTicks": 12,
          "midi": 41,
          "name": "F2",
          "ticks": 1200,
          "time": 4.05405,
          "velocity": 0.7401574803149606
        },
        {
          "duration": 0.040540499999999646,
          "durationTicks": 12,
          "midi": 41,
          "name": "F2",
          "ticks": 1296,
          "time": 4.378374,
          "velocity": 0.7401574803149606
        },
        {
          "duration": 0.040540500000000534,
          "durationTicks": 12,
          "midi": 41,
          "name": "F2",
          "ticks": 1392,
          "time": 4.702698,
          "velocity": 0.7401574803149606
        },
        {
          "duration": 0.040540500000000534,
          "durationTicks": 12,
          "midi": 41,
          "name": "F2",
          "ticks": 1488,
          "time": 5.027022,
          "velocity": 0.7401574803149606
        },
        {
          "duration": 0.040540499999999646,
          "durationTicks": 12,
          "midi": 46,
          "name": "A#2",
          "ticks": 1584,
          "time": 5.351346,
          "velocity": 0.7401574803149606
        },
        {
          "duration": 0.040540499999999646,
          "durationTicks": 12,
          "midi": 46,
          "name": "A#2",
          "ticks": 1680,
          "time": 5.67567,
          "velocity": 0.7401574803149606
        },
        {
          "duration": 0.040540499999999646,
          "durationTicks": 12,
          "midi": 46,
          "name": "A#2",
          "ticks": 1776,
          "time": 5.999994,
          "velocity": 0.7401574803149606
        },
        {
          "duration": 0.040540500000000534,
          "durationTicks": 12,
          "midi": 46,
          "name": "A#2",
          "ticks": 1872,
          "time": 6.324318,
          "velocity": 0.7401574803149606
        },
        {
          "duration": 0.040540500000000534,
          "durationTicks": 12,
          "midi": 44,
          "name": "G#2",
          "ticks": 1968,
          "time": 6.648642,
          "velocity": 0.7401574803149606
        },
        {
          "duration": 0.040540499999999646,
          "durationTicks": 12,
          "midi": 44,
          "name": "G#2",
          "ticks": 2064,
          "time": 6.972966,
          "velocity": 0.7401574803149606
        },
        {
          "duration": 0.040540499999999646,
          "durationTicks": 12,
          "midi": 37,
          "name": "C#2",
          "ticks": 2160,
          "time": 7.29729,
          "velocity": 0.7401574803149606
        },
        {
          "duration": 0.040540499999999646,
          "durationTicks": 12,
          "midi": 37,
          "name": "C#2",
          "ticks": 2256,
          "time": 7.621614,
          "velocity": 0.7401574803149606
        },
        {
          "duration": 0.040540499999999646,
          "durationTicks": 12,
          "midi": 42,
          "name": "F#2",
          "ticks": 2352,
          "time": 7.945938,
          "velocity": 0.7401574803149606
        },
        {
          "duration": 0.04054049999999876,
          "durationTicks": 12,
          "midi": 42,
          "name": "F#2",
          "ticks": 2448,
          "time": 8.270262,
          "velocity": 0.7401574803149606
        },
        {
          "duration": 0.040540500000000534,
          "durationTicks": 12,
          "midi": 42,
          "name": "F#2",
          "ticks": 2544,
          "time": 8.594586,
          "velocity": 0.7401574803149606
        },
        {
          "duration": 0.040540500000000534,
          "durationTicks": 12,
          "midi": 42,
          "name": "F#2",
          "ticks": 2640,
          "time": 8.91891,
          "velocity": 0.7401574803149606
        },
        {
          "duration": 0.040540500000000534,
          "durationTicks": 12,
          "midi": 41,
          "name": "F2",
          "ticks": 2736,
          "time": 9.243234,
          "velocity": 0.7401574803149606
        },
        {
          "duration": 0.040540500000000534,
          "durationTicks": 12,
          "midi": 41,
          "name": "F2",
          "ticks": 2832,
          "time": 9.567558,
          "velocity": 0.7401574803149606
        },
        {
          "duration": 0.04054049999999876,
          "durationTicks": 12,
          "midi": 41,
          "name": "F2",
          "ticks": 2928,
          "time": 9.891882,
          "velocity": 0.7401574803149606
        },
        {
          "duration": 0.040540500000000534,
          "durationTicks": 12,
          "midi": 41,
          "name": "F2",
          "ticks": 3024,
          "time": 10.216206,
          "velocity": 0.7401574803149606
        },
        {
          "duration": 0.04054049999999876,
          "durationTicks": 12,
          "midi": 46,
          "name": "A#2",
          "ticks": 3120,
          "time": 10.54053,
          "velocity": 0.7401574803149606
        },
        {
          "duration": 0.040540500000000534,
          "durationTicks": 12,
          "midi": 46,
          "name": "A#2",
          "ticks": 3216,
          "time": 10.864854,
          "velocity": 0.7401574803149606
        },
        {
          "duration": 0.040540500000000534,
          "durationTicks": 12,
          "midi": 46,
          "name": "A#2",
          "ticks": 3312,
          "time": 11.189178,
          "velocity": 0.7401574803149606
        },
        {
          "duration": 0.04054049999999876,
          "durationTicks": 12,
          "midi": 46,
          "name": "A#2",
          "ticks": 3408,
          "time": 11.513502,
          "velocity": 0.7401574803149606
        },
        {
          "duration": 0.04054049999999876,
          "durationTicks": 12,
          "midi": 32,
          "name": "G#1",
          "ticks": 3480,
          "time": 11.756745,
          "velocity": 0.7952755905511811
        },
        {
          "duration": 0.040540500000000534,
          "durationTicks": 12,
          "midi": 44,
          "name": "G#2",
          "ticks": 3504,
          "time": 11.837826,
          "velocity": 0.7952755905511811
        },
        {
          "duration": 0.04054049999999876,
          "durationTicks": 12,
          "midi": 32,
          "name": "G#1",
          "ticks": 3600,
          "time": 12.16215,
          "velocity": 0.7952755905511811
        },
        {
          "duration": 0.040540500000000534,
          "durationTicks": 12,
          "midi": 32,
          "name": "G#1",
          "ticks": 3624,
          "time": 12.243231,
          "velocity": 0.7952755905511811
        },
        {
          "duration": 0.040540500000000534,
          "durationTicks": 12,
          "midi": 37,
          "name": "C#2",
          "ticks": 3696,
          "time": 12.486474,
          "velocity": 0.7952755905511811
        },
        {
          "duration": 0.040540500000000534,
          "durationTicks": 12,
          "midi": 25,
          "name": "C#1",
          "ticks": 3696,
          "time": 12.486474,
          "velocity": 0.7952755905511811
        },
        {
          "duration": 0.040540500000000534,
          "durationTicks": 12,
          "midi": 25,
          "name": "C#1",
          "ticks": 3792,
          "time": 12.810798,
          "velocity": 0.7952755905511811
        },
        {
          "duration": 0.040540500000000534,
          "durationTicks": 12,
          "midi": 37,
          "name": "C#2",
          "ticks": 3792,
          "time": 12.810798,
          "velocity": 0.7952755905511811
        },
        {
          "duration": 0.04054049999999876,
          "durationTicks": 12,
          "midi": 42,
          "name": "F#2",
          "ticks": 6960,
          "time": 23.51349,
          "velocity": 0.7401574803149606
        },
        {
          "duration": 0.04054049999999876,
          "durationTicks": 12,
          "midi": 42,
          "name": "F#2",
          "ticks": 7056,
          "time": 23.837814,
          "velocity": 0.7401574803149606
        },
        {
          "duration": 0.04054050000000231,
          "durationTicks": 12,
          "midi": 42,
          "name": "F#2",
          "ticks": 7152,
          "time": 24.162138,
          "velocity": 0.7401574803149606
        },
        {
          "duration": 0.04054050000000231,
          "durationTicks": 12,
          "midi": 42,
          "name": "F#2",
          "ticks": 7248,
          "time": 24.486462,
          "velocity": 0.7401574803149606
        },
        {
          "duration": 0.04054049999999876,
          "durationTicks": 12,
          "midi": 44,
          "name": "G#2",
          "ticks": 7440,
          "time": 25.13511,
          "velocity": 0.7401574803149606
        },
        {
          "duration": 0.04054049999999876,
          "durationTicks": 12,
          "midi": 44,
          "name": "G#2",
          "ticks": 7536,
          "time": 25.459434,
          "velocity": 0.7401574803149606
        },
        {
          "duration": 0.04054050000000231,
          "durationTicks": 12,
          "midi": 44,
          "name": "G#2",
          "ticks": 7632,
          "time": 25.783758,
          "velocity": 0.7401574803149606
        },
        {
          "duration": 0.04054049999999876,
          "durationTicks": 12,
          "midi": 45,
          "name": "A2",
          "ticks": 7728,
          "time": 26.108082,
          "velocity": 0.7401574803149606
        },
        {
          "duration": 0.04054049999999876,
          "durationTicks": 12,
          "midi": 45,
          "name": "A2",
          "ticks": 7824,
          "time": 26.432406,
          "velocity": 0.7401574803149606
        },
        {
          "duration": 0.04054049999999876,
          "durationTicks": 12,
          "midi": 45,
          "name": "A2",
          "ticks": 7920,
          "time": 26.75673,
          "velocity": 0.7401574803149606
        },
        {
          "duration": 0.04054049999999876,
          "durationTicks": 12,
          "midi": 45,
          "name": "A2",
          "ticks": 8016,
          "time": 27.081054,
          "velocity": 0.7401574803149606
        },
        {
          "duration": 0.04054049999999876,
          "durationTicks": 12,
          "midi": 46,
          "name": "A#2",
          "ticks": 8208,
          "time": 27.729702,
          "velocity": 0.7401574803149606
        },
        {
          "duration": 0.04054049999999876,
          "durationTicks": 12,
          "midi": 46,
          "name": "A#2",
          "ticks": 8304,
          "time": 28.054026,
          "velocity": 0.7401574803149606
        },
        {
          "duration": 0.04054049999999876,
          "durationTicks": 12,
          "midi": 46,
          "name": "A#2",
          "ticks": 8400,
          "time": 28.37835,
          "velocity": 0.7401574803149606
        },
        {
          "duration": 0.04054049999999876,
          "durationTicks": 12,
          "midi": 42,
          "name": "F#2",
          "ticks": 8496,
          "time": 28.702674000000002,
          "velocity": 0.7401574803149606
        },
        {
          "duration": 0.04054050000000231,
          "durationTicks": 12,
          "midi": 42,
          "name": "F#2",
          "ticks": 8592,
          "time": 29.026998,
          "velocity": 0.7401574803149606
        },
        {
          "duration": 0.04054049999999876,
          "durationTicks": 12,
          "midi": 42,
          "name": "F#2",
          "ticks": 8688,
          "time": 29.351322,
          "velocity": 0.7401574803149606
        },
        {
          "duration": 0.04054049999999876,
          "durationTicks": 12,
          "midi": 42,
          "name": "F#2",
          "ticks": 8784,
          "time": 29.675646,
          "velocity": 0.7401574803149606
        },
        {
          "duration": 0.04054049999999876,
          "durationTicks": 12,
          "midi": 44,
          "name": "G#2",
          "ticks": 8976,
          "time": 30.324294000000002,
          "velocity": 0.7401574803149606
        },
        {
          "duration": 0.04054050000000231,
          "durationTicks": 12,
          "midi": 44,
          "name": "G#2",
          "ticks": 9072,
          "time": 30.648618,
          "velocity": 0.7401574803149606
        },
        {
          "duration": 0.04054049999999876,
          "durationTicks": 12,
          "midi": 44,
          "name": "G#2",
          "ticks": 9168,
          "time": 30.972942,
          "velocity": 0.7401574803149606
        },
        {
          "duration": 0.04054049999999876,
          "durationTicks": 12,
          "midi": 45,
          "name": "A2",
          "ticks": 9264,
          "time": 31.297266,
          "velocity": 0.7401574803149606
        },
        {
          "duration": 0.04054049999999876,
          "durationTicks": 12,
          "midi": 45,
          "name": "A2",
          "ticks": 9360,
          "time": 31.62159,
          "velocity": 0.7401574803149606
        },
        {
          "duration": 0.04054050000000231,
          "durationTicks": 12,
          "midi": 45,
          "name": "A2",
          "ticks": 9456,
          "time": 31.945914,
          "velocity": 0.7401574803149606
        },
        {
          "duration": 0.04054049999999876,
          "durationTicks": 12,
          "midi": 45,
          "name": "A2",
          "ticks": 9552,
          "time": 32.270238,
          "velocity": 0.7401574803149606
        },
        {
          "duration": 0.04054049999999876,
          "durationTicks": 12,
          "midi": 46,
          "name": "A#2",
          "ticks": 9744,
          "time": 32.918886,
          "velocity": 0.6692913385826772
        },
        {
          "duration": 0.04054049999999876,
          "durationTicks": 12,
          "midi": 46,
          "name": "A#2",
          "ticks": 9792,
          "time": 33.081048,
          "velocity": 0.6377952755905512
        },
        {
          "duration": 0.04054049999999876,
          "durationTicks": 12,
          "midi": 46,
          "name": "A#2",
          "ticks": 9816,
          "time": 33.162129,
          "velocity": 0.6220472440944882
        },
        {
          "duration": 0.040540500000005864,
          "durationTicks": 12,
          "midi": 45,
          "name": "A2",
          "ticks": 9840,
          "time": 33.24321,
          "velocity": 0.6062992125984252
        },
        {
          "duration": 0.04054049999999876,
          "durationTicks": 12,
          "midi": 44,
          "name": "G#2",
          "ticks": 9864,
          "time": 33.324291,
          "velocity": 0.5905511811023622
        },
        {
          "duration": 0.04054049999999876,
          "durationTicks": 12,
          "midi": 43,
          "name": "G2",
          "ticks": 9888,
          "time": 33.405372,
          "velocity": 0.5748031496062992
        },
        {
          "duration": 0.040540500000005864,
          "durationTicks": 12,
          "midi": 42,
          "name": "F#2",
          "ticks": 9912,
          "time": 33.486453,
          "velocity": 0.5590551181102362
        },
        {
          "duration": 0.04054049999999876,
          "durationTicks": 12,
          "midi": 41,
          "name": "F2",
          "ticks": 9936,
          "time": 33.567534,
          "velocity": 0.5433070866141733
        },
        {
          "duration": 0.04054049999999876,
          "durationTicks": 12,
          "midi": 40,
          "name": "E2",
          "ticks": 9960,
          "time": 33.648615,
          "velocity": 0.5354330708661418
        },
        {
          "duration": 0.04054049999999876,
          "durationTicks": 12,
          "midi": 30,
          "name": "F#1",
          "ticks": 10128,
          "time": 34.216182,
          "velocity": 0.7165354330708661
        },
        {
          "duration": 0.04054049999999876,
          "durationTicks": 12,
          "midi": 30,
          "name": "F#1",
          "ticks": 10248,
          "time": 34.621587,
          "velocity": 0.7165354330708661
        },
        {
          "duration": 0.040540500000005864,
          "durationTicks": 12,
          "midi": 42,
          "name": "F#2",
          "ticks": 10320,
          "time": 34.86483,
          "velocity": 0.7165354330708661
        },
        {
          "duration": 0.12162149999999627,
          "durationTicks": 36,
          "midi": 41,
          "name": "F2",
          "ticks": 10416,
          "time": 35.189154,
          "velocity": 0.7165354330708661
        },
        {
          "duration": 0.12162150000000338,
          "durationTicks": 36,
          "midi": 29,
          "name": "F1",
          "ticks": 10512,
          "time": 35.513478,
          "velocity": 0.7165354330708661
        },
        {
          "duration": 0.12162149999999627,
          "durationTicks": 36,
          "midi": 27,
          "name": "D#1",
          "ticks": 10896,
          "time": 36.810774,
          "velocity": 0.7165354330708661
        },
        {
          "duration": 0.12162149999999627,
          "durationTicks": 36,
          "midi": 27,
          "name": "D#1",
          "ticks": 11040,
          "time": 37.29726,
          "velocity": 0.7165354330708661
        },
        {
          "duration": 0.12162149999999627,
          "durationTicks": 36,
          "midi": 39,
          "name": "D#2",
          "ticks": 11088,
          "time": 37.459422,
          "velocity": 0.7165354330708661
        },
        {
          "duration": 0.12162149999999627,
          "durationTicks": 36,
          "midi": 41,
          "name": "F2",
          "ticks": 11184,
          "time": 37.783746,
          "velocity": 0.7165354330708661
        },
        {
          "duration": 0.12162150000000338,
          "durationTicks": 36,
          "midi": 29,
          "name": "F1",
          "ticks": 11280,
          "time": 38.10807,
          "velocity": 0.7165354330708661
        },
        {
          "duration": 0.12162150000000338,
          "durationTicks": 36,
          "midi": 29,
          "name": "F1",
          "ticks": 11424,
          "time": 38.594556,
          "velocity": 0.7165354330708661
        },
        {
          "duration": 0.12162150000000338,
          "durationTicks": 36,
          "midi": 41,
          "name": "F2",
          "ticks": 11472,
          "time": 38.756718,
          "velocity": 0.7165354330708661
        },
        {
          "duration": 0.14864849999999308,
          "durationTicks": 44,
          "midi": 30,
          "name": "F#1",
          "ticks": 11568,
          "time": 39.081042000000004,
          "velocity": 0.6692913385826772
        },
        {
          "duration": 0.14864850000000018,
          "durationTicks": 44,
          "midi": 30,
          "name": "F#1",
          "ticks": 11664,
          "time": 39.405366,
          "velocity": 0.6929133858267716
        },
        {
          "duration": 0.14864850000000018,
          "durationTicks": 44,
          "midi": 30,
          "name": "F#1",
          "ticks": 11760,
          "time": 39.72969,
          "velocity": 0.7086614173228346
        },
        {
          "duration": 0.14864849999999308,
          "durationTicks": 44,
          "midi": 30,
          "name": "F#1",
          "ticks": 11856,
          "time": 40.054014,
          "velocity": 0.7322834645669292
        },
        {
          "duration": 0.14864850000000018,
          "durationTicks": 44,
          "midi": 29,
          "name": "F1",
          "ticks": 11952,
          "time": 40.378338,
          "velocity": 0.7480314960629921
        },
        {
          "duration": 0.14864849999999308,
          "durationTicks": 44,
          "midi": 29,
          "name": "F1",
          "ticks": 12048,
          "time": 40.702662000000004,
          "velocity": 0.7637795275590551
        },
        {
          "duration": 0.14864850000000018,
          "durationTicks": 44,
          "midi": 29,
          "name": "F1",
          "ticks": 12144,
          "time": 41.026986,
          "velocity": 0.7874015748031497
        },
        {
          "duration": 0.14864850000000018,
          "durationTicks": 44,
          "midi": 29,
          "name": "F1",
          "ticks": 12240,
          "time": 41.35131,
          "velocity": 0.8031496062992126
        },
        {
          "duration": 0.04054049999999876,
          "durationTicks": 12,
          "midi": 42,
          "name": "F#2",
          "ticks": 13104,
          "time": 44.270226,
          "velocity": 0.7401574803149606
        },
        {
          "duration": 0.04054049999999876,
          "durationTicks": 12,
          "midi": 42,
          "name": "F#2",
          "ticks": 13200,
          "time": 44.59455,
          "velocity": 0.7401574803149606
        },
        {
          "duration": 0.04054049999999876,
          "durationTicks": 12,
          "midi": 42,
          "name": "F#2",
          "ticks": 13296,
          "time": 44.918874,
          "velocity": 0.7401574803149606
        },
        {
          "duration": 0.04054049999999876,
          "durationTicks": 12,
          "midi": 42,
          "name": "F#2",
          "ticks": 13392,
          "time": 45.243198,
          "velocity": 0.7401574803149606
        },
        {
          "duration": 0.040540500000005864,
          "durationTicks": 12,
          "midi": 41,
          "name": "F2",
          "ticks": 13488,
          "time": 45.567522,
          "velocity": 0.7401574803149606
        },
        {
          "duration": 0.04054049999999876,
          "durationTicks": 12,
          "midi": 41,
          "name": "F2",
          "ticks": 13584,
          "time": 45.891846,
          "velocity": 0.7401574803149606
        },
        {
          "duration": 0.04054049999999876,
          "durationTicks": 12,
          "midi": 41,
          "name": "F2",
          "ticks": 13680,
          "time": 46.21617,
          "velocity": 0.7401574803149606
        },
        {
          "duration": 0.04054049999999876,
          "durationTicks": 12,
          "midi": 41,
          "name": "F2",
          "ticks": 13776,
          "time": 46.540494,
          "velocity": 0.7401574803149606
        },
        {
          "duration": 0.04054049999999876,
          "durationTicks": 12,
          "midi": 46,
          "name": "A#2",
          "ticks": 13872,
          "time": 46.864818,
          "velocity": 0.7401574803149606
        },
        {
          "duration": 0.040540500000005864,
          "durationTicks": 12,
          "midi": 46,
          "name": "A#2",
          "ticks": 13968,
          "time": 47.189142,
          "velocity": 0.7401574803149606
        },
        {
          "duration": 0.04054049999999876,
          "durationTicks": 12,
          "midi": 46,
          "name": "A#2",
          "ticks": 14064,
          "time": 47.513466,
          "velocity": 0.7401574803149606
        },
        {
          "duration": 0.04054049999999876,
          "durationTicks": 12,
          "midi": 46,
          "name": "A#2",
          "ticks": 14160,
          "time": 47.83779,
          "velocity": 0.7401574803149606
        },
        {
          "duration": 0.04054049999999876,
          "durationTicks": 12,
          "midi": 44,
          "name": "G#2",
          "ticks": 14256,
          "time": 48.162114,
          "velocity": 0.7401574803149606
        },
        {
          "duration": 0.04054049999999876,
          "durationTicks": 12,
          "midi": 44,
          "name": "G#2",
          "ticks": 14352,
          "time": 48.486438,
          "velocity": 0.7401574803149606
        },
        {
          "duration": 0.040540500000005864,
          "durationTicks": 12,
          "midi": 37,
          "name": "C#2",
          "ticks": 14448,
          "time": 48.810762,
          "velocity": 0.7401574803149606
        },
        {
          "duration": 0.04054049999999876,
          "durationTicks": 12,
          "midi": 37,
          "name": "C#2",
          "ticks": 14544,
          "time": 49.135086,
          "velocity": 0.7401574803149606
        },
        {
          "duration": 0.04054049999999876,
          "durationTicks": 12,
          "midi": 42,
          "name": "F#2",
          "ticks": 14640,
          "time": 49.45941,
          "velocity": 0.7401574803149606
        },
        {
          "duration": 0.04054049999999876,
          "durationTicks": 12,
          "midi": 42,
          "name": "F#2",
          "ticks": 14736,
          "time": 49.783734,
          "velocity": 0.7401574803149606
        },
        {
          "duration": 0.04054049999999876,
          "durationTicks": 12,
          "midi": 42,
          "name": "F#2",
          "ticks": 14832,
          "time": 50.108058,
          "velocity": 0.7401574803149606
        },
        {
          "duration": 0.040540500000005864,
          "durationTicks": 12,
          "midi": 42,
          "name": "F#2",
          "ticks": 14928,
          "time": 50.432382,
          "velocity": 0.7401574803149606
        },
        {
          "duration": 0.04054049999999876,
          "durationTicks": 12,
          "midi": 41,
          "name": "F2",
          "ticks": 15024,
          "time": 50.756706,
          "velocity": 0.7401574803149606
        },
        {
          "duration": 0.04054049999999876,
          "durationTicks": 12,
          "midi": 41,
          "name": "F2",
          "ticks": 15120,
          "time": 51.08103,
          "velocity": 0.7401574803149606
        },
        {
          "duration": 0.04054049999999876,
          "durationTicks": 12,
          "midi": 41,
          "name": "F2",
          "ticks": 15216,
          "time": 51.405354,
          "velocity": 0.7401574803149606
        },
        {
          "duration": 0.04054049999999876,
          "durationTicks": 12,
          "midi": 41,
          "name": "F2",
          "ticks": 15312,
          "time": 51.729678,
          "velocity": 0.7401574803149606
        },
        {
          "duration": 0.040540500000005864,
          "durationTicks": 12,
          "midi": 46,
          "name": "A#2",
          "ticks": 15408,
          "time": 52.054002,
          "velocity": 0.7401574803149606
        },
        {
          "duration": 0.04054049999999876,
          "durationTicks": 12,
          "midi": 46,
          "name": "A#2",
          "ticks": 15504,
          "time": 52.378326,
          "velocity": 0.7401574803149606
        },
        {
          "duration": 0.04054049999999876,
          "durationTicks": 12,
          "midi": 46,
          "name": "A#2",
          "ticks": 15600,
          "time": 52.70265,
          "velocity": 0.7401574803149606
        },
        {
          "duration": 0.04054049999999876,
          "durationTicks": 12,
          "midi": 46,
          "name": "A#2",
          "ticks": 15696,
          "time": 53.026974,
          "velocity": 0.7401574803149606
        },
        {
          "duration": 0.04054049999999876,
          "durationTicks": 12,
          "midi": 27,
          "name": "D#1",
          "ticks": 15768,
          "time": 53.270217,
          "velocity": 0.7952755905511811
        },
        {
          "duration": 0.04054049999999876,
          "durationTicks": 12,
          "midi": 39,
          "name": "D#2",
          "ticks": 15792,
          "time": 53.351298,
          "velocity": 0.7952755905511811
        },
        {
          "duration": 0.040540500000005864,
          "durationTicks": 12,
          "midi": 27,
          "name": "D#1",
          "ticks": 15888,
          "time": 53.675622,
          "velocity": 0.7952755905511811
        },
        {
          "duration": 0.04054049999999876,
          "durationTicks": 12,
          "midi": 27,
          "name": "D#1",
          "ticks": 15912,
          "time": 53.756703,
          "velocity": 0.7952755905511811
        },
        {
          "duration": 0.04054049999999876,
          "durationTicks": 12,
          "midi": 39,
          "name": "D#2",
          "ticks": 15984,
          "time": 53.999946,
          "velocity": 0.7952755905511811
        },
        {
          "duration": 0.04054049999999876,
          "durationTicks": 12,
          "midi": 27,
          "name": "D#1",
          "ticks": 15984,
          "time": 53.999946,
          "velocity": 0.7952755905511811
        },
        {
          "duration": 0.04054049999999876,
          "durationTicks": 12,
          "midi": 39,
          "name": "D#2",
          "ticks": 16080,
          "time": 54.32427,
          "velocity": 0.7952755905511811
        },
        {
          "duration": 0.04054049999999876,
          "durationTicks": 12,
          "midi": 27,
          "name": "D#1",
          "ticks": 16080,
          "time": 54.32427,
          "velocity": 0.7952755905511811
        },
        {
          "duration": 0.04054049999999876,
          "durationTicks": 12,
          "midi": 42,
          "name": "F#2",
          "ticks": 16176,
          "time": 54.648594,
          "velocity": 0.7401574803149606
        },
        {
          "duration": 0.04054049999999876,
          "durationTicks": 12,
          "midi": 42,
          "name": "F#2",
          "ticks": 16272,
          "time": 54.972918,
          "velocity": 0.7401574803149606
        },
        {
          "duration": 0.040540500000005864,
          "durationTicks": 12,
          "midi": 42,
          "name": "F#2",
          "ticks": 16368,
          "time": 55.297242,
          "velocity": 0.7401574803149606
        },
        {
          "duration": 0.04054049999999876,
          "durationTicks": 12,
          "midi": 42,
          "name": "F#2",
          "ticks": 16464,
          "time": 55.621566,
          "velocity": 0.7401574803149606
        },
        {
          "duration": 0.04054049999999876,
          "durationTicks": 12,
          "midi": 41,
          "name": "F2",
          "ticks": 16560,
          "time": 55.94589,
          "velocity": 0.7401574803149606
        },
        {
          "duration": 0.04054049999999876,
          "durationTicks": 12,
          "midi": 41,
          "name": "F2",
          "ticks": 16656,
          "time": 56.270214,
          "velocity": 0.7401574803149606
        },
        {
          "duration": 0.04054049999999876,
          "durationTicks": 12,
          "midi": 41,
          "name": "F2",
          "ticks": 16752,
          "time": 56.594538,
          "velocity": 0.7401574803149606
        },
        {
          "duration": 0.040540500000005864,
          "durationTicks": 12,
          "midi": 41,
          "name": "F2",
          "ticks": 16848,
          "time": 56.918862,
          "velocity": 0.7401574803149606
        },
        {
          "duration": 0.04054049999999876,
          "durationTicks": 12,
          "midi": 46,
          "name": "A#2",
          "ticks": 16944,
          "time": 57.243186,
          "velocity": 0.7401574803149606
        },
        {
          "duration": 0.04054049999999876,
          "durationTicks": 12,
          "midi": 46,
          "name": "A#2",
          "ticks": 17040,
          "time": 57.56751,
          "velocity": 0.7401574803149606
        },
        {
          "duration": 0.04054049999999876,
          "durationTicks": 12,
          "midi": 46,
          "name": "A#2",
          "ticks": 17136,
          "time": 57.891834,
          "velocity": 0.7401574803149606
        },
        {
          "duration": 0.04054049999999876,
          "durationTicks": 12,
          "midi": 46,
          "name": "A#2",
          "ticks": 17232,
          "time": 58.216158,
          "velocity": 0.7401574803149606
        },
        {
          "duration": 0.040540500000005864,
          "durationTicks": 12,
          "midi": 44,
          "name": "G#2",
          "ticks": 17328,
          "time": 58.540482,
          "velocity": 0.7401574803149606
        },
        {
          "duration": 0.04054049999999876,
          "durationTicks": 12,
          "midi": 44,
          "name": "G#2",
          "ticks": 17424,
          "time": 58.864806,
          "velocity": 0.7401574803149606
        },
        {
          "duration": 0.04054049999999876,
          "durationTicks": 12,
          "midi": 37,
          "name": "C#2",
          "ticks": 17520,
          "time": 59.18913,
          "velocity": 0.7401574803149606
        },
        {
          "duration": 0.04054049999999876,
          "durationTicks": 12,
          "midi": 37,
          "name": "C#2",
          "ticks": 17616,
          "time": 59.513454,
          "velocity": 0.7401574803149606
        },
        {
          "duration": 0.04054049999999876,
          "durationTicks": 12,
          "midi": 42,
          "name": "F#2",
          "ticks": 17712,
          "time": 59.837778,
          "velocity": 0.7401574803149606
        },
        {
          "duration": 0.040540500000005864,
          "durationTicks": 12,
          "midi": 42,
          "name": "F#2",
          "ticks": 17808,
          "time": 60.162102,
          "velocity": 0.7401574803149606
        },
        {
          "duration": 0.04054049999999876,
          "durationTicks": 12,
          "midi": 42,
          "name": "F#2",
          "ticks": 17904,
          "time": 60.486426,
          "velocity": 0.7401574803149606
        },
        {
          "duration": 0.04054049999999876,
          "durationTicks": 12,
          "midi": 42,
          "name": "F#2",
          "ticks": 18000,
          "time": 60.81075,
          "velocity": 0.7401574803149606
        },
        {
          "duration": 0.04054049999999876,
          "durationTicks": 12,
          "midi": 41,
          "name": "F2",
          "ticks": 18096,
          "time": 61.135074,
          "velocity": 0.7401574803149606
        },
        {
          "duration": 0.04054049999999876,
          "durationTicks": 12,
          "midi": 41,
          "name": "F2",
          "ticks": 18192,
          "time": 61.459398,
          "velocity": 0.7401574803149606
        },
        {
          "duration": 0.040540500000005864,
          "durationTicks": 12,
          "midi": 41,
          "name": "F2",
          "ticks": 18288,
          "time": 61.783722,
          "velocity": 0.7401574803149606
        },
        {
          "duration": 0.04054049999999876,
          "durationTicks": 12,
          "midi": 41,
          "name": "F2",
          "ticks": 18384,
          "time": 62.108046,
          "velocity": 0.7401574803149606
        },
        {
          "duration": 0.04054049999999876,
          "durationTicks": 12,
          "midi": 46,
          "name": "A#2",
          "ticks": 18480,
          "time": 62.43237,
          "velocity": 0.7401574803149606
        },
        {
          "duration": 0.04054049999999876,
          "durationTicks": 12,
          "midi": 46,
          "name": "A#2",
          "ticks": 18576,
          "time": 62.756694,
          "velocity": 0.7401574803149606
        },
        {
          "duration": 0.04054049999999876,
          "durationTicks": 12,
          "midi": 46,
          "name": "A#2",
          "ticks": 18672,
          "time": 63.081018,
          "velocity": 0.7401574803149606
        },
        {
          "duration": 0.040540500000005864,
          "durationTicks": 12,
          "midi": 46,
          "name": "A#2",
          "ticks": 18768,
          "time": 63.405342,
          "velocity": 0.7401574803149606
        },
        {
          "duration": 0.040540500000005864,
          "durationTicks": 12,
          "midi": 34,
          "name": "A#1",
          "ticks": 18840,
          "time": 63.648585,
          "velocity": 0.7952755905511811
        },
        {
          "duration": 0.04054049999999876,
          "durationTicks": 12,
          "midi": 46,
          "name": "A#2",
          "ticks": 18864,
          "time": 63.729666,
          "velocity": 0.7952755905511811
        },
        {
          "duration": 0.040540500000005864,
          "durationTicks": 12,
          "midi": 33,
          "name": "A1",
          "ticks": 18960,
          "time": 64.05399,
          "velocity": 0.7952755905511811
        },
        {
          "duration": 0.040540500000005864,
          "durationTicks": 12,
          "midi": 33,
          "name": "A1",
          "ticks": 18984,
          "time": 64.135071,
          "velocity": 0.7952755905511811
        },
        {
          "duration": 0.04054049999999165,
          "durationTicks": 12,
          "midi": 32,
          "name": "G#1",
          "ticks": 19056,
          "time": 64.378314,
          "velocity": 0.7952755905511811
        },
        {
          "duration": 0.04054049999999165,
          "durationTicks": 12,
          "midi": 44,
          "name": "G#2",
          "ticks": 19056,
          "time": 64.378314,
          "velocity": 0.7952755905511811
        },
        {
          "duration": 0.040540500000005864,
          "durationTicks": 12,
          "midi": 31,
          "name": "G1",
          "ticks": 19152,
          "time": 64.702638,
          "velocity": 0.7952755905511811
        },
        {
          "duration": 0.040540500000005864,
          "durationTicks": 12,
          "midi": 43,
          "name": "G2",
          "ticks": 19152,
          "time": 64.702638,
          "velocity": 0.7952755905511811
        },
        {
          "duration": 0.040540500000005864,
          "durationTicks": 12,
          "midi": 37,
          "name": "C#2",
          "ticks": 19224,
          "time": 64.945881,
          "velocity": 0.7480314960629921
        },
        {
          "duration": 0.040540500000005864,
          "durationTicks": 12,
          "midi": 25,
          "name": "C#1",
          "ticks": 19248,
          "time": 65.026962,
          "velocity": 0.7480314960629921
        },
        {
          "duration": 0.040540500000005864,
          "durationTicks": 12,
          "midi": 25,
          "name": "C#1",
          "ticks": 19368,
          "time": 65.432367,
          "velocity": 0.7480314960629921
        },
        {
          "duration": 0.040540500000005864,
          "durationTicks": 12,
          "midi": 37,
          "name": "C#2",
          "ticks": 19416,
          "time": 65.594529,
          "velocity": 0.7480314960629921
        },
        {
          "duration": 0.04054049999999165,
          "durationTicks": 12,
          "midi": 25,
          "name": "C#1",
          "ticks": 19440,
          "time": 65.67561,
          "velocity": 0.7480314960629921
        },
        {
          "duration": 0.04054049999999165,
          "durationTicks": 12,
          "midi": 25,
          "name": "C#1",
          "ticks": 19464,
          "time": 65.756691,
          "velocity": 0.7480314960629921
        },
        {
          "duration": 0.040540500000005864,
          "durationTicks": 12,
          "midi": 25,
          "name": "C#1",
          "ticks": 19512,
          "time": 65.918853,
          "velocity": 0.7480314960629921
        },
        {
          "duration": 0.040540500000005864,
          "durationTicks": 12,
          "midi": 25,
          "name": "C#1",
          "ticks": 19536,
          "time": 65.999934,
          "velocity": 0.7480314960629921
        },
        {
          "duration": 0.040540500000005864,
          "durationTicks": 12,
          "midi": 25,
          "name": "C#1",
          "ticks": 19560,
          "time": 66.081015,
          "velocity": 0.7480314960629921
        },
        {
          "duration": 0.04054049999999165,
          "durationTicks": 12,
          "midi": 42,
          "name": "F#2",
          "ticks": 20016,
          "time": 67.621554,
          "velocity": 0.7401574803149606
        },
        {
          "duration": 0.040540500000005864,
          "durationTicks": 12,
          "midi": 42,
          "name": "F#2",
          "ticks": 20112,
          "time": 67.945878,
          "velocity": 0.7401574803149606
        },
        {
          "duration": 0.040540500000005864,
          "durationTicks": 12,
          "midi": 42,
          "name": "F#2",
          "ticks": 20208,
          "time": 68.270202,
          "velocity": 0.7401574803149606
        },
        {
          "duration": 0.04054049999999165,
          "durationTicks": 12,
          "midi": 42,
          "name": "F#2",
          "ticks": 20304,
          "time": 68.594526,
          "velocity": 0.7401574803149606
        },
        {
          "duration": 0.04054049999999165,
          "durationTicks": 12,
          "midi": 41,
          "name": "F2",
          "ticks": 20400,
          "time": 68.91885,
          "velocity": 0.7401574803149606
        },
        {
          "duration": 0.040540500000005864,
          "durationTicks": 12,
          "midi": 41,
          "name": "F2",
          "ticks": 20496,
          "time": 69.243174,
          "velocity": 0.7401574803149606
        },
        {
          "duration": 0.040540500000005864,
          "durationTicks": 12,
          "midi": 41,
          "name": "F2",
          "ticks": 20592,
          "time": 69.567498,
          "velocity": 0.7401574803149606
        },
        {
          "duration": 0.04054049999999165,
          "durationTicks": 12,
          "midi": 41,
          "name": "F2",
          "ticks": 20688,
          "time": 69.891822,
          "velocity": 0.7401574803149606
        },
        {
          "duration": 0.040540500000005864,
          "durationTicks": 12,
          "midi": 46,
          "name": "A#2",
          "ticks": 20784,
          "time": 70.216146,
          "velocity": 0.7401574803149606
        },
        {
          "duration": 0.040540500000005864,
          "durationTicks": 12,
          "midi": 46,
          "name": "A#2",
          "ticks": 20880,
          "time": 70.54047,
          "velocity": 0.7401574803149606
        },
        {
          "duration": 0.04054049999999165,
          "durationTicks": 12,
          "midi": 46,
          "name": "A#2",
          "ticks": 20976,
          "time": 70.864794,
          "velocity": 0.7401574803149606
        },
        {
          "duration": 0.040540500000005864,
          "durationTicks": 12,
          "midi": 46,
          "name": "A#2",
          "ticks": 21072,
          "time": 71.189118,
          "velocity": 0.7401574803149606
        },
        {
          "duration": 0.040540500000005864,
          "durationTicks": 12,
          "midi": 44,
          "name": "G#2",
          "ticks": 21168,
          "time": 71.513442,
          "velocity": 0.7401574803149606
        },
        {
          "duration": 0.04054049999999165,
          "durationTicks": 12,
          "midi": 44,
          "name": "G#2",
          "ticks": 21264,
          "time": 71.837766,
          "velocity": 0.7401574803149606
        },
        {
          "duration": 0.04054049999999165,
          "durationTicks": 12,
          "midi": 37,
          "name": "C#2",
          "ticks": 21360,
          "time": 72.16209,
          "velocity": 0.7401574803149606
        },
        {
          "duration": 0.040540500000005864,
          "durationTicks": 12,
          "midi": 37,
          "name": "C#2",
          "ticks": 21456,
          "time": 72.486414,
          "velocity": 0.7401574803149606
        },
        {
          "duration": 0.040540500000005864,
          "durationTicks": 12,
          "midi": 42,
          "name": "F#2",
          "ticks": 21552,
          "time": 72.810738,
          "velocity": 0.7401574803149606
        },
        {
          "duration": 0.04054049999999165,
          "durationTicks": 12,
          "midi": 42,
          "name": "F#2",
          "ticks": 21648,
          "time": 73.135062,
          "velocity": 0.7401574803149606
        },
        {
          "duration": 0.040540500000005864,
          "durationTicks": 12,
          "midi": 42,
          "name": "F#2",
          "ticks": 21744,
          "time": 73.459386,
          "velocity": 0.7401574803149606
        },
        {
          "duration": 0.040540500000005864,
          "durationTicks": 12,
          "midi": 42,
          "name": "F#2",
          "ticks": 21840,
          "time": 73.78371,
          "velocity": 0.7401574803149606
        },
        {
          "duration": 0.04054049999999165,
          "durationTicks": 12,
          "midi": 41,
          "name": "F2",
          "ticks": 21936,
          "time": 74.108034,
          "velocity": 0.7401574803149606
        },
        {
          "duration": 0.040540500000005864,
          "durationTicks": 12,
          "midi": 41,
          "name": "F2",
          "ticks": 22032,
          "time": 74.432358,
          "velocity": 0.7401574803149606
        },
        {
          "duration": 0.040540500000005864,
          "durationTicks": 12,
          "midi": 41,
          "name": "F2",
          "ticks": 22128,
          "time": 74.756682,
          "velocity": 0.7401574803149606
        },
        {
          "duration": 0.04054049999999165,
          "durationTicks": 12,
          "midi": 41,
          "name": "F2",
          "ticks": 22224,
          "time": 75.081006,
          "velocity": 0.7401574803149606
        },
        {
          "duration": 0.04054049999999165,
          "durationTicks": 12,
          "midi": 46,
          "name": "A#2",
          "ticks": 22320,
          "time": 75.40533,
          "velocity": 0.7401574803149606
        },
        {
          "duration": 0.040540500000005864,
          "durationTicks": 12,
          "midi": 46,
          "name": "A#2",
          "ticks": 22416,
          "time": 75.729654,
          "velocity": 0.7401574803149606
        },
        {
          "duration": 0.040540500000005864,
          "durationTicks": 12,
          "midi": 46,
          "name": "A#2",
          "ticks": 22512,
          "time": 76.053978,
          "velocity": 0.7401574803149606
        },
        {
          "duration": 0.04054049999999165,
          "durationTicks": 12,
          "midi": 46,
          "name": "A#2",
          "ticks": 22608,
          "time": 76.378302,
          "velocity": 0.7401574803149606
        },
        {
          "duration": 0.040540500000005864,
          "durationTicks": 12,
          "midi": 32,
          "name": "G#1",
          "ticks": 22680,
          "time": 76.621545,
          "velocity": 0.8267716535433071
        },
        {
          "duration": 0.040540500000005864,
          "durationTicks": 12,
          "midi": 44,
          "name": "G#2",
          "ticks": 22704,
          "time": 76.702626,
          "velocity": 0.8267716535433071
        },
        {
          "duration": 0.040540500000005864,
          "durationTicks": 12,
          "midi": 32,
          "name": "G#1",
          "ticks": 22800,
          "time": 77.02695,
          "velocity": 0.8267716535433071
        },
        {
          "duration": 0.040540500000005864,
          "durationTicks": 12,
          "midi": 32,
          "name": "G#1",
          "ticks": 22824,
          "time": 77.108031,
          "velocity": 0.8267716535433071
        },
        {
          "duration": 0.04054049999999165,
          "durationTicks": 12,
          "midi": 25,
          "name": "C#1",
          "ticks": 22896,
          "time": 77.351274,
          "velocity": 0.8267716535433071
        },
        {
          "duration": 0.04054049999999165,
          "durationTicks": 12,
          "midi": 37,
          "name": "C#2",
          "ticks": 22896,
          "time": 77.351274,
          "velocity": 0.8267716535433071
        },
        {
          "duration": 0.040540500000005864,
          "durationTicks": 12,
          "midi": 25,
          "name": "C#1",
          "ticks": 22968,
          "time": 77.594517,
          "velocity": 0.8267716535433071
        },
        {
          "duration": 0.040540500000005864,
          "durationTicks": 12,
          "midi": 25,
          "name": "C#1",
          "ticks": 22992,
          "time": 77.675598,
          "velocity": 0.8267716535433071
        },
        {
          "duration": 0.040540500000005864,
          "durationTicks": 12,
          "midi": 37,
          "name": "C#2",
          "ticks": 22992,
          "time": 77.675598,
          "velocity": 0.8267716535433071
        },
        {
          "duration": 0.04054049999999165,
          "durationTicks": 12,
          "midi": 25,
          "name": "C#1",
          "ticks": 23016,
          "time": 77.756679,
          "velocity": 0.8267716535433071
        },
        {
          "duration": 0.040540500000005864,
          "durationTicks": 12,
          "midi": 37,
          "name": "C#2",
          "ticks": 23088,
          "time": 77.999922,
          "velocity": 0.6692913385826772
        },
        {
          "duration": 0.04054049999999165,
          "durationTicks": 12,
          "midi": 37,
          "name": "C#2",
          "ticks": 23136,
          "time": 78.16208400000001,
          "velocity": 0.6692913385826772
        },
        {
          "duration": 0.04054049999999165,
          "durationTicks": 12,
          "midi": 37,
          "name": "C#2",
          "ticks": 23184,
          "time": 78.324246,
          "velocity": 0.6692913385826772
        },
        {
          "duration": 0.040540500000005864,
          "durationTicks": 12,
          "midi": 25,
          "name": "C#1",
          "ticks": 23232,
          "time": 78.486408,
          "velocity": 0.7007874015748031
        },
        {
          "duration": 0.04054049999999165,
          "durationTicks": 12,
          "midi": 37,
          "name": "C#2",
          "ticks": 23280,
          "time": 78.64857,
          "velocity": 0.6692913385826772
        },
        {
          "duration": 0.04054049999999165,
          "durationTicks": 12,
          "midi": 37,
          "name": "C#2",
          "ticks": 23328,
          "time": 78.810732,
          "velocity": 0.6692913385826772
        },
        {
          "duration": 0.040540500000005864,
          "durationTicks": 12,
          "midi": 37,
          "name": "C#2",
          "ticks": 23376,
          "time": 78.972894,
          "velocity": 0.6692913385826772
        },
        {
          "duration": 0.040540500000005864,
          "durationTicks": 12,
          "midi": 37,
          "name": "C#2",
          "ticks": 23472,
          "time": 79.297218,
          "velocity": 0.6692913385826772
        },
        {
          "duration": 0.040540500000005864,
          "durationTicks": 12,
          "midi": 37,
          "name": "C#2",
          "ticks": 23520,
          "time": 79.45938,
          "velocity": 0.6692913385826772
        },
        {
          "duration": 0.04054049999999165,
          "durationTicks": 12,
          "midi": 37,
          "name": "C#2",
          "ticks": 23568,
          "time": 79.621542,
          "velocity": 0.6692913385826772
        },
        {
          "duration": 0.040540500000005864,
          "durationTicks": 12,
          "midi": 25,
          "name": "C#1",
          "ticks": 23616,
          "time": 79.783704,
          "velocity": 0.7007874015748031
        },
        {
          "duration": 0.040540500000005864,
          "durationTicks": 12,
          "midi": 37,
          "name": "C#2",
          "ticks": 23664,
          "time": 79.945866,
          "velocity": 0.6692913385826772
        },
        {
          "duration": 0.04054049999999165,
          "durationTicks": 12,
          "midi": 37,
          "name": "C#2",
          "ticks": 23712,
          "time": 80.108028,
          "velocity": 0.6692913385826772
        },
        {
          "duration": 0.040540500000005864,
          "durationTicks": 12,
          "midi": 37,
          "name": "C#2",
          "ticks": 23760,
          "time": 80.27019,
          "velocity": 0.6692913385826772
        },
        {
          "duration": 0.04054049999999165,
          "durationTicks": 12,
          "midi": 37,
          "name": "C#2",
          "ticks": 23856,
          "time": 80.594514,
          "velocity": 0.6692913385826772
        },
        {
          "duration": 0.040540500000005864,
          "durationTicks": 12,
          "midi": 37,
          "name": "C#2",
          "ticks": 23904,
          "time": 80.756676,
          "velocity": 0.6692913385826772
        },
        {
          "duration": 0.040540500000005864,
          "durationTicks": 12,
          "midi": 37,
          "name": "C#2",
          "ticks": 23952,
          "time": 80.918838,
          "velocity": 0.6692913385826772
        },
        {
          "duration": 0.04054049999999165,
          "durationTicks": 12,
          "midi": 25,
          "name": "C#1",
          "ticks": 24000,
          "time": 81.081,
          "velocity": 0.7007874015748031
        },
        {
          "duration": 0.040540500000005864,
          "durationTicks": 12,
          "midi": 37,
          "name": "C#2",
          "ticks": 24048,
          "time": 81.243162,
          "velocity": 0.6692913385826772
        },
        {
          "duration": 0.04054049999999165,
          "durationTicks": 12,
          "midi": 37,
          "name": "C#2",
          "ticks": 24096,
          "time": 81.40532400000001,
          "velocity": 0.6692913385826772
        },
        {
          "duration": 0.04054049999999165,
          "durationTicks": 12,
          "midi": 37,
          "name": "C#2",
          "ticks": 24144,
          "time": 81.567486,
          "velocity": 0.6692913385826772
        },
        {
          "duration": 0.04054049999999165,
          "durationTicks": 12,
          "midi": 37,
          "name": "C#2",
          "ticks": 24240,
          "time": 81.89181,
          "velocity": 0.6692913385826772
        },
        {
          "duration": 0.04054049999999165,
          "durationTicks": 12,
          "midi": 37,
          "name": "C#2",
          "ticks": 24288,
          "time": 82.053972,
          "velocity": 0.6692913385826772
        },
        {
          "duration": 0.040540500000005864,
          "durationTicks": 12,
          "midi": 37,
          "name": "C#2",
          "ticks": 24336,
          "time": 82.216134,
          "velocity": 0.6692913385826772
        },
        {
          "duration": 0.04054049999999165,
          "durationTicks": 12,
          "midi": 25,
          "name": "C#1",
          "ticks": 24384,
          "time": 82.378296,
          "velocity": 0.7007874015748031
        },
        {
          "duration": 0.040540500000005864,
          "durationTicks": 12,
          "midi": 37,
          "name": "C#2",
          "ticks": 24624,
          "time": 83.189106,
          "velocity": 0.6692913385826772
        },
        {
          "duration": 0.04054049999999165,
          "durationTicks": 12,
          "midi": 37,
          "name": "C#2",
          "ticks": 24672,
          "time": 83.351268,
          "velocity": 0.6692913385826772
        },
        {
          "duration": 0.040540500000005864,
          "durationTicks": 12,
          "midi": 37,
          "name": "C#2",
          "ticks": 24720,
          "time": 83.51343,
          "velocity": 0.6692913385826772
        },
        {
          "duration": 0.040540500000005864,
          "durationTicks": 12,
          "midi": 25,
          "name": "C#1",
          "ticks": 24768,
          "time": 83.675592,
          "velocity": 0.7007874015748031
        },
        {
          "duration": 0.04054049999999165,
          "durationTicks": 12,
          "midi": 37,
          "name": "C#2",
          "ticks": 24816,
          "time": 83.837754,
          "velocity": 0.6692913385826772
        },
        {
          "duration": 0.040540500000005864,
          "durationTicks": 12,
          "midi": 37,
          "name": "C#2",
          "ticks": 24864,
          "time": 83.999916,
          "velocity": 0.6692913385826772
        },
        {
          "duration": 0.040540500000005864,
          "durationTicks": 12,
          "midi": 37,
          "name": "C#2",
          "ticks": 24912,
          "time": 84.162078,
          "velocity": 0.6692913385826772
        },
        {
          "duration": 0.040540500000005864,
          "durationTicks": 12,
          "midi": 37,
          "name": "C#2",
          "ticks": 25008,
          "time": 84.486402,
          "velocity": 0.6692913385826772
        },
        {
          "duration": 0.040540500000005864,
          "durationTicks": 12,
          "midi": 37,
          "name": "C#2",
          "ticks": 25056,
          "time": 84.648564,
          "velocity": 0.6692913385826772
        },
        {
          "duration": 0.04054049999999165,
          "durationTicks": 12,
          "midi": 37,
          "name": "C#2",
          "ticks": 25104,
          "time": 84.810726,
          "velocity": 0.6692913385826772
        },
        {
          "duration": 0.040540500000005864,
          "durationTicks": 12,
          "midi": 25,
          "name": "C#1",
          "ticks": 25152,
          "time": 84.972888,
          "velocity": 0.7007874015748031
        },
        {
          "duration": 0.04054049999999165,
          "durationTicks": 12,
          "midi": 37,
          "name": "C#2",
          "ticks": 25200,
          "time": 85.13505,
          "velocity": 0.6692913385826772
        },
        {
          "duration": 0.04054049999999165,
          "durationTicks": 12,
          "midi": 37,
          "name": "C#2",
          "ticks": 25248,
          "time": 85.297212,
          "velocity": 0.6692913385826772
        },
        {
          "duration": 0.040540500000005864,
          "durationTicks": 12,
          "midi": 37,
          "name": "C#2",
          "ticks": 25296,
          "time": 85.459374,
          "velocity": 0.6692913385826772
        },
        {
          "duration": 0.040540500000005864,
          "durationTicks": 12,
          "midi": 37,
          "name": "C#2",
          "ticks": 25392,
          "time": 85.783698,
          "velocity": 0.6692913385826772
        },
        {
          "duration": 0.040540500000005864,
          "durationTicks": 12,
          "midi": 37,
          "name": "C#2",
          "ticks": 25440,
          "time": 85.94586,
          "velocity": 0.6692913385826772
        },
        {
          "duration": 0.04054049999999165,
          "durationTicks": 12,
          "midi": 37,
          "name": "C#2",
          "ticks": 25488,
          "time": 86.108022,
          "velocity": 0.6692913385826772
        },
        {
          "duration": 0.040540500000005864,
          "durationTicks": 12,
          "midi": 25,
          "name": "C#1",
          "ticks": 25536,
          "time": 86.270184,
          "velocity": 0.7007874015748031
        },
        {
          "duration": 0.040540500000005864,
          "durationTicks": 12,
          "midi": 37,
          "name": "C#2",
          "ticks": 25584,
          "time": 86.432346,
          "velocity": 0.6692913385826772
        },
        {
          "duration": 0.04054049999999165,
          "durationTicks": 12,
          "midi": 37,
          "name": "C#2",
          "ticks": 25632,
          "time": 86.594508,
          "velocity": 0.6692913385826772
        },
        {
          "duration": 0.040540500000005864,
          "durationTicks": 12,
          "midi": 37,
          "name": "C#2",
          "ticks": 25680,
          "time": 86.75667,
          "velocity": 0.6692913385826772
        },
        {
          "duration": 0.04054049999999165,
          "durationTicks": 12,
          "midi": 37,
          "name": "C#2",
          "ticks": 25776,
          "time": 87.080994,
          "velocity": 0.6692913385826772
        },
        {
          "duration": 0.040540500000005864,
          "durationTicks": 12,
          "midi": 37,
          "name": "C#2",
          "ticks": 25824,
          "time": 87.243156,
          "velocity": 0.6692913385826772
        },
        {
          "duration": 0.040540500000005864,
          "durationTicks": 12,
          "midi": 37,
          "name": "C#2",
          "ticks": 25872,
          "time": 87.405318,
          "velocity": 0.6692913385826772
        },
        {
          "duration": 0.04054049999999165,
          "durationTicks": 12,
          "midi": 25,
          "name": "C#1",
          "ticks": 25920,
          "time": 87.56748,
          "velocity": 0.7007874015748031
        },
        {
          "duration": 0.040540500000005864,
          "durationTicks": 12,
          "midi": 37,
          "name": "C#2",
          "ticks": 25968,
          "time": 87.729642,
          "velocity": 0.6692913385826772
        },
        {
          "duration": 0.04054049999999165,
          "durationTicks": 12,
          "midi": 37,
          "name": "C#2",
          "ticks": 26064,
          "time": 88.053966,
          "velocity": 0.6692913385826772
        },
        {
          "duration": 0.04054049999999165,
          "durationTicks": 12,
          "midi": 37,
          "name": "C#2",
          "ticks": 26160,
          "time": 88.37829,
          "velocity": 0.6692913385826772
        },
        {
          "duration": 0.04054049999999165,
          "durationTicks": 12,
          "midi": 37,
          "name": "C#2",
          "ticks": 26208,
          "time": 88.540452,
          "velocity": 0.6692913385826772
        },
        {
          "duration": 0.040540500000005864,
          "durationTicks": 12,
          "midi": 37,
          "name": "C#2",
          "ticks": 26256,
          "time": 88.702614,
          "velocity": 0.6692913385826772
        },
        {
          "duration": 0.04054049999999165,
          "durationTicks": 12,
          "midi": 25,
          "name": "C#1",
          "ticks": 26304,
          "time": 88.864776,
          "velocity": 0.7007874015748031
        },
        {
          "duration": 0.040540500000005864,
          "durationTicks": 12,
          "midi": 37,
          "name": "C#2",
          "ticks": 26352,
          "time": 89.026938,
          "velocity": 0.6692913385826772
        },
        {
          "duration": 0.040540500000005864,
          "durationTicks": 12,
          "midi": 37,
          "name": "C#2",
          "ticks": 26400,
          "time": 89.1891,
          "velocity": 0.6692913385826772
        },
        {
          "duration": 0.04054049999999165,
          "durationTicks": 12,
          "midi": 37,
          "name": "C#2",
          "ticks": 26448,
          "time": 89.351262,
          "velocity": 0.6692913385826772
        },
        {
          "duration": 0.040540500000005864,
          "durationTicks": 12,
          "midi": 37,
          "name": "C#2",
          "ticks": 26544,
          "time": 89.675586,
          "velocity": 0.6692913385826772
        },
        {
          "duration": 0.04054049999999165,
          "durationTicks": 12,
          "midi": 37,
          "name": "C#2",
          "ticks": 26592,
          "time": 89.837748,
          "velocity": 0.6692913385826772
        },
        {
          "duration": 0.040540500000005864,
          "durationTicks": 12,
          "midi": 37,
          "name": "C#2",
          "ticks": 26640,
          "time": 89.99991,
          "velocity": 0.6692913385826772
        },
        {
          "duration": 0.040540500000005864,
          "durationTicks": 12,
          "midi": 25,
          "name": "C#1",
          "ticks": 26688,
          "time": 90.162072,
          "velocity": 0.7007874015748031
        },
        {
          "duration": 0.04054049999999165,
          "durationTicks": 12,
          "midi": 37,
          "name": "C#2",
          "ticks": 26736,
          "time": 90.324234,
          "velocity": 0.6692913385826772
        },
        {
          "duration": 0.040540500000005864,
          "durationTicks": 12,
          "midi": 37,
          "name": "C#2",
          "ticks": 26784,
          "time": 90.486396,
          "velocity": 0.6692913385826772
        },
        {
          "duration": 0.040540500000005864,
          "durationTicks": 12,
          "midi": 37,
          "name": "C#2",
          "ticks": 26832,
          "time": 90.648558,
          "velocity": 0.6692913385826772
        },
        {
          "duration": 0.040540500000005864,
          "durationTicks": 12,
          "midi": 37,
          "name": "C#2",
          "ticks": 26928,
          "time": 90.972882,
          "velocity": 0.6692913385826772
        },
        {
          "duration": 0.040540500000005864,
          "durationTicks": 12,
          "midi": 37,
          "name": "C#2",
          "ticks": 26976,
          "time": 91.135044,
          "velocity": 0.6692913385826772
        },
        {
          "duration": 0.04054049999999165,
          "durationTicks": 12,
          "midi": 37,
          "name": "C#2",
          "ticks": 27024,
          "time": 91.297206,
          "velocity": 0.6692913385826772
        },
        {
          "duration": 0.040540500000005864,
          "durationTicks": 12,
          "midi": 25,
          "name": "C#1",
          "ticks": 27072,
          "time": 91.459368,
          "velocity": 0.7007874015748031
        },
        {
          "duration": 0.04054049999999165,
          "durationTicks": 12,
          "midi": 37,
          "name": "C#2",
          "ticks": 27120,
          "time": 91.62153,
          "velocity": 0.6692913385826772
        },
        {
          "duration": 0.04054049999999165,
          "durationTicks": 12,
          "midi": 37,
          "name": "C#2",
          "ticks": 27168,
          "time": 91.783692,
          "velocity": 0.6692913385826772
        },
        {
          "duration": 0.040540500000005864,
          "durationTicks": 12,
          "midi": 37,
          "name": "C#2",
          "ticks": 27216,
          "time": 91.945854,
          "velocity": 0.6692913385826772
        },
        {
          "duration": 0.040540500000005864,
          "durationTicks": 12,
          "midi": 37,
          "name": "C#2",
          "ticks": 27312,
          "time": 92.270178,
          "velocity": 0.6692913385826772
        },
        {
          "duration": 0.040540500000005864,
          "durationTicks": 12,
          "midi": 37,
          "name": "C#2",
          "ticks": 27360,
          "time": 92.43234,
          "velocity": 0.6692913385826772
        },
        {
          "duration": 0.04054049999999165,
          "durationTicks": 12,
          "midi": 37,
          "name": "C#2",
          "ticks": 27408,
          "time": 92.594502,
          "velocity": 0.6692913385826772
        },
        {
          "duration": 0.040540500000005864,
          "durationTicks": 12,
          "midi": 25,
          "name": "C#1",
          "ticks": 27456,
          "time": 92.756664,
          "velocity": 0.7007874015748031
        },
        {
          "duration": 0.04054049999999165,
          "durationTicks": 12,
          "midi": 37,
          "name": "C#2",
          "ticks": 27696,
          "time": 93.567474,
          "velocity": 0.6692913385826772
        },
        {
          "duration": 0.040540500000005864,
          "durationTicks": 12,
          "midi": 37,
          "name": "C#2",
          "ticks": 27744,
          "time": 93.729636,
          "velocity": 0.6692913385826772
        },
        {
          "duration": 0.040540500000005864,
          "durationTicks": 12,
          "midi": 37,
          "name": "C#2",
          "ticks": 27792,
          "time": 93.891798,
          "velocity": 0.6692913385826772
        },
        {
          "duration": 0.04054049999999165,
          "durationTicks": 12,
          "midi": 25,
          "name": "C#1",
          "ticks": 27840,
          "time": 94.05396,
          "velocity": 0.7007874015748031
        },
        {
          "duration": 0.040540500000005864,
          "durationTicks": 12,
          "midi": 37,
          "name": "C#2",
          "ticks": 27888,
          "time": 94.216122,
          "velocity": 0.6692913385826772
        },
        {
          "duration": 0.040540500000005864,
          "durationTicks": 12,
          "midi": 37,
          "name": "C#2",
          "ticks": 27936,
          "time": 94.378284,
          "velocity": 0.6692913385826772
        },
        {
          "duration": 0.04054049999999165,
          "durationTicks": 12,
          "midi": 37,
          "name": "C#2",
          "ticks": 27984,
          "time": 94.540446,
          "velocity": 0.6692913385826772
        },
        {
          "duration": 0.04054049999999165,
          "durationTicks": 12,
          "midi": 37,
          "name": "C#2",
          "ticks": 28080,
          "time": 94.86477000000001,
          "velocity": 0.6692913385826772
        },
        {
          "duration": 0.04054049999999165,
          "durationTicks": 12,
          "midi": 37,
          "name": "C#2",
          "ticks": 28128,
          "time": 95.026932,
          "velocity": 0.6692913385826772
        },
        {
          "duration": 0.040540500000005864,
          "durationTicks": 12,
          "midi": 37,
          "name": "C#2",
          "ticks": 28176,
          "time": 95.189094,
          "velocity": 0.6692913385826772
        },
        {
          "duration": 0.04054049999999165,
          "durationTicks": 12,
          "midi": 25,
          "name": "C#1",
          "ticks": 28224,
          "time": 95.351256,
          "velocity": 0.7007874015748031
        },
        {
          "duration": 0.040540500000005864,
          "durationTicks": 12,
          "midi": 37,
          "name": "C#2",
          "ticks": 28272,
          "time": 95.513418,
          "velocity": 0.6692913385826772
        },
        {
          "duration": 0.040540500000005864,
          "durationTicks": 12,
          "midi": 37,
          "name": "C#2",
          "ticks": 28320,
          "time": 95.67558,
          "velocity": 0.6692913385826772
        },
        {
          "duration": 0.04054049999999165,
          "durationTicks": 12,
          "midi": 37,
          "name": "C#2",
          "ticks": 28368,
          "time": 95.837742,
          "velocity": 0.6692913385826772
        },
        {
          "duration": 0.040540500000005864,
          "durationTicks": 12,
          "midi": 42,
          "name": "F#2",
          "ticks": 32304,
          "time": 109.135026,
          "velocity": 0.5275590551181102
        },
        {
          "duration": 0.040540500000005864,
          "durationTicks": 12,
          "midi": 42,
          "name": "F#2",
          "ticks": 32400,
          "time": 109.45935,
          "velocity": 0.5275590551181102
        },
        {
          "duration": 0.04054049999999165,
          "durationTicks": 12,
          "midi": 42,
          "name": "F#2",
          "ticks": 32496,
          "time": 109.783674,
          "velocity": 0.5275590551181102
        },
        {
          "duration": 0.040540500000005864,
          "durationTicks": 12,
          "midi": 42,
          "name": "F#2",
          "ticks": 32592,
          "time": 110.107998,
          "velocity": 0.5275590551181102
        },
        {
          "duration": 0.040540500000005864,
          "durationTicks": 12,
          "midi": 41,
          "name": "F2",
          "ticks": 32688,
          "time": 110.432322,
          "velocity": 0.5275590551181102
        },
        {
          "duration": 0.04054049999999165,
          "durationTicks": 12,
          "midi": 41,
          "name": "F2",
          "ticks": 32784,
          "time": 110.756646,
          "velocity": 0.5275590551181102
        },
        {
          "duration": 0.040540500000005864,
          "durationTicks": 12,
          "midi": 41,
          "name": "F2",
          "ticks": 32880,
          "time": 111.08097,
          "velocity": 0.5275590551181102
        },
        {
          "duration": 0.040540500000005864,
          "durationTicks": 12,
          "midi": 41,
          "name": "F2",
          "ticks": 32976,
          "time": 111.405294,
          "velocity": 0.5275590551181102
        },
        {
          "duration": 0.04054049999999165,
          "durationTicks": 12,
          "midi": 46,
          "name": "A#2",
          "ticks": 33072,
          "time": 111.729618,
          "velocity": 0.5275590551181102
        },
        {
          "duration": 0.04054049999999165,
          "durationTicks": 12,
          "midi": 46,
          "name": "A#2",
          "ticks": 33168,
          "time": 112.053942,
          "velocity": 0.5275590551181102
        },
        {
          "duration": 0.040540500000005864,
          "durationTicks": 12,
          "midi": 46,
          "name": "A#2",
          "ticks": 33264,
          "time": 112.378266,
          "velocity": 0.5275590551181102
        },
        {
          "duration": 0.040540500000005864,
          "durationTicks": 12,
          "midi": 46,
          "name": "A#2",
          "ticks": 33360,
          "time": 112.70259,
          "velocity": 0.5275590551181102
        },
        {
          "duration": 0.04054049999999165,
          "durationTicks": 12,
          "midi": 44,
          "name": "G#2",
          "ticks": 33456,
          "time": 113.026914,
          "velocity": 0.5275590551181102
        },
        {
          "duration": 0.040540500000005864,
          "durationTicks": 12,
          "midi": 44,
          "name": "G#2",
          "ticks": 33552,
          "time": 113.351238,
          "velocity": 0.5275590551181102
        },
        {
          "duration": 0.040540500000005864,
          "durationTicks": 12,
          "midi": 37,
          "name": "C#2",
          "ticks": 33648,
          "time": 113.675562,
          "velocity": 0.5275590551181102
        },
        {
          "duration": 0.04054049999999165,
          "durationTicks": 12,
          "midi": 37,
          "name": "C#2",
          "ticks": 33744,
          "time": 113.999886,
          "velocity": 0.5275590551181102
        },
        {
          "duration": 0.040540500000005864,
          "durationTicks": 12,
          "midi": 42,
          "name": "F#2",
          "ticks": 33840,
          "time": 114.32421,
          "velocity": 0.5275590551181102
        },
        {
          "duration": 0.1486485000000073,
          "durationTicks": 44,
          "midi": 30,
          "name": "F#1",
          "ticks": 33840,
          "time": 114.32421,
          "velocity": 0.6692913385826772
        },
        {
          "duration": 0.12162150000000338,
          "durationTicks": 36,
          "midi": 31,
          "name": "G1",
          "ticks": 33840,
          "time": 114.32421,
          "velocity": 0.18110236220472442
        },
        {
          "duration": 0.12162150000000338,
          "durationTicks": 36,
          "midi": 32,
          "name": "G#1",
          "ticks": 33888,
          "time": 114.486372,
          "velocity": 0.2047244094488189
        },
        {
          "duration": 0.040540500000005864,
          "durationTicks": 12,
          "midi": 42,
          "name": "F#2",
          "ticks": 33936,
          "time": 114.648534,
          "velocity": 0.5275590551181102
        },
        {
          "duration": 0.14864849999999308,
          "durationTicks": 44,
          "midi": 30,
          "name": "F#1",
          "ticks": 33936,
          "time": 114.648534,
          "velocity": 0.6929133858267716
        },
        {
          "duration": 0.12162150000000338,
          "durationTicks": 36,
          "midi": 33,
          "name": "A1",
          "ticks": 33936,
          "time": 114.648534,
          "velocity": 0.2204724409448819
        },
        {
          "duration": 0.12162149999998917,
          "durationTicks": 36,
          "midi": 34,
          "name": "A#1",
          "ticks": 33984,
          "time": 114.81069600000001,
          "velocity": 0.23622047244094488
        },
        {
          "duration": 0.14864849999999308,
          "durationTicks": 44,
          "midi": 30,
          "name": "F#1",
          "ticks": 34032,
          "time": 114.972858,
          "velocity": 0.7086614173228346
        },
        {
          "duration": 0.12162150000000338,
          "durationTicks": 36,
          "midi": 35,
          "name": "B1",
          "ticks": 34032,
          "time": 114.972858,
          "velocity": 0.25984251968503935
        },
        {
          "duration": 0.04054049999999165,
          "durationTicks": 12,
          "midi": 42,
          "name": "F#2",
          "ticks": 34032,
          "time": 114.972858,
          "velocity": 0.5275590551181102
        },
        {
          "duration": 0.12162150000000338,
          "durationTicks": 36,
          "midi": 36,
          "name": "C2",
          "ticks": 34080,
          "time": 115.13502,
          "velocity": 0.2755905511811024
        },
        {
          "duration": 0.14864849999999308,
          "durationTicks": 44,
          "midi": 30,
          "name": "F#1",
          "ticks": 34128,
          "time": 115.297182,
          "velocity": 0.7322834645669292
        },
        {
          "duration": 0.12162149999998917,
          "durationTicks": 36,
          "midi": 37,
          "name": "C#2",
          "ticks": 34128,
          "time": 115.297182,
          "velocity": 0.2992125984251969
        },
        {
          "duration": 0.04054049999999165,
          "durationTicks": 12,
          "midi": 42,
          "name": "F#2",
          "ticks": 34128,
          "time": 115.297182,
          "velocity": 0.5275590551181102
        },
        {
          "duration": 0.12162150000000338,
          "durationTicks": 36,
          "midi": 38,
          "name": "D2",
          "ticks": 34176,
          "time": 115.459344,
          "velocity": 0.31496062992125984
        },
        {
          "duration": 0.12162150000000338,
          "durationTicks": 36,
          "midi": 39,
          "name": "D#2",
          "ticks": 34224,
          "time": 115.621506,
          "velocity": 0.33070866141732286
        },
        {
          "duration": 0.14864849999999308,
          "durationTicks": 44,
          "midi": 29,
          "name": "F1",
          "ticks": 34224,
          "time": 115.621506,
          "velocity": 0.7480314960629921
        },
        {
          "duration": 0.040540500000005864,
          "durationTicks": 12,
          "midi": 41,
          "name": "F2",
          "ticks": 34224,
          "time": 115.621506,
          "velocity": 0.5275590551181102
        },
        {
          "duration": 0.12162149999998917,
          "durationTicks": 36,
          "midi": 40,
          "name": "E2",
          "ticks": 34272,
          "time": 115.783668,
          "velocity": 0.3543307086614173
        },
        {
          "duration": 0.12162150000000338,
          "durationTicks": 36,
          "midi": 41,
          "name": "F2",
          "ticks": 34320,
          "time": 115.94583,
          "velocity": 0.3700787401574803
        },
        {
          "duration": 0.14864849999999308,
          "durationTicks": 44,
          "midi": 29,
          "name": "F1",
          "ticks": 34320,
          "time": 115.94583,
          "velocity": 0.7637795275590551
        },
        {
          "duration": 0.12162150000000338,
          "durationTicks": 36,
          "midi": 42,
          "name": "F#2",
          "ticks": 34368,
          "time": 116.107992,
          "velocity": 0.3937007874015748
        },
        {
          "duration": 0.04054049999999165,
          "durationTicks": 12,
          "midi": 41,
          "name": "F2",
          "ticks": 34416,
          "time": 116.270154,
          "velocity": 0.5275590551181102
        },
        {
          "duration": 0.14864849999999308,
          "durationTicks": 44,
          "midi": 29,
          "name": "F1",
          "ticks": 34416,
          "time": 116.270154,
          "velocity": 0.7874015748031497
        },
        {
          "duration": 0.12162149999998917,
          "durationTicks": 36,
          "midi": 43,
          "name": "G2",
          "ticks": 34416,
          "time": 116.270154,
          "velocity": 0.4094488188976378
        },
        {
          "duration": 0.12162150000000338,
          "durationTicks": 36,
          "midi": 44,
          "name": "G#2",
          "ticks": 34464,
          "time": 116.432316,
          "velocity": 0.4251968503937008
        },
        {
          "duration": 0.040540500000005864,
          "durationTicks": 12,
          "midi": 41,
          "name": "F2",
          "ticks": 34512,
          "time": 116.594478,
          "velocity": 0.5275590551181102
        },
        {
          "duration": 0.14864849999999308,
          "durationTicks": 44,
          "midi": 29,
          "name": "F1",
          "ticks": 34512,
          "time": 116.594478,
          "velocity": 0.8031496062992126
        },
        {
          "duration": 0.12162150000000338,
          "durationTicks": 36,
          "midi": 45,
          "name": "A2",
          "ticks": 34512,
          "time": 116.594478,
          "velocity": 0.44881889763779526
        },
        {
          "duration": 0.06756749999999556,
          "durationTicks": 20,
          "midi": 46,
          "name": "A#2",
          "ticks": 34560,
          "time": 116.75664,
          "velocity": 0.4645669291338583
        },
        {
          "duration": 0.06756749999999556,
          "durationTicks": 20,
          "midi": 46,
          "name": "A#2",
          "ticks": 34584,
          "time": 116.837721,
          "velocity": 0.47244094488188976
        },
        {
          "duration": 0.06756749999999556,
          "durationTicks": 20,
          "midi": 47,
          "name": "B2",
          "ticks": 34608,
          "time": 116.918802,
          "velocity": 0.4881889763779528
        },
        {
          "duration": 0.040540500000005864,
          "durationTicks": 12,
          "midi": 46,
          "name": "A#2",
          "ticks": 34608,
          "time": 116.918802,
          "velocity": 0.5275590551181102
        },
        {
          "duration": 0.06756749999999556,
          "durationTicks": 20,
          "midi": 47,
          "name": "B2",
          "ticks": 34632,
          "time": 116.999883,
          "velocity": 0.49606299212598426
        },
        {
          "duration": 0.06756749999999556,
          "durationTicks": 20,
          "midi": 48,
          "name": "C3",
          "ticks": 34656,
          "time": 117.080964,
          "velocity": 0.5039370078740157
        },
        {
          "duration": 0.06756749999998135,
          "durationTicks": 20,
          "midi": 48,
          "name": "C3",
          "ticks": 34680,
          "time": 117.162045,
          "velocity": 0.5118110236220472
        },
        {
          "duration": 0.04054049999999165,
          "durationTicks": 12,
          "midi": 46,
          "name": "A#2",
          "ticks": 34704,
          "time": 117.243126,
          "velocity": 0.5275590551181102
        },
        {
          "duration": 0.06756749999999556,
          "durationTicks": 20,
          "midi": 49,
          "name": "C#3",
          "ticks": 34704,
          "time": 117.243126,
          "velocity": 0.5196850393700787
        },
        {
          "duration": 0.06756749999999556,
          "durationTicks": 20,
          "midi": 49,
          "name": "C#3",
          "ticks": 34728,
          "time": 117.324207,
          "velocity": 0.5354330708661418
        },
        {
          "duration": 0.06756749999999556,
          "durationTicks": 20,
          "midi": 50,
          "name": "D3",
          "ticks": 34752,
          "time": 117.405288,
          "velocity": 0.5433070866141733
        },
        {
          "duration": 0.06756749999999556,
          "durationTicks": 20,
          "midi": 50,
          "name": "D3",
          "ticks": 34776,
          "time": 117.486369,
          "velocity": 0.5511811023622047
        },
        {
          "duration": 0.06756749999999556,
          "durationTicks": 20,
          "midi": 51,
          "name": "D#3",
          "ticks": 34800,
          "time": 117.56745,
          "velocity": 0.5590551181102362
        },
        {
          "duration": 0.040540500000005864,
          "durationTicks": 12,
          "midi": 46,
          "name": "A#2",
          "ticks": 34800,
          "time": 117.56745,
          "velocity": 0.5275590551181102
        },
        {
          "duration": 0.06756749999999556,
          "durationTicks": 20,
          "midi": 51,
          "name": "D#3",
          "ticks": 34824,
          "time": 117.648531,
          "velocity": 0.5669291338582677
        },
        {
          "duration": 0.06756749999999556,
          "durationTicks": 20,
          "midi": 52,
          "name": "E3",
          "ticks": 34848,
          "time": 117.729612,
          "velocity": 0.5826771653543307
        },
        {
          "duration": 0.06756749999999556,
          "durationTicks": 20,
          "midi": 52,
          "name": "E3",
          "ticks": 34872,
          "time": 117.810693,
          "velocity": 0.5905511811023622
        },
        {
          "duration": 0.040540500000005864,
          "durationTicks": 12,
          "midi": 46,
          "name": "A#2",
          "ticks": 34896,
          "time": 117.891774,
          "velocity": 0.5275590551181102
        },
        {
          "duration": 0.06756749999999556,
          "durationTicks": 20,
          "midi": 53,
          "name": "F3",
          "ticks": 34896,
          "time": 117.891774,
          "velocity": 0.5984251968503937
        },
        {
          "duration": 0.06756749999999556,
          "durationTicks": 20,
          "midi": 53,
          "name": "F3",
          "ticks": 34920,
          "time": 117.972855,
          "velocity": 0.6062992125984252
        },
        {
          "duration": 0.06756749999998135,
          "durationTicks": 20,
          "midi": 54,
          "name": "F#3",
          "ticks": 34944,
          "time": 118.05393600000001,
          "velocity": 0.6220472440944882
        },
        {
          "duration": 0.06756749999999556,
          "durationTicks": 20,
          "midi": 54,
          "name": "F#3",
          "ticks": 34968,
          "time": 118.135017,
          "velocity": 0.6299212598425197
        },
        {
          "duration": 0.06756749999999556,
          "durationTicks": 20,
          "midi": 55,
          "name": "G3",
          "ticks": 34992,
          "time": 118.216098,
          "velocity": 0.6377952755905512
        },
        {
          "duration": 0.04054049999999165,
          "durationTicks": 12,
          "midi": 46,
          "name": "A#2",
          "ticks": 34992,
          "time": 118.216098,
          "velocity": 0.5275590551181102
        },
        {
          "duration": 0.06756749999999556,
          "durationTicks": 20,
          "midi": 55,
          "name": "G3",
          "ticks": 35016,
          "time": 118.297179,
          "velocity": 0.6456692913385826
        },
        {
          "duration": 0.06756749999999556,
          "durationTicks": 20,
          "midi": 56,
          "name": "G#3",
          "ticks": 35040,
          "time": 118.37826,
          "velocity": 0.6535433070866141
        },
        {
          "duration": 0.06756749999999556,
          "durationTicks": 20,
          "midi": 56,
          "name": "G#3",
          "ticks": 35064,
          "time": 118.459341,
          "velocity": 0.6692913385826772
        },
        {
          "duration": 0.04054049999999165,
          "durationTicks": 12,
          "midi": 45,
          "name": "A2",
          "ticks": 35088,
          "time": 118.540422,
          "velocity": 0.5275590551181102
        },
        {
          "duration": 0.06756749999998135,
          "durationTicks": 20,
          "midi": 57,
          "name": "A3",
          "ticks": 35088,
          "time": 118.540422,
          "velocity": 0.6771653543307087
        },
        {
          "duration": 0.06756749999999556,
          "durationTicks": 20,
          "midi": 57,
          "name": "A3",
          "ticks": 35112,
          "time": 118.621503,
          "velocity": 0.6850393700787402
        },
        {
          "duration": 0.06756749999999556,
          "durationTicks": 20,
          "midi": 58,
          "name": "A#3",
          "ticks": 35136,
          "time": 118.702584,
          "velocity": 0.6929133858267716
        },
        {
          "duration": 0.06756749999999556,
          "durationTicks": 20,
          "midi": 58,
          "name": "A#3",
          "ticks": 35160,
          "time": 118.783665,
          "velocity": 0.7007874015748031
        },
        {
          "duration": 0.040540500000005864,
          "durationTicks": 12,
          "midi": 44,
          "name": "G#2",
          "ticks": 35184,
          "time": 118.864746,
          "velocity": 0.5275590551181102
        },
        {
          "duration": 0.06756749999999556,
          "durationTicks": 20,
          "midi": 59,
          "name": "B3",
          "ticks": 35184,
          "time": 118.864746,
          "velocity": 0.7165354330708661
        },
        {
          "duration": 0.06756749999999556,
          "durationTicks": 20,
          "midi": 59,
          "name": "B3",
          "ticks": 35208,
          "time": 118.945827,
          "velocity": 0.7244094488188977
        },
        {
          "duration": 0.06756749999998135,
          "durationTicks": 20,
          "midi": 60,
          "name": "C4",
          "ticks": 35232,
          "time": 119.026908,
          "velocity": 0.7322834645669292
        },
        {
          "duration": 0.06756749999999556,
          "durationTicks": 20,
          "midi": 60,
          "name": "C4",
          "ticks": 35256,
          "time": 119.107989,
          "velocity": 0.7401574803149606
        },
        {
          "duration": 0.06756749999999556,
          "durationTicks": 20,
          "midi": 61,
          "name": "C#4",
          "ticks": 35280,
          "time": 119.18907,
          "velocity": 0.7480314960629921
        },
        {
          "duration": 0.040540500000005864,
          "durationTicks": 12,
          "midi": 43,
          "name": "G2",
          "ticks": 35280,
          "time": 119.18907,
          "velocity": 0.5275590551181102
        },
        {
          "duration": 0.06756749999999556,
          "durationTicks": 20,
          "midi": 61,
          "name": "C#4",
          "ticks": 35304,
          "time": 119.270151,
          "velocity": 0.7637795275590551
        },
        {
          "duration": 0.040540500000005864,
          "durationTicks": 12,
          "midi": 47,
          "name": "B2",
          "ticks": 36144,
          "time": 122.107986,
          "velocity": 0.7401574803149606
        },
        {
          "duration": 0.040540500000005864,
          "durationTicks": 12,
          "midi": 47,
          "name": "B2",
          "ticks": 36240,
          "time": 122.43231,
          "velocity": 0.7401574803149606
        },
        {
          "duration": 0.04054049999999165,
          "durationTicks": 12,
          "midi": 47,
          "name": "B2",
          "ticks": 36336,
          "time": 122.756634,
          "velocity": 0.7401574803149606
        },
        {
          "duration": 0.040540500000005864,
          "durationTicks": 12,
          "midi": 47,
          "name": "B2",
          "ticks": 36432,
          "time": 123.080958,
          "velocity": 0.7401574803149606
        },
        {
          "duration": 0.040540500000005864,
          "durationTicks": 12,
          "midi": 45,
          "name": "A2",
          "ticks": 36528,
          "time": 123.405282,
          "velocity": 0.7401574803149606
        },
        {
          "duration": 0.04054049999999165,
          "durationTicks": 12,
          "midi": 45,
          "name": "A2",
          "ticks": 36624,
          "time": 123.729606,
          "velocity": 0.7401574803149606
        },
        {
          "duration": 0.040540500000005864,
          "durationTicks": 12,
          "midi": 38,
          "name": "D2",
          "ticks": 36720,
          "time": 124.05393,
          "velocity": 0.7401574803149606
        },
        {
          "duration": 0.040540500000005864,
          "durationTicks": 12,
          "midi": 38,
          "name": "D2",
          "ticks": 36816,
          "time": 124.378254,
          "velocity": 0.7401574803149606
        },
        {
          "duration": 0.04054049999999165,
          "durationTicks": 12,
          "midi": 43,
          "name": "G2",
          "ticks": 36912,
          "time": 124.702578,
          "velocity": 0.7401574803149606
        },
        {
          "duration": 0.04054049999999165,
          "durationTicks": 12,
          "midi": 43,
          "name": "G2",
          "ticks": 37008,
          "time": 125.026902,
          "velocity": 0.7401574803149606
        },
        {
          "duration": 0.040540500000005864,
          "durationTicks": 12,
          "midi": 43,
          "name": "G2",
          "ticks": 37104,
          "time": 125.351226,
          "velocity": 0.7401574803149606
        },
        {
          "duration": 0.040540500000005864,
          "durationTicks": 12,
          "midi": 43,
          "name": "G2",
          "ticks": 37200,
          "time": 125.67555,
          "velocity": 0.7401574803149606
        },
        {
          "duration": 0.04054049999999165,
          "durationTicks": 12,
          "midi": 42,
          "name": "F#2",
          "ticks": 37296,
          "time": 125.999874,
          "velocity": 0.7401574803149606
        },
        {
          "duration": 0.040540500000005864,
          "durationTicks": 12,
          "midi": 42,
          "name": "F#2",
          "ticks": 37392,
          "time": 126.324198,
          "velocity": 0.7401574803149606
        },
        {
          "duration": 0.040540500000005864,
          "durationTicks": 12,
          "midi": 42,
          "name": "F#2",
          "ticks": 37488,
          "time": 126.648522,
          "velocity": 0.7401574803149606
        },
        {
          "duration": 0.04054049999999165,
          "durationTicks": 12,
          "midi": 42,
          "name": "F#2",
          "ticks": 37584,
          "time": 126.972846,
          "velocity": 0.7401574803149606
        },
        {
          "duration": 0.040540500000005864,
          "durationTicks": 12,
          "midi": 47,
          "name": "B2",
          "ticks": 37680,
          "time": 127.29717,
          "velocity": 0.7401574803149606
        },
        {
          "duration": 0.040540500000005864,
          "durationTicks": 12,
          "midi": 47,
          "name": "B2",
          "ticks": 37776,
          "time": 127.621494,
          "velocity": 0.7401574803149606
        },
        {
          "duration": 0.04054049999999165,
          "durationTicks": 12,
          "midi": 47,
          "name": "B2",
          "ticks": 37872,
          "time": 127.945818,
          "velocity": 0.7401574803149606
        },
        {
          "duration": 0.040540500000020074,
          "durationTicks": 12,
          "midi": 47,
          "name": "B2",
          "ticks": 37968,
          "time": 128.270142,
          "velocity": 0.7401574803149606
        },
        {
          "duration": 0.04054049999999165,
          "durationTicks": 12,
          "midi": 28,
          "name": "E1",
          "ticks": 38040,
          "time": 128.513385,
          "velocity": 0.7952755905511811
        },
        {
          "duration": 0.04054049999999165,
          "durationTicks": 12,
          "midi": 40,
          "name": "E2",
          "ticks": 38064,
          "time": 128.594466,
          "velocity": 0.7952755905511811
        },
        {
          "duration": 0.04054049999999165,
          "durationTicks": 12,
          "midi": 28,
          "name": "E1",
          "ticks": 38160,
          "time": 128.91879,
          "velocity": 0.7952755905511811
        },
        {
          "duration": 0.04054049999999165,
          "durationTicks": 12,
          "midi": 28,
          "name": "E1",
          "ticks": 38184,
          "time": 128.999871,
          "velocity": 0.7952755905511811
        },
        {
          "duration": 0.040540500000020074,
          "durationTicks": 12,
          "midi": 28,
          "name": "E1",
          "ticks": 38256,
          "time": 129.243114,
          "velocity": 0.7952755905511811
        },
        {
          "duration": 0.040540500000020074,
          "durationTicks": 12,
          "midi": 40,
          "name": "E2",
          "ticks": 38256,
          "time": 129.243114,
          "velocity": 0.7952755905511811
        },
        {
          "duration": 0.04054049999999165,
          "durationTicks": 12,
          "midi": 28,
          "name": "E1",
          "ticks": 38352,
          "time": 129.567438,
          "velocity": 0.7952755905511811
        },
        {
          "duration": 0.04054049999999165,
          "durationTicks": 12,
          "midi": 40,
          "name": "E2",
          "ticks": 38352,
          "time": 129.567438,
          "velocity": 0.7952755905511811
        },
        {
          "duration": 0.04054049999999165,
          "durationTicks": 12,
          "midi": 43,
          "name": "G2",
          "ticks": 38448,
          "time": 129.891762,
          "velocity": 0.7401574803149606
        },
        {
          "duration": 0.040540500000020074,
          "durationTicks": 12,
          "midi": 43,
          "name": "G2",
          "ticks": 38544,
          "time": 130.216086,
          "velocity": 0.7401574803149606
        },
        {
          "duration": 0.04054049999999165,
          "durationTicks": 12,
          "midi": 43,
          "name": "G2",
          "ticks": 38640,
          "time": 130.54041,
          "velocity": 0.7401574803149606
        },
        {
          "duration": 0.04054049999999165,
          "durationTicks": 12,
          "midi": 43,
          "name": "G2",
          "ticks": 38736,
          "time": 130.864734,
          "velocity": 0.7401574803149606
        },
        {
          "duration": 0.040540500000020074,
          "durationTicks": 12,
          "midi": 42,
          "name": "F#2",
          "ticks": 38832,
          "time": 131.189058,
          "velocity": 0.7401574803149606
        },
        {
          "duration": 0.04054049999999165,
          "durationTicks": 12,
          "midi": 42,
          "name": "F#2",
          "ticks": 38928,
          "time": 131.513382,
          "velocity": 0.7401574803149606
        },
        {
          "duration": 0.04054049999999165,
          "durationTicks": 12,
          "midi": 42,
          "name": "F#2",
          "ticks": 39024,
          "time": 131.837706,
          "velocity": 0.7401574803149606
        },
        {
          "duration": 0.040540500000020074,
          "durationTicks": 12,
          "midi": 42,
          "name": "F#2",
          "ticks": 39120,
          "time": 132.16203,
          "velocity": 0.7401574803149606
        },
        {
          "duration": 0.04054049999999165,
          "durationTicks": 12,
          "midi": 47,
          "name": "B2",
          "ticks": 39216,
          "time": 132.486354,
          "velocity": 0.7401574803149606
        },
        {
          "duration": 0.04054049999999165,
          "durationTicks": 12,
          "midi": 47,
          "name": "B2",
          "ticks": 39312,
          "time": 132.810678,
          "velocity": 0.7401574803149606
        },
        {
          "duration": 0.04054049999999165,
          "durationTicks": 12,
          "midi": 47,
          "name": "B2",
          "ticks": 39408,
          "time": 133.13500200000001,
          "velocity": 0.7401574803149606
        },
        {
          "duration": 0.04054049999999165,
          "durationTicks": 12,
          "midi": 47,
          "name": "B2",
          "ticks": 39504,
          "time": 133.459326,
          "velocity": 0.7401574803149606
        },
        {
          "duration": 0.040540500000020074,
          "durationTicks": 12,
          "midi": 45,
          "name": "A2",
          "ticks": 39600,
          "time": 133.78365,
          "velocity": 0.7401574803149606
        },
        {
          "duration": 0.04054049999999165,
          "durationTicks": 12,
          "midi": 45,
          "name": "A2",
          "ticks": 39696,
          "time": 134.107974,
          "velocity": 0.7401574803149606
        },
        {
          "duration": 0.04054049999999165,
          "durationTicks": 12,
          "midi": 38,
          "name": "D2",
          "ticks": 39792,
          "time": 134.432298,
          "velocity": 0.7401574803149606
        },
        {
          "duration": 0.040540500000020074,
          "durationTicks": 12,
          "midi": 38,
          "name": "D2",
          "ticks": 39888,
          "time": 134.756622,
          "velocity": 0.7401574803149606
        },
        {
          "duration": 0.04054049999999165,
          "durationTicks": 12,
          "midi": 43,
          "name": "G2",
          "ticks": 39984,
          "time": 135.080946,
          "velocity": 0.7401574803149606
        },
        {
          "duration": 0.04054049999999165,
          "durationTicks": 12,
          "midi": 43,
          "name": "G2",
          "ticks": 40080,
          "time": 135.40527,
          "velocity": 0.7401574803149606
        },
        {
          "duration": 0.040540500000020074,
          "durationTicks": 12,
          "midi": 43,
          "name": "G2",
          "ticks": 40176,
          "time": 135.729594,
          "velocity": 0.7401574803149606
        },
        {
          "duration": 0.04054049999999165,
          "durationTicks": 12,
          "midi": 43,
          "name": "G2",
          "ticks": 40272,
          "time": 136.053918,
          "velocity": 0.7401574803149606
        },
        {
          "duration": 0.04054049999999165,
          "durationTicks": 12,
          "midi": 42,
          "name": "F#2",
          "ticks": 40368,
          "time": 136.378242,
          "velocity": 0.7401574803149606
        },
        {
          "duration": 0.040540500000020074,
          "durationTicks": 12,
          "midi": 42,
          "name": "F#2",
          "ticks": 40464,
          "time": 136.702566,
          "velocity": 0.7401574803149606
        },
        {
          "duration": 0.04054049999999165,
          "durationTicks": 12,
          "midi": 42,
          "name": "F#2",
          "ticks": 40560,
          "time": 137.02689,
          "velocity": 0.7401574803149606
        },
        {
          "duration": 0.04054049999999165,
          "durationTicks": 12,
          "midi": 42,
          "name": "F#2",
          "ticks": 40656,
          "time": 137.351214,
          "velocity": 0.7401574803149606
        },
        {
          "duration": 0.040540500000020074,
          "durationTicks": 12,
          "midi": 47,
          "name": "B2",
          "ticks": 40752,
          "time": 137.675538,
          "velocity": 0.7401574803149606
        },
        {
          "duration": 0.04054049999999165,
          "durationTicks": 12,
          "midi": 47,
          "name": "B2",
          "ticks": 40848,
          "time": 137.999862,
          "velocity": 0.7401574803149606
        },
        {
          "duration": 0.04054049999999165,
          "durationTicks": 12,
          "midi": 47,
          "name": "B2",
          "ticks": 40944,
          "time": 138.324186,
          "velocity": 0.7401574803149606
        },
        {
          "duration": 0.040540500000020074,
          "durationTicks": 12,
          "midi": 47,
          "name": "B2",
          "ticks": 41040,
          "time": 138.64851,
          "velocity": 0.7401574803149606
        },
        {
          "duration": 0.040540500000020074,
          "durationTicks": 12,
          "midi": 35,
          "name": "B1",
          "ticks": 41112,
          "time": 138.891753,
          "velocity": 0.7952755905511811
        },
        {
          "duration": 0.04054049999999165,
          "durationTicks": 12,
          "midi": 47,
          "name": "B2",
          "ticks": 41136,
          "time": 138.972834,
          "velocity": 0.7952755905511811
        },
        {
          "duration": 0.04054049999999165,
          "durationTicks": 12,
          "midi": 34,
          "name": "A#1",
          "ticks": 41232,
          "time": 139.297158,
          "velocity": 0.7952755905511811
        },
        {
          "duration": 0.04054049999999165,
          "durationTicks": 12,
          "midi": 34,
          "name": "A#1",
          "ticks": 41256,
          "time": 139.378239,
          "velocity": 0.7952755905511811
        },
        {
          "duration": 0.04054049999999165,
          "durationTicks": 12,
          "midi": 33,
          "name": "A1",
          "ticks": 41328,
          "time": 139.62148200000001,
          "velocity": 0.7952755905511811
        },
        {
          "duration": 0.04054049999999165,
          "durationTicks": 12,
          "midi": 45,
          "name": "A2",
          "ticks": 41328,
          "time": 139.62148200000001,
          "velocity": 0.7952755905511811
        },
        {
          "duration": 0.04054049999999165,
          "durationTicks": 12,
          "midi": 44,
          "name": "G#2",
          "ticks": 41424,
          "time": 139.945806,
          "velocity": 0.7952755905511811
        },
        {
          "duration": 0.04054049999999165,
          "durationTicks": 12,
          "midi": 32,
          "name": "G#1",
          "ticks": 41424,
          "time": 139.945806,
          "velocity": 0.7952755905511811
        },
        {
          "duration": 0.04054049999999165,
          "durationTicks": 12,
          "midi": 38,
          "name": "D2",
          "ticks": 41496,
          "time": 140.189049,
          "velocity": 0.7480314960629921
        },
        {
          "duration": 0.04054049999999165,
          "durationTicks": 12,
          "midi": 26,
          "name": "D1",
          "ticks": 41520,
          "time": 140.27013,
          "velocity": 0.7480314960629921
        },
        {
          "duration": 0.04054049999999165,
          "durationTicks": 12,
          "midi": 26,
          "name": "D1",
          "ticks": 41640,
          "time": 140.675535,
          "velocity": 0.7480314960629921
        },
        {
          "duration": 0.040540500000020074,
          "durationTicks": 12,
          "midi": 38,
          "name": "D2",
          "ticks": 41688,
          "time": 140.837697,
          "velocity": 0.7480314960629921
        },
        {
          "duration": 0.04054049999999165,
          "durationTicks": 12,
          "midi": 26,
          "name": "D1",
          "ticks": 41712,
          "time": 140.918778,
          "velocity": 0.7480314960629921
        },
        {
          "duration": 0.040540500000020074,
          "durationTicks": 12,
          "midi": 26,
          "name": "D1",
          "ticks": 41736,
          "time": 140.999859,
          "velocity": 0.7480314960629921
        },
        {
          "duration": 0.04054049999999165,
          "durationTicks": 12,
          "midi": 26,
          "name": "D1",
          "ticks": 41784,
          "time": 141.162021,
          "velocity": 0.7480314960629921
        },
        {
          "duration": 0.040540500000020074,
          "durationTicks": 12,
          "midi": 26,
          "name": "D1",
          "ticks": 41808,
          "time": 141.243102,
          "velocity": 0.7480314960629921
        },
        {
          "duration": 0.04054049999999165,
          "durationTicks": 12,
          "midi": 26,
          "name": "D1",
          "ticks": 41832,
          "time": 141.324183,
          "velocity": 0.7480314960629921
        },
        {
          "duration": 0.04054049999999165,
          "durationTicks": 12,
          "midi": 43,
          "name": "G2",
          "ticks": 42288,
          "time": 142.864722,
          "velocity": 0.7401574803149606
        },
        {
          "duration": 0.040540500000020074,
          "durationTicks": 12,
          "midi": 43,
          "name": "G2",
          "ticks": 42384,
          "time": 143.189046,
          "velocity": 0.7401574803149606
        },
        {
          "duration": 0.04054049999999165,
          "durationTicks": 12,
          "midi": 43,
          "name": "G2",
          "ticks": 42480,
          "time": 143.51337,
          "velocity": 0.7401574803149606
        },
        {
          "duration": 0.04054049999999165,
          "durationTicks": 12,
          "midi": 43,
          "name": "G2",
          "ticks": 42576,
          "time": 143.837694,
          "velocity": 0.7401574803149606
        },
        {
          "duration": 0.040540500000020074,
          "durationTicks": 12,
          "midi": 42,
          "name": "F#2",
          "ticks": 42672,
          "time": 144.162018,
          "velocity": 0.7401574803149606
        },
        {
          "duration": 0.04054049999999165,
          "durationTicks": 12,
          "midi": 42,
          "name": "F#2",
          "ticks": 42768,
          "time": 144.486342,
          "velocity": 0.7401574803149606
        },
        {
          "duration": 0.04054049999999165,
          "durationTicks": 12,
          "midi": 42,
          "name": "F#2",
          "ticks": 42864,
          "time": 144.810666,
          "velocity": 0.7401574803149606
        },
        {
          "duration": 0.040540500000020074,
          "durationTicks": 12,
          "midi": 42,
          "name": "F#2",
          "ticks": 42960,
          "time": 145.13499,
          "velocity": 0.7401574803149606
        },
        {
          "duration": 0.04054049999999165,
          "durationTicks": 12,
          "midi": 47,
          "name": "B2",
          "ticks": 43056,
          "time": 145.459314,
          "velocity": 0.7401574803149606
        },
        {
          "duration": 0.04054049999999165,
          "durationTicks": 12,
          "midi": 47,
          "name": "B2",
          "ticks": 43152,
          "time": 145.783638,
          "velocity": 0.7401574803149606
        },
        {
          "duration": 0.040540500000020074,
          "durationTicks": 12,
          "midi": 47,
          "name": "B2",
          "ticks": 43248,
          "time": 146.107962,
          "velocity": 0.7401574803149606
        },
        {
          "duration": 0.04054049999999165,
          "durationTicks": 12,
          "midi": 47,
          "name": "B2",
          "ticks": 43344,
          "time": 146.432286,
          "velocity": 0.7401574803149606
        },
        {
          "duration": 0.04054049999999165,
          "durationTicks": 12,
          "midi": 45,
          "name": "A2",
          "ticks": 43440,
          "time": 146.75661,
          "velocity": 0.7401574803149606
        },
        {
          "duration": 0.04054049999999165,
          "durationTicks": 12,
          "midi": 45,
          "name": "A2",
          "ticks": 43536,
          "time": 147.080934,
          "velocity": 0.7401574803149606
        },
        {
          "duration": 0.04054049999999165,
          "durationTicks": 12,
          "midi": 38,
          "name": "D2",
          "ticks": 43632,
          "time": 147.405258,
          "velocity": 0.7401574803149606
        },
        {
          "duration": 0.040540500000020074,
          "durationTicks": 12,
          "midi": 38,
          "name": "D2",
          "ticks": 43728,
          "time": 147.729582,
          "velocity": 0.7401574803149606
        },
        {
          "duration": 0.04054049999999165,
          "durationTicks": 12,
          "midi": 43,
          "name": "G2",
          "ticks": 43824,
          "time": 148.053906,
          "velocity": 0.7401574803149606
        },
        {
          "duration": 0.04054049999999165,
          "durationTicks": 12,
          "midi": 43,
          "name": "G2",
          "ticks": 43920,
          "time": 148.37823,
          "velocity": 0.7401574803149606
        },
        {
          "duration": 0.040540500000020074,
          "durationTicks": 12,
          "midi": 43,
          "name": "G2",
          "ticks": 44016,
          "time": 148.702554,
          "velocity": 0.7401574803149606
        },
        {
          "duration": 0.04054049999999165,
          "durationTicks": 12,
          "midi": 43,
          "name": "G2",
          "ticks": 44112,
          "time": 149.026878,
          "velocity": 0.7401574803149606
        },
        {
          "duration": 0.04054049999999165,
          "durationTicks": 12,
          "midi": 42,
          "name": "F#2",
          "ticks": 44208,
          "time": 149.351202,
          "velocity": 0.7401574803149606
        },
        {
          "duration": 0.040540500000020074,
          "durationTicks": 12,
          "midi": 42,
          "name": "F#2",
          "ticks": 44304,
          "time": 149.675526,
          "velocity": 0.7401574803149606
        },
        {
          "duration": 0.04054049999999165,
          "durationTicks": 12,
          "midi": 42,
          "name": "F#2",
          "ticks": 44400,
          "time": 149.99985,
          "velocity": 0.7401574803149606
        },
        {
          "duration": 0.04054049999999165,
          "durationTicks": 12,
          "midi": 42,
          "name": "F#2",
          "ticks": 44496,
          "time": 150.324174,
          "velocity": 0.7401574803149606
        },
        {
          "duration": 0.040540500000020074,
          "durationTicks": 12,
          "midi": 47,
          "name": "B2",
          "ticks": 44592,
          "time": 150.648498,
          "velocity": 0.7401574803149606
        },
        {
          "duration": 0.04054049999999165,
          "durationTicks": 12,
          "midi": 47,
          "name": "B2",
          "ticks": 44688,
          "time": 150.972822,
          "velocity": 0.7401574803149606
        },
        {
          "duration": 0.04054049999999165,
          "durationTicks": 12,
          "midi": 47,
          "name": "B2",
          "ticks": 44784,
          "time": 151.297146,
          "velocity": 0.7401574803149606
        },
        {
          "duration": 0.040540500000020074,
          "durationTicks": 12,
          "midi": 47,
          "name": "B2",
          "ticks": 44880,
          "time": 151.62147,
          "velocity": 0.7401574803149606
        },
        {
          "duration": 0.04054049999999165,
          "durationTicks": 12,
          "midi": 33,
          "name": "A1",
          "ticks": 44952,
          "time": 151.864713,
          "velocity": 0.7952755905511811
        },
        {
          "duration": 0.04054049999999165,
          "durationTicks": 12,
          "midi": 45,
          "name": "A2",
          "ticks": 44976,
          "time": 151.945794,
          "velocity": 0.7952755905511811
        },
        {
          "duration": 0.04054049999999165,
          "durationTicks": 12,
          "midi": 33,
          "name": "A1",
          "ticks": 45072,
          "time": 152.270118,
          "velocity": 0.7952755905511811
        },
        {
          "duration": 0.04054049999999165,
          "durationTicks": 12,
          "midi": 33,
          "name": "A1",
          "ticks": 45096,
          "time": 152.351199,
          "velocity": 0.7952755905511811
        },
        {
          "duration": 0.040540500000020074,
          "durationTicks": 12,
          "midi": 38,
          "name": "D2",
          "ticks": 45168,
          "time": 152.594442,
          "velocity": 0.7952755905511811
        },
        {
          "duration": 0.040540500000020074,
          "durationTicks": 12,
          "midi": 26,
          "name": "D1",
          "ticks": 45168,
          "time": 152.594442,
          "velocity": 0.7952755905511811
        },
        {
          "duration": 0.04054049999999165,
          "durationTicks": 12,
          "midi": 38,
          "name": "D2",
          "ticks": 45264,
          "time": 152.918766,
          "velocity": 0.7952755905511811
        },
        {
          "duration": 0.04054049999999165,
          "durationTicks": 12,
          "midi": 26,
          "name": "D1",
          "ticks": 45264,
          "time": 152.918766,
          "velocity": 0.7952755905511811
        }
      ],
      "endOfTrackTicks": 46086
    },
    {
      "channel": 1,
      "controlChanges": {
        "6": [
          {
            "number": 6,
            "ticks": 0,
            "time": 0,
            "value": 0.09448818897637795
          },
          {
            "number": 6,
            "ticks": 0,
            "time": 0,
            "value": 0.09448818897637795
          },
          {
            "number": 6,
            "ticks": 0,
            "time": 0,
            "value": 0.09448818897637795
          },
          {
            "number": 6,
            "ticks": 46084,
            "time": 155.6890335,
            "value": 0.09448818897637795
          },
          {
            "number": 6,
            "ticks": 46086,
            "time": 155.69579025,
            "value": 0.09448818897637795
          }
        ],
        "7": [
          {
            "number": 7,
            "ticks": 0,
            "time": 0,
            "value": 0.7874015748031497
          },
          {
            "number": 7,
            "ticks": 0,
            "time": 0,
            "value": 0.7874015748031497
          },
          {
            "number": 7,
            "ticks": 0,
            "time": 0,
            "value": 0.7874015748031497
          },
          {
            "number": 7,
            "ticks": 0,
            "time": 0,
            "value": 0.7874015748031497
          },
          {
            "number": 7,
            "ticks": 0,
            "time": 0,
            "value": 0.7874015748031497
          },
          {
            "number": 7,
            "ticks": 46084,
            "time": 155.6890335,
            "value": 0.7874015748031497
          },
          {
            "number": 7,
            "ticks": 46085,
            "time": 155.692411875,
            "value": 0.7874015748031497
          },
          {
            "number": 7,
            "ticks": 46086,
            "time": 155.69579025,
            "value": 0.7874015748031497
          }
        ],
        "10": [
          {
            "number": 10,
            "ticks": 0,
            "time": 0,
            "value": 0.5039370078740157
          },
          {
            "number": 10,
            "ticks": 0,
            "time": 0,
            "value": 0.5039370078740157
          },
          {
            "number": 10,
            "ticks": 0,
            "time": 0,
            "value": 0.5039370078740157
          },
          {
            "number": 10,
            "ticks": 0,
            "time": 0,
            "value": 0.5039370078740157
          },
          {
            "number": 10,
            "ticks": 46084,
            "time": 155.6890335,
            "value": 0.5039370078740157
          },
          {
            "number": 10,
            "ticks": 46086,
            "time": 155.69579025,
            "value": 0.5039370078740157
          }
        ],
        "100": [
          {
            "number": 100,
            "ticks": 0,
            "time": 0,
            "value": 0
          },
          {
            "number": 100,
            "ticks": 0,
            "time": 0,
            "value": 0
          },
          {
            "number": 100,
            "ticks": 0,
            "time": 0,
            "value": 0
          },
          {
            "number": 100,
            "ticks": 46084,
            "time": 155.6890335,
            "value": 0
          },
          {
            "number": 100,
            "ticks": 46086,
            "time": 155.69579025,
            "value": 0
          }
        ],
        "101": [
          {
            "number": 101,
            "ticks": 0,
            "time": 0,
            "value": 0
          },
          {
            "number": 101,
            "ticks": 0,
            "time": 0,
            "value": 0
          },
          {
            "number": 101,
            "ticks": 0,
            "time": 0,
            "value": 0
          },
          {
            "number": 101,
            "ticks": 46084,
            "time": 155.6890335,
            "value": 0
          },
          {
            "number": 101,
            "ticks": 46086,
            "time": 155.69579025,
            "value": 0
          }
        ]
      },
      "pitchBends": [
        {
          "ticks": 0,
          "time": 0,
          "value": 0
        },
        {
          "ticks": 0,
          "time": 0,
          "value": 0
        },
        {
          "ticks": 0,
          "time": 0,
          "value": 0
        },
        {
          "ticks": 0,
          "time": 0,
          "value": 0
        },
        {
          "ticks": 46084,
          "time": 155.6890335,
          "value": 0
        },
        {
          "ticks": 46086,
          "time": 155.69579025,
          "value": 0
        }
      ],
      "instrument": {
        "family": "piano",
        "number": 0,
        "name": "acoustic grand piano"
      },
      "name": "Pad",
      "notes": [
        {
          "duration": 1.2972959999999998,
          "durationTicks": 384,
          "midi": 65,
          "name": "F4",
          "ticks": 768,
          "time": 2.594592,
          "velocity": 0.7322834645669292
        },
        {
          "duration": 1.2972959999999998,
          "durationTicks": 384,
          "midi": 61,
          "name": "C#4",
          "ticks": 768,
          "time": 2.594592,
          "velocity": 0.7322834645669292
        },
        {
          "duration": 1.2972959999999998,
          "durationTicks": 384,
          "midi": 58,
          "name": "A#3",
          "ticks": 768,
          "time": 2.594592,
          "velocity": 0.7322834645669292
        },
        {
          "duration": 1.2972959999999998,
          "durationTicks": 384,
          "midi": 54,
          "name": "F#3",
          "ticks": 768,
          "time": 2.594592,
          "velocity": 0.7322834645669292
        },
        {
          "duration": 1.2972960000000002,
          "durationTicks": 384,
          "midi": 53,
          "name": "F3",
          "ticks": 1152,
          "time": 3.891888,
          "velocity": 0.7322834645669292
        },
        {
          "duration": 1.2972960000000002,
          "durationTicks": 384,
          "midi": 57,
          "name": "A3",
          "ticks": 1152,
          "time": 3.891888,
          "velocity": 0.7322834645669292
        },
        {
          "duration": 1.2972960000000002,
          "durationTicks": 384,
          "midi": 60,
          "name": "C4",
          "ticks": 1152,
          "time": 3.891888,
          "velocity": 0.7322834645669292
        },
        {
          "duration": 1.2972960000000002,
          "durationTicks": 384,
          "midi": 63,
          "name": "D#4",
          "ticks": 1152,
          "time": 3.891888,
          "velocity": 0.7322834645669292
        },
        {
          "duration": 1.2972960000000002,
          "durationTicks": 384,
          "midi": 56,
          "name": "G#3",
          "ticks": 1536,
          "time": 5.189184,
          "velocity": 0.7322834645669292
        },
        {
          "duration": 1.2972960000000002,
          "durationTicks": 384,
          "midi": 65,
          "name": "F4",
          "ticks": 1536,
          "time": 5.189184,
          "velocity": 0.7322834645669292
        },
        {
          "duration": 1.2972960000000002,
          "durationTicks": 384,
          "midi": 61,
          "name": "C#4",
          "ticks": 1536,
          "time": 5.189184,
          "velocity": 0.7322834645669292
        },
        {
          "duration": 1.2972960000000002,
          "durationTicks": 384,
          "midi": 58,
          "name": "A#3",
          "ticks": 1536,
          "time": 5.189184,
          "velocity": 0.7322834645669292
        },
        {
          "duration": 0.6486479999999997,
          "durationTicks": 192,
          "midi": 56,
          "name": "G#3",
          "ticks": 1920,
          "time": 6.48648,
          "velocity": 0.7322834645669292
        },
        {
          "duration": 0.6486479999999997,
          "durationTicks": 192,
          "midi": 60,
          "name": "C4",
          "ticks": 1920,
          "time": 6.48648,
          "velocity": 0.7322834645669292
        },
        {
          "duration": 0.6486479999999997,
          "durationTicks": 192,
          "midi": 63,
          "name": "D#4",
          "ticks": 1920,
          "time": 6.48648,
          "velocity": 0.7322834645669292
        },
        {
          "duration": 0.6486479999999997,
          "durationTicks": 192,
          "midi": 66,
          "name": "F#4",
          "ticks": 1920,
          "time": 6.48648,
          "velocity": 0.7322834645669292
        },
        {
          "duration": 0.6486479999999997,
          "durationTicks": 192,
          "midi": 56,
          "name": "G#3",
          "ticks": 2112,
          "time": 7.135128,
          "velocity": 0.7322834645669292
        },
        {
          "duration": 0.6486479999999997,
          "durationTicks": 192,
          "midi": 65,
          "name": "F4",
          "ticks": 2112,
          "time": 7.135128,
          "velocity": 0.7322834645669292
        },
        {
          "duration": 0.6486479999999997,
          "durationTicks": 192,
          "midi": 61,
          "name": "C#4",
          "ticks": 2112,
          "time": 7.135128,
          "velocity": 0.7322834645669292
        },
        {
          "duration": 1.2972960000000011,
          "durationTicks": 384,
          "midi": 54,
          "name": "F#3",
          "ticks": 2304,
          "time": 7.783776,
          "velocity": 0.7322834645669292
        },
        {
          "duration": 1.2972960000000011,
          "durationTicks": 384,
          "midi": 58,
          "name": "A#3",
          "ticks": 2304,
          "time": 7.783776,
          "velocity": 0.7322834645669292
        },
        {
          "duration": 1.2972960000000011,
          "durationTicks": 384,
          "midi": 61,
          "name": "C#4",
          "ticks": 2304,
          "time": 7.783776,
          "velocity": 0.7322834645669292
        },
        {
          "duration": 1.2972960000000011,
          "durationTicks": 384,
          "midi": 65,
          "name": "F4",
          "ticks": 2304,
          "time": 7.783776,
          "velocity": 0.7322834645669292
        },
        {
          "duration": 1.2972959999999993,
          "durationTicks": 384,
          "midi": 53,
          "name": "F3",
          "ticks": 2688,
          "time": 9.081072,
          "velocity": 0.7322834645669292
        },
        {
          "duration": 1.2972959999999993,
          "durationTicks": 384,
          "midi": 57,
          "name": "A3",
          "ticks": 2688,
          "time": 9.081072,
          "velocity": 0.7322834645669292
        },
        {
          "duration": 1.2972959999999993,
          "durationTicks": 384,
          "midi": 60,
          "name": "C4",
          "ticks": 2688,
          "time": 9.081072,
          "velocity": 0.7322834645669292
        },
        {
          "duration": 1.2972959999999993,
          "durationTicks": 384,
          "midi": 63,
          "name": "D#4",
          "ticks": 2688,
          "time": 9.081072,
          "velocity": 0.7322834645669292
        },
        {
          "duration": 1.2972959999999993,
          "durationTicks": 384,
          "midi": 56,
          "name": "G#3",
          "ticks": 3072,
          "time": 10.378368,
          "velocity": 0.7322834645669292
        },
        {
          "duration": 1.2972959999999993,
          "durationTicks": 384,
          "midi": 65,
          "name": "F4",
          "ticks": 3072,
          "time": 10.378368,
          "velocity": 0.7322834645669292
        },
        {
          "duration": 1.2972959999999993,
          "durationTicks": 384,
          "midi": 61,
          "name": "C#4",
          "ticks": 3072,
          "time": 10.378368,
          "velocity": 0.7322834645669292
        },
        {
          "duration": 1.2972959999999993,
          "durationTicks": 384,
          "midi": 58,
          "name": "A#3",
          "ticks": 3072,
          "time": 10.378368,
          "velocity": 0.7322834645669292
        },
        {
          "duration": 0.6486480000000014,
          "durationTicks": 192,
          "midi": 56,
          "name": "G#3",
          "ticks": 3456,
          "time": 11.675664,
          "velocity": 0.7322834645669292
        },
        {
          "duration": 0.6486480000000014,
          "durationTicks": 192,
          "midi": 60,
          "name": "C4",
          "ticks": 3456,
          "time": 11.675664,
          "velocity": 0.7322834645669292
        },
        {
          "duration": 0.6486480000000014,
          "durationTicks": 192,
          "midi": 63,
          "name": "D#4",
          "ticks": 3456,
          "time": 11.675664,
          "velocity": 0.7322834645669292
        },
        {
          "duration": 0.6486480000000014,
          "durationTicks": 192,
          "midi": 66,
          "name": "F#4",
          "ticks": 3456,
          "time": 11.675664,
          "velocity": 0.7322834645669292
        },
        {
          "duration": 0.6486479999999997,
          "durationTicks": 192,
          "midi": 61,
          "name": "C#4",
          "ticks": 3648,
          "time": 12.324312,
          "velocity": 0.7322834645669292
        },
        {
          "duration": 0.6486479999999997,
          "durationTicks": 192,
          "midi": 65,
          "name": "F4",
          "ticks": 3648,
          "time": 12.324312,
          "velocity": 0.7322834645669292
        },
        {
          "duration": 0.6486479999999997,
          "durationTicks": 192,
          "midi": 56,
          "name": "G#3",
          "ticks": 3648,
          "time": 12.324312,
          "velocity": 0.7322834645669292
        },
        {
          "duration": 1.2972959999999993,
          "durationTicks": 384,
          "midi": 65,
          "name": "F4",
          "ticks": 3840,
          "time": 12.97296,
          "velocity": 0.6062992125984252
        },
        {
          "duration": 1.2972959999999993,
          "durationTicks": 384,
          "midi": 61,
          "name": "C#4",
          "ticks": 3840,
          "time": 12.97296,
          "velocity": 0.6062992125984252
        },
        {
          "duration": 1.2972959999999993,
          "durationTicks": 384,
          "midi": 58,
          "name": "A#3",
          "ticks": 3840,
          "time": 12.97296,
          "velocity": 0.6062992125984252
        },
        {
          "duration": 1.2972959999999993,
          "durationTicks": 384,
          "midi": 54,
          "name": "F#3",
          "ticks": 3840,
          "time": 12.97296,
          "velocity": 0.6062992125984252
        },
        {
          "duration": 1.2972959999999993,
          "durationTicks": 384,
          "midi": 56,
          "name": "G#3",
          "ticks": 4224,
          "time": 14.270256,
          "velocity": 0.6062992125984252
        },
        {
          "duration": 1.2972959999999993,
          "durationTicks": 384,
          "midi": 60,
          "name": "C4",
          "ticks": 4224,
          "time": 14.270256,
          "velocity": 0.6062992125984252
        },
        {
          "duration": 1.2972959999999993,
          "durationTicks": 384,
          "midi": 63,
          "name": "D#4",
          "ticks": 4224,
          "time": 14.270256,
          "velocity": 0.6062992125984252
        },
        {
          "duration": 1.2972959999999993,
          "durationTicks": 384,
          "midi": 57,
          "name": "A3",
          "ticks": 4608,
          "time": 15.567552,
          "velocity": 0.6062992125984252
        },
        {
          "duration": 1.2972959999999993,
          "durationTicks": 384,
          "midi": 60,
          "name": "C4",
          "ticks": 4608,
          "time": 15.567552,
          "velocity": 0.6062992125984252
        },
        {
          "duration": 1.2972959999999993,
          "durationTicks": 384,
          "midi": 63,
          "name": "D#4",
          "ticks": 4608,
          "time": 15.567552,
          "velocity": 0.6062992125984252
        },
        {
          "duration": 1.297296000000003,
          "durationTicks": 384,
          "midi": 65,
          "name": "F4",
          "ticks": 4992,
          "time": 16.864848,
          "velocity": 0.6062992125984252
        },
        {
          "duration": 1.297296000000003,
          "durationTicks": 384,
          "midi": 61,
          "name": "C#4",
          "ticks": 4992,
          "time": 16.864848,
          "velocity": 0.6062992125984252
        },
        {
          "duration": 1.297296000000003,
          "durationTicks": 384,
          "midi": 58,
          "name": "A#3",
          "ticks": 4992,
          "time": 16.864848,
          "velocity": 0.6062992125984252
        },
        {
          "duration": 1.2972959999999993,
          "durationTicks": 384,
          "midi": 65,
          "name": "F4",
          "ticks": 5376,
          "time": 18.162144,
          "velocity": 0.6062992125984252
        },
        {
          "duration": 1.2972959999999993,
          "durationTicks": 384,
          "midi": 61,
          "name": "C#4",
          "ticks": 5376,
          "time": 18.162144,
          "velocity": 0.6062992125984252
        },
        {
          "duration": 1.2972959999999993,
          "durationTicks": 384,
          "midi": 58,
          "name": "A#3",
          "ticks": 5376,
          "time": 18.162144,
          "velocity": 0.6062992125984252
        },
        {
          "duration": 1.2972959999999993,
          "durationTicks": 384,
          "midi": 54,
          "name": "F#3",
          "ticks": 5376,
          "time": 18.162144,
          "velocity": 0.6062992125984252
        },
        {
          "duration": 1.2972959999999993,
          "durationTicks": 384,
          "midi": 56,
          "name": "G#3",
          "ticks": 5760,
          "time": 19.45944,
          "velocity": 0.6062992125984252
        },
        {
          "duration": 1.2972959999999993,
          "durationTicks": 384,
          "midi": 60,
          "name": "C4",
          "ticks": 5760,
          "time": 19.45944,
          "velocity": 0.6062992125984252
        },
        {
          "duration": 1.2972959999999993,
          "durationTicks": 384,
          "midi": 63,
          "name": "D#4",
          "ticks": 5760,
          "time": 19.45944,
          "velocity": 0.6062992125984252
        },
        {
          "duration": 1.1351340000000008,
          "durationTicks": 336,
          "midi": 63,
          "name": "D#4",
          "ticks": 6144,
          "time": 20.756736,
          "velocity": 0.6062992125984252
        },
        {
          "duration": 1.1351340000000008,
          "durationTicks": 336,
          "midi": 60,
          "name": "C4",
          "ticks": 6144,
          "time": 20.756736,
          "velocity": 0.6062992125984252
        },
        {
          "duration": 1.1351340000000008,
          "durationTicks": 336,
          "midi": 57,
          "name": "A3",
          "ticks": 6144,
          "time": 20.756736,
          "velocity": 0.6062992125984252
        },
        {
          "duration": 0.16216199999999859,
          "durationTicks": 48,
          "midi": 65,
          "name": "F4",
          "ticks": 6480,
          "time": 21.89187,
          "velocity": 0.6062992125984252
        },
        {
          "duration": 0.16216199999999859,
          "durationTicks": 48,
          "midi": 61,
          "name": "C#4",
          "ticks": 6480,
          "time": 21.89187,
          "velocity": 0.6062992125984252
        },
        {
          "duration": 0.16216199999999859,
          "durationTicks": 48,
          "midi": 58,
          "name": "A#3",
          "ticks": 6480,
          "time": 21.89187,
          "velocity": 0.6062992125984252
        },
        {
          "duration": 0.16216200000000214,
          "durationTicks": 48,
          "midi": 58,
          "name": "A#3",
          "ticks": 6672,
          "time": 22.540518,
          "velocity": 0.6062992125984252
        },
        {
          "duration": 0.16216200000000214,
          "durationTicks": 48,
          "midi": 61,
          "name": "C#4",
          "ticks": 6672,
          "time": 22.540518,
          "velocity": 0.6062992125984252
        },
        {
          "duration": 0.16216200000000214,
          "durationTicks": 48,
          "midi": 65,
          "name": "F4",
          "ticks": 6672,
          "time": 22.540518,
          "velocity": 0.6062992125984252
        },
        {
          "duration": 0.02027024999999938,
          "durationTicks": 6,
          "midi": 46,
          "name": "A#2",
          "ticks": 6768,
          "time": 22.864842,
          "velocity": 0.2047244094488189
        },
        {
          "duration": 0.02027024999999938,
          "durationTicks": 6,
          "midi": 58,
          "name": "A#3",
          "ticks": 6768,
          "time": 22.864842,
          "velocity": 0.2047244094488189
        },
        {
          "duration": 0.02027024999999938,
          "durationTicks": 6,
          "midi": 65,
          "name": "F4",
          "ticks": 6768,
          "time": 22.864842,
          "velocity": 0.2047244094488189
        },
        {
          "duration": 0.02027024999999938,
          "durationTicks": 6,
          "midi": 34,
          "name": "A#1",
          "ticks": 6768,
          "time": 22.864842,
          "velocity": 0.2047244094488189
        },
        {
          "duration": 0.02027024999999938,
          "durationTicks": 6,
          "midi": 61,
          "name": "C#4",
          "ticks": 6768,
          "time": 22.864842,
          "velocity": 0.2047244094488189
        },
        {
          "duration": 0.02027024999999938,
          "durationTicks": 6,
          "midi": 53,
          "name": "F3",
          "ticks": 6768,
          "time": 22.864842,
          "velocity": 0.2047244094488189
        },
        {
          "duration": 0.02027024999999938,
          "durationTicks": 6,
          "midi": 46,
          "name": "A#2",
          "ticks": 6780,
          "time": 22.9053825,
          "velocity": 0.2440944881889764
        },
        {
          "duration": 0.02027024999999938,
          "durationTicks": 6,
          "midi": 58,
          "name": "A#3",
          "ticks": 6780,
          "time": 22.9053825,
          "velocity": 0.2440944881889764
        },
        {
          "duration": 0.02027024999999938,
          "durationTicks": 6,
          "midi": 65,
          "name": "F4",
          "ticks": 6780,
          "time": 22.9053825,
          "velocity": 0.2440944881889764
        },
        {
          "duration": 0.02027024999999938,
          "durationTicks": 6,
          "midi": 34,
          "name": "A#1",
          "ticks": 6780,
          "time": 22.9053825,
          "velocity": 0.2440944881889764
        },
        {
          "duration": 0.02027024999999938,
          "durationTicks": 6,
          "midi": 61,
          "name": "C#4",
          "ticks": 6780,
          "time": 22.9053825,
          "velocity": 0.2440944881889764
        },
        {
          "duration": 0.02027024999999938,
          "durationTicks": 6,
          "midi": 53,
          "name": "F3",
          "ticks": 6780,
          "time": 22.9053825,
          "velocity": 0.2440944881889764
        },
        {
          "duration": 0.02027024999999938,
          "durationTicks": 6,
          "midi": 46,
          "name": "A#2",
          "ticks": 6792,
          "time": 22.945923,
          "velocity": 0.28346456692913385
        },
        {
          "duration": 0.02027024999999938,
          "durationTicks": 6,
          "midi": 58,
          "name": "A#3",
          "ticks": 6792,
          "time": 22.945923,
          "velocity": 0.28346456692913385
        },
        {
          "duration": 0.02027024999999938,
          "durationTicks": 6,
          "midi": 65,
          "name": "F4",
          "ticks": 6792,
          "time": 22.945923,
          "velocity": 0.28346456692913385
        },
        {
          "duration": 0.02027024999999938,
          "durationTicks": 6,
          "midi": 34,
          "name": "A#1",
          "ticks": 6792,
          "time": 22.945923,
          "velocity": 0.28346456692913385
        },
        {
          "duration": 0.02027024999999938,
          "durationTicks": 6,
          "midi": 61,
          "name": "C#4",
          "ticks": 6792,
          "time": 22.945923,
          "velocity": 0.28346456692913385
        },
        {
          "duration": 0.02027024999999938,
          "durationTicks": 6,
          "midi": 53,
          "name": "F3",
          "ticks": 6792,
          "time": 22.945923,
          "velocity": 0.28346456692913385
        },
        {
          "duration": 0.02027024999999938,
          "durationTicks": 6,
          "midi": 46,
          "name": "A#2",
          "ticks": 6804,
          "time": 22.9864635,
          "velocity": 0.3228346456692913
        },
        {
          "duration": 0.02027024999999938,
          "durationTicks": 6,
          "midi": 58,
          "name": "A#3",
          "ticks": 6804,
          "time": 22.9864635,
          "velocity": 0.3228346456692913
        },
        {
          "duration": 0.02027024999999938,
          "durationTicks": 6,
          "midi": 65,
          "name": "F4",
          "ticks": 6804,
          "time": 22.9864635,
          "velocity": 0.3228346456692913
        },
        {
          "duration": 0.02027024999999938,
          "durationTicks": 6,
          "midi": 34,
          "name": "A#1",
          "ticks": 6804,
          "time": 22.9864635,
          "velocity": 0.3228346456692913
        },
        {
          "duration": 0.02027024999999938,
          "durationTicks": 6,
          "midi": 61,
          "name": "C#4",
          "ticks": 6804,
          "time": 22.9864635,
          "velocity": 0.3228346456692913
        },
        {
          "duration": 0.02027024999999938,
          "durationTicks": 6,
          "midi": 53,
          "name": "F3",
          "ticks": 6804,
          "time": 22.9864635,
          "velocity": 0.3228346456692913
        },
        {
          "duration": 0.02027024999999938,
          "durationTicks": 6,
          "midi": 46,
          "name": "A#2",
          "ticks": 6816,
          "time": 23.027004,
          "velocity": 0.36220472440944884
        },
        {
          "duration": 0.02027024999999938,
          "durationTicks": 6,
          "midi": 58,
          "name": "A#3",
          "ticks": 6816,
          "time": 23.027004,
          "velocity": 0.36220472440944884
        },
        {
          "duration": 0.02027024999999938,
          "durationTicks": 6,
          "midi": 65,
          "name": "F4",
          "ticks": 6816,
          "time": 23.027004,
          "velocity": 0.36220472440944884
        },
        {
          "duration": 0.02027024999999938,
          "durationTicks": 6,
          "midi": 34,
          "name": "A#1",
          "ticks": 6816,
          "time": 23.027004,
          "velocity": 0.36220472440944884
        },
        {
          "duration": 0.02027024999999938,
          "durationTicks": 6,
          "midi": 61,
          "name": "C#4",
          "ticks": 6816,
          "time": 23.027004,
          "velocity": 0.36220472440944884
        },
        {
          "duration": 0.02027024999999938,
          "durationTicks": 6,
          "midi": 53,
          "name": "F3",
          "ticks": 6816,
          "time": 23.027004,
          "velocity": 0.36220472440944884
        },
        {
          "duration": 0.02027024999999938,
          "durationTicks": 6,
          "midi": 46,
          "name": "A#2",
          "ticks": 6828,
          "time": 23.0675445,
          "velocity": 0.3937007874015748
        },
        {
          "duration": 0.02027024999999938,
          "durationTicks": 6,
          "midi": 58,
          "name": "A#3",
          "ticks": 6828,
          "time": 23.0675445,
          "velocity": 0.3937007874015748
        },
        {
          "duration": 0.02027024999999938,
          "durationTicks": 6,
          "midi": 65,
          "name": "F4",
          "ticks": 6828,
          "time": 23.0675445,
          "velocity": 0.3937007874015748
        },
        {
          "duration": 0.02027024999999938,
          "durationTicks": 6,
          "midi": 34,
          "name": "A#1",
          "ticks": 6828,
          "time": 23.0675445,
          "velocity": 0.3937007874015748
        },
        {
          "duration": 0.02027024999999938,
          "durationTicks": 6,
          "midi": 61,
          "name": "C#4",
          "ticks": 6828,
          "time": 23.0675445,
          "velocity": 0.3937007874015748
        },
        {
          "duration": 0.02027024999999938,
          "durationTicks": 6,
          "midi": 53,
          "name": "F3",
          "ticks": 6828,
          "time": 23.0675445,
          "velocity": 0.3937007874015748
        },
        {
          "duration": 0.02027024999999938,
          "durationTicks": 6,
          "midi": 46,
          "name": "A#2",
          "ticks": 6840,
          "time": 23.108085,
          "velocity": 0.4330708661417323
        },
        {
          "duration": 0.02027024999999938,
          "durationTicks": 6,
          "midi": 58,
          "name": "A#3",
          "ticks": 6840,
          "time": 23.108085,
          "velocity": 0.4330708661417323
        },
        {
          "duration": 0.02027024999999938,
          "durationTicks": 6,
          "midi": 65,
          "name": "F4",
          "ticks": 6840,
          "time": 23.108085,
          "velocity": 0.4330708661417323
        },
        {
          "duration": 0.02027024999999938,
          "durationTicks": 6,
          "midi": 34,
          "name": "A#1",
          "ticks": 6840,
          "time": 23.108085,
          "velocity": 0.4330708661417323
        },
        {
          "duration": 0.02027024999999938,
          "durationTicks": 6,
          "midi": 61,
          "name": "C#4",
          "ticks": 6840,
          "time": 23.108085,
          "velocity": 0.4330708661417323
        },
        {
          "duration": 0.02027024999999938,
          "durationTicks": 6,
          "midi": 53,
          "name": "F3",
          "ticks": 6840,
          "time": 23.108085,
          "velocity": 0.4330708661417323
        },
        {
          "duration": 0.02027024999999938,
          "durationTicks": 6,
          "midi": 46,
          "name": "A#2",
          "ticks": 6852,
          "time": 23.1486255,
          "velocity": 0.47244094488188976
        },
        {
          "duration": 0.02027024999999938,
          "durationTicks": 6,
          "midi": 58,
          "name": "A#3",
          "ticks": 6852,
          "time": 23.1486255,
          "velocity": 0.47244094488188976
        },
        {
          "duration": 0.02027024999999938,
          "durationTicks": 6,
          "midi": 65,
          "name": "F4",
          "ticks": 6852,
          "time": 23.1486255,
          "velocity": 0.47244094488188976
        },
        {
          "duration": 0.02027024999999938,
          "durationTicks": 6,
          "midi": 34,
          "name": "A#1",
          "ticks": 6852,
          "time": 23.1486255,
          "velocity": 0.47244094488188976
        },
        {
          "duration": 0.02027024999999938,
          "durationTicks": 6,
          "midi": 61,
          "name": "C#4",
          "ticks": 6852,
          "time": 23.1486255,
          "velocity": 0.47244094488188976
        },
        {
          "duration": 0.02027024999999938,
          "durationTicks": 6,
          "midi": 53,
          "name": "F3",
          "ticks": 6852,
          "time": 23.1486255,
          "velocity": 0.47244094488188976
        },
        {
          "duration": 0.02027024999999938,
          "durationTicks": 6,
          "midi": 46,
          "name": "A#2",
          "ticks": 6864,
          "time": 23.189166,
          "velocity": 0.5118110236220472
        },
        {
          "duration": 0.02027024999999938,
          "durationTicks": 6,
          "midi": 58,
          "name": "A#3",
          "ticks": 6864,
          "time": 23.189166,
          "velocity": 0.5118110236220472
        },
        {
          "duration": 0.02027024999999938,
          "durationTicks": 6,
          "midi": 65,
          "name": "F4",
          "ticks": 6864,
          "time": 23.189166,
          "velocity": 0.5118110236220472
        },
        {
          "duration": 0.02027024999999938,
          "durationTicks": 6,
          "midi": 34,
          "name": "A#1",
          "ticks": 6864,
          "time": 23.189166,
          "velocity": 0.5118110236220472
        },
        {
          "duration": 0.02027024999999938,
          "durationTicks": 6,
          "midi": 61,
          "name": "C#4",
          "ticks": 6864,
          "time": 23.189166,
          "velocity": 0.5118110236220472
        },
        {
          "duration": 0.02027024999999938,
          "durationTicks": 6,
          "midi": 53,
          "name": "F3",
          "ticks": 6864,
          "time": 23.189166,
          "velocity": 0.5118110236220472
        },
        {
          "duration": 0.020270250000002932,
          "durationTicks": 6,
          "midi": 46,
          "name": "A#2",
          "ticks": 6876,
          "time": 23.2297065,
          "velocity": 0.5433070866141733
        },
        {
          "duration": 0.020270250000002932,
          "durationTicks": 6,
          "midi": 58,
          "name": "A#3",
          "ticks": 6876,
          "time": 23.2297065,
          "velocity": 0.5433070866141733
        },
        {
          "duration": 0.020270250000002932,
          "durationTicks": 6,
          "midi": 65,
          "name": "F4",
          "ticks": 6876,
          "time": 23.2297065,
          "velocity": 0.5433070866141733
        },
        {
          "duration": 0.020270250000002932,
          "durationTicks": 6,
          "midi": 34,
          "name": "A#1",
          "ticks": 6876,
          "time": 23.2297065,
          "velocity": 0.5433070866141733
        },
        {
          "duration": 0.020270250000002932,
          "durationTicks": 6,
          "midi": 61,
          "name": "C#4",
          "ticks": 6876,
          "time": 23.2297065,
          "velocity": 0.5433070866141733
        },
        {
          "duration": 0.020270250000002932,
          "durationTicks": 6,
          "midi": 53,
          "name": "F3",
          "ticks": 6876,
          "time": 23.2297065,
          "velocity": 0.5433070866141733
        },
        {
          "duration": 0.02027024999999938,
          "durationTicks": 6,
          "midi": 46,
          "name": "A#2",
          "ticks": 6888,
          "time": 23.270247,
          "velocity": 0.5826771653543307
        },
        {
          "duration": 0.02027024999999938,
          "durationTicks": 6,
          "midi": 58,
          "name": "A#3",
          "ticks": 6888,
          "time": 23.270247,
          "velocity": 0.5826771653543307
        },
        {
          "duration": 0.02027024999999938,
          "durationTicks": 6,
          "midi": 65,
          "name": "F4",
          "ticks": 6888,
          "time": 23.270247,
          "velocity": 0.5826771653543307
        },
        {
          "duration": 0.02027024999999938,
          "durationTicks": 6,
          "midi": 34,
          "name": "A#1",
          "ticks": 6888,
          "time": 23.270247,
          "velocity": 0.5826771653543307
        },
        {
          "duration": 0.02027024999999938,
          "durationTicks": 6,
          "midi": 61,
          "name": "C#4",
          "ticks": 6888,
          "time": 23.270247,
          "velocity": 0.5826771653543307
        },
        {
          "duration": 0.02027024999999938,
          "durationTicks": 6,
          "midi": 53,
          "name": "F3",
          "ticks": 6888,
          "time": 23.270247,
          "velocity": 0.5826771653543307
        },
        {
          "duration": 0.02027024999999938,
          "durationTicks": 6,
          "midi": 46,
          "name": "A#2",
          "ticks": 6900,
          "time": 23.3107875,
          "velocity": 0.6220472440944882
        },
        {
          "duration": 0.02027024999999938,
          "durationTicks": 6,
          "midi": 58,
          "name": "A#3",
          "ticks": 6900,
          "time": 23.3107875,
          "velocity": 0.6220472440944882
        },
        {
          "duration": 0.02027024999999938,
          "durationTicks": 6,
          "midi": 65,
          "name": "F4",
          "ticks": 6900,
          "time": 23.3107875,
          "velocity": 0.6220472440944882
        },
        {
          "duration": 0.02027024999999938,
          "durationTicks": 6,
          "midi": 34,
          "name": "A#1",
          "ticks": 6900,
          "time": 23.3107875,
          "velocity": 0.6220472440944882
        },
        {
          "duration": 0.02027024999999938,
          "durationTicks": 6,
          "midi": 61,
          "name": "C#4",
          "ticks": 6900,
          "time": 23.3107875,
          "velocity": 0.6220472440944882
        },
        {
          "duration": 0.02027024999999938,
          "durationTicks": 6,
          "midi": 53,
          "name": "F3",
          "ticks": 6900,
          "time": 23.3107875,
          "velocity": 0.6220472440944882
        },
        {
          "duration": 1.297296000000003,
          "durationTicks": 384,
          "midi": 54,
          "name": "F#3",
          "ticks": 6912,
          "time": 23.351328,
          "velocity": 0.6062992125984252
        },
        {
          "duration": 1.297296000000003,
          "durationTicks": 384,
          "midi": 65,
          "name": "F4",
          "ticks": 6912,
          "time": 23.351328,
          "velocity": 0.6062992125984252
        },
        {
          "duration": 1.297296000000003,
          "durationTicks": 384,
          "midi": 61,
          "name": "C#4",
          "ticks": 6912,
          "time": 23.351328,
          "velocity": 0.6062992125984252
        },
        {
          "duration": 1.297296000000003,
          "durationTicks": 384,
          "midi": 58,
          "name": "A#3",
          "ticks": 6912,
          "time": 23.351328,
          "velocity": 0.6062992125984252
        },
        {
          "duration": 1.2972959999999993,
          "durationTicks": 384,
          "midi": 63,
          "name": "D#4",
          "ticks": 7296,
          "time": 24.648624,
          "velocity": 0.6062992125984252
        },
        {
          "duration": 1.2972959999999993,
          "durationTicks": 384,
          "midi": 60,
          "name": "C4",
          "ticks": 7296,
          "time": 24.648624,
          "velocity": 0.6062992125984252
        },
        {
          "duration": 1.2972959999999993,
          "durationTicks": 384,
          "midi": 56,
          "name": "G#3",
          "ticks": 7296,
          "time": 24.648624,
          "velocity": 0.6062992125984252
        },
        {
          "duration": 1.2972959999999993,
          "durationTicks": 384,
          "midi": 63,
          "name": "D#4",
          "ticks": 7680,
          "time": 25.94592,
          "velocity": 0.6062992125984252
        },
        {
          "duration": 1.2972959999999993,
          "durationTicks": 384,
          "midi": 60,
          "name": "C4",
          "ticks": 7680,
          "time": 25.94592,
          "velocity": 0.6062992125984252
        },
        {
          "duration": 1.2972959999999993,
          "durationTicks": 384,
          "midi": 57,
          "name": "A3",
          "ticks": 7680,
          "time": 25.94592,
          "velocity": 0.6062992125984252
        },
        {
          "duration": 1.2972959999999993,
          "durationTicks": 384,
          "midi": 65,
          "name": "F4",
          "ticks": 8064,
          "time": 27.243216,
          "velocity": 0.6062992125984252
        },
        {
          "duration": 1.2972959999999993,
          "durationTicks": 384,
          "midi": 61,
          "name": "C#4",
          "ticks": 8064,
          "time": 27.243216,
          "velocity": 0.6062992125984252
        },
        {
          "duration": 1.2972959999999993,
          "durationTicks": 384,
          "midi": 58,
          "name": "A#3",
          "ticks": 8064,
          "time": 27.243216,
          "velocity": 0.6062992125984252
        },
        {
          "duration": 1.2972959999999993,
          "durationTicks": 384,
          "midi": 65,
          "name": "F4",
          "ticks": 8448,
          "time": 28.540512,
          "velocity": 0.6062992125984252
        },
        {
          "duration": 1.2972959999999993,
          "durationTicks": 384,
          "midi": 61,
          "name": "C#4",
          "ticks": 8448,
          "time": 28.540512,
          "velocity": 0.6062992125984252
        },
        {
          "duration": 1.2972959999999993,
          "durationTicks": 384,
          "midi": 58,
          "name": "A#3",
          "ticks": 8448,
          "time": 28.540512,
          "velocity": 0.6062992125984252
        },
        {
          "duration": 1.2972959999999993,
          "durationTicks": 384,
          "midi": 54,
          "name": "F#3",
          "ticks": 8448,
          "time": 28.540512,
          "velocity": 0.6062992125984252
        },
        {
          "duration": 1.2972959999999993,
          "durationTicks": 384,
          "midi": 56,
          "name": "G#3",
          "ticks": 8832,
          "time": 29.837808,
          "velocity": 0.6062992125984252
        },
        {
          "duration": 1.2972959999999993,
          "durationTicks": 384,
          "midi": 60,
          "name": "C4",
          "ticks": 8832,
          "time": 29.837808,
          "velocity": 0.6062992125984252
        },
        {
          "duration": 1.2972959999999993,
          "durationTicks": 384,
          "midi": 63,
          "name": "D#4",
          "ticks": 8832,
          "time": 29.837808,
          "velocity": 0.6062992125984252
        },
        {
          "duration": 1.297296000000003,
          "durationTicks": 384,
          "midi": 57,
          "name": "A3",
          "ticks": 9216,
          "time": 31.135104,
          "velocity": 0.6062992125984252
        },
        {
          "duration": 1.297296000000003,
          "durationTicks": 384,
          "midi": 60,
          "name": "C4",
          "ticks": 9216,
          "time": 31.135104,
          "velocity": 0.6062992125984252
        },
        {
          "duration": 1.297296000000003,
          "durationTicks": 384,
          "midi": 63,
          "name": "D#4",
          "ticks": 9216,
          "time": 31.135104,
          "velocity": 0.6062992125984252
        },
        {
          "duration": 1.2972959999999958,
          "durationTicks": 384,
          "midi": 65,
          "name": "F4",
          "ticks": 9600,
          "time": 32.4324,
          "velocity": 0.6062992125984252
        },
        {
          "duration": 1.2972959999999958,
          "durationTicks": 384,
          "midi": 61,
          "name": "C#4",
          "ticks": 9600,
          "time": 32.4324,
          "velocity": 0.6062992125984252
        },
        {
          "duration": 1.2972959999999958,
          "durationTicks": 384,
          "midi": 58,
          "name": "A#3",
          "ticks": 9600,
          "time": 32.4324,
          "velocity": 0.6062992125984252
        },
        {
          "duration": 1.297296000000003,
          "durationTicks": 384,
          "midi": 54,
          "name": "F#3",
          "ticks": 9984,
          "time": 33.729696,
          "velocity": 0.6062992125984252
        },
        {
          "duration": 1.297296000000003,
          "durationTicks": 384,
          "midi": 58,
          "name": "A#3",
          "ticks": 9984,
          "time": 33.729696,
          "velocity": 0.6062992125984252
        },
        {
          "duration": 1.297296000000003,
          "durationTicks": 384,
          "midi": 61,
          "name": "C#4",
          "ticks": 9984,
          "time": 33.729696,
          "velocity": 0.6062992125984252
        },
        {
          "duration": 1.297296000000003,
          "durationTicks": 384,
          "midi": 65,
          "name": "F4",
          "ticks": 9984,
          "time": 33.729696,
          "velocity": 0.6062992125984252
        },
        {
          "duration": 1.297296000000003,
          "durationTicks": 384,
          "midi": 56,
          "name": "G#3",
          "ticks": 10368,
          "time": 35.026992,
          "velocity": 0.6062992125984252
        },
        {
          "duration": 1.297296000000003,
          "durationTicks": 384,
          "midi": 60,
          "name": "C4",
          "ticks": 10368,
          "time": 35.026992,
          "velocity": 0.6062992125984252
        },
        {
          "duration": 1.297296000000003,
          "durationTicks": 384,
          "midi": 63,
          "name": "D#4",
          "ticks": 10368,
          "time": 35.026992,
          "velocity": 0.6062992125984252
        },
        {
          "duration": 1.297296000000003,
          "durationTicks": 384,
          "midi": 53,
          "name": "F3",
          "ticks": 10368,
          "time": 35.026992,
          "velocity": 0.6062992125984252
        },
        {
          "duration": 1.2972959999999958,
          "durationTicks": 384,
          "midi": 51,
          "name": "D#3",
          "ticks": 10752,
          "time": 36.324288,
          "velocity": 0.6062992125984252
        },
        {
          "duration": 1.2972959999999958,
          "durationTicks": 384,
          "midi": 61,
          "name": "C#4",
          "ticks": 10752,
          "time": 36.324288,
          "velocity": 0.6062992125984252
        },
        {
          "duration": 1.2972959999999958,
          "durationTicks": 384,
          "midi": 54,
          "name": "F#3",
          "ticks": 10752,
          "time": 36.324288,
          "velocity": 0.6062992125984252
        },
        {
          "duration": 1.2972959999999958,
          "durationTicks": 384,
          "midi": 58,
          "name": "A#3",
          "ticks": 10752,
          "time": 36.324288,
          "velocity": 0.6062992125984252
        },
        {
          "duration": 1.297296000000003,
          "durationTicks": 384,
          "midi": 53,
          "name": "F3",
          "ticks": 11136,
          "time": 37.621584,
          "velocity": 0.6062992125984252
        },
        {
          "duration": 1.297296000000003,
          "durationTicks": 384,
          "midi": 56,
          "name": "G#3",
          "ticks": 11136,
          "time": 37.621584,
          "velocity": 0.6062992125984252
        },
        {
          "duration": 1.297296000000003,
          "durationTicks": 384,
          "midi": 60,
          "name": "C4",
          "ticks": 11136,
          "time": 37.621584,
          "velocity": 0.6062992125984252
        },
        {
          "duration": 1.2972959999999958,
          "durationTicks": 384,
          "midi": 65,
          "name": "F4",
          "ticks": 11520,
          "time": 38.91888,
          "velocity": 0.6062992125984252
        },
        {
          "duration": 1.2972959999999958,
          "durationTicks": 384,
          "midi": 61,
          "name": "C#4",
          "ticks": 11520,
          "time": 38.91888,
          "velocity": 0.6062992125984252
        },
        {
          "duration": 1.2972959999999958,
          "durationTicks": 384,
          "midi": 58,
          "name": "A#3",
          "ticks": 11520,
          "time": 38.91888,
          "velocity": 0.6062992125984252
        },
        {
          "duration": 1.2972959999999958,
          "durationTicks": 384,
          "midi": 54,
          "name": "F#3",
          "ticks": 11520,
          "time": 38.91888,
          "velocity": 0.6062992125984252
        },
        {
          "duration": 1.297296000000003,
          "durationTicks": 384,
          "midi": 56,
          "name": "G#3",
          "ticks": 11904,
          "time": 40.216176,
          "velocity": 0.6062992125984252
        },
        {
          "duration": 1.297296000000003,
          "durationTicks": 384,
          "midi": 60,
          "name": "C4",
          "ticks": 11904,
          "time": 40.216176,
          "velocity": 0.6062992125984252
        },
        {
          "duration": 1.297296000000003,
          "durationTicks": 384,
          "midi": 63,
          "name": "D#4",
          "ticks": 11904,
          "time": 40.216176,
          "velocity": 0.6062992125984252
        },
        {
          "duration": 1.297296000000003,
          "durationTicks": 384,
          "midi": 53,
          "name": "F3",
          "ticks": 11904,
          "time": 40.216176,
          "velocity": 0.6062992125984252
        },
        {
          "duration": 1.297296000000003,
          "durationTicks": 384,
          "midi": 58,
          "name": "A#3",
          "ticks": 12288,
          "time": 41.513472,
          "velocity": 0.6062992125984252
        },
        {
          "duration": 1.297296000000003,
          "durationTicks": 384,
          "midi": 60,
          "name": "C4",
          "ticks": 12288,
          "time": 41.513472,
          "velocity": 0.6062992125984252
        },
        {
          "duration": 1.297296000000003,
          "durationTicks": 384,
          "midi": 51,
          "name": "D#3",
          "ticks": 12288,
          "time": 41.513472,
          "velocity": 0.6062992125984252
        },
        {
          "duration": 1.297296000000003,
          "durationTicks": 384,
          "midi": 56,
          "name": "G#3",
          "ticks": 12288,
          "time": 41.513472,
          "velocity": 0.6062992125984252
        },
        {
          "duration": 1.297296000000003,
          "durationTicks": 384,
          "midi": 65,
          "name": "F4",
          "ticks": 13056,
          "time": 44.108064,
          "velocity": 0.6062992125984252
        },
        {
          "duration": 1.297296000000003,
          "durationTicks": 384,
          "midi": 61,
          "name": "C#4",
          "ticks": 13056,
          "time": 44.108064,
          "velocity": 0.6062992125984252
        },
        {
          "duration": 1.297296000000003,
          "durationTicks": 384,
          "midi": 58,
          "name": "A#3",
          "ticks": 13056,
          "time": 44.108064,
          "velocity": 0.6062992125984252
        },
        {
          "duration": 1.297296000000003,
          "durationTicks": 384,
          "midi": 54,
          "name": "F#3",
          "ticks": 13056,
          "time": 44.108064,
          "velocity": 0.6062992125984252
        },
        {
          "duration": 1.2972959999999958,
          "durationTicks": 384,
          "midi": 57,
          "name": "A3",
          "ticks": 13440,
          "time": 45.40536,
          "velocity": 0.6062992125984252
        },
        {
          "duration": 1.2972959999999958,
          "durationTicks": 384,
          "midi": 63,
          "name": "D#4",
          "ticks": 13440,
          "time": 45.40536,
          "velocity": 0.6062992125984252
        },
        {
          "duration": 1.2972959999999958,
          "durationTicks": 384,
          "midi": 60,
          "name": "C4",
          "ticks": 13440,
          "time": 45.40536,
          "velocity": 0.6062992125984252
        },
        {
          "duration": 1.2972959999999958,
          "durationTicks": 384,
          "midi": 53,
          "name": "F3",
          "ticks": 13440,
          "time": 45.40536,
          "velocity": 0.6062992125984252
        },
        {
          "duration": 1.297296000000003,
          "durationTicks": 384,
          "midi": 58,
          "name": "A#3",
          "ticks": 13824,
          "time": 46.702656,
          "velocity": 0.6062992125984252
        },
        {
          "duration": 1.297296000000003,
          "durationTicks": 384,
          "midi": 61,
          "name": "C#4",
          "ticks": 13824,
          "time": 46.702656,
          "velocity": 0.6062992125984252
        },
        {
          "duration": 1.297296000000003,
          "durationTicks": 384,
          "midi": 65,
          "name": "F4",
          "ticks": 13824,
          "time": 46.702656,
          "velocity": 0.6062992125984252
        },
        {
          "duration": 1.297296000000003,
          "durationTicks": 384,
          "midi": 56,
          "name": "G#3",
          "ticks": 13824,
          "time": 46.702656,
          "velocity": 0.6062992125984252
        },
        {
          "duration": 0.6486480000000014,
          "durationTicks": 192,
          "midi": 66,
          "name": "F#4",
          "ticks": 14208,
          "time": 47.999952,
          "velocity": 0.6062992125984252
        },
        {
          "duration": 0.6486480000000014,
          "durationTicks": 192,
          "midi": 63,
          "name": "D#4",
          "ticks": 14208,
          "time": 47.999952,
          "velocity": 0.6062992125984252
        },
        {
          "duration": 0.6486480000000014,
          "durationTicks": 192,
          "midi": 60,
          "name": "C4",
          "ticks": 14208,
          "time": 47.999952,
          "velocity": 0.6062992125984252
        },
        {
          "duration": 0.6486480000000014,
          "durationTicks": 192,
          "midi": 56,
          "name": "G#3",
          "ticks": 14208,
          "time": 47.999952,
          "velocity": 0.6062992125984252
        },
        {
          "duration": 0.6486480000000014,
          "durationTicks": 192,
          "midi": 61,
          "name": "C#4",
          "ticks": 14400,
          "time": 48.6486,
          "velocity": 0.6062992125984252
        },
        {
          "duration": 0.6486480000000014,
          "durationTicks": 192,
          "midi": 65,
          "name": "F4",
          "ticks": 14400,
          "time": 48.6486,
          "velocity": 0.6062992125984252
        },
        {
          "duration": 0.6486480000000014,
          "durationTicks": 192,
          "midi": 56,
          "name": "G#3",
          "ticks": 14400,
          "time": 48.6486,
          "velocity": 0.6062992125984252
        },
        {
          "duration": 1.2972959999999958,
          "durationTicks": 384,
          "midi": 54,
          "name": "F#3",
          "ticks": 14592,
          "time": 49.297248,
          "velocity": 0.6062992125984252
        },
        {
          "duration": 1.2972959999999958,
          "durationTicks": 384,
          "midi": 58,
          "name": "A#3",
          "ticks": 14592,
          "time": 49.297248,
          "velocity": 0.6062992125984252
        },
        {
          "duration": 1.2972959999999958,
          "durationTicks": 384,
          "midi": 61,
          "name": "C#4",
          "ticks": 14592,
          "time": 49.297248,
          "velocity": 0.6062992125984252
        },
        {
          "duration": 1.2972959999999958,
          "durationTicks": 384,
          "midi": 65,
          "name": "F4",
          "ticks": 14592,
          "time": 49.297248,
          "velocity": 0.6062992125984252
        },
        {
          "duration": 1.297296000000003,
          "durationTicks": 384,
          "midi": 57,
          "name": "A3",
          "ticks": 14976,
          "time": 50.594544,
          "velocity": 0.6062992125984252
        },
        {
          "duration": 1.297296000000003,
          "durationTicks": 384,
          "midi": 53,
          "name": "F3",
          "ticks": 14976,
          "time": 50.594544,
          "velocity": 0.6062992125984252
        },
        {
          "duration": 1.297296000000003,
          "durationTicks": 384,
          "midi": 60,
          "name": "C4",
          "ticks": 14976,
          "time": 50.594544,
          "velocity": 0.6062992125984252
        },
        {
          "duration": 1.297296000000003,
          "durationTicks": 384,
          "midi": 63,
          "name": "D#4",
          "ticks": 14976,
          "time": 50.594544,
          "velocity": 0.6062992125984252
        },
        {
          "duration": 1.2972959999999958,
          "durationTicks": 384,
          "midi": 56,
          "name": "G#3",
          "ticks": 15360,
          "time": 51.89184,
          "velocity": 0.6062992125984252
        },
        {
          "duration": 1.2972959999999958,
          "durationTicks": 384,
          "midi": 65,
          "name": "F4",
          "ticks": 15360,
          "time": 51.89184,
          "velocity": 0.6062992125984252
        },
        {
          "duration": 1.2972959999999958,
          "durationTicks": 384,
          "midi": 61,
          "name": "C#4",
          "ticks": 15360,
          "time": 51.89184,
          "velocity": 0.6062992125984252
        },
        {
          "duration": 1.2972959999999958,
          "durationTicks": 384,
          "midi": 58,
          "name": "A#3",
          "ticks": 15360,
          "time": 51.89184,
          "velocity": 0.6062992125984252
        },
        {
          "duration": 1.297296000000003,
          "durationTicks": 384,
          "midi": 61,
          "name": "C#4",
          "ticks": 15744,
          "time": 53.189136,
          "velocity": 0.6062992125984252
        },
        {
          "duration": 1.297296000000003,
          "durationTicks": 384,
          "midi": 58,
          "name": "A#3",
          "ticks": 15744,
          "time": 53.189136,
          "velocity": 0.6062992125984252
        },
        {
          "duration": 1.297296000000003,
          "durationTicks": 384,
          "midi": 55,
          "name": "G3",
          "ticks": 15744,
          "time": 53.189136,
          "velocity": 0.6062992125984252
        },
        {
          "duration": 1.297296000000003,
          "durationTicks": 384,
          "midi": 63,
          "name": "D#4",
          "ticks": 15744,
          "time": 53.189136,
          "velocity": 0.6062992125984252
        },
        {
          "duration": 1.297296000000003,
          "durationTicks": 384,
          "midi": 65,
          "name": "F4",
          "ticks": 16128,
          "time": 54.486432,
          "velocity": 0.6062992125984252
        },
        {
          "duration": 1.297296000000003,
          "durationTicks": 384,
          "midi": 61,
          "name": "C#4",
          "ticks": 16128,
          "time": 54.486432,
          "velocity": 0.6062992125984252
        },
        {
          "duration": 1.297296000000003,
          "durationTicks": 384,
          "midi": 58,
          "name": "A#3",
          "ticks": 16128,
          "time": 54.486432,
          "velocity": 0.6062992125984252
        },
        {
          "duration": 1.297296000000003,
          "durationTicks": 384,
          "midi": 54,
          "name": "F#3",
          "ticks": 16128,
          "time": 54.486432,
          "velocity": 0.6062992125984252
        },
        {
          "duration": 1.2972959999999958,
          "durationTicks": 384,
          "midi": 57,
          "name": "A3",
          "ticks": 16512,
          "time": 55.783728,
          "velocity": 0.6062992125984252
        },
        {
          "duration": 1.2972959999999958,
          "durationTicks": 384,
          "midi": 63,
          "name": "D#4",
          "ticks": 16512,
          "time": 55.783728,
          "velocity": 0.6062992125984252
        },
        {
          "duration": 1.2972959999999958,
          "durationTicks": 384,
          "midi": 60,
          "name": "C4",
          "ticks": 16512,
          "time": 55.783728,
          "velocity": 0.6062992125984252
        },
        {
          "duration": 1.2972959999999958,
          "durationTicks": 384,
          "midi": 53,
          "name": "F3",
          "ticks": 16512,
          "time": 55.783728,
          "velocity": 0.6062992125984252
        },
        {
          "duration": 1.297296000000003,
          "durationTicks": 384,
          "midi": 58,
          "name": "A#3",
          "ticks": 16896,
          "time": 57.081024,
          "velocity": 0.6062992125984252
        },
        {
          "duration": 1.297296000000003,
          "durationTicks": 384,
          "midi": 61,
          "name": "C#4",
          "ticks": 16896,
          "time": 57.081024,
          "velocity": 0.6062992125984252
        },
        {
          "duration": 1.297296000000003,
          "durationTicks": 384,
          "midi": 65,
          "name": "F4",
          "ticks": 16896,
          "time": 57.081024,
          "velocity": 0.6062992125984252
        },
        {
          "duration": 1.297296000000003,
          "durationTicks": 384,
          "midi": 56,
          "name": "G#3",
          "ticks": 16896,
          "time": 57.081024,
          "velocity": 0.6062992125984252
        },
        {
          "duration": 0.6486480000000014,
          "durationTicks": 192,
          "midi": 66,
          "name": "F#4",
          "ticks": 17280,
          "time": 58.37832,
          "velocity": 0.6062992125984252
        },
        {
          "duration": 0.6486480000000014,
          "durationTicks": 192,
          "midi": 63,
          "name": "D#4",
          "ticks": 17280,
          "time": 58.37832,
          "velocity": 0.6062992125984252
        },
        {
          "duration": 0.6486480000000014,
          "durationTicks": 192,
          "midi": 60,
          "name": "C4",
          "ticks": 17280,
          "time": 58.37832,
          "velocity": 0.6062992125984252
        },
        {
          "duration": 0.6486480000000014,
          "durationTicks": 192,
          "midi": 56,
          "name": "G#3",
          "ticks": 17280,
          "time": 58.37832,
          "velocity": 0.6062992125984252
        },
        {
          "duration": 0.6486479999999943,
          "durationTicks": 192,
          "midi": 56,
          "name": "G#3",
          "ticks": 17472,
          "time": 59.026968000000004,
          "velocity": 0.6062992125984252
        },
        {
          "duration": 0.6486479999999943,
          "durationTicks": 192,
          "midi": 65,
          "name": "F4",
          "ticks": 17472,
          "time": 59.026968000000004,
          "velocity": 0.6062992125984252
        },
        {
          "duration": 0.6486479999999943,
          "durationTicks": 192,
          "midi": 61,
          "name": "C#4",
          "ticks": 17472,
          "time": 59.026968000000004,
          "velocity": 0.6062992125984252
        },
        {
          "duration": 1.297296000000003,
          "durationTicks": 384,
          "midi": 65,
          "name": "F4",
          "ticks": 17664,
          "time": 59.675616,
          "velocity": 0.6062992125984252
        },
        {
          "duration": 1.297296000000003,
          "durationTicks": 384,
          "midi": 61,
          "name": "C#4",
          "ticks": 17664,
          "time": 59.675616,
          "velocity": 0.6062992125984252
        },
        {
          "duration": 1.297296000000003,
          "durationTicks": 384,
          "midi": 58,
          "name": "A#3",
          "ticks": 17664,
          "time": 59.675616,
          "velocity": 0.6062992125984252
        },
        {
          "duration": 1.297296000000003,
          "durationTicks": 384,
          "midi": 54,
          "name": "F#3",
          "ticks": 17664,
          "time": 59.675616,
          "velocity": 0.6062992125984252
        },
        {
          "duration": 1.2972959999999958,
          "durationTicks": 384,
          "midi": 57,
          "name": "A3",
          "ticks": 18048,
          "time": 60.972912,
          "velocity": 0.6062992125984252
        },
        {
          "duration": 1.2972959999999958,
          "durationTicks": 384,
          "midi": 53,
          "name": "F3",
          "ticks": 18048,
          "time": 60.972912,
          "velocity": 0.6062992125984252
        },
        {
          "duration": 1.2972959999999958,
          "durationTicks": 384,
          "midi": 60,
          "name": "C4",
          "ticks": 18048,
          "time": 60.972912,
          "velocity": 0.6062992125984252
        },
        {
          "duration": 1.2972959999999958,
          "durationTicks": 384,
          "midi": 63,
          "name": "D#4",
          "ticks": 18048,
          "time": 60.972912,
          "velocity": 0.6062992125984252
        },
        {
          "duration": 1.297296000000003,
          "durationTicks": 384,
          "midi": 56,
          "name": "G#3",
          "ticks": 18432,
          "time": 62.270208,
          "velocity": 0.6062992125984252
        },
        {
          "duration": 1.297296000000003,
          "durationTicks": 384,
          "midi": 65,
          "name": "F4",
          "ticks": 18432,
          "time": 62.270208,
          "velocity": 0.6062992125984252
        },
        {
          "duration": 1.297296000000003,
          "durationTicks": 384,
          "midi": 61,
          "name": "C#4",
          "ticks": 18432,
          "time": 62.270208,
          "velocity": 0.6062992125984252
        },
        {
          "duration": 1.297296000000003,
          "durationTicks": 384,
          "midi": 58,
          "name": "A#3",
          "ticks": 18432,
          "time": 62.270208,
          "velocity": 0.6062992125984252
        },
        {
          "duration": 0.32432399999999717,
          "durationTicks": 96,
          "midi": 58,
          "name": "A#3",
          "ticks": 18816,
          "time": 63.567504,
          "velocity": 0.6062992125984252
        },
        {
          "duration": 0.32432399999999717,
          "durationTicks": 96,
          "midi": 61,
          "name": "C#4",
          "ticks": 18816,
          "time": 63.567504,
          "velocity": 0.6062992125984252
        },
        {
          "duration": 0.32432399999999717,
          "durationTicks": 96,
          "midi": 65,
          "name": "F4",
          "ticks": 18816,
          "time": 63.567504,
          "velocity": 0.6062992125984252
        },
        {
          "duration": 0.32432399999999717,
          "durationTicks": 96,
          "midi": 56,
          "name": "G#3",
          "ticks": 18816,
          "time": 63.567504,
          "velocity": 0.6062992125984252
        },
        {
          "duration": 0.32432399999999717,
          "durationTicks": 96,
          "midi": 55,
          "name": "G3",
          "ticks": 18912,
          "time": 63.891828,
          "velocity": 0.6062992125984252
        },
        {
          "duration": 0.32432399999999717,
          "durationTicks": 96,
          "midi": 64,
          "name": "E4",
          "ticks": 18912,
          "time": 63.891828,
          "velocity": 0.6062992125984252
        },
        {
          "duration": 0.32432399999999717,
          "durationTicks": 96,
          "midi": 60,
          "name": "C4",
          "ticks": 18912,
          "time": 63.891828,
          "velocity": 0.6062992125984252
        },
        {
          "duration": 0.32432399999999717,
          "durationTicks": 96,
          "midi": 57,
          "name": "A3",
          "ticks": 18912,
          "time": 63.891828,
          "velocity": 0.6062992125984252
        },
        {
          "duration": 0.3243240000000043,
          "durationTicks": 96,
          "midi": 56,
          "name": "G#3",
          "ticks": 19008,
          "time": 64.216152,
          "velocity": 0.6062992125984252
        },
        {
          "duration": 0.3243240000000043,
          "durationTicks": 96,
          "midi": 59,
          "name": "B3",
          "ticks": 19008,
          "time": 64.216152,
          "velocity": 0.6062992125984252
        },
        {
          "duration": 0.3243240000000043,
          "durationTicks": 96,
          "midi": 63,
          "name": "D#4",
          "ticks": 19008,
          "time": 64.216152,
          "velocity": 0.6062992125984252
        },
        {
          "duration": 0.3243240000000043,
          "durationTicks": 96,
          "midi": 54,
          "name": "F#3",
          "ticks": 19008,
          "time": 64.216152,
          "velocity": 0.6062992125984252
        },
        {
          "duration": 0.3243240000000043,
          "durationTicks": 96,
          "midi": 53,
          "name": "F3",
          "ticks": 19104,
          "time": 64.540476,
          "velocity": 0.6062992125984252
        },
        {
          "duration": 0.3243240000000043,
          "durationTicks": 96,
          "midi": 62,
          "name": "D4",
          "ticks": 19104,
          "time": 64.540476,
          "velocity": 0.6062992125984252
        },
        {
          "duration": 0.3243240000000043,
          "durationTicks": 96,
          "midi": 58,
          "name": "A#3",
          "ticks": 19104,
          "time": 64.540476,
          "velocity": 0.6062992125984252
        },
        {
          "duration": 0.3243240000000043,
          "durationTicks": 96,
          "midi": 55,
          "name": "G3",
          "ticks": 19104,
          "time": 64.540476,
          "velocity": 0.6062992125984252
        },
        {
          "duration": 1.297296000000003,
          "durationTicks": 384,
          "midi": 65,
          "name": "F4",
          "ticks": 19968,
          "time": 67.459392,
          "velocity": 0.7322834645669292
        },
        {
          "duration": 1.297296000000003,
          "durationTicks": 384,
          "midi": 61,
          "name": "C#4",
          "ticks": 19968,
          "time": 67.459392,
          "velocity": 0.7322834645669292
        },
        {
          "duration": 1.297296000000003,
          "durationTicks": 384,
          "midi": 58,
          "name": "A#3",
          "ticks": 19968,
          "time": 67.459392,
          "velocity": 0.7322834645669292
        },
        {
          "duration": 1.297296000000003,
          "durationTicks": 384,
          "midi": 54,
          "name": "F#3",
          "ticks": 19968,
          "time": 67.459392,
          "velocity": 0.7322834645669292
        },
        {
          "duration": 1.297296000000003,
          "durationTicks": 384,
          "midi": 63,
          "name": "D#4",
          "ticks": 20352,
          "time": 68.756688,
          "velocity": 0.7322834645669292
        },
        {
          "duration": 1.297296000000003,
          "durationTicks": 384,
          "midi": 60,
          "name": "C4",
          "ticks": 20352,
          "time": 68.756688,
          "velocity": 0.7322834645669292
        },
        {
          "duration": 1.297296000000003,
          "durationTicks": 384,
          "midi": 57,
          "name": "A3",
          "ticks": 20352,
          "time": 68.756688,
          "velocity": 0.7322834645669292
        },
        {
          "duration": 1.297296000000003,
          "durationTicks": 384,
          "midi": 53,
          "name": "F3",
          "ticks": 20352,
          "time": 68.756688,
          "velocity": 0.7322834645669292
        },
        {
          "duration": 1.297296000000003,
          "durationTicks": 384,
          "midi": 58,
          "name": "A#3",
          "ticks": 20736,
          "time": 70.053984,
          "velocity": 0.7322834645669292
        },
        {
          "duration": 1.297296000000003,
          "durationTicks": 384,
          "midi": 61,
          "name": "C#4",
          "ticks": 20736,
          "time": 70.053984,
          "velocity": 0.7322834645669292
        },
        {
          "duration": 1.297296000000003,
          "durationTicks": 384,
          "midi": 65,
          "name": "F4",
          "ticks": 20736,
          "time": 70.053984,
          "velocity": 0.7322834645669292
        },
        {
          "duration": 1.297296000000003,
          "durationTicks": 384,
          "midi": 56,
          "name": "G#3",
          "ticks": 20736,
          "time": 70.053984,
          "velocity": 0.7322834645669292
        },
        {
          "duration": 0.6486479999999943,
          "durationTicks": 192,
          "midi": 56,
          "name": "G#3",
          "ticks": 21120,
          "time": 71.35128,
          "velocity": 0.7322834645669292
        },
        {
          "duration": 0.6486479999999943,
          "durationTicks": 192,
          "midi": 60,
          "name": "C4",
          "ticks": 21120,
          "time": 71.35128,
          "velocity": 0.7322834645669292
        },
        {
          "duration": 0.6486479999999943,
          "durationTicks": 192,
          "midi": 63,
          "name": "D#4",
          "ticks": 21120,
          "time": 71.35128,
          "velocity": 0.7322834645669292
        },
        {
          "duration": 0.6486479999999943,
          "durationTicks": 192,
          "midi": 66,
          "name": "F#4",
          "ticks": 21120,
          "time": 71.35128,
          "velocity": 0.7322834645669292
        },
        {
          "duration": 0.6486480000000086,
          "durationTicks": 192,
          "midi": 56,
          "name": "G#3",
          "ticks": 21312,
          "time": 71.999928,
          "velocity": 0.7322834645669292
        },
        {
          "duration": 0.6486480000000086,
          "durationTicks": 192,
          "midi": 65,
          "name": "F4",
          "ticks": 21312,
          "time": 71.999928,
          "velocity": 0.7322834645669292
        },
        {
          "duration": 0.6486480000000086,
          "durationTicks": 192,
          "midi": 61,
          "name": "C#4",
          "ticks": 21312,
          "time": 71.999928,
          "velocity": 0.7322834645669292
        },
        {
          "duration": 1.2972959999999887,
          "durationTicks": 384,
          "midi": 54,
          "name": "F#3",
          "ticks": 21504,
          "time": 72.648576,
          "velocity": 0.7322834645669292
        },
        {
          "duration": 1.2972959999999887,
          "durationTicks": 384,
          "midi": 58,
          "name": "A#3",
          "ticks": 21504,
          "time": 72.648576,
          "velocity": 0.7322834645669292
        },
        {
          "duration": 1.2972959999999887,
          "durationTicks": 384,
          "midi": 61,
          "name": "C#4",
          "ticks": 21504,
          "time": 72.648576,
          "velocity": 0.7322834645669292
        },
        {
          "duration": 1.2972959999999887,
          "durationTicks": 384,
          "midi": 65,
          "name": "F4",
          "ticks": 21504,
          "time": 72.648576,
          "velocity": 0.7322834645669292
        },
        {
          "duration": 1.297296000000003,
          "durationTicks": 384,
          "midi": 53,
          "name": "F3",
          "ticks": 21888,
          "time": 73.945872,
          "velocity": 0.7322834645669292
        },
        {
          "duration": 1.297296000000003,
          "durationTicks": 384,
          "midi": 57,
          "name": "A3",
          "ticks": 21888,
          "time": 73.945872,
          "velocity": 0.7322834645669292
        },
        {
          "duration": 1.297296000000003,
          "durationTicks": 384,
          "midi": 60,
          "name": "C4",
          "ticks": 21888,
          "time": 73.945872,
          "velocity": 0.7322834645669292
        },
        {
          "duration": 1.297296000000003,
          "durationTicks": 384,
          "midi": 63,
          "name": "D#4",
          "ticks": 21888,
          "time": 73.945872,
          "velocity": 0.7322834645669292
        },
        {
          "duration": 1.297296000000003,
          "durationTicks": 384,
          "midi": 56,
          "name": "G#3",
          "ticks": 22272,
          "time": 75.243168,
          "velocity": 0.7322834645669292
        },
        {
          "duration": 1.297296000000003,
          "durationTicks": 384,
          "midi": 65,
          "name": "F4",
          "ticks": 22272,
          "time": 75.243168,
          "velocity": 0.7322834645669292
        },
        {
          "duration": 1.297296000000003,
          "durationTicks": 384,
          "midi": 61,
          "name": "C#4",
          "ticks": 22272,
          "time": 75.243168,
          "velocity": 0.7322834645669292
        },
        {
          "duration": 1.297296000000003,
          "durationTicks": 384,
          "midi": 58,
          "name": "A#3",
          "ticks": 22272,
          "time": 75.243168,
          "velocity": 0.7322834645669292
        },
        {
          "duration": 0.6486479999999943,
          "durationTicks": 192,
          "midi": 56,
          "name": "G#3",
          "ticks": 22656,
          "time": 76.540464,
          "velocity": 0.7322834645669292
        },
        {
          "duration": 0.6486479999999943,
          "durationTicks": 192,
          "midi": 60,
          "name": "C4",
          "ticks": 22656,
          "time": 76.540464,
          "velocity": 0.7322834645669292
        },
        {
          "duration": 0.6486479999999943,
          "durationTicks": 192,
          "midi": 63,
          "name": "D#4",
          "ticks": 22656,
          "time": 76.540464,
          "velocity": 0.7322834645669292
        },
        {
          "duration": 0.6486479999999943,
          "durationTicks": 192,
          "midi": 66,
          "name": "F#4",
          "ticks": 22656,
          "time": 76.540464,
          "velocity": 0.7322834645669292
        },
        {
          "duration": 0.6486480000000086,
          "durationTicks": 192,
          "midi": 61,
          "name": "C#4",
          "ticks": 22848,
          "time": 77.189112,
          "velocity": 0.7322834645669292
        },
        {
          "duration": 0.6486480000000086,
          "durationTicks": 192,
          "midi": 65,
          "name": "F4",
          "ticks": 22848,
          "time": 77.189112,
          "velocity": 0.7322834645669292
        },
        {
          "duration": 0.6486480000000086,
          "durationTicks": 192,
          "midi": 56,
          "name": "G#3",
          "ticks": 22848,
          "time": 77.189112,
          "velocity": 0.7322834645669292
        },
        {
          "duration": 0.6081075000000027,
          "durationTicks": 180,
          "midi": 58,
          "name": "A#3",
          "ticks": 23040,
          "time": 77.83776,
          "velocity": 0.7795275590551181
        },
        {
          "duration": 0.6081075000000027,
          "durationTicks": 180,
          "midi": 46,
          "name": "A#2",
          "ticks": 23040,
          "time": 77.83776,
          "velocity": 0.7795275590551181
        },
        {
          "duration": 0.6081075000000027,
          "durationTicks": 180,
          "midi": 49,
          "name": "C#3",
          "ticks": 23040,
          "time": 77.83776,
          "velocity": 0.7795275590551181
        },
        {
          "duration": 0.6081075000000027,
          "durationTicks": 180,
          "midi": 53,
          "name": "F3",
          "ticks": 23040,
          "time": 77.83776,
          "velocity": 0.7795275590551181
        },
        {
          "duration": 0.2837834999999984,
          "durationTicks": 84,
          "midi": 56,
          "name": "G#3",
          "ticks": 24384,
          "time": 82.378296,
          "velocity": 0.7795275590551181
        },
        {
          "duration": 0.2837834999999984,
          "durationTicks": 84,
          "midi": 52,
          "name": "E3",
          "ticks": 24384,
          "time": 82.378296,
          "velocity": 0.7795275590551181
        },
        {
          "duration": 0.2837834999999984,
          "durationTicks": 84,
          "midi": 49,
          "name": "C#3",
          "ticks": 24384,
          "time": 82.378296,
          "velocity": 0.7795275590551181
        },
        {
          "duration": 0.2837834999999984,
          "durationTicks": 84,
          "midi": 61,
          "name": "C#4",
          "ticks": 24384,
          "time": 82.378296,
          "velocity": 0.7795275590551181
        },
        {
          "duration": 0.2837834999999984,
          "durationTicks": 84,
          "midi": 60,
          "name": "C4",
          "ticks": 24480,
          "time": 82.70262,
          "velocity": 0.7795275590551181
        },
        {
          "duration": 0.2837834999999984,
          "durationTicks": 84,
          "midi": 48,
          "name": "C3",
          "ticks": 24480,
          "time": 82.70262,
          "velocity": 0.7795275590551181
        },
        {
          "duration": 0.2837834999999984,
          "durationTicks": 84,
          "midi": 51,
          "name": "D#3",
          "ticks": 24480,
          "time": 82.70262,
          "velocity": 0.7795275590551181
        },
        {
          "duration": 0.2837834999999984,
          "durationTicks": 84,
          "midi": 55,
          "name": "G3",
          "ticks": 24480,
          "time": 82.70262,
          "velocity": 0.7795275590551181
        },
        {
          "duration": 0.6081075000000027,
          "durationTicks": 180,
          "midi": 58,
          "name": "A#3",
          "ticks": 24576,
          "time": 83.026944,
          "velocity": 0.7795275590551181
        },
        {
          "duration": 0.6081075000000027,
          "durationTicks": 180,
          "midi": 46,
          "name": "A#2",
          "ticks": 24576,
          "time": 83.026944,
          "velocity": 0.7795275590551181
        },
        {
          "duration": 0.6081075000000027,
          "durationTicks": 180,
          "midi": 49,
          "name": "C#3",
          "ticks": 24576,
          "time": 83.026944,
          "velocity": 0.7795275590551181
        },
        {
          "duration": 0.6081075000000027,
          "durationTicks": 180,
          "midi": 53,
          "name": "F3",
          "ticks": 24576,
          "time": 83.026944,
          "velocity": 0.7795275590551181
        },
        {
          "duration": 0.013513500000001955,
          "durationTicks": 4,
          "midi": 53,
          "name": "F3",
          "ticks": 25920,
          "time": 87.56748,
          "velocity": 0.09448818897637795
        },
        {
          "duration": 0.013513500000001955,
          "durationTicks": 4,
          "midi": 49,
          "name": "C#3",
          "ticks": 25920,
          "time": 87.56748,
          "velocity": 0.09448818897637795
        },
        {
          "duration": 0.013513500000001955,
          "durationTicks": 4,
          "midi": 46,
          "name": "A#2",
          "ticks": 25920,
          "time": 87.56748,
          "velocity": 0.09448818897637795
        },
        {
          "duration": 0.013513500000001955,
          "durationTicks": 4,
          "midi": 58,
          "name": "A#3",
          "ticks": 25920,
          "time": 87.56748,
          "velocity": 0.09448818897637795
        },
        {
          "duration": 0.013513500000016165,
          "durationTicks": 4,
          "midi": 53,
          "name": "F3",
          "ticks": 25932,
          "time": 87.6080205,
          "velocity": 0.11023622047244094
        },
        {
          "duration": 0.013513500000016165,
          "durationTicks": 4,
          "midi": 49,
          "name": "C#3",
          "ticks": 25932,
          "time": 87.6080205,
          "velocity": 0.11023622047244094
        },
        {
          "duration": 0.013513500000016165,
          "durationTicks": 4,
          "midi": 46,
          "name": "A#2",
          "ticks": 25932,
          "time": 87.6080205,
          "velocity": 0.11023622047244094
        },
        {
          "duration": 0.013513500000016165,
          "durationTicks": 4,
          "midi": 58,
          "name": "A#3",
          "ticks": 25932,
          "time": 87.6080205,
          "velocity": 0.11023622047244094
        },
        {
          "duration": 0.013513500000001955,
          "durationTicks": 4,
          "midi": 58,
          "name": "A#3",
          "ticks": 25944,
          "time": 87.648561,
          "velocity": 0.15748031496062992
        },
        {
          "duration": 0.013513500000001955,
          "durationTicks": 4,
          "midi": 46,
          "name": "A#2",
          "ticks": 25944,
          "time": 87.648561,
          "velocity": 0.15748031496062992
        },
        {
          "duration": 0.013513500000001955,
          "durationTicks": 4,
          "midi": 49,
          "name": "C#3",
          "ticks": 25944,
          "time": 87.648561,
          "velocity": 0.15748031496062992
        },
        {
          "duration": 0.013513500000001955,
          "durationTicks": 4,
          "midi": 53,
          "name": "F3",
          "ticks": 25944,
          "time": 87.648561,
          "velocity": 0.15748031496062992
        },
        {
          "duration": 0.013513500000001955,
          "durationTicks": 4,
          "midi": 58,
          "name": "A#3",
          "ticks": 25956,
          "time": 87.6891015,
          "velocity": 0.2047244094488189
        },
        {
          "duration": 0.013513500000001955,
          "durationTicks": 4,
          "midi": 46,
          "name": "A#2",
          "ticks": 25956,
          "time": 87.6891015,
          "velocity": 0.2047244094488189
        },
        {
          "duration": 0.013513500000001955,
          "durationTicks": 4,
          "midi": 49,
          "name": "C#3",
          "ticks": 25956,
          "time": 87.6891015,
          "velocity": 0.2047244094488189
        },
        {
          "duration": 0.013513500000001955,
          "durationTicks": 4,
          "midi": 53,
          "name": "F3",
          "ticks": 25956,
          "time": 87.6891015,
          "velocity": 0.2047244094488189
        },
        {
          "duration": 0.013513500000001955,
          "durationTicks": 4,
          "midi": 58,
          "name": "A#3",
          "ticks": 25968,
          "time": 87.729642,
          "velocity": 0.25196850393700787
        },
        {
          "duration": 0.013513500000001955,
          "durationTicks": 4,
          "midi": 46,
          "name": "A#2",
          "ticks": 25968,
          "time": 87.729642,
          "velocity": 0.25196850393700787
        },
        {
          "duration": 0.013513500000001955,
          "durationTicks": 4,
          "midi": 49,
          "name": "C#3",
          "ticks": 25968,
          "time": 87.729642,
          "velocity": 0.25196850393700787
        },
        {
          "duration": 0.013513500000001955,
          "durationTicks": 4,
          "midi": 53,
          "name": "F3",
          "ticks": 25968,
          "time": 87.729642,
          "velocity": 0.25196850393700787
        },
        {
          "duration": 0.013513500000001955,
          "durationTicks": 4,
          "midi": 58,
          "name": "A#3",
          "ticks": 25980,
          "time": 87.7701825,
          "velocity": 0.29133858267716534
        },
        {
          "duration": 0.013513500000001955,
          "durationTicks": 4,
          "midi": 46,
          "name": "A#2",
          "ticks": 25980,
          "time": 87.7701825,
          "velocity": 0.29133858267716534
        },
        {
          "duration": 0.013513500000001955,
          "durationTicks": 4,
          "midi": 49,
          "name": "C#3",
          "ticks": 25980,
          "time": 87.7701825,
          "velocity": 0.29133858267716534
        },
        {
          "duration": 0.013513500000001955,
          "durationTicks": 4,
          "midi": 53,
          "name": "F3",
          "ticks": 25980,
          "time": 87.7701825,
          "velocity": 0.29133858267716534
        },
        {
          "duration": 0.013513500000016165,
          "durationTicks": 4,
          "midi": 53,
          "name": "F3",
          "ticks": 25992,
          "time": 87.810723,
          "velocity": 0.33858267716535434
        },
        {
          "duration": 0.013513500000016165,
          "durationTicks": 4,
          "midi": 49,
          "name": "C#3",
          "ticks": 25992,
          "time": 87.810723,
          "velocity": 0.33858267716535434
        },
        {
          "duration": 0.013513500000016165,
          "durationTicks": 4,
          "midi": 46,
          "name": "A#2",
          "ticks": 25992,
          "time": 87.810723,
          "velocity": 0.33858267716535434
        },
        {
          "duration": 0.013513500000016165,
          "durationTicks": 4,
          "midi": 58,
          "name": "A#3",
          "ticks": 25992,
          "time": 87.810723,
          "velocity": 0.33858267716535434
        },
        {
          "duration": 0.013513500000001955,
          "durationTicks": 4,
          "midi": 53,
          "name": "F3",
          "ticks": 26004,
          "time": 87.8512635,
          "velocity": 0.3858267716535433
        },
        {
          "duration": 0.013513500000001955,
          "durationTicks": 4,
          "midi": 49,
          "name": "C#3",
          "ticks": 26004,
          "time": 87.8512635,
          "velocity": 0.3858267716535433
        },
        {
          "duration": 0.013513500000001955,
          "durationTicks": 4,
          "midi": 46,
          "name": "A#2",
          "ticks": 26004,
          "time": 87.8512635,
          "velocity": 0.3858267716535433
        },
        {
          "duration": 0.013513500000001955,
          "durationTicks": 4,
          "midi": 58,
          "name": "A#3",
          "ticks": 26004,
          "time": 87.8512635,
          "velocity": 0.3858267716535433
        },
        {
          "duration": 0.013513500000016165,
          "durationTicks": 4,
          "midi": 53,
          "name": "F3",
          "ticks": 26016,
          "time": 87.891804,
          "velocity": 0.4251968503937008
        },
        {
          "duration": 0.013513500000016165,
          "durationTicks": 4,
          "midi": 49,
          "name": "C#3",
          "ticks": 26016,
          "time": 87.891804,
          "velocity": 0.4251968503937008
        },
        {
          "duration": 0.013513500000016165,
          "durationTicks": 4,
          "midi": 46,
          "name": "A#2",
          "ticks": 26016,
          "time": 87.891804,
          "velocity": 0.4251968503937008
        },
        {
          "duration": 0.013513500000016165,
          "durationTicks": 4,
          "midi": 58,
          "name": "A#3",
          "ticks": 26016,
          "time": 87.891804,
          "velocity": 0.4251968503937008
        },
        {
          "duration": 0.013513500000001955,
          "durationTicks": 4,
          "midi": 53,
          "name": "F3",
          "ticks": 26028,
          "time": 87.9323445,
          "velocity": 0.47244094488188976
        },
        {
          "duration": 0.013513500000001955,
          "durationTicks": 4,
          "midi": 49,
          "name": "C#3",
          "ticks": 26028,
          "time": 87.9323445,
          "velocity": 0.47244094488188976
        },
        {
          "duration": 0.013513500000001955,
          "durationTicks": 4,
          "midi": 46,
          "name": "A#2",
          "ticks": 26028,
          "time": 87.9323445,
          "velocity": 0.47244094488188976
        },
        {
          "duration": 0.013513500000001955,
          "durationTicks": 4,
          "midi": 58,
          "name": "A#3",
          "ticks": 26028,
          "time": 87.9323445,
          "velocity": 0.47244094488188976
        },
        {
          "duration": 0.013513500000001955,
          "durationTicks": 4,
          "midi": 53,
          "name": "F3",
          "ticks": 26040,
          "time": 87.972885,
          "velocity": 0.5196850393700787
        },
        {
          "duration": 0.013513500000001955,
          "durationTicks": 4,
          "midi": 49,
          "name": "C#3",
          "ticks": 26040,
          "time": 87.972885,
          "velocity": 0.5196850393700787
        },
        {
          "duration": 0.013513500000001955,
          "durationTicks": 4,
          "midi": 46,
          "name": "A#2",
          "ticks": 26040,
          "time": 87.972885,
          "velocity": 0.5196850393700787
        },
        {
          "duration": 0.013513500000001955,
          "durationTicks": 4,
          "midi": 58,
          "name": "A#3",
          "ticks": 26040,
          "time": 87.972885,
          "velocity": 0.5196850393700787
        },
        {
          "duration": 0.013513500000016165,
          "durationTicks": 4,
          "midi": 53,
          "name": "F3",
          "ticks": 26052,
          "time": 88.0134255,
          "velocity": 0.5669291338582677
        },
        {
          "duration": 0.013513500000016165,
          "durationTicks": 4,
          "midi": 49,
          "name": "C#3",
          "ticks": 26052,
          "time": 88.0134255,
          "velocity": 0.5669291338582677
        },
        {
          "duration": 0.013513500000016165,
          "durationTicks": 4,
          "midi": 46,
          "name": "A#2",
          "ticks": 26052,
          "time": 88.0134255,
          "velocity": 0.5669291338582677
        },
        {
          "duration": 0.013513500000016165,
          "durationTicks": 4,
          "midi": 58,
          "name": "A#3",
          "ticks": 26052,
          "time": 88.0134255,
          "velocity": 0.5669291338582677
        },
        {
          "duration": 0.013513500000001955,
          "durationTicks": 4,
          "midi": 53,
          "name": "F3",
          "ticks": 26064,
          "time": 88.053966,
          "velocity": 0.6062992125984252
        },
        {
          "duration": 0.013513500000001955,
          "durationTicks": 4,
          "midi": 49,
          "name": "C#3",
          "ticks": 26064,
          "time": 88.053966,
          "velocity": 0.6062992125984252
        },
        {
          "duration": 0.013513500000001955,
          "durationTicks": 4,
          "midi": 46,
          "name": "A#2",
          "ticks": 26064,
          "time": 88.053966,
          "velocity": 0.6062992125984252
        },
        {
          "duration": 0.013513500000001955,
          "durationTicks": 4,
          "midi": 58,
          "name": "A#3",
          "ticks": 26064,
          "time": 88.053966,
          "velocity": 0.6062992125984252
        },
        {
          "duration": 0.013513500000016165,
          "durationTicks": 4,
          "midi": 53,
          "name": "F3",
          "ticks": 26076,
          "time": 88.0945065,
          "velocity": 0.6535433070866141
        },
        {
          "duration": 0.013513500000016165,
          "durationTicks": 4,
          "midi": 49,
          "name": "C#3",
          "ticks": 26076,
          "time": 88.0945065,
          "velocity": 0.6535433070866141
        },
        {
          "duration": 0.013513500000016165,
          "durationTicks": 4,
          "midi": 46,
          "name": "A#2",
          "ticks": 26076,
          "time": 88.0945065,
          "velocity": 0.6535433070866141
        },
        {
          "duration": 0.013513500000016165,
          "durationTicks": 4,
          "midi": 58,
          "name": "A#3",
          "ticks": 26076,
          "time": 88.0945065,
          "velocity": 0.6535433070866141
        },
        {
          "duration": 0.013513500000001955,
          "durationTicks": 4,
          "midi": 53,
          "name": "F3",
          "ticks": 26088,
          "time": 88.135047,
          "velocity": 0.7007874015748031
        },
        {
          "duration": 0.013513500000001955,
          "durationTicks": 4,
          "midi": 49,
          "name": "C#3",
          "ticks": 26088,
          "time": 88.135047,
          "velocity": 0.7007874015748031
        },
        {
          "duration": 0.013513500000001955,
          "durationTicks": 4,
          "midi": 46,
          "name": "A#2",
          "ticks": 26088,
          "time": 88.135047,
          "velocity": 0.7007874015748031
        },
        {
          "duration": 0.013513500000001955,
          "durationTicks": 4,
          "midi": 58,
          "name": "A#3",
          "ticks": 26088,
          "time": 88.135047,
          "velocity": 0.7007874015748031
        },
        {
          "duration": 0.013513500000001955,
          "durationTicks": 4,
          "midi": 53,
          "name": "F3",
          "ticks": 26100,
          "time": 88.1755875,
          "velocity": 0.7401574803149606
        },
        {
          "duration": 0.013513500000001955,
          "durationTicks": 4,
          "midi": 49,
          "name": "C#3",
          "ticks": 26100,
          "time": 88.1755875,
          "velocity": 0.7401574803149606
        },
        {
          "duration": 0.013513500000001955,
          "durationTicks": 4,
          "midi": 46,
          "name": "A#2",
          "ticks": 26100,
          "time": 88.1755875,
          "velocity": 0.7401574803149606
        },
        {
          "duration": 0.013513500000001955,
          "durationTicks": 4,
          "midi": 58,
          "name": "A#3",
          "ticks": 26100,
          "time": 88.1755875,
          "velocity": 0.7401574803149606
        },
        {
          "duration": 0.6081075000000027,
          "durationTicks": 180,
          "midi": 58,
          "name": "A#3",
          "ticks": 26112,
          "time": 88.216128,
          "velocity": 0.7795275590551181
        },
        {
          "duration": 0.6081075000000027,
          "durationTicks": 180,
          "midi": 46,
          "name": "A#2",
          "ticks": 26112,
          "time": 88.216128,
          "velocity": 0.7795275590551181
        },
        {
          "duration": 0.6081075000000027,
          "durationTicks": 180,
          "midi": 49,
          "name": "C#3",
          "ticks": 26112,
          "time": 88.216128,
          "velocity": 0.7795275590551181
        },
        {
          "duration": 0.6081075000000027,
          "durationTicks": 180,
          "midi": 53,
          "name": "F3",
          "ticks": 26112,
          "time": 88.216128,
          "velocity": 0.7795275590551181
        },
        {
          "duration": 0.2837834999999984,
          "durationTicks": 84,
          "midi": 61,
          "name": "C#4",
          "ticks": 27456,
          "time": 92.756664,
          "velocity": 0.7795275590551181
        },
        {
          "duration": 0.2837834999999984,
          "durationTicks": 84,
          "midi": 49,
          "name": "C#3",
          "ticks": 27456,
          "time": 92.756664,
          "velocity": 0.7795275590551181
        },
        {
          "duration": 0.2837834999999984,
          "durationTicks": 84,
          "midi": 52,
          "name": "E3",
          "ticks": 27456,
          "time": 92.756664,
          "velocity": 0.7795275590551181
        },
        {
          "duration": 0.2837834999999984,
          "durationTicks": 84,
          "midi": 56,
          "name": "G#3",
          "ticks": 27456,
          "time": 92.756664,
          "velocity": 0.7795275590551181
        },
        {
          "duration": 0.2837834999999984,
          "durationTicks": 84,
          "midi": 60,
          "name": "C4",
          "ticks": 27552,
          "time": 93.080988,
          "velocity": 0.7637795275590551
        },
        {
          "duration": 0.2837834999999984,
          "durationTicks": 84,
          "midi": 48,
          "name": "C3",
          "ticks": 27552,
          "time": 93.080988,
          "velocity": 0.7637795275590551
        },
        {
          "duration": 0.2837834999999984,
          "durationTicks": 84,
          "midi": 51,
          "name": "D#3",
          "ticks": 27552,
          "time": 93.080988,
          "velocity": 0.7637795275590551
        },
        {
          "duration": 0.2837834999999984,
          "durationTicks": 84,
          "midi": 55,
          "name": "G3",
          "ticks": 27552,
          "time": 93.080988,
          "velocity": 0.7637795275590551
        },
        {
          "duration": 0.6081075000000027,
          "durationTicks": 180,
          "midi": 53,
          "name": "F3",
          "ticks": 27648,
          "time": 93.405312,
          "velocity": 0.7795275590551181
        },
        {
          "duration": 0.6081075000000027,
          "durationTicks": 180,
          "midi": 49,
          "name": "C#3",
          "ticks": 27648,
          "time": 93.405312,
          "velocity": 0.7795275590551181
        },
        {
          "duration": 0.6081075000000027,
          "durationTicks": 180,
          "midi": 46,
          "name": "A#2",
          "ticks": 27648,
          "time": 93.405312,
          "velocity": 0.7795275590551181
        },
        {
          "duration": 0.6081075000000027,
          "durationTicks": 180,
          "midi": 58,
          "name": "A#3",
          "ticks": 27648,
          "time": 93.405312,
          "velocity": 0.7795275590551181
        },
        {
          "duration": 0.040540500000005864,
          "durationTicks": 12,
          "midi": 63,
          "name": "D#4",
          "ticks": 31872,
          "time": 107.675568,
          "velocity": 0.047244094488188976
        },
        {
          "duration": 0.040540500000005864,
          "durationTicks": 12,
          "midi": 55,
          "name": "G3",
          "ticks": 31872,
          "time": 107.675568,
          "velocity": 0.047244094488188976
        },
        {
          "duration": 0.040540500000005864,
          "durationTicks": 12,
          "midi": 58,
          "name": "A#3",
          "ticks": 31872,
          "time": 107.675568,
          "velocity": 0.047244094488188976
        },
        {
          "duration": 0.040540500000005864,
          "durationTicks": 12,
          "midi": 61,
          "name": "C#4",
          "ticks": 31872,
          "time": 107.675568,
          "velocity": 0.047244094488188976
        },
        {
          "duration": 0.040540500000005864,
          "durationTicks": 12,
          "midi": 63,
          "name": "D#4",
          "ticks": 31896,
          "time": 107.756649,
          "velocity": 0.07874015748031496
        },
        {
          "duration": 0.040540500000005864,
          "durationTicks": 12,
          "midi": 55,
          "name": "G3",
          "ticks": 31896,
          "time": 107.756649,
          "velocity": 0.07874015748031496
        },
        {
          "duration": 0.040540500000005864,
          "durationTicks": 12,
          "midi": 58,
          "name": "A#3",
          "ticks": 31896,
          "time": 107.756649,
          "velocity": 0.07874015748031496
        },
        {
          "duration": 0.040540500000005864,
          "durationTicks": 12,
          "midi": 61,
          "name": "C#4",
          "ticks": 31896,
          "time": 107.756649,
          "velocity": 0.07874015748031496
        },
        {
          "duration": 0.040540500000005864,
          "durationTicks": 12,
          "midi": 63,
          "name": "D#4",
          "ticks": 31920,
          "time": 107.83773,
          "velocity": 0.11811023622047244
        },
        {
          "duration": 0.040540500000005864,
          "durationTicks": 12,
          "midi": 55,
          "name": "G3",
          "ticks": 31920,
          "time": 107.83773,
          "velocity": 0.11811023622047244
        },
        {
          "duration": 0.040540500000005864,
          "durationTicks": 12,
          "midi": 58,
          "name": "A#3",
          "ticks": 31920,
          "time": 107.83773,
          "velocity": 0.11811023622047244
        },
        {
          "duration": 0.040540500000005864,
          "durationTicks": 12,
          "midi": 61,
          "name": "C#4",
          "ticks": 31920,
          "time": 107.83773,
          "velocity": 0.11811023622047244
        },
        {
          "duration": 0.04054049999999165,
          "durationTicks": 12,
          "midi": 61,
          "name": "C#4",
          "ticks": 31944,
          "time": 107.918811,
          "velocity": 0.15748031496062992
        },
        {
          "duration": 0.04054049999999165,
          "durationTicks": 12,
          "midi": 58,
          "name": "A#3",
          "ticks": 31944,
          "time": 107.918811,
          "velocity": 0.15748031496062992
        },
        {
          "duration": 0.04054049999999165,
          "durationTicks": 12,
          "midi": 55,
          "name": "G3",
          "ticks": 31944,
          "time": 107.918811,
          "velocity": 0.15748031496062992
        },
        {
          "duration": 0.04054049999999165,
          "durationTicks": 12,
          "midi": 63,
          "name": "D#4",
          "ticks": 31944,
          "time": 107.918811,
          "velocity": 0.15748031496062992
        },
        {
          "duration": 0.04054049999999165,
          "durationTicks": 12,
          "midi": 61,
          "name": "C#4",
          "ticks": 31968,
          "time": 107.999892,
          "velocity": 0.1889763779527559
        },
        {
          "duration": 0.04054049999999165,
          "durationTicks": 12,
          "midi": 58,
          "name": "A#3",
          "ticks": 31968,
          "time": 107.999892,
          "velocity": 0.1889763779527559
        },
        {
          "duration": 0.04054049999999165,
          "durationTicks": 12,
          "midi": 55,
          "name": "G3",
          "ticks": 31968,
          "time": 107.999892,
          "velocity": 0.1889763779527559
        },
        {
          "duration": 0.04054049999999165,
          "durationTicks": 12,
          "midi": 63,
          "name": "D#4",
          "ticks": 31968,
          "time": 107.999892,
          "velocity": 0.1889763779527559
        },
        {
          "duration": 0.040540500000005864,
          "durationTicks": 12,
          "midi": 61,
          "name": "C#4",
          "ticks": 31992,
          "time": 108.080973,
          "velocity": 0.2283464566929134
        },
        {
          "duration": 0.040540500000005864,
          "durationTicks": 12,
          "midi": 58,
          "name": "A#3",
          "ticks": 31992,
          "time": 108.080973,
          "velocity": 0.2283464566929134
        },
        {
          "duration": 0.040540500000005864,
          "durationTicks": 12,
          "midi": 55,
          "name": "G3",
          "ticks": 31992,
          "time": 108.080973,
          "velocity": 0.2283464566929134
        },
        {
          "duration": 0.040540500000005864,
          "durationTicks": 12,
          "midi": 63,
          "name": "D#4",
          "ticks": 31992,
          "time": 108.080973,
          "velocity": 0.2283464566929134
        },
        {
          "duration": 0.040540500000005864,
          "durationTicks": 12,
          "midi": 61,
          "name": "C#4",
          "ticks": 32016,
          "time": 108.162054,
          "velocity": 0.2677165354330709
        },
        {
          "duration": 0.040540500000005864,
          "durationTicks": 12,
          "midi": 58,
          "name": "A#3",
          "ticks": 32016,
          "time": 108.162054,
          "velocity": 0.2677165354330709
        },
        {
          "duration": 0.040540500000005864,
          "durationTicks": 12,
          "midi": 55,
          "name": "G3",
          "ticks": 32016,
          "time": 108.162054,
          "velocity": 0.2677165354330709
        },
        {
          "duration": 0.040540500000005864,
          "durationTicks": 12,
          "midi": 63,
          "name": "D#4",
          "ticks": 32016,
          "time": 108.162054,
          "velocity": 0.2677165354330709
        },
        {
          "duration": 0.040540500000005864,
          "durationTicks": 12,
          "midi": 61,
          "name": "C#4",
          "ticks": 32040,
          "time": 108.243135,
          "velocity": 0.30708661417322836
        },
        {
          "duration": 0.040540500000005864,
          "durationTicks": 12,
          "midi": 58,
          "name": "A#3",
          "ticks": 32040,
          "time": 108.243135,
          "velocity": 0.30708661417322836
        },
        {
          "duration": 0.040540500000005864,
          "durationTicks": 12,
          "midi": 55,
          "name": "G3",
          "ticks": 32040,
          "time": 108.243135,
          "velocity": 0.30708661417322836
        },
        {
          "duration": 0.040540500000005864,
          "durationTicks": 12,
          "midi": 63,
          "name": "D#4",
          "ticks": 32040,
          "time": 108.243135,
          "velocity": 0.30708661417322836
        },
        {
          "duration": 0.04054049999999165,
          "durationTicks": 12,
          "midi": 63,
          "name": "D#4",
          "ticks": 32064,
          "time": 108.324216,
          "velocity": 0.33858267716535434
        },
        {
          "duration": 0.04054049999999165,
          "durationTicks": 12,
          "midi": 55,
          "name": "G3",
          "ticks": 32064,
          "time": 108.324216,
          "velocity": 0.33858267716535434
        },
        {
          "duration": 0.04054049999999165,
          "durationTicks": 12,
          "midi": 58,
          "name": "A#3",
          "ticks": 32064,
          "time": 108.324216,
          "velocity": 0.33858267716535434
        },
        {
          "duration": 0.04054049999999165,
          "durationTicks": 12,
          "midi": 61,
          "name": "C#4",
          "ticks": 32064,
          "time": 108.324216,
          "velocity": 0.33858267716535434
        },
        {
          "duration": 0.04054049999999165,
          "durationTicks": 12,
          "midi": 63,
          "name": "D#4",
          "ticks": 32088,
          "time": 108.405297,
          "velocity": 0.3779527559055118
        },
        {
          "duration": 0.04054049999999165,
          "durationTicks": 12,
          "midi": 55,
          "name": "G3",
          "ticks": 32088,
          "time": 108.405297,
          "velocity": 0.3779527559055118
        },
        {
          "duration": 0.04054049999999165,
          "durationTicks": 12,
          "midi": 58,
          "name": "A#3",
          "ticks": 32088,
          "time": 108.405297,
          "velocity": 0.3779527559055118
        },
        {
          "duration": 0.04054049999999165,
          "durationTicks": 12,
          "midi": 61,
          "name": "C#4",
          "ticks": 32088,
          "time": 108.405297,
          "velocity": 0.3779527559055118
        },
        {
          "duration": 0.04054049999999165,
          "durationTicks": 12,
          "midi": 63,
          "name": "D#4",
          "ticks": 32112,
          "time": 108.486378,
          "velocity": 0.41732283464566927
        },
        {
          "duration": 0.04054049999999165,
          "durationTicks": 12,
          "midi": 55,
          "name": "G3",
          "ticks": 32112,
          "time": 108.486378,
          "velocity": 0.41732283464566927
        },
        {
          "duration": 0.04054049999999165,
          "durationTicks": 12,
          "midi": 58,
          "name": "A#3",
          "ticks": 32112,
          "time": 108.486378,
          "velocity": 0.41732283464566927
        },
        {
          "duration": 0.04054049999999165,
          "durationTicks": 12,
          "midi": 61,
          "name": "C#4",
          "ticks": 32112,
          "time": 108.486378,
          "velocity": 0.41732283464566927
        },
        {
          "duration": 0.040540500000005864,
          "durationTicks": 12,
          "midi": 61,
          "name": "C#4",
          "ticks": 32136,
          "time": 108.567459,
          "velocity": 0.44881889763779526
        },
        {
          "duration": 0.040540500000005864,
          "durationTicks": 12,
          "midi": 58,
          "name": "A#3",
          "ticks": 32136,
          "time": 108.567459,
          "velocity": 0.44881889763779526
        },
        {
          "duration": 0.040540500000005864,
          "durationTicks": 12,
          "midi": 55,
          "name": "G3",
          "ticks": 32136,
          "time": 108.567459,
          "velocity": 0.44881889763779526
        },
        {
          "duration": 0.040540500000005864,
          "durationTicks": 12,
          "midi": 63,
          "name": "D#4",
          "ticks": 32136,
          "time": 108.567459,
          "velocity": 0.44881889763779526
        },
        {
          "duration": 0.040540500000005864,
          "durationTicks": 12,
          "midi": 61,
          "name": "C#4",
          "ticks": 32160,
          "time": 108.64854,
          "velocity": 0.4881889763779528
        },
        {
          "duration": 0.040540500000005864,
          "durationTicks": 12,
          "midi": 58,
          "name": "A#3",
          "ticks": 32160,
          "time": 108.64854,
          "velocity": 0.4881889763779528
        },
        {
          "duration": 0.040540500000005864,
          "durationTicks": 12,
          "midi": 55,
          "name": "G3",
          "ticks": 32160,
          "time": 108.64854,
          "velocity": 0.4881889763779528
        },
        {
          "duration": 0.040540500000005864,
          "durationTicks": 12,
          "midi": 63,
          "name": "D#4",
          "ticks": 32160,
          "time": 108.64854,
          "velocity": 0.4881889763779528
        },
        {
          "duration": 0.040540500000005864,
          "durationTicks": 12,
          "midi": 61,
          "name": "C#4",
          "ticks": 32184,
          "time": 108.729621,
          "velocity": 0.5275590551181102
        },
        {
          "duration": 0.040540500000005864,
          "durationTicks": 12,
          "midi": 58,
          "name": "A#3",
          "ticks": 32184,
          "time": 108.729621,
          "velocity": 0.5275590551181102
        },
        {
          "duration": 0.040540500000005864,
          "durationTicks": 12,
          "midi": 55,
          "name": "G3",
          "ticks": 32184,
          "time": 108.729621,
          "velocity": 0.5275590551181102
        },
        {
          "duration": 0.040540500000005864,
          "durationTicks": 12,
          "midi": 63,
          "name": "D#4",
          "ticks": 32184,
          "time": 108.729621,
          "velocity": 0.5275590551181102
        },
        {
          "duration": 0.04054049999999165,
          "durationTicks": 12,
          "midi": 61,
          "name": "C#4",
          "ticks": 32208,
          "time": 108.810702,
          "velocity": 0.5669291338582677
        },
        {
          "duration": 0.04054049999999165,
          "durationTicks": 12,
          "midi": 58,
          "name": "A#3",
          "ticks": 32208,
          "time": 108.810702,
          "velocity": 0.5669291338582677
        },
        {
          "duration": 0.04054049999999165,
          "durationTicks": 12,
          "midi": 55,
          "name": "G3",
          "ticks": 32208,
          "time": 108.810702,
          "velocity": 0.5669291338582677
        },
        {
          "duration": 0.04054049999999165,
          "durationTicks": 12,
          "midi": 63,
          "name": "D#4",
          "ticks": 32208,
          "time": 108.810702,
          "velocity": 0.5669291338582677
        },
        {
          "duration": 0.04054049999999165,
          "durationTicks": 12,
          "midi": 61,
          "name": "C#4",
          "ticks": 32232,
          "time": 108.891783,
          "velocity": 0.6062992125984252
        },
        {
          "duration": 0.04054049999999165,
          "durationTicks": 12,
          "midi": 58,
          "name": "A#3",
          "ticks": 32232,
          "time": 108.891783,
          "velocity": 0.6062992125984252
        },
        {
          "duration": 0.04054049999999165,
          "durationTicks": 12,
          "midi": 55,
          "name": "G3",
          "ticks": 32232,
          "time": 108.891783,
          "velocity": 0.6062992125984252
        },
        {
          "duration": 0.04054049999999165,
          "durationTicks": 12,
          "midi": 63,
          "name": "D#4",
          "ticks": 32232,
          "time": 108.891783,
          "velocity": 0.6062992125984252
        },
        {
          "duration": 1.297296000000003,
          "durationTicks": 384,
          "midi": 65,
          "name": "F4",
          "ticks": 32256,
          "time": 108.972864,
          "velocity": 0.6062992125984252
        },
        {
          "duration": 1.297296000000003,
          "durationTicks": 384,
          "midi": 61,
          "name": "C#4",
          "ticks": 32256,
          "time": 108.972864,
          "velocity": 0.6062992125984252
        },
        {
          "duration": 1.297296000000003,
          "durationTicks": 384,
          "midi": 58,
          "name": "A#3",
          "ticks": 32256,
          "time": 108.972864,
          "velocity": 0.6062992125984252
        },
        {
          "duration": 1.297296000000003,
          "durationTicks": 384,
          "midi": 54,
          "name": "F#3",
          "ticks": 32256,
          "time": 108.972864,
          "velocity": 0.6062992125984252
        },
        {
          "duration": 1.297296000000003,
          "durationTicks": 384,
          "midi": 53,
          "name": "F3",
          "ticks": 32640,
          "time": 110.27016,
          "velocity": 0.6062992125984252
        },
        {
          "duration": 1.297296000000003,
          "durationTicks": 384,
          "midi": 60,
          "name": "C4",
          "ticks": 32640,
          "time": 110.27016,
          "velocity": 0.6062992125984252
        },
        {
          "duration": 1.297296000000003,
          "durationTicks": 384,
          "midi": 63,
          "name": "D#4",
          "ticks": 32640,
          "time": 110.27016,
          "velocity": 0.6062992125984252
        },
        {
          "duration": 1.297296000000003,
          "durationTicks": 384,
          "midi": 57,
          "name": "A3",
          "ticks": 32640,
          "time": 110.27016,
          "velocity": 0.6062992125984252
        },
        {
          "duration": 1.2972959999999887,
          "durationTicks": 384,
          "midi": 56,
          "name": "G#3",
          "ticks": 33024,
          "time": 111.567456,
          "velocity": 0.6062992125984252
        },
        {
          "duration": 1.2972959999999887,
          "durationTicks": 384,
          "midi": 65,
          "name": "F4",
          "ticks": 33024,
          "time": 111.567456,
          "velocity": 0.6062992125984252
        },
        {
          "duration": 1.2972959999999887,
          "durationTicks": 384,
          "midi": 61,
          "name": "C#4",
          "ticks": 33024,
          "time": 111.567456,
          "velocity": 0.6062992125984252
        },
        {
          "duration": 1.2972959999999887,
          "durationTicks": 384,
          "midi": 58,
          "name": "A#3",
          "ticks": 33024,
          "time": 111.567456,
          "velocity": 0.6062992125984252
        },
        {
          "duration": 0.6486480000000086,
          "durationTicks": 192,
          "midi": 56,
          "name": "G#3",
          "ticks": 33408,
          "time": 112.864752,
          "velocity": 0.6062992125984252
        },
        {
          "duration": 0.6486480000000086,
          "durationTicks": 192,
          "midi": 60,
          "name": "C4",
          "ticks": 33408,
          "time": 112.864752,
          "velocity": 0.6062992125984252
        },
        {
          "duration": 0.6486480000000086,
          "durationTicks": 192,
          "midi": 63,
          "name": "D#4",
          "ticks": 33408,
          "time": 112.864752,
          "velocity": 0.6062992125984252
        },
        {
          "duration": 0.6486480000000086,
          "durationTicks": 192,
          "midi": 66,
          "name": "F#4",
          "ticks": 33408,
          "time": 112.864752,
          "velocity": 0.6062992125984252
        },
        {
          "duration": 0.6486479999999943,
          "durationTicks": 192,
          "midi": 61,
          "name": "C#4",
          "ticks": 33600,
          "time": 113.5134,
          "velocity": 0.6062992125984252
        },
        {
          "duration": 0.6486479999999943,
          "durationTicks": 192,
          "midi": 65,
          "name": "F4",
          "ticks": 33600,
          "time": 113.5134,
          "velocity": 0.6062992125984252
        },
        {
          "duration": 0.6486479999999943,
          "durationTicks": 192,
          "midi": 56,
          "name": "G#3",
          "ticks": 33600,
          "time": 113.5134,
          "velocity": 0.6062992125984252
        },
        {
          "duration": 1.297296000000003,
          "durationTicks": 384,
          "midi": 65,
          "name": "F4",
          "ticks": 33792,
          "time": 114.162048,
          "velocity": 0.6062992125984252
        },
        {
          "duration": 1.297296000000003,
          "durationTicks": 384,
          "midi": 61,
          "name": "C#4",
          "ticks": 33792,
          "time": 114.162048,
          "velocity": 0.6062992125984252
        },
        {
          "duration": 1.297296000000003,
          "durationTicks": 384,
          "midi": 58,
          "name": "A#3",
          "ticks": 33792,
          "time": 114.162048,
          "velocity": 0.6062992125984252
        },
        {
          "duration": 1.297296000000003,
          "durationTicks": 384,
          "midi": 54,
          "name": "F#3",
          "ticks": 33792,
          "time": 114.162048,
          "velocity": 0.6062992125984252
        },
        {
          "duration": 1.297296000000003,
          "durationTicks": 384,
          "midi": 57,
          "name": "A3",
          "ticks": 34176,
          "time": 115.459344,
          "velocity": 0.6062992125984252
        },
        {
          "duration": 1.297296000000003,
          "durationTicks": 384,
          "midi": 53,
          "name": "F3",
          "ticks": 34176,
          "time": 115.459344,
          "velocity": 0.6062992125984252
        },
        {
          "duration": 1.297296000000003,
          "durationTicks": 384,
          "midi": 60,
          "name": "C4",
          "ticks": 34176,
          "time": 115.459344,
          "velocity": 0.6062992125984252
        },
        {
          "duration": 1.297296000000003,
          "durationTicks": 384,
          "midi": 63,
          "name": "D#4",
          "ticks": 34176,
          "time": 115.459344,
          "velocity": 0.6062992125984252
        },
        {
          "duration": 1.297296000000003,
          "durationTicks": 384,
          "midi": 58,
          "name": "A#3",
          "ticks": 34560,
          "time": 116.75664,
          "velocity": 0.6062992125984252
        },
        {
          "duration": 1.297296000000003,
          "durationTicks": 384,
          "midi": 61,
          "name": "C#4",
          "ticks": 34560,
          "time": 116.75664,
          "velocity": 0.6062992125984252
        },
        {
          "duration": 1.297296000000003,
          "durationTicks": 384,
          "midi": 65,
          "name": "F4",
          "ticks": 34560,
          "time": 116.75664,
          "velocity": 0.6062992125984252
        },
        {
          "duration": 1.297296000000003,
          "durationTicks": 384,
          "midi": 56,
          "name": "G#3",
          "ticks": 34560,
          "time": 116.75664,
          "velocity": 0.6062992125984252
        },
        {
          "duration": 0.32432399999999006,
          "durationTicks": 96,
          "midi": 56,
          "name": "G#3",
          "ticks": 34944,
          "time": 118.05393600000001,
          "velocity": 0.6062992125984252
        },
        {
          "duration": 0.32432399999999006,
          "durationTicks": 96,
          "midi": 65,
          "name": "F4",
          "ticks": 34944,
          "time": 118.05393600000001,
          "velocity": 0.6062992125984252
        },
        {
          "duration": 0.32432399999999006,
          "durationTicks": 96,
          "midi": 61,
          "name": "C#4",
          "ticks": 34944,
          "time": 118.05393600000001,
          "velocity": 0.6062992125984252
        },
        {
          "duration": 0.32432399999999006,
          "durationTicks": 96,
          "midi": 58,
          "name": "A#3",
          "ticks": 34944,
          "time": 118.05393600000001,
          "velocity": 0.6062992125984252
        },
        {
          "duration": 0.3243240000000043,
          "durationTicks": 96,
          "midi": 55,
          "name": "G3",
          "ticks": 35040,
          "time": 118.37826,
          "velocity": 0.6062992125984252
        },
        {
          "duration": 0.3243240000000043,
          "durationTicks": 96,
          "midi": 64,
          "name": "E4",
          "ticks": 35040,
          "time": 118.37826,
          "velocity": 0.6062992125984252
        },
        {
          "duration": 0.3243240000000043,
          "durationTicks": 96,
          "midi": 60,
          "name": "C4",
          "ticks": 35040,
          "time": 118.37826,
          "velocity": 0.6062992125984252
        },
        {
          "duration": 0.3243240000000043,
          "durationTicks": 96,
          "midi": 57,
          "name": "A3",
          "ticks": 35040,
          "time": 118.37826,
          "velocity": 0.6062992125984252
        },
        {
          "duration": 0.3243240000000043,
          "durationTicks": 96,
          "midi": 54,
          "name": "F#3",
          "ticks": 35136,
          "time": 118.702584,
          "velocity": 0.6062992125984252
        },
        {
          "duration": 0.3243240000000043,
          "durationTicks": 96,
          "midi": 63,
          "name": "D#4",
          "ticks": 35136,
          "time": 118.702584,
          "velocity": 0.6062992125984252
        },
        {
          "duration": 0.3243240000000043,
          "durationTicks": 96,
          "midi": 59,
          "name": "B3",
          "ticks": 35136,
          "time": 118.702584,
          "velocity": 0.6062992125984252
        },
        {
          "duration": 0.3243240000000043,
          "durationTicks": 96,
          "midi": 56,
          "name": "G#3",
          "ticks": 35136,
          "time": 118.702584,
          "velocity": 0.6062992125984252
        },
        {
          "duration": 0.32432399999999006,
          "durationTicks": 96,
          "midi": 53,
          "name": "F3",
          "ticks": 35232,
          "time": 119.026908,
          "velocity": 0.6062992125984252
        },
        {
          "duration": 0.32432399999999006,
          "durationTicks": 96,
          "midi": 62,
          "name": "D4",
          "ticks": 35232,
          "time": 119.026908,
          "velocity": 0.6062992125984252
        },
        {
          "duration": 0.32432399999999006,
          "durationTicks": 96,
          "midi": 58,
          "name": "A#3",
          "ticks": 35232,
          "time": 119.026908,
          "velocity": 0.6062992125984252
        },
        {
          "duration": 0.32432399999999006,
          "durationTicks": 96,
          "midi": 55,
          "name": "G3",
          "ticks": 35232,
          "time": 119.026908,
          "velocity": 0.6062992125984252
        },
        {
          "duration": 1.297296000000003,
          "durationTicks": 384,
          "midi": 59,
          "name": "B3",
          "ticks": 36096,
          "time": 121.945824,
          "velocity": 0.6062992125984252
        },
        {
          "duration": 1.297296000000003,
          "durationTicks": 384,
          "midi": 62,
          "name": "D4",
          "ticks": 36096,
          "time": 121.945824,
          "velocity": 0.6062992125984252
        },
        {
          "duration": 1.297296000000003,
          "durationTicks": 384,
          "midi": 66,
          "name": "F#4",
          "ticks": 36096,
          "time": 121.945824,
          "velocity": 0.6062992125984252
        },
        {
          "duration": 1.297296000000003,
          "durationTicks": 384,
          "midi": 57,
          "name": "A3",
          "ticks": 36096,
          "time": 121.945824,
          "velocity": 0.6062992125984252
        },
        {
          "duration": 0.6486479999999943,
          "durationTicks": 192,
          "midi": 67,
          "name": "G4",
          "ticks": 36480,
          "time": 123.24312,
          "velocity": 0.6062992125984252
        },
        {
          "duration": 0.6486479999999943,
          "durationTicks": 192,
          "midi": 64,
          "name": "E4",
          "ticks": 36480,
          "time": 123.24312,
          "velocity": 0.6062992125984252
        },
        {
          "duration": 0.6486479999999943,
          "durationTicks": 192,
          "midi": 61,
          "name": "C#4",
          "ticks": 36480,
          "time": 123.24312,
          "velocity": 0.6062992125984252
        },
        {
          "duration": 0.6486479999999943,
          "durationTicks": 192,
          "midi": 57,
          "name": "A3",
          "ticks": 36480,
          "time": 123.24312,
          "velocity": 0.6062992125984252
        },
        {
          "duration": 0.6486479999999943,
          "durationTicks": 192,
          "midi": 62,
          "name": "D4",
          "ticks": 36672,
          "time": 123.891768,
          "velocity": 0.6062992125984252
        },
        {
          "duration": 0.6486479999999943,
          "durationTicks": 192,
          "midi": 66,
          "name": "F#4",
          "ticks": 36672,
          "time": 123.891768,
          "velocity": 0.6062992125984252
        },
        {
          "duration": 0.6486479999999943,
          "durationTicks": 192,
          "midi": 57,
          "name": "A3",
          "ticks": 36672,
          "time": 123.891768,
          "velocity": 0.6062992125984252
        },
        {
          "duration": 1.297296000000003,
          "durationTicks": 384,
          "midi": 55,
          "name": "G3",
          "ticks": 36864,
          "time": 124.540416,
          "velocity": 0.6062992125984252
        },
        {
          "duration": 1.297296000000003,
          "durationTicks": 384,
          "midi": 59,
          "name": "B3",
          "ticks": 36864,
          "time": 124.540416,
          "velocity": 0.6062992125984252
        },
        {
          "duration": 1.297296000000003,
          "durationTicks": 384,
          "midi": 62,
          "name": "D4",
          "ticks": 36864,
          "time": 124.540416,
          "velocity": 0.6062992125984252
        },
        {
          "duration": 1.297296000000003,
          "durationTicks": 384,
          "midi": 66,
          "name": "F#4",
          "ticks": 36864,
          "time": 124.540416,
          "velocity": 0.6062992125984252
        },
        {
          "duration": 1.297296000000003,
          "durationTicks": 384,
          "midi": 58,
          "name": "A#3",
          "ticks": 37248,
          "time": 125.837712,
          "velocity": 0.6062992125984252
        },
        {
          "duration": 1.297296000000003,
          "durationTicks": 384,
          "midi": 54,
          "name": "F#3",
          "ticks": 37248,
          "time": 125.837712,
          "velocity": 0.6062992125984252
        },
        {
          "duration": 1.297296000000003,
          "durationTicks": 384,
          "midi": 61,
          "name": "C#4",
          "ticks": 37248,
          "time": 125.837712,
          "velocity": 0.6062992125984252
        },
        {
          "duration": 1.297296000000003,
          "durationTicks": 384,
          "midi": 64,
          "name": "E4",
          "ticks": 37248,
          "time": 125.837712,
          "velocity": 0.6062992125984252
        },
        {
          "duration": 1.2972959999999887,
          "durationTicks": 384,
          "midi": 59,
          "name": "B3",
          "ticks": 37632,
          "time": 127.135008,
          "velocity": 0.6062992125984252
        },
        {
          "duration": 1.2972959999999887,
          "durationTicks": 384,
          "midi": 62,
          "name": "D4",
          "ticks": 37632,
          "time": 127.135008,
          "velocity": 0.6062992125984252
        },
        {
          "duration": 1.2972959999999887,
          "durationTicks": 384,
          "midi": 66,
          "name": "F#4",
          "ticks": 37632,
          "time": 127.135008,
          "velocity": 0.6062992125984252
        },
        {
          "duration": 1.2972959999999887,
          "durationTicks": 384,
          "midi": 57,
          "name": "A3",
          "ticks": 37632,
          "time": 127.135008,
          "velocity": 0.6062992125984252
        },
        {
          "duration": 1.297296000000017,
          "durationTicks": 384,
          "midi": 62,
          "name": "D4",
          "ticks": 38016,
          "time": 128.432304,
          "velocity": 0.6062992125984252
        },
        {
          "duration": 1.297296000000017,
          "durationTicks": 384,
          "midi": 59,
          "name": "B3",
          "ticks": 38016,
          "time": 128.432304,
          "velocity": 0.6062992125984252
        },
        {
          "duration": 1.297296000000017,
          "durationTicks": 384,
          "midi": 56,
          "name": "G#3",
          "ticks": 38016,
          "time": 128.432304,
          "velocity": 0.6062992125984252
        },
        {
          "duration": 1.297296000000017,
          "durationTicks": 384,
          "midi": 64,
          "name": "E4",
          "ticks": 38016,
          "time": 128.432304,
          "velocity": 0.6062992125984252
        },
        {
          "duration": 1.2972959999999887,
          "durationTicks": 384,
          "midi": 66,
          "name": "F#4",
          "ticks": 38400,
          "time": 129.7296,
          "velocity": 0.6062992125984252
        },
        {
          "duration": 1.2972959999999887,
          "durationTicks": 384,
          "midi": 62,
          "name": "D4",
          "ticks": 38400,
          "time": 129.7296,
          "velocity": 0.6062992125984252
        },
        {
          "duration": 1.2972959999999887,
          "durationTicks": 384,
          "midi": 59,
          "name": "B3",
          "ticks": 38400,
          "time": 129.7296,
          "velocity": 0.6062992125984252
        },
        {
          "duration": 1.2972959999999887,
          "durationTicks": 384,
          "midi": 55,
          "name": "G3",
          "ticks": 38400,
          "time": 129.7296,
          "velocity": 0.6062992125984252
        },
        {
          "duration": 1.297296000000017,
          "durationTicks": 384,
          "midi": 54,
          "name": "F#3",
          "ticks": 38784,
          "time": 131.026896,
          "velocity": 0.6062992125984252
        },
        {
          "duration": 1.297296000000017,
          "durationTicks": 384,
          "midi": 61,
          "name": "C#4",
          "ticks": 38784,
          "time": 131.026896,
          "velocity": 0.6062992125984252
        },
        {
          "duration": 1.297296000000017,
          "durationTicks": 384,
          "midi": 64,
          "name": "E4",
          "ticks": 38784,
          "time": 131.026896,
          "velocity": 0.6062992125984252
        },
        {
          "duration": 1.297296000000017,
          "durationTicks": 384,
          "midi": 58,
          "name": "A#3",
          "ticks": 38784,
          "time": 131.026896,
          "velocity": 0.6062992125984252
        },
        {
          "duration": 1.2972959999999887,
          "durationTicks": 384,
          "midi": 57,
          "name": "A3",
          "ticks": 39168,
          "time": 132.324192,
          "velocity": 0.6062992125984252
        },
        {
          "duration": 1.2972959999999887,
          "durationTicks": 384,
          "midi": 66,
          "name": "F#4",
          "ticks": 39168,
          "time": 132.324192,
          "velocity": 0.6062992125984252
        },
        {
          "duration": 1.2972959999999887,
          "durationTicks": 384,
          "midi": 62,
          "name": "D4",
          "ticks": 39168,
          "time": 132.324192,
          "velocity": 0.6062992125984252
        },
        {
          "duration": 1.2972959999999887,
          "durationTicks": 384,
          "midi": 59,
          "name": "B3",
          "ticks": 39168,
          "time": 132.324192,
          "velocity": 0.6062992125984252
        },
        {
          "duration": 0.6486480000000086,
          "durationTicks": 192,
          "midi": 57,
          "name": "A3",
          "ticks": 39552,
          "time": 133.621488,
          "velocity": 0.6062992125984252
        },
        {
          "duration": 0.6486480000000086,
          "durationTicks": 192,
          "midi": 61,
          "name": "C#4",
          "ticks": 39552,
          "time": 133.621488,
          "velocity": 0.6062992125984252
        },
        {
          "duration": 0.6486480000000086,
          "durationTicks": 192,
          "midi": 64,
          "name": "E4",
          "ticks": 39552,
          "time": 133.621488,
          "velocity": 0.6062992125984252
        },
        {
          "duration": 0.6486480000000086,
          "durationTicks": 192,
          "midi": 67,
          "name": "G4",
          "ticks": 39552,
          "time": 133.621488,
          "velocity": 0.6062992125984252
        },
        {
          "duration": 0.6486479999999801,
          "durationTicks": 192,
          "midi": 62,
          "name": "D4",
          "ticks": 39744,
          "time": 134.270136,
          "velocity": 0.6062992125984252
        },
        {
          "duration": 0.6486479999999801,
          "durationTicks": 192,
          "midi": 66,
          "name": "F#4",
          "ticks": 39744,
          "time": 134.270136,
          "velocity": 0.6062992125984252
        },
        {
          "duration": 0.6486479999999801,
          "durationTicks": 192,
          "midi": 57,
          "name": "A3",
          "ticks": 39744,
          "time": 134.270136,
          "velocity": 0.6062992125984252
        },
        {
          "duration": 1.297296000000017,
          "durationTicks": 384,
          "midi": 55,
          "name": "G3",
          "ticks": 39936,
          "time": 134.918784,
          "velocity": 0.6062992125984252
        },
        {
          "duration": 1.297296000000017,
          "durationTicks": 384,
          "midi": 59,
          "name": "B3",
          "ticks": 39936,
          "time": 134.918784,
          "velocity": 0.6062992125984252
        },
        {
          "duration": 1.297296000000017,
          "durationTicks": 384,
          "midi": 62,
          "name": "D4",
          "ticks": 39936,
          "time": 134.918784,
          "velocity": 0.6062992125984252
        },
        {
          "duration": 1.297296000000017,
          "durationTicks": 384,
          "midi": 66,
          "name": "F#4",
          "ticks": 39936,
          "time": 134.918784,
          "velocity": 0.6062992125984252
        },
        {
          "duration": 1.2972959999999887,
          "durationTicks": 384,
          "midi": 64,
          "name": "E4",
          "ticks": 40320,
          "time": 136.21608,
          "velocity": 0.6062992125984252
        },
        {
          "duration": 1.2972959999999887,
          "durationTicks": 384,
          "midi": 61,
          "name": "C#4",
          "ticks": 40320,
          "time": 136.21608,
          "velocity": 0.6062992125984252
        },
        {
          "duration": 1.2972959999999887,
          "durationTicks": 384,
          "midi": 54,
          "name": "F#3",
          "ticks": 40320,
          "time": 136.21608,
          "velocity": 0.6062992125984252
        },
        {
          "duration": 1.2972959999999887,
          "durationTicks": 384,
          "midi": 58,
          "name": "A#3",
          "ticks": 40320,
          "time": 136.21608,
          "velocity": 0.6062992125984252
        },
        {
          "duration": 1.297296000000017,
          "durationTicks": 384,
          "midi": 57,
          "name": "A3",
          "ticks": 40704,
          "time": 137.513376,
          "velocity": 0.6062992125984252
        },
        {
          "duration": 1.297296000000017,
          "durationTicks": 384,
          "midi": 66,
          "name": "F#4",
          "ticks": 40704,
          "time": 137.513376,
          "velocity": 0.6062992125984252
        },
        {
          "duration": 1.297296000000017,
          "durationTicks": 384,
          "midi": 62,
          "name": "D4",
          "ticks": 40704,
          "time": 137.513376,
          "velocity": 0.6062992125984252
        },
        {
          "duration": 1.297296000000017,
          "durationTicks": 384,
          "midi": 59,
          "name": "B3",
          "ticks": 40704,
          "time": 137.513376,
          "velocity": 0.6062992125984252
        },
        {
          "duration": 0.32432399999999006,
          "durationTicks": 96,
          "midi": 57,
          "name": "A3",
          "ticks": 41088,
          "time": 138.810672,
          "velocity": 0.6062992125984252
        },
        {
          "duration": 0.32432399999999006,
          "durationTicks": 96,
          "midi": 66,
          "name": "F#4",
          "ticks": 41088,
          "time": 138.810672,
          "velocity": 0.6062992125984252
        },
        {
          "duration": 0.32432399999999006,
          "durationTicks": 96,
          "midi": 62,
          "name": "D4",
          "ticks": 41088,
          "time": 138.810672,
          "velocity": 0.6062992125984252
        },
        {
          "duration": 0.32432399999999006,
          "durationTicks": 96,
          "midi": 59,
          "name": "B3",
          "ticks": 41088,
          "time": 138.810672,
          "velocity": 0.6062992125984252
        },
        {
          "duration": 0.32432399999999006,
          "durationTicks": 96,
          "midi": 56,
          "name": "G#3",
          "ticks": 41184,
          "time": 139.134996,
          "velocity": 0.6062992125984252
        },
        {
          "duration": 0.32432399999999006,
          "durationTicks": 96,
          "midi": 65,
          "name": "F4",
          "ticks": 41184,
          "time": 139.134996,
          "velocity": 0.6062992125984252
        },
        {
          "duration": 0.32432399999999006,
          "durationTicks": 96,
          "midi": 61,
          "name": "C#4",
          "ticks": 41184,
          "time": 139.134996,
          "velocity": 0.6062992125984252
        },
        {
          "duration": 0.32432399999999006,
          "durationTicks": 96,
          "midi": 58,
          "name": "A#3",
          "ticks": 41184,
          "time": 139.134996,
          "velocity": 0.6062992125984252
        },
        {
          "duration": 0.3243240000000185,
          "durationTicks": 96,
          "midi": 55,
          "name": "G3",
          "ticks": 41280,
          "time": 139.45932,
          "velocity": 0.6062992125984252
        },
        {
          "duration": 0.3243240000000185,
          "durationTicks": 96,
          "midi": 64,
          "name": "E4",
          "ticks": 41280,
          "time": 139.45932,
          "velocity": 0.6062992125984252
        },
        {
          "duration": 0.3243240000000185,
          "durationTicks": 96,
          "midi": 60,
          "name": "C4",
          "ticks": 41280,
          "time": 139.45932,
          "velocity": 0.6062992125984252
        },
        {
          "duration": 0.3243240000000185,
          "durationTicks": 96,
          "midi": 57,
          "name": "A3",
          "ticks": 41280,
          "time": 139.45932,
          "velocity": 0.6062992125984252
        },
        {
          "duration": 0.32432399999999006,
          "durationTicks": 96,
          "midi": 54,
          "name": "F#3",
          "ticks": 41376,
          "time": 139.783644,
          "velocity": 0.6062992125984252
        },
        {
          "duration": 0.32432399999999006,
          "durationTicks": 96,
          "midi": 63,
          "name": "D#4",
          "ticks": 41376,
          "time": 139.783644,
          "velocity": 0.6062992125984252
        },
        {
          "duration": 0.32432399999999006,
          "durationTicks": 96,
          "midi": 59,
          "name": "B3",
          "ticks": 41376,
          "time": 139.783644,
          "velocity": 0.6062992125984252
        },
        {
          "duration": 0.32432399999999006,
          "durationTicks": 96,
          "midi": 56,
          "name": "G#3",
          "ticks": 41376,
          "time": 139.783644,
          "velocity": 0.6062992125984252
        },
        {
          "duration": 1.2972959999999887,
          "durationTicks": 384,
          "midi": 55,
          "name": "G3",
          "ticks": 42240,
          "time": 142.70256,
          "velocity": 0.7322834645669292
        },
        {
          "duration": 1.2972959999999887,
          "durationTicks": 384,
          "midi": 59,
          "name": "B3",
          "ticks": 42240,
          "time": 142.70256,
          "velocity": 0.7322834645669292
        },
        {
          "duration": 1.2972959999999887,
          "durationTicks": 384,
          "midi": 62,
          "name": "D4",
          "ticks": 42240,
          "time": 142.70256,
          "velocity": 0.7322834645669292
        },
        {
          "duration": 1.2972959999999887,
          "durationTicks": 384,
          "midi": 66,
          "name": "F#4",
          "ticks": 42240,
          "time": 142.70256,
          "velocity": 0.7322834645669292
        },
        {
          "duration": 1.297296000000017,
          "durationTicks": 384,
          "midi": 54,
          "name": "F#3",
          "ticks": 42624,
          "time": 143.999856,
          "velocity": 0.7322834645669292
        },
        {
          "duration": 1.297296000000017,
          "durationTicks": 384,
          "midi": 58,
          "name": "A#3",
          "ticks": 42624,
          "time": 143.999856,
          "velocity": 0.7322834645669292
        },
        {
          "duration": 1.297296000000017,
          "durationTicks": 384,
          "midi": 61,
          "name": "C#4",
          "ticks": 42624,
          "time": 143.999856,
          "velocity": 0.7322834645669292
        },
        {
          "duration": 1.297296000000017,
          "durationTicks": 384,
          "midi": 64,
          "name": "E4",
          "ticks": 42624,
          "time": 143.999856,
          "velocity": 0.7322834645669292
        },
        {
          "duration": 1.2972959999999887,
          "durationTicks": 384,
          "midi": 57,
          "name": "A3",
          "ticks": 43008,
          "time": 145.297152,
          "velocity": 0.7322834645669292
        },
        {
          "duration": 1.2972959999999887,
          "durationTicks": 384,
          "midi": 66,
          "name": "F#4",
          "ticks": 43008,
          "time": 145.297152,
          "velocity": 0.7322834645669292
        },
        {
          "duration": 1.2972959999999887,
          "durationTicks": 384,
          "midi": 62,
          "name": "D4",
          "ticks": 43008,
          "time": 145.297152,
          "velocity": 0.7322834645669292
        },
        {
          "duration": 1.2972959999999887,
          "durationTicks": 384,
          "midi": 59,
          "name": "B3",
          "ticks": 43008,
          "time": 145.297152,
          "velocity": 0.7322834645669292
        },
        {
          "duration": 0.6486480000000086,
          "durationTicks": 192,
          "midi": 57,
          "name": "A3",
          "ticks": 43392,
          "time": 146.594448,
          "velocity": 0.7322834645669292
        },
        {
          "duration": 0.6486480000000086,
          "durationTicks": 192,
          "midi": 61,
          "name": "C#4",
          "ticks": 43392,
          "time": 146.594448,
          "velocity": 0.7322834645669292
        },
        {
          "duration": 0.6486480000000086,
          "durationTicks": 192,
          "midi": 64,
          "name": "E4",
          "ticks": 43392,
          "time": 146.594448,
          "velocity": 0.7322834645669292
        },
        {
          "duration": 0.6486480000000086,
          "durationTicks": 192,
          "midi": 67,
          "name": "G4",
          "ticks": 43392,
          "time": 146.594448,
          "velocity": 0.7322834645669292
        },
        {
          "duration": 0.6486479999999801,
          "durationTicks": 192,
          "midi": 57,
          "name": "A3",
          "ticks": 43584,
          "time": 147.243096,
          "velocity": 0.7322834645669292
        },
        {
          "duration": 0.6486479999999801,
          "durationTicks": 192,
          "midi": 66,
          "name": "F#4",
          "ticks": 43584,
          "time": 147.243096,
          "velocity": 0.7322834645669292
        },
        {
          "duration": 0.6486479999999801,
          "durationTicks": 192,
          "midi": 62,
          "name": "D4",
          "ticks": 43584,
          "time": 147.243096,
          "velocity": 0.7322834645669292
        },
        {
          "duration": 1.297296000000017,
          "durationTicks": 384,
          "midi": 55,
          "name": "G3",
          "ticks": 43776,
          "time": 147.891744,
          "velocity": 0.7322834645669292
        },
        {
          "duration": 1.297296000000017,
          "durationTicks": 384,
          "midi": 59,
          "name": "B3",
          "ticks": 43776,
          "time": 147.891744,
          "velocity": 0.7322834645669292
        },
        {
          "duration": 1.297296000000017,
          "durationTicks": 384,
          "midi": 62,
          "name": "D4",
          "ticks": 43776,
          "time": 147.891744,
          "velocity": 0.7322834645669292
        },
        {
          "duration": 1.297296000000017,
          "durationTicks": 384,
          "midi": 66,
          "name": "F#4",
          "ticks": 43776,
          "time": 147.891744,
          "velocity": 0.7322834645669292
        },
        {
          "duration": 1.2972959999999887,
          "durationTicks": 384,
          "midi": 54,
          "name": "F#3",
          "ticks": 44160,
          "time": 149.18904,
          "velocity": 0.7322834645669292
        },
        {
          "duration": 1.2972959999999887,
          "durationTicks": 384,
          "midi": 58,
          "name": "A#3",
          "ticks": 44160,
          "time": 149.18904,
          "velocity": 0.7322834645669292
        },
        {
          "duration": 1.2972959999999887,
          "durationTicks": 384,
          "midi": 61,
          "name": "C#4",
          "ticks": 44160,
          "time": 149.18904,
          "velocity": 0.7322834645669292
        },
        {
          "duration": 1.2972959999999887,
          "durationTicks": 384,
          "midi": 64,
          "name": "E4",
          "ticks": 44160,
          "time": 149.18904,
          "velocity": 0.7322834645669292
        },
        {
          "duration": 1.297296000000017,
          "durationTicks": 384,
          "midi": 57,
          "name": "A3",
          "ticks": 44544,
          "time": 150.486336,
          "velocity": 0.7322834645669292
        },
        {
          "duration": 1.297296000000017,
          "durationTicks": 384,
          "midi": 66,
          "name": "F#4",
          "ticks": 44544,
          "time": 150.486336,
          "velocity": 0.7322834645669292
        },
        {
          "duration": 1.297296000000017,
          "durationTicks": 384,
          "midi": 62,
          "name": "D4",
          "ticks": 44544,
          "time": 150.486336,
          "velocity": 0.7322834645669292
        },
        {
          "duration": 1.297296000000017,
          "durationTicks": 384,
          "midi": 59,
          "name": "B3",
          "ticks": 44544,
          "time": 150.486336,
          "velocity": 0.7322834645669292
        },
        {
          "duration": 0.6486479999999801,
          "durationTicks": 192,
          "midi": 57,
          "name": "A3",
          "ticks": 44928,
          "time": 151.783632,
          "velocity": 0.7322834645669292
        },
        {
          "duration": 0.6486479999999801,
          "durationTicks": 192,
          "midi": 61,
          "name": "C#4",
          "ticks": 44928,
          "time": 151.783632,
          "velocity": 0.7322834645669292
        },
        {
          "duration": 0.6486479999999801,
          "durationTicks": 192,
          "midi": 64,
          "name": "E4",
          "ticks": 44928,
          "time": 151.783632,
          "velocity": 0.7322834645669292
        },
        {
          "duration": 0.6486479999999801,
          "durationTicks": 192,
          "midi": 67,
          "name": "G4",
          "ticks": 44928,
          "time": 151.783632,
          "velocity": 0.7322834645669292
        },
        {
          "duration": 0.6486480000000086,
          "durationTicks": 192,
          "midi": 62,
          "name": "D4",
          "ticks": 45120,
          "time": 152.43228,
          "velocity": 0.7322834645669292
        },
        {
          "duration": 0.6486480000000086,
          "durationTicks": 192,
          "midi": 66,
          "name": "F#4",
          "ticks": 45120,
          "time": 152.43228,
          "velocity": 0.7322834645669292
        },
        {
          "duration": 0.6486480000000086,
          "durationTicks": 192,
          "midi": 57,
          "name": "A3",
          "ticks": 45120,
          "time": 152.43228,
          "velocity": 0.7322834645669292
        },
        {
          "duration": 0.6486480000000086,
          "durationTicks": 192,
          "midi": 62,
          "name": "D4",
          "ticks": 45312,
          "time": 153.080928,
          "velocity": 0.7322834645669292
        },
        {
          "duration": 0.6486480000000086,
          "durationTicks": 192,
          "midi": 57,
          "name": "A3",
          "ticks": 45312,
          "time": 153.080928,
          "velocity": 0.7322834645669292
        },
        {
          "duration": 0.6486480000000086,
          "durationTicks": 192,
          "midi": 50,
          "name": "D3",
          "ticks": 45312,
          "time": 153.080928,
          "velocity": 0.7322834645669292
        }
      ],
      "endOfTrackTicks": 46086
    }
  ]
}
