{
  "header": {
    "keySignatures": [],
    "meta": [],
    "name": "",
    "ppq": 96,
    "tempos": [
      {
        "bpm": 180.00018000018,
        "ticks": 0
      }
    ],
    "timeSignatures": [
      {
        "ticks": 0,
        "timeSignature": [
          4,
          4
        ],
        "measures": 0
      }
    ]
  },
  "tracks": [
    {
      "channel": 0,
      "controlChanges": {},
      "pitchBends": [],
      "instrument": {
        "family": "piano",
        "number": 0,
        "name": "acoustic grand piano"
      },
      "name": "",
      "notes": [],
      "endOfTrackTicks": 0
    },
    {
      "channel": 0,
      "controlChanges": {
        "6": [
          {
            "number": 6,
            "ticks": 0,
            "time": 0,
            "value": 0.09448818897637795
          },
          {
            "number": 6,
            "ticks": 0,
            "time": 0,
            "value": 0.09448818897637795
          },
          {
            "number": 6,
            "ticks": 0,
            "time": 0,
            "value": 0.09448818897637795
          },
          {
            "number": 6,
            "ticks": 45696,
            "time": 158.666508,
            "value": 0.09448818897637795
          },
          {
            "number": 6,
            "ticks": 45698,
            "time": 158.67345243749998,
            "value": 0.09448818897637795
          }
        ],
        "7": [
          {
            "number": 7,
            "ticks": 0,
            "time": 0,
            "value": 0.7874015748031497
          },
          {
            "number": 7,
            "ticks": 0,
            "time": 0,
            "value": 0.7874015748031497
          },
          {
            "number": 7,
            "ticks": 0,
            "time": 0,
            "value": 0.7874015748031497
          },
          {
            "number": 7,
            "ticks": 0,
            "time": 0,
            "value": 0.7874015748031497
          },
          {
            "number": 7,
            "ticks": 45696,
            "time": 158.666508,
            "value": 0.7874015748031497
          },
          {
            "number": 7,
            "ticks": 45698,
            "time": 158.67345243749998,
            "value": 0.7874015748031497
          }
        ],
        "10": [
          {
            "number": 10,
            "ticks": 0,
            "time": 0,
            "value": 0.5039370078740157
          },
          {
            "number": 10,
            "ticks": 0,
            "time": 0,
            "value": 0.5039370078740157
          },
          {
            "number": 10,
            "ticks": 0,
            "time": 0,
            "value": 0.5039370078740157
          },
          {
            "number": 10,
            "ticks": 0,
            "time": 0,
            "value": 0.5039370078740157
          },
          {
            "number": 10,
            "ticks": 45696,
            "time": 158.666508,
            "value": 0.5039370078740157
          },
          {
            "number": 10,
            "ticks": 45698,
            "time": 158.67345243749998,
            "value": 0.5039370078740157
          }
        ],
        "100": [
          {
            "number": 100,
            "ticks": 0,
            "time": 0,
            "value": 0
          },
          {
            "number": 100,
            "ticks": 0,
            "time": 0,
            "value": 0
          },
          {
            "number": 100,
            "ticks": 0,
            "time": 0,
            "value": 0
          },
          {
            "number": 100,
            "ticks": 45696,
            "time": 158.666508,
            "value": 0
          },
          {
            "number": 100,
            "ticks": 45698,
            "time": 158.67345243749998,
            "value": 0
          }
        ],
        "101": [
          {
            "number": 101,
            "ticks": 0,
            "time": 0,
            "value": 0
          },
          {
            "number": 101,
            "ticks": 0,
            "time": 0,
            "value": 0
          },
          {
            "number": 101,
            "ticks": 0,
            "time": 0,
            "value": 0
          },
          {
            "number": 101,
            "ticks": 45696,
            "time": 158.666508,
            "value": 0
          },
          {
            "number": 101,
            "ticks": 45698,
            "time": 158.67345243749998,
            "value": 0
          }
        ]
      },
      "pitchBends": [
        {
          "ticks": 0,
          "time": 0,
          "value": 0
        },
        {
          "ticks": 0,
          "time": 0,
          "value": 0
        },
        {
          "ticks": 0,
          "time": 0,
          "value": 0
        },
        {
          "ticks": 0,
          "time": 0,
          "value": 0
        },
        {
          "ticks": 45696,
          "time": 158.666508,
          "value": 0
        },
        {
          "ticks": 45698,
          "time": 158.67345243749998,
          "value": 0
        }
      ],
      "instrument": {
        "family": "piano",
        "number": 0,
        "name": "acoustic grand piano"
      },
      "name": "Sampler",
      "notes": [],
      "endOfTrackTicks": 45698
    },
    {
      "channel": 1,
      "controlChanges": {
        "6": [
          {
            "number": 6,
            "ticks": 0,
            "time": 0,
            "value": 0.09448818897637795
          },
          {
            "number": 6,
            "ticks": 0,
            "time": 0,
            "value": 0.09448818897637795
          },
          {
            "number": 6,
            "ticks": 0,
            "time": 0,
            "value": 0.09448818897637795
          },
          {
            "number": 6,
            "ticks": 45696,
            "time": 158.666508,
            "value": 0.09448818897637795
          },
          {
            "number": 6,
            "ticks": 45698,
            "time": 158.67345243749998,
            "value": 0.09448818897637795
          }
        ],
        "7": [
          {
            "number": 7,
            "ticks": 0,
            "time": 0,
            "value": 0.7874015748031497
          },
          {
            "number": 7,
            "ticks": 0,
            "time": 0,
            "value": 0.7874015748031497
          },
          {
            "number": 7,
            "ticks": 0,
            "time": 0,
            "value": 0.7874015748031497
          },
          {
            "number": 7,
            "ticks": 0,
            "time": 0,
            "value": 0.7874015748031497
          },
          {
            "number": 7,
            "ticks": 45696,
            "time": 158.666508,
            "value": 0.7874015748031497
          },
          {
            "number": 7,
            "ticks": 45698,
            "time": 158.67345243749998,
            "value": 0.7874015748031497
          }
        ],
        "10": [
          {
            "number": 10,
            "ticks": 0,
            "time": 0,
            "value": 0.5039370078740157
          },
          {
            "number": 10,
            "ticks": 0,
            "time": 0,
            "value": 0.5039370078740157
          },
          {
            "number": 10,
            "ticks": 0,
            "time": 0,
            "value": 0.5039370078740157
          },
          {
            "number": 10,
            "ticks": 0,
            "time": 0,
            "value": 0.5039370078740157
          },
          {
            "number": 10,
            "ticks": 45696,
            "time": 158.666508,
            "value": 0.5039370078740157
          },
          {
            "number": 10,
            "ticks": 45698,
            "time": 158.67345243749998,
            "value": 0.5039370078740157
          }
        ],
        "100": [
          {
            "number": 100,
            "ticks": 0,
            "time": 0,
            "value": 0
          },
          {
            "number": 100,
            "ticks": 0,
            "time": 0,
            "value": 0
          },
          {
            "number": 100,
            "ticks": 0,
            "time": 0,
            "value": 0
          },
          {
            "number": 100,
            "ticks": 45696,
            "time": 158.666508,
            "value": 0
          },
          {
            "number": 100,
            "ticks": 45698,
            "time": 158.67345243749998,
            "value": 0
          }
        ],
        "101": [
          {
            "number": 101,
            "ticks": 0,
            "time": 0,
            "value": 0
          },
          {
            "number": 101,
            "ticks": 0,
            "time": 0,
            "value": 0
          },
          {
            "number": 101,
            "ticks": 0,
            "time": 0,
            "value": 0
          },
          {
            "number": 101,
            "ticks": 45696,
            "time": 158.666508,
            "value": 0
          },
          {
            "number": 101,
            "ticks": 45698,
            "time": 158.67345243749998,
            "value": 0
          }
        ]
      },
      "pitchBends": [
        {
          "ticks": 0,
          "time": 0,
          "value": 0
        },
        {
          "ticks": 0,
          "time": 0,
          "value": 0
        },
        {
          "ticks": 0,
          "time": 0,
          "value": 0
        },
        {
          "ticks": 0,
          "time": 0,
          "value": 0
        },
        {
          "ticks": 45696,
          "time": 158.666508,
          "value": 0
        },
        {
          "ticks": 45698,
          "time": 158.67345243749998,
          "value": 0
        }
      ],
      "instrument": {
        "family": "piano",
        "number": 0,
        "name": "acoustic grand piano"
      },
      "name": "Piano",
      "notes": [
        {
          "duration": 0.6666659999999998,
          "durationTicks": 192,
          "midi": 93,
          "name": "A6",
          "ticks": 960,
          "time": 3.33333,
          "velocity": 0.8110236220472441
        },
        {
          "duration": 0.6666659999999998,
          "durationTicks": 192,
          "midi": 81,
          "name": "A5",
          "ticks": 960,
          "time": 3.33333,
          "velocity": 0.8110236220472441
        },
        {
          "duration": 0.49999949999999993,
          "durationTicks": 144,
          "midi": 79,
          "name": "G5",
          "ticks": 1152,
          "time": 3.999996,
          "velocity": 0.8110236220472441
        },
        {
          "duration": 0.49999949999999993,
          "durationTicks": 144,
          "midi": 91,
          "name": "G6",
          "ticks": 1152,
          "time": 3.999996,
          "velocity": 0.8110236220472441
        },
        {
          "duration": 0.4999995000000004,
          "durationTicks": 144,
          "midi": 77,
          "name": "F5",
          "ticks": 1296,
          "time": 4.4999955,
          "velocity": 0.8110236220472441
        },
        {
          "duration": 0.4999995000000004,
          "durationTicks": 144,
          "midi": 89,
          "name": "F6",
          "ticks": 1296,
          "time": 4.4999955,
          "velocity": 0.8110236220472441
        },
        {
          "duration": 0.16666649999999983,
          "durationTicks": 48,
          "midi": 76,
          "name": "E5",
          "ticks": 1440,
          "time": 4.999995,
          "velocity": 0.8110236220472441
        },
        {
          "duration": 0.16666649999999983,
          "durationTicks": 48,
          "midi": 88,
          "name": "E6",
          "ticks": 1440,
          "time": 4.999995,
          "velocity": 0.8110236220472441
        },
        {
          "duration": 0.16666649999999983,
          "durationTicks": 48,
          "midi": 74,
          "name": "D5",
          "ticks": 1488,
          "time": 5.1666615,
          "velocity": 0.8110236220472441
        },
        {
          "duration": 0.16666649999999983,
          "durationTicks": 48,
          "midi": 86,
          "name": "D6",
          "ticks": 1488,
          "time": 5.1666615,
          "velocity": 0.8110236220472441
        },
        {
          "duration": 0.6666660000000002,
          "durationTicks": 192,
          "midi": 85,
          "name": "C#6",
          "ticks": 1536,
          "time": 5.333328,
          "velocity": 0.8110236220472441
        },
        {
          "duration": 0.6666660000000002,
          "durationTicks": 192,
          "midi": 73,
          "name": "C#5",
          "ticks": 1536,
          "time": 5.333328,
          "velocity": 0.8110236220472441
        },
        {
          "duration": 0.6666659999999993,
          "durationTicks": 192,
          "midi": 93,
          "name": "A6",
          "ticks": 17088,
          "time": 59.333273999999996,
          "velocity": 0.8110236220472441
        },
        {
          "duration": 0.6666659999999993,
          "durationTicks": 192,
          "midi": 81,
          "name": "A5",
          "ticks": 17088,
          "time": 59.333273999999996,
          "velocity": 0.8110236220472441
        },
        {
          "duration": 0.49999950000000126,
          "durationTicks": 144,
          "midi": 79,
          "name": "G5",
          "ticks": 17280,
          "time": 59.999939999999995,
          "velocity": 0.8110236220472441
        },
        {
          "duration": 0.49999950000000126,
          "durationTicks": 144,
          "midi": 91,
          "name": "G6",
          "ticks": 17280,
          "time": 59.999939999999995,
          "velocity": 0.8110236220472441
        },
        {
          "duration": 0.49999950000000126,
          "durationTicks": 144,
          "midi": 77,
          "name": "F5",
          "ticks": 17424,
          "time": 60.499939499999996,
          "velocity": 0.8110236220472441
        },
        {
          "duration": 0.49999950000000126,
          "durationTicks": 144,
          "midi": 89,
          "name": "F6",
          "ticks": 17424,
          "time": 60.499939499999996,
          "velocity": 0.8110236220472441
        },
        {
          "duration": 0.16666649999999805,
          "durationTicks": 48,
          "midi": 88,
          "name": "E6",
          "ticks": 17568,
          "time": 60.999939,
          "velocity": 0.8110236220472441
        },
        {
          "duration": 0.16666649999999805,
          "durationTicks": 48,
          "midi": 76,
          "name": "E5",
          "ticks": 17568,
          "time": 60.999939,
          "velocity": 0.8110236220472441
        },
        {
          "duration": 0.16666650000000516,
          "durationTicks": 48,
          "midi": 86,
          "name": "D6",
          "ticks": 17616,
          "time": 61.166605499999996,
          "velocity": 0.8110236220472441
        },
        {
          "duration": 0.16666650000000516,
          "durationTicks": 48,
          "midi": 74,
          "name": "D5",
          "ticks": 17616,
          "time": 61.166605499999996,
          "velocity": 0.8110236220472441
        },
        {
          "duration": 0.6666659999999993,
          "durationTicks": 192,
          "midi": 85,
          "name": "C#6",
          "ticks": 17664,
          "time": 61.333272,
          "velocity": 0.8110236220472441
        },
        {
          "duration": 0.6666659999999993,
          "durationTicks": 192,
          "midi": 73,
          "name": "C#5",
          "ticks": 17664,
          "time": 61.333272,
          "velocity": 0.8110236220472441
        },
        {
          "duration": 0.6666660000000064,
          "durationTicks": 192,
          "midi": 93,
          "name": "A6",
          "ticks": 18624,
          "time": 64.666602,
          "velocity": 0.8110236220472441
        },
        {
          "duration": 0.6666660000000064,
          "durationTicks": 192,
          "midi": 81,
          "name": "A5",
          "ticks": 18624,
          "time": 64.666602,
          "velocity": 0.8110236220472441
        },
        {
          "duration": 0.49999950000000126,
          "durationTicks": 144,
          "midi": 79,
          "name": "G5",
          "ticks": 18816,
          "time": 65.333268,
          "velocity": 0.8110236220472441
        },
        {
          "duration": 0.49999950000000126,
          "durationTicks": 144,
          "midi": 91,
          "name": "G6",
          "ticks": 18816,
          "time": 65.333268,
          "velocity": 0.8110236220472441
        },
        {
          "duration": 0.49999949999998705,
          "durationTicks": 144,
          "midi": 89,
          "name": "F6",
          "ticks": 18960,
          "time": 65.8332675,
          "velocity": 0.8110236220472441
        },
        {
          "duration": 0.49999949999998705,
          "durationTicks": 144,
          "midi": 77,
          "name": "F5",
          "ticks": 18960,
          "time": 65.8332675,
          "velocity": 0.8110236220472441
        },
        {
          "duration": 0.16666650000000516,
          "durationTicks": 48,
          "midi": 88,
          "name": "E6",
          "ticks": 19104,
          "time": 66.33326699999999,
          "velocity": 0.8110236220472441
        },
        {
          "duration": 0.16666650000000516,
          "durationTicks": 48,
          "midi": 76,
          "name": "E5",
          "ticks": 19104,
          "time": 66.33326699999999,
          "velocity": 0.8110236220472441
        },
        {
          "duration": 0.16666650000000516,
          "durationTicks": 48,
          "midi": 74,
          "name": "D5",
          "ticks": 19152,
          "time": 66.4999335,
          "velocity": 0.8110236220472441
        },
        {
          "duration": 0.16666650000000516,
          "durationTicks": 48,
          "midi": 86,
          "name": "D6",
          "ticks": 19152,
          "time": 66.4999335,
          "velocity": 0.8110236220472441
        },
        {
          "duration": 0.6666659999999922,
          "durationTicks": 192,
          "midi": 85,
          "name": "C#6",
          "ticks": 19200,
          "time": 66.6666,
          "velocity": 0.8110236220472441
        },
        {
          "duration": 0.6666659999999922,
          "durationTicks": 192,
          "midi": 73,
          "name": "C#5",
          "ticks": 19200,
          "time": 66.6666,
          "velocity": 0.8110236220472441
        },
        {
          "duration": 0.16666649999999095,
          "durationTicks": 48,
          "midi": 59,
          "name": "B3",
          "ticks": 23040,
          "time": 79.99992,
          "velocity": 0.8188976377952756
        },
        {
          "duration": 0.16666649999999095,
          "durationTicks": 48,
          "midi": 64,
          "name": "E4",
          "ticks": 23040,
          "time": 79.99992,
          "velocity": 0.7559055118110236
        },
        {
          "duration": 0.16666649999999095,
          "durationTicks": 48,
          "midi": 52,
          "name": "E3",
          "ticks": 23040,
          "time": 79.99992,
          "velocity": 0.7559055118110236
        },
        {
          "duration": 0.16666650000000516,
          "durationTicks": 48,
          "midi": 54,
          "name": "F#3",
          "ticks": 23136,
          "time": 80.333253,
          "velocity": 0.7952755905511811
        },
        {
          "duration": 0.16666650000000516,
          "durationTicks": 48,
          "midi": 66,
          "name": "F#4",
          "ticks": 23136,
          "time": 80.333253,
          "velocity": 0.8031496062992126
        },
        {
          "duration": 0.16666650000000516,
          "durationTicks": 48,
          "midi": 61,
          "name": "C#4",
          "ticks": 23136,
          "time": 80.333253,
          "velocity": 0.7559055118110236
        },
        {
          "duration": 0.16666650000000516,
          "durationTicks": 48,
          "midi": 56,
          "name": "G#3",
          "ticks": 23232,
          "time": 80.666586,
          "velocity": 0.8110236220472441
        },
        {
          "duration": 0.16666650000000516,
          "durationTicks": 48,
          "midi": 68,
          "name": "G#4",
          "ticks": 23232,
          "time": 80.666586,
          "velocity": 0.8188976377952756
        },
        {
          "duration": 0.16666650000000516,
          "durationTicks": 48,
          "midi": 64,
          "name": "E4",
          "ticks": 23232,
          "time": 80.666586,
          "velocity": 0.7637795275590551
        },
        {
          "duration": 0.16666650000000516,
          "durationTicks": 48,
          "midi": 64,
          "name": "E4",
          "ticks": 23328,
          "time": 80.99991899999999,
          "velocity": 0.7716535433070866
        },
        {
          "duration": 0.16666650000000516,
          "durationTicks": 48,
          "midi": 57,
          "name": "A3",
          "ticks": 23328,
          "time": 80.99991899999999,
          "velocity": 0.8110236220472441
        },
        {
          "duration": 0.16666650000000516,
          "durationTicks": 48,
          "midi": 69,
          "name": "A4",
          "ticks": 23328,
          "time": 80.99991899999999,
          "velocity": 0.7480314960629921
        },
        {
          "duration": 0.16666649999999095,
          "durationTicks": 48,
          "midi": 64,
          "name": "E4",
          "ticks": 23424,
          "time": 81.333252,
          "velocity": 0.7795275590551181
        },
        {
          "duration": 0.16666649999999095,
          "durationTicks": 48,
          "midi": 71,
          "name": "B4",
          "ticks": 23424,
          "time": 81.333252,
          "velocity": 0.7559055118110236
        },
        {
          "duration": 0.16666649999999095,
          "durationTicks": 48,
          "midi": 59,
          "name": "B3",
          "ticks": 23424,
          "time": 81.333252,
          "velocity": 0.8031496062992126
        },
        {
          "duration": 0.08333325000000968,
          "durationTicks": 24,
          "midi": 69,
          "name": "A4",
          "ticks": 23472,
          "time": 81.49991849999999,
          "velocity": 0.8110236220472441
        },
        {
          "duration": 0.08333324999999547,
          "durationTicks": 24,
          "midi": 78,
          "name": "F#5",
          "ticks": 23520,
          "time": 81.666585,
          "velocity": 0.6456692913385826
        },
        {
          "duration": 0.08333324999999547,
          "durationTicks": 24,
          "midi": 71,
          "name": "B4",
          "ticks": 23520,
          "time": 81.666585,
          "velocity": 0.7637795275590551
        },
        {
          "duration": 0.12499987500000032,
          "durationTicks": 36,
          "midi": 79,
          "name": "G5",
          "ticks": 23532,
          "time": 81.708251625,
          "velocity": 0.5905511811023622
        },
        {
          "duration": 0.12499987500000032,
          "durationTicks": 36,
          "midi": 73,
          "name": "C#5",
          "ticks": 23532,
          "time": 81.708251625,
          "velocity": 0.7637795275590551
        },
        {
          "duration": 0.16666649999999095,
          "durationTicks": 48,
          "midi": 76,
          "name": "E5",
          "ticks": 23568,
          "time": 81.8332515,
          "velocity": 0.7874015748031497
        },
        {
          "duration": 0.16666649999999095,
          "durationTicks": 48,
          "midi": 81,
          "name": "A5",
          "ticks": 23568,
          "time": 81.8332515,
          "velocity": 0.6535433070866141
        },
        {
          "duration": 0.08333324999999547,
          "durationTicks": 24,
          "midi": 64,
          "name": "E4",
          "ticks": 23664,
          "time": 82.1665845,
          "velocity": 0.7480314960629921
        },
        {
          "duration": 0.08333324999999547,
          "durationTicks": 24,
          "midi": 71,
          "name": "B4",
          "ticks": 23664,
          "time": 82.1665845,
          "velocity": 0.8110236220472441
        },
        {
          "duration": 0.08333324999999547,
          "durationTicks": 24,
          "midi": 71,
          "name": "B4",
          "ticks": 23712,
          "time": 82.333251,
          "velocity": 0.7952755905511811
        },
        {
          "duration": 0.08333324999999547,
          "durationTicks": 24,
          "midi": 73,
          "name": "C#5",
          "ticks": 23736,
          "time": 82.41658425,
          "velocity": 0.7716535433070866
        },
        {
          "duration": 0.08333324999999547,
          "durationTicks": 24,
          "midi": 74,
          "name": "D5",
          "ticks": 23760,
          "time": 82.4999175,
          "velocity": 0.7952755905511811
        },
        {
          "duration": 0.08333325000000968,
          "durationTicks": 24,
          "midi": 76,
          "name": "E5",
          "ticks": 23784,
          "time": 82.58325074999999,
          "velocity": 0.7874015748031497
        },
        {
          "duration": 0.3333329999999961,
          "durationTicks": 96,
          "midi": 71,
          "name": "B4",
          "ticks": 23808,
          "time": 82.666584,
          "velocity": 0.7952755905511811
        },
        {
          "duration": 0.3333329999999961,
          "durationTicks": 96,
          "midi": 80,
          "name": "G#5",
          "ticks": 23808,
          "time": 82.666584,
          "velocity": 0.7480314960629921
        },
        {
          "duration": 0.3333329999999961,
          "durationTicks": 96,
          "midi": 76,
          "name": "E5",
          "ticks": 23808,
          "time": 82.666584,
          "velocity": 0.7559055118110236
        },
        {
          "duration": 0.08333324999999547,
          "durationTicks": 24,
          "midi": 76,
          "name": "E5",
          "ticks": 23904,
          "time": 82.999917,
          "velocity": 0.7874015748031497
        },
        {
          "duration": 0.08333324999999547,
          "durationTicks": 24,
          "midi": 81,
          "name": "A5",
          "ticks": 23904,
          "time": 82.999917,
          "velocity": 0.8110236220472441
        },
        {
          "duration": 0.09722212500000182,
          "durationTicks": 28,
          "midi": 69,
          "name": "A4",
          "ticks": 23904,
          "time": 82.999917,
          "velocity": 0.7480314960629921
        },
        {
          "duration": 0.29166637499999126,
          "durationTicks": 84,
          "midi": 71,
          "name": "B4",
          "ticks": 23952,
          "time": 83.1665835,
          "velocity": 0.7952755905511811
        },
        {
          "duration": 0.29166637499999126,
          "durationTicks": 84,
          "midi": 76,
          "name": "E5",
          "ticks": 23952,
          "time": 83.1665835,
          "velocity": 0.7874015748031497
        },
        {
          "duration": 0.29166637499999126,
          "durationTicks": 84,
          "midi": 64,
          "name": "E4",
          "ticks": 23952,
          "time": 83.1665835,
          "velocity": 0.7952755905511811
        },
        {
          "duration": 0.12499987500000032,
          "durationTicks": 36,
          "midi": 64,
          "name": "E4",
          "ticks": 24048,
          "time": 83.4999165,
          "velocity": 0.7559055118110236
        },
        {
          "duration": 0.12499987500000032,
          "durationTicks": 36,
          "midi": 69,
          "name": "A4",
          "ticks": 24048,
          "time": 83.4999165,
          "velocity": 0.8110236220472441
        },
        {
          "duration": 0.12499987500000032,
          "durationTicks": 36,
          "midi": 71,
          "name": "B4",
          "ticks": 24051,
          "time": 83.51033315625,
          "velocity": 0.7874015748031497
        },
        {
          "duration": 0.1805553749999973,
          "durationTicks": 52,
          "midi": 69,
          "name": "A4",
          "ticks": 24144,
          "time": 83.8332495,
          "velocity": 0.7874015748031497
        },
        {
          "duration": 0.1805553749999973,
          "durationTicks": 52,
          "midi": 64,
          "name": "E4",
          "ticks": 24144,
          "time": 83.8332495,
          "velocity": 0.7480314960629921
        },
        {
          "duration": 0.29166637499999126,
          "durationTicks": 84,
          "midi": 71,
          "name": "B4",
          "ticks": 24152,
          "time": 83.86102725,
          "velocity": 0.7952755905511811
        },
        {
          "duration": 0.2916663750000055,
          "durationTicks": 84,
          "midi": 64,
          "name": "E4",
          "ticks": 24288,
          "time": 84.333249,
          "velocity": 0.7795275590551181
        },
        {
          "duration": 0.16666650000000516,
          "durationTicks": 48,
          "midi": 71,
          "name": "B4",
          "ticks": 24288,
          "time": 84.333249,
          "velocity": 0.7716535433070866
        },
        {
          "duration": 0.16666649999999095,
          "durationTicks": 48,
          "midi": 73,
          "name": "C#5",
          "ticks": 24336,
          "time": 84.4999155,
          "velocity": 0.7716535433070866
        },
        {
          "duration": 0.12152765624999518,
          "durationTicks": 35,
          "midi": 69,
          "name": "A4",
          "ticks": 24480,
          "time": 84.999915,
          "velocity": 0.7559055118110236
        },
        {
          "duration": 0.12152765624999518,
          "durationTicks": 35,
          "midi": 81,
          "name": "A5",
          "ticks": 24480,
          "time": 84.999915,
          "velocity": 0.7559055118110236
        },
        {
          "duration": 0.12152765625000939,
          "durationTicks": 35,
          "midi": 83,
          "name": "B5",
          "ticks": 24508,
          "time": 85.09713712499999,
          "velocity": 0.8188976377952756
        },
        {
          "duration": 0.12152765625000939,
          "durationTicks": 35,
          "midi": 71,
          "name": "B4",
          "ticks": 24508,
          "time": 85.09713712499999,
          "velocity": 0.8110236220472441
        },
        {
          "duration": 0.0937499062500109,
          "durationTicks": 27,
          "midi": 74,
          "name": "D5",
          "ticks": 24544,
          "time": 85.22213699999999,
          "velocity": 0.7480314960629921
        },
        {
          "duration": 0.0937499062500109,
          "durationTicks": 27,
          "midi": 86,
          "name": "D6",
          "ticks": 24544,
          "time": 85.22213699999999,
          "velocity": 0.7795275590551181
        },
        {
          "duration": 0.3333329999999961,
          "durationTicks": 96,
          "midi": 88,
          "name": "E6",
          "ticks": 24576,
          "time": 85.333248,
          "velocity": 0.7952755905511811
        },
        {
          "duration": 0.3333329999999961,
          "durationTicks": 96,
          "midi": 76,
          "name": "E5",
          "ticks": 24576,
          "time": 85.333248,
          "velocity": 0.7480314960629921
        },
        {
          "duration": 0.3333329999999961,
          "durationTicks": 96,
          "midi": 81,
          "name": "A5",
          "ticks": 24576,
          "time": 85.333248,
          "velocity": 0.7952755905511811
        },
        {
          "duration": 0.12499987500000032,
          "durationTicks": 36,
          "midi": 74,
          "name": "D5",
          "ticks": 24672,
          "time": 85.666581,
          "velocity": 0.7480314960629921
        },
        {
          "duration": 0.12499987500000032,
          "durationTicks": 36,
          "midi": 86,
          "name": "D6",
          "ticks": 24672,
          "time": 85.666581,
          "velocity": 0.7480314960629921
        },
        {
          "duration": 0.12499987500000032,
          "durationTicks": 36,
          "midi": 78,
          "name": "F#5",
          "ticks": 24672,
          "time": 85.666581,
          "velocity": 0.7480314960629921
        },
        {
          "duration": 0.24999975000000063,
          "durationTicks": 72,
          "midi": 85,
          "name": "C#6",
          "ticks": 24720,
          "time": 85.8332475,
          "velocity": 0.7480314960629921
        },
        {
          "duration": 0.24999975000000063,
          "durationTicks": 72,
          "midi": 76,
          "name": "E5",
          "ticks": 24720,
          "time": 85.8332475,
          "velocity": 0.7952755905511811
        },
        {
          "duration": 0.24999975000000063,
          "durationTicks": 72,
          "midi": 73,
          "name": "C#5",
          "ticks": 24720,
          "time": 85.8332475,
          "velocity": 0.7637795275590551
        },
        {
          "duration": 0.13888875000000667,
          "durationTicks": 40,
          "midi": 74,
          "name": "D5",
          "ticks": 24816,
          "time": 86.1665805,
          "velocity": 0.7480314960629921
        },
        {
          "duration": 0.13888875000000667,
          "durationTicks": 40,
          "midi": 86,
          "name": "D6",
          "ticks": 24816,
          "time": 86.1665805,
          "velocity": 0.7795275590551181
        },
        {
          "duration": 0.13888875000000667,
          "durationTicks": 40,
          "midi": 78,
          "name": "F#5",
          "ticks": 24816,
          "time": 86.1665805,
          "velocity": 0.7637795275590551
        },
        {
          "duration": 0.05555550000001119,
          "durationTicks": 16,
          "midi": 69,
          "name": "A4",
          "ticks": 24912,
          "time": 86.49991349999999,
          "velocity": 0.7480314960629921
        },
        {
          "duration": 0.05555550000001119,
          "durationTicks": 16,
          "midi": 71,
          "name": "B4",
          "ticks": 24915,
          "time": 86.51033015624999,
          "velocity": 0.8110236220472441
        },
        {
          "duration": 0.20833312500001,
          "durationTicks": 60,
          "midi": 73,
          "name": "C#5",
          "ticks": 24918,
          "time": 86.5207468125,
          "velocity": 0.7559055118110236
        },
        {
          "duration": 0.20486090625001907,
          "durationTicks": 59,
          "midi": 76,
          "name": "E5",
          "ticks": 24920,
          "time": 86.52769124999999,
          "velocity": 0.7716535433070866
        },
        {
          "duration": 0.2083331249999958,
          "durationTicks": 60,
          "midi": 85,
          "name": "C#6",
          "ticks": 24920,
          "time": 86.52769124999999,
          "velocity": 0.7716535433070866
        },
        {
          "duration": 0.08333324999999547,
          "durationTicks": 24,
          "midi": 69,
          "name": "A4",
          "ticks": 25008,
          "time": 86.8332465,
          "velocity": 0.8110236220472441
        },
        {
          "duration": 0.08333324999999547,
          "durationTicks": 24,
          "midi": 81,
          "name": "A5",
          "ticks": 25008,
          "time": 86.8332465,
          "velocity": 0.7874015748031497
        },
        {
          "duration": 0.09722212500000182,
          "durationTicks": 28,
          "midi": 73,
          "name": "C#5",
          "ticks": 25008,
          "time": 86.8332465,
          "velocity": 0.7480314960629921
        },
        {
          "duration": 0.3333330000000103,
          "durationTicks": 96,
          "midi": 64,
          "name": "E4",
          "ticks": 25056,
          "time": 86.99991299999999,
          "velocity": 0.7480314960629921
        },
        {
          "duration": 0.3333330000000103,
          "durationTicks": 96,
          "midi": 76,
          "name": "E5",
          "ticks": 25056,
          "time": 86.99991299999999,
          "velocity": 0.7480314960629921
        },
        {
          "duration": 0.3055552500000118,
          "durationTicks": 88,
          "midi": 69,
          "name": "A4",
          "ticks": 25056,
          "time": 86.99991299999999,
          "velocity": 0.7716535433070866
        },
        {
          "duration": 0.11111099999999396,
          "durationTicks": 32,
          "midi": 69,
          "name": "A4",
          "ticks": 25248,
          "time": 87.666579,
          "velocity": 0.7480314960629921
        },
        {
          "duration": 0.11111099999999396,
          "durationTicks": 32,
          "midi": 81,
          "name": "A5",
          "ticks": 25248,
          "time": 87.666579,
          "velocity": 0.7559055118110236
        },
        {
          "duration": 0.1423609687500118,
          "durationTicks": 41,
          "midi": 71,
          "name": "B4",
          "ticks": 25280,
          "time": 87.77768999999999,
          "velocity": 0.7480314960629921
        },
        {
          "duration": 0.1423609687500118,
          "durationTicks": 41,
          "midi": 83,
          "name": "B5",
          "ticks": 25280,
          "time": 87.77768999999999,
          "velocity": 0.7716535433070866
        },
        {
          "duration": 0.09027768749999154,
          "durationTicks": 26,
          "midi": 74,
          "name": "D5",
          "ticks": 25315,
          "time": 87.89921765625,
          "velocity": 0.7637795275590551
        },
        {
          "duration": 0.09027768749999154,
          "durationTicks": 26,
          "midi": 86,
          "name": "D6",
          "ticks": 25315,
          "time": 87.89921765625,
          "velocity": 0.8110236220472441
        },
        {
          "duration": 0.3333329999999961,
          "durationTicks": 96,
          "midi": 81,
          "name": "A5",
          "ticks": 25344,
          "time": 87.999912,
          "velocity": 0.7480314960629921
        },
        {
          "duration": 0.3333329999999961,
          "durationTicks": 96,
          "midi": 76,
          "name": "E5",
          "ticks": 25344,
          "time": 87.999912,
          "velocity": 0.7952755905511811
        },
        {
          "duration": 0.3333329999999961,
          "durationTicks": 96,
          "midi": 88,
          "name": "E6",
          "ticks": 25344,
          "time": 87.999912,
          "velocity": 0.7952755905511811
        },
        {
          "duration": 0.12499987500000032,
          "durationTicks": 36,
          "midi": 86,
          "name": "D6",
          "ticks": 25440,
          "time": 88.33324499999999,
          "velocity": 0.7559055118110236
        },
        {
          "duration": 0.12499987500000032,
          "durationTicks": 36,
          "midi": 74,
          "name": "D5",
          "ticks": 25440,
          "time": 88.33324499999999,
          "velocity": 0.7559055118110236
        },
        {
          "duration": 0.11111099999999396,
          "durationTicks": 32,
          "midi": 79,
          "name": "G5",
          "ticks": 25440,
          "time": 88.33324499999999,
          "velocity": 0.7874015748031497
        },
        {
          "duration": 0.24999975000000063,
          "durationTicks": 72,
          "midi": 76,
          "name": "E5",
          "ticks": 25488,
          "time": 88.4999115,
          "velocity": 0.7716535433070866
        },
        {
          "duration": 0.24999975000000063,
          "durationTicks": 72,
          "midi": 84,
          "name": "C6",
          "ticks": 25488,
          "time": 88.4999115,
          "velocity": 0.8110236220472441
        },
        {
          "duration": 0.24999975000000063,
          "durationTicks": 72,
          "midi": 72,
          "name": "C5",
          "ticks": 25488,
          "time": 88.4999115,
          "velocity": 0.7716535433070866
        },
        {
          "duration": 0.13888875000000667,
          "durationTicks": 40,
          "midi": 77,
          "name": "F5",
          "ticks": 25584,
          "time": 88.83324449999999,
          "velocity": 0.8110236220472441
        },
        {
          "duration": 0.13888875000000667,
          "durationTicks": 40,
          "midi": 86,
          "name": "D6",
          "ticks": 25584,
          "time": 88.83324449999999,
          "velocity": 0.7480314960629921
        },
        {
          "duration": 0.13888875000000667,
          "durationTicks": 40,
          "midi": 74,
          "name": "D5",
          "ticks": 25584,
          "time": 88.83324449999999,
          "velocity": 0.7480314960629921
        },
        {
          "duration": 0.05555549999999698,
          "durationTicks": 16,
          "midi": 69,
          "name": "A4",
          "ticks": 25680,
          "time": 89.1665775,
          "velocity": 0.7874015748031497
        },
        {
          "duration": 0.05555549999998277,
          "durationTicks": 16,
          "midi": 71,
          "name": "B4",
          "ticks": 25684,
          "time": 89.18046637500001,
          "velocity": 0.7795275590551181
        },
        {
          "duration": 0.2083331249999958,
          "durationTicks": 60,
          "midi": 72,
          "name": "C5",
          "ticks": 25687,
          "time": 89.19088303125001,
          "velocity": 0.8110236220472441
        },
        {
          "duration": 0.20833312500001,
          "durationTicks": 60,
          "midi": 84,
          "name": "C6",
          "ticks": 25689,
          "time": 89.19782746874999,
          "velocity": 0.7795275590551181
        },
        {
          "duration": 0.20486090625000486,
          "durationTicks": 59,
          "midi": 76,
          "name": "E5",
          "ticks": 25689,
          "time": 89.19782746874999,
          "velocity": 0.8110236220472441
        },
        {
          "duration": 0.08333324999999547,
          "durationTicks": 24,
          "midi": 83,
          "name": "B5",
          "ticks": 25776,
          "time": 89.4999105,
          "velocity": 0.7952755905511811
        },
        {
          "duration": 0.08333324999999547,
          "durationTicks": 24,
          "midi": 71,
          "name": "B4",
          "ticks": 25776,
          "time": 89.4999105,
          "velocity": 0.7637795275590551
        },
        {
          "duration": 0.08333324999999547,
          "durationTicks": 24,
          "midi": 74,
          "name": "D5",
          "ticks": 25776,
          "time": 89.4999105,
          "velocity": 0.8188976377952756
        },
        {
          "duration": 0.8888879999999943,
          "durationTicks": 256,
          "midi": 76,
          "name": "E5",
          "ticks": 25824,
          "time": 89.666577,
          "velocity": 0.8031496062992126
        },
        {
          "duration": 0.8888879999999943,
          "durationTicks": 256,
          "midi": 64,
          "name": "E4",
          "ticks": 25824,
          "time": 89.666577,
          "velocity": 0.7559055118110236
        },
        {
          "duration": 0.8611102499999816,
          "durationTicks": 248,
          "midi": 69,
          "name": "A4",
          "ticks": 25824,
          "time": 89.666577,
          "velocity": 0.7559055118110236
        }
      ],
      "endOfTrackTicks": 45698
    },
    {
      "channel": 2,
      "controlChanges": {
        "6": [
          {
            "number": 6,
            "ticks": 0,
            "time": 0,
            "value": 0.09448818897637795
          },
          {
            "number": 6,
            "ticks": 0,
            "time": 0,
            "value": 0.09448818897637795
          },
          {
            "number": 6,
            "ticks": 0,
            "time": 0,
            "value": 0.09448818897637795
          },
          {
            "number": 6,
            "ticks": 45696,
            "time": 158.666508,
            "value": 0.09448818897637795
          },
          {
            "number": 6,
            "ticks": 45698,
            "time": 158.67345243749998,
            "value": 0.09448818897637795
          }
        ],
        "7": [
          {
            "number": 7,
            "ticks": 0,
            "time": 0,
            "value": 0.7874015748031497
          },
          {
            "number": 7,
            "ticks": 0,
            "time": 0,
            "value": 0.7874015748031497
          },
          {
            "number": 7,
            "ticks": 0,
            "time": 0,
            "value": 0.7874015748031497
          },
          {
            "number": 7,
            "ticks": 0,
            "time": 0,
            "value": 0.7874015748031497
          },
          {
            "number": 7,
            "ticks": 45696,
            "time": 158.666508,
            "value": 0.7874015748031497
          },
          {
            "number": 7,
            "ticks": 45698,
            "time": 158.67345243749998,
            "value": 0.7874015748031497
          }
        ],
        "10": [
          {
            "number": 10,
            "ticks": 0,
            "time": 0,
            "value": 0.5039370078740157
          },
          {
            "number": 10,
            "ticks": 0,
            "time": 0,
            "value": 0.5039370078740157
          },
          {
            "number": 10,
            "ticks": 0,
            "time": 0,
            "value": 0.5039370078740157
          },
          {
            "number": 10,
            "ticks": 0,
            "time": 0,
            "value": 0.5039370078740157
          },
          {
            "number": 10,
            "ticks": 45696,
            "time": 158.666508,
            "value": 0.5039370078740157
          },
          {
            "number": 10,
            "ticks": 45698,
            "time": 158.67345243749998,
            "value": 0.5039370078740157
          }
        ],
        "100": [
          {
            "number": 100,
            "ticks": 0,
            "time": 0,
            "value": 0
          },
          {
            "number": 100,
            "ticks": 0,
            "time": 0,
            "value": 0
          },
          {
            "number": 100,
            "ticks": 0,
            "time": 0,
            "value": 0
          },
          {
            "number": 100,
            "ticks": 45696,
            "time": 158.666508,
            "value": 0
          },
          {
            "number": 100,
            "ticks": 45698,
            "time": 158.67345243749998,
            "value": 0
          }
        ],
        "101": [
          {
            "number": 101,
            "ticks": 0,
            "time": 0,
            "value": 0
          },
          {
            "number": 101,
            "ticks": 0,
            "time": 0,
            "value": 0
          },
          {
            "number": 101,
            "ticks": 0,
            "time": 0,
            "value": 0
          },
          {
            "number": 101,
            "ticks": 45696,
            "time": 158.666508,
            "value": 0
          },
          {
            "number": 101,
            "ticks": 45698,
            "time": 158.67345243749998,
            "value": 0
          }
        ]
      },
      "pitchBends": [
        {
          "ticks": 0,
          "time": 0,
          "value": 0
        },
        {
          "ticks": 0,
          "time": 0,
          "value": 0
        },
        {
          "ticks": 0,
          "time": 0,
          "value": 0
        },
        {
          "ticks": 0,
          "time": 0,
          "value": 0
        },
        {
          "ticks": 45696,
          "time": 158.666508,
          "value": 0
        },
        {
          "ticks": 45698,
          "time": 158.67345243749998,
          "value": 0
        }
      ],
      "instrument": {
        "family": "piano",
        "number": 0,
        "name": "acoustic grand piano"
      },
      "name": "Vocal Chop",
      "notes": [
        {
          "duration": 0.16666649999999983,
          "durationTicks": 48,
          "midi": 76,
          "name": "E5",
          "ticks": 864,
          "time": 2.999997,
          "velocity": 0.8110236220472441
        },
        {
          "duration": 0.12499987499999987,
          "durationTicks": 36,
          "midi": 71,
          "name": "B4",
          "ticks": 960,
          "time": 3.33333,
          "velocity": 0.8110236220472441
        },
        {
          "duration": 0.04166662499999996,
          "durationTicks": 12,
          "midi": 71,
          "name": "B4",
          "ticks": 1008,
          "time": 3.4999965,
          "velocity": 0.8110236220472441
        },
        {
          "duration": 0.04166662499999996,
          "durationTicks": 12,
          "midi": 71,
          "name": "B4",
          "ticks": 1056,
          "time": 3.666663,
          "velocity": 0.8110236220472441
        },
        {
          "duration": 0.12499987499999987,
          "durationTicks": 36,
          "midi": 71,
          "name": "B4",
          "ticks": 1104,
          "time": 3.8333295,
          "velocity": 0.8110236220472441
        },
        {
          "duration": 0.04166662499999996,
          "durationTicks": 12,
          "midi": 71,
          "name": "B4",
          "ticks": 1152,
          "time": 3.999996,
          "velocity": 0.8110236220472441
        },
        {
          "duration": 0.04166662499999951,
          "durationTicks": 12,
          "midi": 71,
          "name": "B4",
          "ticks": 1200,
          "time": 4.1666625,
          "velocity": 0.8110236220472441
        },
        {
          "duration": 0.16666649999999983,
          "durationTicks": 48,
          "midi": 69,
          "name": "A4",
          "ticks": 1248,
          "time": 4.333329,
          "velocity": 0.8110236220472441
        },
        {
          "duration": 0.0416666250000004,
          "durationTicks": 12,
          "midi": 71,
          "name": "B4",
          "ticks": 1296,
          "time": 4.4999955,
          "velocity": 0.8110236220472441
        },
        {
          "duration": 0.16666649999999983,
          "durationTicks": 48,
          "midi": 69,
          "name": "A4",
          "ticks": 1344,
          "time": 4.666662,
          "velocity": 0.8110236220472441
        },
        {
          "duration": 0.0833332500000008,
          "durationTicks": 24,
          "midi": 71,
          "name": "B4",
          "ticks": 1392,
          "time": 4.8333284999999995,
          "velocity": 0.8110236220472441
        },
        {
          "duration": 0.16666649999999983,
          "durationTicks": 48,
          "midi": 76,
          "name": "E5",
          "ticks": 1440,
          "time": 4.999995,
          "velocity": 0.8110236220472441
        },
        {
          "duration": 0.16666650000000072,
          "durationTicks": 48,
          "midi": 76,
          "name": "E5",
          "ticks": 1632,
          "time": 5.6666609999999995,
          "velocity": 0.8110236220472441
        },
        {
          "duration": 0.12499987499999943,
          "durationTicks": 36,
          "midi": 71,
          "name": "B4",
          "ticks": 1728,
          "time": 5.999994,
          "velocity": 0.8110236220472441
        },
        {
          "duration": 0.04166662499999951,
          "durationTicks": 12,
          "midi": 71,
          "name": "B4",
          "ticks": 1776,
          "time": 6.1666605,
          "velocity": 0.8110236220472441
        },
        {
          "duration": 0.0416666250000004,
          "durationTicks": 12,
          "midi": 71,
          "name": "B4",
          "ticks": 1824,
          "time": 6.333327,
          "velocity": 0.8110236220472441
        },
        {
          "duration": 0.12499987500000032,
          "durationTicks": 36,
          "midi": 71,
          "name": "B4",
          "ticks": 1872,
          "time": 6.4999934999999995,
          "velocity": 0.8110236220472441
        },
        {
          "duration": 0.04166662499999951,
          "durationTicks": 12,
          "midi": 71,
          "name": "B4",
          "ticks": 1920,
          "time": 6.66666,
          "velocity": 0.8110236220472441
        },
        {
          "duration": 0.04166662499999951,
          "durationTicks": 12,
          "midi": 71,
          "name": "B4",
          "ticks": 1968,
          "time": 6.8333265,
          "velocity": 0.8110236220472441
        },
        {
          "duration": 0.16666649999999983,
          "durationTicks": 48,
          "midi": 69,
          "name": "A4",
          "ticks": 2016,
          "time": 6.999993,
          "velocity": 0.8110236220472441
        },
        {
          "duration": 0.0416666250000004,
          "durationTicks": 12,
          "midi": 71,
          "name": "B4",
          "ticks": 2064,
          "time": 7.1666595,
          "velocity": 0.8110236220472441
        },
        {
          "duration": 0.16666649999999983,
          "durationTicks": 48,
          "midi": 69,
          "name": "A4",
          "ticks": 2112,
          "time": 7.333326,
          "velocity": 0.8110236220472441
        },
        {
          "duration": 0.0833332500000008,
          "durationTicks": 24,
          "midi": 64,
          "name": "E4",
          "ticks": 2160,
          "time": 7.499992499999999,
          "velocity": 0.8110236220472441
        },
        {
          "duration": 0.16666649999999983,
          "durationTicks": 48,
          "midi": 76,
          "name": "E5",
          "ticks": 2208,
          "time": 7.666659,
          "velocity": 0.8110236220472441
        },
        {
          "duration": 0.16666649999999983,
          "durationTicks": 48,
          "midi": 76,
          "name": "E5",
          "ticks": 2400,
          "time": 8.333325,
          "velocity": 0.8110236220472441
        },
        {
          "duration": 0.12499987500000032,
          "durationTicks": 36,
          "midi": 71,
          "name": "B4",
          "ticks": 2496,
          "time": 8.666658,
          "velocity": 0.8110236220472441
        },
        {
          "duration": 0.04166662499999951,
          "durationTicks": 12,
          "midi": 71,
          "name": "B4",
          "ticks": 2544,
          "time": 8.8333245,
          "velocity": 0.8110236220472441
        },
        {
          "duration": 0.04166662499999951,
          "durationTicks": 12,
          "midi": 71,
          "name": "B4",
          "ticks": 2592,
          "time": 8.999991,
          "velocity": 0.8110236220472441
        },
        {
          "duration": 0.12499987500000032,
          "durationTicks": 36,
          "midi": 71,
          "name": "B4",
          "ticks": 2640,
          "time": 9.1666575,
          "velocity": 0.8110236220472441
        },
        {
          "duration": 0.04166662500000129,
          "durationTicks": 12,
          "midi": 71,
          "name": "B4",
          "ticks": 2688,
          "time": 9.333324,
          "velocity": 0.8110236220472441
        },
        {
          "duration": 0.04166662500000129,
          "durationTicks": 12,
          "midi": 71,
          "name": "B4",
          "ticks": 2736,
          "time": 9.4999905,
          "velocity": 0.8110236220472441
        },
        {
          "duration": 0.1666665000000016,
          "durationTicks": 48,
          "midi": 69,
          "name": "A4",
          "ticks": 2784,
          "time": 9.666656999999999,
          "velocity": 0.8110236220472441
        },
        {
          "duration": 0.04166662499999951,
          "durationTicks": 12,
          "midi": 71,
          "name": "B4",
          "ticks": 2832,
          "time": 9.8333235,
          "velocity": 0.8110236220472441
        },
        {
          "duration": 0.16666649999999983,
          "durationTicks": 48,
          "midi": 69,
          "name": "A4",
          "ticks": 2880,
          "time": 9.99999,
          "velocity": 0.8110236220472441
        },
        {
          "duration": 0.04166662499999951,
          "durationTicks": 12,
          "midi": 71,
          "name": "B4",
          "ticks": 2928,
          "time": 10.1666565,
          "velocity": 0.8110236220472441
        },
        {
          "duration": 0.16666649999999983,
          "durationTicks": 48,
          "midi": 76,
          "name": "E5",
          "ticks": 2976,
          "time": 10.333323,
          "velocity": 0.8110236220472441
        },
        {
          "duration": 0.16666649999999983,
          "durationTicks": 48,
          "midi": 76,
          "name": "E5",
          "ticks": 3168,
          "time": 10.999989,
          "velocity": 0.8110236220472441
        },
        {
          "duration": 0.16666649999999983,
          "durationTicks": 48,
          "midi": 73,
          "name": "C#5",
          "ticks": 3264,
          "time": 11.333321999999999,
          "velocity": 0.8110236220472441
        },
        {
          "duration": 0.0833332500000008,
          "durationTicks": 24,
          "midi": 76,
          "name": "E5",
          "ticks": 3312,
          "time": 11.499988499999999,
          "velocity": 0.8110236220472441
        },
        {
          "duration": 0.16666649999999983,
          "durationTicks": 48,
          "midi": 71,
          "name": "B4",
          "ticks": 3360,
          "time": 11.666655,
          "velocity": 0.8110236220472441
        },
        {
          "duration": 0.08333324999999903,
          "durationTicks": 24,
          "midi": 69,
          "name": "A4",
          "ticks": 3408,
          "time": 11.8333215,
          "velocity": 0.8110236220472441
        },
        {
          "duration": 0.16666649999999983,
          "durationTicks": 48,
          "midi": 73,
          "name": "C#5",
          "ticks": 3456,
          "time": 11.999988,
          "velocity": 0.8110236220472441
        },
        {
          "duration": 0.08333324999999903,
          "durationTicks": 24,
          "midi": 76,
          "name": "E5",
          "ticks": 3504,
          "time": 12.1666545,
          "velocity": 0.8110236220472441
        },
        {
          "duration": 0.16666649999999983,
          "durationTicks": 48,
          "midi": 71,
          "name": "B4",
          "ticks": 3552,
          "time": 12.333321,
          "velocity": 0.8110236220472441
        },
        {
          "duration": 0.0833332500000008,
          "durationTicks": 24,
          "midi": 69,
          "name": "A4",
          "ticks": 3600,
          "time": 12.4999875,
          "velocity": 0.8110236220472441
        },
        {
          "duration": 0.16666649999999983,
          "durationTicks": 48,
          "midi": 69,
          "name": "A4",
          "ticks": 3648,
          "time": 12.666654,
          "velocity": 0.8110236220472441
        },
        {
          "duration": 0.0833332500000008,
          "durationTicks": 24,
          "midi": 64,
          "name": "E4",
          "ticks": 3696,
          "time": 12.8333205,
          "velocity": 0.8110236220472441
        },
        {
          "duration": 0.0833332500000008,
          "durationTicks": 24,
          "midi": 69,
          "name": "A4",
          "ticks": 3744,
          "time": 12.999986999999999,
          "velocity": 0.8110236220472441
        },
        {
          "duration": 0.24999974999999885,
          "durationTicks": 72,
          "midi": 71,
          "name": "B4",
          "ticks": 3756,
          "time": 13.041653625,
          "velocity": 0.8110236220472441
        },
        {
          "duration": 0.16666649999999805,
          "durationTicks": 48,
          "midi": 76,
          "name": "E5",
          "ticks": 4704,
          "time": 16.333317,
          "velocity": 0.7874015748031497
        },
        {
          "duration": 0.12499987500000032,
          "durationTicks": 36,
          "midi": 71,
          "name": "B4",
          "ticks": 4800,
          "time": 16.66665,
          "velocity": 0.7874015748031497
        },
        {
          "duration": 0.04166662500000129,
          "durationTicks": 12,
          "midi": 71,
          "name": "B4",
          "ticks": 4848,
          "time": 16.8333165,
          "velocity": 0.7874015748031497
        },
        {
          "duration": 0.04166662499999774,
          "durationTicks": 12,
          "midi": 71,
          "name": "B4",
          "ticks": 4896,
          "time": 16.999983,
          "velocity": 0.7874015748031497
        },
        {
          "duration": 0.12499987500000032,
          "durationTicks": 36,
          "midi": 71,
          "name": "B4",
          "ticks": 4944,
          "time": 17.1666495,
          "velocity": 0.7874015748031497
        },
        {
          "duration": 0.04166662500000129,
          "durationTicks": 12,
          "midi": 71,
          "name": "B4",
          "ticks": 4992,
          "time": 17.333316,
          "velocity": 0.7874015748031497
        },
        {
          "duration": 0.04166662500000129,
          "durationTicks": 12,
          "midi": 71,
          "name": "B4",
          "ticks": 5040,
          "time": 17.499982499999998,
          "velocity": 0.7874015748031497
        },
        {
          "duration": 0.1666665000000016,
          "durationTicks": 48,
          "midi": 69,
          "name": "A4",
          "ticks": 5088,
          "time": 17.666649,
          "velocity": 0.7874015748031497
        },
        {
          "duration": 0.04166662499999774,
          "durationTicks": 12,
          "midi": 71,
          "name": "B4",
          "ticks": 5136,
          "time": 17.8333155,
          "velocity": 0.7874015748031497
        },
        {
          "duration": 0.1666665000000016,
          "durationTicks": 48,
          "midi": 69,
          "name": "A4",
          "ticks": 5184,
          "time": 17.999982,
          "velocity": 0.7874015748031497
        },
        {
          "duration": 0.08333324999999903,
          "durationTicks": 24,
          "midi": 64,
          "name": "E4",
          "ticks": 5232,
          "time": 18.1666485,
          "velocity": 0.7874015748031497
        },
        {
          "duration": 0.1666665000000016,
          "durationTicks": 48,
          "midi": 76,
          "name": "E5",
          "ticks": 5280,
          "time": 18.333315,
          "velocity": 0.7874015748031497
        },
        {
          "duration": 0.1666665000000016,
          "durationTicks": 48,
          "midi": 73,
          "name": "C#5",
          "ticks": 6336,
          "time": 21.999978,
          "velocity": 0.7874015748031497
        },
        {
          "duration": 0.08333324999999903,
          "durationTicks": 24,
          "midi": 76,
          "name": "E5",
          "ticks": 6384,
          "time": 22.1666445,
          "velocity": 0.7874015748031497
        },
        {
          "duration": 0.1666665000000016,
          "durationTicks": 48,
          "midi": 71,
          "name": "B4",
          "ticks": 6432,
          "time": 22.333311,
          "velocity": 0.7874015748031497
        },
        {
          "duration": 0.08333324999999903,
          "durationTicks": 24,
          "midi": 69,
          "name": "A4",
          "ticks": 6480,
          "time": 22.4999775,
          "velocity": 0.7874015748031497
        },
        {
          "duration": 0.1666665000000016,
          "durationTicks": 48,
          "midi": 73,
          "name": "C#5",
          "ticks": 6528,
          "time": 22.666643999999998,
          "velocity": 0.7874015748031497
        },
        {
          "duration": 0.08333324999999903,
          "durationTicks": 24,
          "midi": 76,
          "name": "E5",
          "ticks": 6576,
          "time": 22.8333105,
          "velocity": 0.7874015748031497
        },
        {
          "duration": 0.1666665000000016,
          "durationTicks": 48,
          "midi": 71,
          "name": "B4",
          "ticks": 6624,
          "time": 22.999976999999998,
          "velocity": 0.7874015748031497
        },
        {
          "duration": 0.08333324999999903,
          "durationTicks": 24,
          "midi": 69,
          "name": "A4",
          "ticks": 6672,
          "time": 23.1666435,
          "velocity": 0.7874015748031497
        },
        {
          "duration": 0.16666649999999805,
          "durationTicks": 48,
          "midi": 69,
          "name": "A4",
          "ticks": 6720,
          "time": 23.33331,
          "velocity": 0.7874015748031497
        },
        {
          "duration": 0.08333324999999903,
          "durationTicks": 24,
          "midi": 64,
          "name": "E4",
          "ticks": 6768,
          "time": 23.4999765,
          "velocity": 0.7874015748031497
        },
        {
          "duration": 0.08333324999999903,
          "durationTicks": 24,
          "midi": 69,
          "name": "A4",
          "ticks": 6816,
          "time": 23.666643,
          "velocity": 0.7874015748031497
        },
        {
          "duration": 0.24999975000000063,
          "durationTicks": 72,
          "midi": 71,
          "name": "B4",
          "ticks": 6828,
          "time": 23.708309625,
          "velocity": 0.7874015748031497
        },
        {
          "duration": 0.16666649999999805,
          "durationTicks": 48,
          "midi": 76,
          "name": "E5",
          "ticks": 7008,
          "time": 24.333309,
          "velocity": 0.7874015748031497
        },
        {
          "duration": 0.12499987500000032,
          "durationTicks": 36,
          "midi": 71,
          "name": "B4",
          "ticks": 7104,
          "time": 24.666642,
          "velocity": 0.7874015748031497
        },
        {
          "duration": 0.12499987500000032,
          "durationTicks": 36,
          "midi": 71,
          "name": "B4",
          "ticks": 7152,
          "time": 24.833308499999998,
          "velocity": 0.7874015748031497
        },
        {
          "duration": 0.04166662500000129,
          "durationTicks": 12,
          "midi": 71,
          "name": "B4",
          "ticks": 7200,
          "time": 24.999975,
          "velocity": 0.7874015748031497
        },
        {
          "duration": 0.12499987499999676,
          "durationTicks": 36,
          "midi": 71,
          "name": "B4",
          "ticks": 7248,
          "time": 25.1666415,
          "velocity": 0.7874015748031497
        },
        {
          "duration": 0.04166662500000129,
          "durationTicks": 12,
          "midi": 71,
          "name": "B4",
          "ticks": 7296,
          "time": 25.333308,
          "velocity": 0.7874015748031497
        },
        {
          "duration": 0.04166662499999774,
          "durationTicks": 12,
          "midi": 71,
          "name": "B4",
          "ticks": 7344,
          "time": 25.4999745,
          "velocity": 0.7874015748031497
        },
        {
          "duration": 0.1666665000000016,
          "durationTicks": 48,
          "midi": 69,
          "name": "A4",
          "ticks": 7392,
          "time": 25.666641,
          "velocity": 0.7874015748031497
        },
        {
          "duration": 0.04166662499999774,
          "durationTicks": 12,
          "midi": 71,
          "name": "B4",
          "ticks": 7440,
          "time": 25.8333075,
          "velocity": 0.7874015748031497
        },
        {
          "duration": 0.1666665000000016,
          "durationTicks": 48,
          "midi": 69,
          "name": "A4",
          "ticks": 7488,
          "time": 25.999973999999998,
          "velocity": 0.7874015748031497
        },
        {
          "duration": 0.08333324999999903,
          "durationTicks": 24,
          "midi": 71,
          "name": "B4",
          "ticks": 7536,
          "time": 26.1666405,
          "velocity": 0.7874015748031497
        },
        {
          "duration": 0.1666665000000016,
          "durationTicks": 48,
          "midi": 76,
          "name": "E5",
          "ticks": 7584,
          "time": 26.333306999999998,
          "velocity": 0.7874015748031497
        },
        {
          "duration": 0.16666649999999805,
          "durationTicks": 48,
          "midi": 76,
          "name": "E5",
          "ticks": 7776,
          "time": 26.999973,
          "velocity": 0.7874015748031497
        },
        {
          "duration": 0.12499987500000032,
          "durationTicks": 36,
          "midi": 71,
          "name": "B4",
          "ticks": 7872,
          "time": 27.333306,
          "velocity": 0.7874015748031497
        },
        {
          "duration": 0.04166662500000129,
          "durationTicks": 12,
          "midi": 71,
          "name": "B4",
          "ticks": 7920,
          "time": 27.4999725,
          "velocity": 0.7874015748031497
        },
        {
          "duration": 0.04166662499999774,
          "durationTicks": 12,
          "midi": 71,
          "name": "B4",
          "ticks": 7968,
          "time": 27.666639,
          "velocity": 0.7874015748031497
        },
        {
          "duration": 0.12499987500000032,
          "durationTicks": 36,
          "midi": 71,
          "name": "B4",
          "ticks": 8016,
          "time": 27.833305499999998,
          "velocity": 0.7874015748031497
        },
        {
          "duration": 0.04166662500000129,
          "durationTicks": 12,
          "midi": 71,
          "name": "B4",
          "ticks": 8064,
          "time": 27.999972,
          "velocity": 0.7874015748031497
        },
        {
          "duration": 0.04166662500000129,
          "durationTicks": 12,
          "midi": 71,
          "name": "B4",
          "ticks": 8112,
          "time": 28.166638499999998,
          "velocity": 0.7874015748031497
        },
        {
          "duration": 0.1666665000000016,
          "durationTicks": 48,
          "midi": 69,
          "name": "A4",
          "ticks": 8160,
          "time": 28.333305,
          "velocity": 0.7874015748031497
        },
        {
          "duration": 0.04166662499999774,
          "durationTicks": 12,
          "midi": 71,
          "name": "B4",
          "ticks": 8208,
          "time": 28.4999715,
          "velocity": 0.7874015748031497
        },
        {
          "duration": 0.1666665000000016,
          "durationTicks": 48,
          "midi": 69,
          "name": "A4",
          "ticks": 8256,
          "time": 28.666638,
          "velocity": 0.7874015748031497
        },
        {
          "duration": 0.08333324999999903,
          "durationTicks": 24,
          "midi": 64,
          "name": "E4",
          "ticks": 8304,
          "time": 28.8333045,
          "velocity": 0.7874015748031497
        },
        {
          "duration": 0.1666665000000016,
          "durationTicks": 48,
          "midi": 76,
          "name": "E5",
          "ticks": 8352,
          "time": 28.999971,
          "velocity": 0.7874015748031497
        },
        {
          "duration": 0.1666665000000016,
          "durationTicks": 48,
          "midi": 76,
          "name": "E5",
          "ticks": 8544,
          "time": 29.666636999999998,
          "velocity": 0.7874015748031497
        },
        {
          "duration": 0.12499987500000032,
          "durationTicks": 36,
          "midi": 71,
          "name": "B4",
          "ticks": 8640,
          "time": 29.999969999999998,
          "velocity": 0.7874015748031497
        },
        {
          "duration": 0.04166662500000129,
          "durationTicks": 12,
          "midi": 71,
          "name": "B4",
          "ticks": 8688,
          "time": 30.1666365,
          "velocity": 0.7874015748031497
        },
        {
          "duration": 0.04166662499999774,
          "durationTicks": 12,
          "midi": 71,
          "name": "B4",
          "ticks": 8736,
          "time": 30.333303,
          "velocity": 0.7874015748031497
        },
        {
          "duration": 0.12499987500000032,
          "durationTicks": 36,
          "midi": 71,
          "name": "B4",
          "ticks": 8784,
          "time": 30.4999695,
          "velocity": 0.7874015748031497
        },
        {
          "duration": 0.04166662499999774,
          "durationTicks": 12,
          "midi": 71,
          "name": "B4",
          "ticks": 8832,
          "time": 30.666636,
          "velocity": 0.7874015748031497
        },
        {
          "duration": 0.04166662500000129,
          "durationTicks": 12,
          "midi": 71,
          "name": "B4",
          "ticks": 8880,
          "time": 30.8333025,
          "velocity": 0.7874015748031497
        },
        {
          "duration": 0.12499987500000032,
          "durationTicks": 36,
          "midi": 71,
          "name": "B4",
          "ticks": 8928,
          "time": 30.999969,
          "velocity": 0.7874015748031497
        },
        {
          "duration": 0.04166662500000129,
          "durationTicks": 12,
          "midi": 71,
          "name": "B4",
          "ticks": 8976,
          "time": 31.166635499999998,
          "velocity": 0.7874015748031497
        },
        {
          "duration": 0.04166662499999774,
          "durationTicks": 12,
          "midi": 71,
          "name": "B4",
          "ticks": 9024,
          "time": 31.333302,
          "velocity": 0.7874015748031497
        },
        {
          "duration": 0.04166662500000129,
          "durationTicks": 12,
          "midi": 71,
          "name": "B4",
          "ticks": 9048,
          "time": 31.41663525,
          "velocity": 0.7874015748031497
        },
        {
          "duration": 0.12499987500000032,
          "durationTicks": 36,
          "midi": 71,
          "name": "B4",
          "ticks": 9072,
          "time": 31.499968499999998,
          "velocity": 0.7874015748031497
        },
        {
          "duration": 0.04166662500000129,
          "durationTicks": 12,
          "midi": 71,
          "name": "B4",
          "ticks": 9120,
          "time": 31.666635,
          "velocity": 0.7874015748031497
        },
        {
          "duration": 0.04166662500000129,
          "durationTicks": 12,
          "midi": 71,
          "name": "B4",
          "ticks": 9144,
          "time": 31.74996825,
          "velocity": 0.7874015748031497
        },
        {
          "duration": 0.04166662500000129,
          "durationTicks": 12,
          "midi": 69,
          "name": "A4",
          "ticks": 9168,
          "time": 31.833301499999997,
          "velocity": 0.7874015748031497
        },
        {
          "duration": 0.04166662499999774,
          "durationTicks": 12,
          "midi": 69,
          "name": "A4",
          "ticks": 9192,
          "time": 31.91663475,
          "velocity": 0.7874015748031497
        },
        {
          "duration": 0.04166662500000129,
          "durationTicks": 12,
          "midi": 69,
          "name": "A4",
          "ticks": 9204,
          "time": 31.958301374999998,
          "velocity": 0.7874015748031497
        },
        {
          "duration": 0.1666665000000016,
          "durationTicks": 48,
          "midi": 71,
          "name": "B4",
          "ticks": 9216,
          "time": 31.999968,
          "velocity": 0.7874015748031497
        },
        {
          "duration": 0.16666649999999805,
          "durationTicks": 48,
          "midi": 71,
          "name": "B4",
          "ticks": 9312,
          "time": 32.333301,
          "velocity": 0.7874015748031497
        },
        {
          "duration": 0.08333325000000258,
          "durationTicks": 24,
          "midi": 69,
          "name": "A4",
          "ticks": 9360,
          "time": 32.4999675,
          "velocity": 0.7874015748031497
        },
        {
          "duration": 0.16666649999999805,
          "durationTicks": 48,
          "midi": 73,
          "name": "C#5",
          "ticks": 9408,
          "time": 32.666634,
          "velocity": 0.7874015748031497
        },
        {
          "duration": 0.08333325000000258,
          "durationTicks": 24,
          "midi": 76,
          "name": "E5",
          "ticks": 9456,
          "time": 32.8333005,
          "velocity": 0.7874015748031497
        },
        {
          "duration": 0.16666649999999805,
          "durationTicks": 48,
          "midi": 71,
          "name": "B4",
          "ticks": 9504,
          "time": 32.999967,
          "velocity": 0.7874015748031497
        },
        {
          "duration": 0.08333325000000258,
          "durationTicks": 24,
          "midi": 69,
          "name": "A4",
          "ticks": 9552,
          "time": 33.166633499999996,
          "velocity": 0.7874015748031497
        },
        {
          "duration": 0.16666649999999805,
          "durationTicks": 48,
          "midi": 73,
          "name": "C#5",
          "ticks": 9600,
          "time": 33.3333,
          "velocity": 0.7874015748031497
        },
        {
          "duration": 0.08333325000000258,
          "durationTicks": 24,
          "midi": 76,
          "name": "E5",
          "ticks": 9648,
          "time": 33.4999665,
          "velocity": 0.7874015748031497
        },
        {
          "duration": 0.16666650000000516,
          "durationTicks": 48,
          "midi": 71,
          "name": "B4",
          "ticks": 9696,
          "time": 33.666633,
          "velocity": 0.7874015748031497
        },
        {
          "duration": 0.08333324999999547,
          "durationTicks": 24,
          "midi": 69,
          "name": "A4",
          "ticks": 9744,
          "time": 33.8332995,
          "velocity": 0.7874015748031497
        },
        {
          "duration": 0.16666649999999805,
          "durationTicks": 48,
          "midi": 69,
          "name": "A4",
          "ticks": 9792,
          "time": 33.999966,
          "velocity": 0.7874015748031497
        },
        {
          "duration": 0.08333325000000258,
          "durationTicks": 24,
          "midi": 64,
          "name": "E4",
          "ticks": 9840,
          "time": 34.1666325,
          "velocity": 0.7874015748031497
        },
        {
          "duration": 0.08333325000000258,
          "durationTicks": 24,
          "midi": 69,
          "name": "A4",
          "ticks": 9888,
          "time": 34.333299,
          "velocity": 0.7874015748031497
        },
        {
          "duration": 0.24999975000000063,
          "durationTicks": 72,
          "midi": 71,
          "name": "B4",
          "ticks": 9900,
          "time": 34.374965625,
          "velocity": 0.7874015748031497
        },
        {
          "duration": 0.08333325000000258,
          "durationTicks": 24,
          "midi": 69,
          "name": "A4",
          "ticks": 9984,
          "time": 34.666632,
          "velocity": 0.5196850393700787
        },
        {
          "duration": 0.24999975000000063,
          "durationTicks": 72,
          "midi": 71,
          "name": "B4",
          "ticks": 9996,
          "time": 34.708298625,
          "velocity": 0.5118110236220472
        },
        {
          "duration": 0.08333325000000258,
          "durationTicks": 24,
          "midi": 69,
          "name": "A4",
          "ticks": 10080,
          "time": 34.999964999999996,
          "velocity": 0.4645669291338583
        },
        {
          "duration": 0.24999975000000063,
          "durationTicks": 72,
          "midi": 71,
          "name": "B4",
          "ticks": 10092,
          "time": 35.041631625,
          "velocity": 0.4566929133858268
        },
        {
          "duration": 0.08333325000000258,
          "durationTicks": 24,
          "midi": 69,
          "name": "A4",
          "ticks": 10176,
          "time": 35.333298,
          "velocity": 0.4094488188976378
        },
        {
          "duration": 0.24999975000000063,
          "durationTicks": 72,
          "midi": 71,
          "name": "B4",
          "ticks": 10188,
          "time": 35.374964625,
          "velocity": 0.4094488188976378
        },
        {
          "duration": 0.08333324999999547,
          "durationTicks": 24,
          "midi": 69,
          "name": "A4",
          "ticks": 10272,
          "time": 35.666631,
          "velocity": 0.36220472440944884
        },
        {
          "duration": 0.24999975000000063,
          "durationTicks": 72,
          "midi": 71,
          "name": "B4",
          "ticks": 10284,
          "time": 35.708297625,
          "velocity": 0.3543307086614173
        },
        {
          "duration": 0.08333325000000258,
          "durationTicks": 24,
          "midi": 69,
          "name": "A4",
          "ticks": 10368,
          "time": 35.999964,
          "velocity": 0.30708661417322836
        },
        {
          "duration": 0.24999975000000063,
          "durationTicks": 72,
          "midi": 71,
          "name": "B4",
          "ticks": 10380,
          "time": 36.041630624999996,
          "velocity": 0.2992125984251969
        },
        {
          "duration": 0.08333324999999547,
          "durationTicks": 24,
          "midi": 69,
          "name": "A4",
          "ticks": 10464,
          "time": 36.333297,
          "velocity": 0.25984251968503935
        },
        {
          "duration": 0.24999975000000063,
          "durationTicks": 72,
          "midi": 71,
          "name": "B4",
          "ticks": 10476,
          "time": 36.374963625,
          "velocity": 0.25196850393700787
        },
        {
          "duration": 0.08333325000000258,
          "durationTicks": 24,
          "midi": 69,
          "name": "A4",
          "ticks": 10560,
          "time": 36.66663,
          "velocity": 0.2047244094488189
        },
        {
          "duration": 0.24999975000000063,
          "durationTicks": 72,
          "midi": 71,
          "name": "B4",
          "ticks": 10572,
          "time": 36.708296624999996,
          "velocity": 0.1968503937007874
        },
        {
          "duration": 0.08333324999999547,
          "durationTicks": 24,
          "midi": 69,
          "name": "A4",
          "ticks": 10656,
          "time": 36.999963,
          "velocity": 0.14960629921259844
        },
        {
          "duration": 0.24999975000000063,
          "durationTicks": 72,
          "midi": 71,
          "name": "B4",
          "ticks": 10668,
          "time": 37.041629625,
          "velocity": 0.14173228346456693
        },
        {
          "duration": 0.08333325000000258,
          "durationTicks": 24,
          "midi": 74,
          "name": "D5",
          "ticks": 11616,
          "time": 40.333293,
          "velocity": 0.8110236220472441
        },
        {
          "duration": 0.04166662500000484,
          "durationTicks": 12,
          "midi": 73,
          "name": "C#5",
          "ticks": 11664,
          "time": 40.499959499999996,
          "velocity": 0.8110236220472441
        },
        {
          "duration": 0.12499987500000032,
          "durationTicks": 36,
          "midi": 74,
          "name": "D5",
          "ticks": 11676,
          "time": 40.541626125,
          "velocity": 0.8110236220472441
        },
        {
          "duration": 0.08333324999999547,
          "durationTicks": 24,
          "midi": 76,
          "name": "E5",
          "ticks": 11712,
          "time": 40.666626,
          "velocity": 0.8110236220472441
        },
        {
          "duration": 0.08333325000000258,
          "durationTicks": 24,
          "midi": 76,
          "name": "E5",
          "ticks": 11760,
          "time": 40.8332925,
          "velocity": 0.8110236220472441
        },
        {
          "duration": 0.04166662499999774,
          "durationTicks": 12,
          "midi": 74,
          "name": "D5",
          "ticks": 11784,
          "time": 40.91662575,
          "velocity": 0.6062992125984252
        },
        {
          "duration": 0.04166662500000484,
          "durationTicks": 12,
          "midi": 74,
          "name": "D5",
          "ticks": 11808,
          "time": 40.999959,
          "velocity": 0.6062992125984252
        },
        {
          "duration": 0.04166662499999774,
          "durationTicks": 12,
          "midi": 74,
          "name": "D5",
          "ticks": 11832,
          "time": 41.08329225,
          "velocity": 0.6062992125984252
        },
        {
          "duration": 0.08333324999999547,
          "durationTicks": 24,
          "midi": 73,
          "name": "C#5",
          "ticks": 11856,
          "time": 41.1666255,
          "velocity": 0.8110236220472441
        },
        {
          "duration": 0.12499987500000032,
          "durationTicks": 36,
          "midi": 74,
          "name": "D5",
          "ticks": 11868,
          "time": 41.208292125,
          "velocity": 0.8110236220472441
        },
        {
          "duration": 0.08333324999999547,
          "durationTicks": 24,
          "midi": 76,
          "name": "E5",
          "ticks": 11904,
          "time": 41.333292,
          "velocity": 0.8110236220472441
        },
        {
          "duration": 0.08333325000000258,
          "durationTicks": 24,
          "midi": 76,
          "name": "E5",
          "ticks": 11952,
          "time": 41.4999585,
          "velocity": 0.8110236220472441
        },
        {
          "duration": 0.04166662500000484,
          "durationTicks": 12,
          "midi": 74,
          "name": "D5",
          "ticks": 12000,
          "time": 41.666624999999996,
          "velocity": 0.8110236220472441
        },
        {
          "duration": 0.04166662499999774,
          "durationTicks": 12,
          "midi": 74,
          "name": "D5",
          "ticks": 12024,
          "time": 41.74995825,
          "velocity": 0.8110236220472441
        },
        {
          "duration": 0.08333324999999547,
          "durationTicks": 24,
          "midi": 73,
          "name": "C#5",
          "ticks": 12048,
          "time": 41.8332915,
          "velocity": 0.8110236220472441
        },
        {
          "duration": 0.12499987500000032,
          "durationTicks": 36,
          "midi": 74,
          "name": "D5",
          "ticks": 12060,
          "time": 41.874958125,
          "velocity": 0.8110236220472441
        },
        {
          "duration": 0.04166662499999774,
          "durationTicks": 12,
          "midi": 74,
          "name": "D5",
          "ticks": 12096,
          "time": 41.999958,
          "velocity": 0.8110236220472441
        },
        {
          "duration": 0.16666649999999805,
          "durationTicks": 48,
          "midi": 74,
          "name": "D5",
          "ticks": 12144,
          "time": 42.1666245,
          "velocity": 0.8110236220472441
        },
        {
          "duration": 0.08333324999999547,
          "durationTicks": 24,
          "midi": 74,
          "name": "D5",
          "ticks": 14688,
          "time": 50.999949,
          "velocity": 0.8110236220472441
        },
        {
          "duration": 0.04166662499999774,
          "durationTicks": 12,
          "midi": 73,
          "name": "C#5",
          "ticks": 14736,
          "time": 51.1666155,
          "velocity": 0.8110236220472441
        },
        {
          "duration": 0.12499987500000032,
          "durationTicks": 36,
          "midi": 74,
          "name": "D5",
          "ticks": 14748,
          "time": 51.208282125,
          "velocity": 0.8110236220472441
        },
        {
          "duration": 0.08333325000000258,
          "durationTicks": 24,
          "midi": 76,
          "name": "E5",
          "ticks": 14784,
          "time": 51.333282,
          "velocity": 0.8110236220472441
        },
        {
          "duration": 0.08333325000000258,
          "durationTicks": 24,
          "midi": 76,
          "name": "E5",
          "ticks": 14832,
          "time": 51.499948499999995,
          "velocity": 0.8110236220472441
        },
        {
          "duration": 0.04166662499999774,
          "durationTicks": 12,
          "midi": 74,
          "name": "D5",
          "ticks": 14856,
          "time": 51.58328175,
          "velocity": 0.6062992125984252
        },
        {
          "duration": 0.04166662499999774,
          "durationTicks": 12,
          "midi": 74,
          "name": "D5",
          "ticks": 14880,
          "time": 51.666615,
          "velocity": 0.6062992125984252
        },
        {
          "duration": 0.04166662500000484,
          "durationTicks": 12,
          "midi": 74,
          "name": "D5",
          "ticks": 14904,
          "time": 51.749948249999996,
          "velocity": 0.6062992125984252
        },
        {
          "duration": 0.08333325000000258,
          "durationTicks": 24,
          "midi": 73,
          "name": "C#5",
          "ticks": 14928,
          "time": 51.8332815,
          "velocity": 0.8110236220472441
        },
        {
          "duration": 0.12499987500000032,
          "durationTicks": 36,
          "midi": 74,
          "name": "D5",
          "ticks": 14940,
          "time": 51.874948124999996,
          "velocity": 0.8110236220472441
        },
        {
          "duration": 0.08333325000000258,
          "durationTicks": 24,
          "midi": 76,
          "name": "E5",
          "ticks": 14976,
          "time": 51.999947999999996,
          "velocity": 0.8110236220472441
        },
        {
          "duration": 0.08333324999999547,
          "durationTicks": 24,
          "midi": 76,
          "name": "E5",
          "ticks": 15024,
          "time": 52.1666145,
          "velocity": 0.8110236220472441
        },
        {
          "duration": 0.04166662499999774,
          "durationTicks": 12,
          "midi": 74,
          "name": "D5",
          "ticks": 15072,
          "time": 52.333281,
          "velocity": 0.8110236220472441
        },
        {
          "duration": 0.04166662500000484,
          "durationTicks": 12,
          "midi": 74,
          "name": "D5",
          "ticks": 15096,
          "time": 52.416614249999995,
          "velocity": 0.8110236220472441
        },
        {
          "duration": 0.08333325000000258,
          "durationTicks": 24,
          "midi": 73,
          "name": "C#5",
          "ticks": 15120,
          "time": 52.4999475,
          "velocity": 0.8110236220472441
        },
        {
          "duration": 0.12499987500000032,
          "durationTicks": 36,
          "midi": 74,
          "name": "D5",
          "ticks": 15132,
          "time": 52.541614124999995,
          "velocity": 0.8110236220472441
        },
        {
          "duration": 0.04166662500000484,
          "durationTicks": 12,
          "midi": 74,
          "name": "D5",
          "ticks": 15168,
          "time": 52.666613999999996,
          "velocity": 0.8110236220472441
        },
        {
          "duration": 0.16666649999999805,
          "durationTicks": 48,
          "midi": 74,
          "name": "D5",
          "ticks": 15216,
          "time": 52.8332805,
          "velocity": 0.8110236220472441
        },
        {
          "duration": 0.16666650000000516,
          "durationTicks": 48,
          "midi": 73,
          "name": "C#5",
          "ticks": 19392,
          "time": 67.333266,
          "velocity": 0.8110236220472441
        },
        {
          "duration": 0.08333324999999547,
          "durationTicks": 24,
          "midi": 76,
          "name": "E5",
          "ticks": 19440,
          "time": 67.4999325,
          "velocity": 0.8110236220472441
        },
        {
          "duration": 0.16666649999999095,
          "durationTicks": 48,
          "midi": 71,
          "name": "B4",
          "ticks": 19488,
          "time": 67.666599,
          "velocity": 0.8110236220472441
        },
        {
          "duration": 0.08333324999999547,
          "durationTicks": 24,
          "midi": 69,
          "name": "A4",
          "ticks": 19536,
          "time": 67.8332655,
          "velocity": 0.8110236220472441
        },
        {
          "duration": 0.16666649999999095,
          "durationTicks": 48,
          "midi": 73,
          "name": "C#5",
          "ticks": 19584,
          "time": 67.999932,
          "velocity": 0.8110236220472441
        },
        {
          "duration": 0.08333325000000968,
          "durationTicks": 24,
          "midi": 76,
          "name": "E5",
          "ticks": 19632,
          "time": 68.16659849999999,
          "velocity": 0.8110236220472441
        },
        {
          "duration": 0.16666650000000516,
          "durationTicks": 48,
          "midi": 71,
          "name": "B4",
          "ticks": 19680,
          "time": 68.333265,
          "velocity": 0.8110236220472441
        },
        {
          "duration": 0.08333324999999547,
          "durationTicks": 24,
          "midi": 69,
          "name": "A4",
          "ticks": 19728,
          "time": 68.4999315,
          "velocity": 0.8110236220472441
        },
        {
          "duration": 0.16666650000000516,
          "durationTicks": 48,
          "midi": 69,
          "name": "A4",
          "ticks": 19776,
          "time": 68.666598,
          "velocity": 0.8110236220472441
        },
        {
          "duration": 0.08333324999999547,
          "durationTicks": 24,
          "midi": 64,
          "name": "E4",
          "ticks": 19824,
          "time": 68.8332645,
          "velocity": 0.8110236220472441
        },
        {
          "duration": 0.08333324999999547,
          "durationTicks": 24,
          "midi": 69,
          "name": "A4",
          "ticks": 19872,
          "time": 68.999931,
          "velocity": 0.8110236220472441
        },
        {
          "duration": 0.24999975000000063,
          "durationTicks": 72,
          "midi": 71,
          "name": "B4",
          "ticks": 19884,
          "time": 69.041597625,
          "velocity": 0.8110236220472441
        },
        {
          "duration": 0.16666649999999095,
          "durationTicks": 48,
          "midi": 76,
          "name": "E5",
          "ticks": 42336,
          "time": 146.999853,
          "velocity": 0.8110236220472441
        },
        {
          "duration": 0.12499987500001453,
          "durationTicks": 36,
          "midi": 71,
          "name": "B4",
          "ticks": 42432,
          "time": 147.33318599999998,
          "velocity": 0.8110236220472441
        },
        {
          "duration": 0.04166662500000484,
          "durationTicks": 12,
          "midi": 71,
          "name": "B4",
          "ticks": 42480,
          "time": 147.4998525,
          "velocity": 0.8110236220472441
        },
        {
          "duration": 0.04166662500000484,
          "durationTicks": 12,
          "midi": 71,
          "name": "B4",
          "ticks": 42528,
          "time": 147.666519,
          "velocity": 0.8110236220472441
        },
        {
          "duration": 0.12499987500001453,
          "durationTicks": 36,
          "midi": 71,
          "name": "B4",
          "ticks": 42576,
          "time": 147.83318549999998,
          "velocity": 0.8110236220472441
        },
        {
          "duration": 0.04166662500000484,
          "durationTicks": 12,
          "midi": 71,
          "name": "B4",
          "ticks": 42624,
          "time": 147.999852,
          "velocity": 0.8110236220472441
        },
        {
          "duration": 0.04166662500000484,
          "durationTicks": 12,
          "midi": 71,
          "name": "B4",
          "ticks": 42672,
          "time": 148.1665185,
          "velocity": 0.8110236220472441
        },
        {
          "duration": 0.16666650000001937,
          "durationTicks": 48,
          "midi": 69,
          "name": "A4",
          "ticks": 42720,
          "time": 148.333185,
          "velocity": 0.8110236220472441
        },
        {
          "duration": 0.04166662499997642,
          "durationTicks": 12,
          "midi": 71,
          "name": "B4",
          "ticks": 42768,
          "time": 148.4998515,
          "velocity": 0.8110236220472441
        },
        {
          "duration": 0.16666649999999095,
          "durationTicks": 48,
          "midi": 69,
          "name": "A4",
          "ticks": 42816,
          "time": 148.666518,
          "velocity": 0.8110236220472441
        },
        {
          "duration": 0.08333325000000968,
          "durationTicks": 24,
          "midi": 71,
          "name": "B4",
          "ticks": 42864,
          "time": 148.8331845,
          "velocity": 0.8110236220472441
        },
        {
          "duration": 0.16666649999999095,
          "durationTicks": 48,
          "midi": 76,
          "name": "E5",
          "ticks": 42912,
          "time": 148.999851,
          "velocity": 0.8110236220472441
        },
        {
          "duration": 0.16666649999999095,
          "durationTicks": 48,
          "midi": 76,
          "name": "E5",
          "ticks": 43104,
          "time": 149.666517,
          "velocity": 0.8110236220472441
        },
        {
          "duration": 0.1249998749999861,
          "durationTicks": 36,
          "midi": 71,
          "name": "B4",
          "ticks": 43200,
          "time": 149.99985,
          "velocity": 0.8110236220472441
        },
        {
          "duration": 0.04166662500000484,
          "durationTicks": 12,
          "midi": 71,
          "name": "B4",
          "ticks": 43248,
          "time": 150.1665165,
          "velocity": 0.8110236220472441
        },
        {
          "duration": 0.04166662500000484,
          "durationTicks": 12,
          "midi": 71,
          "name": "B4",
          "ticks": 43296,
          "time": 150.333183,
          "velocity": 0.8110236220472441
        },
        {
          "duration": 0.12499987500001453,
          "durationTicks": 36,
          "midi": 71,
          "name": "B4",
          "ticks": 43344,
          "time": 150.49984949999998,
          "velocity": 0.8110236220472441
        },
        {
          "duration": 0.04166662500000484,
          "durationTicks": 12,
          "midi": 71,
          "name": "B4",
          "ticks": 43392,
          "time": 150.666516,
          "velocity": 0.8110236220472441
        },
        {
          "duration": 0.04166662500000484,
          "durationTicks": 12,
          "midi": 71,
          "name": "B4",
          "ticks": 43440,
          "time": 150.8331825,
          "velocity": 0.8110236220472441
        },
        {
          "duration": 0.16666650000001937,
          "durationTicks": 48,
          "midi": 69,
          "name": "A4",
          "ticks": 43488,
          "time": 150.99984899999998,
          "velocity": 0.8110236220472441
        },
        {
          "duration": 0.04166662500000484,
          "durationTicks": 12,
          "midi": 71,
          "name": "B4",
          "ticks": 43536,
          "time": 151.1665155,
          "velocity": 0.8110236220472441
        },
        {
          "duration": 0.16666649999999095,
          "durationTicks": 48,
          "midi": 69,
          "name": "A4",
          "ticks": 43584,
          "time": 151.333182,
          "velocity": 0.8110236220472441
        },
        {
          "duration": 0.08333325000000968,
          "durationTicks": 24,
          "midi": 64,
          "name": "E4",
          "ticks": 43632,
          "time": 151.49984849999998,
          "velocity": 0.8110236220472441
        },
        {
          "duration": 0.16666649999999095,
          "durationTicks": 48,
          "midi": 76,
          "name": "E5",
          "ticks": 43680,
          "time": 151.666515,
          "velocity": 0.8110236220472441
        },
        {
          "duration": 0.16666649999999095,
          "durationTicks": 48,
          "midi": 76,
          "name": "E5",
          "ticks": 43872,
          "time": 152.333181,
          "velocity": 0.8110236220472441
        },
        {
          "duration": 0.1249998749999861,
          "durationTicks": 36,
          "midi": 71,
          "name": "B4",
          "ticks": 43968,
          "time": 152.666514,
          "velocity": 0.8110236220472441
        },
        {
          "duration": 0.04166662500000484,
          "durationTicks": 12,
          "midi": 71,
          "name": "B4",
          "ticks": 44016,
          "time": 152.8331805,
          "velocity": 0.8110236220472441
        },
        {
          "duration": 0.04166662500000484,
          "durationTicks": 12,
          "midi": 71,
          "name": "B4",
          "ticks": 44064,
          "time": 152.999847,
          "velocity": 0.8110236220472441
        },
        {
          "duration": 0.1249998749999861,
          "durationTicks": 36,
          "midi": 71,
          "name": "B4",
          "ticks": 44112,
          "time": 153.1665135,
          "velocity": 0.8110236220472441
        },
        {
          "duration": 0.04166662500000484,
          "durationTicks": 12,
          "midi": 71,
          "name": "B4",
          "ticks": 44160,
          "time": 153.33318,
          "velocity": 0.8110236220472441
        },
        {
          "duration": 0.04166662500000484,
          "durationTicks": 12,
          "midi": 71,
          "name": "B4",
          "ticks": 44208,
          "time": 153.4998465,
          "velocity": 0.8110236220472441
        },
        {
          "duration": 0.16666649999999095,
          "durationTicks": 48,
          "midi": 69,
          "name": "A4",
          "ticks": 44256,
          "time": 153.666513,
          "velocity": 0.8110236220472441
        },
        {
          "duration": 0.04166662500000484,
          "durationTicks": 12,
          "midi": 71,
          "name": "B4",
          "ticks": 44304,
          "time": 153.8331795,
          "velocity": 0.8110236220472441
        },
        {
          "duration": 0.16666649999999095,
          "durationTicks": 48,
          "midi": 69,
          "name": "A4",
          "ticks": 44352,
          "time": 153.999846,
          "velocity": 0.8110236220472441
        },
        {
          "duration": 0.04166662500000484,
          "durationTicks": 12,
          "midi": 71,
          "name": "B4",
          "ticks": 44400,
          "time": 154.16651249999998,
          "velocity": 0.8110236220472441
        },
        {
          "duration": 0.16666649999999095,
          "durationTicks": 48,
          "midi": 76,
          "name": "E5",
          "ticks": 44448,
          "time": 154.333179,
          "velocity": 0.8110236220472441
        },
        {
          "duration": 0.16666649999999095,
          "durationTicks": 48,
          "midi": 76,
          "name": "E5",
          "ticks": 44640,
          "time": 154.999845,
          "velocity": 0.8110236220472441
        },
        {
          "duration": 0.16666649999999095,
          "durationTicks": 48,
          "midi": 73,
          "name": "C#5",
          "ticks": 44736,
          "time": 155.333178,
          "velocity": 0.8110236220472441
        },
        {
          "duration": 0.08333325000000968,
          "durationTicks": 24,
          "midi": 76,
          "name": "E5",
          "ticks": 44784,
          "time": 155.4998445,
          "velocity": 0.8110236220472441
        },
        {
          "duration": 0.16666650000001937,
          "durationTicks": 48,
          "midi": 71,
          "name": "B4",
          "ticks": 44832,
          "time": 155.66651099999999,
          "velocity": 0.8110236220472441
        },
        {
          "duration": 0.08333324999998126,
          "durationTicks": 24,
          "midi": 69,
          "name": "A4",
          "ticks": 44880,
          "time": 155.8331775,
          "velocity": 0.8110236220472441
        },
        {
          "duration": 0.16666649999999095,
          "durationTicks": 48,
          "midi": 73,
          "name": "C#5",
          "ticks": 44928,
          "time": 155.999844,
          "velocity": 0.8110236220472441
        },
        {
          "duration": 0.08333325000000968,
          "durationTicks": 24,
          "midi": 76,
          "name": "E5",
          "ticks": 44976,
          "time": 156.1665105,
          "velocity": 0.8110236220472441
        },
        {
          "duration": 0.16666649999999095,
          "durationTicks": 48,
          "midi": 71,
          "name": "B4",
          "ticks": 45024,
          "time": 156.333177,
          "velocity": 0.8110236220472441
        },
        {
          "duration": 0.08333325000000968,
          "durationTicks": 24,
          "midi": 69,
          "name": "A4",
          "ticks": 45072,
          "time": 156.4998435,
          "velocity": 0.8110236220472441
        },
        {
          "duration": 0.16666650000001937,
          "durationTicks": 48,
          "midi": 69,
          "name": "A4",
          "ticks": 45120,
          "time": 156.66651,
          "velocity": 0.8110236220472441
        },
        {
          "duration": 0.08333324999998126,
          "durationTicks": 24,
          "midi": 64,
          "name": "E4",
          "ticks": 45168,
          "time": 156.8331765,
          "velocity": 0.8110236220472441
        },
        {
          "duration": 0.08333325000000968,
          "durationTicks": 24,
          "midi": 69,
          "name": "A4",
          "ticks": 45216,
          "time": 156.999843,
          "velocity": 0.8110236220472441
        },
        {
          "duration": 0.24999975000000063,
          "durationTicks": 72,
          "midi": 71,
          "name": "B4",
          "ticks": 45228,
          "time": 157.041509625,
          "velocity": 0.8110236220472441
        }
      ],
      "endOfTrackTicks": 45698
    },
    {
      "channel": 3,
      "controlChanges": {
        "6": [
          {
            "number": 6,
            "ticks": 0,
            "time": 0,
            "value": 0.09448818897637795
          },
          {
            "number": 6,
            "ticks": 0,
            "time": 0,
            "value": 0.09448818897637795
          },
          {
            "number": 6,
            "ticks": 0,
            "time": 0,
            "value": 0.09448818897637795
          },
          {
            "number": 6,
            "ticks": 45696,
            "time": 158.666508,
            "value": 0.09448818897637795
          },
          {
            "number": 6,
            "ticks": 45698,
            "time": 158.67345243749998,
            "value": 0.09448818897637795
          }
        ],
        "7": [
          {
            "number": 7,
            "ticks": 0,
            "time": 0,
            "value": 0.7874015748031497
          },
          {
            "number": 7,
            "ticks": 0,
            "time": 0,
            "value": 0.7874015748031497
          },
          {
            "number": 7,
            "ticks": 0,
            "time": 0,
            "value": 0.7874015748031497
          },
          {
            "number": 7,
            "ticks": 0,
            "time": 0,
            "value": 0.7874015748031497
          },
          {
            "number": 7,
            "ticks": 45696,
            "time": 158.666508,
            "value": 0.7874015748031497
          },
          {
            "number": 7,
            "ticks": 45698,
            "time": 158.67345243749998,
            "value": 0.7874015748031497
          }
        ],
        "10": [
          {
            "number": 10,
            "ticks": 0,
            "time": 0,
            "value": 0.5039370078740157
          },
          {
            "number": 10,
            "ticks": 0,
            "time": 0,
            "value": 0.5039370078740157
          },
          {
            "number": 10,
            "ticks": 0,
            "time": 0,
            "value": 0.5039370078740157
          },
          {
            "number": 10,
            "ticks": 0,
            "time": 0,
            "value": 0.5039370078740157
          },
          {
            "number": 10,
            "ticks": 45696,
            "time": 158.666508,
            "value": 0.5039370078740157
          },
          {
            "number": 10,
            "ticks": 45698,
            "time": 158.67345243749998,
            "value": 0.5039370078740157
          }
        ],
        "100": [
          {
            "number": 100,
            "ticks": 0,
            "time": 0,
            "value": 0
          },
          {
            "number": 100,
            "ticks": 0,
            "time": 0,
            "value": 0
          },
          {
            "number": 100,
            "ticks": 0,
            "time": 0,
            "value": 0
          },
          {
            "number": 100,
            "ticks": 45696,
            "time": 158.666508,
            "value": 0
          },
          {
            "number": 100,
            "ticks": 45698,
            "time": 158.67345243749998,
            "value": 0
          }
        ],
        "101": [
          {
            "number": 101,
            "ticks": 0,
            "time": 0,
            "value": 0
          },
          {
            "number": 101,
            "ticks": 0,
            "time": 0,
            "value": 0
          },
          {
            "number": 101,
            "ticks": 0,
            "time": 0,
            "value": 0
          },
          {
            "number": 101,
            "ticks": 45696,
            "time": 158.666508,
            "value": 0
          },
          {
            "number": 101,
            "ticks": 45698,
            "time": 158.67345243749998,
            "value": 0
          }
        ]
      },
      "pitchBends": [
        {
          "ticks": 0,
          "time": 0,
          "value": 0
        },
        {
          "ticks": 0,
          "time": 0,
          "value": 0
        },
        {
          "ticks": 0,
          "time": 0,
          "value": 0
        },
        {
          "ticks": 0,
          "time": 0,
          "value": 0
        },
        {
          "ticks": 45696,
          "time": 158.666508,
          "value": 0
        },
        {
          "ticks": 45698,
          "time": 158.67345243749998,
          "value": 0
        }
      ],
      "instrument": {
        "family": "piano",
        "number": 0,
        "name": "acoustic grand piano"
      },
      "name": "Synth",
      "notes": [
        {
          "duration": 0.024305531250000456,
          "durationTicks": 7,
          "midi": 93,
          "name": "A6",
          "ticks": 2496,
          "time": 8.666658,
          "velocity": 0.7952755905511811
        },
        {
          "duration": 0.02430553124999868,
          "durationTicks": 7,
          "midi": 81,
          "name": "A5",
          "ticks": 2504,
          "time": 8.69443575,
          "velocity": 0.5275590551181102
        },
        {
          "duration": 0.02430553124999868,
          "durationTicks": 7,
          "midi": 93,
          "name": "A6",
          "ticks": 2512,
          "time": 8.7222135,
          "velocity": 0.7637795275590551
        },
        {
          "duration": 0.024305531250000456,
          "durationTicks": 7,
          "midi": 81,
          "name": "A5",
          "ticks": 2520,
          "time": 8.749991249999999,
          "velocity": 0.4881889763779528
        },
        {
          "duration": 0.024305531250000456,
          "durationTicks": 7,
          "midi": 93,
          "name": "A6",
          "ticks": 2528,
          "time": 8.777769,
          "velocity": 0.7244094488188977
        },
        {
          "duration": 0.024305531250000456,
          "durationTicks": 7,
          "midi": 81,
          "name": "A5",
          "ticks": 2536,
          "time": 8.80554675,
          "velocity": 0.4409448818897638
        },
        {
          "duration": 0.024305531250000456,
          "durationTicks": 7,
          "midi": 93,
          "name": "A6",
          "ticks": 2544,
          "time": 8.8333245,
          "velocity": 0.6850393700787402
        },
        {
          "duration": 0.027777750000000268,
          "durationTicks": 8,
          "midi": 81,
          "name": "A5",
          "ticks": 2552,
          "time": 8.86110225,
          "velocity": 0.4015748031496063
        },
        {
          "duration": 0.027777750000000268,
          "durationTicks": 8,
          "midi": 93,
          "name": "A6",
          "ticks": 2560,
          "time": 8.88888,
          "velocity": 0.6456692913385826
        },
        {
          "duration": 0.02777774999999849,
          "durationTicks": 8,
          "midi": 81,
          "name": "A5",
          "ticks": 2568,
          "time": 8.91665775,
          "velocity": 0.36220472440944884
        },
        {
          "duration": 0.027777750000000268,
          "durationTicks": 8,
          "midi": 93,
          "name": "A6",
          "ticks": 2576,
          "time": 8.944435499999999,
          "velocity": 0.6062992125984252
        },
        {
          "duration": 0.027777750000000268,
          "durationTicks": 8,
          "midi": 81,
          "name": "A5",
          "ticks": 2584,
          "time": 8.97221325,
          "velocity": 0.31496062992125984
        },
        {
          "duration": 0.027777750000000268,
          "durationTicks": 8,
          "midi": 93,
          "name": "A6",
          "ticks": 2592,
          "time": 8.999991,
          "velocity": 0.5669291338582677
        },
        {
          "duration": 0.027777750000000268,
          "durationTicks": 8,
          "midi": 81,
          "name": "A5",
          "ticks": 2600,
          "time": 9.02776875,
          "velocity": 0.25984251968503935
        },
        {
          "duration": 0.027777750000000268,
          "durationTicks": 8,
          "midi": 93,
          "name": "A6",
          "ticks": 2608,
          "time": 9.0555465,
          "velocity": 0.5196850393700787
        },
        {
          "duration": 0.02777774999999849,
          "durationTicks": 8,
          "midi": 81,
          "name": "A5",
          "ticks": 2616,
          "time": 9.08332425,
          "velocity": 0.2283464566929134
        },
        {
          "duration": 0.027777750000002044,
          "durationTicks": 8,
          "midi": 93,
          "name": "A6",
          "ticks": 2624,
          "time": 9.111101999999999,
          "velocity": 0.48031496062992124
        },
        {
          "duration": 0.02777774999999849,
          "durationTicks": 8,
          "midi": 81,
          "name": "A5",
          "ticks": 2632,
          "time": 9.138879750000001,
          "velocity": 0.1889763779527559
        },
        {
          "duration": 0.027777750000000268,
          "durationTicks": 8,
          "midi": 93,
          "name": "A6",
          "ticks": 2640,
          "time": 9.1666575,
          "velocity": 0.4330708661417323
        },
        {
          "duration": 0.027777750000000268,
          "durationTicks": 8,
          "midi": 81,
          "name": "A5",
          "ticks": 2648,
          "time": 9.19443525,
          "velocity": 0.15748031496062992
        },
        {
          "duration": 0.027777750000000268,
          "durationTicks": 8,
          "midi": 93,
          "name": "A6",
          "ticks": 2656,
          "time": 9.222213,
          "velocity": 0.3937007874015748
        },
        {
          "duration": 0.02777774999999849,
          "durationTicks": 8,
          "midi": 81,
          "name": "A5",
          "ticks": 2664,
          "time": 9.24999075,
          "velocity": 0.12598425196850394
        },
        {
          "duration": 0.027777750000002044,
          "durationTicks": 8,
          "midi": 93,
          "name": "A6",
          "ticks": 2672,
          "time": 9.277768499999999,
          "velocity": 0.3464566929133858
        },
        {
          "duration": 0.02777774999999849,
          "durationTicks": 8,
          "midi": 81,
          "name": "A5",
          "ticks": 2680,
          "time": 9.30554625,
          "velocity": 0.08661417322834646
        },
        {
          "duration": 0.024305531250000456,
          "durationTicks": 7,
          "midi": 91,
          "name": "G6",
          "ticks": 2688,
          "time": 9.333324,
          "velocity": 0.7952755905511811
        },
        {
          "duration": 0.024305531250000456,
          "durationTicks": 7,
          "midi": 79,
          "name": "G5",
          "ticks": 2696,
          "time": 9.36110175,
          "velocity": 0.5275590551181102
        },
        {
          "duration": 0.02430553124999868,
          "durationTicks": 7,
          "midi": 91,
          "name": "G6",
          "ticks": 2704,
          "time": 9.3888795,
          "velocity": 0.7637795275590551
        },
        {
          "duration": 0.024305531250000456,
          "durationTicks": 7,
          "midi": 79,
          "name": "G5",
          "ticks": 2712,
          "time": 9.41665725,
          "velocity": 0.4881889763779528
        },
        {
          "duration": 0.024305531250000456,
          "durationTicks": 7,
          "midi": 91,
          "name": "G6",
          "ticks": 2720,
          "time": 9.444434999999999,
          "velocity": 0.7244094488188977
        },
        {
          "duration": 0.02430553124999868,
          "durationTicks": 7,
          "midi": 79,
          "name": "G5",
          "ticks": 2728,
          "time": 9.47221275,
          "velocity": 0.4409448818897638
        },
        {
          "duration": 0.024305531250000456,
          "durationTicks": 7,
          "midi": 91,
          "name": "G6",
          "ticks": 2736,
          "time": 9.4999905,
          "velocity": 0.6850393700787402
        },
        {
          "duration": 0.027777750000000268,
          "durationTicks": 8,
          "midi": 79,
          "name": "G5",
          "ticks": 2744,
          "time": 9.52776825,
          "velocity": 0.4015748031496063
        },
        {
          "duration": 0.027777750000000268,
          "durationTicks": 8,
          "midi": 91,
          "name": "G6",
          "ticks": 2752,
          "time": 9.555546,
          "velocity": 0.6456692913385826
        },
        {
          "duration": 0.027777750000000268,
          "durationTicks": 8,
          "midi": 79,
          "name": "G5",
          "ticks": 2760,
          "time": 9.58332375,
          "velocity": 0.36220472440944884
        },
        {
          "duration": 0.027777750000000268,
          "durationTicks": 8,
          "midi": 91,
          "name": "G6",
          "ticks": 2768,
          "time": 9.6111015,
          "velocity": 0.6062992125984252
        },
        {
          "duration": 0.02777774999999849,
          "durationTicks": 8,
          "midi": 79,
          "name": "G5",
          "ticks": 2776,
          "time": 9.63887925,
          "velocity": 0.31496062992125984
        },
        {
          "duration": 0.027777750000000268,
          "durationTicks": 8,
          "midi": 91,
          "name": "G6",
          "ticks": 2784,
          "time": 9.666656999999999,
          "velocity": 0.5669291338582677
        },
        {
          "duration": 0.027777750000000268,
          "durationTicks": 8,
          "midi": 79,
          "name": "G5",
          "ticks": 2792,
          "time": 9.69443475,
          "velocity": 0.2677165354330709
        },
        {
          "duration": 0.027777750000000268,
          "durationTicks": 8,
          "midi": 91,
          "name": "G6",
          "ticks": 2800,
          "time": 9.7222125,
          "velocity": 0.5118110236220472
        },
        {
          "duration": 0.027777750000000268,
          "durationTicks": 8,
          "midi": 79,
          "name": "G5",
          "ticks": 2808,
          "time": 9.74999025,
          "velocity": 0.2125984251968504
        },
        {
          "duration": 0.027777750000000268,
          "durationTicks": 8,
          "midi": 91,
          "name": "G6",
          "ticks": 2816,
          "time": 9.777768,
          "velocity": 0.4566929133858268
        },
        {
          "duration": 0.027777750000000268,
          "durationTicks": 8,
          "midi": 79,
          "name": "G5",
          "ticks": 2824,
          "time": 9.80554575,
          "velocity": 0.16535433070866143
        },
        {
          "duration": 0.02430553124999868,
          "durationTicks": 7,
          "midi": 89,
          "name": "F6",
          "ticks": 2832,
          "time": 9.8333235,
          "velocity": 0.7952755905511811
        },
        {
          "duration": 0.024305531250000456,
          "durationTicks": 7,
          "midi": 77,
          "name": "F5",
          "ticks": 2840,
          "time": 9.861101249999999,
          "velocity": 0.5275590551181102
        },
        {
          "duration": 0.024305531250000456,
          "durationTicks": 7,
          "midi": 89,
          "name": "F6",
          "ticks": 2848,
          "time": 9.888879,
          "velocity": 0.7637795275590551
        },
        {
          "duration": 0.024305531250000456,
          "durationTicks": 7,
          "midi": 77,
          "name": "F5",
          "ticks": 2856,
          "time": 9.91665675,
          "velocity": 0.4881889763779528
        },
        {
          "duration": 0.024305531250000456,
          "durationTicks": 7,
          "midi": 89,
          "name": "F6",
          "ticks": 2864,
          "time": 9.9444345,
          "velocity": 0.7244094488188977
        },
        {
          "duration": 0.02430553124999868,
          "durationTicks": 7,
          "midi": 77,
          "name": "F5",
          "ticks": 2872,
          "time": 9.97221225,
          "velocity": 0.4409448818897638
        },
        {
          "duration": 0.024305531250000456,
          "durationTicks": 7,
          "midi": 89,
          "name": "F6",
          "ticks": 2880,
          "time": 9.99999,
          "velocity": 0.6850393700787402
        },
        {
          "duration": 0.027777750000002044,
          "durationTicks": 8,
          "midi": 77,
          "name": "F5",
          "ticks": 2888,
          "time": 10.027767749999999,
          "velocity": 0.4015748031496063
        },
        {
          "duration": 0.02777774999999849,
          "durationTicks": 8,
          "midi": 89,
          "name": "F6",
          "ticks": 2896,
          "time": 10.055545500000001,
          "velocity": 0.6456692913385826
        },
        {
          "duration": 0.027777750000000268,
          "durationTicks": 8,
          "midi": 77,
          "name": "F5",
          "ticks": 2904,
          "time": 10.08332325,
          "velocity": 0.36220472440944884
        },
        {
          "duration": 0.027777750000000268,
          "durationTicks": 8,
          "midi": 89,
          "name": "F6",
          "ticks": 2912,
          "time": 10.111101,
          "velocity": 0.6062992125984252
        },
        {
          "duration": 0.027777750000000268,
          "durationTicks": 8,
          "midi": 77,
          "name": "F5",
          "ticks": 2920,
          "time": 10.13887875,
          "velocity": 0.31496062992125984
        },
        {
          "duration": 0.02777774999999849,
          "durationTicks": 8,
          "midi": 89,
          "name": "F6",
          "ticks": 2928,
          "time": 10.1666565,
          "velocity": 0.5669291338582677
        },
        {
          "duration": 0.027777750000002044,
          "durationTicks": 8,
          "midi": 77,
          "name": "F5",
          "ticks": 2936,
          "time": 10.194434249999999,
          "velocity": 0.2755905511811024
        },
        {
          "duration": 0.02777774999999849,
          "durationTicks": 8,
          "midi": 89,
          "name": "F6",
          "ticks": 2944,
          "time": 10.222212,
          "velocity": 0.5275590551181102
        },
        {
          "duration": 0.027777750000000268,
          "durationTicks": 8,
          "midi": 77,
          "name": "F5",
          "ticks": 2952,
          "time": 10.24998975,
          "velocity": 0.23622047244094488
        },
        {
          "duration": 0.027777750000000268,
          "durationTicks": 8,
          "midi": 89,
          "name": "F6",
          "ticks": 2960,
          "time": 10.2777675,
          "velocity": 0.48031496062992124
        },
        {
          "duration": 0.027777750000000268,
          "durationTicks": 8,
          "midi": 77,
          "name": "F5",
          "ticks": 2968,
          "time": 10.30554525,
          "velocity": 0.2047244094488189
        },
        {
          "duration": 0.024305531250000456,
          "durationTicks": 7,
          "midi": 88,
          "name": "E6",
          "ticks": 2976,
          "time": 10.333323,
          "velocity": 0.7952755905511811
        },
        {
          "duration": 0.024305531250000456,
          "durationTicks": 7,
          "midi": 76,
          "name": "E5",
          "ticks": 2984,
          "time": 10.361100749999999,
          "velocity": 0.5275590551181102
        },
        {
          "duration": 0.02430553124999868,
          "durationTicks": 7,
          "midi": 88,
          "name": "E6",
          "ticks": 2992,
          "time": 10.3888785,
          "velocity": 0.7637795275590551
        },
        {
          "duration": 0.024305531250000456,
          "durationTicks": 7,
          "midi": 76,
          "name": "E5",
          "ticks": 3000,
          "time": 10.416656249999999,
          "velocity": 0.4881889763779528
        },
        {
          "duration": 0.024305531250000456,
          "durationTicks": 7,
          "midi": 88,
          "name": "E6",
          "ticks": 3008,
          "time": 10.444434,
          "velocity": 0.7244094488188977
        },
        {
          "duration": 0.024305531250000456,
          "durationTicks": 7,
          "midi": 76,
          "name": "E5",
          "ticks": 3016,
          "time": 10.47221175,
          "velocity": 0.4409448818897638
        },
        {
          "duration": 0.024305531250000456,
          "durationTicks": 7,
          "midi": 86,
          "name": "D6",
          "ticks": 3024,
          "time": 10.4999895,
          "velocity": 0.6850393700787402
        },
        {
          "duration": 0.027777750000000268,
          "durationTicks": 8,
          "midi": 74,
          "name": "D5",
          "ticks": 3032,
          "time": 10.52776725,
          "velocity": 0.4015748031496063
        },
        {
          "duration": 0.02777774999999849,
          "durationTicks": 8,
          "midi": 86,
          "name": "D6",
          "ticks": 3040,
          "time": 10.555545,
          "velocity": 0.6456692913385826
        },
        {
          "duration": 0.027777750000000268,
          "durationTicks": 8,
          "midi": 74,
          "name": "D5",
          "ticks": 3048,
          "time": 10.583322749999999,
          "velocity": 0.36220472440944884
        },
        {
          "duration": 0.027777750000000268,
          "durationTicks": 8,
          "midi": 86,
          "name": "D6",
          "ticks": 3056,
          "time": 10.6111005,
          "velocity": 0.6062992125984252
        },
        {
          "duration": 0.027777750000000268,
          "durationTicks": 8,
          "midi": 74,
          "name": "D5",
          "ticks": 3064,
          "time": 10.63887825,
          "velocity": 0.31496062992125984
        },
        {
          "duration": 0.02430553124999868,
          "durationTicks": 7,
          "midi": 85,
          "name": "C#6",
          "ticks": 3072,
          "time": 10.666656,
          "velocity": 0.7952755905511811
        },
        {
          "duration": 0.024305531250000456,
          "durationTicks": 7,
          "midi": 73,
          "name": "C#5",
          "ticks": 3080,
          "time": 10.69443375,
          "velocity": 0.5275590551181102
        },
        {
          "duration": 0.024305531250002232,
          "durationTicks": 7,
          "midi": 85,
          "name": "C#6",
          "ticks": 3088,
          "time": 10.722211499999998,
          "velocity": 0.7637795275590551
        },
        {
          "duration": 0.02430553124999868,
          "durationTicks": 7,
          "midi": 73,
          "name": "C#5",
          "ticks": 3096,
          "time": 10.74998925,
          "velocity": 0.4881889763779528
        },
        {
          "duration": 0.02430553124999868,
          "durationTicks": 7,
          "midi": 85,
          "name": "C#6",
          "ticks": 3104,
          "time": 10.777767,
          "velocity": 0.7244094488188977
        },
        {
          "duration": 0.024305531250000456,
          "durationTicks": 7,
          "midi": 73,
          "name": "C#5",
          "ticks": 3112,
          "time": 10.80554475,
          "velocity": 0.4409448818897638
        },
        {
          "duration": 0.02430553124999868,
          "durationTicks": 7,
          "midi": 85,
          "name": "C#6",
          "ticks": 3120,
          "time": 10.8333225,
          "velocity": 0.6850393700787402
        },
        {
          "duration": 0.02777774999999849,
          "durationTicks": 8,
          "midi": 73,
          "name": "C#5",
          "ticks": 3128,
          "time": 10.86110025,
          "velocity": 0.4015748031496063
        },
        {
          "duration": 0.027777750000002044,
          "durationTicks": 8,
          "midi": 85,
          "name": "C#6",
          "ticks": 3136,
          "time": 10.888877999999998,
          "velocity": 0.6456692913385826
        },
        {
          "duration": 0.027777750000000268,
          "durationTicks": 8,
          "midi": 73,
          "name": "C#5",
          "ticks": 3144,
          "time": 10.91665575,
          "velocity": 0.36220472440944884
        },
        {
          "duration": 0.02777774999999849,
          "durationTicks": 8,
          "midi": 85,
          "name": "C#6",
          "ticks": 3152,
          "time": 10.9444335,
          "velocity": 0.6062992125984252
        },
        {
          "duration": 0.027777750000000268,
          "durationTicks": 8,
          "midi": 73,
          "name": "C#5",
          "ticks": 3160,
          "time": 10.972211249999999,
          "velocity": 0.31496062992125984
        },
        {
          "duration": 0.04166662500000129,
          "durationTicks": 12,
          "midi": 85,
          "name": "C#6",
          "ticks": 3264,
          "time": 11.333321999999999,
          "velocity": 0.6141732283464567
        },
        {
          "duration": 0.04166662500000129,
          "durationTicks": 12,
          "midi": 73,
          "name": "C#5",
          "ticks": 3269,
          "time": 11.35068309375,
          "velocity": 0.3858267716535433
        },
        {
          "duration": 0.04166662499999951,
          "durationTicks": 12,
          "midi": 85,
          "name": "C#6",
          "ticks": 3276,
          "time": 11.374988625,
          "velocity": 0.6141732283464567
        },
        {
          "duration": 0.04166662500000129,
          "durationTicks": 12,
          "midi": 88,
          "name": "E6",
          "ticks": 3312,
          "time": 11.499988499999999,
          "velocity": 0.6141732283464567
        },
        {
          "duration": 0.04166662500000129,
          "durationTicks": 12,
          "midi": 76,
          "name": "E5",
          "ticks": 3317,
          "time": 11.51734959375,
          "velocity": 0.3858267716535433
        },
        {
          "duration": 0.04166662499999951,
          "durationTicks": 12,
          "midi": 88,
          "name": "E6",
          "ticks": 3324,
          "time": 11.541655125,
          "velocity": 0.6141732283464567
        },
        {
          "duration": 0.04166662499999951,
          "durationTicks": 12,
          "midi": 83,
          "name": "B5",
          "ticks": 3360,
          "time": 11.666655,
          "velocity": 0.6141732283464567
        },
        {
          "duration": 0.04166662499999951,
          "durationTicks": 12,
          "midi": 71,
          "name": "B4",
          "ticks": 3365,
          "time": 11.684016093750001,
          "velocity": 0.3858267716535433
        },
        {
          "duration": 0.04166662499999951,
          "durationTicks": 12,
          "midi": 83,
          "name": "B5",
          "ticks": 3372,
          "time": 11.708321625,
          "velocity": 0.6141732283464567
        },
        {
          "duration": 0.04166662499999951,
          "durationTicks": 12,
          "midi": 81,
          "name": "A5",
          "ticks": 3408,
          "time": 11.8333215,
          "velocity": 0.6141732283464567
        },
        {
          "duration": 0.04166662499999951,
          "durationTicks": 12,
          "midi": 69,
          "name": "A4",
          "ticks": 3413,
          "time": 11.850682593750001,
          "velocity": 0.3858267716535433
        },
        {
          "duration": 0.04166662499999951,
          "durationTicks": 12,
          "midi": 81,
          "name": "A5",
          "ticks": 3420,
          "time": 11.874988125,
          "velocity": 0.6141732283464567
        },
        {
          "duration": 0.04166662499999951,
          "durationTicks": 12,
          "midi": 85,
          "name": "C#6",
          "ticks": 3456,
          "time": 11.999988,
          "velocity": 0.6141732283464567
        },
        {
          "duration": 0.04166662499999951,
          "durationTicks": 12,
          "midi": 73,
          "name": "C#5",
          "ticks": 3461,
          "time": 12.017349093750001,
          "velocity": 0.3858267716535433
        },
        {
          "duration": 0.04166662499999951,
          "durationTicks": 12,
          "midi": 85,
          "name": "C#6",
          "ticks": 3468,
          "time": 12.041654625,
          "velocity": 0.6141732283464567
        },
        {
          "duration": 0.04166662499999951,
          "durationTicks": 12,
          "midi": 88,
          "name": "E6",
          "ticks": 3504,
          "time": 12.1666545,
          "velocity": 0.6141732283464567
        },
        {
          "duration": 0.04166662499999951,
          "durationTicks": 12,
          "midi": 76,
          "name": "E5",
          "ticks": 3509,
          "time": 12.18401559375,
          "velocity": 0.3858267716535433
        },
        {
          "duration": 0.04166662499999951,
          "durationTicks": 12,
          "midi": 88,
          "name": "E6",
          "ticks": 3516,
          "time": 12.208321125,
          "velocity": 0.6141732283464567
        },
        {
          "duration": 0.04166662499999951,
          "durationTicks": 12,
          "midi": 83,
          "name": "B5",
          "ticks": 3552,
          "time": 12.333321,
          "velocity": 0.6141732283464567
        },
        {
          "duration": 0.04166662499999951,
          "durationTicks": 12,
          "midi": 71,
          "name": "B4",
          "ticks": 3557,
          "time": 12.35068209375,
          "velocity": 0.3858267716535433
        },
        {
          "duration": 0.04166662499999951,
          "durationTicks": 12,
          "midi": 83,
          "name": "B5",
          "ticks": 3564,
          "time": 12.374987625,
          "velocity": 0.6141732283464567
        },
        {
          "duration": 0.04166662499999951,
          "durationTicks": 12,
          "midi": 81,
          "name": "A5",
          "ticks": 3600,
          "time": 12.4999875,
          "velocity": 0.6141732283464567
        },
        {
          "duration": 0.04166662499999951,
          "durationTicks": 12,
          "midi": 69,
          "name": "A4",
          "ticks": 3605,
          "time": 12.51734859375,
          "velocity": 0.3858267716535433
        },
        {
          "duration": 0.04166662500000129,
          "durationTicks": 12,
          "midi": 81,
          "name": "A5",
          "ticks": 3612,
          "time": 12.541654124999999,
          "velocity": 0.6141732283464567
        },
        {
          "duration": 0.16666649999999983,
          "durationTicks": 48,
          "midi": 60,
          "name": "C4",
          "ticks": 3936,
          "time": 13.666653,
          "velocity": 0.6456692913385826
        },
        {
          "duration": 0.04166662499999951,
          "durationTicks": 12,
          "midi": 64,
          "name": "E4",
          "ticks": 3984,
          "time": 13.8333195,
          "velocity": 0.6456692913385826
        },
        {
          "duration": 0.04166662500000129,
          "durationTicks": 12,
          "midi": 64,
          "name": "E4",
          "ticks": 4008,
          "time": 13.916652749999999,
          "velocity": 0.7874015748031497
        },
        {
          "duration": 0.12499987500000032,
          "durationTicks": 36,
          "midi": 81,
          "name": "A5",
          "ticks": 4032,
          "time": 13.999986,
          "velocity": 0.7874015748031497
        },
        {
          "duration": 0.12499987500000032,
          "durationTicks": 36,
          "midi": 69,
          "name": "A4",
          "ticks": 4044,
          "time": 14.041652625,
          "velocity": 0.6456692913385826
        },
        {
          "duration": 0.12499987500000032,
          "durationTicks": 36,
          "midi": 77,
          "name": "F5",
          "ticks": 4080,
          "time": 14.1666525,
          "velocity": 0.7874015748031497
        },
        {
          "duration": 0.12499987500000032,
          "durationTicks": 36,
          "midi": 65,
          "name": "F4",
          "ticks": 4092,
          "time": 14.208319125,
          "velocity": 0.6456692913385826
        },
        {
          "duration": 0.12499987500000032,
          "durationTicks": 36,
          "midi": 81,
          "name": "A5",
          "ticks": 4128,
          "time": 14.333319,
          "velocity": 0.7874015748031497
        },
        {
          "duration": 0.12499987500000032,
          "durationTicks": 36,
          "midi": 69,
          "name": "A4",
          "ticks": 4140,
          "time": 14.374985624999999,
          "velocity": 0.6456692913385826
        },
        {
          "duration": 0.12499987500000032,
          "durationTicks": 36,
          "midi": 84,
          "name": "C6",
          "ticks": 4176,
          "time": 14.4999855,
          "velocity": 0.7874015748031497
        },
        {
          "duration": 0.12499987500000032,
          "durationTicks": 36,
          "midi": 72,
          "name": "C5",
          "ticks": 4188,
          "time": 14.541652124999999,
          "velocity": 0.6456692913385826
        },
        {
          "duration": 0.12499987500000032,
          "durationTicks": 36,
          "midi": 79,
          "name": "G5",
          "ticks": 4224,
          "time": 14.666652,
          "velocity": 0.7874015748031497
        },
        {
          "duration": 0.12499987499999854,
          "durationTicks": 36,
          "midi": 67,
          "name": "G4",
          "ticks": 4236,
          "time": 14.708318625,
          "velocity": 0.6456692913385826
        },
        {
          "duration": 0.12499987500000032,
          "durationTicks": 36,
          "midi": 77,
          "name": "F5",
          "ticks": 4272,
          "time": 14.833318499999999,
          "velocity": 0.7874015748031497
        },
        {
          "duration": 0.12499987499999854,
          "durationTicks": 36,
          "midi": 65,
          "name": "F4",
          "ticks": 4284,
          "time": 14.874985125,
          "velocity": 0.6456692913385826
        },
        {
          "duration": 0.12499987500000032,
          "durationTicks": 36,
          "midi": 81,
          "name": "A5",
          "ticks": 4320,
          "time": 14.999984999999999,
          "velocity": 0.7874015748031497
        },
        {
          "duration": 0.12499987500000032,
          "durationTicks": 36,
          "midi": 69,
          "name": "A4",
          "ticks": 4332,
          "time": 15.041651625,
          "velocity": 0.6456692913385826
        },
        {
          "duration": 0.12499987499999854,
          "durationTicks": 36,
          "midi": 89,
          "name": "F6",
          "ticks": 4368,
          "time": 15.1666515,
          "velocity": 0.7874015748031497
        },
        {
          "duration": 0.12499987500000032,
          "durationTicks": 36,
          "midi": 77,
          "name": "F5",
          "ticks": 4380,
          "time": 15.208318125,
          "velocity": 0.6456692913385826
        },
        {
          "duration": 0.12499987499999854,
          "durationTicks": 36,
          "midi": 77,
          "name": "F5",
          "ticks": 4416,
          "time": 15.333318,
          "velocity": 0.7874015748031497
        },
        {
          "duration": 0.12499987500000032,
          "durationTicks": 36,
          "midi": 65,
          "name": "F4",
          "ticks": 4428,
          "time": 15.374984625,
          "velocity": 0.6456692913385826
        },
        {
          "duration": 0.12499987500000032,
          "durationTicks": 36,
          "midi": 79,
          "name": "G5",
          "ticks": 4464,
          "time": 15.4999845,
          "velocity": 0.7874015748031497
        },
        {
          "duration": 0.12499987500000032,
          "durationTicks": 36,
          "midi": 67,
          "name": "G4",
          "ticks": 4476,
          "time": 15.541651125,
          "velocity": 0.6456692913385826
        },
        {
          "duration": 0.12499987500000032,
          "durationTicks": 36,
          "midi": 88,
          "name": "E6",
          "ticks": 4512,
          "time": 15.666651,
          "velocity": 0.7874015748031497
        },
        {
          "duration": 0.12499987500000032,
          "durationTicks": 36,
          "midi": 76,
          "name": "E5",
          "ticks": 4524,
          "time": 15.708317625,
          "velocity": 0.6456692913385826
        },
        {
          "duration": 0.12499987500000032,
          "durationTicks": 36,
          "midi": 86,
          "name": "D6",
          "ticks": 4560,
          "time": 15.8333175,
          "velocity": 0.7874015748031497
        },
        {
          "duration": 0.12499987500000032,
          "durationTicks": 36,
          "midi": 74,
          "name": "D5",
          "ticks": 4572,
          "time": 15.874984125,
          "velocity": 0.6456692913385826
        },
        {
          "duration": 0.04166662499999951,
          "durationTicks": 12,
          "midi": 76,
          "name": "E5",
          "ticks": 4608,
          "time": 15.999984,
          "velocity": 0.5511811023622047
        },
        {
          "duration": 0.0833332500000008,
          "durationTicks": 24,
          "midi": 85,
          "name": "C#6",
          "ticks": 4608,
          "time": 15.999984,
          "velocity": 0.8110236220472441
        },
        {
          "duration": 0.04166662500000129,
          "durationTicks": 12,
          "midi": 73,
          "name": "C#5",
          "ticks": 4620,
          "time": 16.041650625,
          "velocity": 0.5905511811023622
        },
        {
          "duration": 0.08333324999999903,
          "durationTicks": 24,
          "midi": 85,
          "name": "C#6",
          "ticks": 4632,
          "time": 16.08331725,
          "velocity": 0.7716535433070866
        },
        {
          "duration": 0.04166662499999774,
          "durationTicks": 12,
          "midi": 76,
          "name": "E5",
          "ticks": 4632,
          "time": 16.08331725,
          "velocity": 0.5275590551181102
        },
        {
          "duration": 0.04166662500000129,
          "durationTicks": 12,
          "midi": 73,
          "name": "C#5",
          "ticks": 4644,
          "time": 16.124983874999998,
          "velocity": 0.5590551181102362
        },
        {
          "duration": 0.08333324999999903,
          "durationTicks": 24,
          "midi": 85,
          "name": "C#6",
          "ticks": 4656,
          "time": 16.1666505,
          "velocity": 0.7401574803149606
        },
        {
          "duration": 0.04166662500000129,
          "durationTicks": 12,
          "midi": 76,
          "name": "E5",
          "ticks": 4656,
          "time": 16.1666505,
          "velocity": 0.5039370078740157
        },
        {
          "duration": 0.04166662499999774,
          "durationTicks": 12,
          "midi": 73,
          "name": "C#5",
          "ticks": 4668,
          "time": 16.208317125,
          "velocity": 0.5275590551181102
        },
        {
          "duration": 0.08333325000000258,
          "durationTicks": 24,
          "midi": 85,
          "name": "C#6",
          "ticks": 4680,
          "time": 16.24998375,
          "velocity": 0.7007874015748031
        },
        {
          "duration": 0.04166662500000129,
          "durationTicks": 12,
          "midi": 76,
          "name": "E5",
          "ticks": 4680,
          "time": 16.24998375,
          "velocity": 0.47244094488188976
        },
        {
          "duration": 0.04166662500000129,
          "durationTicks": 12,
          "midi": 73,
          "name": "C#5",
          "ticks": 4692,
          "time": 16.291650375,
          "velocity": 0.49606299212598426
        },
        {
          "duration": 0.08333324999999903,
          "durationTicks": 24,
          "midi": 85,
          "name": "C#6",
          "ticks": 4704,
          "time": 16.333317,
          "velocity": 0.6614173228346457
        },
        {
          "duration": 0.04166662499999774,
          "durationTicks": 12,
          "midi": 76,
          "name": "E5",
          "ticks": 4704,
          "time": 16.333317,
          "velocity": 0.44881889763779526
        },
        {
          "duration": 0.04166662500000129,
          "durationTicks": 12,
          "midi": 73,
          "name": "C#5",
          "ticks": 4716,
          "time": 16.374983625,
          "velocity": 0.4645669291338583
        },
        {
          "duration": 0.1666665000000016,
          "durationTicks": 48,
          "midi": 62,
          "name": "D4",
          "ticks": 5472,
          "time": 18.999981,
          "velocity": 0.6456692913385826
        },
        {
          "duration": 0.04166662500000129,
          "durationTicks": 12,
          "midi": 69,
          "name": "A4",
          "ticks": 5520,
          "time": 19.1666475,
          "velocity": 0.6456692913385826
        },
        {
          "duration": 0.04166662500000129,
          "durationTicks": 12,
          "midi": 69,
          "name": "A4",
          "ticks": 5544,
          "time": 19.24998075,
          "velocity": 0.6456692913385826
        },
        {
          "duration": 0.12499987500000032,
          "durationTicks": 36,
          "midi": 81,
          "name": "A5",
          "ticks": 5568,
          "time": 19.333313999999998,
          "velocity": 0.7874015748031497
        },
        {
          "duration": 0.12499987500000032,
          "durationTicks": 36,
          "midi": 69,
          "name": "A4",
          "ticks": 5580,
          "time": 19.374980625,
          "velocity": 0.6456692913385826
        },
        {
          "duration": 0.12499987500000032,
          "durationTicks": 36,
          "midi": 77,
          "name": "F5",
          "ticks": 5616,
          "time": 19.4999805,
          "velocity": 0.7874015748031497
        },
        {
          "duration": 0.12499987500000032,
          "durationTicks": 36,
          "midi": 65,
          "name": "F4",
          "ticks": 5628,
          "time": 19.541647125,
          "velocity": 0.6456692913385826
        },
        {
          "duration": 0.12499987499999676,
          "durationTicks": 36,
          "midi": 81,
          "name": "A5",
          "ticks": 5664,
          "time": 19.666647,
          "velocity": 0.7874015748031497
        },
        {
          "duration": 0.12499987500000032,
          "durationTicks": 36,
          "midi": 69,
          "name": "A4",
          "ticks": 5676,
          "time": 19.708313625,
          "velocity": 0.6456692913385826
        },
        {
          "duration": 0.12499987500000032,
          "durationTicks": 36,
          "midi": 84,
          "name": "C6",
          "ticks": 5712,
          "time": 19.8333135,
          "velocity": 0.7874015748031497
        },
        {
          "duration": 0.12499987500000032,
          "durationTicks": 36,
          "midi": 72,
          "name": "C5",
          "ticks": 5724,
          "time": 19.874980125,
          "velocity": 0.6456692913385826
        },
        {
          "duration": 0.12499987500000032,
          "durationTicks": 36,
          "midi": 79,
          "name": "G5",
          "ticks": 5760,
          "time": 19.99998,
          "velocity": 0.7874015748031497
        },
        {
          "duration": 0.12499987500000032,
          "durationTicks": 36,
          "midi": 67,
          "name": "G4",
          "ticks": 5772,
          "time": 20.041646625,
          "velocity": 0.6456692913385826
        },
        {
          "duration": 0.12499987500000032,
          "durationTicks": 36,
          "midi": 77,
          "name": "F5",
          "ticks": 5808,
          "time": 20.1666465,
          "velocity": 0.7874015748031497
        },
        {
          "duration": 0.12499987500000032,
          "durationTicks": 36,
          "midi": 65,
          "name": "F4",
          "ticks": 5820,
          "time": 20.208313125,
          "velocity": 0.6456692913385826
        },
        {
          "duration": 0.12499987500000032,
          "durationTicks": 36,
          "midi": 81,
          "name": "A5",
          "ticks": 5856,
          "time": 20.333313,
          "velocity": 0.7874015748031497
        },
        {
          "duration": 0.12499987500000032,
          "durationTicks": 36,
          "midi": 69,
          "name": "A4",
          "ticks": 5868,
          "time": 20.374979624999998,
          "velocity": 0.6456692913385826
        },
        {
          "duration": 0.12499987500000032,
          "durationTicks": 36,
          "midi": 89,
          "name": "F6",
          "ticks": 5904,
          "time": 20.4999795,
          "velocity": 0.7874015748031497
        },
        {
          "duration": 0.12499987500000032,
          "durationTicks": 36,
          "midi": 77,
          "name": "F5",
          "ticks": 5916,
          "time": 20.541646125,
          "velocity": 0.6456692913385826
        },
        {
          "duration": 0.12499987500000032,
          "durationTicks": 36,
          "midi": 77,
          "name": "F5",
          "ticks": 5952,
          "time": 20.666646,
          "velocity": 0.7874015748031497
        },
        {
          "duration": 0.12499987500000032,
          "durationTicks": 36,
          "midi": 65,
          "name": "F4",
          "ticks": 5964,
          "time": 20.708312624999998,
          "velocity": 0.6456692913385826
        },
        {
          "duration": 0.12499987500000032,
          "durationTicks": 36,
          "midi": 79,
          "name": "G5",
          "ticks": 6000,
          "time": 20.833312499999998,
          "velocity": 0.7874015748031497
        },
        {
          "duration": 0.12499987500000032,
          "durationTicks": 36,
          "midi": 67,
          "name": "G4",
          "ticks": 6012,
          "time": 20.874979125,
          "velocity": 0.6456692913385826
        },
        {
          "duration": 0.12499987500000032,
          "durationTicks": 36,
          "midi": 88,
          "name": "E6",
          "ticks": 6048,
          "time": 20.999979,
          "velocity": 0.7874015748031497
        },
        {
          "duration": 0.12499987499999676,
          "durationTicks": 36,
          "midi": 76,
          "name": "E5",
          "ticks": 6060,
          "time": 21.041645625,
          "velocity": 0.6456692913385826
        },
        {
          "duration": 0.12499987500000032,
          "durationTicks": 36,
          "midi": 86,
          "name": "D6",
          "ticks": 6096,
          "time": 21.166645499999998,
          "velocity": 0.7874015748031497
        },
        {
          "duration": 0.12499987500000032,
          "durationTicks": 36,
          "midi": 74,
          "name": "D5",
          "ticks": 6108,
          "time": 21.208312125,
          "velocity": 0.6456692913385826
        },
        {
          "duration": 0.08333324999999903,
          "durationTicks": 24,
          "midi": 85,
          "name": "C#6",
          "ticks": 6144,
          "time": 21.333312,
          "velocity": 0.8110236220472441
        },
        {
          "duration": 0.04166662500000129,
          "durationTicks": 12,
          "midi": 76,
          "name": "E5",
          "ticks": 6144,
          "time": 21.333312,
          "velocity": 0.5905511811023622
        },
        {
          "duration": 0.04166662499999774,
          "durationTicks": 12,
          "midi": 73,
          "name": "C#5",
          "ticks": 6156,
          "time": 21.374978625,
          "velocity": 0.5905511811023622
        },
        {
          "duration": 0.04166662500000129,
          "durationTicks": 12,
          "midi": 76,
          "name": "E5",
          "ticks": 6168,
          "time": 21.41664525,
          "velocity": 0.5590551181102362
        },
        {
          "duration": 0.08333325000000258,
          "durationTicks": 24,
          "midi": 85,
          "name": "C#6",
          "ticks": 6168,
          "time": 21.41664525,
          "velocity": 0.7716535433070866
        },
        {
          "duration": 0.04166662500000129,
          "durationTicks": 12,
          "midi": 73,
          "name": "C#5",
          "ticks": 6180,
          "time": 21.458311875,
          "velocity": 0.5590551181102362
        },
        {
          "duration": 0.04166662499999774,
          "durationTicks": 12,
          "midi": 76,
          "name": "E5",
          "ticks": 6192,
          "time": 21.4999785,
          "velocity": 0.5275590551181102
        },
        {
          "duration": 0.08333324999999903,
          "durationTicks": 24,
          "midi": 85,
          "name": "C#6",
          "ticks": 6192,
          "time": 21.4999785,
          "velocity": 0.7401574803149606
        },
        {
          "duration": 0.04166662500000129,
          "durationTicks": 12,
          "midi": 73,
          "name": "C#5",
          "ticks": 6204,
          "time": 21.541645125,
          "velocity": 0.5275590551181102
        },
        {
          "duration": 0.04166662499999774,
          "durationTicks": 12,
          "midi": 76,
          "name": "E5",
          "ticks": 6216,
          "time": 21.58331175,
          "velocity": 0.49606299212598426
        },
        {
          "duration": 0.08333324999999903,
          "durationTicks": 24,
          "midi": 85,
          "name": "C#6",
          "ticks": 6216,
          "time": 21.58331175,
          "velocity": 0.7007874015748031
        },
        {
          "duration": 0.04166662500000129,
          "durationTicks": 12,
          "midi": 73,
          "name": "C#5",
          "ticks": 6228,
          "time": 21.624978374999998,
          "velocity": 0.49606299212598426
        },
        {
          "duration": 0.04166662500000129,
          "durationTicks": 12,
          "midi": 76,
          "name": "E5",
          "ticks": 6240,
          "time": 21.666645,
          "velocity": 0.4645669291338583
        },
        {
          "duration": 0.08333324999999903,
          "durationTicks": 24,
          "midi": 85,
          "name": "C#6",
          "ticks": 6240,
          "time": 21.666645,
          "velocity": 0.6614173228346457
        },
        {
          "duration": 0.04166662499999774,
          "durationTicks": 12,
          "midi": 73,
          "name": "C#5",
          "ticks": 6252,
          "time": 21.708311625,
          "velocity": 0.4645669291338583
        },
        {
          "duration": 0.04166662500000129,
          "durationTicks": 12,
          "midi": 85,
          "name": "C#6",
          "ticks": 6336,
          "time": 21.999978,
          "velocity": 0.6141732283464567
        },
        {
          "duration": 0.04166662499999774,
          "durationTicks": 12,
          "midi": 73,
          "name": "C#5",
          "ticks": 6341,
          "time": 22.01733909375,
          "velocity": 0.3858267716535433
        },
        {
          "duration": 0.04166662499999774,
          "durationTicks": 12,
          "midi": 85,
          "name": "C#6",
          "ticks": 6348,
          "time": 22.041644625,
          "velocity": 0.6141732283464567
        },
        {
          "duration": 0.04166662499999774,
          "durationTicks": 12,
          "midi": 88,
          "name": "E6",
          "ticks": 6384,
          "time": 22.1666445,
          "velocity": 0.6141732283464567
        },
        {
          "duration": 0.04166662500000129,
          "durationTicks": 12,
          "midi": 76,
          "name": "E5",
          "ticks": 6389,
          "time": 22.184005593749998,
          "velocity": 0.3858267716535433
        },
        {
          "duration": 0.04166662500000129,
          "durationTicks": 12,
          "midi": 88,
          "name": "E6",
          "ticks": 6396,
          "time": 22.208311124999998,
          "velocity": 0.6141732283464567
        },
        {
          "duration": 0.04166662500000129,
          "durationTicks": 12,
          "midi": 83,
          "name": "B5",
          "ticks": 6432,
          "time": 22.333311,
          "velocity": 0.6141732283464567
        },
        {
          "duration": 0.04166662499999774,
          "durationTicks": 12,
          "midi": 71,
          "name": "B4",
          "ticks": 6437,
          "time": 22.35067209375,
          "velocity": 0.3858267716535433
        },
        {
          "duration": 0.04166662500000129,
          "durationTicks": 12,
          "midi": 83,
          "name": "B5",
          "ticks": 6444,
          "time": 22.374977625,
          "velocity": 0.6141732283464567
        },
        {
          "duration": 0.04166662499999774,
          "durationTicks": 12,
          "midi": 81,
          "name": "A5",
          "ticks": 6480,
          "time": 22.4999775,
          "velocity": 0.6141732283464567
        },
        {
          "duration": 0.04166662500000129,
          "durationTicks": 12,
          "midi": 69,
          "name": "A4",
          "ticks": 6485,
          "time": 22.517338593749997,
          "velocity": 0.3858267716535433
        },
        {
          "duration": 0.04166662500000129,
          "durationTicks": 12,
          "midi": 81,
          "name": "A5",
          "ticks": 6492,
          "time": 22.541644124999998,
          "velocity": 0.6141732283464567
        },
        {
          "duration": 0.04166662500000129,
          "durationTicks": 12,
          "midi": 85,
          "name": "C#6",
          "ticks": 6528,
          "time": 22.666643999999998,
          "velocity": 0.6141732283464567
        },
        {
          "duration": 0.04166662499999774,
          "durationTicks": 12,
          "midi": 73,
          "name": "C#5",
          "ticks": 6533,
          "time": 22.68400509375,
          "velocity": 0.3858267716535433
        },
        {
          "duration": 0.04166662500000129,
          "durationTicks": 12,
          "midi": 85,
          "name": "C#6",
          "ticks": 6540,
          "time": 22.708310625,
          "velocity": 0.6141732283464567
        },
        {
          "duration": 0.04166662500000129,
          "durationTicks": 12,
          "midi": 88,
          "name": "E6",
          "ticks": 6576,
          "time": 22.8333105,
          "velocity": 0.6141732283464567
        },
        {
          "duration": 0.04166662500000129,
          "durationTicks": 12,
          "midi": 76,
          "name": "E5",
          "ticks": 6581,
          "time": 22.850671593749997,
          "velocity": 0.3858267716535433
        },
        {
          "duration": 0.04166662499999774,
          "durationTicks": 12,
          "midi": 88,
          "name": "E6",
          "ticks": 6588,
          "time": 22.874977125,
          "velocity": 0.6141732283464567
        },
        {
          "duration": 0.04166662500000129,
          "durationTicks": 12,
          "midi": 83,
          "name": "B5",
          "ticks": 6624,
          "time": 22.999976999999998,
          "velocity": 0.6141732283464567
        },
        {
          "duration": 0.04166662499999774,
          "durationTicks": 12,
          "midi": 71,
          "name": "B4",
          "ticks": 6629,
          "time": 23.01733809375,
          "velocity": 0.3858267716535433
        },
        {
          "duration": 0.04166662500000129,
          "durationTicks": 12,
          "midi": 83,
          "name": "B5",
          "ticks": 6636,
          "time": 23.041643625,
          "velocity": 0.6141732283464567
        },
        {
          "duration": 0.04166662500000129,
          "durationTicks": 12,
          "midi": 81,
          "name": "A5",
          "ticks": 6672,
          "time": 23.1666435,
          "velocity": 0.6141732283464567
        },
        {
          "duration": 0.04166662500000129,
          "durationTicks": 12,
          "midi": 69,
          "name": "A4",
          "ticks": 6677,
          "time": 23.184004593749997,
          "velocity": 0.3858267716535433
        },
        {
          "duration": 0.04166662499999774,
          "durationTicks": 12,
          "midi": 81,
          "name": "A5",
          "ticks": 6684,
          "time": 23.208310125,
          "velocity": 0.6141732283464567
        },
        {
          "duration": 0.04166662499999774,
          "durationTicks": 12,
          "midi": 85,
          "name": "C#6",
          "ticks": 9408,
          "time": 32.666634,
          "velocity": 0.6141732283464567
        },
        {
          "duration": 0.04166662499999774,
          "durationTicks": 12,
          "midi": 73,
          "name": "C#5",
          "ticks": 9413,
          "time": 32.68399509375,
          "velocity": 0.3858267716535433
        },
        {
          "duration": 0.04166662499999774,
          "durationTicks": 12,
          "midi": 85,
          "name": "C#6",
          "ticks": 9420,
          "time": 32.708300625,
          "velocity": 0.6141732283464567
        },
        {
          "duration": 0.04166662499999774,
          "durationTicks": 12,
          "midi": 88,
          "name": "E6",
          "ticks": 9456,
          "time": 32.8333005,
          "velocity": 0.6141732283464567
        },
        {
          "duration": 0.04166662499999774,
          "durationTicks": 12,
          "midi": 76,
          "name": "E5",
          "ticks": 9461,
          "time": 32.85066159375,
          "velocity": 0.3858267716535433
        },
        {
          "duration": 0.04166662500000484,
          "durationTicks": 12,
          "midi": 88,
          "name": "E6",
          "ticks": 9468,
          "time": 32.874967125,
          "velocity": 0.6141732283464567
        },
        {
          "duration": 0.04166662499999774,
          "durationTicks": 12,
          "midi": 83,
          "name": "B5",
          "ticks": 9504,
          "time": 32.999967,
          "velocity": 0.6141732283464567
        },
        {
          "duration": 0.04166662500000484,
          "durationTicks": 12,
          "midi": 71,
          "name": "B4",
          "ticks": 9509,
          "time": 33.017328093749995,
          "velocity": 0.3858267716535433
        },
        {
          "duration": 0.04166662500000484,
          "durationTicks": 12,
          "midi": 83,
          "name": "B5",
          "ticks": 9516,
          "time": 33.041633624999996,
          "velocity": 0.6141732283464567
        },
        {
          "duration": 0.04166662500000484,
          "durationTicks": 12,
          "midi": 81,
          "name": "A5",
          "ticks": 9552,
          "time": 33.166633499999996,
          "velocity": 0.6141732283464567
        },
        {
          "duration": 0.04166662499999774,
          "durationTicks": 12,
          "midi": 69,
          "name": "A4",
          "ticks": 9557,
          "time": 33.18399459375,
          "velocity": 0.3858267716535433
        },
        {
          "duration": 0.04166662499999774,
          "durationTicks": 12,
          "midi": 81,
          "name": "A5",
          "ticks": 9564,
          "time": 33.208300125,
          "velocity": 0.6141732283464567
        },
        {
          "duration": 0.04166662499999774,
          "durationTicks": 12,
          "midi": 85,
          "name": "C#6",
          "ticks": 9600,
          "time": 33.3333,
          "velocity": 0.6141732283464567
        },
        {
          "duration": 0.04166662499999774,
          "durationTicks": 12,
          "midi": 73,
          "name": "C#5",
          "ticks": 9605,
          "time": 33.35066109375,
          "velocity": 0.3858267716535433
        },
        {
          "duration": 0.04166662499999774,
          "durationTicks": 12,
          "midi": 85,
          "name": "C#6",
          "ticks": 9612,
          "time": 33.374966625,
          "velocity": 0.6141732283464567
        },
        {
          "duration": 0.04166662499999774,
          "durationTicks": 12,
          "midi": 88,
          "name": "E6",
          "ticks": 9648,
          "time": 33.4999665,
          "velocity": 0.6141732283464567
        },
        {
          "duration": 0.04166662499999774,
          "durationTicks": 12,
          "midi": 76,
          "name": "E5",
          "ticks": 9653,
          "time": 33.51732759375,
          "velocity": 0.3858267716535433
        },
        {
          "duration": 0.04166662500000484,
          "durationTicks": 12,
          "midi": 88,
          "name": "E6",
          "ticks": 9660,
          "time": 33.541633125,
          "velocity": 0.6141732283464567
        },
        {
          "duration": 0.04166662500000484,
          "durationTicks": 12,
          "midi": 83,
          "name": "B5",
          "ticks": 9696,
          "time": 33.666633,
          "velocity": 0.6141732283464567
        },
        {
          "duration": 0.04166662500000484,
          "durationTicks": 12,
          "midi": 71,
          "name": "B4",
          "ticks": 9701,
          "time": 33.683994093749995,
          "velocity": 0.3858267716535433
        },
        {
          "duration": 0.04166662499999774,
          "durationTicks": 12,
          "midi": 83,
          "name": "B5",
          "ticks": 9708,
          "time": 33.708299625,
          "velocity": 0.6141732283464567
        },
        {
          "duration": 0.04166662499999774,
          "durationTicks": 12,
          "midi": 81,
          "name": "A5",
          "ticks": 9744,
          "time": 33.8332995,
          "velocity": 0.6141732283464567
        },
        {
          "duration": 0.04166662499999774,
          "durationTicks": 12,
          "midi": 69,
          "name": "A4",
          "ticks": 9749,
          "time": 33.85066059375,
          "velocity": 0.3858267716535433
        },
        {
          "duration": 0.04166662499999774,
          "durationTicks": 12,
          "midi": 81,
          "name": "A5",
          "ticks": 9756,
          "time": 33.874966125,
          "velocity": 0.6141732283464567
        },
        {
          "duration": 0.04166662500000484,
          "durationTicks": 12,
          "midi": 85,
          "name": "C#6",
          "ticks": 19392,
          "time": 67.333266,
          "velocity": 0.6141732283464567
        },
        {
          "duration": 0.04166662499999063,
          "durationTicks": 12,
          "midi": 73,
          "name": "C#5",
          "ticks": 19397,
          "time": 67.35062709375,
          "velocity": 0.3858267716535433
        },
        {
          "duration": 0.04166662500000484,
          "durationTicks": 12,
          "midi": 85,
          "name": "C#6",
          "ticks": 19404,
          "time": 67.374932625,
          "velocity": 0.6141732283464567
        },
        {
          "duration": 0.04166662500000484,
          "durationTicks": 12,
          "midi": 88,
          "name": "E6",
          "ticks": 19440,
          "time": 67.4999325,
          "velocity": 0.6141732283464567
        },
        {
          "duration": 0.04166662500000484,
          "durationTicks": 12,
          "midi": 76,
          "name": "E5",
          "ticks": 19445,
          "time": 67.51729359375,
          "velocity": 0.3858267716535433
        },
        {
          "duration": 0.04166662499999063,
          "durationTicks": 12,
          "midi": 88,
          "name": "E6",
          "ticks": 19452,
          "time": 67.541599125,
          "velocity": 0.6141732283464567
        },
        {
          "duration": 0.04166662499999063,
          "durationTicks": 12,
          "midi": 83,
          "name": "B5",
          "ticks": 19488,
          "time": 67.666599,
          "velocity": 0.6141732283464567
        },
        {
          "duration": 0.04166662500000484,
          "durationTicks": 12,
          "midi": 71,
          "name": "B4",
          "ticks": 19493,
          "time": 67.68396009375,
          "velocity": 0.3858267716535433
        },
        {
          "duration": 0.04166662500000484,
          "durationTicks": 12,
          "midi": 83,
          "name": "B5",
          "ticks": 19500,
          "time": 67.708265625,
          "velocity": 0.6141732283464567
        },
        {
          "duration": 0.04166662500000484,
          "durationTicks": 12,
          "midi": 81,
          "name": "A5",
          "ticks": 19536,
          "time": 67.8332655,
          "velocity": 0.6141732283464567
        },
        {
          "duration": 0.04166662499999063,
          "durationTicks": 12,
          "midi": 69,
          "name": "A4",
          "ticks": 19541,
          "time": 67.85062659375001,
          "velocity": 0.3858267716535433
        },
        {
          "duration": 0.04166662499999063,
          "durationTicks": 12,
          "midi": 81,
          "name": "A5",
          "ticks": 19548,
          "time": 67.874932125,
          "velocity": 0.6141732283464567
        },
        {
          "duration": 0.04166662499999063,
          "durationTicks": 12,
          "midi": 85,
          "name": "C#6",
          "ticks": 19584,
          "time": 67.999932,
          "velocity": 0.6141732283464567
        },
        {
          "duration": 0.04166662500000484,
          "durationTicks": 12,
          "midi": 73,
          "name": "C#5",
          "ticks": 19589,
          "time": 68.01729309375,
          "velocity": 0.3858267716535433
        },
        {
          "duration": 0.04166662500000484,
          "durationTicks": 12,
          "midi": 85,
          "name": "C#6",
          "ticks": 19596,
          "time": 68.04159862499999,
          "velocity": 0.6141732283464567
        },
        {
          "duration": 0.04166662500000484,
          "durationTicks": 12,
          "midi": 88,
          "name": "E6",
          "ticks": 19632,
          "time": 68.16659849999999,
          "velocity": 0.6141732283464567
        },
        {
          "duration": 0.04166662499999063,
          "durationTicks": 12,
          "midi": 76,
          "name": "E5",
          "ticks": 19637,
          "time": 68.18395959375,
          "velocity": 0.3858267716535433
        },
        {
          "duration": 0.04166662500000484,
          "durationTicks": 12,
          "midi": 88,
          "name": "E6",
          "ticks": 19644,
          "time": 68.208265125,
          "velocity": 0.6141732283464567
        },
        {
          "duration": 0.04166662500000484,
          "durationTicks": 12,
          "midi": 83,
          "name": "B5",
          "ticks": 19680,
          "time": 68.333265,
          "velocity": 0.6141732283464567
        },
        {
          "duration": 0.04166662500000484,
          "durationTicks": 12,
          "midi": 71,
          "name": "B4",
          "ticks": 19685,
          "time": 68.35062609375,
          "velocity": 0.3858267716535433
        },
        {
          "duration": 0.04166662499999063,
          "durationTicks": 12,
          "midi": 83,
          "name": "B5",
          "ticks": 19692,
          "time": 68.374931625,
          "velocity": 0.6141732283464567
        },
        {
          "duration": 0.04166662499999063,
          "durationTicks": 12,
          "midi": 81,
          "name": "A5",
          "ticks": 19728,
          "time": 68.4999315,
          "velocity": 0.6141732283464567
        },
        {
          "duration": 0.04166662500000484,
          "durationTicks": 12,
          "midi": 69,
          "name": "A4",
          "ticks": 19733,
          "time": 68.51729259375,
          "velocity": 0.3858267716535433
        },
        {
          "duration": 0.04166662500000484,
          "durationTicks": 12,
          "midi": 81,
          "name": "A5",
          "ticks": 19740,
          "time": 68.541598125,
          "velocity": 0.6141732283464567
        },
        {
          "duration": 0.05555549999999698,
          "durationTicks": 16,
          "midi": 74,
          "name": "D5",
          "ticks": 21792,
          "time": 75.666591,
          "velocity": 0.7007874015748031
        },
        {
          "duration": 0.05555549999999698,
          "durationTicks": 16,
          "midi": 62,
          "name": "D4",
          "ticks": 21795,
          "time": 75.67700765625,
          "velocity": 0.7007874015748031
        },
        {
          "duration": 0.05555549999999698,
          "durationTicks": 16,
          "midi": 76,
          "name": "E5",
          "ticks": 21840,
          "time": 75.8332575,
          "velocity": 0.7007874015748031
        },
        {
          "duration": 0.05555549999999698,
          "durationTicks": 16,
          "midi": 64,
          "name": "E4",
          "ticks": 21843,
          "time": 75.84367415625,
          "velocity": 0.7007874015748031
        },
        {
          "duration": 0.05555549999999698,
          "durationTicks": 16,
          "midi": 78,
          "name": "F#5",
          "ticks": 21888,
          "time": 75.999924,
          "velocity": 0.7007874015748031
        },
        {
          "duration": 0.05555549999999698,
          "durationTicks": 16,
          "midi": 66,
          "name": "F#4",
          "ticks": 21891,
          "time": 76.01034065625,
          "velocity": 0.7007874015748031
        },
        {
          "duration": 0.05555549999999698,
          "durationTicks": 16,
          "midi": 81,
          "name": "A5",
          "ticks": 21936,
          "time": 76.1665905,
          "velocity": 0.7007874015748031
        },
        {
          "duration": 0.05555549999999698,
          "durationTicks": 16,
          "midi": 69,
          "name": "A4",
          "ticks": 21939,
          "time": 76.17700715625,
          "velocity": 0.7007874015748031
        },
        {
          "duration": 0.05555549999999698,
          "durationTicks": 16,
          "midi": 85,
          "name": "C#6",
          "ticks": 21984,
          "time": 76.333257,
          "velocity": 0.7007874015748031
        },
        {
          "duration": 0.05555549999999698,
          "durationTicks": 16,
          "midi": 73,
          "name": "C#5",
          "ticks": 21987,
          "time": 76.34367365625,
          "velocity": 0.7007874015748031
        },
        {
          "duration": 0.05555549999999698,
          "durationTicks": 16,
          "midi": 90,
          "name": "F#6",
          "ticks": 22032,
          "time": 76.4999235,
          "velocity": 0.7007874015748031
        },
        {
          "duration": 0.05555549999999698,
          "durationTicks": 16,
          "midi": 78,
          "name": "F#5",
          "ticks": 22035,
          "time": 76.51034015625,
          "velocity": 0.7007874015748031
        },
        {
          "duration": 0.05555549999999698,
          "durationTicks": 16,
          "midi": 85,
          "name": "C#6",
          "ticks": 22128,
          "time": 76.8332565,
          "velocity": 0.7007874015748031
        },
        {
          "duration": 0.05555549999999698,
          "durationTicks": 16,
          "midi": 73,
          "name": "C#5",
          "ticks": 22131,
          "time": 76.84367315624999,
          "velocity": 0.7007874015748031
        },
        {
          "duration": 0.05555549999999698,
          "durationTicks": 16,
          "midi": 83,
          "name": "B5",
          "ticks": 22176,
          "time": 76.999923,
          "velocity": 0.7007874015748031
        },
        {
          "duration": 0.05555549999999698,
          "durationTicks": 16,
          "midi": 71,
          "name": "B4",
          "ticks": 22179,
          "time": 77.01033965625,
          "velocity": 0.7007874015748031
        },
        {
          "duration": 0.05555549999999698,
          "durationTicks": 16,
          "midi": 81,
          "name": "A5",
          "ticks": 22224,
          "time": 77.1665895,
          "velocity": 0.7007874015748031
        },
        {
          "duration": 0.05555549999999698,
          "durationTicks": 16,
          "midi": 69,
          "name": "A4",
          "ticks": 22227,
          "time": 77.17700615625,
          "velocity": 0.7007874015748031
        },
        {
          "duration": 0.05555549999999698,
          "durationTicks": 16,
          "midi": 77,
          "name": "F5",
          "ticks": 22320,
          "time": 77.4999225,
          "velocity": 0.7007874015748031
        },
        {
          "duration": 0.05555549999999698,
          "durationTicks": 16,
          "midi": 65,
          "name": "F4",
          "ticks": 22323,
          "time": 77.51033915625,
          "velocity": 0.7007874015748031
        },
        {
          "duration": 0.05555549999999698,
          "durationTicks": 16,
          "midi": 81,
          "name": "A5",
          "ticks": 22368,
          "time": 77.666589,
          "velocity": 0.7007874015748031
        },
        {
          "duration": 0.05555549999999698,
          "durationTicks": 16,
          "midi": 69,
          "name": "A4",
          "ticks": 22371,
          "time": 77.67700565625,
          "velocity": 0.7007874015748031
        },
        {
          "duration": 0.05555549999999698,
          "durationTicks": 16,
          "midi": 77,
          "name": "F5",
          "ticks": 22416,
          "time": 77.83325549999999,
          "velocity": 0.7007874015748031
        },
        {
          "duration": 0.05555549999999698,
          "durationTicks": 16,
          "midi": 65,
          "name": "F4",
          "ticks": 22419,
          "time": 77.84367215625,
          "velocity": 0.7007874015748031
        },
        {
          "duration": 0.05555549999999698,
          "durationTicks": 16,
          "midi": 72,
          "name": "C5",
          "ticks": 22512,
          "time": 78.1665885,
          "velocity": 0.7007874015748031
        },
        {
          "duration": 0.05555549999999698,
          "durationTicks": 16,
          "midi": 60,
          "name": "C4",
          "ticks": 22515,
          "time": 78.17700515625,
          "velocity": 0.7007874015748031
        },
        {
          "duration": 0.05555549999999698,
          "durationTicks": 16,
          "midi": 77,
          "name": "F5",
          "ticks": 22560,
          "time": 78.333255,
          "velocity": 0.7007874015748031
        },
        {
          "duration": 0.05555549999999698,
          "durationTicks": 16,
          "midi": 65,
          "name": "F4",
          "ticks": 22563,
          "time": 78.34367165625,
          "velocity": 0.7007874015748031
        },
        {
          "duration": 0.05555549999999698,
          "durationTicks": 16,
          "midi": 81,
          "name": "A5",
          "ticks": 22608,
          "time": 78.4999215,
          "velocity": 0.7007874015748031
        },
        {
          "duration": 0.05555549999999698,
          "durationTicks": 16,
          "midi": 69,
          "name": "A4",
          "ticks": 22611,
          "time": 78.51033815625,
          "velocity": 0.7007874015748031
        },
        {
          "duration": 0.04166662499999063,
          "durationTicks": 12,
          "midi": 85,
          "name": "C#6",
          "ticks": 23040,
          "time": 79.99992,
          "velocity": 0.6692913385826772
        },
        {
          "duration": 0.04166662499999063,
          "durationTicks": 12,
          "midi": 76,
          "name": "E5",
          "ticks": 23040,
          "time": 79.99992,
          "velocity": 0.6692913385826772
        },
        {
          "duration": 0.04166662500000484,
          "durationTicks": 12,
          "midi": 73,
          "name": "C#5",
          "ticks": 23052,
          "time": 80.041586625,
          "velocity": 0.5669291338582677
        },
        {
          "duration": 0.04166662500000484,
          "durationTicks": 12,
          "midi": 76,
          "name": "E5",
          "ticks": 23064,
          "time": 80.08325325,
          "velocity": 0.6377952755905512
        },
        {
          "duration": 0.04166662500000484,
          "durationTicks": 12,
          "midi": 85,
          "name": "C#6",
          "ticks": 23064,
          "time": 80.08325325,
          "velocity": 0.6377952755905512
        },
        {
          "duration": 0.04166662499999063,
          "durationTicks": 12,
          "midi": 73,
          "name": "C#5",
          "ticks": 23076,
          "time": 80.124919875,
          "velocity": 0.5039370078740157
        },
        {
          "duration": 0.04166662500000484,
          "durationTicks": 12,
          "midi": 85,
          "name": "C#6",
          "ticks": 23088,
          "time": 80.1665865,
          "velocity": 0.6141732283464567
        },
        {
          "duration": 0.04166662500000484,
          "durationTicks": 12,
          "midi": 76,
          "name": "E5",
          "ticks": 23088,
          "time": 80.1665865,
          "velocity": 0.6141732283464567
        },
        {
          "duration": 0.04166662500000484,
          "durationTicks": 12,
          "midi": 73,
          "name": "C#5",
          "ticks": 23100,
          "time": 80.208253125,
          "velocity": 0.44881889763779526
        },
        {
          "duration": 0.04166662499999063,
          "durationTicks": 12,
          "midi": 76,
          "name": "E5",
          "ticks": 23112,
          "time": 80.24991975,
          "velocity": 0.5905511811023622
        },
        {
          "duration": 0.04166662499999063,
          "durationTicks": 12,
          "midi": 85,
          "name": "C#6",
          "ticks": 23112,
          "time": 80.24991975,
          "velocity": 0.5905511811023622
        },
        {
          "duration": 0.04166662500000484,
          "durationTicks": 12,
          "midi": 73,
          "name": "C#5",
          "ticks": 23124,
          "time": 80.291586375,
          "velocity": 0.3937007874015748
        },
        {
          "duration": 0.02430553125000756,
          "durationTicks": 7,
          "midi": 93,
          "name": "A6",
          "ticks": 25536,
          "time": 88.666578,
          "velocity": 0.7322834645669292
        },
        {
          "duration": 0.02430553125000756,
          "durationTicks": 7,
          "midi": 81,
          "name": "A5",
          "ticks": 25544,
          "time": 88.69435574999999,
          "velocity": 0.4251968503937008
        },
        {
          "duration": 0.02430553124999335,
          "durationTicks": 7,
          "midi": 93,
          "name": "A6",
          "ticks": 25552,
          "time": 88.7221335,
          "velocity": 0.6771653543307087
        },
        {
          "duration": 0.02430553125000756,
          "durationTicks": 7,
          "midi": 81,
          "name": "A5",
          "ticks": 25560,
          "time": 88.74991125,
          "velocity": 0.3779527559055118
        },
        {
          "duration": 0.02430553125000756,
          "durationTicks": 7,
          "midi": 93,
          "name": "A6",
          "ticks": 25568,
          "time": 88.777689,
          "velocity": 0.6299212598425197
        },
        {
          "duration": 0.02430553124997914,
          "durationTicks": 7,
          "midi": 81,
          "name": "A5",
          "ticks": 25576,
          "time": 88.80546675000001,
          "velocity": 0.33070866141732286
        },
        {
          "duration": 0.02430553125000756,
          "durationTicks": 7,
          "midi": 93,
          "name": "A6",
          "ticks": 25584,
          "time": 88.83324449999999,
          "velocity": 0.5748031496062992
        },
        {
          "duration": 0.027777750000012702,
          "durationTicks": 8,
          "midi": 81,
          "name": "A5",
          "ticks": 25592,
          "time": 88.86102224999999,
          "velocity": 0.2755905511811024
        },
        {
          "duration": 0.02777774999999849,
          "durationTicks": 8,
          "midi": 93,
          "name": "A6",
          "ticks": 25600,
          "time": 88.8888,
          "velocity": 0.5196850393700787
        },
        {
          "duration": 0.02777774999998428,
          "durationTicks": 8,
          "midi": 81,
          "name": "A5",
          "ticks": 25608,
          "time": 88.91657775,
          "velocity": 0.2283464566929134
        },
        {
          "duration": 0.027777750000012702,
          "durationTicks": 8,
          "midi": 93,
          "name": "A6",
          "ticks": 25616,
          "time": 88.94435549999999,
          "velocity": 0.4645669291338583
        },
        {
          "duration": 0.02777774999999849,
          "durationTicks": 8,
          "midi": 81,
          "name": "A5",
          "ticks": 25624,
          "time": 88.97213325,
          "velocity": 0.18110236220472442
        },
        {
          "duration": 0.02777774999999849,
          "durationTicks": 8,
          "midi": 93,
          "name": "A6",
          "ticks": 25632,
          "time": 88.999911,
          "velocity": 0.41732283464566927
        },
        {
          "duration": 0.027777750000012702,
          "durationTicks": 8,
          "midi": 81,
          "name": "A5",
          "ticks": 25640,
          "time": 89.02768875,
          "velocity": 0.13385826771653545
        },
        {
          "duration": 0.02777774999998428,
          "durationTicks": 8,
          "midi": 93,
          "name": "A6",
          "ticks": 25648,
          "time": 89.05546650000001,
          "velocity": 0.36220472440944884
        },
        {
          "duration": 0.02777774999999849,
          "durationTicks": 8,
          "midi": 81,
          "name": "A5",
          "ticks": 25656,
          "time": 89.08324424999999,
          "velocity": 0.08661417322834646
        },
        {
          "duration": 0.027777750000012702,
          "durationTicks": 8,
          "midi": 93,
          "name": "A6",
          "ticks": 25664,
          "time": 89.11102199999999,
          "velocity": 0.30708661417322836
        },
        {
          "duration": 0.02777774999999849,
          "durationTicks": 8,
          "midi": 81,
          "name": "A5",
          "ticks": 25672,
          "time": 89.13879975,
          "velocity": 0.031496062992125984
        },
        {
          "duration": 0.02430553125000756,
          "durationTicks": 7,
          "midi": 91,
          "name": "G6",
          "ticks": 25728,
          "time": 89.333244,
          "velocity": 0.7637795275590551
        },
        {
          "duration": 0.02430553125000756,
          "durationTicks": 7,
          "midi": 79,
          "name": "G5",
          "ticks": 25736,
          "time": 89.36102174999999,
          "velocity": 0.2440944881889764
        },
        {
          "duration": 0.02430553124999335,
          "durationTicks": 7,
          "midi": 91,
          "name": "G6",
          "ticks": 25744,
          "time": 89.3887995,
          "velocity": 0.7007874015748031
        },
        {
          "duration": 0.02430553125000756,
          "durationTicks": 7,
          "midi": 79,
          "name": "G5",
          "ticks": 25752,
          "time": 89.41657725,
          "velocity": 0.2047244094488189
        },
        {
          "duration": 0.02430553125000756,
          "durationTicks": 7,
          "midi": 91,
          "name": "G6",
          "ticks": 25760,
          "time": 89.44435499999999,
          "velocity": 0.6377952755905512
        },
        {
          "duration": 0.02430553124999335,
          "durationTicks": 7,
          "midi": 79,
          "name": "G5",
          "ticks": 25768,
          "time": 89.47213275,
          "velocity": 0.16535433070866143
        },
        {
          "duration": 0.02430553125000756,
          "durationTicks": 7,
          "midi": 91,
          "name": "G6",
          "ticks": 25776,
          "time": 89.4999105,
          "velocity": 0.5826771653543307
        },
        {
          "duration": 0.027777750000012702,
          "durationTicks": 8,
          "midi": 79,
          "name": "G5",
          "ticks": 25784,
          "time": 89.52768825,
          "velocity": 0.13385826771653545
        },
        {
          "duration": 0.02777774999998428,
          "durationTicks": 8,
          "midi": 91,
          "name": "G6",
          "ticks": 25792,
          "time": 89.55546600000001,
          "velocity": 0.5196850393700787
        },
        {
          "duration": 0.02777774999999849,
          "durationTicks": 8,
          "midi": 79,
          "name": "G5",
          "ticks": 25800,
          "time": 89.58324375,
          "velocity": 0.09448818897637795
        },
        {
          "duration": 0.027777750000012702,
          "durationTicks": 8,
          "midi": 91,
          "name": "G6",
          "ticks": 25808,
          "time": 89.61102149999999,
          "velocity": 0.4566929133858268
        },
        {
          "duration": 0.02777774999999849,
          "durationTicks": 8,
          "midi": 79,
          "name": "G5",
          "ticks": 25816,
          "time": 89.63879925,
          "velocity": 0.05511811023622047
        },
        {
          "duration": 0.02430553125000756,
          "durationTicks": 7,
          "midi": 89,
          "name": "F6",
          "ticks": 25872,
          "time": 89.8332435,
          "velocity": 0.7716535433070866
        },
        {
          "duration": 0.02430553125000756,
          "durationTicks": 7,
          "midi": 77,
          "name": "F5",
          "ticks": 25880,
          "time": 89.86102125,
          "velocity": 0.2047244094488189
        },
        {
          "duration": 0.02430553124997914,
          "durationTicks": 7,
          "midi": 89,
          "name": "F6",
          "ticks": 25888,
          "time": 89.888799,
          "velocity": 0.7165354330708661
        },
        {
          "duration": 0.02430553124999335,
          "durationTicks": 7,
          "midi": 77,
          "name": "F5",
          "ticks": 25896,
          "time": 89.91657675,
          "velocity": 0.1732283464566929
        },
        {
          "duration": 0.02430553125000756,
          "durationTicks": 7,
          "midi": 89,
          "name": "F6",
          "ticks": 25904,
          "time": 89.94435449999999,
          "velocity": 0.6614173228346457
        },
        {
          "duration": 0.02430553124999335,
          "durationTicks": 7,
          "midi": 77,
          "name": "F5",
          "ticks": 25912,
          "time": 89.97213225,
          "velocity": 0.14173228346456693
        },
        {
          "duration": 0.02430553125000756,
          "durationTicks": 7,
          "midi": 89,
          "name": "F6",
          "ticks": 25920,
          "time": 89.99991,
          "velocity": 0.5511811023622047
        },
        {
          "duration": 0.027777750000012702,
          "durationTicks": 8,
          "midi": 77,
          "name": "F5",
          "ticks": 25928,
          "time": 90.02768774999998,
          "velocity": 0.11811023622047244
        },
        {
          "duration": 0.02777774999999849,
          "durationTicks": 8,
          "midi": 89,
          "name": "F6",
          "ticks": 25936,
          "time": 90.0554655,
          "velocity": 0.49606299212598426
        },
        {
          "duration": 0.02777774999999849,
          "durationTicks": 8,
          "midi": 77,
          "name": "F5",
          "ticks": 25944,
          "time": 90.08324325,
          "velocity": 0.08661417322834646
        },
        {
          "duration": 0.027777750000012702,
          "durationTicks": 8,
          "midi": 89,
          "name": "F6",
          "ticks": 25952,
          "time": 90.111021,
          "velocity": 0.4409448818897638
        },
        {
          "duration": 0.02777774999998428,
          "durationTicks": 8,
          "midi": 77,
          "name": "F5",
          "ticks": 25960,
          "time": 90.13879875,
          "velocity": 0.05511811023622047
        },
        {
          "duration": 0.02430553125000756,
          "durationTicks": 7,
          "midi": 88,
          "name": "E6",
          "ticks": 26016,
          "time": 90.333243,
          "velocity": 0.7952755905511811
        },
        {
          "duration": 0.02430553125000756,
          "durationTicks": 7,
          "midi": 76,
          "name": "E5",
          "ticks": 26024,
          "time": 90.36102075,
          "velocity": 0.5275590551181102
        },
        {
          "duration": 0.02430553124997914,
          "durationTicks": 7,
          "midi": 88,
          "name": "E6",
          "ticks": 26032,
          "time": 90.38879850000001,
          "velocity": 0.7637795275590551
        },
        {
          "duration": 0.02430553125000756,
          "durationTicks": 7,
          "midi": 76,
          "name": "E5",
          "ticks": 26040,
          "time": 90.41657624999999,
          "velocity": 0.4881889763779528
        },
        {
          "duration": 0.02430553125000756,
          "durationTicks": 7,
          "midi": 88,
          "name": "E6",
          "ticks": 26048,
          "time": 90.44435399999999,
          "velocity": 0.7244094488188977
        },
        {
          "duration": 0.02430553124999335,
          "durationTicks": 7,
          "midi": 76,
          "name": "E5",
          "ticks": 26056,
          "time": 90.47213175,
          "velocity": 0.4409448818897638
        },
        {
          "duration": 0.02430553125000756,
          "durationTicks": 7,
          "midi": 86,
          "name": "D6",
          "ticks": 26064,
          "time": 90.4999095,
          "velocity": 0.6850393700787402
        },
        {
          "duration": 0.027777750000012702,
          "durationTicks": 8,
          "midi": 74,
          "name": "D5",
          "ticks": 26072,
          "time": 90.52768724999999,
          "velocity": 0.4015748031496063
        },
        {
          "duration": 0.02777774999999849,
          "durationTicks": 8,
          "midi": 86,
          "name": "D6",
          "ticks": 26080,
          "time": 90.555465,
          "velocity": 0.6456692913385826
        },
        {
          "duration": 0.02777774999999849,
          "durationTicks": 8,
          "midi": 74,
          "name": "D5",
          "ticks": 26088,
          "time": 90.58324275,
          "velocity": 0.36220472440944884
        },
        {
          "duration": 0.027777750000012702,
          "durationTicks": 8,
          "midi": 86,
          "name": "D6",
          "ticks": 26096,
          "time": 90.6110205,
          "velocity": 0.6062992125984252
        },
        {
          "duration": 1.9444424999999939,
          "durationTicks": 560,
          "midi": 69,
          "name": "A4",
          "ticks": 36096,
          "time": 125.333208,
          "velocity": 0.49606299212598426
        },
        {
          "duration": 1.9444424999999939,
          "durationTicks": 560,
          "midi": 81,
          "name": "A5",
          "ticks": 36096,
          "time": 125.333208,
          "velocity": 0.49606299212598426
        },
        {
          "duration": 0.6111104999999952,
          "durationTicks": 176,
          "midi": 73,
          "name": "C#5",
          "ticks": 36672,
          "time": 127.33320599999999,
          "velocity": 0.49606299212598426
        },
        {
          "duration": 0.6111104999999952,
          "durationTicks": 176,
          "midi": 85,
          "name": "C#6",
          "ticks": 36672,
          "time": 127.33320599999999,
          "velocity": 0.49606299212598426
        },
        {
          "duration": 1.3333319999999986,
          "durationTicks": 384,
          "midi": 73,
          "name": "C#5",
          "ticks": 36864,
          "time": 127.999872,
          "velocity": 0.49606299212598426
        },
        {
          "duration": 1.3333319999999986,
          "durationTicks": 384,
          "midi": 85,
          "name": "C#6",
          "ticks": 36864,
          "time": 127.999872,
          "velocity": 0.49606299212598426
        },
        {
          "duration": 0.6388882500000079,
          "durationTicks": 184,
          "midi": 76,
          "name": "E5",
          "ticks": 37248,
          "time": 129.333204,
          "velocity": 0.49606299212598426
        },
        {
          "duration": 0.6388882500000079,
          "durationTicks": 184,
          "midi": 88,
          "name": "E6",
          "ticks": 37248,
          "time": 129.333204,
          "velocity": 0.49606299212598426
        },
        {
          "duration": 0.6388882500000079,
          "durationTicks": 184,
          "midi": 73,
          "name": "C#5",
          "ticks": 37440,
          "time": 129.99987,
          "velocity": 0.49606299212598426
        },
        {
          "duration": 0.6388882500000079,
          "durationTicks": 184,
          "midi": 85,
          "name": "C#6",
          "ticks": 37440,
          "time": 129.99987,
          "velocity": 0.49606299212598426
        },
        {
          "duration": 2.6388862499999846,
          "durationTicks": 760,
          "midi": 73,
          "name": "C#5",
          "ticks": 37632,
          "time": 130.666536,
          "velocity": 0.49606299212598426
        },
        {
          "duration": 2.6388862499999846,
          "durationTicks": 760,
          "midi": 85,
          "name": "C#6",
          "ticks": 37632,
          "time": 130.666536,
          "velocity": 0.49606299212598426
        },
        {
          "duration": 1.9444424999999796,
          "durationTicks": 560,
          "midi": 69,
          "name": "A4",
          "ticks": 39168,
          "time": 135.999864,
          "velocity": 0.49606299212598426
        },
        {
          "duration": 1.9444424999999796,
          "durationTicks": 560,
          "midi": 81,
          "name": "A5",
          "ticks": 39168,
          "time": 135.999864,
          "velocity": 0.49606299212598426
        },
        {
          "duration": 0.5555549999999982,
          "durationTicks": 160,
          "midi": 85,
          "name": "C#6",
          "ticks": 39744,
          "time": 137.999862,
          "velocity": 0.49606299212598426
        },
        {
          "duration": 0.5555549999999982,
          "durationTicks": 160,
          "midi": 73,
          "name": "C#5",
          "ticks": 39744,
          "time": 137.999862,
          "velocity": 0.49606299212598426
        },
        {
          "duration": 1.999998000000005,
          "durationTicks": 576,
          "midi": 85,
          "name": "C#6",
          "ticks": 39936,
          "time": 138.666528,
          "velocity": 0.49606299212598426
        },
        {
          "duration": 1.999998000000005,
          "durationTicks": 576,
          "midi": 73,
          "name": "C#5",
          "ticks": 39936,
          "time": 138.666528,
          "velocity": 0.49606299212598426
        },
        {
          "duration": 0.04166662500000484,
          "durationTicks": 12,
          "midi": 85,
          "name": "C#6",
          "ticks": 44736,
          "time": 155.333178,
          "velocity": 0.6141732283464567
        },
        {
          "duration": 0.04166662499997642,
          "durationTicks": 12,
          "midi": 73,
          "name": "C#5",
          "ticks": 44741,
          "time": 155.35053909375,
          "velocity": 0.3858267716535433
        },
        {
          "duration": 0.04166662499997642,
          "durationTicks": 12,
          "midi": 85,
          "name": "C#6",
          "ticks": 44748,
          "time": 155.374844625,
          "velocity": 0.6141732283464567
        },
        {
          "duration": 0.04166662500000484,
          "durationTicks": 12,
          "midi": 88,
          "name": "E6",
          "ticks": 44784,
          "time": 155.4998445,
          "velocity": 0.6141732283464567
        },
        {
          "duration": 0.04166662500000484,
          "durationTicks": 12,
          "midi": 76,
          "name": "E5",
          "ticks": 44789,
          "time": 155.51720559375,
          "velocity": 0.3858267716535433
        },
        {
          "duration": 0.04166662500000484,
          "durationTicks": 12,
          "midi": 88,
          "name": "E6",
          "ticks": 44796,
          "time": 155.541511125,
          "velocity": 0.6141732283464567
        },
        {
          "duration": 0.04166662500000484,
          "durationTicks": 12,
          "midi": 83,
          "name": "B5",
          "ticks": 44832,
          "time": 155.66651099999999,
          "velocity": 0.6141732283464567
        },
        {
          "duration": 0.04166662500000484,
          "durationTicks": 12,
          "midi": 71,
          "name": "B4",
          "ticks": 44837,
          "time": 155.68387209374998,
          "velocity": 0.3858267716535433
        },
        {
          "duration": 0.04166662500000484,
          "durationTicks": 12,
          "midi": 83,
          "name": "B5",
          "ticks": 44844,
          "time": 155.708177625,
          "velocity": 0.6141732283464567
        },
        {
          "duration": 0.04166662499997642,
          "durationTicks": 12,
          "midi": 81,
          "name": "A5",
          "ticks": 44880,
          "time": 155.8331775,
          "velocity": 0.6141732283464567
        },
        {
          "duration": 0.04166662499997642,
          "durationTicks": 12,
          "midi": 69,
          "name": "A4",
          "ticks": 44885,
          "time": 155.85053859375,
          "velocity": 0.3858267716535433
        },
        {
          "duration": 0.04166662500000484,
          "durationTicks": 12,
          "midi": 81,
          "name": "A5",
          "ticks": 44892,
          "time": 155.87484412499998,
          "velocity": 0.6141732283464567
        },
        {
          "duration": 0.04166662500000484,
          "durationTicks": 12,
          "midi": 85,
          "name": "C#6",
          "ticks": 44928,
          "time": 155.999844,
          "velocity": 0.6141732283464567
        },
        {
          "duration": 0.04166662500000484,
          "durationTicks": 12,
          "midi": 73,
          "name": "C#5",
          "ticks": 44933,
          "time": 156.01720509375,
          "velocity": 0.3858267716535433
        },
        {
          "duration": 0.04166662500000484,
          "durationTicks": 12,
          "midi": 85,
          "name": "C#6",
          "ticks": 44940,
          "time": 156.041510625,
          "velocity": 0.6141732283464567
        },
        {
          "duration": 0.04166662500000484,
          "durationTicks": 12,
          "midi": 88,
          "name": "E6",
          "ticks": 44976,
          "time": 156.1665105,
          "velocity": 0.6141732283464567
        },
        {
          "duration": 0.04166662500000484,
          "durationTicks": 12,
          "midi": 76,
          "name": "E5",
          "ticks": 44981,
          "time": 156.18387159374998,
          "velocity": 0.3858267716535433
        },
        {
          "duration": 0.04166662500000484,
          "durationTicks": 12,
          "midi": 88,
          "name": "E6",
          "ticks": 44988,
          "time": 156.208177125,
          "velocity": 0.6141732283464567
        },
        {
          "duration": 0.04166662499997642,
          "durationTicks": 12,
          "midi": 83,
          "name": "B5",
          "ticks": 45024,
          "time": 156.333177,
          "velocity": 0.6141732283464567
        },
        {
          "duration": 0.04166662500000484,
          "durationTicks": 12,
          "midi": 71,
          "name": "B4",
          "ticks": 45029,
          "time": 156.35053809374998,
          "velocity": 0.3858267716535433
        },
        {
          "duration": 0.04166662500000484,
          "durationTicks": 12,
          "midi": 83,
          "name": "B5",
          "ticks": 45036,
          "time": 156.37484362499998,
          "velocity": 0.6141732283464567
        },
        {
          "duration": 0.04166662500000484,
          "durationTicks": 12,
          "midi": 81,
          "name": "A5",
          "ticks": 45072,
          "time": 156.4998435,
          "velocity": 0.6141732283464567
        },
        {
          "duration": 0.04166662500000484,
          "durationTicks": 12,
          "midi": 69,
          "name": "A4",
          "ticks": 45077,
          "time": 156.51720459375,
          "velocity": 0.3858267716535433
        },
        {
          "duration": 0.04166662500000484,
          "durationTicks": 12,
          "midi": 81,
          "name": "A5",
          "ticks": 45084,
          "time": 156.541510125,
          "velocity": 0.6141732283464567
        }
      ],
      "endOfTrackTicks": 45698
    },
    {
      "channel": 4,
      "controlChanges": {
        "6": [
          {
            "number": 6,
            "ticks": 0,
            "time": 0,
            "value": 0.09448818897637795
          },
          {
            "number": 6,
            "ticks": 0,
            "time": 0,
            "value": 0.09448818897637795
          },
          {
            "number": 6,
            "ticks": 0,
            "time": 0,
            "value": 0.09448818897637795
          },
          {
            "number": 6,
            "ticks": 45696,
            "time": 158.666508,
            "value": 0.09448818897637795
          },
          {
            "number": 6,
            "ticks": 45698,
            "time": 158.67345243749998,
            "value": 0.09448818897637795
          }
        ],
        "7": [
          {
            "number": 7,
            "ticks": 0,
            "time": 0,
            "value": 0.7874015748031497
          },
          {
            "number": 7,
            "ticks": 0,
            "time": 0,
            "value": 0.7874015748031497
          },
          {
            "number": 7,
            "ticks": 0,
            "time": 0,
            "value": 0.7874015748031497
          },
          {
            "number": 7,
            "ticks": 0,
            "time": 0,
            "value": 0.7874015748031497
          },
          {
            "number": 7,
            "ticks": 45696,
            "time": 158.666508,
            "value": 0.7874015748031497
          },
          {
            "number": 7,
            "ticks": 45698,
            "time": 158.67345243749998,
            "value": 0.7874015748031497
          }
        ],
        "10": [
          {
            "number": 10,
            "ticks": 0,
            "time": 0,
            "value": 0.5039370078740157
          },
          {
            "number": 10,
            "ticks": 0,
            "time": 0,
            "value": 0.5039370078740157
          },
          {
            "number": 10,
            "ticks": 0,
            "time": 0,
            "value": 0.5039370078740157
          },
          {
            "number": 10,
            "ticks": 0,
            "time": 0,
            "value": 0.5039370078740157
          },
          {
            "number": 10,
            "ticks": 45696,
            "time": 158.666508,
            "value": 0.5039370078740157
          },
          {
            "number": 10,
            "ticks": 45698,
            "time": 158.67345243749998,
            "value": 0.5039370078740157
          }
        ],
        "100": [
          {
            "number": 100,
            "ticks": 0,
            "time": 0,
            "value": 0
          },
          {
            "number": 100,
            "ticks": 0,
            "time": 0,
            "value": 0
          },
          {
            "number": 100,
            "ticks": 0,
            "time": 0,
            "value": 0
          },
          {
            "number": 100,
            "ticks": 45696,
            "time": 158.666508,
            "value": 0
          },
          {
            "number": 100,
            "ticks": 45698,
            "time": 158.67345243749998,
            "value": 0
          }
        ],
        "101": [
          {
            "number": 101,
            "ticks": 0,
            "time": 0,
            "value": 0
          },
          {
            "number": 101,
            "ticks": 0,
            "time": 0,
            "value": 0
          },
          {
            "number": 101,
            "ticks": 0,
            "time": 0,
            "value": 0
          },
          {
            "number": 101,
            "ticks": 45696,
            "time": 158.666508,
            "value": 0
          },
          {
            "number": 101,
            "ticks": 45698,
            "time": 158.67345243749998,
            "value": 0
          }
        ]
      },
      "pitchBends": [
        {
          "ticks": 0,
          "time": 0,
          "value": 0
        },
        {
          "ticks": 0,
          "time": 0,
          "value": 0
        },
        {
          "ticks": 0,
          "time": 0,
          "value": 0
        },
        {
          "ticks": 0,
          "time": 0,
          "value": 0
        },
        {
          "ticks": 45696,
          "time": 158.666508,
          "value": 0
        },
        {
          "ticks": 45698,
          "time": 158.67345243749998,
          "value": 0
        }
      ],
      "instrument": {
        "family": "piano",
        "number": 0,
        "name": "acoustic grand piano"
      },
      "name": "Lead",
      "notes": [
        {
          "duration": 0.16666649999999983,
          "durationTicks": 48,
          "midi": 69,
          "name": "A4",
          "ticks": 1728,
          "time": 5.999994,
          "velocity": 0.7952755905511811
        },
        {
          "duration": 0.08333324999999991,
          "durationTicks": 24,
          "midi": 70,
          "name": "A#4",
          "ticks": 1760,
          "time": 6.111104999999999,
          "velocity": 0.4330708661417323
        },
        {
          "duration": 0.33333299999999966,
          "durationTicks": 96,
          "midi": 71,
          "name": "B4",
          "ticks": 1776,
          "time": 6.1666605,
          "velocity": 0.7952755905511811
        },
        {
          "duration": 0.08333324999999991,
          "durationTicks": 24,
          "midi": 69,
          "name": "A4",
          "ticks": 1920,
          "time": 6.66666,
          "velocity": 0.7952755905511811
        },
        {
          "duration": 0.05555549999999965,
          "durationTicks": 16,
          "midi": 70,
          "name": "A#4",
          "ticks": 1936,
          "time": 6.7222155,
          "velocity": 0.4645669291338583
        },
        {
          "duration": 0.08333324999999991,
          "durationTicks": 24,
          "midi": 71,
          "name": "B4",
          "ticks": 1944,
          "time": 6.74999325,
          "velocity": 0.6692913385826772
        },
        {
          "duration": 0.08333324999999991,
          "durationTicks": 24,
          "midi": 69,
          "name": "A4",
          "ticks": 1968,
          "time": 6.8333265,
          "velocity": 0.7952755905511811
        },
        {
          "duration": 0.05555549999999876,
          "durationTicks": 16,
          "midi": 70,
          "name": "A#4",
          "ticks": 1984,
          "time": 6.888882000000001,
          "velocity": 0.4645669291338583
        },
        {
          "duration": 0.08333324999999991,
          "durationTicks": 24,
          "midi": 71,
          "name": "B4",
          "ticks": 1992,
          "time": 6.91665975,
          "velocity": 0.6692913385826772
        },
        {
          "duration": 0.16666649999999983,
          "durationTicks": 48,
          "midi": 69,
          "name": "A4",
          "ticks": 2016,
          "time": 6.999993,
          "velocity": 0.7952755905511811
        },
        {
          "duration": 0.055555500000000535,
          "durationTicks": 16,
          "midi": 62,
          "name": "D4",
          "ticks": 2064,
          "time": 7.1666595,
          "velocity": 0.7952755905511811
        },
        {
          "duration": 0.13888875000000045,
          "durationTicks": 40,
          "midi": 64,
          "name": "E4",
          "ticks": 2072,
          "time": 7.194437249999999,
          "velocity": 0.7952755905511811
        },
        {
          "duration": 0.16666650000000072,
          "durationTicks": 48,
          "midi": 61,
          "name": "C#4",
          "ticks": 2160,
          "time": 7.499992499999999,
          "velocity": 0.7952755905511811
        },
        {
          "duration": 0.16666649999999983,
          "durationTicks": 48,
          "midi": 59,
          "name": "B3",
          "ticks": 2208,
          "time": 7.666659,
          "velocity": 0.7952755905511811
        },
        {
          "duration": 0.16666649999999983,
          "durationTicks": 48,
          "midi": 57,
          "name": "A3",
          "ticks": 2256,
          "time": 7.8333255,
          "velocity": 0.7952755905511811
        },
        {
          "duration": 0.16666649999999805,
          "durationTicks": 48,
          "midi": 61,
          "name": "C#4",
          "ticks": 17760,
          "time": 61.666605,
          "velocity": 0.7086614173228346
        },
        {
          "duration": 0.16666650000000516,
          "durationTicks": 48,
          "midi": 59,
          "name": "B3",
          "ticks": 17808,
          "time": 61.833271499999995,
          "velocity": 0.7086614173228346
        },
        {
          "duration": 0.16666649999999805,
          "durationTicks": 48,
          "midi": 64,
          "name": "E4",
          "ticks": 17856,
          "time": 61.999938,
          "velocity": 0.7086614173228346
        },
        {
          "duration": 0.16666649999999805,
          "durationTicks": 48,
          "midi": 61,
          "name": "C#4",
          "ticks": 17904,
          "time": 62.1666045,
          "velocity": 0.7086614173228346
        },
        {
          "duration": 0.16666650000000516,
          "durationTicks": 48,
          "midi": 68,
          "name": "G#4",
          "ticks": 17952,
          "time": 62.333270999999996,
          "velocity": 0.7086614173228346
        },
        {
          "duration": 0.16666649999999805,
          "durationTicks": 48,
          "midi": 64,
          "name": "E4",
          "ticks": 18000,
          "time": 62.4999375,
          "velocity": 0.7086614173228346
        },
        {
          "duration": 0.16666649999999805,
          "durationTicks": 48,
          "midi": 71,
          "name": "B4",
          "ticks": 18048,
          "time": 62.666604,
          "velocity": 0.7086614173228346
        },
        {
          "duration": 0.16666649999999805,
          "durationTicks": 48,
          "midi": 73,
          "name": "C#5",
          "ticks": 18096,
          "time": 62.8332705,
          "velocity": 0.7086614173228346
        },
        {
          "duration": 0.3333330000000032,
          "durationTicks": 96,
          "midi": 80,
          "name": "G#5",
          "ticks": 18144,
          "time": 62.999936999999996,
          "velocity": 0.7086614173228346
        },
        {
          "duration": 0.14930540625000788,
          "durationTicks": 43,
          "midi": 69,
          "name": "A4",
          "ticks": 25968,
          "time": 90.16657649999999,
          "velocity": 0.8110236220472441
        },
        {
          "duration": 0.14930540625000788,
          "durationTicks": 43,
          "midi": 71,
          "name": "B4",
          "ticks": 26016,
          "time": 90.333243,
          "velocity": 0.8110236220472441
        },
        {
          "duration": 0.14930540625000788,
          "durationTicks": 43,
          "midi": 73,
          "name": "C#5",
          "ticks": 26064,
          "time": 90.4999095,
          "velocity": 0.8110236220472441
        },
        {
          "duration": 1.9826369062500078,
          "durationTicks": 571,
          "midi": 74,
          "name": "D5",
          "ticks": 26112,
          "time": 90.66657599999999,
          "velocity": 0.8110236220472441
        },
        {
          "duration": 0.14930540625000788,
          "durationTicks": 43,
          "midi": 69,
          "name": "A4",
          "ticks": 26736,
          "time": 92.8332405,
          "velocity": 0.8110236220472441
        },
        {
          "duration": 0.14930540625000788,
          "durationTicks": 43,
          "midi": 74,
          "name": "D5",
          "ticks": 26784,
          "time": 92.999907,
          "velocity": 0.8110236220472441
        },
        {
          "duration": 0.14930540625000788,
          "durationTicks": 43,
          "midi": 78,
          "name": "F#5",
          "ticks": 26832,
          "time": 93.1665735,
          "velocity": 0.8110236220472441
        },
        {
          "duration": 0.3159719062499988,
          "durationTicks": 91,
          "midi": 76,
          "name": "E5",
          "ticks": 26880,
          "time": 93.33324,
          "velocity": 0.8110236220472441
        },
        {
          "duration": 0.14930540625000788,
          "durationTicks": 43,
          "midi": 73,
          "name": "C#5",
          "ticks": 26976,
          "time": 93.666573,
          "velocity": 0.8110236220472441
        },
        {
          "duration": 1.4826374062500065,
          "durationTicks": 427,
          "midi": 81,
          "name": "A5",
          "ticks": 27024,
          "time": 93.83323949999999,
          "velocity": 0.8110236220472441
        },
        {
          "duration": 0.14930540625000788,
          "durationTicks": 43,
          "midi": 76,
          "name": "E5",
          "ticks": 27504,
          "time": 95.4999045,
          "velocity": 0.8110236220472441
        },
        {
          "duration": 0.14930540625000788,
          "durationTicks": 43,
          "midi": 81,
          "name": "A5",
          "ticks": 27552,
          "time": 95.66657099999999,
          "velocity": 0.8110236220472441
        },
        {
          "duration": 0.14930540625000788,
          "durationTicks": 43,
          "midi": 83,
          "name": "B5",
          "ticks": 27600,
          "time": 95.8332375,
          "velocity": 0.8110236220472441
        },
        {
          "duration": 0.14930540625000788,
          "durationTicks": 43,
          "midi": 83,
          "name": "B5",
          "ticks": 27648,
          "time": 95.999904,
          "velocity": 0.8110236220472441
        },
        {
          "duration": 0.2743052812500082,
          "durationTicks": 79,
          "midi": 85,
          "name": "C#6",
          "ticks": 27660,
          "time": 96.04157062499999,
          "velocity": 0.8110236220472441
        },
        {
          "duration": 0.14930540625000788,
          "durationTicks": 43,
          "midi": 83,
          "name": "B5",
          "ticks": 27744,
          "time": 96.333237,
          "velocity": 0.8110236220472441
        },
        {
          "duration": 0.3159719062499988,
          "durationTicks": 91,
          "midi": 81,
          "name": "A5",
          "ticks": 27792,
          "time": 96.4999035,
          "velocity": 0.8110236220472441
        },
        {
          "duration": 0.0659721562500124,
          "durationTicks": 19,
          "midi": 88,
          "name": "E6",
          "ticks": 27888,
          "time": 96.8332365,
          "velocity": 0.8110236220472441
        },
        {
          "duration": 0.274305281249994,
          "durationTicks": 79,
          "midi": 90,
          "name": "F#6",
          "ticks": 27900,
          "time": 96.874903125,
          "velocity": 0.8110236220472441
        },
        {
          "duration": 0.482638406250004,
          "durationTicks": 139,
          "midi": 88,
          "name": "E6",
          "ticks": 27984,
          "time": 97.1665695,
          "velocity": 0.8110236220472441
        },
        {
          "duration": 0.31597190625001303,
          "durationTicks": 91,
          "midi": 85,
          "name": "C#6",
          "ticks": 28128,
          "time": 97.666569,
          "velocity": 0.8110236220472441
        },
        {
          "duration": 0.31597190625001303,
          "durationTicks": 91,
          "midi": 83,
          "name": "B5",
          "ticks": 28224,
          "time": 97.99990199999999,
          "velocity": 0.8110236220472441
        },
        {
          "duration": 0.3159719062499988,
          "durationTicks": 91,
          "midi": 81,
          "name": "A5",
          "ticks": 28320,
          "time": 98.333235,
          "velocity": 0.8110236220472441
        },
        {
          "duration": 2.2326366562500084,
          "durationTicks": 643,
          "midi": 81,
          "name": "A5",
          "ticks": 28416,
          "time": 98.666568,
          "velocity": 0.8110236220472441
        },
        {
          "duration": 0.14930540625000788,
          "durationTicks": 43,
          "midi": 80,
          "name": "G#5",
          "ticks": 29088,
          "time": 100.999899,
          "velocity": 0.8110236220472441
        },
        {
          "duration": 0.14930540625000788,
          "durationTicks": 43,
          "midi": 81,
          "name": "A5",
          "ticks": 29136,
          "time": 101.16656549999999,
          "velocity": 0.8110236220472441
        },
        {
          "duration": 1.3159709062500013,
          "durationTicks": 379,
          "midi": 83,
          "name": "B5",
          "ticks": 29184,
          "time": 101.333232,
          "velocity": 0.8110236220472441
        },
        {
          "duration": 0.14583318750000274,
          "durationTicks": 42,
          "midi": 64,
          "name": "E4",
          "ticks": 29808,
          "time": 103.49989649999999,
          "velocity": 0.8110236220472441
        },
        {
          "duration": 0.14583318750000274,
          "durationTicks": 42,
          "midi": 69,
          "name": "A4",
          "ticks": 29856,
          "time": 103.666563,
          "velocity": 0.8110236220472441
        },
        {
          "duration": 0.14583318749998853,
          "durationTicks": 42,
          "midi": 71,
          "name": "B4",
          "ticks": 29904,
          "time": 103.8332295,
          "velocity": 0.8110236220472441
        },
        {
          "duration": 1.3124986875000104,
          "durationTicks": 378,
          "midi": 73,
          "name": "C#5",
          "ticks": 29952,
          "time": 103.99989599999999,
          "velocity": 0.8110236220472441
        },
        {
          "duration": 0.3124996875000079,
          "durationTicks": 90,
          "midi": 73,
          "name": "C#5",
          "ticks": 30336,
          "time": 105.33322799999999,
          "velocity": 0.8110236220472441
        },
        {
          "duration": 0.3124996874999937,
          "durationTicks": 90,
          "midi": 76,
          "name": "E5",
          "ticks": 30432,
          "time": 105.666561,
          "velocity": 0.8110236220472441
        },
        {
          "duration": 0.3124996874999937,
          "durationTicks": 90,
          "midi": 81,
          "name": "A5",
          "ticks": 30528,
          "time": 105.999894,
          "velocity": 0.8110236220472441
        },
        {
          "duration": 0.14583318750000274,
          "durationTicks": 42,
          "midi": 83,
          "name": "B5",
          "ticks": 30624,
          "time": 106.333227,
          "velocity": 0.8110236220472441
        },
        {
          "duration": 0.14583318750000274,
          "durationTicks": 42,
          "midi": 81,
          "name": "A5",
          "ticks": 30672,
          "time": 106.4998935,
          "velocity": 0.8110236220472441
        },
        {
          "duration": 0.1041665624999979,
          "durationTicks": 30,
          "midi": 83,
          "name": "B5",
          "ticks": 30720,
          "time": 106.66656,
          "velocity": 0.8110236220472441
        },
        {
          "duration": 1.2291654375000007,
          "durationTicks": 354,
          "midi": 85,
          "name": "C#6",
          "ticks": 30744,
          "time": 106.74989325,
          "velocity": 0.8110236220472441
        },
        {
          "duration": 0.3124996874999937,
          "durationTicks": 90,
          "midi": 85,
          "name": "C#6",
          "ticks": 31104,
          "time": 107.999892,
          "velocity": 0.8110236220472441
        },
        {
          "duration": 0.3124996874999937,
          "durationTicks": 90,
          "midi": 86,
          "name": "D6",
          "ticks": 31200,
          "time": 108.333225,
          "velocity": 0.8110236220472441
        },
        {
          "duration": 0.3124996875000079,
          "durationTicks": 90,
          "midi": 85,
          "name": "C#6",
          "ticks": 31296,
          "time": 108.666558,
          "velocity": 0.8110236220472441
        },
        {
          "duration": 0.14583318750000274,
          "durationTicks": 42,
          "midi": 83,
          "name": "B5",
          "ticks": 31392,
          "time": 108.99989099999999,
          "velocity": 0.8110236220472441
        },
        {
          "duration": 0.14583318750000274,
          "durationTicks": 42,
          "midi": 81,
          "name": "A5",
          "ticks": 31440,
          "time": 109.1665575,
          "velocity": 0.8110236220472441
        },
        {
          "duration": 0.14583318749998853,
          "durationTicks": 42,
          "midi": 83,
          "name": "B5",
          "ticks": 31488,
          "time": 109.333224,
          "velocity": 0.8110236220472441
        },
        {
          "duration": 0.9791656875000001,
          "durationTicks": 282,
          "midi": 81,
          "name": "A5",
          "ticks": 31536,
          "time": 109.49989049999999,
          "velocity": 0.8110236220472441
        },
        {
          "duration": 0.14583318750000274,
          "durationTicks": 42,
          "midi": 76,
          "name": "E5",
          "ticks": 31824,
          "time": 110.4998895,
          "velocity": 0.8110236220472441
        },
        {
          "duration": 0.3124996874999937,
          "durationTicks": 90,
          "midi": 85,
          "name": "C#6",
          "ticks": 31872,
          "time": 110.666556,
          "velocity": 0.8110236220472441
        },
        {
          "duration": 0.3124996874999937,
          "durationTicks": 90,
          "midi": 86,
          "name": "D6",
          "ticks": 31968,
          "time": 110.999889,
          "velocity": 0.8110236220472441
        },
        {
          "duration": 0.3124996875000079,
          "durationTicks": 90,
          "midi": 85,
          "name": "C#6",
          "ticks": 32064,
          "time": 111.33322199999999,
          "velocity": 0.8110236220472441
        },
        {
          "duration": 0.14583318749998853,
          "durationTicks": 42,
          "midi": 83,
          "name": "B5",
          "ticks": 32160,
          "time": 111.666555,
          "velocity": 0.8110236220472441
        },
        {
          "duration": 0.14583318750000274,
          "durationTicks": 42,
          "midi": 81,
          "name": "A5",
          "ticks": 32208,
          "time": 111.8332215,
          "velocity": 0.8110236220472441
        },
        {
          "duration": 0.14583318750000274,
          "durationTicks": 42,
          "midi": 83,
          "name": "B5",
          "ticks": 32256,
          "time": 111.999888,
          "velocity": 0.8110236220472441
        },
        {
          "duration": 1.8124981874999975,
          "durationTicks": 522,
          "midi": 81,
          "name": "A5",
          "ticks": 32304,
          "time": 112.1665545,
          "velocity": 0.8110236220472441
        },
        {
          "duration": 0.14583318750000274,
          "durationTicks": 42,
          "midi": 76,
          "name": "E5",
          "ticks": 32880,
          "time": 114.1665525,
          "velocity": 0.8110236220472441
        },
        {
          "duration": 0.14583318750000274,
          "durationTicks": 42,
          "midi": 88,
          "name": "E6",
          "ticks": 32928,
          "time": 114.333219,
          "velocity": 0.8110236220472441
        },
        {
          "duration": 0.14583318750000274,
          "durationTicks": 42,
          "midi": 86,
          "name": "D6",
          "ticks": 32976,
          "time": 114.49988549999999,
          "velocity": 0.8110236220472441
        },
        {
          "duration": 0.14583318750000274,
          "durationTicks": 42,
          "midi": 83,
          "name": "B5",
          "ticks": 33024,
          "time": 114.666552,
          "velocity": 0.8110236220472441
        },
        {
          "duration": 0.8958324375000046,
          "durationTicks": 258,
          "midi": 85,
          "name": "C#6",
          "ticks": 33048,
          "time": 114.74988524999999,
          "velocity": 0.8110236220472441
        },
        {
          "duration": 0.07986103124999033,
          "durationTicks": 23,
          "midi": 71,
          "name": "B4",
          "ticks": 33336,
          "time": 115.74988425,
          "velocity": 0.8110236220472441
        },
        {
          "duration": 0.07986103124999033,
          "durationTicks": 23,
          "midi": 69,
          "name": "A4",
          "ticks": 33360,
          "time": 115.8332175,
          "velocity": 0.8110236220472441
        },
        {
          "duration": 0.07986103124999033,
          "durationTicks": 23,
          "midi": 71,
          "name": "B4",
          "ticks": 33384,
          "time": 115.91655075,
          "velocity": 0.8110236220472441
        },
        {
          "duration": 0.3124996875000079,
          "durationTicks": 90,
          "midi": 73,
          "name": "C#5",
          "ticks": 33408,
          "time": 115.999884,
          "velocity": 0.8110236220472441
        },
        {
          "duration": 0.3124996875000079,
          "durationTicks": 90,
          "midi": 76,
          "name": "E5",
          "ticks": 33504,
          "time": 116.33321699999999,
          "velocity": 0.8110236220472441
        },
        {
          "duration": 0.3124996874999937,
          "durationTicks": 90,
          "midi": 81,
          "name": "A5",
          "ticks": 33600,
          "time": 116.66655,
          "velocity": 0.8110236220472441
        },
        {
          "duration": 0.14583318750000274,
          "durationTicks": 42,
          "midi": 83,
          "name": "B5",
          "ticks": 33696,
          "time": 116.999883,
          "velocity": 0.8110236220472441
        },
        {
          "duration": 0.14583318749998853,
          "durationTicks": 42,
          "midi": 81,
          "name": "A5",
          "ticks": 33744,
          "time": 117.1665495,
          "velocity": 0.8110236220472441
        },
        {
          "duration": 0.1041665624999979,
          "durationTicks": 30,
          "midi": 83,
          "name": "B5",
          "ticks": 33792,
          "time": 117.333216,
          "velocity": 0.8110236220472441
        },
        {
          "duration": 0.5624994374999943,
          "durationTicks": 162,
          "midi": 85,
          "name": "C#6",
          "ticks": 33816,
          "time": 117.41654925,
          "velocity": 0.8110236220472441
        },
        {
          "duration": 0.16319428125000002,
          "durationTicks": 47,
          "midi": 83,
          "name": "B5",
          "ticks": 34176,
          "time": 118.66654799999999,
          "velocity": 0.8110236220472441
        },
        {
          "duration": 0.16319428125000002,
          "durationTicks": 47,
          "midi": 86,
          "name": "D6",
          "ticks": 34248,
          "time": 118.91654774999999,
          "velocity": 0.8110236220472441
        },
        {
          "duration": 0.16319428125000002,
          "durationTicks": 47,
          "midi": 83,
          "name": "B5",
          "ticks": 34320,
          "time": 119.1665475,
          "velocity": 0.8110236220472441
        },
        {
          "duration": 0.1631942812499858,
          "durationTicks": 47,
          "midi": 85,
          "name": "C#6",
          "ticks": 34368,
          "time": 119.333214,
          "velocity": 0.8110236220472441
        },
        {
          "duration": 0.1631942812499858,
          "durationTicks": 47,
          "midi": 76,
          "name": "E5",
          "ticks": 34368,
          "time": 119.333214,
          "velocity": 0.8110236220472441
        },
        {
          "duration": 0.1631942812499858,
          "durationTicks": 47,
          "midi": 74,
          "name": "D5",
          "ticks": 34416,
          "time": 119.4998805,
          "velocity": 0.8110236220472441
        },
        {
          "duration": 0.1631942812499858,
          "durationTicks": 47,
          "midi": 83,
          "name": "B5",
          "ticks": 34416,
          "time": 119.4998805,
          "velocity": 0.8110236220472441
        },
        {
          "duration": 0.16319428125000002,
          "durationTicks": 47,
          "midi": 81,
          "name": "A5",
          "ticks": 34464,
          "time": 119.666547,
          "velocity": 0.8110236220472441
        },
        {
          "duration": 0.16319428125000002,
          "durationTicks": 47,
          "midi": 73,
          "name": "C#5",
          "ticks": 34464,
          "time": 119.666547,
          "velocity": 0.8110236220472441
        },
        {
          "duration": 0.1631942812499858,
          "durationTicks": 47,
          "midi": 71,
          "name": "B4",
          "ticks": 34512,
          "time": 119.8332135,
          "velocity": 0.8110236220472441
        },
        {
          "duration": 0.1631942812499858,
          "durationTicks": 47,
          "midi": 80,
          "name": "G#5",
          "ticks": 34512,
          "time": 119.8332135,
          "velocity": 0.8110236220472441
        },
        {
          "duration": 0.16319428125000002,
          "durationTicks": 47,
          "midi": 73,
          "name": "C#5",
          "ticks": 34560,
          "time": 119.99987999999999,
          "velocity": 0.8110236220472441
        },
        {
          "duration": 0.16319428125000002,
          "durationTicks": 47,
          "midi": 81,
          "name": "A5",
          "ticks": 34560,
          "time": 119.99987999999999,
          "velocity": 0.8110236220472441
        },
        {
          "duration": 0.16319428125000002,
          "durationTicks": 47,
          "midi": 81,
          "name": "A5",
          "ticks": 34608,
          "time": 120.1665465,
          "velocity": 0.8110236220472441
        },
        {
          "duration": 0.16319428125000002,
          "durationTicks": 47,
          "midi": 90,
          "name": "F#6",
          "ticks": 34608,
          "time": 120.1665465,
          "velocity": 0.8110236220472441
        },
        {
          "duration": 0.16319428125000002,
          "durationTicks": 47,
          "midi": 72,
          "name": "C5",
          "ticks": 34752,
          "time": 120.666546,
          "velocity": 0.8110236220472441
        },
        {
          "duration": 0.16319428125000002,
          "durationTicks": 47,
          "midi": 80,
          "name": "G#5",
          "ticks": 34752,
          "time": 120.666546,
          "velocity": 0.8110236220472441
        },
        {
          "duration": 0.1631942812499858,
          "durationTicks": 47,
          "midi": 80,
          "name": "G#5",
          "ticks": 34800,
          "time": 120.8332125,
          "velocity": 0.8110236220472441
        },
        {
          "duration": 0.1631942812499858,
          "durationTicks": 47,
          "midi": 89,
          "name": "F6",
          "ticks": 34800,
          "time": 120.8332125,
          "velocity": 0.8110236220472441
        },
        {
          "duration": 0.1631942812499858,
          "durationTicks": 47,
          "midi": 71,
          "name": "B4",
          "ticks": 34944,
          "time": 121.333212,
          "velocity": 0.8110236220472441
        },
        {
          "duration": 0.1631942812499858,
          "durationTicks": 47,
          "midi": 79,
          "name": "G5",
          "ticks": 34944,
          "time": 121.333212,
          "velocity": 0.8110236220472441
        },
        {
          "duration": 0.16319428125000002,
          "durationTicks": 47,
          "midi": 79,
          "name": "G5",
          "ticks": 34992,
          "time": 121.4998785,
          "velocity": 0.8110236220472441
        },
        {
          "duration": 0.16319428125000002,
          "durationTicks": 47,
          "midi": 88,
          "name": "E6",
          "ticks": 34992,
          "time": 121.4998785,
          "velocity": 0.8110236220472441
        },
        {
          "duration": 0.16319428125000002,
          "durationTicks": 47,
          "midi": 85,
          "name": "C#6",
          "ticks": 35136,
          "time": 121.999878,
          "velocity": 0.6929133858267716
        },
        {
          "duration": 0.16319428125000002,
          "durationTicks": 47,
          "midi": 90,
          "name": "F#6",
          "ticks": 35136,
          "time": 121.999878,
          "velocity": 0.8110236220472441
        },
        {
          "duration": 0.1631942812499858,
          "durationTicks": 47,
          "midi": 83,
          "name": "B5",
          "ticks": 35184,
          "time": 122.1665445,
          "velocity": 0.6771653543307087
        },
        {
          "duration": 0.1631942812499858,
          "durationTicks": 47,
          "midi": 88,
          "name": "E6",
          "ticks": 35184,
          "time": 122.1665445,
          "velocity": 0.8110236220472441
        },
        {
          "duration": 0.16319428125000002,
          "durationTicks": 47,
          "midi": 81,
          "name": "A5",
          "ticks": 35232,
          "time": 122.33321099999999,
          "velocity": 0.6692913385826772
        },
        {
          "duration": 0.16319428125000002,
          "durationTicks": 47,
          "midi": 85,
          "name": "C#6",
          "ticks": 35232,
          "time": 122.33321099999999,
          "velocity": 0.8110236220472441
        },
        {
          "duration": 0.16319428125000002,
          "durationTicks": 47,
          "midi": 80,
          "name": "G#5",
          "ticks": 35280,
          "time": 122.4998775,
          "velocity": 0.6535433070866141
        },
        {
          "duration": 0.16319428125000002,
          "durationTicks": 47,
          "midi": 83,
          "name": "B5",
          "ticks": 35280,
          "time": 122.4998775,
          "velocity": 0.8110236220472441
        },
        {
          "duration": 0.32986078124999096,
          "durationTicks": 95,
          "midi": 81,
          "name": "A5",
          "ticks": 35328,
          "time": 122.666544,
          "velocity": 0.8110236220472441
        },
        {
          "duration": 0.2881941562499861,
          "durationTicks": 83,
          "midi": 76,
          "name": "E5",
          "ticks": 35328,
          "time": 122.666544,
          "velocity": 0.6377952755905512
        },
        {
          "duration": 0.32986078124999096,
          "durationTicks": 95,
          "midi": 81,
          "name": "A5",
          "ticks": 35424,
          "time": 122.999877,
          "velocity": 0.7559055118110236
        },
        {
          "duration": 0.2881941562499861,
          "durationTicks": 83,
          "midi": 76,
          "name": "E5",
          "ticks": 35424,
          "time": 122.999877,
          "velocity": 0.6062992125984252
        },
        {
          "duration": 0.32986078124999096,
          "durationTicks": 95,
          "midi": 81,
          "name": "A5",
          "ticks": 35520,
          "time": 123.33321,
          "velocity": 0.7165354330708661
        },
        {
          "duration": 0.28819415625000033,
          "durationTicks": 83,
          "midi": 76,
          "name": "E5",
          "ticks": 35520,
          "time": 123.33321,
          "velocity": 0.5748031496062992
        },
        {
          "duration": 0.3298607812500052,
          "durationTicks": 95,
          "midi": 81,
          "name": "A5",
          "ticks": 35616,
          "time": 123.66654299999999,
          "velocity": 0.6771653543307087
        },
        {
          "duration": 0.28819415625000033,
          "durationTicks": 83,
          "midi": 76,
          "name": "E5",
          "ticks": 35616,
          "time": 123.66654299999999,
          "velocity": 0.5433070866141733
        },
        {
          "duration": 0.32986078124999096,
          "durationTicks": 95,
          "midi": 81,
          "name": "A5",
          "ticks": 35712,
          "time": 123.999876,
          "velocity": 0.6377952755905512
        },
        {
          "duration": 0.2881941562499861,
          "durationTicks": 83,
          "midi": 76,
          "name": "E5",
          "ticks": 35712,
          "time": 123.999876,
          "velocity": 0.5118110236220472
        },
        {
          "duration": 0.10069434375000696,
          "durationTicks": 29,
          "midi": 71,
          "name": "B4",
          "ticks": 40896,
          "time": 141.999858,
          "velocity": 0.8110236220472441
        },
        {
          "duration": 0.10069434374997854,
          "durationTicks": 29,
          "midi": 74,
          "name": "D5",
          "ticks": 40960,
          "time": 142.22208,
          "velocity": 0.8110236220472441
        },
        {
          "duration": 0.10069434374997854,
          "durationTicks": 29,
          "midi": 81,
          "name": "A5",
          "ticks": 40992,
          "time": 142.333191,
          "velocity": 0.8110236220472441
        },
        {
          "duration": 0.10069434374997854,
          "durationTicks": 29,
          "midi": 88,
          "name": "E6",
          "ticks": 41056,
          "time": 142.55541300000002,
          "velocity": 0.8110236220472441
        },
        {
          "duration": 0.10069434375000696,
          "durationTicks": 29,
          "midi": 85,
          "name": "C#6",
          "ticks": 41152,
          "time": 142.888746,
          "velocity": 0.8110236220472441
        },
        {
          "duration": 0.10069434374997854,
          "durationTicks": 29,
          "midi": 86,
          "name": "D6",
          "ticks": 41248,
          "time": 143.222079,
          "velocity": 0.8110236220472441
        },
        {
          "duration": 0.10069434374997854,
          "durationTicks": 29,
          "midi": 85,
          "name": "C#6",
          "ticks": 41280,
          "time": 143.33319,
          "velocity": 0.8110236220472441
        },
        {
          "duration": 0.10069434375000696,
          "durationTicks": 29,
          "midi": 81,
          "name": "A5",
          "ticks": 41344,
          "time": 143.555412,
          "velocity": 0.8110236220472441
        },
        {
          "duration": 0.21180534375002935,
          "durationTicks": 61,
          "midi": 83,
          "name": "B5",
          "ticks": 41376,
          "time": 143.66652299999998,
          "velocity": 0.8110236220472441
        },
        {
          "duration": 0.10069434375000696,
          "durationTicks": 29,
          "midi": 81,
          "name": "A5",
          "ticks": 41440,
          "time": 143.888745,
          "velocity": 0.8110236220472441
        },
        {
          "duration": 0.10069434375000696,
          "durationTicks": 29,
          "midi": 81,
          "name": "A5",
          "ticks": 41472,
          "time": 143.999856,
          "velocity": 0.8110236220472441
        },
        {
          "duration": 0.10069434375000696,
          "durationTicks": 29,
          "midi": 83,
          "name": "B5",
          "ticks": 41504,
          "time": 144.110967,
          "velocity": 0.8110236220472441
        },
        {
          "duration": 1.0694433749999916,
          "durationTicks": 308,
          "midi": 81,
          "name": "A5",
          "ticks": 41536,
          "time": 144.222078,
          "velocity": 0.8110236220472441
        },
        {
          "duration": 0.1527776249999988,
          "durationTicks": 44,
          "midi": 80,
          "name": "G#5",
          "ticks": 41664,
          "time": 144.666522,
          "velocity": 0.4566929133858268
        },
        {
          "duration": 0.15277762500002723,
          "durationTicks": 44,
          "midi": 79,
          "name": "G5",
          "ticks": 41696,
          "time": 144.77763299999998,
          "velocity": 0.3779527559055118
        },
        {
          "duration": 0.1527776249999988,
          "durationTicks": 44,
          "midi": 78,
          "name": "F#5",
          "ticks": 41728,
          "time": 144.888744,
          "velocity": 0.30708661417322836
        },
        {
          "duration": 0.1527776249999988,
          "durationTicks": 44,
          "midi": 77,
          "name": "F5",
          "ticks": 41760,
          "time": 144.999855,
          "velocity": 0.2283464566929134
        },
        {
          "duration": 0.1527776249999988,
          "durationTicks": 44,
          "midi": 76,
          "name": "E5",
          "ticks": 41792,
          "time": 145.110966,
          "velocity": 0.15748031496062992
        },
        {
          "duration": 0.15277762499997039,
          "durationTicks": 44,
          "midi": 75,
          "name": "D#5",
          "ticks": 41824,
          "time": 145.222077,
          "velocity": 0.07874015748031496
        },
        {
          "duration": 0.1527776249999988,
          "durationTicks": 44,
          "midi": 73,
          "name": "C#5",
          "ticks": 41888,
          "time": 145.444299,
          "velocity": 0.007874015748031496
        }
      ],
      "endOfTrackTicks": 45698
    },
    {
      "channel": 5,
      "controlChanges": {
        "6": [
          {
            "number": 6,
            "ticks": 0,
            "time": 0,
            "value": 0.09448818897637795
          },
          {
            "number": 6,
            "ticks": 0,
            "time": 0,
            "value": 0.09448818897637795
          },
          {
            "number": 6,
            "ticks": 0,
            "time": 0,
            "value": 0.09448818897637795
          },
          {
            "number": 6,
            "ticks": 45696,
            "time": 158.666508,
            "value": 0.09448818897637795
          },
          {
            "number": 6,
            "ticks": 45698,
            "time": 158.67345243749998,
            "value": 0.09448818897637795
          }
        ],
        "7": [
          {
            "number": 7,
            "ticks": 0,
            "time": 0,
            "value": 0.7874015748031497
          },
          {
            "number": 7,
            "ticks": 0,
            "time": 0,
            "value": 0.7874015748031497
          },
          {
            "number": 7,
            "ticks": 0,
            "time": 0,
            "value": 0.7874015748031497
          },
          {
            "number": 7,
            "ticks": 0,
            "time": 0,
            "value": 0.7874015748031497
          },
          {
            "number": 7,
            "ticks": 45696,
            "time": 158.666508,
            "value": 0.7874015748031497
          },
          {
            "number": 7,
            "ticks": 45698,
            "time": 158.67345243749998,
            "value": 0.7874015748031497
          }
        ],
        "10": [
          {
            "number": 10,
            "ticks": 0,
            "time": 0,
            "value": 0.5039370078740157
          },
          {
            "number": 10,
            "ticks": 0,
            "time": 0,
            "value": 0.5039370078740157
          },
          {
            "number": 10,
            "ticks": 0,
            "time": 0,
            "value": 0.5039370078740157
          },
          {
            "number": 10,
            "ticks": 0,
            "time": 0,
            "value": 0.5039370078740157
          },
          {
            "number": 10,
            "ticks": 45696,
            "time": 158.666508,
            "value": 0.5039370078740157
          },
          {
            "number": 10,
            "ticks": 45698,
            "time": 158.67345243749998,
            "value": 0.5039370078740157
          }
        ],
        "100": [
          {
            "number": 100,
            "ticks": 0,
            "time": 0,
            "value": 0
          },
          {
            "number": 100,
            "ticks": 0,
            "time": 0,
            "value": 0
          },
          {
            "number": 100,
            "ticks": 0,
            "time": 0,
            "value": 0
          },
          {
            "number": 100,
            "ticks": 45696,
            "time": 158.666508,
            "value": 0
          },
          {
            "number": 100,
            "ticks": 45698,
            "time": 158.67345243749998,
            "value": 0
          }
        ],
        "101": [
          {
            "number": 101,
            "ticks": 0,
            "time": 0,
            "value": 0
          },
          {
            "number": 101,
            "ticks": 0,
            "time": 0,
            "value": 0
          },
          {
            "number": 101,
            "ticks": 0,
            "time": 0,
            "value": 0
          },
          {
            "number": 101,
            "ticks": 45696,
            "time": 158.666508,
            "value": 0
          },
          {
            "number": 101,
            "ticks": 45698,
            "time": 158.67345243749998,
            "value": 0
          }
        ]
      },
      "pitchBends": [
        {
          "ticks": 0,
          "time": 0,
          "value": 0
        },
        {
          "ticks": 0,
          "time": 0,
          "value": 0
        },
        {
          "ticks": 0,
          "time": 0,
          "value": 0
        },
        {
          "ticks": 0,
          "time": 0,
          "value": 0
        },
        {
          "ticks": 45696,
          "time": 158.666508,
          "value": 0
        },
        {
          "ticks": 45698,
          "time": 158.67345243749998,
          "value": 0
        }
      ],
      "instrument": {
        "family": "piano",
        "number": 0,
        "name": "acoustic grand piano"
      },
      "name": "Lead",
      "notes": [
        {
          "duration": 0.16666649999999983,
          "durationTicks": 48,
          "midi": 81,
          "name": "A5",
          "ticks": 1728,
          "time": 5.999994,
          "velocity": 0.7952755905511811
        },
        {
          "duration": 0.08333324999999991,
          "durationTicks": 24,
          "midi": 82,
          "name": "A#5",
          "ticks": 1760,
          "time": 6.111104999999999,
          "velocity": 0.4330708661417323
        },
        {
          "duration": 0.33333299999999966,
          "durationTicks": 96,
          "midi": 83,
          "name": "B5",
          "ticks": 1776,
          "time": 6.1666605,
          "velocity": 0.7952755905511811
        },
        {
          "duration": 0.08333324999999991,
          "durationTicks": 24,
          "midi": 81,
          "name": "A5",
          "ticks": 1920,
          "time": 6.66666,
          "velocity": 0.7952755905511811
        },
        {
          "duration": 0.05555549999999965,
          "durationTicks": 16,
          "midi": 82,
          "name": "A#5",
          "ticks": 1936,
          "time": 6.7222155,
          "velocity": 0.4645669291338583
        },
        {
          "duration": 0.08333324999999991,
          "durationTicks": 24,
          "midi": 83,
          "name": "B5",
          "ticks": 1944,
          "time": 6.74999325,
          "velocity": 0.6692913385826772
        },
        {
          "duration": 0.08333324999999991,
          "durationTicks": 24,
          "midi": 81,
          "name": "A5",
          "ticks": 1968,
          "time": 6.8333265,
          "velocity": 0.7952755905511811
        },
        {
          "duration": 0.05555549999999876,
          "durationTicks": 16,
          "midi": 82,
          "name": "A#5",
          "ticks": 1984,
          "time": 6.888882000000001,
          "velocity": 0.4645669291338583
        },
        {
          "duration": 0.08333324999999991,
          "durationTicks": 24,
          "midi": 83,
          "name": "B5",
          "ticks": 1992,
          "time": 6.91665975,
          "velocity": 0.6692913385826772
        },
        {
          "duration": 0.16666649999999983,
          "durationTicks": 48,
          "midi": 81,
          "name": "A5",
          "ticks": 2016,
          "time": 6.999993,
          "velocity": 0.7952755905511811
        },
        {
          "duration": 0.055555500000000535,
          "durationTicks": 16,
          "midi": 74,
          "name": "D5",
          "ticks": 2064,
          "time": 7.1666595,
          "velocity": 0.7952755905511811
        },
        {
          "duration": 0.13888875000000045,
          "durationTicks": 40,
          "midi": 76,
          "name": "E5",
          "ticks": 2072,
          "time": 7.194437249999999,
          "velocity": 0.7952755905511811
        },
        {
          "duration": 0.16666650000000072,
          "durationTicks": 48,
          "midi": 73,
          "name": "C#5",
          "ticks": 2160,
          "time": 7.499992499999999,
          "velocity": 0.7952755905511811
        },
        {
          "duration": 0.16666649999999983,
          "durationTicks": 48,
          "midi": 71,
          "name": "B4",
          "ticks": 2208,
          "time": 7.666659,
          "velocity": 0.7952755905511811
        },
        {
          "duration": 0.16666649999999983,
          "durationTicks": 48,
          "midi": 69,
          "name": "A4",
          "ticks": 2256,
          "time": 7.8333255,
          "velocity": 0.7952755905511811
        },
        {
          "duration": 0.6666660000000029,
          "durationTicks": 192,
          "midi": 93,
          "name": "A6",
          "ticks": 5568,
          "time": 19.333313999999998,
          "velocity": 0.5984251968503937
        },
        {
          "duration": 0.4999994999999977,
          "durationTicks": 144,
          "midi": 91,
          "name": "G6",
          "ticks": 5760,
          "time": 19.99998,
          "velocity": 0.5984251968503937
        },
        {
          "duration": 0.49999950000000126,
          "durationTicks": 144,
          "midi": 89,
          "name": "F6",
          "ticks": 5904,
          "time": 20.4999795,
          "velocity": 0.5984251968503937
        },
        {
          "duration": 0.16666649999999805,
          "durationTicks": 48,
          "midi": 88,
          "name": "E6",
          "ticks": 6048,
          "time": 20.999979,
          "velocity": 0.5984251968503937
        },
        {
          "duration": 0.1666665000000016,
          "durationTicks": 48,
          "midi": 86,
          "name": "D6",
          "ticks": 6096,
          "time": 21.166645499999998,
          "velocity": 0.5984251968503937
        },
        {
          "duration": 0.6666659999999993,
          "durationTicks": 192,
          "midi": 85,
          "name": "C#6",
          "ticks": 6144,
          "time": 21.333312,
          "velocity": 0.5984251968503937
        },
        {
          "duration": 0.29166637499999837,
          "durationTicks": 84,
          "midi": 71,
          "name": "B4",
          "ticks": 13152,
          "time": 45.666621,
          "velocity": 0.8031496062992126
        },
        {
          "duration": 0.3333329999999961,
          "durationTicks": 96,
          "midi": 80,
          "name": "G#5",
          "ticks": 13152,
          "time": 45.666621,
          "velocity": 0.8031496062992126
        },
        {
          "duration": 0.3333329999999961,
          "durationTicks": 96,
          "midi": 68,
          "name": "G#4",
          "ticks": 13152,
          "time": 45.666621,
          "velocity": 0.8031496062992126
        },
        {
          "duration": 0.29166637499999837,
          "durationTicks": 84,
          "midi": 76,
          "name": "E5",
          "ticks": 13154,
          "time": 45.6735654375,
          "velocity": 0.8031496062992126
        },
        {
          "duration": 0.16666650000000516,
          "durationTicks": 48,
          "midi": 76,
          "name": "E5",
          "ticks": 13248,
          "time": 45.999953999999995,
          "velocity": 0.8031496062992126
        },
        {
          "duration": 0.16666650000000516,
          "durationTicks": 48,
          "midi": 80,
          "name": "G#5",
          "ticks": 13248,
          "time": 45.999953999999995,
          "velocity": 0.8031496062992126
        },
        {
          "duration": 0.16666650000000516,
          "durationTicks": 48,
          "midi": 83,
          "name": "B5",
          "ticks": 13251,
          "time": 46.01037065625,
          "velocity": 0.8031496062992126
        },
        {
          "duration": 0.16666650000000516,
          "durationTicks": 48,
          "midi": 71,
          "name": "B4",
          "ticks": 13251,
          "time": 46.01037065625,
          "velocity": 0.8031496062992126
        },
        {
          "duration": 0.16666649999999805,
          "durationTicks": 48,
          "midi": 76,
          "name": "E5",
          "ticks": 13344,
          "time": 46.333287,
          "velocity": 0.8031496062992126
        },
        {
          "duration": 0.16666649999999805,
          "durationTicks": 48,
          "midi": 80,
          "name": "G#5",
          "ticks": 13344,
          "time": 46.333287,
          "velocity": 0.8031496062992126
        },
        {
          "duration": 0.16666649999999805,
          "durationTicks": 48,
          "midi": 83,
          "name": "B5",
          "ticks": 13348,
          "time": 46.347175875,
          "velocity": 0.8031496062992126
        },
        {
          "duration": 0.16666649999999805,
          "durationTicks": 48,
          "midi": 71,
          "name": "B4",
          "ticks": 13348,
          "time": 46.347175875,
          "velocity": 0.8031496062992126
        },
        {
          "duration": 0.49999950000000126,
          "durationTicks": 144,
          "midi": 75,
          "name": "D#5",
          "ticks": 13392,
          "time": 46.4999535,
          "velocity": 0.8031496062992126
        },
        {
          "duration": 0.49999950000000126,
          "durationTicks": 144,
          "midi": 82,
          "name": "A#5",
          "ticks": 13398,
          "time": 46.5207868125,
          "velocity": 0.8031496062992126
        },
        {
          "duration": 0.49999950000000126,
          "durationTicks": 144,
          "midi": 70,
          "name": "A#4",
          "ticks": 13398,
          "time": 46.5207868125,
          "velocity": 0.8031496062992126
        },
        {
          "duration": 0.4583328749999964,
          "durationTicks": 132,
          "midi": 79,
          "name": "G5",
          "ticks": 13399,
          "time": 46.52425903125,
          "velocity": 0.8031496062992126
        },
        {
          "duration": 0.05555549999999698,
          "durationTicks": 16,
          "midi": 69,
          "name": "A4",
          "ticks": 13536,
          "time": 46.999953,
          "velocity": 0.6141732283464567
        },
        {
          "duration": 0.05555549999999698,
          "durationTicks": 16,
          "midi": 57,
          "name": "A3",
          "ticks": 13536,
          "time": 46.999953,
          "velocity": 0.41732283464566927
        },
        {
          "duration": 0.05555549999999698,
          "durationTicks": 16,
          "midi": 68,
          "name": "G#4",
          "ticks": 13548,
          "time": 47.041619624999996,
          "velocity": 0.3779527559055118
        },
        {
          "duration": 0.05555549999999698,
          "durationTicks": 16,
          "midi": 56,
          "name": "G#3",
          "ticks": 13548,
          "time": 47.041619624999996,
          "velocity": 0.3779527559055118
        },
        {
          "duration": 0.05555549999999698,
          "durationTicks": 16,
          "midi": 67,
          "name": "G4",
          "ticks": 13560,
          "time": 47.08328625,
          "velocity": 0.33858267716535434
        },
        {
          "duration": 0.05555549999999698,
          "durationTicks": 16,
          "midi": 55,
          "name": "G3",
          "ticks": 13560,
          "time": 47.08328625,
          "velocity": 0.33858267716535434
        },
        {
          "duration": 0.05555549999999698,
          "durationTicks": 16,
          "midi": 66,
          "name": "F#4",
          "ticks": 13572,
          "time": 47.124952875,
          "velocity": 0.2992125984251969
        },
        {
          "duration": 0.05555549999999698,
          "durationTicks": 16,
          "midi": 54,
          "name": "F#3",
          "ticks": 13572,
          "time": 47.124952875,
          "velocity": 0.2992125984251969
        },
        {
          "duration": 0.05555549999999698,
          "durationTicks": 16,
          "midi": 65,
          "name": "F4",
          "ticks": 13584,
          "time": 47.166619499999996,
          "velocity": 0.25984251968503935
        },
        {
          "duration": 0.05555549999999698,
          "durationTicks": 16,
          "midi": 53,
          "name": "F3",
          "ticks": 13584,
          "time": 47.166619499999996,
          "velocity": 0.25984251968503935
        },
        {
          "duration": 0.05555549999999698,
          "durationTicks": 16,
          "midi": 64,
          "name": "E4",
          "ticks": 13596,
          "time": 47.208286125,
          "velocity": 0.2204724409448819
        },
        {
          "duration": 0.05555549999999698,
          "durationTicks": 16,
          "midi": 52,
          "name": "E3",
          "ticks": 13596,
          "time": 47.208286125,
          "velocity": 0.2204724409448819
        },
        {
          "duration": 0.05555549999999698,
          "durationTicks": 16,
          "midi": 63,
          "name": "D#4",
          "ticks": 13608,
          "time": 47.24995275,
          "velocity": 0.18110236220472442
        },
        {
          "duration": 0.05555549999999698,
          "durationTicks": 16,
          "midi": 51,
          "name": "D#3",
          "ticks": 13608,
          "time": 47.24995275,
          "velocity": 0.18110236220472442
        },
        {
          "duration": 0.05555549999999698,
          "durationTicks": 16,
          "midi": 62,
          "name": "D4",
          "ticks": 13620,
          "time": 47.291619374999996,
          "velocity": 0.14173228346456693
        },
        {
          "duration": 0.05555549999999698,
          "durationTicks": 16,
          "midi": 50,
          "name": "D3",
          "ticks": 13620,
          "time": 47.291619374999996,
          "velocity": 0.14173228346456693
        },
        {
          "duration": 0.05555549999999698,
          "durationTicks": 16,
          "midi": 61,
          "name": "C#4",
          "ticks": 13632,
          "time": 47.333286,
          "velocity": 0.10236220472440945
        },
        {
          "duration": 0.05555549999999698,
          "durationTicks": 16,
          "midi": 49,
          "name": "C#3",
          "ticks": 13632,
          "time": 47.333286,
          "velocity": 0.10236220472440945
        },
        {
          "duration": 0.14930540625000788,
          "durationTicks": 43,
          "midi": 57,
          "name": "A3",
          "ticks": 25968,
          "time": 90.16657649999999,
          "velocity": 0.8110236220472441
        },
        {
          "duration": 0.14930540625000788,
          "durationTicks": 43,
          "midi": 59,
          "name": "B3",
          "ticks": 26016,
          "time": 90.333243,
          "velocity": 0.8110236220472441
        },
        {
          "duration": 0.14930540625000788,
          "durationTicks": 43,
          "midi": 61,
          "name": "C#4",
          "ticks": 26064,
          "time": 90.4999095,
          "velocity": 0.8110236220472441
        },
        {
          "duration": 1.9826369062500078,
          "durationTicks": 571,
          "midi": 62,
          "name": "D4",
          "ticks": 26112,
          "time": 90.66657599999999,
          "velocity": 0.8110236220472441
        },
        {
          "duration": 0.14930540625000788,
          "durationTicks": 43,
          "midi": 57,
          "name": "A3",
          "ticks": 26736,
          "time": 92.8332405,
          "velocity": 0.8110236220472441
        },
        {
          "duration": 0.14930540625000788,
          "durationTicks": 43,
          "midi": 62,
          "name": "D4",
          "ticks": 26784,
          "time": 92.999907,
          "velocity": 0.8110236220472441
        },
        {
          "duration": 0.14930540625000788,
          "durationTicks": 43,
          "midi": 66,
          "name": "F#4",
          "ticks": 26832,
          "time": 93.1665735,
          "velocity": 0.8110236220472441
        },
        {
          "duration": 0.3159719062499988,
          "durationTicks": 91,
          "midi": 64,
          "name": "E4",
          "ticks": 26880,
          "time": 93.33324,
          "velocity": 0.8110236220472441
        },
        {
          "duration": 0.14930540625000788,
          "durationTicks": 43,
          "midi": 61,
          "name": "C#4",
          "ticks": 26976,
          "time": 93.666573,
          "velocity": 0.8110236220472441
        },
        {
          "duration": 1.4826374062500065,
          "durationTicks": 427,
          "midi": 69,
          "name": "A4",
          "ticks": 27024,
          "time": 93.83323949999999,
          "velocity": 0.8110236220472441
        },
        {
          "duration": 0.14930540625000788,
          "durationTicks": 43,
          "midi": 64,
          "name": "E4",
          "ticks": 27504,
          "time": 95.4999045,
          "velocity": 0.8110236220472441
        },
        {
          "duration": 0.14930540625000788,
          "durationTicks": 43,
          "midi": 69,
          "name": "A4",
          "ticks": 27552,
          "time": 95.66657099999999,
          "velocity": 0.8110236220472441
        },
        {
          "duration": 0.14930540625000788,
          "durationTicks": 43,
          "midi": 71,
          "name": "B4",
          "ticks": 27600,
          "time": 95.8332375,
          "velocity": 0.8110236220472441
        },
        {
          "duration": 0.14930540625000788,
          "durationTicks": 43,
          "midi": 71,
          "name": "B4",
          "ticks": 27648,
          "time": 95.999904,
          "velocity": 0.8110236220472441
        },
        {
          "duration": 0.2743052812500082,
          "durationTicks": 79,
          "midi": 73,
          "name": "C#5",
          "ticks": 27660,
          "time": 96.04157062499999,
          "velocity": 0.8110236220472441
        },
        {
          "duration": 0.14930540625000788,
          "durationTicks": 43,
          "midi": 71,
          "name": "B4",
          "ticks": 27744,
          "time": 96.333237,
          "velocity": 0.8110236220472441
        },
        {
          "duration": 0.3159719062499988,
          "durationTicks": 91,
          "midi": 69,
          "name": "A4",
          "ticks": 27792,
          "time": 96.4999035,
          "velocity": 0.8110236220472441
        },
        {
          "duration": 0.0659721562500124,
          "durationTicks": 19,
          "midi": 76,
          "name": "E5",
          "ticks": 27888,
          "time": 96.8332365,
          "velocity": 0.8110236220472441
        },
        {
          "duration": 0.274305281249994,
          "durationTicks": 79,
          "midi": 78,
          "name": "F#5",
          "ticks": 27900,
          "time": 96.874903125,
          "velocity": 0.8110236220472441
        },
        {
          "duration": 0.482638406250004,
          "durationTicks": 139,
          "midi": 76,
          "name": "E5",
          "ticks": 27984,
          "time": 97.1665695,
          "velocity": 0.8110236220472441
        },
        {
          "duration": 0.31597190625001303,
          "durationTicks": 91,
          "midi": 73,
          "name": "C#5",
          "ticks": 28128,
          "time": 97.666569,
          "velocity": 0.8110236220472441
        },
        {
          "duration": 0.31597190625001303,
          "durationTicks": 91,
          "midi": 71,
          "name": "B4",
          "ticks": 28224,
          "time": 97.99990199999999,
          "velocity": 0.8110236220472441
        },
        {
          "duration": 0.3159719062499988,
          "durationTicks": 91,
          "midi": 69,
          "name": "A4",
          "ticks": 28320,
          "time": 98.333235,
          "velocity": 0.8110236220472441
        },
        {
          "duration": 2.2326366562500084,
          "durationTicks": 643,
          "midi": 69,
          "name": "A4",
          "ticks": 28416,
          "time": 98.666568,
          "velocity": 0.8110236220472441
        },
        {
          "duration": 0.14930540625000788,
          "durationTicks": 43,
          "midi": 68,
          "name": "G#4",
          "ticks": 29088,
          "time": 100.999899,
          "velocity": 0.8110236220472441
        },
        {
          "duration": 0.14930540625000788,
          "durationTicks": 43,
          "midi": 69,
          "name": "A4",
          "ticks": 29136,
          "time": 101.16656549999999,
          "velocity": 0.8110236220472441
        },
        {
          "duration": 1.3159709062500013,
          "durationTicks": 379,
          "midi": 71,
          "name": "B4",
          "ticks": 29184,
          "time": 101.333232,
          "velocity": 0.8110236220472441
        },
        {
          "duration": 0.14583318750000274,
          "durationTicks": 42,
          "midi": 52,
          "name": "E3",
          "ticks": 29808,
          "time": 103.49989649999999,
          "velocity": 0.8110236220472441
        },
        {
          "duration": 0.14583318750000274,
          "durationTicks": 42,
          "midi": 57,
          "name": "A3",
          "ticks": 29856,
          "time": 103.666563,
          "velocity": 0.8110236220472441
        },
        {
          "duration": 0.14583318749998853,
          "durationTicks": 42,
          "midi": 59,
          "name": "B3",
          "ticks": 29904,
          "time": 103.8332295,
          "velocity": 0.8110236220472441
        },
        {
          "duration": 1.3124986875000104,
          "durationTicks": 378,
          "midi": 61,
          "name": "C#4",
          "ticks": 29952,
          "time": 103.99989599999999,
          "velocity": 0.8110236220472441
        },
        {
          "duration": 0.3124996875000079,
          "durationTicks": 90,
          "midi": 61,
          "name": "C#4",
          "ticks": 30336,
          "time": 105.33322799999999,
          "velocity": 0.8110236220472441
        },
        {
          "duration": 0.3124996874999937,
          "durationTicks": 90,
          "midi": 64,
          "name": "E4",
          "ticks": 30432,
          "time": 105.666561,
          "velocity": 0.8110236220472441
        },
        {
          "duration": 0.3124996874999937,
          "durationTicks": 90,
          "midi": 69,
          "name": "A4",
          "ticks": 30528,
          "time": 105.999894,
          "velocity": 0.8110236220472441
        },
        {
          "duration": 0.14583318750000274,
          "durationTicks": 42,
          "midi": 71,
          "name": "B4",
          "ticks": 30624,
          "time": 106.333227,
          "velocity": 0.8110236220472441
        },
        {
          "duration": 0.14583318750000274,
          "durationTicks": 42,
          "midi": 69,
          "name": "A4",
          "ticks": 30672,
          "time": 106.4998935,
          "velocity": 0.8110236220472441
        },
        {
          "duration": 0.1041665624999979,
          "durationTicks": 30,
          "midi": 71,
          "name": "B4",
          "ticks": 30720,
          "time": 106.66656,
          "velocity": 0.8110236220472441
        },
        {
          "duration": 1.2291654375000007,
          "durationTicks": 354,
          "midi": 73,
          "name": "C#5",
          "ticks": 30744,
          "time": 106.74989325,
          "velocity": 0.8110236220472441
        },
        {
          "duration": 0.3124996874999937,
          "durationTicks": 90,
          "midi": 73,
          "name": "C#5",
          "ticks": 31104,
          "time": 107.999892,
          "velocity": 0.8110236220472441
        },
        {
          "duration": 0.3124996874999937,
          "durationTicks": 90,
          "midi": 74,
          "name": "D5",
          "ticks": 31200,
          "time": 108.333225,
          "velocity": 0.8110236220472441
        },
        {
          "duration": 0.3124996875000079,
          "durationTicks": 90,
          "midi": 73,
          "name": "C#5",
          "ticks": 31296,
          "time": 108.666558,
          "velocity": 0.8110236220472441
        },
        {
          "duration": 0.14583318750000274,
          "durationTicks": 42,
          "midi": 71,
          "name": "B4",
          "ticks": 31392,
          "time": 108.99989099999999,
          "velocity": 0.8110236220472441
        },
        {
          "duration": 0.14583318750000274,
          "durationTicks": 42,
          "midi": 69,
          "name": "A4",
          "ticks": 31440,
          "time": 109.1665575,
          "velocity": 0.8110236220472441
        },
        {
          "duration": 0.14583318749998853,
          "durationTicks": 42,
          "midi": 71,
          "name": "B4",
          "ticks": 31488,
          "time": 109.333224,
          "velocity": 0.8110236220472441
        },
        {
          "duration": 0.9791656875000001,
          "durationTicks": 282,
          "midi": 69,
          "name": "A4",
          "ticks": 31536,
          "time": 109.49989049999999,
          "velocity": 0.8110236220472441
        },
        {
          "duration": 0.14583318750000274,
          "durationTicks": 42,
          "midi": 64,
          "name": "E4",
          "ticks": 31824,
          "time": 110.4998895,
          "velocity": 0.8110236220472441
        },
        {
          "duration": 0.3124996874999937,
          "durationTicks": 90,
          "midi": 73,
          "name": "C#5",
          "ticks": 31872,
          "time": 110.666556,
          "velocity": 0.8110236220472441
        },
        {
          "duration": 0.3124996874999937,
          "durationTicks": 90,
          "midi": 74,
          "name": "D5",
          "ticks": 31968,
          "time": 110.999889,
          "velocity": 0.8110236220472441
        },
        {
          "duration": 0.3124996875000079,
          "durationTicks": 90,
          "midi": 73,
          "name": "C#5",
          "ticks": 32064,
          "time": 111.33322199999999,
          "velocity": 0.8110236220472441
        },
        {
          "duration": 0.14583318749998853,
          "durationTicks": 42,
          "midi": 71,
          "name": "B4",
          "ticks": 32160,
          "time": 111.666555,
          "velocity": 0.8110236220472441
        },
        {
          "duration": 0.14583318750000274,
          "durationTicks": 42,
          "midi": 69,
          "name": "A4",
          "ticks": 32208,
          "time": 111.8332215,
          "velocity": 0.8110236220472441
        },
        {
          "duration": 0.14583318750000274,
          "durationTicks": 42,
          "midi": 71,
          "name": "B4",
          "ticks": 32256,
          "time": 111.999888,
          "velocity": 0.8110236220472441
        },
        {
          "duration": 1.8124981874999975,
          "durationTicks": 522,
          "midi": 69,
          "name": "A4",
          "ticks": 32304,
          "time": 112.1665545,
          "velocity": 0.8110236220472441
        },
        {
          "duration": 0.14583318750000274,
          "durationTicks": 42,
          "midi": 64,
          "name": "E4",
          "ticks": 32880,
          "time": 114.1665525,
          "velocity": 0.8110236220472441
        },
        {
          "duration": 0.14583318750000274,
          "durationTicks": 42,
          "midi": 76,
          "name": "E5",
          "ticks": 32928,
          "time": 114.333219,
          "velocity": 0.8110236220472441
        },
        {
          "duration": 0.14583318750000274,
          "durationTicks": 42,
          "midi": 74,
          "name": "D5",
          "ticks": 32976,
          "time": 114.49988549999999,
          "velocity": 0.8110236220472441
        },
        {
          "duration": 0.18749981250000758,
          "durationTicks": 54,
          "midi": 71,
          "name": "B4",
          "ticks": 33024,
          "time": 114.666552,
          "velocity": 0.8110236220472441
        },
        {
          "duration": 0.8819435624999983,
          "durationTicks": 254,
          "midi": 73,
          "name": "C#5",
          "ticks": 33048,
          "time": 114.74988524999999,
          "velocity": 0.8110236220472441
        },
        {
          "duration": 0.07986103124999033,
          "durationTicks": 23,
          "midi": 59,
          "name": "B3",
          "ticks": 33336,
          "time": 115.74988425,
          "velocity": 0.8110236220472441
        },
        {
          "duration": 0.07986103124999033,
          "durationTicks": 23,
          "midi": 57,
          "name": "A3",
          "ticks": 33360,
          "time": 115.8332175,
          "velocity": 0.8110236220472441
        },
        {
          "duration": 0.07986103124999033,
          "durationTicks": 23,
          "midi": 59,
          "name": "B3",
          "ticks": 33384,
          "time": 115.91655075,
          "velocity": 0.8110236220472441
        },
        {
          "duration": 0.3124996875000079,
          "durationTicks": 90,
          "midi": 61,
          "name": "C#4",
          "ticks": 33408,
          "time": 115.999884,
          "velocity": 0.8110236220472441
        },
        {
          "duration": 0.3124996875000079,
          "durationTicks": 90,
          "midi": 64,
          "name": "E4",
          "ticks": 33504,
          "time": 116.33321699999999,
          "velocity": 0.8110236220472441
        },
        {
          "duration": 0.3124996874999937,
          "durationTicks": 90,
          "midi": 69,
          "name": "A4",
          "ticks": 33600,
          "time": 116.66655,
          "velocity": 0.8110236220472441
        },
        {
          "duration": 0.14583318750000274,
          "durationTicks": 42,
          "midi": 71,
          "name": "B4",
          "ticks": 33696,
          "time": 116.999883,
          "velocity": 0.8110236220472441
        },
        {
          "duration": 0.14583318749998853,
          "durationTicks": 42,
          "midi": 69,
          "name": "A4",
          "ticks": 33744,
          "time": 117.1665495,
          "velocity": 0.8110236220472441
        },
        {
          "duration": 0.1041665624999979,
          "durationTicks": 30,
          "midi": 71,
          "name": "B4",
          "ticks": 33792,
          "time": 117.333216,
          "velocity": 0.8110236220472441
        },
        {
          "duration": 0.5624994374999943,
          "durationTicks": 162,
          "midi": 73,
          "name": "C#5",
          "ticks": 33816,
          "time": 117.41654925,
          "velocity": 0.8110236220472441
        },
        {
          "duration": 0.16319428125000002,
          "durationTicks": 47,
          "midi": 71,
          "name": "B4",
          "ticks": 34176,
          "time": 118.66654799999999,
          "velocity": 0.8110236220472441
        },
        {
          "duration": 0.16319428125000002,
          "durationTicks": 47,
          "midi": 74,
          "name": "D5",
          "ticks": 34248,
          "time": 118.91654774999999,
          "velocity": 0.8110236220472441
        },
        {
          "duration": 0.16319428125000002,
          "durationTicks": 47,
          "midi": 71,
          "name": "B4",
          "ticks": 34320,
          "time": 119.1665475,
          "velocity": 0.8110236220472441
        },
        {
          "duration": 0.1631942812499858,
          "durationTicks": 47,
          "midi": 73,
          "name": "C#5",
          "ticks": 34368,
          "time": 119.333214,
          "velocity": 0.8110236220472441
        },
        {
          "duration": 0.1631942812499858,
          "durationTicks": 47,
          "midi": 71,
          "name": "B4",
          "ticks": 34416,
          "time": 119.4998805,
          "velocity": 0.8110236220472441
        },
        {
          "duration": 0.16319428125000002,
          "durationTicks": 47,
          "midi": 69,
          "name": "A4",
          "ticks": 34464,
          "time": 119.666547,
          "velocity": 0.8110236220472441
        },
        {
          "duration": 0.1631942812499858,
          "durationTicks": 47,
          "midi": 68,
          "name": "G#4",
          "ticks": 34512,
          "time": 119.8332135,
          "velocity": 0.8110236220472441
        },
        {
          "duration": 0.16319428125000002,
          "durationTicks": 47,
          "midi": 69,
          "name": "A4",
          "ticks": 34560,
          "time": 119.99987999999999,
          "velocity": 0.8110236220472441
        },
        {
          "duration": 0.16319428125000002,
          "durationTicks": 47,
          "midi": 78,
          "name": "F#5",
          "ticks": 34608,
          "time": 120.1665465,
          "velocity": 0.8110236220472441
        },
        {
          "duration": 0.16319428125000002,
          "durationTicks": 47,
          "midi": 68,
          "name": "G#4",
          "ticks": 34752,
          "time": 120.666546,
          "velocity": 0.8110236220472441
        },
        {
          "duration": 0.1631942812499858,
          "durationTicks": 47,
          "midi": 77,
          "name": "F5",
          "ticks": 34800,
          "time": 120.8332125,
          "velocity": 0.8110236220472441
        },
        {
          "duration": 0.1631942812499858,
          "durationTicks": 47,
          "midi": 67,
          "name": "G4",
          "ticks": 34944,
          "time": 121.333212,
          "velocity": 0.8110236220472441
        },
        {
          "duration": 0.16319428125000002,
          "durationTicks": 47,
          "midi": 76,
          "name": "E5",
          "ticks": 34992,
          "time": 121.4998785,
          "velocity": 0.8110236220472441
        },
        {
          "duration": 0.16319428125000002,
          "durationTicks": 47,
          "midi": 78,
          "name": "F#5",
          "ticks": 35136,
          "time": 121.999878,
          "velocity": 0.8110236220472441
        },
        {
          "duration": 0.1631942812499858,
          "durationTicks": 47,
          "midi": 76,
          "name": "E5",
          "ticks": 35184,
          "time": 122.1665445,
          "velocity": 0.8110236220472441
        },
        {
          "duration": 0.16319428125000002,
          "durationTicks": 47,
          "midi": 73,
          "name": "C#5",
          "ticks": 35232,
          "time": 122.33321099999999,
          "velocity": 0.8110236220472441
        },
        {
          "duration": 0.16319428125000002,
          "durationTicks": 47,
          "midi": 71,
          "name": "B4",
          "ticks": 35280,
          "time": 122.4998775,
          "velocity": 0.8110236220472441
        },
        {
          "duration": 0.32986078124999096,
          "durationTicks": 95,
          "midi": 69,
          "name": "A4",
          "ticks": 35328,
          "time": 122.666544,
          "velocity": 0.8110236220472441
        },
        {
          "duration": 0.32986078124999096,
          "durationTicks": 95,
          "midi": 69,
          "name": "A4",
          "ticks": 35424,
          "time": 122.999877,
          "velocity": 0.7795275590551181
        },
        {
          "duration": 0.32986078124999096,
          "durationTicks": 95,
          "midi": 69,
          "name": "A4",
          "ticks": 35520,
          "time": 123.33321,
          "velocity": 0.7401574803149606
        },
        {
          "duration": 0.3298607812500052,
          "durationTicks": 95,
          "midi": 69,
          "name": "A4",
          "ticks": 35616,
          "time": 123.66654299999999,
          "velocity": 0.7007874015748031
        },
        {
          "duration": 0.32986078124999096,
          "durationTicks": 95,
          "midi": 69,
          "name": "A4",
          "ticks": 35712,
          "time": 123.999876,
          "velocity": 0.6692913385826772
        },
        {
          "duration": 0.10069434375000696,
          "durationTicks": 29,
          "midi": 59,
          "name": "B3",
          "ticks": 40896,
          "time": 141.999858,
          "velocity": 0.8110236220472441
        },
        {
          "duration": 0.10069434374997854,
          "durationTicks": 29,
          "midi": 62,
          "name": "D4",
          "ticks": 40960,
          "time": 142.22208,
          "velocity": 0.8110236220472441
        },
        {
          "duration": 0.10069434374997854,
          "durationTicks": 29,
          "midi": 69,
          "name": "A4",
          "ticks": 40992,
          "time": 142.333191,
          "velocity": 0.8110236220472441
        },
        {
          "duration": 0.10069434374997854,
          "durationTicks": 29,
          "midi": 76,
          "name": "E5",
          "ticks": 41056,
          "time": 142.55541300000002,
          "velocity": 0.8110236220472441
        },
        {
          "duration": 0.10069434375000696,
          "durationTicks": 29,
          "midi": 73,
          "name": "C#5",
          "ticks": 41152,
          "time": 142.888746,
          "velocity": 0.8110236220472441
        },
        {
          "duration": 0.10069434374997854,
          "durationTicks": 29,
          "midi": 74,
          "name": "D5",
          "ticks": 41248,
          "time": 143.222079,
          "velocity": 0.8110236220472441
        },
        {
          "duration": 0.10069434374997854,
          "durationTicks": 29,
          "midi": 73,
          "name": "C#5",
          "ticks": 41280,
          "time": 143.33319,
          "velocity": 0.8110236220472441
        },
        {
          "duration": 0.10069434375000696,
          "durationTicks": 29,
          "midi": 69,
          "name": "A4",
          "ticks": 41344,
          "time": 143.555412,
          "velocity": 0.8110236220472441
        },
        {
          "duration": 0.21180534375002935,
          "durationTicks": 61,
          "midi": 71,
          "name": "B4",
          "ticks": 41376,
          "time": 143.66652299999998,
          "velocity": 0.8110236220472441
        },
        {
          "duration": 0.10069434375000696,
          "durationTicks": 29,
          "midi": 69,
          "name": "A4",
          "ticks": 41440,
          "time": 143.888745,
          "velocity": 0.8110236220472441
        },
        {
          "duration": 0.10069434375000696,
          "durationTicks": 29,
          "midi": 69,
          "name": "A4",
          "ticks": 41472,
          "time": 143.999856,
          "velocity": 0.8110236220472441
        },
        {
          "duration": 0.10069434375000696,
          "durationTicks": 29,
          "midi": 71,
          "name": "B4",
          "ticks": 41504,
          "time": 144.110967,
          "velocity": 0.8110236220472441
        },
        {
          "duration": 1.0694433749999916,
          "durationTicks": 308,
          "midi": 69,
          "name": "A4",
          "ticks": 41536,
          "time": 144.222078,
          "velocity": 0.8110236220472441
        },
        {
          "duration": 0.1527776249999988,
          "durationTicks": 44,
          "midi": 68,
          "name": "G#4",
          "ticks": 41664,
          "time": 144.666522,
          "velocity": 0.44881889763779526
        },
        {
          "duration": 0.15277762500002723,
          "durationTicks": 44,
          "midi": 67,
          "name": "G4",
          "ticks": 41696,
          "time": 144.77763299999998,
          "velocity": 0.3858267716535433
        },
        {
          "duration": 0.1527776249999988,
          "durationTicks": 44,
          "midi": 66,
          "name": "F#4",
          "ticks": 41728,
          "time": 144.888744,
          "velocity": 0.3228346456692913
        },
        {
          "duration": 0.1527776249999988,
          "durationTicks": 44,
          "midi": 65,
          "name": "F4",
          "ticks": 41760,
          "time": 144.999855,
          "velocity": 0.25984251968503935
        },
        {
          "duration": 0.1527776249999988,
          "durationTicks": 44,
          "midi": 64,
          "name": "E4",
          "ticks": 41792,
          "time": 145.110966,
          "velocity": 0.1968503937007874
        },
        {
          "duration": 0.15277762499997039,
          "durationTicks": 44,
          "midi": 63,
          "name": "D#4",
          "ticks": 41824,
          "time": 145.222077,
          "velocity": 0.14173228346456693
        },
        {
          "duration": 0.15277762499997039,
          "durationTicks": 44,
          "midi": 62,
          "name": "D4",
          "ticks": 41856,
          "time": 145.333188,
          "velocity": 0.07874015748031496
        },
        {
          "duration": 0.1527776249999988,
          "durationTicks": 44,
          "midi": 61,
          "name": "C#4",
          "ticks": 41888,
          "time": 145.444299,
          "velocity": 0.015748031496062992
        }
      ],
      "endOfTrackTicks": 45698
    },
    {
      "channel": 0,
      "controlChanges": {
        "6": [
          {
            "number": 6,
            "ticks": 0,
            "time": 0,
            "value": 0.09448818897637795
          },
          {
            "number": 6,
            "ticks": 0,
            "time": 0,
            "value": 0.09448818897637795
          },
          {
            "number": 6,
            "ticks": 0,
            "time": 0,
            "value": 0.09448818897637795
          },
          {
            "number": 6,
            "ticks": 45696,
            "time": 158.666508,
            "value": 0.09448818897637795
          },
          {
            "number": 6,
            "ticks": 45698,
            "time": 158.67345243749998,
            "value": 0.09448818897637795
          }
        ],
        "7": [
          {
            "number": 7,
            "ticks": 0,
            "time": 0,
            "value": 0.7874015748031497
          },
          {
            "number": 7,
            "ticks": 0,
            "time": 0,
            "value": 0.7874015748031497
          },
          {
            "number": 7,
            "ticks": 0,
            "time": 0,
            "value": 0.7874015748031497
          },
          {
            "number": 7,
            "ticks": 0,
            "time": 0,
            "value": 0.7874015748031497
          },
          {
            "number": 7,
            "ticks": 45696,
            "time": 158.666508,
            "value": 0.7874015748031497
          },
          {
            "number": 7,
            "ticks": 45698,
            "time": 158.67345243749998,
            "value": 0.7874015748031497
          }
        ],
        "10": [
          {
            "number": 10,
            "ticks": 0,
            "time": 0,
            "value": 0.5039370078740157
          },
          {
            "number": 10,
            "ticks": 0,
            "time": 0,
            "value": 0.5039370078740157
          },
          {
            "number": 10,
            "ticks": 0,
            "time": 0,
            "value": 0.5039370078740157
          },
          {
            "number": 10,
            "ticks": 0,
            "time": 0,
            "value": 0.5039370078740157
          },
          {
            "number": 10,
            "ticks": 45696,
            "time": 158.666508,
            "value": 0.5039370078740157
          },
          {
            "number": 10,
            "ticks": 45698,
            "time": 158.67345243749998,
            "value": 0.5039370078740157
          }
        ],
        "100": [
          {
            "number": 100,
            "ticks": 0,
            "time": 0,
            "value": 0
          },
          {
            "number": 100,
            "ticks": 0,
            "time": 0,
            "value": 0
          },
          {
            "number": 100,
            "ticks": 0,
            "time": 0,
            "value": 0
          },
          {
            "number": 100,
            "ticks": 45696,
            "time": 158.666508,
            "value": 0
          },
          {
            "number": 100,
            "ticks": 45698,
            "time": 158.67345243749998,
            "value": 0
          }
        ],
        "101": [
          {
            "number": 101,
            "ticks": 0,
            "time": 0,
            "value": 0
          },
          {
            "number": 101,
            "ticks": 0,
            "time": 0,
            "value": 0
          },
          {
            "number": 101,
            "ticks": 0,
            "time": 0,
            "value": 0
          },
          {
            "number": 101,
            "ticks": 45696,
            "time": 158.666508,
            "value": 0
          },
          {
            "number": 101,
            "ticks": 45698,
            "time": 158.67345243749998,
            "value": 0
          }
        ]
      },
      "pitchBends": [
        {
          "ticks": 0,
          "time": 0,
          "value": 0
        },
        {
          "ticks": 0,
          "time": 0,
          "value": 0
        },
        {
          "ticks": 0,
          "time": 0,
          "value": 0
        },
        {
          "ticks": 0,
          "time": 0,
          "value": 0
        },
        {
          "ticks": 45696,
          "time": 158.666508,
          "value": 0
        },
        {
          "ticks": 45698,
          "time": 158.67345243749998,
          "value": 0
        }
      ],
      "instrument": {
        "family": "piano",
        "number": 0,
        "name": "acoustic grand piano"
      },
      "name": "Lead #2",
      "notes": [],
      "endOfTrackTicks": 45698
    },
    {
      "channel": 7,
      "controlChanges": {
        "6": [
          {
            "number": 6,
            "ticks": 0,
            "time": 0,
            "value": 0.09448818897637795
          },
          {
            "number": 6,
            "ticks": 0,
            "time": 0,
            "value": 0.09448818897637795
          },
          {
            "number": 6,
            "ticks": 0,
            "time": 0,
            "value": 0.09448818897637795
          },
          {
            "number": 6,
            "ticks": 45696,
            "time": 158.666508,
            "value": 0.09448818897637795
          },
          {
            "number": 6,
            "ticks": 45698,
            "time": 158.67345243749998,
            "value": 0.09448818897637795
          }
        ],
        "7": [
          {
            "number": 7,
            "ticks": 0,
            "time": 0,
            "value": 0.7874015748031497
          },
          {
            "number": 7,
            "ticks": 0,
            "time": 0,
            "value": 0.7874015748031497
          },
          {
            "number": 7,
            "ticks": 0,
            "time": 0,
            "value": 0.7874015748031497
          },
          {
            "number": 7,
            "ticks": 0,
            "time": 0,
            "value": 0.7874015748031497
          },
          {
            "number": 7,
            "ticks": 45696,
            "time": 158.666508,
            "value": 0.7874015748031497
          },
          {
            "number": 7,
            "ticks": 45698,
            "time": 158.67345243749998,
            "value": 0.7874015748031497
          }
        ],
        "10": [
          {
            "number": 10,
            "ticks": 0,
            "time": 0,
            "value": 0.5039370078740157
          },
          {
            "number": 10,
            "ticks": 0,
            "time": 0,
            "value": 0.5039370078740157
          },
          {
            "number": 10,
            "ticks": 0,
            "time": 0,
            "value": 0.5039370078740157
          },
          {
            "number": 10,
            "ticks": 0,
            "time": 0,
            "value": 0.5039370078740157
          },
          {
            "number": 10,
            "ticks": 45696,
            "time": 158.666508,
            "value": 0.5039370078740157
          },
          {
            "number": 10,
            "ticks": 45698,
            "time": 158.67345243749998,
            "value": 0.5039370078740157
          }
        ],
        "100": [
          {
            "number": 100,
            "ticks": 0,
            "time": 0,
            "value": 0
          },
          {
            "number": 100,
            "ticks": 0,
            "time": 0,
            "value": 0
          },
          {
            "number": 100,
            "ticks": 0,
            "time": 0,
            "value": 0
          },
          {
            "number": 100,
            "ticks": 45696,
            "time": 158.666508,
            "value": 0
          },
          {
            "number": 100,
            "ticks": 45698,
            "time": 158.67345243749998,
            "value": 0
          }
        ],
        "101": [
          {
            "number": 101,
            "ticks": 0,
            "time": 0,
            "value": 0
          },
          {
            "number": 101,
            "ticks": 0,
            "time": 0,
            "value": 0
          },
          {
            "number": 101,
            "ticks": 0,
            "time": 0,
            "value": 0
          },
          {
            "number": 101,
            "ticks": 45696,
            "time": 158.666508,
            "value": 0
          },
          {
            "number": 101,
            "ticks": 45698,
            "time": 158.67345243749998,
            "value": 0
          }
        ]
      },
      "pitchBends": [
        {
          "ticks": 0,
          "time": 0,
          "value": 0
        },
        {
          "ticks": 0,
          "time": 0,
          "value": 0
        },
        {
          "ticks": 0,
          "time": 0,
          "value": 0
        },
        {
          "ticks": 0,
          "time": 0,
          "value": 0
        },
        {
          "ticks": 45696,
          "time": 158.666508,
          "value": 0
        },
        {
          "ticks": 45698,
          "time": 158.67345243749998,
          "value": 0
        }
      ],
      "instrument": {
        "family": "piano",
        "number": 0,
        "name": "acoustic grand piano"
      },
      "name": "Arp",
      "notes": [
        {
          "duration": 0.04166662499999996,
          "durationTicks": 12,
          "midi": 76,
          "name": "E5",
          "ticks": 912,
          "time": 3.1666635,
          "velocity": 0.4645669291338583
        },
        {
          "duration": 0.04166662499999996,
          "durationTicks": 12,
          "midi": 76,
          "name": "E5",
          "ticks": 936,
          "time": 3.2499967499999998,
          "velocity": 0.4645669291338583
        },
        {
          "duration": 0.04166662499999996,
          "durationTicks": 12,
          "midi": 88,
          "name": "E6",
          "ticks": 960,
          "time": 3.33333,
          "velocity": 0.4645669291338583
        },
        {
          "duration": 0.04166662499999996,
          "durationTicks": 12,
          "midi": 83,
          "name": "B5",
          "ticks": 1008,
          "time": 3.4999965,
          "velocity": 0.4645669291338583
        },
        {
          "duration": 0.04166662499999996,
          "durationTicks": 12,
          "midi": 81,
          "name": "A5",
          "ticks": 1056,
          "time": 3.666663,
          "velocity": 0.4645669291338583
        },
        {
          "duration": 0.04166662499999996,
          "durationTicks": 12,
          "midi": 76,
          "name": "E5",
          "ticks": 1104,
          "time": 3.8333295,
          "velocity": 0.4645669291338583
        },
        {
          "duration": 0.04166662499999996,
          "durationTicks": 12,
          "midi": 77,
          "name": "F5",
          "ticks": 1152,
          "time": 3.999996,
          "velocity": 0.4645669291338583
        },
        {
          "duration": 0.04166662499999951,
          "durationTicks": 12,
          "midi": 81,
          "name": "A5",
          "ticks": 1200,
          "time": 4.1666625,
          "velocity": 0.4645669291338583
        },
        {
          "duration": 0.04166662499999951,
          "durationTicks": 12,
          "midi": 88,
          "name": "E6",
          "ticks": 1248,
          "time": 4.333329,
          "velocity": 0.4645669291338583
        },
        {
          "duration": 0.0416666250000004,
          "durationTicks": 12,
          "midi": 77,
          "name": "F5",
          "ticks": 1296,
          "time": 4.4999955,
          "velocity": 0.4645669291338583
        },
        {
          "duration": 0.0416666250000004,
          "durationTicks": 12,
          "midi": 81,
          "name": "A5",
          "ticks": 1344,
          "time": 4.666662,
          "velocity": 0.4645669291338583
        },
        {
          "duration": 0.0416666250000004,
          "durationTicks": 12,
          "midi": 88,
          "name": "E6",
          "ticks": 1392,
          "time": 4.8333284999999995,
          "velocity": 0.4645669291338583
        },
        {
          "duration": 0.04166662499999951,
          "durationTicks": 12,
          "midi": 91,
          "name": "G6",
          "ticks": 1440,
          "time": 4.999995,
          "velocity": 0.4645669291338583
        },
        {
          "duration": 0.04166662499999951,
          "durationTicks": 12,
          "midi": 89,
          "name": "F6",
          "ticks": 1488,
          "time": 5.1666615,
          "velocity": 0.4645669291338583
        },
        {
          "duration": 0.0416666250000004,
          "durationTicks": 12,
          "midi": 88,
          "name": "E6",
          "ticks": 1536,
          "time": 5.333328,
          "velocity": 0.4645669291338583
        },
        {
          "duration": 0.0416666250000004,
          "durationTicks": 12,
          "midi": 81,
          "name": "A5",
          "ticks": 1584,
          "time": 5.4999945,
          "velocity": 0.4645669291338583
        },
        {
          "duration": 0.0416666250000004,
          "durationTicks": 12,
          "midi": 71,
          "name": "B4",
          "ticks": 1632,
          "time": 5.6666609999999995,
          "velocity": 0.4645669291338583
        },
        {
          "duration": 0.04166662499999951,
          "durationTicks": 12,
          "midi": 73,
          "name": "C#5",
          "ticks": 1680,
          "time": 5.8333275,
          "velocity": 0.4645669291338583
        },
        {
          "duration": 0.04166662499999951,
          "durationTicks": 12,
          "midi": 76,
          "name": "E5",
          "ticks": 1728,
          "time": 5.999994,
          "velocity": 0.4645669291338583
        },
        {
          "duration": 0.04166662499999951,
          "durationTicks": 12,
          "midi": 81,
          "name": "A5",
          "ticks": 1776,
          "time": 6.1666605,
          "velocity": 0.4645669291338583
        },
        {
          "duration": 0.0416666250000004,
          "durationTicks": 12,
          "midi": 88,
          "name": "E6",
          "ticks": 1824,
          "time": 6.333327,
          "velocity": 0.4645669291338583
        },
        {
          "duration": 0.0416666250000004,
          "durationTicks": 12,
          "midi": 76,
          "name": "E5",
          "ticks": 1872,
          "time": 6.4999934999999995,
          "velocity": 0.4645669291338583
        },
        {
          "duration": 0.04166662499999951,
          "durationTicks": 12,
          "midi": 81,
          "name": "A5",
          "ticks": 1920,
          "time": 6.66666,
          "velocity": 0.4645669291338583
        },
        {
          "duration": 0.04166662499999951,
          "durationTicks": 12,
          "midi": 88,
          "name": "E6",
          "ticks": 1968,
          "time": 6.8333265,
          "velocity": 0.4645669291338583
        },
        {
          "duration": 0.04166662499999951,
          "durationTicks": 12,
          "midi": 76,
          "name": "E5",
          "ticks": 2016,
          "time": 6.999993,
          "velocity": 0.4645669291338583
        },
        {
          "duration": 0.0416666250000004,
          "durationTicks": 12,
          "midi": 81,
          "name": "A5",
          "ticks": 2064,
          "time": 7.1666595,
          "velocity": 0.4645669291338583
        },
        {
          "duration": 0.0416666250000004,
          "durationTicks": 12,
          "midi": 88,
          "name": "E6",
          "ticks": 2112,
          "time": 7.333326,
          "velocity": 0.4645669291338583
        },
        {
          "duration": 0.0416666250000004,
          "durationTicks": 12,
          "midi": 76,
          "name": "E5",
          "ticks": 2160,
          "time": 7.499992499999999,
          "velocity": 0.4645669291338583
        },
        {
          "duration": 0.04166662499999951,
          "durationTicks": 12,
          "midi": 81,
          "name": "A5",
          "ticks": 2208,
          "time": 7.666659,
          "velocity": 0.4645669291338583
        },
        {
          "duration": 0.04166662499999951,
          "durationTicks": 12,
          "midi": 88,
          "name": "E6",
          "ticks": 2256,
          "time": 7.8333255,
          "velocity": 0.4645669291338583
        },
        {
          "duration": 0.045138843749999324,
          "durationTicks": 13,
          "midi": 88,
          "name": "E6",
          "ticks": 2448,
          "time": 8.4999915,
          "velocity": 0.44881889763779526
        },
        {
          "duration": 0.045138843749999324,
          "durationTicks": 13,
          "midi": 76,
          "name": "E5",
          "ticks": 2448,
          "time": 8.4999915,
          "velocity": 0.44881889763779526
        },
        {
          "duration": 0.0451388437500011,
          "durationTicks": 13,
          "midi": 88,
          "name": "E6",
          "ticks": 2472,
          "time": 8.58332475,
          "velocity": 0.44881889763779526
        },
        {
          "duration": 0.0451388437500011,
          "durationTicks": 13,
          "midi": 76,
          "name": "E5",
          "ticks": 2472,
          "time": 8.58332475,
          "velocity": 0.44881889763779526
        },
        {
          "duration": 0.045138843749999324,
          "durationTicks": 13,
          "midi": 100,
          "name": "E7",
          "ticks": 2496,
          "time": 8.666658,
          "velocity": 0.44881889763779526
        },
        {
          "duration": 0.04166662499999951,
          "durationTicks": 12,
          "midi": 88,
          "name": "E6",
          "ticks": 2496,
          "time": 8.666658,
          "velocity": 0.4645669291338583
        },
        {
          "duration": 0.0451388437500011,
          "durationTicks": 13,
          "midi": 95,
          "name": "B6",
          "ticks": 2544,
          "time": 8.8333245,
          "velocity": 0.44881889763779526
        },
        {
          "duration": 0.04166662499999951,
          "durationTicks": 12,
          "midi": 83,
          "name": "B5",
          "ticks": 2544,
          "time": 8.8333245,
          "velocity": 0.4645669291338583
        },
        {
          "duration": 0.0451388437500011,
          "durationTicks": 13,
          "midi": 93,
          "name": "A6",
          "ticks": 2592,
          "time": 8.999991,
          "velocity": 0.44881889763779526
        },
        {
          "duration": 0.04166662499999951,
          "durationTicks": 12,
          "midi": 81,
          "name": "A5",
          "ticks": 2592,
          "time": 8.999991,
          "velocity": 0.4645669291338583
        },
        {
          "duration": 0.0451388437500011,
          "durationTicks": 13,
          "midi": 88,
          "name": "E6",
          "ticks": 2640,
          "time": 9.1666575,
          "velocity": 0.44881889763779526
        },
        {
          "duration": 0.04166662499999951,
          "durationTicks": 12,
          "midi": 76,
          "name": "E5",
          "ticks": 2640,
          "time": 9.1666575,
          "velocity": 0.4645669291338583
        },
        {
          "duration": 0.04166662500000129,
          "durationTicks": 12,
          "midi": 77,
          "name": "F5",
          "ticks": 2688,
          "time": 9.333324,
          "velocity": 0.4645669291338583
        },
        {
          "duration": 0.04166662500000129,
          "durationTicks": 12,
          "midi": 81,
          "name": "A5",
          "ticks": 2736,
          "time": 9.4999905,
          "velocity": 0.4645669291338583
        },
        {
          "duration": 0.04166662500000129,
          "durationTicks": 12,
          "midi": 88,
          "name": "E6",
          "ticks": 2784,
          "time": 9.666656999999999,
          "velocity": 0.4645669291338583
        },
        {
          "duration": 0.04166662499999951,
          "durationTicks": 12,
          "midi": 77,
          "name": "F5",
          "ticks": 2832,
          "time": 9.8333235,
          "velocity": 0.4645669291338583
        },
        {
          "duration": 0.04166662499999951,
          "durationTicks": 12,
          "midi": 81,
          "name": "A5",
          "ticks": 2880,
          "time": 9.99999,
          "velocity": 0.4645669291338583
        },
        {
          "duration": 0.04166662499999951,
          "durationTicks": 12,
          "midi": 88,
          "name": "E6",
          "ticks": 2928,
          "time": 10.1666565,
          "velocity": 0.4645669291338583
        },
        {
          "duration": 0.04166662499999951,
          "durationTicks": 12,
          "midi": 91,
          "name": "G6",
          "ticks": 2976,
          "time": 10.333323,
          "velocity": 0.4645669291338583
        },
        {
          "duration": 0.04166662499999951,
          "durationTicks": 12,
          "midi": 89,
          "name": "F6",
          "ticks": 3024,
          "time": 10.4999895,
          "velocity": 0.4645669291338583
        },
        {
          "duration": 0.04166662499999951,
          "durationTicks": 12,
          "midi": 88,
          "name": "E6",
          "ticks": 3072,
          "time": 10.666656,
          "velocity": 0.4645669291338583
        },
        {
          "duration": 0.04166662499999951,
          "durationTicks": 12,
          "midi": 81,
          "name": "A5",
          "ticks": 3120,
          "time": 10.8333225,
          "velocity": 0.4645669291338583
        },
        {
          "duration": 0.04166662499999951,
          "durationTicks": 12,
          "midi": 71,
          "name": "B4",
          "ticks": 3168,
          "time": 10.999989,
          "velocity": 0.4645669291338583
        },
        {
          "duration": 0.04166662500000129,
          "durationTicks": 12,
          "midi": 73,
          "name": "C#5",
          "ticks": 3216,
          "time": 11.1666555,
          "velocity": 0.4645669291338583
        },
        {
          "duration": 0.04166662500000129,
          "durationTicks": 12,
          "midi": 76,
          "name": "E5",
          "ticks": 3264,
          "time": 11.333321999999999,
          "velocity": 0.4645669291338583
        },
        {
          "duration": 0.04166662500000129,
          "durationTicks": 12,
          "midi": 81,
          "name": "A5",
          "ticks": 3312,
          "time": 11.499988499999999,
          "velocity": 0.4645669291338583
        },
        {
          "duration": 0.04166662499999951,
          "durationTicks": 12,
          "midi": 88,
          "name": "E6",
          "ticks": 3360,
          "time": 11.666655,
          "velocity": 0.4645669291338583
        },
        {
          "duration": 0.04166662499999951,
          "durationTicks": 12,
          "midi": 76,
          "name": "E5",
          "ticks": 3408,
          "time": 11.8333215,
          "velocity": 0.4645669291338583
        },
        {
          "duration": 0.04166662499999951,
          "durationTicks": 12,
          "midi": 81,
          "name": "A5",
          "ticks": 3456,
          "time": 11.999988,
          "velocity": 0.4645669291338583
        },
        {
          "duration": 0.04166662499999951,
          "durationTicks": 12,
          "midi": 88,
          "name": "E6",
          "ticks": 3504,
          "time": 12.1666545,
          "velocity": 0.4645669291338583
        },
        {
          "duration": 0.04166662499999951,
          "durationTicks": 12,
          "midi": 76,
          "name": "E5",
          "ticks": 3552,
          "time": 12.333321,
          "velocity": 0.4645669291338583
        },
        {
          "duration": 0.04166662499999951,
          "durationTicks": 12,
          "midi": 81,
          "name": "A5",
          "ticks": 3600,
          "time": 12.4999875,
          "velocity": 0.4645669291338583
        },
        {
          "duration": 0.04166662499999951,
          "durationTicks": 12,
          "midi": 88,
          "name": "E6",
          "ticks": 3648,
          "time": 12.666654,
          "velocity": 0.4645669291338583
        },
        {
          "duration": 0.04166662499999951,
          "durationTicks": 12,
          "midi": 76,
          "name": "E5",
          "ticks": 3696,
          "time": 12.8333205,
          "velocity": 0.4645669291338583
        },
        {
          "duration": 0.04166662500000129,
          "durationTicks": 12,
          "midi": 76,
          "name": "E5",
          "ticks": 7056,
          "time": 24.499975499999998,
          "velocity": 0.4094488188976378
        },
        {
          "duration": 0.04166662499999774,
          "durationTicks": 12,
          "midi": 76,
          "name": "E5",
          "ticks": 7080,
          "time": 24.58330875,
          "velocity": 0.4094488188976378
        },
        {
          "duration": 0.04166662500000129,
          "durationTicks": 12,
          "midi": 88,
          "name": "E6",
          "ticks": 7104,
          "time": 24.666642,
          "velocity": 0.4015748031496063
        },
        {
          "duration": 0.04166662500000129,
          "durationTicks": 12,
          "midi": 83,
          "name": "B5",
          "ticks": 7152,
          "time": 24.833308499999998,
          "velocity": 0.3937007874015748
        },
        {
          "duration": 0.04166662500000129,
          "durationTicks": 12,
          "midi": 81,
          "name": "A5",
          "ticks": 7200,
          "time": 24.999975,
          "velocity": 0.3858267716535433
        },
        {
          "duration": 0.04166662499999774,
          "durationTicks": 12,
          "midi": 76,
          "name": "E5",
          "ticks": 7248,
          "time": 25.1666415,
          "velocity": 0.3858267716535433
        },
        {
          "duration": 0.04166662500000129,
          "durationTicks": 12,
          "midi": 77,
          "name": "F5",
          "ticks": 7296,
          "time": 25.333308,
          "velocity": 0.3779527559055118
        },
        {
          "duration": 0.04166662499999774,
          "durationTicks": 12,
          "midi": 81,
          "name": "A5",
          "ticks": 7344,
          "time": 25.4999745,
          "velocity": 0.3700787401574803
        },
        {
          "duration": 0.04166662500000129,
          "durationTicks": 12,
          "midi": 88,
          "name": "E6",
          "ticks": 7392,
          "time": 25.666641,
          "velocity": 0.36220472440944884
        },
        {
          "duration": 0.04166662499999774,
          "durationTicks": 12,
          "midi": 77,
          "name": "F5",
          "ticks": 7440,
          "time": 25.8333075,
          "velocity": 0.3543307086614173
        },
        {
          "duration": 0.04166662500000129,
          "durationTicks": 12,
          "midi": 81,
          "name": "A5",
          "ticks": 7488,
          "time": 25.999973999999998,
          "velocity": 0.3464566929133858
        },
        {
          "duration": 0.04166662499999774,
          "durationTicks": 12,
          "midi": 88,
          "name": "E6",
          "ticks": 7536,
          "time": 26.1666405,
          "velocity": 0.33858267716535434
        },
        {
          "duration": 0.04166662500000129,
          "durationTicks": 12,
          "midi": 91,
          "name": "G6",
          "ticks": 7584,
          "time": 26.333306999999998,
          "velocity": 0.33858267716535434
        },
        {
          "duration": 0.04166662500000129,
          "durationTicks": 12,
          "midi": 89,
          "name": "F6",
          "ticks": 7632,
          "time": 26.4999735,
          "velocity": 0.33070866141732286
        },
        {
          "duration": 0.04166662499999774,
          "durationTicks": 12,
          "midi": 88,
          "name": "E6",
          "ticks": 7680,
          "time": 26.66664,
          "velocity": 0.3228346456692913
        },
        {
          "duration": 0.04166662500000129,
          "durationTicks": 12,
          "midi": 81,
          "name": "A5",
          "ticks": 7728,
          "time": 26.8333065,
          "velocity": 0.31496062992125984
        },
        {
          "duration": 0.04166662499999774,
          "durationTicks": 12,
          "midi": 71,
          "name": "B4",
          "ticks": 7776,
          "time": 26.999973,
          "velocity": 0.30708661417322836
        },
        {
          "duration": 0.04166662500000129,
          "durationTicks": 12,
          "midi": 73,
          "name": "C#5",
          "ticks": 7824,
          "time": 27.1666395,
          "velocity": 0.2992125984251969
        },
        {
          "duration": 0.04166662499999774,
          "durationTicks": 12,
          "midi": 76,
          "name": "E5",
          "ticks": 7872,
          "time": 27.333306,
          "velocity": 0.29133858267716534
        },
        {
          "duration": 0.04166662500000129,
          "durationTicks": 12,
          "midi": 81,
          "name": "A5",
          "ticks": 7920,
          "time": 27.4999725,
          "velocity": 0.29133858267716534
        },
        {
          "duration": 0.04166662499999774,
          "durationTicks": 12,
          "midi": 88,
          "name": "E6",
          "ticks": 7968,
          "time": 27.666639,
          "velocity": 0.28346456692913385
        },
        {
          "duration": 0.04166662500000129,
          "durationTicks": 12,
          "midi": 76,
          "name": "E5",
          "ticks": 8016,
          "time": 27.833305499999998,
          "velocity": 0.2755905511811024
        },
        {
          "duration": 0.04166662500000129,
          "durationTicks": 12,
          "midi": 81,
          "name": "A5",
          "ticks": 8064,
          "time": 27.999972,
          "velocity": 0.2677165354330709
        },
        {
          "duration": 0.04166662500000129,
          "durationTicks": 12,
          "midi": 88,
          "name": "E6",
          "ticks": 8112,
          "time": 28.166638499999998,
          "velocity": 0.25984251968503935
        },
        {
          "duration": 0.04166662500000129,
          "durationTicks": 12,
          "midi": 76,
          "name": "E5",
          "ticks": 8160,
          "time": 28.333305,
          "velocity": 0.25196850393700787
        },
        {
          "duration": 0.04166662499999774,
          "durationTicks": 12,
          "midi": 81,
          "name": "A5",
          "ticks": 8208,
          "time": 28.4999715,
          "velocity": 0.2440944881889764
        },
        {
          "duration": 0.04166662500000129,
          "durationTicks": 12,
          "midi": 88,
          "name": "E6",
          "ticks": 8256,
          "time": 28.666638,
          "velocity": 0.2440944881889764
        },
        {
          "duration": 0.04166662499999774,
          "durationTicks": 12,
          "midi": 76,
          "name": "E5",
          "ticks": 8304,
          "time": 28.8333045,
          "velocity": 0.23622047244094488
        },
        {
          "duration": 0.04166662500000129,
          "durationTicks": 12,
          "midi": 81,
          "name": "A5",
          "ticks": 8352,
          "time": 28.999971,
          "velocity": 0.2283464566929134
        },
        {
          "duration": 0.04166662499999774,
          "durationTicks": 12,
          "midi": 88,
          "name": "E6",
          "ticks": 8400,
          "time": 29.1666375,
          "velocity": 0.2204724409448819
        },
        {
          "duration": 0.04166662500000129,
          "durationTicks": 12,
          "midi": 76,
          "name": "E5",
          "ticks": 8592,
          "time": 29.8333035,
          "velocity": 0.1968503937007874
        },
        {
          "duration": 0.04166662500000129,
          "durationTicks": 12,
          "midi": 76,
          "name": "E5",
          "ticks": 8616,
          "time": 29.91663675,
          "velocity": 0.1889763779527559
        },
        {
          "duration": 0.04166662500000129,
          "durationTicks": 12,
          "midi": 88,
          "name": "E6",
          "ticks": 8640,
          "time": 29.999969999999998,
          "velocity": 0.1889763779527559
        },
        {
          "duration": 0.04166662500000129,
          "durationTicks": 12,
          "midi": 83,
          "name": "B5",
          "ticks": 8688,
          "time": 30.1666365,
          "velocity": 0.18110236220472442
        },
        {
          "duration": 0.04166662499999774,
          "durationTicks": 12,
          "midi": 81,
          "name": "A5",
          "ticks": 8736,
          "time": 30.333303,
          "velocity": 0.1732283464566929
        },
        {
          "duration": 0.04166662500000129,
          "durationTicks": 12,
          "midi": 76,
          "name": "E5",
          "ticks": 8784,
          "time": 30.4999695,
          "velocity": 0.16535433070866143
        },
        {
          "duration": 0.04166662499999774,
          "durationTicks": 12,
          "midi": 77,
          "name": "F5",
          "ticks": 8832,
          "time": 30.666636,
          "velocity": 0.15748031496062992
        },
        {
          "duration": 0.04166662500000129,
          "durationTicks": 12,
          "midi": 81,
          "name": "A5",
          "ticks": 8880,
          "time": 30.8333025,
          "velocity": 0.14960629921259844
        },
        {
          "duration": 0.04166662499999774,
          "durationTicks": 12,
          "midi": 88,
          "name": "E6",
          "ticks": 8928,
          "time": 30.999969,
          "velocity": 0.14960629921259844
        },
        {
          "duration": 0.04166662500000129,
          "durationTicks": 12,
          "midi": 77,
          "name": "F5",
          "ticks": 8976,
          "time": 31.166635499999998,
          "velocity": 0.14173228346456693
        },
        {
          "duration": 0.04166662499999774,
          "durationTicks": 12,
          "midi": 81,
          "name": "A5",
          "ticks": 9024,
          "time": 31.333302,
          "velocity": 0.13385826771653545
        },
        {
          "duration": 0.04166662500000129,
          "durationTicks": 12,
          "midi": 88,
          "name": "E6",
          "ticks": 9072,
          "time": 31.499968499999998,
          "velocity": 0.12598425196850394
        },
        {
          "duration": 0.04166662500000129,
          "durationTicks": 12,
          "midi": 91,
          "name": "G6",
          "ticks": 9120,
          "time": 31.666635,
          "velocity": 0.11811023622047244
        },
        {
          "duration": 0.04166662500000129,
          "durationTicks": 12,
          "midi": 89,
          "name": "F6",
          "ticks": 9168,
          "time": 31.833301499999997,
          "velocity": 0.11023622047244094
        },
        {
          "duration": 0.04166662500000129,
          "durationTicks": 12,
          "midi": 88,
          "name": "E6",
          "ticks": 9216,
          "time": 31.999968,
          "velocity": 0.11023622047244094
        },
        {
          "duration": 0.04166662499999774,
          "durationTicks": 12,
          "midi": 81,
          "name": "A5",
          "ticks": 9264,
          "time": 32.1666345,
          "velocity": 0.10236220472440945
        },
        {
          "duration": 0.04166662499999774,
          "durationTicks": 12,
          "midi": 71,
          "name": "B4",
          "ticks": 9312,
          "time": 32.333301,
          "velocity": 0.09448818897637795
        },
        {
          "duration": 0.04166662500000484,
          "durationTicks": 12,
          "midi": 73,
          "name": "C#5",
          "ticks": 9360,
          "time": 32.4999675,
          "velocity": 0.08661417322834646
        },
        {
          "duration": 0.04166662499999774,
          "durationTicks": 12,
          "midi": 76,
          "name": "E5",
          "ticks": 9408,
          "time": 32.666634,
          "velocity": 0.07874015748031496
        },
        {
          "duration": 0.04166662499999774,
          "durationTicks": 12,
          "midi": 81,
          "name": "A5",
          "ticks": 9456,
          "time": 32.8333005,
          "velocity": 0.07086614173228346
        },
        {
          "duration": 0.04166662499999774,
          "durationTicks": 12,
          "midi": 88,
          "name": "E6",
          "ticks": 9504,
          "time": 32.999967,
          "velocity": 0.06299212598425197
        },
        {
          "duration": 0.04166662500000484,
          "durationTicks": 12,
          "midi": 76,
          "name": "E5",
          "ticks": 9552,
          "time": 33.166633499999996,
          "velocity": 0.06299212598425197
        },
        {
          "duration": 0.04166662499999774,
          "durationTicks": 12,
          "midi": 81,
          "name": "A5",
          "ticks": 9600,
          "time": 33.3333,
          "velocity": 0.05511811023622047
        },
        {
          "duration": 0.04166662499999774,
          "durationTicks": 12,
          "midi": 88,
          "name": "E6",
          "ticks": 9648,
          "time": 33.4999665,
          "velocity": 0.047244094488188976
        },
        {
          "duration": 0.04166662500000484,
          "durationTicks": 12,
          "midi": 76,
          "name": "E5",
          "ticks": 9696,
          "time": 33.666633,
          "velocity": 0.03937007874015748
        },
        {
          "duration": 0.04166662499999774,
          "durationTicks": 12,
          "midi": 81,
          "name": "A5",
          "ticks": 9744,
          "time": 33.8332995,
          "velocity": 0.031496062992125984
        },
        {
          "duration": 0.04166662499999774,
          "durationTicks": 12,
          "midi": 88,
          "name": "E6",
          "ticks": 9792,
          "time": 33.999966,
          "velocity": 0.023622047244094488
        },
        {
          "duration": 0.04166662499999774,
          "durationTicks": 12,
          "midi": 76,
          "name": "E5",
          "ticks": 9840,
          "time": 34.1666325,
          "velocity": 0.015748031496062992
        },
        {
          "duration": 0.04166662500000484,
          "durationTicks": 12,
          "midi": 81,
          "name": "A5",
          "ticks": 9888,
          "time": 34.333299,
          "velocity": 0.015748031496062992
        },
        {
          "duration": 0.04166662499999774,
          "durationTicks": 12,
          "midi": 88,
          "name": "E6",
          "ticks": 9936,
          "time": 34.4999655,
          "velocity": 0.007874015748031496
        },
        {
          "duration": 0.16666649999999805,
          "durationTicks": 48,
          "midi": 71,
          "name": "B4",
          "ticks": 18240,
          "time": 63.33327,
          "velocity": 0.4881889763779528
        },
        {
          "duration": 0.16666649999999805,
          "durationTicks": 48,
          "midi": 73,
          "name": "C#5",
          "ticks": 18288,
          "time": 63.4999365,
          "velocity": 0.4881889763779528
        },
        {
          "duration": 0.16666650000000516,
          "durationTicks": 48,
          "midi": 76,
          "name": "E5",
          "ticks": 18336,
          "time": 63.666602999999995,
          "velocity": 0.4881889763779528
        },
        {
          "duration": 0.16666649999999805,
          "durationTicks": 48,
          "midi": 80,
          "name": "G#5",
          "ticks": 18384,
          "time": 63.8332695,
          "velocity": 0.4881889763779528
        },
        {
          "duration": 0.16666650000000516,
          "durationTicks": 48,
          "midi": 81,
          "name": "A5",
          "ticks": 18624,
          "time": 64.666602,
          "velocity": 0.49606299212598426
        },
        {
          "duration": 0.16666649999999095,
          "durationTicks": 48,
          "midi": 84,
          "name": "C6",
          "ticks": 18672,
          "time": 64.8332685,
          "velocity": 0.49606299212598426
        },
        {
          "duration": 0.16666650000000516,
          "durationTicks": 48,
          "midi": 79,
          "name": "G5",
          "ticks": 18720,
          "time": 64.999935,
          "velocity": 0.49606299212598426
        },
        {
          "duration": 0.16666650000000516,
          "durationTicks": 48,
          "midi": 81,
          "name": "A5",
          "ticks": 18768,
          "time": 65.1666015,
          "velocity": 0.49606299212598426
        },
        {
          "duration": 0.16666649999999095,
          "durationTicks": 48,
          "midi": 77,
          "name": "F5",
          "ticks": 18816,
          "time": 65.333268,
          "velocity": 0.49606299212598426
        },
        {
          "duration": 0.16666650000000516,
          "durationTicks": 48,
          "midi": 79,
          "name": "G5",
          "ticks": 18864,
          "time": 65.4999345,
          "velocity": 0.49606299212598426
        },
        {
          "duration": 0.16666650000000516,
          "durationTicks": 48,
          "midi": 74,
          "name": "D5",
          "ticks": 18912,
          "time": 65.666601,
          "velocity": 0.49606299212598426
        },
        {
          "duration": 0.16666649999999095,
          "durationTicks": 48,
          "midi": 77,
          "name": "F5",
          "ticks": 18960,
          "time": 65.8332675,
          "velocity": 0.49606299212598426
        },
        {
          "duration": 0.16666650000000516,
          "durationTicks": 48,
          "midi": 72,
          "name": "C5",
          "ticks": 19008,
          "time": 65.999934,
          "velocity": 0.49606299212598426
        },
        {
          "duration": 0.16666649999999095,
          "durationTicks": 48,
          "midi": 74,
          "name": "D5",
          "ticks": 19056,
          "time": 66.1666005,
          "velocity": 0.49606299212598426
        },
        {
          "duration": 0.16666650000000516,
          "durationTicks": 48,
          "midi": 69,
          "name": "A4",
          "ticks": 19104,
          "time": 66.33326699999999,
          "velocity": 0.49606299212598426
        },
        {
          "duration": 0.16666650000000516,
          "durationTicks": 48,
          "midi": 72,
          "name": "C5",
          "ticks": 19152,
          "time": 66.4999335,
          "velocity": 0.49606299212598426
        },
        {
          "duration": 0.08333325000000968,
          "durationTicks": 24,
          "midi": 65,
          "name": "F4",
          "ticks": 22272,
          "time": 77.33325599999999,
          "velocity": 0.36220472440944884
        },
        {
          "duration": 0.08333324999999547,
          "durationTicks": 24,
          "midi": 60,
          "name": "C4",
          "ticks": 22296,
          "time": 77.41658925,
          "velocity": 0.3858267716535433
        },
        {
          "duration": 0.08333324999999547,
          "durationTicks": 24,
          "midi": 69,
          "name": "A4",
          "ticks": 22320,
          "time": 77.4999225,
          "velocity": 0.4094488188976378
        },
        {
          "duration": 0.08333325000000968,
          "durationTicks": 24,
          "midi": 65,
          "name": "F4",
          "ticks": 22344,
          "time": 77.58325574999999,
          "velocity": 0.4330708661417323
        },
        {
          "duration": 0.08333324999999547,
          "durationTicks": 24,
          "midi": 72,
          "name": "C5",
          "ticks": 22368,
          "time": 77.666589,
          "velocity": 0.4566929133858268
        },
        {
          "duration": 0.08333324999999547,
          "durationTicks": 24,
          "midi": 69,
          "name": "A4",
          "ticks": 22392,
          "time": 77.74992225,
          "velocity": 0.48031496062992124
        },
        {
          "duration": 0.08333325000000968,
          "durationTicks": 24,
          "midi": 77,
          "name": "F5",
          "ticks": 22416,
          "time": 77.83325549999999,
          "velocity": 0.5039370078740157
        },
        {
          "duration": 0.08333324999999547,
          "durationTicks": 24,
          "midi": 72,
          "name": "C5",
          "ticks": 22440,
          "time": 77.91658875,
          "velocity": 0.5275590551181102
        },
        {
          "duration": 0.08333324999999547,
          "durationTicks": 24,
          "midi": 69,
          "name": "A4",
          "ticks": 22464,
          "time": 77.999922,
          "velocity": 0.5511811023622047
        },
        {
          "duration": 0.08333325000000968,
          "durationTicks": 24,
          "midi": 65,
          "name": "F4",
          "ticks": 22488,
          "time": 78.08325525,
          "velocity": 0.5748031496062992
        },
        {
          "duration": 0.08333324999999547,
          "durationTicks": 24,
          "midi": 72,
          "name": "C5",
          "ticks": 22512,
          "time": 78.1665885,
          "velocity": 0.5984251968503937
        },
        {
          "duration": 0.08333324999999547,
          "durationTicks": 24,
          "midi": 69,
          "name": "A4",
          "ticks": 22536,
          "time": 78.24992175,
          "velocity": 0.6220472440944882
        },
        {
          "duration": 0.08333325000000968,
          "durationTicks": 24,
          "midi": 77,
          "name": "F5",
          "ticks": 22560,
          "time": 78.333255,
          "velocity": 0.6456692913385826
        },
        {
          "duration": 0.08333324999999547,
          "durationTicks": 24,
          "midi": 72,
          "name": "C5",
          "ticks": 22584,
          "time": 78.41658825,
          "velocity": 0.6692913385826772
        },
        {
          "duration": 0.08333324999999547,
          "durationTicks": 24,
          "midi": 81,
          "name": "A5",
          "ticks": 22608,
          "time": 78.4999215,
          "velocity": 0.6929133858267716
        },
        {
          "duration": 0.08333325000000968,
          "durationTicks": 24,
          "midi": 77,
          "name": "F5",
          "ticks": 22632,
          "time": 78.58325475,
          "velocity": 0.7165354330708661
        },
        {
          "duration": 0.08333324999999547,
          "durationTicks": 24,
          "midi": 84,
          "name": "C6",
          "ticks": 22656,
          "time": 78.666588,
          "velocity": 0.7637795275590551
        },
        {
          "duration": 0.08333324999999547,
          "durationTicks": 24,
          "midi": 81,
          "name": "A5",
          "ticks": 22680,
          "time": 78.74992125,
          "velocity": 0.7244094488188977
        },
        {
          "duration": 0.08333324999999547,
          "durationTicks": 24,
          "midi": 77,
          "name": "F5",
          "ticks": 22704,
          "time": 78.8332545,
          "velocity": 0.6929133858267716
        },
        {
          "duration": 0.08333325000000968,
          "durationTicks": 24,
          "midi": 72,
          "name": "C5",
          "ticks": 22728,
          "time": 78.91658774999999,
          "velocity": 0.6535433070866141
        },
        {
          "duration": 0.08333324999999547,
          "durationTicks": 24,
          "midi": 69,
          "name": "A4",
          "ticks": 22752,
          "time": 78.999921,
          "velocity": 0.6141732283464567
        },
        {
          "duration": 0.08333324999999547,
          "durationTicks": 24,
          "midi": 65,
          "name": "F4",
          "ticks": 22776,
          "time": 79.08325425,
          "velocity": 0.5826771653543307
        },
        {
          "duration": 0.08333325000000968,
          "durationTicks": 24,
          "midi": 60,
          "name": "C4",
          "ticks": 22800,
          "time": 79.16658749999999,
          "velocity": 0.5433070866141733
        },
        {
          "duration": 0.08333324999999547,
          "durationTicks": 24,
          "midi": 57,
          "name": "A3",
          "ticks": 22824,
          "time": 79.24992075,
          "velocity": 0.5118110236220472
        },
        {
          "duration": 0.08333324999999547,
          "durationTicks": 24,
          "midi": 83,
          "name": "B5",
          "ticks": 22848,
          "time": 79.333254,
          "velocity": 0.6929133858267716
        },
        {
          "duration": 0.08333325000000968,
          "durationTicks": 24,
          "midi": 79,
          "name": "G5",
          "ticks": 22872,
          "time": 79.41658724999999,
          "velocity": 0.6535433070866141
        },
        {
          "duration": 0.08333324999999547,
          "durationTicks": 24,
          "midi": 74,
          "name": "D5",
          "ticks": 22896,
          "time": 79.4999205,
          "velocity": 0.6141732283464567
        },
        {
          "duration": 0.08333324999999547,
          "durationTicks": 24,
          "midi": 71,
          "name": "B4",
          "ticks": 22920,
          "time": 79.58325375,
          "velocity": 0.5748031496062992
        },
        {
          "duration": 0.08333325000000968,
          "durationTicks": 24,
          "midi": 67,
          "name": "G4",
          "ticks": 22944,
          "time": 79.66658699999999,
          "velocity": 0.5354330708661418
        },
        {
          "duration": 0.08333324999999547,
          "durationTicks": 24,
          "midi": 62,
          "name": "D4",
          "ticks": 22968,
          "time": 79.74992025,
          "velocity": 0.49606299212598426
        },
        {
          "duration": 0.08333324999999547,
          "durationTicks": 24,
          "midi": 59,
          "name": "B3",
          "ticks": 22992,
          "time": 79.8332535,
          "velocity": 0.4566929133858268
        },
        {
          "duration": 0.08333325000000968,
          "durationTicks": 24,
          "midi": 55,
          "name": "G3",
          "ticks": 23016,
          "time": 79.91658675,
          "velocity": 0.41732283464566927
        },
        {
          "duration": 0.0763888124999994,
          "durationTicks": 22,
          "midi": 64,
          "name": "E4",
          "ticks": 28416,
          "time": 98.666568,
          "velocity": 0.33070866141732286
        },
        {
          "duration": 0.07638881250001361,
          "durationTicks": 22,
          "midi": 60,
          "name": "C4",
          "ticks": 28440,
          "time": 98.74990125,
          "velocity": 0.3543307086614173
        },
        {
          "duration": 0.0763888124999994,
          "durationTicks": 22,
          "midi": 69,
          "name": "A4",
          "ticks": 28464,
          "time": 98.8332345,
          "velocity": 0.3858267716535433
        },
        {
          "duration": 0.0763888124999994,
          "durationTicks": 22,
          "midi": 64,
          "name": "E4",
          "ticks": 28488,
          "time": 98.91656775,
          "velocity": 0.4094488188976378
        },
        {
          "duration": 0.07638881250001361,
          "durationTicks": 22,
          "midi": 72,
          "name": "C5",
          "ticks": 28512,
          "time": 98.999901,
          "velocity": 0.4330708661417323
        },
        {
          "duration": 0.0763888124999994,
          "durationTicks": 22,
          "midi": 69,
          "name": "A4",
          "ticks": 28536,
          "time": 99.08323425,
          "velocity": 0.4645669291338583
        },
        {
          "duration": 0.0763888124999994,
          "durationTicks": 22,
          "midi": 76,
          "name": "E5",
          "ticks": 28560,
          "time": 99.1665675,
          "velocity": 0.4881889763779528
        },
        {
          "duration": 0.07638881250001361,
          "durationTicks": 22,
          "midi": 72,
          "name": "C5",
          "ticks": 28584,
          "time": 99.24990075,
          "velocity": 0.5118110236220472
        },
        {
          "duration": 0.07638881250001361,
          "durationTicks": 22,
          "midi": 81,
          "name": "A5",
          "ticks": 28608,
          "time": 99.33323399999999,
          "velocity": 0.5433070866141733
        },
        {
          "duration": 0.0763888124999994,
          "durationTicks": 22,
          "midi": 76,
          "name": "E5",
          "ticks": 28632,
          "time": 99.41656725,
          "velocity": 0.5669291338582677
        },
        {
          "duration": 0.07638881250001361,
          "durationTicks": 22,
          "midi": 84,
          "name": "C6",
          "ticks": 28656,
          "time": 99.4999005,
          "velocity": 0.5905511811023622
        },
        {
          "duration": 0.07638881250001361,
          "durationTicks": 22,
          "midi": 81,
          "name": "A5",
          "ticks": 28680,
          "time": 99.58323374999999,
          "velocity": 0.6220472440944882
        },
        {
          "duration": 0.0763888124999994,
          "durationTicks": 22,
          "midi": 88,
          "name": "E6",
          "ticks": 28704,
          "time": 99.666567,
          "velocity": 0.6456692913385826
        },
        {
          "duration": 0.07638881250001361,
          "durationTicks": 22,
          "midi": 84,
          "name": "C6",
          "ticks": 28728,
          "time": 99.74990025,
          "velocity": 0.6692913385826772
        },
        {
          "duration": 0.07638881250001361,
          "durationTicks": 22,
          "midi": 93,
          "name": "A6",
          "ticks": 28752,
          "time": 99.83323349999999,
          "velocity": 0.7007874015748031
        },
        {
          "duration": 0.0763888124999994,
          "durationTicks": 22,
          "midi": 88,
          "name": "E6",
          "ticks": 28776,
          "time": 99.91656675,
          "velocity": 0.7244094488188977
        },
        {
          "duration": 0.07638881250001361,
          "durationTicks": 22,
          "midi": 100,
          "name": "E7",
          "ticks": 28800,
          "time": 99.9999,
          "velocity": 0.7480314960629921
        },
        {
          "duration": 0.07638881250001361,
          "durationTicks": 22,
          "midi": 96,
          "name": "C7",
          "ticks": 28824,
          "time": 100.08323324999999,
          "velocity": 0.7401574803149606
        },
        {
          "duration": 0.0763888124999994,
          "durationTicks": 22,
          "midi": 93,
          "name": "A6",
          "ticks": 28848,
          "time": 100.1665665,
          "velocity": 0.7244094488188977
        },
        {
          "duration": 0.0763888124999994,
          "durationTicks": 22,
          "midi": 88,
          "name": "E6",
          "ticks": 28872,
          "time": 100.24989975,
          "velocity": 0.7007874015748031
        },
        {
          "duration": 0.07638881250001361,
          "durationTicks": 22,
          "midi": 96,
          "name": "C7",
          "ticks": 28896,
          "time": 100.33323299999999,
          "velocity": 0.6850393700787402
        },
        {
          "duration": 0.0763888124999994,
          "durationTicks": 22,
          "midi": 93,
          "name": "A6",
          "ticks": 28920,
          "time": 100.41656625,
          "velocity": 0.6692913385826772
        },
        {
          "duration": 0.0763888124999994,
          "durationTicks": 22,
          "midi": 88,
          "name": "E6",
          "ticks": 28944,
          "time": 100.4998995,
          "velocity": 0.6456692913385826
        },
        {
          "duration": 0.07638881250001361,
          "durationTicks": 22,
          "midi": 84,
          "name": "C6",
          "ticks": 28968,
          "time": 100.58323275,
          "velocity": 0.6299212598425197
        },
        {
          "duration": 0.0763888124999994,
          "durationTicks": 22,
          "midi": 93,
          "name": "A6",
          "ticks": 28992,
          "time": 100.666566,
          "velocity": 0.6062992125984252
        },
        {
          "duration": 0.0763888124999994,
          "durationTicks": 22,
          "midi": 88,
          "name": "E6",
          "ticks": 29016,
          "time": 100.74989925,
          "velocity": 0.5905511811023622
        },
        {
          "duration": 0.07638881250001361,
          "durationTicks": 22,
          "midi": 84,
          "name": "C6",
          "ticks": 29040,
          "time": 100.8332325,
          "velocity": 0.5669291338582677
        },
        {
          "duration": 0.0763888124999994,
          "durationTicks": 22,
          "midi": 81,
          "name": "A5",
          "ticks": 29064,
          "time": 100.91656575,
          "velocity": 0.5511811023622047
        },
        {
          "duration": 0.0763888124999994,
          "durationTicks": 22,
          "midi": 88,
          "name": "E6",
          "ticks": 29088,
          "time": 100.999899,
          "velocity": 0.5275590551181102
        },
        {
          "duration": 0.07638881250001361,
          "durationTicks": 22,
          "midi": 84,
          "name": "C6",
          "ticks": 29112,
          "time": 101.08323225,
          "velocity": 0.5118110236220472
        },
        {
          "duration": 0.07638881250001361,
          "durationTicks": 22,
          "midi": 81,
          "name": "A5",
          "ticks": 29136,
          "time": 101.16656549999999,
          "velocity": 0.49606299212598426
        },
        {
          "duration": 0.0763888124999994,
          "durationTicks": 22,
          "midi": 76,
          "name": "E5",
          "ticks": 29160,
          "time": 101.24989875,
          "velocity": 0.47244094488188976
        },
        {
          "duration": 0.04861106250000091,
          "durationTicks": 14,
          "midi": 64,
          "name": "E4",
          "ticks": 29184,
          "time": 101.333232,
          "velocity": 0.4409448818897638
        },
        {
          "duration": 0.0486110624999867,
          "durationTicks": 14,
          "midi": 62,
          "name": "D4",
          "ticks": 29200,
          "time": 101.3887875,
          "velocity": 0.44881889763779526
        },
        {
          "duration": 0.04861106250001512,
          "durationTicks": 14,
          "midi": 59,
          "name": "B3",
          "ticks": 29216,
          "time": 101.44434299999999,
          "velocity": 0.4645669291338583
        },
        {
          "duration": 0.0486110624999867,
          "durationTicks": 14,
          "midi": 62,
          "name": "D4",
          "ticks": 29232,
          "time": 101.4998985,
          "velocity": 0.47244094488188976
        },
        {
          "duration": 0.04861106250000091,
          "durationTicks": 14,
          "midi": 64,
          "name": "E4",
          "ticks": 29248,
          "time": 101.555454,
          "velocity": 0.4881889763779528
        },
        {
          "duration": 0.04861106250001512,
          "durationTicks": 14,
          "midi": 68,
          "name": "G#4",
          "ticks": 29264,
          "time": 101.6110095,
          "velocity": 0.49606299212598426
        },
        {
          "duration": 0.04861106250000091,
          "durationTicks": 14,
          "midi": 71,
          "name": "B4",
          "ticks": 29280,
          "time": 101.66656499999999,
          "velocity": 0.5039370078740157
        },
        {
          "duration": 0.04861106250000091,
          "durationTicks": 14,
          "midi": 68,
          "name": "G#4",
          "ticks": 29296,
          "time": 101.7221205,
          "velocity": 0.5196850393700787
        },
        {
          "duration": 0.04861106250001512,
          "durationTicks": 14,
          "midi": 64,
          "name": "E4",
          "ticks": 29312,
          "time": 101.77767599999999,
          "velocity": 0.5275590551181102
        },
        {
          "duration": 0.04861106250000091,
          "durationTicks": 14,
          "midi": 68,
          "name": "G#4",
          "ticks": 29328,
          "time": 101.8332315,
          "velocity": 0.5433070866141733
        },
        {
          "duration": 0.0486110624999867,
          "durationTicks": 14,
          "midi": 71,
          "name": "B4",
          "ticks": 29344,
          "time": 101.88878700000001,
          "velocity": 0.5511811023622047
        },
        {
          "duration": 0.04861106250001512,
          "durationTicks": 14,
          "midi": 74,
          "name": "D5",
          "ticks": 29360,
          "time": 101.94434249999999,
          "velocity": 0.5590551181102362
        },
        {
          "duration": 0.0486110624999867,
          "durationTicks": 14,
          "midi": 76,
          "name": "E5",
          "ticks": 29376,
          "time": 101.999898,
          "velocity": 0.5748031496062992
        },
        {
          "duration": 0.04861106250000091,
          "durationTicks": 14,
          "midi": 74,
          "name": "D5",
          "ticks": 29392,
          "time": 102.0554535,
          "velocity": 0.5826771653543307
        },
        {
          "duration": 0.04861106250000091,
          "durationTicks": 14,
          "midi": 71,
          "name": "B4",
          "ticks": 29408,
          "time": 102.111009,
          "velocity": 0.5905511811023622
        },
        {
          "duration": 0.04861106250000091,
          "durationTicks": 14,
          "midi": 74,
          "name": "D5",
          "ticks": 29424,
          "time": 102.16656449999999,
          "velocity": 0.6062992125984252
        },
        {
          "duration": 0.0486110624999867,
          "durationTicks": 14,
          "midi": 76,
          "name": "E5",
          "ticks": 29440,
          "time": 102.22212,
          "velocity": 0.6141732283464567
        },
        {
          "duration": 0.04861106250001512,
          "durationTicks": 14,
          "midi": 80,
          "name": "G#5",
          "ticks": 29456,
          "time": 102.27767549999999,
          "velocity": 0.6299212598425197
        },
        {
          "duration": 0.0486110624999867,
          "durationTicks": 14,
          "midi": 83,
          "name": "B5",
          "ticks": 29472,
          "time": 102.333231,
          "velocity": 0.6377952755905512
        },
        {
          "duration": 0.0486110624999867,
          "durationTicks": 14,
          "midi": 80,
          "name": "G#5",
          "ticks": 29488,
          "time": 102.38878650000001,
          "velocity": 0.6456692913385826
        },
        {
          "duration": 0.04861106250001512,
          "durationTicks": 14,
          "midi": 76,
          "name": "E5",
          "ticks": 29504,
          "time": 102.44434199999999,
          "velocity": 0.6614173228346457
        },
        {
          "duration": 0.0486110624999867,
          "durationTicks": 14,
          "midi": 80,
          "name": "G#5",
          "ticks": 29520,
          "time": 102.4998975,
          "velocity": 0.6692913385826772
        },
        {
          "duration": 0.04861106250000091,
          "durationTicks": 14,
          "midi": 83,
          "name": "B5",
          "ticks": 29536,
          "time": 102.555453,
          "velocity": 0.6850393700787402
        },
        {
          "duration": 0.04861106250000091,
          "durationTicks": 14,
          "midi": 86,
          "name": "D6",
          "ticks": 29552,
          "time": 102.6110085,
          "velocity": 0.6929133858267716
        },
        {
          "duration": 0.07638881250001361,
          "durationTicks": 22,
          "midi": 88,
          "name": "E6",
          "ticks": 29568,
          "time": 102.666564,
          "velocity": 0.7007874015748031
        },
        {
          "duration": 0.08333325000000968,
          "durationTicks": 24,
          "midi": 64,
          "name": "E4",
          "ticks": 29952,
          "time": 103.99989599999999,
          "velocity": 0.7165354330708661
        },
        {
          "duration": 0.08333324999999547,
          "durationTicks": 24,
          "midi": 69,
          "name": "A4",
          "ticks": 29976,
          "time": 104.08322925,
          "velocity": 0.7165354330708661
        },
        {
          "duration": 0.08333324999999547,
          "durationTicks": 24,
          "midi": 71,
          "name": "B4",
          "ticks": 30000,
          "time": 104.1665625,
          "velocity": 0.7165354330708661
        },
        {
          "duration": 0.08333325000000968,
          "durationTicks": 24,
          "midi": 76,
          "name": "E5",
          "ticks": 30024,
          "time": 104.24989575,
          "velocity": 0.7165354330708661
        },
        {
          "duration": 0.08333324999999547,
          "durationTicks": 24,
          "midi": 81,
          "name": "A5",
          "ticks": 30048,
          "time": 104.333229,
          "velocity": 0.7165354330708661
        },
        {
          "duration": 0.08333324999999547,
          "durationTicks": 24,
          "midi": 76,
          "name": "E5",
          "ticks": 30072,
          "time": 104.41656225,
          "velocity": 0.7165354330708661
        },
        {
          "duration": 0.08333325000000968,
          "durationTicks": 24,
          "midi": 69,
          "name": "A4",
          "ticks": 30096,
          "time": 104.4998955,
          "velocity": 0.7165354330708661
        },
        {
          "duration": 0.08333324999999547,
          "durationTicks": 24,
          "midi": 59,
          "name": "B3",
          "ticks": 30120,
          "time": 104.58322875,
          "velocity": 0.7165354330708661
        },
        {
          "duration": 0.08333324999999547,
          "durationTicks": 24,
          "midi": 64,
          "name": "E4",
          "ticks": 30144,
          "time": 104.666562,
          "velocity": 0.7165354330708661
        },
        {
          "duration": 0.08333324999999547,
          "durationTicks": 24,
          "midi": 69,
          "name": "A4",
          "ticks": 30168,
          "time": 104.74989525,
          "velocity": 0.7165354330708661
        },
        {
          "duration": 0.08333325000000968,
          "durationTicks": 24,
          "midi": 71,
          "name": "B4",
          "ticks": 30192,
          "time": 104.83322849999999,
          "velocity": 0.7165354330708661
        },
        {
          "duration": 0.08333324999999547,
          "durationTicks": 24,
          "midi": 76,
          "name": "E5",
          "ticks": 30216,
          "time": 104.91656175,
          "velocity": 0.7165354330708661
        },
        {
          "duration": 0.08333324999999547,
          "durationTicks": 24,
          "midi": 81,
          "name": "A5",
          "ticks": 30240,
          "time": 104.999895,
          "velocity": 0.7165354330708661
        },
        {
          "duration": 0.08333325000000968,
          "durationTicks": 24,
          "midi": 76,
          "name": "E5",
          "ticks": 30264,
          "time": 105.08322824999999,
          "velocity": 0.7165354330708661
        },
        {
          "duration": 0.08333324999999547,
          "durationTicks": 24,
          "midi": 69,
          "name": "A4",
          "ticks": 30288,
          "time": 105.1665615,
          "velocity": 0.7165354330708661
        },
        {
          "duration": 0.08333324999999547,
          "durationTicks": 24,
          "midi": 61,
          "name": "C#4",
          "ticks": 30312,
          "time": 105.24989475,
          "velocity": 0.7165354330708661
        },
        {
          "duration": 0.08333325000000968,
          "durationTicks": 24,
          "midi": 64,
          "name": "E4",
          "ticks": 30336,
          "time": 105.33322799999999,
          "velocity": 0.7165354330708661
        },
        {
          "duration": 0.08333324999999547,
          "durationTicks": 24,
          "midi": 69,
          "name": "A4",
          "ticks": 30360,
          "time": 105.41656125,
          "velocity": 0.7165354330708661
        },
        {
          "duration": 0.08333324999999547,
          "durationTicks": 24,
          "midi": 71,
          "name": "B4",
          "ticks": 30384,
          "time": 105.4998945,
          "velocity": 0.7165354330708661
        },
        {
          "duration": 0.08333325000000968,
          "durationTicks": 24,
          "midi": 76,
          "name": "E5",
          "ticks": 30408,
          "time": 105.58322774999999,
          "velocity": 0.7165354330708661
        },
        {
          "duration": 0.08333324999999547,
          "durationTicks": 24,
          "midi": 83,
          "name": "B5",
          "ticks": 30432,
          "time": 105.666561,
          "velocity": 0.7165354330708661
        },
        {
          "duration": 0.08333324999999547,
          "durationTicks": 24,
          "midi": 76,
          "name": "E5",
          "ticks": 30456,
          "time": 105.74989425,
          "velocity": 0.7165354330708661
        },
        {
          "duration": 0.08333325000000968,
          "durationTicks": 24,
          "midi": 71,
          "name": "B4",
          "ticks": 30480,
          "time": 105.83322749999999,
          "velocity": 0.7165354330708661
        },
        {
          "duration": 0.08333324999999547,
          "durationTicks": 24,
          "midi": 64,
          "name": "E4",
          "ticks": 30504,
          "time": 105.91656075,
          "velocity": 0.7165354330708661
        },
        {
          "duration": 0.08333324999999547,
          "durationTicks": 24,
          "midi": 66,
          "name": "F#4",
          "ticks": 30528,
          "time": 105.999894,
          "velocity": 0.7165354330708661
        },
        {
          "duration": 0.08333325000000968,
          "durationTicks": 24,
          "midi": 69,
          "name": "A4",
          "ticks": 30552,
          "time": 106.08322725,
          "velocity": 0.7165354330708661
        },
        {
          "duration": 0.08333324999999547,
          "durationTicks": 24,
          "midi": 73,
          "name": "C#5",
          "ticks": 30576,
          "time": 106.1665605,
          "velocity": 0.7165354330708661
        },
        {
          "duration": 0.08333324999999547,
          "durationTicks": 24,
          "midi": 76,
          "name": "E5",
          "ticks": 30600,
          "time": 106.24989375,
          "velocity": 0.7165354330708661
        },
        {
          "duration": 0.08333325000000968,
          "durationTicks": 24,
          "midi": 83,
          "name": "B5",
          "ticks": 30624,
          "time": 106.333227,
          "velocity": 0.7165354330708661
        },
        {
          "duration": 0.08333324999999547,
          "durationTicks": 24,
          "midi": 76,
          "name": "E5",
          "ticks": 30648,
          "time": 106.41656025,
          "velocity": 0.7165354330708661
        },
        {
          "duration": 0.08333324999999547,
          "durationTicks": 24,
          "midi": 71,
          "name": "B4",
          "ticks": 30672,
          "time": 106.4998935,
          "velocity": 0.7165354330708661
        },
        {
          "duration": 0.08333325000000968,
          "durationTicks": 24,
          "midi": 69,
          "name": "A4",
          "ticks": 30696,
          "time": 106.58322675,
          "velocity": 0.7165354330708661
        },
        {
          "duration": 0.08333324999999547,
          "durationTicks": 24,
          "midi": 85,
          "name": "C#6",
          "ticks": 30720,
          "time": 106.66656,
          "velocity": 0.7165354330708661
        },
        {
          "duration": 0.08333324999999547,
          "durationTicks": 24,
          "midi": 86,
          "name": "D6",
          "ticks": 30744,
          "time": 106.74989325,
          "velocity": 0.7165354330708661
        },
        {
          "duration": 0.08333324999999547,
          "durationTicks": 24,
          "midi": 81,
          "name": "A5",
          "ticks": 30768,
          "time": 106.8332265,
          "velocity": 0.7165354330708661
        },
        {
          "duration": 0.08333325000000968,
          "durationTicks": 24,
          "midi": 78,
          "name": "F#5",
          "ticks": 30792,
          "time": 106.91655974999999,
          "velocity": 0.7165354330708661
        },
        {
          "duration": 0.08333324999999547,
          "durationTicks": 24,
          "midi": 76,
          "name": "E5",
          "ticks": 30816,
          "time": 106.999893,
          "velocity": 0.7165354330708661
        },
        {
          "duration": 0.08333324999999547,
          "durationTicks": 24,
          "midi": 74,
          "name": "D5",
          "ticks": 30840,
          "time": 107.08322625,
          "velocity": 0.7165354330708661
        },
        {
          "duration": 0.08333325000000968,
          "durationTicks": 24,
          "midi": 73,
          "name": "C#5",
          "ticks": 30864,
          "time": 107.16655949999999,
          "velocity": 0.7165354330708661
        },
        {
          "duration": 0.08333324999999547,
          "durationTicks": 24,
          "midi": 71,
          "name": "B4",
          "ticks": 30888,
          "time": 107.24989275,
          "velocity": 0.7165354330708661
        },
        {
          "duration": 0.08333324999999547,
          "durationTicks": 24,
          "midi": 66,
          "name": "F#4",
          "ticks": 30912,
          "time": 107.333226,
          "velocity": 0.7165354330708661
        },
        {
          "duration": 0.08333325000000968,
          "durationTicks": 24,
          "midi": 64,
          "name": "E4",
          "ticks": 30936,
          "time": 107.41655924999999,
          "velocity": 0.7165354330708661
        },
        {
          "duration": 0.08333324999999547,
          "durationTicks": 24,
          "midi": 61,
          "name": "C#4",
          "ticks": 30960,
          "time": 107.4998925,
          "velocity": 0.7165354330708661
        },
        {
          "duration": 0.08333324999999547,
          "durationTicks": 24,
          "midi": 62,
          "name": "D4",
          "ticks": 30984,
          "time": 107.58322575,
          "velocity": 0.7165354330708661
        },
        {
          "duration": 0.08333325000000968,
          "durationTicks": 24,
          "midi": 64,
          "name": "E4",
          "ticks": 31008,
          "time": 107.66655899999999,
          "velocity": 0.7165354330708661
        },
        {
          "duration": 0.08333324999999547,
          "durationTicks": 24,
          "midi": 66,
          "name": "F#4",
          "ticks": 31032,
          "time": 107.74989225,
          "velocity": 0.7165354330708661
        },
        {
          "duration": 0.08333324999999547,
          "durationTicks": 24,
          "midi": 71,
          "name": "B4",
          "ticks": 31056,
          "time": 107.8332255,
          "velocity": 0.7165354330708661
        },
        {
          "duration": 0.08333325000000968,
          "durationTicks": 24,
          "midi": 74,
          "name": "D5",
          "ticks": 31080,
          "time": 107.91655875,
          "velocity": 0.7165354330708661
        },
        {
          "duration": 0.08333324999999547,
          "durationTicks": 24,
          "midi": 76,
          "name": "E5",
          "ticks": 31104,
          "time": 107.999892,
          "velocity": 0.7165354330708661
        },
        {
          "duration": 0.08333324999999547,
          "durationTicks": 24,
          "midi": 77,
          "name": "F5",
          "ticks": 31128,
          "time": 108.08322525,
          "velocity": 0.6929133858267716
        },
        {
          "duration": 0.08333325000000968,
          "durationTicks": 24,
          "midi": 74,
          "name": "D5",
          "ticks": 31152,
          "time": 108.1665585,
          "velocity": 0.6535433070866141
        },
        {
          "duration": 0.08333324999999547,
          "durationTicks": 24,
          "midi": 69,
          "name": "A4",
          "ticks": 31176,
          "time": 108.24989175,
          "velocity": 0.6141732283464567
        },
        {
          "duration": 0.08333324999999547,
          "durationTicks": 24,
          "midi": 74,
          "name": "D5",
          "ticks": 31200,
          "time": 108.333225,
          "velocity": 0.5669291338582677
        },
        {
          "duration": 0.08333325000000968,
          "durationTicks": 24,
          "midi": 69,
          "name": "A4",
          "ticks": 31224,
          "time": 108.41655825,
          "velocity": 0.5275590551181102
        },
        {
          "duration": 0.08333324999999547,
          "durationTicks": 24,
          "midi": 65,
          "name": "F4",
          "ticks": 31248,
          "time": 108.4998915,
          "velocity": 0.4881889763779528
        },
        {
          "duration": 0.08333324999999547,
          "durationTicks": 24,
          "midi": 69,
          "name": "A4",
          "ticks": 31272,
          "time": 108.58322475,
          "velocity": 0.44881889763779526
        },
        {
          "duration": 0.08333324999999547,
          "durationTicks": 24,
          "midi": 61,
          "name": "C#4",
          "ticks": 31488,
          "time": 109.333224,
          "velocity": 0.7165354330708661
        },
        {
          "duration": 0.08333324999999547,
          "durationTicks": 24,
          "midi": 64,
          "name": "E4",
          "ticks": 31512,
          "time": 109.41655725,
          "velocity": 0.7165354330708661
        },
        {
          "duration": 0.08333325000000968,
          "durationTicks": 24,
          "midi": 69,
          "name": "A4",
          "ticks": 31536,
          "time": 109.49989049999999,
          "velocity": 0.7165354330708661
        },
        {
          "duration": 0.08333324999999547,
          "durationTicks": 24,
          "midi": 71,
          "name": "B4",
          "ticks": 31560,
          "time": 109.58322375,
          "velocity": 0.7165354330708661
        },
        {
          "duration": 0.08333324999999547,
          "durationTicks": 24,
          "midi": 76,
          "name": "E5",
          "ticks": 31584,
          "time": 109.666557,
          "velocity": 0.7165354330708661
        },
        {
          "duration": 0.08333325000000968,
          "durationTicks": 24,
          "midi": 71,
          "name": "B4",
          "ticks": 31608,
          "time": 109.74989024999999,
          "velocity": 0.7165354330708661
        },
        {
          "duration": 0.08333324999999547,
          "durationTicks": 24,
          "midi": 69,
          "name": "A4",
          "ticks": 31632,
          "time": 109.8332235,
          "velocity": 0.7165354330708661
        },
        {
          "duration": 0.08333324999999547,
          "durationTicks": 24,
          "midi": 59,
          "name": "B3",
          "ticks": 31656,
          "time": 109.91655675,
          "velocity": 0.7165354330708661
        },
        {
          "duration": 0.08333325000000968,
          "durationTicks": 24,
          "midi": 64,
          "name": "E4",
          "ticks": 31680,
          "time": 109.99989,
          "velocity": 0.7165354330708661
        },
        {
          "duration": 0.08333324999999547,
          "durationTicks": 24,
          "midi": 69,
          "name": "A4",
          "ticks": 31704,
          "time": 110.08322325,
          "velocity": 0.7165354330708661
        },
        {
          "duration": 0.08333324999999547,
          "durationTicks": 24,
          "midi": 71,
          "name": "B4",
          "ticks": 31728,
          "time": 110.1665565,
          "velocity": 0.7165354330708661
        },
        {
          "duration": 0.08333325000000968,
          "durationTicks": 24,
          "midi": 76,
          "name": "E5",
          "ticks": 31752,
          "time": 110.24988975,
          "velocity": 0.7165354330708661
        },
        {
          "duration": 0.08333324999999547,
          "durationTicks": 24,
          "midi": 81,
          "name": "A5",
          "ticks": 31776,
          "time": 110.333223,
          "velocity": 0.7165354330708661
        },
        {
          "duration": 0.08333324999999547,
          "durationTicks": 24,
          "midi": 76,
          "name": "E5",
          "ticks": 31800,
          "time": 110.41655625,
          "velocity": 0.7165354330708661
        },
        {
          "duration": 0.08333324999999547,
          "durationTicks": 24,
          "midi": 69,
          "name": "A4",
          "ticks": 31824,
          "time": 110.4998895,
          "velocity": 0.7165354330708661
        },
        {
          "duration": 0.08333325000000968,
          "durationTicks": 24,
          "midi": 61,
          "name": "C#4",
          "ticks": 31848,
          "time": 110.58322274999999,
          "velocity": 0.7165354330708661
        },
        {
          "duration": 0.08333324999999547,
          "durationTicks": 24,
          "midi": 66,
          "name": "F#4",
          "ticks": 31872,
          "time": 110.666556,
          "velocity": 0.7165354330708661
        },
        {
          "duration": 0.08333324999999547,
          "durationTicks": 24,
          "midi": 69,
          "name": "A4",
          "ticks": 31896,
          "time": 110.74988925,
          "velocity": 0.7165354330708661
        },
        {
          "duration": 0.08333325000000968,
          "durationTicks": 24,
          "midi": 73,
          "name": "C#5",
          "ticks": 31920,
          "time": 110.83322249999999,
          "velocity": 0.7165354330708661
        },
        {
          "duration": 0.08333324999999547,
          "durationTicks": 24,
          "midi": 76,
          "name": "E5",
          "ticks": 31944,
          "time": 110.91655575,
          "velocity": 0.7165354330708661
        },
        {
          "duration": 0.08333324999999547,
          "durationTicks": 24,
          "midi": 83,
          "name": "B5",
          "ticks": 31968,
          "time": 110.999889,
          "velocity": 0.7165354330708661
        },
        {
          "duration": 0.08333325000000968,
          "durationTicks": 24,
          "midi": 76,
          "name": "E5",
          "ticks": 31992,
          "time": 111.08322224999999,
          "velocity": 0.7165354330708661
        },
        {
          "duration": 0.08333324999999547,
          "durationTicks": 24,
          "midi": 71,
          "name": "B4",
          "ticks": 32016,
          "time": 111.1665555,
          "velocity": 0.7165354330708661
        },
        {
          "duration": 0.08333324999999547,
          "durationTicks": 24,
          "midi": 64,
          "name": "E4",
          "ticks": 32040,
          "time": 111.24988875,
          "velocity": 0.7165354330708661
        },
        {
          "duration": 0.08333325000000968,
          "durationTicks": 24,
          "midi": 69,
          "name": "A4",
          "ticks": 32064,
          "time": 111.33322199999999,
          "velocity": 0.7165354330708661
        },
        {
          "duration": 0.08333324999999547,
          "durationTicks": 24,
          "midi": 73,
          "name": "C#5",
          "ticks": 32088,
          "time": 111.41655525,
          "velocity": 0.7165354330708661
        },
        {
          "duration": 0.08333324999999547,
          "durationTicks": 24,
          "midi": 78,
          "name": "F#5",
          "ticks": 32112,
          "time": 111.4998885,
          "velocity": 0.7165354330708661
        },
        {
          "duration": 0.08333325000000968,
          "durationTicks": 24,
          "midi": 81,
          "name": "A5",
          "ticks": 32136,
          "time": 111.58322174999999,
          "velocity": 0.7165354330708661
        },
        {
          "duration": 0.08333324999999547,
          "durationTicks": 24,
          "midi": 85,
          "name": "C#6",
          "ticks": 32160,
          "time": 111.666555,
          "velocity": 0.7165354330708661
        },
        {
          "duration": 0.08333324999999547,
          "durationTicks": 24,
          "midi": 81,
          "name": "A5",
          "ticks": 32184,
          "time": 111.74988825,
          "velocity": 0.7165354330708661
        },
        {
          "duration": 0.08333325000000968,
          "durationTicks": 24,
          "midi": 76,
          "name": "E5",
          "ticks": 32208,
          "time": 111.8332215,
          "velocity": 0.7086614173228346
        },
        {
          "duration": 0.08333324999999547,
          "durationTicks": 24,
          "midi": 69,
          "name": "A4",
          "ticks": 32232,
          "time": 111.91655475,
          "velocity": 0.7086614173228346
        },
        {
          "duration": 0.08333324999999547,
          "durationTicks": 24,
          "midi": 81,
          "name": "A5",
          "ticks": 32256,
          "time": 111.999888,
          "velocity": 0.7165354330708661
        },
        {
          "duration": 0.08333324999999547,
          "durationTicks": 24,
          "midi": 85,
          "name": "C#6",
          "ticks": 32256,
          "time": 111.999888,
          "velocity": 0.7165354330708661
        },
        {
          "duration": 0.08333325000000968,
          "durationTicks": 24,
          "midi": 83,
          "name": "B5",
          "ticks": 32280,
          "time": 112.08322125,
          "velocity": 0.7165354330708661
        },
        {
          "duration": 0.08333325000000968,
          "durationTicks": 24,
          "midi": 86,
          "name": "D6",
          "ticks": 32280,
          "time": 112.08322125,
          "velocity": 0.7165354330708661
        },
        {
          "duration": 0.08333324999999547,
          "durationTicks": 24,
          "midi": 74,
          "name": "D5",
          "ticks": 32304,
          "time": 112.1665545,
          "velocity": 0.7165354330708661
        },
        {
          "duration": 0.08333324999999547,
          "durationTicks": 24,
          "midi": 83,
          "name": "B5",
          "ticks": 32328,
          "time": 112.24988775,
          "velocity": 0.7165354330708661
        },
        {
          "duration": 0.08333324999999547,
          "durationTicks": 24,
          "midi": 86,
          "name": "D6",
          "ticks": 32328,
          "time": 112.24988775,
          "velocity": 0.7165354330708661
        },
        {
          "duration": 0.08333324999999547,
          "durationTicks": 24,
          "midi": 81,
          "name": "A5",
          "ticks": 32352,
          "time": 112.333221,
          "velocity": 0.7165354330708661
        },
        {
          "duration": 0.08333324999999547,
          "durationTicks": 24,
          "midi": 85,
          "name": "C#6",
          "ticks": 32352,
          "time": 112.333221,
          "velocity": 0.7165354330708661
        },
        {
          "duration": 0.08333325000000968,
          "durationTicks": 24,
          "midi": 73,
          "name": "C#5",
          "ticks": 32376,
          "time": 112.41655424999999,
          "velocity": 0.7165354330708661
        },
        {
          "duration": 0.08333324999999547,
          "durationTicks": 24,
          "midi": 81,
          "name": "A5",
          "ticks": 32400,
          "time": 112.4998875,
          "velocity": 0.7165354330708661
        },
        {
          "duration": 0.08333324999999547,
          "durationTicks": 24,
          "midi": 85,
          "name": "C#6",
          "ticks": 32400,
          "time": 112.4998875,
          "velocity": 0.7165354330708661
        },
        {
          "duration": 0.08333324999999547,
          "durationTicks": 24,
          "midi": 80,
          "name": "G#5",
          "ticks": 32424,
          "time": 112.58322075,
          "velocity": 0.7165354330708661
        },
        {
          "duration": 0.08333324999999547,
          "durationTicks": 24,
          "midi": 83,
          "name": "B5",
          "ticks": 32424,
          "time": 112.58322075,
          "velocity": 0.7165354330708661
        },
        {
          "duration": 0.08333325000000968,
          "durationTicks": 24,
          "midi": 71,
          "name": "B4",
          "ticks": 32448,
          "time": 112.66655399999999,
          "velocity": 0.7165354330708661
        },
        {
          "duration": 0.08333324999999547,
          "durationTicks": 24,
          "midi": 80,
          "name": "G#5",
          "ticks": 32472,
          "time": 112.74988725,
          "velocity": 0.7165354330708661
        },
        {
          "duration": 0.08333324999999547,
          "durationTicks": 24,
          "midi": 83,
          "name": "B5",
          "ticks": 32472,
          "time": 112.74988725,
          "velocity": 0.7165354330708661
        },
        {
          "duration": 0.08333324999999547,
          "durationTicks": 24,
          "midi": 78,
          "name": "F#5",
          "ticks": 32496,
          "time": 112.8332205,
          "velocity": 0.7165354330708661
        },
        {
          "duration": 0.08333324999999547,
          "durationTicks": 24,
          "midi": 81,
          "name": "A5",
          "ticks": 32496,
          "time": 112.8332205,
          "velocity": 0.7165354330708661
        },
        {
          "duration": 0.08333325000000968,
          "durationTicks": 24,
          "midi": 78,
          "name": "F#5",
          "ticks": 32520,
          "time": 112.91655374999999,
          "velocity": 0.7165354330708661
        },
        {
          "duration": 0.08333325000000968,
          "durationTicks": 24,
          "midi": 81,
          "name": "A5",
          "ticks": 32520,
          "time": 112.91655374999999,
          "velocity": 0.7165354330708661
        },
        {
          "duration": 0.08333324999999547,
          "durationTicks": 24,
          "midi": 83,
          "name": "B5",
          "ticks": 32544,
          "time": 112.999887,
          "velocity": 0.7165354330708661
        },
        {
          "duration": 0.08333324999999547,
          "durationTicks": 24,
          "midi": 85,
          "name": "C#6",
          "ticks": 32568,
          "time": 113.08322025,
          "velocity": 0.7165354330708661
        },
        {
          "duration": 0.08333325000000968,
          "durationTicks": 24,
          "midi": 86,
          "name": "D6",
          "ticks": 32592,
          "time": 113.16655349999999,
          "velocity": 0.7165354330708661
        },
        {
          "duration": 0.08333324999999547,
          "durationTicks": 24,
          "midi": 88,
          "name": "E6",
          "ticks": 32616,
          "time": 113.24988675,
          "velocity": 0.7165354330708661
        },
        {
          "duration": 0.08333324999999547,
          "durationTicks": 24,
          "midi": 86,
          "name": "D6",
          "ticks": 32640,
          "time": 113.33322,
          "velocity": 0.6771653543307087
        },
        {
          "duration": 0.08333324999999547,
          "durationTicks": 24,
          "midi": 83,
          "name": "B5",
          "ticks": 32640,
          "time": 113.33322,
          "velocity": 0.6771653543307087
        },
        {
          "duration": 0.08333325000000968,
          "durationTicks": 24,
          "midi": 81,
          "name": "A5",
          "ticks": 32664,
          "time": 113.41655324999999,
          "velocity": 0.6535433070866141
        },
        {
          "duration": 0.08333325000000968,
          "durationTicks": 24,
          "midi": 85,
          "name": "C#6",
          "ticks": 32664,
          "time": 113.41655324999999,
          "velocity": 0.6535433070866141
        },
        {
          "duration": 0.08333324999999547,
          "durationTicks": 24,
          "midi": 81,
          "name": "A5",
          "ticks": 32688,
          "time": 113.4998865,
          "velocity": 0.6299212598425197
        },
        {
          "duration": 0.08333324999999547,
          "durationTicks": 24,
          "midi": 78,
          "name": "F#5",
          "ticks": 32688,
          "time": 113.4998865,
          "velocity": 0.6299212598425197
        },
        {
          "duration": 0.08333324999999547,
          "durationTicks": 24,
          "midi": 76,
          "name": "E5",
          "ticks": 32712,
          "time": 113.58321975,
          "velocity": 0.6062992125984252
        },
        {
          "duration": 0.08333324999999547,
          "durationTicks": 24,
          "midi": 73,
          "name": "C#5",
          "ticks": 32712,
          "time": 113.58321975,
          "velocity": 0.6062992125984252
        },
        {
          "duration": 0.08333325000000968,
          "durationTicks": 24,
          "midi": 71,
          "name": "B4",
          "ticks": 32736,
          "time": 113.666553,
          "velocity": 0.5748031496062992
        },
        {
          "duration": 0.08333325000000968,
          "durationTicks": 24,
          "midi": 74,
          "name": "D5",
          "ticks": 32736,
          "time": 113.666553,
          "velocity": 0.5748031496062992
        },
        {
          "duration": 0.08333324999999547,
          "durationTicks": 24,
          "midi": 73,
          "name": "C#5",
          "ticks": 32760,
          "time": 113.74988625,
          "velocity": 0.5511811023622047
        },
        {
          "duration": 0.08333324999999547,
          "durationTicks": 24,
          "midi": 69,
          "name": "A4",
          "ticks": 32760,
          "time": 113.74988625,
          "velocity": 0.5511811023622047
        },
        {
          "duration": 0.08333324999999547,
          "durationTicks": 24,
          "midi": 66,
          "name": "F#4",
          "ticks": 32784,
          "time": 113.8332195,
          "velocity": 0.5275590551181102
        },
        {
          "duration": 0.08333324999999547,
          "durationTicks": 24,
          "midi": 69,
          "name": "A4",
          "ticks": 32784,
          "time": 113.8332195,
          "velocity": 0.5275590551181102
        },
        {
          "duration": 0.08333325000000968,
          "durationTicks": 24,
          "midi": 64,
          "name": "E4",
          "ticks": 32808,
          "time": 113.91655275,
          "velocity": 0.5039370078740157
        },
        {
          "duration": 0.08333325000000968,
          "durationTicks": 24,
          "midi": 61,
          "name": "C#4",
          "ticks": 32808,
          "time": 113.91655275,
          "velocity": 0.5039370078740157
        },
        {
          "duration": 0.08333324999999547,
          "durationTicks": 24,
          "midi": 59,
          "name": "B3",
          "ticks": 32832,
          "time": 113.999886,
          "velocity": 0.48031496062992124
        },
        {
          "duration": 0.08333324999999547,
          "durationTicks": 24,
          "midi": 62,
          "name": "D4",
          "ticks": 32832,
          "time": 113.999886,
          "velocity": 0.48031496062992124
        },
        {
          "duration": 0.08333324999999547,
          "durationTicks": 24,
          "midi": 57,
          "name": "A3",
          "ticks": 32856,
          "time": 114.08321925,
          "velocity": 0.4566929133858268
        },
        {
          "duration": 0.08333324999999547,
          "durationTicks": 24,
          "midi": 61,
          "name": "C#4",
          "ticks": 32856,
          "time": 114.08321925,
          "velocity": 0.4566929133858268
        },
        {
          "duration": 0.08333324999999547,
          "durationTicks": 24,
          "midi": 54,
          "name": "F#3",
          "ticks": 32880,
          "time": 114.1665525,
          "velocity": 0.4251968503937008
        },
        {
          "duration": 0.08333324999999547,
          "durationTicks": 24,
          "midi": 57,
          "name": "A3",
          "ticks": 32880,
          "time": 114.1665525,
          "velocity": 0.4251968503937008
        },
        {
          "duration": 0.08333325000000968,
          "durationTicks": 24,
          "midi": 49,
          "name": "C#3",
          "ticks": 32904,
          "time": 114.24988574999999,
          "velocity": 0.4015748031496063
        },
        {
          "duration": 0.08333325000000968,
          "durationTicks": 24,
          "midi": 52,
          "name": "E3",
          "ticks": 32904,
          "time": 114.24988574999999,
          "velocity": 0.4015748031496063
        },
        {
          "duration": 0.08333324999999547,
          "durationTicks": 24,
          "midi": 64,
          "name": "E4",
          "ticks": 33024,
          "time": 114.666552,
          "velocity": 0.7165354330708661
        },
        {
          "duration": 0.08333325000000968,
          "durationTicks": 24,
          "midi": 69,
          "name": "A4",
          "ticks": 33048,
          "time": 114.74988524999999,
          "velocity": 0.7165354330708661
        },
        {
          "duration": 0.08333324999999547,
          "durationTicks": 24,
          "midi": 71,
          "name": "B4",
          "ticks": 33072,
          "time": 114.8332185,
          "velocity": 0.7165354330708661
        },
        {
          "duration": 0.08333324999999547,
          "durationTicks": 24,
          "midi": 76,
          "name": "E5",
          "ticks": 33096,
          "time": 114.91655175,
          "velocity": 0.7165354330708661
        },
        {
          "duration": 0.08333325000000968,
          "durationTicks": 24,
          "midi": 81,
          "name": "A5",
          "ticks": 33120,
          "time": 114.99988499999999,
          "velocity": 0.7165354330708661
        },
        {
          "duration": 0.08333324999999547,
          "durationTicks": 24,
          "midi": 76,
          "name": "E5",
          "ticks": 33144,
          "time": 115.08321825,
          "velocity": 0.7165354330708661
        },
        {
          "duration": 0.08333324999999547,
          "durationTicks": 24,
          "midi": 69,
          "name": "A4",
          "ticks": 33168,
          "time": 115.1665515,
          "velocity": 0.7165354330708661
        },
        {
          "duration": 0.08333325000000968,
          "durationTicks": 24,
          "midi": 59,
          "name": "B3",
          "ticks": 33192,
          "time": 115.24988474999999,
          "velocity": 0.7165354330708661
        },
        {
          "duration": 0.08333324999999547,
          "durationTicks": 24,
          "midi": 64,
          "name": "E4",
          "ticks": 33216,
          "time": 115.333218,
          "velocity": 0.7165354330708661
        },
        {
          "duration": 0.08333324999999547,
          "durationTicks": 24,
          "midi": 69,
          "name": "A4",
          "ticks": 33240,
          "time": 115.41655125,
          "velocity": 0.7165354330708661
        },
        {
          "duration": 0.08333325000000968,
          "durationTicks": 24,
          "midi": 71,
          "name": "B4",
          "ticks": 33264,
          "time": 115.4998845,
          "velocity": 0.7165354330708661
        },
        {
          "duration": 0.08333324999999547,
          "durationTicks": 24,
          "midi": 76,
          "name": "E5",
          "ticks": 33288,
          "time": 115.58321775,
          "velocity": 0.7165354330708661
        },
        {
          "duration": 0.08333324999999547,
          "durationTicks": 24,
          "midi": 81,
          "name": "A5",
          "ticks": 33312,
          "time": 115.666551,
          "velocity": 0.7165354330708661
        },
        {
          "duration": 0.08333325000000968,
          "durationTicks": 24,
          "midi": 76,
          "name": "E5",
          "ticks": 33336,
          "time": 115.74988425,
          "velocity": 0.7165354330708661
        },
        {
          "duration": 0.08333324999999547,
          "durationTicks": 24,
          "midi": 69,
          "name": "A4",
          "ticks": 33360,
          "time": 115.8332175,
          "velocity": 0.7165354330708661
        },
        {
          "duration": 0.08333324999999547,
          "durationTicks": 24,
          "midi": 61,
          "name": "C#4",
          "ticks": 33384,
          "time": 115.91655075,
          "velocity": 0.7165354330708661
        },
        {
          "duration": 0.08333324999999547,
          "durationTicks": 24,
          "midi": 64,
          "name": "E4",
          "ticks": 33408,
          "time": 115.999884,
          "velocity": 0.7165354330708661
        },
        {
          "duration": 0.08333325000000968,
          "durationTicks": 24,
          "midi": 69,
          "name": "A4",
          "ticks": 33432,
          "time": 116.08321724999999,
          "velocity": 0.7165354330708661
        },
        {
          "duration": 0.08333324999999547,
          "durationTicks": 24,
          "midi": 71,
          "name": "B4",
          "ticks": 33456,
          "time": 116.1665505,
          "velocity": 0.7165354330708661
        },
        {
          "duration": 0.08333324999999547,
          "durationTicks": 24,
          "midi": 76,
          "name": "E5",
          "ticks": 33480,
          "time": 116.24988375,
          "velocity": 0.7165354330708661
        },
        {
          "duration": 0.08333325000000968,
          "durationTicks": 24,
          "midi": 83,
          "name": "B5",
          "ticks": 33504,
          "time": 116.33321699999999,
          "velocity": 0.7165354330708661
        },
        {
          "duration": 0.08333324999999547,
          "durationTicks": 24,
          "midi": 76,
          "name": "E5",
          "ticks": 33528,
          "time": 116.41655025,
          "velocity": 0.7165354330708661
        },
        {
          "duration": 0.08333324999999547,
          "durationTicks": 24,
          "midi": 71,
          "name": "B4",
          "ticks": 33552,
          "time": 116.4998835,
          "velocity": 0.7165354330708661
        },
        {
          "duration": 0.08333325000000968,
          "durationTicks": 24,
          "midi": 64,
          "name": "E4",
          "ticks": 33576,
          "time": 116.58321674999999,
          "velocity": 0.7165354330708661
        },
        {
          "duration": 0.08333324999999547,
          "durationTicks": 24,
          "midi": 66,
          "name": "F#4",
          "ticks": 33600,
          "time": 116.66655,
          "velocity": 0.7165354330708661
        },
        {
          "duration": 0.08333324999999547,
          "durationTicks": 24,
          "midi": 69,
          "name": "A4",
          "ticks": 33624,
          "time": 116.74988325,
          "velocity": 0.7165354330708661
        },
        {
          "duration": 0.08333325000000968,
          "durationTicks": 24,
          "midi": 73,
          "name": "C#5",
          "ticks": 33648,
          "time": 116.83321649999999,
          "velocity": 0.7165354330708661
        },
        {
          "duration": 0.08333324999999547,
          "durationTicks": 24,
          "midi": 76,
          "name": "E5",
          "ticks": 33672,
          "time": 116.91654975,
          "velocity": 0.7165354330708661
        },
        {
          "duration": 0.08333324999999547,
          "durationTicks": 24,
          "midi": 83,
          "name": "B5",
          "ticks": 33696,
          "time": 116.999883,
          "velocity": 0.7165354330708661
        },
        {
          "duration": 0.08333325000000968,
          "durationTicks": 24,
          "midi": 76,
          "name": "E5",
          "ticks": 33720,
          "time": 117.08321624999999,
          "velocity": 0.7165354330708661
        },
        {
          "duration": 0.08333324999999547,
          "durationTicks": 24,
          "midi": 71,
          "name": "B4",
          "ticks": 33744,
          "time": 117.1665495,
          "velocity": 0.7165354330708661
        },
        {
          "duration": 0.08333324999999547,
          "durationTicks": 24,
          "midi": 69,
          "name": "A4",
          "ticks": 33768,
          "time": 117.24988275,
          "velocity": 0.7165354330708661
        },
        {
          "duration": 0.08333325000000968,
          "durationTicks": 24,
          "midi": 85,
          "name": "C#6",
          "ticks": 33792,
          "time": 117.333216,
          "velocity": 0.7165354330708661
        },
        {
          "duration": 0.08333324999999547,
          "durationTicks": 24,
          "midi": 86,
          "name": "D6",
          "ticks": 33816,
          "time": 117.41654925,
          "velocity": 0.7165354330708661
        },
        {
          "duration": 0.08333324999999547,
          "durationTicks": 24,
          "midi": 81,
          "name": "A5",
          "ticks": 33840,
          "time": 117.4998825,
          "velocity": 0.7165354330708661
        },
        {
          "duration": 0.08333325000000968,
          "durationTicks": 24,
          "midi": 78,
          "name": "F#5",
          "ticks": 33864,
          "time": 117.58321575,
          "velocity": 0.7165354330708661
        },
        {
          "duration": 0.08333324999999547,
          "durationTicks": 24,
          "midi": 76,
          "name": "E5",
          "ticks": 33888,
          "time": 117.666549,
          "velocity": 0.7165354330708661
        },
        {
          "duration": 0.08333324999999547,
          "durationTicks": 24,
          "midi": 74,
          "name": "D5",
          "ticks": 33912,
          "time": 117.74988225,
          "velocity": 0.7165354330708661
        },
        {
          "duration": 0.08333324999999547,
          "durationTicks": 24,
          "midi": 73,
          "name": "C#5",
          "ticks": 33936,
          "time": 117.8332155,
          "velocity": 0.7165354330708661
        },
        {
          "duration": 0.08333325000000968,
          "durationTicks": 24,
          "midi": 71,
          "name": "B4",
          "ticks": 33960,
          "time": 117.91654874999999,
          "velocity": 0.7165354330708661
        },
        {
          "duration": 0.08333324999999547,
          "durationTicks": 24,
          "midi": 66,
          "name": "F#4",
          "ticks": 33984,
          "time": 117.999882,
          "velocity": 0.7165354330708661
        },
        {
          "duration": 0.08333324999999547,
          "durationTicks": 24,
          "midi": 64,
          "name": "E4",
          "ticks": 34008,
          "time": 118.08321525,
          "velocity": 0.7165354330708661
        },
        {
          "duration": 0.08333325000000968,
          "durationTicks": 24,
          "midi": 61,
          "name": "C#4",
          "ticks": 34032,
          "time": 118.16654849999999,
          "velocity": 0.7165354330708661
        },
        {
          "duration": 0.08333324999999547,
          "durationTicks": 24,
          "midi": 62,
          "name": "D4",
          "ticks": 34056,
          "time": 118.24988175,
          "velocity": 0.7165354330708661
        },
        {
          "duration": 0.08333324999999547,
          "durationTicks": 24,
          "midi": 64,
          "name": "E4",
          "ticks": 34080,
          "time": 118.333215,
          "velocity": 0.7165354330708661
        },
        {
          "duration": 0.08333325000000968,
          "durationTicks": 24,
          "midi": 66,
          "name": "F#4",
          "ticks": 34104,
          "time": 118.41654824999999,
          "velocity": 0.7165354330708661
        },
        {
          "duration": 0.08333324999999547,
          "durationTicks": 24,
          "midi": 71,
          "name": "B4",
          "ticks": 34128,
          "time": 118.4998815,
          "velocity": 0.7165354330708661
        },
        {
          "duration": 0.08333324999999547,
          "durationTicks": 24,
          "midi": 74,
          "name": "D5",
          "ticks": 34152,
          "time": 118.58321475,
          "velocity": 0.7165354330708661
        },
        {
          "duration": 0.07986103124999033,
          "durationTicks": 23,
          "midi": 59,
          "name": "B3",
          "ticks": 35328,
          "time": 122.666544,
          "velocity": 0.7086614173228346
        },
        {
          "duration": 0.07986103124999033,
          "durationTicks": 23,
          "midi": 64,
          "name": "E4",
          "ticks": 35352,
          "time": 122.74987725,
          "velocity": 0.7086614173228346
        },
        {
          "duration": 0.07986103124999033,
          "durationTicks": 23,
          "midi": 66,
          "name": "F#4",
          "ticks": 35376,
          "time": 122.83321049999999,
          "velocity": 0.7086614173228346
        },
        {
          "duration": 0.07986103124999033,
          "durationTicks": 23,
          "midi": 69,
          "name": "A4",
          "ticks": 35400,
          "time": 122.91654375,
          "velocity": 0.7086614173228346
        },
        {
          "duration": 0.07986103124999033,
          "durationTicks": 23,
          "midi": 71,
          "name": "B4",
          "ticks": 35424,
          "time": 122.999877,
          "velocity": 0.7086614173228346
        },
        {
          "duration": 0.07986103124999033,
          "durationTicks": 23,
          "midi": 76,
          "name": "E5",
          "ticks": 35448,
          "time": 123.08321025,
          "velocity": 0.7086614173228346
        },
        {
          "duration": 0.07986103124999033,
          "durationTicks": 23,
          "midi": 78,
          "name": "F#5",
          "ticks": 35472,
          "time": 123.1665435,
          "velocity": 0.7086614173228346
        },
        {
          "duration": 0.07986103124999033,
          "durationTicks": 23,
          "midi": 81,
          "name": "A5",
          "ticks": 35496,
          "time": 123.24987675,
          "velocity": 0.7086614173228346
        },
        {
          "duration": 0.07986103124999033,
          "durationTicks": 23,
          "midi": 61,
          "name": "C#4",
          "ticks": 35520,
          "time": 123.33321,
          "velocity": 0.7086614173228346
        },
        {
          "duration": 0.07986103125000454,
          "durationTicks": 23,
          "midi": 64,
          "name": "E4",
          "ticks": 35544,
          "time": 123.41654324999999,
          "velocity": 0.7086614173228346
        },
        {
          "duration": 0.07986103124999033,
          "durationTicks": 23,
          "midi": 69,
          "name": "A4",
          "ticks": 35568,
          "time": 123.4998765,
          "velocity": 0.7086614173228346
        },
        {
          "duration": 0.07986103124999033,
          "durationTicks": 23,
          "midi": 71,
          "name": "B4",
          "ticks": 35592,
          "time": 123.58320975,
          "velocity": 0.7086614173228346
        },
        {
          "duration": 0.07986103125000454,
          "durationTicks": 23,
          "midi": 73,
          "name": "C#5",
          "ticks": 35616,
          "time": 123.66654299999999,
          "velocity": 0.7086614173228346
        },
        {
          "duration": 0.07986103124999033,
          "durationTicks": 23,
          "midi": 76,
          "name": "E5",
          "ticks": 35640,
          "time": 123.74987625,
          "velocity": 0.7086614173228346
        },
        {
          "duration": 0.07986103124999033,
          "durationTicks": 23,
          "midi": 85,
          "name": "C#6",
          "ticks": 35664,
          "time": 123.8332095,
          "velocity": 0.7086614173228346
        },
        {
          "duration": 0.07986103125000454,
          "durationTicks": 23,
          "midi": 83,
          "name": "B5",
          "ticks": 35688,
          "time": 123.91654274999999,
          "velocity": 0.7086614173228346
        },
        {
          "duration": 0.07986103124999033,
          "durationTicks": 23,
          "midi": 62,
          "name": "D4",
          "ticks": 35712,
          "time": 123.999876,
          "velocity": 0.7086614173228346
        },
        {
          "duration": 0.07986103124999033,
          "durationTicks": 23,
          "midi": 66,
          "name": "F#4",
          "ticks": 35736,
          "time": 124.08320925,
          "velocity": 0.7086614173228346
        },
        {
          "duration": 0.07986103125000454,
          "durationTicks": 23,
          "midi": 69,
          "name": "A4",
          "ticks": 35760,
          "time": 124.16654249999999,
          "velocity": 0.7086614173228346
        },
        {
          "duration": 0.07986103124999033,
          "durationTicks": 23,
          "midi": 73,
          "name": "C#5",
          "ticks": 35784,
          "time": 124.24987575,
          "velocity": 0.7086614173228346
        },
        {
          "duration": 0.07986103124999033,
          "durationTicks": 23,
          "midi": 74,
          "name": "D5",
          "ticks": 35808,
          "time": 124.333209,
          "velocity": 0.7086614173228346
        },
        {
          "duration": 0.07986103125000454,
          "durationTicks": 23,
          "midi": 78,
          "name": "F#5",
          "ticks": 35832,
          "time": 124.41654224999999,
          "velocity": 0.7086614173228346
        },
        {
          "duration": 0.07986103124999033,
          "durationTicks": 23,
          "midi": 81,
          "name": "A5",
          "ticks": 35856,
          "time": 124.4998755,
          "velocity": 0.7086614173228346
        },
        {
          "duration": 0.07986103124999033,
          "durationTicks": 23,
          "midi": 85,
          "name": "C#6",
          "ticks": 35880,
          "time": 124.58320875,
          "velocity": 0.7086614173228346
        },
        {
          "duration": 0.05208328125000605,
          "durationTicks": 15,
          "midi": 88,
          "name": "E6",
          "ticks": 35904,
          "time": 124.66654199999999,
          "velocity": 0.6929133858267716
        },
        {
          "duration": 0.05208328124999184,
          "durationTicks": 15,
          "midi": 83,
          "name": "B5",
          "ticks": 35920,
          "time": 124.7220975,
          "velocity": 0.6456692913385826
        },
        {
          "duration": 0.05208328125000605,
          "durationTicks": 15,
          "midi": 80,
          "name": "G#5",
          "ticks": 35936,
          "time": 124.77765299999999,
          "velocity": 0.5984251968503937
        },
        {
          "duration": 0.05208328124999184,
          "durationTicks": 15,
          "midi": 76,
          "name": "E5",
          "ticks": 35952,
          "time": 124.8332085,
          "velocity": 0.5511811023622047
        },
        {
          "duration": 0.05208328124999184,
          "durationTicks": 15,
          "midi": 71,
          "name": "B4",
          "ticks": 35968,
          "time": 124.88876400000001,
          "velocity": 0.5039370078740157
        },
        {
          "duration": 0.05208328124999184,
          "durationTicks": 15,
          "midi": 68,
          "name": "G#4",
          "ticks": 35984,
          "time": 124.94431949999999,
          "velocity": 0.4566929133858268
        },
        {
          "duration": 0.05208328124999184,
          "durationTicks": 15,
          "midi": 64,
          "name": "E4",
          "ticks": 36000,
          "time": 124.999875,
          "velocity": 0.4015748031496063
        },
        {
          "duration": 0.05208328125000605,
          "durationTicks": 15,
          "midi": 59,
          "name": "B3",
          "ticks": 36016,
          "time": 125.0554305,
          "velocity": 0.3543307086614173
        },
        {
          "duration": 0.05208328124999184,
          "durationTicks": 15,
          "midi": 56,
          "name": "G#3",
          "ticks": 36032,
          "time": 125.110986,
          "velocity": 0.30708661417322836
        },
        {
          "duration": 0.05208328125000605,
          "durationTicks": 15,
          "midi": 52,
          "name": "E3",
          "ticks": 36048,
          "time": 125.1665415,
          "velocity": 0.25984251968503935
        },
        {
          "duration": 0.05208328124999184,
          "durationTicks": 15,
          "midi": 47,
          "name": "B2",
          "ticks": 36064,
          "time": 125.222097,
          "velocity": 0.2125984251968504
        },
        {
          "duration": 0.05208328125000605,
          "durationTicks": 15,
          "midi": 44,
          "name": "G#2",
          "ticks": 36080,
          "time": 125.27765249999999,
          "velocity": 0.16535433070866143
        },
        {
          "duration": 0.04166662500000484,
          "durationTicks": 12,
          "midi": 59,
          "name": "B3",
          "ticks": 36192,
          "time": 125.666541,
          "velocity": 0.6062992125984252
        },
        {
          "duration": 0.04166662500000484,
          "durationTicks": 12,
          "midi": 64,
          "name": "E4",
          "ticks": 36192,
          "time": 125.666541,
          "velocity": 0.6062992125984252
        },
        {
          "duration": 0.04166662499999063,
          "durationTicks": 12,
          "midi": 68,
          "name": "G#4",
          "ticks": 36204,
          "time": 125.708207625,
          "velocity": 0.6062992125984252
        },
        {
          "duration": 0.04166662499999063,
          "durationTicks": 12,
          "midi": 61,
          "name": "C#4",
          "ticks": 36204,
          "time": 125.708207625,
          "velocity": 0.6062992125984252
        },
        {
          "duration": 0.04166662500000484,
          "durationTicks": 12,
          "midi": 71,
          "name": "B4",
          "ticks": 36216,
          "time": 125.74987424999999,
          "velocity": 0.6062992125984252
        },
        {
          "duration": 0.04166662500000484,
          "durationTicks": 12,
          "midi": 64,
          "name": "E4",
          "ticks": 36216,
          "time": 125.74987424999999,
          "velocity": 0.6062992125984252
        },
        {
          "duration": 0.04166662500000484,
          "durationTicks": 12,
          "midi": 73,
          "name": "C#5",
          "ticks": 36228,
          "time": 125.791540875,
          "velocity": 0.6062992125984252
        },
        {
          "duration": 0.04166662500000484,
          "durationTicks": 12,
          "midi": 68,
          "name": "G#4",
          "ticks": 36228,
          "time": 125.791540875,
          "velocity": 0.6062992125984252
        },
        {
          "duration": 0.04166662499999063,
          "durationTicks": 12,
          "midi": 76,
          "name": "E5",
          "ticks": 36240,
          "time": 125.8332075,
          "velocity": 0.6062992125984252
        },
        {
          "duration": 0.04166662499999063,
          "durationTicks": 12,
          "midi": 71,
          "name": "B4",
          "ticks": 36240,
          "time": 125.8332075,
          "velocity": 0.6062992125984252
        },
        {
          "duration": 0.04166662500000484,
          "durationTicks": 12,
          "midi": 80,
          "name": "G#5",
          "ticks": 36252,
          "time": 125.87487412499999,
          "velocity": 0.6062992125984252
        },
        {
          "duration": 0.04166662500000484,
          "durationTicks": 12,
          "midi": 73,
          "name": "C#5",
          "ticks": 36252,
          "time": 125.87487412499999,
          "velocity": 0.6062992125984252
        },
        {
          "duration": 0.04166662500000484,
          "durationTicks": 12,
          "midi": 76,
          "name": "E5",
          "ticks": 36264,
          "time": 125.91654075,
          "velocity": 0.6062992125984252
        },
        {
          "duration": 0.04166662500000484,
          "durationTicks": 12,
          "midi": 81,
          "name": "A5",
          "ticks": 36264,
          "time": 125.91654075,
          "velocity": 0.6062992125984252
        },
        {
          "duration": 0.04166662500000484,
          "durationTicks": 12,
          "midi": 64,
          "name": "E4",
          "ticks": 36288,
          "time": 125.99987399999999,
          "velocity": 0.6062992125984252
        },
        {
          "duration": 0.04166662500000484,
          "durationTicks": 12,
          "midi": 59,
          "name": "B3",
          "ticks": 36288,
          "time": 125.99987399999999,
          "velocity": 0.6062992125984252
        },
        {
          "duration": 0.04166662500000484,
          "durationTicks": 12,
          "midi": 61,
          "name": "C#4",
          "ticks": 36300,
          "time": 126.041540625,
          "velocity": 0.6062992125984252
        },
        {
          "duration": 0.04166662500000484,
          "durationTicks": 12,
          "midi": 68,
          "name": "G#4",
          "ticks": 36300,
          "time": 126.041540625,
          "velocity": 0.6062992125984252
        },
        {
          "duration": 0.04166662499999063,
          "durationTicks": 12,
          "midi": 71,
          "name": "B4",
          "ticks": 36312,
          "time": 126.08320725,
          "velocity": 0.6062992125984252
        },
        {
          "duration": 0.04166662499999063,
          "durationTicks": 12,
          "midi": 64,
          "name": "E4",
          "ticks": 36312,
          "time": 126.08320725,
          "velocity": 0.6062992125984252
        },
        {
          "duration": 0.04166662500000484,
          "durationTicks": 12,
          "midi": 68,
          "name": "G#4",
          "ticks": 36324,
          "time": 126.12487387499999,
          "velocity": 0.6062992125984252
        },
        {
          "duration": 0.04166662500000484,
          "durationTicks": 12,
          "midi": 73,
          "name": "C#5",
          "ticks": 36324,
          "time": 126.12487387499999,
          "velocity": 0.6062992125984252
        },
        {
          "duration": 0.04166662500000484,
          "durationTicks": 12,
          "midi": 59,
          "name": "B3",
          "ticks": 36336,
          "time": 126.1665405,
          "velocity": 0.6062992125984252
        },
        {
          "duration": 0.04166662500000484,
          "durationTicks": 12,
          "midi": 64,
          "name": "E4",
          "ticks": 36336,
          "time": 126.1665405,
          "velocity": 0.6062992125984252
        },
        {
          "duration": 0.04166662499999063,
          "durationTicks": 12,
          "midi": 61,
          "name": "C#4",
          "ticks": 36348,
          "time": 126.208207125,
          "velocity": 0.6062992125984252
        },
        {
          "duration": 0.04166662499999063,
          "durationTicks": 12,
          "midi": 68,
          "name": "G#4",
          "ticks": 36348,
          "time": 126.208207125,
          "velocity": 0.6062992125984252
        },
        {
          "duration": 0.04166662500000484,
          "durationTicks": 12,
          "midi": 71,
          "name": "B4",
          "ticks": 36360,
          "time": 126.24987374999999,
          "velocity": 0.6062992125984252
        },
        {
          "duration": 0.04166662500000484,
          "durationTicks": 12,
          "midi": 64,
          "name": "E4",
          "ticks": 36360,
          "time": 126.24987374999999,
          "velocity": 0.6062992125984252
        },
        {
          "duration": 0.04166662500000484,
          "durationTicks": 12,
          "midi": 68,
          "name": "G#4",
          "ticks": 36372,
          "time": 126.291540375,
          "velocity": 0.6062992125984252
        },
        {
          "duration": 0.04166662500000484,
          "durationTicks": 12,
          "midi": 73,
          "name": "C#5",
          "ticks": 36372,
          "time": 126.291540375,
          "velocity": 0.6062992125984252
        },
        {
          "duration": 0.04166662500000484,
          "durationTicks": 12,
          "midi": 59,
          "name": "B3",
          "ticks": 36432,
          "time": 126.49987349999999,
          "velocity": 0.6062992125984252
        },
        {
          "duration": 0.04166662500000484,
          "durationTicks": 12,
          "midi": 64,
          "name": "E4",
          "ticks": 36432,
          "time": 126.49987349999999,
          "velocity": 0.6062992125984252
        },
        {
          "duration": 0.04166662500000484,
          "durationTicks": 12,
          "midi": 68,
          "name": "G#4",
          "ticks": 36444,
          "time": 126.541540125,
          "velocity": 0.6062992125984252
        },
        {
          "duration": 0.04166662500000484,
          "durationTicks": 12,
          "midi": 61,
          "name": "C#4",
          "ticks": 36444,
          "time": 126.541540125,
          "velocity": 0.6062992125984252
        },
        {
          "duration": 0.04166662499999063,
          "durationTicks": 12,
          "midi": 64,
          "name": "E4",
          "ticks": 36456,
          "time": 126.58320675,
          "velocity": 0.6062992125984252
        },
        {
          "duration": 0.04166662499999063,
          "durationTicks": 12,
          "midi": 71,
          "name": "B4",
          "ticks": 36456,
          "time": 126.58320675,
          "velocity": 0.6062992125984252
        },
        {
          "duration": 0.04166662500000484,
          "durationTicks": 12,
          "midi": 68,
          "name": "G#4",
          "ticks": 36468,
          "time": 126.62487337499999,
          "velocity": 0.6062992125984252
        },
        {
          "duration": 0.04166662500000484,
          "durationTicks": 12,
          "midi": 73,
          "name": "C#5",
          "ticks": 36468,
          "time": 126.62487337499999,
          "velocity": 0.6062992125984252
        },
        {
          "duration": 0.04166662500000484,
          "durationTicks": 12,
          "midi": 71,
          "name": "B4",
          "ticks": 36480,
          "time": 126.66654,
          "velocity": 0.6062992125984252
        },
        {
          "duration": 0.04166662500000484,
          "durationTicks": 12,
          "midi": 76,
          "name": "E5",
          "ticks": 36480,
          "time": 126.66654,
          "velocity": 0.6062992125984252
        },
        {
          "duration": 0.04166662499999063,
          "durationTicks": 12,
          "midi": 73,
          "name": "C#5",
          "ticks": 36492,
          "time": 126.708206625,
          "velocity": 0.6062992125984252
        },
        {
          "duration": 0.04166662499999063,
          "durationTicks": 12,
          "midi": 80,
          "name": "G#5",
          "ticks": 36492,
          "time": 126.708206625,
          "velocity": 0.6062992125984252
        },
        {
          "duration": 0.04166662500000484,
          "durationTicks": 12,
          "midi": 81,
          "name": "A5",
          "ticks": 36504,
          "time": 126.74987325,
          "velocity": 0.6062992125984252
        },
        {
          "duration": 0.04166662500000484,
          "durationTicks": 12,
          "midi": 76,
          "name": "E5",
          "ticks": 36504,
          "time": 126.74987325,
          "velocity": 0.6062992125984252
        },
        {
          "duration": 0.04166662499999063,
          "durationTicks": 12,
          "midi": 64,
          "name": "E4",
          "ticks": 36528,
          "time": 126.8332065,
          "velocity": 0.6062992125984252
        },
        {
          "duration": 0.04166662499999063,
          "durationTicks": 12,
          "midi": 59,
          "name": "B3",
          "ticks": 36528,
          "time": 126.8332065,
          "velocity": 0.6062992125984252
        },
        {
          "duration": 0.04166662500000484,
          "durationTicks": 12,
          "midi": 68,
          "name": "G#4",
          "ticks": 36540,
          "time": 126.874873125,
          "velocity": 0.6062992125984252
        },
        {
          "duration": 0.04166662500000484,
          "durationTicks": 12,
          "midi": 61,
          "name": "C#4",
          "ticks": 36540,
          "time": 126.874873125,
          "velocity": 0.6062992125984252
        },
        {
          "duration": 0.04166662500000484,
          "durationTicks": 12,
          "midi": 71,
          "name": "B4",
          "ticks": 36552,
          "time": 126.91653975,
          "velocity": 0.6062992125984252
        },
        {
          "duration": 0.04166662500000484,
          "durationTicks": 12,
          "midi": 64,
          "name": "E4",
          "ticks": 36552,
          "time": 126.91653975,
          "velocity": 0.6062992125984252
        },
        {
          "duration": 0.04166662499999063,
          "durationTicks": 12,
          "midi": 68,
          "name": "G#4",
          "ticks": 36564,
          "time": 126.958206375,
          "velocity": 0.6062992125984252
        },
        {
          "duration": 0.04166662499999063,
          "durationTicks": 12,
          "midi": 73,
          "name": "C#5",
          "ticks": 36564,
          "time": 126.958206375,
          "velocity": 0.6062992125984252
        },
        {
          "duration": 0.04166662500000484,
          "durationTicks": 12,
          "midi": 76,
          "name": "E5",
          "ticks": 36576,
          "time": 126.999873,
          "velocity": 0.6062992125984252
        },
        {
          "duration": 0.04166662500000484,
          "durationTicks": 12,
          "midi": 71,
          "name": "B4",
          "ticks": 36576,
          "time": 126.999873,
          "velocity": 0.6062992125984252
        },
        {
          "duration": 0.04166662499999063,
          "durationTicks": 12,
          "midi": 73,
          "name": "C#5",
          "ticks": 36588,
          "time": 127.041539625,
          "velocity": 0.6062992125984252
        },
        {
          "duration": 0.04166662499999063,
          "durationTicks": 12,
          "midi": 80,
          "name": "G#5",
          "ticks": 36588,
          "time": 127.041539625,
          "velocity": 0.6062992125984252
        },
        {
          "duration": 0.04166662500000484,
          "durationTicks": 12,
          "midi": 81,
          "name": "A5",
          "ticks": 36600,
          "time": 127.08320624999999,
          "velocity": 0.6062992125984252
        },
        {
          "duration": 0.04166662500000484,
          "durationTicks": 12,
          "midi": 76,
          "name": "E5",
          "ticks": 36600,
          "time": 127.08320624999999,
          "velocity": 0.6062992125984252
        },
        {
          "duration": 0.04166662499999063,
          "durationTicks": 12,
          "midi": 76,
          "name": "E5",
          "ticks": 36624,
          "time": 127.1665395,
          "velocity": 0.6062992125984252
        },
        {
          "duration": 0.04166662499999063,
          "durationTicks": 12,
          "midi": 81,
          "name": "A5",
          "ticks": 36624,
          "time": 127.1665395,
          "velocity": 0.6062992125984252
        },
        {
          "duration": 0.04166662500000484,
          "durationTicks": 12,
          "midi": 80,
          "name": "G#5",
          "ticks": 36636,
          "time": 127.20820612499999,
          "velocity": 0.6062992125984252
        },
        {
          "duration": 0.04166662500000484,
          "durationTicks": 12,
          "midi": 73,
          "name": "C#5",
          "ticks": 36636,
          "time": 127.20820612499999,
          "velocity": 0.6062992125984252
        },
        {
          "duration": 0.04166662500000484,
          "durationTicks": 12,
          "midi": 76,
          "name": "E5",
          "ticks": 36648,
          "time": 127.24987275,
          "velocity": 0.6062992125984252
        },
        {
          "duration": 0.04166662500000484,
          "durationTicks": 12,
          "midi": 71,
          "name": "B4",
          "ticks": 36648,
          "time": 127.24987275,
          "velocity": 0.6062992125984252
        },
        {
          "duration": 0.04166662499999063,
          "durationTicks": 12,
          "midi": 73,
          "name": "C#5",
          "ticks": 36660,
          "time": 127.291539375,
          "velocity": 0.6062992125984252
        },
        {
          "duration": 0.04166662499999063,
          "durationTicks": 12,
          "midi": 68,
          "name": "G#4",
          "ticks": 36660,
          "time": 127.291539375,
          "velocity": 0.6062992125984252
        },
        {
          "duration": 0.04166662500000484,
          "durationTicks": 12,
          "midi": 81,
          "name": "A5",
          "ticks": 36672,
          "time": 127.33320599999999,
          "velocity": 0.6062992125984252
        },
        {
          "duration": 0.04166662500000484,
          "durationTicks": 12,
          "midi": 76,
          "name": "E5",
          "ticks": 36672,
          "time": 127.33320599999999,
          "velocity": 0.6062992125984252
        },
        {
          "duration": 0.04166662500000484,
          "durationTicks": 12,
          "midi": 73,
          "name": "C#5",
          "ticks": 36684,
          "time": 127.374872625,
          "velocity": 0.6062992125984252
        },
        {
          "duration": 0.04166662500000484,
          "durationTicks": 12,
          "midi": 80,
          "name": "G#5",
          "ticks": 36684,
          "time": 127.374872625,
          "velocity": 0.6062992125984252
        },
        {
          "duration": 0.04166662499999063,
          "durationTicks": 12,
          "midi": 71,
          "name": "B4",
          "ticks": 36696,
          "time": 127.41653925,
          "velocity": 0.6062992125984252
        },
        {
          "duration": 0.04166662499999063,
          "durationTicks": 12,
          "midi": 76,
          "name": "E5",
          "ticks": 36696,
          "time": 127.41653925,
          "velocity": 0.6062992125984252
        },
        {
          "duration": 0.04166662500000484,
          "durationTicks": 12,
          "midi": 68,
          "name": "G#4",
          "ticks": 36708,
          "time": 127.45820587499999,
          "velocity": 0.6062992125984252
        },
        {
          "duration": 0.04166662500000484,
          "durationTicks": 12,
          "midi": 73,
          "name": "C#5",
          "ticks": 36708,
          "time": 127.45820587499999,
          "velocity": 0.6062992125984252
        },
        {
          "duration": 0.04166662500000484,
          "durationTicks": 12,
          "midi": 64,
          "name": "E4",
          "ticks": 36720,
          "time": 127.4998725,
          "velocity": 0.6062992125984252
        },
        {
          "duration": 0.04166662500000484,
          "durationTicks": 12,
          "midi": 71,
          "name": "B4",
          "ticks": 36720,
          "time": 127.4998725,
          "velocity": 0.6062992125984252
        },
        {
          "duration": 0.04166662499999063,
          "durationTicks": 12,
          "midi": 61,
          "name": "C#4",
          "ticks": 36732,
          "time": 127.541539125,
          "velocity": 0.6062992125984252
        },
        {
          "duration": 0.04166662499999063,
          "durationTicks": 12,
          "midi": 68,
          "name": "G#4",
          "ticks": 36732,
          "time": 127.541539125,
          "velocity": 0.6062992125984252
        },
        {
          "duration": 0.04166662500000484,
          "durationTicks": 12,
          "midi": 64,
          "name": "E4",
          "ticks": 36744,
          "time": 127.58320574999999,
          "velocity": 0.6062992125984252
        },
        {
          "duration": 0.04166662500000484,
          "durationTicks": 12,
          "midi": 59,
          "name": "B3",
          "ticks": 36744,
          "time": 127.58320574999999,
          "velocity": 0.6062992125984252
        },
        {
          "duration": 0.04166662500000484,
          "durationTicks": 12,
          "midi": 76,
          "name": "E5",
          "ticks": 36960,
          "time": 128.333205,
          "velocity": 0.6062992125984252
        },
        {
          "duration": 0.04166662500000484,
          "durationTicks": 12,
          "midi": 81,
          "name": "A5",
          "ticks": 36960,
          "time": 128.333205,
          "velocity": 0.6062992125984252
        },
        {
          "duration": 0.04166662500000484,
          "durationTicks": 12,
          "midi": 80,
          "name": "G#5",
          "ticks": 36972,
          "time": 128.374871625,
          "velocity": 0.6062992125984252
        },
        {
          "duration": 0.04166662500000484,
          "durationTicks": 12,
          "midi": 74,
          "name": "D5",
          "ticks": 36972,
          "time": 128.374871625,
          "velocity": 0.6062992125984252
        },
        {
          "duration": 0.04166662500000484,
          "durationTicks": 12,
          "midi": 71,
          "name": "B4",
          "ticks": 36984,
          "time": 128.41653825,
          "velocity": 0.6062992125984252
        },
        {
          "duration": 0.04166662500000484,
          "durationTicks": 12,
          "midi": 76,
          "name": "E5",
          "ticks": 36984,
          "time": 128.41653825,
          "velocity": 0.6062992125984252
        },
        {
          "duration": 0.04166662499997642,
          "durationTicks": 12,
          "midi": 69,
          "name": "A4",
          "ticks": 36996,
          "time": 128.458204875,
          "velocity": 0.6062992125984252
        },
        {
          "duration": 0.04166662499997642,
          "durationTicks": 12,
          "midi": 73,
          "name": "C#5",
          "ticks": 36996,
          "time": 128.458204875,
          "velocity": 0.6062992125984252
        },
        {
          "duration": 0.04166662500000484,
          "durationTicks": 12,
          "midi": 71,
          "name": "B4",
          "ticks": 37008,
          "time": 128.49987149999998,
          "velocity": 0.6062992125984252
        },
        {
          "duration": 0.04166662500000484,
          "durationTicks": 12,
          "midi": 68,
          "name": "G#4",
          "ticks": 37008,
          "time": 128.49987149999998,
          "velocity": 0.6062992125984252
        },
        {
          "duration": 0.04166662500000484,
          "durationTicks": 12,
          "midi": 64,
          "name": "E4",
          "ticks": 37020,
          "time": 128.541538125,
          "velocity": 0.6062992125984252
        },
        {
          "duration": 0.04166662500000484,
          "durationTicks": 12,
          "midi": 69,
          "name": "A4",
          "ticks": 37020,
          "time": 128.541538125,
          "velocity": 0.6062992125984252
        },
        {
          "duration": 0.04166662500000484,
          "durationTicks": 12,
          "midi": 76,
          "name": "E5",
          "ticks": 37056,
          "time": 128.666538,
          "velocity": 0.6062992125984252
        },
        {
          "duration": 0.04166662500000484,
          "durationTicks": 12,
          "midi": 81,
          "name": "A5",
          "ticks": 37056,
          "time": 128.666538,
          "velocity": 0.6062992125984252
        },
        {
          "duration": 0.04166662499997642,
          "durationTicks": 12,
          "midi": 74,
          "name": "D5",
          "ticks": 37068,
          "time": 128.708204625,
          "velocity": 0.6062992125984252
        },
        {
          "duration": 0.04166662499997642,
          "durationTicks": 12,
          "midi": 80,
          "name": "G#5",
          "ticks": 37068,
          "time": 128.708204625,
          "velocity": 0.6062992125984252
        },
        {
          "duration": 0.04166662500000484,
          "durationTicks": 12,
          "midi": 76,
          "name": "E5",
          "ticks": 37080,
          "time": 128.74987124999998,
          "velocity": 0.6062992125984252
        },
        {
          "duration": 0.04166662500000484,
          "durationTicks": 12,
          "midi": 71,
          "name": "B4",
          "ticks": 37080,
          "time": 128.74987124999998,
          "velocity": 0.6062992125984252
        },
        {
          "duration": 0.04166662500000484,
          "durationTicks": 12,
          "midi": 69,
          "name": "A4",
          "ticks": 37092,
          "time": 128.791537875,
          "velocity": 0.6062992125984252
        },
        {
          "duration": 0.04166662500000484,
          "durationTicks": 12,
          "midi": 73,
          "name": "C#5",
          "ticks": 37092,
          "time": 128.791537875,
          "velocity": 0.6062992125984252
        },
        {
          "duration": 0.04166662500000484,
          "durationTicks": 12,
          "midi": 81,
          "name": "A5",
          "ticks": 37104,
          "time": 128.8332045,
          "velocity": 0.6062992125984252
        },
        {
          "duration": 0.04166662500000484,
          "durationTicks": 12,
          "midi": 76,
          "name": "E5",
          "ticks": 37104,
          "time": 128.8332045,
          "velocity": 0.6062992125984252
        },
        {
          "duration": 0.04166662500000484,
          "durationTicks": 12,
          "midi": 80,
          "name": "G#5",
          "ticks": 37116,
          "time": 128.874871125,
          "velocity": 0.6062992125984252
        },
        {
          "duration": 0.04166662500000484,
          "durationTicks": 12,
          "midi": 74,
          "name": "D5",
          "ticks": 37116,
          "time": 128.874871125,
          "velocity": 0.6062992125984252
        },
        {
          "duration": 0.04166662500000484,
          "durationTicks": 12,
          "midi": 71,
          "name": "B4",
          "ticks": 37128,
          "time": 128.91653775,
          "velocity": 0.6062992125984252
        },
        {
          "duration": 0.04166662500000484,
          "durationTicks": 12,
          "midi": 76,
          "name": "E5",
          "ticks": 37128,
          "time": 128.91653775,
          "velocity": 0.6062992125984252
        },
        {
          "duration": 0.04166662499997642,
          "durationTicks": 12,
          "midi": 69,
          "name": "A4",
          "ticks": 37140,
          "time": 128.958204375,
          "velocity": 0.6062992125984252
        },
        {
          "duration": 0.04166662499997642,
          "durationTicks": 12,
          "midi": 73,
          "name": "C#5",
          "ticks": 37140,
          "time": 128.958204375,
          "velocity": 0.6062992125984252
        },
        {
          "duration": 0.04166662500000484,
          "durationTicks": 12,
          "midi": 64,
          "name": "E4",
          "ticks": 37200,
          "time": 129.1665375,
          "velocity": 0.6062992125984252
        },
        {
          "duration": 0.04166662500000484,
          "durationTicks": 12,
          "midi": 68,
          "name": "G#4",
          "ticks": 37200,
          "time": 129.1665375,
          "velocity": 0.6062992125984252
        },
        {
          "duration": 0.04166662499997642,
          "durationTicks": 12,
          "midi": 68,
          "name": "G#4",
          "ticks": 37212,
          "time": 129.208204125,
          "velocity": 0.6062992125984252
        },
        {
          "duration": 0.04166662499997642,
          "durationTicks": 12,
          "midi": 71,
          "name": "B4",
          "ticks": 37212,
          "time": 129.208204125,
          "velocity": 0.6062992125984252
        },
        {
          "duration": 0.04166662500000484,
          "durationTicks": 12,
          "midi": 69,
          "name": "A4",
          "ticks": 37224,
          "time": 129.24987074999999,
          "velocity": 0.6062992125984252
        },
        {
          "duration": 0.04166662500000484,
          "durationTicks": 12,
          "midi": 73,
          "name": "C#5",
          "ticks": 37224,
          "time": 129.24987074999999,
          "velocity": 0.6062992125984252
        },
        {
          "duration": 0.04166662500000484,
          "durationTicks": 12,
          "midi": 76,
          "name": "E5",
          "ticks": 37236,
          "time": 129.291537375,
          "velocity": 0.6062992125984252
        },
        {
          "duration": 0.04166662500000484,
          "durationTicks": 12,
          "midi": 71,
          "name": "B4",
          "ticks": 37236,
          "time": 129.291537375,
          "velocity": 0.6062992125984252
        },
        {
          "duration": 0.04166662500000484,
          "durationTicks": 12,
          "midi": 80,
          "name": "G#5",
          "ticks": 37248,
          "time": 129.333204,
          "velocity": 0.6062992125984252
        },
        {
          "duration": 0.04166662500000484,
          "durationTicks": 12,
          "midi": 73,
          "name": "C#5",
          "ticks": 37248,
          "time": 129.333204,
          "velocity": 0.6062992125984252
        },
        {
          "duration": 0.04166662500000484,
          "durationTicks": 12,
          "midi": 76,
          "name": "E5",
          "ticks": 37260,
          "time": 129.374870625,
          "velocity": 0.6062992125984252
        },
        {
          "duration": 0.04166662500000484,
          "durationTicks": 12,
          "midi": 81,
          "name": "A5",
          "ticks": 37260,
          "time": 129.374870625,
          "velocity": 0.6062992125984252
        },
        {
          "duration": 0.04166662500000484,
          "durationTicks": 12,
          "midi": 68,
          "name": "G#4",
          "ticks": 37296,
          "time": 129.4998705,
          "velocity": 0.6062992125984252
        },
        {
          "duration": 0.04166662500000484,
          "durationTicks": 12,
          "midi": 64,
          "name": "E4",
          "ticks": 37296,
          "time": 129.4998705,
          "velocity": 0.6062992125984252
        },
        {
          "duration": 0.04166662500000484,
          "durationTicks": 12,
          "midi": 68,
          "name": "G#4",
          "ticks": 37308,
          "time": 129.541537125,
          "velocity": 0.6062992125984252
        },
        {
          "duration": 0.04166662500000484,
          "durationTicks": 12,
          "midi": 71,
          "name": "B4",
          "ticks": 37308,
          "time": 129.541537125,
          "velocity": 0.6062992125984252
        },
        {
          "duration": 0.04166662500000484,
          "durationTicks": 12,
          "midi": 73,
          "name": "C#5",
          "ticks": 37320,
          "time": 129.58320375,
          "velocity": 0.6062992125984252
        },
        {
          "duration": 0.04166662500000484,
          "durationTicks": 12,
          "midi": 69,
          "name": "A4",
          "ticks": 37320,
          "time": 129.58320375,
          "velocity": 0.6062992125984252
        },
        {
          "duration": 0.04166662500000484,
          "durationTicks": 12,
          "midi": 76,
          "name": "E5",
          "ticks": 37332,
          "time": 129.624870375,
          "velocity": 0.6062992125984252
        },
        {
          "duration": 0.04166662500000484,
          "durationTicks": 12,
          "midi": 71,
          "name": "B4",
          "ticks": 37332,
          "time": 129.624870375,
          "velocity": 0.6062992125984252
        },
        {
          "duration": 0.04166662500000484,
          "durationTicks": 12,
          "midi": 73,
          "name": "C#5",
          "ticks": 37344,
          "time": 129.666537,
          "velocity": 0.6062992125984252
        },
        {
          "duration": 0.04166662500000484,
          "durationTicks": 12,
          "midi": 80,
          "name": "G#5",
          "ticks": 37344,
          "time": 129.666537,
          "velocity": 0.6062992125984252
        },
        {
          "duration": 0.04166662499997642,
          "durationTicks": 12,
          "midi": 76,
          "name": "E5",
          "ticks": 37356,
          "time": 129.708203625,
          "velocity": 0.6062992125984252
        },
        {
          "duration": 0.04166662500000484,
          "durationTicks": 12,
          "midi": 78,
          "name": "F#5",
          "ticks": 37392,
          "time": 129.8332035,
          "velocity": 0.6062992125984252
        },
        {
          "duration": 0.04166662500000484,
          "durationTicks": 12,
          "midi": 81,
          "name": "A5",
          "ticks": 37392,
          "time": 129.8332035,
          "velocity": 0.6062992125984252
        },
        {
          "duration": 0.04166662500000484,
          "durationTicks": 12,
          "midi": 80,
          "name": "G#5",
          "ticks": 37404,
          "time": 129.874870125,
          "velocity": 0.6062992125984252
        },
        {
          "duration": 0.04166662500000484,
          "durationTicks": 12,
          "midi": 76,
          "name": "E5",
          "ticks": 37404,
          "time": 129.874870125,
          "velocity": 0.6062992125984252
        },
        {
          "duration": 0.04166662499997642,
          "durationTicks": 12,
          "midi": 71,
          "name": "B4",
          "ticks": 37416,
          "time": 129.91653675,
          "velocity": 0.6062992125984252
        },
        {
          "duration": 0.04166662499997642,
          "durationTicks": 12,
          "midi": 76,
          "name": "E5",
          "ticks": 37416,
          "time": 129.91653675,
          "velocity": 0.6062992125984252
        },
        {
          "duration": 0.04166662500000484,
          "durationTicks": 12,
          "midi": 73,
          "name": "C#5",
          "ticks": 37428,
          "time": 129.95820337499998,
          "velocity": 0.6062992125984252
        },
        {
          "duration": 0.04166662500000484,
          "durationTicks": 12,
          "midi": 68,
          "name": "G#4",
          "ticks": 37428,
          "time": 129.95820337499998,
          "velocity": 0.6062992125984252
        },
        {
          "duration": 0.04166662500000484,
          "durationTicks": 12,
          "midi": 78,
          "name": "F#5",
          "ticks": 37440,
          "time": 129.99987,
          "velocity": 0.6062992125984252
        },
        {
          "duration": 0.04166662500000484,
          "durationTicks": 12,
          "midi": 81,
          "name": "A5",
          "ticks": 37440,
          "time": 129.99987,
          "velocity": 0.6062992125984252
        },
        {
          "duration": 0.04166662500000484,
          "durationTicks": 12,
          "midi": 80,
          "name": "G#5",
          "ticks": 37452,
          "time": 130.041536625,
          "velocity": 0.6062992125984252
        },
        {
          "duration": 0.04166662500000484,
          "durationTicks": 12,
          "midi": 76,
          "name": "E5",
          "ticks": 37452,
          "time": 130.041536625,
          "velocity": 0.6062992125984252
        },
        {
          "duration": 0.04166662500000484,
          "durationTicks": 12,
          "midi": 71,
          "name": "B4",
          "ticks": 37464,
          "time": 130.08320325,
          "velocity": 0.6062992125984252
        },
        {
          "duration": 0.04166662500000484,
          "durationTicks": 12,
          "midi": 76,
          "name": "E5",
          "ticks": 37464,
          "time": 130.08320325,
          "velocity": 0.6062992125984252
        },
        {
          "duration": 0.04166662500000484,
          "durationTicks": 12,
          "midi": 73,
          "name": "C#5",
          "ticks": 37476,
          "time": 130.124869875,
          "velocity": 0.6062992125984252
        },
        {
          "duration": 0.04166662500000484,
          "durationTicks": 12,
          "midi": 69,
          "name": "A4",
          "ticks": 37476,
          "time": 130.124869875,
          "velocity": 0.6062992125984252
        },
        {
          "duration": 0.04166662499997642,
          "durationTicks": 12,
          "midi": 68,
          "name": "G#4",
          "ticks": 37488,
          "time": 130.1665365,
          "velocity": 0.6062992125984252
        },
        {
          "duration": 0.04166662499997642,
          "durationTicks": 12,
          "midi": 71,
          "name": "B4",
          "ticks": 37488,
          "time": 130.1665365,
          "velocity": 0.6062992125984252
        },
        {
          "duration": 0.04166662500000484,
          "durationTicks": 12,
          "midi": 69,
          "name": "A4",
          "ticks": 37500,
          "time": 130.20820312499998,
          "velocity": 0.6062992125984252
        },
        {
          "duration": 0.04166662500000484,
          "durationTicks": 12,
          "midi": 64,
          "name": "E4",
          "ticks": 37500,
          "time": 130.20820312499998,
          "velocity": 0.6062992125984252
        },
        {
          "duration": 0.04513884375000998,
          "durationTicks": 13,
          "midi": 69,
          "name": "A4",
          "ticks": 37728,
          "time": 130.999869,
          "velocity": 0.6062992125984252
        },
        {
          "duration": 0.04513884375000998,
          "durationTicks": 13,
          "midi": 62,
          "name": "D4",
          "ticks": 37728,
          "time": 130.999869,
          "velocity": 0.6062992125984252
        },
        {
          "duration": 0.0381944062499997,
          "durationTicks": 11,
          "midi": 71,
          "name": "B4",
          "ticks": 37741,
          "time": 131.04500784375,
          "velocity": 0.6062992125984252
        },
        {
          "duration": 0.0381944062499997,
          "durationTicks": 11,
          "midi": 66,
          "name": "F#4",
          "ticks": 37741,
          "time": 131.04500784375,
          "velocity": 0.6062992125984252
        },
        {
          "duration": 0.04166662500000484,
          "durationTicks": 12,
          "midi": 74,
          "name": "D5",
          "ticks": 37752,
          "time": 131.08320225,
          "velocity": 0.6062992125984252
        },
        {
          "duration": 0.04166662500000484,
          "durationTicks": 12,
          "midi": 69,
          "name": "A4",
          "ticks": 37752,
          "time": 131.08320225,
          "velocity": 0.6062992125984252
        },
        {
          "duration": 0.04166662500000484,
          "durationTicks": 12,
          "midi": 71,
          "name": "B4",
          "ticks": 37764,
          "time": 131.124868875,
          "velocity": 0.6062992125984252
        },
        {
          "duration": 0.04166662500000484,
          "durationTicks": 12,
          "midi": 78,
          "name": "F#5",
          "ticks": 37764,
          "time": 131.124868875,
          "velocity": 0.6062992125984252
        },
        {
          "duration": 0.04166662499997642,
          "durationTicks": 12,
          "midi": 81,
          "name": "A5",
          "ticks": 37776,
          "time": 131.1665355,
          "velocity": 0.6062992125984252
        },
        {
          "duration": 0.04166662499997642,
          "durationTicks": 12,
          "midi": 74,
          "name": "D5",
          "ticks": 37776,
          "time": 131.1665355,
          "velocity": 0.6062992125984252
        },
        {
          "duration": 0.0381944062499997,
          "durationTicks": 11,
          "midi": 78,
          "name": "F#5",
          "ticks": 37788,
          "time": 131.20820212499999,
          "velocity": 0.6062992125984252
        },
        {
          "duration": 0.0381944062499997,
          "durationTicks": 11,
          "midi": 83,
          "name": "B5",
          "ticks": 37788,
          "time": 131.20820212499999,
          "velocity": 0.6062992125984252
        },
        {
          "duration": 0.04513884375000998,
          "durationTicks": 13,
          "midi": 81,
          "name": "A5",
          "ticks": 37799,
          "time": 131.24639653124999,
          "velocity": 0.6062992125984252
        },
        {
          "duration": 0.04513884375000998,
          "durationTicks": 13,
          "midi": 86,
          "name": "D6",
          "ticks": 37799,
          "time": 131.24639653124999,
          "velocity": 0.6062992125984252
        },
        {
          "duration": 0.04513884375000998,
          "durationTicks": 13,
          "midi": 62,
          "name": "D4",
          "ticks": 37824,
          "time": 131.333202,
          "velocity": 0.6062992125984252
        },
        {
          "duration": 0.04513884375000998,
          "durationTicks": 13,
          "midi": 69,
          "name": "A4",
          "ticks": 37824,
          "time": 131.333202,
          "velocity": 0.6062992125984252
        },
        {
          "duration": 0.0381944062499997,
          "durationTicks": 11,
          "midi": 71,
          "name": "B4",
          "ticks": 37837,
          "time": 131.37834084375,
          "velocity": 0.6062992125984252
        },
        {
          "duration": 0.0381944062499997,
          "durationTicks": 11,
          "midi": 66,
          "name": "F#4",
          "ticks": 37837,
          "time": 131.37834084375,
          "velocity": 0.6062992125984252
        },
        {
          "duration": 0.04166662499997642,
          "durationTicks": 12,
          "midi": 69,
          "name": "A4",
          "ticks": 37848,
          "time": 131.41653525,
          "velocity": 0.6062992125984252
        },
        {
          "duration": 0.04166662499997642,
          "durationTicks": 12,
          "midi": 74,
          "name": "D5",
          "ticks": 37848,
          "time": 131.41653525,
          "velocity": 0.6062992125984252
        },
        {
          "duration": 0.04166662500000484,
          "durationTicks": 12,
          "midi": 71,
          "name": "B4",
          "ticks": 37860,
          "time": 131.458201875,
          "velocity": 0.6062992125984252
        },
        {
          "duration": 0.04166662500000484,
          "durationTicks": 12,
          "midi": 78,
          "name": "F#5",
          "ticks": 37860,
          "time": 131.458201875,
          "velocity": 0.6062992125984252
        },
        {
          "duration": 0.04513884375000998,
          "durationTicks": 13,
          "midi": 62,
          "name": "D4",
          "ticks": 37872,
          "time": 131.4998685,
          "velocity": 0.6062992125984252
        },
        {
          "duration": 0.04513884375000998,
          "durationTicks": 13,
          "midi": 69,
          "name": "A4",
          "ticks": 37872,
          "time": 131.4998685,
          "velocity": 0.6062992125984252
        },
        {
          "duration": 0.0381944062499997,
          "durationTicks": 11,
          "midi": 66,
          "name": "F#4",
          "ticks": 37885,
          "time": 131.54500734375,
          "velocity": 0.6062992125984252
        },
        {
          "duration": 0.0381944062499997,
          "durationTicks": 11,
          "midi": 71,
          "name": "B4",
          "ticks": 37885,
          "time": 131.54500734375,
          "velocity": 0.6062992125984252
        },
        {
          "duration": 0.04166662500000484,
          "durationTicks": 12,
          "midi": 69,
          "name": "A4",
          "ticks": 37896,
          "time": 131.58320175,
          "velocity": 0.6062992125984252
        },
        {
          "duration": 0.04166662500000484,
          "durationTicks": 12,
          "midi": 74,
          "name": "D5",
          "ticks": 37896,
          "time": 131.58320175,
          "velocity": 0.6062992125984252
        },
        {
          "duration": 0.04166662500000484,
          "durationTicks": 12,
          "midi": 78,
          "name": "F#5",
          "ticks": 37908,
          "time": 131.624868375,
          "velocity": 0.6062992125984252
        },
        {
          "duration": 0.04166662500000484,
          "durationTicks": 12,
          "midi": 71,
          "name": "B4",
          "ticks": 37908,
          "time": 131.624868375,
          "velocity": 0.6062992125984252
        },
        {
          "duration": 0.04513884375000998,
          "durationTicks": 13,
          "midi": 69,
          "name": "A4",
          "ticks": 37968,
          "time": 131.8332015,
          "velocity": 0.6062992125984252
        },
        {
          "duration": 0.04513884375000998,
          "durationTicks": 13,
          "midi": 62,
          "name": "D4",
          "ticks": 37968,
          "time": 131.8332015,
          "velocity": 0.6062992125984252
        },
        {
          "duration": 0.03819440624997128,
          "durationTicks": 11,
          "midi": 71,
          "name": "B4",
          "ticks": 37981,
          "time": 131.87834034375,
          "velocity": 0.6062992125984252
        },
        {
          "duration": 0.03819440624997128,
          "durationTicks": 11,
          "midi": 66,
          "name": "F#4",
          "ticks": 37981,
          "time": 131.87834034375,
          "velocity": 0.6062992125984252
        },
        {
          "duration": 0.04166662500000484,
          "durationTicks": 12,
          "midi": 69,
          "name": "A4",
          "ticks": 37992,
          "time": 131.91653474999998,
          "velocity": 0.6062992125984252
        },
        {
          "duration": 0.04166662500000484,
          "durationTicks": 12,
          "midi": 74,
          "name": "D5",
          "ticks": 37992,
          "time": 131.91653474999998,
          "velocity": 0.6062992125984252
        },
        {
          "duration": 0.04166662500000484,
          "durationTicks": 12,
          "midi": 71,
          "name": "B4",
          "ticks": 38004,
          "time": 131.958201375,
          "velocity": 0.6062992125984252
        },
        {
          "duration": 0.04166662500000484,
          "durationTicks": 12,
          "midi": 78,
          "name": "F#5",
          "ticks": 38004,
          "time": 131.958201375,
          "velocity": 0.6062992125984252
        },
        {
          "duration": 0.04166662500000484,
          "durationTicks": 12,
          "midi": 74,
          "name": "D5",
          "ticks": 38016,
          "time": 131.999868,
          "velocity": 0.6062992125984252
        },
        {
          "duration": 0.04166662500000484,
          "durationTicks": 12,
          "midi": 81,
          "name": "A5",
          "ticks": 38016,
          "time": 131.999868,
          "velocity": 0.6062992125984252
        },
        {
          "duration": 0.0381944062499997,
          "durationTicks": 11,
          "midi": 83,
          "name": "B5",
          "ticks": 38028,
          "time": 132.041534625,
          "velocity": 0.6062992125984252
        },
        {
          "duration": 0.0381944062499997,
          "durationTicks": 11,
          "midi": 78,
          "name": "F#5",
          "ticks": 38028,
          "time": 132.041534625,
          "velocity": 0.6062992125984252
        },
        {
          "duration": 0.04513884375000998,
          "durationTicks": 13,
          "midi": 86,
          "name": "D6",
          "ticks": 38039,
          "time": 132.07972903125,
          "velocity": 0.6062992125984252
        },
        {
          "duration": 0.04513884375000998,
          "durationTicks": 13,
          "midi": 81,
          "name": "A5",
          "ticks": 38039,
          "time": 132.07972903125,
          "velocity": 0.6062992125984252
        },
        {
          "duration": 0.04513884375000998,
          "durationTicks": 13,
          "midi": 69,
          "name": "A4",
          "ticks": 38064,
          "time": 132.16653449999998,
          "velocity": 0.6062992125984252
        },
        {
          "duration": 0.04513884375000998,
          "durationTicks": 13,
          "midi": 62,
          "name": "D4",
          "ticks": 38064,
          "time": 132.16653449999998,
          "velocity": 0.6062992125984252
        },
        {
          "duration": 0.0381944062499997,
          "durationTicks": 11,
          "midi": 66,
          "name": "F#4",
          "ticks": 38077,
          "time": 132.21167334375,
          "velocity": 0.6062992125984252
        },
        {
          "duration": 0.0381944062499997,
          "durationTicks": 11,
          "midi": 71,
          "name": "B4",
          "ticks": 38077,
          "time": 132.21167334375,
          "velocity": 0.6062992125984252
        },
        {
          "duration": 0.04166662500000484,
          "durationTicks": 12,
          "midi": 74,
          "name": "D5",
          "ticks": 38088,
          "time": 132.24986775,
          "velocity": 0.6062992125984252
        },
        {
          "duration": 0.04166662500000484,
          "durationTicks": 12,
          "midi": 69,
          "name": "A4",
          "ticks": 38088,
          "time": 132.24986775,
          "velocity": 0.6062992125984252
        },
        {
          "duration": 0.04166662500000484,
          "durationTicks": 12,
          "midi": 71,
          "name": "B4",
          "ticks": 38100,
          "time": 132.291534375,
          "velocity": 0.6062992125984252
        },
        {
          "duration": 0.04166662500000484,
          "durationTicks": 12,
          "midi": 78,
          "name": "F#5",
          "ticks": 38100,
          "time": 132.291534375,
          "velocity": 0.6062992125984252
        },
        {
          "duration": 0.04166662500000484,
          "durationTicks": 12,
          "midi": 81,
          "name": "A5",
          "ticks": 38112,
          "time": 132.333201,
          "velocity": 0.6062992125984252
        },
        {
          "duration": 0.04166662500000484,
          "durationTicks": 12,
          "midi": 74,
          "name": "D5",
          "ticks": 38112,
          "time": 132.333201,
          "velocity": 0.6062992125984252
        },
        {
          "duration": 0.03819440624997128,
          "durationTicks": 11,
          "midi": 83,
          "name": "B5",
          "ticks": 38124,
          "time": 132.374867625,
          "velocity": 0.6062992125984252
        },
        {
          "duration": 0.03819440624997128,
          "durationTicks": 11,
          "midi": 78,
          "name": "F#5",
          "ticks": 38124,
          "time": 132.374867625,
          "velocity": 0.6062992125984252
        },
        {
          "duration": 0.04513884375000998,
          "durationTicks": 13,
          "midi": 81,
          "name": "A5",
          "ticks": 38135,
          "time": 132.41306203124998,
          "velocity": 0.6062992125984252
        },
        {
          "duration": 0.04513884375000998,
          "durationTicks": 13,
          "midi": 86,
          "name": "D6",
          "ticks": 38135,
          "time": 132.41306203124998,
          "velocity": 0.6062992125984252
        },
        {
          "duration": 0.04166662500000484,
          "durationTicks": 12,
          "midi": 81,
          "name": "A5",
          "ticks": 38160,
          "time": 132.4998675,
          "velocity": 0.6062992125984252
        },
        {
          "duration": 0.04166662500000484,
          "durationTicks": 12,
          "midi": 86,
          "name": "D6",
          "ticks": 38160,
          "time": 132.4998675,
          "velocity": 0.6062992125984252
        },
        {
          "duration": 0.04166662500000484,
          "durationTicks": 12,
          "midi": 78,
          "name": "F#5",
          "ticks": 38172,
          "time": 132.541534125,
          "velocity": 0.6062992125984252
        },
        {
          "duration": 0.04166662500000484,
          "durationTicks": 12,
          "midi": 83,
          "name": "B5",
          "ticks": 38172,
          "time": 132.541534125,
          "velocity": 0.6062992125984252
        },
        {
          "duration": 0.04166662500000484,
          "durationTicks": 12,
          "midi": 74,
          "name": "D5",
          "ticks": 38184,
          "time": 132.58320075,
          "velocity": 0.6062992125984252
        },
        {
          "duration": 0.04166662500000484,
          "durationTicks": 12,
          "midi": 81,
          "name": "A5",
          "ticks": 38184,
          "time": 132.58320075,
          "velocity": 0.6062992125984252
        },
        {
          "duration": 0.04166662499997642,
          "durationTicks": 12,
          "midi": 78,
          "name": "F#5",
          "ticks": 38196,
          "time": 132.624867375,
          "velocity": 0.6062992125984252
        },
        {
          "duration": 0.04166662499997642,
          "durationTicks": 12,
          "midi": 71,
          "name": "B4",
          "ticks": 38196,
          "time": 132.624867375,
          "velocity": 0.6062992125984252
        },
        {
          "duration": 0.04166662500000484,
          "durationTicks": 12,
          "midi": 86,
          "name": "D6",
          "ticks": 38208,
          "time": 132.66653399999998,
          "velocity": 0.6062992125984252
        },
        {
          "duration": 0.04166662500000484,
          "durationTicks": 12,
          "midi": 81,
          "name": "A5",
          "ticks": 38208,
          "time": 132.66653399999998,
          "velocity": 0.6062992125984252
        },
        {
          "duration": 0.04166662500000484,
          "durationTicks": 12,
          "midi": 78,
          "name": "F#5",
          "ticks": 38220,
          "time": 132.708200625,
          "velocity": 0.6062992125984252
        },
        {
          "duration": 0.04166662500000484,
          "durationTicks": 12,
          "midi": 83,
          "name": "B5",
          "ticks": 38220,
          "time": 132.708200625,
          "velocity": 0.6062992125984252
        },
        {
          "duration": 0.04166662500000484,
          "durationTicks": 12,
          "midi": 81,
          "name": "A5",
          "ticks": 38232,
          "time": 132.74986725,
          "velocity": 0.6062992125984252
        },
        {
          "duration": 0.04166662500000484,
          "durationTicks": 12,
          "midi": 74,
          "name": "D5",
          "ticks": 38232,
          "time": 132.74986725,
          "velocity": 0.6062992125984252
        },
        {
          "duration": 0.04166662500000484,
          "durationTicks": 12,
          "midi": 71,
          "name": "B4",
          "ticks": 38244,
          "time": 132.791533875,
          "velocity": 0.6062992125984252
        },
        {
          "duration": 0.04166662500000484,
          "durationTicks": 12,
          "midi": 78,
          "name": "F#5",
          "ticks": 38244,
          "time": 132.791533875,
          "velocity": 0.6062992125984252
        },
        {
          "duration": 0.04166662500000484,
          "durationTicks": 12,
          "midi": 69,
          "name": "A4",
          "ticks": 38256,
          "time": 132.8332005,
          "velocity": 0.6062992125984252
        },
        {
          "duration": 0.04166662500000484,
          "durationTicks": 12,
          "midi": 74,
          "name": "D5",
          "ticks": 38256,
          "time": 132.8332005,
          "velocity": 0.6062992125984252
        },
        {
          "duration": 0.04166662499997642,
          "durationTicks": 12,
          "midi": 71,
          "name": "B4",
          "ticks": 38268,
          "time": 132.874867125,
          "velocity": 0.6062992125984252
        },
        {
          "duration": 0.04166662499997642,
          "durationTicks": 12,
          "midi": 66,
          "name": "F#4",
          "ticks": 38268,
          "time": 132.874867125,
          "velocity": 0.6062992125984252
        },
        {
          "duration": 0.04166662500000484,
          "durationTicks": 12,
          "midi": 62,
          "name": "D4",
          "ticks": 38280,
          "time": 132.91653374999999,
          "velocity": 0.6062992125984252
        },
        {
          "duration": 0.04166662500000484,
          "durationTicks": 12,
          "midi": 69,
          "name": "A4",
          "ticks": 38280,
          "time": 132.91653374999999,
          "velocity": 0.6062992125984252
        },
        {
          "duration": 0.04166662500000484,
          "durationTicks": 12,
          "midi": 64,
          "name": "E4",
          "ticks": 39264,
          "time": 136.33319699999998,
          "velocity": 0.6062992125984252
        },
        {
          "duration": 0.04166662500000484,
          "durationTicks": 12,
          "midi": 59,
          "name": "B3",
          "ticks": 39264,
          "time": 136.33319699999998,
          "velocity": 0.6062992125984252
        },
        {
          "duration": 0.04166662500000484,
          "durationTicks": 12,
          "midi": 61,
          "name": "C#4",
          "ticks": 39276,
          "time": 136.374863625,
          "velocity": 0.6062992125984252
        },
        {
          "duration": 0.04166662500000484,
          "durationTicks": 12,
          "midi": 68,
          "name": "G#4",
          "ticks": 39276,
          "time": 136.374863625,
          "velocity": 0.6062992125984252
        },
        {
          "duration": 0.04166662500000484,
          "durationTicks": 12,
          "midi": 64,
          "name": "E4",
          "ticks": 39288,
          "time": 136.41653025,
          "velocity": 0.6062992125984252
        },
        {
          "duration": 0.04166662500000484,
          "durationTicks": 12,
          "midi": 71,
          "name": "B4",
          "ticks": 39288,
          "time": 136.41653025,
          "velocity": 0.6062992125984252
        },
        {
          "duration": 0.04166662500000484,
          "durationTicks": 12,
          "midi": 68,
          "name": "G#4",
          "ticks": 39300,
          "time": 136.458196875,
          "velocity": 0.6062992125984252
        },
        {
          "duration": 0.04166662500000484,
          "durationTicks": 12,
          "midi": 73,
          "name": "C#5",
          "ticks": 39300,
          "time": 136.458196875,
          "velocity": 0.6062992125984252
        },
        {
          "duration": 0.04166662500000484,
          "durationTicks": 12,
          "midi": 71,
          "name": "B4",
          "ticks": 39312,
          "time": 136.4998635,
          "velocity": 0.6062992125984252
        },
        {
          "duration": 0.04166662500000484,
          "durationTicks": 12,
          "midi": 76,
          "name": "E5",
          "ticks": 39312,
          "time": 136.4998635,
          "velocity": 0.6062992125984252
        },
        {
          "duration": 0.04166662499997642,
          "durationTicks": 12,
          "midi": 73,
          "name": "C#5",
          "ticks": 39324,
          "time": 136.541530125,
          "velocity": 0.6062992125984252
        },
        {
          "duration": 0.04166662499997642,
          "durationTicks": 12,
          "midi": 80,
          "name": "G#5",
          "ticks": 39324,
          "time": 136.541530125,
          "velocity": 0.6062992125984252
        },
        {
          "duration": 0.04166662500000484,
          "durationTicks": 12,
          "midi": 81,
          "name": "A5",
          "ticks": 39336,
          "time": 136.58319674999998,
          "velocity": 0.6062992125984252
        },
        {
          "duration": 0.04166662500000484,
          "durationTicks": 12,
          "midi": 76,
          "name": "E5",
          "ticks": 39336,
          "time": 136.58319674999998,
          "velocity": 0.6062992125984252
        },
        {
          "duration": 0.04166662500000484,
          "durationTicks": 12,
          "midi": 64,
          "name": "E4",
          "ticks": 39360,
          "time": 136.66653,
          "velocity": 0.6062992125984252
        },
        {
          "duration": 0.04166662500000484,
          "durationTicks": 12,
          "midi": 59,
          "name": "B3",
          "ticks": 39360,
          "time": 136.66653,
          "velocity": 0.6062992125984252
        },
        {
          "duration": 0.04166662500000484,
          "durationTicks": 12,
          "midi": 61,
          "name": "C#4",
          "ticks": 39372,
          "time": 136.708196625,
          "velocity": 0.6062992125984252
        },
        {
          "duration": 0.04166662500000484,
          "durationTicks": 12,
          "midi": 68,
          "name": "G#4",
          "ticks": 39372,
          "time": 136.708196625,
          "velocity": 0.6062992125984252
        },
        {
          "duration": 0.04166662500000484,
          "durationTicks": 12,
          "midi": 71,
          "name": "B4",
          "ticks": 39384,
          "time": 136.74986325,
          "velocity": 0.6062992125984252
        },
        {
          "duration": 0.04166662500000484,
          "durationTicks": 12,
          "midi": 64,
          "name": "E4",
          "ticks": 39384,
          "time": 136.74986325,
          "velocity": 0.6062992125984252
        },
        {
          "duration": 0.04166662499997642,
          "durationTicks": 12,
          "midi": 68,
          "name": "G#4",
          "ticks": 39396,
          "time": 136.791529875,
          "velocity": 0.6062992125984252
        },
        {
          "duration": 0.04166662499997642,
          "durationTicks": 12,
          "midi": 73,
          "name": "C#5",
          "ticks": 39396,
          "time": 136.791529875,
          "velocity": 0.6062992125984252
        },
        {
          "duration": 0.04166662500000484,
          "durationTicks": 12,
          "midi": 59,
          "name": "B3",
          "ticks": 39408,
          "time": 136.83319649999999,
          "velocity": 0.6062992125984252
        },
        {
          "duration": 0.04166662500000484,
          "durationTicks": 12,
          "midi": 64,
          "name": "E4",
          "ticks": 39408,
          "time": 136.83319649999999,
          "velocity": 0.6062992125984252
        },
        {
          "duration": 0.04166662500000484,
          "durationTicks": 12,
          "midi": 61,
          "name": "C#4",
          "ticks": 39420,
          "time": 136.874863125,
          "velocity": 0.6062992125984252
        },
        {
          "duration": 0.04166662500000484,
          "durationTicks": 12,
          "midi": 68,
          "name": "G#4",
          "ticks": 39420,
          "time": 136.874863125,
          "velocity": 0.6062992125984252
        },
        {
          "duration": 0.04166662500000484,
          "durationTicks": 12,
          "midi": 64,
          "name": "E4",
          "ticks": 39432,
          "time": 136.91652975,
          "velocity": 0.6062992125984252
        },
        {
          "duration": 0.04166662500000484,
          "durationTicks": 12,
          "midi": 71,
          "name": "B4",
          "ticks": 39432,
          "time": 136.91652975,
          "velocity": 0.6062992125984252
        },
        {
          "duration": 0.04166662500000484,
          "durationTicks": 12,
          "midi": 68,
          "name": "G#4",
          "ticks": 39444,
          "time": 136.958196375,
          "velocity": 0.6062992125984252
        },
        {
          "duration": 0.04166662500000484,
          "durationTicks": 12,
          "midi": 73,
          "name": "C#5",
          "ticks": 39444,
          "time": 136.958196375,
          "velocity": 0.6062992125984252
        },
        {
          "duration": 0.04166662500000484,
          "durationTicks": 12,
          "midi": 64,
          "name": "E4",
          "ticks": 39504,
          "time": 137.1665295,
          "velocity": 0.6062992125984252
        },
        {
          "duration": 0.04166662500000484,
          "durationTicks": 12,
          "midi": 59,
          "name": "B3",
          "ticks": 39504,
          "time": 137.1665295,
          "velocity": 0.6062992125984252
        },
        {
          "duration": 0.04166662500000484,
          "durationTicks": 12,
          "midi": 68,
          "name": "G#4",
          "ticks": 39516,
          "time": 137.208196125,
          "velocity": 0.6062992125984252
        },
        {
          "duration": 0.04166662500000484,
          "durationTicks": 12,
          "midi": 61,
          "name": "C#4",
          "ticks": 39516,
          "time": 137.208196125,
          "velocity": 0.6062992125984252
        },
        {
          "duration": 0.04166662499997642,
          "durationTicks": 12,
          "midi": 64,
          "name": "E4",
          "ticks": 39528,
          "time": 137.24986275,
          "velocity": 0.6062992125984252
        },
        {
          "duration": 0.04166662499997642,
          "durationTicks": 12,
          "midi": 71,
          "name": "B4",
          "ticks": 39528,
          "time": 137.24986275,
          "velocity": 0.6062992125984252
        },
        {
          "duration": 0.04166662500000484,
          "durationTicks": 12,
          "midi": 68,
          "name": "G#4",
          "ticks": 39540,
          "time": 137.29152937499998,
          "velocity": 0.6062992125984252
        },
        {
          "duration": 0.04166662500000484,
          "durationTicks": 12,
          "midi": 73,
          "name": "C#5",
          "ticks": 39540,
          "time": 137.29152937499998,
          "velocity": 0.6062992125984252
        },
        {
          "duration": 0.04166662500000484,
          "durationTicks": 12,
          "midi": 71,
          "name": "B4",
          "ticks": 39552,
          "time": 137.333196,
          "velocity": 0.6062992125984252
        },
        {
          "duration": 0.04166662500000484,
          "durationTicks": 12,
          "midi": 76,
          "name": "E5",
          "ticks": 39552,
          "time": 137.333196,
          "velocity": 0.6062992125984252
        },
        {
          "duration": 0.04166662500000484,
          "durationTicks": 12,
          "midi": 73,
          "name": "C#5",
          "ticks": 39564,
          "time": 137.374862625,
          "velocity": 0.6062992125984252
        },
        {
          "duration": 0.04166662500000484,
          "durationTicks": 12,
          "midi": 80,
          "name": "G#5",
          "ticks": 39564,
          "time": 137.374862625,
          "velocity": 0.6062992125984252
        },
        {
          "duration": 0.04166662500000484,
          "durationTicks": 12,
          "midi": 81,
          "name": "A5",
          "ticks": 39576,
          "time": 137.41652925,
          "velocity": 0.6062992125984252
        },
        {
          "duration": 0.04166662500000484,
          "durationTicks": 12,
          "midi": 76,
          "name": "E5",
          "ticks": 39576,
          "time": 137.41652925,
          "velocity": 0.6062992125984252
        },
        {
          "duration": 0.04166662499997642,
          "durationTicks": 12,
          "midi": 64,
          "name": "E4",
          "ticks": 39600,
          "time": 137.4998625,
          "velocity": 0.6062992125984252
        },
        {
          "duration": 0.04166662499997642,
          "durationTicks": 12,
          "midi": 59,
          "name": "B3",
          "ticks": 39600,
          "time": 137.4998625,
          "velocity": 0.6062992125984252
        },
        {
          "duration": 0.04166662500000484,
          "durationTicks": 12,
          "midi": 68,
          "name": "G#4",
          "ticks": 39612,
          "time": 137.54152912499998,
          "velocity": 0.6062992125984252
        },
        {
          "duration": 0.04166662500000484,
          "durationTicks": 12,
          "midi": 61,
          "name": "C#4",
          "ticks": 39612,
          "time": 137.54152912499998,
          "velocity": 0.6062992125984252
        },
        {
          "duration": 0.04166662500000484,
          "durationTicks": 12,
          "midi": 71,
          "name": "B4",
          "ticks": 39624,
          "time": 137.58319575,
          "velocity": 0.6062992125984252
        },
        {
          "duration": 0.04166662500000484,
          "durationTicks": 12,
          "midi": 64,
          "name": "E4",
          "ticks": 39624,
          "time": 137.58319575,
          "velocity": 0.6062992125984252
        },
        {
          "duration": 0.04166662500000484,
          "durationTicks": 12,
          "midi": 73,
          "name": "C#5",
          "ticks": 39636,
          "time": 137.624862375,
          "velocity": 0.6062992125984252
        },
        {
          "duration": 0.04166662500000484,
          "durationTicks": 12,
          "midi": 68,
          "name": "G#4",
          "ticks": 39636,
          "time": 137.624862375,
          "velocity": 0.6062992125984252
        },
        {
          "duration": 0.04166662500000484,
          "durationTicks": 12,
          "midi": 71,
          "name": "B4",
          "ticks": 39648,
          "time": 137.666529,
          "velocity": 0.6062992125984252
        },
        {
          "duration": 0.04166662500000484,
          "durationTicks": 12,
          "midi": 76,
          "name": "E5",
          "ticks": 39648,
          "time": 137.666529,
          "velocity": 0.6062992125984252
        },
        {
          "duration": 0.04166662500000484,
          "durationTicks": 12,
          "midi": 73,
          "name": "C#5",
          "ticks": 39660,
          "time": 137.708195625,
          "velocity": 0.6062992125984252
        },
        {
          "duration": 0.04166662500000484,
          "durationTicks": 12,
          "midi": 80,
          "name": "G#5",
          "ticks": 39660,
          "time": 137.708195625,
          "velocity": 0.6062992125984252
        },
        {
          "duration": 0.04166662499997642,
          "durationTicks": 12,
          "midi": 76,
          "name": "E5",
          "ticks": 39672,
          "time": 137.74986225,
          "velocity": 0.6062992125984252
        },
        {
          "duration": 0.04166662499997642,
          "durationTicks": 12,
          "midi": 81,
          "name": "A5",
          "ticks": 39672,
          "time": 137.74986225,
          "velocity": 0.6062992125984252
        },
        {
          "duration": 0.04166662500000484,
          "durationTicks": 12,
          "midi": 76,
          "name": "E5",
          "ticks": 39696,
          "time": 137.8331955,
          "velocity": 0.6062992125984252
        },
        {
          "duration": 0.04166662500000484,
          "durationTicks": 12,
          "midi": 81,
          "name": "A5",
          "ticks": 39696,
          "time": 137.8331955,
          "velocity": 0.6062992125984252
        },
        {
          "duration": 0.04166662500000484,
          "durationTicks": 12,
          "midi": 80,
          "name": "G#5",
          "ticks": 39708,
          "time": 137.874862125,
          "velocity": 0.6062992125984252
        },
        {
          "duration": 0.04166662500000484,
          "durationTicks": 12,
          "midi": 73,
          "name": "C#5",
          "ticks": 39708,
          "time": 137.874862125,
          "velocity": 0.6062992125984252
        },
        {
          "duration": 0.04166662500000484,
          "durationTicks": 12,
          "midi": 71,
          "name": "B4",
          "ticks": 39720,
          "time": 137.91652875,
          "velocity": 0.6062992125984252
        },
        {
          "duration": 0.04166662500000484,
          "durationTicks": 12,
          "midi": 76,
          "name": "E5",
          "ticks": 39720,
          "time": 137.91652875,
          "velocity": 0.6062992125984252
        },
        {
          "duration": 0.04166662500000484,
          "durationTicks": 12,
          "midi": 68,
          "name": "G#4",
          "ticks": 39732,
          "time": 137.958195375,
          "velocity": 0.6062992125984252
        },
        {
          "duration": 0.04166662500000484,
          "durationTicks": 12,
          "midi": 73,
          "name": "C#5",
          "ticks": 39732,
          "time": 137.958195375,
          "velocity": 0.6062992125984252
        },
        {
          "duration": 0.04166662499997642,
          "durationTicks": 12,
          "midi": 81,
          "name": "A5",
          "ticks": 39744,
          "time": 137.999862,
          "velocity": 0.6062992125984252
        },
        {
          "duration": 0.04166662499997642,
          "durationTicks": 12,
          "midi": 76,
          "name": "E5",
          "ticks": 39744,
          "time": 137.999862,
          "velocity": 0.6062992125984252
        },
        {
          "duration": 0.04166662500000484,
          "durationTicks": 12,
          "midi": 73,
          "name": "C#5",
          "ticks": 39756,
          "time": 138.04152862499998,
          "velocity": 0.6062992125984252
        },
        {
          "duration": 0.04166662500000484,
          "durationTicks": 12,
          "midi": 80,
          "name": "G#5",
          "ticks": 39756,
          "time": 138.04152862499998,
          "velocity": 0.6062992125984252
        },
        {
          "duration": 0.04166662500000484,
          "durationTicks": 12,
          "midi": 71,
          "name": "B4",
          "ticks": 39768,
          "time": 138.08319525,
          "velocity": 0.6062992125984252
        },
        {
          "duration": 0.04166662500000484,
          "durationTicks": 12,
          "midi": 76,
          "name": "E5",
          "ticks": 39768,
          "time": 138.08319525,
          "velocity": 0.6062992125984252
        },
        {
          "duration": 0.04166662500000484,
          "durationTicks": 12,
          "midi": 68,
          "name": "G#4",
          "ticks": 39780,
          "time": 138.124861875,
          "velocity": 0.6062992125984252
        },
        {
          "duration": 0.04166662500000484,
          "durationTicks": 12,
          "midi": 73,
          "name": "C#5",
          "ticks": 39780,
          "time": 138.124861875,
          "velocity": 0.6062992125984252
        },
        {
          "duration": 0.04166662500000484,
          "durationTicks": 12,
          "midi": 64,
          "name": "E4",
          "ticks": 39792,
          "time": 138.1665285,
          "velocity": 0.6062992125984252
        },
        {
          "duration": 0.04166662500000484,
          "durationTicks": 12,
          "midi": 71,
          "name": "B4",
          "ticks": 39792,
          "time": 138.1665285,
          "velocity": 0.6062992125984252
        },
        {
          "duration": 0.04166662500000484,
          "durationTicks": 12,
          "midi": 61,
          "name": "C#4",
          "ticks": 39804,
          "time": 138.208195125,
          "velocity": 0.6062992125984252
        },
        {
          "duration": 0.04166662500000484,
          "durationTicks": 12,
          "midi": 68,
          "name": "G#4",
          "ticks": 39804,
          "time": 138.208195125,
          "velocity": 0.6062992125984252
        },
        {
          "duration": 0.04166662499997642,
          "durationTicks": 12,
          "midi": 59,
          "name": "B3",
          "ticks": 39816,
          "time": 138.24986175,
          "velocity": 0.6062992125984252
        },
        {
          "duration": 0.04166662499997642,
          "durationTicks": 12,
          "midi": 64,
          "name": "E4",
          "ticks": 39816,
          "time": 138.24986175,
          "velocity": 0.6062992125984252
        },
        {
          "duration": 0.04166662499997642,
          "durationTicks": 12,
          "midi": 81,
          "name": "A5",
          "ticks": 40032,
          "time": 138.999861,
          "velocity": 0.6062992125984252
        },
        {
          "duration": 0.04166662499997642,
          "durationTicks": 12,
          "midi": 76,
          "name": "E5",
          "ticks": 40032,
          "time": 138.999861,
          "velocity": 0.6062992125984252
        },
        {
          "duration": 0.04166662500000484,
          "durationTicks": 12,
          "midi": 74,
          "name": "D5",
          "ticks": 40044,
          "time": 139.041527625,
          "velocity": 0.6062992125984252
        },
        {
          "duration": 0.04166662500000484,
          "durationTicks": 12,
          "midi": 80,
          "name": "G#5",
          "ticks": 40044,
          "time": 139.041527625,
          "velocity": 0.6062992125984252
        },
        {
          "duration": 0.04166662500000484,
          "durationTicks": 12,
          "midi": 76,
          "name": "E5",
          "ticks": 40056,
          "time": 139.08319425,
          "velocity": 0.6062992125984252
        },
        {
          "duration": 0.04166662500000484,
          "durationTicks": 12,
          "midi": 71,
          "name": "B4",
          "ticks": 40056,
          "time": 139.08319425,
          "velocity": 0.6062992125984252
        },
        {
          "duration": 0.04166662500000484,
          "durationTicks": 12,
          "midi": 73,
          "name": "C#5",
          "ticks": 40068,
          "time": 139.124860875,
          "velocity": 0.6062992125984252
        },
        {
          "duration": 0.04166662500000484,
          "durationTicks": 12,
          "midi": 69,
          "name": "A4",
          "ticks": 40068,
          "time": 139.124860875,
          "velocity": 0.6062992125984252
        },
        {
          "duration": 0.04166662500000484,
          "durationTicks": 12,
          "midi": 71,
          "name": "B4",
          "ticks": 40080,
          "time": 139.1665275,
          "velocity": 0.6062992125984252
        },
        {
          "duration": 0.04166662500000484,
          "durationTicks": 12,
          "midi": 68,
          "name": "G#4",
          "ticks": 40080,
          "time": 139.1665275,
          "velocity": 0.6062992125984252
        },
        {
          "duration": 0.04166662499997642,
          "durationTicks": 12,
          "midi": 64,
          "name": "E4",
          "ticks": 40092,
          "time": 139.208194125,
          "velocity": 0.6062992125984252
        },
        {
          "duration": 0.04166662499997642,
          "durationTicks": 12,
          "midi": 69,
          "name": "A4",
          "ticks": 40092,
          "time": 139.208194125,
          "velocity": 0.6062992125984252
        },
        {
          "duration": 0.04166662500000484,
          "durationTicks": 12,
          "midi": 81,
          "name": "A5",
          "ticks": 40128,
          "time": 139.333194,
          "velocity": 0.6062992125984252
        },
        {
          "duration": 0.04166662500000484,
          "durationTicks": 12,
          "midi": 76,
          "name": "E5",
          "ticks": 40128,
          "time": 139.333194,
          "velocity": 0.6062992125984252
        },
        {
          "duration": 0.04166662500000484,
          "durationTicks": 12,
          "midi": 80,
          "name": "G#5",
          "ticks": 40140,
          "time": 139.374860625,
          "velocity": 0.6062992125984252
        },
        {
          "duration": 0.04166662500000484,
          "durationTicks": 12,
          "midi": 74,
          "name": "D5",
          "ticks": 40140,
          "time": 139.374860625,
          "velocity": 0.6062992125984252
        },
        {
          "duration": 0.04166662500000484,
          "durationTicks": 12,
          "midi": 76,
          "name": "E5",
          "ticks": 40152,
          "time": 139.41652725,
          "velocity": 0.6062992125984252
        },
        {
          "duration": 0.04166662500000484,
          "durationTicks": 12,
          "midi": 71,
          "name": "B4",
          "ticks": 40152,
          "time": 139.41652725,
          "velocity": 0.6062992125984252
        },
        {
          "duration": 0.04166662499997642,
          "durationTicks": 12,
          "midi": 69,
          "name": "A4",
          "ticks": 40164,
          "time": 139.458193875,
          "velocity": 0.6062992125984252
        },
        {
          "duration": 0.04166662499997642,
          "durationTicks": 12,
          "midi": 73,
          "name": "C#5",
          "ticks": 40164,
          "time": 139.458193875,
          "velocity": 0.6062992125984252
        },
        {
          "duration": 0.04166662500000484,
          "durationTicks": 12,
          "midi": 81,
          "name": "A5",
          "ticks": 40176,
          "time": 139.49986049999998,
          "velocity": 0.6062992125984252
        },
        {
          "duration": 0.04166662500000484,
          "durationTicks": 12,
          "midi": 76,
          "name": "E5",
          "ticks": 40176,
          "time": 139.49986049999998,
          "velocity": 0.6062992125984252
        },
        {
          "duration": 0.04166662500000484,
          "durationTicks": 12,
          "midi": 80,
          "name": "G#5",
          "ticks": 40188,
          "time": 139.541527125,
          "velocity": 0.6062992125984252
        },
        {
          "duration": 0.04166662500000484,
          "durationTicks": 12,
          "midi": 74,
          "name": "D5",
          "ticks": 40188,
          "time": 139.541527125,
          "velocity": 0.6062992125984252
        },
        {
          "duration": 0.04166662500000484,
          "durationTicks": 12,
          "midi": 71,
          "name": "B4",
          "ticks": 40200,
          "time": 139.58319375,
          "velocity": 0.6062992125984252
        },
        {
          "duration": 0.04166662500000484,
          "durationTicks": 12,
          "midi": 76,
          "name": "E5",
          "ticks": 40200,
          "time": 139.58319375,
          "velocity": 0.6062992125984252
        },
        {
          "duration": 0.04166662500000484,
          "durationTicks": 12,
          "midi": 73,
          "name": "C#5",
          "ticks": 40212,
          "time": 139.624860375,
          "velocity": 0.6062992125984252
        },
        {
          "duration": 0.04166662500000484,
          "durationTicks": 12,
          "midi": 69,
          "name": "A4",
          "ticks": 40212,
          "time": 139.624860375,
          "velocity": 0.6062992125984252
        },
        {
          "duration": 0.04166662500000484,
          "durationTicks": 12,
          "midi": 64,
          "name": "E4",
          "ticks": 40272,
          "time": 139.8331935,
          "velocity": 0.6062992125984252
        },
        {
          "duration": 0.04166662500000484,
          "durationTicks": 12,
          "midi": 68,
          "name": "G#4",
          "ticks": 40272,
          "time": 139.8331935,
          "velocity": 0.6062992125984252
        },
        {
          "duration": 0.04166662500000484,
          "durationTicks": 12,
          "midi": 71,
          "name": "B4",
          "ticks": 40284,
          "time": 139.874860125,
          "velocity": 0.6062992125984252
        },
        {
          "duration": 0.04166662500000484,
          "durationTicks": 12,
          "midi": 68,
          "name": "G#4",
          "ticks": 40284,
          "time": 139.874860125,
          "velocity": 0.6062992125984252
        },
        {
          "duration": 0.04166662500000484,
          "durationTicks": 12,
          "midi": 73,
          "name": "C#5",
          "ticks": 40296,
          "time": 139.91652675,
          "velocity": 0.6062992125984252
        },
        {
          "duration": 0.04166662500000484,
          "durationTicks": 12,
          "midi": 69,
          "name": "A4",
          "ticks": 40296,
          "time": 139.91652675,
          "velocity": 0.6062992125984252
        },
        {
          "duration": 0.04166662499997642,
          "durationTicks": 12,
          "midi": 71,
          "name": "B4",
          "ticks": 40308,
          "time": 139.958193375,
          "velocity": 0.6062992125984252
        },
        {
          "duration": 0.04166662499997642,
          "durationTicks": 12,
          "midi": 76,
          "name": "E5",
          "ticks": 40308,
          "time": 139.958193375,
          "velocity": 0.6062992125984252
        },
        {
          "duration": 0.04166662500000484,
          "durationTicks": 12,
          "midi": 73,
          "name": "C#5",
          "ticks": 40320,
          "time": 139.99985999999998,
          "velocity": 0.6062992125984252
        },
        {
          "duration": 0.04166662500000484,
          "durationTicks": 12,
          "midi": 80,
          "name": "G#5",
          "ticks": 40320,
          "time": 139.99985999999998,
          "velocity": 0.6062992125984252
        },
        {
          "duration": 0.04166662500000484,
          "durationTicks": 12,
          "midi": 76,
          "name": "E5",
          "ticks": 40332,
          "time": 140.041526625,
          "velocity": 0.6062992125984252
        },
        {
          "duration": 0.04166662500000484,
          "durationTicks": 12,
          "midi": 81,
          "name": "A5",
          "ticks": 40332,
          "time": 140.041526625,
          "velocity": 0.6062992125984252
        },
        {
          "duration": 0.04166662500000484,
          "durationTicks": 12,
          "midi": 64,
          "name": "E4",
          "ticks": 40368,
          "time": 140.1665265,
          "velocity": 0.6062992125984252
        },
        {
          "duration": 0.04166662500000484,
          "durationTicks": 12,
          "midi": 68,
          "name": "G#4",
          "ticks": 40368,
          "time": 140.1665265,
          "velocity": 0.6062992125984252
        },
        {
          "duration": 0.04166662499997642,
          "durationTicks": 12,
          "midi": 68,
          "name": "G#4",
          "ticks": 40380,
          "time": 140.208193125,
          "velocity": 0.6062992125984252
        },
        {
          "duration": 0.04166662499997642,
          "durationTicks": 12,
          "midi": 71,
          "name": "B4",
          "ticks": 40380,
          "time": 140.208193125,
          "velocity": 0.6062992125984252
        },
        {
          "duration": 0.04166662500000484,
          "durationTicks": 12,
          "midi": 69,
          "name": "A4",
          "ticks": 40392,
          "time": 140.24985974999998,
          "velocity": 0.6062992125984252
        },
        {
          "duration": 0.04166662500000484,
          "durationTicks": 12,
          "midi": 73,
          "name": "C#5",
          "ticks": 40392,
          "time": 140.24985974999998,
          "velocity": 0.6062992125984252
        },
        {
          "duration": 0.04166662500000484,
          "durationTicks": 12,
          "midi": 71,
          "name": "B4",
          "ticks": 40404,
          "time": 140.291526375,
          "velocity": 0.6062992125984252
        },
        {
          "duration": 0.04166662500000484,
          "durationTicks": 12,
          "midi": 76,
          "name": "E5",
          "ticks": 40404,
          "time": 140.291526375,
          "velocity": 0.6062992125984252
        },
        {
          "duration": 0.04166662500000484,
          "durationTicks": 12,
          "midi": 73,
          "name": "C#5",
          "ticks": 40416,
          "time": 140.333193,
          "velocity": 0.6062992125984252
        },
        {
          "duration": 0.04166662500000484,
          "durationTicks": 12,
          "midi": 80,
          "name": "G#5",
          "ticks": 40416,
          "time": 140.333193,
          "velocity": 0.6062992125984252
        },
        {
          "duration": 0.04166662500000484,
          "durationTicks": 12,
          "midi": 76,
          "name": "E5",
          "ticks": 40428,
          "time": 140.374859625,
          "velocity": 0.6062992125984252
        },
        {
          "duration": 0.04166662500000484,
          "durationTicks": 12,
          "midi": 81,
          "name": "A5",
          "ticks": 40464,
          "time": 140.49985949999999,
          "velocity": 0.6062992125984252
        },
        {
          "duration": 0.04166662500000484,
          "durationTicks": 12,
          "midi": 78,
          "name": "F#5",
          "ticks": 40464,
          "time": 140.49985949999999,
          "velocity": 0.6062992125984252
        },
        {
          "duration": 0.04166662500000484,
          "durationTicks": 12,
          "midi": 76,
          "name": "E5",
          "ticks": 40476,
          "time": 140.541526125,
          "velocity": 0.6062992125984252
        },
        {
          "duration": 0.04166662500000484,
          "durationTicks": 12,
          "midi": 80,
          "name": "G#5",
          "ticks": 40476,
          "time": 140.541526125,
          "velocity": 0.6062992125984252
        },
        {
          "duration": 0.04166662500000484,
          "durationTicks": 12,
          "midi": 76,
          "name": "E5",
          "ticks": 40488,
          "time": 140.58319275,
          "velocity": 0.6062992125984252
        },
        {
          "duration": 0.04166662500000484,
          "durationTicks": 12,
          "midi": 71,
          "name": "B4",
          "ticks": 40488,
          "time": 140.58319275,
          "velocity": 0.6062992125984252
        },
        {
          "duration": 0.04166662500000484,
          "durationTicks": 12,
          "midi": 68,
          "name": "G#4",
          "ticks": 40500,
          "time": 140.624859375,
          "velocity": 0.6062992125984252
        },
        {
          "duration": 0.04166662500000484,
          "durationTicks": 12,
          "midi": 73,
          "name": "C#5",
          "ticks": 40500,
          "time": 140.624859375,
          "velocity": 0.6062992125984252
        },
        {
          "duration": 0.04166662500000484,
          "durationTicks": 12,
          "midi": 76,
          "name": "E5",
          "ticks": 42384,
          "time": 147.1665195,
          "velocity": 0.4645669291338583
        },
        {
          "duration": 0.04166662500000484,
          "durationTicks": 12,
          "midi": 76,
          "name": "E5",
          "ticks": 42408,
          "time": 147.24985275,
          "velocity": 0.4645669291338583
        },
        {
          "duration": 0.04166662500000484,
          "durationTicks": 12,
          "midi": 88,
          "name": "E6",
          "ticks": 42432,
          "time": 147.33318599999998,
          "velocity": 0.4645669291338583
        },
        {
          "duration": 0.04166662500000484,
          "durationTicks": 12,
          "midi": 83,
          "name": "B5",
          "ticks": 42480,
          "time": 147.4998525,
          "velocity": 0.4645669291338583
        },
        {
          "duration": 0.04166662500000484,
          "durationTicks": 12,
          "midi": 81,
          "name": "A5",
          "ticks": 42528,
          "time": 147.666519,
          "velocity": 0.4645669291338583
        },
        {
          "duration": 0.04166662500000484,
          "durationTicks": 12,
          "midi": 76,
          "name": "E5",
          "ticks": 42576,
          "time": 147.83318549999998,
          "velocity": 0.4645669291338583
        },
        {
          "duration": 0.04166662500000484,
          "durationTicks": 12,
          "midi": 77,
          "name": "F5",
          "ticks": 42624,
          "time": 147.999852,
          "velocity": 0.4645669291338583
        },
        {
          "duration": 0.04166662500000484,
          "durationTicks": 12,
          "midi": 81,
          "name": "A5",
          "ticks": 42672,
          "time": 148.1665185,
          "velocity": 0.4645669291338583
        },
        {
          "duration": 0.04166662500000484,
          "durationTicks": 12,
          "midi": 88,
          "name": "E6",
          "ticks": 42720,
          "time": 148.333185,
          "velocity": 0.4645669291338583
        },
        {
          "duration": 0.04166662499997642,
          "durationTicks": 12,
          "midi": 77,
          "name": "F5",
          "ticks": 42768,
          "time": 148.4998515,
          "velocity": 0.4645669291338583
        },
        {
          "duration": 0.04166662500000484,
          "durationTicks": 12,
          "midi": 81,
          "name": "A5",
          "ticks": 42816,
          "time": 148.666518,
          "velocity": 0.4645669291338583
        },
        {
          "duration": 0.04166662500000484,
          "durationTicks": 12,
          "midi": 88,
          "name": "E6",
          "ticks": 42864,
          "time": 148.8331845,
          "velocity": 0.4645669291338583
        },
        {
          "duration": 0.04166662499997642,
          "durationTicks": 12,
          "midi": 91,
          "name": "G6",
          "ticks": 42912,
          "time": 148.999851,
          "velocity": 0.4645669291338583
        },
        {
          "duration": 0.04166662500000484,
          "durationTicks": 12,
          "midi": 89,
          "name": "F6",
          "ticks": 42960,
          "time": 149.1665175,
          "velocity": 0.4645669291338583
        },
        {
          "duration": 0.04166662500000484,
          "durationTicks": 12,
          "midi": 88,
          "name": "E6",
          "ticks": 43008,
          "time": 149.333184,
          "velocity": 0.4645669291338583
        },
        {
          "duration": 0.04166662499997642,
          "durationTicks": 12,
          "midi": 81,
          "name": "A5",
          "ticks": 43056,
          "time": 149.4998505,
          "velocity": 0.4645669291338583
        },
        {
          "duration": 0.04166662500000484,
          "durationTicks": 12,
          "midi": 71,
          "name": "B4",
          "ticks": 43104,
          "time": 149.666517,
          "velocity": 0.4645669291338583
        },
        {
          "duration": 0.04166662500000484,
          "durationTicks": 12,
          "midi": 73,
          "name": "C#5",
          "ticks": 43152,
          "time": 149.8331835,
          "velocity": 0.4645669291338583
        },
        {
          "duration": 0.04166662499997642,
          "durationTicks": 12,
          "midi": 76,
          "name": "E5",
          "ticks": 43200,
          "time": 149.99985,
          "velocity": 0.4645669291338583
        },
        {
          "duration": 0.04166662500000484,
          "durationTicks": 12,
          "midi": 81,
          "name": "A5",
          "ticks": 43248,
          "time": 150.1665165,
          "velocity": 0.4645669291338583
        },
        {
          "duration": 0.04166662500000484,
          "durationTicks": 12,
          "midi": 88,
          "name": "E6",
          "ticks": 43296,
          "time": 150.333183,
          "velocity": 0.4645669291338583
        },
        {
          "duration": 0.04166662500000484,
          "durationTicks": 12,
          "midi": 76,
          "name": "E5",
          "ticks": 43344,
          "time": 150.49984949999998,
          "velocity": 0.4645669291338583
        },
        {
          "duration": 0.04166662500000484,
          "durationTicks": 12,
          "midi": 81,
          "name": "A5",
          "ticks": 43392,
          "time": 150.666516,
          "velocity": 0.4645669291338583
        },
        {
          "duration": 0.04166662500000484,
          "durationTicks": 12,
          "midi": 88,
          "name": "E6",
          "ticks": 43440,
          "time": 150.8331825,
          "velocity": 0.4645669291338583
        },
        {
          "duration": 0.04166662500000484,
          "durationTicks": 12,
          "midi": 76,
          "name": "E5",
          "ticks": 43488,
          "time": 150.99984899999998,
          "velocity": 0.4645669291338583
        },
        {
          "duration": 0.04166662500000484,
          "durationTicks": 12,
          "midi": 81,
          "name": "A5",
          "ticks": 43536,
          "time": 151.1665155,
          "velocity": 0.4645669291338583
        },
        {
          "duration": 0.04166662500000484,
          "durationTicks": 12,
          "midi": 88,
          "name": "E6",
          "ticks": 43584,
          "time": 151.333182,
          "velocity": 0.4645669291338583
        },
        {
          "duration": 0.04166662500000484,
          "durationTicks": 12,
          "midi": 76,
          "name": "E5",
          "ticks": 43632,
          "time": 151.49984849999998,
          "velocity": 0.4645669291338583
        },
        {
          "duration": 0.04166662500000484,
          "durationTicks": 12,
          "midi": 81,
          "name": "A5",
          "ticks": 43680,
          "time": 151.666515,
          "velocity": 0.4645669291338583
        },
        {
          "duration": 0.04166662500000484,
          "durationTicks": 12,
          "midi": 88,
          "name": "E6",
          "ticks": 43728,
          "time": 151.8331815,
          "velocity": 0.4645669291338583
        },
        {
          "duration": 0.04513884375000998,
          "durationTicks": 13,
          "midi": 88,
          "name": "E6",
          "ticks": 43920,
          "time": 152.4998475,
          "velocity": 0.44881889763779526
        },
        {
          "duration": 0.04166662500000484,
          "durationTicks": 12,
          "midi": 76,
          "name": "E5",
          "ticks": 43920,
          "time": 152.4998475,
          "velocity": 0.4645669291338583
        },
        {
          "duration": 0.04513884375000998,
          "durationTicks": 13,
          "midi": 88,
          "name": "E6",
          "ticks": 43944,
          "time": 152.58318075,
          "velocity": 0.44881889763779526
        },
        {
          "duration": 0.04166662500000484,
          "durationTicks": 12,
          "midi": 76,
          "name": "E5",
          "ticks": 43944,
          "time": 152.58318075,
          "velocity": 0.4645669291338583
        },
        {
          "duration": 0.04513884374998156,
          "durationTicks": 13,
          "midi": 100,
          "name": "E7",
          "ticks": 43968,
          "time": 152.666514,
          "velocity": 0.44881889763779526
        },
        {
          "duration": 0.04166662499997642,
          "durationTicks": 12,
          "midi": 88,
          "name": "E6",
          "ticks": 43968,
          "time": 152.666514,
          "velocity": 0.4645669291338583
        },
        {
          "duration": 0.04513884375000998,
          "durationTicks": 13,
          "midi": 95,
          "name": "B6",
          "ticks": 44016,
          "time": 152.8331805,
          "velocity": 0.44881889763779526
        },
        {
          "duration": 0.04166662500000484,
          "durationTicks": 12,
          "midi": 83,
          "name": "B5",
          "ticks": 44016,
          "time": 152.8331805,
          "velocity": 0.4645669291338583
        },
        {
          "duration": 0.04513884375000998,
          "durationTicks": 13,
          "midi": 93,
          "name": "A6",
          "ticks": 44064,
          "time": 152.999847,
          "velocity": 0.44881889763779526
        },
        {
          "duration": 0.04166662500000484,
          "durationTicks": 12,
          "midi": 81,
          "name": "A5",
          "ticks": 44064,
          "time": 152.999847,
          "velocity": 0.4645669291338583
        },
        {
          "duration": 0.04513884374998156,
          "durationTicks": 13,
          "midi": 88,
          "name": "E6",
          "ticks": 44112,
          "time": 153.1665135,
          "velocity": 0.44881889763779526
        },
        {
          "duration": 0.04166662499997642,
          "durationTicks": 12,
          "midi": 76,
          "name": "E5",
          "ticks": 44112,
          "time": 153.1665135,
          "velocity": 0.4645669291338583
        },
        {
          "duration": 0.04166662500000484,
          "durationTicks": 12,
          "midi": 77,
          "name": "F5",
          "ticks": 44160,
          "time": 153.33318,
          "velocity": 0.4645669291338583
        },
        {
          "duration": 0.04166662500000484,
          "durationTicks": 12,
          "midi": 81,
          "name": "A5",
          "ticks": 44208,
          "time": 153.4998465,
          "velocity": 0.4645669291338583
        },
        {
          "duration": 0.04166662499997642,
          "durationTicks": 12,
          "midi": 88,
          "name": "E6",
          "ticks": 44256,
          "time": 153.666513,
          "velocity": 0.4645669291338583
        },
        {
          "duration": 0.04166662500000484,
          "durationTicks": 12,
          "midi": 77,
          "name": "F5",
          "ticks": 44304,
          "time": 153.8331795,
          "velocity": 0.4645669291338583
        },
        {
          "duration": 0.04166662500000484,
          "durationTicks": 12,
          "midi": 81,
          "name": "A5",
          "ticks": 44352,
          "time": 153.999846,
          "velocity": 0.4645669291338583
        },
        {
          "duration": 0.04166662500000484,
          "durationTicks": 12,
          "midi": 88,
          "name": "E6",
          "ticks": 44400,
          "time": 154.16651249999998,
          "velocity": 0.4645669291338583
        },
        {
          "duration": 0.04166662500000484,
          "durationTicks": 12,
          "midi": 91,
          "name": "G6",
          "ticks": 44448,
          "time": 154.333179,
          "velocity": 0.4645669291338583
        },
        {
          "duration": 0.04166662500000484,
          "durationTicks": 12,
          "midi": 89,
          "name": "F6",
          "ticks": 44496,
          "time": 154.4998455,
          "velocity": 0.4645669291338583
        },
        {
          "duration": 0.04166662500000484,
          "durationTicks": 12,
          "midi": 88,
          "name": "E6",
          "ticks": 44544,
          "time": 154.66651199999998,
          "velocity": 0.4645669291338583
        },
        {
          "duration": 0.04166662500000484,
          "durationTicks": 12,
          "midi": 81,
          "name": "A5",
          "ticks": 44592,
          "time": 154.8331785,
          "velocity": 0.4645669291338583
        },
        {
          "duration": 0.04166662500000484,
          "durationTicks": 12,
          "midi": 71,
          "name": "B4",
          "ticks": 44640,
          "time": 154.999845,
          "velocity": 0.4645669291338583
        },
        {
          "duration": 0.04166662500000484,
          "durationTicks": 12,
          "midi": 73,
          "name": "C#5",
          "ticks": 44688,
          "time": 155.16651149999998,
          "velocity": 0.4645669291338583
        },
        {
          "duration": 0.04166662500000484,
          "durationTicks": 12,
          "midi": 76,
          "name": "E5",
          "ticks": 44736,
          "time": 155.333178,
          "velocity": 0.4645669291338583
        },
        {
          "duration": 0.04166662500000484,
          "durationTicks": 12,
          "midi": 81,
          "name": "A5",
          "ticks": 44784,
          "time": 155.4998445,
          "velocity": 0.4645669291338583
        },
        {
          "duration": 0.04166662500000484,
          "durationTicks": 12,
          "midi": 88,
          "name": "E6",
          "ticks": 44832,
          "time": 155.66651099999999,
          "velocity": 0.4645669291338583
        },
        {
          "duration": 0.04166662499997642,
          "durationTicks": 12,
          "midi": 76,
          "name": "E5",
          "ticks": 44880,
          "time": 155.8331775,
          "velocity": 0.4645669291338583
        },
        {
          "duration": 0.04166662500000484,
          "durationTicks": 12,
          "midi": 81,
          "name": "A5",
          "ticks": 44928,
          "time": 155.999844,
          "velocity": 0.4645669291338583
        },
        {
          "duration": 0.04166662500000484,
          "durationTicks": 12,
          "midi": 88,
          "name": "E6",
          "ticks": 44976,
          "time": 156.1665105,
          "velocity": 0.4645669291338583
        },
        {
          "duration": 0.04166662499997642,
          "durationTicks": 12,
          "midi": 76,
          "name": "E5",
          "ticks": 45024,
          "time": 156.333177,
          "velocity": 0.4645669291338583
        },
        {
          "duration": 0.04166662500000484,
          "durationTicks": 12,
          "midi": 81,
          "name": "A5",
          "ticks": 45072,
          "time": 156.4998435,
          "velocity": 0.4645669291338583
        },
        {
          "duration": 0.04166662500000484,
          "durationTicks": 12,
          "midi": 88,
          "name": "E6",
          "ticks": 45120,
          "time": 156.66651,
          "velocity": 0.4645669291338583
        },
        {
          "duration": 0.04166662499997642,
          "durationTicks": 12,
          "midi": 76,
          "name": "E5",
          "ticks": 45168,
          "time": 156.8331765,
          "velocity": 0.4645669291338583
        }
      ],
      "endOfTrackTicks": 45698
    },
    {
      "channel": 8,
      "controlChanges": {
        "6": [
          {
            "number": 6,
            "ticks": 0,
            "time": 0,
            "value": 0.09448818897637795
          },
          {
            "number": 6,
            "ticks": 0,
            "time": 0,
            "value": 0.09448818897637795
          },
          {
            "number": 6,
            "ticks": 0,
            "time": 0,
            "value": 0.09448818897637795
          },
          {
            "number": 6,
            "ticks": 45696,
            "time": 158.666508,
            "value": 0.09448818897637795
          },
          {
            "number": 6,
            "ticks": 45698,
            "time": 158.67345243749998,
            "value": 0.09448818897637795
          }
        ],
        "7": [
          {
            "number": 7,
            "ticks": 0,
            "time": 0,
            "value": 0.7874015748031497
          },
          {
            "number": 7,
            "ticks": 0,
            "time": 0,
            "value": 0.7874015748031497
          },
          {
            "number": 7,
            "ticks": 0,
            "time": 0,
            "value": 0.7874015748031497
          },
          {
            "number": 7,
            "ticks": 0,
            "time": 0,
            "value": 0.7874015748031497
          },
          {
            "number": 7,
            "ticks": 45696,
            "time": 158.666508,
            "value": 0.7874015748031497
          },
          {
            "number": 7,
            "ticks": 45698,
            "time": 158.67345243749998,
            "value": 0.7874015748031497
          }
        ],
        "10": [
          {
            "number": 10,
            "ticks": 0,
            "time": 0,
            "value": 0.5039370078740157
          },
          {
            "number": 10,
            "ticks": 0,
            "time": 0,
            "value": 0.5039370078740157
          },
          {
            "number": 10,
            "ticks": 0,
            "time": 0,
            "value": 0.5039370078740157
          },
          {
            "number": 10,
            "ticks": 0,
            "time": 0,
            "value": 0.5039370078740157
          },
          {
            "number": 10,
            "ticks": 45696,
            "time": 158.666508,
            "value": 0.5039370078740157
          },
          {
            "number": 10,
            "ticks": 45698,
            "time": 158.67345243749998,
            "value": 0.5039370078740157
          }
        ],
        "100": [
          {
            "number": 100,
            "ticks": 0,
            "time": 0,
            "value": 0
          },
          {
            "number": 100,
            "ticks": 0,
            "time": 0,
            "value": 0
          },
          {
            "number": 100,
            "ticks": 0,
            "time": 0,
            "value": 0
          },
          {
            "number": 100,
            "ticks": 45696,
            "time": 158.666508,
            "value": 0
          },
          {
            "number": 100,
            "ticks": 45698,
            "time": 158.67345243749998,
            "value": 0
          }
        ],
        "101": [
          {
            "number": 101,
            "ticks": 0,
            "time": 0,
            "value": 0
          },
          {
            "number": 101,
            "ticks": 0,
            "time": 0,
            "value": 0
          },
          {
            "number": 101,
            "ticks": 0,
            "time": 0,
            "value": 0
          },
          {
            "number": 101,
            "ticks": 45696,
            "time": 158.666508,
            "value": 0
          },
          {
            "number": 101,
            "ticks": 45698,
            "time": 158.67345243749998,
            "value": 0
          }
        ]
      },
      "pitchBends": [
        {
          "ticks": 0,
          "time": 0,
          "value": 0
        },
        {
          "ticks": 0,
          "time": 0,
          "value": 0
        },
        {
          "ticks": 0,
          "time": 0,
          "value": 0
        },
        {
          "ticks": 0,
          "time": 0,
          "value": 0
        },
        {
          "ticks": 45696,
          "time": 158.666508,
          "value": 0
        },
        {
          "ticks": 45698,
          "time": 158.67345243749998,
          "value": 0
        }
      ],
      "instrument": {
        "family": "piano",
        "number": 0,
        "name": "acoustic grand piano"
      },
      "name": "Bass",
      "notes": [
        {
          "duration": 0.16666649999999983,
          "durationTicks": 48,
          "midi": 46,
          "name": "A#2",
          "ticks": 768,
          "time": 2.666664,
          "velocity": 0.7874015748031497
        },
        {
          "duration": 0.16666649999999983,
          "durationTicks": 48,
          "midi": 46,
          "name": "A#2",
          "ticks": 1248,
          "time": 4.333329,
          "velocity": 0.7874015748031497
        },
        {
          "duration": 0.16666649999999983,
          "durationTicks": 48,
          "midi": 58,
          "name": "A#3",
          "ticks": 1296,
          "time": 4.4999955,
          "velocity": 0.7874015748031497
        },
        {
          "duration": 0.16666649999999983,
          "durationTicks": 48,
          "midi": 60,
          "name": "C4",
          "ticks": 1344,
          "time": 4.666662,
          "velocity": 0.7874015748031497
        },
        {
          "duration": 0.16666650000000072,
          "durationTicks": 48,
          "midi": 58,
          "name": "A#3",
          "ticks": 1392,
          "time": 4.8333284999999995,
          "velocity": 0.7874015748031497
        },
        {
          "duration": 0.16666649999999983,
          "durationTicks": 48,
          "midi": 57,
          "name": "A3",
          "ticks": 1440,
          "time": 4.999995,
          "velocity": 0.7874015748031497
        },
        {
          "duration": 0.16666649999999983,
          "durationTicks": 48,
          "midi": 46,
          "name": "A#2",
          "ticks": 1488,
          "time": 5.1666615,
          "velocity": 0.7874015748031497
        },
        {
          "duration": 0.16666649999999983,
          "durationTicks": 48,
          "midi": 45,
          "name": "A2",
          "ticks": 1536,
          "time": 5.333328,
          "velocity": 0.7874015748031497
        },
        {
          "duration": 0.08333324999999991,
          "durationTicks": 24,
          "midi": 57,
          "name": "A3",
          "ticks": 2016,
          "time": 6.999993,
          "velocity": 0.7874015748031497
        },
        {
          "duration": 0.08333324999999991,
          "durationTicks": 24,
          "midi": 59,
          "name": "B3",
          "ticks": 2040,
          "time": 7.08332625,
          "velocity": 0.7874015748031497
        },
        {
          "duration": 0.16666649999999983,
          "durationTicks": 48,
          "midi": 57,
          "name": "A3",
          "ticks": 2064,
          "time": 7.1666595,
          "velocity": 0.7874015748031497
        },
        {
          "duration": 0.055555500000000535,
          "durationTicks": 16,
          "midi": 50,
          "name": "D3",
          "ticks": 2112,
          "time": 7.333326,
          "velocity": 0.7874015748031497
        },
        {
          "duration": 0.13888874999999956,
          "durationTicks": 40,
          "midi": 52,
          "name": "E3",
          "ticks": 2120,
          "time": 7.36110375,
          "velocity": 0.7874015748031497
        },
        {
          "duration": 0.16666650000000072,
          "durationTicks": 48,
          "midi": 50,
          "name": "D3",
          "ticks": 2160,
          "time": 7.499992499999999,
          "velocity": 0.7874015748031497
        },
        {
          "duration": 0.08333324999999991,
          "durationTicks": 24,
          "midi": 46,
          "name": "A#2",
          "ticks": 2208,
          "time": 7.666659,
          "velocity": 0.7874015748031497
        },
        {
          "duration": 0.08333324999999991,
          "durationTicks": 24,
          "midi": 48,
          "name": "C3",
          "ticks": 2232,
          "time": 7.74999225,
          "velocity": 0.7874015748031497
        },
        {
          "duration": 0.16666649999999983,
          "durationTicks": 48,
          "midi": 40,
          "name": "E2",
          "ticks": 2256,
          "time": 7.8333255,
          "velocity": 0.7874015748031497
        },
        {
          "duration": 0.16666650000000072,
          "durationTicks": 48,
          "midi": 46,
          "name": "A#2",
          "ticks": 2304,
          "time": 7.999992,
          "velocity": 0.7874015748031497
        },
        {
          "duration": 0.1666665000000016,
          "durationTicks": 48,
          "midi": 46,
          "name": "A#2",
          "ticks": 2784,
          "time": 9.666656999999999,
          "velocity": 0.7874015748031497
        },
        {
          "duration": 0.16666649999999983,
          "durationTicks": 48,
          "midi": 58,
          "name": "A#3",
          "ticks": 2832,
          "time": 9.8333235,
          "velocity": 0.7874015748031497
        },
        {
          "duration": 0.16666649999999983,
          "durationTicks": 48,
          "midi": 60,
          "name": "C4",
          "ticks": 2880,
          "time": 9.99999,
          "velocity": 0.7874015748031497
        },
        {
          "duration": 0.16666649999999983,
          "durationTicks": 48,
          "midi": 58,
          "name": "A#3",
          "ticks": 2928,
          "time": 10.1666565,
          "velocity": 0.7874015748031497
        },
        {
          "duration": 0.16666649999999983,
          "durationTicks": 48,
          "midi": 57,
          "name": "A3",
          "ticks": 2976,
          "time": 10.333323,
          "velocity": 0.7874015748031497
        },
        {
          "duration": 0.16666649999999983,
          "durationTicks": 48,
          "midi": 46,
          "name": "A#2",
          "ticks": 3024,
          "time": 10.4999895,
          "velocity": 0.7874015748031497
        },
        {
          "duration": 0.16666649999999983,
          "durationTicks": 48,
          "midi": 45,
          "name": "A2",
          "ticks": 3072,
          "time": 10.666656,
          "velocity": 0.7874015748031497
        },
        {
          "duration": 0.08333324999999903,
          "durationTicks": 24,
          "midi": 57,
          "name": "A3",
          "ticks": 3552,
          "time": 12.333321,
          "velocity": 0.7874015748031497
        },
        {
          "duration": 0.0833332500000008,
          "durationTicks": 24,
          "midi": 59,
          "name": "B3",
          "ticks": 3576,
          "time": 12.416654249999999,
          "velocity": 0.7874015748031497
        },
        {
          "duration": 0.16666649999999983,
          "durationTicks": 48,
          "midi": 57,
          "name": "A3",
          "ticks": 3600,
          "time": 12.4999875,
          "velocity": 0.7874015748031497
        },
        {
          "duration": 0.05555549999999876,
          "durationTicks": 16,
          "midi": 50,
          "name": "D3",
          "ticks": 3648,
          "time": 12.666654,
          "velocity": 0.7874015748031497
        },
        {
          "duration": 0.13888874999999956,
          "durationTicks": 40,
          "midi": 52,
          "name": "E3",
          "ticks": 3656,
          "time": 12.69443175,
          "velocity": 0.7874015748031497
        },
        {
          "duration": 0.16666649999999983,
          "durationTicks": 48,
          "midi": 50,
          "name": "D3",
          "ticks": 3696,
          "time": 12.8333205,
          "velocity": 0.7874015748031497
        },
        {
          "duration": 0.12499987499999854,
          "durationTicks": 36,
          "midi": 38,
          "name": "D2",
          "ticks": 3840,
          "time": 13.33332,
          "velocity": 0.7874015748031497
        },
        {
          "duration": 0.12499987499999854,
          "durationTicks": 36,
          "midi": 38,
          "name": "D2",
          "ticks": 3888,
          "time": 13.4999865,
          "velocity": 0.7874015748031497
        },
        {
          "duration": 0.04166662499999951,
          "durationTicks": 12,
          "midi": 38,
          "name": "D2",
          "ticks": 3984,
          "time": 13.8333195,
          "velocity": 0.7874015748031497
        },
        {
          "duration": 0.04166662500000129,
          "durationTicks": 12,
          "midi": 38,
          "name": "D2",
          "ticks": 4008,
          "time": 13.916652749999999,
          "velocity": 0.7874015748031497
        },
        {
          "duration": 0.12499987500000032,
          "durationTicks": 36,
          "midi": 38,
          "name": "D2",
          "ticks": 4032,
          "time": 13.999986,
          "velocity": 0.7874015748031497
        },
        {
          "duration": 0.12499987500000032,
          "durationTicks": 36,
          "midi": 38,
          "name": "D2",
          "ticks": 4080,
          "time": 14.1666525,
          "velocity": 0.7874015748031497
        },
        {
          "duration": 0.0833332500000008,
          "durationTicks": 24,
          "midi": 43,
          "name": "G2",
          "ticks": 4128,
          "time": 14.333319,
          "velocity": 0.7874015748031497
        },
        {
          "duration": 0.16666649999999983,
          "durationTicks": 48,
          "midi": 55,
          "name": "G3",
          "ticks": 4176,
          "time": 14.4999855,
          "velocity": 0.7874015748031497
        },
        {
          "duration": 0.12499987500000032,
          "durationTicks": 36,
          "midi": 43,
          "name": "G2",
          "ticks": 4224,
          "time": 14.666652,
          "velocity": 0.7874015748031497
        },
        {
          "duration": 0.0833332500000008,
          "durationTicks": 24,
          "midi": 43,
          "name": "G2",
          "ticks": 4272,
          "time": 14.833318499999999,
          "velocity": 0.7874015748031497
        },
        {
          "duration": 0.0833332500000008,
          "durationTicks": 24,
          "midi": 55,
          "name": "G3",
          "ticks": 4320,
          "time": 14.999984999999999,
          "velocity": 0.7874015748031497
        },
        {
          "duration": 0.16666649999999983,
          "durationTicks": 48,
          "midi": 55,
          "name": "G3",
          "ticks": 4368,
          "time": 15.1666515,
          "velocity": 0.7874015748031497
        },
        {
          "duration": 0.04166662499999951,
          "durationTicks": 12,
          "midi": 54,
          "name": "F#3",
          "ticks": 4380,
          "time": 15.208318125,
          "velocity": 0.7401574803149606
        },
        {
          "duration": 0.04166662499999951,
          "durationTicks": 12,
          "midi": 53,
          "name": "F3",
          "ticks": 4392,
          "time": 15.24998475,
          "velocity": 0.7244094488188977
        },
        {
          "duration": 0.04166662500000129,
          "durationTicks": 12,
          "midi": 52,
          "name": "E3",
          "ticks": 4404,
          "time": 15.291651374999999,
          "velocity": 0.7086614173228346
        },
        {
          "duration": 0.04166662499999951,
          "durationTicks": 12,
          "midi": 51,
          "name": "D#3",
          "ticks": 4416,
          "time": 15.333318,
          "velocity": 0.6929133858267716
        },
        {
          "duration": 0.04166662499999951,
          "durationTicks": 12,
          "midi": 50,
          "name": "D3",
          "ticks": 4428,
          "time": 15.374984625,
          "velocity": 0.6929133858267716
        },
        {
          "duration": 0.04166662499999951,
          "durationTicks": 12,
          "midi": 49,
          "name": "C#3",
          "ticks": 4440,
          "time": 15.41665125,
          "velocity": 0.6771653543307087
        },
        {
          "duration": 0.04166662500000129,
          "durationTicks": 12,
          "midi": 48,
          "name": "C3",
          "ticks": 4452,
          "time": 15.458317874999999,
          "velocity": 0.6614173228346457
        },
        {
          "duration": 0.04166662499999951,
          "durationTicks": 12,
          "midi": 47,
          "name": "B2",
          "ticks": 4464,
          "time": 15.4999845,
          "velocity": 0.6456692913385826
        },
        {
          "duration": 0.04166662499999951,
          "durationTicks": 12,
          "midi": 46,
          "name": "A#2",
          "ticks": 4476,
          "time": 15.541651125,
          "velocity": 0.6299212598425197
        },
        {
          "duration": 0.04166662500000129,
          "durationTicks": 12,
          "midi": 45,
          "name": "A2",
          "ticks": 4488,
          "time": 15.583317749999999,
          "velocity": 0.6141732283464567
        },
        {
          "duration": 0.04166662499999951,
          "durationTicks": 12,
          "midi": 44,
          "name": "G#2",
          "ticks": 4500,
          "time": 15.624984375,
          "velocity": 0.5984251968503937
        },
        {
          "duration": 0.08333324999999903,
          "durationTicks": 24,
          "midi": 43,
          "name": "G2",
          "ticks": 4512,
          "time": 15.666651,
          "velocity": 0.7874015748031497
        },
        {
          "duration": 0.08333324999999903,
          "durationTicks": 24,
          "midi": 43,
          "name": "G2",
          "ticks": 4560,
          "time": 15.8333175,
          "velocity": 0.7874015748031497
        },
        {
          "duration": 0.29166637500000014,
          "durationTicks": 84,
          "midi": 45,
          "name": "A2",
          "ticks": 4608,
          "time": 15.999984,
          "velocity": 0.7874015748031497
        },
        {
          "duration": 0.08333324999999903,
          "durationTicks": 24,
          "midi": 45,
          "name": "A2",
          "ticks": 4704,
          "time": 16.333317,
          "velocity": 0.7874015748031497
        },
        {
          "duration": 0.08333324999999903,
          "durationTicks": 24,
          "midi": 45,
          "name": "A2",
          "ticks": 4752,
          "time": 16.4999835,
          "velocity": 0.7874015748031497
        },
        {
          "duration": 0.08333324999999903,
          "durationTicks": 24,
          "midi": 45,
          "name": "A2",
          "ticks": 4800,
          "time": 16.66665,
          "velocity": 0.7874015748031497
        },
        {
          "duration": 0.08333325000000258,
          "durationTicks": 24,
          "midi": 45,
          "name": "A2",
          "ticks": 4848,
          "time": 16.8333165,
          "velocity": 0.7874015748031497
        },
        {
          "duration": 0.08333324999999903,
          "durationTicks": 24,
          "midi": 45,
          "name": "A2",
          "ticks": 4896,
          "time": 16.999983,
          "velocity": 0.7874015748031497
        },
        {
          "duration": 0.08333325000000258,
          "durationTicks": 24,
          "midi": 45,
          "name": "A2",
          "ticks": 4944,
          "time": 17.1666495,
          "velocity": 0.7874015748031497
        },
        {
          "duration": 0.08333324999999903,
          "durationTicks": 24,
          "midi": 49,
          "name": "C#3",
          "ticks": 4992,
          "time": 17.333316,
          "velocity": 0.7874015748031497
        },
        {
          "duration": 0.08333325000000258,
          "durationTicks": 24,
          "midi": 49,
          "name": "C#3",
          "ticks": 5040,
          "time": 17.499982499999998,
          "velocity": 0.7874015748031497
        },
        {
          "duration": 0.08333324999999903,
          "durationTicks": 24,
          "midi": 59,
          "name": "B3",
          "ticks": 5088,
          "time": 17.666649,
          "velocity": 0.7874015748031497
        },
        {
          "duration": 0.08333325000000258,
          "durationTicks": 24,
          "midi": 61,
          "name": "C#4",
          "ticks": 5112,
          "time": 17.74998225,
          "velocity": 0.7874015748031497
        },
        {
          "duration": 0.16666649999999805,
          "durationTicks": 48,
          "midi": 59,
          "name": "B3",
          "ticks": 5136,
          "time": 17.8333155,
          "velocity": 0.7874015748031497
        },
        {
          "duration": 0.08333324999999903,
          "durationTicks": 24,
          "midi": 55,
          "name": "G3",
          "ticks": 5184,
          "time": 17.999982,
          "velocity": 0.7874015748031497
        },
        {
          "duration": 0.16666649999999805,
          "durationTicks": 48,
          "midi": 57,
          "name": "A3",
          "ticks": 5196,
          "time": 18.041648625,
          "velocity": 0.7874015748031497
        },
        {
          "duration": 0.16666649999999805,
          "durationTicks": 48,
          "midi": 52,
          "name": "E3",
          "ticks": 5232,
          "time": 18.1666485,
          "velocity": 0.7874015748031497
        },
        {
          "duration": 0.1666665000000016,
          "durationTicks": 48,
          "midi": 49,
          "name": "C#3",
          "ticks": 5280,
          "time": 18.333315,
          "velocity": 0.7874015748031497
        },
        {
          "duration": 0.16666649999999805,
          "durationTicks": 48,
          "midi": 45,
          "name": "A2",
          "ticks": 5328,
          "time": 18.4999815,
          "velocity": 0.7874015748031497
        },
        {
          "duration": 0.1666665000000016,
          "durationTicks": 48,
          "midi": 47,
          "name": "B2",
          "ticks": 5376,
          "time": 18.666648,
          "velocity": 0.7874015748031497
        },
        {
          "duration": 0.04166662500000129,
          "durationTicks": 12,
          "midi": 35,
          "name": "B1",
          "ticks": 5520,
          "time": 19.1666475,
          "velocity": 0.7874015748031497
        },
        {
          "duration": 0.04166662500000129,
          "durationTicks": 12,
          "midi": 35,
          "name": "B1",
          "ticks": 5544,
          "time": 19.24998075,
          "velocity": 0.7874015748031497
        },
        {
          "duration": 0.12499987500000032,
          "durationTicks": 36,
          "midi": 35,
          "name": "B1",
          "ticks": 5568,
          "time": 19.333313999999998,
          "velocity": 0.7874015748031497
        },
        {
          "duration": 0.12499987500000032,
          "durationTicks": 36,
          "midi": 35,
          "name": "B1",
          "ticks": 5616,
          "time": 19.4999805,
          "velocity": 0.7874015748031497
        },
        {
          "duration": 0.08333324999999903,
          "durationTicks": 24,
          "midi": 43,
          "name": "G2",
          "ticks": 5664,
          "time": 19.666647,
          "velocity": 0.7874015748031497
        },
        {
          "duration": 0.1666665000000016,
          "durationTicks": 48,
          "midi": 55,
          "name": "G3",
          "ticks": 5712,
          "time": 19.8333135,
          "velocity": 0.7874015748031497
        },
        {
          "duration": 0.12499987500000032,
          "durationTicks": 36,
          "midi": 43,
          "name": "G2",
          "ticks": 5760,
          "time": 19.99998,
          "velocity": 0.7874015748031497
        },
        {
          "duration": 0.08333324999999903,
          "durationTicks": 24,
          "midi": 43,
          "name": "G2",
          "ticks": 5808,
          "time": 20.1666465,
          "velocity": 0.7874015748031497
        },
        {
          "duration": 0.08333324999999903,
          "durationTicks": 24,
          "midi": 55,
          "name": "G3",
          "ticks": 5856,
          "time": 20.333313,
          "velocity": 0.7874015748031497
        },
        {
          "duration": 0.1666665000000016,
          "durationTicks": 48,
          "midi": 55,
          "name": "G3",
          "ticks": 5904,
          "time": 20.4999795,
          "velocity": 0.7874015748031497
        },
        {
          "duration": 0.04166662500000129,
          "durationTicks": 12,
          "midi": 54,
          "name": "F#3",
          "ticks": 5916,
          "time": 20.541646125,
          "velocity": 0.7401574803149606
        },
        {
          "duration": 0.04166662499999774,
          "durationTicks": 12,
          "midi": 53,
          "name": "F3",
          "ticks": 5928,
          "time": 20.58331275,
          "velocity": 0.7244094488188977
        },
        {
          "duration": 0.04166662500000129,
          "durationTicks": 12,
          "midi": 52,
          "name": "E3",
          "ticks": 5940,
          "time": 20.624979375,
          "velocity": 0.7086614173228346
        },
        {
          "duration": 0.04166662499999774,
          "durationTicks": 12,
          "midi": 51,
          "name": "D#3",
          "ticks": 5952,
          "time": 20.666646,
          "velocity": 0.6929133858267716
        },
        {
          "duration": 0.04166662500000129,
          "durationTicks": 12,
          "midi": 50,
          "name": "D3",
          "ticks": 5964,
          "time": 20.708312624999998,
          "velocity": 0.6929133858267716
        },
        {
          "duration": 0.04166662500000129,
          "durationTicks": 12,
          "midi": 49,
          "name": "C#3",
          "ticks": 5976,
          "time": 20.74997925,
          "velocity": 0.6771653543307087
        },
        {
          "duration": 0.04166662499999774,
          "durationTicks": 12,
          "midi": 48,
          "name": "C3",
          "ticks": 5988,
          "time": 20.791645875,
          "velocity": 0.6614173228346457
        },
        {
          "duration": 0.04166662500000129,
          "durationTicks": 12,
          "midi": 47,
          "name": "B2",
          "ticks": 6000,
          "time": 20.833312499999998,
          "velocity": 0.6456692913385826
        },
        {
          "duration": 0.04166662500000129,
          "durationTicks": 12,
          "midi": 46,
          "name": "A#2",
          "ticks": 6012,
          "time": 20.874979125,
          "velocity": 0.6299212598425197
        },
        {
          "duration": 0.04166662499999774,
          "durationTicks": 12,
          "midi": 45,
          "name": "A2",
          "ticks": 6024,
          "time": 20.91664575,
          "velocity": 0.6141732283464567
        },
        {
          "duration": 0.04166662500000129,
          "durationTicks": 12,
          "midi": 44,
          "name": "G#2",
          "ticks": 6036,
          "time": 20.958312375,
          "velocity": 0.5984251968503937
        },
        {
          "duration": 0.08333324999999903,
          "durationTicks": 24,
          "midi": 43,
          "name": "G2",
          "ticks": 6048,
          "time": 20.999979,
          "velocity": 0.7874015748031497
        },
        {
          "duration": 0.08333325000000258,
          "durationTicks": 24,
          "midi": 43,
          "name": "G2",
          "ticks": 6096,
          "time": 21.166645499999998,
          "velocity": 0.7874015748031497
        },
        {
          "duration": 0.24999975000000063,
          "durationTicks": 72,
          "midi": 42,
          "name": "F#2",
          "ticks": 6144,
          "time": 21.333312,
          "velocity": 0.7874015748031497
        },
        {
          "duration": 0.08333324999999903,
          "durationTicks": 24,
          "midi": 42,
          "name": "F#2",
          "ticks": 6240,
          "time": 21.666645,
          "velocity": 0.7874015748031497
        },
        {
          "duration": 0.08333324999999903,
          "durationTicks": 24,
          "midi": 42,
          "name": "F#2",
          "ticks": 6288,
          "time": 21.8333115,
          "velocity": 0.7874015748031497
        },
        {
          "duration": 0.08333324999999903,
          "durationTicks": 24,
          "midi": 42,
          "name": "F#2",
          "ticks": 6336,
          "time": 21.999978,
          "velocity": 0.7874015748031497
        },
        {
          "duration": 0.08333324999999903,
          "durationTicks": 24,
          "midi": 42,
          "name": "F#2",
          "ticks": 6384,
          "time": 22.1666445,
          "velocity": 0.7874015748031497
        },
        {
          "duration": 0.08333325000000258,
          "durationTicks": 24,
          "midi": 42,
          "name": "F#2",
          "ticks": 6432,
          "time": 22.333311,
          "velocity": 0.7874015748031497
        },
        {
          "duration": 0.08333324999999903,
          "durationTicks": 24,
          "midi": 42,
          "name": "F#2",
          "ticks": 6480,
          "time": 22.4999775,
          "velocity": 0.7874015748031497
        },
        {
          "duration": 0.2083331250000029,
          "durationTicks": 60,
          "midi": 40,
          "name": "E2",
          "ticks": 6528,
          "time": 22.666643999999998,
          "velocity": 0.7874015748031497
        },
        {
          "duration": 0.08333325000000258,
          "durationTicks": 24,
          "midi": 64,
          "name": "E4",
          "ticks": 6624,
          "time": 22.999976999999998,
          "velocity": 0.7874015748031497
        },
        {
          "duration": 0.12499987500000032,
          "durationTicks": 36,
          "midi": 66,
          "name": "F#4",
          "ticks": 6636,
          "time": 23.041643625,
          "velocity": 0.7874015748031497
        },
        {
          "duration": 0.1666665000000016,
          "durationTicks": 48,
          "midi": 64,
          "name": "E4",
          "ticks": 6672,
          "time": 23.1666435,
          "velocity": 0.7874015748031497
        },
        {
          "duration": 0.08333324999999903,
          "durationTicks": 24,
          "midi": 59,
          "name": "B3",
          "ticks": 6720,
          "time": 23.33331,
          "velocity": 0.7874015748031497
        },
        {
          "duration": 0.12499987500000032,
          "durationTicks": 36,
          "midi": 61,
          "name": "C#4",
          "ticks": 6732,
          "time": 23.374976625,
          "velocity": 0.7874015748031497
        },
        {
          "duration": 0.1666665000000016,
          "durationTicks": 48,
          "midi": 59,
          "name": "B3",
          "ticks": 6768,
          "time": 23.4999765,
          "velocity": 0.7874015748031497
        },
        {
          "duration": 0.08333324999999903,
          "durationTicks": 24,
          "midi": 55,
          "name": "G3",
          "ticks": 6816,
          "time": 23.666643,
          "velocity": 0.7874015748031497
        },
        {
          "duration": 0.1666665000000016,
          "durationTicks": 48,
          "midi": 57,
          "name": "A3",
          "ticks": 6828,
          "time": 23.708309625,
          "velocity": 0.7874015748031497
        },
        {
          "duration": 0.08333325000000258,
          "durationTicks": 24,
          "midi": 59,
          "name": "B3",
          "ticks": 9888,
          "time": 34.333299,
          "velocity": 0.7874015748031497
        },
        {
          "duration": 0.024305531250000456,
          "durationTicks": 7,
          "midi": 58,
          "name": "A#3",
          "ticks": 9900,
          "time": 34.374965625,
          "velocity": 0.7874015748031497
        },
        {
          "duration": 0.02430553124999335,
          "durationTicks": 7,
          "midi": 57,
          "name": "A3",
          "ticks": 9907,
          "time": 34.39927115625,
          "velocity": 0.7874015748031497
        },
        {
          "duration": 0.024305531250000456,
          "durationTicks": 7,
          "midi": 56,
          "name": "G#3",
          "ticks": 9914,
          "time": 34.423576687499995,
          "velocity": 0.7874015748031497
        },
        {
          "duration": 0.02430553125000756,
          "durationTicks": 7,
          "midi": 55,
          "name": "G3",
          "ticks": 9921,
          "time": 34.447882218749996,
          "velocity": 0.7874015748031497
        },
        {
          "duration": 0.02430553124999335,
          "durationTicks": 7,
          "midi": 54,
          "name": "F#3",
          "ticks": 9928,
          "time": 34.47218775,
          "velocity": 0.7874015748031497
        },
        {
          "duration": 0.024305531250000456,
          "durationTicks": 7,
          "midi": 53,
          "name": "F3",
          "ticks": 9935,
          "time": 34.49649328125,
          "velocity": 0.7874015748031497
        },
        {
          "duration": 0.02777774999999849,
          "durationTicks": 8,
          "midi": 52,
          "name": "E3",
          "ticks": 9942,
          "time": 34.5207988125,
          "velocity": 0.7874015748031497
        },
        {
          "duration": 0.024305531250000456,
          "durationTicks": 7,
          "midi": 51,
          "name": "D#3",
          "ticks": 9950,
          "time": 34.548576562499996,
          "velocity": 0.7874015748031497
        },
        {
          "duration": 0.02430553125000756,
          "durationTicks": 7,
          "midi": 50,
          "name": "D3",
          "ticks": 9957,
          "time": 34.572882093749996,
          "velocity": 0.7874015748031497
        },
        {
          "duration": 0.02430553124999335,
          "durationTicks": 7,
          "midi": 49,
          "name": "C#3",
          "ticks": 9964,
          "time": 34.597187625000004,
          "velocity": 0.7874015748031497
        },
        {
          "duration": 0.024305531250000456,
          "durationTicks": 7,
          "midi": 48,
          "name": "C3",
          "ticks": 9971,
          "time": 34.62149315625,
          "velocity": 0.7874015748031497
        },
        {
          "duration": 0.024305531250000456,
          "durationTicks": 7,
          "midi": 47,
          "name": "B2",
          "ticks": 9978,
          "time": 34.6457986875,
          "velocity": 0.7874015748031497
        },
        {
          "duration": 0.16666649999999805,
          "durationTicks": 48,
          "midi": 45,
          "name": "A2",
          "ticks": 9984,
          "time": 34.666632,
          "velocity": 0.7874015748031497
        },
        {
          "duration": 0.3333330000000032,
          "durationTicks": 96,
          "midi": 45,
          "name": "A2",
          "ticks": 10752,
          "time": 37.333296,
          "velocity": 0.7874015748031497
        },
        {
          "duration": 0.12499987500000032,
          "durationTicks": 36,
          "midi": 45,
          "name": "A2",
          "ticks": 10848,
          "time": 37.666629,
          "velocity": 0.7874015748031497
        },
        {
          "duration": 0.12499987500000032,
          "durationTicks": 36,
          "midi": 45,
          "name": "A2",
          "ticks": 10896,
          "time": 37.8332955,
          "velocity": 0.7874015748031497
        },
        {
          "duration": 0.12499987500000032,
          "durationTicks": 36,
          "midi": 45,
          "name": "A2",
          "ticks": 10944,
          "time": 37.999962,
          "velocity": 0.7874015748031497
        },
        {
          "duration": 0.12499987500000032,
          "durationTicks": 36,
          "midi": 45,
          "name": "A2",
          "ticks": 10992,
          "time": 38.1666285,
          "velocity": 0.7874015748031497
        },
        {
          "duration": 0.12499987500000032,
          "durationTicks": 36,
          "midi": 45,
          "name": "A2",
          "ticks": 11040,
          "time": 38.333295,
          "velocity": 0.7874015748031497
        },
        {
          "duration": 0.29166637499999837,
          "durationTicks": 84,
          "midi": 45,
          "name": "A2",
          "ticks": 11088,
          "time": 38.4999615,
          "velocity": 0.7874015748031497
        },
        {
          "duration": 0.12499987500000032,
          "durationTicks": 36,
          "midi": 45,
          "name": "A2",
          "ticks": 11184,
          "time": 38.8332945,
          "velocity": 0.7874015748031497
        },
        {
          "duration": 0.12499987500000032,
          "durationTicks": 36,
          "midi": 45,
          "name": "A2",
          "ticks": 11232,
          "time": 38.999961,
          "velocity": 0.7874015748031497
        },
        {
          "duration": 0.12499987500000032,
          "durationTicks": 36,
          "midi": 45,
          "name": "A2",
          "ticks": 11280,
          "time": 39.1666275,
          "velocity": 0.7874015748031497
        },
        {
          "duration": 0.12499987499999321,
          "durationTicks": 36,
          "midi": 40,
          "name": "E2",
          "ticks": 11328,
          "time": 39.333294,
          "velocity": 0.7874015748031497
        },
        {
          "duration": 0.12499987500000032,
          "durationTicks": 36,
          "midi": 52,
          "name": "E3",
          "ticks": 11376,
          "time": 39.4999605,
          "velocity": 0.7874015748031497
        },
        {
          "duration": 0.29166637499999837,
          "durationTicks": 84,
          "midi": 46,
          "name": "A#2",
          "ticks": 11424,
          "time": 39.666627,
          "velocity": 0.7874015748031497
        },
        {
          "duration": 0.29166637499999837,
          "durationTicks": 84,
          "midi": 45,
          "name": "A2",
          "ticks": 11520,
          "time": 39.99996,
          "velocity": 0.7874015748031497
        },
        {
          "duration": 0.12499987500000032,
          "durationTicks": 36,
          "midi": 45,
          "name": "A2",
          "ticks": 11616,
          "time": 40.333293,
          "velocity": 0.7874015748031497
        },
        {
          "duration": 0.12499987500000032,
          "durationTicks": 36,
          "midi": 45,
          "name": "A2",
          "ticks": 11664,
          "time": 40.499959499999996,
          "velocity": 0.7874015748031497
        },
        {
          "duration": 0.12499987500000032,
          "durationTicks": 36,
          "midi": 45,
          "name": "A2",
          "ticks": 11712,
          "time": 40.666626,
          "velocity": 0.7874015748031497
        },
        {
          "duration": 0.12499987500000032,
          "durationTicks": 36,
          "midi": 45,
          "name": "A2",
          "ticks": 11760,
          "time": 40.8332925,
          "velocity": 0.7874015748031497
        },
        {
          "duration": 0.12499987500000032,
          "durationTicks": 36,
          "midi": 45,
          "name": "A2",
          "ticks": 11808,
          "time": 40.999959,
          "velocity": 0.7874015748031497
        },
        {
          "duration": 0.12499987499999321,
          "durationTicks": 36,
          "midi": 45,
          "name": "A2",
          "ticks": 11856,
          "time": 41.1666255,
          "velocity": 0.7874015748031497
        },
        {
          "duration": 0.12499987500000032,
          "durationTicks": 36,
          "midi": 45,
          "name": "A2",
          "ticks": 11904,
          "time": 41.333292,
          "velocity": 0.7874015748031497
        },
        {
          "duration": 0.12499987500000032,
          "durationTicks": 36,
          "midi": 45,
          "name": "A2",
          "ticks": 11952,
          "time": 41.4999585,
          "velocity": 0.7874015748031497
        },
        {
          "duration": 0.12499987500000032,
          "durationTicks": 36,
          "midi": 45,
          "name": "A2",
          "ticks": 12000,
          "time": 41.666624999999996,
          "velocity": 0.7874015748031497
        },
        {
          "duration": 0.12499987500000032,
          "durationTicks": 36,
          "midi": 47,
          "name": "B2",
          "ticks": 12048,
          "time": 41.8332915,
          "velocity": 0.7874015748031497
        },
        {
          "duration": 0.12499987500000032,
          "durationTicks": 36,
          "midi": 47,
          "name": "B2",
          "ticks": 12096,
          "time": 41.999958,
          "velocity": 0.7874015748031497
        },
        {
          "duration": 0.12499987500000032,
          "durationTicks": 36,
          "midi": 47,
          "name": "B2",
          "ticks": 12144,
          "time": 42.1666245,
          "velocity": 0.7874015748031497
        },
        {
          "duration": 0.2916663750000055,
          "durationTicks": 84,
          "midi": 46,
          "name": "A#2",
          "ticks": 12192,
          "time": 42.333290999999996,
          "velocity": 0.7874015748031497
        },
        {
          "duration": 0.29166637499999837,
          "durationTicks": 84,
          "midi": 45,
          "name": "A2",
          "ticks": 12288,
          "time": 42.666624,
          "velocity": 0.7874015748031497
        },
        {
          "duration": 0.12499987500000032,
          "durationTicks": 36,
          "midi": 45,
          "name": "A2",
          "ticks": 12384,
          "time": 42.999957,
          "velocity": 0.7874015748031497
        },
        {
          "duration": 0.12499987500000032,
          "durationTicks": 36,
          "midi": 45,
          "name": "A2",
          "ticks": 12432,
          "time": 43.1666235,
          "velocity": 0.7874015748031497
        },
        {
          "duration": 0.12499987500000032,
          "durationTicks": 36,
          "midi": 45,
          "name": "A2",
          "ticks": 12480,
          "time": 43.33329,
          "velocity": 0.7874015748031497
        },
        {
          "duration": 0.12499987500000032,
          "durationTicks": 36,
          "midi": 45,
          "name": "A2",
          "ticks": 12528,
          "time": 43.499956499999996,
          "velocity": 0.7874015748031497
        },
        {
          "duration": 0.12499987500000032,
          "durationTicks": 36,
          "midi": 45,
          "name": "A2",
          "ticks": 12576,
          "time": 43.666623,
          "velocity": 0.7874015748031497
        },
        {
          "duration": 0.29166637499999837,
          "durationTicks": 84,
          "midi": 45,
          "name": "A2",
          "ticks": 12624,
          "time": 43.8332895,
          "velocity": 0.7874015748031497
        },
        {
          "duration": 0.12499987500000032,
          "durationTicks": 36,
          "midi": 45,
          "name": "A2",
          "ticks": 12720,
          "time": 44.166622499999995,
          "velocity": 0.7874015748031497
        },
        {
          "duration": 0.12499987500000032,
          "durationTicks": 36,
          "midi": 45,
          "name": "A2",
          "ticks": 12768,
          "time": 44.333289,
          "velocity": 0.7874015748031497
        },
        {
          "duration": 0.12499987500000032,
          "durationTicks": 36,
          "midi": 45,
          "name": "A2",
          "ticks": 12816,
          "time": 44.4999555,
          "velocity": 0.7874015748031497
        },
        {
          "duration": 0.12499987500000032,
          "durationTicks": 36,
          "midi": 40,
          "name": "E2",
          "ticks": 12864,
          "time": 44.666622,
          "velocity": 0.7874015748031497
        },
        {
          "duration": 0.12499987500000032,
          "durationTicks": 36,
          "midi": 52,
          "name": "E3",
          "ticks": 12912,
          "time": 44.8332885,
          "velocity": 0.7874015748031497
        },
        {
          "duration": 0.29166637499999837,
          "durationTicks": 84,
          "midi": 46,
          "name": "A#2",
          "ticks": 12960,
          "time": 44.999955,
          "velocity": 0.7874015748031497
        },
        {
          "duration": 0.2916663750000055,
          "durationTicks": 84,
          "midi": 45,
          "name": "A2",
          "ticks": 13056,
          "time": 45.333287999999996,
          "velocity": 0.7874015748031497
        },
        {
          "duration": 0.12499987500000032,
          "durationTicks": 36,
          "midi": 45,
          "name": "A2",
          "ticks": 13152,
          "time": 45.666621,
          "velocity": 0.7874015748031497
        },
        {
          "duration": 0.12499987500000032,
          "durationTicks": 36,
          "midi": 56,
          "name": "G#3",
          "ticks": 13200,
          "time": 45.8332875,
          "velocity": 0.7874015748031497
        },
        {
          "duration": 0.12499987500000032,
          "durationTicks": 36,
          "midi": 57,
          "name": "A3",
          "ticks": 13248,
          "time": 45.999953999999995,
          "velocity": 0.7874015748031497
        },
        {
          "duration": 0.12499987500000032,
          "durationTicks": 36,
          "midi": 52,
          "name": "E3",
          "ticks": 13296,
          "time": 46.1666205,
          "velocity": 0.7874015748031497
        },
        {
          "duration": 0.12499987500000032,
          "durationTicks": 36,
          "midi": 45,
          "name": "A2",
          "ticks": 13344,
          "time": 46.333287,
          "velocity": 0.7874015748031497
        },
        {
          "duration": 0.49999950000000126,
          "durationTicks": 144,
          "midi": 41,
          "name": "F2",
          "ticks": 13392,
          "time": 46.4999535,
          "velocity": 0.7874015748031497
        },
        {
          "duration": 0.3333330000000032,
          "durationTicks": 96,
          "midi": 48,
          "name": "C3",
          "ticks": 13536,
          "time": 46.999953,
          "velocity": 0.7874015748031497
        },
        {
          "duration": 0.3333330000000032,
          "durationTicks": 96,
          "midi": 53,
          "name": "F3",
          "ticks": 13728,
          "time": 47.666619,
          "velocity": 0.7874015748031497
        },
        {
          "duration": 0.3333329999999961,
          "durationTicks": 96,
          "midi": 45,
          "name": "A2",
          "ticks": 13824,
          "time": 47.999952,
          "velocity": 0.7874015748031497
        },
        {
          "duration": 0.12499987500000032,
          "durationTicks": 36,
          "midi": 45,
          "name": "A2",
          "ticks": 13920,
          "time": 48.333285,
          "velocity": 0.7874015748031497
        },
        {
          "duration": 0.12499987500000032,
          "durationTicks": 36,
          "midi": 45,
          "name": "A2",
          "ticks": 13968,
          "time": 48.4999515,
          "velocity": 0.7874015748031497
        },
        {
          "duration": 0.12499987500000032,
          "durationTicks": 36,
          "midi": 45,
          "name": "A2",
          "ticks": 14016,
          "time": 48.666618,
          "velocity": 0.7874015748031497
        },
        {
          "duration": 0.12499987500000032,
          "durationTicks": 36,
          "midi": 45,
          "name": "A2",
          "ticks": 14064,
          "time": 48.8332845,
          "velocity": 0.7874015748031497
        },
        {
          "duration": 0.12499987500000032,
          "durationTicks": 36,
          "midi": 45,
          "name": "A2",
          "ticks": 14112,
          "time": 48.999950999999996,
          "velocity": 0.7874015748031497
        },
        {
          "duration": 0.29166637499999837,
          "durationTicks": 84,
          "midi": 45,
          "name": "A2",
          "ticks": 14160,
          "time": 49.1666175,
          "velocity": 0.7874015748031497
        },
        {
          "duration": 0.12499987500000032,
          "durationTicks": 36,
          "midi": 45,
          "name": "A2",
          "ticks": 14256,
          "time": 49.4999505,
          "velocity": 0.7874015748031497
        },
        {
          "duration": 0.12499987500000032,
          "durationTicks": 36,
          "midi": 45,
          "name": "A2",
          "ticks": 14304,
          "time": 49.666616999999995,
          "velocity": 0.7874015748031497
        },
        {
          "duration": 0.12499987500000032,
          "durationTicks": 36,
          "midi": 45,
          "name": "A2",
          "ticks": 14352,
          "time": 49.8332835,
          "velocity": 0.7874015748031497
        },
        {
          "duration": 0.12499987500000032,
          "durationTicks": 36,
          "midi": 40,
          "name": "E2",
          "ticks": 14400,
          "time": 49.99995,
          "velocity": 0.7874015748031497
        },
        {
          "duration": 0.12499987500000032,
          "durationTicks": 36,
          "midi": 52,
          "name": "E3",
          "ticks": 14448,
          "time": 50.166616499999996,
          "velocity": 0.7874015748031497
        },
        {
          "duration": 0.29166637499999837,
          "durationTicks": 84,
          "midi": 46,
          "name": "A#2",
          "ticks": 14496,
          "time": 50.333283,
          "velocity": 0.7874015748031497
        },
        {
          "duration": 0.29166637499999837,
          "durationTicks": 84,
          "midi": 45,
          "name": "A2",
          "ticks": 14592,
          "time": 50.666616,
          "velocity": 0.7874015748031497
        },
        {
          "duration": 0.12499987500000032,
          "durationTicks": 36,
          "midi": 45,
          "name": "A2",
          "ticks": 14688,
          "time": 50.999949,
          "velocity": 0.7874015748031497
        },
        {
          "duration": 0.12499987500000032,
          "durationTicks": 36,
          "midi": 45,
          "name": "A2",
          "ticks": 14736,
          "time": 51.1666155,
          "velocity": 0.7874015748031497
        },
        {
          "duration": 0.12499987500000032,
          "durationTicks": 36,
          "midi": 45,
          "name": "A2",
          "ticks": 14784,
          "time": 51.333282,
          "velocity": 0.7874015748031497
        },
        {
          "duration": 0.12499987500000032,
          "durationTicks": 36,
          "midi": 45,
          "name": "A2",
          "ticks": 14832,
          "time": 51.499948499999995,
          "velocity": 0.7874015748031497
        },
        {
          "duration": 0.12499987500000032,
          "durationTicks": 36,
          "midi": 45,
          "name": "A2",
          "ticks": 14880,
          "time": 51.666615,
          "velocity": 0.7874015748031497
        },
        {
          "duration": 0.12499987500000032,
          "durationTicks": 36,
          "midi": 45,
          "name": "A2",
          "ticks": 14928,
          "time": 51.8332815,
          "velocity": 0.7874015748031497
        },
        {
          "duration": 0.12499987500000032,
          "durationTicks": 36,
          "midi": 45,
          "name": "A2",
          "ticks": 14976,
          "time": 51.999947999999996,
          "velocity": 0.7874015748031497
        },
        {
          "duration": 0.12499987500000032,
          "durationTicks": 36,
          "midi": 45,
          "name": "A2",
          "ticks": 15024,
          "time": 52.1666145,
          "velocity": 0.7874015748031497
        },
        {
          "duration": 0.12499987500000032,
          "durationTicks": 36,
          "midi": 45,
          "name": "A2",
          "ticks": 15072,
          "time": 52.333281,
          "velocity": 0.7874015748031497
        },
        {
          "duration": 0.12499987500000032,
          "durationTicks": 36,
          "midi": 47,
          "name": "B2",
          "ticks": 15120,
          "time": 52.4999475,
          "velocity": 0.7874015748031497
        },
        {
          "duration": 0.12499987500000032,
          "durationTicks": 36,
          "midi": 47,
          "name": "B2",
          "ticks": 15168,
          "time": 52.666613999999996,
          "velocity": 0.7874015748031497
        },
        {
          "duration": 0.12499987500000032,
          "durationTicks": 36,
          "midi": 47,
          "name": "B2",
          "ticks": 15216,
          "time": 52.8332805,
          "velocity": 0.7874015748031497
        },
        {
          "duration": 0.29166637499999837,
          "durationTicks": 84,
          "midi": 46,
          "name": "A#2",
          "ticks": 15264,
          "time": 52.999947,
          "velocity": 0.7874015748031497
        },
        {
          "duration": 0.29166637499999837,
          "durationTicks": 84,
          "midi": 45,
          "name": "A2",
          "ticks": 15360,
          "time": 53.33328,
          "velocity": 0.7874015748031497
        },
        {
          "duration": 0.2916663750000055,
          "durationTicks": 84,
          "midi": 45,
          "name": "A2",
          "ticks": 15696,
          "time": 54.499945499999995,
          "velocity": 0.7874015748031497
        },
        {
          "duration": 0.12499987500000032,
          "durationTicks": 36,
          "midi": 45,
          "name": "A2",
          "ticks": 15792,
          "time": 54.8332785,
          "velocity": 0.7874015748031497
        },
        {
          "duration": 0.12499987500000032,
          "durationTicks": 36,
          "midi": 45,
          "name": "A2",
          "ticks": 15840,
          "time": 54.999945,
          "velocity": 0.7874015748031497
        },
        {
          "duration": 0.12499987499999321,
          "durationTicks": 36,
          "midi": 45,
          "name": "A2",
          "ticks": 15888,
          "time": 55.1666115,
          "velocity": 0.7874015748031497
        },
        {
          "duration": 0.12499987500000032,
          "durationTicks": 36,
          "midi": 40,
          "name": "E2",
          "ticks": 15936,
          "time": 55.333278,
          "velocity": 0.7874015748031497
        },
        {
          "duration": 0.12499987500000032,
          "durationTicks": 36,
          "midi": 52,
          "name": "E3",
          "ticks": 15984,
          "time": 55.4999445,
          "velocity": 0.7874015748031497
        },
        {
          "duration": 0.2916663750000055,
          "durationTicks": 84,
          "midi": 46,
          "name": "A#2",
          "ticks": 16032,
          "time": 55.666610999999996,
          "velocity": 0.7874015748031497
        },
        {
          "duration": 0.29166637499999837,
          "durationTicks": 84,
          "midi": 45,
          "name": "A2",
          "ticks": 16128,
          "time": 55.999944,
          "velocity": 0.7874015748031497
        },
        {
          "duration": 0.12499987500000032,
          "durationTicks": 36,
          "midi": 45,
          "name": "A2",
          "ticks": 16224,
          "time": 56.333276999999995,
          "velocity": 0.7874015748031497
        },
        {
          "duration": 0.12499987500000032,
          "durationTicks": 36,
          "midi": 56,
          "name": "G#3",
          "ticks": 16272,
          "time": 56.4999435,
          "velocity": 0.7874015748031497
        },
        {
          "duration": 0.12499987500000032,
          "durationTicks": 36,
          "midi": 55,
          "name": "G3",
          "ticks": 16320,
          "time": 56.66661,
          "velocity": 0.7874015748031497
        },
        {
          "duration": 0.12499987500000032,
          "durationTicks": 36,
          "midi": 54,
          "name": "F#3",
          "ticks": 16368,
          "time": 56.8332765,
          "velocity": 0.7874015748031497
        },
        {
          "duration": 0.12499987499999321,
          "durationTicks": 36,
          "midi": 53,
          "name": "F3",
          "ticks": 16416,
          "time": 56.999943,
          "velocity": 0.7874015748031497
        },
        {
          "duration": 0.49999950000000126,
          "durationTicks": 144,
          "midi": 41,
          "name": "F2",
          "ticks": 16464,
          "time": 57.1666095,
          "velocity": 0.7874015748031497
        },
        {
          "duration": 0.12499987500000032,
          "durationTicks": 36,
          "midi": 41,
          "name": "F2",
          "ticks": 16608,
          "time": 57.666609,
          "velocity": 0.7874015748031497
        },
        {
          "duration": 0.12499987500000032,
          "durationTicks": 36,
          "midi": 40,
          "name": "E2",
          "ticks": 16704,
          "time": 57.999942,
          "velocity": 0.7874015748031497
        },
        {
          "duration": 0.12499987500000032,
          "durationTicks": 36,
          "midi": 40,
          "name": "E2",
          "ticks": 16752,
          "time": 58.166608499999995,
          "velocity": 0.7874015748031497
        },
        {
          "duration": 0.08333325000000258,
          "durationTicks": 24,
          "midi": 46,
          "name": "A#2",
          "ticks": 16896,
          "time": 58.666608,
          "velocity": 0.7874015748031497
        },
        {
          "duration": 0.08333324999999547,
          "durationTicks": 24,
          "midi": 46,
          "name": "A#2",
          "ticks": 16944,
          "time": 58.8332745,
          "velocity": 0.7874015748031497
        },
        {
          "duration": 0.08333324999999547,
          "durationTicks": 24,
          "midi": 46,
          "name": "A#2",
          "ticks": 16992,
          "time": 58.999941,
          "velocity": 0.7874015748031497
        },
        {
          "duration": 0.08333325000000258,
          "durationTicks": 24,
          "midi": 46,
          "name": "A#2",
          "ticks": 17040,
          "time": 59.1666075,
          "velocity": 0.7874015748031497
        },
        {
          "duration": 0.08333325000000258,
          "durationTicks": 24,
          "midi": 46,
          "name": "A#2",
          "ticks": 17088,
          "time": 59.333273999999996,
          "velocity": 0.7874015748031497
        },
        {
          "duration": 0.08333324999999547,
          "durationTicks": 24,
          "midi": 52,
          "name": "E3",
          "ticks": 17136,
          "time": 59.4999405,
          "velocity": 0.7874015748031497
        },
        {
          "duration": 0.08333325000000258,
          "durationTicks": 24,
          "midi": 58,
          "name": "A#3",
          "ticks": 17184,
          "time": 59.666607,
          "velocity": 0.7874015748031497
        },
        {
          "duration": 0.08333325000000258,
          "durationTicks": 24,
          "midi": 46,
          "name": "A#2",
          "ticks": 17232,
          "time": 59.8332735,
          "velocity": 0.7874015748031497
        },
        {
          "duration": 0.08333325000000258,
          "durationTicks": 24,
          "midi": 46,
          "name": "A#2",
          "ticks": 17280,
          "time": 59.999939999999995,
          "velocity": 0.7874015748031497
        },
        {
          "duration": 0.08333324999999547,
          "durationTicks": 24,
          "midi": 46,
          "name": "A#2",
          "ticks": 17328,
          "time": 60.1666065,
          "velocity": 0.7874015748031497
        },
        {
          "duration": 0.08333325000000258,
          "durationTicks": 24,
          "midi": 46,
          "name": "A#2",
          "ticks": 17376,
          "time": 60.333273,
          "velocity": 0.7874015748031497
        },
        {
          "duration": 0.08333325000000258,
          "durationTicks": 24,
          "midi": 46,
          "name": "A#2",
          "ticks": 17424,
          "time": 60.499939499999996,
          "velocity": 0.7874015748031497
        },
        {
          "duration": 0.08333324999999547,
          "durationTicks": 24,
          "midi": 52,
          "name": "E3",
          "ticks": 17472,
          "time": 60.666606,
          "velocity": 0.7874015748031497
        },
        {
          "duration": 0.08333324999999547,
          "durationTicks": 24,
          "midi": 46,
          "name": "A#2",
          "ticks": 17520,
          "time": 60.8332725,
          "velocity": 0.7874015748031497
        },
        {
          "duration": 0.08333325000000258,
          "durationTicks": 24,
          "midi": 58,
          "name": "A#3",
          "ticks": 17568,
          "time": 60.999939,
          "velocity": 0.7874015748031497
        },
        {
          "duration": 0.08333325000000258,
          "durationTicks": 24,
          "midi": 46,
          "name": "A#2",
          "ticks": 17616,
          "time": 61.166605499999996,
          "velocity": 0.7874015748031497
        },
        {
          "duration": 0.08333324999999547,
          "durationTicks": 24,
          "midi": 45,
          "name": "A2",
          "ticks": 17664,
          "time": 61.333272,
          "velocity": 0.7874015748031497
        },
        {
          "duration": 0.08333325000000258,
          "durationTicks": 24,
          "midi": 45,
          "name": "A2",
          "ticks": 17712,
          "time": 61.4999385,
          "velocity": 0.7874015748031497
        },
        {
          "duration": 0.08333325000000258,
          "durationTicks": 24,
          "midi": 45,
          "name": "A2",
          "ticks": 17760,
          "time": 61.666605,
          "velocity": 0.7874015748031497
        },
        {
          "duration": 0.08333325000000258,
          "durationTicks": 24,
          "midi": 45,
          "name": "A2",
          "ticks": 17808,
          "time": 61.833271499999995,
          "velocity": 0.7874015748031497
        },
        {
          "duration": 0.08333324999999547,
          "durationTicks": 24,
          "midi": 45,
          "name": "A2",
          "ticks": 17856,
          "time": 61.999938,
          "velocity": 0.7874015748031497
        },
        {
          "duration": 0.08333325000000258,
          "durationTicks": 24,
          "midi": 45,
          "name": "A2",
          "ticks": 17904,
          "time": 62.1666045,
          "velocity": 0.7874015748031497
        },
        {
          "duration": 0.08333325000000258,
          "durationTicks": 24,
          "midi": 45,
          "name": "A2",
          "ticks": 17952,
          "time": 62.333270999999996,
          "velocity": 0.7874015748031497
        },
        {
          "duration": 0.08333324999999547,
          "durationTicks": 24,
          "midi": 45,
          "name": "A2",
          "ticks": 18000,
          "time": 62.4999375,
          "velocity": 0.7874015748031497
        },
        {
          "duration": 0.08333324999999547,
          "durationTicks": 24,
          "midi": 45,
          "name": "A2",
          "ticks": 18048,
          "time": 62.666604,
          "velocity": 0.7874015748031497
        },
        {
          "duration": 0.08333325000000258,
          "durationTicks": 24,
          "midi": 45,
          "name": "A2",
          "ticks": 18096,
          "time": 62.8332705,
          "velocity": 0.7874015748031497
        },
        {
          "duration": 0.08333325000000258,
          "durationTicks": 24,
          "midi": 45,
          "name": "A2",
          "ticks": 18144,
          "time": 62.999936999999996,
          "velocity": 0.7874015748031497
        },
        {
          "duration": 0.08333324999999547,
          "durationTicks": 24,
          "midi": 45,
          "name": "A2",
          "ticks": 18192,
          "time": 63.1666035,
          "velocity": 0.7874015748031497
        },
        {
          "duration": 0.08333325000000258,
          "durationTicks": 24,
          "midi": 52,
          "name": "E3",
          "ticks": 18240,
          "time": 63.33327,
          "velocity": 0.7874015748031497
        },
        {
          "duration": 0.08333325000000258,
          "durationTicks": 24,
          "midi": 45,
          "name": "A2",
          "ticks": 18288,
          "time": 63.4999365,
          "velocity": 0.7874015748031497
        },
        {
          "duration": 0.08333325000000258,
          "durationTicks": 24,
          "midi": 57,
          "name": "A3",
          "ticks": 18336,
          "time": 63.666602999999995,
          "velocity": 0.7874015748031497
        },
        {
          "duration": 0.08333324999999547,
          "durationTicks": 24,
          "midi": 45,
          "name": "A2",
          "ticks": 18384,
          "time": 63.8332695,
          "velocity": 0.7874015748031497
        },
        {
          "duration": 0.08333325000000258,
          "durationTicks": 24,
          "midi": 46,
          "name": "A#2",
          "ticks": 18432,
          "time": 63.999936,
          "velocity": 0.7874015748031497
        },
        {
          "duration": 0.08333324999999547,
          "durationTicks": 24,
          "midi": 46,
          "name": "A#2",
          "ticks": 18480,
          "time": 64.1666025,
          "velocity": 0.7874015748031497
        },
        {
          "duration": 0.08333324999999547,
          "durationTicks": 24,
          "midi": 46,
          "name": "A#2",
          "ticks": 18528,
          "time": 64.333269,
          "velocity": 0.7874015748031497
        },
        {
          "duration": 0.08333325000000968,
          "durationTicks": 24,
          "midi": 46,
          "name": "A#2",
          "ticks": 18576,
          "time": 64.49993549999999,
          "velocity": 0.7874015748031497
        },
        {
          "duration": 0.08333324999999547,
          "durationTicks": 24,
          "midi": 46,
          "name": "A#2",
          "ticks": 18624,
          "time": 64.666602,
          "velocity": 0.7874015748031497
        },
        {
          "duration": 0.08333324999999547,
          "durationTicks": 24,
          "midi": 52,
          "name": "E3",
          "ticks": 18672,
          "time": 64.8332685,
          "velocity": 0.7874015748031497
        },
        {
          "duration": 0.08333325000000968,
          "durationTicks": 24,
          "midi": 58,
          "name": "A#3",
          "ticks": 18720,
          "time": 64.999935,
          "velocity": 0.7874015748031497
        },
        {
          "duration": 0.08333324999999547,
          "durationTicks": 24,
          "midi": 46,
          "name": "A#2",
          "ticks": 18768,
          "time": 65.1666015,
          "velocity": 0.7874015748031497
        },
        {
          "duration": 0.08333324999999547,
          "durationTicks": 24,
          "midi": 46,
          "name": "A#2",
          "ticks": 18816,
          "time": 65.333268,
          "velocity": 0.7874015748031497
        },
        {
          "duration": 0.08333325000000968,
          "durationTicks": 24,
          "midi": 46,
          "name": "A#2",
          "ticks": 18864,
          "time": 65.4999345,
          "velocity": 0.7874015748031497
        },
        {
          "duration": 0.08333324999999547,
          "durationTicks": 24,
          "midi": 46,
          "name": "A#2",
          "ticks": 18912,
          "time": 65.666601,
          "velocity": 0.7874015748031497
        },
        {
          "duration": 0.08333324999999547,
          "durationTicks": 24,
          "midi": 46,
          "name": "A#2",
          "ticks": 18960,
          "time": 65.8332675,
          "velocity": 0.7874015748031497
        },
        {
          "duration": 0.08333324999999547,
          "durationTicks": 24,
          "midi": 52,
          "name": "E3",
          "ticks": 19008,
          "time": 65.999934,
          "velocity": 0.7874015748031497
        },
        {
          "duration": 0.08333324999999547,
          "durationTicks": 24,
          "midi": 46,
          "name": "A#2",
          "ticks": 19056,
          "time": 66.1666005,
          "velocity": 0.7874015748031497
        },
        {
          "duration": 0.08333325000000968,
          "durationTicks": 24,
          "midi": 58,
          "name": "A#3",
          "ticks": 19104,
          "time": 66.33326699999999,
          "velocity": 0.7874015748031497
        },
        {
          "duration": 0.08333324999999547,
          "durationTicks": 24,
          "midi": 46,
          "name": "A#2",
          "ticks": 19152,
          "time": 66.4999335,
          "velocity": 0.7874015748031497
        },
        {
          "duration": 0.3333329999999961,
          "durationTicks": 96,
          "midi": 45,
          "name": "A2",
          "ticks": 19200,
          "time": 66.6666,
          "velocity": 0.7637795275590551
        },
        {
          "duration": 0.04166662500000484,
          "durationTicks": 12,
          "midi": 44,
          "name": "G#2",
          "ticks": 19212,
          "time": 66.708266625,
          "velocity": 0.33858267716535434
        },
        {
          "duration": 0.04166662500000484,
          "durationTicks": 12,
          "midi": 43,
          "name": "G2",
          "ticks": 19224,
          "time": 66.74993325,
          "velocity": 0.3228346456692913
        },
        {
          "duration": 0.04166662499999063,
          "durationTicks": 12,
          "midi": 42,
          "name": "F#2",
          "ticks": 19236,
          "time": 66.791599875,
          "velocity": 0.31496062992125984
        },
        {
          "duration": 0.04166662500000484,
          "durationTicks": 12,
          "midi": 41,
          "name": "F2",
          "ticks": 19248,
          "time": 66.8332665,
          "velocity": 0.2992125984251969
        },
        {
          "duration": 0.04166662500000484,
          "durationTicks": 12,
          "midi": 40,
          "name": "E2",
          "ticks": 19260,
          "time": 66.874933125,
          "velocity": 0.28346456692913385
        },
        {
          "duration": 0.04166662499999063,
          "durationTicks": 12,
          "midi": 39,
          "name": "D#2",
          "ticks": 19272,
          "time": 66.91659975,
          "velocity": 0.2755905511811024
        },
        {
          "duration": 0.04166662500000484,
          "durationTicks": 12,
          "midi": 38,
          "name": "D2",
          "ticks": 19284,
          "time": 66.958266375,
          "velocity": 0.25984251968503935
        },
        {
          "duration": 0.04166662500000484,
          "durationTicks": 12,
          "midi": 37,
          "name": "C#2",
          "ticks": 19296,
          "time": 66.999933,
          "velocity": 0.2440944881889764
        },
        {
          "duration": 0.04166662499999063,
          "durationTicks": 12,
          "midi": 36,
          "name": "C2",
          "ticks": 19308,
          "time": 67.041599625,
          "velocity": 0.23622047244094488
        },
        {
          "duration": 0.04166662500000484,
          "durationTicks": 12,
          "midi": 35,
          "name": "B1",
          "ticks": 19320,
          "time": 67.08326625,
          "velocity": 0.2204724409448819
        },
        {
          "duration": 0.04166662500000484,
          "durationTicks": 12,
          "midi": 34,
          "name": "A#1",
          "ticks": 19332,
          "time": 67.124932875,
          "velocity": 0.2047244094488189
        },
        {
          "duration": 0.04166662499999063,
          "durationTicks": 12,
          "midi": 33,
          "name": "A1",
          "ticks": 19344,
          "time": 67.1665995,
          "velocity": 0.1968503937007874
        },
        {
          "duration": 0.2777774999999991,
          "durationTicks": 80,
          "midi": 45,
          "name": "A2",
          "ticks": 19968,
          "time": 69.333264,
          "velocity": 0.7874015748031497
        },
        {
          "duration": 0.11111100000000818,
          "durationTicks": 32,
          "midi": 45,
          "name": "A2",
          "ticks": 20160,
          "time": 69.99992999999999,
          "velocity": 0.7874015748031497
        },
        {
          "duration": 0.11111100000000818,
          "durationTicks": 32,
          "midi": 45,
          "name": "A2",
          "ticks": 20208,
          "time": 70.1665965,
          "velocity": 0.7874015748031497
        },
        {
          "duration": 0.2777774999999991,
          "durationTicks": 80,
          "midi": 45,
          "name": "A2",
          "ticks": 20256,
          "time": 70.333263,
          "velocity": 0.7874015748031497
        },
        {
          "duration": 0.11111100000000818,
          "durationTicks": 32,
          "midi": 45,
          "name": "A2",
          "ticks": 20352,
          "time": 70.666596,
          "velocity": 0.7874015748031497
        },
        {
          "duration": 0.11111099999999396,
          "durationTicks": 32,
          "midi": 45,
          "name": "A2",
          "ticks": 20400,
          "time": 70.8332625,
          "velocity": 0.7874015748031497
        },
        {
          "duration": 0.27777750000001333,
          "durationTicks": 80,
          "midi": 45,
          "name": "A2",
          "ticks": 20448,
          "time": 70.999929,
          "velocity": 0.7874015748031497
        },
        {
          "duration": 0.11111099999999396,
          "durationTicks": 32,
          "midi": 45,
          "name": "A2",
          "ticks": 20544,
          "time": 71.333262,
          "velocity": 0.7874015748031497
        },
        {
          "duration": 0.11111100000000818,
          "durationTicks": 32,
          "midi": 45,
          "name": "A2",
          "ticks": 20592,
          "time": 71.4999285,
          "velocity": 0.7874015748031497
        },
        {
          "duration": 0.2777774999999991,
          "durationTicks": 80,
          "midi": 46,
          "name": "A#2",
          "ticks": 20640,
          "time": 71.666595,
          "velocity": 0.7874015748031497
        },
        {
          "duration": 0.2777774999999991,
          "durationTicks": 80,
          "midi": 45,
          "name": "A2",
          "ticks": 20736,
          "time": 71.999928,
          "velocity": 0.7874015748031497
        },
        {
          "duration": 0.11111099999999396,
          "durationTicks": 32,
          "midi": 45,
          "name": "A2",
          "ticks": 20928,
          "time": 72.666594,
          "velocity": 0.7874015748031497
        },
        {
          "duration": 0.11111100000000818,
          "durationTicks": 32,
          "midi": 45,
          "name": "A2",
          "ticks": 20976,
          "time": 72.8332605,
          "velocity": 0.7874015748031497
        },
        {
          "duration": 0.2777774999999991,
          "durationTicks": 80,
          "midi": 45,
          "name": "A2",
          "ticks": 21024,
          "time": 72.999927,
          "velocity": 0.7874015748031497
        },
        {
          "duration": 0.11111100000000818,
          "durationTicks": 32,
          "midi": 45,
          "name": "A2",
          "ticks": 21120,
          "time": 73.33326,
          "velocity": 0.7874015748031497
        },
        {
          "duration": 0.05555549999999698,
          "durationTicks": 16,
          "midi": 45,
          "name": "A2",
          "ticks": 21168,
          "time": 73.4999265,
          "velocity": 0.7874015748031497
        },
        {
          "duration": 0.11111100000000818,
          "durationTicks": 32,
          "midi": 45,
          "name": "A2",
          "ticks": 21192,
          "time": 73.58325975,
          "velocity": 0.7874015748031497
        },
        {
          "duration": 0.05555549999999698,
          "durationTicks": 16,
          "midi": 45,
          "name": "A2",
          "ticks": 21240,
          "time": 73.74992625,
          "velocity": 0.7874015748031497
        },
        {
          "duration": 0.11111100000000818,
          "durationTicks": 32,
          "midi": 45,
          "name": "A2",
          "ticks": 21264,
          "time": 73.8332595,
          "velocity": 0.7874015748031497
        },
        {
          "duration": 0.3055552499999976,
          "durationTicks": 88,
          "midi": 49,
          "name": "C#3",
          "ticks": 21312,
          "time": 73.999926,
          "velocity": 0.7874015748031497
        },
        {
          "duration": 0.3055552499999976,
          "durationTicks": 88,
          "midi": 46,
          "name": "A#2",
          "ticks": 21408,
          "time": 74.333259,
          "velocity": 0.7874015748031497
        },
        {
          "duration": 0.3055552499999976,
          "durationTicks": 88,
          "midi": 38,
          "name": "D2",
          "ticks": 21504,
          "time": 74.666592,
          "velocity": 0.7874015748031497
        },
        {
          "duration": 0.13888875000000667,
          "durationTicks": 40,
          "midi": 50,
          "name": "D3",
          "ticks": 21744,
          "time": 75.49992449999999,
          "velocity": 0.7874015748031497
        },
        {
          "duration": 0.4444440000000043,
          "durationTicks": 128,
          "midi": 38,
          "name": "D2",
          "ticks": 21792,
          "time": 75.666591,
          "velocity": 0.7874015748031497
        },
        {
          "duration": 0.13888874999999246,
          "durationTicks": 40,
          "midi": 38,
          "name": "D2",
          "ticks": 21936,
          "time": 76.1665905,
          "velocity": 0.7874015748031497
        },
        {
          "duration": 0.9722212499999898,
          "durationTicks": 280,
          "midi": 38,
          "name": "D2",
          "ticks": 21984,
          "time": 76.333257,
          "velocity": 0.7874015748031497
        },
        {
          "duration": 0.6388882500000079,
          "durationTicks": 184,
          "midi": 38,
          "name": "D2",
          "ticks": 22272,
          "time": 77.33325599999999,
          "velocity": 0.7874015748031497
        },
        {
          "duration": 0.6388882499999937,
          "durationTicks": 184,
          "midi": 38,
          "name": "D2",
          "ticks": 22464,
          "time": 77.999922,
          "velocity": 0.7874015748031497
        },
        {
          "duration": 0.6388882499999937,
          "durationTicks": 184,
          "midi": 41,
          "name": "F2",
          "ticks": 22656,
          "time": 78.666588,
          "velocity": 0.7874015748031497
        },
        {
          "duration": 0.6388882499999937,
          "durationTicks": 184,
          "midi": 43,
          "name": "G2",
          "ticks": 22848,
          "time": 79.333254,
          "velocity": 0.7874015748031497
        },
        {
          "duration": 0.06249993749999305,
          "durationTicks": 18,
          "midi": 44,
          "name": "G#2",
          "ticks": 23520,
          "time": 81.666585,
          "velocity": 0.7874015748031497
        },
        {
          "duration": 0.49652728125001033,
          "durationTicks": 143,
          "midi": 45,
          "name": "A2",
          "ticks": 23524,
          "time": 81.68047387499999,
          "velocity": 0.7874015748031497
        },
        {
          "duration": 0.09722212500000182,
          "durationTicks": 28,
          "midi": 32,
          "name": "G#1",
          "ticks": 23664,
          "time": 82.1665845,
          "velocity": 0.7874015748031497
        },
        {
          "duration": 0.4548606562499913,
          "durationTicks": 131,
          "midi": 33,
          "name": "A1",
          "ticks": 23676,
          "time": 82.208251125,
          "velocity": 0.7874015748031497
        },
        {
          "duration": 0.6631937812500013,
          "durationTicks": 191,
          "midi": 37,
          "name": "C#2",
          "ticks": 23808,
          "time": 82.666584,
          "velocity": 0.7874015748031497
        },
        {
          "duration": 0.16319428125000002,
          "durationTicks": 47,
          "midi": 40,
          "name": "E2",
          "ticks": 24288,
          "time": 84.333249,
          "velocity": 0.7874015748031497
        },
        {
          "duration": 0.16319428125000002,
          "durationTicks": 47,
          "midi": 42,
          "name": "F#2",
          "ticks": 24336,
          "time": 84.4999155,
          "velocity": 0.7874015748031497
        },
        {
          "duration": 0.059027718750016334,
          "durationTicks": 17,
          "midi": 36,
          "name": "C2",
          "ticks": 24384,
          "time": 84.66658199999999,
          "velocity": 0.7874015748031497
        },
        {
          "duration": 0.28819415625000033,
          "durationTicks": 83,
          "midi": 37,
          "name": "C#2",
          "ticks": 24396,
          "time": 84.708248625,
          "velocity": 0.7874015748031497
        },
        {
          "duration": 0.16319428125000002,
          "durationTicks": 47,
          "midi": 35,
          "name": "B1",
          "ticks": 24480,
          "time": 84.999915,
          "velocity": 0.7874015748031497
        },
        {
          "duration": 0.16319428125001423,
          "durationTicks": 47,
          "midi": 33,
          "name": "A1",
          "ticks": 24528,
          "time": 85.16658149999999,
          "velocity": 0.7874015748031497
        },
        {
          "duration": 0.6631937812499871,
          "durationTicks": 191,
          "midi": 38,
          "name": "D2",
          "ticks": 24576,
          "time": 85.333248,
          "velocity": 0.7874015748031497
        },
        {
          "duration": 0.06249993750000726,
          "durationTicks": 18,
          "midi": 44,
          "name": "G#2",
          "ticks": 25056,
          "time": 86.99991299999999,
          "velocity": 0.7874015748031497
        },
        {
          "duration": 0.3298607812500194,
          "durationTicks": 95,
          "midi": 45,
          "name": "A2",
          "ticks": 25064,
          "time": 87.02769074999999,
          "velocity": 0.7874015748031497
        },
        {
          "duration": 0.07986103125000454,
          "durationTicks": 23,
          "midi": 32,
          "name": "G#1",
          "ticks": 25200,
          "time": 87.4999125,
          "velocity": 0.7874015748031497
        },
        {
          "duration": 0.4548606562499913,
          "durationTicks": 131,
          "midi": 33,
          "name": "A1",
          "ticks": 25212,
          "time": 87.541579125,
          "velocity": 0.7874015748031497
        },
        {
          "duration": 1.3298597812499935,
          "durationTicks": 383,
          "midi": 38,
          "name": "D2",
          "ticks": 25344,
          "time": 87.999912,
          "velocity": 0.7874015748031497
        },
        {
          "duration": 0.32986078124999096,
          "durationTicks": 95,
          "midi": 41,
          "name": "F2",
          "ticks": 25728,
          "time": 89.333244,
          "velocity": 0.7874015748031497
        },
        {
          "duration": 0.1631942812499858,
          "durationTicks": 47,
          "midi": 48,
          "name": "C3",
          "ticks": 25920,
          "time": 89.99991,
          "velocity": 0.7874015748031497
        },
        {
          "duration": 0.16319428125000002,
          "durationTicks": 47,
          "midi": 45,
          "name": "A2",
          "ticks": 26016,
          "time": 90.333243,
          "velocity": 0.7874015748031497
        },
        {
          "duration": 0.1631942812499858,
          "durationTicks": 47,
          "midi": 41,
          "name": "F2",
          "ticks": 26064,
          "time": 90.4999095,
          "velocity": 0.7874015748031497
        },
        {
          "duration": 0.07986103125000454,
          "durationTicks": 23,
          "midi": 47,
          "name": "B2",
          "ticks": 26112,
          "time": 90.66657599999999,
          "velocity": 0.7874015748031497
        },
        {
          "duration": 0.07986103124999033,
          "durationTicks": 23,
          "midi": 47,
          "name": "B2",
          "ticks": 26160,
          "time": 90.8332425,
          "velocity": 0.7874015748031497
        },
        {
          "duration": 0.07986103124999033,
          "durationTicks": 23,
          "midi": 47,
          "name": "B2",
          "ticks": 26208,
          "time": 90.999909,
          "velocity": 0.7874015748031497
        },
        {
          "duration": 0.07986103125000454,
          "durationTicks": 23,
          "midi": 47,
          "name": "B2",
          "ticks": 26256,
          "time": 91.1665755,
          "velocity": 0.7874015748031497
        },
        {
          "duration": 0.07986103124999033,
          "durationTicks": 23,
          "midi": 47,
          "name": "B2",
          "ticks": 26304,
          "time": 91.333242,
          "velocity": 0.7874015748031497
        },
        {
          "duration": 0.07986103124999033,
          "durationTicks": 23,
          "midi": 47,
          "name": "B2",
          "ticks": 26352,
          "time": 91.4999085,
          "velocity": 0.7874015748031497
        },
        {
          "duration": 0.07986103124999033,
          "durationTicks": 23,
          "midi": 47,
          "name": "B2",
          "ticks": 26400,
          "time": 91.666575,
          "velocity": 0.7874015748031497
        },
        {
          "duration": 0.07986103124999033,
          "durationTicks": 23,
          "midi": 47,
          "name": "B2",
          "ticks": 26448,
          "time": 91.8332415,
          "velocity": 0.7874015748031497
        },
        {
          "duration": 0.07986103125000454,
          "durationTicks": 23,
          "midi": 47,
          "name": "B2",
          "ticks": 26496,
          "time": 91.99990799999999,
          "velocity": 0.7874015748031497
        },
        {
          "duration": 0.07986103124999033,
          "durationTicks": 23,
          "midi": 47,
          "name": "B2",
          "ticks": 26544,
          "time": 92.1665745,
          "velocity": 0.7874015748031497
        },
        {
          "duration": 0.07986103124999033,
          "durationTicks": 23,
          "midi": 47,
          "name": "B2",
          "ticks": 26592,
          "time": 92.333241,
          "velocity": 0.7874015748031497
        },
        {
          "duration": 0.07986103125000454,
          "durationTicks": 23,
          "midi": 47,
          "name": "B2",
          "ticks": 26640,
          "time": 92.49990749999999,
          "velocity": 0.7874015748031497
        },
        {
          "duration": 0.07986103124999033,
          "durationTicks": 23,
          "midi": 47,
          "name": "B2",
          "ticks": 26688,
          "time": 92.666574,
          "velocity": 0.7874015748031497
        },
        {
          "duration": 0.07986103124999033,
          "durationTicks": 23,
          "midi": 47,
          "name": "B2",
          "ticks": 26736,
          "time": 92.8332405,
          "velocity": 0.7874015748031497
        },
        {
          "duration": 0.07986103125000454,
          "durationTicks": 23,
          "midi": 47,
          "name": "B2",
          "ticks": 26784,
          "time": 92.999907,
          "velocity": 0.7874015748031497
        },
        {
          "duration": 0.07986103124999033,
          "durationTicks": 23,
          "midi": 50,
          "name": "D3",
          "ticks": 26832,
          "time": 93.1665735,
          "velocity": 0.7874015748031497
        },
        {
          "duration": 0.07986103124999033,
          "durationTicks": 23,
          "midi": 49,
          "name": "C#3",
          "ticks": 26880,
          "time": 93.33324,
          "velocity": 0.7874015748031497
        },
        {
          "duration": 0.07986103124999033,
          "durationTicks": 23,
          "midi": 49,
          "name": "C#3",
          "ticks": 26928,
          "time": 93.4999065,
          "velocity": 0.7874015748031497
        },
        {
          "duration": 0.07986103124999033,
          "durationTicks": 23,
          "midi": 49,
          "name": "C#3",
          "ticks": 26976,
          "time": 93.666573,
          "velocity": 0.7874015748031497
        },
        {
          "duration": 0.07986103125000454,
          "durationTicks": 23,
          "midi": 49,
          "name": "C#3",
          "ticks": 27024,
          "time": 93.83323949999999,
          "velocity": 0.7874015748031497
        },
        {
          "duration": 0.07986103124999033,
          "durationTicks": 23,
          "midi": 49,
          "name": "C#3",
          "ticks": 27072,
          "time": 93.999906,
          "velocity": 0.7874015748031497
        },
        {
          "duration": 0.07986103124999033,
          "durationTicks": 23,
          "midi": 49,
          "name": "C#3",
          "ticks": 27120,
          "time": 94.1665725,
          "velocity": 0.7874015748031497
        },
        {
          "duration": 0.07986103125000454,
          "durationTicks": 23,
          "midi": 49,
          "name": "C#3",
          "ticks": 27168,
          "time": 94.33323899999999,
          "velocity": 0.7874015748031497
        },
        {
          "duration": 0.07986103124999033,
          "durationTicks": 23,
          "midi": 49,
          "name": "C#3",
          "ticks": 27216,
          "time": 94.4999055,
          "velocity": 0.7874015748031497
        },
        {
          "duration": 0.07986103124999033,
          "durationTicks": 23,
          "midi": 49,
          "name": "C#3",
          "ticks": 27264,
          "time": 94.666572,
          "velocity": 0.7874015748031497
        },
        {
          "duration": 0.07986103125000454,
          "durationTicks": 23,
          "midi": 61,
          "name": "C#4",
          "ticks": 27312,
          "time": 94.8332385,
          "velocity": 0.7874015748031497
        },
        {
          "duration": 0.07986103124999033,
          "durationTicks": 23,
          "midi": 59,
          "name": "B3",
          "ticks": 27360,
          "time": 94.999905,
          "velocity": 0.7874015748031497
        },
        {
          "duration": 0.07986103124999033,
          "durationTicks": 23,
          "midi": 57,
          "name": "A3",
          "ticks": 27408,
          "time": 95.1665715,
          "velocity": 0.7874015748031497
        },
        {
          "duration": 0.07986103124999033,
          "durationTicks": 23,
          "midi": 59,
          "name": "B3",
          "ticks": 27456,
          "time": 95.333238,
          "velocity": 0.7874015748031497
        },
        {
          "duration": 0.07986103124999033,
          "durationTicks": 23,
          "midi": 57,
          "name": "A3",
          "ticks": 27504,
          "time": 95.4999045,
          "velocity": 0.7874015748031497
        },
        {
          "duration": 0.07986103125000454,
          "durationTicks": 23,
          "midi": 54,
          "name": "F#3",
          "ticks": 27552,
          "time": 95.66657099999999,
          "velocity": 0.7874015748031497
        },
        {
          "duration": 0.07986103124999033,
          "durationTicks": 23,
          "midi": 52,
          "name": "E3",
          "ticks": 27600,
          "time": 95.8332375,
          "velocity": 0.7874015748031497
        },
        {
          "duration": 0.07986103124999033,
          "durationTicks": 23,
          "midi": 50,
          "name": "D3",
          "ticks": 27648,
          "time": 95.999904,
          "velocity": 0.7874015748031497
        },
        {
          "duration": 0.07986103125000454,
          "durationTicks": 23,
          "midi": 50,
          "name": "D3",
          "ticks": 27696,
          "time": 96.16657049999999,
          "velocity": 0.7874015748031497
        },
        {
          "duration": 0.07986103124999033,
          "durationTicks": 23,
          "midi": 50,
          "name": "D3",
          "ticks": 27744,
          "time": 96.333237,
          "velocity": 0.7874015748031497
        },
        {
          "duration": 0.07986103124999033,
          "durationTicks": 23,
          "midi": 50,
          "name": "D3",
          "ticks": 27792,
          "time": 96.4999035,
          "velocity": 0.7874015748031497
        },
        {
          "duration": 0.07986103125000454,
          "durationTicks": 23,
          "midi": 50,
          "name": "D3",
          "ticks": 27840,
          "time": 96.66657,
          "velocity": 0.7874015748031497
        },
        {
          "duration": 0.07986103124999033,
          "durationTicks": 23,
          "midi": 62,
          "name": "D4",
          "ticks": 27888,
          "time": 96.8332365,
          "velocity": 0.7874015748031497
        },
        {
          "duration": 0.07986103124999033,
          "durationTicks": 23,
          "midi": 50,
          "name": "D3",
          "ticks": 27936,
          "time": 96.999903,
          "velocity": 0.7874015748031497
        },
        {
          "duration": 0.07986103124999033,
          "durationTicks": 23,
          "midi": 50,
          "name": "D3",
          "ticks": 27984,
          "time": 97.1665695,
          "velocity": 0.7874015748031497
        },
        {
          "duration": 0.07986103124999033,
          "durationTicks": 23,
          "midi": 51,
          "name": "D#3",
          "ticks": 28032,
          "time": 97.333236,
          "velocity": 0.7874015748031497
        },
        {
          "duration": 0.07986103125000454,
          "durationTicks": 23,
          "midi": 51,
          "name": "D#3",
          "ticks": 28080,
          "time": 97.49990249999999,
          "velocity": 0.7874015748031497
        },
        {
          "duration": 0.07986103124999033,
          "durationTicks": 23,
          "midi": 51,
          "name": "D#3",
          "ticks": 28128,
          "time": 97.666569,
          "velocity": 0.7874015748031497
        },
        {
          "duration": 0.07986103124999033,
          "durationTicks": 23,
          "midi": 51,
          "name": "D#3",
          "ticks": 28176,
          "time": 97.8332355,
          "velocity": 0.7874015748031497
        },
        {
          "duration": 0.07986103125000454,
          "durationTicks": 23,
          "midi": 51,
          "name": "D#3",
          "ticks": 28224,
          "time": 97.99990199999999,
          "velocity": 0.7874015748031497
        },
        {
          "duration": 0.07986103124999033,
          "durationTicks": 23,
          "midi": 46,
          "name": "A#2",
          "ticks": 28272,
          "time": 98.1665685,
          "velocity": 0.7874015748031497
        },
        {
          "duration": 0.07986103124999033,
          "durationTicks": 23,
          "midi": 51,
          "name": "D#3",
          "ticks": 28320,
          "time": 98.333235,
          "velocity": 0.7874015748031497
        },
        {
          "duration": 0.07986103125000454,
          "durationTicks": 23,
          "midi": 55,
          "name": "G3",
          "ticks": 28368,
          "time": 98.49990149999999,
          "velocity": 0.7874015748031497
        },
        {
          "duration": 0.2465275312499955,
          "durationTicks": 71,
          "midi": 53,
          "name": "F3",
          "ticks": 28416,
          "time": 98.666568,
          "velocity": 0.7637795275590551
        },
        {
          "duration": 0.2465275312499955,
          "durationTicks": 71,
          "midi": 53,
          "name": "F3",
          "ticks": 28512,
          "time": 98.999901,
          "velocity": 0.7244094488188977
        },
        {
          "duration": 0.2465275312499955,
          "durationTicks": 71,
          "midi": 53,
          "name": "F3",
          "ticks": 28608,
          "time": 99.33323399999999,
          "velocity": 0.6850393700787402
        },
        {
          "duration": 0.2465275312499955,
          "durationTicks": 71,
          "midi": 53,
          "name": "F3",
          "ticks": 28704,
          "time": 99.666567,
          "velocity": 0.6535433070866141
        },
        {
          "duration": 0.2465275312499955,
          "durationTicks": 71,
          "midi": 53,
          "name": "F3",
          "ticks": 28800,
          "time": 99.9999,
          "velocity": 0.6141732283464567
        },
        {
          "duration": 0.2465275312499955,
          "durationTicks": 71,
          "midi": 53,
          "name": "F3",
          "ticks": 28896,
          "time": 100.33323299999999,
          "velocity": 0.5748031496062992
        },
        {
          "duration": 0.24652753124998128,
          "durationTicks": 71,
          "midi": 53,
          "name": "F3",
          "ticks": 28992,
          "time": 100.666566,
          "velocity": 0.5433070866141733
        },
        {
          "duration": 0.2465275312499955,
          "durationTicks": 71,
          "midi": 53,
          "name": "F3",
          "ticks": 29088,
          "time": 100.999899,
          "velocity": 0.5039370078740157
        },
        {
          "duration": 0.16319428125000002,
          "durationTicks": 47,
          "midi": 45,
          "name": "A2",
          "ticks": 30000,
          "time": 104.1665625,
          "velocity": 0.7874015748031497
        },
        {
          "duration": 0.16319428125000002,
          "durationTicks": 47,
          "midi": 45,
          "name": "A2",
          "ticks": 30096,
          "time": 104.4998955,
          "velocity": 0.7874015748031497
        },
        {
          "duration": 0.16319428125000002,
          "durationTicks": 47,
          "midi": 45,
          "name": "A2",
          "ticks": 30192,
          "time": 104.83322849999999,
          "velocity": 0.7874015748031497
        },
        {
          "duration": 0.1631942812499858,
          "durationTicks": 47,
          "midi": 45,
          "name": "A2",
          "ticks": 30288,
          "time": 105.1665615,
          "velocity": 0.7874015748031497
        },
        {
          "duration": 0.16319428125000002,
          "durationTicks": 47,
          "midi": 51,
          "name": "D#3",
          "ticks": 30384,
          "time": 105.4998945,
          "velocity": 0.7874015748031497
        },
        {
          "duration": 0.16319428125000002,
          "durationTicks": 47,
          "midi": 51,
          "name": "D#3",
          "ticks": 30480,
          "time": 105.83322749999999,
          "velocity": 0.7874015748031497
        },
        {
          "duration": 0.1631942812499858,
          "durationTicks": 47,
          "midi": 51,
          "name": "D#3",
          "ticks": 30576,
          "time": 106.1665605,
          "velocity": 0.7874015748031497
        },
        {
          "duration": 0.1631942812499858,
          "durationTicks": 47,
          "midi": 51,
          "name": "D#3",
          "ticks": 30672,
          "time": 106.4998935,
          "velocity": 0.7874015748031497
        },
        {
          "duration": 0.16319428125000002,
          "durationTicks": 47,
          "midi": 50,
          "name": "D3",
          "ticks": 30768,
          "time": 106.8332265,
          "velocity": 0.7874015748031497
        },
        {
          "duration": 0.16319428125000002,
          "durationTicks": 47,
          "midi": 50,
          "name": "D3",
          "ticks": 30864,
          "time": 107.16655949999999,
          "velocity": 0.7874015748031497
        },
        {
          "duration": 0.1631942812499858,
          "durationTicks": 47,
          "midi": 50,
          "name": "D3",
          "ticks": 30960,
          "time": 107.4998925,
          "velocity": 0.7874015748031497
        },
        {
          "duration": 0.16319428125000002,
          "durationTicks": 47,
          "midi": 50,
          "name": "D3",
          "ticks": 31056,
          "time": 107.8332255,
          "velocity": 0.7874015748031497
        },
        {
          "duration": 0.16319428125000002,
          "durationTicks": 47,
          "midi": 43,
          "name": "G2",
          "ticks": 31152,
          "time": 108.1665585,
          "velocity": 0.7874015748031497
        },
        {
          "duration": 0.1631942812499858,
          "durationTicks": 47,
          "midi": 43,
          "name": "G2",
          "ticks": 31248,
          "time": 108.4998915,
          "velocity": 0.7874015748031497
        },
        {
          "duration": 0.1631942812499858,
          "durationTicks": 47,
          "midi": 48,
          "name": "C3",
          "ticks": 31344,
          "time": 108.8332245,
          "velocity": 0.7874015748031497
        },
        {
          "duration": 0.16319428125000002,
          "durationTicks": 47,
          "midi": 48,
          "name": "C3",
          "ticks": 31440,
          "time": 109.1665575,
          "velocity": 0.7874015748031497
        },
        {
          "duration": 0.16319428125000002,
          "durationTicks": 47,
          "midi": 49,
          "name": "C#3",
          "ticks": 31536,
          "time": 109.49989049999999,
          "velocity": 0.7874015748031497
        },
        {
          "duration": 0.1631942812499858,
          "durationTicks": 47,
          "midi": 49,
          "name": "C#3",
          "ticks": 31632,
          "time": 109.8332235,
          "velocity": 0.7874015748031497
        },
        {
          "duration": 0.1631942812499858,
          "durationTicks": 47,
          "midi": 49,
          "name": "C#3",
          "ticks": 31728,
          "time": 110.1665565,
          "velocity": 0.7874015748031497
        },
        {
          "duration": 0.16319428125000002,
          "durationTicks": 47,
          "midi": 49,
          "name": "C#3",
          "ticks": 31824,
          "time": 110.4998895,
          "velocity": 0.7874015748031497
        },
        {
          "duration": 0.16319428125000002,
          "durationTicks": 47,
          "midi": 42,
          "name": "F#2",
          "ticks": 31920,
          "time": 110.83322249999999,
          "velocity": 0.7874015748031497
        },
        {
          "duration": 0.1631942812499858,
          "durationTicks": 47,
          "midi": 42,
          "name": "F#2",
          "ticks": 32016,
          "time": 111.1665555,
          "velocity": 0.7874015748031497
        },
        {
          "duration": 0.16319428125000002,
          "durationTicks": 47,
          "midi": 42,
          "name": "F#2",
          "ticks": 32112,
          "time": 111.4998885,
          "velocity": 0.7874015748031497
        },
        {
          "duration": 0.16319428125000002,
          "durationTicks": 47,
          "midi": 42,
          "name": "F#2",
          "ticks": 32208,
          "time": 111.8332215,
          "velocity": 0.7874015748031497
        },
        {
          "duration": 0.1631942812499858,
          "durationTicks": 47,
          "midi": 50,
          "name": "D3",
          "ticks": 32304,
          "time": 112.1665545,
          "velocity": 0.7874015748031497
        },
        {
          "duration": 0.1631942812499858,
          "durationTicks": 47,
          "midi": 50,
          "name": "D3",
          "ticks": 32400,
          "time": 112.4998875,
          "velocity": 0.7874015748031497
        },
        {
          "duration": 0.16319428125000002,
          "durationTicks": 47,
          "midi": 50,
          "name": "D3",
          "ticks": 32496,
          "time": 112.8332205,
          "velocity": 0.7874015748031497
        },
        {
          "duration": 0.16319428125000002,
          "durationTicks": 47,
          "midi": 50,
          "name": "D3",
          "ticks": 32592,
          "time": 113.16655349999999,
          "velocity": 0.7874015748031497
        },
        {
          "duration": 0.1631942812499858,
          "durationTicks": 47,
          "midi": 52,
          "name": "E3",
          "ticks": 32688,
          "time": 113.4998865,
          "velocity": 0.7874015748031497
        },
        {
          "duration": 0.1631942812499858,
          "durationTicks": 47,
          "midi": 52,
          "name": "E3",
          "ticks": 32784,
          "time": 113.8332195,
          "velocity": 0.7874015748031497
        },
        {
          "duration": 0.16319428125000002,
          "durationTicks": 47,
          "midi": 47,
          "name": "B2",
          "ticks": 32880,
          "time": 114.1665525,
          "velocity": 0.7874015748031497
        },
        {
          "duration": 0.16319428125000002,
          "durationTicks": 47,
          "midi": 47,
          "name": "B2",
          "ticks": 32976,
          "time": 114.49988549999999,
          "velocity": 0.7874015748031497
        },
        {
          "duration": 0.1631942812499858,
          "durationTicks": 47,
          "midi": 45,
          "name": "A2",
          "ticks": 33072,
          "time": 114.8332185,
          "velocity": 0.7874015748031497
        },
        {
          "duration": 0.16319428125000002,
          "durationTicks": 47,
          "midi": 45,
          "name": "A2",
          "ticks": 33168,
          "time": 115.1665515,
          "velocity": 0.7874015748031497
        },
        {
          "duration": 0.16319428125000002,
          "durationTicks": 47,
          "midi": 45,
          "name": "A2",
          "ticks": 33264,
          "time": 115.4998845,
          "velocity": 0.7874015748031497
        },
        {
          "duration": 0.1631942812499858,
          "durationTicks": 47,
          "midi": 45,
          "name": "A2",
          "ticks": 33360,
          "time": 115.8332175,
          "velocity": 0.7874015748031497
        },
        {
          "duration": 0.1631942812499858,
          "durationTicks": 47,
          "midi": 51,
          "name": "D#3",
          "ticks": 33456,
          "time": 116.1665505,
          "velocity": 0.7874015748031497
        },
        {
          "duration": 0.16319428125000002,
          "durationTicks": 47,
          "midi": 51,
          "name": "D#3",
          "ticks": 33552,
          "time": 116.4998835,
          "velocity": 0.7874015748031497
        },
        {
          "duration": 0.16319428125000002,
          "durationTicks": 47,
          "midi": 51,
          "name": "D#3",
          "ticks": 33648,
          "time": 116.83321649999999,
          "velocity": 0.7874015748031497
        },
        {
          "duration": 0.1631942812499858,
          "durationTicks": 47,
          "midi": 51,
          "name": "D#3",
          "ticks": 33744,
          "time": 117.1665495,
          "velocity": 0.7874015748031497
        },
        {
          "duration": 0.1631942812499858,
          "durationTicks": 47,
          "midi": 50,
          "name": "D3",
          "ticks": 33840,
          "time": 117.4998825,
          "velocity": 0.7874015748031497
        },
        {
          "duration": 0.16319428125000002,
          "durationTicks": 47,
          "midi": 50,
          "name": "D3",
          "ticks": 33936,
          "time": 117.8332155,
          "velocity": 0.7874015748031497
        },
        {
          "duration": 0.16319428125000002,
          "durationTicks": 47,
          "midi": 50,
          "name": "D3",
          "ticks": 34032,
          "time": 118.16654849999999,
          "velocity": 0.7874015748031497
        },
        {
          "duration": 0.1631942812499858,
          "durationTicks": 47,
          "midi": 50,
          "name": "D3",
          "ticks": 34128,
          "time": 118.4998815,
          "velocity": 0.7874015748031497
        },
        {
          "duration": 0.16319428125000002,
          "durationTicks": 47,
          "midi": 44,
          "name": "G#2",
          "ticks": 34176,
          "time": 118.66654799999999,
          "velocity": 0.7874015748031497
        },
        {
          "duration": 0.16319428125000002,
          "durationTicks": 47,
          "midi": 44,
          "name": "G#2",
          "ticks": 34248,
          "time": 118.91654774999999,
          "velocity": 0.7874015748031497
        },
        {
          "duration": 0.16319428125000002,
          "durationTicks": 47,
          "midi": 44,
          "name": "G#2",
          "ticks": 34320,
          "time": 119.1665475,
          "velocity": 0.7874015748031497
        },
        {
          "duration": 0.32986078124999096,
          "durationTicks": 95,
          "midi": 37,
          "name": "C#2",
          "ticks": 34368,
          "time": 119.333214,
          "velocity": 0.7874015748031497
        },
        {
          "duration": 0.32986078124999096,
          "durationTicks": 95,
          "midi": 49,
          "name": "C#3",
          "ticks": 34464,
          "time": 119.666547,
          "velocity": 0.7874015748031497
        },
        {
          "duration": 0.16319428125000002,
          "durationTicks": 47,
          "midi": 42,
          "name": "F#2",
          "ticks": 34560,
          "time": 119.99987999999999,
          "velocity": 0.7874015748031497
        },
        {
          "duration": 0.16319428125000002,
          "durationTicks": 47,
          "midi": 42,
          "name": "F#2",
          "ticks": 34608,
          "time": 120.1665465,
          "velocity": 0.7874015748031497
        },
        {
          "duration": 0.16319428125000002,
          "durationTicks": 47,
          "midi": 41,
          "name": "F2",
          "ticks": 34752,
          "time": 120.666546,
          "velocity": 0.7874015748031497
        },
        {
          "duration": 0.1631942812499858,
          "durationTicks": 47,
          "midi": 41,
          "name": "F2",
          "ticks": 34800,
          "time": 120.8332125,
          "velocity": 0.7874015748031497
        },
        {
          "duration": 0.1631942812499858,
          "durationTicks": 47,
          "midi": 40,
          "name": "E2",
          "ticks": 34944,
          "time": 121.333212,
          "velocity": 0.7874015748031497
        },
        {
          "duration": 0.16319428125000002,
          "durationTicks": 47,
          "midi": 40,
          "name": "E2",
          "ticks": 34992,
          "time": 121.4998785,
          "velocity": 0.7874015748031497
        },
        {
          "duration": 0.16319428125000002,
          "durationTicks": 47,
          "midi": 45,
          "name": "A2",
          "ticks": 35136,
          "time": 121.999878,
          "velocity": 0.7874015748031497
        },
        {
          "duration": 0.1631942812499858,
          "durationTicks": 47,
          "midi": 45,
          "name": "A2",
          "ticks": 35184,
          "time": 122.1665445,
          "velocity": 0.7874015748031497
        },
        {
          "duration": 0.16319428125000002,
          "durationTicks": 47,
          "midi": 45,
          "name": "A2",
          "ticks": 35232,
          "time": 122.33321099999999,
          "velocity": 0.7874015748031497
        },
        {
          "duration": 0.16319428125000002,
          "durationTicks": 47,
          "midi": 45,
          "name": "A2",
          "ticks": 35280,
          "time": 122.4998775,
          "velocity": 0.7874015748031497
        },
        {
          "duration": 0.16319428125000002,
          "durationTicks": 47,
          "midi": 47,
          "name": "B2",
          "ticks": 35376,
          "time": 122.83321049999999,
          "velocity": 0.7874015748031497
        },
        {
          "duration": 0.1631942812499858,
          "durationTicks": 47,
          "midi": 47,
          "name": "B2",
          "ticks": 35472,
          "time": 123.1665435,
          "velocity": 0.7874015748031497
        },
        {
          "duration": 0.1631942812499858,
          "durationTicks": 47,
          "midi": 49,
          "name": "C#3",
          "ticks": 35568,
          "time": 123.4998765,
          "velocity": 0.7874015748031497
        },
        {
          "duration": 0.16319428125000002,
          "durationTicks": 47,
          "midi": 49,
          "name": "C#3",
          "ticks": 35664,
          "time": 123.8332095,
          "velocity": 0.7874015748031497
        },
        {
          "duration": 0.16319428125000002,
          "durationTicks": 47,
          "midi": 50,
          "name": "D3",
          "ticks": 35760,
          "time": 124.16654249999999,
          "velocity": 0.7874015748031497
        },
        {
          "duration": 0.31944412499998975,
          "durationTicks": 92,
          "midi": 45,
          "name": "A2",
          "ticks": 36096,
          "time": 125.333208,
          "velocity": 0.7874015748031497
        },
        {
          "duration": 0.31944412499998975,
          "durationTicks": 92,
          "midi": 45,
          "name": "A2",
          "ticks": 36192,
          "time": 125.666541,
          "velocity": 0.7874015748031497
        },
        {
          "duration": 0.1527776249999988,
          "durationTicks": 44,
          "midi": 45,
          "name": "A2",
          "ticks": 36288,
          "time": 125.99987399999999,
          "velocity": 0.7874015748031497
        },
        {
          "duration": 0.1527776249999988,
          "durationTicks": 44,
          "midi": 45,
          "name": "A2",
          "ticks": 36336,
          "time": 126.1665405,
          "velocity": 0.7874015748031497
        },
        {
          "duration": 0.2916663750000055,
          "durationTicks": 84,
          "midi": 45,
          "name": "A2",
          "ticks": 36432,
          "time": 126.49987349999999,
          "velocity": 0.7874015748031497
        },
        {
          "duration": 0.29166637499999126,
          "durationTicks": 84,
          "midi": 45,
          "name": "A2",
          "ticks": 36528,
          "time": 126.8332065,
          "velocity": 0.7874015748031497
        },
        {
          "duration": 0.1527776249999846,
          "durationTicks": 44,
          "midi": 45,
          "name": "A2",
          "ticks": 36624,
          "time": 127.1665395,
          "velocity": 0.7874015748031497
        },
        {
          "duration": 0.31944412500000396,
          "durationTicks": 92,
          "midi": 45,
          "name": "A2",
          "ticks": 36672,
          "time": 127.33320599999999,
          "velocity": 0.7874015748031497
        },
        {
          "duration": 0.31944412499998975,
          "durationTicks": 92,
          "midi": 45,
          "name": "A2",
          "ticks": 36768,
          "time": 127.666539,
          "velocity": 0.7874015748031497
        },
        {
          "duration": 0.31944412500000396,
          "durationTicks": 92,
          "midi": 49,
          "name": "C#3",
          "ticks": 36864,
          "time": 127.999872,
          "velocity": 0.7874015748031497
        },
        {
          "duration": 0.31944412499998975,
          "durationTicks": 92,
          "midi": 49,
          "name": "C#3",
          "ticks": 36960,
          "time": 128.333205,
          "velocity": 0.7874015748031497
        },
        {
          "duration": 0.1527776249999988,
          "durationTicks": 44,
          "midi": 49,
          "name": "C#3",
          "ticks": 37056,
          "time": 128.666538,
          "velocity": 0.7874015748031497
        },
        {
          "duration": 0.1527776249999988,
          "durationTicks": 44,
          "midi": 49,
          "name": "C#3",
          "ticks": 37104,
          "time": 128.8332045,
          "velocity": 0.7874015748031497
        },
        {
          "duration": 0.1527776249999988,
          "durationTicks": 44,
          "midi": 52,
          "name": "E3",
          "ticks": 37152,
          "time": 128.99987099999998,
          "velocity": 0.7874015748031497
        },
        {
          "duration": 0.2916663750000055,
          "durationTicks": 84,
          "midi": 49,
          "name": "C#3",
          "ticks": 37200,
          "time": 129.1665375,
          "velocity": 0.7874015748031497
        },
        {
          "duration": 0.1527776249999988,
          "durationTicks": 44,
          "midi": 49,
          "name": "C#3",
          "ticks": 37296,
          "time": 129.4998705,
          "velocity": 0.7874015748031497
        },
        {
          "duration": 0.1527776249999988,
          "durationTicks": 44,
          "midi": 52,
          "name": "E3",
          "ticks": 37344,
          "time": 129.666537,
          "velocity": 0.7874015748031497
        },
        {
          "duration": 0.1527776249999988,
          "durationTicks": 44,
          "midi": 49,
          "name": "C#3",
          "ticks": 37392,
          "time": 129.8332035,
          "velocity": 0.7874015748031497
        },
        {
          "duration": 0.31944412499998975,
          "durationTicks": 92,
          "midi": 49,
          "name": "C#3",
          "ticks": 37440,
          "time": 129.99987,
          "velocity": 0.7874015748031497
        },
        {
          "duration": 0.31944412499998975,
          "durationTicks": 92,
          "midi": 49,
          "name": "C#3",
          "ticks": 37536,
          "time": 130.333203,
          "velocity": 0.7874015748031497
        },
        {
          "duration": 0.31944412499998975,
          "durationTicks": 92,
          "midi": 50,
          "name": "D3",
          "ticks": 37632,
          "time": 130.666536,
          "velocity": 0.7874015748031497
        },
        {
          "duration": 0.31944412499998975,
          "durationTicks": 92,
          "midi": 50,
          "name": "D3",
          "ticks": 37728,
          "time": 130.999869,
          "velocity": 0.7874015748031497
        },
        {
          "duration": 0.1527776249999988,
          "durationTicks": 44,
          "midi": 50,
          "name": "D3",
          "ticks": 37824,
          "time": 131.333202,
          "velocity": 0.7874015748031497
        },
        {
          "duration": 0.1527776249999988,
          "durationTicks": 44,
          "midi": 50,
          "name": "D3",
          "ticks": 37872,
          "time": 131.4998685,
          "velocity": 0.7874015748031497
        },
        {
          "duration": 0.2916663750000055,
          "durationTicks": 84,
          "midi": 50,
          "name": "D3",
          "ticks": 37968,
          "time": 131.8332015,
          "velocity": 0.7874015748031497
        },
        {
          "duration": 0.2916663750000055,
          "durationTicks": 84,
          "midi": 50,
          "name": "D3",
          "ticks": 38064,
          "time": 132.16653449999998,
          "velocity": 0.7874015748031497
        },
        {
          "duration": 0.1527776249999988,
          "durationTicks": 44,
          "midi": 50,
          "name": "D3",
          "ticks": 38160,
          "time": 132.4998675,
          "velocity": 0.7874015748031497
        },
        {
          "duration": 0.3194441250000182,
          "durationTicks": 92,
          "midi": 50,
          "name": "D3",
          "ticks": 38208,
          "time": 132.66653399999998,
          "velocity": 0.7874015748031497
        },
        {
          "duration": 0.31944412499998975,
          "durationTicks": 92,
          "midi": 50,
          "name": "D3",
          "ticks": 38304,
          "time": 132.999867,
          "velocity": 0.7874015748031497
        },
        {
          "duration": 0.31944412499998975,
          "durationTicks": 92,
          "midi": 50,
          "name": "D3",
          "ticks": 38400,
          "time": 133.3332,
          "velocity": 0.7874015748031497
        },
        {
          "duration": 0.31944412499998975,
          "durationTicks": 92,
          "midi": 50,
          "name": "D3",
          "ticks": 38496,
          "time": 133.666533,
          "velocity": 0.7874015748031497
        },
        {
          "duration": 0.31944412499998975,
          "durationTicks": 92,
          "midi": 50,
          "name": "D3",
          "ticks": 38592,
          "time": 133.999866,
          "velocity": 0.7874015748031497
        },
        {
          "duration": 0.1805553749999831,
          "durationTicks": 52,
          "midi": 50,
          "name": "D3",
          "ticks": 38688,
          "time": 134.333199,
          "velocity": 0.7874015748031497
        },
        {
          "duration": 0.8055547499999989,
          "durationTicks": 232,
          "midi": 43,
          "name": "G2",
          "ticks": 38736,
          "time": 134.4998655,
          "velocity": 0.7874015748031497
        },
        {
          "duration": 0.3055552499999976,
          "durationTicks": 88,
          "midi": 55,
          "name": "G3",
          "ticks": 39072,
          "time": 135.666531,
          "velocity": 0.7874015748031497
        },
        {
          "duration": 0.31944412499998975,
          "durationTicks": 92,
          "midi": 45,
          "name": "A2",
          "ticks": 39168,
          "time": 135.999864,
          "velocity": 0.7874015748031497
        },
        {
          "duration": 0.3194441250000182,
          "durationTicks": 92,
          "midi": 45,
          "name": "A2",
          "ticks": 39264,
          "time": 136.33319699999998,
          "velocity": 0.7874015748031497
        },
        {
          "duration": 0.1527776249999988,
          "durationTicks": 44,
          "midi": 45,
          "name": "A2",
          "ticks": 39360,
          "time": 136.66653,
          "velocity": 0.7874015748031497
        },
        {
          "duration": 0.1527776249999988,
          "durationTicks": 44,
          "midi": 45,
          "name": "A2",
          "ticks": 39408,
          "time": 136.83319649999999,
          "velocity": 0.7874015748031497
        },
        {
          "duration": 0.2916663750000055,
          "durationTicks": 84,
          "midi": 45,
          "name": "A2",
          "ticks": 39504,
          "time": 137.1665295,
          "velocity": 0.7874015748031497
        },
        {
          "duration": 0.29166637499997705,
          "durationTicks": 84,
          "midi": 45,
          "name": "A2",
          "ticks": 39600,
          "time": 137.4998625,
          "velocity": 0.7874015748031497
        },
        {
          "duration": 0.1527776249999988,
          "durationTicks": 44,
          "midi": 45,
          "name": "A2",
          "ticks": 39696,
          "time": 137.8331955,
          "velocity": 0.7874015748031497
        },
        {
          "duration": 0.31944412499998975,
          "durationTicks": 92,
          "midi": 45,
          "name": "A2",
          "ticks": 39744,
          "time": 137.999862,
          "velocity": 0.7874015748031497
        },
        {
          "duration": 0.31944412499998975,
          "durationTicks": 92,
          "midi": 45,
          "name": "A2",
          "ticks": 39840,
          "time": 138.333195,
          "velocity": 0.7874015748031497
        },
        {
          "duration": 0.31944412499998975,
          "durationTicks": 92,
          "midi": 49,
          "name": "C#3",
          "ticks": 39936,
          "time": 138.666528,
          "velocity": 0.7874015748031497
        },
        {
          "duration": 0.31944412499998975,
          "durationTicks": 92,
          "midi": 49,
          "name": "C#3",
          "ticks": 40032,
          "time": 138.999861,
          "velocity": 0.7874015748031497
        },
        {
          "duration": 0.1527776249999988,
          "durationTicks": 44,
          "midi": 49,
          "name": "C#3",
          "ticks": 40128,
          "time": 139.333194,
          "velocity": 0.7874015748031497
        },
        {
          "duration": 0.1527776249999988,
          "durationTicks": 44,
          "midi": 49,
          "name": "C#3",
          "ticks": 40176,
          "time": 139.49986049999998,
          "velocity": 0.7874015748031497
        },
        {
          "duration": 0.1527776249999988,
          "durationTicks": 44,
          "midi": 52,
          "name": "E3",
          "ticks": 40224,
          "time": 139.666527,
          "velocity": 0.7874015748031497
        },
        {
          "duration": 0.2916663750000055,
          "durationTicks": 84,
          "midi": 49,
          "name": "C#3",
          "ticks": 40272,
          "time": 139.8331935,
          "velocity": 0.7874015748031497
        },
        {
          "duration": 0.1527776249999988,
          "durationTicks": 44,
          "midi": 49,
          "name": "C#3",
          "ticks": 40368,
          "time": 140.1665265,
          "velocity": 0.7874015748031497
        },
        {
          "duration": 0.1527776249999988,
          "durationTicks": 44,
          "midi": 52,
          "name": "E3",
          "ticks": 40416,
          "time": 140.333193,
          "velocity": 0.7874015748031497
        },
        {
          "duration": 0.1527776249999988,
          "durationTicks": 44,
          "midi": 49,
          "name": "C#3",
          "ticks": 40464,
          "time": 140.49985949999999,
          "velocity": 0.7874015748031497
        },
        {
          "duration": 0.22222200000001635,
          "durationTicks": 64,
          "midi": 50,
          "name": "D3",
          "ticks": 40704,
          "time": 141.333192,
          "velocity": 0.7874015748031497
        },
        {
          "duration": 0.05555549999999698,
          "durationTicks": 16,
          "midi": 50,
          "name": "D3",
          "ticks": 40776,
          "time": 141.58319175,
          "velocity": 0.7874015748031497
        },
        {
          "duration": 0.3055552499999692,
          "durationTicks": 88,
          "midi": 50,
          "name": "D3",
          "ticks": 41056,
          "time": 142.55541300000002,
          "velocity": 0.7874015748031497
        },
        {
          "duration": 0.22222200000001635,
          "durationTicks": 64,
          "midi": 50,
          "name": "D3",
          "ticks": 41376,
          "time": 143.66652299999998,
          "velocity": 0.7874015748031497
        },
        {
          "duration": 0.3055552499999976,
          "durationTicks": 88,
          "midi": 50,
          "name": "D3",
          "ticks": 41472,
          "time": 143.999856,
          "velocity": 0.7874015748031497
        }
      ],
      "endOfTrackTicks": 45698
    },
    {
      "channel": 10,
      "controlChanges": {
        "6": [
          {
            "number": 6,
            "ticks": 0,
            "time": 0,
            "value": 0.09448818897637795
          },
          {
            "number": 6,
            "ticks": 0,
            "time": 0,
            "value": 0.09448818897637795
          },
          {
            "number": 6,
            "ticks": 0,
            "time": 0,
            "value": 0.09448818897637795
          },
          {
            "number": 6,
            "ticks": 45696,
            "time": 158.666508,
            "value": 0.09448818897637795
          },
          {
            "number": 6,
            "ticks": 45698,
            "time": 158.67345243749998,
            "value": 0.09448818897637795
          }
        ],
        "7": [
          {
            "number": 7,
            "ticks": 0,
            "time": 0,
            "value": 0.7874015748031497
          },
          {
            "number": 7,
            "ticks": 0,
            "time": 0,
            "value": 0.7874015748031497
          },
          {
            "number": 7,
            "ticks": 0,
            "time": 0,
            "value": 0.7874015748031497
          },
          {
            "number": 7,
            "ticks": 0,
            "time": 0,
            "value": 0.7874015748031497
          },
          {
            "number": 7,
            "ticks": 45696,
            "time": 158.666508,
            "value": 0.7874015748031497
          },
          {
            "number": 7,
            "ticks": 45698,
            "time": 158.67345243749998,
            "value": 0.7874015748031497
          }
        ],
        "10": [
          {
            "number": 10,
            "ticks": 0,
            "time": 0,
            "value": 0.5039370078740157
          },
          {
            "number": 10,
            "ticks": 0,
            "time": 0,
            "value": 0.5039370078740157
          },
          {
            "number": 10,
            "ticks": 0,
            "time": 0,
            "value": 0.5039370078740157
          },
          {
            "number": 10,
            "ticks": 0,
            "time": 0,
            "value": 0.5039370078740157
          },
          {
            "number": 10,
            "ticks": 45696,
            "time": 158.666508,
            "value": 0.5039370078740157
          },
          {
            "number": 10,
            "ticks": 45698,
            "time": 158.67345243749998,
            "value": 0.5039370078740157
          }
        ],
        "100": [
          {
            "number": 100,
            "ticks": 0,
            "time": 0,
            "value": 0
          },
          {
            "number": 100,
            "ticks": 0,
            "time": 0,
            "value": 0
          },
          {
            "number": 100,
            "ticks": 0,
            "time": 0,
            "value": 0
          },
          {
            "number": 100,
            "ticks": 45696,
            "time": 158.666508,
            "value": 0
          },
          {
            "number": 100,
            "ticks": 45698,
            "time": 158.67345243749998,
            "value": 0
          }
        ],
        "101": [
          {
            "number": 101,
            "ticks": 0,
            "time": 0,
            "value": 0
          },
          {
            "number": 101,
            "ticks": 0,
            "time": 0,
            "value": 0
          },
          {
            "number": 101,
            "ticks": 0,
            "time": 0,
            "value": 0
          },
          {
            "number": 101,
            "ticks": 45696,
            "time": 158.666508,
            "value": 0
          },
          {
            "number": 101,
            "ticks": 45698,
            "time": 158.67345243749998,
            "value": 0
          }
        ]
      },
      "pitchBends": [
        {
          "ticks": 0,
          "time": 0,
          "value": 0
        },
        {
          "ticks": 0,
          "time": 0,
          "value": 0
        },
        {
          "ticks": 0,
          "time": 0,
          "value": 0
        },
        {
          "ticks": 0,
          "time": 0,
          "value": 0
        },
        {
          "ticks": 45696,
          "time": 158.666508,
          "value": 0
        },
        {
          "ticks": 45698,
          "time": 158.67345243749998,
          "value": 0
        }
      ],
      "instrument": {
        "family": "piano",
        "number": 0,
        "name": "acoustic grand piano"
      },
      "name": "Bass #2",
      "notes": [
        {
          "duration": 0.06249993750000016,
          "durationTicks": 18,
          "midi": 45,
          "name": "A2",
          "ticks": 10080,
          "time": 34.999964999999996,
          "velocity": 0.2677165354330709
        },
        {
          "duration": 0.06249993750000016,
          "durationTicks": 18,
          "midi": 57,
          "name": "A3",
          "ticks": 10080,
          "time": 34.999964999999996,
          "velocity": 0.2677165354330709
        },
        {
          "duration": 0.06249993750000016,
          "durationTicks": 18,
          "midi": 33,
          "name": "A1",
          "ticks": 10080,
          "time": 34.999964999999996,
          "velocity": 0.2677165354330709
        },
        {
          "duration": 0.06249993750000016,
          "durationTicks": 18,
          "midi": 45,
          "name": "A2",
          "ticks": 10104,
          "time": 35.08329825,
          "velocity": 0.28346456692913385
        },
        {
          "duration": 0.06249993750000016,
          "durationTicks": 18,
          "midi": 57,
          "name": "A3",
          "ticks": 10104,
          "time": 35.08329825,
          "velocity": 0.28346456692913385
        },
        {
          "duration": 0.06249993750000016,
          "durationTicks": 18,
          "midi": 33,
          "name": "A1",
          "ticks": 10104,
          "time": 35.08329825,
          "velocity": 0.28346456692913385
        },
        {
          "duration": 0.06249993750000016,
          "durationTicks": 18,
          "midi": 45,
          "name": "A2",
          "ticks": 10128,
          "time": 35.1666315,
          "velocity": 0.30708661417322836
        },
        {
          "duration": 0.06249993750000016,
          "durationTicks": 18,
          "midi": 57,
          "name": "A3",
          "ticks": 10128,
          "time": 35.1666315,
          "velocity": 0.30708661417322836
        },
        {
          "duration": 0.06249993750000016,
          "durationTicks": 18,
          "midi": 33,
          "name": "A1",
          "ticks": 10128,
          "time": 35.1666315,
          "velocity": 0.30708661417322836
        },
        {
          "duration": 0.06249993750000016,
          "durationTicks": 18,
          "midi": 45,
          "name": "A2",
          "ticks": 10152,
          "time": 35.24996475,
          "velocity": 0.3228346456692913
        },
        {
          "duration": 0.06249993750000016,
          "durationTicks": 18,
          "midi": 57,
          "name": "A3",
          "ticks": 10152,
          "time": 35.24996475,
          "velocity": 0.3228346456692913
        },
        {
          "duration": 0.06249993750000016,
          "durationTicks": 18,
          "midi": 33,
          "name": "A1",
          "ticks": 10152,
          "time": 35.24996475,
          "velocity": 0.3228346456692913
        },
        {
          "duration": 0.04513884375000288,
          "durationTicks": 13,
          "midi": 45,
          "name": "A2",
          "ticks": 10176,
          "time": 35.333298,
          "velocity": 0.33858267716535434
        },
        {
          "duration": 0.04513884375000288,
          "durationTicks": 13,
          "midi": 57,
          "name": "A3",
          "ticks": 10176,
          "time": 35.333298,
          "velocity": 0.33858267716535434
        },
        {
          "duration": 0.04513884375000288,
          "durationTicks": 13,
          "midi": 33,
          "name": "A1",
          "ticks": 10176,
          "time": 35.333298,
          "velocity": 0.33858267716535434
        },
        {
          "duration": 0.04513884374999577,
          "durationTicks": 13,
          "midi": 45,
          "name": "A2",
          "ticks": 10200,
          "time": 35.41663125,
          "velocity": 0.3543307086614173
        },
        {
          "duration": 0.04513884374999577,
          "durationTicks": 13,
          "midi": 57,
          "name": "A3",
          "ticks": 10200,
          "time": 35.41663125,
          "velocity": 0.3543307086614173
        },
        {
          "duration": 0.04513884374999577,
          "durationTicks": 13,
          "midi": 33,
          "name": "A1",
          "ticks": 10200,
          "time": 35.41663125,
          "velocity": 0.3543307086614173
        },
        {
          "duration": 0.04513884375000288,
          "durationTicks": 13,
          "midi": 45,
          "name": "A2",
          "ticks": 10224,
          "time": 35.4999645,
          "velocity": 0.3779527559055118
        },
        {
          "duration": 0.04513884375000288,
          "durationTicks": 13,
          "midi": 57,
          "name": "A3",
          "ticks": 10224,
          "time": 35.4999645,
          "velocity": 0.3779527559055118
        },
        {
          "duration": 0.04513884375000288,
          "durationTicks": 13,
          "midi": 33,
          "name": "A1",
          "ticks": 10224,
          "time": 35.4999645,
          "velocity": 0.3779527559055118
        },
        {
          "duration": 0.04513884375000288,
          "durationTicks": 13,
          "midi": 45,
          "name": "A2",
          "ticks": 10248,
          "time": 35.58329775,
          "velocity": 0.3937007874015748
        },
        {
          "duration": 0.04513884375000288,
          "durationTicks": 13,
          "midi": 57,
          "name": "A3",
          "ticks": 10248,
          "time": 35.58329775,
          "velocity": 0.3937007874015748
        },
        {
          "duration": 0.04513884375000288,
          "durationTicks": 13,
          "midi": 33,
          "name": "A1",
          "ticks": 10248,
          "time": 35.58329775,
          "velocity": 0.3937007874015748
        },
        {
          "duration": 0.038194406249992596,
          "durationTicks": 11,
          "midi": 45,
          "name": "A2",
          "ticks": 10272,
          "time": 35.666631,
          "velocity": 0.4094488188976378
        },
        {
          "duration": 0.038194406249992596,
          "durationTicks": 11,
          "midi": 57,
          "name": "A3",
          "ticks": 10272,
          "time": 35.666631,
          "velocity": 0.4094488188976378
        },
        {
          "duration": 0.038194406249992596,
          "durationTicks": 11,
          "midi": 33,
          "name": "A1",
          "ticks": 10272,
          "time": 35.666631,
          "velocity": 0.4094488188976378
        },
        {
          "duration": 0.0381944062499997,
          "durationTicks": 11,
          "midi": 45,
          "name": "A2",
          "ticks": 10296,
          "time": 35.74996425,
          "velocity": 0.4330708661417323
        },
        {
          "duration": 0.0381944062499997,
          "durationTicks": 11,
          "midi": 57,
          "name": "A3",
          "ticks": 10296,
          "time": 35.74996425,
          "velocity": 0.4330708661417323
        },
        {
          "duration": 0.0381944062499997,
          "durationTicks": 11,
          "midi": 33,
          "name": "A1",
          "ticks": 10296,
          "time": 35.74996425,
          "velocity": 0.4330708661417323
        },
        {
          "duration": 0.0381944062499997,
          "durationTicks": 11,
          "midi": 45,
          "name": "A2",
          "ticks": 10320,
          "time": 35.8332975,
          "velocity": 0.44881889763779526
        },
        {
          "duration": 0.0381944062499997,
          "durationTicks": 11,
          "midi": 57,
          "name": "A3",
          "ticks": 10320,
          "time": 35.8332975,
          "velocity": 0.44881889763779526
        },
        {
          "duration": 0.0381944062499997,
          "durationTicks": 11,
          "midi": 33,
          "name": "A1",
          "ticks": 10320,
          "time": 35.8332975,
          "velocity": 0.44881889763779526
        },
        {
          "duration": 0.0381944062499997,
          "durationTicks": 11,
          "midi": 45,
          "name": "A2",
          "ticks": 10344,
          "time": 35.916630749999996,
          "velocity": 0.4645669291338583
        },
        {
          "duration": 0.0381944062499997,
          "durationTicks": 11,
          "midi": 57,
          "name": "A3",
          "ticks": 10344,
          "time": 35.916630749999996,
          "velocity": 0.4645669291338583
        },
        {
          "duration": 0.0381944062499997,
          "durationTicks": 11,
          "midi": 33,
          "name": "A1",
          "ticks": 10344,
          "time": 35.916630749999996,
          "velocity": 0.4645669291338583
        },
        {
          "duration": 0.024305531250000456,
          "durationTicks": 7,
          "midi": 45,
          "name": "A2",
          "ticks": 10368,
          "time": 35.999964,
          "velocity": 0.48031496062992124
        },
        {
          "duration": 0.024305531250000456,
          "durationTicks": 7,
          "midi": 57,
          "name": "A3",
          "ticks": 10368,
          "time": 35.999964,
          "velocity": 0.48031496062992124
        },
        {
          "duration": 0.024305531250000456,
          "durationTicks": 7,
          "midi": 33,
          "name": "A1",
          "ticks": 10368,
          "time": 35.999964,
          "velocity": 0.48031496062992124
        },
        {
          "duration": 0.024305531250000456,
          "durationTicks": 7,
          "midi": 45,
          "name": "A2",
          "ticks": 10392,
          "time": 36.08329725,
          "velocity": 0.5039370078740157
        },
        {
          "duration": 0.024305531250000456,
          "durationTicks": 7,
          "midi": 57,
          "name": "A3",
          "ticks": 10392,
          "time": 36.08329725,
          "velocity": 0.5039370078740157
        },
        {
          "duration": 0.024305531250000456,
          "durationTicks": 7,
          "midi": 33,
          "name": "A1",
          "ticks": 10392,
          "time": 36.08329725,
          "velocity": 0.5039370078740157
        },
        {
          "duration": 0.024305531250000456,
          "durationTicks": 7,
          "midi": 45,
          "name": "A2",
          "ticks": 10416,
          "time": 36.1666305,
          "velocity": 0.5196850393700787
        },
        {
          "duration": 0.024305531250000456,
          "durationTicks": 7,
          "midi": 57,
          "name": "A3",
          "ticks": 10416,
          "time": 36.1666305,
          "velocity": 0.5196850393700787
        },
        {
          "duration": 0.024305531250000456,
          "durationTicks": 7,
          "midi": 33,
          "name": "A1",
          "ticks": 10416,
          "time": 36.1666305,
          "velocity": 0.5196850393700787
        },
        {
          "duration": 0.024305531250000456,
          "durationTicks": 7,
          "midi": 45,
          "name": "A2",
          "ticks": 10440,
          "time": 36.24996375,
          "velocity": 0.5354330708661418
        },
        {
          "duration": 0.024305531250000456,
          "durationTicks": 7,
          "midi": 57,
          "name": "A3",
          "ticks": 10440,
          "time": 36.24996375,
          "velocity": 0.5354330708661418
        },
        {
          "duration": 0.024305531250000456,
          "durationTicks": 7,
          "midi": 33,
          "name": "A1",
          "ticks": 10440,
          "time": 36.24996375,
          "velocity": 0.5354330708661418
        },
        {
          "duration": 0.024305531250000456,
          "durationTicks": 7,
          "midi": 45,
          "name": "A2",
          "ticks": 10464,
          "time": 36.333297,
          "velocity": 0.5590551181102362
        },
        {
          "duration": 0.024305531250000456,
          "durationTicks": 7,
          "midi": 57,
          "name": "A3",
          "ticks": 10464,
          "time": 36.333297,
          "velocity": 0.5590551181102362
        },
        {
          "duration": 0.024305531250000456,
          "durationTicks": 7,
          "midi": 33,
          "name": "A1",
          "ticks": 10464,
          "time": 36.333297,
          "velocity": 0.5590551181102362
        },
        {
          "duration": 0.024305531250000456,
          "durationTicks": 7,
          "midi": 45,
          "name": "A2",
          "ticks": 10488,
          "time": 36.41663025,
          "velocity": 0.5748031496062992
        },
        {
          "duration": 0.024305531250000456,
          "durationTicks": 7,
          "midi": 57,
          "name": "A3",
          "ticks": 10488,
          "time": 36.41663025,
          "velocity": 0.5748031496062992
        },
        {
          "duration": 0.024305531250000456,
          "durationTicks": 7,
          "midi": 33,
          "name": "A1",
          "ticks": 10488,
          "time": 36.41663025,
          "velocity": 0.5748031496062992
        },
        {
          "duration": 0.024305531250000456,
          "durationTicks": 7,
          "midi": 45,
          "name": "A2",
          "ticks": 10512,
          "time": 36.4999635,
          "velocity": 0.5905511811023622
        },
        {
          "duration": 0.024305531250000456,
          "durationTicks": 7,
          "midi": 57,
          "name": "A3",
          "ticks": 10512,
          "time": 36.4999635,
          "velocity": 0.5905511811023622
        },
        {
          "duration": 0.024305531250000456,
          "durationTicks": 7,
          "midi": 33,
          "name": "A1",
          "ticks": 10512,
          "time": 36.4999635,
          "velocity": 0.5905511811023622
        },
        {
          "duration": 0.024305531250000456,
          "durationTicks": 7,
          "midi": 57,
          "name": "A3",
          "ticks": 10536,
          "time": 36.58329675,
          "velocity": 0.6062992125984252
        },
        {
          "duration": 0.024305531250000456,
          "durationTicks": 7,
          "midi": 45,
          "name": "A2",
          "ticks": 10536,
          "time": 36.58329675,
          "velocity": 0.6062992125984252
        },
        {
          "duration": 0.024305531250000456,
          "durationTicks": 7,
          "midi": 33,
          "name": "A1",
          "ticks": 10536,
          "time": 36.58329675,
          "velocity": 0.6062992125984252
        },
        {
          "duration": 0.024305531250000456,
          "durationTicks": 7,
          "midi": 57,
          "name": "A3",
          "ticks": 10560,
          "time": 36.66663,
          "velocity": 0.6299212598425197
        },
        {
          "duration": 0.024305531250000456,
          "durationTicks": 7,
          "midi": 45,
          "name": "A2",
          "ticks": 10560,
          "time": 36.66663,
          "velocity": 0.6299212598425197
        },
        {
          "duration": 0.024305531250000456,
          "durationTicks": 7,
          "midi": 33,
          "name": "A1",
          "ticks": 10560,
          "time": 36.66663,
          "velocity": 0.6299212598425197
        },
        {
          "duration": 0.024305531250000456,
          "durationTicks": 7,
          "midi": 45,
          "name": "A2",
          "ticks": 10584,
          "time": 36.74996325,
          "velocity": 0.6456692913385826
        },
        {
          "duration": 0.024305531250000456,
          "durationTicks": 7,
          "midi": 57,
          "name": "A3",
          "ticks": 10584,
          "time": 36.74996325,
          "velocity": 0.6456692913385826
        },
        {
          "duration": 0.024305531250000456,
          "durationTicks": 7,
          "midi": 33,
          "name": "A1",
          "ticks": 10584,
          "time": 36.74996325,
          "velocity": 0.6456692913385826
        },
        {
          "duration": 0.02430553125000756,
          "durationTicks": 7,
          "midi": 57,
          "name": "A3",
          "ticks": 10608,
          "time": 36.833296499999996,
          "velocity": 0.6614173228346457
        },
        {
          "duration": 0.02430553125000756,
          "durationTicks": 7,
          "midi": 45,
          "name": "A2",
          "ticks": 10608,
          "time": 36.833296499999996,
          "velocity": 0.6614173228346457
        },
        {
          "duration": 0.02430553125000756,
          "durationTicks": 7,
          "midi": 33,
          "name": "A1",
          "ticks": 10608,
          "time": 36.833296499999996,
          "velocity": 0.6614173228346457
        },
        {
          "duration": 0.024305531250000456,
          "durationTicks": 7,
          "midi": 57,
          "name": "A3",
          "ticks": 10632,
          "time": 36.91662975,
          "velocity": 0.6850393700787402
        },
        {
          "duration": 0.024305531250000456,
          "durationTicks": 7,
          "midi": 45,
          "name": "A2",
          "ticks": 10632,
          "time": 36.91662975,
          "velocity": 0.6850393700787402
        },
        {
          "duration": 0.024305531250000456,
          "durationTicks": 7,
          "midi": 33,
          "name": "A1",
          "ticks": 10632,
          "time": 36.91662975,
          "velocity": 0.6850393700787402
        },
        {
          "duration": 0.04166662499999774,
          "durationTicks": 12,
          "midi": 64,
          "name": "E4",
          "ticks": 10848,
          "time": 37.666629,
          "velocity": 0.7086614173228346
        },
        {
          "duration": 0.04166662499999774,
          "durationTicks": 12,
          "midi": 52,
          "name": "E3",
          "ticks": 10848,
          "time": 37.666629,
          "velocity": 0.7086614173228346
        },
        {
          "duration": 0.04166662499999774,
          "durationTicks": 12,
          "midi": 40,
          "name": "E2",
          "ticks": 10848,
          "time": 37.666629,
          "velocity": 0.5118110236220472
        },
        {
          "duration": 0.04166662499999774,
          "durationTicks": 12,
          "midi": 52,
          "name": "E3",
          "ticks": 10860,
          "time": 37.708295625,
          "velocity": 0.7086614173228346
        },
        {
          "duration": 0.04166662500000484,
          "durationTicks": 12,
          "midi": 41,
          "name": "F2",
          "ticks": 10872,
          "time": 37.749962249999996,
          "velocity": 0.5118110236220472
        },
        {
          "duration": 0.04166662500000484,
          "durationTicks": 12,
          "midi": 53,
          "name": "F3",
          "ticks": 10872,
          "time": 37.749962249999996,
          "velocity": 0.7086614173228346
        },
        {
          "duration": 0.04166662500000484,
          "durationTicks": 12,
          "midi": 65,
          "name": "F4",
          "ticks": 10872,
          "time": 37.749962249999996,
          "velocity": 0.7086614173228346
        },
        {
          "duration": 0.08333325000000258,
          "durationTicks": 24,
          "midi": 73,
          "name": "C#5",
          "ticks": 10872,
          "time": 37.749962249999996,
          "velocity": 0.2755905511811024
        },
        {
          "duration": 0.04166662499999774,
          "durationTicks": 12,
          "midi": 53,
          "name": "F3",
          "ticks": 10884,
          "time": 37.791628875,
          "velocity": 0.7086614173228346
        },
        {
          "duration": 0.04166662499999774,
          "durationTicks": 12,
          "midi": 54,
          "name": "F#3",
          "ticks": 10896,
          "time": 37.8332955,
          "velocity": 0.7086614173228346
        },
        {
          "duration": 0.04166662499999774,
          "durationTicks": 12,
          "midi": 66,
          "name": "F#4",
          "ticks": 10896,
          "time": 37.8332955,
          "velocity": 0.7086614173228346
        },
        {
          "duration": 0.04166662499999774,
          "durationTicks": 12,
          "midi": 42,
          "name": "F#2",
          "ticks": 10896,
          "time": 37.8332955,
          "velocity": 0.5118110236220472
        },
        {
          "duration": 0.04166662500000484,
          "durationTicks": 12,
          "midi": 54,
          "name": "F#3",
          "ticks": 10908,
          "time": 37.874962124999996,
          "velocity": 0.7086614173228346
        },
        {
          "duration": 0.04166662499999774,
          "durationTicks": 12,
          "midi": 43,
          "name": "G2",
          "ticks": 10920,
          "time": 37.91662875,
          "velocity": 0.5118110236220472
        },
        {
          "duration": 0.04166662499999774,
          "durationTicks": 12,
          "midi": 55,
          "name": "G3",
          "ticks": 10920,
          "time": 37.91662875,
          "velocity": 0.7086614173228346
        },
        {
          "duration": 0.04166662499999774,
          "durationTicks": 12,
          "midi": 67,
          "name": "G4",
          "ticks": 10920,
          "time": 37.91662875,
          "velocity": 0.7086614173228346
        },
        {
          "duration": 0.08333324999999547,
          "durationTicks": 24,
          "midi": 74,
          "name": "D5",
          "ticks": 10920,
          "time": 37.91662875,
          "velocity": 0.28346456692913385
        },
        {
          "duration": 0.04166662499999774,
          "durationTicks": 12,
          "midi": 55,
          "name": "G3",
          "ticks": 10932,
          "time": 37.958295375,
          "velocity": 0.7086614173228346
        },
        {
          "duration": 0.04166662500000484,
          "durationTicks": 12,
          "midi": 68,
          "name": "G#4",
          "ticks": 10944,
          "time": 37.999962,
          "velocity": 0.7086614173228346
        },
        {
          "duration": 0.04166662500000484,
          "durationTicks": 12,
          "midi": 56,
          "name": "G#3",
          "ticks": 10944,
          "time": 37.999962,
          "velocity": 0.7086614173228346
        },
        {
          "duration": 0.04166662500000484,
          "durationTicks": 12,
          "midi": 44,
          "name": "G#2",
          "ticks": 10944,
          "time": 37.999962,
          "velocity": 0.5118110236220472
        },
        {
          "duration": 0.04166662499999774,
          "durationTicks": 12,
          "midi": 56,
          "name": "G#3",
          "ticks": 10956,
          "time": 38.041628625,
          "velocity": 0.7086614173228346
        },
        {
          "duration": 0.04166662499999774,
          "durationTicks": 12,
          "midi": 45,
          "name": "A2",
          "ticks": 10968,
          "time": 38.08329525,
          "velocity": 0.5118110236220472
        },
        {
          "duration": 0.04166662499999774,
          "durationTicks": 12,
          "midi": 69,
          "name": "A4",
          "ticks": 10968,
          "time": 38.08329525,
          "velocity": 0.7086614173228346
        },
        {
          "duration": 0.04166662499999774,
          "durationTicks": 12,
          "midi": 57,
          "name": "A3",
          "ticks": 10968,
          "time": 38.08329525,
          "velocity": 0.7086614173228346
        },
        {
          "duration": 0.08333325000000258,
          "durationTicks": 24,
          "midi": 75,
          "name": "D#5",
          "ticks": 10968,
          "time": 38.08329525,
          "velocity": 0.28346456692913385
        },
        {
          "duration": 0.04166662500000484,
          "durationTicks": 12,
          "midi": 57,
          "name": "A3",
          "ticks": 10980,
          "time": 38.124961875,
          "velocity": 0.7086614173228346
        },
        {
          "duration": 0.04166662499999774,
          "durationTicks": 12,
          "midi": 70,
          "name": "A#4",
          "ticks": 10992,
          "time": 38.1666285,
          "velocity": 0.7086614173228346
        },
        {
          "duration": 0.04166662499999774,
          "durationTicks": 12,
          "midi": 58,
          "name": "A#3",
          "ticks": 10992,
          "time": 38.1666285,
          "velocity": 0.7086614173228346
        },
        {
          "duration": 0.04166662499999774,
          "durationTicks": 12,
          "midi": 46,
          "name": "A#2",
          "ticks": 10992,
          "time": 38.1666285,
          "velocity": 0.5118110236220472
        },
        {
          "duration": 0.04166662499999774,
          "durationTicks": 12,
          "midi": 58,
          "name": "A#3",
          "ticks": 11004,
          "time": 38.208295125,
          "velocity": 0.7086614173228346
        },
        {
          "duration": 0.08333325000000258,
          "durationTicks": 24,
          "midi": 76,
          "name": "E5",
          "ticks": 11016,
          "time": 38.24996175,
          "velocity": 0.29133858267716534
        },
        {
          "duration": 0.04166662500000484,
          "durationTicks": 12,
          "midi": 59,
          "name": "B3",
          "ticks": 11016,
          "time": 38.24996175,
          "velocity": 0.7086614173228346
        },
        {
          "duration": 0.04166662500000484,
          "durationTicks": 12,
          "midi": 71,
          "name": "B4",
          "ticks": 11016,
          "time": 38.24996175,
          "velocity": 0.7086614173228346
        },
        {
          "duration": 0.04166662500000484,
          "durationTicks": 12,
          "midi": 47,
          "name": "B2",
          "ticks": 11016,
          "time": 38.24996175,
          "velocity": 0.5118110236220472
        },
        {
          "duration": 0.04166662499999774,
          "durationTicks": 12,
          "midi": 59,
          "name": "B3",
          "ticks": 11028,
          "time": 38.291628375,
          "velocity": 0.7086614173228346
        },
        {
          "duration": 0.04166662499999774,
          "durationTicks": 12,
          "midi": 72,
          "name": "C5",
          "ticks": 11040,
          "time": 38.333295,
          "velocity": 0.7086614173228346
        },
        {
          "duration": 0.04166662499999774,
          "durationTicks": 12,
          "midi": 60,
          "name": "C4",
          "ticks": 11040,
          "time": 38.333295,
          "velocity": 0.7086614173228346
        },
        {
          "duration": 0.04166662499999774,
          "durationTicks": 12,
          "midi": 48,
          "name": "C3",
          "ticks": 11040,
          "time": 38.333295,
          "velocity": 0.5118110236220472
        },
        {
          "duration": 0.04166662500000484,
          "durationTicks": 12,
          "midi": 60,
          "name": "C4",
          "ticks": 11052,
          "time": 38.374961625,
          "velocity": 0.7086614173228346
        },
        {
          "duration": 0.08333324999999547,
          "durationTicks": 24,
          "midi": 77,
          "name": "F5",
          "ticks": 11064,
          "time": 38.41662825,
          "velocity": 0.2992125984251969
        },
        {
          "duration": 0.04166662499999774,
          "durationTicks": 12,
          "midi": 73,
          "name": "C#5",
          "ticks": 11064,
          "time": 38.41662825,
          "velocity": 0.7086614173228346
        },
        {
          "duration": 0.04166662499999774,
          "durationTicks": 12,
          "midi": 61,
          "name": "C#4",
          "ticks": 11064,
          "time": 38.41662825,
          "velocity": 0.7086614173228346
        },
        {
          "duration": 0.04166662499999774,
          "durationTicks": 12,
          "midi": 49,
          "name": "C#3",
          "ticks": 11064,
          "time": 38.41662825,
          "velocity": 0.5118110236220472
        },
        {
          "duration": 0.04166662499999774,
          "durationTicks": 12,
          "midi": 61,
          "name": "C#4",
          "ticks": 11076,
          "time": 38.458294875,
          "velocity": 0.7086614173228346
        },
        {
          "duration": 0.04166662499999774,
          "durationTicks": 12,
          "midi": 64,
          "name": "E4",
          "ticks": 11088,
          "time": 38.4999615,
          "velocity": 0.7086614173228346
        },
        {
          "duration": 0.04166662499999774,
          "durationTicks": 12,
          "midi": 52,
          "name": "E3",
          "ticks": 11088,
          "time": 38.4999615,
          "velocity": 0.7086614173228346
        },
        {
          "duration": 0.04166662499999774,
          "durationTicks": 12,
          "midi": 40,
          "name": "E2",
          "ticks": 11088,
          "time": 38.4999615,
          "velocity": 0.5118110236220472
        },
        {
          "duration": 0.04166662500000484,
          "durationTicks": 12,
          "midi": 52,
          "name": "E3",
          "ticks": 11100,
          "time": 38.541628124999995,
          "velocity": 0.7086614173228346
        },
        {
          "duration": 0.04166662499999774,
          "durationTicks": 12,
          "midi": 64,
          "name": "E4",
          "ticks": 11112,
          "time": 38.58329475,
          "velocity": 0.7086614173228346
        },
        {
          "duration": 0.08333324999999547,
          "durationTicks": 24,
          "midi": 72,
          "name": "C5",
          "ticks": 11112,
          "time": 38.58329475,
          "velocity": 0.30708661417322836
        },
        {
          "duration": 0.04166662499999774,
          "durationTicks": 12,
          "midi": 52,
          "name": "E3",
          "ticks": 11112,
          "time": 38.58329475,
          "velocity": 0.7086614173228346
        },
        {
          "duration": 0.04166662499999774,
          "durationTicks": 12,
          "midi": 40,
          "name": "E2",
          "ticks": 11112,
          "time": 38.58329475,
          "velocity": 0.5118110236220472
        },
        {
          "duration": 0.04166662499999774,
          "durationTicks": 12,
          "midi": 52,
          "name": "E3",
          "ticks": 11124,
          "time": 38.624961375,
          "velocity": 0.7086614173228346
        },
        {
          "duration": 0.04166662500000484,
          "durationTicks": 12,
          "midi": 53,
          "name": "F3",
          "ticks": 11136,
          "time": 38.666627999999996,
          "velocity": 0.7086614173228346
        },
        {
          "duration": 0.04166662500000484,
          "durationTicks": 12,
          "midi": 65,
          "name": "F4",
          "ticks": 11136,
          "time": 38.666627999999996,
          "velocity": 0.7086614173228346
        },
        {
          "duration": 0.04166662500000484,
          "durationTicks": 12,
          "midi": 41,
          "name": "F2",
          "ticks": 11136,
          "time": 38.666627999999996,
          "velocity": 0.5118110236220472
        },
        {
          "duration": 0.04166662499999774,
          "durationTicks": 12,
          "midi": 53,
          "name": "F3",
          "ticks": 11148,
          "time": 38.708294625,
          "velocity": 0.7086614173228346
        },
        {
          "duration": 0.04166662499999774,
          "durationTicks": 12,
          "midi": 65,
          "name": "F4",
          "ticks": 11160,
          "time": 38.74996125,
          "velocity": 0.7086614173228346
        },
        {
          "duration": 0.08333325000000258,
          "durationTicks": 24,
          "midi": 73,
          "name": "C#5",
          "ticks": 11160,
          "time": 38.74996125,
          "velocity": 0.30708661417322836
        },
        {
          "duration": 0.04166662499999774,
          "durationTicks": 12,
          "midi": 53,
          "name": "F3",
          "ticks": 11160,
          "time": 38.74996125,
          "velocity": 0.7086614173228346
        },
        {
          "duration": 0.04166662499999774,
          "durationTicks": 12,
          "midi": 41,
          "name": "F2",
          "ticks": 11160,
          "time": 38.74996125,
          "velocity": 0.5118110236220472
        },
        {
          "duration": 0.04166662500000484,
          "durationTicks": 12,
          "midi": 53,
          "name": "F3",
          "ticks": 11172,
          "time": 38.791627874999996,
          "velocity": 0.7086614173228346
        },
        {
          "duration": 0.04166662499999774,
          "durationTicks": 12,
          "midi": 66,
          "name": "F#4",
          "ticks": 11184,
          "time": 38.8332945,
          "velocity": 0.7086614173228346
        },
        {
          "duration": 0.04166662499999774,
          "durationTicks": 12,
          "midi": 54,
          "name": "F#3",
          "ticks": 11184,
          "time": 38.8332945,
          "velocity": 0.7086614173228346
        },
        {
          "duration": 0.04166662499999774,
          "durationTicks": 12,
          "midi": 42,
          "name": "F#2",
          "ticks": 11184,
          "time": 38.8332945,
          "velocity": 0.5118110236220472
        },
        {
          "duration": 0.04166662499999774,
          "durationTicks": 12,
          "midi": 54,
          "name": "F#3",
          "ticks": 11196,
          "time": 38.874961125,
          "velocity": 0.7086614173228346
        },
        {
          "duration": 0.04166662500000484,
          "durationTicks": 12,
          "midi": 66,
          "name": "F#4",
          "ticks": 11208,
          "time": 38.916627749999996,
          "velocity": 0.7086614173228346
        },
        {
          "duration": 0.08333325000000258,
          "durationTicks": 24,
          "midi": 74,
          "name": "D5",
          "ticks": 11208,
          "time": 38.916627749999996,
          "velocity": 0.31496062992125984
        },
        {
          "duration": 0.04166662500000484,
          "durationTicks": 12,
          "midi": 54,
          "name": "F#3",
          "ticks": 11208,
          "time": 38.916627749999996,
          "velocity": 0.7086614173228346
        },
        {
          "duration": 0.04166662500000484,
          "durationTicks": 12,
          "midi": 42,
          "name": "F#2",
          "ticks": 11208,
          "time": 38.916627749999996,
          "velocity": 0.5118110236220472
        },
        {
          "duration": 0.04166662499999774,
          "durationTicks": 12,
          "midi": 54,
          "name": "F#3",
          "ticks": 11220,
          "time": 38.958294375,
          "velocity": 0.7086614173228346
        },
        {
          "duration": 0.04166662499999774,
          "durationTicks": 12,
          "midi": 55,
          "name": "G3",
          "ticks": 11232,
          "time": 38.999961,
          "velocity": 0.7086614173228346
        },
        {
          "duration": 0.04166662499999774,
          "durationTicks": 12,
          "midi": 67,
          "name": "G4",
          "ticks": 11232,
          "time": 38.999961,
          "velocity": 0.7086614173228346
        },
        {
          "duration": 0.04166662499999774,
          "durationTicks": 12,
          "midi": 43,
          "name": "G2",
          "ticks": 11232,
          "time": 38.999961,
          "velocity": 0.5118110236220472
        },
        {
          "duration": 0.04166662500000484,
          "durationTicks": 12,
          "midi": 55,
          "name": "G3",
          "ticks": 11244,
          "time": 39.041627625,
          "velocity": 0.7086614173228346
        },
        {
          "duration": 0.04166662499999774,
          "durationTicks": 12,
          "midi": 55,
          "name": "G3",
          "ticks": 11256,
          "time": 39.08329425,
          "velocity": 0.7086614173228346
        },
        {
          "duration": 0.08333324999999547,
          "durationTicks": 24,
          "midi": 75,
          "name": "D#5",
          "ticks": 11256,
          "time": 39.08329425,
          "velocity": 0.3228346456692913
        },
        {
          "duration": 0.04166662499999774,
          "durationTicks": 12,
          "midi": 67,
          "name": "G4",
          "ticks": 11256,
          "time": 39.08329425,
          "velocity": 0.7086614173228346
        },
        {
          "duration": 0.04166662499999774,
          "durationTicks": 12,
          "midi": 43,
          "name": "G2",
          "ticks": 11256,
          "time": 39.08329425,
          "velocity": 0.5118110236220472
        },
        {
          "duration": 0.04166662499999774,
          "durationTicks": 12,
          "midi": 55,
          "name": "G3",
          "ticks": 11268,
          "time": 39.124960875,
          "velocity": 0.7086614173228346
        },
        {
          "duration": 0.04166662500000484,
          "durationTicks": 12,
          "midi": 68,
          "name": "G#4",
          "ticks": 11280,
          "time": 39.1666275,
          "velocity": 0.7086614173228346
        },
        {
          "duration": 0.04166662500000484,
          "durationTicks": 12,
          "midi": 56,
          "name": "G#3",
          "ticks": 11280,
          "time": 39.1666275,
          "velocity": 0.7086614173228346
        },
        {
          "duration": 0.04166662500000484,
          "durationTicks": 12,
          "midi": 44,
          "name": "G#2",
          "ticks": 11280,
          "time": 39.1666275,
          "velocity": 0.5118110236220472
        },
        {
          "duration": 0.04166662499999774,
          "durationTicks": 12,
          "midi": 56,
          "name": "G#3",
          "ticks": 11292,
          "time": 39.208294125,
          "velocity": 0.7086614173228346
        },
        {
          "duration": 0.08333325000000258,
          "durationTicks": 24,
          "midi": 76,
          "name": "E5",
          "ticks": 11304,
          "time": 39.24996075,
          "velocity": 0.33070866141732286
        },
        {
          "duration": 0.04166662499999774,
          "durationTicks": 12,
          "midi": 56,
          "name": "G#3",
          "ticks": 11304,
          "time": 39.24996075,
          "velocity": 0.7086614173228346
        },
        {
          "duration": 0.04166662499999774,
          "durationTicks": 12,
          "midi": 68,
          "name": "G#4",
          "ticks": 11304,
          "time": 39.24996075,
          "velocity": 0.7086614173228346
        },
        {
          "duration": 0.04166662499999774,
          "durationTicks": 12,
          "midi": 44,
          "name": "G#2",
          "ticks": 11304,
          "time": 39.24996075,
          "velocity": 0.5118110236220472
        },
        {
          "duration": 0.04166662500000484,
          "durationTicks": 12,
          "midi": 56,
          "name": "G#3",
          "ticks": 11316,
          "time": 39.291627375,
          "velocity": 0.7086614173228346
        },
        {
          "duration": 0.04166662499999774,
          "durationTicks": 12,
          "midi": 57,
          "name": "A3",
          "ticks": 11328,
          "time": 39.333294,
          "velocity": 0.7086614173228346
        },
        {
          "duration": 0.04166662499999774,
          "durationTicks": 12,
          "midi": 69,
          "name": "A4",
          "ticks": 11328,
          "time": 39.333294,
          "velocity": 0.7086614173228346
        },
        {
          "duration": 0.04166662499999774,
          "durationTicks": 12,
          "midi": 45,
          "name": "A2",
          "ticks": 11328,
          "time": 39.333294,
          "velocity": 0.5118110236220472
        },
        {
          "duration": 0.04166662499999774,
          "durationTicks": 12,
          "midi": 57,
          "name": "A3",
          "ticks": 11340,
          "time": 39.374960625,
          "velocity": 0.7086614173228346
        },
        {
          "duration": 0.08333325000000258,
          "durationTicks": 24,
          "midi": 77,
          "name": "F5",
          "ticks": 11352,
          "time": 39.41662725,
          "velocity": 0.33070866141732286
        },
        {
          "duration": 0.04166662499999774,
          "durationTicks": 12,
          "midi": 57,
          "name": "A3",
          "ticks": 11352,
          "time": 39.41662725,
          "velocity": 0.7086614173228346
        },
        {
          "duration": 0.04166662499999774,
          "durationTicks": 12,
          "midi": 69,
          "name": "A4",
          "ticks": 11352,
          "time": 39.41662725,
          "velocity": 0.7086614173228346
        },
        {
          "duration": 0.04166662499999774,
          "durationTicks": 12,
          "midi": 45,
          "name": "A2",
          "ticks": 11352,
          "time": 39.41662725,
          "velocity": 0.5118110236220472
        },
        {
          "duration": 0.04166662500000484,
          "durationTicks": 12,
          "midi": 57,
          "name": "A3",
          "ticks": 11364,
          "time": 39.458293874999995,
          "velocity": 0.7086614173228346
        },
        {
          "duration": 0.04166662499999774,
          "durationTicks": 12,
          "midi": 58,
          "name": "A#3",
          "ticks": 11376,
          "time": 39.4999605,
          "velocity": 0.7086614173228346
        },
        {
          "duration": 0.04166662499999774,
          "durationTicks": 12,
          "midi": 70,
          "name": "A#4",
          "ticks": 11376,
          "time": 39.4999605,
          "velocity": 0.7086614173228346
        },
        {
          "duration": 0.04166662499999774,
          "durationTicks": 12,
          "midi": 46,
          "name": "A#2",
          "ticks": 11376,
          "time": 39.4999605,
          "velocity": 0.5118110236220472
        },
        {
          "duration": 0.04166662499999774,
          "durationTicks": 12,
          "midi": 58,
          "name": "A#3",
          "ticks": 11388,
          "time": 39.541627125,
          "velocity": 0.7086614173228346
        },
        {
          "duration": 0.04166662500000484,
          "durationTicks": 12,
          "midi": 70,
          "name": "A#4",
          "ticks": 11400,
          "time": 39.583293749999996,
          "velocity": 0.7086614173228346
        },
        {
          "duration": 0.04166662500000484,
          "durationTicks": 12,
          "midi": 58,
          "name": "A#3",
          "ticks": 11400,
          "time": 39.583293749999996,
          "velocity": 0.7086614173228346
        },
        {
          "duration": 0.08333325000000258,
          "durationTicks": 24,
          "midi": 78,
          "name": "F#5",
          "ticks": 11400,
          "time": 39.583293749999996,
          "velocity": 0.33858267716535434
        },
        {
          "duration": 0.04166662500000484,
          "durationTicks": 12,
          "midi": 46,
          "name": "A#2",
          "ticks": 11400,
          "time": 39.583293749999996,
          "velocity": 0.5118110236220472
        },
        {
          "duration": 0.04166662499999774,
          "durationTicks": 12,
          "midi": 58,
          "name": "A#3",
          "ticks": 11412,
          "time": 39.624960375,
          "velocity": 0.7086614173228346
        },
        {
          "duration": 0.04166662499999774,
          "durationTicks": 12,
          "midi": 40,
          "name": "E2",
          "ticks": 12384,
          "time": 42.999957,
          "velocity": 0.5118110236220472
        },
        {
          "duration": 0.04166662499999774,
          "durationTicks": 12,
          "midi": 52,
          "name": "E3",
          "ticks": 12384,
          "time": 42.999957,
          "velocity": 0.7086614173228346
        },
        {
          "duration": 0.04166662499999774,
          "durationTicks": 12,
          "midi": 64,
          "name": "E4",
          "ticks": 12384,
          "time": 42.999957,
          "velocity": 0.7086614173228346
        },
        {
          "duration": 0.04166662499999774,
          "durationTicks": 12,
          "midi": 52,
          "name": "E3",
          "ticks": 12396,
          "time": 43.041623625,
          "velocity": 0.7086614173228346
        },
        {
          "duration": 0.04166662500000484,
          "durationTicks": 12,
          "midi": 41,
          "name": "F2",
          "ticks": 12408,
          "time": 43.08329025,
          "velocity": 0.5118110236220472
        },
        {
          "duration": 0.04166662500000484,
          "durationTicks": 12,
          "midi": 53,
          "name": "F3",
          "ticks": 12408,
          "time": 43.08329025,
          "velocity": 0.7086614173228346
        },
        {
          "duration": 0.04166662500000484,
          "durationTicks": 12,
          "midi": 65,
          "name": "F4",
          "ticks": 12408,
          "time": 43.08329025,
          "velocity": 0.7086614173228346
        },
        {
          "duration": 0.08333325000000258,
          "durationTicks": 24,
          "midi": 73,
          "name": "C#5",
          "ticks": 12408,
          "time": 43.08329025,
          "velocity": 0.2755905511811024
        },
        {
          "duration": 0.04166662499999774,
          "durationTicks": 12,
          "midi": 53,
          "name": "F3",
          "ticks": 12420,
          "time": 43.124956875,
          "velocity": 0.7086614173228346
        },
        {
          "duration": 0.04166662499999774,
          "durationTicks": 12,
          "midi": 42,
          "name": "F#2",
          "ticks": 12432,
          "time": 43.1666235,
          "velocity": 0.5118110236220472
        },
        {
          "duration": 0.04166662499999774,
          "durationTicks": 12,
          "midi": 66,
          "name": "F#4",
          "ticks": 12432,
          "time": 43.1666235,
          "velocity": 0.7086614173228346
        },
        {
          "duration": 0.04166662499999774,
          "durationTicks": 12,
          "midi": 54,
          "name": "F#3",
          "ticks": 12432,
          "time": 43.1666235,
          "velocity": 0.7086614173228346
        },
        {
          "duration": 0.04166662499999774,
          "durationTicks": 12,
          "midi": 54,
          "name": "F#3",
          "ticks": 12444,
          "time": 43.208290125,
          "velocity": 0.7086614173228346
        },
        {
          "duration": 0.04166662500000484,
          "durationTicks": 12,
          "midi": 43,
          "name": "G2",
          "ticks": 12456,
          "time": 43.249956749999996,
          "velocity": 0.5118110236220472
        },
        {
          "duration": 0.04166662500000484,
          "durationTicks": 12,
          "midi": 55,
          "name": "G3",
          "ticks": 12456,
          "time": 43.249956749999996,
          "velocity": 0.7086614173228346
        },
        {
          "duration": 0.04166662500000484,
          "durationTicks": 12,
          "midi": 67,
          "name": "G4",
          "ticks": 12456,
          "time": 43.249956749999996,
          "velocity": 0.7086614173228346
        },
        {
          "duration": 0.08333325000000258,
          "durationTicks": 24,
          "midi": 74,
          "name": "D5",
          "ticks": 12456,
          "time": 43.249956749999996,
          "velocity": 0.28346456692913385
        },
        {
          "duration": 0.04166662499999774,
          "durationTicks": 12,
          "midi": 55,
          "name": "G3",
          "ticks": 12468,
          "time": 43.291623375,
          "velocity": 0.7086614173228346
        },
        {
          "duration": 0.04166662499999774,
          "durationTicks": 12,
          "midi": 44,
          "name": "G#2",
          "ticks": 12480,
          "time": 43.33329,
          "velocity": 0.5118110236220472
        },
        {
          "duration": 0.04166662499999774,
          "durationTicks": 12,
          "midi": 56,
          "name": "G#3",
          "ticks": 12480,
          "time": 43.33329,
          "velocity": 0.7086614173228346
        },
        {
          "duration": 0.04166662499999774,
          "durationTicks": 12,
          "midi": 68,
          "name": "G#4",
          "ticks": 12480,
          "time": 43.33329,
          "velocity": 0.7086614173228346
        },
        {
          "duration": 0.04166662500000484,
          "durationTicks": 12,
          "midi": 56,
          "name": "G#3",
          "ticks": 12492,
          "time": 43.374956624999996,
          "velocity": 0.7086614173228346
        },
        {
          "duration": 0.04166662499999774,
          "durationTicks": 12,
          "midi": 45,
          "name": "A2",
          "ticks": 12504,
          "time": 43.41662325,
          "velocity": 0.5118110236220472
        },
        {
          "duration": 0.04166662499999774,
          "durationTicks": 12,
          "midi": 69,
          "name": "A4",
          "ticks": 12504,
          "time": 43.41662325,
          "velocity": 0.7086614173228346
        },
        {
          "duration": 0.04166662499999774,
          "durationTicks": 12,
          "midi": 57,
          "name": "A3",
          "ticks": 12504,
          "time": 43.41662325,
          "velocity": 0.7086614173228346
        },
        {
          "duration": 0.08333324999999547,
          "durationTicks": 24,
          "midi": 75,
          "name": "D#5",
          "ticks": 12504,
          "time": 43.41662325,
          "velocity": 0.28346456692913385
        },
        {
          "duration": 0.04166662499999774,
          "durationTicks": 12,
          "midi": 57,
          "name": "A3",
          "ticks": 12516,
          "time": 43.458289875,
          "velocity": 0.7086614173228346
        },
        {
          "duration": 0.04166662500000484,
          "durationTicks": 12,
          "midi": 46,
          "name": "A#2",
          "ticks": 12528,
          "time": 43.499956499999996,
          "velocity": 0.5118110236220472
        },
        {
          "duration": 0.04166662500000484,
          "durationTicks": 12,
          "midi": 58,
          "name": "A#3",
          "ticks": 12528,
          "time": 43.499956499999996,
          "velocity": 0.7086614173228346
        },
        {
          "duration": 0.04166662500000484,
          "durationTicks": 12,
          "midi": 70,
          "name": "A#4",
          "ticks": 12528,
          "time": 43.499956499999996,
          "velocity": 0.7086614173228346
        },
        {
          "duration": 0.04166662499999774,
          "durationTicks": 12,
          "midi": 58,
          "name": "A#3",
          "ticks": 12540,
          "time": 43.541623125,
          "velocity": 0.7086614173228346
        },
        {
          "duration": 0.04166662499999774,
          "durationTicks": 12,
          "midi": 47,
          "name": "B2",
          "ticks": 12552,
          "time": 43.58328975,
          "velocity": 0.5118110236220472
        },
        {
          "duration": 0.04166662499999774,
          "durationTicks": 12,
          "midi": 71,
          "name": "B4",
          "ticks": 12552,
          "time": 43.58328975,
          "velocity": 0.7086614173228346
        },
        {
          "duration": 0.04166662499999774,
          "durationTicks": 12,
          "midi": 59,
          "name": "B3",
          "ticks": 12552,
          "time": 43.58328975,
          "velocity": 0.7086614173228346
        },
        {
          "duration": 0.08333325000000258,
          "durationTicks": 24,
          "midi": 76,
          "name": "E5",
          "ticks": 12552,
          "time": 43.58328975,
          "velocity": 0.29133858267716534
        },
        {
          "duration": 0.04166662500000484,
          "durationTicks": 12,
          "midi": 59,
          "name": "B3",
          "ticks": 12564,
          "time": 43.624956375,
          "velocity": 0.7086614173228346
        },
        {
          "duration": 0.04166662499999774,
          "durationTicks": 12,
          "midi": 48,
          "name": "C3",
          "ticks": 12576,
          "time": 43.666623,
          "velocity": 0.5118110236220472
        },
        {
          "duration": 0.04166662499999774,
          "durationTicks": 12,
          "midi": 60,
          "name": "C4",
          "ticks": 12576,
          "time": 43.666623,
          "velocity": 0.7086614173228346
        },
        {
          "duration": 0.04166662499999774,
          "durationTicks": 12,
          "midi": 72,
          "name": "C5",
          "ticks": 12576,
          "time": 43.666623,
          "velocity": 0.7086614173228346
        },
        {
          "duration": 0.04166662499999774,
          "durationTicks": 12,
          "midi": 60,
          "name": "C4",
          "ticks": 12588,
          "time": 43.708289625,
          "velocity": 0.7086614173228346
        },
        {
          "duration": 0.04166662500000484,
          "durationTicks": 12,
          "midi": 49,
          "name": "C#3",
          "ticks": 12600,
          "time": 43.74995625,
          "velocity": 0.5118110236220472
        },
        {
          "duration": 0.04166662500000484,
          "durationTicks": 12,
          "midi": 61,
          "name": "C#4",
          "ticks": 12600,
          "time": 43.74995625,
          "velocity": 0.7086614173228346
        },
        {
          "duration": 0.04166662500000484,
          "durationTicks": 12,
          "midi": 73,
          "name": "C#5",
          "ticks": 12600,
          "time": 43.74995625,
          "velocity": 0.7086614173228346
        },
        {
          "duration": 0.08333325000000258,
          "durationTicks": 24,
          "midi": 77,
          "name": "F5",
          "ticks": 12600,
          "time": 43.74995625,
          "velocity": 0.2992125984251969
        },
        {
          "duration": 0.04166662499999774,
          "durationTicks": 12,
          "midi": 61,
          "name": "C#4",
          "ticks": 12612,
          "time": 43.791622875,
          "velocity": 0.7086614173228346
        },
        {
          "duration": 0.04166662499999774,
          "durationTicks": 12,
          "midi": 40,
          "name": "E2",
          "ticks": 12624,
          "time": 43.8332895,
          "velocity": 0.5118110236220472
        },
        {
          "duration": 0.04166662499999774,
          "durationTicks": 12,
          "midi": 52,
          "name": "E3",
          "ticks": 12624,
          "time": 43.8332895,
          "velocity": 0.7086614173228346
        },
        {
          "duration": 0.04166662499999774,
          "durationTicks": 12,
          "midi": 64,
          "name": "E4",
          "ticks": 12624,
          "time": 43.8332895,
          "velocity": 0.7086614173228346
        },
        {
          "duration": 0.04166662500000484,
          "durationTicks": 12,
          "midi": 52,
          "name": "E3",
          "ticks": 12636,
          "time": 43.874956125,
          "velocity": 0.7086614173228346
        },
        {
          "duration": 0.04166662499999774,
          "durationTicks": 12,
          "midi": 40,
          "name": "E2",
          "ticks": 12648,
          "time": 43.91662275,
          "velocity": 0.5118110236220472
        },
        {
          "duration": 0.04166662499999774,
          "durationTicks": 12,
          "midi": 52,
          "name": "E3",
          "ticks": 12648,
          "time": 43.91662275,
          "velocity": 0.7086614173228346
        },
        {
          "duration": 0.08333324999999547,
          "durationTicks": 24,
          "midi": 72,
          "name": "C5",
          "ticks": 12648,
          "time": 43.91662275,
          "velocity": 0.30708661417322836
        },
        {
          "duration": 0.04166662499999774,
          "durationTicks": 12,
          "midi": 64,
          "name": "E4",
          "ticks": 12648,
          "time": 43.91662275,
          "velocity": 0.7086614173228346
        },
        {
          "duration": 0.04166662499999774,
          "durationTicks": 12,
          "midi": 52,
          "name": "E3",
          "ticks": 12660,
          "time": 43.958289375,
          "velocity": 0.7086614173228346
        },
        {
          "duration": 0.04166662500000484,
          "durationTicks": 12,
          "midi": 41,
          "name": "F2",
          "ticks": 12672,
          "time": 43.999956,
          "velocity": 0.5118110236220472
        },
        {
          "duration": 0.04166662500000484,
          "durationTicks": 12,
          "midi": 65,
          "name": "F4",
          "ticks": 12672,
          "time": 43.999956,
          "velocity": 0.7086614173228346
        },
        {
          "duration": 0.04166662500000484,
          "durationTicks": 12,
          "midi": 53,
          "name": "F3",
          "ticks": 12672,
          "time": 43.999956,
          "velocity": 0.7086614173228346
        },
        {
          "duration": 0.04166662499999774,
          "durationTicks": 12,
          "midi": 53,
          "name": "F3",
          "ticks": 12684,
          "time": 44.041622625,
          "velocity": 0.7086614173228346
        },
        {
          "duration": 0.04166662499999774,
          "durationTicks": 12,
          "midi": 41,
          "name": "F2",
          "ticks": 12696,
          "time": 44.08328925,
          "velocity": 0.5118110236220472
        },
        {
          "duration": 0.04166662499999774,
          "durationTicks": 12,
          "midi": 53,
          "name": "F3",
          "ticks": 12696,
          "time": 44.08328925,
          "velocity": 0.7086614173228346
        },
        {
          "duration": 0.08333324999999547,
          "durationTicks": 24,
          "midi": 73,
          "name": "C#5",
          "ticks": 12696,
          "time": 44.08328925,
          "velocity": 0.30708661417322836
        },
        {
          "duration": 0.04166662499999774,
          "durationTicks": 12,
          "midi": 65,
          "name": "F4",
          "ticks": 12696,
          "time": 44.08328925,
          "velocity": 0.7086614173228346
        },
        {
          "duration": 0.04166662499999774,
          "durationTicks": 12,
          "midi": 53,
          "name": "F3",
          "ticks": 12708,
          "time": 44.124955875,
          "velocity": 0.7086614173228346
        },
        {
          "duration": 0.04166662500000484,
          "durationTicks": 12,
          "midi": 42,
          "name": "F#2",
          "ticks": 12720,
          "time": 44.166622499999995,
          "velocity": 0.5118110236220472
        },
        {
          "duration": 0.04166662500000484,
          "durationTicks": 12,
          "midi": 54,
          "name": "F#3",
          "ticks": 12720,
          "time": 44.166622499999995,
          "velocity": 0.7086614173228346
        },
        {
          "duration": 0.04166662500000484,
          "durationTicks": 12,
          "midi": 66,
          "name": "F#4",
          "ticks": 12720,
          "time": 44.166622499999995,
          "velocity": 0.7086614173228346
        },
        {
          "duration": 0.04166662499999774,
          "durationTicks": 12,
          "midi": 54,
          "name": "F#3",
          "ticks": 12732,
          "time": 44.208289125,
          "velocity": 0.7086614173228346
        },
        {
          "duration": 0.04166662499999774,
          "durationTicks": 12,
          "midi": 42,
          "name": "F#2",
          "ticks": 12744,
          "time": 44.24995575,
          "velocity": 0.5118110236220472
        },
        {
          "duration": 0.04166662499999774,
          "durationTicks": 12,
          "midi": 54,
          "name": "F#3",
          "ticks": 12744,
          "time": 44.24995575,
          "velocity": 0.7086614173228346
        },
        {
          "duration": 0.08333325000000258,
          "durationTicks": 24,
          "midi": 74,
          "name": "D5",
          "ticks": 12744,
          "time": 44.24995575,
          "velocity": 0.31496062992125984
        },
        {
          "duration": 0.04166662499999774,
          "durationTicks": 12,
          "midi": 66,
          "name": "F#4",
          "ticks": 12744,
          "time": 44.24995575,
          "velocity": 0.7086614173228346
        },
        {
          "duration": 0.04166662500000484,
          "durationTicks": 12,
          "midi": 54,
          "name": "F#3",
          "ticks": 12756,
          "time": 44.291622374999996,
          "velocity": 0.7086614173228346
        },
        {
          "duration": 0.04166662499999774,
          "durationTicks": 12,
          "midi": 43,
          "name": "G2",
          "ticks": 12768,
          "time": 44.333289,
          "velocity": 0.5118110236220472
        },
        {
          "duration": 0.04166662499999774,
          "durationTicks": 12,
          "midi": 67,
          "name": "G4",
          "ticks": 12768,
          "time": 44.333289,
          "velocity": 0.7086614173228346
        },
        {
          "duration": 0.04166662499999774,
          "durationTicks": 12,
          "midi": 55,
          "name": "G3",
          "ticks": 12768,
          "time": 44.333289,
          "velocity": 0.7086614173228346
        },
        {
          "duration": 0.04166662499999774,
          "durationTicks": 12,
          "midi": 55,
          "name": "G3",
          "ticks": 12780,
          "time": 44.374955625,
          "velocity": 0.7086614173228346
        },
        {
          "duration": 0.04166662500000484,
          "durationTicks": 12,
          "midi": 43,
          "name": "G2",
          "ticks": 12792,
          "time": 44.416622249999996,
          "velocity": 0.5118110236220472
        },
        {
          "duration": 0.04166662500000484,
          "durationTicks": 12,
          "midi": 67,
          "name": "G4",
          "ticks": 12792,
          "time": 44.416622249999996,
          "velocity": 0.7086614173228346
        },
        {
          "duration": 0.08333325000000258,
          "durationTicks": 24,
          "midi": 75,
          "name": "D#5",
          "ticks": 12792,
          "time": 44.416622249999996,
          "velocity": 0.3228346456692913
        },
        {
          "duration": 0.04166662500000484,
          "durationTicks": 12,
          "midi": 55,
          "name": "G3",
          "ticks": 12792,
          "time": 44.416622249999996,
          "velocity": 0.7086614173228346
        },
        {
          "duration": 0.04166662499999774,
          "durationTicks": 12,
          "midi": 55,
          "name": "G3",
          "ticks": 12804,
          "time": 44.458288875,
          "velocity": 0.7086614173228346
        },
        {
          "duration": 0.04166662499999774,
          "durationTicks": 12,
          "midi": 44,
          "name": "G#2",
          "ticks": 12816,
          "time": 44.4999555,
          "velocity": 0.5118110236220472
        },
        {
          "duration": 0.04166662499999774,
          "durationTicks": 12,
          "midi": 56,
          "name": "G#3",
          "ticks": 12816,
          "time": 44.4999555,
          "velocity": 0.7086614173228346
        },
        {
          "duration": 0.04166662499999774,
          "durationTicks": 12,
          "midi": 68,
          "name": "G#4",
          "ticks": 12816,
          "time": 44.4999555,
          "velocity": 0.7086614173228346
        },
        {
          "duration": 0.04166662500000484,
          "durationTicks": 12,
          "midi": 56,
          "name": "G#3",
          "ticks": 12828,
          "time": 44.541622124999996,
          "velocity": 0.7086614173228346
        },
        {
          "duration": 0.04166662499999774,
          "durationTicks": 12,
          "midi": 44,
          "name": "G#2",
          "ticks": 12840,
          "time": 44.58328875,
          "velocity": 0.5118110236220472
        },
        {
          "duration": 0.04166662499999774,
          "durationTicks": 12,
          "midi": 68,
          "name": "G#4",
          "ticks": 12840,
          "time": 44.58328875,
          "velocity": 0.7086614173228346
        },
        {
          "duration": 0.04166662499999774,
          "durationTicks": 12,
          "midi": 56,
          "name": "G#3",
          "ticks": 12840,
          "time": 44.58328875,
          "velocity": 0.7086614173228346
        },
        {
          "duration": 0.08333324999999547,
          "durationTicks": 24,
          "midi": 76,
          "name": "E5",
          "ticks": 12840,
          "time": 44.58328875,
          "velocity": 0.33070866141732286
        },
        {
          "duration": 0.04166662499999774,
          "durationTicks": 12,
          "midi": 56,
          "name": "G#3",
          "ticks": 12852,
          "time": 44.624955375,
          "velocity": 0.7086614173228346
        },
        {
          "duration": 0.04166662500000484,
          "durationTicks": 12,
          "midi": 45,
          "name": "A2",
          "ticks": 12864,
          "time": 44.666622,
          "velocity": 0.5118110236220472
        },
        {
          "duration": 0.04166662500000484,
          "durationTicks": 12,
          "midi": 69,
          "name": "A4",
          "ticks": 12864,
          "time": 44.666622,
          "velocity": 0.7086614173228346
        },
        {
          "duration": 0.04166662500000484,
          "durationTicks": 12,
          "midi": 57,
          "name": "A3",
          "ticks": 12864,
          "time": 44.666622,
          "velocity": 0.7086614173228346
        },
        {
          "duration": 0.04166662499999774,
          "durationTicks": 12,
          "midi": 57,
          "name": "A3",
          "ticks": 12876,
          "time": 44.708288625,
          "velocity": 0.7086614173228346
        },
        {
          "duration": 0.04166662499999774,
          "durationTicks": 12,
          "midi": 45,
          "name": "A2",
          "ticks": 12888,
          "time": 44.74995525,
          "velocity": 0.5118110236220472
        },
        {
          "duration": 0.04166662499999774,
          "durationTicks": 12,
          "midi": 69,
          "name": "A4",
          "ticks": 12888,
          "time": 44.74995525,
          "velocity": 0.7086614173228346
        },
        {
          "duration": 0.04166662499999774,
          "durationTicks": 12,
          "midi": 57,
          "name": "A3",
          "ticks": 12888,
          "time": 44.74995525,
          "velocity": 0.7086614173228346
        },
        {
          "duration": 0.08333325000000258,
          "durationTicks": 24,
          "midi": 77,
          "name": "F5",
          "ticks": 12888,
          "time": 44.74995525,
          "velocity": 0.33070866141732286
        },
        {
          "duration": 0.04166662500000484,
          "durationTicks": 12,
          "midi": 57,
          "name": "A3",
          "ticks": 12900,
          "time": 44.791621875,
          "velocity": 0.7086614173228346
        },
        {
          "duration": 0.04166662499999774,
          "durationTicks": 12,
          "midi": 46,
          "name": "A#2",
          "ticks": 12912,
          "time": 44.8332885,
          "velocity": 0.5118110236220472
        },
        {
          "duration": 0.04166662499999774,
          "durationTicks": 12,
          "midi": 70,
          "name": "A#4",
          "ticks": 12912,
          "time": 44.8332885,
          "velocity": 0.7086614173228346
        },
        {
          "duration": 0.04166662499999774,
          "durationTicks": 12,
          "midi": 58,
          "name": "A#3",
          "ticks": 12912,
          "time": 44.8332885,
          "velocity": 0.7086614173228346
        },
        {
          "duration": 0.04166662499999774,
          "durationTicks": 12,
          "midi": 58,
          "name": "A#3",
          "ticks": 12924,
          "time": 44.874955125,
          "velocity": 0.7086614173228346
        },
        {
          "duration": 0.04166662500000484,
          "durationTicks": 12,
          "midi": 46,
          "name": "A#2",
          "ticks": 12936,
          "time": 44.91662175,
          "velocity": 0.5118110236220472
        },
        {
          "duration": 0.08333325000000258,
          "durationTicks": 24,
          "midi": 78,
          "name": "F#5",
          "ticks": 12936,
          "time": 44.91662175,
          "velocity": 0.33858267716535434
        },
        {
          "duration": 0.04166662500000484,
          "durationTicks": 12,
          "midi": 58,
          "name": "A#3",
          "ticks": 12936,
          "time": 44.91662175,
          "velocity": 0.7086614173228346
        },
        {
          "duration": 0.04166662500000484,
          "durationTicks": 12,
          "midi": 70,
          "name": "A#4",
          "ticks": 12936,
          "time": 44.91662175,
          "velocity": 0.7086614173228346
        },
        {
          "duration": 0.04166662499999774,
          "durationTicks": 12,
          "midi": 58,
          "name": "A#3",
          "ticks": 12948,
          "time": 44.958288375,
          "velocity": 0.7086614173228346
        },
        {
          "duration": 0.04166662500000484,
          "durationTicks": 12,
          "midi": 40,
          "name": "E2",
          "ticks": 13920,
          "time": 48.333285,
          "velocity": 0.5118110236220472
        },
        {
          "duration": 0.04166662500000484,
          "durationTicks": 12,
          "midi": 52,
          "name": "E3",
          "ticks": 13920,
          "time": 48.333285,
          "velocity": 0.7086614173228346
        },
        {
          "duration": 0.04166662500000484,
          "durationTicks": 12,
          "midi": 64,
          "name": "E4",
          "ticks": 13920,
          "time": 48.333285,
          "velocity": 0.7086614173228346
        },
        {
          "duration": 0.04166662499999774,
          "durationTicks": 12,
          "midi": 52,
          "name": "E3",
          "ticks": 13932,
          "time": 48.374951625,
          "velocity": 0.7086614173228346
        },
        {
          "duration": 0.08333325000000258,
          "durationTicks": 24,
          "midi": 73,
          "name": "C#5",
          "ticks": 13944,
          "time": 48.41661825,
          "velocity": 0.2755905511811024
        },
        {
          "duration": 0.04166662499999774,
          "durationTicks": 12,
          "midi": 65,
          "name": "F4",
          "ticks": 13944,
          "time": 48.41661825,
          "velocity": 0.7086614173228346
        },
        {
          "duration": 0.04166662499999774,
          "durationTicks": 12,
          "midi": 53,
          "name": "F3",
          "ticks": 13944,
          "time": 48.41661825,
          "velocity": 0.7086614173228346
        },
        {
          "duration": 0.04166662499999774,
          "durationTicks": 12,
          "midi": 41,
          "name": "F2",
          "ticks": 13944,
          "time": 48.41661825,
          "velocity": 0.5118110236220472
        },
        {
          "duration": 0.04166662500000484,
          "durationTicks": 12,
          "midi": 53,
          "name": "F3",
          "ticks": 13956,
          "time": 48.458284875,
          "velocity": 0.7086614173228346
        },
        {
          "duration": 0.04166662499999774,
          "durationTicks": 12,
          "midi": 42,
          "name": "F#2",
          "ticks": 13968,
          "time": 48.4999515,
          "velocity": 0.5118110236220472
        },
        {
          "duration": 0.04166662499999774,
          "durationTicks": 12,
          "midi": 66,
          "name": "F#4",
          "ticks": 13968,
          "time": 48.4999515,
          "velocity": 0.7086614173228346
        },
        {
          "duration": 0.04166662499999774,
          "durationTicks": 12,
          "midi": 54,
          "name": "F#3",
          "ticks": 13968,
          "time": 48.4999515,
          "velocity": 0.7086614173228346
        },
        {
          "duration": 0.04166662499999774,
          "durationTicks": 12,
          "midi": 54,
          "name": "F#3",
          "ticks": 13980,
          "time": 48.541618125,
          "velocity": 0.7086614173228346
        },
        {
          "duration": 0.08333325000000258,
          "durationTicks": 24,
          "midi": 74,
          "name": "D5",
          "ticks": 13992,
          "time": 48.58328475,
          "velocity": 0.28346456692913385
        },
        {
          "duration": 0.04166662500000484,
          "durationTicks": 12,
          "midi": 67,
          "name": "G4",
          "ticks": 13992,
          "time": 48.58328475,
          "velocity": 0.7086614173228346
        },
        {
          "duration": 0.04166662500000484,
          "durationTicks": 12,
          "midi": 55,
          "name": "G3",
          "ticks": 13992,
          "time": 48.58328475,
          "velocity": 0.7086614173228346
        },
        {
          "duration": 0.04166662500000484,
          "durationTicks": 12,
          "midi": 43,
          "name": "G2",
          "ticks": 13992,
          "time": 48.58328475,
          "velocity": 0.5118110236220472
        },
        {
          "duration": 0.04166662499999774,
          "durationTicks": 12,
          "midi": 55,
          "name": "G3",
          "ticks": 14004,
          "time": 48.624951375,
          "velocity": 0.7086614173228346
        },
        {
          "duration": 0.04166662499999774,
          "durationTicks": 12,
          "midi": 44,
          "name": "G#2",
          "ticks": 14016,
          "time": 48.666618,
          "velocity": 0.5118110236220472
        },
        {
          "duration": 0.04166662499999774,
          "durationTicks": 12,
          "midi": 56,
          "name": "G#3",
          "ticks": 14016,
          "time": 48.666618,
          "velocity": 0.7086614173228346
        },
        {
          "duration": 0.04166662499999774,
          "durationTicks": 12,
          "midi": 68,
          "name": "G#4",
          "ticks": 14016,
          "time": 48.666618,
          "velocity": 0.7086614173228346
        },
        {
          "duration": 0.04166662499999774,
          "durationTicks": 12,
          "midi": 56,
          "name": "G#3",
          "ticks": 14028,
          "time": 48.708284625,
          "velocity": 0.7086614173228346
        },
        {
          "duration": 0.08333325000000258,
          "durationTicks": 24,
          "midi": 75,
          "name": "D#5",
          "ticks": 14040,
          "time": 48.749951249999995,
          "velocity": 0.28346456692913385
        },
        {
          "duration": 0.04166662500000484,
          "durationTicks": 12,
          "midi": 57,
          "name": "A3",
          "ticks": 14040,
          "time": 48.749951249999995,
          "velocity": 0.7086614173228346
        },
        {
          "duration": 0.04166662500000484,
          "durationTicks": 12,
          "midi": 69,
          "name": "A4",
          "ticks": 14040,
          "time": 48.749951249999995,
          "velocity": 0.7086614173228346
        },
        {
          "duration": 0.04166662500000484,
          "durationTicks": 12,
          "midi": 45,
          "name": "A2",
          "ticks": 14040,
          "time": 48.749951249999995,
          "velocity": 0.5118110236220472
        },
        {
          "duration": 0.04166662499999774,
          "durationTicks": 12,
          "midi": 57,
          "name": "A3",
          "ticks": 14052,
          "time": 48.791617875,
          "velocity": 0.7086614173228346
        },
        {
          "duration": 0.04166662499999774,
          "durationTicks": 12,
          "midi": 46,
          "name": "A#2",
          "ticks": 14064,
          "time": 48.8332845,
          "velocity": 0.5118110236220472
        },
        {
          "duration": 0.04166662499999774,
          "durationTicks": 12,
          "midi": 58,
          "name": "A#3",
          "ticks": 14064,
          "time": 48.8332845,
          "velocity": 0.7086614173228346
        },
        {
          "duration": 0.04166662499999774,
          "durationTicks": 12,
          "midi": 70,
          "name": "A#4",
          "ticks": 14064,
          "time": 48.8332845,
          "velocity": 0.7086614173228346
        },
        {
          "duration": 0.04166662500000484,
          "durationTicks": 12,
          "midi": 58,
          "name": "A#3",
          "ticks": 14076,
          "time": 48.874951124999995,
          "velocity": 0.7086614173228346
        },
        {
          "duration": 0.04166662499999774,
          "durationTicks": 12,
          "midi": 47,
          "name": "B2",
          "ticks": 14088,
          "time": 48.91661775,
          "velocity": 0.5118110236220472
        },
        {
          "duration": 0.04166662499999774,
          "durationTicks": 12,
          "midi": 71,
          "name": "B4",
          "ticks": 14088,
          "time": 48.91661775,
          "velocity": 0.7086614173228346
        },
        {
          "duration": 0.04166662499999774,
          "durationTicks": 12,
          "midi": 59,
          "name": "B3",
          "ticks": 14088,
          "time": 48.91661775,
          "velocity": 0.7086614173228346
        },
        {
          "duration": 0.08333324999999547,
          "durationTicks": 24,
          "midi": 76,
          "name": "E5",
          "ticks": 14088,
          "time": 48.91661775,
          "velocity": 0.29133858267716534
        },
        {
          "duration": 0.04166662499999774,
          "durationTicks": 12,
          "midi": 59,
          "name": "B3",
          "ticks": 14100,
          "time": 48.958284375,
          "velocity": 0.7086614173228346
        },
        {
          "duration": 0.04166662500000484,
          "durationTicks": 12,
          "midi": 72,
          "name": "C5",
          "ticks": 14112,
          "time": 48.999950999999996,
          "velocity": 0.7086614173228346
        },
        {
          "duration": 0.04166662500000484,
          "durationTicks": 12,
          "midi": 60,
          "name": "C4",
          "ticks": 14112,
          "time": 48.999950999999996,
          "velocity": 0.7086614173228346
        },
        {
          "duration": 0.04166662500000484,
          "durationTicks": 12,
          "midi": 48,
          "name": "C3",
          "ticks": 14112,
          "time": 48.999950999999996,
          "velocity": 0.5118110236220472
        },
        {
          "duration": 0.04166662499999774,
          "durationTicks": 12,
          "midi": 60,
          "name": "C4",
          "ticks": 14124,
          "time": 49.041617625,
          "velocity": 0.7086614173228346
        },
        {
          "duration": 0.08333325000000258,
          "durationTicks": 24,
          "midi": 77,
          "name": "F5",
          "ticks": 14136,
          "time": 49.08328425,
          "velocity": 0.2992125984251969
        },
        {
          "duration": 0.04166662499999774,
          "durationTicks": 12,
          "midi": 73,
          "name": "C#5",
          "ticks": 14136,
          "time": 49.08328425,
          "velocity": 0.7086614173228346
        },
        {
          "duration": 0.04166662499999774,
          "durationTicks": 12,
          "midi": 61,
          "name": "C#4",
          "ticks": 14136,
          "time": 49.08328425,
          "velocity": 0.7086614173228346
        },
        {
          "duration": 0.04166662499999774,
          "durationTicks": 12,
          "midi": 49,
          "name": "C#3",
          "ticks": 14136,
          "time": 49.08328425,
          "velocity": 0.5118110236220472
        },
        {
          "duration": 0.04166662500000484,
          "durationTicks": 12,
          "midi": 61,
          "name": "C#4",
          "ticks": 14148,
          "time": 49.124950874999996,
          "velocity": 0.7086614173228346
        },
        {
          "duration": 0.04166662499999774,
          "durationTicks": 12,
          "midi": 64,
          "name": "E4",
          "ticks": 14160,
          "time": 49.1666175,
          "velocity": 0.7086614173228346
        },
        {
          "duration": 0.04166662499999774,
          "durationTicks": 12,
          "midi": 52,
          "name": "E3",
          "ticks": 14160,
          "time": 49.1666175,
          "velocity": 0.7086614173228346
        },
        {
          "duration": 0.04166662499999774,
          "durationTicks": 12,
          "midi": 40,
          "name": "E2",
          "ticks": 14160,
          "time": 49.1666175,
          "velocity": 0.5118110236220472
        },
        {
          "duration": 0.04166662499999774,
          "durationTicks": 12,
          "midi": 52,
          "name": "E3",
          "ticks": 14172,
          "time": 49.208284125,
          "velocity": 0.7086614173228346
        },
        {
          "duration": 0.04166662500000484,
          "durationTicks": 12,
          "midi": 64,
          "name": "E4",
          "ticks": 14184,
          "time": 49.249950749999996,
          "velocity": 0.7086614173228346
        },
        {
          "duration": 0.08333325000000258,
          "durationTicks": 24,
          "midi": 72,
          "name": "C5",
          "ticks": 14184,
          "time": 49.249950749999996,
          "velocity": 0.30708661417322836
        },
        {
          "duration": 0.04166662500000484,
          "durationTicks": 12,
          "midi": 52,
          "name": "E3",
          "ticks": 14184,
          "time": 49.249950749999996,
          "velocity": 0.7086614173228346
        },
        {
          "duration": 0.04166662500000484,
          "durationTicks": 12,
          "midi": 40,
          "name": "E2",
          "ticks": 14184,
          "time": 49.249950749999996,
          "velocity": 0.5118110236220472
        },
        {
          "duration": 0.04166662499999774,
          "durationTicks": 12,
          "midi": 52,
          "name": "E3",
          "ticks": 14196,
          "time": 49.291617375,
          "velocity": 0.7086614173228346
        },
        {
          "duration": 0.04166662499999774,
          "durationTicks": 12,
          "midi": 41,
          "name": "F2",
          "ticks": 14208,
          "time": 49.333284,
          "velocity": 0.5118110236220472
        },
        {
          "duration": 0.04166662499999774,
          "durationTicks": 12,
          "midi": 65,
          "name": "F4",
          "ticks": 14208,
          "time": 49.333284,
          "velocity": 0.7086614173228346
        },
        {
          "duration": 0.04166662499999774,
          "durationTicks": 12,
          "midi": 53,
          "name": "F3",
          "ticks": 14208,
          "time": 49.333284,
          "velocity": 0.7086614173228346
        },
        {
          "duration": 0.04166662500000484,
          "durationTicks": 12,
          "midi": 53,
          "name": "F3",
          "ticks": 14220,
          "time": 49.374950625,
          "velocity": 0.7086614173228346
        },
        {
          "duration": 0.04166662499999774,
          "durationTicks": 12,
          "midi": 41,
          "name": "F2",
          "ticks": 14232,
          "time": 49.41661725,
          "velocity": 0.5118110236220472
        },
        {
          "duration": 0.04166662499999774,
          "durationTicks": 12,
          "midi": 53,
          "name": "F3",
          "ticks": 14232,
          "time": 49.41661725,
          "velocity": 0.7086614173228346
        },
        {
          "duration": 0.08333324999999547,
          "durationTicks": 24,
          "midi": 73,
          "name": "C#5",
          "ticks": 14232,
          "time": 49.41661725,
          "velocity": 0.30708661417322836
        },
        {
          "duration": 0.04166662499999774,
          "durationTicks": 12,
          "midi": 65,
          "name": "F4",
          "ticks": 14232,
          "time": 49.41661725,
          "velocity": 0.7086614173228346
        },
        {
          "duration": 0.04166662499999774,
          "durationTicks": 12,
          "midi": 53,
          "name": "F3",
          "ticks": 14244,
          "time": 49.458283875,
          "velocity": 0.7086614173228346
        },
        {
          "duration": 0.04166662500000484,
          "durationTicks": 12,
          "midi": 42,
          "name": "F#2",
          "ticks": 14256,
          "time": 49.4999505,
          "velocity": 0.5118110236220472
        },
        {
          "duration": 0.04166662500000484,
          "durationTicks": 12,
          "midi": 54,
          "name": "F#3",
          "ticks": 14256,
          "time": 49.4999505,
          "velocity": 0.7086614173228346
        },
        {
          "duration": 0.04166662500000484,
          "durationTicks": 12,
          "midi": 66,
          "name": "F#4",
          "ticks": 14256,
          "time": 49.4999505,
          "velocity": 0.7086614173228346
        },
        {
          "duration": 0.04166662499999774,
          "durationTicks": 12,
          "midi": 54,
          "name": "F#3",
          "ticks": 14268,
          "time": 49.541617125,
          "velocity": 0.7086614173228346
        },
        {
          "duration": 0.04166662499999774,
          "durationTicks": 12,
          "midi": 42,
          "name": "F#2",
          "ticks": 14280,
          "time": 49.58328375,
          "velocity": 0.5118110236220472
        },
        {
          "duration": 0.04166662499999774,
          "durationTicks": 12,
          "midi": 54,
          "name": "F#3",
          "ticks": 14280,
          "time": 49.58328375,
          "velocity": 0.7086614173228346
        },
        {
          "duration": 0.08333324999999547,
          "durationTicks": 24,
          "midi": 74,
          "name": "D5",
          "ticks": 14280,
          "time": 49.58328375,
          "velocity": 0.31496062992125984
        },
        {
          "duration": 0.04166662499999774,
          "durationTicks": 12,
          "midi": 66,
          "name": "F#4",
          "ticks": 14280,
          "time": 49.58328375,
          "velocity": 0.7086614173228346
        },
        {
          "duration": 0.04166662499999774,
          "durationTicks": 12,
          "midi": 54,
          "name": "F#3",
          "ticks": 14292,
          "time": 49.624950375,
          "velocity": 0.7086614173228346
        },
        {
          "duration": 0.04166662500000484,
          "durationTicks": 12,
          "midi": 55,
          "name": "G3",
          "ticks": 14304,
          "time": 49.666616999999995,
          "velocity": 0.7086614173228346
        },
        {
          "duration": 0.04166662500000484,
          "durationTicks": 12,
          "midi": 67,
          "name": "G4",
          "ticks": 14304,
          "time": 49.666616999999995,
          "velocity": 0.7086614173228346
        },
        {
          "duration": 0.04166662500000484,
          "durationTicks": 12,
          "midi": 43,
          "name": "G2",
          "ticks": 14304,
          "time": 49.666616999999995,
          "velocity": 0.5118110236220472
        },
        {
          "duration": 0.04166662499999774,
          "durationTicks": 12,
          "midi": 55,
          "name": "G3",
          "ticks": 14316,
          "time": 49.708283625,
          "velocity": 0.7086614173228346
        },
        {
          "duration": 0.04166662499999774,
          "durationTicks": 12,
          "midi": 55,
          "name": "G3",
          "ticks": 14328,
          "time": 49.74995025,
          "velocity": 0.7086614173228346
        },
        {
          "duration": 0.08333325000000258,
          "durationTicks": 24,
          "midi": 75,
          "name": "D#5",
          "ticks": 14328,
          "time": 49.74995025,
          "velocity": 0.3228346456692913
        },
        {
          "duration": 0.04166662499999774,
          "durationTicks": 12,
          "midi": 67,
          "name": "G4",
          "ticks": 14328,
          "time": 49.74995025,
          "velocity": 0.7086614173228346
        },
        {
          "duration": 0.04166662499999774,
          "durationTicks": 12,
          "midi": 43,
          "name": "G2",
          "ticks": 14328,
          "time": 49.74995025,
          "velocity": 0.5118110236220472
        },
        {
          "duration": 0.04166662500000484,
          "durationTicks": 12,
          "midi": 55,
          "name": "G3",
          "ticks": 14340,
          "time": 49.791616874999995,
          "velocity": 0.7086614173228346
        },
        {
          "duration": 0.04166662499999774,
          "durationTicks": 12,
          "midi": 44,
          "name": "G#2",
          "ticks": 14352,
          "time": 49.8332835,
          "velocity": 0.5118110236220472
        },
        {
          "duration": 0.04166662499999774,
          "durationTicks": 12,
          "midi": 56,
          "name": "G#3",
          "ticks": 14352,
          "time": 49.8332835,
          "velocity": 0.7086614173228346
        },
        {
          "duration": 0.04166662499999774,
          "durationTicks": 12,
          "midi": 68,
          "name": "G#4",
          "ticks": 14352,
          "time": 49.8332835,
          "velocity": 0.7086614173228346
        },
        {
          "duration": 0.04166662499999774,
          "durationTicks": 12,
          "midi": 56,
          "name": "G#3",
          "ticks": 14364,
          "time": 49.874950125,
          "velocity": 0.7086614173228346
        },
        {
          "duration": 0.04166662500000484,
          "durationTicks": 12,
          "midi": 44,
          "name": "G#2",
          "ticks": 14376,
          "time": 49.916616749999996,
          "velocity": 0.5118110236220472
        },
        {
          "duration": 0.04166662500000484,
          "durationTicks": 12,
          "midi": 68,
          "name": "G#4",
          "ticks": 14376,
          "time": 49.916616749999996,
          "velocity": 0.7086614173228346
        },
        {
          "duration": 0.04166662500000484,
          "durationTicks": 12,
          "midi": 56,
          "name": "G#3",
          "ticks": 14376,
          "time": 49.916616749999996,
          "velocity": 0.7086614173228346
        },
        {
          "duration": 0.08333325000000258,
          "durationTicks": 24,
          "midi": 76,
          "name": "E5",
          "ticks": 14376,
          "time": 49.916616749999996,
          "velocity": 0.33070866141732286
        },
        {
          "duration": 0.04166662499999774,
          "durationTicks": 12,
          "midi": 56,
          "name": "G#3",
          "ticks": 14388,
          "time": 49.958283375,
          "velocity": 0.7086614173228346
        },
        {
          "duration": 0.04166662499999774,
          "durationTicks": 12,
          "midi": 57,
          "name": "A3",
          "ticks": 14400,
          "time": 49.99995,
          "velocity": 0.7086614173228346
        },
        {
          "duration": 0.04166662499999774,
          "durationTicks": 12,
          "midi": 69,
          "name": "A4",
          "ticks": 14400,
          "time": 49.99995,
          "velocity": 0.7086614173228346
        },
        {
          "duration": 0.04166662499999774,
          "durationTicks": 12,
          "midi": 45,
          "name": "A2",
          "ticks": 14400,
          "time": 49.99995,
          "velocity": 0.5118110236220472
        },
        {
          "duration": 0.04166662500000484,
          "durationTicks": 12,
          "midi": 57,
          "name": "A3",
          "ticks": 14412,
          "time": 50.041616624999996,
          "velocity": 0.7086614173228346
        },
        {
          "duration": 0.04166662499999774,
          "durationTicks": 12,
          "midi": 45,
          "name": "A2",
          "ticks": 14424,
          "time": 50.08328325,
          "velocity": 0.5118110236220472
        },
        {
          "duration": 0.04166662499999774,
          "durationTicks": 12,
          "midi": 69,
          "name": "A4",
          "ticks": 14424,
          "time": 50.08328325,
          "velocity": 0.7086614173228346
        },
        {
          "duration": 0.04166662499999774,
          "durationTicks": 12,
          "midi": 57,
          "name": "A3",
          "ticks": 14424,
          "time": 50.08328325,
          "velocity": 0.7086614173228346
        },
        {
          "duration": 0.08333324999999547,
          "durationTicks": 24,
          "midi": 77,
          "name": "F5",
          "ticks": 14424,
          "time": 50.08328325,
          "velocity": 0.33070866141732286
        },
        {
          "duration": 0.04166662499999774,
          "durationTicks": 12,
          "midi": 57,
          "name": "A3",
          "ticks": 14436,
          "time": 50.124949875,
          "velocity": 0.7086614173228346
        },
        {
          "duration": 0.04166662500000484,
          "durationTicks": 12,
          "midi": 46,
          "name": "A#2",
          "ticks": 14448,
          "time": 50.166616499999996,
          "velocity": 0.5118110236220472
        },
        {
          "duration": 0.04166662500000484,
          "durationTicks": 12,
          "midi": 70,
          "name": "A#4",
          "ticks": 14448,
          "time": 50.166616499999996,
          "velocity": 0.7086614173228346
        },
        {
          "duration": 0.04166662500000484,
          "durationTicks": 12,
          "midi": 58,
          "name": "A#3",
          "ticks": 14448,
          "time": 50.166616499999996,
          "velocity": 0.7086614173228346
        },
        {
          "duration": 0.04166662499999774,
          "durationTicks": 12,
          "midi": 58,
          "name": "A#3",
          "ticks": 14460,
          "time": 50.208283125,
          "velocity": 0.7086614173228346
        },
        {
          "duration": 0.04166662499999774,
          "durationTicks": 12,
          "midi": 46,
          "name": "A#2",
          "ticks": 14472,
          "time": 50.24994975,
          "velocity": 0.5118110236220472
        },
        {
          "duration": 0.08333325000000258,
          "durationTicks": 24,
          "midi": 78,
          "name": "F#5",
          "ticks": 14472,
          "time": 50.24994975,
          "velocity": 0.33858267716535434
        },
        {
          "duration": 0.04166662499999774,
          "durationTicks": 12,
          "midi": 58,
          "name": "A#3",
          "ticks": 14472,
          "time": 50.24994975,
          "velocity": 0.7086614173228346
        },
        {
          "duration": 0.04166662499999774,
          "durationTicks": 12,
          "midi": 70,
          "name": "A#4",
          "ticks": 14472,
          "time": 50.24994975,
          "velocity": 0.7086614173228346
        },
        {
          "duration": 0.04166662500000484,
          "durationTicks": 12,
          "midi": 58,
          "name": "A#3",
          "ticks": 14484,
          "time": 50.291616375,
          "velocity": 0.7086614173228346
        },
        {
          "duration": 0.04166662499999774,
          "durationTicks": 12,
          "midi": 64,
          "name": "E4",
          "ticks": 15456,
          "time": 53.666613,
          "velocity": 0.7086614173228346
        },
        {
          "duration": 0.04166662499999774,
          "durationTicks": 12,
          "midi": 52,
          "name": "E3",
          "ticks": 15456,
          "time": 53.666613,
          "velocity": 0.7086614173228346
        },
        {
          "duration": 0.04166662499999774,
          "durationTicks": 12,
          "midi": 40,
          "name": "E2",
          "ticks": 15456,
          "time": 53.666613,
          "velocity": 0.5118110236220472
        },
        {
          "duration": 0.04166662500000484,
          "durationTicks": 12,
          "midi": 52,
          "name": "E3",
          "ticks": 15468,
          "time": 53.708279624999996,
          "velocity": 0.7086614173228346
        },
        {
          "duration": 0.08333324999999547,
          "durationTicks": 24,
          "midi": 73,
          "name": "C#5",
          "ticks": 15480,
          "time": 53.74994625,
          "velocity": 0.2755905511811024
        },
        {
          "duration": 0.04166662499999774,
          "durationTicks": 12,
          "midi": 65,
          "name": "F4",
          "ticks": 15480,
          "time": 53.74994625,
          "velocity": 0.7086614173228346
        },
        {
          "duration": 0.04166662499999774,
          "durationTicks": 12,
          "midi": 53,
          "name": "F3",
          "ticks": 15480,
          "time": 53.74994625,
          "velocity": 0.7086614173228346
        },
        {
          "duration": 0.04166662499999774,
          "durationTicks": 12,
          "midi": 41,
          "name": "F2",
          "ticks": 15480,
          "time": 53.74994625,
          "velocity": 0.5118110236220472
        },
        {
          "duration": 0.04166662499999774,
          "durationTicks": 12,
          "midi": 53,
          "name": "F3",
          "ticks": 15492,
          "time": 53.791612875,
          "velocity": 0.7086614173228346
        },
        {
          "duration": 0.04166662500000484,
          "durationTicks": 12,
          "midi": 54,
          "name": "F#3",
          "ticks": 15504,
          "time": 53.833279499999996,
          "velocity": 0.7086614173228346
        },
        {
          "duration": 0.04166662500000484,
          "durationTicks": 12,
          "midi": 66,
          "name": "F#4",
          "ticks": 15504,
          "time": 53.833279499999996,
          "velocity": 0.7086614173228346
        },
        {
          "duration": 0.04166662500000484,
          "durationTicks": 12,
          "midi": 42,
          "name": "F#2",
          "ticks": 15504,
          "time": 53.833279499999996,
          "velocity": 0.5118110236220472
        },
        {
          "duration": 0.04166662499999774,
          "durationTicks": 12,
          "midi": 54,
          "name": "F#3",
          "ticks": 15516,
          "time": 53.874946125,
          "velocity": 0.7086614173228346
        },
        {
          "duration": 0.08333325000000258,
          "durationTicks": 24,
          "midi": 74,
          "name": "D5",
          "ticks": 15528,
          "time": 53.91661275,
          "velocity": 0.28346456692913385
        },
        {
          "duration": 0.04166662499999774,
          "durationTicks": 12,
          "midi": 67,
          "name": "G4",
          "ticks": 15528,
          "time": 53.91661275,
          "velocity": 0.7086614173228346
        },
        {
          "duration": 0.04166662499999774,
          "durationTicks": 12,
          "midi": 55,
          "name": "G3",
          "ticks": 15528,
          "time": 53.91661275,
          "velocity": 0.7086614173228346
        },
        {
          "duration": 0.04166662499999774,
          "durationTicks": 12,
          "midi": 43,
          "name": "G2",
          "ticks": 15528,
          "time": 53.91661275,
          "velocity": 0.5118110236220472
        },
        {
          "duration": 0.04166662500000484,
          "durationTicks": 12,
          "midi": 55,
          "name": "G3",
          "ticks": 15540,
          "time": 53.958279375,
          "velocity": 0.7086614173228346
        },
        {
          "duration": 0.04166662499999774,
          "durationTicks": 12,
          "midi": 68,
          "name": "G#4",
          "ticks": 15552,
          "time": 53.999946,
          "velocity": 0.7086614173228346
        },
        {
          "duration": 0.04166662499999774,
          "durationTicks": 12,
          "midi": 56,
          "name": "G#3",
          "ticks": 15552,
          "time": 53.999946,
          "velocity": 0.7086614173228346
        },
        {
          "duration": 0.04166662499999774,
          "durationTicks": 12,
          "midi": 44,
          "name": "G#2",
          "ticks": 15552,
          "time": 53.999946,
          "velocity": 0.5118110236220472
        },
        {
          "duration": 0.04166662499999774,
          "durationTicks": 12,
          "midi": 56,
          "name": "G#3",
          "ticks": 15564,
          "time": 54.041612625,
          "velocity": 0.7086614173228346
        },
        {
          "duration": 0.08333325000000258,
          "durationTicks": 24,
          "midi": 75,
          "name": "D#5",
          "ticks": 15576,
          "time": 54.08327925,
          "velocity": 0.28346456692913385
        },
        {
          "duration": 0.04166662500000484,
          "durationTicks": 12,
          "midi": 57,
          "name": "A3",
          "ticks": 15576,
          "time": 54.08327925,
          "velocity": 0.7086614173228346
        },
        {
          "duration": 0.04166662500000484,
          "durationTicks": 12,
          "midi": 69,
          "name": "A4",
          "ticks": 15576,
          "time": 54.08327925,
          "velocity": 0.7086614173228346
        },
        {
          "duration": 0.04166662500000484,
          "durationTicks": 12,
          "midi": 45,
          "name": "A2",
          "ticks": 15576,
          "time": 54.08327925,
          "velocity": 0.5118110236220472
        },
        {
          "duration": 0.04166662499999774,
          "durationTicks": 12,
          "midi": 57,
          "name": "A3",
          "ticks": 15588,
          "time": 54.124945875,
          "velocity": 0.7086614173228346
        },
        {
          "duration": 0.04166662499999774,
          "durationTicks": 12,
          "midi": 70,
          "name": "A#4",
          "ticks": 15600,
          "time": 54.1666125,
          "velocity": 0.7086614173228346
        },
        {
          "duration": 0.04166662499999774,
          "durationTicks": 12,
          "midi": 58,
          "name": "A#3",
          "ticks": 15600,
          "time": 54.1666125,
          "velocity": 0.7086614173228346
        },
        {
          "duration": 0.04166662499999774,
          "durationTicks": 12,
          "midi": 46,
          "name": "A#2",
          "ticks": 15600,
          "time": 54.1666125,
          "velocity": 0.5118110236220472
        },
        {
          "duration": 0.04166662500000484,
          "durationTicks": 12,
          "midi": 58,
          "name": "A#3",
          "ticks": 15612,
          "time": 54.208279125,
          "velocity": 0.7086614173228346
        },
        {
          "duration": 0.08333324999999547,
          "durationTicks": 24,
          "midi": 76,
          "name": "E5",
          "ticks": 15624,
          "time": 54.24994575,
          "velocity": 0.29133858267716534
        },
        {
          "duration": 0.04166662499999774,
          "durationTicks": 12,
          "midi": 59,
          "name": "B3",
          "ticks": 15624,
          "time": 54.24994575,
          "velocity": 0.7086614173228346
        },
        {
          "duration": 0.04166662499999774,
          "durationTicks": 12,
          "midi": 71,
          "name": "B4",
          "ticks": 15624,
          "time": 54.24994575,
          "velocity": 0.7086614173228346
        },
        {
          "duration": 0.04166662499999774,
          "durationTicks": 12,
          "midi": 47,
          "name": "B2",
          "ticks": 15624,
          "time": 54.24994575,
          "velocity": 0.5118110236220472
        },
        {
          "duration": 0.04166662499999774,
          "durationTicks": 12,
          "midi": 59,
          "name": "B3",
          "ticks": 15636,
          "time": 54.291612375,
          "velocity": 0.7086614173228346
        },
        {
          "duration": 0.017361093750004386,
          "durationTicks": 5,
          "midi": 70,
          "name": "A#4",
          "ticks": 15648,
          "time": 54.333279,
          "velocity": 0.6850393700787402
        },
        {
          "duration": 0.017361093750004386,
          "durationTicks": 5,
          "midi": 82,
          "name": "A#5",
          "ticks": 15648,
          "time": 54.333279,
          "velocity": 0.6850393700787402
        },
        {
          "duration": 0.017361093750004386,
          "durationTicks": 5,
          "midi": 58,
          "name": "A#3",
          "ticks": 15648,
          "time": 54.333279,
          "velocity": 0.6850393700787402
        },
        {
          "duration": 0.017361093749990175,
          "durationTicks": 5,
          "midi": 69,
          "name": "A4",
          "ticks": 15653,
          "time": 54.35064009375,
          "velocity": 0.6850393700787402
        },
        {
          "duration": 0.017361093749990175,
          "durationTicks": 5,
          "midi": 81,
          "name": "A5",
          "ticks": 15653,
          "time": 54.35064009375,
          "velocity": 0.6850393700787402
        },
        {
          "duration": 0.017361093749990175,
          "durationTicks": 5,
          "midi": 57,
          "name": "A3",
          "ticks": 15653,
          "time": 54.35064009375,
          "velocity": 0.6850393700787402
        },
        {
          "duration": 0.02083331250000242,
          "durationTicks": 6,
          "midi": 68,
          "name": "G#4",
          "ticks": 15658,
          "time": 54.36800118749999,
          "velocity": 0.6850393700787402
        },
        {
          "duration": 0.02083331250000242,
          "durationTicks": 6,
          "midi": 80,
          "name": "G#5",
          "ticks": 15658,
          "time": 54.36800118749999,
          "velocity": 0.6850393700787402
        },
        {
          "duration": 0.02083331250000242,
          "durationTicks": 6,
          "midi": 56,
          "name": "G#3",
          "ticks": 15658,
          "time": 54.36800118749999,
          "velocity": 0.6850393700787402
        },
        {
          "duration": 0.017361093750004386,
          "durationTicks": 5,
          "midi": 67,
          "name": "G4",
          "ticks": 15664,
          "time": 54.388834499999994,
          "velocity": 0.6850393700787402
        },
        {
          "duration": 0.017361093750004386,
          "durationTicks": 5,
          "midi": 79,
          "name": "G5",
          "ticks": 15664,
          "time": 54.388834499999994,
          "velocity": 0.6850393700787402
        },
        {
          "duration": 0.017361093750004386,
          "durationTicks": 5,
          "midi": 55,
          "name": "G3",
          "ticks": 15664,
          "time": 54.388834499999994,
          "velocity": 0.6850393700787402
        },
        {
          "duration": 0.017361093750004386,
          "durationTicks": 5,
          "midi": 66,
          "name": "F#4",
          "ticks": 15669,
          "time": 54.40619559375,
          "velocity": 0.6850393700787402
        },
        {
          "duration": 0.017361093750004386,
          "durationTicks": 5,
          "midi": 78,
          "name": "F#5",
          "ticks": 15669,
          "time": 54.40619559375,
          "velocity": 0.6850393700787402
        },
        {
          "duration": 0.017361093750004386,
          "durationTicks": 5,
          "midi": 54,
          "name": "F#3",
          "ticks": 15669,
          "time": 54.40619559375,
          "velocity": 0.6850393700787402
        },
        {
          "duration": 0.01388887499999214,
          "durationTicks": 4,
          "midi": 65,
          "name": "F4",
          "ticks": 15674,
          "time": 54.4235566875,
          "velocity": 0.6850393700787402
        },
        {
          "duration": 0.01388887499999214,
          "durationTicks": 4,
          "midi": 77,
          "name": "F5",
          "ticks": 15674,
          "time": 54.4235566875,
          "velocity": 0.6850393700787402
        },
        {
          "duration": 0.01388887499999214,
          "durationTicks": 4,
          "midi": 53,
          "name": "F3",
          "ticks": 15674,
          "time": 54.4235566875,
          "velocity": 0.6850393700787402
        },
        {
          "duration": 0.017361093750004386,
          "durationTicks": 5,
          "midi": 64,
          "name": "E4",
          "ticks": 15678,
          "time": 54.437445562499995,
          "velocity": 0.6850393700787402
        },
        {
          "duration": 0.017361093750004386,
          "durationTicks": 5,
          "midi": 76,
          "name": "E5",
          "ticks": 15678,
          "time": 54.437445562499995,
          "velocity": 0.6850393700787402
        },
        {
          "duration": 0.017361093750004386,
          "durationTicks": 5,
          "midi": 52,
          "name": "E3",
          "ticks": 15678,
          "time": 54.437445562499995,
          "velocity": 0.6850393700787402
        },
        {
          "duration": 0.01736109374999728,
          "durationTicks": 5,
          "midi": 63,
          "name": "D#4",
          "ticks": 15683,
          "time": 54.45480665625,
          "velocity": 0.6850393700787402
        },
        {
          "duration": 0.01736109374999728,
          "durationTicks": 5,
          "midi": 75,
          "name": "D#5",
          "ticks": 15683,
          "time": 54.45480665625,
          "velocity": 0.6850393700787402
        },
        {
          "duration": 0.01736109374999728,
          "durationTicks": 5,
          "midi": 51,
          "name": "D#3",
          "ticks": 15683,
          "time": 54.45480665625,
          "velocity": 0.6850393700787402
        },
        {
          "duration": 0.04166662500000484,
          "durationTicks": 12,
          "midi": 40,
          "name": "E2",
          "ticks": 15696,
          "time": 54.499945499999995,
          "velocity": 0.5118110236220472
        },
        {
          "duration": 0.04166662500000484,
          "durationTicks": 12,
          "midi": 52,
          "name": "E3",
          "ticks": 15696,
          "time": 54.499945499999995,
          "velocity": 0.7086614173228346
        },
        {
          "duration": 0.04166662500000484,
          "durationTicks": 12,
          "midi": 64,
          "name": "E4",
          "ticks": 15696,
          "time": 54.499945499999995,
          "velocity": 0.7086614173228346
        },
        {
          "duration": 0.04166662499999774,
          "durationTicks": 12,
          "midi": 52,
          "name": "E3",
          "ticks": 15708,
          "time": 54.541612125,
          "velocity": 0.7086614173228346
        },
        {
          "duration": 0.08333325000000258,
          "durationTicks": 24,
          "midi": 89,
          "name": "F6",
          "ticks": 15720,
          "time": 54.58327875,
          "velocity": 0.3700787401574803
        },
        {
          "duration": 0.04166662499999774,
          "durationTicks": 12,
          "midi": 40,
          "name": "E2",
          "ticks": 15720,
          "time": 54.58327875,
          "velocity": 0.5118110236220472
        },
        {
          "duration": 0.04166662499999774,
          "durationTicks": 12,
          "midi": 52,
          "name": "E3",
          "ticks": 15720,
          "time": 54.58327875,
          "velocity": 0.7086614173228346
        },
        {
          "duration": 0.08333325000000258,
          "durationTicks": 24,
          "midi": 72,
          "name": "C5",
          "ticks": 15720,
          "time": 54.58327875,
          "velocity": 0.30708661417322836
        },
        {
          "duration": 0.04166662499999774,
          "durationTicks": 12,
          "midi": 64,
          "name": "E4",
          "ticks": 15720,
          "time": 54.58327875,
          "velocity": 0.7086614173228346
        },
        {
          "duration": 0.04166662500000484,
          "durationTicks": 12,
          "midi": 52,
          "name": "E3",
          "ticks": 15732,
          "time": 54.624945374999996,
          "velocity": 0.7086614173228346
        },
        {
          "duration": 0.08333324999999547,
          "durationTicks": 24,
          "midi": 88,
          "name": "E6",
          "ticks": 15744,
          "time": 54.666612,
          "velocity": 0.3543307086614173
        },
        {
          "duration": 0.04166662499999774,
          "durationTicks": 12,
          "midi": 53,
          "name": "F3",
          "ticks": 15744,
          "time": 54.666612,
          "velocity": 0.7086614173228346
        },
        {
          "duration": 0.04166662499999774,
          "durationTicks": 12,
          "midi": 65,
          "name": "F4",
          "ticks": 15744,
          "time": 54.666612,
          "velocity": 0.7086614173228346
        },
        {
          "duration": 0.04166662499999774,
          "durationTicks": 12,
          "midi": 41,
          "name": "F2",
          "ticks": 15744,
          "time": 54.666612,
          "velocity": 0.5118110236220472
        },
        {
          "duration": 0.04166662499999774,
          "durationTicks": 12,
          "midi": 53,
          "name": "F3",
          "ticks": 15756,
          "time": 54.708278625,
          "velocity": 0.7086614173228346
        },
        {
          "duration": 0.08333325000000258,
          "durationTicks": 24,
          "midi": 87,
          "name": "D#6",
          "ticks": 15768,
          "time": 54.749945249999996,
          "velocity": 0.33070866141732286
        },
        {
          "duration": 0.04166662500000484,
          "durationTicks": 12,
          "midi": 65,
          "name": "F4",
          "ticks": 15768,
          "time": 54.749945249999996,
          "velocity": 0.7086614173228346
        },
        {
          "duration": 0.08333325000000258,
          "durationTicks": 24,
          "midi": 73,
          "name": "C#5",
          "ticks": 15768,
          "time": 54.749945249999996,
          "velocity": 0.30708661417322836
        },
        {
          "duration": 0.04166662500000484,
          "durationTicks": 12,
          "midi": 53,
          "name": "F3",
          "ticks": 15768,
          "time": 54.749945249999996,
          "velocity": 0.7086614173228346
        },
        {
          "duration": 0.04166662500000484,
          "durationTicks": 12,
          "midi": 41,
          "name": "F2",
          "ticks": 15768,
          "time": 54.749945249999996,
          "velocity": 0.5118110236220472
        },
        {
          "duration": 0.04166662499999774,
          "durationTicks": 12,
          "midi": 53,
          "name": "F3",
          "ticks": 15780,
          "time": 54.791611875,
          "velocity": 0.7086614173228346
        },
        {
          "duration": 0.08333325000000258,
          "durationTicks": 24,
          "midi": 86,
          "name": "D6",
          "ticks": 15792,
          "time": 54.8332785,
          "velocity": 0.30708661417322836
        },
        {
          "duration": 0.04166662499999774,
          "durationTicks": 12,
          "midi": 66,
          "name": "F#4",
          "ticks": 15792,
          "time": 54.8332785,
          "velocity": 0.7086614173228346
        },
        {
          "duration": 0.04166662499999774,
          "durationTicks": 12,
          "midi": 54,
          "name": "F#3",
          "ticks": 15792,
          "time": 54.8332785,
          "velocity": 0.7086614173228346
        },
        {
          "duration": 0.04166662499999774,
          "durationTicks": 12,
          "midi": 42,
          "name": "F#2",
          "ticks": 15792,
          "time": 54.8332785,
          "velocity": 0.5118110236220472
        },
        {
          "duration": 0.04166662500000484,
          "durationTicks": 12,
          "midi": 54,
          "name": "F#3",
          "ticks": 15804,
          "time": 54.874945124999996,
          "velocity": 0.7086614173228346
        },
        {
          "duration": 0.08333324999999547,
          "durationTicks": 24,
          "midi": 85,
          "name": "C#6",
          "ticks": 15816,
          "time": 54.91661175,
          "velocity": 0.29133858267716534
        },
        {
          "duration": 0.04166662499999774,
          "durationTicks": 12,
          "midi": 66,
          "name": "F#4",
          "ticks": 15816,
          "time": 54.91661175,
          "velocity": 0.7086614173228346
        },
        {
          "duration": 0.08333324999999547,
          "durationTicks": 24,
          "midi": 74,
          "name": "D5",
          "ticks": 15816,
          "time": 54.91661175,
          "velocity": 0.31496062992125984
        },
        {
          "duration": 0.04166662499999774,
          "durationTicks": 12,
          "midi": 54,
          "name": "F#3",
          "ticks": 15816,
          "time": 54.91661175,
          "velocity": 0.7086614173228346
        },
        {
          "duration": 0.04166662499999774,
          "durationTicks": 12,
          "midi": 42,
          "name": "F#2",
          "ticks": 15816,
          "time": 54.91661175,
          "velocity": 0.5118110236220472
        },
        {
          "duration": 0.04166662499999774,
          "durationTicks": 12,
          "midi": 54,
          "name": "F#3",
          "ticks": 15828,
          "time": 54.958278375,
          "velocity": 0.7086614173228346
        },
        {
          "duration": 0.08333325000000258,
          "durationTicks": 24,
          "midi": 84,
          "name": "C6",
          "ticks": 15840,
          "time": 54.999945,
          "velocity": 0.2677165354330709
        },
        {
          "duration": 0.04166662500000484,
          "durationTicks": 12,
          "midi": 55,
          "name": "G3",
          "ticks": 15840,
          "time": 54.999945,
          "velocity": 0.7086614173228346
        },
        {
          "duration": 0.04166662500000484,
          "durationTicks": 12,
          "midi": 67,
          "name": "G4",
          "ticks": 15840,
          "time": 54.999945,
          "velocity": 0.7086614173228346
        },
        {
          "duration": 0.04166662500000484,
          "durationTicks": 12,
          "midi": 43,
          "name": "G2",
          "ticks": 15840,
          "time": 54.999945,
          "velocity": 0.5118110236220472
        },
        {
          "duration": 0.04166662499999774,
          "durationTicks": 12,
          "midi": 55,
          "name": "G3",
          "ticks": 15852,
          "time": 55.041611625,
          "velocity": 0.7086614173228346
        },
        {
          "duration": 0.08333325000000258,
          "durationTicks": 24,
          "midi": 83,
          "name": "B5",
          "ticks": 15864,
          "time": 55.08327825,
          "velocity": 0.25196850393700787
        },
        {
          "duration": 0.04166662499999774,
          "durationTicks": 12,
          "midi": 55,
          "name": "G3",
          "ticks": 15864,
          "time": 55.08327825,
          "velocity": 0.7086614173228346
        },
        {
          "duration": 0.08333325000000258,
          "durationTicks": 24,
          "midi": 75,
          "name": "D#5",
          "ticks": 15864,
          "time": 55.08327825,
          "velocity": 0.3228346456692913
        },
        {
          "duration": 0.04166662499999774,
          "durationTicks": 12,
          "midi": 67,
          "name": "G4",
          "ticks": 15864,
          "time": 55.08327825,
          "velocity": 0.7086614173228346
        },
        {
          "duration": 0.04166662499999774,
          "durationTicks": 12,
          "midi": 43,
          "name": "G2",
          "ticks": 15864,
          "time": 55.08327825,
          "velocity": 0.5118110236220472
        },
        {
          "duration": 0.04166662500000484,
          "durationTicks": 12,
          "midi": 55,
          "name": "G3",
          "ticks": 15876,
          "time": 55.124944875,
          "velocity": 0.7086614173228346
        },
        {
          "duration": 0.08333324999999547,
          "durationTicks": 24,
          "midi": 82,
          "name": "A#5",
          "ticks": 15888,
          "time": 55.1666115,
          "velocity": 0.2283464566929134
        },
        {
          "duration": 0.04166662499999774,
          "durationTicks": 12,
          "midi": 68,
          "name": "G#4",
          "ticks": 15888,
          "time": 55.1666115,
          "velocity": 0.7086614173228346
        },
        {
          "duration": 0.04166662499999774,
          "durationTicks": 12,
          "midi": 56,
          "name": "G#3",
          "ticks": 15888,
          "time": 55.1666115,
          "velocity": 0.7086614173228346
        },
        {
          "duration": 0.04166662499999774,
          "durationTicks": 12,
          "midi": 44,
          "name": "G#2",
          "ticks": 15888,
          "time": 55.1666115,
          "velocity": 0.5118110236220472
        },
        {
          "duration": 0.04166662499999774,
          "durationTicks": 12,
          "midi": 56,
          "name": "G#3",
          "ticks": 15900,
          "time": 55.208278125,
          "velocity": 0.7086614173228346
        },
        {
          "duration": 0.08333325000000258,
          "durationTicks": 24,
          "midi": 81,
          "name": "A5",
          "ticks": 15912,
          "time": 55.24994475,
          "velocity": 0.2047244094488189
        },
        {
          "duration": 0.08333325000000258,
          "durationTicks": 24,
          "midi": 76,
          "name": "E5",
          "ticks": 15912,
          "time": 55.24994475,
          "velocity": 0.33070866141732286
        },
        {
          "duration": 0.04166662499999774,
          "durationTicks": 12,
          "midi": 56,
          "name": "G#3",
          "ticks": 15912,
          "time": 55.24994475,
          "velocity": 0.7086614173228346
        },
        {
          "duration": 0.04166662499999774,
          "durationTicks": 12,
          "midi": 68,
          "name": "G#4",
          "ticks": 15912,
          "time": 55.24994475,
          "velocity": 0.7086614173228346
        },
        {
          "duration": 0.04166662499999774,
          "durationTicks": 12,
          "midi": 44,
          "name": "G#2",
          "ticks": 15912,
          "time": 55.24994475,
          "velocity": 0.5118110236220472
        },
        {
          "duration": 0.04166662500000484,
          "durationTicks": 12,
          "midi": 56,
          "name": "G#3",
          "ticks": 15924,
          "time": 55.291611374999995,
          "velocity": 0.7086614173228346
        },
        {
          "duration": 0.08333324999999547,
          "durationTicks": 24,
          "midi": 80,
          "name": "G#5",
          "ticks": 15936,
          "time": 55.333278,
          "velocity": 0.1889763779527559
        },
        {
          "duration": 0.04166662499999774,
          "durationTicks": 12,
          "midi": 57,
          "name": "A3",
          "ticks": 15936,
          "time": 55.333278,
          "velocity": 0.7086614173228346
        },
        {
          "duration": 0.04166662499999774,
          "durationTicks": 12,
          "midi": 69,
          "name": "A4",
          "ticks": 15936,
          "time": 55.333278,
          "velocity": 0.7086614173228346
        },
        {
          "duration": 0.04166662499999774,
          "durationTicks": 12,
          "midi": 45,
          "name": "A2",
          "ticks": 15936,
          "time": 55.333278,
          "velocity": 0.5118110236220472
        },
        {
          "duration": 0.04166662499999774,
          "durationTicks": 12,
          "midi": 57,
          "name": "A3",
          "ticks": 15948,
          "time": 55.374944625,
          "velocity": 0.7086614173228346
        },
        {
          "duration": 0.08333325000000258,
          "durationTicks": 24,
          "midi": 79,
          "name": "G5",
          "ticks": 15960,
          "time": 55.416611249999995,
          "velocity": 0.16535433070866143
        },
        {
          "duration": 0.08333325000000258,
          "durationTicks": 24,
          "midi": 77,
          "name": "F5",
          "ticks": 15960,
          "time": 55.416611249999995,
          "velocity": 0.33070866141732286
        },
        {
          "duration": 0.04166662500000484,
          "durationTicks": 12,
          "midi": 57,
          "name": "A3",
          "ticks": 15960,
          "time": 55.416611249999995,
          "velocity": 0.7086614173228346
        },
        {
          "duration": 0.04166662500000484,
          "durationTicks": 12,
          "midi": 69,
          "name": "A4",
          "ticks": 15960,
          "time": 55.416611249999995,
          "velocity": 0.7086614173228346
        },
        {
          "duration": 0.04166662500000484,
          "durationTicks": 12,
          "midi": 45,
          "name": "A2",
          "ticks": 15960,
          "time": 55.416611249999995,
          "velocity": 0.5118110236220472
        },
        {
          "duration": 0.04166662499999774,
          "durationTicks": 12,
          "midi": 57,
          "name": "A3",
          "ticks": 15972,
          "time": 55.458277875,
          "velocity": 0.7086614173228346
        },
        {
          "duration": 0.08333325000000258,
          "durationTicks": 24,
          "midi": 78,
          "name": "F#5",
          "ticks": 15984,
          "time": 55.4999445,
          "velocity": 0.14173228346456693
        },
        {
          "duration": 0.04166662499999774,
          "durationTicks": 12,
          "midi": 58,
          "name": "A#3",
          "ticks": 15984,
          "time": 55.4999445,
          "velocity": 0.7086614173228346
        },
        {
          "duration": 0.04166662499999774,
          "durationTicks": 12,
          "midi": 70,
          "name": "A#4",
          "ticks": 15984,
          "time": 55.4999445,
          "velocity": 0.7086614173228346
        },
        {
          "duration": 0.04166662499999774,
          "durationTicks": 12,
          "midi": 46,
          "name": "A#2",
          "ticks": 15984,
          "time": 55.4999445,
          "velocity": 0.5118110236220472
        },
        {
          "duration": 0.04166662500000484,
          "durationTicks": 12,
          "midi": 58,
          "name": "A#3",
          "ticks": 15996,
          "time": 55.541611124999996,
          "velocity": 0.7086614173228346
        },
        {
          "duration": 0.08333324999999547,
          "durationTicks": 24,
          "midi": 77,
          "name": "F5",
          "ticks": 16008,
          "time": 55.58327775,
          "velocity": 0.12598425196850394
        },
        {
          "duration": 0.04166662499999774,
          "durationTicks": 12,
          "midi": 70,
          "name": "A#4",
          "ticks": 16008,
          "time": 55.58327775,
          "velocity": 0.7086614173228346
        },
        {
          "duration": 0.04166662499999774,
          "durationTicks": 12,
          "midi": 58,
          "name": "A#3",
          "ticks": 16008,
          "time": 55.58327775,
          "velocity": 0.7086614173228346
        },
        {
          "duration": 0.08333324999999547,
          "durationTicks": 24,
          "midi": 78,
          "name": "F#5",
          "ticks": 16008,
          "time": 55.58327775,
          "velocity": 0.33858267716535434
        },
        {
          "duration": 0.04166662499999774,
          "durationTicks": 12,
          "midi": 46,
          "name": "A#2",
          "ticks": 16008,
          "time": 55.58327775,
          "velocity": 0.5118110236220472
        },
        {
          "duration": 0.04166662499999774,
          "durationTicks": 12,
          "midi": 58,
          "name": "A#3",
          "ticks": 16020,
          "time": 55.624944375,
          "velocity": 0.7086614173228346
        },
        {
          "duration": 0.16666650000000516,
          "durationTicks": 48,
          "midi": 52,
          "name": "E3",
          "ticks": 16224,
          "time": 56.333276999999995,
          "velocity": 0.6771653543307087
        },
        {
          "duration": 0.16666650000000516,
          "durationTicks": 48,
          "midi": 57,
          "name": "A3",
          "ticks": 16224,
          "time": 56.333276999999995,
          "velocity": 0.6771653543307087
        },
        {
          "duration": 0.16666650000000516,
          "durationTicks": 48,
          "midi": 61,
          "name": "C#4",
          "ticks": 16225,
          "time": 56.33674921874999,
          "velocity": 0.6771653543307087
        },
        {
          "duration": 0.16666649999999805,
          "durationTicks": 48,
          "midi": 64,
          "name": "E4",
          "ticks": 16228,
          "time": 56.347165874999995,
          "velocity": 0.6771653543307087
        },
        {
          "duration": 0.16666649999999805,
          "durationTicks": 48,
          "midi": 52,
          "name": "E3",
          "ticks": 16320,
          "time": 56.66661,
          "velocity": 0.6771653543307087
        },
        {
          "duration": 0.16666649999999805,
          "durationTicks": 48,
          "midi": 57,
          "name": "A3",
          "ticks": 16320,
          "time": 56.66661,
          "velocity": 0.6771653543307087
        },
        {
          "duration": 0.16666649999999805,
          "durationTicks": 48,
          "midi": 61,
          "name": "C#4",
          "ticks": 16321,
          "time": 56.67008221875,
          "velocity": 0.6771653543307087
        },
        {
          "duration": 0.16666649999999805,
          "durationTicks": 48,
          "midi": 64,
          "name": "E4",
          "ticks": 16324,
          "time": 56.680498875,
          "velocity": 0.6771653543307087
        },
        {
          "duration": 0.16666649999999805,
          "durationTicks": 48,
          "midi": 52,
          "name": "E3",
          "ticks": 16416,
          "time": 56.999943,
          "velocity": 0.6771653543307087
        },
        {
          "duration": 0.16666649999999805,
          "durationTicks": 48,
          "midi": 57,
          "name": "A3",
          "ticks": 16416,
          "time": 56.999943,
          "velocity": 0.6771653543307087
        },
        {
          "duration": 0.16666650000000516,
          "durationTicks": 48,
          "midi": 61,
          "name": "C#4",
          "ticks": 16417,
          "time": 57.00341521874999,
          "velocity": 0.6771653543307087
        },
        {
          "duration": 0.16666649999999805,
          "durationTicks": 48,
          "midi": 64,
          "name": "E4",
          "ticks": 16420,
          "time": 57.013831874999994,
          "velocity": 0.6771653543307087
        },
        {
          "duration": 0.02777774999999849,
          "durationTicks": 8,
          "midi": 29,
          "name": "F1",
          "ticks": 16464,
          "time": 57.1666095,
          "velocity": 0.6850393700787402
        },
        {
          "duration": 0.027777750000005597,
          "durationTicks": 8,
          "midi": 29,
          "name": "F1",
          "ticks": 16476,
          "time": 57.208276125,
          "velocity": 0.6850393700787402
        },
        {
          "duration": 0.027777750000005597,
          "durationTicks": 8,
          "midi": 29,
          "name": "F1",
          "ticks": 16488,
          "time": 57.249942749999995,
          "velocity": 0.6850393700787402
        },
        {
          "duration": 0.02777774999999849,
          "durationTicks": 8,
          "midi": 29,
          "name": "F1",
          "ticks": 16500,
          "time": 57.291609375,
          "velocity": 0.6850393700787402
        },
        {
          "duration": 0.01041665625000121,
          "durationTicks": 3,
          "midi": 30,
          "name": "F#1",
          "ticks": 16512,
          "time": 57.333276,
          "velocity": 0.6850393700787402
        },
        {
          "duration": 0.013888875000006351,
          "durationTicks": 4,
          "midi": 31,
          "name": "G1",
          "ticks": 16516,
          "time": 57.347164875,
          "velocity": 0.6850393700787402
        },
        {
          "duration": 0.010416656249994105,
          "durationTicks": 3,
          "midi": 32,
          "name": "G#1",
          "ticks": 16521,
          "time": 57.36452596875,
          "velocity": 0.6850393700787402
        },
        {
          "duration": 0.00694443749999607,
          "durationTicks": 2,
          "midi": 33,
          "name": "A1",
          "ticks": 16526,
          "time": 57.3818870625,
          "velocity": 0.6850393700787402
        },
        {
          "duration": 0.01041665625000121,
          "durationTicks": 3,
          "midi": 34,
          "name": "A#1",
          "ticks": 16530,
          "time": 57.3957759375,
          "velocity": 0.6850393700787402
        },
        {
          "duration": 0.013888875000006351,
          "durationTicks": 4,
          "midi": 35,
          "name": "B1",
          "ticks": 16534,
          "time": 57.4096648125,
          "velocity": 0.6850393700787402
        },
        {
          "duration": 0.010416656249994105,
          "durationTicks": 3,
          "midi": 36,
          "name": "C2",
          "ticks": 16539,
          "time": 57.42702590625,
          "velocity": 0.6850393700787402
        },
        {
          "duration": 0.00694443749999607,
          "durationTicks": 2,
          "midi": 37,
          "name": "C#2",
          "ticks": 16544,
          "time": 57.444387,
          "velocity": 0.6850393700787402
        },
        {
          "duration": 0.01041665625000121,
          "durationTicks": 3,
          "midi": 38,
          "name": "D2",
          "ticks": 16548,
          "time": 57.458275875,
          "velocity": 0.6850393700787402
        },
        {
          "duration": 0.013888875000006351,
          "durationTicks": 4,
          "midi": 39,
          "name": "D#2",
          "ticks": 16552,
          "time": 57.47216475,
          "velocity": 0.6850393700787402
        },
        {
          "duration": 0.010416656249994105,
          "durationTicks": 3,
          "midi": 40,
          "name": "E2",
          "ticks": 16557,
          "time": 57.48952584375,
          "velocity": 0.6850393700787402
        },
        {
          "duration": 0.027777750000005597,
          "durationTicks": 8,
          "midi": 41,
          "name": "F2",
          "ticks": 16560,
          "time": 57.499942499999996,
          "velocity": 0.6850393700787402
        },
        {
          "duration": 0.02777774999999849,
          "durationTicks": 8,
          "midi": 41,
          "name": "F2",
          "ticks": 16572,
          "time": 57.541609125,
          "velocity": 0.6850393700787402
        },
        {
          "duration": 0.027777750000005597,
          "durationTicks": 8,
          "midi": 41,
          "name": "F2",
          "ticks": 16584,
          "time": 57.58327575,
          "velocity": 0.6850393700787402
        },
        {
          "duration": 0.027777750000005597,
          "durationTicks": 8,
          "midi": 41,
          "name": "F2",
          "ticks": 16596,
          "time": 57.624942374999996,
          "velocity": 0.6850393700787402
        },
        {
          "duration": 0.02777774999999849,
          "durationTicks": 8,
          "midi": 53,
          "name": "F3",
          "ticks": 16608,
          "time": 57.666609,
          "velocity": 0.6299212598425197
        },
        {
          "duration": 0.010416656249994105,
          "durationTicks": 3,
          "midi": 65,
          "name": "F4",
          "ticks": 16608,
          "time": 57.666609,
          "velocity": 0.6850393700787402
        },
        {
          "duration": 0.01041665625000121,
          "durationTicks": 3,
          "midi": 64,
          "name": "E4",
          "ticks": 16611,
          "time": 57.677025656249995,
          "velocity": 0.6850393700787402
        },
        {
          "duration": 0.01041665625000121,
          "durationTicks": 3,
          "midi": 63,
          "name": "D#4",
          "ticks": 16614,
          "time": 57.687442312499996,
          "velocity": 0.6850393700787402
        },
        {
          "duration": 0.02777774999999849,
          "durationTicks": 8,
          "midi": 52,
          "name": "E3",
          "ticks": 16616,
          "time": 57.69438675,
          "velocity": 0.5826771653543307
        },
        {
          "duration": 0.01041665625000121,
          "durationTicks": 3,
          "midi": 62,
          "name": "D4",
          "ticks": 16617,
          "time": 57.69785896875,
          "velocity": 0.6850393700787402
        },
        {
          "duration": 0.01041665625000121,
          "durationTicks": 3,
          "midi": 61,
          "name": "C#4",
          "ticks": 16620,
          "time": 57.708275625,
          "velocity": 0.6850393700787402
        },
        {
          "duration": 0.0069444375000031755,
          "durationTicks": 2,
          "midi": 60,
          "name": "C4",
          "ticks": 16623,
          "time": 57.71869228125,
          "velocity": 0.6850393700787402
        },
        {
          "duration": 0.024305531250000456,
          "durationTicks": 7,
          "midi": 51,
          "name": "D#3",
          "ticks": 16624,
          "time": 57.7221645,
          "velocity": 0.5354330708661418
        },
        {
          "duration": 0.01041665625000121,
          "durationTicks": 3,
          "midi": 59,
          "name": "B3",
          "ticks": 16625,
          "time": 57.72563671875,
          "velocity": 0.6850393700787402
        },
        {
          "duration": 0.010416656249994105,
          "durationTicks": 3,
          "midi": 58,
          "name": "A#3",
          "ticks": 16628,
          "time": 57.736053375000004,
          "velocity": 0.6850393700787402
        },
        {
          "duration": 0.02777774999999849,
          "durationTicks": 8,
          "midi": 50,
          "name": "D3",
          "ticks": 16631,
          "time": 57.74647003125,
          "velocity": 0.49606299212598426
        },
        {
          "duration": 0.02777774999999849,
          "durationTicks": 8,
          "midi": 49,
          "name": "C#3",
          "ticks": 16639,
          "time": 57.77424778125,
          "velocity": 0.44881889763779526
        },
        {
          "duration": 0.024305531250000456,
          "durationTicks": 7,
          "midi": 48,
          "name": "C3",
          "ticks": 16647,
          "time": 57.802025531249996,
          "velocity": 0.4094488188976378
        },
        {
          "duration": 0.027777750000005597,
          "durationTicks": 8,
          "midi": 47,
          "name": "B2",
          "ticks": 16654,
          "time": 57.826331062499996,
          "velocity": 0.3700787401574803
        },
        {
          "duration": 0.02777774999999849,
          "durationTicks": 8,
          "midi": 46,
          "name": "A#2",
          "ticks": 16662,
          "time": 57.8541088125,
          "velocity": 0.3228346456692913
        },
        {
          "duration": 0.02430553124999335,
          "durationTicks": 7,
          "midi": 56,
          "name": "G#3",
          "ticks": 20064,
          "time": 69.666597,
          "velocity": 0.7401574803149606
        },
        {
          "duration": 0.05555550000001119,
          "durationTicks": 16,
          "midi": 57,
          "name": "A3",
          "ticks": 20068,
          "time": 69.68048587499999,
          "velocity": 0.7401574803149606
        },
        {
          "duration": 0.02430553125000756,
          "durationTicks": 7,
          "midi": 56,
          "name": "G#3",
          "ticks": 20088,
          "time": 69.74993024999999,
          "velocity": 0.7401574803149606
        },
        {
          "duration": 0.05555549999999698,
          "durationTicks": 16,
          "midi": 57,
          "name": "A3",
          "ticks": 20090,
          "time": 69.7568746875,
          "velocity": 0.7401574803149606
        },
        {
          "duration": 0.02430553124999335,
          "durationTicks": 7,
          "midi": 56,
          "name": "G#3",
          "ticks": 20112,
          "time": 69.8332635,
          "velocity": 0.7401574803149606
        },
        {
          "duration": 0.05555549999999698,
          "durationTicks": 16,
          "midi": 57,
          "name": "A3",
          "ticks": 20114,
          "time": 69.8402079375,
          "velocity": 0.7401574803149606
        },
        {
          "duration": 0.02430553124999335,
          "durationTicks": 7,
          "midi": 56,
          "name": "G#3",
          "ticks": 20136,
          "time": 69.91659675,
          "velocity": 0.7401574803149606
        },
        {
          "duration": 0.05555549999999698,
          "durationTicks": 16,
          "midi": 57,
          "name": "A3",
          "ticks": 20138,
          "time": 69.9235411875,
          "velocity": 0.7401574803149606
        },
        {
          "duration": 0.05555549999999698,
          "durationTicks": 16,
          "midi": 69,
          "name": "A4",
          "ticks": 20256,
          "time": 70.333263,
          "velocity": 0.5354330708661418
        },
        {
          "duration": 0.05555549999999698,
          "durationTicks": 16,
          "midi": 64,
          "name": "E4",
          "ticks": 20256,
          "time": 70.333263,
          "velocity": 0.5354330708661418
        },
        {
          "duration": 0.05555549999999698,
          "durationTicks": 16,
          "midi": 63,
          "name": "D#4",
          "ticks": 20272,
          "time": 70.3888185,
          "velocity": 0.49606299212598426
        },
        {
          "duration": 0.05555549999999698,
          "durationTicks": 16,
          "midi": 68,
          "name": "G#4",
          "ticks": 20272,
          "time": 70.3888185,
          "velocity": 0.49606299212598426
        },
        {
          "duration": 0.05555549999999698,
          "durationTicks": 16,
          "midi": 62,
          "name": "D4",
          "ticks": 20288,
          "time": 70.444374,
          "velocity": 0.44881889763779526
        },
        {
          "duration": 0.05555549999999698,
          "durationTicks": 16,
          "midi": 67,
          "name": "G4",
          "ticks": 20288,
          "time": 70.444374,
          "velocity": 0.44881889763779526
        },
        {
          "duration": 0.05555549999999698,
          "durationTicks": 16,
          "midi": 61,
          "name": "C#4",
          "ticks": 20304,
          "time": 70.4999295,
          "velocity": 0.4094488188976378
        },
        {
          "duration": 0.05555549999999698,
          "durationTicks": 16,
          "midi": 66,
          "name": "F#4",
          "ticks": 20304,
          "time": 70.4999295,
          "velocity": 0.4094488188976378
        },
        {
          "duration": 0.05555550000001119,
          "durationTicks": 16,
          "midi": 60,
          "name": "C4",
          "ticks": 20320,
          "time": 70.55548499999999,
          "velocity": 0.3700787401574803
        },
        {
          "duration": 0.05555550000001119,
          "durationTicks": 16,
          "midi": 65,
          "name": "F4",
          "ticks": 20320,
          "time": 70.55548499999999,
          "velocity": 0.3700787401574803
        },
        {
          "duration": 0.05555549999999698,
          "durationTicks": 16,
          "midi": 64,
          "name": "E4",
          "ticks": 20336,
          "time": 70.6110405,
          "velocity": 0.3228346456692913
        },
        {
          "duration": 0.05555549999999698,
          "durationTicks": 16,
          "midi": 59,
          "name": "B3",
          "ticks": 20336,
          "time": 70.6110405,
          "velocity": 0.3228346456692913
        },
        {
          "duration": 0.05555549999999698,
          "durationTicks": 16,
          "midi": 69,
          "name": "A4",
          "ticks": 20448,
          "time": 70.999929,
          "velocity": 0.5905511811023622
        },
        {
          "duration": 0.05555549999999698,
          "durationTicks": 16,
          "midi": 64,
          "name": "E4",
          "ticks": 20448,
          "time": 70.999929,
          "velocity": 0.5905511811023622
        },
        {
          "duration": 0.05555550000001119,
          "durationTicks": 16,
          "midi": 68,
          "name": "G#4",
          "ticks": 20464,
          "time": 71.05548449999999,
          "velocity": 0.5433070866141733
        },
        {
          "duration": 0.05555550000001119,
          "durationTicks": 16,
          "midi": 63,
          "name": "D#4",
          "ticks": 20464,
          "time": 71.05548449999999,
          "velocity": 0.5433070866141733
        },
        {
          "duration": 0.05555549999999698,
          "durationTicks": 16,
          "midi": 62,
          "name": "D4",
          "ticks": 20480,
          "time": 71.11104,
          "velocity": 0.4881889763779528
        },
        {
          "duration": 0.05555549999999698,
          "durationTicks": 16,
          "midi": 67,
          "name": "G4",
          "ticks": 20480,
          "time": 71.11104,
          "velocity": 0.4881889763779528
        },
        {
          "duration": 0.05555549999999698,
          "durationTicks": 16,
          "midi": 66,
          "name": "F#4",
          "ticks": 20496,
          "time": 71.1665955,
          "velocity": 0.4409448818897638
        },
        {
          "duration": 0.05555549999999698,
          "durationTicks": 16,
          "midi": 61,
          "name": "C#4",
          "ticks": 20496,
          "time": 71.1665955,
          "velocity": 0.4409448818897638
        },
        {
          "duration": 0.05555550000001119,
          "durationTicks": 16,
          "midi": 60,
          "name": "C4",
          "ticks": 20512,
          "time": 71.222151,
          "velocity": 0.3937007874015748
        },
        {
          "duration": 0.05555550000001119,
          "durationTicks": 16,
          "midi": 65,
          "name": "F4",
          "ticks": 20512,
          "time": 71.222151,
          "velocity": 0.3937007874015748
        },
        {
          "duration": 0.05555549999999698,
          "durationTicks": 16,
          "midi": 59,
          "name": "B3",
          "ticks": 20528,
          "time": 71.27770650000001,
          "velocity": 0.3464566929133858
        },
        {
          "duration": 0.05555549999999698,
          "durationTicks": 16,
          "midi": 64,
          "name": "E4",
          "ticks": 20528,
          "time": 71.27770650000001,
          "velocity": 0.3464566929133858
        },
        {
          "duration": 0.05555549999999698,
          "durationTicks": 16,
          "midi": 70,
          "name": "A#4",
          "ticks": 20640,
          "time": 71.666595,
          "velocity": 0.5905511811023622
        },
        {
          "duration": 0.05555549999999698,
          "durationTicks": 16,
          "midi": 65,
          "name": "F4",
          "ticks": 20640,
          "time": 71.666595,
          "velocity": 0.5905511811023622
        },
        {
          "duration": 0.05555549999999698,
          "durationTicks": 16,
          "midi": 69,
          "name": "A4",
          "ticks": 20656,
          "time": 71.7221505,
          "velocity": 0.5433070866141733
        },
        {
          "duration": 0.05555549999999698,
          "durationTicks": 16,
          "midi": 64,
          "name": "E4",
          "ticks": 20656,
          "time": 71.7221505,
          "velocity": 0.5433070866141733
        },
        {
          "duration": 0.05555549999999698,
          "durationTicks": 16,
          "midi": 63,
          "name": "D#4",
          "ticks": 20672,
          "time": 71.777706,
          "velocity": 0.49606299212598426
        },
        {
          "duration": 0.05555549999999698,
          "durationTicks": 16,
          "midi": 68,
          "name": "G#4",
          "ticks": 20672,
          "time": 71.777706,
          "velocity": 0.49606299212598426
        },
        {
          "duration": 0.05555549999999698,
          "durationTicks": 16,
          "midi": 62,
          "name": "D4",
          "ticks": 20688,
          "time": 71.83326149999999,
          "velocity": 0.44881889763779526
        },
        {
          "duration": 0.05555549999999698,
          "durationTicks": 16,
          "midi": 67,
          "name": "G4",
          "ticks": 20688,
          "time": 71.83326149999999,
          "velocity": 0.44881889763779526
        },
        {
          "duration": 0.05555550000001119,
          "durationTicks": 16,
          "midi": 66,
          "name": "F#4",
          "ticks": 20704,
          "time": 71.88881699999999,
          "velocity": 0.4094488188976378
        },
        {
          "duration": 0.05555550000001119,
          "durationTicks": 16,
          "midi": 61,
          "name": "C#4",
          "ticks": 20704,
          "time": 71.88881699999999,
          "velocity": 0.4094488188976378
        },
        {
          "duration": 0.05555549999999698,
          "durationTicks": 16,
          "midi": 65,
          "name": "F4",
          "ticks": 20720,
          "time": 71.9443725,
          "velocity": 0.36220472440944884
        },
        {
          "duration": 0.05555549999999698,
          "durationTicks": 16,
          "midi": 60,
          "name": "C4",
          "ticks": 20720,
          "time": 71.9443725,
          "velocity": 0.36220472440944884
        },
        {
          "duration": 0.02430553125000756,
          "durationTicks": 7,
          "midi": 56,
          "name": "G#3",
          "ticks": 20832,
          "time": 72.333261,
          "velocity": 0.7401574803149606
        },
        {
          "duration": 0.05555549999999698,
          "durationTicks": 16,
          "midi": 57,
          "name": "A3",
          "ticks": 20836,
          "time": 72.347149875,
          "velocity": 0.7401574803149606
        },
        {
          "duration": 0.02430553124999335,
          "durationTicks": 7,
          "midi": 56,
          "name": "G#3",
          "ticks": 20856,
          "time": 72.41659425,
          "velocity": 0.7401574803149606
        },
        {
          "duration": 0.05555549999999698,
          "durationTicks": 16,
          "midi": 57,
          "name": "A3",
          "ticks": 20858,
          "time": 72.4235386875,
          "velocity": 0.7401574803149606
        },
        {
          "duration": 0.02430553124999335,
          "durationTicks": 7,
          "midi": 56,
          "name": "G#3",
          "ticks": 20880,
          "time": 72.4999275,
          "velocity": 0.7401574803149606
        },
        {
          "duration": 0.05555549999999698,
          "durationTicks": 16,
          "midi": 57,
          "name": "A3",
          "ticks": 20882,
          "time": 72.5068719375,
          "velocity": 0.7401574803149606
        },
        {
          "duration": 0.02430553125000756,
          "durationTicks": 7,
          "midi": 56,
          "name": "G#3",
          "ticks": 20904,
          "time": 72.58326075,
          "velocity": 0.7401574803149606
        },
        {
          "duration": 0.05555549999999698,
          "durationTicks": 16,
          "midi": 57,
          "name": "A3",
          "ticks": 20906,
          "time": 72.5902051875,
          "velocity": 0.7401574803149606
        },
        {
          "duration": 0.05555549999999698,
          "durationTicks": 16,
          "midi": 64,
          "name": "E4",
          "ticks": 21024,
          "time": 72.999927,
          "velocity": 0.5354330708661418
        },
        {
          "duration": 0.05555549999999698,
          "durationTicks": 16,
          "midi": 69,
          "name": "A4",
          "ticks": 21024,
          "time": 72.999927,
          "velocity": 0.5354330708661418
        },
        {
          "duration": 0.05555550000001119,
          "durationTicks": 16,
          "midi": 68,
          "name": "G#4",
          "ticks": 21040,
          "time": 73.0554825,
          "velocity": 0.49606299212598426
        },
        {
          "duration": 0.05555550000001119,
          "durationTicks": 16,
          "midi": 63,
          "name": "D#4",
          "ticks": 21040,
          "time": 73.0554825,
          "velocity": 0.49606299212598426
        },
        {
          "duration": 0.05555549999999698,
          "durationTicks": 16,
          "midi": 62,
          "name": "D4",
          "ticks": 21056,
          "time": 73.11103800000001,
          "velocity": 0.44881889763779526
        },
        {
          "duration": 0.05555549999999698,
          "durationTicks": 16,
          "midi": 67,
          "name": "G4",
          "ticks": 21056,
          "time": 73.11103800000001,
          "velocity": 0.44881889763779526
        },
        {
          "duration": 0.05555549999999698,
          "durationTicks": 16,
          "midi": 61,
          "name": "C#4",
          "ticks": 21072,
          "time": 73.1665935,
          "velocity": 0.4094488188976378
        },
        {
          "duration": 0.05555549999999698,
          "durationTicks": 16,
          "midi": 66,
          "name": "F#4",
          "ticks": 21072,
          "time": 73.1665935,
          "velocity": 0.4094488188976378
        },
        {
          "duration": 0.05555549999999698,
          "durationTicks": 16,
          "midi": 60,
          "name": "C4",
          "ticks": 21088,
          "time": 73.222149,
          "velocity": 0.3700787401574803
        },
        {
          "duration": 0.05555549999999698,
          "durationTicks": 16,
          "midi": 65,
          "name": "F4",
          "ticks": 21088,
          "time": 73.222149,
          "velocity": 0.3700787401574803
        },
        {
          "duration": 0.05555549999999698,
          "durationTicks": 16,
          "midi": 59,
          "name": "B3",
          "ticks": 21104,
          "time": 73.2777045,
          "velocity": 0.3228346456692913
        },
        {
          "duration": 0.05555549999999698,
          "durationTicks": 16,
          "midi": 64,
          "name": "E4",
          "ticks": 21104,
          "time": 73.2777045,
          "velocity": 0.3228346456692913
        },
        {
          "duration": 0.05555549999999698,
          "durationTicks": 16,
          "midi": 69,
          "name": "A4",
          "ticks": 21216,
          "time": 73.66659299999999,
          "velocity": 0.5905511811023622
        },
        {
          "duration": 0.05555549999999698,
          "durationTicks": 16,
          "midi": 64,
          "name": "E4",
          "ticks": 21216,
          "time": 73.66659299999999,
          "velocity": 0.5905511811023622
        },
        {
          "duration": 0.05555550000001119,
          "durationTicks": 16,
          "midi": 68,
          "name": "G#4",
          "ticks": 21232,
          "time": 73.72214849999999,
          "velocity": 0.5433070866141733
        },
        {
          "duration": 0.05555550000001119,
          "durationTicks": 16,
          "midi": 63,
          "name": "D#4",
          "ticks": 21232,
          "time": 73.72214849999999,
          "velocity": 0.5433070866141733
        },
        {
          "duration": 0.02430553124999335,
          "durationTicks": 7,
          "midi": 61,
          "name": "C#4",
          "ticks": 21600,
          "time": 74.999925,
          "velocity": 0.6771653543307087
        },
        {
          "duration": 0.05555550000001119,
          "durationTicks": 16,
          "midi": 62,
          "name": "D4",
          "ticks": 21604,
          "time": 75.013813875,
          "velocity": 0.6771653543307087
        },
        {
          "duration": 0.02430553124999335,
          "durationTicks": 7,
          "midi": 61,
          "name": "C#4",
          "ticks": 21624,
          "time": 75.08325825,
          "velocity": 0.6771653543307087
        },
        {
          "duration": 0.05555549999999698,
          "durationTicks": 16,
          "midi": 62,
          "name": "D4",
          "ticks": 21626,
          "time": 75.0902026875,
          "velocity": 0.6771653543307087
        },
        {
          "duration": 0.02430553124999335,
          "durationTicks": 7,
          "midi": 61,
          "name": "C#4",
          "ticks": 21648,
          "time": 75.1665915,
          "velocity": 0.6771653543307087
        },
        {
          "duration": 0.05555549999999698,
          "durationTicks": 16,
          "midi": 62,
          "name": "D4",
          "ticks": 21650,
          "time": 75.1735359375,
          "velocity": 0.6771653543307087
        },
        {
          "duration": 0.02430553125000756,
          "durationTicks": 7,
          "midi": 61,
          "name": "C#4",
          "ticks": 21672,
          "time": 75.24992474999999,
          "velocity": 0.6771653543307087
        },
        {
          "duration": 0.05555549999999698,
          "durationTicks": 16,
          "midi": 62,
          "name": "D4",
          "ticks": 21674,
          "time": 75.2568691875,
          "velocity": 0.6771653543307087
        },
        {
          "duration": 0.04513884374999577,
          "durationTicks": 13,
          "midi": 61,
          "name": "C#4",
          "ticks": 21792,
          "time": 75.666591,
          "velocity": 0.5433070866141733
        },
        {
          "duration": 0.04513884375000998,
          "durationTicks": 13,
          "midi": 62,
          "name": "D4",
          "ticks": 21797,
          "time": 75.68395209375,
          "velocity": 0.6771653543307087
        },
        {
          "duration": 0.04513884375000998,
          "durationTicks": 13,
          "midi": 57,
          "name": "A3",
          "ticks": 21797,
          "time": 75.68395209375,
          "velocity": 0.6771653543307087
        },
        {
          "duration": 0.04513884374999577,
          "durationTicks": 13,
          "midi": 61,
          "name": "C#4",
          "ticks": 21816,
          "time": 75.74992424999999,
          "velocity": 0.5433070866141733
        },
        {
          "duration": 0.04513884374999577,
          "durationTicks": 13,
          "midi": 62,
          "name": "D4",
          "ticks": 21821,
          "time": 75.76728534375,
          "velocity": 0.6771653543307087
        },
        {
          "duration": 0.04513884374999577,
          "durationTicks": 13,
          "midi": 57,
          "name": "A3",
          "ticks": 21821,
          "time": 75.76728534375,
          "velocity": 0.6771653543307087
        },
        {
          "duration": 0.0868054687499864,
          "durationTicks": 25,
          "midi": 61,
          "name": "C#4",
          "ticks": 21840,
          "time": 75.8332575,
          "velocity": 0.5433070866141733
        },
        {
          "duration": 0.08680546875000061,
          "durationTicks": 25,
          "midi": 62,
          "name": "D4",
          "ticks": 21845,
          "time": 75.85061859375,
          "velocity": 0.6771653543307087
        },
        {
          "duration": 0.08680546875000061,
          "durationTicks": 25,
          "midi": 57,
          "name": "A3",
          "ticks": 21845,
          "time": 75.85061859375,
          "velocity": 0.6771653543307087
        },
        {
          "duration": 0.04513884374999577,
          "durationTicks": 13,
          "midi": 61,
          "name": "C#4",
          "ticks": 21888,
          "time": 75.999924,
          "velocity": 0.5433070866141733
        },
        {
          "duration": 0.04513884374999577,
          "durationTicks": 13,
          "midi": 62,
          "name": "D4",
          "ticks": 21893,
          "time": 76.01728509375,
          "velocity": 0.6771653543307087
        },
        {
          "duration": 0.04513884374999577,
          "durationTicks": 13,
          "midi": 57,
          "name": "A3",
          "ticks": 21893,
          "time": 76.01728509375,
          "velocity": 0.6771653543307087
        },
        {
          "duration": 0.04513884374999577,
          "durationTicks": 13,
          "midi": 61,
          "name": "C#4",
          "ticks": 21912,
          "time": 76.08325725,
          "velocity": 0.5433070866141733
        },
        {
          "duration": 0.04513884374999577,
          "durationTicks": 13,
          "midi": 62,
          "name": "D4",
          "ticks": 21917,
          "time": 76.10061834375,
          "velocity": 0.6771653543307087
        },
        {
          "duration": 0.04513884374999577,
          "durationTicks": 13,
          "midi": 57,
          "name": "A3",
          "ticks": 21917,
          "time": 76.10061834375,
          "velocity": 0.6771653543307087
        },
        {
          "duration": 0.08680546875000061,
          "durationTicks": 25,
          "midi": 61,
          "name": "C#4",
          "ticks": 21936,
          "time": 76.1665905,
          "velocity": 0.5433070866141733
        },
        {
          "duration": 0.08680546875000061,
          "durationTicks": 25,
          "midi": 62,
          "name": "D4",
          "ticks": 21941,
          "time": 76.18395159375,
          "velocity": 0.6771653543307087
        },
        {
          "duration": 0.08680546875000061,
          "durationTicks": 25,
          "midi": 57,
          "name": "A3",
          "ticks": 21941,
          "time": 76.18395159375,
          "velocity": 0.6771653543307087
        },
        {
          "duration": 0.04513884374999577,
          "durationTicks": 13,
          "midi": 61,
          "name": "C#4",
          "ticks": 21984,
          "time": 76.333257,
          "velocity": 0.5433070866141733
        },
        {
          "duration": 0.04513884374999577,
          "durationTicks": 13,
          "midi": 62,
          "name": "D4",
          "ticks": 21989,
          "time": 76.35061809375,
          "velocity": 0.6771653543307087
        },
        {
          "duration": 0.04513884374999577,
          "durationTicks": 13,
          "midi": 57,
          "name": "A3",
          "ticks": 21989,
          "time": 76.35061809375,
          "velocity": 0.6771653543307087
        },
        {
          "duration": 0.04513884374999577,
          "durationTicks": 13,
          "midi": 61,
          "name": "C#4",
          "ticks": 22008,
          "time": 76.41659025,
          "velocity": 0.5433070866141733
        },
        {
          "duration": 0.04513884374999577,
          "durationTicks": 13,
          "midi": 62,
          "name": "D4",
          "ticks": 22013,
          "time": 76.43395134375,
          "velocity": 0.6771653543307087
        },
        {
          "duration": 0.04513884374999577,
          "durationTicks": 13,
          "midi": 57,
          "name": "A3",
          "ticks": 22013,
          "time": 76.43395134375,
          "velocity": 0.6771653543307087
        },
        {
          "duration": 0.08680546875000061,
          "durationTicks": 25,
          "midi": 61,
          "name": "C#4",
          "ticks": 22032,
          "time": 76.4999235,
          "velocity": 0.5433070866141733
        },
        {
          "duration": 0.0868054687499864,
          "durationTicks": 25,
          "midi": 62,
          "name": "D4",
          "ticks": 22037,
          "time": 76.51728459375,
          "velocity": 0.6771653543307087
        },
        {
          "duration": 0.0868054687499864,
          "durationTicks": 25,
          "midi": 57,
          "name": "A3",
          "ticks": 22037,
          "time": 76.51728459375,
          "velocity": 0.6771653543307087
        },
        {
          "duration": 0.08680546875000061,
          "durationTicks": 25,
          "midi": 50,
          "name": "D3",
          "ticks": 22080,
          "time": 76.66659,
          "velocity": 0.6771653543307087
        },
        {
          "duration": 0.08680546875001482,
          "durationTicks": 25,
          "midi": 54,
          "name": "F#3",
          "ticks": 22081,
          "time": 76.67006221874999,
          "velocity": 0.6771653543307087
        },
        {
          "duration": 0.08680546875001482,
          "durationTicks": 25,
          "midi": 57,
          "name": "A3",
          "ticks": 22084,
          "time": 76.68047887499999,
          "velocity": 0.6771653543307087
        },
        {
          "duration": 0.08680546875001482,
          "durationTicks": 25,
          "midi": 62,
          "name": "D4",
          "ticks": 22087,
          "time": 76.69089553124999,
          "velocity": 0.6771653543307087
        },
        {
          "duration": 0.0868054687499864,
          "durationTicks": 25,
          "midi": 50,
          "name": "D3",
          "ticks": 22128,
          "time": 76.8332565,
          "velocity": 0.6771653543307087
        },
        {
          "duration": 0.08680546875000061,
          "durationTicks": 25,
          "midi": 54,
          "name": "F#3",
          "ticks": 22129,
          "time": 76.83672871875,
          "velocity": 0.6771653543307087
        },
        {
          "duration": 0.08680546875000061,
          "durationTicks": 25,
          "midi": 57,
          "name": "A3",
          "ticks": 22132,
          "time": 76.847145375,
          "velocity": 0.6771653543307087
        },
        {
          "duration": 0.08680546875000061,
          "durationTicks": 25,
          "midi": 62,
          "name": "D4",
          "ticks": 22135,
          "time": 76.85756203125,
          "velocity": 0.6771653543307087
        },
        {
          "duration": 0.1527776249999988,
          "durationTicks": 44,
          "midi": 50,
          "name": "D3",
          "ticks": 22176,
          "time": 76.999923,
          "velocity": 0.6771653543307087
        },
        {
          "duration": 0.1527776249999988,
          "durationTicks": 44,
          "midi": 54,
          "name": "F#3",
          "ticks": 22177,
          "time": 77.00339521875,
          "velocity": 0.6771653543307087
        },
        {
          "duration": 0.15277762500001302,
          "durationTicks": 44,
          "midi": 57,
          "name": "A3",
          "ticks": 22180,
          "time": 77.01381187499999,
          "velocity": 0.6771653543307087
        },
        {
          "duration": 0.15277762500001302,
          "durationTicks": 44,
          "midi": 62,
          "name": "D4",
          "ticks": 22183,
          "time": 77.02422853124999,
          "velocity": 0.6771653543307087
        },
        {
          "duration": 0.04513884374999577,
          "durationTicks": 13,
          "midi": 49,
          "name": "C#3",
          "ticks": 22224,
          "time": 77.1665895,
          "velocity": 0.6141732283464567
        },
        {
          "duration": 0.04513884374999577,
          "durationTicks": 13,
          "midi": 61,
          "name": "C#4",
          "ticks": 22224,
          "time": 77.1665895,
          "velocity": 0.6141732283464567
        },
        {
          "duration": 0.04513884374999577,
          "durationTicks": 13,
          "midi": 56,
          "name": "G#3",
          "ticks": 22224,
          "time": 77.1665895,
          "velocity": 0.6141732283464567
        },
        {
          "duration": 0.04513884374999577,
          "durationTicks": 13,
          "midi": 53,
          "name": "F3",
          "ticks": 22224,
          "time": 77.1665895,
          "velocity": 0.6141732283464567
        },
        {
          "duration": 0.04513884375000998,
          "durationTicks": 13,
          "midi": 48,
          "name": "C3",
          "ticks": 22236,
          "time": 77.20825612499999,
          "velocity": 0.47244094488188976
        },
        {
          "duration": 0.04513884375000998,
          "durationTicks": 13,
          "midi": 60,
          "name": "C4",
          "ticks": 22236,
          "time": 77.20825612499999,
          "velocity": 0.47244094488188976
        },
        {
          "duration": 0.04513884375000998,
          "durationTicks": 13,
          "midi": 55,
          "name": "G3",
          "ticks": 22236,
          "time": 77.20825612499999,
          "velocity": 0.47244094488188976
        },
        {
          "duration": 0.04513884375000998,
          "durationTicks": 13,
          "midi": 52,
          "name": "E3",
          "ticks": 22236,
          "time": 77.20825612499999,
          "velocity": 0.47244094488188976
        },
        {
          "duration": 0.04513884374999577,
          "durationTicks": 13,
          "midi": 47,
          "name": "B2",
          "ticks": 22248,
          "time": 77.24992275,
          "velocity": 0.33070866141732286
        },
        {
          "duration": 0.04513884374999577,
          "durationTicks": 13,
          "midi": 59,
          "name": "B3",
          "ticks": 22248,
          "time": 77.24992275,
          "velocity": 0.33070866141732286
        },
        {
          "duration": 0.04513884374999577,
          "durationTicks": 13,
          "midi": 54,
          "name": "F#3",
          "ticks": 22248,
          "time": 77.24992275,
          "velocity": 0.33070866141732286
        },
        {
          "duration": 0.04513884374999577,
          "durationTicks": 13,
          "midi": 51,
          "name": "D#3",
          "ticks": 22248,
          "time": 77.24992275,
          "velocity": 0.33070866141732286
        },
        {
          "duration": 0.04513884374999577,
          "durationTicks": 13,
          "midi": 46,
          "name": "A#2",
          "ticks": 22260,
          "time": 77.291589375,
          "velocity": 0.18110236220472442
        },
        {
          "duration": 0.04513884374999577,
          "durationTicks": 13,
          "midi": 58,
          "name": "A#3",
          "ticks": 22260,
          "time": 77.291589375,
          "velocity": 0.18110236220472442
        },
        {
          "duration": 0.04513884374999577,
          "durationTicks": 13,
          "midi": 53,
          "name": "F3",
          "ticks": 22260,
          "time": 77.291589375,
          "velocity": 0.18110236220472442
        },
        {
          "duration": 0.04513884374999577,
          "durationTicks": 13,
          "midi": 50,
          "name": "D3",
          "ticks": 22260,
          "time": 77.291589375,
          "velocity": 0.18110236220472442
        },
        {
          "duration": 0.04513884375000998,
          "durationTicks": 13,
          "midi": 60,
          "name": "C4",
          "ticks": 22272,
          "time": 77.33325599999999,
          "velocity": 0.6771653543307087
        },
        {
          "duration": 0.04513884374999577,
          "durationTicks": 13,
          "midi": 62,
          "name": "D4",
          "ticks": 22277,
          "time": 77.35061709375,
          "velocity": 0.6771653543307087
        },
        {
          "duration": 0.04513884374999577,
          "durationTicks": 13,
          "midi": 60,
          "name": "C4",
          "ticks": 22320,
          "time": 77.4999225,
          "velocity": 0.6771653543307087
        },
        {
          "duration": 0.04513884375000998,
          "durationTicks": 13,
          "midi": 62,
          "name": "D4",
          "ticks": 22325,
          "time": 77.51728359375,
          "velocity": 0.6771653543307087
        },
        {
          "duration": 0.04513884374999577,
          "durationTicks": 13,
          "midi": 60,
          "name": "C4",
          "ticks": 22368,
          "time": 77.666589,
          "velocity": 0.6771653543307087
        },
        {
          "duration": 0.04513884374999577,
          "durationTicks": 13,
          "midi": 62,
          "name": "D4",
          "ticks": 22373,
          "time": 77.68395009375,
          "velocity": 0.6771653543307087
        },
        {
          "duration": 0.12847209375000546,
          "durationTicks": 37,
          "midi": 60,
          "name": "C4",
          "ticks": 22416,
          "time": 77.83325549999999,
          "velocity": 0.6771653543307087
        },
        {
          "duration": 0.12847209374999125,
          "durationTicks": 37,
          "midi": 62,
          "name": "D4",
          "ticks": 22421,
          "time": 77.85061659375,
          "velocity": 0.6771653543307087
        },
        {
          "duration": 0.04513884374999577,
          "durationTicks": 13,
          "midi": 60,
          "name": "C4",
          "ticks": 22464,
          "time": 77.999922,
          "velocity": 0.6771653543307087
        },
        {
          "duration": 0.04513884374999577,
          "durationTicks": 13,
          "midi": 62,
          "name": "D4",
          "ticks": 22469,
          "time": 78.01728309375,
          "velocity": 0.6771653543307087
        },
        {
          "duration": 0.04513884374999577,
          "durationTicks": 13,
          "midi": 60,
          "name": "C4",
          "ticks": 22512,
          "time": 78.1665885,
          "velocity": 0.6771653543307087
        },
        {
          "duration": 0.04513884374999577,
          "durationTicks": 13,
          "midi": 62,
          "name": "D4",
          "ticks": 22517,
          "time": 78.18394959375,
          "velocity": 0.6771653543307087
        },
        {
          "duration": 0.04513884374999577,
          "durationTicks": 13,
          "midi": 60,
          "name": "C4",
          "ticks": 22560,
          "time": 78.333255,
          "velocity": 0.6771653543307087
        },
        {
          "duration": 0.04513884374999577,
          "durationTicks": 13,
          "midi": 62,
          "name": "D4",
          "ticks": 22565,
          "time": 78.35061609375,
          "velocity": 0.6771653543307087
        },
        {
          "duration": 0.04513884374999577,
          "durationTicks": 13,
          "midi": 60,
          "name": "C4",
          "ticks": 22584,
          "time": 78.41658825,
          "velocity": 0.6771653543307087
        },
        {
          "duration": 0.04513884374999577,
          "durationTicks": 13,
          "midi": 62,
          "name": "D4",
          "ticks": 22589,
          "time": 78.43394934375,
          "velocity": 0.6771653543307087
        },
        {
          "duration": 0.04513884374999577,
          "durationTicks": 13,
          "midi": 60,
          "name": "C4",
          "ticks": 22608,
          "time": 78.4999215,
          "velocity": 0.6771653543307087
        },
        {
          "duration": 0.04513884374999577,
          "durationTicks": 13,
          "midi": 62,
          "name": "D4",
          "ticks": 22613,
          "time": 78.51728259375,
          "velocity": 0.6771653543307087
        },
        {
          "duration": 0.4201384687499967,
          "durationTicks": 121,
          "midi": 57,
          "name": "A3",
          "ticks": 22656,
          "time": 78.666588,
          "velocity": 0.6771653543307087
        },
        {
          "duration": 0.4201384687499967,
          "durationTicks": 121,
          "midi": 60,
          "name": "C4",
          "ticks": 22661,
          "time": 78.68394909375,
          "velocity": 0.6771653543307087
        },
        {
          "duration": 0.4201384687499967,
          "durationTicks": 121,
          "midi": 65,
          "name": "F4",
          "ticks": 22664,
          "time": 78.69436575,
          "velocity": 0.6141732283464567
        },
        {
          "duration": 0.4201384687499967,
          "durationTicks": 121,
          "midi": 59,
          "name": "B3",
          "ticks": 22848,
          "time": 79.333254,
          "velocity": 0.6141732283464567
        },
        {
          "duration": 0.4201384687499967,
          "durationTicks": 121,
          "midi": 62,
          "name": "D4",
          "ticks": 22853,
          "time": 79.35061509375,
          "velocity": 0.6771653543307087
        },
        {
          "duration": 0.4201384687499967,
          "durationTicks": 121,
          "midi": 67,
          "name": "G4",
          "ticks": 22856,
          "time": 79.36103175,
          "velocity": 0.6141732283464567
        },
        {
          "duration": 0.06249993749999305,
          "durationTicks": 18,
          "midi": 44,
          "name": "G#2",
          "ticks": 23520,
          "time": 81.666585,
          "velocity": 0.5826771653543307
        },
        {
          "duration": 0.06249993749999305,
          "durationTicks": 18,
          "midi": 56,
          "name": "G#3",
          "ticks": 23520,
          "time": 81.666585,
          "velocity": 0.5826771653543307
        },
        {
          "duration": 0.46874953124999763,
          "durationTicks": 135,
          "midi": 45,
          "name": "A2",
          "ticks": 23529,
          "time": 81.69783496875,
          "velocity": 0.5826771653543307
        },
        {
          "duration": 0.46874953124999763,
          "durationTicks": 135,
          "midi": 57,
          "name": "A3",
          "ticks": 23529,
          "time": 81.69783496875,
          "velocity": 0.5826771653543307
        },
        {
          "duration": 0.09722212500000182,
          "durationTicks": 28,
          "midi": 32,
          "name": "G#1",
          "ticks": 23664,
          "time": 82.1665845,
          "velocity": 0.5826771653543307
        },
        {
          "duration": 0.09722212500000182,
          "durationTicks": 28,
          "midi": 44,
          "name": "G#2",
          "ticks": 23664,
          "time": 82.1665845,
          "velocity": 0.5826771653543307
        },
        {
          "duration": 0.41319403125000065,
          "durationTicks": 119,
          "midi": 33,
          "name": "A1",
          "ticks": 23676,
          "time": 82.208251125,
          "velocity": 0.5826771653543307
        },
        {
          "duration": 0.41319403125000065,
          "durationTicks": 119,
          "midi": 45,
          "name": "A2",
          "ticks": 23676,
          "time": 82.208251125,
          "velocity": 0.5826771653543307
        },
        {
          "duration": 0.16319428125000002,
          "durationTicks": 47,
          "midi": 40,
          "name": "E2",
          "ticks": 24288,
          "time": 84.333249,
          "velocity": 0.5826771653543307
        },
        {
          "duration": 0.16319428125000002,
          "durationTicks": 47,
          "midi": 42,
          "name": "F#2",
          "ticks": 24336,
          "time": 84.4999155,
          "velocity": 0.5826771653543307
        },
        {
          "duration": 0.11111100000000818,
          "durationTicks": 32,
          "midi": 36,
          "name": "C2",
          "ticks": 24384,
          "time": 84.66658199999999,
          "velocity": 0.5826771653543307
        },
        {
          "duration": 0.28819415625000033,
          "durationTicks": 83,
          "midi": 37,
          "name": "C#2",
          "ticks": 24396,
          "time": 84.708248625,
          "velocity": 0.5826771653543307
        },
        {
          "duration": 0.16319428125000002,
          "durationTicks": 47,
          "midi": 35,
          "name": "B1",
          "ticks": 24480,
          "time": 84.999915,
          "velocity": 0.5826771653543307
        },
        {
          "duration": 0.16319428125001423,
          "durationTicks": 47,
          "midi": 33,
          "name": "A1",
          "ticks": 24528,
          "time": 85.16658149999999,
          "velocity": 0.5826771653543307
        },
        {
          "duration": 0.06249993750000726,
          "durationTicks": 18,
          "midi": 44,
          "name": "G#2",
          "ticks": 25056,
          "time": 86.99991299999999,
          "velocity": 0.5826771653543307
        },
        {
          "duration": 0.06249993750000726,
          "durationTicks": 18,
          "midi": 56,
          "name": "G#3",
          "ticks": 25056,
          "time": 86.99991299999999,
          "velocity": 0.5826771653543307
        },
        {
          "duration": 0.39583293750000337,
          "durationTicks": 114,
          "midi": 45,
          "name": "A2",
          "ticks": 25064,
          "time": 87.02769074999999,
          "velocity": 0.5826771653543307
        },
        {
          "duration": 0.39583293750000337,
          "durationTicks": 114,
          "midi": 57,
          "name": "A3",
          "ticks": 25064,
          "time": 87.02769074999999,
          "velocity": 0.5826771653543307
        },
        {
          "duration": 0.07986103125000454,
          "durationTicks": 23,
          "midi": 32,
          "name": "G#1",
          "ticks": 25200,
          "time": 87.4999125,
          "velocity": 0.5826771653543307
        },
        {
          "duration": 0.07986103125000454,
          "durationTicks": 23,
          "midi": 44,
          "name": "G#2",
          "ticks": 25200,
          "time": 87.4999125,
          "velocity": 0.5826771653543307
        },
        {
          "duration": 0.4548606562499913,
          "durationTicks": 131,
          "midi": 33,
          "name": "A1",
          "ticks": 25212,
          "time": 87.541579125,
          "velocity": 0.5826771653543307
        },
        {
          "duration": 0.4548606562499913,
          "durationTicks": 131,
          "midi": 45,
          "name": "A2",
          "ticks": 25212,
          "time": 87.541579125,
          "velocity": 0.5826771653543307
        },
        {
          "duration": 0.06944437499998912,
          "durationTicks": 20,
          "midi": 56,
          "name": "G#3",
          "ticks": 34656,
          "time": 120.333213,
          "velocity": 0.5433070866141733
        },
        {
          "duration": 0.04513884374998156,
          "durationTicks": 13,
          "midi": 57,
          "name": "A3",
          "ticks": 34663,
          "time": 120.35751853125001,
          "velocity": 0.5039370078740157
        },
        {
          "duration": 0.04513884375000998,
          "durationTicks": 13,
          "midi": 57,
          "name": "A3",
          "ticks": 34680,
          "time": 120.41654625,
          "velocity": 0.4645669291338583
        },
        {
          "duration": 0.04513884374999577,
          "durationTicks": 13,
          "midi": 56,
          "name": "G#3",
          "ticks": 34688,
          "time": 120.444324,
          "velocity": 0.4409448818897638
        },
        {
          "duration": 0.04513884374998156,
          "durationTicks": 13,
          "midi": 55,
          "name": "G3",
          "ticks": 34696,
          "time": 120.47210175000001,
          "velocity": 0.4251968503937008
        },
        {
          "duration": 0.04513884375000998,
          "durationTicks": 13,
          "midi": 54,
          "name": "F#3",
          "ticks": 34704,
          "time": 120.49987949999999,
          "velocity": 0.4015748031496063
        },
        {
          "duration": 0.04513884375000998,
          "durationTicks": 13,
          "midi": 53,
          "name": "F3",
          "ticks": 34712,
          "time": 120.52765724999999,
          "velocity": 0.3858267716535433
        },
        {
          "duration": 0.04513884374998156,
          "durationTicks": 13,
          "midi": 52,
          "name": "E3",
          "ticks": 34720,
          "time": 120.555435,
          "velocity": 0.36220472440944884
        },
        {
          "duration": 0.04513884374998156,
          "durationTicks": 13,
          "midi": 51,
          "name": "D#3",
          "ticks": 34720,
          "time": 120.555435,
          "velocity": 0.36220472440944884
        },
        {
          "duration": 0.04513884374999577,
          "durationTicks": 13,
          "midi": 50,
          "name": "D3",
          "ticks": 34728,
          "time": 120.58321275,
          "velocity": 0.3464566929133858
        },
        {
          "duration": 0.04513884375000998,
          "durationTicks": 13,
          "midi": 49,
          "name": "C#3",
          "ticks": 34736,
          "time": 120.61099049999999,
          "velocity": 0.3228346456692913
        },
        {
          "duration": 0.2673608437499979,
          "durationTicks": 77,
          "midi": 76,
          "name": "E5",
          "ticks": 36096,
          "time": 125.333208,
          "velocity": 0.7716535433070866
        },
        {
          "duration": 0.2673608437499979,
          "durationTicks": 77,
          "midi": 64,
          "name": "E4",
          "ticks": 36096,
          "time": 125.333208,
          "velocity": 0.7716535433070866
        },
        {
          "duration": 0.2673608437499979,
          "durationTicks": 77,
          "midi": 71,
          "name": "B4",
          "ticks": 36096,
          "time": 125.333208,
          "velocity": 0.7716535433070866
        },
        {
          "duration": 0.16666650000000516,
          "durationTicks": 48,
          "midi": 57,
          "name": "A3",
          "ticks": 36192,
          "time": 125.666541,
          "velocity": 0.7165354330708661
        },
        {
          "duration": 0.1527776249999988,
          "durationTicks": 44,
          "midi": 64,
          "name": "E4",
          "ticks": 36196,
          "time": 125.680429875,
          "velocity": 0.6535433070866141
        },
        {
          "duration": 0.14583318750000274,
          "durationTicks": 42,
          "midi": 68,
          "name": "G#4",
          "ticks": 36198,
          "time": 125.6873743125,
          "velocity": 0.6692913385826772
        },
        {
          "duration": 0.13888875000000667,
          "durationTicks": 40,
          "midi": 71,
          "name": "B4",
          "ticks": 36200,
          "time": 125.69431875,
          "velocity": 0.6535433070866141
        },
        {
          "duration": 0.16666650000000516,
          "durationTicks": 48,
          "midi": 57,
          "name": "A3",
          "ticks": 36288,
          "time": 125.99987399999999,
          "velocity": 0.7007874015748031
        },
        {
          "duration": 0.1527776249999988,
          "durationTicks": 44,
          "midi": 64,
          "name": "E4",
          "ticks": 36292,
          "time": 126.013762875,
          "velocity": 0.6929133858267716
        },
        {
          "duration": 0.14583318750000274,
          "durationTicks": 42,
          "midi": 68,
          "name": "G#4",
          "ticks": 36294,
          "time": 126.0207073125,
          "velocity": 0.6614173228346457
        },
        {
          "duration": 0.13888875000000667,
          "durationTicks": 40,
          "midi": 71,
          "name": "B4",
          "ticks": 36296,
          "time": 126.02765174999999,
          "velocity": 0.7165354330708661
        },
        {
          "duration": 0.16666650000000516,
          "durationTicks": 48,
          "midi": 57,
          "name": "A3",
          "ticks": 36336,
          "time": 126.1665405,
          "velocity": 0.7086614173228346
        },
        {
          "duration": 0.1527776249999988,
          "durationTicks": 44,
          "midi": 64,
          "name": "E4",
          "ticks": 36340,
          "time": 126.180429375,
          "velocity": 0.6692913385826772
        },
        {
          "duration": 0.14583318750000274,
          "durationTicks": 42,
          "midi": 68,
          "name": "G#4",
          "ticks": 36342,
          "time": 126.1873738125,
          "velocity": 0.7086614173228346
        },
        {
          "duration": 0.13888875000000667,
          "durationTicks": 40,
          "midi": 71,
          "name": "B4",
          "ticks": 36344,
          "time": 126.19431825,
          "velocity": 0.6377952755905512
        },
        {
          "duration": 0.16666650000000516,
          "durationTicks": 48,
          "midi": 57,
          "name": "A3",
          "ticks": 36432,
          "time": 126.49987349999999,
          "velocity": 0.6771653543307087
        },
        {
          "duration": 0.1527776249999988,
          "durationTicks": 44,
          "midi": 64,
          "name": "E4",
          "ticks": 36436,
          "time": 126.513762375,
          "velocity": 0.6535433070866141
        },
        {
          "duration": 0.14583318750000274,
          "durationTicks": 42,
          "midi": 68,
          "name": "G#4",
          "ticks": 36438,
          "time": 126.5207068125,
          "velocity": 0.7007874015748031
        },
        {
          "duration": 0.13888875000000667,
          "durationTicks": 40,
          "midi": 71,
          "name": "B4",
          "ticks": 36440,
          "time": 126.52765124999999,
          "velocity": 0.7086614173228346
        },
        {
          "duration": 0.16666649999999095,
          "durationTicks": 48,
          "midi": 57,
          "name": "A3",
          "ticks": 36528,
          "time": 126.8332065,
          "velocity": 0.7086614173228346
        },
        {
          "duration": 0.1527776249999846,
          "durationTicks": 44,
          "midi": 64,
          "name": "E4",
          "ticks": 36532,
          "time": 126.84709537500001,
          "velocity": 0.6614173228346457
        },
        {
          "duration": 0.14583318750000274,
          "durationTicks": 42,
          "midi": 68,
          "name": "G#4",
          "ticks": 36534,
          "time": 126.85403981249999,
          "velocity": 0.6456692913385826
        },
        {
          "duration": 0.13888875000000667,
          "durationTicks": 40,
          "midi": 71,
          "name": "B4",
          "ticks": 36536,
          "time": 126.86098424999999,
          "velocity": 0.6614173228346457
        },
        {
          "duration": 0.16666649999999095,
          "durationTicks": 48,
          "midi": 57,
          "name": "A3",
          "ticks": 36624,
          "time": 127.1665395,
          "velocity": 0.7165354330708661
        },
        {
          "duration": 0.1527776249999846,
          "durationTicks": 44,
          "midi": 64,
          "name": "E4",
          "ticks": 36628,
          "time": 127.180428375,
          "velocity": 0.6850393700787402
        },
        {
          "duration": 0.14583318749998853,
          "durationTicks": 42,
          "midi": 68,
          "name": "G#4",
          "ticks": 36630,
          "time": 127.1873728125,
          "velocity": 0.6377952755905512
        },
        {
          "duration": 0.13888875000000667,
          "durationTicks": 40,
          "midi": 71,
          "name": "B4",
          "ticks": 36632,
          "time": 127.19431724999998,
          "velocity": 0.7086614173228346
        },
        {
          "duration": 0.3333330000000103,
          "durationTicks": 96,
          "midi": 57,
          "name": "A3",
          "ticks": 36672,
          "time": 127.33320599999999,
          "velocity": 0.6929133858267716
        },
        {
          "duration": 0.31944412500000396,
          "durationTicks": 92,
          "midi": 64,
          "name": "E4",
          "ticks": 36676,
          "time": 127.347094875,
          "velocity": 0.6692913385826772
        },
        {
          "duration": 0.3124996875000079,
          "durationTicks": 90,
          "midi": 68,
          "name": "G#4",
          "ticks": 36678,
          "time": 127.35403931249999,
          "velocity": 0.6929133858267716
        },
        {
          "duration": 0.3055552500000118,
          "durationTicks": 88,
          "midi": 71,
          "name": "B4",
          "ticks": 36680,
          "time": 127.36098374999999,
          "velocity": 0.6850393700787402
        },
        {
          "duration": 0.18402759374998823,
          "durationTicks": 53,
          "midi": 71,
          "name": "B4",
          "ticks": 36768,
          "time": 127.666539,
          "velocity": 0.6377952755905512
        },
        {
          "duration": 0.18402759374998823,
          "durationTicks": 53,
          "midi": 83,
          "name": "B5",
          "ticks": 36768,
          "time": 127.666539,
          "velocity": 0.6377952755905512
        },
        {
          "duration": 0.017361093750025702,
          "durationTicks": 5,
          "midi": 82,
          "name": "A#5",
          "ticks": 36773,
          "time": 127.68390009374998,
          "velocity": 0.6377952755905512
        },
        {
          "duration": 0.017361093750025702,
          "durationTicks": 5,
          "midi": 70,
          "name": "A#4",
          "ticks": 36773,
          "time": 127.68390009374998,
          "velocity": 0.6377952755905512
        },
        {
          "duration": 0.01736109374998307,
          "durationTicks": 5,
          "midi": 81,
          "name": "A5",
          "ticks": 36778,
          "time": 127.70126118750001,
          "velocity": 0.6377952755905512
        },
        {
          "duration": 0.01736109374998307,
          "durationTicks": 5,
          "midi": 69,
          "name": "A4",
          "ticks": 36778,
          "time": 127.70126118750001,
          "velocity": 0.6377952755905512
        },
        {
          "duration": 0.01736109374999728,
          "durationTicks": 5,
          "midi": 80,
          "name": "G#5",
          "ticks": 36783,
          "time": 127.71862228124999,
          "velocity": 0.6377952755905512
        },
        {
          "duration": 0.01736109374999728,
          "durationTicks": 5,
          "midi": 68,
          "name": "G#4",
          "ticks": 36783,
          "time": 127.71862228124999,
          "velocity": 0.6377952755905512
        },
        {
          "duration": 0.01736109375001149,
          "durationTicks": 5,
          "midi": 67,
          "name": "G4",
          "ticks": 36788,
          "time": 127.73598337499999,
          "velocity": 0.6377952755905512
        },
        {
          "duration": 0.01736109375001149,
          "durationTicks": 5,
          "midi": 79,
          "name": "G5",
          "ticks": 36788,
          "time": 127.73598337499999,
          "velocity": 0.6377952755905512
        },
        {
          "duration": 0.01736109374999728,
          "durationTicks": 5,
          "midi": 66,
          "name": "F#4",
          "ticks": 36793,
          "time": 127.75334446875,
          "velocity": 0.6377952755905512
        },
        {
          "duration": 0.01736109374999728,
          "durationTicks": 5,
          "midi": 78,
          "name": "F#5",
          "ticks": 36793,
          "time": 127.75334446875,
          "velocity": 0.6377952755905512
        },
        {
          "duration": 0.01736109374999728,
          "durationTicks": 5,
          "midi": 65,
          "name": "F4",
          "ticks": 36798,
          "time": 127.7707055625,
          "velocity": 0.6377952755905512
        },
        {
          "duration": 0.01736109374999728,
          "durationTicks": 5,
          "midi": 77,
          "name": "F5",
          "ticks": 36798,
          "time": 127.7707055625,
          "velocity": 0.6377952755905512
        },
        {
          "duration": 0.01736109375001149,
          "durationTicks": 5,
          "midi": 64,
          "name": "E4",
          "ticks": 36803,
          "time": 127.78806665625,
          "velocity": 0.6377952755905512
        },
        {
          "duration": 0.01736109375001149,
          "durationTicks": 5,
          "midi": 76,
          "name": "E5",
          "ticks": 36803,
          "time": 127.78806665625,
          "velocity": 0.6377952755905512
        },
        {
          "duration": 0.2673608437499837,
          "durationTicks": 77,
          "midi": 76,
          "name": "E5",
          "ticks": 36864,
          "time": 127.999872,
          "velocity": 0.7165354330708661
        },
        {
          "duration": 0.2673608437499837,
          "durationTicks": 77,
          "midi": 64,
          "name": "E4",
          "ticks": 36864,
          "time": 127.999872,
          "velocity": 0.7165354330708661
        },
        {
          "duration": 0.2673608437499837,
          "durationTicks": 77,
          "midi": 71,
          "name": "B4",
          "ticks": 36864,
          "time": 127.999872,
          "velocity": 0.7165354330708661
        },
        {
          "duration": 0.16666649999999095,
          "durationTicks": 48,
          "midi": 59,
          "name": "B3",
          "ticks": 36960,
          "time": 128.333205,
          "velocity": 0.6929133858267716
        },
        {
          "duration": 0.15277762499997039,
          "durationTicks": 44,
          "midi": 64,
          "name": "E4",
          "ticks": 36964,
          "time": 128.347093875,
          "velocity": 0.6456692913385826
        },
        {
          "duration": 0.14583318749998853,
          "durationTicks": 42,
          "midi": 68,
          "name": "G#4",
          "ticks": 36966,
          "time": 128.3540383125,
          "velocity": 0.6535433070866141
        },
        {
          "duration": 0.13888875000000667,
          "durationTicks": 40,
          "midi": 71,
          "name": "B4",
          "ticks": 36968,
          "time": 128.36098274999998,
          "velocity": 0.6456692913385826
        },
        {
          "duration": 0.16666649999999095,
          "durationTicks": 48,
          "midi": 59,
          "name": "B3",
          "ticks": 37056,
          "time": 128.666538,
          "velocity": 0.7086614173228346
        },
        {
          "duration": 0.1527776249999988,
          "durationTicks": 44,
          "midi": 64,
          "name": "E4",
          "ticks": 37060,
          "time": 128.680426875,
          "velocity": 0.6850393700787402
        },
        {
          "duration": 0.14583318749998853,
          "durationTicks": 42,
          "midi": 68,
          "name": "G#4",
          "ticks": 37062,
          "time": 128.6873713125,
          "velocity": 0.6929133858267716
        },
        {
          "duration": 0.13888875000000667,
          "durationTicks": 40,
          "midi": 71,
          "name": "B4",
          "ticks": 37064,
          "time": 128.69431575,
          "velocity": 0.6850393700787402
        },
        {
          "duration": 0.16666649999999095,
          "durationTicks": 48,
          "midi": 59,
          "name": "B3",
          "ticks": 37104,
          "time": 128.8332045,
          "velocity": 0.6929133858267716
        },
        {
          "duration": 0.15277762499997039,
          "durationTicks": 44,
          "midi": 64,
          "name": "E4",
          "ticks": 37108,
          "time": 128.84709337500001,
          "velocity": 0.6535433070866141
        },
        {
          "duration": 0.14583318749998853,
          "durationTicks": 42,
          "midi": 68,
          "name": "G#4",
          "ticks": 37110,
          "time": 128.8540378125,
          "velocity": 0.7086614173228346
        },
        {
          "duration": 0.13888875000000667,
          "durationTicks": 40,
          "midi": 71,
          "name": "B4",
          "ticks": 37112,
          "time": 128.86098224999998,
          "velocity": 0.6850393700787402
        },
        {
          "duration": 0.16666649999999095,
          "durationTicks": 48,
          "midi": 59,
          "name": "B3",
          "ticks": 37200,
          "time": 129.1665375,
          "velocity": 0.6850393700787402
        },
        {
          "duration": 0.1527776249999988,
          "durationTicks": 44,
          "midi": 64,
          "name": "E4",
          "ticks": 37204,
          "time": 129.180426375,
          "velocity": 0.6456692913385826
        },
        {
          "duration": 0.14583318749998853,
          "durationTicks": 42,
          "midi": 68,
          "name": "G#4",
          "ticks": 37206,
          "time": 129.1873708125,
          "velocity": 0.6929133858267716
        },
        {
          "duration": 0.13888875000000667,
          "durationTicks": 40,
          "midi": 71,
          "name": "B4",
          "ticks": 37208,
          "time": 129.19431525,
          "velocity": 0.6771653543307087
        },
        {
          "duration": 0.16666650000001937,
          "durationTicks": 48,
          "midi": 59,
          "name": "B3",
          "ticks": 37296,
          "time": 129.4998705,
          "velocity": 0.6692913385826772
        },
        {
          "duration": 0.1527776249999988,
          "durationTicks": 44,
          "midi": 64,
          "name": "E4",
          "ticks": 37300,
          "time": 129.513759375,
          "velocity": 0.6692913385826772
        },
        {
          "duration": 0.14583318750001695,
          "durationTicks": 42,
          "midi": 68,
          "name": "G#4",
          "ticks": 37302,
          "time": 129.5207038125,
          "velocity": 0.6535433070866141
        },
        {
          "duration": 0.13888875000000667,
          "durationTicks": 40,
          "midi": 71,
          "name": "B4",
          "ticks": 37304,
          "time": 129.52764825,
          "velocity": 0.6535433070866141
        },
        {
          "duration": 0.16666649999999095,
          "durationTicks": 48,
          "midi": 59,
          "name": "B3",
          "ticks": 37392,
          "time": 129.8332035,
          "velocity": 0.7165354330708661
        },
        {
          "duration": 0.15277762499997039,
          "durationTicks": 44,
          "midi": 64,
          "name": "E4",
          "ticks": 37396,
          "time": 129.84709237500002,
          "velocity": 0.7086614173228346
        },
        {
          "duration": 0.14583318749998853,
          "durationTicks": 42,
          "midi": 68,
          "name": "G#4",
          "ticks": 37398,
          "time": 129.8540368125,
          "velocity": 0.6456692913385826
        },
        {
          "duration": 0.13888875000000667,
          "durationTicks": 40,
          "midi": 71,
          "name": "B4",
          "ticks": 37400,
          "time": 129.86098124999998,
          "velocity": 0.6771653543307087
        },
        {
          "duration": 0.3333330000000103,
          "durationTicks": 96,
          "midi": 59,
          "name": "B3",
          "ticks": 37440,
          "time": 129.99987,
          "velocity": 0.6929133858267716
        },
        {
          "duration": 0.31944412499998975,
          "durationTicks": 92,
          "midi": 64,
          "name": "E4",
          "ticks": 37444,
          "time": 130.013758875,
          "velocity": 0.6377952755905512
        },
        {
          "duration": 0.3124996875000079,
          "durationTicks": 90,
          "midi": 68,
          "name": "G#4",
          "ticks": 37446,
          "time": 130.0207033125,
          "velocity": 0.6929133858267716
        },
        {
          "duration": 0.3055552499999976,
          "durationTicks": 88,
          "midi": 71,
          "name": "B4",
          "ticks": 37448,
          "time": 130.02764775,
          "velocity": 0.6456692913385826
        },
        {
          "duration": 0.18402759374998823,
          "durationTicks": 53,
          "midi": 81,
          "name": "A5",
          "ticks": 37536,
          "time": 130.333203,
          "velocity": 0.6377952755905512
        },
        {
          "duration": 0.18402759374998823,
          "durationTicks": 53,
          "midi": 69,
          "name": "A4",
          "ticks": 37536,
          "time": 130.333203,
          "velocity": 0.6377952755905512
        },
        {
          "duration": 0.01736109374999728,
          "durationTicks": 5,
          "midi": 68,
          "name": "G#4",
          "ticks": 37541,
          "time": 130.35056409375,
          "velocity": 0.6377952755905512
        },
        {
          "duration": 0.01736109374999728,
          "durationTicks": 5,
          "midi": 80,
          "name": "G#5",
          "ticks": 37541,
          "time": 130.35056409375,
          "velocity": 0.6377952755905512
        },
        {
          "duration": 0.01736109374999728,
          "durationTicks": 5,
          "midi": 67,
          "name": "G4",
          "ticks": 37546,
          "time": 130.3679251875,
          "velocity": 0.6377952755905512
        },
        {
          "duration": 0.01736109374999728,
          "durationTicks": 5,
          "midi": 79,
          "name": "G5",
          "ticks": 37546,
          "time": 130.3679251875,
          "velocity": 0.6377952755905512
        },
        {
          "duration": 0.01736109374999728,
          "durationTicks": 5,
          "midi": 78,
          "name": "F#5",
          "ticks": 37551,
          "time": 130.38528628125,
          "velocity": 0.6377952755905512
        },
        {
          "duration": 0.01736109374999728,
          "durationTicks": 5,
          "midi": 66,
          "name": "F#4",
          "ticks": 37551,
          "time": 130.38528628125,
          "velocity": 0.6377952755905512
        },
        {
          "duration": 0.017361093750025702,
          "durationTicks": 5,
          "midi": 77,
          "name": "F5",
          "ticks": 37556,
          "time": 130.402647375,
          "velocity": 0.6377952755905512
        },
        {
          "duration": 0.017361093750025702,
          "durationTicks": 5,
          "midi": 65,
          "name": "F4",
          "ticks": 37556,
          "time": 130.402647375,
          "velocity": 0.6377952755905512
        },
        {
          "duration": 0.01736109374999728,
          "durationTicks": 5,
          "midi": 76,
          "name": "E5",
          "ticks": 37561,
          "time": 130.42000846875,
          "velocity": 0.6377952755905512
        },
        {
          "duration": 0.01736109374999728,
          "durationTicks": 5,
          "midi": 64,
          "name": "E4",
          "ticks": 37561,
          "time": 130.42000846875,
          "velocity": 0.6377952755905512
        },
        {
          "duration": 0.01736109374996886,
          "durationTicks": 5,
          "midi": 75,
          "name": "D#5",
          "ticks": 37566,
          "time": 130.4373695625,
          "velocity": 0.6377952755905512
        },
        {
          "duration": 0.01736109374996886,
          "durationTicks": 5,
          "midi": 63,
          "name": "D#4",
          "ticks": 37566,
          "time": 130.4373695625,
          "velocity": 0.6377952755905512
        },
        {
          "duration": 0.017361093750025702,
          "durationTicks": 5,
          "midi": 62,
          "name": "D4",
          "ticks": 37571,
          "time": 130.45473065624998,
          "velocity": 0.6377952755905512
        },
        {
          "duration": 0.017361093750025702,
          "durationTicks": 5,
          "midi": 74,
          "name": "D5",
          "ticks": 37571,
          "time": 130.45473065624998,
          "velocity": 0.6377952755905512
        },
        {
          "duration": 0.2673608437499695,
          "durationTicks": 77,
          "midi": 74,
          "name": "D5",
          "ticks": 37632,
          "time": 130.666536,
          "velocity": 0.7165354330708661
        },
        {
          "duration": 0.2673608437499695,
          "durationTicks": 77,
          "midi": 62,
          "name": "D4",
          "ticks": 37632,
          "time": 130.666536,
          "velocity": 0.7165354330708661
        },
        {
          "duration": 0.2673608437499695,
          "durationTicks": 77,
          "midi": 69,
          "name": "A4",
          "ticks": 37632,
          "time": 130.666536,
          "velocity": 0.7165354330708661
        },
        {
          "duration": 0.16666650000001937,
          "durationTicks": 48,
          "midi": 57,
          "name": "A3",
          "ticks": 37728,
          "time": 130.999869,
          "velocity": 0.6377952755905512
        },
        {
          "duration": 0.1527776249999988,
          "durationTicks": 44,
          "midi": 62,
          "name": "D4",
          "ticks": 37732,
          "time": 131.013757875,
          "velocity": 0.6377952755905512
        },
        {
          "duration": 0.14583318750001695,
          "durationTicks": 42,
          "midi": 66,
          "name": "F#4",
          "ticks": 37734,
          "time": 131.0207023125,
          "velocity": 0.6614173228346457
        },
        {
          "duration": 0.13888875000000667,
          "durationTicks": 40,
          "midi": 69,
          "name": "A4",
          "ticks": 37736,
          "time": 131.02764675,
          "velocity": 0.6929133858267716
        },
        {
          "duration": 0.16666649999999095,
          "durationTicks": 48,
          "midi": 57,
          "name": "A3",
          "ticks": 37824,
          "time": 131.333202,
          "velocity": 0.6377952755905512
        },
        {
          "duration": 0.1527776249999988,
          "durationTicks": 44,
          "midi": 62,
          "name": "D4",
          "ticks": 37828,
          "time": 131.347090875,
          "velocity": 0.6614173228346457
        },
        {
          "duration": 0.14583318749998853,
          "durationTicks": 42,
          "midi": 66,
          "name": "F#4",
          "ticks": 37830,
          "time": 131.3540353125,
          "velocity": 0.6771653543307087
        },
        {
          "duration": 0.13888875000000667,
          "durationTicks": 40,
          "midi": 69,
          "name": "A4",
          "ticks": 37832,
          "time": 131.36097974999998,
          "velocity": 0.6377952755905512
        },
        {
          "duration": 0.16666650000001937,
          "durationTicks": 48,
          "midi": 57,
          "name": "A3",
          "ticks": 37872,
          "time": 131.4998685,
          "velocity": 0.6456692913385826
        },
        {
          "duration": 0.1527776249999988,
          "durationTicks": 44,
          "midi": 62,
          "name": "D4",
          "ticks": 37876,
          "time": 131.513757375,
          "velocity": 0.7086614173228346
        },
        {
          "duration": 0.14583318750001695,
          "durationTicks": 42,
          "midi": 66,
          "name": "F#4",
          "ticks": 37878,
          "time": 131.5207018125,
          "velocity": 0.6535433070866141
        },
        {
          "duration": 0.13888875000000667,
          "durationTicks": 40,
          "midi": 69,
          "name": "A4",
          "ticks": 37880,
          "time": 131.52764625,
          "velocity": 0.6692913385826772
        },
        {
          "duration": 0.16666649999999095,
          "durationTicks": 48,
          "midi": 57,
          "name": "A3",
          "ticks": 37968,
          "time": 131.8332015,
          "velocity": 0.6692913385826772
        },
        {
          "duration": 0.1527776249999988,
          "durationTicks": 44,
          "midi": 62,
          "name": "D4",
          "ticks": 37972,
          "time": 131.847090375,
          "velocity": 0.6377952755905512
        },
        {
          "duration": 0.14583318749998853,
          "durationTicks": 42,
          "midi": 66,
          "name": "F#4",
          "ticks": 37974,
          "time": 131.8540348125,
          "velocity": 0.6850393700787402
        },
        {
          "duration": 0.13888875000000667,
          "durationTicks": 40,
          "midi": 69,
          "name": "A4",
          "ticks": 37976,
          "time": 131.86097924999999,
          "velocity": 0.7086614173228346
        },
        {
          "duration": 0.16666650000001937,
          "durationTicks": 48,
          "midi": 57,
          "name": "A3",
          "ticks": 38064,
          "time": 132.16653449999998,
          "velocity": 0.6692913385826772
        },
        {
          "duration": 0.1527776249999988,
          "durationTicks": 44,
          "midi": 62,
          "name": "D4",
          "ticks": 38068,
          "time": 132.180423375,
          "velocity": 0.6456692913385826
        },
        {
          "duration": 0.14583318750001695,
          "durationTicks": 42,
          "midi": 66,
          "name": "F#4",
          "ticks": 38070,
          "time": 132.18736781249999,
          "velocity": 0.6377952755905512
        },
        {
          "duration": 0.13888875000000667,
          "durationTicks": 40,
          "midi": 69,
          "name": "A4",
          "ticks": 38072,
          "time": 132.19431225,
          "velocity": 0.6377952755905512
        },
        {
          "duration": 0.16666649999999095,
          "durationTicks": 48,
          "midi": 57,
          "name": "A3",
          "ticks": 38160,
          "time": 132.4998675,
          "velocity": 0.6535433070866141
        },
        {
          "duration": 0.15277762499997039,
          "durationTicks": 44,
          "midi": 62,
          "name": "D4",
          "ticks": 38164,
          "time": 132.513756375,
          "velocity": 0.6456692913385826
        },
        {
          "duration": 0.14583318749998853,
          "durationTicks": 42,
          "midi": 66,
          "name": "F#4",
          "ticks": 38166,
          "time": 132.5207008125,
          "velocity": 0.6692913385826772
        },
        {
          "duration": 0.13888875000000667,
          "durationTicks": 40,
          "midi": 69,
          "name": "A4",
          "ticks": 38168,
          "time": 132.52764524999998,
          "velocity": 0.6614173228346457
        },
        {
          "duration": 0.3333330000000103,
          "durationTicks": 96,
          "midi": 57,
          "name": "A3",
          "ticks": 38208,
          "time": 132.66653399999998,
          "velocity": 0.7086614173228346
        },
        {
          "duration": 0.31944412499998975,
          "durationTicks": 92,
          "midi": 62,
          "name": "D4",
          "ticks": 38212,
          "time": 132.680422875,
          "velocity": 0.6929133858267716
        },
        {
          "duration": 0.3124996875000079,
          "durationTicks": 90,
          "midi": 66,
          "name": "F#4",
          "ticks": 38214,
          "time": 132.6873673125,
          "velocity": 0.6929133858267716
        },
        {
          "duration": 0.3055552499999976,
          "durationTicks": 88,
          "midi": 69,
          "name": "A4",
          "ticks": 38216,
          "time": 132.69431175,
          "velocity": 0.6377952755905512
        },
        {
          "duration": 0.18402759374998823,
          "durationTicks": 53,
          "midi": 81,
          "name": "A5",
          "ticks": 38304,
          "time": 132.999867,
          "velocity": 0.6377952755905512
        },
        {
          "duration": 0.18402759374998823,
          "durationTicks": 53,
          "midi": 69,
          "name": "A4",
          "ticks": 38304,
          "time": 132.999867,
          "velocity": 0.6377952755905512
        },
        {
          "duration": 0.01736109374999728,
          "durationTicks": 5,
          "midi": 68,
          "name": "G#4",
          "ticks": 38309,
          "time": 133.01722809375,
          "velocity": 0.6377952755905512
        },
        {
          "duration": 0.01736109374999728,
          "durationTicks": 5,
          "midi": 80,
          "name": "G#5",
          "ticks": 38309,
          "time": 133.01722809375,
          "velocity": 0.6377952755905512
        },
        {
          "duration": 0.01736109374999728,
          "durationTicks": 5,
          "midi": 79,
          "name": "G5",
          "ticks": 38314,
          "time": 133.0345891875,
          "velocity": 0.6377952755905512
        },
        {
          "duration": 0.01736109374999728,
          "durationTicks": 5,
          "midi": 67,
          "name": "G4",
          "ticks": 38314,
          "time": 133.0345891875,
          "velocity": 0.6377952755905512
        },
        {
          "duration": 0.01736109374999728,
          "durationTicks": 5,
          "midi": 78,
          "name": "F#5",
          "ticks": 38319,
          "time": 133.05195028125,
          "velocity": 0.6377952755905512
        },
        {
          "duration": 0.01736109374999728,
          "durationTicks": 5,
          "midi": 66,
          "name": "F#4",
          "ticks": 38319,
          "time": 133.05195028125,
          "velocity": 0.6377952755905512
        },
        {
          "duration": 0.017361093750025702,
          "durationTicks": 5,
          "midi": 77,
          "name": "F5",
          "ticks": 38324,
          "time": 133.06931137499998,
          "velocity": 0.6377952755905512
        },
        {
          "duration": 0.017361093750025702,
          "durationTicks": 5,
          "midi": 65,
          "name": "F4",
          "ticks": 38324,
          "time": 133.06931137499998,
          "velocity": 0.6377952755905512
        },
        {
          "duration": 0.01736109374999728,
          "durationTicks": 5,
          "midi": 64,
          "name": "E4",
          "ticks": 38329,
          "time": 133.08667246875,
          "velocity": 0.6377952755905512
        },
        {
          "duration": 0.01736109374999728,
          "durationTicks": 5,
          "midi": 76,
          "name": "E5",
          "ticks": 38329,
          "time": 133.08667246875,
          "velocity": 0.6377952755905512
        },
        {
          "duration": 0.01736109374996886,
          "durationTicks": 5,
          "midi": 63,
          "name": "D#4",
          "ticks": 38334,
          "time": 133.1040335625,
          "velocity": 0.6377952755905512
        },
        {
          "duration": 0.01736109374996886,
          "durationTicks": 5,
          "midi": 75,
          "name": "D#5",
          "ticks": 38334,
          "time": 133.1040335625,
          "velocity": 0.6377952755905512
        },
        {
          "duration": 0.017361093750025702,
          "durationTicks": 5,
          "midi": 62,
          "name": "D4",
          "ticks": 38339,
          "time": 133.12139465624998,
          "velocity": 0.6377952755905512
        },
        {
          "duration": 0.017361093750025702,
          "durationTicks": 5,
          "midi": 74,
          "name": "D5",
          "ticks": 38339,
          "time": 133.12139465624998,
          "velocity": 0.6377952755905512
        },
        {
          "duration": 0.2673608437499979,
          "durationTicks": 77,
          "midi": 65,
          "name": "F4",
          "ticks": 38400,
          "time": 133.3332,
          "velocity": 0.7165354330708661
        },
        {
          "duration": 0.2673608437499979,
          "durationTicks": 77,
          "midi": 77,
          "name": "F5",
          "ticks": 38400,
          "time": 133.3332,
          "velocity": 0.7165354330708661
        },
        {
          "duration": 0.2673608437499979,
          "durationTicks": 77,
          "midi": 74,
          "name": "D5",
          "ticks": 38400,
          "time": 133.3332,
          "velocity": 0.7165354330708661
        },
        {
          "duration": 0.16666650000001937,
          "durationTicks": 48,
          "midi": 57,
          "name": "A3",
          "ticks": 38496,
          "time": 133.666533,
          "velocity": 0.7716535433070866
        },
        {
          "duration": 0.1527776249999988,
          "durationTicks": 44,
          "midi": 62,
          "name": "D4",
          "ticks": 38500,
          "time": 133.680421875,
          "velocity": 0.7716535433070866
        },
        {
          "duration": 0.14583318750001695,
          "durationTicks": 42,
          "midi": 65,
          "name": "F4",
          "ticks": 38502,
          "time": 133.6873663125,
          "velocity": 0.7716535433070866
        },
        {
          "duration": 0.13888875000000667,
          "durationTicks": 40,
          "midi": 69,
          "name": "A4",
          "ticks": 38504,
          "time": 133.69431075,
          "velocity": 0.7716535433070866
        },
        {
          "duration": 0.16666649999999095,
          "durationTicks": 48,
          "midi": 57,
          "name": "A3",
          "ticks": 38592,
          "time": 133.999866,
          "velocity": 0.7716535433070866
        },
        {
          "duration": 0.1527776249999988,
          "durationTicks": 44,
          "midi": 62,
          "name": "D4",
          "ticks": 38596,
          "time": 134.013754875,
          "velocity": 0.7716535433070866
        },
        {
          "duration": 0.14583318749998853,
          "durationTicks": 42,
          "midi": 65,
          "name": "F4",
          "ticks": 38598,
          "time": 134.0206993125,
          "velocity": 0.7716535433070866
        },
        {
          "duration": 0.13888875000000667,
          "durationTicks": 40,
          "midi": 69,
          "name": "A4",
          "ticks": 38600,
          "time": 134.02764374999998,
          "velocity": 0.7716535433070866
        },
        {
          "duration": 0.16666649999999095,
          "durationTicks": 48,
          "midi": 57,
          "name": "A3",
          "ticks": 38688,
          "time": 134.333199,
          "velocity": 0.7716535433070866
        },
        {
          "duration": 0.1527776249999988,
          "durationTicks": 44,
          "midi": 62,
          "name": "D4",
          "ticks": 38692,
          "time": 134.347087875,
          "velocity": 0.7716535433070866
        },
        {
          "duration": 0.14583318749998853,
          "durationTicks": 42,
          "midi": 65,
          "name": "F4",
          "ticks": 38694,
          "time": 134.3540323125,
          "velocity": 0.7716535433070866
        },
        {
          "duration": 0.4166662499999916,
          "durationTicks": 120,
          "midi": 57,
          "name": "A3",
          "ticks": 38736,
          "time": 134.4998655,
          "velocity": 0.7716535433070866
        },
        {
          "duration": 0.40277737499999944,
          "durationTicks": 116,
          "midi": 62,
          "name": "D4",
          "ticks": 38740,
          "time": 134.513754375,
          "velocity": 0.7716535433070866
        },
        {
          "duration": 0.39583293749998916,
          "durationTicks": 114,
          "midi": 65,
          "name": "F4",
          "ticks": 38742,
          "time": 134.5206988125,
          "velocity": 0.7716535433070866
        },
        {
          "duration": 0.7638881250000225,
          "durationTicks": 220,
          "midi": 69,
          "name": "A4",
          "ticks": 38744,
          "time": 134.52764324999998,
          "velocity": 0.7716535433070866
        },
        {
          "duration": 0.08333325000000968,
          "durationTicks": 24,
          "midi": 50,
          "name": "D3",
          "ticks": 38880,
          "time": 134.999865,
          "velocity": 0.6377952755905512
        },
        {
          "duration": 0.08333325000000968,
          "durationTicks": 24,
          "midi": 57,
          "name": "A3",
          "ticks": 38880,
          "time": 134.999865,
          "velocity": 0.6377952755905512
        },
        {
          "duration": 0.08333325000000968,
          "durationTicks": 24,
          "midi": 57,
          "name": "A3",
          "ticks": 38928,
          "time": 135.1665315,
          "velocity": 0.6377952755905512
        },
        {
          "duration": 0.08333325000000968,
          "durationTicks": 24,
          "midi": 65,
          "name": "F4",
          "ticks": 38928,
          "time": 135.1665315,
          "velocity": 0.6377952755905512
        },
        {
          "duration": 0.08333325000000968,
          "durationTicks": 24,
          "midi": 62,
          "name": "D4",
          "ticks": 38928,
          "time": 135.1665315,
          "velocity": 0.6377952755905512
        },
        {
          "duration": 0.18402759374998823,
          "durationTicks": 53,
          "midi": 71,
          "name": "B4",
          "ticks": 39072,
          "time": 135.666531,
          "velocity": 0.6377952755905512
        },
        {
          "duration": 0.18402759374998823,
          "durationTicks": 53,
          "midi": 83,
          "name": "B5",
          "ticks": 39072,
          "time": 135.666531,
          "velocity": 0.6377952755905512
        },
        {
          "duration": 0.017361093750025702,
          "durationTicks": 5,
          "midi": 70,
          "name": "A#4",
          "ticks": 39077,
          "time": 135.68389209375,
          "velocity": 0.6377952755905512
        },
        {
          "duration": 0.017361093750025702,
          "durationTicks": 5,
          "midi": 82,
          "name": "A#5",
          "ticks": 39077,
          "time": 135.68389209375,
          "velocity": 0.6377952755905512
        },
        {
          "duration": 0.01736109374996886,
          "durationTicks": 5,
          "midi": 69,
          "name": "A4",
          "ticks": 39082,
          "time": 135.70125318750001,
          "velocity": 0.6377952755905512
        },
        {
          "duration": 0.01736109374996886,
          "durationTicks": 5,
          "midi": 81,
          "name": "A5",
          "ticks": 39082,
          "time": 135.70125318750001,
          "velocity": 0.6377952755905512
        },
        {
          "duration": 0.01736109374999728,
          "durationTicks": 5,
          "midi": 68,
          "name": "G#4",
          "ticks": 39087,
          "time": 135.71861428124998,
          "velocity": 0.6377952755905512
        },
        {
          "duration": 0.01736109374999728,
          "durationTicks": 5,
          "midi": 80,
          "name": "G#5",
          "ticks": 39087,
          "time": 135.71861428124998,
          "velocity": 0.6377952755905512
        },
        {
          "duration": 0.017361093750025702,
          "durationTicks": 5,
          "midi": 79,
          "name": "G5",
          "ticks": 39092,
          "time": 135.73597537499998,
          "velocity": 0.6377952755905512
        },
        {
          "duration": 0.017361093750025702,
          "durationTicks": 5,
          "midi": 67,
          "name": "G4",
          "ticks": 39092,
          "time": 135.73597537499998,
          "velocity": 0.6377952755905512
        },
        {
          "duration": 0.01736109374999728,
          "durationTicks": 5,
          "midi": 78,
          "name": "F#5",
          "ticks": 39097,
          "time": 135.75333646875,
          "velocity": 0.6377952755905512
        },
        {
          "duration": 0.01736109374999728,
          "durationTicks": 5,
          "midi": 66,
          "name": "F#4",
          "ticks": 39097,
          "time": 135.75333646875,
          "velocity": 0.6377952755905512
        },
        {
          "duration": 0.01736109374999728,
          "durationTicks": 5,
          "midi": 77,
          "name": "F5",
          "ticks": 39102,
          "time": 135.7706975625,
          "velocity": 0.6377952755905512
        },
        {
          "duration": 0.01736109374999728,
          "durationTicks": 5,
          "midi": 65,
          "name": "F4",
          "ticks": 39102,
          "time": 135.7706975625,
          "velocity": 0.6377952755905512
        },
        {
          "duration": 0.01736109374999728,
          "durationTicks": 5,
          "midi": 76,
          "name": "E5",
          "ticks": 39107,
          "time": 135.78805865625,
          "velocity": 0.6377952755905512
        },
        {
          "duration": 0.01736109374999728,
          "durationTicks": 5,
          "midi": 64,
          "name": "E4",
          "ticks": 39107,
          "time": 135.78805865625,
          "velocity": 0.6377952755905512
        },
        {
          "duration": 0.2673608437499979,
          "durationTicks": 77,
          "midi": 76,
          "name": "E5",
          "ticks": 39168,
          "time": 135.999864,
          "velocity": 0.7165354330708661
        },
        {
          "duration": 0.2673608437499979,
          "durationTicks": 77,
          "midi": 64,
          "name": "E4",
          "ticks": 39168,
          "time": 135.999864,
          "velocity": 0.7165354330708661
        },
        {
          "duration": 0.2673608437499979,
          "durationTicks": 77,
          "midi": 71,
          "name": "B4",
          "ticks": 39168,
          "time": 135.999864,
          "velocity": 0.7165354330708661
        },
        {
          "duration": 0.16666650000001937,
          "durationTicks": 48,
          "midi": 57,
          "name": "A3",
          "ticks": 39264,
          "time": 136.33319699999998,
          "velocity": 0.6850393700787402
        },
        {
          "duration": 0.1527776249999988,
          "durationTicks": 44,
          "midi": 64,
          "name": "E4",
          "ticks": 39268,
          "time": 136.347085875,
          "velocity": 0.6535433070866141
        },
        {
          "duration": 0.14583318750001695,
          "durationTicks": 42,
          "midi": 68,
          "name": "G#4",
          "ticks": 39270,
          "time": 136.3540303125,
          "velocity": 0.6535433070866141
        },
        {
          "duration": 0.13888875000000667,
          "durationTicks": 40,
          "midi": 71,
          "name": "B4",
          "ticks": 39272,
          "time": 136.36097475,
          "velocity": 0.6692913385826772
        },
        {
          "duration": 0.16666649999999095,
          "durationTicks": 48,
          "midi": 57,
          "name": "A3",
          "ticks": 39360,
          "time": 136.66653,
          "velocity": 0.7086614173228346
        },
        {
          "duration": 0.15277762499997039,
          "durationTicks": 44,
          "midi": 64,
          "name": "E4",
          "ticks": 39364,
          "time": 136.68041887500002,
          "velocity": 0.6692913385826772
        },
        {
          "duration": 0.14583318749998853,
          "durationTicks": 42,
          "midi": 68,
          "name": "G#4",
          "ticks": 39366,
          "time": 136.6873633125,
          "velocity": 0.7086614173228346
        },
        {
          "duration": 0.13888875000000667,
          "durationTicks": 40,
          "midi": 71,
          "name": "B4",
          "ticks": 39368,
          "time": 136.69430774999998,
          "velocity": 0.6456692913385826
        },
        {
          "duration": 0.16666650000001937,
          "durationTicks": 48,
          "midi": 57,
          "name": "A3",
          "ticks": 39408,
          "time": 136.83319649999999,
          "velocity": 0.6377952755905512
        },
        {
          "duration": 0.1527776249999988,
          "durationTicks": 44,
          "midi": 64,
          "name": "E4",
          "ticks": 39412,
          "time": 136.847085375,
          "velocity": 0.6850393700787402
        },
        {
          "duration": 0.14583318750001695,
          "durationTicks": 42,
          "midi": 68,
          "name": "G#4",
          "ticks": 39414,
          "time": 136.8540298125,
          "velocity": 0.6771653543307087
        },
        {
          "duration": 0.13888875000000667,
          "durationTicks": 40,
          "midi": 71,
          "name": "B4",
          "ticks": 39416,
          "time": 136.86097425,
          "velocity": 0.6771653543307087
        },
        {
          "duration": 0.16666649999999095,
          "durationTicks": 48,
          "midi": 57,
          "name": "A3",
          "ticks": 39504,
          "time": 137.1665295,
          "velocity": 0.6771653543307087
        },
        {
          "duration": 0.15277762499997039,
          "durationTicks": 44,
          "midi": 64,
          "name": "E4",
          "ticks": 39508,
          "time": 137.18041837500002,
          "velocity": 0.7086614173228346
        },
        {
          "duration": 0.14583318749998853,
          "durationTicks": 42,
          "midi": 68,
          "name": "G#4",
          "ticks": 39510,
          "time": 137.1873628125,
          "velocity": 0.7165354330708661
        },
        {
          "duration": 0.13888875000000667,
          "durationTicks": 40,
          "midi": 71,
          "name": "B4",
          "ticks": 39512,
          "time": 137.19430724999998,
          "velocity": 0.6614173228346457
        },
        {
          "duration": 0.16666649999999095,
          "durationTicks": 48,
          "midi": 57,
          "name": "A3",
          "ticks": 39600,
          "time": 137.4998625,
          "velocity": 0.6929133858267716
        },
        {
          "duration": 0.1527776249999988,
          "durationTicks": 44,
          "midi": 64,
          "name": "E4",
          "ticks": 39604,
          "time": 137.513751375,
          "velocity": 0.6535433070866141
        },
        {
          "duration": 0.14583318749998853,
          "durationTicks": 42,
          "midi": 68,
          "name": "G#4",
          "ticks": 39606,
          "time": 137.5206958125,
          "velocity": 0.6535433070866141
        },
        {
          "duration": 0.13888875000000667,
          "durationTicks": 40,
          "midi": 71,
          "name": "B4",
          "ticks": 39608,
          "time": 137.52764025,
          "velocity": 0.7007874015748031
        },
        {
          "duration": 0.16666650000001937,
          "durationTicks": 48,
          "midi": 57,
          "name": "A3",
          "ticks": 39696,
          "time": 137.8331955,
          "velocity": 0.7165354330708661
        },
        {
          "duration": 0.1527776249999988,
          "durationTicks": 44,
          "midi": 64,
          "name": "E4",
          "ticks": 39700,
          "time": 137.847084375,
          "velocity": 0.6929133858267716
        },
        {
          "duration": 0.14583318750001695,
          "durationTicks": 42,
          "midi": 68,
          "name": "G#4",
          "ticks": 39702,
          "time": 137.8540288125,
          "velocity": 0.7086614173228346
        },
        {
          "duration": 0.13888875000000667,
          "durationTicks": 40,
          "midi": 71,
          "name": "B4",
          "ticks": 39704,
          "time": 137.86097325,
          "velocity": 0.6692913385826772
        },
        {
          "duration": 0.3333329999999819,
          "durationTicks": 96,
          "midi": 57,
          "name": "A3",
          "ticks": 39744,
          "time": 137.999862,
          "velocity": 0.6456692913385826
        },
        {
          "duration": 0.31944412499998975,
          "durationTicks": 92,
          "midi": 64,
          "name": "E4",
          "ticks": 39748,
          "time": 138.013750875,
          "velocity": 0.6377952755905512
        },
        {
          "duration": 0.3124996874999795,
          "durationTicks": 90,
          "midi": 68,
          "name": "G#4",
          "ticks": 39750,
          "time": 138.0206953125,
          "velocity": 0.6377952755905512
        },
        {
          "duration": 0.3055552499999976,
          "durationTicks": 88,
          "midi": 71,
          "name": "B4",
          "ticks": 39752,
          "time": 138.02763975,
          "velocity": 0.7086614173228346
        },
        {
          "duration": 0.18402759374998823,
          "durationTicks": 53,
          "midi": 83,
          "name": "B5",
          "ticks": 39840,
          "time": 138.333195,
          "velocity": 0.6377952755905512
        },
        {
          "duration": 0.18402759374998823,
          "durationTicks": 53,
          "midi": 71,
          "name": "B4",
          "ticks": 39840,
          "time": 138.333195,
          "velocity": 0.6377952755905512
        },
        {
          "duration": 0.017361093750025702,
          "durationTicks": 5,
          "midi": 82,
          "name": "A#5",
          "ticks": 39845,
          "time": 138.35055609375,
          "velocity": 0.6377952755905512
        },
        {
          "duration": 0.017361093750025702,
          "durationTicks": 5,
          "midi": 70,
          "name": "A#4",
          "ticks": 39845,
          "time": 138.35055609375,
          "velocity": 0.6377952755905512
        },
        {
          "duration": 0.01736109374999728,
          "durationTicks": 5,
          "midi": 81,
          "name": "A5",
          "ticks": 39850,
          "time": 138.3679171875,
          "velocity": 0.6377952755905512
        },
        {
          "duration": 0.01736109374999728,
          "durationTicks": 5,
          "midi": 69,
          "name": "A4",
          "ticks": 39850,
          "time": 138.3679171875,
          "velocity": 0.6377952755905512
        },
        {
          "duration": 0.01736109374996886,
          "durationTicks": 5,
          "midi": 80,
          "name": "G#5",
          "ticks": 39855,
          "time": 138.38527828125,
          "velocity": 0.6377952755905512
        },
        {
          "duration": 0.01736109374996886,
          "durationTicks": 5,
          "midi": 68,
          "name": "G#4",
          "ticks": 39855,
          "time": 138.38527828125,
          "velocity": 0.6377952755905512
        },
        {
          "duration": 0.017361093750025702,
          "durationTicks": 5,
          "midi": 79,
          "name": "G5",
          "ticks": 39860,
          "time": 138.40263937499998,
          "velocity": 0.6377952755905512
        },
        {
          "duration": 0.017361093750025702,
          "durationTicks": 5,
          "midi": 67,
          "name": "G4",
          "ticks": 39860,
          "time": 138.40263937499998,
          "velocity": 0.6377952755905512
        },
        {
          "duration": 0.01736109374999728,
          "durationTicks": 5,
          "midi": 66,
          "name": "F#4",
          "ticks": 39865,
          "time": 138.42000046875,
          "velocity": 0.6377952755905512
        },
        {
          "duration": 0.01736109374999728,
          "durationTicks": 5,
          "midi": 78,
          "name": "F#5",
          "ticks": 39865,
          "time": 138.42000046875,
          "velocity": 0.6377952755905512
        },
        {
          "duration": 0.01736109374999728,
          "durationTicks": 5,
          "midi": 65,
          "name": "F4",
          "ticks": 39870,
          "time": 138.4373615625,
          "velocity": 0.6377952755905512
        },
        {
          "duration": 0.01736109374999728,
          "durationTicks": 5,
          "midi": 77,
          "name": "F5",
          "ticks": 39870,
          "time": 138.4373615625,
          "velocity": 0.6377952755905512
        },
        {
          "duration": 0.01736109374999728,
          "durationTicks": 5,
          "midi": 64,
          "name": "E4",
          "ticks": 39875,
          "time": 138.45472265625,
          "velocity": 0.6377952755905512
        },
        {
          "duration": 0.01736109374999728,
          "durationTicks": 5,
          "midi": 76,
          "name": "E5",
          "ticks": 39875,
          "time": 138.45472265625,
          "velocity": 0.6377952755905512
        },
        {
          "duration": 0.2673608437499979,
          "durationTicks": 77,
          "midi": 71,
          "name": "B4",
          "ticks": 39936,
          "time": 138.666528,
          "velocity": 0.7165354330708661
        },
        {
          "duration": 0.2673608437499979,
          "durationTicks": 77,
          "midi": 64,
          "name": "E4",
          "ticks": 39936,
          "time": 138.666528,
          "velocity": 0.7165354330708661
        },
        {
          "duration": 0.2673608437499979,
          "durationTicks": 77,
          "midi": 76,
          "name": "E5",
          "ticks": 39936,
          "time": 138.666528,
          "velocity": 0.7165354330708661
        },
        {
          "duration": 0.16666649999999095,
          "durationTicks": 48,
          "midi": 59,
          "name": "B3",
          "ticks": 40032,
          "time": 138.999861,
          "velocity": 0.6771653543307087
        },
        {
          "duration": 0.1527776249999988,
          "durationTicks": 44,
          "midi": 64,
          "name": "E4",
          "ticks": 40036,
          "time": 139.013749875,
          "velocity": 0.6850393700787402
        },
        {
          "duration": 0.14583318750001695,
          "durationTicks": 42,
          "midi": 68,
          "name": "G#4",
          "ticks": 40038,
          "time": 139.02069431249998,
          "velocity": 0.7086614173228346
        },
        {
          "duration": 0.13888875000000667,
          "durationTicks": 40,
          "midi": 71,
          "name": "B4",
          "ticks": 40040,
          "time": 139.02763875,
          "velocity": 0.6535433070866141
        },
        {
          "duration": 0.16666649999999095,
          "durationTicks": 48,
          "midi": 59,
          "name": "B3",
          "ticks": 40128,
          "time": 139.333194,
          "velocity": 0.7007874015748031
        },
        {
          "duration": 0.15277762499997039,
          "durationTicks": 44,
          "midi": 64,
          "name": "E4",
          "ticks": 40132,
          "time": 139.347082875,
          "velocity": 0.7007874015748031
        },
        {
          "duration": 0.14583318749998853,
          "durationTicks": 42,
          "midi": 68,
          "name": "G#4",
          "ticks": 40134,
          "time": 139.3540273125,
          "velocity": 0.6771653543307087
        },
        {
          "duration": 0.13888875000000667,
          "durationTicks": 40,
          "midi": 71,
          "name": "B4",
          "ticks": 40136,
          "time": 139.36097174999998,
          "velocity": 0.7165354330708661
        },
        {
          "duration": 0.16666650000001937,
          "durationTicks": 48,
          "midi": 59,
          "name": "B3",
          "ticks": 40176,
          "time": 139.49986049999998,
          "velocity": 0.7007874015748031
        },
        {
          "duration": 0.1527776249999988,
          "durationTicks": 44,
          "midi": 64,
          "name": "E4",
          "ticks": 40180,
          "time": 139.513749375,
          "velocity": 0.6456692913385826
        },
        {
          "duration": 0.14583318750001695,
          "durationTicks": 42,
          "midi": 68,
          "name": "G#4",
          "ticks": 40182,
          "time": 139.52069381249999,
          "velocity": 0.7007874015748031
        },
        {
          "duration": 0.13888875000000667,
          "durationTicks": 40,
          "midi": 71,
          "name": "B4",
          "ticks": 40184,
          "time": 139.52763825,
          "velocity": 0.6456692913385826
        },
        {
          "duration": 0.16666649999999095,
          "durationTicks": 48,
          "midi": 59,
          "name": "B3",
          "ticks": 40272,
          "time": 139.8331935,
          "velocity": 0.7086614173228346
        },
        {
          "duration": 0.15277762499997039,
          "durationTicks": 44,
          "midi": 64,
          "name": "E4",
          "ticks": 40276,
          "time": 139.847082375,
          "velocity": 0.6692913385826772
        },
        {
          "duration": 0.14583318749998853,
          "durationTicks": 42,
          "midi": 68,
          "name": "G#4",
          "ticks": 40278,
          "time": 139.8540268125,
          "velocity": 0.6377952755905512
        },
        {
          "duration": 0.13888875000000667,
          "durationTicks": 40,
          "midi": 71,
          "name": "B4",
          "ticks": 40280,
          "time": 139.86097124999998,
          "velocity": 0.6850393700787402
        },
        {
          "duration": 0.16666649999999095,
          "durationTicks": 48,
          "midi": 59,
          "name": "B3",
          "ticks": 40368,
          "time": 140.1665265,
          "velocity": 0.6614173228346457
        },
        {
          "duration": 0.1527776249999988,
          "durationTicks": 44,
          "midi": 64,
          "name": "E4",
          "ticks": 40372,
          "time": 140.180415375,
          "velocity": 0.6692913385826772
        },
        {
          "duration": 0.14583318749998853,
          "durationTicks": 42,
          "midi": 68,
          "name": "G#4",
          "ticks": 40374,
          "time": 140.1873598125,
          "velocity": 0.7086614173228346
        },
        {
          "duration": 0.13888875000000667,
          "durationTicks": 40,
          "midi": 71,
          "name": "B4",
          "ticks": 40376,
          "time": 140.19430425,
          "velocity": 0.6850393700787402
        },
        {
          "duration": 0.16666650000001937,
          "durationTicks": 48,
          "midi": 59,
          "name": "B3",
          "ticks": 40464,
          "time": 140.49985949999999,
          "velocity": 0.7165354330708661
        },
        {
          "duration": 0.1527776249999988,
          "durationTicks": 44,
          "midi": 64,
          "name": "E4",
          "ticks": 40468,
          "time": 140.513748375,
          "velocity": 0.6850393700787402
        },
        {
          "duration": 0.14583318750001695,
          "durationTicks": 42,
          "midi": 68,
          "name": "G#4",
          "ticks": 40470,
          "time": 140.5206928125,
          "velocity": 0.6614173228346457
        },
        {
          "duration": 0.13888875000000667,
          "durationTicks": 40,
          "midi": 71,
          "name": "B4",
          "ticks": 40472,
          "time": 140.52763725,
          "velocity": 0.6377952755905512
        }
      ],
      "endOfTrackTicks": 45698
    },
    {
      "channel": 11,
      "controlChanges": {
        "6": [
          {
            "number": 6,
            "ticks": 0,
            "time": 0,
            "value": 0.09448818897637795
          },
          {
            "number": 6,
            "ticks": 0,
            "time": 0,
            "value": 0.09448818897637795
          },
          {
            "number": 6,
            "ticks": 0,
            "time": 0,
            "value": 0.09448818897637795
          },
          {
            "number": 6,
            "ticks": 45696,
            "time": 158.666508,
            "value": 0.09448818897637795
          },
          {
            "number": 6,
            "ticks": 45698,
            "time": 158.67345243749998,
            "value": 0.09448818897637795
          }
        ],
        "7": [
          {
            "number": 7,
            "ticks": 0,
            "time": 0,
            "value": 0.7874015748031497
          },
          {
            "number": 7,
            "ticks": 0,
            "time": 0,
            "value": 0.7874015748031497
          },
          {
            "number": 7,
            "ticks": 0,
            "time": 0,
            "value": 0.7874015748031497
          },
          {
            "number": 7,
            "ticks": 0,
            "time": 0,
            "value": 0.7874015748031497
          },
          {
            "number": 7,
            "ticks": 45696,
            "time": 158.666508,
            "value": 0.7874015748031497
          },
          {
            "number": 7,
            "ticks": 45698,
            "time": 158.67345243749998,
            "value": 0.7874015748031497
          }
        ],
        "10": [
          {
            "number": 10,
            "ticks": 0,
            "time": 0,
            "value": 0.5039370078740157
          },
          {
            "number": 10,
            "ticks": 0,
            "time": 0,
            "value": 0.5039370078740157
          },
          {
            "number": 10,
            "ticks": 0,
            "time": 0,
            "value": 0.5039370078740157
          },
          {
            "number": 10,
            "ticks": 0,
            "time": 0,
            "value": 0.5039370078740157
          },
          {
            "number": 10,
            "ticks": 45696,
            "time": 158.666508,
            "value": 0.5039370078740157
          },
          {
            "number": 10,
            "ticks": 45698,
            "time": 158.67345243749998,
            "value": 0.5039370078740157
          }
        ],
        "100": [
          {
            "number": 100,
            "ticks": 0,
            "time": 0,
            "value": 0
          },
          {
            "number": 100,
            "ticks": 0,
            "time": 0,
            "value": 0
          },
          {
            "number": 100,
            "ticks": 0,
            "time": 0,
            "value": 0
          },
          {
            "number": 100,
            "ticks": 45696,
            "time": 158.666508,
            "value": 0
          },
          {
            "number": 100,
            "ticks": 45698,
            "time": 158.67345243749998,
            "value": 0
          }
        ],
        "101": [
          {
            "number": 101,
            "ticks": 0,
            "time": 0,
            "value": 0
          },
          {
            "number": 101,
            "ticks": 0,
            "time": 0,
            "value": 0
          },
          {
            "number": 101,
            "ticks": 0,
            "time": 0,
            "value": 0
          },
          {
            "number": 101,
            "ticks": 45696,
            "time": 158.666508,
            "value": 0
          },
          {
            "number": 101,
            "ticks": 45698,
            "time": 158.67345243749998,
            "value": 0
          }
        ]
      },
      "pitchBends": [
        {
          "ticks": 0,
          "time": 0,
          "value": 0
        },
        {
          "ticks": 0,
          "time": 0,
          "value": 0
        },
        {
          "ticks": 0,
          "time": 0,
          "value": 0
        },
        {
          "ticks": 0,
          "time": 0,
          "value": 0
        },
        {
          "ticks": 45696,
          "time": 158.666508,
          "value": 0
        },
        {
          "ticks": 45698,
          "time": 158.67345243749998,
          "value": 0
        }
      ],
      "instrument": {
        "family": "piano",
        "number": 0,
        "name": "acoustic grand piano"
      },
      "name": "Fx",
      "notes": [
        {
          "duration": 0.027777749999999823,
          "durationTicks": 8,
          "midi": 52,
          "name": "E3",
          "ticks": 672,
          "time": 2.333331,
          "velocity": 0.6377952755905512
        },
        {
          "duration": 0.027777749999999823,
          "durationTicks": 8,
          "midi": 64,
          "name": "E4",
          "ticks": 672,
          "time": 2.333331,
          "velocity": 0.6377952755905512
        },
        {
          "duration": 0.027777749999999823,
          "durationTicks": 8,
          "midi": 40,
          "name": "E2",
          "ticks": 672,
          "time": 2.333331,
          "velocity": 0.6377952755905512
        },
        {
          "duration": 0.027777750000000268,
          "durationTicks": 8,
          "midi": 63,
          "name": "D#4",
          "ticks": 680,
          "time": 2.3611087499999996,
          "velocity": 0.5905511811023622
        },
        {
          "duration": 0.027777750000000268,
          "durationTicks": 8,
          "midi": 51,
          "name": "D#3",
          "ticks": 680,
          "time": 2.3611087499999996,
          "velocity": 0.5905511811023622
        },
        {
          "duration": 0.027777750000000268,
          "durationTicks": 8,
          "midi": 39,
          "name": "D#2",
          "ticks": 680,
          "time": 2.3611087499999996,
          "velocity": 0.5905511811023622
        },
        {
          "duration": 0.027777749999999823,
          "durationTicks": 8,
          "midi": 62,
          "name": "D4",
          "ticks": 688,
          "time": 2.3888865,
          "velocity": 0.5433070866141733
        },
        {
          "duration": 0.027777749999999823,
          "durationTicks": 8,
          "midi": 50,
          "name": "D3",
          "ticks": 688,
          "time": 2.3888865,
          "velocity": 0.5433070866141733
        },
        {
          "duration": 0.027777749999999823,
          "durationTicks": 8,
          "midi": 38,
          "name": "D2",
          "ticks": 688,
          "time": 2.3888865,
          "velocity": 0.5433070866141733
        },
        {
          "duration": 0.027777750000000268,
          "durationTicks": 8,
          "midi": 61,
          "name": "C#4",
          "ticks": 696,
          "time": 2.4166642499999997,
          "velocity": 0.4881889763779528
        },
        {
          "duration": 0.027777750000000268,
          "durationTicks": 8,
          "midi": 49,
          "name": "C#3",
          "ticks": 696,
          "time": 2.4166642499999997,
          "velocity": 0.4881889763779528
        },
        {
          "duration": 0.027777750000000268,
          "durationTicks": 8,
          "midi": 37,
          "name": "C#2",
          "ticks": 696,
          "time": 2.4166642499999997,
          "velocity": 0.4881889763779528
        },
        {
          "duration": 0.027777749999999823,
          "durationTicks": 8,
          "midi": 60,
          "name": "C4",
          "ticks": 704,
          "time": 2.444442,
          "velocity": 0.4409448818897638
        },
        {
          "duration": 0.027777749999999823,
          "durationTicks": 8,
          "midi": 48,
          "name": "C3",
          "ticks": 704,
          "time": 2.444442,
          "velocity": 0.4409448818897638
        },
        {
          "duration": 0.027777749999999823,
          "durationTicks": 8,
          "midi": 36,
          "name": "C2",
          "ticks": 704,
          "time": 2.444442,
          "velocity": 0.4409448818897638
        },
        {
          "duration": 0.027777750000000268,
          "durationTicks": 8,
          "midi": 59,
          "name": "B3",
          "ticks": 712,
          "time": 2.47221975,
          "velocity": 0.3858267716535433
        },
        {
          "duration": 0.027777750000000268,
          "durationTicks": 8,
          "midi": 47,
          "name": "B2",
          "ticks": 712,
          "time": 2.47221975,
          "velocity": 0.3858267716535433
        },
        {
          "duration": 0.027777750000000268,
          "durationTicks": 8,
          "midi": 35,
          "name": "B1",
          "ticks": 712,
          "time": 2.47221975,
          "velocity": 0.3858267716535433
        },
        {
          "duration": 0.027777749999999823,
          "durationTicks": 8,
          "midi": 58,
          "name": "A#3",
          "ticks": 720,
          "time": 2.4999975,
          "velocity": 0.33858267716535434
        },
        {
          "duration": 0.027777749999999823,
          "durationTicks": 8,
          "midi": 46,
          "name": "A#2",
          "ticks": 720,
          "time": 2.4999975,
          "velocity": 0.33858267716535434
        },
        {
          "duration": 0.027777749999999823,
          "durationTicks": 8,
          "midi": 34,
          "name": "A#1",
          "ticks": 720,
          "time": 2.4999975,
          "velocity": 0.33858267716535434
        },
        {
          "duration": 0.027777750000000268,
          "durationTicks": 8,
          "midi": 57,
          "name": "A3",
          "ticks": 728,
          "time": 2.52777525,
          "velocity": 0.29133858267716534
        },
        {
          "duration": 0.027777750000000268,
          "durationTicks": 8,
          "midi": 45,
          "name": "A2",
          "ticks": 728,
          "time": 2.52777525,
          "velocity": 0.29133858267716534
        },
        {
          "duration": 0.027777750000000268,
          "durationTicks": 8,
          "midi": 33,
          "name": "A1",
          "ticks": 728,
          "time": 2.52777525,
          "velocity": 0.29133858267716534
        },
        {
          "duration": 0.027777749999999823,
          "durationTicks": 8,
          "midi": 56,
          "name": "G#3",
          "ticks": 736,
          "time": 2.555553,
          "velocity": 0.23622047244094488
        },
        {
          "duration": 0.027777749999999823,
          "durationTicks": 8,
          "midi": 44,
          "name": "G#2",
          "ticks": 736,
          "time": 2.555553,
          "velocity": 0.23622047244094488
        },
        {
          "duration": 0.027777749999999823,
          "durationTicks": 8,
          "midi": 32,
          "name": "G#1",
          "ticks": 736,
          "time": 2.555553,
          "velocity": 0.23622047244094488
        },
        {
          "duration": 0.027777749999999823,
          "durationTicks": 8,
          "midi": 55,
          "name": "G3",
          "ticks": 744,
          "time": 2.58333075,
          "velocity": 0.1889763779527559
        },
        {
          "duration": 0.027777749999999823,
          "durationTicks": 8,
          "midi": 43,
          "name": "G2",
          "ticks": 744,
          "time": 2.58333075,
          "velocity": 0.1889763779527559
        },
        {
          "duration": 0.027777749999999823,
          "durationTicks": 8,
          "midi": 31,
          "name": "G1",
          "ticks": 744,
          "time": 2.58333075,
          "velocity": 0.1889763779527559
        },
        {
          "duration": 0.027777750000000268,
          "durationTicks": 8,
          "midi": 54,
          "name": "F#3",
          "ticks": 752,
          "time": 2.6111085,
          "velocity": 0.13385826771653545
        },
        {
          "duration": 0.027777750000000268,
          "durationTicks": 8,
          "midi": 42,
          "name": "F#2",
          "ticks": 752,
          "time": 2.6111085,
          "velocity": 0.13385826771653545
        },
        {
          "duration": 0.027777750000000268,
          "durationTicks": 8,
          "midi": 30,
          "name": "F#1",
          "ticks": 752,
          "time": 2.6111085,
          "velocity": 0.13385826771653545
        },
        {
          "duration": 0.027777749999999823,
          "durationTicks": 8,
          "midi": 29,
          "name": "F1",
          "ticks": 760,
          "time": 2.63888625,
          "velocity": 0.08661417322834646
        },
        {
          "duration": 0.027777749999999823,
          "durationTicks": 8,
          "midi": 53,
          "name": "F3",
          "ticks": 760,
          "time": 2.63888625,
          "velocity": 0.08661417322834646
        },
        {
          "duration": 0.027777749999999823,
          "durationTicks": 8,
          "midi": 41,
          "name": "F2",
          "ticks": 760,
          "time": 2.63888625,
          "velocity": 0.08661417322834646
        },
        {
          "duration": 0.08333324999999903,
          "durationTicks": 24,
          "midi": 76,
          "name": "E5",
          "ticks": 4032,
          "time": 13.999986,
          "velocity": 0.5511811023622047
        },
        {
          "duration": 0.08333324999999903,
          "durationTicks": 24,
          "midi": 69,
          "name": "A4",
          "ticks": 4032,
          "time": 13.999986,
          "velocity": 0.5511811023622047
        },
        {
          "duration": 0.020833312500000645,
          "durationTicks": 6,
          "midi": 75,
          "name": "D#5",
          "ticks": 4044,
          "time": 14.041652625,
          "velocity": 0.1968503937007874
        },
        {
          "duration": 0.020833312500000645,
          "durationTicks": 6,
          "midi": 68,
          "name": "G#4",
          "ticks": 4044,
          "time": 14.041652625,
          "velocity": 0.1968503937007874
        },
        {
          "duration": 0.02083331249999887,
          "durationTicks": 6,
          "midi": 67,
          "name": "G4",
          "ticks": 4050,
          "time": 14.0624859375,
          "velocity": 0.14960629921259844
        },
        {
          "duration": 0.02083331249999887,
          "durationTicks": 6,
          "midi": 74,
          "name": "D5",
          "ticks": 4050,
          "time": 14.0624859375,
          "velocity": 0.14960629921259844
        },
        {
          "duration": 0.024305531250000456,
          "durationTicks": 7,
          "midi": 73,
          "name": "C#5",
          "ticks": 4056,
          "time": 14.083319249999999,
          "velocity": 0.09448818897637795
        },
        {
          "duration": 0.024305531250000456,
          "durationTicks": 7,
          "midi": 66,
          "name": "F#4",
          "ticks": 4056,
          "time": 14.083319249999999,
          "velocity": 0.09448818897637795
        },
        {
          "duration": 0.02083331249999887,
          "durationTicks": 6,
          "midi": 65,
          "name": "F4",
          "ticks": 4063,
          "time": 14.10762478125,
          "velocity": 0.031496062992125984
        },
        {
          "duration": 0.02083331249999887,
          "durationTicks": 6,
          "midi": 72,
          "name": "C5",
          "ticks": 4063,
          "time": 14.10762478125,
          "velocity": 0.031496062992125984
        },
        {
          "duration": 0.4999994999999995,
          "durationTicks": 144,
          "midi": 43,
          "name": "G2",
          "ticks": 4368,
          "time": 15.1666515,
          "velocity": 0.5118110236220472
        },
        {
          "duration": 0.04166662499999951,
          "durationTicks": 12,
          "midi": 42,
          "name": "F#2",
          "ticks": 4380,
          "time": 15.208318125,
          "velocity": 0.3700787401574803
        },
        {
          "duration": 0.04166662499999951,
          "durationTicks": 12,
          "midi": 41,
          "name": "F2",
          "ticks": 4392,
          "time": 15.24998475,
          "velocity": 0.33070866141732286
        },
        {
          "duration": 0.04166662500000129,
          "durationTicks": 12,
          "midi": 40,
          "name": "E2",
          "ticks": 4404,
          "time": 15.291651374999999,
          "velocity": 0.2992125984251969
        },
        {
          "duration": 0.04166662499999951,
          "durationTicks": 12,
          "midi": 39,
          "name": "D#2",
          "ticks": 4416,
          "time": 15.333318,
          "velocity": 0.2677165354330709
        },
        {
          "duration": 0.04166662499999951,
          "durationTicks": 12,
          "midi": 38,
          "name": "D2",
          "ticks": 4428,
          "time": 15.374984625,
          "velocity": 0.2283464566929134
        },
        {
          "duration": 0.04166662499999951,
          "durationTicks": 12,
          "midi": 37,
          "name": "C#2",
          "ticks": 4440,
          "time": 15.41665125,
          "velocity": 0.1968503937007874
        },
        {
          "duration": 0.04166662500000129,
          "durationTicks": 12,
          "midi": 36,
          "name": "C2",
          "ticks": 4452,
          "time": 15.458317874999999,
          "velocity": 0.16535433070866143
        },
        {
          "duration": 0.04166662499999951,
          "durationTicks": 12,
          "midi": 35,
          "name": "B1",
          "ticks": 4464,
          "time": 15.4999845,
          "velocity": 0.12598425196850394
        },
        {
          "duration": 0.04166662499999951,
          "durationTicks": 12,
          "midi": 34,
          "name": "A#1",
          "ticks": 4476,
          "time": 15.541651125,
          "velocity": 0.09448818897637795
        },
        {
          "duration": 0.04166662500000129,
          "durationTicks": 12,
          "midi": 33,
          "name": "A1",
          "ticks": 4488,
          "time": 15.583317749999999,
          "velocity": 0.06299212598425197
        },
        {
          "duration": 0.04166662499999951,
          "durationTicks": 12,
          "midi": 32,
          "name": "G#1",
          "ticks": 4500,
          "time": 15.624984375,
          "velocity": 0.031496062992125984
        },
        {
          "duration": 0.08333325000000258,
          "durationTicks": 24,
          "midi": 69,
          "name": "A4",
          "ticks": 5568,
          "time": 19.333313999999998,
          "velocity": 0.5511811023622047
        },
        {
          "duration": 0.08333325000000258,
          "durationTicks": 24,
          "midi": 76,
          "name": "E5",
          "ticks": 5568,
          "time": 19.333313999999998,
          "velocity": 0.5511811023622047
        },
        {
          "duration": 0.02083331249999887,
          "durationTicks": 6,
          "midi": 68,
          "name": "G#4",
          "ticks": 5580,
          "time": 19.374980625,
          "velocity": 0.1968503937007874
        },
        {
          "duration": 0.02083331249999887,
          "durationTicks": 6,
          "midi": 75,
          "name": "D#5",
          "ticks": 5580,
          "time": 19.374980625,
          "velocity": 0.1968503937007874
        },
        {
          "duration": 0.02083331250000242,
          "durationTicks": 6,
          "midi": 67,
          "name": "G4",
          "ticks": 5586,
          "time": 19.395813937499998,
          "velocity": 0.14960629921259844
        },
        {
          "duration": 0.02083331250000242,
          "durationTicks": 6,
          "midi": 74,
          "name": "D5",
          "ticks": 5586,
          "time": 19.395813937499998,
          "velocity": 0.14960629921259844
        },
        {
          "duration": 0.024305531249996903,
          "durationTicks": 7,
          "midi": 66,
          "name": "F#4",
          "ticks": 5592,
          "time": 19.41664725,
          "velocity": 0.09448818897637795
        },
        {
          "duration": 0.024305531249996903,
          "durationTicks": 7,
          "midi": 73,
          "name": "C#5",
          "ticks": 5592,
          "time": 19.41664725,
          "velocity": 0.09448818897637795
        },
        {
          "duration": 0.02083331250000242,
          "durationTicks": 6,
          "midi": 65,
          "name": "F4",
          "ticks": 5599,
          "time": 19.440952781249997,
          "velocity": 0.031496062992125984
        },
        {
          "duration": 0.02083331250000242,
          "durationTicks": 6,
          "midi": 72,
          "name": "C5",
          "ticks": 5599,
          "time": 19.440952781249997,
          "velocity": 0.031496062992125984
        },
        {
          "duration": 0.41666625000000224,
          "durationTicks": 120,
          "midi": 43,
          "name": "G2",
          "ticks": 5904,
          "time": 20.4999795,
          "velocity": 0.5118110236220472
        },
        {
          "duration": 0.04166662500000129,
          "durationTicks": 12,
          "midi": 42,
          "name": "F#2",
          "ticks": 5916,
          "time": 20.541646125,
          "velocity": 0.3700787401574803
        },
        {
          "duration": 0.04166662499999774,
          "durationTicks": 12,
          "midi": 41,
          "name": "F2",
          "ticks": 5928,
          "time": 20.58331275,
          "velocity": 0.33070866141732286
        },
        {
          "duration": 0.04166662500000129,
          "durationTicks": 12,
          "midi": 40,
          "name": "E2",
          "ticks": 5940,
          "time": 20.624979375,
          "velocity": 0.2992125984251969
        },
        {
          "duration": 0.04166662499999774,
          "durationTicks": 12,
          "midi": 39,
          "name": "D#2",
          "ticks": 5952,
          "time": 20.666646,
          "velocity": 0.2677165354330709
        },
        {
          "duration": 0.04166662500000129,
          "durationTicks": 12,
          "midi": 38,
          "name": "D2",
          "ticks": 5964,
          "time": 20.708312624999998,
          "velocity": 0.2283464566929134
        },
        {
          "duration": 0.04166662500000129,
          "durationTicks": 12,
          "midi": 37,
          "name": "C#2",
          "ticks": 5976,
          "time": 20.74997925,
          "velocity": 0.1968503937007874
        },
        {
          "duration": 0.04166662499999774,
          "durationTicks": 12,
          "midi": 36,
          "name": "C2",
          "ticks": 5988,
          "time": 20.791645875,
          "velocity": 0.16535433070866143
        },
        {
          "duration": 0.04166662500000129,
          "durationTicks": 12,
          "midi": 35,
          "name": "B1",
          "ticks": 6000,
          "time": 20.833312499999998,
          "velocity": 0.12598425196850394
        },
        {
          "duration": 0.04166662500000129,
          "durationTicks": 12,
          "midi": 34,
          "name": "A#1",
          "ticks": 6012,
          "time": 20.874979125,
          "velocity": 0.09448818897637795
        },
        {
          "duration": 0.04166662499999774,
          "durationTicks": 12,
          "midi": 33,
          "name": "A1",
          "ticks": 6024,
          "time": 20.91664575,
          "velocity": 0.06299212598425197
        },
        {
          "duration": 0.04166662500000129,
          "durationTicks": 12,
          "midi": 32,
          "name": "G#1",
          "ticks": 6036,
          "time": 20.958312375,
          "velocity": 0.031496062992125984
        },
        {
          "duration": 0.33333299999999966,
          "durationTicks": 96,
          "midi": 30,
          "name": "F#1",
          "ticks": 6912,
          "time": 23.999976,
          "velocity": 0.12598425196850394
        },
        {
          "duration": 0.33333299999999966,
          "durationTicks": 96,
          "midi": 31,
          "name": "G1",
          "ticks": 7008,
          "time": 24.333309,
          "velocity": 0.14173228346456693
        },
        {
          "duration": 0.33333299999999966,
          "durationTicks": 96,
          "midi": 32,
          "name": "G#1",
          "ticks": 7104,
          "time": 24.666642,
          "velocity": 0.15748031496062992
        },
        {
          "duration": 0.33333299999999966,
          "durationTicks": 96,
          "midi": 33,
          "name": "A1",
          "ticks": 7200,
          "time": 24.999975,
          "velocity": 0.1732283464566929
        },
        {
          "duration": 0.33333299999999966,
          "durationTicks": 96,
          "midi": 34,
          "name": "A#1",
          "ticks": 7296,
          "time": 25.333308,
          "velocity": 0.18110236220472442
        },
        {
          "duration": 0.33333299999999966,
          "durationTicks": 96,
          "midi": 35,
          "name": "B1",
          "ticks": 7392,
          "time": 25.666641,
          "velocity": 0.1968503937007874
        },
        {
          "duration": 0.33333299999999966,
          "durationTicks": 96,
          "midi": 36,
          "name": "C2",
          "ticks": 7488,
          "time": 25.999973999999998,
          "velocity": 0.2125984251968504
        },
        {
          "duration": 0.3333330000000032,
          "durationTicks": 96,
          "midi": 37,
          "name": "C#2",
          "ticks": 7584,
          "time": 26.333306999999998,
          "velocity": 0.2283464566929134
        },
        {
          "duration": 0.33333299999999966,
          "durationTicks": 96,
          "midi": 38,
          "name": "D2",
          "ticks": 7680,
          "time": 26.66664,
          "velocity": 0.2440944881889764
        },
        {
          "duration": 0.33333299999999966,
          "durationTicks": 96,
          "midi": 39,
          "name": "D#2",
          "ticks": 7776,
          "time": 26.999973,
          "velocity": 0.25984251968503935
        },
        {
          "duration": 0.33333299999999966,
          "durationTicks": 96,
          "midi": 40,
          "name": "E2",
          "ticks": 7872,
          "time": 27.333306,
          "velocity": 0.2755905511811024
        },
        {
          "duration": 0.33333299999999966,
          "durationTicks": 96,
          "midi": 41,
          "name": "F2",
          "ticks": 7968,
          "time": 27.666639,
          "velocity": 0.29133858267716534
        },
        {
          "duration": 0.33333299999999966,
          "durationTicks": 96,
          "midi": 42,
          "name": "F#2",
          "ticks": 8064,
          "time": 27.999972,
          "velocity": 0.30708661417322836
        },
        {
          "duration": 0.33333299999999966,
          "durationTicks": 96,
          "midi": 43,
          "name": "G2",
          "ticks": 8160,
          "time": 28.333305,
          "velocity": 0.3228346456692913
        },
        {
          "duration": 0.33333299999999966,
          "durationTicks": 96,
          "midi": 44,
          "name": "G#2",
          "ticks": 8256,
          "time": 28.666638,
          "velocity": 0.33858267716535434
        },
        {
          "duration": 0.33333299999999966,
          "durationTicks": 96,
          "midi": 45,
          "name": "A2",
          "ticks": 8352,
          "time": 28.999971,
          "velocity": 0.3543307086614173
        },
        {
          "duration": 0.1666665000000016,
          "durationTicks": 48,
          "midi": 34,
          "name": "A#1",
          "ticks": 8448,
          "time": 29.333304,
          "velocity": 0.09448818897637795
        },
        {
          "duration": 0.16666649999999805,
          "durationTicks": 48,
          "midi": 35,
          "name": "B1",
          "ticks": 8496,
          "time": 29.4999705,
          "velocity": 0.11811023622047244
        },
        {
          "duration": 0.1666665000000016,
          "durationTicks": 48,
          "midi": 36,
          "name": "C2",
          "ticks": 8544,
          "time": 29.666636999999998,
          "velocity": 0.13385826771653545
        },
        {
          "duration": 0.16666649999999805,
          "durationTicks": 48,
          "midi": 37,
          "name": "C#2",
          "ticks": 8592,
          "time": 29.8333035,
          "velocity": 0.14960629921259844
        },
        {
          "duration": 0.1666665000000016,
          "durationTicks": 48,
          "midi": 38,
          "name": "D2",
          "ticks": 8640,
          "time": 29.999969999999998,
          "velocity": 0.1732283464566929
        },
        {
          "duration": 0.1666665000000016,
          "durationTicks": 48,
          "midi": 39,
          "name": "D#2",
          "ticks": 8688,
          "time": 30.1666365,
          "velocity": 0.1889763779527559
        },
        {
          "duration": 0.16666649999999805,
          "durationTicks": 48,
          "midi": 40,
          "name": "E2",
          "ticks": 8736,
          "time": 30.333303,
          "velocity": 0.2047244094488189
        },
        {
          "duration": 0.1666665000000016,
          "durationTicks": 48,
          "midi": 41,
          "name": "F2",
          "ticks": 8784,
          "time": 30.4999695,
          "velocity": 0.2283464566929134
        },
        {
          "duration": 0.16666649999999805,
          "durationTicks": 48,
          "midi": 42,
          "name": "F#2",
          "ticks": 8832,
          "time": 30.666636,
          "velocity": 0.2440944881889764
        },
        {
          "duration": 0.1666665000000016,
          "durationTicks": 48,
          "midi": 43,
          "name": "G2",
          "ticks": 8880,
          "time": 30.8333025,
          "velocity": 0.25984251968503935
        },
        {
          "duration": 0.16666649999999805,
          "durationTicks": 48,
          "midi": 44,
          "name": "G#2",
          "ticks": 8928,
          "time": 30.999969,
          "velocity": 0.28346456692913385
        },
        {
          "duration": 0.1666665000000016,
          "durationTicks": 48,
          "midi": 45,
          "name": "A2",
          "ticks": 8976,
          "time": 31.166635499999998,
          "velocity": 0.2992125984251969
        },
        {
          "duration": 0.16666649999999805,
          "durationTicks": 48,
          "midi": 46,
          "name": "A#2",
          "ticks": 9024,
          "time": 31.333302,
          "velocity": 0.3228346456692913
        },
        {
          "duration": 0.1666665000000016,
          "durationTicks": 48,
          "midi": 47,
          "name": "B2",
          "ticks": 9072,
          "time": 31.499968499999998,
          "velocity": 0.33858267716535434
        },
        {
          "duration": 0.16666649999999805,
          "durationTicks": 48,
          "midi": 48,
          "name": "C3",
          "ticks": 9120,
          "time": 31.666635,
          "velocity": 0.3543307086614173
        },
        {
          "duration": 0.1666665000000016,
          "durationTicks": 48,
          "midi": 49,
          "name": "C#3",
          "ticks": 9168,
          "time": 31.833301499999997,
          "velocity": 0.3779527559055118
        },
        {
          "duration": 0.08333324999999903,
          "durationTicks": 24,
          "midi": 50,
          "name": "D3",
          "ticks": 9216,
          "time": 31.999968,
          "velocity": 0.3937007874015748
        },
        {
          "duration": 0.08333325000000258,
          "durationTicks": 24,
          "midi": 50,
          "name": "D3",
          "ticks": 9240,
          "time": 32.08330125,
          "velocity": 0.4015748031496063
        },
        {
          "duration": 0.08333324999999547,
          "durationTicks": 24,
          "midi": 51,
          "name": "D#3",
          "ticks": 9264,
          "time": 32.1666345,
          "velocity": 0.4094488188976378
        },
        {
          "duration": 0.08333325000000258,
          "durationTicks": 24,
          "midi": 51,
          "name": "D#3",
          "ticks": 9288,
          "time": 32.249967749999996,
          "velocity": 0.41732283464566927
        },
        {
          "duration": 0.08333325000000258,
          "durationTicks": 24,
          "midi": 52,
          "name": "E3",
          "ticks": 9312,
          "time": 32.333301,
          "velocity": 0.4330708661417323
        },
        {
          "duration": 0.08333324999999547,
          "durationTicks": 24,
          "midi": 52,
          "name": "E3",
          "ticks": 9336,
          "time": 32.41663425,
          "velocity": 0.4409448818897638
        },
        {
          "duration": 0.08333325000000258,
          "durationTicks": 24,
          "midi": 53,
          "name": "F3",
          "ticks": 9360,
          "time": 32.4999675,
          "velocity": 0.44881889763779526
        },
        {
          "duration": 0.08333325000000258,
          "durationTicks": 24,
          "midi": 53,
          "name": "F3",
          "ticks": 9384,
          "time": 32.58330075,
          "velocity": 0.4566929133858268
        },
        {
          "duration": 0.08333324999999547,
          "durationTicks": 24,
          "midi": 54,
          "name": "F#3",
          "ticks": 9408,
          "time": 32.666634,
          "velocity": 0.4645669291338583
        },
        {
          "duration": 0.08333325000000258,
          "durationTicks": 24,
          "midi": 54,
          "name": "F#3",
          "ticks": 9432,
          "time": 32.74996725,
          "velocity": 0.48031496062992124
        },
        {
          "duration": 0.08333325000000258,
          "durationTicks": 24,
          "midi": 55,
          "name": "G3",
          "ticks": 9456,
          "time": 32.8333005,
          "velocity": 0.4881889763779528
        },
        {
          "duration": 0.08333324999999547,
          "durationTicks": 24,
          "midi": 55,
          "name": "G3",
          "ticks": 9480,
          "time": 32.91663375,
          "velocity": 0.49606299212598426
        },
        {
          "duration": 0.08333325000000258,
          "durationTicks": 24,
          "midi": 56,
          "name": "G#3",
          "ticks": 9504,
          "time": 32.999967,
          "velocity": 0.5039370078740157
        },
        {
          "duration": 0.08333324999999547,
          "durationTicks": 24,
          "midi": 56,
          "name": "G#3",
          "ticks": 9528,
          "time": 33.08330025,
          "velocity": 0.5118110236220472
        },
        {
          "duration": 0.08333325000000258,
          "durationTicks": 24,
          "midi": 57,
          "name": "A3",
          "ticks": 9552,
          "time": 33.166633499999996,
          "velocity": 0.5196850393700787
        },
        {
          "duration": 0.08333325000000258,
          "durationTicks": 24,
          "midi": 57,
          "name": "A3",
          "ticks": 9576,
          "time": 33.24996675,
          "velocity": 0.5354330708661418
        },
        {
          "duration": 0.08333324999999547,
          "durationTicks": 24,
          "midi": 58,
          "name": "A#3",
          "ticks": 9600,
          "time": 33.3333,
          "velocity": 0.5433070866141733
        },
        {
          "duration": 0.08333325000000258,
          "durationTicks": 24,
          "midi": 58,
          "name": "A#3",
          "ticks": 9624,
          "time": 33.41663325,
          "velocity": 0.5511811023622047
        },
        {
          "duration": 0.08333325000000258,
          "durationTicks": 24,
          "midi": 59,
          "name": "B3",
          "ticks": 9648,
          "time": 33.4999665,
          "velocity": 0.5590551181102362
        },
        {
          "duration": 0.08333324999999547,
          "durationTicks": 24,
          "midi": 59,
          "name": "B3",
          "ticks": 9672,
          "time": 33.58329975,
          "velocity": 0.5669291338582677
        },
        {
          "duration": 0.08333325000000258,
          "durationTicks": 24,
          "midi": 60,
          "name": "C4",
          "ticks": 9696,
          "time": 33.666633,
          "velocity": 0.5748031496062992
        },
        {
          "duration": 0.08333325000000258,
          "durationTicks": 24,
          "midi": 60,
          "name": "C4",
          "ticks": 9720,
          "time": 33.74996625,
          "velocity": 0.5905511811023622
        },
        {
          "duration": 0.08333324999999547,
          "durationTicks": 24,
          "midi": 61,
          "name": "C#4",
          "ticks": 9744,
          "time": 33.8332995,
          "velocity": 0.5984251968503937
        },
        {
          "duration": 0.08333325000000258,
          "durationTicks": 24,
          "midi": 61,
          "name": "C#4",
          "ticks": 9768,
          "time": 33.91663275,
          "velocity": 0.6062992125984252
        },
        {
          "duration": 0.08333324999999547,
          "durationTicks": 24,
          "midi": 62,
          "name": "D4",
          "ticks": 9792,
          "time": 33.999966,
          "velocity": 0.6141732283464567
        },
        {
          "duration": 0.08333325000000258,
          "durationTicks": 24,
          "midi": 62,
          "name": "D4",
          "ticks": 9816,
          "time": 34.083299249999996,
          "velocity": 0.6220472440944882
        },
        {
          "duration": 0.08333325000000258,
          "durationTicks": 24,
          "midi": 63,
          "name": "D#4",
          "ticks": 9840,
          "time": 34.1666325,
          "velocity": 0.6377952755905512
        },
        {
          "duration": 0.08333324999999547,
          "durationTicks": 24,
          "midi": 63,
          "name": "D#4",
          "ticks": 9864,
          "time": 34.24996575,
          "velocity": 0.6456692913385826
        },
        {
          "duration": 0.013888874999999246,
          "durationTicks": 4,
          "midi": 95,
          "name": "B6",
          "ticks": 10656,
          "time": 36.999963,
          "velocity": 0.4881889763779528
        },
        {
          "duration": 0.013888874999999246,
          "durationTicks": 4,
          "midi": 94,
          "name": "A#6",
          "ticks": 10656,
          "time": 36.999963,
          "velocity": 0.4881889763779528
        },
        {
          "duration": 0.013888874999999246,
          "durationTicks": 4,
          "midi": 93,
          "name": "A6",
          "ticks": 10656,
          "time": 36.999963,
          "velocity": 0.48031496062992124
        },
        {
          "duration": 0.013888874999999246,
          "durationTicks": 4,
          "midi": 92,
          "name": "G#6",
          "ticks": 10656,
          "time": 36.999963,
          "velocity": 0.48031496062992124
        },
        {
          "duration": 0.013888874999999246,
          "durationTicks": 4,
          "midi": 91,
          "name": "G6",
          "ticks": 10656,
          "time": 36.999963,
          "velocity": 0.48031496062992124
        },
        {
          "duration": 0.013888874999999246,
          "durationTicks": 4,
          "midi": 83,
          "name": "B5",
          "ticks": 10660,
          "time": 37.013851875,
          "velocity": 0.47244094488188976
        },
        {
          "duration": 0.013888874999999246,
          "durationTicks": 4,
          "midi": 84,
          "name": "C6",
          "ticks": 10660,
          "time": 37.013851875,
          "velocity": 0.47244094488188976
        },
        {
          "duration": 0.013888874999999246,
          "durationTicks": 4,
          "midi": 85,
          "name": "C#6",
          "ticks": 10660,
          "time": 37.013851875,
          "velocity": 0.47244094488188976
        },
        {
          "duration": 0.013888874999999246,
          "durationTicks": 4,
          "midi": 90,
          "name": "F#6",
          "ticks": 10660,
          "time": 37.013851875,
          "velocity": 0.48031496062992124
        },
        {
          "duration": 0.013888874999999246,
          "durationTicks": 4,
          "midi": 89,
          "name": "F6",
          "ticks": 10660,
          "time": 37.013851875,
          "velocity": 0.48031496062992124
        },
        {
          "duration": 0.013888874999999246,
          "durationTicks": 4,
          "midi": 88,
          "name": "E6",
          "ticks": 10660,
          "time": 37.013851875,
          "velocity": 0.48031496062992124
        },
        {
          "duration": 0.013888874999999246,
          "durationTicks": 4,
          "midi": 87,
          "name": "D#6",
          "ticks": 10660,
          "time": 37.013851875,
          "velocity": 0.47244094488188976
        },
        {
          "duration": 0.013888874999999246,
          "durationTicks": 4,
          "midi": 86,
          "name": "D6",
          "ticks": 10660,
          "time": 37.013851875,
          "velocity": 0.47244094488188976
        },
        {
          "duration": 0.013888874999999246,
          "durationTicks": 4,
          "midi": 73,
          "name": "C#5",
          "ticks": 10664,
          "time": 37.02774075,
          "velocity": 0.4566929133858268
        },
        {
          "duration": 0.013888874999999246,
          "durationTicks": 4,
          "midi": 74,
          "name": "D5",
          "ticks": 10664,
          "time": 37.02774075,
          "velocity": 0.4566929133858268
        },
        {
          "duration": 0.013888874999999246,
          "durationTicks": 4,
          "midi": 75,
          "name": "D#5",
          "ticks": 10664,
          "time": 37.02774075,
          "velocity": 0.4566929133858268
        },
        {
          "duration": 0.013888874999999246,
          "durationTicks": 4,
          "midi": 76,
          "name": "E5",
          "ticks": 10664,
          "time": 37.02774075,
          "velocity": 0.4566929133858268
        },
        {
          "duration": 0.013888874999999246,
          "durationTicks": 4,
          "midi": 77,
          "name": "F5",
          "ticks": 10664,
          "time": 37.02774075,
          "velocity": 0.4566929133858268
        },
        {
          "duration": 0.013888874999999246,
          "durationTicks": 4,
          "midi": 78,
          "name": "F#5",
          "ticks": 10664,
          "time": 37.02774075,
          "velocity": 0.4645669291338583
        },
        {
          "duration": 0.013888874999999246,
          "durationTicks": 4,
          "midi": 79,
          "name": "G5",
          "ticks": 10664,
          "time": 37.02774075,
          "velocity": 0.4645669291338583
        },
        {
          "duration": 0.013888874999999246,
          "durationTicks": 4,
          "midi": 80,
          "name": "G#5",
          "ticks": 10664,
          "time": 37.02774075,
          "velocity": 0.4645669291338583
        },
        {
          "duration": 0.013888874999999246,
          "durationTicks": 4,
          "midi": 81,
          "name": "A5",
          "ticks": 10664,
          "time": 37.02774075,
          "velocity": 0.4645669291338583
        },
        {
          "duration": 0.013888874999999246,
          "durationTicks": 4,
          "midi": 82,
          "name": "A#5",
          "ticks": 10664,
          "time": 37.02774075,
          "velocity": 0.4645669291338583
        },
        {
          "duration": 0.013888874999999246,
          "durationTicks": 4,
          "midi": 70,
          "name": "A#4",
          "ticks": 10668,
          "time": 37.041629625,
          "velocity": 0.44881889763779526
        },
        {
          "duration": 0.013888874999999246,
          "durationTicks": 4,
          "midi": 71,
          "name": "B4",
          "ticks": 10668,
          "time": 37.041629625,
          "velocity": 0.44881889763779526
        },
        {
          "duration": 0.013888874999999246,
          "durationTicks": 4,
          "midi": 72,
          "name": "C5",
          "ticks": 10668,
          "time": 37.041629625,
          "velocity": 0.4566929133858268
        },
        {
          "duration": 0.01388887499999214,
          "durationTicks": 4,
          "midi": 66,
          "name": "F#4",
          "ticks": 13632,
          "time": 47.333286,
          "velocity": 0.6456692913385826
        },
        {
          "duration": 0.013888874999999246,
          "durationTicks": 4,
          "midi": 65,
          "name": "F4",
          "ticks": 13635,
          "time": 47.343702656249995,
          "velocity": 0.6299212598425197
        },
        {
          "duration": 0.013888874999999246,
          "durationTicks": 4,
          "midi": 64,
          "name": "E4",
          "ticks": 13638,
          "time": 47.354119312499996,
          "velocity": 0.6141732283464567
        },
        {
          "duration": 0.013888874999999246,
          "durationTicks": 4,
          "midi": 63,
          "name": "D#4",
          "ticks": 13641,
          "time": 47.36453596875,
          "velocity": 0.6062992125984252
        },
        {
          "duration": 0.013888874999999246,
          "durationTicks": 4,
          "midi": 62,
          "name": "D4",
          "ticks": 13644,
          "time": 47.374952625,
          "velocity": 0.5905511811023622
        },
        {
          "duration": 0.01388887499999214,
          "durationTicks": 4,
          "midi": 61,
          "name": "C#4",
          "ticks": 13647,
          "time": 47.38536928125,
          "velocity": 0.5748031496062992
        },
        {
          "duration": 0.01388887499999214,
          "durationTicks": 4,
          "midi": 60,
          "name": "C4",
          "ticks": 13650,
          "time": 47.3957859375,
          "velocity": 0.5669291338582677
        },
        {
          "duration": 0.013888874999999246,
          "durationTicks": 4,
          "midi": 59,
          "name": "B3",
          "ticks": 13653,
          "time": 47.406202593749995,
          "velocity": 0.5511811023622047
        },
        {
          "duration": 0.013888874999999246,
          "durationTicks": 4,
          "midi": 58,
          "name": "A#3",
          "ticks": 13656,
          "time": 47.41661925,
          "velocity": 0.5354330708661418
        },
        {
          "duration": 0.013888874999999246,
          "durationTicks": 4,
          "midi": 57,
          "name": "A3",
          "ticks": 13659,
          "time": 47.42703590625,
          "velocity": 0.5275590551181102
        },
        {
          "duration": 0.013888874999999246,
          "durationTicks": 4,
          "midi": 56,
          "name": "G#3",
          "ticks": 13662,
          "time": 47.4374525625,
          "velocity": 0.5118110236220472
        },
        {
          "duration": 0.01388887499999214,
          "durationTicks": 4,
          "midi": 55,
          "name": "G3",
          "ticks": 13665,
          "time": 47.44786921875,
          "velocity": 0.49606299212598426
        },
        {
          "duration": 0.01388887499999214,
          "durationTicks": 4,
          "midi": 54,
          "name": "F#3",
          "ticks": 13668,
          "time": 47.458285875,
          "velocity": 0.4881889763779528
        },
        {
          "duration": 0.013888874999999246,
          "durationTicks": 4,
          "midi": 53,
          "name": "F3",
          "ticks": 13671,
          "time": 47.468702531249996,
          "velocity": 0.47244094488188976
        },
        {
          "duration": 0.013888874999999246,
          "durationTicks": 4,
          "midi": 52,
          "name": "E3",
          "ticks": 13674,
          "time": 47.4791191875,
          "velocity": 0.4566929133858268
        },
        {
          "duration": 0.013888874999999246,
          "durationTicks": 4,
          "midi": 51,
          "name": "D#3",
          "ticks": 13677,
          "time": 47.48953584375,
          "velocity": 0.44881889763779526
        },
        {
          "duration": 0.16666649999999805,
          "durationTicks": 48,
          "midi": 34,
          "name": "A#1",
          "ticks": 18432,
          "time": 63.999936,
          "velocity": 0.15748031496062992
        },
        {
          "duration": 0.16666650000000516,
          "durationTicks": 48,
          "midi": 35,
          "name": "B1",
          "ticks": 18480,
          "time": 64.1666025,
          "velocity": 0.18110236220472442
        },
        {
          "duration": 0.16666649999999095,
          "durationTicks": 48,
          "midi": 36,
          "name": "C2",
          "ticks": 18528,
          "time": 64.333269,
          "velocity": 0.2125984251968504
        },
        {
          "duration": 0.16666650000000516,
          "durationTicks": 48,
          "midi": 37,
          "name": "C#2",
          "ticks": 18576,
          "time": 64.49993549999999,
          "velocity": 0.2440944881889764
        },
        {
          "duration": 0.16666650000000516,
          "durationTicks": 48,
          "midi": 38,
          "name": "D2",
          "ticks": 18624,
          "time": 64.666602,
          "velocity": 0.2677165354330709
        },
        {
          "duration": 0.16666649999999095,
          "durationTicks": 48,
          "midi": 39,
          "name": "D#2",
          "ticks": 18672,
          "time": 64.8332685,
          "velocity": 0.2992125984251969
        },
        {
          "duration": 0.16666650000000516,
          "durationTicks": 48,
          "midi": 40,
          "name": "E2",
          "ticks": 18720,
          "time": 64.999935,
          "velocity": 0.33070866141732286
        },
        {
          "duration": 0.16666650000000516,
          "durationTicks": 48,
          "midi": 41,
          "name": "F2",
          "ticks": 18768,
          "time": 65.1666015,
          "velocity": 0.3543307086614173
        },
        {
          "duration": 0.16666649999999095,
          "durationTicks": 48,
          "midi": 42,
          "name": "F#2",
          "ticks": 18816,
          "time": 65.333268,
          "velocity": 0.3858267716535433
        },
        {
          "duration": 0.16666650000000516,
          "durationTicks": 48,
          "midi": 43,
          "name": "G2",
          "ticks": 18864,
          "time": 65.4999345,
          "velocity": 0.4094488188976378
        },
        {
          "duration": 0.16666650000000516,
          "durationTicks": 48,
          "midi": 44,
          "name": "G#2",
          "ticks": 18912,
          "time": 65.666601,
          "velocity": 0.4409448818897638
        },
        {
          "duration": 0.16666649999999095,
          "durationTicks": 48,
          "midi": 45,
          "name": "A2",
          "ticks": 18960,
          "time": 65.8332675,
          "velocity": 0.47244094488188976
        },
        {
          "duration": 0.16666650000000516,
          "durationTicks": 48,
          "midi": 46,
          "name": "A#2",
          "ticks": 19008,
          "time": 65.999934,
          "velocity": 0.49606299212598426
        },
        {
          "duration": 0.16666649999999095,
          "durationTicks": 48,
          "midi": 47,
          "name": "B2",
          "ticks": 19056,
          "time": 66.1666005,
          "velocity": 0.5275590551181102
        },
        {
          "duration": 0.16666650000000516,
          "durationTicks": 48,
          "midi": 48,
          "name": "C3",
          "ticks": 19104,
          "time": 66.33326699999999,
          "velocity": 0.5590551181102362
        },
        {
          "duration": 0.16666650000000516,
          "durationTicks": 48,
          "midi": 49,
          "name": "C#3",
          "ticks": 19152,
          "time": 66.4999335,
          "velocity": 0.5826771653543307
        },
        {
          "duration": 0.08333324999999547,
          "durationTicks": 24,
          "midi": 50,
          "name": "D3",
          "ticks": 19200,
          "time": 66.6666,
          "velocity": 0.5826771653543307
        },
        {
          "duration": 0.08333324999999547,
          "durationTicks": 24,
          "midi": 50,
          "name": "D3",
          "ticks": 19224,
          "time": 66.74993325,
          "velocity": 0.5748031496062992
        },
        {
          "duration": 0.08333325000000968,
          "durationTicks": 24,
          "midi": 51,
          "name": "D#3",
          "ticks": 19248,
          "time": 66.8332665,
          "velocity": 0.5669291338582677
        },
        {
          "duration": 0.08333324999999547,
          "durationTicks": 24,
          "midi": 51,
          "name": "D#3",
          "ticks": 19272,
          "time": 66.91659975,
          "velocity": 0.5590551181102362
        },
        {
          "duration": 0.08333324999999547,
          "durationTicks": 24,
          "midi": 52,
          "name": "E3",
          "ticks": 19296,
          "time": 66.999933,
          "velocity": 0.5511811023622047
        },
        {
          "duration": 0.08333325000000968,
          "durationTicks": 24,
          "midi": 52,
          "name": "E3",
          "ticks": 19320,
          "time": 67.08326625,
          "velocity": 0.5354330708661418
        },
        {
          "duration": 0.08333324999999547,
          "durationTicks": 24,
          "midi": 53,
          "name": "F3",
          "ticks": 19344,
          "time": 67.1665995,
          "velocity": 0.5275590551181102
        },
        {
          "duration": 0.08333324999999547,
          "durationTicks": 24,
          "midi": 53,
          "name": "F3",
          "ticks": 19368,
          "time": 67.24993275,
          "velocity": 0.5196850393700787
        },
        {
          "duration": 0.08333325000000968,
          "durationTicks": 24,
          "midi": 54,
          "name": "F#3",
          "ticks": 19392,
          "time": 67.333266,
          "velocity": 0.5118110236220472
        },
        {
          "duration": 0.08333324999999547,
          "durationTicks": 24,
          "midi": 54,
          "name": "F#3",
          "ticks": 19416,
          "time": 67.41659925,
          "velocity": 0.5039370078740157
        },
        {
          "duration": 0.08333324999999547,
          "durationTicks": 24,
          "midi": 55,
          "name": "G3",
          "ticks": 19440,
          "time": 67.4999325,
          "velocity": 0.4881889763779528
        },
        {
          "duration": 0.08333325000000968,
          "durationTicks": 24,
          "midi": 55,
          "name": "G3",
          "ticks": 19464,
          "time": 67.58326575,
          "velocity": 0.48031496062992124
        },
        {
          "duration": 0.08333324999999547,
          "durationTicks": 24,
          "midi": 56,
          "name": "G#3",
          "ticks": 19488,
          "time": 67.666599,
          "velocity": 0.47244094488188976
        },
        {
          "duration": 0.08333324999999547,
          "durationTicks": 24,
          "midi": 56,
          "name": "G#3",
          "ticks": 19512,
          "time": 67.74993225,
          "velocity": 0.4645669291338583
        },
        {
          "duration": 0.08333324999999547,
          "durationTicks": 24,
          "midi": 57,
          "name": "A3",
          "ticks": 19536,
          "time": 67.8332655,
          "velocity": 0.4566929133858268
        },
        {
          "duration": 0.08333325000000968,
          "durationTicks": 24,
          "midi": 57,
          "name": "A3",
          "ticks": 19560,
          "time": 67.91659874999999,
          "velocity": 0.44881889763779526
        },
        {
          "duration": 0.08333324999999547,
          "durationTicks": 24,
          "midi": 58,
          "name": "A#3",
          "ticks": 19584,
          "time": 67.999932,
          "velocity": 0.4330708661417323
        },
        {
          "duration": 0.08333324999999547,
          "durationTicks": 24,
          "midi": 58,
          "name": "A#3",
          "ticks": 19608,
          "time": 68.08326525,
          "velocity": 0.4251968503937008
        },
        {
          "duration": 0.08333325000000968,
          "durationTicks": 24,
          "midi": 59,
          "name": "B3",
          "ticks": 19632,
          "time": 68.16659849999999,
          "velocity": 0.41732283464566927
        },
        {
          "duration": 0.08333324999999547,
          "durationTicks": 24,
          "midi": 59,
          "name": "B3",
          "ticks": 19656,
          "time": 68.24993175,
          "velocity": 0.4094488188976378
        },
        {
          "duration": 0.08333324999999547,
          "durationTicks": 24,
          "midi": 60,
          "name": "C4",
          "ticks": 19680,
          "time": 68.333265,
          "velocity": 0.4015748031496063
        },
        {
          "duration": 0.08333325000000968,
          "durationTicks": 24,
          "midi": 60,
          "name": "C4",
          "ticks": 19704,
          "time": 68.41659824999999,
          "velocity": 0.3858267716535433
        },
        {
          "duration": 0.08333324999999547,
          "durationTicks": 24,
          "midi": 61,
          "name": "C#4",
          "ticks": 19728,
          "time": 68.4999315,
          "velocity": 0.3779527559055118
        },
        {
          "duration": 0.08333324999999547,
          "durationTicks": 24,
          "midi": 61,
          "name": "C#4",
          "ticks": 19752,
          "time": 68.58326475,
          "velocity": 0.3700787401574803
        },
        {
          "duration": 0.08333325000000968,
          "durationTicks": 24,
          "midi": 62,
          "name": "D4",
          "ticks": 19776,
          "time": 68.666598,
          "velocity": 0.36220472440944884
        },
        {
          "duration": 0.08333324999999547,
          "durationTicks": 24,
          "midi": 62,
          "name": "D4",
          "ticks": 19800,
          "time": 68.74993125,
          "velocity": 0.3543307086614173
        },
        {
          "duration": 0.08333324999999547,
          "durationTicks": 24,
          "midi": 63,
          "name": "D#4",
          "ticks": 19824,
          "time": 68.8332645,
          "velocity": 0.3464566929133858
        },
        {
          "duration": 0.08333325000000968,
          "durationTicks": 24,
          "midi": 63,
          "name": "D#4",
          "ticks": 19848,
          "time": 68.91659775,
          "velocity": 0.33070866141732286
        },
        {
          "duration": 0.02430553124999335,
          "durationTicks": 7,
          "midi": 40,
          "name": "E2",
          "ticks": 20064,
          "time": 69.666597,
          "velocity": 0.30708661417322836
        },
        {
          "duration": 0.02430553124999335,
          "durationTicks": 7,
          "midi": 45,
          "name": "A2",
          "ticks": 20066,
          "time": 69.6735414375,
          "velocity": 0.31496062992125984
        },
        {
          "duration": 0.02430553124999335,
          "durationTicks": 7,
          "midi": 45,
          "name": "A2",
          "ticks": 20076,
          "time": 69.708263625,
          "velocity": 0.3464566929133858
        },
        {
          "duration": 0.02430553125000756,
          "durationTicks": 7,
          "midi": 49,
          "name": "C#3",
          "ticks": 20078,
          "time": 69.7152080625,
          "velocity": 0.3464566929133858
        },
        {
          "duration": 0.02430553125000756,
          "durationTicks": 7,
          "midi": 49,
          "name": "C#3",
          "ticks": 20088,
          "time": 69.74993024999999,
          "velocity": 0.3779527559055118
        },
        {
          "duration": 0.02430553125000756,
          "durationTicks": 7,
          "midi": 52,
          "name": "E3",
          "ticks": 20089,
          "time": 69.75340246875,
          "velocity": 0.3779527559055118
        },
        {
          "duration": 0.02430553124999335,
          "durationTicks": 7,
          "midi": 52,
          "name": "E3",
          "ticks": 20100,
          "time": 69.791596875,
          "velocity": 0.4094488188976378
        },
        {
          "duration": 0.02430553124999335,
          "durationTicks": 7,
          "midi": 57,
          "name": "A3",
          "ticks": 20102,
          "time": 69.7985413125,
          "velocity": 0.41732283464566927
        },
        {
          "duration": 0.02430553124999335,
          "durationTicks": 7,
          "midi": 57,
          "name": "A3",
          "ticks": 20112,
          "time": 69.8332635,
          "velocity": 0.4409448818897638
        },
        {
          "duration": 0.02430553125000756,
          "durationTicks": 7,
          "midi": 61,
          "name": "C#4",
          "ticks": 20114,
          "time": 69.8402079375,
          "velocity": 0.44881889763779526
        },
        {
          "duration": 0.02430553125000756,
          "durationTicks": 7,
          "midi": 61,
          "name": "C#4",
          "ticks": 20124,
          "time": 69.87493012499999,
          "velocity": 0.47244094488188976
        },
        {
          "duration": 0.02430553124999335,
          "durationTicks": 7,
          "midi": 64,
          "name": "E4",
          "ticks": 20126,
          "time": 69.8818745625,
          "velocity": 0.48031496062992124
        },
        {
          "duration": 0.02430553124999335,
          "durationTicks": 7,
          "midi": 64,
          "name": "E4",
          "ticks": 20136,
          "time": 69.91659675,
          "velocity": 0.5118110236220472
        },
        {
          "duration": 0.02430553124999335,
          "durationTicks": 7,
          "midi": 69,
          "name": "A4",
          "ticks": 20138,
          "time": 69.9235411875,
          "velocity": 0.5118110236220472
        },
        {
          "duration": 0.02430553124999335,
          "durationTicks": 7,
          "midi": 69,
          "name": "A4",
          "ticks": 20148,
          "time": 69.958263375,
          "velocity": 0.5433070866141733
        },
        {
          "duration": 0.02430553125000756,
          "durationTicks": 7,
          "midi": 73,
          "name": "C#5",
          "ticks": 20150,
          "time": 69.9652078125,
          "velocity": 0.5433070866141733
        },
        {
          "duration": 0.02430553125000756,
          "durationTicks": 7,
          "midi": 40,
          "name": "E2",
          "ticks": 20832,
          "time": 72.333261,
          "velocity": 0.30708661417322836
        },
        {
          "duration": 0.02430553124999335,
          "durationTicks": 7,
          "midi": 45,
          "name": "A2",
          "ticks": 20834,
          "time": 72.3402054375,
          "velocity": 0.31496062992125984
        },
        {
          "duration": 0.02430553124999335,
          "durationTicks": 7,
          "midi": 45,
          "name": "A2",
          "ticks": 20844,
          "time": 72.374927625,
          "velocity": 0.3464566929133858
        },
        {
          "duration": 0.02430553125000756,
          "durationTicks": 7,
          "midi": 49,
          "name": "C#3",
          "ticks": 20846,
          "time": 72.3818720625,
          "velocity": 0.3464566929133858
        },
        {
          "duration": 0.02430553124999335,
          "durationTicks": 7,
          "midi": 49,
          "name": "C#3",
          "ticks": 20856,
          "time": 72.41659425,
          "velocity": 0.3779527559055118
        },
        {
          "duration": 0.02430553125000756,
          "durationTicks": 7,
          "midi": 52,
          "name": "E3",
          "ticks": 20857,
          "time": 72.42006646875,
          "velocity": 0.3779527559055118
        },
        {
          "duration": 0.02430553125000756,
          "durationTicks": 7,
          "midi": 52,
          "name": "E3",
          "ticks": 20868,
          "time": 72.458260875,
          "velocity": 0.4094488188976378
        },
        {
          "duration": 0.02430553124999335,
          "durationTicks": 7,
          "midi": 57,
          "name": "A3",
          "ticks": 20870,
          "time": 72.4652053125,
          "velocity": 0.41732283464566927
        },
        {
          "duration": 0.02430553124999335,
          "durationTicks": 7,
          "midi": 57,
          "name": "A3",
          "ticks": 20880,
          "time": 72.4999275,
          "velocity": 0.4409448818897638
        },
        {
          "duration": 0.02430553125000756,
          "durationTicks": 7,
          "midi": 61,
          "name": "C#4",
          "ticks": 20882,
          "time": 72.5068719375,
          "velocity": 0.44881889763779526
        },
        {
          "duration": 0.02430553124999335,
          "durationTicks": 7,
          "midi": 61,
          "name": "C#4",
          "ticks": 20892,
          "time": 72.541594125,
          "velocity": 0.47244094488188976
        },
        {
          "duration": 0.02430553124999335,
          "durationTicks": 7,
          "midi": 64,
          "name": "E4",
          "ticks": 20894,
          "time": 72.5485385625,
          "velocity": 0.48031496062992124
        },
        {
          "duration": 0.02430553125000756,
          "durationTicks": 7,
          "midi": 64,
          "name": "E4",
          "ticks": 20904,
          "time": 72.58326075,
          "velocity": 0.5118110236220472
        },
        {
          "duration": 0.02430553124999335,
          "durationTicks": 7,
          "midi": 69,
          "name": "A4",
          "ticks": 20906,
          "time": 72.5902051875,
          "velocity": 0.5118110236220472
        },
        {
          "duration": 0.02430553124999335,
          "durationTicks": 7,
          "midi": 69,
          "name": "A4",
          "ticks": 20916,
          "time": 72.624927375,
          "velocity": 0.5433070866141733
        },
        {
          "duration": 0.02430553125000756,
          "durationTicks": 7,
          "midi": 73,
          "name": "C#5",
          "ticks": 20918,
          "time": 72.6318718125,
          "velocity": 0.5433070866141733
        },
        {
          "duration": 0.02430553124999335,
          "durationTicks": 7,
          "midi": 45,
          "name": "A2",
          "ticks": 21600,
          "time": 74.999925,
          "velocity": 0.4094488188976378
        },
        {
          "duration": 0.02430553124999335,
          "durationTicks": 7,
          "midi": 50,
          "name": "D3",
          "ticks": 21602,
          "time": 75.0068694375,
          "velocity": 0.41732283464566927
        },
        {
          "duration": 0.02430553124999335,
          "durationTicks": 7,
          "midi": 50,
          "name": "D3",
          "ticks": 21612,
          "time": 75.041591625,
          "velocity": 0.4566929133858268
        },
        {
          "duration": 0.02430553125000756,
          "durationTicks": 7,
          "midi": 54,
          "name": "F#3",
          "ticks": 21613,
          "time": 75.04506384375,
          "velocity": 0.4645669291338583
        },
        {
          "duration": 0.02430553124999335,
          "durationTicks": 7,
          "midi": 54,
          "name": "F#3",
          "ticks": 21624,
          "time": 75.08325825,
          "velocity": 0.5039370078740157
        },
        {
          "duration": 0.02430553125000756,
          "durationTicks": 7,
          "midi": 57,
          "name": "A3",
          "ticks": 21626,
          "time": 75.0902026875,
          "velocity": 0.5118110236220472
        },
        {
          "duration": 0.02430553124999335,
          "durationTicks": 7,
          "midi": 57,
          "name": "A3",
          "ticks": 21636,
          "time": 75.124924875,
          "velocity": 0.5511811023622047
        },
        {
          "duration": 0.02430553124999335,
          "durationTicks": 7,
          "midi": 62,
          "name": "D4",
          "ticks": 21638,
          "time": 75.1318693125,
          "velocity": 0.5590551181102362
        },
        {
          "duration": 0.02430553124999335,
          "durationTicks": 7,
          "midi": 62,
          "name": "D4",
          "ticks": 21648,
          "time": 75.1665915,
          "velocity": 0.5984251968503937
        },
        {
          "duration": 0.02430553124999335,
          "durationTicks": 7,
          "midi": 66,
          "name": "F#4",
          "ticks": 21650,
          "time": 75.1735359375,
          "velocity": 0.6062992125984252
        },
        {
          "duration": 0.02430553124999335,
          "durationTicks": 7,
          "midi": 66,
          "name": "F#4",
          "ticks": 21660,
          "time": 75.208258125,
          "velocity": 0.6456692913385826
        },
        {
          "duration": 0.02430553125000756,
          "durationTicks": 7,
          "midi": 69,
          "name": "A4",
          "ticks": 21662,
          "time": 75.2152025625,
          "velocity": 0.6535433070866141
        },
        {
          "duration": 0.02430553125000756,
          "durationTicks": 7,
          "midi": 69,
          "name": "A4",
          "ticks": 21672,
          "time": 75.24992474999999,
          "velocity": 0.6929133858267716
        },
        {
          "duration": 0.02430553124999335,
          "durationTicks": 7,
          "midi": 74,
          "name": "D5",
          "ticks": 21674,
          "time": 75.2568691875,
          "velocity": 0.7007874015748031
        },
        {
          "duration": 0.02430553124999335,
          "durationTicks": 7,
          "midi": 74,
          "name": "D5",
          "ticks": 21684,
          "time": 75.291591375,
          "velocity": 0.7401574803149606
        },
        {
          "duration": 0.02430553124999335,
          "durationTicks": 7,
          "midi": 78,
          "name": "F#5",
          "ticks": 21686,
          "time": 75.2985358125,
          "velocity": 0.7480314960629921
        },
        {
          "duration": 0.18402759374998823,
          "durationTicks": 53,
          "midi": 59,
          "name": "B3",
          "ticks": 38976,
          "time": 135.333198,
          "velocity": 0.6377952755905512
        },
        {
          "duration": 0.017361093750025702,
          "durationTicks": 5,
          "midi": 58,
          "name": "A#3",
          "ticks": 38981,
          "time": 135.35055909374998,
          "velocity": 0.6377952755905512
        },
        {
          "duration": 0.01736109374999728,
          "durationTicks": 5,
          "midi": 57,
          "name": "A3",
          "ticks": 38986,
          "time": 135.3679201875,
          "velocity": 0.6377952755905512
        },
        {
          "duration": 0.01736109374999728,
          "durationTicks": 5,
          "midi": 56,
          "name": "G#3",
          "ticks": 38991,
          "time": 135.38528128125,
          "velocity": 0.6377952755905512
        },
        {
          "duration": 0.01736109374999728,
          "durationTicks": 5,
          "midi": 55,
          "name": "G3",
          "ticks": 38996,
          "time": 135.402642375,
          "velocity": 0.6377952755905512
        },
        {
          "duration": 0.01736109374999728,
          "durationTicks": 5,
          "midi": 54,
          "name": "F#3",
          "ticks": 39001,
          "time": 135.42000346875,
          "velocity": 0.6377952755905512
        },
        {
          "duration": 0.01736109374999728,
          "durationTicks": 5,
          "midi": 53,
          "name": "F3",
          "ticks": 39006,
          "time": 135.4373645625,
          "velocity": 0.6377952755905512
        },
        {
          "duration": 0.01736109374999728,
          "durationTicks": 5,
          "midi": 52,
          "name": "E3",
          "ticks": 39011,
          "time": 135.45472565625,
          "velocity": 0.6377952755905512
        },
        {
          "duration": 0.09722212500000182,
          "durationTicks": 28,
          "midi": 81,
          "name": "A5",
          "ticks": 40512,
          "time": 140.666526,
          "velocity": 0.7322834645669292
        },
        {
          "duration": 0.09722212500000182,
          "durationTicks": 28,
          "midi": 69,
          "name": "A4",
          "ticks": 40512,
          "time": 140.666526,
          "velocity": 0.7322834645669292
        },
        {
          "duration": 0.09722212500000182,
          "durationTicks": 28,
          "midi": 80,
          "name": "G#5",
          "ticks": 40528,
          "time": 140.7220815,
          "velocity": 0.7007874015748031
        },
        {
          "duration": 0.09722212500000182,
          "durationTicks": 28,
          "midi": 68,
          "name": "G#4",
          "ticks": 40528,
          "time": 140.7220815,
          "velocity": 0.7007874015748031
        },
        {
          "duration": 0.09722212500000182,
          "durationTicks": 28,
          "midi": 79,
          "name": "G5",
          "ticks": 40544,
          "time": 140.777637,
          "velocity": 0.6692913385826772
        },
        {
          "duration": 0.09722212500000182,
          "durationTicks": 28,
          "midi": 67,
          "name": "G4",
          "ticks": 40544,
          "time": 140.777637,
          "velocity": 0.6692913385826772
        },
        {
          "duration": 0.09722212500000182,
          "durationTicks": 28,
          "midi": 78,
          "name": "F#5",
          "ticks": 40560,
          "time": 140.8331925,
          "velocity": 0.6377952755905512
        },
        {
          "duration": 0.09722212500000182,
          "durationTicks": 28,
          "midi": 66,
          "name": "F#4",
          "ticks": 40560,
          "time": 140.8331925,
          "velocity": 0.6377952755905512
        },
        {
          "duration": 0.09722212500000182,
          "durationTicks": 28,
          "midi": 77,
          "name": "F5",
          "ticks": 40576,
          "time": 140.888748,
          "velocity": 0.6062992125984252
        },
        {
          "duration": 0.09722212500000182,
          "durationTicks": 28,
          "midi": 65,
          "name": "F4",
          "ticks": 40576,
          "time": 140.888748,
          "velocity": 0.6062992125984252
        },
        {
          "duration": 0.09722212500000182,
          "durationTicks": 28,
          "midi": 76,
          "name": "E5",
          "ticks": 40592,
          "time": 140.9443035,
          "velocity": 0.5669291338582677
        },
        {
          "duration": 0.09722212500000182,
          "durationTicks": 28,
          "midi": 64,
          "name": "E4",
          "ticks": 40592,
          "time": 140.9443035,
          "velocity": 0.5669291338582677
        },
        {
          "duration": 0.09722212500000182,
          "durationTicks": 28,
          "midi": 75,
          "name": "D#5",
          "ticks": 40608,
          "time": 140.999859,
          "velocity": 0.5354330708661418
        },
        {
          "duration": 0.09722212500000182,
          "durationTicks": 28,
          "midi": 63,
          "name": "D#4",
          "ticks": 40608,
          "time": 140.999859,
          "velocity": 0.5354330708661418
        },
        {
          "duration": 0.0972221249999734,
          "durationTicks": 28,
          "midi": 74,
          "name": "D5",
          "ticks": 40624,
          "time": 141.0554145,
          "velocity": 0.5039370078740157
        },
        {
          "duration": 0.0972221249999734,
          "durationTicks": 28,
          "midi": 62,
          "name": "D4",
          "ticks": 40624,
          "time": 141.0554145,
          "velocity": 0.5039370078740157
        },
        {
          "duration": 0.09722212500000182,
          "durationTicks": 28,
          "midi": 73,
          "name": "C#5",
          "ticks": 40640,
          "time": 141.11096999999998,
          "velocity": 0.47244094488188976
        },
        {
          "duration": 0.09722212500000182,
          "durationTicks": 28,
          "midi": 61,
          "name": "C#4",
          "ticks": 40640,
          "time": 141.11096999999998,
          "velocity": 0.47244094488188976
        },
        {
          "duration": 0.09722212500000182,
          "durationTicks": 28,
          "midi": 72,
          "name": "C5",
          "ticks": 40656,
          "time": 141.1665255,
          "velocity": 0.4409448818897638
        },
        {
          "duration": 0.09722212500000182,
          "durationTicks": 28,
          "midi": 60,
          "name": "C4",
          "ticks": 40656,
          "time": 141.1665255,
          "velocity": 0.4409448818897638
        },
        {
          "duration": 0.0972221249999734,
          "durationTicks": 28,
          "midi": 71,
          "name": "B4",
          "ticks": 40672,
          "time": 141.222081,
          "velocity": 0.4094488188976378
        },
        {
          "duration": 0.0972221249999734,
          "durationTicks": 28,
          "midi": 59,
          "name": "B3",
          "ticks": 40672,
          "time": 141.222081,
          "velocity": 0.4094488188976378
        },
        {
          "duration": 0.09722212500000182,
          "durationTicks": 28,
          "midi": 70,
          "name": "A#4",
          "ticks": 40688,
          "time": 141.2776365,
          "velocity": 0.3779527559055118
        },
        {
          "duration": 0.09722212500000182,
          "durationTicks": 28,
          "midi": 58,
          "name": "A#3",
          "ticks": 40688,
          "time": 141.2776365,
          "velocity": 0.3779527559055118
        }
      ],
      "endOfTrackTicks": 45698
    },
    {
      "channel": 12,
      "controlChanges": {
        "6": [
          {
            "number": 6,
            "ticks": 0,
            "time": 0,
            "value": 0.09448818897637795
          },
          {
            "number": 6,
            "ticks": 0,
            "time": 0,
            "value": 0.09448818897637795
          },
          {
            "number": 6,
            "ticks": 0,
            "time": 0,
            "value": 0.09448818897637795
          },
          {
            "number": 6,
            "ticks": 45696,
            "time": 158.666508,
            "value": 0.09448818897637795
          },
          {
            "number": 6,
            "ticks": 45698,
            "time": 158.67345243749998,
            "value": 0.09448818897637795
          }
        ],
        "7": [
          {
            "number": 7,
            "ticks": 0,
            "time": 0,
            "value": 0.7874015748031497
          },
          {
            "number": 7,
            "ticks": 0,
            "time": 0,
            "value": 0.7874015748031497
          },
          {
            "number": 7,
            "ticks": 0,
            "time": 0,
            "value": 0.7874015748031497
          },
          {
            "number": 7,
            "ticks": 0,
            "time": 0,
            "value": 0.7874015748031497
          },
          {
            "number": 7,
            "ticks": 45696,
            "time": 158.666508,
            "value": 0.7874015748031497
          },
          {
            "number": 7,
            "ticks": 45698,
            "time": 158.67345243749998,
            "value": 0.7874015748031497
          }
        ],
        "10": [
          {
            "number": 10,
            "ticks": 0,
            "time": 0,
            "value": 0.5039370078740157
          },
          {
            "number": 10,
            "ticks": 0,
            "time": 0,
            "value": 0.5039370078740157
          },
          {
            "number": 10,
            "ticks": 0,
            "time": 0,
            "value": 0.5039370078740157
          },
          {
            "number": 10,
            "ticks": 0,
            "time": 0,
            "value": 0.5039370078740157
          },
          {
            "number": 10,
            "ticks": 45696,
            "time": 158.666508,
            "value": 0.5039370078740157
          },
          {
            "number": 10,
            "ticks": 45698,
            "time": 158.67345243749998,
            "value": 0.5039370078740157
          }
        ],
        "100": [
          {
            "number": 100,
            "ticks": 0,
            "time": 0,
            "value": 0
          },
          {
            "number": 100,
            "ticks": 0,
            "time": 0,
            "value": 0
          },
          {
            "number": 100,
            "ticks": 0,
            "time": 0,
            "value": 0
          },
          {
            "number": 100,
            "ticks": 45696,
            "time": 158.666508,
            "value": 0
          },
          {
            "number": 100,
            "ticks": 45698,
            "time": 158.67345243749998,
            "value": 0
          }
        ],
        "101": [
          {
            "number": 101,
            "ticks": 0,
            "time": 0,
            "value": 0
          },
          {
            "number": 101,
            "ticks": 0,
            "time": 0,
            "value": 0
          },
          {
            "number": 101,
            "ticks": 0,
            "time": 0,
            "value": 0
          },
          {
            "number": 101,
            "ticks": 45696,
            "time": 158.666508,
            "value": 0
          },
          {
            "number": 101,
            "ticks": 45698,
            "time": 158.67345243749998,
            "value": 0
          }
        ]
      },
      "pitchBends": [
        {
          "ticks": 0,
          "time": 0,
          "value": 0
        },
        {
          "ticks": 0,
          "time": 0,
          "value": 0
        },
        {
          "ticks": 0,
          "time": 0,
          "value": 0
        },
        {
          "ticks": 0,
          "time": 0,
          "value": 0
        },
        {
          "ticks": 45696,
          "time": 158.666508,
          "value": 0
        },
        {
          "ticks": 45698,
          "time": 158.67345243749998,
          "value": 0
        }
      ],
      "instrument": {
        "family": "piano",
        "number": 0,
        "name": "acoustic grand piano"
      },
      "name": "Drum",
      "notes": [
        {
          "duration": 0.16666649999999983,
          "durationTicks": 48,
          "midi": 34,
          "name": "A#1",
          "ticks": 768,
          "time": 2.666664,
          "velocity": 0.8110236220472441
        },
        {
          "duration": 0.027777750000000268,
          "durationTicks": 8,
          "midi": 46,
          "name": "A#2",
          "ticks": 864,
          "time": 2.999997,
          "velocity": 0.7086614173228346
        },
        {
          "duration": 0.027777749999999823,
          "durationTicks": 8,
          "midi": 46,
          "name": "A#2",
          "ticks": 960,
          "time": 3.33333,
          "velocity": 0.7086614173228346
        },
        {
          "duration": 0.027777750000000268,
          "durationTicks": 8,
          "midi": 46,
          "name": "A#2",
          "ticks": 1056,
          "time": 3.666663,
          "velocity": 0.7086614173228346
        },
        {
          "duration": 0.027777749999999823,
          "durationTicks": 8,
          "midi": 46,
          "name": "A#2",
          "ticks": 1152,
          "time": 3.999996,
          "velocity": 0.7086614173228346
        },
        {
          "duration": 0.027777750000000268,
          "durationTicks": 8,
          "midi": 46,
          "name": "A#2",
          "ticks": 1248,
          "time": 4.333329,
          "velocity": 0.7086614173228346
        },
        {
          "duration": 0.027777750000000268,
          "durationTicks": 8,
          "midi": 46,
          "name": "A#2",
          "ticks": 1344,
          "time": 4.666662,
          "velocity": 0.7086614173228346
        },
        {
          "duration": 0.027777750000000268,
          "durationTicks": 8,
          "midi": 46,
          "name": "A#2",
          "ticks": 1440,
          "time": 4.999995,
          "velocity": 0.7086614173228346
        },
        {
          "duration": 0.16666649999999983,
          "durationTicks": 48,
          "midi": 33,
          "name": "A1",
          "ticks": 1536,
          "time": 5.333328,
          "velocity": 0.8110236220472441
        },
        {
          "duration": 0.027777750000000268,
          "durationTicks": 8,
          "midi": 45,
          "name": "A2",
          "ticks": 1632,
          "time": 5.6666609999999995,
          "velocity": 0.7086614173228346
        },
        {
          "duration": 0.02777774999999938,
          "durationTicks": 8,
          "midi": 45,
          "name": "A2",
          "ticks": 1728,
          "time": 5.999994,
          "velocity": 0.7086614173228346
        },
        {
          "duration": 0.02777774999999938,
          "durationTicks": 8,
          "midi": 45,
          "name": "A2",
          "ticks": 1824,
          "time": 6.333327,
          "velocity": 0.7086614173228346
        },
        {
          "duration": 0.02777774999999938,
          "durationTicks": 8,
          "midi": 45,
          "name": "A2",
          "ticks": 1920,
          "time": 6.66666,
          "velocity": 0.7086614173228346
        },
        {
          "duration": 0.33333299999999966,
          "durationTicks": 96,
          "midi": 33,
          "name": "A1",
          "ticks": 2016,
          "time": 6.999993,
          "velocity": 0.8110236220472441
        },
        {
          "duration": 0.027777750000000268,
          "durationTicks": 8,
          "midi": 45,
          "name": "A2",
          "ticks": 2112,
          "time": 7.333326,
          "velocity": 0.7086614173228346
        },
        {
          "duration": 0.33333300000000055,
          "durationTicks": 96,
          "midi": 33,
          "name": "A1",
          "ticks": 2160,
          "time": 7.499992499999999,
          "velocity": 0.8110236220472441
        },
        {
          "duration": 0.02777774999999938,
          "durationTicks": 8,
          "midi": 45,
          "name": "A2",
          "ticks": 2208,
          "time": 7.666659,
          "velocity": 0.7086614173228346
        },
        {
          "duration": 0.16666650000000072,
          "durationTicks": 48,
          "midi": 34,
          "name": "A#1",
          "ticks": 2304,
          "time": 7.999992,
          "velocity": 0.8110236220472441
        },
        {
          "duration": 0.02777774999999849,
          "durationTicks": 8,
          "midi": 46,
          "name": "A#2",
          "ticks": 2400,
          "time": 8.333325,
          "velocity": 0.7086614173228346
        },
        {
          "duration": 0.027777750000000268,
          "durationTicks": 8,
          "midi": 46,
          "name": "A#2",
          "ticks": 2496,
          "time": 8.666658,
          "velocity": 0.7086614173228346
        },
        {
          "duration": 0.027777750000000268,
          "durationTicks": 8,
          "midi": 46,
          "name": "A#2",
          "ticks": 2592,
          "time": 8.999991,
          "velocity": 0.7086614173228346
        },
        {
          "duration": 0.027777750000000268,
          "durationTicks": 8,
          "midi": 46,
          "name": "A#2",
          "ticks": 2688,
          "time": 9.333324,
          "velocity": 0.7086614173228346
        },
        {
          "duration": 0.027777750000000268,
          "durationTicks": 8,
          "midi": 46,
          "name": "A#2",
          "ticks": 2784,
          "time": 9.666656999999999,
          "velocity": 0.7086614173228346
        },
        {
          "duration": 0.02777774999999849,
          "durationTicks": 8,
          "midi": 46,
          "name": "A#2",
          "ticks": 2880,
          "time": 9.99999,
          "velocity": 0.7086614173228346
        },
        {
          "duration": 0.02777774999999849,
          "durationTicks": 8,
          "midi": 46,
          "name": "A#2",
          "ticks": 2976,
          "time": 10.333323,
          "velocity": 0.7086614173228346
        },
        {
          "duration": 0.16666649999999983,
          "durationTicks": 48,
          "midi": 33,
          "name": "A1",
          "ticks": 3072,
          "time": 10.666656,
          "velocity": 0.8110236220472441
        },
        {
          "duration": 0.027777750000000268,
          "durationTicks": 8,
          "midi": 45,
          "name": "A2",
          "ticks": 3168,
          "time": 10.999989,
          "velocity": 0.7086614173228346
        },
        {
          "duration": 0.027777750000002044,
          "durationTicks": 8,
          "midi": 45,
          "name": "A2",
          "ticks": 3264,
          "time": 11.333321999999999,
          "velocity": 0.7086614173228346
        },
        {
          "duration": 0.027777750000000268,
          "durationTicks": 8,
          "midi": 45,
          "name": "A2",
          "ticks": 3360,
          "time": 11.666655,
          "velocity": 0.7086614173228346
        },
        {
          "duration": 0.027777750000000268,
          "durationTicks": 8,
          "midi": 45,
          "name": "A2",
          "ticks": 3456,
          "time": 11.999988,
          "velocity": 0.7086614173228346
        },
        {
          "duration": 0.027777750000000268,
          "durationTicks": 8,
          "midi": 45,
          "name": "A2",
          "ticks": 3552,
          "time": 12.333321,
          "velocity": 0.7086614173228346
        },
        {
          "duration": 0.027777750000000268,
          "durationTicks": 8,
          "midi": 45,
          "name": "A2",
          "ticks": 3648,
          "time": 12.666654,
          "velocity": 0.7086614173228346
        },
        {
          "duration": 0.16666649999999983,
          "durationTicks": 48,
          "midi": 26,
          "name": "D1",
          "ticks": 3840,
          "time": 13.33332,
          "velocity": 0.8110236220472441
        },
        {
          "duration": 0.16666649999999983,
          "durationTicks": 48,
          "midi": 38,
          "name": "D2",
          "ticks": 3936,
          "time": 13.666653,
          "velocity": 0.8110236220472441
        },
        {
          "duration": 0.16666649999999983,
          "durationTicks": 48,
          "midi": 26,
          "name": "D1",
          "ticks": 4080,
          "time": 14.1666525,
          "velocity": 0.8110236220472441
        },
        {
          "duration": 0.16666649999999983,
          "durationTicks": 48,
          "midi": 43,
          "name": "G2",
          "ticks": 4128,
          "time": 14.333319,
          "velocity": 0.8110236220472441
        },
        {
          "duration": 0.16666649999999983,
          "durationTicks": 48,
          "midi": 31,
          "name": "G1",
          "ticks": 4224,
          "time": 14.666652,
          "velocity": 0.8110236220472441
        },
        {
          "duration": 0.1666665000000016,
          "durationTicks": 48,
          "midi": 43,
          "name": "G2",
          "ticks": 4320,
          "time": 14.999984999999999,
          "velocity": 0.8110236220472441
        },
        {
          "duration": 0.16666649999999983,
          "durationTicks": 48,
          "midi": 31,
          "name": "G1",
          "ticks": 4368,
          "time": 15.1666515,
          "velocity": 0.8110236220472441
        },
        {
          "duration": 0.16666649999999983,
          "durationTicks": 48,
          "midi": 43,
          "name": "G2",
          "ticks": 4512,
          "time": 15.666651,
          "velocity": 0.8110236220472441
        },
        {
          "duration": 0.16666649999999983,
          "durationTicks": 48,
          "midi": 31,
          "name": "G1",
          "ticks": 4560,
          "time": 15.8333175,
          "velocity": 0.8110236220472441
        },
        {
          "duration": 0.16666649999999983,
          "durationTicks": 48,
          "midi": 33,
          "name": "A1",
          "ticks": 4608,
          "time": 15.999984,
          "velocity": 0.8110236220472441
        },
        {
          "duration": 0.16666649999999805,
          "durationTicks": 48,
          "midi": 45,
          "name": "A2",
          "ticks": 4704,
          "time": 16.333317,
          "velocity": 0.8110236220472441
        },
        {
          "duration": 0.12499987500000032,
          "durationTicks": 36,
          "midi": 33,
          "name": "A1",
          "ticks": 4848,
          "time": 16.8333165,
          "velocity": 0.8110236220472441
        },
        {
          "duration": 0.16666649999999805,
          "durationTicks": 48,
          "midi": 45,
          "name": "A2",
          "ticks": 4896,
          "time": 16.999983,
          "velocity": 0.8110236220472441
        },
        {
          "duration": 0.08333324999999903,
          "durationTicks": 24,
          "midi": 25,
          "name": "C#1",
          "ticks": 4992,
          "time": 17.333316,
          "velocity": 0.8110236220472441
        },
        {
          "duration": 0.08333325000000258,
          "durationTicks": 24,
          "midi": 25,
          "name": "C#1",
          "ticks": 5040,
          "time": 17.499982499999998,
          "velocity": 0.8110236220472441
        },
        {
          "duration": 0.1666665000000016,
          "durationTicks": 48,
          "midi": 37,
          "name": "C#2",
          "ticks": 5088,
          "time": 17.666649,
          "velocity": 0.8110236220472441
        },
        {
          "duration": 0.16666649999999805,
          "durationTicks": 48,
          "midi": 25,
          "name": "C#1",
          "ticks": 5136,
          "time": 17.8333155,
          "velocity": 0.8110236220472441
        },
        {
          "duration": 0.1666665000000016,
          "durationTicks": 48,
          "midi": 37,
          "name": "C#2",
          "ticks": 5280,
          "time": 18.333315,
          "velocity": 0.8110236220472441
        },
        {
          "duration": 0.12499987500000032,
          "durationTicks": 36,
          "midi": 25,
          "name": "C#1",
          "ticks": 5328,
          "time": 18.4999815,
          "velocity": 0.8110236220472441
        },
        {
          "duration": 0.12499987500000032,
          "durationTicks": 36,
          "midi": 23,
          "name": "B0",
          "ticks": 5376,
          "time": 18.666648,
          "velocity": 0.8110236220472441
        },
        {
          "duration": 0.12499987500000032,
          "durationTicks": 36,
          "midi": 35,
          "name": "B1",
          "ticks": 5472,
          "time": 18.999981,
          "velocity": 0.8110236220472441
        },
        {
          "duration": 0.1666665000000016,
          "durationTicks": 48,
          "midi": 23,
          "name": "B0",
          "ticks": 5616,
          "time": 19.4999805,
          "velocity": 0.8110236220472441
        },
        {
          "duration": 0.16666649999999805,
          "durationTicks": 48,
          "midi": 43,
          "name": "G2",
          "ticks": 5664,
          "time": 19.666647,
          "velocity": 0.8110236220472441
        },
        {
          "duration": 0.16666649999999805,
          "durationTicks": 48,
          "midi": 31,
          "name": "G1",
          "ticks": 5760,
          "time": 19.99998,
          "velocity": 0.8110236220472441
        },
        {
          "duration": 0.16666649999999805,
          "durationTicks": 48,
          "midi": 43,
          "name": "G2",
          "ticks": 5856,
          "time": 20.333313,
          "velocity": 0.8110236220472441
        },
        {
          "duration": 0.1666665000000016,
          "durationTicks": 48,
          "midi": 31,
          "name": "G1",
          "ticks": 5904,
          "time": 20.4999795,
          "velocity": 0.8110236220472441
        },
        {
          "duration": 0.16666649999999805,
          "durationTicks": 48,
          "midi": 43,
          "name": "G2",
          "ticks": 6048,
          "time": 20.999979,
          "velocity": 0.8110236220472441
        },
        {
          "duration": 0.1666665000000016,
          "durationTicks": 48,
          "midi": 31,
          "name": "G1",
          "ticks": 6096,
          "time": 21.166645499999998,
          "velocity": 0.8110236220472441
        },
        {
          "duration": 0.1666665000000016,
          "durationTicks": 48,
          "midi": 30,
          "name": "F#1",
          "ticks": 6144,
          "time": 21.333312,
          "velocity": 0.8110236220472441
        },
        {
          "duration": 0.1666665000000016,
          "durationTicks": 48,
          "midi": 42,
          "name": "F#2",
          "ticks": 6240,
          "time": 21.666645,
          "velocity": 0.8110236220472441
        },
        {
          "duration": 0.16666649999999805,
          "durationTicks": 48,
          "midi": 30,
          "name": "F#1",
          "ticks": 6384,
          "time": 22.1666445,
          "velocity": 0.8110236220472441
        },
        {
          "duration": 0.1666665000000016,
          "durationTicks": 48,
          "midi": 42,
          "name": "F#2",
          "ticks": 6432,
          "time": 22.333311,
          "velocity": 0.8110236220472441
        },
        {
          "duration": 0.08333325000000258,
          "durationTicks": 24,
          "midi": 28,
          "name": "E1",
          "ticks": 6528,
          "time": 22.666643999999998,
          "velocity": 0.8110236220472441
        },
        {
          "duration": 0.08333324999999903,
          "durationTicks": 24,
          "midi": 28,
          "name": "E1",
          "ticks": 6576,
          "time": 22.8333105,
          "velocity": 0.8110236220472441
        },
        {
          "duration": 0.1666665000000016,
          "durationTicks": 48,
          "midi": 40,
          "name": "E2",
          "ticks": 6624,
          "time": 22.999976999999998,
          "velocity": 0.8110236220472441
        },
        {
          "duration": 0.1666665000000016,
          "durationTicks": 48,
          "midi": 28,
          "name": "E1",
          "ticks": 6672,
          "time": 23.1666435,
          "velocity": 0.8110236220472441
        },
        {
          "duration": 0.16666649999999805,
          "durationTicks": 48,
          "midi": 40,
          "name": "E2",
          "ticks": 6816,
          "time": 23.666643,
          "velocity": 0.8110236220472441
        },
        {
          "duration": 0.1666665000000016,
          "durationTicks": 48,
          "midi": 28,
          "name": "E1",
          "ticks": 6864,
          "time": 23.8333095,
          "velocity": 0.8110236220472441
        },
        {
          "duration": 0.08333324999999903,
          "durationTicks": 24,
          "midi": 42,
          "name": "F#2",
          "ticks": 6912,
          "time": 23.999976,
          "velocity": 0.6929133858267716
        },
        {
          "duration": 0.08333324999999903,
          "durationTicks": 24,
          "midi": 42,
          "name": "F#2",
          "ticks": 7008,
          "time": 24.333309,
          "velocity": 0.6929133858267716
        },
        {
          "duration": 0.08333324999999903,
          "durationTicks": 24,
          "midi": 42,
          "name": "F#2",
          "ticks": 7104,
          "time": 24.666642,
          "velocity": 0.6929133858267716
        },
        {
          "duration": 0.08333324999999903,
          "durationTicks": 24,
          "midi": 42,
          "name": "F#2",
          "ticks": 7200,
          "time": 24.999975,
          "velocity": 0.6929133858267716
        },
        {
          "duration": 0.08333324999999903,
          "durationTicks": 24,
          "midi": 42,
          "name": "F#2",
          "ticks": 7296,
          "time": 25.333308,
          "velocity": 0.6929133858267716
        },
        {
          "duration": 0.08333324999999903,
          "durationTicks": 24,
          "midi": 42,
          "name": "F#2",
          "ticks": 7392,
          "time": 25.666641,
          "velocity": 0.6929133858267716
        },
        {
          "duration": 0.08333325000000258,
          "durationTicks": 24,
          "midi": 42,
          "name": "F#2",
          "ticks": 7488,
          "time": 25.999973999999998,
          "velocity": 0.6929133858267716
        },
        {
          "duration": 0.08333325000000258,
          "durationTicks": 24,
          "midi": 42,
          "name": "F#2",
          "ticks": 7584,
          "time": 26.333306999999998,
          "velocity": 0.6929133858267716
        },
        {
          "duration": 0.08333324999999903,
          "durationTicks": 24,
          "midi": 41,
          "name": "F2",
          "ticks": 7680,
          "time": 26.66664,
          "velocity": 0.6929133858267716
        },
        {
          "duration": 0.08333324999999903,
          "durationTicks": 24,
          "midi": 41,
          "name": "F2",
          "ticks": 7776,
          "time": 26.999973,
          "velocity": 0.6929133858267716
        },
        {
          "duration": 0.08333324999999903,
          "durationTicks": 24,
          "midi": 41,
          "name": "F2",
          "ticks": 7872,
          "time": 27.333306,
          "velocity": 0.6929133858267716
        },
        {
          "duration": 0.08333324999999903,
          "durationTicks": 24,
          "midi": 41,
          "name": "F2",
          "ticks": 7968,
          "time": 27.666639,
          "velocity": 0.6929133858267716
        },
        {
          "duration": 0.08333324999999903,
          "durationTicks": 24,
          "midi": 41,
          "name": "F2",
          "ticks": 8064,
          "time": 27.999972,
          "velocity": 0.6929133858267716
        },
        {
          "duration": 0.08333324999999903,
          "durationTicks": 24,
          "midi": 41,
          "name": "F2",
          "ticks": 8160,
          "time": 28.333305,
          "velocity": 0.6929133858267716
        },
        {
          "duration": 0.08333324999999903,
          "durationTicks": 24,
          "midi": 41,
          "name": "F2",
          "ticks": 8256,
          "time": 28.666638,
          "velocity": 0.6929133858267716
        },
        {
          "duration": 0.08333324999999903,
          "durationTicks": 24,
          "midi": 41,
          "name": "F2",
          "ticks": 8352,
          "time": 28.999971,
          "velocity": 0.6929133858267716
        },
        {
          "duration": 0.08333325000000258,
          "durationTicks": 24,
          "midi": 46,
          "name": "A#2",
          "ticks": 8448,
          "time": 29.333304,
          "velocity": 0.6929133858267716
        },
        {
          "duration": 0.08333324999999903,
          "durationTicks": 24,
          "midi": 46,
          "name": "A#2",
          "ticks": 8520,
          "time": 29.58330375,
          "velocity": 0.6929133858267716
        },
        {
          "duration": 0.08333324999999903,
          "durationTicks": 24,
          "midi": 46,
          "name": "A#2",
          "ticks": 8568,
          "time": 29.74997025,
          "velocity": 0.6929133858267716
        },
        {
          "duration": 0.08333325000000258,
          "durationTicks": 24,
          "midi": 46,
          "name": "A#2",
          "ticks": 8640,
          "time": 29.999969999999998,
          "velocity": 0.6929133858267716
        },
        {
          "duration": 0.08333325000000258,
          "durationTicks": 24,
          "midi": 46,
          "name": "A#2",
          "ticks": 8712,
          "time": 30.249969749999998,
          "velocity": 0.6929133858267716
        },
        {
          "duration": 0.08333324999999903,
          "durationTicks": 24,
          "midi": 46,
          "name": "A#2",
          "ticks": 8760,
          "time": 30.41663625,
          "velocity": 0.6929133858267716
        },
        {
          "duration": 0.08333324999999903,
          "durationTicks": 24,
          "midi": 46,
          "name": "A#2",
          "ticks": 8832,
          "time": 30.666636,
          "velocity": 0.6929133858267716
        },
        {
          "duration": 0.08333325000000258,
          "durationTicks": 24,
          "midi": 46,
          "name": "A#2",
          "ticks": 8904,
          "time": 30.916635749999998,
          "velocity": 0.6929133858267716
        },
        {
          "duration": 0.08333324999999903,
          "durationTicks": 24,
          "midi": 46,
          "name": "A#2",
          "ticks": 8952,
          "time": 31.08330225,
          "velocity": 0.6929133858267716
        },
        {
          "duration": 0.08333324999999903,
          "durationTicks": 24,
          "midi": 46,
          "name": "A#2",
          "ticks": 9000,
          "time": 31.24996875,
          "velocity": 0.6929133858267716
        },
        {
          "duration": 0.08333324999999903,
          "durationTicks": 24,
          "midi": 46,
          "name": "A#2",
          "ticks": 9024,
          "time": 31.333302,
          "velocity": 0.6929133858267716
        },
        {
          "duration": 0.08333324999999903,
          "durationTicks": 24,
          "midi": 46,
          "name": "A#2",
          "ticks": 9096,
          "time": 31.58330175,
          "velocity": 0.6929133858267716
        },
        {
          "duration": 0.08333324999999903,
          "durationTicks": 24,
          "midi": 46,
          "name": "A#2",
          "ticks": 9144,
          "time": 31.74996825,
          "velocity": 0.6929133858267716
        },
        {
          "duration": 0.08333324999999903,
          "durationTicks": 24,
          "midi": 46,
          "name": "A#2",
          "ticks": 9192,
          "time": 31.91663475,
          "velocity": 0.6929133858267716
        },
        {
          "duration": 0.08333324999999903,
          "durationTicks": 24,
          "midi": 47,
          "name": "B2",
          "ticks": 9216,
          "time": 31.999968,
          "velocity": 0.6929133858267716
        },
        {
          "duration": 0.08333324999999547,
          "durationTicks": 24,
          "midi": 47,
          "name": "B2",
          "ticks": 9264,
          "time": 32.1666345,
          "velocity": 0.6929133858267716
        },
        {
          "duration": 0.08333325000000258,
          "durationTicks": 24,
          "midi": 47,
          "name": "B2",
          "ticks": 9312,
          "time": 32.333301,
          "velocity": 0.6929133858267716
        },
        {
          "duration": 0.08333325000000258,
          "durationTicks": 24,
          "midi": 47,
          "name": "B2",
          "ticks": 9360,
          "time": 32.4999675,
          "velocity": 0.6929133858267716
        },
        {
          "duration": 0.08333324999999547,
          "durationTicks": 24,
          "midi": 47,
          "name": "B2",
          "ticks": 9408,
          "time": 32.666634,
          "velocity": 0.6929133858267716
        },
        {
          "duration": 0.08333325000000258,
          "durationTicks": 24,
          "midi": 47,
          "name": "B2",
          "ticks": 9456,
          "time": 32.8333005,
          "velocity": 0.6929133858267716
        },
        {
          "duration": 0.08333325000000258,
          "durationTicks": 24,
          "midi": 47,
          "name": "B2",
          "ticks": 9504,
          "time": 32.999967,
          "velocity": 0.6929133858267716
        },
        {
          "duration": 0.08333325000000258,
          "durationTicks": 24,
          "midi": 47,
          "name": "B2",
          "ticks": 9552,
          "time": 33.166633499999996,
          "velocity": 0.6929133858267716
        },
        {
          "duration": 0.04166662499999774,
          "durationTicks": 12,
          "midi": 47,
          "name": "B2",
          "ticks": 9600,
          "time": 33.3333,
          "velocity": 0.6929133858267716
        },
        {
          "duration": 0.04166662500000484,
          "durationTicks": 12,
          "midi": 47,
          "name": "B2",
          "ticks": 9624,
          "time": 33.41663325,
          "velocity": 0.6929133858267716
        },
        {
          "duration": 0.04166662499999774,
          "durationTicks": 12,
          "midi": 47,
          "name": "B2",
          "ticks": 9648,
          "time": 33.4999665,
          "velocity": 0.6929133858267716
        },
        {
          "duration": 0.04166662500000484,
          "durationTicks": 12,
          "midi": 47,
          "name": "B2",
          "ticks": 9696,
          "time": 33.666633,
          "velocity": 0.6929133858267716
        },
        {
          "duration": 0.04166662499999774,
          "durationTicks": 12,
          "midi": 47,
          "name": "B2",
          "ticks": 9720,
          "time": 33.74996625,
          "velocity": 0.6929133858267716
        },
        {
          "duration": 0.04166662499999774,
          "durationTicks": 12,
          "midi": 47,
          "name": "B2",
          "ticks": 9744,
          "time": 33.8332995,
          "velocity": 0.6929133858267716
        },
        {
          "duration": 0.16666649999999805,
          "durationTicks": 48,
          "midi": 33,
          "name": "A1",
          "ticks": 9984,
          "time": 34.666632,
          "velocity": 0.8110236220472441
        },
        {
          "duration": 0.16666650000000516,
          "durationTicks": 48,
          "midi": 33,
          "name": "A1",
          "ticks": 10752,
          "time": 37.333296,
          "velocity": 0.8110236220472441
        },
        {
          "duration": 0.16666649999999805,
          "durationTicks": 48,
          "midi": 33,
          "name": "A1",
          "ticks": 10848,
          "time": 37.666629,
          "velocity": 0.8110236220472441
        },
        {
          "duration": 0.16666650000000516,
          "durationTicks": 48,
          "midi": 33,
          "name": "A1",
          "ticks": 10944,
          "time": 37.999962,
          "velocity": 0.8110236220472441
        },
        {
          "duration": 0.16666649999999805,
          "durationTicks": 48,
          "midi": 33,
          "name": "A1",
          "ticks": 11040,
          "time": 38.333295,
          "velocity": 0.8110236220472441
        },
        {
          "duration": 0.3333330000000032,
          "durationTicks": 96,
          "midi": 33,
          "name": "A1",
          "ticks": 11088,
          "time": 38.4999615,
          "velocity": 0.8110236220472441
        },
        {
          "duration": 0.16666649999999805,
          "durationTicks": 48,
          "midi": 33,
          "name": "A1",
          "ticks": 11184,
          "time": 38.8332945,
          "velocity": 0.8110236220472441
        },
        {
          "duration": 0.16666649999999805,
          "durationTicks": 48,
          "midi": 33,
          "name": "A1",
          "ticks": 11232,
          "time": 38.999961,
          "velocity": 0.8110236220472441
        },
        {
          "duration": 0.16666649999999805,
          "durationTicks": 48,
          "midi": 28,
          "name": "E1",
          "ticks": 11328,
          "time": 39.333294,
          "velocity": 0.8110236220472441
        },
        {
          "duration": 0.16666649999999805,
          "durationTicks": 48,
          "midi": 34,
          "name": "A#1",
          "ticks": 11424,
          "time": 39.666627,
          "velocity": 0.8110236220472441
        },
        {
          "duration": 0.16666649999999805,
          "durationTicks": 48,
          "midi": 33,
          "name": "A1",
          "ticks": 11520,
          "time": 39.99996,
          "velocity": 0.8110236220472441
        },
        {
          "duration": 0.16666649999999805,
          "durationTicks": 48,
          "midi": 33,
          "name": "A1",
          "ticks": 11616,
          "time": 40.333293,
          "velocity": 0.8110236220472441
        },
        {
          "duration": 0.16666649999999805,
          "durationTicks": 48,
          "midi": 33,
          "name": "A1",
          "ticks": 11712,
          "time": 40.666626,
          "velocity": 0.8110236220472441
        },
        {
          "duration": 0.16666650000000516,
          "durationTicks": 48,
          "midi": 33,
          "name": "A1",
          "ticks": 11808,
          "time": 40.999959,
          "velocity": 0.8110236220472441
        },
        {
          "duration": 0.16666649999999805,
          "durationTicks": 48,
          "midi": 33,
          "name": "A1",
          "ticks": 11904,
          "time": 41.333292,
          "velocity": 0.8110236220472441
        },
        {
          "duration": 0.16666650000000516,
          "durationTicks": 48,
          "midi": 33,
          "name": "A1",
          "ticks": 12000,
          "time": 41.666624999999996,
          "velocity": 0.8110236220472441
        },
        {
          "duration": 0.16666649999999805,
          "durationTicks": 48,
          "midi": 35,
          "name": "B1",
          "ticks": 12096,
          "time": 41.999958,
          "velocity": 0.8110236220472441
        },
        {
          "duration": 0.16666650000000516,
          "durationTicks": 48,
          "midi": 34,
          "name": "A#1",
          "ticks": 12192,
          "time": 42.333290999999996,
          "velocity": 0.8110236220472441
        },
        {
          "duration": 0.16666649999999805,
          "durationTicks": 48,
          "midi": 33,
          "name": "A1",
          "ticks": 12288,
          "time": 42.666624,
          "velocity": 0.8110236220472441
        },
        {
          "duration": 0.16666649999999805,
          "durationTicks": 48,
          "midi": 33,
          "name": "A1",
          "ticks": 12384,
          "time": 42.999957,
          "velocity": 0.8110236220472441
        },
        {
          "duration": 0.16666649999999805,
          "durationTicks": 48,
          "midi": 33,
          "name": "A1",
          "ticks": 12480,
          "time": 43.33329,
          "velocity": 0.8110236220472441
        },
        {
          "duration": 0.16666649999999805,
          "durationTicks": 48,
          "midi": 33,
          "name": "A1",
          "ticks": 12576,
          "time": 43.666623,
          "velocity": 0.8110236220472441
        },
        {
          "duration": 0.3333329999999961,
          "durationTicks": 96,
          "midi": 33,
          "name": "A1",
          "ticks": 12624,
          "time": 43.8332895,
          "velocity": 0.8110236220472441
        },
        {
          "duration": 0.16666650000000516,
          "durationTicks": 48,
          "midi": 33,
          "name": "A1",
          "ticks": 12720,
          "time": 44.166622499999995,
          "velocity": 0.8110236220472441
        },
        {
          "duration": 0.16666649999999805,
          "durationTicks": 48,
          "midi": 33,
          "name": "A1",
          "ticks": 12768,
          "time": 44.333289,
          "velocity": 0.8110236220472441
        },
        {
          "duration": 0.16666650000000516,
          "durationTicks": 48,
          "midi": 28,
          "name": "E1",
          "ticks": 12864,
          "time": 44.666622,
          "velocity": 0.8110236220472441
        },
        {
          "duration": 0.16666649999999805,
          "durationTicks": 48,
          "midi": 34,
          "name": "A#1",
          "ticks": 12960,
          "time": 44.999955,
          "velocity": 0.8110236220472441
        },
        {
          "duration": 0.16666650000000516,
          "durationTicks": 48,
          "midi": 33,
          "name": "A1",
          "ticks": 13056,
          "time": 45.333287999999996,
          "velocity": 0.8110236220472441
        },
        {
          "duration": 0.16666649999999805,
          "durationTicks": 48,
          "midi": 33,
          "name": "A1",
          "ticks": 13152,
          "time": 45.666621,
          "velocity": 0.8110236220472441
        },
        {
          "duration": 0.16666650000000516,
          "durationTicks": 48,
          "midi": 33,
          "name": "A1",
          "ticks": 13248,
          "time": 45.999953999999995,
          "velocity": 0.8110236220472441
        },
        {
          "duration": 0.16666649999999805,
          "durationTicks": 48,
          "midi": 33,
          "name": "A1",
          "ticks": 13344,
          "time": 46.333287,
          "velocity": 0.8110236220472441
        },
        {
          "duration": 0.16666650000000516,
          "durationTicks": 48,
          "midi": 29,
          "name": "F1",
          "ticks": 13392,
          "time": 46.4999535,
          "velocity": 0.8110236220472441
        },
        {
          "duration": 0.16666649999999805,
          "durationTicks": 48,
          "midi": 36,
          "name": "C2",
          "ticks": 13536,
          "time": 46.999953,
          "velocity": 0.8110236220472441
        },
        {
          "duration": 0.16666649999999805,
          "durationTicks": 48,
          "midi": 36,
          "name": "C2",
          "ticks": 13632,
          "time": 47.333286,
          "velocity": 0.8110236220472441
        },
        {
          "duration": 0.04166662499999774,
          "durationTicks": 12,
          "midi": 33,
          "name": "A1",
          "ticks": 13872,
          "time": 48.1666185,
          "velocity": 0.3464566929133858
        },
        {
          "duration": 0.04166662500000484,
          "durationTicks": 12,
          "midi": 33,
          "name": "A1",
          "ticks": 13884,
          "time": 48.208285124999996,
          "velocity": 0.44881889763779526
        },
        {
          "duration": 0.04166662499999774,
          "durationTicks": 12,
          "midi": 33,
          "name": "A1",
          "ticks": 13896,
          "time": 48.24995175,
          "velocity": 0.5590551181102362
        },
        {
          "duration": 0.04166662499999774,
          "durationTicks": 12,
          "midi": 33,
          "name": "A1",
          "ticks": 13908,
          "time": 48.291618375,
          "velocity": 0.6614173228346457
        },
        {
          "duration": 0.16666650000000516,
          "durationTicks": 48,
          "midi": 33,
          "name": "A1",
          "ticks": 13920,
          "time": 48.333285,
          "velocity": 0.8110236220472441
        },
        {
          "duration": 0.16666649999999805,
          "durationTicks": 48,
          "midi": 33,
          "name": "A1",
          "ticks": 14016,
          "time": 48.666618,
          "velocity": 0.8110236220472441
        },
        {
          "duration": 0.16666650000000516,
          "durationTicks": 48,
          "midi": 33,
          "name": "A1",
          "ticks": 14112,
          "time": 48.999950999999996,
          "velocity": 0.8110236220472441
        },
        {
          "duration": 0.3333329999999961,
          "durationTicks": 96,
          "midi": 33,
          "name": "A1",
          "ticks": 14160,
          "time": 49.1666175,
          "velocity": 0.8110236220472441
        },
        {
          "duration": 0.16666649999999805,
          "durationTicks": 48,
          "midi": 33,
          "name": "A1",
          "ticks": 14256,
          "time": 49.4999505,
          "velocity": 0.8110236220472441
        },
        {
          "duration": 0.16666650000000516,
          "durationTicks": 48,
          "midi": 33,
          "name": "A1",
          "ticks": 14304,
          "time": 49.666616999999995,
          "velocity": 0.8110236220472441
        },
        {
          "duration": 0.16666649999999805,
          "durationTicks": 48,
          "midi": 28,
          "name": "E1",
          "ticks": 14400,
          "time": 49.99995,
          "velocity": 0.8110236220472441
        },
        {
          "duration": 0.16666649999999805,
          "durationTicks": 48,
          "midi": 34,
          "name": "A#1",
          "ticks": 14496,
          "time": 50.333283,
          "velocity": 0.8110236220472441
        },
        {
          "duration": 0.16666649999999805,
          "durationTicks": 48,
          "midi": 33,
          "name": "A1",
          "ticks": 14592,
          "time": 50.666616,
          "velocity": 0.8110236220472441
        },
        {
          "duration": 0.16666649999999805,
          "durationTicks": 48,
          "midi": 33,
          "name": "A1",
          "ticks": 14688,
          "time": 50.999949,
          "velocity": 0.8110236220472441
        },
        {
          "duration": 0.16666649999999805,
          "durationTicks": 48,
          "midi": 33,
          "name": "A1",
          "ticks": 14784,
          "time": 51.333282,
          "velocity": 0.8110236220472441
        },
        {
          "duration": 0.16666649999999805,
          "durationTicks": 48,
          "midi": 33,
          "name": "A1",
          "ticks": 14880,
          "time": 51.666615,
          "velocity": 0.8110236220472441
        },
        {
          "duration": 0.16666650000000516,
          "durationTicks": 48,
          "midi": 33,
          "name": "A1",
          "ticks": 14976,
          "time": 51.999947999999996,
          "velocity": 0.8110236220472441
        },
        {
          "duration": 0.16666649999999805,
          "durationTicks": 48,
          "midi": 33,
          "name": "A1",
          "ticks": 15072,
          "time": 52.333281,
          "velocity": 0.8110236220472441
        },
        {
          "duration": 0.16666650000000516,
          "durationTicks": 48,
          "midi": 35,
          "name": "B1",
          "ticks": 15168,
          "time": 52.666613999999996,
          "velocity": 0.8110236220472441
        },
        {
          "duration": 0.16666649999999805,
          "durationTicks": 48,
          "midi": 34,
          "name": "A#1",
          "ticks": 15264,
          "time": 52.999947,
          "velocity": 0.8110236220472441
        },
        {
          "duration": 0.16666649999999805,
          "durationTicks": 48,
          "midi": 33,
          "name": "A1",
          "ticks": 15360,
          "time": 53.33328,
          "velocity": 0.8110236220472441
        },
        {
          "duration": 0.3333330000000032,
          "durationTicks": 96,
          "midi": 33,
          "name": "A1",
          "ticks": 15696,
          "time": 54.499945499999995,
          "velocity": 0.8110236220472441
        },
        {
          "duration": 0.16666649999999805,
          "durationTicks": 48,
          "midi": 33,
          "name": "A1",
          "ticks": 15792,
          "time": 54.8332785,
          "velocity": 0.8110236220472441
        },
        {
          "duration": 0.16666650000000516,
          "durationTicks": 48,
          "midi": 33,
          "name": "A1",
          "ticks": 15840,
          "time": 54.999945,
          "velocity": 0.8110236220472441
        },
        {
          "duration": 0.16666649999999805,
          "durationTicks": 48,
          "midi": 28,
          "name": "E1",
          "ticks": 15936,
          "time": 55.333278,
          "velocity": 0.8110236220472441
        },
        {
          "duration": 0.16666650000000516,
          "durationTicks": 48,
          "midi": 34,
          "name": "A#1",
          "ticks": 16032,
          "time": 55.666610999999996,
          "velocity": 0.8110236220472441
        },
        {
          "duration": 0.16666649999999805,
          "durationTicks": 48,
          "midi": 33,
          "name": "A1",
          "ticks": 16128,
          "time": 55.999944,
          "velocity": 0.8110236220472441
        },
        {
          "duration": 0.16666650000000516,
          "durationTicks": 48,
          "midi": 33,
          "name": "A1",
          "ticks": 16224,
          "time": 56.333276999999995,
          "velocity": 0.8110236220472441
        },
        {
          "duration": 0.16666649999999805,
          "durationTicks": 48,
          "midi": 33,
          "name": "A1",
          "ticks": 16320,
          "time": 56.66661,
          "velocity": 0.8110236220472441
        },
        {
          "duration": 0.16666649999999805,
          "durationTicks": 48,
          "midi": 33,
          "name": "A1",
          "ticks": 16416,
          "time": 56.999943,
          "velocity": 0.8110236220472441
        },
        {
          "duration": 0.16666649999999805,
          "durationTicks": 48,
          "midi": 29,
          "name": "F1",
          "ticks": 16464,
          "time": 57.1666095,
          "velocity": 0.8110236220472441
        },
        {
          "duration": 0.12499987500000032,
          "durationTicks": 36,
          "midi": 29,
          "name": "F1",
          "ticks": 16608,
          "time": 57.666609,
          "velocity": 0.8031496062992126
        },
        {
          "duration": 0.12499987500000032,
          "durationTicks": 36,
          "midi": 28,
          "name": "E1",
          "ticks": 16704,
          "time": 57.999942,
          "velocity": 0.8031496062992126
        },
        {
          "duration": 0.12499987500000032,
          "durationTicks": 36,
          "midi": 28,
          "name": "E1",
          "ticks": 16752,
          "time": 58.166608499999995,
          "velocity": 0.8031496062992126
        },
        {
          "duration": 0.16666650000000516,
          "durationTicks": 48,
          "midi": 34,
          "name": "A#1",
          "ticks": 16896,
          "time": 58.666608,
          "velocity": 0.8110236220472441
        },
        {
          "duration": 0.16666649999999805,
          "durationTicks": 48,
          "midi": 33,
          "name": "A1",
          "ticks": 17664,
          "time": 61.333272,
          "velocity": 0.8110236220472441
        },
        {
          "duration": 0.04166662499999774,
          "durationTicks": 12,
          "midi": 33,
          "name": "A1",
          "ticks": 18240,
          "time": 63.33327,
          "velocity": 0.4330708661417323
        },
        {
          "duration": 0.04166662500000484,
          "durationTicks": 12,
          "midi": 33,
          "name": "A1",
          "ticks": 18252,
          "time": 63.374936625,
          "velocity": 0.48031496062992124
        },
        {
          "duration": 0.04166662499999774,
          "durationTicks": 12,
          "midi": 33,
          "name": "A1",
          "ticks": 18264,
          "time": 63.41660325,
          "velocity": 0.5275590551181102
        },
        {
          "duration": 0.04166662499999774,
          "durationTicks": 12,
          "midi": 33,
          "name": "A1",
          "ticks": 18276,
          "time": 63.458269875,
          "velocity": 0.5748031496062992
        },
        {
          "duration": 0.04166662499999774,
          "durationTicks": 12,
          "midi": 33,
          "name": "A1",
          "ticks": 18288,
          "time": 63.4999365,
          "velocity": 0.6220472440944882
        },
        {
          "duration": 0.04166662500000484,
          "durationTicks": 12,
          "midi": 33,
          "name": "A1",
          "ticks": 18300,
          "time": 63.541603124999995,
          "velocity": 0.6692913385826772
        },
        {
          "duration": 0.04166662499999774,
          "durationTicks": 12,
          "midi": 33,
          "name": "A1",
          "ticks": 18312,
          "time": 63.58326975,
          "velocity": 0.7086614173228346
        },
        {
          "duration": 0.04166662499999774,
          "durationTicks": 12,
          "midi": 33,
          "name": "A1",
          "ticks": 18324,
          "time": 63.624936375,
          "velocity": 0.7559055118110236
        },
        {
          "duration": 0.04166662500000484,
          "durationTicks": 12,
          "midi": 33,
          "name": "A1",
          "ticks": 18336,
          "time": 63.666602999999995,
          "velocity": 0.8110236220472441
        },
        {
          "duration": 0.04166662499999774,
          "durationTicks": 12,
          "midi": 33,
          "name": "A1",
          "ticks": 18360,
          "time": 63.74993625,
          "velocity": 0.8110236220472441
        },
        {
          "duration": 0.04166662499999774,
          "durationTicks": 12,
          "midi": 33,
          "name": "A1",
          "ticks": 18384,
          "time": 63.8332695,
          "velocity": 0.8110236220472441
        },
        {
          "duration": 0.04166662500000484,
          "durationTicks": 12,
          "midi": 33,
          "name": "A1",
          "ticks": 18408,
          "time": 63.916602749999996,
          "velocity": 0.8110236220472441
        },
        {
          "duration": 0.16666649999999805,
          "durationTicks": 48,
          "midi": 34,
          "name": "A#1",
          "ticks": 18432,
          "time": 63.999936,
          "velocity": 0.8110236220472441
        },
        {
          "duration": 0.16666649999999095,
          "durationTicks": 48,
          "midi": 34,
          "name": "A#1",
          "ticks": 18528,
          "time": 64.333269,
          "velocity": 0.8110236220472441
        },
        {
          "duration": 0.16666650000000516,
          "durationTicks": 48,
          "midi": 34,
          "name": "A#1",
          "ticks": 18624,
          "time": 64.666602,
          "velocity": 0.8110236220472441
        },
        {
          "duration": 0.16666650000000516,
          "durationTicks": 48,
          "midi": 34,
          "name": "A#1",
          "ticks": 18720,
          "time": 64.999935,
          "velocity": 0.8110236220472441
        },
        {
          "duration": 0.16666649999999095,
          "durationTicks": 48,
          "midi": 34,
          "name": "A#1",
          "ticks": 18816,
          "time": 65.333268,
          "velocity": 0.8110236220472441
        },
        {
          "duration": 0.16666650000000516,
          "durationTicks": 48,
          "midi": 34,
          "name": "A#1",
          "ticks": 18912,
          "time": 65.666601,
          "velocity": 0.8110236220472441
        },
        {
          "duration": 0.16666650000000516,
          "durationTicks": 48,
          "midi": 34,
          "name": "A#1",
          "ticks": 19008,
          "time": 65.999934,
          "velocity": 0.8110236220472441
        },
        {
          "duration": 0.16666650000000516,
          "durationTicks": 48,
          "midi": 34,
          "name": "A#1",
          "ticks": 19104,
          "time": 66.33326699999999,
          "velocity": 0.8110236220472441
        },
        {
          "duration": 0.16666649999999095,
          "durationTicks": 48,
          "midi": 33,
          "name": "A1",
          "ticks": 19200,
          "time": 66.6666,
          "velocity": 0.8110236220472441
        },
        {
          "duration": 0.16666649999999095,
          "durationTicks": 48,
          "midi": 45,
          "name": "A2",
          "ticks": 19200,
          "time": 66.6666,
          "velocity": 0.8110236220472441
        },
        {
          "duration": 0.16666650000000516,
          "durationTicks": 48,
          "midi": 45,
          "name": "A2",
          "ticks": 19296,
          "time": 66.999933,
          "velocity": 0.7795275590551181
        },
        {
          "duration": 0.16666650000000516,
          "durationTicks": 48,
          "midi": 33,
          "name": "A1",
          "ticks": 19296,
          "time": 66.999933,
          "velocity": 0.8110236220472441
        },
        {
          "duration": 0.16666650000000516,
          "durationTicks": 48,
          "midi": 33,
          "name": "A1",
          "ticks": 19392,
          "time": 67.333266,
          "velocity": 0.8110236220472441
        },
        {
          "duration": 0.16666650000000516,
          "durationTicks": 48,
          "midi": 45,
          "name": "A2",
          "ticks": 19392,
          "time": 67.333266,
          "velocity": 0.7795275590551181
        },
        {
          "duration": 0.16666649999999095,
          "durationTicks": 48,
          "midi": 33,
          "name": "A1",
          "ticks": 19488,
          "time": 67.666599,
          "velocity": 0.8110236220472441
        },
        {
          "duration": 0.16666649999999095,
          "durationTicks": 48,
          "midi": 45,
          "name": "A2",
          "ticks": 19488,
          "time": 67.666599,
          "velocity": 0.7795275590551181
        },
        {
          "duration": 0.12152765624999518,
          "durationTicks": 35,
          "midi": 33,
          "name": "A1",
          "ticks": 19968,
          "time": 69.333264,
          "velocity": 0.8110236220472441
        },
        {
          "duration": 0.12152765625000939,
          "durationTicks": 35,
          "midi": 33,
          "name": "A1",
          "ticks": 20160,
          "time": 69.99992999999999,
          "velocity": 0.8110236220472441
        },
        {
          "duration": 0.12152765625000939,
          "durationTicks": 35,
          "midi": 33,
          "name": "A1",
          "ticks": 20208,
          "time": 70.1665965,
          "velocity": 0.8110236220472441
        },
        {
          "duration": 0.12152765625000939,
          "durationTicks": 35,
          "midi": 33,
          "name": "A1",
          "ticks": 20352,
          "time": 70.666596,
          "velocity": 0.8110236220472441
        },
        {
          "duration": 0.12152765624999518,
          "durationTicks": 35,
          "midi": 33,
          "name": "A1",
          "ticks": 20400,
          "time": 70.8332625,
          "velocity": 0.8110236220472441
        },
        {
          "duration": 0.12152765624999518,
          "durationTicks": 35,
          "midi": 33,
          "name": "A1",
          "ticks": 20544,
          "time": 71.333262,
          "velocity": 0.8110236220472441
        },
        {
          "duration": 0.12152765625000939,
          "durationTicks": 35,
          "midi": 33,
          "name": "A1",
          "ticks": 20592,
          "time": 71.4999285,
          "velocity": 0.8110236220472441
        },
        {
          "duration": 0.28819415625000033,
          "durationTicks": 83,
          "midi": 33,
          "name": "A1",
          "ticks": 20736,
          "time": 71.999928,
          "velocity": 0.8110236220472441
        },
        {
          "duration": 0.12152765624999518,
          "durationTicks": 35,
          "midi": 33,
          "name": "A1",
          "ticks": 20928,
          "time": 72.666594,
          "velocity": 0.8110236220472441
        },
        {
          "duration": 0.12152765625000939,
          "durationTicks": 35,
          "midi": 33,
          "name": "A1",
          "ticks": 20976,
          "time": 72.8332605,
          "velocity": 0.8110236220472441
        },
        {
          "duration": 0.12152765625000939,
          "durationTicks": 35,
          "midi": 33,
          "name": "A1",
          "ticks": 21120,
          "time": 73.33326,
          "velocity": 0.8110236220472441
        },
        {
          "duration": 0.12152765625000939,
          "durationTicks": 35,
          "midi": 33,
          "name": "A1",
          "ticks": 21264,
          "time": 73.8332595,
          "velocity": 0.8110236220472441
        },
        {
          "duration": 0.28819415625000033,
          "durationTicks": 83,
          "midi": 37,
          "name": "C#2",
          "ticks": 21312,
          "time": 73.999926,
          "velocity": 0.8110236220472441
        },
        {
          "duration": 0.28819415625000033,
          "durationTicks": 83,
          "midi": 34,
          "name": "A#1",
          "ticks": 21408,
          "time": 74.333259,
          "velocity": 0.8110236220472441
        },
        {
          "duration": 0.3159719062499988,
          "durationTicks": 91,
          "midi": 26,
          "name": "D1",
          "ticks": 21504,
          "time": 74.666592,
          "velocity": 0.8110236220472441
        },
        {
          "duration": 0.12152765624999518,
          "durationTicks": 35,
          "midi": 38,
          "name": "D2",
          "ticks": 21696,
          "time": 75.333258,
          "velocity": 0.8110236220472441
        },
        {
          "duration": 0.3159719062499988,
          "durationTicks": 91,
          "midi": 26,
          "name": "D1",
          "ticks": 21792,
          "time": 75.666591,
          "velocity": 0.8110236220472441
        },
        {
          "duration": 0.12152765625000939,
          "durationTicks": 35,
          "midi": 26,
          "name": "D1",
          "ticks": 21936,
          "time": 76.1665905,
          "velocity": 0.8110236220472441
        },
        {
          "duration": 0.3159719062499846,
          "durationTicks": 91,
          "midi": 26,
          "name": "D1",
          "ticks": 21984,
          "time": 76.333257,
          "velocity": 0.8110236220472441
        },
        {
          "duration": 0.09374990624999668,
          "durationTicks": 27,
          "midi": 38,
          "name": "D2",
          "ticks": 22080,
          "time": 76.66659,
          "velocity": 0.8110236220472441
        },
        {
          "duration": 0.3159719062499988,
          "durationTicks": 91,
          "midi": 26,
          "name": "D1",
          "ticks": 22272,
          "time": 77.33325599999999,
          "velocity": 0.8110236220472441
        },
        {
          "duration": 0.0937499062500109,
          "durationTicks": 27,
          "midi": 38,
          "name": "D2",
          "ticks": 22416,
          "time": 77.83325549999999,
          "velocity": 0.8110236220472441
        },
        {
          "duration": 0.3159719062499988,
          "durationTicks": 91,
          "midi": 26,
          "name": "D1",
          "ticks": 22464,
          "time": 77.999922,
          "velocity": 0.8110236220472441
        },
        {
          "duration": 0.3159719062499846,
          "durationTicks": 91,
          "midi": 29,
          "name": "F1",
          "ticks": 22656,
          "time": 78.666588,
          "velocity": 0.8110236220472441
        },
        {
          "duration": 0.3159719062499988,
          "durationTicks": 91,
          "midi": 31,
          "name": "G1",
          "ticks": 22848,
          "time": 79.333254,
          "velocity": 0.8110236220472441
        },
        {
          "duration": 0.03819440625001391,
          "durationTicks": 11,
          "midi": 37,
          "name": "C#2",
          "ticks": 23856,
          "time": 82.83325049999999,
          "velocity": 0.49606299212598426
        },
        {
          "duration": 0.0381944062499997,
          "durationTicks": 11,
          "midi": 37,
          "name": "C#2",
          "ticks": 23904,
          "time": 82.999917,
          "velocity": 0.49606299212598426
        },
        {
          "duration": 0.0381944062499997,
          "durationTicks": 11,
          "midi": 37,
          "name": "C#2",
          "ticks": 23952,
          "time": 83.1665835,
          "velocity": 0.49606299212598426
        },
        {
          "duration": 0.03819440625001391,
          "durationTicks": 11,
          "midi": 49,
          "name": "C#3",
          "ticks": 24000,
          "time": 83.33324999999999,
          "velocity": 0.6850393700787402
        },
        {
          "duration": 0.0381944062499997,
          "durationTicks": 11,
          "midi": 37,
          "name": "C#2",
          "ticks": 24096,
          "time": 83.666583,
          "velocity": 0.49606299212598426
        },
        {
          "duration": 0.0381944062499997,
          "durationTicks": 11,
          "midi": 37,
          "name": "C#2",
          "ticks": 24120,
          "time": 83.74991625,
          "velocity": 0.49606299212598426
        },
        {
          "duration": 0.03819440625001391,
          "durationTicks": 11,
          "midi": 49,
          "name": "C#3",
          "ticks": 24144,
          "time": 83.8332495,
          "velocity": 0.6850393700787402
        },
        {
          "duration": 0.0381944062499997,
          "durationTicks": 11,
          "midi": 49,
          "name": "C#3",
          "ticks": 24240,
          "time": 84.1665825,
          "velocity": 0.6850393700787402
        },
        {
          "duration": 0.03819440625001391,
          "durationTicks": 11,
          "midi": 49,
          "name": "C#3",
          "ticks": 24384,
          "time": 84.66658199999999,
          "velocity": 0.6850393700787402
        },
        {
          "duration": 0.03819440624998549,
          "durationTicks": 11,
          "midi": 38,
          "name": "D2",
          "ticks": 24624,
          "time": 85.4999145,
          "velocity": 0.49606299212598426
        },
        {
          "duration": 0.0381944062499997,
          "durationTicks": 11,
          "midi": 38,
          "name": "D2",
          "ticks": 24672,
          "time": 85.666581,
          "velocity": 0.49606299212598426
        },
        {
          "duration": 0.03819440624998549,
          "durationTicks": 11,
          "midi": 38,
          "name": "D2",
          "ticks": 24720,
          "time": 85.8332475,
          "velocity": 0.49606299212598426
        },
        {
          "duration": 0.03819440624998549,
          "durationTicks": 11,
          "midi": 50,
          "name": "D3",
          "ticks": 24768,
          "time": 85.999914,
          "velocity": 0.6850393700787402
        },
        {
          "duration": 0.03819440624998549,
          "durationTicks": 11,
          "midi": 38,
          "name": "D2",
          "ticks": 24864,
          "time": 86.333247,
          "velocity": 0.49606299212598426
        },
        {
          "duration": 0.0381944062499997,
          "durationTicks": 11,
          "midi": 38,
          "name": "D2",
          "ticks": 24888,
          "time": 86.41658025,
          "velocity": 0.49606299212598426
        },
        {
          "duration": 0.0381944062499997,
          "durationTicks": 11,
          "midi": 50,
          "name": "D3",
          "ticks": 24912,
          "time": 86.49991349999999,
          "velocity": 0.6850393700787402
        },
        {
          "duration": 0.03819440624998549,
          "durationTicks": 11,
          "midi": 50,
          "name": "D3",
          "ticks": 25008,
          "time": 86.8332465,
          "velocity": 0.6850393700787402
        },
        {
          "duration": 0.03819440624998549,
          "durationTicks": 11,
          "midi": 50,
          "name": "D3",
          "ticks": 25152,
          "time": 87.333246,
          "velocity": 0.6850393700787402
        },
        {
          "duration": 0.03819440624998549,
          "durationTicks": 11,
          "midi": 50,
          "name": "D3",
          "ticks": 25536,
          "time": 88.666578,
          "velocity": 0.6850393700787402
        },
        {
          "duration": 0.0381944062499997,
          "durationTicks": 11,
          "midi": 53,
          "name": "F3",
          "ticks": 25728,
          "time": 89.333244,
          "velocity": 0.6850393700787402
        },
        {
          "duration": 0.1597220625000091,
          "durationTicks": 46,
          "midi": 29,
          "name": "F1",
          "ticks": 25968,
          "time": 90.16657649999999,
          "velocity": 0.7874015748031497
        },
        {
          "duration": 0.14930540625000788,
          "durationTicks": 43,
          "midi": 35,
          "name": "B1",
          "ticks": 26112,
          "time": 90.66657599999999,
          "velocity": 0.8110236220472441
        },
        {
          "duration": 0.14930540625000788,
          "durationTicks": 43,
          "midi": 35,
          "name": "B1",
          "ticks": 26208,
          "time": 90.999909,
          "velocity": 0.8110236220472441
        },
        {
          "duration": 0.14930540625000788,
          "durationTicks": 43,
          "midi": 35,
          "name": "B1",
          "ticks": 26304,
          "time": 91.333242,
          "velocity": 0.8110236220472441
        },
        {
          "duration": 0.14930540625000788,
          "durationTicks": 43,
          "midi": 35,
          "name": "B1",
          "ticks": 26400,
          "time": 91.666575,
          "velocity": 0.8110236220472441
        },
        {
          "duration": 0.14930540625000788,
          "durationTicks": 43,
          "midi": 35,
          "name": "B1",
          "ticks": 26496,
          "time": 91.99990799999999,
          "velocity": 0.8110236220472441
        },
        {
          "duration": 0.14930540625000788,
          "durationTicks": 43,
          "midi": 35,
          "name": "B1",
          "ticks": 26592,
          "time": 92.333241,
          "velocity": 0.8110236220472441
        },
        {
          "duration": 0.14930540625000788,
          "durationTicks": 43,
          "midi": 35,
          "name": "B1",
          "ticks": 26688,
          "time": 92.666574,
          "velocity": 0.8110236220472441
        },
        {
          "duration": 0.14930540625000788,
          "durationTicks": 43,
          "midi": 35,
          "name": "B1",
          "ticks": 26784,
          "time": 92.999907,
          "velocity": 0.8110236220472441
        },
        {
          "duration": 0.14930540624999367,
          "durationTicks": 43,
          "midi": 37,
          "name": "C#2",
          "ticks": 26880,
          "time": 93.33324,
          "velocity": 0.8110236220472441
        },
        {
          "duration": 0.14930540625000788,
          "durationTicks": 43,
          "midi": 37,
          "name": "C#2",
          "ticks": 26976,
          "time": 93.666573,
          "velocity": 0.8110236220472441
        },
        {
          "duration": 0.14930540625000788,
          "durationTicks": 43,
          "midi": 37,
          "name": "C#2",
          "ticks": 27072,
          "time": 93.999906,
          "velocity": 0.8110236220472441
        },
        {
          "duration": 0.14930540625000788,
          "durationTicks": 43,
          "midi": 37,
          "name": "C#2",
          "ticks": 27168,
          "time": 94.33323899999999,
          "velocity": 0.8110236220472441
        },
        {
          "duration": 0.14930540625000788,
          "durationTicks": 43,
          "midi": 37,
          "name": "C#2",
          "ticks": 27264,
          "time": 94.666572,
          "velocity": 0.8110236220472441
        },
        {
          "duration": 0.14930540625000788,
          "durationTicks": 43,
          "midi": 37,
          "name": "C#2",
          "ticks": 27360,
          "time": 94.999905,
          "velocity": 0.8110236220472441
        },
        {
          "duration": 0.14930540625000788,
          "durationTicks": 43,
          "midi": 37,
          "name": "C#2",
          "ticks": 27456,
          "time": 95.333238,
          "velocity": 0.8110236220472441
        },
        {
          "duration": 0.14930540625000788,
          "durationTicks": 43,
          "midi": 37,
          "name": "C#2",
          "ticks": 27552,
          "time": 95.66657099999999,
          "velocity": 0.8110236220472441
        },
        {
          "duration": 0.14930540625000788,
          "durationTicks": 43,
          "midi": 38,
          "name": "D2",
          "ticks": 27648,
          "time": 95.999904,
          "velocity": 0.8110236220472441
        },
        {
          "duration": 0.14930540625000788,
          "durationTicks": 43,
          "midi": 38,
          "name": "D2",
          "ticks": 27696,
          "time": 96.16657049999999,
          "velocity": 0.8110236220472441
        },
        {
          "duration": 0.14930540625000788,
          "durationTicks": 43,
          "midi": 38,
          "name": "D2",
          "ticks": 27744,
          "time": 96.333237,
          "velocity": 0.8110236220472441
        },
        {
          "duration": 0.14930540625000788,
          "durationTicks": 43,
          "midi": 38,
          "name": "D2",
          "ticks": 27792,
          "time": 96.4999035,
          "velocity": 0.8110236220472441
        },
        {
          "duration": 0.14930540625000788,
          "durationTicks": 43,
          "midi": 38,
          "name": "D2",
          "ticks": 27840,
          "time": 96.66657,
          "velocity": 0.8110236220472441
        },
        {
          "duration": 0.14930540625000788,
          "durationTicks": 43,
          "midi": 38,
          "name": "D2",
          "ticks": 27888,
          "time": 96.8332365,
          "velocity": 0.8110236220472441
        },
        {
          "duration": 0.14930540624999367,
          "durationTicks": 43,
          "midi": 38,
          "name": "D2",
          "ticks": 27936,
          "time": 96.999903,
          "velocity": 0.8110236220472441
        },
        {
          "duration": 0.14930540625000788,
          "durationTicks": 43,
          "midi": 38,
          "name": "D2",
          "ticks": 27984,
          "time": 97.1665695,
          "velocity": 0.8110236220472441
        },
        {
          "duration": 0.14930540625000788,
          "durationTicks": 43,
          "midi": 39,
          "name": "D#2",
          "ticks": 28032,
          "time": 97.333236,
          "velocity": 0.8110236220472441
        },
        {
          "duration": 0.14930540625000788,
          "durationTicks": 43,
          "midi": 39,
          "name": "D#2",
          "ticks": 28080,
          "time": 97.49990249999999,
          "velocity": 0.8110236220472441
        },
        {
          "duration": 0.14930540625000788,
          "durationTicks": 43,
          "midi": 39,
          "name": "D#2",
          "ticks": 28128,
          "time": 97.666569,
          "velocity": 0.8110236220472441
        },
        {
          "duration": 0.14930540625000788,
          "durationTicks": 43,
          "midi": 39,
          "name": "D#2",
          "ticks": 28176,
          "time": 97.8332355,
          "velocity": 0.8110236220472441
        },
        {
          "duration": 0.14930540625000788,
          "durationTicks": 43,
          "midi": 39,
          "name": "D#2",
          "ticks": 28224,
          "time": 97.99990199999999,
          "velocity": 0.8110236220472441
        },
        {
          "duration": 0.02430553125000756,
          "durationTicks": 7,
          "midi": 39,
          "name": "D#2",
          "ticks": 28272,
          "time": 98.1665685,
          "velocity": 0.8110236220472441
        },
        {
          "duration": 0.02430553125000756,
          "durationTicks": 7,
          "midi": 39,
          "name": "D#2",
          "ticks": 28284,
          "time": 98.208235125,
          "velocity": 0.8110236220472441
        },
        {
          "duration": 0.02430553125000756,
          "durationTicks": 7,
          "midi": 39,
          "name": "D#2",
          "ticks": 28296,
          "time": 98.24990174999999,
          "velocity": 0.8110236220472441
        },
        {
          "duration": 0.02430553125000756,
          "durationTicks": 7,
          "midi": 39,
          "name": "D#2",
          "ticks": 28308,
          "time": 98.291568375,
          "velocity": 0.8110236220472441
        },
        {
          "duration": 0.14930540625000788,
          "durationTicks": 43,
          "midi": 39,
          "name": "D#2",
          "ticks": 28320,
          "time": 98.333235,
          "velocity": 0.8110236220472441
        },
        {
          "duration": 0.02430553125000756,
          "durationTicks": 7,
          "midi": 39,
          "name": "D#2",
          "ticks": 28368,
          "time": 98.49990149999999,
          "velocity": 0.8110236220472441
        },
        {
          "duration": 0.02430553125000756,
          "durationTicks": 7,
          "midi": 39,
          "name": "D#2",
          "ticks": 28380,
          "time": 98.541568125,
          "velocity": 0.8110236220472441
        },
        {
          "duration": 0.02430553125000756,
          "durationTicks": 7,
          "midi": 39,
          "name": "D#2",
          "ticks": 28392,
          "time": 98.58323475,
          "velocity": 0.8110236220472441
        },
        {
          "duration": 0.02430553125000756,
          "durationTicks": 7,
          "midi": 39,
          "name": "D#2",
          "ticks": 28404,
          "time": 98.624901375,
          "velocity": 0.8110236220472441
        },
        {
          "duration": 0.14930540625000788,
          "durationTicks": 43,
          "midi": 41,
          "name": "F2",
          "ticks": 28416,
          "time": 98.666568,
          "velocity": 0.8110236220472441
        },
        {
          "duration": 0.14930540624999367,
          "durationTicks": 43,
          "midi": 41,
          "name": "F2",
          "ticks": 28464,
          "time": 98.8332345,
          "velocity": 0.8110236220472441
        },
        {
          "duration": 0.14930540625000788,
          "durationTicks": 43,
          "midi": 41,
          "name": "F2",
          "ticks": 28512,
          "time": 98.999901,
          "velocity": 0.8110236220472441
        },
        {
          "duration": 0.06597215624999819,
          "durationTicks": 19,
          "midi": 41,
          "name": "F2",
          "ticks": 28560,
          "time": 99.1665675,
          "velocity": 0.8110236220472441
        },
        {
          "duration": 0.0659721562500124,
          "durationTicks": 19,
          "midi": 41,
          "name": "F2",
          "ticks": 28584,
          "time": 99.24990075,
          "velocity": 0.8110236220472441
        },
        {
          "duration": 0.14930540625000788,
          "durationTicks": 43,
          "midi": 41,
          "name": "F2",
          "ticks": 28608,
          "time": 99.33323399999999,
          "velocity": 0.8110236220472441
        },
        {
          "duration": 0.14930540625000788,
          "durationTicks": 43,
          "midi": 41,
          "name": "F2",
          "ticks": 28656,
          "time": 99.4999005,
          "velocity": 0.8110236220472441
        },
        {
          "duration": 0.14930540625000788,
          "durationTicks": 43,
          "midi": 41,
          "name": "F2",
          "ticks": 28704,
          "time": 99.666567,
          "velocity": 0.8110236220472441
        },
        {
          "duration": 0.0659721562500124,
          "durationTicks": 19,
          "midi": 41,
          "name": "F2",
          "ticks": 28752,
          "time": 99.83323349999999,
          "velocity": 0.8110236220472441
        },
        {
          "duration": 0.06597215624999819,
          "durationTicks": 19,
          "midi": 41,
          "name": "F2",
          "ticks": 28776,
          "time": 99.91656675,
          "velocity": 0.8110236220472441
        },
        {
          "duration": 0.14930540625000788,
          "durationTicks": 43,
          "midi": 41,
          "name": "F2",
          "ticks": 28800,
          "time": 99.9999,
          "velocity": 0.8110236220472441
        },
        {
          "duration": 0.14930540625000788,
          "durationTicks": 43,
          "midi": 42,
          "name": "F#2",
          "ticks": 28848,
          "time": 100.1665665,
          "velocity": 0.8110236220472441
        },
        {
          "duration": 0.14930540625000788,
          "durationTicks": 43,
          "midi": 43,
          "name": "G2",
          "ticks": 28896,
          "time": 100.33323299999999,
          "velocity": 0.8110236220472441
        },
        {
          "duration": 0.02430553125000756,
          "durationTicks": 7,
          "midi": 44,
          "name": "G#2",
          "ticks": 28944,
          "time": 100.4998995,
          "velocity": 0.8110236220472441
        },
        {
          "duration": 0.02430553125000756,
          "durationTicks": 7,
          "midi": 44,
          "name": "G#2",
          "ticks": 28956,
          "time": 100.541566125,
          "velocity": 0.8110236220472441
        },
        {
          "duration": 0.02430553125000756,
          "durationTicks": 7,
          "midi": 44,
          "name": "G#2",
          "ticks": 28968,
          "time": 100.58323275,
          "velocity": 0.8110236220472441
        },
        {
          "duration": 0.02430553125000756,
          "durationTicks": 7,
          "midi": 44,
          "name": "G#2",
          "ticks": 28980,
          "time": 100.624899375,
          "velocity": 0.8110236220472441
        },
        {
          "duration": 0.14930540624999367,
          "durationTicks": 43,
          "midi": 45,
          "name": "A2",
          "ticks": 28992,
          "time": 100.666566,
          "velocity": 0.8110236220472441
        },
        {
          "duration": 0.02430553125000756,
          "durationTicks": 7,
          "midi": 46,
          "name": "A#2",
          "ticks": 29040,
          "time": 100.8332325,
          "velocity": 0.8110236220472441
        },
        {
          "duration": 0.02430553125000756,
          "durationTicks": 7,
          "midi": 46,
          "name": "A#2",
          "ticks": 29052,
          "time": 100.874899125,
          "velocity": 0.8110236220472441
        },
        {
          "duration": 0.02430553124999335,
          "durationTicks": 7,
          "midi": 46,
          "name": "A#2",
          "ticks": 29064,
          "time": 100.91656575,
          "velocity": 0.8110236220472441
        },
        {
          "duration": 0.02430553125000756,
          "durationTicks": 7,
          "midi": 46,
          "name": "A#2",
          "ticks": 29076,
          "time": 100.958232375,
          "velocity": 0.8110236220472441
        },
        {
          "duration": 0.14930540625000788,
          "durationTicks": 43,
          "midi": 47,
          "name": "B2",
          "ticks": 29088,
          "time": 100.999899,
          "velocity": 0.8110236220472441
        },
        {
          "duration": 0.02430553125000756,
          "durationTicks": 7,
          "midi": 48,
          "name": "C3",
          "ticks": 29136,
          "time": 101.16656549999999,
          "velocity": 0.8110236220472441
        },
        {
          "duration": 0.02430553125000756,
          "durationTicks": 7,
          "midi": 48,
          "name": "C3",
          "ticks": 29160,
          "time": 101.24989875,
          "velocity": 0.8110236220472441
        },
        {
          "duration": 0.0659721562500124,
          "durationTicks": 19,
          "midi": 28,
          "name": "E1",
          "ticks": 29184,
          "time": 101.333232,
          "velocity": 0.8110236220472441
        },
        {
          "duration": 0.0659721562500124,
          "durationTicks": 19,
          "midi": 29,
          "name": "F1",
          "ticks": 29208,
          "time": 101.41656524999999,
          "velocity": 0.8110236220472441
        },
        {
          "duration": 0.06597215624999819,
          "durationTicks": 19,
          "midi": 30,
          "name": "F#1",
          "ticks": 29232,
          "time": 101.4998985,
          "velocity": 0.8110236220472441
        },
        {
          "duration": 0.0659721562500124,
          "durationTicks": 19,
          "midi": 31,
          "name": "G1",
          "ticks": 29256,
          "time": 101.58323175,
          "velocity": 0.8110236220472441
        },
        {
          "duration": 0.0659721562500124,
          "durationTicks": 19,
          "midi": 32,
          "name": "G#1",
          "ticks": 29280,
          "time": 101.66656499999999,
          "velocity": 0.8110236220472441
        },
        {
          "duration": 0.06597215624999819,
          "durationTicks": 19,
          "midi": 33,
          "name": "A1",
          "ticks": 29304,
          "time": 101.74989825,
          "velocity": 0.8110236220472441
        },
        {
          "duration": 0.0659721562500124,
          "durationTicks": 19,
          "midi": 34,
          "name": "A#1",
          "ticks": 29328,
          "time": 101.8332315,
          "velocity": 0.8110236220472441
        },
        {
          "duration": 0.0659721562500124,
          "durationTicks": 19,
          "midi": 35,
          "name": "B1",
          "ticks": 29352,
          "time": 101.91656474999999,
          "velocity": 0.8110236220472441
        },
        {
          "duration": 0.06597215624999819,
          "durationTicks": 19,
          "midi": 36,
          "name": "C2",
          "ticks": 29376,
          "time": 101.999898,
          "velocity": 0.8110236220472441
        },
        {
          "duration": 0.0659721562500124,
          "durationTicks": 19,
          "midi": 37,
          "name": "C#2",
          "ticks": 29400,
          "time": 102.08323125,
          "velocity": 0.8110236220472441
        },
        {
          "duration": 0.0659721562500124,
          "durationTicks": 19,
          "midi": 38,
          "name": "D2",
          "ticks": 29424,
          "time": 102.16656449999999,
          "velocity": 0.8110236220472441
        },
        {
          "duration": 0.06597215624999819,
          "durationTicks": 19,
          "midi": 39,
          "name": "D#2",
          "ticks": 29448,
          "time": 102.24989775,
          "velocity": 0.8110236220472441
        },
        {
          "duration": 0.0659721562500124,
          "durationTicks": 19,
          "midi": 40,
          "name": "E2",
          "ticks": 29472,
          "time": 102.333231,
          "velocity": 0.8110236220472441
        },
        {
          "duration": 0.0659721562500124,
          "durationTicks": 19,
          "midi": 41,
          "name": "F2",
          "ticks": 29496,
          "time": 102.41656425,
          "velocity": 0.8110236220472441
        },
        {
          "duration": 0.06597215624999819,
          "durationTicks": 19,
          "midi": 42,
          "name": "F#2",
          "ticks": 29520,
          "time": 102.4998975,
          "velocity": 0.8110236220472441
        },
        {
          "duration": 0.06597215624999819,
          "durationTicks": 19,
          "midi": 43,
          "name": "G2",
          "ticks": 29544,
          "time": 102.58323075,
          "velocity": 0.8110236220472441
        },
        {
          "duration": 0.07986103124999033,
          "durationTicks": 23,
          "midi": 28,
          "name": "E1",
          "ticks": 29568,
          "time": 102.666564,
          "velocity": 0.8110236220472441
        },
        {
          "duration": 0.07986103124999033,
          "durationTicks": 23,
          "midi": 28,
          "name": "E1",
          "ticks": 29592,
          "time": 102.74989725,
          "velocity": 0.8110236220472441
        },
        {
          "duration": 0.07986103124999033,
          "durationTicks": 23,
          "midi": 40,
          "name": "E2",
          "ticks": 29616,
          "time": 102.8332305,
          "velocity": 0.8110236220472441
        },
        {
          "duration": 0.07986103124999033,
          "durationTicks": 23,
          "midi": 28,
          "name": "E1",
          "ticks": 29640,
          "time": 102.91656375,
          "velocity": 0.8110236220472441
        },
        {
          "duration": 0.07986103124999033,
          "durationTicks": 23,
          "midi": 28,
          "name": "E1",
          "ticks": 29688,
          "time": 103.08323025,
          "velocity": 0.8110236220472441
        },
        {
          "duration": 0.07986103124999033,
          "durationTicks": 23,
          "midi": 40,
          "name": "E2",
          "ticks": 29712,
          "time": 103.1665635,
          "velocity": 0.8110236220472441
        },
        {
          "duration": 0.07986103125000454,
          "durationTicks": 23,
          "midi": 28,
          "name": "E1",
          "ticks": 29736,
          "time": 103.24989674999999,
          "velocity": 0.8110236220472441
        },
        {
          "duration": 0.07986103124999033,
          "durationTicks": 23,
          "midi": 40,
          "name": "E2",
          "ticks": 29760,
          "time": 103.33323,
          "velocity": 0.5590551181102362
        },
        {
          "duration": 0.07986103124999033,
          "durationTicks": 23,
          "midi": 28,
          "name": "E1",
          "ticks": 29760,
          "time": 103.33323,
          "velocity": 0.8110236220472441
        },
        {
          "duration": 0.07986103124999033,
          "durationTicks": 23,
          "midi": 28,
          "name": "E1",
          "ticks": 29784,
          "time": 103.41656325,
          "velocity": 0.8110236220472441
        },
        {
          "duration": 0.07986103124999033,
          "durationTicks": 23,
          "midi": 40,
          "name": "E2",
          "ticks": 29784,
          "time": 103.41656325,
          "velocity": 0.5590551181102362
        },
        {
          "duration": 0.12152765624999518,
          "durationTicks": 35,
          "midi": 40,
          "name": "E2",
          "ticks": 29808,
          "time": 103.49989649999999,
          "velocity": 0.5590551181102362
        },
        {
          "duration": 0.12152765624999518,
          "durationTicks": 35,
          "midi": 28,
          "name": "E1",
          "ticks": 29808,
          "time": 103.49989649999999,
          "velocity": 0.8110236220472441
        },
        {
          "duration": 0.32986078124999096,
          "durationTicks": 95,
          "midi": 40,
          "name": "E2",
          "ticks": 29856,
          "time": 103.666563,
          "velocity": 0.8110236220472441
        },
        {
          "duration": 0.32986078124999096,
          "durationTicks": 95,
          "midi": 28,
          "name": "E1",
          "ticks": 29856,
          "time": 103.666563,
          "velocity": 0.8110236220472441
        },
        {
          "duration": 0.2465275312499955,
          "durationTicks": 71,
          "midi": 33,
          "name": "A1",
          "ticks": 29952,
          "time": 103.99989599999999,
          "velocity": 0.8110236220472441
        },
        {
          "duration": 0.24652753124998128,
          "durationTicks": 71,
          "midi": 45,
          "name": "A2",
          "ticks": 30048,
          "time": 104.333229,
          "velocity": 0.8110236220472441
        },
        {
          "duration": 0.24652753124998128,
          "durationTicks": 71,
          "midi": 33,
          "name": "A1",
          "ticks": 30048,
          "time": 104.333229,
          "velocity": 0.8110236220472441
        },
        {
          "duration": 0.2465275312499955,
          "durationTicks": 71,
          "midi": 33,
          "name": "A1",
          "ticks": 30144,
          "time": 104.666562,
          "velocity": 0.8110236220472441
        },
        {
          "duration": 0.2465275312499955,
          "durationTicks": 71,
          "midi": 33,
          "name": "A1",
          "ticks": 30240,
          "time": 104.999895,
          "velocity": 0.8110236220472441
        },
        {
          "duration": 0.2465275312499955,
          "durationTicks": 71,
          "midi": 45,
          "name": "A2",
          "ticks": 30240,
          "time": 104.999895,
          "velocity": 0.8110236220472441
        },
        {
          "duration": 0.2465275312499955,
          "durationTicks": 71,
          "midi": 39,
          "name": "D#2",
          "ticks": 30336,
          "time": 105.33322799999999,
          "velocity": 0.8110236220472441
        },
        {
          "duration": 0.2465275312499955,
          "durationTicks": 71,
          "midi": 51,
          "name": "D#3",
          "ticks": 30432,
          "time": 105.666561,
          "velocity": 0.8110236220472441
        },
        {
          "duration": 0.2465275312499955,
          "durationTicks": 71,
          "midi": 39,
          "name": "D#2",
          "ticks": 30432,
          "time": 105.666561,
          "velocity": 0.8110236220472441
        },
        {
          "duration": 0.2465275312499955,
          "durationTicks": 71,
          "midi": 39,
          "name": "D#2",
          "ticks": 30528,
          "time": 105.999894,
          "velocity": 0.8110236220472441
        },
        {
          "duration": 0.2465275312499955,
          "durationTicks": 71,
          "midi": 51,
          "name": "D#3",
          "ticks": 30624,
          "time": 106.333227,
          "velocity": 0.8110236220472441
        },
        {
          "duration": 0.2465275312499955,
          "durationTicks": 71,
          "midi": 39,
          "name": "D#2",
          "ticks": 30624,
          "time": 106.333227,
          "velocity": 0.8110236220472441
        },
        {
          "duration": 0.24652753124998128,
          "durationTicks": 71,
          "midi": 38,
          "name": "D2",
          "ticks": 30720,
          "time": 106.66656,
          "velocity": 0.8110236220472441
        },
        {
          "duration": 0.2465275312499955,
          "durationTicks": 71,
          "midi": 38,
          "name": "D2",
          "ticks": 30816,
          "time": 106.999893,
          "velocity": 0.8110236220472441
        },
        {
          "duration": 0.2465275312499955,
          "durationTicks": 71,
          "midi": 50,
          "name": "D3",
          "ticks": 30816,
          "time": 106.999893,
          "velocity": 0.8110236220472441
        },
        {
          "duration": 0.2465275312499955,
          "durationTicks": 71,
          "midi": 38,
          "name": "D2",
          "ticks": 30912,
          "time": 107.333226,
          "velocity": 0.8110236220472441
        },
        {
          "duration": 0.2465275312499955,
          "durationTicks": 71,
          "midi": 50,
          "name": "D3",
          "ticks": 31008,
          "time": 107.66655899999999,
          "velocity": 0.8110236220472441
        },
        {
          "duration": 0.2465275312499955,
          "durationTicks": 71,
          "midi": 38,
          "name": "D2",
          "ticks": 31008,
          "time": 107.66655899999999,
          "velocity": 0.8110236220472441
        },
        {
          "duration": 0.24652753124998128,
          "durationTicks": 71,
          "midi": 31,
          "name": "G1",
          "ticks": 31104,
          "time": 107.999892,
          "velocity": 0.8110236220472441
        },
        {
          "duration": 0.2465275312499955,
          "durationTicks": 71,
          "midi": 43,
          "name": "G2",
          "ticks": 31200,
          "time": 108.333225,
          "velocity": 0.8110236220472441
        },
        {
          "duration": 0.12152765624999518,
          "durationTicks": 35,
          "midi": 31,
          "name": "G1",
          "ticks": 31200,
          "time": 108.333225,
          "velocity": 0.8110236220472441
        },
        {
          "duration": 0.12152765624998096,
          "durationTicks": 35,
          "midi": 31,
          "name": "G1",
          "ticks": 31248,
          "time": 108.4998915,
          "velocity": 0.8110236220472441
        },
        {
          "duration": 0.2465275312499955,
          "durationTicks": 71,
          "midi": 36,
          "name": "C2",
          "ticks": 31296,
          "time": 108.666558,
          "velocity": 0.8110236220472441
        },
        {
          "duration": 0.2465275312499955,
          "durationTicks": 71,
          "midi": 36,
          "name": "C2",
          "ticks": 31392,
          "time": 108.99989099999999,
          "velocity": 0.8110236220472441
        },
        {
          "duration": 0.2465275312499955,
          "durationTicks": 71,
          "midi": 48,
          "name": "C3",
          "ticks": 31392,
          "time": 108.99989099999999,
          "velocity": 0.8110236220472441
        },
        {
          "duration": 0.2465275312499955,
          "durationTicks": 71,
          "midi": 37,
          "name": "C#2",
          "ticks": 31488,
          "time": 109.333224,
          "velocity": 0.8110236220472441
        },
        {
          "duration": 0.2465275312499955,
          "durationTicks": 71,
          "midi": 37,
          "name": "C#2",
          "ticks": 31584,
          "time": 109.666557,
          "velocity": 0.8110236220472441
        },
        {
          "duration": 0.2465275312499955,
          "durationTicks": 71,
          "midi": 49,
          "name": "C#3",
          "ticks": 31584,
          "time": 109.666557,
          "velocity": 0.8110236220472441
        },
        {
          "duration": 0.2465275312499955,
          "durationTicks": 71,
          "midi": 37,
          "name": "C#2",
          "ticks": 31680,
          "time": 109.99989,
          "velocity": 0.8110236220472441
        },
        {
          "duration": 0.24652753124998128,
          "durationTicks": 71,
          "midi": 49,
          "name": "C#3",
          "ticks": 31776,
          "time": 110.333223,
          "velocity": 0.8110236220472441
        },
        {
          "duration": 0.24652753124998128,
          "durationTicks": 71,
          "midi": 37,
          "name": "C#2",
          "ticks": 31776,
          "time": 110.333223,
          "velocity": 0.8110236220472441
        },
        {
          "duration": 0.2465275312499955,
          "durationTicks": 71,
          "midi": 30,
          "name": "F#1",
          "ticks": 31872,
          "time": 110.666556,
          "velocity": 0.8110236220472441
        },
        {
          "duration": 0.2465275312499955,
          "durationTicks": 71,
          "midi": 42,
          "name": "F#2",
          "ticks": 31968,
          "time": 110.999889,
          "velocity": 0.8110236220472441
        },
        {
          "duration": 0.2465275312499955,
          "durationTicks": 71,
          "midi": 30,
          "name": "F#1",
          "ticks": 31968,
          "time": 110.999889,
          "velocity": 0.8110236220472441
        },
        {
          "duration": 0.2465275312499955,
          "durationTicks": 71,
          "midi": 30,
          "name": "F#1",
          "ticks": 32064,
          "time": 111.33322199999999,
          "velocity": 0.8110236220472441
        },
        {
          "duration": 0.24652753124998128,
          "durationTicks": 71,
          "midi": 30,
          "name": "F#1",
          "ticks": 32160,
          "time": 111.666555,
          "velocity": 0.8110236220472441
        },
        {
          "duration": 0.24652753124998128,
          "durationTicks": 71,
          "midi": 42,
          "name": "F#2",
          "ticks": 32160,
          "time": 111.666555,
          "velocity": 0.8110236220472441
        },
        {
          "duration": 0.2465275312499955,
          "durationTicks": 71,
          "midi": 38,
          "name": "D2",
          "ticks": 32256,
          "time": 111.999888,
          "velocity": 0.8110236220472441
        },
        {
          "duration": 0.2465275312499955,
          "durationTicks": 71,
          "midi": 50,
          "name": "D3",
          "ticks": 32352,
          "time": 112.333221,
          "velocity": 0.8110236220472441
        },
        {
          "duration": 0.2465275312499955,
          "durationTicks": 71,
          "midi": 38,
          "name": "D2",
          "ticks": 32352,
          "time": 112.333221,
          "velocity": 0.8110236220472441
        },
        {
          "duration": 0.2465275312499955,
          "durationTicks": 71,
          "midi": 38,
          "name": "D2",
          "ticks": 32448,
          "time": 112.66655399999999,
          "velocity": 0.8110236220472441
        },
        {
          "duration": 0.2465275312499955,
          "durationTicks": 71,
          "midi": 50,
          "name": "D3",
          "ticks": 32544,
          "time": 112.999887,
          "velocity": 0.8110236220472441
        },
        {
          "duration": 0.2465275312499955,
          "durationTicks": 71,
          "midi": 38,
          "name": "D2",
          "ticks": 32544,
          "time": 112.999887,
          "velocity": 0.8110236220472441
        },
        {
          "duration": 0.2465275312499955,
          "durationTicks": 71,
          "midi": 40,
          "name": "E2",
          "ticks": 32640,
          "time": 113.33322,
          "velocity": 0.8110236220472441
        },
        {
          "duration": 0.2465275312499955,
          "durationTicks": 71,
          "midi": 40,
          "name": "E2",
          "ticks": 32736,
          "time": 113.666553,
          "velocity": 0.8110236220472441
        },
        {
          "duration": 0.2465275312499955,
          "durationTicks": 71,
          "midi": 52,
          "name": "E3",
          "ticks": 32736,
          "time": 113.666553,
          "velocity": 0.8110236220472441
        },
        {
          "duration": 0.24652753124998128,
          "durationTicks": 71,
          "midi": 35,
          "name": "B1",
          "ticks": 32832,
          "time": 113.999886,
          "velocity": 0.8110236220472441
        },
        {
          "duration": 0.2465275312499955,
          "durationTicks": 71,
          "midi": 35,
          "name": "B1",
          "ticks": 32928,
          "time": 114.333219,
          "velocity": 0.8110236220472441
        },
        {
          "duration": 0.2465275312499955,
          "durationTicks": 71,
          "midi": 47,
          "name": "B2",
          "ticks": 32928,
          "time": 114.333219,
          "velocity": 0.8110236220472441
        },
        {
          "duration": 0.2465275312499955,
          "durationTicks": 71,
          "midi": 33,
          "name": "A1",
          "ticks": 33024,
          "time": 114.666552,
          "velocity": 0.8110236220472441
        },
        {
          "duration": 0.2465275312499955,
          "durationTicks": 71,
          "midi": 45,
          "name": "A2",
          "ticks": 33120,
          "time": 114.99988499999999,
          "velocity": 0.8110236220472441
        },
        {
          "duration": 0.2465275312499955,
          "durationTicks": 71,
          "midi": 33,
          "name": "A1",
          "ticks": 33120,
          "time": 114.99988499999999,
          "velocity": 0.8110236220472441
        },
        {
          "duration": 0.24652753124998128,
          "durationTicks": 71,
          "midi": 33,
          "name": "A1",
          "ticks": 33216,
          "time": 115.333218,
          "velocity": 0.8110236220472441
        },
        {
          "duration": 0.2465275312499955,
          "durationTicks": 71,
          "midi": 33,
          "name": "A1",
          "ticks": 33312,
          "time": 115.666551,
          "velocity": 0.8110236220472441
        },
        {
          "duration": 0.2465275312499955,
          "durationTicks": 71,
          "midi": 45,
          "name": "A2",
          "ticks": 33312,
          "time": 115.666551,
          "velocity": 0.8110236220472441
        },
        {
          "duration": 0.2465275312499955,
          "durationTicks": 71,
          "midi": 39,
          "name": "D#2",
          "ticks": 33408,
          "time": 115.999884,
          "velocity": 0.8110236220472441
        },
        {
          "duration": 0.2465275312499955,
          "durationTicks": 71,
          "midi": 39,
          "name": "D#2",
          "ticks": 33504,
          "time": 116.33321699999999,
          "velocity": 0.8110236220472441
        },
        {
          "duration": 0.2465275312499955,
          "durationTicks": 71,
          "midi": 51,
          "name": "D#3",
          "ticks": 33504,
          "time": 116.33321699999999,
          "velocity": 0.8110236220472441
        },
        {
          "duration": 0.2465275312499955,
          "durationTicks": 71,
          "midi": 39,
          "name": "D#2",
          "ticks": 33600,
          "time": 116.66655,
          "velocity": 0.8110236220472441
        },
        {
          "duration": 0.2465275312499955,
          "durationTicks": 71,
          "midi": 39,
          "name": "D#2",
          "ticks": 33696,
          "time": 116.999883,
          "velocity": 0.8110236220472441
        },
        {
          "duration": 0.2465275312499955,
          "durationTicks": 71,
          "midi": 51,
          "name": "D#3",
          "ticks": 33696,
          "time": 116.999883,
          "velocity": 0.8110236220472441
        },
        {
          "duration": 0.2465275312499955,
          "durationTicks": 71,
          "midi": 38,
          "name": "D2",
          "ticks": 33792,
          "time": 117.333216,
          "velocity": 0.8110236220472441
        },
        {
          "duration": 0.24652753124998128,
          "durationTicks": 71,
          "midi": 50,
          "name": "D3",
          "ticks": 33888,
          "time": 117.666549,
          "velocity": 0.8110236220472441
        },
        {
          "duration": 0.24652753124998128,
          "durationTicks": 71,
          "midi": 38,
          "name": "D2",
          "ticks": 33888,
          "time": 117.666549,
          "velocity": 0.8110236220472441
        },
        {
          "duration": 0.2465275312499955,
          "durationTicks": 71,
          "midi": 38,
          "name": "D2",
          "ticks": 33984,
          "time": 117.999882,
          "velocity": 0.8110236220472441
        },
        {
          "duration": 0.2465275312499955,
          "durationTicks": 71,
          "midi": 50,
          "name": "D3",
          "ticks": 34080,
          "time": 118.333215,
          "velocity": 0.8110236220472441
        },
        {
          "duration": 0.2465275312499955,
          "durationTicks": 71,
          "midi": 38,
          "name": "D2",
          "ticks": 34080,
          "time": 118.333215,
          "velocity": 0.8110236220472441
        },
        {
          "duration": 0.16319428125000002,
          "durationTicks": 47,
          "midi": 32,
          "name": "G#1",
          "ticks": 34176,
          "time": 118.66654799999999,
          "velocity": 0.8110236220472441
        },
        {
          "duration": 0.16319428125000002,
          "durationTicks": 47,
          "midi": 32,
          "name": "G#1",
          "ticks": 34248,
          "time": 118.91654774999999,
          "velocity": 0.8110236220472441
        },
        {
          "duration": 0.0381944062499997,
          "durationTicks": 11,
          "midi": 32,
          "name": "G#1",
          "ticks": 34320,
          "time": 119.1665475,
          "velocity": 0.8110236220472441
        },
        {
          "duration": 0.03819440624998549,
          "durationTicks": 11,
          "midi": 32,
          "name": "G#1",
          "ticks": 34344,
          "time": 119.24988075,
          "velocity": 0.8110236220472441
        },
        {
          "duration": 0.2465275312499955,
          "durationTicks": 71,
          "midi": 37,
          "name": "C#2",
          "ticks": 34368,
          "time": 119.333214,
          "velocity": 0.8110236220472441
        },
        {
          "duration": 0.2465275312499955,
          "durationTicks": 71,
          "midi": 37,
          "name": "C#2",
          "ticks": 34464,
          "time": 119.666547,
          "velocity": 0.8110236220472441
        },
        {
          "duration": 0.2465275312499955,
          "durationTicks": 71,
          "midi": 49,
          "name": "C#3",
          "ticks": 34464,
          "time": 119.666547,
          "velocity": 0.8110236220472441
        },
        {
          "duration": 0.16319428125000002,
          "durationTicks": 47,
          "midi": 30,
          "name": "F#1",
          "ticks": 34560,
          "time": 119.99987999999999,
          "velocity": 0.8110236220472441
        },
        {
          "duration": 0.16319428125000002,
          "durationTicks": 47,
          "midi": 30,
          "name": "F#1",
          "ticks": 34608,
          "time": 120.1665465,
          "velocity": 0.8110236220472441
        },
        {
          "duration": 0.03819440624998549,
          "durationTicks": 11,
          "midi": 30,
          "name": "F#1",
          "ticks": 34656,
          "time": 120.333213,
          "velocity": 0.8110236220472441
        },
        {
          "duration": 0.0381944062499997,
          "durationTicks": 11,
          "midi": 30,
          "name": "F#1",
          "ticks": 34704,
          "time": 120.49987949999999,
          "velocity": 0.8110236220472441
        },
        {
          "duration": 0.16319428125000002,
          "durationTicks": 47,
          "midi": 29,
          "name": "F1",
          "ticks": 34752,
          "time": 120.666546,
          "velocity": 0.8110236220472441
        },
        {
          "duration": 0.1631942812499858,
          "durationTicks": 47,
          "midi": 29,
          "name": "F1",
          "ticks": 34800,
          "time": 120.8332125,
          "velocity": 0.8110236220472441
        },
        {
          "duration": 0.0381944062499997,
          "durationTicks": 11,
          "midi": 29,
          "name": "F1",
          "ticks": 34848,
          "time": 120.99987899999999,
          "velocity": 0.8110236220472441
        },
        {
          "duration": 0.03819440624998549,
          "durationTicks": 11,
          "midi": 29,
          "name": "F1",
          "ticks": 34896,
          "time": 121.1665455,
          "velocity": 0.8110236220472441
        },
        {
          "duration": 0.1631942812499858,
          "durationTicks": 47,
          "midi": 28,
          "name": "E1",
          "ticks": 34944,
          "time": 121.333212,
          "velocity": 0.8110236220472441
        },
        {
          "duration": 0.16319428125000002,
          "durationTicks": 47,
          "midi": 28,
          "name": "E1",
          "ticks": 34992,
          "time": 121.4998785,
          "velocity": 0.8110236220472441
        },
        {
          "duration": 0.03819440624998549,
          "durationTicks": 11,
          "midi": 28,
          "name": "E1",
          "ticks": 35040,
          "time": 121.666545,
          "velocity": 0.8110236220472441
        },
        {
          "duration": 0.0381944062499997,
          "durationTicks": 11,
          "midi": 28,
          "name": "E1",
          "ticks": 35064,
          "time": 121.74987825,
          "velocity": 0.8110236220472441
        },
        {
          "duration": 0.0381944062499997,
          "durationTicks": 11,
          "midi": 28,
          "name": "E1",
          "ticks": 35088,
          "time": 121.83321149999999,
          "velocity": 0.8110236220472441
        },
        {
          "duration": 0.03819440624998549,
          "durationTicks": 11,
          "midi": 28,
          "name": "E1",
          "ticks": 35112,
          "time": 121.91654475,
          "velocity": 0.8110236220472441
        },
        {
          "duration": 0.16319428125000002,
          "durationTicks": 47,
          "midi": 33,
          "name": "A1",
          "ticks": 35136,
          "time": 121.999878,
          "velocity": 0.8110236220472441
        },
        {
          "duration": 0.1631942812499858,
          "durationTicks": 47,
          "midi": 33,
          "name": "A1",
          "ticks": 35184,
          "time": 122.1665445,
          "velocity": 0.8110236220472441
        },
        {
          "duration": 0.16319428125000002,
          "durationTicks": 47,
          "midi": 33,
          "name": "A1",
          "ticks": 35232,
          "time": 122.33321099999999,
          "velocity": 0.8110236220472441
        },
        {
          "duration": 0.16319428125000002,
          "durationTicks": 47,
          "midi": 33,
          "name": "A1",
          "ticks": 35280,
          "time": 122.4998775,
          "velocity": 0.8110236220472441
        },
        {
          "duration": 0.1631942812499858,
          "durationTicks": 47,
          "midi": 35,
          "name": "B1",
          "ticks": 35328,
          "time": 122.666544,
          "velocity": 0.8110236220472441
        },
        {
          "duration": 0.16319428125000002,
          "durationTicks": 47,
          "midi": 35,
          "name": "B1",
          "ticks": 35376,
          "time": 122.83321049999999,
          "velocity": 0.8110236220472441
        },
        {
          "duration": 0.1631942812499858,
          "durationTicks": 47,
          "midi": 35,
          "name": "B1",
          "ticks": 35424,
          "time": 122.999877,
          "velocity": 0.8110236220472441
        },
        {
          "duration": 0.1631942812499858,
          "durationTicks": 47,
          "midi": 35,
          "name": "B1",
          "ticks": 35472,
          "time": 123.1665435,
          "velocity": 0.8110236220472441
        },
        {
          "duration": 0.06944437499998912,
          "durationTicks": 20,
          "midi": 37,
          "name": "C#2",
          "ticks": 35520,
          "time": 123.33321,
          "velocity": 0.8110236220472441
        },
        {
          "duration": 0.06944437500000333,
          "durationTicks": 20,
          "midi": 37,
          "name": "C#2",
          "ticks": 35544,
          "time": 123.41654324999999,
          "velocity": 0.8110236220472441
        },
        {
          "duration": 0.06944437499998912,
          "durationTicks": 20,
          "midi": 37,
          "name": "C#2",
          "ticks": 35568,
          "time": 123.4998765,
          "velocity": 0.8110236220472441
        },
        {
          "duration": 0.06944437499998912,
          "durationTicks": 20,
          "midi": 37,
          "name": "C#2",
          "ticks": 35592,
          "time": 123.58320975,
          "velocity": 0.8110236220472441
        },
        {
          "duration": 0.06944437500000333,
          "durationTicks": 20,
          "midi": 37,
          "name": "C#2",
          "ticks": 35616,
          "time": 123.66654299999999,
          "velocity": 0.8110236220472441
        },
        {
          "duration": 0.06944437499998912,
          "durationTicks": 20,
          "midi": 37,
          "name": "C#2",
          "ticks": 35640,
          "time": 123.74987625,
          "velocity": 0.8110236220472441
        },
        {
          "duration": 0.06944437499998912,
          "durationTicks": 20,
          "midi": 37,
          "name": "C#2",
          "ticks": 35664,
          "time": 123.8332095,
          "velocity": 0.8110236220472441
        },
        {
          "duration": 0.06944437500000333,
          "durationTicks": 20,
          "midi": 37,
          "name": "C#2",
          "ticks": 35688,
          "time": 123.91654274999999,
          "velocity": 0.8110236220472441
        },
        {
          "duration": 0.31944412499998975,
          "durationTicks": 92,
          "midi": 38,
          "name": "D2",
          "ticks": 35712,
          "time": 123.999876,
          "velocity": 0.8110236220472441
        },
        {
          "duration": 0.1527776249999988,
          "durationTicks": 44,
          "midi": 38,
          "name": "D2",
          "ticks": 35808,
          "time": 124.333209,
          "velocity": 0.8110236220472441
        },
        {
          "duration": 0.06944437500000333,
          "durationTicks": 20,
          "midi": 50,
          "name": "D3",
          "ticks": 35832,
          "time": 124.41654224999999,
          "velocity": 0.6692913385826772
        },
        {
          "duration": 0.1527776249999846,
          "durationTicks": 44,
          "midi": 38,
          "name": "D2",
          "ticks": 35856,
          "time": 124.4998755,
          "velocity": 0.8110236220472441
        },
        {
          "duration": 0.06944437500000333,
          "durationTicks": 20,
          "midi": 40,
          "name": "E2",
          "ticks": 35904,
          "time": 124.66654199999999,
          "velocity": 0.7637795275590551
        },
        {
          "duration": 0.06944437500000333,
          "durationTicks": 20,
          "midi": 28,
          "name": "E1",
          "ticks": 35904,
          "time": 124.66654199999999,
          "velocity": 0.7637795275590551
        },
        {
          "duration": 0.06944437499998912,
          "durationTicks": 20,
          "midi": 40,
          "name": "E2",
          "ticks": 35928,
          "time": 124.74987525,
          "velocity": 0.7716535433070866
        },
        {
          "duration": 0.06944437499998912,
          "durationTicks": 20,
          "midi": 28,
          "name": "E1",
          "ticks": 35928,
          "time": 124.74987525,
          "velocity": 0.7716535433070866
        },
        {
          "duration": 0.06944437499998912,
          "durationTicks": 20,
          "midi": 40,
          "name": "E2",
          "ticks": 35952,
          "time": 124.8332085,
          "velocity": 0.7795275590551181
        },
        {
          "duration": 0.06944437499998912,
          "durationTicks": 20,
          "midi": 28,
          "name": "E1",
          "ticks": 35952,
          "time": 124.8332085,
          "velocity": 0.7795275590551181
        },
        {
          "duration": 0.31944412499998975,
          "durationTicks": 92,
          "midi": 40,
          "name": "E2",
          "ticks": 36000,
          "time": 124.999875,
          "velocity": 0.7952755905511811
        },
        {
          "duration": 0.31944412499998975,
          "durationTicks": 92,
          "midi": 28,
          "name": "E1",
          "ticks": 36000,
          "time": 124.999875,
          "velocity": 0.7952755905511811
        },
        {
          "duration": 0.31944412499998975,
          "durationTicks": 92,
          "midi": 33,
          "name": "A1",
          "ticks": 36096,
          "time": 125.333208,
          "velocity": 0.8110236220472441
        },
        {
          "duration": 0.31944412500000396,
          "durationTicks": 92,
          "midi": 45,
          "name": "A2",
          "ticks": 36288,
          "time": 125.99987399999999,
          "velocity": 0.8110236220472441
        },
        {
          "duration": 0.31944412500000396,
          "durationTicks": 92,
          "midi": 33,
          "name": "A1",
          "ticks": 36432,
          "time": 126.49987349999999,
          "velocity": 0.8110236220472441
        },
        {
          "duration": 0.31944412500000396,
          "durationTicks": 92,
          "midi": 45,
          "name": "A2",
          "ticks": 36672,
          "time": 127.33320599999999,
          "velocity": 0.8110236220472441
        },
        {
          "duration": 0.31944412499998975,
          "durationTicks": 92,
          "midi": 33,
          "name": "A1",
          "ticks": 36768,
          "time": 127.666539,
          "velocity": 0.8110236220472441
        },
        {
          "duration": 0.31944412500000396,
          "durationTicks": 92,
          "midi": 37,
          "name": "C#2",
          "ticks": 36864,
          "time": 127.999872,
          "velocity": 0.8110236220472441
        },
        {
          "duration": 0.31944412499998975,
          "durationTicks": 92,
          "midi": 49,
          "name": "C#3",
          "ticks": 37056,
          "time": 128.666538,
          "velocity": 0.8110236220472441
        },
        {
          "duration": 0.31944412499998975,
          "durationTicks": 92,
          "midi": 37,
          "name": "C#2",
          "ticks": 37200,
          "time": 129.1665375,
          "velocity": 0.8110236220472441
        },
        {
          "duration": 0.31944412499998975,
          "durationTicks": 92,
          "midi": 49,
          "name": "C#3",
          "ticks": 37440,
          "time": 129.99987,
          "velocity": 0.8110236220472441
        },
        {
          "duration": 0.31944412499998975,
          "durationTicks": 92,
          "midi": 37,
          "name": "C#2",
          "ticks": 37536,
          "time": 130.333203,
          "velocity": 0.8110236220472441
        },
        {
          "duration": 0.31944412499998975,
          "durationTicks": 92,
          "midi": 38,
          "name": "D2",
          "ticks": 37632,
          "time": 130.666536,
          "velocity": 0.8110236220472441
        },
        {
          "duration": 0.31944412499998975,
          "durationTicks": 92,
          "midi": 50,
          "name": "D3",
          "ticks": 37824,
          "time": 131.333202,
          "velocity": 0.8110236220472441
        },
        {
          "duration": 0.31944412499998975,
          "durationTicks": 92,
          "midi": 38,
          "name": "D2",
          "ticks": 37968,
          "time": 131.8332015,
          "velocity": 0.8110236220472441
        },
        {
          "duration": 0.3194441250000182,
          "durationTicks": 92,
          "midi": 50,
          "name": "D3",
          "ticks": 38208,
          "time": 132.66653399999998,
          "velocity": 0.8110236220472441
        },
        {
          "duration": 0.31944412499998975,
          "durationTicks": 92,
          "midi": 38,
          "name": "D2",
          "ticks": 38304,
          "time": 132.999867,
          "velocity": 0.8110236220472441
        },
        {
          "duration": 0.31944412499998975,
          "durationTicks": 92,
          "midi": 38,
          "name": "D2",
          "ticks": 38400,
          "time": 133.3332,
          "velocity": 0.8110236220472441
        },
        {
          "duration": 0.31944412499998975,
          "durationTicks": 92,
          "midi": 50,
          "name": "D3",
          "ticks": 38592,
          "time": 133.999866,
          "velocity": 0.8110236220472441
        },
        {
          "duration": 0.31944412499998975,
          "durationTicks": 92,
          "midi": 31,
          "name": "G1",
          "ticks": 38736,
          "time": 134.4998655,
          "velocity": 0.8110236220472441
        },
        {
          "duration": 0.1527776249999988,
          "durationTicks": 44,
          "midi": 31,
          "name": "G1",
          "ticks": 38880,
          "time": 134.999865,
          "velocity": 0.8110236220472441
        },
        {
          "duration": 0.6527771249999716,
          "durationTicks": 188,
          "midi": 35,
          "name": "B1",
          "ticks": 38976,
          "time": 135.333198,
          "velocity": 0.8110236220472441
        },
        {
          "duration": 0.31944412499998975,
          "durationTicks": 92,
          "midi": 33,
          "name": "A1",
          "ticks": 39168,
          "time": 135.999864,
          "velocity": 0.8110236220472441
        },
        {
          "duration": 0.31944412499998975,
          "durationTicks": 92,
          "midi": 45,
          "name": "A2",
          "ticks": 39360,
          "time": 136.66653,
          "velocity": 0.8110236220472441
        },
        {
          "duration": 0.31944412499998975,
          "durationTicks": 92,
          "midi": 33,
          "name": "A1",
          "ticks": 39504,
          "time": 137.1665295,
          "velocity": 0.8110236220472441
        },
        {
          "duration": 0.31944412499998975,
          "durationTicks": 92,
          "midi": 45,
          "name": "A2",
          "ticks": 39744,
          "time": 137.999862,
          "velocity": 0.8110236220472441
        },
        {
          "duration": 0.31944412499998975,
          "durationTicks": 92,
          "midi": 33,
          "name": "A1",
          "ticks": 39840,
          "time": 138.333195,
          "velocity": 0.8110236220472441
        },
        {
          "duration": 0.31944412499998975,
          "durationTicks": 92,
          "midi": 37,
          "name": "C#2",
          "ticks": 39936,
          "time": 138.666528,
          "velocity": 0.8110236220472441
        },
        {
          "duration": 0.31944412499998975,
          "durationTicks": 92,
          "midi": 49,
          "name": "C#3",
          "ticks": 40128,
          "time": 139.333194,
          "velocity": 0.8110236220472441
        },
        {
          "duration": 0.31944412499998975,
          "durationTicks": 92,
          "midi": 37,
          "name": "C#2",
          "ticks": 40272,
          "time": 139.8331935,
          "velocity": 0.8110236220472441
        },
        {
          "duration": 0.31944412499998975,
          "durationTicks": 92,
          "midi": 38,
          "name": "D2",
          "ticks": 40704,
          "time": 141.333192,
          "velocity": 0.8110236220472441
        },
        {
          "duration": 0.027777750000012702,
          "durationTicks": 8,
          "midi": 50,
          "name": "D3",
          "ticks": 40896,
          "time": 141.999858,
          "velocity": 0.8110236220472441
        },
        {
          "duration": 0.31944412499998975,
          "durationTicks": 92,
          "midi": 38,
          "name": "D2",
          "ticks": 41056,
          "time": 142.55541300000002,
          "velocity": 0.8110236220472441
        },
        {
          "duration": 0.02777774999998428,
          "durationTicks": 8,
          "midi": 50,
          "name": "D3",
          "ticks": 41280,
          "time": 143.33319,
          "velocity": 0.8110236220472441
        },
        {
          "duration": 0.1805553750000115,
          "durationTicks": 52,
          "midi": 38,
          "name": "D2",
          "ticks": 41376,
          "time": 143.66652299999998,
          "velocity": 0.8110236220472441
        },
        {
          "duration": 0.31944412499998975,
          "durationTicks": 92,
          "midi": 38,
          "name": "D2",
          "ticks": 41472,
          "time": 143.999856,
          "velocity": 0.8110236220472441
        },
        {
          "duration": 0.027777750000012702,
          "durationTicks": 8,
          "midi": 50,
          "name": "D3",
          "ticks": 41664,
          "time": 144.666522,
          "velocity": 0.8110236220472441
        },
        {
          "duration": 1.458331874999999,
          "durationTicks": 420,
          "midi": 38,
          "name": "D2",
          "ticks": 41808,
          "time": 145.1665215,
          "velocity": 0.8110236220472441
        },
        {
          "duration": 0.02777774999998428,
          "durationTicks": 8,
          "midi": 38,
          "name": "D2",
          "ticks": 42240,
          "time": 146.66652,
          "velocity": 0.49606299212598426
        },
        {
          "duration": 0.02777774999998428,
          "durationTicks": 8,
          "midi": 38,
          "name": "D2",
          "ticks": 42336,
          "time": 146.999853,
          "velocity": 0.49606299212598426
        },
        {
          "duration": 0.027777750000012702,
          "durationTicks": 8,
          "midi": 50,
          "name": "D3",
          "ticks": 42432,
          "time": 147.33318599999998,
          "velocity": 0.49606299212598426
        },
        {
          "duration": 0.02777774999998428,
          "durationTicks": 8,
          "midi": 38,
          "name": "D2",
          "ticks": 42528,
          "time": 147.666519,
          "velocity": 0.49606299212598426
        },
        {
          "duration": 0.02777774999998428,
          "durationTicks": 8,
          "midi": 38,
          "name": "D2",
          "ticks": 42624,
          "time": 147.999852,
          "velocity": 0.49606299212598426
        },
        {
          "duration": 0.027777750000012702,
          "durationTicks": 8,
          "midi": 38,
          "name": "D2",
          "ticks": 42720,
          "time": 148.333185,
          "velocity": 0.49606299212598426
        },
        {
          "duration": 0.02777774999998428,
          "durationTicks": 8,
          "midi": 50,
          "name": "D3",
          "ticks": 42816,
          "time": 148.666518,
          "velocity": 0.49606299212598426
        },
        {
          "duration": 0.02777774999998428,
          "durationTicks": 8,
          "midi": 38,
          "name": "D2",
          "ticks": 42912,
          "time": 148.999851,
          "velocity": 0.49606299212598426
        },
        {
          "duration": 0.027777750000012702,
          "durationTicks": 8,
          "midi": 37,
          "name": "C#2",
          "ticks": 43008,
          "time": 149.333184,
          "velocity": 0.49606299212598426
        },
        {
          "duration": 0.02777774999998428,
          "durationTicks": 8,
          "midi": 37,
          "name": "C#2",
          "ticks": 43104,
          "time": 149.666517,
          "velocity": 0.49606299212598426
        },
        {
          "duration": 0.02777774999998428,
          "durationTicks": 8,
          "midi": 49,
          "name": "C#3",
          "ticks": 43200,
          "time": 149.99985,
          "velocity": 0.49606299212598426
        },
        {
          "duration": 0.02777774999998428,
          "durationTicks": 8,
          "midi": 37,
          "name": "C#2",
          "ticks": 43296,
          "time": 150.333183,
          "velocity": 0.49606299212598426
        },
        {
          "duration": 0.027777750000012702,
          "durationTicks": 8,
          "midi": 37,
          "name": "C#2",
          "ticks": 43344,
          "time": 150.49984949999998,
          "velocity": 0.49606299212598426
        },
        {
          "duration": 0.02777774999998428,
          "durationTicks": 8,
          "midi": 37,
          "name": "C#2",
          "ticks": 43368,
          "time": 150.58318275,
          "velocity": 0.49606299212598426
        },
        {
          "duration": 0.02777774999998428,
          "durationTicks": 8,
          "midi": 36,
          "name": "C2",
          "ticks": 43392,
          "time": 150.666516,
          "velocity": 0.49606299212598426
        },
        {
          "duration": 0.22222200000001635,
          "durationTicks": 64,
          "midi": 48,
          "name": "C3",
          "ticks": 43488,
          "time": 150.99984899999998,
          "velocity": 0.49606299212598426
        },
        {
          "duration": 0.02777774999998428,
          "durationTicks": 8,
          "midi": 48,
          "name": "C3",
          "ticks": 43584,
          "time": 151.333182,
          "velocity": 0.49606299212598426
        },
        {
          "duration": 0.02777774999998428,
          "durationTicks": 8,
          "midi": 36,
          "name": "C2",
          "ticks": 43680,
          "time": 151.666515,
          "velocity": 0.49606299212598426
        },
        {
          "duration": 0.027777750000012702,
          "durationTicks": 8,
          "midi": 35,
          "name": "B1",
          "ticks": 43776,
          "time": 151.999848,
          "velocity": 0.49606299212598426
        },
        {
          "duration": 0.02777774999998428,
          "durationTicks": 8,
          "midi": 35,
          "name": "B1",
          "ticks": 43872,
          "time": 152.333181,
          "velocity": 0.49606299212598426
        },
        {
          "duration": 0.02777774999998428,
          "durationTicks": 8,
          "midi": 47,
          "name": "B2",
          "ticks": 43968,
          "time": 152.666514,
          "velocity": 0.49606299212598426
        },
        {
          "duration": 0.027777750000012702,
          "durationTicks": 8,
          "midi": 35,
          "name": "B1",
          "ticks": 44064,
          "time": 152.999847,
          "velocity": 0.49606299212598426
        },
        {
          "duration": 0.02777774999998428,
          "durationTicks": 8,
          "midi": 40,
          "name": "E2",
          "ticks": 44160,
          "time": 153.33318,
          "velocity": 0.49606299212598426
        },
        {
          "duration": 0.02777774999998428,
          "durationTicks": 8,
          "midi": 40,
          "name": "E2",
          "ticks": 44256,
          "time": 153.666513,
          "velocity": 0.49606299212598426
        },
        {
          "duration": 0.02777774999998428,
          "durationTicks": 8,
          "midi": 52,
          "name": "E3",
          "ticks": 44352,
          "time": 153.999846,
          "velocity": 0.49606299212598426
        },
        {
          "duration": 0.02777774999998428,
          "durationTicks": 8,
          "midi": 40,
          "name": "E2",
          "ticks": 44448,
          "time": 154.333179,
          "velocity": 0.49606299212598426
        },
        {
          "duration": 0.027777750000012702,
          "durationTicks": 8,
          "midi": 33,
          "name": "A1",
          "ticks": 44544,
          "time": 154.66651199999998,
          "velocity": 0.49606299212598426
        },
        {
          "duration": 0.02777774999998428,
          "durationTicks": 8,
          "midi": 33,
          "name": "A1",
          "ticks": 44640,
          "time": 154.999845,
          "velocity": 0.49606299212598426
        },
        {
          "duration": 0.02777774999998428,
          "durationTicks": 8,
          "midi": 45,
          "name": "A2",
          "ticks": 44736,
          "time": 155.333178,
          "velocity": 0.49606299212598426
        },
        {
          "duration": 0.027777750000012702,
          "durationTicks": 8,
          "midi": 33,
          "name": "A1",
          "ticks": 44832,
          "time": 155.66651099999999,
          "velocity": 0.49606299212598426
        },
        {
          "duration": 0.02777774999998428,
          "durationTicks": 8,
          "midi": 33,
          "name": "A1",
          "ticks": 44928,
          "time": 155.999844,
          "velocity": 0.49606299212598426
        }
      ],
      "endOfTrackTicks": 45698
    },
    {
      "channel": 13,
      "controlChanges": {
        "6": [
          {
            "number": 6,
            "ticks": 0,
            "time": 0,
            "value": 0.09448818897637795
          },
          {
            "number": 6,
            "ticks": 0,
            "time": 0,
            "value": 0.09448818897637795
          },
          {
            "number": 6,
            "ticks": 0,
            "time": 0,
            "value": 0.09448818897637795
          },
          {
            "number": 6,
            "ticks": 45696,
            "time": 158.666508,
            "value": 0.09448818897637795
          },
          {
            "number": 6,
            "ticks": 45698,
            "time": 158.67345243749998,
            "value": 0.09448818897637795
          }
        ],
        "7": [
          {
            "number": 7,
            "ticks": 0,
            "time": 0,
            "value": 0.7874015748031497
          },
          {
            "number": 7,
            "ticks": 0,
            "time": 0,
            "value": 0.7874015748031497
          },
          {
            "number": 7,
            "ticks": 0,
            "time": 0,
            "value": 0.7874015748031497
          },
          {
            "number": 7,
            "ticks": 0,
            "time": 0,
            "value": 0.7874015748031497
          },
          {
            "number": 7,
            "ticks": 45696,
            "time": 158.666508,
            "value": 0.7874015748031497
          },
          {
            "number": 7,
            "ticks": 45698,
            "time": 158.67345243749998,
            "value": 0.7874015748031497
          }
        ],
        "10": [
          {
            "number": 10,
            "ticks": 0,
            "time": 0,
            "value": 0.5039370078740157
          },
          {
            "number": 10,
            "ticks": 0,
            "time": 0,
            "value": 0.5039370078740157
          },
          {
            "number": 10,
            "ticks": 0,
            "time": 0,
            "value": 0.5039370078740157
          },
          {
            "number": 10,
            "ticks": 0,
            "time": 0,
            "value": 0.5039370078740157
          },
          {
            "number": 10,
            "ticks": 45696,
            "time": 158.666508,
            "value": 0.5039370078740157
          },
          {
            "number": 10,
            "ticks": 45698,
            "time": 158.67345243749998,
            "value": 0.5039370078740157
          }
        ],
        "100": [
          {
            "number": 100,
            "ticks": 0,
            "time": 0,
            "value": 0
          },
          {
            "number": 100,
            "ticks": 0,
            "time": 0,
            "value": 0
          },
          {
            "number": 100,
            "ticks": 0,
            "time": 0,
            "value": 0
          },
          {
            "number": 100,
            "ticks": 45696,
            "time": 158.666508,
            "value": 0
          },
          {
            "number": 100,
            "ticks": 45698,
            "time": 158.67345243749998,
            "value": 0
          }
        ],
        "101": [
          {
            "number": 101,
            "ticks": 0,
            "time": 0,
            "value": 0
          },
          {
            "number": 101,
            "ticks": 0,
            "time": 0,
            "value": 0
          },
          {
            "number": 101,
            "ticks": 0,
            "time": 0,
            "value": 0
          },
          {
            "number": 101,
            "ticks": 45696,
            "time": 158.666508,
            "value": 0
          },
          {
            "number": 101,
            "ticks": 45698,
            "time": 158.67345243749998,
            "value": 0
          }
        ]
      },
      "pitchBends": [
        {
          "ticks": 0,
          "time": 0,
          "value": 0
        },
        {
          "ticks": 0,
          "time": 0,
          "value": 0
        },
        {
          "ticks": 0,
          "time": 0,
          "value": 0
        },
        {
          "ticks": 0,
          "time": 0,
          "value": 0
        },
        {
          "ticks": 45696,
          "time": 158.666508,
          "value": 0
        },
        {
          "ticks": 45698,
          "time": 158.67345243749998,
          "value": 0
        }
      ],
      "instrument": {
        "family": "piano",
        "number": 0,
        "name": "acoustic grand piano"
      },
      "name": "Drum #2",
      "notes": [
        {
          "duration": 0.04166662499999951,
          "durationTicks": 12,
          "midi": 26,
          "name": "D1",
          "ticks": 3984,
          "time": 13.8333195,
          "velocity": 0.6929133858267716
        },
        {
          "duration": 0.04166662500000129,
          "durationTicks": 12,
          "midi": 26,
          "name": "D1",
          "ticks": 4008,
          "time": 13.916652749999999,
          "velocity": 0.6929133858267716
        },
        {
          "duration": 0.04166662499999951,
          "durationTicks": 12,
          "midi": 31,
          "name": "G1",
          "ticks": 4176,
          "time": 14.4999855,
          "velocity": 0.6929133858267716
        },
        {
          "duration": 0.04166662500000129,
          "durationTicks": 12,
          "midi": 31,
          "name": "G1",
          "ticks": 4272,
          "time": 14.833318499999999,
          "velocity": 0.6929133858267716
        },
        {
          "duration": 0.04166662500000129,
          "durationTicks": 12,
          "midi": 33,
          "name": "A1",
          "ticks": 4752,
          "time": 16.4999835,
          "velocity": 0.6929133858267716
        },
        {
          "duration": 0.04166662500000129,
          "durationTicks": 12,
          "midi": 45,
          "name": "A2",
          "ticks": 4776,
          "time": 16.583316749999998,
          "velocity": 0.6929133858267716
        },
        {
          "duration": 0.04166662499999774,
          "durationTicks": 12,
          "midi": 33,
          "name": "A1",
          "ticks": 4800,
          "time": 16.66665,
          "velocity": 0.6929133858267716
        },
        {
          "duration": 0.04166662500000129,
          "durationTicks": 12,
          "midi": 45,
          "name": "A2",
          "ticks": 4824,
          "time": 16.74998325,
          "velocity": 0.6929133858267716
        },
        {
          "duration": 0.04166662500000129,
          "durationTicks": 12,
          "midi": 33,
          "name": "A1",
          "ticks": 4944,
          "time": 17.1666495,
          "velocity": 0.6929133858267716
        },
        {
          "duration": 0.04166662499999774,
          "durationTicks": 12,
          "midi": 45,
          "name": "A2",
          "ticks": 4968,
          "time": 17.24998275,
          "velocity": 0.6929133858267716
        },
        {
          "duration": 0.04166662500000129,
          "durationTicks": 12,
          "midi": 37,
          "name": "C#2",
          "ticks": 5184,
          "time": 17.999982,
          "velocity": 0.6929133858267716
        },
        {
          "duration": 0.04166662500000129,
          "durationTicks": 12,
          "midi": 25,
          "name": "C#1",
          "ticks": 5208,
          "time": 18.08331525,
          "velocity": 0.6929133858267716
        },
        {
          "duration": 0.04166662499999774,
          "durationTicks": 12,
          "midi": 37,
          "name": "C#2",
          "ticks": 5232,
          "time": 18.1666485,
          "velocity": 0.6929133858267716
        },
        {
          "duration": 0.04166662500000129,
          "durationTicks": 12,
          "midi": 37,
          "name": "C#2",
          "ticks": 5352,
          "time": 18.58331475,
          "velocity": 0.6929133858267716
        },
        {
          "duration": 0.04166662500000129,
          "durationTicks": 12,
          "midi": 23,
          "name": "B0",
          "ticks": 5520,
          "time": 19.1666475,
          "velocity": 0.6929133858267716
        },
        {
          "duration": 0.04166662500000129,
          "durationTicks": 12,
          "midi": 23,
          "name": "B0",
          "ticks": 5544,
          "time": 19.24998075,
          "velocity": 0.6929133858267716
        },
        {
          "duration": 0.04166662500000129,
          "durationTicks": 12,
          "midi": 31,
          "name": "G1",
          "ticks": 5712,
          "time": 19.8333135,
          "velocity": 0.6929133858267716
        },
        {
          "duration": 0.04166662500000129,
          "durationTicks": 12,
          "midi": 31,
          "name": "G1",
          "ticks": 5808,
          "time": 20.1666465,
          "velocity": 0.6929133858267716
        },
        {
          "duration": 0.04166662499999774,
          "durationTicks": 12,
          "midi": 30,
          "name": "F#1",
          "ticks": 6288,
          "time": 21.8333115,
          "velocity": 0.6929133858267716
        },
        {
          "duration": 0.04166662500000129,
          "durationTicks": 12,
          "midi": 42,
          "name": "F#2",
          "ticks": 6312,
          "time": 21.91664475,
          "velocity": 0.6929133858267716
        },
        {
          "duration": 0.04166662500000129,
          "durationTicks": 12,
          "midi": 30,
          "name": "F#1",
          "ticks": 6336,
          "time": 21.999978,
          "velocity": 0.6929133858267716
        },
        {
          "duration": 0.04166662500000129,
          "durationTicks": 12,
          "midi": 42,
          "name": "F#2",
          "ticks": 6360,
          "time": 22.083311249999998,
          "velocity": 0.6929133858267716
        },
        {
          "duration": 0.04166662499999774,
          "durationTicks": 12,
          "midi": 30,
          "name": "F#1",
          "ticks": 6480,
          "time": 22.4999775,
          "velocity": 0.6929133858267716
        },
        {
          "duration": 0.04166662500000129,
          "durationTicks": 12,
          "midi": 42,
          "name": "F#2",
          "ticks": 6504,
          "time": 22.58331075,
          "velocity": 0.6929133858267716
        },
        {
          "duration": 0.04166662499999774,
          "durationTicks": 12,
          "midi": 40,
          "name": "E2",
          "ticks": 6720,
          "time": 23.33331,
          "velocity": 0.6929133858267716
        },
        {
          "duration": 0.04166662499999774,
          "durationTicks": 12,
          "midi": 28,
          "name": "E1",
          "ticks": 6744,
          "time": 23.41664325,
          "velocity": 0.6929133858267716
        },
        {
          "duration": 0.04166662500000129,
          "durationTicks": 12,
          "midi": 40,
          "name": "E2",
          "ticks": 6768,
          "time": 23.4999765,
          "velocity": 0.6929133858267716
        },
        {
          "duration": 0.04166662500000129,
          "durationTicks": 12,
          "midi": 40,
          "name": "E2",
          "ticks": 6888,
          "time": 23.916642749999998,
          "velocity": 0.6929133858267716
        },
        {
          "duration": 0.04166662500000484,
          "durationTicks": 12,
          "midi": 38,
          "name": "D2",
          "ticks": 41952,
          "time": 145.666521,
          "velocity": 0.05511811023622047
        },
        {
          "duration": 0.04166662499997642,
          "durationTicks": 12,
          "midi": 38,
          "name": "D2",
          "ticks": 41968,
          "time": 145.72207650000001,
          "velocity": 0.11023622047244094
        },
        {
          "duration": 0.04166662500000484,
          "durationTicks": 12,
          "midi": 38,
          "name": "D2",
          "ticks": 41984,
          "time": 145.77763199999998,
          "velocity": 0.15748031496062992
        },
        {
          "duration": 0.04166662499997642,
          "durationTicks": 12,
          "midi": 38,
          "name": "D2",
          "ticks": 42000,
          "time": 145.8331875,
          "velocity": 0.2125984251968504
        },
        {
          "duration": 0.04166662500000484,
          "durationTicks": 12,
          "midi": 38,
          "name": "D2",
          "ticks": 42016,
          "time": 145.888743,
          "velocity": 0.25984251968503935
        },
        {
          "duration": 0.04166662499997642,
          "durationTicks": 12,
          "midi": 38,
          "name": "D2",
          "ticks": 42032,
          "time": 145.9442985,
          "velocity": 0.31496062992125984
        },
        {
          "duration": 0.06944437499998912,
          "durationTicks": 20,
          "midi": 38,
          "name": "D2",
          "ticks": 42048,
          "time": 145.999854,
          "velocity": 0.36220472440944884
        },
        {
          "duration": 0.06944437499998912,
          "durationTicks": 20,
          "midi": 38,
          "name": "D2",
          "ticks": 42072,
          "time": 146.08318725,
          "velocity": 0.4409448818897638
        },
        {
          "duration": 0.06944437499998912,
          "durationTicks": 20,
          "midi": 38,
          "name": "D2",
          "ticks": 42096,
          "time": 146.1665205,
          "velocity": 0.5196850393700787
        },
        {
          "duration": 0.06944437499998912,
          "durationTicks": 20,
          "midi": 38,
          "name": "D2",
          "ticks": 42120,
          "time": 146.24985375,
          "velocity": 0.5984251968503937
        },
        {
          "duration": 0.0763888124999994,
          "durationTicks": 22,
          "midi": 38,
          "name": "D2",
          "ticks": 42144,
          "time": 146.333187,
          "velocity": 0.6771653543307087
        },
        {
          "duration": 0.0763888124999994,
          "durationTicks": 22,
          "midi": 38,
          "name": "D2",
          "ticks": 42192,
          "time": 146.4998535,
          "velocity": 0.6771653543307087
        }
      ],
      "endOfTrackTicks": 45698
    },
    {
      "channel": 14,
      "controlChanges": {
        "6": [
          {
            "number": 6,
            "ticks": 0,
            "time": 0,
            "value": 0.09448818897637795
          },
          {
            "number": 6,
            "ticks": 0,
            "time": 0,
            "value": 0.09448818897637795
          },
          {
            "number": 6,
            "ticks": 0,
            "time": 0,
            "value": 0.09448818897637795
          },
          {
            "number": 6,
            "ticks": 45696,
            "time": 158.666508,
            "value": 0.09448818897637795
          },
          {
            "number": 6,
            "ticks": 45698,
            "time": 158.67345243749998,
            "value": 0.09448818897637795
          }
        ],
        "7": [
          {
            "number": 7,
            "ticks": 0,
            "time": 0,
            "value": 0.7874015748031497
          },
          {
            "number": 7,
            "ticks": 0,
            "time": 0,
            "value": 0.7874015748031497
          },
          {
            "number": 7,
            "ticks": 0,
            "time": 0,
            "value": 0.7874015748031497
          },
          {
            "number": 7,
            "ticks": 0,
            "time": 0,
            "value": 0.7874015748031497
          },
          {
            "number": 7,
            "ticks": 45696,
            "time": 158.666508,
            "value": 0.7874015748031497
          },
          {
            "number": 7,
            "ticks": 45698,
            "time": 158.67345243749998,
            "value": 0.7874015748031497
          }
        ],
        "10": [
          {
            "number": 10,
            "ticks": 0,
            "time": 0,
            "value": 0.5039370078740157
          },
          {
            "number": 10,
            "ticks": 0,
            "time": 0,
            "value": 0.5039370078740157
          },
          {
            "number": 10,
            "ticks": 0,
            "time": 0,
            "value": 0.5039370078740157
          },
          {
            "number": 10,
            "ticks": 0,
            "time": 0,
            "value": 0.5039370078740157
          },
          {
            "number": 10,
            "ticks": 45696,
            "time": 158.666508,
            "value": 0.5039370078740157
          },
          {
            "number": 10,
            "ticks": 45698,
            "time": 158.67345243749998,
            "value": 0.5039370078740157
          }
        ],
        "100": [
          {
            "number": 100,
            "ticks": 0,
            "time": 0,
            "value": 0
          },
          {
            "number": 100,
            "ticks": 0,
            "time": 0,
            "value": 0
          },
          {
            "number": 100,
            "ticks": 0,
            "time": 0,
            "value": 0
          },
          {
            "number": 100,
            "ticks": 45696,
            "time": 158.666508,
            "value": 0
          },
          {
            "number": 100,
            "ticks": 45698,
            "time": 158.67345243749998,
            "value": 0
          }
        ],
        "101": [
          {
            "number": 101,
            "ticks": 0,
            "time": 0,
            "value": 0
          },
          {
            "number": 101,
            "ticks": 0,
            "time": 0,
            "value": 0
          },
          {
            "number": 101,
            "ticks": 0,
            "time": 0,
            "value": 0
          },
          {
            "number": 101,
            "ticks": 45696,
            "time": 158.666508,
            "value": 0
          },
          {
            "number": 101,
            "ticks": 45698,
            "time": 158.67345243749998,
            "value": 0
          }
        ]
      },
      "pitchBends": [
        {
          "ticks": 0,
          "time": 0,
          "value": 0
        },
        {
          "ticks": 0,
          "time": 0,
          "value": 0
        },
        {
          "ticks": 0,
          "time": 0,
          "value": 0
        },
        {
          "ticks": 0,
          "time": 0,
          "value": 0
        },
        {
          "ticks": 45696,
          "time": 158.666508,
          "value": 0
        },
        {
          "ticks": 45698,
          "time": 158.67345243749998,
          "value": 0
        }
      ],
      "instrument": {
        "family": "piano",
        "number": 0,
        "name": "acoustic grand piano"
      },
      "name": "Pad",
      "notes": [
        {
          "duration": 0.027777749999999823,
          "durationTicks": 8,
          "midi": 76,
          "name": "E5",
          "ticks": 384,
          "time": 1.333332,
          "velocity": 0.05511811023622047
        },
        {
          "duration": 0.027777749999999823,
          "durationTicks": 8,
          "midi": 61,
          "name": "C#4",
          "ticks": 384,
          "time": 1.333332,
          "velocity": 0.05511811023622047
        },
        {
          "duration": 0.027777749999999823,
          "durationTicks": 8,
          "midi": 61,
          "name": "C#4",
          "ticks": 400,
          "time": 1.3888875,
          "velocity": 0.08661417322834646
        },
        {
          "duration": 0.027777749999999823,
          "durationTicks": 8,
          "midi": 76,
          "name": "E5",
          "ticks": 400,
          "time": 1.3888875,
          "velocity": 0.08661417322834646
        },
        {
          "duration": 0.027777750000000045,
          "durationTicks": 8,
          "midi": 76,
          "name": "E5",
          "ticks": 416,
          "time": 1.444443,
          "velocity": 0.11811023622047244
        },
        {
          "duration": 0.027777750000000045,
          "durationTicks": 8,
          "midi": 61,
          "name": "C#4",
          "ticks": 416,
          "time": 1.444443,
          "velocity": 0.11811023622047244
        },
        {
          "duration": 0.027777749999999823,
          "durationTicks": 8,
          "midi": 61,
          "name": "C#4",
          "ticks": 432,
          "time": 1.4999985,
          "velocity": 0.14960629921259844
        },
        {
          "duration": 0.027777749999999823,
          "durationTicks": 8,
          "midi": 76,
          "name": "E5",
          "ticks": 432,
          "time": 1.4999985,
          "velocity": 0.14960629921259844
        },
        {
          "duration": 0.027777749999999823,
          "durationTicks": 8,
          "midi": 76,
          "name": "E5",
          "ticks": 448,
          "time": 1.555554,
          "velocity": 0.18110236220472442
        },
        {
          "duration": 0.027777749999999823,
          "durationTicks": 8,
          "midi": 61,
          "name": "C#4",
          "ticks": 448,
          "time": 1.555554,
          "velocity": 0.18110236220472442
        },
        {
          "duration": 0.027777750000000268,
          "durationTicks": 8,
          "midi": 76,
          "name": "E5",
          "ticks": 464,
          "time": 1.6111094999999998,
          "velocity": 0.2125984251968504
        },
        {
          "duration": 0.027777750000000268,
          "durationTicks": 8,
          "midi": 61,
          "name": "C#4",
          "ticks": 464,
          "time": 1.6111094999999998,
          "velocity": 0.2125984251968504
        },
        {
          "duration": 0.027777749999999823,
          "durationTicks": 8,
          "midi": 61,
          "name": "C#4",
          "ticks": 480,
          "time": 1.666665,
          "velocity": 0.2440944881889764
        },
        {
          "duration": 0.027777749999999823,
          "durationTicks": 8,
          "midi": 76,
          "name": "E5",
          "ticks": 480,
          "time": 1.666665,
          "velocity": 0.2440944881889764
        },
        {
          "duration": 0.027777749999999823,
          "durationTicks": 8,
          "midi": 61,
          "name": "C#4",
          "ticks": 496,
          "time": 1.7222205000000002,
          "velocity": 0.2755905511811024
        },
        {
          "duration": 0.027777749999999823,
          "durationTicks": 8,
          "midi": 76,
          "name": "E5",
          "ticks": 496,
          "time": 1.7222205000000002,
          "velocity": 0.2755905511811024
        },
        {
          "duration": 0.027777750000000268,
          "durationTicks": 8,
          "midi": 61,
          "name": "C#4",
          "ticks": 512,
          "time": 1.7777759999999998,
          "velocity": 0.30708661417322836
        },
        {
          "duration": 0.027777750000000268,
          "durationTicks": 8,
          "midi": 76,
          "name": "E5",
          "ticks": 512,
          "time": 1.7777759999999998,
          "velocity": 0.30708661417322836
        },
        {
          "duration": 0.027777750000000045,
          "durationTicks": 8,
          "midi": 61,
          "name": "C#4",
          "ticks": 528,
          "time": 1.8333315,
          "velocity": 0.33858267716535434
        },
        {
          "duration": 0.027777750000000045,
          "durationTicks": 8,
          "midi": 76,
          "name": "E5",
          "ticks": 528,
          "time": 1.8333315,
          "velocity": 0.33858267716535434
        },
        {
          "duration": 0.027777750000000045,
          "durationTicks": 8,
          "midi": 61,
          "name": "C#4",
          "ticks": 544,
          "time": 1.888887,
          "velocity": 0.3700787401574803
        },
        {
          "duration": 0.027777750000000045,
          "durationTicks": 8,
          "midi": 76,
          "name": "E5",
          "ticks": 544,
          "time": 1.888887,
          "velocity": 0.3700787401574803
        },
        {
          "duration": 0.027777750000000268,
          "durationTicks": 8,
          "midi": 76,
          "name": "E5",
          "ticks": 560,
          "time": 1.9444424999999999,
          "velocity": 0.4015748031496063
        },
        {
          "duration": 0.027777750000000268,
          "durationTicks": 8,
          "midi": 61,
          "name": "C#4",
          "ticks": 560,
          "time": 1.9444424999999999,
          "velocity": 0.4015748031496063
        },
        {
          "duration": 0.027777750000000045,
          "durationTicks": 8,
          "midi": 61,
          "name": "C#4",
          "ticks": 576,
          "time": 1.999998,
          "velocity": 0.4330708661417323
        },
        {
          "duration": 0.027777750000000045,
          "durationTicks": 8,
          "midi": 76,
          "name": "E5",
          "ticks": 576,
          "time": 1.999998,
          "velocity": 0.4330708661417323
        },
        {
          "duration": 0.027777749999999823,
          "durationTicks": 8,
          "midi": 61,
          "name": "C#4",
          "ticks": 592,
          "time": 2.0555535000000003,
          "velocity": 0.4566929133858268
        },
        {
          "duration": 0.027777749999999823,
          "durationTicks": 8,
          "midi": 76,
          "name": "E5",
          "ticks": 592,
          "time": 2.0555535000000003,
          "velocity": 0.4566929133858268
        },
        {
          "duration": 0.027777750000000268,
          "durationTicks": 8,
          "midi": 61,
          "name": "C#4",
          "ticks": 608,
          "time": 2.111109,
          "velocity": 0.4881889763779528
        },
        {
          "duration": 0.027777750000000268,
          "durationTicks": 8,
          "midi": 76,
          "name": "E5",
          "ticks": 608,
          "time": 2.111109,
          "velocity": 0.4881889763779528
        },
        {
          "duration": 0.027777749999999823,
          "durationTicks": 8,
          "midi": 61,
          "name": "C#4",
          "ticks": 624,
          "time": 2.1666645,
          "velocity": 0.5196850393700787
        },
        {
          "duration": 0.027777749999999823,
          "durationTicks": 8,
          "midi": 76,
          "name": "E5",
          "ticks": 624,
          "time": 2.1666645,
          "velocity": 0.5196850393700787
        },
        {
          "duration": 0.027777749999999823,
          "durationTicks": 8,
          "midi": 61,
          "name": "C#4",
          "ticks": 640,
          "time": 2.22222,
          "velocity": 0.5511811023622047
        },
        {
          "duration": 0.027777749999999823,
          "durationTicks": 8,
          "midi": 76,
          "name": "E5",
          "ticks": 640,
          "time": 2.22222,
          "velocity": 0.5511811023622047
        },
        {
          "duration": 0.027777750000000268,
          "durationTicks": 8,
          "midi": 76,
          "name": "E5",
          "ticks": 656,
          "time": 2.2777754999999997,
          "velocity": 0.5826771653543307
        },
        {
          "duration": 0.027777750000000268,
          "durationTicks": 8,
          "midi": 61,
          "name": "C#4",
          "ticks": 656,
          "time": 2.2777754999999997,
          "velocity": 0.5826771653543307
        },
        {
          "duration": 0.16666649999999983,
          "durationTicks": 48,
          "midi": 62,
          "name": "D4",
          "ticks": 768,
          "time": 2.666664,
          "velocity": 0.7086614173228346
        },
        {
          "duration": 0.16666649999999983,
          "durationTicks": 48,
          "midi": 57,
          "name": "A3",
          "ticks": 768,
          "time": 2.666664,
          "velocity": 0.7086614173228346
        },
        {
          "duration": 0.16666649999999983,
          "durationTicks": 48,
          "midi": 52,
          "name": "E3",
          "ticks": 768,
          "time": 2.666664,
          "velocity": 0.7086614173228346
        },
        {
          "duration": 0.33333299999999966,
          "durationTicks": 96,
          "midi": 62,
          "name": "D4",
          "ticks": 1248,
          "time": 4.333329,
          "velocity": 0.7086614173228346
        },
        {
          "duration": 0.33333299999999966,
          "durationTicks": 96,
          "midi": 57,
          "name": "A3",
          "ticks": 1248,
          "time": 4.333329,
          "velocity": 0.7086614173228346
        },
        {
          "duration": 0.33333299999999966,
          "durationTicks": 96,
          "midi": 52,
          "name": "E3",
          "ticks": 1248,
          "time": 4.333329,
          "velocity": 0.7086614173228346
        },
        {
          "duration": 0.33333300000000055,
          "durationTicks": 96,
          "midi": 52,
          "name": "E3",
          "ticks": 1344,
          "time": 4.666662,
          "velocity": 0.7086614173228346
        },
        {
          "duration": 0.33333300000000055,
          "durationTicks": 96,
          "midi": 57,
          "name": "A3",
          "ticks": 1344,
          "time": 4.666662,
          "velocity": 0.7086614173228346
        },
        {
          "duration": 0.33333300000000055,
          "durationTicks": 96,
          "midi": 62,
          "name": "D4",
          "ticks": 1344,
          "time": 4.666662,
          "velocity": 0.7086614173228346
        },
        {
          "duration": 0.33333299999999966,
          "durationTicks": 96,
          "midi": 62,
          "name": "D4",
          "ticks": 1440,
          "time": 4.999995,
          "velocity": 0.7086614173228346
        },
        {
          "duration": 0.33333299999999966,
          "durationTicks": 96,
          "midi": 57,
          "name": "A3",
          "ticks": 1440,
          "time": 4.999995,
          "velocity": 0.7086614173228346
        },
        {
          "duration": 0.33333299999999966,
          "durationTicks": 96,
          "midi": 52,
          "name": "E3",
          "ticks": 1440,
          "time": 4.999995,
          "velocity": 0.7086614173228346
        },
        {
          "duration": 0.16666649999999983,
          "durationTicks": 48,
          "midi": 52,
          "name": "E3",
          "ticks": 1536,
          "time": 5.333328,
          "velocity": 0.7086614173228346
        },
        {
          "duration": 0.16666649999999983,
          "durationTicks": 48,
          "midi": 57,
          "name": "A3",
          "ticks": 1536,
          "time": 5.333328,
          "velocity": 0.7086614173228346
        },
        {
          "duration": 0.16666649999999983,
          "durationTicks": 48,
          "midi": 61,
          "name": "C#4",
          "ticks": 1536,
          "time": 5.333328,
          "velocity": 0.7086614173228346
        },
        {
          "duration": 0.33333299999999966,
          "durationTicks": 96,
          "midi": 61,
          "name": "C#4",
          "ticks": 2016,
          "time": 6.999993,
          "velocity": 0.7086614173228346
        },
        {
          "duration": 0.33333299999999966,
          "durationTicks": 96,
          "midi": 57,
          "name": "A3",
          "ticks": 2016,
          "time": 6.999993,
          "velocity": 0.7086614173228346
        },
        {
          "duration": 0.33333299999999966,
          "durationTicks": 96,
          "midi": 52,
          "name": "E3",
          "ticks": 2016,
          "time": 6.999993,
          "velocity": 0.7086614173228346
        },
        {
          "duration": 0.0833332500000008,
          "durationTicks": 24,
          "midi": 57,
          "name": "A3",
          "ticks": 2160,
          "time": 7.499992499999999,
          "velocity": 0.7086614173228346
        },
        {
          "duration": 0.0833332500000008,
          "durationTicks": 24,
          "midi": 61,
          "name": "C#4",
          "ticks": 2160,
          "time": 7.499992499999999,
          "velocity": 0.7086614173228346
        },
        {
          "duration": 0.0833332500000008,
          "durationTicks": 24,
          "midi": 52,
          "name": "E3",
          "ticks": 2160,
          "time": 7.499992499999999,
          "velocity": 0.7086614173228346
        },
        {
          "duration": 0.13888875000000045,
          "durationTicks": 40,
          "midi": 52,
          "name": "E3",
          "ticks": 2208,
          "time": 7.666659,
          "velocity": 0.7086614173228346
        },
        {
          "duration": 0.13888875000000045,
          "durationTicks": 40,
          "midi": 61,
          "name": "C#4",
          "ticks": 2208,
          "time": 7.666659,
          "velocity": 0.7086614173228346
        },
        {
          "duration": 0.13888875000000045,
          "durationTicks": 40,
          "midi": 57,
          "name": "A3",
          "ticks": 2208,
          "time": 7.666659,
          "velocity": 0.7086614173228346
        },
        {
          "duration": 0.02777774999999938,
          "durationTicks": 8,
          "midi": 52,
          "name": "E3",
          "ticks": 2256,
          "time": 7.8333255,
          "velocity": 0.7086614173228346
        },
        {
          "duration": 0.02777774999999938,
          "durationTicks": 8,
          "midi": 61,
          "name": "C#4",
          "ticks": 2256,
          "time": 7.8333255,
          "velocity": 0.7086614173228346
        },
        {
          "duration": 0.02777774999999938,
          "durationTicks": 8,
          "midi": 57,
          "name": "A3",
          "ticks": 2256,
          "time": 7.8333255,
          "velocity": 0.7086614173228346
        },
        {
          "duration": 0.02777774999999938,
          "durationTicks": 8,
          "midi": 57,
          "name": "A3",
          "ticks": 2280,
          "time": 7.91665875,
          "velocity": 0.7086614173228346
        },
        {
          "duration": 0.02777774999999938,
          "durationTicks": 8,
          "midi": 61,
          "name": "C#4",
          "ticks": 2280,
          "time": 7.91665875,
          "velocity": 0.7086614173228346
        },
        {
          "duration": 0.02777774999999938,
          "durationTicks": 8,
          "midi": 52,
          "name": "E3",
          "ticks": 2280,
          "time": 7.91665875,
          "velocity": 0.7086614173228346
        },
        {
          "duration": 0.16666650000000072,
          "durationTicks": 48,
          "midi": 62,
          "name": "D4",
          "ticks": 2304,
          "time": 7.999992,
          "velocity": 0.7086614173228346
        },
        {
          "duration": 0.16666650000000072,
          "durationTicks": 48,
          "midi": 57,
          "name": "A3",
          "ticks": 2304,
          "time": 7.999992,
          "velocity": 0.7086614173228346
        },
        {
          "duration": 0.16666650000000072,
          "durationTicks": 48,
          "midi": 52,
          "name": "E3",
          "ticks": 2304,
          "time": 7.999992,
          "velocity": 0.7086614173228346
        },
        {
          "duration": 0.33333300000000143,
          "durationTicks": 96,
          "midi": 52,
          "name": "E3",
          "ticks": 2784,
          "time": 9.666656999999999,
          "velocity": 0.7086614173228346
        },
        {
          "duration": 0.33333300000000143,
          "durationTicks": 96,
          "midi": 57,
          "name": "A3",
          "ticks": 2784,
          "time": 9.666656999999999,
          "velocity": 0.7086614173228346
        },
        {
          "duration": 0.33333300000000143,
          "durationTicks": 96,
          "midi": 62,
          "name": "D4",
          "ticks": 2784,
          "time": 9.666656999999999,
          "velocity": 0.7086614173228346
        },
        {
          "duration": 0.33333299999999966,
          "durationTicks": 96,
          "midi": 52,
          "name": "E3",
          "ticks": 2880,
          "time": 9.99999,
          "velocity": 0.7086614173228346
        },
        {
          "duration": 0.33333299999999966,
          "durationTicks": 96,
          "midi": 57,
          "name": "A3",
          "ticks": 2880,
          "time": 9.99999,
          "velocity": 0.7086614173228346
        },
        {
          "duration": 0.33333299999999966,
          "durationTicks": 96,
          "midi": 62,
          "name": "D4",
          "ticks": 2880,
          "time": 9.99999,
          "velocity": 0.7086614173228346
        },
        {
          "duration": 0.33333299999999966,
          "durationTicks": 96,
          "midi": 52,
          "name": "E3",
          "ticks": 2976,
          "time": 10.333323,
          "velocity": 0.7086614173228346
        },
        {
          "duration": 0.33333299999999966,
          "durationTicks": 96,
          "midi": 57,
          "name": "A3",
          "ticks": 2976,
          "time": 10.333323,
          "velocity": 0.7086614173228346
        },
        {
          "duration": 0.33333299999999966,
          "durationTicks": 96,
          "midi": 62,
          "name": "D4",
          "ticks": 2976,
          "time": 10.333323,
          "velocity": 0.7086614173228346
        },
        {
          "duration": 0.16666649999999983,
          "durationTicks": 48,
          "midi": 61,
          "name": "C#4",
          "ticks": 3072,
          "time": 10.666656,
          "velocity": 0.7086614173228346
        },
        {
          "duration": 0.16666649999999983,
          "durationTicks": 48,
          "midi": 57,
          "name": "A3",
          "ticks": 3072,
          "time": 10.666656,
          "velocity": 0.7086614173228346
        },
        {
          "duration": 0.16666649999999983,
          "durationTicks": 48,
          "midi": 52,
          "name": "E3",
          "ticks": 3072,
          "time": 10.666656,
          "velocity": 0.7086614173228346
        },
        {
          "duration": 0.33333299999999966,
          "durationTicks": 96,
          "midi": 45,
          "name": "A2",
          "ticks": 3840,
          "time": 13.33332,
          "velocity": 0.6929133858267716
        },
        {
          "duration": 0.33333299999999966,
          "durationTicks": 96,
          "midi": 61,
          "name": "C#4",
          "ticks": 3840,
          "time": 13.33332,
          "velocity": 0.6929133858267716
        },
        {
          "duration": 0.33333299999999966,
          "durationTicks": 96,
          "midi": 57,
          "name": "A3",
          "ticks": 3840,
          "time": 13.33332,
          "velocity": 0.6929133858267716
        },
        {
          "duration": 0.33333299999999966,
          "durationTicks": 96,
          "midi": 54,
          "name": "F#3",
          "ticks": 3840,
          "time": 13.33332,
          "velocity": 0.6929133858267716
        },
        {
          "duration": 0.33333299999999966,
          "durationTicks": 96,
          "midi": 50,
          "name": "D3",
          "ticks": 3840,
          "time": 13.33332,
          "velocity": 0.6929133858267716
        },
        {
          "duration": 0.1666665000000016,
          "durationTicks": 48,
          "midi": 66,
          "name": "F#4",
          "ticks": 5376,
          "time": 18.666648,
          "velocity": 0.6929133858267716
        },
        {
          "duration": 0.1666665000000016,
          "durationTicks": 48,
          "midi": 54,
          "name": "F#3",
          "ticks": 5376,
          "time": 18.666648,
          "velocity": 0.6929133858267716
        },
        {
          "duration": 0.1666665000000016,
          "durationTicks": 48,
          "midi": 62,
          "name": "D4",
          "ticks": 5376,
          "time": 18.666648,
          "velocity": 0.6929133858267716
        },
        {
          "duration": 0.1666665000000016,
          "durationTicks": 48,
          "midi": 59,
          "name": "B3",
          "ticks": 5376,
          "time": 18.666648,
          "velocity": 0.6929133858267716
        },
        {
          "duration": 0.1666665000000016,
          "durationTicks": 48,
          "midi": 69,
          "name": "A4",
          "ticks": 5376,
          "time": 18.666648,
          "velocity": 0.6929133858267716
        },
        {
          "duration": 0.3333330000000032,
          "durationTicks": 96,
          "midi": 57,
          "name": "A3",
          "ticks": 10752,
          "time": 37.333296,
          "velocity": 0.7874015748031497
        },
        {
          "duration": 0.3333330000000032,
          "durationTicks": 96,
          "midi": 61,
          "name": "C#4",
          "ticks": 10752,
          "time": 37.333296,
          "velocity": 0.7874015748031497
        },
        {
          "duration": 0.3333330000000032,
          "durationTicks": 96,
          "midi": 64,
          "name": "E4",
          "ticks": 10752,
          "time": 37.333296,
          "velocity": 0.7874015748031497
        },
        {
          "duration": 0.3333330000000032,
          "durationTicks": 96,
          "midi": 52,
          "name": "E3",
          "ticks": 10752,
          "time": 37.333296,
          "velocity": 0.7874015748031497
        },
        {
          "duration": 0.3333330000000032,
          "durationTicks": 96,
          "midi": 53,
          "name": "F3",
          "ticks": 11424,
          "time": 39.666627,
          "velocity": 0.7086614173228346
        },
        {
          "duration": 0.3333330000000032,
          "durationTicks": 96,
          "midi": 62,
          "name": "D4",
          "ticks": 11424,
          "time": 39.666627,
          "velocity": 0.7086614173228346
        },
        {
          "duration": 0.3333330000000032,
          "durationTicks": 96,
          "midi": 58,
          "name": "A#3",
          "ticks": 11424,
          "time": 39.666627,
          "velocity": 0.7086614173228346
        },
        {
          "duration": 0.3333330000000032,
          "durationTicks": 96,
          "midi": 65,
          "name": "F4",
          "ticks": 11424,
          "time": 39.666627,
          "velocity": 0.7086614173228346
        },
        {
          "duration": 0.3333329999999961,
          "durationTicks": 96,
          "midi": 57,
          "name": "A3",
          "ticks": 11520,
          "time": 39.99996,
          "velocity": 0.7086614173228346
        },
        {
          "duration": 0.3333329999999961,
          "durationTicks": 96,
          "midi": 61,
          "name": "C#4",
          "ticks": 11520,
          "time": 39.99996,
          "velocity": 0.7086614173228346
        },
        {
          "duration": 0.3333329999999961,
          "durationTicks": 96,
          "midi": 64,
          "name": "E4",
          "ticks": 11520,
          "time": 39.99996,
          "velocity": 0.7086614173228346
        },
        {
          "duration": 0.3333329999999961,
          "durationTicks": 96,
          "midi": 52,
          "name": "E3",
          "ticks": 11520,
          "time": 39.99996,
          "velocity": 0.7086614173228346
        },
        {
          "duration": 0.3333330000000032,
          "durationTicks": 96,
          "midi": 53,
          "name": "F3",
          "ticks": 12192,
          "time": 42.333290999999996,
          "velocity": 0.7086614173228346
        },
        {
          "duration": 0.3333330000000032,
          "durationTicks": 96,
          "midi": 62,
          "name": "D4",
          "ticks": 12192,
          "time": 42.333290999999996,
          "velocity": 0.7086614173228346
        },
        {
          "duration": 0.3333330000000032,
          "durationTicks": 96,
          "midi": 58,
          "name": "A#3",
          "ticks": 12192,
          "time": 42.333290999999996,
          "velocity": 0.7086614173228346
        },
        {
          "duration": 0.3333330000000032,
          "durationTicks": 96,
          "midi": 65,
          "name": "F4",
          "ticks": 12192,
          "time": 42.333290999999996,
          "velocity": 0.7086614173228346
        },
        {
          "duration": 0.3333330000000032,
          "durationTicks": 96,
          "midi": 52,
          "name": "E3",
          "ticks": 12288,
          "time": 42.666624,
          "velocity": 0.7086614173228346
        },
        {
          "duration": 0.3333330000000032,
          "durationTicks": 96,
          "midi": 64,
          "name": "E4",
          "ticks": 12288,
          "time": 42.666624,
          "velocity": 0.7086614173228346
        },
        {
          "duration": 0.3333330000000032,
          "durationTicks": 96,
          "midi": 61,
          "name": "C#4",
          "ticks": 12288,
          "time": 42.666624,
          "velocity": 0.7086614173228346
        },
        {
          "duration": 0.3333330000000032,
          "durationTicks": 96,
          "midi": 57,
          "name": "A3",
          "ticks": 12288,
          "time": 42.666624,
          "velocity": 0.7086614173228346
        },
        {
          "duration": 0.3333329999999961,
          "durationTicks": 96,
          "midi": 65,
          "name": "F4",
          "ticks": 12960,
          "time": 44.999955,
          "velocity": 0.7086614173228346
        },
        {
          "duration": 0.3333329999999961,
          "durationTicks": 96,
          "midi": 58,
          "name": "A#3",
          "ticks": 12960,
          "time": 44.999955,
          "velocity": 0.7086614173228346
        },
        {
          "duration": 0.3333329999999961,
          "durationTicks": 96,
          "midi": 62,
          "name": "D4",
          "ticks": 12960,
          "time": 44.999955,
          "velocity": 0.7086614173228346
        },
        {
          "duration": 0.3333329999999961,
          "durationTicks": 96,
          "midi": 53,
          "name": "F3",
          "ticks": 12960,
          "time": 44.999955,
          "velocity": 0.7086614173228346
        },
        {
          "duration": 0.3333330000000032,
          "durationTicks": 96,
          "midi": 52,
          "name": "E3",
          "ticks": 13056,
          "time": 45.333287999999996,
          "velocity": 0.7086614173228346
        },
        {
          "duration": 0.3333330000000032,
          "durationTicks": 96,
          "midi": 64,
          "name": "E4",
          "ticks": 13056,
          "time": 45.333287999999996,
          "velocity": 0.7086614173228346
        },
        {
          "duration": 0.3333330000000032,
          "durationTicks": 96,
          "midi": 61,
          "name": "C#4",
          "ticks": 13056,
          "time": 45.333287999999996,
          "velocity": 0.7086614173228346
        },
        {
          "duration": 0.3333330000000032,
          "durationTicks": 96,
          "midi": 57,
          "name": "A3",
          "ticks": 13056,
          "time": 45.333287999999996,
          "velocity": 0.7086614173228346
        },
        {
          "duration": 0.3333330000000032,
          "durationTicks": 96,
          "midi": 65,
          "name": "F4",
          "ticks": 13728,
          "time": 47.666619,
          "velocity": 0.8031496062992126
        },
        {
          "duration": 0.3333330000000032,
          "durationTicks": 96,
          "midi": 58,
          "name": "A#3",
          "ticks": 13728,
          "time": 47.666619,
          "velocity": 0.8031496062992126
        },
        {
          "duration": 0.3333330000000032,
          "durationTicks": 96,
          "midi": 62,
          "name": "D4",
          "ticks": 13728,
          "time": 47.666619,
          "velocity": 0.8031496062992126
        },
        {
          "duration": 0.3333330000000032,
          "durationTicks": 96,
          "midi": 53,
          "name": "F3",
          "ticks": 13728,
          "time": 47.666619,
          "velocity": 0.8031496062992126
        },
        {
          "duration": 0.3333329999999961,
          "durationTicks": 96,
          "midi": 52,
          "name": "E3",
          "ticks": 13824,
          "time": 47.999952,
          "velocity": 0.7874015748031497
        },
        {
          "duration": 0.3333329999999961,
          "durationTicks": 96,
          "midi": 64,
          "name": "E4",
          "ticks": 13824,
          "time": 47.999952,
          "velocity": 0.7874015748031497
        },
        {
          "duration": 0.3333329999999961,
          "durationTicks": 96,
          "midi": 61,
          "name": "C#4",
          "ticks": 13824,
          "time": 47.999952,
          "velocity": 0.7874015748031497
        },
        {
          "duration": 0.3333329999999961,
          "durationTicks": 96,
          "midi": 57,
          "name": "A3",
          "ticks": 13824,
          "time": 47.999952,
          "velocity": 0.7874015748031497
        },
        {
          "duration": 0.3333329999999961,
          "durationTicks": 96,
          "midi": 65,
          "name": "F4",
          "ticks": 14496,
          "time": 50.333283,
          "velocity": 0.7086614173228346
        },
        {
          "duration": 0.3333329999999961,
          "durationTicks": 96,
          "midi": 58,
          "name": "A#3",
          "ticks": 14496,
          "time": 50.333283,
          "velocity": 0.7086614173228346
        },
        {
          "duration": 0.3333329999999961,
          "durationTicks": 96,
          "midi": 62,
          "name": "D4",
          "ticks": 14496,
          "time": 50.333283,
          "velocity": 0.7086614173228346
        },
        {
          "duration": 0.3333329999999961,
          "durationTicks": 96,
          "midi": 53,
          "name": "F3",
          "ticks": 14496,
          "time": 50.333283,
          "velocity": 0.7086614173228346
        },
        {
          "duration": 0.3333330000000032,
          "durationTicks": 96,
          "midi": 57,
          "name": "A3",
          "ticks": 14592,
          "time": 50.666616,
          "velocity": 0.7086614173228346
        },
        {
          "duration": 0.3333330000000032,
          "durationTicks": 96,
          "midi": 61,
          "name": "C#4",
          "ticks": 14592,
          "time": 50.666616,
          "velocity": 0.7086614173228346
        },
        {
          "duration": 0.3333330000000032,
          "durationTicks": 96,
          "midi": 64,
          "name": "E4",
          "ticks": 14592,
          "time": 50.666616,
          "velocity": 0.7086614173228346
        },
        {
          "duration": 0.3333330000000032,
          "durationTicks": 96,
          "midi": 52,
          "name": "E3",
          "ticks": 14592,
          "time": 50.666616,
          "velocity": 0.7086614173228346
        },
        {
          "duration": 0.3333330000000032,
          "durationTicks": 96,
          "midi": 53,
          "name": "F3",
          "ticks": 15264,
          "time": 52.999947,
          "velocity": 0.7086614173228346
        },
        {
          "duration": 0.3333330000000032,
          "durationTicks": 96,
          "midi": 62,
          "name": "D4",
          "ticks": 15264,
          "time": 52.999947,
          "velocity": 0.7086614173228346
        },
        {
          "duration": 0.3333330000000032,
          "durationTicks": 96,
          "midi": 58,
          "name": "A#3",
          "ticks": 15264,
          "time": 52.999947,
          "velocity": 0.7086614173228346
        },
        {
          "duration": 0.3333330000000032,
          "durationTicks": 96,
          "midi": 65,
          "name": "F4",
          "ticks": 15264,
          "time": 52.999947,
          "velocity": 0.7086614173228346
        },
        {
          "duration": 0.3333329999999961,
          "durationTicks": 96,
          "midi": 57,
          "name": "A3",
          "ticks": 15360,
          "time": 53.33328,
          "velocity": 0.7086614173228346
        },
        {
          "duration": 0.3333329999999961,
          "durationTicks": 96,
          "midi": 61,
          "name": "C#4",
          "ticks": 15360,
          "time": 53.33328,
          "velocity": 0.7086614173228346
        },
        {
          "duration": 0.3333329999999961,
          "durationTicks": 96,
          "midi": 64,
          "name": "E4",
          "ticks": 15360,
          "time": 53.33328,
          "velocity": 0.7086614173228346
        },
        {
          "duration": 0.3333329999999961,
          "durationTicks": 96,
          "midi": 52,
          "name": "E3",
          "ticks": 15360,
          "time": 53.33328,
          "velocity": 0.7086614173228346
        },
        {
          "duration": 0.3333330000000032,
          "durationTicks": 96,
          "midi": 53,
          "name": "F3",
          "ticks": 16032,
          "time": 55.666610999999996,
          "velocity": 0.7086614173228346
        },
        {
          "duration": 0.3333330000000032,
          "durationTicks": 96,
          "midi": 62,
          "name": "D4",
          "ticks": 16032,
          "time": 55.666610999999996,
          "velocity": 0.7086614173228346
        },
        {
          "duration": 0.3333330000000032,
          "durationTicks": 96,
          "midi": 58,
          "name": "A#3",
          "ticks": 16032,
          "time": 55.666610999999996,
          "velocity": 0.7086614173228346
        },
        {
          "duration": 0.3333330000000032,
          "durationTicks": 96,
          "midi": 65,
          "name": "F4",
          "ticks": 16032,
          "time": 55.666610999999996,
          "velocity": 0.7086614173228346
        },
        {
          "duration": 0.3333329999999961,
          "durationTicks": 96,
          "midi": 52,
          "name": "E3",
          "ticks": 16128,
          "time": 55.999944,
          "velocity": 0.7086614173228346
        },
        {
          "duration": 0.3333329999999961,
          "durationTicks": 96,
          "midi": 64,
          "name": "E4",
          "ticks": 16128,
          "time": 55.999944,
          "velocity": 0.7086614173228346
        },
        {
          "duration": 0.3333329999999961,
          "durationTicks": 96,
          "midi": 61,
          "name": "C#4",
          "ticks": 16128,
          "time": 55.999944,
          "velocity": 0.7086614173228346
        },
        {
          "duration": 0.3333329999999961,
          "durationTicks": 96,
          "midi": 57,
          "name": "A3",
          "ticks": 16128,
          "time": 55.999944,
          "velocity": 0.7086614173228346
        },
        {
          "duration": 2.6666640000000044,
          "durationTicks": 768,
          "midi": 62,
          "name": "D4",
          "ticks": 16896,
          "time": 58.666608,
          "velocity": 0.7086614173228346
        },
        {
          "duration": 2.6666640000000044,
          "durationTicks": 768,
          "midi": 57,
          "name": "A3",
          "ticks": 16896,
          "time": 58.666608,
          "velocity": 0.7086614173228346
        },
        {
          "duration": 2.6666640000000044,
          "durationTicks": 768,
          "midi": 52,
          "name": "E3",
          "ticks": 16896,
          "time": 58.666608,
          "velocity": 0.7086614173228346
        },
        {
          "duration": 2.6666639999999973,
          "durationTicks": 768,
          "midi": 52,
          "name": "E3",
          "ticks": 17664,
          "time": 61.333272,
          "velocity": 0.7086614173228346
        },
        {
          "duration": 2.6666639999999973,
          "durationTicks": 768,
          "midi": 57,
          "name": "A3",
          "ticks": 17664,
          "time": 61.333272,
          "velocity": 0.7086614173228346
        },
        {
          "duration": 2.6666639999999973,
          "durationTicks": 768,
          "midi": 61,
          "name": "C#4",
          "ticks": 17664,
          "time": 61.333272,
          "velocity": 0.7086614173228346
        },
        {
          "duration": 2.6666640000000044,
          "durationTicks": 768,
          "midi": 52,
          "name": "E3",
          "ticks": 18432,
          "time": 63.999936,
          "velocity": 0.7086614173228346
        },
        {
          "duration": 2.6666640000000044,
          "durationTicks": 768,
          "midi": 57,
          "name": "A3",
          "ticks": 18432,
          "time": 63.999936,
          "velocity": 0.7086614173228346
        },
        {
          "duration": 2.6666640000000044,
          "durationTicks": 768,
          "midi": 62,
          "name": "D4",
          "ticks": 18432,
          "time": 63.999936,
          "velocity": 0.7086614173228346
        },
        {
          "duration": 1.3333319999999986,
          "durationTicks": 384,
          "midi": 52,
          "name": "E3",
          "ticks": 19200,
          "time": 66.6666,
          "velocity": 0.7086614173228346
        },
        {
          "duration": 1.3333319999999986,
          "durationTicks": 384,
          "midi": 57,
          "name": "A3",
          "ticks": 19200,
          "time": 66.6666,
          "velocity": 0.7086614173228346
        },
        {
          "duration": 1.3333319999999986,
          "durationTicks": 384,
          "midi": 61,
          "name": "C#4",
          "ticks": 19200,
          "time": 66.6666,
          "velocity": 0.7086614173228346
        },
        {
          "duration": 0.3333329999999961,
          "durationTicks": 96,
          "midi": 52,
          "name": "E3",
          "ticks": 19968,
          "time": 69.333264,
          "velocity": 0.7007874015748031
        },
        {
          "duration": 0.3333329999999961,
          "durationTicks": 96,
          "midi": 64,
          "name": "E4",
          "ticks": 19968,
          "time": 69.333264,
          "velocity": 0.7007874015748031
        },
        {
          "duration": 0.3333329999999961,
          "durationTicks": 96,
          "midi": 61,
          "name": "C#4",
          "ticks": 19968,
          "time": 69.333264,
          "velocity": 0.7007874015748031
        },
        {
          "duration": 0.3333329999999961,
          "durationTicks": 96,
          "midi": 57,
          "name": "A3",
          "ticks": 19968,
          "time": 69.333264,
          "velocity": 0.7007874015748031
        },
        {
          "duration": 0.04166662500000484,
          "durationTicks": 12,
          "midi": 52,
          "name": "E3",
          "ticks": 20160,
          "time": 69.99992999999999,
          "velocity": 0.7401574803149606
        },
        {
          "duration": 0.04166662499999063,
          "durationTicks": 12,
          "midi": 57,
          "name": "A3",
          "ticks": 20161,
          "time": 70.00340221875,
          "velocity": 0.7401574803149606
        },
        {
          "duration": 0.04166662499999063,
          "durationTicks": 12,
          "midi": 61,
          "name": "C#4",
          "ticks": 20164,
          "time": 70.013818875,
          "velocity": 0.7401574803149606
        },
        {
          "duration": 0.04166662500000484,
          "durationTicks": 12,
          "midi": 64,
          "name": "E4",
          "ticks": 20166,
          "time": 70.0207633125,
          "velocity": 0.7401574803149606
        },
        {
          "duration": 0.04166662500000484,
          "durationTicks": 12,
          "midi": 52,
          "name": "E3",
          "ticks": 20208,
          "time": 70.1665965,
          "velocity": 0.7401574803149606
        },
        {
          "duration": 0.04166662500000484,
          "durationTicks": 12,
          "midi": 57,
          "name": "A3",
          "ticks": 20209,
          "time": 70.17006871874999,
          "velocity": 0.7401574803149606
        },
        {
          "duration": 0.04166662500000484,
          "durationTicks": 12,
          "midi": 61,
          "name": "C#4",
          "ticks": 20212,
          "time": 70.18048537499999,
          "velocity": 0.7401574803149606
        },
        {
          "duration": 0.04166662500000484,
          "durationTicks": 12,
          "midi": 64,
          "name": "E4",
          "ticks": 20214,
          "time": 70.1874298125,
          "velocity": 0.7401574803149606
        },
        {
          "duration": 0.24999975000000063,
          "durationTicks": 72,
          "midi": 64,
          "name": "E4",
          "ticks": 20256,
          "time": 70.333263,
          "velocity": 0.6220472440944882
        },
        {
          "duration": 0.24999975000000063,
          "durationTicks": 72,
          "midi": 61,
          "name": "C#4",
          "ticks": 20256,
          "time": 70.333263,
          "velocity": 0.6220472440944882
        },
        {
          "duration": 0.24999975000000063,
          "durationTicks": 72,
          "midi": 57,
          "name": "A3",
          "ticks": 20256,
          "time": 70.333263,
          "velocity": 0.6220472440944882
        },
        {
          "duration": 0.24999975000000063,
          "durationTicks": 72,
          "midi": 52,
          "name": "E3",
          "ticks": 20256,
          "time": 70.333263,
          "velocity": 0.6220472440944882
        },
        {
          "duration": 0.04166662500000484,
          "durationTicks": 12,
          "midi": 52,
          "name": "E3",
          "ticks": 20352,
          "time": 70.666596,
          "velocity": 0.7401574803149606
        },
        {
          "duration": 0.04166662500000484,
          "durationTicks": 12,
          "midi": 57,
          "name": "A3",
          "ticks": 20353,
          "time": 70.67006821874999,
          "velocity": 0.7401574803149606
        },
        {
          "duration": 0.04166662500000484,
          "durationTicks": 12,
          "midi": 61,
          "name": "C#4",
          "ticks": 20356,
          "time": 70.68048487499999,
          "velocity": 0.7401574803149606
        },
        {
          "duration": 0.04166662499999063,
          "durationTicks": 12,
          "midi": 64,
          "name": "E4",
          "ticks": 20358,
          "time": 70.6874293125,
          "velocity": 0.7401574803149606
        },
        {
          "duration": 0.04166662499999063,
          "durationTicks": 12,
          "midi": 52,
          "name": "E3",
          "ticks": 20400,
          "time": 70.8332625,
          "velocity": 0.7401574803149606
        },
        {
          "duration": 0.04166662500000484,
          "durationTicks": 12,
          "midi": 57,
          "name": "A3",
          "ticks": 20401,
          "time": 70.83673471875,
          "velocity": 0.7401574803149606
        },
        {
          "duration": 0.04166662500000484,
          "durationTicks": 12,
          "midi": 61,
          "name": "C#4",
          "ticks": 20404,
          "time": 70.847151375,
          "velocity": 0.7401574803149606
        },
        {
          "duration": 0.04166662500000484,
          "durationTicks": 12,
          "midi": 64,
          "name": "E4",
          "ticks": 20406,
          "time": 70.85409581249999,
          "velocity": 0.7401574803149606
        },
        {
          "duration": 0.24999975000000063,
          "durationTicks": 72,
          "midi": 64,
          "name": "E4",
          "ticks": 20448,
          "time": 70.999929,
          "velocity": 0.6220472440944882
        },
        {
          "duration": 0.24999975000000063,
          "durationTicks": 72,
          "midi": 61,
          "name": "C#4",
          "ticks": 20448,
          "time": 70.999929,
          "velocity": 0.6220472440944882
        },
        {
          "duration": 0.24999975000000063,
          "durationTicks": 72,
          "midi": 57,
          "name": "A3",
          "ticks": 20448,
          "time": 70.999929,
          "velocity": 0.6220472440944882
        },
        {
          "duration": 0.24999975000000063,
          "durationTicks": 72,
          "midi": 52,
          "name": "E3",
          "ticks": 20448,
          "time": 70.999929,
          "velocity": 0.6220472440944882
        },
        {
          "duration": 0.04166662499999063,
          "durationTicks": 12,
          "midi": 52,
          "name": "E3",
          "ticks": 20544,
          "time": 71.333262,
          "velocity": 0.7401574803149606
        },
        {
          "duration": 0.04166662500000484,
          "durationTicks": 12,
          "midi": 57,
          "name": "A3",
          "ticks": 20545,
          "time": 71.33673421875,
          "velocity": 0.7401574803149606
        },
        {
          "duration": 0.04166662500000484,
          "durationTicks": 12,
          "midi": 61,
          "name": "C#4",
          "ticks": 20548,
          "time": 71.347150875,
          "velocity": 0.7401574803149606
        },
        {
          "duration": 0.04166662500000484,
          "durationTicks": 12,
          "midi": 64,
          "name": "E4",
          "ticks": 20550,
          "time": 71.3540953125,
          "velocity": 0.7401574803149606
        },
        {
          "duration": 0.04166662500000484,
          "durationTicks": 12,
          "midi": 52,
          "name": "E3",
          "ticks": 20592,
          "time": 71.4999285,
          "velocity": 0.7401574803149606
        },
        {
          "duration": 0.04166662499999063,
          "durationTicks": 12,
          "midi": 57,
          "name": "A3",
          "ticks": 20593,
          "time": 71.50340071875,
          "velocity": 0.7401574803149606
        },
        {
          "duration": 0.04166662500000484,
          "durationTicks": 12,
          "midi": 61,
          "name": "C#4",
          "ticks": 20596,
          "time": 71.51381737499999,
          "velocity": 0.7401574803149606
        },
        {
          "duration": 0.04166662500000484,
          "durationTicks": 12,
          "midi": 64,
          "name": "E4",
          "ticks": 20598,
          "time": 71.5207618125,
          "velocity": 0.7401574803149606
        },
        {
          "duration": 0.3333329999999961,
          "durationTicks": 96,
          "midi": 53,
          "name": "F3",
          "ticks": 20640,
          "time": 71.666595,
          "velocity": 0.7559055118110236
        },
        {
          "duration": 0.3333329999999961,
          "durationTicks": 96,
          "midi": 62,
          "name": "D4",
          "ticks": 20640,
          "time": 71.666595,
          "velocity": 0.7559055118110236
        },
        {
          "duration": 0.3333329999999961,
          "durationTicks": 96,
          "midi": 58,
          "name": "A#3",
          "ticks": 20640,
          "time": 71.666595,
          "velocity": 0.7559055118110236
        },
        {
          "duration": 0.3333329999999961,
          "durationTicks": 96,
          "midi": 65,
          "name": "F4",
          "ticks": 20640,
          "time": 71.666595,
          "velocity": 0.7559055118110236
        },
        {
          "duration": 0.3333329999999961,
          "durationTicks": 96,
          "midi": 57,
          "name": "A3",
          "ticks": 20736,
          "time": 71.999928,
          "velocity": 0.7559055118110236
        },
        {
          "duration": 0.3333329999999961,
          "durationTicks": 96,
          "midi": 61,
          "name": "C#4",
          "ticks": 20736,
          "time": 71.999928,
          "velocity": 0.7559055118110236
        },
        {
          "duration": 0.3333329999999961,
          "durationTicks": 96,
          "midi": 64,
          "name": "E4",
          "ticks": 20736,
          "time": 71.999928,
          "velocity": 0.7559055118110236
        },
        {
          "duration": 0.3333329999999961,
          "durationTicks": 96,
          "midi": 52,
          "name": "E3",
          "ticks": 20736,
          "time": 71.999928,
          "velocity": 0.7559055118110236
        },
        {
          "duration": 0.04166662499999063,
          "durationTicks": 12,
          "midi": 52,
          "name": "E3",
          "ticks": 20928,
          "time": 72.666594,
          "velocity": 0.7401574803149606
        },
        {
          "duration": 0.04166662500000484,
          "durationTicks": 12,
          "midi": 57,
          "name": "A3",
          "ticks": 20929,
          "time": 72.67006621875,
          "velocity": 0.7401574803149606
        },
        {
          "duration": 0.04166662500000484,
          "durationTicks": 12,
          "midi": 61,
          "name": "C#4",
          "ticks": 20932,
          "time": 72.680482875,
          "velocity": 0.7401574803149606
        },
        {
          "duration": 0.04166662500000484,
          "durationTicks": 12,
          "midi": 64,
          "name": "E4",
          "ticks": 20934,
          "time": 72.68742731249999,
          "velocity": 0.7401574803149606
        },
        {
          "duration": 0.04166662500000484,
          "durationTicks": 12,
          "midi": 52,
          "name": "E3",
          "ticks": 20976,
          "time": 72.8332605,
          "velocity": 0.7401574803149606
        },
        {
          "duration": 0.04166662499999063,
          "durationTicks": 12,
          "midi": 57,
          "name": "A3",
          "ticks": 20977,
          "time": 72.83673271875,
          "velocity": 0.7401574803149606
        },
        {
          "duration": 0.04166662499999063,
          "durationTicks": 12,
          "midi": 61,
          "name": "C#4",
          "ticks": 20980,
          "time": 72.847149375,
          "velocity": 0.7401574803149606
        },
        {
          "duration": 0.04166662500000484,
          "durationTicks": 12,
          "midi": 64,
          "name": "E4",
          "ticks": 20982,
          "time": 72.8540938125,
          "velocity": 0.7401574803149606
        },
        {
          "duration": 0.24999975000000063,
          "durationTicks": 72,
          "midi": 52,
          "name": "E3",
          "ticks": 21024,
          "time": 72.999927,
          "velocity": 0.6220472440944882
        },
        {
          "duration": 0.24999975000000063,
          "durationTicks": 72,
          "midi": 57,
          "name": "A3",
          "ticks": 21024,
          "time": 72.999927,
          "velocity": 0.6220472440944882
        },
        {
          "duration": 0.24999975000000063,
          "durationTicks": 72,
          "midi": 61,
          "name": "C#4",
          "ticks": 21024,
          "time": 72.999927,
          "velocity": 0.6220472440944882
        },
        {
          "duration": 0.24999975000000063,
          "durationTicks": 72,
          "midi": 64,
          "name": "E4",
          "ticks": 21024,
          "time": 72.999927,
          "velocity": 0.6220472440944882
        },
        {
          "duration": 0.2083331249999958,
          "durationTicks": 60,
          "midi": 52,
          "name": "E3",
          "ticks": 21120,
          "time": 73.33326,
          "velocity": 0.7401574803149606
        },
        {
          "duration": 0.2083331249999958,
          "durationTicks": 60,
          "midi": 57,
          "name": "A3",
          "ticks": 21121,
          "time": 73.33673221875,
          "velocity": 0.7401574803149606
        },
        {
          "duration": 0.20833312500001,
          "durationTicks": 60,
          "midi": 61,
          "name": "C#4",
          "ticks": 21124,
          "time": 73.34714887499999,
          "velocity": 0.7401574803149606
        },
        {
          "duration": 0.2083331249999958,
          "durationTicks": 60,
          "midi": 64,
          "name": "E4",
          "ticks": 21126,
          "time": 73.3540933125,
          "velocity": 0.7401574803149606
        },
        {
          "duration": 0.2083331249999958,
          "durationTicks": 60,
          "midi": 52,
          "name": "E3",
          "ticks": 21192,
          "time": 73.58325975,
          "velocity": 0.7401574803149606
        },
        {
          "duration": 0.2083331249999958,
          "durationTicks": 60,
          "midi": 57,
          "name": "A3",
          "ticks": 21193,
          "time": 73.58673196875,
          "velocity": 0.7401574803149606
        },
        {
          "duration": 0.20833312500001,
          "durationTicks": 60,
          "midi": 61,
          "name": "C#4",
          "ticks": 21196,
          "time": 73.59714862499999,
          "velocity": 0.7401574803149606
        },
        {
          "duration": 0.2083331249999958,
          "durationTicks": 60,
          "midi": 64,
          "name": "E4",
          "ticks": 21198,
          "time": 73.6040930625,
          "velocity": 0.7401574803149606
        },
        {
          "duration": 0.08333324999999547,
          "durationTicks": 24,
          "midi": 52,
          "name": "E3",
          "ticks": 21264,
          "time": 73.8332595,
          "velocity": 0.7401574803149606
        },
        {
          "duration": 0.08333325000000968,
          "durationTicks": 24,
          "midi": 57,
          "name": "A3",
          "ticks": 21265,
          "time": 73.83673171874999,
          "velocity": 0.7401574803149606
        },
        {
          "duration": 0.08333325000000968,
          "durationTicks": 24,
          "midi": 61,
          "name": "C#4",
          "ticks": 21268,
          "time": 73.84714837499999,
          "velocity": 0.7401574803149606
        },
        {
          "duration": 0.08333324999999547,
          "durationTicks": 24,
          "midi": 64,
          "name": "E4",
          "ticks": 21270,
          "time": 73.8540928125,
          "velocity": 0.7401574803149606
        },
        {
          "duration": 0.04166662499999063,
          "durationTicks": 12,
          "midi": 52,
          "name": "E3",
          "ticks": 21312,
          "time": 73.999926,
          "velocity": 0.6299212598425197
        },
        {
          "duration": 0.29861081250000154,
          "durationTicks": 86,
          "midi": 52,
          "name": "E3",
          "ticks": 21312,
          "time": 73.999926,
          "velocity": 0.7559055118110236
        },
        {
          "duration": 0.29861081250000154,
          "durationTicks": 86,
          "midi": 57,
          "name": "A3",
          "ticks": 21313,
          "time": 74.00339821875,
          "velocity": 0.6299212598425197
        },
        {
          "duration": 0.29861081250000154,
          "durationTicks": 86,
          "midi": 61,
          "name": "C#4",
          "ticks": 21316,
          "time": 74.013814875,
          "velocity": 0.7559055118110236
        },
        {
          "duration": 0.29861081250000154,
          "durationTicks": 86,
          "midi": 53,
          "name": "F3",
          "ticks": 21408,
          "time": 74.333259,
          "velocity": 0.7559055118110236
        },
        {
          "duration": 0.29861081250000154,
          "durationTicks": 86,
          "midi": 58,
          "name": "A#3",
          "ticks": 21413,
          "time": 74.35062009375,
          "velocity": 0.7559055118110236
        },
        {
          "duration": 0.29861081250000154,
          "durationTicks": 86,
          "midi": 62,
          "name": "D4",
          "ticks": 21415,
          "time": 74.35756453124999,
          "velocity": 0.7559055118110236
        },
        {
          "duration": 0.3333330000000103,
          "durationTicks": 96,
          "midi": 50,
          "name": "D3",
          "ticks": 21504,
          "time": 74.666592,
          "velocity": 0.7007874015748031
        },
        {
          "duration": 0.3333330000000103,
          "durationTicks": 96,
          "midi": 62,
          "name": "D4",
          "ticks": 21504,
          "time": 74.666592,
          "velocity": 0.7007874015748031
        },
        {
          "duration": 0.3333330000000103,
          "durationTicks": 96,
          "midi": 57,
          "name": "A3",
          "ticks": 21504,
          "time": 74.666592,
          "velocity": 0.7007874015748031
        },
        {
          "duration": 0.3333330000000103,
          "durationTicks": 96,
          "midi": 54,
          "name": "F#3",
          "ticks": 21504,
          "time": 74.666592,
          "velocity": 0.7007874015748031
        },
        {
          "duration": 0.3333329999999961,
          "durationTicks": 96,
          "midi": 65,
          "name": "F4",
          "ticks": 22656,
          "time": 78.666588,
          "velocity": 0.7007874015748031
        },
        {
          "duration": 0.3333329999999961,
          "durationTicks": 96,
          "midi": 60,
          "name": "C4",
          "ticks": 22656,
          "time": 78.666588,
          "velocity": 0.7007874015748031
        },
        {
          "duration": 0.3333329999999961,
          "durationTicks": 96,
          "midi": 57,
          "name": "A3",
          "ticks": 22656,
          "time": 78.666588,
          "velocity": 0.7007874015748031
        },
        {
          "duration": 0.3333329999999961,
          "durationTicks": 96,
          "midi": 53,
          "name": "F3",
          "ticks": 22656,
          "time": 78.666588,
          "velocity": 0.7007874015748031
        },
        {
          "duration": 0.3333329999999961,
          "durationTicks": 96,
          "midi": 53,
          "name": "F3",
          "ticks": 22752,
          "time": 78.999921,
          "velocity": 0.7007874015748031
        },
        {
          "duration": 0.3333329999999961,
          "durationTicks": 96,
          "midi": 57,
          "name": "A3",
          "ticks": 22752,
          "time": 78.999921,
          "velocity": 0.7007874015748031
        },
        {
          "duration": 0.3333329999999961,
          "durationTicks": 96,
          "midi": 60,
          "name": "C4",
          "ticks": 22752,
          "time": 78.999921,
          "velocity": 0.7007874015748031
        },
        {
          "duration": 0.3333329999999961,
          "durationTicks": 96,
          "midi": 65,
          "name": "F4",
          "ticks": 22752,
          "time": 78.999921,
          "velocity": 0.7007874015748031
        },
        {
          "duration": 0.3333329999999961,
          "durationTicks": 96,
          "midi": 59,
          "name": "B3",
          "ticks": 22848,
          "time": 79.333254,
          "velocity": 0.7007874015748031
        },
        {
          "duration": 0.3333329999999961,
          "durationTicks": 96,
          "midi": 62,
          "name": "D4",
          "ticks": 22848,
          "time": 79.333254,
          "velocity": 0.7007874015748031
        },
        {
          "duration": 0.3333329999999961,
          "durationTicks": 96,
          "midi": 67,
          "name": "G4",
          "ticks": 22848,
          "time": 79.333254,
          "velocity": 0.7007874015748031
        },
        {
          "duration": 0.3333329999999961,
          "durationTicks": 96,
          "midi": 55,
          "name": "G3",
          "ticks": 22848,
          "time": 79.333254,
          "velocity": 0.7007874015748031
        },
        {
          "duration": 0.3333330000000103,
          "durationTicks": 96,
          "midi": 55,
          "name": "G3",
          "ticks": 22944,
          "time": 79.66658699999999,
          "velocity": 0.7007874015748031
        },
        {
          "duration": 0.3333330000000103,
          "durationTicks": 96,
          "midi": 67,
          "name": "G4",
          "ticks": 22944,
          "time": 79.66658699999999,
          "velocity": 0.7007874015748031
        },
        {
          "duration": 0.3333330000000103,
          "durationTicks": 96,
          "midi": 62,
          "name": "D4",
          "ticks": 22944,
          "time": 79.66658699999999,
          "velocity": 0.7007874015748031
        },
        {
          "duration": 0.3333330000000103,
          "durationTicks": 96,
          "midi": 59,
          "name": "B3",
          "ticks": 22944,
          "time": 79.66658699999999,
          "velocity": 0.7007874015748031
        },
        {
          "duration": 2.645830687500009,
          "durationTicks": 762,
          "midi": 50,
          "name": "D3",
          "ticks": 26112,
          "time": 90.66657599999999,
          "velocity": 0.6771653543307087
        },
        {
          "duration": 2.645830687500009,
          "durationTicks": 762,
          "midi": 57,
          "name": "A3",
          "ticks": 26112,
          "time": 90.66657599999999,
          "velocity": 0.6771653543307087
        },
        {
          "duration": 2.645830687500009,
          "durationTicks": 762,
          "midi": 54,
          "name": "F#3",
          "ticks": 26112,
          "time": 90.66657599999999,
          "velocity": 0.6771653543307087
        },
        {
          "duration": 2.645830687499995,
          "durationTicks": 762,
          "midi": 59,
          "name": "B3",
          "ticks": 26880,
          "time": 93.33324,
          "velocity": 0.6771653543307087
        },
        {
          "duration": 2.645830687499995,
          "durationTicks": 762,
          "midi": 57,
          "name": "A3",
          "ticks": 26880,
          "time": 93.33324,
          "velocity": 0.6771653543307087
        },
        {
          "duration": 2.645830687499995,
          "durationTicks": 762,
          "midi": 52,
          "name": "E3",
          "ticks": 26880,
          "time": 93.33324,
          "velocity": 0.6771653543307087
        },
        {
          "duration": 1.2708320624999914,
          "durationTicks": 366,
          "midi": 61,
          "name": "C#4",
          "ticks": 27648,
          "time": 95.999904,
          "velocity": 0.6771653543307087
        },
        {
          "duration": 1.2708320624999914,
          "durationTicks": 366,
          "midi": 57,
          "name": "A3",
          "ticks": 27648,
          "time": 95.999904,
          "velocity": 0.6771653543307087
        },
        {
          "duration": 1.2708320624999914,
          "durationTicks": 366,
          "midi": 54,
          "name": "F#3",
          "ticks": 27648,
          "time": 95.999904,
          "velocity": 0.6771653543307087
        },
        {
          "duration": 1.2708320624999914,
          "durationTicks": 366,
          "midi": 54,
          "name": "F#3",
          "ticks": 28032,
          "time": 97.333236,
          "velocity": 0.6771653543307087
        },
        {
          "duration": 1.2708320624999914,
          "durationTicks": 366,
          "midi": 63,
          "name": "D#4",
          "ticks": 28032,
          "time": 97.333236,
          "velocity": 0.6771653543307087
        },
        {
          "duration": 1.2708320624999914,
          "durationTicks": 366,
          "midi": 59,
          "name": "B3",
          "ticks": 28032,
          "time": 97.333236,
          "velocity": 0.6771653543307087
        },
        {
          "duration": 1.2708320624999914,
          "durationTicks": 366,
          "midi": 57,
          "name": "A3",
          "ticks": 28032,
          "time": 97.333236,
          "velocity": 0.6771653543307087
        },
        {
          "duration": 2.645830687499995,
          "durationTicks": 762,
          "midi": 64,
          "name": "E4",
          "ticks": 28416,
          "time": 98.666568,
          "velocity": 0.6771653543307087
        },
        {
          "duration": 2.645830687499995,
          "durationTicks": 762,
          "midi": 57,
          "name": "A3",
          "ticks": 28416,
          "time": 98.666568,
          "velocity": 0.6771653543307087
        },
        {
          "duration": 2.645830687499995,
          "durationTicks": 762,
          "midi": 60,
          "name": "C4",
          "ticks": 28416,
          "time": 98.666568,
          "velocity": 0.6771653543307087
        },
        {
          "duration": 1.3124986874999962,
          "durationTicks": 378,
          "midi": 62,
          "name": "D4",
          "ticks": 29184,
          "time": 101.333232,
          "velocity": 0.6771653543307087
        },
        {
          "duration": 1.3124986874999962,
          "durationTicks": 378,
          "midi": 64,
          "name": "E4",
          "ticks": 29184,
          "time": 101.333232,
          "velocity": 0.6771653543307087
        },
        {
          "duration": 1.3124986874999962,
          "durationTicks": 378,
          "midi": 59,
          "name": "B3",
          "ticks": 29184,
          "time": 101.333232,
          "velocity": 0.6771653543307087
        },
        {
          "duration": 1.3124986874999962,
          "durationTicks": 378,
          "midi": 56,
          "name": "G#3",
          "ticks": 29184,
          "time": 101.333232,
          "velocity": 0.6771653543307087
        },
        {
          "duration": 1.291665375000008,
          "durationTicks": 372,
          "midi": 49,
          "name": "C#3",
          "ticks": 29952,
          "time": 103.99989599999999,
          "velocity": 0.6771653543307087
        },
        {
          "duration": 1.291665375000008,
          "durationTicks": 372,
          "midi": 57,
          "name": "A3",
          "ticks": 29952,
          "time": 103.99989599999999,
          "velocity": 0.6771653543307087
        },
        {
          "duration": 1.291665375000008,
          "durationTicks": 372,
          "midi": 52,
          "name": "E3",
          "ticks": 29952,
          "time": 103.99989599999999,
          "velocity": 0.6771653543307087
        },
        {
          "duration": 1.291665375000008,
          "durationTicks": 372,
          "midi": 61,
          "name": "C#4",
          "ticks": 29952,
          "time": 103.99989599999999,
          "velocity": 0.6771653543307087
        },
        {
          "duration": 1.291665375000008,
          "durationTicks": 372,
          "midi": 54,
          "name": "F#3",
          "ticks": 30336,
          "time": 105.33322799999999,
          "velocity": 0.6771653543307087
        },
        {
          "duration": 1.291665375000008,
          "durationTicks": 372,
          "midi": 51,
          "name": "D#3",
          "ticks": 30336,
          "time": 105.33322799999999,
          "velocity": 0.6771653543307087
        },
        {
          "duration": 1.291665375000008,
          "durationTicks": 372,
          "midi": 61,
          "name": "C#4",
          "ticks": 30336,
          "time": 105.33322799999999,
          "velocity": 0.6771653543307087
        },
        {
          "duration": 1.291665375000008,
          "durationTicks": 372,
          "midi": 57,
          "name": "A3",
          "ticks": 30336,
          "time": 105.33322799999999,
          "velocity": 0.6771653543307087
        },
        {
          "duration": 1.2916653749999938,
          "durationTicks": 372,
          "midi": 54,
          "name": "F#3",
          "ticks": 30720,
          "time": 106.66656,
          "velocity": 0.6771653543307087
        },
        {
          "duration": 1.2916653749999938,
          "durationTicks": 372,
          "midi": 50,
          "name": "D3",
          "ticks": 30720,
          "time": 106.66656,
          "velocity": 0.6771653543307087
        },
        {
          "duration": 1.2916653749999938,
          "durationTicks": 372,
          "midi": 57,
          "name": "A3",
          "ticks": 30720,
          "time": 106.66656,
          "velocity": 0.6771653543307087
        },
        {
          "duration": 1.2916653749999938,
          "durationTicks": 372,
          "midi": 61,
          "name": "C#4",
          "ticks": 30720,
          "time": 106.66656,
          "velocity": 0.6771653543307087
        },
        {
          "duration": 0.6666659999999922,
          "durationTicks": 192,
          "midi": 50,
          "name": "D3",
          "ticks": 31104,
          "time": 107.999892,
          "velocity": 0.6771653543307087
        },
        {
          "duration": 0.6666659999999922,
          "durationTicks": 192,
          "midi": 55,
          "name": "G3",
          "ticks": 31104,
          "time": 107.999892,
          "velocity": 0.6771653543307087
        },
        {
          "duration": 0.6666659999999922,
          "durationTicks": 192,
          "midi": 59,
          "name": "B3",
          "ticks": 31104,
          "time": 107.999892,
          "velocity": 0.6771653543307087
        },
        {
          "duration": 0.6666660000000064,
          "durationTicks": 192,
          "midi": 57,
          "name": "A3",
          "ticks": 31296,
          "time": 108.666558,
          "velocity": 0.6771653543307087
        },
        {
          "duration": 0.6666660000000064,
          "durationTicks": 192,
          "midi": 53,
          "name": "F3",
          "ticks": 31296,
          "time": 108.666558,
          "velocity": 0.6771653543307087
        },
        {
          "duration": 0.6666660000000064,
          "durationTicks": 192,
          "midi": 60,
          "name": "C4",
          "ticks": 31296,
          "time": 108.666558,
          "velocity": 0.6771653543307087
        },
        {
          "duration": 1.3333319999999986,
          "durationTicks": 384,
          "midi": 59,
          "name": "B3",
          "ticks": 31488,
          "time": 109.333224,
          "velocity": 0.6771653543307087
        },
        {
          "duration": 1.3333319999999986,
          "durationTicks": 384,
          "midi": 56,
          "name": "G#3",
          "ticks": 31488,
          "time": 109.333224,
          "velocity": 0.6771653543307087
        },
        {
          "duration": 1.3333319999999986,
          "durationTicks": 384,
          "midi": 52,
          "name": "E3",
          "ticks": 31488,
          "time": 109.333224,
          "velocity": 0.6771653543307087
        },
        {
          "duration": 1.3333319999999986,
          "durationTicks": 384,
          "midi": 61,
          "name": "C#4",
          "ticks": 31488,
          "time": 109.333224,
          "velocity": 0.6771653543307087
        },
        {
          "duration": 1.3333319999999986,
          "durationTicks": 384,
          "midi": 52,
          "name": "E3",
          "ticks": 31872,
          "time": 110.666556,
          "velocity": 0.6771653543307087
        },
        {
          "duration": 1.3333319999999986,
          "durationTicks": 384,
          "midi": 61,
          "name": "C#4",
          "ticks": 31872,
          "time": 110.666556,
          "velocity": 0.6771653543307087
        },
        {
          "duration": 1.3333319999999986,
          "durationTicks": 384,
          "midi": 57,
          "name": "A3",
          "ticks": 31872,
          "time": 110.666556,
          "velocity": 0.6771653543307087
        },
        {
          "duration": 1.3333319999999986,
          "durationTicks": 384,
          "midi": 54,
          "name": "F#3",
          "ticks": 31872,
          "time": 110.666556,
          "velocity": 0.6771653543307087
        },
        {
          "duration": 1.3298597812499935,
          "durationTicks": 383,
          "midi": 61,
          "name": "C#4",
          "ticks": 32256,
          "time": 111.999888,
          "velocity": 0.6771653543307087
        },
        {
          "duration": 1.3298597812499935,
          "durationTicks": 383,
          "midi": 57,
          "name": "A3",
          "ticks": 32256,
          "time": 111.999888,
          "velocity": 0.6771653543307087
        },
        {
          "duration": 1.3298597812499935,
          "durationTicks": 383,
          "midi": 54,
          "name": "F#3",
          "ticks": 32256,
          "time": 111.999888,
          "velocity": 0.6771653543307087
        },
        {
          "duration": 1.3298597812499935,
          "durationTicks": 383,
          "midi": 50,
          "name": "D3",
          "ticks": 32256,
          "time": 111.999888,
          "velocity": 0.6771653543307087
        },
        {
          "duration": 0.6249993750000016,
          "durationTicks": 180,
          "midi": 56,
          "name": "G#3",
          "ticks": 32640,
          "time": 113.33322,
          "velocity": 0.6771653543307087
        },
        {
          "duration": 0.6249993750000016,
          "durationTicks": 180,
          "midi": 59,
          "name": "B3",
          "ticks": 32640,
          "time": 113.33322,
          "velocity": 0.6771653543307087
        },
        {
          "duration": 0.6249993750000016,
          "durationTicks": 180,
          "midi": 62,
          "name": "D4",
          "ticks": 32640,
          "time": 113.33322,
          "velocity": 0.6771653543307087
        },
        {
          "duration": 0.6249993750000016,
          "durationTicks": 180,
          "midi": 52,
          "name": "E3",
          "ticks": 32640,
          "time": 113.33322,
          "velocity": 0.6771653543307087
        },
        {
          "duration": 0.6249993749999874,
          "durationTicks": 180,
          "midi": 56,
          "name": "G#3",
          "ticks": 32832,
          "time": 113.999886,
          "velocity": 0.6771653543307087
        },
        {
          "duration": 0.6249993749999874,
          "durationTicks": 180,
          "midi": 59,
          "name": "B3",
          "ticks": 32832,
          "time": 113.999886,
          "velocity": 0.6771653543307087
        },
        {
          "duration": 0.6249993749999874,
          "durationTicks": 180,
          "midi": 62,
          "name": "D4",
          "ticks": 32832,
          "time": 113.999886,
          "velocity": 0.6771653543307087
        },
        {
          "duration": 0.6249993749999874,
          "durationTicks": 180,
          "midi": 54,
          "name": "F#3",
          "ticks": 32832,
          "time": 113.999886,
          "velocity": 0.6771653543307087
        },
        {
          "duration": 1.2916653749999938,
          "durationTicks": 372,
          "midi": 49,
          "name": "C#3",
          "ticks": 33024,
          "time": 114.666552,
          "velocity": 0.6771653543307087
        },
        {
          "duration": 1.2916653749999938,
          "durationTicks": 372,
          "midi": 57,
          "name": "A3",
          "ticks": 33024,
          "time": 114.666552,
          "velocity": 0.6771653543307087
        },
        {
          "duration": 1.2916653749999938,
          "durationTicks": 372,
          "midi": 61,
          "name": "C#4",
          "ticks": 33024,
          "time": 114.666552,
          "velocity": 0.6771653543307087
        },
        {
          "duration": 1.2916653749999938,
          "durationTicks": 372,
          "midi": 52,
          "name": "E3",
          "ticks": 33024,
          "time": 114.666552,
          "velocity": 0.6771653543307087
        },
        {
          "duration": 1.291665375000008,
          "durationTicks": 372,
          "midi": 54,
          "name": "F#3",
          "ticks": 33408,
          "time": 115.999884,
          "velocity": 0.6771653543307087
        },
        {
          "duration": 1.291665375000008,
          "durationTicks": 372,
          "midi": 61,
          "name": "C#4",
          "ticks": 33408,
          "time": 115.999884,
          "velocity": 0.6771653543307087
        },
        {
          "duration": 1.291665375000008,
          "durationTicks": 372,
          "midi": 57,
          "name": "A3",
          "ticks": 33408,
          "time": 115.999884,
          "velocity": 0.6771653543307087
        },
        {
          "duration": 1.291665375000008,
          "durationTicks": 372,
          "midi": 51,
          "name": "D#3",
          "ticks": 33408,
          "time": 115.999884,
          "velocity": 0.6771653543307087
        },
        {
          "duration": 1.291665375000008,
          "durationTicks": 372,
          "midi": 61,
          "name": "C#4",
          "ticks": 33792,
          "time": 117.333216,
          "velocity": 0.6771653543307087
        },
        {
          "duration": 1.291665375000008,
          "durationTicks": 372,
          "midi": 57,
          "name": "A3",
          "ticks": 33792,
          "time": 117.333216,
          "velocity": 0.6771653543307087
        },
        {
          "duration": 1.291665375000008,
          "durationTicks": 372,
          "midi": 54,
          "name": "F#3",
          "ticks": 33792,
          "time": 117.333216,
          "velocity": 0.6771653543307087
        },
        {
          "duration": 1.291665375000008,
          "durationTicks": 372,
          "midi": 50,
          "name": "D3",
          "ticks": 33792,
          "time": 117.333216,
          "velocity": 0.6771653543307087
        },
        {
          "duration": 0.6666660000000064,
          "durationTicks": 192,
          "midi": 62,
          "name": "D4",
          "ticks": 34176,
          "time": 118.66654799999999,
          "velocity": 0.6771653543307087
        },
        {
          "duration": 0.6666660000000064,
          "durationTicks": 192,
          "midi": 56,
          "name": "G#3",
          "ticks": 34176,
          "time": 118.66654799999999,
          "velocity": 0.6771653543307087
        },
        {
          "duration": 0.6666660000000064,
          "durationTicks": 192,
          "midi": 59,
          "name": "B3",
          "ticks": 34176,
          "time": 118.66654799999999,
          "velocity": 0.6771653543307087
        },
        {
          "duration": 0.6666660000000064,
          "durationTicks": 192,
          "midi": 53,
          "name": "F3",
          "ticks": 34176,
          "time": 118.66654799999999,
          "velocity": 0.6771653543307087
        },
        {
          "duration": 0.6666659999999922,
          "durationTicks": 192,
          "midi": 49,
          "name": "C#3",
          "ticks": 34368,
          "time": 119.333214,
          "velocity": 0.6771653543307087
        },
        {
          "duration": 0.6666659999999922,
          "durationTicks": 192,
          "midi": 61,
          "name": "C#4",
          "ticks": 34368,
          "time": 119.333214,
          "velocity": 0.6771653543307087
        },
        {
          "duration": 0.6666659999999922,
          "durationTicks": 192,
          "midi": 56,
          "name": "G#3",
          "ticks": 34368,
          "time": 119.333214,
          "velocity": 0.6771653543307087
        },
        {
          "duration": 0.6666659999999922,
          "durationTicks": 192,
          "midi": 53,
          "name": "F3",
          "ticks": 34368,
          "time": 119.333214,
          "velocity": 0.6771653543307087
        },
        {
          "duration": 0.3333330000000103,
          "durationTicks": 96,
          "midi": 61,
          "name": "C#4",
          "ticks": 34560,
          "time": 119.99987999999999,
          "velocity": 0.6771653543307087
        },
        {
          "duration": 0.3333330000000103,
          "durationTicks": 96,
          "midi": 57,
          "name": "A3",
          "ticks": 34560,
          "time": 119.99987999999999,
          "velocity": 0.6771653543307087
        },
        {
          "duration": 0.3333330000000103,
          "durationTicks": 96,
          "midi": 54,
          "name": "F#3",
          "ticks": 34560,
          "time": 119.99987999999999,
          "velocity": 0.6771653543307087
        },
        {
          "duration": 0.3333330000000103,
          "durationTicks": 96,
          "midi": 49,
          "name": "C#3",
          "ticks": 34560,
          "time": 119.99987999999999,
          "velocity": 0.6771653543307087
        },
        {
          "duration": 0.3333329999999961,
          "durationTicks": 96,
          "midi": 60,
          "name": "C4",
          "ticks": 34752,
          "time": 120.666546,
          "velocity": 0.6771653543307087
        },
        {
          "duration": 0.3333329999999961,
          "durationTicks": 96,
          "midi": 53,
          "name": "F3",
          "ticks": 34752,
          "time": 120.666546,
          "velocity": 0.6771653543307087
        },
        {
          "duration": 0.3333329999999961,
          "durationTicks": 96,
          "midi": 56,
          "name": "G#3",
          "ticks": 34752,
          "time": 120.666546,
          "velocity": 0.6771653543307087
        },
        {
          "duration": 0.3333329999999961,
          "durationTicks": 96,
          "midi": 48,
          "name": "C3",
          "ticks": 34752,
          "time": 120.666546,
          "velocity": 0.6771653543307087
        },
        {
          "duration": 0.3333329999999961,
          "durationTicks": 96,
          "midi": 59,
          "name": "B3",
          "ticks": 34944,
          "time": 121.333212,
          "velocity": 0.6771653543307087
        },
        {
          "duration": 0.3333329999999961,
          "durationTicks": 96,
          "midi": 52,
          "name": "E3",
          "ticks": 34944,
          "time": 121.333212,
          "velocity": 0.6771653543307087
        },
        {
          "duration": 0.3333329999999961,
          "durationTicks": 96,
          "midi": 55,
          "name": "G3",
          "ticks": 34944,
          "time": 121.333212,
          "velocity": 0.6771653543307087
        },
        {
          "duration": 0.3333329999999961,
          "durationTicks": 96,
          "midi": 47,
          "name": "B2",
          "ticks": 34944,
          "time": 121.333212,
          "velocity": 0.6771653543307087
        },
        {
          "duration": 0.6666660000000064,
          "durationTicks": 192,
          "midi": 45,
          "name": "A2",
          "ticks": 35136,
          "time": 121.999878,
          "velocity": 0.6771653543307087
        },
        {
          "duration": 0.6666660000000064,
          "durationTicks": 192,
          "midi": 57,
          "name": "A3",
          "ticks": 35136,
          "time": 121.999878,
          "velocity": 0.6771653543307087
        },
        {
          "duration": 0.6666660000000064,
          "durationTicks": 192,
          "midi": 54,
          "name": "F#3",
          "ticks": 35136,
          "time": 121.999878,
          "velocity": 0.6771653543307087
        },
        {
          "duration": 0.6666660000000064,
          "durationTicks": 192,
          "midi": 49,
          "name": "C#3",
          "ticks": 35136,
          "time": 121.999878,
          "velocity": 0.6771653543307087
        },
        {
          "duration": 0.6666659999999922,
          "durationTicks": 192,
          "midi": 52,
          "name": "E3",
          "ticks": 35328,
          "time": 122.666544,
          "velocity": 0.6771653543307087
        },
        {
          "duration": 0.6666659999999922,
          "durationTicks": 192,
          "midi": 54,
          "name": "F#3",
          "ticks": 35328,
          "time": 122.666544,
          "velocity": 0.6771653543307087
        },
        {
          "duration": 0.6666659999999922,
          "durationTicks": 192,
          "midi": 59,
          "name": "B3",
          "ticks": 35328,
          "time": 122.666544,
          "velocity": 0.6771653543307087
        },
        {
          "duration": 0.6666659999999922,
          "durationTicks": 192,
          "midi": 47,
          "name": "B2",
          "ticks": 35328,
          "time": 122.666544,
          "velocity": 0.6771653543307087
        },
        {
          "duration": 0.6666660000000064,
          "durationTicks": 192,
          "midi": 52,
          "name": "E3",
          "ticks": 35520,
          "time": 123.33321,
          "velocity": 0.6771653543307087
        },
        {
          "duration": 0.6666660000000064,
          "durationTicks": 192,
          "midi": 57,
          "name": "A3",
          "ticks": 35520,
          "time": 123.33321,
          "velocity": 0.6771653543307087
        },
        {
          "duration": 0.6666660000000064,
          "durationTicks": 192,
          "midi": 61,
          "name": "C#4",
          "ticks": 35520,
          "time": 123.33321,
          "velocity": 0.6771653543307087
        },
        {
          "duration": 0.6666660000000064,
          "durationTicks": 192,
          "midi": 49,
          "name": "C#3",
          "ticks": 35520,
          "time": 123.33321,
          "velocity": 0.6771653543307087
        },
        {
          "duration": 0.6666659999999922,
          "durationTicks": 192,
          "midi": 54,
          "name": "F#3",
          "ticks": 35712,
          "time": 123.999876,
          "velocity": 0.6771653543307087
        },
        {
          "duration": 0.6666659999999922,
          "durationTicks": 192,
          "midi": 50,
          "name": "D3",
          "ticks": 35712,
          "time": 123.999876,
          "velocity": 0.6771653543307087
        },
        {
          "duration": 0.6666659999999922,
          "durationTicks": 192,
          "midi": 62,
          "name": "D4",
          "ticks": 35712,
          "time": 123.999876,
          "velocity": 0.6771653543307087
        },
        {
          "duration": 0.6666659999999922,
          "durationTicks": 192,
          "midi": 57,
          "name": "A3",
          "ticks": 35712,
          "time": 123.999876,
          "velocity": 0.6771653543307087
        },
        {
          "duration": 2.6249973749999924,
          "durationTicks": 756,
          "midi": 49,
          "name": "C#3",
          "ticks": 36096,
          "time": 125.333208,
          "velocity": 0.6771653543307087
        },
        {
          "duration": 2.6249973749999924,
          "durationTicks": 756,
          "midi": 52,
          "name": "E3",
          "ticks": 36096,
          "time": 125.333208,
          "velocity": 0.6771653543307087
        },
        {
          "duration": 2.6249973749999924,
          "durationTicks": 756,
          "midi": 61,
          "name": "C#4",
          "ticks": 36096,
          "time": 125.333208,
          "velocity": 0.6771653543307087
        },
        {
          "duration": 2.6249973749999924,
          "durationTicks": 756,
          "midi": 57,
          "name": "A3",
          "ticks": 36096,
          "time": 125.333208,
          "velocity": 0.6771653543307087
        },
        {
          "duration": 2.6249973750000066,
          "durationTicks": 756,
          "midi": 56,
          "name": "G#3",
          "ticks": 36864,
          "time": 127.999872,
          "velocity": 0.6771653543307087
        },
        {
          "duration": 2.6249973750000066,
          "durationTicks": 756,
          "midi": 61,
          "name": "C#4",
          "ticks": 36864,
          "time": 127.999872,
          "velocity": 0.6771653543307087
        },
        {
          "duration": 2.6249973750000066,
          "durationTicks": 756,
          "midi": 59,
          "name": "B3",
          "ticks": 36864,
          "time": 127.999872,
          "velocity": 0.6771653543307087
        },
        {
          "duration": 2.6249973750000066,
          "durationTicks": 756,
          "midi": 64,
          "name": "E4",
          "ticks": 36864,
          "time": 127.999872,
          "velocity": 0.6771653543307087
        },
        {
          "duration": 2.6249973750000066,
          "durationTicks": 756,
          "midi": 52,
          "name": "E3",
          "ticks": 36864,
          "time": 127.999872,
          "velocity": 0.6771653543307087
        },
        {
          "duration": 2.6249973749999924,
          "durationTicks": 756,
          "midi": 62,
          "name": "D4",
          "ticks": 37632,
          "time": 130.666536,
          "velocity": 0.6771653543307087
        },
        {
          "duration": 2.6249973749999924,
          "durationTicks": 756,
          "midi": 54,
          "name": "F#3",
          "ticks": 37632,
          "time": 130.666536,
          "velocity": 0.6771653543307087
        },
        {
          "duration": 2.6249973749999924,
          "durationTicks": 756,
          "midi": 57,
          "name": "A3",
          "ticks": 37632,
          "time": 130.666536,
          "velocity": 0.6771653543307087
        },
        {
          "duration": 2.6249973749999924,
          "durationTicks": 756,
          "midi": 66,
          "name": "F#4",
          "ticks": 37632,
          "time": 130.666536,
          "velocity": 0.6771653543307087
        },
        {
          "duration": 1.1249988749999886,
          "durationTicks": 324,
          "midi": 53,
          "name": "F3",
          "ticks": 38400,
          "time": 133.3332,
          "velocity": 0.6771653543307087
        },
        {
          "duration": 1.1249988749999886,
          "durationTicks": 324,
          "midi": 57,
          "name": "A3",
          "ticks": 38400,
          "time": 133.3332,
          "velocity": 0.6771653543307087
        },
        {
          "duration": 1.1249988749999886,
          "durationTicks": 324,
          "midi": 62,
          "name": "D4",
          "ticks": 38400,
          "time": 133.3332,
          "velocity": 0.6771653543307087
        },
        {
          "duration": 1.1249988749999886,
          "durationTicks": 324,
          "midi": 65,
          "name": "F4",
          "ticks": 38400,
          "time": 133.3332,
          "velocity": 0.6771653543307087
        },
        {
          "duration": 1.458331874999999,
          "durationTicks": 420,
          "midi": 53,
          "name": "F3",
          "ticks": 38736,
          "time": 134.4998655,
          "velocity": 0.6692913385826772
        },
        {
          "duration": 1.458331874999999,
          "durationTicks": 420,
          "midi": 62,
          "name": "D4",
          "ticks": 38736,
          "time": 134.4998655,
          "velocity": 0.6692913385826772
        },
        {
          "duration": 1.458331874999999,
          "durationTicks": 420,
          "midi": 57,
          "name": "A3",
          "ticks": 38736,
          "time": 134.4998655,
          "velocity": 0.6692913385826772
        },
        {
          "duration": 1.458331874999999,
          "durationTicks": 420,
          "midi": 50,
          "name": "D3",
          "ticks": 38736,
          "time": 134.4998655,
          "velocity": 0.6692913385826772
        },
        {
          "duration": 2.6249973749999924,
          "durationTicks": 756,
          "midi": 52,
          "name": "E3",
          "ticks": 39168,
          "time": 135.999864,
          "velocity": 0.6771653543307087
        },
        {
          "duration": 2.6249973749999924,
          "durationTicks": 756,
          "midi": 61,
          "name": "C#4",
          "ticks": 39168,
          "time": 135.999864,
          "velocity": 0.6771653543307087
        },
        {
          "duration": 2.6249973749999924,
          "durationTicks": 756,
          "midi": 57,
          "name": "A3",
          "ticks": 39168,
          "time": 135.999864,
          "velocity": 0.6771653543307087
        },
        {
          "duration": 2.6249973749999924,
          "durationTicks": 756,
          "midi": 49,
          "name": "C#3",
          "ticks": 39168,
          "time": 135.999864,
          "velocity": 0.6771653543307087
        },
        {
          "duration": 1.9583313750000002,
          "durationTicks": 564,
          "midi": 61,
          "name": "C#4",
          "ticks": 39936,
          "time": 138.666528,
          "velocity": 0.6771653543307087
        },
        {
          "duration": 1.9583313750000002,
          "durationTicks": 564,
          "midi": 64,
          "name": "E4",
          "ticks": 39936,
          "time": 138.666528,
          "velocity": 0.6771653543307087
        },
        {
          "duration": 1.9583313750000002,
          "durationTicks": 564,
          "midi": 59,
          "name": "B3",
          "ticks": 39936,
          "time": 138.666528,
          "velocity": 0.6771653543307087
        },
        {
          "duration": 1.9583313750000002,
          "durationTicks": 564,
          "midi": 52,
          "name": "E3",
          "ticks": 39936,
          "time": 138.666528,
          "velocity": 0.6771653543307087
        },
        {
          "duration": 1.9583313750000002,
          "durationTicks": 564,
          "midi": 56,
          "name": "G#3",
          "ticks": 39936,
          "time": 138.666528,
          "velocity": 0.6771653543307087
        },
        {
          "duration": 0.31944412499998975,
          "durationTicks": 92,
          "midi": 57,
          "name": "A3",
          "ticks": 40704,
          "time": 141.333192,
          "velocity": 0.6771653543307087
        },
        {
          "duration": 0.31944412499998975,
          "durationTicks": 92,
          "midi": 69,
          "name": "A4",
          "ticks": 40704,
          "time": 141.333192,
          "velocity": 0.6771653543307087
        },
        {
          "duration": 0.31944412499998975,
          "durationTicks": 92,
          "midi": 66,
          "name": "F#4",
          "ticks": 40704,
          "time": 141.333192,
          "velocity": 0.6771653543307087
        },
        {
          "duration": 0.31944412499998975,
          "durationTicks": 92,
          "midi": 62,
          "name": "D4",
          "ticks": 40704,
          "time": 141.333192,
          "velocity": 0.6771653543307087
        },
        {
          "duration": 0.3194441250000182,
          "durationTicks": 92,
          "midi": 66,
          "name": "F#4",
          "ticks": 41376,
          "time": 143.66652299999998,
          "velocity": 0.6771653543307087
        },
        {
          "duration": 0.3194441250000182,
          "durationTicks": 92,
          "midi": 57,
          "name": "A3",
          "ticks": 41376,
          "time": 143.66652299999998,
          "velocity": 0.6771653543307087
        },
        {
          "duration": 0.3194441250000182,
          "durationTicks": 92,
          "midi": 69,
          "name": "A4",
          "ticks": 41376,
          "time": 143.66652299999998,
          "velocity": 0.6771653543307087
        },
        {
          "duration": 0.3194441250000182,
          "durationTicks": 92,
          "midi": 62,
          "name": "D4",
          "ticks": 41376,
          "time": 143.66652299999998,
          "velocity": 0.6771653543307087
        },
        {
          "duration": 0.31944412499998975,
          "durationTicks": 92,
          "midi": 69,
          "name": "A4",
          "ticks": 41472,
          "time": 143.999856,
          "velocity": 0.6771653543307087
        },
        {
          "duration": 0.31944412499998975,
          "durationTicks": 92,
          "midi": 57,
          "name": "A3",
          "ticks": 41472,
          "time": 143.999856,
          "velocity": 0.6771653543307087
        },
        {
          "duration": 0.31944412499998975,
          "durationTicks": 92,
          "midi": 62,
          "name": "D4",
          "ticks": 41472,
          "time": 143.999856,
          "velocity": 0.6771653543307087
        },
        {
          "duration": 0.31944412499998975,
          "durationTicks": 92,
          "midi": 65,
          "name": "F4",
          "ticks": 41472,
          "time": 143.999856,
          "velocity": 0.6771653543307087
        }
      ],
      "endOfTrackTicks": 45698
    },
    {
      "channel": 15,
      "controlChanges": {
        "6": [
          {
            "number": 6,
            "ticks": 0,
            "time": 0,
            "value": 0.09448818897637795
          },
          {
            "number": 6,
            "ticks": 0,
            "time": 0,
            "value": 0.09448818897637795
          },
          {
            "number": 6,
            "ticks": 0,
            "time": 0,
            "value": 0.09448818897637795
          },
          {
            "number": 6,
            "ticks": 45696,
            "time": 158.666508,
            "value": 0.09448818897637795
          },
          {
            "number": 6,
            "ticks": 45698,
            "time": 158.67345243749998,
            "value": 0.09448818897637795
          }
        ],
        "7": [
          {
            "number": 7,
            "ticks": 0,
            "time": 0,
            "value": 0.7874015748031497
          },
          {
            "number": 7,
            "ticks": 0,
            "time": 0,
            "value": 0.7874015748031497
          },
          {
            "number": 7,
            "ticks": 0,
            "time": 0,
            "value": 0.7874015748031497
          },
          {
            "number": 7,
            "ticks": 0,
            "time": 0,
            "value": 0.7874015748031497
          },
          {
            "number": 7,
            "ticks": 45696,
            "time": 158.666508,
            "value": 0.7874015748031497
          },
          {
            "number": 7,
            "ticks": 45698,
            "time": 158.67345243749998,
            "value": 0.7874015748031497
          }
        ],
        "10": [
          {
            "number": 10,
            "ticks": 0,
            "time": 0,
            "value": 0.5039370078740157
          },
          {
            "number": 10,
            "ticks": 0,
            "time": 0,
            "value": 0.5039370078740157
          },
          {
            "number": 10,
            "ticks": 0,
            "time": 0,
            "value": 0.5039370078740157
          },
          {
            "number": 10,
            "ticks": 0,
            "time": 0,
            "value": 0.5039370078740157
          },
          {
            "number": 10,
            "ticks": 45696,
            "time": 158.666508,
            "value": 0.5039370078740157
          },
          {
            "number": 10,
            "ticks": 45698,
            "time": 158.67345243749998,
            "value": 0.5039370078740157
          }
        ],
        "100": [
          {
            "number": 100,
            "ticks": 0,
            "time": 0,
            "value": 0
          },
          {
            "number": 100,
            "ticks": 0,
            "time": 0,
            "value": 0
          },
          {
            "number": 100,
            "ticks": 0,
            "time": 0,
            "value": 0
          },
          {
            "number": 100,
            "ticks": 45696,
            "time": 158.666508,
            "value": 0
          },
          {
            "number": 100,
            "ticks": 45698,
            "time": 158.67345243749998,
            "value": 0
          }
        ],
        "101": [
          {
            "number": 101,
            "ticks": 0,
            "time": 0,
            "value": 0
          },
          {
            "number": 101,
            "ticks": 0,
            "time": 0,
            "value": 0
          },
          {
            "number": 101,
            "ticks": 0,
            "time": 0,
            "value": 0
          },
          {
            "number": 101,
            "ticks": 45696,
            "time": 158.666508,
            "value": 0
          },
          {
            "number": 101,
            "ticks": 45698,
            "time": 158.67345243749998,
            "value": 0
          }
        ]
      },
      "pitchBends": [
        {
          "ticks": 0,
          "time": 0,
          "value": 0
        },
        {
          "ticks": 0,
          "time": 0,
          "value": 0
        },
        {
          "ticks": 0,
          "time": 0,
          "value": 0
        },
        {
          "ticks": 0,
          "time": 0,
          "value": 0
        },
        {
          "ticks": 45696,
          "time": 158.666508,
          "value": 0
        },
        {
          "ticks": 45698,
          "time": 158.67345243749998,
          "value": 0
        }
      ],
      "instrument": {
        "family": "piano",
        "number": 0,
        "name": "acoustic grand piano"
      },
      "name": "Pad (Cutoff)",
      "notes": [
        {
          "duration": 0.027777750000000268,
          "durationTicks": 8,
          "midi": 62,
          "name": "D4",
          "ticks": 816,
          "time": 2.8333304999999998,
          "velocity": 0.4094488188976378
        },
        {
          "duration": 0.027777750000000268,
          "durationTicks": 8,
          "midi": 57,
          "name": "A3",
          "ticks": 816,
          "time": 2.8333304999999998,
          "velocity": 0.4094488188976378
        },
        {
          "duration": 0.027777750000000268,
          "durationTicks": 8,
          "midi": 46,
          "name": "A#2",
          "ticks": 816,
          "time": 2.8333304999999998,
          "velocity": 0.4094488188976378
        },
        {
          "duration": 0.027777750000000268,
          "durationTicks": 8,
          "midi": 52,
          "name": "E3",
          "ticks": 816,
          "time": 2.8333304999999998,
          "velocity": 0.4094488188976378
        },
        {
          "duration": 0.027777750000000268,
          "durationTicks": 8,
          "midi": 46,
          "name": "A#2",
          "ticks": 864,
          "time": 2.999997,
          "velocity": 0.4094488188976378
        },
        {
          "duration": 0.027777750000000268,
          "durationTicks": 8,
          "midi": 57,
          "name": "A3",
          "ticks": 864,
          "time": 2.999997,
          "velocity": 0.4094488188976378
        },
        {
          "duration": 0.027777750000000268,
          "durationTicks": 8,
          "midi": 62,
          "name": "D4",
          "ticks": 864,
          "time": 2.999997,
          "velocity": 0.4094488188976378
        },
        {
          "duration": 0.027777750000000268,
          "durationTicks": 8,
          "midi": 52,
          "name": "E3",
          "ticks": 864,
          "time": 2.999997,
          "velocity": 0.4094488188976378
        },
        {
          "duration": 0.027777750000000268,
          "durationTicks": 8,
          "midi": 52,
          "name": "E3",
          "ticks": 912,
          "time": 3.1666635,
          "velocity": 0.4094488188976378
        },
        {
          "duration": 0.027777750000000268,
          "durationTicks": 8,
          "midi": 46,
          "name": "A#2",
          "ticks": 912,
          "time": 3.1666635,
          "velocity": 0.4094488188976378
        },
        {
          "duration": 0.027777750000000268,
          "durationTicks": 8,
          "midi": 57,
          "name": "A3",
          "ticks": 912,
          "time": 3.1666635,
          "velocity": 0.4094488188976378
        },
        {
          "duration": 0.027777750000000268,
          "durationTicks": 8,
          "midi": 62,
          "name": "D4",
          "ticks": 912,
          "time": 3.1666635,
          "velocity": 0.4094488188976378
        },
        {
          "duration": 0.027777749999999823,
          "durationTicks": 8,
          "midi": 46,
          "name": "A#2",
          "ticks": 960,
          "time": 3.33333,
          "velocity": 0.4094488188976378
        },
        {
          "duration": 0.027777749999999823,
          "durationTicks": 8,
          "midi": 57,
          "name": "A3",
          "ticks": 960,
          "time": 3.33333,
          "velocity": 0.4094488188976378
        },
        {
          "duration": 0.027777749999999823,
          "durationTicks": 8,
          "midi": 62,
          "name": "D4",
          "ticks": 960,
          "time": 3.33333,
          "velocity": 0.4094488188976378
        },
        {
          "duration": 0.027777749999999823,
          "durationTicks": 8,
          "midi": 52,
          "name": "E3",
          "ticks": 960,
          "time": 3.33333,
          "velocity": 0.4094488188976378
        },
        {
          "duration": 0.027777750000000268,
          "durationTicks": 8,
          "midi": 62,
          "name": "D4",
          "ticks": 1008,
          "time": 3.4999965,
          "velocity": 0.4094488188976378
        },
        {
          "duration": 0.027777750000000268,
          "durationTicks": 8,
          "midi": 57,
          "name": "A3",
          "ticks": 1008,
          "time": 3.4999965,
          "velocity": 0.4094488188976378
        },
        {
          "duration": 0.027777750000000268,
          "durationTicks": 8,
          "midi": 46,
          "name": "A#2",
          "ticks": 1008,
          "time": 3.4999965,
          "velocity": 0.4094488188976378
        },
        {
          "duration": 0.027777750000000268,
          "durationTicks": 8,
          "midi": 52,
          "name": "E3",
          "ticks": 1008,
          "time": 3.4999965,
          "velocity": 0.4094488188976378
        },
        {
          "duration": 0.027777750000000268,
          "durationTicks": 8,
          "midi": 46,
          "name": "A#2",
          "ticks": 1056,
          "time": 3.666663,
          "velocity": 0.4094488188976378
        },
        {
          "duration": 0.027777750000000268,
          "durationTicks": 8,
          "midi": 57,
          "name": "A3",
          "ticks": 1056,
          "time": 3.666663,
          "velocity": 0.4094488188976378
        },
        {
          "duration": 0.027777750000000268,
          "durationTicks": 8,
          "midi": 62,
          "name": "D4",
          "ticks": 1056,
          "time": 3.666663,
          "velocity": 0.4094488188976378
        },
        {
          "duration": 0.027777750000000268,
          "durationTicks": 8,
          "midi": 52,
          "name": "E3",
          "ticks": 1056,
          "time": 3.666663,
          "velocity": 0.4094488188976378
        },
        {
          "duration": 0.027777749999999823,
          "durationTicks": 8,
          "midi": 52,
          "name": "E3",
          "ticks": 1104,
          "time": 3.8333295,
          "velocity": 0.4094488188976378
        },
        {
          "duration": 0.027777749999999823,
          "durationTicks": 8,
          "midi": 46,
          "name": "A#2",
          "ticks": 1104,
          "time": 3.8333295,
          "velocity": 0.4094488188976378
        },
        {
          "duration": 0.027777749999999823,
          "durationTicks": 8,
          "midi": 57,
          "name": "A3",
          "ticks": 1104,
          "time": 3.8333295,
          "velocity": 0.4094488188976378
        },
        {
          "duration": 0.027777749999999823,
          "durationTicks": 8,
          "midi": 62,
          "name": "D4",
          "ticks": 1104,
          "time": 3.8333295,
          "velocity": 0.4094488188976378
        },
        {
          "duration": 0.027777749999999823,
          "durationTicks": 8,
          "midi": 62,
          "name": "D4",
          "ticks": 1152,
          "time": 3.999996,
          "velocity": 0.4094488188976378
        },
        {
          "duration": 0.027777749999999823,
          "durationTicks": 8,
          "midi": 57,
          "name": "A3",
          "ticks": 1152,
          "time": 3.999996,
          "velocity": 0.4094488188976378
        },
        {
          "duration": 0.027777749999999823,
          "durationTicks": 8,
          "midi": 46,
          "name": "A#2",
          "ticks": 1152,
          "time": 3.999996,
          "velocity": 0.4094488188976378
        },
        {
          "duration": 0.027777749999999823,
          "durationTicks": 8,
          "midi": 52,
          "name": "E3",
          "ticks": 1152,
          "time": 3.999996,
          "velocity": 0.4094488188976378
        },
        {
          "duration": 0.027777750000000268,
          "durationTicks": 8,
          "midi": 52,
          "name": "E3",
          "ticks": 1200,
          "time": 4.1666625,
          "velocity": 0.4094488188976378
        },
        {
          "duration": 0.027777750000000268,
          "durationTicks": 8,
          "midi": 46,
          "name": "A#2",
          "ticks": 1200,
          "time": 4.1666625,
          "velocity": 0.4094488188976378
        },
        {
          "duration": 0.027777750000000268,
          "durationTicks": 8,
          "midi": 57,
          "name": "A3",
          "ticks": 1200,
          "time": 4.1666625,
          "velocity": 0.4094488188976378
        },
        {
          "duration": 0.027777750000000268,
          "durationTicks": 8,
          "midi": 62,
          "name": "D4",
          "ticks": 1200,
          "time": 4.1666625,
          "velocity": 0.4094488188976378
        },
        {
          "duration": 0.027777750000000268,
          "durationTicks": 8,
          "midi": 52,
          "name": "E3",
          "ticks": 1296,
          "time": 4.4999955,
          "velocity": 0.4094488188976378
        },
        {
          "duration": 0.027777750000000268,
          "durationTicks": 8,
          "midi": 46,
          "name": "A#2",
          "ticks": 1296,
          "time": 4.4999955,
          "velocity": 0.4094488188976378
        },
        {
          "duration": 0.027777750000000268,
          "durationTicks": 8,
          "midi": 57,
          "name": "A3",
          "ticks": 1296,
          "time": 4.4999955,
          "velocity": 0.4094488188976378
        },
        {
          "duration": 0.027777750000000268,
          "durationTicks": 8,
          "midi": 62,
          "name": "D4",
          "ticks": 1296,
          "time": 4.4999955,
          "velocity": 0.4094488188976378
        },
        {
          "duration": 0.027777750000000268,
          "durationTicks": 8,
          "midi": 62,
          "name": "D4",
          "ticks": 1392,
          "time": 4.8333284999999995,
          "velocity": 0.4094488188976378
        },
        {
          "duration": 0.027777750000000268,
          "durationTicks": 8,
          "midi": 57,
          "name": "A3",
          "ticks": 1392,
          "time": 4.8333284999999995,
          "velocity": 0.4094488188976378
        },
        {
          "duration": 0.027777750000000268,
          "durationTicks": 8,
          "midi": 46,
          "name": "A#2",
          "ticks": 1392,
          "time": 4.8333284999999995,
          "velocity": 0.4094488188976378
        },
        {
          "duration": 0.027777750000000268,
          "durationTicks": 8,
          "midi": 52,
          "name": "E3",
          "ticks": 1392,
          "time": 4.8333284999999995,
          "velocity": 0.4094488188976378
        },
        {
          "duration": 0.027777750000000268,
          "durationTicks": 8,
          "midi": 52,
          "name": "E3",
          "ticks": 1488,
          "time": 5.1666615,
          "velocity": 0.4094488188976378
        },
        {
          "duration": 0.027777750000000268,
          "durationTicks": 8,
          "midi": 46,
          "name": "A#2",
          "ticks": 1488,
          "time": 5.1666615,
          "velocity": 0.4094488188976378
        },
        {
          "duration": 0.027777750000000268,
          "durationTicks": 8,
          "midi": 57,
          "name": "A3",
          "ticks": 1488,
          "time": 5.1666615,
          "velocity": 0.4094488188976378
        },
        {
          "duration": 0.027777750000000268,
          "durationTicks": 8,
          "midi": 62,
          "name": "D4",
          "ticks": 1488,
          "time": 5.1666615,
          "velocity": 0.4094488188976378
        },
        {
          "duration": 0.02777774999999938,
          "durationTicks": 8,
          "midi": 61,
          "name": "C#4",
          "ticks": 1584,
          "time": 5.4999945,
          "velocity": 0.4094488188976378
        },
        {
          "duration": 0.02777774999999938,
          "durationTicks": 8,
          "midi": 57,
          "name": "A3",
          "ticks": 1584,
          "time": 5.4999945,
          "velocity": 0.4094488188976378
        },
        {
          "duration": 0.02777774999999938,
          "durationTicks": 8,
          "midi": 52,
          "name": "E3",
          "ticks": 1584,
          "time": 5.4999945,
          "velocity": 0.4094488188976378
        },
        {
          "duration": 0.02777774999999938,
          "durationTicks": 8,
          "midi": 45,
          "name": "A2",
          "ticks": 1584,
          "time": 5.4999945,
          "velocity": 0.4094488188976378
        },
        {
          "duration": 0.027777750000000268,
          "durationTicks": 8,
          "midi": 45,
          "name": "A2",
          "ticks": 1632,
          "time": 5.6666609999999995,
          "velocity": 0.4094488188976378
        },
        {
          "duration": 0.027777750000000268,
          "durationTicks": 8,
          "midi": 52,
          "name": "E3",
          "ticks": 1632,
          "time": 5.6666609999999995,
          "velocity": 0.4094488188976378
        },
        {
          "duration": 0.027777750000000268,
          "durationTicks": 8,
          "midi": 57,
          "name": "A3",
          "ticks": 1632,
          "time": 5.6666609999999995,
          "velocity": 0.4094488188976378
        },
        {
          "duration": 0.027777750000000268,
          "durationTicks": 8,
          "midi": 61,
          "name": "C#4",
          "ticks": 1632,
          "time": 5.6666609999999995,
          "velocity": 0.4094488188976378
        },
        {
          "duration": 0.02777774999999938,
          "durationTicks": 8,
          "midi": 45,
          "name": "A2",
          "ticks": 1680,
          "time": 5.8333275,
          "velocity": 0.4094488188976378
        },
        {
          "duration": 0.02777774999999938,
          "durationTicks": 8,
          "midi": 52,
          "name": "E3",
          "ticks": 1680,
          "time": 5.8333275,
          "velocity": 0.4094488188976378
        },
        {
          "duration": 0.02777774999999938,
          "durationTicks": 8,
          "midi": 57,
          "name": "A3",
          "ticks": 1680,
          "time": 5.8333275,
          "velocity": 0.4094488188976378
        },
        {
          "duration": 0.02777774999999938,
          "durationTicks": 8,
          "midi": 61,
          "name": "C#4",
          "ticks": 1680,
          "time": 5.8333275,
          "velocity": 0.4094488188976378
        },
        {
          "duration": 0.02777774999999938,
          "durationTicks": 8,
          "midi": 61,
          "name": "C#4",
          "ticks": 1728,
          "time": 5.999994,
          "velocity": 0.4094488188976378
        },
        {
          "duration": 0.02777774999999938,
          "durationTicks": 8,
          "midi": 57,
          "name": "A3",
          "ticks": 1728,
          "time": 5.999994,
          "velocity": 0.4094488188976378
        },
        {
          "duration": 0.02777774999999938,
          "durationTicks": 8,
          "midi": 52,
          "name": "E3",
          "ticks": 1728,
          "time": 5.999994,
          "velocity": 0.4094488188976378
        },
        {
          "duration": 0.02777774999999938,
          "durationTicks": 8,
          "midi": 45,
          "name": "A2",
          "ticks": 1728,
          "time": 5.999994,
          "velocity": 0.4094488188976378
        },
        {
          "duration": 0.02777774999999938,
          "durationTicks": 8,
          "midi": 45,
          "name": "A2",
          "ticks": 1776,
          "time": 6.1666605,
          "velocity": 0.4094488188976378
        },
        {
          "duration": 0.02777774999999938,
          "durationTicks": 8,
          "midi": 52,
          "name": "E3",
          "ticks": 1776,
          "time": 6.1666605,
          "velocity": 0.4094488188976378
        },
        {
          "duration": 0.02777774999999938,
          "durationTicks": 8,
          "midi": 57,
          "name": "A3",
          "ticks": 1776,
          "time": 6.1666605,
          "velocity": 0.4094488188976378
        },
        {
          "duration": 0.02777774999999938,
          "durationTicks": 8,
          "midi": 61,
          "name": "C#4",
          "ticks": 1776,
          "time": 6.1666605,
          "velocity": 0.4094488188976378
        },
        {
          "duration": 0.02777774999999938,
          "durationTicks": 8,
          "midi": 45,
          "name": "A2",
          "ticks": 1824,
          "time": 6.333327,
          "velocity": 0.4094488188976378
        },
        {
          "duration": 0.02777774999999938,
          "durationTicks": 8,
          "midi": 52,
          "name": "E3",
          "ticks": 1824,
          "time": 6.333327,
          "velocity": 0.4094488188976378
        },
        {
          "duration": 0.02777774999999938,
          "durationTicks": 8,
          "midi": 57,
          "name": "A3",
          "ticks": 1824,
          "time": 6.333327,
          "velocity": 0.4094488188976378
        },
        {
          "duration": 0.02777774999999938,
          "durationTicks": 8,
          "midi": 61,
          "name": "C#4",
          "ticks": 1824,
          "time": 6.333327,
          "velocity": 0.4094488188976378
        },
        {
          "duration": 0.027777750000000268,
          "durationTicks": 8,
          "midi": 45,
          "name": "A2",
          "ticks": 1872,
          "time": 6.4999934999999995,
          "velocity": 0.4094488188976378
        },
        {
          "duration": 0.027777750000000268,
          "durationTicks": 8,
          "midi": 52,
          "name": "E3",
          "ticks": 1872,
          "time": 6.4999934999999995,
          "velocity": 0.4094488188976378
        },
        {
          "duration": 0.027777750000000268,
          "durationTicks": 8,
          "midi": 57,
          "name": "A3",
          "ticks": 1872,
          "time": 6.4999934999999995,
          "velocity": 0.4094488188976378
        },
        {
          "duration": 0.027777750000000268,
          "durationTicks": 8,
          "midi": 61,
          "name": "C#4",
          "ticks": 1872,
          "time": 6.4999934999999995,
          "velocity": 0.4094488188976378
        },
        {
          "duration": 0.02777774999999938,
          "durationTicks": 8,
          "midi": 61,
          "name": "C#4",
          "ticks": 1920,
          "time": 6.66666,
          "velocity": 0.4094488188976378
        },
        {
          "duration": 0.02777774999999938,
          "durationTicks": 8,
          "midi": 57,
          "name": "A3",
          "ticks": 1920,
          "time": 6.66666,
          "velocity": 0.4094488188976378
        },
        {
          "duration": 0.02777774999999938,
          "durationTicks": 8,
          "midi": 52,
          "name": "E3",
          "ticks": 1920,
          "time": 6.66666,
          "velocity": 0.4094488188976378
        },
        {
          "duration": 0.02777774999999938,
          "durationTicks": 8,
          "midi": 45,
          "name": "A2",
          "ticks": 1920,
          "time": 6.66666,
          "velocity": 0.4094488188976378
        },
        {
          "duration": 0.02777774999999938,
          "durationTicks": 8,
          "midi": 45,
          "name": "A2",
          "ticks": 1968,
          "time": 6.8333265,
          "velocity": 0.4094488188976378
        },
        {
          "duration": 0.02777774999999938,
          "durationTicks": 8,
          "midi": 52,
          "name": "E3",
          "ticks": 1968,
          "time": 6.8333265,
          "velocity": 0.4094488188976378
        },
        {
          "duration": 0.02777774999999938,
          "durationTicks": 8,
          "midi": 57,
          "name": "A3",
          "ticks": 1968,
          "time": 6.8333265,
          "velocity": 0.4094488188976378
        },
        {
          "duration": 0.02777774999999938,
          "durationTicks": 8,
          "midi": 61,
          "name": "C#4",
          "ticks": 1968,
          "time": 6.8333265,
          "velocity": 0.4094488188976378
        },
        {
          "duration": 0.02777774999999938,
          "durationTicks": 8,
          "midi": 45,
          "name": "A2",
          "ticks": 2064,
          "time": 7.1666595,
          "velocity": 0.4094488188976378
        },
        {
          "duration": 0.02777774999999938,
          "durationTicks": 8,
          "midi": 52,
          "name": "E3",
          "ticks": 2064,
          "time": 7.1666595,
          "velocity": 0.4094488188976378
        },
        {
          "duration": 0.02777774999999938,
          "durationTicks": 8,
          "midi": 57,
          "name": "A3",
          "ticks": 2064,
          "time": 7.1666595,
          "velocity": 0.4094488188976378
        },
        {
          "duration": 0.02777774999999938,
          "durationTicks": 8,
          "midi": 61,
          "name": "C#4",
          "ticks": 2064,
          "time": 7.1666595,
          "velocity": 0.4094488188976378
        },
        {
          "duration": 0.027777750000000268,
          "durationTicks": 8,
          "midi": 61,
          "name": "C#4",
          "ticks": 2112,
          "time": 7.333326,
          "velocity": 0.4094488188976378
        },
        {
          "duration": 0.027777750000000268,
          "durationTicks": 8,
          "midi": 57,
          "name": "A3",
          "ticks": 2112,
          "time": 7.333326,
          "velocity": 0.4094488188976378
        },
        {
          "duration": 0.027777750000000268,
          "durationTicks": 8,
          "midi": 52,
          "name": "E3",
          "ticks": 2112,
          "time": 7.333326,
          "velocity": 0.4094488188976378
        },
        {
          "duration": 0.027777750000000268,
          "durationTicks": 8,
          "midi": 45,
          "name": "A2",
          "ticks": 2112,
          "time": 7.333326,
          "velocity": 0.4094488188976378
        },
        {
          "duration": 0.02777774999999849,
          "durationTicks": 8,
          "midi": 52,
          "name": "E3",
          "ticks": 2352,
          "time": 8.1666585,
          "velocity": 0.4094488188976378
        },
        {
          "duration": 0.02777774999999849,
          "durationTicks": 8,
          "midi": 46,
          "name": "A#2",
          "ticks": 2352,
          "time": 8.1666585,
          "velocity": 0.4094488188976378
        },
        {
          "duration": 0.02777774999999849,
          "durationTicks": 8,
          "midi": 57,
          "name": "A3",
          "ticks": 2352,
          "time": 8.1666585,
          "velocity": 0.4094488188976378
        },
        {
          "duration": 0.02777774999999849,
          "durationTicks": 8,
          "midi": 62,
          "name": "D4",
          "ticks": 2352,
          "time": 8.1666585,
          "velocity": 0.4094488188976378
        },
        {
          "duration": 0.02777774999999849,
          "durationTicks": 8,
          "midi": 52,
          "name": "E3",
          "ticks": 2400,
          "time": 8.333325,
          "velocity": 0.4094488188976378
        },
        {
          "duration": 0.02777774999999849,
          "durationTicks": 8,
          "midi": 62,
          "name": "D4",
          "ticks": 2400,
          "time": 8.333325,
          "velocity": 0.4094488188976378
        },
        {
          "duration": 0.02777774999999849,
          "durationTicks": 8,
          "midi": 57,
          "name": "A3",
          "ticks": 2400,
          "time": 8.333325,
          "velocity": 0.4094488188976378
        },
        {
          "duration": 0.02777774999999849,
          "durationTicks": 8,
          "midi": 46,
          "name": "A#2",
          "ticks": 2400,
          "time": 8.333325,
          "velocity": 0.4094488188976378
        },
        {
          "duration": 0.02777774999999849,
          "durationTicks": 8,
          "midi": 62,
          "name": "D4",
          "ticks": 2448,
          "time": 8.4999915,
          "velocity": 0.4094488188976378
        },
        {
          "duration": 0.02777774999999849,
          "durationTicks": 8,
          "midi": 57,
          "name": "A3",
          "ticks": 2448,
          "time": 8.4999915,
          "velocity": 0.4094488188976378
        },
        {
          "duration": 0.02777774999999849,
          "durationTicks": 8,
          "midi": 46,
          "name": "A#2",
          "ticks": 2448,
          "time": 8.4999915,
          "velocity": 0.4094488188976378
        },
        {
          "duration": 0.02777774999999849,
          "durationTicks": 8,
          "midi": 52,
          "name": "E3",
          "ticks": 2448,
          "time": 8.4999915,
          "velocity": 0.4094488188976378
        },
        {
          "duration": 0.027777750000000268,
          "durationTicks": 8,
          "midi": 52,
          "name": "E3",
          "ticks": 2496,
          "time": 8.666658,
          "velocity": 0.4094488188976378
        },
        {
          "duration": 0.027777750000000268,
          "durationTicks": 8,
          "midi": 62,
          "name": "D4",
          "ticks": 2496,
          "time": 8.666658,
          "velocity": 0.4094488188976378
        },
        {
          "duration": 0.027777750000000268,
          "durationTicks": 8,
          "midi": 57,
          "name": "A3",
          "ticks": 2496,
          "time": 8.666658,
          "velocity": 0.4094488188976378
        },
        {
          "duration": 0.027777750000000268,
          "durationTicks": 8,
          "midi": 46,
          "name": "A#2",
          "ticks": 2496,
          "time": 8.666658,
          "velocity": 0.4094488188976378
        },
        {
          "duration": 0.027777750000000268,
          "durationTicks": 8,
          "midi": 52,
          "name": "E3",
          "ticks": 2544,
          "time": 8.8333245,
          "velocity": 0.4094488188976378
        },
        {
          "duration": 0.027777750000000268,
          "durationTicks": 8,
          "midi": 46,
          "name": "A#2",
          "ticks": 2544,
          "time": 8.8333245,
          "velocity": 0.4094488188976378
        },
        {
          "duration": 0.027777750000000268,
          "durationTicks": 8,
          "midi": 57,
          "name": "A3",
          "ticks": 2544,
          "time": 8.8333245,
          "velocity": 0.4094488188976378
        },
        {
          "duration": 0.027777750000000268,
          "durationTicks": 8,
          "midi": 62,
          "name": "D4",
          "ticks": 2544,
          "time": 8.8333245,
          "velocity": 0.4094488188976378
        },
        {
          "duration": 0.027777750000000268,
          "durationTicks": 8,
          "midi": 52,
          "name": "E3",
          "ticks": 2592,
          "time": 8.999991,
          "velocity": 0.4094488188976378
        },
        {
          "duration": 0.027777750000000268,
          "durationTicks": 8,
          "midi": 62,
          "name": "D4",
          "ticks": 2592,
          "time": 8.999991,
          "velocity": 0.4094488188976378
        },
        {
          "duration": 0.027777750000000268,
          "durationTicks": 8,
          "midi": 57,
          "name": "A3",
          "ticks": 2592,
          "time": 8.999991,
          "velocity": 0.4094488188976378
        },
        {
          "duration": 0.027777750000000268,
          "durationTicks": 8,
          "midi": 46,
          "name": "A#2",
          "ticks": 2592,
          "time": 8.999991,
          "velocity": 0.4094488188976378
        },
        {
          "duration": 0.027777750000000268,
          "durationTicks": 8,
          "midi": 52,
          "name": "E3",
          "ticks": 2640,
          "time": 9.1666575,
          "velocity": 0.4094488188976378
        },
        {
          "duration": 0.027777750000000268,
          "durationTicks": 8,
          "midi": 46,
          "name": "A#2",
          "ticks": 2640,
          "time": 9.1666575,
          "velocity": 0.4094488188976378
        },
        {
          "duration": 0.027777750000000268,
          "durationTicks": 8,
          "midi": 57,
          "name": "A3",
          "ticks": 2640,
          "time": 9.1666575,
          "velocity": 0.4094488188976378
        },
        {
          "duration": 0.027777750000000268,
          "durationTicks": 8,
          "midi": 62,
          "name": "D4",
          "ticks": 2640,
          "time": 9.1666575,
          "velocity": 0.4094488188976378
        },
        {
          "duration": 0.027777750000000268,
          "durationTicks": 8,
          "midi": 62,
          "name": "D4",
          "ticks": 2688,
          "time": 9.333324,
          "velocity": 0.4094488188976378
        },
        {
          "duration": 0.027777750000000268,
          "durationTicks": 8,
          "midi": 57,
          "name": "A3",
          "ticks": 2688,
          "time": 9.333324,
          "velocity": 0.4094488188976378
        },
        {
          "duration": 0.027777750000000268,
          "durationTicks": 8,
          "midi": 46,
          "name": "A#2",
          "ticks": 2688,
          "time": 9.333324,
          "velocity": 0.4094488188976378
        },
        {
          "duration": 0.027777750000000268,
          "durationTicks": 8,
          "midi": 52,
          "name": "E3",
          "ticks": 2688,
          "time": 9.333324,
          "velocity": 0.4094488188976378
        },
        {
          "duration": 0.027777750000000268,
          "durationTicks": 8,
          "midi": 52,
          "name": "E3",
          "ticks": 2736,
          "time": 9.4999905,
          "velocity": 0.4094488188976378
        },
        {
          "duration": 0.027777750000000268,
          "durationTicks": 8,
          "midi": 46,
          "name": "A#2",
          "ticks": 2736,
          "time": 9.4999905,
          "velocity": 0.4094488188976378
        },
        {
          "duration": 0.027777750000000268,
          "durationTicks": 8,
          "midi": 57,
          "name": "A3",
          "ticks": 2736,
          "time": 9.4999905,
          "velocity": 0.4094488188976378
        },
        {
          "duration": 0.027777750000000268,
          "durationTicks": 8,
          "midi": 62,
          "name": "D4",
          "ticks": 2736,
          "time": 9.4999905,
          "velocity": 0.4094488188976378
        },
        {
          "duration": 0.02777774999999849,
          "durationTicks": 8,
          "midi": 62,
          "name": "D4",
          "ticks": 2832,
          "time": 9.8333235,
          "velocity": 0.4094488188976378
        },
        {
          "duration": 0.02777774999999849,
          "durationTicks": 8,
          "midi": 57,
          "name": "A3",
          "ticks": 2832,
          "time": 9.8333235,
          "velocity": 0.4094488188976378
        },
        {
          "duration": 0.02777774999999849,
          "durationTicks": 8,
          "midi": 46,
          "name": "A#2",
          "ticks": 2832,
          "time": 9.8333235,
          "velocity": 0.4094488188976378
        },
        {
          "duration": 0.02777774999999849,
          "durationTicks": 8,
          "midi": 52,
          "name": "E3",
          "ticks": 2832,
          "time": 9.8333235,
          "velocity": 0.4094488188976378
        },
        {
          "duration": 0.02777774999999849,
          "durationTicks": 8,
          "midi": 52,
          "name": "E3",
          "ticks": 2928,
          "time": 10.1666565,
          "velocity": 0.4094488188976378
        },
        {
          "duration": 0.02777774999999849,
          "durationTicks": 8,
          "midi": 46,
          "name": "A#2",
          "ticks": 2928,
          "time": 10.1666565,
          "velocity": 0.4094488188976378
        },
        {
          "duration": 0.02777774999999849,
          "durationTicks": 8,
          "midi": 57,
          "name": "A3",
          "ticks": 2928,
          "time": 10.1666565,
          "velocity": 0.4094488188976378
        },
        {
          "duration": 0.02777774999999849,
          "durationTicks": 8,
          "midi": 62,
          "name": "D4",
          "ticks": 2928,
          "time": 10.1666565,
          "velocity": 0.4094488188976378
        },
        {
          "duration": 0.027777750000000268,
          "durationTicks": 8,
          "midi": 62,
          "name": "D4",
          "ticks": 3024,
          "time": 10.4999895,
          "velocity": 0.4094488188976378
        },
        {
          "duration": 0.027777750000000268,
          "durationTicks": 8,
          "midi": 57,
          "name": "A3",
          "ticks": 3024,
          "time": 10.4999895,
          "velocity": 0.4094488188976378
        },
        {
          "duration": 0.027777750000000268,
          "durationTicks": 8,
          "midi": 46,
          "name": "A#2",
          "ticks": 3024,
          "time": 10.4999895,
          "velocity": 0.4094488188976378
        },
        {
          "duration": 0.027777750000000268,
          "durationTicks": 8,
          "midi": 52,
          "name": "E3",
          "ticks": 3024,
          "time": 10.4999895,
          "velocity": 0.4094488188976378
        },
        {
          "duration": 0.05555549999999876,
          "durationTicks": 16,
          "midi": 45,
          "name": "A2",
          "ticks": 3120,
          "time": 10.8333225,
          "velocity": 0.31496062992125984
        },
        {
          "duration": 0.05555549999999876,
          "durationTicks": 16,
          "midi": 52,
          "name": "E3",
          "ticks": 3120,
          "time": 10.8333225,
          "velocity": 0.31496062992125984
        },
        {
          "duration": 0.05555549999999876,
          "durationTicks": 16,
          "midi": 57,
          "name": "A3",
          "ticks": 3120,
          "time": 10.8333225,
          "velocity": 0.31496062992125984
        },
        {
          "duration": 0.05555549999999876,
          "durationTicks": 16,
          "midi": 61,
          "name": "C#4",
          "ticks": 3120,
          "time": 10.8333225,
          "velocity": 0.31496062992125984
        },
        {
          "duration": 0.0833332500000008,
          "durationTicks": 24,
          "midi": 45,
          "name": "A2",
          "ticks": 3168,
          "time": 10.999989,
          "velocity": 0.33858267716535434
        },
        {
          "duration": 0.0833332500000008,
          "durationTicks": 24,
          "midi": 52,
          "name": "E3",
          "ticks": 3168,
          "time": 10.999989,
          "velocity": 0.33858267716535434
        },
        {
          "duration": 0.0833332500000008,
          "durationTicks": 24,
          "midi": 57,
          "name": "A3",
          "ticks": 3168,
          "time": 10.999989,
          "velocity": 0.33858267716535434
        },
        {
          "duration": 0.0833332500000008,
          "durationTicks": 24,
          "midi": 61,
          "name": "C#4",
          "ticks": 3168,
          "time": 10.999989,
          "velocity": 0.33858267716535434
        },
        {
          "duration": 0.0833332500000008,
          "durationTicks": 24,
          "midi": 61,
          "name": "C#4",
          "ticks": 3216,
          "time": 11.1666555,
          "velocity": 0.36220472440944884
        },
        {
          "duration": 0.0833332500000008,
          "durationTicks": 24,
          "midi": 57,
          "name": "A3",
          "ticks": 3216,
          "time": 11.1666555,
          "velocity": 0.36220472440944884
        },
        {
          "duration": 0.0833332500000008,
          "durationTicks": 24,
          "midi": 52,
          "name": "E3",
          "ticks": 3216,
          "time": 11.1666555,
          "velocity": 0.36220472440944884
        },
        {
          "duration": 0.0833332500000008,
          "durationTicks": 24,
          "midi": 45,
          "name": "A2",
          "ticks": 3216,
          "time": 11.1666555,
          "velocity": 0.36220472440944884
        },
        {
          "duration": 0.11111100000000107,
          "durationTicks": 32,
          "midi": 61,
          "name": "C#4",
          "ticks": 3264,
          "time": 11.333321999999999,
          "velocity": 0.3858267716535433
        },
        {
          "duration": 0.11111100000000107,
          "durationTicks": 32,
          "midi": 57,
          "name": "A3",
          "ticks": 3264,
          "time": 11.333321999999999,
          "velocity": 0.3858267716535433
        },
        {
          "duration": 0.11111100000000107,
          "durationTicks": 32,
          "midi": 52,
          "name": "E3",
          "ticks": 3264,
          "time": 11.333321999999999,
          "velocity": 0.3858267716535433
        },
        {
          "duration": 0.11111100000000107,
          "durationTicks": 32,
          "midi": 45,
          "name": "A2",
          "ticks": 3264,
          "time": 11.333321999999999,
          "velocity": 0.3858267716535433
        },
        {
          "duration": 0.11111100000000107,
          "durationTicks": 32,
          "midi": 45,
          "name": "A2",
          "ticks": 3312,
          "time": 11.499988499999999,
          "velocity": 0.4094488188976378
        },
        {
          "duration": 0.11111100000000107,
          "durationTicks": 32,
          "midi": 52,
          "name": "E3",
          "ticks": 3312,
          "time": 11.499988499999999,
          "velocity": 0.4094488188976378
        },
        {
          "duration": 0.11111100000000107,
          "durationTicks": 32,
          "midi": 57,
          "name": "A3",
          "ticks": 3312,
          "time": 11.499988499999999,
          "velocity": 0.4094488188976378
        },
        {
          "duration": 0.11111100000000107,
          "durationTicks": 32,
          "midi": 61,
          "name": "C#4",
          "ticks": 3312,
          "time": 11.499988499999999,
          "velocity": 0.4094488188976378
        },
        {
          "duration": 0.13888874999999778,
          "durationTicks": 40,
          "midi": 61,
          "name": "C#4",
          "ticks": 3360,
          "time": 11.666655,
          "velocity": 0.4330708661417323
        },
        {
          "duration": 0.13888874999999778,
          "durationTicks": 40,
          "midi": 57,
          "name": "A3",
          "ticks": 3360,
          "time": 11.666655,
          "velocity": 0.4330708661417323
        },
        {
          "duration": 0.13888874999999778,
          "durationTicks": 40,
          "midi": 52,
          "name": "E3",
          "ticks": 3360,
          "time": 11.666655,
          "velocity": 0.4330708661417323
        },
        {
          "duration": 0.13888874999999778,
          "durationTicks": 40,
          "midi": 45,
          "name": "A2",
          "ticks": 3360,
          "time": 11.666655,
          "velocity": 0.4330708661417323
        },
        {
          "duration": 0.13888874999999778,
          "durationTicks": 40,
          "midi": 45,
          "name": "A2",
          "ticks": 3408,
          "time": 11.8333215,
          "velocity": 0.4566929133858268
        },
        {
          "duration": 0.13888874999999778,
          "durationTicks": 40,
          "midi": 52,
          "name": "E3",
          "ticks": 3408,
          "time": 11.8333215,
          "velocity": 0.4566929133858268
        },
        {
          "duration": 0.13888874999999778,
          "durationTicks": 40,
          "midi": 57,
          "name": "A3",
          "ticks": 3408,
          "time": 11.8333215,
          "velocity": 0.4566929133858268
        },
        {
          "duration": 0.13888874999999778,
          "durationTicks": 40,
          "midi": 61,
          "name": "C#4",
          "ticks": 3408,
          "time": 11.8333215,
          "velocity": 0.4566929133858268
        },
        {
          "duration": 0.16666649999999983,
          "durationTicks": 48,
          "midi": 61,
          "name": "C#4",
          "ticks": 3456,
          "time": 11.999988,
          "velocity": 0.48031496062992124
        },
        {
          "duration": 0.16666649999999983,
          "durationTicks": 48,
          "midi": 57,
          "name": "A3",
          "ticks": 3456,
          "time": 11.999988,
          "velocity": 0.48031496062992124
        },
        {
          "duration": 0.16666649999999983,
          "durationTicks": 48,
          "midi": 52,
          "name": "E3",
          "ticks": 3456,
          "time": 11.999988,
          "velocity": 0.48031496062992124
        },
        {
          "duration": 0.16666649999999983,
          "durationTicks": 48,
          "midi": 45,
          "name": "A2",
          "ticks": 3456,
          "time": 11.999988,
          "velocity": 0.48031496062992124
        },
        {
          "duration": 0.16666649999999983,
          "durationTicks": 48,
          "midi": 45,
          "name": "A2",
          "ticks": 3504,
          "time": 12.1666545,
          "velocity": 0.5039370078740157
        },
        {
          "duration": 0.16666649999999983,
          "durationTicks": 48,
          "midi": 52,
          "name": "E3",
          "ticks": 3504,
          "time": 12.1666545,
          "velocity": 0.5039370078740157
        },
        {
          "duration": 0.16666649999999983,
          "durationTicks": 48,
          "midi": 57,
          "name": "A3",
          "ticks": 3504,
          "time": 12.1666545,
          "velocity": 0.5039370078740157
        },
        {
          "duration": 0.16666649999999983,
          "durationTicks": 48,
          "midi": 61,
          "name": "C#4",
          "ticks": 3504,
          "time": 12.1666545,
          "velocity": 0.5039370078740157
        },
        {
          "duration": 0.16666649999999983,
          "durationTicks": 48,
          "midi": 45,
          "name": "A2",
          "ticks": 3552,
          "time": 12.333321,
          "velocity": 0.5275590551181102
        },
        {
          "duration": 0.16666649999999983,
          "durationTicks": 48,
          "midi": 52,
          "name": "E3",
          "ticks": 3552,
          "time": 12.333321,
          "velocity": 0.5275590551181102
        },
        {
          "duration": 0.16666649999999983,
          "durationTicks": 48,
          "midi": 57,
          "name": "A3",
          "ticks": 3552,
          "time": 12.333321,
          "velocity": 0.5275590551181102
        },
        {
          "duration": 0.16666649999999983,
          "durationTicks": 48,
          "midi": 61,
          "name": "C#4",
          "ticks": 3552,
          "time": 12.333321,
          "velocity": 0.5275590551181102
        },
        {
          "duration": 0.16666649999999983,
          "durationTicks": 48,
          "midi": 45,
          "name": "A2",
          "ticks": 3600,
          "time": 12.4999875,
          "velocity": 0.5511811023622047
        },
        {
          "duration": 0.16666649999999983,
          "durationTicks": 48,
          "midi": 52,
          "name": "E3",
          "ticks": 3600,
          "time": 12.4999875,
          "velocity": 0.5511811023622047
        },
        {
          "duration": 0.16666649999999983,
          "durationTicks": 48,
          "midi": 57,
          "name": "A3",
          "ticks": 3600,
          "time": 12.4999875,
          "velocity": 0.5511811023622047
        },
        {
          "duration": 0.16666649999999983,
          "durationTicks": 48,
          "midi": 61,
          "name": "C#4",
          "ticks": 3600,
          "time": 12.4999875,
          "velocity": 0.5511811023622047
        },
        {
          "duration": 0.16666649999999983,
          "durationTicks": 48,
          "midi": 61,
          "name": "C#4",
          "ticks": 3648,
          "time": 12.666654,
          "velocity": 0.5748031496062992
        },
        {
          "duration": 0.16666649999999983,
          "durationTicks": 48,
          "midi": 57,
          "name": "A3",
          "ticks": 3648,
          "time": 12.666654,
          "velocity": 0.5748031496062992
        },
        {
          "duration": 0.16666649999999983,
          "durationTicks": 48,
          "midi": 52,
          "name": "E3",
          "ticks": 3648,
          "time": 12.666654,
          "velocity": 0.5748031496062992
        },
        {
          "duration": 0.16666649999999983,
          "durationTicks": 48,
          "midi": 45,
          "name": "A2",
          "ticks": 3648,
          "time": 12.666654,
          "velocity": 0.5748031496062992
        },
        {
          "duration": 0.16666649999999983,
          "durationTicks": 48,
          "midi": 45,
          "name": "A2",
          "ticks": 3696,
          "time": 12.8333205,
          "velocity": 0.5984251968503937
        },
        {
          "duration": 0.16666649999999983,
          "durationTicks": 48,
          "midi": 52,
          "name": "E3",
          "ticks": 3696,
          "time": 12.8333205,
          "velocity": 0.5984251968503937
        },
        {
          "duration": 0.16666649999999983,
          "durationTicks": 48,
          "midi": 57,
          "name": "A3",
          "ticks": 3696,
          "time": 12.8333205,
          "velocity": 0.5984251968503937
        },
        {
          "duration": 0.16666649999999983,
          "durationTicks": 48,
          "midi": 61,
          "name": "C#4",
          "ticks": 3696,
          "time": 12.8333205,
          "velocity": 0.5984251968503937
        },
        {
          "duration": 0.04166662499999951,
          "durationTicks": 12,
          "midi": 52,
          "name": "E3",
          "ticks": 4608,
          "time": 15.999984,
          "velocity": 0.4015748031496063
        },
        {
          "duration": 0.04166662499999951,
          "durationTicks": 12,
          "midi": 68,
          "name": "G#4",
          "ticks": 4608,
          "time": 15.999984,
          "velocity": 0.4015748031496063
        },
        {
          "duration": 0.04166662499999951,
          "durationTicks": 12,
          "midi": 64,
          "name": "E4",
          "ticks": 4608,
          "time": 15.999984,
          "velocity": 0.4015748031496063
        },
        {
          "duration": 0.04166662499999951,
          "durationTicks": 12,
          "midi": 61,
          "name": "C#4",
          "ticks": 4608,
          "time": 15.999984,
          "velocity": 0.4015748031496063
        },
        {
          "duration": 0.04166662499999951,
          "durationTicks": 12,
          "midi": 57,
          "name": "A3",
          "ticks": 4608,
          "time": 15.999984,
          "velocity": 0.4015748031496063
        },
        {
          "duration": 0.04166662500000129,
          "durationTicks": 12,
          "midi": 64,
          "name": "E4",
          "ticks": 4656,
          "time": 16.1666505,
          "velocity": 0.41732283464566927
        },
        {
          "duration": 0.04166662500000129,
          "durationTicks": 12,
          "midi": 68,
          "name": "G#4",
          "ticks": 4656,
          "time": 16.1666505,
          "velocity": 0.41732283464566927
        },
        {
          "duration": 0.04166662500000129,
          "durationTicks": 12,
          "midi": 52,
          "name": "E3",
          "ticks": 4656,
          "time": 16.1666505,
          "velocity": 0.41732283464566927
        },
        {
          "duration": 0.04166662500000129,
          "durationTicks": 12,
          "midi": 57,
          "name": "A3",
          "ticks": 4656,
          "time": 16.1666505,
          "velocity": 0.41732283464566927
        },
        {
          "duration": 0.04166662500000129,
          "durationTicks": 12,
          "midi": 61,
          "name": "C#4",
          "ticks": 4656,
          "time": 16.1666505,
          "velocity": 0.41732283464566927
        },
        {
          "duration": 0.08333324999999903,
          "durationTicks": 24,
          "midi": 57,
          "name": "A3",
          "ticks": 4704,
          "time": 16.333317,
          "velocity": 0.4251968503937008
        },
        {
          "duration": 0.08333324999999903,
          "durationTicks": 24,
          "midi": 61,
          "name": "C#4",
          "ticks": 4704,
          "time": 16.333317,
          "velocity": 0.4251968503937008
        },
        {
          "duration": 0.08333324999999903,
          "durationTicks": 24,
          "midi": 64,
          "name": "E4",
          "ticks": 4704,
          "time": 16.333317,
          "velocity": 0.4251968503937008
        },
        {
          "duration": 0.08333324999999903,
          "durationTicks": 24,
          "midi": 68,
          "name": "G#4",
          "ticks": 4704,
          "time": 16.333317,
          "velocity": 0.4251968503937008
        },
        {
          "duration": 0.08333324999999903,
          "durationTicks": 24,
          "midi": 52,
          "name": "E3",
          "ticks": 4704,
          "time": 16.333317,
          "velocity": 0.4251968503937008
        },
        {
          "duration": 0.08333324999999903,
          "durationTicks": 24,
          "midi": 64,
          "name": "E4",
          "ticks": 4752,
          "time": 16.4999835,
          "velocity": 0.4409448818897638
        },
        {
          "duration": 0.08333324999999903,
          "durationTicks": 24,
          "midi": 68,
          "name": "G#4",
          "ticks": 4752,
          "time": 16.4999835,
          "velocity": 0.4409448818897638
        },
        {
          "duration": 0.08333324999999903,
          "durationTicks": 24,
          "midi": 52,
          "name": "E3",
          "ticks": 4752,
          "time": 16.4999835,
          "velocity": 0.4409448818897638
        },
        {
          "duration": 0.08333324999999903,
          "durationTicks": 24,
          "midi": 57,
          "name": "A3",
          "ticks": 4752,
          "time": 16.4999835,
          "velocity": 0.4409448818897638
        },
        {
          "duration": 0.08333324999999903,
          "durationTicks": 24,
          "midi": 61,
          "name": "C#4",
          "ticks": 4752,
          "time": 16.4999835,
          "velocity": 0.4409448818897638
        },
        {
          "duration": 0.12499987500000032,
          "durationTicks": 36,
          "midi": 57,
          "name": "A3",
          "ticks": 4800,
          "time": 16.66665,
          "velocity": 0.4566929133858268
        },
        {
          "duration": 0.12499987500000032,
          "durationTicks": 36,
          "midi": 61,
          "name": "C#4",
          "ticks": 4800,
          "time": 16.66665,
          "velocity": 0.4566929133858268
        },
        {
          "duration": 0.12499987500000032,
          "durationTicks": 36,
          "midi": 64,
          "name": "E4",
          "ticks": 4800,
          "time": 16.66665,
          "velocity": 0.4566929133858268
        },
        {
          "duration": 0.12499987500000032,
          "durationTicks": 36,
          "midi": 68,
          "name": "G#4",
          "ticks": 4800,
          "time": 16.66665,
          "velocity": 0.4566929133858268
        },
        {
          "duration": 0.12499987500000032,
          "durationTicks": 36,
          "midi": 52,
          "name": "E3",
          "ticks": 4800,
          "time": 16.66665,
          "velocity": 0.4566929133858268
        },
        {
          "duration": 0.12499987500000032,
          "durationTicks": 36,
          "midi": 61,
          "name": "C#4",
          "ticks": 4848,
          "time": 16.8333165,
          "velocity": 0.47244094488188976
        },
        {
          "duration": 0.12499987500000032,
          "durationTicks": 36,
          "midi": 57,
          "name": "A3",
          "ticks": 4848,
          "time": 16.8333165,
          "velocity": 0.47244094488188976
        },
        {
          "duration": 0.12499987500000032,
          "durationTicks": 36,
          "midi": 52,
          "name": "E3",
          "ticks": 4848,
          "time": 16.8333165,
          "velocity": 0.47244094488188976
        },
        {
          "duration": 0.12499987500000032,
          "durationTicks": 36,
          "midi": 68,
          "name": "G#4",
          "ticks": 4848,
          "time": 16.8333165,
          "velocity": 0.47244094488188976
        },
        {
          "duration": 0.12499987500000032,
          "durationTicks": 36,
          "midi": 64,
          "name": "E4",
          "ticks": 4848,
          "time": 16.8333165,
          "velocity": 0.47244094488188976
        },
        {
          "duration": 0.12499987500000032,
          "durationTicks": 36,
          "midi": 52,
          "name": "E3",
          "ticks": 4896,
          "time": 16.999983,
          "velocity": 0.48031496062992124
        },
        {
          "duration": 0.12499987500000032,
          "durationTicks": 36,
          "midi": 68,
          "name": "G#4",
          "ticks": 4896,
          "time": 16.999983,
          "velocity": 0.48031496062992124
        },
        {
          "duration": 0.12499987500000032,
          "durationTicks": 36,
          "midi": 64,
          "name": "E4",
          "ticks": 4896,
          "time": 16.999983,
          "velocity": 0.48031496062992124
        },
        {
          "duration": 0.12499987500000032,
          "durationTicks": 36,
          "midi": 61,
          "name": "C#4",
          "ticks": 4896,
          "time": 16.999983,
          "velocity": 0.48031496062992124
        },
        {
          "duration": 0.12499987500000032,
          "durationTicks": 36,
          "midi": 57,
          "name": "A3",
          "ticks": 4896,
          "time": 16.999983,
          "velocity": 0.48031496062992124
        },
        {
          "duration": 0.12499987500000032,
          "durationTicks": 36,
          "midi": 61,
          "name": "C#4",
          "ticks": 4944,
          "time": 17.1666495,
          "velocity": 0.49606299212598426
        },
        {
          "duration": 0.12499987500000032,
          "durationTicks": 36,
          "midi": 57,
          "name": "A3",
          "ticks": 4944,
          "time": 17.1666495,
          "velocity": 0.49606299212598426
        },
        {
          "duration": 0.12499987500000032,
          "durationTicks": 36,
          "midi": 52,
          "name": "E3",
          "ticks": 4944,
          "time": 17.1666495,
          "velocity": 0.49606299212598426
        },
        {
          "duration": 0.12499987500000032,
          "durationTicks": 36,
          "midi": 68,
          "name": "G#4",
          "ticks": 4944,
          "time": 17.1666495,
          "velocity": 0.49606299212598426
        },
        {
          "duration": 0.12499987500000032,
          "durationTicks": 36,
          "midi": 64,
          "name": "E4",
          "ticks": 4944,
          "time": 17.1666495,
          "velocity": 0.49606299212598426
        },
        {
          "duration": 0.16666649999999805,
          "durationTicks": 48,
          "midi": 69,
          "name": "A4",
          "ticks": 4992,
          "time": 17.333316,
          "velocity": 0.5118110236220472
        },
        {
          "duration": 0.16666649999999805,
          "durationTicks": 48,
          "midi": 61,
          "name": "C#4",
          "ticks": 4992,
          "time": 17.333316,
          "velocity": 0.5118110236220472
        },
        {
          "duration": 0.16666649999999805,
          "durationTicks": 48,
          "midi": 64,
          "name": "E4",
          "ticks": 4992,
          "time": 17.333316,
          "velocity": 0.5118110236220472
        },
        {
          "duration": 0.16666649999999805,
          "durationTicks": 48,
          "midi": 57,
          "name": "A3",
          "ticks": 4992,
          "time": 17.333316,
          "velocity": 0.5118110236220472
        },
        {
          "duration": 0.1666665000000016,
          "durationTicks": 48,
          "midi": 61,
          "name": "C#4",
          "ticks": 5040,
          "time": 17.499982499999998,
          "velocity": 0.5275590551181102
        },
        {
          "duration": 0.1666665000000016,
          "durationTicks": 48,
          "midi": 64,
          "name": "E4",
          "ticks": 5040,
          "time": 17.499982499999998,
          "velocity": 0.5275590551181102
        },
        {
          "duration": 0.1666665000000016,
          "durationTicks": 48,
          "midi": 57,
          "name": "A3",
          "ticks": 5040,
          "time": 17.499982499999998,
          "velocity": 0.5275590551181102
        },
        {
          "duration": 0.1666665000000016,
          "durationTicks": 48,
          "midi": 69,
          "name": "A4",
          "ticks": 5040,
          "time": 17.499982499999998,
          "velocity": 0.5275590551181102
        },
        {
          "duration": 0.1666665000000016,
          "durationTicks": 48,
          "midi": 69,
          "name": "A4",
          "ticks": 5088,
          "time": 17.666649,
          "velocity": 0.5354330708661418
        },
        {
          "duration": 0.1666665000000016,
          "durationTicks": 48,
          "midi": 61,
          "name": "C#4",
          "ticks": 5088,
          "time": 17.666649,
          "velocity": 0.5354330708661418
        },
        {
          "duration": 0.1666665000000016,
          "durationTicks": 48,
          "midi": 64,
          "name": "E4",
          "ticks": 5088,
          "time": 17.666649,
          "velocity": 0.5354330708661418
        },
        {
          "duration": 0.1666665000000016,
          "durationTicks": 48,
          "midi": 57,
          "name": "A3",
          "ticks": 5088,
          "time": 17.666649,
          "velocity": 0.5354330708661418
        },
        {
          "duration": 0.16666649999999805,
          "durationTicks": 48,
          "midi": 61,
          "name": "C#4",
          "ticks": 5136,
          "time": 17.8333155,
          "velocity": 0.5511811023622047
        },
        {
          "duration": 0.16666649999999805,
          "durationTicks": 48,
          "midi": 64,
          "name": "E4",
          "ticks": 5136,
          "time": 17.8333155,
          "velocity": 0.5511811023622047
        },
        {
          "duration": 0.16666649999999805,
          "durationTicks": 48,
          "midi": 57,
          "name": "A3",
          "ticks": 5136,
          "time": 17.8333155,
          "velocity": 0.5511811023622047
        },
        {
          "duration": 0.16666649999999805,
          "durationTicks": 48,
          "midi": 69,
          "name": "A4",
          "ticks": 5136,
          "time": 17.8333155,
          "velocity": 0.5511811023622047
        },
        {
          "duration": 0.1666665000000016,
          "durationTicks": 48,
          "midi": 69,
          "name": "A4",
          "ticks": 5184,
          "time": 17.999982,
          "velocity": 0.5669291338582677
        },
        {
          "duration": 0.1666665000000016,
          "durationTicks": 48,
          "midi": 61,
          "name": "C#4",
          "ticks": 5184,
          "time": 17.999982,
          "velocity": 0.5669291338582677
        },
        {
          "duration": 0.1666665000000016,
          "durationTicks": 48,
          "midi": 64,
          "name": "E4",
          "ticks": 5184,
          "time": 17.999982,
          "velocity": 0.5669291338582677
        },
        {
          "duration": 0.1666665000000016,
          "durationTicks": 48,
          "midi": 57,
          "name": "A3",
          "ticks": 5184,
          "time": 17.999982,
          "velocity": 0.5669291338582677
        },
        {
          "duration": 0.16666649999999805,
          "durationTicks": 48,
          "midi": 61,
          "name": "C#4",
          "ticks": 5232,
          "time": 18.1666485,
          "velocity": 0.5826771653543307
        },
        {
          "duration": 0.16666649999999805,
          "durationTicks": 48,
          "midi": 64,
          "name": "E4",
          "ticks": 5232,
          "time": 18.1666485,
          "velocity": 0.5826771653543307
        },
        {
          "duration": 0.16666649999999805,
          "durationTicks": 48,
          "midi": 57,
          "name": "A3",
          "ticks": 5232,
          "time": 18.1666485,
          "velocity": 0.5826771653543307
        },
        {
          "duration": 0.16666649999999805,
          "durationTicks": 48,
          "midi": 69,
          "name": "A4",
          "ticks": 5232,
          "time": 18.1666485,
          "velocity": 0.5826771653543307
        },
        {
          "duration": 0.1666665000000016,
          "durationTicks": 48,
          "midi": 57,
          "name": "A3",
          "ticks": 5280,
          "time": 18.333315,
          "velocity": 0.5905511811023622
        },
        {
          "duration": 0.1666665000000016,
          "durationTicks": 48,
          "midi": 64,
          "name": "E4",
          "ticks": 5280,
          "time": 18.333315,
          "velocity": 0.5905511811023622
        },
        {
          "duration": 0.1666665000000016,
          "durationTicks": 48,
          "midi": 61,
          "name": "C#4",
          "ticks": 5280,
          "time": 18.333315,
          "velocity": 0.5905511811023622
        },
        {
          "duration": 0.1666665000000016,
          "durationTicks": 48,
          "midi": 69,
          "name": "A4",
          "ticks": 5280,
          "time": 18.333315,
          "velocity": 0.5905511811023622
        },
        {
          "duration": 0.16666649999999805,
          "durationTicks": 48,
          "midi": 69,
          "name": "A4",
          "ticks": 5328,
          "time": 18.4999815,
          "velocity": 0.6062992125984252
        },
        {
          "duration": 0.16666649999999805,
          "durationTicks": 48,
          "midi": 57,
          "name": "A3",
          "ticks": 5328,
          "time": 18.4999815,
          "velocity": 0.6062992125984252
        },
        {
          "duration": 0.16666649999999805,
          "durationTicks": 48,
          "midi": 64,
          "name": "E4",
          "ticks": 5328,
          "time": 18.4999815,
          "velocity": 0.6062992125984252
        },
        {
          "duration": 0.16666649999999805,
          "durationTicks": 48,
          "midi": 61,
          "name": "C#4",
          "ticks": 5328,
          "time": 18.4999815,
          "velocity": 0.6062992125984252
        },
        {
          "duration": 0.04166662500000129,
          "durationTicks": 12,
          "midi": 50,
          "name": "D3",
          "ticks": 6144,
          "time": 21.333312,
          "velocity": 0.5039370078740157
        },
        {
          "duration": 0.04166662500000129,
          "durationTicks": 12,
          "midi": 54,
          "name": "F#3",
          "ticks": 6144,
          "time": 21.333312,
          "velocity": 0.5039370078740157
        },
        {
          "duration": 0.04166662500000129,
          "durationTicks": 12,
          "midi": 64,
          "name": "E4",
          "ticks": 6144,
          "time": 21.333312,
          "velocity": 0.5039370078740157
        },
        {
          "duration": 0.04166662500000129,
          "durationTicks": 12,
          "midi": 57,
          "name": "A3",
          "ticks": 6144,
          "time": 21.333312,
          "velocity": 0.5039370078740157
        },
        {
          "duration": 0.04166662500000129,
          "durationTicks": 12,
          "midi": 61,
          "name": "C#4",
          "ticks": 6144,
          "time": 21.333312,
          "velocity": 0.5039370078740157
        },
        {
          "duration": 0.04166662499999774,
          "durationTicks": 12,
          "midi": 64,
          "name": "E4",
          "ticks": 6192,
          "time": 21.4999785,
          "velocity": 0.5196850393700787
        },
        {
          "duration": 0.04166662499999774,
          "durationTicks": 12,
          "midi": 57,
          "name": "A3",
          "ticks": 6192,
          "time": 21.4999785,
          "velocity": 0.5196850393700787
        },
        {
          "duration": 0.04166662499999774,
          "durationTicks": 12,
          "midi": 61,
          "name": "C#4",
          "ticks": 6192,
          "time": 21.4999785,
          "velocity": 0.5196850393700787
        },
        {
          "duration": 0.04166662499999774,
          "durationTicks": 12,
          "midi": 54,
          "name": "F#3",
          "ticks": 6192,
          "time": 21.4999785,
          "velocity": 0.5196850393700787
        },
        {
          "duration": 0.04166662499999774,
          "durationTicks": 12,
          "midi": 50,
          "name": "D3",
          "ticks": 6192,
          "time": 21.4999785,
          "velocity": 0.5196850393700787
        },
        {
          "duration": 0.08333324999999903,
          "durationTicks": 24,
          "midi": 64,
          "name": "E4",
          "ticks": 6240,
          "time": 21.666645,
          "velocity": 0.5275590551181102
        },
        {
          "duration": 0.08333324999999903,
          "durationTicks": 24,
          "midi": 57,
          "name": "A3",
          "ticks": 6240,
          "time": 21.666645,
          "velocity": 0.5275590551181102
        },
        {
          "duration": 0.08333324999999903,
          "durationTicks": 24,
          "midi": 61,
          "name": "C#4",
          "ticks": 6240,
          "time": 21.666645,
          "velocity": 0.5275590551181102
        },
        {
          "duration": 0.08333324999999903,
          "durationTicks": 24,
          "midi": 54,
          "name": "F#3",
          "ticks": 6240,
          "time": 21.666645,
          "velocity": 0.5275590551181102
        },
        {
          "duration": 0.08333324999999903,
          "durationTicks": 24,
          "midi": 50,
          "name": "D3",
          "ticks": 6240,
          "time": 21.666645,
          "velocity": 0.5275590551181102
        },
        {
          "duration": 0.08333324999999903,
          "durationTicks": 24,
          "midi": 61,
          "name": "C#4",
          "ticks": 6288,
          "time": 21.8333115,
          "velocity": 0.5433070866141733
        },
        {
          "duration": 0.08333324999999903,
          "durationTicks": 24,
          "midi": 57,
          "name": "A3",
          "ticks": 6288,
          "time": 21.8333115,
          "velocity": 0.5433070866141733
        },
        {
          "duration": 0.08333324999999903,
          "durationTicks": 24,
          "midi": 64,
          "name": "E4",
          "ticks": 6288,
          "time": 21.8333115,
          "velocity": 0.5433070866141733
        },
        {
          "duration": 0.08333324999999903,
          "durationTicks": 24,
          "midi": 54,
          "name": "F#3",
          "ticks": 6288,
          "time": 21.8333115,
          "velocity": 0.5433070866141733
        },
        {
          "duration": 0.08333324999999903,
          "durationTicks": 24,
          "midi": 50,
          "name": "D3",
          "ticks": 6288,
          "time": 21.8333115,
          "velocity": 0.5433070866141733
        },
        {
          "duration": 0.12499987500000032,
          "durationTicks": 36,
          "midi": 50,
          "name": "D3",
          "ticks": 6336,
          "time": 21.999978,
          "velocity": 0.5511811023622047
        },
        {
          "duration": 0.12499987500000032,
          "durationTicks": 36,
          "midi": 54,
          "name": "F#3",
          "ticks": 6336,
          "time": 21.999978,
          "velocity": 0.5511811023622047
        },
        {
          "duration": 0.12499987500000032,
          "durationTicks": 36,
          "midi": 61,
          "name": "C#4",
          "ticks": 6336,
          "time": 21.999978,
          "velocity": 0.5511811023622047
        },
        {
          "duration": 0.12499987500000032,
          "durationTicks": 36,
          "midi": 57,
          "name": "A3",
          "ticks": 6336,
          "time": 21.999978,
          "velocity": 0.5511811023622047
        },
        {
          "duration": 0.12499987500000032,
          "durationTicks": 36,
          "midi": 64,
          "name": "E4",
          "ticks": 6336,
          "time": 21.999978,
          "velocity": 0.5511811023622047
        },
        {
          "duration": 0.12499987500000032,
          "durationTicks": 36,
          "midi": 64,
          "name": "E4",
          "ticks": 6384,
          "time": 22.1666445,
          "velocity": 0.5669291338582677
        },
        {
          "duration": 0.12499987500000032,
          "durationTicks": 36,
          "midi": 57,
          "name": "A3",
          "ticks": 6384,
          "time": 22.1666445,
          "velocity": 0.5669291338582677
        },
        {
          "duration": 0.12499987500000032,
          "durationTicks": 36,
          "midi": 61,
          "name": "C#4",
          "ticks": 6384,
          "time": 22.1666445,
          "velocity": 0.5669291338582677
        },
        {
          "duration": 0.12499987500000032,
          "durationTicks": 36,
          "midi": 54,
          "name": "F#3",
          "ticks": 6384,
          "time": 22.1666445,
          "velocity": 0.5669291338582677
        },
        {
          "duration": 0.12499987500000032,
          "durationTicks": 36,
          "midi": 50,
          "name": "D3",
          "ticks": 6384,
          "time": 22.1666445,
          "velocity": 0.5669291338582677
        },
        {
          "duration": 0.12499987500000032,
          "durationTicks": 36,
          "midi": 50,
          "name": "D3",
          "ticks": 6432,
          "time": 22.333311,
          "velocity": 0.5748031496062992
        },
        {
          "duration": 0.12499987500000032,
          "durationTicks": 36,
          "midi": 54,
          "name": "F#3",
          "ticks": 6432,
          "time": 22.333311,
          "velocity": 0.5748031496062992
        },
        {
          "duration": 0.12499987500000032,
          "durationTicks": 36,
          "midi": 61,
          "name": "C#4",
          "ticks": 6432,
          "time": 22.333311,
          "velocity": 0.5748031496062992
        },
        {
          "duration": 0.12499987500000032,
          "durationTicks": 36,
          "midi": 57,
          "name": "A3",
          "ticks": 6432,
          "time": 22.333311,
          "velocity": 0.5748031496062992
        },
        {
          "duration": 0.12499987500000032,
          "durationTicks": 36,
          "midi": 64,
          "name": "E4",
          "ticks": 6432,
          "time": 22.333311,
          "velocity": 0.5748031496062992
        },
        {
          "duration": 0.12499987500000032,
          "durationTicks": 36,
          "midi": 64,
          "name": "E4",
          "ticks": 6480,
          "time": 22.4999775,
          "velocity": 0.5905511811023622
        },
        {
          "duration": 0.12499987500000032,
          "durationTicks": 36,
          "midi": 57,
          "name": "A3",
          "ticks": 6480,
          "time": 22.4999775,
          "velocity": 0.5905511811023622
        },
        {
          "duration": 0.12499987500000032,
          "durationTicks": 36,
          "midi": 61,
          "name": "C#4",
          "ticks": 6480,
          "time": 22.4999775,
          "velocity": 0.5905511811023622
        },
        {
          "duration": 0.12499987500000032,
          "durationTicks": 36,
          "midi": 54,
          "name": "F#3",
          "ticks": 6480,
          "time": 22.4999775,
          "velocity": 0.5905511811023622
        },
        {
          "duration": 0.12499987500000032,
          "durationTicks": 36,
          "midi": 50,
          "name": "D3",
          "ticks": 6480,
          "time": 22.4999775,
          "velocity": 0.5905511811023622
        },
        {
          "duration": 0.1666665000000016,
          "durationTicks": 48,
          "midi": 57,
          "name": "A3",
          "ticks": 6528,
          "time": 22.666643999999998,
          "velocity": 0.5984251968503937
        },
        {
          "duration": 0.1666665000000016,
          "durationTicks": 48,
          "midi": 59,
          "name": "B3",
          "ticks": 6528,
          "time": 22.666643999999998,
          "velocity": 0.5984251968503937
        },
        {
          "duration": 0.1666665000000016,
          "durationTicks": 48,
          "midi": 52,
          "name": "E3",
          "ticks": 6528,
          "time": 22.666643999999998,
          "velocity": 0.5984251968503937
        },
        {
          "duration": 0.1666665000000016,
          "durationTicks": 48,
          "midi": 47,
          "name": "B2",
          "ticks": 6528,
          "time": 22.666643999999998,
          "velocity": 0.5984251968503937
        },
        {
          "duration": 0.1666665000000016,
          "durationTicks": 48,
          "midi": 55,
          "name": "G3",
          "ticks": 6528,
          "time": 22.666643999999998,
          "velocity": 0.5984251968503937
        },
        {
          "duration": 0.16666649999999805,
          "durationTicks": 48,
          "midi": 55,
          "name": "G3",
          "ticks": 6576,
          "time": 22.8333105,
          "velocity": 0.6141732283464567
        },
        {
          "duration": 0.16666649999999805,
          "durationTicks": 48,
          "midi": 47,
          "name": "B2",
          "ticks": 6576,
          "time": 22.8333105,
          "velocity": 0.6141732283464567
        },
        {
          "duration": 0.16666649999999805,
          "durationTicks": 48,
          "midi": 52,
          "name": "E3",
          "ticks": 6576,
          "time": 22.8333105,
          "velocity": 0.6141732283464567
        },
        {
          "duration": 0.16666649999999805,
          "durationTicks": 48,
          "midi": 59,
          "name": "B3",
          "ticks": 6576,
          "time": 22.8333105,
          "velocity": 0.6141732283464567
        },
        {
          "duration": 0.16666649999999805,
          "durationTicks": 48,
          "midi": 57,
          "name": "A3",
          "ticks": 6576,
          "time": 22.8333105,
          "velocity": 0.6141732283464567
        },
        {
          "duration": 0.1666665000000016,
          "durationTicks": 48,
          "midi": 57,
          "name": "A3",
          "ticks": 6624,
          "time": 22.999976999999998,
          "velocity": 0.6220472440944882
        },
        {
          "duration": 0.1666665000000016,
          "durationTicks": 48,
          "midi": 59,
          "name": "B3",
          "ticks": 6624,
          "time": 22.999976999999998,
          "velocity": 0.6220472440944882
        },
        {
          "duration": 0.1666665000000016,
          "durationTicks": 48,
          "midi": 52,
          "name": "E3",
          "ticks": 6624,
          "time": 22.999976999999998,
          "velocity": 0.6220472440944882
        },
        {
          "duration": 0.1666665000000016,
          "durationTicks": 48,
          "midi": 47,
          "name": "B2",
          "ticks": 6624,
          "time": 22.999976999999998,
          "velocity": 0.6220472440944882
        },
        {
          "duration": 0.1666665000000016,
          "durationTicks": 48,
          "midi": 55,
          "name": "G3",
          "ticks": 6624,
          "time": 22.999976999999998,
          "velocity": 0.6220472440944882
        },
        {
          "duration": 0.1666665000000016,
          "durationTicks": 48,
          "midi": 57,
          "name": "A3",
          "ticks": 6672,
          "time": 23.1666435,
          "velocity": 0.6377952755905512
        },
        {
          "duration": 0.1666665000000016,
          "durationTicks": 48,
          "midi": 59,
          "name": "B3",
          "ticks": 6672,
          "time": 23.1666435,
          "velocity": 0.6377952755905512
        },
        {
          "duration": 0.1666665000000016,
          "durationTicks": 48,
          "midi": 52,
          "name": "E3",
          "ticks": 6672,
          "time": 23.1666435,
          "velocity": 0.6377952755905512
        },
        {
          "duration": 0.1666665000000016,
          "durationTicks": 48,
          "midi": 47,
          "name": "B2",
          "ticks": 6672,
          "time": 23.1666435,
          "velocity": 0.6377952755905512
        },
        {
          "duration": 0.1666665000000016,
          "durationTicks": 48,
          "midi": 55,
          "name": "G3",
          "ticks": 6672,
          "time": 23.1666435,
          "velocity": 0.6377952755905512
        },
        {
          "duration": 0.6666659999999993,
          "durationTicks": 192,
          "midi": 55,
          "name": "G3",
          "ticks": 6720,
          "time": 23.33331,
          "velocity": 0.6456692913385826
        },
        {
          "duration": 0.6666659999999993,
          "durationTicks": 192,
          "midi": 47,
          "name": "B2",
          "ticks": 6720,
          "time": 23.33331,
          "velocity": 0.6456692913385826
        },
        {
          "duration": 0.6666659999999993,
          "durationTicks": 192,
          "midi": 52,
          "name": "E3",
          "ticks": 6720,
          "time": 23.33331,
          "velocity": 0.6456692913385826
        },
        {
          "duration": 0.6666659999999993,
          "durationTicks": 192,
          "midi": 57,
          "name": "A3",
          "ticks": 6720,
          "time": 23.33331,
          "velocity": 0.6456692913385826
        },
        {
          "duration": 0.6666659999999993,
          "durationTicks": 192,
          "midi": 61,
          "name": "C#4",
          "ticks": 6720,
          "time": 23.33331,
          "velocity": 0.6929133858267716
        },
        {
          "duration": 0.04166662499999774,
          "durationTicks": 12,
          "midi": 61,
          "name": "C#4",
          "ticks": 6912,
          "time": 23.999976,
          "velocity": 0.4015748031496063
        },
        {
          "duration": 0.04166662499999774,
          "durationTicks": 12,
          "midi": 54,
          "name": "F#3",
          "ticks": 6912,
          "time": 23.999976,
          "velocity": 0.4015748031496063
        },
        {
          "duration": 0.04166662499999774,
          "durationTicks": 12,
          "midi": 64,
          "name": "E4",
          "ticks": 6912,
          "time": 23.999976,
          "velocity": 0.4015748031496063
        },
        {
          "duration": 0.04166662499999774,
          "durationTicks": 12,
          "midi": 57,
          "name": "A3",
          "ticks": 6912,
          "time": 23.999976,
          "velocity": 0.4015748031496063
        },
        {
          "duration": 0.04166662500000129,
          "durationTicks": 12,
          "midi": 61,
          "name": "C#4",
          "ticks": 6960,
          "time": 24.1666425,
          "velocity": 0.4015748031496063
        },
        {
          "duration": 0.04166662500000129,
          "durationTicks": 12,
          "midi": 57,
          "name": "A3",
          "ticks": 6960,
          "time": 24.1666425,
          "velocity": 0.4015748031496063
        },
        {
          "duration": 0.04166662500000129,
          "durationTicks": 12,
          "midi": 64,
          "name": "E4",
          "ticks": 6960,
          "time": 24.1666425,
          "velocity": 0.4015748031496063
        },
        {
          "duration": 0.04166662500000129,
          "durationTicks": 12,
          "midi": 54,
          "name": "F#3",
          "ticks": 6960,
          "time": 24.1666425,
          "velocity": 0.4015748031496063
        },
        {
          "duration": 0.04166662499999774,
          "durationTicks": 12,
          "midi": 54,
          "name": "F#3",
          "ticks": 7008,
          "time": 24.333309,
          "velocity": 0.4015748031496063
        },
        {
          "duration": 0.04166662499999774,
          "durationTicks": 12,
          "midi": 64,
          "name": "E4",
          "ticks": 7008,
          "time": 24.333309,
          "velocity": 0.4015748031496063
        },
        {
          "duration": 0.04166662499999774,
          "durationTicks": 12,
          "midi": 57,
          "name": "A3",
          "ticks": 7008,
          "time": 24.333309,
          "velocity": 0.4015748031496063
        },
        {
          "duration": 0.04166662499999774,
          "durationTicks": 12,
          "midi": 61,
          "name": "C#4",
          "ticks": 7008,
          "time": 24.333309,
          "velocity": 0.4015748031496063
        },
        {
          "duration": 0.04166662500000129,
          "durationTicks": 12,
          "midi": 61,
          "name": "C#4",
          "ticks": 7056,
          "time": 24.499975499999998,
          "velocity": 0.4094488188976378
        },
        {
          "duration": 0.04166662500000129,
          "durationTicks": 12,
          "midi": 54,
          "name": "F#3",
          "ticks": 7056,
          "time": 24.499975499999998,
          "velocity": 0.4094488188976378
        },
        {
          "duration": 0.04166662500000129,
          "durationTicks": 12,
          "midi": 64,
          "name": "E4",
          "ticks": 7056,
          "time": 24.499975499999998,
          "velocity": 0.4094488188976378
        },
        {
          "duration": 0.04166662500000129,
          "durationTicks": 12,
          "midi": 57,
          "name": "A3",
          "ticks": 7056,
          "time": 24.499975499999998,
          "velocity": 0.4094488188976378
        },
        {
          "duration": 0.04166662500000129,
          "durationTicks": 12,
          "midi": 61,
          "name": "C#4",
          "ticks": 7104,
          "time": 24.666642,
          "velocity": 0.41732283464566927
        },
        {
          "duration": 0.04166662500000129,
          "durationTicks": 12,
          "midi": 64,
          "name": "E4",
          "ticks": 7104,
          "time": 24.666642,
          "velocity": 0.41732283464566927
        },
        {
          "duration": 0.04166662500000129,
          "durationTicks": 12,
          "midi": 57,
          "name": "A3",
          "ticks": 7104,
          "time": 24.666642,
          "velocity": 0.41732283464566927
        },
        {
          "duration": 0.04166662500000129,
          "durationTicks": 12,
          "midi": 54,
          "name": "F#3",
          "ticks": 7104,
          "time": 24.666642,
          "velocity": 0.41732283464566927
        },
        {
          "duration": 0.04166662500000129,
          "durationTicks": 12,
          "midi": 61,
          "name": "C#4",
          "ticks": 7152,
          "time": 24.833308499999998,
          "velocity": 0.41732283464566927
        },
        {
          "duration": 0.04166662500000129,
          "durationTicks": 12,
          "midi": 57,
          "name": "A3",
          "ticks": 7152,
          "time": 24.833308499999998,
          "velocity": 0.41732283464566927
        },
        {
          "duration": 0.04166662500000129,
          "durationTicks": 12,
          "midi": 64,
          "name": "E4",
          "ticks": 7152,
          "time": 24.833308499999998,
          "velocity": 0.41732283464566927
        },
        {
          "duration": 0.04166662500000129,
          "durationTicks": 12,
          "midi": 54,
          "name": "F#3",
          "ticks": 7152,
          "time": 24.833308499999998,
          "velocity": 0.41732283464566927
        },
        {
          "duration": 0.04166662500000129,
          "durationTicks": 12,
          "midi": 57,
          "name": "A3",
          "ticks": 7200,
          "time": 24.999975,
          "velocity": 0.4251968503937008
        },
        {
          "duration": 0.04166662500000129,
          "durationTicks": 12,
          "midi": 64,
          "name": "E4",
          "ticks": 7200,
          "time": 24.999975,
          "velocity": 0.4251968503937008
        },
        {
          "duration": 0.04166662500000129,
          "durationTicks": 12,
          "midi": 54,
          "name": "F#3",
          "ticks": 7200,
          "time": 24.999975,
          "velocity": 0.4251968503937008
        },
        {
          "duration": 0.04166662500000129,
          "durationTicks": 12,
          "midi": 61,
          "name": "C#4",
          "ticks": 7200,
          "time": 24.999975,
          "velocity": 0.4251968503937008
        },
        {
          "duration": 0.04166662499999774,
          "durationTicks": 12,
          "midi": 61,
          "name": "C#4",
          "ticks": 7248,
          "time": 25.1666415,
          "velocity": 0.4251968503937008
        },
        {
          "duration": 0.04166662499999774,
          "durationTicks": 12,
          "midi": 54,
          "name": "F#3",
          "ticks": 7248,
          "time": 25.1666415,
          "velocity": 0.4251968503937008
        },
        {
          "duration": 0.04166662499999774,
          "durationTicks": 12,
          "midi": 64,
          "name": "E4",
          "ticks": 7248,
          "time": 25.1666415,
          "velocity": 0.4251968503937008
        },
        {
          "duration": 0.04166662499999774,
          "durationTicks": 12,
          "midi": 57,
          "name": "A3",
          "ticks": 7248,
          "time": 25.1666415,
          "velocity": 0.4251968503937008
        },
        {
          "duration": 0.04166662500000129,
          "durationTicks": 12,
          "midi": 54,
          "name": "F#3",
          "ticks": 7296,
          "time": 25.333308,
          "velocity": 0.4330708661417323
        },
        {
          "duration": 0.04166662500000129,
          "durationTicks": 12,
          "midi": 64,
          "name": "E4",
          "ticks": 7296,
          "time": 25.333308,
          "velocity": 0.4330708661417323
        },
        {
          "duration": 0.04166662500000129,
          "durationTicks": 12,
          "midi": 57,
          "name": "A3",
          "ticks": 7296,
          "time": 25.333308,
          "velocity": 0.4330708661417323
        },
        {
          "duration": 0.04166662500000129,
          "durationTicks": 12,
          "midi": 61,
          "name": "C#4",
          "ticks": 7296,
          "time": 25.333308,
          "velocity": 0.4330708661417323
        },
        {
          "duration": 0.04166662499999774,
          "durationTicks": 12,
          "midi": 57,
          "name": "A3",
          "ticks": 7344,
          "time": 25.4999745,
          "velocity": 0.4330708661417323
        },
        {
          "duration": 0.04166662499999774,
          "durationTicks": 12,
          "midi": 64,
          "name": "E4",
          "ticks": 7344,
          "time": 25.4999745,
          "velocity": 0.4330708661417323
        },
        {
          "duration": 0.04166662499999774,
          "durationTicks": 12,
          "midi": 54,
          "name": "F#3",
          "ticks": 7344,
          "time": 25.4999745,
          "velocity": 0.4330708661417323
        },
        {
          "duration": 0.04166662499999774,
          "durationTicks": 12,
          "midi": 61,
          "name": "C#4",
          "ticks": 7344,
          "time": 25.4999745,
          "velocity": 0.4330708661417323
        },
        {
          "duration": 0.04166662500000129,
          "durationTicks": 12,
          "midi": 54,
          "name": "F#3",
          "ticks": 7392,
          "time": 25.666641,
          "velocity": 0.4409448818897638
        },
        {
          "duration": 0.04166662500000129,
          "durationTicks": 12,
          "midi": 64,
          "name": "E4",
          "ticks": 7392,
          "time": 25.666641,
          "velocity": 0.4409448818897638
        },
        {
          "duration": 0.04166662500000129,
          "durationTicks": 12,
          "midi": 57,
          "name": "A3",
          "ticks": 7392,
          "time": 25.666641,
          "velocity": 0.4409448818897638
        },
        {
          "duration": 0.04166662500000129,
          "durationTicks": 12,
          "midi": 61,
          "name": "C#4",
          "ticks": 7392,
          "time": 25.666641,
          "velocity": 0.4409448818897638
        },
        {
          "duration": 0.04166662499999774,
          "durationTicks": 12,
          "midi": 61,
          "name": "C#4",
          "ticks": 7440,
          "time": 25.8333075,
          "velocity": 0.44881889763779526
        },
        {
          "duration": 0.04166662499999774,
          "durationTicks": 12,
          "midi": 57,
          "name": "A3",
          "ticks": 7440,
          "time": 25.8333075,
          "velocity": 0.44881889763779526
        },
        {
          "duration": 0.04166662499999774,
          "durationTicks": 12,
          "midi": 64,
          "name": "E4",
          "ticks": 7440,
          "time": 25.8333075,
          "velocity": 0.44881889763779526
        },
        {
          "duration": 0.04166662499999774,
          "durationTicks": 12,
          "midi": 54,
          "name": "F#3",
          "ticks": 7440,
          "time": 25.8333075,
          "velocity": 0.44881889763779526
        },
        {
          "duration": 0.04166662500000129,
          "durationTicks": 12,
          "midi": 57,
          "name": "A3",
          "ticks": 7488,
          "time": 25.999973999999998,
          "velocity": 0.44881889763779526
        },
        {
          "duration": 0.04166662500000129,
          "durationTicks": 12,
          "midi": 64,
          "name": "E4",
          "ticks": 7488,
          "time": 25.999973999999998,
          "velocity": 0.44881889763779526
        },
        {
          "duration": 0.04166662500000129,
          "durationTicks": 12,
          "midi": 54,
          "name": "F#3",
          "ticks": 7488,
          "time": 25.999973999999998,
          "velocity": 0.44881889763779526
        },
        {
          "duration": 0.04166662500000129,
          "durationTicks": 12,
          "midi": 61,
          "name": "C#4",
          "ticks": 7488,
          "time": 25.999973999999998,
          "velocity": 0.44881889763779526
        },
        {
          "duration": 0.04166662499999774,
          "durationTicks": 12,
          "midi": 61,
          "name": "C#4",
          "ticks": 7536,
          "time": 26.1666405,
          "velocity": 0.4566929133858268
        },
        {
          "duration": 0.04166662499999774,
          "durationTicks": 12,
          "midi": 57,
          "name": "A3",
          "ticks": 7536,
          "time": 26.1666405,
          "velocity": 0.4566929133858268
        },
        {
          "duration": 0.04166662499999774,
          "durationTicks": 12,
          "midi": 64,
          "name": "E4",
          "ticks": 7536,
          "time": 26.1666405,
          "velocity": 0.4566929133858268
        },
        {
          "duration": 0.04166662499999774,
          "durationTicks": 12,
          "midi": 54,
          "name": "F#3",
          "ticks": 7536,
          "time": 26.1666405,
          "velocity": 0.4566929133858268
        },
        {
          "duration": 0.04166662500000129,
          "durationTicks": 12,
          "midi": 57,
          "name": "A3",
          "ticks": 7584,
          "time": 26.333306999999998,
          "velocity": 0.4566929133858268
        },
        {
          "duration": 0.04166662500000129,
          "durationTicks": 12,
          "midi": 64,
          "name": "E4",
          "ticks": 7584,
          "time": 26.333306999999998,
          "velocity": 0.4566929133858268
        },
        {
          "duration": 0.04166662500000129,
          "durationTicks": 12,
          "midi": 54,
          "name": "F#3",
          "ticks": 7584,
          "time": 26.333306999999998,
          "velocity": 0.4566929133858268
        },
        {
          "duration": 0.04166662500000129,
          "durationTicks": 12,
          "midi": 61,
          "name": "C#4",
          "ticks": 7584,
          "time": 26.333306999999998,
          "velocity": 0.4566929133858268
        },
        {
          "duration": 0.04166662500000129,
          "durationTicks": 12,
          "midi": 61,
          "name": "C#4",
          "ticks": 7632,
          "time": 26.4999735,
          "velocity": 0.4645669291338583
        },
        {
          "duration": 0.04166662500000129,
          "durationTicks": 12,
          "midi": 57,
          "name": "A3",
          "ticks": 7632,
          "time": 26.4999735,
          "velocity": 0.4645669291338583
        },
        {
          "duration": 0.04166662500000129,
          "durationTicks": 12,
          "midi": 64,
          "name": "E4",
          "ticks": 7632,
          "time": 26.4999735,
          "velocity": 0.4645669291338583
        },
        {
          "duration": 0.04166662500000129,
          "durationTicks": 12,
          "midi": 54,
          "name": "F#3",
          "ticks": 7632,
          "time": 26.4999735,
          "velocity": 0.4645669291338583
        },
        {
          "duration": 0.08333324999999903,
          "durationTicks": 24,
          "midi": 53,
          "name": "F3",
          "ticks": 7680,
          "time": 26.66664,
          "velocity": 0.47244094488188976
        },
        {
          "duration": 0.08333324999999903,
          "durationTicks": 24,
          "midi": 57,
          "name": "A3",
          "ticks": 7680,
          "time": 26.66664,
          "velocity": 0.47244094488188976
        },
        {
          "duration": 0.08333324999999903,
          "durationTicks": 24,
          "midi": 59,
          "name": "B3",
          "ticks": 7680,
          "time": 26.66664,
          "velocity": 0.47244094488188976
        },
        {
          "duration": 0.08333324999999903,
          "durationTicks": 24,
          "midi": 64,
          "name": "E4",
          "ticks": 7680,
          "time": 26.66664,
          "velocity": 0.47244094488188976
        },
        {
          "duration": 0.08333324999999903,
          "durationTicks": 24,
          "midi": 53,
          "name": "F3",
          "ticks": 7728,
          "time": 26.8333065,
          "velocity": 0.47244094488188976
        },
        {
          "duration": 0.08333324999999903,
          "durationTicks": 24,
          "midi": 57,
          "name": "A3",
          "ticks": 7728,
          "time": 26.8333065,
          "velocity": 0.47244094488188976
        },
        {
          "duration": 0.08333324999999903,
          "durationTicks": 24,
          "midi": 59,
          "name": "B3",
          "ticks": 7728,
          "time": 26.8333065,
          "velocity": 0.47244094488188976
        },
        {
          "duration": 0.08333324999999903,
          "durationTicks": 24,
          "midi": 64,
          "name": "E4",
          "ticks": 7728,
          "time": 26.8333065,
          "velocity": 0.47244094488188976
        },
        {
          "duration": 0.08333324999999903,
          "durationTicks": 24,
          "midi": 64,
          "name": "E4",
          "ticks": 7776,
          "time": 26.999973,
          "velocity": 0.48031496062992124
        },
        {
          "duration": 0.08333324999999903,
          "durationTicks": 24,
          "midi": 59,
          "name": "B3",
          "ticks": 7776,
          "time": 26.999973,
          "velocity": 0.48031496062992124
        },
        {
          "duration": 0.08333324999999903,
          "durationTicks": 24,
          "midi": 57,
          "name": "A3",
          "ticks": 7776,
          "time": 26.999973,
          "velocity": 0.48031496062992124
        },
        {
          "duration": 0.08333324999999903,
          "durationTicks": 24,
          "midi": 53,
          "name": "F3",
          "ticks": 7776,
          "time": 26.999973,
          "velocity": 0.48031496062992124
        },
        {
          "duration": 0.08333324999999903,
          "durationTicks": 24,
          "midi": 64,
          "name": "E4",
          "ticks": 7824,
          "time": 27.1666395,
          "velocity": 0.48031496062992124
        },
        {
          "duration": 0.08333324999999903,
          "durationTicks": 24,
          "midi": 59,
          "name": "B3",
          "ticks": 7824,
          "time": 27.1666395,
          "velocity": 0.48031496062992124
        },
        {
          "duration": 0.08333324999999903,
          "durationTicks": 24,
          "midi": 57,
          "name": "A3",
          "ticks": 7824,
          "time": 27.1666395,
          "velocity": 0.48031496062992124
        },
        {
          "duration": 0.08333324999999903,
          "durationTicks": 24,
          "midi": 53,
          "name": "F3",
          "ticks": 7824,
          "time": 27.1666395,
          "velocity": 0.48031496062992124
        },
        {
          "duration": 0.08333324999999903,
          "durationTicks": 24,
          "midi": 64,
          "name": "E4",
          "ticks": 7872,
          "time": 27.333306,
          "velocity": 0.4881889763779528
        },
        {
          "duration": 0.08333324999999903,
          "durationTicks": 24,
          "midi": 59,
          "name": "B3",
          "ticks": 7872,
          "time": 27.333306,
          "velocity": 0.4881889763779528
        },
        {
          "duration": 0.08333324999999903,
          "durationTicks": 24,
          "midi": 57,
          "name": "A3",
          "ticks": 7872,
          "time": 27.333306,
          "velocity": 0.4881889763779528
        },
        {
          "duration": 0.08333324999999903,
          "durationTicks": 24,
          "midi": 53,
          "name": "F3",
          "ticks": 7872,
          "time": 27.333306,
          "velocity": 0.4881889763779528
        },
        {
          "duration": 0.08333325000000258,
          "durationTicks": 24,
          "midi": 64,
          "name": "E4",
          "ticks": 7920,
          "time": 27.4999725,
          "velocity": 0.4881889763779528
        },
        {
          "duration": 0.08333325000000258,
          "durationTicks": 24,
          "midi": 59,
          "name": "B3",
          "ticks": 7920,
          "time": 27.4999725,
          "velocity": 0.4881889763779528
        },
        {
          "duration": 0.08333325000000258,
          "durationTicks": 24,
          "midi": 57,
          "name": "A3",
          "ticks": 7920,
          "time": 27.4999725,
          "velocity": 0.4881889763779528
        },
        {
          "duration": 0.08333325000000258,
          "durationTicks": 24,
          "midi": 53,
          "name": "F3",
          "ticks": 7920,
          "time": 27.4999725,
          "velocity": 0.4881889763779528
        },
        {
          "duration": 0.08333324999999903,
          "durationTicks": 24,
          "midi": 64,
          "name": "E4",
          "ticks": 7968,
          "time": 27.666639,
          "velocity": 0.49606299212598426
        },
        {
          "duration": 0.08333324999999903,
          "durationTicks": 24,
          "midi": 59,
          "name": "B3",
          "ticks": 7968,
          "time": 27.666639,
          "velocity": 0.49606299212598426
        },
        {
          "duration": 0.08333324999999903,
          "durationTicks": 24,
          "midi": 57,
          "name": "A3",
          "ticks": 7968,
          "time": 27.666639,
          "velocity": 0.49606299212598426
        },
        {
          "duration": 0.08333324999999903,
          "durationTicks": 24,
          "midi": 53,
          "name": "F3",
          "ticks": 7968,
          "time": 27.666639,
          "velocity": 0.49606299212598426
        },
        {
          "duration": 0.08333325000000258,
          "durationTicks": 24,
          "midi": 53,
          "name": "F3",
          "ticks": 8016,
          "time": 27.833305499999998,
          "velocity": 0.5039370078740157
        },
        {
          "duration": 0.08333325000000258,
          "durationTicks": 24,
          "midi": 57,
          "name": "A3",
          "ticks": 8016,
          "time": 27.833305499999998,
          "velocity": 0.5039370078740157
        },
        {
          "duration": 0.08333325000000258,
          "durationTicks": 24,
          "midi": 59,
          "name": "B3",
          "ticks": 8016,
          "time": 27.833305499999998,
          "velocity": 0.5039370078740157
        },
        {
          "duration": 0.08333325000000258,
          "durationTicks": 24,
          "midi": 64,
          "name": "E4",
          "ticks": 8016,
          "time": 27.833305499999998,
          "velocity": 0.5039370078740157
        },
        {
          "duration": 0.08333324999999903,
          "durationTicks": 24,
          "midi": 53,
          "name": "F3",
          "ticks": 8064,
          "time": 27.999972,
          "velocity": 0.5039370078740157
        },
        {
          "duration": 0.08333324999999903,
          "durationTicks": 24,
          "midi": 57,
          "name": "A3",
          "ticks": 8064,
          "time": 27.999972,
          "velocity": 0.5039370078740157
        },
        {
          "duration": 0.08333324999999903,
          "durationTicks": 24,
          "midi": 59,
          "name": "B3",
          "ticks": 8064,
          "time": 27.999972,
          "velocity": 0.5039370078740157
        },
        {
          "duration": 0.08333324999999903,
          "durationTicks": 24,
          "midi": 64,
          "name": "E4",
          "ticks": 8064,
          "time": 27.999972,
          "velocity": 0.5039370078740157
        },
        {
          "duration": 0.08333325000000258,
          "durationTicks": 24,
          "midi": 53,
          "name": "F3",
          "ticks": 8112,
          "time": 28.166638499999998,
          "velocity": 0.5118110236220472
        },
        {
          "duration": 0.08333325000000258,
          "durationTicks": 24,
          "midi": 57,
          "name": "A3",
          "ticks": 8112,
          "time": 28.166638499999998,
          "velocity": 0.5118110236220472
        },
        {
          "duration": 0.08333325000000258,
          "durationTicks": 24,
          "midi": 59,
          "name": "B3",
          "ticks": 8112,
          "time": 28.166638499999998,
          "velocity": 0.5118110236220472
        },
        {
          "duration": 0.08333325000000258,
          "durationTicks": 24,
          "midi": 64,
          "name": "E4",
          "ticks": 8112,
          "time": 28.166638499999998,
          "velocity": 0.5118110236220472
        },
        {
          "duration": 0.08333324999999903,
          "durationTicks": 24,
          "midi": 53,
          "name": "F3",
          "ticks": 8160,
          "time": 28.333305,
          "velocity": 0.5118110236220472
        },
        {
          "duration": 0.08333324999999903,
          "durationTicks": 24,
          "midi": 57,
          "name": "A3",
          "ticks": 8160,
          "time": 28.333305,
          "velocity": 0.5118110236220472
        },
        {
          "duration": 0.08333324999999903,
          "durationTicks": 24,
          "midi": 59,
          "name": "B3",
          "ticks": 8160,
          "time": 28.333305,
          "velocity": 0.5118110236220472
        },
        {
          "duration": 0.08333324999999903,
          "durationTicks": 24,
          "midi": 64,
          "name": "E4",
          "ticks": 8160,
          "time": 28.333305,
          "velocity": 0.5118110236220472
        },
        {
          "duration": 0.08333324999999903,
          "durationTicks": 24,
          "midi": 53,
          "name": "F3",
          "ticks": 8208,
          "time": 28.4999715,
          "velocity": 0.5196850393700787
        },
        {
          "duration": 0.08333324999999903,
          "durationTicks": 24,
          "midi": 57,
          "name": "A3",
          "ticks": 8208,
          "time": 28.4999715,
          "velocity": 0.5196850393700787
        },
        {
          "duration": 0.08333324999999903,
          "durationTicks": 24,
          "midi": 59,
          "name": "B3",
          "ticks": 8208,
          "time": 28.4999715,
          "velocity": 0.5196850393700787
        },
        {
          "duration": 0.08333324999999903,
          "durationTicks": 24,
          "midi": 64,
          "name": "E4",
          "ticks": 8208,
          "time": 28.4999715,
          "velocity": 0.5196850393700787
        },
        {
          "duration": 0.08333324999999903,
          "durationTicks": 24,
          "midi": 64,
          "name": "E4",
          "ticks": 8256,
          "time": 28.666638,
          "velocity": 0.5196850393700787
        },
        {
          "duration": 0.08333324999999903,
          "durationTicks": 24,
          "midi": 59,
          "name": "B3",
          "ticks": 8256,
          "time": 28.666638,
          "velocity": 0.5196850393700787
        },
        {
          "duration": 0.08333324999999903,
          "durationTicks": 24,
          "midi": 57,
          "name": "A3",
          "ticks": 8256,
          "time": 28.666638,
          "velocity": 0.5196850393700787
        },
        {
          "duration": 0.08333324999999903,
          "durationTicks": 24,
          "midi": 53,
          "name": "F3",
          "ticks": 8256,
          "time": 28.666638,
          "velocity": 0.5196850393700787
        },
        {
          "duration": 0.08333324999999903,
          "durationTicks": 24,
          "midi": 64,
          "name": "E4",
          "ticks": 8304,
          "time": 28.8333045,
          "velocity": 0.5275590551181102
        },
        {
          "duration": 0.08333324999999903,
          "durationTicks": 24,
          "midi": 59,
          "name": "B3",
          "ticks": 8304,
          "time": 28.8333045,
          "velocity": 0.5275590551181102
        },
        {
          "duration": 0.08333324999999903,
          "durationTicks": 24,
          "midi": 57,
          "name": "A3",
          "ticks": 8304,
          "time": 28.8333045,
          "velocity": 0.5275590551181102
        },
        {
          "duration": 0.08333324999999903,
          "durationTicks": 24,
          "midi": 53,
          "name": "F3",
          "ticks": 8304,
          "time": 28.8333045,
          "velocity": 0.5275590551181102
        },
        {
          "duration": 0.08333324999999903,
          "durationTicks": 24,
          "midi": 64,
          "name": "E4",
          "ticks": 8352,
          "time": 28.999971,
          "velocity": 0.5354330708661418
        },
        {
          "duration": 0.08333324999999903,
          "durationTicks": 24,
          "midi": 59,
          "name": "B3",
          "ticks": 8352,
          "time": 28.999971,
          "velocity": 0.5354330708661418
        },
        {
          "duration": 0.08333324999999903,
          "durationTicks": 24,
          "midi": 57,
          "name": "A3",
          "ticks": 8352,
          "time": 28.999971,
          "velocity": 0.5354330708661418
        },
        {
          "duration": 0.08333324999999903,
          "durationTicks": 24,
          "midi": 53,
          "name": "F3",
          "ticks": 8352,
          "time": 28.999971,
          "velocity": 0.5354330708661418
        },
        {
          "duration": 0.08333324999999903,
          "durationTicks": 24,
          "midi": 64,
          "name": "E4",
          "ticks": 8400,
          "time": 29.1666375,
          "velocity": 0.5354330708661418
        },
        {
          "duration": 0.08333324999999903,
          "durationTicks": 24,
          "midi": 59,
          "name": "B3",
          "ticks": 8400,
          "time": 29.1666375,
          "velocity": 0.5354330708661418
        },
        {
          "duration": 0.08333324999999903,
          "durationTicks": 24,
          "midi": 57,
          "name": "A3",
          "ticks": 8400,
          "time": 29.1666375,
          "velocity": 0.5354330708661418
        },
        {
          "duration": 0.08333324999999903,
          "durationTicks": 24,
          "midi": 53,
          "name": "F3",
          "ticks": 8400,
          "time": 29.1666375,
          "velocity": 0.5354330708661418
        },
        {
          "duration": 0.08333325000000258,
          "durationTicks": 24,
          "midi": 62,
          "name": "D4",
          "ticks": 8448,
          "time": 29.333304,
          "velocity": 0.5433070866141733
        },
        {
          "duration": 0.08333325000000258,
          "durationTicks": 24,
          "midi": 53,
          "name": "F3",
          "ticks": 8448,
          "time": 29.333304,
          "velocity": 0.5433070866141733
        },
        {
          "duration": 0.08333325000000258,
          "durationTicks": 24,
          "midi": 57,
          "name": "A3",
          "ticks": 8448,
          "time": 29.333304,
          "velocity": 0.5433070866141733
        },
        {
          "duration": 0.08333325000000258,
          "durationTicks": 24,
          "midi": 58,
          "name": "A#3",
          "ticks": 8448,
          "time": 29.333304,
          "velocity": 0.5433070866141733
        },
        {
          "duration": 0.08333324999999903,
          "durationTicks": 24,
          "midi": 62,
          "name": "D4",
          "ticks": 8496,
          "time": 29.4999705,
          "velocity": 0.5433070866141733
        },
        {
          "duration": 0.08333324999999903,
          "durationTicks": 24,
          "midi": 53,
          "name": "F3",
          "ticks": 8496,
          "time": 29.4999705,
          "velocity": 0.5433070866141733
        },
        {
          "duration": 0.08333324999999903,
          "durationTicks": 24,
          "midi": 57,
          "name": "A3",
          "ticks": 8496,
          "time": 29.4999705,
          "velocity": 0.5433070866141733
        },
        {
          "duration": 0.08333324999999903,
          "durationTicks": 24,
          "midi": 58,
          "name": "A#3",
          "ticks": 8496,
          "time": 29.4999705,
          "velocity": 0.5433070866141733
        },
        {
          "duration": 0.08333325000000258,
          "durationTicks": 24,
          "midi": 58,
          "name": "A#3",
          "ticks": 8544,
          "time": 29.666636999999998,
          "velocity": 0.5511811023622047
        },
        {
          "duration": 0.08333325000000258,
          "durationTicks": 24,
          "midi": 57,
          "name": "A3",
          "ticks": 8544,
          "time": 29.666636999999998,
          "velocity": 0.5511811023622047
        },
        {
          "duration": 0.08333325000000258,
          "durationTicks": 24,
          "midi": 53,
          "name": "F3",
          "ticks": 8544,
          "time": 29.666636999999998,
          "velocity": 0.5511811023622047
        },
        {
          "duration": 0.08333325000000258,
          "durationTicks": 24,
          "midi": 62,
          "name": "D4",
          "ticks": 8544,
          "time": 29.666636999999998,
          "velocity": 0.5511811023622047
        },
        {
          "duration": 0.08333324999999903,
          "durationTicks": 24,
          "midi": 58,
          "name": "A#3",
          "ticks": 8592,
          "time": 29.8333035,
          "velocity": 0.5590551181102362
        },
        {
          "duration": 0.08333324999999903,
          "durationTicks": 24,
          "midi": 57,
          "name": "A3",
          "ticks": 8592,
          "time": 29.8333035,
          "velocity": 0.5590551181102362
        },
        {
          "duration": 0.08333324999999903,
          "durationTicks": 24,
          "midi": 53,
          "name": "F3",
          "ticks": 8592,
          "time": 29.8333035,
          "velocity": 0.5590551181102362
        },
        {
          "duration": 0.08333324999999903,
          "durationTicks": 24,
          "midi": 62,
          "name": "D4",
          "ticks": 8592,
          "time": 29.8333035,
          "velocity": 0.5590551181102362
        },
        {
          "duration": 0.08333325000000258,
          "durationTicks": 24,
          "midi": 53,
          "name": "F3",
          "ticks": 8640,
          "time": 29.999969999999998,
          "velocity": 0.5590551181102362
        },
        {
          "duration": 0.08333325000000258,
          "durationTicks": 24,
          "midi": 57,
          "name": "A3",
          "ticks": 8640,
          "time": 29.999969999999998,
          "velocity": 0.5590551181102362
        },
        {
          "duration": 0.08333325000000258,
          "durationTicks": 24,
          "midi": 58,
          "name": "A#3",
          "ticks": 8640,
          "time": 29.999969999999998,
          "velocity": 0.5590551181102362
        },
        {
          "duration": 0.08333325000000258,
          "durationTicks": 24,
          "midi": 62,
          "name": "D4",
          "ticks": 8640,
          "time": 29.999969999999998,
          "velocity": 0.5590551181102362
        },
        {
          "duration": 0.08333324999999903,
          "durationTicks": 24,
          "midi": 62,
          "name": "D4",
          "ticks": 8688,
          "time": 30.1666365,
          "velocity": 0.5669291338582677
        },
        {
          "duration": 0.08333324999999903,
          "durationTicks": 24,
          "midi": 58,
          "name": "A#3",
          "ticks": 8688,
          "time": 30.1666365,
          "velocity": 0.5669291338582677
        },
        {
          "duration": 0.08333324999999903,
          "durationTicks": 24,
          "midi": 57,
          "name": "A3",
          "ticks": 8688,
          "time": 30.1666365,
          "velocity": 0.5669291338582677
        },
        {
          "duration": 0.08333324999999903,
          "durationTicks": 24,
          "midi": 53,
          "name": "F3",
          "ticks": 8688,
          "time": 30.1666365,
          "velocity": 0.5669291338582677
        },
        {
          "duration": 0.08333324999999903,
          "durationTicks": 24,
          "midi": 53,
          "name": "F3",
          "ticks": 8736,
          "time": 30.333303,
          "velocity": 0.5669291338582677
        },
        {
          "duration": 0.08333324999999903,
          "durationTicks": 24,
          "midi": 57,
          "name": "A3",
          "ticks": 8736,
          "time": 30.333303,
          "velocity": 0.5669291338582677
        },
        {
          "duration": 0.08333324999999903,
          "durationTicks": 24,
          "midi": 58,
          "name": "A#3",
          "ticks": 8736,
          "time": 30.333303,
          "velocity": 0.5669291338582677
        },
        {
          "duration": 0.08333324999999903,
          "durationTicks": 24,
          "midi": 62,
          "name": "D4",
          "ticks": 8736,
          "time": 30.333303,
          "velocity": 0.5669291338582677
        },
        {
          "duration": 0.08333324999999903,
          "durationTicks": 24,
          "midi": 53,
          "name": "F3",
          "ticks": 8784,
          "time": 30.4999695,
          "velocity": 0.5748031496062992
        },
        {
          "duration": 0.08333324999999903,
          "durationTicks": 24,
          "midi": 57,
          "name": "A3",
          "ticks": 8784,
          "time": 30.4999695,
          "velocity": 0.5748031496062992
        },
        {
          "duration": 0.08333324999999903,
          "durationTicks": 24,
          "midi": 58,
          "name": "A#3",
          "ticks": 8784,
          "time": 30.4999695,
          "velocity": 0.5748031496062992
        },
        {
          "duration": 0.08333324999999903,
          "durationTicks": 24,
          "midi": 62,
          "name": "D4",
          "ticks": 8784,
          "time": 30.4999695,
          "velocity": 0.5748031496062992
        },
        {
          "duration": 0.12499987500000032,
          "durationTicks": 36,
          "midi": 53,
          "name": "F3",
          "ticks": 8832,
          "time": 30.666636,
          "velocity": 0.5748031496062992
        },
        {
          "duration": 0.12499987500000032,
          "durationTicks": 36,
          "midi": 57,
          "name": "A3",
          "ticks": 8832,
          "time": 30.666636,
          "velocity": 0.5748031496062992
        },
        {
          "duration": 0.12499987500000032,
          "durationTicks": 36,
          "midi": 58,
          "name": "A#3",
          "ticks": 8832,
          "time": 30.666636,
          "velocity": 0.5748031496062992
        },
        {
          "duration": 0.12499987500000032,
          "durationTicks": 36,
          "midi": 62,
          "name": "D4",
          "ticks": 8832,
          "time": 30.666636,
          "velocity": 0.5748031496062992
        },
        {
          "duration": 0.12499987500000032,
          "durationTicks": 36,
          "midi": 62,
          "name": "D4",
          "ticks": 8880,
          "time": 30.8333025,
          "velocity": 0.5826771653543307
        },
        {
          "duration": 0.12499987500000032,
          "durationTicks": 36,
          "midi": 58,
          "name": "A#3",
          "ticks": 8880,
          "time": 30.8333025,
          "velocity": 0.5826771653543307
        },
        {
          "duration": 0.12499987500000032,
          "durationTicks": 36,
          "midi": 57,
          "name": "A3",
          "ticks": 8880,
          "time": 30.8333025,
          "velocity": 0.5826771653543307
        },
        {
          "duration": 0.12499987500000032,
          "durationTicks": 36,
          "midi": 53,
          "name": "F3",
          "ticks": 8880,
          "time": 30.8333025,
          "velocity": 0.5826771653543307
        },
        {
          "duration": 0.12499987500000032,
          "durationTicks": 36,
          "midi": 62,
          "name": "D4",
          "ticks": 8928,
          "time": 30.999969,
          "velocity": 0.5905511811023622
        },
        {
          "duration": 0.12499987500000032,
          "durationTicks": 36,
          "midi": 58,
          "name": "A#3",
          "ticks": 8928,
          "time": 30.999969,
          "velocity": 0.5905511811023622
        },
        {
          "duration": 0.12499987500000032,
          "durationTicks": 36,
          "midi": 57,
          "name": "A3",
          "ticks": 8928,
          "time": 30.999969,
          "velocity": 0.5905511811023622
        },
        {
          "duration": 0.12499987500000032,
          "durationTicks": 36,
          "midi": 53,
          "name": "F3",
          "ticks": 8928,
          "time": 30.999969,
          "velocity": 0.5905511811023622
        },
        {
          "duration": 0.12499987500000032,
          "durationTicks": 36,
          "midi": 53,
          "name": "F3",
          "ticks": 8976,
          "time": 31.166635499999998,
          "velocity": 0.5905511811023622
        },
        {
          "duration": 0.12499987500000032,
          "durationTicks": 36,
          "midi": 57,
          "name": "A3",
          "ticks": 8976,
          "time": 31.166635499999998,
          "velocity": 0.5905511811023622
        },
        {
          "duration": 0.12499987500000032,
          "durationTicks": 36,
          "midi": 58,
          "name": "A#3",
          "ticks": 8976,
          "time": 31.166635499999998,
          "velocity": 0.5905511811023622
        },
        {
          "duration": 0.12499987500000032,
          "durationTicks": 36,
          "midi": 62,
          "name": "D4",
          "ticks": 8976,
          "time": 31.166635499999998,
          "velocity": 0.5905511811023622
        },
        {
          "duration": 0.16666649999999805,
          "durationTicks": 48,
          "midi": 62,
          "name": "D4",
          "ticks": 9024,
          "time": 31.333302,
          "velocity": 0.5984251968503937
        },
        {
          "duration": 0.16666649999999805,
          "durationTicks": 48,
          "midi": 58,
          "name": "A#3",
          "ticks": 9024,
          "time": 31.333302,
          "velocity": 0.5984251968503937
        },
        {
          "duration": 0.16666649999999805,
          "durationTicks": 48,
          "midi": 57,
          "name": "A3",
          "ticks": 9024,
          "time": 31.333302,
          "velocity": 0.5984251968503937
        },
        {
          "duration": 0.16666649999999805,
          "durationTicks": 48,
          "midi": 53,
          "name": "F3",
          "ticks": 9024,
          "time": 31.333302,
          "velocity": 0.5984251968503937
        },
        {
          "duration": 0.1666665000000016,
          "durationTicks": 48,
          "midi": 62,
          "name": "D4",
          "ticks": 9072,
          "time": 31.499968499999998,
          "velocity": 0.5984251968503937
        },
        {
          "duration": 0.1666665000000016,
          "durationTicks": 48,
          "midi": 58,
          "name": "A#3",
          "ticks": 9072,
          "time": 31.499968499999998,
          "velocity": 0.5984251968503937
        },
        {
          "duration": 0.1666665000000016,
          "durationTicks": 48,
          "midi": 57,
          "name": "A3",
          "ticks": 9072,
          "time": 31.499968499999998,
          "velocity": 0.5984251968503937
        },
        {
          "duration": 0.1666665000000016,
          "durationTicks": 48,
          "midi": 53,
          "name": "F3",
          "ticks": 9072,
          "time": 31.499968499999998,
          "velocity": 0.5984251968503937
        },
        {
          "duration": 0.16666649999999805,
          "durationTicks": 48,
          "midi": 62,
          "name": "D4",
          "ticks": 9120,
          "time": 31.666635,
          "velocity": 0.6062992125984252
        },
        {
          "duration": 0.16666649999999805,
          "durationTicks": 48,
          "midi": 58,
          "name": "A#3",
          "ticks": 9120,
          "time": 31.666635,
          "velocity": 0.6062992125984252
        },
        {
          "duration": 0.16666649999999805,
          "durationTicks": 48,
          "midi": 57,
          "name": "A3",
          "ticks": 9120,
          "time": 31.666635,
          "velocity": 0.6062992125984252
        },
        {
          "duration": 0.16666649999999805,
          "durationTicks": 48,
          "midi": 53,
          "name": "F3",
          "ticks": 9120,
          "time": 31.666635,
          "velocity": 0.6062992125984252
        },
        {
          "duration": 0.1666665000000016,
          "durationTicks": 48,
          "midi": 62,
          "name": "D4",
          "ticks": 9168,
          "time": 31.833301499999997,
          "velocity": 0.6062992125984252
        },
        {
          "duration": 0.1666665000000016,
          "durationTicks": 48,
          "midi": 58,
          "name": "A#3",
          "ticks": 9168,
          "time": 31.833301499999997,
          "velocity": 0.6062992125984252
        },
        {
          "duration": 0.1666665000000016,
          "durationTicks": 48,
          "midi": 57,
          "name": "A3",
          "ticks": 9168,
          "time": 31.833301499999997,
          "velocity": 0.6062992125984252
        },
        {
          "duration": 0.1666665000000016,
          "durationTicks": 48,
          "midi": 53,
          "name": "F3",
          "ticks": 9168,
          "time": 31.833301499999997,
          "velocity": 0.6062992125984252
        },
        {
          "duration": 0.6666660000000029,
          "durationTicks": 192,
          "midi": 59,
          "name": "B3",
          "ticks": 9216,
          "time": 31.999968,
          "velocity": 0.6141732283464567
        },
        {
          "duration": 0.6666660000000029,
          "durationTicks": 192,
          "midi": 54,
          "name": "F#3",
          "ticks": 9216,
          "time": 31.999968,
          "velocity": 0.6141732283464567
        },
        {
          "duration": 0.6666660000000029,
          "durationTicks": 192,
          "midi": 62,
          "name": "D4",
          "ticks": 9216,
          "time": 31.999968,
          "velocity": 0.6141732283464567
        },
        {
          "duration": 0.6666660000000029,
          "durationTicks": 192,
          "midi": 66,
          "name": "F#4",
          "ticks": 9216,
          "time": 31.999968,
          "velocity": 0.6141732283464567
        },
        {
          "duration": 0.6666659999999993,
          "durationTicks": 192,
          "midi": 59,
          "name": "B3",
          "ticks": 9408,
          "time": 32.666634,
          "velocity": 0.6299212598425197
        },
        {
          "duration": 0.6666659999999993,
          "durationTicks": 192,
          "midi": 68,
          "name": "G#4",
          "ticks": 9408,
          "time": 32.666634,
          "velocity": 0.6299212598425197
        },
        {
          "duration": 0.6666659999999993,
          "durationTicks": 192,
          "midi": 64,
          "name": "E4",
          "ticks": 9408,
          "time": 32.666634,
          "velocity": 0.6299212598425197
        },
        {
          "duration": 0.6666659999999993,
          "durationTicks": 192,
          "midi": 56,
          "name": "G#3",
          "ticks": 9408,
          "time": 32.666634,
          "velocity": 0.6299212598425197
        },
        {
          "duration": 0.6666659999999993,
          "durationTicks": 192,
          "midi": 57,
          "name": "A3",
          "ticks": 9600,
          "time": 33.3333,
          "velocity": 0.6535433070866141
        },
        {
          "duration": 0.6666659999999993,
          "durationTicks": 192,
          "midi": 60,
          "name": "C4",
          "ticks": 9600,
          "time": 33.3333,
          "velocity": 0.6535433070866141
        },
        {
          "duration": 0.6666659999999993,
          "durationTicks": 192,
          "midi": 69,
          "name": "A4",
          "ticks": 9600,
          "time": 33.3333,
          "velocity": 0.6535433070866141
        },
        {
          "duration": 0.6666659999999993,
          "durationTicks": 192,
          "midi": 65,
          "name": "F4",
          "ticks": 9600,
          "time": 33.3333,
          "velocity": 0.6535433070866141
        },
        {
          "duration": 0.3333329999999961,
          "durationTicks": 96,
          "midi": 59,
          "name": "B3",
          "ticks": 9792,
          "time": 33.999966,
          "velocity": 0.6692913385826772
        },
        {
          "duration": 0.3333329999999961,
          "durationTicks": 96,
          "midi": 71,
          "name": "B4",
          "ticks": 9792,
          "time": 33.999966,
          "velocity": 0.6692913385826772
        },
        {
          "duration": 0.3333329999999961,
          "durationTicks": 96,
          "midi": 64,
          "name": "E4",
          "ticks": 9792,
          "time": 33.999966,
          "velocity": 0.6692913385826772
        },
        {
          "duration": 0.3333329999999961,
          "durationTicks": 96,
          "midi": 68,
          "name": "G#4",
          "ticks": 9792,
          "time": 33.999966,
          "velocity": 0.6692913385826772
        },
        {
          "duration": 1.9722202499999995,
          "durationTicks": 568,
          "midi": 64,
          "name": "E4",
          "ticks": 11616,
          "time": 40.333293,
          "velocity": 0.5433070866141733
        },
        {
          "duration": 1.9722202499999995,
          "durationTicks": 568,
          "midi": 61,
          "name": "C#4",
          "ticks": 11616,
          "time": 40.333293,
          "velocity": 0.5433070866141733
        },
        {
          "duration": 1.9722202499999995,
          "durationTicks": 568,
          "midi": 57,
          "name": "A3",
          "ticks": 11616,
          "time": 40.333293,
          "velocity": 0.5433070866141733
        },
        {
          "duration": 1.9722202499999995,
          "durationTicks": 568,
          "midi": 69,
          "name": "A4",
          "ticks": 11616,
          "time": 40.333293,
          "velocity": 0.5433070866141733
        },
        {
          "duration": 1.9722202499999923,
          "durationTicks": 568,
          "midi": 64,
          "name": "E4",
          "ticks": 14688,
          "time": 50.999949,
          "velocity": 0.5433070866141733
        },
        {
          "duration": 1.9722202499999923,
          "durationTicks": 568,
          "midi": 61,
          "name": "C#4",
          "ticks": 14688,
          "time": 50.999949,
          "velocity": 0.5433070866141733
        },
        {
          "duration": 1.9722202499999923,
          "durationTicks": 568,
          "midi": 57,
          "name": "A3",
          "ticks": 14688,
          "time": 50.999949,
          "velocity": 0.5433070866141733
        },
        {
          "duration": 1.9722202499999923,
          "durationTicks": 568,
          "midi": 69,
          "name": "A4",
          "ticks": 14688,
          "time": 50.999949,
          "velocity": 0.5433070866141733
        },
        {
          "duration": 0.08333325000000258,
          "durationTicks": 24,
          "midi": 52,
          "name": "E3",
          "ticks": 16896,
          "time": 58.666608,
          "velocity": 0.3937007874015748
        },
        {
          "duration": 0.08333325000000258,
          "durationTicks": 24,
          "midi": 57,
          "name": "A3",
          "ticks": 16920,
          "time": 58.74994125,
          "velocity": 0.3937007874015748
        },
        {
          "duration": 0.08333324999999547,
          "durationTicks": 24,
          "midi": 62,
          "name": "D4",
          "ticks": 16944,
          "time": 58.8332745,
          "velocity": 0.3937007874015748
        },
        {
          "duration": 0.08333325000000258,
          "durationTicks": 24,
          "midi": 64,
          "name": "E4",
          "ticks": 16968,
          "time": 58.91660775,
          "velocity": 0.3937007874015748
        },
        {
          "duration": 0.08333324999999547,
          "durationTicks": 24,
          "midi": 52,
          "name": "E3",
          "ticks": 16992,
          "time": 58.999941,
          "velocity": 0.3937007874015748
        },
        {
          "duration": 0.08333325000000258,
          "durationTicks": 24,
          "midi": 57,
          "name": "A3",
          "ticks": 17016,
          "time": 59.083274249999995,
          "velocity": 0.3937007874015748
        },
        {
          "duration": 0.08333325000000258,
          "durationTicks": 24,
          "midi": 62,
          "name": "D4",
          "ticks": 17040,
          "time": 59.1666075,
          "velocity": 0.3937007874015748
        },
        {
          "duration": 0.08333324999999547,
          "durationTicks": 24,
          "midi": 64,
          "name": "E4",
          "ticks": 17064,
          "time": 59.24994075,
          "velocity": 0.3937007874015748
        },
        {
          "duration": 0.08333325000000258,
          "durationTicks": 24,
          "midi": 52,
          "name": "E3",
          "ticks": 17088,
          "time": 59.333273999999996,
          "velocity": 0.3937007874015748
        },
        {
          "duration": 0.08333325000000258,
          "durationTicks": 24,
          "midi": 57,
          "name": "A3",
          "ticks": 17112,
          "time": 59.41660725,
          "velocity": 0.3937007874015748
        },
        {
          "duration": 0.08333324999999547,
          "durationTicks": 24,
          "midi": 62,
          "name": "D4",
          "ticks": 17136,
          "time": 59.4999405,
          "velocity": 0.3937007874015748
        },
        {
          "duration": 0.08333325000000258,
          "durationTicks": 24,
          "midi": 64,
          "name": "E4",
          "ticks": 17160,
          "time": 59.58327375,
          "velocity": 0.3937007874015748
        },
        {
          "duration": 0.08333325000000258,
          "durationTicks": 24,
          "midi": 52,
          "name": "E3",
          "ticks": 17184,
          "time": 59.666607,
          "velocity": 0.3937007874015748
        },
        {
          "duration": 0.08333324999999547,
          "durationTicks": 24,
          "midi": 57,
          "name": "A3",
          "ticks": 17208,
          "time": 59.74994025,
          "velocity": 0.3937007874015748
        },
        {
          "duration": 0.08333325000000258,
          "durationTicks": 24,
          "midi": 62,
          "name": "D4",
          "ticks": 17232,
          "time": 59.8332735,
          "velocity": 0.3937007874015748
        },
        {
          "duration": 0.08333324999999547,
          "durationTicks": 24,
          "midi": 64,
          "name": "E4",
          "ticks": 17256,
          "time": 59.91660675,
          "velocity": 0.3937007874015748
        },
        {
          "duration": 0.08333325000000258,
          "durationTicks": 24,
          "midi": 52,
          "name": "E3",
          "ticks": 17280,
          "time": 59.999939999999995,
          "velocity": 0.3937007874015748
        },
        {
          "duration": 0.08333325000000258,
          "durationTicks": 24,
          "midi": 57,
          "name": "A3",
          "ticks": 17304,
          "time": 60.08327325,
          "velocity": 0.3937007874015748
        },
        {
          "duration": 0.08333324999999547,
          "durationTicks": 24,
          "midi": 62,
          "name": "D4",
          "ticks": 17328,
          "time": 60.1666065,
          "velocity": 0.3937007874015748
        },
        {
          "duration": 0.08333325000000258,
          "durationTicks": 24,
          "midi": 64,
          "name": "E4",
          "ticks": 17352,
          "time": 60.249939749999996,
          "velocity": 0.3937007874015748
        },
        {
          "duration": 0.08333325000000258,
          "durationTicks": 24,
          "midi": 52,
          "name": "E3",
          "ticks": 17376,
          "time": 60.333273,
          "velocity": 0.3937007874015748
        },
        {
          "duration": 0.08333324999999547,
          "durationTicks": 24,
          "midi": 57,
          "name": "A3",
          "ticks": 17400,
          "time": 60.41660625,
          "velocity": 0.3937007874015748
        },
        {
          "duration": 0.08333325000000258,
          "durationTicks": 24,
          "midi": 62,
          "name": "D4",
          "ticks": 17424,
          "time": 60.499939499999996,
          "velocity": 0.3937007874015748
        },
        {
          "duration": 0.08333325000000258,
          "durationTicks": 24,
          "midi": 64,
          "name": "E4",
          "ticks": 17448,
          "time": 60.58327275,
          "velocity": 0.3937007874015748
        },
        {
          "duration": 0.08333324999999547,
          "durationTicks": 24,
          "midi": 52,
          "name": "E3",
          "ticks": 17472,
          "time": 60.666606,
          "velocity": 0.3937007874015748
        },
        {
          "duration": 0.08333325000000258,
          "durationTicks": 24,
          "midi": 57,
          "name": "A3",
          "ticks": 17496,
          "time": 60.74993925,
          "velocity": 0.3937007874015748
        },
        {
          "duration": 0.08333324999999547,
          "durationTicks": 24,
          "midi": 62,
          "name": "D4",
          "ticks": 17520,
          "time": 60.8332725,
          "velocity": 0.3937007874015748
        },
        {
          "duration": 0.08333325000000258,
          "durationTicks": 24,
          "midi": 64,
          "name": "E4",
          "ticks": 17544,
          "time": 60.916605749999995,
          "velocity": 0.3937007874015748
        },
        {
          "duration": 0.08333325000000258,
          "durationTicks": 24,
          "midi": 52,
          "name": "E3",
          "ticks": 17568,
          "time": 60.999939,
          "velocity": 0.3937007874015748
        },
        {
          "duration": 0.08333324999999547,
          "durationTicks": 24,
          "midi": 57,
          "name": "A3",
          "ticks": 17592,
          "time": 61.08327225,
          "velocity": 0.3937007874015748
        },
        {
          "duration": 0.08333325000000258,
          "durationTicks": 24,
          "midi": 62,
          "name": "D4",
          "ticks": 17616,
          "time": 61.166605499999996,
          "velocity": 0.3937007874015748
        },
        {
          "duration": 0.08333325000000258,
          "durationTicks": 24,
          "midi": 64,
          "name": "E4",
          "ticks": 17640,
          "time": 61.24993875,
          "velocity": 0.3937007874015748
        },
        {
          "duration": 0.08333324999999547,
          "durationTicks": 24,
          "midi": 52,
          "name": "E3",
          "ticks": 17664,
          "time": 61.333272,
          "velocity": 0.3937007874015748
        },
        {
          "duration": 0.08333325000000258,
          "durationTicks": 24,
          "midi": 57,
          "name": "A3",
          "ticks": 17688,
          "time": 61.416605249999996,
          "velocity": 0.3937007874015748
        },
        {
          "duration": 0.08333325000000258,
          "durationTicks": 24,
          "midi": 61,
          "name": "C#4",
          "ticks": 17712,
          "time": 61.4999385,
          "velocity": 0.3937007874015748
        },
        {
          "duration": 0.08333324999999547,
          "durationTicks": 24,
          "midi": 64,
          "name": "E4",
          "ticks": 17736,
          "time": 61.58327175,
          "velocity": 0.3937007874015748
        },
        {
          "duration": 0.08333325000000258,
          "durationTicks": 24,
          "midi": 52,
          "name": "E3",
          "ticks": 17760,
          "time": 61.666605,
          "velocity": 0.3937007874015748
        },
        {
          "duration": 0.08333324999999547,
          "durationTicks": 24,
          "midi": 57,
          "name": "A3",
          "ticks": 17784,
          "time": 61.74993825,
          "velocity": 0.3937007874015748
        },
        {
          "duration": 0.08333325000000258,
          "durationTicks": 24,
          "midi": 61,
          "name": "C#4",
          "ticks": 17808,
          "time": 61.833271499999995,
          "velocity": 0.3937007874015748
        },
        {
          "duration": 0.08333325000000258,
          "durationTicks": 24,
          "midi": 64,
          "name": "E4",
          "ticks": 17832,
          "time": 61.91660475,
          "velocity": 0.3937007874015748
        },
        {
          "duration": 0.08333324999999547,
          "durationTicks": 24,
          "midi": 52,
          "name": "E3",
          "ticks": 17856,
          "time": 61.999938,
          "velocity": 0.3937007874015748
        },
        {
          "duration": 0.08333325000000258,
          "durationTicks": 24,
          "midi": 57,
          "name": "A3",
          "ticks": 17880,
          "time": 62.083271249999996,
          "velocity": 0.3937007874015748
        },
        {
          "duration": 0.08333325000000258,
          "durationTicks": 24,
          "midi": 61,
          "name": "C#4",
          "ticks": 17904,
          "time": 62.1666045,
          "velocity": 0.3937007874015748
        },
        {
          "duration": 0.08333324999999547,
          "durationTicks": 24,
          "midi": 64,
          "name": "E4",
          "ticks": 17928,
          "time": 62.24993775,
          "velocity": 0.3937007874015748
        },
        {
          "duration": 0.08333325000000258,
          "durationTicks": 24,
          "midi": 52,
          "name": "E3",
          "ticks": 17952,
          "time": 62.333270999999996,
          "velocity": 0.3937007874015748
        },
        {
          "duration": 0.08333325000000258,
          "durationTicks": 24,
          "midi": 57,
          "name": "A3",
          "ticks": 17976,
          "time": 62.41660425,
          "velocity": 0.3937007874015748
        },
        {
          "duration": 0.08333324999999547,
          "durationTicks": 24,
          "midi": 61,
          "name": "C#4",
          "ticks": 18000,
          "time": 62.4999375,
          "velocity": 0.3937007874015748
        },
        {
          "duration": 0.08333325000000258,
          "durationTicks": 24,
          "midi": 64,
          "name": "E4",
          "ticks": 18024,
          "time": 62.58327075,
          "velocity": 0.3937007874015748
        },
        {
          "duration": 0.08333324999999547,
          "durationTicks": 24,
          "midi": 52,
          "name": "E3",
          "ticks": 18048,
          "time": 62.666604,
          "velocity": 0.3937007874015748
        },
        {
          "duration": 0.08333325000000258,
          "durationTicks": 24,
          "midi": 57,
          "name": "A3",
          "ticks": 18072,
          "time": 62.749937249999995,
          "velocity": 0.3937007874015748
        },
        {
          "duration": 0.08333325000000258,
          "durationTicks": 24,
          "midi": 61,
          "name": "C#4",
          "ticks": 18096,
          "time": 62.8332705,
          "velocity": 0.3937007874015748
        },
        {
          "duration": 0.08333324999999547,
          "durationTicks": 24,
          "midi": 64,
          "name": "E4",
          "ticks": 18120,
          "time": 62.91660375,
          "velocity": 0.3937007874015748
        },
        {
          "duration": 0.08333325000000258,
          "durationTicks": 24,
          "midi": 52,
          "name": "E3",
          "ticks": 18144,
          "time": 62.999936999999996,
          "velocity": 0.3937007874015748
        },
        {
          "duration": 0.08333325000000258,
          "durationTicks": 24,
          "midi": 57,
          "name": "A3",
          "ticks": 18168,
          "time": 63.08327025,
          "velocity": 0.3937007874015748
        },
        {
          "duration": 0.08333324999999547,
          "durationTicks": 24,
          "midi": 61,
          "name": "C#4",
          "ticks": 18192,
          "time": 63.1666035,
          "velocity": 0.3937007874015748
        },
        {
          "duration": 0.08333325000000258,
          "durationTicks": 24,
          "midi": 64,
          "name": "E4",
          "ticks": 18216,
          "time": 63.249936749999996,
          "velocity": 0.3937007874015748
        },
        {
          "duration": 0.08333325000000258,
          "durationTicks": 24,
          "midi": 52,
          "name": "E3",
          "ticks": 18240,
          "time": 63.33327,
          "velocity": 0.3937007874015748
        },
        {
          "duration": 0.08333324999999547,
          "durationTicks": 24,
          "midi": 57,
          "name": "A3",
          "ticks": 18264,
          "time": 63.41660325,
          "velocity": 0.3937007874015748
        },
        {
          "duration": 0.08333325000000258,
          "durationTicks": 24,
          "midi": 61,
          "name": "C#4",
          "ticks": 18288,
          "time": 63.4999365,
          "velocity": 0.3937007874015748
        },
        {
          "duration": 0.08333324999999547,
          "durationTicks": 24,
          "midi": 64,
          "name": "E4",
          "ticks": 18312,
          "time": 63.58326975,
          "velocity": 0.3937007874015748
        },
        {
          "duration": 0.08333325000000258,
          "durationTicks": 24,
          "midi": 52,
          "name": "E3",
          "ticks": 18336,
          "time": 63.666602999999995,
          "velocity": 0.3937007874015748
        },
        {
          "duration": 0.08333325000000258,
          "durationTicks": 24,
          "midi": 57,
          "name": "A3",
          "ticks": 18360,
          "time": 63.74993625,
          "velocity": 0.3937007874015748
        },
        {
          "duration": 0.08333324999999547,
          "durationTicks": 24,
          "midi": 61,
          "name": "C#4",
          "ticks": 18384,
          "time": 63.8332695,
          "velocity": 0.3937007874015748
        },
        {
          "duration": 0.08333325000000258,
          "durationTicks": 24,
          "midi": 64,
          "name": "E4",
          "ticks": 18408,
          "time": 63.916602749999996,
          "velocity": 0.3937007874015748
        },
        {
          "duration": 0.08333325000000258,
          "durationTicks": 24,
          "midi": 52,
          "name": "E3",
          "ticks": 18432,
          "time": 63.999936,
          "velocity": 0.3937007874015748
        },
        {
          "duration": 0.08333324999999547,
          "durationTicks": 24,
          "midi": 57,
          "name": "A3",
          "ticks": 18456,
          "time": 64.08326925,
          "velocity": 0.3937007874015748
        },
        {
          "duration": 0.08333324999999547,
          "durationTicks": 24,
          "midi": 62,
          "name": "D4",
          "ticks": 18480,
          "time": 64.1666025,
          "velocity": 0.3937007874015748
        },
        {
          "duration": 0.08333325000000968,
          "durationTicks": 24,
          "midi": 64,
          "name": "E4",
          "ticks": 18504,
          "time": 64.24993574999999,
          "velocity": 0.3937007874015748
        },
        {
          "duration": 0.08333324999999547,
          "durationTicks": 24,
          "midi": 52,
          "name": "E3",
          "ticks": 18528,
          "time": 64.333269,
          "velocity": 0.3937007874015748
        },
        {
          "duration": 0.08333324999999547,
          "durationTicks": 24,
          "midi": 57,
          "name": "A3",
          "ticks": 18552,
          "time": 64.41660225,
          "velocity": 0.3937007874015748
        },
        {
          "duration": 0.08333325000000968,
          "durationTicks": 24,
          "midi": 62,
          "name": "D4",
          "ticks": 18576,
          "time": 64.49993549999999,
          "velocity": 0.3937007874015748
        },
        {
          "duration": 0.08333324999999547,
          "durationTicks": 24,
          "midi": 64,
          "name": "E4",
          "ticks": 18600,
          "time": 64.58326875,
          "velocity": 0.3937007874015748
        },
        {
          "duration": 0.08333324999999547,
          "durationTicks": 24,
          "midi": 52,
          "name": "E3",
          "ticks": 18624,
          "time": 64.666602,
          "velocity": 0.3937007874015748
        },
        {
          "duration": 0.08333325000000968,
          "durationTicks": 24,
          "midi": 57,
          "name": "A3",
          "ticks": 18648,
          "time": 64.74993525,
          "velocity": 0.3937007874015748
        },
        {
          "duration": 0.08333324999999547,
          "durationTicks": 24,
          "midi": 62,
          "name": "D4",
          "ticks": 18672,
          "time": 64.8332685,
          "velocity": 0.3937007874015748
        },
        {
          "duration": 0.08333324999999547,
          "durationTicks": 24,
          "midi": 64,
          "name": "E4",
          "ticks": 18696,
          "time": 64.91660175,
          "velocity": 0.3937007874015748
        },
        {
          "duration": 0.08333325000000968,
          "durationTicks": 24,
          "midi": 52,
          "name": "E3",
          "ticks": 18720,
          "time": 64.999935,
          "velocity": 0.3937007874015748
        },
        {
          "duration": 0.08333324999999547,
          "durationTicks": 24,
          "midi": 57,
          "name": "A3",
          "ticks": 18744,
          "time": 65.08326825,
          "velocity": 0.3937007874015748
        },
        {
          "duration": 0.08333324999999547,
          "durationTicks": 24,
          "midi": 62,
          "name": "D4",
          "ticks": 18768,
          "time": 65.1666015,
          "velocity": 0.3937007874015748
        },
        {
          "duration": 0.08333325000000968,
          "durationTicks": 24,
          "midi": 64,
          "name": "E4",
          "ticks": 18792,
          "time": 65.24993475,
          "velocity": 0.3937007874015748
        },
        {
          "duration": 0.08333324999999547,
          "durationTicks": 24,
          "midi": 52,
          "name": "E3",
          "ticks": 18816,
          "time": 65.333268,
          "velocity": 0.3937007874015748
        },
        {
          "duration": 0.08333324999999547,
          "durationTicks": 24,
          "midi": 57,
          "name": "A3",
          "ticks": 18840,
          "time": 65.41660125,
          "velocity": 0.3937007874015748
        },
        {
          "duration": 0.08333325000000968,
          "durationTicks": 24,
          "midi": 62,
          "name": "D4",
          "ticks": 18864,
          "time": 65.4999345,
          "velocity": 0.3937007874015748
        },
        {
          "duration": 0.08333324999999547,
          "durationTicks": 24,
          "midi": 64,
          "name": "E4",
          "ticks": 18888,
          "time": 65.58326775,
          "velocity": 0.3937007874015748
        },
        {
          "duration": 0.08333324999999547,
          "durationTicks": 24,
          "midi": 52,
          "name": "E3",
          "ticks": 18912,
          "time": 65.666601,
          "velocity": 0.3937007874015748
        },
        {
          "duration": 0.08333325000000968,
          "durationTicks": 24,
          "midi": 57,
          "name": "A3",
          "ticks": 18936,
          "time": 65.74993425,
          "velocity": 0.3937007874015748
        },
        {
          "duration": 0.08333324999999547,
          "durationTicks": 24,
          "midi": 62,
          "name": "D4",
          "ticks": 18960,
          "time": 65.8332675,
          "velocity": 0.3937007874015748
        },
        {
          "duration": 0.08333324999999547,
          "durationTicks": 24,
          "midi": 64,
          "name": "E4",
          "ticks": 18984,
          "time": 65.91660075,
          "velocity": 0.3937007874015748
        },
        {
          "duration": 0.08333324999999547,
          "durationTicks": 24,
          "midi": 52,
          "name": "E3",
          "ticks": 19008,
          "time": 65.999934,
          "velocity": 0.3937007874015748
        },
        {
          "duration": 0.08333325000000968,
          "durationTicks": 24,
          "midi": 57,
          "name": "A3",
          "ticks": 19032,
          "time": 66.08326724999999,
          "velocity": 0.3937007874015748
        },
        {
          "duration": 0.08333324999999547,
          "durationTicks": 24,
          "midi": 62,
          "name": "D4",
          "ticks": 19056,
          "time": 66.1666005,
          "velocity": 0.3937007874015748
        },
        {
          "duration": 0.08333324999999547,
          "durationTicks": 24,
          "midi": 64,
          "name": "E4",
          "ticks": 19080,
          "time": 66.24993375,
          "velocity": 0.3937007874015748
        },
        {
          "duration": 0.08333325000000968,
          "durationTicks": 24,
          "midi": 52,
          "name": "E3",
          "ticks": 19104,
          "time": 66.33326699999999,
          "velocity": 0.3937007874015748
        },
        {
          "duration": 0.08333324999999547,
          "durationTicks": 24,
          "midi": 57,
          "name": "A3",
          "ticks": 19128,
          "time": 66.41660025,
          "velocity": 0.3937007874015748
        },
        {
          "duration": 0.08333324999999547,
          "durationTicks": 24,
          "midi": 62,
          "name": "D4",
          "ticks": 19152,
          "time": 66.4999335,
          "velocity": 0.3937007874015748
        },
        {
          "duration": 0.08333325000000968,
          "durationTicks": 24,
          "midi": 64,
          "name": "E4",
          "ticks": 19176,
          "time": 66.58326674999999,
          "velocity": 0.3937007874015748
        },
        {
          "duration": 0.08333324999999547,
          "durationTicks": 24,
          "midi": 52,
          "name": "E3",
          "ticks": 19200,
          "time": 66.6666,
          "velocity": 0.3937007874015748
        },
        {
          "duration": 0.08333324999999547,
          "durationTicks": 24,
          "midi": 57,
          "name": "A3",
          "ticks": 19224,
          "time": 66.74993325,
          "velocity": 0.3937007874015748
        },
        {
          "duration": 0.08333325000000968,
          "durationTicks": 24,
          "midi": 61,
          "name": "C#4",
          "ticks": 19248,
          "time": 66.8332665,
          "velocity": 0.3937007874015748
        },
        {
          "duration": 0.08333324999999547,
          "durationTicks": 24,
          "midi": 64,
          "name": "E4",
          "ticks": 19272,
          "time": 66.91659975,
          "velocity": 0.3937007874015748
        },
        {
          "duration": 0.08333324999999547,
          "durationTicks": 24,
          "midi": 52,
          "name": "E3",
          "ticks": 19296,
          "time": 66.999933,
          "velocity": 0.3937007874015748
        },
        {
          "duration": 0.08333325000000968,
          "durationTicks": 24,
          "midi": 57,
          "name": "A3",
          "ticks": 19320,
          "time": 67.08326625,
          "velocity": 0.3937007874015748
        },
        {
          "duration": 0.08333324999999547,
          "durationTicks": 24,
          "midi": 61,
          "name": "C#4",
          "ticks": 19344,
          "time": 67.1665995,
          "velocity": 0.3937007874015748
        },
        {
          "duration": 0.08333324999999547,
          "durationTicks": 24,
          "midi": 64,
          "name": "E4",
          "ticks": 19368,
          "time": 67.24993275,
          "velocity": 0.3937007874015748
        },
        {
          "duration": 0.08333325000000968,
          "durationTicks": 24,
          "midi": 52,
          "name": "E3",
          "ticks": 19392,
          "time": 67.333266,
          "velocity": 0.3937007874015748
        },
        {
          "duration": 0.08333324999999547,
          "durationTicks": 24,
          "midi": 57,
          "name": "A3",
          "ticks": 19416,
          "time": 67.41659925,
          "velocity": 0.3937007874015748
        },
        {
          "duration": 0.08333324999999547,
          "durationTicks": 24,
          "midi": 61,
          "name": "C#4",
          "ticks": 19440,
          "time": 67.4999325,
          "velocity": 0.3937007874015748
        },
        {
          "duration": 0.08333325000000968,
          "durationTicks": 24,
          "midi": 64,
          "name": "E4",
          "ticks": 19464,
          "time": 67.58326575,
          "velocity": 0.3937007874015748
        },
        {
          "duration": 0.08333324999999547,
          "durationTicks": 24,
          "midi": 52,
          "name": "E3",
          "ticks": 19488,
          "time": 67.666599,
          "velocity": 0.3937007874015748
        },
        {
          "duration": 0.08333324999999547,
          "durationTicks": 24,
          "midi": 57,
          "name": "A3",
          "ticks": 19512,
          "time": 67.74993225,
          "velocity": 0.3937007874015748
        },
        {
          "duration": 0.08333324999999547,
          "durationTicks": 24,
          "midi": 61,
          "name": "C#4",
          "ticks": 19536,
          "time": 67.8332655,
          "velocity": 0.3937007874015748
        },
        {
          "duration": 0.08333325000000968,
          "durationTicks": 24,
          "midi": 64,
          "name": "E4",
          "ticks": 19560,
          "time": 67.91659874999999,
          "velocity": 0.3937007874015748
        },
        {
          "duration": 0.04166662500000484,
          "durationTicks": 12,
          "midi": 60,
          "name": "C4",
          "ticks": 20268,
          "time": 70.374929625,
          "velocity": 0.5826771653543307
        },
        {
          "duration": 0.04166662500000484,
          "durationTicks": 12,
          "midi": 51,
          "name": "D#3",
          "ticks": 20268,
          "time": 70.374929625,
          "velocity": 0.5826771653543307
        },
        {
          "duration": 0.04166662500000484,
          "durationTicks": 12,
          "midi": 63,
          "name": "D#4",
          "ticks": 20268,
          "time": 70.374929625,
          "velocity": 0.5826771653543307
        },
        {
          "duration": 0.04166662500000484,
          "durationTicks": 12,
          "midi": 56,
          "name": "G#3",
          "ticks": 20268,
          "time": 70.374929625,
          "velocity": 0.5826771653543307
        },
        {
          "duration": 0.04166662500000484,
          "durationTicks": 12,
          "midi": 59,
          "name": "B3",
          "ticks": 20280,
          "time": 70.41659625,
          "velocity": 0.5275590551181102
        },
        {
          "duration": 0.04166662500000484,
          "durationTicks": 12,
          "midi": 50,
          "name": "D3",
          "ticks": 20280,
          "time": 70.41659625,
          "velocity": 0.5275590551181102
        },
        {
          "duration": 0.04166662500000484,
          "durationTicks": 12,
          "midi": 62,
          "name": "D4",
          "ticks": 20280,
          "time": 70.41659625,
          "velocity": 0.5275590551181102
        },
        {
          "duration": 0.04166662500000484,
          "durationTicks": 12,
          "midi": 55,
          "name": "G3",
          "ticks": 20280,
          "time": 70.41659625,
          "velocity": 0.5275590551181102
        },
        {
          "duration": 0.04166662499999063,
          "durationTicks": 12,
          "midi": 54,
          "name": "F#3",
          "ticks": 20292,
          "time": 70.458262875,
          "velocity": 0.47244094488188976
        },
        {
          "duration": 0.04166662499999063,
          "durationTicks": 12,
          "midi": 58,
          "name": "A#3",
          "ticks": 20292,
          "time": 70.458262875,
          "velocity": 0.47244094488188976
        },
        {
          "duration": 0.04166662499999063,
          "durationTicks": 12,
          "midi": 49,
          "name": "C#3",
          "ticks": 20292,
          "time": 70.458262875,
          "velocity": 0.47244094488188976
        },
        {
          "duration": 0.04166662499999063,
          "durationTicks": 12,
          "midi": 61,
          "name": "C#4",
          "ticks": 20292,
          "time": 70.458262875,
          "velocity": 0.47244094488188976
        },
        {
          "duration": 0.04166662500000484,
          "durationTicks": 12,
          "midi": 57,
          "name": "A3",
          "ticks": 20304,
          "time": 70.4999295,
          "velocity": 0.41732283464566927
        },
        {
          "duration": 0.04166662500000484,
          "durationTicks": 12,
          "midi": 48,
          "name": "C3",
          "ticks": 20304,
          "time": 70.4999295,
          "velocity": 0.41732283464566927
        },
        {
          "duration": 0.04166662500000484,
          "durationTicks": 12,
          "midi": 60,
          "name": "C4",
          "ticks": 20304,
          "time": 70.4999295,
          "velocity": 0.41732283464566927
        },
        {
          "duration": 0.04166662500000484,
          "durationTicks": 12,
          "midi": 53,
          "name": "F3",
          "ticks": 20304,
          "time": 70.4999295,
          "velocity": 0.41732283464566927
        },
        {
          "duration": 0.04166662500000484,
          "durationTicks": 12,
          "midi": 56,
          "name": "G#3",
          "ticks": 20316,
          "time": 70.541596125,
          "velocity": 0.3543307086614173
        },
        {
          "duration": 0.04166662500000484,
          "durationTicks": 12,
          "midi": 47,
          "name": "B2",
          "ticks": 20316,
          "time": 70.541596125,
          "velocity": 0.3543307086614173
        },
        {
          "duration": 0.04166662500000484,
          "durationTicks": 12,
          "midi": 59,
          "name": "B3",
          "ticks": 20316,
          "time": 70.541596125,
          "velocity": 0.3543307086614173
        },
        {
          "duration": 0.04166662500000484,
          "durationTicks": 12,
          "midi": 52,
          "name": "E3",
          "ticks": 20316,
          "time": 70.541596125,
          "velocity": 0.3543307086614173
        },
        {
          "duration": 0.04166662499999063,
          "durationTicks": 12,
          "midi": 51,
          "name": "D#3",
          "ticks": 20328,
          "time": 70.58326275,
          "velocity": 0.2992125984251969
        },
        {
          "duration": 0.04166662499999063,
          "durationTicks": 12,
          "midi": 55,
          "name": "G3",
          "ticks": 20328,
          "time": 70.58326275,
          "velocity": 0.2992125984251969
        },
        {
          "duration": 0.04166662499999063,
          "durationTicks": 12,
          "midi": 46,
          "name": "A#2",
          "ticks": 20328,
          "time": 70.58326275,
          "velocity": 0.2992125984251969
        },
        {
          "duration": 0.04166662499999063,
          "durationTicks": 12,
          "midi": 58,
          "name": "A#3",
          "ticks": 20328,
          "time": 70.58326275,
          "velocity": 0.2992125984251969
        },
        {
          "duration": 0.04166662500000484,
          "durationTicks": 12,
          "midi": 57,
          "name": "A3",
          "ticks": 20340,
          "time": 70.624929375,
          "velocity": 0.2992125984251969
        },
        {
          "duration": 0.04166662500000484,
          "durationTicks": 12,
          "midi": 45,
          "name": "A2",
          "ticks": 20340,
          "time": 70.624929375,
          "velocity": 0.2992125984251969
        },
        {
          "duration": 0.04166662500000484,
          "durationTicks": 12,
          "midi": 54,
          "name": "F#3",
          "ticks": 20340,
          "time": 70.624929375,
          "velocity": 0.2992125984251969
        },
        {
          "duration": 0.04166662500000484,
          "durationTicks": 12,
          "midi": 50,
          "name": "D3",
          "ticks": 20340,
          "time": 70.624929375,
          "velocity": 0.2992125984251969
        },
        {
          "duration": 0.04166662500000484,
          "durationTicks": 12,
          "midi": 56,
          "name": "G#3",
          "ticks": 20460,
          "time": 71.041595625,
          "velocity": 0.5826771653543307
        },
        {
          "duration": 0.04166662500000484,
          "durationTicks": 12,
          "midi": 63,
          "name": "D#4",
          "ticks": 20460,
          "time": 71.041595625,
          "velocity": 0.5826771653543307
        },
        {
          "duration": 0.04166662500000484,
          "durationTicks": 12,
          "midi": 51,
          "name": "D#3",
          "ticks": 20460,
          "time": 71.041595625,
          "velocity": 0.5826771653543307
        },
        {
          "duration": 0.04166662500000484,
          "durationTicks": 12,
          "midi": 60,
          "name": "C4",
          "ticks": 20460,
          "time": 71.041595625,
          "velocity": 0.5826771653543307
        },
        {
          "duration": 0.04166662499999063,
          "durationTicks": 12,
          "midi": 59,
          "name": "B3",
          "ticks": 20472,
          "time": 71.08326225,
          "velocity": 0.5275590551181102
        },
        {
          "duration": 0.04166662499999063,
          "durationTicks": 12,
          "midi": 50,
          "name": "D3",
          "ticks": 20472,
          "time": 71.08326225,
          "velocity": 0.5275590551181102
        },
        {
          "duration": 0.04166662499999063,
          "durationTicks": 12,
          "midi": 62,
          "name": "D4",
          "ticks": 20472,
          "time": 71.08326225,
          "velocity": 0.5275590551181102
        },
        {
          "duration": 0.04166662499999063,
          "durationTicks": 12,
          "midi": 55,
          "name": "G3",
          "ticks": 20472,
          "time": 71.08326225,
          "velocity": 0.5275590551181102
        },
        {
          "duration": 0.04166662500000484,
          "durationTicks": 12,
          "midi": 54,
          "name": "F#3",
          "ticks": 20484,
          "time": 71.124928875,
          "velocity": 0.47244094488188976
        },
        {
          "duration": 0.04166662500000484,
          "durationTicks": 12,
          "midi": 58,
          "name": "A#3",
          "ticks": 20484,
          "time": 71.124928875,
          "velocity": 0.47244094488188976
        },
        {
          "duration": 0.04166662500000484,
          "durationTicks": 12,
          "midi": 49,
          "name": "C#3",
          "ticks": 20484,
          "time": 71.124928875,
          "velocity": 0.47244094488188976
        },
        {
          "duration": 0.04166662500000484,
          "durationTicks": 12,
          "midi": 61,
          "name": "C#4",
          "ticks": 20484,
          "time": 71.124928875,
          "velocity": 0.47244094488188976
        },
        {
          "duration": 0.04166662500000484,
          "durationTicks": 12,
          "midi": 53,
          "name": "F3",
          "ticks": 20496,
          "time": 71.1665955,
          "velocity": 0.41732283464566927
        },
        {
          "duration": 0.04166662500000484,
          "durationTicks": 12,
          "midi": 60,
          "name": "C4",
          "ticks": 20496,
          "time": 71.1665955,
          "velocity": 0.41732283464566927
        },
        {
          "duration": 0.04166662500000484,
          "durationTicks": 12,
          "midi": 48,
          "name": "C3",
          "ticks": 20496,
          "time": 71.1665955,
          "velocity": 0.41732283464566927
        },
        {
          "duration": 0.04166662500000484,
          "durationTicks": 12,
          "midi": 57,
          "name": "A3",
          "ticks": 20496,
          "time": 71.1665955,
          "velocity": 0.41732283464566927
        },
        {
          "duration": 0.04166662499999063,
          "durationTicks": 12,
          "midi": 52,
          "name": "E3",
          "ticks": 20508,
          "time": 71.208262125,
          "velocity": 0.3543307086614173
        },
        {
          "duration": 0.04166662499999063,
          "durationTicks": 12,
          "midi": 59,
          "name": "B3",
          "ticks": 20508,
          "time": 71.208262125,
          "velocity": 0.3543307086614173
        },
        {
          "duration": 0.04166662499999063,
          "durationTicks": 12,
          "midi": 47,
          "name": "B2",
          "ticks": 20508,
          "time": 71.208262125,
          "velocity": 0.3543307086614173
        },
        {
          "duration": 0.04166662499999063,
          "durationTicks": 12,
          "midi": 56,
          "name": "G#3",
          "ticks": 20508,
          "time": 71.208262125,
          "velocity": 0.3543307086614173
        },
        {
          "duration": 0.04166662500000484,
          "durationTicks": 12,
          "midi": 58,
          "name": "A#3",
          "ticks": 20520,
          "time": 71.24992875,
          "velocity": 0.2992125984251969
        },
        {
          "duration": 0.04166662500000484,
          "durationTicks": 12,
          "midi": 46,
          "name": "A#2",
          "ticks": 20520,
          "time": 71.24992875,
          "velocity": 0.2992125984251969
        },
        {
          "duration": 0.04166662500000484,
          "durationTicks": 12,
          "midi": 55,
          "name": "G3",
          "ticks": 20520,
          "time": 71.24992875,
          "velocity": 0.2992125984251969
        },
        {
          "duration": 0.04166662500000484,
          "durationTicks": 12,
          "midi": 51,
          "name": "D#3",
          "ticks": 20520,
          "time": 71.24992875,
          "velocity": 0.2992125984251969
        },
        {
          "duration": 0.04166662500000484,
          "durationTicks": 12,
          "midi": 57,
          "name": "A3",
          "ticks": 20532,
          "time": 71.291595375,
          "velocity": 0.2992125984251969
        },
        {
          "duration": 0.04166662500000484,
          "durationTicks": 12,
          "midi": 45,
          "name": "A2",
          "ticks": 20532,
          "time": 71.291595375,
          "velocity": 0.2992125984251969
        },
        {
          "duration": 0.04166662500000484,
          "durationTicks": 12,
          "midi": 54,
          "name": "F#3",
          "ticks": 20532,
          "time": 71.291595375,
          "velocity": 0.2992125984251969
        },
        {
          "duration": 0.04166662500000484,
          "durationTicks": 12,
          "midi": 50,
          "name": "D3",
          "ticks": 20532,
          "time": 71.291595375,
          "velocity": 0.2992125984251969
        },
        {
          "duration": 0.04166662500000484,
          "durationTicks": 12,
          "midi": 61,
          "name": "C#4",
          "ticks": 20652,
          "time": 71.70826162499999,
          "velocity": 0.5826771653543307
        },
        {
          "duration": 0.04166662500000484,
          "durationTicks": 12,
          "midi": 52,
          "name": "E3",
          "ticks": 20652,
          "time": 71.70826162499999,
          "velocity": 0.5826771653543307
        },
        {
          "duration": 0.04166662500000484,
          "durationTicks": 12,
          "midi": 64,
          "name": "E4",
          "ticks": 20652,
          "time": 71.70826162499999,
          "velocity": 0.5826771653543307
        },
        {
          "duration": 0.04166662500000484,
          "durationTicks": 12,
          "midi": 57,
          "name": "A3",
          "ticks": 20652,
          "time": 71.70826162499999,
          "velocity": 0.5826771653543307
        },
        {
          "duration": 0.04166662500000484,
          "durationTicks": 12,
          "midi": 60,
          "name": "C4",
          "ticks": 20664,
          "time": 71.74992825,
          "velocity": 0.5275590551181102
        },
        {
          "duration": 0.04166662500000484,
          "durationTicks": 12,
          "midi": 51,
          "name": "D#3",
          "ticks": 20664,
          "time": 71.74992825,
          "velocity": 0.5275590551181102
        },
        {
          "duration": 0.04166662500000484,
          "durationTicks": 12,
          "midi": 63,
          "name": "D#4",
          "ticks": 20664,
          "time": 71.74992825,
          "velocity": 0.5275590551181102
        },
        {
          "duration": 0.04166662500000484,
          "durationTicks": 12,
          "midi": 56,
          "name": "G#3",
          "ticks": 20664,
          "time": 71.74992825,
          "velocity": 0.5275590551181102
        },
        {
          "duration": 0.04166662499999063,
          "durationTicks": 12,
          "midi": 62,
          "name": "D4",
          "ticks": 20676,
          "time": 71.791594875,
          "velocity": 0.47244094488188976
        },
        {
          "duration": 0.04166662499999063,
          "durationTicks": 12,
          "midi": 50,
          "name": "D3",
          "ticks": 20676,
          "time": 71.791594875,
          "velocity": 0.47244094488188976
        },
        {
          "duration": 0.04166662499999063,
          "durationTicks": 12,
          "midi": 59,
          "name": "B3",
          "ticks": 20676,
          "time": 71.791594875,
          "velocity": 0.47244094488188976
        },
        {
          "duration": 0.04166662499999063,
          "durationTicks": 12,
          "midi": 55,
          "name": "G3",
          "ticks": 20676,
          "time": 71.791594875,
          "velocity": 0.47244094488188976
        },
        {
          "duration": 0.04166662500000484,
          "durationTicks": 12,
          "midi": 58,
          "name": "A#3",
          "ticks": 20688,
          "time": 71.83326149999999,
          "velocity": 0.41732283464566927
        },
        {
          "duration": 0.04166662500000484,
          "durationTicks": 12,
          "midi": 49,
          "name": "C#3",
          "ticks": 20688,
          "time": 71.83326149999999,
          "velocity": 0.41732283464566927
        },
        {
          "duration": 0.04166662500000484,
          "durationTicks": 12,
          "midi": 61,
          "name": "C#4",
          "ticks": 20688,
          "time": 71.83326149999999,
          "velocity": 0.41732283464566927
        },
        {
          "duration": 0.04166662500000484,
          "durationTicks": 12,
          "midi": 54,
          "name": "F#3",
          "ticks": 20688,
          "time": 71.83326149999999,
          "velocity": 0.41732283464566927
        },
        {
          "duration": 0.04166662500000484,
          "durationTicks": 12,
          "midi": 53,
          "name": "F3",
          "ticks": 20700,
          "time": 71.874928125,
          "velocity": 0.3543307086614173
        },
        {
          "duration": 0.04166662500000484,
          "durationTicks": 12,
          "midi": 60,
          "name": "C4",
          "ticks": 20700,
          "time": 71.874928125,
          "velocity": 0.3543307086614173
        },
        {
          "duration": 0.04166662500000484,
          "durationTicks": 12,
          "midi": 48,
          "name": "C3",
          "ticks": 20700,
          "time": 71.874928125,
          "velocity": 0.3543307086614173
        },
        {
          "duration": 0.04166662500000484,
          "durationTicks": 12,
          "midi": 57,
          "name": "A3",
          "ticks": 20700,
          "time": 71.874928125,
          "velocity": 0.3543307086614173
        },
        {
          "duration": 0.04166662499999063,
          "durationTicks": 12,
          "midi": 52,
          "name": "E3",
          "ticks": 20712,
          "time": 71.91659475,
          "velocity": 0.2992125984251969
        },
        {
          "duration": 0.04166662499999063,
          "durationTicks": 12,
          "midi": 56,
          "name": "G#3",
          "ticks": 20712,
          "time": 71.91659475,
          "velocity": 0.2992125984251969
        },
        {
          "duration": 0.04166662499999063,
          "durationTicks": 12,
          "midi": 47,
          "name": "B2",
          "ticks": 20712,
          "time": 71.91659475,
          "velocity": 0.2992125984251969
        },
        {
          "duration": 0.04166662499999063,
          "durationTicks": 12,
          "midi": 59,
          "name": "B3",
          "ticks": 20712,
          "time": 71.91659475,
          "velocity": 0.2992125984251969
        },
        {
          "duration": 0.04166662500000484,
          "durationTicks": 12,
          "midi": 58,
          "name": "A#3",
          "ticks": 20724,
          "time": 71.95826137499999,
          "velocity": 0.2992125984251969
        },
        {
          "duration": 0.04166662500000484,
          "durationTicks": 12,
          "midi": 46,
          "name": "A#2",
          "ticks": 20724,
          "time": 71.95826137499999,
          "velocity": 0.2992125984251969
        },
        {
          "duration": 0.04166662500000484,
          "durationTicks": 12,
          "midi": 55,
          "name": "G3",
          "ticks": 20724,
          "time": 71.95826137499999,
          "velocity": 0.2992125984251969
        },
        {
          "duration": 0.04166662500000484,
          "durationTicks": 12,
          "midi": 51,
          "name": "D#3",
          "ticks": 20724,
          "time": 71.95826137499999,
          "velocity": 0.2992125984251969
        },
        {
          "duration": 0.04166662499999063,
          "durationTicks": 12,
          "midi": 60,
          "name": "C4",
          "ticks": 21036,
          "time": 73.041593625,
          "velocity": 0.5826771653543307
        },
        {
          "duration": 0.04166662499999063,
          "durationTicks": 12,
          "midi": 51,
          "name": "D#3",
          "ticks": 21036,
          "time": 73.041593625,
          "velocity": 0.5826771653543307
        },
        {
          "duration": 0.04166662499999063,
          "durationTicks": 12,
          "midi": 63,
          "name": "D#4",
          "ticks": 21036,
          "time": 73.041593625,
          "velocity": 0.5826771653543307
        },
        {
          "duration": 0.04166662499999063,
          "durationTicks": 12,
          "midi": 56,
          "name": "G#3",
          "ticks": 21036,
          "time": 73.041593625,
          "velocity": 0.5826771653543307
        },
        {
          "duration": 0.04166662500000484,
          "durationTicks": 12,
          "midi": 55,
          "name": "G3",
          "ticks": 21048,
          "time": 73.08326025,
          "velocity": 0.5275590551181102
        },
        {
          "duration": 0.04166662500000484,
          "durationTicks": 12,
          "midi": 62,
          "name": "D4",
          "ticks": 21048,
          "time": 73.08326025,
          "velocity": 0.5275590551181102
        },
        {
          "duration": 0.04166662500000484,
          "durationTicks": 12,
          "midi": 50,
          "name": "D3",
          "ticks": 21048,
          "time": 73.08326025,
          "velocity": 0.5275590551181102
        },
        {
          "duration": 0.04166662500000484,
          "durationTicks": 12,
          "midi": 59,
          "name": "B3",
          "ticks": 21048,
          "time": 73.08326025,
          "velocity": 0.5275590551181102
        },
        {
          "duration": 0.04166662500000484,
          "durationTicks": 12,
          "midi": 54,
          "name": "F#3",
          "ticks": 21060,
          "time": 73.124926875,
          "velocity": 0.47244094488188976
        },
        {
          "duration": 0.04166662500000484,
          "durationTicks": 12,
          "midi": 58,
          "name": "A#3",
          "ticks": 21060,
          "time": 73.124926875,
          "velocity": 0.47244094488188976
        },
        {
          "duration": 0.04166662500000484,
          "durationTicks": 12,
          "midi": 49,
          "name": "C#3",
          "ticks": 21060,
          "time": 73.124926875,
          "velocity": 0.47244094488188976
        },
        {
          "duration": 0.04166662500000484,
          "durationTicks": 12,
          "midi": 61,
          "name": "C#4",
          "ticks": 21060,
          "time": 73.124926875,
          "velocity": 0.47244094488188976
        },
        {
          "duration": 0.04166662499999063,
          "durationTicks": 12,
          "midi": 57,
          "name": "A3",
          "ticks": 21072,
          "time": 73.1665935,
          "velocity": 0.41732283464566927
        },
        {
          "duration": 0.04166662499999063,
          "durationTicks": 12,
          "midi": 48,
          "name": "C3",
          "ticks": 21072,
          "time": 73.1665935,
          "velocity": 0.41732283464566927
        },
        {
          "duration": 0.04166662499999063,
          "durationTicks": 12,
          "midi": 60,
          "name": "C4",
          "ticks": 21072,
          "time": 73.1665935,
          "velocity": 0.41732283464566927
        },
        {
          "duration": 0.04166662499999063,
          "durationTicks": 12,
          "midi": 53,
          "name": "F3",
          "ticks": 21072,
          "time": 73.1665935,
          "velocity": 0.41732283464566927
        },
        {
          "duration": 0.04166662500000484,
          "durationTicks": 12,
          "midi": 56,
          "name": "G#3",
          "ticks": 21084,
          "time": 73.208260125,
          "velocity": 0.3543307086614173
        },
        {
          "duration": 0.04166662500000484,
          "durationTicks": 12,
          "midi": 47,
          "name": "B2",
          "ticks": 21084,
          "time": 73.208260125,
          "velocity": 0.3543307086614173
        },
        {
          "duration": 0.04166662500000484,
          "durationTicks": 12,
          "midi": 59,
          "name": "B3",
          "ticks": 21084,
          "time": 73.208260125,
          "velocity": 0.3543307086614173
        },
        {
          "duration": 0.04166662500000484,
          "durationTicks": 12,
          "midi": 52,
          "name": "E3",
          "ticks": 21084,
          "time": 73.208260125,
          "velocity": 0.3543307086614173
        },
        {
          "duration": 0.04166662499999063,
          "durationTicks": 12,
          "midi": 58,
          "name": "A#3",
          "ticks": 21096,
          "time": 73.24992675,
          "velocity": 0.2992125984251969
        },
        {
          "duration": 0.04166662499999063,
          "durationTicks": 12,
          "midi": 46,
          "name": "A#2",
          "ticks": 21096,
          "time": 73.24992675,
          "velocity": 0.2992125984251969
        },
        {
          "duration": 0.04166662499999063,
          "durationTicks": 12,
          "midi": 55,
          "name": "G3",
          "ticks": 21096,
          "time": 73.24992675,
          "velocity": 0.2992125984251969
        },
        {
          "duration": 0.04166662499999063,
          "durationTicks": 12,
          "midi": 51,
          "name": "D#3",
          "ticks": 21096,
          "time": 73.24992675,
          "velocity": 0.2992125984251969
        },
        {
          "duration": 0.04166662500000484,
          "durationTicks": 12,
          "midi": 57,
          "name": "A3",
          "ticks": 21108,
          "time": 73.29159337499999,
          "velocity": 0.2992125984251969
        },
        {
          "duration": 0.04166662500000484,
          "durationTicks": 12,
          "midi": 45,
          "name": "A2",
          "ticks": 21108,
          "time": 73.29159337499999,
          "velocity": 0.2992125984251969
        },
        {
          "duration": 0.04166662500000484,
          "durationTicks": 12,
          "midi": 54,
          "name": "F#3",
          "ticks": 21108,
          "time": 73.29159337499999,
          "velocity": 0.2992125984251969
        },
        {
          "duration": 0.04166662500000484,
          "durationTicks": 12,
          "midi": 50,
          "name": "D3",
          "ticks": 21108,
          "time": 73.29159337499999,
          "velocity": 0.2992125984251969
        },
        {
          "duration": 0.04166662500000484,
          "durationTicks": 12,
          "midi": 54,
          "name": "F#3",
          "ticks": 21156,
          "time": 73.458259875,
          "velocity": 0.47244094488188976
        },
        {
          "duration": 0.04166662500000484,
          "durationTicks": 12,
          "midi": 58,
          "name": "A#3",
          "ticks": 21156,
          "time": 73.458259875,
          "velocity": 0.47244094488188976
        },
        {
          "duration": 0.04166662500000484,
          "durationTicks": 12,
          "midi": 49,
          "name": "C#3",
          "ticks": 21156,
          "time": 73.458259875,
          "velocity": 0.47244094488188976
        },
        {
          "duration": 0.04166662500000484,
          "durationTicks": 12,
          "midi": 61,
          "name": "C#4",
          "ticks": 21156,
          "time": 73.458259875,
          "velocity": 0.47244094488188976
        },
        {
          "duration": 0.04166662499999063,
          "durationTicks": 12,
          "midi": 57,
          "name": "A3",
          "ticks": 21168,
          "time": 73.4999265,
          "velocity": 0.41732283464566927
        },
        {
          "duration": 0.04166662499999063,
          "durationTicks": 12,
          "midi": 48,
          "name": "C3",
          "ticks": 21168,
          "time": 73.4999265,
          "velocity": 0.41732283464566927
        },
        {
          "duration": 0.04166662499999063,
          "durationTicks": 12,
          "midi": 60,
          "name": "C4",
          "ticks": 21168,
          "time": 73.4999265,
          "velocity": 0.41732283464566927
        },
        {
          "duration": 0.04166662499999063,
          "durationTicks": 12,
          "midi": 53,
          "name": "F3",
          "ticks": 21168,
          "time": 73.4999265,
          "velocity": 0.41732283464566927
        },
        {
          "duration": 0.04166662500000484,
          "durationTicks": 12,
          "midi": 61,
          "name": "C#4",
          "ticks": 21228,
          "time": 73.708259625,
          "velocity": 0.47244094488188976
        },
        {
          "duration": 0.04166662500000484,
          "durationTicks": 12,
          "midi": 49,
          "name": "C#3",
          "ticks": 21228,
          "time": 73.708259625,
          "velocity": 0.47244094488188976
        },
        {
          "duration": 0.04166662500000484,
          "durationTicks": 12,
          "midi": 58,
          "name": "A#3",
          "ticks": 21228,
          "time": 73.708259625,
          "velocity": 0.47244094488188976
        },
        {
          "duration": 0.04166662500000484,
          "durationTicks": 12,
          "midi": 54,
          "name": "F#3",
          "ticks": 21228,
          "time": 73.708259625,
          "velocity": 0.47244094488188976
        },
        {
          "duration": 0.04166662499999063,
          "durationTicks": 12,
          "midi": 57,
          "name": "A3",
          "ticks": 21240,
          "time": 73.74992625,
          "velocity": 0.41732283464566927
        },
        {
          "duration": 0.04166662499999063,
          "durationTicks": 12,
          "midi": 48,
          "name": "C3",
          "ticks": 21240,
          "time": 73.74992625,
          "velocity": 0.41732283464566927
        },
        {
          "duration": 0.04166662499999063,
          "durationTicks": 12,
          "midi": 60,
          "name": "C4",
          "ticks": 21240,
          "time": 73.74992625,
          "velocity": 0.41732283464566927
        },
        {
          "duration": 0.04166662499999063,
          "durationTicks": 12,
          "midi": 53,
          "name": "F3",
          "ticks": 21240,
          "time": 73.74992625,
          "velocity": 0.41732283464566927
        },
        {
          "duration": 0.04166662500000484,
          "durationTicks": 12,
          "midi": 58,
          "name": "A#3",
          "ticks": 21288,
          "time": 73.91659274999999,
          "velocity": 0.5275590551181102
        },
        {
          "duration": 0.04166662500000484,
          "durationTicks": 12,
          "midi": 49,
          "name": "C#3",
          "ticks": 21288,
          "time": 73.91659274999999,
          "velocity": 0.5275590551181102
        },
        {
          "duration": 0.04166662500000484,
          "durationTicks": 12,
          "midi": 61,
          "name": "C#4",
          "ticks": 21288,
          "time": 73.91659274999999,
          "velocity": 0.5275590551181102
        },
        {
          "duration": 0.04166662500000484,
          "durationTicks": 12,
          "midi": 54,
          "name": "F#3",
          "ticks": 21288,
          "time": 73.91659274999999,
          "velocity": 0.5275590551181102
        },
        {
          "duration": 0.04166662500000484,
          "durationTicks": 12,
          "midi": 57,
          "name": "A3",
          "ticks": 21300,
          "time": 73.958259375,
          "velocity": 0.5275590551181102
        },
        {
          "duration": 0.04166662500000484,
          "durationTicks": 12,
          "midi": 48,
          "name": "C3",
          "ticks": 21300,
          "time": 73.958259375,
          "velocity": 0.5275590551181102
        },
        {
          "duration": 0.04166662500000484,
          "durationTicks": 12,
          "midi": 60,
          "name": "C4",
          "ticks": 21300,
          "time": 73.958259375,
          "velocity": 0.5275590551181102
        },
        {
          "duration": 0.04166662500000484,
          "durationTicks": 12,
          "midi": 53,
          "name": "F3",
          "ticks": 21300,
          "time": 73.958259375,
          "velocity": 0.5275590551181102
        },
        {
          "duration": 0.04166662500000484,
          "durationTicks": 12,
          "midi": 60,
          "name": "C4",
          "ticks": 21360,
          "time": 74.1665925,
          "velocity": 0.5826771653543307
        },
        {
          "duration": 0.04166662500000484,
          "durationTicks": 12,
          "midi": 51,
          "name": "D#3",
          "ticks": 21360,
          "time": 74.1665925,
          "velocity": 0.5826771653543307
        },
        {
          "duration": 0.04166662500000484,
          "durationTicks": 12,
          "midi": 56,
          "name": "G#3",
          "ticks": 21360,
          "time": 74.1665925,
          "velocity": 0.5826771653543307
        },
        {
          "duration": 0.04166662500000484,
          "durationTicks": 12,
          "midi": 55,
          "name": "G3",
          "ticks": 21372,
          "time": 74.208259125,
          "velocity": 0.5275590551181102
        },
        {
          "duration": 0.04166662500000484,
          "durationTicks": 12,
          "midi": 50,
          "name": "D3",
          "ticks": 21372,
          "time": 74.208259125,
          "velocity": 0.5275590551181102
        },
        {
          "duration": 0.04166662500000484,
          "durationTicks": 12,
          "midi": 59,
          "name": "B3",
          "ticks": 21372,
          "time": 74.208259125,
          "velocity": 0.5275590551181102
        },
        {
          "duration": 0.04166662499999063,
          "durationTicks": 12,
          "midi": 54,
          "name": "F#3",
          "ticks": 21384,
          "time": 74.24992575,
          "velocity": 0.47244094488188976
        },
        {
          "duration": 0.04166662499999063,
          "durationTicks": 12,
          "midi": 49,
          "name": "C#3",
          "ticks": 21384,
          "time": 74.24992575,
          "velocity": 0.47244094488188976
        },
        {
          "duration": 0.04166662499999063,
          "durationTicks": 12,
          "midi": 58,
          "name": "A#3",
          "ticks": 21384,
          "time": 74.24992575,
          "velocity": 0.47244094488188976
        },
        {
          "duration": 0.04166662500000484,
          "durationTicks": 12,
          "midi": 53,
          "name": "F3",
          "ticks": 21396,
          "time": 74.291592375,
          "velocity": 0.47244094488188976
        },
        {
          "duration": 0.04166662500000484,
          "durationTicks": 12,
          "midi": 48,
          "name": "C3",
          "ticks": 21396,
          "time": 74.291592375,
          "velocity": 0.47244094488188976
        },
        {
          "duration": 0.04166662500000484,
          "durationTicks": 12,
          "midi": 57,
          "name": "A3",
          "ticks": 21396,
          "time": 74.291592375,
          "velocity": 0.47244094488188976
        },
        {
          "duration": 0.04166662499999063,
          "durationTicks": 12,
          "midi": 61,
          "name": "C#4",
          "ticks": 21456,
          "time": 74.4999255,
          "velocity": 0.5826771653543307
        },
        {
          "duration": 0.04166662499999063,
          "durationTicks": 12,
          "midi": 52,
          "name": "E3",
          "ticks": 21456,
          "time": 74.4999255,
          "velocity": 0.5826771653543307
        },
        {
          "duration": 0.04166662499999063,
          "durationTicks": 12,
          "midi": 57,
          "name": "A3",
          "ticks": 21456,
          "time": 74.4999255,
          "velocity": 0.5826771653543307
        },
        {
          "duration": 0.04166662500000484,
          "durationTicks": 12,
          "midi": 60,
          "name": "C4",
          "ticks": 21468,
          "time": 74.541592125,
          "velocity": 0.5275590551181102
        },
        {
          "duration": 0.04166662500000484,
          "durationTicks": 12,
          "midi": 51,
          "name": "D#3",
          "ticks": 21468,
          "time": 74.541592125,
          "velocity": 0.5275590551181102
        },
        {
          "duration": 0.04166662500000484,
          "durationTicks": 12,
          "midi": 56,
          "name": "G#3",
          "ticks": 21468,
          "time": 74.541592125,
          "velocity": 0.5275590551181102
        },
        {
          "duration": 0.04166662500000484,
          "durationTicks": 12,
          "midi": 59,
          "name": "B3",
          "ticks": 21480,
          "time": 74.58325875,
          "velocity": 0.47244094488188976
        },
        {
          "duration": 0.04166662500000484,
          "durationTicks": 12,
          "midi": 50,
          "name": "D3",
          "ticks": 21480,
          "time": 74.58325875,
          "velocity": 0.47244094488188976
        },
        {
          "duration": 0.04166662500000484,
          "durationTicks": 12,
          "midi": 55,
          "name": "G3",
          "ticks": 21480,
          "time": 74.58325875,
          "velocity": 0.47244094488188976
        },
        {
          "duration": 0.04166662499999063,
          "durationTicks": 12,
          "midi": 58,
          "name": "A#3",
          "ticks": 21492,
          "time": 74.624925375,
          "velocity": 0.41732283464566927
        },
        {
          "duration": 0.04166662499999063,
          "durationTicks": 12,
          "midi": 49,
          "name": "C#3",
          "ticks": 21492,
          "time": 74.624925375,
          "velocity": 0.41732283464566927
        },
        {
          "duration": 0.04166662499999063,
          "durationTicks": 12,
          "midi": 54,
          "name": "F#3",
          "ticks": 21492,
          "time": 74.624925375,
          "velocity": 0.41732283464566927
        },
        {
          "duration": 0.04166662500000484,
          "durationTicks": 12,
          "midi": 50,
          "name": "D3",
          "ticks": 21792,
          "time": 75.666591,
          "velocity": 0.28346456692913385
        },
        {
          "duration": 0.04166662500000484,
          "durationTicks": 12,
          "midi": 62,
          "name": "D4",
          "ticks": 21792,
          "time": 75.666591,
          "velocity": 0.28346456692913385
        },
        {
          "duration": 0.04166662500000484,
          "durationTicks": 12,
          "midi": 57,
          "name": "A3",
          "ticks": 21792,
          "time": 75.666591,
          "velocity": 0.28346456692913385
        },
        {
          "duration": 0.04166662500000484,
          "durationTicks": 12,
          "midi": 54,
          "name": "F#3",
          "ticks": 21792,
          "time": 75.666591,
          "velocity": 0.28346456692913385
        },
        {
          "duration": 0.04166662499999063,
          "durationTicks": 12,
          "midi": 54,
          "name": "F#3",
          "ticks": 21840,
          "time": 75.8332575,
          "velocity": 0.30708661417322836
        },
        {
          "duration": 0.04166662499999063,
          "durationTicks": 12,
          "midi": 57,
          "name": "A3",
          "ticks": 21840,
          "time": 75.8332575,
          "velocity": 0.30708661417322836
        },
        {
          "duration": 0.04166662499999063,
          "durationTicks": 12,
          "midi": 62,
          "name": "D4",
          "ticks": 21840,
          "time": 75.8332575,
          "velocity": 0.30708661417322836
        },
        {
          "duration": 0.04166662499999063,
          "durationTicks": 12,
          "midi": 50,
          "name": "D3",
          "ticks": 21840,
          "time": 75.8332575,
          "velocity": 0.30708661417322836
        },
        {
          "duration": 0.04166662500000484,
          "durationTicks": 12,
          "midi": 50,
          "name": "D3",
          "ticks": 21888,
          "time": 75.999924,
          "velocity": 0.28346456692913385
        },
        {
          "duration": 0.04166662500000484,
          "durationTicks": 12,
          "midi": 62,
          "name": "D4",
          "ticks": 21888,
          "time": 75.999924,
          "velocity": 0.28346456692913385
        },
        {
          "duration": 0.04166662500000484,
          "durationTicks": 12,
          "midi": 57,
          "name": "A3",
          "ticks": 21888,
          "time": 75.999924,
          "velocity": 0.28346456692913385
        },
        {
          "duration": 0.04166662500000484,
          "durationTicks": 12,
          "midi": 54,
          "name": "F#3",
          "ticks": 21888,
          "time": 75.999924,
          "velocity": 0.28346456692913385
        },
        {
          "duration": 0.04166662500000484,
          "durationTicks": 12,
          "midi": 54,
          "name": "F#3",
          "ticks": 21936,
          "time": 76.1665905,
          "velocity": 0.30708661417322836
        },
        {
          "duration": 0.04166662500000484,
          "durationTicks": 12,
          "midi": 57,
          "name": "A3",
          "ticks": 21936,
          "time": 76.1665905,
          "velocity": 0.30708661417322836
        },
        {
          "duration": 0.04166662500000484,
          "durationTicks": 12,
          "midi": 62,
          "name": "D4",
          "ticks": 21936,
          "time": 76.1665905,
          "velocity": 0.30708661417322836
        },
        {
          "duration": 0.04166662500000484,
          "durationTicks": 12,
          "midi": 50,
          "name": "D3",
          "ticks": 21936,
          "time": 76.1665905,
          "velocity": 0.30708661417322836
        },
        {
          "duration": 0.08333324999999547,
          "durationTicks": 24,
          "midi": 50,
          "name": "D3",
          "ticks": 21984,
          "time": 76.333257,
          "velocity": 0.33070866141732286
        },
        {
          "duration": 0.08333324999999547,
          "durationTicks": 24,
          "midi": 62,
          "name": "D4",
          "ticks": 21984,
          "time": 76.333257,
          "velocity": 0.33070866141732286
        },
        {
          "duration": 0.08333324999999547,
          "durationTicks": 24,
          "midi": 57,
          "name": "A3",
          "ticks": 21984,
          "time": 76.333257,
          "velocity": 0.33070866141732286
        },
        {
          "duration": 0.08333324999999547,
          "durationTicks": 24,
          "midi": 54,
          "name": "F#3",
          "ticks": 21984,
          "time": 76.333257,
          "velocity": 0.33070866141732286
        },
        {
          "duration": 0.08333325000000968,
          "durationTicks": 24,
          "midi": 54,
          "name": "F#3",
          "ticks": 22032,
          "time": 76.4999235,
          "velocity": 0.36220472440944884
        },
        {
          "duration": 0.08333325000000968,
          "durationTicks": 24,
          "midi": 57,
          "name": "A3",
          "ticks": 22032,
          "time": 76.4999235,
          "velocity": 0.36220472440944884
        },
        {
          "duration": 0.08333325000000968,
          "durationTicks": 24,
          "midi": 62,
          "name": "D4",
          "ticks": 22032,
          "time": 76.4999235,
          "velocity": 0.36220472440944884
        },
        {
          "duration": 0.08333325000000968,
          "durationTicks": 24,
          "midi": 50,
          "name": "D3",
          "ticks": 22032,
          "time": 76.4999235,
          "velocity": 0.36220472440944884
        },
        {
          "duration": 0.12499987500000032,
          "durationTicks": 36,
          "midi": 54,
          "name": "F#3",
          "ticks": 22080,
          "time": 76.66659,
          "velocity": 0.3858267716535433
        },
        {
          "duration": 0.12499987500000032,
          "durationTicks": 36,
          "midi": 57,
          "name": "A3",
          "ticks": 22080,
          "time": 76.66659,
          "velocity": 0.3858267716535433
        },
        {
          "duration": 0.12499987500000032,
          "durationTicks": 36,
          "midi": 62,
          "name": "D4",
          "ticks": 22080,
          "time": 76.66659,
          "velocity": 0.3858267716535433
        },
        {
          "duration": 0.12499987500000032,
          "durationTicks": 36,
          "midi": 50,
          "name": "D3",
          "ticks": 22080,
          "time": 76.66659,
          "velocity": 0.3858267716535433
        },
        {
          "duration": 0.12499987500000032,
          "durationTicks": 36,
          "midi": 50,
          "name": "D3",
          "ticks": 22128,
          "time": 76.8332565,
          "velocity": 0.4094488188976378
        },
        {
          "duration": 0.12499987500000032,
          "durationTicks": 36,
          "midi": 62,
          "name": "D4",
          "ticks": 22128,
          "time": 76.8332565,
          "velocity": 0.4094488188976378
        },
        {
          "duration": 0.12499987500000032,
          "durationTicks": 36,
          "midi": 57,
          "name": "A3",
          "ticks": 22128,
          "time": 76.8332565,
          "velocity": 0.4094488188976378
        },
        {
          "duration": 0.12499987500000032,
          "durationTicks": 36,
          "midi": 54,
          "name": "F#3",
          "ticks": 22128,
          "time": 76.8332565,
          "velocity": 0.4094488188976378
        },
        {
          "duration": 0.24999975000000063,
          "durationTicks": 72,
          "midi": 50,
          "name": "D3",
          "ticks": 22176,
          "time": 76.999923,
          "velocity": 0.4409448818897638
        },
        {
          "duration": 0.24999975000000063,
          "durationTicks": 72,
          "midi": 62,
          "name": "D4",
          "ticks": 22176,
          "time": 76.999923,
          "velocity": 0.4409448818897638
        },
        {
          "duration": 0.24999975000000063,
          "durationTicks": 72,
          "midi": 57,
          "name": "A3",
          "ticks": 22176,
          "time": 76.999923,
          "velocity": 0.4409448818897638
        },
        {
          "duration": 0.24999975000000063,
          "durationTicks": 72,
          "midi": 54,
          "name": "F#3",
          "ticks": 22176,
          "time": 76.999923,
          "velocity": 0.4409448818897638
        },
        {
          "duration": 0.08333325000000968,
          "durationTicks": 24,
          "midi": 60,
          "name": "C4",
          "ticks": 22272,
          "time": 77.33325599999999,
          "velocity": 0.25196850393700787
        },
        {
          "duration": 0.08333325000000968,
          "durationTicks": 24,
          "midi": 50,
          "name": "D3",
          "ticks": 22272,
          "time": 77.33325599999999,
          "velocity": 0.25196850393700787
        },
        {
          "duration": 0.08333325000000968,
          "durationTicks": 24,
          "midi": 57,
          "name": "A3",
          "ticks": 22272,
          "time": 77.33325599999999,
          "velocity": 0.25196850393700787
        },
        {
          "duration": 0.08333325000000968,
          "durationTicks": 24,
          "midi": 53,
          "name": "F3",
          "ticks": 22272,
          "time": 77.33325599999999,
          "velocity": 0.25196850393700787
        },
        {
          "duration": 0.08333324999999547,
          "durationTicks": 24,
          "midi": 60,
          "name": "C4",
          "ticks": 22320,
          "time": 77.4999225,
          "velocity": 0.28346456692913385
        },
        {
          "duration": 0.08333324999999547,
          "durationTicks": 24,
          "midi": 53,
          "name": "F3",
          "ticks": 22320,
          "time": 77.4999225,
          "velocity": 0.28346456692913385
        },
        {
          "duration": 0.08333324999999547,
          "durationTicks": 24,
          "midi": 57,
          "name": "A3",
          "ticks": 22320,
          "time": 77.4999225,
          "velocity": 0.28346456692913385
        },
        {
          "duration": 0.08333324999999547,
          "durationTicks": 24,
          "midi": 50,
          "name": "D3",
          "ticks": 22320,
          "time": 77.4999225,
          "velocity": 0.28346456692913385
        },
        {
          "duration": 0.08333324999999547,
          "durationTicks": 24,
          "midi": 50,
          "name": "D3",
          "ticks": 22368,
          "time": 77.666589,
          "velocity": 0.30708661417322836
        },
        {
          "duration": 0.08333324999999547,
          "durationTicks": 24,
          "midi": 57,
          "name": "A3",
          "ticks": 22368,
          "time": 77.666589,
          "velocity": 0.30708661417322836
        },
        {
          "duration": 0.08333324999999547,
          "durationTicks": 24,
          "midi": 53,
          "name": "F3",
          "ticks": 22368,
          "time": 77.666589,
          "velocity": 0.30708661417322836
        },
        {
          "duration": 0.08333324999999547,
          "durationTicks": 24,
          "midi": 60,
          "name": "C4",
          "ticks": 22368,
          "time": 77.666589,
          "velocity": 0.30708661417322836
        },
        {
          "duration": 0.08333325000000968,
          "durationTicks": 24,
          "midi": 50,
          "name": "D3",
          "ticks": 22416,
          "time": 77.83325549999999,
          "velocity": 0.33858267716535434
        },
        {
          "duration": 0.08333325000000968,
          "durationTicks": 24,
          "midi": 57,
          "name": "A3",
          "ticks": 22416,
          "time": 77.83325549999999,
          "velocity": 0.33858267716535434
        },
        {
          "duration": 0.08333325000000968,
          "durationTicks": 24,
          "midi": 53,
          "name": "F3",
          "ticks": 22416,
          "time": 77.83325549999999,
          "velocity": 0.33858267716535434
        },
        {
          "duration": 0.08333325000000968,
          "durationTicks": 24,
          "midi": 60,
          "name": "C4",
          "ticks": 22416,
          "time": 77.83325549999999,
          "velocity": 0.33858267716535434
        },
        {
          "duration": 0.12499987500000032,
          "durationTicks": 36,
          "midi": 53,
          "name": "F3",
          "ticks": 22464,
          "time": 77.999922,
          "velocity": 0.3700787401574803
        },
        {
          "duration": 0.12499987500000032,
          "durationTicks": 36,
          "midi": 57,
          "name": "A3",
          "ticks": 22464,
          "time": 77.999922,
          "velocity": 0.3700787401574803
        },
        {
          "duration": 0.12499987500000032,
          "durationTicks": 36,
          "midi": 50,
          "name": "D3",
          "ticks": 22464,
          "time": 77.999922,
          "velocity": 0.3700787401574803
        },
        {
          "duration": 0.12499987500000032,
          "durationTicks": 36,
          "midi": 60,
          "name": "C4",
          "ticks": 22464,
          "time": 77.999922,
          "velocity": 0.3700787401574803
        },
        {
          "duration": 0.12499987500000032,
          "durationTicks": 36,
          "midi": 53,
          "name": "F3",
          "ticks": 22512,
          "time": 78.1665885,
          "velocity": 0.4015748031496063
        },
        {
          "duration": 0.12499987500000032,
          "durationTicks": 36,
          "midi": 57,
          "name": "A3",
          "ticks": 22512,
          "time": 78.1665885,
          "velocity": 0.4015748031496063
        },
        {
          "duration": 0.12499987500000032,
          "durationTicks": 36,
          "midi": 50,
          "name": "D3",
          "ticks": 22512,
          "time": 78.1665885,
          "velocity": 0.4015748031496063
        },
        {
          "duration": 0.12499987500000032,
          "durationTicks": 36,
          "midi": 60,
          "name": "C4",
          "ticks": 22512,
          "time": 78.1665885,
          "velocity": 0.4015748031496063
        },
        {
          "duration": 0.12499987500000032,
          "durationTicks": 36,
          "midi": 60,
          "name": "C4",
          "ticks": 22560,
          "time": 78.333255,
          "velocity": 0.4251968503937008
        },
        {
          "duration": 0.12499987500000032,
          "durationTicks": 36,
          "midi": 50,
          "name": "D3",
          "ticks": 22560,
          "time": 78.333255,
          "velocity": 0.4251968503937008
        },
        {
          "duration": 0.12499987500000032,
          "durationTicks": 36,
          "midi": 57,
          "name": "A3",
          "ticks": 22560,
          "time": 78.333255,
          "velocity": 0.4251968503937008
        },
        {
          "duration": 0.12499987500000032,
          "durationTicks": 36,
          "midi": 53,
          "name": "F3",
          "ticks": 22560,
          "time": 78.333255,
          "velocity": 0.4251968503937008
        },
        {
          "duration": 0.12499987500000032,
          "durationTicks": 36,
          "midi": 53,
          "name": "F3",
          "ticks": 22608,
          "time": 78.4999215,
          "velocity": 0.4566929133858268
        },
        {
          "duration": 0.12499987500000032,
          "durationTicks": 36,
          "midi": 57,
          "name": "A3",
          "ticks": 22608,
          "time": 78.4999215,
          "velocity": 0.4566929133858268
        },
        {
          "duration": 0.12499987500000032,
          "durationTicks": 36,
          "midi": 50,
          "name": "D3",
          "ticks": 22608,
          "time": 78.4999215,
          "velocity": 0.4566929133858268
        },
        {
          "duration": 0.12499987500000032,
          "durationTicks": 36,
          "midi": 60,
          "name": "C4",
          "ticks": 22608,
          "time": 78.4999215,
          "velocity": 0.4566929133858268
        },
        {
          "duration": 0.06249993749999305,
          "durationTicks": 18,
          "midi": 52,
          "name": "E3",
          "ticks": 23808,
          "time": 82.666584,
          "velocity": 0.4251968503937008
        },
        {
          "duration": 0.06249993749999305,
          "durationTicks": 18,
          "midi": 56,
          "name": "G#3",
          "ticks": 23808,
          "time": 82.666584,
          "velocity": 0.4251968503937008
        },
        {
          "duration": 0.06249993749999305,
          "durationTicks": 18,
          "midi": 49,
          "name": "C#3",
          "ticks": 23808,
          "time": 82.666584,
          "velocity": 0.4251968503937008
        },
        {
          "duration": 0.06249993749999305,
          "durationTicks": 18,
          "midi": 59,
          "name": "B3",
          "ticks": 23808,
          "time": 82.666584,
          "velocity": 0.4251968503937008
        },
        {
          "duration": 0.06249993750000726,
          "durationTicks": 18,
          "midi": 59,
          "name": "B3",
          "ticks": 23856,
          "time": 82.83325049999999,
          "velocity": 0.4645669291338583
        },
        {
          "duration": 0.06249993750000726,
          "durationTicks": 18,
          "midi": 49,
          "name": "C#3",
          "ticks": 23856,
          "time": 82.83325049999999,
          "velocity": 0.4645669291338583
        },
        {
          "duration": 0.06249993750000726,
          "durationTicks": 18,
          "midi": 56,
          "name": "G#3",
          "ticks": 23856,
          "time": 82.83325049999999,
          "velocity": 0.4645669291338583
        },
        {
          "duration": 0.06249993750000726,
          "durationTicks": 18,
          "midi": 52,
          "name": "E3",
          "ticks": 23856,
          "time": 82.83325049999999,
          "velocity": 0.4645669291338583
        },
        {
          "duration": 0.06249993750000726,
          "durationTicks": 18,
          "midi": 59,
          "name": "B3",
          "ticks": 23904,
          "time": 82.999917,
          "velocity": 0.5118110236220472
        },
        {
          "duration": 0.06249993750000726,
          "durationTicks": 18,
          "midi": 49,
          "name": "C#3",
          "ticks": 23904,
          "time": 82.999917,
          "velocity": 0.5118110236220472
        },
        {
          "duration": 0.06249993750000726,
          "durationTicks": 18,
          "midi": 56,
          "name": "G#3",
          "ticks": 23904,
          "time": 82.999917,
          "velocity": 0.5118110236220472
        },
        {
          "duration": 0.06249993750000726,
          "durationTicks": 18,
          "midi": 52,
          "name": "E3",
          "ticks": 23904,
          "time": 82.999917,
          "velocity": 0.5118110236220472
        },
        {
          "duration": 0.06249993749999305,
          "durationTicks": 18,
          "midi": 59,
          "name": "B3",
          "ticks": 23952,
          "time": 83.1665835,
          "velocity": 0.5511811023622047
        },
        {
          "duration": 0.06249993749999305,
          "durationTicks": 18,
          "midi": 49,
          "name": "C#3",
          "ticks": 23952,
          "time": 83.1665835,
          "velocity": 0.5511811023622047
        },
        {
          "duration": 0.06249993749999305,
          "durationTicks": 18,
          "midi": 56,
          "name": "G#3",
          "ticks": 23952,
          "time": 83.1665835,
          "velocity": 0.5511811023622047
        },
        {
          "duration": 0.06249993749999305,
          "durationTicks": 18,
          "midi": 52,
          "name": "E3",
          "ticks": 23952,
          "time": 83.1665835,
          "velocity": 0.5511811023622047
        },
        {
          "duration": 0.06249993749999305,
          "durationTicks": 18,
          "midi": 52,
          "name": "E3",
          "ticks": 24576,
          "time": 85.333248,
          "velocity": 0.4409448818897638
        },
        {
          "duration": 0.06249993749999305,
          "durationTicks": 18,
          "midi": 57,
          "name": "A3",
          "ticks": 24576,
          "time": 85.333248,
          "velocity": 0.4409448818897638
        },
        {
          "duration": 0.06249993749999305,
          "durationTicks": 18,
          "midi": 61,
          "name": "C#4",
          "ticks": 24576,
          "time": 85.333248,
          "velocity": 0.4409448818897638
        },
        {
          "duration": 0.06249993749999305,
          "durationTicks": 18,
          "midi": 50,
          "name": "D3",
          "ticks": 24576,
          "time": 85.333248,
          "velocity": 0.4409448818897638
        },
        {
          "duration": 0.06249993749999305,
          "durationTicks": 18,
          "midi": 52,
          "name": "E3",
          "ticks": 24624,
          "time": 85.4999145,
          "velocity": 0.48031496062992124
        },
        {
          "duration": 0.06249993749999305,
          "durationTicks": 18,
          "midi": 57,
          "name": "A3",
          "ticks": 24624,
          "time": 85.4999145,
          "velocity": 0.48031496062992124
        },
        {
          "duration": 0.06249993749999305,
          "durationTicks": 18,
          "midi": 61,
          "name": "C#4",
          "ticks": 24624,
          "time": 85.4999145,
          "velocity": 0.48031496062992124
        },
        {
          "duration": 0.06249993749999305,
          "durationTicks": 18,
          "midi": 50,
          "name": "D3",
          "ticks": 24624,
          "time": 85.4999145,
          "velocity": 0.48031496062992124
        },
        {
          "duration": 0.06249993750000726,
          "durationTicks": 18,
          "midi": 57,
          "name": "A3",
          "ticks": 24672,
          "time": 85.666581,
          "velocity": 0.5118110236220472
        },
        {
          "duration": 0.06249993750000726,
          "durationTicks": 18,
          "midi": 52,
          "name": "E3",
          "ticks": 24672,
          "time": 85.666581,
          "velocity": 0.5118110236220472
        },
        {
          "duration": 0.06249993750000726,
          "durationTicks": 18,
          "midi": 61,
          "name": "C#4",
          "ticks": 24672,
          "time": 85.666581,
          "velocity": 0.5118110236220472
        },
        {
          "duration": 0.06249993750000726,
          "durationTicks": 18,
          "midi": 50,
          "name": "D3",
          "ticks": 24672,
          "time": 85.666581,
          "velocity": 0.5118110236220472
        },
        {
          "duration": 0.06249993749999305,
          "durationTicks": 18,
          "midi": 52,
          "name": "E3",
          "ticks": 24720,
          "time": 85.8332475,
          "velocity": 0.5511811023622047
        },
        {
          "duration": 0.06249993749999305,
          "durationTicks": 18,
          "midi": 57,
          "name": "A3",
          "ticks": 24720,
          "time": 85.8332475,
          "velocity": 0.5511811023622047
        },
        {
          "duration": 0.06249993749999305,
          "durationTicks": 18,
          "midi": 61,
          "name": "C#4",
          "ticks": 24720,
          "time": 85.8332475,
          "velocity": 0.5511811023622047
        },
        {
          "duration": 0.06249993749999305,
          "durationTicks": 18,
          "midi": 50,
          "name": "D3",
          "ticks": 24720,
          "time": 85.8332475,
          "velocity": 0.5511811023622047
        },
        {
          "duration": 0.06249993750000726,
          "durationTicks": 18,
          "midi": 57,
          "name": "A3",
          "ticks": 25344,
          "time": 87.999912,
          "velocity": 0.4330708661417323
        },
        {
          "duration": 0.06249993750000726,
          "durationTicks": 18,
          "midi": 50,
          "name": "D3",
          "ticks": 25344,
          "time": 87.999912,
          "velocity": 0.4330708661417323
        },
        {
          "duration": 0.06249993750000726,
          "durationTicks": 18,
          "midi": 45,
          "name": "A2",
          "ticks": 25344,
          "time": 87.999912,
          "velocity": 0.4330708661417323
        },
        {
          "duration": 0.06249993750000726,
          "durationTicks": 18,
          "midi": 54,
          "name": "F#3",
          "ticks": 25344,
          "time": 87.999912,
          "velocity": 0.4330708661417323
        },
        {
          "duration": 0.06249993749999305,
          "durationTicks": 18,
          "midi": 57,
          "name": "A3",
          "ticks": 25392,
          "time": 88.1665785,
          "velocity": 0.44881889763779526
        },
        {
          "duration": 0.06249993749999305,
          "durationTicks": 18,
          "midi": 50,
          "name": "D3",
          "ticks": 25392,
          "time": 88.1665785,
          "velocity": 0.44881889763779526
        },
        {
          "duration": 0.06249993749999305,
          "durationTicks": 18,
          "midi": 45,
          "name": "A2",
          "ticks": 25392,
          "time": 88.1665785,
          "velocity": 0.44881889763779526
        },
        {
          "duration": 0.06249993749999305,
          "durationTicks": 18,
          "midi": 54,
          "name": "F#3",
          "ticks": 25392,
          "time": 88.1665785,
          "velocity": 0.44881889763779526
        },
        {
          "duration": 0.06249993750000726,
          "durationTicks": 18,
          "midi": 57,
          "name": "A3",
          "ticks": 25440,
          "time": 88.33324499999999,
          "velocity": 0.4645669291338583
        },
        {
          "duration": 0.06249993750000726,
          "durationTicks": 18,
          "midi": 50,
          "name": "D3",
          "ticks": 25440,
          "time": 88.33324499999999,
          "velocity": 0.4645669291338583
        },
        {
          "duration": 0.06249993750000726,
          "durationTicks": 18,
          "midi": 45,
          "name": "A2",
          "ticks": 25440,
          "time": 88.33324499999999,
          "velocity": 0.4645669291338583
        },
        {
          "duration": 0.06249993750000726,
          "durationTicks": 18,
          "midi": 54,
          "name": "F#3",
          "ticks": 25440,
          "time": 88.33324499999999,
          "velocity": 0.4645669291338583
        },
        {
          "duration": 0.06249993750000726,
          "durationTicks": 18,
          "midi": 57,
          "name": "A3",
          "ticks": 25488,
          "time": 88.4999115,
          "velocity": 0.48031496062992124
        },
        {
          "duration": 0.06249993750000726,
          "durationTicks": 18,
          "midi": 50,
          "name": "D3",
          "ticks": 25488,
          "time": 88.4999115,
          "velocity": 0.48031496062992124
        },
        {
          "duration": 0.06249993750000726,
          "durationTicks": 18,
          "midi": 45,
          "name": "A2",
          "ticks": 25488,
          "time": 88.4999115,
          "velocity": 0.48031496062992124
        },
        {
          "duration": 0.06249993750000726,
          "durationTicks": 18,
          "midi": 54,
          "name": "F#3",
          "ticks": 25488,
          "time": 88.4999115,
          "velocity": 0.48031496062992124
        },
        {
          "duration": 0.06249993749999305,
          "durationTicks": 18,
          "midi": 50,
          "name": "D3",
          "ticks": 25536,
          "time": 88.666578,
          "velocity": 0.4330708661417323
        },
        {
          "duration": 0.06249993749999305,
          "durationTicks": 18,
          "midi": 47,
          "name": "B2",
          "ticks": 25536,
          "time": 88.666578,
          "velocity": 0.4330708661417323
        },
        {
          "duration": 0.06249993749999305,
          "durationTicks": 18,
          "midi": 53,
          "name": "F3",
          "ticks": 25536,
          "time": 88.666578,
          "velocity": 0.4330708661417323
        },
        {
          "duration": 0.06249993749999305,
          "durationTicks": 18,
          "midi": 59,
          "name": "B3",
          "ticks": 25536,
          "time": 88.666578,
          "velocity": 0.4330708661417323
        },
        {
          "duration": 0.06249993750000726,
          "durationTicks": 18,
          "midi": 50,
          "name": "D3",
          "ticks": 25584,
          "time": 88.83324449999999,
          "velocity": 0.44881889763779526
        },
        {
          "duration": 0.06249993750000726,
          "durationTicks": 18,
          "midi": 47,
          "name": "B2",
          "ticks": 25584,
          "time": 88.83324449999999,
          "velocity": 0.44881889763779526
        },
        {
          "duration": 0.06249993750000726,
          "durationTicks": 18,
          "midi": 53,
          "name": "F3",
          "ticks": 25584,
          "time": 88.83324449999999,
          "velocity": 0.44881889763779526
        },
        {
          "duration": 0.06249993750000726,
          "durationTicks": 18,
          "midi": 59,
          "name": "B3",
          "ticks": 25584,
          "time": 88.83324449999999,
          "velocity": 0.44881889763779526
        },
        {
          "duration": 0.06249993749999305,
          "durationTicks": 18,
          "midi": 50,
          "name": "D3",
          "ticks": 25632,
          "time": 88.999911,
          "velocity": 0.4645669291338583
        },
        {
          "duration": 0.06249993749999305,
          "durationTicks": 18,
          "midi": 47,
          "name": "B2",
          "ticks": 25632,
          "time": 88.999911,
          "velocity": 0.4645669291338583
        },
        {
          "duration": 0.06249993749999305,
          "durationTicks": 18,
          "midi": 53,
          "name": "F3",
          "ticks": 25632,
          "time": 88.999911,
          "velocity": 0.4645669291338583
        },
        {
          "duration": 0.06249993749999305,
          "durationTicks": 18,
          "midi": 59,
          "name": "B3",
          "ticks": 25632,
          "time": 88.999911,
          "velocity": 0.4645669291338583
        },
        {
          "duration": 0.06249993749999305,
          "durationTicks": 18,
          "midi": 50,
          "name": "D3",
          "ticks": 25680,
          "time": 89.1665775,
          "velocity": 0.48031496062992124
        },
        {
          "duration": 0.06249993749999305,
          "durationTicks": 18,
          "midi": 47,
          "name": "B2",
          "ticks": 25680,
          "time": 89.1665775,
          "velocity": 0.48031496062992124
        },
        {
          "duration": 0.06249993749999305,
          "durationTicks": 18,
          "midi": 53,
          "name": "F3",
          "ticks": 25680,
          "time": 89.1665775,
          "velocity": 0.48031496062992124
        },
        {
          "duration": 0.06249993749999305,
          "durationTicks": 18,
          "midi": 59,
          "name": "B3",
          "ticks": 25680,
          "time": 89.1665775,
          "velocity": 0.48031496062992124
        },
        {
          "duration": 0.02777774999998428,
          "durationTicks": 8,
          "midi": 50,
          "name": "D3",
          "ticks": 42240,
          "time": 146.66652,
          "velocity": 0.2755905511811024
        },
        {
          "duration": 0.02777774999998428,
          "durationTicks": 8,
          "midi": 61,
          "name": "C#4",
          "ticks": 42240,
          "time": 146.66652,
          "velocity": 0.2755905511811024
        },
        {
          "duration": 0.02777774999998428,
          "durationTicks": 8,
          "midi": 57,
          "name": "A3",
          "ticks": 42240,
          "time": 146.66652,
          "velocity": 0.2755905511811024
        },
        {
          "duration": 0.02777774999998428,
          "durationTicks": 8,
          "midi": 66,
          "name": "F#4",
          "ticks": 42240,
          "time": 146.66652,
          "velocity": 0.2755905511811024
        },
        {
          "duration": 0.027777750000012702,
          "durationTicks": 8,
          "midi": 66,
          "name": "F#4",
          "ticks": 42288,
          "time": 146.83318649999998,
          "velocity": 0.28346456692913385
        },
        {
          "duration": 0.027777750000012702,
          "durationTicks": 8,
          "midi": 57,
          "name": "A3",
          "ticks": 42288,
          "time": 146.83318649999998,
          "velocity": 0.28346456692913385
        },
        {
          "duration": 0.027777750000012702,
          "durationTicks": 8,
          "midi": 61,
          "name": "C#4",
          "ticks": 42288,
          "time": 146.83318649999998,
          "velocity": 0.28346456692913385
        },
        {
          "duration": 0.027777750000012702,
          "durationTicks": 8,
          "midi": 50,
          "name": "D3",
          "ticks": 42288,
          "time": 146.83318649999998,
          "velocity": 0.28346456692913385
        },
        {
          "duration": 0.02777774999998428,
          "durationTicks": 8,
          "midi": 66,
          "name": "F#4",
          "ticks": 42336,
          "time": 146.999853,
          "velocity": 0.29133858267716534
        },
        {
          "duration": 0.02777774999998428,
          "durationTicks": 8,
          "midi": 57,
          "name": "A3",
          "ticks": 42336,
          "time": 146.999853,
          "velocity": 0.29133858267716534
        },
        {
          "duration": 0.02777774999998428,
          "durationTicks": 8,
          "midi": 61,
          "name": "C#4",
          "ticks": 42336,
          "time": 146.999853,
          "velocity": 0.29133858267716534
        },
        {
          "duration": 0.02777774999998428,
          "durationTicks": 8,
          "midi": 50,
          "name": "D3",
          "ticks": 42336,
          "time": 146.999853,
          "velocity": 0.29133858267716534
        },
        {
          "duration": 0.02777774999998428,
          "durationTicks": 8,
          "midi": 66,
          "name": "F#4",
          "ticks": 42384,
          "time": 147.1665195,
          "velocity": 0.29133858267716534
        },
        {
          "duration": 0.02777774999998428,
          "durationTicks": 8,
          "midi": 57,
          "name": "A3",
          "ticks": 42384,
          "time": 147.1665195,
          "velocity": 0.29133858267716534
        },
        {
          "duration": 0.02777774999998428,
          "durationTicks": 8,
          "midi": 61,
          "name": "C#4",
          "ticks": 42384,
          "time": 147.1665195,
          "velocity": 0.29133858267716534
        },
        {
          "duration": 0.02777774999998428,
          "durationTicks": 8,
          "midi": 50,
          "name": "D3",
          "ticks": 42384,
          "time": 147.1665195,
          "velocity": 0.29133858267716534
        },
        {
          "duration": 0.027777750000012702,
          "durationTicks": 8,
          "midi": 50,
          "name": "D3",
          "ticks": 42432,
          "time": 147.33318599999998,
          "velocity": 0.2992125984251969
        },
        {
          "duration": 0.027777750000012702,
          "durationTicks": 8,
          "midi": 61,
          "name": "C#4",
          "ticks": 42432,
          "time": 147.33318599999998,
          "velocity": 0.2992125984251969
        },
        {
          "duration": 0.027777750000012702,
          "durationTicks": 8,
          "midi": 57,
          "name": "A3",
          "ticks": 42432,
          "time": 147.33318599999998,
          "velocity": 0.2992125984251969
        },
        {
          "duration": 0.027777750000012702,
          "durationTicks": 8,
          "midi": 66,
          "name": "F#4",
          "ticks": 42432,
          "time": 147.33318599999998,
          "velocity": 0.2992125984251969
        },
        {
          "duration": 0.02777774999998428,
          "durationTicks": 8,
          "midi": 66,
          "name": "F#4",
          "ticks": 42480,
          "time": 147.4998525,
          "velocity": 0.30708661417322836
        },
        {
          "duration": 0.02777774999998428,
          "durationTicks": 8,
          "midi": 57,
          "name": "A3",
          "ticks": 42480,
          "time": 147.4998525,
          "velocity": 0.30708661417322836
        },
        {
          "duration": 0.02777774999998428,
          "durationTicks": 8,
          "midi": 61,
          "name": "C#4",
          "ticks": 42480,
          "time": 147.4998525,
          "velocity": 0.30708661417322836
        },
        {
          "duration": 0.02777774999998428,
          "durationTicks": 8,
          "midi": 50,
          "name": "D3",
          "ticks": 42480,
          "time": 147.4998525,
          "velocity": 0.30708661417322836
        },
        {
          "duration": 0.02777774999998428,
          "durationTicks": 8,
          "midi": 66,
          "name": "F#4",
          "ticks": 42528,
          "time": 147.666519,
          "velocity": 0.30708661417322836
        },
        {
          "duration": 0.02777774999998428,
          "durationTicks": 8,
          "midi": 57,
          "name": "A3",
          "ticks": 42528,
          "time": 147.666519,
          "velocity": 0.30708661417322836
        },
        {
          "duration": 0.02777774999998428,
          "durationTicks": 8,
          "midi": 61,
          "name": "C#4",
          "ticks": 42528,
          "time": 147.666519,
          "velocity": 0.30708661417322836
        },
        {
          "duration": 0.02777774999998428,
          "durationTicks": 8,
          "midi": 50,
          "name": "D3",
          "ticks": 42528,
          "time": 147.666519,
          "velocity": 0.30708661417322836
        },
        {
          "duration": 0.027777750000012702,
          "durationTicks": 8,
          "midi": 66,
          "name": "F#4",
          "ticks": 42576,
          "time": 147.83318549999998,
          "velocity": 0.31496062992125984
        },
        {
          "duration": 0.027777750000012702,
          "durationTicks": 8,
          "midi": 57,
          "name": "A3",
          "ticks": 42576,
          "time": 147.83318549999998,
          "velocity": 0.31496062992125984
        },
        {
          "duration": 0.027777750000012702,
          "durationTicks": 8,
          "midi": 61,
          "name": "C#4",
          "ticks": 42576,
          "time": 147.83318549999998,
          "velocity": 0.31496062992125984
        },
        {
          "duration": 0.027777750000012702,
          "durationTicks": 8,
          "midi": 50,
          "name": "D3",
          "ticks": 42576,
          "time": 147.83318549999998,
          "velocity": 0.31496062992125984
        },
        {
          "duration": 0.02777774999998428,
          "durationTicks": 8,
          "midi": 50,
          "name": "D3",
          "ticks": 42624,
          "time": 147.999852,
          "velocity": 0.3228346456692913
        },
        {
          "duration": 0.02777774999998428,
          "durationTicks": 8,
          "midi": 61,
          "name": "C#4",
          "ticks": 42624,
          "time": 147.999852,
          "velocity": 0.3228346456692913
        },
        {
          "duration": 0.02777774999998428,
          "durationTicks": 8,
          "midi": 57,
          "name": "A3",
          "ticks": 42624,
          "time": 147.999852,
          "velocity": 0.3228346456692913
        },
        {
          "duration": 0.02777774999998428,
          "durationTicks": 8,
          "midi": 66,
          "name": "F#4",
          "ticks": 42624,
          "time": 147.999852,
          "velocity": 0.3228346456692913
        },
        {
          "duration": 0.02777774999998428,
          "durationTicks": 8,
          "midi": 50,
          "name": "D3",
          "ticks": 42672,
          "time": 148.1665185,
          "velocity": 0.33070866141732286
        },
        {
          "duration": 0.02777774999998428,
          "durationTicks": 8,
          "midi": 61,
          "name": "C#4",
          "ticks": 42672,
          "time": 148.1665185,
          "velocity": 0.33070866141732286
        },
        {
          "duration": 0.02777774999998428,
          "durationTicks": 8,
          "midi": 57,
          "name": "A3",
          "ticks": 42672,
          "time": 148.1665185,
          "velocity": 0.33070866141732286
        },
        {
          "duration": 0.02777774999998428,
          "durationTicks": 8,
          "midi": 66,
          "name": "F#4",
          "ticks": 42672,
          "time": 148.1665185,
          "velocity": 0.33070866141732286
        },
        {
          "duration": 0.027777750000012702,
          "durationTicks": 8,
          "midi": 50,
          "name": "D3",
          "ticks": 42720,
          "time": 148.333185,
          "velocity": 0.33070866141732286
        },
        {
          "duration": 0.027777750000012702,
          "durationTicks": 8,
          "midi": 61,
          "name": "C#4",
          "ticks": 42720,
          "time": 148.333185,
          "velocity": 0.33070866141732286
        },
        {
          "duration": 0.027777750000012702,
          "durationTicks": 8,
          "midi": 57,
          "name": "A3",
          "ticks": 42720,
          "time": 148.333185,
          "velocity": 0.33070866141732286
        },
        {
          "duration": 0.027777750000012702,
          "durationTicks": 8,
          "midi": 66,
          "name": "F#4",
          "ticks": 42720,
          "time": 148.333185,
          "velocity": 0.33070866141732286
        },
        {
          "duration": 0.02777774999998428,
          "durationTicks": 8,
          "midi": 50,
          "name": "D3",
          "ticks": 42768,
          "time": 148.4998515,
          "velocity": 0.33858267716535434
        },
        {
          "duration": 0.02777774999998428,
          "durationTicks": 8,
          "midi": 61,
          "name": "C#4",
          "ticks": 42768,
          "time": 148.4998515,
          "velocity": 0.33858267716535434
        },
        {
          "duration": 0.02777774999998428,
          "durationTicks": 8,
          "midi": 57,
          "name": "A3",
          "ticks": 42768,
          "time": 148.4998515,
          "velocity": 0.33858267716535434
        },
        {
          "duration": 0.02777774999998428,
          "durationTicks": 8,
          "midi": 66,
          "name": "F#4",
          "ticks": 42768,
          "time": 148.4998515,
          "velocity": 0.33858267716535434
        },
        {
          "duration": 0.02777774999998428,
          "durationTicks": 8,
          "midi": 66,
          "name": "F#4",
          "ticks": 42816,
          "time": 148.666518,
          "velocity": 0.3464566929133858
        },
        {
          "duration": 0.02777774999998428,
          "durationTicks": 8,
          "midi": 57,
          "name": "A3",
          "ticks": 42816,
          "time": 148.666518,
          "velocity": 0.3464566929133858
        },
        {
          "duration": 0.02777774999998428,
          "durationTicks": 8,
          "midi": 61,
          "name": "C#4",
          "ticks": 42816,
          "time": 148.666518,
          "velocity": 0.3464566929133858
        },
        {
          "duration": 0.02777774999998428,
          "durationTicks": 8,
          "midi": 50,
          "name": "D3",
          "ticks": 42816,
          "time": 148.666518,
          "velocity": 0.3464566929133858
        },
        {
          "duration": 0.027777750000012702,
          "durationTicks": 8,
          "midi": 50,
          "name": "D3",
          "ticks": 42864,
          "time": 148.8331845,
          "velocity": 0.3464566929133858
        },
        {
          "duration": 0.027777750000012702,
          "durationTicks": 8,
          "midi": 61,
          "name": "C#4",
          "ticks": 42864,
          "time": 148.8331845,
          "velocity": 0.3464566929133858
        },
        {
          "duration": 0.027777750000012702,
          "durationTicks": 8,
          "midi": 57,
          "name": "A3",
          "ticks": 42864,
          "time": 148.8331845,
          "velocity": 0.3464566929133858
        },
        {
          "duration": 0.027777750000012702,
          "durationTicks": 8,
          "midi": 66,
          "name": "F#4",
          "ticks": 42864,
          "time": 148.8331845,
          "velocity": 0.3464566929133858
        },
        {
          "duration": 0.02777774999998428,
          "durationTicks": 8,
          "midi": 66,
          "name": "F#4",
          "ticks": 42912,
          "time": 148.999851,
          "velocity": 0.3543307086614173
        },
        {
          "duration": 0.02777774999998428,
          "durationTicks": 8,
          "midi": 57,
          "name": "A3",
          "ticks": 42912,
          "time": 148.999851,
          "velocity": 0.3543307086614173
        },
        {
          "duration": 0.02777774999998428,
          "durationTicks": 8,
          "midi": 61,
          "name": "C#4",
          "ticks": 42912,
          "time": 148.999851,
          "velocity": 0.3543307086614173
        },
        {
          "duration": 0.02777774999998428,
          "durationTicks": 8,
          "midi": 50,
          "name": "D3",
          "ticks": 42912,
          "time": 148.999851,
          "velocity": 0.3543307086614173
        },
        {
          "duration": 0.02777774999998428,
          "durationTicks": 8,
          "midi": 66,
          "name": "F#4",
          "ticks": 42960,
          "time": 149.1665175,
          "velocity": 0.36220472440944884
        },
        {
          "duration": 0.02777774999998428,
          "durationTicks": 8,
          "midi": 57,
          "name": "A3",
          "ticks": 42960,
          "time": 149.1665175,
          "velocity": 0.36220472440944884
        },
        {
          "duration": 0.02777774999998428,
          "durationTicks": 8,
          "midi": 61,
          "name": "C#4",
          "ticks": 42960,
          "time": 149.1665175,
          "velocity": 0.36220472440944884
        },
        {
          "duration": 0.02777774999998428,
          "durationTicks": 8,
          "midi": 50,
          "name": "D3",
          "ticks": 42960,
          "time": 149.1665175,
          "velocity": 0.36220472440944884
        },
        {
          "duration": 0.027777750000012702,
          "durationTicks": 8,
          "midi": 49,
          "name": "C#3",
          "ticks": 43008,
          "time": 149.333184,
          "velocity": 0.36220472440944884
        },
        {
          "duration": 0.027777750000012702,
          "durationTicks": 8,
          "midi": 64,
          "name": "E4",
          "ticks": 43008,
          "time": 149.333184,
          "velocity": 0.36220472440944884
        },
        {
          "duration": 0.027777750000012702,
          "durationTicks": 8,
          "midi": 56,
          "name": "G#3",
          "ticks": 43008,
          "time": 149.333184,
          "velocity": 0.36220472440944884
        },
        {
          "duration": 0.027777750000012702,
          "durationTicks": 8,
          "midi": 59,
          "name": "B3",
          "ticks": 43008,
          "time": 149.333184,
          "velocity": 0.36220472440944884
        },
        {
          "duration": 0.02777774999998428,
          "durationTicks": 8,
          "midi": 59,
          "name": "B3",
          "ticks": 43056,
          "time": 149.4998505,
          "velocity": 0.3700787401574803
        },
        {
          "duration": 0.02777774999998428,
          "durationTicks": 8,
          "midi": 56,
          "name": "G#3",
          "ticks": 43056,
          "time": 149.4998505,
          "velocity": 0.3700787401574803
        },
        {
          "duration": 0.02777774999998428,
          "durationTicks": 8,
          "midi": 64,
          "name": "E4",
          "ticks": 43056,
          "time": 149.4998505,
          "velocity": 0.3700787401574803
        },
        {
          "duration": 0.02777774999998428,
          "durationTicks": 8,
          "midi": 49,
          "name": "C#3",
          "ticks": 43056,
          "time": 149.4998505,
          "velocity": 0.3700787401574803
        },
        {
          "duration": 0.02777774999998428,
          "durationTicks": 8,
          "midi": 59,
          "name": "B3",
          "ticks": 43104,
          "time": 149.666517,
          "velocity": 0.3779527559055118
        },
        {
          "duration": 0.02777774999998428,
          "durationTicks": 8,
          "midi": 56,
          "name": "G#3",
          "ticks": 43104,
          "time": 149.666517,
          "velocity": 0.3779527559055118
        },
        {
          "duration": 0.02777774999998428,
          "durationTicks": 8,
          "midi": 64,
          "name": "E4",
          "ticks": 43104,
          "time": 149.666517,
          "velocity": 0.3779527559055118
        },
        {
          "duration": 0.02777774999998428,
          "durationTicks": 8,
          "midi": 49,
          "name": "C#3",
          "ticks": 43104,
          "time": 149.666517,
          "velocity": 0.3779527559055118
        },
        {
          "duration": 0.027777750000012702,
          "durationTicks": 8,
          "midi": 59,
          "name": "B3",
          "ticks": 43152,
          "time": 149.8331835,
          "velocity": 0.3779527559055118
        },
        {
          "duration": 0.027777750000012702,
          "durationTicks": 8,
          "midi": 56,
          "name": "G#3",
          "ticks": 43152,
          "time": 149.8331835,
          "velocity": 0.3779527559055118
        },
        {
          "duration": 0.027777750000012702,
          "durationTicks": 8,
          "midi": 64,
          "name": "E4",
          "ticks": 43152,
          "time": 149.8331835,
          "velocity": 0.3779527559055118
        },
        {
          "duration": 0.027777750000012702,
          "durationTicks": 8,
          "midi": 49,
          "name": "C#3",
          "ticks": 43152,
          "time": 149.8331835,
          "velocity": 0.3779527559055118
        },
        {
          "duration": 0.02777774999998428,
          "durationTicks": 8,
          "midi": 49,
          "name": "C#3",
          "ticks": 43200,
          "time": 149.99985,
          "velocity": 0.3858267716535433
        },
        {
          "duration": 0.02777774999998428,
          "durationTicks": 8,
          "midi": 64,
          "name": "E4",
          "ticks": 43200,
          "time": 149.99985,
          "velocity": 0.3858267716535433
        },
        {
          "duration": 0.02777774999998428,
          "durationTicks": 8,
          "midi": 56,
          "name": "G#3",
          "ticks": 43200,
          "time": 149.99985,
          "velocity": 0.3858267716535433
        },
        {
          "duration": 0.02777774999998428,
          "durationTicks": 8,
          "midi": 59,
          "name": "B3",
          "ticks": 43200,
          "time": 149.99985,
          "velocity": 0.3858267716535433
        },
        {
          "duration": 0.02777774999998428,
          "durationTicks": 8,
          "midi": 59,
          "name": "B3",
          "ticks": 43248,
          "time": 150.1665165,
          "velocity": 0.3937007874015748
        },
        {
          "duration": 0.02777774999998428,
          "durationTicks": 8,
          "midi": 56,
          "name": "G#3",
          "ticks": 43248,
          "time": 150.1665165,
          "velocity": 0.3937007874015748
        },
        {
          "duration": 0.02777774999998428,
          "durationTicks": 8,
          "midi": 64,
          "name": "E4",
          "ticks": 43248,
          "time": 150.1665165,
          "velocity": 0.3937007874015748
        },
        {
          "duration": 0.02777774999998428,
          "durationTicks": 8,
          "midi": 49,
          "name": "C#3",
          "ticks": 43248,
          "time": 150.1665165,
          "velocity": 0.3937007874015748
        },
        {
          "duration": 0.02777774999998428,
          "durationTicks": 8,
          "midi": 59,
          "name": "B3",
          "ticks": 43296,
          "time": 150.333183,
          "velocity": 0.4015748031496063
        },
        {
          "duration": 0.02777774999998428,
          "durationTicks": 8,
          "midi": 56,
          "name": "G#3",
          "ticks": 43296,
          "time": 150.333183,
          "velocity": 0.4015748031496063
        },
        {
          "duration": 0.02777774999998428,
          "durationTicks": 8,
          "midi": 64,
          "name": "E4",
          "ticks": 43296,
          "time": 150.333183,
          "velocity": 0.4015748031496063
        },
        {
          "duration": 0.02777774999998428,
          "durationTicks": 8,
          "midi": 49,
          "name": "C#3",
          "ticks": 43296,
          "time": 150.333183,
          "velocity": 0.4015748031496063
        },
        {
          "duration": 0.027777750000012702,
          "durationTicks": 8,
          "midi": 49,
          "name": "C#3",
          "ticks": 43344,
          "time": 150.49984949999998,
          "velocity": 0.4015748031496063
        },
        {
          "duration": 0.027777750000012702,
          "durationTicks": 8,
          "midi": 64,
          "name": "E4",
          "ticks": 43344,
          "time": 150.49984949999998,
          "velocity": 0.4015748031496063
        },
        {
          "duration": 0.027777750000012702,
          "durationTicks": 8,
          "midi": 56,
          "name": "G#3",
          "ticks": 43344,
          "time": 150.49984949999998,
          "velocity": 0.4015748031496063
        },
        {
          "duration": 0.027777750000012702,
          "durationTicks": 8,
          "midi": 59,
          "name": "B3",
          "ticks": 43344,
          "time": 150.49984949999998,
          "velocity": 0.4015748031496063
        },
        {
          "duration": 0.05555549999999698,
          "durationTicks": 16,
          "midi": 59,
          "name": "B3",
          "ticks": 43392,
          "time": 150.666516,
          "velocity": 0.4094488188976378
        },
        {
          "duration": 0.05555549999999698,
          "durationTicks": 16,
          "midi": 48,
          "name": "C3",
          "ticks": 43392,
          "time": 150.666516,
          "velocity": 0.4094488188976378
        },
        {
          "duration": 0.05555549999999698,
          "durationTicks": 16,
          "midi": 55,
          "name": "G3",
          "ticks": 43392,
          "time": 150.666516,
          "velocity": 0.4094488188976378
        },
        {
          "duration": 0.05555549999999698,
          "durationTicks": 16,
          "midi": 64,
          "name": "E4",
          "ticks": 43392,
          "time": 150.666516,
          "velocity": 0.4094488188976378
        },
        {
          "duration": 0.05555549999999698,
          "durationTicks": 16,
          "midi": 59,
          "name": "B3",
          "ticks": 43440,
          "time": 150.8331825,
          "velocity": 0.41732283464566927
        },
        {
          "duration": 0.05555549999999698,
          "durationTicks": 16,
          "midi": 48,
          "name": "C3",
          "ticks": 43440,
          "time": 150.8331825,
          "velocity": 0.41732283464566927
        },
        {
          "duration": 0.05555549999999698,
          "durationTicks": 16,
          "midi": 55,
          "name": "G3",
          "ticks": 43440,
          "time": 150.8331825,
          "velocity": 0.41732283464566927
        },
        {
          "duration": 0.05555549999999698,
          "durationTicks": 16,
          "midi": 64,
          "name": "E4",
          "ticks": 43440,
          "time": 150.8331825,
          "velocity": 0.41732283464566927
        },
        {
          "duration": 0.055555500000025404,
          "durationTicks": 16,
          "midi": 59,
          "name": "B3",
          "ticks": 43488,
          "time": 150.99984899999998,
          "velocity": 0.41732283464566927
        },
        {
          "duration": 0.055555500000025404,
          "durationTicks": 16,
          "midi": 48,
          "name": "C3",
          "ticks": 43488,
          "time": 150.99984899999998,
          "velocity": 0.41732283464566927
        },
        {
          "duration": 0.055555500000025404,
          "durationTicks": 16,
          "midi": 55,
          "name": "G3",
          "ticks": 43488,
          "time": 150.99984899999998,
          "velocity": 0.41732283464566927
        },
        {
          "duration": 0.055555500000025404,
          "durationTicks": 16,
          "midi": 64,
          "name": "E4",
          "ticks": 43488,
          "time": 150.99984899999998,
          "velocity": 0.41732283464566927
        },
        {
          "duration": 0.05555549999999698,
          "durationTicks": 16,
          "midi": 59,
          "name": "B3",
          "ticks": 43536,
          "time": 151.1665155,
          "velocity": 0.4251968503937008
        },
        {
          "duration": 0.05555549999999698,
          "durationTicks": 16,
          "midi": 48,
          "name": "C3",
          "ticks": 43536,
          "time": 151.1665155,
          "velocity": 0.4251968503937008
        },
        {
          "duration": 0.05555549999999698,
          "durationTicks": 16,
          "midi": 55,
          "name": "G3",
          "ticks": 43536,
          "time": 151.1665155,
          "velocity": 0.4251968503937008
        },
        {
          "duration": 0.05555549999999698,
          "durationTicks": 16,
          "midi": 64,
          "name": "E4",
          "ticks": 43536,
          "time": 151.1665155,
          "velocity": 0.4251968503937008
        },
        {
          "duration": 0.05555549999999698,
          "durationTicks": 16,
          "midi": 64,
          "name": "E4",
          "ticks": 43584,
          "time": 151.333182,
          "velocity": 0.4330708661417323
        },
        {
          "duration": 0.05555549999999698,
          "durationTicks": 16,
          "midi": 55,
          "name": "G3",
          "ticks": 43584,
          "time": 151.333182,
          "velocity": 0.4330708661417323
        },
        {
          "duration": 0.05555549999999698,
          "durationTicks": 16,
          "midi": 48,
          "name": "C3",
          "ticks": 43584,
          "time": 151.333182,
          "velocity": 0.4330708661417323
        },
        {
          "duration": 0.05555549999999698,
          "durationTicks": 16,
          "midi": 59,
          "name": "B3",
          "ticks": 43584,
          "time": 151.333182,
          "velocity": 0.4330708661417323
        },
        {
          "duration": 0.055555500000025404,
          "durationTicks": 16,
          "midi": 59,
          "name": "B3",
          "ticks": 43632,
          "time": 151.49984849999998,
          "velocity": 0.4330708661417323
        },
        {
          "duration": 0.055555500000025404,
          "durationTicks": 16,
          "midi": 48,
          "name": "C3",
          "ticks": 43632,
          "time": 151.49984849999998,
          "velocity": 0.4330708661417323
        },
        {
          "duration": 0.055555500000025404,
          "durationTicks": 16,
          "midi": 55,
          "name": "G3",
          "ticks": 43632,
          "time": 151.49984849999998,
          "velocity": 0.4330708661417323
        },
        {
          "duration": 0.055555500000025404,
          "durationTicks": 16,
          "midi": 64,
          "name": "E4",
          "ticks": 43632,
          "time": 151.49984849999998,
          "velocity": 0.4330708661417323
        },
        {
          "duration": 0.05555549999999698,
          "durationTicks": 16,
          "midi": 59,
          "name": "B3",
          "ticks": 43680,
          "time": 151.666515,
          "velocity": 0.4409448818897638
        },
        {
          "duration": 0.05555549999999698,
          "durationTicks": 16,
          "midi": 48,
          "name": "C3",
          "ticks": 43680,
          "time": 151.666515,
          "velocity": 0.4409448818897638
        },
        {
          "duration": 0.05555549999999698,
          "durationTicks": 16,
          "midi": 55,
          "name": "G3",
          "ticks": 43680,
          "time": 151.666515,
          "velocity": 0.4409448818897638
        },
        {
          "duration": 0.05555549999999698,
          "durationTicks": 16,
          "midi": 64,
          "name": "E4",
          "ticks": 43680,
          "time": 151.666515,
          "velocity": 0.4409448818897638
        },
        {
          "duration": 0.05555549999999698,
          "durationTicks": 16,
          "midi": 59,
          "name": "B3",
          "ticks": 43728,
          "time": 151.8331815,
          "velocity": 0.44881889763779526
        },
        {
          "duration": 0.05555549999999698,
          "durationTicks": 16,
          "midi": 48,
          "name": "C3",
          "ticks": 43728,
          "time": 151.8331815,
          "velocity": 0.44881889763779526
        },
        {
          "duration": 0.05555549999999698,
          "durationTicks": 16,
          "midi": 55,
          "name": "G3",
          "ticks": 43728,
          "time": 151.8331815,
          "velocity": 0.44881889763779526
        },
        {
          "duration": 0.05555549999999698,
          "durationTicks": 16,
          "midi": 64,
          "name": "E4",
          "ticks": 43728,
          "time": 151.8331815,
          "velocity": 0.44881889763779526
        },
        {
          "duration": 0.08333325000000968,
          "durationTicks": 24,
          "midi": 57,
          "name": "A3",
          "ticks": 43776,
          "time": 151.999848,
          "velocity": 0.4566929133858268
        },
        {
          "duration": 0.08333325000000968,
          "durationTicks": 24,
          "midi": 47,
          "name": "B2",
          "ticks": 43776,
          "time": 151.999848,
          "velocity": 0.4566929133858268
        },
        {
          "duration": 0.08333325000000968,
          "durationTicks": 24,
          "midi": 62,
          "name": "D4",
          "ticks": 43776,
          "time": 151.999848,
          "velocity": 0.4566929133858268
        },
        {
          "duration": 0.08333325000000968,
          "durationTicks": 24,
          "midi": 66,
          "name": "F#4",
          "ticks": 43776,
          "time": 151.999848,
          "velocity": 0.4566929133858268
        },
        {
          "duration": 0.08333324999998126,
          "durationTicks": 24,
          "midi": 66,
          "name": "F#4",
          "ticks": 43824,
          "time": 152.1665145,
          "velocity": 0.4566929133858268
        },
        {
          "duration": 0.08333324999998126,
          "durationTicks": 24,
          "midi": 62,
          "name": "D4",
          "ticks": 43824,
          "time": 152.1665145,
          "velocity": 0.4566929133858268
        },
        {
          "duration": 0.08333324999998126,
          "durationTicks": 24,
          "midi": 47,
          "name": "B2",
          "ticks": 43824,
          "time": 152.1665145,
          "velocity": 0.4566929133858268
        },
        {
          "duration": 0.08333324999998126,
          "durationTicks": 24,
          "midi": 57,
          "name": "A3",
          "ticks": 43824,
          "time": 152.1665145,
          "velocity": 0.4566929133858268
        },
        {
          "duration": 0.08333325000000968,
          "durationTicks": 24,
          "midi": 57,
          "name": "A3",
          "ticks": 43872,
          "time": 152.333181,
          "velocity": 0.4645669291338583
        },
        {
          "duration": 0.08333325000000968,
          "durationTicks": 24,
          "midi": 47,
          "name": "B2",
          "ticks": 43872,
          "time": 152.333181,
          "velocity": 0.4645669291338583
        },
        {
          "duration": 0.08333325000000968,
          "durationTicks": 24,
          "midi": 62,
          "name": "D4",
          "ticks": 43872,
          "time": 152.333181,
          "velocity": 0.4645669291338583
        },
        {
          "duration": 0.08333325000000968,
          "durationTicks": 24,
          "midi": 66,
          "name": "F#4",
          "ticks": 43872,
          "time": 152.333181,
          "velocity": 0.4645669291338583
        },
        {
          "duration": 0.08333325000000968,
          "durationTicks": 24,
          "midi": 66,
          "name": "F#4",
          "ticks": 43920,
          "time": 152.4998475,
          "velocity": 0.47244094488188976
        },
        {
          "duration": 0.08333325000000968,
          "durationTicks": 24,
          "midi": 62,
          "name": "D4",
          "ticks": 43920,
          "time": 152.4998475,
          "velocity": 0.47244094488188976
        },
        {
          "duration": 0.08333325000000968,
          "durationTicks": 24,
          "midi": 47,
          "name": "B2",
          "ticks": 43920,
          "time": 152.4998475,
          "velocity": 0.47244094488188976
        },
        {
          "duration": 0.08333325000000968,
          "durationTicks": 24,
          "midi": 57,
          "name": "A3",
          "ticks": 43920,
          "time": 152.4998475,
          "velocity": 0.47244094488188976
        },
        {
          "duration": 0.08333324999998126,
          "durationTicks": 24,
          "midi": 66,
          "name": "F#4",
          "ticks": 43968,
          "time": 152.666514,
          "velocity": 0.47244094488188976
        },
        {
          "duration": 0.08333324999998126,
          "durationTicks": 24,
          "midi": 62,
          "name": "D4",
          "ticks": 43968,
          "time": 152.666514,
          "velocity": 0.47244094488188976
        },
        {
          "duration": 0.08333324999998126,
          "durationTicks": 24,
          "midi": 47,
          "name": "B2",
          "ticks": 43968,
          "time": 152.666514,
          "velocity": 0.47244094488188976
        },
        {
          "duration": 0.08333324999998126,
          "durationTicks": 24,
          "midi": 57,
          "name": "A3",
          "ticks": 43968,
          "time": 152.666514,
          "velocity": 0.47244094488188976
        },
        {
          "duration": 0.08333325000000968,
          "durationTicks": 24,
          "midi": 66,
          "name": "F#4",
          "ticks": 44016,
          "time": 152.8331805,
          "velocity": 0.48031496062992124
        },
        {
          "duration": 0.08333325000000968,
          "durationTicks": 24,
          "midi": 62,
          "name": "D4",
          "ticks": 44016,
          "time": 152.8331805,
          "velocity": 0.48031496062992124
        },
        {
          "duration": 0.08333325000000968,
          "durationTicks": 24,
          "midi": 47,
          "name": "B2",
          "ticks": 44016,
          "time": 152.8331805,
          "velocity": 0.48031496062992124
        },
        {
          "duration": 0.08333325000000968,
          "durationTicks": 24,
          "midi": 57,
          "name": "A3",
          "ticks": 44016,
          "time": 152.8331805,
          "velocity": 0.48031496062992124
        },
        {
          "duration": 0.08333325000000968,
          "durationTicks": 24,
          "midi": 66,
          "name": "F#4",
          "ticks": 44064,
          "time": 152.999847,
          "velocity": 0.4881889763779528
        },
        {
          "duration": 0.08333325000000968,
          "durationTicks": 24,
          "midi": 62,
          "name": "D4",
          "ticks": 44064,
          "time": 152.999847,
          "velocity": 0.4881889763779528
        },
        {
          "duration": 0.08333325000000968,
          "durationTicks": 24,
          "midi": 47,
          "name": "B2",
          "ticks": 44064,
          "time": 152.999847,
          "velocity": 0.4881889763779528
        },
        {
          "duration": 0.08333325000000968,
          "durationTicks": 24,
          "midi": 57,
          "name": "A3",
          "ticks": 44064,
          "time": 152.999847,
          "velocity": 0.4881889763779528
        },
        {
          "duration": 0.08333324999998126,
          "durationTicks": 24,
          "midi": 57,
          "name": "A3",
          "ticks": 44112,
          "time": 153.1665135,
          "velocity": 0.4881889763779528
        },
        {
          "duration": 0.08333324999998126,
          "durationTicks": 24,
          "midi": 47,
          "name": "B2",
          "ticks": 44112,
          "time": 153.1665135,
          "velocity": 0.4881889763779528
        },
        {
          "duration": 0.08333324999998126,
          "durationTicks": 24,
          "midi": 62,
          "name": "D4",
          "ticks": 44112,
          "time": 153.1665135,
          "velocity": 0.4881889763779528
        },
        {
          "duration": 0.08333324999998126,
          "durationTicks": 24,
          "midi": 66,
          "name": "F#4",
          "ticks": 44112,
          "time": 153.1665135,
          "velocity": 0.4881889763779528
        },
        {
          "duration": 0.11111099999999396,
          "durationTicks": 32,
          "midi": 59,
          "name": "B3",
          "ticks": 44160,
          "time": 153.33318,
          "velocity": 0.49606299212598426
        },
        {
          "duration": 0.11111099999999396,
          "durationTicks": 32,
          "midi": 68,
          "name": "G#4",
          "ticks": 44160,
          "time": 153.33318,
          "velocity": 0.49606299212598426
        },
        {
          "duration": 0.11111099999999396,
          "durationTicks": 32,
          "midi": 52,
          "name": "E3",
          "ticks": 44160,
          "time": 153.33318,
          "velocity": 0.49606299212598426
        },
        {
          "duration": 0.11111099999999396,
          "durationTicks": 32,
          "midi": 62,
          "name": "D4",
          "ticks": 44160,
          "time": 153.33318,
          "velocity": 0.49606299212598426
        },
        {
          "duration": 0.11111099999999396,
          "durationTicks": 32,
          "midi": 59,
          "name": "B3",
          "ticks": 44208,
          "time": 153.4998465,
          "velocity": 0.5039370078740157
        },
        {
          "duration": 0.11111099999999396,
          "durationTicks": 32,
          "midi": 68,
          "name": "G#4",
          "ticks": 44208,
          "time": 153.4998465,
          "velocity": 0.5039370078740157
        },
        {
          "duration": 0.11111099999999396,
          "durationTicks": 32,
          "midi": 52,
          "name": "E3",
          "ticks": 44208,
          "time": 153.4998465,
          "velocity": 0.5039370078740157
        },
        {
          "duration": 0.11111099999999396,
          "durationTicks": 32,
          "midi": 62,
          "name": "D4",
          "ticks": 44208,
          "time": 153.4998465,
          "velocity": 0.5039370078740157
        },
        {
          "duration": 0.11111099999999396,
          "durationTicks": 32,
          "midi": 62,
          "name": "D4",
          "ticks": 44256,
          "time": 153.666513,
          "velocity": 0.5039370078740157
        },
        {
          "duration": 0.11111099999999396,
          "durationTicks": 32,
          "midi": 52,
          "name": "E3",
          "ticks": 44256,
          "time": 153.666513,
          "velocity": 0.5039370078740157
        },
        {
          "duration": 0.11111099999999396,
          "durationTicks": 32,
          "midi": 68,
          "name": "G#4",
          "ticks": 44256,
          "time": 153.666513,
          "velocity": 0.5039370078740157
        },
        {
          "duration": 0.11111099999999396,
          "durationTicks": 32,
          "midi": 59,
          "name": "B3",
          "ticks": 44256,
          "time": 153.666513,
          "velocity": 0.5039370078740157
        },
        {
          "duration": 0.11111099999999396,
          "durationTicks": 32,
          "midi": 59,
          "name": "B3",
          "ticks": 44304,
          "time": 153.8331795,
          "velocity": 0.5118110236220472
        },
        {
          "duration": 0.11111099999999396,
          "durationTicks": 32,
          "midi": 68,
          "name": "G#4",
          "ticks": 44304,
          "time": 153.8331795,
          "velocity": 0.5118110236220472
        },
        {
          "duration": 0.11111099999999396,
          "durationTicks": 32,
          "midi": 52,
          "name": "E3",
          "ticks": 44304,
          "time": 153.8331795,
          "velocity": 0.5118110236220472
        },
        {
          "duration": 0.11111099999999396,
          "durationTicks": 32,
          "midi": 62,
          "name": "D4",
          "ticks": 44304,
          "time": 153.8331795,
          "velocity": 0.5118110236220472
        },
        {
          "duration": 0.11111099999999396,
          "durationTicks": 32,
          "midi": 62,
          "name": "D4",
          "ticks": 44352,
          "time": 153.999846,
          "velocity": 0.5196850393700787
        },
        {
          "duration": 0.11111099999999396,
          "durationTicks": 32,
          "midi": 52,
          "name": "E3",
          "ticks": 44352,
          "time": 153.999846,
          "velocity": 0.5196850393700787
        },
        {
          "duration": 0.11111099999999396,
          "durationTicks": 32,
          "midi": 68,
          "name": "G#4",
          "ticks": 44352,
          "time": 153.999846,
          "velocity": 0.5196850393700787
        },
        {
          "duration": 0.11111099999999396,
          "durationTicks": 32,
          "midi": 59,
          "name": "B3",
          "ticks": 44352,
          "time": 153.999846,
          "velocity": 0.5196850393700787
        },
        {
          "duration": 0.11111099999999396,
          "durationTicks": 32,
          "midi": 62,
          "name": "D4",
          "ticks": 44400,
          "time": 154.16651249999998,
          "velocity": 0.5275590551181102
        },
        {
          "duration": 0.11111099999999396,
          "durationTicks": 32,
          "midi": 52,
          "name": "E3",
          "ticks": 44400,
          "time": 154.16651249999998,
          "velocity": 0.5275590551181102
        },
        {
          "duration": 0.11111099999999396,
          "durationTicks": 32,
          "midi": 68,
          "name": "G#4",
          "ticks": 44400,
          "time": 154.16651249999998,
          "velocity": 0.5275590551181102
        },
        {
          "duration": 0.11111099999999396,
          "durationTicks": 32,
          "midi": 59,
          "name": "B3",
          "ticks": 44400,
          "time": 154.16651249999998,
          "velocity": 0.5275590551181102
        },
        {
          "duration": 0.11111099999999396,
          "durationTicks": 32,
          "midi": 59,
          "name": "B3",
          "ticks": 44448,
          "time": 154.333179,
          "velocity": 0.5275590551181102
        },
        {
          "duration": 0.11111099999999396,
          "durationTicks": 32,
          "midi": 68,
          "name": "G#4",
          "ticks": 44448,
          "time": 154.333179,
          "velocity": 0.5275590551181102
        },
        {
          "duration": 0.11111099999999396,
          "durationTicks": 32,
          "midi": 52,
          "name": "E3",
          "ticks": 44448,
          "time": 154.333179,
          "velocity": 0.5275590551181102
        },
        {
          "duration": 0.11111099999999396,
          "durationTicks": 32,
          "midi": 62,
          "name": "D4",
          "ticks": 44448,
          "time": 154.333179,
          "velocity": 0.5275590551181102
        },
        {
          "duration": 0.11111099999999396,
          "durationTicks": 32,
          "midi": 62,
          "name": "D4",
          "ticks": 44496,
          "time": 154.4998455,
          "velocity": 0.5354330708661418
        },
        {
          "duration": 0.11111099999999396,
          "durationTicks": 32,
          "midi": 52,
          "name": "E3",
          "ticks": 44496,
          "time": 154.4998455,
          "velocity": 0.5354330708661418
        },
        {
          "duration": 0.11111099999999396,
          "durationTicks": 32,
          "midi": 68,
          "name": "G#4",
          "ticks": 44496,
          "time": 154.4998455,
          "velocity": 0.5354330708661418
        },
        {
          "duration": 0.11111099999999396,
          "durationTicks": 32,
          "midi": 59,
          "name": "B3",
          "ticks": 44496,
          "time": 154.4998455,
          "velocity": 0.5354330708661418
        },
        {
          "duration": 0.13888875000000667,
          "durationTicks": 40,
          "midi": 57,
          "name": "A3",
          "ticks": 44544,
          "time": 154.66651199999998,
          "velocity": 0.5433070866141733
        },
        {
          "duration": 0.13888875000000667,
          "durationTicks": 40,
          "midi": 45,
          "name": "A2",
          "ticks": 44544,
          "time": 154.66651199999998,
          "velocity": 0.5433070866141733
        },
        {
          "duration": 0.13888875000000667,
          "durationTicks": 40,
          "midi": 61,
          "name": "C#4",
          "ticks": 44544,
          "time": 154.66651199999998,
          "velocity": 0.5433070866141733
        },
        {
          "duration": 0.13888875000000667,
          "durationTicks": 40,
          "midi": 52,
          "name": "E3",
          "ticks": 44544,
          "time": 154.66651199999998,
          "velocity": 0.5433070866141733
        },
        {
          "duration": 0.13888875000000667,
          "durationTicks": 40,
          "midi": 57,
          "name": "A3",
          "ticks": 44592,
          "time": 154.8331785,
          "velocity": 0.5433070866141733
        },
        {
          "duration": 0.13888875000000667,
          "durationTicks": 40,
          "midi": 45,
          "name": "A2",
          "ticks": 44592,
          "time": 154.8331785,
          "velocity": 0.5433070866141733
        },
        {
          "duration": 0.13888875000000667,
          "durationTicks": 40,
          "midi": 61,
          "name": "C#4",
          "ticks": 44592,
          "time": 154.8331785,
          "velocity": 0.5433070866141733
        },
        {
          "duration": 0.13888875000000667,
          "durationTicks": 40,
          "midi": 52,
          "name": "E3",
          "ticks": 44592,
          "time": 154.8331785,
          "velocity": 0.5433070866141733
        },
        {
          "duration": 0.13888875000000667,
          "durationTicks": 40,
          "midi": 52,
          "name": "E3",
          "ticks": 44640,
          "time": 154.999845,
          "velocity": 0.5511811023622047
        },
        {
          "duration": 0.13888875000000667,
          "durationTicks": 40,
          "midi": 61,
          "name": "C#4",
          "ticks": 44640,
          "time": 154.999845,
          "velocity": 0.5511811023622047
        },
        {
          "duration": 0.13888875000000667,
          "durationTicks": 40,
          "midi": 45,
          "name": "A2",
          "ticks": 44640,
          "time": 154.999845,
          "velocity": 0.5511811023622047
        },
        {
          "duration": 0.13888875000000667,
          "durationTicks": 40,
          "midi": 57,
          "name": "A3",
          "ticks": 44640,
          "time": 154.999845,
          "velocity": 0.5511811023622047
        },
        {
          "duration": 0.13888875000000667,
          "durationTicks": 40,
          "midi": 52,
          "name": "E3",
          "ticks": 44688,
          "time": 155.16651149999998,
          "velocity": 0.5590551181102362
        },
        {
          "duration": 0.13888875000000667,
          "durationTicks": 40,
          "midi": 61,
          "name": "C#4",
          "ticks": 44688,
          "time": 155.16651149999998,
          "velocity": 0.5590551181102362
        },
        {
          "duration": 0.13888875000000667,
          "durationTicks": 40,
          "midi": 45,
          "name": "A2",
          "ticks": 44688,
          "time": 155.16651149999998,
          "velocity": 0.5590551181102362
        },
        {
          "duration": 0.13888875000000667,
          "durationTicks": 40,
          "midi": 57,
          "name": "A3",
          "ticks": 44688,
          "time": 155.16651149999998,
          "velocity": 0.5590551181102362
        },
        {
          "duration": 0.13888875000000667,
          "durationTicks": 40,
          "midi": 52,
          "name": "E3",
          "ticks": 44736,
          "time": 155.333178,
          "velocity": 0.5590551181102362
        },
        {
          "duration": 0.13888875000000667,
          "durationTicks": 40,
          "midi": 61,
          "name": "C#4",
          "ticks": 44736,
          "time": 155.333178,
          "velocity": 0.5590551181102362
        },
        {
          "duration": 0.13888875000000667,
          "durationTicks": 40,
          "midi": 45,
          "name": "A2",
          "ticks": 44736,
          "time": 155.333178,
          "velocity": 0.5590551181102362
        },
        {
          "duration": 0.13888875000000667,
          "durationTicks": 40,
          "midi": 57,
          "name": "A3",
          "ticks": 44736,
          "time": 155.333178,
          "velocity": 0.5590551181102362
        },
        {
          "duration": 0.13888875000000667,
          "durationTicks": 40,
          "midi": 57,
          "name": "A3",
          "ticks": 44784,
          "time": 155.4998445,
          "velocity": 0.5669291338582677
        },
        {
          "duration": 0.13888875000000667,
          "durationTicks": 40,
          "midi": 45,
          "name": "A2",
          "ticks": 44784,
          "time": 155.4998445,
          "velocity": 0.5669291338582677
        },
        {
          "duration": 0.13888875000000667,
          "durationTicks": 40,
          "midi": 61,
          "name": "C#4",
          "ticks": 44784,
          "time": 155.4998445,
          "velocity": 0.5669291338582677
        },
        {
          "duration": 0.13888875000000667,
          "durationTicks": 40,
          "midi": 52,
          "name": "E3",
          "ticks": 44784,
          "time": 155.4998445,
          "velocity": 0.5669291338582677
        },
        {
          "duration": 0.13888875000000667,
          "durationTicks": 40,
          "midi": 52,
          "name": "E3",
          "ticks": 44832,
          "time": 155.66651099999999,
          "velocity": 0.5748031496062992
        },
        {
          "duration": 0.13888875000000667,
          "durationTicks": 40,
          "midi": 61,
          "name": "C#4",
          "ticks": 44832,
          "time": 155.66651099999999,
          "velocity": 0.5748031496062992
        },
        {
          "duration": 0.13888875000000667,
          "durationTicks": 40,
          "midi": 45,
          "name": "A2",
          "ticks": 44832,
          "time": 155.66651099999999,
          "velocity": 0.5748031496062992
        },
        {
          "duration": 0.13888875000000667,
          "durationTicks": 40,
          "midi": 57,
          "name": "A3",
          "ticks": 44832,
          "time": 155.66651099999999,
          "velocity": 0.5748031496062992
        },
        {
          "duration": 0.13888875000000667,
          "durationTicks": 40,
          "midi": 52,
          "name": "E3",
          "ticks": 44880,
          "time": 155.8331775,
          "velocity": 0.5826771653543307
        },
        {
          "duration": 0.13888875000000667,
          "durationTicks": 40,
          "midi": 61,
          "name": "C#4",
          "ticks": 44880,
          "time": 155.8331775,
          "velocity": 0.5826771653543307
        },
        {
          "duration": 0.13888875000000667,
          "durationTicks": 40,
          "midi": 45,
          "name": "A2",
          "ticks": 44880,
          "time": 155.8331775,
          "velocity": 0.5826771653543307
        },
        {
          "duration": 0.13888875000000667,
          "durationTicks": 40,
          "midi": 57,
          "name": "A3",
          "ticks": 44880,
          "time": 155.8331775,
          "velocity": 0.5826771653543307
        },
        {
          "duration": 0.14583318749998853,
          "durationTicks": 42,
          "midi": 57,
          "name": "A3",
          "ticks": 44928,
          "time": 155.999844,
          "velocity": 0.5826771653543307
        },
        {
          "duration": 0.14583318749998853,
          "durationTicks": 42,
          "midi": 45,
          "name": "A2",
          "ticks": 44928,
          "time": 155.999844,
          "velocity": 0.5826771653543307
        },
        {
          "duration": 0.14583318749998853,
          "durationTicks": 42,
          "midi": 61,
          "name": "C#4",
          "ticks": 44928,
          "time": 155.999844,
          "velocity": 0.5826771653543307
        },
        {
          "duration": 0.14583318749998853,
          "durationTicks": 42,
          "midi": 52,
          "name": "E3",
          "ticks": 44928,
          "time": 155.999844,
          "velocity": 0.5826771653543307
        },
        {
          "duration": 0.14583318750001695,
          "durationTicks": 42,
          "midi": 52,
          "name": "E3",
          "ticks": 44976,
          "time": 156.1665105,
          "velocity": 0.5905511811023622
        },
        {
          "duration": 0.14583318750001695,
          "durationTicks": 42,
          "midi": 61,
          "name": "C#4",
          "ticks": 44976,
          "time": 156.1665105,
          "velocity": 0.5905511811023622
        },
        {
          "duration": 0.14583318750001695,
          "durationTicks": 42,
          "midi": 45,
          "name": "A2",
          "ticks": 44976,
          "time": 156.1665105,
          "velocity": 0.5905511811023622
        },
        {
          "duration": 0.14583318750001695,
          "durationTicks": 42,
          "midi": 57,
          "name": "A3",
          "ticks": 44976,
          "time": 156.1665105,
          "velocity": 0.5905511811023622
        },
        {
          "duration": 0.14583318749998853,
          "durationTicks": 42,
          "midi": 52,
          "name": "E3",
          "ticks": 45024,
          "time": 156.333177,
          "velocity": 0.5984251968503937
        },
        {
          "duration": 0.14583318749998853,
          "durationTicks": 42,
          "midi": 61,
          "name": "C#4",
          "ticks": 45024,
          "time": 156.333177,
          "velocity": 0.5984251968503937
        },
        {
          "duration": 0.14583318749998853,
          "durationTicks": 42,
          "midi": 45,
          "name": "A2",
          "ticks": 45024,
          "time": 156.333177,
          "velocity": 0.5984251968503937
        },
        {
          "duration": 0.14583318749998853,
          "durationTicks": 42,
          "midi": 57,
          "name": "A3",
          "ticks": 45024,
          "time": 156.333177,
          "velocity": 0.5984251968503937
        },
        {
          "duration": 0.14583318749998853,
          "durationTicks": 42,
          "midi": 57,
          "name": "A3",
          "ticks": 45072,
          "time": 156.4998435,
          "velocity": 0.5984251968503937
        },
        {
          "duration": 0.14583318749998853,
          "durationTicks": 42,
          "midi": 45,
          "name": "A2",
          "ticks": 45072,
          "time": 156.4998435,
          "velocity": 0.5984251968503937
        },
        {
          "duration": 0.14583318749998853,
          "durationTicks": 42,
          "midi": 61,
          "name": "C#4",
          "ticks": 45072,
          "time": 156.4998435,
          "velocity": 0.5984251968503937
        },
        {
          "duration": 0.14583318749998853,
          "durationTicks": 42,
          "midi": 52,
          "name": "E3",
          "ticks": 45072,
          "time": 156.4998435,
          "velocity": 0.5984251968503937
        },
        {
          "duration": 0.14583318750001695,
          "durationTicks": 42,
          "midi": 52,
          "name": "E3",
          "ticks": 45120,
          "time": 156.66651,
          "velocity": 0.6062992125984252
        },
        {
          "duration": 0.14583318750001695,
          "durationTicks": 42,
          "midi": 61,
          "name": "C#4",
          "ticks": 45120,
          "time": 156.66651,
          "velocity": 0.6062992125984252
        },
        {
          "duration": 0.14583318750001695,
          "durationTicks": 42,
          "midi": 45,
          "name": "A2",
          "ticks": 45120,
          "time": 156.66651,
          "velocity": 0.6062992125984252
        },
        {
          "duration": 0.14583318750001695,
          "durationTicks": 42,
          "midi": 57,
          "name": "A3",
          "ticks": 45120,
          "time": 156.66651,
          "velocity": 0.6062992125984252
        },
        {
          "duration": 0.14583318749998853,
          "durationTicks": 42,
          "midi": 52,
          "name": "E3",
          "ticks": 45168,
          "time": 156.8331765,
          "velocity": 0.6141732283464567
        },
        {
          "duration": 0.14583318749998853,
          "durationTicks": 42,
          "midi": 61,
          "name": "C#4",
          "ticks": 45168,
          "time": 156.8331765,
          "velocity": 0.6141732283464567
        },
        {
          "duration": 0.14583318749998853,
          "durationTicks": 42,
          "midi": 45,
          "name": "A2",
          "ticks": 45168,
          "time": 156.8331765,
          "velocity": 0.6141732283464567
        },
        {
          "duration": 0.14583318749998853,
          "durationTicks": 42,
          "midi": 57,
          "name": "A3",
          "ticks": 45168,
          "time": 156.8331765,
          "velocity": 0.6141732283464567
        }
      ],
      "endOfTrackTicks": 45698
    }
  ]
}
