{
  "header": {
    "keySignatures": [],
    "meta": [],
    "name": "",
    "ppq": 96,
    "tempos": [
      {
        "bpm": 170.0000850000425,
        "ticks": 0
      }
    ],
    "timeSignatures": [
      {
        "ticks": 0,
        "timeSignature": [
          4,
          4
        ],
        "measures": 0
      }
    ]
  },
  "tracks": [
    {
      "channel": 0,
      "controlChanges": {},
      "pitchBends": [],
      "instrument": {
        "family": "piano",
        "number": 0,
        "name": "acoustic grand piano"
      },
      "name": "",
      "notes": [],
      "endOfTrackTicks": 0
    },
    {
      "channel": 0,
      "controlChanges": {
        "6": [
          {
            "number": 6,
            "ticks": 0,
            "time": 0,
            "value": 0.09448818897637795
          },
          {
            "number": 6,
            "ticks": 0,
            "time": 0,
            "value": 0.09448818897637795
          },
          {
            "number": 6,
            "ticks": 0,
            "time": 0,
            "value": 0.09448818897637795
          },
          {
            "number": 6,
            "ticks": 54744,
            "time": 201.26460525000002,
            "value": 0.09448818897637795
          },
          {
            "number": 6,
            "ticks": 54907,
            "time": 201.86386965625,
            "value": 0.09448818897637795
          }
        ],
        "7": [
          {
            "number": 7,
            "ticks": 0,
            "time": 0,
            "value": 0.7874015748031497
          },
          {
            "number": 7,
            "ticks": 0,
            "time": 0,
            "value": 0.7874015748031497
          },
          {
            "number": 7,
            "ticks": 0,
            "time": 0,
            "value": 0.7874015748031497
          },
          {
            "number": 7,
            "ticks": 0,
            "time": 0,
            "value": 0.7874015748031497
          },
          {
            "number": 7,
            "ticks": 54744,
            "time": 201.26460525000002,
            "value": 0.7874015748031497
          },
          {
            "number": 7,
            "ticks": 54907,
            "time": 201.86386965625,
            "value": 0.7874015748031497
          }
        ],
        "10": [
          {
            "number": 10,
            "ticks": 0,
            "time": 0,
            "value": 0.5039370078740157
          },
          {
            "number": 10,
            "ticks": 0,
            "time": 0,
            "value": 0.5039370078740157
          },
          {
            "number": 10,
            "ticks": 0,
            "time": 0,
            "value": 0.5039370078740157
          },
          {
            "number": 10,
            "ticks": 0,
            "time": 0,
            "value": 0.5039370078740157
          },
          {
            "number": 10,
            "ticks": 54744,
            "time": 201.26460525000002,
            "value": 0.5039370078740157
          },
          {
            "number": 10,
            "ticks": 54907,
            "time": 201.86386965625,
            "value": 0.5039370078740157
          }
        ],
        "100": [
          {
            "number": 100,
            "ticks": 0,
            "time": 0,
            "value": 0
          },
          {
            "number": 100,
            "ticks": 0,
            "time": 0,
            "value": 0
          },
          {
            "number": 100,
            "ticks": 0,
            "time": 0,
            "value": 0
          },
          {
            "number": 100,
            "ticks": 54744,
            "time": 201.26460525000002,
            "value": 0
          },
          {
            "number": 100,
            "ticks": 54907,
            "time": 201.86386965625,
            "value": 0
          }
        ],
        "101": [
          {
            "number": 101,
            "ticks": 0,
            "time": 0,
            "value": 0
          },
          {
            "number": 101,
            "ticks": 0,
            "time": 0,
            "value": 0
          },
          {
            "number": 101,
            "ticks": 0,
            "time": 0,
            "value": 0
          },
          {
            "number": 101,
            "ticks": 54744,
            "time": 201.26460525000002,
            "value": 0
          },
          {
            "number": 101,
            "ticks": 54907,
            "time": 201.86386965625,
            "value": 0
          }
        ]
      },
      "pitchBends": [
        {
          "ticks": 0,
          "time": 0,
          "value": 0
        },
        {
          "ticks": 0,
          "time": 0,
          "value": 0
        },
        {
          "ticks": 0,
          "time": 0,
          "value": 0
        },
        {
          "ticks": 0,
          "time": 0,
          "value": 0
        },
        {
          "ticks": 54744,
          "time": 201.26460525000002,
          "value": 0
        },
        {
          "ticks": 54907,
          "time": 201.86386965625,
          "value": 0
        }
      ],
      "instrument": {
        "family": "piano",
        "number": 0,
        "name": "acoustic grand piano"
      },
      "name": "MIDI Out #3",
      "notes": [
        {
          "duration": 0.44117625,
          "durationTicks": 120,
          "midi": 56,
          "name": "G#3",
          "ticks": 0,
          "time": 0,
          "velocity": 1
        },
        {
          "duration": 0.17647049999999886,
          "durationTicks": 48,
          "midi": 56,
          "name": "G#3",
          "ticks": 2856,
          "time": 10.49999475,
          "velocity": 0.9133858267716536
        },
        {
          "duration": 0.17647050000000064,
          "durationTicks": 48,
          "midi": 59,
          "name": "B3",
          "ticks": 2904,
          "time": 10.67646525,
          "velocity": 0.9133858267716536
        },
        {
          "duration": 0.17647050000000064,
          "durationTicks": 48,
          "midi": 59,
          "name": "B3",
          "ticks": 2952,
          "time": 10.85293575,
          "velocity": 0.9133858267716536
        },
        {
          "duration": 0.3529409999999995,
          "durationTicks": 96,
          "midi": 59,
          "name": "B3",
          "ticks": 3000,
          "time": 11.029406250000001,
          "velocity": 0.9133858267716536
        },
        {
          "duration": 0.3529409999999995,
          "durationTicks": 96,
          "midi": 59,
          "name": "B3",
          "ticks": 3624,
          "time": 13.32352275,
          "velocity": 0.9133858267716536
        },
        {
          "duration": 0.17647049999999886,
          "durationTicks": 48,
          "midi": 56,
          "name": "G#3",
          "ticks": 3768,
          "time": 13.85293425,
          "velocity": 0.9133858267716536
        },
        {
          "duration": 0.17647050000000064,
          "durationTicks": 48,
          "midi": 59,
          "name": "B3",
          "ticks": 3864,
          "time": 14.20587525,
          "velocity": 0.9133858267716536
        },
        {
          "duration": 0.17647050000000064,
          "durationTicks": 48,
          "midi": 59,
          "name": "B3",
          "ticks": 3960,
          "time": 14.55881625,
          "velocity": 0.9133858267716536
        },
        {
          "duration": 0.1764704999999971,
          "durationTicks": 48,
          "midi": 63,
          "name": "D#4",
          "ticks": 4392,
          "time": 16.147050750000002,
          "velocity": 0.9133858267716536
        },
        {
          "duration": 0.17647050000000064,
          "durationTicks": 48,
          "midi": 63,
          "name": "D#4",
          "ticks": 4440,
          "time": 16.32352125,
          "velocity": 0.9133858267716536
        },
        {
          "duration": 0.17647050000000064,
          "durationTicks": 48,
          "midi": 59,
          "name": "B3",
          "ticks": 4536,
          "time": 16.67646225,
          "velocity": 0.9133858267716536
        },
        {
          "duration": 0.17647050000000064,
          "durationTicks": 48,
          "midi": 59,
          "name": "B3",
          "ticks": 4584,
          "time": 16.85293275,
          "velocity": 0.9133858267716536
        },
        {
          "duration": 0.1764704999999971,
          "durationTicks": 48,
          "midi": 59,
          "name": "B3",
          "ticks": 4632,
          "time": 17.02940325,
          "velocity": 0.9133858267716536
        },
        {
          "duration": 0.17647050000000064,
          "durationTicks": 48,
          "midi": 56,
          "name": "G#3",
          "ticks": 4680,
          "time": 17.20587375,
          "velocity": 0.9133858267716536
        },
        {
          "duration": 0.17647050000000064,
          "durationTicks": 48,
          "midi": 59,
          "name": "B3",
          "ticks": 5064,
          "time": 18.61763775,
          "velocity": 0.9133858267716536
        },
        {
          "duration": 0.3529410000000013,
          "durationTicks": 96,
          "midi": 59,
          "name": "B3",
          "ticks": 5112,
          "time": 18.79410825,
          "velocity": 0.9133858267716536
        },
        {
          "duration": 0.3529410000000013,
          "durationTicks": 96,
          "midi": 56,
          "name": "G#3",
          "ticks": 5496,
          "time": 20.20587225,
          "velocity": 0.9133858267716536
        },
        {
          "duration": 0.17647050000000064,
          "durationTicks": 48,
          "midi": 56,
          "name": "G#3",
          "ticks": 5880,
          "time": 21.61763625,
          "velocity": 0.9133858267716536
        },
        {
          "duration": 0.35294099999999773,
          "durationTicks": 96,
          "midi": 56,
          "name": "G#3",
          "ticks": 5928,
          "time": 21.79410675,
          "velocity": 0.9133858267716536
        },
        {
          "duration": 0.3529410000000013,
          "durationTicks": 96,
          "midi": 59,
          "name": "B3",
          "ticks": 6024,
          "time": 22.14704775,
          "velocity": 0.9133858267716536
        },
        {
          "duration": 0.17647050000000064,
          "durationTicks": 48,
          "midi": 56,
          "name": "G#3",
          "ticks": 6120,
          "time": 22.49998875,
          "velocity": 0.9133858267716536
        },
        {
          "duration": 0.17647050000000064,
          "durationTicks": 48,
          "midi": 66,
          "name": "F#4",
          "ticks": 6456,
          "time": 23.73528225,
          "velocity": 1
        },
        {
          "duration": 0.1764704999999971,
          "durationTicks": 48,
          "midi": 68,
          "name": "G#4",
          "ticks": 6504,
          "time": 23.91175275,
          "velocity": 1
        },
        {
          "duration": 0.17647050000000064,
          "durationTicks": 48,
          "midi": 75,
          "name": "D#5",
          "ticks": 6552,
          "time": 24.08822325,
          "velocity": 1
        },
        {
          "duration": 0.17647050000000064,
          "durationTicks": 48,
          "midi": 66,
          "name": "F#4",
          "ticks": 6648,
          "time": 24.44116425,
          "velocity": 1
        },
        {
          "duration": 0.17647050000000064,
          "durationTicks": 48,
          "midi": 68,
          "name": "G#4",
          "ticks": 6696,
          "time": 24.61763475,
          "velocity": 1
        },
        {
          "duration": 0.17647050000000064,
          "durationTicks": 48,
          "midi": 66,
          "name": "F#4",
          "ticks": 6744,
          "time": 24.79410525,
          "velocity": 1
        },
        {
          "duration": 0.1764704999999971,
          "durationTicks": 48,
          "midi": 68,
          "name": "G#4",
          "ticks": 6792,
          "time": 24.970575750000002,
          "velocity": 1
        },
        {
          "duration": 0.17647050000000064,
          "durationTicks": 48,
          "midi": 75,
          "name": "D#5",
          "ticks": 6840,
          "time": 25.14704625,
          "velocity": 1
        },
        {
          "duration": 0.17647050000000064,
          "durationTicks": 48,
          "midi": 75,
          "name": "D#5",
          "ticks": 6936,
          "time": 25.49998725,
          "velocity": 1
        },
        {
          "duration": 0.17647050000000064,
          "durationTicks": 48,
          "midi": 75,
          "name": "D#5",
          "ticks": 6984,
          "time": 25.67645775,
          "velocity": 1
        },
        {
          "duration": 0.1764704999999971,
          "durationTicks": 48,
          "midi": 75,
          "name": "D#5",
          "ticks": 7032,
          "time": 25.85292825,
          "velocity": 1
        },
        {
          "duration": 0.17647050000000064,
          "durationTicks": 48,
          "midi": 75,
          "name": "D#5",
          "ticks": 7080,
          "time": 26.02939875,
          "velocity": 1
        },
        {
          "duration": 0.17647050000000064,
          "durationTicks": 48,
          "midi": 68,
          "name": "G#4",
          "ticks": 7176,
          "time": 26.38233975,
          "velocity": 1
        },
        {
          "duration": 0.17647050000000064,
          "durationTicks": 48,
          "midi": 66,
          "name": "F#4",
          "ticks": 7272,
          "time": 26.73528075,
          "velocity": 1
        },
        {
          "duration": 0.1764704999999971,
          "durationTicks": 48,
          "midi": 68,
          "name": "G#4",
          "ticks": 7320,
          "time": 26.911751250000002,
          "velocity": 1
        },
        {
          "duration": 0.17647050000000064,
          "durationTicks": 48,
          "midi": 66,
          "name": "F#4",
          "ticks": 7416,
          "time": 27.26469225,
          "velocity": 1
        },
        {
          "duration": 0.17647050000000064,
          "durationTicks": 48,
          "midi": 68,
          "name": "G#4",
          "ticks": 7464,
          "time": 27.44116275,
          "velocity": 1
        },
        {
          "duration": 0.17647050000000064,
          "durationTicks": 48,
          "midi": 66,
          "name": "F#4",
          "ticks": 7512,
          "time": 27.61763325,
          "velocity": 1
        },
        {
          "duration": 0.17647050000000064,
          "durationTicks": 48,
          "midi": 68,
          "name": "G#4",
          "ticks": 7560,
          "time": 27.79410375,
          "velocity": 1
        },
        {
          "duration": 0.1764704999999971,
          "durationTicks": 48,
          "midi": 78,
          "name": "F#5",
          "ticks": 7608,
          "time": 27.970574250000002,
          "velocity": 1
        },
        {
          "duration": 0.17647050000000064,
          "durationTicks": 48,
          "midi": 63,
          "name": "D#4",
          "ticks": 7704,
          "time": 28.32351525,
          "velocity": 1
        },
        {
          "duration": 0.17647050000000064,
          "durationTicks": 48,
          "midi": 63,
          "name": "D#4",
          "ticks": 7752,
          "time": 28.49998575,
          "velocity": 1
        },
        {
          "duration": 0.13235287500000226,
          "durationTicks": 36,
          "midi": 63,
          "name": "D#4",
          "ticks": 7812,
          "time": 28.720573875,
          "velocity": 1
        },
        {
          "duration": 0.35294099999999773,
          "durationTicks": 96,
          "midi": 59,
          "name": "B3",
          "ticks": 7848,
          "time": 28.85292675,
          "velocity": 1
        },
        {
          "duration": 0.705881999999999,
          "durationTicks": 192,
          "midi": 56,
          "name": "G#3",
          "ticks": 7848,
          "time": 28.85292675,
          "velocity": 1
        },
        {
          "duration": 0.1764704999999971,
          "durationTicks": 48,
          "midi": 63,
          "name": "D#4",
          "ticks": 7848,
          "time": 28.85292675,
          "velocity": 1
        },
        {
          "duration": 0.705881999999999,
          "durationTicks": 192,
          "midi": 61,
          "name": "C#4",
          "ticks": 8040,
          "time": 29.55880875,
          "velocity": 1
        },
        {
          "duration": 0.35294099999999773,
          "durationTicks": 96,
          "midi": 63,
          "name": "D#4",
          "ticks": 8088,
          "time": 29.73527925,
          "velocity": 1
        },
        {
          "duration": 0.17647050000000064,
          "durationTicks": 48,
          "midi": 64,
          "name": "E4",
          "ticks": 8184,
          "time": 30.08822025,
          "velocity": 1
        },
        {
          "duration": 0.17647050000000064,
          "durationTicks": 48,
          "midi": 64,
          "name": "E4",
          "ticks": 8232,
          "time": 30.26469075,
          "velocity": 1
        },
        {
          "duration": 0.5294114999999984,
          "durationTicks": 144,
          "midi": 63,
          "name": "D#4",
          "ticks": 8376,
          "time": 30.79410225,
          "velocity": 1
        },
        {
          "duration": 0.17647050000000064,
          "durationTicks": 48,
          "midi": 71,
          "name": "B4",
          "ticks": 8472,
          "time": 31.14704325,
          "velocity": 1
        },
        {
          "duration": 0.17647050000000064,
          "durationTicks": 48,
          "midi": 73,
          "name": "C#5",
          "ticks": 8520,
          "time": 31.32351375,
          "velocity": 1
        },
        {
          "duration": 0.17647050000000064,
          "durationTicks": 48,
          "midi": 75,
          "name": "D#5",
          "ticks": 8568,
          "time": 31.49998425,
          "velocity": 1
        },
        {
          "duration": 0.17647050000000064,
          "durationTicks": 48,
          "midi": 68,
          "name": "G#4",
          "ticks": 8616,
          "time": 31.67645475,
          "velocity": 1
        },
        {
          "duration": 0.3529410000000013,
          "durationTicks": 96,
          "midi": 75,
          "name": "D#5",
          "ticks": 8712,
          "time": 32.02939575,
          "velocity": 1
        },
        {
          "duration": 0.17647050000000064,
          "durationTicks": 48,
          "midi": 73,
          "name": "C#5",
          "ticks": 8808,
          "time": 32.38233675,
          "velocity": 1
        },
        {
          "duration": 0.7058820000000026,
          "durationTicks": 192,
          "midi": 67,
          "name": "G4",
          "ticks": 8808,
          "time": 32.38233675,
          "velocity": 1
        },
        {
          "duration": 0.17647050000000064,
          "durationTicks": 48,
          "midi": 71,
          "name": "B4",
          "ticks": 8856,
          "time": 32.55880725,
          "velocity": 1
        },
        {
          "duration": 0.17647050000000064,
          "durationTicks": 48,
          "midi": 70,
          "name": "A#4",
          "ticks": 8952,
          "time": 32.91174825,
          "velocity": 1
        },
        {
          "duration": 0.17647049999999354,
          "durationTicks": 48,
          "midi": 61,
          "name": "C#4",
          "ticks": 9048,
          "time": 33.26468925,
          "velocity": 1
        },
        {
          "duration": 0.17647049999999354,
          "durationTicks": 48,
          "midi": 66,
          "name": "F#4",
          "ticks": 9048,
          "time": 33.26468925,
          "velocity": 1
        },
        {
          "duration": 0.17647050000000064,
          "durationTicks": 48,
          "midi": 61,
          "name": "C#4",
          "ticks": 9096,
          "time": 33.44115975,
          "velocity": 1
        },
        {
          "duration": 0.17647050000000064,
          "durationTicks": 48,
          "midi": 66,
          "name": "F#4",
          "ticks": 9096,
          "time": 33.44115975,
          "velocity": 1
        },
        {
          "duration": 0.17647050000000064,
          "durationTicks": 48,
          "midi": 61,
          "name": "C#4",
          "ticks": 9144,
          "time": 33.61763025,
          "velocity": 1
        },
        {
          "duration": 0.17647050000000064,
          "durationTicks": 48,
          "midi": 66,
          "name": "F#4",
          "ticks": 9144,
          "time": 33.61763025,
          "velocity": 1
        },
        {
          "duration": 0.17647050000000064,
          "durationTicks": 48,
          "midi": 68,
          "name": "G#4",
          "ticks": 9192,
          "time": 33.79410075,
          "velocity": 1
        },
        {
          "duration": 0.3529410000000013,
          "durationTicks": 96,
          "midi": 71,
          "name": "B4",
          "ticks": 9288,
          "time": 34.14704175,
          "velocity": 1
        },
        {
          "duration": 0.3529410000000013,
          "durationTicks": 96,
          "midi": 66,
          "name": "F#4",
          "ticks": 9288,
          "time": 34.14704175,
          "velocity": 1
        },
        {
          "duration": 0.17647050000000064,
          "durationTicks": 48,
          "midi": 68,
          "name": "G#4",
          "ticks": 9384,
          "time": 34.49998275,
          "velocity": 1
        },
        {
          "duration": 0.17647050000000064,
          "durationTicks": 48,
          "midi": 73,
          "name": "C#5",
          "ticks": 9384,
          "time": 34.49998275,
          "velocity": 1
        },
        {
          "duration": 0.3529410000000013,
          "durationTicks": 96,
          "midi": 73,
          "name": "C#5",
          "ticks": 9432,
          "time": 34.67645325,
          "velocity": 1
        },
        {
          "duration": 0.3529410000000013,
          "durationTicks": 96,
          "midi": 80,
          "name": "G#5",
          "ticks": 9432,
          "time": 34.67645325,
          "velocity": 1
        },
        {
          "duration": 0.17647050000000064,
          "durationTicks": 48,
          "midi": 73,
          "name": "C#5",
          "ticks": 9528,
          "time": 35.02939425,
          "velocity": 1
        },
        {
          "duration": 0.17647050000000064,
          "durationTicks": 48,
          "midi": 68,
          "name": "G#4",
          "ticks": 9528,
          "time": 35.02939425,
          "velocity": 1
        },
        {
          "duration": 0.3529409999999942,
          "durationTicks": 96,
          "midi": 80,
          "name": "G#5",
          "ticks": 9576,
          "time": 35.20586475,
          "velocity": 1
        },
        {
          "duration": 0.3529409999999942,
          "durationTicks": 96,
          "midi": 73,
          "name": "C#5",
          "ticks": 9576,
          "time": 35.20586475,
          "velocity": 1
        },
        {
          "duration": 0.17647050000000064,
          "durationTicks": 48,
          "midi": 73,
          "name": "C#5",
          "ticks": 9672,
          "time": 35.55880575,
          "velocity": 1
        },
        {
          "duration": 0.17647050000000064,
          "durationTicks": 48,
          "midi": 68,
          "name": "G#4",
          "ticks": 9672,
          "time": 35.55880575,
          "velocity": 1
        },
        {
          "duration": 0.3529410000000013,
          "durationTicks": 96,
          "midi": 83,
          "name": "B5",
          "ticks": 9720,
          "time": 35.73527625,
          "velocity": 1
        },
        {
          "duration": 0.17647050000000064,
          "durationTicks": 48,
          "midi": 78,
          "name": "F#5",
          "ticks": 9720,
          "time": 35.73527625,
          "velocity": 1
        },
        {
          "duration": 0.17647050000000064,
          "durationTicks": 48,
          "midi": 85,
          "name": "C#6",
          "ticks": 9816,
          "time": 36.08821725,
          "velocity": 1
        },
        {
          "duration": 0.17647050000000064,
          "durationTicks": 48,
          "midi": 80,
          "name": "G#5",
          "ticks": 9816,
          "time": 36.08821725,
          "velocity": 1
        },
        {
          "duration": 0.17647050000000064,
          "durationTicks": 48,
          "midi": 80,
          "name": "G#5",
          "ticks": 9864,
          "time": 36.26468775,
          "velocity": 1
        },
        {
          "duration": 0.17647050000000064,
          "durationTicks": 48,
          "midi": 80,
          "name": "G#5",
          "ticks": 9912,
          "time": 36.44115825,
          "velocity": 1
        },
        {
          "duration": 0.17647050000000064,
          "durationTicks": 48,
          "midi": 83,
          "name": "B5",
          "ticks": 9912,
          "time": 36.44115825,
          "velocity": 1
        },
        {
          "duration": 0.17647050000000064,
          "durationTicks": 48,
          "midi": 78,
          "name": "F#5",
          "ticks": 9960,
          "time": 36.61762875,
          "velocity": 1
        },
        {
          "duration": 0.7058819999999955,
          "durationTicks": 192,
          "midi": 71,
          "name": "B4",
          "ticks": 9960,
          "time": 36.61762875,
          "velocity": 1
        },
        {
          "duration": 0.17647050000000064,
          "durationTicks": 48,
          "midi": 75,
          "name": "D#5",
          "ticks": 10056,
          "time": 36.97056975,
          "velocity": 1
        },
        {
          "duration": 0.17647050000000064,
          "durationTicks": 48,
          "midi": 80,
          "name": "G#5",
          "ticks": 10056,
          "time": 36.97056975,
          "velocity": 1
        },
        {
          "duration": 0.17647050000000064,
          "durationTicks": 48,
          "midi": 71,
          "name": "B4",
          "ticks": 10152,
          "time": 37.32351075,
          "velocity": 1
        },
        {
          "duration": 0.17647050000000064,
          "durationTicks": 48,
          "midi": 66,
          "name": "F#4",
          "ticks": 10152,
          "time": 37.32351075,
          "velocity": 1
        },
        {
          "duration": 0.3529410000000013,
          "durationTicks": 96,
          "midi": 78,
          "name": "F#5",
          "ticks": 10200,
          "time": 37.49998125,
          "velocity": 1
        },
        {
          "duration": 0.3529410000000013,
          "durationTicks": 96,
          "midi": 73,
          "name": "C#5",
          "ticks": 10200,
          "time": 37.49998125,
          "velocity": 1
        },
        {
          "duration": 0.17647050000000064,
          "durationTicks": 48,
          "midi": 71,
          "name": "B4",
          "ticks": 10296,
          "time": 37.85292225,
          "velocity": 1
        },
        {
          "duration": 0.17647050000000064,
          "durationTicks": 48,
          "midi": 73,
          "name": "C#5",
          "ticks": 10344,
          "time": 38.02939275,
          "velocity": 1
        },
        {
          "duration": 0.17647050000000064,
          "durationTicks": 48,
          "midi": 78,
          "name": "F#5",
          "ticks": 10344,
          "time": 38.02939275,
          "velocity": 1
        },
        {
          "duration": 0.3529410000000013,
          "durationTicks": 96,
          "midi": 75,
          "name": "D#5",
          "ticks": 10344,
          "time": 38.02939275,
          "velocity": 1
        },
        {
          "duration": 0.17647050000000064,
          "durationTicks": 48,
          "midi": 75,
          "name": "D#5",
          "ticks": 10440,
          "time": 38.38233375,
          "velocity": 1
        },
        {
          "duration": 0.3529410000000013,
          "durationTicks": 96,
          "midi": 71,
          "name": "B4",
          "ticks": 10440,
          "time": 38.38233375,
          "velocity": 1
        },
        {
          "duration": 0.17647050000000064,
          "durationTicks": 48,
          "midi": 76,
          "name": "E5",
          "ticks": 10488,
          "time": 38.55880425,
          "velocity": 1
        },
        {
          "duration": 0.3529410000000013,
          "durationTicks": 96,
          "midi": 73,
          "name": "C#5",
          "ticks": 10536,
          "time": 38.73527475,
          "velocity": 1
        },
        {
          "duration": 0.17647050000000064,
          "durationTicks": 48,
          "midi": 78,
          "name": "F#5",
          "ticks": 10584,
          "time": 38.91174525,
          "velocity": 1
        },
        {
          "duration": 0.17647050000000064,
          "durationTicks": 48,
          "midi": 80,
          "name": "G#5",
          "ticks": 10632,
          "time": 39.08821575,
          "velocity": 1
        },
        {
          "duration": 0.17647050000000064,
          "durationTicks": 48,
          "midi": 75,
          "name": "D#5",
          "ticks": 10632,
          "time": 39.08821575,
          "velocity": 1
        },
        {
          "duration": 0.17647049999999354,
          "durationTicks": 48,
          "midi": 85,
          "name": "C#6",
          "ticks": 10680,
          "time": 39.264686250000004,
          "velocity": 1
        },
        {
          "duration": 0.17647049999999354,
          "durationTicks": 48,
          "midi": 80,
          "name": "G#5",
          "ticks": 10680,
          "time": 39.264686250000004,
          "velocity": 1
        },
        {
          "duration": 0.17647050000000064,
          "durationTicks": 48,
          "midi": 83,
          "name": "B5",
          "ticks": 10728,
          "time": 39.44115675,
          "velocity": 1
        },
        {
          "duration": 0.17647050000000064,
          "durationTicks": 48,
          "midi": 80,
          "name": "G#5",
          "ticks": 10728,
          "time": 39.44115675,
          "velocity": 1
        },
        {
          "duration": 0.17647050000000064,
          "durationTicks": 48,
          "midi": 80,
          "name": "G#5",
          "ticks": 10776,
          "time": 39.61762725,
          "velocity": 1
        },
        {
          "duration": 0.17647050000000064,
          "durationTicks": 48,
          "midi": 75,
          "name": "D#5",
          "ticks": 10776,
          "time": 39.61762725,
          "velocity": 1
        },
        {
          "duration": 0.17647050000000064,
          "durationTicks": 48,
          "midi": 78,
          "name": "F#5",
          "ticks": 10824,
          "time": 39.79409775,
          "velocity": 1
        },
        {
          "duration": 0.17647050000000064,
          "durationTicks": 48,
          "midi": 71,
          "name": "B4",
          "ticks": 10824,
          "time": 39.79409775,
          "velocity": 1
        },
        {
          "duration": 0.17647050000000064,
          "durationTicks": 48,
          "midi": 71,
          "name": "B4",
          "ticks": 10872,
          "time": 39.97056825,
          "velocity": 1
        },
        {
          "duration": 0.3529410000000013,
          "durationTicks": 96,
          "midi": 73,
          "name": "C#5",
          "ticks": 10920,
          "time": 40.14703875,
          "velocity": 1
        },
        {
          "duration": 0.3529410000000013,
          "durationTicks": 96,
          "midi": 68,
          "name": "G#4",
          "ticks": 10920,
          "time": 40.14703875,
          "velocity": 1
        },
        {
          "duration": 0.3529410000000013,
          "durationTicks": 96,
          "midi": 71,
          "name": "B4",
          "ticks": 11016,
          "time": 40.49997975,
          "velocity": 1
        },
        {
          "duration": 0.3529410000000013,
          "durationTicks": 96,
          "midi": 75,
          "name": "D#5",
          "ticks": 11016,
          "time": 40.49997975,
          "velocity": 1
        },
        {
          "duration": 0.3529410000000013,
          "durationTicks": 96,
          "midi": 73,
          "name": "C#5",
          "ticks": 11112,
          "time": 40.85292075,
          "velocity": 1
        },
        {
          "duration": 0.3529410000000013,
          "durationTicks": 96,
          "midi": 76,
          "name": "E5",
          "ticks": 11112,
          "time": 40.85292075,
          "velocity": 1
        },
        {
          "duration": 0.3529410000000013,
          "durationTicks": 96,
          "midi": 68,
          "name": "G#4",
          "ticks": 11112,
          "time": 40.85292075,
          "velocity": 1
        },
        {
          "duration": 0.3529409999999942,
          "durationTicks": 96,
          "midi": 85,
          "name": "C#6",
          "ticks": 11208,
          "time": 41.205861750000004,
          "velocity": 1
        },
        {
          "duration": 0.3529409999999942,
          "durationTicks": 96,
          "midi": 80,
          "name": "G#5",
          "ticks": 11208,
          "time": 41.205861750000004,
          "velocity": 1
        },
        {
          "duration": 0.3529410000000013,
          "durationTicks": 96,
          "midi": 80,
          "name": "G#5",
          "ticks": 11304,
          "time": 41.55880275,
          "velocity": 1
        },
        {
          "duration": 0.3529410000000013,
          "durationTicks": 96,
          "midi": 84,
          "name": "C6",
          "ticks": 11304,
          "time": 41.55880275,
          "velocity": 1
        },
        {
          "duration": 0.3529410000000013,
          "durationTicks": 96,
          "midi": 80,
          "name": "G#5",
          "ticks": 11400,
          "time": 41.91174375,
          "velocity": 1
        },
        {
          "duration": 0.3529410000000013,
          "durationTicks": 96,
          "midi": 87,
          "name": "D#6",
          "ticks": 11496,
          "time": 42.26468475,
          "velocity": 1
        },
        {
          "duration": 0.3529410000000013,
          "durationTicks": 96,
          "midi": 83,
          "name": "B5",
          "ticks": 11496,
          "time": 42.26468475,
          "velocity": 1
        },
        {
          "duration": 0.3529410000000013,
          "durationTicks": 96,
          "midi": 88,
          "name": "E6",
          "ticks": 11592,
          "time": 42.61762575,
          "velocity": 1
        },
        {
          "duration": 0.3529410000000013,
          "durationTicks": 96,
          "midi": 83,
          "name": "B5",
          "ticks": 11592,
          "time": 42.61762575,
          "velocity": 1
        },
        {
          "duration": 0.3529409999999942,
          "durationTicks": 96,
          "midi": 87,
          "name": "D#6",
          "ticks": 11688,
          "time": 42.97056675,
          "velocity": 1
        },
        {
          "duration": 0.3529409999999942,
          "durationTicks": 96,
          "midi": 83,
          "name": "B5",
          "ticks": 11688,
          "time": 42.97056675,
          "velocity": 1
        },
        {
          "duration": 0.3529410000000013,
          "durationTicks": 96,
          "midi": 80,
          "name": "G#5",
          "ticks": 11784,
          "time": 43.32350775,
          "velocity": 1
        },
        {
          "duration": 0.3529410000000013,
          "durationTicks": 96,
          "midi": 83,
          "name": "B5",
          "ticks": 11784,
          "time": 43.32350775,
          "velocity": 1
        },
        {
          "duration": 0.17647050000000064,
          "durationTicks": 48,
          "midi": 80,
          "name": "G#5",
          "ticks": 11880,
          "time": 43.67644875,
          "velocity": 1
        },
        {
          "duration": 0.3529410000000013,
          "durationTicks": 96,
          "midi": 76,
          "name": "E5",
          "ticks": 11880,
          "time": 43.67644875,
          "velocity": 1
        },
        {
          "duration": 0.17647050000000064,
          "durationTicks": 48,
          "midi": 71,
          "name": "B4",
          "ticks": 11976,
          "time": 44.02938975,
          "velocity": 1
        },
        {
          "duration": 0.17647050000000064,
          "durationTicks": 48,
          "midi": 76,
          "name": "E5",
          "ticks": 11976,
          "time": 44.02938975,
          "velocity": 1
        },
        {
          "duration": 0.17647050000000064,
          "durationTicks": 48,
          "midi": 80,
          "name": "G#5",
          "ticks": 12024,
          "time": 44.20586025,
          "velocity": 1
        },
        {
          "duration": 0.17647050000000064,
          "durationTicks": 48,
          "midi": 85,
          "name": "C#6",
          "ticks": 12024,
          "time": 44.20586025,
          "velocity": 1
        },
        {
          "duration": 0.3529410000000013,
          "durationTicks": 96,
          "midi": 78,
          "name": "F#5",
          "ticks": 12072,
          "time": 44.38233075,
          "velocity": 1
        },
        {
          "duration": 0.17647050000000064,
          "durationTicks": 48,
          "midi": 83,
          "name": "B5",
          "ticks": 12120,
          "time": 44.55880125,
          "velocity": 1
        },
        {
          "duration": 0.17647050000000064,
          "durationTicks": 48,
          "midi": 85,
          "name": "C#6",
          "ticks": 12168,
          "time": 44.73527175,
          "velocity": 1
        },
        {
          "duration": 0.17647050000000064,
          "durationTicks": 48,
          "midi": 80,
          "name": "G#5",
          "ticks": 12168,
          "time": 44.73527175,
          "velocity": 1
        },
        {
          "duration": 0.3529409999999942,
          "durationTicks": 96,
          "midi": 80,
          "name": "G#5",
          "ticks": 12216,
          "time": 44.91174225,
          "velocity": 1
        },
        {
          "duration": 0.3529409999999942,
          "durationTicks": 96,
          "midi": 76,
          "name": "E5",
          "ticks": 12216,
          "time": 44.91174225,
          "velocity": 1
        },
        {
          "duration": 0.17647050000000064,
          "durationTicks": 48,
          "midi": 78,
          "name": "F#5",
          "ticks": 12312,
          "time": 45.26468325,
          "velocity": 1
        },
        {
          "duration": 0.17647050000000064,
          "durationTicks": 48,
          "midi": 73,
          "name": "C#5",
          "ticks": 12312,
          "time": 45.26468325,
          "velocity": 1
        },
        {
          "duration": 0.17647050000000064,
          "durationTicks": 48,
          "midi": 71,
          "name": "B4",
          "ticks": 12360,
          "time": 45.44115375,
          "velocity": 1
        },
        {
          "duration": 0.17647050000000064,
          "durationTicks": 48,
          "midi": 76,
          "name": "E5",
          "ticks": 12360,
          "time": 45.44115375,
          "velocity": 1
        },
        {
          "duration": 0.3529410000000013,
          "durationTicks": 96,
          "midi": 85,
          "name": "C#6",
          "ticks": 12456,
          "time": 45.79409475,
          "velocity": 1
        },
        {
          "duration": 0.3529410000000013,
          "durationTicks": 96,
          "midi": 80,
          "name": "G#5",
          "ticks": 12456,
          "time": 45.79409475,
          "velocity": 1
        },
        {
          "duration": 0.17647050000000064,
          "durationTicks": 48,
          "midi": 80,
          "name": "G#5",
          "ticks": 12600,
          "time": 46.32350625,
          "velocity": 1
        },
        {
          "duration": 0.17647050000000064,
          "durationTicks": 48,
          "midi": 76,
          "name": "E5",
          "ticks": 12600,
          "time": 46.32350625,
          "velocity": 1
        },
        {
          "duration": 0.17647050000000064,
          "durationTicks": 48,
          "midi": 83,
          "name": "B5",
          "ticks": 12648,
          "time": 46.49997675,
          "velocity": 1
        },
        {
          "duration": 0.3529410000000013,
          "durationTicks": 96,
          "midi": 80,
          "name": "G#5",
          "ticks": 12648,
          "time": 46.49997675,
          "velocity": 1
        },
        {
          "duration": 0.17647050000000064,
          "durationTicks": 48,
          "midi": 85,
          "name": "C#6",
          "ticks": 12696,
          "time": 46.67644725,
          "velocity": 1
        },
        {
          "duration": 0.17647049999999354,
          "durationTicks": 48,
          "midi": 80,
          "name": "G#5",
          "ticks": 12792,
          "time": 47.029388250000004,
          "velocity": 1
        },
        {
          "duration": 0.17647049999999354,
          "durationTicks": 48,
          "midi": 85,
          "name": "C#6",
          "ticks": 12792,
          "time": 47.029388250000004,
          "velocity": 1
        },
        {
          "duration": 0.17647050000000064,
          "durationTicks": 48,
          "midi": 80,
          "name": "G#5",
          "ticks": 12840,
          "time": 47.20585875,
          "velocity": 1
        },
        {
          "duration": 0.17647050000000064,
          "durationTicks": 48,
          "midi": 83,
          "name": "B5",
          "ticks": 12840,
          "time": 47.20585875,
          "velocity": 1
        },
        {
          "duration": 0.17647050000000064,
          "durationTicks": 48,
          "midi": 76,
          "name": "E5",
          "ticks": 12888,
          "time": 47.38232925,
          "velocity": 1
        },
        {
          "duration": 0.17647050000000064,
          "durationTicks": 48,
          "midi": 80,
          "name": "G#5",
          "ticks": 12888,
          "time": 47.38232925,
          "velocity": 1
        },
        {
          "duration": 0.17647050000000064,
          "durationTicks": 48,
          "midi": 83,
          "name": "B5",
          "ticks": 12936,
          "time": 47.55879975,
          "velocity": 1
        },
        {
          "duration": 0.17647050000000064,
          "durationTicks": 48,
          "midi": 88,
          "name": "E6",
          "ticks": 12936,
          "time": 47.55879975,
          "velocity": 1
        },
        {
          "duration": 0.3529410000000013,
          "durationTicks": 96,
          "midi": 83,
          "name": "B5",
          "ticks": 12984,
          "time": 47.73527025,
          "velocity": 1
        },
        {
          "duration": 0.3529410000000013,
          "durationTicks": 96,
          "midi": 87,
          "name": "D#6",
          "ticks": 12984,
          "time": 47.73527025,
          "velocity": 1
        },
        {
          "duration": 0.3529410000000013,
          "durationTicks": 96,
          "midi": 78,
          "name": "F#5",
          "ticks": 13032,
          "time": 47.91174075,
          "velocity": 1
        },
        {
          "duration": 0.17647050000000064,
          "durationTicks": 48,
          "midi": 83,
          "name": "B5",
          "ticks": 13080,
          "time": 48.08821125,
          "velocity": 1
        },
        {
          "duration": 0.17647050000000064,
          "durationTicks": 48,
          "midi": 88,
          "name": "E6",
          "ticks": 13128,
          "time": 48.26468175,
          "velocity": 1
        },
        {
          "duration": 0.17647050000000064,
          "durationTicks": 48,
          "midi": 83,
          "name": "B5",
          "ticks": 13128,
          "time": 48.26468175,
          "velocity": 1
        },
        {
          "duration": 0.17647050000000064,
          "durationTicks": 48,
          "midi": 87,
          "name": "D#6",
          "ticks": 13176,
          "time": 48.44115225,
          "velocity": 1
        },
        {
          "duration": 0.17647050000000064,
          "durationTicks": 48,
          "midi": 83,
          "name": "B5",
          "ticks": 13176,
          "time": 48.44115225,
          "velocity": 1
        },
        {
          "duration": 0.3529410000000013,
          "durationTicks": 96,
          "midi": 80,
          "name": "G#5",
          "ticks": 13224,
          "time": 48.61762275,
          "velocity": 1
        },
        {
          "duration": 0.17647050000000064,
          "durationTicks": 48,
          "midi": 83,
          "name": "B5",
          "ticks": 13272,
          "time": 48.79409325,
          "velocity": 1
        },
        {
          "duration": 0.17647049999999354,
          "durationTicks": 48,
          "midi": 88,
          "name": "E6",
          "ticks": 13320,
          "time": 48.970563750000004,
          "velocity": 1
        },
        {
          "duration": 0.3529409999999942,
          "durationTicks": 96,
          "midi": 83,
          "name": "B5",
          "ticks": 13320,
          "time": 48.970563750000004,
          "velocity": 1
        },
        {
          "duration": 0.17647050000000064,
          "durationTicks": 48,
          "midi": 87,
          "name": "D#6",
          "ticks": 13368,
          "time": 49.14703425,
          "velocity": 1
        },
        {
          "duration": 0.17647050000000064,
          "durationTicks": 48,
          "midi": 88,
          "name": "E6",
          "ticks": 13416,
          "time": 49.32350475,
          "velocity": 1
        },
        {
          "duration": 0.17647050000000064,
          "durationTicks": 48,
          "midi": 78,
          "name": "F#5",
          "ticks": 13464,
          "time": 49.49997525,
          "velocity": 1
        },
        {
          "duration": 0.17647050000000064,
          "durationTicks": 48,
          "midi": 83,
          "name": "B5",
          "ticks": 13464,
          "time": 49.49997525,
          "velocity": 1
        },
        {
          "duration": 0.17647050000000064,
          "durationTicks": 48,
          "midi": 83,
          "name": "B5",
          "ticks": 13512,
          "time": 49.67644575,
          "velocity": 1
        },
        {
          "duration": 0.17647050000000064,
          "durationTicks": 48,
          "midi": 88,
          "name": "E6",
          "ticks": 13512,
          "time": 49.67644575,
          "velocity": 1
        },
        {
          "duration": 0.17647050000000064,
          "durationTicks": 48,
          "midi": 83,
          "name": "B5",
          "ticks": 13560,
          "time": 49.85291625,
          "velocity": 1
        },
        {
          "duration": 0.3529410000000013,
          "durationTicks": 96,
          "midi": 87,
          "name": "D#6",
          "ticks": 13560,
          "time": 49.85291625,
          "velocity": 1
        },
        {
          "duration": 0.17647050000000064,
          "durationTicks": 48,
          "midi": 85,
          "name": "C#6",
          "ticks": 13608,
          "time": 50.02938675,
          "velocity": 1
        },
        {
          "duration": 0.17647050000000064,
          "durationTicks": 48,
          "midi": 78,
          "name": "F#5",
          "ticks": 13656,
          "time": 50.20585725,
          "velocity": 1
        },
        {
          "duration": 0.17647050000000064,
          "durationTicks": 48,
          "midi": 83,
          "name": "B5",
          "ticks": 13656,
          "time": 50.20585725,
          "velocity": 1
        },
        {
          "duration": 0.17647050000000064,
          "durationTicks": 48,
          "midi": 80,
          "name": "G#5",
          "ticks": 13704,
          "time": 50.38232775,
          "velocity": 1
        },
        {
          "duration": 0.17647050000000064,
          "durationTicks": 48,
          "midi": 85,
          "name": "C#6",
          "ticks": 13704,
          "time": 50.38232775,
          "velocity": 1
        },
        {
          "duration": 0.17647050000000064,
          "durationTicks": 48,
          "midi": 80,
          "name": "G#5",
          "ticks": 13800,
          "time": 50.73526875,
          "velocity": 1
        },
        {
          "duration": 0.17647050000000064,
          "durationTicks": 48,
          "midi": 85,
          "name": "C#6",
          "ticks": 13800,
          "time": 50.73526875,
          "velocity": 1
        },
        {
          "duration": 0.17647049999999354,
          "durationTicks": 48,
          "midi": 80,
          "name": "G#5",
          "ticks": 13848,
          "time": 50.911739250000004,
          "velocity": 1
        },
        {
          "duration": 0.17647049999999354,
          "durationTicks": 48,
          "midi": 83,
          "name": "B5",
          "ticks": 13848,
          "time": 50.911739250000004,
          "velocity": 1
        },
        {
          "duration": 0.17647050000000064,
          "durationTicks": 48,
          "midi": 80,
          "name": "G#5",
          "ticks": 13896,
          "time": 51.08820975,
          "velocity": 1
        },
        {
          "duration": 0.17647050000000064,
          "durationTicks": 48,
          "midi": 73,
          "name": "C#5",
          "ticks": 13896,
          "time": 51.08820975,
          "velocity": 1
        },
        {
          "duration": 0.17647050000000064,
          "durationTicks": 48,
          "midi": 78,
          "name": "F#5",
          "ticks": 13944,
          "time": 51.26468025,
          "velocity": 1
        },
        {
          "duration": 0.3529410000000013,
          "durationTicks": 96,
          "midi": 76,
          "name": "E5",
          "ticks": 13992,
          "time": 51.44115075,
          "velocity": 1
        },
        {
          "duration": 0.17647050000000064,
          "durationTicks": 48,
          "midi": 73,
          "name": "C#5",
          "ticks": 13992,
          "time": 51.44115075,
          "velocity": 1
        },
        {
          "duration": 0.3529410000000013,
          "durationTicks": 96,
          "midi": 68,
          "name": "G#4",
          "ticks": 14088,
          "time": 51.79409175,
          "velocity": 1
        },
        {
          "duration": 0.3529410000000013,
          "durationTicks": 96,
          "midi": 73,
          "name": "C#5",
          "ticks": 14088,
          "time": 51.79409175,
          "velocity": 1
        },
        {
          "duration": 0.3529410000000013,
          "durationTicks": 96,
          "midi": 71,
          "name": "B4",
          "ticks": 14184,
          "time": 52.14703275,
          "velocity": 1
        },
        {
          "duration": 0.3529410000000013,
          "durationTicks": 96,
          "midi": 76,
          "name": "E5",
          "ticks": 14184,
          "time": 52.14703275,
          "velocity": 1
        },
        {
          "duration": 0.3529410000000013,
          "durationTicks": 96,
          "midi": 68,
          "name": "G#4",
          "ticks": 14184,
          "time": 52.14703275,
          "velocity": 1
        },
        {
          "duration": 0.3529410000000013,
          "durationTicks": 96,
          "midi": 80,
          "name": "G#5",
          "ticks": 14280,
          "time": 52.49997375,
          "velocity": 1
        },
        {
          "duration": 0.3529410000000013,
          "durationTicks": 96,
          "midi": 85,
          "name": "C#6",
          "ticks": 14280,
          "time": 52.49997375,
          "velocity": 1
        },
        {
          "duration": 0.3529409999999942,
          "durationTicks": 96,
          "midi": 83,
          "name": "B5",
          "ticks": 14376,
          "time": 52.852914750000004,
          "velocity": 1
        },
        {
          "duration": 0.3529409999999942,
          "durationTicks": 96,
          "midi": 78,
          "name": "F#5",
          "ticks": 14376,
          "time": 52.852914750000004,
          "velocity": 1
        },
        {
          "duration": 0.3529410000000013,
          "durationTicks": 96,
          "midi": 76,
          "name": "E5",
          "ticks": 14472,
          "time": 53.20585575,
          "velocity": 1
        },
        {
          "duration": 0.3529410000000013,
          "durationTicks": 96,
          "midi": 80,
          "name": "G#5",
          "ticks": 14472,
          "time": 53.20585575,
          "velocity": 1
        },
        {
          "duration": 0.3529410000000013,
          "durationTicks": 96,
          "midi": 73,
          "name": "C#5",
          "ticks": 14568,
          "time": 53.55879675,
          "velocity": 1
        },
        {
          "duration": 0.3529410000000013,
          "durationTicks": 96,
          "midi": 68,
          "name": "G#4",
          "ticks": 14568,
          "time": 53.55879675,
          "velocity": 1
        },
        {
          "duration": 0.08823525000000387,
          "durationTicks": 24,
          "midi": 75,
          "name": "D#5",
          "ticks": 14664,
          "time": 53.91173775,
          "velocity": 1
        },
        {
          "duration": 0.08823525000000387,
          "durationTicks": 24,
          "midi": 73,
          "name": "C#5",
          "ticks": 14664,
          "time": 53.91173775,
          "velocity": 1
        },
        {
          "duration": 0.08823524999999677,
          "durationTicks": 24,
          "midi": 75,
          "name": "D#5",
          "ticks": 14688,
          "time": 53.999973000000004,
          "velocity": 1
        },
        {
          "duration": 0.08823524999999677,
          "durationTicks": 24,
          "midi": 76,
          "name": "E5",
          "ticks": 14712,
          "time": 54.08820825,
          "velocity": 1
        },
        {
          "duration": 0.17647050000000064,
          "durationTicks": 48,
          "midi": 80,
          "name": "G#5",
          "ticks": 14760,
          "time": 54.26467875,
          "velocity": 1
        },
        {
          "duration": 0.17647050000000064,
          "durationTicks": 48,
          "midi": 73,
          "name": "C#5",
          "ticks": 14760,
          "time": 54.26467875,
          "velocity": 1
        },
        {
          "duration": 0.17647050000000064,
          "durationTicks": 48,
          "midi": 85,
          "name": "C#6",
          "ticks": 14760,
          "time": 54.26467875,
          "velocity": 1
        },
        {
          "duration": 0.17647050000000064,
          "durationTicks": 48,
          "midi": 76,
          "name": "E5",
          "ticks": 14856,
          "time": 54.61761975,
          "velocity": 1
        },
        {
          "duration": 0.17647050000000064,
          "durationTicks": 48,
          "midi": 71,
          "name": "B4",
          "ticks": 14856,
          "time": 54.61761975,
          "velocity": 1
        },
        {
          "duration": 0.17647050000000064,
          "durationTicks": 48,
          "midi": 83,
          "name": "B5",
          "ticks": 14856,
          "time": 54.61761975,
          "velocity": 1
        },
        {
          "duration": 0.17647050000000064,
          "durationTicks": 48,
          "midi": 80,
          "name": "G#5",
          "ticks": 14904,
          "time": 54.79409025,
          "velocity": 1
        },
        {
          "duration": 0.17647050000000064,
          "durationTicks": 48,
          "midi": 73,
          "name": "C#5",
          "ticks": 14904,
          "time": 54.79409025,
          "velocity": 1
        },
        {
          "duration": 0.17647050000000064,
          "durationTicks": 48,
          "midi": 85,
          "name": "C#6",
          "ticks": 14904,
          "time": 54.79409025,
          "velocity": 1
        },
        {
          "duration": 0.17647049999999354,
          "durationTicks": 48,
          "midi": 80,
          "name": "G#5",
          "ticks": 14952,
          "time": 54.970560750000004,
          "velocity": 1
        },
        {
          "duration": 0.17647049999999354,
          "durationTicks": 48,
          "midi": 92,
          "name": "G#6",
          "ticks": 14952,
          "time": 54.970560750000004,
          "velocity": 1
        },
        {
          "duration": 0.17647050000000064,
          "durationTicks": 48,
          "midi": 80,
          "name": "G#5",
          "ticks": 15024,
          "time": 55.2352665,
          "velocity": 1
        },
        {
          "duration": 0.17647050000000064,
          "durationTicks": 48,
          "midi": 73,
          "name": "C#5",
          "ticks": 15024,
          "time": 55.2352665,
          "velocity": 1
        },
        {
          "duration": 0.17647050000000064,
          "durationTicks": 48,
          "midi": 85,
          "name": "C#6",
          "ticks": 15024,
          "time": 55.2352665,
          "velocity": 1
        },
        {
          "duration": 0.17647050000000064,
          "durationTicks": 48,
          "midi": 80,
          "name": "G#5",
          "ticks": 15096,
          "time": 55.49997225,
          "velocity": 1
        },
        {
          "duration": 0.17647050000000064,
          "durationTicks": 48,
          "midi": 73,
          "name": "C#5",
          "ticks": 15096,
          "time": 55.49997225,
          "velocity": 1
        },
        {
          "duration": 0.17647050000000064,
          "durationTicks": 48,
          "midi": 85,
          "name": "C#6",
          "ticks": 15096,
          "time": 55.49997225,
          "velocity": 1
        },
        {
          "duration": 0.17647050000000064,
          "durationTicks": 48,
          "midi": 80,
          "name": "G#5",
          "ticks": 15192,
          "time": 55.85291325,
          "velocity": 1
        },
        {
          "duration": 0.17647050000000064,
          "durationTicks": 48,
          "midi": 73,
          "name": "C#5",
          "ticks": 15192,
          "time": 55.85291325,
          "velocity": 1
        },
        {
          "duration": 0.17647050000000064,
          "durationTicks": 48,
          "midi": 85,
          "name": "C#6",
          "ticks": 15192,
          "time": 55.85291325,
          "velocity": 1
        },
        {
          "duration": 0.17647050000000064,
          "durationTicks": 48,
          "midi": 76,
          "name": "E5",
          "ticks": 15240,
          "time": 56.02938375,
          "velocity": 1
        },
        {
          "duration": 0.17647050000000064,
          "durationTicks": 48,
          "midi": 71,
          "name": "B4",
          "ticks": 15240,
          "time": 56.02938375,
          "velocity": 1
        },
        {
          "duration": 0.17647050000000064,
          "durationTicks": 48,
          "midi": 83,
          "name": "B5",
          "ticks": 15240,
          "time": 56.02938375,
          "velocity": 1
        },
        {
          "duration": 0.17647050000000064,
          "durationTicks": 48,
          "midi": 80,
          "name": "G#5",
          "ticks": 15288,
          "time": 56.20585425,
          "velocity": 1
        },
        {
          "duration": 0.17647050000000064,
          "durationTicks": 48,
          "midi": 73,
          "name": "C#5",
          "ticks": 15288,
          "time": 56.20585425,
          "velocity": 1
        },
        {
          "duration": 0.17647050000000064,
          "durationTicks": 48,
          "midi": 85,
          "name": "C#6",
          "ticks": 15288,
          "time": 56.20585425,
          "velocity": 1
        },
        {
          "duration": 0.17647050000000064,
          "durationTicks": 48,
          "midi": 85,
          "name": "C#6",
          "ticks": 15336,
          "time": 56.38232475,
          "velocity": 1
        },
        {
          "duration": 0.17647050000000064,
          "durationTicks": 48,
          "midi": 80,
          "name": "G#5",
          "ticks": 15336,
          "time": 56.38232475,
          "velocity": 1
        },
        {
          "duration": 0.17647050000000064,
          "durationTicks": 48,
          "midi": 92,
          "name": "G#6",
          "ticks": 15336,
          "time": 56.38232475,
          "velocity": 1
        },
        {
          "duration": 0.17647050000000064,
          "durationTicks": 48,
          "midi": 80,
          "name": "G#5",
          "ticks": 15384,
          "time": 56.55879525,
          "velocity": 1
        },
        {
          "duration": 0.08823524999999677,
          "durationTicks": 24,
          "midi": 83,
          "name": "B5",
          "ticks": 15432,
          "time": 56.73526575,
          "velocity": 1
        },
        {
          "duration": 0.08823525000000387,
          "durationTicks": 24,
          "midi": 85,
          "name": "C#6",
          "ticks": 15456,
          "time": 56.823501,
          "velocity": 1
        },
        {
          "duration": 0.17647049999999354,
          "durationTicks": 48,
          "midi": 80,
          "name": "G#5",
          "ticks": 15480,
          "time": 56.911736250000004,
          "velocity": 1
        },
        {
          "duration": 0.17647049999999354,
          "durationTicks": 48,
          "midi": 88,
          "name": "E6",
          "ticks": 15480,
          "time": 56.911736250000004,
          "velocity": 1
        },
        {
          "duration": 0.17647050000000064,
          "durationTicks": 48,
          "midi": 80,
          "name": "G#5",
          "ticks": 15528,
          "time": 57.08820675,
          "velocity": 1
        },
        {
          "duration": 0.17647050000000064,
          "durationTicks": 48,
          "midi": 73,
          "name": "C#5",
          "ticks": 15528,
          "time": 57.08820675,
          "velocity": 1
        },
        {
          "duration": 0.17647050000000064,
          "durationTicks": 48,
          "midi": 85,
          "name": "C#6",
          "ticks": 15528,
          "time": 57.08820675,
          "velocity": 1
        },
        {
          "duration": 0.17647050000000064,
          "durationTicks": 48,
          "midi": 78,
          "name": "F#5",
          "ticks": 15624,
          "time": 57.44114775,
          "velocity": 1
        },
        {
          "duration": 0.17647050000000064,
          "durationTicks": 48,
          "midi": 71,
          "name": "B4",
          "ticks": 15624,
          "time": 57.44114775,
          "velocity": 1
        },
        {
          "duration": 0.17647050000000064,
          "durationTicks": 48,
          "midi": 83,
          "name": "B5",
          "ticks": 15624,
          "time": 57.44114775,
          "velocity": 1
        },
        {
          "duration": 0.17647050000000064,
          "durationTicks": 48,
          "midi": 78,
          "name": "F#5",
          "ticks": 15672,
          "time": 57.61761825,
          "velocity": 1
        },
        {
          "duration": 0.17647050000000064,
          "durationTicks": 48,
          "midi": 73,
          "name": "C#5",
          "ticks": 15672,
          "time": 57.61761825,
          "velocity": 1
        },
        {
          "duration": 0.17647050000000064,
          "durationTicks": 48,
          "midi": 85,
          "name": "C#6",
          "ticks": 15672,
          "time": 57.61761825,
          "velocity": 1
        },
        {
          "duration": 0.17647050000000064,
          "durationTicks": 48,
          "midi": 85,
          "name": "C#6",
          "ticks": 15720,
          "time": 57.79408875,
          "velocity": 1
        },
        {
          "duration": 0.17647050000000064,
          "durationTicks": 48,
          "midi": 80,
          "name": "G#5",
          "ticks": 15720,
          "time": 57.79408875,
          "velocity": 1
        },
        {
          "duration": 0.17647050000000064,
          "durationTicks": 48,
          "midi": 92,
          "name": "G#6",
          "ticks": 15720,
          "time": 57.79408875,
          "velocity": 1
        },
        {
          "duration": 0.17647050000000064,
          "durationTicks": 48,
          "midi": 80,
          "name": "G#5",
          "ticks": 15792,
          "time": 58.0587945,
          "velocity": 1
        },
        {
          "duration": 0.17647050000000064,
          "durationTicks": 48,
          "midi": 73,
          "name": "C#5",
          "ticks": 15792,
          "time": 58.0587945,
          "velocity": 1
        },
        {
          "duration": 0.17647050000000064,
          "durationTicks": 48,
          "midi": 85,
          "name": "C#6",
          "ticks": 15792,
          "time": 58.0587945,
          "velocity": 1
        },
        {
          "duration": 0.17647050000000064,
          "durationTicks": 48,
          "midi": 80,
          "name": "G#5",
          "ticks": 15864,
          "time": 58.32350025,
          "velocity": 1
        },
        {
          "duration": 0.17647050000000064,
          "durationTicks": 48,
          "midi": 73,
          "name": "C#5",
          "ticks": 15864,
          "time": 58.32350025,
          "velocity": 1
        },
        {
          "duration": 0.17647050000000064,
          "durationTicks": 48,
          "midi": 85,
          "name": "C#6",
          "ticks": 15864,
          "time": 58.32350025,
          "velocity": 1
        },
        {
          "duration": 0.17647050000000064,
          "durationTicks": 48,
          "midi": 80,
          "name": "G#5",
          "ticks": 15960,
          "time": 58.67644125,
          "velocity": 1
        },
        {
          "duration": 0.17647050000000064,
          "durationTicks": 48,
          "midi": 73,
          "name": "C#5",
          "ticks": 15960,
          "time": 58.67644125,
          "velocity": 1
        },
        {
          "duration": 0.17647050000000064,
          "durationTicks": 48,
          "midi": 85,
          "name": "C#6",
          "ticks": 15960,
          "time": 58.67644125,
          "velocity": 1
        },
        {
          "duration": 0.17647049999999354,
          "durationTicks": 48,
          "midi": 78,
          "name": "F#5",
          "ticks": 16008,
          "time": 58.852911750000004,
          "velocity": 1
        },
        {
          "duration": 0.17647049999999354,
          "durationTicks": 48,
          "midi": 71,
          "name": "B4",
          "ticks": 16008,
          "time": 58.852911750000004,
          "velocity": 1
        },
        {
          "duration": 0.17647049999999354,
          "durationTicks": 48,
          "midi": 83,
          "name": "B5",
          "ticks": 16008,
          "time": 58.852911750000004,
          "velocity": 1
        },
        {
          "duration": 0.17647050000000064,
          "durationTicks": 48,
          "midi": 80,
          "name": "G#5",
          "ticks": 16056,
          "time": 59.02938225,
          "velocity": 1
        },
        {
          "duration": 0.17647050000000064,
          "durationTicks": 48,
          "midi": 73,
          "name": "C#5",
          "ticks": 16056,
          "time": 59.02938225,
          "velocity": 1
        },
        {
          "duration": 0.17647050000000064,
          "durationTicks": 48,
          "midi": 85,
          "name": "C#6",
          "ticks": 16056,
          "time": 59.02938225,
          "velocity": 1
        },
        {
          "duration": 0.17647050000000064,
          "durationTicks": 48,
          "midi": 87,
          "name": "D#6",
          "ticks": 16104,
          "time": 59.20585275,
          "velocity": 1
        },
        {
          "duration": 0.17647050000000064,
          "durationTicks": 48,
          "midi": 80,
          "name": "G#5",
          "ticks": 16104,
          "time": 59.20585275,
          "velocity": 1
        },
        {
          "duration": 0.17647050000000064,
          "durationTicks": 48,
          "midi": 92,
          "name": "G#6",
          "ticks": 16104,
          "time": 59.20585275,
          "velocity": 1
        },
        {
          "duration": 0.17647050000000064,
          "durationTicks": 48,
          "midi": 90,
          "name": "F#6",
          "ticks": 16152,
          "time": 59.38232325,
          "velocity": 1
        },
        {
          "duration": 0.17647050000000064,
          "durationTicks": 48,
          "midi": 83,
          "name": "B5",
          "ticks": 16152,
          "time": 59.38232325,
          "velocity": 1
        },
        {
          "duration": 0.17647050000000064,
          "durationTicks": 48,
          "midi": 95,
          "name": "B6",
          "ticks": 16152,
          "time": 59.38232325,
          "velocity": 1
        },
        {
          "duration": 0.08823525000000387,
          "durationTicks": 24,
          "midi": 90,
          "name": "F#6",
          "ticks": 16200,
          "time": 59.55879375,
          "velocity": 1
        },
        {
          "duration": 0.08823524999999677,
          "durationTicks": 24,
          "midi": 92,
          "name": "G#6",
          "ticks": 16224,
          "time": 59.647029,
          "velocity": 1
        },
        {
          "duration": 0.17647050000000064,
          "durationTicks": 48,
          "midi": 85,
          "name": "C#6",
          "ticks": 16248,
          "time": 59.73526425,
          "velocity": 1
        },
        {
          "duration": 0.17647050000000064,
          "durationTicks": 48,
          "midi": 78,
          "name": "F#5",
          "ticks": 16248,
          "time": 59.73526425,
          "velocity": 1
        },
        {
          "duration": 0.17647050000000064,
          "durationTicks": 48,
          "midi": 90,
          "name": "F#6",
          "ticks": 16248,
          "time": 59.73526425,
          "velocity": 1
        },
        {
          "duration": 0.17647050000000064,
          "durationTicks": 48,
          "midi": 83,
          "name": "B5",
          "ticks": 16296,
          "time": 59.91173475,
          "velocity": 1
        },
        {
          "duration": 0.17647050000000064,
          "durationTicks": 48,
          "midi": 76,
          "name": "E5",
          "ticks": 16296,
          "time": 59.91173475,
          "velocity": 1
        },
        {
          "duration": 0.17647050000000064,
          "durationTicks": 48,
          "midi": 88,
          "name": "E6",
          "ticks": 16296,
          "time": 59.91173475,
          "velocity": 1
        },
        {
          "duration": 0.17647050000000064,
          "durationTicks": 48,
          "midi": 80,
          "name": "G#5",
          "ticks": 16368,
          "time": 60.1764405,
          "velocity": 1
        },
        {
          "duration": 0.17647050000000064,
          "durationTicks": 48,
          "midi": 75,
          "name": "D#5",
          "ticks": 16368,
          "time": 60.1764405,
          "velocity": 1
        },
        {
          "duration": 0.17647050000000064,
          "durationTicks": 48,
          "midi": 87,
          "name": "D#6",
          "ticks": 16368,
          "time": 60.1764405,
          "velocity": 1
        },
        {
          "duration": 0.17647050000000064,
          "durationTicks": 48,
          "midi": 78,
          "name": "F#5",
          "ticks": 16440,
          "time": 60.44114625,
          "velocity": 1
        },
        {
          "duration": 0.17647050000000064,
          "durationTicks": 48,
          "midi": 71,
          "name": "B4",
          "ticks": 16440,
          "time": 60.44114625,
          "velocity": 1
        },
        {
          "duration": 0.17647050000000064,
          "durationTicks": 48,
          "midi": 83,
          "name": "B5",
          "ticks": 16440,
          "time": 60.44114625,
          "velocity": 1
        },
        {
          "duration": 0.3529409999999942,
          "durationTicks": 96,
          "midi": 75,
          "name": "D#5",
          "ticks": 16488,
          "time": 60.61761675,
          "velocity": 1
        },
        {
          "duration": 0.3529409999999942,
          "durationTicks": 96,
          "midi": 68,
          "name": "G#4",
          "ticks": 16488,
          "time": 60.61761675,
          "velocity": 1
        },
        {
          "duration": 0.3529409999999942,
          "durationTicks": 96,
          "midi": 80,
          "name": "G#5",
          "ticks": 16488,
          "time": 60.61761675,
          "velocity": 1
        },
        {
          "duration": 0.3529410000000013,
          "durationTicks": 96,
          "midi": 78,
          "name": "F#5",
          "ticks": 16584,
          "time": 60.97055775,
          "velocity": 1
        },
        {
          "duration": 0.3529410000000013,
          "durationTicks": 96,
          "midi": 71,
          "name": "B4",
          "ticks": 16584,
          "time": 60.97055775,
          "velocity": 1
        },
        {
          "duration": 0.3529410000000013,
          "durationTicks": 96,
          "midi": 83,
          "name": "B5",
          "ticks": 16584,
          "time": 60.97055775,
          "velocity": 1
        },
        {
          "duration": 0.17647050000000064,
          "durationTicks": 48,
          "midi": 68,
          "name": "G#4",
          "ticks": 16680,
          "time": 61.32349875,
          "velocity": 1
        },
        {
          "duration": 0.17647050000000064,
          "durationTicks": 48,
          "midi": 80,
          "name": "G#5",
          "ticks": 16680,
          "time": 61.32349875,
          "velocity": 1
        },
        {
          "duration": 0.17647050000000064,
          "durationTicks": 48,
          "midi": 66,
          "name": "F#4",
          "ticks": 16752,
          "time": 61.5882045,
          "velocity": 1
        },
        {
          "duration": 0.17647050000000064,
          "durationTicks": 48,
          "midi": 78,
          "name": "F#5",
          "ticks": 16752,
          "time": 61.5882045,
          "velocity": 1
        },
        {
          "duration": 0.17647050000000064,
          "durationTicks": 48,
          "midi": 63,
          "name": "D#4",
          "ticks": 16824,
          "time": 61.85291025,
          "velocity": 1
        },
        {
          "duration": 0.17647050000000064,
          "durationTicks": 48,
          "midi": 75,
          "name": "D#5",
          "ticks": 16824,
          "time": 61.85291025,
          "velocity": 1
        },
        {
          "duration": 0.3529410000000013,
          "durationTicks": 96,
          "midi": 60,
          "name": "C4",
          "ticks": 16872,
          "time": 62.02938075,
          "velocity": 1
        },
        {
          "duration": 0.3529410000000013,
          "durationTicks": 96,
          "midi": 72,
          "name": "C5",
          "ticks": 16872,
          "time": 62.02938075,
          "velocity": 1
        },
        {
          "duration": 0.17647050000000064,
          "durationTicks": 48,
          "midi": 56,
          "name": "G#3",
          "ticks": 16968,
          "time": 62.38232175,
          "velocity": 1
        },
        {
          "duration": 0.17647050000000064,
          "durationTicks": 48,
          "midi": 68,
          "name": "G#4",
          "ticks": 16968,
          "time": 62.38232175,
          "velocity": 1
        },
        {
          "duration": 0.17647050000000064,
          "durationTicks": 48,
          "midi": 59,
          "name": "B3",
          "ticks": 17016,
          "time": 62.55879225,
          "velocity": 0.9133858267716536
        },
        {
          "duration": 0.17647049999999354,
          "durationTicks": 48,
          "midi": 59,
          "name": "B3",
          "ticks": 17064,
          "time": 62.735262750000004,
          "velocity": 0.9133858267716536
        },
        {
          "duration": 0.7058819999999955,
          "durationTicks": 192,
          "midi": 56,
          "name": "G#3",
          "ticks": 17064,
          "time": 62.735262750000004,
          "velocity": 0.9133858267716536
        },
        {
          "duration": 0.17647050000000064,
          "durationTicks": 48,
          "midi": 59,
          "name": "B3",
          "ticks": 17112,
          "time": 62.91173325,
          "velocity": 0.9133858267716536
        },
        {
          "duration": 0.17647050000000064,
          "durationTicks": 48,
          "midi": 59,
          "name": "B3",
          "ticks": 17160,
          "time": 63.08820375,
          "velocity": 0.9133858267716536
        },
        {
          "duration": 0.17647050000000064,
          "durationTicks": 48,
          "midi": 59,
          "name": "B3",
          "ticks": 17208,
          "time": 63.26467425,
          "velocity": 0.9133858267716536
        },
        {
          "duration": 0.17647050000000064,
          "durationTicks": 48,
          "midi": 59,
          "name": "B3",
          "ticks": 17256,
          "time": 63.44114475,
          "velocity": 0.9133858267716536
        },
        {
          "duration": 0.17647050000000064,
          "durationTicks": 48,
          "midi": 59,
          "name": "B3",
          "ticks": 17304,
          "time": 63.61761525,
          "velocity": 0.9133858267716536
        },
        {
          "duration": 0.17647050000000064,
          "durationTicks": 48,
          "midi": 59,
          "name": "B3",
          "ticks": 17352,
          "time": 63.79408575,
          "velocity": 0.9133858267716536
        },
        {
          "duration": 0.17647049999999354,
          "durationTicks": 48,
          "midi": 59,
          "name": "B3",
          "ticks": 17400,
          "time": 63.97055625,
          "velocity": 0.9133858267716536
        },
        {
          "duration": 0.3529410000000013,
          "durationTicks": 96,
          "midi": 59,
          "name": "B3",
          "ticks": 17448,
          "time": 64.14702675,
          "velocity": 0.9133858267716536
        },
        {
          "duration": 0.17647049999999354,
          "durationTicks": 48,
          "midi": 56,
          "name": "G#3",
          "ticks": 17592,
          "time": 64.67643825,
          "velocity": 0.9133858267716536
        },
        {
          "duration": 0.17647049999999354,
          "durationTicks": 48,
          "midi": 59,
          "name": "B3",
          "ticks": 17688,
          "time": 65.02937925,
          "velocity": 0.9133858267716536
        },
        {
          "duration": 0.17647049999999354,
          "durationTicks": 48,
          "midi": 59,
          "name": "B3",
          "ticks": 17784,
          "time": 65.38232025,
          "velocity": 0.9133858267716536
        },
        {
          "duration": 0.7058820000000026,
          "durationTicks": 192,
          "midi": 59,
          "name": "B3",
          "ticks": 17832,
          "time": 65.55879075,
          "velocity": 0.9133858267716536
        },
        {
          "duration": 0.17647049999999354,
          "durationTicks": 48,
          "midi": 59,
          "name": "B3",
          "ticks": 18024,
          "time": 66.26467275,
          "velocity": 0.9133858267716536
        },
        {
          "duration": 0.17647050000000775,
          "durationTicks": 48,
          "midi": 59,
          "name": "B3",
          "ticks": 18072,
          "time": 66.44114325,
          "velocity": 0.9133858267716536
        },
        {
          "duration": 0.17647049999999354,
          "durationTicks": 48,
          "midi": 59,
          "name": "B3",
          "ticks": 18120,
          "time": 66.61761375,
          "velocity": 0.9133858267716536
        },
        {
          "duration": 0.17647050000000775,
          "durationTicks": 48,
          "midi": 59,
          "name": "B3",
          "ticks": 18168,
          "time": 66.79408425,
          "velocity": 0.9133858267716536
        },
        {
          "duration": 0.17647049999999354,
          "durationTicks": 48,
          "midi": 63,
          "name": "D#4",
          "ticks": 18216,
          "time": 66.97055475,
          "velocity": 0.9133858267716536
        },
        {
          "duration": 0.5294114999999948,
          "durationTicks": 144,
          "midi": 71,
          "name": "B4",
          "ticks": 18216,
          "time": 66.97055475,
          "velocity": 0.9133858267716536
        },
        {
          "duration": 0.17647050000000775,
          "durationTicks": 48,
          "midi": 62,
          "name": "D4",
          "ticks": 18264,
          "time": 67.14702525,
          "velocity": 0.9133858267716536
        },
        {
          "duration": 0.3529410000000013,
          "durationTicks": 96,
          "midi": 59,
          "name": "B3",
          "ticks": 18360,
          "time": 67.49996625,
          "velocity": 0.9133858267716536
        },
        {
          "duration": 0.17647049999999354,
          "durationTicks": 48,
          "midi": 59,
          "name": "B3",
          "ticks": 18456,
          "time": 67.85290725,
          "velocity": 0.9133858267716536
        },
        {
          "duration": 0.17647050000000775,
          "durationTicks": 48,
          "midi": 73,
          "name": "C#5",
          "ticks": 18600,
          "time": 68.38231875,
          "velocity": 1
        },
        {
          "duration": 0.17647050000000775,
          "durationTicks": 48,
          "midi": 63,
          "name": "D#4",
          "ticks": 18600,
          "time": 68.38231875,
          "velocity": 0.9133858267716536
        },
        {
          "duration": 0.17647049999999354,
          "durationTicks": 48,
          "midi": 75,
          "name": "D#5",
          "ticks": 18648,
          "time": 68.55878925,
          "velocity": 1
        },
        {
          "duration": 0.3529410000000013,
          "durationTicks": 96,
          "midi": 75,
          "name": "D#5",
          "ticks": 18696,
          "time": 68.73525975,
          "velocity": 1
        },
        {
          "duration": 0.17647050000000775,
          "durationTicks": 48,
          "midi": 73,
          "name": "C#5",
          "ticks": 18792,
          "time": 69.08820075,
          "velocity": 1
        },
        {
          "duration": 0.17647049999999354,
          "durationTicks": 48,
          "midi": 75,
          "name": "D#5",
          "ticks": 18840,
          "time": 69.26467125,
          "velocity": 1
        },
        {
          "duration": 0.3529410000000013,
          "durationTicks": 96,
          "midi": 75,
          "name": "D#5",
          "ticks": 18888,
          "time": 69.44114175,
          "velocity": 1
        },
        {
          "duration": 0.17647049999999354,
          "durationTicks": 48,
          "midi": 73,
          "name": "C#5",
          "ticks": 18984,
          "time": 69.79408275,
          "velocity": 1
        },
        {
          "duration": 0.3529410000000013,
          "durationTicks": 96,
          "midi": 68,
          "name": "G#4",
          "ticks": 18984,
          "time": 69.79408275,
          "velocity": 1
        },
        {
          "duration": 0.3529410000000013,
          "durationTicks": 96,
          "midi": 75,
          "name": "D#5",
          "ticks": 19032,
          "time": 69.97055325,
          "velocity": 1
        },
        {
          "duration": 0.17647050000000775,
          "durationTicks": 48,
          "midi": 74,
          "name": "D5",
          "ticks": 19128,
          "time": 70.32349425,
          "velocity": 1
        },
        {
          "duration": 0.17647049999999354,
          "durationTicks": 48,
          "midi": 74,
          "name": "D5",
          "ticks": 19176,
          "time": 70.49996475,
          "velocity": 1
        },
        {
          "duration": 0.3529410000000013,
          "durationTicks": 96,
          "midi": 68,
          "name": "G#4",
          "ticks": 19176,
          "time": 70.49996475,
          "velocity": 1
        },
        {
          "duration": 0.17647050000000775,
          "durationTicks": 48,
          "midi": 75,
          "name": "D#5",
          "ticks": 19224,
          "time": 70.67643525,
          "velocity": 1
        },
        {
          "duration": 0.17647049999999354,
          "durationTicks": 48,
          "midi": 75,
          "name": "D#5",
          "ticks": 19272,
          "time": 70.85290575,
          "velocity": 1
        },
        {
          "duration": 0.2647057500000045,
          "durationTicks": 72,
          "midi": 71,
          "name": "B4",
          "ticks": 19320,
          "time": 71.02937625,
          "velocity": 1
        },
        {
          "duration": 0.17647050000000775,
          "durationTicks": 48,
          "midi": 68,
          "name": "G#4",
          "ticks": 19416,
          "time": 71.38231725,
          "velocity": 1
        },
        {
          "duration": 0.3529410000000013,
          "durationTicks": 96,
          "midi": 68,
          "name": "G#4",
          "ticks": 19704,
          "time": 72.44114025,
          "velocity": 0.9133858267716536
        },
        {
          "duration": 0.17647049999999354,
          "durationTicks": 48,
          "midi": 68,
          "name": "G#4",
          "ticks": 19800,
          "time": 72.79408125,
          "velocity": 0.9133858267716536
        },
        {
          "duration": 0.17647050000000775,
          "durationTicks": 48,
          "midi": 68,
          "name": "G#4",
          "ticks": 19848,
          "time": 72.97055175,
          "velocity": 0.9133858267716536
        },
        {
          "duration": 0.17647049999999354,
          "durationTicks": 48,
          "midi": 68,
          "name": "G#4",
          "ticks": 19896,
          "time": 73.14702225,
          "velocity": 0.9133858267716536
        },
        {
          "duration": 0.17647050000000775,
          "durationTicks": 48,
          "midi": 68,
          "name": "G#4",
          "ticks": 19944,
          "time": 73.32349275,
          "velocity": 0.9133858267716536
        },
        {
          "duration": 0.17647049999999354,
          "durationTicks": 48,
          "midi": 68,
          "name": "G#4",
          "ticks": 19992,
          "time": 73.49996325000001,
          "velocity": 0.9133858267716536
        },
        {
          "duration": 0.3529410000000013,
          "durationTicks": 96,
          "midi": 68,
          "name": "G#4",
          "ticks": 20040,
          "time": 73.67643375,
          "velocity": 0.9133858267716536
        },
        {
          "duration": 0.17647049999999354,
          "durationTicks": 48,
          "midi": 68,
          "name": "G#4",
          "ticks": 20136,
          "time": 74.02937475,
          "velocity": 0.9133858267716536
        },
        {
          "duration": 0.17647049999999354,
          "durationTicks": 48,
          "midi": 59,
          "name": "B3",
          "ticks": 20232,
          "time": 74.38231575,
          "velocity": 0.9133858267716536
        },
        {
          "duration": 0.17647050000000775,
          "durationTicks": 48,
          "midi": 68,
          "name": "G#4",
          "ticks": 20280,
          "time": 74.55878625,
          "velocity": 0.9133858267716536
        },
        {
          "duration": 0.17647049999999354,
          "durationTicks": 48,
          "midi": 71,
          "name": "B4",
          "ticks": 20328,
          "time": 74.73525675,
          "velocity": 0.9133858267716536
        },
        {
          "duration": 0.17647050000000775,
          "durationTicks": 48,
          "midi": 73,
          "name": "C#5",
          "ticks": 20376,
          "time": 74.91172725,
          "velocity": 0.9133858267716536
        },
        {
          "duration": 0.17647050000000775,
          "durationTicks": 48,
          "midi": 75,
          "name": "D#5",
          "ticks": 20472,
          "time": 75.26466825,
          "velocity": 0.9133858267716536
        },
        {
          "duration": 0.17647049999999354,
          "durationTicks": 48,
          "midi": 56,
          "name": "G#3",
          "ticks": 20664,
          "time": 75.97055025,
          "velocity": 0.9133858267716536
        },
        {
          "duration": 0.17647049999999354,
          "durationTicks": 48,
          "midi": 61,
          "name": "C#4",
          "ticks": 20664,
          "time": 75.97055025,
          "velocity": 0.9133858267716536
        },
        {
          "duration": 0.17647050000000775,
          "durationTicks": 48,
          "midi": 61,
          "name": "C#4",
          "ticks": 20712,
          "time": 76.14702075,
          "velocity": 0.9133858267716536
        },
        {
          "duration": 0.17647049999999354,
          "durationTicks": 48,
          "midi": 56,
          "name": "G#3",
          "ticks": 20760,
          "time": 76.32349125,
          "velocity": 0.9133858267716536
        },
        {
          "duration": 0.17647049999999354,
          "durationTicks": 48,
          "midi": 63,
          "name": "D#4",
          "ticks": 20760,
          "time": 76.32349125,
          "velocity": 0.9133858267716536
        },
        {
          "duration": 0.17647050000000775,
          "durationTicks": 48,
          "midi": 61,
          "name": "C#4",
          "ticks": 20808,
          "time": 76.49996175,
          "velocity": 0.9133858267716536
        },
        {
          "duration": 0.17647049999999354,
          "durationTicks": 48,
          "midi": 59,
          "name": "B3",
          "ticks": 20856,
          "time": 76.67643225,
          "velocity": 0.9133858267716536
        },
        {
          "duration": 0.17647050000000775,
          "durationTicks": 48,
          "midi": 56,
          "name": "G#3",
          "ticks": 20904,
          "time": 76.85290275,
          "velocity": 0.9133858267716536
        },
        {
          "duration": 0.17647050000000775,
          "durationTicks": 48,
          "midi": 68,
          "name": "G#4",
          "ticks": 21000,
          "time": 77.20584375,
          "velocity": 0.9133858267716536
        },
        {
          "duration": 0.17647050000000775,
          "durationTicks": 48,
          "midi": 68,
          "name": "G#4",
          "ticks": 21144,
          "time": 77.73525525,
          "velocity": 0.9133858267716536
        },
        {
          "duration": 0.17647049999999354,
          "durationTicks": 48,
          "midi": 59,
          "name": "B3",
          "ticks": 21192,
          "time": 77.91172575,
          "velocity": 0.9133858267716536
        },
        {
          "duration": 0.17647050000000775,
          "durationTicks": 48,
          "midi": 75,
          "name": "D#5",
          "ticks": 21240,
          "time": 78.08819625,
          "velocity": 0.9133858267716536
        },
        {
          "duration": 0.17647049999999354,
          "durationTicks": 48,
          "midi": 63,
          "name": "D#4",
          "ticks": 21288,
          "time": 78.26466675,
          "velocity": 0.9133858267716536
        },
        {
          "duration": 0.17647050000000775,
          "durationTicks": 48,
          "midi": 63,
          "name": "D#4",
          "ticks": 21336,
          "time": 78.44113725,
          "velocity": 0.9133858267716536
        },
        {
          "duration": 0.17647050000000775,
          "durationTicks": 48,
          "midi": 68,
          "name": "G#4",
          "ticks": 21336,
          "time": 78.44113725,
          "velocity": 0.9133858267716536
        },
        {
          "duration": 0.17647050000000775,
          "durationTicks": 48,
          "midi": 59,
          "name": "B3",
          "ticks": 21432,
          "time": 78.79407825,
          "velocity": 0.9133858267716536
        },
        {
          "duration": 0.17647049999999354,
          "durationTicks": 48,
          "midi": 66,
          "name": "F#4",
          "ticks": 21480,
          "time": 78.97054875,
          "velocity": 0.9133858267716536
        },
        {
          "duration": 0.17647050000000775,
          "durationTicks": 48,
          "midi": 59,
          "name": "B3",
          "ticks": 21528,
          "time": 79.14701925,
          "velocity": 0.9133858267716536
        },
        {
          "duration": 0.17647050000000775,
          "durationTicks": 48,
          "midi": 68,
          "name": "G#4",
          "ticks": 21528,
          "time": 79.14701925,
          "velocity": 0.9133858267716536
        },
        {
          "duration": 0.17647049999999354,
          "durationTicks": 48,
          "midi": 56,
          "name": "G#3",
          "ticks": 21576,
          "time": 79.32348975000001,
          "velocity": 0.9133858267716536
        },
        {
          "duration": 0.17647049999999354,
          "durationTicks": 48,
          "midi": 68,
          "name": "G#4",
          "ticks": 21576,
          "time": 79.32348975000001,
          "velocity": 0.9133858267716536
        },
        {
          "duration": 0.17647049999999354,
          "durationTicks": 48,
          "midi": 56,
          "name": "G#3",
          "ticks": 21624,
          "time": 79.49996025,
          "velocity": 0.9133858267716536
        },
        {
          "duration": 0.17647049999999354,
          "durationTicks": 48,
          "midi": 68,
          "name": "G#4",
          "ticks": 21624,
          "time": 79.49996025,
          "velocity": 0.9133858267716536
        },
        {
          "duration": 0.17647050000000775,
          "durationTicks": 48,
          "midi": 73,
          "name": "C#5",
          "ticks": 21672,
          "time": 79.67643075,
          "velocity": 1
        },
        {
          "duration": 0.17647050000000775,
          "durationTicks": 48,
          "midi": 68,
          "name": "G#4",
          "ticks": 21672,
          "time": 79.67643075,
          "velocity": 0.9133858267716536
        },
        {
          "duration": 0.17647049999999354,
          "durationTicks": 48,
          "midi": 75,
          "name": "D#5",
          "ticks": 21720,
          "time": 79.85290125,
          "velocity": 1
        },
        {
          "duration": 0.17647049999999354,
          "durationTicks": 48,
          "midi": 70,
          "name": "A#4",
          "ticks": 21720,
          "time": 79.85290125,
          "velocity": 0.9133858267716536
        },
        {
          "duration": 0.3529410000000013,
          "durationTicks": 96,
          "midi": 75,
          "name": "D#5",
          "ticks": 21768,
          "time": 80.02937175,
          "velocity": 1
        },
        {
          "duration": 0.3529410000000013,
          "durationTicks": 96,
          "midi": 70,
          "name": "A#4",
          "ticks": 21768,
          "time": 80.02937175,
          "velocity": 0.9133858267716536
        },
        {
          "duration": 0.17647050000000775,
          "durationTicks": 48,
          "midi": 73,
          "name": "C#5",
          "ticks": 21864,
          "time": 80.38231275,
          "velocity": 1
        },
        {
          "duration": 0.17647050000000775,
          "durationTicks": 48,
          "midi": 68,
          "name": "G#4",
          "ticks": 21864,
          "time": 80.38231275,
          "velocity": 0.9133858267716536
        },
        {
          "duration": 0.17647049999999354,
          "durationTicks": 48,
          "midi": 75,
          "name": "D#5",
          "ticks": 21912,
          "time": 80.55878325,
          "velocity": 1
        },
        {
          "duration": 0.17647049999999354,
          "durationTicks": 48,
          "midi": 70,
          "name": "A#4",
          "ticks": 21912,
          "time": 80.55878325,
          "velocity": 0.9133858267716536
        },
        {
          "duration": 0.3529410000000013,
          "durationTicks": 96,
          "midi": 75,
          "name": "D#5",
          "ticks": 21960,
          "time": 80.73525375,
          "velocity": 1
        },
        {
          "duration": 0.3529410000000013,
          "durationTicks": 96,
          "midi": 70,
          "name": "A#4",
          "ticks": 21960,
          "time": 80.73525375,
          "velocity": 0.9133858267716536
        },
        {
          "duration": 0.17647050000000775,
          "durationTicks": 48,
          "midi": 73,
          "name": "C#5",
          "ticks": 22056,
          "time": 81.08819475,
          "velocity": 1
        },
        {
          "duration": 0.17647050000000775,
          "durationTicks": 48,
          "midi": 68,
          "name": "G#4",
          "ticks": 22056,
          "time": 81.08819475,
          "velocity": 0.9133858267716536
        },
        {
          "duration": 0.17647049999999354,
          "durationTicks": 48,
          "midi": 75,
          "name": "D#5",
          "ticks": 22104,
          "time": 81.26466525000001,
          "velocity": 1
        },
        {
          "duration": 0.17647049999999354,
          "durationTicks": 48,
          "midi": 70,
          "name": "A#4",
          "ticks": 22104,
          "time": 81.26466525000001,
          "velocity": 0.9133858267716536
        },
        {
          "duration": 0.17647049999999354,
          "durationTicks": 48,
          "midi": 75,
          "name": "D#5",
          "ticks": 22152,
          "time": 81.44113575,
          "velocity": 1
        },
        {
          "duration": 0.17647049999999354,
          "durationTicks": 48,
          "midi": 70,
          "name": "A#4",
          "ticks": 22152,
          "time": 81.44113575,
          "velocity": 0.9133858267716536
        },
        {
          "duration": 0.17647050000000775,
          "durationTicks": 48,
          "midi": 75,
          "name": "D#5",
          "ticks": 22200,
          "time": 81.61760625,
          "velocity": 1
        },
        {
          "duration": 0.17647050000000775,
          "durationTicks": 48,
          "midi": 70,
          "name": "A#4",
          "ticks": 22200,
          "time": 81.61760625,
          "velocity": 0.9133858267716536
        },
        {
          "duration": 0.17647049999999354,
          "durationTicks": 48,
          "midi": 75,
          "name": "D#5",
          "ticks": 22248,
          "time": 81.79407675,
          "velocity": 1
        },
        {
          "duration": 0.17647049999999354,
          "durationTicks": 48,
          "midi": 70,
          "name": "A#4",
          "ticks": 22248,
          "time": 81.79407675,
          "velocity": 0.9133858267716536
        },
        {
          "duration": 0.17647050000000775,
          "durationTicks": 48,
          "midi": 75,
          "name": "D#5",
          "ticks": 22296,
          "time": 81.97054725,
          "velocity": 1
        },
        {
          "duration": 0.17647050000000775,
          "durationTicks": 48,
          "midi": 70,
          "name": "A#4",
          "ticks": 22296,
          "time": 81.97054725,
          "velocity": 0.9133858267716536
        },
        {
          "duration": 0.17647049999999354,
          "durationTicks": 48,
          "midi": 75,
          "name": "D#5",
          "ticks": 22344,
          "time": 82.14701775,
          "velocity": 1
        },
        {
          "duration": 0.17647049999999354,
          "durationTicks": 48,
          "midi": 70,
          "name": "A#4",
          "ticks": 22344,
          "time": 82.14701775,
          "velocity": 0.9133858267716536
        },
        {
          "duration": 0.3529410000000013,
          "durationTicks": 96,
          "midi": 71,
          "name": "B4",
          "ticks": 22392,
          "time": 82.32348825,
          "velocity": 0.9133858267716536
        },
        {
          "duration": 0.17647050000000775,
          "durationTicks": 48,
          "midi": 68,
          "name": "G#4",
          "ticks": 22488,
          "time": 82.67642925,
          "velocity": 1
        },
        {
          "duration": 0.17647049999999354,
          "durationTicks": 48,
          "midi": 68,
          "name": "G#4",
          "ticks": 22536,
          "time": 82.85289975,
          "velocity": 1
        },
        {
          "duration": 0.17647049999999354,
          "durationTicks": 48,
          "midi": 66,
          "name": "F#4",
          "ticks": 22632,
          "time": 83.20584075000001,
          "velocity": 1
        },
        {
          "duration": 0.17647049999999354,
          "durationTicks": 48,
          "midi": 68,
          "name": "G#4",
          "ticks": 22680,
          "time": 83.38231125,
          "velocity": 1
        },
        {
          "duration": 0.17647049999999354,
          "durationTicks": 48,
          "midi": 51,
          "name": "D#3",
          "ticks": 22776,
          "time": 83.73525225,
          "velocity": 1
        },
        {
          "duration": 0.17647050000000775,
          "durationTicks": 48,
          "midi": 54,
          "name": "F#3",
          "ticks": 22824,
          "time": 83.91172275,
          "velocity": 1
        },
        {
          "duration": 0.17647049999999354,
          "durationTicks": 48,
          "midi": 51,
          "name": "D#3",
          "ticks": 22872,
          "time": 84.08819325,
          "velocity": 1
        },
        {
          "duration": 0.17647050000000775,
          "durationTicks": 48,
          "midi": 54,
          "name": "F#3",
          "ticks": 22920,
          "time": 84.26466375,
          "velocity": 1
        },
        {
          "duration": 0.17647049999999354,
          "durationTicks": 48,
          "midi": 51,
          "name": "D#3",
          "ticks": 22968,
          "time": 84.44113425,
          "velocity": 1
        },
        {
          "duration": 0.17647050000000775,
          "durationTicks": 48,
          "midi": 54,
          "name": "F#3",
          "ticks": 23016,
          "time": 84.61760475,
          "velocity": 1
        },
        {
          "duration": 0.17647049999999354,
          "durationTicks": 48,
          "midi": 63,
          "name": "D#4",
          "ticks": 23064,
          "time": 84.79407525,
          "velocity": 1
        },
        {
          "duration": 0.17647049999999354,
          "durationTicks": 48,
          "midi": 56,
          "name": "G#3",
          "ticks": 23064,
          "time": 84.79407525,
          "velocity": 1
        },
        {
          "duration": 0.3529410000000013,
          "durationTicks": 96,
          "midi": 63,
          "name": "D#4",
          "ticks": 23112,
          "time": 84.97054575,
          "velocity": 1
        },
        {
          "duration": 0.3529410000000013,
          "durationTicks": 96,
          "midi": 56,
          "name": "G#3",
          "ticks": 23112,
          "time": 84.97054575,
          "velocity": 1
        },
        {
          "duration": 0.17647049999999354,
          "durationTicks": 48,
          "midi": 56,
          "name": "G#3",
          "ticks": 23208,
          "time": 85.32348675,
          "velocity": 1
        },
        {
          "duration": 0.17647049999999354,
          "durationTicks": 48,
          "midi": 56,
          "name": "G#3",
          "ticks": 23280,
          "time": 85.5881925,
          "velocity": 1
        },
        {
          "duration": 0.17647050000000775,
          "durationTicks": 48,
          "midi": 56,
          "name": "G#3",
          "ticks": 23352,
          "time": 85.85289825,
          "velocity": 1
        },
        {
          "duration": 0.17647049999999354,
          "durationTicks": 48,
          "midi": 59,
          "name": "B3",
          "ticks": 23400,
          "time": 86.02936875,
          "velocity": 1
        },
        {
          "duration": 0.17647050000000775,
          "durationTicks": 48,
          "midi": 56,
          "name": "G#3",
          "ticks": 23448,
          "time": 86.20583925,
          "velocity": 1
        },
        {
          "duration": 0.17647049999999354,
          "durationTicks": 48,
          "midi": 59,
          "name": "B3",
          "ticks": 23496,
          "time": 86.38230975,
          "velocity": 1
        },
        {
          "duration": 0.17647050000000775,
          "durationTicks": 48,
          "midi": 63,
          "name": "D#4",
          "ticks": 23544,
          "time": 86.55878025,
          "velocity": 1
        },
        {
          "duration": 0.17647050000000775,
          "durationTicks": 48,
          "midi": 59,
          "name": "B3",
          "ticks": 23544,
          "time": 86.55878025,
          "velocity": 1
        },
        {
          "duration": 0.17647049999999354,
          "durationTicks": 48,
          "midi": 64,
          "name": "E4",
          "ticks": 23592,
          "time": 86.73525075,
          "velocity": 1
        },
        {
          "duration": 0.17647049999999354,
          "durationTicks": 48,
          "midi": 59,
          "name": "B3",
          "ticks": 23592,
          "time": 86.73525075,
          "velocity": 1
        },
        {
          "duration": 0.17647050000000775,
          "durationTicks": 48,
          "midi": 64,
          "name": "E4",
          "ticks": 23664,
          "time": 86.9999565,
          "velocity": 1
        },
        {
          "duration": 0.08823525000001098,
          "durationTicks": 24,
          "midi": 59,
          "name": "B3",
          "ticks": 23664,
          "time": 86.9999565,
          "velocity": 1
        },
        {
          "duration": 0.17647049999999354,
          "durationTicks": 48,
          "midi": 64,
          "name": "E4",
          "ticks": 23736,
          "time": 87.26466225,
          "velocity": 1
        },
        {
          "duration": 0.17647049999999354,
          "durationTicks": 48,
          "midi": 59,
          "name": "B3",
          "ticks": 23736,
          "time": 87.26466225,
          "velocity": 1
        },
        {
          "duration": 0.17647050000000775,
          "durationTicks": 48,
          "midi": 63,
          "name": "D#4",
          "ticks": 23784,
          "time": 87.44113275,
          "velocity": 1
        },
        {
          "duration": 0.17647050000000775,
          "durationTicks": 48,
          "midi": 59,
          "name": "B3",
          "ticks": 23784,
          "time": 87.44113275,
          "velocity": 1
        },
        {
          "duration": 0.17647049999999354,
          "durationTicks": 48,
          "midi": 64,
          "name": "E4",
          "ticks": 23832,
          "time": 87.61760325,
          "velocity": 1
        },
        {
          "duration": 0.17647049999999354,
          "durationTicks": 48,
          "midi": 59,
          "name": "B3",
          "ticks": 23832,
          "time": 87.61760325,
          "velocity": 1
        },
        {
          "duration": 0.17647050000000775,
          "durationTicks": 48,
          "midi": 63,
          "name": "D#4",
          "ticks": 23880,
          "time": 87.79407375,
          "velocity": 1
        },
        {
          "duration": 0.17647049999999354,
          "durationTicks": 48,
          "midi": 59,
          "name": "B3",
          "ticks": 23928,
          "time": 87.97054425,
          "velocity": 1
        },
        {
          "duration": 0.17647050000000775,
          "durationTicks": 48,
          "midi": 56,
          "name": "G#3",
          "ticks": 23976,
          "time": 88.14701475,
          "velocity": 1
        },
        {
          "duration": 0.17647049999999354,
          "durationTicks": 48,
          "midi": 56,
          "name": "G#3",
          "ticks": 24048,
          "time": 88.4117205,
          "velocity": 1
        },
        {
          "duration": 0.17647049999999354,
          "durationTicks": 48,
          "midi": 56,
          "name": "G#3",
          "ticks": 24120,
          "time": 88.67642625,
          "velocity": 1
        },
        {
          "duration": 0.17647050000000775,
          "durationTicks": 48,
          "midi": 59,
          "name": "B3",
          "ticks": 24168,
          "time": 88.85289675,
          "velocity": 1
        },
        {
          "duration": 0.17647049999999354,
          "durationTicks": 48,
          "midi": 56,
          "name": "G#3",
          "ticks": 24216,
          "time": 89.02936725,
          "velocity": 1
        },
        {
          "duration": 0.17647049999999354,
          "durationTicks": 48,
          "midi": 59,
          "name": "B3",
          "ticks": 24264,
          "time": 89.20583775,
          "velocity": 1
        },
        {
          "duration": 0.17647050000000775,
          "durationTicks": 48,
          "midi": 63,
          "name": "D#4",
          "ticks": 24312,
          "time": 89.38230825,
          "velocity": 1
        },
        {
          "duration": 0.17647050000000775,
          "durationTicks": 48,
          "midi": 59,
          "name": "B3",
          "ticks": 24312,
          "time": 89.38230825,
          "velocity": 1
        },
        {
          "duration": 0.17647049999999354,
          "durationTicks": 48,
          "midi": 64,
          "name": "E4",
          "ticks": 24360,
          "time": 89.55877875,
          "velocity": 1
        },
        {
          "duration": 0.17647049999999354,
          "durationTicks": 48,
          "midi": 59,
          "name": "B3",
          "ticks": 24360,
          "time": 89.55877875,
          "velocity": 1
        },
        {
          "duration": 0.17647049999999354,
          "durationTicks": 48,
          "midi": 64,
          "name": "E4",
          "ticks": 24432,
          "time": 89.8234845,
          "velocity": 1
        },
        {
          "duration": 0.08823524999999677,
          "durationTicks": 24,
          "midi": 59,
          "name": "B3",
          "ticks": 24432,
          "time": 89.8234845,
          "velocity": 1
        },
        {
          "duration": 0.17647050000000775,
          "durationTicks": 48,
          "midi": 64,
          "name": "E4",
          "ticks": 24504,
          "time": 90.08819025,
          "velocity": 1
        },
        {
          "duration": 0.17647050000000775,
          "durationTicks": 48,
          "midi": 59,
          "name": "B3",
          "ticks": 24504,
          "time": 90.08819025,
          "velocity": 1
        },
        {
          "duration": 0.7058820000000026,
          "durationTicks": 192,
          "midi": 59,
          "name": "B3",
          "ticks": 24552,
          "time": 90.26466075,
          "velocity": 1
        },
        {
          "duration": 0.17647049999999354,
          "durationTicks": 48,
          "midi": 63,
          "name": "D#4",
          "ticks": 24552,
          "time": 90.26466075,
          "velocity": 1
        },
        {
          "duration": 0.17647050000000775,
          "durationTicks": 48,
          "midi": 64,
          "name": "E4",
          "ticks": 24600,
          "time": 90.44113125,
          "velocity": 1
        },
        {
          "duration": 0.17647049999999354,
          "durationTicks": 48,
          "midi": 63,
          "name": "D#4",
          "ticks": 24648,
          "time": 90.61760175,
          "velocity": 1
        },
        {
          "duration": 0.17647050000000775,
          "durationTicks": 48,
          "midi": 56,
          "name": "G#3",
          "ticks": 24696,
          "time": 90.79407225,
          "velocity": 1
        },
        {
          "duration": 0.17647049999999354,
          "durationTicks": 48,
          "midi": 56,
          "name": "G#3",
          "ticks": 24744,
          "time": 90.97054275,
          "velocity": 1
        },
        {
          "duration": 0.17647050000000775,
          "durationTicks": 48,
          "midi": 56,
          "name": "G#3",
          "ticks": 24816,
          "time": 91.2352485,
          "velocity": 1
        },
        {
          "duration": 0.17647049999999354,
          "durationTicks": 48,
          "midi": 56,
          "name": "G#3",
          "ticks": 24888,
          "time": 91.49995425,
          "velocity": 1
        },
        {
          "duration": 0.17647050000000775,
          "durationTicks": 48,
          "midi": 59,
          "name": "B3",
          "ticks": 24936,
          "time": 91.67642475,
          "velocity": 1
        },
        {
          "duration": 0.17647049999999354,
          "durationTicks": 48,
          "midi": 56,
          "name": "G#3",
          "ticks": 24984,
          "time": 91.85289525,
          "velocity": 1
        },
        {
          "duration": 0.17647050000000775,
          "durationTicks": 48,
          "midi": 59,
          "name": "B3",
          "ticks": 25032,
          "time": 92.02936575,
          "velocity": 1
        },
        {
          "duration": 0.17647049999999354,
          "durationTicks": 48,
          "midi": 63,
          "name": "D#4",
          "ticks": 25080,
          "time": 92.20583625,
          "velocity": 1
        },
        {
          "duration": 0.17647049999999354,
          "durationTicks": 48,
          "midi": 59,
          "name": "B3",
          "ticks": 25080,
          "time": 92.20583625,
          "velocity": 1
        },
        {
          "duration": 0.17647050000000775,
          "durationTicks": 48,
          "midi": 64,
          "name": "E4",
          "ticks": 25128,
          "time": 92.38230675,
          "velocity": 1
        },
        {
          "duration": 0.17647050000000775,
          "durationTicks": 48,
          "midi": 59,
          "name": "B3",
          "ticks": 25128,
          "time": 92.38230675,
          "velocity": 1
        },
        {
          "duration": 0.17647049999999354,
          "durationTicks": 48,
          "midi": 64,
          "name": "E4",
          "ticks": 25200,
          "time": 92.6470125,
          "velocity": 1
        },
        {
          "duration": 0.17647049999999354,
          "durationTicks": 48,
          "midi": 59,
          "name": "B3",
          "ticks": 25200,
          "time": 92.6470125,
          "velocity": 1
        },
        {
          "duration": 0.17647049999999354,
          "durationTicks": 48,
          "midi": 64,
          "name": "E4",
          "ticks": 25272,
          "time": 92.91171825,
          "velocity": 1
        },
        {
          "duration": 0.17647049999999354,
          "durationTicks": 48,
          "midi": 59,
          "name": "B3",
          "ticks": 25272,
          "time": 92.91171825,
          "velocity": 1
        },
        {
          "duration": 0.17647050000000775,
          "durationTicks": 48,
          "midi": 63,
          "name": "D#4",
          "ticks": 25320,
          "time": 93.08818875,
          "velocity": 1
        },
        {
          "duration": 0.17647050000000775,
          "durationTicks": 48,
          "midi": 59,
          "name": "B3",
          "ticks": 25320,
          "time": 93.08818875,
          "velocity": 1
        },
        {
          "duration": 0.17647049999999354,
          "durationTicks": 48,
          "midi": 64,
          "name": "E4",
          "ticks": 25368,
          "time": 93.26465925000001,
          "velocity": 1
        },
        {
          "duration": 0.17647049999999354,
          "durationTicks": 48,
          "midi": 59,
          "name": "B3",
          "ticks": 25368,
          "time": 93.26465925000001,
          "velocity": 1
        },
        {
          "duration": 0.17647049999999354,
          "durationTicks": 48,
          "midi": 63,
          "name": "D#4",
          "ticks": 25416,
          "time": 93.44112975,
          "velocity": 1
        },
        {
          "duration": 0.17647049999999354,
          "durationTicks": 48,
          "midi": 59,
          "name": "B3",
          "ticks": 25416,
          "time": 93.44112975,
          "velocity": 1
        },
        {
          "duration": 0.17647050000000775,
          "durationTicks": 48,
          "midi": 59,
          "name": "B3",
          "ticks": 25464,
          "time": 93.61760025,
          "velocity": 1
        },
        {
          "duration": 0.17647049999999354,
          "durationTicks": 48,
          "midi": 56,
          "name": "G#3",
          "ticks": 25512,
          "time": 93.79407075,
          "velocity": 1
        },
        {
          "duration": 0.17647049999999354,
          "durationTicks": 48,
          "midi": 56,
          "name": "G#3",
          "ticks": 25584,
          "time": 94.05877650000001,
          "velocity": 1
        },
        {
          "duration": 0.17647050000000775,
          "durationTicks": 48,
          "midi": 56,
          "name": "G#3",
          "ticks": 25656,
          "time": 94.32348225,
          "velocity": 1
        },
        {
          "duration": 0.17647049999999354,
          "durationTicks": 48,
          "midi": 59,
          "name": "B3",
          "ticks": 25704,
          "time": 94.49995275,
          "velocity": 1
        },
        {
          "duration": 0.17647050000000775,
          "durationTicks": 48,
          "midi": 56,
          "name": "G#3",
          "ticks": 25752,
          "time": 94.67642325,
          "velocity": 1
        },
        {
          "duration": 0.17647049999999354,
          "durationTicks": 48,
          "midi": 59,
          "name": "B3",
          "ticks": 25800,
          "time": 94.85289375,
          "velocity": 1
        },
        {
          "duration": 0.17647050000000775,
          "durationTicks": 48,
          "midi": 63,
          "name": "D#4",
          "ticks": 25848,
          "time": 95.02936425,
          "velocity": 1
        },
        {
          "duration": 0.17647050000000775,
          "durationTicks": 48,
          "midi": 59,
          "name": "B3",
          "ticks": 25848,
          "time": 95.02936425,
          "velocity": 1
        },
        {
          "duration": 0.17647049999999354,
          "durationTicks": 48,
          "midi": 64,
          "name": "E4",
          "ticks": 25896,
          "time": 95.20583475000001,
          "velocity": 1
        },
        {
          "duration": 0.17647049999999354,
          "durationTicks": 48,
          "midi": 59,
          "name": "B3",
          "ticks": 25896,
          "time": 95.20583475000001,
          "velocity": 1
        },
        {
          "duration": 0.17647050000000775,
          "durationTicks": 48,
          "midi": 64,
          "name": "E4",
          "ticks": 25968,
          "time": 95.4705405,
          "velocity": 1
        },
        {
          "duration": 0.17647050000000775,
          "durationTicks": 48,
          "midi": 59,
          "name": "B3",
          "ticks": 25968,
          "time": 95.4705405,
          "velocity": 1
        },
        {
          "duration": 0.17647049999999354,
          "durationTicks": 48,
          "midi": 64,
          "name": "E4",
          "ticks": 26040,
          "time": 95.73524625,
          "velocity": 1
        },
        {
          "duration": 0.17647049999999354,
          "durationTicks": 48,
          "midi": 59,
          "name": "B3",
          "ticks": 26040,
          "time": 95.73524625,
          "velocity": 1
        },
        {
          "duration": 0.3529410000000013,
          "durationTicks": 96,
          "midi": 63,
          "name": "D#4",
          "ticks": 26088,
          "time": 95.91171675,
          "velocity": 1
        },
        {
          "duration": 0.3529410000000013,
          "durationTicks": 96,
          "midi": 59,
          "name": "B3",
          "ticks": 26088,
          "time": 95.91171675,
          "velocity": 1
        },
        {
          "duration": 0.17647050000000775,
          "durationTicks": 48,
          "midi": 75,
          "name": "D#5",
          "ticks": 26280,
          "time": 96.61759875,
          "velocity": 1
        },
        {
          "duration": 0.17647050000000775,
          "durationTicks": 48,
          "midi": 68,
          "name": "G#4",
          "ticks": 26280,
          "time": 96.61759875,
          "velocity": 1
        },
        {
          "duration": 0.17647049999999354,
          "durationTicks": 48,
          "midi": 63,
          "name": "D#4",
          "ticks": 26328,
          "time": 96.79406925,
          "velocity": 1
        },
        {
          "duration": 0.17647049999999354,
          "durationTicks": 48,
          "midi": 68,
          "name": "G#4",
          "ticks": 26328,
          "time": 96.79406925,
          "velocity": 1
        },
        {
          "duration": 0.17647050000000775,
          "durationTicks": 48,
          "midi": 68,
          "name": "G#4",
          "ticks": 26376,
          "time": 96.97053975,
          "velocity": 1
        },
        {
          "duration": 0.17647050000000775,
          "durationTicks": 48,
          "midi": 63,
          "name": "D#4",
          "ticks": 26376,
          "time": 96.97053975,
          "velocity": 1
        },
        {
          "duration": 0.17647049999999354,
          "durationTicks": 48,
          "midi": 66,
          "name": "F#4",
          "ticks": 26424,
          "time": 97.14701025000001,
          "velocity": 1
        },
        {
          "duration": 0.17647049999999354,
          "durationTicks": 48,
          "midi": 63,
          "name": "D#4",
          "ticks": 26424,
          "time": 97.14701025000001,
          "velocity": 1
        },
        {
          "duration": 0.17647049999999354,
          "durationTicks": 48,
          "midi": 68,
          "name": "G#4",
          "ticks": 26472,
          "time": 97.32348075,
          "velocity": 1
        },
        {
          "duration": 0.17647049999999354,
          "durationTicks": 48,
          "midi": 63,
          "name": "D#4",
          "ticks": 26472,
          "time": 97.32348075,
          "velocity": 1
        },
        {
          "duration": 0.17647050000000775,
          "durationTicks": 48,
          "midi": 66,
          "name": "F#4",
          "ticks": 26520,
          "time": 97.49995125,
          "velocity": 1
        },
        {
          "duration": 0.17647050000000775,
          "durationTicks": 48,
          "midi": 63,
          "name": "D#4",
          "ticks": 26520,
          "time": 97.49995125,
          "velocity": 1
        },
        {
          "duration": 0.17647049999999354,
          "durationTicks": 48,
          "midi": 68,
          "name": "G#4",
          "ticks": 26568,
          "time": 97.67642175,
          "velocity": 1
        },
        {
          "duration": 0.17647049999999354,
          "durationTicks": 48,
          "midi": 63,
          "name": "D#4",
          "ticks": 26568,
          "time": 97.67642175,
          "velocity": 1
        },
        {
          "duration": 0.17647050000000775,
          "durationTicks": 48,
          "midi": 66,
          "name": "F#4",
          "ticks": 26616,
          "time": 97.85289225,
          "velocity": 1
        },
        {
          "duration": 0.17647050000000775,
          "durationTicks": 48,
          "midi": 63,
          "name": "D#4",
          "ticks": 26616,
          "time": 97.85289225,
          "velocity": 1
        },
        {
          "duration": 0.17647049999999354,
          "durationTicks": 48,
          "midi": 68,
          "name": "G#4",
          "ticks": 26664,
          "time": 98.02936275,
          "velocity": 1
        },
        {
          "duration": 0.17647049999999354,
          "durationTicks": 48,
          "midi": 63,
          "name": "D#4",
          "ticks": 26664,
          "time": 98.02936275,
          "velocity": 1
        },
        {
          "duration": 0.17647050000000775,
          "durationTicks": 48,
          "midi": 66,
          "name": "F#4",
          "ticks": 26712,
          "time": 98.20583325,
          "velocity": 1
        },
        {
          "duration": 0.17647050000000775,
          "durationTicks": 48,
          "midi": 63,
          "name": "D#4",
          "ticks": 26712,
          "time": 98.20583325,
          "velocity": 1
        },
        {
          "duration": 0.17647049999999354,
          "durationTicks": 48,
          "midi": 68,
          "name": "G#4",
          "ticks": 26760,
          "time": 98.38230375,
          "velocity": 1
        },
        {
          "duration": 0.17647050000000775,
          "durationTicks": 48,
          "midi": 75,
          "name": "D#5",
          "ticks": 26808,
          "time": 98.55877425,
          "velocity": 1
        },
        {
          "duration": 0.17647050000000775,
          "durationTicks": 48,
          "midi": 68,
          "name": "G#4",
          "ticks": 26808,
          "time": 98.55877425,
          "velocity": 1
        },
        {
          "duration": 0.17647050000000775,
          "durationTicks": 48,
          "midi": 68,
          "name": "G#4",
          "ticks": 26904,
          "time": 98.91171525,
          "velocity": 1
        },
        {
          "duration": 0.17647050000000775,
          "durationTicks": 48,
          "midi": 75,
          "name": "D#5",
          "ticks": 26904,
          "time": 98.91171525,
          "velocity": 1
        },
        {
          "duration": 0.17647049999999354,
          "durationTicks": 48,
          "midi": 68,
          "name": "G#4",
          "ticks": 26952,
          "time": 99.08818575000001,
          "velocity": 1
        },
        {
          "duration": 0.17647049999999354,
          "durationTicks": 48,
          "midi": 75,
          "name": "D#5",
          "ticks": 26952,
          "time": 99.08818575000001,
          "velocity": 1
        },
        {
          "duration": 0.17647049999999354,
          "durationTicks": 48,
          "midi": 68,
          "name": "G#4",
          "ticks": 27000,
          "time": 99.26465625,
          "velocity": 1
        },
        {
          "duration": 0.17647049999999354,
          "durationTicks": 48,
          "midi": 75,
          "name": "D#5",
          "ticks": 27000,
          "time": 99.26465625,
          "velocity": 1
        },
        {
          "duration": 0.17647050000000775,
          "durationTicks": 48,
          "midi": 75,
          "name": "D#5",
          "ticks": 27048,
          "time": 99.44112675,
          "velocity": 1
        },
        {
          "duration": 0.17647050000000775,
          "durationTicks": 48,
          "midi": 68,
          "name": "G#4",
          "ticks": 27048,
          "time": 99.44112675,
          "velocity": 1
        },
        {
          "duration": 0.17647049999999354,
          "durationTicks": 48,
          "midi": 63,
          "name": "D#4",
          "ticks": 27096,
          "time": 99.61759725,
          "velocity": 1
        },
        {
          "duration": 0.17647049999999354,
          "durationTicks": 48,
          "midi": 68,
          "name": "G#4",
          "ticks": 27096,
          "time": 99.61759725,
          "velocity": 1
        },
        {
          "duration": 0.17647050000000775,
          "durationTicks": 48,
          "midi": 63,
          "name": "D#4",
          "ticks": 27144,
          "time": 99.79406775,
          "velocity": 1
        },
        {
          "duration": 0.17647050000000775,
          "durationTicks": 48,
          "midi": 68,
          "name": "G#4",
          "ticks": 27144,
          "time": 99.79406775,
          "velocity": 1
        },
        {
          "duration": 0.17647049999999354,
          "durationTicks": 48,
          "midi": 63,
          "name": "D#4",
          "ticks": 27192,
          "time": 99.97053825,
          "velocity": 1
        },
        {
          "duration": 0.17647049999999354,
          "durationTicks": 48,
          "midi": 66,
          "name": "F#4",
          "ticks": 27192,
          "time": 99.97053825,
          "velocity": 1
        },
        {
          "duration": 0.17647050000000775,
          "durationTicks": 48,
          "midi": 63,
          "name": "D#4",
          "ticks": 27240,
          "time": 100.14700875,
          "velocity": 1
        },
        {
          "duration": 0.17647050000000775,
          "durationTicks": 48,
          "midi": 68,
          "name": "G#4",
          "ticks": 27240,
          "time": 100.14700875,
          "velocity": 1
        },
        {
          "duration": 0.17647049999999354,
          "durationTicks": 48,
          "midi": 63,
          "name": "D#4",
          "ticks": 27288,
          "time": 100.32347925,
          "velocity": 1
        },
        {
          "duration": 0.17647049999999354,
          "durationTicks": 48,
          "midi": 66,
          "name": "F#4",
          "ticks": 27288,
          "time": 100.32347925,
          "velocity": 1
        },
        {
          "duration": 0.17647050000000775,
          "durationTicks": 48,
          "midi": 63,
          "name": "D#4",
          "ticks": 27336,
          "time": 100.49994975,
          "velocity": 1
        },
        {
          "duration": 0.17647050000000775,
          "durationTicks": 48,
          "midi": 68,
          "name": "G#4",
          "ticks": 27336,
          "time": 100.49994975,
          "velocity": 1
        },
        {
          "duration": 0.17647049999999354,
          "durationTicks": 48,
          "midi": 63,
          "name": "D#4",
          "ticks": 27384,
          "time": 100.67642025,
          "velocity": 1
        },
        {
          "duration": 0.17647049999999354,
          "durationTicks": 48,
          "midi": 66,
          "name": "F#4",
          "ticks": 27384,
          "time": 100.67642025,
          "velocity": 1
        },
        {
          "duration": 0.17647050000000775,
          "durationTicks": 48,
          "midi": 63,
          "name": "D#4",
          "ticks": 27432,
          "time": 100.85289075,
          "velocity": 1
        },
        {
          "duration": 0.17647050000000775,
          "durationTicks": 48,
          "midi": 68,
          "name": "G#4",
          "ticks": 27432,
          "time": 100.85289075,
          "velocity": 1
        },
        {
          "duration": 0.17647049999999354,
          "durationTicks": 48,
          "midi": 63,
          "name": "D#4",
          "ticks": 27480,
          "time": 101.02936125000001,
          "velocity": 1
        },
        {
          "duration": 0.17647049999999354,
          "durationTicks": 48,
          "midi": 66,
          "name": "F#4",
          "ticks": 27480,
          "time": 101.02936125000001,
          "velocity": 1
        },
        {
          "duration": 0.17647049999999354,
          "durationTicks": 48,
          "midi": 63,
          "name": "D#4",
          "ticks": 27528,
          "time": 101.20583175,
          "velocity": 1
        },
        {
          "duration": 0.17647049999999354,
          "durationTicks": 48,
          "midi": 68,
          "name": "G#4",
          "ticks": 27528,
          "time": 101.20583175,
          "velocity": 1
        },
        {
          "duration": 0.17647050000000775,
          "durationTicks": 48,
          "midi": 75,
          "name": "D#5",
          "ticks": 27576,
          "time": 101.38230225,
          "velocity": 1
        },
        {
          "duration": 0.17647050000000775,
          "durationTicks": 48,
          "midi": 78,
          "name": "F#5",
          "ticks": 27576,
          "time": 101.38230225,
          "velocity": 1
        },
        {
          "duration": 0.17647050000000775,
          "durationTicks": 48,
          "midi": 75,
          "name": "D#5",
          "ticks": 27672,
          "time": 101.73524325,
          "velocity": 1
        },
        {
          "duration": 0.17647050000000775,
          "durationTicks": 48,
          "midi": 78,
          "name": "F#5",
          "ticks": 27672,
          "time": 101.73524325,
          "velocity": 1
        },
        {
          "duration": 0.17647049999999354,
          "durationTicks": 48,
          "midi": 75,
          "name": "D#5",
          "ticks": 27720,
          "time": 101.91171375,
          "velocity": 1
        },
        {
          "duration": 0.17647049999999354,
          "durationTicks": 48,
          "midi": 78,
          "name": "F#5",
          "ticks": 27720,
          "time": 101.91171375,
          "velocity": 1
        },
        {
          "duration": 0.17647050000000775,
          "durationTicks": 48,
          "midi": 75,
          "name": "D#5",
          "ticks": 27768,
          "time": 102.08818425,
          "velocity": 1
        },
        {
          "duration": 0.17647050000000775,
          "durationTicks": 48,
          "midi": 80,
          "name": "G#5",
          "ticks": 27768,
          "time": 102.08818425,
          "velocity": 1
        },
        {
          "duration": 0.17647049999999354,
          "durationTicks": 48,
          "midi": 78,
          "name": "F#5",
          "ticks": 27816,
          "time": 102.26465475,
          "velocity": 1
        },
        {
          "duration": 0.17647049999999354,
          "durationTicks": 48,
          "midi": 75,
          "name": "D#5",
          "ticks": 27816,
          "time": 102.26465475,
          "velocity": 1
        },
        {
          "duration": 0.17647049999999354,
          "durationTicks": 48,
          "midi": 59,
          "name": "B3",
          "ticks": 27816,
          "time": 102.26465475,
          "velocity": 1
        },
        {
          "duration": 0.17647050000000775,
          "durationTicks": 48,
          "midi": 71,
          "name": "B4",
          "ticks": 27864,
          "time": 102.44112525,
          "velocity": 1
        },
        {
          "duration": 0.17647050000000775,
          "durationTicks": 48,
          "midi": 66,
          "name": "F#4",
          "ticks": 27864,
          "time": 102.44112525,
          "velocity": 1
        },
        {
          "duration": 0.17647049999999354,
          "durationTicks": 48,
          "midi": 71,
          "name": "B4",
          "ticks": 27912,
          "time": 102.61759575,
          "velocity": 1
        },
        {
          "duration": 0.17647049999999354,
          "durationTicks": 48,
          "midi": 66,
          "name": "F#4",
          "ticks": 27912,
          "time": 102.61759575,
          "velocity": 1
        },
        {
          "duration": 0.17647049999999354,
          "durationTicks": 48,
          "midi": 71,
          "name": "B4",
          "ticks": 28008,
          "time": 102.97053675000001,
          "velocity": 1
        },
        {
          "duration": 0.17647049999999354,
          "durationTicks": 48,
          "midi": 66,
          "name": "F#4",
          "ticks": 28008,
          "time": 102.97053675000001,
          "velocity": 1
        },
        {
          "duration": 0.17647049999999354,
          "durationTicks": 48,
          "midi": 68,
          "name": "G#4",
          "ticks": 28056,
          "time": 103.14700725,
          "velocity": 1
        },
        {
          "duration": 0.17647050000000775,
          "durationTicks": 48,
          "midi": 71,
          "name": "B4",
          "ticks": 28104,
          "time": 103.32347775,
          "velocity": 1
        },
        {
          "duration": 0.17647049999999354,
          "durationTicks": 48,
          "midi": 68,
          "name": "G#4",
          "ticks": 28152,
          "time": 103.49994825,
          "velocity": 1
        },
        {
          "duration": 0.17647049999999354,
          "durationTicks": 48,
          "midi": 66,
          "name": "F#4",
          "ticks": 28152,
          "time": 103.49994825,
          "velocity": 1
        },
        {
          "duration": 0.17647050000000775,
          "durationTicks": 48,
          "midi": 71,
          "name": "B4",
          "ticks": 28200,
          "time": 103.67641875,
          "velocity": 1
        },
        {
          "duration": 0.17647050000000775,
          "durationTicks": 48,
          "midi": 68,
          "name": "G#4",
          "ticks": 28200,
          "time": 103.67641875,
          "velocity": 1
        },
        {
          "duration": 0.17647049999999354,
          "durationTicks": 48,
          "midi": 68,
          "name": "G#4",
          "ticks": 28248,
          "time": 103.85288925,
          "velocity": 1
        },
        {
          "duration": 0.17647049999999354,
          "durationTicks": 48,
          "midi": 73,
          "name": "C#5",
          "ticks": 28248,
          "time": 103.85288925,
          "velocity": 1
        },
        {
          "duration": 0.17647050000000775,
          "durationTicks": 48,
          "midi": 68,
          "name": "G#4",
          "ticks": 28296,
          "time": 104.02935975,
          "velocity": 1
        },
        {
          "duration": 0.17647050000000775,
          "durationTicks": 48,
          "midi": 74,
          "name": "D5",
          "ticks": 28296,
          "time": 104.02935975,
          "velocity": 1
        },
        {
          "duration": 0.17647049999999354,
          "durationTicks": 48,
          "midi": 71,
          "name": "B4",
          "ticks": 28344,
          "time": 104.20583025,
          "velocity": 1
        },
        {
          "duration": 0.17647049999999354,
          "durationTicks": 48,
          "midi": 75,
          "name": "D#5",
          "ticks": 28344,
          "time": 104.20583025,
          "velocity": 1
        },
        {
          "duration": 0.17647049999999354,
          "durationTicks": 48,
          "midi": 68,
          "name": "G#4",
          "ticks": 28440,
          "time": 104.55877125,
          "velocity": 1
        },
        {
          "duration": 0.17647049999999354,
          "durationTicks": 48,
          "midi": 73,
          "name": "C#5",
          "ticks": 28440,
          "time": 104.55877125,
          "velocity": 1
        },
        {
          "duration": 0.17647050000000775,
          "durationTicks": 48,
          "midi": 75,
          "name": "D#5",
          "ticks": 28488,
          "time": 104.73524175,
          "velocity": 1
        },
        {
          "duration": 0.17647050000000775,
          "durationTicks": 48,
          "midi": 71,
          "name": "B4",
          "ticks": 28488,
          "time": 104.73524175,
          "velocity": 1
        },
        {
          "duration": 0.17647049999999354,
          "durationTicks": 48,
          "midi": 80,
          "name": "G#5",
          "ticks": 28536,
          "time": 104.91171225000001,
          "velocity": 1
        },
        {
          "duration": 0.17647049999999354,
          "durationTicks": 48,
          "midi": 79,
          "name": "G5",
          "ticks": 28584,
          "time": 105.08818275,
          "velocity": 1
        },
        {
          "duration": 0.17647049999999354,
          "durationTicks": 48,
          "midi": 75,
          "name": "D#5",
          "ticks": 28584,
          "time": 105.08818275,
          "velocity": 1
        },
        {
          "duration": 0.17647050000000775,
          "durationTicks": 48,
          "midi": 75,
          "name": "D#5",
          "ticks": 28632,
          "time": 105.26465325,
          "velocity": 1
        },
        {
          "duration": 0.17647049999999354,
          "durationTicks": 48,
          "midi": 75,
          "name": "D#5",
          "ticks": 28680,
          "time": 105.44112375,
          "velocity": 1
        },
        {
          "duration": 0.17647050000000775,
          "durationTicks": 48,
          "midi": 75,
          "name": "D#5",
          "ticks": 28728,
          "time": 105.61759425,
          "velocity": 1
        },
        {
          "duration": 0.17647049999999354,
          "durationTicks": 48,
          "midi": 75,
          "name": "D#5",
          "ticks": 28776,
          "time": 105.79406475,
          "velocity": 1
        },
        {
          "duration": 0.17647050000000775,
          "durationTicks": 48,
          "midi": 73,
          "name": "C#5",
          "ticks": 28824,
          "time": 105.97053525,
          "velocity": 1
        },
        {
          "duration": 0.17647049999999354,
          "durationTicks": 48,
          "midi": 73,
          "name": "C#5",
          "ticks": 28872,
          "time": 106.14700575,
          "velocity": 1
        },
        {
          "duration": 0.17647050000000775,
          "durationTicks": 48,
          "midi": 75,
          "name": "D#5",
          "ticks": 28920,
          "time": 106.32347625,
          "velocity": 1
        },
        {
          "duration": 0.17647049999999354,
          "durationTicks": 48,
          "midi": 75,
          "name": "D#5",
          "ticks": 28968,
          "time": 106.49994675,
          "velocity": 1
        },
        {
          "duration": 0.17647050000000775,
          "durationTicks": 48,
          "midi": 73,
          "name": "C#5",
          "ticks": 29016,
          "time": 106.67641725,
          "velocity": 1
        },
        {
          "duration": 0.17647049999999354,
          "durationTicks": 48,
          "midi": 75,
          "name": "D#5",
          "ticks": 29064,
          "time": 106.85288775000001,
          "velocity": 1
        },
        {
          "duration": 0.17647049999999354,
          "durationTicks": 48,
          "midi": 75,
          "name": "D#5",
          "ticks": 29112,
          "time": 107.02935825,
          "velocity": 1
        },
        {
          "duration": 0.17647049999999354,
          "durationTicks": 48,
          "midi": 71,
          "name": "B4",
          "ticks": 29208,
          "time": 107.38229925,
          "velocity": 1
        },
        {
          "duration": 0.17647049999999354,
          "durationTicks": 48,
          "midi": 75,
          "name": "D#5",
          "ticks": 29208,
          "time": 107.38229925,
          "velocity": 1
        },
        {
          "duration": 0.17647050000000775,
          "durationTicks": 48,
          "midi": 71,
          "name": "B4",
          "ticks": 29256,
          "time": 107.55876975,
          "velocity": 1
        },
        {
          "duration": 0.17647050000000775,
          "durationTicks": 48,
          "midi": 75,
          "name": "D#5",
          "ticks": 29256,
          "time": 107.55876975,
          "velocity": 1
        },
        {
          "duration": 0.17647049999999354,
          "durationTicks": 48,
          "midi": 71,
          "name": "B4",
          "ticks": 29304,
          "time": 107.73524025,
          "velocity": 1
        },
        {
          "duration": 0.17647049999999354,
          "durationTicks": 48,
          "midi": 75,
          "name": "D#5",
          "ticks": 29304,
          "time": 107.73524025,
          "velocity": 1
        },
        {
          "duration": 0.17647050000000775,
          "durationTicks": 48,
          "midi": 71,
          "name": "B4",
          "ticks": 29352,
          "time": 107.91171075,
          "velocity": 1
        },
        {
          "duration": 0.17647050000000775,
          "durationTicks": 48,
          "midi": 75,
          "name": "D#5",
          "ticks": 29352,
          "time": 107.91171075,
          "velocity": 1
        },
        {
          "duration": 0.17647049999999354,
          "durationTicks": 48,
          "midi": 63,
          "name": "D#4",
          "ticks": 29400,
          "time": 108.08818125,
          "velocity": 1
        },
        {
          "duration": 0.17647049999999354,
          "durationTicks": 48,
          "midi": 68,
          "name": "G#4",
          "ticks": 29400,
          "time": 108.08818125,
          "velocity": 1
        },
        {
          "duration": 0.17647050000000775,
          "durationTicks": 48,
          "midi": 68,
          "name": "G#4",
          "ticks": 29448,
          "time": 108.26465175,
          "velocity": 1
        },
        {
          "duration": 0.17647050000000775,
          "durationTicks": 48,
          "midi": 63,
          "name": "D#4",
          "ticks": 29448,
          "time": 108.26465175,
          "velocity": 1
        },
        {
          "duration": 0.17647049999999354,
          "durationTicks": 48,
          "midi": 66,
          "name": "F#4",
          "ticks": 29496,
          "time": 108.44112225,
          "velocity": 1
        },
        {
          "duration": 0.17647049999999354,
          "durationTicks": 48,
          "midi": 63,
          "name": "D#4",
          "ticks": 29496,
          "time": 108.44112225,
          "velocity": 1
        },
        {
          "duration": 0.17647050000000775,
          "durationTicks": 48,
          "midi": 68,
          "name": "G#4",
          "ticks": 29544,
          "time": 108.61759275,
          "velocity": 1
        },
        {
          "duration": 0.17647050000000775,
          "durationTicks": 48,
          "midi": 63,
          "name": "D#4",
          "ticks": 29544,
          "time": 108.61759275,
          "velocity": 1
        },
        {
          "duration": 0.17647049999999354,
          "durationTicks": 48,
          "midi": 66,
          "name": "F#4",
          "ticks": 29592,
          "time": 108.79406325000001,
          "velocity": 1
        },
        {
          "duration": 0.17647049999999354,
          "durationTicks": 48,
          "midi": 63,
          "name": "D#4",
          "ticks": 29592,
          "time": 108.79406325000001,
          "velocity": 1
        },
        {
          "duration": 0.17647049999999354,
          "durationTicks": 48,
          "midi": 63,
          "name": "D#4",
          "ticks": 29640,
          "time": 108.97053375,
          "velocity": 1
        },
        {
          "duration": 0.17647049999999354,
          "durationTicks": 48,
          "midi": 68,
          "name": "G#4",
          "ticks": 29640,
          "time": 108.97053375,
          "velocity": 1
        },
        {
          "duration": 0.17647050000000775,
          "durationTicks": 48,
          "midi": 63,
          "name": "D#4",
          "ticks": 29688,
          "time": 109.14700425,
          "velocity": 1
        },
        {
          "duration": 0.17647050000000775,
          "durationTicks": 48,
          "midi": 66,
          "name": "F#4",
          "ticks": 29688,
          "time": 109.14700425,
          "velocity": 1
        },
        {
          "duration": 0.17647049999999354,
          "durationTicks": 48,
          "midi": 63,
          "name": "D#4",
          "ticks": 29736,
          "time": 109.32347475,
          "velocity": 1
        },
        {
          "duration": 0.17647049999999354,
          "durationTicks": 48,
          "midi": 68,
          "name": "G#4",
          "ticks": 29736,
          "time": 109.32347475,
          "velocity": 1
        },
        {
          "duration": 0.17647050000000775,
          "durationTicks": 48,
          "midi": 63,
          "name": "D#4",
          "ticks": 29784,
          "time": 109.49994525,
          "velocity": 1
        },
        {
          "duration": 0.17647050000000775,
          "durationTicks": 48,
          "midi": 66,
          "name": "F#4",
          "ticks": 29784,
          "time": 109.49994525,
          "velocity": 1
        },
        {
          "duration": 0.17647049999999354,
          "durationTicks": 48,
          "midi": 68,
          "name": "G#4",
          "ticks": 29832,
          "time": 109.67641575,
          "velocity": 1
        },
        {
          "duration": 0.17647049999999354,
          "durationTicks": 48,
          "midi": 63,
          "name": "D#4",
          "ticks": 29832,
          "time": 109.67641575,
          "velocity": 1
        },
        {
          "duration": 0.17647050000000775,
          "durationTicks": 48,
          "midi": 75,
          "name": "D#5",
          "ticks": 29880,
          "time": 109.85288625,
          "velocity": 1
        },
        {
          "duration": 0.17647050000000775,
          "durationTicks": 48,
          "midi": 71,
          "name": "B4",
          "ticks": 29880,
          "time": 109.85288625,
          "velocity": 1
        },
        {
          "duration": 0.17647050000000775,
          "durationTicks": 48,
          "midi": 75,
          "name": "D#5",
          "ticks": 29976,
          "time": 110.20582725,
          "velocity": 1
        },
        {
          "duration": 0.17647050000000775,
          "durationTicks": 48,
          "midi": 71,
          "name": "B4",
          "ticks": 29976,
          "time": 110.20582725,
          "velocity": 1
        },
        {
          "duration": 0.17647049999999354,
          "durationTicks": 48,
          "midi": 75,
          "name": "D#5",
          "ticks": 30024,
          "time": 110.38229775,
          "velocity": 1
        },
        {
          "duration": 0.17647049999999354,
          "durationTicks": 48,
          "midi": 71,
          "name": "B4",
          "ticks": 30024,
          "time": 110.38229775,
          "velocity": 1
        },
        {
          "duration": 0.17647050000000775,
          "durationTicks": 48,
          "midi": 75,
          "name": "D#5",
          "ticks": 30072,
          "time": 110.55876825,
          "velocity": 1
        },
        {
          "duration": 0.17647050000000775,
          "durationTicks": 48,
          "midi": 71,
          "name": "B4",
          "ticks": 30072,
          "time": 110.55876825,
          "velocity": 1
        },
        {
          "duration": 0.17647049999999354,
          "durationTicks": 48,
          "midi": 75,
          "name": "D#5",
          "ticks": 30120,
          "time": 110.73523875000001,
          "velocity": 1
        },
        {
          "duration": 0.17647049999999354,
          "durationTicks": 48,
          "midi": 71,
          "name": "B4",
          "ticks": 30120,
          "time": 110.73523875000001,
          "velocity": 1
        },
        {
          "duration": 0.17647049999999354,
          "durationTicks": 48,
          "midi": 68,
          "name": "G#4",
          "ticks": 30168,
          "time": 110.91170925,
          "velocity": 1
        },
        {
          "duration": 0.17647049999999354,
          "durationTicks": 48,
          "midi": 63,
          "name": "D#4",
          "ticks": 30168,
          "time": 110.91170925,
          "velocity": 1
        },
        {
          "duration": 0.17647050000000775,
          "durationTicks": 48,
          "midi": 68,
          "name": "G#4",
          "ticks": 30216,
          "time": 111.08817975,
          "velocity": 1
        },
        {
          "duration": 0.17647050000000775,
          "durationTicks": 48,
          "midi": 63,
          "name": "D#4",
          "ticks": 30216,
          "time": 111.08817975,
          "velocity": 1
        },
        {
          "duration": 0.17647049999999354,
          "durationTicks": 48,
          "midi": 63,
          "name": "D#4",
          "ticks": 30264,
          "time": 111.26465025,
          "velocity": 1
        },
        {
          "duration": 0.17647049999999354,
          "durationTicks": 48,
          "midi": 66,
          "name": "F#4",
          "ticks": 30264,
          "time": 111.26465025,
          "velocity": 1
        },
        {
          "duration": 0.17647050000000775,
          "durationTicks": 48,
          "midi": 68,
          "name": "G#4",
          "ticks": 30312,
          "time": 111.44112075,
          "velocity": 1
        },
        {
          "duration": 0.17647050000000775,
          "durationTicks": 48,
          "midi": 63,
          "name": "D#4",
          "ticks": 30312,
          "time": 111.44112075,
          "velocity": 1
        },
        {
          "duration": 0.17647049999999354,
          "durationTicks": 48,
          "midi": 66,
          "name": "F#4",
          "ticks": 30360,
          "time": 111.61759125,
          "velocity": 1
        },
        {
          "duration": 0.17647049999999354,
          "durationTicks": 48,
          "midi": 63,
          "name": "D#4",
          "ticks": 30360,
          "time": 111.61759125,
          "velocity": 1
        },
        {
          "duration": 0.17647050000000775,
          "durationTicks": 48,
          "midi": 68,
          "name": "G#4",
          "ticks": 30408,
          "time": 111.79406175,
          "velocity": 1
        },
        {
          "duration": 0.17647050000000775,
          "durationTicks": 48,
          "midi": 63,
          "name": "D#4",
          "ticks": 30408,
          "time": 111.79406175,
          "velocity": 1
        },
        {
          "duration": 0.17647049999999354,
          "durationTicks": 48,
          "midi": 63,
          "name": "D#4",
          "ticks": 30456,
          "time": 111.97053225,
          "velocity": 1
        },
        {
          "duration": 0.17647049999999354,
          "durationTicks": 48,
          "midi": 66,
          "name": "F#4",
          "ticks": 30456,
          "time": 111.97053225,
          "velocity": 1
        },
        {
          "duration": 0.17647050000000775,
          "durationTicks": 48,
          "midi": 68,
          "name": "G#4",
          "ticks": 30504,
          "time": 112.14700275,
          "velocity": 1
        },
        {
          "duration": 0.17647050000000775,
          "durationTicks": 48,
          "midi": 63,
          "name": "D#4",
          "ticks": 30504,
          "time": 112.14700275,
          "velocity": 1
        },
        {
          "duration": 0.17647049999999354,
          "durationTicks": 48,
          "midi": 66,
          "name": "F#4",
          "ticks": 30552,
          "time": 112.32347325,
          "velocity": 1
        },
        {
          "duration": 0.17647049999999354,
          "durationTicks": 48,
          "midi": 63,
          "name": "D#4",
          "ticks": 30552,
          "time": 112.32347325,
          "velocity": 1
        },
        {
          "duration": 0.17647050000000775,
          "durationTicks": 48,
          "midi": 68,
          "name": "G#4",
          "ticks": 30600,
          "time": 112.49994375,
          "velocity": 1
        },
        {
          "duration": 0.17647050000000775,
          "durationTicks": 48,
          "midi": 63,
          "name": "D#4",
          "ticks": 30600,
          "time": 112.49994375,
          "velocity": 1
        },
        {
          "duration": 0.17647049999999354,
          "durationTicks": 48,
          "midi": 78,
          "name": "F#5",
          "ticks": 30648,
          "time": 112.67641425000001,
          "velocity": 1
        },
        {
          "duration": 0.17647049999999354,
          "durationTicks": 48,
          "midi": 75,
          "name": "D#5",
          "ticks": 30648,
          "time": 112.67641425000001,
          "velocity": 1
        },
        {
          "duration": 0.17647050000000775,
          "durationTicks": 48,
          "midi": 78,
          "name": "F#5",
          "ticks": 30744,
          "time": 113.02935525,
          "velocity": 1
        },
        {
          "duration": 0.17647050000000775,
          "durationTicks": 48,
          "midi": 75,
          "name": "D#5",
          "ticks": 30744,
          "time": 113.02935525,
          "velocity": 1
        },
        {
          "duration": 0.17647049999999354,
          "durationTicks": 48,
          "midi": 78,
          "name": "F#5",
          "ticks": 30792,
          "time": 113.20582575,
          "velocity": 1
        },
        {
          "duration": 0.17647049999999354,
          "durationTicks": 48,
          "midi": 75,
          "name": "D#5",
          "ticks": 30792,
          "time": 113.20582575,
          "velocity": 1
        },
        {
          "duration": 0.17647050000000775,
          "durationTicks": 48,
          "midi": 80,
          "name": "G#5",
          "ticks": 30840,
          "time": 113.38229625,
          "velocity": 1
        },
        {
          "duration": 0.17647050000000775,
          "durationTicks": 48,
          "midi": 75,
          "name": "D#5",
          "ticks": 30840,
          "time": 113.38229625,
          "velocity": 1
        },
        {
          "duration": 0.17647049999999354,
          "durationTicks": 48,
          "midi": 78,
          "name": "F#5",
          "ticks": 30888,
          "time": 113.55876675,
          "velocity": 1
        },
        {
          "duration": 0.17647049999999354,
          "durationTicks": 48,
          "midi": 75,
          "name": "D#5",
          "ticks": 30888,
          "time": 113.55876675,
          "velocity": 1
        },
        {
          "duration": 0.17647050000000775,
          "durationTicks": 48,
          "midi": 71,
          "name": "B4",
          "ticks": 30936,
          "time": 113.73523725,
          "velocity": 1
        },
        {
          "duration": 0.17647050000000775,
          "durationTicks": 48,
          "midi": 64,
          "name": "E4",
          "ticks": 30936,
          "time": 113.73523725,
          "velocity": 1
        },
        {
          "duration": 0.17647049999999354,
          "durationTicks": 48,
          "midi": 71,
          "name": "B4",
          "ticks": 30984,
          "time": 113.91170775,
          "velocity": 1
        },
        {
          "duration": 0.17647049999999354,
          "durationTicks": 48,
          "midi": 64,
          "name": "E4",
          "ticks": 30984,
          "time": 113.91170775,
          "velocity": 1
        },
        {
          "duration": 0.17647050000000775,
          "durationTicks": 48,
          "midi": 68,
          "name": "G#4",
          "ticks": 31032,
          "time": 114.08817825,
          "velocity": 1
        },
        {
          "duration": 0.17647050000000775,
          "durationTicks": 48,
          "midi": 64,
          "name": "E4",
          "ticks": 31032,
          "time": 114.08817825,
          "velocity": 1
        },
        {
          "duration": 0.17647049999999354,
          "durationTicks": 48,
          "midi": 71,
          "name": "B4",
          "ticks": 31080,
          "time": 114.26464875,
          "velocity": 1
        },
        {
          "duration": 0.17647049999999354,
          "durationTicks": 48,
          "midi": 64,
          "name": "E4",
          "ticks": 31080,
          "time": 114.26464875,
          "velocity": 1
        },
        {
          "duration": 0.17647050000000775,
          "durationTicks": 48,
          "midi": 68,
          "name": "G#4",
          "ticks": 31128,
          "time": 114.44111925,
          "velocity": 1
        },
        {
          "duration": 0.17647050000000775,
          "durationTicks": 48,
          "midi": 64,
          "name": "E4",
          "ticks": 31128,
          "time": 114.44111925,
          "velocity": 1
        },
        {
          "duration": 0.17647049999999354,
          "durationTicks": 48,
          "midi": 71,
          "name": "B4",
          "ticks": 31176,
          "time": 114.61758975000001,
          "velocity": 1
        },
        {
          "duration": 0.17647049999999354,
          "durationTicks": 48,
          "midi": 64,
          "name": "E4",
          "ticks": 31176,
          "time": 114.61758975000001,
          "velocity": 1
        },
        {
          "duration": 0.17647049999999354,
          "durationTicks": 48,
          "midi": 64,
          "name": "E4",
          "ticks": 31224,
          "time": 114.79406025,
          "velocity": 1
        },
        {
          "duration": 0.17647049999999354,
          "durationTicks": 48,
          "midi": 68,
          "name": "G#4",
          "ticks": 31224,
          "time": 114.79406025,
          "velocity": 1
        },
        {
          "duration": 0.17647050000000775,
          "durationTicks": 48,
          "midi": 64,
          "name": "E4",
          "ticks": 31272,
          "time": 114.97053075,
          "velocity": 1
        },
        {
          "duration": 0.17647050000000775,
          "durationTicks": 48,
          "midi": 71,
          "name": "B4",
          "ticks": 31272,
          "time": 114.97053075,
          "velocity": 1
        },
        {
          "duration": 0.3529410000000013,
          "durationTicks": 96,
          "midi": 76,
          "name": "E5",
          "ticks": 31320,
          "time": 115.14700125,
          "velocity": 1
        },
        {
          "duration": 0.3529410000000013,
          "durationTicks": 96,
          "midi": 71,
          "name": "B4",
          "ticks": 31320,
          "time": 115.14700125,
          "velocity": 1
        },
        {
          "duration": 0.17647049999999354,
          "durationTicks": 48,
          "midi": 75,
          "name": "D#5",
          "ticks": 31416,
          "time": 115.49994225,
          "velocity": 1
        },
        {
          "duration": 0.17647049999999354,
          "durationTicks": 48,
          "midi": 71,
          "name": "B4",
          "ticks": 31416,
          "time": 115.49994225,
          "velocity": 1
        },
        {
          "duration": 0.17647049999999354,
          "durationTicks": 48,
          "midi": 64,
          "name": "E4",
          "ticks": 31512,
          "time": 115.85288325,
          "velocity": 1
        },
        {
          "duration": 0.17647049999999354,
          "durationTicks": 48,
          "midi": 64,
          "name": "E4",
          "ticks": 31608,
          "time": 116.20582425,
          "velocity": 1
        },
        {
          "duration": 0.17647050000000775,
          "durationTicks": 48,
          "midi": 64,
          "name": "E4",
          "ticks": 31656,
          "time": 116.38229475,
          "velocity": 1
        },
        {
          "duration": 0.17647049999999354,
          "durationTicks": 48,
          "midi": 64,
          "name": "E4",
          "ticks": 31704,
          "time": 116.55876525000001,
          "velocity": 1
        },
        {
          "duration": 0.17647049999999354,
          "durationTicks": 48,
          "midi": 64,
          "name": "E4",
          "ticks": 31752,
          "time": 116.73523575,
          "velocity": 1
        },
        {
          "duration": 0.17647050000000775,
          "durationTicks": 48,
          "midi": 64,
          "name": "E4",
          "ticks": 31800,
          "time": 116.91170625,
          "velocity": 1
        },
        {
          "duration": 0.17647049999999354,
          "durationTicks": 48,
          "midi": 64,
          "name": "E4",
          "ticks": 31848,
          "time": 117.08817675,
          "velocity": 1
        },
        {
          "duration": 0.17647050000000775,
          "durationTicks": 48,
          "midi": 64,
          "name": "E4",
          "ticks": 31896,
          "time": 117.26464725,
          "velocity": 1
        },
        {
          "duration": 0.17647049999999354,
          "durationTicks": 48,
          "midi": 64,
          "name": "E4",
          "ticks": 31944,
          "time": 117.44111775,
          "velocity": 1
        },
        {
          "duration": 0.17647050000000775,
          "durationTicks": 48,
          "midi": 64,
          "name": "E4",
          "ticks": 31992,
          "time": 117.61758825,
          "velocity": 1
        },
        {
          "duration": 0.17647049999999354,
          "durationTicks": 48,
          "midi": 64,
          "name": "E4",
          "ticks": 32040,
          "time": 117.79405875,
          "velocity": 1
        },
        {
          "duration": 0.17647050000000775,
          "durationTicks": 48,
          "midi": 64,
          "name": "E4",
          "ticks": 32088,
          "time": 117.97052925,
          "velocity": 1
        },
        {
          "duration": 0.17647049999999354,
          "durationTicks": 48,
          "midi": 64,
          "name": "E4",
          "ticks": 32136,
          "time": 118.14699975,
          "velocity": 1
        },
        {
          "duration": 0.17647050000000775,
          "durationTicks": 48,
          "midi": 64,
          "name": "E4",
          "ticks": 32184,
          "time": 118.32347025,
          "velocity": 1
        },
        {
          "duration": 0.35294099999998707,
          "durationTicks": 96,
          "midi": 63,
          "name": "D#4",
          "ticks": 32232,
          "time": 118.49994075000001,
          "velocity": 1
        },
        {
          "duration": 0.35294099999998707,
          "durationTicks": 96,
          "midi": 70,
          "name": "A#4",
          "ticks": 32232,
          "time": 118.49994075000001,
          "velocity": 1
        },
        {
          "duration": 0.17647050000000775,
          "durationTicks": 48,
          "midi": 61,
          "name": "C#4",
          "ticks": 32328,
          "time": 118.85288175,
          "velocity": 1
        },
        {
          "duration": 0.17647050000000775,
          "durationTicks": 48,
          "midi": 68,
          "name": "G#4",
          "ticks": 32328,
          "time": 118.85288175,
          "velocity": 1
        },
        {
          "duration": 0.17647049999999354,
          "durationTicks": 48,
          "midi": 63,
          "name": "D#4",
          "ticks": 32376,
          "time": 119.02935225,
          "velocity": 1
        },
        {
          "duration": 0.17647049999999354,
          "durationTicks": 48,
          "midi": 70,
          "name": "A#4",
          "ticks": 32376,
          "time": 119.02935225,
          "velocity": 1
        },
        {
          "duration": 0.2647057500000045,
          "durationTicks": 72,
          "midi": 59,
          "name": "B3",
          "ticks": 32424,
          "time": 119.20582275,
          "velocity": 1
        },
        {
          "duration": 0.2647057500000045,
          "durationTicks": 72,
          "midi": 68,
          "name": "G#4",
          "ticks": 32424,
          "time": 119.20582275,
          "velocity": 1
        },
        {
          "duration": 0.08823524999999677,
          "durationTicks": 24,
          "midi": 56,
          "name": "G#3",
          "ticks": 32496,
          "time": 119.4705285,
          "velocity": 1
        },
        {
          "duration": 0.17647050000000775,
          "durationTicks": 48,
          "midi": 56,
          "name": "G#3",
          "ticks": 32496,
          "time": 119.4705285,
          "velocity": 1
        },
        {
          "duration": 0.17647049999999354,
          "durationTicks": 48,
          "midi": 56,
          "name": "G#3",
          "ticks": 32568,
          "time": 119.73523425,
          "velocity": 1
        },
        {
          "duration": 0.17647050000000775,
          "durationTicks": 48,
          "midi": 59,
          "name": "B3",
          "ticks": 32616,
          "time": 119.91170475,
          "velocity": 1
        },
        {
          "duration": 0.17647049999999354,
          "durationTicks": 48,
          "midi": 56,
          "name": "G#3",
          "ticks": 32664,
          "time": 120.08817525,
          "velocity": 1
        },
        {
          "duration": 0.17647050000000775,
          "durationTicks": 48,
          "midi": 59,
          "name": "B3",
          "ticks": 32712,
          "time": 120.26464575,
          "velocity": 1
        },
        {
          "duration": 0.17647049999999354,
          "durationTicks": 48,
          "midi": 63,
          "name": "D#4",
          "ticks": 32760,
          "time": 120.44111625000001,
          "velocity": 1
        },
        {
          "duration": 0.17647049999999354,
          "durationTicks": 48,
          "midi": 59,
          "name": "B3",
          "ticks": 32760,
          "time": 120.44111625000001,
          "velocity": 1
        },
        {
          "duration": 0.17647050000000775,
          "durationTicks": 48,
          "midi": 64,
          "name": "E4",
          "ticks": 32808,
          "time": 120.61758675,
          "velocity": 1
        },
        {
          "duration": 0.17647050000000775,
          "durationTicks": 48,
          "midi": 59,
          "name": "B3",
          "ticks": 32808,
          "time": 120.61758675,
          "velocity": 1
        },
        {
          "duration": 0.17647049999999354,
          "durationTicks": 48,
          "midi": 64,
          "name": "E4",
          "ticks": 32880,
          "time": 120.8822925,
          "velocity": 1
        },
        {
          "duration": 0.17647049999999354,
          "durationTicks": 48,
          "midi": 59,
          "name": "B3",
          "ticks": 32880,
          "time": 120.8822925,
          "velocity": 1
        },
        {
          "duration": 0.17647050000000775,
          "durationTicks": 48,
          "midi": 64,
          "name": "E4",
          "ticks": 32952,
          "time": 121.14699825,
          "velocity": 1
        },
        {
          "duration": 0.17647050000000775,
          "durationTicks": 48,
          "midi": 59,
          "name": "B3",
          "ticks": 32952,
          "time": 121.14699825,
          "velocity": 1
        },
        {
          "duration": 0.17647049999999354,
          "durationTicks": 48,
          "midi": 63,
          "name": "D#4",
          "ticks": 33000,
          "time": 121.32346875,
          "velocity": 1
        },
        {
          "duration": 0.17647049999999354,
          "durationTicks": 48,
          "midi": 59,
          "name": "B3",
          "ticks": 33000,
          "time": 121.32346875,
          "velocity": 1
        },
        {
          "duration": 0.17647050000000775,
          "durationTicks": 48,
          "midi": 64,
          "name": "E4",
          "ticks": 33048,
          "time": 121.49993925,
          "velocity": 1
        },
        {
          "duration": 0.17647050000000775,
          "durationTicks": 48,
          "midi": 59,
          "name": "B3",
          "ticks": 33048,
          "time": 121.49993925,
          "velocity": 1
        },
        {
          "duration": 0.17647049999999354,
          "durationTicks": 48,
          "midi": 63,
          "name": "D#4",
          "ticks": 33096,
          "time": 121.67640975,
          "velocity": 1
        },
        {
          "duration": 0.17647049999999354,
          "durationTicks": 48,
          "midi": 59,
          "name": "B3",
          "ticks": 33096,
          "time": 121.67640975,
          "velocity": 1
        },
        {
          "duration": 0.17647050000000775,
          "durationTicks": 48,
          "midi": 59,
          "name": "B3",
          "ticks": 33144,
          "time": 121.85288025,
          "velocity": 1
        },
        {
          "duration": 0.17647049999999354,
          "durationTicks": 48,
          "midi": 56,
          "name": "G#3",
          "ticks": 33192,
          "time": 122.02935075,
          "velocity": 1
        },
        {
          "duration": 0.17647050000000775,
          "durationTicks": 48,
          "midi": 56,
          "name": "G#3",
          "ticks": 33264,
          "time": 122.2940565,
          "velocity": 1
        },
        {
          "duration": 0.17647050000000775,
          "durationTicks": 48,
          "midi": 56,
          "name": "G#3",
          "ticks": 33336,
          "time": 122.55876225,
          "velocity": 1
        },
        {
          "duration": 0.17647049999999354,
          "durationTicks": 48,
          "midi": 59,
          "name": "B3",
          "ticks": 33384,
          "time": 122.73523275000001,
          "velocity": 1
        },
        {
          "duration": 0.17647049999999354,
          "durationTicks": 48,
          "midi": 56,
          "name": "G#3",
          "ticks": 33432,
          "time": 122.91170325,
          "velocity": 1
        },
        {
          "duration": 0.17647050000000775,
          "durationTicks": 48,
          "midi": 59,
          "name": "B3",
          "ticks": 33480,
          "time": 123.08817375,
          "velocity": 1
        },
        {
          "duration": 0.17647049999999354,
          "durationTicks": 48,
          "midi": 63,
          "name": "D#4",
          "ticks": 33528,
          "time": 123.26464425,
          "velocity": 1
        },
        {
          "duration": 0.17647049999999354,
          "durationTicks": 48,
          "midi": 59,
          "name": "B3",
          "ticks": 33528,
          "time": 123.26464425,
          "velocity": 1
        },
        {
          "duration": 0.17647050000000775,
          "durationTicks": 48,
          "midi": 64,
          "name": "E4",
          "ticks": 33576,
          "time": 123.44111475,
          "velocity": 1
        },
        {
          "duration": 0.17647050000000775,
          "durationTicks": 48,
          "midi": 59,
          "name": "B3",
          "ticks": 33576,
          "time": 123.44111475,
          "velocity": 1
        },
        {
          "duration": 0.17647049999999354,
          "durationTicks": 48,
          "midi": 64,
          "name": "E4",
          "ticks": 33648,
          "time": 123.7058205,
          "velocity": 1
        },
        {
          "duration": 0.17647049999999354,
          "durationTicks": 48,
          "midi": 59,
          "name": "B3",
          "ticks": 33648,
          "time": 123.7058205,
          "velocity": 1
        },
        {
          "duration": 0.17647049999999354,
          "durationTicks": 48,
          "midi": 56,
          "name": "G#3",
          "ticks": 33720,
          "time": 123.97052625,
          "velocity": 1
        },
        {
          "duration": 0.17647049999999354,
          "durationTicks": 48,
          "midi": 64,
          "name": "E4",
          "ticks": 33720,
          "time": 123.97052625,
          "velocity": 1
        },
        {
          "duration": 0.3529410000000013,
          "durationTicks": 96,
          "midi": 63,
          "name": "D#4",
          "ticks": 33768,
          "time": 124.14699675,
          "velocity": 1
        },
        {
          "duration": 0.3529410000000013,
          "durationTicks": 96,
          "midi": 71,
          "name": "B4",
          "ticks": 33768,
          "time": 124.14699675,
          "velocity": 1
        },
        {
          "duration": 0.17647050000000775,
          "durationTicks": 48,
          "midi": 61,
          "name": "C#4",
          "ticks": 33864,
          "time": 124.49993775,
          "velocity": 1
        },
        {
          "duration": 0.17647049999999354,
          "durationTicks": 48,
          "midi": 63,
          "name": "D#4",
          "ticks": 33912,
          "time": 124.67640825000001,
          "velocity": 1
        },
        {
          "duration": 0.17647049999999354,
          "durationTicks": 48,
          "midi": 68,
          "name": "G#4",
          "ticks": 33912,
          "time": 124.67640825000001,
          "velocity": 1
        },
        {
          "duration": 0.2647057500000045,
          "durationTicks": 72,
          "midi": 59,
          "name": "B3",
          "ticks": 33960,
          "time": 124.85287875,
          "velocity": 1
        },
        {
          "duration": 0.17647049999999354,
          "durationTicks": 48,
          "midi": 68,
          "name": "G#4",
          "ticks": 33960,
          "time": 124.85287875,
          "velocity": 1
        },
        {
          "duration": 0.08823524999999677,
          "durationTicks": 24,
          "midi": 56,
          "name": "G#3",
          "ticks": 34032,
          "time": 125.1175845,
          "velocity": 1
        },
        {
          "duration": 0.17647050000000775,
          "durationTicks": 48,
          "midi": 56,
          "name": "G#3",
          "ticks": 34104,
          "time": 125.38229025,
          "velocity": 1
        },
        {
          "duration": 0.17647049999999354,
          "durationTicks": 48,
          "midi": 59,
          "name": "B3",
          "ticks": 34152,
          "time": 125.55876075,
          "velocity": 1
        },
        {
          "duration": 0.17647050000000775,
          "durationTicks": 48,
          "midi": 56,
          "name": "G#3",
          "ticks": 34200,
          "time": 125.73523125,
          "velocity": 1
        },
        {
          "duration": 0.17647049999999354,
          "durationTicks": 48,
          "midi": 59,
          "name": "B3",
          "ticks": 34248,
          "time": 125.91170175,
          "velocity": 1
        },
        {
          "duration": 0.17647050000000775,
          "durationTicks": 48,
          "midi": 63,
          "name": "D#4",
          "ticks": 34296,
          "time": 126.08817225,
          "velocity": 1
        },
        {
          "duration": 0.17647050000000775,
          "durationTicks": 48,
          "midi": 59,
          "name": "B3",
          "ticks": 34296,
          "time": 126.08817225,
          "velocity": 1
        },
        {
          "duration": 0.17647049999999354,
          "durationTicks": 48,
          "midi": 64,
          "name": "E4",
          "ticks": 34344,
          "time": 126.26464275000001,
          "velocity": 1
        },
        {
          "duration": 0.17647049999999354,
          "durationTicks": 48,
          "midi": 59,
          "name": "B3",
          "ticks": 34344,
          "time": 126.26464275000001,
          "velocity": 1
        },
        {
          "duration": 0.17647050000000775,
          "durationTicks": 48,
          "midi": 64,
          "name": "E4",
          "ticks": 34416,
          "time": 126.5293485,
          "velocity": 1
        },
        {
          "duration": 0.17647050000000775,
          "durationTicks": 48,
          "midi": 59,
          "name": "B3",
          "ticks": 34416,
          "time": 126.5293485,
          "velocity": 1
        },
        {
          "duration": 0.17647049999999354,
          "durationTicks": 48,
          "midi": 64,
          "name": "E4",
          "ticks": 34488,
          "time": 126.79405425,
          "velocity": 1
        },
        {
          "duration": 0.17647049999999354,
          "durationTicks": 48,
          "midi": 59,
          "name": "B3",
          "ticks": 34488,
          "time": 126.79405425,
          "velocity": 1
        },
        {
          "duration": 0.17647050000000775,
          "durationTicks": 48,
          "midi": 63,
          "name": "D#4",
          "ticks": 34536,
          "time": 126.97052475,
          "velocity": 1
        },
        {
          "duration": 0.17647050000000775,
          "durationTicks": 48,
          "midi": 59,
          "name": "B3",
          "ticks": 34536,
          "time": 126.97052475,
          "velocity": 1
        },
        {
          "duration": 0.17647049999999354,
          "durationTicks": 48,
          "midi": 64,
          "name": "E4",
          "ticks": 34584,
          "time": 127.14699525,
          "velocity": 1
        },
        {
          "duration": 0.17647049999999354,
          "durationTicks": 48,
          "midi": 59,
          "name": "B3",
          "ticks": 34584,
          "time": 127.14699525,
          "velocity": 1
        },
        {
          "duration": 0.17647050000000775,
          "durationTicks": 48,
          "midi": 63,
          "name": "D#4",
          "ticks": 34632,
          "time": 127.32346575,
          "velocity": 1
        },
        {
          "duration": 0.17647050000000775,
          "durationTicks": 48,
          "midi": 59,
          "name": "B3",
          "ticks": 34632,
          "time": 127.32346575,
          "velocity": 1
        },
        {
          "duration": 0.17647049999999354,
          "durationTicks": 48,
          "midi": 59,
          "name": "B3",
          "ticks": 34680,
          "time": 127.49993625,
          "velocity": 1
        },
        {
          "duration": 0.17647050000000775,
          "durationTicks": 48,
          "midi": 56,
          "name": "G#3",
          "ticks": 34728,
          "time": 127.67640675,
          "velocity": 1
        },
        {
          "duration": 0.17647049999999354,
          "durationTicks": 48,
          "midi": 56,
          "name": "G#3",
          "ticks": 34800,
          "time": 127.9411125,
          "velocity": 1
        },
        {
          "duration": 0.17647050000002196,
          "durationTicks": 48,
          "midi": 56,
          "name": "G#3",
          "ticks": 34872,
          "time": 128.20581825,
          "velocity": 1
        },
        {
          "duration": 0.17647049999999354,
          "durationTicks": 48,
          "midi": 59,
          "name": "B3",
          "ticks": 34920,
          "time": 128.38228875000001,
          "velocity": 1
        },
        {
          "duration": 0.17647049999999354,
          "durationTicks": 48,
          "midi": 56,
          "name": "G#3",
          "ticks": 34968,
          "time": 128.55875925,
          "velocity": 1
        },
        {
          "duration": 0.17647049999999354,
          "durationTicks": 48,
          "midi": 59,
          "name": "B3",
          "ticks": 35016,
          "time": 128.73522975,
          "velocity": 1
        },
        {
          "duration": 0.17647049999999354,
          "durationTicks": 48,
          "midi": 63,
          "name": "D#4",
          "ticks": 35064,
          "time": 128.91170025,
          "velocity": 1
        },
        {
          "duration": 0.17647049999999354,
          "durationTicks": 48,
          "midi": 58,
          "name": "A#3",
          "ticks": 35064,
          "time": 128.91170025,
          "velocity": 1
        },
        {
          "duration": 0.7058820000000026,
          "durationTicks": 192,
          "midi": 62,
          "name": "D4",
          "ticks": 40680,
          "time": 149.55874875,
          "velocity": 1
        },
        {
          "duration": 0.17647049999999354,
          "durationTicks": 48,
          "midi": 69,
          "name": "A4",
          "ticks": 40872,
          "time": 150.26463075,
          "velocity": 1
        },
        {
          "duration": 0.17647049999999354,
          "durationTicks": 48,
          "midi": 74,
          "name": "D5",
          "ticks": 40872,
          "time": 150.26463075,
          "velocity": 1
        },
        {
          "duration": 0.35294099999998707,
          "durationTicks": 96,
          "midi": 74,
          "name": "D5",
          "ticks": 40920,
          "time": 150.44110125,
          "velocity": 1
        },
        {
          "duration": 0.35294099999998707,
          "durationTicks": 96,
          "midi": 81,
          "name": "A5",
          "ticks": 40920,
          "time": 150.44110125,
          "velocity": 1
        },
        {
          "duration": 0.17647050000002196,
          "durationTicks": 48,
          "midi": 69,
          "name": "A4",
          "ticks": 41016,
          "time": 150.79404225,
          "velocity": 1
        },
        {
          "duration": 0.17647050000002196,
          "durationTicks": 48,
          "midi": 74,
          "name": "D5",
          "ticks": 41016,
          "time": 150.79404225,
          "velocity": 1
        },
        {
          "duration": 0.35294099999998707,
          "durationTicks": 96,
          "midi": 74,
          "name": "D5",
          "ticks": 41064,
          "time": 150.97051275,
          "velocity": 1
        },
        {
          "duration": 0.35294099999998707,
          "durationTicks": 96,
          "midi": 81,
          "name": "A5",
          "ticks": 41064,
          "time": 150.97051275,
          "velocity": 1
        },
        {
          "duration": 0.17647049999999354,
          "durationTicks": 48,
          "midi": 69,
          "name": "A4",
          "ticks": 41160,
          "time": 151.32345375,
          "velocity": 1
        },
        {
          "duration": 0.17647049999999354,
          "durationTicks": 48,
          "midi": 74,
          "name": "D5",
          "ticks": 41160,
          "time": 151.32345375,
          "velocity": 1
        },
        {
          "duration": 0.17647050000002196,
          "durationTicks": 48,
          "midi": 79,
          "name": "G5",
          "ticks": 41208,
          "time": 151.49992425,
          "velocity": 1
        },
        {
          "duration": 0.3529410000000155,
          "durationTicks": 96,
          "midi": 84,
          "name": "C6",
          "ticks": 41208,
          "time": 151.49992425,
          "velocity": 1
        },
        {
          "duration": 0.7058819999999741,
          "durationTicks": 192,
          "midi": 79,
          "name": "G5",
          "ticks": 41256,
          "time": 151.67639475000001,
          "velocity": 1
        },
        {
          "duration": 0.17647049999999354,
          "durationTicks": 48,
          "midi": 81,
          "name": "A5",
          "ticks": 41304,
          "time": 151.85286525,
          "velocity": 1
        },
        {
          "duration": 0.17647049999999354,
          "durationTicks": 48,
          "midi": 86,
          "name": "D6",
          "ticks": 41304,
          "time": 151.85286525,
          "velocity": 1
        },
        {
          "duration": 0.17647049999999354,
          "durationTicks": 48,
          "midi": 81,
          "name": "A5",
          "ticks": 41352,
          "time": 152.02933575,
          "velocity": 1
        },
        {
          "duration": 0.17647049999999354,
          "durationTicks": 48,
          "midi": 81,
          "name": "A5",
          "ticks": 41400,
          "time": 152.20580625,
          "velocity": 1
        },
        {
          "duration": 0.17647049999999354,
          "durationTicks": 48,
          "midi": 84,
          "name": "C6",
          "ticks": 41400,
          "time": 152.20580625,
          "velocity": 1
        },
        {
          "duration": 0.17647050000002196,
          "durationTicks": 48,
          "midi": 74,
          "name": "D5",
          "ticks": 41448,
          "time": 152.38227675,
          "velocity": 1
        },
        {
          "duration": 0.17647050000002196,
          "durationTicks": 48,
          "midi": 79,
          "name": "G5",
          "ticks": 41448,
          "time": 152.38227675,
          "velocity": 1
        },
        {
          "duration": 0.7058820000000026,
          "durationTicks": 192,
          "midi": 72,
          "name": "C5",
          "ticks": 41448,
          "time": 152.38227675,
          "velocity": 1
        },
        {
          "duration": 0.17647049999999354,
          "durationTicks": 48,
          "midi": 79,
          "name": "G5",
          "ticks": 41544,
          "time": 152.73521775,
          "velocity": 1
        },
        {
          "duration": 0.17647049999999354,
          "durationTicks": 48,
          "midi": 81,
          "name": "A5",
          "ticks": 41544,
          "time": 152.73521775,
          "velocity": 1
        },
        {
          "duration": 0.17647050000002196,
          "durationTicks": 48,
          "midi": 72,
          "name": "C5",
          "ticks": 41640,
          "time": 153.08815875,
          "velocity": 1
        },
        {
          "duration": 0.17647050000002196,
          "durationTicks": 48,
          "midi": 67,
          "name": "G4",
          "ticks": 41640,
          "time": 153.08815875,
          "velocity": 1
        },
        {
          "duration": 0.35294099999998707,
          "durationTicks": 96,
          "midi": 74,
          "name": "D5",
          "ticks": 41688,
          "time": 153.26462925,
          "velocity": 1
        },
        {
          "duration": 0.35294099999998707,
          "durationTicks": 96,
          "midi": 79,
          "name": "G5",
          "ticks": 41688,
          "time": 153.26462925,
          "velocity": 1
        },
        {
          "duration": 0.17647049999999354,
          "durationTicks": 48,
          "midi": 72,
          "name": "C5",
          "ticks": 41784,
          "time": 153.61757025,
          "velocity": 1
        },
        {
          "duration": 0.17647050000002196,
          "durationTicks": 48,
          "midi": 74,
          "name": "D5",
          "ticks": 41832,
          "time": 153.79404075,
          "velocity": 1
        },
        {
          "duration": 0.17647050000002196,
          "durationTicks": 48,
          "midi": 79,
          "name": "G5",
          "ticks": 41832,
          "time": 153.79404075,
          "velocity": 1
        },
        {
          "duration": 0.3529410000000155,
          "durationTicks": 96,
          "midi": 76,
          "name": "E5",
          "ticks": 41832,
          "time": 153.79404075,
          "velocity": 1
        },
        {
          "duration": 0.17647049999999354,
          "durationTicks": 48,
          "midi": 76,
          "name": "E5",
          "ticks": 41928,
          "time": 154.14698175,
          "velocity": 1
        },
        {
          "duration": 0.17647049999999354,
          "durationTicks": 48,
          "midi": 72,
          "name": "C5",
          "ticks": 41928,
          "time": 154.14698175,
          "velocity": 1
        },
        {
          "duration": 0.17647049999999354,
          "durationTicks": 48,
          "midi": 72,
          "name": "C5",
          "ticks": 41976,
          "time": 154.32345225,
          "velocity": 1
        },
        {
          "duration": 0.17647049999999354,
          "durationTicks": 48,
          "midi": 77,
          "name": "F5",
          "ticks": 41976,
          "time": 154.32345225,
          "velocity": 1
        },
        {
          "duration": 0.3529410000000155,
          "durationTicks": 96,
          "midi": 74,
          "name": "D5",
          "ticks": 42024,
          "time": 154.49992275,
          "velocity": 1
        },
        {
          "duration": 0.17647050000002196,
          "durationTicks": 48,
          "midi": 76,
          "name": "E5",
          "ticks": 42072,
          "time": 154.67639325,
          "velocity": 1
        },
        {
          "duration": 0.17647050000002196,
          "durationTicks": 48,
          "midi": 79,
          "name": "G5",
          "ticks": 42072,
          "time": 154.67639325,
          "velocity": 1
        },
        {
          "duration": 0.17647049999999354,
          "durationTicks": 48,
          "midi": 76,
          "name": "E5",
          "ticks": 42120,
          "time": 154.85286375,
          "velocity": 1
        },
        {
          "duration": 0.17647049999999354,
          "durationTicks": 48,
          "midi": 81,
          "name": "A5",
          "ticks": 42120,
          "time": 154.85286375,
          "velocity": 1
        },
        {
          "duration": 0.17647049999999354,
          "durationTicks": 48,
          "midi": 81,
          "name": "A5",
          "ticks": 42168,
          "time": 155.02933425,
          "velocity": 1
        },
        {
          "duration": 0.17647049999999354,
          "durationTicks": 48,
          "midi": 86,
          "name": "D6",
          "ticks": 42168,
          "time": 155.02933425,
          "velocity": 1
        },
        {
          "duration": 0.17647049999999354,
          "durationTicks": 48,
          "midi": 79,
          "name": "G5",
          "ticks": 42216,
          "time": 155.20580475,
          "velocity": 1
        },
        {
          "duration": 0.17647049999999354,
          "durationTicks": 48,
          "midi": 84,
          "name": "C6",
          "ticks": 42216,
          "time": 155.20580475,
          "velocity": 1
        },
        {
          "duration": 0.17647049999999354,
          "durationTicks": 48,
          "midi": 81,
          "name": "A5",
          "ticks": 42216,
          "time": 155.20580475,
          "velocity": 1
        },
        {
          "duration": 0.17647050000002196,
          "durationTicks": 48,
          "midi": 76,
          "name": "E5",
          "ticks": 42264,
          "time": 155.38227525,
          "velocity": 1
        },
        {
          "duration": 0.17647050000002196,
          "durationTicks": 48,
          "midi": 81,
          "name": "A5",
          "ticks": 42264,
          "time": 155.38227525,
          "velocity": 1
        },
        {
          "duration": 0.17647049999999354,
          "durationTicks": 48,
          "midi": 74,
          "name": "D5",
          "ticks": 42312,
          "time": 155.55874575,
          "velocity": 1
        },
        {
          "duration": 0.17647049999999354,
          "durationTicks": 48,
          "midi": 79,
          "name": "G5",
          "ticks": 42312,
          "time": 155.55874575,
          "velocity": 1
        },
        {
          "duration": 0.17647049999999354,
          "durationTicks": 48,
          "midi": 72,
          "name": "C5",
          "ticks": 42312,
          "time": 155.55874575,
          "velocity": 1
        },
        {
          "duration": 0.17647049999999354,
          "durationTicks": 48,
          "midi": 72,
          "name": "C5",
          "ticks": 42360,
          "time": 155.73521625,
          "velocity": 1
        },
        {
          "duration": 0.35294099999998707,
          "durationTicks": 96,
          "midi": 69,
          "name": "A4",
          "ticks": 42408,
          "time": 155.91168675,
          "velocity": 1
        },
        {
          "duration": 0.35294099999998707,
          "durationTicks": 96,
          "midi": 74,
          "name": "D5",
          "ticks": 42408,
          "time": 155.91168675,
          "velocity": 1
        },
        {
          "duration": 0.3529410000000155,
          "durationTicks": 96,
          "midi": 72,
          "name": "C5",
          "ticks": 42504,
          "time": 156.26462775,
          "velocity": 1
        },
        {
          "duration": 0.3529410000000155,
          "durationTicks": 96,
          "midi": 76,
          "name": "E5",
          "ticks": 42504,
          "time": 156.26462775,
          "velocity": 1
        },
        {
          "duration": 0.35294099999998707,
          "durationTicks": 96,
          "midi": 74,
          "name": "D5",
          "ticks": 42600,
          "time": 156.61756875,
          "velocity": 1
        },
        {
          "duration": 0.35294099999998707,
          "durationTicks": 96,
          "midi": 77,
          "name": "F5",
          "ticks": 42600,
          "time": 156.61756875,
          "velocity": 1
        },
        {
          "duration": 0.35294099999998707,
          "durationTicks": 96,
          "midi": 69,
          "name": "A4",
          "ticks": 42600,
          "time": 156.61756875,
          "velocity": 1
        },
        {
          "duration": 0.3529410000000155,
          "durationTicks": 96,
          "midi": 81,
          "name": "A5",
          "ticks": 42696,
          "time": 156.97050975,
          "velocity": 1
        },
        {
          "duration": 0.3529410000000155,
          "durationTicks": 96,
          "midi": 86,
          "name": "D6",
          "ticks": 42696,
          "time": 156.97050975,
          "velocity": 1
        },
        {
          "duration": 0.35294099999998707,
          "durationTicks": 96,
          "midi": 81,
          "name": "A5",
          "ticks": 42792,
          "time": 157.32345075,
          "velocity": 1
        },
        {
          "duration": 0.35294099999998707,
          "durationTicks": 96,
          "midi": 85,
          "name": "C#6",
          "ticks": 42792,
          "time": 157.32345075,
          "velocity": 1
        },
        {
          "duration": 0.35294099999998707,
          "durationTicks": 96,
          "midi": 76,
          "name": "E5",
          "ticks": 42792,
          "time": 157.32345075,
          "velocity": 1
        },
        {
          "duration": 0.3529410000000155,
          "durationTicks": 96,
          "midi": 81,
          "name": "A5",
          "ticks": 42888,
          "time": 157.67639175,
          "velocity": 1
        },
        {
          "duration": 0.3529410000000155,
          "durationTicks": 96,
          "midi": 77,
          "name": "F5",
          "ticks": 42888,
          "time": 157.67639175,
          "velocity": 1
        },
        {
          "duration": 0.35294099999998707,
          "durationTicks": 96,
          "midi": 85,
          "name": "C#6",
          "ticks": 42984,
          "time": 158.02933275,
          "velocity": 1
        },
        {
          "duration": 0.35294099999998707,
          "durationTicks": 96,
          "midi": 88,
          "name": "E6",
          "ticks": 42984,
          "time": 158.02933275,
          "velocity": 1
        },
        {
          "duration": 0.35294099999998707,
          "durationTicks": 96,
          "midi": 79,
          "name": "G5",
          "ticks": 42984,
          "time": 158.02933275,
          "velocity": 1
        },
        {
          "duration": 0.3529410000000155,
          "durationTicks": 96,
          "midi": 85,
          "name": "C#6",
          "ticks": 43080,
          "time": 158.38227375,
          "velocity": 1
        },
        {
          "duration": 0.3529410000000155,
          "durationTicks": 96,
          "midi": 89,
          "name": "F6",
          "ticks": 43080,
          "time": 158.38227375,
          "velocity": 1
        },
        {
          "duration": 0.3529410000000155,
          "durationTicks": 96,
          "midi": 82,
          "name": "A#5",
          "ticks": 43080,
          "time": 158.38227375,
          "velocity": 1
        },
        {
          "duration": 0.35294099999998707,
          "durationTicks": 96,
          "midi": 85,
          "name": "C#6",
          "ticks": 43176,
          "time": 158.73521475,
          "velocity": 1
        },
        {
          "duration": 0.35294099999998707,
          "durationTicks": 96,
          "midi": 88,
          "name": "E6",
          "ticks": 43176,
          "time": 158.73521475,
          "velocity": 1
        },
        {
          "duration": 0.35294099999998707,
          "durationTicks": 96,
          "midi": 81,
          "name": "A5",
          "ticks": 43176,
          "time": 158.73521475,
          "velocity": 1
        },
        {
          "duration": 0.3529410000000155,
          "durationTicks": 96,
          "midi": 81,
          "name": "A5",
          "ticks": 43272,
          "time": 159.08815575,
          "velocity": 1
        },
        {
          "duration": 0.3529410000000155,
          "durationTicks": 96,
          "midi": 84,
          "name": "C6",
          "ticks": 43272,
          "time": 159.08815575,
          "velocity": 1
        },
        {
          "duration": 0.3529410000000155,
          "durationTicks": 96,
          "midi": 76,
          "name": "E5",
          "ticks": 43272,
          "time": 159.08815575,
          "velocity": 1
        },
        {
          "duration": 0.17647049999999354,
          "durationTicks": 48,
          "midi": 81,
          "name": "A5",
          "ticks": 43368,
          "time": 159.44109675,
          "velocity": 1
        },
        {
          "duration": 0.35294099999998707,
          "durationTicks": 96,
          "midi": 77,
          "name": "F5",
          "ticks": 43368,
          "time": 159.44109675,
          "velocity": 1
        },
        {
          "duration": 0.17647049999999354,
          "durationTicks": 48,
          "midi": 72,
          "name": "C5",
          "ticks": 43464,
          "time": 159.79403775,
          "velocity": 1
        },
        {
          "duration": 0.17647049999999354,
          "durationTicks": 48,
          "midi": 77,
          "name": "F5",
          "ticks": 43464,
          "time": 159.79403775,
          "velocity": 1
        },
        {
          "duration": 0.17647049999999354,
          "durationTicks": 48,
          "midi": 81,
          "name": "A5",
          "ticks": 43512,
          "time": 159.97050825,
          "velocity": 1
        },
        {
          "duration": 0.3529410000000155,
          "durationTicks": 96,
          "midi": 86,
          "name": "D6",
          "ticks": 43512,
          "time": 159.97050825,
          "velocity": 1
        },
        {
          "duration": 0.3529410000000155,
          "durationTicks": 96,
          "midi": 79,
          "name": "G5",
          "ticks": 43560,
          "time": 160.14697875,
          "velocity": 1
        },
        {
          "duration": 0.17647049999999354,
          "durationTicks": 48,
          "midi": 84,
          "name": "C6",
          "ticks": 43608,
          "time": 160.32344925,
          "velocity": 1
        },
        {
          "duration": 0.17647049999999354,
          "durationTicks": 48,
          "midi": 81,
          "name": "A5",
          "ticks": 43656,
          "time": 160.49991975,
          "velocity": 1
        },
        {
          "duration": 0.17647049999999354,
          "durationTicks": 48,
          "midi": 86,
          "name": "D6",
          "ticks": 43656,
          "time": 160.49991975,
          "velocity": 1
        },
        {
          "duration": 0.3529410000000155,
          "durationTicks": 96,
          "midi": 77,
          "name": "F5",
          "ticks": 43704,
          "time": 160.67639025,
          "velocity": 1
        },
        {
          "duration": 0.3529410000000155,
          "durationTicks": 96,
          "midi": 81,
          "name": "A5",
          "ticks": 43704,
          "time": 160.67639025,
          "velocity": 1
        },
        {
          "duration": 0.17647049999999354,
          "durationTicks": 48,
          "midi": 74,
          "name": "D5",
          "ticks": 43800,
          "time": 161.02933125,
          "velocity": 1
        },
        {
          "duration": 0.17647049999999354,
          "durationTicks": 48,
          "midi": 79,
          "name": "G5",
          "ticks": 43800,
          "time": 161.02933125,
          "velocity": 1
        },
        {
          "duration": 0.17647049999999354,
          "durationTicks": 48,
          "midi": 72,
          "name": "C5",
          "ticks": 43848,
          "time": 161.20580175,
          "velocity": 1
        },
        {
          "duration": 0.17647049999999354,
          "durationTicks": 48,
          "midi": 77,
          "name": "F5",
          "ticks": 43848,
          "time": 161.20580175,
          "velocity": 1
        },
        {
          "duration": 0.3529410000000155,
          "durationTicks": 96,
          "midi": 81,
          "name": "A5",
          "ticks": 43944,
          "time": 161.55874275,
          "velocity": 1
        },
        {
          "duration": 0.3529410000000155,
          "durationTicks": 96,
          "midi": 86,
          "name": "D6",
          "ticks": 43944,
          "time": 161.55874275,
          "velocity": 1
        },
        {
          "duration": 0.17647049999999354,
          "durationTicks": 48,
          "midi": 77,
          "name": "F5",
          "ticks": 44088,
          "time": 162.08815425,
          "velocity": 1
        },
        {
          "duration": 0.17647049999999354,
          "durationTicks": 48,
          "midi": 81,
          "name": "A5",
          "ticks": 44088,
          "time": 162.08815425,
          "velocity": 1
        },
        {
          "duration": 0.17647049999999354,
          "durationTicks": 48,
          "midi": 77,
          "name": "F5",
          "ticks": 44136,
          "time": 162.26462475,
          "velocity": 1
        },
        {
          "duration": 0.17647049999999354,
          "durationTicks": 48,
          "midi": 84,
          "name": "C6",
          "ticks": 44136,
          "time": 162.26462475,
          "velocity": 1
        },
        {
          "duration": 0.17647049999999354,
          "durationTicks": 48,
          "midi": 81,
          "name": "A5",
          "ticks": 44136,
          "time": 162.26462475,
          "velocity": 1
        },
        {
          "duration": 0.17647050000002196,
          "durationTicks": 48,
          "midi": 81,
          "name": "A5",
          "ticks": 44184,
          "time": 162.44109525,
          "velocity": 1
        },
        {
          "duration": 0.17647050000002196,
          "durationTicks": 48,
          "midi": 86,
          "name": "D6",
          "ticks": 44184,
          "time": 162.44109525,
          "velocity": 1
        },
        {
          "duration": 0.17647049999999354,
          "durationTicks": 48,
          "midi": 81,
          "name": "A5",
          "ticks": 44280,
          "time": 162.79403625,
          "velocity": 1
        },
        {
          "duration": 0.17647049999999354,
          "durationTicks": 48,
          "midi": 86,
          "name": "D6",
          "ticks": 44280,
          "time": 162.79403625,
          "velocity": 1
        },
        {
          "duration": 0.17647049999999354,
          "durationTicks": 48,
          "midi": 77,
          "name": "F5",
          "ticks": 44328,
          "time": 162.97050675,
          "velocity": 1
        },
        {
          "duration": 0.17647049999999354,
          "durationTicks": 48,
          "midi": 84,
          "name": "C6",
          "ticks": 44328,
          "time": 162.97050675,
          "velocity": 1
        },
        {
          "duration": 0.17647050000002196,
          "durationTicks": 48,
          "midi": 77,
          "name": "F5",
          "ticks": 44376,
          "time": 163.14697725,
          "velocity": 1
        },
        {
          "duration": 0.17647050000002196,
          "durationTicks": 48,
          "midi": 81,
          "name": "A5",
          "ticks": 44376,
          "time": 163.14697725,
          "velocity": 1
        },
        {
          "duration": 0.17647049999999354,
          "durationTicks": 48,
          "midi": 84,
          "name": "C6",
          "ticks": 44424,
          "time": 163.32344775,
          "velocity": 1
        },
        {
          "duration": 0.17647049999999354,
          "durationTicks": 48,
          "midi": 89,
          "name": "F6",
          "ticks": 44424,
          "time": 163.32344775,
          "velocity": 1
        },
        {
          "duration": 0.35294099999998707,
          "durationTicks": 96,
          "midi": 81,
          "name": "A5",
          "ticks": 44424,
          "time": 163.32344775,
          "velocity": 1
        },
        {
          "duration": 0.17647049999999354,
          "durationTicks": 48,
          "midi": 84,
          "name": "C6",
          "ticks": 44472,
          "time": 163.49991825,
          "velocity": 1
        },
        {
          "duration": 0.17647049999999354,
          "durationTicks": 48,
          "midi": 88,
          "name": "E6",
          "ticks": 44472,
          "time": 163.49991825,
          "velocity": 1
        },
        {
          "duration": 0.35294099999998707,
          "durationTicks": 96,
          "midi": 79,
          "name": "G5",
          "ticks": 44520,
          "time": 163.67638875,
          "velocity": 1
        },
        {
          "duration": 0.17647049999999354,
          "durationTicks": 48,
          "midi": 84,
          "name": "C6",
          "ticks": 44568,
          "time": 163.85285925,
          "velocity": 1
        },
        {
          "duration": 0.17647050000002196,
          "durationTicks": 48,
          "midi": 84,
          "name": "C6",
          "ticks": 44616,
          "time": 164.02932975,
          "velocity": 1
        },
        {
          "duration": 0.17647050000002196,
          "durationTicks": 48,
          "midi": 89,
          "name": "F6",
          "ticks": 44616,
          "time": 164.02932975,
          "velocity": 1
        },
        {
          "duration": 0.17647049999999354,
          "durationTicks": 48,
          "midi": 84,
          "name": "C6",
          "ticks": 44664,
          "time": 164.20580025,
          "velocity": 1
        },
        {
          "duration": 0.17647049999999354,
          "durationTicks": 48,
          "midi": 88,
          "name": "E6",
          "ticks": 44664,
          "time": 164.20580025,
          "velocity": 1
        },
        {
          "duration": 0.35294099999998707,
          "durationTicks": 96,
          "midi": 81,
          "name": "A5",
          "ticks": 44712,
          "time": 164.38227075,
          "velocity": 1
        },
        {
          "duration": 0.17647049999999354,
          "durationTicks": 48,
          "midi": 84,
          "name": "C6",
          "ticks": 44760,
          "time": 164.55874125,
          "velocity": 1
        },
        {
          "duration": 0.17647050000002196,
          "durationTicks": 48,
          "midi": 89,
          "name": "F6",
          "ticks": 44808,
          "time": 164.73521175,
          "velocity": 1
        },
        {
          "duration": 0.17647050000002196,
          "durationTicks": 48,
          "midi": 84,
          "name": "C6",
          "ticks": 44808,
          "time": 164.73521175,
          "velocity": 1
        },
        {
          "duration": 0.17647049999999354,
          "durationTicks": 48,
          "midi": 84,
          "name": "C6",
          "ticks": 44856,
          "time": 164.91168225,
          "velocity": 1
        },
        {
          "duration": 0.17647049999999354,
          "durationTicks": 48,
          "midi": 88,
          "name": "E6",
          "ticks": 44856,
          "time": 164.91168225,
          "velocity": 1
        },
        {
          "duration": 0.17647049999999354,
          "durationTicks": 48,
          "midi": 89,
          "name": "F6",
          "ticks": 44904,
          "time": 165.08815275,
          "velocity": 1
        },
        {
          "duration": 0.17647049999999354,
          "durationTicks": 48,
          "midi": 84,
          "name": "C6",
          "ticks": 44952,
          "time": 165.26462325,
          "velocity": 1
        },
        {
          "duration": 0.17647050000002196,
          "durationTicks": 48,
          "midi": 84,
          "name": "C6",
          "ticks": 45000,
          "time": 165.44109375,
          "velocity": 1
        },
        {
          "duration": 0.17647050000002196,
          "durationTicks": 48,
          "midi": 89,
          "name": "F6",
          "ticks": 45000,
          "time": 165.44109375,
          "velocity": 1
        },
        {
          "duration": 0.17647049999999354,
          "durationTicks": 48,
          "midi": 84,
          "name": "C6",
          "ticks": 45048,
          "time": 165.61756425000002,
          "velocity": 1
        },
        {
          "duration": 0.35294099999998707,
          "durationTicks": 96,
          "midi": 88,
          "name": "E6",
          "ticks": 45048,
          "time": 165.61756425000002,
          "velocity": 1
        },
        {
          "duration": 0.17647049999999354,
          "durationTicks": 48,
          "midi": 84,
          "name": "C6",
          "ticks": 45096,
          "time": 165.79403475,
          "velocity": 1
        },
        {
          "duration": 0.17647049999999354,
          "durationTicks": 48,
          "midi": 86,
          "name": "D6",
          "ticks": 45096,
          "time": 165.79403475,
          "velocity": 1
        },
        {
          "duration": 0.17647049999999354,
          "durationTicks": 48,
          "midi": 84,
          "name": "C6",
          "ticks": 45144,
          "time": 165.97050525,
          "velocity": 1
        },
        {
          "duration": 0.17647049999999354,
          "durationTicks": 48,
          "midi": 81,
          "name": "A5",
          "ticks": 45192,
          "time": 166.14697575,
          "velocity": 1
        },
        {
          "duration": 0.17647049999999354,
          "durationTicks": 48,
          "midi": 86,
          "name": "D6",
          "ticks": 45192,
          "time": 166.14697575,
          "velocity": 1
        },
        {
          "duration": 0.17647049999999354,
          "durationTicks": 48,
          "midi": 86,
          "name": "D6",
          "ticks": 45288,
          "time": 166.49991675,
          "velocity": 1
        },
        {
          "duration": 0.35294099999998707,
          "durationTicks": 96,
          "midi": 81,
          "name": "A5",
          "ticks": 45288,
          "time": 166.49991675,
          "velocity": 1
        },
        {
          "duration": 0.17647049999999354,
          "durationTicks": 48,
          "midi": 84,
          "name": "C6",
          "ticks": 45336,
          "time": 166.67638725,
          "velocity": 1
        },
        {
          "duration": 0.17647049999999354,
          "durationTicks": 48,
          "midi": 77,
          "name": "F5",
          "ticks": 45384,
          "time": 166.85285775,
          "velocity": 1
        },
        {
          "duration": 0.17647049999999354,
          "durationTicks": 48,
          "midi": 81,
          "name": "A5",
          "ticks": 45384,
          "time": 166.85285775,
          "velocity": 1
        },
        {
          "duration": 0.3529410000000155,
          "durationTicks": 96,
          "midi": 74,
          "name": "D5",
          "ticks": 45384,
          "time": 166.85285775,
          "velocity": 1
        },
        {
          "duration": 0.17647050000002196,
          "durationTicks": 48,
          "midi": 79,
          "name": "G5",
          "ticks": 45432,
          "time": 167.02932825,
          "velocity": 1
        },
        {
          "duration": 0.35294099999998707,
          "durationTicks": 96,
          "midi": 74,
          "name": "D5",
          "ticks": 45480,
          "time": 167.20579875,
          "velocity": 1
        },
        {
          "duration": 0.35294099999998707,
          "durationTicks": 96,
          "midi": 77,
          "name": "F5",
          "ticks": 45480,
          "time": 167.20579875,
          "velocity": 1
        },
        {
          "duration": 0.3529410000000155,
          "durationTicks": 96,
          "midi": 69,
          "name": "A4",
          "ticks": 45576,
          "time": 167.55873975,
          "velocity": 1
        },
        {
          "duration": 0.3529410000000155,
          "durationTicks": 96,
          "midi": 74,
          "name": "D5",
          "ticks": 45576,
          "time": 167.55873975,
          "velocity": 1
        },
        {
          "duration": 0.35294099999998707,
          "durationTicks": 96,
          "midi": 74,
          "name": "D5",
          "ticks": 45672,
          "time": 167.91168075000002,
          "velocity": 1
        },
        {
          "duration": 0.35294099999998707,
          "durationTicks": 96,
          "midi": 77,
          "name": "F5",
          "ticks": 45672,
          "time": 167.91168075000002,
          "velocity": 1
        },
        {
          "duration": 0.35294099999998707,
          "durationTicks": 96,
          "midi": 69,
          "name": "A4",
          "ticks": 45672,
          "time": 167.91168075000002,
          "velocity": 1
        },
        {
          "duration": 0.35294099999998707,
          "durationTicks": 96,
          "midi": 81,
          "name": "A5",
          "ticks": 45768,
          "time": 168.26462175,
          "velocity": 1
        },
        {
          "duration": 0.35294099999998707,
          "durationTicks": 96,
          "midi": 86,
          "name": "D6",
          "ticks": 45768,
          "time": 168.26462175,
          "velocity": 1
        },
        {
          "duration": 0.3529410000000155,
          "durationTicks": 96,
          "midi": 81,
          "name": "A5",
          "ticks": 45864,
          "time": 168.61756275,
          "velocity": 1
        },
        {
          "duration": 0.3529410000000155,
          "durationTicks": 96,
          "midi": 84,
          "name": "C6",
          "ticks": 45864,
          "time": 168.61756275,
          "velocity": 1
        },
        {
          "duration": 0.3529410000000155,
          "durationTicks": 96,
          "midi": 79,
          "name": "G5",
          "ticks": 45864,
          "time": 168.61756275,
          "velocity": 1
        },
        {
          "duration": 0.35294099999998707,
          "durationTicks": 96,
          "midi": 74,
          "name": "D5",
          "ticks": 45960,
          "time": 168.97050375,
          "velocity": 1
        },
        {
          "duration": 0.35294099999998707,
          "durationTicks": 96,
          "midi": 77,
          "name": "F5",
          "ticks": 45960,
          "time": 168.97050375,
          "velocity": 1
        },
        {
          "duration": 0.35294099999998707,
          "durationTicks": 96,
          "midi": 81,
          "name": "A5",
          "ticks": 45960,
          "time": 168.97050375,
          "velocity": 1
        },
        {
          "duration": 0.3529410000000155,
          "durationTicks": 96,
          "midi": 69,
          "name": "A4",
          "ticks": 46056,
          "time": 169.32344475,
          "velocity": 1
        },
        {
          "duration": 0.3529410000000155,
          "durationTicks": 96,
          "midi": 74,
          "name": "D5",
          "ticks": 46056,
          "time": 169.32344475,
          "velocity": 1
        },
        {
          "duration": 0.35294099999998707,
          "durationTicks": 96,
          "midi": 72,
          "name": "C5",
          "ticks": 46152,
          "time": 169.67638575,
          "velocity": 1
        },
        {
          "duration": 0.35294099999998707,
          "durationTicks": 96,
          "midi": 76,
          "name": "E5",
          "ticks": 46152,
          "time": 169.67638575,
          "velocity": 1
        },
        {
          "duration": 0.7058820000000026,
          "durationTicks": 192,
          "midi": 74,
          "name": "D5",
          "ticks": 46248,
          "time": 170.02932675,
          "velocity": 1
        },
        {
          "duration": 1.4117640000000051,
          "durationTicks": 384,
          "midi": 77,
          "name": "F5",
          "ticks": 46248,
          "time": 170.02932675,
          "velocity": 1
        },
        {
          "duration": 0.7058820000000026,
          "durationTicks": 192,
          "midi": 81,
          "name": "A5",
          "ticks": 46440,
          "time": 170.73520875,
          "velocity": 1
        },
        {
          "duration": 0.7058820000000026,
          "durationTicks": 192,
          "midi": 74,
          "name": "D5",
          "ticks": 46440,
          "time": 170.73520875,
          "velocity": 1
        },
        {
          "duration": 0.7058820000000026,
          "durationTicks": 192,
          "midi": 86,
          "name": "D6",
          "ticks": 46440,
          "time": 170.73520875,
          "velocity": 1
        },
        {
          "duration": 0.3529410000000155,
          "durationTicks": 96,
          "midi": 81,
          "name": "A5",
          "ticks": 46632,
          "time": 171.44109075,
          "velocity": 1
        },
        {
          "duration": 0.3529410000000155,
          "durationTicks": 96,
          "midi": 84,
          "name": "C6",
          "ticks": 46632,
          "time": 171.44109075,
          "velocity": 1
        },
        {
          "duration": 0.3529410000000155,
          "durationTicks": 96,
          "midi": 77,
          "name": "F5",
          "ticks": 46632,
          "time": 171.44109075,
          "velocity": 1
        },
        {
          "duration": 0.3529410000000155,
          "durationTicks": 96,
          "midi": 89,
          "name": "F6",
          "ticks": 46632,
          "time": 171.44109075,
          "velocity": 1
        },
        {
          "duration": 0.35294099999998707,
          "durationTicks": 96,
          "midi": 89,
          "name": "F6",
          "ticks": 46728,
          "time": 171.79403175000002,
          "velocity": 1
        },
        {
          "duration": 0.35294099999998707,
          "durationTicks": 96,
          "midi": 86,
          "name": "D6",
          "ticks": 46728,
          "time": 171.79403175000002,
          "velocity": 1
        },
        {
          "duration": 0.35294099999998707,
          "durationTicks": 96,
          "midi": 81,
          "name": "A5",
          "ticks": 46728,
          "time": 171.79403175000002,
          "velocity": 1
        },
        {
          "duration": 0.35294099999998707,
          "durationTicks": 96,
          "midi": 93,
          "name": "A6",
          "ticks": 46728,
          "time": 171.79403175000002,
          "velocity": 1
        },
        {
          "duration": 0.35294099999998707,
          "durationTicks": 96,
          "midi": 84,
          "name": "C6",
          "ticks": 46824,
          "time": 172.14697275,
          "velocity": 1
        },
        {
          "duration": 0.35294099999998707,
          "durationTicks": 96,
          "midi": 77,
          "name": "F5",
          "ticks": 46824,
          "time": 172.14697275,
          "velocity": 1
        },
        {
          "duration": 0.35294099999998707,
          "durationTicks": 96,
          "midi": 89,
          "name": "F6",
          "ticks": 46824,
          "time": 172.14697275,
          "velocity": 1
        },
        {
          "duration": 0.3529410000000155,
          "durationTicks": 96,
          "midi": 84,
          "name": "C6",
          "ticks": 46920,
          "time": 172.49991375,
          "velocity": 1
        },
        {
          "duration": 0.3529410000000155,
          "durationTicks": 96,
          "midi": 81,
          "name": "A5",
          "ticks": 46920,
          "time": 172.49991375,
          "velocity": 1
        },
        {
          "duration": 0.3529410000000155,
          "durationTicks": 96,
          "midi": 76,
          "name": "E5",
          "ticks": 46920,
          "time": 172.49991375,
          "velocity": 1
        },
        {
          "duration": 0.3529410000000155,
          "durationTicks": 96,
          "midi": 88,
          "name": "E6",
          "ticks": 46920,
          "time": 172.49991375,
          "velocity": 1
        },
        {
          "duration": 0.3529410000000155,
          "durationTicks": 96,
          "midi": 79,
          "name": "G5",
          "ticks": 47112,
          "time": 173.20579575,
          "velocity": 1
        },
        {
          "duration": 0.3529410000000155,
          "durationTicks": 96,
          "midi": 72,
          "name": "C5",
          "ticks": 47112,
          "time": 173.20579575,
          "velocity": 1
        },
        {
          "duration": 0.3529410000000155,
          "durationTicks": 96,
          "midi": 84,
          "name": "C6",
          "ticks": 47112,
          "time": 173.20579575,
          "velocity": 1
        },
        {
          "duration": 0.35294099999998707,
          "durationTicks": 96,
          "midi": 81,
          "name": "A5",
          "ticks": 47208,
          "time": 173.55873675,
          "velocity": 1
        },
        {
          "duration": 0.35294099999998707,
          "durationTicks": 96,
          "midi": 84,
          "name": "C6",
          "ticks": 47208,
          "time": 173.55873675,
          "velocity": 1
        },
        {
          "duration": 0.35294099999998707,
          "durationTicks": 96,
          "midi": 77,
          "name": "F5",
          "ticks": 47208,
          "time": 173.55873675,
          "velocity": 1
        },
        {
          "duration": 0.35294099999998707,
          "durationTicks": 96,
          "midi": 89,
          "name": "F6",
          "ticks": 47208,
          "time": 173.55873675,
          "velocity": 1
        },
        {
          "duration": 0.3529410000000155,
          "durationTicks": 96,
          "midi": 84,
          "name": "C6",
          "ticks": 47304,
          "time": 173.91167775,
          "velocity": 1
        },
        {
          "duration": 0.3529410000000155,
          "durationTicks": 96,
          "midi": 81,
          "name": "A5",
          "ticks": 47304,
          "time": 173.91167775,
          "velocity": 1
        },
        {
          "duration": 0.3529410000000155,
          "durationTicks": 96,
          "midi": 76,
          "name": "E5",
          "ticks": 47304,
          "time": 173.91167775,
          "velocity": 1
        },
        {
          "duration": 0.3529410000000155,
          "durationTicks": 96,
          "midi": 88,
          "name": "E6",
          "ticks": 47304,
          "time": 173.91167775,
          "velocity": 1
        },
        {
          "duration": 0.3529410000000155,
          "durationTicks": 96,
          "midi": 76,
          "name": "E5",
          "ticks": 47496,
          "time": 174.61755975,
          "velocity": 1
        },
        {
          "duration": 0.3529410000000155,
          "durationTicks": 96,
          "midi": 79,
          "name": "G5",
          "ticks": 47496,
          "time": 174.61755975,
          "velocity": 1
        },
        {
          "duration": 0.3529410000000155,
          "durationTicks": 96,
          "midi": 72,
          "name": "C5",
          "ticks": 47496,
          "time": 174.61755975,
          "velocity": 1
        },
        {
          "duration": 0.3529410000000155,
          "durationTicks": 96,
          "midi": 84,
          "name": "C6",
          "ticks": 47496,
          "time": 174.61755975,
          "velocity": 1
        },
        {
          "duration": 0.35294099999998707,
          "durationTicks": 96,
          "midi": 81,
          "name": "A5",
          "ticks": 47592,
          "time": 174.97050075,
          "velocity": 1
        },
        {
          "duration": 0.35294099999998707,
          "durationTicks": 96,
          "midi": 74,
          "name": "D5",
          "ticks": 47592,
          "time": 174.97050075,
          "velocity": 1
        },
        {
          "duration": 0.35294099999998707,
          "durationTicks": 96,
          "midi": 86,
          "name": "D6",
          "ticks": 47592,
          "time": 174.97050075,
          "velocity": 1
        },
        {
          "duration": 0.3529410000000155,
          "durationTicks": 96,
          "midi": 76,
          "name": "E5",
          "ticks": 47688,
          "time": 175.32344175,
          "velocity": 1
        },
        {
          "duration": 0.3529410000000155,
          "durationTicks": 96,
          "midi": 69,
          "name": "A4",
          "ticks": 47688,
          "time": 175.32344175,
          "velocity": 1
        },
        {
          "duration": 0.3529410000000155,
          "durationTicks": 96,
          "midi": 81,
          "name": "A5",
          "ticks": 47688,
          "time": 175.32344175,
          "velocity": 1
        },
        {
          "duration": 0.35294099999998707,
          "durationTicks": 96,
          "midi": 81,
          "name": "A5",
          "ticks": 47784,
          "time": 175.67638275000002,
          "velocity": 1
        },
        {
          "duration": 0.35294099999998707,
          "durationTicks": 96,
          "midi": 74,
          "name": "D5",
          "ticks": 47784,
          "time": 175.67638275000002,
          "velocity": 1
        },
        {
          "duration": 0.35294099999998707,
          "durationTicks": 96,
          "midi": 86,
          "name": "D6",
          "ticks": 47784,
          "time": 175.67638275000002,
          "velocity": 1
        },
        {
          "duration": 0.35294099999998707,
          "durationTicks": 96,
          "midi": 81,
          "name": "A5",
          "ticks": 47880,
          "time": 176.02932375,
          "velocity": 1
        },
        {
          "duration": 0.35294099999998707,
          "durationTicks": 96,
          "midi": 84,
          "name": "C6",
          "ticks": 47880,
          "time": 176.02932375,
          "velocity": 1
        },
        {
          "duration": 0.35294099999998707,
          "durationTicks": 96,
          "midi": 76,
          "name": "E5",
          "ticks": 47880,
          "time": 176.02932375,
          "velocity": 1
        },
        {
          "duration": 0.35294099999998707,
          "durationTicks": 96,
          "midi": 88,
          "name": "E6",
          "ticks": 47880,
          "time": 176.02932375,
          "velocity": 1
        },
        {
          "duration": 0.3529410000000155,
          "durationTicks": 96,
          "midi": 81,
          "name": "A5",
          "ticks": 47976,
          "time": 176.38226475,
          "velocity": 1
        },
        {
          "duration": 0.3529410000000155,
          "durationTicks": 96,
          "midi": 84,
          "name": "C6",
          "ticks": 47976,
          "time": 176.38226475,
          "velocity": 1
        },
        {
          "duration": 0.3529410000000155,
          "durationTicks": 96,
          "midi": 77,
          "name": "F5",
          "ticks": 47976,
          "time": 176.38226475,
          "velocity": 1
        },
        {
          "duration": 0.3529410000000155,
          "durationTicks": 96,
          "midi": 89,
          "name": "F6",
          "ticks": 47976,
          "time": 176.38226475,
          "velocity": 1
        },
        {
          "duration": 0.35294099999998707,
          "durationTicks": 96,
          "midi": 87,
          "name": "D#6",
          "ticks": 48072,
          "time": 176.73520575,
          "velocity": 1
        },
        {
          "duration": 0.35294099999998707,
          "durationTicks": 96,
          "midi": 81,
          "name": "A5",
          "ticks": 48072,
          "time": 176.73520575,
          "velocity": 1
        },
        {
          "duration": 0.35294099999998707,
          "durationTicks": 96,
          "midi": 93,
          "name": "A6",
          "ticks": 48072,
          "time": 176.73520575,
          "velocity": 1
        },
        {
          "duration": 0.3529410000000155,
          "durationTicks": 96,
          "midi": 87,
          "name": "D#6",
          "ticks": 48168,
          "time": 177.08814675,
          "velocity": 1
        },
        {
          "duration": 0.3529410000000155,
          "durationTicks": 96,
          "midi": 84,
          "name": "C6",
          "ticks": 48168,
          "time": 177.08814675,
          "velocity": 1
        },
        {
          "duration": 0.3529410000000155,
          "durationTicks": 96,
          "midi": 79,
          "name": "G5",
          "ticks": 48168,
          "time": 177.08814675,
          "velocity": 1
        },
        {
          "duration": 0.3529410000000155,
          "durationTicks": 96,
          "midi": 91,
          "name": "G6",
          "ticks": 48168,
          "time": 177.08814675,
          "velocity": 1
        },
        {
          "duration": 0.35294099999998707,
          "durationTicks": 96,
          "midi": 79,
          "name": "G5",
          "ticks": 48264,
          "time": 177.44108775,
          "velocity": 1
        },
        {
          "duration": 0.35294099999998707,
          "durationTicks": 96,
          "midi": 72,
          "name": "C5",
          "ticks": 48264,
          "time": 177.44108775,
          "velocity": 1
        },
        {
          "duration": 0.35294099999998707,
          "durationTicks": 96,
          "midi": 84,
          "name": "C6",
          "ticks": 48264,
          "time": 177.44108775,
          "velocity": 1
        },
        {
          "duration": 0.3529410000000155,
          "durationTicks": 96,
          "midi": 82,
          "name": "A#5",
          "ticks": 48360,
          "time": 177.79402875,
          "velocity": 1
        },
        {
          "duration": 0.3529410000000155,
          "durationTicks": 96,
          "midi": 76,
          "name": "E5",
          "ticks": 48360,
          "time": 177.79402875,
          "velocity": 1
        },
        {
          "duration": 0.3529410000000155,
          "durationTicks": 96,
          "midi": 88,
          "name": "E6",
          "ticks": 48360,
          "time": 177.79402875,
          "velocity": 1
        },
        {
          "duration": 0.35294099999998707,
          "durationTicks": 96,
          "midi": 84,
          "name": "C6",
          "ticks": 48456,
          "time": 178.14696975,
          "velocity": 1
        },
        {
          "duration": 0.35294099999998707,
          "durationTicks": 96,
          "midi": 77,
          "name": "F5",
          "ticks": 48456,
          "time": 178.14696975,
          "velocity": 1
        },
        {
          "duration": 0.35294099999998707,
          "durationTicks": 96,
          "midi": 89,
          "name": "F6",
          "ticks": 48456,
          "time": 178.14696975,
          "velocity": 1
        },
        {
          "duration": 0.3529410000000155,
          "durationTicks": 96,
          "midi": 87,
          "name": "D#6",
          "ticks": 48552,
          "time": 178.49991075,
          "velocity": 1
        },
        {
          "duration": 0.3529410000000155,
          "durationTicks": 96,
          "midi": 84,
          "name": "C6",
          "ticks": 48552,
          "time": 178.49991075,
          "velocity": 1
        },
        {
          "duration": 0.3529410000000155,
          "durationTicks": 96,
          "midi": 79,
          "name": "G5",
          "ticks": 48552,
          "time": 178.49991075,
          "velocity": 1
        },
        {
          "duration": 0.3529410000000155,
          "durationTicks": 96,
          "midi": 91,
          "name": "G6",
          "ticks": 48552,
          "time": 178.49991075,
          "velocity": 1
        },
        {
          "duration": 0.35294099999998707,
          "durationTicks": 96,
          "midi": 84,
          "name": "C6",
          "ticks": 48648,
          "time": 178.85285175,
          "velocity": 1
        },
        {
          "duration": 0.35294099999998707,
          "durationTicks": 96,
          "midi": 77,
          "name": "F5",
          "ticks": 48648,
          "time": 178.85285175,
          "velocity": 1
        },
        {
          "duration": 0.35294099999998707,
          "durationTicks": 96,
          "midi": 89,
          "name": "F6",
          "ticks": 48648,
          "time": 178.85285175,
          "velocity": 1
        },
        {
          "duration": 0.3529410000000155,
          "durationTicks": 96,
          "midi": 87,
          "name": "D#6",
          "ticks": 48744,
          "time": 179.20579275,
          "velocity": 1
        },
        {
          "duration": 0.3529410000000155,
          "durationTicks": 96,
          "midi": 84,
          "name": "C6",
          "ticks": 48744,
          "time": 179.20579275,
          "velocity": 1
        },
        {
          "duration": 0.3529410000000155,
          "durationTicks": 96,
          "midi": 79,
          "name": "G5",
          "ticks": 48744,
          "time": 179.20579275,
          "velocity": 1
        },
        {
          "duration": 0.3529410000000155,
          "durationTicks": 96,
          "midi": 91,
          "name": "G6",
          "ticks": 48744,
          "time": 179.20579275,
          "velocity": 1
        },
        {
          "duration": 0.35294099999998707,
          "durationTicks": 96,
          "midi": 77,
          "name": "F5",
          "ticks": 48840,
          "time": 179.55873375000002,
          "velocity": 1
        },
        {
          "duration": 0.35294099999998707,
          "durationTicks": 96,
          "midi": 72,
          "name": "C5",
          "ticks": 48840,
          "time": 179.55873375000002,
          "velocity": 1
        },
        {
          "duration": 0.35294099999998707,
          "durationTicks": 96,
          "midi": 84,
          "name": "C6",
          "ticks": 48840,
          "time": 179.55873375000002,
          "velocity": 1
        },
        {
          "duration": 0.35294099999998707,
          "durationTicks": 96,
          "midi": 77,
          "name": "F5",
          "ticks": 48936,
          "time": 179.91167475,
          "velocity": 1
        },
        {
          "duration": 0.35294099999998707,
          "durationTicks": 96,
          "midi": 70,
          "name": "A#4",
          "ticks": 48936,
          "time": 179.91167475,
          "velocity": 1
        },
        {
          "duration": 0.35294099999998707,
          "durationTicks": 96,
          "midi": 82,
          "name": "A#5",
          "ticks": 48936,
          "time": 179.91167475,
          "velocity": 1
        },
        {
          "duration": 0.17647049999999354,
          "durationTicks": 48,
          "midi": 77,
          "name": "F5",
          "ticks": 49080,
          "time": 180.44108625,
          "velocity": 1
        },
        {
          "duration": 0.17647049999999354,
          "durationTicks": 48,
          "midi": 69,
          "name": "A4",
          "ticks": 49080,
          "time": 180.44108625,
          "velocity": 1
        },
        {
          "duration": 0.17647049999999354,
          "durationTicks": 48,
          "midi": 81,
          "name": "A5",
          "ticks": 49080,
          "time": 180.44108625,
          "velocity": 1
        },
        {
          "duration": 0.17647049999999354,
          "durationTicks": 48,
          "midi": 77,
          "name": "F5",
          "ticks": 49128,
          "time": 180.61755675,
          "velocity": 1
        },
        {
          "duration": 0.17647049999999354,
          "durationTicks": 48,
          "midi": 69,
          "name": "A4",
          "ticks": 49128,
          "time": 180.61755675,
          "velocity": 1
        },
        {
          "duration": 0.17647049999999354,
          "durationTicks": 48,
          "midi": 81,
          "name": "A5",
          "ticks": 49128,
          "time": 180.61755675,
          "velocity": 1
        },
        {
          "duration": 0.17647049999999354,
          "durationTicks": 48,
          "midi": 77,
          "name": "F5",
          "ticks": 49176,
          "time": 180.79402725,
          "velocity": 1
        },
        {
          "duration": 0.17647049999999354,
          "durationTicks": 48,
          "midi": 81,
          "name": "A5",
          "ticks": 49176,
          "time": 180.79402725,
          "velocity": 1
        },
        {
          "duration": 0.17647050000002196,
          "durationTicks": 48,
          "midi": 81,
          "name": "A5",
          "ticks": 49224,
          "time": 180.97049775,
          "velocity": 1
        },
        {
          "duration": 0.17647050000002196,
          "durationTicks": 48,
          "midi": 84,
          "name": "C6",
          "ticks": 49224,
          "time": 180.97049775,
          "velocity": 1
        },
        {
          "duration": 0.17647049999999354,
          "durationTicks": 48,
          "midi": 77,
          "name": "F5",
          "ticks": 49272,
          "time": 181.14696825000001,
          "velocity": 1
        },
        {
          "duration": 0.17647049999999354,
          "durationTicks": 48,
          "midi": 81,
          "name": "A5",
          "ticks": 49272,
          "time": 181.14696825000001,
          "velocity": 1
        },
        {
          "duration": 0.17647049999999354,
          "durationTicks": 48,
          "midi": 81,
          "name": "A5",
          "ticks": 49320,
          "time": 181.32343875,
          "velocity": 1
        },
        {
          "duration": 0.17647049999999354,
          "durationTicks": 48,
          "midi": 84,
          "name": "C6",
          "ticks": 49320,
          "time": 181.32343875,
          "velocity": 1
        },
        {
          "duration": 0.17647049999999354,
          "durationTicks": 48,
          "midi": 81,
          "name": "A5",
          "ticks": 49368,
          "time": 181.49990925,
          "velocity": 1
        },
        {
          "duration": 0.17647049999999354,
          "durationTicks": 48,
          "midi": 86,
          "name": "D6",
          "ticks": 49368,
          "time": 181.49990925,
          "velocity": 1
        },
        {
          "duration": 0.17647050000002196,
          "durationTicks": 48,
          "midi": 77,
          "name": "F5",
          "ticks": 49464,
          "time": 181.85285025,
          "velocity": 1
        },
        {
          "duration": 0.17647050000002196,
          "durationTicks": 48,
          "midi": 81,
          "name": "A5",
          "ticks": 49464,
          "time": 181.85285025,
          "velocity": 1
        },
        {
          "duration": 0.17647049999999354,
          "durationTicks": 48,
          "midi": 81,
          "name": "A5",
          "ticks": 49512,
          "time": 182.02932075,
          "velocity": 1
        },
        {
          "duration": 0.17647049999999354,
          "durationTicks": 48,
          "midi": 84,
          "name": "C6",
          "ticks": 49512,
          "time": 182.02932075,
          "velocity": 1
        },
        {
          "duration": 0.17647049999999354,
          "durationTicks": 48,
          "midi": 74,
          "name": "D5",
          "ticks": 49512,
          "time": 182.02932075,
          "velocity": 1
        },
        {
          "duration": 0.17647049999999354,
          "durationTicks": 48,
          "midi": 81,
          "name": "A5",
          "ticks": 49560,
          "time": 182.20579125,
          "velocity": 1
        },
        {
          "duration": 0.17647049999999354,
          "durationTicks": 48,
          "midi": 86,
          "name": "D6",
          "ticks": 49560,
          "time": 182.20579125,
          "velocity": 1
        },
        {
          "duration": 0.17647050000002196,
          "durationTicks": 48,
          "midi": 77,
          "name": "F5",
          "ticks": 49656,
          "time": 182.55873225,
          "velocity": 1
        },
        {
          "duration": 0.17647050000002196,
          "durationTicks": 48,
          "midi": 81,
          "name": "A5",
          "ticks": 49656,
          "time": 182.55873225,
          "velocity": 1
        },
        {
          "duration": 0.17647049999999354,
          "durationTicks": 48,
          "midi": 77,
          "name": "F5",
          "ticks": 49704,
          "time": 182.73520275,
          "velocity": 1
        },
        {
          "duration": 0.17647049999999354,
          "durationTicks": 48,
          "midi": 84,
          "name": "C6",
          "ticks": 49704,
          "time": 182.73520275,
          "velocity": 1
        },
        {
          "duration": 0.35294099999998707,
          "durationTicks": 96,
          "midi": 79,
          "name": "G5",
          "ticks": 49704,
          "time": 182.73520275,
          "velocity": 1
        },
        {
          "duration": 0.17647049999999354,
          "durationTicks": 48,
          "midi": 81,
          "name": "A5",
          "ticks": 49752,
          "time": 182.91167325,
          "velocity": 1
        },
        {
          "duration": 0.17647049999999354,
          "durationTicks": 48,
          "midi": 86,
          "name": "D6",
          "ticks": 49752,
          "time": 182.91167325,
          "velocity": 1
        },
        {
          "duration": 0.17647049999999354,
          "durationTicks": 48,
          "midi": 84,
          "name": "C6",
          "ticks": 49800,
          "time": 183.08814375,
          "velocity": 1
        },
        {
          "duration": 0.17647049999999354,
          "durationTicks": 48,
          "midi": 89,
          "name": "F6",
          "ticks": 49800,
          "time": 183.08814375,
          "velocity": 1
        },
        {
          "duration": 0.3529410000000155,
          "durationTicks": 96,
          "midi": 81,
          "name": "A5",
          "ticks": 49800,
          "time": 183.08814375,
          "velocity": 1
        },
        {
          "duration": 0.17647050000002196,
          "durationTicks": 48,
          "midi": 84,
          "name": "C6",
          "ticks": 49848,
          "time": 183.26461425,
          "velocity": 1
        },
        {
          "duration": 0.17647050000002196,
          "durationTicks": 48,
          "midi": 88,
          "name": "E6",
          "ticks": 49848,
          "time": 183.26461425,
          "velocity": 1
        },
        {
          "duration": 0.17647049999999354,
          "durationTicks": 48,
          "midi": 89,
          "name": "F6",
          "ticks": 49896,
          "time": 183.44108475000002,
          "velocity": 1
        },
        {
          "duration": 0.17647049999999354,
          "durationTicks": 48,
          "midi": 81,
          "name": "A5",
          "ticks": 49944,
          "time": 183.61755525,
          "velocity": 1
        },
        {
          "duration": 0.17647049999999354,
          "durationTicks": 48,
          "midi": 84,
          "name": "C6",
          "ticks": 49944,
          "time": 183.61755525,
          "velocity": 1
        },
        {
          "duration": 0.17647049999999354,
          "durationTicks": 48,
          "midi": 84,
          "name": "C6",
          "ticks": 49992,
          "time": 183.79402575,
          "velocity": 1
        },
        {
          "duration": 0.17647049999999354,
          "durationTicks": 48,
          "midi": 89,
          "name": "F6",
          "ticks": 49992,
          "time": 183.79402575,
          "velocity": 1
        },
        {
          "duration": 0.17647049999999354,
          "durationTicks": 48,
          "midi": 86,
          "name": "D6",
          "ticks": 49992,
          "time": 183.79402575,
          "velocity": 1
        },
        {
          "duration": 0.17647049999999354,
          "durationTicks": 48,
          "midi": 81,
          "name": "A5",
          "ticks": 50040,
          "time": 183.97049625,
          "velocity": 1
        },
        {
          "duration": 0.17647049999999354,
          "durationTicks": 48,
          "midi": 88,
          "name": "E6",
          "ticks": 50040,
          "time": 183.97049625,
          "velocity": 1
        },
        {
          "duration": 0.17647049999999354,
          "durationTicks": 48,
          "midi": 84,
          "name": "C6",
          "ticks": 50040,
          "time": 183.97049625,
          "velocity": 1
        },
        {
          "duration": 0.17647050000002196,
          "durationTicks": 48,
          "midi": 74,
          "name": "D5",
          "ticks": 50088,
          "time": 184.14696675,
          "velocity": 1
        },
        {
          "duration": 0.17647049999999354,
          "durationTicks": 48,
          "midi": 81,
          "name": "A5",
          "ticks": 50136,
          "time": 184.32343725,
          "velocity": 1
        },
        {
          "duration": 0.17647049999999354,
          "durationTicks": 48,
          "midi": 84,
          "name": "C6",
          "ticks": 50136,
          "time": 184.32343725,
          "velocity": 1
        },
        {
          "duration": 0.17647049999999354,
          "durationTicks": 48,
          "midi": 84,
          "name": "C6",
          "ticks": 50184,
          "time": 184.49990775,
          "velocity": 1
        },
        {
          "duration": 0.17647049999999354,
          "durationTicks": 48,
          "midi": 89,
          "name": "F6",
          "ticks": 50184,
          "time": 184.49990775,
          "velocity": 1
        },
        {
          "duration": 0.17647049999999354,
          "durationTicks": 48,
          "midi": 86,
          "name": "D6",
          "ticks": 50184,
          "time": 184.49990775,
          "velocity": 1
        },
        {
          "duration": 0.17647049999999354,
          "durationTicks": 48,
          "midi": 88,
          "name": "E6",
          "ticks": 50232,
          "time": 184.67637825,
          "velocity": 1
        },
        {
          "duration": 0.17647049999999354,
          "durationTicks": 48,
          "midi": 84,
          "name": "C6",
          "ticks": 50232,
          "time": 184.67637825,
          "velocity": 1
        },
        {
          "duration": 0.17647050000002196,
          "durationTicks": 48,
          "midi": 89,
          "name": "F6",
          "ticks": 50280,
          "time": 184.85284875,
          "velocity": 1
        },
        {
          "duration": 0.17647049999999354,
          "durationTicks": 48,
          "midi": 81,
          "name": "A5",
          "ticks": 50328,
          "time": 185.02931925000001,
          "velocity": 1
        },
        {
          "duration": 0.17647049999999354,
          "durationTicks": 48,
          "midi": 84,
          "name": "C6",
          "ticks": 50328,
          "time": 185.02931925000001,
          "velocity": 1
        },
        {
          "duration": 0.17647049999999354,
          "durationTicks": 48,
          "midi": 84,
          "name": "C6",
          "ticks": 50376,
          "time": 185.20578975,
          "velocity": 1
        },
        {
          "duration": 0.17647049999999354,
          "durationTicks": 48,
          "midi": 89,
          "name": "F6",
          "ticks": 50376,
          "time": 185.20578975,
          "velocity": 1
        },
        {
          "duration": 0.35294099999998707,
          "durationTicks": 96,
          "midi": 84,
          "name": "C6",
          "ticks": 50424,
          "time": 185.38226025,
          "velocity": 1
        },
        {
          "duration": 0.35294099999998707,
          "durationTicks": 96,
          "midi": 88,
          "name": "E6",
          "ticks": 50424,
          "time": 185.38226025,
          "velocity": 1
        },
        {
          "duration": 0.17647049999999354,
          "durationTicks": 48,
          "midi": 86,
          "name": "D6",
          "ticks": 50472,
          "time": 185.55873075,
          "velocity": 1
        },
        {
          "duration": 0.17647050000002196,
          "durationTicks": 48,
          "midi": 84,
          "name": "C6",
          "ticks": 50520,
          "time": 185.73520125,
          "velocity": 1
        },
        {
          "duration": 0.17647049999999354,
          "durationTicks": 48,
          "midi": 81,
          "name": "A5",
          "ticks": 50568,
          "time": 185.91167175,
          "velocity": 1
        },
        {
          "duration": 0.17647049999999354,
          "durationTicks": 48,
          "midi": 86,
          "name": "D6",
          "ticks": 50568,
          "time": 185.91167175,
          "velocity": 1
        },
        {
          "duration": 0.17647049999999354,
          "durationTicks": 48,
          "midi": 86,
          "name": "D6",
          "ticks": 50664,
          "time": 186.26461275,
          "velocity": 1
        },
        {
          "duration": 0.3529410000000155,
          "durationTicks": 96,
          "midi": 81,
          "name": "A5",
          "ticks": 50664,
          "time": 186.26461275,
          "velocity": 1
        },
        {
          "duration": 0.17647050000002196,
          "durationTicks": 48,
          "midi": 79,
          "name": "G5",
          "ticks": 50712,
          "time": 186.44108325,
          "velocity": 1
        },
        {
          "duration": 0.17647050000002196,
          "durationTicks": 48,
          "midi": 84,
          "name": "C6",
          "ticks": 50712,
          "time": 186.44108325,
          "velocity": 1
        },
        {
          "duration": 0.17647049999999354,
          "durationTicks": 48,
          "midi": 77,
          "name": "F5",
          "ticks": 50760,
          "time": 186.61755375,
          "velocity": 1
        },
        {
          "duration": 0.17647049999999354,
          "durationTicks": 48,
          "midi": 81,
          "name": "A5",
          "ticks": 50760,
          "time": 186.61755375,
          "velocity": 1
        },
        {
          "duration": 0.17647049999999354,
          "durationTicks": 48,
          "midi": 74,
          "name": "D5",
          "ticks": 50760,
          "time": 186.61755375,
          "velocity": 1
        },
        {
          "duration": 0.17647049999999354,
          "durationTicks": 48,
          "midi": 74,
          "name": "D5",
          "ticks": 50808,
          "time": 186.79402425,
          "velocity": 1
        },
        {
          "duration": 0.17647049999999354,
          "durationTicks": 48,
          "midi": 79,
          "name": "G5",
          "ticks": 50808,
          "time": 186.79402425,
          "velocity": 1
        },
        {
          "duration": 0.3529410000000155,
          "durationTicks": 96,
          "midi": 74,
          "name": "D5",
          "ticks": 50856,
          "time": 186.97049475,
          "velocity": 1
        },
        {
          "duration": 0.3529410000000155,
          "durationTicks": 96,
          "midi": 77,
          "name": "F5",
          "ticks": 50856,
          "time": 186.97049475,
          "velocity": 1
        },
        {
          "duration": 0.35294099999998707,
          "durationTicks": 96,
          "midi": 69,
          "name": "A4",
          "ticks": 50952,
          "time": 187.32343575000002,
          "velocity": 1
        },
        {
          "duration": 0.35294099999998707,
          "durationTicks": 96,
          "midi": 74,
          "name": "D5",
          "ticks": 50952,
          "time": 187.32343575000002,
          "velocity": 1
        },
        {
          "duration": 0.35294099999998707,
          "durationTicks": 96,
          "midi": 74,
          "name": "D5",
          "ticks": 51048,
          "time": 187.67637675,
          "velocity": 1
        },
        {
          "duration": 0.35294099999998707,
          "durationTicks": 96,
          "midi": 77,
          "name": "F5",
          "ticks": 51048,
          "time": 187.67637675,
          "velocity": 1
        },
        {
          "duration": 0.35294099999998707,
          "durationTicks": 96,
          "midi": 69,
          "name": "A4",
          "ticks": 51048,
          "time": 187.67637675,
          "velocity": 1
        },
        {
          "duration": 0.3529410000000155,
          "durationTicks": 96,
          "midi": 77,
          "name": "F5",
          "ticks": 51144,
          "time": 188.02931775,
          "velocity": 1
        },
        {
          "duration": 0.3529410000000155,
          "durationTicks": 96,
          "midi": 81,
          "name": "A5",
          "ticks": 51144,
          "time": 188.02931775,
          "velocity": 1
        },
        {
          "duration": 0.35294099999998707,
          "durationTicks": 96,
          "midi": 84,
          "name": "C6",
          "ticks": 51240,
          "time": 188.38225875,
          "velocity": 1
        },
        {
          "duration": 0.35294099999998707,
          "durationTicks": 96,
          "midi": 79,
          "name": "G5",
          "ticks": 51240,
          "time": 188.38225875,
          "velocity": 1
        },
        {
          "duration": 0.3529410000000155,
          "durationTicks": 96,
          "midi": 77,
          "name": "F5",
          "ticks": 51336,
          "time": 188.73519975,
          "velocity": 1
        },
        {
          "duration": 0.3529410000000155,
          "durationTicks": 96,
          "midi": 81,
          "name": "A5",
          "ticks": 51336,
          "time": 188.73519975,
          "velocity": 1
        },
        {
          "duration": 0.35294099999998707,
          "durationTicks": 96,
          "midi": 84,
          "name": "C6",
          "ticks": 51432,
          "time": 189.08814075,
          "velocity": 1
        },
        {
          "duration": 0.35294099999998707,
          "durationTicks": 96,
          "midi": 81,
          "name": "A5",
          "ticks": 51432,
          "time": 189.08814075,
          "velocity": 1
        },
        {
          "duration": 0.3529410000000155,
          "durationTicks": 96,
          "midi": 77,
          "name": "F5",
          "ticks": 51528,
          "time": 189.44108175,
          "velocity": 1
        },
        {
          "duration": 0.3529410000000155,
          "durationTicks": 96,
          "midi": 81,
          "name": "A5",
          "ticks": 51528,
          "time": 189.44108175,
          "velocity": 1
        },
        {
          "duration": 0.3529410000000155,
          "durationTicks": 96,
          "midi": 86,
          "name": "D6",
          "ticks": 51528,
          "time": 189.44108175,
          "velocity": 1
        },
        {
          "duration": 0.17647049999999354,
          "durationTicks": 48,
          "midi": 57,
          "name": "A3",
          "ticks": 51624,
          "time": 189.79402275,
          "velocity": 1
        },
        {
          "duration": 0.17647049999999354,
          "durationTicks": 48,
          "midi": 50,
          "name": "D3",
          "ticks": 51624,
          "time": 189.79402275,
          "velocity": 1
        },
        {
          "duration": 0.17647049999999354,
          "durationTicks": 48,
          "midi": 62,
          "name": "D4",
          "ticks": 51624,
          "time": 189.79402275,
          "velocity": 1
        },
        {
          "duration": 0.17647049999999354,
          "durationTicks": 48,
          "midi": 57,
          "name": "A3",
          "ticks": 51696,
          "time": 190.0587285,
          "velocity": 1
        },
        {
          "duration": 0.08823524999999677,
          "durationTicks": 24,
          "midi": 50,
          "name": "D3",
          "ticks": 51696,
          "time": 190.0587285,
          "velocity": 1
        },
        {
          "duration": 0.17647049999999354,
          "durationTicks": 48,
          "midi": 62,
          "name": "D4",
          "ticks": 51696,
          "time": 190.0587285,
          "velocity": 1
        },
        {
          "duration": 0.17647050000002196,
          "durationTicks": 48,
          "midi": 57,
          "name": "A3",
          "ticks": 51768,
          "time": 190.32343425,
          "velocity": 1
        },
        {
          "duration": 0.17647050000002196,
          "durationTicks": 48,
          "midi": 50,
          "name": "D3",
          "ticks": 51768,
          "time": 190.32343425,
          "velocity": 1
        },
        {
          "duration": 0.17647050000002196,
          "durationTicks": 48,
          "midi": 62,
          "name": "D4",
          "ticks": 51768,
          "time": 190.32343425,
          "velocity": 1
        },
        {
          "duration": 0.17647049999999354,
          "durationTicks": 48,
          "midi": 53,
          "name": "F3",
          "ticks": 51816,
          "time": 190.49990475,
          "velocity": 1
        },
        {
          "duration": 0.17647049999999354,
          "durationTicks": 48,
          "midi": 65,
          "name": "F4",
          "ticks": 51816,
          "time": 190.49990475,
          "velocity": 1
        },
        {
          "duration": 0.17647049999999354,
          "durationTicks": 48,
          "midi": 57,
          "name": "A3",
          "ticks": 51864,
          "time": 190.67637525,
          "velocity": 1
        },
        {
          "duration": 0.17647049999999354,
          "durationTicks": 48,
          "midi": 50,
          "name": "D3",
          "ticks": 51864,
          "time": 190.67637525,
          "velocity": 1
        },
        {
          "duration": 0.17647049999999354,
          "durationTicks": 48,
          "midi": 62,
          "name": "D4",
          "ticks": 51864,
          "time": 190.67637525,
          "velocity": 1
        },
        {
          "duration": 0.17647049999999354,
          "durationTicks": 48,
          "midi": 53,
          "name": "F3",
          "ticks": 51912,
          "time": 190.85284575,
          "velocity": 1
        },
        {
          "duration": 0.17647049999999354,
          "durationTicks": 48,
          "midi": 65,
          "name": "F4",
          "ticks": 51912,
          "time": 190.85284575,
          "velocity": 1
        },
        {
          "duration": 0.17647050000002196,
          "durationTicks": 48,
          "midi": 65,
          "name": "F4",
          "ticks": 51960,
          "time": 191.02931625,
          "velocity": 1
        },
        {
          "duration": 0.17647050000002196,
          "durationTicks": 48,
          "midi": 57,
          "name": "A3",
          "ticks": 51960,
          "time": 191.02931625,
          "velocity": 1
        },
        {
          "duration": 0.17647050000002196,
          "durationTicks": 48,
          "midi": 69,
          "name": "A4",
          "ticks": 51960,
          "time": 191.02931625,
          "velocity": 1
        },
        {
          "duration": 0.17647049999999354,
          "durationTicks": 48,
          "midi": 65,
          "name": "F4",
          "ticks": 52008,
          "time": 191.20578675000002,
          "velocity": 1
        },
        {
          "duration": 0.17647049999999354,
          "durationTicks": 48,
          "midi": 58,
          "name": "A#3",
          "ticks": 52008,
          "time": 191.20578675000002,
          "velocity": 1
        },
        {
          "duration": 0.17647049999999354,
          "durationTicks": 48,
          "midi": 70,
          "name": "A#4",
          "ticks": 52008,
          "time": 191.20578675000002,
          "velocity": 1
        },
        {
          "duration": 0.17647049999999354,
          "durationTicks": 48,
          "midi": 65,
          "name": "F4",
          "ticks": 52080,
          "time": 191.4704925,
          "velocity": 1
        },
        {
          "duration": 0.08823524999999677,
          "durationTicks": 24,
          "midi": 58,
          "name": "A#3",
          "ticks": 52080,
          "time": 191.4704925,
          "velocity": 1
        },
        {
          "duration": 0.17647049999999354,
          "durationTicks": 48,
          "midi": 70,
          "name": "A#4",
          "ticks": 52080,
          "time": 191.4704925,
          "velocity": 1
        },
        {
          "duration": 0.17647049999999354,
          "durationTicks": 48,
          "midi": 65,
          "name": "F4",
          "ticks": 52152,
          "time": 191.73519825,
          "velocity": 1
        },
        {
          "duration": 0.17647049999999354,
          "durationTicks": 48,
          "midi": 58,
          "name": "A#3",
          "ticks": 52152,
          "time": 191.73519825,
          "velocity": 1
        },
        {
          "duration": 0.17647049999999354,
          "durationTicks": 48,
          "midi": 70,
          "name": "A#4",
          "ticks": 52152,
          "time": 191.73519825,
          "velocity": 1
        },
        {
          "duration": 0.17647050000002196,
          "durationTicks": 48,
          "midi": 65,
          "name": "F4",
          "ticks": 52200,
          "time": 191.91166875,
          "velocity": 1
        },
        {
          "duration": 0.17647050000002196,
          "durationTicks": 48,
          "midi": 57,
          "name": "A3",
          "ticks": 52200,
          "time": 191.91166875,
          "velocity": 1
        },
        {
          "duration": 0.17647050000002196,
          "durationTicks": 48,
          "midi": 69,
          "name": "A4",
          "ticks": 52200,
          "time": 191.91166875,
          "velocity": 1
        },
        {
          "duration": 0.17647049999999354,
          "durationTicks": 48,
          "midi": 65,
          "name": "F4",
          "ticks": 52248,
          "time": 192.08813925,
          "velocity": 1
        },
        {
          "duration": 0.17647049999999354,
          "durationTicks": 48,
          "midi": 58,
          "name": "A#3",
          "ticks": 52248,
          "time": 192.08813925,
          "velocity": 1
        },
        {
          "duration": 0.17647049999999354,
          "durationTicks": 48,
          "midi": 70,
          "name": "A#4",
          "ticks": 52248,
          "time": 192.08813925,
          "velocity": 1
        },
        {
          "duration": 0.17647049999999354,
          "durationTicks": 48,
          "midi": 65,
          "name": "F4",
          "ticks": 52296,
          "time": 192.26460975,
          "velocity": 1
        },
        {
          "duration": 0.17647049999999354,
          "durationTicks": 48,
          "midi": 69,
          "name": "A4",
          "ticks": 52296,
          "time": 192.26460975,
          "velocity": 1
        },
        {
          "duration": 0.17647049999999354,
          "durationTicks": 48,
          "midi": 53,
          "name": "F3",
          "ticks": 52344,
          "time": 192.44108025,
          "velocity": 1
        },
        {
          "duration": 0.17647049999999354,
          "durationTicks": 48,
          "midi": 65,
          "name": "F4",
          "ticks": 52344,
          "time": 192.44108025,
          "velocity": 1
        },
        {
          "duration": 0.17647050000002196,
          "durationTicks": 48,
          "midi": 57,
          "name": "A3",
          "ticks": 52392,
          "time": 192.61755075,
          "velocity": 1
        },
        {
          "duration": 0.17647050000002196,
          "durationTicks": 48,
          "midi": 50,
          "name": "D3",
          "ticks": 52392,
          "time": 192.61755075,
          "velocity": 1
        },
        {
          "duration": 0.17647050000002196,
          "durationTicks": 48,
          "midi": 62,
          "name": "D4",
          "ticks": 52392,
          "time": 192.61755075,
          "velocity": 1
        },
        {
          "duration": 0.17647049999999354,
          "durationTicks": 48,
          "midi": 57,
          "name": "A3",
          "ticks": 52464,
          "time": 192.8822565,
          "velocity": 1
        },
        {
          "duration": 0.08823524999999677,
          "durationTicks": 24,
          "midi": 50,
          "name": "D3",
          "ticks": 52464,
          "time": 192.8822565,
          "velocity": 1
        },
        {
          "duration": 0.17647049999999354,
          "durationTicks": 48,
          "midi": 62,
          "name": "D4",
          "ticks": 52464,
          "time": 192.8822565,
          "velocity": 1
        },
        {
          "duration": 0.17647049999999354,
          "durationTicks": 48,
          "midi": 57,
          "name": "A3",
          "ticks": 52536,
          "time": 193.14696225,
          "velocity": 1
        },
        {
          "duration": 0.17647049999999354,
          "durationTicks": 48,
          "midi": 50,
          "name": "D3",
          "ticks": 52536,
          "time": 193.14696225,
          "velocity": 1
        },
        {
          "duration": 0.17647049999999354,
          "durationTicks": 48,
          "midi": 62,
          "name": "D4",
          "ticks": 52536,
          "time": 193.14696225,
          "velocity": 1
        },
        {
          "duration": 0.17647049999999354,
          "durationTicks": 48,
          "midi": 60,
          "name": "C4",
          "ticks": 52584,
          "time": 193.32343275,
          "velocity": 1
        },
        {
          "duration": 0.17647049999999354,
          "durationTicks": 48,
          "midi": 53,
          "name": "F3",
          "ticks": 52584,
          "time": 193.32343275,
          "velocity": 1
        },
        {
          "duration": 0.17647049999999354,
          "durationTicks": 48,
          "midi": 65,
          "name": "F4",
          "ticks": 52584,
          "time": 193.32343275,
          "velocity": 1
        },
        {
          "duration": 0.17647050000002196,
          "durationTicks": 48,
          "midi": 57,
          "name": "A3",
          "ticks": 52632,
          "time": 193.49990325,
          "velocity": 1
        },
        {
          "duration": 0.17647050000002196,
          "durationTicks": 48,
          "midi": 50,
          "name": "D3",
          "ticks": 52632,
          "time": 193.49990325,
          "velocity": 1
        },
        {
          "duration": 0.17647050000002196,
          "durationTicks": 48,
          "midi": 62,
          "name": "D4",
          "ticks": 52632,
          "time": 193.49990325,
          "velocity": 1
        },
        {
          "duration": 0.17647049999999354,
          "durationTicks": 48,
          "midi": 60,
          "name": "C4",
          "ticks": 52680,
          "time": 193.67637375,
          "velocity": 1
        },
        {
          "duration": 0.17647049999999354,
          "durationTicks": 48,
          "midi": 53,
          "name": "F3",
          "ticks": 52680,
          "time": 193.67637375,
          "velocity": 1
        },
        {
          "duration": 0.17647049999999354,
          "durationTicks": 48,
          "midi": 65,
          "name": "F4",
          "ticks": 52680,
          "time": 193.67637375,
          "velocity": 1
        },
        {
          "duration": 0.17647049999999354,
          "durationTicks": 48,
          "midi": 65,
          "name": "F4",
          "ticks": 52728,
          "time": 193.85284425,
          "velocity": 1
        },
        {
          "duration": 0.17647049999999354,
          "durationTicks": 48,
          "midi": 57,
          "name": "A3",
          "ticks": 52728,
          "time": 193.85284425,
          "velocity": 1
        },
        {
          "duration": 0.17647049999999354,
          "durationTicks": 48,
          "midi": 69,
          "name": "A4",
          "ticks": 52728,
          "time": 193.85284425,
          "velocity": 1
        },
        {
          "duration": 0.17647049999999354,
          "durationTicks": 48,
          "midi": 65,
          "name": "F4",
          "ticks": 52776,
          "time": 194.02931475,
          "velocity": 1
        },
        {
          "duration": 0.17647049999999354,
          "durationTicks": 48,
          "midi": 58,
          "name": "A#3",
          "ticks": 52776,
          "time": 194.02931475,
          "velocity": 1
        },
        {
          "duration": 0.17647049999999354,
          "durationTicks": 48,
          "midi": 70,
          "name": "A#4",
          "ticks": 52776,
          "time": 194.02931475,
          "velocity": 1
        },
        {
          "duration": 0.17647049999999354,
          "durationTicks": 48,
          "midi": 65,
          "name": "F4",
          "ticks": 52848,
          "time": 194.29402050000002,
          "velocity": 1
        },
        {
          "duration": 0.08823524999999677,
          "durationTicks": 24,
          "midi": 58,
          "name": "A#3",
          "ticks": 52848,
          "time": 194.29402050000002,
          "velocity": 1
        },
        {
          "duration": 0.17647049999999354,
          "durationTicks": 48,
          "midi": 70,
          "name": "A#4",
          "ticks": 52848,
          "time": 194.29402050000002,
          "velocity": 1
        },
        {
          "duration": 0.17647049999999354,
          "durationTicks": 48,
          "midi": 65,
          "name": "F4",
          "ticks": 52920,
          "time": 194.55872625,
          "velocity": 1
        },
        {
          "duration": 0.17647049999999354,
          "durationTicks": 48,
          "midi": 58,
          "name": "A#3",
          "ticks": 52920,
          "time": 194.55872625,
          "velocity": 1
        },
        {
          "duration": 0.17647049999999354,
          "durationTicks": 48,
          "midi": 70,
          "name": "A#4",
          "ticks": 52920,
          "time": 194.55872625,
          "velocity": 1
        },
        {
          "duration": 0.17647049999999354,
          "durationTicks": 48,
          "midi": 65,
          "name": "F4",
          "ticks": 52968,
          "time": 194.73519675,
          "velocity": 1
        },
        {
          "duration": 0.17647049999999354,
          "durationTicks": 48,
          "midi": 57,
          "name": "A3",
          "ticks": 52968,
          "time": 194.73519675,
          "velocity": 1
        },
        {
          "duration": 0.17647049999999354,
          "durationTicks": 48,
          "midi": 69,
          "name": "A4",
          "ticks": 52968,
          "time": 194.73519675,
          "velocity": 1
        },
        {
          "duration": 0.17647050000002196,
          "durationTicks": 48,
          "midi": 65,
          "name": "F4",
          "ticks": 53016,
          "time": 194.91166725,
          "velocity": 1
        },
        {
          "duration": 0.17647050000002196,
          "durationTicks": 48,
          "midi": 58,
          "name": "A#3",
          "ticks": 53016,
          "time": 194.91166725,
          "velocity": 1
        },
        {
          "duration": 0.17647050000002196,
          "durationTicks": 48,
          "midi": 70,
          "name": "A#4",
          "ticks": 53016,
          "time": 194.91166725,
          "velocity": 1
        },
        {
          "duration": 0.17647049999999354,
          "durationTicks": 48,
          "midi": 65,
          "name": "F4",
          "ticks": 53064,
          "time": 195.08813775000002,
          "velocity": 1
        },
        {
          "duration": 0.17647049999999354,
          "durationTicks": 48,
          "midi": 69,
          "name": "A4",
          "ticks": 53064,
          "time": 195.08813775000002,
          "velocity": 1
        },
        {
          "duration": 0.17647049999999354,
          "durationTicks": 48,
          "midi": 69,
          "name": "A4",
          "ticks": 53112,
          "time": 195.26460825,
          "velocity": 1
        },
        {
          "duration": 0.17647049999999354,
          "durationTicks": 48,
          "midi": 61,
          "name": "C#4",
          "ticks": 53112,
          "time": 195.26460825,
          "velocity": 1
        },
        {
          "duration": 0.17647049999999354,
          "durationTicks": 48,
          "midi": 73,
          "name": "C#5",
          "ticks": 53112,
          "time": 195.26460825,
          "velocity": 1
        },
        {
          "duration": 0.17647049999999354,
          "durationTicks": 48,
          "midi": 69,
          "name": "A4",
          "ticks": 53160,
          "time": 195.44107875,
          "velocity": 1
        },
        {
          "duration": 0.17647049999999354,
          "durationTicks": 48,
          "midi": 62,
          "name": "D4",
          "ticks": 53160,
          "time": 195.44107875,
          "velocity": 1
        },
        {
          "duration": 0.17647049999999354,
          "durationTicks": 48,
          "midi": 74,
          "name": "D5",
          "ticks": 53160,
          "time": 195.44107875,
          "velocity": 1
        },
        {
          "duration": 0.17647050000002196,
          "durationTicks": 48,
          "midi": 69,
          "name": "A4",
          "ticks": 53232,
          "time": 195.7057845,
          "velocity": 1
        },
        {
          "duration": 0.17647050000002196,
          "durationTicks": 48,
          "midi": 62,
          "name": "D4",
          "ticks": 53232,
          "time": 195.7057845,
          "velocity": 1
        },
        {
          "duration": 0.17647050000002196,
          "durationTicks": 48,
          "midi": 74,
          "name": "D5",
          "ticks": 53232,
          "time": 195.7057845,
          "velocity": 1
        },
        {
          "duration": 0.17647049999999354,
          "durationTicks": 48,
          "midi": 69,
          "name": "A4",
          "ticks": 53304,
          "time": 195.97049025,
          "velocity": 1
        },
        {
          "duration": 0.17647049999999354,
          "durationTicks": 48,
          "midi": 62,
          "name": "D4",
          "ticks": 53304,
          "time": 195.97049025,
          "velocity": 1
        },
        {
          "duration": 0.17647049999999354,
          "durationTicks": 48,
          "midi": 74,
          "name": "D5",
          "ticks": 53304,
          "time": 195.97049025,
          "velocity": 1
        },
        {
          "duration": 0.17647049999999354,
          "durationTicks": 48,
          "midi": 72,
          "name": "C5",
          "ticks": 53352,
          "time": 196.14696075,
          "velocity": 1
        },
        {
          "duration": 0.17647049999999354,
          "durationTicks": 48,
          "midi": 65,
          "name": "F4",
          "ticks": 53352,
          "time": 196.14696075,
          "velocity": 1
        },
        {
          "duration": 0.17647049999999354,
          "durationTicks": 48,
          "midi": 77,
          "name": "F5",
          "ticks": 53352,
          "time": 196.14696075,
          "velocity": 1
        },
        {
          "duration": 0.17647049999999354,
          "durationTicks": 48,
          "midi": 69,
          "name": "A4",
          "ticks": 53400,
          "time": 196.32343125,
          "velocity": 1
        },
        {
          "duration": 0.17647049999999354,
          "durationTicks": 48,
          "midi": 62,
          "name": "D4",
          "ticks": 53400,
          "time": 196.32343125,
          "velocity": 1
        },
        {
          "duration": 0.17647049999999354,
          "durationTicks": 48,
          "midi": 74,
          "name": "D5",
          "ticks": 53400,
          "time": 196.32343125,
          "velocity": 1
        },
        {
          "duration": 0.17647050000002196,
          "durationTicks": 48,
          "midi": 72,
          "name": "C5",
          "ticks": 53448,
          "time": 196.49990175,
          "velocity": 1
        },
        {
          "duration": 0.17647050000002196,
          "durationTicks": 48,
          "midi": 65,
          "name": "F4",
          "ticks": 53448,
          "time": 196.49990175,
          "velocity": 1
        },
        {
          "duration": 0.17647050000002196,
          "durationTicks": 48,
          "midi": 77,
          "name": "F5",
          "ticks": 53448,
          "time": 196.49990175,
          "velocity": 1
        },
        {
          "duration": 0.17647049999999354,
          "durationTicks": 48,
          "midi": 77,
          "name": "F5",
          "ticks": 53496,
          "time": 196.67637225000001,
          "velocity": 1
        },
        {
          "duration": 0.17647049999999354,
          "durationTicks": 48,
          "midi": 69,
          "name": "A4",
          "ticks": 53496,
          "time": 196.67637225000001,
          "velocity": 1
        },
        {
          "duration": 0.17647049999999354,
          "durationTicks": 48,
          "midi": 81,
          "name": "A5",
          "ticks": 53496,
          "time": 196.67637225000001,
          "velocity": 1
        },
        {
          "duration": 0.17647049999999354,
          "durationTicks": 48,
          "midi": 77,
          "name": "F5",
          "ticks": 53544,
          "time": 196.85284275,
          "velocity": 1
        },
        {
          "duration": 0.17647049999999354,
          "durationTicks": 48,
          "midi": 70,
          "name": "A#4",
          "ticks": 53544,
          "time": 196.85284275,
          "velocity": 1
        },
        {
          "duration": 0.17647049999999354,
          "durationTicks": 48,
          "midi": 82,
          "name": "A#5",
          "ticks": 53544,
          "time": 196.85284275,
          "velocity": 1
        },
        {
          "duration": 0.17647049999999354,
          "durationTicks": 48,
          "midi": 77,
          "name": "F5",
          "ticks": 53616,
          "time": 197.1175485,
          "velocity": 1
        },
        {
          "duration": 0.08823524999999677,
          "durationTicks": 24,
          "midi": 70,
          "name": "A#4",
          "ticks": 53616,
          "time": 197.1175485,
          "velocity": 1
        },
        {
          "duration": 0.17647049999999354,
          "durationTicks": 48,
          "midi": 82,
          "name": "A#5",
          "ticks": 53616,
          "time": 197.1175485,
          "velocity": 1
        },
        {
          "duration": 0.17647049999999354,
          "durationTicks": 48,
          "midi": 77,
          "name": "F5",
          "ticks": 53688,
          "time": 197.38225425000002,
          "velocity": 1
        },
        {
          "duration": 0.17647049999999354,
          "durationTicks": 48,
          "midi": 70,
          "name": "A#4",
          "ticks": 53688,
          "time": 197.38225425000002,
          "velocity": 1
        },
        {
          "duration": 0.17647049999999354,
          "durationTicks": 48,
          "midi": 82,
          "name": "A#5",
          "ticks": 53688,
          "time": 197.38225425000002,
          "velocity": 1
        },
        {
          "duration": 0.17647049999999354,
          "durationTicks": 48,
          "midi": 77,
          "name": "F5",
          "ticks": 53736,
          "time": 197.55872475,
          "velocity": 1
        },
        {
          "duration": 0.17647049999999354,
          "durationTicks": 48,
          "midi": 69,
          "name": "A4",
          "ticks": 53736,
          "time": 197.55872475,
          "velocity": 1
        },
        {
          "duration": 0.17647049999999354,
          "durationTicks": 48,
          "midi": 81,
          "name": "A5",
          "ticks": 53736,
          "time": 197.55872475,
          "velocity": 1
        },
        {
          "duration": 0.17647049999999354,
          "durationTicks": 48,
          "midi": 77,
          "name": "F5",
          "ticks": 53784,
          "time": 197.73519525,
          "velocity": 1
        },
        {
          "duration": 0.17647049999999354,
          "durationTicks": 48,
          "midi": 70,
          "name": "A#4",
          "ticks": 53784,
          "time": 197.73519525,
          "velocity": 1
        },
        {
          "duration": 0.17647049999999354,
          "durationTicks": 48,
          "midi": 82,
          "name": "A#5",
          "ticks": 53784,
          "time": 197.73519525,
          "velocity": 1
        },
        {
          "duration": 0.17647049999999354,
          "durationTicks": 48,
          "midi": 77,
          "name": "F5",
          "ticks": 53832,
          "time": 197.91166575,
          "velocity": 1
        },
        {
          "duration": 0.17647049999999354,
          "durationTicks": 48,
          "midi": 81,
          "name": "A5",
          "ticks": 53832,
          "time": 197.91166575,
          "velocity": 1
        },
        {
          "duration": 0.17647050000002196,
          "durationTicks": 48,
          "midi": 72,
          "name": "C5",
          "ticks": 53880,
          "time": 198.08813625,
          "velocity": 1
        },
        {
          "duration": 0.17647050000002196,
          "durationTicks": 48,
          "midi": 65,
          "name": "F4",
          "ticks": 53880,
          "time": 198.08813625,
          "velocity": 1
        },
        {
          "duration": 0.17647050000002196,
          "durationTicks": 48,
          "midi": 77,
          "name": "F5",
          "ticks": 53880,
          "time": 198.08813625,
          "velocity": 1
        },
        {
          "duration": 0.7058820000000026,
          "durationTicks": 192,
          "midi": 82,
          "name": "A#5",
          "ticks": 53928,
          "time": 198.26460675,
          "velocity": 1
        },
        {
          "duration": 0.7058820000000026,
          "durationTicks": 192,
          "midi": 79,
          "name": "G5",
          "ticks": 53928,
          "time": 198.26460675,
          "velocity": 1
        },
        {
          "duration": 0.7058820000000026,
          "durationTicks": 192,
          "midi": 86,
          "name": "D6",
          "ticks": 53928,
          "time": 198.26460675,
          "velocity": 1
        },
        {
          "duration": 0.7058820000000026,
          "durationTicks": 192,
          "midi": 91,
          "name": "G6",
          "ticks": 53928,
          "time": 198.26460675,
          "velocity": 1
        },
        {
          "duration": 0.17647049999999354,
          "durationTicks": 48,
          "midi": 77,
          "name": "F5",
          "ticks": 54168,
          "time": 199.14695925,
          "velocity": 1
        },
        {
          "duration": 0.17647049999999354,
          "durationTicks": 48,
          "midi": 84,
          "name": "C6",
          "ticks": 54168,
          "time": 199.14695925,
          "velocity": 1
        },
        {
          "duration": 0.17647049999999354,
          "durationTicks": 48,
          "midi": 89,
          "name": "F6",
          "ticks": 54168,
          "time": 199.14695925,
          "velocity": 1
        },
        {
          "duration": 0.17647049999999354,
          "durationTicks": 48,
          "midi": 77,
          "name": "F5",
          "ticks": 54216,
          "time": 199.32342975,
          "velocity": 1
        },
        {
          "duration": 0.17647049999999354,
          "durationTicks": 48,
          "midi": 89,
          "name": "F6",
          "ticks": 54216,
          "time": 199.32342975,
          "velocity": 1
        },
        {
          "duration": 0.17647049999999354,
          "durationTicks": 48,
          "midi": 84,
          "name": "C6",
          "ticks": 54216,
          "time": 199.32342975,
          "velocity": 1
        },
        {
          "duration": 0.17647049999999354,
          "durationTicks": 48,
          "midi": 81,
          "name": "A5",
          "ticks": 54264,
          "time": 199.49990025,
          "velocity": 1
        },
        {
          "duration": 0.17647049999999354,
          "durationTicks": 48,
          "midi": 93,
          "name": "A6",
          "ticks": 54264,
          "time": 199.49990025,
          "velocity": 1
        },
        {
          "duration": 0.17647049999999354,
          "durationTicks": 48,
          "midi": 89,
          "name": "F6",
          "ticks": 54264,
          "time": 199.49990025,
          "velocity": 1
        },
        {
          "duration": 0.529411500000009,
          "durationTicks": 144,
          "midi": 82,
          "name": "A#5",
          "ticks": 54312,
          "time": 199.67637075,
          "velocity": 1
        },
        {
          "duration": 0.529411500000009,
          "durationTicks": 144,
          "midi": 79,
          "name": "G5",
          "ticks": 54312,
          "time": 199.67637075,
          "velocity": 1
        },
        {
          "duration": 0.529411500000009,
          "durationTicks": 144,
          "midi": 86,
          "name": "D6",
          "ticks": 54312,
          "time": 199.67637075,
          "velocity": 1
        },
        {
          "duration": 0.529411500000009,
          "durationTicks": 144,
          "midi": 91,
          "name": "G6",
          "ticks": 54312,
          "time": 199.67637075,
          "velocity": 1
        },
        {
          "duration": 0.17647049999999354,
          "durationTicks": 48,
          "midi": 80,
          "name": "G#5",
          "ticks": 54456,
          "time": 200.20578225,
          "velocity": 1
        },
        {
          "duration": 0.17647049999999354,
          "durationTicks": 48,
          "midi": 92,
          "name": "G#6",
          "ticks": 54456,
          "time": 200.20578225,
          "velocity": 1
        },
        {
          "duration": 0.17647049999999354,
          "durationTicks": 48,
          "midi": 86,
          "name": "D6",
          "ticks": 54456,
          "time": 200.20578225,
          "velocity": 1
        },
        {
          "duration": 0.17647050000002196,
          "durationTicks": 48,
          "midi": 81,
          "name": "A5",
          "ticks": 54504,
          "time": 200.38225275,
          "velocity": 1
        },
        {
          "duration": 0.17647050000002196,
          "durationTicks": 48,
          "midi": 93,
          "name": "A6",
          "ticks": 54504,
          "time": 200.38225275,
          "velocity": 1
        },
        {
          "duration": 0.17647050000002196,
          "durationTicks": 48,
          "midi": 89,
          "name": "F6",
          "ticks": 54504,
          "time": 200.38225275,
          "velocity": 1
        },
        {
          "duration": 0.17647050000002196,
          "durationTicks": 48,
          "midi": 86,
          "name": "D6",
          "ticks": 54504,
          "time": 200.38225275,
          "velocity": 1
        },
        {
          "duration": 0.17647049999999354,
          "durationTicks": 48,
          "midi": 81,
          "name": "A5",
          "ticks": 54552,
          "time": 200.55872325,
          "velocity": 1
        },
        {
          "duration": 0.17647049999999354,
          "durationTicks": 48,
          "midi": 93,
          "name": "A6",
          "ticks": 54552,
          "time": 200.55872325,
          "velocity": 1
        },
        {
          "duration": 0.17647049999999354,
          "durationTicks": 48,
          "midi": 89,
          "name": "F6",
          "ticks": 54552,
          "time": 200.55872325,
          "velocity": 1
        },
        {
          "duration": 0.17647049999999354,
          "durationTicks": 48,
          "midi": 86,
          "name": "D6",
          "ticks": 54552,
          "time": 200.55872325,
          "velocity": 1
        },
        {
          "duration": 0.17647049999999354,
          "durationTicks": 48,
          "midi": 91,
          "name": "G6",
          "ticks": 54600,
          "time": 200.73519375,
          "velocity": 1
        },
        {
          "duration": 0.17647049999999354,
          "durationTicks": 48,
          "midi": 84,
          "name": "C6",
          "ticks": 54600,
          "time": 200.73519375,
          "velocity": 1
        },
        {
          "duration": 0.17647049999999354,
          "durationTicks": 48,
          "midi": 96,
          "name": "C7",
          "ticks": 54600,
          "time": 200.73519375,
          "velocity": 1
        },
        {
          "duration": 0.17647049999999354,
          "durationTicks": 48,
          "midi": 89,
          "name": "F6",
          "ticks": 54648,
          "time": 200.91166425,
          "velocity": 1
        },
        {
          "duration": 0.17647049999999354,
          "durationTicks": 48,
          "midi": 85,
          "name": "C#6",
          "ticks": 54648,
          "time": 200.91166425,
          "velocity": 1
        },
        {
          "duration": 0.17647049999999354,
          "durationTicks": 48,
          "midi": 97,
          "name": "C#7",
          "ticks": 54648,
          "time": 200.91166425,
          "velocity": 1
        },
        {
          "duration": 0.17647049999999354,
          "durationTicks": 48,
          "midi": 93,
          "name": "A6",
          "ticks": 54648,
          "time": 200.91166425,
          "velocity": 1
        },
        {
          "duration": 0.1727940312500209,
          "durationTicks": 47,
          "midi": 89,
          "name": "F6",
          "ticks": 54696,
          "time": 201.08813475,
          "velocity": 1
        },
        {
          "duration": 0.1727940312500209,
          "durationTicks": 47,
          "midi": 93,
          "name": "A6",
          "ticks": 54696,
          "time": 201.08813475,
          "velocity": 1
        },
        {
          "duration": 0.1727940312500209,
          "durationTicks": 47,
          "midi": 86,
          "name": "D6",
          "ticks": 54696,
          "time": 201.08813475,
          "velocity": 1
        },
        {
          "duration": 0.1727940312500209,
          "durationTicks": 47,
          "midi": 98,
          "name": "D7",
          "ticks": 54696,
          "time": 201.08813475,
          "velocity": 1
        }
      ],
      "endOfTrackTicks": 54907
    },
    {
      "channel": 0,
      "controlChanges": {
        "6": [
          {
            "number": 6,
            "ticks": 0,
            "time": 0,
            "value": 0.09448818897637795
          },
          {
            "number": 6,
            "ticks": 0,
            "time": 0,
            "value": 0.09448818897637795
          },
          {
            "number": 6,
            "ticks": 0,
            "time": 0,
            "value": 0.09448818897637795
          },
          {
            "number": 6,
            "ticks": 54744,
            "time": 201.26460525000002,
            "value": 0.09448818897637795
          },
          {
            "number": 6,
            "ticks": 54907,
            "time": 201.86386965625,
            "value": 0.09448818897637795
          }
        ],
        "7": [
          {
            "number": 7,
            "ticks": 0,
            "time": 0,
            "value": 0.7874015748031497
          },
          {
            "number": 7,
            "ticks": 0,
            "time": 0,
            "value": 0.7874015748031497
          },
          {
            "number": 7,
            "ticks": 0,
            "time": 0,
            "value": 0.7874015748031497
          },
          {
            "number": 7,
            "ticks": 0,
            "time": 0,
            "value": 0.7874015748031497
          },
          {
            "number": 7,
            "ticks": 54744,
            "time": 201.26460525000002,
            "value": 0.7874015748031497
          },
          {
            "number": 7,
            "ticks": 54907,
            "time": 201.86386965625,
            "value": 0.7874015748031497
          }
        ],
        "10": [
          {
            "number": 10,
            "ticks": 0,
            "time": 0,
            "value": 0.5039370078740157
          },
          {
            "number": 10,
            "ticks": 0,
            "time": 0,
            "value": 0.5039370078740157
          },
          {
            "number": 10,
            "ticks": 0,
            "time": 0,
            "value": 0.5039370078740157
          },
          {
            "number": 10,
            "ticks": 0,
            "time": 0,
            "value": 0.5039370078740157
          },
          {
            "number": 10,
            "ticks": 54744,
            "time": 201.26460525000002,
            "value": 0.5039370078740157
          },
          {
            "number": 10,
            "ticks": 54907,
            "time": 201.86386965625,
            "value": 0.5039370078740157
          }
        ],
        "100": [
          {
            "number": 100,
            "ticks": 0,
            "time": 0,
            "value": 0
          },
          {
            "number": 100,
            "ticks": 0,
            "time": 0,
            "value": 0
          },
          {
            "number": 100,
            "ticks": 0,
            "time": 0,
            "value": 0
          },
          {
            "number": 100,
            "ticks": 54744,
            "time": 201.26460525000002,
            "value": 0
          },
          {
            "number": 100,
            "ticks": 54907,
            "time": 201.86386965625,
            "value": 0
          }
        ],
        "101": [
          {
            "number": 101,
            "ticks": 0,
            "time": 0,
            "value": 0
          },
          {
            "number": 101,
            "ticks": 0,
            "time": 0,
            "value": 0
          },
          {
            "number": 101,
            "ticks": 0,
            "time": 0,
            "value": 0
          },
          {
            "number": 101,
            "ticks": 54744,
            "time": 201.26460525000002,
            "value": 0
          },
          {
            "number": 101,
            "ticks": 54907,
            "time": 201.86386965625,
            "value": 0
          }
        ]
      },
      "pitchBends": [
        {
          "ticks": 0,
          "time": 0,
          "value": 0
        },
        {
          "ticks": 0,
          "time": 0,
          "value": 0
        },
        {
          "ticks": 0,
          "time": 0,
          "value": 0
        },
        {
          "ticks": 0,
          "time": 0,
          "value": 0
        },
        {
          "ticks": 54744,
          "time": 201.26460525000002,
          "value": 0
        },
        {
          "ticks": 54907,
          "time": 201.86386965625,
          "value": 0
        }
      ],
      "instrument": {
        "family": "piano",
        "number": 0,
        "name": "acoustic grand piano"
      },
      "name": "MIDI Out #2",
      "notes": [
        {
          "duration": 0.44117625,
          "durationTicks": 120,
          "midi": 61,
          "name": "C#4",
          "ticks": 0,
          "time": 0,
          "velocity": 1
        },
        {
          "duration": 0.17647050000000003,
          "durationTicks": 48,
          "midi": 62,
          "name": "D4",
          "ticks": 120,
          "time": 0.44117625,
          "velocity": 1
        },
        {
          "duration": 0.17647049999999997,
          "durationTicks": 48,
          "midi": 63,
          "name": "D#4",
          "ticks": 168,
          "time": 0.61764675,
          "velocity": 1
        },
        {
          "duration": 0.17647049999999997,
          "durationTicks": 48,
          "midi": 62,
          "name": "D4",
          "ticks": 216,
          "time": 0.79411725,
          "velocity": 1
        },
        {
          "duration": 0.17647049999999997,
          "durationTicks": 48,
          "midi": 63,
          "name": "D#4",
          "ticks": 264,
          "time": 0.97058775,
          "velocity": 1
        },
        {
          "duration": 0.17647049999999997,
          "durationTicks": 48,
          "midi": 62,
          "name": "D4",
          "ticks": 312,
          "time": 1.14705825,
          "velocity": 1
        },
        {
          "duration": 0.1764705000000002,
          "durationTicks": 48,
          "midi": 63,
          "name": "D#4",
          "ticks": 360,
          "time": 1.32352875,
          "velocity": 1
        },
        {
          "duration": 0.17647049999999997,
          "durationTicks": 48,
          "midi": 62,
          "name": "D4",
          "ticks": 408,
          "time": 1.4999992500000001,
          "velocity": 1
        },
        {
          "duration": 0.17647049999999997,
          "durationTicks": 48,
          "midi": 63,
          "name": "D#4",
          "ticks": 456,
          "time": 1.67646975,
          "velocity": 1
        },
        {
          "duration": 0.17647049999999975,
          "durationTicks": 48,
          "midi": 62,
          "name": "D4",
          "ticks": 504,
          "time": 1.85294025,
          "velocity": 1
        },
        {
          "duration": 0.3529410000000004,
          "durationTicks": 96,
          "midi": 63,
          "name": "D#4",
          "ticks": 552,
          "time": 2.02941075,
          "velocity": 1
        },
        {
          "duration": 0.17647049999999975,
          "durationTicks": 48,
          "midi": 56,
          "name": "G#3",
          "ticks": 648,
          "time": 2.38235175,
          "velocity": 1
        },
        {
          "duration": 0.1764705000000002,
          "durationTicks": 48,
          "midi": 59,
          "name": "B3",
          "ticks": 696,
          "time": 2.55882225,
          "velocity": 1
        },
        {
          "duration": 0.1764705000000002,
          "durationTicks": 48,
          "midi": 61,
          "name": "C#4",
          "ticks": 792,
          "time": 2.91176325,
          "velocity": 1
        },
        {
          "duration": 0.1764705000000002,
          "durationTicks": 48,
          "midi": 63,
          "name": "D#4",
          "ticks": 888,
          "time": 3.26470425,
          "velocity": 1
        },
        {
          "duration": 0.17647049999999975,
          "durationTicks": 48,
          "midi": 62,
          "name": "D4",
          "ticks": 984,
          "time": 3.6176452500000003,
          "velocity": 1
        },
        {
          "duration": 0.1764705000000002,
          "durationTicks": 48,
          "midi": 63,
          "name": "D#4",
          "ticks": 1032,
          "time": 3.79411575,
          "velocity": 1
        },
        {
          "duration": 0.17647049999999975,
          "durationTicks": 48,
          "midi": 62,
          "name": "D4",
          "ticks": 1080,
          "time": 3.97058625,
          "velocity": 1
        },
        {
          "duration": 0.17647049999999975,
          "durationTicks": 48,
          "midi": 63,
          "name": "D#4",
          "ticks": 1128,
          "time": 4.14705675,
          "velocity": 1
        },
        {
          "duration": 0.17647050000000064,
          "durationTicks": 48,
          "midi": 62,
          "name": "D4",
          "ticks": 1176,
          "time": 4.32352725,
          "velocity": 1
        },
        {
          "duration": 0.17647049999999975,
          "durationTicks": 48,
          "midi": 63,
          "name": "D#4",
          "ticks": 1224,
          "time": 4.49999775,
          "velocity": 1
        },
        {
          "duration": 0.17647049999999975,
          "durationTicks": 48,
          "midi": 62,
          "name": "D4",
          "ticks": 1272,
          "time": 4.67646825,
          "velocity": 1
        },
        {
          "duration": 0.17647050000000064,
          "durationTicks": 48,
          "midi": 68,
          "name": "G#4",
          "ticks": 1320,
          "time": 4.85293875,
          "velocity": 1
        },
        {
          "duration": 0.17647049999999975,
          "durationTicks": 48,
          "midi": 66,
          "name": "F#4",
          "ticks": 1368,
          "time": 5.0294092500000005,
          "velocity": 1
        },
        {
          "duration": 0.17647049999999975,
          "durationTicks": 48,
          "midi": 62,
          "name": "D4",
          "ticks": 1464,
          "time": 5.38235025,
          "velocity": 1
        },
        {
          "duration": 0.17647050000000064,
          "durationTicks": 48,
          "midi": 62,
          "name": "D4",
          "ticks": 1512,
          "time": 5.55882075,
          "velocity": 1
        },
        {
          "duration": 0.17647049999999975,
          "durationTicks": 48,
          "midi": 62,
          "name": "D4",
          "ticks": 1560,
          "time": 5.73529125,
          "velocity": 1
        },
        {
          "duration": 0.17647049999999975,
          "durationTicks": 48,
          "midi": 61,
          "name": "C#4",
          "ticks": 1608,
          "time": 5.91176175,
          "velocity": 1
        },
        {
          "duration": 0.17647049999999975,
          "durationTicks": 48,
          "midi": 59,
          "name": "B3",
          "ticks": 1656,
          "time": 6.08823225,
          "velocity": 1
        },
        {
          "duration": 0.17647050000000064,
          "durationTicks": 48,
          "midi": 63,
          "name": "D#4",
          "ticks": 1704,
          "time": 6.26470275,
          "velocity": 1
        },
        {
          "duration": 0.17647049999999975,
          "durationTicks": 48,
          "midi": 62,
          "name": "D4",
          "ticks": 1752,
          "time": 6.44117325,
          "velocity": 1
        },
        {
          "duration": 0.17647049999999975,
          "durationTicks": 48,
          "midi": 63,
          "name": "D#4",
          "ticks": 1800,
          "time": 6.61764375,
          "velocity": 1
        },
        {
          "duration": 0.17647050000000064,
          "durationTicks": 48,
          "midi": 62,
          "name": "D4",
          "ticks": 1848,
          "time": 6.79411425,
          "velocity": 1
        },
        {
          "duration": 0.17647049999999975,
          "durationTicks": 48,
          "midi": 63,
          "name": "D#4",
          "ticks": 1896,
          "time": 6.97058475,
          "velocity": 1
        },
        {
          "duration": 0.17647049999999975,
          "durationTicks": 48,
          "midi": 62,
          "name": "D4",
          "ticks": 1944,
          "time": 7.14705525,
          "velocity": 1
        },
        {
          "duration": 0.17647049999999975,
          "durationTicks": 48,
          "midi": 63,
          "name": "D#4",
          "ticks": 1992,
          "time": 7.32352575,
          "velocity": 1
        },
        {
          "duration": 0.17647050000000064,
          "durationTicks": 48,
          "midi": 62,
          "name": "D4",
          "ticks": 2040,
          "time": 7.49999625,
          "velocity": 1
        },
        {
          "duration": 0.17647049999999975,
          "durationTicks": 48,
          "midi": 63,
          "name": "D#4",
          "ticks": 2088,
          "time": 7.67646675,
          "velocity": 1
        },
        {
          "duration": 0.17647050000000064,
          "durationTicks": 48,
          "midi": 62,
          "name": "D4",
          "ticks": 2136,
          "time": 7.85293725,
          "velocity": 1
        },
        {
          "duration": 0.17647049999999886,
          "durationTicks": 48,
          "midi": 62,
          "name": "D4",
          "ticks": 2184,
          "time": 8.02940775,
          "velocity": 1
        },
        {
          "duration": 0.17647050000000064,
          "durationTicks": 48,
          "midi": 63,
          "name": "D#4",
          "ticks": 2232,
          "time": 8.20587825,
          "velocity": 1
        },
        {
          "duration": 0.17647049999999886,
          "durationTicks": 48,
          "midi": 62,
          "name": "D4",
          "ticks": 2328,
          "time": 8.55881925,
          "velocity": 1
        },
        {
          "duration": 0.17647050000000064,
          "durationTicks": 48,
          "midi": 63,
          "name": "D#4",
          "ticks": 2376,
          "time": 8.73528975,
          "velocity": 1
        },
        {
          "duration": 0.3529409999999995,
          "durationTicks": 96,
          "midi": 59,
          "name": "B3",
          "ticks": 2424,
          "time": 8.91176025,
          "velocity": 1
        },
        {
          "duration": 0.17647050000000064,
          "durationTicks": 48,
          "midi": 56,
          "name": "G#3",
          "ticks": 2520,
          "time": 9.26470125,
          "velocity": 1
        },
        {
          "duration": 0.17647050000000064,
          "durationTicks": 48,
          "midi": 56,
          "name": "G#3",
          "ticks": 2808,
          "time": 10.32352425,
          "velocity": 1
        },
        {
          "duration": 0.17647049999999886,
          "durationTicks": 48,
          "midi": 59,
          "name": "B3",
          "ticks": 2856,
          "time": 10.49999475,
          "velocity": 1
        },
        {
          "duration": 0.17647050000000064,
          "durationTicks": 48,
          "midi": 61,
          "name": "C#4",
          "ticks": 2904,
          "time": 10.67646525,
          "velocity": 1
        },
        {
          "duration": 0.17647050000000064,
          "durationTicks": 48,
          "midi": 62,
          "name": "D4",
          "ticks": 2952,
          "time": 10.85293575,
          "velocity": 1
        },
        {
          "duration": 0.3529409999999995,
          "durationTicks": 96,
          "midi": 63,
          "name": "D#4",
          "ticks": 3000,
          "time": 11.029406250000001,
          "velocity": 1
        },
        {
          "duration": 0.17647049999999886,
          "durationTicks": 48,
          "midi": 56,
          "name": "G#3",
          "ticks": 3096,
          "time": 11.38234725,
          "velocity": 1
        },
        {
          "duration": 0.17647050000000064,
          "durationTicks": 48,
          "midi": 62,
          "name": "D4",
          "ticks": 3192,
          "time": 11.73528825,
          "velocity": 1
        },
        {
          "duration": 0.17647049999999886,
          "durationTicks": 48,
          "midi": 63,
          "name": "D#4",
          "ticks": 3240,
          "time": 11.91175875,
          "velocity": 1
        },
        {
          "duration": 0.17647050000000064,
          "durationTicks": 48,
          "midi": 62,
          "name": "D4",
          "ticks": 3288,
          "time": 12.08822925,
          "velocity": 1
        },
        {
          "duration": 0.17647050000000064,
          "durationTicks": 48,
          "midi": 63,
          "name": "D#4",
          "ticks": 3336,
          "time": 12.26469975,
          "velocity": 1
        },
        {
          "duration": 0.17647049999999886,
          "durationTicks": 48,
          "midi": 62,
          "name": "D4",
          "ticks": 3384,
          "time": 12.44117025,
          "velocity": 1
        },
        {
          "duration": 0.17647050000000064,
          "durationTicks": 48,
          "midi": 63,
          "name": "D#4",
          "ticks": 3432,
          "time": 12.61764075,
          "velocity": 1
        },
        {
          "duration": 0.17647050000000064,
          "durationTicks": 48,
          "midi": 62,
          "name": "D4",
          "ticks": 3480,
          "time": 12.79411125,
          "velocity": 1
        },
        {
          "duration": 0.17647049999999886,
          "durationTicks": 48,
          "midi": 63,
          "name": "D#4",
          "ticks": 3528,
          "time": 12.970581750000001,
          "velocity": 1
        },
        {
          "duration": 0.17647050000000064,
          "durationTicks": 48,
          "midi": 62,
          "name": "D4",
          "ticks": 3576,
          "time": 13.14705225,
          "velocity": 1
        },
        {
          "duration": 0.3529409999999995,
          "durationTicks": 96,
          "midi": 63,
          "name": "D#4",
          "ticks": 3624,
          "time": 13.32352275,
          "velocity": 1
        },
        {
          "duration": 0.17647050000000064,
          "durationTicks": 48,
          "midi": 56,
          "name": "G#3",
          "ticks": 3720,
          "time": 13.67646375,
          "velocity": 1
        },
        {
          "duration": 0.17647049999999886,
          "durationTicks": 48,
          "midi": 59,
          "name": "B3",
          "ticks": 3768,
          "time": 13.85293425,
          "velocity": 1
        },
        {
          "duration": 0.17647050000000064,
          "durationTicks": 48,
          "midi": 61,
          "name": "C#4",
          "ticks": 3864,
          "time": 14.20587525,
          "velocity": 1
        },
        {
          "duration": 0.17647050000000064,
          "durationTicks": 48,
          "midi": 63,
          "name": "D#4",
          "ticks": 3960,
          "time": 14.55881625,
          "velocity": 1
        },
        {
          "duration": 0.17647049999999886,
          "durationTicks": 48,
          "midi": 62,
          "name": "D4",
          "ticks": 4056,
          "time": 14.91175725,
          "velocity": 1
        },
        {
          "duration": 0.17647050000000064,
          "durationTicks": 48,
          "midi": 63,
          "name": "D#4",
          "ticks": 4104,
          "time": 15.08822775,
          "velocity": 1
        },
        {
          "duration": 0.17647050000000064,
          "durationTicks": 48,
          "midi": 62,
          "name": "D4",
          "ticks": 4152,
          "time": 15.26469825,
          "velocity": 1
        },
        {
          "duration": 0.17647049999999886,
          "durationTicks": 48,
          "midi": 63,
          "name": "D#4",
          "ticks": 4200,
          "time": 15.441168750000001,
          "velocity": 1
        },
        {
          "duration": 0.17647050000000064,
          "durationTicks": 48,
          "midi": 63,
          "name": "D#4",
          "ticks": 4248,
          "time": 15.61763925,
          "velocity": 1
        },
        {
          "duration": 0.17647049999999886,
          "durationTicks": 48,
          "midi": 63,
          "name": "D#4",
          "ticks": 4296,
          "time": 15.79410975,
          "velocity": 1
        },
        {
          "duration": 0.17647050000000242,
          "durationTicks": 48,
          "midi": 63,
          "name": "D#4",
          "ticks": 4344,
          "time": 15.97058025,
          "velocity": 1
        },
        {
          "duration": 0.1764704999999971,
          "durationTicks": 48,
          "midi": 68,
          "name": "G#4",
          "ticks": 4392,
          "time": 16.147050750000002,
          "velocity": 1
        },
        {
          "duration": 0.17647050000000064,
          "durationTicks": 48,
          "midi": 66,
          "name": "F#4",
          "ticks": 4440,
          "time": 16.32352125,
          "velocity": 1
        },
        {
          "duration": 0.17647050000000064,
          "durationTicks": 48,
          "midi": 62,
          "name": "D4",
          "ticks": 4536,
          "time": 16.67646225,
          "velocity": 1
        },
        {
          "duration": 0.17647050000000064,
          "durationTicks": 48,
          "midi": 62,
          "name": "D4",
          "ticks": 4584,
          "time": 16.85293275,
          "velocity": 1
        },
        {
          "duration": 0.1764704999999971,
          "durationTicks": 48,
          "midi": 62,
          "name": "D4",
          "ticks": 4632,
          "time": 17.02940325,
          "velocity": 1
        },
        {
          "duration": 0.17647050000000064,
          "durationTicks": 48,
          "midi": 61,
          "name": "C#4",
          "ticks": 4680,
          "time": 17.20587375,
          "velocity": 1
        },
        {
          "duration": 0.17647050000000064,
          "durationTicks": 48,
          "midi": 59,
          "name": "B3",
          "ticks": 4728,
          "time": 17.38234425,
          "velocity": 1
        },
        {
          "duration": 0.17647050000000064,
          "durationTicks": 48,
          "midi": 63,
          "name": "D#4",
          "ticks": 4776,
          "time": 17.55881475,
          "velocity": 1
        },
        {
          "duration": 0.17647050000000064,
          "durationTicks": 48,
          "midi": 62,
          "name": "D4",
          "ticks": 4824,
          "time": 17.73528525,
          "velocity": 1
        },
        {
          "duration": 0.17647050000000064,
          "durationTicks": 48,
          "midi": 63,
          "name": "D#4",
          "ticks": 4872,
          "time": 17.91175575,
          "velocity": 1
        },
        {
          "duration": 0.1764704999999971,
          "durationTicks": 48,
          "midi": 62,
          "name": "D4",
          "ticks": 4920,
          "time": 18.08822625,
          "velocity": 1
        },
        {
          "duration": 0.17647050000000064,
          "durationTicks": 48,
          "midi": 63,
          "name": "D#4",
          "ticks": 4968,
          "time": 18.26469675,
          "velocity": 1
        },
        {
          "duration": 0.17647050000000064,
          "durationTicks": 48,
          "midi": 62,
          "name": "D4",
          "ticks": 5016,
          "time": 18.44116725,
          "velocity": 1
        },
        {
          "duration": 0.17647050000000064,
          "durationTicks": 48,
          "midi": 63,
          "name": "D#4",
          "ticks": 5064,
          "time": 18.61763775,
          "velocity": 1
        },
        {
          "duration": 0.3529410000000013,
          "durationTicks": 96,
          "midi": 63,
          "name": "D#4",
          "ticks": 5112,
          "time": 18.79410825,
          "velocity": 1
        },
        {
          "duration": 0.1764704999999971,
          "durationTicks": 48,
          "midi": 62,
          "name": "D4",
          "ticks": 5208,
          "time": 19.147049250000002,
          "velocity": 1
        },
        {
          "duration": 0.17647050000000064,
          "durationTicks": 48,
          "midi": 62,
          "name": "D4",
          "ticks": 5256,
          "time": 19.32351975,
          "velocity": 1
        },
        {
          "duration": 0.17647050000000064,
          "durationTicks": 48,
          "midi": 63,
          "name": "D#4",
          "ticks": 5304,
          "time": 19.49999025,
          "velocity": 1
        },
        {
          "duration": 0.17647050000000064,
          "durationTicks": 48,
          "midi": 62,
          "name": "D4",
          "ticks": 5400,
          "time": 19.85293125,
          "velocity": 1
        },
        {
          "duration": 0.1764704999999971,
          "durationTicks": 48,
          "midi": 63,
          "name": "D#4",
          "ticks": 5448,
          "time": 20.02940175,
          "velocity": 1
        },
        {
          "duration": 0.3529410000000013,
          "durationTicks": 96,
          "midi": 59,
          "name": "B3",
          "ticks": 5496,
          "time": 20.20587225,
          "velocity": 1
        },
        {
          "duration": 0.17647050000000064,
          "durationTicks": 48,
          "midi": 56,
          "name": "G#3",
          "ticks": 5592,
          "time": 20.55881325,
          "velocity": 1
        },
        {
          "duration": 0.17647050000000064,
          "durationTicks": 48,
          "midi": 59,
          "name": "B3",
          "ticks": 5880,
          "time": 21.61763625,
          "velocity": 1
        },
        {
          "duration": 0.35294099999999773,
          "durationTicks": 96,
          "midi": 61,
          "name": "C#4",
          "ticks": 5928,
          "time": 21.79410675,
          "velocity": 1
        },
        {
          "duration": 0.3529410000000013,
          "durationTicks": 96,
          "midi": 63,
          "name": "D#4",
          "ticks": 6024,
          "time": 22.14704775,
          "velocity": 1
        },
        {
          "duration": 0.17647050000000064,
          "durationTicks": 48,
          "midi": 58,
          "name": "A#3",
          "ticks": 6120,
          "time": 22.49998875,
          "velocity": 1
        },
        {
          "duration": 0.35294099999999773,
          "durationTicks": 96,
          "midi": 54,
          "name": "F#3",
          "ticks": 6216,
          "time": 22.85292975,
          "velocity": 1
        },
        {
          "duration": 0.17647050000000064,
          "durationTicks": 48,
          "midi": 56,
          "name": "G#3",
          "ticks": 6312,
          "time": 23.20587075,
          "velocity": 1
        },
        {
          "duration": 0.17647050000000064,
          "durationTicks": 48,
          "midi": 54,
          "name": "F#3",
          "ticks": 6456,
          "time": 23.73528225,
          "velocity": 1
        },
        {
          "duration": 0.1764704999999971,
          "durationTicks": 48,
          "midi": 56,
          "name": "G#3",
          "ticks": 6504,
          "time": 23.91175275,
          "velocity": 1
        },
        {
          "duration": 0.17647050000000064,
          "durationTicks": 48,
          "midi": 63,
          "name": "D#4",
          "ticks": 6552,
          "time": 24.08822325,
          "velocity": 1
        },
        {
          "duration": 0.17647050000000064,
          "durationTicks": 48,
          "midi": 54,
          "name": "F#3",
          "ticks": 6648,
          "time": 24.44116425,
          "velocity": 1
        },
        {
          "duration": 0.17647050000000064,
          "durationTicks": 48,
          "midi": 56,
          "name": "G#3",
          "ticks": 6696,
          "time": 24.61763475,
          "velocity": 1
        },
        {
          "duration": 0.17647050000000064,
          "durationTicks": 48,
          "midi": 54,
          "name": "F#3",
          "ticks": 6744,
          "time": 24.79410525,
          "velocity": 1
        },
        {
          "duration": 0.1764704999999971,
          "durationTicks": 48,
          "midi": 56,
          "name": "G#3",
          "ticks": 6792,
          "time": 24.970575750000002,
          "velocity": 1
        },
        {
          "duration": 0.17647050000000064,
          "durationTicks": 48,
          "midi": 63,
          "name": "D#4",
          "ticks": 6840,
          "time": 25.14704625,
          "velocity": 1
        },
        {
          "duration": 0.17647050000000064,
          "durationTicks": 48,
          "midi": 63,
          "name": "D#4",
          "ticks": 6936,
          "time": 25.49998725,
          "velocity": 1
        },
        {
          "duration": 0.17647050000000064,
          "durationTicks": 48,
          "midi": 63,
          "name": "D#4",
          "ticks": 6984,
          "time": 25.67645775,
          "velocity": 1
        },
        {
          "duration": 0.1764704999999971,
          "durationTicks": 48,
          "midi": 63,
          "name": "D#4",
          "ticks": 7032,
          "time": 25.85292825,
          "velocity": 1
        },
        {
          "duration": 0.17647050000000064,
          "durationTicks": 48,
          "midi": 63,
          "name": "D#4",
          "ticks": 7080,
          "time": 26.02939875,
          "velocity": 1
        },
        {
          "duration": 0.17647050000000064,
          "durationTicks": 48,
          "midi": 56,
          "name": "G#3",
          "ticks": 7176,
          "time": 26.38233975,
          "velocity": 1
        },
        {
          "duration": 0.17647050000000064,
          "durationTicks": 48,
          "midi": 54,
          "name": "F#3",
          "ticks": 7272,
          "time": 26.73528075,
          "velocity": 1
        },
        {
          "duration": 0.1764704999999971,
          "durationTicks": 48,
          "midi": 56,
          "name": "G#3",
          "ticks": 7320,
          "time": 26.911751250000002,
          "velocity": 1
        },
        {
          "duration": 0.17647050000000064,
          "durationTicks": 48,
          "midi": 54,
          "name": "F#3",
          "ticks": 7416,
          "time": 27.26469225,
          "velocity": 1
        },
        {
          "duration": 0.17647050000000064,
          "durationTicks": 48,
          "midi": 56,
          "name": "G#3",
          "ticks": 7464,
          "time": 27.44116275,
          "velocity": 1
        },
        {
          "duration": 0.17647050000000064,
          "durationTicks": 48,
          "midi": 54,
          "name": "F#3",
          "ticks": 7512,
          "time": 27.61763325,
          "velocity": 1
        },
        {
          "duration": 0.17647050000000064,
          "durationTicks": 48,
          "midi": 56,
          "name": "G#3",
          "ticks": 7560,
          "time": 27.79410375,
          "velocity": 1
        },
        {
          "duration": 0.1764704999999971,
          "durationTicks": 48,
          "midi": 66,
          "name": "F#4",
          "ticks": 7608,
          "time": 27.970574250000002,
          "velocity": 1
        },
        {
          "duration": 0.17647050000000064,
          "durationTicks": 48,
          "midi": 66,
          "name": "F#4",
          "ticks": 7704,
          "time": 28.32351525,
          "velocity": 1
        },
        {
          "duration": 0.17647050000000064,
          "durationTicks": 48,
          "midi": 66,
          "name": "F#4",
          "ticks": 7752,
          "time": 28.49998575,
          "velocity": 1
        },
        {
          "duration": 0.17647050000000064,
          "durationTicks": 48,
          "midi": 68,
          "name": "G#4",
          "ticks": 7800,
          "time": 28.67645625,
          "velocity": 1
        },
        {
          "duration": 0.1764704999999971,
          "durationTicks": 48,
          "midi": 66,
          "name": "F#4",
          "ticks": 7848,
          "time": 28.85292675,
          "velocity": 1
        },
        {
          "duration": 0.17647050000000064,
          "durationTicks": 48,
          "midi": 61,
          "name": "C#4",
          "ticks": 7944,
          "time": 29.20586775,
          "velocity": 1
        },
        {
          "duration": 0.17647050000000064,
          "durationTicks": 48,
          "midi": 59,
          "name": "B3",
          "ticks": 8040,
          "time": 29.55880875,
          "velocity": 1
        },
        {
          "duration": 0.35294099999999773,
          "durationTicks": 96,
          "midi": 66,
          "name": "F#4",
          "ticks": 8088,
          "time": 29.73527925,
          "velocity": 1
        },
        {
          "duration": 0.17647050000000064,
          "durationTicks": 48,
          "midi": 67,
          "name": "G4",
          "ticks": 8184,
          "time": 30.08822025,
          "velocity": 1
        },
        {
          "duration": 0.17647050000000064,
          "durationTicks": 48,
          "midi": 63,
          "name": "D#4",
          "ticks": 8280,
          "time": 30.44116125,
          "velocity": 1
        },
        {
          "duration": 0.17647050000000064,
          "durationTicks": 48,
          "midi": 61,
          "name": "C#4",
          "ticks": 8328,
          "time": 30.61763175,
          "velocity": 1
        },
        {
          "duration": 0.1764704999999971,
          "durationTicks": 48,
          "midi": 59,
          "name": "B3",
          "ticks": 8376,
          "time": 30.79410225,
          "velocity": 1
        },
        {
          "duration": 0.17647050000000064,
          "durationTicks": 48,
          "midi": 59,
          "name": "B3",
          "ticks": 8472,
          "time": 31.14704325,
          "velocity": 1
        },
        {
          "duration": 0.17647050000000064,
          "durationTicks": 48,
          "midi": 61,
          "name": "C#4",
          "ticks": 8520,
          "time": 31.32351375,
          "velocity": 1
        },
        {
          "duration": 0.17647050000000064,
          "durationTicks": 48,
          "midi": 63,
          "name": "D#4",
          "ticks": 8568,
          "time": 31.49998425,
          "velocity": 1
        },
        {
          "duration": 0.17647050000000064,
          "durationTicks": 48,
          "midi": 56,
          "name": "G#3",
          "ticks": 8616,
          "time": 31.67645475,
          "velocity": 1
        },
        {
          "duration": 0.3529410000000013,
          "durationTicks": 96,
          "midi": 63,
          "name": "D#4",
          "ticks": 8712,
          "time": 32.02939575,
          "velocity": 1
        },
        {
          "duration": 0.17647050000000064,
          "durationTicks": 48,
          "midi": 61,
          "name": "C#4",
          "ticks": 8808,
          "time": 32.38233675,
          "velocity": 1
        },
        {
          "duration": 0.17647050000000064,
          "durationTicks": 48,
          "midi": 59,
          "name": "B3",
          "ticks": 8856,
          "time": 32.55880725,
          "velocity": 1
        },
        {
          "duration": 0.17647050000000064,
          "durationTicks": 48,
          "midi": 58,
          "name": "A#3",
          "ticks": 8952,
          "time": 32.91174825,
          "velocity": 1
        },
        {
          "duration": 0.17647049999999354,
          "durationTicks": 48,
          "midi": 54,
          "name": "F#3",
          "ticks": 9048,
          "time": 33.26468925,
          "velocity": 1
        },
        {
          "duration": 0.17647050000000064,
          "durationTicks": 48,
          "midi": 54,
          "name": "F#3",
          "ticks": 9096,
          "time": 33.44115975,
          "velocity": 1
        },
        {
          "duration": 0.17647050000000064,
          "durationTicks": 48,
          "midi": 54,
          "name": "F#3",
          "ticks": 9144,
          "time": 33.61763025,
          "velocity": 1
        },
        {
          "duration": 0.17647050000000064,
          "durationTicks": 48,
          "midi": 56,
          "name": "G#3",
          "ticks": 9192,
          "time": 33.79410075,
          "velocity": 1
        },
        {
          "duration": 0.3529410000000013,
          "durationTicks": 96,
          "midi": 59,
          "name": "B3",
          "ticks": 9288,
          "time": 34.14704175,
          "velocity": 1
        },
        {
          "duration": 0.17647050000000064,
          "durationTicks": 48,
          "midi": 61,
          "name": "C#4",
          "ticks": 9384,
          "time": 34.49998275,
          "velocity": 1
        },
        {
          "duration": 0.3529410000000013,
          "durationTicks": 96,
          "midi": 68,
          "name": "G#4",
          "ticks": 9432,
          "time": 34.67645325,
          "velocity": 1
        },
        {
          "duration": 0.17647050000000064,
          "durationTicks": 48,
          "midi": 61,
          "name": "C#4",
          "ticks": 9528,
          "time": 35.02939425,
          "velocity": 1
        },
        {
          "duration": 0.3529409999999942,
          "durationTicks": 96,
          "midi": 68,
          "name": "G#4",
          "ticks": 9576,
          "time": 35.20586475,
          "velocity": 1
        },
        {
          "duration": 0.17647050000000064,
          "durationTicks": 48,
          "midi": 61,
          "name": "C#4",
          "ticks": 9672,
          "time": 35.55880575,
          "velocity": 1
        },
        {
          "duration": 0.3529410000000013,
          "durationTicks": 96,
          "midi": 71,
          "name": "B4",
          "ticks": 9720,
          "time": 35.73527625,
          "velocity": 1
        },
        {
          "duration": 0.17647050000000064,
          "durationTicks": 48,
          "midi": 73,
          "name": "C#5",
          "ticks": 9816,
          "time": 36.08821725,
          "velocity": 1
        },
        {
          "duration": 0.17647050000000064,
          "durationTicks": 48,
          "midi": 68,
          "name": "G#4",
          "ticks": 9864,
          "time": 36.26468775,
          "velocity": 1
        },
        {
          "duration": 0.17647050000000064,
          "durationTicks": 48,
          "midi": 71,
          "name": "B4",
          "ticks": 9912,
          "time": 36.44115825,
          "velocity": 1
        },
        {
          "duration": 0.17647050000000064,
          "durationTicks": 48,
          "midi": 66,
          "name": "F#4",
          "ticks": 9960,
          "time": 36.61762875,
          "velocity": 1
        },
        {
          "duration": 0.17647050000000064,
          "durationTicks": 48,
          "midi": 68,
          "name": "G#4",
          "ticks": 10056,
          "time": 36.97056975,
          "velocity": 1
        },
        {
          "duration": 0.17647050000000064,
          "durationTicks": 48,
          "midi": 59,
          "name": "B3",
          "ticks": 10152,
          "time": 37.32351075,
          "velocity": 1
        },
        {
          "duration": 0.3529410000000013,
          "durationTicks": 96,
          "midi": 66,
          "name": "F#4",
          "ticks": 10200,
          "time": 37.49998125,
          "velocity": 1
        },
        {
          "duration": 0.17647050000000064,
          "durationTicks": 48,
          "midi": 59,
          "name": "B3",
          "ticks": 10296,
          "time": 37.85292225,
          "velocity": 1
        },
        {
          "duration": 0.17647050000000064,
          "durationTicks": 48,
          "midi": 66,
          "name": "F#4",
          "ticks": 10344,
          "time": 38.02939275,
          "velocity": 1
        },
        {
          "duration": 0.17647050000000064,
          "durationTicks": 48,
          "midi": 63,
          "name": "D#4",
          "ticks": 10440,
          "time": 38.38233375,
          "velocity": 1
        },
        {
          "duration": 0.17647050000000064,
          "durationTicks": 48,
          "midi": 64,
          "name": "E4",
          "ticks": 10488,
          "time": 38.55880425,
          "velocity": 1
        },
        {
          "duration": 0.17647050000000064,
          "durationTicks": 48,
          "midi": 66,
          "name": "F#4",
          "ticks": 10584,
          "time": 38.91174525,
          "velocity": 1
        },
        {
          "duration": 0.17647050000000064,
          "durationTicks": 48,
          "midi": 68,
          "name": "G#4",
          "ticks": 10632,
          "time": 39.08821575,
          "velocity": 1
        },
        {
          "duration": 0.17647049999999354,
          "durationTicks": 48,
          "midi": 73,
          "name": "C#5",
          "ticks": 10680,
          "time": 39.264686250000004,
          "velocity": 1
        },
        {
          "duration": 0.17647050000000064,
          "durationTicks": 48,
          "midi": 71,
          "name": "B4",
          "ticks": 10728,
          "time": 39.44115675,
          "velocity": 1
        },
        {
          "duration": 0.17647050000000064,
          "durationTicks": 48,
          "midi": 68,
          "name": "G#4",
          "ticks": 10776,
          "time": 39.61762725,
          "velocity": 1
        },
        {
          "duration": 0.17647050000000064,
          "durationTicks": 48,
          "midi": 66,
          "name": "F#4",
          "ticks": 10824,
          "time": 39.79409775,
          "velocity": 1
        },
        {
          "duration": 0.17647050000000064,
          "durationTicks": 48,
          "midi": 59,
          "name": "B3",
          "ticks": 10872,
          "time": 39.97056825,
          "velocity": 1
        },
        {
          "duration": 0.3529410000000013,
          "durationTicks": 96,
          "midi": 61,
          "name": "C#4",
          "ticks": 10920,
          "time": 40.14703875,
          "velocity": 1
        },
        {
          "duration": 0.3529410000000013,
          "durationTicks": 96,
          "midi": 63,
          "name": "D#4",
          "ticks": 11016,
          "time": 40.49997975,
          "velocity": 1
        },
        {
          "duration": 0.3529410000000013,
          "durationTicks": 96,
          "midi": 64,
          "name": "E4",
          "ticks": 11112,
          "time": 40.85292075,
          "velocity": 1
        },
        {
          "duration": 0.3529409999999942,
          "durationTicks": 96,
          "midi": 73,
          "name": "C#5",
          "ticks": 11208,
          "time": 41.205861750000004,
          "velocity": 1
        },
        {
          "duration": 0.3529410000000013,
          "durationTicks": 96,
          "midi": 72,
          "name": "C5",
          "ticks": 11304,
          "time": 41.55880275,
          "velocity": 1
        },
        {
          "duration": 0.3529410000000013,
          "durationTicks": 96,
          "midi": 68,
          "name": "G#4",
          "ticks": 11400,
          "time": 41.91174375,
          "velocity": 1
        },
        {
          "duration": 0.3529410000000013,
          "durationTicks": 96,
          "midi": 75,
          "name": "D#5",
          "ticks": 11496,
          "time": 42.26468475,
          "velocity": 1
        },
        {
          "duration": 0.3529410000000013,
          "durationTicks": 96,
          "midi": 76,
          "name": "E5",
          "ticks": 11592,
          "time": 42.61762575,
          "velocity": 1
        },
        {
          "duration": 0.3529409999999942,
          "durationTicks": 96,
          "midi": 75,
          "name": "D#5",
          "ticks": 11688,
          "time": 42.97056675,
          "velocity": 1
        },
        {
          "duration": 0.3529410000000013,
          "durationTicks": 96,
          "midi": 71,
          "name": "B4",
          "ticks": 11784,
          "time": 43.32350775,
          "velocity": 1
        },
        {
          "duration": 0.17647050000000064,
          "durationTicks": 48,
          "midi": 68,
          "name": "G#4",
          "ticks": 11880,
          "time": 43.67644875,
          "velocity": 1
        },
        {
          "duration": 0.17647050000000064,
          "durationTicks": 48,
          "midi": 64,
          "name": "E4",
          "ticks": 11976,
          "time": 44.02938975,
          "velocity": 1
        },
        {
          "duration": 0.17647050000000064,
          "durationTicks": 48,
          "midi": 73,
          "name": "C#5",
          "ticks": 12024,
          "time": 44.20586025,
          "velocity": 1
        },
        {
          "duration": 0.17647050000000064,
          "durationTicks": 48,
          "midi": 71,
          "name": "B4",
          "ticks": 12120,
          "time": 44.55880125,
          "velocity": 1
        },
        {
          "duration": 0.17647050000000064,
          "durationTicks": 48,
          "midi": 73,
          "name": "C#5",
          "ticks": 12168,
          "time": 44.73527175,
          "velocity": 1
        },
        {
          "duration": 0.3529409999999942,
          "durationTicks": 96,
          "midi": 68,
          "name": "G#4",
          "ticks": 12216,
          "time": 44.91174225,
          "velocity": 1
        },
        {
          "duration": 0.17647050000000064,
          "durationTicks": 48,
          "midi": 66,
          "name": "F#4",
          "ticks": 12312,
          "time": 45.26468325,
          "velocity": 1
        },
        {
          "duration": 0.17647050000000064,
          "durationTicks": 48,
          "midi": 64,
          "name": "E4",
          "ticks": 12360,
          "time": 45.44115375,
          "velocity": 1
        },
        {
          "duration": 0.3529410000000013,
          "durationTicks": 96,
          "midi": 73,
          "name": "C#5",
          "ticks": 12456,
          "time": 45.79409475,
          "velocity": 1
        },
        {
          "duration": 0.17647050000000064,
          "durationTicks": 48,
          "midi": 68,
          "name": "G#4",
          "ticks": 12600,
          "time": 46.32350625,
          "velocity": 1
        },
        {
          "duration": 0.17647050000000064,
          "durationTicks": 48,
          "midi": 71,
          "name": "B4",
          "ticks": 12648,
          "time": 46.49997675,
          "velocity": 1
        },
        {
          "duration": 0.17647050000000064,
          "durationTicks": 48,
          "midi": 73,
          "name": "C#5",
          "ticks": 12696,
          "time": 46.67644725,
          "velocity": 1
        },
        {
          "duration": 0.17647049999999354,
          "durationTicks": 48,
          "midi": 73,
          "name": "C#5",
          "ticks": 12792,
          "time": 47.029388250000004,
          "velocity": 1
        },
        {
          "duration": 0.17647050000000064,
          "durationTicks": 48,
          "midi": 71,
          "name": "B4",
          "ticks": 12840,
          "time": 47.20585875,
          "velocity": 1
        },
        {
          "duration": 0.17647050000000064,
          "durationTicks": 48,
          "midi": 68,
          "name": "G#4",
          "ticks": 12888,
          "time": 47.38232925,
          "velocity": 1
        },
        {
          "duration": 0.17647050000000064,
          "durationTicks": 48,
          "midi": 76,
          "name": "E5",
          "ticks": 12936,
          "time": 47.55879975,
          "velocity": 1
        },
        {
          "duration": 0.3529410000000013,
          "durationTicks": 96,
          "midi": 75,
          "name": "D#5",
          "ticks": 12984,
          "time": 47.73527025,
          "velocity": 1
        },
        {
          "duration": 0.17647050000000064,
          "durationTicks": 48,
          "midi": 71,
          "name": "B4",
          "ticks": 13080,
          "time": 48.08821125,
          "velocity": 1
        },
        {
          "duration": 0.17647050000000064,
          "durationTicks": 48,
          "midi": 76,
          "name": "E5",
          "ticks": 13128,
          "time": 48.26468175,
          "velocity": 1
        },
        {
          "duration": 0.17647050000000064,
          "durationTicks": 48,
          "midi": 75,
          "name": "D#5",
          "ticks": 13176,
          "time": 48.44115225,
          "velocity": 1
        },
        {
          "duration": 0.17647050000000064,
          "durationTicks": 48,
          "midi": 71,
          "name": "B4",
          "ticks": 13272,
          "time": 48.79409325,
          "velocity": 1
        },
        {
          "duration": 0.17647049999999354,
          "durationTicks": 48,
          "midi": 76,
          "name": "E5",
          "ticks": 13320,
          "time": 48.970563750000004,
          "velocity": 1
        },
        {
          "duration": 0.17647050000000064,
          "durationTicks": 48,
          "midi": 75,
          "name": "D#5",
          "ticks": 13368,
          "time": 49.14703425,
          "velocity": 1
        },
        {
          "duration": 0.17647050000000064,
          "durationTicks": 48,
          "midi": 71,
          "name": "B4",
          "ticks": 13464,
          "time": 49.49997525,
          "velocity": 1
        },
        {
          "duration": 0.17647050000000064,
          "durationTicks": 48,
          "midi": 76,
          "name": "E5",
          "ticks": 13512,
          "time": 49.67644575,
          "velocity": 1
        },
        {
          "duration": 0.3529410000000013,
          "durationTicks": 96,
          "midi": 75,
          "name": "D#5",
          "ticks": 13560,
          "time": 49.85291625,
          "velocity": 1
        },
        {
          "duration": 0.17647050000000064,
          "durationTicks": 48,
          "midi": 71,
          "name": "B4",
          "ticks": 13656,
          "time": 50.20585725,
          "velocity": 1
        },
        {
          "duration": 0.17647050000000064,
          "durationTicks": 48,
          "midi": 73,
          "name": "C#5",
          "ticks": 13704,
          "time": 50.38232775,
          "velocity": 1
        },
        {
          "duration": 0.17647050000000064,
          "durationTicks": 48,
          "midi": 73,
          "name": "C#5",
          "ticks": 13800,
          "time": 50.73526875,
          "velocity": 1
        },
        {
          "duration": 0.17647049999999354,
          "durationTicks": 48,
          "midi": 71,
          "name": "B4",
          "ticks": 13848,
          "time": 50.911739250000004,
          "velocity": 1
        },
        {
          "duration": 0.17647050000000064,
          "durationTicks": 48,
          "midi": 68,
          "name": "G#4",
          "ticks": 13896,
          "time": 51.08820975,
          "velocity": 1
        },
        {
          "duration": 0.17647050000000064,
          "durationTicks": 48,
          "midi": 66,
          "name": "F#4",
          "ticks": 13944,
          "time": 51.26468025,
          "velocity": 1
        },
        {
          "duration": 0.3529410000000013,
          "durationTicks": 96,
          "midi": 64,
          "name": "E4",
          "ticks": 13992,
          "time": 51.44115075,
          "velocity": 1
        },
        {
          "duration": 0.3529410000000013,
          "durationTicks": 96,
          "midi": 61,
          "name": "C#4",
          "ticks": 14088,
          "time": 51.79409175,
          "velocity": 1
        },
        {
          "duration": 0.3529410000000013,
          "durationTicks": 96,
          "midi": 64,
          "name": "E4",
          "ticks": 14184,
          "time": 52.14703275,
          "velocity": 1
        },
        {
          "duration": 0.3529410000000013,
          "durationTicks": 96,
          "midi": 73,
          "name": "C#5",
          "ticks": 14280,
          "time": 52.49997375,
          "velocity": 1
        },
        {
          "duration": 0.3529409999999942,
          "durationTicks": 96,
          "midi": 71,
          "name": "B4",
          "ticks": 14376,
          "time": 52.852914750000004,
          "velocity": 1
        },
        {
          "duration": 0.3529410000000013,
          "durationTicks": 96,
          "midi": 68,
          "name": "G#4",
          "ticks": 14472,
          "time": 53.20585575,
          "velocity": 1
        },
        {
          "duration": 0.3529410000000013,
          "durationTicks": 96,
          "midi": 61,
          "name": "C#4",
          "ticks": 14568,
          "time": 53.55879675,
          "velocity": 1
        },
        {
          "duration": 0.17647050000000064,
          "durationTicks": 48,
          "midi": 63,
          "name": "D#4",
          "ticks": 14664,
          "time": 53.91173775,
          "velocity": 1
        },
        {
          "duration": 0.17647050000000064,
          "durationTicks": 48,
          "midi": 64,
          "name": "E4",
          "ticks": 14712,
          "time": 54.08820825,
          "velocity": 1
        },
        {
          "duration": 0.17647050000000064,
          "durationTicks": 48,
          "midi": 62,
          "name": "D4",
          "ticks": 17016,
          "time": 62.55879225,
          "velocity": 1
        },
        {
          "duration": 0.17647049999999354,
          "durationTicks": 48,
          "midi": 63,
          "name": "D#4",
          "ticks": 17064,
          "time": 62.735262750000004,
          "velocity": 1
        },
        {
          "duration": 0.17647050000000064,
          "durationTicks": 48,
          "midi": 62,
          "name": "D4",
          "ticks": 17112,
          "time": 62.91173325,
          "velocity": 1
        },
        {
          "duration": 0.17647050000000064,
          "durationTicks": 48,
          "midi": 63,
          "name": "D#4",
          "ticks": 17160,
          "time": 63.08820375,
          "velocity": 1
        },
        {
          "duration": 0.17647050000000064,
          "durationTicks": 48,
          "midi": 62,
          "name": "D4",
          "ticks": 17208,
          "time": 63.26467425,
          "velocity": 1
        },
        {
          "duration": 0.17647050000000064,
          "durationTicks": 48,
          "midi": 63,
          "name": "D#4",
          "ticks": 17256,
          "time": 63.44114475,
          "velocity": 1
        },
        {
          "duration": 0.17647050000000064,
          "durationTicks": 48,
          "midi": 62,
          "name": "D4",
          "ticks": 17304,
          "time": 63.61761525,
          "velocity": 1
        },
        {
          "duration": 0.17647050000000064,
          "durationTicks": 48,
          "midi": 63,
          "name": "D#4",
          "ticks": 17352,
          "time": 63.79408575,
          "velocity": 1
        },
        {
          "duration": 0.17647049999999354,
          "durationTicks": 48,
          "midi": 62,
          "name": "D4",
          "ticks": 17400,
          "time": 63.97055625,
          "velocity": 1
        },
        {
          "duration": 0.3529410000000013,
          "durationTicks": 96,
          "midi": 63,
          "name": "D#4",
          "ticks": 17448,
          "time": 64.14702675,
          "velocity": 1
        },
        {
          "duration": 0.17647050000000775,
          "durationTicks": 48,
          "midi": 56,
          "name": "G#3",
          "ticks": 17544,
          "time": 64.49996775,
          "velocity": 1
        },
        {
          "duration": 0.17647049999999354,
          "durationTicks": 48,
          "midi": 59,
          "name": "B3",
          "ticks": 17592,
          "time": 64.67643825,
          "velocity": 1
        },
        {
          "duration": 0.17647049999999354,
          "durationTicks": 48,
          "midi": 61,
          "name": "C#4",
          "ticks": 17688,
          "time": 65.02937925,
          "velocity": 1
        },
        {
          "duration": 0.17647049999999354,
          "durationTicks": 48,
          "midi": 63,
          "name": "D#4",
          "ticks": 17784,
          "time": 65.38232025,
          "velocity": 1
        },
        {
          "duration": 0.17647049999999354,
          "durationTicks": 48,
          "midi": 62,
          "name": "D4",
          "ticks": 17880,
          "time": 65.73526125000001,
          "velocity": 1
        },
        {
          "duration": 0.17647049999999354,
          "durationTicks": 48,
          "midi": 63,
          "name": "D#4",
          "ticks": 17928,
          "time": 65.91173175,
          "velocity": 1
        },
        {
          "duration": 0.17647050000000775,
          "durationTicks": 48,
          "midi": 62,
          "name": "D4",
          "ticks": 17976,
          "time": 66.08820225,
          "velocity": 1
        },
        {
          "duration": 0.17647049999999354,
          "durationTicks": 48,
          "midi": 63,
          "name": "D#4",
          "ticks": 18024,
          "time": 66.26467275,
          "velocity": 1
        },
        {
          "duration": 0.17647050000000775,
          "durationTicks": 48,
          "midi": 62,
          "name": "D4",
          "ticks": 18072,
          "time": 66.44114325,
          "velocity": 1
        },
        {
          "duration": 0.17647049999999354,
          "durationTicks": 48,
          "midi": 63,
          "name": "D#4",
          "ticks": 18120,
          "time": 66.61761375,
          "velocity": 1
        },
        {
          "duration": 0.17647050000000775,
          "durationTicks": 48,
          "midi": 62,
          "name": "D4",
          "ticks": 18168,
          "time": 66.79408425,
          "velocity": 1
        },
        {
          "duration": 0.17647049999999354,
          "durationTicks": 48,
          "midi": 68,
          "name": "G#4",
          "ticks": 18216,
          "time": 66.97055475,
          "velocity": 1
        },
        {
          "duration": 0.17647050000000775,
          "durationTicks": 48,
          "midi": 66,
          "name": "F#4",
          "ticks": 18264,
          "time": 67.14702525,
          "velocity": 1
        },
        {
          "duration": 0.3529410000000013,
          "durationTicks": 96,
          "midi": 62,
          "name": "D4",
          "ticks": 18360,
          "time": 67.49996625,
          "velocity": 1
        },
        {
          "duration": 0.17647049999999354,
          "durationTicks": 48,
          "midi": 62,
          "name": "D4",
          "ticks": 18456,
          "time": 67.85290725,
          "velocity": 1
        },
        {
          "duration": 0.17647050000000775,
          "durationTicks": 48,
          "midi": 61,
          "name": "C#4",
          "ticks": 18504,
          "time": 68.02937775,
          "velocity": 1
        },
        {
          "duration": 0.17647049999999354,
          "durationTicks": 48,
          "midi": 59,
          "name": "B3",
          "ticks": 18552,
          "time": 68.20584825,
          "velocity": 1
        },
        {
          "duration": 0.17647050000000775,
          "durationTicks": 48,
          "midi": 61,
          "name": "C#4",
          "ticks": 18600,
          "time": 68.38231875,
          "velocity": 1
        },
        {
          "duration": 0.17647049999999354,
          "durationTicks": 48,
          "midi": 63,
          "name": "D#4",
          "ticks": 18648,
          "time": 68.55878925,
          "velocity": 1
        },
        {
          "duration": 0.3529410000000013,
          "durationTicks": 96,
          "midi": 63,
          "name": "D#4",
          "ticks": 18696,
          "time": 68.73525975,
          "velocity": 1
        },
        {
          "duration": 0.17647050000000775,
          "durationTicks": 48,
          "midi": 61,
          "name": "C#4",
          "ticks": 18792,
          "time": 69.08820075,
          "velocity": 1
        },
        {
          "duration": 0.17647049999999354,
          "durationTicks": 48,
          "midi": 63,
          "name": "D#4",
          "ticks": 18840,
          "time": 69.26467125,
          "velocity": 1
        },
        {
          "duration": 0.3529410000000013,
          "durationTicks": 96,
          "midi": 63,
          "name": "D#4",
          "ticks": 18888,
          "time": 69.44114175,
          "velocity": 1
        },
        {
          "duration": 0.17647049999999354,
          "durationTicks": 48,
          "midi": 61,
          "name": "C#4",
          "ticks": 18984,
          "time": 69.79408275,
          "velocity": 1
        },
        {
          "duration": 0.3529410000000013,
          "durationTicks": 96,
          "midi": 63,
          "name": "D#4",
          "ticks": 19032,
          "time": 69.97055325,
          "velocity": 1
        },
        {
          "duration": 0.17647050000000775,
          "durationTicks": 48,
          "midi": 62,
          "name": "D4",
          "ticks": 19128,
          "time": 70.32349425,
          "velocity": 1
        },
        {
          "duration": 0.17647049999999354,
          "durationTicks": 48,
          "midi": 62,
          "name": "D4",
          "ticks": 19176,
          "time": 70.49996475,
          "velocity": 1
        },
        {
          "duration": 0.17647050000000775,
          "durationTicks": 48,
          "midi": 63,
          "name": "D#4",
          "ticks": 19224,
          "time": 70.67643525,
          "velocity": 1
        },
        {
          "duration": 0.17647049999999354,
          "durationTicks": 48,
          "midi": 63,
          "name": "D#4",
          "ticks": 19272,
          "time": 70.85290575,
          "velocity": 1
        },
        {
          "duration": 0.2647057500000045,
          "durationTicks": 72,
          "midi": 59,
          "name": "B3",
          "ticks": 19320,
          "time": 71.02937625,
          "velocity": 1
        },
        {
          "duration": 0.17647050000000775,
          "durationTicks": 48,
          "midi": 56,
          "name": "G#3",
          "ticks": 19416,
          "time": 71.38231725,
          "velocity": 1
        },
        {
          "duration": 0.3529410000000013,
          "durationTicks": 96,
          "midi": 63,
          "name": "D#4",
          "ticks": 19704,
          "time": 72.44114025,
          "velocity": 1
        },
        {
          "duration": 0.17647049999999354,
          "durationTicks": 48,
          "midi": 63,
          "name": "D#4",
          "ticks": 19800,
          "time": 72.79408125,
          "velocity": 1
        },
        {
          "duration": 0.17647050000000775,
          "durationTicks": 48,
          "midi": 63,
          "name": "D#4",
          "ticks": 19848,
          "time": 72.97055175,
          "velocity": 1
        },
        {
          "duration": 0.17647049999999354,
          "durationTicks": 48,
          "midi": 63,
          "name": "D#4",
          "ticks": 19896,
          "time": 73.14702225,
          "velocity": 1
        },
        {
          "duration": 0.17647050000000775,
          "durationTicks": 48,
          "midi": 63,
          "name": "D#4",
          "ticks": 19944,
          "time": 73.32349275,
          "velocity": 1
        },
        {
          "duration": 0.17647049999999354,
          "durationTicks": 48,
          "midi": 63,
          "name": "D#4",
          "ticks": 19992,
          "time": 73.49996325000001,
          "velocity": 1
        },
        {
          "duration": 0.3529410000000013,
          "durationTicks": 96,
          "midi": 63,
          "name": "D#4",
          "ticks": 20040,
          "time": 73.67643375,
          "velocity": 1
        },
        {
          "duration": 0.17647049999999354,
          "durationTicks": 48,
          "midi": 63,
          "name": "D#4",
          "ticks": 20136,
          "time": 74.02937475,
          "velocity": 1
        },
        {
          "duration": 0.17647049999999354,
          "durationTicks": 48,
          "midi": 63,
          "name": "D#4",
          "ticks": 20232,
          "time": 74.38231575,
          "velocity": 1
        },
        {
          "duration": 0.17647050000000775,
          "durationTicks": 48,
          "midi": 62,
          "name": "D4",
          "ticks": 20280,
          "time": 74.55878625,
          "velocity": 1
        },
        {
          "duration": 0.17647049999999354,
          "durationTicks": 48,
          "midi": 63,
          "name": "D#4",
          "ticks": 20328,
          "time": 74.73525675,
          "velocity": 1
        },
        {
          "duration": 0.17647050000000775,
          "durationTicks": 48,
          "midi": 62,
          "name": "D4",
          "ticks": 20376,
          "time": 74.91172725,
          "velocity": 1
        },
        {
          "duration": 0.17647049999999354,
          "durationTicks": 48,
          "midi": 63,
          "name": "D#4",
          "ticks": 20424,
          "time": 75.08819775,
          "velocity": 1
        },
        {
          "duration": 0.17647050000000775,
          "durationTicks": 48,
          "midi": 62,
          "name": "D4",
          "ticks": 20472,
          "time": 75.26466825,
          "velocity": 1
        },
        {
          "duration": 0.17647049999999354,
          "durationTicks": 48,
          "midi": 63,
          "name": "D#4",
          "ticks": 20520,
          "time": 75.44113875000001,
          "velocity": 1
        },
        {
          "duration": 0.17647050000000775,
          "durationTicks": 48,
          "midi": 56,
          "name": "G#3",
          "ticks": 20616,
          "time": 75.79407975,
          "velocity": 1
        },
        {
          "duration": 0.17647049999999354,
          "durationTicks": 48,
          "midi": 59,
          "name": "B3",
          "ticks": 20664,
          "time": 75.97055025,
          "velocity": 1
        },
        {
          "duration": 0.17647049999999354,
          "durationTicks": 48,
          "midi": 61,
          "name": "C#4",
          "ticks": 20760,
          "time": 76.32349125,
          "velocity": 1
        },
        {
          "duration": 0.17647049999999354,
          "durationTicks": 48,
          "midi": 62,
          "name": "D4",
          "ticks": 20856,
          "time": 76.67643225,
          "velocity": 1
        },
        {
          "duration": 0.17647050000000775,
          "durationTicks": 48,
          "midi": 63,
          "name": "D#4",
          "ticks": 20904,
          "time": 76.85290275,
          "velocity": 1
        },
        {
          "duration": 0.17647049999999354,
          "durationTicks": 48,
          "midi": 62,
          "name": "D4",
          "ticks": 20952,
          "time": 77.02937325,
          "velocity": 1
        },
        {
          "duration": 0.17647050000000775,
          "durationTicks": 48,
          "midi": 63,
          "name": "D#4",
          "ticks": 21000,
          "time": 77.20584375,
          "velocity": 1
        },
        {
          "duration": 0.17647049999999354,
          "durationTicks": 48,
          "midi": 62,
          "name": "D4",
          "ticks": 21048,
          "time": 77.38231425000001,
          "velocity": 1
        },
        {
          "duration": 0.17647049999999354,
          "durationTicks": 48,
          "midi": 63,
          "name": "D#4",
          "ticks": 21096,
          "time": 77.55878475,
          "velocity": 1
        },
        {
          "duration": 0.17647050000000775,
          "durationTicks": 48,
          "midi": 62,
          "name": "D4",
          "ticks": 21144,
          "time": 77.73525525,
          "velocity": 1
        },
        {
          "duration": 0.17647049999999354,
          "durationTicks": 48,
          "midi": 63,
          "name": "D#4",
          "ticks": 21192,
          "time": 77.91172575,
          "velocity": 1
        },
        {
          "duration": 0.17647050000000775,
          "durationTicks": 48,
          "midi": 63,
          "name": "D#4",
          "ticks": 21240,
          "time": 78.08819625,
          "velocity": 1
        },
        {
          "duration": 0.17647049999999354,
          "durationTicks": 48,
          "midi": 68,
          "name": "G#4",
          "ticks": 21288,
          "time": 78.26466675,
          "velocity": 1
        },
        {
          "duration": 0.17647050000000775,
          "durationTicks": 48,
          "midi": 66,
          "name": "F#4",
          "ticks": 21336,
          "time": 78.44113725,
          "velocity": 1
        },
        {
          "duration": 0.17647050000000775,
          "durationTicks": 48,
          "midi": 62,
          "name": "D4",
          "ticks": 21432,
          "time": 78.79407825,
          "velocity": 1
        },
        {
          "duration": 0.17647050000000775,
          "durationTicks": 48,
          "midi": 62,
          "name": "D4",
          "ticks": 21528,
          "time": 79.14701925,
          "velocity": 1
        },
        {
          "duration": 0.17647049999999354,
          "durationTicks": 48,
          "midi": 61,
          "name": "C#4",
          "ticks": 21576,
          "time": 79.32348975000001,
          "velocity": 1
        },
        {
          "duration": 0.17647049999999354,
          "durationTicks": 48,
          "midi": 59,
          "name": "B3",
          "ticks": 21624,
          "time": 79.49996025,
          "velocity": 1
        },
        {
          "duration": 0.17647050000000775,
          "durationTicks": 48,
          "midi": 61,
          "name": "C#4",
          "ticks": 21672,
          "time": 79.67643075,
          "velocity": 1
        },
        {
          "duration": 0.17647049999999354,
          "durationTicks": 48,
          "midi": 63,
          "name": "D#4",
          "ticks": 21720,
          "time": 79.85290125,
          "velocity": 1
        },
        {
          "duration": 0.3529410000000013,
          "durationTicks": 96,
          "midi": 63,
          "name": "D#4",
          "ticks": 21768,
          "time": 80.02937175,
          "velocity": 1
        },
        {
          "duration": 0.17647050000000775,
          "durationTicks": 48,
          "midi": 61,
          "name": "C#4",
          "ticks": 21864,
          "time": 80.38231275,
          "velocity": 1
        },
        {
          "duration": 0.17647049999999354,
          "durationTicks": 48,
          "midi": 63,
          "name": "D#4",
          "ticks": 21912,
          "time": 80.55878325,
          "velocity": 1
        },
        {
          "duration": 0.3529410000000013,
          "durationTicks": 96,
          "midi": 63,
          "name": "D#4",
          "ticks": 21960,
          "time": 80.73525375,
          "velocity": 1
        },
        {
          "duration": 0.17647050000000775,
          "durationTicks": 48,
          "midi": 61,
          "name": "C#4",
          "ticks": 22056,
          "time": 81.08819475,
          "velocity": 1
        },
        {
          "duration": 0.17647049999999354,
          "durationTicks": 48,
          "midi": 63,
          "name": "D#4",
          "ticks": 22104,
          "time": 81.26466525000001,
          "velocity": 1
        },
        {
          "duration": 0.17647049999999354,
          "durationTicks": 48,
          "midi": 63,
          "name": "D#4",
          "ticks": 22152,
          "time": 81.44113575,
          "velocity": 1
        },
        {
          "duration": 0.17647050000000775,
          "durationTicks": 48,
          "midi": 63,
          "name": "D#4",
          "ticks": 22200,
          "time": 81.61760625,
          "velocity": 1
        },
        {
          "duration": 0.17647049999999354,
          "durationTicks": 48,
          "midi": 63,
          "name": "D#4",
          "ticks": 22248,
          "time": 81.79407675,
          "velocity": 1
        },
        {
          "duration": 0.17647050000000775,
          "durationTicks": 48,
          "midi": 63,
          "name": "D#4",
          "ticks": 22296,
          "time": 81.97054725,
          "velocity": 1
        },
        {
          "duration": 0.17647049999999354,
          "durationTicks": 48,
          "midi": 63,
          "name": "D#4",
          "ticks": 22344,
          "time": 82.14701775,
          "velocity": 1
        },
        {
          "duration": 0.3529410000000013,
          "durationTicks": 96,
          "midi": 59,
          "name": "B3",
          "ticks": 22392,
          "time": 82.32348825,
          "velocity": 1
        },
        {
          "duration": 0.17647050000000775,
          "durationTicks": 48,
          "midi": 56,
          "name": "G#3",
          "ticks": 22488,
          "time": 82.67642925,
          "velocity": 1
        },
        {
          "duration": 0.17647049999999354,
          "durationTicks": 48,
          "midi": 63,
          "name": "D#4",
          "ticks": 22776,
          "time": 83.73525225,
          "velocity": 1
        },
        {
          "duration": 0.17647050000000775,
          "durationTicks": 48,
          "midi": 66,
          "name": "F#4",
          "ticks": 22824,
          "time": 83.91172275,
          "velocity": 1
        },
        {
          "duration": 0.17647049999999354,
          "durationTicks": 48,
          "midi": 63,
          "name": "D#4",
          "ticks": 22872,
          "time": 84.08819325,
          "velocity": 1
        },
        {
          "duration": 0.17647050000000775,
          "durationTicks": 48,
          "midi": 66,
          "name": "F#4",
          "ticks": 22920,
          "time": 84.26466375,
          "velocity": 1
        },
        {
          "duration": 0.17647049999999354,
          "durationTicks": 48,
          "midi": 63,
          "name": "D#4",
          "ticks": 22968,
          "time": 84.44113425,
          "velocity": 1
        },
        {
          "duration": 0.17647050000000775,
          "durationTicks": 48,
          "midi": 66,
          "name": "F#4",
          "ticks": 23016,
          "time": 84.61760475,
          "velocity": 1
        },
        {
          "duration": 0.17647049999999354,
          "durationTicks": 48,
          "midi": 68,
          "name": "G#4",
          "ticks": 23064,
          "time": 84.79407525,
          "velocity": 1
        },
        {
          "duration": 0.3529410000000013,
          "durationTicks": 96,
          "midi": 68,
          "name": "G#4",
          "ticks": 23112,
          "time": 84.97054575,
          "velocity": 1
        },
        {
          "duration": 0.7058820000000026,
          "durationTicks": 192,
          "midi": 71,
          "name": "B4",
          "ticks": 24552,
          "time": 90.26466075,
          "velocity": 1
        },
        {
          "duration": 2.823527999999996,
          "durationTicks": 768,
          "midi": 68,
          "name": "G#4",
          "ticks": 24744,
          "time": 90.97054275,
          "velocity": 1
        },
        {
          "duration": 0.17647050000000775,
          "durationTicks": 48,
          "midi": 63,
          "name": "D#4",
          "ticks": 26280,
          "time": 96.61759875,
          "velocity": 1
        },
        {
          "duration": 0.17647049999999354,
          "durationTicks": 48,
          "midi": 56,
          "name": "G#3",
          "ticks": 26328,
          "time": 96.79406925,
          "velocity": 1
        },
        {
          "duration": 0.17647050000000775,
          "durationTicks": 48,
          "midi": 56,
          "name": "G#3",
          "ticks": 26376,
          "time": 96.97053975,
          "velocity": 1
        },
        {
          "duration": 0.17647049999999354,
          "durationTicks": 48,
          "midi": 54,
          "name": "F#3",
          "ticks": 26424,
          "time": 97.14701025000001,
          "velocity": 1
        },
        {
          "duration": 0.17647049999999354,
          "durationTicks": 48,
          "midi": 56,
          "name": "G#3",
          "ticks": 26472,
          "time": 97.32348075,
          "velocity": 1
        },
        {
          "duration": 0.17647050000000775,
          "durationTicks": 48,
          "midi": 54,
          "name": "F#3",
          "ticks": 26520,
          "time": 97.49995125,
          "velocity": 1
        },
        {
          "duration": 0.17647049999999354,
          "durationTicks": 48,
          "midi": 56,
          "name": "G#3",
          "ticks": 26568,
          "time": 97.67642175,
          "velocity": 1
        },
        {
          "duration": 0.17647050000000775,
          "durationTicks": 48,
          "midi": 54,
          "name": "F#3",
          "ticks": 26616,
          "time": 97.85289225,
          "velocity": 1
        },
        {
          "duration": 0.17647049999999354,
          "durationTicks": 48,
          "midi": 56,
          "name": "G#3",
          "ticks": 26664,
          "time": 98.02936275,
          "velocity": 1
        },
        {
          "duration": 0.17647050000000775,
          "durationTicks": 48,
          "midi": 54,
          "name": "F#3",
          "ticks": 26712,
          "time": 98.20583325,
          "velocity": 1
        },
        {
          "duration": 0.17647049999999354,
          "durationTicks": 48,
          "midi": 56,
          "name": "G#3",
          "ticks": 26760,
          "time": 98.38230375,
          "velocity": 1
        },
        {
          "duration": 0.17647050000000775,
          "durationTicks": 48,
          "midi": 63,
          "name": "D#4",
          "ticks": 26808,
          "time": 98.55877425,
          "velocity": 1
        },
        {
          "duration": 0.17647050000000775,
          "durationTicks": 48,
          "midi": 63,
          "name": "D#4",
          "ticks": 26904,
          "time": 98.91171525,
          "velocity": 1
        },
        {
          "duration": 0.17647049999999354,
          "durationTicks": 48,
          "midi": 63,
          "name": "D#4",
          "ticks": 26952,
          "time": 99.08818575000001,
          "velocity": 1
        },
        {
          "duration": 0.17647049999999354,
          "durationTicks": 48,
          "midi": 63,
          "name": "D#4",
          "ticks": 27000,
          "time": 99.26465625,
          "velocity": 1
        },
        {
          "duration": 0.17647050000000775,
          "durationTicks": 48,
          "midi": 63,
          "name": "D#4",
          "ticks": 27048,
          "time": 99.44112675,
          "velocity": 1
        },
        {
          "duration": 0.17647049999999354,
          "durationTicks": 48,
          "midi": 56,
          "name": "G#3",
          "ticks": 27096,
          "time": 99.61759725,
          "velocity": 1
        },
        {
          "duration": 0.17647050000000775,
          "durationTicks": 48,
          "midi": 56,
          "name": "G#3",
          "ticks": 27144,
          "time": 99.79406775,
          "velocity": 1
        },
        {
          "duration": 0.17647049999999354,
          "durationTicks": 48,
          "midi": 54,
          "name": "F#3",
          "ticks": 27192,
          "time": 99.97053825,
          "velocity": 1
        },
        {
          "duration": 0.17647050000000775,
          "durationTicks": 48,
          "midi": 56,
          "name": "G#3",
          "ticks": 27240,
          "time": 100.14700875,
          "velocity": 1
        },
        {
          "duration": 0.17647049999999354,
          "durationTicks": 48,
          "midi": 54,
          "name": "F#3",
          "ticks": 27288,
          "time": 100.32347925,
          "velocity": 1
        },
        {
          "duration": 0.17647050000000775,
          "durationTicks": 48,
          "midi": 56,
          "name": "G#3",
          "ticks": 27336,
          "time": 100.49994975,
          "velocity": 1
        },
        {
          "duration": 0.17647049999999354,
          "durationTicks": 48,
          "midi": 54,
          "name": "F#3",
          "ticks": 27384,
          "time": 100.67642025,
          "velocity": 1
        },
        {
          "duration": 0.17647050000000775,
          "durationTicks": 48,
          "midi": 56,
          "name": "G#3",
          "ticks": 27432,
          "time": 100.85289075,
          "velocity": 1
        },
        {
          "duration": 0.17647049999999354,
          "durationTicks": 48,
          "midi": 54,
          "name": "F#3",
          "ticks": 27480,
          "time": 101.02936125000001,
          "velocity": 1
        },
        {
          "duration": 0.17647049999999354,
          "durationTicks": 48,
          "midi": 56,
          "name": "G#3",
          "ticks": 27528,
          "time": 101.20583175,
          "velocity": 1
        },
        {
          "duration": 0.17647050000000775,
          "durationTicks": 48,
          "midi": 66,
          "name": "F#4",
          "ticks": 27576,
          "time": 101.38230225,
          "velocity": 1
        },
        {
          "duration": 0.17647050000000775,
          "durationTicks": 48,
          "midi": 66,
          "name": "F#4",
          "ticks": 27672,
          "time": 101.73524325,
          "velocity": 1
        },
        {
          "duration": 0.17647049999999354,
          "durationTicks": 48,
          "midi": 66,
          "name": "F#4",
          "ticks": 27720,
          "time": 101.91171375,
          "velocity": 1
        },
        {
          "duration": 0.17647050000000775,
          "durationTicks": 48,
          "midi": 68,
          "name": "G#4",
          "ticks": 27768,
          "time": 102.08818425,
          "velocity": 1
        },
        {
          "duration": 0.17647049999999354,
          "durationTicks": 48,
          "midi": 66,
          "name": "F#4",
          "ticks": 27816,
          "time": 102.26465475,
          "velocity": 1
        },
        {
          "duration": 0.17647050000000775,
          "durationTicks": 48,
          "midi": 59,
          "name": "B3",
          "ticks": 27864,
          "time": 102.44112525,
          "velocity": 1
        },
        {
          "duration": 0.17647049999999354,
          "durationTicks": 48,
          "midi": 59,
          "name": "B3",
          "ticks": 27912,
          "time": 102.61759575,
          "velocity": 1
        },
        {
          "duration": 0.17647049999999354,
          "durationTicks": 48,
          "midi": 59,
          "name": "B3",
          "ticks": 28008,
          "time": 102.97053675000001,
          "velocity": 1
        },
        {
          "duration": 0.17647049999999354,
          "durationTicks": 48,
          "midi": 56,
          "name": "G#3",
          "ticks": 28056,
          "time": 103.14700725,
          "velocity": 1
        },
        {
          "duration": 0.17647050000000775,
          "durationTicks": 48,
          "midi": 59,
          "name": "B3",
          "ticks": 28104,
          "time": 103.32347775,
          "velocity": 1
        },
        {
          "duration": 0.17647049999999354,
          "durationTicks": 48,
          "midi": 56,
          "name": "G#3",
          "ticks": 28152,
          "time": 103.49994825,
          "velocity": 1
        },
        {
          "duration": 0.17647050000000775,
          "durationTicks": 48,
          "midi": 59,
          "name": "B3",
          "ticks": 28200,
          "time": 103.67641875,
          "velocity": 1
        },
        {
          "duration": 0.17647049999999354,
          "durationTicks": 48,
          "midi": 61,
          "name": "C#4",
          "ticks": 28248,
          "time": 103.85288925,
          "velocity": 1
        },
        {
          "duration": 0.17647050000000775,
          "durationTicks": 48,
          "midi": 62,
          "name": "D4",
          "ticks": 28296,
          "time": 104.02935975,
          "velocity": 1
        },
        {
          "duration": 0.17647049999999354,
          "durationTicks": 48,
          "midi": 63,
          "name": "D#4",
          "ticks": 28344,
          "time": 104.20583025,
          "velocity": 1
        },
        {
          "duration": 0.17647049999999354,
          "durationTicks": 48,
          "midi": 61,
          "name": "C#4",
          "ticks": 28440,
          "time": 104.55877125,
          "velocity": 1
        },
        {
          "duration": 0.17647050000000775,
          "durationTicks": 48,
          "midi": 63,
          "name": "D#4",
          "ticks": 28488,
          "time": 104.73524175,
          "velocity": 1
        },
        {
          "duration": 0.17647049999999354,
          "durationTicks": 48,
          "midi": 68,
          "name": "G#4",
          "ticks": 28536,
          "time": 104.91171225000001,
          "velocity": 1
        },
        {
          "duration": 0.17647049999999354,
          "durationTicks": 48,
          "midi": 67,
          "name": "G4",
          "ticks": 28584,
          "time": 105.08818275,
          "velocity": 1
        },
        {
          "duration": 0.17647050000000775,
          "durationTicks": 48,
          "midi": 63,
          "name": "D#4",
          "ticks": 28632,
          "time": 105.26465325,
          "velocity": 1
        },
        {
          "duration": 0.17647049999999354,
          "durationTicks": 48,
          "midi": 63,
          "name": "D#4",
          "ticks": 28680,
          "time": 105.44112375,
          "velocity": 1
        },
        {
          "duration": 0.17647050000000775,
          "durationTicks": 48,
          "midi": 63,
          "name": "D#4",
          "ticks": 28728,
          "time": 105.61759425,
          "velocity": 1
        },
        {
          "duration": 0.17647049999999354,
          "durationTicks": 48,
          "midi": 63,
          "name": "D#4",
          "ticks": 28776,
          "time": 105.79406475,
          "velocity": 1
        },
        {
          "duration": 0.17647050000000775,
          "durationTicks": 48,
          "midi": 61,
          "name": "C#4",
          "ticks": 28824,
          "time": 105.97053525,
          "velocity": 1
        },
        {
          "duration": 0.17647049999999354,
          "durationTicks": 48,
          "midi": 61,
          "name": "C#4",
          "ticks": 28872,
          "time": 106.14700575,
          "velocity": 1
        },
        {
          "duration": 0.17647050000000775,
          "durationTicks": 48,
          "midi": 63,
          "name": "D#4",
          "ticks": 28920,
          "time": 106.32347625,
          "velocity": 1
        },
        {
          "duration": 0.17647049999999354,
          "durationTicks": 48,
          "midi": 63,
          "name": "D#4",
          "ticks": 28968,
          "time": 106.49994675,
          "velocity": 1
        },
        {
          "duration": 0.17647050000000775,
          "durationTicks": 48,
          "midi": 61,
          "name": "C#4",
          "ticks": 29016,
          "time": 106.67641725,
          "velocity": 1
        },
        {
          "duration": 0.17647049999999354,
          "durationTicks": 48,
          "midi": 63,
          "name": "D#4",
          "ticks": 29064,
          "time": 106.85288775000001,
          "velocity": 1
        },
        {
          "duration": 0.17647049999999354,
          "durationTicks": 48,
          "midi": 63,
          "name": "D#4",
          "ticks": 29112,
          "time": 107.02935825,
          "velocity": 1
        },
        {
          "duration": 0.17647049999999354,
          "durationTicks": 48,
          "midi": 63,
          "name": "D#4",
          "ticks": 29208,
          "time": 107.38229925,
          "velocity": 1
        },
        {
          "duration": 0.17647050000000775,
          "durationTicks": 48,
          "midi": 63,
          "name": "D#4",
          "ticks": 29256,
          "time": 107.55876975,
          "velocity": 1
        },
        {
          "duration": 0.17647049999999354,
          "durationTicks": 48,
          "midi": 63,
          "name": "D#4",
          "ticks": 29304,
          "time": 107.73524025,
          "velocity": 1
        },
        {
          "duration": 0.17647050000000775,
          "durationTicks": 48,
          "midi": 63,
          "name": "D#4",
          "ticks": 29352,
          "time": 107.91171075,
          "velocity": 1
        },
        {
          "duration": 0.17647049999999354,
          "durationTicks": 48,
          "midi": 56,
          "name": "G#3",
          "ticks": 29400,
          "time": 108.08818125,
          "velocity": 1
        },
        {
          "duration": 0.17647050000000775,
          "durationTicks": 48,
          "midi": 56,
          "name": "G#3",
          "ticks": 29448,
          "time": 108.26465175,
          "velocity": 1
        },
        {
          "duration": 0.17647049999999354,
          "durationTicks": 48,
          "midi": 54,
          "name": "F#3",
          "ticks": 29496,
          "time": 108.44112225,
          "velocity": 1
        },
        {
          "duration": 0.17647050000000775,
          "durationTicks": 48,
          "midi": 56,
          "name": "G#3",
          "ticks": 29544,
          "time": 108.61759275,
          "velocity": 1
        },
        {
          "duration": 0.17647049999999354,
          "durationTicks": 48,
          "midi": 54,
          "name": "F#3",
          "ticks": 29592,
          "time": 108.79406325000001,
          "velocity": 1
        },
        {
          "duration": 0.17647049999999354,
          "durationTicks": 48,
          "midi": 56,
          "name": "G#3",
          "ticks": 29640,
          "time": 108.97053375,
          "velocity": 1
        },
        {
          "duration": 0.17647050000000775,
          "durationTicks": 48,
          "midi": 54,
          "name": "F#3",
          "ticks": 29688,
          "time": 109.14700425,
          "velocity": 1
        },
        {
          "duration": 0.17647049999999354,
          "durationTicks": 48,
          "midi": 56,
          "name": "G#3",
          "ticks": 29736,
          "time": 109.32347475,
          "velocity": 1
        },
        {
          "duration": 0.17647050000000775,
          "durationTicks": 48,
          "midi": 54,
          "name": "F#3",
          "ticks": 29784,
          "time": 109.49994525,
          "velocity": 1
        },
        {
          "duration": 0.17647049999999354,
          "durationTicks": 48,
          "midi": 56,
          "name": "G#3",
          "ticks": 29832,
          "time": 109.67641575,
          "velocity": 1
        },
        {
          "duration": 0.17647050000000775,
          "durationTicks": 48,
          "midi": 63,
          "name": "D#4",
          "ticks": 29880,
          "time": 109.85288625,
          "velocity": 1
        },
        {
          "duration": 0.17647050000000775,
          "durationTicks": 48,
          "midi": 63,
          "name": "D#4",
          "ticks": 29976,
          "time": 110.20582725,
          "velocity": 1
        },
        {
          "duration": 0.17647049999999354,
          "durationTicks": 48,
          "midi": 63,
          "name": "D#4",
          "ticks": 30024,
          "time": 110.38229775,
          "velocity": 1
        },
        {
          "duration": 0.17647050000000775,
          "durationTicks": 48,
          "midi": 63,
          "name": "D#4",
          "ticks": 30072,
          "time": 110.55876825,
          "velocity": 1
        },
        {
          "duration": 0.17647049999999354,
          "durationTicks": 48,
          "midi": 63,
          "name": "D#4",
          "ticks": 30120,
          "time": 110.73523875000001,
          "velocity": 1
        },
        {
          "duration": 0.17647049999999354,
          "durationTicks": 48,
          "midi": 56,
          "name": "G#3",
          "ticks": 30168,
          "time": 110.91170925,
          "velocity": 1
        },
        {
          "duration": 0.17647050000000775,
          "durationTicks": 48,
          "midi": 56,
          "name": "G#3",
          "ticks": 30216,
          "time": 111.08817975,
          "velocity": 1
        },
        {
          "duration": 0.17647049999999354,
          "durationTicks": 48,
          "midi": 54,
          "name": "F#3",
          "ticks": 30264,
          "time": 111.26465025,
          "velocity": 1
        },
        {
          "duration": 0.17647050000000775,
          "durationTicks": 48,
          "midi": 56,
          "name": "G#3",
          "ticks": 30312,
          "time": 111.44112075,
          "velocity": 1
        },
        {
          "duration": 0.17647049999999354,
          "durationTicks": 48,
          "midi": 54,
          "name": "F#3",
          "ticks": 30360,
          "time": 111.61759125,
          "velocity": 1
        },
        {
          "duration": 0.17647050000000775,
          "durationTicks": 48,
          "midi": 56,
          "name": "G#3",
          "ticks": 30408,
          "time": 111.79406175,
          "velocity": 1
        },
        {
          "duration": 0.17647049999999354,
          "durationTicks": 48,
          "midi": 54,
          "name": "F#3",
          "ticks": 30456,
          "time": 111.97053225,
          "velocity": 1
        },
        {
          "duration": 0.17647050000000775,
          "durationTicks": 48,
          "midi": 56,
          "name": "G#3",
          "ticks": 30504,
          "time": 112.14700275,
          "velocity": 1
        },
        {
          "duration": 0.17647049999999354,
          "durationTicks": 48,
          "midi": 54,
          "name": "F#3",
          "ticks": 30552,
          "time": 112.32347325,
          "velocity": 1
        },
        {
          "duration": 0.17647050000000775,
          "durationTicks": 48,
          "midi": 56,
          "name": "G#3",
          "ticks": 30600,
          "time": 112.49994375,
          "velocity": 1
        },
        {
          "duration": 0.17647049999999354,
          "durationTicks": 48,
          "midi": 66,
          "name": "F#4",
          "ticks": 30648,
          "time": 112.67641425000001,
          "velocity": 1
        },
        {
          "duration": 0.17647050000000775,
          "durationTicks": 48,
          "midi": 66,
          "name": "F#4",
          "ticks": 30744,
          "time": 113.02935525,
          "velocity": 1
        },
        {
          "duration": 0.17647049999999354,
          "durationTicks": 48,
          "midi": 66,
          "name": "F#4",
          "ticks": 30792,
          "time": 113.20582575,
          "velocity": 1
        },
        {
          "duration": 0.17647050000000775,
          "durationTicks": 48,
          "midi": 68,
          "name": "G#4",
          "ticks": 30840,
          "time": 113.38229625,
          "velocity": 1
        },
        {
          "duration": 0.17647049999999354,
          "durationTicks": 48,
          "midi": 66,
          "name": "F#4",
          "ticks": 30888,
          "time": 113.55876675,
          "velocity": 1
        },
        {
          "duration": 0.17647050000000775,
          "durationTicks": 48,
          "midi": 59,
          "name": "B3",
          "ticks": 30936,
          "time": 113.73523725,
          "velocity": 1
        },
        {
          "duration": 0.17647049999999354,
          "durationTicks": 48,
          "midi": 59,
          "name": "B3",
          "ticks": 30984,
          "time": 113.91170775,
          "velocity": 1
        },
        {
          "duration": 0.17647050000000775,
          "durationTicks": 48,
          "midi": 56,
          "name": "G#3",
          "ticks": 31032,
          "time": 114.08817825,
          "velocity": 1
        },
        {
          "duration": 0.17647049999999354,
          "durationTicks": 48,
          "midi": 59,
          "name": "B3",
          "ticks": 31080,
          "time": 114.26464875,
          "velocity": 1
        },
        {
          "duration": 0.17647050000000775,
          "durationTicks": 48,
          "midi": 56,
          "name": "G#3",
          "ticks": 31128,
          "time": 114.44111925,
          "velocity": 1
        },
        {
          "duration": 0.17647049999999354,
          "durationTicks": 48,
          "midi": 59,
          "name": "B3",
          "ticks": 31176,
          "time": 114.61758975000001,
          "velocity": 1
        },
        {
          "duration": 0.17647049999999354,
          "durationTicks": 48,
          "midi": 56,
          "name": "G#3",
          "ticks": 31224,
          "time": 114.79406025,
          "velocity": 1
        },
        {
          "duration": 0.17647050000000775,
          "durationTicks": 48,
          "midi": 59,
          "name": "B3",
          "ticks": 31272,
          "time": 114.97053075,
          "velocity": 1
        },
        {
          "duration": 0.3529410000000013,
          "durationTicks": 96,
          "midi": 64,
          "name": "E4",
          "ticks": 31320,
          "time": 115.14700125,
          "velocity": 1
        },
        {
          "duration": 0.17647049999999354,
          "durationTicks": 48,
          "midi": 63,
          "name": "D#4",
          "ticks": 31416,
          "time": 115.49994225,
          "velocity": 1
        },
        {
          "duration": 0.17647049999999354,
          "durationTicks": 48,
          "midi": 68,
          "name": "G#4",
          "ticks": 31512,
          "time": 115.85288325,
          "velocity": 1
        },
        {
          "duration": 0.17647049999999354,
          "durationTicks": 48,
          "midi": 68,
          "name": "G#4",
          "ticks": 31608,
          "time": 116.20582425,
          "velocity": 1
        },
        {
          "duration": 0.17647050000000775,
          "durationTicks": 48,
          "midi": 70,
          "name": "A#4",
          "ticks": 31656,
          "time": 116.38229475,
          "velocity": 1
        },
        {
          "duration": 0.17647049999999354,
          "durationTicks": 48,
          "midi": 68,
          "name": "G#4",
          "ticks": 31704,
          "time": 116.55876525000001,
          "velocity": 1
        },
        {
          "duration": 0.17647049999999354,
          "durationTicks": 48,
          "midi": 70,
          "name": "A#4",
          "ticks": 31752,
          "time": 116.73523575,
          "velocity": 1
        },
        {
          "duration": 0.17647050000000775,
          "durationTicks": 48,
          "midi": 68,
          "name": "G#4",
          "ticks": 31800,
          "time": 116.91170625,
          "velocity": 1
        },
        {
          "duration": 0.17647049999999354,
          "durationTicks": 48,
          "midi": 70,
          "name": "A#4",
          "ticks": 31848,
          "time": 117.08817675,
          "velocity": 1
        },
        {
          "duration": 0.17647050000000775,
          "durationTicks": 48,
          "midi": 68,
          "name": "G#4",
          "ticks": 31896,
          "time": 117.26464725,
          "velocity": 1
        },
        {
          "duration": 0.17647049999999354,
          "durationTicks": 48,
          "midi": 70,
          "name": "A#4",
          "ticks": 31944,
          "time": 117.44111775,
          "velocity": 1
        },
        {
          "duration": 0.17647050000000775,
          "durationTicks": 48,
          "midi": 68,
          "name": "G#4",
          "ticks": 31992,
          "time": 117.61758825,
          "velocity": 1
        },
        {
          "duration": 0.17647049999999354,
          "durationTicks": 48,
          "midi": 70,
          "name": "A#4",
          "ticks": 32040,
          "time": 117.79405875,
          "velocity": 1
        },
        {
          "duration": 0.17647050000000775,
          "durationTicks": 48,
          "midi": 68,
          "name": "G#4",
          "ticks": 32088,
          "time": 117.97052925,
          "velocity": 1
        },
        {
          "duration": 0.17647049999999354,
          "durationTicks": 48,
          "midi": 70,
          "name": "A#4",
          "ticks": 32136,
          "time": 118.14699975,
          "velocity": 1
        },
        {
          "duration": 0.17647050000000775,
          "durationTicks": 48,
          "midi": 68,
          "name": "G#4",
          "ticks": 32184,
          "time": 118.32347025,
          "velocity": 1
        },
        {
          "duration": 0.35294099999998707,
          "durationTicks": 96,
          "midi": 75,
          "name": "D#5",
          "ticks": 32232,
          "time": 118.49994075000001,
          "velocity": 1
        },
        {
          "duration": 0.17647050000000775,
          "durationTicks": 48,
          "midi": 73,
          "name": "C#5",
          "ticks": 32328,
          "time": 118.85288175,
          "velocity": 1
        },
        {
          "duration": 0.17647049999999354,
          "durationTicks": 48,
          "midi": 75,
          "name": "D#5",
          "ticks": 32376,
          "time": 119.02935225,
          "velocity": 1
        },
        {
          "duration": 0.2647057500000045,
          "durationTicks": 72,
          "midi": 71,
          "name": "B4",
          "ticks": 32424,
          "time": 119.20582275,
          "velocity": 1
        },
        {
          "duration": 0.08823524999999677,
          "durationTicks": 24,
          "midi": 68,
          "name": "G#4",
          "ticks": 32496,
          "time": 119.4705285,
          "velocity": 1
        },
        {
          "duration": 0.17647049999999354,
          "durationTicks": 48,
          "midi": 68,
          "name": "G#4",
          "ticks": 33720,
          "time": 123.97052625,
          "velocity": 1
        },
        {
          "duration": 0.3529410000000013,
          "durationTicks": 96,
          "midi": 75,
          "name": "D#5",
          "ticks": 33768,
          "time": 124.14699675,
          "velocity": 1
        },
        {
          "duration": 0.17647050000000775,
          "durationTicks": 48,
          "midi": 73,
          "name": "C#5",
          "ticks": 33864,
          "time": 124.49993775,
          "velocity": 1
        },
        {
          "duration": 0.17647049999999354,
          "durationTicks": 48,
          "midi": 75,
          "name": "D#5",
          "ticks": 33912,
          "time": 124.67640825000001,
          "velocity": 1
        },
        {
          "duration": 0.2647057500000045,
          "durationTicks": 72,
          "midi": 71,
          "name": "B4",
          "ticks": 33960,
          "time": 124.85287875,
          "velocity": 1
        },
        {
          "duration": 0.08823524999999677,
          "durationTicks": 24,
          "midi": 68,
          "name": "G#4",
          "ticks": 34032,
          "time": 125.1175845,
          "velocity": 1
        },
        {
          "duration": 0.3529410000000155,
          "durationTicks": 96,
          "midi": 61,
          "name": "C#4",
          "ticks": 35304,
          "time": 129.79405275,
          "velocity": 1
        },
        {
          "duration": 0.35294099999998707,
          "durationTicks": 96,
          "midi": 60,
          "name": "C4",
          "ticks": 35400,
          "time": 130.14699375,
          "velocity": 1
        },
        {
          "duration": 0.17647049999999354,
          "durationTicks": 48,
          "midi": 58,
          "name": "A#3",
          "ticks": 35496,
          "time": 130.49993475,
          "velocity": 1
        },
        {
          "duration": 0.3529410000000155,
          "durationTicks": 96,
          "midi": 65,
          "name": "F4",
          "ticks": 35544,
          "time": 130.67640525,
          "velocity": 1
        },
        {
          "duration": 0.17647049999999354,
          "durationTicks": 48,
          "midi": 58,
          "name": "A#3",
          "ticks": 35640,
          "time": 131.02934625,
          "velocity": 1
        },
        {
          "duration": 0.3529410000000155,
          "durationTicks": 96,
          "midi": 65,
          "name": "F4",
          "ticks": 35688,
          "time": 131.20581675,
          "velocity": 1
        },
        {
          "duration": 0.17647049999999354,
          "durationTicks": 48,
          "midi": 58,
          "name": "A#3",
          "ticks": 35784,
          "time": 131.55875775,
          "velocity": 1
        },
        {
          "duration": 0.35294099999998707,
          "durationTicks": 96,
          "midi": 68,
          "name": "G#4",
          "ticks": 35832,
          "time": 131.73522825,
          "velocity": 1
        },
        {
          "duration": 0.17647050000002196,
          "durationTicks": 48,
          "midi": 70,
          "name": "A#4",
          "ticks": 35928,
          "time": 132.08816925,
          "velocity": 1
        },
        {
          "duration": 0.17647049999999354,
          "durationTicks": 48,
          "midi": 65,
          "name": "F4",
          "ticks": 35976,
          "time": 132.26463975000001,
          "velocity": 1
        },
        {
          "duration": 0.17647049999999354,
          "durationTicks": 48,
          "midi": 68,
          "name": "G#4",
          "ticks": 36024,
          "time": 132.44111025,
          "velocity": 1
        },
        {
          "duration": 0.17647049999999354,
          "durationTicks": 48,
          "midi": 63,
          "name": "D#4",
          "ticks": 36072,
          "time": 132.61758075,
          "velocity": 1
        },
        {
          "duration": 0.17647050000002196,
          "durationTicks": 48,
          "midi": 65,
          "name": "F4",
          "ticks": 36168,
          "time": 132.97052175,
          "velocity": 1
        },
        {
          "duration": 0.17647049999999354,
          "durationTicks": 48,
          "midi": 56,
          "name": "G#3",
          "ticks": 36264,
          "time": 133.32346275,
          "velocity": 1
        },
        {
          "duration": 0.17647049999999354,
          "durationTicks": 48,
          "midi": 63,
          "name": "D#4",
          "ticks": 36312,
          "time": 133.49993325,
          "velocity": 1
        },
        {
          "duration": 0.17647049999999354,
          "durationTicks": 48,
          "midi": 56,
          "name": "G#3",
          "ticks": 36408,
          "time": 133.85287425,
          "velocity": 1
        },
        {
          "duration": 0.17647049999999354,
          "durationTicks": 48,
          "midi": 63,
          "name": "D#4",
          "ticks": 36456,
          "time": 134.02934475,
          "velocity": 1
        },
        {
          "duration": 0.17647049999999354,
          "durationTicks": 48,
          "midi": 60,
          "name": "C4",
          "ticks": 36552,
          "time": 134.38228575,
          "velocity": 1
        },
        {
          "duration": 0.17647050000002196,
          "durationTicks": 48,
          "midi": 61,
          "name": "C#4",
          "ticks": 36600,
          "time": 134.55875625,
          "velocity": 1
        },
        {
          "duration": 0.17647049999999354,
          "durationTicks": 48,
          "midi": 63,
          "name": "D#4",
          "ticks": 36696,
          "time": 134.91169725,
          "velocity": 1
        },
        {
          "duration": 0.17647049999999354,
          "durationTicks": 48,
          "midi": 65,
          "name": "F4",
          "ticks": 36744,
          "time": 135.08816775,
          "velocity": 1
        },
        {
          "duration": 0.17647050000002196,
          "durationTicks": 48,
          "midi": 70,
          "name": "A#4",
          "ticks": 36792,
          "time": 135.26463825,
          "velocity": 1
        },
        {
          "duration": 0.17647049999999354,
          "durationTicks": 48,
          "midi": 68,
          "name": "G#4",
          "ticks": 36840,
          "time": 135.44110875,
          "velocity": 1
        },
        {
          "duration": 0.17647049999999354,
          "durationTicks": 48,
          "midi": 65,
          "name": "F4",
          "ticks": 36888,
          "time": 135.61757925,
          "velocity": 1
        },
        {
          "duration": 0.17647049999999354,
          "durationTicks": 48,
          "midi": 63,
          "name": "D#4",
          "ticks": 36936,
          "time": 135.79404975,
          "velocity": 1
        },
        {
          "duration": 0.17647050000002196,
          "durationTicks": 48,
          "midi": 56,
          "name": "G#3",
          "ticks": 36984,
          "time": 135.97052025,
          "velocity": 1
        },
        {
          "duration": 0.17647049999999354,
          "durationTicks": 48,
          "midi": 58,
          "name": "A#3",
          "ticks": 37032,
          "time": 136.14699075000001,
          "velocity": 1
        },
        {
          "duration": 0.17647049999999354,
          "durationTicks": 48,
          "midi": 56,
          "name": "G#3",
          "ticks": 37176,
          "time": 136.67640225,
          "velocity": 1
        },
        {
          "duration": 0.3529410000000155,
          "durationTicks": 96,
          "midi": 58,
          "name": "A#3",
          "ticks": 37224,
          "time": 136.85287275,
          "velocity": 1
        },
        {
          "duration": 0.35294099999998707,
          "durationTicks": 96,
          "midi": 70,
          "name": "A#4",
          "ticks": 37320,
          "time": 137.20581375,
          "velocity": 1
        },
        {
          "duration": 0.3529410000000155,
          "durationTicks": 96,
          "midi": 69,
          "name": "A4",
          "ticks": 37416,
          "time": 137.55875475,
          "velocity": 1
        },
        {
          "duration": 0.35294099999998707,
          "durationTicks": 96,
          "midi": 65,
          "name": "F4",
          "ticks": 37512,
          "time": 137.91169575,
          "velocity": 1
        },
        {
          "duration": 0.3529410000000155,
          "durationTicks": 96,
          "midi": 72,
          "name": "C5",
          "ticks": 37608,
          "time": 138.26463675,
          "velocity": 1
        },
        {
          "duration": 0.35294099999998707,
          "durationTicks": 96,
          "midi": 73,
          "name": "C#5",
          "ticks": 37704,
          "time": 138.61757775,
          "velocity": 1
        },
        {
          "duration": 0.3529410000000155,
          "durationTicks": 96,
          "midi": 72,
          "name": "C5",
          "ticks": 37800,
          "time": 138.97051875,
          "velocity": 1
        },
        {
          "duration": 0.35294099999998707,
          "durationTicks": 96,
          "midi": 68,
          "name": "G#4",
          "ticks": 37896,
          "time": 139.32345975,
          "velocity": 1
        },
        {
          "duration": 0.17647049999999354,
          "durationTicks": 48,
          "midi": 65,
          "name": "F4",
          "ticks": 37992,
          "time": 139.67640075,
          "velocity": 1
        },
        {
          "duration": 0.17647049999999354,
          "durationTicks": 48,
          "midi": 61,
          "name": "C#4",
          "ticks": 38088,
          "time": 140.02934175000001,
          "velocity": 1
        },
        {
          "duration": 0.17647049999999354,
          "durationTicks": 48,
          "midi": 70,
          "name": "A#4",
          "ticks": 38136,
          "time": 140.20581225,
          "velocity": 1
        },
        {
          "duration": 0.17647049999999354,
          "durationTicks": 48,
          "midi": 68,
          "name": "G#4",
          "ticks": 38232,
          "time": 140.55875325,
          "velocity": 1
        },
        {
          "duration": 0.17647050000002196,
          "durationTicks": 48,
          "midi": 70,
          "name": "A#4",
          "ticks": 38280,
          "time": 140.73522375,
          "velocity": 1
        },
        {
          "duration": 0.35294099999998707,
          "durationTicks": 96,
          "midi": 65,
          "name": "F4",
          "ticks": 38328,
          "time": 140.91169425,
          "velocity": 1
        },
        {
          "duration": 0.17647049999999354,
          "durationTicks": 48,
          "midi": 63,
          "name": "D#4",
          "ticks": 38424,
          "time": 141.26463525,
          "velocity": 1
        },
        {
          "duration": 0.17647050000002196,
          "durationTicks": 48,
          "midi": 61,
          "name": "C#4",
          "ticks": 38472,
          "time": 141.44110575,
          "velocity": 1
        },
        {
          "duration": 0.35294099999998707,
          "durationTicks": 96,
          "midi": 70,
          "name": "A#4",
          "ticks": 38568,
          "time": 141.79404675,
          "velocity": 1
        },
        {
          "duration": 0.17647049999999354,
          "durationTicks": 48,
          "midi": 65,
          "name": "F4",
          "ticks": 38712,
          "time": 142.32345825000002,
          "velocity": 1
        },
        {
          "duration": 0.17647049999999354,
          "durationTicks": 48,
          "midi": 68,
          "name": "G#4",
          "ticks": 38760,
          "time": 142.49992875,
          "velocity": 1
        },
        {
          "duration": 0.17647049999999354,
          "durationTicks": 48,
          "midi": 70,
          "name": "A#4",
          "ticks": 38808,
          "time": 142.67639925,
          "velocity": 1
        },
        {
          "duration": 0.17647050000002196,
          "durationTicks": 48,
          "midi": 70,
          "name": "A#4",
          "ticks": 38904,
          "time": 143.02934025,
          "velocity": 1
        },
        {
          "duration": 0.17647049999999354,
          "durationTicks": 48,
          "midi": 68,
          "name": "G#4",
          "ticks": 38952,
          "time": 143.20581075,
          "velocity": 1
        },
        {
          "duration": 0.17647049999999354,
          "durationTicks": 48,
          "midi": 65,
          "name": "F4",
          "ticks": 39000,
          "time": 143.38228125,
          "velocity": 1
        },
        {
          "duration": 0.17647049999999354,
          "durationTicks": 48,
          "midi": 73,
          "name": "C#5",
          "ticks": 39048,
          "time": 143.55875175,
          "velocity": 1
        },
        {
          "duration": 0.17647050000002196,
          "durationTicks": 48,
          "midi": 72,
          "name": "C5",
          "ticks": 39096,
          "time": 143.73522225,
          "velocity": 1
        },
        {
          "duration": 0.17647049999999354,
          "durationTicks": 48,
          "midi": 68,
          "name": "G#4",
          "ticks": 39192,
          "time": 144.08816325,
          "velocity": 1
        },
        {
          "duration": 0.17647049999999354,
          "durationTicks": 48,
          "midi": 73,
          "name": "C#5",
          "ticks": 39240,
          "time": 144.26463375,
          "velocity": 1
        },
        {
          "duration": 0.17647049999999354,
          "durationTicks": 48,
          "midi": 72,
          "name": "C5",
          "ticks": 39288,
          "time": 144.44110425,
          "velocity": 1
        },
        {
          "duration": 0.17647049999999354,
          "durationTicks": 48,
          "midi": 68,
          "name": "G#4",
          "ticks": 39384,
          "time": 144.79404525,
          "velocity": 1
        },
        {
          "duration": 0.17647049999999354,
          "durationTicks": 48,
          "midi": 73,
          "name": "C#5",
          "ticks": 39432,
          "time": 144.97051575,
          "velocity": 1
        },
        {
          "duration": 0.17647049999999354,
          "durationTicks": 48,
          "midi": 72,
          "name": "C5",
          "ticks": 39480,
          "time": 145.14698625,
          "velocity": 1
        },
        {
          "duration": 0.17647049999999354,
          "durationTicks": 48,
          "midi": 68,
          "name": "G#4",
          "ticks": 39576,
          "time": 145.49992725,
          "velocity": 1
        },
        {
          "duration": 0.17647049999999354,
          "durationTicks": 48,
          "midi": 73,
          "name": "C#5",
          "ticks": 39624,
          "time": 145.67639775,
          "velocity": 1
        },
        {
          "duration": 0.17647049999999354,
          "durationTicks": 48,
          "midi": 72,
          "name": "C5",
          "ticks": 39672,
          "time": 145.85286825,
          "velocity": 1
        },
        {
          "duration": 0.17647049999999354,
          "durationTicks": 48,
          "midi": 68,
          "name": "G#4",
          "ticks": 39768,
          "time": 146.20580925000002,
          "velocity": 1
        },
        {
          "duration": 0.17647049999999354,
          "durationTicks": 48,
          "midi": 70,
          "name": "A#4",
          "ticks": 39816,
          "time": 146.38227975,
          "velocity": 1
        },
        {
          "duration": 0.17647049999999354,
          "durationTicks": 48,
          "midi": 70,
          "name": "A#4",
          "ticks": 39912,
          "time": 146.73522075,
          "velocity": 1
        },
        {
          "duration": 0.17647050000002196,
          "durationTicks": 48,
          "midi": 68,
          "name": "G#4",
          "ticks": 39960,
          "time": 146.91169125,
          "velocity": 1
        },
        {
          "duration": 0.17647049999999354,
          "durationTicks": 48,
          "midi": 65,
          "name": "F4",
          "ticks": 40008,
          "time": 147.08816175,
          "velocity": 1
        },
        {
          "duration": 0.17647049999999354,
          "durationTicks": 48,
          "midi": 63,
          "name": "D#4",
          "ticks": 40056,
          "time": 147.26463225,
          "velocity": 1
        },
        {
          "duration": 0.3529410000000155,
          "durationTicks": 96,
          "midi": 61,
          "name": "C#4",
          "ticks": 40104,
          "time": 147.44110275,
          "velocity": 1
        },
        {
          "duration": 0.35294099999998707,
          "durationTicks": 96,
          "midi": 58,
          "name": "A#3",
          "ticks": 40200,
          "time": 147.79404375000001,
          "velocity": 1
        },
        {
          "duration": 0.35294099999998707,
          "durationTicks": 96,
          "midi": 61,
          "name": "C#4",
          "ticks": 40296,
          "time": 148.14698475,
          "velocity": 1
        },
        {
          "duration": 0.3529410000000155,
          "durationTicks": 96,
          "midi": 70,
          "name": "A#4",
          "ticks": 40392,
          "time": 148.49992575,
          "velocity": 1
        },
        {
          "duration": 0.35294099999998707,
          "durationTicks": 96,
          "midi": 68,
          "name": "G#4",
          "ticks": 40488,
          "time": 148.85286675,
          "velocity": 1
        },
        {
          "duration": 0.17647049999999354,
          "durationTicks": 48,
          "midi": 68,
          "name": "G#4",
          "ticks": 40680,
          "time": 149.55874875,
          "velocity": 1
        },
        {
          "duration": 0.529411500000009,
          "durationTicks": 144,
          "midi": 69,
          "name": "A4",
          "ticks": 40728,
          "time": 149.73521925,
          "velocity": 1
        },
        {
          "duration": 0.17647049999999354,
          "durationTicks": 48,
          "midi": 62,
          "name": "D4",
          "ticks": 40872,
          "time": 150.26463075,
          "velocity": 1
        },
        {
          "duration": 0.35294099999998707,
          "durationTicks": 96,
          "midi": 69,
          "name": "A4",
          "ticks": 40920,
          "time": 150.44110125,
          "velocity": 1
        },
        {
          "duration": 0.17647050000002196,
          "durationTicks": 48,
          "midi": 62,
          "name": "D4",
          "ticks": 41016,
          "time": 150.79404225,
          "velocity": 1
        },
        {
          "duration": 0.35294099999998707,
          "durationTicks": 96,
          "midi": 69,
          "name": "A4",
          "ticks": 41064,
          "time": 150.97051275,
          "velocity": 1
        },
        {
          "duration": 0.17647049999999354,
          "durationTicks": 48,
          "midi": 62,
          "name": "D4",
          "ticks": 41160,
          "time": 151.32345375,
          "velocity": 1
        },
        {
          "duration": 0.3529410000000155,
          "durationTicks": 96,
          "midi": 72,
          "name": "C5",
          "ticks": 41208,
          "time": 151.49992425,
          "velocity": 1
        },
        {
          "duration": 0.17647049999999354,
          "durationTicks": 48,
          "midi": 74,
          "name": "D5",
          "ticks": 41304,
          "time": 151.85286525,
          "velocity": 1
        },
        {
          "duration": 0.17647049999999354,
          "durationTicks": 48,
          "midi": 69,
          "name": "A4",
          "ticks": 41352,
          "time": 152.02933575,
          "velocity": 1
        },
        {
          "duration": 0.17647049999999354,
          "durationTicks": 48,
          "midi": 72,
          "name": "C5",
          "ticks": 41400,
          "time": 152.20580625,
          "velocity": 1
        },
        {
          "duration": 0.17647050000002196,
          "durationTicks": 48,
          "midi": 67,
          "name": "G4",
          "ticks": 41448,
          "time": 152.38227675,
          "velocity": 1
        },
        {
          "duration": 0.17647049999999354,
          "durationTicks": 48,
          "midi": 69,
          "name": "A4",
          "ticks": 41544,
          "time": 152.73521775,
          "velocity": 1
        },
        {
          "duration": 0.17647050000002196,
          "durationTicks": 48,
          "midi": 60,
          "name": "C4",
          "ticks": 41640,
          "time": 153.08815875,
          "velocity": 1
        },
        {
          "duration": 0.35294099999998707,
          "durationTicks": 96,
          "midi": 67,
          "name": "G4",
          "ticks": 41688,
          "time": 153.26462925,
          "velocity": 1
        },
        {
          "duration": 0.17647049999999354,
          "durationTicks": 48,
          "midi": 60,
          "name": "C4",
          "ticks": 41784,
          "time": 153.61757025,
          "velocity": 1
        },
        {
          "duration": 0.17647050000002196,
          "durationTicks": 48,
          "midi": 67,
          "name": "G4",
          "ticks": 41832,
          "time": 153.79404075,
          "velocity": 1
        },
        {
          "duration": 0.17647049999999354,
          "durationTicks": 48,
          "midi": 64,
          "name": "E4",
          "ticks": 41928,
          "time": 154.14698175,
          "velocity": 1
        },
        {
          "duration": 0.17647049999999354,
          "durationTicks": 48,
          "midi": 65,
          "name": "F4",
          "ticks": 41976,
          "time": 154.32345225,
          "velocity": 1
        },
        {
          "duration": 0.17647050000002196,
          "durationTicks": 48,
          "midi": 67,
          "name": "G4",
          "ticks": 42072,
          "time": 154.67639325,
          "velocity": 1
        },
        {
          "duration": 0.17647049999999354,
          "durationTicks": 48,
          "midi": 69,
          "name": "A4",
          "ticks": 42120,
          "time": 154.85286375,
          "velocity": 1
        },
        {
          "duration": 0.17647049999999354,
          "durationTicks": 48,
          "midi": 74,
          "name": "D5",
          "ticks": 42168,
          "time": 155.02933425,
          "velocity": 1
        },
        {
          "duration": 0.17647049999999354,
          "durationTicks": 48,
          "midi": 72,
          "name": "C5",
          "ticks": 42216,
          "time": 155.20580475,
          "velocity": 1
        },
        {
          "duration": 0.17647050000002196,
          "durationTicks": 48,
          "midi": 69,
          "name": "A4",
          "ticks": 42264,
          "time": 155.38227525,
          "velocity": 1
        },
        {
          "duration": 0.17647049999999354,
          "durationTicks": 48,
          "midi": 67,
          "name": "G4",
          "ticks": 42312,
          "time": 155.55874575,
          "velocity": 1
        },
        {
          "duration": 0.17647049999999354,
          "durationTicks": 48,
          "midi": 60,
          "name": "C4",
          "ticks": 42360,
          "time": 155.73521625,
          "velocity": 1
        },
        {
          "duration": 0.35294099999998707,
          "durationTicks": 96,
          "midi": 62,
          "name": "D4",
          "ticks": 42408,
          "time": 155.91168675,
          "velocity": 1
        },
        {
          "duration": 0.3529410000000155,
          "durationTicks": 96,
          "midi": 64,
          "name": "E4",
          "ticks": 42504,
          "time": 156.26462775,
          "velocity": 1
        },
        {
          "duration": 0.35294099999998707,
          "durationTicks": 96,
          "midi": 65,
          "name": "F4",
          "ticks": 42600,
          "time": 156.61756875,
          "velocity": 1
        },
        {
          "duration": 0.3529410000000155,
          "durationTicks": 96,
          "midi": 74,
          "name": "D5",
          "ticks": 42696,
          "time": 156.97050975,
          "velocity": 1
        },
        {
          "duration": 0.35294099999998707,
          "durationTicks": 96,
          "midi": 73,
          "name": "C#5",
          "ticks": 42792,
          "time": 157.32345075,
          "velocity": 1
        },
        {
          "duration": 0.3529410000000155,
          "durationTicks": 96,
          "midi": 69,
          "name": "A4",
          "ticks": 42888,
          "time": 157.67639175,
          "velocity": 1
        },
        {
          "duration": 0.35294099999998707,
          "durationTicks": 96,
          "midi": 76,
          "name": "E5",
          "ticks": 42984,
          "time": 158.02933275,
          "velocity": 1
        },
        {
          "duration": 0.3529410000000155,
          "durationTicks": 96,
          "midi": 77,
          "name": "F5",
          "ticks": 43080,
          "time": 158.38227375,
          "velocity": 1
        },
        {
          "duration": 0.35294099999998707,
          "durationTicks": 96,
          "midi": 76,
          "name": "E5",
          "ticks": 43176,
          "time": 158.73521475,
          "velocity": 1
        },
        {
          "duration": 0.3529410000000155,
          "durationTicks": 96,
          "midi": 72,
          "name": "C5",
          "ticks": 43272,
          "time": 159.08815575,
          "velocity": 1
        },
        {
          "duration": 0.17647049999999354,
          "durationTicks": 48,
          "midi": 69,
          "name": "A4",
          "ticks": 43368,
          "time": 159.44109675,
          "velocity": 1
        },
        {
          "duration": 0.17647049999999354,
          "durationTicks": 48,
          "midi": 65,
          "name": "F4",
          "ticks": 43464,
          "time": 159.79403775,
          "velocity": 1
        },
        {
          "duration": 0.3529410000000155,
          "durationTicks": 96,
          "midi": 74,
          "name": "D5",
          "ticks": 43512,
          "time": 159.97050825,
          "velocity": 1
        },
        {
          "duration": 0.17647049999999354,
          "durationTicks": 48,
          "midi": 72,
          "name": "C5",
          "ticks": 43608,
          "time": 160.32344925,
          "velocity": 1
        },
        {
          "duration": 0.17647049999999354,
          "durationTicks": 48,
          "midi": 74,
          "name": "D5",
          "ticks": 43656,
          "time": 160.49991975,
          "velocity": 1
        },
        {
          "duration": 0.3529410000000155,
          "durationTicks": 96,
          "midi": 69,
          "name": "A4",
          "ticks": 43704,
          "time": 160.67639025,
          "velocity": 1
        },
        {
          "duration": 0.17647049999999354,
          "durationTicks": 48,
          "midi": 67,
          "name": "G4",
          "ticks": 43800,
          "time": 161.02933125,
          "velocity": 1
        },
        {
          "duration": 0.17647049999999354,
          "durationTicks": 48,
          "midi": 65,
          "name": "F4",
          "ticks": 43848,
          "time": 161.20580175,
          "velocity": 1
        },
        {
          "duration": 0.3529410000000155,
          "durationTicks": 96,
          "midi": 74,
          "name": "D5",
          "ticks": 43944,
          "time": 161.55874275,
          "velocity": 1
        },
        {
          "duration": 0.17647049999999354,
          "durationTicks": 48,
          "midi": 69,
          "name": "A4",
          "ticks": 44088,
          "time": 162.08815425,
          "velocity": 1
        },
        {
          "duration": 0.17647049999999354,
          "durationTicks": 48,
          "midi": 72,
          "name": "C5",
          "ticks": 44136,
          "time": 162.26462475,
          "velocity": 1
        },
        {
          "duration": 0.17647050000002196,
          "durationTicks": 48,
          "midi": 74,
          "name": "D5",
          "ticks": 44184,
          "time": 162.44109525,
          "velocity": 1
        },
        {
          "duration": 0.17647049999999354,
          "durationTicks": 48,
          "midi": 74,
          "name": "D5",
          "ticks": 44280,
          "time": 162.79403625,
          "velocity": 1
        },
        {
          "duration": 0.17647049999999354,
          "durationTicks": 48,
          "midi": 72,
          "name": "C5",
          "ticks": 44328,
          "time": 162.97050675,
          "velocity": 1
        },
        {
          "duration": 0.17647050000002196,
          "durationTicks": 48,
          "midi": 69,
          "name": "A4",
          "ticks": 44376,
          "time": 163.14697725,
          "velocity": 1
        },
        {
          "duration": 0.17647049999999354,
          "durationTicks": 48,
          "midi": 77,
          "name": "F5",
          "ticks": 44424,
          "time": 163.32344775,
          "velocity": 1
        },
        {
          "duration": 0.17647049999999354,
          "durationTicks": 48,
          "midi": 76,
          "name": "E5",
          "ticks": 44472,
          "time": 163.49991825,
          "velocity": 1
        },
        {
          "duration": 0.17647049999999354,
          "durationTicks": 48,
          "midi": 72,
          "name": "C5",
          "ticks": 44568,
          "time": 163.85285925,
          "velocity": 1
        },
        {
          "duration": 0.17647050000002196,
          "durationTicks": 48,
          "midi": 77,
          "name": "F5",
          "ticks": 44616,
          "time": 164.02932975,
          "velocity": 1
        },
        {
          "duration": 0.17647049999999354,
          "durationTicks": 48,
          "midi": 76,
          "name": "E5",
          "ticks": 44664,
          "time": 164.20580025,
          "velocity": 1
        },
        {
          "duration": 0.17647049999999354,
          "durationTicks": 48,
          "midi": 72,
          "name": "C5",
          "ticks": 44760,
          "time": 164.55874125,
          "velocity": 1
        },
        {
          "duration": 0.17647050000002196,
          "durationTicks": 48,
          "midi": 77,
          "name": "F5",
          "ticks": 44808,
          "time": 164.73521175,
          "velocity": 1
        },
        {
          "duration": 0.35294099999998707,
          "durationTicks": 96,
          "midi": 76,
          "name": "E5",
          "ticks": 44856,
          "time": 164.91168225,
          "velocity": 1
        },
        {
          "duration": 0.17647049999999354,
          "durationTicks": 48,
          "midi": 72,
          "name": "C5",
          "ticks": 44952,
          "time": 165.26462325,
          "velocity": 1
        },
        {
          "duration": 0.17647050000002196,
          "durationTicks": 48,
          "midi": 77,
          "name": "F5",
          "ticks": 45000,
          "time": 165.44109375,
          "velocity": 1
        },
        {
          "duration": 0.35294099999998707,
          "durationTicks": 96,
          "midi": 76,
          "name": "E5",
          "ticks": 45048,
          "time": 165.61756425000002,
          "velocity": 1
        },
        {
          "duration": 0.17647049999999354,
          "durationTicks": 48,
          "midi": 72,
          "name": "C5",
          "ticks": 45144,
          "time": 165.97050525,
          "velocity": 1
        },
        {
          "duration": 0.17647049999999354,
          "durationTicks": 48,
          "midi": 74,
          "name": "D5",
          "ticks": 45192,
          "time": 166.14697575,
          "velocity": 1
        },
        {
          "duration": 0.17647049999999354,
          "durationTicks": 48,
          "midi": 74,
          "name": "D5",
          "ticks": 45288,
          "time": 166.49991675,
          "velocity": 1
        },
        {
          "duration": 0.17647049999999354,
          "durationTicks": 48,
          "midi": 72,
          "name": "C5",
          "ticks": 45336,
          "time": 166.67638725,
          "velocity": 1
        },
        {
          "duration": 0.17647049999999354,
          "durationTicks": 48,
          "midi": 69,
          "name": "A4",
          "ticks": 45384,
          "time": 166.85285775,
          "velocity": 1
        },
        {
          "duration": 0.17647050000002196,
          "durationTicks": 48,
          "midi": 67,
          "name": "G4",
          "ticks": 45432,
          "time": 167.02932825,
          "velocity": 1
        },
        {
          "duration": 0.35294099999998707,
          "durationTicks": 96,
          "midi": 65,
          "name": "F4",
          "ticks": 45480,
          "time": 167.20579875,
          "velocity": 1
        },
        {
          "duration": 0.3529410000000155,
          "durationTicks": 96,
          "midi": 62,
          "name": "D4",
          "ticks": 45576,
          "time": 167.55873975,
          "velocity": 1
        },
        {
          "duration": 0.35294099999998707,
          "durationTicks": 96,
          "midi": 65,
          "name": "F4",
          "ticks": 45672,
          "time": 167.91168075000002,
          "velocity": 1
        },
        {
          "duration": 0.35294099999998707,
          "durationTicks": 96,
          "midi": 74,
          "name": "D5",
          "ticks": 45768,
          "time": 168.26462175,
          "velocity": 1
        },
        {
          "duration": 0.3529410000000155,
          "durationTicks": 96,
          "midi": 72,
          "name": "C5",
          "ticks": 45864,
          "time": 168.61756275,
          "velocity": 1
        },
        {
          "duration": 0.35294099999998707,
          "durationTicks": 96,
          "midi": 69,
          "name": "A4",
          "ticks": 45960,
          "time": 168.97050375,
          "velocity": 1
        },
        {
          "duration": 0.3529410000000155,
          "durationTicks": 96,
          "midi": 62,
          "name": "D4",
          "ticks": 46056,
          "time": 169.32344475,
          "velocity": 1
        },
        {
          "duration": 0.35294099999998707,
          "durationTicks": 96,
          "midi": 64,
          "name": "E4",
          "ticks": 46152,
          "time": 169.67638575,
          "velocity": 1
        },
        {
          "duration": 2.8235280000000103,
          "durationTicks": 768,
          "midi": 65,
          "name": "F4",
          "ticks": 46248,
          "time": 170.02932675,
          "velocity": 1
        },
        {
          "duration": 0.17647049999999354,
          "durationTicks": 48,
          "midi": 69,
          "name": "A4",
          "ticks": 49176,
          "time": 180.79402725,
          "velocity": 1
        },
        {
          "duration": 0.17647050000002196,
          "durationTicks": 48,
          "midi": 72,
          "name": "C5",
          "ticks": 49224,
          "time": 180.97049775,
          "velocity": 1
        },
        {
          "duration": 0.17647049999999354,
          "durationTicks": 48,
          "midi": 69,
          "name": "A4",
          "ticks": 49272,
          "time": 181.14696825000001,
          "velocity": 1
        },
        {
          "duration": 0.17647049999999354,
          "durationTicks": 48,
          "midi": 72,
          "name": "C5",
          "ticks": 49320,
          "time": 181.32343875,
          "velocity": 1
        },
        {
          "duration": 0.17647049999999354,
          "durationTicks": 48,
          "midi": 74,
          "name": "D5",
          "ticks": 49368,
          "time": 181.49990925,
          "velocity": 1
        },
        {
          "duration": 0.17647050000002196,
          "durationTicks": 48,
          "midi": 69,
          "name": "A4",
          "ticks": 49464,
          "time": 181.85285025,
          "velocity": 1
        },
        {
          "duration": 0.17647049999999354,
          "durationTicks": 48,
          "midi": 72,
          "name": "C5",
          "ticks": 49512,
          "time": 182.02932075,
          "velocity": 1
        },
        {
          "duration": 0.17647049999999354,
          "durationTicks": 48,
          "midi": 74,
          "name": "D5",
          "ticks": 49560,
          "time": 182.20579125,
          "velocity": 1
        },
        {
          "duration": 0.17647050000002196,
          "durationTicks": 48,
          "midi": 69,
          "name": "A4",
          "ticks": 49656,
          "time": 182.55873225,
          "velocity": 1
        },
        {
          "duration": 0.17647049999999354,
          "durationTicks": 48,
          "midi": 72,
          "name": "C5",
          "ticks": 49704,
          "time": 182.73520275,
          "velocity": 1
        },
        {
          "duration": 0.17647049999999354,
          "durationTicks": 48,
          "midi": 74,
          "name": "D5",
          "ticks": 49752,
          "time": 182.91167325,
          "velocity": 1
        },
        {
          "duration": 0.17647049999999354,
          "durationTicks": 48,
          "midi": 77,
          "name": "F5",
          "ticks": 49800,
          "time": 183.08814375,
          "velocity": 1
        },
        {
          "duration": 0.17647050000002196,
          "durationTicks": 48,
          "midi": 76,
          "name": "E5",
          "ticks": 49848,
          "time": 183.26461425,
          "velocity": 1
        },
        {
          "duration": 0.17647049999999354,
          "durationTicks": 48,
          "midi": 72,
          "name": "C5",
          "ticks": 49944,
          "time": 183.61755525,
          "velocity": 1
        },
        {
          "duration": 0.17647049999999354,
          "durationTicks": 48,
          "midi": 77,
          "name": "F5",
          "ticks": 49992,
          "time": 183.79402575,
          "velocity": 1
        },
        {
          "duration": 0.17647049999999354,
          "durationTicks": 48,
          "midi": 76,
          "name": "E5",
          "ticks": 50040,
          "time": 183.97049625,
          "velocity": 1
        },
        {
          "duration": 0.17647049999999354,
          "durationTicks": 48,
          "midi": 72,
          "name": "C5",
          "ticks": 50136,
          "time": 184.32343725,
          "velocity": 1
        },
        {
          "duration": 0.17647049999999354,
          "durationTicks": 48,
          "midi": 77,
          "name": "F5",
          "ticks": 50184,
          "time": 184.49990775,
          "velocity": 1
        },
        {
          "duration": 0.17647049999999354,
          "durationTicks": 48,
          "midi": 76,
          "name": "E5",
          "ticks": 50232,
          "time": 184.67637825,
          "velocity": 1
        },
        {
          "duration": 0.17647049999999354,
          "durationTicks": 48,
          "midi": 72,
          "name": "C5",
          "ticks": 50328,
          "time": 185.02931925000001,
          "velocity": 1
        },
        {
          "duration": 0.17647049999999354,
          "durationTicks": 48,
          "midi": 77,
          "name": "F5",
          "ticks": 50376,
          "time": 185.20578975,
          "velocity": 1
        },
        {
          "duration": 0.35294099999998707,
          "durationTicks": 96,
          "midi": 76,
          "name": "E5",
          "ticks": 50424,
          "time": 185.38226025,
          "velocity": 1
        },
        {
          "duration": 0.17647050000002196,
          "durationTicks": 48,
          "midi": 72,
          "name": "C5",
          "ticks": 50520,
          "time": 185.73520125,
          "velocity": 1
        },
        {
          "duration": 0.17647049999999354,
          "durationTicks": 48,
          "midi": 74,
          "name": "D5",
          "ticks": 50568,
          "time": 185.91167175,
          "velocity": 1
        },
        {
          "duration": 0.17647049999999354,
          "durationTicks": 48,
          "midi": 74,
          "name": "D5",
          "ticks": 50664,
          "time": 186.26461275,
          "velocity": 1
        },
        {
          "duration": 0.17647050000002196,
          "durationTicks": 48,
          "midi": 72,
          "name": "C5",
          "ticks": 50712,
          "time": 186.44108325,
          "velocity": 1
        },
        {
          "duration": 0.17647049999999354,
          "durationTicks": 48,
          "midi": 69,
          "name": "A4",
          "ticks": 50760,
          "time": 186.61755375,
          "velocity": 1
        },
        {
          "duration": 0.17647049999999354,
          "durationTicks": 48,
          "midi": 67,
          "name": "G4",
          "ticks": 50808,
          "time": 186.79402425,
          "velocity": 1
        },
        {
          "duration": 0.3529410000000155,
          "durationTicks": 96,
          "midi": 65,
          "name": "F4",
          "ticks": 50856,
          "time": 186.97049475,
          "velocity": 1
        },
        {
          "duration": 0.35294099999998707,
          "durationTicks": 96,
          "midi": 62,
          "name": "D4",
          "ticks": 50952,
          "time": 187.32343575000002,
          "velocity": 1
        },
        {
          "duration": 0.35294099999998707,
          "durationTicks": 96,
          "midi": 65,
          "name": "F4",
          "ticks": 51048,
          "time": 187.67637675,
          "velocity": 1
        },
        {
          "duration": 0.3529410000000155,
          "durationTicks": 96,
          "midi": 69,
          "name": "A4",
          "ticks": 51144,
          "time": 188.02931775,
          "velocity": 1
        },
        {
          "duration": 0.35294099999998707,
          "durationTicks": 96,
          "midi": 72,
          "name": "C5",
          "ticks": 51240,
          "time": 188.38225875,
          "velocity": 1
        },
        {
          "duration": 0.3529410000000155,
          "durationTicks": 96,
          "midi": 69,
          "name": "A4",
          "ticks": 51336,
          "time": 188.73519975,
          "velocity": 1
        },
        {
          "duration": 0.35294099999998707,
          "durationTicks": 96,
          "midi": 72,
          "name": "C5",
          "ticks": 51432,
          "time": 189.08814075,
          "velocity": 1
        },
        {
          "duration": 0.3529410000000155,
          "durationTicks": 96,
          "midi": 74,
          "name": "D5",
          "ticks": 51528,
          "time": 189.44108175,
          "velocity": 1
        }
      ],
      "endOfTrackTicks": 54907
    },
    {
      "channel": 0,
      "controlChanges": {
        "6": [
          {
            "number": 6,
            "ticks": 0,
            "time": 0,
            "value": 0.09448818897637795
          },
          {
            "number": 6,
            "ticks": 0,
            "time": 0,
            "value": 0.09448818897637795
          },
          {
            "number": 6,
            "ticks": 0,
            "time": 0,
            "value": 0.09448818897637795
          },
          {
            "number": 6,
            "ticks": 54744,
            "time": 201.26460525000002,
            "value": 0.09448818897637795
          },
          {
            "number": 6,
            "ticks": 54907,
            "time": 201.86386965625,
            "value": 0.09448818897637795
          }
        ],
        "7": [
          {
            "number": 7,
            "ticks": 0,
            "time": 0,
            "value": 0.7874015748031497
          },
          {
            "number": 7,
            "ticks": 0,
            "time": 0,
            "value": 0.7874015748031497
          },
          {
            "number": 7,
            "ticks": 0,
            "time": 0,
            "value": 0.7874015748031497
          },
          {
            "number": 7,
            "ticks": 0,
            "time": 0,
            "value": 0.7874015748031497
          },
          {
            "number": 7,
            "ticks": 54744,
            "time": 201.26460525000002,
            "value": 0.7874015748031497
          },
          {
            "number": 7,
            "ticks": 54907,
            "time": 201.86386965625,
            "value": 0.7874015748031497
          }
        ],
        "10": [
          {
            "number": 10,
            "ticks": 0,
            "time": 0,
            "value": 0.5039370078740157
          },
          {
            "number": 10,
            "ticks": 0,
            "time": 0,
            "value": 0.5039370078740157
          },
          {
            "number": 10,
            "ticks": 0,
            "time": 0,
            "value": 0.5039370078740157
          },
          {
            "number": 10,
            "ticks": 0,
            "time": 0,
            "value": 0.5039370078740157
          },
          {
            "number": 10,
            "ticks": 54744,
            "time": 201.26460525000002,
            "value": 0.5039370078740157
          },
          {
            "number": 10,
            "ticks": 54907,
            "time": 201.86386965625,
            "value": 0.5039370078740157
          }
        ],
        "100": [
          {
            "number": 100,
            "ticks": 0,
            "time": 0,
            "value": 0
          },
          {
            "number": 100,
            "ticks": 0,
            "time": 0,
            "value": 0
          },
          {
            "number": 100,
            "ticks": 0,
            "time": 0,
            "value": 0
          },
          {
            "number": 100,
            "ticks": 54744,
            "time": 201.26460525000002,
            "value": 0
          },
          {
            "number": 100,
            "ticks": 54907,
            "time": 201.86386965625,
            "value": 0
          }
        ],
        "101": [
          {
            "number": 101,
            "ticks": 0,
            "time": 0,
            "value": 0
          },
          {
            "number": 101,
            "ticks": 0,
            "time": 0,
            "value": 0
          },
          {
            "number": 101,
            "ticks": 0,
            "time": 0,
            "value": 0
          },
          {
            "number": 101,
            "ticks": 54744,
            "time": 201.26460525000002,
            "value": 0
          },
          {
            "number": 101,
            "ticks": 54907,
            "time": 201.86386965625,
            "value": 0
          }
        ]
      },
      "pitchBends": [
        {
          "ticks": 0,
          "time": 0,
          "value": 0
        },
        {
          "ticks": 0,
          "time": 0,
          "value": 0
        },
        {
          "ticks": 0,
          "time": 0,
          "value": 0
        },
        {
          "ticks": 0,
          "time": 0,
          "value": 0
        },
        {
          "ticks": 54744,
          "time": 201.26460525000002,
          "value": 0
        },
        {
          "ticks": 54907,
          "time": 201.86386965625,
          "value": 0
        }
      ],
      "instrument": {
        "family": "piano",
        "number": 0,
        "name": "acoustic grand piano"
      },
      "name": "MIDI Out",
      "notes": [
        {
          "duration": 0.17647049999999997,
          "durationTicks": 48,
          "midi": 39,
          "name": "D#2",
          "ticks": 168,
          "time": 0.61764675,
          "velocity": 1
        },
        {
          "duration": 0.17647049999999997,
          "durationTicks": 48,
          "midi": 44,
          "name": "G#2",
          "ticks": 168,
          "time": 0.61764675,
          "velocity": 1
        },
        {
          "duration": 0.17647049999999997,
          "durationTicks": 48,
          "midi": 32,
          "name": "G#1",
          "ticks": 216,
          "time": 0.79411725,
          "velocity": 1
        },
        {
          "duration": 0.17647049999999997,
          "durationTicks": 48,
          "midi": 39,
          "name": "D#2",
          "ticks": 264,
          "time": 0.97058775,
          "velocity": 1
        },
        {
          "duration": 0.17647049999999997,
          "durationTicks": 48,
          "midi": 44,
          "name": "G#2",
          "ticks": 264,
          "time": 0.97058775,
          "velocity": 1
        },
        {
          "duration": 0.17647049999999997,
          "durationTicks": 48,
          "midi": 32,
          "name": "G#1",
          "ticks": 312,
          "time": 1.14705825,
          "velocity": 1
        },
        {
          "duration": 0.1764705000000002,
          "durationTicks": 48,
          "midi": 39,
          "name": "D#2",
          "ticks": 360,
          "time": 1.32352875,
          "velocity": 1
        },
        {
          "duration": 0.1764705000000002,
          "durationTicks": 48,
          "midi": 44,
          "name": "G#2",
          "ticks": 360,
          "time": 1.32352875,
          "velocity": 1
        },
        {
          "duration": 0.17647049999999997,
          "durationTicks": 48,
          "midi": 32,
          "name": "G#1",
          "ticks": 408,
          "time": 1.4999992500000001,
          "velocity": 1
        },
        {
          "duration": 0.17647049999999997,
          "durationTicks": 48,
          "midi": 39,
          "name": "D#2",
          "ticks": 456,
          "time": 1.67646975,
          "velocity": 1
        },
        {
          "duration": 0.17647049999999997,
          "durationTicks": 48,
          "midi": 44,
          "name": "G#2",
          "ticks": 456,
          "time": 1.67646975,
          "velocity": 1
        },
        {
          "duration": 0.17647049999999975,
          "durationTicks": 48,
          "midi": 32,
          "name": "G#1",
          "ticks": 504,
          "time": 1.85294025,
          "velocity": 1
        },
        {
          "duration": 0.1764705000000002,
          "durationTicks": 48,
          "midi": 39,
          "name": "D#2",
          "ticks": 552,
          "time": 2.02941075,
          "velocity": 1
        },
        {
          "duration": 0.1764705000000002,
          "durationTicks": 48,
          "midi": 44,
          "name": "G#2",
          "ticks": 552,
          "time": 2.02941075,
          "velocity": 1
        },
        {
          "duration": 0.1764705000000002,
          "durationTicks": 48,
          "midi": 32,
          "name": "G#1",
          "ticks": 600,
          "time": 2.20588125,
          "velocity": 1
        },
        {
          "duration": 0.17647049999999975,
          "durationTicks": 48,
          "midi": 39,
          "name": "D#2",
          "ticks": 648,
          "time": 2.38235175,
          "velocity": 1
        },
        {
          "duration": 0.17647049999999975,
          "durationTicks": 48,
          "midi": 44,
          "name": "G#2",
          "ticks": 648,
          "time": 2.38235175,
          "velocity": 1
        },
        {
          "duration": 0.1764705000000002,
          "durationTicks": 48,
          "midi": 32,
          "name": "G#1",
          "ticks": 696,
          "time": 2.55882225,
          "velocity": 1
        },
        {
          "duration": 0.17647049999999975,
          "durationTicks": 48,
          "midi": 39,
          "name": "D#2",
          "ticks": 744,
          "time": 2.73529275,
          "velocity": 1
        },
        {
          "duration": 0.17647049999999975,
          "durationTicks": 48,
          "midi": 44,
          "name": "G#2",
          "ticks": 744,
          "time": 2.73529275,
          "velocity": 1
        },
        {
          "duration": 0.1764705000000002,
          "durationTicks": 48,
          "midi": 32,
          "name": "G#1",
          "ticks": 792,
          "time": 2.91176325,
          "velocity": 1
        },
        {
          "duration": 0.17647049999999975,
          "durationTicks": 48,
          "midi": 39,
          "name": "D#2",
          "ticks": 840,
          "time": 3.08823375,
          "velocity": 1
        },
        {
          "duration": 0.17647049999999975,
          "durationTicks": 48,
          "midi": 44,
          "name": "G#2",
          "ticks": 840,
          "time": 3.08823375,
          "velocity": 1
        },
        {
          "duration": 0.1764705000000002,
          "durationTicks": 48,
          "midi": 32,
          "name": "G#1",
          "ticks": 888,
          "time": 3.26470425,
          "velocity": 1
        },
        {
          "duration": 0.1764705000000002,
          "durationTicks": 48,
          "midi": 39,
          "name": "D#2",
          "ticks": 936,
          "time": 3.44117475,
          "velocity": 1
        },
        {
          "duration": 0.1764705000000002,
          "durationTicks": 48,
          "midi": 44,
          "name": "G#2",
          "ticks": 936,
          "time": 3.44117475,
          "velocity": 1
        },
        {
          "duration": 0.17647049999999975,
          "durationTicks": 48,
          "midi": 32,
          "name": "G#1",
          "ticks": 984,
          "time": 3.6176452500000003,
          "velocity": 1
        },
        {
          "duration": 0.1764705000000002,
          "durationTicks": 48,
          "midi": 39,
          "name": "D#2",
          "ticks": 1032,
          "time": 3.79411575,
          "velocity": 1
        },
        {
          "duration": 0.1764705000000002,
          "durationTicks": 48,
          "midi": 44,
          "name": "G#2",
          "ticks": 1032,
          "time": 3.79411575,
          "velocity": 1
        },
        {
          "duration": 0.17647049999999975,
          "durationTicks": 48,
          "midi": 32,
          "name": "G#1",
          "ticks": 1080,
          "time": 3.97058625,
          "velocity": 1
        },
        {
          "duration": 0.17647049999999975,
          "durationTicks": 48,
          "midi": 39,
          "name": "D#2",
          "ticks": 1128,
          "time": 4.14705675,
          "velocity": 1
        },
        {
          "duration": 0.17647049999999975,
          "durationTicks": 48,
          "midi": 44,
          "name": "G#2",
          "ticks": 1128,
          "time": 4.14705675,
          "velocity": 1
        },
        {
          "duration": 0.17647050000000064,
          "durationTicks": 48,
          "midi": 32,
          "name": "G#1",
          "ticks": 1176,
          "time": 4.32352725,
          "velocity": 1
        },
        {
          "duration": 0.17647049999999975,
          "durationTicks": 48,
          "midi": 39,
          "name": "D#2",
          "ticks": 1224,
          "time": 4.49999775,
          "velocity": 1
        },
        {
          "duration": 0.17647049999999975,
          "durationTicks": 48,
          "midi": 44,
          "name": "G#2",
          "ticks": 1224,
          "time": 4.49999775,
          "velocity": 1
        },
        {
          "duration": 0.17647049999999975,
          "durationTicks": 48,
          "midi": 32,
          "name": "G#1",
          "ticks": 1272,
          "time": 4.67646825,
          "velocity": 1
        },
        {
          "duration": 0.17647050000000064,
          "durationTicks": 48,
          "midi": 39,
          "name": "D#2",
          "ticks": 1320,
          "time": 4.85293875,
          "velocity": 1
        },
        {
          "duration": 0.17647050000000064,
          "durationTicks": 48,
          "midi": 44,
          "name": "G#2",
          "ticks": 1320,
          "time": 4.85293875,
          "velocity": 1
        },
        {
          "duration": 0.17647049999999975,
          "durationTicks": 48,
          "midi": 32,
          "name": "G#1",
          "ticks": 1368,
          "time": 5.0294092500000005,
          "velocity": 1
        },
        {
          "duration": 0.17647049999999975,
          "durationTicks": 48,
          "midi": 39,
          "name": "D#2",
          "ticks": 1416,
          "time": 5.20587975,
          "velocity": 1
        },
        {
          "duration": 0.17647049999999975,
          "durationTicks": 48,
          "midi": 44,
          "name": "G#2",
          "ticks": 1416,
          "time": 5.20587975,
          "velocity": 1
        },
        {
          "duration": 0.17647049999999975,
          "durationTicks": 48,
          "midi": 32,
          "name": "G#1",
          "ticks": 1464,
          "time": 5.38235025,
          "velocity": 1
        },
        {
          "duration": 0.17647050000000064,
          "durationTicks": 48,
          "midi": 39,
          "name": "D#2",
          "ticks": 1512,
          "time": 5.55882075,
          "velocity": 1
        },
        {
          "duration": 0.17647050000000064,
          "durationTicks": 48,
          "midi": 44,
          "name": "G#2",
          "ticks": 1512,
          "time": 5.55882075,
          "velocity": 1
        },
        {
          "duration": 0.17647049999999975,
          "durationTicks": 48,
          "midi": 32,
          "name": "G#1",
          "ticks": 1560,
          "time": 5.73529125,
          "velocity": 1
        },
        {
          "duration": 0.17647049999999975,
          "durationTicks": 48,
          "midi": 39,
          "name": "D#2",
          "ticks": 1608,
          "time": 5.91176175,
          "velocity": 1
        },
        {
          "duration": 0.17647049999999975,
          "durationTicks": 48,
          "midi": 44,
          "name": "G#2",
          "ticks": 1608,
          "time": 5.91176175,
          "velocity": 1
        },
        {
          "duration": 0.17647049999999975,
          "durationTicks": 48,
          "midi": 32,
          "name": "G#1",
          "ticks": 1656,
          "time": 6.08823225,
          "velocity": 1
        },
        {
          "duration": 0.3529410000000004,
          "durationTicks": 96,
          "midi": 28,
          "name": "E1",
          "ticks": 1704,
          "time": 6.26470275,
          "velocity": 1
        },
        {
          "duration": 0.17647049999999975,
          "durationTicks": 48,
          "midi": 40,
          "name": "E2",
          "ticks": 1800,
          "time": 6.61764375,
          "velocity": 1
        },
        {
          "duration": 0.17647050000000064,
          "durationTicks": 48,
          "midi": 28,
          "name": "E1",
          "ticks": 1848,
          "time": 6.79411425,
          "velocity": 1
        },
        {
          "duration": 0.3529409999999995,
          "durationTicks": 96,
          "midi": 28,
          "name": "E1",
          "ticks": 1896,
          "time": 6.97058475,
          "velocity": 1
        },
        {
          "duration": 0.17647049999999975,
          "durationTicks": 48,
          "midi": 40,
          "name": "E2",
          "ticks": 1992,
          "time": 7.32352575,
          "velocity": 1
        },
        {
          "duration": 0.17647050000000064,
          "durationTicks": 48,
          "midi": 28,
          "name": "E1",
          "ticks": 2040,
          "time": 7.49999625,
          "velocity": 1
        },
        {
          "duration": 0.3529410000000004,
          "durationTicks": 96,
          "midi": 27,
          "name": "D#1",
          "ticks": 2088,
          "time": 7.67646675,
          "velocity": 1
        },
        {
          "duration": 0.17647049999999886,
          "durationTicks": 48,
          "midi": 39,
          "name": "D#2",
          "ticks": 2184,
          "time": 8.02940775,
          "velocity": 1
        },
        {
          "duration": 0.3529410000000013,
          "durationTicks": 96,
          "midi": 27,
          "name": "D#1",
          "ticks": 2232,
          "time": 8.20587825,
          "velocity": 1
        },
        {
          "duration": 0.17647049999999886,
          "durationTicks": 48,
          "midi": 27,
          "name": "D#1",
          "ticks": 2328,
          "time": 8.55881925,
          "velocity": 1
        },
        {
          "duration": 0.17647050000000064,
          "durationTicks": 48,
          "midi": 39,
          "name": "D#2",
          "ticks": 2376,
          "time": 8.73528975,
          "velocity": 1
        },
        {
          "duration": 0.17647049999999886,
          "durationTicks": 48,
          "midi": 27,
          "name": "D#1",
          "ticks": 2424,
          "time": 8.91176025,
          "velocity": 1
        },
        {
          "duration": 0.3529410000000013,
          "durationTicks": 96,
          "midi": 32,
          "name": "G#1",
          "ticks": 2472,
          "time": 9.08823075,
          "velocity": 1
        },
        {
          "duration": 0.17647049999999886,
          "durationTicks": 48,
          "midi": 44,
          "name": "G#2",
          "ticks": 2568,
          "time": 9.44117175,
          "velocity": 1
        },
        {
          "duration": 0.17647050000000064,
          "durationTicks": 48,
          "midi": 32,
          "name": "G#1",
          "ticks": 2616,
          "time": 9.61764225,
          "velocity": 1
        },
        {
          "duration": 0.3529409999999995,
          "durationTicks": 96,
          "midi": 32,
          "name": "G#1",
          "ticks": 2664,
          "time": 9.79411275,
          "velocity": 1
        },
        {
          "duration": 0.17647050000000064,
          "durationTicks": 48,
          "midi": 44,
          "name": "G#2",
          "ticks": 2760,
          "time": 10.14705375,
          "velocity": 1
        },
        {
          "duration": 0.17647050000000064,
          "durationTicks": 48,
          "midi": 32,
          "name": "G#1",
          "ticks": 2808,
          "time": 10.32352425,
          "velocity": 1
        },
        {
          "duration": 0.3529409999999995,
          "durationTicks": 96,
          "midi": 32,
          "name": "G#1",
          "ticks": 2856,
          "time": 10.49999475,
          "velocity": 1
        },
        {
          "duration": 0.17647050000000064,
          "durationTicks": 48,
          "midi": 44,
          "name": "G#2",
          "ticks": 2952,
          "time": 10.85293575,
          "velocity": 1
        },
        {
          "duration": 0.17647049999999886,
          "durationTicks": 48,
          "midi": 32,
          "name": "G#1",
          "ticks": 3000,
          "time": 11.029406250000001,
          "velocity": 1
        },
        {
          "duration": 0.17647050000000064,
          "durationTicks": 48,
          "midi": 32,
          "name": "G#1",
          "ticks": 3048,
          "time": 11.20587675,
          "velocity": 1
        },
        {
          "duration": 0.3529410000000013,
          "durationTicks": 96,
          "midi": 39,
          "name": "D#2",
          "ticks": 3144,
          "time": 11.55881775,
          "velocity": 1
        },
        {
          "duration": 0.3529410000000013,
          "durationTicks": 96,
          "midi": 27,
          "name": "D#1",
          "ticks": 3144,
          "time": 11.55881775,
          "velocity": 1
        },
        {
          "duration": 0.17647049999999886,
          "durationTicks": 48,
          "midi": 44,
          "name": "G#2",
          "ticks": 3240,
          "time": 11.91175875,
          "velocity": 1
        },
        {
          "duration": 0.17647049999999886,
          "durationTicks": 48,
          "midi": 39,
          "name": "D#2",
          "ticks": 3240,
          "time": 11.91175875,
          "velocity": 1
        },
        {
          "duration": 0.17647050000000064,
          "durationTicks": 48,
          "midi": 32,
          "name": "G#1",
          "ticks": 3288,
          "time": 12.08822925,
          "velocity": 1
        },
        {
          "duration": 0.17647050000000064,
          "durationTicks": 48,
          "midi": 39,
          "name": "D#2",
          "ticks": 3336,
          "time": 12.26469975,
          "velocity": 1
        },
        {
          "duration": 0.17647050000000064,
          "durationTicks": 48,
          "midi": 44,
          "name": "G#2",
          "ticks": 3336,
          "time": 12.26469975,
          "velocity": 1
        },
        {
          "duration": 0.17647049999999886,
          "durationTicks": 48,
          "midi": 32,
          "name": "G#1",
          "ticks": 3384,
          "time": 12.44117025,
          "velocity": 1
        },
        {
          "duration": 0.17647050000000064,
          "durationTicks": 48,
          "midi": 39,
          "name": "D#2",
          "ticks": 3432,
          "time": 12.61764075,
          "velocity": 1
        },
        {
          "duration": 0.17647050000000064,
          "durationTicks": 48,
          "midi": 44,
          "name": "G#2",
          "ticks": 3432,
          "time": 12.61764075,
          "velocity": 1
        },
        {
          "duration": 0.17647050000000064,
          "durationTicks": 48,
          "midi": 32,
          "name": "G#1",
          "ticks": 3480,
          "time": 12.79411125,
          "velocity": 1
        },
        {
          "duration": 0.17647049999999886,
          "durationTicks": 48,
          "midi": 39,
          "name": "D#2",
          "ticks": 3528,
          "time": 12.970581750000001,
          "velocity": 1
        },
        {
          "duration": 0.17647049999999886,
          "durationTicks": 48,
          "midi": 44,
          "name": "G#2",
          "ticks": 3528,
          "time": 12.970581750000001,
          "velocity": 1
        },
        {
          "duration": 0.17647050000000064,
          "durationTicks": 48,
          "midi": 32,
          "name": "G#1",
          "ticks": 3576,
          "time": 13.14705225,
          "velocity": 1
        },
        {
          "duration": 0.17647050000000064,
          "durationTicks": 48,
          "midi": 39,
          "name": "D#2",
          "ticks": 3624,
          "time": 13.32352275,
          "velocity": 1
        },
        {
          "duration": 0.17647050000000064,
          "durationTicks": 48,
          "midi": 44,
          "name": "G#2",
          "ticks": 3624,
          "time": 13.32352275,
          "velocity": 1
        },
        {
          "duration": 0.17647049999999886,
          "durationTicks": 48,
          "midi": 32,
          "name": "G#1",
          "ticks": 3672,
          "time": 13.499993250000001,
          "velocity": 1
        },
        {
          "duration": 0.17647050000000064,
          "durationTicks": 48,
          "midi": 39,
          "name": "D#2",
          "ticks": 3720,
          "time": 13.67646375,
          "velocity": 1
        },
        {
          "duration": 0.17647050000000064,
          "durationTicks": 48,
          "midi": 44,
          "name": "G#2",
          "ticks": 3720,
          "time": 13.67646375,
          "velocity": 1
        },
        {
          "duration": 0.17647049999999886,
          "durationTicks": 48,
          "midi": 32,
          "name": "G#1",
          "ticks": 3768,
          "time": 13.85293425,
          "velocity": 1
        },
        {
          "duration": 0.17647050000000064,
          "durationTicks": 48,
          "midi": 39,
          "name": "D#2",
          "ticks": 3816,
          "time": 14.02940475,
          "velocity": 1
        },
        {
          "duration": 0.17647050000000064,
          "durationTicks": 48,
          "midi": 44,
          "name": "G#2",
          "ticks": 3816,
          "time": 14.02940475,
          "velocity": 1
        },
        {
          "duration": 0.17647050000000064,
          "durationTicks": 48,
          "midi": 32,
          "name": "G#1",
          "ticks": 3864,
          "time": 14.20587525,
          "velocity": 1
        },
        {
          "duration": 0.17647049999999886,
          "durationTicks": 48,
          "midi": 39,
          "name": "D#2",
          "ticks": 3912,
          "time": 14.38234575,
          "velocity": 1
        },
        {
          "duration": 0.17647049999999886,
          "durationTicks": 48,
          "midi": 44,
          "name": "G#2",
          "ticks": 3912,
          "time": 14.38234575,
          "velocity": 1
        },
        {
          "duration": 0.17647050000000064,
          "durationTicks": 48,
          "midi": 32,
          "name": "G#1",
          "ticks": 3960,
          "time": 14.55881625,
          "velocity": 1
        },
        {
          "duration": 0.17647050000000064,
          "durationTicks": 48,
          "midi": 39,
          "name": "D#2",
          "ticks": 4008,
          "time": 14.73528675,
          "velocity": 1
        },
        {
          "duration": 0.17647050000000064,
          "durationTicks": 48,
          "midi": 44,
          "name": "G#2",
          "ticks": 4008,
          "time": 14.73528675,
          "velocity": 1
        },
        {
          "duration": 0.17647049999999886,
          "durationTicks": 48,
          "midi": 32,
          "name": "G#1",
          "ticks": 4056,
          "time": 14.91175725,
          "velocity": 1
        },
        {
          "duration": 0.17647050000000064,
          "durationTicks": 48,
          "midi": 39,
          "name": "D#2",
          "ticks": 4104,
          "time": 15.08822775,
          "velocity": 1
        },
        {
          "duration": 0.17647050000000064,
          "durationTicks": 48,
          "midi": 44,
          "name": "G#2",
          "ticks": 4104,
          "time": 15.08822775,
          "velocity": 1
        },
        {
          "duration": 0.17647050000000064,
          "durationTicks": 48,
          "midi": 32,
          "name": "G#1",
          "ticks": 4152,
          "time": 15.26469825,
          "velocity": 1
        },
        {
          "duration": 0.17647049999999886,
          "durationTicks": 48,
          "midi": 39,
          "name": "D#2",
          "ticks": 4200,
          "time": 15.441168750000001,
          "velocity": 1
        },
        {
          "duration": 0.17647049999999886,
          "durationTicks": 48,
          "midi": 44,
          "name": "G#2",
          "ticks": 4200,
          "time": 15.441168750000001,
          "velocity": 1
        },
        {
          "duration": 0.17647050000000064,
          "durationTicks": 48,
          "midi": 32,
          "name": "G#1",
          "ticks": 4248,
          "time": 15.61763925,
          "velocity": 1
        },
        {
          "duration": 0.17647049999999886,
          "durationTicks": 48,
          "midi": 39,
          "name": "D#2",
          "ticks": 4296,
          "time": 15.79410975,
          "velocity": 1
        },
        {
          "duration": 0.17647049999999886,
          "durationTicks": 48,
          "midi": 44,
          "name": "G#2",
          "ticks": 4296,
          "time": 15.79410975,
          "velocity": 1
        },
        {
          "duration": 0.17647050000000242,
          "durationTicks": 48,
          "midi": 32,
          "name": "G#1",
          "ticks": 4344,
          "time": 15.97058025,
          "velocity": 1
        },
        {
          "duration": 0.1764704999999971,
          "durationTicks": 48,
          "midi": 39,
          "name": "D#2",
          "ticks": 4392,
          "time": 16.147050750000002,
          "velocity": 1
        },
        {
          "duration": 0.1764704999999971,
          "durationTicks": 48,
          "midi": 44,
          "name": "G#2",
          "ticks": 4392,
          "time": 16.147050750000002,
          "velocity": 1
        },
        {
          "duration": 0.17647050000000064,
          "durationTicks": 48,
          "midi": 32,
          "name": "G#1",
          "ticks": 4440,
          "time": 16.32352125,
          "velocity": 1
        },
        {
          "duration": 0.17647050000000064,
          "durationTicks": 48,
          "midi": 39,
          "name": "D#2",
          "ticks": 4488,
          "time": 16.49999175,
          "velocity": 1
        },
        {
          "duration": 0.17647050000000064,
          "durationTicks": 48,
          "midi": 44,
          "name": "G#2",
          "ticks": 4488,
          "time": 16.49999175,
          "velocity": 1
        },
        {
          "duration": 0.17647050000000064,
          "durationTicks": 48,
          "midi": 32,
          "name": "G#1",
          "ticks": 4536,
          "time": 16.67646225,
          "velocity": 1
        },
        {
          "duration": 0.17647050000000064,
          "durationTicks": 48,
          "midi": 39,
          "name": "D#2",
          "ticks": 4584,
          "time": 16.85293275,
          "velocity": 1
        },
        {
          "duration": 0.17647050000000064,
          "durationTicks": 48,
          "midi": 44,
          "name": "G#2",
          "ticks": 4584,
          "time": 16.85293275,
          "velocity": 1
        },
        {
          "duration": 0.1764704999999971,
          "durationTicks": 48,
          "midi": 32,
          "name": "G#1",
          "ticks": 4632,
          "time": 17.02940325,
          "velocity": 1
        },
        {
          "duration": 0.17647050000000064,
          "durationTicks": 48,
          "midi": 39,
          "name": "D#2",
          "ticks": 4680,
          "time": 17.20587375,
          "velocity": 1
        },
        {
          "duration": 0.17647050000000064,
          "durationTicks": 48,
          "midi": 44,
          "name": "G#2",
          "ticks": 4680,
          "time": 17.20587375,
          "velocity": 1
        },
        {
          "duration": 0.17647050000000064,
          "durationTicks": 48,
          "midi": 32,
          "name": "G#1",
          "ticks": 4728,
          "time": 17.38234425,
          "velocity": 1
        },
        {
          "duration": 0.3529410000000013,
          "durationTicks": 96,
          "midi": 28,
          "name": "E1",
          "ticks": 4776,
          "time": 17.55881475,
          "velocity": 1
        },
        {
          "duration": 0.17647050000000064,
          "durationTicks": 48,
          "midi": 40,
          "name": "E2",
          "ticks": 4872,
          "time": 17.91175575,
          "velocity": 1
        },
        {
          "duration": 0.17647050000000064,
          "durationTicks": 48,
          "midi": 35,
          "name": "B1",
          "ticks": 4872,
          "time": 17.91175575,
          "velocity": 1
        },
        {
          "duration": 0.1764704999999971,
          "durationTicks": 48,
          "midi": 28,
          "name": "E1",
          "ticks": 4920,
          "time": 18.08822625,
          "velocity": 1
        },
        {
          "duration": 0.3529410000000013,
          "durationTicks": 96,
          "midi": 28,
          "name": "E1",
          "ticks": 4968,
          "time": 18.26469675,
          "velocity": 1
        },
        {
          "duration": 0.17647050000000064,
          "durationTicks": 48,
          "midi": 40,
          "name": "E2",
          "ticks": 5064,
          "time": 18.61763775,
          "velocity": 1
        },
        {
          "duration": 0.17647050000000064,
          "durationTicks": 48,
          "midi": 35,
          "name": "B1",
          "ticks": 5064,
          "time": 18.61763775,
          "velocity": 1
        },
        {
          "duration": 0.17647050000000064,
          "durationTicks": 48,
          "midi": 28,
          "name": "E1",
          "ticks": 5112,
          "time": 18.79410825,
          "velocity": 1
        },
        {
          "duration": 0.35294099999999773,
          "durationTicks": 96,
          "midi": 27,
          "name": "D#1",
          "ticks": 5160,
          "time": 18.97057875,
          "velocity": 1
        },
        {
          "duration": 0.17647050000000064,
          "durationTicks": 48,
          "midi": 39,
          "name": "D#2",
          "ticks": 5256,
          "time": 19.32351975,
          "velocity": 1
        },
        {
          "duration": 0.17647050000000064,
          "durationTicks": 48,
          "midi": 34,
          "name": "A#1",
          "ticks": 5256,
          "time": 19.32351975,
          "velocity": 1
        },
        {
          "duration": 0.3529410000000013,
          "durationTicks": 96,
          "midi": 27,
          "name": "D#1",
          "ticks": 5304,
          "time": 19.49999025,
          "velocity": 1
        },
        {
          "duration": 0.17647050000000064,
          "durationTicks": 48,
          "midi": 27,
          "name": "D#1",
          "ticks": 5400,
          "time": 19.85293125,
          "velocity": 1
        },
        {
          "duration": 0.1764704999999971,
          "durationTicks": 48,
          "midi": 39,
          "name": "D#2",
          "ticks": 5448,
          "time": 20.02940175,
          "velocity": 1
        },
        {
          "duration": 0.1764704999999971,
          "durationTicks": 48,
          "midi": 34,
          "name": "A#1",
          "ticks": 5448,
          "time": 20.02940175,
          "velocity": 1
        },
        {
          "duration": 0.17647050000000064,
          "durationTicks": 48,
          "midi": 27,
          "name": "D#1",
          "ticks": 5496,
          "time": 20.20587225,
          "velocity": 1
        },
        {
          "duration": 0.3529410000000013,
          "durationTicks": 96,
          "midi": 32,
          "name": "G#1",
          "ticks": 5544,
          "time": 20.38234275,
          "velocity": 1
        },
        {
          "duration": 0.17647050000000064,
          "durationTicks": 48,
          "midi": 44,
          "name": "G#2",
          "ticks": 5640,
          "time": 20.73528375,
          "velocity": 1
        },
        {
          "duration": 0.17647050000000064,
          "durationTicks": 48,
          "midi": 39,
          "name": "D#2",
          "ticks": 5640,
          "time": 20.73528375,
          "velocity": 1
        },
        {
          "duration": 0.17647050000000064,
          "durationTicks": 48,
          "midi": 32,
          "name": "G#1",
          "ticks": 5688,
          "time": 20.91175425,
          "velocity": 1
        },
        {
          "duration": 0.35294099999999773,
          "durationTicks": 96,
          "midi": 32,
          "name": "G#1",
          "ticks": 5736,
          "time": 21.088224750000002,
          "velocity": 1
        },
        {
          "duration": 0.17647050000000064,
          "durationTicks": 48,
          "midi": 44,
          "name": "G#2",
          "ticks": 5832,
          "time": 21.44116575,
          "velocity": 1
        },
        {
          "duration": 0.17647050000000064,
          "durationTicks": 48,
          "midi": 39,
          "name": "D#2",
          "ticks": 5832,
          "time": 21.44116575,
          "velocity": 1
        },
        {
          "duration": 0.17647050000000064,
          "durationTicks": 48,
          "midi": 32,
          "name": "G#1",
          "ticks": 5880,
          "time": 21.61763625,
          "velocity": 1
        },
        {
          "duration": 0.35294099999999773,
          "durationTicks": 96,
          "midi": 32,
          "name": "G#1",
          "ticks": 5928,
          "time": 21.79410675,
          "velocity": 1
        },
        {
          "duration": 0.17647050000000064,
          "durationTicks": 48,
          "midi": 44,
          "name": "G#2",
          "ticks": 6024,
          "time": 22.14704775,
          "velocity": 1
        },
        {
          "duration": 0.17647050000000064,
          "durationTicks": 48,
          "midi": 39,
          "name": "D#2",
          "ticks": 6024,
          "time": 22.14704775,
          "velocity": 1
        },
        {
          "duration": 0.3529410000000013,
          "durationTicks": 96,
          "midi": 32,
          "name": "G#1",
          "ticks": 6072,
          "time": 22.32351825,
          "velocity": 1
        },
        {
          "duration": 0.17647050000000064,
          "durationTicks": 48,
          "midi": 32,
          "name": "G#1",
          "ticks": 6168,
          "time": 22.67645925,
          "velocity": 1
        },
        {
          "duration": 0.35294099999999773,
          "durationTicks": 96,
          "midi": 44,
          "name": "G#2",
          "ticks": 6216,
          "time": 22.85292975,
          "velocity": 1
        },
        {
          "duration": 0.35294099999999773,
          "durationTicks": 96,
          "midi": 39,
          "name": "D#2",
          "ticks": 6216,
          "time": 22.85292975,
          "velocity": 1
        },
        {
          "duration": 0.17647050000000064,
          "durationTicks": 48,
          "midi": 40,
          "name": "E2",
          "ticks": 6312,
          "time": 23.20587075,
          "velocity": 1
        },
        {
          "duration": 0.17647050000000064,
          "durationTicks": 48,
          "midi": 52,
          "name": "E3",
          "ticks": 6408,
          "time": 23.55881175,
          "velocity": 1
        },
        {
          "duration": 0.17647050000000064,
          "durationTicks": 48,
          "midi": 39,
          "name": "D#2",
          "ticks": 6456,
          "time": 23.73528225,
          "velocity": 1
        },
        {
          "duration": 0.17647050000000064,
          "durationTicks": 48,
          "midi": 39,
          "name": "D#2",
          "ticks": 6552,
          "time": 24.08822325,
          "velocity": 1
        },
        {
          "duration": 0.17647050000000064,
          "durationTicks": 48,
          "midi": 51,
          "name": "D#3",
          "ticks": 6600,
          "time": 24.26469375,
          "velocity": 1
        },
        {
          "duration": 0.17647050000000064,
          "durationTicks": 48,
          "midi": 32,
          "name": "G#1",
          "ticks": 6648,
          "time": 24.44116425,
          "velocity": 1
        },
        {
          "duration": 0.1764704999999971,
          "durationTicks": 48,
          "midi": 39,
          "name": "D#2",
          "ticks": 6792,
          "time": 24.970575750000002,
          "velocity": 1
        },
        {
          "duration": 0.17647050000000064,
          "durationTicks": 48,
          "midi": 32,
          "name": "G#1",
          "ticks": 6936,
          "time": 25.49998725,
          "velocity": 1
        },
        {
          "duration": 0.17647050000000064,
          "durationTicks": 48,
          "midi": 44,
          "name": "G#2",
          "ticks": 6984,
          "time": 25.67645775,
          "velocity": 1
        },
        {
          "duration": 0.17647050000000064,
          "durationTicks": 48,
          "midi": 40,
          "name": "E2",
          "ticks": 7080,
          "time": 26.02939875,
          "velocity": 1
        },
        {
          "duration": 0.17647050000000064,
          "durationTicks": 48,
          "midi": 52,
          "name": "E3",
          "ticks": 7176,
          "time": 26.38233975,
          "velocity": 1
        },
        {
          "duration": 0.17647050000000064,
          "durationTicks": 48,
          "midi": 39,
          "name": "D#2",
          "ticks": 7224,
          "time": 26.55881025,
          "velocity": 1
        },
        {
          "duration": 0.1764704999999971,
          "durationTicks": 48,
          "midi": 39,
          "name": "D#2",
          "ticks": 7320,
          "time": 26.911751250000002,
          "velocity": 1
        },
        {
          "duration": 0.17647050000000064,
          "durationTicks": 48,
          "midi": 51,
          "name": "D#3",
          "ticks": 7368,
          "time": 27.08822175,
          "velocity": 1
        },
        {
          "duration": 0.17647050000000064,
          "durationTicks": 48,
          "midi": 32,
          "name": "G#1",
          "ticks": 7416,
          "time": 27.26469225,
          "velocity": 1
        },
        {
          "duration": 0.17647050000000064,
          "durationTicks": 48,
          "midi": 39,
          "name": "D#2",
          "ticks": 7560,
          "time": 27.79410375,
          "velocity": 1
        },
        {
          "duration": 0.17647050000000064,
          "durationTicks": 48,
          "midi": 35,
          "name": "B1",
          "ticks": 7656,
          "time": 28.14704475,
          "velocity": 1
        },
        {
          "duration": 0.17647050000000064,
          "durationTicks": 48,
          "midi": 35,
          "name": "B1",
          "ticks": 7752,
          "time": 28.49998575,
          "velocity": 1
        },
        {
          "duration": 0.705881999999999,
          "durationTicks": 192,
          "midi": 32,
          "name": "G#1",
          "ticks": 7848,
          "time": 28.85292675,
          "velocity": 1
        },
        {
          "duration": 0.35294099999999773,
          "durationTicks": 96,
          "midi": 28,
          "name": "E1",
          "ticks": 7848,
          "time": 28.85292675,
          "velocity": 1
        },
        {
          "duration": 0.17647050000000064,
          "durationTicks": 48,
          "midi": 40,
          "name": "E2",
          "ticks": 7944,
          "time": 29.20586775,
          "velocity": 1
        },
        {
          "duration": 0.17647050000000064,
          "durationTicks": 48,
          "midi": 40,
          "name": "E2",
          "ticks": 7992,
          "time": 29.38233825,
          "velocity": 1
        },
        {
          "duration": 0.705881999999999,
          "durationTicks": 192,
          "midi": 37,
          "name": "C#2",
          "ticks": 8040,
          "time": 29.55880875,
          "velocity": 1
        },
        {
          "duration": 0.3529410000000013,
          "durationTicks": 96,
          "midi": 30,
          "name": "F#1",
          "ticks": 8040,
          "time": 29.55880875,
          "velocity": 1
        },
        {
          "duration": 0.1764704999999971,
          "durationTicks": 48,
          "midi": 42,
          "name": "F#2",
          "ticks": 8136,
          "time": 29.911749750000002,
          "velocity": 1
        },
        {
          "duration": 0.17647050000000064,
          "durationTicks": 48,
          "midi": 42,
          "name": "F#2",
          "ticks": 8184,
          "time": 30.08822025,
          "velocity": 1
        },
        {
          "duration": 0.3529410000000013,
          "durationTicks": 96,
          "midi": 40,
          "name": "E2",
          "ticks": 8232,
          "time": 30.26469075,
          "velocity": 1
        },
        {
          "duration": 0.3529410000000013,
          "durationTicks": 96,
          "midi": 31,
          "name": "G1",
          "ticks": 8232,
          "time": 30.26469075,
          "velocity": 1
        },
        {
          "duration": 0.17647050000000064,
          "durationTicks": 48,
          "midi": 43,
          "name": "G2",
          "ticks": 8328,
          "time": 30.61763175,
          "velocity": 1
        },
        {
          "duration": 0.5294114999999984,
          "durationTicks": 144,
          "midi": 39,
          "name": "D#2",
          "ticks": 8376,
          "time": 30.79410225,
          "velocity": 1
        },
        {
          "duration": 0.1764704999999971,
          "durationTicks": 48,
          "midi": 43,
          "name": "G2",
          "ticks": 8376,
          "time": 30.79410225,
          "velocity": 1
        },
        {
          "duration": 0.3529410000000013,
          "durationTicks": 96,
          "midi": 32,
          "name": "G#1",
          "ticks": 8424,
          "time": 30.97057275,
          "velocity": 1
        },
        {
          "duration": 0.17647050000000064,
          "durationTicks": 48,
          "midi": 47,
          "name": "B2",
          "ticks": 8520,
          "time": 31.32351375,
          "velocity": 1
        },
        {
          "duration": 0.17647050000000064,
          "durationTicks": 48,
          "midi": 47,
          "name": "B2",
          "ticks": 8568,
          "time": 31.49998425,
          "velocity": 1
        },
        {
          "duration": 0.35294099999999773,
          "durationTicks": 96,
          "midi": 28,
          "name": "E1",
          "ticks": 8616,
          "time": 31.67645475,
          "velocity": 1
        },
        {
          "duration": 0.17647050000000064,
          "durationTicks": 48,
          "midi": 40,
          "name": "E2",
          "ticks": 8712,
          "time": 32.02939575,
          "velocity": 1
        },
        {
          "duration": 0.17647050000000064,
          "durationTicks": 48,
          "midi": 40,
          "name": "E2",
          "ticks": 8760,
          "time": 32.20586625,
          "velocity": 1
        },
        {
          "duration": 0.7058820000000026,
          "durationTicks": 192,
          "midi": 31,
          "name": "G1",
          "ticks": 8808,
          "time": 32.38233675,
          "velocity": 1
        },
        {
          "duration": 0.7058820000000026,
          "durationTicks": 192,
          "midi": 27,
          "name": "D#1",
          "ticks": 8808,
          "time": 32.38233675,
          "velocity": 1
        },
        {
          "duration": 0.17647050000000064,
          "durationTicks": 48,
          "midi": 27,
          "name": "D#1",
          "ticks": 9000,
          "time": 33.08821875,
          "velocity": 1
        },
        {
          "duration": 0.17647050000000064,
          "durationTicks": 48,
          "midi": 27,
          "name": "D#1",
          "ticks": 9096,
          "time": 33.44115975,
          "velocity": 1
        },
        {
          "duration": 0.17647050000000064,
          "durationTicks": 48,
          "midi": 27,
          "name": "D#1",
          "ticks": 9192,
          "time": 33.79410075,
          "velocity": 1
        },
        {
          "duration": 0.3529410000000013,
          "durationTicks": 96,
          "midi": 45,
          "name": "A2",
          "ticks": 9384,
          "time": 34.49998275,
          "velocity": 1
        },
        {
          "duration": 0.3529410000000013,
          "durationTicks": 96,
          "midi": 33,
          "name": "A1",
          "ticks": 9384,
          "time": 34.49998275,
          "velocity": 1
        },
        {
          "duration": 0.17647050000000064,
          "durationTicks": 48,
          "midi": 45,
          "name": "A2",
          "ticks": 9480,
          "time": 34.85292375,
          "velocity": 1
        },
        {
          "duration": 0.17647050000000064,
          "durationTicks": 48,
          "midi": 40,
          "name": "E2",
          "ticks": 9480,
          "time": 34.85292375,
          "velocity": 1
        },
        {
          "duration": 0.17647050000000064,
          "durationTicks": 48,
          "midi": 33,
          "name": "A1",
          "ticks": 9528,
          "time": 35.02939425,
          "velocity": 1
        },
        {
          "duration": 0.3529409999999942,
          "durationTicks": 96,
          "midi": 33,
          "name": "A1",
          "ticks": 9576,
          "time": 35.20586475,
          "velocity": 1
        },
        {
          "duration": 0.17647050000000064,
          "durationTicks": 48,
          "midi": 45,
          "name": "A2",
          "ticks": 9672,
          "time": 35.55880575,
          "velocity": 1
        },
        {
          "duration": 0.17647050000000064,
          "durationTicks": 48,
          "midi": 40,
          "name": "E2",
          "ticks": 9672,
          "time": 35.55880575,
          "velocity": 1
        },
        {
          "duration": 0.3529410000000013,
          "durationTicks": 96,
          "midi": 35,
          "name": "B1",
          "ticks": 9720,
          "time": 35.73527625,
          "velocity": 1
        },
        {
          "duration": 0.17647050000000064,
          "durationTicks": 48,
          "midi": 35,
          "name": "B1",
          "ticks": 9816,
          "time": 36.08821725,
          "velocity": 1
        },
        {
          "duration": 0.17647050000000064,
          "durationTicks": 48,
          "midi": 42,
          "name": "F#2",
          "ticks": 9864,
          "time": 36.26468775,
          "velocity": 1
        },
        {
          "duration": 0.17647050000000064,
          "durationTicks": 48,
          "midi": 47,
          "name": "B2",
          "ticks": 9864,
          "time": 36.26468775,
          "velocity": 1
        },
        {
          "duration": 0.17647050000000064,
          "durationTicks": 48,
          "midi": 35,
          "name": "B1",
          "ticks": 9912,
          "time": 36.44115825,
          "velocity": 1
        },
        {
          "duration": 0.3529410000000013,
          "durationTicks": 96,
          "midi": 35,
          "name": "B1",
          "ticks": 9960,
          "time": 36.61762875,
          "velocity": 1
        },
        {
          "duration": 0.17647050000000064,
          "durationTicks": 48,
          "midi": 47,
          "name": "B2",
          "ticks": 10056,
          "time": 36.97056975,
          "velocity": 1
        },
        {
          "duration": 0.17647050000000064,
          "durationTicks": 48,
          "midi": 42,
          "name": "F#2",
          "ticks": 10056,
          "time": 36.97056975,
          "velocity": 1
        },
        {
          "duration": 0.17647049999999354,
          "durationTicks": 48,
          "midi": 35,
          "name": "B1",
          "ticks": 10104,
          "time": 37.14704025,
          "velocity": 1
        },
        {
          "duration": 0.3529410000000013,
          "durationTicks": 96,
          "midi": 44,
          "name": "G#2",
          "ticks": 10152,
          "time": 37.32351075,
          "velocity": 1
        },
        {
          "duration": 0.3529410000000013,
          "durationTicks": 96,
          "midi": 32,
          "name": "G#1",
          "ticks": 10152,
          "time": 37.32351075,
          "velocity": 1
        },
        {
          "duration": 0.17647050000000064,
          "durationTicks": 48,
          "midi": 39,
          "name": "D#2",
          "ticks": 10248,
          "time": 37.67645175,
          "velocity": 1
        },
        {
          "duration": 0.17647050000000064,
          "durationTicks": 48,
          "midi": 44,
          "name": "G#2",
          "ticks": 10248,
          "time": 37.67645175,
          "velocity": 1
        },
        {
          "duration": 0.17647050000000064,
          "durationTicks": 48,
          "midi": 32,
          "name": "G#1",
          "ticks": 10296,
          "time": 37.85292225,
          "velocity": 1
        },
        {
          "duration": 0.3529410000000013,
          "durationTicks": 96,
          "midi": 32,
          "name": "G#1",
          "ticks": 10344,
          "time": 38.02939275,
          "velocity": 1
        },
        {
          "duration": 0.17647050000000064,
          "durationTicks": 48,
          "midi": 42,
          "name": "F#2",
          "ticks": 10440,
          "time": 38.38233375,
          "velocity": 1
        },
        {
          "duration": 0.17647050000000064,
          "durationTicks": 48,
          "midi": 37,
          "name": "C#2",
          "ticks": 10440,
          "time": 38.38233375,
          "velocity": 1
        },
        {
          "duration": 0.3529410000000013,
          "durationTicks": 96,
          "midi": 37,
          "name": "C#2",
          "ticks": 10488,
          "time": 38.55880425,
          "velocity": 1
        },
        {
          "duration": 0.17647050000000064,
          "durationTicks": 48,
          "midi": 37,
          "name": "C#2",
          "ticks": 10584,
          "time": 38.91174525,
          "velocity": 1
        },
        {
          "duration": 0.17647050000000064,
          "durationTicks": 48,
          "midi": 44,
          "name": "G#2",
          "ticks": 10632,
          "time": 39.08821575,
          "velocity": 1
        },
        {
          "duration": 0.17647050000000064,
          "durationTicks": 48,
          "midi": 49,
          "name": "C#3",
          "ticks": 10632,
          "time": 39.08821575,
          "velocity": 1
        },
        {
          "duration": 0.17647049999999354,
          "durationTicks": 48,
          "midi": 37,
          "name": "C#2",
          "ticks": 10680,
          "time": 39.264686250000004,
          "velocity": 1
        },
        {
          "duration": 0.3529410000000013,
          "durationTicks": 96,
          "midi": 37,
          "name": "C#2",
          "ticks": 10728,
          "time": 39.44115675,
          "velocity": 1
        },
        {
          "duration": 0.17647050000000064,
          "durationTicks": 48,
          "midi": 49,
          "name": "C#3",
          "ticks": 10824,
          "time": 39.79409775,
          "velocity": 1
        },
        {
          "duration": 0.17647050000000064,
          "durationTicks": 48,
          "midi": 44,
          "name": "G#2",
          "ticks": 10824,
          "time": 39.79409775,
          "velocity": 1
        },
        {
          "duration": 0.17647050000000064,
          "durationTicks": 48,
          "midi": 37,
          "name": "C#2",
          "ticks": 10872,
          "time": 39.97056825,
          "velocity": 1
        },
        {
          "duration": 0.3529410000000013,
          "durationTicks": 96,
          "midi": 33,
          "name": "A1",
          "ticks": 10920,
          "time": 40.14703875,
          "velocity": 1
        },
        {
          "duration": 0.3529410000000013,
          "durationTicks": 96,
          "midi": 45,
          "name": "A2",
          "ticks": 10920,
          "time": 40.14703875,
          "velocity": 1
        },
        {
          "duration": 0.17647050000000064,
          "durationTicks": 48,
          "midi": 45,
          "name": "A2",
          "ticks": 11016,
          "time": 40.49997975,
          "velocity": 1
        },
        {
          "duration": 0.17647050000000064,
          "durationTicks": 48,
          "midi": 40,
          "name": "E2",
          "ticks": 11016,
          "time": 40.49997975,
          "velocity": 1
        },
        {
          "duration": 0.17647050000000064,
          "durationTicks": 48,
          "midi": 33,
          "name": "A1",
          "ticks": 11064,
          "time": 40.67645025,
          "velocity": 1
        },
        {
          "duration": 0.3529410000000013,
          "durationTicks": 96,
          "midi": 33,
          "name": "A1",
          "ticks": 11112,
          "time": 40.85292075,
          "velocity": 1
        },
        {
          "duration": 0.17647049999999354,
          "durationTicks": 48,
          "midi": 40,
          "name": "E2",
          "ticks": 11208,
          "time": 41.205861750000004,
          "velocity": 1
        },
        {
          "duration": 0.17647049999999354,
          "durationTicks": 48,
          "midi": 45,
          "name": "A2",
          "ticks": 11208,
          "time": 41.205861750000004,
          "velocity": 1
        },
        {
          "duration": 0.3529410000000013,
          "durationTicks": 96,
          "midi": 44,
          "name": "G#2",
          "ticks": 11256,
          "time": 41.38233225,
          "velocity": 1
        },
        {
          "duration": 0.3529410000000013,
          "durationTicks": 96,
          "midi": 32,
          "name": "G#1",
          "ticks": 11256,
          "time": 41.38233225,
          "velocity": 1
        },
        {
          "duration": 0.17647050000000064,
          "durationTicks": 48,
          "midi": 39,
          "name": "D#2",
          "ticks": 11352,
          "time": 41.73527325,
          "velocity": 1
        },
        {
          "duration": 0.17647050000000064,
          "durationTicks": 48,
          "midi": 44,
          "name": "G#2",
          "ticks": 11352,
          "time": 41.73527325,
          "velocity": 1
        },
        {
          "duration": 0.17647050000000064,
          "durationTicks": 48,
          "midi": 32,
          "name": "G#1",
          "ticks": 11400,
          "time": 41.91174375,
          "velocity": 1
        },
        {
          "duration": 0.17647050000000064,
          "durationTicks": 48,
          "midi": 32,
          "name": "G#1",
          "ticks": 11448,
          "time": 42.08821425,
          "velocity": 1
        },
        {
          "duration": 0.17647050000000064,
          "durationTicks": 48,
          "midi": 47,
          "name": "B2",
          "ticks": 11496,
          "time": 42.26468475,
          "velocity": 1
        },
        {
          "duration": 0.17647050000000064,
          "durationTicks": 48,
          "midi": 35,
          "name": "B1",
          "ticks": 11496,
          "time": 42.26468475,
          "velocity": 1
        },
        {
          "duration": 0.17647050000000064,
          "durationTicks": 48,
          "midi": 47,
          "name": "B2",
          "ticks": 11544,
          "time": 42.44115525,
          "velocity": 1
        },
        {
          "duration": 0.17647050000000064,
          "durationTicks": 48,
          "midi": 42,
          "name": "F#2",
          "ticks": 11544,
          "time": 42.44115525,
          "velocity": 1
        },
        {
          "duration": 0.3529410000000013,
          "durationTicks": 96,
          "midi": 35,
          "name": "B1",
          "ticks": 11592,
          "time": 42.61762575,
          "velocity": 1
        },
        {
          "duration": 0.3529409999999942,
          "durationTicks": 96,
          "midi": 49,
          "name": "C#3",
          "ticks": 11688,
          "time": 42.97056675,
          "velocity": 1
        },
        {
          "duration": 0.3529409999999942,
          "durationTicks": 96,
          "midi": 37,
          "name": "C#2",
          "ticks": 11688,
          "time": 42.97056675,
          "velocity": 1
        },
        {
          "duration": 0.17647050000000064,
          "durationTicks": 48,
          "midi": 49,
          "name": "C#3",
          "ticks": 11784,
          "time": 43.32350775,
          "velocity": 1
        },
        {
          "duration": 0.17647050000000064,
          "durationTicks": 48,
          "midi": 44,
          "name": "G#2",
          "ticks": 11784,
          "time": 43.32350775,
          "velocity": 1
        },
        {
          "duration": 0.17647050000000064,
          "durationTicks": 48,
          "midi": 37,
          "name": "C#2",
          "ticks": 11832,
          "time": 43.49997825,
          "velocity": 1
        },
        {
          "duration": 0.3529410000000013,
          "durationTicks": 96,
          "midi": 37,
          "name": "C#2",
          "ticks": 11880,
          "time": 43.67644875,
          "velocity": 1
        },
        {
          "duration": 0.17647050000000064,
          "durationTicks": 48,
          "midi": 44,
          "name": "G#2",
          "ticks": 11976,
          "time": 44.02938975,
          "velocity": 1
        },
        {
          "duration": 0.17647050000000064,
          "durationTicks": 48,
          "midi": 49,
          "name": "C#3",
          "ticks": 11976,
          "time": 44.02938975,
          "velocity": 1
        },
        {
          "duration": 0.17647050000000064,
          "durationTicks": 48,
          "midi": 37,
          "name": "C#2",
          "ticks": 12024,
          "time": 44.20586025,
          "velocity": 1
        },
        {
          "duration": 0.3529410000000013,
          "durationTicks": 96,
          "midi": 47,
          "name": "B2",
          "ticks": 12072,
          "time": 44.38233075,
          "velocity": 1
        },
        {
          "duration": 0.3529410000000013,
          "durationTicks": 96,
          "midi": 35,
          "name": "B1",
          "ticks": 12072,
          "time": 44.38233075,
          "velocity": 1
        },
        {
          "duration": 0.17647050000000064,
          "durationTicks": 48,
          "midi": 47,
          "name": "B2",
          "ticks": 12168,
          "time": 44.73527175,
          "velocity": 1
        },
        {
          "duration": 0.17647050000000064,
          "durationTicks": 48,
          "midi": 42,
          "name": "F#2",
          "ticks": 12168,
          "time": 44.73527175,
          "velocity": 1
        },
        {
          "duration": 0.17647050000000064,
          "durationTicks": 48,
          "midi": 42,
          "name": "F#2",
          "ticks": 12216,
          "time": 44.91174225,
          "velocity": 1
        },
        {
          "duration": 0.17647049999999354,
          "durationTicks": 48,
          "midi": 40,
          "name": "E2",
          "ticks": 12264,
          "time": 45.088212750000004,
          "velocity": 1
        },
        {
          "duration": 0.17647050000000064,
          "durationTicks": 48,
          "midi": 37,
          "name": "C#2",
          "ticks": 12312,
          "time": 45.26468325,
          "velocity": 1
        },
        {
          "duration": 0.17647050000000064,
          "durationTicks": 48,
          "midi": 35,
          "name": "B1",
          "ticks": 12360,
          "time": 45.44115375,
          "velocity": 1
        },
        {
          "duration": 0.17647050000000064,
          "durationTicks": 48,
          "midi": 33,
          "name": "A1",
          "ticks": 12408,
          "time": 45.61762425,
          "velocity": 1
        },
        {
          "duration": 0.3529410000000013,
          "durationTicks": 96,
          "midi": 45,
          "name": "A2",
          "ticks": 12456,
          "time": 45.79409475,
          "velocity": 1
        },
        {
          "duration": 0.3529410000000013,
          "durationTicks": 96,
          "midi": 33,
          "name": "A1",
          "ticks": 12456,
          "time": 45.79409475,
          "velocity": 1
        },
        {
          "duration": 0.17647050000000064,
          "durationTicks": 48,
          "midi": 45,
          "name": "A2",
          "ticks": 12552,
          "time": 46.14703575,
          "velocity": 1
        },
        {
          "duration": 0.17647050000000064,
          "durationTicks": 48,
          "midi": 40,
          "name": "E2",
          "ticks": 12552,
          "time": 46.14703575,
          "velocity": 1
        },
        {
          "duration": 0.17647050000000064,
          "durationTicks": 48,
          "midi": 33,
          "name": "A1",
          "ticks": 12600,
          "time": 46.32350625,
          "velocity": 1
        },
        {
          "duration": 0.3529410000000013,
          "durationTicks": 96,
          "midi": 33,
          "name": "A1",
          "ticks": 12648,
          "time": 46.49997675,
          "velocity": 1
        },
        {
          "duration": 0.17647050000000064,
          "durationTicks": 48,
          "midi": 45,
          "name": "A2",
          "ticks": 12744,
          "time": 46.85291775,
          "velocity": 1
        },
        {
          "duration": 0.17647050000000064,
          "durationTicks": 48,
          "midi": 40,
          "name": "E2",
          "ticks": 12744,
          "time": 46.85291775,
          "velocity": 1
        },
        {
          "duration": 0.3529409999999942,
          "durationTicks": 96,
          "midi": 35,
          "name": "B1",
          "ticks": 12792,
          "time": 47.029388250000004,
          "velocity": 1
        },
        {
          "duration": 0.17647050000000064,
          "durationTicks": 48,
          "midi": 35,
          "name": "B1",
          "ticks": 12888,
          "time": 47.38232925,
          "velocity": 1
        },
        {
          "duration": 0.17647050000000064,
          "durationTicks": 48,
          "midi": 42,
          "name": "F#2",
          "ticks": 12936,
          "time": 47.55879975,
          "velocity": 1
        },
        {
          "duration": 0.17647050000000064,
          "durationTicks": 48,
          "midi": 47,
          "name": "B2",
          "ticks": 12936,
          "time": 47.55879975,
          "velocity": 1
        },
        {
          "duration": 0.17647050000000064,
          "durationTicks": 48,
          "midi": 35,
          "name": "B1",
          "ticks": 12984,
          "time": 47.73527025,
          "velocity": 1
        },
        {
          "duration": 0.3529410000000013,
          "durationTicks": 96,
          "midi": 35,
          "name": "B1",
          "ticks": 13032,
          "time": 47.91174075,
          "velocity": 1
        },
        {
          "duration": 0.17647050000000064,
          "durationTicks": 48,
          "midi": 47,
          "name": "B2",
          "ticks": 13128,
          "time": 48.26468175,
          "velocity": 1
        },
        {
          "duration": 0.17647050000000064,
          "durationTicks": 48,
          "midi": 42,
          "name": "F#2",
          "ticks": 13128,
          "time": 48.26468175,
          "velocity": 1
        },
        {
          "duration": 0.17647050000000064,
          "durationTicks": 48,
          "midi": 35,
          "name": "B1",
          "ticks": 13176,
          "time": 48.44115225,
          "velocity": 1
        },
        {
          "duration": 0.3529410000000013,
          "durationTicks": 96,
          "midi": 44,
          "name": "G#2",
          "ticks": 13224,
          "time": 48.61762275,
          "velocity": 1
        },
        {
          "duration": 0.3529410000000013,
          "durationTicks": 96,
          "midi": 32,
          "name": "G#1",
          "ticks": 13224,
          "time": 48.61762275,
          "velocity": 1
        },
        {
          "duration": 0.17647049999999354,
          "durationTicks": 48,
          "midi": 39,
          "name": "D#2",
          "ticks": 13320,
          "time": 48.970563750000004,
          "velocity": 1
        },
        {
          "duration": 0.17647049999999354,
          "durationTicks": 48,
          "midi": 44,
          "name": "G#2",
          "ticks": 13320,
          "time": 48.970563750000004,
          "velocity": 1
        },
        {
          "duration": 0.17647050000000064,
          "durationTicks": 48,
          "midi": 32,
          "name": "G#1",
          "ticks": 13368,
          "time": 49.14703425,
          "velocity": 1
        },
        {
          "duration": 0.3529410000000013,
          "durationTicks": 96,
          "midi": 35,
          "name": "B1",
          "ticks": 13416,
          "time": 49.32350475,
          "velocity": 1
        },
        {
          "duration": 0.17647050000000064,
          "durationTicks": 48,
          "midi": 47,
          "name": "B2",
          "ticks": 13512,
          "time": 49.67644575,
          "velocity": 1
        },
        {
          "duration": 0.17647050000000064,
          "durationTicks": 48,
          "midi": 42,
          "name": "F#2",
          "ticks": 13512,
          "time": 49.67644575,
          "velocity": 1
        },
        {
          "duration": 0.3529410000000013,
          "durationTicks": 96,
          "midi": 37,
          "name": "C#2",
          "ticks": 13560,
          "time": 49.85291625,
          "velocity": 1
        },
        {
          "duration": 0.17647050000000064,
          "durationTicks": 48,
          "midi": 37,
          "name": "C#2",
          "ticks": 13656,
          "time": 50.20585725,
          "velocity": 1
        },
        {
          "duration": 0.17647050000000064,
          "durationTicks": 48,
          "midi": 44,
          "name": "G#2",
          "ticks": 13704,
          "time": 50.38232775,
          "velocity": 1
        },
        {
          "duration": 0.17647050000000064,
          "durationTicks": 48,
          "midi": 49,
          "name": "C#3",
          "ticks": 13704,
          "time": 50.38232775,
          "velocity": 1
        },
        {
          "duration": 0.17647050000000064,
          "durationTicks": 48,
          "midi": 37,
          "name": "C#2",
          "ticks": 13752,
          "time": 50.55879825,
          "velocity": 1
        },
        {
          "duration": 0.3529409999999942,
          "durationTicks": 96,
          "midi": 35,
          "name": "B1",
          "ticks": 13800,
          "time": 50.73526875,
          "velocity": 1
        },
        {
          "duration": 0.17647050000000064,
          "durationTicks": 48,
          "midi": 47,
          "name": "B2",
          "ticks": 13896,
          "time": 51.08820975,
          "velocity": 1
        },
        {
          "duration": 0.17647050000000064,
          "durationTicks": 48,
          "midi": 42,
          "name": "F#2",
          "ticks": 13896,
          "time": 51.08820975,
          "velocity": 1
        },
        {
          "duration": 0.17647050000000064,
          "durationTicks": 48,
          "midi": 35,
          "name": "B1",
          "ticks": 13944,
          "time": 51.26468025,
          "velocity": 1
        },
        {
          "duration": 0.3529410000000013,
          "durationTicks": 96,
          "midi": 33,
          "name": "A1",
          "ticks": 13992,
          "time": 51.44115075,
          "velocity": 1
        },
        {
          "duration": 0.3529410000000013,
          "durationTicks": 96,
          "midi": 45,
          "name": "A2",
          "ticks": 13992,
          "time": 51.44115075,
          "velocity": 1
        },
        {
          "duration": 0.17647050000000064,
          "durationTicks": 48,
          "midi": 45,
          "name": "A2",
          "ticks": 14088,
          "time": 51.79409175,
          "velocity": 1
        },
        {
          "duration": 0.17647050000000064,
          "durationTicks": 48,
          "midi": 40,
          "name": "E2",
          "ticks": 14088,
          "time": 51.79409175,
          "velocity": 1
        },
        {
          "duration": 0.17647050000000064,
          "durationTicks": 48,
          "midi": 33,
          "name": "A1",
          "ticks": 14136,
          "time": 51.97056225,
          "velocity": 1
        },
        {
          "duration": 0.3529410000000013,
          "durationTicks": 96,
          "midi": 33,
          "name": "A1",
          "ticks": 14184,
          "time": 52.14703275,
          "velocity": 1
        },
        {
          "duration": 0.17647050000000064,
          "durationTicks": 48,
          "midi": 40,
          "name": "E2",
          "ticks": 14280,
          "time": 52.49997375,
          "velocity": 1
        },
        {
          "duration": 0.17647050000000064,
          "durationTicks": 48,
          "midi": 45,
          "name": "A2",
          "ticks": 14280,
          "time": 52.49997375,
          "velocity": 1
        },
        {
          "duration": 0.17647050000000064,
          "durationTicks": 48,
          "midi": 33,
          "name": "A1",
          "ticks": 14328,
          "time": 52.67644425,
          "velocity": 1
        },
        {
          "duration": 0.17647050000000064,
          "durationTicks": 48,
          "midi": 47,
          "name": "B2",
          "ticks": 14376,
          "time": 52.852914750000004,
          "velocity": 1
        },
        {
          "duration": 0.17647050000000064,
          "durationTicks": 48,
          "midi": 35,
          "name": "B1",
          "ticks": 14376,
          "time": 52.852914750000004,
          "velocity": 1
        },
        {
          "duration": 0.17647049999999354,
          "durationTicks": 48,
          "midi": 42,
          "name": "F#2",
          "ticks": 14424,
          "time": 53.029385250000004,
          "velocity": 1
        },
        {
          "duration": 0.17647049999999354,
          "durationTicks": 48,
          "midi": 47,
          "name": "B2",
          "ticks": 14424,
          "time": 53.029385250000004,
          "velocity": 1
        },
        {
          "duration": 0.17647050000000064,
          "durationTicks": 48,
          "midi": 35,
          "name": "B1",
          "ticks": 14472,
          "time": 53.20585575,
          "velocity": 1
        },
        {
          "duration": 0.17647050000000064,
          "durationTicks": 48,
          "midi": 35,
          "name": "B1",
          "ticks": 14520,
          "time": 53.38232625,
          "velocity": 1
        },
        {
          "duration": 0.17647050000000064,
          "durationTicks": 48,
          "midi": 47,
          "name": "B2",
          "ticks": 14568,
          "time": 53.55879675,
          "velocity": 1
        },
        {
          "duration": 0.17647050000000064,
          "durationTicks": 48,
          "midi": 35,
          "name": "B1",
          "ticks": 14568,
          "time": 53.55879675,
          "velocity": 1
        },
        {
          "duration": 0.17647050000000064,
          "durationTicks": 48,
          "midi": 47,
          "name": "B2",
          "ticks": 14616,
          "time": 53.73526725,
          "velocity": 1
        },
        {
          "duration": 0.17647050000000064,
          "durationTicks": 48,
          "midi": 42,
          "name": "F#2",
          "ticks": 14616,
          "time": 53.73526725,
          "velocity": 1
        },
        {
          "duration": 0.17647050000000064,
          "durationTicks": 48,
          "midi": 42,
          "name": "F#2",
          "ticks": 14664,
          "time": 53.91173775,
          "velocity": 1
        },
        {
          "duration": 0.17647050000000064,
          "durationTicks": 48,
          "midi": 47,
          "name": "B2",
          "ticks": 14664,
          "time": 53.91173775,
          "velocity": 1
        },
        {
          "duration": 0.17647050000000064,
          "durationTicks": 48,
          "midi": 35,
          "name": "B1",
          "ticks": 14664,
          "time": 53.91173775,
          "velocity": 1
        },
        {
          "duration": 0.3529410000000013,
          "durationTicks": 96,
          "midi": 45,
          "name": "A2",
          "ticks": 14760,
          "time": 54.26467875,
          "velocity": 1
        },
        {
          "duration": 0.3529410000000013,
          "durationTicks": 96,
          "midi": 33,
          "name": "A1",
          "ticks": 14760,
          "time": 54.26467875,
          "velocity": 1
        },
        {
          "duration": 0.17647050000000064,
          "durationTicks": 48,
          "midi": 45,
          "name": "A2",
          "ticks": 14856,
          "time": 54.61761975,
          "velocity": 1
        },
        {
          "duration": 0.17647050000000064,
          "durationTicks": 48,
          "midi": 40,
          "name": "E2",
          "ticks": 14856,
          "time": 54.61761975,
          "velocity": 1
        },
        {
          "duration": 0.17647050000000064,
          "durationTicks": 48,
          "midi": 33,
          "name": "A1",
          "ticks": 14904,
          "time": 54.79409025,
          "velocity": 1
        },
        {
          "duration": 0.3529409999999942,
          "durationTicks": 96,
          "midi": 33,
          "name": "A1",
          "ticks": 14952,
          "time": 54.970560750000004,
          "velocity": 1
        },
        {
          "duration": 0.17647050000000064,
          "durationTicks": 48,
          "midi": 45,
          "name": "A2",
          "ticks": 15048,
          "time": 55.32350175,
          "velocity": 1
        },
        {
          "duration": 0.17647050000000064,
          "durationTicks": 48,
          "midi": 40,
          "name": "E2",
          "ticks": 15048,
          "time": 55.32350175,
          "velocity": 1
        },
        {
          "duration": 0.3529410000000013,
          "durationTicks": 96,
          "midi": 47,
          "name": "B2",
          "ticks": 15096,
          "time": 55.49997225,
          "velocity": 1
        },
        {
          "duration": 0.3529410000000013,
          "durationTicks": 96,
          "midi": 35,
          "name": "B1",
          "ticks": 15096,
          "time": 55.49997225,
          "velocity": 1
        },
        {
          "duration": 0.17647050000000064,
          "durationTicks": 48,
          "midi": 35,
          "name": "B1",
          "ticks": 15192,
          "time": 55.85291325,
          "velocity": 1
        },
        {
          "duration": 0.17647050000000064,
          "durationTicks": 48,
          "midi": 42,
          "name": "F#2",
          "ticks": 15240,
          "time": 56.02938375,
          "velocity": 1
        },
        {
          "duration": 0.17647050000000064,
          "durationTicks": 48,
          "midi": 47,
          "name": "B2",
          "ticks": 15240,
          "time": 56.02938375,
          "velocity": 1
        },
        {
          "duration": 0.17647050000000064,
          "durationTicks": 48,
          "midi": 35,
          "name": "B1",
          "ticks": 15288,
          "time": 56.20585425,
          "velocity": 1
        },
        {
          "duration": 0.3529410000000013,
          "durationTicks": 96,
          "midi": 35,
          "name": "B1",
          "ticks": 15336,
          "time": 56.38232475,
          "velocity": 1
        },
        {
          "duration": 0.17647050000000064,
          "durationTicks": 48,
          "midi": 47,
          "name": "B2",
          "ticks": 15432,
          "time": 56.73526575,
          "velocity": 1
        },
        {
          "duration": 0.17647050000000064,
          "durationTicks": 48,
          "midi": 42,
          "name": "F#2",
          "ticks": 15432,
          "time": 56.73526575,
          "velocity": 1
        },
        {
          "duration": 0.17647049999999354,
          "durationTicks": 48,
          "midi": 35,
          "name": "B1",
          "ticks": 15480,
          "time": 56.911736250000004,
          "velocity": 1
        },
        {
          "duration": 0.3529410000000013,
          "durationTicks": 96,
          "midi": 44,
          "name": "G#2",
          "ticks": 15528,
          "time": 57.08820675,
          "velocity": 1
        },
        {
          "duration": 0.3529410000000013,
          "durationTicks": 96,
          "midi": 32,
          "name": "G#1",
          "ticks": 15528,
          "time": 57.08820675,
          "velocity": 1
        },
        {
          "duration": 0.17647050000000064,
          "durationTicks": 48,
          "midi": 39,
          "name": "D#2",
          "ticks": 15624,
          "time": 57.44114775,
          "velocity": 1
        },
        {
          "duration": 0.17647050000000064,
          "durationTicks": 48,
          "midi": 44,
          "name": "G#2",
          "ticks": 15624,
          "time": 57.44114775,
          "velocity": 1
        },
        {
          "duration": 0.17647050000000064,
          "durationTicks": 48,
          "midi": 32,
          "name": "G#1",
          "ticks": 15672,
          "time": 57.61761825,
          "velocity": 1
        },
        {
          "duration": 0.3529410000000013,
          "durationTicks": 96,
          "midi": 32,
          "name": "G#1",
          "ticks": 15720,
          "time": 57.79408875,
          "velocity": 1
        },
        {
          "duration": 0.17647050000000064,
          "durationTicks": 48,
          "midi": 42,
          "name": "F#2",
          "ticks": 15816,
          "time": 58.14702975,
          "velocity": 1
        },
        {
          "duration": 0.17647050000000064,
          "durationTicks": 48,
          "midi": 37,
          "name": "C#2",
          "ticks": 15816,
          "time": 58.14702975,
          "velocity": 1
        },
        {
          "duration": 0.3529410000000013,
          "durationTicks": 96,
          "midi": 49,
          "name": "C#3",
          "ticks": 15864,
          "time": 58.32350025,
          "velocity": 1
        },
        {
          "duration": 0.3529410000000013,
          "durationTicks": 96,
          "midi": 37,
          "name": "C#2",
          "ticks": 15864,
          "time": 58.32350025,
          "velocity": 1
        },
        {
          "duration": 0.17647050000000064,
          "durationTicks": 48,
          "midi": 37,
          "name": "C#2",
          "ticks": 15960,
          "time": 58.67644125,
          "velocity": 1
        },
        {
          "duration": 0.17647049999999354,
          "durationTicks": 48,
          "midi": 44,
          "name": "G#2",
          "ticks": 16008,
          "time": 58.852911750000004,
          "velocity": 1
        },
        {
          "duration": 0.17647049999999354,
          "durationTicks": 48,
          "midi": 49,
          "name": "C#3",
          "ticks": 16008,
          "time": 58.852911750000004,
          "velocity": 1
        },
        {
          "duration": 0.17647050000000064,
          "durationTicks": 48,
          "midi": 37,
          "name": "C#2",
          "ticks": 16056,
          "time": 59.02938225,
          "velocity": 1
        },
        {
          "duration": 0.3529410000000013,
          "durationTicks": 96,
          "midi": 37,
          "name": "C#2",
          "ticks": 16104,
          "time": 59.20585275,
          "velocity": 1
        },
        {
          "duration": 0.17647050000000064,
          "durationTicks": 48,
          "midi": 49,
          "name": "C#3",
          "ticks": 16200,
          "time": 59.55879375,
          "velocity": 1
        },
        {
          "duration": 0.17647050000000064,
          "durationTicks": 48,
          "midi": 44,
          "name": "G#2",
          "ticks": 16200,
          "time": 59.55879375,
          "velocity": 1
        },
        {
          "duration": 0.17647050000000064,
          "durationTicks": 48,
          "midi": 37,
          "name": "C#2",
          "ticks": 16248,
          "time": 59.73526425,
          "velocity": 1
        },
        {
          "duration": 0.3529410000000013,
          "durationTicks": 96,
          "midi": 33,
          "name": "A1",
          "ticks": 16296,
          "time": 59.91173475,
          "velocity": 1
        },
        {
          "duration": 0.3529410000000013,
          "durationTicks": 96,
          "midi": 45,
          "name": "A2",
          "ticks": 16296,
          "time": 59.91173475,
          "velocity": 1
        },
        {
          "duration": 0.17647050000000064,
          "durationTicks": 48,
          "midi": 45,
          "name": "A2",
          "ticks": 16392,
          "time": 60.26467575,
          "velocity": 1
        },
        {
          "duration": 0.17647050000000064,
          "durationTicks": 48,
          "midi": 40,
          "name": "E2",
          "ticks": 16392,
          "time": 60.26467575,
          "velocity": 1
        },
        {
          "duration": 0.17647050000000064,
          "durationTicks": 48,
          "midi": 33,
          "name": "A1",
          "ticks": 16440,
          "time": 60.44114625,
          "velocity": 1
        },
        {
          "duration": 0.3529409999999942,
          "durationTicks": 96,
          "midi": 33,
          "name": "A1",
          "ticks": 16488,
          "time": 60.61761675,
          "velocity": 1
        },
        {
          "duration": 0.17647050000000064,
          "durationTicks": 48,
          "midi": 45,
          "name": "A2",
          "ticks": 16584,
          "time": 60.97055775,
          "velocity": 1
        },
        {
          "duration": 0.17647050000000064,
          "durationTicks": 48,
          "midi": 40,
          "name": "E2",
          "ticks": 16584,
          "time": 60.97055775,
          "velocity": 1
        },
        {
          "duration": 0.17647050000000064,
          "durationTicks": 48,
          "midi": 33,
          "name": "A1",
          "ticks": 16632,
          "time": 61.14702825,
          "velocity": 1
        },
        {
          "duration": 0.3529410000000013,
          "durationTicks": 96,
          "midi": 32,
          "name": "G#1",
          "ticks": 16680,
          "time": 61.32349875,
          "velocity": 1
        },
        {
          "duration": 0.17647050000000064,
          "durationTicks": 48,
          "midi": 39,
          "name": "D#2",
          "ticks": 16776,
          "time": 61.67643975,
          "velocity": 1
        },
        {
          "duration": 0.17647050000000064,
          "durationTicks": 48,
          "midi": 44,
          "name": "G#2",
          "ticks": 16776,
          "time": 61.67643975,
          "velocity": 1
        },
        {
          "duration": 0.3529410000000013,
          "durationTicks": 96,
          "midi": 32,
          "name": "G#1",
          "ticks": 16824,
          "time": 61.85291025,
          "velocity": 1
        },
        {
          "duration": 0.17647050000000064,
          "durationTicks": 48,
          "midi": 32,
          "name": "G#1",
          "ticks": 16920,
          "time": 62.20585125,
          "velocity": 1
        },
        {
          "duration": 0.17647050000000064,
          "durationTicks": 48,
          "midi": 39,
          "name": "D#2",
          "ticks": 16968,
          "time": 62.38232175,
          "velocity": 1
        },
        {
          "duration": 0.17647050000000064,
          "durationTicks": 48,
          "midi": 44,
          "name": "G#2",
          "ticks": 16968,
          "time": 62.38232175,
          "velocity": 1
        },
        {
          "duration": 0.17647050000000064,
          "durationTicks": 48,
          "midi": 32,
          "name": "G#1",
          "ticks": 17016,
          "time": 62.55879225,
          "velocity": 1
        },
        {
          "duration": 0.17647049999999354,
          "durationTicks": 48,
          "midi": 39,
          "name": "D#2",
          "ticks": 17064,
          "time": 62.735262750000004,
          "velocity": 1
        },
        {
          "duration": 0.17647049999999354,
          "durationTicks": 48,
          "midi": 44,
          "name": "G#2",
          "ticks": 17064,
          "time": 62.735262750000004,
          "velocity": 1
        },
        {
          "duration": 0.17647050000000064,
          "durationTicks": 48,
          "midi": 32,
          "name": "G#1",
          "ticks": 17112,
          "time": 62.91173325,
          "velocity": 1
        },
        {
          "duration": 0.17647050000000064,
          "durationTicks": 48,
          "midi": 39,
          "name": "D#2",
          "ticks": 17160,
          "time": 63.08820375,
          "velocity": 1
        },
        {
          "duration": 0.17647050000000064,
          "durationTicks": 48,
          "midi": 44,
          "name": "G#2",
          "ticks": 17160,
          "time": 63.08820375,
          "velocity": 1
        },
        {
          "duration": 0.17647050000000064,
          "durationTicks": 48,
          "midi": 32,
          "name": "G#1",
          "ticks": 17208,
          "time": 63.26467425,
          "velocity": 1
        },
        {
          "duration": 0.17647050000000064,
          "durationTicks": 48,
          "midi": 39,
          "name": "D#2",
          "ticks": 17256,
          "time": 63.44114475,
          "velocity": 1
        },
        {
          "duration": 0.17647050000000064,
          "durationTicks": 48,
          "midi": 44,
          "name": "G#2",
          "ticks": 17256,
          "time": 63.44114475,
          "velocity": 1
        },
        {
          "duration": 0.17647050000000064,
          "durationTicks": 48,
          "midi": 32,
          "name": "G#1",
          "ticks": 17304,
          "time": 63.61761525,
          "velocity": 1
        },
        {
          "duration": 0.17647050000000064,
          "durationTicks": 48,
          "midi": 39,
          "name": "D#2",
          "ticks": 17352,
          "time": 63.79408575,
          "velocity": 1
        },
        {
          "duration": 0.17647050000000064,
          "durationTicks": 48,
          "midi": 44,
          "name": "G#2",
          "ticks": 17352,
          "time": 63.79408575,
          "velocity": 1
        },
        {
          "duration": 0.17647049999999354,
          "durationTicks": 48,
          "midi": 32,
          "name": "G#1",
          "ticks": 17400,
          "time": 63.97055625,
          "velocity": 1
        },
        {
          "duration": 0.17647050000000775,
          "durationTicks": 48,
          "midi": 39,
          "name": "D#2",
          "ticks": 17448,
          "time": 64.14702675,
          "velocity": 1
        },
        {
          "duration": 0.17647050000000775,
          "durationTicks": 48,
          "midi": 44,
          "name": "G#2",
          "ticks": 17448,
          "time": 64.14702675,
          "velocity": 1
        },
        {
          "duration": 0.17647049999999354,
          "durationTicks": 48,
          "midi": 32,
          "name": "G#1",
          "ticks": 17496,
          "time": 64.32349725,
          "velocity": 1
        },
        {
          "duration": 0.17647050000000775,
          "durationTicks": 48,
          "midi": 39,
          "name": "D#2",
          "ticks": 17544,
          "time": 64.49996775,
          "velocity": 1
        },
        {
          "duration": 0.17647050000000775,
          "durationTicks": 48,
          "midi": 44,
          "name": "G#2",
          "ticks": 17544,
          "time": 64.49996775,
          "velocity": 1
        },
        {
          "duration": 0.17647049999999354,
          "durationTicks": 48,
          "midi": 32,
          "name": "G#1",
          "ticks": 17592,
          "time": 64.67643825,
          "velocity": 1
        },
        {
          "duration": 0.17647050000000775,
          "durationTicks": 48,
          "midi": 39,
          "name": "D#2",
          "ticks": 17640,
          "time": 64.85290875,
          "velocity": 1
        },
        {
          "duration": 0.17647050000000775,
          "durationTicks": 48,
          "midi": 44,
          "name": "G#2",
          "ticks": 17640,
          "time": 64.85290875,
          "velocity": 1
        },
        {
          "duration": 0.17647049999999354,
          "durationTicks": 48,
          "midi": 32,
          "name": "G#1",
          "ticks": 17688,
          "time": 65.02937925,
          "velocity": 1
        },
        {
          "duration": 0.17647050000000775,
          "durationTicks": 48,
          "midi": 39,
          "name": "D#2",
          "ticks": 17736,
          "time": 65.20584975,
          "velocity": 1
        },
        {
          "duration": 0.17647050000000775,
          "durationTicks": 48,
          "midi": 44,
          "name": "G#2",
          "ticks": 17736,
          "time": 65.20584975,
          "velocity": 1
        },
        {
          "duration": 0.17647049999999354,
          "durationTicks": 48,
          "midi": 32,
          "name": "G#1",
          "ticks": 17784,
          "time": 65.38232025,
          "velocity": 1
        },
        {
          "duration": 0.3529410000000013,
          "durationTicks": 96,
          "midi": 35,
          "name": "B1",
          "ticks": 17832,
          "time": 65.55879075,
          "velocity": 1
        },
        {
          "duration": 0.17647049999999354,
          "durationTicks": 48,
          "midi": 47,
          "name": "B2",
          "ticks": 17928,
          "time": 65.91173175,
          "velocity": 1
        },
        {
          "duration": 0.17647050000000775,
          "durationTicks": 48,
          "midi": 35,
          "name": "B1",
          "ticks": 17976,
          "time": 66.08820225,
          "velocity": 1
        },
        {
          "duration": 0.3529410000000013,
          "durationTicks": 96,
          "midi": 35,
          "name": "B1",
          "ticks": 18024,
          "time": 66.26467275,
          "velocity": 1
        },
        {
          "duration": 0.17647049999999354,
          "durationTicks": 48,
          "midi": 47,
          "name": "B2",
          "ticks": 18120,
          "time": 66.61761375,
          "velocity": 1
        },
        {
          "duration": 0.17647050000000775,
          "durationTicks": 48,
          "midi": 35,
          "name": "B1",
          "ticks": 18168,
          "time": 66.79408425,
          "velocity": 1
        },
        {
          "duration": 0.3529410000000013,
          "durationTicks": 96,
          "midi": 35,
          "name": "B1",
          "ticks": 18216,
          "time": 66.97055475,
          "velocity": 1
        },
        {
          "duration": 0.17647049999999354,
          "durationTicks": 48,
          "midi": 47,
          "name": "B2",
          "ticks": 18312,
          "time": 67.32349575,
          "velocity": 1
        },
        {
          "duration": 0.3529410000000013,
          "durationTicks": 96,
          "midi": 35,
          "name": "B1",
          "ticks": 18360,
          "time": 67.49996625,
          "velocity": 1
        },
        {
          "duration": 0.17647049999999354,
          "durationTicks": 48,
          "midi": 35,
          "name": "B1",
          "ticks": 18456,
          "time": 67.85290725,
          "velocity": 1
        },
        {
          "duration": 0.17647050000000775,
          "durationTicks": 48,
          "midi": 47,
          "name": "B2",
          "ticks": 18504,
          "time": 68.02937775,
          "velocity": 1
        },
        {
          "duration": 0.17647049999999354,
          "durationTicks": 48,
          "midi": 35,
          "name": "B1",
          "ticks": 18552,
          "time": 68.20584825,
          "velocity": 1
        },
        {
          "duration": 0.3529410000000013,
          "durationTicks": 96,
          "midi": 40,
          "name": "E2",
          "ticks": 18600,
          "time": 68.38231875,
          "velocity": 1
        },
        {
          "duration": 0.17647050000000775,
          "durationTicks": 48,
          "midi": 52,
          "name": "E3",
          "ticks": 18696,
          "time": 68.73525975,
          "velocity": 1
        },
        {
          "duration": 0.17647049999999354,
          "durationTicks": 48,
          "midi": 40,
          "name": "E2",
          "ticks": 18744,
          "time": 68.91173025,
          "velocity": 1
        },
        {
          "duration": 0.3529410000000013,
          "durationTicks": 96,
          "midi": 40,
          "name": "E2",
          "ticks": 18792,
          "time": 69.08820075,
          "velocity": 1
        },
        {
          "duration": 0.17647050000000775,
          "durationTicks": 48,
          "midi": 52,
          "name": "E3",
          "ticks": 18888,
          "time": 69.44114175,
          "velocity": 1
        },
        {
          "duration": 0.17647049999999354,
          "durationTicks": 48,
          "midi": 40,
          "name": "E2",
          "ticks": 18936,
          "time": 69.61761225000001,
          "velocity": 1
        },
        {
          "duration": 0.3529410000000013,
          "durationTicks": 96,
          "midi": 40,
          "name": "E2",
          "ticks": 18984,
          "time": 69.79408275,
          "velocity": 1
        },
        {
          "duration": 0.17647049999999354,
          "durationTicks": 48,
          "midi": 52,
          "name": "E3",
          "ticks": 19080,
          "time": 70.14702375,
          "velocity": 1
        },
        {
          "duration": 0.3529410000000013,
          "durationTicks": 96,
          "midi": 40,
          "name": "E2",
          "ticks": 19128,
          "time": 70.32349425,
          "velocity": 1
        },
        {
          "duration": 0.17647050000000775,
          "durationTicks": 48,
          "midi": 40,
          "name": "E2",
          "ticks": 19224,
          "time": 70.67643525,
          "velocity": 1
        },
        {
          "duration": 0.17647049999999354,
          "durationTicks": 48,
          "midi": 52,
          "name": "E3",
          "ticks": 19272,
          "time": 70.85290575,
          "velocity": 1
        },
        {
          "duration": 0.17647050000000775,
          "durationTicks": 48,
          "midi": 40,
          "name": "E2",
          "ticks": 19320,
          "time": 71.02937625,
          "velocity": 1
        },
        {
          "duration": 0.3529410000000013,
          "durationTicks": 96,
          "midi": 37,
          "name": "C#2",
          "ticks": 19368,
          "time": 71.20584675,
          "velocity": 1
        },
        {
          "duration": 0.17647049999999354,
          "durationTicks": 48,
          "midi": 49,
          "name": "C#3",
          "ticks": 19464,
          "time": 71.55878775000001,
          "velocity": 1
        },
        {
          "duration": 0.17647049999999354,
          "durationTicks": 48,
          "midi": 37,
          "name": "C#2",
          "ticks": 19512,
          "time": 71.73525825,
          "velocity": 1
        },
        {
          "duration": 0.3529410000000013,
          "durationTicks": 96,
          "midi": 37,
          "name": "C#2",
          "ticks": 19560,
          "time": 71.91172875,
          "velocity": 1
        },
        {
          "duration": 0.17647050000000775,
          "durationTicks": 48,
          "midi": 49,
          "name": "C#3",
          "ticks": 19656,
          "time": 72.26466975,
          "velocity": 1
        },
        {
          "duration": 0.17647049999999354,
          "durationTicks": 48,
          "midi": 37,
          "name": "C#2",
          "ticks": 19704,
          "time": 72.44114025,
          "velocity": 1
        },
        {
          "duration": 0.3529410000000013,
          "durationTicks": 96,
          "midi": 39,
          "name": "D#2",
          "ticks": 19752,
          "time": 72.61761075,
          "velocity": 1
        },
        {
          "duration": 0.17647050000000775,
          "durationTicks": 48,
          "midi": 51,
          "name": "D#3",
          "ticks": 19848,
          "time": 72.97055175,
          "velocity": 1
        },
        {
          "duration": 0.3529410000000013,
          "durationTicks": 96,
          "midi": 39,
          "name": "D#2",
          "ticks": 19896,
          "time": 73.14702225,
          "velocity": 1
        },
        {
          "duration": 0.17647049999999354,
          "durationTicks": 48,
          "midi": 39,
          "name": "D#2",
          "ticks": 19992,
          "time": 73.49996325000001,
          "velocity": 1
        },
        {
          "duration": 0.17647049999999354,
          "durationTicks": 48,
          "midi": 51,
          "name": "D#3",
          "ticks": 20040,
          "time": 73.67643375,
          "velocity": 1
        },
        {
          "duration": 0.17647050000000775,
          "durationTicks": 48,
          "midi": 39,
          "name": "D#2",
          "ticks": 20088,
          "time": 73.85290425,
          "velocity": 1
        },
        {
          "duration": 0.17647049999999354,
          "durationTicks": 48,
          "midi": 39,
          "name": "D#2",
          "ticks": 20136,
          "time": 74.02937475,
          "velocity": 1
        },
        {
          "duration": 0.17647049999999354,
          "durationTicks": 48,
          "midi": 44,
          "name": "G#2",
          "ticks": 20136,
          "time": 74.02937475,
          "velocity": 1
        },
        {
          "duration": 0.17647050000000775,
          "durationTicks": 48,
          "midi": 32,
          "name": "G#1",
          "ticks": 20184,
          "time": 74.20584525,
          "velocity": 1
        },
        {
          "duration": 0.17647049999999354,
          "durationTicks": 48,
          "midi": 39,
          "name": "D#2",
          "ticks": 20232,
          "time": 74.38231575,
          "velocity": 1
        },
        {
          "duration": 0.17647049999999354,
          "durationTicks": 48,
          "midi": 44,
          "name": "G#2",
          "ticks": 20232,
          "time": 74.38231575,
          "velocity": 1
        },
        {
          "duration": 0.17647050000000775,
          "durationTicks": 48,
          "midi": 32,
          "name": "G#1",
          "ticks": 20280,
          "time": 74.55878625,
          "velocity": 1
        },
        {
          "duration": 0.17647049999999354,
          "durationTicks": 48,
          "midi": 39,
          "name": "D#2",
          "ticks": 20328,
          "time": 74.73525675,
          "velocity": 1
        },
        {
          "duration": 0.17647049999999354,
          "durationTicks": 48,
          "midi": 44,
          "name": "G#2",
          "ticks": 20328,
          "time": 74.73525675,
          "velocity": 1
        },
        {
          "duration": 0.17647050000000775,
          "durationTicks": 48,
          "midi": 32,
          "name": "G#1",
          "ticks": 20376,
          "time": 74.91172725,
          "velocity": 1
        },
        {
          "duration": 0.17647049999999354,
          "durationTicks": 48,
          "midi": 39,
          "name": "D#2",
          "ticks": 20424,
          "time": 75.08819775,
          "velocity": 1
        },
        {
          "duration": 0.17647049999999354,
          "durationTicks": 48,
          "midi": 44,
          "name": "G#2",
          "ticks": 20424,
          "time": 75.08819775,
          "velocity": 1
        },
        {
          "duration": 0.17647050000000775,
          "durationTicks": 48,
          "midi": 32,
          "name": "G#1",
          "ticks": 20472,
          "time": 75.26466825,
          "velocity": 1
        },
        {
          "duration": 0.17647049999999354,
          "durationTicks": 48,
          "midi": 39,
          "name": "D#2",
          "ticks": 20520,
          "time": 75.44113875000001,
          "velocity": 1
        },
        {
          "duration": 0.17647049999999354,
          "durationTicks": 48,
          "midi": 44,
          "name": "G#2",
          "ticks": 20520,
          "time": 75.44113875000001,
          "velocity": 1
        },
        {
          "duration": 0.17647049999999354,
          "durationTicks": 48,
          "midi": 32,
          "name": "G#1",
          "ticks": 20568,
          "time": 75.61760925,
          "velocity": 1
        },
        {
          "duration": 0.17647050000000775,
          "durationTicks": 48,
          "midi": 39,
          "name": "D#2",
          "ticks": 20616,
          "time": 75.79407975,
          "velocity": 1
        },
        {
          "duration": 0.17647050000000775,
          "durationTicks": 48,
          "midi": 44,
          "name": "G#2",
          "ticks": 20616,
          "time": 75.79407975,
          "velocity": 1
        },
        {
          "duration": 0.17647049999999354,
          "durationTicks": 48,
          "midi": 32,
          "name": "G#1",
          "ticks": 20664,
          "time": 75.97055025,
          "velocity": 1
        },
        {
          "duration": 0.17647050000000775,
          "durationTicks": 48,
          "midi": 39,
          "name": "D#2",
          "ticks": 20712,
          "time": 76.14702075,
          "velocity": 1
        },
        {
          "duration": 0.17647050000000775,
          "durationTicks": 48,
          "midi": 44,
          "name": "G#2",
          "ticks": 20712,
          "time": 76.14702075,
          "velocity": 1
        },
        {
          "duration": 0.17647049999999354,
          "durationTicks": 48,
          "midi": 32,
          "name": "G#1",
          "ticks": 20760,
          "time": 76.32349125,
          "velocity": 1
        },
        {
          "duration": 0.17647050000000775,
          "durationTicks": 48,
          "midi": 39,
          "name": "D#2",
          "ticks": 20808,
          "time": 76.49996175,
          "velocity": 1
        },
        {
          "duration": 0.17647050000000775,
          "durationTicks": 48,
          "midi": 44,
          "name": "G#2",
          "ticks": 20808,
          "time": 76.49996175,
          "velocity": 1
        },
        {
          "duration": 0.17647049999999354,
          "durationTicks": 48,
          "midi": 32,
          "name": "G#1",
          "ticks": 20856,
          "time": 76.67643225,
          "velocity": 1
        },
        {
          "duration": 0.3529410000000013,
          "durationTicks": 96,
          "midi": 35,
          "name": "B1",
          "ticks": 20904,
          "time": 76.85290275,
          "velocity": 1
        },
        {
          "duration": 0.17647050000000775,
          "durationTicks": 48,
          "midi": 47,
          "name": "B2",
          "ticks": 21000,
          "time": 77.20584375,
          "velocity": 1
        },
        {
          "duration": 0.17647049999999354,
          "durationTicks": 48,
          "midi": 35,
          "name": "B1",
          "ticks": 21048,
          "time": 77.38231425000001,
          "velocity": 1
        },
        {
          "duration": 0.3529410000000013,
          "durationTicks": 96,
          "midi": 35,
          "name": "B1",
          "ticks": 21096,
          "time": 77.55878475,
          "velocity": 1
        },
        {
          "duration": 0.17647049999999354,
          "durationTicks": 48,
          "midi": 47,
          "name": "B2",
          "ticks": 21192,
          "time": 77.91172575,
          "velocity": 1
        },
        {
          "duration": 0.17647050000000775,
          "durationTicks": 48,
          "midi": 35,
          "name": "B1",
          "ticks": 21240,
          "time": 78.08819625,
          "velocity": 1
        },
        {
          "duration": 0.3529410000000013,
          "durationTicks": 96,
          "midi": 35,
          "name": "B1",
          "ticks": 21288,
          "time": 78.26466675,
          "velocity": 1
        },
        {
          "duration": 0.17647049999999354,
          "durationTicks": 48,
          "midi": 47,
          "name": "B2",
          "ticks": 21384,
          "time": 78.61760775,
          "velocity": 1
        },
        {
          "duration": 0.3529410000000013,
          "durationTicks": 96,
          "midi": 35,
          "name": "B1",
          "ticks": 21432,
          "time": 78.79407825,
          "velocity": 1
        },
        {
          "duration": 0.17647050000000775,
          "durationTicks": 48,
          "midi": 35,
          "name": "B1",
          "ticks": 21528,
          "time": 79.14701925,
          "velocity": 1
        },
        {
          "duration": 0.17647049999999354,
          "durationTicks": 48,
          "midi": 47,
          "name": "B2",
          "ticks": 21576,
          "time": 79.32348975000001,
          "velocity": 1
        },
        {
          "duration": 0.17647049999999354,
          "durationTicks": 48,
          "midi": 35,
          "name": "B1",
          "ticks": 21624,
          "time": 79.49996025,
          "velocity": 1
        },
        {
          "duration": 0.3529410000000013,
          "durationTicks": 96,
          "midi": 40,
          "name": "E2",
          "ticks": 21672,
          "time": 79.67643075,
          "velocity": 1
        },
        {
          "duration": 0.17647050000000775,
          "durationTicks": 48,
          "midi": 52,
          "name": "E3",
          "ticks": 21768,
          "time": 80.02937175,
          "velocity": 1
        },
        {
          "duration": 0.17647049999999354,
          "durationTicks": 48,
          "midi": 40,
          "name": "E2",
          "ticks": 21816,
          "time": 80.20584225,
          "velocity": 1
        },
        {
          "duration": 0.3529410000000013,
          "durationTicks": 96,
          "midi": 40,
          "name": "E2",
          "ticks": 21864,
          "time": 80.38231275,
          "velocity": 1
        },
        {
          "duration": 0.17647050000000775,
          "durationTicks": 48,
          "midi": 52,
          "name": "E3",
          "ticks": 21960,
          "time": 80.73525375,
          "velocity": 1
        },
        {
          "duration": 0.17647049999999354,
          "durationTicks": 48,
          "midi": 40,
          "name": "E2",
          "ticks": 22008,
          "time": 80.91172425,
          "velocity": 1
        },
        {
          "duration": 0.3529410000000013,
          "durationTicks": 96,
          "midi": 40,
          "name": "E2",
          "ticks": 22056,
          "time": 81.08819475,
          "velocity": 1
        },
        {
          "duration": 0.17647049999999354,
          "durationTicks": 48,
          "midi": 52,
          "name": "E3",
          "ticks": 22152,
          "time": 81.44113575,
          "velocity": 1
        },
        {
          "duration": 0.3529410000000013,
          "durationTicks": 96,
          "midi": 40,
          "name": "E2",
          "ticks": 22200,
          "time": 81.61760625,
          "velocity": 1
        },
        {
          "duration": 0.17647050000000775,
          "durationTicks": 48,
          "midi": 40,
          "name": "E2",
          "ticks": 22296,
          "time": 81.97054725,
          "velocity": 1
        },
        {
          "duration": 0.17647049999999354,
          "durationTicks": 48,
          "midi": 52,
          "name": "E3",
          "ticks": 22344,
          "time": 82.14701775,
          "velocity": 1
        },
        {
          "duration": 0.17647050000000775,
          "durationTicks": 48,
          "midi": 40,
          "name": "E2",
          "ticks": 22392,
          "time": 82.32348825,
          "velocity": 1
        },
        {
          "duration": 0.3529410000000013,
          "durationTicks": 96,
          "midi": 37,
          "name": "C#2",
          "ticks": 22440,
          "time": 82.49995875,
          "velocity": 1
        },
        {
          "duration": 0.17647049999999354,
          "durationTicks": 48,
          "midi": 49,
          "name": "C#3",
          "ticks": 22536,
          "time": 82.85289975,
          "velocity": 1
        },
        {
          "duration": 0.17647050000000775,
          "durationTicks": 48,
          "midi": 37,
          "name": "C#2",
          "ticks": 22584,
          "time": 83.02937025,
          "velocity": 1
        },
        {
          "duration": 0.35294099999998707,
          "durationTicks": 96,
          "midi": 37,
          "name": "C#2",
          "ticks": 22632,
          "time": 83.20584075000001,
          "velocity": 1
        },
        {
          "duration": 0.17647050000000775,
          "durationTicks": 48,
          "midi": 49,
          "name": "C#3",
          "ticks": 22728,
          "time": 83.55878175,
          "velocity": 1
        },
        {
          "duration": 0.17647049999999354,
          "durationTicks": 48,
          "midi": 37,
          "name": "C#2",
          "ticks": 22776,
          "time": 83.73525225,
          "velocity": 1
        },
        {
          "duration": 0.3529410000000013,
          "durationTicks": 96,
          "midi": 39,
          "name": "D#2",
          "ticks": 22824,
          "time": 83.91172275,
          "velocity": 1
        },
        {
          "duration": 0.17647050000000775,
          "durationTicks": 48,
          "midi": 51,
          "name": "D#3",
          "ticks": 22920,
          "time": 84.26466375,
          "velocity": 1
        },
        {
          "duration": 0.3529410000000013,
          "durationTicks": 96,
          "midi": 39,
          "name": "D#2",
          "ticks": 22968,
          "time": 84.44113425,
          "velocity": 1
        },
        {
          "duration": 0.17647049999999354,
          "durationTicks": 48,
          "midi": 39,
          "name": "D#2",
          "ticks": 23064,
          "time": 84.79407525,
          "velocity": 1
        },
        {
          "duration": 0.17647050000000775,
          "durationTicks": 48,
          "midi": 51,
          "name": "D#3",
          "ticks": 23112,
          "time": 84.97054575,
          "velocity": 1
        },
        {
          "duration": 0.17647049999999354,
          "durationTicks": 48,
          "midi": 39,
          "name": "D#2",
          "ticks": 23160,
          "time": 85.14701625000001,
          "velocity": 1
        },
        {
          "duration": 0.17647049999999354,
          "durationTicks": 48,
          "midi": 44,
          "name": "G#2",
          "ticks": 23208,
          "time": 85.32348675,
          "velocity": 1
        },
        {
          "duration": 0.17647049999999354,
          "durationTicks": 48,
          "midi": 44,
          "name": "G#2",
          "ticks": 23280,
          "time": 85.5881925,
          "velocity": 1
        },
        {
          "duration": 0.17647049999999354,
          "durationTicks": 48,
          "midi": 51,
          "name": "D#3",
          "ticks": 23304,
          "time": 85.67642775,
          "velocity": 1
        },
        {
          "duration": 0.17647050000000775,
          "durationTicks": 48,
          "midi": 44,
          "name": "G#2",
          "ticks": 23352,
          "time": 85.85289825,
          "velocity": 1
        },
        {
          "duration": 0.17647049999999354,
          "durationTicks": 48,
          "midi": 47,
          "name": "B2",
          "ticks": 23400,
          "time": 86.02936875,
          "velocity": 1
        },
        {
          "duration": 0.17647050000000775,
          "durationTicks": 48,
          "midi": 44,
          "name": "G#2",
          "ticks": 23448,
          "time": 86.20583925,
          "velocity": 1
        },
        {
          "duration": 0.17647049999999354,
          "durationTicks": 48,
          "midi": 51,
          "name": "D#3",
          "ticks": 23496,
          "time": 86.38230975,
          "velocity": 1
        },
        {
          "duration": 0.17647049999999354,
          "durationTicks": 48,
          "midi": 47,
          "name": "B2",
          "ticks": 23496,
          "time": 86.38230975,
          "velocity": 1
        },
        {
          "duration": 0.17647050000000775,
          "durationTicks": 48,
          "midi": 51,
          "name": "D#3",
          "ticks": 23544,
          "time": 86.55878025,
          "velocity": 1
        },
        {
          "duration": 0.17647049999999354,
          "durationTicks": 48,
          "midi": 52,
          "name": "E3",
          "ticks": 23592,
          "time": 86.73525075,
          "velocity": 1
        },
        {
          "duration": 0.17647050000000775,
          "durationTicks": 48,
          "midi": 52,
          "name": "E3",
          "ticks": 23664,
          "time": 86.9999565,
          "velocity": 1
        },
        {
          "duration": 0.17647049999999354,
          "durationTicks": 48,
          "midi": 59,
          "name": "B3",
          "ticks": 23688,
          "time": 87.08819175000001,
          "velocity": 1
        },
        {
          "duration": 0.17647049999999354,
          "durationTicks": 48,
          "midi": 52,
          "name": "E3",
          "ticks": 23736,
          "time": 87.26466225,
          "velocity": 1
        },
        {
          "duration": 0.17647050000000775,
          "durationTicks": 48,
          "midi": 51,
          "name": "D#3",
          "ticks": 23784,
          "time": 87.44113275,
          "velocity": 1
        },
        {
          "duration": 0.17647049999999354,
          "durationTicks": 48,
          "midi": 52,
          "name": "E3",
          "ticks": 23832,
          "time": 87.61760325,
          "velocity": 1
        },
        {
          "duration": 0.17647050000000775,
          "durationTicks": 48,
          "midi": 59,
          "name": "B3",
          "ticks": 23880,
          "time": 87.79407375,
          "velocity": 1
        },
        {
          "duration": 0.17647050000000775,
          "durationTicks": 48,
          "midi": 51,
          "name": "D#3",
          "ticks": 23880,
          "time": 87.79407375,
          "velocity": 1
        },
        {
          "duration": 0.17647049999999354,
          "durationTicks": 48,
          "midi": 47,
          "name": "B2",
          "ticks": 23928,
          "time": 87.97054425,
          "velocity": 1
        },
        {
          "duration": 0.17647050000000775,
          "durationTicks": 48,
          "midi": 44,
          "name": "G#2",
          "ticks": 23976,
          "time": 88.14701475,
          "velocity": 1
        },
        {
          "duration": 0.17647049999999354,
          "durationTicks": 48,
          "midi": 44,
          "name": "G#2",
          "ticks": 24048,
          "time": 88.4117205,
          "velocity": 1
        },
        {
          "duration": 0.17647050000000775,
          "durationTicks": 48,
          "midi": 51,
          "name": "D#3",
          "ticks": 24072,
          "time": 88.49995575,
          "velocity": 1
        },
        {
          "duration": 0.17647049999999354,
          "durationTicks": 48,
          "midi": 44,
          "name": "G#2",
          "ticks": 24120,
          "time": 88.67642625,
          "velocity": 1
        },
        {
          "duration": 0.17647050000000775,
          "durationTicks": 48,
          "midi": 47,
          "name": "B2",
          "ticks": 24168,
          "time": 88.85289675,
          "velocity": 1
        },
        {
          "duration": 0.17647049999999354,
          "durationTicks": 48,
          "midi": 44,
          "name": "G#2",
          "ticks": 24216,
          "time": 89.02936725,
          "velocity": 1
        },
        {
          "duration": 0.17647049999999354,
          "durationTicks": 48,
          "midi": 51,
          "name": "D#3",
          "ticks": 24264,
          "time": 89.20583775,
          "velocity": 1
        },
        {
          "duration": 0.17647049999999354,
          "durationTicks": 48,
          "midi": 47,
          "name": "B2",
          "ticks": 24264,
          "time": 89.20583775,
          "velocity": 1
        },
        {
          "duration": 0.17647050000000775,
          "durationTicks": 48,
          "midi": 51,
          "name": "D#3",
          "ticks": 24312,
          "time": 89.38230825,
          "velocity": 1
        },
        {
          "duration": 0.17647049999999354,
          "durationTicks": 48,
          "midi": 52,
          "name": "E3",
          "ticks": 24360,
          "time": 89.55877875,
          "velocity": 1
        },
        {
          "duration": 0.17647049999999354,
          "durationTicks": 48,
          "midi": 52,
          "name": "E3",
          "ticks": 24432,
          "time": 89.8234845,
          "velocity": 1
        },
        {
          "duration": 0.17647049999999354,
          "durationTicks": 48,
          "midi": 59,
          "name": "B3",
          "ticks": 24456,
          "time": 89.91171975,
          "velocity": 1
        },
        {
          "duration": 0.17647050000000775,
          "durationTicks": 48,
          "midi": 52,
          "name": "E3",
          "ticks": 24504,
          "time": 90.08819025,
          "velocity": 1
        },
        {
          "duration": 0.17647049999999354,
          "durationTicks": 48,
          "midi": 51,
          "name": "D#3",
          "ticks": 24552,
          "time": 90.26466075,
          "velocity": 1
        },
        {
          "duration": 0.17647050000000775,
          "durationTicks": 48,
          "midi": 52,
          "name": "E3",
          "ticks": 24600,
          "time": 90.44113125,
          "velocity": 1
        },
        {
          "duration": 0.17647049999999354,
          "durationTicks": 48,
          "midi": 51,
          "name": "D#3",
          "ticks": 24648,
          "time": 90.61760175,
          "velocity": 1
        },
        {
          "duration": 0.17647050000000775,
          "durationTicks": 48,
          "midi": 44,
          "name": "G#2",
          "ticks": 24696,
          "time": 90.79407225,
          "velocity": 1
        },
        {
          "duration": 0.3529410000000013,
          "durationTicks": 96,
          "midi": 44,
          "name": "G#2",
          "ticks": 24744,
          "time": 90.97054275,
          "velocity": 1
        },
        {
          "duration": 0.3529410000000013,
          "durationTicks": 96,
          "midi": 39,
          "name": "D#2",
          "ticks": 24744,
          "time": 90.97054275,
          "velocity": 1
        },
        {
          "duration": 0.35294099999998707,
          "durationTicks": 96,
          "midi": 44,
          "name": "G#2",
          "ticks": 24840,
          "time": 91.32348375000001,
          "velocity": 1
        },
        {
          "duration": 0.35294099999998707,
          "durationTicks": 96,
          "midi": 39,
          "name": "D#2",
          "ticks": 24840,
          "time": 91.32348375000001,
          "velocity": 1
        },
        {
          "duration": 0.3529410000000013,
          "durationTicks": 96,
          "midi": 47,
          "name": "B2",
          "ticks": 24936,
          "time": 91.67642475,
          "velocity": 1
        },
        {
          "duration": 0.3529410000000013,
          "durationTicks": 96,
          "midi": 42,
          "name": "F#2",
          "ticks": 24936,
          "time": 91.67642475,
          "velocity": 1
        },
        {
          "duration": 0.3529410000000013,
          "durationTicks": 96,
          "midi": 47,
          "name": "B2",
          "ticks": 25032,
          "time": 92.02936575,
          "velocity": 1
        },
        {
          "duration": 0.3529410000000013,
          "durationTicks": 96,
          "midi": 42,
          "name": "F#2",
          "ticks": 25032,
          "time": 92.02936575,
          "velocity": 1
        },
        {
          "duration": 0.3529410000000013,
          "durationTicks": 96,
          "midi": 47,
          "name": "B2",
          "ticks": 25128,
          "time": 92.38230675,
          "velocity": 1
        },
        {
          "duration": 0.3529410000000013,
          "durationTicks": 96,
          "midi": 52,
          "name": "E3",
          "ticks": 25128,
          "time": 92.38230675,
          "velocity": 1
        },
        {
          "duration": 0.3529410000000013,
          "durationTicks": 96,
          "midi": 52,
          "name": "E3",
          "ticks": 25224,
          "time": 92.73524775,
          "velocity": 1
        },
        {
          "duration": 0.3529410000000013,
          "durationTicks": 96,
          "midi": 47,
          "name": "B2",
          "ticks": 25224,
          "time": 92.73524775,
          "velocity": 1
        },
        {
          "duration": 0.3529410000000013,
          "durationTicks": 96,
          "midi": 46,
          "name": "A#2",
          "ticks": 25320,
          "time": 93.08818875,
          "velocity": 1
        },
        {
          "duration": 0.3529410000000013,
          "durationTicks": 96,
          "midi": 51,
          "name": "D#3",
          "ticks": 25320,
          "time": 93.08818875,
          "velocity": 1
        },
        {
          "duration": 0.3529410000000013,
          "durationTicks": 96,
          "midi": 46,
          "name": "A#2",
          "ticks": 25416,
          "time": 93.44112975,
          "velocity": 1
        },
        {
          "duration": 0.3529410000000013,
          "durationTicks": 96,
          "midi": 51,
          "name": "D#3",
          "ticks": 25416,
          "time": 93.44112975,
          "velocity": 1
        },
        {
          "duration": 0.3529410000000013,
          "durationTicks": 96,
          "midi": 44,
          "name": "G#2",
          "ticks": 25512,
          "time": 93.79407075,
          "velocity": 1
        },
        {
          "duration": 0.3529410000000013,
          "durationTicks": 96,
          "midi": 39,
          "name": "D#2",
          "ticks": 25512,
          "time": 93.79407075,
          "velocity": 1
        },
        {
          "duration": 0.3529410000000013,
          "durationTicks": 96,
          "midi": 44,
          "name": "G#2",
          "ticks": 25608,
          "time": 94.14701175,
          "velocity": 1
        },
        {
          "duration": 0.3529410000000013,
          "durationTicks": 96,
          "midi": 39,
          "name": "D#2",
          "ticks": 25608,
          "time": 94.14701175,
          "velocity": 1
        },
        {
          "duration": 0.3529410000000013,
          "durationTicks": 96,
          "midi": 47,
          "name": "B2",
          "ticks": 25704,
          "time": 94.49995275,
          "velocity": 1
        },
        {
          "duration": 0.3529410000000013,
          "durationTicks": 96,
          "midi": 42,
          "name": "F#2",
          "ticks": 25704,
          "time": 94.49995275,
          "velocity": 1
        },
        {
          "duration": 0.3529410000000013,
          "durationTicks": 96,
          "midi": 47,
          "name": "B2",
          "ticks": 25800,
          "time": 94.85289375,
          "velocity": 1
        },
        {
          "duration": 0.3529410000000013,
          "durationTicks": 96,
          "midi": 42,
          "name": "F#2",
          "ticks": 25800,
          "time": 94.85289375,
          "velocity": 1
        },
        {
          "duration": 0.35294099999998707,
          "durationTicks": 96,
          "midi": 47,
          "name": "B2",
          "ticks": 25896,
          "time": 95.20583475000001,
          "velocity": 1
        },
        {
          "duration": 0.35294099999998707,
          "durationTicks": 96,
          "midi": 52,
          "name": "E3",
          "ticks": 25896,
          "time": 95.20583475000001,
          "velocity": 1
        },
        {
          "duration": 0.3529410000000013,
          "durationTicks": 96,
          "midi": 52,
          "name": "E3",
          "ticks": 25992,
          "time": 95.55877575,
          "velocity": 1
        },
        {
          "duration": 0.3529410000000013,
          "durationTicks": 96,
          "midi": 47,
          "name": "B2",
          "ticks": 25992,
          "time": 95.55877575,
          "velocity": 1
        },
        {
          "duration": 0.3529410000000013,
          "durationTicks": 96,
          "midi": 51,
          "name": "D#3",
          "ticks": 26088,
          "time": 95.91171675,
          "velocity": 1
        },
        {
          "duration": 0.3529410000000013,
          "durationTicks": 96,
          "midi": 35,
          "name": "B1",
          "ticks": 26184,
          "time": 96.26465775,
          "velocity": 1
        },
        {
          "duration": 0.7058820000000026,
          "durationTicks": 192,
          "midi": 32,
          "name": "G#1",
          "ticks": 26280,
          "time": 96.61759875,
          "velocity": 1
        },
        {
          "duration": 0.7058820000000026,
          "durationTicks": 192,
          "midi": 44,
          "name": "G#2",
          "ticks": 26280,
          "time": 96.61759875,
          "velocity": 1
        },
        {
          "duration": 0.7058820000000026,
          "durationTicks": 192,
          "midi": 39,
          "name": "D#2",
          "ticks": 26280,
          "time": 96.61759875,
          "velocity": 1
        },
        {
          "duration": 0.17647049999999354,
          "durationTicks": 48,
          "midi": 51,
          "name": "D#3",
          "ticks": 26472,
          "time": 97.32348075,
          "velocity": 1
        },
        {
          "duration": 0.3529410000000013,
          "durationTicks": 96,
          "midi": 44,
          "name": "G#2",
          "ticks": 26568,
          "time": 97.67642175,
          "velocity": 1
        },
        {
          "duration": 0.3529410000000013,
          "durationTicks": 96,
          "midi": 44,
          "name": "G#2",
          "ticks": 26760,
          "time": 98.38230375,
          "velocity": 1
        },
        {
          "duration": 0.35294099999998707,
          "durationTicks": 96,
          "midi": 34,
          "name": "A#1",
          "ticks": 26952,
          "time": 99.08818575000001,
          "velocity": 1
        },
        {
          "duration": 0.7058820000000026,
          "durationTicks": 192,
          "midi": 44,
          "name": "G#2",
          "ticks": 27048,
          "time": 99.44112675,
          "velocity": 1
        },
        {
          "duration": 0.7058820000000026,
          "durationTicks": 192,
          "midi": 32,
          "name": "G#1",
          "ticks": 27048,
          "time": 99.44112675,
          "velocity": 1
        },
        {
          "duration": 0.7058820000000026,
          "durationTicks": 192,
          "midi": 39,
          "name": "D#2",
          "ticks": 27048,
          "time": 99.44112675,
          "velocity": 1
        },
        {
          "duration": 0.17647050000000775,
          "durationTicks": 48,
          "midi": 51,
          "name": "D#3",
          "ticks": 27240,
          "time": 100.14700875,
          "velocity": 1
        },
        {
          "duration": 0.3529410000000013,
          "durationTicks": 96,
          "midi": 44,
          "name": "G#2",
          "ticks": 27336,
          "time": 100.49994975,
          "velocity": 1
        },
        {
          "duration": 0.3529410000000013,
          "durationTicks": 96,
          "midi": 44,
          "name": "G#2",
          "ticks": 27528,
          "time": 101.20583175,
          "velocity": 1
        },
        {
          "duration": 0.3529410000000013,
          "durationTicks": 96,
          "midi": 32,
          "name": "G#1",
          "ticks": 27720,
          "time": 101.91171375,
          "velocity": 1
        },
        {
          "duration": 0.7058820000000026,
          "durationTicks": 192,
          "midi": 47,
          "name": "B2",
          "ticks": 27816,
          "time": 102.26465475,
          "velocity": 1
        },
        {
          "duration": 0.7058820000000026,
          "durationTicks": 192,
          "midi": 35,
          "name": "B1",
          "ticks": 27816,
          "time": 102.26465475,
          "velocity": 1
        },
        {
          "duration": 0.7058820000000026,
          "durationTicks": 192,
          "midi": 42,
          "name": "F#2",
          "ticks": 27816,
          "time": 102.26465475,
          "velocity": 1
        },
        {
          "duration": 0.17647049999999354,
          "durationTicks": 48,
          "midi": 54,
          "name": "F#3",
          "ticks": 28008,
          "time": 102.97053675000001,
          "velocity": 1
        },
        {
          "duration": 0.3529410000000013,
          "durationTicks": 96,
          "midi": 47,
          "name": "B2",
          "ticks": 28104,
          "time": 103.32347775,
          "velocity": 1
        },
        {
          "duration": 0.3529410000000013,
          "durationTicks": 96,
          "midi": 47,
          "name": "B2",
          "ticks": 28296,
          "time": 104.02935975,
          "velocity": 1
        },
        {
          "duration": 0.3529410000000013,
          "durationTicks": 96,
          "midi": 35,
          "name": "B1",
          "ticks": 28488,
          "time": 104.73524175,
          "velocity": 1
        },
        {
          "duration": 0.7058820000000026,
          "durationTicks": 192,
          "midi": 51,
          "name": "D#3",
          "ticks": 28584,
          "time": 105.08818275,
          "velocity": 1
        },
        {
          "duration": 0.7058820000000026,
          "durationTicks": 192,
          "midi": 39,
          "name": "D#2",
          "ticks": 28584,
          "time": 105.08818275,
          "velocity": 1
        },
        {
          "duration": 0.7058820000000026,
          "durationTicks": 192,
          "midi": 46,
          "name": "A#2",
          "ticks": 28584,
          "time": 105.08818275,
          "velocity": 1
        },
        {
          "duration": 0.17647049999999354,
          "durationTicks": 48,
          "midi": 58,
          "name": "A#3",
          "ticks": 28776,
          "time": 105.79406475,
          "velocity": 1
        },
        {
          "duration": 0.3529410000000013,
          "durationTicks": 96,
          "midi": 51,
          "name": "D#3",
          "ticks": 28872,
          "time": 106.14700575,
          "velocity": 1
        },
        {
          "duration": 0.35294099999998707,
          "durationTicks": 96,
          "midi": 51,
          "name": "D#3",
          "ticks": 29064,
          "time": 106.85288775000001,
          "velocity": 1
        },
        {
          "duration": 0.17647050000000775,
          "durationTicks": 48,
          "midi": 39,
          "name": "D#2",
          "ticks": 29160,
          "time": 107.20582875,
          "velocity": 1
        },
        {
          "duration": 0.17647049999999354,
          "durationTicks": 48,
          "midi": 51,
          "name": "D#3",
          "ticks": 29208,
          "time": 107.38229925,
          "velocity": 1
        },
        {
          "duration": 0.17647050000000775,
          "durationTicks": 48,
          "midi": 39,
          "name": "D#2",
          "ticks": 29256,
          "time": 107.55876975,
          "velocity": 1
        },
        {
          "duration": 0.17647049999999354,
          "durationTicks": 48,
          "midi": 51,
          "name": "D#3",
          "ticks": 29304,
          "time": 107.73524025,
          "velocity": 1
        },
        {
          "duration": 0.3529410000000013,
          "durationTicks": 96,
          "midi": 44,
          "name": "G#2",
          "ticks": 29352,
          "time": 107.91171075,
          "velocity": 1
        },
        {
          "duration": 0.7058820000000026,
          "durationTicks": 192,
          "midi": 32,
          "name": "G#1",
          "ticks": 29352,
          "time": 107.91171075,
          "velocity": 1
        },
        {
          "duration": 0.3529410000000013,
          "durationTicks": 96,
          "midi": 44,
          "name": "G#2",
          "ticks": 29448,
          "time": 108.26465175,
          "velocity": 1
        },
        {
          "duration": 0.3529410000000013,
          "durationTicks": 96,
          "midi": 39,
          "name": "D#2",
          "ticks": 29448,
          "time": 108.26465175,
          "velocity": 1
        },
        {
          "duration": 0.2647057500000045,
          "durationTicks": 72,
          "midi": 51,
          "name": "D#3",
          "ticks": 29544,
          "time": 108.61759275,
          "velocity": 1
        },
        {
          "duration": 0.3529410000000013,
          "durationTicks": 96,
          "midi": 32,
          "name": "G#1",
          "ticks": 29640,
          "time": 108.97053375,
          "velocity": 1
        },
        {
          "duration": 0.3529410000000013,
          "durationTicks": 96,
          "midi": 44,
          "name": "G#2",
          "ticks": 29640,
          "time": 108.97053375,
          "velocity": 1
        },
        {
          "duration": 0.3529410000000013,
          "durationTicks": 96,
          "midi": 44,
          "name": "G#2",
          "ticks": 29832,
          "time": 109.67641575,
          "velocity": 1
        },
        {
          "duration": 0.3529410000000013,
          "durationTicks": 96,
          "midi": 32,
          "name": "G#1",
          "ticks": 29832,
          "time": 109.67641575,
          "velocity": 1
        },
        {
          "duration": 0.17647050000000775,
          "durationTicks": 48,
          "midi": 32,
          "name": "G#1",
          "ticks": 29976,
          "time": 110.20582725,
          "velocity": 1
        },
        {
          "duration": 0.3529410000000013,
          "durationTicks": 96,
          "midi": 34,
          "name": "A#1",
          "ticks": 30024,
          "time": 110.38229775,
          "velocity": 1
        },
        {
          "duration": 0.3529410000000013,
          "durationTicks": 96,
          "midi": 46,
          "name": "A#2",
          "ticks": 30024,
          "time": 110.38229775,
          "velocity": 1
        },
        {
          "duration": 0.7058819999999884,
          "durationTicks": 192,
          "midi": 44,
          "name": "G#2",
          "ticks": 30120,
          "time": 110.73523875000001,
          "velocity": 1
        },
        {
          "duration": 0.7058819999999884,
          "durationTicks": 192,
          "midi": 32,
          "name": "G#1",
          "ticks": 30120,
          "time": 110.73523875000001,
          "velocity": 1
        },
        {
          "duration": 0.3529410000000013,
          "durationTicks": 96,
          "midi": 39,
          "name": "D#2",
          "ticks": 30216,
          "time": 111.08817975,
          "velocity": 1
        },
        {
          "duration": 0.2647057500000045,
          "durationTicks": 72,
          "midi": 51,
          "name": "D#3",
          "ticks": 30312,
          "time": 111.44112075,
          "velocity": 1
        },
        {
          "duration": 0.3529410000000013,
          "durationTicks": 96,
          "midi": 44,
          "name": "G#2",
          "ticks": 30408,
          "time": 111.79406175,
          "velocity": 1
        },
        {
          "duration": 0.3529410000000013,
          "durationTicks": 96,
          "midi": 32,
          "name": "G#1",
          "ticks": 30408,
          "time": 111.79406175,
          "velocity": 1
        },
        {
          "duration": 0.3529410000000013,
          "durationTicks": 96,
          "midi": 32,
          "name": "G#1",
          "ticks": 30600,
          "time": 112.49994375,
          "velocity": 1
        },
        {
          "duration": 0.3529410000000013,
          "durationTicks": 96,
          "midi": 44,
          "name": "G#2",
          "ticks": 30600,
          "time": 112.49994375,
          "velocity": 1
        },
        {
          "duration": 0.17647050000000775,
          "durationTicks": 48,
          "midi": 32,
          "name": "G#1",
          "ticks": 30744,
          "time": 113.02935525,
          "velocity": 1
        },
        {
          "duration": 0.3529410000000013,
          "durationTicks": 96,
          "midi": 32,
          "name": "G#1",
          "ticks": 30792,
          "time": 113.20582575,
          "velocity": 1
        },
        {
          "duration": 0.7058820000000026,
          "durationTicks": 192,
          "midi": 47,
          "name": "B2",
          "ticks": 30888,
          "time": 113.55876675,
          "velocity": 1
        },
        {
          "duration": 0.7058820000000026,
          "durationTicks": 192,
          "midi": 35,
          "name": "B1",
          "ticks": 30888,
          "time": 113.55876675,
          "velocity": 1
        },
        {
          "duration": 0.3529410000000013,
          "durationTicks": 96,
          "midi": 42,
          "name": "F#2",
          "ticks": 30984,
          "time": 113.91170775,
          "velocity": 1
        },
        {
          "duration": 0.2647057499999903,
          "durationTicks": 72,
          "midi": 54,
          "name": "F#3",
          "ticks": 31080,
          "time": 114.26464875,
          "velocity": 1
        },
        {
          "duration": 0.35294099999998707,
          "durationTicks": 96,
          "midi": 47,
          "name": "B2",
          "ticks": 31176,
          "time": 114.61758975000001,
          "velocity": 1
        },
        {
          "duration": 0.35294099999998707,
          "durationTicks": 96,
          "midi": 35,
          "name": "B1",
          "ticks": 31176,
          "time": 114.61758975000001,
          "velocity": 1
        },
        {
          "duration": 0.3529410000000013,
          "durationTicks": 96,
          "midi": 35,
          "name": "B1",
          "ticks": 31368,
          "time": 115.32347175,
          "velocity": 1
        },
        {
          "duration": 0.3529410000000013,
          "durationTicks": 96,
          "midi": 47,
          "name": "B2",
          "ticks": 31368,
          "time": 115.32347175,
          "velocity": 1
        },
        {
          "duration": 0.17647049999999354,
          "durationTicks": 48,
          "midi": 35,
          "name": "B1",
          "ticks": 31512,
          "time": 115.85288325,
          "velocity": 1
        },
        {
          "duration": 0.3529410000000013,
          "durationTicks": 96,
          "midi": 35,
          "name": "B1",
          "ticks": 31560,
          "time": 116.02935375,
          "velocity": 1
        },
        {
          "duration": 0.7058820000000026,
          "durationTicks": 192,
          "midi": 51,
          "name": "D#3",
          "ticks": 31656,
          "time": 116.38229475,
          "velocity": 1
        },
        {
          "duration": 0.7058820000000026,
          "durationTicks": 192,
          "midi": 39,
          "name": "D#2",
          "ticks": 31656,
          "time": 116.38229475,
          "velocity": 1
        },
        {
          "duration": 0.3529410000000013,
          "durationTicks": 96,
          "midi": 46,
          "name": "A#2",
          "ticks": 31752,
          "time": 116.73523575,
          "velocity": 1
        },
        {
          "duration": 0.2647057500000045,
          "durationTicks": 72,
          "midi": 58,
          "name": "A#3",
          "ticks": 31848,
          "time": 117.08817675,
          "velocity": 1
        },
        {
          "duration": 0.3529410000000013,
          "durationTicks": 96,
          "midi": 51,
          "name": "D#3",
          "ticks": 31944,
          "time": 117.44111775,
          "velocity": 1
        },
        {
          "duration": 0.3529410000000013,
          "durationTicks": 96,
          "midi": 39,
          "name": "D#2",
          "ticks": 31944,
          "time": 117.44111775,
          "velocity": 1
        },
        {
          "duration": 0.3529410000000013,
          "durationTicks": 96,
          "midi": 46,
          "name": "A#2",
          "ticks": 32136,
          "time": 118.14699975,
          "velocity": 1
        },
        {
          "duration": 0.7058819999999884,
          "durationTicks": 192,
          "midi": 51,
          "name": "D#3",
          "ticks": 32232,
          "time": 118.49994075000001,
          "velocity": 1
        },
        {
          "duration": 0.3529410000000013,
          "durationTicks": 96,
          "midi": 39,
          "name": "D#2",
          "ticks": 32280,
          "time": 118.67641125,
          "velocity": 1
        },
        {
          "duration": 0.17647049999999354,
          "durationTicks": 48,
          "midi": 39,
          "name": "D#2",
          "ticks": 32376,
          "time": 119.02935225,
          "velocity": 1
        },
        {
          "duration": 0.3529410000000013,
          "durationTicks": 96,
          "midi": 32,
          "name": "G#1",
          "ticks": 32424,
          "time": 119.20582275,
          "velocity": 1
        },
        {
          "duration": 0.3529410000000013,
          "durationTicks": 96,
          "midi": 44,
          "name": "G#2",
          "ticks": 32424,
          "time": 119.20582275,
          "velocity": 1
        },
        {
          "duration": 0.3529410000000013,
          "durationTicks": 96,
          "midi": 32,
          "name": "G#1",
          "ticks": 32520,
          "time": 119.55876375,
          "velocity": 1
        },
        {
          "duration": 0.3529410000000013,
          "durationTicks": 96,
          "midi": 44,
          "name": "G#2",
          "ticks": 32520,
          "time": 119.55876375,
          "velocity": 1
        },
        {
          "duration": 0.3529410000000013,
          "durationTicks": 96,
          "midi": 35,
          "name": "B1",
          "ticks": 32616,
          "time": 119.91170475,
          "velocity": 1
        },
        {
          "duration": 0.3529410000000013,
          "durationTicks": 96,
          "midi": 47,
          "name": "B2",
          "ticks": 32616,
          "time": 119.91170475,
          "velocity": 1
        },
        {
          "duration": 0.3529410000000013,
          "durationTicks": 96,
          "midi": 35,
          "name": "B1",
          "ticks": 32712,
          "time": 120.26464575,
          "velocity": 1
        },
        {
          "duration": 0.3529410000000013,
          "durationTicks": 96,
          "midi": 47,
          "name": "B2",
          "ticks": 32712,
          "time": 120.26464575,
          "velocity": 1
        },
        {
          "duration": 0.3529410000000013,
          "durationTicks": 96,
          "midi": 52,
          "name": "E3",
          "ticks": 32808,
          "time": 120.61758675,
          "velocity": 1
        },
        {
          "duration": 0.3529410000000013,
          "durationTicks": 96,
          "midi": 40,
          "name": "E2",
          "ticks": 32808,
          "time": 120.61758675,
          "velocity": 1
        },
        {
          "duration": 0.3529410000000013,
          "durationTicks": 96,
          "midi": 40,
          "name": "E2",
          "ticks": 32904,
          "time": 120.97052775,
          "velocity": 1
        },
        {
          "duration": 0.3529410000000013,
          "durationTicks": 96,
          "midi": 52,
          "name": "E3",
          "ticks": 32904,
          "time": 120.97052775,
          "velocity": 1
        },
        {
          "duration": 0.3529410000000013,
          "durationTicks": 96,
          "midi": 51,
          "name": "D#3",
          "ticks": 33000,
          "time": 121.32346875,
          "velocity": 1
        },
        {
          "duration": 0.3529410000000013,
          "durationTicks": 96,
          "midi": 39,
          "name": "D#2",
          "ticks": 33000,
          "time": 121.32346875,
          "velocity": 1
        },
        {
          "duration": 0.3529410000000013,
          "durationTicks": 96,
          "midi": 51,
          "name": "D#3",
          "ticks": 33096,
          "time": 121.67640975,
          "velocity": 1
        },
        {
          "duration": 0.3529410000000013,
          "durationTicks": 96,
          "midi": 39,
          "name": "D#2",
          "ticks": 33096,
          "time": 121.67640975,
          "velocity": 1
        },
        {
          "duration": 0.3529410000000013,
          "durationTicks": 96,
          "midi": 32,
          "name": "G#1",
          "ticks": 33192,
          "time": 122.02935075,
          "velocity": 1
        },
        {
          "duration": 0.3529410000000013,
          "durationTicks": 96,
          "midi": 44,
          "name": "G#2",
          "ticks": 33192,
          "time": 122.02935075,
          "velocity": 1
        },
        {
          "duration": 0.3529410000000013,
          "durationTicks": 96,
          "midi": 32,
          "name": "G#1",
          "ticks": 33288,
          "time": 122.38229175000001,
          "velocity": 1
        },
        {
          "duration": 0.3529410000000013,
          "durationTicks": 96,
          "midi": 44,
          "name": "G#2",
          "ticks": 33288,
          "time": 122.38229175000001,
          "velocity": 1
        },
        {
          "duration": 0.35294099999998707,
          "durationTicks": 96,
          "midi": 35,
          "name": "B1",
          "ticks": 33384,
          "time": 122.73523275000001,
          "velocity": 1
        },
        {
          "duration": 0.35294099999998707,
          "durationTicks": 96,
          "midi": 47,
          "name": "B2",
          "ticks": 33384,
          "time": 122.73523275000001,
          "velocity": 1
        },
        {
          "duration": 0.3529410000000013,
          "durationTicks": 96,
          "midi": 35,
          "name": "B1",
          "ticks": 33480,
          "time": 123.08817375,
          "velocity": 1
        },
        {
          "duration": 0.3529410000000013,
          "durationTicks": 96,
          "midi": 47,
          "name": "B2",
          "ticks": 33480,
          "time": 123.08817375,
          "velocity": 1
        },
        {
          "duration": 0.3529410000000013,
          "durationTicks": 96,
          "midi": 52,
          "name": "E3",
          "ticks": 33576,
          "time": 123.44111475,
          "velocity": 1
        },
        {
          "duration": 0.3529410000000013,
          "durationTicks": 96,
          "midi": 40,
          "name": "E2",
          "ticks": 33576,
          "time": 123.44111475,
          "velocity": 1
        },
        {
          "duration": 0.3529410000000013,
          "durationTicks": 96,
          "midi": 40,
          "name": "E2",
          "ticks": 33672,
          "time": 123.79405575,
          "velocity": 1
        },
        {
          "duration": 0.3529410000000013,
          "durationTicks": 96,
          "midi": 52,
          "name": "E3",
          "ticks": 33672,
          "time": 123.79405575,
          "velocity": 1
        },
        {
          "duration": 0.3529410000000013,
          "durationTicks": 96,
          "midi": 51,
          "name": "D#3",
          "ticks": 33768,
          "time": 124.14699675,
          "velocity": 1
        },
        {
          "duration": 0.3529410000000013,
          "durationTicks": 96,
          "midi": 39,
          "name": "D#2",
          "ticks": 33768,
          "time": 124.14699675,
          "velocity": 1
        },
        {
          "duration": 0.3529410000000013,
          "durationTicks": 96,
          "midi": 51,
          "name": "D#3",
          "ticks": 33864,
          "time": 124.49993775,
          "velocity": 1
        },
        {
          "duration": 0.3529410000000013,
          "durationTicks": 96,
          "midi": 39,
          "name": "D#2",
          "ticks": 33864,
          "time": 124.49993775,
          "velocity": 1
        },
        {
          "duration": 0.3529410000000013,
          "durationTicks": 96,
          "midi": 44,
          "name": "G#2",
          "ticks": 33960,
          "time": 124.85287875,
          "velocity": 1
        },
        {
          "duration": 0.3529410000000013,
          "durationTicks": 96,
          "midi": 32,
          "name": "G#1",
          "ticks": 33960,
          "time": 124.85287875,
          "velocity": 1
        },
        {
          "duration": 0.3529410000000013,
          "durationTicks": 96,
          "midi": 39,
          "name": "D#2",
          "ticks": 33960,
          "time": 124.85287875,
          "velocity": 1
        },
        {
          "duration": 0.3529410000000013,
          "durationTicks": 96,
          "midi": 44,
          "name": "G#2",
          "ticks": 34056,
          "time": 125.20581975,
          "velocity": 1
        },
        {
          "duration": 0.3529410000000013,
          "durationTicks": 96,
          "midi": 32,
          "name": "G#1",
          "ticks": 34056,
          "time": 125.20581975,
          "velocity": 1
        },
        {
          "duration": 0.3529410000000013,
          "durationTicks": 96,
          "midi": 39,
          "name": "D#2",
          "ticks": 34056,
          "time": 125.20581975,
          "velocity": 1
        },
        {
          "duration": 0.3529410000000013,
          "durationTicks": 96,
          "midi": 47,
          "name": "B2",
          "ticks": 34152,
          "time": 125.55876075,
          "velocity": 1
        },
        {
          "duration": 0.3529410000000013,
          "durationTicks": 96,
          "midi": 35,
          "name": "B1",
          "ticks": 34152,
          "time": 125.55876075,
          "velocity": 1
        },
        {
          "duration": 0.3529410000000013,
          "durationTicks": 96,
          "midi": 42,
          "name": "F#2",
          "ticks": 34152,
          "time": 125.55876075,
          "velocity": 1
        },
        {
          "duration": 0.3529410000000013,
          "durationTicks": 96,
          "midi": 47,
          "name": "B2",
          "ticks": 34248,
          "time": 125.91170175,
          "velocity": 1
        },
        {
          "duration": 0.3529410000000013,
          "durationTicks": 96,
          "midi": 35,
          "name": "B1",
          "ticks": 34248,
          "time": 125.91170175,
          "velocity": 1
        },
        {
          "duration": 0.3529410000000013,
          "durationTicks": 96,
          "midi": 42,
          "name": "F#2",
          "ticks": 34248,
          "time": 125.91170175,
          "velocity": 1
        },
        {
          "duration": 0.3529410000000013,
          "durationTicks": 96,
          "midi": 47,
          "name": "B2",
          "ticks": 34344,
          "time": 126.26464275000001,
          "velocity": 1
        },
        {
          "duration": 0.3529410000000013,
          "durationTicks": 96,
          "midi": 52,
          "name": "E3",
          "ticks": 34344,
          "time": 126.26464275000001,
          "velocity": 1
        },
        {
          "duration": 0.3529410000000013,
          "durationTicks": 96,
          "midi": 40,
          "name": "E2",
          "ticks": 34344,
          "time": 126.26464275000001,
          "velocity": 1
        },
        {
          "duration": 0.35294099999998707,
          "durationTicks": 96,
          "midi": 52,
          "name": "E3",
          "ticks": 34440,
          "time": 126.61758375000001,
          "velocity": 1
        },
        {
          "duration": 0.35294099999998707,
          "durationTicks": 96,
          "midi": 40,
          "name": "E2",
          "ticks": 34440,
          "time": 126.61758375000001,
          "velocity": 1
        },
        {
          "duration": 0.35294099999998707,
          "durationTicks": 96,
          "midi": 47,
          "name": "B2",
          "ticks": 34440,
          "time": 126.61758375000001,
          "velocity": 1
        },
        {
          "duration": 0.3529410000000013,
          "durationTicks": 96,
          "midi": 46,
          "name": "A#2",
          "ticks": 34536,
          "time": 126.97052475,
          "velocity": 1
        },
        {
          "duration": 0.3529410000000013,
          "durationTicks": 96,
          "midi": 51,
          "name": "D#3",
          "ticks": 34536,
          "time": 126.97052475,
          "velocity": 1
        },
        {
          "duration": 0.3529410000000013,
          "durationTicks": 96,
          "midi": 39,
          "name": "D#2",
          "ticks": 34536,
          "time": 126.97052475,
          "velocity": 1
        },
        {
          "duration": 0.3529410000000013,
          "durationTicks": 96,
          "midi": 46,
          "name": "A#2",
          "ticks": 34632,
          "time": 127.32346575,
          "velocity": 1
        },
        {
          "duration": 0.3529410000000013,
          "durationTicks": 96,
          "midi": 51,
          "name": "D#3",
          "ticks": 34632,
          "time": 127.32346575,
          "velocity": 1
        },
        {
          "duration": 0.3529410000000013,
          "durationTicks": 96,
          "midi": 39,
          "name": "D#2",
          "ticks": 34632,
          "time": 127.32346575,
          "velocity": 1
        },
        {
          "duration": 0.3529410000000013,
          "durationTicks": 96,
          "midi": 44,
          "name": "G#2",
          "ticks": 34728,
          "time": 127.67640675,
          "velocity": 1
        },
        {
          "duration": 0.3529410000000013,
          "durationTicks": 96,
          "midi": 32,
          "name": "G#1",
          "ticks": 34728,
          "time": 127.67640675,
          "velocity": 1
        },
        {
          "duration": 0.3529410000000013,
          "durationTicks": 96,
          "midi": 39,
          "name": "D#2",
          "ticks": 34728,
          "time": 127.67640675,
          "velocity": 1
        },
        {
          "duration": 0.3529410000000155,
          "durationTicks": 96,
          "midi": 44,
          "name": "G#2",
          "ticks": 34824,
          "time": 128.02934775,
          "velocity": 1
        },
        {
          "duration": 0.3529410000000155,
          "durationTicks": 96,
          "midi": 32,
          "name": "G#1",
          "ticks": 34824,
          "time": 128.02934775,
          "velocity": 1
        },
        {
          "duration": 0.3529410000000155,
          "durationTicks": 96,
          "midi": 39,
          "name": "D#2",
          "ticks": 34824,
          "time": 128.02934775,
          "velocity": 1
        },
        {
          "duration": 0.35294099999998707,
          "durationTicks": 96,
          "midi": 47,
          "name": "B2",
          "ticks": 34920,
          "time": 128.38228875000001,
          "velocity": 1
        },
        {
          "duration": 0.35294099999998707,
          "durationTicks": 96,
          "midi": 35,
          "name": "B1",
          "ticks": 34920,
          "time": 128.38228875000001,
          "velocity": 1
        },
        {
          "duration": 0.35294099999998707,
          "durationTicks": 96,
          "midi": 42,
          "name": "F#2",
          "ticks": 34920,
          "time": 128.38228875000001,
          "velocity": 1
        },
        {
          "duration": 0.35294099999998707,
          "durationTicks": 96,
          "midi": 47,
          "name": "B2",
          "ticks": 35016,
          "time": 128.73522975,
          "velocity": 1
        },
        {
          "duration": 0.35294099999998707,
          "durationTicks": 96,
          "midi": 35,
          "name": "B1",
          "ticks": 35016,
          "time": 128.73522975,
          "velocity": 1
        },
        {
          "duration": 0.35294099999998707,
          "durationTicks": 96,
          "midi": 42,
          "name": "F#2",
          "ticks": 35016,
          "time": 128.73522975,
          "velocity": 1
        },
        {
          "duration": 0.17647049999999354,
          "durationTicks": 48,
          "midi": 58,
          "name": "A#3",
          "ticks": 35448,
          "time": 130.32346425,
          "velocity": 1
        },
        {
          "duration": 1.544116874999986,
          "durationTicks": 420,
          "midi": 53,
          "name": "F3",
          "ticks": 35460,
          "time": 130.367581875,
          "velocity": 1
        },
        {
          "duration": 1.499999250000002,
          "durationTicks": 408,
          "midi": 49,
          "name": "C#3",
          "ticks": 35472,
          "time": 130.4116995,
          "velocity": 1
        },
        {
          "duration": 1.4117640000000051,
          "durationTicks": 384,
          "midi": 46,
          "name": "A#2",
          "ticks": 35496,
          "time": 130.49993475,
          "velocity": 1
        },
        {
          "duration": 1.4117640000000051,
          "durationTicks": 384,
          "midi": 47,
          "name": "B2",
          "ticks": 35880,
          "time": 131.91169875,
          "velocity": 1
        },
        {
          "duration": 1.4117640000000051,
          "durationTicks": 384,
          "midi": 44,
          "name": "G#2",
          "ticks": 35880,
          "time": 131.91169875,
          "velocity": 1
        },
        {
          "duration": 1.4117640000000051,
          "durationTicks": 384,
          "midi": 51,
          "name": "D#3",
          "ticks": 35880,
          "time": 131.91169875,
          "velocity": 1
        },
        {
          "duration": 1.4117640000000051,
          "durationTicks": 384,
          "midi": 56,
          "name": "G#3",
          "ticks": 35880,
          "time": 131.91169875,
          "velocity": 1
        },
        {
          "duration": 1.4117640000000051,
          "durationTicks": 384,
          "midi": 42,
          "name": "F#2",
          "ticks": 36264,
          "time": 133.32346275,
          "velocity": 1
        },
        {
          "duration": 1.4117640000000051,
          "durationTicks": 384,
          "midi": 39,
          "name": "D#2",
          "ticks": 36264,
          "time": 133.32346275,
          "velocity": 1
        },
        {
          "duration": 1.4117640000000051,
          "durationTicks": 384,
          "midi": 46,
          "name": "A#2",
          "ticks": 36264,
          "time": 133.32346275,
          "velocity": 1
        },
        {
          "duration": 1.4117640000000051,
          "durationTicks": 384,
          "midi": 51,
          "name": "D#3",
          "ticks": 36264,
          "time": 133.32346275,
          "velocity": 1
        },
        {
          "duration": 0.7058820000000026,
          "durationTicks": 192,
          "midi": 58,
          "name": "A#3",
          "ticks": 36648,
          "time": 134.73522675,
          "velocity": 1
        },
        {
          "duration": 0.7058820000000026,
          "durationTicks": 192,
          "midi": 53,
          "name": "F3",
          "ticks": 36648,
          "time": 134.73522675,
          "velocity": 1
        },
        {
          "duration": 0.7058820000000026,
          "durationTicks": 192,
          "midi": 46,
          "name": "A#2",
          "ticks": 36648,
          "time": 134.73522675,
          "velocity": 1
        },
        {
          "duration": 0.7058820000000026,
          "durationTicks": 192,
          "midi": 49,
          "name": "C#3",
          "ticks": 36648,
          "time": 134.73522675,
          "velocity": 1
        },
        {
          "duration": 0.7058820000000026,
          "durationTicks": 192,
          "midi": 58,
          "name": "A#3",
          "ticks": 36840,
          "time": 135.44110875,
          "velocity": 1
        },
        {
          "duration": 0.7058820000000026,
          "durationTicks": 192,
          "midi": 53,
          "name": "F3",
          "ticks": 36840,
          "time": 135.44110875,
          "velocity": 1
        },
        {
          "duration": 0.7058820000000026,
          "durationTicks": 192,
          "midi": 46,
          "name": "A#2",
          "ticks": 36840,
          "time": 135.44110875,
          "velocity": 1
        },
        {
          "duration": 0.7058820000000026,
          "durationTicks": 192,
          "midi": 49,
          "name": "C#3",
          "ticks": 36840,
          "time": 135.44110875,
          "velocity": 1
        },
        {
          "duration": 1.4117639999999767,
          "durationTicks": 384,
          "midi": 53,
          "name": "F3",
          "ticks": 37032,
          "time": 136.14699075000001,
          "velocity": 1
        },
        {
          "duration": 1.4117639999999767,
          "durationTicks": 384,
          "midi": 46,
          "name": "A#2",
          "ticks": 37032,
          "time": 136.14699075000001,
          "velocity": 1
        },
        {
          "duration": 1.4117639999999767,
          "durationTicks": 384,
          "midi": 49,
          "name": "C#3",
          "ticks": 37032,
          "time": 136.14699075000001,
          "velocity": 1
        },
        {
          "duration": 0.7058820000000026,
          "durationTicks": 192,
          "midi": 41,
          "name": "F2",
          "ticks": 37416,
          "time": 137.55875475,
          "velocity": 1
        },
        {
          "duration": 0.7058820000000026,
          "durationTicks": 192,
          "midi": 48,
          "name": "C3",
          "ticks": 37416,
          "time": 137.55875475,
          "velocity": 1
        },
        {
          "duration": 0.7058820000000026,
          "durationTicks": 192,
          "midi": 53,
          "name": "F3",
          "ticks": 37416,
          "time": 137.55875475,
          "velocity": 1
        },
        {
          "duration": 0.7058820000000026,
          "durationTicks": 192,
          "midi": 48,
          "name": "C3",
          "ticks": 37608,
          "time": 138.26463675,
          "velocity": 1
        },
        {
          "duration": 0.7058820000000026,
          "durationTicks": 192,
          "midi": 42,
          "name": "F#2",
          "ticks": 37608,
          "time": 138.26463675,
          "velocity": 1
        },
        {
          "duration": 0.7058820000000026,
          "durationTicks": 192,
          "midi": 54,
          "name": "F#3",
          "ticks": 37608,
          "time": 138.26463675,
          "velocity": 1
        },
        {
          "duration": 1.4117640000000051,
          "durationTicks": 384,
          "midi": 53,
          "name": "F3",
          "ticks": 37800,
          "time": 138.97051875,
          "velocity": 1
        },
        {
          "duration": 1.4117640000000051,
          "durationTicks": 384,
          "midi": 46,
          "name": "A#2",
          "ticks": 37800,
          "time": 138.97051875,
          "velocity": 1
        },
        {
          "duration": 1.4117640000000051,
          "durationTicks": 384,
          "midi": 58,
          "name": "A#3",
          "ticks": 37800,
          "time": 138.97051875,
          "velocity": 1
        },
        {
          "duration": 0.7058820000000026,
          "durationTicks": 192,
          "midi": 54,
          "name": "F#3",
          "ticks": 38184,
          "time": 140.38228275,
          "velocity": 1
        },
        {
          "duration": 0.7058820000000026,
          "durationTicks": 192,
          "midi": 47,
          "name": "B2",
          "ticks": 38184,
          "time": 140.38228275,
          "velocity": 1
        },
        {
          "duration": 0.7058820000000026,
          "durationTicks": 192,
          "midi": 59,
          "name": "B3",
          "ticks": 38184,
          "time": 140.38228275,
          "velocity": 1
        },
        {
          "duration": 0.7058820000000026,
          "durationTicks": 192,
          "midi": 56,
          "name": "G#3",
          "ticks": 38376,
          "time": 141.08816475,
          "velocity": 1
        },
        {
          "duration": 0.35294099999998707,
          "durationTicks": 96,
          "midi": 61,
          "name": "C#4",
          "ticks": 38376,
          "time": 141.08816475,
          "velocity": 1
        },
        {
          "duration": 0.7058820000000026,
          "durationTicks": 192,
          "midi": 49,
          "name": "C#3",
          "ticks": 38376,
          "time": 141.08816475,
          "velocity": 1
        },
        {
          "duration": 0.35294099999998707,
          "durationTicks": 96,
          "midi": 46,
          "name": "A#2",
          "ticks": 38568,
          "time": 141.79404675,
          "velocity": 1
        },
        {
          "duration": 0.17647050000002196,
          "durationTicks": 48,
          "midi": 58,
          "name": "A#3",
          "ticks": 38664,
          "time": 142.14698775,
          "velocity": 1
        },
        {
          "duration": 0.17647049999999354,
          "durationTicks": 48,
          "midi": 46,
          "name": "A#2",
          "ticks": 38712,
          "time": 142.32345825000002,
          "velocity": 1
        },
        {
          "duration": 0.35294099999998707,
          "durationTicks": 96,
          "midi": 46,
          "name": "A#2",
          "ticks": 38760,
          "time": 142.49992875,
          "velocity": 1
        },
        {
          "duration": 0.17647049999999354,
          "durationTicks": 48,
          "midi": 58,
          "name": "A#3",
          "ticks": 38856,
          "time": 142.85286975,
          "velocity": 1
        },
        {
          "duration": 0.17647050000002196,
          "durationTicks": 48,
          "midi": 46,
          "name": "A#2",
          "ticks": 38904,
          "time": 143.02934025,
          "velocity": 1
        },
        {
          "duration": 0.35294099999998707,
          "durationTicks": 96,
          "midi": 51,
          "name": "D#3",
          "ticks": 38952,
          "time": 143.20581075,
          "velocity": 1
        },
        {
          "duration": 0.17647049999999354,
          "durationTicks": 48,
          "midi": 63,
          "name": "D#4",
          "ticks": 39048,
          "time": 143.55875175,
          "velocity": 1
        },
        {
          "duration": 0.17647050000002196,
          "durationTicks": 48,
          "midi": 51,
          "name": "D#3",
          "ticks": 39096,
          "time": 143.73522225,
          "velocity": 1
        },
        {
          "duration": 0.35294099999998707,
          "durationTicks": 96,
          "midi": 51,
          "name": "D#3",
          "ticks": 39144,
          "time": 143.91169275000001,
          "velocity": 1
        },
        {
          "duration": 0.17647049999999354,
          "durationTicks": 48,
          "midi": 63,
          "name": "D#4",
          "ticks": 39240,
          "time": 144.26463375,
          "velocity": 1
        },
        {
          "duration": 0.17647049999999354,
          "durationTicks": 48,
          "midi": 51,
          "name": "D#3",
          "ticks": 39288,
          "time": 144.44110425,
          "velocity": 1
        },
        {
          "duration": 0.3529410000000155,
          "durationTicks": 96,
          "midi": 36,
          "name": "C2",
          "ticks": 39336,
          "time": 144.61757475,
          "velocity": 1
        },
        {
          "duration": 0.17647049999999354,
          "durationTicks": 48,
          "midi": 48,
          "name": "C3",
          "ticks": 39432,
          "time": 144.97051575,
          "velocity": 1
        },
        {
          "duration": 0.17647049999999354,
          "durationTicks": 48,
          "midi": 36,
          "name": "C2",
          "ticks": 39480,
          "time": 145.14698625,
          "velocity": 1
        },
        {
          "duration": 0.3529410000000155,
          "durationTicks": 96,
          "midi": 42,
          "name": "F#2",
          "ticks": 39528,
          "time": 145.32345675,
          "velocity": 1
        },
        {
          "duration": 0.17647049999999354,
          "durationTicks": 48,
          "midi": 54,
          "name": "F#3",
          "ticks": 39624,
          "time": 145.67639775,
          "velocity": 1
        },
        {
          "duration": 0.17647049999999354,
          "durationTicks": 48,
          "midi": 42,
          "name": "F#2",
          "ticks": 39672,
          "time": 145.85286825,
          "velocity": 1
        },
        {
          "duration": 0.3529410000000155,
          "durationTicks": 96,
          "midi": 41,
          "name": "F2",
          "ticks": 39720,
          "time": 146.02933875,
          "velocity": 1
        },
        {
          "duration": 0.17647049999999354,
          "durationTicks": 48,
          "midi": 53,
          "name": "F3",
          "ticks": 39816,
          "time": 146.38227975,
          "velocity": 1
        },
        {
          "duration": 0.17647049999999354,
          "durationTicks": 48,
          "midi": 41,
          "name": "F2",
          "ticks": 39864,
          "time": 146.55875025,
          "velocity": 1
        },
        {
          "duration": 0.3529410000000155,
          "durationTicks": 96,
          "midi": 39,
          "name": "D#2",
          "ticks": 39912,
          "time": 146.73522075,
          "velocity": 1
        },
        {
          "duration": 0.17647049999999354,
          "durationTicks": 48,
          "midi": 51,
          "name": "D#3",
          "ticks": 40008,
          "time": 147.08816175,
          "velocity": 1
        },
        {
          "duration": 0.17647049999999354,
          "durationTicks": 48,
          "midi": 39,
          "name": "D#2",
          "ticks": 40056,
          "time": 147.26463225,
          "velocity": 1
        },
        {
          "duration": 0.3529410000000155,
          "durationTicks": 96,
          "midi": 37,
          "name": "C#2",
          "ticks": 40104,
          "time": 147.44110275,
          "velocity": 1
        },
        {
          "duration": 0.17647049999999354,
          "durationTicks": 48,
          "midi": 49,
          "name": "C#3",
          "ticks": 40200,
          "time": 147.79404375000001,
          "velocity": 1
        },
        {
          "duration": 0.17647049999999354,
          "durationTicks": 48,
          "midi": 37,
          "name": "C#2",
          "ticks": 40248,
          "time": 147.97051425,
          "velocity": 1
        },
        {
          "duration": 0.35294099999998707,
          "durationTicks": 96,
          "midi": 37,
          "name": "C#2",
          "ticks": 40296,
          "time": 148.14698475,
          "velocity": 1
        },
        {
          "duration": 0.17647050000002196,
          "durationTicks": 48,
          "midi": 49,
          "name": "C#3",
          "ticks": 40392,
          "time": 148.49992575,
          "velocity": 1
        },
        {
          "duration": 0.17647049999999354,
          "durationTicks": 48,
          "midi": 37,
          "name": "C#2",
          "ticks": 40440,
          "time": 148.67639625,
          "velocity": 1
        },
        {
          "duration": 0.35294099999998707,
          "durationTicks": 96,
          "midi": 39,
          "name": "D#2",
          "ticks": 40488,
          "time": 148.85286675,
          "velocity": 1
        },
        {
          "duration": 0.17647050000002196,
          "durationTicks": 48,
          "midi": 51,
          "name": "D#3",
          "ticks": 40584,
          "time": 149.20580775,
          "velocity": 1
        },
        {
          "duration": 0.17647049999999354,
          "durationTicks": 48,
          "midi": 51,
          "name": "D#3",
          "ticks": 40632,
          "time": 149.38227825,
          "velocity": 1
        },
        {
          "duration": 0.17647049999999354,
          "durationTicks": 48,
          "midi": 39,
          "name": "D#2",
          "ticks": 40632,
          "time": 149.38227825,
          "velocity": 1
        },
        {
          "duration": 0.35294099999998707,
          "durationTicks": 96,
          "midi": 46,
          "name": "A#2",
          "ticks": 40872,
          "time": 150.26463075,
          "velocity": 1
        },
        {
          "duration": 0.35294099999998707,
          "durationTicks": 96,
          "midi": 34,
          "name": "A#1",
          "ticks": 40872,
          "time": 150.26463075,
          "velocity": 1
        },
        {
          "duration": 0.17647049999999354,
          "durationTicks": 48,
          "midi": 46,
          "name": "A#2",
          "ticks": 40968,
          "time": 150.61757175,
          "velocity": 1
        },
        {
          "duration": 0.17647049999999354,
          "durationTicks": 48,
          "midi": 41,
          "name": "F2",
          "ticks": 40968,
          "time": 150.61757175,
          "velocity": 1
        },
        {
          "duration": 0.17647050000002196,
          "durationTicks": 48,
          "midi": 34,
          "name": "A#1",
          "ticks": 41016,
          "time": 150.79404225,
          "velocity": 1
        },
        {
          "duration": 0.35294099999998707,
          "durationTicks": 96,
          "midi": 34,
          "name": "A#1",
          "ticks": 41064,
          "time": 150.97051275,
          "velocity": 1
        },
        {
          "duration": 0.17647049999999354,
          "durationTicks": 48,
          "midi": 46,
          "name": "A#2",
          "ticks": 41160,
          "time": 151.32345375,
          "velocity": 1
        },
        {
          "duration": 0.17647049999999354,
          "durationTicks": 48,
          "midi": 41,
          "name": "F2",
          "ticks": 41160,
          "time": 151.32345375,
          "velocity": 1
        },
        {
          "duration": 0.3529410000000155,
          "durationTicks": 96,
          "midi": 36,
          "name": "C2",
          "ticks": 41208,
          "time": 151.49992425,
          "velocity": 1
        },
        {
          "duration": 0.17647049999999354,
          "durationTicks": 48,
          "midi": 36,
          "name": "C2",
          "ticks": 41304,
          "time": 151.85286525,
          "velocity": 1
        },
        {
          "duration": 0.17647049999999354,
          "durationTicks": 48,
          "midi": 43,
          "name": "G2",
          "ticks": 41352,
          "time": 152.02933575,
          "velocity": 1
        },
        {
          "duration": 0.17647049999999354,
          "durationTicks": 48,
          "midi": 48,
          "name": "C3",
          "ticks": 41352,
          "time": 152.02933575,
          "velocity": 1
        },
        {
          "duration": 0.17647049999999354,
          "durationTicks": 48,
          "midi": 36,
          "name": "C2",
          "ticks": 41400,
          "time": 152.20580625,
          "velocity": 1
        },
        {
          "duration": 0.3529410000000155,
          "durationTicks": 96,
          "midi": 36,
          "name": "C2",
          "ticks": 41448,
          "time": 152.38227675,
          "velocity": 1
        },
        {
          "duration": 0.17647049999999354,
          "durationTicks": 48,
          "midi": 48,
          "name": "C3",
          "ticks": 41544,
          "time": 152.73521775,
          "velocity": 1
        },
        {
          "duration": 0.17647049999999354,
          "durationTicks": 48,
          "midi": 43,
          "name": "G2",
          "ticks": 41544,
          "time": 152.73521775,
          "velocity": 1
        },
        {
          "duration": 0.17647049999999354,
          "durationTicks": 48,
          "midi": 36,
          "name": "C2",
          "ticks": 41592,
          "time": 152.91168825,
          "velocity": 1
        },
        {
          "duration": 0.3529410000000155,
          "durationTicks": 96,
          "midi": 45,
          "name": "A2",
          "ticks": 41640,
          "time": 153.08815875,
          "velocity": 1
        },
        {
          "duration": 0.3529410000000155,
          "durationTicks": 96,
          "midi": 33,
          "name": "A1",
          "ticks": 41640,
          "time": 153.08815875,
          "velocity": 1
        },
        {
          "duration": 0.17647049999999354,
          "durationTicks": 48,
          "midi": 40,
          "name": "E2",
          "ticks": 41736,
          "time": 153.44109975,
          "velocity": 1
        },
        {
          "duration": 0.17647049999999354,
          "durationTicks": 48,
          "midi": 45,
          "name": "A2",
          "ticks": 41736,
          "time": 153.44109975,
          "velocity": 1
        },
        {
          "duration": 0.17647049999999354,
          "durationTicks": 48,
          "midi": 33,
          "name": "A1",
          "ticks": 41784,
          "time": 153.61757025,
          "velocity": 1
        },
        {
          "duration": 0.3529410000000155,
          "durationTicks": 96,
          "midi": 33,
          "name": "A1",
          "ticks": 41832,
          "time": 153.79404075,
          "velocity": 1
        },
        {
          "duration": 0.17647049999999354,
          "durationTicks": 48,
          "midi": 43,
          "name": "G2",
          "ticks": 41928,
          "time": 154.14698175,
          "velocity": 1
        },
        {
          "duration": 0.17647049999999354,
          "durationTicks": 48,
          "midi": 38,
          "name": "D2",
          "ticks": 41928,
          "time": 154.14698175,
          "velocity": 1
        },
        {
          "duration": 0.35294099999998707,
          "durationTicks": 96,
          "midi": 38,
          "name": "D2",
          "ticks": 41976,
          "time": 154.32345225,
          "velocity": 1
        },
        {
          "duration": 0.17647050000002196,
          "durationTicks": 48,
          "midi": 38,
          "name": "D2",
          "ticks": 42072,
          "time": 154.67639325,
          "velocity": 1
        },
        {
          "duration": 0.17647049999999354,
          "durationTicks": 48,
          "midi": 45,
          "name": "A2",
          "ticks": 42120,
          "time": 154.85286375,
          "velocity": 1
        },
        {
          "duration": 0.17647049999999354,
          "durationTicks": 48,
          "midi": 50,
          "name": "D3",
          "ticks": 42120,
          "time": 154.85286375,
          "velocity": 1
        },
        {
          "duration": 0.17647049999999354,
          "durationTicks": 48,
          "midi": 38,
          "name": "D2",
          "ticks": 42168,
          "time": 155.02933425,
          "velocity": 1
        },
        {
          "duration": 0.3529410000000155,
          "durationTicks": 96,
          "midi": 38,
          "name": "D2",
          "ticks": 42216,
          "time": 155.20580475,
          "velocity": 1
        },
        {
          "duration": 0.17647049999999354,
          "durationTicks": 48,
          "midi": 50,
          "name": "D3",
          "ticks": 42312,
          "time": 155.55874575,
          "velocity": 1
        },
        {
          "duration": 0.17647049999999354,
          "durationTicks": 48,
          "midi": 45,
          "name": "A2",
          "ticks": 42312,
          "time": 155.55874575,
          "velocity": 1
        },
        {
          "duration": 0.17647049999999354,
          "durationTicks": 48,
          "midi": 38,
          "name": "D2",
          "ticks": 42360,
          "time": 155.73521625,
          "velocity": 1
        },
        {
          "duration": 0.35294099999998707,
          "durationTicks": 96,
          "midi": 34,
          "name": "A#1",
          "ticks": 42408,
          "time": 155.91168675,
          "velocity": 1
        },
        {
          "duration": 0.35294099999998707,
          "durationTicks": 96,
          "midi": 46,
          "name": "A#2",
          "ticks": 42408,
          "time": 155.91168675,
          "velocity": 1
        },
        {
          "duration": 0.17647050000002196,
          "durationTicks": 48,
          "midi": 46,
          "name": "A#2",
          "ticks": 42504,
          "time": 156.26462775,
          "velocity": 1
        },
        {
          "duration": 0.17647050000002196,
          "durationTicks": 48,
          "midi": 41,
          "name": "F2",
          "ticks": 42504,
          "time": 156.26462775,
          "velocity": 1
        },
        {
          "duration": 0.17647049999999354,
          "durationTicks": 48,
          "midi": 34,
          "name": "A#1",
          "ticks": 42552,
          "time": 156.44109825,
          "velocity": 1
        },
        {
          "duration": 0.35294099999998707,
          "durationTicks": 96,
          "midi": 34,
          "name": "A#1",
          "ticks": 42600,
          "time": 156.61756875,
          "velocity": 1
        },
        {
          "duration": 0.17647050000002196,
          "durationTicks": 48,
          "midi": 41,
          "name": "F2",
          "ticks": 42696,
          "time": 156.97050975,
          "velocity": 1
        },
        {
          "duration": 0.17647050000002196,
          "durationTicks": 48,
          "midi": 46,
          "name": "A#2",
          "ticks": 42696,
          "time": 156.97050975,
          "velocity": 1
        },
        {
          "duration": 0.35294099999998707,
          "durationTicks": 96,
          "midi": 45,
          "name": "A2",
          "ticks": 42744,
          "time": 157.14698025,
          "velocity": 1
        },
        {
          "duration": 0.35294099999998707,
          "durationTicks": 96,
          "midi": 33,
          "name": "A1",
          "ticks": 42744,
          "time": 157.14698025,
          "velocity": 1
        },
        {
          "duration": 0.17647049999999354,
          "durationTicks": 48,
          "midi": 40,
          "name": "E2",
          "ticks": 42840,
          "time": 157.49992125,
          "velocity": 1
        },
        {
          "duration": 0.17647049999999354,
          "durationTicks": 48,
          "midi": 45,
          "name": "A2",
          "ticks": 42840,
          "time": 157.49992125,
          "velocity": 1
        },
        {
          "duration": 0.17647050000002196,
          "durationTicks": 48,
          "midi": 33,
          "name": "A1",
          "ticks": 42888,
          "time": 157.67639175,
          "velocity": 1
        },
        {
          "duration": 0.17647049999999354,
          "durationTicks": 48,
          "midi": 33,
          "name": "A1",
          "ticks": 42936,
          "time": 157.85286225000002,
          "velocity": 1
        },
        {
          "duration": 0.17647049999999354,
          "durationTicks": 48,
          "midi": 48,
          "name": "C3",
          "ticks": 42984,
          "time": 158.02933275,
          "velocity": 1
        },
        {
          "duration": 0.17647049999999354,
          "durationTicks": 48,
          "midi": 36,
          "name": "C2",
          "ticks": 42984,
          "time": 158.02933275,
          "velocity": 1
        },
        {
          "duration": 0.17647049999999354,
          "durationTicks": 48,
          "midi": 48,
          "name": "C3",
          "ticks": 43032,
          "time": 158.20580325,
          "velocity": 1
        },
        {
          "duration": 0.17647049999999354,
          "durationTicks": 48,
          "midi": 43,
          "name": "G2",
          "ticks": 43032,
          "time": 158.20580325,
          "velocity": 1
        },
        {
          "duration": 0.3529410000000155,
          "durationTicks": 96,
          "midi": 36,
          "name": "C2",
          "ticks": 43080,
          "time": 158.38227375,
          "velocity": 1
        },
        {
          "duration": 0.35294099999998707,
          "durationTicks": 96,
          "midi": 50,
          "name": "D3",
          "ticks": 43176,
          "time": 158.73521475,
          "velocity": 1
        },
        {
          "duration": 0.35294099999998707,
          "durationTicks": 96,
          "midi": 38,
          "name": "D2",
          "ticks": 43176,
          "time": 158.73521475,
          "velocity": 1
        },
        {
          "duration": 0.17647049999999354,
          "durationTicks": 48,
          "midi": 50,
          "name": "D3",
          "ticks": 43272,
          "time": 159.08815575,
          "velocity": 1
        },
        {
          "duration": 0.17647049999999354,
          "durationTicks": 48,
          "midi": 45,
          "name": "A2",
          "ticks": 43272,
          "time": 159.08815575,
          "velocity": 1
        },
        {
          "duration": 0.17647050000002196,
          "durationTicks": 48,
          "midi": 38,
          "name": "D2",
          "ticks": 43320,
          "time": 159.26462625,
          "velocity": 1
        },
        {
          "duration": 0.35294099999998707,
          "durationTicks": 96,
          "midi": 38,
          "name": "D2",
          "ticks": 43368,
          "time": 159.44109675,
          "velocity": 1
        },
        {
          "duration": 0.17647049999999354,
          "durationTicks": 48,
          "midi": 45,
          "name": "A2",
          "ticks": 43464,
          "time": 159.79403775,
          "velocity": 1
        },
        {
          "duration": 0.17647049999999354,
          "durationTicks": 48,
          "midi": 50,
          "name": "D3",
          "ticks": 43464,
          "time": 159.79403775,
          "velocity": 1
        },
        {
          "duration": 0.17647049999999354,
          "durationTicks": 48,
          "midi": 38,
          "name": "D2",
          "ticks": 43512,
          "time": 159.97050825,
          "velocity": 1
        },
        {
          "duration": 0.3529410000000155,
          "durationTicks": 96,
          "midi": 48,
          "name": "C3",
          "ticks": 43560,
          "time": 160.14697875,
          "velocity": 1
        },
        {
          "duration": 0.3529410000000155,
          "durationTicks": 96,
          "midi": 36,
          "name": "C2",
          "ticks": 43560,
          "time": 160.14697875,
          "velocity": 1
        },
        {
          "duration": 0.17647049999999354,
          "durationTicks": 48,
          "midi": 48,
          "name": "C3",
          "ticks": 43656,
          "time": 160.49991975,
          "velocity": 1
        },
        {
          "duration": 0.17647049999999354,
          "durationTicks": 48,
          "midi": 43,
          "name": "G2",
          "ticks": 43656,
          "time": 160.49991975,
          "velocity": 1
        },
        {
          "duration": 0.17647049999999354,
          "durationTicks": 48,
          "midi": 43,
          "name": "G2",
          "ticks": 43704,
          "time": 160.67639025,
          "velocity": 1
        },
        {
          "duration": 0.17647050000002196,
          "durationTicks": 48,
          "midi": 41,
          "name": "F2",
          "ticks": 43752,
          "time": 160.85286075,
          "velocity": 1
        },
        {
          "duration": 0.17647049999999354,
          "durationTicks": 48,
          "midi": 38,
          "name": "D2",
          "ticks": 43800,
          "time": 161.02933125,
          "velocity": 1
        },
        {
          "duration": 0.17647049999999354,
          "durationTicks": 48,
          "midi": 36,
          "name": "C2",
          "ticks": 43848,
          "time": 161.20580175,
          "velocity": 1
        },
        {
          "duration": 0.17647049999999354,
          "durationTicks": 48,
          "midi": 34,
          "name": "A#1",
          "ticks": 43896,
          "time": 161.38227225,
          "velocity": 1
        },
        {
          "duration": 0.3529410000000155,
          "durationTicks": 96,
          "midi": 46,
          "name": "A#2",
          "ticks": 43944,
          "time": 161.55874275,
          "velocity": 1
        },
        {
          "duration": 0.3529410000000155,
          "durationTicks": 96,
          "midi": 34,
          "name": "A#1",
          "ticks": 43944,
          "time": 161.55874275,
          "velocity": 1
        },
        {
          "duration": 0.17647049999999354,
          "durationTicks": 48,
          "midi": 46,
          "name": "A#2",
          "ticks": 44040,
          "time": 161.91168375,
          "velocity": 1
        },
        {
          "duration": 0.17647049999999354,
          "durationTicks": 48,
          "midi": 41,
          "name": "F2",
          "ticks": 44040,
          "time": 161.91168375,
          "velocity": 1
        },
        {
          "duration": 0.17647049999999354,
          "durationTicks": 48,
          "midi": 34,
          "name": "A#1",
          "ticks": 44088,
          "time": 162.08815425,
          "velocity": 1
        },
        {
          "duration": 0.3529410000000155,
          "durationTicks": 96,
          "midi": 34,
          "name": "A#1",
          "ticks": 44136,
          "time": 162.26462475,
          "velocity": 1
        },
        {
          "duration": 0.17647049999999354,
          "durationTicks": 48,
          "midi": 46,
          "name": "A#2",
          "ticks": 44232,
          "time": 162.61756575,
          "velocity": 1
        },
        {
          "duration": 0.17647049999999354,
          "durationTicks": 48,
          "midi": 41,
          "name": "F2",
          "ticks": 44232,
          "time": 162.61756575,
          "velocity": 1
        },
        {
          "duration": 0.35294099999998707,
          "durationTicks": 96,
          "midi": 36,
          "name": "C2",
          "ticks": 44280,
          "time": 162.79403625,
          "velocity": 1
        },
        {
          "duration": 0.17647050000002196,
          "durationTicks": 48,
          "midi": 36,
          "name": "C2",
          "ticks": 44376,
          "time": 163.14697725,
          "velocity": 1
        },
        {
          "duration": 0.17647049999999354,
          "durationTicks": 48,
          "midi": 43,
          "name": "G2",
          "ticks": 44424,
          "time": 163.32344775,
          "velocity": 1
        },
        {
          "duration": 0.17647049999999354,
          "durationTicks": 48,
          "midi": 48,
          "name": "C3",
          "ticks": 44424,
          "time": 163.32344775,
          "velocity": 1
        },
        {
          "duration": 0.17647049999999354,
          "durationTicks": 48,
          "midi": 36,
          "name": "C2",
          "ticks": 44472,
          "time": 163.49991825,
          "velocity": 1
        },
        {
          "duration": 0.35294099999998707,
          "durationTicks": 96,
          "midi": 36,
          "name": "C2",
          "ticks": 44520,
          "time": 163.67638875,
          "velocity": 1
        },
        {
          "duration": 0.17647050000002196,
          "durationTicks": 48,
          "midi": 48,
          "name": "C3",
          "ticks": 44616,
          "time": 164.02932975,
          "velocity": 1
        },
        {
          "duration": 0.17647050000002196,
          "durationTicks": 48,
          "midi": 43,
          "name": "G2",
          "ticks": 44616,
          "time": 164.02932975,
          "velocity": 1
        },
        {
          "duration": 0.17647049999999354,
          "durationTicks": 48,
          "midi": 36,
          "name": "C2",
          "ticks": 44664,
          "time": 164.20580025,
          "velocity": 1
        },
        {
          "duration": 0.35294099999998707,
          "durationTicks": 96,
          "midi": 45,
          "name": "A2",
          "ticks": 44712,
          "time": 164.38227075,
          "velocity": 1
        },
        {
          "duration": 0.35294099999998707,
          "durationTicks": 96,
          "midi": 33,
          "name": "A1",
          "ticks": 44712,
          "time": 164.38227075,
          "velocity": 1
        },
        {
          "duration": 0.17647050000002196,
          "durationTicks": 48,
          "midi": 40,
          "name": "E2",
          "ticks": 44808,
          "time": 164.73521175,
          "velocity": 1
        },
        {
          "duration": 0.17647050000002196,
          "durationTicks": 48,
          "midi": 45,
          "name": "A2",
          "ticks": 44808,
          "time": 164.73521175,
          "velocity": 1
        },
        {
          "duration": 0.17647049999999354,
          "durationTicks": 48,
          "midi": 33,
          "name": "A1",
          "ticks": 44856,
          "time": 164.91168225,
          "velocity": 1
        },
        {
          "duration": 0.35294099999998707,
          "durationTicks": 96,
          "midi": 36,
          "name": "C2",
          "ticks": 44904,
          "time": 165.08815275,
          "velocity": 1
        },
        {
          "duration": 0.17647050000002196,
          "durationTicks": 48,
          "midi": 48,
          "name": "C3",
          "ticks": 45000,
          "time": 165.44109375,
          "velocity": 1
        },
        {
          "duration": 0.17647050000002196,
          "durationTicks": 48,
          "midi": 43,
          "name": "G2",
          "ticks": 45000,
          "time": 165.44109375,
          "velocity": 1
        },
        {
          "duration": 0.35294099999998707,
          "durationTicks": 96,
          "midi": 38,
          "name": "D2",
          "ticks": 45048,
          "time": 165.61756425000002,
          "velocity": 1
        },
        {
          "duration": 0.17647049999999354,
          "durationTicks": 48,
          "midi": 38,
          "name": "D2",
          "ticks": 45144,
          "time": 165.97050525,
          "velocity": 1
        },
        {
          "duration": 0.17647049999999354,
          "durationTicks": 48,
          "midi": 45,
          "name": "A2",
          "ticks": 45192,
          "time": 166.14697575,
          "velocity": 1
        },
        {
          "duration": 0.17647049999999354,
          "durationTicks": 48,
          "midi": 50,
          "name": "D3",
          "ticks": 45192,
          "time": 166.14697575,
          "velocity": 1
        },
        {
          "duration": 0.17647050000002196,
          "durationTicks": 48,
          "midi": 38,
          "name": "D2",
          "ticks": 45240,
          "time": 166.32344625,
          "velocity": 1
        },
        {
          "duration": 0.35294099999998707,
          "durationTicks": 96,
          "midi": 36,
          "name": "C2",
          "ticks": 45288,
          "time": 166.49991675,
          "velocity": 1
        },
        {
          "duration": 0.17647049999999354,
          "durationTicks": 48,
          "midi": 48,
          "name": "C3",
          "ticks": 45384,
          "time": 166.85285775,
          "velocity": 1
        },
        {
          "duration": 0.17647049999999354,
          "durationTicks": 48,
          "midi": 43,
          "name": "G2",
          "ticks": 45384,
          "time": 166.85285775,
          "velocity": 1
        },
        {
          "duration": 0.17647050000002196,
          "durationTicks": 48,
          "midi": 36,
          "name": "C2",
          "ticks": 45432,
          "time": 167.02932825,
          "velocity": 1
        },
        {
          "duration": 0.35294099999998707,
          "durationTicks": 96,
          "midi": 34,
          "name": "A#1",
          "ticks": 45480,
          "time": 167.20579875,
          "velocity": 1
        },
        {
          "duration": 0.35294099999998707,
          "durationTicks": 96,
          "midi": 46,
          "name": "A#2",
          "ticks": 45480,
          "time": 167.20579875,
          "velocity": 1
        },
        {
          "duration": 0.17647049999999354,
          "durationTicks": 48,
          "midi": 46,
          "name": "A#2",
          "ticks": 45576,
          "time": 167.55873975,
          "velocity": 1
        },
        {
          "duration": 0.17647049999999354,
          "durationTicks": 48,
          "midi": 41,
          "name": "F2",
          "ticks": 45576,
          "time": 167.55873975,
          "velocity": 1
        },
        {
          "duration": 0.17647050000002196,
          "durationTicks": 48,
          "midi": 34,
          "name": "A#1",
          "ticks": 45624,
          "time": 167.73521025,
          "velocity": 1
        },
        {
          "duration": 0.35294099999998707,
          "durationTicks": 96,
          "midi": 34,
          "name": "A#1",
          "ticks": 45672,
          "time": 167.91168075000002,
          "velocity": 1
        },
        {
          "duration": 0.17647049999999354,
          "durationTicks": 48,
          "midi": 41,
          "name": "F2",
          "ticks": 45768,
          "time": 168.26462175,
          "velocity": 1
        },
        {
          "duration": 0.17647049999999354,
          "durationTicks": 48,
          "midi": 46,
          "name": "A#2",
          "ticks": 45768,
          "time": 168.26462175,
          "velocity": 1
        },
        {
          "duration": 0.17647049999999354,
          "durationTicks": 48,
          "midi": 34,
          "name": "A#1",
          "ticks": 45816,
          "time": 168.44109225,
          "velocity": 1
        },
        {
          "duration": 0.17647050000002196,
          "durationTicks": 48,
          "midi": 48,
          "name": "C3",
          "ticks": 45864,
          "time": 168.61756275,
          "velocity": 1
        },
        {
          "duration": 0.17647050000002196,
          "durationTicks": 48,
          "midi": 36,
          "name": "C2",
          "ticks": 45864,
          "time": 168.61756275,
          "velocity": 1
        },
        {
          "duration": 0.17647049999999354,
          "durationTicks": 48,
          "midi": 43,
          "name": "G2",
          "ticks": 45912,
          "time": 168.79403325,
          "velocity": 1
        },
        {
          "duration": 0.17647049999999354,
          "durationTicks": 48,
          "midi": 48,
          "name": "C3",
          "ticks": 45912,
          "time": 168.79403325,
          "velocity": 1
        },
        {
          "duration": 0.17647049999999354,
          "durationTicks": 48,
          "midi": 36,
          "name": "C2",
          "ticks": 45960,
          "time": 168.97050375,
          "velocity": 1
        },
        {
          "duration": 0.17647049999999354,
          "durationTicks": 48,
          "midi": 36,
          "name": "C2",
          "ticks": 46008,
          "time": 169.14697425,
          "velocity": 1
        },
        {
          "duration": 0.17647050000002196,
          "durationTicks": 48,
          "midi": 48,
          "name": "C3",
          "ticks": 46056,
          "time": 169.32344475,
          "velocity": 1
        },
        {
          "duration": 0.17647050000002196,
          "durationTicks": 48,
          "midi": 36,
          "name": "C2",
          "ticks": 46056,
          "time": 169.32344475,
          "velocity": 1
        },
        {
          "duration": 0.17647049999999354,
          "durationTicks": 48,
          "midi": 48,
          "name": "C3",
          "ticks": 46104,
          "time": 169.49991525000002,
          "velocity": 1
        },
        {
          "duration": 0.17647049999999354,
          "durationTicks": 48,
          "midi": 43,
          "name": "G2",
          "ticks": 46104,
          "time": 169.49991525000002,
          "velocity": 1
        },
        {
          "duration": 0.17647049999999354,
          "durationTicks": 48,
          "midi": 43,
          "name": "G2",
          "ticks": 46152,
          "time": 169.67638575,
          "velocity": 1
        },
        {
          "duration": 0.17647049999999354,
          "durationTicks": 48,
          "midi": 48,
          "name": "C3",
          "ticks": 46152,
          "time": 169.67638575,
          "velocity": 1
        },
        {
          "duration": 0.17647049999999354,
          "durationTicks": 48,
          "midi": 36,
          "name": "C2",
          "ticks": 46152,
          "time": 169.67638575,
          "velocity": 1
        },
        {
          "duration": 0.3529410000000155,
          "durationTicks": 96,
          "midi": 46,
          "name": "A#2",
          "ticks": 46248,
          "time": 170.02932675,
          "velocity": 1
        },
        {
          "duration": 0.3529410000000155,
          "durationTicks": 96,
          "midi": 34,
          "name": "A#1",
          "ticks": 46248,
          "time": 170.02932675,
          "velocity": 1
        },
        {
          "duration": 0.17647049999999354,
          "durationTicks": 48,
          "midi": 46,
          "name": "A#2",
          "ticks": 46344,
          "time": 170.38226775,
          "velocity": 1
        },
        {
          "duration": 0.17647049999999354,
          "durationTicks": 48,
          "midi": 41,
          "name": "F2",
          "ticks": 46344,
          "time": 170.38226775,
          "velocity": 1
        },
        {
          "duration": 0.17647049999999354,
          "durationTicks": 48,
          "midi": 34,
          "name": "A#1",
          "ticks": 46392,
          "time": 170.55873825,
          "velocity": 1
        },
        {
          "duration": 0.3529410000000155,
          "durationTicks": 96,
          "midi": 34,
          "name": "A#1",
          "ticks": 46440,
          "time": 170.73520875,
          "velocity": 1
        },
        {
          "duration": 0.17647049999999354,
          "durationTicks": 48,
          "midi": 46,
          "name": "A#2",
          "ticks": 46536,
          "time": 171.08814975,
          "velocity": 1
        },
        {
          "duration": 0.17647049999999354,
          "durationTicks": 48,
          "midi": 41,
          "name": "F2",
          "ticks": 46536,
          "time": 171.08814975,
          "velocity": 1
        },
        {
          "duration": 0.35294099999998707,
          "durationTicks": 96,
          "midi": 36,
          "name": "C2",
          "ticks": 46584,
          "time": 171.26462025,
          "velocity": 1
        },
        {
          "duration": 0.17647050000002196,
          "durationTicks": 48,
          "midi": 36,
          "name": "C2",
          "ticks": 46680,
          "time": 171.61756125,
          "velocity": 1
        },
        {
          "duration": 0.17647049999999354,
          "durationTicks": 48,
          "midi": 43,
          "name": "G2",
          "ticks": 46728,
          "time": 171.79403175000002,
          "velocity": 1
        },
        {
          "duration": 0.17647049999999354,
          "durationTicks": 48,
          "midi": 48,
          "name": "C3",
          "ticks": 46728,
          "time": 171.79403175000002,
          "velocity": 1
        },
        {
          "duration": 0.17647049999999354,
          "durationTicks": 48,
          "midi": 36,
          "name": "C2",
          "ticks": 46776,
          "time": 171.97050225,
          "velocity": 1
        },
        {
          "duration": 0.35294099999998707,
          "durationTicks": 96,
          "midi": 36,
          "name": "C2",
          "ticks": 46824,
          "time": 172.14697275,
          "velocity": 1
        },
        {
          "duration": 0.17647050000002196,
          "durationTicks": 48,
          "midi": 48,
          "name": "C3",
          "ticks": 46920,
          "time": 172.49991375,
          "velocity": 1
        },
        {
          "duration": 0.17647050000002196,
          "durationTicks": 48,
          "midi": 43,
          "name": "G2",
          "ticks": 46920,
          "time": 172.49991375,
          "velocity": 1
        },
        {
          "duration": 0.17647049999999354,
          "durationTicks": 48,
          "midi": 36,
          "name": "C2",
          "ticks": 46968,
          "time": 172.67638425,
          "velocity": 1
        },
        {
          "duration": 0.35294099999998707,
          "durationTicks": 96,
          "midi": 45,
          "name": "A2",
          "ticks": 47016,
          "time": 172.85285475,
          "velocity": 1
        },
        {
          "duration": 0.35294099999998707,
          "durationTicks": 96,
          "midi": 33,
          "name": "A1",
          "ticks": 47016,
          "time": 172.85285475,
          "velocity": 1
        },
        {
          "duration": 0.17647050000002196,
          "durationTicks": 48,
          "midi": 40,
          "name": "E2",
          "ticks": 47112,
          "time": 173.20579575,
          "velocity": 1
        },
        {
          "duration": 0.17647050000002196,
          "durationTicks": 48,
          "midi": 45,
          "name": "A2",
          "ticks": 47112,
          "time": 173.20579575,
          "velocity": 1
        },
        {
          "duration": 0.17647049999999354,
          "durationTicks": 48,
          "midi": 33,
          "name": "A1",
          "ticks": 47160,
          "time": 173.38226625000001,
          "velocity": 1
        },
        {
          "duration": 0.35294099999998707,
          "durationTicks": 96,
          "midi": 33,
          "name": "A1",
          "ticks": 47208,
          "time": 173.55873675,
          "velocity": 1
        },
        {
          "duration": 0.17647049999999354,
          "durationTicks": 48,
          "midi": 43,
          "name": "G2",
          "ticks": 47304,
          "time": 173.91167775,
          "velocity": 1
        },
        {
          "duration": 0.17647049999999354,
          "durationTicks": 48,
          "midi": 38,
          "name": "D2",
          "ticks": 47304,
          "time": 173.91167775,
          "velocity": 1
        },
        {
          "duration": 0.3529410000000155,
          "durationTicks": 96,
          "midi": 38,
          "name": "D2",
          "ticks": 47352,
          "time": 174.08814825,
          "velocity": 1
        },
        {
          "duration": 0.17647049999999354,
          "durationTicks": 48,
          "midi": 38,
          "name": "D2",
          "ticks": 47448,
          "time": 174.44108925,
          "velocity": 1
        },
        {
          "duration": 0.17647049999999354,
          "durationTicks": 48,
          "midi": 45,
          "name": "A2",
          "ticks": 47496,
          "time": 174.61755975,
          "velocity": 1
        },
        {
          "duration": 0.17647049999999354,
          "durationTicks": 48,
          "midi": 50,
          "name": "D3",
          "ticks": 47496,
          "time": 174.61755975,
          "velocity": 1
        },
        {
          "duration": 0.17647050000002196,
          "durationTicks": 48,
          "midi": 38,
          "name": "D2",
          "ticks": 47544,
          "time": 174.79403025,
          "velocity": 1
        },
        {
          "duration": 0.35294099999998707,
          "durationTicks": 96,
          "midi": 38,
          "name": "D2",
          "ticks": 47592,
          "time": 174.97050075,
          "velocity": 1
        },
        {
          "duration": 0.17647049999999354,
          "durationTicks": 48,
          "midi": 50,
          "name": "D3",
          "ticks": 47688,
          "time": 175.32344175,
          "velocity": 1
        },
        {
          "duration": 0.17647049999999354,
          "durationTicks": 48,
          "midi": 45,
          "name": "A2",
          "ticks": 47688,
          "time": 175.32344175,
          "velocity": 1
        },
        {
          "duration": 0.17647050000002196,
          "durationTicks": 48,
          "midi": 38,
          "name": "D2",
          "ticks": 47736,
          "time": 175.49991225,
          "velocity": 1
        },
        {
          "duration": 0.35294099999998707,
          "durationTicks": 96,
          "midi": 34,
          "name": "A#1",
          "ticks": 47784,
          "time": 175.67638275000002,
          "velocity": 1
        },
        {
          "duration": 0.35294099999998707,
          "durationTicks": 96,
          "midi": 46,
          "name": "A#2",
          "ticks": 47784,
          "time": 175.67638275000002,
          "velocity": 1
        },
        {
          "duration": 0.17647049999999354,
          "durationTicks": 48,
          "midi": 46,
          "name": "A#2",
          "ticks": 47880,
          "time": 176.02932375,
          "velocity": 1
        },
        {
          "duration": 0.17647049999999354,
          "durationTicks": 48,
          "midi": 41,
          "name": "F2",
          "ticks": 47880,
          "time": 176.02932375,
          "velocity": 1
        },
        {
          "duration": 0.17647049999999354,
          "durationTicks": 48,
          "midi": 34,
          "name": "A#1",
          "ticks": 47928,
          "time": 176.20579425,
          "velocity": 1
        },
        {
          "duration": 0.3529410000000155,
          "durationTicks": 96,
          "midi": 34,
          "name": "A#1",
          "ticks": 47976,
          "time": 176.38226475,
          "velocity": 1
        },
        {
          "duration": 0.17647049999999354,
          "durationTicks": 48,
          "midi": 46,
          "name": "A#2",
          "ticks": 48072,
          "time": 176.73520575,
          "velocity": 1
        },
        {
          "duration": 0.17647049999999354,
          "durationTicks": 48,
          "midi": 41,
          "name": "F2",
          "ticks": 48072,
          "time": 176.73520575,
          "velocity": 1
        },
        {
          "duration": 0.17647049999999354,
          "durationTicks": 48,
          "midi": 34,
          "name": "A#1",
          "ticks": 48120,
          "time": 176.91167625,
          "velocity": 1
        },
        {
          "duration": 0.17647050000002196,
          "durationTicks": 48,
          "midi": 33,
          "name": "A1",
          "ticks": 48168,
          "time": 177.08814675,
          "velocity": 1
        },
        {
          "duration": 0.17647050000002196,
          "durationTicks": 48,
          "midi": 45,
          "name": "A2",
          "ticks": 48168,
          "time": 177.08814675,
          "velocity": 1
        },
        {
          "duration": 0.17647049999999354,
          "durationTicks": 48,
          "midi": 40,
          "name": "E2",
          "ticks": 48216,
          "time": 177.26461725000001,
          "velocity": 1
        },
        {
          "duration": 0.17647049999999354,
          "durationTicks": 48,
          "midi": 45,
          "name": "A2",
          "ticks": 48216,
          "time": 177.26461725000001,
          "velocity": 1
        },
        {
          "duration": 0.17647049999999354,
          "durationTicks": 48,
          "midi": 33,
          "name": "A1",
          "ticks": 48264,
          "time": 177.44108775,
          "velocity": 1
        },
        {
          "duration": 0.17647049999999354,
          "durationTicks": 48,
          "midi": 33,
          "name": "A1",
          "ticks": 48312,
          "time": 177.61755825,
          "velocity": 1
        },
        {
          "duration": 0.17647049999999354,
          "durationTicks": 48,
          "midi": 48,
          "name": "C3",
          "ticks": 48360,
          "time": 177.79402875,
          "velocity": 1
        },
        {
          "duration": 0.17647049999999354,
          "durationTicks": 48,
          "midi": 36,
          "name": "C2",
          "ticks": 48360,
          "time": 177.79402875,
          "velocity": 1
        },
        {
          "duration": 0.17647050000002196,
          "durationTicks": 48,
          "midi": 48,
          "name": "C3",
          "ticks": 48408,
          "time": 177.97049925,
          "velocity": 1
        },
        {
          "duration": 0.17647050000002196,
          "durationTicks": 48,
          "midi": 43,
          "name": "G2",
          "ticks": 48408,
          "time": 177.97049925,
          "velocity": 1
        },
        {
          "duration": 0.35294099999998707,
          "durationTicks": 96,
          "midi": 36,
          "name": "C2",
          "ticks": 48456,
          "time": 178.14696975,
          "velocity": 1
        },
        {
          "duration": 0.3529410000000155,
          "durationTicks": 96,
          "midi": 50,
          "name": "D3",
          "ticks": 48552,
          "time": 178.49991075,
          "velocity": 1
        },
        {
          "duration": 0.3529410000000155,
          "durationTicks": 96,
          "midi": 38,
          "name": "D2",
          "ticks": 48552,
          "time": 178.49991075,
          "velocity": 1
        },
        {
          "duration": 0.17647049999999354,
          "durationTicks": 48,
          "midi": 50,
          "name": "D3",
          "ticks": 48648,
          "time": 178.85285175,
          "velocity": 1
        },
        {
          "duration": 0.17647049999999354,
          "durationTicks": 48,
          "midi": 45,
          "name": "A2",
          "ticks": 48648,
          "time": 178.85285175,
          "velocity": 1
        },
        {
          "duration": 0.17647049999999354,
          "durationTicks": 48,
          "midi": 38,
          "name": "D2",
          "ticks": 48696,
          "time": 179.02932225,
          "velocity": 1
        },
        {
          "duration": 0.3529410000000155,
          "durationTicks": 96,
          "midi": 38,
          "name": "D2",
          "ticks": 48744,
          "time": 179.20579275,
          "velocity": 1
        },
        {
          "duration": 0.17647049999999354,
          "durationTicks": 48,
          "midi": 45,
          "name": "A2",
          "ticks": 48840,
          "time": 179.55873375000002,
          "velocity": 1
        },
        {
          "duration": 0.17647049999999354,
          "durationTicks": 48,
          "midi": 50,
          "name": "D3",
          "ticks": 48840,
          "time": 179.55873375000002,
          "velocity": 1
        },
        {
          "duration": 0.17647049999999354,
          "durationTicks": 48,
          "midi": 38,
          "name": "D2",
          "ticks": 48888,
          "time": 179.73520425,
          "velocity": 1
        },
        {
          "duration": 0.35294099999998707,
          "durationTicks": 96,
          "midi": 48,
          "name": "C3",
          "ticks": 48936,
          "time": 179.91167475,
          "velocity": 1
        },
        {
          "duration": 0.35294099999998707,
          "durationTicks": 96,
          "midi": 36,
          "name": "C2",
          "ticks": 48936,
          "time": 179.91167475,
          "velocity": 1
        },
        {
          "duration": 0.17647050000002196,
          "durationTicks": 48,
          "midi": 48,
          "name": "C3",
          "ticks": 49032,
          "time": 180.26461575,
          "velocity": 1
        },
        {
          "duration": 0.17647050000002196,
          "durationTicks": 48,
          "midi": 43,
          "name": "G2",
          "ticks": 49032,
          "time": 180.26461575,
          "velocity": 1
        },
        {
          "duration": 0.17647049999999354,
          "durationTicks": 48,
          "midi": 43,
          "name": "G2",
          "ticks": 49080,
          "time": 180.44108625,
          "velocity": 1
        },
        {
          "duration": 0.17647049999999354,
          "durationTicks": 48,
          "midi": 41,
          "name": "F2",
          "ticks": 49128,
          "time": 180.61755675,
          "velocity": 1
        },
        {
          "duration": 0.17647049999999354,
          "durationTicks": 48,
          "midi": 38,
          "name": "D2",
          "ticks": 49176,
          "time": 180.79402725,
          "velocity": 1
        },
        {
          "duration": 0.17647050000002196,
          "durationTicks": 48,
          "midi": 36,
          "name": "C2",
          "ticks": 49224,
          "time": 180.97049775,
          "velocity": 1
        },
        {
          "duration": 0.17647049999999354,
          "durationTicks": 48,
          "midi": 34,
          "name": "A#1",
          "ticks": 49272,
          "time": 181.14696825000001,
          "velocity": 1
        },
        {
          "duration": 0.35294099999998707,
          "durationTicks": 96,
          "midi": 46,
          "name": "A#2",
          "ticks": 49320,
          "time": 181.32343875,
          "velocity": 1
        },
        {
          "duration": 0.35294099999998707,
          "durationTicks": 96,
          "midi": 34,
          "name": "A#1",
          "ticks": 49320,
          "time": 181.32343875,
          "velocity": 1
        },
        {
          "duration": 0.17647049999999354,
          "durationTicks": 48,
          "midi": 46,
          "name": "A#2",
          "ticks": 49416,
          "time": 181.67637975,
          "velocity": 1
        },
        {
          "duration": 0.17647049999999354,
          "durationTicks": 48,
          "midi": 41,
          "name": "F2",
          "ticks": 49416,
          "time": 181.67637975,
          "velocity": 1
        },
        {
          "duration": 0.17647050000002196,
          "durationTicks": 48,
          "midi": 34,
          "name": "A#1",
          "ticks": 49464,
          "time": 181.85285025,
          "velocity": 1
        },
        {
          "duration": 0.35294099999998707,
          "durationTicks": 96,
          "midi": 34,
          "name": "A#1",
          "ticks": 49512,
          "time": 182.02932075,
          "velocity": 1
        },
        {
          "duration": 0.17647049999999354,
          "durationTicks": 48,
          "midi": 46,
          "name": "A#2",
          "ticks": 49608,
          "time": 182.38226175,
          "velocity": 1
        },
        {
          "duration": 0.17647049999999354,
          "durationTicks": 48,
          "midi": 41,
          "name": "F2",
          "ticks": 49608,
          "time": 182.38226175,
          "velocity": 1
        },
        {
          "duration": 0.3529410000000155,
          "durationTicks": 96,
          "midi": 36,
          "name": "C2",
          "ticks": 49656,
          "time": 182.55873225,
          "velocity": 1
        },
        {
          "duration": 0.17647049999999354,
          "durationTicks": 48,
          "midi": 36,
          "name": "C2",
          "ticks": 49752,
          "time": 182.91167325,
          "velocity": 1
        },
        {
          "duration": 0.17647049999999354,
          "durationTicks": 48,
          "midi": 43,
          "name": "G2",
          "ticks": 49800,
          "time": 183.08814375,
          "velocity": 1
        },
        {
          "duration": 0.17647049999999354,
          "durationTicks": 48,
          "midi": 48,
          "name": "C3",
          "ticks": 49800,
          "time": 183.08814375,
          "velocity": 1
        },
        {
          "duration": 0.17647050000002196,
          "durationTicks": 48,
          "midi": 36,
          "name": "C2",
          "ticks": 49848,
          "time": 183.26461425,
          "velocity": 1
        },
        {
          "duration": 0.35294099999998707,
          "durationTicks": 96,
          "midi": 36,
          "name": "C2",
          "ticks": 49896,
          "time": 183.44108475000002,
          "velocity": 1
        },
        {
          "duration": 0.17647049999999354,
          "durationTicks": 48,
          "midi": 48,
          "name": "C3",
          "ticks": 49992,
          "time": 183.79402575,
          "velocity": 1
        },
        {
          "duration": 0.17647049999999354,
          "durationTicks": 48,
          "midi": 43,
          "name": "G2",
          "ticks": 49992,
          "time": 183.79402575,
          "velocity": 1
        },
        {
          "duration": 0.17647049999999354,
          "durationTicks": 48,
          "midi": 36,
          "name": "C2",
          "ticks": 50040,
          "time": 183.97049625,
          "velocity": 1
        },
        {
          "duration": 0.3529410000000155,
          "durationTicks": 96,
          "midi": 40,
          "name": "E2",
          "ticks": 50088,
          "time": 184.14696675,
          "velocity": 1
        },
        {
          "duration": 0.3529410000000155,
          "durationTicks": 96,
          "midi": 45,
          "name": "A2",
          "ticks": 50088,
          "time": 184.14696675,
          "velocity": 1
        },
        {
          "duration": 0.3529410000000155,
          "durationTicks": 96,
          "midi": 33,
          "name": "A1",
          "ticks": 50088,
          "time": 184.14696675,
          "velocity": 1
        },
        {
          "duration": 0.17647049999999354,
          "durationTicks": 48,
          "midi": 40,
          "name": "E2",
          "ticks": 50184,
          "time": 184.49990775,
          "velocity": 1
        },
        {
          "duration": 0.17647049999999354,
          "durationTicks": 48,
          "midi": 45,
          "name": "A2",
          "ticks": 50184,
          "time": 184.49990775,
          "velocity": 1
        },
        {
          "duration": 0.17647049999999354,
          "durationTicks": 48,
          "midi": 33,
          "name": "A1",
          "ticks": 50232,
          "time": 184.67637825,
          "velocity": 1
        },
        {
          "duration": 0.3529410000000155,
          "durationTicks": 96,
          "midi": 33,
          "name": "A1",
          "ticks": 50280,
          "time": 184.85284875,
          "velocity": 1
        },
        {
          "duration": 0.17647049999999354,
          "durationTicks": 48,
          "midi": 43,
          "name": "G2",
          "ticks": 50376,
          "time": 185.20578975,
          "velocity": 1
        },
        {
          "duration": 0.17647049999999354,
          "durationTicks": 48,
          "midi": 38,
          "name": "D2",
          "ticks": 50376,
          "time": 185.20578975,
          "velocity": 1
        },
        {
          "duration": 0.35294099999998707,
          "durationTicks": 96,
          "midi": 38,
          "name": "D2",
          "ticks": 50424,
          "time": 185.38226025,
          "velocity": 1
        },
        {
          "duration": 0.17647050000002196,
          "durationTicks": 48,
          "midi": 38,
          "name": "D2",
          "ticks": 50520,
          "time": 185.73520125,
          "velocity": 1
        },
        {
          "duration": 0.17647049999999354,
          "durationTicks": 48,
          "midi": 45,
          "name": "A2",
          "ticks": 50568,
          "time": 185.91167175,
          "velocity": 1
        },
        {
          "duration": 0.17647049999999354,
          "durationTicks": 48,
          "midi": 50,
          "name": "D3",
          "ticks": 50568,
          "time": 185.91167175,
          "velocity": 1
        },
        {
          "duration": 0.17647049999999354,
          "durationTicks": 48,
          "midi": 38,
          "name": "D2",
          "ticks": 50616,
          "time": 186.08814225,
          "velocity": 1
        },
        {
          "duration": 0.3529410000000155,
          "durationTicks": 96,
          "midi": 38,
          "name": "D2",
          "ticks": 50664,
          "time": 186.26461275,
          "velocity": 1
        },
        {
          "duration": 0.17647049999999354,
          "durationTicks": 48,
          "midi": 50,
          "name": "D3",
          "ticks": 50760,
          "time": 186.61755375,
          "velocity": 1
        },
        {
          "duration": 0.17647049999999354,
          "durationTicks": 48,
          "midi": 45,
          "name": "A2",
          "ticks": 50760,
          "time": 186.61755375,
          "velocity": 1
        },
        {
          "duration": 0.17647049999999354,
          "durationTicks": 48,
          "midi": 38,
          "name": "D2",
          "ticks": 50808,
          "time": 186.79402425,
          "velocity": 1
        },
        {
          "duration": 0.3529410000000155,
          "durationTicks": 96,
          "midi": 34,
          "name": "A#1",
          "ticks": 50856,
          "time": 186.97049475,
          "velocity": 1
        },
        {
          "duration": 0.3529410000000155,
          "durationTicks": 96,
          "midi": 46,
          "name": "A#2",
          "ticks": 50856,
          "time": 186.97049475,
          "velocity": 1
        },
        {
          "duration": 0.17647049999999354,
          "durationTicks": 48,
          "midi": 46,
          "name": "A#2",
          "ticks": 50952,
          "time": 187.32343575000002,
          "velocity": 1
        },
        {
          "duration": 0.17647049999999354,
          "durationTicks": 48,
          "midi": 41,
          "name": "F2",
          "ticks": 50952,
          "time": 187.32343575000002,
          "velocity": 1
        },
        {
          "duration": 0.17647049999999354,
          "durationTicks": 48,
          "midi": 34,
          "name": "A#1",
          "ticks": 51000,
          "time": 187.49990625,
          "velocity": 1
        },
        {
          "duration": 0.35294099999998707,
          "durationTicks": 96,
          "midi": 34,
          "name": "A#1",
          "ticks": 51048,
          "time": 187.67637675,
          "velocity": 1
        },
        {
          "duration": 0.17647050000002196,
          "durationTicks": 48,
          "midi": 46,
          "name": "A#2",
          "ticks": 51144,
          "time": 188.02931775,
          "velocity": 1
        },
        {
          "duration": 0.17647050000002196,
          "durationTicks": 48,
          "midi": 41,
          "name": "F2",
          "ticks": 51144,
          "time": 188.02931775,
          "velocity": 1
        },
        {
          "duration": 0.17647049999999354,
          "durationTicks": 48,
          "midi": 34,
          "name": "A#1",
          "ticks": 51192,
          "time": 188.20578825,
          "velocity": 1
        },
        {
          "duration": 0.17647049999999354,
          "durationTicks": 48,
          "midi": 33,
          "name": "A1",
          "ticks": 51240,
          "time": 188.38225875,
          "velocity": 1
        },
        {
          "duration": 0.17647049999999354,
          "durationTicks": 48,
          "midi": 45,
          "name": "A2",
          "ticks": 51240,
          "time": 188.38225875,
          "velocity": 1
        },
        {
          "duration": 0.17647049999999354,
          "durationTicks": 48,
          "midi": 40,
          "name": "E2",
          "ticks": 51288,
          "time": 188.55872925,
          "velocity": 1
        },
        {
          "duration": 0.17647049999999354,
          "durationTicks": 48,
          "midi": 45,
          "name": "A2",
          "ticks": 51288,
          "time": 188.55872925,
          "velocity": 1
        },
        {
          "duration": 0.17647050000002196,
          "durationTicks": 48,
          "midi": 33,
          "name": "A1",
          "ticks": 51336,
          "time": 188.73519975,
          "velocity": 1
        },
        {
          "duration": 0.17647049999999354,
          "durationTicks": 48,
          "midi": 33,
          "name": "A1",
          "ticks": 51384,
          "time": 188.91167025000001,
          "velocity": 1
        },
        {
          "duration": 0.17647049999999354,
          "durationTicks": 48,
          "midi": 48,
          "name": "C3",
          "ticks": 51432,
          "time": 189.08814075,
          "velocity": 1
        },
        {
          "duration": 0.17647049999999354,
          "durationTicks": 48,
          "midi": 36,
          "name": "C2",
          "ticks": 51432,
          "time": 189.08814075,
          "velocity": 1
        },
        {
          "duration": 0.17647049999999354,
          "durationTicks": 48,
          "midi": 48,
          "name": "C3",
          "ticks": 51480,
          "time": 189.26461125,
          "velocity": 1
        },
        {
          "duration": 0.17647049999999354,
          "durationTicks": 48,
          "midi": 43,
          "name": "G2",
          "ticks": 51480,
          "time": 189.26461125,
          "velocity": 1
        },
        {
          "duration": 0.17647049999999354,
          "durationTicks": 48,
          "midi": 38,
          "name": "D2",
          "ticks": 51528,
          "time": 189.44108175,
          "velocity": 1
        },
        {
          "duration": 0.2647057499999903,
          "durationTicks": 72,
          "midi": 38,
          "name": "D2",
          "ticks": 51624,
          "time": 189.79402275,
          "velocity": 1
        },
        {
          "duration": 0.08823524999999677,
          "durationTicks": 24,
          "midi": 38,
          "name": "D2",
          "ticks": 51696,
          "time": 190.0587285,
          "velocity": 1
        },
        {
          "duration": 0.17647049999999354,
          "durationTicks": 48,
          "midi": 45,
          "name": "A2",
          "ticks": 51720,
          "time": 190.14696375,
          "velocity": 1
        },
        {
          "duration": 0.17647049999999354,
          "durationTicks": 48,
          "midi": 50,
          "name": "D3",
          "ticks": 51720,
          "time": 190.14696375,
          "velocity": 1
        },
        {
          "duration": 0.17647050000002196,
          "durationTicks": 48,
          "midi": 38,
          "name": "D2",
          "ticks": 51768,
          "time": 190.32343425,
          "velocity": 1
        },
        {
          "duration": 0.35294099999998707,
          "durationTicks": 96,
          "midi": 38,
          "name": "D2",
          "ticks": 51816,
          "time": 190.49990475,
          "velocity": 1
        },
        {
          "duration": 0.17647049999999354,
          "durationTicks": 48,
          "midi": 50,
          "name": "D3",
          "ticks": 51912,
          "time": 190.85284575,
          "velocity": 1
        },
        {
          "duration": 0.17647049999999354,
          "durationTicks": 48,
          "midi": 45,
          "name": "A2",
          "ticks": 51912,
          "time": 190.85284575,
          "velocity": 1
        },
        {
          "duration": 0.17647050000002196,
          "durationTicks": 48,
          "midi": 38,
          "name": "D2",
          "ticks": 51960,
          "time": 191.02931625,
          "velocity": 1
        },
        {
          "duration": 0.2647057499999903,
          "durationTicks": 72,
          "midi": 46,
          "name": "A#2",
          "ticks": 52008,
          "time": 191.20578675000002,
          "velocity": 1
        },
        {
          "duration": 0.08823524999999677,
          "durationTicks": 24,
          "midi": 46,
          "name": "A#2",
          "ticks": 52080,
          "time": 191.4704925,
          "velocity": 1
        },
        {
          "duration": 0.17647049999999354,
          "durationTicks": 48,
          "midi": 53,
          "name": "F3",
          "ticks": 52104,
          "time": 191.55872775,
          "velocity": 1
        },
        {
          "duration": 0.17647049999999354,
          "durationTicks": 48,
          "midi": 58,
          "name": "A#3",
          "ticks": 52104,
          "time": 191.55872775,
          "velocity": 1
        },
        {
          "duration": 0.17647049999999354,
          "durationTicks": 48,
          "midi": 46,
          "name": "A#2",
          "ticks": 52152,
          "time": 191.73519825,
          "velocity": 1
        },
        {
          "duration": 0.3529410000000155,
          "durationTicks": 96,
          "midi": 45,
          "name": "A2",
          "ticks": 52200,
          "time": 191.91166875,
          "velocity": 1
        },
        {
          "duration": 0.17647049999999354,
          "durationTicks": 48,
          "midi": 52,
          "name": "E3",
          "ticks": 52296,
          "time": 192.26460975,
          "velocity": 1
        },
        {
          "duration": 0.17647049999999354,
          "durationTicks": 48,
          "midi": 57,
          "name": "A3",
          "ticks": 52296,
          "time": 192.26460975,
          "velocity": 1
        },
        {
          "duration": 0.17647049999999354,
          "durationTicks": 48,
          "midi": 45,
          "name": "A2",
          "ticks": 52344,
          "time": 192.44108025,
          "velocity": 1
        },
        {
          "duration": 0.2647057500000187,
          "durationTicks": 72,
          "midi": 38,
          "name": "D2",
          "ticks": 52392,
          "time": 192.61755075,
          "velocity": 1
        },
        {
          "duration": 0.08823524999999677,
          "durationTicks": 24,
          "midi": 38,
          "name": "D2",
          "ticks": 52464,
          "time": 192.8822565,
          "velocity": 1
        },
        {
          "duration": 0.17647049999999354,
          "durationTicks": 48,
          "midi": 45,
          "name": "A2",
          "ticks": 52488,
          "time": 192.97049175,
          "velocity": 1
        },
        {
          "duration": 0.17647049999999354,
          "durationTicks": 48,
          "midi": 50,
          "name": "D3",
          "ticks": 52488,
          "time": 192.97049175,
          "velocity": 1
        },
        {
          "duration": 0.17647049999999354,
          "durationTicks": 48,
          "midi": 38,
          "name": "D2",
          "ticks": 52536,
          "time": 193.14696225,
          "velocity": 1
        },
        {
          "duration": 0.3529410000000155,
          "durationTicks": 96,
          "midi": 38,
          "name": "D2",
          "ticks": 52584,
          "time": 193.32343275,
          "velocity": 1
        },
        {
          "duration": 0.17647049999999354,
          "durationTicks": 48,
          "midi": 50,
          "name": "D3",
          "ticks": 52680,
          "time": 193.67637375,
          "velocity": 1
        },
        {
          "duration": 0.17647049999999354,
          "durationTicks": 48,
          "midi": 45,
          "name": "A2",
          "ticks": 52680,
          "time": 193.67637375,
          "velocity": 1
        },
        {
          "duration": 0.17647049999999354,
          "durationTicks": 48,
          "midi": 38,
          "name": "D2",
          "ticks": 52728,
          "time": 193.85284425,
          "velocity": 1
        },
        {
          "duration": 0.2647057500000187,
          "durationTicks": 72,
          "midi": 46,
          "name": "A#2",
          "ticks": 52776,
          "time": 194.02931475,
          "velocity": 1
        },
        {
          "duration": 0.08823524999999677,
          "durationTicks": 24,
          "midi": 46,
          "name": "A#2",
          "ticks": 52848,
          "time": 194.29402050000002,
          "velocity": 1
        },
        {
          "duration": 0.17647049999999354,
          "durationTicks": 48,
          "midi": 53,
          "name": "F3",
          "ticks": 52872,
          "time": 194.38225575,
          "velocity": 1
        },
        {
          "duration": 0.17647049999999354,
          "durationTicks": 48,
          "midi": 58,
          "name": "A#3",
          "ticks": 52872,
          "time": 194.38225575,
          "velocity": 1
        },
        {
          "duration": 0.17647049999999354,
          "durationTicks": 48,
          "midi": 46,
          "name": "A#2",
          "ticks": 52920,
          "time": 194.55872625,
          "velocity": 1
        },
        {
          "duration": 0.3529410000000155,
          "durationTicks": 96,
          "midi": 45,
          "name": "A2",
          "ticks": 52968,
          "time": 194.73519675,
          "velocity": 1
        },
        {
          "duration": 0.17647049999999354,
          "durationTicks": 48,
          "midi": 52,
          "name": "E3",
          "ticks": 53064,
          "time": 195.08813775000002,
          "velocity": 1
        },
        {
          "duration": 0.17647049999999354,
          "durationTicks": 48,
          "midi": 57,
          "name": "A3",
          "ticks": 53064,
          "time": 195.08813775000002,
          "velocity": 1
        },
        {
          "duration": 0.17647049999999354,
          "durationTicks": 48,
          "midi": 45,
          "name": "A2",
          "ticks": 53112,
          "time": 195.26460825,
          "velocity": 1
        },
        {
          "duration": 0.2647057499999903,
          "durationTicks": 72,
          "midi": 38,
          "name": "D2",
          "ticks": 53160,
          "time": 195.44107875,
          "velocity": 1
        },
        {
          "duration": 0.08823524999999677,
          "durationTicks": 24,
          "midi": 38,
          "name": "D2",
          "ticks": 53232,
          "time": 195.7057845,
          "velocity": 1
        },
        {
          "duration": 0.17647050000002196,
          "durationTicks": 48,
          "midi": 45,
          "name": "A2",
          "ticks": 53256,
          "time": 195.79401975,
          "velocity": 1
        },
        {
          "duration": 0.17647050000002196,
          "durationTicks": 48,
          "midi": 50,
          "name": "D3",
          "ticks": 53256,
          "time": 195.79401975,
          "velocity": 1
        },
        {
          "duration": 0.17647049999999354,
          "durationTicks": 48,
          "midi": 38,
          "name": "D2",
          "ticks": 53304,
          "time": 195.97049025,
          "velocity": 1
        },
        {
          "duration": 0.35294099999998707,
          "durationTicks": 96,
          "midi": 38,
          "name": "D2",
          "ticks": 53352,
          "time": 196.14696075,
          "velocity": 1
        },
        {
          "duration": 0.17647050000002196,
          "durationTicks": 48,
          "midi": 50,
          "name": "D3",
          "ticks": 53448,
          "time": 196.49990175,
          "velocity": 1
        },
        {
          "duration": 0.17647050000002196,
          "durationTicks": 48,
          "midi": 45,
          "name": "A2",
          "ticks": 53448,
          "time": 196.49990175,
          "velocity": 1
        },
        {
          "duration": 0.17647049999999354,
          "durationTicks": 48,
          "midi": 38,
          "name": "D2",
          "ticks": 53496,
          "time": 196.67637225000001,
          "velocity": 1
        },
        {
          "duration": 0.2647057499999903,
          "durationTicks": 72,
          "midi": 46,
          "name": "A#2",
          "ticks": 53544,
          "time": 196.85284275,
          "velocity": 1
        },
        {
          "duration": 0.08823524999999677,
          "durationTicks": 24,
          "midi": 46,
          "name": "A#2",
          "ticks": 53616,
          "time": 197.1175485,
          "velocity": 1
        },
        {
          "duration": 0.17647050000002196,
          "durationTicks": 48,
          "midi": 53,
          "name": "F3",
          "ticks": 53640,
          "time": 197.20578375,
          "velocity": 1
        },
        {
          "duration": 0.17647050000002196,
          "durationTicks": 48,
          "midi": 58,
          "name": "A#3",
          "ticks": 53640,
          "time": 197.20578375,
          "velocity": 1
        },
        {
          "duration": 0.17647049999999354,
          "durationTicks": 48,
          "midi": 46,
          "name": "A#2",
          "ticks": 53688,
          "time": 197.38225425000002,
          "velocity": 1
        },
        {
          "duration": 0.35294099999998707,
          "durationTicks": 96,
          "midi": 45,
          "name": "A2",
          "ticks": 53736,
          "time": 197.55872475,
          "velocity": 1
        },
        {
          "duration": 0.17647049999999354,
          "durationTicks": 48,
          "midi": 52,
          "name": "E3",
          "ticks": 53832,
          "time": 197.91166575,
          "velocity": 1
        },
        {
          "duration": 0.17647049999999354,
          "durationTicks": 48,
          "midi": 57,
          "name": "A3",
          "ticks": 53832,
          "time": 197.91166575,
          "velocity": 1
        },
        {
          "duration": 0.17647050000002196,
          "durationTicks": 48,
          "midi": 45,
          "name": "A2",
          "ticks": 53880,
          "time": 198.08813625,
          "velocity": 1
        },
        {
          "duration": 1.2352934999999832,
          "durationTicks": 336,
          "midi": 45,
          "name": "A2",
          "ticks": 53928,
          "time": 198.26460675,
          "velocity": 1
        },
        {
          "duration": 0.17647049999999354,
          "durationTicks": 48,
          "midi": 38,
          "name": "D2",
          "ticks": 53928,
          "time": 198.26460675,
          "velocity": 1
        },
        {
          "duration": 0.17647049999999354,
          "durationTicks": 48,
          "midi": 50,
          "name": "D3",
          "ticks": 53928,
          "time": 198.26460675,
          "velocity": 1
        },
        {
          "duration": 0.17647049999999354,
          "durationTicks": 48,
          "midi": 38,
          "name": "D2",
          "ticks": 54000,
          "time": 198.5293125,
          "velocity": 1
        },
        {
          "duration": 0.17647049999999354,
          "durationTicks": 48,
          "midi": 50,
          "name": "D3",
          "ticks": 54000,
          "time": 198.5293125,
          "velocity": 1
        },
        {
          "duration": 0.17647050000002196,
          "durationTicks": 48,
          "midi": 38,
          "name": "D2",
          "ticks": 54072,
          "time": 198.79401825,
          "velocity": 1
        },
        {
          "duration": 0.17647050000002196,
          "durationTicks": 48,
          "midi": 50,
          "name": "D3",
          "ticks": 54072,
          "time": 198.79401825,
          "velocity": 1
        },
        {
          "duration": 0.17647049999999354,
          "durationTicks": 48,
          "midi": 41,
          "name": "F2",
          "ticks": 54120,
          "time": 198.97048875000002,
          "velocity": 1
        },
        {
          "duration": 0.17647049999999354,
          "durationTicks": 48,
          "midi": 53,
          "name": "F3",
          "ticks": 54120,
          "time": 198.97048875000002,
          "velocity": 1
        },
        {
          "duration": 0.17647049999999354,
          "durationTicks": 48,
          "midi": 38,
          "name": "D2",
          "ticks": 54168,
          "time": 199.14695925,
          "velocity": 1
        },
        {
          "duration": 0.17647049999999354,
          "durationTicks": 48,
          "midi": 50,
          "name": "D3",
          "ticks": 54168,
          "time": 199.14695925,
          "velocity": 1
        },
        {
          "duration": 0.17647049999999354,
          "durationTicks": 48,
          "midi": 41,
          "name": "F2",
          "ticks": 54216,
          "time": 199.32342975,
          "velocity": 1
        },
        {
          "duration": 0.17647049999999354,
          "durationTicks": 48,
          "midi": 53,
          "name": "F3",
          "ticks": 54216,
          "time": 199.32342975,
          "velocity": 1
        },
        {
          "duration": 0.17647049999999354,
          "durationTicks": 48,
          "midi": 45,
          "name": "A2",
          "ticks": 54264,
          "time": 199.49990025,
          "velocity": 1
        },
        {
          "duration": 0.17647049999999354,
          "durationTicks": 48,
          "midi": 57,
          "name": "A3",
          "ticks": 54264,
          "time": 199.49990025,
          "velocity": 1
        },
        {
          "duration": 0.7058820000000026,
          "durationTicks": 192,
          "midi": 51,
          "name": "D#3",
          "ticks": 54312,
          "time": 199.67637075,
          "velocity": 1
        },
        {
          "duration": 0.17647050000002196,
          "durationTicks": 48,
          "midi": 46,
          "name": "A#2",
          "ticks": 54312,
          "time": 199.67637075,
          "velocity": 1
        },
        {
          "duration": 0.17647050000002196,
          "durationTicks": 48,
          "midi": 58,
          "name": "A#3",
          "ticks": 54312,
          "time": 199.67637075,
          "velocity": 1
        },
        {
          "duration": 0.08823524999999677,
          "durationTicks": 24,
          "midi": 46,
          "name": "A#2",
          "ticks": 54384,
          "time": 199.9410765,
          "velocity": 1
        },
        {
          "duration": 0.08823524999999677,
          "durationTicks": 24,
          "midi": 58,
          "name": "A#3",
          "ticks": 54384,
          "time": 199.9410765,
          "velocity": 1
        },
        {
          "duration": 0.17647049999999354,
          "durationTicks": 48,
          "midi": 46,
          "name": "A#2",
          "ticks": 54456,
          "time": 200.20578225,
          "velocity": 1
        },
        {
          "duration": 0.17647049999999354,
          "durationTicks": 48,
          "midi": 58,
          "name": "A#3",
          "ticks": 54456,
          "time": 200.20578225,
          "velocity": 1
        },
        {
          "duration": 0.17647050000002196,
          "durationTicks": 48,
          "midi": 45,
          "name": "A2",
          "ticks": 54504,
          "time": 200.38225275,
          "velocity": 1
        },
        {
          "duration": 0.17647050000002196,
          "durationTicks": 48,
          "midi": 57,
          "name": "A3",
          "ticks": 54504,
          "time": 200.38225275,
          "velocity": 1
        },
        {
          "duration": 0.17647049999999354,
          "durationTicks": 48,
          "midi": 46,
          "name": "A#2",
          "ticks": 54552,
          "time": 200.55872325,
          "velocity": 1
        },
        {
          "duration": 0.17647049999999354,
          "durationTicks": 48,
          "midi": 58,
          "name": "A#3",
          "ticks": 54552,
          "time": 200.55872325,
          "velocity": 1
        },
        {
          "duration": 0.17647049999999354,
          "durationTicks": 48,
          "midi": 48,
          "name": "C3",
          "ticks": 54600,
          "time": 200.73519375,
          "velocity": 1
        },
        {
          "duration": 0.17647049999999354,
          "durationTicks": 48,
          "midi": 60,
          "name": "C4",
          "ticks": 54600,
          "time": 200.73519375,
          "velocity": 1
        },
        {
          "duration": 0.17647049999999354,
          "durationTicks": 48,
          "midi": 49,
          "name": "C#3",
          "ticks": 54648,
          "time": 200.91166425,
          "velocity": 1
        },
        {
          "duration": 0.17647049999999354,
          "durationTicks": 48,
          "midi": 61,
          "name": "C#4",
          "ticks": 54648,
          "time": 200.91166425,
          "velocity": 1
        },
        {
          "duration": 0.1727940312500209,
          "durationTicks": 47,
          "midi": 50,
          "name": "D3",
          "ticks": 54696,
          "time": 201.08813475,
          "velocity": 1
        },
        {
          "duration": 0.1727940312500209,
          "durationTicks": 47,
          "midi": 62,
          "name": "D4",
          "ticks": 54696,
          "time": 201.08813475,
          "velocity": 1
        }
      ],
      "endOfTrackTicks": 54907
    }
  ]
}
