{
  "header": {
    "keySignatures": [],
    "meta": [],
    "name": "",
    "ppq": 96,
    "tempos": [
      {
        "bpm": 201.999798000202,
        "ticks": 0
      }
    ],
    "timeSignatures": [
      {
        "ticks": 0,
        "timeSignature": [
          4,
          4
        ],
        "measures": 0
      }
    ]
  },
  "tracks": [
    {
      "channel": 0,
      "controlChanges": {},
      "pitchBends": [],
      "instrument": {
        "family": "piano",
        "number": 0,
        "name": "acoustic grand piano"
      },
      "name": "",
      "notes": [],
      "endOfTrackTicks": 0
    },
    {
      "channel": 0,
      "controlChanges": {
        "6": [
          {
            "number": 6,
            "ticks": 0,
            "time": 0,
            "value": 0.09448818897637795
          },
          {
            "number": 6,
            "ticks": 0,
            "time": 0,
            "value": 0.09448818897637795
          },
          {
            "number": 6,
            "ticks": 0,
            "time": 0,
            "value": 0.09448818897637795
          },
          {
            "number": 6,
            "ticks": 39936,
            "time": 123.56448,
            "value": 0.09448818897637795
          },
          {
            "number": 6,
            "ticks": 39938,
            "time": 123.570668125,
            "value": 0.09448818897637795
          }
        ],
        "7": [
          {
            "number": 7,
            "ticks": 0,
            "time": 0,
            "value": 0.7874015748031497
          },
          {
            "number": 7,
            "ticks": 0,
            "time": 0,
            "value": 0.7874015748031497
          },
          {
            "number": 7,
            "ticks": 0,
            "time": 0,
            "value": 0.7874015748031497
          },
          {
            "number": 7,
            "ticks": 0,
            "time": 0,
            "value": 0.7874015748031497
          },
          {
            "number": 7,
            "ticks": 39936,
            "time": 123.56448,
            "value": 0.7874015748031497
          },
          {
            "number": 7,
            "ticks": 39938,
            "time": 123.570668125,
            "value": 0.7874015748031497
          }
        ],
        "10": [
          {
            "number": 10,
            "ticks": 0,
            "time": 0,
            "value": 0.5039370078740157
          },
          {
            "number": 10,
            "ticks": 0,
            "time": 0,
            "value": 0.5039370078740157
          },
          {
            "number": 10,
            "ticks": 0,
            "time": 0,
            "value": 0.5039370078740157
          },
          {
            "number": 10,
            "ticks": 0,
            "time": 0,
            "value": 0.5039370078740157
          },
          {
            "number": 10,
            "ticks": 39936,
            "time": 123.56448,
            "value": 0.5039370078740157
          },
          {
            "number": 10,
            "ticks": 39938,
            "time": 123.570668125,
            "value": 0.5039370078740157
          }
        ],
        "100": [
          {
            "number": 100,
            "ticks": 0,
            "time": 0,
            "value": 0
          },
          {
            "number": 100,
            "ticks": 0,
            "time": 0,
            "value": 0
          },
          {
            "number": 100,
            "ticks": 0,
            "time": 0,
            "value": 0
          },
          {
            "number": 100,
            "ticks": 39936,
            "time": 123.56448,
            "value": 0
          },
          {
            "number": 100,
            "ticks": 39938,
            "time": 123.570668125,
            "value": 0
          }
        ],
        "101": [
          {
            "number": 101,
            "ticks": 0,
            "time": 0,
            "value": 0
          },
          {
            "number": 101,
            "ticks": 0,
            "time": 0,
            "value": 0
          },
          {
            "number": 101,
            "ticks": 0,
            "time": 0,
            "value": 0
          },
          {
            "number": 101,
            "ticks": 39936,
            "time": 123.56448,
            "value": 0
          },
          {
            "number": 101,
            "ticks": 39938,
            "time": 123.570668125,
            "value": 0
          }
        ]
      },
      "pitchBends": [
        {
          "ticks": 0,
          "time": 0,
          "value": 0
        },
        {
          "ticks": 0,
          "time": 0,
          "value": 0
        },
        {
          "ticks": 0,
          "time": 0,
          "value": 0
        },
        {
          "ticks": 0,
          "time": 0,
          "value": 0
        },
        {
          "ticks": 39936,
          "time": 123.56448,
          "value": 0
        },
        {
          "ticks": 39938,
          "time": 123.570668125,
          "value": 0
        }
      ],
      "instrument": {
        "family": "piano",
        "number": 0,
        "name": "acoustic grand piano"
      },
      "name": "Sampler",
      "notes": [],
      "endOfTrackTicks": 39938
    },
    {
      "channel": 1,
      "controlChanges": {
        "6": [
          {
            "number": 6,
            "ticks": 0,
            "time": 0,
            "value": 0.09448818897637795
          },
          {
            "number": 6,
            "ticks": 0,
            "time": 0,
            "value": 0.09448818897637795
          },
          {
            "number": 6,
            "ticks": 0,
            "time": 0,
            "value": 0.09448818897637795
          },
          {
            "number": 6,
            "ticks": 39936,
            "time": 123.56448,
            "value": 0.09448818897637795
          },
          {
            "number": 6,
            "ticks": 39938,
            "time": 123.570668125,
            "value": 0.09448818897637795
          }
        ],
        "7": [
          {
            "number": 7,
            "ticks": 0,
            "time": 0,
            "value": 0.7874015748031497
          },
          {
            "number": 7,
            "ticks": 0,
            "time": 0,
            "value": 0.7874015748031497
          },
          {
            "number": 7,
            "ticks": 0,
            "time": 0,
            "value": 0.7874015748031497
          },
          {
            "number": 7,
            "ticks": 0,
            "time": 0,
            "value": 0.7874015748031497
          },
          {
            "number": 7,
            "ticks": 39936,
            "time": 123.56448,
            "value": 0.7874015748031497
          },
          {
            "number": 7,
            "ticks": 39938,
            "time": 123.570668125,
            "value": 0.7874015748031497
          }
        ],
        "10": [
          {
            "number": 10,
            "ticks": 0,
            "time": 0,
            "value": 0.5039370078740157
          },
          {
            "number": 10,
            "ticks": 0,
            "time": 0,
            "value": 0.5039370078740157
          },
          {
            "number": 10,
            "ticks": 0,
            "time": 0,
            "value": 0.5039370078740157
          },
          {
            "number": 10,
            "ticks": 0,
            "time": 0,
            "value": 0.5039370078740157
          },
          {
            "number": 10,
            "ticks": 39936,
            "time": 123.56448,
            "value": 0.5039370078740157
          },
          {
            "number": 10,
            "ticks": 39938,
            "time": 123.570668125,
            "value": 0.5039370078740157
          }
        ],
        "100": [
          {
            "number": 100,
            "ticks": 0,
            "time": 0,
            "value": 0
          },
          {
            "number": 100,
            "ticks": 0,
            "time": 0,
            "value": 0
          },
          {
            "number": 100,
            "ticks": 0,
            "time": 0,
            "value": 0
          },
          {
            "number": 100,
            "ticks": 39936,
            "time": 123.56448,
            "value": 0
          },
          {
            "number": 100,
            "ticks": 39938,
            "time": 123.570668125,
            "value": 0
          }
        ],
        "101": [
          {
            "number": 101,
            "ticks": 0,
            "time": 0,
            "value": 0
          },
          {
            "number": 101,
            "ticks": 0,
            "time": 0,
            "value": 0
          },
          {
            "number": 101,
            "ticks": 0,
            "time": 0,
            "value": 0
          },
          {
            "number": 101,
            "ticks": 39936,
            "time": 123.56448,
            "value": 0
          },
          {
            "number": 101,
            "ticks": 39938,
            "time": 123.570668125,
            "value": 0
          }
        ]
      },
      "pitchBends": [
        {
          "ticks": 0,
          "time": 0,
          "value": 0
        },
        {
          "ticks": 0,
          "time": 0,
          "value": 0
        },
        {
          "ticks": 0,
          "time": 0,
          "value": 0
        },
        {
          "ticks": 0,
          "time": 0,
          "value": 0
        },
        {
          "ticks": 39936,
          "time": 123.56448,
          "value": 0
        },
        {
          "ticks": 39938,
          "time": 123.570668125,
          "value": 0
        }
      ],
      "instrument": {
        "family": "piano",
        "number": 0,
        "name": "acoustic grand piano"
      },
      "name": "Piano",
      "notes": [
        {
          "duration": 0.14851499999999995,
          "durationTicks": 48,
          "midi": 56,
          "name": "G#3",
          "ticks": 384,
          "time": 1.18812,
          "velocity": 0.84251968503937
        },
        {
          "duration": 0.14851499999999995,
          "durationTicks": 48,
          "midi": 52,
          "name": "E3",
          "ticks": 384,
          "time": 1.18812,
          "velocity": 0.84251968503937
        },
        {
          "duration": 0.14851499999999995,
          "durationTicks": 48,
          "midi": 59,
          "name": "B3",
          "ticks": 384,
          "time": 1.18812,
          "velocity": 0.9212598425196851
        },
        {
          "duration": 0.14851499999999995,
          "durationTicks": 48,
          "midi": 54,
          "name": "F#3",
          "ticks": 528,
          "time": 1.6336650000000001,
          "velocity": 0.84251968503937
        },
        {
          "duration": 0.14851499999999995,
          "durationTicks": 48,
          "midi": 58,
          "name": "A#3",
          "ticks": 528,
          "time": 1.6336650000000001,
          "velocity": 0.84251968503937
        },
        {
          "duration": 0.14851499999999995,
          "durationTicks": 48,
          "midi": 61,
          "name": "C#4",
          "ticks": 528,
          "time": 1.6336650000000001,
          "velocity": 0.9212598425196851
        },
        {
          "duration": 0.14851499999999973,
          "durationTicks": 48,
          "midi": 54,
          "name": "F#3",
          "ticks": 672,
          "time": 2.0792100000000002,
          "velocity": 0.84251968503937
        },
        {
          "duration": 0.14851499999999973,
          "durationTicks": 48,
          "midi": 59,
          "name": "B3",
          "ticks": 672,
          "time": 2.0792100000000002,
          "velocity": 0.84251968503937
        },
        {
          "duration": 0.14851499999999973,
          "durationTicks": 48,
          "midi": 56,
          "name": "G#3",
          "ticks": 672,
          "time": 2.0792100000000002,
          "velocity": 0.84251968503937
        },
        {
          "duration": 0.14851499999999973,
          "durationTicks": 48,
          "midi": 63,
          "name": "D#4",
          "ticks": 672,
          "time": 2.0792100000000002,
          "velocity": 0.9212598425196851
        },
        {
          "duration": 0.14851500000000017,
          "durationTicks": 48,
          "midi": 64,
          "name": "E4",
          "ticks": 1152,
          "time": 3.56436,
          "velocity": 0.9212598425196851
        },
        {
          "duration": 0.14851500000000017,
          "durationTicks": 48,
          "midi": 61,
          "name": "C#4",
          "ticks": 1152,
          "time": 3.56436,
          "velocity": 0.8346456692913385
        },
        {
          "duration": 0.14851500000000017,
          "durationTicks": 48,
          "midi": 56,
          "name": "G#3",
          "ticks": 1152,
          "time": 3.56436,
          "velocity": 0.8346456692913385
        },
        {
          "duration": 0.14851500000000062,
          "durationTicks": 48,
          "midi": 54,
          "name": "F#3",
          "ticks": 1296,
          "time": 4.009905,
          "velocity": 0.8346456692913385
        },
        {
          "duration": 0.14851500000000062,
          "durationTicks": 48,
          "midi": 58,
          "name": "A#3",
          "ticks": 1296,
          "time": 4.009905,
          "velocity": 0.8346456692913385
        },
        {
          "duration": 0.14851500000000062,
          "durationTicks": 48,
          "midi": 63,
          "name": "D#4",
          "ticks": 1296,
          "time": 4.009905,
          "velocity": 0.9212598425196851
        },
        {
          "duration": 0.14851500000000062,
          "durationTicks": 48,
          "midi": 63,
          "name": "D#4",
          "ticks": 1440,
          "time": 4.45545,
          "velocity": 0.8346456692913385
        },
        {
          "duration": 0.14851500000000062,
          "durationTicks": 48,
          "midi": 56,
          "name": "G#3",
          "ticks": 1440,
          "time": 4.45545,
          "velocity": 0.8346456692913385
        },
        {
          "duration": 0.14851500000000062,
          "durationTicks": 48,
          "midi": 59,
          "name": "B3",
          "ticks": 1440,
          "time": 4.45545,
          "velocity": 0.8346456692913385
        },
        {
          "duration": 0.14851500000000062,
          "durationTicks": 48,
          "midi": 66,
          "name": "F#4",
          "ticks": 1440,
          "time": 4.45545,
          "velocity": 0.9212598425196851
        },
        {
          "duration": 0.14851500000000062,
          "durationTicks": 48,
          "midi": 52,
          "name": "E3",
          "ticks": 1920,
          "time": 5.9406,
          "velocity": 0.8267716535433071
        },
        {
          "duration": 0.14851500000000062,
          "durationTicks": 48,
          "midi": 56,
          "name": "G#3",
          "ticks": 1920,
          "time": 5.9406,
          "velocity": 0.8267716535433071
        },
        {
          "duration": 0.14851500000000062,
          "durationTicks": 48,
          "midi": 59,
          "name": "B3",
          "ticks": 1920,
          "time": 5.9406,
          "velocity": 0.8267716535433071
        },
        {
          "duration": 0.14851500000000062,
          "durationTicks": 48,
          "midi": 68,
          "name": "G#4",
          "ticks": 1920,
          "time": 5.9406,
          "velocity": 0.9212598425196851
        },
        {
          "duration": 0.14851500000000062,
          "durationTicks": 48,
          "midi": 54,
          "name": "F#3",
          "ticks": 2064,
          "time": 6.386145,
          "velocity": 0.8267716535433071
        },
        {
          "duration": 0.14851500000000062,
          "durationTicks": 48,
          "midi": 58,
          "name": "A#3",
          "ticks": 2064,
          "time": 6.386145,
          "velocity": 0.8267716535433071
        },
        {
          "duration": 0.14851500000000062,
          "durationTicks": 48,
          "midi": 61,
          "name": "C#4",
          "ticks": 2064,
          "time": 6.386145,
          "velocity": 0.8267716535433071
        },
        {
          "duration": 0.14851500000000062,
          "durationTicks": 48,
          "midi": 66,
          "name": "F#4",
          "ticks": 2064,
          "time": 6.386145,
          "velocity": 0.9212598425196851
        },
        {
          "duration": 0.14851500000000062,
          "durationTicks": 48,
          "midi": 63,
          "name": "D#4",
          "ticks": 2208,
          "time": 6.83169,
          "velocity": 0.9212598425196851
        },
        {
          "duration": 0.14851500000000062,
          "durationTicks": 48,
          "midi": 59,
          "name": "B3",
          "ticks": 2208,
          "time": 6.83169,
          "velocity": 0.8267716535433071
        },
        {
          "duration": 0.14851500000000062,
          "durationTicks": 48,
          "midi": 56,
          "name": "G#3",
          "ticks": 2208,
          "time": 6.83169,
          "velocity": 0.8267716535433071
        },
        {
          "duration": 0.14851500000000062,
          "durationTicks": 48,
          "midi": 54,
          "name": "F#3",
          "ticks": 2208,
          "time": 6.83169,
          "velocity": 0.8267716535433071
        },
        {
          "duration": 0.14851499999999973,
          "durationTicks": 48,
          "midi": 64,
          "name": "E4",
          "ticks": 2688,
          "time": 8.316840000000001,
          "velocity": 0.9212598425196851
        },
        {
          "duration": 0.14851499999999973,
          "durationTicks": 48,
          "midi": 59,
          "name": "B3",
          "ticks": 2688,
          "time": 8.316840000000001,
          "velocity": 0.84251968503937
        },
        {
          "duration": 0.14851499999999973,
          "durationTicks": 48,
          "midi": 56,
          "name": "G#3",
          "ticks": 2688,
          "time": 8.316840000000001,
          "velocity": 0.84251968503937
        },
        {
          "duration": 0.14851499999999973,
          "durationTicks": 48,
          "midi": 54,
          "name": "F#3",
          "ticks": 2832,
          "time": 8.762385,
          "velocity": 0.84251968503937
        },
        {
          "duration": 0.14851499999999973,
          "durationTicks": 48,
          "midi": 58,
          "name": "A#3",
          "ticks": 2832,
          "time": 8.762385,
          "velocity": 0.84251968503937
        },
        {
          "duration": 0.14851499999999973,
          "durationTicks": 48,
          "midi": 63,
          "name": "D#4",
          "ticks": 2832,
          "time": 8.762385,
          "velocity": 0.9212598425196851
        },
        {
          "duration": 0.14851499999999973,
          "durationTicks": 48,
          "midi": 54,
          "name": "F#3",
          "ticks": 2976,
          "time": 9.207930000000001,
          "velocity": 0.84251968503937
        },
        {
          "duration": 0.14851499999999973,
          "durationTicks": 48,
          "midi": 51,
          "name": "D#3",
          "ticks": 2976,
          "time": 9.207930000000001,
          "velocity": 0.84251968503937
        },
        {
          "duration": 0.14851499999999973,
          "durationTicks": 48,
          "midi": 56,
          "name": "G#3",
          "ticks": 2976,
          "time": 9.207930000000001,
          "velocity": 0.9212598425196851
        },
        {
          "duration": 0.01237624999999909,
          "durationTicks": 4,
          "midi": 102,
          "name": "F#7",
          "ticks": 3360,
          "time": 10.39605,
          "velocity": 0.889763779527559
        },
        {
          "duration": 0.012376250000000866,
          "durationTicks": 4,
          "midi": 100,
          "name": "E7",
          "ticks": 3364,
          "time": 10.40842625,
          "velocity": 0.889763779527559
        },
        {
          "duration": 0.01547031249999975,
          "durationTicks": 5,
          "midi": 99,
          "name": "D#7",
          "ticks": 3368,
          "time": 10.4208025,
          "velocity": 0.8818897637795275
        },
        {
          "duration": 0.012376250000000866,
          "durationTicks": 4,
          "midi": 97,
          "name": "C#7",
          "ticks": 3373,
          "time": 10.4362728125,
          "velocity": 0.8818897637795275
        },
        {
          "duration": 0.01237624999999909,
          "durationTicks": 4,
          "midi": 95,
          "name": "B6",
          "ticks": 3377,
          "time": 10.448649062500001,
          "velocity": 0.8740157480314961
        },
        {
          "duration": 0.01237624999999909,
          "durationTicks": 4,
          "midi": 94,
          "name": "A#6",
          "ticks": 3381,
          "time": 10.4610253125,
          "velocity": 0.8740157480314961
        },
        {
          "duration": 0.015470312500001526,
          "durationTicks": 5,
          "midi": 92,
          "name": "G#6",
          "ticks": 3385,
          "time": 10.4734015625,
          "velocity": 0.8740157480314961
        },
        {
          "duration": 0.01237624999999909,
          "durationTicks": 4,
          "midi": 90,
          "name": "F#6",
          "ticks": 3390,
          "time": 10.488871875000001,
          "velocity": 0.8661417322834646
        },
        {
          "duration": 0.012376250000000866,
          "durationTicks": 4,
          "midi": 88,
          "name": "E6",
          "ticks": 3394,
          "time": 10.501248125,
          "velocity": 0.8661417322834646
        },
        {
          "duration": 0.01237624999999909,
          "durationTicks": 4,
          "midi": 87,
          "name": "D#6",
          "ticks": 3398,
          "time": 10.513624375000001,
          "velocity": 0.8582677165354331
        },
        {
          "duration": 0.01237624999999909,
          "durationTicks": 4,
          "midi": 85,
          "name": "C#6",
          "ticks": 3402,
          "time": 10.526000625,
          "velocity": 0.8582677165354331
        },
        {
          "duration": 0.015470312500001526,
          "durationTicks": 5,
          "midi": 83,
          "name": "B5",
          "ticks": 3406,
          "time": 10.538376874999999,
          "velocity": 0.8503937007874016
        },
        {
          "duration": 0.01237624999999909,
          "durationTicks": 4,
          "midi": 82,
          "name": "A#5",
          "ticks": 3411,
          "time": 10.5538471875,
          "velocity": 0.8503937007874016
        },
        {
          "duration": 0.012376250000000866,
          "durationTicks": 4,
          "midi": 80,
          "name": "G#5",
          "ticks": 3415,
          "time": 10.5662234375,
          "velocity": 0.8503937007874016
        },
        {
          "duration": 0.012376250000000866,
          "durationTicks": 4,
          "midi": 78,
          "name": "F#5",
          "ticks": 3419,
          "time": 10.5785996875,
          "velocity": 0.84251968503937
        },
        {
          "duration": 0.01547031249999975,
          "durationTicks": 5,
          "midi": 76,
          "name": "E5",
          "ticks": 3423,
          "time": 10.590975937500001,
          "velocity": 0.84251968503937
        },
        {
          "duration": 0.01237624999999909,
          "durationTicks": 4,
          "midi": 75,
          "name": "D#5",
          "ticks": 3428,
          "time": 10.606446250000001,
          "velocity": 0.8346456692913385
        },
        {
          "duration": 0.01237624999999909,
          "durationTicks": 4,
          "midi": 73,
          "name": "C#5",
          "ticks": 3432,
          "time": 10.6188225,
          "velocity": 0.8346456692913385
        },
        {
          "duration": 0.012376250000002642,
          "durationTicks": 4,
          "midi": 71,
          "name": "B4",
          "ticks": 3436,
          "time": 10.63119875,
          "velocity": 0.8346456692913385
        },
        {
          "duration": 0.015470312499997974,
          "durationTicks": 5,
          "midi": 70,
          "name": "A#4",
          "ticks": 3440,
          "time": 10.643575000000002,
          "velocity": 0.8267716535433071
        },
        {
          "duration": 0.012376250000000866,
          "durationTicks": 4,
          "midi": 68,
          "name": "G#4",
          "ticks": 3445,
          "time": 10.6590453125,
          "velocity": 0.8267716535433071
        },
        {
          "duration": 0.01237624999999909,
          "durationTicks": 4,
          "midi": 66,
          "name": "F#4",
          "ticks": 3449,
          "time": 10.6714215625,
          "velocity": 0.8188976377952756
        },
        {
          "duration": 0.07425749999999809,
          "durationTicks": 24,
          "midi": 84,
          "name": "C6",
          "ticks": 8400,
          "time": 25.990125000000003,
          "velocity": 0.8661417322834646
        },
        {
          "duration": 0.07425750000000164,
          "durationTicks": 24,
          "midi": 86,
          "name": "D6",
          "ticks": 8424,
          "time": 26.0643825,
          "velocity": 0.8661417322834646
        },
        {
          "duration": 0.14851499999999973,
          "durationTicks": 48,
          "midi": 87,
          "name": "D#6",
          "ticks": 8448,
          "time": 26.138640000000002,
          "velocity": 0.8661417322834646
        },
        {
          "duration": 0.14851499999999973,
          "durationTicks": 48,
          "midi": 86,
          "name": "D6",
          "ticks": 8496,
          "time": 26.287155000000002,
          "velocity": 0.8661417322834646
        },
        {
          "duration": 0.14851499999999973,
          "durationTicks": 48,
          "midi": 82,
          "name": "A#5",
          "ticks": 8544,
          "time": 26.435670000000002,
          "velocity": 0.8661417322834646
        },
        {
          "duration": 0.29702999999999946,
          "durationTicks": 96,
          "midi": 79,
          "name": "G5",
          "ticks": 8592,
          "time": 26.584185,
          "velocity": 0.8661417322834646
        },
        {
          "duration": 0.14851499999999973,
          "durationTicks": 48,
          "midi": 77,
          "name": "F5",
          "ticks": 8688,
          "time": 26.881215,
          "velocity": 0.8661417322834646
        },
        {
          "duration": 0.14851499999999973,
          "durationTicks": 48,
          "midi": 77,
          "name": "F5",
          "ticks": 8736,
          "time": 27.02973,
          "velocity": 0.8661417322834646
        },
        {
          "duration": 0.14851499999999973,
          "durationTicks": 48,
          "midi": 82,
          "name": "A#5",
          "ticks": 8784,
          "time": 27.178245,
          "velocity": 0.8661417322834646
        },
        {
          "duration": 0.14851500000000328,
          "durationTicks": 48,
          "midi": 74,
          "name": "D5",
          "ticks": 8880,
          "time": 27.475275,
          "velocity": 0.7952755905511811
        },
        {
          "duration": 0.14851499999999973,
          "durationTicks": 48,
          "midi": 77,
          "name": "F5",
          "ticks": 8976,
          "time": 27.772305000000003,
          "velocity": 0.7874015748031497
        },
        {
          "duration": 0.14851499999999973,
          "durationTicks": 48,
          "midi": 72,
          "name": "C5",
          "ticks": 9024,
          "time": 27.920820000000003,
          "velocity": 0.7795275590551181
        },
        {
          "duration": 0.14851499999999973,
          "durationTicks": 48,
          "midi": 75,
          "name": "D#5",
          "ticks": 9120,
          "time": 28.217850000000002,
          "velocity": 0.7716535433070866
        },
        {
          "duration": 0.14851499999999973,
          "durationTicks": 48,
          "midi": 67,
          "name": "G4",
          "ticks": 9168,
          "time": 28.366365000000002,
          "velocity": 0.7637795275590551
        },
        {
          "duration": 0.14851499999999973,
          "durationTicks": 48,
          "midi": 74,
          "name": "D5",
          "ticks": 9264,
          "time": 28.663395,
          "velocity": 0.7559055118110236
        },
        {
          "duration": 0.14851499999999973,
          "durationTicks": 48,
          "midi": 67,
          "name": "G4",
          "ticks": 9312,
          "time": 28.81191,
          "velocity": 0.7480314960629921
        },
        {
          "duration": 0.14851499999999973,
          "durationTicks": 48,
          "midi": 63,
          "name": "D#4",
          "ticks": 9360,
          "time": 28.960425,
          "velocity": 0.7401574803149606
        },
        {
          "duration": 0.14851499999999973,
          "durationTicks": 48,
          "midi": 72,
          "name": "C5",
          "ticks": 9408,
          "time": 29.10894,
          "velocity": 0.7401574803149606
        },
        {
          "duration": 0.14851500000000328,
          "durationTicks": 48,
          "midi": 70,
          "name": "A#4",
          "ticks": 9504,
          "time": 29.40597,
          "velocity": 0.7244094488188977
        },
        {
          "duration": 0.07425750000000164,
          "durationTicks": 24,
          "midi": 84,
          "name": "C6",
          "ticks": 11472,
          "time": 35.495085,
          "velocity": 0.8661417322834646
        },
        {
          "duration": 0.07425749999999454,
          "durationTicks": 24,
          "midi": 86,
          "name": "D6",
          "ticks": 11496,
          "time": 35.569342500000005,
          "velocity": 0.8661417322834646
        },
        {
          "duration": 0.14851500000000328,
          "durationTicks": 48,
          "midi": 87,
          "name": "D#6",
          "ticks": 11520,
          "time": 35.6436,
          "velocity": 0.8661417322834646
        },
        {
          "duration": 0.14851499999999618,
          "durationTicks": 48,
          "midi": 86,
          "name": "D6",
          "ticks": 11568,
          "time": 35.792115,
          "velocity": 0.8661417322834646
        },
        {
          "duration": 0.14851500000000328,
          "durationTicks": 48,
          "midi": 82,
          "name": "A#5",
          "ticks": 11616,
          "time": 35.94063,
          "velocity": 0.8661417322834646
        },
        {
          "duration": 0.29702999999999946,
          "durationTicks": 96,
          "midi": 79,
          "name": "G5",
          "ticks": 11664,
          "time": 36.089145,
          "velocity": 0.8661417322834646
        },
        {
          "duration": 0.14851500000000328,
          "durationTicks": 48,
          "midi": 77,
          "name": "F5",
          "ticks": 11760,
          "time": 36.386175,
          "velocity": 0.8661417322834646
        },
        {
          "duration": 0.14851499999999618,
          "durationTicks": 48,
          "midi": 77,
          "name": "F5",
          "ticks": 11808,
          "time": 36.534690000000005,
          "velocity": 0.8661417322834646
        },
        {
          "duration": 0.14851500000000328,
          "durationTicks": 48,
          "midi": 82,
          "name": "A#5",
          "ticks": 11856,
          "time": 36.683205,
          "velocity": 0.8661417322834646
        },
        {
          "duration": 0.07425750000000164,
          "durationTicks": 24,
          "midi": 65,
          "name": "F4",
          "ticks": 12312,
          "time": 38.094097500000004,
          "velocity": 0.84251968503937
        },
        {
          "duration": 0.07425749999999454,
          "durationTicks": 24,
          "midi": 67,
          "name": "G4",
          "ticks": 12336,
          "time": 38.168355000000005,
          "velocity": 0.8503937007874016
        },
        {
          "duration": 0.07425750000000164,
          "durationTicks": 24,
          "midi": 70,
          "name": "A#4",
          "ticks": 12360,
          "time": 38.2426125,
          "velocity": 0.8503937007874016
        },
        {
          "duration": 0.07425750000000164,
          "durationTicks": 24,
          "midi": 72,
          "name": "C5",
          "ticks": 12384,
          "time": 38.31687,
          "velocity": 0.8582677165354331
        },
        {
          "duration": 0.07425750000000164,
          "durationTicks": 24,
          "midi": 70,
          "name": "A#4",
          "ticks": 12408,
          "time": 38.3911275,
          "velocity": 0.8661417322834646
        },
        {
          "duration": 0.07425749999999454,
          "durationTicks": 24,
          "midi": 72,
          "name": "C5",
          "ticks": 12432,
          "time": 38.465385000000005,
          "velocity": 0.8661417322834646
        },
        {
          "duration": 0.07425750000000164,
          "durationTicks": 24,
          "midi": 74,
          "name": "D5",
          "ticks": 12456,
          "time": 38.5396425,
          "velocity": 0.8740157480314961
        },
        {
          "duration": 0.07425750000000164,
          "durationTicks": 24,
          "midi": 75,
          "name": "D#5",
          "ticks": 12480,
          "time": 38.6139,
          "velocity": 0.8740157480314961
        },
        {
          "duration": 0.07425750000000164,
          "durationTicks": 24,
          "midi": 74,
          "name": "D5",
          "ticks": 12504,
          "time": 38.6881575,
          "velocity": 0.8818897637795275
        },
        {
          "duration": 0.07425749999999454,
          "durationTicks": 24,
          "midi": 75,
          "name": "D#5",
          "ticks": 12528,
          "time": 38.762415000000004,
          "velocity": 0.889763779527559
        },
        {
          "duration": 0.07425750000000164,
          "durationTicks": 24,
          "midi": 77,
          "name": "F5",
          "ticks": 12552,
          "time": 38.8366725,
          "velocity": 0.889763779527559
        },
        {
          "duration": 0.07425750000000164,
          "durationTicks": 24,
          "midi": 79,
          "name": "G5",
          "ticks": 12576,
          "time": 38.91093,
          "velocity": 0.8976377952755905
        },
        {
          "duration": 0.07425750000000164,
          "durationTicks": 24,
          "midi": 77,
          "name": "F5",
          "ticks": 12600,
          "time": 38.9851875,
          "velocity": 0.8976377952755905
        },
        {
          "duration": 0.07425750000000164,
          "durationTicks": 24,
          "midi": 79,
          "name": "G5",
          "ticks": 12624,
          "time": 39.059445000000004,
          "velocity": 0.905511811023622
        },
        {
          "duration": 0.07425749999999454,
          "durationTicks": 24,
          "midi": 82,
          "name": "A#5",
          "ticks": 12648,
          "time": 39.133702500000005,
          "velocity": 0.9133858267716536
        },
        {
          "duration": 0.14851500000000328,
          "durationTicks": 48,
          "midi": 70,
          "name": "A#4",
          "ticks": 12672,
          "time": 39.20796,
          "velocity": 0.8661417322834646
        },
        {
          "duration": 0.14851499999999618,
          "durationTicks": 48,
          "midi": 72,
          "name": "C5",
          "ticks": 12720,
          "time": 39.356475,
          "velocity": 0.8661417322834646
        },
        {
          "duration": 0.14851500000000328,
          "durationTicks": 48,
          "midi": 75,
          "name": "D#5",
          "ticks": 12768,
          "time": 39.50499,
          "velocity": 0.8661417322834646
        },
        {
          "duration": 0.14851499999999618,
          "durationTicks": 48,
          "midi": 74,
          "name": "D5",
          "ticks": 12816,
          "time": 39.653505,
          "velocity": 0.8661417322834646
        },
        {
          "duration": 0.14851500000000328,
          "durationTicks": 48,
          "midi": 70,
          "name": "A#4",
          "ticks": 12864,
          "time": 39.80202,
          "velocity": 0.8661417322834646
        },
        {
          "duration": 0.14851500000000328,
          "durationTicks": 48,
          "midi": 67,
          "name": "G4",
          "ticks": 12912,
          "time": 39.950535,
          "velocity": 0.8661417322834646
        },
        {
          "duration": 0.14851499999999618,
          "durationTicks": 48,
          "midi": 60,
          "name": "C4",
          "ticks": 12960,
          "time": 40.099050000000005,
          "velocity": 0.8661417322834646
        },
        {
          "duration": 0.14851500000000328,
          "durationTicks": 48,
          "midi": 67,
          "name": "G4",
          "ticks": 13008,
          "time": 40.247565,
          "velocity": 0.8661417322834646
        },
        {
          "duration": 0.14851499999999618,
          "durationTicks": 48,
          "midi": 70,
          "name": "A#4",
          "ticks": 13056,
          "time": 40.396080000000005,
          "velocity": 0.8661417322834646
        },
        {
          "duration": 0.14851500000000328,
          "durationTicks": 48,
          "midi": 72,
          "name": "C5",
          "ticks": 13104,
          "time": 40.544595,
          "velocity": 0.8661417322834646
        },
        {
          "duration": 0.14851499999999618,
          "durationTicks": 48,
          "midi": 70,
          "name": "A#4",
          "ticks": 13152,
          "time": 40.693110000000004,
          "velocity": 0.8661417322834646
        },
        {
          "duration": 0.14851500000000328,
          "durationTicks": 48,
          "midi": 67,
          "name": "G4",
          "ticks": 13200,
          "time": 40.841625,
          "velocity": 0.8661417322834646
        },
        {
          "duration": 0.14851499999999618,
          "durationTicks": 48,
          "midi": 70,
          "name": "A#4",
          "ticks": 13440,
          "time": 41.5842,
          "velocity": 0.8661417322834646
        },
        {
          "duration": 0.14851500000000328,
          "durationTicks": 48,
          "midi": 72,
          "name": "C5",
          "ticks": 13488,
          "time": 41.732715,
          "velocity": 0.8661417322834646
        },
        {
          "duration": 0.14851500000000328,
          "durationTicks": 48,
          "midi": 75,
          "name": "D#5",
          "ticks": 13536,
          "time": 41.88123,
          "velocity": 0.8661417322834646
        },
        {
          "duration": 0.14851499999999618,
          "durationTicks": 48,
          "midi": 74,
          "name": "D5",
          "ticks": 13584,
          "time": 42.029745000000005,
          "velocity": 0.8661417322834646
        },
        {
          "duration": 0.14851500000000328,
          "durationTicks": 48,
          "midi": 70,
          "name": "A#4",
          "ticks": 13632,
          "time": 42.17826,
          "velocity": 0.8661417322834646
        },
        {
          "duration": 0.14851499999999618,
          "durationTicks": 48,
          "midi": 67,
          "name": "G4",
          "ticks": 13680,
          "time": 42.326775000000005,
          "velocity": 0.8661417322834646
        },
        {
          "duration": 0.14851500000000328,
          "durationTicks": 48,
          "midi": 60,
          "name": "C4",
          "ticks": 13728,
          "time": 42.47529,
          "velocity": 0.8661417322834646
        },
        {
          "duration": 0.14851499999999618,
          "durationTicks": 48,
          "midi": 67,
          "name": "G4",
          "ticks": 13776,
          "time": 42.623805000000004,
          "velocity": 0.8661417322834646
        },
        {
          "duration": 0.14851500000000328,
          "durationTicks": 48,
          "midi": 70,
          "name": "A#4",
          "ticks": 13824,
          "time": 42.77232,
          "velocity": 0.8661417322834646
        },
        {
          "duration": 0.14851499999999618,
          "durationTicks": 48,
          "midi": 72,
          "name": "C5",
          "ticks": 13872,
          "time": 42.920835000000004,
          "velocity": 0.8661417322834646
        },
        {
          "duration": 0.14851500000000328,
          "durationTicks": 48,
          "midi": 70,
          "name": "A#4",
          "ticks": 13920,
          "time": 43.06935,
          "velocity": 0.8661417322834646
        },
        {
          "duration": 0.14851499999999618,
          "durationTicks": 48,
          "midi": 67,
          "name": "G4",
          "ticks": 13968,
          "time": 43.217865,
          "velocity": 0.8661417322834646
        },
        {
          "duration": 0.14851500000000328,
          "durationTicks": 48,
          "midi": 75,
          "name": "D#5",
          "ticks": 14016,
          "time": 43.36638,
          "velocity": 0.8661417322834646
        },
        {
          "duration": 0.14851499999999618,
          "durationTicks": 48,
          "midi": 74,
          "name": "D5",
          "ticks": 14064,
          "time": 43.514895,
          "velocity": 0.8661417322834646
        },
        {
          "duration": 0.14851499999999618,
          "durationTicks": 48,
          "midi": 70,
          "name": "A#4",
          "ticks": 14208,
          "time": 43.960440000000006,
          "velocity": 0.8661417322834646
        },
        {
          "duration": 0.14851500000000328,
          "durationTicks": 48,
          "midi": 72,
          "name": "C5",
          "ticks": 14256,
          "time": 44.108955,
          "velocity": 0.8661417322834646
        },
        {
          "duration": 0.14851499999999618,
          "durationTicks": 48,
          "midi": 75,
          "name": "D#5",
          "ticks": 14304,
          "time": 44.257470000000005,
          "velocity": 0.8661417322834646
        },
        {
          "duration": 0.14851500000000328,
          "durationTicks": 48,
          "midi": 74,
          "name": "D5",
          "ticks": 14352,
          "time": 44.405985,
          "velocity": 0.8661417322834646
        },
        {
          "duration": 0.14851499999999618,
          "durationTicks": 48,
          "midi": 70,
          "name": "A#4",
          "ticks": 14400,
          "time": 44.554500000000004,
          "velocity": 0.8661417322834646
        },
        {
          "duration": 0.14851500000000328,
          "durationTicks": 48,
          "midi": 67,
          "name": "G4",
          "ticks": 14448,
          "time": 44.703015,
          "velocity": 0.8661417322834646
        },
        {
          "duration": 0.14851499999999618,
          "durationTicks": 48,
          "midi": 60,
          "name": "C4",
          "ticks": 14496,
          "time": 44.851530000000004,
          "velocity": 0.8661417322834646
        },
        {
          "duration": 0.14851500000000328,
          "durationTicks": 48,
          "midi": 67,
          "name": "G4",
          "ticks": 14544,
          "time": 45.000045,
          "velocity": 0.8661417322834646
        },
        {
          "duration": 0.14851499999999618,
          "durationTicks": 48,
          "midi": 70,
          "name": "A#4",
          "ticks": 14592,
          "time": 45.14856,
          "velocity": 0.8661417322834646
        },
        {
          "duration": 0.14851500000000328,
          "durationTicks": 48,
          "midi": 72,
          "name": "C5",
          "ticks": 14640,
          "time": 45.297075,
          "velocity": 0.8661417322834646
        },
        {
          "duration": 0.14851499999999618,
          "durationTicks": 48,
          "midi": 70,
          "name": "A#4",
          "ticks": 14688,
          "time": 45.44559,
          "velocity": 0.8661417322834646
        },
        {
          "duration": 0.14851500000000328,
          "durationTicks": 48,
          "midi": 67,
          "name": "G4",
          "ticks": 14736,
          "time": 45.594105,
          "velocity": 0.8661417322834646
        },
        {
          "duration": 0.14851500000000328,
          "durationTicks": 48,
          "midi": 70,
          "name": "A#4",
          "ticks": 14976,
          "time": 46.33668,
          "velocity": 0.8661417322834646
        },
        {
          "duration": 0.14851499999999618,
          "durationTicks": 48,
          "midi": 72,
          "name": "C5",
          "ticks": 15024,
          "time": 46.485195000000004,
          "velocity": 0.8661417322834646
        },
        {
          "duration": 0.14851500000000328,
          "durationTicks": 48,
          "midi": 75,
          "name": "D#5",
          "ticks": 15072,
          "time": 46.63371,
          "velocity": 0.8661417322834646
        },
        {
          "duration": 0.14851499999999618,
          "durationTicks": 48,
          "midi": 74,
          "name": "D5",
          "ticks": 15120,
          "time": 46.782225000000004,
          "velocity": 0.8661417322834646
        },
        {
          "duration": 0.14851500000000328,
          "durationTicks": 48,
          "midi": 70,
          "name": "A#4",
          "ticks": 15168,
          "time": 46.93074,
          "velocity": 0.8661417322834646
        },
        {
          "duration": 0.14851499999999618,
          "durationTicks": 48,
          "midi": 67,
          "name": "G4",
          "ticks": 15216,
          "time": 47.079255,
          "velocity": 0.8661417322834646
        },
        {
          "duration": 0.14851500000000328,
          "durationTicks": 48,
          "midi": 60,
          "name": "C4",
          "ticks": 15264,
          "time": 47.22777,
          "velocity": 0.8661417322834646
        },
        {
          "duration": 0.14851499999999618,
          "durationTicks": 48,
          "midi": 67,
          "name": "G4",
          "ticks": 15312,
          "time": 47.376285,
          "velocity": 0.8661417322834646
        },
        {
          "duration": 0.14851500000000328,
          "durationTicks": 48,
          "midi": 72,
          "name": "C5",
          "ticks": 15360,
          "time": 47.5248,
          "velocity": 0.8661417322834646
        },
        {
          "duration": 0.14851500000000328,
          "durationTicks": 48,
          "midi": 75,
          "name": "D#5",
          "ticks": 15408,
          "time": 47.673315,
          "velocity": 0.8661417322834646
        },
        {
          "duration": 0.14851499999999618,
          "durationTicks": 48,
          "midi": 77,
          "name": "F5",
          "ticks": 15456,
          "time": 47.821830000000006,
          "velocity": 0.8661417322834646
        },
        {
          "duration": 0.14851500000000328,
          "durationTicks": 48,
          "midi": 82,
          "name": "A#5",
          "ticks": 15504,
          "time": 47.970345,
          "velocity": 0.8661417322834646
        },
        {
          "duration": 0.14851499999999618,
          "durationTicks": 48,
          "midi": 70,
          "name": "A#4",
          "ticks": 15744,
          "time": 48.712920000000004,
          "velocity": 0.8661417322834646
        },
        {
          "duration": 0.14851500000000328,
          "durationTicks": 48,
          "midi": 72,
          "name": "C5",
          "ticks": 15792,
          "time": 48.861435,
          "velocity": 0.8661417322834646
        },
        {
          "duration": 0.14851499999999618,
          "durationTicks": 48,
          "midi": 75,
          "name": "D#5",
          "ticks": 15840,
          "time": 49.00995,
          "velocity": 0.8661417322834646
        },
        {
          "duration": 0.14851500000000328,
          "durationTicks": 48,
          "midi": 74,
          "name": "D5",
          "ticks": 15888,
          "time": 49.158465,
          "velocity": 0.8661417322834646
        },
        {
          "duration": 0.14851500000000328,
          "durationTicks": 48,
          "midi": 70,
          "name": "A#4",
          "ticks": 15936,
          "time": 49.30698,
          "velocity": 0.8661417322834646
        },
        {
          "duration": 0.14851499999999618,
          "durationTicks": 48,
          "midi": 67,
          "name": "G4",
          "ticks": 15984,
          "time": 49.455495000000006,
          "velocity": 0.8661417322834646
        },
        {
          "duration": 0.14851500000000328,
          "durationTicks": 48,
          "midi": 60,
          "name": "C4",
          "ticks": 16032,
          "time": 49.60401,
          "velocity": 0.8661417322834646
        },
        {
          "duration": 0.14851499999999618,
          "durationTicks": 48,
          "midi": 67,
          "name": "G4",
          "ticks": 16080,
          "time": 49.752525000000006,
          "velocity": 0.8661417322834646
        },
        {
          "duration": 0.14851500000000328,
          "durationTicks": 48,
          "midi": 70,
          "name": "A#4",
          "ticks": 16128,
          "time": 49.90104,
          "velocity": 0.8661417322834646
        },
        {
          "duration": 0.14851499999999618,
          "durationTicks": 48,
          "midi": 72,
          "name": "C5",
          "ticks": 16176,
          "time": 50.049555000000005,
          "velocity": 0.8661417322834646
        },
        {
          "duration": 0.14851500000000328,
          "durationTicks": 48,
          "midi": 70,
          "name": "A#4",
          "ticks": 16224,
          "time": 50.19807,
          "velocity": 0.8661417322834646
        },
        {
          "duration": 0.14851499999999618,
          "durationTicks": 48,
          "midi": 67,
          "name": "G4",
          "ticks": 16272,
          "time": 50.346585000000005,
          "velocity": 0.8661417322834646
        },
        {
          "duration": 0.14851500000000328,
          "durationTicks": 48,
          "midi": 70,
          "name": "A#4",
          "ticks": 16512,
          "time": 51.08916,
          "velocity": 0.8661417322834646
        },
        {
          "duration": 0.14851500000000328,
          "durationTicks": 48,
          "midi": 72,
          "name": "C5",
          "ticks": 16560,
          "time": 51.237675,
          "velocity": 0.8661417322834646
        },
        {
          "duration": 0.14851499999999618,
          "durationTicks": 48,
          "midi": 75,
          "name": "D#5",
          "ticks": 16608,
          "time": 51.386190000000006,
          "velocity": 0.8661417322834646
        },
        {
          "duration": 0.14851500000000328,
          "durationTicks": 48,
          "midi": 74,
          "name": "D5",
          "ticks": 16656,
          "time": 51.534705,
          "velocity": 0.8661417322834646
        },
        {
          "duration": 0.14851499999999618,
          "durationTicks": 48,
          "midi": 70,
          "name": "A#4",
          "ticks": 16704,
          "time": 51.683220000000006,
          "velocity": 0.8661417322834646
        },
        {
          "duration": 0.14851500000000328,
          "durationTicks": 48,
          "midi": 67,
          "name": "G4",
          "ticks": 16752,
          "time": 51.831735,
          "velocity": 0.8661417322834646
        },
        {
          "duration": 0.14851499999999618,
          "durationTicks": 48,
          "midi": 60,
          "name": "C4",
          "ticks": 16800,
          "time": 51.980250000000005,
          "velocity": 0.8661417322834646
        },
        {
          "duration": 0.14851500000000328,
          "durationTicks": 48,
          "midi": 67,
          "name": "G4",
          "ticks": 16848,
          "time": 52.128765,
          "velocity": 0.8661417322834646
        },
        {
          "duration": 0.14851499999999618,
          "durationTicks": 48,
          "midi": 70,
          "name": "A#4",
          "ticks": 16896,
          "time": 52.277280000000005,
          "velocity": 0.8661417322834646
        },
        {
          "duration": 0.14851500000000328,
          "durationTicks": 48,
          "midi": 72,
          "name": "C5",
          "ticks": 16944,
          "time": 52.425795,
          "velocity": 0.8661417322834646
        },
        {
          "duration": 0.14851499999999618,
          "durationTicks": 48,
          "midi": 70,
          "name": "A#4",
          "ticks": 16992,
          "time": 52.574310000000004,
          "velocity": 0.8661417322834646
        },
        {
          "duration": 0.14851500000000328,
          "durationTicks": 48,
          "midi": 67,
          "name": "G4",
          "ticks": 17040,
          "time": 52.722825,
          "velocity": 0.8661417322834646
        },
        {
          "duration": 0.14851499999999618,
          "durationTicks": 48,
          "midi": 75,
          "name": "D#5",
          "ticks": 17088,
          "time": 52.871340000000004,
          "velocity": 0.8661417322834646
        },
        {
          "duration": 0.14851500000000328,
          "durationTicks": 48,
          "midi": 74,
          "name": "D5",
          "ticks": 17136,
          "time": 53.019855,
          "velocity": 0.8661417322834646
        },
        {
          "duration": 0.14851500000000328,
          "durationTicks": 48,
          "midi": 77,
          "name": "F5",
          "ticks": 17184,
          "time": 53.16837,
          "velocity": 0.8661417322834646
        },
        {
          "duration": 0.14851499999999618,
          "durationTicks": 48,
          "midi": 74,
          "name": "D5",
          "ticks": 17232,
          "time": 53.316885000000006,
          "velocity": 0.8661417322834646
        },
        {
          "duration": 0.14851500000000328,
          "durationTicks": 48,
          "midi": 71,
          "name": "B4",
          "ticks": 17280,
          "time": 53.4654,
          "velocity": 0.8661417322834646
        },
        {
          "duration": 0.14851499999999618,
          "durationTicks": 48,
          "midi": 73,
          "name": "C#5",
          "ticks": 17328,
          "time": 53.613915000000006,
          "velocity": 0.8661417322834646
        },
        {
          "duration": 0.14851500000000328,
          "durationTicks": 48,
          "midi": 76,
          "name": "E5",
          "ticks": 17376,
          "time": 53.76243,
          "velocity": 0.8661417322834646
        },
        {
          "duration": 0.14851499999999618,
          "durationTicks": 48,
          "midi": 75,
          "name": "D#5",
          "ticks": 17424,
          "time": 53.910945000000005,
          "velocity": 0.8661417322834646
        },
        {
          "duration": 0.14851500000000328,
          "durationTicks": 48,
          "midi": 71,
          "name": "B4",
          "ticks": 17472,
          "time": 54.05946,
          "velocity": 0.8661417322834646
        },
        {
          "duration": 0.14851499999999618,
          "durationTicks": 48,
          "midi": 68,
          "name": "G#4",
          "ticks": 17520,
          "time": 54.207975000000005,
          "velocity": 0.8661417322834646
        },
        {
          "duration": 0.14851500000000328,
          "durationTicks": 48,
          "midi": 61,
          "name": "C#4",
          "ticks": 17568,
          "time": 54.35649,
          "velocity": 0.8661417322834646
        },
        {
          "duration": 0.14851499999999618,
          "durationTicks": 48,
          "midi": 68,
          "name": "G#4",
          "ticks": 17616,
          "time": 54.505005000000004,
          "velocity": 0.8661417322834646
        },
        {
          "duration": 0.14851500000000328,
          "durationTicks": 48,
          "midi": 71,
          "name": "B4",
          "ticks": 17664,
          "time": 54.65352,
          "velocity": 0.8661417322834646
        },
        {
          "duration": 0.14851499999999618,
          "durationTicks": 48,
          "midi": 73,
          "name": "C#5",
          "ticks": 17712,
          "time": 54.802035000000004,
          "velocity": 0.8661417322834646
        },
        {
          "duration": 0.14851500000000328,
          "durationTicks": 48,
          "midi": 71,
          "name": "B4",
          "ticks": 17760,
          "time": 54.95055,
          "velocity": 0.8661417322834646
        },
        {
          "duration": 0.14851500000000328,
          "durationTicks": 48,
          "midi": 68,
          "name": "G#4",
          "ticks": 17808,
          "time": 55.099065,
          "velocity": 0.8661417322834646
        },
        {
          "duration": 0.14851499999999618,
          "durationTicks": 48,
          "midi": 71,
          "name": "B4",
          "ticks": 18048,
          "time": 55.841640000000005,
          "velocity": 0.8661417322834646
        },
        {
          "duration": 0.14851500000000328,
          "durationTicks": 48,
          "midi": 73,
          "name": "C#5",
          "ticks": 18096,
          "time": 55.990155,
          "velocity": 0.8661417322834646
        },
        {
          "duration": 0.14851499999999618,
          "durationTicks": 48,
          "midi": 76,
          "name": "E5",
          "ticks": 18144,
          "time": 56.138670000000005,
          "velocity": 0.8661417322834646
        },
        {
          "duration": 0.14851500000000328,
          "durationTicks": 48,
          "midi": 75,
          "name": "D#5",
          "ticks": 18192,
          "time": 56.287185,
          "velocity": 0.8661417322834646
        },
        {
          "duration": 0.14851499999999618,
          "durationTicks": 48,
          "midi": 71,
          "name": "B4",
          "ticks": 18240,
          "time": 56.435700000000004,
          "velocity": 0.8661417322834646
        },
        {
          "duration": 0.14851500000000328,
          "durationTicks": 48,
          "midi": 68,
          "name": "G#4",
          "ticks": 18288,
          "time": 56.584215,
          "velocity": 0.8661417322834646
        },
        {
          "duration": 0.14851499999999618,
          "durationTicks": 48,
          "midi": 61,
          "name": "C#4",
          "ticks": 18336,
          "time": 56.732730000000004,
          "velocity": 0.8976377952755905
        },
        {
          "duration": 0.14851500000000328,
          "durationTicks": 48,
          "midi": 73,
          "name": "C#5",
          "ticks": 18384,
          "time": 56.881245,
          "velocity": 0.8976377952755905
        },
        {
          "duration": 0.07425749999999454,
          "durationTicks": 24,
          "midi": 73,
          "name": "C#5",
          "ticks": 18480,
          "time": 57.178275000000006,
          "velocity": 0.8976377952755905
        },
        {
          "duration": 0.07425750000000164,
          "durationTicks": 24,
          "midi": 73,
          "name": "C#5",
          "ticks": 18528,
          "time": 57.32679,
          "velocity": 0.8976377952755905
        },
        {
          "duration": 0.07425749999999454,
          "durationTicks": 24,
          "midi": 73,
          "name": "C#5",
          "ticks": 18576,
          "time": 57.475305000000006,
          "velocity": 0.8976377952755905
        },
        {
          "duration": 0.03712875000000082,
          "durationTicks": 12,
          "midi": 73,
          "name": "C#5",
          "ticks": 18624,
          "time": 57.62382,
          "velocity": 0.8976377952755905
        },
        {
          "duration": 0.03712875000000082,
          "durationTicks": 12,
          "midi": 73,
          "name": "C#5",
          "ticks": 18648,
          "time": 57.698077500000004,
          "velocity": 0.8976377952755905
        },
        {
          "duration": 0.07425749999999454,
          "durationTicks": 24,
          "midi": 73,
          "name": "C#5",
          "ticks": 18672,
          "time": 57.772335000000005,
          "velocity": 0.8976377952755905
        },
        {
          "duration": 0.012376249999995537,
          "durationTicks": 4,
          "midi": 102,
          "name": "F#7",
          "ticks": 18720,
          "time": 57.92085,
          "velocity": 0.889763779527559
        },
        {
          "duration": 0.012376250000009748,
          "durationTicks": 4,
          "midi": 100,
          "name": "E7",
          "ticks": 18724,
          "time": 57.93322625,
          "velocity": 0.889763779527559
        },
        {
          "duration": 0.015470312499992644,
          "durationTicks": 5,
          "midi": 99,
          "name": "D#7",
          "ticks": 18728,
          "time": 57.94560250000001,
          "velocity": 0.8818897637795275
        },
        {
          "duration": 0.012376250000009748,
          "durationTicks": 4,
          "midi": 97,
          "name": "C#7",
          "ticks": 18733,
          "time": 57.9610728125,
          "velocity": 0.8818897637795275
        },
        {
          "duration": 0.012376249999995537,
          "durationTicks": 4,
          "midi": 95,
          "name": "B6",
          "ticks": 18737,
          "time": 57.97344906250001,
          "velocity": 0.8740157480314961
        },
        {
          "duration": 0.012376249999995537,
          "durationTicks": 4,
          "midi": 94,
          "name": "A#6",
          "ticks": 18741,
          "time": 57.985825312500005,
          "velocity": 0.8740157480314961
        },
        {
          "duration": 0.01547031249999975,
          "durationTicks": 5,
          "midi": 92,
          "name": "G#6",
          "ticks": 18745,
          "time": 57.9982015625,
          "velocity": 0.8740157480314961
        },
        {
          "duration": 0.012376250000002642,
          "durationTicks": 4,
          "midi": 90,
          "name": "F#6",
          "ticks": 18750,
          "time": 58.013671875,
          "velocity": 0.8661417322834646
        },
        {
          "duration": 0.012376250000002642,
          "durationTicks": 4,
          "midi": 88,
          "name": "E6",
          "ticks": 18754,
          "time": 58.026048125,
          "velocity": 0.8661417322834646
        },
        {
          "duration": 0.012376249999995537,
          "durationTicks": 4,
          "midi": 87,
          "name": "D#6",
          "ticks": 18758,
          "time": 58.038424375000005,
          "velocity": 0.8582677165354331
        },
        {
          "duration": 0.012376250000002642,
          "durationTicks": 4,
          "midi": 85,
          "name": "C#6",
          "ticks": 18762,
          "time": 58.050800625,
          "velocity": 0.8582677165354331
        },
        {
          "duration": 0.01547031249999975,
          "durationTicks": 5,
          "midi": 83,
          "name": "B5",
          "ticks": 18766,
          "time": 58.063176875,
          "velocity": 0.8503937007874016
        },
        {
          "duration": 0.012376249999995537,
          "durationTicks": 4,
          "midi": 82,
          "name": "A#5",
          "ticks": 18771,
          "time": 58.0786471875,
          "velocity": 0.8503937007874016
        },
        {
          "duration": 0.012376250000009748,
          "durationTicks": 4,
          "midi": 80,
          "name": "G#5",
          "ticks": 18775,
          "time": 58.0910234375,
          "velocity": 0.8503937007874016
        },
        {
          "duration": 0.012376249999995537,
          "durationTicks": 4,
          "midi": 78,
          "name": "F#5",
          "ticks": 18779,
          "time": 58.10339968750001,
          "velocity": 0.84251968503937
        },
        {
          "duration": 0.01547031249999975,
          "durationTicks": 5,
          "midi": 76,
          "name": "E5",
          "ticks": 18783,
          "time": 58.115775937500004,
          "velocity": 0.84251968503937
        },
        {
          "duration": 0.012376250000002642,
          "durationTicks": 4,
          "midi": 75,
          "name": "D#5",
          "ticks": 18788,
          "time": 58.131246250000004,
          "velocity": 0.8346456692913385
        },
        {
          "duration": 0.012376249999995537,
          "durationTicks": 4,
          "midi": 73,
          "name": "C#5",
          "ticks": 18792,
          "time": 58.143622500000006,
          "velocity": 0.8346456692913385
        },
        {
          "duration": 0.012376250000002642,
          "durationTicks": 4,
          "midi": 71,
          "name": "B4",
          "ticks": 18796,
          "time": 58.15599875,
          "velocity": 0.8346456692913385
        },
        {
          "duration": 0.015470312499992644,
          "durationTicks": 5,
          "midi": 70,
          "name": "A#4",
          "ticks": 18800,
          "time": 58.168375000000005,
          "velocity": 0.8267716535433071
        },
        {
          "duration": 0.012376250000009748,
          "durationTicks": 4,
          "midi": 68,
          "name": "G#4",
          "ticks": 18805,
          "time": 58.1838453125,
          "velocity": 0.8267716535433071
        },
        {
          "duration": 0.012376249999995537,
          "durationTicks": 4,
          "midi": 66,
          "name": "F#4",
          "ticks": 18809,
          "time": 58.19622156250001,
          "velocity": 0.8188976377952756
        },
        {
          "duration": 0.012376250000002642,
          "durationTicks": 4,
          "midi": 102,
          "name": "F#7",
          "ticks": 27936,
          "time": 86.43573,
          "velocity": 0.889763779527559
        },
        {
          "duration": 0.012376249999988431,
          "durationTicks": 4,
          "midi": 100,
          "name": "E7",
          "ticks": 27940,
          "time": 86.44810625000001,
          "velocity": 0.889763779527559
        },
        {
          "duration": 0.01547031250001396,
          "durationTicks": 5,
          "midi": 99,
          "name": "D#7",
          "ticks": 27944,
          "time": 86.4604825,
          "velocity": 0.8818897637795275
        },
        {
          "duration": 0.012376249999988431,
          "durationTicks": 4,
          "midi": 97,
          "name": "C#7",
          "ticks": 27949,
          "time": 86.47595281250001,
          "velocity": 0.8818897637795275
        },
        {
          "duration": 0.012376250000002642,
          "durationTicks": 4,
          "midi": 95,
          "name": "B6",
          "ticks": 27953,
          "time": 86.4883290625,
          "velocity": 0.8740157480314961
        },
        {
          "duration": 0.012376250000002642,
          "durationTicks": 4,
          "midi": 94,
          "name": "A#6",
          "ticks": 27957,
          "time": 86.5007053125,
          "velocity": 0.8740157480314961
        },
        {
          "duration": 0.01547031249999975,
          "durationTicks": 5,
          "midi": 92,
          "name": "G#6",
          "ticks": 27961,
          "time": 86.5130815625,
          "velocity": 0.8740157480314961
        },
        {
          "duration": 0.012376250000002642,
          "durationTicks": 4,
          "midi": 90,
          "name": "F#6",
          "ticks": 27966,
          "time": 86.528551875,
          "velocity": 0.8661417322834646
        },
        {
          "duration": 0.012376249999988431,
          "durationTicks": 4,
          "midi": 88,
          "name": "E6",
          "ticks": 27970,
          "time": 86.54092812500001,
          "velocity": 0.8661417322834646
        },
        {
          "duration": 0.012376250000002642,
          "durationTicks": 4,
          "midi": 87,
          "name": "D#6",
          "ticks": 27974,
          "time": 86.553304375,
          "velocity": 0.8582677165354331
        },
        {
          "duration": 0.012376250000016853,
          "durationTicks": 4,
          "midi": 85,
          "name": "C#6",
          "ticks": 27978,
          "time": 86.565680625,
          "velocity": 0.8582677165354331
        },
        {
          "duration": 0.015470312499985539,
          "durationTicks": 5,
          "midi": 83,
          "name": "B5",
          "ticks": 27982,
          "time": 86.57805687500002,
          "velocity": 0.8503937007874016
        },
        {
          "duration": 0.012376250000002642,
          "durationTicks": 4,
          "midi": 82,
          "name": "A#5",
          "ticks": 27987,
          "time": 86.5935271875,
          "velocity": 0.8503937007874016
        },
        {
          "duration": 0.012376249999988431,
          "durationTicks": 4,
          "midi": 80,
          "name": "G#5",
          "ticks": 27991,
          "time": 86.6059034375,
          "velocity": 0.8503937007874016
        },
        {
          "duration": 0.012376250000016853,
          "durationTicks": 4,
          "midi": 78,
          "name": "F#5",
          "ticks": 27995,
          "time": 86.61827968749999,
          "velocity": 0.84251968503937
        },
        {
          "duration": 0.015470312499985539,
          "durationTicks": 5,
          "midi": 76,
          "name": "E5",
          "ticks": 27999,
          "time": 86.63065593750001,
          "velocity": 0.84251968503937
        },
        {
          "duration": 0.012376250000016853,
          "durationTicks": 4,
          "midi": 75,
          "name": "D#5",
          "ticks": 28004,
          "time": 86.64612625,
          "velocity": 0.8346456692913385
        },
        {
          "duration": 0.012376250000002642,
          "durationTicks": 4,
          "midi": 73,
          "name": "C#5",
          "ticks": 28008,
          "time": 86.65850250000001,
          "velocity": 0.8346456692913385
        },
        {
          "duration": 0.012376249999988431,
          "durationTicks": 4,
          "midi": 71,
          "name": "B4",
          "ticks": 28012,
          "time": 86.67087875000001,
          "velocity": 0.8346456692913385
        },
        {
          "duration": 0.01547031250001396,
          "durationTicks": 5,
          "midi": 70,
          "name": "A#4",
          "ticks": 28016,
          "time": 86.683255,
          "velocity": 0.8267716535433071
        },
        {
          "duration": 0.012376249999988431,
          "durationTicks": 4,
          "midi": 68,
          "name": "G#4",
          "ticks": 28021,
          "time": 86.69872531250002,
          "velocity": 0.8267716535433071
        },
        {
          "duration": 0.012376250000002642,
          "durationTicks": 4,
          "midi": 66,
          "name": "F#4",
          "ticks": 28025,
          "time": 86.7111015625,
          "velocity": 0.8188976377952756
        },
        {
          "duration": 0.12376250000001221,
          "durationTicks": 40,
          "midi": 92,
          "name": "G#6",
          "ticks": 28032,
          "time": 86.73276,
          "velocity": 0.9291338582677166
        },
        {
          "duration": 0.14851500000000328,
          "durationTicks": 48,
          "midi": 90,
          "name": "F#6",
          "ticks": 28128,
          "time": 87.02979,
          "velocity": 0.9291338582677166
        },
        {
          "duration": 0.29702999999999236,
          "durationTicks": 96,
          "midi": 85,
          "name": "C#6",
          "ticks": 28416,
          "time": 87.92088000000001,
          "velocity": 0.8110236220472441
        },
        {
          "duration": 0.07425750000000164,
          "durationTicks": 24,
          "midi": 85,
          "name": "C#6",
          "ticks": 28752,
          "time": 88.960485,
          "velocity": 0.9291338582677166
        },
        {
          "duration": 0.07425750000000164,
          "durationTicks": 24,
          "midi": 88,
          "name": "E6",
          "ticks": 28776,
          "time": 89.03474250000001,
          "velocity": 0.9291338582677166
        },
        {
          "duration": 0.14851499999998907,
          "durationTicks": 48,
          "midi": 92,
          "name": "G#6",
          "ticks": 28800,
          "time": 89.10900000000001,
          "velocity": 0.9291338582677166
        },
        {
          "duration": 0.14851500000000328,
          "durationTicks": 48,
          "midi": 90,
          "name": "F#6",
          "ticks": 28896,
          "time": 89.40603,
          "velocity": 0.9291338582677166
        },
        {
          "duration": 0.012376250000002642,
          "durationTicks": 4,
          "midi": 102,
          "name": "F#7",
          "ticks": 31008,
          "time": 95.94069,
          "velocity": 0.889763779527559
        },
        {
          "duration": 0.012376249999988431,
          "durationTicks": 4,
          "midi": 100,
          "name": "E7",
          "ticks": 31012,
          "time": 95.95306625,
          "velocity": 0.889763779527559
        },
        {
          "duration": 0.01547031250001396,
          "durationTicks": 5,
          "midi": 99,
          "name": "D#7",
          "ticks": 31016,
          "time": 95.9654425,
          "velocity": 0.8818897637795275
        },
        {
          "duration": 0.012376249999988431,
          "durationTicks": 4,
          "midi": 97,
          "name": "C#7",
          "ticks": 31021,
          "time": 95.98091281250001,
          "velocity": 0.8818897637795275
        },
        {
          "duration": 0.012376250000002642,
          "durationTicks": 4,
          "midi": 95,
          "name": "B6",
          "ticks": 31025,
          "time": 95.9932890625,
          "velocity": 0.8740157480314961
        },
        {
          "duration": 0.012376250000016853,
          "durationTicks": 4,
          "midi": 94,
          "name": "A#6",
          "ticks": 31029,
          "time": 96.0056653125,
          "velocity": 0.8740157480314961
        },
        {
          "duration": 0.015470312499985539,
          "durationTicks": 5,
          "midi": 92,
          "name": "G#6",
          "ticks": 31033,
          "time": 96.01804156250002,
          "velocity": 0.8740157480314961
        },
        {
          "duration": 0.012376250000002642,
          "durationTicks": 4,
          "midi": 90,
          "name": "F#6",
          "ticks": 31038,
          "time": 96.033511875,
          "velocity": 0.8661417322834646
        },
        {
          "duration": 0.012376249999988431,
          "durationTicks": 4,
          "midi": 88,
          "name": "E6",
          "ticks": 31042,
          "time": 96.045888125,
          "velocity": 0.8661417322834646
        },
        {
          "duration": 0.012376250000016853,
          "durationTicks": 4,
          "midi": 87,
          "name": "D#6",
          "ticks": 31046,
          "time": 96.058264375,
          "velocity": 0.8582677165354331
        },
        {
          "duration": 0.012376250000002642,
          "durationTicks": 4,
          "midi": 85,
          "name": "C#6",
          "ticks": 31050,
          "time": 96.07064062500001,
          "velocity": 0.8582677165354331
        },
        {
          "duration": 0.015470312499985539,
          "durationTicks": 5,
          "midi": 83,
          "name": "B5",
          "ticks": 31054,
          "time": 96.08301687500001,
          "velocity": 0.8503937007874016
        },
        {
          "duration": 0.012376250000016853,
          "durationTicks": 4,
          "midi": 82,
          "name": "A#5",
          "ticks": 31059,
          "time": 96.0984871875,
          "velocity": 0.8503937007874016
        },
        {
          "duration": 0.012376249999988431,
          "durationTicks": 4,
          "midi": 80,
          "name": "G#5",
          "ticks": 31063,
          "time": 96.11086343750002,
          "velocity": 0.8503937007874016
        },
        {
          "duration": 0.012376250000002642,
          "durationTicks": 4,
          "midi": 78,
          "name": "F#5",
          "ticks": 31067,
          "time": 96.1232396875,
          "velocity": 0.84251968503937
        },
        {
          "duration": 0.01547031249999975,
          "durationTicks": 5,
          "midi": 76,
          "name": "E5",
          "ticks": 31071,
          "time": 96.1356159375,
          "velocity": 0.84251968503937
        },
        {
          "duration": 0.012376250000002642,
          "durationTicks": 4,
          "midi": 75,
          "name": "D#5",
          "ticks": 31076,
          "time": 96.15108625,
          "velocity": 0.8346456692913385
        },
        {
          "duration": 0.012376250000002642,
          "durationTicks": 4,
          "midi": 73,
          "name": "C#5",
          "ticks": 31080,
          "time": 96.16346250000001,
          "velocity": 0.8346456692913385
        },
        {
          "duration": 0.012376249999988431,
          "durationTicks": 4,
          "midi": 71,
          "name": "B4",
          "ticks": 31084,
          "time": 96.17583875000001,
          "velocity": 0.8346456692913385
        },
        {
          "duration": 0.01547031250001396,
          "durationTicks": 5,
          "midi": 70,
          "name": "A#4",
          "ticks": 31088,
          "time": 96.188215,
          "velocity": 0.8267716535433071
        },
        {
          "duration": 0.012376249999988431,
          "durationTicks": 4,
          "midi": 68,
          "name": "G#4",
          "ticks": 31093,
          "time": 96.20368531250001,
          "velocity": 0.8267716535433071
        },
        {
          "duration": 0.012376250000002642,
          "durationTicks": 4,
          "midi": 66,
          "name": "F#4",
          "ticks": 31097,
          "time": 96.2160615625,
          "velocity": 0.8188976377952756
        },
        {
          "duration": 0.07425750000000164,
          "durationTicks": 24,
          "midi": 93,
          "name": "A6",
          "ticks": 31872,
          "time": 98.61396,
          "velocity": 0.9133858267716536
        },
        {
          "duration": 0.07425750000000164,
          "durationTicks": 24,
          "midi": 88,
          "name": "E6",
          "ticks": 31896,
          "time": 98.68821750000001,
          "velocity": 0.9133858267716536
        },
        {
          "duration": 0.07425750000000164,
          "durationTicks": 24,
          "midi": 84,
          "name": "C6",
          "ticks": 31920,
          "time": 98.76247500000001,
          "velocity": 0.9133858267716536
        },
        {
          "duration": 0.07425750000000164,
          "durationTicks": 24,
          "midi": 96,
          "name": "C7",
          "ticks": 31944,
          "time": 98.83673250000001,
          "velocity": 0.9133858267716536
        },
        {
          "duration": 0.07425749999998743,
          "durationTicks": 24,
          "midi": 95,
          "name": "B6",
          "ticks": 31968,
          "time": 98.91099000000001,
          "velocity": 0.9133858267716536
        },
        {
          "duration": 0.07425750000000164,
          "durationTicks": 24,
          "midi": 91,
          "name": "G6",
          "ticks": 31992,
          "time": 98.9852475,
          "velocity": 0.9133858267716536
        },
        {
          "duration": 0.07425750000000164,
          "durationTicks": 24,
          "midi": 93,
          "name": "A6",
          "ticks": 32016,
          "time": 99.059505,
          "velocity": 0.9133858267716536
        },
        {
          "duration": 0.07425750000000164,
          "durationTicks": 24,
          "midi": 88,
          "name": "E6",
          "ticks": 32040,
          "time": 99.1337625,
          "velocity": 0.9133858267716536
        },
        {
          "duration": 0.07425750000000164,
          "durationTicks": 24,
          "midi": 86,
          "name": "D6",
          "ticks": 32064,
          "time": 99.20802,
          "velocity": 0.9133858267716536
        },
        {
          "duration": 0.07425750000000164,
          "durationTicks": 24,
          "midi": 91,
          "name": "G6",
          "ticks": 32088,
          "time": 99.2822775,
          "velocity": 0.9133858267716536
        },
        {
          "duration": 0.07425750000000164,
          "durationTicks": 24,
          "midi": 88,
          "name": "E6",
          "ticks": 32112,
          "time": 99.35653500000001,
          "velocity": 0.9133858267716536
        },
        {
          "duration": 0.07425750000000164,
          "durationTicks": 24,
          "midi": 84,
          "name": "C6",
          "ticks": 32136,
          "time": 99.43079250000001,
          "velocity": 0.9133858267716536
        },
        {
          "duration": 0.07425749999998743,
          "durationTicks": 24,
          "midi": 91,
          "name": "G6",
          "ticks": 32160,
          "time": 99.50505000000001,
          "velocity": 0.9133858267716536
        },
        {
          "duration": 0.07425750000000164,
          "durationTicks": 24,
          "midi": 88,
          "name": "E6",
          "ticks": 32184,
          "time": 99.5793075,
          "velocity": 0.9133858267716536
        },
        {
          "duration": 0.07425750000000164,
          "durationTicks": 24,
          "midi": 86,
          "name": "D6",
          "ticks": 32208,
          "time": 99.653565,
          "velocity": 0.9133858267716536
        },
        {
          "duration": 0.07425750000000164,
          "durationTicks": 24,
          "midi": 92,
          "name": "G#6",
          "ticks": 32232,
          "time": 99.7278225,
          "velocity": 0.9133858267716536
        },
        {
          "duration": 0.07425750000000164,
          "durationTicks": 24,
          "midi": 93,
          "name": "A6",
          "ticks": 32256,
          "time": 99.80208,
          "velocity": 0.9133858267716536
        },
        {
          "duration": 0.07425750000000164,
          "durationTicks": 24,
          "midi": 88,
          "name": "E6",
          "ticks": 32280,
          "time": 99.8763375,
          "velocity": 0.9133858267716536
        },
        {
          "duration": 0.07425750000000164,
          "durationTicks": 24,
          "midi": 84,
          "name": "C6",
          "ticks": 32304,
          "time": 99.950595,
          "velocity": 0.9133858267716536
        },
        {
          "duration": 0.07425750000000164,
          "durationTicks": 24,
          "midi": 96,
          "name": "C7",
          "ticks": 32328,
          "time": 100.02485250000001,
          "velocity": 0.9133858267716536
        },
        {
          "duration": 0.07425750000000164,
          "durationTicks": 24,
          "midi": 95,
          "name": "B6",
          "ticks": 32352,
          "time": 100.09911000000001,
          "velocity": 0.9133858267716536
        },
        {
          "duration": 0.07425749999998743,
          "durationTicks": 24,
          "midi": 91,
          "name": "G6",
          "ticks": 32376,
          "time": 100.17336750000001,
          "velocity": 0.9133858267716536
        },
        {
          "duration": 0.07425750000000164,
          "durationTicks": 24,
          "midi": 93,
          "name": "A6",
          "ticks": 32400,
          "time": 100.247625,
          "velocity": 0.9133858267716536
        },
        {
          "duration": 0.07425750000000164,
          "durationTicks": 24,
          "midi": 88,
          "name": "E6",
          "ticks": 32424,
          "time": 100.3218825,
          "velocity": 0.9133858267716536
        },
        {
          "duration": 0.07425750000000164,
          "durationTicks": 24,
          "midi": 98,
          "name": "D7",
          "ticks": 32448,
          "time": 100.39614,
          "velocity": 0.9133858267716536
        },
        {
          "duration": 0.07425750000000164,
          "durationTicks": 24,
          "midi": 96,
          "name": "C7",
          "ticks": 32472,
          "time": 100.4703975,
          "velocity": 0.9133858267716536
        },
        {
          "duration": 0.07425750000000164,
          "durationTicks": 24,
          "midi": 95,
          "name": "B6",
          "ticks": 32496,
          "time": 100.544655,
          "velocity": 0.9133858267716536
        },
        {
          "duration": 0.07425750000000164,
          "durationTicks": 24,
          "midi": 93,
          "name": "A6",
          "ticks": 32520,
          "time": 100.61891250000001,
          "velocity": 0.9133858267716536
        },
        {
          "duration": 0.14851500000000328,
          "durationTicks": 48,
          "midi": 88,
          "name": "E6",
          "ticks": 32544,
          "time": 100.69317000000001,
          "velocity": 0.9133858267716536
        },
        {
          "duration": 0.07425749999998743,
          "durationTicks": 24,
          "midi": 91,
          "name": "G6",
          "ticks": 32592,
          "time": 100.84168500000001,
          "velocity": 0.9133858267716536
        },
        {
          "duration": 0.07425750000000164,
          "durationTicks": 24,
          "midi": 92,
          "name": "G#6",
          "ticks": 32616,
          "time": 100.9159425,
          "velocity": 0.9133858267716536
        },
        {
          "duration": 0.07425749999998743,
          "durationTicks": 24,
          "midi": 93,
          "name": "A6",
          "ticks": 33408,
          "time": 103.36644000000001,
          "velocity": 0.9133858267716536
        },
        {
          "duration": 0.07425750000000164,
          "durationTicks": 24,
          "midi": 88,
          "name": "E6",
          "ticks": 33432,
          "time": 103.4406975,
          "velocity": 0.9133858267716536
        },
        {
          "duration": 0.07425750000000164,
          "durationTicks": 24,
          "midi": 84,
          "name": "C6",
          "ticks": 33456,
          "time": 103.514955,
          "velocity": 0.9133858267716536
        },
        {
          "duration": 0.07425750000000164,
          "durationTicks": 24,
          "midi": 96,
          "name": "C7",
          "ticks": 33480,
          "time": 103.5892125,
          "velocity": 0.9133858267716536
        },
        {
          "duration": 0.07425750000000164,
          "durationTicks": 24,
          "midi": 95,
          "name": "B6",
          "ticks": 33504,
          "time": 103.66347,
          "velocity": 0.9133858267716536
        },
        {
          "duration": 0.07425750000000164,
          "durationTicks": 24,
          "midi": 91,
          "name": "G6",
          "ticks": 33528,
          "time": 103.7377275,
          "velocity": 0.9133858267716536
        },
        {
          "duration": 0.07425750000000164,
          "durationTicks": 24,
          "midi": 93,
          "name": "A6",
          "ticks": 33552,
          "time": 103.811985,
          "velocity": 0.9133858267716536
        },
        {
          "duration": 0.07425750000000164,
          "durationTicks": 24,
          "midi": 88,
          "name": "E6",
          "ticks": 33576,
          "time": 103.88624250000001,
          "velocity": 0.9133858267716536
        },
        {
          "duration": 0.07425750000000164,
          "durationTicks": 24,
          "midi": 86,
          "name": "D6",
          "ticks": 33600,
          "time": 103.96050000000001,
          "velocity": 0.9133858267716536
        },
        {
          "duration": 0.07425749999998743,
          "durationTicks": 24,
          "midi": 91,
          "name": "G6",
          "ticks": 33624,
          "time": 104.03475750000001,
          "velocity": 0.9133858267716536
        },
        {
          "duration": 0.07425750000000164,
          "durationTicks": 24,
          "midi": 88,
          "name": "E6",
          "ticks": 33648,
          "time": 104.109015,
          "velocity": 0.9133858267716536
        },
        {
          "duration": 0.07425750000000164,
          "durationTicks": 24,
          "midi": 84,
          "name": "C6",
          "ticks": 33672,
          "time": 104.1832725,
          "velocity": 0.9133858267716536
        },
        {
          "duration": 0.07425750000000164,
          "durationTicks": 24,
          "midi": 88,
          "name": "E6",
          "ticks": 33696,
          "time": 104.25753,
          "velocity": 0.9133858267716536
        },
        {
          "duration": 0.07425750000000164,
          "durationTicks": 24,
          "midi": 86,
          "name": "D6",
          "ticks": 33720,
          "time": 104.3317875,
          "velocity": 0.9133858267716536
        },
        {
          "duration": 0.07425750000000164,
          "durationTicks": 24,
          "midi": 84,
          "name": "C6",
          "ticks": 33744,
          "time": 104.406045,
          "velocity": 0.9133858267716536
        },
        {
          "duration": 0.07425750000000164,
          "durationTicks": 24,
          "midi": 83,
          "name": "B5",
          "ticks": 33768,
          "time": 104.48030250000001,
          "velocity": 0.9133858267716536
        },
        {
          "duration": 0.07425750000000164,
          "durationTicks": 24,
          "midi": 81,
          "name": "A5",
          "ticks": 33792,
          "time": 104.55456000000001,
          "velocity": 0.9133858267716536
        },
        {
          "duration": 0.07425750000000164,
          "durationTicks": 24,
          "midi": 83,
          "name": "B5",
          "ticks": 33816,
          "time": 104.62881750000001,
          "velocity": 0.9133858267716536
        },
        {
          "duration": 0.07425749999998743,
          "durationTicks": 24,
          "midi": 84,
          "name": "C6",
          "ticks": 33840,
          "time": 104.70307500000001,
          "velocity": 0.9133858267716536
        },
        {
          "duration": 0.07425750000000164,
          "durationTicks": 24,
          "midi": 83,
          "name": "B5",
          "ticks": 33864,
          "time": 104.7773325,
          "velocity": 0.9133858267716536
        },
        {
          "duration": 0.07425750000000164,
          "durationTicks": 24,
          "midi": 93,
          "name": "A6",
          "ticks": 34176,
          "time": 105.74268000000001,
          "velocity": 0.9212598425196851
        },
        {
          "duration": 0.07425750000000164,
          "durationTicks": 24,
          "midi": 88,
          "name": "E6",
          "ticks": 34200,
          "time": 105.81693750000001,
          "velocity": 0.9212598425196851
        },
        {
          "duration": 0.07425750000000164,
          "durationTicks": 24,
          "midi": 84,
          "name": "C6",
          "ticks": 34224,
          "time": 105.89119500000001,
          "velocity": 0.9212598425196851
        },
        {
          "duration": 0.07425749999998743,
          "durationTicks": 24,
          "midi": 96,
          "name": "C7",
          "ticks": 34248,
          "time": 105.96545250000001,
          "velocity": 0.9212598425196851
        },
        {
          "duration": 0.07425750000000164,
          "durationTicks": 24,
          "midi": 95,
          "name": "B6",
          "ticks": 34272,
          "time": 106.03971,
          "velocity": 0.9212598425196851
        },
        {
          "duration": 0.07425750000000164,
          "durationTicks": 24,
          "midi": 91,
          "name": "G6",
          "ticks": 34296,
          "time": 106.1139675,
          "velocity": 0.9212598425196851
        },
        {
          "duration": 0.07425750000000164,
          "durationTicks": 24,
          "midi": 93,
          "name": "A6",
          "ticks": 34320,
          "time": 106.188225,
          "velocity": 0.9212598425196851
        },
        {
          "duration": 0.07425750000000164,
          "durationTicks": 24,
          "midi": 88,
          "name": "E6",
          "ticks": 34344,
          "time": 106.2624825,
          "velocity": 0.9212598425196851
        },
        {
          "duration": 0.07425750000000164,
          "durationTicks": 24,
          "midi": 86,
          "name": "D6",
          "ticks": 34368,
          "time": 106.33674,
          "velocity": 0.9212598425196851
        },
        {
          "duration": 0.07425750000000164,
          "durationTicks": 24,
          "midi": 91,
          "name": "G6",
          "ticks": 34392,
          "time": 106.41099750000001,
          "velocity": 0.9212598425196851
        },
        {
          "duration": 0.07425750000000164,
          "durationTicks": 24,
          "midi": 88,
          "name": "E6",
          "ticks": 34416,
          "time": 106.48525500000001,
          "velocity": 0.9212598425196851
        },
        {
          "duration": 0.07425750000000164,
          "durationTicks": 24,
          "midi": 84,
          "name": "C6",
          "ticks": 34440,
          "time": 106.55951250000001,
          "velocity": 0.9212598425196851
        },
        {
          "duration": 0.07425749999998743,
          "durationTicks": 24,
          "midi": 91,
          "name": "G6",
          "ticks": 34464,
          "time": 106.63377000000001,
          "velocity": 0.9212598425196851
        },
        {
          "duration": 0.07425750000000164,
          "durationTicks": 24,
          "midi": 88,
          "name": "E6",
          "ticks": 34488,
          "time": 106.7080275,
          "velocity": 0.9212598425196851
        },
        {
          "duration": 0.07425750000000164,
          "durationTicks": 24,
          "midi": 86,
          "name": "D6",
          "ticks": 34512,
          "time": 106.782285,
          "velocity": 0.9212598425196851
        },
        {
          "duration": 0.07425750000000164,
          "durationTicks": 24,
          "midi": 92,
          "name": "G#6",
          "ticks": 34536,
          "time": 106.8565425,
          "velocity": 0.9212598425196851
        },
        {
          "duration": 0.07425750000000164,
          "durationTicks": 24,
          "midi": 93,
          "name": "A6",
          "ticks": 34560,
          "time": 106.9308,
          "velocity": 0.9212598425196851
        },
        {
          "duration": 0.07425750000000164,
          "durationTicks": 24,
          "midi": 88,
          "name": "E6",
          "ticks": 34584,
          "time": 107.0050575,
          "velocity": 0.9212598425196851
        },
        {
          "duration": 0.07425750000000164,
          "durationTicks": 24,
          "midi": 84,
          "name": "C6",
          "ticks": 34608,
          "time": 107.07931500000001,
          "velocity": 0.9212598425196851
        },
        {
          "duration": 0.07425750000000164,
          "durationTicks": 24,
          "midi": 96,
          "name": "C7",
          "ticks": 34632,
          "time": 107.15357250000001,
          "velocity": 0.9212598425196851
        },
        {
          "duration": 0.07425749999998743,
          "durationTicks": 24,
          "midi": 95,
          "name": "B6",
          "ticks": 34656,
          "time": 107.22783000000001,
          "velocity": 0.9212598425196851
        },
        {
          "duration": 0.07425750000000164,
          "durationTicks": 24,
          "midi": 91,
          "name": "G6",
          "ticks": 34680,
          "time": 107.3020875,
          "velocity": 0.9212598425196851
        },
        {
          "duration": 0.07425750000000164,
          "durationTicks": 24,
          "midi": 93,
          "name": "A6",
          "ticks": 34704,
          "time": 107.376345,
          "velocity": 0.9212598425196851
        },
        {
          "duration": 0.07425750000000164,
          "durationTicks": 24,
          "midi": 88,
          "name": "E6",
          "ticks": 34728,
          "time": 107.4506025,
          "velocity": 0.9212598425196851
        },
        {
          "duration": 0.07425750000000164,
          "durationTicks": 24,
          "midi": 98,
          "name": "D7",
          "ticks": 34752,
          "time": 107.52486,
          "velocity": 0.9212598425196851
        },
        {
          "duration": 0.07425750000000164,
          "durationTicks": 24,
          "midi": 96,
          "name": "C7",
          "ticks": 34776,
          "time": 107.5991175,
          "velocity": 0.9212598425196851
        },
        {
          "duration": 0.07425750000000164,
          "durationTicks": 24,
          "midi": 95,
          "name": "B6",
          "ticks": 34800,
          "time": 107.67337500000001,
          "velocity": 0.9212598425196851
        },
        {
          "duration": 0.07425750000000164,
          "durationTicks": 24,
          "midi": 93,
          "name": "A6",
          "ticks": 34824,
          "time": 107.74763250000001,
          "velocity": 0.9212598425196851
        },
        {
          "duration": 0.07425750000000164,
          "durationTicks": 24,
          "midi": 91,
          "name": "G6",
          "ticks": 34848,
          "time": 107.82189000000001,
          "velocity": 0.9212598425196851
        },
        {
          "duration": 0.07425749999998743,
          "durationTicks": 24,
          "midi": 88,
          "name": "E6",
          "ticks": 34872,
          "time": 107.89614750000001,
          "velocity": 0.9212598425196851
        },
        {
          "duration": 0.07425750000000164,
          "durationTicks": 24,
          "midi": 91,
          "name": "G6",
          "ticks": 34896,
          "time": 107.970405,
          "velocity": 0.9212598425196851
        },
        {
          "duration": 0.07425750000000164,
          "durationTicks": 24,
          "midi": 92,
          "name": "G#6",
          "ticks": 34920,
          "time": 108.0446625,
          "velocity": 0.9212598425196851
        },
        {
          "duration": 0.07425750000000164,
          "durationTicks": 24,
          "midi": 93,
          "name": "A6",
          "ticks": 34944,
          "time": 108.11892,
          "velocity": 0.9212598425196851
        },
        {
          "duration": 0.07425750000000164,
          "durationTicks": 24,
          "midi": 88,
          "name": "E6",
          "ticks": 34968,
          "time": 108.1931775,
          "velocity": 0.9212598425196851
        },
        {
          "duration": 0.07425750000000164,
          "durationTicks": 24,
          "midi": 84,
          "name": "C6",
          "ticks": 34992,
          "time": 108.267435,
          "velocity": 0.9212598425196851
        },
        {
          "duration": 0.07425750000000164,
          "durationTicks": 24,
          "midi": 96,
          "name": "C7",
          "ticks": 35016,
          "time": 108.34169250000001,
          "velocity": 0.9212598425196851
        },
        {
          "duration": 0.07425750000000164,
          "durationTicks": 24,
          "midi": 95,
          "name": "B6",
          "ticks": 35040,
          "time": 108.41595000000001,
          "velocity": 0.9212598425196851
        },
        {
          "duration": 0.07425750000000164,
          "durationTicks": 24,
          "midi": 91,
          "name": "G6",
          "ticks": 35064,
          "time": 108.49020750000001,
          "velocity": 0.9212598425196851
        },
        {
          "duration": 0.07425749999998743,
          "durationTicks": 24,
          "midi": 93,
          "name": "A6",
          "ticks": 35088,
          "time": 108.56446500000001,
          "velocity": 0.9212598425196851
        },
        {
          "duration": 0.07425750000000164,
          "durationTicks": 24,
          "midi": 88,
          "name": "E6",
          "ticks": 35112,
          "time": 108.6387225,
          "velocity": 0.9212598425196851
        },
        {
          "duration": 0.07425750000000164,
          "durationTicks": 24,
          "midi": 86,
          "name": "D6",
          "ticks": 35136,
          "time": 108.71298,
          "velocity": 0.9212598425196851
        },
        {
          "duration": 0.07425750000000164,
          "durationTicks": 24,
          "midi": 91,
          "name": "G6",
          "ticks": 35160,
          "time": 108.7872375,
          "velocity": 0.9212598425196851
        },
        {
          "duration": 0.07425750000000164,
          "durationTicks": 24,
          "midi": 88,
          "name": "E6",
          "ticks": 35184,
          "time": 108.861495,
          "velocity": 0.9212598425196851
        },
        {
          "duration": 0.07425750000000164,
          "durationTicks": 24,
          "midi": 84,
          "name": "C6",
          "ticks": 35208,
          "time": 108.9357525,
          "velocity": 0.9212598425196851
        },
        {
          "duration": 0.07425750000000164,
          "durationTicks": 24,
          "midi": 88,
          "name": "E6",
          "ticks": 35232,
          "time": 109.01001000000001,
          "velocity": 0.9212598425196851
        },
        {
          "duration": 0.07425750000000164,
          "durationTicks": 24,
          "midi": 86,
          "name": "D6",
          "ticks": 35256,
          "time": 109.08426750000001,
          "velocity": 0.9212598425196851
        },
        {
          "duration": 0.07425749999998743,
          "durationTicks": 24,
          "midi": 84,
          "name": "C6",
          "ticks": 35280,
          "time": 109.15852500000001,
          "velocity": 0.9212598425196851
        },
        {
          "duration": 0.07425750000000164,
          "durationTicks": 24,
          "midi": 83,
          "name": "B5",
          "ticks": 35304,
          "time": 109.2327825,
          "velocity": 0.9212598425196851
        },
        {
          "duration": 0.09900999999999271,
          "durationTicks": 32,
          "midi": 81,
          "name": "A5",
          "ticks": 35328,
          "time": 109.30704,
          "velocity": 0.9212598425196851
        },
        {
          "duration": 0.09901000000002114,
          "durationTicks": 32,
          "midi": 83,
          "name": "B5",
          "ticks": 35360,
          "time": 109.40605,
          "velocity": 0.9212598425196851
        },
        {
          "duration": 0.09900999999999271,
          "durationTicks": 32,
          "midi": 84,
          "name": "C6",
          "ticks": 35392,
          "time": 109.50506000000001,
          "velocity": 0.9212598425196851
        },
        {
          "duration": 0.09900999999999271,
          "durationTicks": 32,
          "midi": 86,
          "name": "D6",
          "ticks": 35424,
          "time": 109.60407000000001,
          "velocity": 0.9212598425196851
        },
        {
          "duration": 0.09901000000000693,
          "durationTicks": 32,
          "midi": 88,
          "name": "E6",
          "ticks": 35456,
          "time": 109.70308,
          "velocity": 0.9212598425196851
        },
        {
          "duration": 0.09900999999999271,
          "durationTicks": 32,
          "midi": 91,
          "name": "G6",
          "ticks": 35488,
          "time": 109.80209,
          "velocity": 0.9212598425196851
        },
        {
          "duration": 0.09901000000000693,
          "durationTicks": 32,
          "midi": 93,
          "name": "A6",
          "ticks": 35520,
          "time": 109.9011,
          "velocity": 0.9212598425196851
        },
        {
          "duration": 0.09901000000000693,
          "durationTicks": 32,
          "midi": 96,
          "name": "C7",
          "ticks": 35552,
          "time": 110.00011,
          "velocity": 0.9212598425196851
        },
        {
          "duration": 0.09900999999999271,
          "durationTicks": 32,
          "midi": 95,
          "name": "B6",
          "ticks": 35584,
          "time": 110.09912000000001,
          "velocity": 0.9212598425196851
        },
        {
          "duration": 0.09900999999999271,
          "durationTicks": 32,
          "midi": 93,
          "name": "A6",
          "ticks": 35616,
          "time": 110.19813,
          "velocity": 0.9212598425196851
        },
        {
          "duration": 0.09901000000000693,
          "durationTicks": 32,
          "midi": 91,
          "name": "G6",
          "ticks": 35648,
          "time": 110.29714,
          "velocity": 0.9212598425196851
        },
        {
          "duration": 0.09901000000000693,
          "durationTicks": 32,
          "midi": 88,
          "name": "E6",
          "ticks": 35680,
          "time": 110.39615,
          "velocity": 0.9212598425196851
        },
        {
          "duration": 0.07425749999998743,
          "durationTicks": 24,
          "midi": 93,
          "name": "A6",
          "ticks": 35712,
          "time": 110.49516000000001,
          "velocity": 0.9212598425196851
        },
        {
          "duration": 0.07425750000000164,
          "durationTicks": 24,
          "midi": 88,
          "name": "E6",
          "ticks": 35736,
          "time": 110.5694175,
          "velocity": 0.9212598425196851
        },
        {
          "duration": 0.07425750000000164,
          "durationTicks": 24,
          "midi": 84,
          "name": "C6",
          "ticks": 35760,
          "time": 110.643675,
          "velocity": 0.9212598425196851
        },
        {
          "duration": 0.07425750000000164,
          "durationTicks": 24,
          "midi": 96,
          "name": "C7",
          "ticks": 35784,
          "time": 110.7179325,
          "velocity": 0.9212598425196851
        },
        {
          "duration": 0.07425750000000164,
          "durationTicks": 24,
          "midi": 95,
          "name": "B6",
          "ticks": 35808,
          "time": 110.79219,
          "velocity": 0.9212598425196851
        },
        {
          "duration": 0.07425750000000164,
          "durationTicks": 24,
          "midi": 91,
          "name": "G6",
          "ticks": 35832,
          "time": 110.8664475,
          "velocity": 0.9212598425196851
        },
        {
          "duration": 0.07425750000000164,
          "durationTicks": 24,
          "midi": 93,
          "name": "A6",
          "ticks": 35856,
          "time": 110.94070500000001,
          "velocity": 0.9212598425196851
        },
        {
          "duration": 0.07425750000000164,
          "durationTicks": 24,
          "midi": 88,
          "name": "E6",
          "ticks": 35880,
          "time": 111.01496250000001,
          "velocity": 0.9212598425196851
        },
        {
          "duration": 0.07425749999998743,
          "durationTicks": 24,
          "midi": 86,
          "name": "D6",
          "ticks": 35904,
          "time": 111.08922000000001,
          "velocity": 0.9212598425196851
        },
        {
          "duration": 0.07425750000000164,
          "durationTicks": 24,
          "midi": 91,
          "name": "G6",
          "ticks": 35928,
          "time": 111.1634775,
          "velocity": 0.9212598425196851
        },
        {
          "duration": 0.07425750000000164,
          "durationTicks": 24,
          "midi": 88,
          "name": "E6",
          "ticks": 35952,
          "time": 111.237735,
          "velocity": 0.9212598425196851
        },
        {
          "duration": 0.07425750000000164,
          "durationTicks": 24,
          "midi": 84,
          "name": "C6",
          "ticks": 35976,
          "time": 111.3119925,
          "velocity": 0.9212598425196851
        },
        {
          "duration": 0.07425750000000164,
          "durationTicks": 24,
          "midi": 91,
          "name": "G6",
          "ticks": 36000,
          "time": 111.38625,
          "velocity": 0.9212598425196851
        },
        {
          "duration": 0.07425750000000164,
          "durationTicks": 24,
          "midi": 88,
          "name": "E6",
          "ticks": 36024,
          "time": 111.4605075,
          "velocity": 0.9212598425196851
        },
        {
          "duration": 0.07425750000000164,
          "durationTicks": 24,
          "midi": 86,
          "name": "D6",
          "ticks": 36048,
          "time": 111.53476500000001,
          "velocity": 0.9212598425196851
        },
        {
          "duration": 0.07425750000000164,
          "durationTicks": 24,
          "midi": 92,
          "name": "G#6",
          "ticks": 36072,
          "time": 111.60902250000001,
          "velocity": 0.9212598425196851
        },
        {
          "duration": 0.07425750000000164,
          "durationTicks": 24,
          "midi": 93,
          "name": "A6",
          "ticks": 36096,
          "time": 111.68328000000001,
          "velocity": 0.9212598425196851
        },
        {
          "duration": 0.07425749999998743,
          "durationTicks": 24,
          "midi": 88,
          "name": "E6",
          "ticks": 36120,
          "time": 111.75753750000001,
          "velocity": 0.9212598425196851
        },
        {
          "duration": 0.07425750000000164,
          "durationTicks": 24,
          "midi": 84,
          "name": "C6",
          "ticks": 36144,
          "time": 111.831795,
          "velocity": 0.9212598425196851
        },
        {
          "duration": 0.07425750000000164,
          "durationTicks": 24,
          "midi": 96,
          "name": "C7",
          "ticks": 36168,
          "time": 111.9060525,
          "velocity": 0.9212598425196851
        },
        {
          "duration": 0.07425750000000164,
          "durationTicks": 24,
          "midi": 95,
          "name": "B6",
          "ticks": 36192,
          "time": 111.98031,
          "velocity": 0.9212598425196851
        },
        {
          "duration": 0.07425750000000164,
          "durationTicks": 24,
          "midi": 91,
          "name": "G6",
          "ticks": 36216,
          "time": 112.0545675,
          "velocity": 0.9212598425196851
        },
        {
          "duration": 0.07425750000000164,
          "durationTicks": 24,
          "midi": 93,
          "name": "A6",
          "ticks": 36240,
          "time": 112.128825,
          "velocity": 0.9212598425196851
        },
        {
          "duration": 0.07425750000000164,
          "durationTicks": 24,
          "midi": 88,
          "name": "E6",
          "ticks": 36264,
          "time": 112.20308250000001,
          "velocity": 0.9212598425196851
        },
        {
          "duration": 0.07425750000000164,
          "durationTicks": 24,
          "midi": 98,
          "name": "D7",
          "ticks": 36288,
          "time": 112.27734000000001,
          "velocity": 0.9212598425196851
        },
        {
          "duration": 0.07425750000000164,
          "durationTicks": 24,
          "midi": 96,
          "name": "C7",
          "ticks": 36312,
          "time": 112.35159750000001,
          "velocity": 0.9212598425196851
        },
        {
          "duration": 0.07425749999998743,
          "durationTicks": 24,
          "midi": 95,
          "name": "B6",
          "ticks": 36336,
          "time": 112.42585500000001,
          "velocity": 0.9212598425196851
        },
        {
          "duration": 0.07425750000000164,
          "durationTicks": 24,
          "midi": 93,
          "name": "A6",
          "ticks": 36360,
          "time": 112.5001125,
          "velocity": 0.9212598425196851
        },
        {
          "duration": 0.07425750000000164,
          "durationTicks": 24,
          "midi": 91,
          "name": "G6",
          "ticks": 36384,
          "time": 112.57437,
          "velocity": 0.9212598425196851
        },
        {
          "duration": 0.07425750000000164,
          "durationTicks": 24,
          "midi": 88,
          "name": "E6",
          "ticks": 36408,
          "time": 112.6486275,
          "velocity": 0.9212598425196851
        },
        {
          "duration": 0.07425750000000164,
          "durationTicks": 24,
          "midi": 91,
          "name": "G6",
          "ticks": 36432,
          "time": 112.722885,
          "velocity": 0.9212598425196851
        },
        {
          "duration": 0.07425750000000164,
          "durationTicks": 24,
          "midi": 92,
          "name": "G#6",
          "ticks": 36456,
          "time": 112.7971425,
          "velocity": 0.9212598425196851
        },
        {
          "duration": 0.07425750000000164,
          "durationTicks": 24,
          "midi": 93,
          "name": "A6",
          "ticks": 36480,
          "time": 112.87140000000001,
          "velocity": 0.9212598425196851
        },
        {
          "duration": 0.07425750000000164,
          "durationTicks": 24,
          "midi": 88,
          "name": "E6",
          "ticks": 36504,
          "time": 112.94565750000001,
          "velocity": 0.9212598425196851
        },
        {
          "duration": 0.07425749999998743,
          "durationTicks": 24,
          "midi": 84,
          "name": "C6",
          "ticks": 36528,
          "time": 113.01991500000001,
          "velocity": 0.9212598425196851
        },
        {
          "duration": 0.07425750000000164,
          "durationTicks": 24,
          "midi": 96,
          "name": "C7",
          "ticks": 36552,
          "time": 113.0941725,
          "velocity": 0.9212598425196851
        },
        {
          "duration": 0.07425750000000164,
          "durationTicks": 24,
          "midi": 95,
          "name": "B6",
          "ticks": 36576,
          "time": 113.16843,
          "velocity": 0.9212598425196851
        },
        {
          "duration": 0.07425750000000164,
          "durationTicks": 24,
          "midi": 91,
          "name": "G6",
          "ticks": 36600,
          "time": 113.2426875,
          "velocity": 0.9212598425196851
        },
        {
          "duration": 0.07425750000000164,
          "durationTicks": 24,
          "midi": 93,
          "name": "A6",
          "ticks": 36624,
          "time": 113.316945,
          "velocity": 0.9212598425196851
        },
        {
          "duration": 0.07425750000000164,
          "durationTicks": 24,
          "midi": 88,
          "name": "E6",
          "ticks": 36648,
          "time": 113.3912025,
          "velocity": 0.9212598425196851
        },
        {
          "duration": 0.07425750000000164,
          "durationTicks": 24,
          "midi": 86,
          "name": "D6",
          "ticks": 36672,
          "time": 113.46546000000001,
          "velocity": 0.9212598425196851
        },
        {
          "duration": 0.07425750000000164,
          "durationTicks": 24,
          "midi": 91,
          "name": "G6",
          "ticks": 36696,
          "time": 113.53971750000001,
          "velocity": 0.9212598425196851
        },
        {
          "duration": 0.07425750000000164,
          "durationTicks": 24,
          "midi": 88,
          "name": "E6",
          "ticks": 36720,
          "time": 113.61397500000001,
          "velocity": 0.9212598425196851
        },
        {
          "duration": 0.07425749999998743,
          "durationTicks": 24,
          "midi": 84,
          "name": "C6",
          "ticks": 36744,
          "time": 113.68823250000001,
          "velocity": 0.9212598425196851
        },
        {
          "duration": 0.07425750000000164,
          "durationTicks": 24,
          "midi": 88,
          "name": "E6",
          "ticks": 36768,
          "time": 113.76249,
          "velocity": 0.9212598425196851
        },
        {
          "duration": 0.07425750000000164,
          "durationTicks": 24,
          "midi": 86,
          "name": "D6",
          "ticks": 36792,
          "time": 113.8367475,
          "velocity": 0.9212598425196851
        },
        {
          "duration": 0.07425750000000164,
          "durationTicks": 24,
          "midi": 84,
          "name": "C6",
          "ticks": 36816,
          "time": 113.911005,
          "velocity": 0.9212598425196851
        },
        {
          "duration": 0.07425750000000164,
          "durationTicks": 24,
          "midi": 83,
          "name": "B5",
          "ticks": 36840,
          "time": 113.9852625,
          "velocity": 0.9212598425196851
        },
        {
          "duration": 0.07425750000000164,
          "durationTicks": 24,
          "midi": 81,
          "name": "A5",
          "ticks": 36864,
          "time": 114.05952,
          "velocity": 0.9212598425196851
        },
        {
          "duration": 0.07425750000000164,
          "durationTicks": 24,
          "midi": 83,
          "name": "B5",
          "ticks": 36888,
          "time": 114.13377750000001,
          "velocity": 0.9212598425196851
        },
        {
          "duration": 0.07425750000000164,
          "durationTicks": 24,
          "midi": 84,
          "name": "C6",
          "ticks": 36912,
          "time": 114.20803500000001,
          "velocity": 0.9212598425196851
        },
        {
          "duration": 0.07425750000000164,
          "durationTicks": 24,
          "midi": 83,
          "name": "B5",
          "ticks": 36936,
          "time": 114.28229250000001,
          "velocity": 0.9212598425196851
        },
        {
          "duration": 0.07425749999998743,
          "durationTicks": 24,
          "midi": 84,
          "name": "C6",
          "ticks": 36960,
          "time": 114.35655000000001,
          "velocity": 0.9212598425196851
        },
        {
          "duration": 0.07425750000000164,
          "durationTicks": 24,
          "midi": 86,
          "name": "D6",
          "ticks": 36984,
          "time": 114.4308075,
          "velocity": 0.9212598425196851
        },
        {
          "duration": 0.07425750000000164,
          "durationTicks": 24,
          "midi": 84,
          "name": "C6",
          "ticks": 37008,
          "time": 114.505065,
          "velocity": 0.9212598425196851
        },
        {
          "duration": 0.07425750000000164,
          "durationTicks": 24,
          "midi": 86,
          "name": "D6",
          "ticks": 37032,
          "time": 114.5793225,
          "velocity": 0.9212598425196851
        },
        {
          "duration": 0.07425750000000164,
          "durationTicks": 24,
          "midi": 88,
          "name": "E6",
          "ticks": 37056,
          "time": 114.65358,
          "velocity": 0.9212598425196851
        },
        {
          "duration": 0.07425750000000164,
          "durationTicks": 24,
          "midi": 86,
          "name": "D6",
          "ticks": 37080,
          "time": 114.7278375,
          "velocity": 0.9212598425196851
        },
        {
          "duration": 0.07425750000000164,
          "durationTicks": 24,
          "midi": 88,
          "name": "E6",
          "ticks": 37104,
          "time": 114.80209500000001,
          "velocity": 0.9212598425196851
        },
        {
          "duration": 0.07425750000000164,
          "durationTicks": 24,
          "midi": 91,
          "name": "G6",
          "ticks": 37128,
          "time": 114.87635250000001,
          "velocity": 0.9212598425196851
        },
        {
          "duration": 0.07425750000000164,
          "durationTicks": 24,
          "midi": 88,
          "name": "E6",
          "ticks": 37152,
          "time": 114.95061000000001,
          "velocity": 0.9212598425196851
        },
        {
          "duration": 0.07425749999998743,
          "durationTicks": 24,
          "midi": 91,
          "name": "G6",
          "ticks": 37176,
          "time": 115.02486750000001,
          "velocity": 0.9212598425196851
        },
        {
          "duration": 0.07425750000000164,
          "durationTicks": 24,
          "midi": 93,
          "name": "A6",
          "ticks": 37200,
          "time": 115.099125,
          "velocity": 0.9212598425196851
        },
        {
          "duration": 0.07425750000000164,
          "durationTicks": 24,
          "midi": 95,
          "name": "B6",
          "ticks": 37224,
          "time": 115.1733825,
          "velocity": 0.9212598425196851
        },
        {
          "duration": 0.14851500000000328,
          "durationTicks": 48,
          "midi": 57,
          "name": "A3",
          "ticks": 37248,
          "time": 115.24764,
          "velocity": 0.84251968503937
        },
        {
          "duration": 0.14851500000000328,
          "durationTicks": 48,
          "midi": 53,
          "name": "F3",
          "ticks": 37248,
          "time": 115.24764,
          "velocity": 0.84251968503937
        },
        {
          "duration": 0.14851500000000328,
          "durationTicks": 48,
          "midi": 60,
          "name": "C4",
          "ticks": 37248,
          "time": 115.24764,
          "velocity": 0.9212598425196851
        },
        {
          "duration": 0.14851500000000328,
          "durationTicks": 48,
          "midi": 62,
          "name": "D4",
          "ticks": 37392,
          "time": 115.693185,
          "velocity": 0.9212598425196851
        },
        {
          "duration": 0.14851500000000328,
          "durationTicks": 48,
          "midi": 59,
          "name": "B3",
          "ticks": 37392,
          "time": 115.693185,
          "velocity": 0.84251968503937
        },
        {
          "duration": 0.14851500000000328,
          "durationTicks": 48,
          "midi": 55,
          "name": "G3",
          "ticks": 37392,
          "time": 115.693185,
          "velocity": 0.84251968503937
        },
        {
          "duration": 0.14851500000000328,
          "durationTicks": 48,
          "midi": 55,
          "name": "G3",
          "ticks": 37536,
          "time": 116.13873000000001,
          "velocity": 0.84251968503937
        },
        {
          "duration": 0.14851500000000328,
          "durationTicks": 48,
          "midi": 60,
          "name": "C4",
          "ticks": 37536,
          "time": 116.13873000000001,
          "velocity": 0.84251968503937
        },
        {
          "duration": 0.14851500000000328,
          "durationTicks": 48,
          "midi": 57,
          "name": "A3",
          "ticks": 37536,
          "time": 116.13873000000001,
          "velocity": 0.84251968503937
        },
        {
          "duration": 0.14851500000000328,
          "durationTicks": 48,
          "midi": 64,
          "name": "E4",
          "ticks": 37536,
          "time": 116.13873000000001,
          "velocity": 0.9212598425196851
        },
        {
          "duration": 0.14851500000000328,
          "durationTicks": 48,
          "midi": 65,
          "name": "F4",
          "ticks": 38016,
          "time": 117.62388,
          "velocity": 0.9212598425196851
        },
        {
          "duration": 0.14851500000000328,
          "durationTicks": 48,
          "midi": 62,
          "name": "D4",
          "ticks": 38016,
          "time": 117.62388,
          "velocity": 0.8346456692913385
        },
        {
          "duration": 0.14851500000000328,
          "durationTicks": 48,
          "midi": 57,
          "name": "A3",
          "ticks": 38016,
          "time": 117.62388,
          "velocity": 0.8346456692913385
        },
        {
          "duration": 0.14851500000000328,
          "durationTicks": 48,
          "midi": 64,
          "name": "E4",
          "ticks": 38160,
          "time": 118.06942500000001,
          "velocity": 0.9212598425196851
        },
        {
          "duration": 0.14851500000000328,
          "durationTicks": 48,
          "midi": 59,
          "name": "B3",
          "ticks": 38160,
          "time": 118.06942500000001,
          "velocity": 0.8346456692913385
        },
        {
          "duration": 0.14851500000000328,
          "durationTicks": 48,
          "midi": 55,
          "name": "G3",
          "ticks": 38160,
          "time": 118.06942500000001,
          "velocity": 0.8346456692913385
        },
        {
          "duration": 0.14851500000000328,
          "durationTicks": 48,
          "midi": 60,
          "name": "C4",
          "ticks": 38304,
          "time": 118.51497,
          "velocity": 0.8346456692913385
        },
        {
          "duration": 0.14851500000000328,
          "durationTicks": 48,
          "midi": 64,
          "name": "E4",
          "ticks": 38304,
          "time": 118.51497,
          "velocity": 0.8346456692913385
        },
        {
          "duration": 0.14851500000000328,
          "durationTicks": 48,
          "midi": 57,
          "name": "A3",
          "ticks": 38304,
          "time": 118.51497,
          "velocity": 0.8346456692913385
        },
        {
          "duration": 0.14851500000000328,
          "durationTicks": 48,
          "midi": 67,
          "name": "G4",
          "ticks": 38304,
          "time": 118.51497,
          "velocity": 0.9212598425196851
        },
        {
          "duration": 0.14851500000000328,
          "durationTicks": 48,
          "midi": 53,
          "name": "F3",
          "ticks": 38784,
          "time": 120.00012000000001,
          "velocity": 0.8267716535433071
        },
        {
          "duration": 0.14851500000000328,
          "durationTicks": 48,
          "midi": 57,
          "name": "A3",
          "ticks": 38784,
          "time": 120.00012000000001,
          "velocity": 0.8267716535433071
        },
        {
          "duration": 0.14851500000000328,
          "durationTicks": 48,
          "midi": 60,
          "name": "C4",
          "ticks": 38784,
          "time": 120.00012000000001,
          "velocity": 0.8267716535433071
        },
        {
          "duration": 0.14851500000000328,
          "durationTicks": 48,
          "midi": 69,
          "name": "A4",
          "ticks": 38784,
          "time": 120.00012000000001,
          "velocity": 0.9212598425196851
        },
        {
          "duration": 0.14851500000000328,
          "durationTicks": 48,
          "midi": 67,
          "name": "G4",
          "ticks": 38928,
          "time": 120.445665,
          "velocity": 0.9212598425196851
        },
        {
          "duration": 0.14851500000000328,
          "durationTicks": 48,
          "midi": 62,
          "name": "D4",
          "ticks": 38928,
          "time": 120.445665,
          "velocity": 0.8267716535433071
        },
        {
          "duration": 0.14851500000000328,
          "durationTicks": 48,
          "midi": 59,
          "name": "B3",
          "ticks": 38928,
          "time": 120.445665,
          "velocity": 0.8267716535433071
        },
        {
          "duration": 0.14851500000000328,
          "durationTicks": 48,
          "midi": 55,
          "name": "G3",
          "ticks": 38928,
          "time": 120.445665,
          "velocity": 0.8267716535433071
        },
        {
          "duration": 0.14851500000000328,
          "durationTicks": 48,
          "midi": 55,
          "name": "G3",
          "ticks": 39072,
          "time": 120.89121,
          "velocity": 0.8267716535433071
        },
        {
          "duration": 0.14851500000000328,
          "durationTicks": 48,
          "midi": 57,
          "name": "A3",
          "ticks": 39072,
          "time": 120.89121,
          "velocity": 0.8267716535433071
        },
        {
          "duration": 0.14851500000000328,
          "durationTicks": 48,
          "midi": 60,
          "name": "C4",
          "ticks": 39072,
          "time": 120.89121,
          "velocity": 0.8267716535433071
        },
        {
          "duration": 0.14851500000000328,
          "durationTicks": 48,
          "midi": 64,
          "name": "E4",
          "ticks": 39072,
          "time": 120.89121,
          "velocity": 0.9212598425196851
        },
        {
          "duration": 0.14851500000000328,
          "durationTicks": 48,
          "midi": 57,
          "name": "A3",
          "ticks": 39552,
          "time": 122.37636,
          "velocity": 0.84251968503937
        },
        {
          "duration": 0.14851500000000328,
          "durationTicks": 48,
          "midi": 60,
          "name": "C4",
          "ticks": 39552,
          "time": 122.37636,
          "velocity": 0.84251968503937
        },
        {
          "duration": 0.14851500000000328,
          "durationTicks": 48,
          "midi": 65,
          "name": "F4",
          "ticks": 39552,
          "time": 122.37636,
          "velocity": 0.9212598425196851
        },
        {
          "duration": 0.14851500000000328,
          "durationTicks": 48,
          "midi": 64,
          "name": "E4",
          "ticks": 39696,
          "time": 122.821905,
          "velocity": 0.9212598425196851
        },
        {
          "duration": 0.14851500000000328,
          "durationTicks": 48,
          "midi": 59,
          "name": "B3",
          "ticks": 39696,
          "time": 122.821905,
          "velocity": 0.84251968503937
        },
        {
          "duration": 0.14851500000000328,
          "durationTicks": 48,
          "midi": 55,
          "name": "G3",
          "ticks": 39696,
          "time": 122.821905,
          "velocity": 0.84251968503937
        },
        {
          "duration": 0.14851499999998907,
          "durationTicks": 48,
          "midi": 57,
          "name": "A3",
          "ticks": 39840,
          "time": 123.26745000000001,
          "velocity": 0.9212598425196851
        },
        {
          "duration": 0.14851499999998907,
          "durationTicks": 48,
          "midi": 52,
          "name": "E3",
          "ticks": 39840,
          "time": 123.26745000000001,
          "velocity": 0.84251968503937
        },
        {
          "duration": 0.14851499999998907,
          "durationTicks": 48,
          "midi": 55,
          "name": "G3",
          "ticks": 39840,
          "time": 123.26745000000001,
          "velocity": 0.84251968503937
        }
      ],
      "endOfTrackTicks": 39938
    },
    {
      "channel": 2,
      "controlChanges": {
        "6": [
          {
            "number": 6,
            "ticks": 0,
            "time": 0,
            "value": 0.09448818897637795
          },
          {
            "number": 6,
            "ticks": 0,
            "time": 0,
            "value": 0.09448818897637795
          },
          {
            "number": 6,
            "ticks": 0,
            "time": 0,
            "value": 0.09448818897637795
          },
          {
            "number": 6,
            "ticks": 39936,
            "time": 123.56448,
            "value": 0.09448818897637795
          },
          {
            "number": 6,
            "ticks": 39938,
            "time": 123.570668125,
            "value": 0.09448818897637795
          }
        ],
        "7": [
          {
            "number": 7,
            "ticks": 0,
            "time": 0,
            "value": 0.7874015748031497
          },
          {
            "number": 7,
            "ticks": 0,
            "time": 0,
            "value": 0.7874015748031497
          },
          {
            "number": 7,
            "ticks": 0,
            "time": 0,
            "value": 0.7874015748031497
          },
          {
            "number": 7,
            "ticks": 0,
            "time": 0,
            "value": 0.7874015748031497
          },
          {
            "number": 7,
            "ticks": 39936,
            "time": 123.56448,
            "value": 0.7874015748031497
          },
          {
            "number": 7,
            "ticks": 39938,
            "time": 123.570668125,
            "value": 0.7874015748031497
          }
        ],
        "10": [
          {
            "number": 10,
            "ticks": 0,
            "time": 0,
            "value": 0.5039370078740157
          },
          {
            "number": 10,
            "ticks": 0,
            "time": 0,
            "value": 0.5039370078740157
          },
          {
            "number": 10,
            "ticks": 0,
            "time": 0,
            "value": 0.5039370078740157
          },
          {
            "number": 10,
            "ticks": 0,
            "time": 0,
            "value": 0.5039370078740157
          },
          {
            "number": 10,
            "ticks": 39936,
            "time": 123.56448,
            "value": 0.5039370078740157
          },
          {
            "number": 10,
            "ticks": 39938,
            "time": 123.570668125,
            "value": 0.5039370078740157
          }
        ],
        "100": [
          {
            "number": 100,
            "ticks": 0,
            "time": 0,
            "value": 0
          },
          {
            "number": 100,
            "ticks": 0,
            "time": 0,
            "value": 0
          },
          {
            "number": 100,
            "ticks": 0,
            "time": 0,
            "value": 0
          },
          {
            "number": 100,
            "ticks": 39936,
            "time": 123.56448,
            "value": 0
          },
          {
            "number": 100,
            "ticks": 39938,
            "time": 123.570668125,
            "value": 0
          }
        ],
        "101": [
          {
            "number": 101,
            "ticks": 0,
            "time": 0,
            "value": 0
          },
          {
            "number": 101,
            "ticks": 0,
            "time": 0,
            "value": 0
          },
          {
            "number": 101,
            "ticks": 0,
            "time": 0,
            "value": 0
          },
          {
            "number": 101,
            "ticks": 39936,
            "time": 123.56448,
            "value": 0
          },
          {
            "number": 101,
            "ticks": 39938,
            "time": 123.570668125,
            "value": 0
          }
        ]
      },
      "pitchBends": [
        {
          "ticks": 0,
          "time": 0,
          "value": 0
        },
        {
          "ticks": 0,
          "time": 0,
          "value": 0
        },
        {
          "ticks": 0,
          "time": 0,
          "value": 0
        },
        {
          "ticks": 0,
          "time": 0,
          "value": 0
        },
        {
          "ticks": 39936,
          "time": 123.56448,
          "value": 0
        },
        {
          "ticks": 39938,
          "time": 123.570668125,
          "value": 0
        }
      ],
      "instrument": {
        "family": "piano",
        "number": 0,
        "name": "acoustic grand piano"
      },
      "name": "Piano 2",
      "notes": [
        {
          "duration": 0.07425749999999987,
          "durationTicks": 24,
          "midi": 92,
          "name": "G#6",
          "ticks": 4800,
          "time": 14.851500000000001,
          "velocity": 0.9291338582677166
        },
        {
          "duration": 0.07425749999999987,
          "durationTicks": 24,
          "midi": 95,
          "name": "B6",
          "ticks": 4824,
          "time": 14.925757500000001,
          "velocity": 0.9291338582677166
        },
        {
          "duration": 0.07425749999999987,
          "durationTicks": 24,
          "midi": 97,
          "name": "C#7",
          "ticks": 4848,
          "time": 15.000015000000001,
          "velocity": 0.9291338582677166
        },
        {
          "duration": 0.07425749999999987,
          "durationTicks": 24,
          "midi": 99,
          "name": "D#7",
          "ticks": 4872,
          "time": 15.074272500000001,
          "velocity": 0.9291338582677166
        },
        {
          "duration": 0.07425749999999987,
          "durationTicks": 24,
          "midi": 102,
          "name": "F#7",
          "ticks": 4896,
          "time": 15.148530000000001,
          "velocity": 0.9291338582677166
        },
        {
          "duration": 0.07425749999999987,
          "durationTicks": 24,
          "midi": 99,
          "name": "D#7",
          "ticks": 4920,
          "time": 15.2227875,
          "velocity": 0.9291338582677166
        },
        {
          "duration": 0.07425749999999987,
          "durationTicks": 24,
          "midi": 97,
          "name": "C#7",
          "ticks": 4944,
          "time": 15.297045,
          "velocity": 0.9291338582677166
        },
        {
          "duration": 0.07425749999999987,
          "durationTicks": 24,
          "midi": 95,
          "name": "B6",
          "ticks": 4968,
          "time": 15.3713025,
          "velocity": 0.9291338582677166
        },
        {
          "duration": 0.5693075000000007,
          "durationTicks": 184,
          "midi": 89,
          "name": "F6",
          "ticks": 12672,
          "time": 39.20796,
          "velocity": 0.8740157480314961
        },
        {
          "duration": 0.5693074999999936,
          "durationTicks": 184,
          "midi": 91,
          "name": "G6",
          "ticks": 12674,
          "time": 39.21414812500001,
          "velocity": 0.8818897637795275
        },
        {
          "duration": 0.5167084374999931,
          "durationTicks": 167,
          "midi": 94,
          "name": "A#6",
          "ticks": 12683,
          "time": 39.241994687500004,
          "velocity": 0.8976377952755905
        },
        {
          "duration": 0.14851500000000328,
          "durationTicks": 48,
          "midi": 82,
          "name": "A#5",
          "ticks": 12912,
          "time": 39.950535,
          "velocity": 0.9291338582677166
        },
        {
          "duration": 0.14851499999999618,
          "durationTicks": 48,
          "midi": 89,
          "name": "F6",
          "ticks": 12960,
          "time": 40.099050000000005,
          "velocity": 0.9291338582677166
        },
        {
          "duration": 0.14851500000000328,
          "durationTicks": 48,
          "midi": 91,
          "name": "G6",
          "ticks": 13008,
          "time": 40.247565,
          "velocity": 0.9291338582677166
        },
        {
          "duration": 0.5167084375000002,
          "durationTicks": 167,
          "midi": 89,
          "name": "F6",
          "ticks": 13056,
          "time": 40.396080000000005,
          "velocity": 0.905511811023622
        },
        {
          "duration": 0.5167084375000002,
          "durationTicks": 167,
          "midi": 91,
          "name": "G6",
          "ticks": 13057,
          "time": 40.3991740625,
          "velocity": 0.905511811023622
        },
        {
          "duration": 0.5105203124999989,
          "durationTicks": 165,
          "midi": 94,
          "name": "A#6",
          "ticks": 13058,
          "time": 40.402268125000006,
          "velocity": 0.905511811023622
        },
        {
          "duration": 0.14851500000000328,
          "durationTicks": 48,
          "midi": 82,
          "name": "A#5",
          "ticks": 13200,
          "time": 40.841625,
          "velocity": 0.9291338582677166
        },
        {
          "duration": 0.5693074999999936,
          "durationTicks": 184,
          "midi": 89,
          "name": "F6",
          "ticks": 13440,
          "time": 41.5842,
          "velocity": 0.8740157480314961
        },
        {
          "duration": 0.5693075000000007,
          "durationTicks": 184,
          "midi": 91,
          "name": "G6",
          "ticks": 13442,
          "time": 41.590388125000004,
          "velocity": 0.8818897637795275
        },
        {
          "duration": 0.5167084374999931,
          "durationTicks": 167,
          "midi": 94,
          "name": "A#6",
          "ticks": 13451,
          "time": 41.618234687500006,
          "velocity": 0.8976377952755905
        },
        {
          "duration": 0.14851499999999618,
          "durationTicks": 48,
          "midi": 82,
          "name": "A#5",
          "ticks": 13680,
          "time": 42.326775000000005,
          "velocity": 0.9291338582677166
        },
        {
          "duration": 0.14851500000000328,
          "durationTicks": 48,
          "midi": 89,
          "name": "F6",
          "ticks": 13728,
          "time": 42.47529,
          "velocity": 0.9291338582677166
        },
        {
          "duration": 0.14851499999999618,
          "durationTicks": 48,
          "midi": 91,
          "name": "G6",
          "ticks": 13776,
          "time": 42.623805000000004,
          "velocity": 0.9291338582677166
        },
        {
          "duration": 0.5167084375000073,
          "durationTicks": 167,
          "midi": 91,
          "name": "G6",
          "ticks": 13824,
          "time": 42.77232,
          "velocity": 0.8976377952755905
        },
        {
          "duration": 0.5167084375000073,
          "durationTicks": 167,
          "midi": 94,
          "name": "A#6",
          "ticks": 13827,
          "time": 42.7816021875,
          "velocity": 0.8976377952755905
        },
        {
          "duration": 0.5167084374999931,
          "durationTicks": 167,
          "midi": 96,
          "name": "C7",
          "ticks": 13832,
          "time": 42.797072500000006,
          "velocity": 0.8976377952755905
        },
        {
          "duration": 0.5693074999999936,
          "durationTicks": 184,
          "midi": 89,
          "name": "F6",
          "ticks": 14208,
          "time": 43.960440000000006,
          "velocity": 0.8740157480314961
        },
        {
          "duration": 0.5693074999999936,
          "durationTicks": 184,
          "midi": 91,
          "name": "G6",
          "ticks": 14210,
          "time": 43.96662812500001,
          "velocity": 0.8818897637795275
        },
        {
          "duration": 0.5167084375000002,
          "durationTicks": 167,
          "midi": 94,
          "name": "A#6",
          "ticks": 14219,
          "time": 43.9944746875,
          "velocity": 0.8976377952755905
        },
        {
          "duration": 0.14851500000000328,
          "durationTicks": 48,
          "midi": 82,
          "name": "A#5",
          "ticks": 14448,
          "time": 44.703015,
          "velocity": 0.9291338582677166
        },
        {
          "duration": 0.14851499999999618,
          "durationTicks": 48,
          "midi": 89,
          "name": "F6",
          "ticks": 14496,
          "time": 44.851530000000004,
          "velocity": 0.9291338582677166
        },
        {
          "duration": 0.14851500000000328,
          "durationTicks": 48,
          "midi": 91,
          "name": "G6",
          "ticks": 14544,
          "time": 45.000045,
          "velocity": 0.9291338582677166
        },
        {
          "duration": 0.5167084375000002,
          "durationTicks": 167,
          "midi": 89,
          "name": "F6",
          "ticks": 14592,
          "time": 45.14856,
          "velocity": 0.905511811023622
        },
        {
          "duration": 0.5167084375000002,
          "durationTicks": 167,
          "midi": 91,
          "name": "G6",
          "ticks": 14593,
          "time": 45.1516540625,
          "velocity": 0.905511811023622
        },
        {
          "duration": 0.5105203124999989,
          "durationTicks": 165,
          "midi": 94,
          "name": "A#6",
          "ticks": 14594,
          "time": 45.154748125000005,
          "velocity": 0.905511811023622
        },
        {
          "duration": 0.5105203124999989,
          "durationTicks": 165,
          "midi": 84,
          "name": "C6",
          "ticks": 14784,
          "time": 45.74262,
          "velocity": 0.905511811023622
        },
        {
          "duration": 0.5105203124999989,
          "durationTicks": 165,
          "midi": 87,
          "name": "D#6",
          "ticks": 14784,
          "time": 45.74262,
          "velocity": 0.905511811023622
        },
        {
          "duration": 0.5105203124999989,
          "durationTicks": 165,
          "midi": 91,
          "name": "G6",
          "ticks": 14787,
          "time": 45.7519021875,
          "velocity": 0.905511811023622
        },
        {
          "duration": 0.5105203124999989,
          "durationTicks": 165,
          "midi": 96,
          "name": "C7",
          "ticks": 14800,
          "time": 45.792125,
          "velocity": 0.905511811023622
        },
        {
          "duration": 0.5693075000000007,
          "durationTicks": 184,
          "midi": 89,
          "name": "F6",
          "ticks": 14976,
          "time": 46.33668,
          "velocity": 0.8740157480314961
        },
        {
          "duration": 0.5693075000000007,
          "durationTicks": 184,
          "midi": 91,
          "name": "G6",
          "ticks": 14978,
          "time": 46.342868125,
          "velocity": 0.8818897637795275
        },
        {
          "duration": 0.5167084374999931,
          "durationTicks": 167,
          "midi": 94,
          "name": "A#6",
          "ticks": 14987,
          "time": 46.370714687500005,
          "velocity": 0.8976377952755905
        },
        {
          "duration": 0.14851499999999618,
          "durationTicks": 48,
          "midi": 82,
          "name": "A#5",
          "ticks": 15216,
          "time": 47.079255,
          "velocity": 0.9291338582677166
        },
        {
          "duration": 0.14851500000000328,
          "durationTicks": 48,
          "midi": 89,
          "name": "F6",
          "ticks": 15264,
          "time": 47.22777,
          "velocity": 0.9291338582677166
        },
        {
          "duration": 0.14851499999999618,
          "durationTicks": 48,
          "midi": 91,
          "name": "G6",
          "ticks": 15312,
          "time": 47.376285,
          "velocity": 0.9291338582677166
        },
        {
          "duration": 0.5167084375000073,
          "durationTicks": 167,
          "midi": 91,
          "name": "G6",
          "ticks": 15360,
          "time": 47.5248,
          "velocity": 0.8976377952755905
        },
        {
          "duration": 0.5167084375000002,
          "durationTicks": 167,
          "midi": 94,
          "name": "A#6",
          "ticks": 15363,
          "time": 47.534082187500005,
          "velocity": 0.8976377952755905
        },
        {
          "duration": 0.5167084374999931,
          "durationTicks": 167,
          "midi": 96,
          "name": "C7",
          "ticks": 15368,
          "time": 47.549552500000004,
          "velocity": 0.8976377952755905
        },
        {
          "duration": 0.14542093749999907,
          "durationTicks": 47,
          "midi": 91,
          "name": "G6",
          "ticks": 15624,
          "time": 48.3416325,
          "velocity": 0.8503937007874016
        },
        {
          "duration": 0.14542093750000618,
          "durationTicks": 47,
          "midi": 94,
          "name": "A#6",
          "ticks": 15696,
          "time": 48.564405,
          "velocity": 0.8503937007874016
        },
        {
          "duration": 0.5693074999999936,
          "durationTicks": 184,
          "midi": 89,
          "name": "F6",
          "ticks": 15744,
          "time": 48.712920000000004,
          "velocity": 0.8031496062992126
        },
        {
          "duration": 0.5693075000000007,
          "durationTicks": 184,
          "midi": 91,
          "name": "G6",
          "ticks": 15746,
          "time": 48.719108125000005,
          "velocity": 0.8110236220472441
        },
        {
          "duration": 0.5167084374999931,
          "durationTicks": 167,
          "midi": 94,
          "name": "A#6",
          "ticks": 15755,
          "time": 48.74695468750001,
          "velocity": 0.8267716535433071
        },
        {
          "duration": 0.14851499999999618,
          "durationTicks": 48,
          "midi": 82,
          "name": "A#5",
          "ticks": 15984,
          "time": 49.455495000000006,
          "velocity": 0.8582677165354331
        },
        {
          "duration": 0.14851500000000328,
          "durationTicks": 48,
          "midi": 89,
          "name": "F6",
          "ticks": 16032,
          "time": 49.60401,
          "velocity": 0.8582677165354331
        },
        {
          "duration": 0.14851499999999618,
          "durationTicks": 48,
          "midi": 91,
          "name": "G6",
          "ticks": 16080,
          "time": 49.752525000000006,
          "velocity": 0.8582677165354331
        },
        {
          "duration": 0.5167084375000073,
          "durationTicks": 167,
          "midi": 89,
          "name": "F6",
          "ticks": 16128,
          "time": 49.90104,
          "velocity": 0.8346456692913385
        },
        {
          "duration": 0.5167084375000073,
          "durationTicks": 167,
          "midi": 91,
          "name": "G6",
          "ticks": 16129,
          "time": 49.9041340625,
          "velocity": 0.8346456692913385
        },
        {
          "duration": 0.510520312500006,
          "durationTicks": 165,
          "midi": 94,
          "name": "A#6",
          "ticks": 16130,
          "time": 49.907228125,
          "velocity": 0.8346456692913385
        },
        {
          "duration": 0.07116343750000453,
          "durationTicks": 23,
          "midi": 103,
          "name": "G7",
          "ticks": 16320,
          "time": 50.4951,
          "velocity": 0.8267716535433071
        },
        {
          "duration": 0.07116343750000453,
          "durationTicks": 23,
          "midi": 101,
          "name": "F7",
          "ticks": 16344,
          "time": 50.5693575,
          "velocity": 0.8267716535433071
        },
        {
          "duration": 0.07116343750000453,
          "durationTicks": 23,
          "midi": 103,
          "name": "G7",
          "ticks": 16368,
          "time": 50.643615000000004,
          "velocity": 0.7795275590551181
        },
        {
          "duration": 0.07116343749999743,
          "durationTicks": 23,
          "midi": 99,
          "name": "D#7",
          "ticks": 16392,
          "time": 50.717872500000006,
          "velocity": 0.7795275590551181
        },
        {
          "duration": 0.14542093750000618,
          "durationTicks": 47,
          "midi": 94,
          "name": "A#6",
          "ticks": 16416,
          "time": 50.79213,
          "velocity": 0.8267716535433071
        },
        {
          "duration": 0.5693075000000007,
          "durationTicks": 184,
          "midi": 89,
          "name": "F6",
          "ticks": 16512,
          "time": 51.08916,
          "velocity": 0.8031496062992126
        },
        {
          "duration": 0.5693074999999936,
          "durationTicks": 184,
          "midi": 91,
          "name": "G6",
          "ticks": 16514,
          "time": 51.09534812500001,
          "velocity": 0.8110236220472441
        },
        {
          "duration": 0.5167084374999931,
          "durationTicks": 167,
          "midi": 94,
          "name": "A#6",
          "ticks": 16523,
          "time": 51.1231946875,
          "velocity": 0.8267716535433071
        },
        {
          "duration": 0.14851500000000328,
          "durationTicks": 48,
          "midi": 82,
          "name": "A#5",
          "ticks": 16752,
          "time": 51.831735,
          "velocity": 0.8582677165354331
        },
        {
          "duration": 0.14851499999999618,
          "durationTicks": 48,
          "midi": 89,
          "name": "F6",
          "ticks": 16800,
          "time": 51.980250000000005,
          "velocity": 0.8582677165354331
        },
        {
          "duration": 0.14851500000000328,
          "durationTicks": 48,
          "midi": 91,
          "name": "G6",
          "ticks": 16848,
          "time": 52.128765,
          "velocity": 0.8582677165354331
        },
        {
          "duration": 0.5167084375000002,
          "durationTicks": 167,
          "midi": 91,
          "name": "G6",
          "ticks": 16896,
          "time": 52.277280000000005,
          "velocity": 0.8267716535433071
        },
        {
          "duration": 0.5167084375000002,
          "durationTicks": 167,
          "midi": 94,
          "name": "A#6",
          "ticks": 16899,
          "time": 52.2865621875,
          "velocity": 0.8267716535433071
        },
        {
          "duration": 0.5167084375000002,
          "durationTicks": 167,
          "midi": 96,
          "name": "C7",
          "ticks": 16904,
          "time": 52.3020325,
          "velocity": 0.8267716535433071
        },
        {
          "duration": 0.5693075000000007,
          "durationTicks": 184,
          "midi": 90,
          "name": "F#6",
          "ticks": 17280,
          "time": 53.4654,
          "velocity": 0.8031496062992126
        },
        {
          "duration": 0.5693075000000007,
          "durationTicks": 184,
          "midi": 92,
          "name": "G#6",
          "ticks": 17282,
          "time": 53.471588125000004,
          "velocity": 0.8110236220472441
        },
        {
          "duration": 0.5167084374999931,
          "durationTicks": 167,
          "midi": 95,
          "name": "B6",
          "ticks": 17291,
          "time": 53.499434687500006,
          "velocity": 0.8267716535433071
        },
        {
          "duration": 0.14851499999999618,
          "durationTicks": 48,
          "midi": 83,
          "name": "B5",
          "ticks": 17520,
          "time": 54.207975000000005,
          "velocity": 0.8582677165354331
        },
        {
          "duration": 0.14851500000000328,
          "durationTicks": 48,
          "midi": 90,
          "name": "F#6",
          "ticks": 17568,
          "time": 54.35649,
          "velocity": 0.8582677165354331
        },
        {
          "duration": 0.14851499999999618,
          "durationTicks": 48,
          "midi": 92,
          "name": "G#6",
          "ticks": 17616,
          "time": 54.505005000000004,
          "velocity": 0.8582677165354331
        },
        {
          "duration": 0.5167084375000073,
          "durationTicks": 167,
          "midi": 90,
          "name": "F#6",
          "ticks": 17664,
          "time": 54.65352,
          "velocity": 0.8346456692913385
        },
        {
          "duration": 0.5167084375000073,
          "durationTicks": 167,
          "midi": 92,
          "name": "G#6",
          "ticks": 17665,
          "time": 54.6566140625,
          "velocity": 0.8346456692913385
        },
        {
          "duration": 0.5105203124999989,
          "durationTicks": 165,
          "midi": 95,
          "name": "B6",
          "ticks": 17666,
          "time": 54.65970812500001,
          "velocity": 0.8346456692913385
        },
        {
          "duration": 0.07116343749999743,
          "durationTicks": 23,
          "midi": 104,
          "name": "G#7",
          "ticks": 17856,
          "time": 55.247580000000006,
          "velocity": 0.8267716535433071
        },
        {
          "duration": 0.07116343750000453,
          "durationTicks": 23,
          "midi": 102,
          "name": "F#7",
          "ticks": 17880,
          "time": 55.3218375,
          "velocity": 0.8267716535433071
        },
        {
          "duration": 0.07116343750000453,
          "durationTicks": 23,
          "midi": 104,
          "name": "G#7",
          "ticks": 17904,
          "time": 55.396095,
          "velocity": 0.7795275590551181
        },
        {
          "duration": 0.07116343750000453,
          "durationTicks": 23,
          "midi": 100,
          "name": "E7",
          "ticks": 17928,
          "time": 55.470352500000004,
          "velocity": 0.7795275590551181
        },
        {
          "duration": 0.14542093749999907,
          "durationTicks": 47,
          "midi": 95,
          "name": "B6",
          "ticks": 17952,
          "time": 55.544610000000006,
          "velocity": 0.8267716535433071
        },
        {
          "duration": 0.5693074999999936,
          "durationTicks": 184,
          "midi": 90,
          "name": "F#6",
          "ticks": 18048,
          "time": 55.841640000000005,
          "velocity": 0.8031496062992126
        },
        {
          "duration": 0.5693074999999936,
          "durationTicks": 184,
          "midi": 92,
          "name": "G#6",
          "ticks": 18050,
          "time": 55.84782812500001,
          "velocity": 0.8110236220472441
        },
        {
          "duration": 0.5167084374999931,
          "durationTicks": 167,
          "midi": 95,
          "name": "B6",
          "ticks": 18059,
          "time": 55.87567468750001,
          "velocity": 0.8267716535433071
        },
        {
          "duration": 0.4084162500000019,
          "durationTicks": 132,
          "midi": 57,
          "name": "A3",
          "ticks": 18816,
          "time": 58.21788,
          "velocity": 0.7086614173228346
        },
        {
          "duration": 0.14851499999999618,
          "durationTicks": 48,
          "midi": 68,
          "name": "G#4",
          "ticks": 18960,
          "time": 58.663425000000004,
          "velocity": 0.6929133858267716
        },
        {
          "duration": 0.14851499999999618,
          "durationTicks": 48,
          "midi": 64,
          "name": "E4",
          "ticks": 18960,
          "time": 58.663425000000004,
          "velocity": 0.6614173228346457
        },
        {
          "duration": 0.14851499999999618,
          "durationTicks": 48,
          "midi": 61,
          "name": "C#4",
          "ticks": 18960,
          "time": 58.663425000000004,
          "velocity": 0.6929133858267716
        },
        {
          "duration": 0.44554500000000274,
          "durationTicks": 144,
          "midi": 66,
          "name": "F#4",
          "ticks": 19056,
          "time": 58.960455,
          "velocity": 0.6929133858267716
        },
        {
          "duration": 0.44554500000000274,
          "durationTicks": 144,
          "midi": 63,
          "name": "D#4",
          "ticks": 19056,
          "time": 58.960455,
          "velocity": 0.7086614173228346
        },
        {
          "duration": 0.44554500000000274,
          "durationTicks": 144,
          "midi": 60,
          "name": "C4",
          "ticks": 19056,
          "time": 58.960455,
          "velocity": 0.6771653543307087
        },
        {
          "duration": 0.4084162499999948,
          "durationTicks": 132,
          "midi": 61,
          "name": "C#4",
          "ticks": 19200,
          "time": 59.406000000000006,
          "velocity": 0.7086614173228346
        },
        {
          "duration": 0.14851500000000328,
          "durationTicks": 48,
          "midi": 59,
          "name": "B3",
          "ticks": 19344,
          "time": 59.851545,
          "velocity": 0.7086614173228346
        },
        {
          "duration": 0.14851500000000328,
          "durationTicks": 48,
          "midi": 64,
          "name": "E4",
          "ticks": 19344,
          "time": 59.851545,
          "velocity": 0.7086614173228346
        },
        {
          "duration": 0.14851500000000328,
          "durationTicks": 48,
          "midi": 68,
          "name": "G#4",
          "ticks": 19344,
          "time": 59.851545,
          "velocity": 0.7086614173228346
        },
        {
          "duration": 0.14851500000000328,
          "durationTicks": 48,
          "midi": 61,
          "name": "C#4",
          "ticks": 19344,
          "time": 59.851545,
          "velocity": 0.7086614173228346
        },
        {
          "duration": 0.44554500000000274,
          "durationTicks": 144,
          "midi": 61,
          "name": "C#4",
          "ticks": 19440,
          "time": 60.148575,
          "velocity": 0.6771653543307087
        },
        {
          "duration": 0.44554500000000274,
          "durationTicks": 144,
          "midi": 64,
          "name": "E4",
          "ticks": 19440,
          "time": 60.148575,
          "velocity": 0.6929133858267716
        },
        {
          "duration": 0.44554500000000274,
          "durationTicks": 144,
          "midi": 68,
          "name": "G#4",
          "ticks": 19440,
          "time": 60.148575,
          "velocity": 0.6771653543307087
        },
        {
          "duration": 0.44554500000000274,
          "durationTicks": 144,
          "midi": 58,
          "name": "A#3",
          "ticks": 19440,
          "time": 60.148575,
          "velocity": 0.7086614173228346
        },
        {
          "duration": 0.4084162500000019,
          "durationTicks": 132,
          "midi": 57,
          "name": "A3",
          "ticks": 19584,
          "time": 60.594120000000004,
          "velocity": 0.7086614173228346
        },
        {
          "duration": 0.14851499999999618,
          "durationTicks": 48,
          "midi": 61,
          "name": "C#4",
          "ticks": 19728,
          "time": 61.03966500000001,
          "velocity": 0.6771653543307087
        },
        {
          "duration": 0.14851499999999618,
          "durationTicks": 48,
          "midi": 64,
          "name": "E4",
          "ticks": 19728,
          "time": 61.03966500000001,
          "velocity": 0.6929133858267716
        },
        {
          "duration": 0.14851499999999618,
          "durationTicks": 48,
          "midi": 68,
          "name": "G#4",
          "ticks": 19728,
          "time": 61.03966500000001,
          "velocity": 0.6929133858267716
        },
        {
          "duration": 0.44554499999999564,
          "durationTicks": 144,
          "midi": 63,
          "name": "D#4",
          "ticks": 19824,
          "time": 61.336695000000006,
          "velocity": 0.6929133858267716
        },
        {
          "duration": 0.44554499999999564,
          "durationTicks": 144,
          "midi": 60,
          "name": "C4",
          "ticks": 19824,
          "time": 61.336695000000006,
          "velocity": 0.7086614173228346
        },
        {
          "duration": 0.44554499999999564,
          "durationTicks": 144,
          "midi": 66,
          "name": "F#4",
          "ticks": 19824,
          "time": 61.336695000000006,
          "velocity": 0.6771653543307087
        },
        {
          "duration": 0.29702999999999946,
          "durationTicks": 96,
          "midi": 61,
          "name": "C#4",
          "ticks": 19968,
          "time": 61.78224,
          "velocity": 0.6929133858267716
        },
        {
          "duration": 0.29702999999999946,
          "durationTicks": 96,
          "midi": 68,
          "name": "G#4",
          "ticks": 19968,
          "time": 61.78224,
          "velocity": 0.7086614173228346
        },
        {
          "duration": 0.29702999999999946,
          "durationTicks": 96,
          "midi": 64,
          "name": "E4",
          "ticks": 19968,
          "time": 61.78224,
          "velocity": 0.6614173228346457
        },
        {
          "duration": 0.29702999999999946,
          "durationTicks": 96,
          "midi": 60,
          "name": "C4",
          "ticks": 20064,
          "time": 62.07927,
          "velocity": 0.6929133858267716
        },
        {
          "duration": 0.29702999999999946,
          "durationTicks": 96,
          "midi": 68,
          "name": "G#4",
          "ticks": 20064,
          "time": 62.07927,
          "velocity": 0.7086614173228346
        },
        {
          "duration": 0.29702999999999946,
          "durationTicks": 96,
          "midi": 64,
          "name": "E4",
          "ticks": 20064,
          "time": 62.07927,
          "velocity": 0.6771653543307087
        },
        {
          "duration": 0.29702999999999946,
          "durationTicks": 96,
          "midi": 64,
          "name": "E4",
          "ticks": 20160,
          "time": 62.3763,
          "velocity": 0.6614173228346457
        },
        {
          "duration": 0.29702999999999946,
          "durationTicks": 96,
          "midi": 68,
          "name": "G#4",
          "ticks": 20160,
          "time": 62.3763,
          "velocity": 0.7086614173228346
        },
        {
          "duration": 0.29702999999999946,
          "durationTicks": 96,
          "midi": 59,
          "name": "B3",
          "ticks": 20160,
          "time": 62.3763,
          "velocity": 0.6929133858267716
        },
        {
          "duration": 0.29703000000000657,
          "durationTicks": 96,
          "midi": 64,
          "name": "E4",
          "ticks": 20256,
          "time": 62.67333,
          "velocity": 0.6771653543307087
        },
        {
          "duration": 0.29703000000000657,
          "durationTicks": 96,
          "midi": 68,
          "name": "G#4",
          "ticks": 20256,
          "time": 62.67333,
          "velocity": 0.6929133858267716
        },
        {
          "duration": 0.29703000000000657,
          "durationTicks": 96,
          "midi": 58,
          "name": "A#3",
          "ticks": 20256,
          "time": 62.67333,
          "velocity": 0.7086614173228346
        },
        {
          "duration": 0.4084162499999948,
          "durationTicks": 132,
          "midi": 57,
          "name": "A3",
          "ticks": 20352,
          "time": 62.97036000000001,
          "velocity": 0.7086614173228346
        },
        {
          "duration": 0.14851500000000328,
          "durationTicks": 48,
          "midi": 61,
          "name": "C#4",
          "ticks": 20496,
          "time": 63.415905,
          "velocity": 0.6771653543307087
        },
        {
          "duration": 0.14851500000000328,
          "durationTicks": 48,
          "midi": 64,
          "name": "E4",
          "ticks": 20496,
          "time": 63.415905,
          "velocity": 0.6771653543307087
        },
        {
          "duration": 0.14851500000000328,
          "durationTicks": 48,
          "midi": 68,
          "name": "G#4",
          "ticks": 20496,
          "time": 63.415905,
          "velocity": 0.6771653543307087
        },
        {
          "duration": 0.44554499999999564,
          "durationTicks": 144,
          "midi": 66,
          "name": "F#4",
          "ticks": 20592,
          "time": 63.712935,
          "velocity": 0.6929133858267716
        },
        {
          "duration": 0.44554499999999564,
          "durationTicks": 144,
          "midi": 63,
          "name": "D#4",
          "ticks": 20592,
          "time": 63.712935,
          "velocity": 0.6929133858267716
        },
        {
          "duration": 0.44554499999999564,
          "durationTicks": 144,
          "midi": 60,
          "name": "C4",
          "ticks": 20592,
          "time": 63.712935,
          "velocity": 0.6929133858267716
        },
        {
          "duration": 0.4084162500000019,
          "durationTicks": 132,
          "midi": 61,
          "name": "C#4",
          "ticks": 20736,
          "time": 64.15848,
          "velocity": 0.7086614173228346
        },
        {
          "duration": 0.14851500000000328,
          "durationTicks": 48,
          "midi": 68,
          "name": "G#4",
          "ticks": 20880,
          "time": 64.60402500000001,
          "velocity": 0.7086614173228346
        },
        {
          "duration": 0.14851500000000328,
          "durationTicks": 48,
          "midi": 61,
          "name": "C#4",
          "ticks": 20880,
          "time": 64.60402500000001,
          "velocity": 0.6614173228346457
        },
        {
          "duration": 0.14851500000000328,
          "durationTicks": 48,
          "midi": 64,
          "name": "E4",
          "ticks": 20880,
          "time": 64.60402500000001,
          "velocity": 0.7086614173228346
        },
        {
          "duration": 0.14851500000000328,
          "durationTicks": 48,
          "midi": 59,
          "name": "B3",
          "ticks": 20880,
          "time": 64.60402500000001,
          "velocity": 0.6771653543307087
        },
        {
          "duration": 0.44554500000000985,
          "durationTicks": 144,
          "midi": 61,
          "name": "C#4",
          "ticks": 20976,
          "time": 64.901055,
          "velocity": 0.6614173228346457
        },
        {
          "duration": 0.44554500000000985,
          "durationTicks": 144,
          "midi": 64,
          "name": "E4",
          "ticks": 20976,
          "time": 64.901055,
          "velocity": 0.7086614173228346
        },
        {
          "duration": 0.44554500000000985,
          "durationTicks": 144,
          "midi": 68,
          "name": "G#4",
          "ticks": 20976,
          "time": 64.901055,
          "velocity": 0.6614173228346457
        },
        {
          "duration": 0.44554500000000985,
          "durationTicks": 144,
          "midi": 58,
          "name": "A#3",
          "ticks": 20976,
          "time": 64.901055,
          "velocity": 0.6771653543307087
        },
        {
          "duration": 0.4084162499999877,
          "durationTicks": 132,
          "midi": 57,
          "name": "A3",
          "ticks": 21120,
          "time": 65.34660000000001,
          "velocity": 0.7086614173228346
        },
        {
          "duration": 0.14851500000000328,
          "durationTicks": 48,
          "midi": 68,
          "name": "G#4",
          "ticks": 21264,
          "time": 65.792145,
          "velocity": 0.6614173228346457
        },
        {
          "duration": 0.14851500000000328,
          "durationTicks": 48,
          "midi": 64,
          "name": "E4",
          "ticks": 21264,
          "time": 65.792145,
          "velocity": 0.6929133858267716
        },
        {
          "duration": 0.14851500000000328,
          "durationTicks": 48,
          "midi": 61,
          "name": "C#4",
          "ticks": 21264,
          "time": 65.792145,
          "velocity": 0.6771653543307087
        },
        {
          "duration": 0.44554500000000985,
          "durationTicks": 144,
          "midi": 63,
          "name": "D#4",
          "ticks": 21360,
          "time": 66.089175,
          "velocity": 0.6929133858267716
        },
        {
          "duration": 0.44554500000000985,
          "durationTicks": 144,
          "midi": 60,
          "name": "C4",
          "ticks": 21360,
          "time": 66.089175,
          "velocity": 0.6771653543307087
        },
        {
          "duration": 0.44554500000000985,
          "durationTicks": 144,
          "midi": 66,
          "name": "F#4",
          "ticks": 21360,
          "time": 66.089175,
          "velocity": 0.6614173228346457
        },
        {
          "duration": 0.29702999999999236,
          "durationTicks": 96,
          "midi": 64,
          "name": "E4",
          "ticks": 21504,
          "time": 66.53472000000001,
          "velocity": 0.7086614173228346
        },
        {
          "duration": 0.29702999999999236,
          "durationTicks": 96,
          "midi": 68,
          "name": "G#4",
          "ticks": 21504,
          "time": 66.53472000000001,
          "velocity": 0.6771653543307087
        },
        {
          "duration": 0.29702999999999236,
          "durationTicks": 96,
          "midi": 61,
          "name": "C#4",
          "ticks": 21504,
          "time": 66.53472000000001,
          "velocity": 0.6771653543307087
        },
        {
          "duration": 0.29703000000000657,
          "durationTicks": 96,
          "midi": 60,
          "name": "C4",
          "ticks": 21600,
          "time": 66.83175,
          "velocity": 0.6771653543307087
        },
        {
          "duration": 0.29703000000000657,
          "durationTicks": 96,
          "midi": 68,
          "name": "G#4",
          "ticks": 21600,
          "time": 66.83175,
          "velocity": 0.6929133858267716
        },
        {
          "duration": 0.29703000000000657,
          "durationTicks": 96,
          "midi": 64,
          "name": "E4",
          "ticks": 21600,
          "time": 66.83175,
          "velocity": 0.6929133858267716
        },
        {
          "duration": 0.29702999999999236,
          "durationTicks": 96,
          "midi": 64,
          "name": "E4",
          "ticks": 21696,
          "time": 67.12878,
          "velocity": 0.6771653543307087
        },
        {
          "duration": 0.29702999999999236,
          "durationTicks": 96,
          "midi": 68,
          "name": "G#4",
          "ticks": 21696,
          "time": 67.12878,
          "velocity": 0.6614173228346457
        },
        {
          "duration": 0.29702999999999236,
          "durationTicks": 96,
          "midi": 59,
          "name": "B3",
          "ticks": 21696,
          "time": 67.12878,
          "velocity": 0.6771653543307087
        },
        {
          "duration": 0.29703000000000657,
          "durationTicks": 96,
          "midi": 58,
          "name": "A#3",
          "ticks": 21792,
          "time": 67.42581,
          "velocity": 0.6929133858267716
        },
        {
          "duration": 0.29703000000000657,
          "durationTicks": 96,
          "midi": 68,
          "name": "G#4",
          "ticks": 21792,
          "time": 67.42581,
          "velocity": 0.6929133858267716
        },
        {
          "duration": 0.29703000000000657,
          "durationTicks": 96,
          "midi": 64,
          "name": "E4",
          "ticks": 21792,
          "time": 67.42581,
          "velocity": 0.6771653543307087
        },
        {
          "duration": 0.07425750000000164,
          "durationTicks": 24,
          "midi": 81,
          "name": "A5",
          "ticks": 31872,
          "time": 98.61396,
          "velocity": 0.8740157480314961
        },
        {
          "duration": 0.07425750000000164,
          "durationTicks": 24,
          "midi": 76,
          "name": "E5",
          "ticks": 31896,
          "time": 98.68821750000001,
          "velocity": 0.8740157480314961
        },
        {
          "duration": 0.07425750000000164,
          "durationTicks": 24,
          "midi": 72,
          "name": "C5",
          "ticks": 31920,
          "time": 98.76247500000001,
          "velocity": 0.8740157480314961
        },
        {
          "duration": 0.07425750000000164,
          "durationTicks": 24,
          "midi": 84,
          "name": "C6",
          "ticks": 31944,
          "time": 98.83673250000001,
          "velocity": 0.8740157480314961
        },
        {
          "duration": 0.07425749999998743,
          "durationTicks": 24,
          "midi": 83,
          "name": "B5",
          "ticks": 31968,
          "time": 98.91099000000001,
          "velocity": 0.8740157480314961
        },
        {
          "duration": 0.07425750000000164,
          "durationTicks": 24,
          "midi": 79,
          "name": "G5",
          "ticks": 31992,
          "time": 98.9852475,
          "velocity": 0.8740157480314961
        },
        {
          "duration": 0.07425750000000164,
          "durationTicks": 24,
          "midi": 81,
          "name": "A5",
          "ticks": 32016,
          "time": 99.059505,
          "velocity": 0.8740157480314961
        },
        {
          "duration": 0.07425750000000164,
          "durationTicks": 24,
          "midi": 76,
          "name": "E5",
          "ticks": 32040,
          "time": 99.1337625,
          "velocity": 0.8740157480314961
        },
        {
          "duration": 0.07425750000000164,
          "durationTicks": 24,
          "midi": 74,
          "name": "D5",
          "ticks": 32064,
          "time": 99.20802,
          "velocity": 0.8740157480314961
        },
        {
          "duration": 0.07425750000000164,
          "durationTicks": 24,
          "midi": 79,
          "name": "G5",
          "ticks": 32088,
          "time": 99.2822775,
          "velocity": 0.8740157480314961
        },
        {
          "duration": 0.07425750000000164,
          "durationTicks": 24,
          "midi": 76,
          "name": "E5",
          "ticks": 32112,
          "time": 99.35653500000001,
          "velocity": 0.8740157480314961
        },
        {
          "duration": 0.07425750000000164,
          "durationTicks": 24,
          "midi": 72,
          "name": "C5",
          "ticks": 32136,
          "time": 99.43079250000001,
          "velocity": 0.8740157480314961
        },
        {
          "duration": 0.07425749999998743,
          "durationTicks": 24,
          "midi": 79,
          "name": "G5",
          "ticks": 32160,
          "time": 99.50505000000001,
          "velocity": 0.8740157480314961
        },
        {
          "duration": 0.07425750000000164,
          "durationTicks": 24,
          "midi": 76,
          "name": "E5",
          "ticks": 32184,
          "time": 99.5793075,
          "velocity": 0.8740157480314961
        },
        {
          "duration": 0.07425750000000164,
          "durationTicks": 24,
          "midi": 74,
          "name": "D5",
          "ticks": 32208,
          "time": 99.653565,
          "velocity": 0.8740157480314961
        },
        {
          "duration": 0.07425750000000164,
          "durationTicks": 24,
          "midi": 80,
          "name": "G#5",
          "ticks": 32232,
          "time": 99.7278225,
          "velocity": 0.8740157480314961
        },
        {
          "duration": 0.07425750000000164,
          "durationTicks": 24,
          "midi": 81,
          "name": "A5",
          "ticks": 32256,
          "time": 99.80208,
          "velocity": 0.8740157480314961
        },
        {
          "duration": 0.07425750000000164,
          "durationTicks": 24,
          "midi": 76,
          "name": "E5",
          "ticks": 32280,
          "time": 99.8763375,
          "velocity": 0.8740157480314961
        },
        {
          "duration": 0.07425750000000164,
          "durationTicks": 24,
          "midi": 72,
          "name": "C5",
          "ticks": 32304,
          "time": 99.950595,
          "velocity": 0.8740157480314961
        },
        {
          "duration": 0.07425750000000164,
          "durationTicks": 24,
          "midi": 84,
          "name": "C6",
          "ticks": 32328,
          "time": 100.02485250000001,
          "velocity": 0.8740157480314961
        },
        {
          "duration": 0.07425750000000164,
          "durationTicks": 24,
          "midi": 83,
          "name": "B5",
          "ticks": 32352,
          "time": 100.09911000000001,
          "velocity": 0.8740157480314961
        },
        {
          "duration": 0.07425749999998743,
          "durationTicks": 24,
          "midi": 79,
          "name": "G5",
          "ticks": 32376,
          "time": 100.17336750000001,
          "velocity": 0.8740157480314961
        },
        {
          "duration": 0.07425750000000164,
          "durationTicks": 24,
          "midi": 81,
          "name": "A5",
          "ticks": 32400,
          "time": 100.247625,
          "velocity": 0.8740157480314961
        },
        {
          "duration": 0.07425750000000164,
          "durationTicks": 24,
          "midi": 76,
          "name": "E5",
          "ticks": 32424,
          "time": 100.3218825,
          "velocity": 0.8740157480314961
        },
        {
          "duration": 0.07425750000000164,
          "durationTicks": 24,
          "midi": 86,
          "name": "D6",
          "ticks": 32448,
          "time": 100.39614,
          "velocity": 0.8740157480314961
        },
        {
          "duration": 0.07425750000000164,
          "durationTicks": 24,
          "midi": 84,
          "name": "C6",
          "ticks": 32472,
          "time": 100.4703975,
          "velocity": 0.8740157480314961
        },
        {
          "duration": 0.07425750000000164,
          "durationTicks": 24,
          "midi": 83,
          "name": "B5",
          "ticks": 32496,
          "time": 100.544655,
          "velocity": 0.8740157480314961
        },
        {
          "duration": 0.07425750000000164,
          "durationTicks": 24,
          "midi": 81,
          "name": "A5",
          "ticks": 32520,
          "time": 100.61891250000001,
          "velocity": 0.8740157480314961
        },
        {
          "duration": 0.14851500000000328,
          "durationTicks": 48,
          "midi": 76,
          "name": "E5",
          "ticks": 32544,
          "time": 100.69317000000001,
          "velocity": 0.8740157480314961
        },
        {
          "duration": 0.07425749999998743,
          "durationTicks": 24,
          "midi": 79,
          "name": "G5",
          "ticks": 32592,
          "time": 100.84168500000001,
          "velocity": 0.8740157480314961
        },
        {
          "duration": 0.07425750000000164,
          "durationTicks": 24,
          "midi": 80,
          "name": "G#5",
          "ticks": 32616,
          "time": 100.9159425,
          "velocity": 0.8740157480314961
        },
        {
          "duration": 0.07425749999998743,
          "durationTicks": 24,
          "midi": 81,
          "name": "A5",
          "ticks": 33408,
          "time": 103.36644000000001,
          "velocity": 0.8740157480314961
        },
        {
          "duration": 0.07425750000000164,
          "durationTicks": 24,
          "midi": 76,
          "name": "E5",
          "ticks": 33432,
          "time": 103.4406975,
          "velocity": 0.8740157480314961
        },
        {
          "duration": 0.07425750000000164,
          "durationTicks": 24,
          "midi": 72,
          "name": "C5",
          "ticks": 33456,
          "time": 103.514955,
          "velocity": 0.8740157480314961
        },
        {
          "duration": 0.07425750000000164,
          "durationTicks": 24,
          "midi": 84,
          "name": "C6",
          "ticks": 33480,
          "time": 103.5892125,
          "velocity": 0.8740157480314961
        },
        {
          "duration": 0.07425750000000164,
          "durationTicks": 24,
          "midi": 83,
          "name": "B5",
          "ticks": 33504,
          "time": 103.66347,
          "velocity": 0.8740157480314961
        },
        {
          "duration": 0.07425750000000164,
          "durationTicks": 24,
          "midi": 79,
          "name": "G5",
          "ticks": 33528,
          "time": 103.7377275,
          "velocity": 0.8740157480314961
        },
        {
          "duration": 0.07425750000000164,
          "durationTicks": 24,
          "midi": 81,
          "name": "A5",
          "ticks": 33552,
          "time": 103.811985,
          "velocity": 0.8740157480314961
        },
        {
          "duration": 0.07425750000000164,
          "durationTicks": 24,
          "midi": 76,
          "name": "E5",
          "ticks": 33576,
          "time": 103.88624250000001,
          "velocity": 0.8740157480314961
        },
        {
          "duration": 0.07425750000000164,
          "durationTicks": 24,
          "midi": 74,
          "name": "D5",
          "ticks": 33600,
          "time": 103.96050000000001,
          "velocity": 0.8740157480314961
        },
        {
          "duration": 0.07425749999998743,
          "durationTicks": 24,
          "midi": 79,
          "name": "G5",
          "ticks": 33624,
          "time": 104.03475750000001,
          "velocity": 0.8740157480314961
        },
        {
          "duration": 0.07425750000000164,
          "durationTicks": 24,
          "midi": 76,
          "name": "E5",
          "ticks": 33648,
          "time": 104.109015,
          "velocity": 0.8740157480314961
        },
        {
          "duration": 0.07425750000000164,
          "durationTicks": 24,
          "midi": 72,
          "name": "C5",
          "ticks": 33672,
          "time": 104.1832725,
          "velocity": 0.8740157480314961
        },
        {
          "duration": 0.07425750000000164,
          "durationTicks": 24,
          "midi": 76,
          "name": "E5",
          "ticks": 33696,
          "time": 104.25753,
          "velocity": 0.8740157480314961
        },
        {
          "duration": 0.07425750000000164,
          "durationTicks": 24,
          "midi": 74,
          "name": "D5",
          "ticks": 33720,
          "time": 104.3317875,
          "velocity": 0.8740157480314961
        },
        {
          "duration": 0.07425750000000164,
          "durationTicks": 24,
          "midi": 72,
          "name": "C5",
          "ticks": 33744,
          "time": 104.406045,
          "velocity": 0.8740157480314961
        },
        {
          "duration": 0.07425750000000164,
          "durationTicks": 24,
          "midi": 71,
          "name": "B4",
          "ticks": 33768,
          "time": 104.48030250000001,
          "velocity": 0.8740157480314961
        },
        {
          "duration": 0.07425750000000164,
          "durationTicks": 24,
          "midi": 69,
          "name": "A4",
          "ticks": 33792,
          "time": 104.55456000000001,
          "velocity": 0.8740157480314961
        },
        {
          "duration": 0.07425750000000164,
          "durationTicks": 24,
          "midi": 71,
          "name": "B4",
          "ticks": 33816,
          "time": 104.62881750000001,
          "velocity": 0.8740157480314961
        },
        {
          "duration": 0.07425749999998743,
          "durationTicks": 24,
          "midi": 72,
          "name": "C5",
          "ticks": 33840,
          "time": 104.70307500000001,
          "velocity": 0.8740157480314961
        },
        {
          "duration": 0.07425750000000164,
          "durationTicks": 24,
          "midi": 71,
          "name": "B4",
          "ticks": 33864,
          "time": 104.7773325,
          "velocity": 0.8740157480314961
        },
        {
          "duration": 0.07425750000000164,
          "durationTicks": 24,
          "midi": 81,
          "name": "A5",
          "ticks": 34176,
          "time": 105.74268000000001,
          "velocity": 0.8818897637795275
        },
        {
          "duration": 0.07425750000000164,
          "durationTicks": 24,
          "midi": 76,
          "name": "E5",
          "ticks": 34200,
          "time": 105.81693750000001,
          "velocity": 0.8818897637795275
        },
        {
          "duration": 0.07425750000000164,
          "durationTicks": 24,
          "midi": 72,
          "name": "C5",
          "ticks": 34224,
          "time": 105.89119500000001,
          "velocity": 0.8818897637795275
        },
        {
          "duration": 0.07425749999998743,
          "durationTicks": 24,
          "midi": 84,
          "name": "C6",
          "ticks": 34248,
          "time": 105.96545250000001,
          "velocity": 0.8818897637795275
        },
        {
          "duration": 0.07425750000000164,
          "durationTicks": 24,
          "midi": 83,
          "name": "B5",
          "ticks": 34272,
          "time": 106.03971,
          "velocity": 0.8818897637795275
        },
        {
          "duration": 0.07425750000000164,
          "durationTicks": 24,
          "midi": 79,
          "name": "G5",
          "ticks": 34296,
          "time": 106.1139675,
          "velocity": 0.8818897637795275
        },
        {
          "duration": 0.07425750000000164,
          "durationTicks": 24,
          "midi": 81,
          "name": "A5",
          "ticks": 34320,
          "time": 106.188225,
          "velocity": 0.8818897637795275
        },
        {
          "duration": 0.07425750000000164,
          "durationTicks": 24,
          "midi": 76,
          "name": "E5",
          "ticks": 34344,
          "time": 106.2624825,
          "velocity": 0.8818897637795275
        },
        {
          "duration": 0.07425750000000164,
          "durationTicks": 24,
          "midi": 74,
          "name": "D5",
          "ticks": 34368,
          "time": 106.33674,
          "velocity": 0.8818897637795275
        },
        {
          "duration": 0.07425750000000164,
          "durationTicks": 24,
          "midi": 79,
          "name": "G5",
          "ticks": 34392,
          "time": 106.41099750000001,
          "velocity": 0.8818897637795275
        },
        {
          "duration": 0.07425750000000164,
          "durationTicks": 24,
          "midi": 76,
          "name": "E5",
          "ticks": 34416,
          "time": 106.48525500000001,
          "velocity": 0.8818897637795275
        },
        {
          "duration": 0.07425750000000164,
          "durationTicks": 24,
          "midi": 72,
          "name": "C5",
          "ticks": 34440,
          "time": 106.55951250000001,
          "velocity": 0.8818897637795275
        },
        {
          "duration": 0.07425749999998743,
          "durationTicks": 24,
          "midi": 79,
          "name": "G5",
          "ticks": 34464,
          "time": 106.63377000000001,
          "velocity": 0.8818897637795275
        },
        {
          "duration": 0.07425750000000164,
          "durationTicks": 24,
          "midi": 76,
          "name": "E5",
          "ticks": 34488,
          "time": 106.7080275,
          "velocity": 0.8818897637795275
        },
        {
          "duration": 0.07425750000000164,
          "durationTicks": 24,
          "midi": 74,
          "name": "D5",
          "ticks": 34512,
          "time": 106.782285,
          "velocity": 0.8818897637795275
        },
        {
          "duration": 0.07425750000000164,
          "durationTicks": 24,
          "midi": 80,
          "name": "G#5",
          "ticks": 34536,
          "time": 106.8565425,
          "velocity": 0.8818897637795275
        },
        {
          "duration": 0.07425750000000164,
          "durationTicks": 24,
          "midi": 81,
          "name": "A5",
          "ticks": 34560,
          "time": 106.9308,
          "velocity": 0.8818897637795275
        },
        {
          "duration": 0.07425750000000164,
          "durationTicks": 24,
          "midi": 76,
          "name": "E5",
          "ticks": 34584,
          "time": 107.0050575,
          "velocity": 0.8818897637795275
        },
        {
          "duration": 0.07425750000000164,
          "durationTicks": 24,
          "midi": 72,
          "name": "C5",
          "ticks": 34608,
          "time": 107.07931500000001,
          "velocity": 0.8818897637795275
        },
        {
          "duration": 0.07425750000000164,
          "durationTicks": 24,
          "midi": 84,
          "name": "C6",
          "ticks": 34632,
          "time": 107.15357250000001,
          "velocity": 0.8818897637795275
        },
        {
          "duration": 0.07425749999998743,
          "durationTicks": 24,
          "midi": 83,
          "name": "B5",
          "ticks": 34656,
          "time": 107.22783000000001,
          "velocity": 0.8818897637795275
        },
        {
          "duration": 0.07425750000000164,
          "durationTicks": 24,
          "midi": 79,
          "name": "G5",
          "ticks": 34680,
          "time": 107.3020875,
          "velocity": 0.8818897637795275
        },
        {
          "duration": 0.07425750000000164,
          "durationTicks": 24,
          "midi": 81,
          "name": "A5",
          "ticks": 34704,
          "time": 107.376345,
          "velocity": 0.8818897637795275
        },
        {
          "duration": 0.07425750000000164,
          "durationTicks": 24,
          "midi": 76,
          "name": "E5",
          "ticks": 34728,
          "time": 107.4506025,
          "velocity": 0.8818897637795275
        },
        {
          "duration": 0.07425750000000164,
          "durationTicks": 24,
          "midi": 86,
          "name": "D6",
          "ticks": 34752,
          "time": 107.52486,
          "velocity": 0.8818897637795275
        },
        {
          "duration": 0.07425750000000164,
          "durationTicks": 24,
          "midi": 84,
          "name": "C6",
          "ticks": 34776,
          "time": 107.5991175,
          "velocity": 0.8818897637795275
        },
        {
          "duration": 0.07425750000000164,
          "durationTicks": 24,
          "midi": 83,
          "name": "B5",
          "ticks": 34800,
          "time": 107.67337500000001,
          "velocity": 0.8818897637795275
        },
        {
          "duration": 0.07425750000000164,
          "durationTicks": 24,
          "midi": 81,
          "name": "A5",
          "ticks": 34824,
          "time": 107.74763250000001,
          "velocity": 0.8818897637795275
        },
        {
          "duration": 0.07425750000000164,
          "durationTicks": 24,
          "midi": 79,
          "name": "G5",
          "ticks": 34848,
          "time": 107.82189000000001,
          "velocity": 0.8818897637795275
        },
        {
          "duration": 0.07425749999998743,
          "durationTicks": 24,
          "midi": 76,
          "name": "E5",
          "ticks": 34872,
          "time": 107.89614750000001,
          "velocity": 0.8818897637795275
        },
        {
          "duration": 0.07425750000000164,
          "durationTicks": 24,
          "midi": 79,
          "name": "G5",
          "ticks": 34896,
          "time": 107.970405,
          "velocity": 0.8818897637795275
        },
        {
          "duration": 0.07425750000000164,
          "durationTicks": 24,
          "midi": 80,
          "name": "G#5",
          "ticks": 34920,
          "time": 108.0446625,
          "velocity": 0.8818897637795275
        },
        {
          "duration": 0.07425750000000164,
          "durationTicks": 24,
          "midi": 81,
          "name": "A5",
          "ticks": 34944,
          "time": 108.11892,
          "velocity": 0.8818897637795275
        },
        {
          "duration": 0.07425750000000164,
          "durationTicks": 24,
          "midi": 76,
          "name": "E5",
          "ticks": 34968,
          "time": 108.1931775,
          "velocity": 0.8818897637795275
        },
        {
          "duration": 0.07425750000000164,
          "durationTicks": 24,
          "midi": 72,
          "name": "C5",
          "ticks": 34992,
          "time": 108.267435,
          "velocity": 0.8818897637795275
        },
        {
          "duration": 0.07425750000000164,
          "durationTicks": 24,
          "midi": 84,
          "name": "C6",
          "ticks": 35016,
          "time": 108.34169250000001,
          "velocity": 0.8818897637795275
        },
        {
          "duration": 0.07425750000000164,
          "durationTicks": 24,
          "midi": 83,
          "name": "B5",
          "ticks": 35040,
          "time": 108.41595000000001,
          "velocity": 0.8818897637795275
        },
        {
          "duration": 0.07425750000000164,
          "durationTicks": 24,
          "midi": 79,
          "name": "G5",
          "ticks": 35064,
          "time": 108.49020750000001,
          "velocity": 0.8818897637795275
        },
        {
          "duration": 0.07425749999998743,
          "durationTicks": 24,
          "midi": 81,
          "name": "A5",
          "ticks": 35088,
          "time": 108.56446500000001,
          "velocity": 0.8818897637795275
        },
        {
          "duration": 0.07425750000000164,
          "durationTicks": 24,
          "midi": 76,
          "name": "E5",
          "ticks": 35112,
          "time": 108.6387225,
          "velocity": 0.8818897637795275
        },
        {
          "duration": 0.07425750000000164,
          "durationTicks": 24,
          "midi": 74,
          "name": "D5",
          "ticks": 35136,
          "time": 108.71298,
          "velocity": 0.8818897637795275
        },
        {
          "duration": 0.07425750000000164,
          "durationTicks": 24,
          "midi": 79,
          "name": "G5",
          "ticks": 35160,
          "time": 108.7872375,
          "velocity": 0.8818897637795275
        },
        {
          "duration": 0.07425750000000164,
          "durationTicks": 24,
          "midi": 76,
          "name": "E5",
          "ticks": 35184,
          "time": 108.861495,
          "velocity": 0.8818897637795275
        },
        {
          "duration": 0.07425750000000164,
          "durationTicks": 24,
          "midi": 72,
          "name": "C5",
          "ticks": 35208,
          "time": 108.9357525,
          "velocity": 0.8818897637795275
        },
        {
          "duration": 0.07425750000000164,
          "durationTicks": 24,
          "midi": 76,
          "name": "E5",
          "ticks": 35232,
          "time": 109.01001000000001,
          "velocity": 0.8818897637795275
        },
        {
          "duration": 0.07425750000000164,
          "durationTicks": 24,
          "midi": 74,
          "name": "D5",
          "ticks": 35256,
          "time": 109.08426750000001,
          "velocity": 0.8818897637795275
        },
        {
          "duration": 0.07425749999998743,
          "durationTicks": 24,
          "midi": 72,
          "name": "C5",
          "ticks": 35280,
          "time": 109.15852500000001,
          "velocity": 0.8818897637795275
        },
        {
          "duration": 0.07425750000000164,
          "durationTicks": 24,
          "midi": 71,
          "name": "B4",
          "ticks": 35304,
          "time": 109.2327825,
          "velocity": 0.8818897637795275
        },
        {
          "duration": 0.09900999999999271,
          "durationTicks": 32,
          "midi": 69,
          "name": "A4",
          "ticks": 35328,
          "time": 109.30704,
          "velocity": 0.8818897637795275
        },
        {
          "duration": 0.09901000000002114,
          "durationTicks": 32,
          "midi": 71,
          "name": "B4",
          "ticks": 35360,
          "time": 109.40605,
          "velocity": 0.8818897637795275
        },
        {
          "duration": 0.09900999999999271,
          "durationTicks": 32,
          "midi": 72,
          "name": "C5",
          "ticks": 35392,
          "time": 109.50506000000001,
          "velocity": 0.8818897637795275
        },
        {
          "duration": 0.09900999999999271,
          "durationTicks": 32,
          "midi": 74,
          "name": "D5",
          "ticks": 35424,
          "time": 109.60407000000001,
          "velocity": 0.8818897637795275
        },
        {
          "duration": 0.09901000000000693,
          "durationTicks": 32,
          "midi": 76,
          "name": "E5",
          "ticks": 35456,
          "time": 109.70308,
          "velocity": 0.8818897637795275
        },
        {
          "duration": 0.09900999999999271,
          "durationTicks": 32,
          "midi": 79,
          "name": "G5",
          "ticks": 35488,
          "time": 109.80209,
          "velocity": 0.8818897637795275
        },
        {
          "duration": 0.09901000000000693,
          "durationTicks": 32,
          "midi": 81,
          "name": "A5",
          "ticks": 35520,
          "time": 109.9011,
          "velocity": 0.8818897637795275
        },
        {
          "duration": 0.09901000000000693,
          "durationTicks": 32,
          "midi": 84,
          "name": "C6",
          "ticks": 35552,
          "time": 110.00011,
          "velocity": 0.8818897637795275
        },
        {
          "duration": 0.09900999999999271,
          "durationTicks": 32,
          "midi": 83,
          "name": "B5",
          "ticks": 35584,
          "time": 110.09912000000001,
          "velocity": 0.8818897637795275
        },
        {
          "duration": 0.09900999999999271,
          "durationTicks": 32,
          "midi": 81,
          "name": "A5",
          "ticks": 35616,
          "time": 110.19813,
          "velocity": 0.8818897637795275
        },
        {
          "duration": 0.09901000000000693,
          "durationTicks": 32,
          "midi": 79,
          "name": "G5",
          "ticks": 35648,
          "time": 110.29714,
          "velocity": 0.8818897637795275
        },
        {
          "duration": 0.09901000000000693,
          "durationTicks": 32,
          "midi": 76,
          "name": "E5",
          "ticks": 35680,
          "time": 110.39615,
          "velocity": 0.8818897637795275
        },
        {
          "duration": 0.07425749999998743,
          "durationTicks": 24,
          "midi": 81,
          "name": "A5",
          "ticks": 35712,
          "time": 110.49516000000001,
          "velocity": 0.8818897637795275
        },
        {
          "duration": 0.07425750000000164,
          "durationTicks": 24,
          "midi": 76,
          "name": "E5",
          "ticks": 35736,
          "time": 110.5694175,
          "velocity": 0.8818897637795275
        },
        {
          "duration": 0.07425750000000164,
          "durationTicks": 24,
          "midi": 72,
          "name": "C5",
          "ticks": 35760,
          "time": 110.643675,
          "velocity": 0.8818897637795275
        },
        {
          "duration": 0.07425750000000164,
          "durationTicks": 24,
          "midi": 84,
          "name": "C6",
          "ticks": 35784,
          "time": 110.7179325,
          "velocity": 0.8818897637795275
        },
        {
          "duration": 0.07425750000000164,
          "durationTicks": 24,
          "midi": 83,
          "name": "B5",
          "ticks": 35808,
          "time": 110.79219,
          "velocity": 0.8818897637795275
        },
        {
          "duration": 0.07425750000000164,
          "durationTicks": 24,
          "midi": 79,
          "name": "G5",
          "ticks": 35832,
          "time": 110.8664475,
          "velocity": 0.8818897637795275
        },
        {
          "duration": 0.07425750000000164,
          "durationTicks": 24,
          "midi": 81,
          "name": "A5",
          "ticks": 35856,
          "time": 110.94070500000001,
          "velocity": 0.8818897637795275
        },
        {
          "duration": 0.07425750000000164,
          "durationTicks": 24,
          "midi": 76,
          "name": "E5",
          "ticks": 35880,
          "time": 111.01496250000001,
          "velocity": 0.8818897637795275
        },
        {
          "duration": 0.07425749999998743,
          "durationTicks": 24,
          "midi": 74,
          "name": "D5",
          "ticks": 35904,
          "time": 111.08922000000001,
          "velocity": 0.8818897637795275
        },
        {
          "duration": 0.07425750000000164,
          "durationTicks": 24,
          "midi": 79,
          "name": "G5",
          "ticks": 35928,
          "time": 111.1634775,
          "velocity": 0.8818897637795275
        },
        {
          "duration": 0.07425750000000164,
          "durationTicks": 24,
          "midi": 76,
          "name": "E5",
          "ticks": 35952,
          "time": 111.237735,
          "velocity": 0.8818897637795275
        },
        {
          "duration": 0.07425750000000164,
          "durationTicks": 24,
          "midi": 72,
          "name": "C5",
          "ticks": 35976,
          "time": 111.3119925,
          "velocity": 0.8818897637795275
        },
        {
          "duration": 0.07425750000000164,
          "durationTicks": 24,
          "midi": 79,
          "name": "G5",
          "ticks": 36000,
          "time": 111.38625,
          "velocity": 0.8818897637795275
        },
        {
          "duration": 0.07425750000000164,
          "durationTicks": 24,
          "midi": 76,
          "name": "E5",
          "ticks": 36024,
          "time": 111.4605075,
          "velocity": 0.8818897637795275
        },
        {
          "duration": 0.07425750000000164,
          "durationTicks": 24,
          "midi": 74,
          "name": "D5",
          "ticks": 36048,
          "time": 111.53476500000001,
          "velocity": 0.8818897637795275
        },
        {
          "duration": 0.07425750000000164,
          "durationTicks": 24,
          "midi": 80,
          "name": "G#5",
          "ticks": 36072,
          "time": 111.60902250000001,
          "velocity": 0.8818897637795275
        },
        {
          "duration": 0.07425750000000164,
          "durationTicks": 24,
          "midi": 81,
          "name": "A5",
          "ticks": 36096,
          "time": 111.68328000000001,
          "velocity": 0.8818897637795275
        },
        {
          "duration": 0.07425749999998743,
          "durationTicks": 24,
          "midi": 76,
          "name": "E5",
          "ticks": 36120,
          "time": 111.75753750000001,
          "velocity": 0.8818897637795275
        },
        {
          "duration": 0.07425750000000164,
          "durationTicks": 24,
          "midi": 72,
          "name": "C5",
          "ticks": 36144,
          "time": 111.831795,
          "velocity": 0.8818897637795275
        },
        {
          "duration": 0.07425750000000164,
          "durationTicks": 24,
          "midi": 84,
          "name": "C6",
          "ticks": 36168,
          "time": 111.9060525,
          "velocity": 0.8818897637795275
        },
        {
          "duration": 0.07425750000000164,
          "durationTicks": 24,
          "midi": 83,
          "name": "B5",
          "ticks": 36192,
          "time": 111.98031,
          "velocity": 0.8818897637795275
        },
        {
          "duration": 0.07425750000000164,
          "durationTicks": 24,
          "midi": 79,
          "name": "G5",
          "ticks": 36216,
          "time": 112.0545675,
          "velocity": 0.8818897637795275
        },
        {
          "duration": 0.07425750000000164,
          "durationTicks": 24,
          "midi": 81,
          "name": "A5",
          "ticks": 36240,
          "time": 112.128825,
          "velocity": 0.8818897637795275
        },
        {
          "duration": 0.07425750000000164,
          "durationTicks": 24,
          "midi": 76,
          "name": "E5",
          "ticks": 36264,
          "time": 112.20308250000001,
          "velocity": 0.8818897637795275
        },
        {
          "duration": 0.07425750000000164,
          "durationTicks": 24,
          "midi": 86,
          "name": "D6",
          "ticks": 36288,
          "time": 112.27734000000001,
          "velocity": 0.8818897637795275
        },
        {
          "duration": 0.07425750000000164,
          "durationTicks": 24,
          "midi": 84,
          "name": "C6",
          "ticks": 36312,
          "time": 112.35159750000001,
          "velocity": 0.8818897637795275
        },
        {
          "duration": 0.07425749999998743,
          "durationTicks": 24,
          "midi": 83,
          "name": "B5",
          "ticks": 36336,
          "time": 112.42585500000001,
          "velocity": 0.8818897637795275
        },
        {
          "duration": 0.07425750000000164,
          "durationTicks": 24,
          "midi": 81,
          "name": "A5",
          "ticks": 36360,
          "time": 112.5001125,
          "velocity": 0.8818897637795275
        },
        {
          "duration": 0.07425750000000164,
          "durationTicks": 24,
          "midi": 79,
          "name": "G5",
          "ticks": 36384,
          "time": 112.57437,
          "velocity": 0.8818897637795275
        },
        {
          "duration": 0.07425750000000164,
          "durationTicks": 24,
          "midi": 76,
          "name": "E5",
          "ticks": 36408,
          "time": 112.6486275,
          "velocity": 0.8818897637795275
        },
        {
          "duration": 0.07425750000000164,
          "durationTicks": 24,
          "midi": 79,
          "name": "G5",
          "ticks": 36432,
          "time": 112.722885,
          "velocity": 0.8818897637795275
        },
        {
          "duration": 0.07425750000000164,
          "durationTicks": 24,
          "midi": 80,
          "name": "G#5",
          "ticks": 36456,
          "time": 112.7971425,
          "velocity": 0.8818897637795275
        },
        {
          "duration": 0.07425750000000164,
          "durationTicks": 24,
          "midi": 81,
          "name": "A5",
          "ticks": 36480,
          "time": 112.87140000000001,
          "velocity": 0.8818897637795275
        },
        {
          "duration": 0.07425750000000164,
          "durationTicks": 24,
          "midi": 76,
          "name": "E5",
          "ticks": 36504,
          "time": 112.94565750000001,
          "velocity": 0.8818897637795275
        },
        {
          "duration": 0.07425749999998743,
          "durationTicks": 24,
          "midi": 72,
          "name": "C5",
          "ticks": 36528,
          "time": 113.01991500000001,
          "velocity": 0.8818897637795275
        },
        {
          "duration": 0.07425750000000164,
          "durationTicks": 24,
          "midi": 84,
          "name": "C6",
          "ticks": 36552,
          "time": 113.0941725,
          "velocity": 0.8818897637795275
        },
        {
          "duration": 0.07425750000000164,
          "durationTicks": 24,
          "midi": 83,
          "name": "B5",
          "ticks": 36576,
          "time": 113.16843,
          "velocity": 0.8818897637795275
        },
        {
          "duration": 0.07425750000000164,
          "durationTicks": 24,
          "midi": 79,
          "name": "G5",
          "ticks": 36600,
          "time": 113.2426875,
          "velocity": 0.8818897637795275
        },
        {
          "duration": 0.07425750000000164,
          "durationTicks": 24,
          "midi": 81,
          "name": "A5",
          "ticks": 36624,
          "time": 113.316945,
          "velocity": 0.8818897637795275
        },
        {
          "duration": 0.07425750000000164,
          "durationTicks": 24,
          "midi": 76,
          "name": "E5",
          "ticks": 36648,
          "time": 113.3912025,
          "velocity": 0.8818897637795275
        },
        {
          "duration": 0.07425750000000164,
          "durationTicks": 24,
          "midi": 74,
          "name": "D5",
          "ticks": 36672,
          "time": 113.46546000000001,
          "velocity": 0.8818897637795275
        },
        {
          "duration": 0.07425750000000164,
          "durationTicks": 24,
          "midi": 79,
          "name": "G5",
          "ticks": 36696,
          "time": 113.53971750000001,
          "velocity": 0.8818897637795275
        },
        {
          "duration": 0.07425750000000164,
          "durationTicks": 24,
          "midi": 76,
          "name": "E5",
          "ticks": 36720,
          "time": 113.61397500000001,
          "velocity": 0.8818897637795275
        },
        {
          "duration": 0.07425749999998743,
          "durationTicks": 24,
          "midi": 72,
          "name": "C5",
          "ticks": 36744,
          "time": 113.68823250000001,
          "velocity": 0.8818897637795275
        },
        {
          "duration": 0.07425750000000164,
          "durationTicks": 24,
          "midi": 76,
          "name": "E5",
          "ticks": 36768,
          "time": 113.76249,
          "velocity": 0.8818897637795275
        },
        {
          "duration": 0.07425750000000164,
          "durationTicks": 24,
          "midi": 74,
          "name": "D5",
          "ticks": 36792,
          "time": 113.8367475,
          "velocity": 0.8818897637795275
        },
        {
          "duration": 0.07425750000000164,
          "durationTicks": 24,
          "midi": 72,
          "name": "C5",
          "ticks": 36816,
          "time": 113.911005,
          "velocity": 0.8818897637795275
        },
        {
          "duration": 0.07425750000000164,
          "durationTicks": 24,
          "midi": 71,
          "name": "B4",
          "ticks": 36840,
          "time": 113.9852625,
          "velocity": 0.8818897637795275
        },
        {
          "duration": 0.07425750000000164,
          "durationTicks": 24,
          "midi": 69,
          "name": "A4",
          "ticks": 36864,
          "time": 114.05952,
          "velocity": 0.8818897637795275
        },
        {
          "duration": 0.07425750000000164,
          "durationTicks": 24,
          "midi": 71,
          "name": "B4",
          "ticks": 36888,
          "time": 114.13377750000001,
          "velocity": 0.8818897637795275
        },
        {
          "duration": 0.07425750000000164,
          "durationTicks": 24,
          "midi": 72,
          "name": "C5",
          "ticks": 36912,
          "time": 114.20803500000001,
          "velocity": 0.8818897637795275
        },
        {
          "duration": 0.07425750000000164,
          "durationTicks": 24,
          "midi": 71,
          "name": "B4",
          "ticks": 36936,
          "time": 114.28229250000001,
          "velocity": 0.8818897637795275
        },
        {
          "duration": 0.07425749999998743,
          "durationTicks": 24,
          "midi": 72,
          "name": "C5",
          "ticks": 36960,
          "time": 114.35655000000001,
          "velocity": 0.8818897637795275
        },
        {
          "duration": 0.07425750000000164,
          "durationTicks": 24,
          "midi": 74,
          "name": "D5",
          "ticks": 36984,
          "time": 114.4308075,
          "velocity": 0.8818897637795275
        },
        {
          "duration": 0.07425750000000164,
          "durationTicks": 24,
          "midi": 72,
          "name": "C5",
          "ticks": 37008,
          "time": 114.505065,
          "velocity": 0.8818897637795275
        },
        {
          "duration": 0.07425750000000164,
          "durationTicks": 24,
          "midi": 74,
          "name": "D5",
          "ticks": 37032,
          "time": 114.5793225,
          "velocity": 0.8818897637795275
        },
        {
          "duration": 0.07425750000000164,
          "durationTicks": 24,
          "midi": 76,
          "name": "E5",
          "ticks": 37056,
          "time": 114.65358,
          "velocity": 0.8818897637795275
        },
        {
          "duration": 0.07425750000000164,
          "durationTicks": 24,
          "midi": 74,
          "name": "D5",
          "ticks": 37080,
          "time": 114.7278375,
          "velocity": 0.8818897637795275
        },
        {
          "duration": 0.07425750000000164,
          "durationTicks": 24,
          "midi": 76,
          "name": "E5",
          "ticks": 37104,
          "time": 114.80209500000001,
          "velocity": 0.8818897637795275
        },
        {
          "duration": 0.07425750000000164,
          "durationTicks": 24,
          "midi": 79,
          "name": "G5",
          "ticks": 37128,
          "time": 114.87635250000001,
          "velocity": 0.8818897637795275
        },
        {
          "duration": 0.07425750000000164,
          "durationTicks": 24,
          "midi": 76,
          "name": "E5",
          "ticks": 37152,
          "time": 114.95061000000001,
          "velocity": 0.8818897637795275
        },
        {
          "duration": 0.07425749999998743,
          "durationTicks": 24,
          "midi": 79,
          "name": "G5",
          "ticks": 37176,
          "time": 115.02486750000001,
          "velocity": 0.8818897637795275
        },
        {
          "duration": 0.07425750000000164,
          "durationTicks": 24,
          "midi": 81,
          "name": "A5",
          "ticks": 37200,
          "time": 115.099125,
          "velocity": 0.8818897637795275
        },
        {
          "duration": 0.07425750000000164,
          "durationTicks": 24,
          "midi": 83,
          "name": "B5",
          "ticks": 37224,
          "time": 115.1733825,
          "velocity": 0.8818897637795275
        }
      ],
      "endOfTrackTicks": 39938
    },
    {
      "channel": 3,
      "controlChanges": {
        "6": [
          {
            "number": 6,
            "ticks": 0,
            "time": 0,
            "value": 0.09448818897637795
          },
          {
            "number": 6,
            "ticks": 0,
            "time": 0,
            "value": 0.09448818897637795
          },
          {
            "number": 6,
            "ticks": 0,
            "time": 0,
            "value": 0.09448818897637795
          },
          {
            "number": 6,
            "ticks": 39936,
            "time": 123.56448,
            "value": 0.09448818897637795
          },
          {
            "number": 6,
            "ticks": 39938,
            "time": 123.570668125,
            "value": 0.09448818897637795
          }
        ],
        "7": [
          {
            "number": 7,
            "ticks": 0,
            "time": 0,
            "value": 0.7874015748031497
          },
          {
            "number": 7,
            "ticks": 0,
            "time": 0,
            "value": 0.7874015748031497
          },
          {
            "number": 7,
            "ticks": 0,
            "time": 0,
            "value": 0.7874015748031497
          },
          {
            "number": 7,
            "ticks": 0,
            "time": 0,
            "value": 0.7874015748031497
          },
          {
            "number": 7,
            "ticks": 39936,
            "time": 123.56448,
            "value": 0.7874015748031497
          },
          {
            "number": 7,
            "ticks": 39938,
            "time": 123.570668125,
            "value": 0.7874015748031497
          }
        ],
        "10": [
          {
            "number": 10,
            "ticks": 0,
            "time": 0,
            "value": 0.5039370078740157
          },
          {
            "number": 10,
            "ticks": 0,
            "time": 0,
            "value": 0.5039370078740157
          },
          {
            "number": 10,
            "ticks": 0,
            "time": 0,
            "value": 0.5039370078740157
          },
          {
            "number": 10,
            "ticks": 0,
            "time": 0,
            "value": 0.5039370078740157
          },
          {
            "number": 10,
            "ticks": 39936,
            "time": 123.56448,
            "value": 0.5039370078740157
          },
          {
            "number": 10,
            "ticks": 39938,
            "time": 123.570668125,
            "value": 0.5039370078740157
          }
        ],
        "100": [
          {
            "number": 100,
            "ticks": 0,
            "time": 0,
            "value": 0
          },
          {
            "number": 100,
            "ticks": 0,
            "time": 0,
            "value": 0
          },
          {
            "number": 100,
            "ticks": 0,
            "time": 0,
            "value": 0
          },
          {
            "number": 100,
            "ticks": 39936,
            "time": 123.56448,
            "value": 0
          },
          {
            "number": 100,
            "ticks": 39938,
            "time": 123.570668125,
            "value": 0
          }
        ],
        "101": [
          {
            "number": 101,
            "ticks": 0,
            "time": 0,
            "value": 0
          },
          {
            "number": 101,
            "ticks": 0,
            "time": 0,
            "value": 0
          },
          {
            "number": 101,
            "ticks": 0,
            "time": 0,
            "value": 0
          },
          {
            "number": 101,
            "ticks": 39936,
            "time": 123.56448,
            "value": 0
          },
          {
            "number": 101,
            "ticks": 39938,
            "time": 123.570668125,
            "value": 0
          }
        ]
      },
      "pitchBends": [
        {
          "ticks": 0,
          "time": 0,
          "value": 0
        },
        {
          "ticks": 0,
          "time": 0,
          "value": 0
        },
        {
          "ticks": 0,
          "time": 0,
          "value": 0
        },
        {
          "ticks": 0,
          "time": 0,
          "value": 0
        },
        {
          "ticks": 39936,
          "time": 123.56448,
          "value": 0
        },
        {
          "ticks": 39938,
          "time": 123.570668125,
          "value": 0
        }
      ],
      "instrument": {
        "family": "piano",
        "number": 0,
        "name": "acoustic grand piano"
      },
      "name": "Filter",
      "notes": [
        {
          "duration": 0.14851500000000328,
          "durationTicks": 48,
          "midi": 85,
          "name": "C#6",
          "ticks": 18816,
          "time": 58.21788,
          "velocity": 0.84251968503937
        },
        {
          "duration": 0.14851500000000328,
          "durationTicks": 48,
          "midi": 85,
          "name": "C#6",
          "ticks": 18912,
          "time": 58.51491,
          "velocity": 0.84251968503937
        },
        {
          "duration": 0.14851499999999618,
          "durationTicks": 48,
          "midi": 87,
          "name": "D#6",
          "ticks": 18960,
          "time": 58.663425000000004,
          "velocity": 0.84251968503937
        },
        {
          "duration": 0.14851500000000328,
          "durationTicks": 48,
          "midi": 88,
          "name": "E6",
          "ticks": 19008,
          "time": 58.81194,
          "velocity": 0.84251968503937
        },
        {
          "duration": 0.14851499999999618,
          "durationTicks": 48,
          "midi": 87,
          "name": "D#6",
          "ticks": 19080,
          "time": 59.034712500000005,
          "velocity": 0.84251968503937
        },
        {
          "duration": 0.14851500000000328,
          "durationTicks": 48,
          "midi": 83,
          "name": "B5",
          "ticks": 19152,
          "time": 59.257485,
          "velocity": 0.84251968503937
        },
        {
          "duration": 0.14851499999999618,
          "durationTicks": 48,
          "midi": 78,
          "name": "F#5",
          "ticks": 19200,
          "time": 59.406000000000006,
          "velocity": 0.84251968503937
        },
        {
          "duration": 0.14851499999999618,
          "durationTicks": 48,
          "midi": 76,
          "name": "E5",
          "ticks": 19272,
          "time": 59.628772500000004,
          "velocity": 0.84251968503937
        },
        {
          "duration": 0.14851500000000328,
          "durationTicks": 48,
          "midi": 78,
          "name": "F#5",
          "ticks": 19344,
          "time": 59.851545,
          "velocity": 0.84251968503937
        },
        {
          "duration": 0.29702999999999946,
          "durationTicks": 96,
          "midi": 80,
          "name": "G#5",
          "ticks": 19392,
          "time": 60.000060000000005,
          "velocity": 0.84251968503937
        },
        {
          "duration": 0.07425750000000164,
          "durationTicks": 24,
          "midi": 80,
          "name": "G#5",
          "ticks": 19536,
          "time": 60.445605,
          "velocity": 0.84251968503937
        },
        {
          "duration": 0.07425750000000164,
          "durationTicks": 24,
          "midi": 83,
          "name": "B5",
          "ticks": 19560,
          "time": 60.5198625,
          "velocity": 0.84251968503937
        },
        {
          "duration": 0.14851499999999618,
          "durationTicks": 48,
          "midi": 85,
          "name": "C#6",
          "ticks": 19584,
          "time": 60.594120000000004,
          "velocity": 0.84251968503937
        },
        {
          "duration": 0.14851500000000328,
          "durationTicks": 48,
          "midi": 85,
          "name": "C#6",
          "ticks": 19680,
          "time": 60.89115,
          "velocity": 0.84251968503937
        },
        {
          "duration": 0.14851499999999618,
          "durationTicks": 48,
          "midi": 87,
          "name": "D#6",
          "ticks": 19728,
          "time": 61.03966500000001,
          "velocity": 0.84251968503937
        },
        {
          "duration": 0.14851500000000328,
          "durationTicks": 48,
          "midi": 88,
          "name": "E6",
          "ticks": 19776,
          "time": 61.18818,
          "velocity": 0.84251968503937
        },
        {
          "duration": 0.14851500000000328,
          "durationTicks": 48,
          "midi": 87,
          "name": "D#6",
          "ticks": 19848,
          "time": 61.4109525,
          "velocity": 0.84251968503937
        },
        {
          "duration": 0.14851499999999618,
          "durationTicks": 48,
          "midi": 83,
          "name": "B5",
          "ticks": 19920,
          "time": 61.633725000000005,
          "velocity": 0.84251968503937
        },
        {
          "duration": 0.14851500000000328,
          "durationTicks": 48,
          "midi": 90,
          "name": "F#6",
          "ticks": 19968,
          "time": 61.78224,
          "velocity": 0.84251968503937
        },
        {
          "duration": 0.14851499999999618,
          "durationTicks": 48,
          "midi": 88,
          "name": "E6",
          "ticks": 20040,
          "time": 62.00501250000001,
          "velocity": 0.84251968503937
        },
        {
          "duration": 0.14851499999999618,
          "durationTicks": 48,
          "midi": 87,
          "name": "D#6",
          "ticks": 20112,
          "time": 62.227785000000004,
          "velocity": 0.84251968503937
        },
        {
          "duration": 0.29702999999999946,
          "durationTicks": 96,
          "midi": 85,
          "name": "C#6",
          "ticks": 20160,
          "time": 62.3763,
          "velocity": 0.84251968503937
        },
        {
          "duration": 0.07425750000000164,
          "durationTicks": 24,
          "midi": 80,
          "name": "G#5",
          "ticks": 20304,
          "time": 62.821845,
          "velocity": 0.84251968503937
        },
        {
          "duration": 0.07425750000000164,
          "durationTicks": 24,
          "midi": 83,
          "name": "B5",
          "ticks": 20328,
          "time": 62.896102500000005,
          "velocity": 0.84251968503937
        },
        {
          "duration": 0.14851499999999618,
          "durationTicks": 48,
          "midi": 85,
          "name": "C#6",
          "ticks": 20352,
          "time": 62.97036000000001,
          "velocity": 0.84251968503937
        },
        {
          "duration": 0.14851499999999618,
          "durationTicks": 48,
          "midi": 85,
          "name": "C#6",
          "ticks": 20448,
          "time": 63.267390000000006,
          "velocity": 0.84251968503937
        },
        {
          "duration": 0.14851500000000328,
          "durationTicks": 48,
          "midi": 87,
          "name": "D#6",
          "ticks": 20496,
          "time": 63.415905,
          "velocity": 0.84251968503937
        },
        {
          "duration": 0.14851499999999618,
          "durationTicks": 48,
          "midi": 88,
          "name": "E6",
          "ticks": 20544,
          "time": 63.564420000000005,
          "velocity": 0.84251968503937
        },
        {
          "duration": 0.14851500000000328,
          "durationTicks": 48,
          "midi": 87,
          "name": "D#6",
          "ticks": 20616,
          "time": 63.7871925,
          "velocity": 0.84251968503937
        },
        {
          "duration": 0.14851499999998907,
          "durationTicks": 48,
          "midi": 83,
          "name": "B5",
          "ticks": 20688,
          "time": 64.00996500000001,
          "velocity": 0.84251968503937
        },
        {
          "duration": 0.14851500000000328,
          "durationTicks": 48,
          "midi": 78,
          "name": "F#5",
          "ticks": 20736,
          "time": 64.15848,
          "velocity": 0.84251968503937
        },
        {
          "duration": 0.14851500000000328,
          "durationTicks": 48,
          "midi": 76,
          "name": "E5",
          "ticks": 20808,
          "time": 64.3812525,
          "velocity": 0.84251968503937
        },
        {
          "duration": 0.14851500000000328,
          "durationTicks": 48,
          "midi": 78,
          "name": "F#5",
          "ticks": 20880,
          "time": 64.60402500000001,
          "velocity": 0.84251968503937
        },
        {
          "duration": 0.29702999999999236,
          "durationTicks": 96,
          "midi": 80,
          "name": "G#5",
          "ticks": 20928,
          "time": 64.75254000000001,
          "velocity": 0.84251968503937
        },
        {
          "duration": 0.07425750000000164,
          "durationTicks": 24,
          "midi": 80,
          "name": "G#5",
          "ticks": 21072,
          "time": 65.198085,
          "velocity": 0.84251968503937
        },
        {
          "duration": 0.07425750000000164,
          "durationTicks": 24,
          "midi": 83,
          "name": "B5",
          "ticks": 21096,
          "time": 65.27234250000001,
          "velocity": 0.84251968503937
        },
        {
          "duration": 0.14851499999998907,
          "durationTicks": 48,
          "midi": 85,
          "name": "C#6",
          "ticks": 21120,
          "time": 65.34660000000001,
          "velocity": 0.84251968503937
        },
        {
          "duration": 0.14851500000000328,
          "durationTicks": 48,
          "midi": 85,
          "name": "C#6",
          "ticks": 21216,
          "time": 65.64363,
          "velocity": 0.84251968503937
        },
        {
          "duration": 0.14851500000000328,
          "durationTicks": 48,
          "midi": 87,
          "name": "D#6",
          "ticks": 21264,
          "time": 65.792145,
          "velocity": 0.84251968503937
        },
        {
          "duration": 0.14851499999998907,
          "durationTicks": 48,
          "midi": 88,
          "name": "E6",
          "ticks": 21312,
          "time": 65.94066000000001,
          "velocity": 0.84251968503937
        },
        {
          "duration": 0.14851500000000328,
          "durationTicks": 48,
          "midi": 87,
          "name": "D#6",
          "ticks": 21384,
          "time": 66.1634325,
          "velocity": 0.84251968503937
        },
        {
          "duration": 0.14851500000000328,
          "durationTicks": 48,
          "midi": 83,
          "name": "B5",
          "ticks": 21456,
          "time": 66.386205,
          "velocity": 0.84251968503937
        },
        {
          "duration": 0.14851500000000328,
          "durationTicks": 48,
          "midi": 90,
          "name": "F#6",
          "ticks": 21504,
          "time": 66.53472000000001,
          "velocity": 0.84251968503937
        },
        {
          "duration": 0.14851500000000328,
          "durationTicks": 48,
          "midi": 88,
          "name": "E6",
          "ticks": 21576,
          "time": 66.7574925,
          "velocity": 0.84251968503937
        },
        {
          "duration": 0.14851500000000328,
          "durationTicks": 48,
          "midi": 87,
          "name": "D#6",
          "ticks": 21648,
          "time": 66.980265,
          "velocity": 0.84251968503937
        },
        {
          "duration": 0.29702999999999236,
          "durationTicks": 96,
          "midi": 85,
          "name": "C#6",
          "ticks": 21696,
          "time": 67.12878,
          "velocity": 0.84251968503937
        }
      ],
      "endOfTrackTicks": 39938
    },
    {
      "channel": 4,
      "controlChanges": {
        "6": [
          {
            "number": 6,
            "ticks": 0,
            "time": 0,
            "value": 0.09448818897637795
          },
          {
            "number": 6,
            "ticks": 0,
            "time": 0,
            "value": 0.09448818897637795
          },
          {
            "number": 6,
            "ticks": 0,
            "time": 0,
            "value": 0.09448818897637795
          },
          {
            "number": 6,
            "ticks": 39936,
            "time": 123.56448,
            "value": 0.09448818897637795
          },
          {
            "number": 6,
            "ticks": 39938,
            "time": 123.570668125,
            "value": 0.09448818897637795
          }
        ],
        "7": [
          {
            "number": 7,
            "ticks": 0,
            "time": 0,
            "value": 0.7874015748031497
          },
          {
            "number": 7,
            "ticks": 0,
            "time": 0,
            "value": 0.7874015748031497
          },
          {
            "number": 7,
            "ticks": 0,
            "time": 0,
            "value": 0.7874015748031497
          },
          {
            "number": 7,
            "ticks": 0,
            "time": 0,
            "value": 0.7874015748031497
          },
          {
            "number": 7,
            "ticks": 39936,
            "time": 123.56448,
            "value": 0.7874015748031497
          },
          {
            "number": 7,
            "ticks": 39938,
            "time": 123.570668125,
            "value": 0.7874015748031497
          }
        ],
        "10": [
          {
            "number": 10,
            "ticks": 0,
            "time": 0,
            "value": 0.5039370078740157
          },
          {
            "number": 10,
            "ticks": 0,
            "time": 0,
            "value": 0.5039370078740157
          },
          {
            "number": 10,
            "ticks": 0,
            "time": 0,
            "value": 0.5039370078740157
          },
          {
            "number": 10,
            "ticks": 0,
            "time": 0,
            "value": 0.5039370078740157
          },
          {
            "number": 10,
            "ticks": 39936,
            "time": 123.56448,
            "value": 0.5039370078740157
          },
          {
            "number": 10,
            "ticks": 39938,
            "time": 123.570668125,
            "value": 0.5039370078740157
          }
        ],
        "100": [
          {
            "number": 100,
            "ticks": 0,
            "time": 0,
            "value": 0
          },
          {
            "number": 100,
            "ticks": 0,
            "time": 0,
            "value": 0
          },
          {
            "number": 100,
            "ticks": 0,
            "time": 0,
            "value": 0
          },
          {
            "number": 100,
            "ticks": 39936,
            "time": 123.56448,
            "value": 0
          },
          {
            "number": 100,
            "ticks": 39938,
            "time": 123.570668125,
            "value": 0
          }
        ],
        "101": [
          {
            "number": 101,
            "ticks": 0,
            "time": 0,
            "value": 0
          },
          {
            "number": 101,
            "ticks": 0,
            "time": 0,
            "value": 0
          },
          {
            "number": 101,
            "ticks": 0,
            "time": 0,
            "value": 0
          },
          {
            "number": 101,
            "ticks": 39936,
            "time": 123.56448,
            "value": 0
          },
          {
            "number": 101,
            "ticks": 39938,
            "time": 123.570668125,
            "value": 0
          }
        ]
      },
      "pitchBends": [
        {
          "ticks": 0,
          "time": 0,
          "value": 0
        },
        {
          "ticks": 0,
          "time": 0,
          "value": 0
        },
        {
          "ticks": 0,
          "time": 0,
          "value": 0
        },
        {
          "ticks": 0,
          "time": 0,
          "value": 0
        },
        {
          "ticks": 39936,
          "time": 123.56448,
          "value": 0
        },
        {
          "ticks": 39938,
          "time": 123.570668125,
          "value": 0
        }
      ],
      "instrument": {
        "family": "piano",
        "number": 0,
        "name": "acoustic grand piano"
      },
      "name": "Lead",
      "notes": [
        {
          "duration": 0.14851499999999973,
          "durationTicks": 48,
          "midi": 80,
          "name": "G#5",
          "ticks": 3456,
          "time": 10.69308,
          "velocity": 0.9133858267716536
        },
        {
          "duration": 0.1485150000000015,
          "durationTicks": 48,
          "midi": 75,
          "name": "D#5",
          "ticks": 3504,
          "time": 10.841595,
          "velocity": 0.9133858267716536
        },
        {
          "duration": 0.14851499999999973,
          "durationTicks": 48,
          "midi": 87,
          "name": "D#6",
          "ticks": 3552,
          "time": 10.990110000000001,
          "velocity": 0.9133858267716536
        },
        {
          "duration": 0.07425749999999987,
          "durationTicks": 24,
          "midi": 82,
          "name": "A#5",
          "ticks": 3600,
          "time": 11.138625000000001,
          "velocity": 0.9133858267716536
        },
        {
          "duration": 0.07425749999999987,
          "durationTicks": 24,
          "midi": 83,
          "name": "B5",
          "ticks": 3624,
          "time": 11.212882500000001,
          "velocity": 0.9133858267716536
        },
        {
          "duration": 0.14851499999999973,
          "durationTicks": 48,
          "midi": 82,
          "name": "A#5",
          "ticks": 3648,
          "time": 11.28714,
          "velocity": 0.9133858267716536
        },
        {
          "duration": 0.14851499999999973,
          "durationTicks": 48,
          "midi": 78,
          "name": "F#5",
          "ticks": 3696,
          "time": 11.435655,
          "velocity": 0.9133858267716536
        },
        {
          "duration": 0.14851499999999973,
          "durationTicks": 48,
          "midi": 73,
          "name": "C#5",
          "ticks": 3792,
          "time": 11.732685,
          "velocity": 0.9133858267716536
        },
        {
          "duration": 0.1485150000000015,
          "durationTicks": 48,
          "midi": 75,
          "name": "D#5",
          "ticks": 3840,
          "time": 11.8812,
          "velocity": 0.9133858267716536
        },
        {
          "duration": 0.14851499999999973,
          "durationTicks": 48,
          "midi": 82,
          "name": "A#5",
          "ticks": 3888,
          "time": 12.029715000000001,
          "velocity": 0.9133858267716536
        },
        {
          "duration": 0.14851499999999973,
          "durationTicks": 48,
          "midi": 83,
          "name": "B5",
          "ticks": 3936,
          "time": 12.178230000000001,
          "velocity": 0.9133858267716536
        },
        {
          "duration": 0.07425749999999987,
          "durationTicks": 24,
          "midi": 82,
          "name": "A#5",
          "ticks": 3984,
          "time": 12.326745,
          "velocity": 0.9133858267716536
        },
        {
          "duration": 0.07425749999999987,
          "durationTicks": 24,
          "midi": 83,
          "name": "B5",
          "ticks": 4008,
          "time": 12.4010025,
          "velocity": 0.9133858267716536
        },
        {
          "duration": 0.14851499999999973,
          "durationTicks": 48,
          "midi": 82,
          "name": "A#5",
          "ticks": 4032,
          "time": 12.47526,
          "velocity": 0.9133858267716536
        },
        {
          "duration": 0.14851499999999973,
          "durationTicks": 48,
          "midi": 78,
          "name": "F#5",
          "ticks": 4080,
          "time": 12.623775,
          "velocity": 0.9133858267716536
        },
        {
          "duration": 0.1485150000000015,
          "durationTicks": 48,
          "midi": 73,
          "name": "C#5",
          "ticks": 4128,
          "time": 12.77229,
          "velocity": 0.9133858267716536
        },
        {
          "duration": 0.14851499999999973,
          "durationTicks": 48,
          "midi": 70,
          "name": "A#4",
          "ticks": 4176,
          "time": 12.920805000000001,
          "velocity": 0.9133858267716536
        },
        {
          "duration": 0.14851499999999973,
          "durationTicks": 48,
          "midi": 68,
          "name": "G#4",
          "ticks": 4272,
          "time": 13.217835000000001,
          "velocity": 0.9133858267716536
        },
        {
          "duration": 0.14851499999999973,
          "durationTicks": 48,
          "midi": 73,
          "name": "C#5",
          "ticks": 4320,
          "time": 13.36635,
          "velocity": 0.9133858267716536
        },
        {
          "duration": 0.14851499999999973,
          "durationTicks": 48,
          "midi": 78,
          "name": "F#5",
          "ticks": 4368,
          "time": 13.514865,
          "velocity": 0.9133858267716536
        },
        {
          "duration": 0.07425749999999987,
          "durationTicks": 24,
          "midi": 80,
          "name": "G#5",
          "ticks": 4416,
          "time": 13.66338,
          "velocity": 0.9133858267716536
        },
        {
          "duration": 0.07425750000000164,
          "durationTicks": 24,
          "midi": 85,
          "name": "C#6",
          "ticks": 4440,
          "time": 13.7376375,
          "velocity": 0.9133858267716536
        },
        {
          "duration": 0.14851499999999973,
          "durationTicks": 48,
          "midi": 87,
          "name": "D#6",
          "ticks": 4464,
          "time": 13.811895000000002,
          "velocity": 0.9133858267716536
        },
        {
          "duration": 0.14851499999999973,
          "durationTicks": 48,
          "midi": 92,
          "name": "G#6",
          "ticks": 4512,
          "time": 13.960410000000001,
          "velocity": 0.9133858267716536
        },
        {
          "duration": 0.14851499999999973,
          "durationTicks": 48,
          "midi": 87,
          "name": "D#6",
          "ticks": 4560,
          "time": 14.108925000000001,
          "velocity": 0.9133858267716536
        },
        {
          "duration": 0.14851499999999973,
          "durationTicks": 48,
          "midi": 85,
          "name": "C#6",
          "ticks": 4608,
          "time": 14.25744,
          "velocity": 0.9133858267716536
        },
        {
          "duration": 0.14851499999999973,
          "durationTicks": 48,
          "midi": 85,
          "name": "C#6",
          "ticks": 4656,
          "time": 14.405955,
          "velocity": 0.9133858267716536
        },
        {
          "duration": 0.1485150000000015,
          "durationTicks": 48,
          "midi": 87,
          "name": "D#6",
          "ticks": 4752,
          "time": 14.702985,
          "velocity": 0.9133858267716536
        },
        {
          "duration": 0.14851499999999973,
          "durationTicks": 48,
          "midi": 80,
          "name": "G#5",
          "ticks": 4992,
          "time": 15.44556,
          "velocity": 0.9133858267716536
        },
        {
          "duration": 0.1485150000000015,
          "durationTicks": 48,
          "midi": 75,
          "name": "D#5",
          "ticks": 5040,
          "time": 15.594075,
          "velocity": 0.9133858267716536
        },
        {
          "duration": 0.14851499999999973,
          "durationTicks": 48,
          "midi": 87,
          "name": "D#6",
          "ticks": 5088,
          "time": 15.742590000000002,
          "velocity": 0.9133858267716536
        },
        {
          "duration": 0.07425749999999987,
          "durationTicks": 24,
          "midi": 82,
          "name": "A#5",
          "ticks": 5136,
          "time": 15.891105000000001,
          "velocity": 0.9133858267716536
        },
        {
          "duration": 0.07425749999999809,
          "durationTicks": 24,
          "midi": 83,
          "name": "B5",
          "ticks": 5160,
          "time": 15.965362500000001,
          "velocity": 0.9133858267716536
        },
        {
          "duration": 0.14851500000000328,
          "durationTicks": 48,
          "midi": 82,
          "name": "A#5",
          "ticks": 5184,
          "time": 16.03962,
          "velocity": 0.9133858267716536
        },
        {
          "duration": 0.14851499999999973,
          "durationTicks": 48,
          "midi": 78,
          "name": "F#5",
          "ticks": 5232,
          "time": 16.188135000000003,
          "velocity": 0.9133858267716536
        },
        {
          "duration": 0.14851499999999973,
          "durationTicks": 48,
          "midi": 73,
          "name": "C#5",
          "ticks": 5328,
          "time": 16.485165000000002,
          "velocity": 0.9133858267716536
        },
        {
          "duration": 0.14851499999999973,
          "durationTicks": 48,
          "midi": 75,
          "name": "D#5",
          "ticks": 5376,
          "time": 16.633680000000002,
          "velocity": 0.9133858267716536
        },
        {
          "duration": 0.14851499999999973,
          "durationTicks": 48,
          "midi": 82,
          "name": "A#5",
          "ticks": 5424,
          "time": 16.782195,
          "velocity": 0.9133858267716536
        },
        {
          "duration": 0.14851499999999973,
          "durationTicks": 48,
          "midi": 83,
          "name": "B5",
          "ticks": 5472,
          "time": 16.93071,
          "velocity": 0.9133858267716536
        },
        {
          "duration": 0.07425750000000164,
          "durationTicks": 24,
          "midi": 82,
          "name": "A#5",
          "ticks": 5520,
          "time": 17.079225,
          "velocity": 0.9133858267716536
        },
        {
          "duration": 0.07425749999999809,
          "durationTicks": 24,
          "midi": 83,
          "name": "B5",
          "ticks": 5544,
          "time": 17.153482500000003,
          "velocity": 0.9133858267716536
        },
        {
          "duration": 0.14851499999999973,
          "durationTicks": 48,
          "midi": 82,
          "name": "A#5",
          "ticks": 5568,
          "time": 17.22774,
          "velocity": 0.9133858267716536
        },
        {
          "duration": 0.14851499999999973,
          "durationTicks": 48,
          "midi": 78,
          "name": "F#5",
          "ticks": 5616,
          "time": 17.376255,
          "velocity": 0.9133858267716536
        },
        {
          "duration": 0.14851499999999973,
          "durationTicks": 48,
          "midi": 73,
          "name": "C#5",
          "ticks": 5664,
          "time": 17.52477,
          "velocity": 0.9133858267716536
        },
        {
          "duration": 0.14851499999999973,
          "durationTicks": 48,
          "midi": 70,
          "name": "A#4",
          "ticks": 5712,
          "time": 17.673285,
          "velocity": 0.9133858267716536
        },
        {
          "duration": 0.07425750000000164,
          "durationTicks": 24,
          "midi": 76,
          "name": "E5",
          "ticks": 5760,
          "time": 17.8218,
          "velocity": 0.9133858267716536
        },
        {
          "duration": 0.07425749999999809,
          "durationTicks": 24,
          "midi": 80,
          "name": "G#5",
          "ticks": 5784,
          "time": 17.8960575,
          "velocity": 0.9133858267716536
        },
        {
          "duration": 0.07425750000000164,
          "durationTicks": 24,
          "midi": 83,
          "name": "B5",
          "ticks": 5808,
          "time": 17.970315,
          "velocity": 0.9133858267716536
        },
        {
          "duration": 0.07425750000000164,
          "durationTicks": 24,
          "midi": 80,
          "name": "G#5",
          "ticks": 5832,
          "time": 18.0445725,
          "velocity": 0.9133858267716536
        },
        {
          "duration": 0.07425749999999809,
          "durationTicks": 24,
          "midi": 83,
          "name": "B5",
          "ticks": 5856,
          "time": 18.118830000000003,
          "velocity": 0.9133858267716536
        },
        {
          "duration": 0.07425750000000164,
          "durationTicks": 24,
          "midi": 87,
          "name": "D#6",
          "ticks": 5880,
          "time": 18.1930875,
          "velocity": 0.9133858267716536
        },
        {
          "duration": 0.07425749999999809,
          "durationTicks": 24,
          "midi": 90,
          "name": "F#6",
          "ticks": 5904,
          "time": 18.267345000000002,
          "velocity": 0.9133858267716536
        },
        {
          "duration": 0.07425750000000164,
          "durationTicks": 24,
          "midi": 92,
          "name": "G#6",
          "ticks": 5928,
          "time": 18.3416025,
          "velocity": 0.9133858267716536
        },
        {
          "duration": 0.07425749999999809,
          "durationTicks": 24,
          "midi": 97,
          "name": "C#7",
          "ticks": 5952,
          "time": 18.415860000000002,
          "velocity": 0.9133858267716536
        },
        {
          "duration": 0.07425750000000164,
          "durationTicks": 24,
          "midi": 92,
          "name": "G#6",
          "ticks": 5976,
          "time": 18.4901175,
          "velocity": 0.9133858267716536
        },
        {
          "duration": 0.07425749999999809,
          "durationTicks": 24,
          "midi": 90,
          "name": "F#6",
          "ticks": 6000,
          "time": 18.564375000000002,
          "velocity": 0.9133858267716536
        },
        {
          "duration": 0.07425750000000164,
          "durationTicks": 24,
          "midi": 87,
          "name": "D#6",
          "ticks": 6024,
          "time": 18.6386325,
          "velocity": 0.9133858267716536
        },
        {
          "duration": 0.07425749999999809,
          "durationTicks": 24,
          "midi": 82,
          "name": "A#5",
          "ticks": 6048,
          "time": 18.71289,
          "velocity": 0.9133858267716536
        },
        {
          "duration": 0.7425749999999987,
          "durationTicks": 240,
          "midi": 80,
          "name": "G#5",
          "ticks": 6096,
          "time": 18.861405,
          "velocity": 0.9133858267716536
        },
        {
          "duration": 0.08663375000000428,
          "durationTicks": 28,
          "midi": 80,
          "name": "G#5",
          "ticks": 6336,
          "time": 19.60398,
          "velocity": 0.9133858267716536
        },
        {
          "duration": 0.08663375000000073,
          "durationTicks": 28,
          "midi": 82,
          "name": "A#5",
          "ticks": 6368,
          "time": 19.70299,
          "velocity": 0.9133858267716536
        },
        {
          "duration": 0.08663374999999718,
          "durationTicks": 28,
          "midi": 83,
          "name": "B5",
          "ticks": 6400,
          "time": 19.802000000000003,
          "velocity": 0.9133858267716536
        },
        {
          "duration": 0.08663375000000428,
          "durationTicks": 28,
          "midi": 85,
          "name": "C#6",
          "ticks": 6432,
          "time": 19.90101,
          "velocity": 0.9133858267716536
        },
        {
          "duration": 0.08663375000000073,
          "durationTicks": 28,
          "midi": 83,
          "name": "B5",
          "ticks": 6464,
          "time": 20.00002,
          "velocity": 0.9133858267716536
        },
        {
          "duration": 0.08663374999999718,
          "durationTicks": 28,
          "midi": 82,
          "name": "A#5",
          "ticks": 6496,
          "time": 20.099030000000003,
          "velocity": 0.9133858267716536
        },
        {
          "duration": 0.14851499999999973,
          "durationTicks": 48,
          "midi": 55,
          "name": "G3",
          "ticks": 6528,
          "time": 20.198040000000002,
          "velocity": 0.8976377952755905
        },
        {
          "duration": 0.14851499999999973,
          "durationTicks": 48,
          "midi": 67,
          "name": "G4",
          "ticks": 6576,
          "time": 20.346555000000002,
          "velocity": 0.9133858267716536
        },
        {
          "duration": 0.07425749999999809,
          "durationTicks": 24,
          "midi": 55,
          "name": "G3",
          "ticks": 6624,
          "time": 20.495070000000002,
          "velocity": 0.8976377952755905
        },
        {
          "duration": 0.14851499999999973,
          "durationTicks": 48,
          "midi": 65,
          "name": "F4",
          "ticks": 6648,
          "time": 20.5693275,
          "velocity": 0.9133858267716536
        },
        {
          "duration": 0.07425750000000164,
          "durationTicks": 24,
          "midi": 55,
          "name": "G3",
          "ticks": 6696,
          "time": 20.7178425,
          "velocity": 0.8976377952755905
        },
        {
          "duration": 0.14851499999999973,
          "durationTicks": 48,
          "midi": 70,
          "name": "A#4",
          "ticks": 6720,
          "time": 20.7921,
          "velocity": 0.9133858267716536
        },
        {
          "duration": 0.07425750000000164,
          "durationTicks": 24,
          "midi": 55,
          "name": "G3",
          "ticks": 6768,
          "time": 20.940615,
          "velocity": 0.8976377952755905
        },
        {
          "duration": 0.14851499999999973,
          "durationTicks": 48,
          "midi": 65,
          "name": "F4",
          "ticks": 6792,
          "time": 21.014872500000003,
          "velocity": 0.9133858267716536
        },
        {
          "duration": 0.07425749999999809,
          "durationTicks": 24,
          "midi": 55,
          "name": "G3",
          "ticks": 6840,
          "time": 21.163387500000002,
          "velocity": 0.8976377952755905
        },
        {
          "duration": 0.14851499999999973,
          "durationTicks": 48,
          "midi": 67,
          "name": "G4",
          "ticks": 6864,
          "time": 21.237645,
          "velocity": 0.9133858267716536
        },
        {
          "duration": 0.14851499999999973,
          "durationTicks": 48,
          "midi": 55,
          "name": "G3",
          "ticks": 6912,
          "time": 21.38616,
          "velocity": 0.8976377952755905
        },
        {
          "duration": 0.14851499999999973,
          "durationTicks": 48,
          "midi": 67,
          "name": "G4",
          "ticks": 6960,
          "time": 21.534675,
          "velocity": 0.9133858267716536
        },
        {
          "duration": 0.07425750000000164,
          "durationTicks": 24,
          "midi": 55,
          "name": "G3",
          "ticks": 7008,
          "time": 21.68319,
          "velocity": 0.8976377952755905
        },
        {
          "duration": 0.14851499999999973,
          "durationTicks": 48,
          "midi": 65,
          "name": "F4",
          "ticks": 7032,
          "time": 21.7574475,
          "velocity": 0.9133858267716536
        },
        {
          "duration": 0.07425750000000164,
          "durationTicks": 24,
          "midi": 55,
          "name": "G3",
          "ticks": 7080,
          "time": 21.9059625,
          "velocity": 0.8976377952755905
        },
        {
          "duration": 0.14851499999999973,
          "durationTicks": 48,
          "midi": 70,
          "name": "A#4",
          "ticks": 7104,
          "time": 21.980220000000003,
          "velocity": 0.9133858267716536
        },
        {
          "duration": 0.07425749999999809,
          "durationTicks": 24,
          "midi": 55,
          "name": "G3",
          "ticks": 7152,
          "time": 22.128735000000002,
          "velocity": 0.8976377952755905
        },
        {
          "duration": 0.14851499999999973,
          "durationTicks": 48,
          "midi": 65,
          "name": "F4",
          "ticks": 7176,
          "time": 22.2029925,
          "velocity": 0.9133858267716536
        },
        {
          "duration": 0.07425750000000164,
          "durationTicks": 24,
          "midi": 55,
          "name": "G3",
          "ticks": 7224,
          "time": 22.3515075,
          "velocity": 0.8976377952755905
        },
        {
          "duration": 0.14851499999999973,
          "durationTicks": 48,
          "midi": 67,
          "name": "G4",
          "ticks": 7248,
          "time": 22.425765000000002,
          "velocity": 0.9133858267716536
        },
        {
          "duration": 0.14851499999999973,
          "durationTicks": 48,
          "midi": 55,
          "name": "G3",
          "ticks": 7296,
          "time": 22.57428,
          "velocity": 0.8976377952755905
        },
        {
          "duration": 0.14851499999999973,
          "durationTicks": 48,
          "midi": 67,
          "name": "G4",
          "ticks": 7344,
          "time": 22.722795,
          "velocity": 0.9133858267716536
        },
        {
          "duration": 0.07425750000000164,
          "durationTicks": 24,
          "midi": 55,
          "name": "G3",
          "ticks": 7392,
          "time": 22.87131,
          "velocity": 0.8976377952755905
        },
        {
          "duration": 0.14851499999999973,
          "durationTicks": 48,
          "midi": 65,
          "name": "F4",
          "ticks": 7416,
          "time": 22.945567500000003,
          "velocity": 0.9133858267716536
        },
        {
          "duration": 0.07425749999999809,
          "durationTicks": 24,
          "midi": 55,
          "name": "G3",
          "ticks": 7464,
          "time": 23.094082500000003,
          "velocity": 0.8976377952755905
        },
        {
          "duration": 0.14851499999999973,
          "durationTicks": 48,
          "midi": 70,
          "name": "A#4",
          "ticks": 7488,
          "time": 23.16834,
          "velocity": 0.9133858267716536
        },
        {
          "duration": 0.07425750000000164,
          "durationTicks": 24,
          "midi": 55,
          "name": "G3",
          "ticks": 7536,
          "time": 23.316855,
          "velocity": 0.8976377952755905
        },
        {
          "duration": 0.14851499999999973,
          "durationTicks": 48,
          "midi": 65,
          "name": "F4",
          "ticks": 7560,
          "time": 23.391112500000002,
          "velocity": 0.9133858267716536
        },
        {
          "duration": 0.07425749999999809,
          "durationTicks": 24,
          "midi": 55,
          "name": "G3",
          "ticks": 7608,
          "time": 23.5396275,
          "velocity": 0.8976377952755905
        },
        {
          "duration": 0.14851499999999973,
          "durationTicks": 48,
          "midi": 67,
          "name": "G4",
          "ticks": 7632,
          "time": 23.613885,
          "velocity": 0.9133858267716536
        },
        {
          "duration": 0.14851500000000328,
          "durationTicks": 48,
          "midi": 55,
          "name": "G3",
          "ticks": 7680,
          "time": 23.7624,
          "velocity": 0.8976377952755905
        },
        {
          "duration": 0.14851499999999973,
          "durationTicks": 48,
          "midi": 67,
          "name": "G4",
          "ticks": 7728,
          "time": 23.910915000000003,
          "velocity": 0.9133858267716536
        },
        {
          "duration": 0.07425749999999809,
          "durationTicks": 24,
          "midi": 55,
          "name": "G3",
          "ticks": 7776,
          "time": 24.059430000000003,
          "velocity": 0.8976377952755905
        },
        {
          "duration": 0.14851499999999973,
          "durationTicks": 48,
          "midi": 65,
          "name": "F4",
          "ticks": 7800,
          "time": 24.1336875,
          "velocity": 0.9133858267716536
        },
        {
          "duration": 0.07425750000000164,
          "durationTicks": 24,
          "midi": 55,
          "name": "G3",
          "ticks": 7848,
          "time": 24.2822025,
          "velocity": 0.8976377952755905
        },
        {
          "duration": 0.14851499999999973,
          "durationTicks": 48,
          "midi": 70,
          "name": "A#4",
          "ticks": 7872,
          "time": 24.356460000000002,
          "velocity": 0.9133858267716536
        },
        {
          "duration": 0.07425749999999809,
          "durationTicks": 24,
          "midi": 55,
          "name": "G3",
          "ticks": 7920,
          "time": 24.504975,
          "velocity": 0.8976377952755905
        },
        {
          "duration": 0.14851500000000328,
          "durationTicks": 48,
          "midi": 72,
          "name": "C5",
          "ticks": 7944,
          "time": 24.5792325,
          "velocity": 0.9133858267716536
        },
        {
          "duration": 0.07425749999999809,
          "durationTicks": 24,
          "midi": 55,
          "name": "G3",
          "ticks": 7992,
          "time": 24.727747500000003,
          "velocity": 0.8976377952755905
        },
        {
          "duration": 0.14851499999999973,
          "durationTicks": 48,
          "midi": 74,
          "name": "D5",
          "ticks": 8016,
          "time": 24.802005,
          "velocity": 0.9133858267716536
        },
        {
          "duration": 0.29702999999999946,
          "durationTicks": 96,
          "midi": 74,
          "name": "D5",
          "ticks": 8064,
          "time": 24.95052,
          "velocity": 0.9133858267716536
        },
        {
          "duration": 0.14851499999999973,
          "durationTicks": 48,
          "midi": 75,
          "name": "D#5",
          "ticks": 8160,
          "time": 25.24755,
          "velocity": 0.9133858267716536
        },
        {
          "duration": 0.07425750000000164,
          "durationTicks": 24,
          "midi": 74,
          "name": "D5",
          "ticks": 8208,
          "time": 25.396065,
          "velocity": 0.9133858267716536
        },
        {
          "duration": 0.07425749999999809,
          "durationTicks": 24,
          "midi": 70,
          "name": "A#4",
          "ticks": 8304,
          "time": 25.693095000000003,
          "velocity": 0.9133858267716536
        },
        {
          "duration": 0.14851499999999973,
          "durationTicks": 48,
          "midi": 65,
          "name": "F4",
          "ticks": 8400,
          "time": 25.990125000000003,
          "velocity": 0.9133858267716536
        },
        {
          "duration": 1.1881199999999978,
          "durationTicks": 384,
          "midi": 67,
          "name": "G4",
          "ticks": 8448,
          "time": 26.138640000000002,
          "velocity": 0.9133858267716536
        },
        {
          "duration": 0.297030000000003,
          "durationTicks": 96,
          "midi": 74,
          "name": "D5",
          "ticks": 8832,
          "time": 27.32676,
          "velocity": 0.9133858267716536
        },
        {
          "duration": 0.14851499999999973,
          "durationTicks": 48,
          "midi": 75,
          "name": "D#5",
          "ticks": 8928,
          "time": 27.623790000000003,
          "velocity": 0.9133858267716536
        },
        {
          "duration": 0.07425749999999809,
          "durationTicks": 24,
          "midi": 74,
          "name": "D5",
          "ticks": 8976,
          "time": 27.772305000000003,
          "velocity": 0.9133858267716536
        },
        {
          "duration": 0.07425749999999809,
          "durationTicks": 24,
          "midi": 70,
          "name": "A#4",
          "ticks": 9072,
          "time": 28.069335000000002,
          "velocity": 0.9133858267716536
        },
        {
          "duration": 0.14851499999999973,
          "durationTicks": 48,
          "midi": 65,
          "name": "F4",
          "ticks": 9168,
          "time": 28.366365000000002,
          "velocity": 0.9133858267716536
        },
        {
          "duration": 1.1881200000000014,
          "durationTicks": 384,
          "midi": 67,
          "name": "G4",
          "ticks": 9216,
          "time": 28.51488,
          "velocity": 0.9133858267716536
        },
        {
          "duration": 0.14851499999999973,
          "durationTicks": 48,
          "midi": 55,
          "name": "G3",
          "ticks": 9600,
          "time": 29.703000000000003,
          "velocity": 0.8976377952755905
        },
        {
          "duration": 0.14851499999999973,
          "durationTicks": 48,
          "midi": 67,
          "name": "G4",
          "ticks": 9648,
          "time": 29.851515000000003,
          "velocity": 0.9133858267716536
        },
        {
          "duration": 0.07425749999999809,
          "durationTicks": 24,
          "midi": 55,
          "name": "G3",
          "ticks": 9696,
          "time": 30.000030000000002,
          "velocity": 0.8976377952755905
        },
        {
          "duration": 0.14851499999999973,
          "durationTicks": 48,
          "midi": 65,
          "name": "F4",
          "ticks": 9720,
          "time": 30.0742875,
          "velocity": 0.9133858267716536
        },
        {
          "duration": 0.07425750000000164,
          "durationTicks": 24,
          "midi": 55,
          "name": "G3",
          "ticks": 9768,
          "time": 30.2228025,
          "velocity": 0.8976377952755905
        },
        {
          "duration": 0.14851499999999973,
          "durationTicks": 48,
          "midi": 70,
          "name": "A#4",
          "ticks": 9792,
          "time": 30.297060000000002,
          "velocity": 0.9133858267716536
        },
        {
          "duration": 0.07425750000000164,
          "durationTicks": 24,
          "midi": 55,
          "name": "G3",
          "ticks": 9840,
          "time": 30.445575,
          "velocity": 0.8976377952755905
        },
        {
          "duration": 0.14851499999999973,
          "durationTicks": 48,
          "midi": 65,
          "name": "F4",
          "ticks": 9864,
          "time": 30.519832500000003,
          "velocity": 0.9133858267716536
        },
        {
          "duration": 0.07425749999999809,
          "durationTicks": 24,
          "midi": 55,
          "name": "G3",
          "ticks": 9912,
          "time": 30.668347500000003,
          "velocity": 0.8976377952755905
        },
        {
          "duration": 0.14851499999999973,
          "durationTicks": 48,
          "midi": 67,
          "name": "G4",
          "ticks": 9936,
          "time": 30.742605,
          "velocity": 0.9133858267716536
        },
        {
          "duration": 0.14851499999999973,
          "durationTicks": 48,
          "midi": 55,
          "name": "G3",
          "ticks": 9984,
          "time": 30.89112,
          "velocity": 0.8976377952755905
        },
        {
          "duration": 0.14851499999999973,
          "durationTicks": 48,
          "midi": 67,
          "name": "G4",
          "ticks": 10032,
          "time": 31.039635,
          "velocity": 0.9133858267716536
        },
        {
          "duration": 0.07425750000000164,
          "durationTicks": 24,
          "midi": 55,
          "name": "G3",
          "ticks": 10080,
          "time": 31.18815,
          "velocity": 0.8976377952755905
        },
        {
          "duration": 0.14851499999999973,
          "durationTicks": 48,
          "midi": 65,
          "name": "F4",
          "ticks": 10104,
          "time": 31.262407500000002,
          "velocity": 0.9133858267716536
        },
        {
          "duration": 0.07425750000000164,
          "durationTicks": 24,
          "midi": 55,
          "name": "G3",
          "ticks": 10152,
          "time": 31.4109225,
          "velocity": 0.8976377952755905
        },
        {
          "duration": 0.14851499999999973,
          "durationTicks": 48,
          "midi": 70,
          "name": "A#4",
          "ticks": 10176,
          "time": 31.485180000000003,
          "velocity": 0.9133858267716536
        },
        {
          "duration": 0.07425749999999809,
          "durationTicks": 24,
          "midi": 55,
          "name": "G3",
          "ticks": 10224,
          "time": 31.633695000000003,
          "velocity": 0.8976377952755905
        },
        {
          "duration": 0.14851499999999973,
          "durationTicks": 48,
          "midi": 65,
          "name": "F4",
          "ticks": 10248,
          "time": 31.7079525,
          "velocity": 0.9133858267716536
        },
        {
          "duration": 0.07425750000000164,
          "durationTicks": 24,
          "midi": 55,
          "name": "G3",
          "ticks": 10296,
          "time": 31.8564675,
          "velocity": 0.8976377952755905
        },
        {
          "duration": 0.14851499999999618,
          "durationTicks": 48,
          "midi": 67,
          "name": "G4",
          "ticks": 10320,
          "time": 31.930725000000002,
          "velocity": 0.9133858267716536
        },
        {
          "duration": 0.14851500000000328,
          "durationTicks": 48,
          "midi": 55,
          "name": "G3",
          "ticks": 10368,
          "time": 32.07924,
          "velocity": 0.8976377952755905
        },
        {
          "duration": 0.14851500000000328,
          "durationTicks": 48,
          "midi": 67,
          "name": "G4",
          "ticks": 10416,
          "time": 32.227755,
          "velocity": 0.9133858267716536
        },
        {
          "duration": 0.07425749999999454,
          "durationTicks": 24,
          "midi": 55,
          "name": "G3",
          "ticks": 10464,
          "time": 32.376270000000005,
          "velocity": 0.8976377952755905
        },
        {
          "duration": 0.14851500000000328,
          "durationTicks": 48,
          "midi": 65,
          "name": "F4",
          "ticks": 10488,
          "time": 32.4505275,
          "velocity": 0.9133858267716536
        },
        {
          "duration": 0.07425750000000164,
          "durationTicks": 24,
          "midi": 55,
          "name": "G3",
          "ticks": 10536,
          "time": 32.5990425,
          "velocity": 0.8976377952755905
        },
        {
          "duration": 0.14851499999999618,
          "durationTicks": 48,
          "midi": 70,
          "name": "A#4",
          "ticks": 10560,
          "time": 32.673300000000005,
          "velocity": 0.9133858267716536
        },
        {
          "duration": 0.07425750000000164,
          "durationTicks": 24,
          "midi": 55,
          "name": "G3",
          "ticks": 10608,
          "time": 32.821815,
          "velocity": 0.8976377952755905
        },
        {
          "duration": 0.14851499999999618,
          "durationTicks": 48,
          "midi": 65,
          "name": "F4",
          "ticks": 10632,
          "time": 32.8960725,
          "velocity": 0.9133858267716536
        },
        {
          "duration": 0.07425750000000164,
          "durationTicks": 24,
          "midi": 55,
          "name": "G3",
          "ticks": 10680,
          "time": 33.0445875,
          "velocity": 0.8976377952755905
        },
        {
          "duration": 0.14851500000000328,
          "durationTicks": 48,
          "midi": 67,
          "name": "G4",
          "ticks": 10704,
          "time": 33.118845,
          "velocity": 0.9133858267716536
        },
        {
          "duration": 0.14851499999999618,
          "durationTicks": 48,
          "midi": 55,
          "name": "G3",
          "ticks": 10752,
          "time": 33.267360000000004,
          "velocity": 0.8976377952755905
        },
        {
          "duration": 0.14851500000000328,
          "durationTicks": 48,
          "midi": 67,
          "name": "G4",
          "ticks": 10800,
          "time": 33.415875,
          "velocity": 0.9133858267716536
        },
        {
          "duration": 0.07425750000000164,
          "durationTicks": 24,
          "midi": 55,
          "name": "G3",
          "ticks": 10848,
          "time": 33.56439,
          "velocity": 0.8976377952755905
        },
        {
          "duration": 0.14851499999999618,
          "durationTicks": 48,
          "midi": 65,
          "name": "F4",
          "ticks": 10872,
          "time": 33.638647500000005,
          "velocity": 0.9133858267716536
        },
        {
          "duration": 0.07425750000000164,
          "durationTicks": 24,
          "midi": 55,
          "name": "G3",
          "ticks": 10920,
          "time": 33.7871625,
          "velocity": 0.8976377952755905
        },
        {
          "duration": 0.14851499999999618,
          "durationTicks": 48,
          "midi": 70,
          "name": "A#4",
          "ticks": 10944,
          "time": 33.86142,
          "velocity": 0.9133858267716536
        },
        {
          "duration": 0.07425750000000164,
          "durationTicks": 24,
          "midi": 55,
          "name": "G3",
          "ticks": 10992,
          "time": 34.009935,
          "velocity": 0.8976377952755905
        },
        {
          "duration": 0.14851500000000328,
          "durationTicks": 48,
          "midi": 72,
          "name": "C5",
          "ticks": 11016,
          "time": 34.0841925,
          "velocity": 0.9133858267716536
        },
        {
          "duration": 0.07425750000000164,
          "durationTicks": 24,
          "midi": 55,
          "name": "G3",
          "ticks": 11064,
          "time": 34.232707500000004,
          "velocity": 0.8976377952755905
        },
        {
          "duration": 0.14851499999999618,
          "durationTicks": 48,
          "midi": 74,
          "name": "D5",
          "ticks": 11088,
          "time": 34.306965000000005,
          "velocity": 0.9133858267716536
        },
        {
          "duration": 0.29702999999999946,
          "durationTicks": 96,
          "midi": 74,
          "name": "D5",
          "ticks": 11136,
          "time": 34.45548,
          "velocity": 0.9133858267716536
        },
        {
          "duration": 0.14851500000000328,
          "durationTicks": 48,
          "midi": 75,
          "name": "D#5",
          "ticks": 11232,
          "time": 34.75251,
          "velocity": 0.9133858267716536
        },
        {
          "duration": 0.07425749999999454,
          "durationTicks": 24,
          "midi": 74,
          "name": "D5",
          "ticks": 11280,
          "time": 34.901025000000004,
          "velocity": 0.9133858267716536
        },
        {
          "duration": 0.07425750000000164,
          "durationTicks": 24,
          "midi": 70,
          "name": "A#4",
          "ticks": 11376,
          "time": 35.198055000000004,
          "velocity": 0.9133858267716536
        },
        {
          "duration": 0.14851499999999618,
          "durationTicks": 48,
          "midi": 65,
          "name": "F4",
          "ticks": 11472,
          "time": 35.495085,
          "velocity": 0.9133858267716536
        },
        {
          "duration": 1.188120000000005,
          "durationTicks": 384,
          "midi": 67,
          "name": "G4",
          "ticks": 11520,
          "time": 35.6436,
          "velocity": 0.9133858267716536
        },
        {
          "duration": 0.29702999999999946,
          "durationTicks": 96,
          "midi": 74,
          "name": "D5",
          "ticks": 11904,
          "time": 36.831720000000004,
          "velocity": 0.9133858267716536
        },
        {
          "duration": 0.14851499999999618,
          "durationTicks": 48,
          "midi": 75,
          "name": "D#5",
          "ticks": 12000,
          "time": 37.128750000000004,
          "velocity": 0.9133858267716536
        },
        {
          "duration": 0.07425750000000164,
          "durationTicks": 24,
          "midi": 74,
          "name": "D5",
          "ticks": 12048,
          "time": 37.277265,
          "velocity": 0.9133858267716536
        },
        {
          "duration": 0.07425750000000164,
          "durationTicks": 24,
          "midi": 70,
          "name": "A#4",
          "ticks": 12144,
          "time": 37.574295,
          "velocity": 0.9133858267716536
        },
        {
          "duration": 0.14851500000000328,
          "durationTicks": 48,
          "midi": 65,
          "name": "F4",
          "ticks": 12240,
          "time": 37.871325,
          "velocity": 0.9133858267716536
        },
        {
          "duration": 1.1881199999999978,
          "durationTicks": 384,
          "midi": 67,
          "name": "G4",
          "ticks": 12288,
          "time": 38.01984,
          "velocity": 0.9133858267716536
        },
        {
          "duration": 0.22277249999999782,
          "durationTicks": 72,
          "midi": 82,
          "name": "A#5",
          "ticks": 15744,
          "time": 48.712920000000004,
          "velocity": 0.9291338582677166
        },
        {
          "duration": 0.22277249999999782,
          "durationTicks": 72,
          "midi": 86,
          "name": "D6",
          "ticks": 15816,
          "time": 48.9356925,
          "velocity": 0.9291338582677166
        },
        {
          "duration": 0.14851500000000328,
          "durationTicks": 48,
          "midi": 87,
          "name": "D#6",
          "ticks": 15888,
          "time": 49.158465,
          "velocity": 0.9291338582677166
        },
        {
          "duration": 0.22277249999999782,
          "durationTicks": 72,
          "midi": 86,
          "name": "D6",
          "ticks": 15936,
          "time": 49.30698,
          "velocity": 0.9291338582677166
        },
        {
          "duration": 0.22277250000000492,
          "durationTicks": 72,
          "midi": 82,
          "name": "A#5",
          "ticks": 16008,
          "time": 49.5297525,
          "velocity": 0.9291338582677166
        },
        {
          "duration": 0.14851499999999618,
          "durationTicks": 48,
          "midi": 75,
          "name": "D#5",
          "ticks": 16080,
          "time": 49.752525000000006,
          "velocity": 0.9291338582677166
        },
        {
          "duration": 0.22277249999999782,
          "durationTicks": 72,
          "midi": 77,
          "name": "F5",
          "ticks": 16128,
          "time": 49.90104,
          "velocity": 0.9291338582677166
        },
        {
          "duration": 0.22277250000000492,
          "durationTicks": 72,
          "midi": 75,
          "name": "D#5",
          "ticks": 16200,
          "time": 50.1238125,
          "velocity": 0.9291338582677166
        },
        {
          "duration": 0.14851499999999618,
          "durationTicks": 48,
          "midi": 77,
          "name": "F5",
          "ticks": 16272,
          "time": 50.346585000000005,
          "velocity": 0.9291338582677166
        },
        {
          "duration": 0.22277250000000492,
          "durationTicks": 72,
          "midi": 79,
          "name": "G5",
          "ticks": 16320,
          "time": 50.4951,
          "velocity": 0.9291338582677166
        },
        {
          "duration": 0.22277249999999782,
          "durationTicks": 72,
          "midi": 77,
          "name": "F5",
          "ticks": 16392,
          "time": 50.717872500000006,
          "velocity": 0.9291338582677166
        },
        {
          "duration": 0.14851499999999618,
          "durationTicks": 48,
          "midi": 79,
          "name": "G5",
          "ticks": 16464,
          "time": 50.940645,
          "velocity": 0.9291338582677166
        },
        {
          "duration": 0.22277250000000492,
          "durationTicks": 72,
          "midi": 82,
          "name": "A#5",
          "ticks": 16512,
          "time": 51.08916,
          "velocity": 0.9291338582677166
        },
        {
          "duration": 0.22277249999999782,
          "durationTicks": 72,
          "midi": 86,
          "name": "D6",
          "ticks": 16584,
          "time": 51.311932500000005,
          "velocity": 0.9291338582677166
        },
        {
          "duration": 0.14851500000000328,
          "durationTicks": 48,
          "midi": 87,
          "name": "D#6",
          "ticks": 16656,
          "time": 51.534705,
          "velocity": 0.9291338582677166
        },
        {
          "duration": 0.22277249999999782,
          "durationTicks": 72,
          "midi": 86,
          "name": "D6",
          "ticks": 16704,
          "time": 51.683220000000006,
          "velocity": 0.9291338582677166
        },
        {
          "duration": 0.22277249999999782,
          "durationTicks": 72,
          "midi": 82,
          "name": "A#5",
          "ticks": 16776,
          "time": 51.9059925,
          "velocity": 0.9291338582677166
        },
        {
          "duration": 0.14851500000000328,
          "durationTicks": 48,
          "midi": 75,
          "name": "D#5",
          "ticks": 16848,
          "time": 52.128765,
          "velocity": 0.9291338582677166
        },
        {
          "duration": 0.22277249999999782,
          "durationTicks": 72,
          "midi": 89,
          "name": "F6",
          "ticks": 16896,
          "time": 52.277280000000005,
          "velocity": 0.9291338582677166
        },
        {
          "duration": 0.22277249999999782,
          "durationTicks": 72,
          "midi": 87,
          "name": "D#6",
          "ticks": 16968,
          "time": 52.5000525,
          "velocity": 0.9291338582677166
        },
        {
          "duration": 0.14851500000000328,
          "durationTicks": 48,
          "midi": 86,
          "name": "D6",
          "ticks": 17040,
          "time": 52.722825,
          "velocity": 0.9291338582677166
        },
        {
          "duration": 0.22277249999999782,
          "durationTicks": 72,
          "midi": 84,
          "name": "C6",
          "ticks": 17088,
          "time": 52.871340000000004,
          "velocity": 0.9291338582677166
        },
        {
          "duration": 0.22277250000000492,
          "durationTicks": 72,
          "midi": 82,
          "name": "A#5",
          "ticks": 17160,
          "time": 53.0941125,
          "velocity": 0.9291338582677166
        },
        {
          "duration": 0.14851499999999618,
          "durationTicks": 48,
          "midi": 79,
          "name": "G5",
          "ticks": 17232,
          "time": 53.316885000000006,
          "velocity": 0.9291338582677166
        },
        {
          "duration": 0.22277249999999782,
          "durationTicks": 72,
          "midi": 83,
          "name": "B5",
          "ticks": 17280,
          "time": 53.4654,
          "velocity": 0.9291338582677166
        },
        {
          "duration": 0.22277250000000492,
          "durationTicks": 72,
          "midi": 87,
          "name": "D#6",
          "ticks": 17352,
          "time": 53.6881725,
          "velocity": 0.9291338582677166
        },
        {
          "duration": 0.14851499999999618,
          "durationTicks": 48,
          "midi": 88,
          "name": "E6",
          "ticks": 17424,
          "time": 53.910945000000005,
          "velocity": 0.9291338582677166
        },
        {
          "duration": 0.22277250000000492,
          "durationTicks": 72,
          "midi": 87,
          "name": "D#6",
          "ticks": 17472,
          "time": 54.05946,
          "velocity": 0.9291338582677166
        },
        {
          "duration": 0.22277249999999782,
          "durationTicks": 72,
          "midi": 83,
          "name": "B5",
          "ticks": 17544,
          "time": 54.282232500000006,
          "velocity": 0.9291338582677166
        },
        {
          "duration": 0.14851499999999618,
          "durationTicks": 48,
          "midi": 76,
          "name": "E5",
          "ticks": 17616,
          "time": 54.505005000000004,
          "velocity": 0.9291338582677166
        },
        {
          "duration": 0.22277250000000492,
          "durationTicks": 72,
          "midi": 78,
          "name": "F#5",
          "ticks": 17664,
          "time": 54.65352,
          "velocity": 0.9291338582677166
        },
        {
          "duration": 0.22277249999999782,
          "durationTicks": 72,
          "midi": 76,
          "name": "E5",
          "ticks": 17736,
          "time": 54.876292500000005,
          "velocity": 0.9291338582677166
        },
        {
          "duration": 0.14851500000000328,
          "durationTicks": 48,
          "midi": 78,
          "name": "F#5",
          "ticks": 17808,
          "time": 55.099065,
          "velocity": 0.9291338582677166
        },
        {
          "duration": 0.22277249999999782,
          "durationTicks": 72,
          "midi": 80,
          "name": "G#5",
          "ticks": 17856,
          "time": 55.247580000000006,
          "velocity": 0.9291338582677166
        },
        {
          "duration": 0.22277249999999782,
          "durationTicks": 72,
          "midi": 78,
          "name": "F#5",
          "ticks": 17928,
          "time": 55.470352500000004,
          "velocity": 0.9291338582677166
        },
        {
          "duration": 0.14851500000000328,
          "durationTicks": 48,
          "midi": 80,
          "name": "G#5",
          "ticks": 18000,
          "time": 55.693125,
          "velocity": 0.9291338582677166
        },
        {
          "duration": 0.07425749999999454,
          "durationTicks": 24,
          "midi": 76,
          "name": "E5",
          "ticks": 18048,
          "time": 55.841640000000005,
          "velocity": 0.9291338582677166
        },
        {
          "duration": 0.07425750000000164,
          "durationTicks": 24,
          "midi": 78,
          "name": "F#5",
          "ticks": 18072,
          "time": 55.9158975,
          "velocity": 0.9291338582677166
        },
        {
          "duration": 0.07425750000000164,
          "durationTicks": 24,
          "midi": 80,
          "name": "G#5",
          "ticks": 18096,
          "time": 55.990155,
          "velocity": 0.9291338582677166
        },
        {
          "duration": 0.07425750000000164,
          "durationTicks": 24,
          "midi": 83,
          "name": "B5",
          "ticks": 18120,
          "time": 56.0644125,
          "velocity": 0.9291338582677166
        },
        {
          "duration": 0.07425750000000164,
          "durationTicks": 24,
          "midi": 78,
          "name": "F#5",
          "ticks": 18144,
          "time": 56.138670000000005,
          "velocity": 0.9291338582677166
        },
        {
          "duration": 0.07425749999999454,
          "durationTicks": 24,
          "midi": 80,
          "name": "G#5",
          "ticks": 18168,
          "time": 56.212927500000006,
          "velocity": 0.9291338582677166
        },
        {
          "duration": 0.07425750000000164,
          "durationTicks": 24,
          "midi": 83,
          "name": "B5",
          "ticks": 18192,
          "time": 56.287185,
          "velocity": 0.9291338582677166
        },
        {
          "duration": 0.07425750000000164,
          "durationTicks": 24,
          "midi": 87,
          "name": "D#6",
          "ticks": 18216,
          "time": 56.3614425,
          "velocity": 0.9291338582677166
        },
        {
          "duration": 0.07425750000000164,
          "durationTicks": 24,
          "midi": 88,
          "name": "E6",
          "ticks": 18240,
          "time": 56.435700000000004,
          "velocity": 0.9291338582677166
        },
        {
          "duration": 0.07425749999999454,
          "durationTicks": 24,
          "midi": 87,
          "name": "D#6",
          "ticks": 18264,
          "time": 56.509957500000006,
          "velocity": 0.9291338582677166
        },
        {
          "duration": 0.07425750000000164,
          "durationTicks": 24,
          "midi": 85,
          "name": "C#6",
          "ticks": 18288,
          "time": 56.584215,
          "velocity": 0.9291338582677166
        },
        {
          "duration": 0.07425750000000164,
          "durationTicks": 24,
          "midi": 83,
          "name": "B5",
          "ticks": 18312,
          "time": 56.6584725,
          "velocity": 0.9133858267716536
        },
        {
          "duration": 0.14851499999999618,
          "durationTicks": 48,
          "midi": 80,
          "name": "G#5",
          "ticks": 18336,
          "time": 56.732730000000004,
          "velocity": 0.9291338582677166
        },
        {
          "duration": 0.14851500000000328,
          "durationTicks": 48,
          "midi": 85,
          "name": "C#6",
          "ticks": 18384,
          "time": 56.881245,
          "velocity": 0.9291338582677166
        },
        {
          "duration": 0.07425749999999454,
          "durationTicks": 24,
          "midi": 85,
          "name": "C#6",
          "ticks": 18480,
          "time": 57.178275000000006,
          "velocity": 0.9291338582677166
        },
        {
          "duration": 0.07425750000000164,
          "durationTicks": 24,
          "midi": 85,
          "name": "C#6",
          "ticks": 18528,
          "time": 57.32679,
          "velocity": 0.9291338582677166
        },
        {
          "duration": 0.07425749999999454,
          "durationTicks": 24,
          "midi": 85,
          "name": "C#6",
          "ticks": 18576,
          "time": 57.475305000000006,
          "velocity": 0.9291338582677166
        },
        {
          "duration": 0.03712875000000082,
          "durationTicks": 12,
          "midi": 85,
          "name": "C#6",
          "ticks": 18624,
          "time": 57.62382,
          "velocity": 0.9291338582677166
        },
        {
          "duration": 0.03712875000000082,
          "durationTicks": 12,
          "midi": 85,
          "name": "C#6",
          "ticks": 18648,
          "time": 57.698077500000004,
          "velocity": 0.9291338582677166
        },
        {
          "duration": 0.07425749999999454,
          "durationTicks": 24,
          "midi": 85,
          "name": "C#6",
          "ticks": 18672,
          "time": 57.772335000000005,
          "velocity": 0.9291338582677166
        },
        {
          "duration": 0.07425750000000164,
          "durationTicks": 24,
          "midi": 80,
          "name": "G#5",
          "ticks": 21840,
          "time": 67.574325,
          "velocity": 0.9291338582677166
        },
        {
          "duration": 0.07425750000000164,
          "durationTicks": 24,
          "midi": 83,
          "name": "B5",
          "ticks": 21864,
          "time": 67.6485825,
          "velocity": 0.9291338582677166
        },
        {
          "duration": 0.14851500000000328,
          "durationTicks": 48,
          "midi": 85,
          "name": "C#6",
          "ticks": 21888,
          "time": 67.72284,
          "velocity": 0.9291338582677166
        },
        {
          "duration": 0.14851500000000328,
          "durationTicks": 48,
          "midi": 85,
          "name": "C#6",
          "ticks": 21984,
          "time": 68.01987,
          "velocity": 0.9291338582677166
        },
        {
          "duration": 0.14851500000000328,
          "durationTicks": 48,
          "midi": 87,
          "name": "D#6",
          "ticks": 22032,
          "time": 68.168385,
          "velocity": 0.9291338582677166
        },
        {
          "duration": 0.14851500000000328,
          "durationTicks": 48,
          "midi": 88,
          "name": "E6",
          "ticks": 22080,
          "time": 68.3169,
          "velocity": 0.9291338582677166
        },
        {
          "duration": 0.14851499999998907,
          "durationTicks": 48,
          "midi": 87,
          "name": "D#6",
          "ticks": 22152,
          "time": 68.53967250000001,
          "velocity": 0.9291338582677166
        },
        {
          "duration": 0.14851500000000328,
          "durationTicks": 48,
          "midi": 83,
          "name": "B5",
          "ticks": 22224,
          "time": 68.762445,
          "velocity": 0.9291338582677166
        },
        {
          "duration": 0.14851500000000328,
          "durationTicks": 48,
          "midi": 78,
          "name": "F#5",
          "ticks": 22272,
          "time": 68.91096,
          "velocity": 0.9291338582677166
        },
        {
          "duration": 0.14851499999998907,
          "durationTicks": 48,
          "midi": 76,
          "name": "E5",
          "ticks": 22344,
          "time": 69.13373250000001,
          "velocity": 0.9291338582677166
        },
        {
          "duration": 0.14851500000000328,
          "durationTicks": 48,
          "midi": 78,
          "name": "F#5",
          "ticks": 22416,
          "time": 69.356505,
          "velocity": 0.9291338582677166
        },
        {
          "duration": 0.29703000000000657,
          "durationTicks": 96,
          "midi": 80,
          "name": "G#5",
          "ticks": 22464,
          "time": 69.50502,
          "velocity": 0.9291338582677166
        },
        {
          "duration": 0.07425750000000164,
          "durationTicks": 24,
          "midi": 80,
          "name": "G#5",
          "ticks": 22608,
          "time": 69.950565,
          "velocity": 0.9291338582677166
        },
        {
          "duration": 0.07425750000000164,
          "durationTicks": 24,
          "midi": 83,
          "name": "B5",
          "ticks": 22632,
          "time": 70.0248225,
          "velocity": 0.9291338582677166
        },
        {
          "duration": 0.14851500000000328,
          "durationTicks": 48,
          "midi": 85,
          "name": "C#6",
          "ticks": 22656,
          "time": 70.09908,
          "velocity": 0.9291338582677166
        },
        {
          "duration": 0.14851500000000328,
          "durationTicks": 48,
          "midi": 85,
          "name": "C#6",
          "ticks": 22752,
          "time": 70.39611000000001,
          "velocity": 0.9291338582677166
        },
        {
          "duration": 0.14851499999998907,
          "durationTicks": 48,
          "midi": 87,
          "name": "D#6",
          "ticks": 22800,
          "time": 70.54462500000001,
          "velocity": 0.9291338582677166
        },
        {
          "duration": 0.14851500000000328,
          "durationTicks": 48,
          "midi": 88,
          "name": "E6",
          "ticks": 22848,
          "time": 70.69314,
          "velocity": 0.9291338582677166
        },
        {
          "duration": 0.14851500000000328,
          "durationTicks": 48,
          "midi": 87,
          "name": "D#6",
          "ticks": 22920,
          "time": 70.9159125,
          "velocity": 0.9291338582677166
        },
        {
          "duration": 0.14851499999998907,
          "durationTicks": 48,
          "midi": 83,
          "name": "B5",
          "ticks": 22992,
          "time": 71.13868500000001,
          "velocity": 0.9291338582677166
        },
        {
          "duration": 0.14851500000000328,
          "durationTicks": 48,
          "midi": 90,
          "name": "F#6",
          "ticks": 23040,
          "time": 71.2872,
          "velocity": 0.9291338582677166
        },
        {
          "duration": 0.14851500000000328,
          "durationTicks": 48,
          "midi": 88,
          "name": "E6",
          "ticks": 23112,
          "time": 71.5099725,
          "velocity": 0.9291338582677166
        },
        {
          "duration": 0.14851499999998907,
          "durationTicks": 48,
          "midi": 87,
          "name": "D#6",
          "ticks": 23184,
          "time": 71.73274500000001,
          "velocity": 0.9291338582677166
        },
        {
          "duration": 0.29703000000000657,
          "durationTicks": 96,
          "midi": 85,
          "name": "C#6",
          "ticks": 23232,
          "time": 71.88126,
          "velocity": 0.9291338582677166
        },
        {
          "duration": 0.07425750000000164,
          "durationTicks": 24,
          "midi": 80,
          "name": "G#5",
          "ticks": 23376,
          "time": 72.32680500000001,
          "velocity": 0.9291338582677166
        },
        {
          "duration": 0.07425750000000164,
          "durationTicks": 24,
          "midi": 83,
          "name": "B5",
          "ticks": 23400,
          "time": 72.40106250000001,
          "velocity": 0.9291338582677166
        },
        {
          "duration": 0.14851499999998907,
          "durationTicks": 48,
          "midi": 85,
          "name": "C#6",
          "ticks": 23424,
          "time": 72.47532000000001,
          "velocity": 0.9291338582677166
        },
        {
          "duration": 0.14851500000000328,
          "durationTicks": 48,
          "midi": 85,
          "name": "C#6",
          "ticks": 23520,
          "time": 72.77235,
          "velocity": 0.9291338582677166
        },
        {
          "duration": 0.14851500000000328,
          "durationTicks": 48,
          "midi": 87,
          "name": "D#6",
          "ticks": 23568,
          "time": 72.920865,
          "velocity": 0.9291338582677166
        },
        {
          "duration": 0.14851499999998907,
          "durationTicks": 48,
          "midi": 88,
          "name": "E6",
          "ticks": 23616,
          "time": 73.06938000000001,
          "velocity": 0.9291338582677166
        },
        {
          "duration": 0.14851500000000328,
          "durationTicks": 48,
          "midi": 87,
          "name": "D#6",
          "ticks": 23688,
          "time": 73.2921525,
          "velocity": 0.9291338582677166
        },
        {
          "duration": 0.14851500000000328,
          "durationTicks": 48,
          "midi": 83,
          "name": "B5",
          "ticks": 23760,
          "time": 73.514925,
          "velocity": 0.9291338582677166
        },
        {
          "duration": 0.14851499999998907,
          "durationTicks": 48,
          "midi": 78,
          "name": "F#5",
          "ticks": 23808,
          "time": 73.66344000000001,
          "velocity": 0.9291338582677166
        },
        {
          "duration": 0.14851500000000328,
          "durationTicks": 48,
          "midi": 76,
          "name": "E5",
          "ticks": 23880,
          "time": 73.8862125,
          "velocity": 0.9291338582677166
        },
        {
          "duration": 0.14851500000000328,
          "durationTicks": 48,
          "midi": 78,
          "name": "F#5",
          "ticks": 23952,
          "time": 74.108985,
          "velocity": 0.9291338582677166
        },
        {
          "duration": 0.29702999999999236,
          "durationTicks": 96,
          "midi": 80,
          "name": "G#5",
          "ticks": 24000,
          "time": 74.25750000000001,
          "velocity": 0.9291338582677166
        },
        {
          "duration": 0.07425750000000164,
          "durationTicks": 24,
          "midi": 80,
          "name": "G#5",
          "ticks": 24144,
          "time": 74.703045,
          "velocity": 0.9291338582677166
        },
        {
          "duration": 0.07425750000000164,
          "durationTicks": 24,
          "midi": 83,
          "name": "B5",
          "ticks": 24168,
          "time": 74.7773025,
          "velocity": 0.9291338582677166
        },
        {
          "duration": 0.14851500000000328,
          "durationTicks": 48,
          "midi": 85,
          "name": "C#6",
          "ticks": 24192,
          "time": 74.85156,
          "velocity": 0.9291338582677166
        },
        {
          "duration": 0.14851500000000328,
          "durationTicks": 48,
          "midi": 85,
          "name": "C#6",
          "ticks": 24288,
          "time": 75.14859,
          "velocity": 0.9291338582677166
        },
        {
          "duration": 0.14851500000000328,
          "durationTicks": 48,
          "midi": 87,
          "name": "D#6",
          "ticks": 24336,
          "time": 75.297105,
          "velocity": 0.9291338582677166
        },
        {
          "duration": 0.14851500000000328,
          "durationTicks": 48,
          "midi": 88,
          "name": "E6",
          "ticks": 24384,
          "time": 75.44562,
          "velocity": 0.9291338582677166
        },
        {
          "duration": 0.14851499999998907,
          "durationTicks": 48,
          "midi": 87,
          "name": "D#6",
          "ticks": 24456,
          "time": 75.66839250000001,
          "velocity": 0.9291338582677166
        },
        {
          "duration": 0.14851500000000328,
          "durationTicks": 48,
          "midi": 83,
          "name": "B5",
          "ticks": 24528,
          "time": 75.891165,
          "velocity": 0.9291338582677166
        },
        {
          "duration": 0.14851499999998907,
          "durationTicks": 48,
          "midi": 90,
          "name": "F#6",
          "ticks": 24672,
          "time": 76.33671000000001,
          "velocity": 0.9291338582677166
        },
        {
          "duration": 0.14851500000000328,
          "durationTicks": 48,
          "midi": 88,
          "name": "E6",
          "ticks": 24768,
          "time": 76.63374,
          "velocity": 0.9291338582677166
        },
        {
          "duration": 0.14851499999998907,
          "durationTicks": 48,
          "midi": 87,
          "name": "D#6",
          "ticks": 24864,
          "time": 76.93077000000001,
          "velocity": 0.9291338582677166
        },
        {
          "duration": 0.14851500000000328,
          "durationTicks": 48,
          "midi": 85,
          "name": "C#6",
          "ticks": 24960,
          "time": 77.2278,
          "velocity": 0.9291338582677166
        },
        {
          "duration": 0.14851499999998907,
          "durationTicks": 48,
          "midi": 85,
          "name": "C#6",
          "ticks": 25056,
          "time": 77.52483000000001,
          "velocity": 0.9291338582677166
        },
        {
          "duration": 0.07425749999998743,
          "durationTicks": 24,
          "midi": 57,
          "name": "A3",
          "ticks": 25080,
          "time": 77.59908750000001,
          "velocity": 0.8110236220472441
        },
        {
          "duration": 0.14851500000000328,
          "durationTicks": 48,
          "midi": 87,
          "name": "D#6",
          "ticks": 25104,
          "time": 77.673345,
          "velocity": 0.9291338582677166
        },
        {
          "duration": 0.07425750000000164,
          "durationTicks": 24,
          "midi": 57,
          "name": "A3",
          "ticks": 25128,
          "time": 77.7476025,
          "velocity": 0.8110236220472441
        },
        {
          "duration": 0.14851500000000328,
          "durationTicks": 48,
          "midi": 88,
          "name": "E6",
          "ticks": 25152,
          "time": 77.82186,
          "velocity": 0.9291338582677166
        },
        {
          "duration": 0.07425750000000164,
          "durationTicks": 24,
          "midi": 60,
          "name": "C4",
          "ticks": 25200,
          "time": 77.970375,
          "velocity": 0.8110236220472441
        },
        {
          "duration": 0.14851500000000328,
          "durationTicks": 48,
          "midi": 87,
          "name": "D#6",
          "ticks": 25224,
          "time": 78.0446325,
          "velocity": 0.9291338582677166
        },
        {
          "duration": 0.07425750000000164,
          "durationTicks": 24,
          "midi": 60,
          "name": "C4",
          "ticks": 25272,
          "time": 78.19314750000001,
          "velocity": 0.8110236220472441
        },
        {
          "duration": 0.14851499999998907,
          "durationTicks": 48,
          "midi": 83,
          "name": "B5",
          "ticks": 25296,
          "time": 78.26740500000001,
          "velocity": 0.9291338582677166
        },
        {
          "duration": 0.14851500000000328,
          "durationTicks": 48,
          "midi": 78,
          "name": "F#5",
          "ticks": 25344,
          "time": 78.41592,
          "velocity": 0.9291338582677166
        },
        {
          "duration": 0.07425750000000164,
          "durationTicks": 24,
          "midi": 61,
          "name": "C#4",
          "ticks": 25392,
          "time": 78.564435,
          "velocity": 0.8110236220472441
        },
        {
          "duration": 0.14851500000000328,
          "durationTicks": 48,
          "midi": 76,
          "name": "E5",
          "ticks": 25416,
          "time": 78.6386925,
          "velocity": 0.9291338582677166
        },
        {
          "duration": 0.07425750000000164,
          "durationTicks": 24,
          "midi": 61,
          "name": "C#4",
          "ticks": 25464,
          "time": 78.78720750000001,
          "velocity": 0.8110236220472441
        },
        {
          "duration": 0.14851499999998907,
          "durationTicks": 48,
          "midi": 78,
          "name": "F#5",
          "ticks": 25488,
          "time": 78.86146500000001,
          "velocity": 0.9291338582677166
        },
        {
          "duration": 0.14851500000000328,
          "durationTicks": 48,
          "midi": 80,
          "name": "G#5",
          "ticks": 25536,
          "time": 79.00998,
          "velocity": 0.9291338582677166
        },
        {
          "duration": 0.07425750000000164,
          "durationTicks": 24,
          "midi": 58,
          "name": "A#3",
          "ticks": 25584,
          "time": 79.158495,
          "velocity": 0.8110236220472441
        },
        {
          "duration": 0.14851500000000328,
          "durationTicks": 48,
          "midi": 78,
          "name": "F#5",
          "ticks": 25608,
          "time": 79.2327525,
          "velocity": 0.9291338582677166
        },
        {
          "duration": 0.07425750000000164,
          "durationTicks": 24,
          "midi": 58,
          "name": "A#3",
          "ticks": 25656,
          "time": 79.3812675,
          "velocity": 0.8110236220472441
        },
        {
          "duration": 0.07425750000000164,
          "durationTicks": 24,
          "midi": 80,
          "name": "G#5",
          "ticks": 25680,
          "time": 79.45552500000001,
          "velocity": 0.9291338582677166
        },
        {
          "duration": 0.07425749999998743,
          "durationTicks": 24,
          "midi": 83,
          "name": "B5",
          "ticks": 25704,
          "time": 79.52978250000001,
          "velocity": 0.9291338582677166
        },
        {
          "duration": 0.14851500000000328,
          "durationTicks": 48,
          "midi": 85,
          "name": "C#6",
          "ticks": 25728,
          "time": 79.60404,
          "velocity": 0.9291338582677166
        },
        {
          "duration": 0.14851500000000328,
          "durationTicks": 48,
          "midi": 85,
          "name": "C#6",
          "ticks": 25824,
          "time": 79.90107,
          "velocity": 0.9291338582677166
        },
        {
          "duration": 0.07425750000000164,
          "durationTicks": 24,
          "midi": 57,
          "name": "A3",
          "ticks": 25848,
          "time": 79.9753275,
          "velocity": 0.8110236220472441
        },
        {
          "duration": 0.14851500000000328,
          "durationTicks": 48,
          "midi": 87,
          "name": "D#6",
          "ticks": 25872,
          "time": 80.04958500000001,
          "velocity": 0.9291338582677166
        },
        {
          "duration": 0.07425750000000164,
          "durationTicks": 24,
          "midi": 57,
          "name": "A3",
          "ticks": 25896,
          "time": 80.12384250000001,
          "velocity": 0.8110236220472441
        },
        {
          "duration": 0.14851499999998907,
          "durationTicks": 48,
          "midi": 88,
          "name": "E6",
          "ticks": 25920,
          "time": 80.19810000000001,
          "velocity": 0.9291338582677166
        },
        {
          "duration": 0.07425750000000164,
          "durationTicks": 24,
          "midi": 60,
          "name": "C4",
          "ticks": 25968,
          "time": 80.346615,
          "velocity": 0.8110236220472441
        },
        {
          "duration": 0.14851500000000328,
          "durationTicks": 48,
          "midi": 87,
          "name": "D#6",
          "ticks": 25992,
          "time": 80.4208725,
          "velocity": 0.9291338582677166
        },
        {
          "duration": 0.07425750000000164,
          "durationTicks": 24,
          "midi": 60,
          "name": "C4",
          "ticks": 26040,
          "time": 80.5693875,
          "velocity": 0.8110236220472441
        },
        {
          "duration": 0.14851500000000328,
          "durationTicks": 48,
          "midi": 83,
          "name": "B5",
          "ticks": 26064,
          "time": 80.643645,
          "velocity": 0.9291338582677166
        },
        {
          "duration": 0.14851499999998907,
          "durationTicks": 48,
          "midi": 90,
          "name": "F#6",
          "ticks": 26112,
          "time": 80.79216000000001,
          "velocity": 0.9291338582677166
        },
        {
          "duration": 0.07425750000000164,
          "durationTicks": 24,
          "midi": 61,
          "name": "C#4",
          "ticks": 26160,
          "time": 80.940675,
          "velocity": 0.8110236220472441
        },
        {
          "duration": 0.14851500000000328,
          "durationTicks": 48,
          "midi": 88,
          "name": "E6",
          "ticks": 26184,
          "time": 81.0149325,
          "velocity": 0.9291338582677166
        },
        {
          "duration": 0.07425750000000164,
          "durationTicks": 24,
          "midi": 61,
          "name": "C#4",
          "ticks": 26232,
          "time": 81.1634475,
          "velocity": 0.8110236220472441
        },
        {
          "duration": 0.14851500000000328,
          "durationTicks": 48,
          "midi": 87,
          "name": "D#6",
          "ticks": 26256,
          "time": 81.237705,
          "velocity": 0.9291338582677166
        },
        {
          "duration": 0.14851499999998907,
          "durationTicks": 48,
          "midi": 85,
          "name": "C#6",
          "ticks": 26304,
          "time": 81.38622000000001,
          "velocity": 0.9291338582677166
        },
        {
          "duration": 0.07425750000000164,
          "durationTicks": 24,
          "midi": 61,
          "name": "C#4",
          "ticks": 26352,
          "time": 81.534735,
          "velocity": 0.8110236220472441
        },
        {
          "duration": 0.14851500000000328,
          "durationTicks": 48,
          "midi": 83,
          "name": "B5",
          "ticks": 26376,
          "time": 81.6089925,
          "velocity": 0.9291338582677166
        },
        {
          "duration": 0.07425750000000164,
          "durationTicks": 24,
          "midi": 61,
          "name": "C#4",
          "ticks": 26424,
          "time": 81.7575075,
          "velocity": 0.8110236220472441
        },
        {
          "duration": 0.07425750000000164,
          "durationTicks": 24,
          "midi": 80,
          "name": "G#5",
          "ticks": 26448,
          "time": 81.831765,
          "velocity": 0.9291338582677166
        },
        {
          "duration": 0.07425750000000164,
          "durationTicks": 24,
          "midi": 83,
          "name": "B5",
          "ticks": 26472,
          "time": 81.9060225,
          "velocity": 0.9291338582677166
        },
        {
          "duration": 0.14851500000000328,
          "durationTicks": 48,
          "midi": 85,
          "name": "C#6",
          "ticks": 26496,
          "time": 81.98028000000001,
          "velocity": 0.9291338582677166
        },
        {
          "duration": 0.14851500000000328,
          "durationTicks": 48,
          "midi": 85,
          "name": "C#6",
          "ticks": 26592,
          "time": 82.27731,
          "velocity": 0.9291338582677166
        },
        {
          "duration": 0.07425750000000164,
          "durationTicks": 24,
          "midi": 57,
          "name": "A3",
          "ticks": 26616,
          "time": 82.3515675,
          "velocity": 0.8110236220472441
        },
        {
          "duration": 0.14851500000000328,
          "durationTicks": 48,
          "midi": 87,
          "name": "D#6",
          "ticks": 26640,
          "time": 82.425825,
          "velocity": 0.9291338582677166
        },
        {
          "duration": 0.07425750000000164,
          "durationTicks": 24,
          "midi": 57,
          "name": "A3",
          "ticks": 26664,
          "time": 82.5000825,
          "velocity": 0.8110236220472441
        },
        {
          "duration": 0.14851500000000328,
          "durationTicks": 48,
          "midi": 88,
          "name": "E6",
          "ticks": 26688,
          "time": 82.57434,
          "velocity": 0.9291338582677166
        },
        {
          "duration": 0.07425750000000164,
          "durationTicks": 24,
          "midi": 60,
          "name": "C4",
          "ticks": 26736,
          "time": 82.72285500000001,
          "velocity": 0.8110236220472441
        },
        {
          "duration": 0.14851499999998907,
          "durationTicks": 48,
          "midi": 87,
          "name": "D#6",
          "ticks": 26760,
          "time": 82.79711250000001,
          "velocity": 0.9291338582677166
        },
        {
          "duration": 0.07425750000000164,
          "durationTicks": 24,
          "midi": 60,
          "name": "C4",
          "ticks": 26808,
          "time": 82.9456275,
          "velocity": 0.8110236220472441
        },
        {
          "duration": 0.14851500000000328,
          "durationTicks": 48,
          "midi": 83,
          "name": "B5",
          "ticks": 26832,
          "time": 83.019885,
          "velocity": 0.9291338582677166
        },
        {
          "duration": 0.14851500000000328,
          "durationTicks": 48,
          "midi": 78,
          "name": "F#5",
          "ticks": 26880,
          "time": 83.1684,
          "velocity": 0.9291338582677166
        },
        {
          "duration": 0.07425750000000164,
          "durationTicks": 24,
          "midi": 61,
          "name": "C#4",
          "ticks": 26928,
          "time": 83.31691500000001,
          "velocity": 0.8110236220472441
        },
        {
          "duration": 0.14851499999998907,
          "durationTicks": 48,
          "midi": 76,
          "name": "E5",
          "ticks": 26952,
          "time": 83.39117250000001,
          "velocity": 0.9291338582677166
        },
        {
          "duration": 0.07425750000000164,
          "durationTicks": 24,
          "midi": 61,
          "name": "C#4",
          "ticks": 27000,
          "time": 83.5396875,
          "velocity": 0.8110236220472441
        },
        {
          "duration": 0.14851500000000328,
          "durationTicks": 48,
          "midi": 78,
          "name": "F#5",
          "ticks": 27024,
          "time": 83.613945,
          "velocity": 0.9291338582677166
        },
        {
          "duration": 0.14851500000000328,
          "durationTicks": 48,
          "midi": 90,
          "name": "F#6",
          "ticks": 27072,
          "time": 83.76246,
          "velocity": 0.9291338582677166
        },
        {
          "duration": 0.07425750000000164,
          "durationTicks": 24,
          "midi": 58,
          "name": "A#3",
          "ticks": 27120,
          "time": 83.91097500000001,
          "velocity": 0.8110236220472441
        },
        {
          "duration": 0.14851499999998907,
          "durationTicks": 48,
          "midi": 88,
          "name": "E6",
          "ticks": 27144,
          "time": 83.98523250000001,
          "velocity": 0.9291338582677166
        },
        {
          "duration": 0.07425750000000164,
          "durationTicks": 24,
          "midi": 58,
          "name": "A#3",
          "ticks": 27192,
          "time": 84.1337475,
          "velocity": 0.8110236220472441
        },
        {
          "duration": 0.14851500000000328,
          "durationTicks": 48,
          "midi": 87,
          "name": "D#6",
          "ticks": 27216,
          "time": 84.208005,
          "velocity": 0.9291338582677166
        },
        {
          "duration": 0.14851500000000328,
          "durationTicks": 48,
          "midi": 85,
          "name": "C#6",
          "ticks": 27264,
          "time": 84.35652,
          "velocity": 0.9291338582677166
        },
        {
          "duration": 0.14851500000000328,
          "durationTicks": 48,
          "midi": 80,
          "name": "G#5",
          "ticks": 27336,
          "time": 84.57929250000001,
          "velocity": 0.9291338582677166
        },
        {
          "duration": 0.07425749999998743,
          "durationTicks": 24,
          "midi": 57,
          "name": "A3",
          "ticks": 27384,
          "time": 84.72780750000001,
          "velocity": 0.8110236220472441
        },
        {
          "duration": 0.14851500000000328,
          "durationTicks": 48,
          "midi": 83,
          "name": "B5",
          "ticks": 27408,
          "time": 84.802065,
          "velocity": 0.9291338582677166
        },
        {
          "duration": 0.07425750000000164,
          "durationTicks": 24,
          "midi": 57,
          "name": "A3",
          "ticks": 27432,
          "time": 84.8763225,
          "velocity": 0.8110236220472441
        },
        {
          "duration": 0.14851500000000328,
          "durationTicks": 48,
          "midi": 85,
          "name": "C#6",
          "ticks": 27456,
          "time": 84.95058,
          "velocity": 0.9291338582677166
        },
        {
          "duration": 0.07425750000000164,
          "durationTicks": 24,
          "midi": 60,
          "name": "C4",
          "ticks": 27504,
          "time": 85.099095,
          "velocity": 0.8110236220472441
        },
        {
          "duration": 0.14851500000000328,
          "durationTicks": 48,
          "midi": 87,
          "name": "D#6",
          "ticks": 27528,
          "time": 85.17335250000001,
          "velocity": 0.9291338582677166
        },
        {
          "duration": 0.07425749999998743,
          "durationTicks": 24,
          "midi": 60,
          "name": "C4",
          "ticks": 27576,
          "time": 85.32186750000001,
          "velocity": 0.8110236220472441
        },
        {
          "duration": 0.14851500000000328,
          "durationTicks": 48,
          "midi": 83,
          "name": "B5",
          "ticks": 27600,
          "time": 85.396125,
          "velocity": 0.9291338582677166
        },
        {
          "duration": 0.14851500000000328,
          "durationTicks": 48,
          "midi": 85,
          "name": "C#6",
          "ticks": 27648,
          "time": 85.54464,
          "velocity": 0.9291338582677166
        },
        {
          "duration": 0.14851500000000328,
          "durationTicks": 48,
          "midi": 85,
          "name": "C#6",
          "ticks": 27720,
          "time": 85.7674125,
          "velocity": 0.9291338582677166
        },
        {
          "duration": 0.14851499999998907,
          "durationTicks": 48,
          "midi": 83,
          "name": "B5",
          "ticks": 27792,
          "time": 85.99018500000001,
          "velocity": 0.9291338582677166
        },
        {
          "duration": 0.29703000000000657,
          "durationTicks": 96,
          "midi": 85,
          "name": "C#6",
          "ticks": 27840,
          "time": 86.1387,
          "velocity": 0.9291338582677166
        },
        {
          "duration": 0.14851500000000328,
          "durationTicks": 48,
          "midi": 85,
          "name": "C#6",
          "ticks": 28032,
          "time": 86.73276,
          "velocity": 0.9291338582677166
        },
        {
          "duration": 0.14851500000000328,
          "durationTicks": 48,
          "midi": 85,
          "name": "C#6",
          "ticks": 28128,
          "time": 87.02979,
          "velocity": 0.9291338582677166
        },
        {
          "duration": 0.07425750000000164,
          "durationTicks": 24,
          "midi": 57,
          "name": "A3",
          "ticks": 28152,
          "time": 87.10404750000001,
          "velocity": 0.8110236220472441
        },
        {
          "duration": 0.14851499999998907,
          "durationTicks": 48,
          "midi": 87,
          "name": "D#6",
          "ticks": 28176,
          "time": 87.17830500000001,
          "velocity": 0.9291338582677166
        },
        {
          "duration": 0.07425749999998743,
          "durationTicks": 24,
          "midi": 57,
          "name": "A3",
          "ticks": 28200,
          "time": 87.25256250000001,
          "velocity": 0.8110236220472441
        },
        {
          "duration": 0.14851500000000328,
          "durationTicks": 48,
          "midi": 88,
          "name": "E6",
          "ticks": 28224,
          "time": 87.32682,
          "velocity": 0.9291338582677166
        },
        {
          "duration": 0.07425750000000164,
          "durationTicks": 24,
          "midi": 60,
          "name": "C4",
          "ticks": 28272,
          "time": 87.475335,
          "velocity": 0.8110236220472441
        },
        {
          "duration": 0.14851500000000328,
          "durationTicks": 48,
          "midi": 87,
          "name": "D#6",
          "ticks": 28296,
          "time": 87.5495925,
          "velocity": 0.9291338582677166
        },
        {
          "duration": 0.07425750000000164,
          "durationTicks": 24,
          "midi": 60,
          "name": "C4",
          "ticks": 28344,
          "time": 87.6981075,
          "velocity": 0.8110236220472441
        },
        {
          "duration": 0.14851500000000328,
          "durationTicks": 48,
          "midi": 83,
          "name": "B5",
          "ticks": 28368,
          "time": 87.77236500000001,
          "velocity": 0.9291338582677166
        },
        {
          "duration": 0.14851499999998907,
          "durationTicks": 48,
          "midi": 78,
          "name": "F#5",
          "ticks": 28416,
          "time": 87.92088000000001,
          "velocity": 0.9291338582677166
        },
        {
          "duration": 0.07425750000000164,
          "durationTicks": 24,
          "midi": 61,
          "name": "C#4",
          "ticks": 28464,
          "time": 88.069395,
          "velocity": 0.8110236220472441
        },
        {
          "duration": 0.14851500000000328,
          "durationTicks": 48,
          "midi": 76,
          "name": "E5",
          "ticks": 28488,
          "time": 88.1436525,
          "velocity": 0.9291338582677166
        },
        {
          "duration": 0.07425750000000164,
          "durationTicks": 24,
          "midi": 61,
          "name": "C#4",
          "ticks": 28536,
          "time": 88.2921675,
          "velocity": 0.8110236220472441
        },
        {
          "duration": 0.14851500000000328,
          "durationTicks": 48,
          "midi": 78,
          "name": "F#5",
          "ticks": 28560,
          "time": 88.366425,
          "velocity": 0.9291338582677166
        },
        {
          "duration": 0.14851499999998907,
          "durationTicks": 48,
          "midi": 80,
          "name": "G#5",
          "ticks": 28608,
          "time": 88.51494000000001,
          "velocity": 0.9291338582677166
        },
        {
          "duration": 0.07425750000000164,
          "durationTicks": 24,
          "midi": 58,
          "name": "A#3",
          "ticks": 28656,
          "time": 88.663455,
          "velocity": 0.8110236220472441
        },
        {
          "duration": 0.14851500000000328,
          "durationTicks": 48,
          "midi": 78,
          "name": "F#5",
          "ticks": 28680,
          "time": 88.7377125,
          "velocity": 0.9291338582677166
        },
        {
          "duration": 0.07425750000000164,
          "durationTicks": 24,
          "midi": 58,
          "name": "A#3",
          "ticks": 28728,
          "time": 88.8862275,
          "velocity": 0.8110236220472441
        },
        {
          "duration": 0.07425750000000164,
          "durationTicks": 24,
          "midi": 80,
          "name": "G#5",
          "ticks": 28752,
          "time": 88.960485,
          "velocity": 0.9291338582677166
        },
        {
          "duration": 0.07425750000000164,
          "durationTicks": 24,
          "midi": 83,
          "name": "B5",
          "ticks": 28776,
          "time": 89.03474250000001,
          "velocity": 0.9291338582677166
        },
        {
          "duration": 0.14851499999998907,
          "durationTicks": 48,
          "midi": 85,
          "name": "C#6",
          "ticks": 28800,
          "time": 89.10900000000001,
          "velocity": 0.9291338582677166
        },
        {
          "duration": 0.14851500000000328,
          "durationTicks": 48,
          "midi": 85,
          "name": "C#6",
          "ticks": 28896,
          "time": 89.40603,
          "velocity": 0.9291338582677166
        },
        {
          "duration": 0.07425750000000164,
          "durationTicks": 24,
          "midi": 57,
          "name": "A3",
          "ticks": 28920,
          "time": 89.4802875,
          "velocity": 0.8110236220472441
        },
        {
          "duration": 0.14851500000000328,
          "durationTicks": 48,
          "midi": 87,
          "name": "D#6",
          "ticks": 28944,
          "time": 89.554545,
          "velocity": 0.9291338582677166
        },
        {
          "duration": 0.07425750000000164,
          "durationTicks": 24,
          "midi": 57,
          "name": "A3",
          "ticks": 28968,
          "time": 89.6288025,
          "velocity": 0.8110236220472441
        },
        {
          "duration": 0.14851500000000328,
          "durationTicks": 48,
          "midi": 88,
          "name": "E6",
          "ticks": 28992,
          "time": 89.70306000000001,
          "velocity": 0.9291338582677166
        },
        {
          "duration": 0.07425749999998743,
          "durationTicks": 24,
          "midi": 60,
          "name": "C4",
          "ticks": 29040,
          "time": 89.85157500000001,
          "velocity": 0.8110236220472441
        },
        {
          "duration": 0.14851500000000328,
          "durationTicks": 48,
          "midi": 87,
          "name": "D#6",
          "ticks": 29064,
          "time": 89.9258325,
          "velocity": 0.9291338582677166
        },
        {
          "duration": 0.07425750000000164,
          "durationTicks": 24,
          "midi": 60,
          "name": "C4",
          "ticks": 29112,
          "time": 90.0743475,
          "velocity": 0.8110236220472441
        },
        {
          "duration": 0.14851500000000328,
          "durationTicks": 48,
          "midi": 83,
          "name": "B5",
          "ticks": 29136,
          "time": 90.148605,
          "velocity": 0.9291338582677166
        },
        {
          "duration": 0.14851500000000328,
          "durationTicks": 48,
          "midi": 90,
          "name": "F#6",
          "ticks": 29184,
          "time": 90.29712,
          "velocity": 0.9291338582677166
        },
        {
          "duration": 0.07425750000000164,
          "durationTicks": 24,
          "midi": 61,
          "name": "C#4",
          "ticks": 29232,
          "time": 90.44563500000001,
          "velocity": 0.8110236220472441
        },
        {
          "duration": 0.14851499999998907,
          "durationTicks": 48,
          "midi": 88,
          "name": "E6",
          "ticks": 29256,
          "time": 90.51989250000001,
          "velocity": 0.9291338582677166
        },
        {
          "duration": 0.07425750000000164,
          "durationTicks": 24,
          "midi": 61,
          "name": "C#4",
          "ticks": 29304,
          "time": 90.6684075,
          "velocity": 0.8110236220472441
        },
        {
          "duration": 0.14851500000000328,
          "durationTicks": 48,
          "midi": 90,
          "name": "F#6",
          "ticks": 29328,
          "time": 90.742665,
          "velocity": 0.9291338582677166
        },
        {
          "duration": 0.14851500000000328,
          "durationTicks": 48,
          "midi": 95,
          "name": "B6",
          "ticks": 29376,
          "time": 90.89118,
          "velocity": 0.9291338582677166
        },
        {
          "duration": 0.07425750000000164,
          "durationTicks": 24,
          "midi": 61,
          "name": "C#4",
          "ticks": 29424,
          "time": 91.03969500000001,
          "velocity": 0.8110236220472441
        },
        {
          "duration": 0.14851499999998907,
          "durationTicks": 48,
          "midi": 92,
          "name": "G#6",
          "ticks": 29448,
          "time": 91.11395250000001,
          "velocity": 0.9291338582677166
        },
        {
          "duration": 0.07425750000000164,
          "durationTicks": 24,
          "midi": 61,
          "name": "C#4",
          "ticks": 29496,
          "time": 91.2624675,
          "velocity": 0.8110236220472441
        },
        {
          "duration": 0.14851500000000328,
          "durationTicks": 48,
          "midi": 95,
          "name": "B6",
          "ticks": 29520,
          "time": 91.336725,
          "velocity": 0.9291338582677166
        },
        {
          "duration": 0.09900999999999271,
          "durationTicks": 32,
          "midi": 97,
          "name": "C#7",
          "ticks": 29568,
          "time": 91.48524,
          "velocity": 0.9291338582677166
        },
        {
          "duration": 0.09901000000000693,
          "durationTicks": 32,
          "midi": 92,
          "name": "G#6",
          "ticks": 29600,
          "time": 91.58425,
          "velocity": 0.9291338582677166
        },
        {
          "duration": 0.09901000000000693,
          "durationTicks": 32,
          "midi": 88,
          "name": "E6",
          "ticks": 29632,
          "time": 91.68326,
          "velocity": 0.9291338582677166
        },
        {
          "duration": 0.09900999999999271,
          "durationTicks": 32,
          "midi": 85,
          "name": "C#6",
          "ticks": 29664,
          "time": 91.78227000000001,
          "velocity": 0.9291338582677166
        },
        {
          "duration": 0.09901000000000693,
          "durationTicks": 32,
          "midi": 87,
          "name": "D#6",
          "ticks": 29696,
          "time": 91.88128,
          "velocity": 0.9291338582677166
        },
        {
          "duration": 0.09900999999999271,
          "durationTicks": 32,
          "midi": 88,
          "name": "E6",
          "ticks": 29728,
          "time": 91.98029000000001,
          "velocity": 0.9291338582677166
        },
        {
          "duration": 0.09900999999999271,
          "durationTicks": 32,
          "midi": 90,
          "name": "F#6",
          "ticks": 29760,
          "time": 92.0793,
          "velocity": 0.9291338582677166
        },
        {
          "duration": 0.09901000000002114,
          "durationTicks": 32,
          "midi": 92,
          "name": "G#6",
          "ticks": 29792,
          "time": 92.17831,
          "velocity": 0.9291338582677166
        },
        {
          "duration": 0.09900999999999271,
          "durationTicks": 32,
          "midi": 95,
          "name": "B6",
          "ticks": 29824,
          "time": 92.27732000000002,
          "velocity": 0.9291338582677166
        },
        {
          "duration": 0.09900999999999271,
          "durationTicks": 32,
          "midi": 97,
          "name": "C#7",
          "ticks": 29856,
          "time": 92.37633000000001,
          "velocity": 0.9291338582677166
        },
        {
          "duration": 0.09901000000000693,
          "durationTicks": 32,
          "midi": 95,
          "name": "B6",
          "ticks": 29888,
          "time": 92.47534,
          "velocity": 0.9291338582677166
        },
        {
          "duration": 0.09900999999999271,
          "durationTicks": 32,
          "midi": 97,
          "name": "C#7",
          "ticks": 29920,
          "time": 92.57435000000001,
          "velocity": 0.9291338582677166
        },
        {
          "duration": 0.09900999999999271,
          "durationTicks": 32,
          "midi": 99,
          "name": "D#7",
          "ticks": 29952,
          "time": 92.67336,
          "velocity": 0.9291338582677166
        },
        {
          "duration": 0.09901000000002114,
          "durationTicks": 32,
          "midi": 97,
          "name": "C#7",
          "ticks": 29984,
          "time": 92.77237,
          "velocity": 0.9291338582677166
        },
        {
          "duration": 0.09900999999999271,
          "durationTicks": 32,
          "midi": 95,
          "name": "B6",
          "ticks": 30016,
          "time": 92.87138000000002,
          "velocity": 0.9291338582677166
        },
        {
          "duration": 0.09900999999999271,
          "durationTicks": 32,
          "midi": 92,
          "name": "G#6",
          "ticks": 30048,
          "time": 92.97039000000001,
          "velocity": 0.9291338582677166
        },
        {
          "duration": 0.09901000000000693,
          "durationTicks": 32,
          "midi": 90,
          "name": "F#6",
          "ticks": 30080,
          "time": 93.0694,
          "velocity": 0.9291338582677166
        },
        {
          "duration": 0.09900999999999271,
          "durationTicks": 32,
          "midi": 87,
          "name": "D#6",
          "ticks": 30112,
          "time": 93.16841000000001,
          "velocity": 0.9291338582677166
        },
        {
          "duration": 0.07425750000000164,
          "durationTicks": 24,
          "midi": 85,
          "name": "C#6",
          "ticks": 30144,
          "time": 93.26742,
          "velocity": 0.9291338582677166
        },
        {
          "duration": 0.07425750000000164,
          "durationTicks": 24,
          "midi": 87,
          "name": "D#6",
          "ticks": 30168,
          "time": 93.3416775,
          "velocity": 0.9291338582677166
        },
        {
          "duration": 0.07425750000000164,
          "durationTicks": 24,
          "midi": 88,
          "name": "E6",
          "ticks": 30192,
          "time": 93.415935,
          "velocity": 0.9291338582677166
        },
        {
          "duration": 0.07425750000000164,
          "durationTicks": 24,
          "midi": 87,
          "name": "D#6",
          "ticks": 30216,
          "time": 93.4901925,
          "velocity": 0.9291338582677166
        },
        {
          "duration": 0.07425750000000164,
          "durationTicks": 24,
          "midi": 88,
          "name": "E6",
          "ticks": 30240,
          "time": 93.56445000000001,
          "velocity": 0.9291338582677166
        },
        {
          "duration": 0.07425750000000164,
          "durationTicks": 24,
          "midi": 90,
          "name": "F#6",
          "ticks": 30264,
          "time": 93.63870750000001,
          "velocity": 0.9291338582677166
        },
        {
          "duration": 0.07425749999998743,
          "durationTicks": 24,
          "midi": 92,
          "name": "G#6",
          "ticks": 30288,
          "time": 93.71296500000001,
          "velocity": 0.9291338582677166
        },
        {
          "duration": 0.07425750000000164,
          "durationTicks": 24,
          "midi": 95,
          "name": "B6",
          "ticks": 30312,
          "time": 93.7872225,
          "velocity": 0.9291338582677166
        },
        {
          "duration": 0.14851500000000328,
          "durationTicks": 48,
          "midi": 97,
          "name": "C#7",
          "ticks": 30336,
          "time": 93.86148,
          "velocity": 0.9291338582677166
        },
        {
          "duration": 0.07425750000000164,
          "durationTicks": 24,
          "midi": 57,
          "name": "A3",
          "ticks": 30384,
          "time": 94.009995,
          "velocity": 0.8110236220472441
        },
        {
          "duration": 0.14851500000000328,
          "durationTicks": 48,
          "midi": 97,
          "name": "C#7",
          "ticks": 30408,
          "time": 94.0842525,
          "velocity": 0.9291338582677166
        },
        {
          "duration": 0.07425750000000164,
          "durationTicks": 24,
          "midi": 57,
          "name": "A3",
          "ticks": 30456,
          "time": 94.23276750000001,
          "velocity": 0.8110236220472441
        },
        {
          "duration": 0.29702999999999236,
          "durationTicks": 96,
          "midi": 99,
          "name": "D#7",
          "ticks": 30480,
          "time": 94.30702500000001,
          "velocity": 0.9291338582677166
        },
        {
          "duration": 0.14851500000000328,
          "durationTicks": 48,
          "midi": 100,
          "name": "E7",
          "ticks": 30576,
          "time": 94.604055,
          "velocity": 0.9291338582677166
        },
        {
          "duration": 0.14851500000000328,
          "durationTicks": 48,
          "midi": 99,
          "name": "D#7",
          "ticks": 30624,
          "time": 94.75257,
          "velocity": 0.9291338582677166
        },
        {
          "duration": 0.14851499999998907,
          "durationTicks": 48,
          "midi": 95,
          "name": "B6",
          "ticks": 30672,
          "time": 94.90108500000001,
          "velocity": 0.9291338582677166
        },
        {
          "duration": 0.14851500000000328,
          "durationTicks": 48,
          "midi": 97,
          "name": "C#7",
          "ticks": 30720,
          "time": 95.0496,
          "velocity": 0.9291338582677166
        },
        {
          "duration": 0.14851500000000328,
          "durationTicks": 48,
          "midi": 97,
          "name": "C#7",
          "ticks": 30792,
          "time": 95.2723725,
          "velocity": 0.9291338582677166
        },
        {
          "duration": 0.14851500000000328,
          "durationTicks": 48,
          "midi": 95,
          "name": "B6",
          "ticks": 30864,
          "time": 95.49514500000001,
          "velocity": 0.9291338582677166
        },
        {
          "duration": 0.29702999999999236,
          "durationTicks": 96,
          "midi": 97,
          "name": "C#7",
          "ticks": 30912,
          "time": 95.64366000000001,
          "velocity": 0.9291338582677166
        },
        {
          "duration": 0.14851499999998907,
          "durationTicks": 48,
          "midi": 81,
          "name": "A5",
          "ticks": 31104,
          "time": 96.23772000000001,
          "velocity": 0.9133858267716536
        },
        {
          "duration": 0.14851500000000328,
          "durationTicks": 48,
          "midi": 76,
          "name": "E5",
          "ticks": 31152,
          "time": 96.386235,
          "velocity": 0.9133858267716536
        },
        {
          "duration": 0.14851500000000328,
          "durationTicks": 48,
          "midi": 88,
          "name": "E6",
          "ticks": 31200,
          "time": 96.53475,
          "velocity": 0.9133858267716536
        },
        {
          "duration": 0.07425750000000164,
          "durationTicks": 24,
          "midi": 83,
          "name": "B5",
          "ticks": 31248,
          "time": 96.683265,
          "velocity": 0.9133858267716536
        },
        {
          "duration": 0.07425750000000164,
          "durationTicks": 24,
          "midi": 84,
          "name": "C6",
          "ticks": 31272,
          "time": 96.75752250000001,
          "velocity": 0.9133858267716536
        },
        {
          "duration": 0.14851500000000328,
          "durationTicks": 48,
          "midi": 83,
          "name": "B5",
          "ticks": 31296,
          "time": 96.83178000000001,
          "velocity": 0.9133858267716536
        },
        {
          "duration": 0.14851499999998907,
          "durationTicks": 48,
          "midi": 79,
          "name": "G5",
          "ticks": 31344,
          "time": 96.98029500000001,
          "velocity": 0.9133858267716536
        },
        {
          "duration": 0.14851500000000328,
          "durationTicks": 48,
          "midi": 74,
          "name": "D5",
          "ticks": 31440,
          "time": 97.277325,
          "velocity": 0.9133858267716536
        },
        {
          "duration": 0.14851500000000328,
          "durationTicks": 48,
          "midi": 76,
          "name": "E5",
          "ticks": 31488,
          "time": 97.42584000000001,
          "velocity": 0.9133858267716536
        },
        {
          "duration": 0.14851499999998907,
          "durationTicks": 48,
          "midi": 83,
          "name": "B5",
          "ticks": 31536,
          "time": 97.57435500000001,
          "velocity": 0.9133858267716536
        },
        {
          "duration": 0.14851500000000328,
          "durationTicks": 48,
          "midi": 84,
          "name": "C6",
          "ticks": 31584,
          "time": 97.72287,
          "velocity": 0.9133858267716536
        },
        {
          "duration": 0.07425750000000164,
          "durationTicks": 24,
          "midi": 83,
          "name": "B5",
          "ticks": 31632,
          "time": 97.871385,
          "velocity": 0.9133858267716536
        },
        {
          "duration": 0.07425750000000164,
          "durationTicks": 24,
          "midi": 84,
          "name": "C6",
          "ticks": 31656,
          "time": 97.9456425,
          "velocity": 0.9133858267716536
        },
        {
          "duration": 0.14851500000000328,
          "durationTicks": 48,
          "midi": 83,
          "name": "B5",
          "ticks": 31680,
          "time": 98.0199,
          "velocity": 0.9133858267716536
        },
        {
          "duration": 0.14851499999998907,
          "durationTicks": 48,
          "midi": 79,
          "name": "G5",
          "ticks": 31728,
          "time": 98.16841500000001,
          "velocity": 0.9133858267716536
        },
        {
          "duration": 0.14851500000000328,
          "durationTicks": 48,
          "midi": 74,
          "name": "D5",
          "ticks": 31776,
          "time": 98.31693,
          "velocity": 0.9133858267716536
        },
        {
          "duration": 0.14851500000000328,
          "durationTicks": 48,
          "midi": 79,
          "name": "G5",
          "ticks": 31824,
          "time": 98.465445,
          "velocity": 0.8818897637795275
        },
        {
          "duration": 1.1881199999999978,
          "durationTicks": 384,
          "midi": 81,
          "name": "A5",
          "ticks": 31872,
          "time": 98.61396,
          "velocity": 0.8818897637795275
        },
        {
          "duration": 0.14851500000000328,
          "durationTicks": 48,
          "midi": 76,
          "name": "E5",
          "ticks": 32544,
          "time": 100.69317000000001,
          "velocity": 0.9133858267716536
        },
        {
          "duration": 0.14851499999998907,
          "durationTicks": 48,
          "midi": 79,
          "name": "G5",
          "ticks": 32592,
          "time": 100.84168500000001,
          "velocity": 0.9133858267716536
        },
        {
          "duration": 0.14851500000000328,
          "durationTicks": 48,
          "midi": 81,
          "name": "A5",
          "ticks": 32640,
          "time": 100.9902,
          "velocity": 0.9133858267716536
        },
        {
          "duration": 0.14851500000000328,
          "durationTicks": 48,
          "midi": 76,
          "name": "E5",
          "ticks": 32688,
          "time": 101.138715,
          "velocity": 0.9133858267716536
        },
        {
          "duration": 0.14851500000000328,
          "durationTicks": 48,
          "midi": 88,
          "name": "E6",
          "ticks": 32736,
          "time": 101.28723000000001,
          "velocity": 0.9133858267716536
        },
        {
          "duration": 0.07425749999998743,
          "durationTicks": 24,
          "midi": 83,
          "name": "B5",
          "ticks": 32784,
          "time": 101.43574500000001,
          "velocity": 0.9133858267716536
        },
        {
          "duration": 0.07425750000000164,
          "durationTicks": 24,
          "midi": 84,
          "name": "C6",
          "ticks": 32808,
          "time": 101.5100025,
          "velocity": 0.9133858267716536
        },
        {
          "duration": 0.14851500000000328,
          "durationTicks": 48,
          "midi": 83,
          "name": "B5",
          "ticks": 32832,
          "time": 101.58426,
          "velocity": 0.9133858267716536
        },
        {
          "duration": 0.14851500000000328,
          "durationTicks": 48,
          "midi": 79,
          "name": "G5",
          "ticks": 32880,
          "time": 101.732775,
          "velocity": 0.9133858267716536
        },
        {
          "duration": 0.14851499999998907,
          "durationTicks": 48,
          "midi": 74,
          "name": "D5",
          "ticks": 32976,
          "time": 102.02980500000001,
          "velocity": 0.9133858267716536
        },
        {
          "duration": 0.14851500000000328,
          "durationTicks": 48,
          "midi": 76,
          "name": "E5",
          "ticks": 33024,
          "time": 102.17832,
          "velocity": 0.9133858267716536
        },
        {
          "duration": 0.14851500000000328,
          "durationTicks": 48,
          "midi": 83,
          "name": "B5",
          "ticks": 33072,
          "time": 102.326835,
          "velocity": 0.9133858267716536
        },
        {
          "duration": 0.14851500000000328,
          "durationTicks": 48,
          "midi": 84,
          "name": "C6",
          "ticks": 33120,
          "time": 102.47535,
          "velocity": 0.9133858267716536
        },
        {
          "duration": 0.07425750000000164,
          "durationTicks": 24,
          "midi": 83,
          "name": "B5",
          "ticks": 33168,
          "time": 102.62386500000001,
          "velocity": 0.9133858267716536
        },
        {
          "duration": 0.07425750000000164,
          "durationTicks": 24,
          "midi": 84,
          "name": "C6",
          "ticks": 33192,
          "time": 102.69812250000001,
          "velocity": 0.9133858267716536
        },
        {
          "duration": 0.14851499999998907,
          "durationTicks": 48,
          "midi": 83,
          "name": "B5",
          "ticks": 33216,
          "time": 102.77238000000001,
          "velocity": 0.9133858267716536
        },
        {
          "duration": 0.14851500000000328,
          "durationTicks": 48,
          "midi": 79,
          "name": "G5",
          "ticks": 33264,
          "time": 102.920895,
          "velocity": 0.9133858267716536
        },
        {
          "duration": 0.14851500000000328,
          "durationTicks": 48,
          "midi": 74,
          "name": "D5",
          "ticks": 33312,
          "time": 103.06941,
          "velocity": 0.9133858267716536
        },
        {
          "duration": 0.14851500000000328,
          "durationTicks": 48,
          "midi": 79,
          "name": "G5",
          "ticks": 33360,
          "time": 103.21792500000001,
          "velocity": 0.8818897637795275
        },
        {
          "duration": 1.1881199999999978,
          "durationTicks": 384,
          "midi": 81,
          "name": "A5",
          "ticks": 33408,
          "time": 103.36644000000001,
          "velocity": 0.8818897637795275
        },
        {
          "duration": 0.14851500000000328,
          "durationTicks": 48,
          "midi": 86,
          "name": "D6",
          "ticks": 33888,
          "time": 104.85159,
          "velocity": 0.8818897637795275
        },
        {
          "duration": 0.14851500000000328,
          "durationTicks": 48,
          "midi": 84,
          "name": "C6",
          "ticks": 33984,
          "time": 105.14862000000001,
          "velocity": 0.8818897637795275
        },
        {
          "duration": 0.14851500000000328,
          "durationTicks": 48,
          "midi": 83,
          "name": "B5",
          "ticks": 34080,
          "time": 105.44565,
          "velocity": 0.8818897637795275
        }
      ],
      "endOfTrackTicks": 39938
    },
    {
      "channel": 5,
      "controlChanges": {
        "6": [
          {
            "number": 6,
            "ticks": 0,
            "time": 0,
            "value": 0.09448818897637795
          },
          {
            "number": 6,
            "ticks": 0,
            "time": 0,
            "value": 0.09448818897637795
          },
          {
            "number": 6,
            "ticks": 0,
            "time": 0,
            "value": 0.09448818897637795
          },
          {
            "number": 6,
            "ticks": 39936,
            "time": 123.56448,
            "value": 0.09448818897637795
          },
          {
            "number": 6,
            "ticks": 39938,
            "time": 123.570668125,
            "value": 0.09448818897637795
          }
        ],
        "7": [
          {
            "number": 7,
            "ticks": 0,
            "time": 0,
            "value": 0.7874015748031497
          },
          {
            "number": 7,
            "ticks": 0,
            "time": 0,
            "value": 0.7874015748031497
          },
          {
            "number": 7,
            "ticks": 0,
            "time": 0,
            "value": 0.7874015748031497
          },
          {
            "number": 7,
            "ticks": 0,
            "time": 0,
            "value": 0.7874015748031497
          },
          {
            "number": 7,
            "ticks": 39936,
            "time": 123.56448,
            "value": 0.7874015748031497
          },
          {
            "number": 7,
            "ticks": 39938,
            "time": 123.570668125,
            "value": 0.7874015748031497
          }
        ],
        "10": [
          {
            "number": 10,
            "ticks": 0,
            "time": 0,
            "value": 0.5039370078740157
          },
          {
            "number": 10,
            "ticks": 0,
            "time": 0,
            "value": 0.5039370078740157
          },
          {
            "number": 10,
            "ticks": 0,
            "time": 0,
            "value": 0.5039370078740157
          },
          {
            "number": 10,
            "ticks": 0,
            "time": 0,
            "value": 0.5039370078740157
          },
          {
            "number": 10,
            "ticks": 39936,
            "time": 123.56448,
            "value": 0.5039370078740157
          },
          {
            "number": 10,
            "ticks": 39938,
            "time": 123.570668125,
            "value": 0.5039370078740157
          }
        ],
        "100": [
          {
            "number": 100,
            "ticks": 0,
            "time": 0,
            "value": 0
          },
          {
            "number": 100,
            "ticks": 0,
            "time": 0,
            "value": 0
          },
          {
            "number": 100,
            "ticks": 0,
            "time": 0,
            "value": 0
          },
          {
            "number": 100,
            "ticks": 39936,
            "time": 123.56448,
            "value": 0
          },
          {
            "number": 100,
            "ticks": 39938,
            "time": 123.570668125,
            "value": 0
          }
        ],
        "101": [
          {
            "number": 101,
            "ticks": 0,
            "time": 0,
            "value": 0
          },
          {
            "number": 101,
            "ticks": 0,
            "time": 0,
            "value": 0
          },
          {
            "number": 101,
            "ticks": 0,
            "time": 0,
            "value": 0
          },
          {
            "number": 101,
            "ticks": 39936,
            "time": 123.56448,
            "value": 0
          },
          {
            "number": 101,
            "ticks": 39938,
            "time": 123.570668125,
            "value": 0
          }
        ]
      },
      "pitchBends": [
        {
          "ticks": 0,
          "time": 0,
          "value": 0
        },
        {
          "ticks": 0,
          "time": 0,
          "value": 0
        },
        {
          "ticks": 0,
          "time": 0,
          "value": 0
        },
        {
          "ticks": 0,
          "time": 0,
          "value": 0
        },
        {
          "ticks": 39936,
          "time": 123.56448,
          "value": 0
        },
        {
          "ticks": 39938,
          "time": 123.570668125,
          "value": 0
        }
      ],
      "instrument": {
        "family": "piano",
        "number": 0,
        "name": "acoustic grand piano"
      },
      "name": "Lead #2",
      "notes": [
        {
          "duration": 0.14851499999999973,
          "durationTicks": 48,
          "midi": 68,
          "name": "G#4",
          "ticks": 3456,
          "time": 10.69308,
          "velocity": 0.8976377952755905
        },
        {
          "duration": 0.1485150000000015,
          "durationTicks": 48,
          "midi": 63,
          "name": "D#4",
          "ticks": 3504,
          "time": 10.841595,
          "velocity": 0.8976377952755905
        },
        {
          "duration": 0.14851499999999973,
          "durationTicks": 48,
          "midi": 75,
          "name": "D#5",
          "ticks": 3552,
          "time": 10.990110000000001,
          "velocity": 0.8976377952755905
        },
        {
          "duration": 0.07425749999999987,
          "durationTicks": 24,
          "midi": 70,
          "name": "A#4",
          "ticks": 3600,
          "time": 11.138625000000001,
          "velocity": 0.8976377952755905
        },
        {
          "duration": 0.07425749999999987,
          "durationTicks": 24,
          "midi": 71,
          "name": "B4",
          "ticks": 3624,
          "time": 11.212882500000001,
          "velocity": 0.8976377952755905
        },
        {
          "duration": 0.14851499999999973,
          "durationTicks": 48,
          "midi": 70,
          "name": "A#4",
          "ticks": 3648,
          "time": 11.28714,
          "velocity": 0.8976377952755905
        },
        {
          "duration": 0.14851499999999973,
          "durationTicks": 48,
          "midi": 66,
          "name": "F#4",
          "ticks": 3696,
          "time": 11.435655,
          "velocity": 0.8976377952755905
        },
        {
          "duration": 0.14851499999999973,
          "durationTicks": 48,
          "midi": 61,
          "name": "C#4",
          "ticks": 3792,
          "time": 11.732685,
          "velocity": 0.8976377952755905
        },
        {
          "duration": 0.1485150000000015,
          "durationTicks": 48,
          "midi": 63,
          "name": "D#4",
          "ticks": 3840,
          "time": 11.8812,
          "velocity": 0.8976377952755905
        },
        {
          "duration": 0.14851499999999973,
          "durationTicks": 48,
          "midi": 70,
          "name": "A#4",
          "ticks": 3888,
          "time": 12.029715000000001,
          "velocity": 0.8976377952755905
        },
        {
          "duration": 0.14851499999999973,
          "durationTicks": 48,
          "midi": 71,
          "name": "B4",
          "ticks": 3936,
          "time": 12.178230000000001,
          "velocity": 0.8976377952755905
        },
        {
          "duration": 0.07425749999999987,
          "durationTicks": 24,
          "midi": 70,
          "name": "A#4",
          "ticks": 3984,
          "time": 12.326745,
          "velocity": 0.8976377952755905
        },
        {
          "duration": 0.07425749999999987,
          "durationTicks": 24,
          "midi": 71,
          "name": "B4",
          "ticks": 4008,
          "time": 12.4010025,
          "velocity": 0.8976377952755905
        },
        {
          "duration": 0.14851499999999973,
          "durationTicks": 48,
          "midi": 70,
          "name": "A#4",
          "ticks": 4032,
          "time": 12.47526,
          "velocity": 0.8976377952755905
        },
        {
          "duration": 0.14851499999999973,
          "durationTicks": 48,
          "midi": 66,
          "name": "F#4",
          "ticks": 4080,
          "time": 12.623775,
          "velocity": 0.8976377952755905
        },
        {
          "duration": 0.1485150000000015,
          "durationTicks": 48,
          "midi": 61,
          "name": "C#4",
          "ticks": 4128,
          "time": 12.77229,
          "velocity": 0.8976377952755905
        },
        {
          "duration": 0.14851499999999973,
          "durationTicks": 48,
          "midi": 58,
          "name": "A#3",
          "ticks": 4176,
          "time": 12.920805000000001,
          "velocity": 0.8976377952755905
        },
        {
          "duration": 0.14851499999999973,
          "durationTicks": 48,
          "midi": 56,
          "name": "G#3",
          "ticks": 4272,
          "time": 13.217835000000001,
          "velocity": 0.8976377952755905
        },
        {
          "duration": 0.14851499999999973,
          "durationTicks": 48,
          "midi": 61,
          "name": "C#4",
          "ticks": 4320,
          "time": 13.36635,
          "velocity": 0.8976377952755905
        },
        {
          "duration": 0.14851499999999973,
          "durationTicks": 48,
          "midi": 66,
          "name": "F#4",
          "ticks": 4368,
          "time": 13.514865,
          "velocity": 0.8976377952755905
        },
        {
          "duration": 0.07425749999999987,
          "durationTicks": 24,
          "midi": 68,
          "name": "G#4",
          "ticks": 4416,
          "time": 13.66338,
          "velocity": 0.8976377952755905
        },
        {
          "duration": 0.07425750000000164,
          "durationTicks": 24,
          "midi": 73,
          "name": "C#5",
          "ticks": 4440,
          "time": 13.7376375,
          "velocity": 0.8976377952755905
        },
        {
          "duration": 0.14851499999999973,
          "durationTicks": 48,
          "midi": 75,
          "name": "D#5",
          "ticks": 4464,
          "time": 13.811895000000002,
          "velocity": 0.8976377952755905
        },
        {
          "duration": 0.14851499999999973,
          "durationTicks": 48,
          "midi": 80,
          "name": "G#5",
          "ticks": 4512,
          "time": 13.960410000000001,
          "velocity": 0.8976377952755905
        },
        {
          "duration": 0.14851499999999973,
          "durationTicks": 48,
          "midi": 75,
          "name": "D#5",
          "ticks": 4560,
          "time": 14.108925000000001,
          "velocity": 0.8976377952755905
        },
        {
          "duration": 0.14851499999999973,
          "durationTicks": 48,
          "midi": 73,
          "name": "C#5",
          "ticks": 4608,
          "time": 14.25744,
          "velocity": 0.8976377952755905
        },
        {
          "duration": 0.14851499999999973,
          "durationTicks": 48,
          "midi": 73,
          "name": "C#5",
          "ticks": 4656,
          "time": 14.405955,
          "velocity": 0.8976377952755905
        },
        {
          "duration": 0.1485150000000015,
          "durationTicks": 48,
          "midi": 75,
          "name": "D#5",
          "ticks": 4752,
          "time": 14.702985,
          "velocity": 0.8976377952755905
        },
        {
          "duration": 0.14851499999999973,
          "durationTicks": 48,
          "midi": 68,
          "name": "G#4",
          "ticks": 4992,
          "time": 15.44556,
          "velocity": 0.8976377952755905
        },
        {
          "duration": 0.1485150000000015,
          "durationTicks": 48,
          "midi": 63,
          "name": "D#4",
          "ticks": 5040,
          "time": 15.594075,
          "velocity": 0.8976377952755905
        },
        {
          "duration": 0.14851499999999973,
          "durationTicks": 48,
          "midi": 75,
          "name": "D#5",
          "ticks": 5088,
          "time": 15.742590000000002,
          "velocity": 0.8976377952755905
        },
        {
          "duration": 0.07425749999999987,
          "durationTicks": 24,
          "midi": 70,
          "name": "A#4",
          "ticks": 5136,
          "time": 15.891105000000001,
          "velocity": 0.8976377952755905
        },
        {
          "duration": 0.07425749999999809,
          "durationTicks": 24,
          "midi": 71,
          "name": "B4",
          "ticks": 5160,
          "time": 15.965362500000001,
          "velocity": 0.8976377952755905
        },
        {
          "duration": 0.14851500000000328,
          "durationTicks": 48,
          "midi": 70,
          "name": "A#4",
          "ticks": 5184,
          "time": 16.03962,
          "velocity": 0.8976377952755905
        },
        {
          "duration": 0.14851499999999973,
          "durationTicks": 48,
          "midi": 66,
          "name": "F#4",
          "ticks": 5232,
          "time": 16.188135000000003,
          "velocity": 0.8976377952755905
        },
        {
          "duration": 0.14851499999999973,
          "durationTicks": 48,
          "midi": 61,
          "name": "C#4",
          "ticks": 5328,
          "time": 16.485165000000002,
          "velocity": 0.8976377952755905
        },
        {
          "duration": 0.14851499999999973,
          "durationTicks": 48,
          "midi": 63,
          "name": "D#4",
          "ticks": 5376,
          "time": 16.633680000000002,
          "velocity": 0.8976377952755905
        },
        {
          "duration": 0.14851499999999973,
          "durationTicks": 48,
          "midi": 70,
          "name": "A#4",
          "ticks": 5424,
          "time": 16.782195,
          "velocity": 0.8976377952755905
        },
        {
          "duration": 0.14851499999999973,
          "durationTicks": 48,
          "midi": 71,
          "name": "B4",
          "ticks": 5472,
          "time": 16.93071,
          "velocity": 0.8976377952755905
        },
        {
          "duration": 0.07425750000000164,
          "durationTicks": 24,
          "midi": 70,
          "name": "A#4",
          "ticks": 5520,
          "time": 17.079225,
          "velocity": 0.8976377952755905
        },
        {
          "duration": 0.07425749999999809,
          "durationTicks": 24,
          "midi": 71,
          "name": "B4",
          "ticks": 5544,
          "time": 17.153482500000003,
          "velocity": 0.8976377952755905
        },
        {
          "duration": 0.14851499999999973,
          "durationTicks": 48,
          "midi": 70,
          "name": "A#4",
          "ticks": 5568,
          "time": 17.22774,
          "velocity": 0.8976377952755905
        },
        {
          "duration": 0.14851499999999973,
          "durationTicks": 48,
          "midi": 66,
          "name": "F#4",
          "ticks": 5616,
          "time": 17.376255,
          "velocity": 0.8976377952755905
        },
        {
          "duration": 0.14851499999999973,
          "durationTicks": 48,
          "midi": 61,
          "name": "C#4",
          "ticks": 5664,
          "time": 17.52477,
          "velocity": 0.8976377952755905
        },
        {
          "duration": 0.14851499999999973,
          "durationTicks": 48,
          "midi": 58,
          "name": "A#3",
          "ticks": 5712,
          "time": 17.673285,
          "velocity": 0.8976377952755905
        },
        {
          "duration": 0.07425750000000164,
          "durationTicks": 24,
          "midi": 64,
          "name": "E4",
          "ticks": 5760,
          "time": 17.8218,
          "velocity": 0.8976377952755905
        },
        {
          "duration": 0.07425749999999809,
          "durationTicks": 24,
          "midi": 68,
          "name": "G#4",
          "ticks": 5784,
          "time": 17.8960575,
          "velocity": 0.8976377952755905
        },
        {
          "duration": 0.07425750000000164,
          "durationTicks": 24,
          "midi": 71,
          "name": "B4",
          "ticks": 5808,
          "time": 17.970315,
          "velocity": 0.8976377952755905
        },
        {
          "duration": 0.07425750000000164,
          "durationTicks": 24,
          "midi": 68,
          "name": "G#4",
          "ticks": 5832,
          "time": 18.0445725,
          "velocity": 0.8976377952755905
        },
        {
          "duration": 0.07425749999999809,
          "durationTicks": 24,
          "midi": 71,
          "name": "B4",
          "ticks": 5856,
          "time": 18.118830000000003,
          "velocity": 0.8976377952755905
        },
        {
          "duration": 0.07425750000000164,
          "durationTicks": 24,
          "midi": 75,
          "name": "D#5",
          "ticks": 5880,
          "time": 18.1930875,
          "velocity": 0.8976377952755905
        },
        {
          "duration": 0.07425749999999809,
          "durationTicks": 24,
          "midi": 78,
          "name": "F#5",
          "ticks": 5904,
          "time": 18.267345000000002,
          "velocity": 0.8976377952755905
        },
        {
          "duration": 0.07425750000000164,
          "durationTicks": 24,
          "midi": 80,
          "name": "G#5",
          "ticks": 5928,
          "time": 18.3416025,
          "velocity": 0.8976377952755905
        },
        {
          "duration": 0.07425749999999809,
          "durationTicks": 24,
          "midi": 85,
          "name": "C#6",
          "ticks": 5952,
          "time": 18.415860000000002,
          "velocity": 0.8976377952755905
        },
        {
          "duration": 0.07425750000000164,
          "durationTicks": 24,
          "midi": 80,
          "name": "G#5",
          "ticks": 5976,
          "time": 18.4901175,
          "velocity": 0.8976377952755905
        },
        {
          "duration": 0.07425749999999809,
          "durationTicks": 24,
          "midi": 78,
          "name": "F#5",
          "ticks": 6000,
          "time": 18.564375000000002,
          "velocity": 0.8976377952755905
        },
        {
          "duration": 0.07425750000000164,
          "durationTicks": 24,
          "midi": 75,
          "name": "D#5",
          "ticks": 6024,
          "time": 18.6386325,
          "velocity": 0.8976377952755905
        },
        {
          "duration": 0.07425749999999809,
          "durationTicks": 24,
          "midi": 70,
          "name": "A#4",
          "ticks": 6048,
          "time": 18.71289,
          "velocity": 0.8976377952755905
        },
        {
          "duration": 0.7425749999999987,
          "durationTicks": 240,
          "midi": 68,
          "name": "G#4",
          "ticks": 6096,
          "time": 18.861405,
          "velocity": 0.8976377952755905
        },
        {
          "duration": 0.08663375000000428,
          "durationTicks": 28,
          "midi": 68,
          "name": "G#4",
          "ticks": 6336,
          "time": 19.60398,
          "velocity": 0.8976377952755905
        },
        {
          "duration": 0.08663375000000073,
          "durationTicks": 28,
          "midi": 70,
          "name": "A#4",
          "ticks": 6368,
          "time": 19.70299,
          "velocity": 0.8976377952755905
        },
        {
          "duration": 0.08663374999999718,
          "durationTicks": 28,
          "midi": 71,
          "name": "B4",
          "ticks": 6400,
          "time": 19.802000000000003,
          "velocity": 0.8976377952755905
        },
        {
          "duration": 0.08663375000000428,
          "durationTicks": 28,
          "midi": 73,
          "name": "C#5",
          "ticks": 6432,
          "time": 19.90101,
          "velocity": 0.8976377952755905
        },
        {
          "duration": 0.08663375000000073,
          "durationTicks": 28,
          "midi": 71,
          "name": "B4",
          "ticks": 6464,
          "time": 20.00002,
          "velocity": 0.8976377952755905
        },
        {
          "duration": 0.08663374999999718,
          "durationTicks": 28,
          "midi": 70,
          "name": "A#4",
          "ticks": 6496,
          "time": 20.099030000000003,
          "velocity": 0.8976377952755905
        },
        {
          "duration": 0.07425750000000164,
          "durationTicks": 24,
          "midi": 68,
          "name": "G#4",
          "ticks": 21840,
          "time": 67.574325,
          "velocity": 0.905511811023622
        },
        {
          "duration": 0.07425750000000164,
          "durationTicks": 24,
          "midi": 71,
          "name": "B4",
          "ticks": 21864,
          "time": 67.6485825,
          "velocity": 0.905511811023622
        },
        {
          "duration": 0.14851500000000328,
          "durationTicks": 48,
          "midi": 73,
          "name": "C#5",
          "ticks": 21888,
          "time": 67.72284,
          "velocity": 0.905511811023622
        },
        {
          "duration": 0.14851500000000328,
          "durationTicks": 48,
          "midi": 73,
          "name": "C#5",
          "ticks": 21984,
          "time": 68.01987,
          "velocity": 0.905511811023622
        },
        {
          "duration": 0.14851500000000328,
          "durationTicks": 48,
          "midi": 75,
          "name": "D#5",
          "ticks": 22032,
          "time": 68.168385,
          "velocity": 0.905511811023622
        },
        {
          "duration": 0.14851500000000328,
          "durationTicks": 48,
          "midi": 76,
          "name": "E5",
          "ticks": 22080,
          "time": 68.3169,
          "velocity": 0.905511811023622
        },
        {
          "duration": 0.14851499999998907,
          "durationTicks": 48,
          "midi": 75,
          "name": "D#5",
          "ticks": 22152,
          "time": 68.53967250000001,
          "velocity": 0.905511811023622
        },
        {
          "duration": 0.14851500000000328,
          "durationTicks": 48,
          "midi": 71,
          "name": "B4",
          "ticks": 22224,
          "time": 68.762445,
          "velocity": 0.905511811023622
        },
        {
          "duration": 0.14851500000000328,
          "durationTicks": 48,
          "midi": 66,
          "name": "F#4",
          "ticks": 22272,
          "time": 68.91096,
          "velocity": 0.905511811023622
        },
        {
          "duration": 0.14851499999998907,
          "durationTicks": 48,
          "midi": 64,
          "name": "E4",
          "ticks": 22344,
          "time": 69.13373250000001,
          "velocity": 0.905511811023622
        },
        {
          "duration": 0.14851500000000328,
          "durationTicks": 48,
          "midi": 66,
          "name": "F#4",
          "ticks": 22416,
          "time": 69.356505,
          "velocity": 0.905511811023622
        },
        {
          "duration": 0.29703000000000657,
          "durationTicks": 96,
          "midi": 68,
          "name": "G#4",
          "ticks": 22464,
          "time": 69.50502,
          "velocity": 0.905511811023622
        },
        {
          "duration": 0.07425750000000164,
          "durationTicks": 24,
          "midi": 68,
          "name": "G#4",
          "ticks": 22608,
          "time": 69.950565,
          "velocity": 0.905511811023622
        },
        {
          "duration": 0.07425750000000164,
          "durationTicks": 24,
          "midi": 71,
          "name": "B4",
          "ticks": 22632,
          "time": 70.0248225,
          "velocity": 0.905511811023622
        },
        {
          "duration": 0.14851500000000328,
          "durationTicks": 48,
          "midi": 73,
          "name": "C#5",
          "ticks": 22656,
          "time": 70.09908,
          "velocity": 0.905511811023622
        },
        {
          "duration": 0.14851500000000328,
          "durationTicks": 48,
          "midi": 73,
          "name": "C#5",
          "ticks": 22752,
          "time": 70.39611000000001,
          "velocity": 0.905511811023622
        },
        {
          "duration": 0.14851499999998907,
          "durationTicks": 48,
          "midi": 75,
          "name": "D#5",
          "ticks": 22800,
          "time": 70.54462500000001,
          "velocity": 0.905511811023622
        },
        {
          "duration": 0.14851500000000328,
          "durationTicks": 48,
          "midi": 76,
          "name": "E5",
          "ticks": 22848,
          "time": 70.69314,
          "velocity": 0.905511811023622
        },
        {
          "duration": 0.14851500000000328,
          "durationTicks": 48,
          "midi": 75,
          "name": "D#5",
          "ticks": 22920,
          "time": 70.9159125,
          "velocity": 0.905511811023622
        },
        {
          "duration": 0.14851499999998907,
          "durationTicks": 48,
          "midi": 71,
          "name": "B4",
          "ticks": 22992,
          "time": 71.13868500000001,
          "velocity": 0.905511811023622
        },
        {
          "duration": 0.14851500000000328,
          "durationTicks": 48,
          "midi": 78,
          "name": "F#5",
          "ticks": 23040,
          "time": 71.2872,
          "velocity": 0.905511811023622
        },
        {
          "duration": 0.14851500000000328,
          "durationTicks": 48,
          "midi": 76,
          "name": "E5",
          "ticks": 23112,
          "time": 71.5099725,
          "velocity": 0.905511811023622
        },
        {
          "duration": 0.14851499999998907,
          "durationTicks": 48,
          "midi": 75,
          "name": "D#5",
          "ticks": 23184,
          "time": 71.73274500000001,
          "velocity": 0.905511811023622
        },
        {
          "duration": 0.29703000000000657,
          "durationTicks": 96,
          "midi": 73,
          "name": "C#5",
          "ticks": 23232,
          "time": 71.88126,
          "velocity": 0.905511811023622
        },
        {
          "duration": 0.07425750000000164,
          "durationTicks": 24,
          "midi": 68,
          "name": "G#4",
          "ticks": 23376,
          "time": 72.32680500000001,
          "velocity": 0.905511811023622
        },
        {
          "duration": 0.07425750000000164,
          "durationTicks": 24,
          "midi": 71,
          "name": "B4",
          "ticks": 23400,
          "time": 72.40106250000001,
          "velocity": 0.905511811023622
        },
        {
          "duration": 0.14851499999998907,
          "durationTicks": 48,
          "midi": 73,
          "name": "C#5",
          "ticks": 23424,
          "time": 72.47532000000001,
          "velocity": 0.905511811023622
        },
        {
          "duration": 0.14851500000000328,
          "durationTicks": 48,
          "midi": 73,
          "name": "C#5",
          "ticks": 23520,
          "time": 72.77235,
          "velocity": 0.905511811023622
        },
        {
          "duration": 0.14851500000000328,
          "durationTicks": 48,
          "midi": 75,
          "name": "D#5",
          "ticks": 23568,
          "time": 72.920865,
          "velocity": 0.905511811023622
        },
        {
          "duration": 0.14851499999998907,
          "durationTicks": 48,
          "midi": 76,
          "name": "E5",
          "ticks": 23616,
          "time": 73.06938000000001,
          "velocity": 0.905511811023622
        },
        {
          "duration": 0.14851500000000328,
          "durationTicks": 48,
          "midi": 75,
          "name": "D#5",
          "ticks": 23688,
          "time": 73.2921525,
          "velocity": 0.905511811023622
        },
        {
          "duration": 0.14851500000000328,
          "durationTicks": 48,
          "midi": 71,
          "name": "B4",
          "ticks": 23760,
          "time": 73.514925,
          "velocity": 0.905511811023622
        },
        {
          "duration": 0.14851499999998907,
          "durationTicks": 48,
          "midi": 66,
          "name": "F#4",
          "ticks": 23808,
          "time": 73.66344000000001,
          "velocity": 0.905511811023622
        },
        {
          "duration": 0.14851500000000328,
          "durationTicks": 48,
          "midi": 64,
          "name": "E4",
          "ticks": 23880,
          "time": 73.8862125,
          "velocity": 0.905511811023622
        },
        {
          "duration": 0.14851500000000328,
          "durationTicks": 48,
          "midi": 66,
          "name": "F#4",
          "ticks": 23952,
          "time": 74.108985,
          "velocity": 0.905511811023622
        },
        {
          "duration": 0.29702999999999236,
          "durationTicks": 96,
          "midi": 68,
          "name": "G#4",
          "ticks": 24000,
          "time": 74.25750000000001,
          "velocity": 0.905511811023622
        },
        {
          "duration": 0.07425750000000164,
          "durationTicks": 24,
          "midi": 68,
          "name": "G#4",
          "ticks": 24144,
          "time": 74.703045,
          "velocity": 0.905511811023622
        },
        {
          "duration": 0.07425750000000164,
          "durationTicks": 24,
          "midi": 71,
          "name": "B4",
          "ticks": 24168,
          "time": 74.7773025,
          "velocity": 0.905511811023622
        },
        {
          "duration": 0.14851500000000328,
          "durationTicks": 48,
          "midi": 73,
          "name": "C#5",
          "ticks": 24192,
          "time": 74.85156,
          "velocity": 0.905511811023622
        },
        {
          "duration": 0.14851500000000328,
          "durationTicks": 48,
          "midi": 73,
          "name": "C#5",
          "ticks": 24288,
          "time": 75.14859,
          "velocity": 0.905511811023622
        },
        {
          "duration": 0.14851500000000328,
          "durationTicks": 48,
          "midi": 75,
          "name": "D#5",
          "ticks": 24336,
          "time": 75.297105,
          "velocity": 0.905511811023622
        },
        {
          "duration": 0.14851500000000328,
          "durationTicks": 48,
          "midi": 76,
          "name": "E5",
          "ticks": 24384,
          "time": 75.44562,
          "velocity": 0.905511811023622
        },
        {
          "duration": 0.14851499999998907,
          "durationTicks": 48,
          "midi": 75,
          "name": "D#5",
          "ticks": 24456,
          "time": 75.66839250000001,
          "velocity": 0.905511811023622
        },
        {
          "duration": 0.14851500000000328,
          "durationTicks": 48,
          "midi": 71,
          "name": "B4",
          "ticks": 24528,
          "time": 75.891165,
          "velocity": 0.905511811023622
        },
        {
          "duration": 0.14851499999998907,
          "durationTicks": 48,
          "midi": 78,
          "name": "F#5",
          "ticks": 24672,
          "time": 76.33671000000001,
          "velocity": 0.905511811023622
        },
        {
          "duration": 0.14851500000000328,
          "durationTicks": 48,
          "midi": 76,
          "name": "E5",
          "ticks": 24768,
          "time": 76.63374,
          "velocity": 0.905511811023622
        },
        {
          "duration": 0.14851499999998907,
          "durationTicks": 48,
          "midi": 75,
          "name": "D#5",
          "ticks": 24864,
          "time": 76.93077000000001,
          "velocity": 0.905511811023622
        },
        {
          "duration": 0.14851500000000328,
          "durationTicks": 48,
          "midi": 73,
          "name": "C#5",
          "ticks": 24960,
          "time": 77.2278,
          "velocity": 0.905511811023622
        },
        {
          "duration": 0.14851499999998907,
          "durationTicks": 48,
          "midi": 73,
          "name": "C#5",
          "ticks": 25056,
          "time": 77.52483000000001,
          "velocity": 0.905511811023622
        },
        {
          "duration": 0.14851500000000328,
          "durationTicks": 48,
          "midi": 75,
          "name": "D#5",
          "ticks": 25104,
          "time": 77.673345,
          "velocity": 0.905511811023622
        },
        {
          "duration": 0.14851500000000328,
          "durationTicks": 48,
          "midi": 76,
          "name": "E5",
          "ticks": 25152,
          "time": 77.82186,
          "velocity": 0.905511811023622
        },
        {
          "duration": 0.14851500000000328,
          "durationTicks": 48,
          "midi": 75,
          "name": "D#5",
          "ticks": 25224,
          "time": 78.0446325,
          "velocity": 0.905511811023622
        },
        {
          "duration": 0.14851499999998907,
          "durationTicks": 48,
          "midi": 71,
          "name": "B4",
          "ticks": 25296,
          "time": 78.26740500000001,
          "velocity": 0.905511811023622
        },
        {
          "duration": 0.14851500000000328,
          "durationTicks": 48,
          "midi": 66,
          "name": "F#4",
          "ticks": 25344,
          "time": 78.41592,
          "velocity": 0.905511811023622
        },
        {
          "duration": 0.14851500000000328,
          "durationTicks": 48,
          "midi": 64,
          "name": "E4",
          "ticks": 25416,
          "time": 78.6386925,
          "velocity": 0.905511811023622
        },
        {
          "duration": 0.14851499999998907,
          "durationTicks": 48,
          "midi": 66,
          "name": "F#4",
          "ticks": 25488,
          "time": 78.86146500000001,
          "velocity": 0.905511811023622
        },
        {
          "duration": 0.14851500000000328,
          "durationTicks": 48,
          "midi": 68,
          "name": "G#4",
          "ticks": 25536,
          "time": 79.00998,
          "velocity": 0.905511811023622
        },
        {
          "duration": 0.14851500000000328,
          "durationTicks": 48,
          "midi": 66,
          "name": "F#4",
          "ticks": 25608,
          "time": 79.2327525,
          "velocity": 0.905511811023622
        },
        {
          "duration": 0.07425750000000164,
          "durationTicks": 24,
          "midi": 68,
          "name": "G#4",
          "ticks": 25680,
          "time": 79.45552500000001,
          "velocity": 0.905511811023622
        },
        {
          "duration": 0.07425749999998743,
          "durationTicks": 24,
          "midi": 71,
          "name": "B4",
          "ticks": 25704,
          "time": 79.52978250000001,
          "velocity": 0.905511811023622
        },
        {
          "duration": 0.14851500000000328,
          "durationTicks": 48,
          "midi": 73,
          "name": "C#5",
          "ticks": 25728,
          "time": 79.60404,
          "velocity": 0.905511811023622
        },
        {
          "duration": 0.14851500000000328,
          "durationTicks": 48,
          "midi": 73,
          "name": "C#5",
          "ticks": 25824,
          "time": 79.90107,
          "velocity": 0.905511811023622
        },
        {
          "duration": 0.14851500000000328,
          "durationTicks": 48,
          "midi": 75,
          "name": "D#5",
          "ticks": 25872,
          "time": 80.04958500000001,
          "velocity": 0.905511811023622
        },
        {
          "duration": 0.14851499999998907,
          "durationTicks": 48,
          "midi": 76,
          "name": "E5",
          "ticks": 25920,
          "time": 80.19810000000001,
          "velocity": 0.905511811023622
        },
        {
          "duration": 0.14851500000000328,
          "durationTicks": 48,
          "midi": 75,
          "name": "D#5",
          "ticks": 25992,
          "time": 80.4208725,
          "velocity": 0.905511811023622
        },
        {
          "duration": 0.14851500000000328,
          "durationTicks": 48,
          "midi": 71,
          "name": "B4",
          "ticks": 26064,
          "time": 80.643645,
          "velocity": 0.905511811023622
        },
        {
          "duration": 0.14851499999998907,
          "durationTicks": 48,
          "midi": 78,
          "name": "F#5",
          "ticks": 26112,
          "time": 80.79216000000001,
          "velocity": 0.905511811023622
        },
        {
          "duration": 0.14851500000000328,
          "durationTicks": 48,
          "midi": 76,
          "name": "E5",
          "ticks": 26184,
          "time": 81.0149325,
          "velocity": 0.905511811023622
        },
        {
          "duration": 0.14851500000000328,
          "durationTicks": 48,
          "midi": 75,
          "name": "D#5",
          "ticks": 26256,
          "time": 81.237705,
          "velocity": 0.905511811023622
        },
        {
          "duration": 0.14851499999998907,
          "durationTicks": 48,
          "midi": 73,
          "name": "C#5",
          "ticks": 26304,
          "time": 81.38622000000001,
          "velocity": 0.905511811023622
        },
        {
          "duration": 0.14851500000000328,
          "durationTicks": 48,
          "midi": 71,
          "name": "B4",
          "ticks": 26376,
          "time": 81.6089925,
          "velocity": 0.905511811023622
        },
        {
          "duration": 0.07425750000000164,
          "durationTicks": 24,
          "midi": 68,
          "name": "G#4",
          "ticks": 26448,
          "time": 81.831765,
          "velocity": 0.905511811023622
        },
        {
          "duration": 0.07425750000000164,
          "durationTicks": 24,
          "midi": 71,
          "name": "B4",
          "ticks": 26472,
          "time": 81.9060225,
          "velocity": 0.905511811023622
        },
        {
          "duration": 0.14851500000000328,
          "durationTicks": 48,
          "midi": 73,
          "name": "C#5",
          "ticks": 26496,
          "time": 81.98028000000001,
          "velocity": 0.905511811023622
        },
        {
          "duration": 0.14851500000000328,
          "durationTicks": 48,
          "midi": 73,
          "name": "C#5",
          "ticks": 26592,
          "time": 82.27731,
          "velocity": 0.905511811023622
        },
        {
          "duration": 0.14851500000000328,
          "durationTicks": 48,
          "midi": 75,
          "name": "D#5",
          "ticks": 26640,
          "time": 82.425825,
          "velocity": 0.905511811023622
        },
        {
          "duration": 0.14851500000000328,
          "durationTicks": 48,
          "midi": 76,
          "name": "E5",
          "ticks": 26688,
          "time": 82.57434,
          "velocity": 0.905511811023622
        },
        {
          "duration": 0.14851499999998907,
          "durationTicks": 48,
          "midi": 75,
          "name": "D#5",
          "ticks": 26760,
          "time": 82.79711250000001,
          "velocity": 0.905511811023622
        },
        {
          "duration": 0.14851500000000328,
          "durationTicks": 48,
          "midi": 71,
          "name": "B4",
          "ticks": 26832,
          "time": 83.019885,
          "velocity": 0.905511811023622
        },
        {
          "duration": 0.14851500000000328,
          "durationTicks": 48,
          "midi": 66,
          "name": "F#4",
          "ticks": 26880,
          "time": 83.1684,
          "velocity": 0.905511811023622
        },
        {
          "duration": 0.14851499999998907,
          "durationTicks": 48,
          "midi": 64,
          "name": "E4",
          "ticks": 26952,
          "time": 83.39117250000001,
          "velocity": 0.905511811023622
        },
        {
          "duration": 0.14851500000000328,
          "durationTicks": 48,
          "midi": 66,
          "name": "F#4",
          "ticks": 27024,
          "time": 83.613945,
          "velocity": 0.905511811023622
        },
        {
          "duration": 0.14851500000000328,
          "durationTicks": 48,
          "midi": 78,
          "name": "F#5",
          "ticks": 27072,
          "time": 83.76246,
          "velocity": 0.905511811023622
        },
        {
          "duration": 0.14851499999998907,
          "durationTicks": 48,
          "midi": 76,
          "name": "E5",
          "ticks": 27144,
          "time": 83.98523250000001,
          "velocity": 0.905511811023622
        },
        {
          "duration": 0.14851500000000328,
          "durationTicks": 48,
          "midi": 75,
          "name": "D#5",
          "ticks": 27216,
          "time": 84.208005,
          "velocity": 0.905511811023622
        },
        {
          "duration": 0.14851500000000328,
          "durationTicks": 48,
          "midi": 73,
          "name": "C#5",
          "ticks": 27264,
          "time": 84.35652,
          "velocity": 0.905511811023622
        },
        {
          "duration": 0.14851500000000328,
          "durationTicks": 48,
          "midi": 68,
          "name": "G#4",
          "ticks": 27336,
          "time": 84.57929250000001,
          "velocity": 0.905511811023622
        },
        {
          "duration": 0.14851500000000328,
          "durationTicks": 48,
          "midi": 71,
          "name": "B4",
          "ticks": 27408,
          "time": 84.802065,
          "velocity": 0.905511811023622
        },
        {
          "duration": 0.14851500000000328,
          "durationTicks": 48,
          "midi": 73,
          "name": "C#5",
          "ticks": 27456,
          "time": 84.95058,
          "velocity": 0.905511811023622
        },
        {
          "duration": 0.14851500000000328,
          "durationTicks": 48,
          "midi": 75,
          "name": "D#5",
          "ticks": 27528,
          "time": 85.17335250000001,
          "velocity": 0.905511811023622
        },
        {
          "duration": 0.14851500000000328,
          "durationTicks": 48,
          "midi": 71,
          "name": "B4",
          "ticks": 27600,
          "time": 85.396125,
          "velocity": 0.905511811023622
        },
        {
          "duration": 0.14851500000000328,
          "durationTicks": 48,
          "midi": 73,
          "name": "C#5",
          "ticks": 27648,
          "time": 85.54464,
          "velocity": 0.905511811023622
        },
        {
          "duration": 0.14851500000000328,
          "durationTicks": 48,
          "midi": 73,
          "name": "C#5",
          "ticks": 27720,
          "time": 85.7674125,
          "velocity": 0.905511811023622
        },
        {
          "duration": 0.14851499999998907,
          "durationTicks": 48,
          "midi": 71,
          "name": "B4",
          "ticks": 27792,
          "time": 85.99018500000001,
          "velocity": 0.905511811023622
        },
        {
          "duration": 0.29703000000000657,
          "durationTicks": 96,
          "midi": 73,
          "name": "C#5",
          "ticks": 27840,
          "time": 86.1387,
          "velocity": 0.905511811023622
        },
        {
          "duration": 0.14851500000000328,
          "durationTicks": 48,
          "midi": 73,
          "name": "C#5",
          "ticks": 28032,
          "time": 86.73276,
          "velocity": 0.8976377952755905
        },
        {
          "duration": 0.14851500000000328,
          "durationTicks": 48,
          "midi": 73,
          "name": "C#5",
          "ticks": 28128,
          "time": 87.02979,
          "velocity": 0.8976377952755905
        },
        {
          "duration": 0.14851499999998907,
          "durationTicks": 48,
          "midi": 75,
          "name": "D#5",
          "ticks": 28176,
          "time": 87.17830500000001,
          "velocity": 0.8976377952755905
        },
        {
          "duration": 0.14851500000000328,
          "durationTicks": 48,
          "midi": 76,
          "name": "E5",
          "ticks": 28224,
          "time": 87.32682,
          "velocity": 0.8976377952755905
        },
        {
          "duration": 0.14851500000000328,
          "durationTicks": 48,
          "midi": 75,
          "name": "D#5",
          "ticks": 28296,
          "time": 87.5495925,
          "velocity": 0.8976377952755905
        },
        {
          "duration": 0.14851500000000328,
          "durationTicks": 48,
          "midi": 71,
          "name": "B4",
          "ticks": 28368,
          "time": 87.77236500000001,
          "velocity": 0.8976377952755905
        },
        {
          "duration": 0.14851499999998907,
          "durationTicks": 48,
          "midi": 66,
          "name": "F#4",
          "ticks": 28416,
          "time": 87.92088000000001,
          "velocity": 0.8976377952755905
        },
        {
          "duration": 0.14851500000000328,
          "durationTicks": 48,
          "midi": 64,
          "name": "E4",
          "ticks": 28488,
          "time": 88.1436525,
          "velocity": 0.8976377952755905
        },
        {
          "duration": 0.14851500000000328,
          "durationTicks": 48,
          "midi": 66,
          "name": "F#4",
          "ticks": 28560,
          "time": 88.366425,
          "velocity": 0.8976377952755905
        },
        {
          "duration": 0.14851499999998907,
          "durationTicks": 48,
          "midi": 68,
          "name": "G#4",
          "ticks": 28608,
          "time": 88.51494000000001,
          "velocity": 0.8976377952755905
        },
        {
          "duration": 0.14851500000000328,
          "durationTicks": 48,
          "midi": 66,
          "name": "F#4",
          "ticks": 28680,
          "time": 88.7377125,
          "velocity": 0.8976377952755905
        },
        {
          "duration": 0.07425750000000164,
          "durationTicks": 24,
          "midi": 68,
          "name": "G#4",
          "ticks": 28752,
          "time": 88.960485,
          "velocity": 0.8976377952755905
        },
        {
          "duration": 0.07425750000000164,
          "durationTicks": 24,
          "midi": 71,
          "name": "B4",
          "ticks": 28776,
          "time": 89.03474250000001,
          "velocity": 0.8976377952755905
        },
        {
          "duration": 0.14851499999998907,
          "durationTicks": 48,
          "midi": 73,
          "name": "C#5",
          "ticks": 28800,
          "time": 89.10900000000001,
          "velocity": 0.8976377952755905
        },
        {
          "duration": 0.14851500000000328,
          "durationTicks": 48,
          "midi": 73,
          "name": "C#5",
          "ticks": 28896,
          "time": 89.40603,
          "velocity": 0.8976377952755905
        },
        {
          "duration": 0.14851500000000328,
          "durationTicks": 48,
          "midi": 75,
          "name": "D#5",
          "ticks": 28944,
          "time": 89.554545,
          "velocity": 0.8976377952755905
        },
        {
          "duration": 0.14851500000000328,
          "durationTicks": 48,
          "midi": 76,
          "name": "E5",
          "ticks": 28992,
          "time": 89.70306000000001,
          "velocity": 0.8976377952755905
        },
        {
          "duration": 0.14851500000000328,
          "durationTicks": 48,
          "midi": 75,
          "name": "D#5",
          "ticks": 29064,
          "time": 89.9258325,
          "velocity": 0.8976377952755905
        },
        {
          "duration": 0.14851500000000328,
          "durationTicks": 48,
          "midi": 71,
          "name": "B4",
          "ticks": 29136,
          "time": 90.148605,
          "velocity": 0.8976377952755905
        },
        {
          "duration": 0.14851500000000328,
          "durationTicks": 48,
          "midi": 78,
          "name": "F#5",
          "ticks": 29184,
          "time": 90.29712,
          "velocity": 0.8976377952755905
        },
        {
          "duration": 0.14851499999998907,
          "durationTicks": 48,
          "midi": 76,
          "name": "E5",
          "ticks": 29256,
          "time": 90.51989250000001,
          "velocity": 0.8976377952755905
        },
        {
          "duration": 0.14851500000000328,
          "durationTicks": 48,
          "midi": 78,
          "name": "F#5",
          "ticks": 29328,
          "time": 90.742665,
          "velocity": 0.8976377952755905
        },
        {
          "duration": 0.14851500000000328,
          "durationTicks": 48,
          "midi": 83,
          "name": "B5",
          "ticks": 29376,
          "time": 90.89118,
          "velocity": 0.8976377952755905
        },
        {
          "duration": 0.14851499999998907,
          "durationTicks": 48,
          "midi": 80,
          "name": "G#5",
          "ticks": 29448,
          "time": 91.11395250000001,
          "velocity": 0.8976377952755905
        },
        {
          "duration": 0.14851500000000328,
          "durationTicks": 48,
          "midi": 83,
          "name": "B5",
          "ticks": 29520,
          "time": 91.336725,
          "velocity": 0.8976377952755905
        },
        {
          "duration": 0.09900999999999271,
          "durationTicks": 32,
          "midi": 85,
          "name": "C#6",
          "ticks": 29568,
          "time": 91.48524,
          "velocity": 0.8976377952755905
        },
        {
          "duration": 0.09901000000000693,
          "durationTicks": 32,
          "midi": 80,
          "name": "G#5",
          "ticks": 29600,
          "time": 91.58425,
          "velocity": 0.8976377952755905
        },
        {
          "duration": 0.09901000000000693,
          "durationTicks": 32,
          "midi": 76,
          "name": "E5",
          "ticks": 29632,
          "time": 91.68326,
          "velocity": 0.8976377952755905
        },
        {
          "duration": 0.09900999999999271,
          "durationTicks": 32,
          "midi": 73,
          "name": "C#5",
          "ticks": 29664,
          "time": 91.78227000000001,
          "velocity": 0.8976377952755905
        },
        {
          "duration": 0.09901000000000693,
          "durationTicks": 32,
          "midi": 75,
          "name": "D#5",
          "ticks": 29696,
          "time": 91.88128,
          "velocity": 0.8976377952755905
        },
        {
          "duration": 0.09900999999999271,
          "durationTicks": 32,
          "midi": 76,
          "name": "E5",
          "ticks": 29728,
          "time": 91.98029000000001,
          "velocity": 0.8976377952755905
        },
        {
          "duration": 0.09900999999999271,
          "durationTicks": 32,
          "midi": 78,
          "name": "F#5",
          "ticks": 29760,
          "time": 92.0793,
          "velocity": 0.8976377952755905
        },
        {
          "duration": 0.09901000000002114,
          "durationTicks": 32,
          "midi": 80,
          "name": "G#5",
          "ticks": 29792,
          "time": 92.17831,
          "velocity": 0.8976377952755905
        },
        {
          "duration": 0.09900999999999271,
          "durationTicks": 32,
          "midi": 83,
          "name": "B5",
          "ticks": 29824,
          "time": 92.27732000000002,
          "velocity": 0.8976377952755905
        },
        {
          "duration": 0.09900999999999271,
          "durationTicks": 32,
          "midi": 85,
          "name": "C#6",
          "ticks": 29856,
          "time": 92.37633000000001,
          "velocity": 0.8976377952755905
        },
        {
          "duration": 0.09901000000000693,
          "durationTicks": 32,
          "midi": 83,
          "name": "B5",
          "ticks": 29888,
          "time": 92.47534,
          "velocity": 0.8976377952755905
        },
        {
          "duration": 0.09900999999999271,
          "durationTicks": 32,
          "midi": 85,
          "name": "C#6",
          "ticks": 29920,
          "time": 92.57435000000001,
          "velocity": 0.8976377952755905
        },
        {
          "duration": 0.09900999999999271,
          "durationTicks": 32,
          "midi": 87,
          "name": "D#6",
          "ticks": 29952,
          "time": 92.67336,
          "velocity": 0.8976377952755905
        },
        {
          "duration": 0.09901000000002114,
          "durationTicks": 32,
          "midi": 85,
          "name": "C#6",
          "ticks": 29984,
          "time": 92.77237,
          "velocity": 0.8976377952755905
        },
        {
          "duration": 0.09900999999999271,
          "durationTicks": 32,
          "midi": 83,
          "name": "B5",
          "ticks": 30016,
          "time": 92.87138000000002,
          "velocity": 0.8976377952755905
        },
        {
          "duration": 0.09900999999999271,
          "durationTicks": 32,
          "midi": 80,
          "name": "G#5",
          "ticks": 30048,
          "time": 92.97039000000001,
          "velocity": 0.8976377952755905
        },
        {
          "duration": 0.09901000000000693,
          "durationTicks": 32,
          "midi": 78,
          "name": "F#5",
          "ticks": 30080,
          "time": 93.0694,
          "velocity": 0.8976377952755905
        },
        {
          "duration": 0.09900999999999271,
          "durationTicks": 32,
          "midi": 75,
          "name": "D#5",
          "ticks": 30112,
          "time": 93.16841000000001,
          "velocity": 0.8976377952755905
        },
        {
          "duration": 0.07425750000000164,
          "durationTicks": 24,
          "midi": 73,
          "name": "C#5",
          "ticks": 30144,
          "time": 93.26742,
          "velocity": 0.8976377952755905
        },
        {
          "duration": 0.07425750000000164,
          "durationTicks": 24,
          "midi": 75,
          "name": "D#5",
          "ticks": 30168,
          "time": 93.3416775,
          "velocity": 0.8976377952755905
        },
        {
          "duration": 0.07425750000000164,
          "durationTicks": 24,
          "midi": 76,
          "name": "E5",
          "ticks": 30192,
          "time": 93.415935,
          "velocity": 0.8976377952755905
        },
        {
          "duration": 0.07425750000000164,
          "durationTicks": 24,
          "midi": 75,
          "name": "D#5",
          "ticks": 30216,
          "time": 93.4901925,
          "velocity": 0.8976377952755905
        },
        {
          "duration": 0.07425750000000164,
          "durationTicks": 24,
          "midi": 76,
          "name": "E5",
          "ticks": 30240,
          "time": 93.56445000000001,
          "velocity": 0.8976377952755905
        },
        {
          "duration": 0.07425750000000164,
          "durationTicks": 24,
          "midi": 78,
          "name": "F#5",
          "ticks": 30264,
          "time": 93.63870750000001,
          "velocity": 0.8976377952755905
        },
        {
          "duration": 0.07425749999998743,
          "durationTicks": 24,
          "midi": 80,
          "name": "G#5",
          "ticks": 30288,
          "time": 93.71296500000001,
          "velocity": 0.8976377952755905
        },
        {
          "duration": 0.07425750000000164,
          "durationTicks": 24,
          "midi": 83,
          "name": "B5",
          "ticks": 30312,
          "time": 93.7872225,
          "velocity": 0.8976377952755905
        },
        {
          "duration": 0.14851500000000328,
          "durationTicks": 48,
          "midi": 85,
          "name": "C#6",
          "ticks": 30336,
          "time": 93.86148,
          "velocity": 0.8976377952755905
        },
        {
          "duration": 0.14851500000000328,
          "durationTicks": 48,
          "midi": 85,
          "name": "C#6",
          "ticks": 30408,
          "time": 94.0842525,
          "velocity": 0.8976377952755905
        },
        {
          "duration": 0.29702999999999236,
          "durationTicks": 96,
          "midi": 87,
          "name": "D#6",
          "ticks": 30480,
          "time": 94.30702500000001,
          "velocity": 0.8976377952755905
        },
        {
          "duration": 0.14851500000000328,
          "durationTicks": 48,
          "midi": 88,
          "name": "E6",
          "ticks": 30576,
          "time": 94.604055,
          "velocity": 0.8976377952755905
        },
        {
          "duration": 0.14851500000000328,
          "durationTicks": 48,
          "midi": 87,
          "name": "D#6",
          "ticks": 30624,
          "time": 94.75257,
          "velocity": 0.8976377952755905
        },
        {
          "duration": 0.14851499999998907,
          "durationTicks": 48,
          "midi": 83,
          "name": "B5",
          "ticks": 30672,
          "time": 94.90108500000001,
          "velocity": 0.8976377952755905
        },
        {
          "duration": 0.14851500000000328,
          "durationTicks": 48,
          "midi": 85,
          "name": "C#6",
          "ticks": 30720,
          "time": 95.0496,
          "velocity": 0.8976377952755905
        },
        {
          "duration": 0.14851500000000328,
          "durationTicks": 48,
          "midi": 85,
          "name": "C#6",
          "ticks": 30792,
          "time": 95.2723725,
          "velocity": 0.8976377952755905
        },
        {
          "duration": 0.14851500000000328,
          "durationTicks": 48,
          "midi": 83,
          "name": "B5",
          "ticks": 30864,
          "time": 95.49514500000001,
          "velocity": 0.8976377952755905
        },
        {
          "duration": 0.29702999999999236,
          "durationTicks": 96,
          "midi": 85,
          "name": "C#6",
          "ticks": 30912,
          "time": 95.64366000000001,
          "velocity": 0.8976377952755905
        },
        {
          "duration": 0.14851499999998907,
          "durationTicks": 48,
          "midi": 69,
          "name": "A4",
          "ticks": 31104,
          "time": 96.23772000000001,
          "velocity": 0.9133858267716536
        },
        {
          "duration": 0.14851500000000328,
          "durationTicks": 48,
          "midi": 64,
          "name": "E4",
          "ticks": 31152,
          "time": 96.386235,
          "velocity": 0.9133858267716536
        },
        {
          "duration": 0.14851500000000328,
          "durationTicks": 48,
          "midi": 76,
          "name": "E5",
          "ticks": 31200,
          "time": 96.53475,
          "velocity": 0.9133858267716536
        },
        {
          "duration": 0.07425750000000164,
          "durationTicks": 24,
          "midi": 71,
          "name": "B4",
          "ticks": 31248,
          "time": 96.683265,
          "velocity": 0.9133858267716536
        },
        {
          "duration": 0.07425750000000164,
          "durationTicks": 24,
          "midi": 72,
          "name": "C5",
          "ticks": 31272,
          "time": 96.75752250000001,
          "velocity": 0.9133858267716536
        },
        {
          "duration": 0.14851500000000328,
          "durationTicks": 48,
          "midi": 71,
          "name": "B4",
          "ticks": 31296,
          "time": 96.83178000000001,
          "velocity": 0.9133858267716536
        },
        {
          "duration": 0.14851499999998907,
          "durationTicks": 48,
          "midi": 67,
          "name": "G4",
          "ticks": 31344,
          "time": 96.98029500000001,
          "velocity": 0.9133858267716536
        },
        {
          "duration": 0.14851500000000328,
          "durationTicks": 48,
          "midi": 62,
          "name": "D4",
          "ticks": 31440,
          "time": 97.277325,
          "velocity": 0.9133858267716536
        },
        {
          "duration": 0.14851500000000328,
          "durationTicks": 48,
          "midi": 64,
          "name": "E4",
          "ticks": 31488,
          "time": 97.42584000000001,
          "velocity": 0.9133858267716536
        },
        {
          "duration": 0.14851499999998907,
          "durationTicks": 48,
          "midi": 71,
          "name": "B4",
          "ticks": 31536,
          "time": 97.57435500000001,
          "velocity": 0.9133858267716536
        },
        {
          "duration": 0.14851500000000328,
          "durationTicks": 48,
          "midi": 72,
          "name": "C5",
          "ticks": 31584,
          "time": 97.72287,
          "velocity": 0.9133858267716536
        },
        {
          "duration": 0.07425750000000164,
          "durationTicks": 24,
          "midi": 71,
          "name": "B4",
          "ticks": 31632,
          "time": 97.871385,
          "velocity": 0.9133858267716536
        },
        {
          "duration": 0.07425750000000164,
          "durationTicks": 24,
          "midi": 72,
          "name": "C5",
          "ticks": 31656,
          "time": 97.9456425,
          "velocity": 0.9133858267716536
        },
        {
          "duration": 0.14851500000000328,
          "durationTicks": 48,
          "midi": 71,
          "name": "B4",
          "ticks": 31680,
          "time": 98.0199,
          "velocity": 0.9133858267716536
        },
        {
          "duration": 0.14851499999998907,
          "durationTicks": 48,
          "midi": 67,
          "name": "G4",
          "ticks": 31728,
          "time": 98.16841500000001,
          "velocity": 0.9133858267716536
        },
        {
          "duration": 0.14851500000000328,
          "durationTicks": 48,
          "midi": 62,
          "name": "D4",
          "ticks": 31776,
          "time": 98.31693,
          "velocity": 0.9133858267716536
        },
        {
          "duration": 0.14851500000000328,
          "durationTicks": 48,
          "midi": 67,
          "name": "G4",
          "ticks": 31824,
          "time": 98.465445,
          "velocity": 0.8818897637795275
        },
        {
          "duration": 1.1881199999999978,
          "durationTicks": 384,
          "midi": 69,
          "name": "A4",
          "ticks": 31872,
          "time": 98.61396,
          "velocity": 0.8818897637795275
        },
        {
          "duration": 0.14851500000000328,
          "durationTicks": 48,
          "midi": 64,
          "name": "E4",
          "ticks": 32544,
          "time": 100.69317000000001,
          "velocity": 0.9133858267716536
        },
        {
          "duration": 0.14851499999998907,
          "durationTicks": 48,
          "midi": 67,
          "name": "G4",
          "ticks": 32592,
          "time": 100.84168500000001,
          "velocity": 0.9133858267716536
        },
        {
          "duration": 0.14851500000000328,
          "durationTicks": 48,
          "midi": 69,
          "name": "A4",
          "ticks": 32640,
          "time": 100.9902,
          "velocity": 0.9133858267716536
        },
        {
          "duration": 0.14851500000000328,
          "durationTicks": 48,
          "midi": 64,
          "name": "E4",
          "ticks": 32688,
          "time": 101.138715,
          "velocity": 0.9133858267716536
        },
        {
          "duration": 0.14851500000000328,
          "durationTicks": 48,
          "midi": 76,
          "name": "E5",
          "ticks": 32736,
          "time": 101.28723000000001,
          "velocity": 0.9133858267716536
        },
        {
          "duration": 0.07425749999998743,
          "durationTicks": 24,
          "midi": 71,
          "name": "B4",
          "ticks": 32784,
          "time": 101.43574500000001,
          "velocity": 0.9133858267716536
        },
        {
          "duration": 0.07425750000000164,
          "durationTicks": 24,
          "midi": 72,
          "name": "C5",
          "ticks": 32808,
          "time": 101.5100025,
          "velocity": 0.9133858267716536
        },
        {
          "duration": 0.14851500000000328,
          "durationTicks": 48,
          "midi": 71,
          "name": "B4",
          "ticks": 32832,
          "time": 101.58426,
          "velocity": 0.9133858267716536
        },
        {
          "duration": 0.14851500000000328,
          "durationTicks": 48,
          "midi": 67,
          "name": "G4",
          "ticks": 32880,
          "time": 101.732775,
          "velocity": 0.9133858267716536
        },
        {
          "duration": 0.14851499999998907,
          "durationTicks": 48,
          "midi": 62,
          "name": "D4",
          "ticks": 32976,
          "time": 102.02980500000001,
          "velocity": 0.9133858267716536
        },
        {
          "duration": 0.14851500000000328,
          "durationTicks": 48,
          "midi": 64,
          "name": "E4",
          "ticks": 33024,
          "time": 102.17832,
          "velocity": 0.9133858267716536
        },
        {
          "duration": 0.14851500000000328,
          "durationTicks": 48,
          "midi": 71,
          "name": "B4",
          "ticks": 33072,
          "time": 102.326835,
          "velocity": 0.9133858267716536
        },
        {
          "duration": 0.14851500000000328,
          "durationTicks": 48,
          "midi": 72,
          "name": "C5",
          "ticks": 33120,
          "time": 102.47535,
          "velocity": 0.9133858267716536
        },
        {
          "duration": 0.07425750000000164,
          "durationTicks": 24,
          "midi": 71,
          "name": "B4",
          "ticks": 33168,
          "time": 102.62386500000001,
          "velocity": 0.9133858267716536
        },
        {
          "duration": 0.07425750000000164,
          "durationTicks": 24,
          "midi": 72,
          "name": "C5",
          "ticks": 33192,
          "time": 102.69812250000001,
          "velocity": 0.9133858267716536
        },
        {
          "duration": 0.14851499999998907,
          "durationTicks": 48,
          "midi": 71,
          "name": "B4",
          "ticks": 33216,
          "time": 102.77238000000001,
          "velocity": 0.9133858267716536
        },
        {
          "duration": 0.14851500000000328,
          "durationTicks": 48,
          "midi": 67,
          "name": "G4",
          "ticks": 33264,
          "time": 102.920895,
          "velocity": 0.9133858267716536
        },
        {
          "duration": 0.14851500000000328,
          "durationTicks": 48,
          "midi": 62,
          "name": "D4",
          "ticks": 33312,
          "time": 103.06941,
          "velocity": 0.9133858267716536
        },
        {
          "duration": 0.14851500000000328,
          "durationTicks": 48,
          "midi": 67,
          "name": "G4",
          "ticks": 33360,
          "time": 103.21792500000001,
          "velocity": 0.8818897637795275
        },
        {
          "duration": 1.1881199999999978,
          "durationTicks": 384,
          "midi": 69,
          "name": "A4",
          "ticks": 33408,
          "time": 103.36644000000001,
          "velocity": 0.8818897637795275
        },
        {
          "duration": 0.14851500000000328,
          "durationTicks": 48,
          "midi": 74,
          "name": "D5",
          "ticks": 33888,
          "time": 104.85159,
          "velocity": 0.8818897637795275
        },
        {
          "duration": 0.14851500000000328,
          "durationTicks": 48,
          "midi": 72,
          "name": "C5",
          "ticks": 33984,
          "time": 105.14862000000001,
          "velocity": 0.8818897637795275
        },
        {
          "duration": 0.14851500000000328,
          "durationTicks": 48,
          "midi": 71,
          "name": "B4",
          "ticks": 34080,
          "time": 105.44565,
          "velocity": 0.8818897637795275
        }
      ],
      "endOfTrackTicks": 39938
    },
    {
      "channel": 6,
      "controlChanges": {
        "6": [
          {
            "number": 6,
            "ticks": 0,
            "time": 0,
            "value": 0.09448818897637795
          },
          {
            "number": 6,
            "ticks": 0,
            "time": 0,
            "value": 0.09448818897637795
          },
          {
            "number": 6,
            "ticks": 0,
            "time": 0,
            "value": 0.09448818897637795
          },
          {
            "number": 6,
            "ticks": 39936,
            "time": 123.56448,
            "value": 0.09448818897637795
          },
          {
            "number": 6,
            "ticks": 39938,
            "time": 123.570668125,
            "value": 0.09448818897637795
          }
        ],
        "7": [
          {
            "number": 7,
            "ticks": 0,
            "time": 0,
            "value": 0.7874015748031497
          },
          {
            "number": 7,
            "ticks": 0,
            "time": 0,
            "value": 0.7874015748031497
          },
          {
            "number": 7,
            "ticks": 0,
            "time": 0,
            "value": 0.7874015748031497
          },
          {
            "number": 7,
            "ticks": 0,
            "time": 0,
            "value": 0.7874015748031497
          },
          {
            "number": 7,
            "ticks": 39936,
            "time": 123.56448,
            "value": 0.7874015748031497
          },
          {
            "number": 7,
            "ticks": 39938,
            "time": 123.570668125,
            "value": 0.7874015748031497
          }
        ],
        "10": [
          {
            "number": 10,
            "ticks": 0,
            "time": 0,
            "value": 0.5039370078740157
          },
          {
            "number": 10,
            "ticks": 0,
            "time": 0,
            "value": 0.5039370078740157
          },
          {
            "number": 10,
            "ticks": 0,
            "time": 0,
            "value": 0.5039370078740157
          },
          {
            "number": 10,
            "ticks": 0,
            "time": 0,
            "value": 0.5039370078740157
          },
          {
            "number": 10,
            "ticks": 39936,
            "time": 123.56448,
            "value": 0.5039370078740157
          },
          {
            "number": 10,
            "ticks": 39938,
            "time": 123.570668125,
            "value": 0.5039370078740157
          }
        ],
        "100": [
          {
            "number": 100,
            "ticks": 0,
            "time": 0,
            "value": 0
          },
          {
            "number": 100,
            "ticks": 0,
            "time": 0,
            "value": 0
          },
          {
            "number": 100,
            "ticks": 0,
            "time": 0,
            "value": 0
          },
          {
            "number": 100,
            "ticks": 39936,
            "time": 123.56448,
            "value": 0
          },
          {
            "number": 100,
            "ticks": 39938,
            "time": 123.570668125,
            "value": 0
          }
        ],
        "101": [
          {
            "number": 101,
            "ticks": 0,
            "time": 0,
            "value": 0
          },
          {
            "number": 101,
            "ticks": 0,
            "time": 0,
            "value": 0
          },
          {
            "number": 101,
            "ticks": 0,
            "time": 0,
            "value": 0
          },
          {
            "number": 101,
            "ticks": 39936,
            "time": 123.56448,
            "value": 0
          },
          {
            "number": 101,
            "ticks": 39938,
            "time": 123.570668125,
            "value": 0
          }
        ]
      },
      "pitchBends": [
        {
          "ticks": 0,
          "time": 0,
          "value": 0
        },
        {
          "ticks": 0,
          "time": 0,
          "value": 0
        },
        {
          "ticks": 0,
          "time": 0,
          "value": 0
        },
        {
          "ticks": 0,
          "time": 0,
          "value": 0
        },
        {
          "ticks": 39936,
          "time": 123.56448,
          "value": 0
        },
        {
          "ticks": 39938,
          "time": 123.570668125,
          "value": 0
        }
      ],
      "instrument": {
        "family": "piano",
        "number": 0,
        "name": "acoustic grand piano"
      },
      "name": "Bass",
      "notes": [
        {
          "duration": 0.14851499999999995,
          "durationTicks": 48,
          "midi": 49,
          "name": "C#3",
          "ticks": 384,
          "time": 1.18812,
          "velocity": 0.8818897637795275
        },
        {
          "duration": 0.14851499999999995,
          "durationTicks": 48,
          "midi": 51,
          "name": "D#3",
          "ticks": 528,
          "time": 1.6336650000000001,
          "velocity": 0.8818897637795275
        },
        {
          "duration": 0.14851499999999973,
          "durationTicks": 48,
          "midi": 44,
          "name": "G#2",
          "ticks": 672,
          "time": 2.0792100000000002,
          "velocity": 0.8818897637795275
        },
        {
          "duration": 0.14851500000000017,
          "durationTicks": 48,
          "midi": 49,
          "name": "C#3",
          "ticks": 1152,
          "time": 3.56436,
          "velocity": 0.8818897637795275
        },
        {
          "duration": 0.14851500000000062,
          "durationTicks": 48,
          "midi": 51,
          "name": "D#3",
          "ticks": 1296,
          "time": 4.009905,
          "velocity": 0.8818897637795275
        },
        {
          "duration": 0.14851500000000062,
          "durationTicks": 48,
          "midi": 54,
          "name": "F#3",
          "ticks": 1440,
          "time": 4.45545,
          "velocity": 0.8818897637795275
        },
        {
          "duration": 0.14851500000000062,
          "durationTicks": 48,
          "midi": 49,
          "name": "C#3",
          "ticks": 1920,
          "time": 5.9406,
          "velocity": 0.8818897637795275
        },
        {
          "duration": 0.14851500000000062,
          "durationTicks": 48,
          "midi": 51,
          "name": "D#3",
          "ticks": 2064,
          "time": 6.386145,
          "velocity": 0.8818897637795275
        },
        {
          "duration": 0.14851500000000062,
          "durationTicks": 48,
          "midi": 44,
          "name": "G#2",
          "ticks": 2208,
          "time": 6.83169,
          "velocity": 0.8818897637795275
        },
        {
          "duration": 0.14851499999999973,
          "durationTicks": 48,
          "midi": 49,
          "name": "C#3",
          "ticks": 2688,
          "time": 8.316840000000001,
          "velocity": 0.8818897637795275
        },
        {
          "duration": 0.14851499999999973,
          "durationTicks": 48,
          "midi": 51,
          "name": "D#3",
          "ticks": 2832,
          "time": 8.762385,
          "velocity": 0.8818897637795275
        },
        {
          "duration": 0.42079249999999924,
          "durationTicks": 136,
          "midi": 44,
          "name": "G#2",
          "ticks": 2976,
          "time": 9.207930000000001,
          "velocity": 0.8818897637795275
        },
        {
          "duration": 0.04950499999999991,
          "durationTicks": 16,
          "midi": 44,
          "name": "G#2",
          "ticks": 3120,
          "time": 9.653475,
          "velocity": 0.8818897637795275
        },
        {
          "duration": 0.04950499999999991,
          "durationTicks": 16,
          "midi": 44,
          "name": "G#2",
          "ticks": 3144,
          "time": 9.7277325,
          "velocity": 0.8818897637795275
        },
        {
          "duration": 0.04950499999999991,
          "durationTicks": 16,
          "midi": 44,
          "name": "G#2",
          "ticks": 3168,
          "time": 9.80199,
          "velocity": 0.8818897637795275
        },
        {
          "duration": 0.04950499999999991,
          "durationTicks": 16,
          "midi": 44,
          "name": "G#2",
          "ticks": 3192,
          "time": 9.8762475,
          "velocity": 0.8818897637795275
        },
        {
          "duration": 0.04950499999999991,
          "durationTicks": 16,
          "midi": 44,
          "name": "G#2",
          "ticks": 3216,
          "time": 9.950505,
          "velocity": 0.8818897637795275
        },
        {
          "duration": 0.049504999999998134,
          "durationTicks": 16,
          "midi": 44,
          "name": "G#2",
          "ticks": 3240,
          "time": 10.024762500000001,
          "velocity": 0.8818897637795275
        },
        {
          "duration": 0.049504999999998134,
          "durationTicks": 16,
          "midi": 44,
          "name": "G#2",
          "ticks": 3264,
          "time": 10.099020000000001,
          "velocity": 0.8818897637795275
        },
        {
          "duration": 0.049504999999998134,
          "durationTicks": 16,
          "midi": 44,
          "name": "G#2",
          "ticks": 3288,
          "time": 10.173277500000001,
          "velocity": 0.8818897637795275
        },
        {
          "duration": 0.049504999999998134,
          "durationTicks": 16,
          "midi": 44,
          "name": "G#2",
          "ticks": 3312,
          "time": 10.247535000000001,
          "velocity": 0.8818897637795275
        },
        {
          "duration": 0.04950499999999991,
          "durationTicks": 16,
          "midi": 44,
          "name": "G#2",
          "ticks": 3336,
          "time": 10.3217925,
          "velocity": 0.8818897637795275
        },
        {
          "duration": 0.44554500000000097,
          "durationTicks": 144,
          "midi": 40,
          "name": "E2",
          "ticks": 3456,
          "time": 10.69308,
          "velocity": 0.8818897637795275
        },
        {
          "duration": 0.7425749999999987,
          "durationTicks": 240,
          "midi": 42,
          "name": "F#2",
          "ticks": 3600,
          "time": 11.138625000000001,
          "velocity": 0.8818897637795275
        },
        {
          "duration": 0.44554500000000097,
          "durationTicks": 144,
          "midi": 43,
          "name": "G2",
          "ticks": 3840,
          "time": 11.8812,
          "velocity": 0.8818897637795275
        },
        {
          "duration": 0.7425750000000004,
          "durationTicks": 240,
          "midi": 44,
          "name": "G#2",
          "ticks": 3984,
          "time": 12.326745,
          "velocity": 0.8818897637795275
        },
        {
          "duration": 0.4455449999999992,
          "durationTicks": 144,
          "midi": 40,
          "name": "E2",
          "ticks": 4224,
          "time": 13.069320000000001,
          "velocity": 0.8818897637795275
        },
        {
          "duration": 0.7425750000000004,
          "durationTicks": 240,
          "midi": 42,
          "name": "F#2",
          "ticks": 4368,
          "time": 13.514865,
          "velocity": 0.8818897637795275
        },
        {
          "duration": 0.11138625000000069,
          "durationTicks": 36,
          "midi": 43,
          "name": "G2",
          "ticks": 4608,
          "time": 14.25744,
          "velocity": 0.8818897637795275
        },
        {
          "duration": 0.11138625000000069,
          "durationTicks": 36,
          "midi": 43,
          "name": "G2",
          "ticks": 4656,
          "time": 14.405955,
          "velocity": 0.8818897637795275
        },
        {
          "duration": 0.7425750000000004,
          "durationTicks": 240,
          "midi": 44,
          "name": "G#2",
          "ticks": 4752,
          "time": 14.702985,
          "velocity": 0.8818897637795275
        },
        {
          "duration": 0.44554500000000097,
          "durationTicks": 144,
          "midi": 40,
          "name": "E2",
          "ticks": 4992,
          "time": 15.44556,
          "velocity": 0.8818897637795275
        },
        {
          "duration": 0.7425750000000004,
          "durationTicks": 240,
          "midi": 42,
          "name": "F#2",
          "ticks": 5136,
          "time": 15.891105000000001,
          "velocity": 0.8818897637795275
        },
        {
          "duration": 0.4455449999999992,
          "durationTicks": 144,
          "midi": 43,
          "name": "G2",
          "ticks": 5376,
          "time": 16.633680000000002,
          "velocity": 0.8818897637795275
        },
        {
          "duration": 0.7425749999999987,
          "durationTicks": 240,
          "midi": 44,
          "name": "G#2",
          "ticks": 5520,
          "time": 17.079225,
          "velocity": 0.8818897637795275
        },
        {
          "duration": 0.297030000000003,
          "durationTicks": 96,
          "midi": 40,
          "name": "E2",
          "ticks": 5760,
          "time": 17.8218,
          "velocity": 0.8818897637795275
        },
        {
          "duration": 0.14851499999999973,
          "durationTicks": 48,
          "midi": 43,
          "name": "G2",
          "ticks": 6048,
          "time": 18.71289,
          "velocity": 0.8818897637795275
        },
        {
          "duration": 0.7425749999999987,
          "durationTicks": 240,
          "midi": 44,
          "name": "G#2",
          "ticks": 6096,
          "time": 18.861405,
          "velocity": 0.8818897637795275
        },
        {
          "duration": 0.07425750000000164,
          "durationTicks": 24,
          "midi": 44,
          "name": "G#2",
          "ticks": 6336,
          "time": 19.60398,
          "velocity": 0.8818897637795275
        },
        {
          "duration": 0.07425750000000164,
          "durationTicks": 24,
          "midi": 46,
          "name": "A#2",
          "ticks": 6368,
          "time": 19.70299,
          "velocity": 0.8818897637795275
        },
        {
          "duration": 0.07425749999999809,
          "durationTicks": 24,
          "midi": 47,
          "name": "B2",
          "ticks": 6400,
          "time": 19.802000000000003,
          "velocity": 0.8818897637795275
        },
        {
          "duration": 0.07425750000000164,
          "durationTicks": 24,
          "midi": 49,
          "name": "C#3",
          "ticks": 6432,
          "time": 19.90101,
          "velocity": 0.8818897637795275
        },
        {
          "duration": 0.07425750000000164,
          "durationTicks": 24,
          "midi": 47,
          "name": "B2",
          "ticks": 6464,
          "time": 20.00002,
          "velocity": 0.8818897637795275
        },
        {
          "duration": 0.07425750000000164,
          "durationTicks": 24,
          "midi": 46,
          "name": "A#2",
          "ticks": 6496,
          "time": 20.099030000000003,
          "velocity": 0.8818897637795275
        },
        {
          "duration": 0.14851499999999973,
          "durationTicks": 48,
          "midi": 44,
          "name": "G#2",
          "ticks": 6576,
          "time": 20.346555000000002,
          "velocity": 0.8818897637795275
        },
        {
          "duration": 0.14851499999999973,
          "durationTicks": 48,
          "midi": 44,
          "name": "G#2",
          "ticks": 6672,
          "time": 20.643585,
          "velocity": 0.8818897637795275
        },
        {
          "duration": 0.14851499999999973,
          "durationTicks": 48,
          "midi": 44,
          "name": "G#2",
          "ticks": 6768,
          "time": 20.940615,
          "velocity": 0.8818897637795275
        },
        {
          "duration": 0.14851499999999973,
          "durationTicks": 48,
          "midi": 44,
          "name": "G#2",
          "ticks": 6864,
          "time": 21.237645,
          "velocity": 0.8818897637795275
        },
        {
          "duration": 0.14851499999999973,
          "durationTicks": 48,
          "midi": 44,
          "name": "G#2",
          "ticks": 6960,
          "time": 21.534675,
          "velocity": 0.8818897637795275
        },
        {
          "duration": 0.14851500000000328,
          "durationTicks": 48,
          "midi": 44,
          "name": "G#2",
          "ticks": 7056,
          "time": 21.831705,
          "velocity": 0.8818897637795275
        },
        {
          "duration": 0.14851499999999973,
          "durationTicks": 48,
          "midi": 44,
          "name": "G#2",
          "ticks": 7152,
          "time": 22.128735000000002,
          "velocity": 0.8818897637795275
        },
        {
          "duration": 0.14851499999999973,
          "durationTicks": 48,
          "midi": 44,
          "name": "G#2",
          "ticks": 7248,
          "time": 22.425765000000002,
          "velocity": 0.8818897637795275
        },
        {
          "duration": 0.14851499999999973,
          "durationTicks": 48,
          "midi": 44,
          "name": "G#2",
          "ticks": 7344,
          "time": 22.722795,
          "velocity": 0.8818897637795275
        },
        {
          "duration": 0.14851499999999973,
          "durationTicks": 48,
          "midi": 44,
          "name": "G#2",
          "ticks": 7440,
          "time": 23.019825,
          "velocity": 0.8818897637795275
        },
        {
          "duration": 0.14851499999999973,
          "durationTicks": 48,
          "midi": 44,
          "name": "G#2",
          "ticks": 7536,
          "time": 23.316855,
          "velocity": 0.8818897637795275
        },
        {
          "duration": 0.14851499999999973,
          "durationTicks": 48,
          "midi": 44,
          "name": "G#2",
          "ticks": 7632,
          "time": 23.613885,
          "velocity": 0.8818897637795275
        },
        {
          "duration": 0.14851499999999973,
          "durationTicks": 48,
          "midi": 44,
          "name": "G#2",
          "ticks": 7728,
          "time": 23.910915000000003,
          "velocity": 0.8818897637795275
        },
        {
          "duration": 0.14851499999999973,
          "durationTicks": 48,
          "midi": 43,
          "name": "G2",
          "ticks": 7824,
          "time": 24.207945000000002,
          "velocity": 0.8818897637795275
        },
        {
          "duration": 0.14851499999999973,
          "durationTicks": 48,
          "midi": 43,
          "name": "G2",
          "ticks": 7920,
          "time": 24.504975,
          "velocity": 0.8818897637795275
        },
        {
          "duration": 0.14851499999999973,
          "durationTicks": 48,
          "midi": 43,
          "name": "G2",
          "ticks": 8016,
          "time": 24.802005,
          "velocity": 0.8818897637795275
        },
        {
          "duration": 0.14851499999999973,
          "durationTicks": 48,
          "midi": 48,
          "name": "C3",
          "ticks": 8112,
          "time": 25.099035,
          "velocity": 0.8818897637795275
        },
        {
          "duration": 0.14851499999999973,
          "durationTicks": 48,
          "midi": 48,
          "name": "C3",
          "ticks": 8208,
          "time": 25.396065,
          "velocity": 0.8818897637795275
        },
        {
          "duration": 0.14851499999999973,
          "durationTicks": 48,
          "midi": 48,
          "name": "C3",
          "ticks": 8304,
          "time": 25.693095000000003,
          "velocity": 0.8818897637795275
        },
        {
          "duration": 0.14851499999999973,
          "durationTicks": 48,
          "midi": 48,
          "name": "C3",
          "ticks": 8400,
          "time": 25.990125000000003,
          "velocity": 0.8818897637795275
        },
        {
          "duration": 0.14851499999999973,
          "durationTicks": 48,
          "midi": 48,
          "name": "C3",
          "ticks": 8496,
          "time": 26.287155000000002,
          "velocity": 0.8818897637795275
        },
        {
          "duration": 0.14851499999999973,
          "durationTicks": 48,
          "midi": 48,
          "name": "C3",
          "ticks": 8592,
          "time": 26.584185,
          "velocity": 0.8818897637795275
        },
        {
          "duration": 0.14851499999999973,
          "durationTicks": 48,
          "midi": 48,
          "name": "C3",
          "ticks": 8688,
          "time": 26.881215,
          "velocity": 0.8818897637795275
        },
        {
          "duration": 0.14851499999999973,
          "durationTicks": 48,
          "midi": 48,
          "name": "C3",
          "ticks": 8784,
          "time": 27.178245,
          "velocity": 0.8818897637795275
        },
        {
          "duration": 0.14851500000000328,
          "durationTicks": 48,
          "midi": 48,
          "name": "C3",
          "ticks": 8880,
          "time": 27.475275,
          "velocity": 0.8818897637795275
        },
        {
          "duration": 0.14851499999999973,
          "durationTicks": 48,
          "midi": 48,
          "name": "C3",
          "ticks": 8976,
          "time": 27.772305000000003,
          "velocity": 0.8818897637795275
        },
        {
          "duration": 0.14851499999999973,
          "durationTicks": 48,
          "midi": 48,
          "name": "C3",
          "ticks": 9072,
          "time": 28.069335000000002,
          "velocity": 0.8818897637795275
        },
        {
          "duration": 0.14851499999999973,
          "durationTicks": 48,
          "midi": 48,
          "name": "C3",
          "ticks": 9168,
          "time": 28.366365000000002,
          "velocity": 0.8818897637795275
        },
        {
          "duration": 0.14851499999999973,
          "durationTicks": 48,
          "midi": 48,
          "name": "C3",
          "ticks": 9264,
          "time": 28.663395,
          "velocity": 0.8818897637795275
        },
        {
          "duration": 0.14851499999999973,
          "durationTicks": 48,
          "midi": 48,
          "name": "C3",
          "ticks": 9360,
          "time": 28.960425,
          "velocity": 0.8818897637795275
        },
        {
          "duration": 0.14851499999999973,
          "durationTicks": 48,
          "midi": 48,
          "name": "C3",
          "ticks": 9456,
          "time": 29.257455,
          "velocity": 0.8818897637795275
        },
        {
          "duration": 0.14851499999999973,
          "durationTicks": 48,
          "midi": 48,
          "name": "C3",
          "ticks": 9552,
          "time": 29.554485000000003,
          "velocity": 0.8818897637795275
        },
        {
          "duration": 0.14851499999999973,
          "durationTicks": 48,
          "midi": 44,
          "name": "G#2",
          "ticks": 9648,
          "time": 29.851515000000003,
          "velocity": 0.8818897637795275
        },
        {
          "duration": 0.14851499999999973,
          "durationTicks": 48,
          "midi": 44,
          "name": "G#2",
          "ticks": 9744,
          "time": 30.148545000000002,
          "velocity": 0.8818897637795275
        },
        {
          "duration": 0.14851499999999973,
          "durationTicks": 48,
          "midi": 44,
          "name": "G#2",
          "ticks": 9840,
          "time": 30.445575,
          "velocity": 0.8818897637795275
        },
        {
          "duration": 0.14851499999999973,
          "durationTicks": 48,
          "midi": 44,
          "name": "G#2",
          "ticks": 9936,
          "time": 30.742605,
          "velocity": 0.8818897637795275
        },
        {
          "duration": 0.14851499999999973,
          "durationTicks": 48,
          "midi": 44,
          "name": "G#2",
          "ticks": 10032,
          "time": 31.039635,
          "velocity": 0.8818897637795275
        },
        {
          "duration": 0.14851500000000328,
          "durationTicks": 48,
          "midi": 44,
          "name": "G#2",
          "ticks": 10128,
          "time": 31.336665,
          "velocity": 0.8818897637795275
        },
        {
          "duration": 0.14851499999999973,
          "durationTicks": 48,
          "midi": 44,
          "name": "G#2",
          "ticks": 10224,
          "time": 31.633695000000003,
          "velocity": 0.8818897637795275
        },
        {
          "duration": 0.14851499999999618,
          "durationTicks": 48,
          "midi": 44,
          "name": "G#2",
          "ticks": 10320,
          "time": 31.930725000000002,
          "velocity": 0.8818897637795275
        },
        {
          "duration": 0.14851500000000328,
          "durationTicks": 48,
          "midi": 44,
          "name": "G#2",
          "ticks": 10416,
          "time": 32.227755,
          "velocity": 0.8818897637795275
        },
        {
          "duration": 0.14851500000000328,
          "durationTicks": 48,
          "midi": 44,
          "name": "G#2",
          "ticks": 10512,
          "time": 32.524785,
          "velocity": 0.8818897637795275
        },
        {
          "duration": 0.14851500000000328,
          "durationTicks": 48,
          "midi": 44,
          "name": "G#2",
          "ticks": 10608,
          "time": 32.821815,
          "velocity": 0.8818897637795275
        },
        {
          "duration": 0.14851500000000328,
          "durationTicks": 48,
          "midi": 44,
          "name": "G#2",
          "ticks": 10704,
          "time": 33.118845,
          "velocity": 0.8818897637795275
        },
        {
          "duration": 0.14851500000000328,
          "durationTicks": 48,
          "midi": 44,
          "name": "G#2",
          "ticks": 10800,
          "time": 33.415875,
          "velocity": 0.8818897637795275
        },
        {
          "duration": 0.14851500000000328,
          "durationTicks": 48,
          "midi": 43,
          "name": "G2",
          "ticks": 10896,
          "time": 33.712905,
          "velocity": 0.8818897637795275
        },
        {
          "duration": 0.14851500000000328,
          "durationTicks": 48,
          "midi": 43,
          "name": "G2",
          "ticks": 10992,
          "time": 34.009935,
          "velocity": 0.8818897637795275
        },
        {
          "duration": 0.14851499999999618,
          "durationTicks": 48,
          "midi": 43,
          "name": "G2",
          "ticks": 11088,
          "time": 34.306965000000005,
          "velocity": 0.8818897637795275
        },
        {
          "duration": 0.14851499999999618,
          "durationTicks": 48,
          "midi": 48,
          "name": "C3",
          "ticks": 11184,
          "time": 34.603995000000005,
          "velocity": 0.8818897637795275
        },
        {
          "duration": 0.14851499999999618,
          "durationTicks": 48,
          "midi": 48,
          "name": "C3",
          "ticks": 11280,
          "time": 34.901025000000004,
          "velocity": 0.8818897637795275
        },
        {
          "duration": 0.14851499999999618,
          "durationTicks": 48,
          "midi": 48,
          "name": "C3",
          "ticks": 11376,
          "time": 35.198055000000004,
          "velocity": 0.8818897637795275
        },
        {
          "duration": 0.14851499999999618,
          "durationTicks": 48,
          "midi": 48,
          "name": "C3",
          "ticks": 11472,
          "time": 35.495085,
          "velocity": 0.8818897637795275
        },
        {
          "duration": 0.14851499999999618,
          "durationTicks": 48,
          "midi": 48,
          "name": "C3",
          "ticks": 11568,
          "time": 35.792115,
          "velocity": 0.8818897637795275
        },
        {
          "duration": 0.14851500000000328,
          "durationTicks": 48,
          "midi": 48,
          "name": "C3",
          "ticks": 11664,
          "time": 36.089145,
          "velocity": 0.8818897637795275
        },
        {
          "duration": 0.14851500000000328,
          "durationTicks": 48,
          "midi": 48,
          "name": "C3",
          "ticks": 11760,
          "time": 36.386175,
          "velocity": 0.8818897637795275
        },
        {
          "duration": 0.14851500000000328,
          "durationTicks": 48,
          "midi": 48,
          "name": "C3",
          "ticks": 11856,
          "time": 36.683205,
          "velocity": 0.8818897637795275
        },
        {
          "duration": 0.29702999999999946,
          "durationTicks": 96,
          "midi": 50,
          "name": "D3",
          "ticks": 11904,
          "time": 36.831720000000004,
          "velocity": 0.8818897637795275
        },
        {
          "duration": 0.14851499999999618,
          "durationTicks": 48,
          "midi": 51,
          "name": "D#3",
          "ticks": 12000,
          "time": 37.128750000000004,
          "velocity": 0.8818897637795275
        },
        {
          "duration": 0.07425750000000164,
          "durationTicks": 24,
          "midi": 50,
          "name": "D3",
          "ticks": 12048,
          "time": 37.277265,
          "velocity": 0.8818897637795275
        },
        {
          "duration": 0.07425750000000164,
          "durationTicks": 24,
          "midi": 46,
          "name": "A#2",
          "ticks": 12144,
          "time": 37.574295,
          "velocity": 0.8818897637795275
        },
        {
          "duration": 0.14851500000000328,
          "durationTicks": 48,
          "midi": 41,
          "name": "F2",
          "ticks": 12240,
          "time": 37.871325,
          "velocity": 0.8818897637795275
        },
        {
          "duration": 0.14851499999999618,
          "durationTicks": 48,
          "midi": 48,
          "name": "C3",
          "ticks": 12336,
          "time": 38.168355000000005,
          "velocity": 0.8818897637795275
        },
        {
          "duration": 0.14851499999999618,
          "durationTicks": 48,
          "midi": 50,
          "name": "D3",
          "ticks": 12432,
          "time": 38.465385000000005,
          "velocity": 0.8818897637795275
        },
        {
          "duration": 0.14851499999999618,
          "durationTicks": 48,
          "midi": 51,
          "name": "D#3",
          "ticks": 12528,
          "time": 38.762415000000004,
          "velocity": 0.8818897637795275
        },
        {
          "duration": 0.14851499999999618,
          "durationTicks": 48,
          "midi": 46,
          "name": "A#2",
          "ticks": 12624,
          "time": 39.059445000000004,
          "velocity": 0.8818897637795275
        },
        {
          "duration": 0.29702999999999946,
          "durationTicks": 96,
          "midi": 53,
          "name": "F3",
          "ticks": 12672,
          "time": 39.20796,
          "velocity": 0.8818897637795275
        },
        {
          "duration": 0.29702999999999946,
          "durationTicks": 96,
          "midi": 55,
          "name": "G3",
          "ticks": 12816,
          "time": 39.653505,
          "velocity": 0.8818897637795275
        },
        {
          "duration": 0.29702999999999946,
          "durationTicks": 96,
          "midi": 48,
          "name": "C3",
          "ticks": 12960,
          "time": 40.099050000000005,
          "velocity": 0.8818897637795275
        },
        {
          "duration": 0.29702999999999946,
          "durationTicks": 96,
          "midi": 48,
          "name": "C3",
          "ticks": 13104,
          "time": 40.544595,
          "velocity": 0.8818897637795275
        },
        {
          "duration": 0.29702999999999946,
          "durationTicks": 96,
          "midi": 53,
          "name": "F3",
          "ticks": 13440,
          "time": 41.5842,
          "velocity": 0.8818897637795275
        },
        {
          "duration": 0.29702999999999946,
          "durationTicks": 96,
          "midi": 55,
          "name": "G3",
          "ticks": 13584,
          "time": 42.029745000000005,
          "velocity": 0.8818897637795275
        },
        {
          "duration": 0.29702999999999946,
          "durationTicks": 96,
          "midi": 48,
          "name": "C3",
          "ticks": 13728,
          "time": 42.47529,
          "velocity": 0.8818897637795275
        },
        {
          "duration": 0.29702999999999946,
          "durationTicks": 96,
          "midi": 48,
          "name": "C3",
          "ticks": 13872,
          "time": 42.920835000000004,
          "velocity": 0.8818897637795275
        },
        {
          "duration": 0.14851500000000328,
          "durationTicks": 48,
          "midi": 48,
          "name": "C3",
          "ticks": 14016,
          "time": 43.36638,
          "velocity": 0.8818897637795275
        },
        {
          "duration": 0.14851499999999618,
          "durationTicks": 48,
          "midi": 48,
          "name": "C3",
          "ticks": 14064,
          "time": 43.514895,
          "velocity": 0.8818897637795275
        },
        {
          "duration": 0.29702999999999946,
          "durationTicks": 96,
          "midi": 53,
          "name": "F3",
          "ticks": 14208,
          "time": 43.960440000000006,
          "velocity": 0.8818897637795275
        },
        {
          "duration": 0.29702999999999946,
          "durationTicks": 96,
          "midi": 55,
          "name": "G3",
          "ticks": 14352,
          "time": 44.405985,
          "velocity": 0.8818897637795275
        },
        {
          "duration": 0.29702999999999946,
          "durationTicks": 96,
          "midi": 48,
          "name": "C3",
          "ticks": 14496,
          "time": 44.851530000000004,
          "velocity": 0.8818897637795275
        },
        {
          "duration": 0.29702999999999946,
          "durationTicks": 96,
          "midi": 48,
          "name": "C3",
          "ticks": 14640,
          "time": 45.297075,
          "velocity": 0.8818897637795275
        },
        {
          "duration": 0.29702999999999946,
          "durationTicks": 96,
          "midi": 53,
          "name": "F3",
          "ticks": 14976,
          "time": 46.33668,
          "velocity": 0.8818897637795275
        },
        {
          "duration": 0.29702999999999946,
          "durationTicks": 96,
          "midi": 55,
          "name": "G3",
          "ticks": 15120,
          "time": 46.782225000000004,
          "velocity": 0.8818897637795275
        },
        {
          "duration": 0.29702999999999946,
          "durationTicks": 96,
          "midi": 48,
          "name": "C3",
          "ticks": 15264,
          "time": 47.22777,
          "velocity": 0.8818897637795275
        },
        {
          "duration": 0.29702999999999946,
          "durationTicks": 96,
          "midi": 50,
          "name": "D3",
          "ticks": 15408,
          "time": 47.673315,
          "velocity": 0.8818897637795275
        },
        {
          "duration": 0.14851499999999618,
          "durationTicks": 48,
          "midi": 50,
          "name": "D3",
          "ticks": 15552,
          "time": 48.118860000000005,
          "velocity": 0.7480314960629921
        },
        {
          "duration": 0.14851500000000328,
          "durationTicks": 48,
          "midi": 50,
          "name": "D3",
          "ticks": 15600,
          "time": 48.267375,
          "velocity": 0.7480314960629921
        },
        {
          "duration": 0.29702999999999946,
          "durationTicks": 96,
          "midi": 53,
          "name": "F3",
          "ticks": 15744,
          "time": 48.712920000000004,
          "velocity": 0.8818897637795275
        },
        {
          "duration": 0.29703000000000657,
          "durationTicks": 96,
          "midi": 55,
          "name": "G3",
          "ticks": 15888,
          "time": 49.158465,
          "velocity": 0.8818897637795275
        },
        {
          "duration": 0.29702999999999946,
          "durationTicks": 96,
          "midi": 48,
          "name": "C3",
          "ticks": 16032,
          "time": 49.60401,
          "velocity": 0.8818897637795275
        },
        {
          "duration": 0.29702999999999946,
          "durationTicks": 96,
          "midi": 48,
          "name": "C3",
          "ticks": 16176,
          "time": 50.049555000000005,
          "velocity": 0.8818897637795275
        },
        {
          "duration": 0.14851499999999618,
          "durationTicks": 48,
          "midi": 48,
          "name": "C3",
          "ticks": 16368,
          "time": 50.643615000000004,
          "velocity": 0.8818897637795275
        },
        {
          "duration": 0.14851499999999618,
          "durationTicks": 48,
          "midi": 48,
          "name": "C3",
          "ticks": 16464,
          "time": 50.940645,
          "velocity": 0.8818897637795275
        },
        {
          "duration": 0.29703000000000657,
          "durationTicks": 96,
          "midi": 53,
          "name": "F3",
          "ticks": 16512,
          "time": 51.08916,
          "velocity": 0.8818897637795275
        },
        {
          "duration": 0.29702999999999946,
          "durationTicks": 96,
          "midi": 55,
          "name": "G3",
          "ticks": 16656,
          "time": 51.534705,
          "velocity": 0.8818897637795275
        },
        {
          "duration": 0.29702999999999946,
          "durationTicks": 96,
          "midi": 48,
          "name": "C3",
          "ticks": 16800,
          "time": 51.980250000000005,
          "velocity": 0.8818897637795275
        },
        {
          "duration": 0.29702999999999946,
          "durationTicks": 96,
          "midi": 48,
          "name": "C3",
          "ticks": 16944,
          "time": 52.425795,
          "velocity": 0.8818897637795275
        },
        {
          "duration": 0.14851500000000328,
          "durationTicks": 48,
          "midi": 48,
          "name": "C3",
          "ticks": 17136,
          "time": 53.019855,
          "velocity": 0.8818897637795275
        },
        {
          "duration": 0.14851499999999618,
          "durationTicks": 48,
          "midi": 50,
          "name": "D3",
          "ticks": 17232,
          "time": 53.316885000000006,
          "velocity": 0.8818897637795275
        },
        {
          "duration": 0.29702999999999946,
          "durationTicks": 96,
          "midi": 54,
          "name": "F#3",
          "ticks": 17280,
          "time": 53.4654,
          "velocity": 0.8818897637795275
        },
        {
          "duration": 0.29702999999999946,
          "durationTicks": 96,
          "midi": 56,
          "name": "G#3",
          "ticks": 17424,
          "time": 53.910945000000005,
          "velocity": 0.8818897637795275
        },
        {
          "duration": 0.29702999999999946,
          "durationTicks": 96,
          "midi": 49,
          "name": "C#3",
          "ticks": 17568,
          "time": 54.35649,
          "velocity": 0.8818897637795275
        },
        {
          "duration": 0.29702999999999946,
          "durationTicks": 96,
          "midi": 49,
          "name": "C#3",
          "ticks": 17712,
          "time": 54.802035000000004,
          "velocity": 0.8818897637795275
        },
        {
          "duration": 0.14851500000000328,
          "durationTicks": 48,
          "midi": 49,
          "name": "C#3",
          "ticks": 17904,
          "time": 55.396095,
          "velocity": 0.8818897637795275
        },
        {
          "duration": 0.14851500000000328,
          "durationTicks": 48,
          "midi": 49,
          "name": "C#3",
          "ticks": 18000,
          "time": 55.693125,
          "velocity": 0.8818897637795275
        },
        {
          "duration": 0.29702999999999946,
          "durationTicks": 96,
          "midi": 54,
          "name": "F#3",
          "ticks": 18048,
          "time": 55.841640000000005,
          "velocity": 0.8818897637795275
        },
        {
          "duration": 0.29702999999999946,
          "durationTicks": 96,
          "midi": 56,
          "name": "G#3",
          "ticks": 18192,
          "time": 56.287185,
          "velocity": 0.8818897637795275
        },
        {
          "duration": 0.11138625000000246,
          "durationTicks": 36,
          "midi": 49,
          "name": "C#3",
          "ticks": 18336,
          "time": 56.732730000000004,
          "velocity": 0.8818897637795275
        },
        {
          "duration": 0.25990125000000575,
          "durationTicks": 84,
          "midi": 49,
          "name": "C#3",
          "ticks": 18384,
          "time": 56.881245,
          "velocity": 0.8818897637795275
        },
        {
          "duration": 0.11138624999999536,
          "durationTicks": 36,
          "midi": 49,
          "name": "C#3",
          "ticks": 18480,
          "time": 57.178275000000006,
          "velocity": 0.8818897637795275
        },
        {
          "duration": 0.11138625000000246,
          "durationTicks": 36,
          "midi": 49,
          "name": "C#3",
          "ticks": 18528,
          "time": 57.32679,
          "velocity": 0.8818897637795275
        },
        {
          "duration": 0.11138624999999536,
          "durationTicks": 36,
          "midi": 49,
          "name": "C#3",
          "ticks": 18576,
          "time": 57.475305000000006,
          "velocity": 0.8818897637795275
        },
        {
          "duration": 0.03712875000000082,
          "durationTicks": 12,
          "midi": 49,
          "name": "C#3",
          "ticks": 18624,
          "time": 57.62382,
          "velocity": 0.8818897637795275
        },
        {
          "duration": 0.03712875000000082,
          "durationTicks": 12,
          "midi": 49,
          "name": "C#3",
          "ticks": 18648,
          "time": 57.698077500000004,
          "velocity": 0.8818897637795275
        },
        {
          "duration": 0.14851499999999618,
          "durationTicks": 48,
          "midi": 49,
          "name": "C#3",
          "ticks": 18672,
          "time": 57.772335000000005,
          "velocity": 0.8818897637795275
        },
        {
          "duration": 0.5940599999999989,
          "durationTicks": 192,
          "midi": 45,
          "name": "A2",
          "ticks": 21888,
          "time": 67.72284,
          "velocity": 0.8818897637795275
        },
        {
          "duration": 0.5940599999999989,
          "durationTicks": 192,
          "midi": 48,
          "name": "C3",
          "ticks": 22080,
          "time": 68.3169,
          "velocity": 0.8818897637795275
        },
        {
          "duration": 0.5940599999999989,
          "durationTicks": 192,
          "midi": 49,
          "name": "C#3",
          "ticks": 22272,
          "time": 68.91096,
          "velocity": 0.8818897637795275
        },
        {
          "duration": 0.5940599999999989,
          "durationTicks": 192,
          "midi": 46,
          "name": "A#2",
          "ticks": 22464,
          "time": 69.50502,
          "velocity": 0.8818897637795275
        },
        {
          "duration": 0.5940599999999989,
          "durationTicks": 192,
          "midi": 45,
          "name": "A2",
          "ticks": 22656,
          "time": 70.09908,
          "velocity": 0.8818897637795275
        },
        {
          "duration": 0.5940599999999989,
          "durationTicks": 192,
          "midi": 48,
          "name": "C3",
          "ticks": 22848,
          "time": 70.69314,
          "velocity": 0.8818897637795275
        },
        {
          "duration": 1.188120000000012,
          "durationTicks": 384,
          "midi": 49,
          "name": "C#3",
          "ticks": 23040,
          "time": 71.2872,
          "velocity": 0.8818897637795275
        },
        {
          "duration": 0.5940599999999989,
          "durationTicks": 192,
          "midi": 45,
          "name": "A2",
          "ticks": 23424,
          "time": 72.47532000000001,
          "velocity": 0.8818897637795275
        },
        {
          "duration": 0.5940599999999989,
          "durationTicks": 192,
          "midi": 48,
          "name": "C3",
          "ticks": 23616,
          "time": 73.06938000000001,
          "velocity": 0.8818897637795275
        },
        {
          "duration": 0.5940599999999989,
          "durationTicks": 192,
          "midi": 49,
          "name": "C#3",
          "ticks": 23808,
          "time": 73.66344000000001,
          "velocity": 0.8818897637795275
        },
        {
          "duration": 0.5940599999999989,
          "durationTicks": 192,
          "midi": 46,
          "name": "A#2",
          "ticks": 24000,
          "time": 74.25750000000001,
          "velocity": 0.8818897637795275
        },
        {
          "duration": 0.5940599999999989,
          "durationTicks": 192,
          "midi": 45,
          "name": "A2",
          "ticks": 24192,
          "time": 74.85156,
          "velocity": 0.8818897637795275
        },
        {
          "duration": 0.5940599999999989,
          "durationTicks": 192,
          "midi": 48,
          "name": "C3",
          "ticks": 24384,
          "time": 75.44562,
          "velocity": 0.8818897637795275
        },
        {
          "duration": 0.14851499999998907,
          "durationTicks": 48,
          "midi": 54,
          "name": "F#3",
          "ticks": 24672,
          "time": 76.33671000000001,
          "velocity": 0.8818897637795275
        },
        {
          "duration": 0.14851500000000328,
          "durationTicks": 48,
          "midi": 52,
          "name": "E3",
          "ticks": 24768,
          "time": 76.63374,
          "velocity": 0.8818897637795275
        },
        {
          "duration": 0.14851499999998907,
          "durationTicks": 48,
          "midi": 51,
          "name": "D#3",
          "ticks": 24864,
          "time": 76.93077000000001,
          "velocity": 0.8818897637795275
        },
        {
          "duration": 0.14851500000000328,
          "durationTicks": 48,
          "midi": 45,
          "name": "A2",
          "ticks": 25008,
          "time": 77.376315,
          "velocity": 0.8818897637795275
        },
        {
          "duration": 0.14851500000000328,
          "durationTicks": 48,
          "midi": 45,
          "name": "A2",
          "ticks": 25104,
          "time": 77.673345,
          "velocity": 0.8818897637795275
        },
        {
          "duration": 0.14851500000000328,
          "durationTicks": 48,
          "midi": 48,
          "name": "C3",
          "ticks": 25200,
          "time": 77.970375,
          "velocity": 0.8818897637795275
        },
        {
          "duration": 0.14851499999998907,
          "durationTicks": 48,
          "midi": 48,
          "name": "C3",
          "ticks": 25296,
          "time": 78.26740500000001,
          "velocity": 0.8818897637795275
        },
        {
          "duration": 0.14851500000000328,
          "durationTicks": 48,
          "midi": 49,
          "name": "C#3",
          "ticks": 25392,
          "time": 78.564435,
          "velocity": 0.8818897637795275
        },
        {
          "duration": 0.14851499999998907,
          "durationTicks": 48,
          "midi": 49,
          "name": "C#3",
          "ticks": 25488,
          "time": 78.86146500000001,
          "velocity": 0.8818897637795275
        },
        {
          "duration": 0.14851500000000328,
          "durationTicks": 48,
          "midi": 46,
          "name": "A#2",
          "ticks": 25584,
          "time": 79.158495,
          "velocity": 0.8818897637795275
        },
        {
          "duration": 0.14851499999998907,
          "durationTicks": 48,
          "midi": 46,
          "name": "A#2",
          "ticks": 25680,
          "time": 79.45552500000001,
          "velocity": 0.8818897637795275
        },
        {
          "duration": 0.14851500000000328,
          "durationTicks": 48,
          "midi": 45,
          "name": "A2",
          "ticks": 25776,
          "time": 79.752555,
          "velocity": 0.8818897637795275
        },
        {
          "duration": 0.14851500000000328,
          "durationTicks": 48,
          "midi": 45,
          "name": "A2",
          "ticks": 25872,
          "time": 80.04958500000001,
          "velocity": 0.8818897637795275
        },
        {
          "duration": 0.14851500000000328,
          "durationTicks": 48,
          "midi": 48,
          "name": "C3",
          "ticks": 25968,
          "time": 80.346615,
          "velocity": 0.8818897637795275
        },
        {
          "duration": 0.14851500000000328,
          "durationTicks": 48,
          "midi": 48,
          "name": "C3",
          "ticks": 26064,
          "time": 80.643645,
          "velocity": 0.8818897637795275
        },
        {
          "duration": 0.14851500000000328,
          "durationTicks": 48,
          "midi": 49,
          "name": "C#3",
          "ticks": 26160,
          "time": 80.940675,
          "velocity": 0.8818897637795275
        },
        {
          "duration": 0.14851500000000328,
          "durationTicks": 48,
          "midi": 49,
          "name": "C#3",
          "ticks": 26256,
          "time": 81.237705,
          "velocity": 0.8818897637795275
        },
        {
          "duration": 0.14851500000000328,
          "durationTicks": 48,
          "midi": 49,
          "name": "C#3",
          "ticks": 26352,
          "time": 81.534735,
          "velocity": 0.8818897637795275
        },
        {
          "duration": 0.14851500000000328,
          "durationTicks": 48,
          "midi": 49,
          "name": "C#3",
          "ticks": 26448,
          "time": 81.831765,
          "velocity": 0.8818897637795275
        },
        {
          "duration": 0.14851499999998907,
          "durationTicks": 48,
          "midi": 45,
          "name": "A2",
          "ticks": 26544,
          "time": 82.12879500000001,
          "velocity": 0.8818897637795275
        },
        {
          "duration": 0.14851500000000328,
          "durationTicks": 48,
          "midi": 45,
          "name": "A2",
          "ticks": 26640,
          "time": 82.425825,
          "velocity": 0.8818897637795275
        },
        {
          "duration": 0.14851499999998907,
          "durationTicks": 48,
          "midi": 48,
          "name": "C3",
          "ticks": 26736,
          "time": 82.72285500000001,
          "velocity": 0.8818897637795275
        },
        {
          "duration": 0.14851500000000328,
          "durationTicks": 48,
          "midi": 48,
          "name": "C3",
          "ticks": 26832,
          "time": 83.019885,
          "velocity": 0.8818897637795275
        },
        {
          "duration": 0.14851499999998907,
          "durationTicks": 48,
          "midi": 49,
          "name": "C#3",
          "ticks": 26928,
          "time": 83.31691500000001,
          "velocity": 0.8818897637795275
        },
        {
          "duration": 0.14851500000000328,
          "durationTicks": 48,
          "midi": 49,
          "name": "C#3",
          "ticks": 27024,
          "time": 83.613945,
          "velocity": 0.8818897637795275
        },
        {
          "duration": 0.14851500000000328,
          "durationTicks": 48,
          "midi": 46,
          "name": "A#2",
          "ticks": 27120,
          "time": 83.91097500000001,
          "velocity": 0.8818897637795275
        },
        {
          "duration": 0.14851500000000328,
          "durationTicks": 48,
          "midi": 46,
          "name": "A#2",
          "ticks": 27216,
          "time": 84.208005,
          "velocity": 0.8818897637795275
        },
        {
          "duration": 0.14851500000000328,
          "durationTicks": 48,
          "midi": 45,
          "name": "A2",
          "ticks": 27312,
          "time": 84.505035,
          "velocity": 0.8818897637795275
        },
        {
          "duration": 0.14851500000000328,
          "durationTicks": 48,
          "midi": 45,
          "name": "A2",
          "ticks": 27408,
          "time": 84.802065,
          "velocity": 0.8818897637795275
        },
        {
          "duration": 0.14851500000000328,
          "durationTicks": 48,
          "midi": 48,
          "name": "C3",
          "ticks": 27504,
          "time": 85.099095,
          "velocity": 0.8818897637795275
        },
        {
          "duration": 0.14851500000000328,
          "durationTicks": 48,
          "midi": 48,
          "name": "C3",
          "ticks": 27600,
          "time": 85.396125,
          "velocity": 0.8818897637795275
        },
        {
          "duration": 0.14851500000000328,
          "durationTicks": 48,
          "midi": 49,
          "name": "C#3",
          "ticks": 27648,
          "time": 85.54464,
          "velocity": 0.8818897637795275
        },
        {
          "duration": 0.14851500000000328,
          "durationTicks": 48,
          "midi": 49,
          "name": "C#3",
          "ticks": 27720,
          "time": 85.7674125,
          "velocity": 0.8818897637795275
        },
        {
          "duration": 0.14851499999998907,
          "durationTicks": 48,
          "midi": 49,
          "name": "C#3",
          "ticks": 27792,
          "time": 85.99018500000001,
          "velocity": 0.8818897637795275
        },
        {
          "duration": 0.29703000000000657,
          "durationTicks": 96,
          "midi": 49,
          "name": "C#3",
          "ticks": 27840,
          "time": 86.1387,
          "velocity": 0.8818897637795275
        },
        {
          "duration": 0.14851500000000328,
          "durationTicks": 48,
          "midi": 45,
          "name": "A2",
          "ticks": 28080,
          "time": 86.881275,
          "velocity": 0.8818897637795275
        },
        {
          "duration": 0.14851499999998907,
          "durationTicks": 48,
          "midi": 45,
          "name": "A2",
          "ticks": 28176,
          "time": 87.17830500000001,
          "velocity": 0.8818897637795275
        },
        {
          "duration": 0.14851500000000328,
          "durationTicks": 48,
          "midi": 48,
          "name": "C3",
          "ticks": 28272,
          "time": 87.475335,
          "velocity": 0.8818897637795275
        },
        {
          "duration": 0.14851500000000328,
          "durationTicks": 48,
          "midi": 48,
          "name": "C3",
          "ticks": 28368,
          "time": 87.77236500000001,
          "velocity": 0.8818897637795275
        },
        {
          "duration": 0.14851500000000328,
          "durationTicks": 48,
          "midi": 49,
          "name": "C#3",
          "ticks": 28464,
          "time": 88.069395,
          "velocity": 0.8818897637795275
        },
        {
          "duration": 0.14851500000000328,
          "durationTicks": 48,
          "midi": 49,
          "name": "C#3",
          "ticks": 28560,
          "time": 88.366425,
          "velocity": 0.8818897637795275
        },
        {
          "duration": 0.14851500000000328,
          "durationTicks": 48,
          "midi": 46,
          "name": "A#2",
          "ticks": 28656,
          "time": 88.663455,
          "velocity": 0.8818897637795275
        },
        {
          "duration": 0.14851500000000328,
          "durationTicks": 48,
          "midi": 46,
          "name": "A#2",
          "ticks": 28752,
          "time": 88.960485,
          "velocity": 0.8818897637795275
        },
        {
          "duration": 0.14851500000000328,
          "durationTicks": 48,
          "midi": 45,
          "name": "A2",
          "ticks": 28848,
          "time": 89.257515,
          "velocity": 0.8818897637795275
        },
        {
          "duration": 0.14851500000000328,
          "durationTicks": 48,
          "midi": 45,
          "name": "A2",
          "ticks": 28944,
          "time": 89.554545,
          "velocity": 0.8818897637795275
        },
        {
          "duration": 0.14851499999998907,
          "durationTicks": 48,
          "midi": 48,
          "name": "C3",
          "ticks": 29040,
          "time": 89.85157500000001,
          "velocity": 0.8818897637795275
        },
        {
          "duration": 0.14851500000000328,
          "durationTicks": 48,
          "midi": 48,
          "name": "C3",
          "ticks": 29136,
          "time": 90.148605,
          "velocity": 0.8818897637795275
        },
        {
          "duration": 0.14851499999998907,
          "durationTicks": 48,
          "midi": 49,
          "name": "C#3",
          "ticks": 29232,
          "time": 90.44563500000001,
          "velocity": 0.8818897637795275
        },
        {
          "duration": 0.14851500000000328,
          "durationTicks": 48,
          "midi": 49,
          "name": "C#3",
          "ticks": 29328,
          "time": 90.742665,
          "velocity": 0.8818897637795275
        },
        {
          "duration": 0.14851499999998907,
          "durationTicks": 48,
          "midi": 49,
          "name": "C#3",
          "ticks": 29424,
          "time": 91.03969500000001,
          "velocity": 0.8818897637795275
        },
        {
          "duration": 0.14851500000000328,
          "durationTicks": 48,
          "midi": 49,
          "name": "C#3",
          "ticks": 29520,
          "time": 91.336725,
          "velocity": 0.8818897637795275
        },
        {
          "duration": 0.14851500000000328,
          "durationTicks": 48,
          "midi": 45,
          "name": "A2",
          "ticks": 29616,
          "time": 91.63375500000001,
          "velocity": 0.8818897637795275
        },
        {
          "duration": 0.14851500000000328,
          "durationTicks": 48,
          "midi": 45,
          "name": "A2",
          "ticks": 29712,
          "time": 91.930785,
          "velocity": 0.8818897637795275
        },
        {
          "duration": 0.14851500000000328,
          "durationTicks": 48,
          "midi": 48,
          "name": "C3",
          "ticks": 29808,
          "time": 92.227815,
          "velocity": 0.8818897637795275
        },
        {
          "duration": 0.14851500000000328,
          "durationTicks": 48,
          "midi": 48,
          "name": "C3",
          "ticks": 29904,
          "time": 92.524845,
          "velocity": 0.8818897637795275
        },
        {
          "duration": 0.14851500000000328,
          "durationTicks": 48,
          "midi": 49,
          "name": "C#3",
          "ticks": 30000,
          "time": 92.821875,
          "velocity": 0.8818897637795275
        },
        {
          "duration": 0.14851500000000328,
          "durationTicks": 48,
          "midi": 49,
          "name": "C#3",
          "ticks": 30096,
          "time": 93.118905,
          "velocity": 0.8818897637795275
        },
        {
          "duration": 0.14851500000000328,
          "durationTicks": 48,
          "midi": 45,
          "name": "A2",
          "ticks": 30384,
          "time": 94.009995,
          "velocity": 0.8818897637795275
        },
        {
          "duration": 0.14851499999998907,
          "durationTicks": 48,
          "midi": 45,
          "name": "A2",
          "ticks": 30480,
          "time": 94.30702500000001,
          "velocity": 0.8818897637795275
        },
        {
          "duration": 0.14851500000000328,
          "durationTicks": 48,
          "midi": 48,
          "name": "C3",
          "ticks": 30576,
          "time": 94.604055,
          "velocity": 0.8818897637795275
        },
        {
          "duration": 0.14851499999998907,
          "durationTicks": 48,
          "midi": 48,
          "name": "C3",
          "ticks": 30672,
          "time": 94.90108500000001,
          "velocity": 0.8818897637795275
        },
        {
          "duration": 0.14851500000000328,
          "durationTicks": 48,
          "midi": 49,
          "name": "C#3",
          "ticks": 30720,
          "time": 95.0496,
          "velocity": 0.8818897637795275
        },
        {
          "duration": 0.14851500000000328,
          "durationTicks": 48,
          "midi": 49,
          "name": "C#3",
          "ticks": 30792,
          "time": 95.2723725,
          "velocity": 0.8818897637795275
        },
        {
          "duration": 0.14851500000000328,
          "durationTicks": 48,
          "midi": 49,
          "name": "C#3",
          "ticks": 30864,
          "time": 95.49514500000001,
          "velocity": 0.8818897637795275
        },
        {
          "duration": 0.29702999999999236,
          "durationTicks": 96,
          "midi": 49,
          "name": "C#3",
          "ticks": 30912,
          "time": 95.64366000000001,
          "velocity": 0.8818897637795275
        },
        {
          "duration": 0.29702999999999236,
          "durationTicks": 96,
          "midi": 41,
          "name": "F2",
          "ticks": 31104,
          "time": 96.23772000000001,
          "velocity": 0.8818897637795275
        },
        {
          "duration": 0.14851500000000328,
          "durationTicks": 48,
          "midi": 43,
          "name": "G2",
          "ticks": 31248,
          "time": 96.683265,
          "velocity": 0.8818897637795275
        },
        {
          "duration": 0.14851500000000328,
          "durationTicks": 48,
          "midi": 43,
          "name": "G2",
          "ticks": 31296,
          "time": 96.83178000000001,
          "velocity": 0.8818897637795275
        },
        {
          "duration": 0.14851500000000328,
          "durationTicks": 48,
          "midi": 43,
          "name": "G2",
          "ticks": 31440,
          "time": 97.277325,
          "velocity": 0.8818897637795275
        },
        {
          "duration": 0.29702999999999236,
          "durationTicks": 96,
          "midi": 44,
          "name": "G#2",
          "ticks": 31536,
          "time": 97.57435500000001,
          "velocity": 0.8818897637795275
        },
        {
          "duration": 0.14851499999998907,
          "durationTicks": 48,
          "midi": 45,
          "name": "A2",
          "ticks": 31728,
          "time": 98.16841500000001,
          "velocity": 0.8818897637795275
        },
        {
          "duration": 0.14851500000000328,
          "durationTicks": 48,
          "midi": 45,
          "name": "A2",
          "ticks": 31824,
          "time": 98.465445,
          "velocity": 0.8818897637795275
        },
        {
          "duration": 0.29703000000000657,
          "durationTicks": 96,
          "midi": 41,
          "name": "F2",
          "ticks": 31872,
          "time": 98.61396,
          "velocity": 0.8818897637795275
        },
        {
          "duration": 0.14851500000000328,
          "durationTicks": 48,
          "midi": 43,
          "name": "G2",
          "ticks": 32016,
          "time": 99.059505,
          "velocity": 0.8818897637795275
        },
        {
          "duration": 0.14851500000000328,
          "durationTicks": 48,
          "midi": 43,
          "name": "G2",
          "ticks": 32064,
          "time": 99.20802,
          "velocity": 0.8818897637795275
        },
        {
          "duration": 0.14851500000000328,
          "durationTicks": 48,
          "midi": 43,
          "name": "G2",
          "ticks": 32208,
          "time": 99.653565,
          "velocity": 0.8818897637795275
        },
        {
          "duration": 0.29702999999999236,
          "durationTicks": 96,
          "midi": 44,
          "name": "G#2",
          "ticks": 32304,
          "time": 99.950595,
          "velocity": 0.8818897637795275
        },
        {
          "duration": 0.14851500000000328,
          "durationTicks": 48,
          "midi": 45,
          "name": "A2",
          "ticks": 32496,
          "time": 100.544655,
          "velocity": 0.8818897637795275
        },
        {
          "duration": 0.14851499999998907,
          "durationTicks": 48,
          "midi": 45,
          "name": "A2",
          "ticks": 32592,
          "time": 100.84168500000001,
          "velocity": 0.8818897637795275
        },
        {
          "duration": 0.29703000000000657,
          "durationTicks": 96,
          "midi": 41,
          "name": "F2",
          "ticks": 32640,
          "time": 100.9902,
          "velocity": 0.8818897637795275
        },
        {
          "duration": 0.14851499999998907,
          "durationTicks": 48,
          "midi": 43,
          "name": "G2",
          "ticks": 32784,
          "time": 101.43574500000001,
          "velocity": 0.8818897637795275
        },
        {
          "duration": 0.14851500000000328,
          "durationTicks": 48,
          "midi": 43,
          "name": "G2",
          "ticks": 32832,
          "time": 101.58426,
          "velocity": 0.8818897637795275
        },
        {
          "duration": 0.14851499999998907,
          "durationTicks": 48,
          "midi": 43,
          "name": "G2",
          "ticks": 32976,
          "time": 102.02980500000001,
          "velocity": 0.8818897637795275
        },
        {
          "duration": 0.29703000000000657,
          "durationTicks": 96,
          "midi": 44,
          "name": "G#2",
          "ticks": 33072,
          "time": 102.326835,
          "velocity": 0.8818897637795275
        },
        {
          "duration": 0.14851500000000328,
          "durationTicks": 48,
          "midi": 45,
          "name": "A2",
          "ticks": 33264,
          "time": 102.920895,
          "velocity": 0.8818897637795275
        },
        {
          "duration": 0.14851500000000328,
          "durationTicks": 48,
          "midi": 45,
          "name": "A2",
          "ticks": 33360,
          "time": 103.21792500000001,
          "velocity": 0.8818897637795275
        },
        {
          "duration": 0.29702999999999236,
          "durationTicks": 96,
          "midi": 41,
          "name": "F2",
          "ticks": 33408,
          "time": 103.36644000000001,
          "velocity": 0.8818897637795275
        },
        {
          "duration": 0.14851500000000328,
          "durationTicks": 48,
          "midi": 43,
          "name": "G2",
          "ticks": 33552,
          "time": 103.811985,
          "velocity": 0.8818897637795275
        },
        {
          "duration": 0.14851499999998907,
          "durationTicks": 48,
          "midi": 43,
          "name": "G2",
          "ticks": 33600,
          "time": 103.96050000000001,
          "velocity": 0.8818897637795275
        },
        {
          "duration": 0.14851500000000328,
          "durationTicks": 48,
          "midi": 43,
          "name": "G2",
          "ticks": 33744,
          "time": 104.406045,
          "velocity": 0.8818897637795275
        },
        {
          "duration": 0.14851500000000328,
          "durationTicks": 48,
          "midi": 50,
          "name": "D3",
          "ticks": 33888,
          "time": 104.85159,
          "velocity": 0.8818897637795275
        },
        {
          "duration": 0.14851500000000328,
          "durationTicks": 48,
          "midi": 48,
          "name": "C3",
          "ticks": 33984,
          "time": 105.14862000000001,
          "velocity": 0.8818897637795275
        },
        {
          "duration": 0.14851500000000328,
          "durationTicks": 48,
          "midi": 47,
          "name": "B2",
          "ticks": 34080,
          "time": 105.44565,
          "velocity": 0.8818897637795275
        },
        {
          "duration": 0.14851499999998907,
          "durationTicks": 48,
          "midi": 41,
          "name": "F2",
          "ticks": 34224,
          "time": 105.89119500000001,
          "velocity": 0.8818897637795275
        },
        {
          "duration": 0.14851500000000328,
          "durationTicks": 48,
          "midi": 41,
          "name": "F2",
          "ticks": 34320,
          "time": 106.188225,
          "velocity": 0.8818897637795275
        },
        {
          "duration": 0.14851500000000328,
          "durationTicks": 48,
          "midi": 43,
          "name": "G2",
          "ticks": 34416,
          "time": 106.48525500000001,
          "velocity": 0.8818897637795275
        },
        {
          "duration": 0.14851500000000328,
          "durationTicks": 48,
          "midi": 43,
          "name": "G2",
          "ticks": 34512,
          "time": 106.782285,
          "velocity": 0.8818897637795275
        },
        {
          "duration": 0.14851500000000328,
          "durationTicks": 48,
          "midi": 44,
          "name": "G#2",
          "ticks": 34608,
          "time": 107.07931500000001,
          "velocity": 0.8818897637795275
        },
        {
          "duration": 0.14851500000000328,
          "durationTicks": 48,
          "midi": 44,
          "name": "G#2",
          "ticks": 34704,
          "time": 107.376345,
          "velocity": 0.8818897637795275
        },
        {
          "duration": 0.14851500000000328,
          "durationTicks": 48,
          "midi": 45,
          "name": "A2",
          "ticks": 34800,
          "time": 107.67337500000001,
          "velocity": 0.8818897637795275
        },
        {
          "duration": 0.14851500000000328,
          "durationTicks": 48,
          "midi": 45,
          "name": "A2",
          "ticks": 34896,
          "time": 107.970405,
          "velocity": 0.8818897637795275
        },
        {
          "duration": 0.14851500000000328,
          "durationTicks": 48,
          "midi": 41,
          "name": "F2",
          "ticks": 34992,
          "time": 108.267435,
          "velocity": 0.8818897637795275
        },
        {
          "duration": 0.14851499999998907,
          "durationTicks": 48,
          "midi": 41,
          "name": "F2",
          "ticks": 35088,
          "time": 108.56446500000001,
          "velocity": 0.8818897637795275
        },
        {
          "duration": 0.14851500000000328,
          "durationTicks": 48,
          "midi": 43,
          "name": "G2",
          "ticks": 35184,
          "time": 108.861495,
          "velocity": 0.8818897637795275
        },
        {
          "duration": 0.14851499999998907,
          "durationTicks": 48,
          "midi": 43,
          "name": "G2",
          "ticks": 35280,
          "time": 109.15852500000001,
          "velocity": 0.8818897637795275
        },
        {
          "duration": 0.07425750000000164,
          "durationTicks": 24,
          "midi": 44,
          "name": "G#2",
          "ticks": 35328,
          "time": 109.30704,
          "velocity": 0.8818897637795275
        },
        {
          "duration": 0.07425750000000164,
          "durationTicks": 24,
          "midi": 44,
          "name": "G#2",
          "ticks": 35360,
          "time": 109.40605,
          "velocity": 0.8818897637795275
        },
        {
          "duration": 0.07425750000000164,
          "durationTicks": 24,
          "midi": 44,
          "name": "G#2",
          "ticks": 35392,
          "time": 109.50506000000001,
          "velocity": 0.8818897637795275
        },
        {
          "duration": 0.07425750000000164,
          "durationTicks": 24,
          "midi": 44,
          "name": "G#2",
          "ticks": 35424,
          "time": 109.60407000000001,
          "velocity": 0.8818897637795275
        },
        {
          "duration": 0.07425750000000164,
          "durationTicks": 24,
          "midi": 44,
          "name": "G#2",
          "ticks": 35456,
          "time": 109.70308,
          "velocity": 0.8818897637795275
        },
        {
          "duration": 0.07425750000000164,
          "durationTicks": 24,
          "midi": 44,
          "name": "G#2",
          "ticks": 35488,
          "time": 109.80209,
          "velocity": 0.8818897637795275
        },
        {
          "duration": 0.07425750000000164,
          "durationTicks": 24,
          "midi": 45,
          "name": "A2",
          "ticks": 35520,
          "time": 109.9011,
          "velocity": 0.8818897637795275
        },
        {
          "duration": 0.07425749999998743,
          "durationTicks": 24,
          "midi": 45,
          "name": "A2",
          "ticks": 35552,
          "time": 110.00011,
          "velocity": 0.8818897637795275
        },
        {
          "duration": 0.07425750000000164,
          "durationTicks": 24,
          "midi": 45,
          "name": "A2",
          "ticks": 35584,
          "time": 110.09912000000001,
          "velocity": 0.8818897637795275
        },
        {
          "duration": 0.07425750000000164,
          "durationTicks": 24,
          "midi": 45,
          "name": "A2",
          "ticks": 35616,
          "time": 110.19813,
          "velocity": 0.8818897637795275
        },
        {
          "duration": 0.07425750000000164,
          "durationTicks": 24,
          "midi": 45,
          "name": "A2",
          "ticks": 35648,
          "time": 110.29714,
          "velocity": 0.8818897637795275
        },
        {
          "duration": 0.07425750000000164,
          "durationTicks": 24,
          "midi": 45,
          "name": "A2",
          "ticks": 35680,
          "time": 110.39615,
          "velocity": 0.8818897637795275
        },
        {
          "duration": 0.14851500000000328,
          "durationTicks": 48,
          "midi": 41,
          "name": "F2",
          "ticks": 35760,
          "time": 110.643675,
          "velocity": 0.8818897637795275
        },
        {
          "duration": 0.14851500000000328,
          "durationTicks": 48,
          "midi": 41,
          "name": "F2",
          "ticks": 35856,
          "time": 110.94070500000001,
          "velocity": 0.8818897637795275
        },
        {
          "duration": 0.14851500000000328,
          "durationTicks": 48,
          "midi": 43,
          "name": "G2",
          "ticks": 35952,
          "time": 111.237735,
          "velocity": 0.8818897637795275
        },
        {
          "duration": 0.14851500000000328,
          "durationTicks": 48,
          "midi": 43,
          "name": "G2",
          "ticks": 36048,
          "time": 111.53476500000001,
          "velocity": 0.8818897637795275
        },
        {
          "duration": 0.14851500000000328,
          "durationTicks": 48,
          "midi": 44,
          "name": "G#2",
          "ticks": 36144,
          "time": 111.831795,
          "velocity": 0.8818897637795275
        },
        {
          "duration": 0.14851500000000328,
          "durationTicks": 48,
          "midi": 44,
          "name": "G#2",
          "ticks": 36240,
          "time": 112.128825,
          "velocity": 0.8818897637795275
        },
        {
          "duration": 0.14851499999998907,
          "durationTicks": 48,
          "midi": 45,
          "name": "A2",
          "ticks": 36336,
          "time": 112.42585500000001,
          "velocity": 0.8818897637795275
        },
        {
          "duration": 0.14851500000000328,
          "durationTicks": 48,
          "midi": 45,
          "name": "A2",
          "ticks": 36432,
          "time": 112.722885,
          "velocity": 0.8818897637795275
        },
        {
          "duration": 0.14851499999998907,
          "durationTicks": 48,
          "midi": 41,
          "name": "F2",
          "ticks": 36528,
          "time": 113.01991500000001,
          "velocity": 0.8818897637795275
        },
        {
          "duration": 0.14851500000000328,
          "durationTicks": 48,
          "midi": 41,
          "name": "F2",
          "ticks": 36624,
          "time": 113.316945,
          "velocity": 0.8818897637795275
        },
        {
          "duration": 0.14851499999998907,
          "durationTicks": 48,
          "midi": 43,
          "name": "G2",
          "ticks": 36720,
          "time": 113.61397500000001,
          "velocity": 0.8818897637795275
        },
        {
          "duration": 0.14851500000000328,
          "durationTicks": 48,
          "midi": 43,
          "name": "G2",
          "ticks": 36816,
          "time": 113.911005,
          "velocity": 0.8818897637795275
        },
        {
          "duration": 1.1881199999999978,
          "durationTicks": 384,
          "midi": 45,
          "name": "A2",
          "ticks": 36864,
          "time": 114.05952,
          "velocity": 0.8818897637795275
        },
        {
          "duration": 0.14851500000000328,
          "durationTicks": 48,
          "midi": 50,
          "name": "D3",
          "ticks": 37248,
          "time": 115.24764,
          "velocity": 0.8818897637795275
        },
        {
          "duration": 0.14851500000000328,
          "durationTicks": 48,
          "midi": 52,
          "name": "E3",
          "ticks": 37392,
          "time": 115.693185,
          "velocity": 0.8818897637795275
        },
        {
          "duration": 0.14851500000000328,
          "durationTicks": 48,
          "midi": 45,
          "name": "A2",
          "ticks": 37536,
          "time": 116.13873000000001,
          "velocity": 0.8818897637795275
        },
        {
          "duration": 0.14851500000000328,
          "durationTicks": 48,
          "midi": 50,
          "name": "D3",
          "ticks": 38016,
          "time": 117.62388,
          "velocity": 0.8818897637795275
        },
        {
          "duration": 0.14851500000000328,
          "durationTicks": 48,
          "midi": 52,
          "name": "E3",
          "ticks": 38160,
          "time": 118.06942500000001,
          "velocity": 0.8818897637795275
        },
        {
          "duration": 0.14851500000000328,
          "durationTicks": 48,
          "midi": 55,
          "name": "G3",
          "ticks": 38304,
          "time": 118.51497,
          "velocity": 0.8818897637795275
        },
        {
          "duration": 0.14851500000000328,
          "durationTicks": 48,
          "midi": 50,
          "name": "D3",
          "ticks": 38784,
          "time": 120.00012000000001,
          "velocity": 0.8818897637795275
        },
        {
          "duration": 0.14851500000000328,
          "durationTicks": 48,
          "midi": 52,
          "name": "E3",
          "ticks": 38928,
          "time": 120.445665,
          "velocity": 0.8818897637795275
        },
        {
          "duration": 0.14851500000000328,
          "durationTicks": 48,
          "midi": 45,
          "name": "A2",
          "ticks": 39072,
          "time": 120.89121,
          "velocity": 0.8818897637795275
        },
        {
          "duration": 0.14851500000000328,
          "durationTicks": 48,
          "midi": 50,
          "name": "D3",
          "ticks": 39552,
          "time": 122.37636,
          "velocity": 0.8818897637795275
        },
        {
          "duration": 0.14851500000000328,
          "durationTicks": 48,
          "midi": 52,
          "name": "E3",
          "ticks": 39696,
          "time": 122.821905,
          "velocity": 0.8818897637795275
        },
        {
          "duration": 0.14851499999998907,
          "durationTicks": 48,
          "midi": 45,
          "name": "A2",
          "ticks": 39840,
          "time": 123.26745000000001,
          "velocity": 0.8818897637795275
        }
      ],
      "endOfTrackTicks": 39938
    },
    {
      "channel": 7,
      "controlChanges": {
        "6": [
          {
            "number": 6,
            "ticks": 0,
            "time": 0,
            "value": 0.09448818897637795
          },
          {
            "number": 6,
            "ticks": 0,
            "time": 0,
            "value": 0.09448818897637795
          },
          {
            "number": 6,
            "ticks": 0,
            "time": 0,
            "value": 0.09448818897637795
          },
          {
            "number": 6,
            "ticks": 39936,
            "time": 123.56448,
            "value": 0.09448818897637795
          },
          {
            "number": 6,
            "ticks": 39938,
            "time": 123.570668125,
            "value": 0.09448818897637795
          }
        ],
        "7": [
          {
            "number": 7,
            "ticks": 0,
            "time": 0,
            "value": 0.7874015748031497
          },
          {
            "number": 7,
            "ticks": 0,
            "time": 0,
            "value": 0.7874015748031497
          },
          {
            "number": 7,
            "ticks": 0,
            "time": 0,
            "value": 0.7874015748031497
          },
          {
            "number": 7,
            "ticks": 0,
            "time": 0,
            "value": 0.7874015748031497
          },
          {
            "number": 7,
            "ticks": 39936,
            "time": 123.56448,
            "value": 0.7874015748031497
          },
          {
            "number": 7,
            "ticks": 39938,
            "time": 123.570668125,
            "value": 0.7874015748031497
          }
        ],
        "10": [
          {
            "number": 10,
            "ticks": 0,
            "time": 0,
            "value": 0.5039370078740157
          },
          {
            "number": 10,
            "ticks": 0,
            "time": 0,
            "value": 0.5039370078740157
          },
          {
            "number": 10,
            "ticks": 0,
            "time": 0,
            "value": 0.5039370078740157
          },
          {
            "number": 10,
            "ticks": 0,
            "time": 0,
            "value": 0.5039370078740157
          },
          {
            "number": 10,
            "ticks": 39936,
            "time": 123.56448,
            "value": 0.5039370078740157
          },
          {
            "number": 10,
            "ticks": 39938,
            "time": 123.570668125,
            "value": 0.5039370078740157
          }
        ],
        "100": [
          {
            "number": 100,
            "ticks": 0,
            "time": 0,
            "value": 0
          },
          {
            "number": 100,
            "ticks": 0,
            "time": 0,
            "value": 0
          },
          {
            "number": 100,
            "ticks": 0,
            "time": 0,
            "value": 0
          },
          {
            "number": 100,
            "ticks": 39936,
            "time": 123.56448,
            "value": 0
          },
          {
            "number": 100,
            "ticks": 39938,
            "time": 123.570668125,
            "value": 0
          }
        ],
        "101": [
          {
            "number": 101,
            "ticks": 0,
            "time": 0,
            "value": 0
          },
          {
            "number": 101,
            "ticks": 0,
            "time": 0,
            "value": 0
          },
          {
            "number": 101,
            "ticks": 0,
            "time": 0,
            "value": 0
          },
          {
            "number": 101,
            "ticks": 39936,
            "time": 123.56448,
            "value": 0
          },
          {
            "number": 101,
            "ticks": 39938,
            "time": 123.570668125,
            "value": 0
          }
        ]
      },
      "pitchBends": [
        {
          "ticks": 0,
          "time": 0,
          "value": 0
        },
        {
          "ticks": 0,
          "time": 0,
          "value": 0
        },
        {
          "ticks": 0,
          "time": 0,
          "value": 0
        },
        {
          "ticks": 0,
          "time": 0,
          "value": 0
        },
        {
          "ticks": 39936,
          "time": 123.56448,
          "value": 0
        },
        {
          "ticks": 39938,
          "time": 123.570668125,
          "value": 0
        }
      ],
      "instrument": {
        "family": "piano",
        "number": 0,
        "name": "acoustic grand piano"
      },
      "name": "Drum",
      "notes": [
        {
          "duration": 0.07425749999999998,
          "durationTicks": 24,
          "midi": 44,
          "name": "G#2",
          "ticks": 288,
          "time": 0.89109,
          "velocity": 0.8976377952755905
        },
        {
          "duration": 0.07425750000000009,
          "durationTicks": 24,
          "midi": 32,
          "name": "G#1",
          "ticks": 312,
          "time": 0.9653475,
          "velocity": 0.8976377952755905
        },
        {
          "duration": 0.07425749999999987,
          "durationTicks": 24,
          "midi": 44,
          "name": "G#2",
          "ticks": 336,
          "time": 1.0396050000000001,
          "velocity": 0.8976377952755905
        },
        {
          "duration": 0.07425750000000009,
          "durationTicks": 24,
          "midi": 32,
          "name": "G#1",
          "ticks": 360,
          "time": 1.1138625,
          "velocity": 0.8976377952755905
        },
        {
          "duration": 0.14851499999999995,
          "durationTicks": 48,
          "midi": 37,
          "name": "C#2",
          "ticks": 384,
          "time": 1.18812,
          "velocity": 0.8976377952755905
        },
        {
          "duration": 0.037128750000000155,
          "durationTicks": 12,
          "midi": 37,
          "name": "C#2",
          "ticks": 432,
          "time": 1.336635,
          "velocity": 0.8976377952755905
        },
        {
          "duration": 0.03712874999999993,
          "durationTicks": 12,
          "midi": 37,
          "name": "C#2",
          "ticks": 456,
          "time": 1.4108925,
          "velocity": 0.8976377952755905
        },
        {
          "duration": 0.037128750000000155,
          "durationTicks": 12,
          "midi": 37,
          "name": "C#2",
          "ticks": 480,
          "time": 1.48515,
          "velocity": 0.8976377952755905
        },
        {
          "duration": 0.14851499999999995,
          "durationTicks": 48,
          "midi": 39,
          "name": "D#2",
          "ticks": 528,
          "time": 1.6336650000000001,
          "velocity": 0.8976377952755905
        },
        {
          "duration": 0.03712874999999993,
          "durationTicks": 12,
          "midi": 39,
          "name": "D#2",
          "ticks": 576,
          "time": 1.78218,
          "velocity": 0.8976377952755905
        },
        {
          "duration": 0.03712874999999993,
          "durationTicks": 12,
          "midi": 39,
          "name": "D#2",
          "ticks": 600,
          "time": 1.8564375000000002,
          "velocity": 0.8976377952755905
        },
        {
          "duration": 0.037128750000000155,
          "durationTicks": 12,
          "midi": 39,
          "name": "D#2",
          "ticks": 624,
          "time": 1.930695,
          "velocity": 0.8976377952755905
        },
        {
          "duration": 0.14851499999999973,
          "durationTicks": 48,
          "midi": 32,
          "name": "G#1",
          "ticks": 672,
          "time": 2.0792100000000002,
          "velocity": 0.8976377952755905
        },
        {
          "duration": 0.07425749999999987,
          "durationTicks": 24,
          "midi": 44,
          "name": "G#2",
          "ticks": 1056,
          "time": 3.2673300000000003,
          "velocity": 0.8976377952755905
        },
        {
          "duration": 0.07425749999999987,
          "durationTicks": 24,
          "midi": 32,
          "name": "G#1",
          "ticks": 1080,
          "time": 3.3415875,
          "velocity": 0.8976377952755905
        },
        {
          "duration": 0.07425750000000031,
          "durationTicks": 24,
          "midi": 44,
          "name": "G#2",
          "ticks": 1104,
          "time": 3.415845,
          "velocity": 0.8976377952755905
        },
        {
          "duration": 0.07425749999999987,
          "durationTicks": 24,
          "midi": 32,
          "name": "G#1",
          "ticks": 1128,
          "time": 3.4901025000000003,
          "velocity": 0.8976377952755905
        },
        {
          "duration": 0.14851500000000017,
          "durationTicks": 48,
          "midi": 37,
          "name": "C#2",
          "ticks": 1152,
          "time": 3.56436,
          "velocity": 0.8976377952755905
        },
        {
          "duration": 0.03712874999999993,
          "durationTicks": 12,
          "midi": 37,
          "name": "C#2",
          "ticks": 1200,
          "time": 3.7128750000000004,
          "velocity": 0.8976377952755905
        },
        {
          "duration": 0.03712874999999993,
          "durationTicks": 12,
          "midi": 37,
          "name": "C#2",
          "ticks": 1224,
          "time": 3.7871325000000002,
          "velocity": 0.8976377952755905
        },
        {
          "duration": 0.03712874999999993,
          "durationTicks": 12,
          "midi": 37,
          "name": "C#2",
          "ticks": 1248,
          "time": 3.86139,
          "velocity": 0.8976377952755905
        },
        {
          "duration": 0.14851500000000062,
          "durationTicks": 48,
          "midi": 39,
          "name": "D#2",
          "ticks": 1296,
          "time": 4.009905,
          "velocity": 0.8976377952755905
        },
        {
          "duration": 0.03712874999999993,
          "durationTicks": 12,
          "midi": 39,
          "name": "D#2",
          "ticks": 1344,
          "time": 4.1584200000000004,
          "velocity": 0.8976377952755905
        },
        {
          "duration": 0.03712874999999993,
          "durationTicks": 12,
          "midi": 39,
          "name": "D#2",
          "ticks": 1368,
          "time": 4.2326775,
          "velocity": 0.8976377952755905
        },
        {
          "duration": 0.03712874999999993,
          "durationTicks": 12,
          "midi": 39,
          "name": "D#2",
          "ticks": 1392,
          "time": 4.306935,
          "velocity": 0.8976377952755905
        },
        {
          "duration": 0.14851500000000062,
          "durationTicks": 48,
          "midi": 42,
          "name": "F#2",
          "ticks": 1440,
          "time": 4.45545,
          "velocity": 0.8976377952755905
        },
        {
          "duration": 0.07425749999999987,
          "durationTicks": 24,
          "midi": 44,
          "name": "G#2",
          "ticks": 1824,
          "time": 5.64357,
          "velocity": 0.8976377952755905
        },
        {
          "duration": 0.07425749999999987,
          "durationTicks": 24,
          "midi": 32,
          "name": "G#1",
          "ticks": 1848,
          "time": 5.7178275,
          "velocity": 0.8976377952755905
        },
        {
          "duration": 0.07425749999999987,
          "durationTicks": 24,
          "midi": 44,
          "name": "G#2",
          "ticks": 1872,
          "time": 5.792085,
          "velocity": 0.8976377952755905
        },
        {
          "duration": 0.07425749999999987,
          "durationTicks": 24,
          "midi": 32,
          "name": "G#1",
          "ticks": 1896,
          "time": 5.8663425,
          "velocity": 0.8976377952755905
        },
        {
          "duration": 0.14851500000000062,
          "durationTicks": 48,
          "midi": 37,
          "name": "C#2",
          "ticks": 1920,
          "time": 5.9406,
          "velocity": 0.8976377952755905
        },
        {
          "duration": 0.03712874999999993,
          "durationTicks": 12,
          "midi": 37,
          "name": "C#2",
          "ticks": 1968,
          "time": 6.0891150000000005,
          "velocity": 0.8976377952755905
        },
        {
          "duration": 0.03712874999999993,
          "durationTicks": 12,
          "midi": 37,
          "name": "C#2",
          "ticks": 1992,
          "time": 6.1633725,
          "velocity": 0.8976377952755905
        },
        {
          "duration": 0.03712874999999993,
          "durationTicks": 12,
          "midi": 37,
          "name": "C#2",
          "ticks": 2016,
          "time": 6.23763,
          "velocity": 0.8976377952755905
        },
        {
          "duration": 0.14851500000000062,
          "durationTicks": 48,
          "midi": 39,
          "name": "D#2",
          "ticks": 2064,
          "time": 6.386145,
          "velocity": 0.8976377952755905
        },
        {
          "duration": 0.03712874999999993,
          "durationTicks": 12,
          "midi": 39,
          "name": "D#2",
          "ticks": 2112,
          "time": 6.534660000000001,
          "velocity": 0.8976377952755905
        },
        {
          "duration": 0.03712874999999993,
          "durationTicks": 12,
          "midi": 39,
          "name": "D#2",
          "ticks": 2136,
          "time": 6.6089175000000004,
          "velocity": 0.8976377952755905
        },
        {
          "duration": 0.03712874999999993,
          "durationTicks": 12,
          "midi": 39,
          "name": "D#2",
          "ticks": 2160,
          "time": 6.683175,
          "velocity": 0.8976377952755905
        },
        {
          "duration": 0.14851500000000062,
          "durationTicks": 48,
          "midi": 32,
          "name": "G#1",
          "ticks": 2208,
          "time": 6.83169,
          "velocity": 0.8976377952755905
        },
        {
          "duration": 0.07425750000000164,
          "durationTicks": 24,
          "midi": 44,
          "name": "G#2",
          "ticks": 2592,
          "time": 8.01981,
          "velocity": 0.8976377952755905
        },
        {
          "duration": 0.07425749999999987,
          "durationTicks": 24,
          "midi": 32,
          "name": "G#1",
          "ticks": 2616,
          "time": 8.094067500000001,
          "velocity": 0.8976377952755905
        },
        {
          "duration": 0.07425749999999987,
          "durationTicks": 24,
          "midi": 44,
          "name": "G#2",
          "ticks": 2640,
          "time": 8.168325000000001,
          "velocity": 0.8976377952755905
        },
        {
          "duration": 0.07425749999999987,
          "durationTicks": 24,
          "midi": 32,
          "name": "G#1",
          "ticks": 2664,
          "time": 8.242582500000001,
          "velocity": 0.8976377952755905
        },
        {
          "duration": 0.14851499999999973,
          "durationTicks": 48,
          "midi": 37,
          "name": "C#2",
          "ticks": 2688,
          "time": 8.316840000000001,
          "velocity": 0.8976377952755905
        },
        {
          "duration": 0.037128749999999044,
          "durationTicks": 12,
          "midi": 37,
          "name": "C#2",
          "ticks": 2736,
          "time": 8.465355,
          "velocity": 0.8976377952755905
        },
        {
          "duration": 0.03712875000000082,
          "durationTicks": 12,
          "midi": 37,
          "name": "C#2",
          "ticks": 2760,
          "time": 8.5396125,
          "velocity": 0.8976377952755905
        },
        {
          "duration": 0.03712875000000082,
          "durationTicks": 12,
          "midi": 37,
          "name": "C#2",
          "ticks": 2784,
          "time": 8.61387,
          "velocity": 0.8976377952755905
        },
        {
          "duration": 0.14851499999999973,
          "durationTicks": 48,
          "midi": 39,
          "name": "D#2",
          "ticks": 2832,
          "time": 8.762385,
          "velocity": 0.8976377952755905
        },
        {
          "duration": 0.03712875000000082,
          "durationTicks": 12,
          "midi": 39,
          "name": "D#2",
          "ticks": 2880,
          "time": 8.9109,
          "velocity": 0.8976377952755905
        },
        {
          "duration": 0.03712875000000082,
          "durationTicks": 12,
          "midi": 39,
          "name": "D#2",
          "ticks": 2904,
          "time": 8.9851575,
          "velocity": 0.8976377952755905
        },
        {
          "duration": 0.037128749999999044,
          "durationTicks": 12,
          "midi": 39,
          "name": "D#2",
          "ticks": 2928,
          "time": 9.059415000000001,
          "velocity": 0.8976377952755905
        },
        {
          "duration": 0.42079249999999924,
          "durationTicks": 136,
          "midi": 32,
          "name": "G#1",
          "ticks": 2976,
          "time": 9.207930000000001,
          "velocity": 0.8976377952755905
        },
        {
          "duration": 0.44554500000000097,
          "durationTicks": 144,
          "midi": 28,
          "name": "E1",
          "ticks": 3456,
          "time": 10.69308,
          "velocity": 0.8976377952755905
        },
        {
          "duration": 0.7425749999999987,
          "durationTicks": 240,
          "midi": 30,
          "name": "F#1",
          "ticks": 3600,
          "time": 11.138625000000001,
          "velocity": 0.8976377952755905
        },
        {
          "duration": 0.44554500000000097,
          "durationTicks": 144,
          "midi": 31,
          "name": "G1",
          "ticks": 3840,
          "time": 11.8812,
          "velocity": 0.8976377952755905
        },
        {
          "duration": 0.7425750000000004,
          "durationTicks": 240,
          "midi": 32,
          "name": "G#1",
          "ticks": 3984,
          "time": 12.326745,
          "velocity": 0.8976377952755905
        },
        {
          "duration": 0.4455449999999992,
          "durationTicks": 144,
          "midi": 28,
          "name": "E1",
          "ticks": 4224,
          "time": 13.069320000000001,
          "velocity": 0.8976377952755905
        },
        {
          "duration": 0.7425750000000004,
          "durationTicks": 240,
          "midi": 30,
          "name": "F#1",
          "ticks": 4368,
          "time": 13.514865,
          "velocity": 0.8976377952755905
        },
        {
          "duration": 0.11138625000000069,
          "durationTicks": 36,
          "midi": 31,
          "name": "G1",
          "ticks": 4608,
          "time": 14.25744,
          "velocity": 0.8976377952755905
        },
        {
          "duration": 0.11138625000000069,
          "durationTicks": 36,
          "midi": 31,
          "name": "G1",
          "ticks": 4656,
          "time": 14.405955,
          "velocity": 0.8976377952755905
        },
        {
          "duration": 0.7425750000000004,
          "durationTicks": 240,
          "midi": 32,
          "name": "G#1",
          "ticks": 4752,
          "time": 14.702985,
          "velocity": 0.8976377952755905
        },
        {
          "duration": 0.44554500000000097,
          "durationTicks": 144,
          "midi": 28,
          "name": "E1",
          "ticks": 4992,
          "time": 15.44556,
          "velocity": 0.8976377952755905
        },
        {
          "duration": 0.7425750000000004,
          "durationTicks": 240,
          "midi": 30,
          "name": "F#1",
          "ticks": 5136,
          "time": 15.891105000000001,
          "velocity": 0.8976377952755905
        },
        {
          "duration": 0.4455449999999992,
          "durationTicks": 144,
          "midi": 31,
          "name": "G1",
          "ticks": 5376,
          "time": 16.633680000000002,
          "velocity": 0.8976377952755905
        },
        {
          "duration": 0.7425749999999987,
          "durationTicks": 240,
          "midi": 32,
          "name": "G#1",
          "ticks": 5520,
          "time": 17.079225,
          "velocity": 0.8976377952755905
        },
        {
          "duration": 0.297030000000003,
          "durationTicks": 96,
          "midi": 28,
          "name": "E1",
          "ticks": 5760,
          "time": 17.8218,
          "velocity": 0.8976377952755905
        },
        {
          "duration": 0.14851499999999973,
          "durationTicks": 48,
          "midi": 31,
          "name": "G1",
          "ticks": 6048,
          "time": 18.71289,
          "velocity": 0.8976377952755905
        },
        {
          "duration": 0.2722775000000013,
          "durationTicks": 88,
          "midi": 32,
          "name": "G#1",
          "ticks": 6096,
          "time": 18.861405,
          "velocity": 0.8976377952755905
        },
        {
          "duration": 0.04950500000000346,
          "durationTicks": 16,
          "midi": 32,
          "name": "G#1",
          "ticks": 6192,
          "time": 19.158435,
          "velocity": 0.8976377952755905
        },
        {
          "duration": 0.04950499999999991,
          "durationTicks": 16,
          "midi": 32,
          "name": "G#1",
          "ticks": 6216,
          "time": 19.232692500000002,
          "velocity": 0.8976377952755905
        },
        {
          "duration": 0.04950500000000346,
          "durationTicks": 16,
          "midi": 32,
          "name": "G#1",
          "ticks": 6240,
          "time": 19.30695,
          "velocity": 0.8976377952755905
        },
        {
          "duration": 0.04950499999999991,
          "durationTicks": 16,
          "midi": 32,
          "name": "G#1",
          "ticks": 6264,
          "time": 19.381207500000002,
          "velocity": 0.8976377952755905
        },
        {
          "duration": 0.02475249999999818,
          "durationTicks": 8,
          "midi": 32,
          "name": "G#1",
          "ticks": 6288,
          "time": 19.455465,
          "velocity": 0.8976377952755905
        },
        {
          "duration": 0.024752500000005284,
          "durationTicks": 8,
          "midi": 32,
          "name": "G#1",
          "ticks": 6296,
          "time": 19.4802175,
          "velocity": 0.8976377952755905
        },
        {
          "duration": 0.02475249999999818,
          "durationTicks": 8,
          "midi": 32,
          "name": "G#1",
          "ticks": 6304,
          "time": 19.504970000000004,
          "velocity": 0.8976377952755905
        },
        {
          "duration": 0.02475249999999818,
          "durationTicks": 8,
          "midi": 32,
          "name": "G#1",
          "ticks": 6312,
          "time": 19.529722500000002,
          "velocity": 0.8976377952755905
        },
        {
          "duration": 0.02475250000000173,
          "durationTicks": 8,
          "midi": 32,
          "name": "G#1",
          "ticks": 6320,
          "time": 19.554475,
          "velocity": 0.8976377952755905
        },
        {
          "duration": 0.02475249999999818,
          "durationTicks": 8,
          "midi": 32,
          "name": "G#1",
          "ticks": 6328,
          "time": 19.579227500000002,
          "velocity": 0.8976377952755905
        },
        {
          "duration": 0.07425750000000164,
          "durationTicks": 24,
          "midi": 32,
          "name": "G#1",
          "ticks": 6336,
          "time": 19.60398,
          "velocity": 0.8976377952755905
        },
        {
          "duration": 0.07425750000000164,
          "durationTicks": 24,
          "midi": 34,
          "name": "A#1",
          "ticks": 6368,
          "time": 19.70299,
          "velocity": 0.8976377952755905
        },
        {
          "duration": 0.07425749999999809,
          "durationTicks": 24,
          "midi": 35,
          "name": "B1",
          "ticks": 6400,
          "time": 19.802000000000003,
          "velocity": 0.8976377952755905
        },
        {
          "duration": 0.07425750000000164,
          "durationTicks": 24,
          "midi": 37,
          "name": "C#2",
          "ticks": 6432,
          "time": 19.90101,
          "velocity": 0.8976377952755905
        },
        {
          "duration": 0.07425750000000164,
          "durationTicks": 24,
          "midi": 35,
          "name": "B1",
          "ticks": 6464,
          "time": 20.00002,
          "velocity": 0.8976377952755905
        },
        {
          "duration": 0.07425750000000164,
          "durationTicks": 24,
          "midi": 34,
          "name": "A#1",
          "ticks": 6496,
          "time": 20.099030000000003,
          "velocity": 0.8976377952755905
        },
        {
          "duration": 0.247524999999996,
          "durationTicks": 80,
          "midi": 32,
          "name": "G#1",
          "ticks": 6528,
          "time": 20.198040000000002,
          "velocity": 0.8976377952755905
        },
        {
          "duration": 0.24752499999999955,
          "durationTicks": 80,
          "midi": 32,
          "name": "G#1",
          "ticks": 6624,
          "time": 20.495070000000002,
          "velocity": 0.8976377952755905
        },
        {
          "duration": 0.24752499999999955,
          "durationTicks": 80,
          "midi": 32,
          "name": "G#1",
          "ticks": 6720,
          "time": 20.7921,
          "velocity": 0.8976377952755905
        },
        {
          "duration": 0.24752499999999955,
          "durationTicks": 80,
          "midi": 32,
          "name": "G#1",
          "ticks": 6816,
          "time": 21.08913,
          "velocity": 0.8976377952755905
        },
        {
          "duration": 0.24752499999999955,
          "durationTicks": 80,
          "midi": 32,
          "name": "G#1",
          "ticks": 6912,
          "time": 21.38616,
          "velocity": 0.8976377952755905
        },
        {
          "duration": 0.24752499999999955,
          "durationTicks": 80,
          "midi": 32,
          "name": "G#1",
          "ticks": 7008,
          "time": 21.68319,
          "velocity": 0.8976377952755905
        },
        {
          "duration": 0.247524999999996,
          "durationTicks": 80,
          "midi": 32,
          "name": "G#1",
          "ticks": 7104,
          "time": 21.980220000000003,
          "velocity": 0.8976377952755905
        },
        {
          "duration": 0.247524999999996,
          "durationTicks": 80,
          "midi": 32,
          "name": "G#1",
          "ticks": 7200,
          "time": 22.277250000000002,
          "velocity": 0.8976377952755905
        },
        {
          "duration": 0.24752499999999955,
          "durationTicks": 80,
          "midi": 32,
          "name": "G#1",
          "ticks": 7296,
          "time": 22.57428,
          "velocity": 0.8976377952755905
        },
        {
          "duration": 0.24752499999999955,
          "durationTicks": 80,
          "midi": 32,
          "name": "G#1",
          "ticks": 7392,
          "time": 22.87131,
          "velocity": 0.8976377952755905
        },
        {
          "duration": 0.24752499999999955,
          "durationTicks": 80,
          "midi": 32,
          "name": "G#1",
          "ticks": 7488,
          "time": 23.16834,
          "velocity": 0.8976377952755905
        },
        {
          "duration": 0.24752499999999955,
          "durationTicks": 80,
          "midi": 32,
          "name": "G#1",
          "ticks": 7584,
          "time": 23.46537,
          "velocity": 0.8976377952755905
        },
        {
          "duration": 0.24752499999999955,
          "durationTicks": 80,
          "midi": 32,
          "name": "G#1",
          "ticks": 7680,
          "time": 23.7624,
          "velocity": 0.8976377952755905
        },
        {
          "duration": 0.247524999999996,
          "durationTicks": 80,
          "midi": 31,
          "name": "G1",
          "ticks": 7776,
          "time": 24.059430000000003,
          "velocity": 0.8976377952755905
        },
        {
          "duration": 0.24752499999999955,
          "durationTicks": 80,
          "midi": 31,
          "name": "G1",
          "ticks": 7872,
          "time": 24.356460000000002,
          "velocity": 0.8976377952755905
        },
        {
          "duration": 0.24752499999999955,
          "durationTicks": 80,
          "midi": 31,
          "name": "G1",
          "ticks": 7968,
          "time": 24.65349,
          "velocity": 0.8976377952755905
        },
        {
          "duration": 0.24752499999999955,
          "durationTicks": 80,
          "midi": 36,
          "name": "C2",
          "ticks": 8064,
          "time": 24.95052,
          "velocity": 0.8976377952755905
        },
        {
          "duration": 0.24752499999999955,
          "durationTicks": 80,
          "midi": 36,
          "name": "C2",
          "ticks": 8160,
          "time": 25.24755,
          "velocity": 0.8976377952755905
        },
        {
          "duration": 0.24752499999999955,
          "durationTicks": 80,
          "midi": 36,
          "name": "C2",
          "ticks": 8256,
          "time": 25.54458,
          "velocity": 0.8976377952755905
        },
        {
          "duration": 0.247524999999996,
          "durationTicks": 80,
          "midi": 36,
          "name": "C2",
          "ticks": 8352,
          "time": 25.841610000000003,
          "velocity": 0.8976377952755905
        },
        {
          "duration": 0.247524999999996,
          "durationTicks": 80,
          "midi": 36,
          "name": "C2",
          "ticks": 8448,
          "time": 26.138640000000002,
          "velocity": 0.8976377952755905
        },
        {
          "duration": 0.24752499999999955,
          "durationTicks": 80,
          "midi": 36,
          "name": "C2",
          "ticks": 8544,
          "time": 26.435670000000002,
          "velocity": 0.8976377952755905
        },
        {
          "duration": 0.24752499999999955,
          "durationTicks": 80,
          "midi": 36,
          "name": "C2",
          "ticks": 8640,
          "time": 26.7327,
          "velocity": 0.8976377952755905
        },
        {
          "duration": 0.24752499999999955,
          "durationTicks": 80,
          "midi": 36,
          "name": "C2",
          "ticks": 8736,
          "time": 27.02973,
          "velocity": 0.8976377952755905
        },
        {
          "duration": 0.24752499999999955,
          "durationTicks": 80,
          "midi": 36,
          "name": "C2",
          "ticks": 8832,
          "time": 27.32676,
          "velocity": 0.8976377952755905
        },
        {
          "duration": 0.247524999999996,
          "durationTicks": 80,
          "midi": 36,
          "name": "C2",
          "ticks": 8928,
          "time": 27.623790000000003,
          "velocity": 0.8976377952755905
        },
        {
          "duration": 0.247524999999996,
          "durationTicks": 80,
          "midi": 36,
          "name": "C2",
          "ticks": 9024,
          "time": 27.920820000000003,
          "velocity": 0.8976377952755905
        },
        {
          "duration": 0.24752499999999955,
          "durationTicks": 80,
          "midi": 36,
          "name": "C2",
          "ticks": 9120,
          "time": 28.217850000000002,
          "velocity": 0.8976377952755905
        },
        {
          "duration": 0.24752499999999955,
          "durationTicks": 80,
          "midi": 36,
          "name": "C2",
          "ticks": 9216,
          "time": 28.51488,
          "velocity": 0.8976377952755905
        },
        {
          "duration": 0.24752499999999955,
          "durationTicks": 80,
          "midi": 36,
          "name": "C2",
          "ticks": 9312,
          "time": 28.81191,
          "velocity": 0.8976377952755905
        },
        {
          "duration": 0.07425750000000164,
          "durationTicks": 24,
          "midi": 36,
          "name": "C2",
          "ticks": 9408,
          "time": 29.10894,
          "velocity": 0.8976377952755905
        },
        {
          "duration": 0.07425749999999809,
          "durationTicks": 24,
          "midi": 36,
          "name": "C2",
          "ticks": 9432,
          "time": 29.183197500000002,
          "velocity": 0.8976377952755905
        },
        {
          "duration": 0.07425749999999809,
          "durationTicks": 24,
          "midi": 36,
          "name": "C2",
          "ticks": 9480,
          "time": 29.331712500000002,
          "velocity": 0.8976377952755905
        },
        {
          "duration": 0.07425750000000164,
          "durationTicks": 24,
          "midi": 36,
          "name": "C2",
          "ticks": 9504,
          "time": 29.40597,
          "velocity": 0.8976377952755905
        },
        {
          "duration": 0.14851499999999973,
          "durationTicks": 48,
          "midi": 36,
          "name": "C2",
          "ticks": 9552,
          "time": 29.554485000000003,
          "velocity": 0.8976377952755905
        },
        {
          "duration": 0.247524999999996,
          "durationTicks": 80,
          "midi": 32,
          "name": "G#1",
          "ticks": 9600,
          "time": 29.703000000000003,
          "velocity": 0.8976377952755905
        },
        {
          "duration": 0.24752499999999955,
          "durationTicks": 80,
          "midi": 32,
          "name": "G#1",
          "ticks": 9696,
          "time": 30.000030000000002,
          "velocity": 0.8976377952755905
        },
        {
          "duration": 0.24752499999999955,
          "durationTicks": 80,
          "midi": 32,
          "name": "G#1",
          "ticks": 9792,
          "time": 30.297060000000002,
          "velocity": 0.8976377952755905
        },
        {
          "duration": 0.24752499999999955,
          "durationTicks": 80,
          "midi": 32,
          "name": "G#1",
          "ticks": 9888,
          "time": 30.59409,
          "velocity": 0.8976377952755905
        },
        {
          "duration": 0.24752499999999955,
          "durationTicks": 80,
          "midi": 32,
          "name": "G#1",
          "ticks": 9984,
          "time": 30.89112,
          "velocity": 0.8976377952755905
        },
        {
          "duration": 0.24752499999999955,
          "durationTicks": 80,
          "midi": 32,
          "name": "G#1",
          "ticks": 10080,
          "time": 31.18815,
          "velocity": 0.8976377952755905
        },
        {
          "duration": 0.247524999999996,
          "durationTicks": 80,
          "midi": 32,
          "name": "G#1",
          "ticks": 10176,
          "time": 31.485180000000003,
          "velocity": 0.8976377952755905
        },
        {
          "duration": 0.24752499999999955,
          "durationTicks": 80,
          "midi": 32,
          "name": "G#1",
          "ticks": 10272,
          "time": 31.782210000000003,
          "velocity": 0.8976377952755905
        },
        {
          "duration": 0.2475250000000031,
          "durationTicks": 80,
          "midi": 32,
          "name": "G#1",
          "ticks": 10368,
          "time": 32.07924,
          "velocity": 0.8976377952755905
        },
        {
          "duration": 0.247524999999996,
          "durationTicks": 80,
          "midi": 32,
          "name": "G#1",
          "ticks": 10464,
          "time": 32.376270000000005,
          "velocity": 0.8976377952755905
        },
        {
          "duration": 0.247524999999996,
          "durationTicks": 80,
          "midi": 32,
          "name": "G#1",
          "ticks": 10560,
          "time": 32.673300000000005,
          "velocity": 0.8976377952755905
        },
        {
          "duration": 0.247524999999996,
          "durationTicks": 80,
          "midi": 32,
          "name": "G#1",
          "ticks": 10656,
          "time": 32.970330000000004,
          "velocity": 0.8976377952755905
        },
        {
          "duration": 0.247524999999996,
          "durationTicks": 80,
          "midi": 32,
          "name": "G#1",
          "ticks": 10752,
          "time": 33.267360000000004,
          "velocity": 0.8976377952755905
        },
        {
          "duration": 0.247524999999996,
          "durationTicks": 80,
          "midi": 31,
          "name": "G1",
          "ticks": 10848,
          "time": 33.56439,
          "velocity": 0.8976377952755905
        },
        {
          "duration": 0.07425750000000164,
          "durationTicks": 24,
          "midi": 31,
          "name": "G1",
          "ticks": 10944,
          "time": 33.86142,
          "velocity": 0.8976377952755905
        },
        {
          "duration": 0.07425749999999454,
          "durationTicks": 24,
          "midi": 31,
          "name": "G1",
          "ticks": 10968,
          "time": 33.935677500000004,
          "velocity": 0.8976377952755905
        },
        {
          "duration": 0.07425750000000164,
          "durationTicks": 24,
          "midi": 31,
          "name": "G1",
          "ticks": 11016,
          "time": 34.0841925,
          "velocity": 0.8976377952755905
        },
        {
          "duration": 0.07425750000000164,
          "durationTicks": 24,
          "midi": 31,
          "name": "G1",
          "ticks": 11040,
          "time": 34.15845,
          "velocity": 0.8976377952755905
        },
        {
          "duration": 0.14851499999999618,
          "durationTicks": 48,
          "midi": 31,
          "name": "G1",
          "ticks": 11088,
          "time": 34.306965000000005,
          "velocity": 0.8976377952755905
        },
        {
          "duration": 0.247524999999996,
          "durationTicks": 80,
          "midi": 36,
          "name": "C2",
          "ticks": 11136,
          "time": 34.45548,
          "velocity": 0.8976377952755905
        },
        {
          "duration": 0.2475250000000031,
          "durationTicks": 80,
          "midi": 36,
          "name": "C2",
          "ticks": 11232,
          "time": 34.75251,
          "velocity": 0.8976377952755905
        },
        {
          "duration": 0.2475250000000031,
          "durationTicks": 80,
          "midi": 36,
          "name": "C2",
          "ticks": 11328,
          "time": 35.04954,
          "velocity": 0.8976377952755905
        },
        {
          "duration": 0.2475250000000031,
          "durationTicks": 80,
          "midi": 36,
          "name": "C2",
          "ticks": 11424,
          "time": 35.34657,
          "velocity": 0.8976377952755905
        },
        {
          "duration": 0.2475250000000031,
          "durationTicks": 80,
          "midi": 36,
          "name": "C2",
          "ticks": 11520,
          "time": 35.6436,
          "velocity": 0.8976377952755905
        },
        {
          "duration": 0.2475250000000031,
          "durationTicks": 80,
          "midi": 36,
          "name": "C2",
          "ticks": 11616,
          "time": 35.94063,
          "velocity": 0.8976377952755905
        },
        {
          "duration": 0.247524999999996,
          "durationTicks": 80,
          "midi": 36,
          "name": "C2",
          "ticks": 11712,
          "time": 36.237660000000005,
          "velocity": 0.8976377952755905
        },
        {
          "duration": 0.247524999999996,
          "durationTicks": 80,
          "midi": 36,
          "name": "C2",
          "ticks": 11808,
          "time": 36.534690000000005,
          "velocity": 0.8976377952755905
        },
        {
          "duration": 0.247524999999996,
          "durationTicks": 80,
          "midi": 38,
          "name": "D2",
          "ticks": 11904,
          "time": 36.831720000000004,
          "velocity": 0.8976377952755905
        },
        {
          "duration": 0.123762499999998,
          "durationTicks": 40,
          "midi": 39,
          "name": "D#2",
          "ticks": 12000,
          "time": 37.128750000000004,
          "velocity": 0.8976377952755905
        },
        {
          "duration": 0.07425750000000164,
          "durationTicks": 24,
          "midi": 38,
          "name": "D2",
          "ticks": 12048,
          "time": 37.277265,
          "velocity": 0.8976377952755905
        },
        {
          "duration": 0.04950500000000346,
          "durationTicks": 16,
          "midi": 34,
          "name": "A#1",
          "ticks": 12096,
          "time": 37.42578,
          "velocity": 0.8976377952755905
        },
        {
          "duration": 0.04950499999999636,
          "durationTicks": 16,
          "midi": 34,
          "name": "A#1",
          "ticks": 12120,
          "time": 37.500037500000005,
          "velocity": 0.8976377952755905
        },
        {
          "duration": 0.1237625000000051,
          "durationTicks": 40,
          "midi": 34,
          "name": "A#1",
          "ticks": 12144,
          "time": 37.574295,
          "velocity": 0.8976377952755905
        },
        {
          "duration": 0.1237625000000051,
          "durationTicks": 40,
          "midi": 29,
          "name": "F1",
          "ticks": 12240,
          "time": 37.871325,
          "velocity": 0.8976377952755905
        },
        {
          "duration": 0.29702999999999946,
          "durationTicks": 96,
          "midi": 36,
          "name": "C2",
          "ticks": 12288,
          "time": 38.01984,
          "velocity": 0.8976377952755905
        },
        {
          "duration": 0.29702999999999946,
          "durationTicks": 96,
          "midi": 38,
          "name": "D2",
          "ticks": 12384,
          "time": 38.31687,
          "velocity": 0.8976377952755905
        },
        {
          "duration": 0.07425750000000164,
          "durationTicks": 24,
          "midi": 39,
          "name": "D#2",
          "ticks": 12480,
          "time": 38.6139,
          "velocity": 0.8976377952755905
        },
        {
          "duration": 0.07425750000000164,
          "durationTicks": 24,
          "midi": 39,
          "name": "D#2",
          "ticks": 12504,
          "time": 38.6881575,
          "velocity": 0.8976377952755905
        },
        {
          "duration": 0.07425750000000164,
          "durationTicks": 24,
          "midi": 39,
          "name": "D#2",
          "ticks": 12552,
          "time": 38.8366725,
          "velocity": 0.8976377952755905
        },
        {
          "duration": 0.07425750000000164,
          "durationTicks": 24,
          "midi": 34,
          "name": "A#1",
          "ticks": 12576,
          "time": 38.91093,
          "velocity": 0.8976377952755905
        },
        {
          "duration": 0.14851499999999618,
          "durationTicks": 48,
          "midi": 34,
          "name": "A#1",
          "ticks": 12624,
          "time": 39.059445000000004,
          "velocity": 0.8976377952755905
        },
        {
          "duration": 0.29702999999999946,
          "durationTicks": 96,
          "midi": 41,
          "name": "F2",
          "ticks": 12672,
          "time": 39.20796,
          "velocity": 0.8661417322834646
        },
        {
          "duration": 0.29702999999999946,
          "durationTicks": 96,
          "midi": 43,
          "name": "G2",
          "ticks": 12816,
          "time": 39.653505,
          "velocity": 0.8661417322834646
        },
        {
          "duration": 0.29702999999999946,
          "durationTicks": 96,
          "midi": 36,
          "name": "C2",
          "ticks": 12960,
          "time": 40.099050000000005,
          "velocity": 0.8661417322834646
        },
        {
          "duration": 0.29702999999999946,
          "durationTicks": 96,
          "midi": 36,
          "name": "C2",
          "ticks": 13104,
          "time": 40.544595,
          "velocity": 0.8661417322834646
        },
        {
          "duration": 0.29702999999999946,
          "durationTicks": 96,
          "midi": 41,
          "name": "F2",
          "ticks": 13440,
          "time": 41.5842,
          "velocity": 0.8661417322834646
        },
        {
          "duration": 0.29702999999999946,
          "durationTicks": 96,
          "midi": 43,
          "name": "G2",
          "ticks": 13584,
          "time": 42.029745000000005,
          "velocity": 0.8661417322834646
        },
        {
          "duration": 0.29702999999999946,
          "durationTicks": 96,
          "midi": 36,
          "name": "C2",
          "ticks": 13728,
          "time": 42.47529,
          "velocity": 0.8661417322834646
        },
        {
          "duration": 0.29702999999999946,
          "durationTicks": 96,
          "midi": 36,
          "name": "C2",
          "ticks": 13872,
          "time": 42.920835000000004,
          "velocity": 0.8661417322834646
        },
        {
          "duration": 0.14851500000000328,
          "durationTicks": 48,
          "midi": 36,
          "name": "C2",
          "ticks": 14016,
          "time": 43.36638,
          "velocity": 0.8661417322834646
        },
        {
          "duration": 0.14851499999999618,
          "durationTicks": 48,
          "midi": 36,
          "name": "C2",
          "ticks": 14064,
          "time": 43.514895,
          "velocity": 0.8661417322834646
        },
        {
          "duration": 0.29702999999999946,
          "durationTicks": 96,
          "midi": 41,
          "name": "F2",
          "ticks": 14208,
          "time": 43.960440000000006,
          "velocity": 0.8661417322834646
        },
        {
          "duration": 0.29702999999999946,
          "durationTicks": 96,
          "midi": 43,
          "name": "G2",
          "ticks": 14352,
          "time": 44.405985,
          "velocity": 0.8661417322834646
        },
        {
          "duration": 0.29702999999999946,
          "durationTicks": 96,
          "midi": 36,
          "name": "C2",
          "ticks": 14496,
          "time": 44.851530000000004,
          "velocity": 0.8661417322834646
        },
        {
          "duration": 0.29702999999999946,
          "durationTicks": 96,
          "midi": 36,
          "name": "C2",
          "ticks": 14640,
          "time": 45.297075,
          "velocity": 0.8661417322834646
        },
        {
          "duration": 0.29702999999999946,
          "durationTicks": 96,
          "midi": 41,
          "name": "F2",
          "ticks": 14976,
          "time": 46.33668,
          "velocity": 0.8661417322834646
        },
        {
          "duration": 0.29702999999999946,
          "durationTicks": 96,
          "midi": 43,
          "name": "G2",
          "ticks": 15120,
          "time": 46.782225000000004,
          "velocity": 0.8661417322834646
        },
        {
          "duration": 0.29702999999999946,
          "durationTicks": 96,
          "midi": 36,
          "name": "C2",
          "ticks": 15264,
          "time": 47.22777,
          "velocity": 0.8661417322834646
        },
        {
          "duration": 0.29702999999999946,
          "durationTicks": 96,
          "midi": 38,
          "name": "D2",
          "ticks": 15408,
          "time": 47.673315,
          "velocity": 0.8661417322834646
        },
        {
          "duration": 0.14851499999999618,
          "durationTicks": 48,
          "midi": 38,
          "name": "D2",
          "ticks": 15552,
          "time": 48.118860000000005,
          "velocity": 0.8661417322834646
        },
        {
          "duration": 0.14851500000000328,
          "durationTicks": 48,
          "midi": 38,
          "name": "D2",
          "ticks": 15600,
          "time": 48.267375,
          "velocity": 0.8661417322834646
        },
        {
          "duration": 0.25990124999999864,
          "durationTicks": 84,
          "midi": 41,
          "name": "F2",
          "ticks": 15744,
          "time": 48.712920000000004,
          "velocity": 0.905511811023622
        },
        {
          "duration": 0.14851499999999618,
          "durationTicks": 48,
          "midi": 41,
          "name": "F2",
          "ticks": 15840,
          "time": 49.00995,
          "velocity": 0.905511811023622
        },
        {
          "duration": 0.25990125000000575,
          "durationTicks": 84,
          "midi": 43,
          "name": "G2",
          "ticks": 15888,
          "time": 49.158465,
          "velocity": 0.905511811023622
        },
        {
          "duration": 0.14851499999999618,
          "durationTicks": 48,
          "midi": 43,
          "name": "G2",
          "ticks": 15984,
          "time": 49.455495000000006,
          "velocity": 0.905511811023622
        },
        {
          "duration": 0.25990124999999864,
          "durationTicks": 84,
          "midi": 36,
          "name": "C2",
          "ticks": 16032,
          "time": 49.60401,
          "velocity": 0.905511811023622
        },
        {
          "duration": 0.14851500000000328,
          "durationTicks": 48,
          "midi": 36,
          "name": "C2",
          "ticks": 16128,
          "time": 49.90104,
          "velocity": 0.905511811023622
        },
        {
          "duration": 0.25990124999999864,
          "durationTicks": 84,
          "midi": 36,
          "name": "C2",
          "ticks": 16176,
          "time": 50.049555000000005,
          "velocity": 0.905511811023622
        },
        {
          "duration": 0.14851499999999618,
          "durationTicks": 48,
          "midi": 36,
          "name": "C2",
          "ticks": 16272,
          "time": 50.346585000000005,
          "velocity": 0.905511811023622
        },
        {
          "duration": 0.25990124999999864,
          "durationTicks": 84,
          "midi": 36,
          "name": "C2",
          "ticks": 16320,
          "time": 50.4951,
          "velocity": 0.905511811023622
        },
        {
          "duration": 0.25990125000000575,
          "durationTicks": 84,
          "midi": 36,
          "name": "C2",
          "ticks": 16416,
          "time": 50.79213,
          "velocity": 0.905511811023622
        },
        {
          "duration": 0.25990125000000575,
          "durationTicks": 84,
          "midi": 41,
          "name": "F2",
          "ticks": 16512,
          "time": 51.08916,
          "velocity": 0.905511811023622
        },
        {
          "duration": 0.14851499999999618,
          "durationTicks": 48,
          "midi": 41,
          "name": "F2",
          "ticks": 16608,
          "time": 51.386190000000006,
          "velocity": 0.905511811023622
        },
        {
          "duration": 0.25990124999999864,
          "durationTicks": 84,
          "midi": 43,
          "name": "G2",
          "ticks": 16656,
          "time": 51.534705,
          "velocity": 0.905511811023622
        },
        {
          "duration": 0.14851500000000328,
          "durationTicks": 48,
          "midi": 43,
          "name": "G2",
          "ticks": 16752,
          "time": 51.831735,
          "velocity": 0.905511811023622
        },
        {
          "duration": 0.25990124999999864,
          "durationTicks": 84,
          "midi": 36,
          "name": "C2",
          "ticks": 16800,
          "time": 51.980250000000005,
          "velocity": 0.905511811023622
        },
        {
          "duration": 0.14851499999999618,
          "durationTicks": 48,
          "midi": 36,
          "name": "C2",
          "ticks": 16896,
          "time": 52.277280000000005,
          "velocity": 0.905511811023622
        },
        {
          "duration": 0.25990124999999864,
          "durationTicks": 84,
          "midi": 36,
          "name": "C2",
          "ticks": 16944,
          "time": 52.425795,
          "velocity": 0.905511811023622
        },
        {
          "duration": 0.14851500000000328,
          "durationTicks": 48,
          "midi": 36,
          "name": "C2",
          "ticks": 17040,
          "time": 52.722825,
          "velocity": 0.905511811023622
        },
        {
          "duration": 0.25990124999999864,
          "durationTicks": 84,
          "midi": 36,
          "name": "C2",
          "ticks": 17088,
          "time": 52.871340000000004,
          "velocity": 0.905511811023622
        },
        {
          "duration": 0.25990124999999864,
          "durationTicks": 84,
          "midi": 38,
          "name": "D2",
          "ticks": 17184,
          "time": 53.16837,
          "velocity": 0.905511811023622
        },
        {
          "duration": 0.25990124999999864,
          "durationTicks": 84,
          "midi": 42,
          "name": "F#2",
          "ticks": 17280,
          "time": 53.4654,
          "velocity": 0.905511811023622
        },
        {
          "duration": 0.14851500000000328,
          "durationTicks": 48,
          "midi": 42,
          "name": "F#2",
          "ticks": 17376,
          "time": 53.76243,
          "velocity": 0.905511811023622
        },
        {
          "duration": 0.25990124999999864,
          "durationTicks": 84,
          "midi": 44,
          "name": "G#2",
          "ticks": 17424,
          "time": 53.910945000000005,
          "velocity": 0.905511811023622
        },
        {
          "duration": 0.14851499999999618,
          "durationTicks": 48,
          "midi": 44,
          "name": "G#2",
          "ticks": 17520,
          "time": 54.207975000000005,
          "velocity": 0.905511811023622
        },
        {
          "duration": 0.25990124999999864,
          "durationTicks": 84,
          "midi": 37,
          "name": "C#2",
          "ticks": 17568,
          "time": 54.35649,
          "velocity": 0.905511811023622
        },
        {
          "duration": 0.14851500000000328,
          "durationTicks": 48,
          "midi": 37,
          "name": "C#2",
          "ticks": 17664,
          "time": 54.65352,
          "velocity": 0.905511811023622
        },
        {
          "duration": 0.25990124999999864,
          "durationTicks": 84,
          "midi": 37,
          "name": "C#2",
          "ticks": 17712,
          "time": 54.802035000000004,
          "velocity": 0.905511811023622
        },
        {
          "duration": 0.14851500000000328,
          "durationTicks": 48,
          "midi": 37,
          "name": "C#2",
          "ticks": 17808,
          "time": 55.099065,
          "velocity": 0.905511811023622
        },
        {
          "duration": 0.25990124999999864,
          "durationTicks": 84,
          "midi": 37,
          "name": "C#2",
          "ticks": 17856,
          "time": 55.247580000000006,
          "velocity": 0.905511811023622
        },
        {
          "duration": 0.07425749999999454,
          "durationTicks": 24,
          "midi": 37,
          "name": "C#2",
          "ticks": 17952,
          "time": 55.544610000000006,
          "velocity": 0.905511811023622
        },
        {
          "duration": 0.07425750000000164,
          "durationTicks": 24,
          "midi": 37,
          "name": "C#2",
          "ticks": 17976,
          "time": 55.6188675,
          "velocity": 0.905511811023622
        },
        {
          "duration": 0.03712875000000082,
          "durationTicks": 12,
          "midi": 37,
          "name": "C#2",
          "ticks": 18000,
          "time": 55.693125,
          "velocity": 0.905511811023622
        },
        {
          "duration": 0.03712875000000082,
          "durationTicks": 12,
          "midi": 37,
          "name": "C#2",
          "ticks": 18012,
          "time": 55.73025375,
          "velocity": 0.905511811023622
        },
        {
          "duration": 0.03712875000000082,
          "durationTicks": 12,
          "midi": 37,
          "name": "C#2",
          "ticks": 18024,
          "time": 55.767382500000004,
          "velocity": 0.905511811023622
        },
        {
          "duration": 0.03712875000000082,
          "durationTicks": 12,
          "midi": 37,
          "name": "C#2",
          "ticks": 18036,
          "time": 55.804511250000004,
          "velocity": 0.905511811023622
        },
        {
          "duration": 0.11138624999999536,
          "durationTicks": 36,
          "midi": 42,
          "name": "F#2",
          "ticks": 18048,
          "time": 55.841640000000005,
          "velocity": 0.905511811023622
        },
        {
          "duration": 0.11138625000000246,
          "durationTicks": 36,
          "midi": 42,
          "name": "F#2",
          "ticks": 18096,
          "time": 55.990155,
          "velocity": 0.905511811023622
        },
        {
          "duration": 0.14851499999999618,
          "durationTicks": 48,
          "midi": 42,
          "name": "F#2",
          "ticks": 18144,
          "time": 56.138670000000005,
          "velocity": 0.905511811023622
        },
        {
          "duration": 0.14851500000000328,
          "durationTicks": 48,
          "midi": 44,
          "name": "G#2",
          "ticks": 18192,
          "time": 56.287185,
          "velocity": 0.905511811023622
        },
        {
          "duration": 0.14851499999999618,
          "durationTicks": 48,
          "midi": 44,
          "name": "G#2",
          "ticks": 18240,
          "time": 56.435700000000004,
          "velocity": 0.905511811023622
        },
        {
          "duration": 0.14851500000000328,
          "durationTicks": 48,
          "midi": 44,
          "name": "G#2",
          "ticks": 18288,
          "time": 56.584215,
          "velocity": 0.905511811023622
        },
        {
          "duration": 0.07425750000000164,
          "durationTicks": 24,
          "midi": 37,
          "name": "C#2",
          "ticks": 18336,
          "time": 56.732730000000004,
          "velocity": 0.905511811023622
        },
        {
          "duration": 0.07425749999999454,
          "durationTicks": 24,
          "midi": 37,
          "name": "C#2",
          "ticks": 18360,
          "time": 56.806987500000005,
          "velocity": 0.905511811023622
        },
        {
          "duration": 0.25990125000000575,
          "durationTicks": 84,
          "midi": 37,
          "name": "C#2",
          "ticks": 18384,
          "time": 56.881245,
          "velocity": 0.905511811023622
        },
        {
          "duration": 0.11138624999999536,
          "durationTicks": 36,
          "midi": 37,
          "name": "C#2",
          "ticks": 18480,
          "time": 57.178275000000006,
          "velocity": 0.905511811023622
        },
        {
          "duration": 0.11138625000000246,
          "durationTicks": 36,
          "midi": 37,
          "name": "C#2",
          "ticks": 18528,
          "time": 57.32679,
          "velocity": 0.905511811023622
        },
        {
          "duration": 0.11138624999999536,
          "durationTicks": 36,
          "midi": 37,
          "name": "C#2",
          "ticks": 18576,
          "time": 57.475305000000006,
          "velocity": 0.905511811023622
        },
        {
          "duration": 0.03712875000000082,
          "durationTicks": 12,
          "midi": 37,
          "name": "C#2",
          "ticks": 18624,
          "time": 57.62382,
          "velocity": 0.905511811023622
        },
        {
          "duration": 0.03712875000000082,
          "durationTicks": 12,
          "midi": 37,
          "name": "C#2",
          "ticks": 18648,
          "time": 57.698077500000004,
          "velocity": 0.905511811023622
        },
        {
          "duration": 0.14851499999999618,
          "durationTicks": 48,
          "midi": 37,
          "name": "C#2",
          "ticks": 18672,
          "time": 57.772335000000005,
          "velocity": 0.905511811023622
        },
        {
          "duration": 0.5940599999999989,
          "durationTicks": 192,
          "midi": 33,
          "name": "A1",
          "ticks": 21888,
          "time": 67.72284,
          "velocity": 0.905511811023622
        },
        {
          "duration": 0.5940599999999989,
          "durationTicks": 192,
          "midi": 36,
          "name": "C2",
          "ticks": 22080,
          "time": 68.3169,
          "velocity": 0.905511811023622
        },
        {
          "duration": 0.5940599999999989,
          "durationTicks": 192,
          "midi": 37,
          "name": "C#2",
          "ticks": 22272,
          "time": 68.91096,
          "velocity": 0.905511811023622
        },
        {
          "duration": 0.5940599999999989,
          "durationTicks": 192,
          "midi": 34,
          "name": "A#1",
          "ticks": 22464,
          "time": 69.50502,
          "velocity": 0.905511811023622
        },
        {
          "duration": 0.5940599999999989,
          "durationTicks": 192,
          "midi": 33,
          "name": "A1",
          "ticks": 22656,
          "time": 70.09908,
          "velocity": 0.905511811023622
        },
        {
          "duration": 0.5940599999999989,
          "durationTicks": 192,
          "midi": 36,
          "name": "C2",
          "ticks": 22848,
          "time": 70.69314,
          "velocity": 0.905511811023622
        },
        {
          "duration": 1.188120000000012,
          "durationTicks": 384,
          "midi": 37,
          "name": "C#2",
          "ticks": 23040,
          "time": 71.2872,
          "velocity": 0.905511811023622
        },
        {
          "duration": 0.5940599999999989,
          "durationTicks": 192,
          "midi": 33,
          "name": "A1",
          "ticks": 23424,
          "time": 72.47532000000001,
          "velocity": 0.905511811023622
        },
        {
          "duration": 0.14851500000000328,
          "durationTicks": 48,
          "midi": 36,
          "name": "C2",
          "ticks": 23712,
          "time": 73.36641,
          "velocity": 0.905511811023622
        },
        {
          "duration": 0.07425750000000164,
          "durationTicks": 24,
          "midi": 36,
          "name": "C2",
          "ticks": 23760,
          "time": 73.514925,
          "velocity": 0.905511811023622
        },
        {
          "duration": 0.07425750000000164,
          "durationTicks": 24,
          "midi": 36,
          "name": "C2",
          "ticks": 23784,
          "time": 73.5891825,
          "velocity": 0.905511811023622
        },
        {
          "duration": 0.5940599999999989,
          "durationTicks": 192,
          "midi": 37,
          "name": "C#2",
          "ticks": 23808,
          "time": 73.66344000000001,
          "velocity": 0.905511811023622
        },
        {
          "duration": 0.14851500000000328,
          "durationTicks": 48,
          "midi": 34,
          "name": "A#1",
          "ticks": 24096,
          "time": 74.55453,
          "velocity": 0.905511811023622
        },
        {
          "duration": 0.07425750000000164,
          "durationTicks": 24,
          "midi": 34,
          "name": "A#1",
          "ticks": 24144,
          "time": 74.703045,
          "velocity": 0.905511811023622
        },
        {
          "duration": 0.07425750000000164,
          "durationTicks": 24,
          "midi": 34,
          "name": "A#1",
          "ticks": 24168,
          "time": 74.7773025,
          "velocity": 0.905511811023622
        },
        {
          "duration": 0.14851500000000328,
          "durationTicks": 48,
          "midi": 33,
          "name": "A1",
          "ticks": 24192,
          "time": 74.85156,
          "velocity": 0.905511811023622
        },
        {
          "duration": 0.14851499999998907,
          "durationTicks": 48,
          "midi": 33,
          "name": "A1",
          "ticks": 24240,
          "time": 75.00007500000001,
          "velocity": 0.905511811023622
        },
        {
          "duration": 0.14851500000000328,
          "durationTicks": 48,
          "midi": 33,
          "name": "A1",
          "ticks": 24288,
          "time": 75.14859,
          "velocity": 0.905511811023622
        },
        {
          "duration": 0.14851500000000328,
          "durationTicks": 48,
          "midi": 33,
          "name": "A1",
          "ticks": 24336,
          "time": 75.297105,
          "velocity": 0.905511811023622
        },
        {
          "duration": 0.14851500000000328,
          "durationTicks": 48,
          "midi": 36,
          "name": "C2",
          "ticks": 24384,
          "time": 75.44562,
          "velocity": 0.905511811023622
        },
        {
          "duration": 0.14851499999998907,
          "durationTicks": 48,
          "midi": 36,
          "name": "C2",
          "ticks": 24432,
          "time": 75.59413500000001,
          "velocity": 0.905511811023622
        },
        {
          "duration": 0.14851500000000328,
          "durationTicks": 48,
          "midi": 36,
          "name": "C2",
          "ticks": 24480,
          "time": 75.74265,
          "velocity": 0.905511811023622
        },
        {
          "duration": 0.14851500000000328,
          "durationTicks": 48,
          "midi": 36,
          "name": "C2",
          "ticks": 24528,
          "time": 75.891165,
          "velocity": 0.905511811023622
        },
        {
          "duration": 0.018564374999996858,
          "durationTicks": 6,
          "midi": 37,
          "name": "C#2",
          "ticks": 24576,
          "time": 76.03968,
          "velocity": 0.905511811023622
        },
        {
          "duration": 0.018564374999996858,
          "durationTicks": 6,
          "midi": 37,
          "name": "C#2",
          "ticks": 24582,
          "time": 76.058244375,
          "velocity": 0.905511811023622
        },
        {
          "duration": 0.01856437500001107,
          "durationTicks": 6,
          "midi": 37,
          "name": "C#2",
          "ticks": 24588,
          "time": 76.07680875,
          "velocity": 0.905511811023622
        },
        {
          "duration": 0.018564374999996858,
          "durationTicks": 6,
          "midi": 37,
          "name": "C#2",
          "ticks": 24594,
          "time": 76.09537312500001,
          "velocity": 0.905511811023622
        },
        {
          "duration": 0.018564374999996858,
          "durationTicks": 6,
          "midi": 37,
          "name": "C#2",
          "ticks": 24600,
          "time": 76.1139375,
          "velocity": 0.905511811023622
        },
        {
          "duration": 0.018564374999996858,
          "durationTicks": 6,
          "midi": 37,
          "name": "C#2",
          "ticks": 24606,
          "time": 76.132501875,
          "velocity": 0.905511811023622
        },
        {
          "duration": 0.01856437500001107,
          "durationTicks": 6,
          "midi": 37,
          "name": "C#2",
          "ticks": 24612,
          "time": 76.15106625,
          "velocity": 0.905511811023622
        },
        {
          "duration": 0.018564374999996858,
          "durationTicks": 6,
          "midi": 37,
          "name": "C#2",
          "ticks": 24618,
          "time": 76.16963062500001,
          "velocity": 0.905511811023622
        },
        {
          "duration": 0.037128749999993715,
          "durationTicks": 12,
          "midi": 37,
          "name": "C#2",
          "ticks": 24624,
          "time": 76.18819500000001,
          "velocity": 0.905511811023622
        },
        {
          "duration": 0.037128749999993715,
          "durationTicks": 12,
          "midi": 37,
          "name": "C#2",
          "ticks": 24648,
          "time": 76.26245250000001,
          "velocity": 0.905511811023622
        },
        {
          "duration": 0.14851499999998907,
          "durationTicks": 48,
          "midi": 42,
          "name": "F#2",
          "ticks": 24672,
          "time": 76.33671000000001,
          "velocity": 0.905511811023622
        },
        {
          "duration": 0.14851500000000328,
          "durationTicks": 48,
          "midi": 40,
          "name": "E2",
          "ticks": 24768,
          "time": 76.63374,
          "velocity": 0.905511811023622
        },
        {
          "duration": 0.14851499999998907,
          "durationTicks": 48,
          "midi": 39,
          "name": "D#2",
          "ticks": 24864,
          "time": 76.93077000000001,
          "velocity": 0.905511811023622
        },
        {
          "duration": 0.29703000000000657,
          "durationTicks": 96,
          "midi": 33,
          "name": "A1",
          "ticks": 24960,
          "time": 77.2278,
          "velocity": 0.905511811023622
        },
        {
          "duration": 0.29702999999999236,
          "durationTicks": 96,
          "midi": 33,
          "name": "A1",
          "ticks": 25056,
          "time": 77.52483000000001,
          "velocity": 0.905511811023622
        },
        {
          "duration": 0.29703000000000657,
          "durationTicks": 96,
          "midi": 36,
          "name": "C2",
          "ticks": 25152,
          "time": 77.82186,
          "velocity": 0.905511811023622
        },
        {
          "duration": 0.29702999999999236,
          "durationTicks": 96,
          "midi": 36,
          "name": "C2",
          "ticks": 25248,
          "time": 78.11889000000001,
          "velocity": 0.905511811023622
        },
        {
          "duration": 0.29703000000000657,
          "durationTicks": 96,
          "midi": 37,
          "name": "C#2",
          "ticks": 25344,
          "time": 78.41592,
          "velocity": 0.905511811023622
        },
        {
          "duration": 0.29702999999999236,
          "durationTicks": 96,
          "midi": 37,
          "name": "C#2",
          "ticks": 25440,
          "time": 78.71295,
          "velocity": 0.905511811023622
        },
        {
          "duration": 0.29703000000000657,
          "durationTicks": 96,
          "midi": 34,
          "name": "A#1",
          "ticks": 25536,
          "time": 79.00998,
          "velocity": 0.905511811023622
        },
        {
          "duration": 0.29702999999999236,
          "durationTicks": 96,
          "midi": 34,
          "name": "A#1",
          "ticks": 25632,
          "time": 79.30701,
          "velocity": 0.905511811023622
        },
        {
          "duration": 0.29703000000000657,
          "durationTicks": 96,
          "midi": 33,
          "name": "A1",
          "ticks": 25728,
          "time": 79.60404,
          "velocity": 0.905511811023622
        },
        {
          "duration": 0.29703000000000657,
          "durationTicks": 96,
          "midi": 33,
          "name": "A1",
          "ticks": 25824,
          "time": 79.90107,
          "velocity": 0.905511811023622
        },
        {
          "duration": 0.29702999999999236,
          "durationTicks": 96,
          "midi": 36,
          "name": "C2",
          "ticks": 25920,
          "time": 80.19810000000001,
          "velocity": 0.905511811023622
        },
        {
          "duration": 0.29703000000000657,
          "durationTicks": 96,
          "midi": 36,
          "name": "C2",
          "ticks": 26016,
          "time": 80.49513,
          "velocity": 0.905511811023622
        },
        {
          "duration": 0.29702999999999236,
          "durationTicks": 96,
          "midi": 37,
          "name": "C#2",
          "ticks": 26112,
          "time": 80.79216000000001,
          "velocity": 0.905511811023622
        },
        {
          "duration": 0.22277250000000492,
          "durationTicks": 72,
          "midi": 37,
          "name": "C#2",
          "ticks": 26208,
          "time": 81.08919,
          "velocity": 0.905511811023622
        },
        {
          "duration": 0.07425750000000164,
          "durationTicks": 24,
          "midi": 37,
          "name": "C#2",
          "ticks": 26280,
          "time": 81.3119625,
          "velocity": 0.905511811023622
        },
        {
          "duration": 0.14851499999998907,
          "durationTicks": 48,
          "midi": 37,
          "name": "C#2",
          "ticks": 26304,
          "time": 81.38622000000001,
          "velocity": 0.905511811023622
        },
        {
          "duration": 0.14851500000000328,
          "durationTicks": 48,
          "midi": 37,
          "name": "C#2",
          "ticks": 26352,
          "time": 81.534735,
          "velocity": 0.905511811023622
        },
        {
          "duration": 0.14851500000000328,
          "durationTicks": 48,
          "midi": 37,
          "name": "C#2",
          "ticks": 26400,
          "time": 81.68325,
          "velocity": 0.905511811023622
        },
        {
          "duration": 0.14851500000000328,
          "durationTicks": 48,
          "midi": 37,
          "name": "C#2",
          "ticks": 26448,
          "time": 81.831765,
          "velocity": 0.905511811023622
        },
        {
          "duration": 0.29702999999999236,
          "durationTicks": 96,
          "midi": 33,
          "name": "A1",
          "ticks": 26496,
          "time": 81.98028000000001,
          "velocity": 0.905511811023622
        },
        {
          "duration": 0.29703000000000657,
          "durationTicks": 96,
          "midi": 33,
          "name": "A1",
          "ticks": 26592,
          "time": 82.27731,
          "velocity": 0.905511811023622
        },
        {
          "duration": 0.29702999999999236,
          "durationTicks": 96,
          "midi": 36,
          "name": "C2",
          "ticks": 26688,
          "time": 82.57434,
          "velocity": 0.905511811023622
        },
        {
          "duration": 0.29703000000000657,
          "durationTicks": 96,
          "midi": 36,
          "name": "C2",
          "ticks": 26784,
          "time": 82.87137,
          "velocity": 0.905511811023622
        },
        {
          "duration": 0.29702999999999236,
          "durationTicks": 96,
          "midi": 37,
          "name": "C#2",
          "ticks": 26880,
          "time": 83.1684,
          "velocity": 0.905511811023622
        },
        {
          "duration": 0.29703000000000657,
          "durationTicks": 96,
          "midi": 37,
          "name": "C#2",
          "ticks": 26976,
          "time": 83.46543,
          "velocity": 0.905511811023622
        },
        {
          "duration": 0.29703000000000657,
          "durationTicks": 96,
          "midi": 34,
          "name": "A#1",
          "ticks": 27072,
          "time": 83.76246,
          "velocity": 0.905511811023622
        },
        {
          "duration": 0.14851499999998907,
          "durationTicks": 48,
          "midi": 34,
          "name": "A#1",
          "ticks": 27168,
          "time": 84.05949000000001,
          "velocity": 0.905511811023622
        },
        {
          "duration": 0.14851500000000328,
          "durationTicks": 48,
          "midi": 34,
          "name": "A#1",
          "ticks": 27216,
          "time": 84.208005,
          "velocity": 0.905511811023622
        },
        {
          "duration": 0.29703000000000657,
          "durationTicks": 96,
          "midi": 33,
          "name": "A1",
          "ticks": 27264,
          "time": 84.35652,
          "velocity": 0.905511811023622
        },
        {
          "duration": 0.29702999999999236,
          "durationTicks": 96,
          "midi": 33,
          "name": "A1",
          "ticks": 27360,
          "time": 84.65355000000001,
          "velocity": 0.905511811023622
        },
        {
          "duration": 0.29703000000000657,
          "durationTicks": 96,
          "midi": 36,
          "name": "C2",
          "ticks": 27456,
          "time": 84.95058,
          "velocity": 0.905511811023622
        },
        {
          "duration": 0.29702999999999236,
          "durationTicks": 96,
          "midi": 36,
          "name": "C2",
          "ticks": 27552,
          "time": 85.24761000000001,
          "velocity": 0.905511811023622
        },
        {
          "duration": 0.14851500000000328,
          "durationTicks": 48,
          "midi": 37,
          "name": "C#2",
          "ticks": 27648,
          "time": 85.54464,
          "velocity": 0.905511811023622
        },
        {
          "duration": 0.14851500000000328,
          "durationTicks": 48,
          "midi": 37,
          "name": "C#2",
          "ticks": 27720,
          "time": 85.7674125,
          "velocity": 0.905511811023622
        },
        {
          "duration": 0.14851499999998907,
          "durationTicks": 48,
          "midi": 37,
          "name": "C#2",
          "ticks": 27792,
          "time": 85.99018500000001,
          "velocity": 0.905511811023622
        },
        {
          "duration": 0.29703000000000657,
          "durationTicks": 96,
          "midi": 37,
          "name": "C#2",
          "ticks": 27840,
          "time": 86.1387,
          "velocity": 0.905511811023622
        },
        {
          "duration": 0.29703000000000657,
          "durationTicks": 96,
          "midi": 33,
          "name": "A1",
          "ticks": 28032,
          "time": 86.73276,
          "velocity": 0.905511811023622
        },
        {
          "duration": 0.29702999999999236,
          "durationTicks": 96,
          "midi": 33,
          "name": "A1",
          "ticks": 28128,
          "time": 87.02979,
          "velocity": 0.905511811023622
        },
        {
          "duration": 0.29703000000000657,
          "durationTicks": 96,
          "midi": 36,
          "name": "C2",
          "ticks": 28224,
          "time": 87.32682,
          "velocity": 0.905511811023622
        },
        {
          "duration": 0.29703000000000657,
          "durationTicks": 96,
          "midi": 36,
          "name": "C2",
          "ticks": 28320,
          "time": 87.62385,
          "velocity": 0.905511811023622
        },
        {
          "duration": 0.29702999999999236,
          "durationTicks": 96,
          "midi": 37,
          "name": "C#2",
          "ticks": 28416,
          "time": 87.92088000000001,
          "velocity": 0.905511811023622
        },
        {
          "duration": 0.29703000000000657,
          "durationTicks": 96,
          "midi": 37,
          "name": "C#2",
          "ticks": 28512,
          "time": 88.21791,
          "velocity": 0.905511811023622
        },
        {
          "duration": 0.29702999999999236,
          "durationTicks": 96,
          "midi": 34,
          "name": "A#1",
          "ticks": 28608,
          "time": 88.51494000000001,
          "velocity": 0.905511811023622
        },
        {
          "duration": 0.29703000000000657,
          "durationTicks": 96,
          "midi": 34,
          "name": "A#1",
          "ticks": 28704,
          "time": 88.81197,
          "velocity": 0.905511811023622
        },
        {
          "duration": 0.29702999999999236,
          "durationTicks": 96,
          "midi": 33,
          "name": "A1",
          "ticks": 28800,
          "time": 89.10900000000001,
          "velocity": 0.905511811023622
        },
        {
          "duration": 0.29703000000000657,
          "durationTicks": 96,
          "midi": 33,
          "name": "A1",
          "ticks": 28896,
          "time": 89.40603,
          "velocity": 0.905511811023622
        },
        {
          "duration": 0.29702999999999236,
          "durationTicks": 96,
          "midi": 36,
          "name": "C2",
          "ticks": 28992,
          "time": 89.70306000000001,
          "velocity": 0.905511811023622
        },
        {
          "duration": 0.29703000000000657,
          "durationTicks": 96,
          "midi": 36,
          "name": "C2",
          "ticks": 29088,
          "time": 90.00009,
          "velocity": 0.905511811023622
        },
        {
          "duration": 0.14851500000000328,
          "durationTicks": 48,
          "midi": 37,
          "name": "C#2",
          "ticks": 29184,
          "time": 90.29712,
          "velocity": 0.905511811023622
        },
        {
          "duration": 0.14851499999998907,
          "durationTicks": 48,
          "midi": 37,
          "name": "C#2",
          "ticks": 29232,
          "time": 90.44563500000001,
          "velocity": 0.905511811023622
        },
        {
          "duration": 0.14851500000000328,
          "durationTicks": 48,
          "midi": 37,
          "name": "C#2",
          "ticks": 29280,
          "time": 90.59415,
          "velocity": 0.905511811023622
        },
        {
          "duration": 0.14851500000000328,
          "durationTicks": 48,
          "midi": 37,
          "name": "C#2",
          "ticks": 29328,
          "time": 90.742665,
          "velocity": 0.905511811023622
        },
        {
          "duration": 0.07425750000000164,
          "durationTicks": 24,
          "midi": 37,
          "name": "C#2",
          "ticks": 29376,
          "time": 90.89118,
          "velocity": 0.905511811023622
        },
        {
          "duration": 0.07425750000000164,
          "durationTicks": 24,
          "midi": 37,
          "name": "C#2",
          "ticks": 29400,
          "time": 90.96543750000001,
          "velocity": 0.905511811023622
        },
        {
          "duration": 0.07425749999998743,
          "durationTicks": 24,
          "midi": 37,
          "name": "C#2",
          "ticks": 29448,
          "time": 91.11395250000001,
          "velocity": 0.905511811023622
        },
        {
          "duration": 0.07425750000000164,
          "durationTicks": 24,
          "midi": 37,
          "name": "C#2",
          "ticks": 29472,
          "time": 91.18821,
          "velocity": 0.905511811023622
        },
        {
          "duration": 0.14851500000000328,
          "durationTicks": 48,
          "midi": 37,
          "name": "C#2",
          "ticks": 29520,
          "time": 91.336725,
          "velocity": 0.905511811023622
        },
        {
          "duration": 0.09900999999999271,
          "durationTicks": 32,
          "midi": 33,
          "name": "A1",
          "ticks": 29568,
          "time": 91.48524,
          "velocity": 0.905511811023622
        },
        {
          "duration": 0.09901000000000693,
          "durationTicks": 32,
          "midi": 33,
          "name": "A1",
          "ticks": 29600,
          "time": 91.58425,
          "velocity": 0.905511811023622
        },
        {
          "duration": 0.09901000000000693,
          "durationTicks": 32,
          "midi": 33,
          "name": "A1",
          "ticks": 29632,
          "time": 91.68326,
          "velocity": 0.905511811023622
        },
        {
          "duration": 0.09900999999999271,
          "durationTicks": 32,
          "midi": 33,
          "name": "A1",
          "ticks": 29664,
          "time": 91.78227000000001,
          "velocity": 0.905511811023622
        },
        {
          "duration": 0.09901000000000693,
          "durationTicks": 32,
          "midi": 33,
          "name": "A1",
          "ticks": 29696,
          "time": 91.88128,
          "velocity": 0.905511811023622
        },
        {
          "duration": 0.09900999999999271,
          "durationTicks": 32,
          "midi": 33,
          "name": "A1",
          "ticks": 29728,
          "time": 91.98029000000001,
          "velocity": 0.905511811023622
        },
        {
          "duration": 0.09900999999999271,
          "durationTicks": 32,
          "midi": 36,
          "name": "C2",
          "ticks": 29760,
          "time": 92.0793,
          "velocity": 0.905511811023622
        },
        {
          "duration": 0.09901000000002114,
          "durationTicks": 32,
          "midi": 36,
          "name": "C2",
          "ticks": 29792,
          "time": 92.17831,
          "velocity": 0.905511811023622
        },
        {
          "duration": 0.09900999999999271,
          "durationTicks": 32,
          "midi": 36,
          "name": "C2",
          "ticks": 29824,
          "time": 92.27732000000002,
          "velocity": 0.905511811023622
        },
        {
          "duration": 0.09900999999999271,
          "durationTicks": 32,
          "midi": 36,
          "name": "C2",
          "ticks": 29856,
          "time": 92.37633000000001,
          "velocity": 0.905511811023622
        },
        {
          "duration": 0.09901000000000693,
          "durationTicks": 32,
          "midi": 36,
          "name": "C2",
          "ticks": 29888,
          "time": 92.47534,
          "velocity": 0.905511811023622
        },
        {
          "duration": 0.09900999999999271,
          "durationTicks": 32,
          "midi": 36,
          "name": "C2",
          "ticks": 29920,
          "time": 92.57435000000001,
          "velocity": 0.905511811023622
        },
        {
          "duration": 0.09900999999999271,
          "durationTicks": 32,
          "midi": 37,
          "name": "C#2",
          "ticks": 29952,
          "time": 92.67336,
          "velocity": 0.905511811023622
        },
        {
          "duration": 0.09901000000002114,
          "durationTicks": 32,
          "midi": 37,
          "name": "C#2",
          "ticks": 29984,
          "time": 92.77237,
          "velocity": 0.905511811023622
        },
        {
          "duration": 0.09900999999999271,
          "durationTicks": 32,
          "midi": 37,
          "name": "C#2",
          "ticks": 30016,
          "time": 92.87138000000002,
          "velocity": 0.905511811023622
        },
        {
          "duration": 0.09900999999999271,
          "durationTicks": 32,
          "midi": 37,
          "name": "C#2",
          "ticks": 30048,
          "time": 92.97039000000001,
          "velocity": 0.905511811023622
        },
        {
          "duration": 0.09901000000000693,
          "durationTicks": 32,
          "midi": 37,
          "name": "C#2",
          "ticks": 30080,
          "time": 93.0694,
          "velocity": 0.905511811023622
        },
        {
          "duration": 0.09900999999999271,
          "durationTicks": 32,
          "midi": 37,
          "name": "C#2",
          "ticks": 30112,
          "time": 93.16841000000001,
          "velocity": 0.905511811023622
        },
        {
          "duration": 0.07425750000000164,
          "durationTicks": 24,
          "midi": 33,
          "name": "A1",
          "ticks": 30336,
          "time": 93.86148,
          "velocity": 0.905511811023622
        },
        {
          "duration": 0.07425750000000164,
          "durationTicks": 24,
          "midi": 33,
          "name": "A1",
          "ticks": 30360,
          "time": 93.9357375,
          "velocity": 0.905511811023622
        },
        {
          "duration": 0.07425750000000164,
          "durationTicks": 24,
          "midi": 33,
          "name": "A1",
          "ticks": 30384,
          "time": 94.009995,
          "velocity": 0.905511811023622
        },
        {
          "duration": 0.07425750000000164,
          "durationTicks": 24,
          "midi": 33,
          "name": "A1",
          "ticks": 30408,
          "time": 94.0842525,
          "velocity": 0.905511811023622
        },
        {
          "duration": 0.07425750000000164,
          "durationTicks": 24,
          "midi": 33,
          "name": "A1",
          "ticks": 30432,
          "time": 94.15851,
          "velocity": 0.905511811023622
        },
        {
          "duration": 0.07425750000000164,
          "durationTicks": 24,
          "midi": 33,
          "name": "A1",
          "ticks": 30456,
          "time": 94.23276750000001,
          "velocity": 0.905511811023622
        },
        {
          "duration": 0.07425750000000164,
          "durationTicks": 24,
          "midi": 33,
          "name": "A1",
          "ticks": 30480,
          "time": 94.30702500000001,
          "velocity": 0.905511811023622
        },
        {
          "duration": 0.07425749999998743,
          "durationTicks": 24,
          "midi": 33,
          "name": "A1",
          "ticks": 30504,
          "time": 94.38128250000001,
          "velocity": 0.905511811023622
        },
        {
          "duration": 0.07425750000000164,
          "durationTicks": 24,
          "midi": 36,
          "name": "C2",
          "ticks": 30528,
          "time": 94.45554,
          "velocity": 0.905511811023622
        },
        {
          "duration": 0.07425750000000164,
          "durationTicks": 24,
          "midi": 36,
          "name": "C2",
          "ticks": 30552,
          "time": 94.5297975,
          "velocity": 0.905511811023622
        },
        {
          "duration": 0.037128750000007926,
          "durationTicks": 12,
          "midi": 36,
          "name": "C2",
          "ticks": 30576,
          "time": 94.604055,
          "velocity": 0.905511811023622
        },
        {
          "duration": 0.037128749999993715,
          "durationTicks": 12,
          "midi": 36,
          "name": "C2",
          "ticks": 30588,
          "time": 94.64118375000001,
          "velocity": 0.905511811023622
        },
        {
          "duration": 0.037128750000007926,
          "durationTicks": 12,
          "midi": 36,
          "name": "C2",
          "ticks": 30600,
          "time": 94.6783125,
          "velocity": 0.905511811023622
        },
        {
          "duration": 0.037128749999993715,
          "durationTicks": 12,
          "midi": 36,
          "name": "C2",
          "ticks": 30612,
          "time": 94.71544125000001,
          "velocity": 0.905511811023622
        },
        {
          "duration": 0.07425750000000164,
          "durationTicks": 24,
          "midi": 36,
          "name": "C2",
          "ticks": 30624,
          "time": 94.75257,
          "velocity": 0.905511811023622
        },
        {
          "duration": 0.07425750000000164,
          "durationTicks": 24,
          "midi": 36,
          "name": "C2",
          "ticks": 30648,
          "time": 94.82682750000001,
          "velocity": 0.905511811023622
        },
        {
          "duration": 0.037128749999993715,
          "durationTicks": 12,
          "midi": 36,
          "name": "C2",
          "ticks": 30672,
          "time": 94.90108500000001,
          "velocity": 0.905511811023622
        },
        {
          "duration": 0.037128750000007926,
          "durationTicks": 12,
          "midi": 36,
          "name": "C2",
          "ticks": 30684,
          "time": 94.93821375,
          "velocity": 0.905511811023622
        },
        {
          "duration": 0.037128749999993715,
          "durationTicks": 12,
          "midi": 36,
          "name": "C2",
          "ticks": 30696,
          "time": 94.97534250000001,
          "velocity": 0.905511811023622
        },
        {
          "duration": 0.037128749999993715,
          "durationTicks": 12,
          "midi": 36,
          "name": "C2",
          "ticks": 30708,
          "time": 95.01247125,
          "velocity": 0.905511811023622
        },
        {
          "duration": 0.14851500000000328,
          "durationTicks": 48,
          "midi": 37,
          "name": "C#2",
          "ticks": 30720,
          "time": 95.0496,
          "velocity": 0.905511811023622
        },
        {
          "duration": 0.14851500000000328,
          "durationTicks": 48,
          "midi": 37,
          "name": "C#2",
          "ticks": 30792,
          "time": 95.2723725,
          "velocity": 0.905511811023622
        },
        {
          "duration": 0.14851500000000328,
          "durationTicks": 48,
          "midi": 37,
          "name": "C#2",
          "ticks": 30864,
          "time": 95.49514500000001,
          "velocity": 0.905511811023622
        },
        {
          "duration": 0.29702999999999236,
          "durationTicks": 96,
          "midi": 37,
          "name": "C#2",
          "ticks": 30912,
          "time": 95.64366000000001,
          "velocity": 0.905511811023622
        },
        {
          "duration": 0.29702999999999236,
          "durationTicks": 96,
          "midi": 29,
          "name": "F1",
          "ticks": 31104,
          "time": 96.23772000000001,
          "velocity": 0.905511811023622
        },
        {
          "duration": 0.29703000000000657,
          "durationTicks": 96,
          "midi": 31,
          "name": "G1",
          "ticks": 31248,
          "time": 96.683265,
          "velocity": 0.905511811023622
        },
        {
          "duration": 0.29703000000000657,
          "durationTicks": 96,
          "midi": 31,
          "name": "G1",
          "ticks": 31392,
          "time": 97.12881,
          "velocity": 0.905511811023622
        },
        {
          "duration": 0.29702999999999236,
          "durationTicks": 96,
          "midi": 32,
          "name": "G#1",
          "ticks": 31536,
          "time": 97.57435500000001,
          "velocity": 0.905511811023622
        },
        {
          "duration": 0.29702999999999236,
          "durationTicks": 96,
          "midi": 33,
          "name": "A1",
          "ticks": 31680,
          "time": 98.0199,
          "velocity": 0.905511811023622
        },
        {
          "duration": 0.29703000000000657,
          "durationTicks": 96,
          "midi": 33,
          "name": "A1",
          "ticks": 31776,
          "time": 98.31693,
          "velocity": 0.905511811023622
        },
        {
          "duration": 0.29703000000000657,
          "durationTicks": 96,
          "midi": 29,
          "name": "F1",
          "ticks": 31872,
          "time": 98.61396,
          "velocity": 0.905511811023622
        },
        {
          "duration": 0.29703000000000657,
          "durationTicks": 96,
          "midi": 31,
          "name": "G1",
          "ticks": 32016,
          "time": 99.059505,
          "velocity": 0.905511811023622
        },
        {
          "duration": 0.29702999999999236,
          "durationTicks": 96,
          "midi": 31,
          "name": "G1",
          "ticks": 32160,
          "time": 99.50505000000001,
          "velocity": 0.905511811023622
        },
        {
          "duration": 0.29702999999999236,
          "durationTicks": 96,
          "midi": 32,
          "name": "G#1",
          "ticks": 32304,
          "time": 99.950595,
          "velocity": 0.905511811023622
        },
        {
          "duration": 0.29703000000000657,
          "durationTicks": 96,
          "midi": 33,
          "name": "A1",
          "ticks": 32448,
          "time": 100.39614,
          "velocity": 0.905511811023622
        },
        {
          "duration": 0.29702999999999236,
          "durationTicks": 96,
          "midi": 33,
          "name": "A1",
          "ticks": 32544,
          "time": 100.69317000000001,
          "velocity": 0.905511811023622
        },
        {
          "duration": 0.29703000000000657,
          "durationTicks": 96,
          "midi": 29,
          "name": "F1",
          "ticks": 32640,
          "time": 100.9902,
          "velocity": 0.905511811023622
        },
        {
          "duration": 0.29702999999999236,
          "durationTicks": 96,
          "midi": 31,
          "name": "G1",
          "ticks": 32784,
          "time": 101.43574500000001,
          "velocity": 0.905511811023622
        },
        {
          "duration": 0.29702999999999236,
          "durationTicks": 96,
          "midi": 31,
          "name": "G1",
          "ticks": 32928,
          "time": 101.88129,
          "velocity": 0.905511811023622
        },
        {
          "duration": 0.29703000000000657,
          "durationTicks": 96,
          "midi": 32,
          "name": "G#1",
          "ticks": 33072,
          "time": 102.326835,
          "velocity": 0.905511811023622
        },
        {
          "duration": 0.29702999999999236,
          "durationTicks": 96,
          "midi": 33,
          "name": "A1",
          "ticks": 33216,
          "time": 102.77238000000001,
          "velocity": 0.905511811023622
        },
        {
          "duration": 0.29703000000000657,
          "durationTicks": 96,
          "midi": 33,
          "name": "A1",
          "ticks": 33312,
          "time": 103.06941,
          "velocity": 0.905511811023622
        },
        {
          "duration": 0.29702999999999236,
          "durationTicks": 96,
          "midi": 29,
          "name": "F1",
          "ticks": 33408,
          "time": 103.36644000000001,
          "velocity": 0.905511811023622
        },
        {
          "duration": 0.29702999999999236,
          "durationTicks": 96,
          "midi": 31,
          "name": "G1",
          "ticks": 33552,
          "time": 103.811985,
          "velocity": 0.905511811023622
        },
        {
          "duration": 0.29703000000000657,
          "durationTicks": 96,
          "midi": 31,
          "name": "G1",
          "ticks": 33696,
          "time": 104.25753,
          "velocity": 0.905511811023622
        },
        {
          "duration": 0.14851500000000328,
          "durationTicks": 48,
          "midi": 38,
          "name": "D2",
          "ticks": 33888,
          "time": 104.85159,
          "velocity": 0.905511811023622
        },
        {
          "duration": 0.14851500000000328,
          "durationTicks": 48,
          "midi": 36,
          "name": "C2",
          "ticks": 33984,
          "time": 105.14862000000001,
          "velocity": 0.905511811023622
        },
        {
          "duration": 0.14851500000000328,
          "durationTicks": 48,
          "midi": 35,
          "name": "B1",
          "ticks": 34080,
          "time": 105.44565,
          "velocity": 0.905511811023622
        },
        {
          "duration": 0.29702999999999236,
          "durationTicks": 96,
          "midi": 29,
          "name": "F1",
          "ticks": 34176,
          "time": 105.74268000000001,
          "velocity": 0.905511811023622
        },
        {
          "duration": 0.29703000000000657,
          "durationTicks": 96,
          "midi": 29,
          "name": "F1",
          "ticks": 34272,
          "time": 106.03971,
          "velocity": 0.905511811023622
        },
        {
          "duration": 0.29703000000000657,
          "durationTicks": 96,
          "midi": 31,
          "name": "G1",
          "ticks": 34368,
          "time": 106.33674,
          "velocity": 0.905511811023622
        },
        {
          "duration": 0.29702999999999236,
          "durationTicks": 96,
          "midi": 31,
          "name": "G1",
          "ticks": 34464,
          "time": 106.63377000000001,
          "velocity": 0.905511811023622
        },
        {
          "duration": 0.29703000000000657,
          "durationTicks": 96,
          "midi": 32,
          "name": "G#1",
          "ticks": 34560,
          "time": 106.9308,
          "velocity": 0.905511811023622
        },
        {
          "duration": 0.29702999999999236,
          "durationTicks": 96,
          "midi": 32,
          "name": "G#1",
          "ticks": 34656,
          "time": 107.22783000000001,
          "velocity": 0.905511811023622
        },
        {
          "duration": 0.29703000000000657,
          "durationTicks": 96,
          "midi": 33,
          "name": "A1",
          "ticks": 34752,
          "time": 107.52486,
          "velocity": 0.905511811023622
        },
        {
          "duration": 0.29702999999999236,
          "durationTicks": 96,
          "midi": 33,
          "name": "A1",
          "ticks": 34848,
          "time": 107.82189000000001,
          "velocity": 0.905511811023622
        },
        {
          "duration": 0.29703000000000657,
          "durationTicks": 96,
          "midi": 29,
          "name": "F1",
          "ticks": 34944,
          "time": 108.11892,
          "velocity": 0.905511811023622
        },
        {
          "duration": 0.29702999999999236,
          "durationTicks": 96,
          "midi": 29,
          "name": "F1",
          "ticks": 35040,
          "time": 108.41595000000001,
          "velocity": 0.905511811023622
        },
        {
          "duration": 0.29703000000000657,
          "durationTicks": 96,
          "midi": 31,
          "name": "G1",
          "ticks": 35136,
          "time": 108.71298,
          "velocity": 0.905511811023622
        },
        {
          "duration": 0.29702999999999236,
          "durationTicks": 96,
          "midi": 31,
          "name": "G1",
          "ticks": 35232,
          "time": 109.01001000000001,
          "velocity": 0.905511811023622
        },
        {
          "duration": 0.07425750000000164,
          "durationTicks": 24,
          "midi": 32,
          "name": "G#1",
          "ticks": 35328,
          "time": 109.30704,
          "velocity": 0.905511811023622
        },
        {
          "duration": 0.07425750000000164,
          "durationTicks": 24,
          "midi": 32,
          "name": "G#1",
          "ticks": 35360,
          "time": 109.40605,
          "velocity": 0.905511811023622
        },
        {
          "duration": 0.07425750000000164,
          "durationTicks": 24,
          "midi": 32,
          "name": "G#1",
          "ticks": 35392,
          "time": 109.50506000000001,
          "velocity": 0.905511811023622
        },
        {
          "duration": 0.07425750000000164,
          "durationTicks": 24,
          "midi": 32,
          "name": "G#1",
          "ticks": 35424,
          "time": 109.60407000000001,
          "velocity": 0.905511811023622
        },
        {
          "duration": 0.07425750000000164,
          "durationTicks": 24,
          "midi": 32,
          "name": "G#1",
          "ticks": 35456,
          "time": 109.70308,
          "velocity": 0.905511811023622
        },
        {
          "duration": 0.07425750000000164,
          "durationTicks": 24,
          "midi": 32,
          "name": "G#1",
          "ticks": 35488,
          "time": 109.80209,
          "velocity": 0.905511811023622
        },
        {
          "duration": 0.07425750000000164,
          "durationTicks": 24,
          "midi": 33,
          "name": "A1",
          "ticks": 35520,
          "time": 109.9011,
          "velocity": 0.905511811023622
        },
        {
          "duration": 0.07425749999998743,
          "durationTicks": 24,
          "midi": 33,
          "name": "A1",
          "ticks": 35552,
          "time": 110.00011,
          "velocity": 0.905511811023622
        },
        {
          "duration": 0.07425750000000164,
          "durationTicks": 24,
          "midi": 33,
          "name": "A1",
          "ticks": 35584,
          "time": 110.09912000000001,
          "velocity": 0.905511811023622
        },
        {
          "duration": 0.07425750000000164,
          "durationTicks": 24,
          "midi": 33,
          "name": "A1",
          "ticks": 35616,
          "time": 110.19813,
          "velocity": 0.905511811023622
        },
        {
          "duration": 0.07425750000000164,
          "durationTicks": 24,
          "midi": 33,
          "name": "A1",
          "ticks": 35648,
          "time": 110.29714,
          "velocity": 0.905511811023622
        },
        {
          "duration": 0.07425750000000164,
          "durationTicks": 24,
          "midi": 33,
          "name": "A1",
          "ticks": 35680,
          "time": 110.39615,
          "velocity": 0.905511811023622
        },
        {
          "duration": 0.14851499999998907,
          "durationTicks": 48,
          "midi": 29,
          "name": "F1",
          "ticks": 35712,
          "time": 110.49516000000001,
          "velocity": 0.905511811023622
        },
        {
          "duration": 0.14851500000000328,
          "durationTicks": 48,
          "midi": 29,
          "name": "F1",
          "ticks": 35760,
          "time": 110.643675,
          "velocity": 0.905511811023622
        },
        {
          "duration": 0.14851500000000328,
          "durationTicks": 48,
          "midi": 29,
          "name": "F1",
          "ticks": 35808,
          "time": 110.79219,
          "velocity": 0.905511811023622
        },
        {
          "duration": 0.14851500000000328,
          "durationTicks": 48,
          "midi": 29,
          "name": "F1",
          "ticks": 35856,
          "time": 110.94070500000001,
          "velocity": 0.905511811023622
        },
        {
          "duration": 0.14851499999998907,
          "durationTicks": 48,
          "midi": 31,
          "name": "G1",
          "ticks": 35904,
          "time": 111.08922000000001,
          "velocity": 0.905511811023622
        },
        {
          "duration": 0.14851500000000328,
          "durationTicks": 48,
          "midi": 31,
          "name": "G1",
          "ticks": 35952,
          "time": 111.237735,
          "velocity": 0.905511811023622
        },
        {
          "duration": 0.14851500000000328,
          "durationTicks": 48,
          "midi": 31,
          "name": "G1",
          "ticks": 36000,
          "time": 111.38625,
          "velocity": 0.905511811023622
        },
        {
          "duration": 0.14851500000000328,
          "durationTicks": 48,
          "midi": 31,
          "name": "G1",
          "ticks": 36048,
          "time": 111.53476500000001,
          "velocity": 0.905511811023622
        },
        {
          "duration": 0.14851499999998907,
          "durationTicks": 48,
          "midi": 32,
          "name": "G#1",
          "ticks": 36096,
          "time": 111.68328000000001,
          "velocity": 0.905511811023622
        },
        {
          "duration": 0.14851500000000328,
          "durationTicks": 48,
          "midi": 32,
          "name": "G#1",
          "ticks": 36144,
          "time": 111.831795,
          "velocity": 0.905511811023622
        },
        {
          "duration": 0.14851500000000328,
          "durationTicks": 48,
          "midi": 32,
          "name": "G#1",
          "ticks": 36192,
          "time": 111.98031,
          "velocity": 0.905511811023622
        },
        {
          "duration": 0.14851500000000328,
          "durationTicks": 48,
          "midi": 32,
          "name": "G#1",
          "ticks": 36240,
          "time": 112.128825,
          "velocity": 0.905511811023622
        },
        {
          "duration": 0.14851500000000328,
          "durationTicks": 48,
          "midi": 33,
          "name": "A1",
          "ticks": 36288,
          "time": 112.27734000000001,
          "velocity": 0.905511811023622
        },
        {
          "duration": 0.14851499999998907,
          "durationTicks": 48,
          "midi": 33,
          "name": "A1",
          "ticks": 36336,
          "time": 112.42585500000001,
          "velocity": 0.905511811023622
        },
        {
          "duration": 0.14851500000000328,
          "durationTicks": 48,
          "midi": 33,
          "name": "A1",
          "ticks": 36384,
          "time": 112.57437,
          "velocity": 0.905511811023622
        },
        {
          "duration": 0.14851500000000328,
          "durationTicks": 48,
          "midi": 33,
          "name": "A1",
          "ticks": 36432,
          "time": 112.722885,
          "velocity": 0.905511811023622
        },
        {
          "duration": 0.07425750000000164,
          "durationTicks": 24,
          "midi": 29,
          "name": "F1",
          "ticks": 36480,
          "time": 112.87140000000001,
          "velocity": 0.905511811023622
        },
        {
          "duration": 0.07425750000000164,
          "durationTicks": 24,
          "midi": 29,
          "name": "F1",
          "ticks": 36504,
          "time": 112.94565750000001,
          "velocity": 0.905511811023622
        },
        {
          "duration": 0.07425749999998743,
          "durationTicks": 24,
          "midi": 29,
          "name": "F1",
          "ticks": 36528,
          "time": 113.01991500000001,
          "velocity": 0.905511811023622
        },
        {
          "duration": 0.07425750000000164,
          "durationTicks": 24,
          "midi": 29,
          "name": "F1",
          "ticks": 36552,
          "time": 113.0941725,
          "velocity": 0.905511811023622
        },
        {
          "duration": 0.07425750000000164,
          "durationTicks": 24,
          "midi": 29,
          "name": "F1",
          "ticks": 36576,
          "time": 113.16843,
          "velocity": 0.905511811023622
        },
        {
          "duration": 0.07425750000000164,
          "durationTicks": 24,
          "midi": 29,
          "name": "F1",
          "ticks": 36600,
          "time": 113.2426875,
          "velocity": 0.905511811023622
        },
        {
          "duration": 0.07425750000000164,
          "durationTicks": 24,
          "midi": 29,
          "name": "F1",
          "ticks": 36624,
          "time": 113.316945,
          "velocity": 0.905511811023622
        },
        {
          "duration": 0.07425750000000164,
          "durationTicks": 24,
          "midi": 29,
          "name": "F1",
          "ticks": 36648,
          "time": 113.3912025,
          "velocity": 0.905511811023622
        },
        {
          "duration": 0.07425750000000164,
          "durationTicks": 24,
          "midi": 31,
          "name": "G1",
          "ticks": 36672,
          "time": 113.46546000000001,
          "velocity": 0.905511811023622
        },
        {
          "duration": 0.07425750000000164,
          "durationTicks": 24,
          "midi": 31,
          "name": "G1",
          "ticks": 36696,
          "time": 113.53971750000001,
          "velocity": 0.905511811023622
        },
        {
          "duration": 0.037128749999993715,
          "durationTicks": 12,
          "midi": 31,
          "name": "G1",
          "ticks": 36720,
          "time": 113.61397500000001,
          "velocity": 0.905511811023622
        },
        {
          "duration": 0.037128750000007926,
          "durationTicks": 12,
          "midi": 31,
          "name": "G1",
          "ticks": 36732,
          "time": 113.65110375,
          "velocity": 0.905511811023622
        },
        {
          "duration": 0.037128749999993715,
          "durationTicks": 12,
          "midi": 31,
          "name": "G1",
          "ticks": 36744,
          "time": 113.68823250000001,
          "velocity": 0.905511811023622
        },
        {
          "duration": 0.037128749999993715,
          "durationTicks": 12,
          "midi": 31,
          "name": "G1",
          "ticks": 36756,
          "time": 113.72536125,
          "velocity": 0.905511811023622
        },
        {
          "duration": 0.07425750000000164,
          "durationTicks": 24,
          "midi": 31,
          "name": "G1",
          "ticks": 36768,
          "time": 113.76249,
          "velocity": 0.905511811023622
        },
        {
          "duration": 0.07425750000000164,
          "durationTicks": 24,
          "midi": 31,
          "name": "G1",
          "ticks": 36792,
          "time": 113.8367475,
          "velocity": 0.905511811023622
        },
        {
          "duration": 0.037128750000007926,
          "durationTicks": 12,
          "midi": 31,
          "name": "G1",
          "ticks": 36816,
          "time": 113.911005,
          "velocity": 0.905511811023622
        },
        {
          "duration": 0.037128749999993715,
          "durationTicks": 12,
          "midi": 31,
          "name": "G1",
          "ticks": 36828,
          "time": 113.94813375000001,
          "velocity": 0.905511811023622
        },
        {
          "duration": 0.037128750000007926,
          "durationTicks": 12,
          "midi": 31,
          "name": "G1",
          "ticks": 36840,
          "time": 113.9852625,
          "velocity": 0.905511811023622
        },
        {
          "duration": 0.037128749999993715,
          "durationTicks": 12,
          "midi": 31,
          "name": "G1",
          "ticks": 36852,
          "time": 114.02239125000001,
          "velocity": 0.905511811023622
        },
        {
          "duration": 1.1881199999999978,
          "durationTicks": 384,
          "midi": 33,
          "name": "A1",
          "ticks": 36864,
          "time": 114.05952,
          "velocity": 0.905511811023622
        },
        {
          "duration": 0.14851500000000328,
          "durationTicks": 48,
          "midi": 38,
          "name": "D2",
          "ticks": 37248,
          "time": 115.24764,
          "velocity": 0.8976377952755905
        },
        {
          "duration": 0.037128749999993715,
          "durationTicks": 12,
          "midi": 38,
          "name": "D2",
          "ticks": 37296,
          "time": 115.39615500000001,
          "velocity": 0.8976377952755905
        },
        {
          "duration": 0.037128749999993715,
          "durationTicks": 12,
          "midi": 38,
          "name": "D2",
          "ticks": 37320,
          "time": 115.47041250000001,
          "velocity": 0.8976377952755905
        },
        {
          "duration": 0.037128749999993715,
          "durationTicks": 12,
          "midi": 38,
          "name": "D2",
          "ticks": 37344,
          "time": 115.54467000000001,
          "velocity": 0.8976377952755905
        },
        {
          "duration": 0.14851500000000328,
          "durationTicks": 48,
          "midi": 40,
          "name": "E2",
          "ticks": 37392,
          "time": 115.693185,
          "velocity": 0.8976377952755905
        },
        {
          "duration": 0.037128750000007926,
          "durationTicks": 12,
          "midi": 40,
          "name": "E2",
          "ticks": 37440,
          "time": 115.8417,
          "velocity": 0.8976377952755905
        },
        {
          "duration": 0.037128750000007926,
          "durationTicks": 12,
          "midi": 40,
          "name": "E2",
          "ticks": 37464,
          "time": 115.9159575,
          "velocity": 0.8976377952755905
        },
        {
          "duration": 0.037128749999993715,
          "durationTicks": 12,
          "midi": 40,
          "name": "E2",
          "ticks": 37488,
          "time": 115.990215,
          "velocity": 0.8976377952755905
        },
        {
          "duration": 0.14851500000000328,
          "durationTicks": 48,
          "midi": 33,
          "name": "A1",
          "ticks": 37536,
          "time": 116.13873000000001,
          "velocity": 0.8976377952755905
        },
        {
          "duration": 0.07425750000000164,
          "durationTicks": 24,
          "midi": 45,
          "name": "A2",
          "ticks": 37920,
          "time": 117.32685000000001,
          "velocity": 0.8976377952755905
        },
        {
          "duration": 0.07425750000000164,
          "durationTicks": 24,
          "midi": 33,
          "name": "A1",
          "ticks": 37944,
          "time": 117.40110750000001,
          "velocity": 0.8976377952755905
        },
        {
          "duration": 0.07425750000000164,
          "durationTicks": 24,
          "midi": 45,
          "name": "A2",
          "ticks": 37968,
          "time": 117.47536500000001,
          "velocity": 0.8976377952755905
        },
        {
          "duration": 0.07425749999998743,
          "durationTicks": 24,
          "midi": 33,
          "name": "A1",
          "ticks": 37992,
          "time": 117.54962250000001,
          "velocity": 0.8976377952755905
        },
        {
          "duration": 0.14851500000000328,
          "durationTicks": 48,
          "midi": 38,
          "name": "D2",
          "ticks": 38016,
          "time": 117.62388,
          "velocity": 0.8976377952755905
        },
        {
          "duration": 0.037128750000007926,
          "durationTicks": 12,
          "midi": 38,
          "name": "D2",
          "ticks": 38064,
          "time": 117.772395,
          "velocity": 0.8976377952755905
        },
        {
          "duration": 0.037128750000007926,
          "durationTicks": 12,
          "midi": 38,
          "name": "D2",
          "ticks": 38088,
          "time": 117.8466525,
          "velocity": 0.8976377952755905
        },
        {
          "duration": 0.037128749999993715,
          "durationTicks": 12,
          "midi": 38,
          "name": "D2",
          "ticks": 38112,
          "time": 117.92091,
          "velocity": 0.8976377952755905
        },
        {
          "duration": 0.14851500000000328,
          "durationTicks": 48,
          "midi": 40,
          "name": "E2",
          "ticks": 38160,
          "time": 118.06942500000001,
          "velocity": 0.8976377952755905
        },
        {
          "duration": 0.037128749999993715,
          "durationTicks": 12,
          "midi": 40,
          "name": "E2",
          "ticks": 38208,
          "time": 118.21794000000001,
          "velocity": 0.8976377952755905
        },
        {
          "duration": 0.037128750000007926,
          "durationTicks": 12,
          "midi": 40,
          "name": "E2",
          "ticks": 38232,
          "time": 118.2921975,
          "velocity": 0.8976377952755905
        },
        {
          "duration": 0.037128750000007926,
          "durationTicks": 12,
          "midi": 40,
          "name": "E2",
          "ticks": 38256,
          "time": 118.366455,
          "velocity": 0.8976377952755905
        },
        {
          "duration": 0.14851500000000328,
          "durationTicks": 48,
          "midi": 43,
          "name": "G2",
          "ticks": 38304,
          "time": 118.51497,
          "velocity": 0.8976377952755905
        },
        {
          "duration": 0.07425750000000164,
          "durationTicks": 24,
          "midi": 45,
          "name": "A2",
          "ticks": 38688,
          "time": 119.70309,
          "velocity": 0.8976377952755905
        },
        {
          "duration": 0.07425750000000164,
          "durationTicks": 24,
          "midi": 33,
          "name": "A1",
          "ticks": 38712,
          "time": 119.7773475,
          "velocity": 0.8976377952755905
        },
        {
          "duration": 0.07425750000000164,
          "durationTicks": 24,
          "midi": 45,
          "name": "A2",
          "ticks": 38736,
          "time": 119.851605,
          "velocity": 0.8976377952755905
        },
        {
          "duration": 0.07425750000000164,
          "durationTicks": 24,
          "midi": 33,
          "name": "A1",
          "ticks": 38760,
          "time": 119.92586250000001,
          "velocity": 0.8976377952755905
        },
        {
          "duration": 0.14851500000000328,
          "durationTicks": 48,
          "midi": 38,
          "name": "D2",
          "ticks": 38784,
          "time": 120.00012000000001,
          "velocity": 0.8976377952755905
        },
        {
          "duration": 0.037128749999993715,
          "durationTicks": 12,
          "midi": 38,
          "name": "D2",
          "ticks": 38832,
          "time": 120.14863500000001,
          "velocity": 0.8976377952755905
        },
        {
          "duration": 0.037128750000007926,
          "durationTicks": 12,
          "midi": 38,
          "name": "D2",
          "ticks": 38856,
          "time": 120.2228925,
          "velocity": 0.8976377952755905
        },
        {
          "duration": 0.037128750000007926,
          "durationTicks": 12,
          "midi": 38,
          "name": "D2",
          "ticks": 38880,
          "time": 120.29715,
          "velocity": 0.8976377952755905
        },
        {
          "duration": 0.14851500000000328,
          "durationTicks": 48,
          "midi": 40,
          "name": "E2",
          "ticks": 38928,
          "time": 120.445665,
          "velocity": 0.8976377952755905
        },
        {
          "duration": 0.037128749999993715,
          "durationTicks": 12,
          "midi": 40,
          "name": "E2",
          "ticks": 38976,
          "time": 120.59418000000001,
          "velocity": 0.8976377952755905
        },
        {
          "duration": 0.037128749999993715,
          "durationTicks": 12,
          "midi": 40,
          "name": "E2",
          "ticks": 39000,
          "time": 120.66843750000001,
          "velocity": 0.8976377952755905
        },
        {
          "duration": 0.037128749999993715,
          "durationTicks": 12,
          "midi": 40,
          "name": "E2",
          "ticks": 39024,
          "time": 120.74269500000001,
          "velocity": 0.8976377952755905
        },
        {
          "duration": 0.14851500000000328,
          "durationTicks": 48,
          "midi": 33,
          "name": "A1",
          "ticks": 39072,
          "time": 120.89121,
          "velocity": 0.8976377952755905
        },
        {
          "duration": 0.07425749999998743,
          "durationTicks": 24,
          "midi": 45,
          "name": "A2",
          "ticks": 39456,
          "time": 122.07933000000001,
          "velocity": 0.8976377952755905
        },
        {
          "duration": 0.07425750000000164,
          "durationTicks": 24,
          "midi": 33,
          "name": "A1",
          "ticks": 39480,
          "time": 122.1535875,
          "velocity": 0.8976377952755905
        },
        {
          "duration": 0.07425750000000164,
          "durationTicks": 24,
          "midi": 45,
          "name": "A2",
          "ticks": 39504,
          "time": 122.227845,
          "velocity": 0.8976377952755905
        },
        {
          "duration": 0.07425750000000164,
          "durationTicks": 24,
          "midi": 33,
          "name": "A1",
          "ticks": 39528,
          "time": 122.3021025,
          "velocity": 0.8976377952755905
        },
        {
          "duration": 0.14851500000000328,
          "durationTicks": 48,
          "midi": 38,
          "name": "D2",
          "ticks": 39552,
          "time": 122.37636,
          "velocity": 0.8976377952755905
        },
        {
          "duration": 0.037128749999993715,
          "durationTicks": 12,
          "midi": 38,
          "name": "D2",
          "ticks": 39600,
          "time": 122.52487500000001,
          "velocity": 0.8976377952755905
        },
        {
          "duration": 0.037128749999993715,
          "durationTicks": 12,
          "midi": 38,
          "name": "D2",
          "ticks": 39624,
          "time": 122.59913250000001,
          "velocity": 0.8976377952755905
        },
        {
          "duration": 0.037128749999993715,
          "durationTicks": 12,
          "midi": 38,
          "name": "D2",
          "ticks": 39648,
          "time": 122.67339000000001,
          "velocity": 0.8976377952755905
        },
        {
          "duration": 0.14851500000000328,
          "durationTicks": 48,
          "midi": 40,
          "name": "E2",
          "ticks": 39696,
          "time": 122.821905,
          "velocity": 0.8976377952755905
        },
        {
          "duration": 0.037128750000007926,
          "durationTicks": 12,
          "midi": 40,
          "name": "E2",
          "ticks": 39744,
          "time": 122.97042,
          "velocity": 0.8976377952755905
        },
        {
          "duration": 0.037128749999993715,
          "durationTicks": 12,
          "midi": 40,
          "name": "E2",
          "ticks": 39768,
          "time": 123.0446775,
          "velocity": 0.8976377952755905
        },
        {
          "duration": 0.037128749999993715,
          "durationTicks": 12,
          "midi": 40,
          "name": "E2",
          "ticks": 39792,
          "time": 123.11893500000001,
          "velocity": 0.8976377952755905
        },
        {
          "duration": 0.14851499999998907,
          "durationTicks": 48,
          "midi": 33,
          "name": "A1",
          "ticks": 39840,
          "time": 123.26745000000001,
          "velocity": 0.8976377952755905
        }
      ],
      "endOfTrackTicks": 39938
    },
    {
      "channel": 8,
      "controlChanges": {
        "6": [
          {
            "number": 6,
            "ticks": 0,
            "time": 0,
            "value": 0.09448818897637795
          },
          {
            "number": 6,
            "ticks": 0,
            "time": 0,
            "value": 0.09448818897637795
          },
          {
            "number": 6,
            "ticks": 0,
            "time": 0,
            "value": 0.09448818897637795
          },
          {
            "number": 6,
            "ticks": 39936,
            "time": 123.56448,
            "value": 0.09448818897637795
          },
          {
            "number": 6,
            "ticks": 39938,
            "time": 123.570668125,
            "value": 0.09448818897637795
          }
        ],
        "7": [
          {
            "number": 7,
            "ticks": 0,
            "time": 0,
            "value": 0.7874015748031497
          },
          {
            "number": 7,
            "ticks": 0,
            "time": 0,
            "value": 0.7874015748031497
          },
          {
            "number": 7,
            "ticks": 0,
            "time": 0,
            "value": 0.7874015748031497
          },
          {
            "number": 7,
            "ticks": 0,
            "time": 0,
            "value": 0.7874015748031497
          },
          {
            "number": 7,
            "ticks": 39936,
            "time": 123.56448,
            "value": 0.7874015748031497
          },
          {
            "number": 7,
            "ticks": 39938,
            "time": 123.570668125,
            "value": 0.7874015748031497
          }
        ],
        "10": [
          {
            "number": 10,
            "ticks": 0,
            "time": 0,
            "value": 0.5039370078740157
          },
          {
            "number": 10,
            "ticks": 0,
            "time": 0,
            "value": 0.5039370078740157
          },
          {
            "number": 10,
            "ticks": 0,
            "time": 0,
            "value": 0.5039370078740157
          },
          {
            "number": 10,
            "ticks": 0,
            "time": 0,
            "value": 0.5039370078740157
          },
          {
            "number": 10,
            "ticks": 39936,
            "time": 123.56448,
            "value": 0.5039370078740157
          },
          {
            "number": 10,
            "ticks": 39938,
            "time": 123.570668125,
            "value": 0.5039370078740157
          }
        ],
        "100": [
          {
            "number": 100,
            "ticks": 0,
            "time": 0,
            "value": 0
          },
          {
            "number": 100,
            "ticks": 0,
            "time": 0,
            "value": 0
          },
          {
            "number": 100,
            "ticks": 0,
            "time": 0,
            "value": 0
          },
          {
            "number": 100,
            "ticks": 39936,
            "time": 123.56448,
            "value": 0
          },
          {
            "number": 100,
            "ticks": 39938,
            "time": 123.570668125,
            "value": 0
          }
        ],
        "101": [
          {
            "number": 101,
            "ticks": 0,
            "time": 0,
            "value": 0
          },
          {
            "number": 101,
            "ticks": 0,
            "time": 0,
            "value": 0
          },
          {
            "number": 101,
            "ticks": 0,
            "time": 0,
            "value": 0
          },
          {
            "number": 101,
            "ticks": 39936,
            "time": 123.56448,
            "value": 0
          },
          {
            "number": 101,
            "ticks": 39938,
            "time": 123.570668125,
            "value": 0
          }
        ]
      },
      "pitchBends": [
        {
          "ticks": 0,
          "time": 0,
          "value": 0
        },
        {
          "ticks": 0,
          "time": 0,
          "value": 0
        },
        {
          "ticks": 0,
          "time": 0,
          "value": 0
        },
        {
          "ticks": 0,
          "time": 0,
          "value": 0
        },
        {
          "ticks": 39936,
          "time": 123.56448,
          "value": 0
        },
        {
          "ticks": 39938,
          "time": 123.570668125,
          "value": 0
        }
      ],
      "instrument": {
        "family": "piano",
        "number": 0,
        "name": "acoustic grand piano"
      },
      "name": "Pad",
      "notes": [
        {
          "duration": 0.44554500000000097,
          "durationTicks": 144,
          "midi": 59,
          "name": "B3",
          "ticks": 3456,
          "time": 10.69308,
          "velocity": 0.7559055118110236
        },
        {
          "duration": 0.44554500000000097,
          "durationTicks": 144,
          "midi": 52,
          "name": "E3",
          "ticks": 3456,
          "time": 10.69308,
          "velocity": 0.7559055118110236
        },
        {
          "duration": 0.44554500000000097,
          "durationTicks": 144,
          "midi": 63,
          "name": "D#4",
          "ticks": 3456,
          "time": 10.69308,
          "velocity": 0.7559055118110236
        },
        {
          "duration": 0.44554500000000097,
          "durationTicks": 144,
          "midi": 56,
          "name": "G#3",
          "ticks": 3456,
          "time": 10.69308,
          "velocity": 0.7559055118110236
        },
        {
          "duration": 0.7425749999999987,
          "durationTicks": 240,
          "midi": 54,
          "name": "F#3",
          "ticks": 3600,
          "time": 11.138625000000001,
          "velocity": 0.7559055118110236
        },
        {
          "duration": 0.7425749999999987,
          "durationTicks": 240,
          "midi": 58,
          "name": "A#3",
          "ticks": 3600,
          "time": 11.138625000000001,
          "velocity": 0.7559055118110236
        },
        {
          "duration": 0.7425749999999987,
          "durationTicks": 240,
          "midi": 61,
          "name": "C#4",
          "ticks": 3600,
          "time": 11.138625000000001,
          "velocity": 0.7559055118110236
        },
        {
          "duration": 0.44554500000000097,
          "durationTicks": 144,
          "midi": 55,
          "name": "G3",
          "ticks": 3840,
          "time": 11.8812,
          "velocity": 0.7559055118110236
        },
        {
          "duration": 0.44554500000000097,
          "durationTicks": 144,
          "midi": 58,
          "name": "A#3",
          "ticks": 3840,
          "time": 11.8812,
          "velocity": 0.7559055118110236
        },
        {
          "duration": 0.44554500000000097,
          "durationTicks": 144,
          "midi": 61,
          "name": "C#4",
          "ticks": 3840,
          "time": 11.8812,
          "velocity": 0.7559055118110236
        },
        {
          "duration": 0.7425750000000004,
          "durationTicks": 240,
          "midi": 63,
          "name": "D#4",
          "ticks": 3984,
          "time": 12.326745,
          "velocity": 0.7559055118110236
        },
        {
          "duration": 0.7425750000000004,
          "durationTicks": 240,
          "midi": 59,
          "name": "B3",
          "ticks": 3984,
          "time": 12.326745,
          "velocity": 0.7559055118110236
        },
        {
          "duration": 0.7425750000000004,
          "durationTicks": 240,
          "midi": 56,
          "name": "G#3",
          "ticks": 3984,
          "time": 12.326745,
          "velocity": 0.7559055118110236
        },
        {
          "duration": 0.4455449999999992,
          "durationTicks": 144,
          "midi": 59,
          "name": "B3",
          "ticks": 4224,
          "time": 13.069320000000001,
          "velocity": 0.7559055118110236
        },
        {
          "duration": 0.4455449999999992,
          "durationTicks": 144,
          "midi": 52,
          "name": "E3",
          "ticks": 4224,
          "time": 13.069320000000001,
          "velocity": 0.7559055118110236
        },
        {
          "duration": 0.4455449999999992,
          "durationTicks": 144,
          "midi": 63,
          "name": "D#4",
          "ticks": 4224,
          "time": 13.069320000000001,
          "velocity": 0.7559055118110236
        },
        {
          "duration": 0.4455449999999992,
          "durationTicks": 144,
          "midi": 56,
          "name": "G#3",
          "ticks": 4224,
          "time": 13.069320000000001,
          "velocity": 0.7559055118110236
        },
        {
          "duration": 0.7425750000000004,
          "durationTicks": 240,
          "midi": 54,
          "name": "F#3",
          "ticks": 4368,
          "time": 13.514865,
          "velocity": 0.7559055118110236
        },
        {
          "duration": 0.7425750000000004,
          "durationTicks": 240,
          "midi": 58,
          "name": "A#3",
          "ticks": 4368,
          "time": 13.514865,
          "velocity": 0.7559055118110236
        },
        {
          "duration": 0.7425750000000004,
          "durationTicks": 240,
          "midi": 61,
          "name": "C#4",
          "ticks": 4368,
          "time": 13.514865,
          "velocity": 0.7559055118110236
        },
        {
          "duration": 0.0990100000000016,
          "durationTicks": 32,
          "midi": 58,
          "name": "A#3",
          "ticks": 4608,
          "time": 14.25744,
          "velocity": 0.7559055118110236
        },
        {
          "duration": 0.0990100000000016,
          "durationTicks": 32,
          "midi": 55,
          "name": "G3",
          "ticks": 4608,
          "time": 14.25744,
          "velocity": 0.7559055118110236
        },
        {
          "duration": 0.0990100000000016,
          "durationTicks": 32,
          "midi": 61,
          "name": "C#4",
          "ticks": 4608,
          "time": 14.25744,
          "velocity": 0.7559055118110236
        },
        {
          "duration": 0.0990100000000016,
          "durationTicks": 32,
          "midi": 67,
          "name": "G4",
          "ticks": 4608,
          "time": 14.25744,
          "velocity": 0.7559055118110236
        },
        {
          "duration": 0.0990100000000016,
          "durationTicks": 32,
          "midi": 55,
          "name": "G3",
          "ticks": 4656,
          "time": 14.405955,
          "velocity": 0.7559055118110236
        },
        {
          "duration": 0.0990100000000016,
          "durationTicks": 32,
          "midi": 58,
          "name": "A#3",
          "ticks": 4656,
          "time": 14.405955,
          "velocity": 0.7559055118110236
        },
        {
          "duration": 0.0990100000000016,
          "durationTicks": 32,
          "midi": 61,
          "name": "C#4",
          "ticks": 4656,
          "time": 14.405955,
          "velocity": 0.7559055118110236
        },
        {
          "duration": 0.0990100000000016,
          "durationTicks": 32,
          "midi": 67,
          "name": "G4",
          "ticks": 4656,
          "time": 14.405955,
          "velocity": 0.7559055118110236
        },
        {
          "duration": 0.7425750000000004,
          "durationTicks": 240,
          "midi": 66,
          "name": "F#4",
          "ticks": 4752,
          "time": 14.702985,
          "velocity": 0.7559055118110236
        },
        {
          "duration": 0.7425750000000004,
          "durationTicks": 240,
          "midi": 56,
          "name": "G#3",
          "ticks": 4752,
          "time": 14.702985,
          "velocity": 0.7559055118110236
        },
        {
          "duration": 0.7425750000000004,
          "durationTicks": 240,
          "midi": 59,
          "name": "B3",
          "ticks": 4752,
          "time": 14.702985,
          "velocity": 0.7559055118110236
        },
        {
          "duration": 0.7425750000000004,
          "durationTicks": 240,
          "midi": 63,
          "name": "D#4",
          "ticks": 4752,
          "time": 14.702985,
          "velocity": 0.7559055118110236
        },
        {
          "duration": 0.44554500000000097,
          "durationTicks": 144,
          "midi": 59,
          "name": "B3",
          "ticks": 4992,
          "time": 15.44556,
          "velocity": 0.7559055118110236
        },
        {
          "duration": 0.44554500000000097,
          "durationTicks": 144,
          "midi": 52,
          "name": "E3",
          "ticks": 4992,
          "time": 15.44556,
          "velocity": 0.7559055118110236
        },
        {
          "duration": 0.44554500000000097,
          "durationTicks": 144,
          "midi": 63,
          "name": "D#4",
          "ticks": 4992,
          "time": 15.44556,
          "velocity": 0.7559055118110236
        },
        {
          "duration": 0.44554500000000097,
          "durationTicks": 144,
          "midi": 56,
          "name": "G#3",
          "ticks": 4992,
          "time": 15.44556,
          "velocity": 0.7559055118110236
        },
        {
          "duration": 0.7425750000000004,
          "durationTicks": 240,
          "midi": 61,
          "name": "C#4",
          "ticks": 5136,
          "time": 15.891105000000001,
          "velocity": 0.7559055118110236
        },
        {
          "duration": 0.7425750000000004,
          "durationTicks": 240,
          "midi": 58,
          "name": "A#3",
          "ticks": 5136,
          "time": 15.891105000000001,
          "velocity": 0.7559055118110236
        },
        {
          "duration": 0.7425750000000004,
          "durationTicks": 240,
          "midi": 54,
          "name": "F#3",
          "ticks": 5136,
          "time": 15.891105000000001,
          "velocity": 0.7559055118110236
        },
        {
          "duration": 0.4455449999999992,
          "durationTicks": 144,
          "midi": 55,
          "name": "G3",
          "ticks": 5376,
          "time": 16.633680000000002,
          "velocity": 0.7559055118110236
        },
        {
          "duration": 0.4455449999999992,
          "durationTicks": 144,
          "midi": 58,
          "name": "A#3",
          "ticks": 5376,
          "time": 16.633680000000002,
          "velocity": 0.7559055118110236
        },
        {
          "duration": 0.4455449999999992,
          "durationTicks": 144,
          "midi": 61,
          "name": "C#4",
          "ticks": 5376,
          "time": 16.633680000000002,
          "velocity": 0.7559055118110236
        },
        {
          "duration": 0.7425749999999987,
          "durationTicks": 240,
          "midi": 63,
          "name": "D#4",
          "ticks": 5520,
          "time": 17.079225,
          "velocity": 0.7559055118110236
        },
        {
          "duration": 0.7425749999999987,
          "durationTicks": 240,
          "midi": 59,
          "name": "B3",
          "ticks": 5520,
          "time": 17.079225,
          "velocity": 0.7559055118110236
        },
        {
          "duration": 0.7425749999999987,
          "durationTicks": 240,
          "midi": 56,
          "name": "G#3",
          "ticks": 5520,
          "time": 17.079225,
          "velocity": 0.7559055118110236
        },
        {
          "duration": 0.297030000000003,
          "durationTicks": 96,
          "midi": 56,
          "name": "G#3",
          "ticks": 5760,
          "time": 17.8218,
          "velocity": 0.7559055118110236
        },
        {
          "duration": 0.297030000000003,
          "durationTicks": 96,
          "midi": 63,
          "name": "D#4",
          "ticks": 5760,
          "time": 17.8218,
          "velocity": 0.7559055118110236
        },
        {
          "duration": 0.297030000000003,
          "durationTicks": 96,
          "midi": 52,
          "name": "E3",
          "ticks": 5760,
          "time": 17.8218,
          "velocity": 0.7559055118110236
        },
        {
          "duration": 0.297030000000003,
          "durationTicks": 96,
          "midi": 59,
          "name": "B3",
          "ticks": 5760,
          "time": 17.8218,
          "velocity": 0.7559055118110236
        },
        {
          "duration": 0.09900999999999982,
          "durationTicks": 32,
          "midi": 61,
          "name": "C#4",
          "ticks": 6048,
          "time": 18.71289,
          "velocity": 0.7559055118110236
        },
        {
          "duration": 0.09900999999999982,
          "durationTicks": 32,
          "midi": 58,
          "name": "A#3",
          "ticks": 6048,
          "time": 18.71289,
          "velocity": 0.7559055118110236
        },
        {
          "duration": 0.09900999999999982,
          "durationTicks": 32,
          "midi": 55,
          "name": "G3",
          "ticks": 6048,
          "time": 18.71289,
          "velocity": 0.7559055118110236
        },
        {
          "duration": 0.7425749999999987,
          "durationTicks": 240,
          "midi": 63,
          "name": "D#4",
          "ticks": 6096,
          "time": 18.861405,
          "velocity": 0.7559055118110236
        },
        {
          "duration": 0.7425749999999987,
          "durationTicks": 240,
          "midi": 59,
          "name": "B3",
          "ticks": 6096,
          "time": 18.861405,
          "velocity": 0.7559055118110236
        },
        {
          "duration": 0.7425749999999987,
          "durationTicks": 240,
          "midi": 56,
          "name": "G#3",
          "ticks": 6096,
          "time": 18.861405,
          "velocity": 0.7559055118110236
        },
        {
          "duration": 4.15842,
          "durationTicks": 1344,
          "midi": 51,
          "name": "D#3",
          "ticks": 6528,
          "time": 20.198040000000002,
          "velocity": 0.7559055118110236
        },
        {
          "duration": 4.15842,
          "durationTicks": 1344,
          "midi": 48,
          "name": "C3",
          "ticks": 6528,
          "time": 20.198040000000002,
          "velocity": 0.7559055118110236
        },
        {
          "duration": 4.15842,
          "durationTicks": 1344,
          "midi": 44,
          "name": "G#2",
          "ticks": 6528,
          "time": 20.198040000000002,
          "velocity": 0.7559055118110236
        },
        {
          "duration": 0.5940599999999989,
          "durationTicks": 192,
          "midi": 53,
          "name": "F3",
          "ticks": 7872,
          "time": 24.356460000000002,
          "velocity": 0.7559055118110236
        },
        {
          "duration": 0.5940599999999989,
          "durationTicks": 192,
          "midi": 43,
          "name": "G2",
          "ticks": 7872,
          "time": 24.356460000000002,
          "velocity": 0.7559055118110236
        },
        {
          "duration": 0.5940599999999989,
          "durationTicks": 192,
          "midi": 50,
          "name": "D3",
          "ticks": 7872,
          "time": 24.356460000000002,
          "velocity": 0.7559055118110236
        },
        {
          "duration": 0.5940599999999989,
          "durationTicks": 192,
          "midi": 46,
          "name": "A#2",
          "ticks": 7872,
          "time": 24.356460000000002,
          "velocity": 0.7559055118110236
        },
        {
          "duration": 4.752480000000002,
          "durationTicks": 1536,
          "midi": 48,
          "name": "C3",
          "ticks": 8064,
          "time": 24.95052,
          "velocity": 0.7559055118110236
        },
        {
          "duration": 4.752480000000002,
          "durationTicks": 1536,
          "midi": 55,
          "name": "G3",
          "ticks": 8064,
          "time": 24.95052,
          "velocity": 0.7559055118110236
        },
        {
          "duration": 4.752480000000002,
          "durationTicks": 1536,
          "midi": 51,
          "name": "D#3",
          "ticks": 8064,
          "time": 24.95052,
          "velocity": 0.7559055118110236
        },
        {
          "duration": 4.752480000000002,
          "durationTicks": 1536,
          "midi": 58,
          "name": "A#3",
          "ticks": 8064,
          "time": 24.95052,
          "velocity": 0.7559055118110236
        },
        {
          "duration": 4.15842,
          "durationTicks": 1344,
          "midi": 51,
          "name": "D#3",
          "ticks": 9600,
          "time": 29.703000000000003,
          "velocity": 0.7559055118110236
        },
        {
          "duration": 4.15842,
          "durationTicks": 1344,
          "midi": 48,
          "name": "C3",
          "ticks": 9600,
          "time": 29.703000000000003,
          "velocity": 0.7559055118110236
        },
        {
          "duration": 4.15842,
          "durationTicks": 1344,
          "midi": 44,
          "name": "G#2",
          "ticks": 9600,
          "time": 29.703000000000003,
          "velocity": 0.7559055118110236
        },
        {
          "duration": 0.5940599999999989,
          "durationTicks": 192,
          "midi": 53,
          "name": "F3",
          "ticks": 10944,
          "time": 33.86142,
          "velocity": 0.7559055118110236
        },
        {
          "duration": 0.5940599999999989,
          "durationTicks": 192,
          "midi": 46,
          "name": "A#2",
          "ticks": 10944,
          "time": 33.86142,
          "velocity": 0.7559055118110236
        },
        {
          "duration": 0.5940599999999989,
          "durationTicks": 192,
          "midi": 43,
          "name": "G2",
          "ticks": 10944,
          "time": 33.86142,
          "velocity": 0.7559055118110236
        },
        {
          "duration": 0.5940599999999989,
          "durationTicks": 192,
          "midi": 50,
          "name": "D3",
          "ticks": 10944,
          "time": 33.86142,
          "velocity": 0.7559055118110236
        },
        {
          "duration": 2.376240000000003,
          "durationTicks": 768,
          "midi": 58,
          "name": "A#3",
          "ticks": 11136,
          "time": 34.45548,
          "velocity": 0.7559055118110236
        },
        {
          "duration": 2.376240000000003,
          "durationTicks": 768,
          "midi": 51,
          "name": "D#3",
          "ticks": 11136,
          "time": 34.45548,
          "velocity": 0.7559055118110236
        },
        {
          "duration": 2.376240000000003,
          "durationTicks": 768,
          "midi": 48,
          "name": "C3",
          "ticks": 11136,
          "time": 34.45548,
          "velocity": 0.7559055118110236
        },
        {
          "duration": 2.3762399999999957,
          "durationTicks": 768,
          "midi": 55,
          "name": "G3",
          "ticks": 11152,
          "time": 34.504985000000005,
          "velocity": 0.7559055118110236
        },
        {
          "duration": 0.5940599999999989,
          "durationTicks": 192,
          "midi": 57,
          "name": "A3",
          "ticks": 21888,
          "time": 67.72284,
          "velocity": 0.7322834645669292
        },
        {
          "duration": 0.5940599999999989,
          "durationTicks": 192,
          "midi": 61,
          "name": "C#4",
          "ticks": 21888,
          "time": 67.72284,
          "velocity": 0.7322834645669292
        },
        {
          "duration": 0.5940599999999989,
          "durationTicks": 192,
          "midi": 64,
          "name": "E4",
          "ticks": 21888,
          "time": 67.72284,
          "velocity": 0.7322834645669292
        },
        {
          "duration": 0.5940599999999989,
          "durationTicks": 192,
          "midi": 68,
          "name": "G#4",
          "ticks": 21888,
          "time": 67.72284,
          "velocity": 0.7322834645669292
        },
        {
          "duration": 0.5940599999999989,
          "durationTicks": 192,
          "midi": 63,
          "name": "D#4",
          "ticks": 22080,
          "time": 68.3169,
          "velocity": 0.7322834645669292
        },
        {
          "duration": 0.5940599999999989,
          "durationTicks": 192,
          "midi": 60,
          "name": "C4",
          "ticks": 22080,
          "time": 68.3169,
          "velocity": 0.7322834645669292
        },
        {
          "duration": 0.5940599999999989,
          "durationTicks": 192,
          "midi": 66,
          "name": "F#4",
          "ticks": 22080,
          "time": 68.3169,
          "velocity": 0.7322834645669292
        },
        {
          "duration": 0.5940599999999989,
          "durationTicks": 192,
          "midi": 64,
          "name": "E4",
          "ticks": 22272,
          "time": 68.91096,
          "velocity": 0.7322834645669292
        },
        {
          "duration": 0.5940599999999989,
          "durationTicks": 192,
          "midi": 61,
          "name": "C#4",
          "ticks": 22272,
          "time": 68.91096,
          "velocity": 0.7322834645669292
        },
        {
          "duration": 0.5940599999999989,
          "durationTicks": 192,
          "midi": 68,
          "name": "G#4",
          "ticks": 22272,
          "time": 68.91096,
          "velocity": 0.7322834645669292
        },
        {
          "duration": 0.5940599999999989,
          "durationTicks": 192,
          "midi": 64,
          "name": "E4",
          "ticks": 22464,
          "time": 69.50502,
          "velocity": 0.7322834645669292
        },
        {
          "duration": 0.5940599999999989,
          "durationTicks": 192,
          "midi": 61,
          "name": "C#4",
          "ticks": 22464,
          "time": 69.50502,
          "velocity": 0.7322834645669292
        },
        {
          "duration": 0.5940599999999989,
          "durationTicks": 192,
          "midi": 58,
          "name": "A#3",
          "ticks": 22464,
          "time": 69.50502,
          "velocity": 0.7322834645669292
        },
        {
          "duration": 0.5940599999999989,
          "durationTicks": 192,
          "midi": 68,
          "name": "G#4",
          "ticks": 22464,
          "time": 69.50502,
          "velocity": 0.7322834645669292
        },
        {
          "duration": 0.5940599999999989,
          "durationTicks": 192,
          "midi": 57,
          "name": "A3",
          "ticks": 22656,
          "time": 70.09908,
          "velocity": 0.7322834645669292
        },
        {
          "duration": 0.5940599999999989,
          "durationTicks": 192,
          "midi": 61,
          "name": "C#4",
          "ticks": 22656,
          "time": 70.09908,
          "velocity": 0.7322834645669292
        },
        {
          "duration": 0.5940599999999989,
          "durationTicks": 192,
          "midi": 64,
          "name": "E4",
          "ticks": 22656,
          "time": 70.09908,
          "velocity": 0.7322834645669292
        },
        {
          "duration": 0.5940599999999989,
          "durationTicks": 192,
          "midi": 60,
          "name": "C4",
          "ticks": 22848,
          "time": 70.69314,
          "velocity": 0.7322834645669292
        },
        {
          "duration": 0.5940599999999989,
          "durationTicks": 192,
          "midi": 66,
          "name": "F#4",
          "ticks": 22848,
          "time": 70.69314,
          "velocity": 0.7322834645669292
        },
        {
          "duration": 0.5940599999999989,
          "durationTicks": 192,
          "midi": 63,
          "name": "D#4",
          "ticks": 22848,
          "time": 70.69314,
          "velocity": 0.7322834645669292
        },
        {
          "duration": 1.188120000000012,
          "durationTicks": 384,
          "midi": 68,
          "name": "G#4",
          "ticks": 23040,
          "time": 71.2872,
          "velocity": 0.7322834645669292
        },
        {
          "duration": 1.188120000000012,
          "durationTicks": 384,
          "midi": 64,
          "name": "E4",
          "ticks": 23040,
          "time": 71.2872,
          "velocity": 0.7322834645669292
        },
        {
          "duration": 1.188120000000012,
          "durationTicks": 384,
          "midi": 61,
          "name": "C#4",
          "ticks": 23040,
          "time": 71.2872,
          "velocity": 0.7322834645669292
        },
        {
          "duration": 0.5940599999999989,
          "durationTicks": 192,
          "midi": 57,
          "name": "A3",
          "ticks": 23424,
          "time": 72.47532000000001,
          "velocity": 0.7322834645669292
        },
        {
          "duration": 0.5940599999999989,
          "durationTicks": 192,
          "midi": 61,
          "name": "C#4",
          "ticks": 23424,
          "time": 72.47532000000001,
          "velocity": 0.7322834645669292
        },
        {
          "duration": 0.5940599999999989,
          "durationTicks": 192,
          "midi": 64,
          "name": "E4",
          "ticks": 23424,
          "time": 72.47532000000001,
          "velocity": 0.7322834645669292
        },
        {
          "duration": 0.5940599999999989,
          "durationTicks": 192,
          "midi": 68,
          "name": "G#4",
          "ticks": 23424,
          "time": 72.47532000000001,
          "velocity": 0.7322834645669292
        },
        {
          "duration": 0.5940599999999989,
          "durationTicks": 192,
          "midi": 66,
          "name": "F#4",
          "ticks": 23616,
          "time": 73.06938000000001,
          "velocity": 0.7322834645669292
        },
        {
          "duration": 0.5940599999999989,
          "durationTicks": 192,
          "midi": 60,
          "name": "C4",
          "ticks": 23616,
          "time": 73.06938000000001,
          "velocity": 0.7322834645669292
        },
        {
          "duration": 0.5940599999999989,
          "durationTicks": 192,
          "midi": 63,
          "name": "D#4",
          "ticks": 23616,
          "time": 73.06938000000001,
          "velocity": 0.7322834645669292
        },
        {
          "duration": 0.5940599999999989,
          "durationTicks": 192,
          "midi": 64,
          "name": "E4",
          "ticks": 23808,
          "time": 73.66344000000001,
          "velocity": 0.7322834645669292
        },
        {
          "duration": 0.5940599999999989,
          "durationTicks": 192,
          "midi": 61,
          "name": "C#4",
          "ticks": 23808,
          "time": 73.66344000000001,
          "velocity": 0.7322834645669292
        },
        {
          "duration": 0.5940599999999989,
          "durationTicks": 192,
          "midi": 68,
          "name": "G#4",
          "ticks": 23808,
          "time": 73.66344000000001,
          "velocity": 0.7322834645669292
        },
        {
          "duration": 0.5940599999999989,
          "durationTicks": 192,
          "midi": 68,
          "name": "G#4",
          "ticks": 24000,
          "time": 74.25750000000001,
          "velocity": 0.7322834645669292
        },
        {
          "duration": 0.5940599999999989,
          "durationTicks": 192,
          "midi": 58,
          "name": "A#3",
          "ticks": 24000,
          "time": 74.25750000000001,
          "velocity": 0.7322834645669292
        },
        {
          "duration": 0.5940599999999989,
          "durationTicks": 192,
          "midi": 61,
          "name": "C#4",
          "ticks": 24000,
          "time": 74.25750000000001,
          "velocity": 0.7322834645669292
        },
        {
          "duration": 0.5940599999999989,
          "durationTicks": 192,
          "midi": 64,
          "name": "E4",
          "ticks": 24000,
          "time": 74.25750000000001,
          "velocity": 0.7322834645669292
        },
        {
          "duration": 0.5940599999999989,
          "durationTicks": 192,
          "midi": 68,
          "name": "G#4",
          "ticks": 24192,
          "time": 74.85156,
          "velocity": 0.7322834645669292
        },
        {
          "duration": 0.5940599999999989,
          "durationTicks": 192,
          "midi": 64,
          "name": "E4",
          "ticks": 24192,
          "time": 74.85156,
          "velocity": 0.7322834645669292
        },
        {
          "duration": 0.5940599999999989,
          "durationTicks": 192,
          "midi": 61,
          "name": "C#4",
          "ticks": 24192,
          "time": 74.85156,
          "velocity": 0.7322834645669292
        },
        {
          "duration": 0.5940599999999989,
          "durationTicks": 192,
          "midi": 57,
          "name": "A3",
          "ticks": 24192,
          "time": 74.85156,
          "velocity": 0.7322834645669292
        },
        {
          "duration": 0.5940599999999989,
          "durationTicks": 192,
          "midi": 60,
          "name": "C4",
          "ticks": 24384,
          "time": 75.44562,
          "velocity": 0.7322834645669292
        },
        {
          "duration": 0.5940599999999989,
          "durationTicks": 192,
          "midi": 66,
          "name": "F#4",
          "ticks": 24384,
          "time": 75.44562,
          "velocity": 0.7322834645669292
        },
        {
          "duration": 0.5940599999999989,
          "durationTicks": 192,
          "midi": 63,
          "name": "D#4",
          "ticks": 24384,
          "time": 75.44562,
          "velocity": 0.7322834645669292
        },
        {
          "duration": 0.14851499999998907,
          "durationTicks": 48,
          "midi": 66,
          "name": "F#4",
          "ticks": 24672,
          "time": 76.33671000000001,
          "velocity": 0.8031496062992126
        },
        {
          "duration": 0.14851500000000328,
          "durationTicks": 48,
          "midi": 64,
          "name": "E4",
          "ticks": 24768,
          "time": 76.63374,
          "velocity": 0.8031496062992126
        },
        {
          "duration": 0.14851499999998907,
          "durationTicks": 48,
          "midi": 63,
          "name": "D#4",
          "ticks": 24864,
          "time": 76.93077000000001,
          "velocity": 0.8031496062992126
        },
        {
          "duration": 0.5940599999999989,
          "durationTicks": 192,
          "midi": 57,
          "name": "A3",
          "ticks": 24960,
          "time": 77.2278,
          "velocity": 0.7716535433070866
        },
        {
          "duration": 0.5940599999999989,
          "durationTicks": 192,
          "midi": 61,
          "name": "C#4",
          "ticks": 24960,
          "time": 77.2278,
          "velocity": 0.7716535433070866
        },
        {
          "duration": 0.5940599999999989,
          "durationTicks": 192,
          "midi": 64,
          "name": "E4",
          "ticks": 24960,
          "time": 77.2278,
          "velocity": 0.7716535433070866
        },
        {
          "duration": 0.5940599999999989,
          "durationTicks": 192,
          "midi": 68,
          "name": "G#4",
          "ticks": 24960,
          "time": 77.2278,
          "velocity": 0.7716535433070866
        },
        {
          "duration": 0.5940599999999989,
          "durationTicks": 192,
          "midi": 66,
          "name": "F#4",
          "ticks": 25152,
          "time": 77.82186,
          "velocity": 0.7716535433070866
        },
        {
          "duration": 0.5940599999999989,
          "durationTicks": 192,
          "midi": 60,
          "name": "C4",
          "ticks": 25152,
          "time": 77.82186,
          "velocity": 0.7716535433070866
        },
        {
          "duration": 0.5940599999999989,
          "durationTicks": 192,
          "midi": 63,
          "name": "D#4",
          "ticks": 25152,
          "time": 77.82186,
          "velocity": 0.7716535433070866
        },
        {
          "duration": 0.5940599999999989,
          "durationTicks": 192,
          "midi": 68,
          "name": "G#4",
          "ticks": 25344,
          "time": 78.41592,
          "velocity": 0.7716535433070866
        },
        {
          "duration": 0.5940599999999989,
          "durationTicks": 192,
          "midi": 61,
          "name": "C#4",
          "ticks": 25344,
          "time": 78.41592,
          "velocity": 0.7716535433070866
        },
        {
          "duration": 0.5940599999999989,
          "durationTicks": 192,
          "midi": 64,
          "name": "E4",
          "ticks": 25344,
          "time": 78.41592,
          "velocity": 0.7716535433070866
        },
        {
          "duration": 0.5940599999999989,
          "durationTicks": 192,
          "midi": 68,
          "name": "G#4",
          "ticks": 25536,
          "time": 79.00998,
          "velocity": 0.7716535433070866
        },
        {
          "duration": 0.5940599999999989,
          "durationTicks": 192,
          "midi": 58,
          "name": "A#3",
          "ticks": 25536,
          "time": 79.00998,
          "velocity": 0.7716535433070866
        },
        {
          "duration": 0.5940599999999989,
          "durationTicks": 192,
          "midi": 61,
          "name": "C#4",
          "ticks": 25536,
          "time": 79.00998,
          "velocity": 0.7716535433070866
        },
        {
          "duration": 0.5940599999999989,
          "durationTicks": 192,
          "midi": 64,
          "name": "E4",
          "ticks": 25536,
          "time": 79.00998,
          "velocity": 0.7716535433070866
        },
        {
          "duration": 0.5940600000000131,
          "durationTicks": 192,
          "midi": 57,
          "name": "A3",
          "ticks": 25728,
          "time": 79.60404,
          "velocity": 0.7716535433070866
        },
        {
          "duration": 0.5940600000000131,
          "durationTicks": 192,
          "midi": 61,
          "name": "C#4",
          "ticks": 25728,
          "time": 79.60404,
          "velocity": 0.7716535433070866
        },
        {
          "duration": 0.5940600000000131,
          "durationTicks": 192,
          "midi": 64,
          "name": "E4",
          "ticks": 25728,
          "time": 79.60404,
          "velocity": 0.7716535433070866
        },
        {
          "duration": 0.5940599999999989,
          "durationTicks": 192,
          "midi": 63,
          "name": "D#4",
          "ticks": 25920,
          "time": 80.19810000000001,
          "velocity": 0.7716535433070866
        },
        {
          "duration": 0.5940599999999989,
          "durationTicks": 192,
          "midi": 66,
          "name": "F#4",
          "ticks": 25920,
          "time": 80.19810000000001,
          "velocity": 0.7716535433070866
        },
        {
          "duration": 0.5940599999999989,
          "durationTicks": 192,
          "midi": 60,
          "name": "C4",
          "ticks": 25920,
          "time": 80.19810000000001,
          "velocity": 0.7716535433070866
        },
        {
          "duration": 1.1881199999999978,
          "durationTicks": 384,
          "midi": 61,
          "name": "C#4",
          "ticks": 26112,
          "time": 80.79216000000001,
          "velocity": 0.7716535433070866
        },
        {
          "duration": 1.1881199999999978,
          "durationTicks": 384,
          "midi": 64,
          "name": "E4",
          "ticks": 26112,
          "time": 80.79216000000001,
          "velocity": 0.7716535433070866
        },
        {
          "duration": 1.1881199999999978,
          "durationTicks": 384,
          "midi": 68,
          "name": "G#4",
          "ticks": 26112,
          "time": 80.79216000000001,
          "velocity": 0.7716535433070866
        },
        {
          "duration": 0.5940599999999989,
          "durationTicks": 192,
          "midi": 68,
          "name": "G#4",
          "ticks": 26496,
          "time": 81.98028000000001,
          "velocity": 0.7716535433070866
        },
        {
          "duration": 0.5940599999999989,
          "durationTicks": 192,
          "midi": 64,
          "name": "E4",
          "ticks": 26496,
          "time": 81.98028000000001,
          "velocity": 0.7716535433070866
        },
        {
          "duration": 0.5940599999999989,
          "durationTicks": 192,
          "midi": 61,
          "name": "C#4",
          "ticks": 26496,
          "time": 81.98028000000001,
          "velocity": 0.7716535433070866
        },
        {
          "duration": 0.5940599999999989,
          "durationTicks": 192,
          "midi": 57,
          "name": "A3",
          "ticks": 26496,
          "time": 81.98028000000001,
          "velocity": 0.7716535433070866
        },
        {
          "duration": 0.5940599999999989,
          "durationTicks": 192,
          "midi": 63,
          "name": "D#4",
          "ticks": 26688,
          "time": 82.57434,
          "velocity": 0.7716535433070866
        },
        {
          "duration": 0.5940599999999989,
          "durationTicks": 192,
          "midi": 60,
          "name": "C4",
          "ticks": 26688,
          "time": 82.57434,
          "velocity": 0.7716535433070866
        },
        {
          "duration": 0.5940599999999989,
          "durationTicks": 192,
          "midi": 66,
          "name": "F#4",
          "ticks": 26688,
          "time": 82.57434,
          "velocity": 0.7716535433070866
        },
        {
          "duration": 0.5940599999999989,
          "durationTicks": 192,
          "midi": 68,
          "name": "G#4",
          "ticks": 26880,
          "time": 83.1684,
          "velocity": 0.7716535433070866
        },
        {
          "duration": 0.5940599999999989,
          "durationTicks": 192,
          "midi": 61,
          "name": "C#4",
          "ticks": 26880,
          "time": 83.1684,
          "velocity": 0.7716535433070866
        },
        {
          "duration": 0.5940599999999989,
          "durationTicks": 192,
          "midi": 64,
          "name": "E4",
          "ticks": 26880,
          "time": 83.1684,
          "velocity": 0.7716535433070866
        },
        {
          "duration": 0.5940599999999989,
          "durationTicks": 192,
          "midi": 64,
          "name": "E4",
          "ticks": 27072,
          "time": 83.76246,
          "velocity": 0.7716535433070866
        },
        {
          "duration": 0.5940599999999989,
          "durationTicks": 192,
          "midi": 61,
          "name": "C#4",
          "ticks": 27072,
          "time": 83.76246,
          "velocity": 0.7716535433070866
        },
        {
          "duration": 0.5940599999999989,
          "durationTicks": 192,
          "midi": 58,
          "name": "A#3",
          "ticks": 27072,
          "time": 83.76246,
          "velocity": 0.7716535433070866
        },
        {
          "duration": 0.5940599999999989,
          "durationTicks": 192,
          "midi": 68,
          "name": "G#4",
          "ticks": 27072,
          "time": 83.76246,
          "velocity": 0.7716535433070866
        },
        {
          "duration": 0.5940599999999989,
          "durationTicks": 192,
          "midi": 64,
          "name": "E4",
          "ticks": 27264,
          "time": 84.35652,
          "velocity": 0.7716535433070866
        },
        {
          "duration": 0.5940599999999989,
          "durationTicks": 192,
          "midi": 61,
          "name": "C#4",
          "ticks": 27264,
          "time": 84.35652,
          "velocity": 0.7716535433070866
        },
        {
          "duration": 0.5940599999999989,
          "durationTicks": 192,
          "midi": 57,
          "name": "A3",
          "ticks": 27264,
          "time": 84.35652,
          "velocity": 0.7716535433070866
        },
        {
          "duration": 0.5940599999999989,
          "durationTicks": 192,
          "midi": 63,
          "name": "D#4",
          "ticks": 27456,
          "time": 84.95058,
          "velocity": 0.7716535433070866
        },
        {
          "duration": 0.5940599999999989,
          "durationTicks": 192,
          "midi": 66,
          "name": "F#4",
          "ticks": 27456,
          "time": 84.95058,
          "velocity": 0.7716535433070866
        },
        {
          "duration": 0.5940599999999989,
          "durationTicks": 192,
          "midi": 60,
          "name": "C4",
          "ticks": 27456,
          "time": 84.95058,
          "velocity": 0.7716535433070866
        },
        {
          "duration": 0.14851500000000328,
          "durationTicks": 48,
          "midi": 61,
          "name": "C#4",
          "ticks": 27648,
          "time": 85.54464,
          "velocity": 0.7716535433070866
        },
        {
          "duration": 0.14851500000000328,
          "durationTicks": 48,
          "midi": 64,
          "name": "E4",
          "ticks": 27648,
          "time": 85.54464,
          "velocity": 0.7716535433070866
        },
        {
          "duration": 0.14851500000000328,
          "durationTicks": 48,
          "midi": 68,
          "name": "G#4",
          "ticks": 27648,
          "time": 85.54464,
          "velocity": 0.7716535433070866
        },
        {
          "duration": 0.14851500000000328,
          "durationTicks": 48,
          "midi": 68,
          "name": "G#4",
          "ticks": 27720,
          "time": 85.7674125,
          "velocity": 0.7716535433070866
        },
        {
          "duration": 0.14851500000000328,
          "durationTicks": 48,
          "midi": 64,
          "name": "E4",
          "ticks": 27720,
          "time": 85.7674125,
          "velocity": 0.7716535433070866
        },
        {
          "duration": 0.14851500000000328,
          "durationTicks": 48,
          "midi": 61,
          "name": "C#4",
          "ticks": 27720,
          "time": 85.7674125,
          "velocity": 0.7716535433070866
        },
        {
          "duration": 0.14851499999998907,
          "durationTicks": 48,
          "midi": 68,
          "name": "G#4",
          "ticks": 27792,
          "time": 85.99018500000001,
          "velocity": 0.7716535433070866
        },
        {
          "duration": 0.14851499999998907,
          "durationTicks": 48,
          "midi": 64,
          "name": "E4",
          "ticks": 27792,
          "time": 85.99018500000001,
          "velocity": 0.7716535433070866
        },
        {
          "duration": 0.14851499999998907,
          "durationTicks": 48,
          "midi": 61,
          "name": "C#4",
          "ticks": 27792,
          "time": 85.99018500000001,
          "velocity": 0.7716535433070866
        },
        {
          "duration": 0.29703000000000657,
          "durationTicks": 96,
          "midi": 68,
          "name": "G#4",
          "ticks": 27840,
          "time": 86.1387,
          "velocity": 0.7716535433070866
        },
        {
          "duration": 0.29703000000000657,
          "durationTicks": 96,
          "midi": 64,
          "name": "E4",
          "ticks": 27840,
          "time": 86.1387,
          "velocity": 0.7716535433070866
        },
        {
          "duration": 0.29703000000000657,
          "durationTicks": 96,
          "midi": 61,
          "name": "C#4",
          "ticks": 27840,
          "time": 86.1387,
          "velocity": 0.7716535433070866
        },
        {
          "duration": 0.5940599999999989,
          "durationTicks": 192,
          "midi": 57,
          "name": "A3",
          "ticks": 28032,
          "time": 86.73276,
          "velocity": 0.7716535433070866
        },
        {
          "duration": 0.5940599999999989,
          "durationTicks": 192,
          "midi": 61,
          "name": "C#4",
          "ticks": 28032,
          "time": 86.73276,
          "velocity": 0.7716535433070866
        },
        {
          "duration": 0.5940599999999989,
          "durationTicks": 192,
          "midi": 64,
          "name": "E4",
          "ticks": 28032,
          "time": 86.73276,
          "velocity": 0.7716535433070866
        },
        {
          "duration": 0.5940599999999989,
          "durationTicks": 192,
          "midi": 68,
          "name": "G#4",
          "ticks": 28032,
          "time": 86.73276,
          "velocity": 0.7716535433070866
        },
        {
          "duration": 0.5940600000000131,
          "durationTicks": 192,
          "midi": 66,
          "name": "F#4",
          "ticks": 28224,
          "time": 87.32682,
          "velocity": 0.7716535433070866
        },
        {
          "duration": 0.5940600000000131,
          "durationTicks": 192,
          "midi": 60,
          "name": "C4",
          "ticks": 28224,
          "time": 87.32682,
          "velocity": 0.7716535433070866
        },
        {
          "duration": 0.5940600000000131,
          "durationTicks": 192,
          "midi": 63,
          "name": "D#4",
          "ticks": 28224,
          "time": 87.32682,
          "velocity": 0.7716535433070866
        },
        {
          "duration": 0.5940599999999989,
          "durationTicks": 192,
          "midi": 64,
          "name": "E4",
          "ticks": 28416,
          "time": 87.92088000000001,
          "velocity": 0.7716535433070866
        },
        {
          "duration": 0.5940599999999989,
          "durationTicks": 192,
          "midi": 61,
          "name": "C#4",
          "ticks": 28416,
          "time": 87.92088000000001,
          "velocity": 0.7716535433070866
        },
        {
          "duration": 0.5940599999999989,
          "durationTicks": 192,
          "midi": 68,
          "name": "G#4",
          "ticks": 28416,
          "time": 87.92088000000001,
          "velocity": 0.7716535433070866
        },
        {
          "duration": 0.5940599999999989,
          "durationTicks": 192,
          "midi": 64,
          "name": "E4",
          "ticks": 28608,
          "time": 88.51494000000001,
          "velocity": 0.7716535433070866
        },
        {
          "duration": 0.5940599999999989,
          "durationTicks": 192,
          "midi": 61,
          "name": "C#4",
          "ticks": 28608,
          "time": 88.51494000000001,
          "velocity": 0.7716535433070866
        },
        {
          "duration": 0.5940599999999989,
          "durationTicks": 192,
          "midi": 58,
          "name": "A#3",
          "ticks": 28608,
          "time": 88.51494000000001,
          "velocity": 0.7716535433070866
        },
        {
          "duration": 0.5940599999999989,
          "durationTicks": 192,
          "midi": 68,
          "name": "G#4",
          "ticks": 28608,
          "time": 88.51494000000001,
          "velocity": 0.7716535433070866
        },
        {
          "duration": 0.5940599999999989,
          "durationTicks": 192,
          "midi": 64,
          "name": "E4",
          "ticks": 28800,
          "time": 89.10900000000001,
          "velocity": 0.7716535433070866
        },
        {
          "duration": 0.5940599999999989,
          "durationTicks": 192,
          "midi": 61,
          "name": "C#4",
          "ticks": 28800,
          "time": 89.10900000000001,
          "velocity": 0.7716535433070866
        },
        {
          "duration": 0.5940599999999989,
          "durationTicks": 192,
          "midi": 57,
          "name": "A3",
          "ticks": 28800,
          "time": 89.10900000000001,
          "velocity": 0.7716535433070866
        },
        {
          "duration": 0.5940599999999989,
          "durationTicks": 192,
          "midi": 63,
          "name": "D#4",
          "ticks": 28992,
          "time": 89.70306000000001,
          "velocity": 0.7716535433070866
        },
        {
          "duration": 0.5940599999999989,
          "durationTicks": 192,
          "midi": 66,
          "name": "F#4",
          "ticks": 28992,
          "time": 89.70306000000001,
          "velocity": 0.7716535433070866
        },
        {
          "duration": 0.5940599999999989,
          "durationTicks": 192,
          "midi": 60,
          "name": "C4",
          "ticks": 28992,
          "time": 89.70306000000001,
          "velocity": 0.7716535433070866
        },
        {
          "duration": 1.1881199999999978,
          "durationTicks": 384,
          "midi": 68,
          "name": "G#4",
          "ticks": 29184,
          "time": 90.29712,
          "velocity": 0.7716535433070866
        },
        {
          "duration": 1.1881199999999978,
          "durationTicks": 384,
          "midi": 64,
          "name": "E4",
          "ticks": 29184,
          "time": 90.29712,
          "velocity": 0.7716535433070866
        },
        {
          "duration": 1.1881199999999978,
          "durationTicks": 384,
          "midi": 61,
          "name": "C#4",
          "ticks": 29184,
          "time": 90.29712,
          "velocity": 0.7716535433070866
        },
        {
          "duration": 0.5940599999999989,
          "durationTicks": 192,
          "midi": 68,
          "name": "G#4",
          "ticks": 29568,
          "time": 91.48524,
          "velocity": 0.7716535433070866
        },
        {
          "duration": 0.5940599999999989,
          "durationTicks": 192,
          "midi": 64,
          "name": "E4",
          "ticks": 29568,
          "time": 91.48524,
          "velocity": 0.7716535433070866
        },
        {
          "duration": 0.5940599999999989,
          "durationTicks": 192,
          "midi": 61,
          "name": "C#4",
          "ticks": 29568,
          "time": 91.48524,
          "velocity": 0.7716535433070866
        },
        {
          "duration": 0.5940599999999989,
          "durationTicks": 192,
          "midi": 57,
          "name": "A3",
          "ticks": 29568,
          "time": 91.48524,
          "velocity": 0.7716535433070866
        },
        {
          "duration": 0.5940599999999989,
          "durationTicks": 192,
          "midi": 63,
          "name": "D#4",
          "ticks": 29760,
          "time": 92.0793,
          "velocity": 0.7716535433070866
        },
        {
          "duration": 0.5940599999999989,
          "durationTicks": 192,
          "midi": 60,
          "name": "C4",
          "ticks": 29760,
          "time": 92.0793,
          "velocity": 0.7716535433070866
        },
        {
          "duration": 0.5940599999999989,
          "durationTicks": 192,
          "midi": 66,
          "name": "F#4",
          "ticks": 29760,
          "time": 92.0793,
          "velocity": 0.7716535433070866
        },
        {
          "duration": 0.5940599999999989,
          "durationTicks": 192,
          "midi": 68,
          "name": "G#4",
          "ticks": 29952,
          "time": 92.67336,
          "velocity": 0.7716535433070866
        },
        {
          "duration": 0.5940599999999989,
          "durationTicks": 192,
          "midi": 61,
          "name": "C#4",
          "ticks": 29952,
          "time": 92.67336,
          "velocity": 0.7716535433070866
        },
        {
          "duration": 0.5940599999999989,
          "durationTicks": 192,
          "midi": 64,
          "name": "E4",
          "ticks": 29952,
          "time": 92.67336,
          "velocity": 0.7716535433070866
        },
        {
          "duration": 0.5940599999999989,
          "durationTicks": 192,
          "midi": 57,
          "name": "A3",
          "ticks": 30336,
          "time": 93.86148,
          "velocity": 0.7716535433070866
        },
        {
          "duration": 0.5940599999999989,
          "durationTicks": 192,
          "midi": 61,
          "name": "C#4",
          "ticks": 30336,
          "time": 93.86148,
          "velocity": 0.7716535433070866
        },
        {
          "duration": 0.5940599999999989,
          "durationTicks": 192,
          "midi": 64,
          "name": "E4",
          "ticks": 30336,
          "time": 93.86148,
          "velocity": 0.7716535433070866
        },
        {
          "duration": 0.5940599999999989,
          "durationTicks": 192,
          "midi": 60,
          "name": "C4",
          "ticks": 30528,
          "time": 94.45554,
          "velocity": 0.7716535433070866
        },
        {
          "duration": 0.5940599999999989,
          "durationTicks": 192,
          "midi": 66,
          "name": "F#4",
          "ticks": 30528,
          "time": 94.45554,
          "velocity": 0.7716535433070866
        },
        {
          "duration": 0.5940599999999989,
          "durationTicks": 192,
          "midi": 63,
          "name": "D#4",
          "ticks": 30528,
          "time": 94.45554,
          "velocity": 0.7716535433070866
        },
        {
          "duration": 0.14851500000000328,
          "durationTicks": 48,
          "midi": 68,
          "name": "G#4",
          "ticks": 30720,
          "time": 95.0496,
          "velocity": 0.7716535433070866
        },
        {
          "duration": 0.14851500000000328,
          "durationTicks": 48,
          "midi": 64,
          "name": "E4",
          "ticks": 30720,
          "time": 95.0496,
          "velocity": 0.7716535433070866
        },
        {
          "duration": 0.14851500000000328,
          "durationTicks": 48,
          "midi": 61,
          "name": "C#4",
          "ticks": 30720,
          "time": 95.0496,
          "velocity": 0.7716535433070866
        },
        {
          "duration": 0.14851500000000328,
          "durationTicks": 48,
          "midi": 68,
          "name": "G#4",
          "ticks": 30792,
          "time": 95.2723725,
          "velocity": 0.7716535433070866
        },
        {
          "duration": 0.14851500000000328,
          "durationTicks": 48,
          "midi": 64,
          "name": "E4",
          "ticks": 30792,
          "time": 95.2723725,
          "velocity": 0.7716535433070866
        },
        {
          "duration": 0.14851500000000328,
          "durationTicks": 48,
          "midi": 61,
          "name": "C#4",
          "ticks": 30792,
          "time": 95.2723725,
          "velocity": 0.7716535433070866
        },
        {
          "duration": 0.14851500000000328,
          "durationTicks": 48,
          "midi": 68,
          "name": "G#4",
          "ticks": 30864,
          "time": 95.49514500000001,
          "velocity": 0.7716535433070866
        },
        {
          "duration": 0.14851500000000328,
          "durationTicks": 48,
          "midi": 64,
          "name": "E4",
          "ticks": 30864,
          "time": 95.49514500000001,
          "velocity": 0.7716535433070866
        },
        {
          "duration": 0.14851500000000328,
          "durationTicks": 48,
          "midi": 61,
          "name": "C#4",
          "ticks": 30864,
          "time": 95.49514500000001,
          "velocity": 0.7716535433070866
        },
        {
          "duration": 0.29702999999999236,
          "durationTicks": 96,
          "midi": 61,
          "name": "C#4",
          "ticks": 30912,
          "time": 95.64366000000001,
          "velocity": 0.7716535433070866
        },
        {
          "duration": 0.29702999999999236,
          "durationTicks": 96,
          "midi": 64,
          "name": "E4",
          "ticks": 30912,
          "time": 95.64366000000001,
          "velocity": 0.7716535433070866
        },
        {
          "duration": 0.29702999999999236,
          "durationTicks": 96,
          "midi": 68,
          "name": "G#4",
          "ticks": 30912,
          "time": 95.64366000000001,
          "velocity": 0.7716535433070866
        },
        {
          "duration": 0.29702999999999236,
          "durationTicks": 96,
          "midi": 57,
          "name": "A3",
          "ticks": 31104,
          "time": 96.23772000000001,
          "velocity": 0.7559055118110236
        },
        {
          "duration": 0.29702999999999236,
          "durationTicks": 96,
          "midi": 64,
          "name": "E4",
          "ticks": 31104,
          "time": 96.23772000000001,
          "velocity": 0.7559055118110236
        },
        {
          "duration": 0.29702999999999236,
          "durationTicks": 96,
          "midi": 53,
          "name": "F3",
          "ticks": 31104,
          "time": 96.23772000000001,
          "velocity": 0.7559055118110236
        },
        {
          "duration": 0.29702999999999236,
          "durationTicks": 96,
          "midi": 60,
          "name": "C4",
          "ticks": 31104,
          "time": 96.23772000000001,
          "velocity": 0.7559055118110236
        },
        {
          "duration": 0.3465350000000029,
          "durationTicks": 112,
          "midi": 55,
          "name": "G3",
          "ticks": 31248,
          "time": 96.683265,
          "velocity": 0.7559055118110236
        },
        {
          "duration": 0.3465350000000029,
          "durationTicks": 112,
          "midi": 59,
          "name": "B3",
          "ticks": 31248,
          "time": 96.683265,
          "velocity": 0.7559055118110236
        },
        {
          "duration": 0.3465350000000029,
          "durationTicks": 112,
          "midi": 62,
          "name": "D4",
          "ticks": 31248,
          "time": 96.683265,
          "velocity": 0.7559055118110236
        },
        {
          "duration": 0.29703000000000657,
          "durationTicks": 96,
          "midi": 55,
          "name": "G3",
          "ticks": 31392,
          "time": 97.12881,
          "velocity": 0.7559055118110236
        },
        {
          "duration": 0.29703000000000657,
          "durationTicks": 96,
          "midi": 59,
          "name": "B3",
          "ticks": 31392,
          "time": 97.12881,
          "velocity": 0.7559055118110236
        },
        {
          "duration": 0.29703000000000657,
          "durationTicks": 96,
          "midi": 62,
          "name": "D4",
          "ticks": 31392,
          "time": 97.12881,
          "velocity": 0.7559055118110236
        },
        {
          "duration": 0.29702999999999236,
          "durationTicks": 96,
          "midi": 56,
          "name": "G#3",
          "ticks": 31536,
          "time": 97.57435500000001,
          "velocity": 0.7559055118110236
        },
        {
          "duration": 0.29702999999999236,
          "durationTicks": 96,
          "midi": 59,
          "name": "B3",
          "ticks": 31536,
          "time": 97.57435500000001,
          "velocity": 0.7559055118110236
        },
        {
          "duration": 0.29702999999999236,
          "durationTicks": 96,
          "midi": 62,
          "name": "D4",
          "ticks": 31536,
          "time": 97.57435500000001,
          "velocity": 0.7559055118110236
        },
        {
          "duration": 0.29702999999999236,
          "durationTicks": 96,
          "midi": 60,
          "name": "C4",
          "ticks": 31680,
          "time": 98.0199,
          "velocity": 0.7559055118110236
        },
        {
          "duration": 0.29702999999999236,
          "durationTicks": 96,
          "midi": 64,
          "name": "E4",
          "ticks": 31680,
          "time": 98.0199,
          "velocity": 0.7559055118110236
        },
        {
          "duration": 0.29702999999999236,
          "durationTicks": 96,
          "midi": 57,
          "name": "A3",
          "ticks": 31680,
          "time": 98.0199,
          "velocity": 0.7559055118110236
        },
        {
          "duration": 0.29703000000000657,
          "durationTicks": 96,
          "midi": 57,
          "name": "A3",
          "ticks": 31776,
          "time": 98.31693,
          "velocity": 0.7559055118110236
        },
        {
          "duration": 0.29703000000000657,
          "durationTicks": 96,
          "midi": 64,
          "name": "E4",
          "ticks": 31776,
          "time": 98.31693,
          "velocity": 0.7559055118110236
        },
        {
          "duration": 0.29703000000000657,
          "durationTicks": 96,
          "midi": 60,
          "name": "C4",
          "ticks": 31776,
          "time": 98.31693,
          "velocity": 0.7559055118110236
        },
        {
          "duration": 0.29703000000000657,
          "durationTicks": 96,
          "midi": 67,
          "name": "G4",
          "ticks": 31776,
          "time": 98.31693,
          "velocity": 0.7559055118110236
        },
        {
          "duration": 0.29703000000000657,
          "durationTicks": 96,
          "midi": 60,
          "name": "C4",
          "ticks": 31872,
          "time": 98.61396,
          "velocity": 0.7559055118110236
        },
        {
          "duration": 0.29703000000000657,
          "durationTicks": 96,
          "midi": 53,
          "name": "F3",
          "ticks": 31872,
          "time": 98.61396,
          "velocity": 0.7559055118110236
        },
        {
          "duration": 0.29703000000000657,
          "durationTicks": 96,
          "midi": 64,
          "name": "E4",
          "ticks": 31872,
          "time": 98.61396,
          "velocity": 0.7559055118110236
        },
        {
          "duration": 0.29703000000000657,
          "durationTicks": 96,
          "midi": 57,
          "name": "A3",
          "ticks": 31872,
          "time": 98.61396,
          "velocity": 0.7559055118110236
        },
        {
          "duration": 0.3465350000000029,
          "durationTicks": 112,
          "midi": 62,
          "name": "D4",
          "ticks": 32016,
          "time": 99.059505,
          "velocity": 0.7559055118110236
        },
        {
          "duration": 0.3465350000000029,
          "durationTicks": 112,
          "midi": 59,
          "name": "B3",
          "ticks": 32016,
          "time": 99.059505,
          "velocity": 0.7559055118110236
        },
        {
          "duration": 0.3465350000000029,
          "durationTicks": 112,
          "midi": 55,
          "name": "G3",
          "ticks": 32016,
          "time": 99.059505,
          "velocity": 0.7559055118110236
        },
        {
          "duration": 0.29702999999999236,
          "durationTicks": 96,
          "midi": 62,
          "name": "D4",
          "ticks": 32160,
          "time": 99.50505000000001,
          "velocity": 0.7559055118110236
        },
        {
          "duration": 0.29702999999999236,
          "durationTicks": 96,
          "midi": 59,
          "name": "B3",
          "ticks": 32160,
          "time": 99.50505000000001,
          "velocity": 0.7559055118110236
        },
        {
          "duration": 0.29702999999999236,
          "durationTicks": 96,
          "midi": 55,
          "name": "G3",
          "ticks": 32160,
          "time": 99.50505000000001,
          "velocity": 0.7559055118110236
        },
        {
          "duration": 0.29702999999999236,
          "durationTicks": 96,
          "midi": 62,
          "name": "D4",
          "ticks": 32304,
          "time": 99.950595,
          "velocity": 0.7559055118110236
        },
        {
          "duration": 0.29702999999999236,
          "durationTicks": 96,
          "midi": 59,
          "name": "B3",
          "ticks": 32304,
          "time": 99.950595,
          "velocity": 0.7559055118110236
        },
        {
          "duration": 0.29702999999999236,
          "durationTicks": 96,
          "midi": 56,
          "name": "G#3",
          "ticks": 32304,
          "time": 99.950595,
          "velocity": 0.7559055118110236
        },
        {
          "duration": 0.29703000000000657,
          "durationTicks": 96,
          "midi": 57,
          "name": "A3",
          "ticks": 32448,
          "time": 100.39614,
          "velocity": 0.7559055118110236
        },
        {
          "duration": 0.29703000000000657,
          "durationTicks": 96,
          "midi": 64,
          "name": "E4",
          "ticks": 32448,
          "time": 100.39614,
          "velocity": 0.7559055118110236
        },
        {
          "duration": 0.29703000000000657,
          "durationTicks": 96,
          "midi": 60,
          "name": "C4",
          "ticks": 32448,
          "time": 100.39614,
          "velocity": 0.7559055118110236
        },
        {
          "duration": 0.29702999999999236,
          "durationTicks": 96,
          "midi": 57,
          "name": "A3",
          "ticks": 32544,
          "time": 100.69317000000001,
          "velocity": 0.7559055118110236
        },
        {
          "duration": 0.29702999999999236,
          "durationTicks": 96,
          "midi": 64,
          "name": "E4",
          "ticks": 32544,
          "time": 100.69317000000001,
          "velocity": 0.7559055118110236
        },
        {
          "duration": 0.29702999999999236,
          "durationTicks": 96,
          "midi": 60,
          "name": "C4",
          "ticks": 32544,
          "time": 100.69317000000001,
          "velocity": 0.7559055118110236
        },
        {
          "duration": 0.29702999999999236,
          "durationTicks": 96,
          "midi": 67,
          "name": "G4",
          "ticks": 32544,
          "time": 100.69317000000001,
          "velocity": 0.7559055118110236
        },
        {
          "duration": 0.29703000000000657,
          "durationTicks": 96,
          "midi": 60,
          "name": "C4",
          "ticks": 32640,
          "time": 100.9902,
          "velocity": 0.7559055118110236
        },
        {
          "duration": 0.29703000000000657,
          "durationTicks": 96,
          "midi": 53,
          "name": "F3",
          "ticks": 32640,
          "time": 100.9902,
          "velocity": 0.7559055118110236
        },
        {
          "duration": 0.29703000000000657,
          "durationTicks": 96,
          "midi": 64,
          "name": "E4",
          "ticks": 32640,
          "time": 100.9902,
          "velocity": 0.7559055118110236
        },
        {
          "duration": 0.29703000000000657,
          "durationTicks": 96,
          "midi": 57,
          "name": "A3",
          "ticks": 32640,
          "time": 100.9902,
          "velocity": 0.7559055118110236
        },
        {
          "duration": 0.3465350000000029,
          "durationTicks": 112,
          "midi": 55,
          "name": "G3",
          "ticks": 32784,
          "time": 101.43574500000001,
          "velocity": 0.7559055118110236
        },
        {
          "duration": 0.3465350000000029,
          "durationTicks": 112,
          "midi": 59,
          "name": "B3",
          "ticks": 32784,
          "time": 101.43574500000001,
          "velocity": 0.7559055118110236
        },
        {
          "duration": 0.3465350000000029,
          "durationTicks": 112,
          "midi": 62,
          "name": "D4",
          "ticks": 32784,
          "time": 101.43574500000001,
          "velocity": 0.7559055118110236
        },
        {
          "duration": 0.29702999999999236,
          "durationTicks": 96,
          "midi": 55,
          "name": "G3",
          "ticks": 32928,
          "time": 101.88129,
          "velocity": 0.7559055118110236
        },
        {
          "duration": 0.29702999999999236,
          "durationTicks": 96,
          "midi": 59,
          "name": "B3",
          "ticks": 32928,
          "time": 101.88129,
          "velocity": 0.7559055118110236
        },
        {
          "duration": 0.29702999999999236,
          "durationTicks": 96,
          "midi": 62,
          "name": "D4",
          "ticks": 32928,
          "time": 101.88129,
          "velocity": 0.7559055118110236
        },
        {
          "duration": 0.29703000000000657,
          "durationTicks": 96,
          "midi": 56,
          "name": "G#3",
          "ticks": 33072,
          "time": 102.326835,
          "velocity": 0.7559055118110236
        },
        {
          "duration": 0.29703000000000657,
          "durationTicks": 96,
          "midi": 59,
          "name": "B3",
          "ticks": 33072,
          "time": 102.326835,
          "velocity": 0.7559055118110236
        },
        {
          "duration": 0.29703000000000657,
          "durationTicks": 96,
          "midi": 62,
          "name": "D4",
          "ticks": 33072,
          "time": 102.326835,
          "velocity": 0.7559055118110236
        },
        {
          "duration": 0.29702999999999236,
          "durationTicks": 96,
          "midi": 60,
          "name": "C4",
          "ticks": 33216,
          "time": 102.77238000000001,
          "velocity": 0.7559055118110236
        },
        {
          "duration": 0.29702999999999236,
          "durationTicks": 96,
          "midi": 64,
          "name": "E4",
          "ticks": 33216,
          "time": 102.77238000000001,
          "velocity": 0.7559055118110236
        },
        {
          "duration": 0.29702999999999236,
          "durationTicks": 96,
          "midi": 57,
          "name": "A3",
          "ticks": 33216,
          "time": 102.77238000000001,
          "velocity": 0.7559055118110236
        },
        {
          "duration": 0.29703000000000657,
          "durationTicks": 96,
          "midi": 57,
          "name": "A3",
          "ticks": 33312,
          "time": 103.06941,
          "velocity": 0.7559055118110236
        },
        {
          "duration": 0.29703000000000657,
          "durationTicks": 96,
          "midi": 64,
          "name": "E4",
          "ticks": 33312,
          "time": 103.06941,
          "velocity": 0.7559055118110236
        },
        {
          "duration": 0.29703000000000657,
          "durationTicks": 96,
          "midi": 60,
          "name": "C4",
          "ticks": 33312,
          "time": 103.06941,
          "velocity": 0.7559055118110236
        },
        {
          "duration": 0.29703000000000657,
          "durationTicks": 96,
          "midi": 67,
          "name": "G4",
          "ticks": 33312,
          "time": 103.06941,
          "velocity": 0.7559055118110236
        },
        {
          "duration": 0.29702999999999236,
          "durationTicks": 96,
          "midi": 57,
          "name": "A3",
          "ticks": 33408,
          "time": 103.36644000000001,
          "velocity": 0.7559055118110236
        },
        {
          "duration": 0.29702999999999236,
          "durationTicks": 96,
          "midi": 64,
          "name": "E4",
          "ticks": 33408,
          "time": 103.36644000000001,
          "velocity": 0.7559055118110236
        },
        {
          "duration": 0.29702999999999236,
          "durationTicks": 96,
          "midi": 53,
          "name": "F3",
          "ticks": 33408,
          "time": 103.36644000000001,
          "velocity": 0.7559055118110236
        },
        {
          "duration": 0.29702999999999236,
          "durationTicks": 96,
          "midi": 60,
          "name": "C4",
          "ticks": 33408,
          "time": 103.36644000000001,
          "velocity": 0.7559055118110236
        },
        {
          "duration": 0.3465350000000029,
          "durationTicks": 112,
          "midi": 55,
          "name": "G3",
          "ticks": 33552,
          "time": 103.811985,
          "velocity": 0.7559055118110236
        },
        {
          "duration": 0.3465350000000029,
          "durationTicks": 112,
          "midi": 59,
          "name": "B3",
          "ticks": 33552,
          "time": 103.811985,
          "velocity": 0.7559055118110236
        },
        {
          "duration": 0.3465350000000029,
          "durationTicks": 112,
          "midi": 62,
          "name": "D4",
          "ticks": 33552,
          "time": 103.811985,
          "velocity": 0.7559055118110236
        },
        {
          "duration": 0.29703000000000657,
          "durationTicks": 96,
          "midi": 62,
          "name": "D4",
          "ticks": 33696,
          "time": 104.25753,
          "velocity": 0.7559055118110236
        },
        {
          "duration": 0.29703000000000657,
          "durationTicks": 96,
          "midi": 59,
          "name": "B3",
          "ticks": 33696,
          "time": 104.25753,
          "velocity": 0.7559055118110236
        },
        {
          "duration": 0.29703000000000657,
          "durationTicks": 96,
          "midi": 55,
          "name": "G3",
          "ticks": 33696,
          "time": 104.25753,
          "velocity": 0.7559055118110236
        },
        {
          "duration": 0.14851500000000328,
          "durationTicks": 48,
          "midi": 59,
          "name": "B3",
          "ticks": 33888,
          "time": 104.85159,
          "velocity": 0.7559055118110236
        },
        {
          "duration": 0.14851500000000328,
          "durationTicks": 48,
          "midi": 62,
          "name": "D4",
          "ticks": 33888,
          "time": 104.85159,
          "velocity": 0.7559055118110236
        },
        {
          "duration": 0.14851500000000328,
          "durationTicks": 48,
          "midi": 60,
          "name": "C4",
          "ticks": 33984,
          "time": 105.14862000000001,
          "velocity": 0.7559055118110236
        },
        {
          "duration": 0.14851500000000328,
          "durationTicks": 48,
          "midi": 57,
          "name": "A3",
          "ticks": 33984,
          "time": 105.14862000000001,
          "velocity": 0.7559055118110236
        },
        {
          "duration": 0.14851500000000328,
          "durationTicks": 48,
          "midi": 55,
          "name": "G3",
          "ticks": 34080,
          "time": 105.44565,
          "velocity": 0.7559055118110236
        },
        {
          "duration": 0.14851500000000328,
          "durationTicks": 48,
          "midi": 59,
          "name": "B3",
          "ticks": 34080,
          "time": 105.44565,
          "velocity": 0.7559055118110236
        },
        {
          "duration": 0.5940599999999989,
          "durationTicks": 192,
          "midi": 57,
          "name": "A3",
          "ticks": 34176,
          "time": 105.74268000000001,
          "velocity": 0.7559055118110236
        },
        {
          "duration": 0.5940599999999989,
          "durationTicks": 192,
          "midi": 64,
          "name": "E4",
          "ticks": 34176,
          "time": 105.74268000000001,
          "velocity": 0.7559055118110236
        },
        {
          "duration": 0.5940599999999989,
          "durationTicks": 192,
          "midi": 53,
          "name": "F3",
          "ticks": 34176,
          "time": 105.74268000000001,
          "velocity": 0.7559055118110236
        },
        {
          "duration": 0.5940599999999989,
          "durationTicks": 192,
          "midi": 60,
          "name": "C4",
          "ticks": 34176,
          "time": 105.74268000000001,
          "velocity": 0.7559055118110236
        },
        {
          "duration": 0.5940599999999989,
          "durationTicks": 192,
          "midi": 62,
          "name": "D4",
          "ticks": 34368,
          "time": 106.33674,
          "velocity": 0.7559055118110236
        },
        {
          "duration": 0.5940599999999989,
          "durationTicks": 192,
          "midi": 59,
          "name": "B3",
          "ticks": 34368,
          "time": 106.33674,
          "velocity": 0.7559055118110236
        },
        {
          "duration": 0.5940599999999989,
          "durationTicks": 192,
          "midi": 55,
          "name": "G3",
          "ticks": 34368,
          "time": 106.33674,
          "velocity": 0.7559055118110236
        },
        {
          "duration": 0.5940599999999989,
          "durationTicks": 192,
          "midi": 62,
          "name": "D4",
          "ticks": 34560,
          "time": 106.9308,
          "velocity": 0.7559055118110236
        },
        {
          "duration": 0.5940599999999989,
          "durationTicks": 192,
          "midi": 59,
          "name": "B3",
          "ticks": 34560,
          "time": 106.9308,
          "velocity": 0.7559055118110236
        },
        {
          "duration": 0.5940599999999989,
          "durationTicks": 192,
          "midi": 56,
          "name": "G#3",
          "ticks": 34560,
          "time": 106.9308,
          "velocity": 0.7559055118110236
        },
        {
          "duration": 0.5940599999999989,
          "durationTicks": 192,
          "midi": 57,
          "name": "A3",
          "ticks": 34752,
          "time": 107.52486,
          "velocity": 0.7559055118110236
        },
        {
          "duration": 0.5940599999999989,
          "durationTicks": 192,
          "midi": 64,
          "name": "E4",
          "ticks": 34752,
          "time": 107.52486,
          "velocity": 0.7559055118110236
        },
        {
          "duration": 0.5940599999999989,
          "durationTicks": 192,
          "midi": 60,
          "name": "C4",
          "ticks": 34752,
          "time": 107.52486,
          "velocity": 0.7559055118110236
        },
        {
          "duration": 0.5940599999999989,
          "durationTicks": 192,
          "midi": 60,
          "name": "C4",
          "ticks": 34944,
          "time": 108.11892,
          "velocity": 0.7559055118110236
        },
        {
          "duration": 0.5940599999999989,
          "durationTicks": 192,
          "midi": 53,
          "name": "F3",
          "ticks": 34944,
          "time": 108.11892,
          "velocity": 0.7559055118110236
        },
        {
          "duration": 0.5940599999999989,
          "durationTicks": 192,
          "midi": 64,
          "name": "E4",
          "ticks": 34944,
          "time": 108.11892,
          "velocity": 0.7559055118110236
        },
        {
          "duration": 0.5940599999999989,
          "durationTicks": 192,
          "midi": 57,
          "name": "A3",
          "ticks": 34944,
          "time": 108.11892,
          "velocity": 0.7559055118110236
        },
        {
          "duration": 0.5940599999999989,
          "durationTicks": 192,
          "midi": 55,
          "name": "G3",
          "ticks": 35136,
          "time": 108.71298,
          "velocity": 0.7559055118110236
        },
        {
          "duration": 0.5940599999999989,
          "durationTicks": 192,
          "midi": 59,
          "name": "B3",
          "ticks": 35136,
          "time": 108.71298,
          "velocity": 0.7559055118110236
        },
        {
          "duration": 0.5940599999999989,
          "durationTicks": 192,
          "midi": 62,
          "name": "D4",
          "ticks": 35136,
          "time": 108.71298,
          "velocity": 0.7559055118110236
        },
        {
          "duration": 0.5940599999999989,
          "durationTicks": 192,
          "midi": 56,
          "name": "G#3",
          "ticks": 35328,
          "time": 109.30704,
          "velocity": 0.7559055118110236
        },
        {
          "duration": 0.5940599999999989,
          "durationTicks": 192,
          "midi": 59,
          "name": "B3",
          "ticks": 35328,
          "time": 109.30704,
          "velocity": 0.7559055118110236
        },
        {
          "duration": 0.5940599999999989,
          "durationTicks": 192,
          "midi": 62,
          "name": "D4",
          "ticks": 35328,
          "time": 109.30704,
          "velocity": 0.7559055118110236
        },
        {
          "duration": 0.5940600000000131,
          "durationTicks": 192,
          "midi": 60,
          "name": "C4",
          "ticks": 35520,
          "time": 109.9011,
          "velocity": 0.7559055118110236
        },
        {
          "duration": 0.5940600000000131,
          "durationTicks": 192,
          "midi": 64,
          "name": "E4",
          "ticks": 35520,
          "time": 109.9011,
          "velocity": 0.7559055118110236
        },
        {
          "duration": 0.5940600000000131,
          "durationTicks": 192,
          "midi": 57,
          "name": "A3",
          "ticks": 35520,
          "time": 109.9011,
          "velocity": 0.7559055118110236
        },
        {
          "duration": 0.5940599999999989,
          "durationTicks": 192,
          "midi": 60,
          "name": "C4",
          "ticks": 35712,
          "time": 110.49516000000001,
          "velocity": 0.7559055118110236
        },
        {
          "duration": 0.5940599999999989,
          "durationTicks": 192,
          "midi": 53,
          "name": "F3",
          "ticks": 35712,
          "time": 110.49516000000001,
          "velocity": 0.7559055118110236
        },
        {
          "duration": 0.5940599999999989,
          "durationTicks": 192,
          "midi": 64,
          "name": "E4",
          "ticks": 35712,
          "time": 110.49516000000001,
          "velocity": 0.7559055118110236
        },
        {
          "duration": 0.5940599999999989,
          "durationTicks": 192,
          "midi": 57,
          "name": "A3",
          "ticks": 35712,
          "time": 110.49516000000001,
          "velocity": 0.7559055118110236
        },
        {
          "duration": 0.5940599999999989,
          "durationTicks": 192,
          "midi": 62,
          "name": "D4",
          "ticks": 35904,
          "time": 111.08922000000001,
          "velocity": 0.7559055118110236
        },
        {
          "duration": 0.5940599999999989,
          "durationTicks": 192,
          "midi": 59,
          "name": "B3",
          "ticks": 35904,
          "time": 111.08922000000001,
          "velocity": 0.7559055118110236
        },
        {
          "duration": 0.5940599999999989,
          "durationTicks": 192,
          "midi": 55,
          "name": "G3",
          "ticks": 35904,
          "time": 111.08922000000001,
          "velocity": 0.7559055118110236
        },
        {
          "duration": 0.5940599999999989,
          "durationTicks": 192,
          "midi": 56,
          "name": "G#3",
          "ticks": 36096,
          "time": 111.68328000000001,
          "velocity": 0.7559055118110236
        },
        {
          "duration": 0.5940599999999989,
          "durationTicks": 192,
          "midi": 59,
          "name": "B3",
          "ticks": 36096,
          "time": 111.68328000000001,
          "velocity": 0.7559055118110236
        },
        {
          "duration": 0.5940599999999989,
          "durationTicks": 192,
          "midi": 62,
          "name": "D4",
          "ticks": 36096,
          "time": 111.68328000000001,
          "velocity": 0.7559055118110236
        },
        {
          "duration": 0.5940599999999989,
          "durationTicks": 192,
          "midi": 60,
          "name": "C4",
          "ticks": 36288,
          "time": 112.27734000000001,
          "velocity": 0.7559055118110236
        },
        {
          "duration": 0.5940599999999989,
          "durationTicks": 192,
          "midi": 64,
          "name": "E4",
          "ticks": 36288,
          "time": 112.27734000000001,
          "velocity": 0.7559055118110236
        },
        {
          "duration": 0.5940599999999989,
          "durationTicks": 192,
          "midi": 57,
          "name": "A3",
          "ticks": 36288,
          "time": 112.27734000000001,
          "velocity": 0.7559055118110236
        },
        {
          "duration": 0.5940599999999989,
          "durationTicks": 192,
          "midi": 57,
          "name": "A3",
          "ticks": 36480,
          "time": 112.87140000000001,
          "velocity": 0.7559055118110236
        },
        {
          "duration": 0.5940599999999989,
          "durationTicks": 192,
          "midi": 64,
          "name": "E4",
          "ticks": 36480,
          "time": 112.87140000000001,
          "velocity": 0.7559055118110236
        },
        {
          "duration": 0.5940599999999989,
          "durationTicks": 192,
          "midi": 53,
          "name": "F3",
          "ticks": 36480,
          "time": 112.87140000000001,
          "velocity": 0.7559055118110236
        },
        {
          "duration": 0.5940599999999989,
          "durationTicks": 192,
          "midi": 60,
          "name": "C4",
          "ticks": 36480,
          "time": 112.87140000000001,
          "velocity": 0.7559055118110236
        },
        {
          "duration": 0.5940599999999989,
          "durationTicks": 192,
          "midi": 55,
          "name": "G3",
          "ticks": 36672,
          "time": 113.46546000000001,
          "velocity": 0.7559055118110236
        },
        {
          "duration": 0.5940599999999989,
          "durationTicks": 192,
          "midi": 59,
          "name": "B3",
          "ticks": 36672,
          "time": 113.46546000000001,
          "velocity": 0.7559055118110236
        },
        {
          "duration": 0.5940599999999989,
          "durationTicks": 192,
          "midi": 62,
          "name": "D4",
          "ticks": 36672,
          "time": 113.46546000000001,
          "velocity": 0.7559055118110236
        },
        {
          "duration": 1.1881199999999978,
          "durationTicks": 384,
          "midi": 57,
          "name": "A3",
          "ticks": 36864,
          "time": 114.05952,
          "velocity": 0.7559055118110236
        },
        {
          "duration": 1.1881199999999978,
          "durationTicks": 384,
          "midi": 64,
          "name": "E4",
          "ticks": 36864,
          "time": 114.05952,
          "velocity": 0.7559055118110236
        },
        {
          "duration": 1.1881199999999978,
          "durationTicks": 384,
          "midi": 60,
          "name": "C4",
          "ticks": 36864,
          "time": 114.05952,
          "velocity": 0.7559055118110236
        },
        {
          "duration": 1.1881199999999978,
          "durationTicks": 384,
          "midi": 67,
          "name": "G4",
          "ticks": 36864,
          "time": 114.05952,
          "velocity": 0.7637795275590551
        }
      ],
      "endOfTrackTicks": 39938
    },
    {
      "channel": 0,
      "controlChanges": {
        "6": [
          {
            "number": 6,
            "ticks": 0,
            "time": 0,
            "value": 0.09448818897637795
          },
          {
            "number": 6,
            "ticks": 0,
            "time": 0,
            "value": 0.09448818897637795
          },
          {
            "number": 6,
            "ticks": 0,
            "time": 0,
            "value": 0.09448818897637795
          },
          {
            "number": 6,
            "ticks": 39936,
            "time": 123.56448,
            "value": 0.09448818897637795
          },
          {
            "number": 6,
            "ticks": 39938,
            "time": 123.570668125,
            "value": 0.09448818897637795
          }
        ],
        "7": [
          {
            "number": 7,
            "ticks": 0,
            "time": 0,
            "value": 0.7874015748031497
          },
          {
            "number": 7,
            "ticks": 0,
            "time": 0,
            "value": 0.7874015748031497
          },
          {
            "number": 7,
            "ticks": 0,
            "time": 0,
            "value": 0.7874015748031497
          },
          {
            "number": 7,
            "ticks": 0,
            "time": 0,
            "value": 0.7874015748031497
          },
          {
            "number": 7,
            "ticks": 39936,
            "time": 123.56448,
            "value": 0.7874015748031497
          },
          {
            "number": 7,
            "ticks": 39938,
            "time": 123.570668125,
            "value": 0.7874015748031497
          }
        ],
        "10": [
          {
            "number": 10,
            "ticks": 0,
            "time": 0,
            "value": 0.5039370078740157
          },
          {
            "number": 10,
            "ticks": 0,
            "time": 0,
            "value": 0.5039370078740157
          },
          {
            "number": 10,
            "ticks": 0,
            "time": 0,
            "value": 0.5039370078740157
          },
          {
            "number": 10,
            "ticks": 0,
            "time": 0,
            "value": 0.5039370078740157
          },
          {
            "number": 10,
            "ticks": 39936,
            "time": 123.56448,
            "value": 0.5039370078740157
          },
          {
            "number": 10,
            "ticks": 39938,
            "time": 123.570668125,
            "value": 0.5039370078740157
          }
        ],
        "100": [
          {
            "number": 100,
            "ticks": 0,
            "time": 0,
            "value": 0
          },
          {
            "number": 100,
            "ticks": 0,
            "time": 0,
            "value": 0
          },
          {
            "number": 100,
            "ticks": 0,
            "time": 0,
            "value": 0
          },
          {
            "number": 100,
            "ticks": 39936,
            "time": 123.56448,
            "value": 0
          },
          {
            "number": 100,
            "ticks": 39938,
            "time": 123.570668125,
            "value": 0
          }
        ],
        "101": [
          {
            "number": 101,
            "ticks": 0,
            "time": 0,
            "value": 0
          },
          {
            "number": 101,
            "ticks": 0,
            "time": 0,
            "value": 0
          },
          {
            "number": 101,
            "ticks": 0,
            "time": 0,
            "value": 0
          },
          {
            "number": 101,
            "ticks": 39936,
            "time": 123.56448,
            "value": 0
          },
          {
            "number": 101,
            "ticks": 39938,
            "time": 123.570668125,
            "value": 0
          }
        ]
      },
      "pitchBends": [
        {
          "ticks": 0,
          "time": 0,
          "value": 0
        },
        {
          "ticks": 0,
          "time": 0,
          "value": 0
        },
        {
          "ticks": 0,
          "time": 0,
          "value": 0
        },
        {
          "ticks": 0,
          "time": 0,
          "value": 0
        },
        {
          "ticks": 39936,
          "time": 123.56448,
          "value": 0
        },
        {
          "ticks": 39938,
          "time": 123.570668125,
          "value": 0
        }
      ],
      "instrument": {
        "family": "piano",
        "number": 0,
        "name": "acoustic grand piano"
      },
      "name": "Close Grand",
      "notes": [],
      "endOfTrackTicks": 39938
    }
  ]
}
